<?xml version="1.0" encoding="utf-8" standalone="no"?>
<!DOCTYPE svg PUBLIC "-//W3C//DTD SVG 1.1//EN"
  "http://www.w3.org/Graphics/SVG/1.1/DTD/svg11.dtd">
<svg xmlns:xlink="http://www.w3.org/1999/xlink" width="426.035625pt" height="371.002375pt" viewBox="0 0 426.035625 371.002375" xmlns="http://www.w3.org/2000/svg" version="1.1">
 <metadata>
  <rdf:RDF xmlns:dc="http://purl.org/dc/elements/1.1/" xmlns:cc="http://creativecommons.org/ns#" xmlns:rdf="http://www.w3.org/1999/02/22-rdf-syntax-ns#">
   <cc:Work>
    <dc:type rdf:resource="http://purl.org/dc/dcmitype/StillImage"/>
    <dc:date>2026-06-29T05:26:30.622409</dc:date>
    <dc:format>image/svg+xml</dc:format>
    <dc:creator>
     <cc:Agent>
      <dc:title>Matplotlib v3.10.6, https://matplotlib.org/</dc:title>
     </cc:Agent>
    </dc:creator>
   </cc:Work>
  </rdf:RDF>
 </metadata>
 <defs>
  <style type="text/css">*{stroke-linejoin: round; stroke-linecap: butt}</style>
 </defs>
 <g id="figure_1">
  <g id="patch_1">
   <path d="M 0 371.002375 
L 426.035625 371.002375 
L 426.035625 0 
L 0 0 
z
" style="fill: #ffffff"/>
  </g>
  <g id="axes_1">
   <g id="patch_2">
    <path d="M 61.715625 288.430125 
L 418.835625 288.430125 
L 418.835625 22.318125 
L 61.715625 22.318125 
z
" style="fill: #ffffff"/>
   </g>
   <g id="matplotlib.axis_1">
    <g id="xtick_1">
     <g id="line2d_1">
      <defs>
       <path id="m33b972b05d" d="M 0 0 
L 0 3.5 
" style="stroke: #000000; stroke-width: 0.8"/>
      </defs>
      <g>
       <use xlink:href="#m33b972b05d" x="61.715625" y="288.430125" style="stroke: #000000; stroke-width: 0.8"/>
      </g>
     </g>
     <g id="text_1">
      <!-- 0 -->
      <g transform="translate(58.534375 303.028562) scale(0.1 -0.1)">
       <defs>
        <path id="DejaVuSans-30" d="M 2034 4250 
Q 1547 4250 1301 3770 
Q 1056 3291 1056 2328 
Q 1056 1369 1301 889 
Q 1547 409 2034 409 
Q 2525 409 2770 889 
Q 3016 1369 3016 2328 
Q 3016 3291 2770 3770 
Q 2525 4250 2034 4250 
z
M 2034 4750 
Q 2819 4750 3233 4129 
Q 3647 3509 3647 2328 
Q 3647 1150 3233 529 
Q 2819 -91 2034 -91 
Q 1250 -91 836 529 
Q 422 1150 422 2328 
Q 422 3509 836 4129 
Q 1250 4750 2034 4750 
z
" transform="scale(0.015625)"/>
       </defs>
       <use xlink:href="#DejaVuSans-30"/>
      </g>
     </g>
    </g>
    <g id="xtick_2">
     <g id="line2d_2">
      <g>
       <use xlink:href="#m33b972b05d" x="105.264189" y="288.430125" style="stroke: #000000; stroke-width: 0.8"/>
      </g>
     </g>
     <g id="text_2">
      <!-- 500  -->
      <g transform="translate(94.131377 303.028562) scale(0.1 -0.1)">
       <defs>
        <path id="DejaVuSans-35" d="M 691 4666 
L 3169 4666 
L 3169 4134 
L 1269 4134 
L 1269 2991 
Q 1406 3038 1543 3061 
Q 1681 3084 1819 3084 
Q 2600 3084 3056 2656 
Q 3513 2228 3513 1497 
Q 3513 744 3044 326 
Q 2575 -91 1722 -91 
Q 1428 -91 1123 -41 
Q 819 9 494 109 
L 494 744 
Q 775 591 1075 516 
Q 1375 441 1709 441 
Q 2250 441 2565 725 
Q 2881 1009 2881 1497 
Q 2881 1984 2565 2268 
Q 2250 2553 1709 2553 
Q 1456 2553 1204 2497 
Q 953 2441 691 2322 
L 691 4666 
z
" transform="scale(0.015625)"/>
        <path id="DejaVuSans-20" transform="scale(0.015625)"/>
       </defs>
       <use xlink:href="#DejaVuSans-35"/>
       <use xlink:href="#DejaVuSans-30" transform="translate(63.623047 0)"/>
       <use xlink:href="#DejaVuSans-30" transform="translate(127.246094 0)"/>
       <use xlink:href="#DejaVuSans-20" transform="translate(190.869141 0)"/>
      </g>
     </g>
    </g>
    <g id="xtick_3">
     <g id="line2d_3">
      <g>
       <use xlink:href="#m33b972b05d" x="148.812753" y="288.430125" style="stroke: #000000; stroke-width: 0.8"/>
      </g>
     </g>
     <g id="text_3">
      <!-- 1 k -->
      <g transform="translate(141.147128 303.028562) scale(0.1 -0.1)">
       <defs>
        <path id="DejaVuSans-31" d="M 794 531 
L 1825 531 
L 1825 4091 
L 703 3866 
L 703 4441 
L 1819 4666 
L 2450 4666 
L 2450 531 
L 3481 531 
L 3481 0 
L 794 0 
L 794 531 
z
" transform="scale(0.015625)"/>
        <path id="DejaVuSans-6b" d="M 581 4863 
L 1159 4863 
L 1159 1991 
L 2875 3500 
L 3609 3500 
L 1753 1863 
L 3688 0 
L 2938 0 
L 1159 1709 
L 1159 0 
L 581 0 
L 581 4863 
z
" transform="scale(0.015625)"/>
       </defs>
       <use xlink:href="#DejaVuSans-31"/>
       <use xlink:href="#DejaVuSans-20" transform="translate(63.623047 0)"/>
       <use xlink:href="#DejaVuSans-6b" transform="translate(95.410156 0)"/>
      </g>
     </g>
    </g>
    <g id="xtick_4">
     <g id="line2d_4">
      <g>
       <use xlink:href="#m33b972b05d" x="192.361317" y="288.430125" style="stroke: #000000; stroke-width: 0.8"/>
      </g>
     </g>
     <g id="text_4">
      <!-- 1.5 k -->
      <g transform="translate(179.92538 303.028562) scale(0.1 -0.1)">
       <defs>
        <path id="DejaVuSans-2e" d="M 684 794 
L 1344 794 
L 1344 0 
L 684 0 
L 684 794 
z
" transform="scale(0.015625)"/>
       </defs>
       <use xlink:href="#DejaVuSans-31"/>
       <use xlink:href="#DejaVuSans-2e" transform="translate(63.623047 0)"/>
       <use xlink:href="#DejaVuSans-35" transform="translate(95.410156 0)"/>
       <use xlink:href="#DejaVuSans-20" transform="translate(159.033203 0)"/>
       <use xlink:href="#DejaVuSans-6b" transform="translate(190.820312 0)"/>
      </g>
     </g>
    </g>
    <g id="xtick_5">
     <g id="line2d_5">
      <g>
       <use xlink:href="#m33b972b05d" x="235.909881" y="288.430125" style="stroke: #000000; stroke-width: 0.8"/>
      </g>
     </g>
     <g id="text_5">
      <!-- 2 k -->
      <g transform="translate(228.244256 303.028562) scale(0.1 -0.1)">
       <defs>
        <path id="DejaVuSans-32" d="M 1228 531 
L 3431 531 
L 3431 0 
L 469 0 
L 469 531 
Q 828 903 1448 1529 
Q 2069 2156 2228 2338 
Q 2531 2678 2651 2914 
Q 2772 3150 2772 3378 
Q 2772 3750 2511 3984 
Q 2250 4219 1831 4219 
Q 1534 4219 1204 4116 
Q 875 4013 500 3803 
L 500 4441 
Q 881 4594 1212 4672 
Q 1544 4750 1819 4750 
Q 2544 4750 2975 4387 
Q 3406 4025 3406 3419 
Q 3406 3131 3298 2873 
Q 3191 2616 2906 2266 
Q 2828 2175 2409 1742 
Q 1991 1309 1228 531 
z
" transform="scale(0.015625)"/>
       </defs>
       <use xlink:href="#DejaVuSans-32"/>
       <use xlink:href="#DejaVuSans-20" transform="translate(63.623047 0)"/>
       <use xlink:href="#DejaVuSans-6b" transform="translate(95.410156 0)"/>
      </g>
     </g>
    </g>
    <g id="xtick_6">
     <g id="line2d_6">
      <g>
       <use xlink:href="#m33b972b05d" x="279.458446" y="288.430125" style="stroke: #000000; stroke-width: 0.8"/>
      </g>
     </g>
     <g id="text_6">
      <!-- 2.5 k -->
      <g transform="translate(267.022508 303.028562) scale(0.1 -0.1)">
       <use xlink:href="#DejaVuSans-32"/>
       <use xlink:href="#DejaVuSans-2e" transform="translate(63.623047 0)"/>
       <use xlink:href="#DejaVuSans-35" transform="translate(95.410156 0)"/>
       <use xlink:href="#DejaVuSans-20" transform="translate(159.033203 0)"/>
       <use xlink:href="#DejaVuSans-6b" transform="translate(190.820312 0)"/>
      </g>
     </g>
    </g>
    <g id="xtick_7">
     <g id="line2d_7">
      <g>
       <use xlink:href="#m33b972b05d" x="323.00701" y="288.430125" style="stroke: #000000; stroke-width: 0.8"/>
      </g>
     </g>
     <g id="text_7">
      <!-- 3 k -->
      <g transform="translate(315.341385 303.028562) scale(0.1 -0.1)">
       <defs>
        <path id="DejaVuSans-33" d="M 2597 2516 
Q 3050 2419 3304 2112 
Q 3559 1806 3559 1356 
Q 3559 666 3084 287 
Q 2609 -91 1734 -91 
Q 1441 -91 1130 -33 
Q 819 25 488 141 
L 488 750 
Q 750 597 1062 519 
Q 1375 441 1716 441 
Q 2309 441 2620 675 
Q 2931 909 2931 1356 
Q 2931 1769 2642 2001 
Q 2353 2234 1838 2234 
L 1294 2234 
L 1294 2753 
L 1863 2753 
Q 2328 2753 2575 2939 
Q 2822 3125 2822 3475 
Q 2822 3834 2567 4026 
Q 2313 4219 1838 4219 
Q 1578 4219 1281 4162 
Q 984 4106 628 3988 
L 628 4550 
Q 988 4650 1302 4700 
Q 1616 4750 1894 4750 
Q 2613 4750 3031 4423 
Q 3450 4097 3450 3541 
Q 3450 3153 3228 2886 
Q 3006 2619 2597 2516 
z
" transform="scale(0.015625)"/>
       </defs>
       <use xlink:href="#DejaVuSans-33"/>
       <use xlink:href="#DejaVuSans-20" transform="translate(63.623047 0)"/>
       <use xlink:href="#DejaVuSans-6b" transform="translate(95.410156 0)"/>
      </g>
     </g>
    </g>
    <g id="xtick_8">
     <g id="line2d_8">
      <g>
       <use xlink:href="#m33b972b05d" x="366.555574" y="288.430125" style="stroke: #000000; stroke-width: 0.8"/>
      </g>
     </g>
     <g id="text_8">
      <!-- 3.5 k -->
      <g transform="translate(354.119636 303.028562) scale(0.1 -0.1)">
       <use xlink:href="#DejaVuSans-33"/>
       <use xlink:href="#DejaVuSans-2e" transform="translate(63.623047 0)"/>
       <use xlink:href="#DejaVuSans-35" transform="translate(95.410156 0)"/>
       <use xlink:href="#DejaVuSans-20" transform="translate(159.033203 0)"/>
       <use xlink:href="#DejaVuSans-6b" transform="translate(190.820312 0)"/>
      </g>
     </g>
    </g>
    <g id="xtick_9">
     <g id="line2d_9">
      <g>
       <use xlink:href="#m33b972b05d" x="410.104138" y="288.430125" style="stroke: #000000; stroke-width: 0.8"/>
      </g>
     </g>
     <g id="text_9">
      <!-- 4 k -->
      <g transform="translate(402.438513 303.028562) scale(0.1 -0.1)">
       <defs>
        <path id="DejaVuSans-34" d="M 2419 4116 
L 825 1625 
L 2419 1625 
L 2419 4116 
z
M 2253 4666 
L 3047 4666 
L 3047 1625 
L 3713 1625 
L 3713 1100 
L 3047 1100 
L 3047 0 
L 2419 0 
L 2419 1100 
L 313 1100 
L 313 1709 
L 2253 4666 
z
" transform="scale(0.015625)"/>
       </defs>
       <use xlink:href="#DejaVuSans-34"/>
       <use xlink:href="#DejaVuSans-20" transform="translate(63.623047 0)"/>
       <use xlink:href="#DejaVuSans-6b" transform="translate(95.410156 0)"/>
      </g>
     </g>
    </g>
    <g id="text_10">
     <!-- Amount of objects in table -->
     <g transform="translate(174.217031 316.706687) scale(0.1 -0.1)">
      <defs>
       <path id="DejaVuSans-41" d="M 2188 4044 
L 1331 1722 
L 3047 1722 
L 2188 4044 
z
M 1831 4666 
L 2547 4666 
L 4325 0 
L 3669 0 
L 3244 1197 
L 1141 1197 
L 716 0 
L 50 0 
L 1831 4666 
z
" transform="scale(0.015625)"/>
       <path id="DejaVuSans-6d" d="M 3328 2828 
Q 3544 3216 3844 3400 
Q 4144 3584 4550 3584 
Q 5097 3584 5394 3201 
Q 5691 2819 5691 2113 
L 5691 0 
L 5113 0 
L 5113 2094 
Q 5113 2597 4934 2840 
Q 4756 3084 4391 3084 
Q 3944 3084 3684 2787 
Q 3425 2491 3425 1978 
L 3425 0 
L 2847 0 
L 2847 2094 
Q 2847 2600 2669 2842 
Q 2491 3084 2119 3084 
Q 1678 3084 1418 2786 
Q 1159 2488 1159 1978 
L 1159 0 
L 581 0 
L 581 3500 
L 1159 3500 
L 1159 2956 
Q 1356 3278 1631 3431 
Q 1906 3584 2284 3584 
Q 2666 3584 2933 3390 
Q 3200 3197 3328 2828 
z
" transform="scale(0.015625)"/>
       <path id="DejaVuSans-6f" d="M 1959 3097 
Q 1497 3097 1228 2736 
Q 959 2375 959 1747 
Q 959 1119 1226 758 
Q 1494 397 1959 397 
Q 2419 397 2687 759 
Q 2956 1122 2956 1747 
Q 2956 2369 2687 2733 
Q 2419 3097 1959 3097 
z
M 1959 3584 
Q 2709 3584 3137 3096 
Q 3566 2609 3566 1747 
Q 3566 888 3137 398 
Q 2709 -91 1959 -91 
Q 1206 -91 779 398 
Q 353 888 353 1747 
Q 353 2609 779 3096 
Q 1206 3584 1959 3584 
z
" transform="scale(0.015625)"/>
       <path id="DejaVuSans-75" d="M 544 1381 
L 544 3500 
L 1119 3500 
L 1119 1403 
Q 1119 906 1312 657 
Q 1506 409 1894 409 
Q 2359 409 2629 706 
Q 2900 1003 2900 1516 
L 2900 3500 
L 3475 3500 
L 3475 0 
L 2900 0 
L 2900 538 
Q 2691 219 2414 64 
Q 2138 -91 1772 -91 
Q 1169 -91 856 284 
Q 544 659 544 1381 
z
M 1991 3584 
L 1991 3584 
z
" transform="scale(0.015625)"/>
       <path id="DejaVuSans-6e" d="M 3513 2113 
L 3513 0 
L 2938 0 
L 2938 2094 
Q 2938 2591 2744 2837 
Q 2550 3084 2163 3084 
Q 1697 3084 1428 2787 
Q 1159 2491 1159 1978 
L 1159 0 
L 581 0 
L 581 3500 
L 1159 3500 
L 1159 2956 
Q 1366 3272 1645 3428 
Q 1925 3584 2291 3584 
Q 2894 3584 3203 3211 
Q 3513 2838 3513 2113 
z
" transform="scale(0.015625)"/>
       <path id="DejaVuSans-74" d="M 1172 4494 
L 1172 3500 
L 2356 3500 
L 2356 3053 
L 1172 3053 
L 1172 1153 
Q 1172 725 1289 603 
Q 1406 481 1766 481 
L 2356 481 
L 2356 0 
L 1766 0 
Q 1100 0 847 248 
Q 594 497 594 1153 
L 594 3053 
L 172 3053 
L 172 3500 
L 594 3500 
L 594 4494 
L 1172 4494 
z
" transform="scale(0.015625)"/>
       <path id="DejaVuSans-66" d="M 2375 4863 
L 2375 4384 
L 1825 4384 
Q 1516 4384 1395 4259 
Q 1275 4134 1275 3809 
L 1275 3500 
L 2222 3500 
L 2222 3053 
L 1275 3053 
L 1275 0 
L 697 0 
L 697 3053 
L 147 3053 
L 147 3500 
L 697 3500 
L 697 3744 
Q 697 4328 969 4595 
Q 1241 4863 1831 4863 
L 2375 4863 
z
" transform="scale(0.015625)"/>
       <path id="DejaVuSans-62" d="M 3116 1747 
Q 3116 2381 2855 2742 
Q 2594 3103 2138 3103 
Q 1681 3103 1420 2742 
Q 1159 2381 1159 1747 
Q 1159 1113 1420 752 
Q 1681 391 2138 391 
Q 2594 391 2855 752 
Q 3116 1113 3116 1747 
z
M 1159 2969 
Q 1341 3281 1617 3432 
Q 1894 3584 2278 3584 
Q 2916 3584 3314 3078 
Q 3713 2572 3713 1747 
Q 3713 922 3314 415 
Q 2916 -91 2278 -91 
Q 1894 -91 1617 61 
Q 1341 213 1159 525 
L 1159 0 
L 581 0 
L 581 4863 
L 1159 4863 
L 1159 2969 
z
" transform="scale(0.015625)"/>
       <path id="DejaVuSans-6a" d="M 603 3500 
L 1178 3500 
L 1178 -63 
Q 1178 -731 923 -1031 
Q 669 -1331 103 -1331 
L -116 -1331 
L -116 -844 
L 38 -844 
Q 366 -844 484 -692 
Q 603 -541 603 -63 
L 603 3500 
z
M 603 4863 
L 1178 4863 
L 1178 4134 
L 603 4134 
L 603 4863 
z
" transform="scale(0.015625)"/>
       <path id="DejaVuSans-65" d="M 3597 1894 
L 3597 1613 
L 953 1613 
Q 991 1019 1311 708 
Q 1631 397 2203 397 
Q 2534 397 2845 478 
Q 3156 559 3463 722 
L 3463 178 
Q 3153 47 2828 -22 
Q 2503 -91 2169 -91 
Q 1331 -91 842 396 
Q 353 884 353 1716 
Q 353 2575 817 3079 
Q 1281 3584 2069 3584 
Q 2775 3584 3186 3129 
Q 3597 2675 3597 1894 
z
M 3022 2063 
Q 3016 2534 2758 2815 
Q 2500 3097 2075 3097 
Q 1594 3097 1305 2825 
Q 1016 2553 972 2059 
L 3022 2063 
z
" transform="scale(0.015625)"/>
       <path id="DejaVuSans-63" d="M 3122 3366 
L 3122 2828 
Q 2878 2963 2633 3030 
Q 2388 3097 2138 3097 
Q 1578 3097 1268 2742 
Q 959 2388 959 1747 
Q 959 1106 1268 751 
Q 1578 397 2138 397 
Q 2388 397 2633 464 
Q 2878 531 3122 666 
L 3122 134 
Q 2881 22 2623 -34 
Q 2366 -91 2075 -91 
Q 1284 -91 818 406 
Q 353 903 353 1747 
Q 353 2603 823 3093 
Q 1294 3584 2113 3584 
Q 2378 3584 2631 3529 
Q 2884 3475 3122 3366 
z
" transform="scale(0.015625)"/>
       <path id="DejaVuSans-73" d="M 2834 3397 
L 2834 2853 
Q 2591 2978 2328 3040 
Q 2066 3103 1784 3103 
Q 1356 3103 1142 2972 
Q 928 2841 928 2578 
Q 928 2378 1081 2264 
Q 1234 2150 1697 2047 
L 1894 2003 
Q 2506 1872 2764 1633 
Q 3022 1394 3022 966 
Q 3022 478 2636 193 
Q 2250 -91 1575 -91 
Q 1294 -91 989 -36 
Q 684 19 347 128 
L 347 722 
Q 666 556 975 473 
Q 1284 391 1588 391 
Q 1994 391 2212 530 
Q 2431 669 2431 922 
Q 2431 1156 2273 1281 
Q 2116 1406 1581 1522 
L 1381 1569 
Q 847 1681 609 1914 
Q 372 2147 372 2553 
Q 372 3047 722 3315 
Q 1072 3584 1716 3584 
Q 2034 3584 2315 3537 
Q 2597 3491 2834 3397 
z
" transform="scale(0.015625)"/>
       <path id="DejaVuSans-69" d="M 603 3500 
L 1178 3500 
L 1178 0 
L 603 0 
L 603 3500 
z
M 603 4863 
L 1178 4863 
L 1178 4134 
L 603 4134 
L 603 4863 
z
" transform="scale(0.015625)"/>
       <path id="DejaVuSans-61" d="M 2194 1759 
Q 1497 1759 1228 1600 
Q 959 1441 959 1056 
Q 959 750 1161 570 
Q 1363 391 1709 391 
Q 2188 391 2477 730 
Q 2766 1069 2766 1631 
L 2766 1759 
L 2194 1759 
z
M 3341 1997 
L 3341 0 
L 2766 0 
L 2766 531 
Q 2569 213 2275 61 
Q 1981 -91 1556 -91 
Q 1019 -91 701 211 
Q 384 513 384 1019 
Q 384 1609 779 1909 
Q 1175 2209 1959 2209 
L 2766 2209 
L 2766 2266 
Q 2766 2663 2505 2880 
Q 2244 3097 1772 3097 
Q 1472 3097 1187 3025 
Q 903 2953 641 2809 
L 641 3341 
Q 956 3463 1253 3523 
Q 1550 3584 1831 3584 
Q 2591 3584 2966 3190 
Q 3341 2797 3341 1997 
z
" transform="scale(0.015625)"/>
       <path id="DejaVuSans-6c" d="M 603 4863 
L 1178 4863 
L 1178 0 
L 603 0 
L 603 4863 
z
" transform="scale(0.015625)"/>
      </defs>
      <use xlink:href="#DejaVuSans-41"/>
      <use xlink:href="#DejaVuSans-6d" transform="translate(68.408203 0)"/>
      <use xlink:href="#DejaVuSans-6f" transform="translate(165.820312 0)"/>
      <use xlink:href="#DejaVuSans-75" transform="translate(227.001953 0)"/>
      <use xlink:href="#DejaVuSans-6e" transform="translate(290.380859 0)"/>
      <use xlink:href="#DejaVuSans-74" transform="translate(353.759766 0)"/>
      <use xlink:href="#DejaVuSans-20" transform="translate(392.96875 0)"/>
      <use xlink:href="#DejaVuSans-6f" transform="translate(424.755859 0)"/>
      <use xlink:href="#DejaVuSans-66" transform="translate(485.9375 0)"/>
      <use xlink:href="#DejaVuSans-20" transform="translate(521.142578 0)"/>
      <use xlink:href="#DejaVuSans-6f" transform="translate(552.929688 0)"/>
      <use xlink:href="#DejaVuSans-62" transform="translate(614.111328 0)"/>
      <use xlink:href="#DejaVuSans-6a" transform="translate(677.587891 0)"/>
      <use xlink:href="#DejaVuSans-65" transform="translate(705.371094 0)"/>
      <use xlink:href="#DejaVuSans-63" transform="translate(766.894531 0)"/>
      <use xlink:href="#DejaVuSans-74" transform="translate(821.875 0)"/>
      <use xlink:href="#DejaVuSans-73" transform="translate(861.083984 0)"/>
      <use xlink:href="#DejaVuSans-20" transform="translate(913.183594 0)"/>
      <use xlink:href="#DejaVuSans-69" transform="translate(944.970703 0)"/>
      <use xlink:href="#DejaVuSans-6e" transform="translate(972.753906 0)"/>
      <use xlink:href="#DejaVuSans-20" transform="translate(1036.132812 0)"/>
      <use xlink:href="#DejaVuSans-74" transform="translate(1067.919922 0)"/>
      <use xlink:href="#DejaVuSans-61" transform="translate(1107.128906 0)"/>
      <use xlink:href="#DejaVuSans-62" transform="translate(1168.408203 0)"/>
      <use xlink:href="#DejaVuSans-6c" transform="translate(1231.884766 0)"/>
      <use xlink:href="#DejaVuSans-65" transform="translate(1259.667969 0)"/>
     </g>
    </g>
   </g>
   <g id="matplotlib.axis_2">
    <g id="ytick_1">
     <g id="line2d_10">
      <defs>
       <path id="m776d27201e" d="M 0 0 
L -3.5 0 
" style="stroke: #000000; stroke-width: 0.8"/>
      </defs>
      <g>
       <use xlink:href="#m776d27201e" x="61.715625" y="288.430125" style="stroke: #000000; stroke-width: 0.8"/>
      </g>
     </g>
     <g id="text_11">
      <!-- 0 -->
      <g transform="translate(48.353125 292.229344) scale(0.1 -0.1)">
       <use xlink:href="#DejaVuSans-30"/>
      </g>
     </g>
    </g>
    <g id="ytick_2">
     <g id="line2d_11">
      <g>
       <use xlink:href="#m776d27201e" x="61.715625" y="240.536533" style="stroke: #000000; stroke-width: 0.8"/>
      </g>
     </g>
     <g id="text_12">
      <!-- 100 µs -->
      <g transform="translate(20.878125 244.335752) scale(0.1 -0.1)">
       <defs>
        <path id="DejaVuSans-b5" d="M 544 -1331 
L 544 3500 
L 1119 3500 
L 1119 1325 
Q 1119 872 1334 640 
Q 1550 409 1972 409 
Q 2434 409 2667 671 
Q 2900 934 2900 1459 
L 2900 3500 
L 3475 3500 
L 3475 806 
Q 3475 619 3529 530 
Q 3584 441 3700 441 
Q 3728 441 3778 458 
Q 3828 475 3916 513 
L 3916 50 
Q 3788 -22 3673 -56 
Q 3559 -91 3450 -91 
Q 3234 -91 3106 31 
Q 2978 153 2931 403 
Q 2775 156 2548 32 
Q 2322 -91 2016 -91 
Q 1697 -91 1473 31 
Q 1250 153 1119 397 
L 1119 -1331 
L 544 -1331 
z
" transform="scale(0.015625)"/>
       </defs>
       <use xlink:href="#DejaVuSans-31"/>
       <use xlink:href="#DejaVuSans-30" transform="translate(63.623047 0)"/>
       <use xlink:href="#DejaVuSans-30" transform="translate(127.246094 0)"/>
       <use xlink:href="#DejaVuSans-20" transform="translate(190.869141 0)"/>
       <use xlink:href="#DejaVuSans-b5" transform="translate(222.65625 0)"/>
       <use xlink:href="#DejaVuSans-73" transform="translate(286.279297 0)"/>
      </g>
     </g>
    </g>
    <g id="ytick_3">
     <g id="line2d_12">
      <g>
       <use xlink:href="#m776d27201e" x="61.715625" y="192.642942" style="stroke: #000000; stroke-width: 0.8"/>
      </g>
     </g>
     <g id="text_13">
      <!-- 200 µs -->
      <g transform="translate(20.878125 196.442161) scale(0.1 -0.1)">
       <use xlink:href="#DejaVuSans-32"/>
       <use xlink:href="#DejaVuSans-30" transform="translate(63.623047 0)"/>
       <use xlink:href="#DejaVuSans-30" transform="translate(127.246094 0)"/>
       <use xlink:href="#DejaVuSans-20" transform="translate(190.869141 0)"/>
       <use xlink:href="#DejaVuSans-b5" transform="translate(222.65625 0)"/>
       <use xlink:href="#DejaVuSans-73" transform="translate(286.279297 0)"/>
      </g>
     </g>
    </g>
    <g id="ytick_4">
     <g id="line2d_13">
      <g>
       <use xlink:href="#m776d27201e" x="61.715625" y="144.74935" style="stroke: #000000; stroke-width: 0.8"/>
      </g>
     </g>
     <g id="text_14">
      <!-- 300 µs -->
      <g transform="translate(20.878125 148.548569) scale(0.1 -0.1)">
       <use xlink:href="#DejaVuSans-33"/>
       <use xlink:href="#DejaVuSans-30" transform="translate(63.623047 0)"/>
       <use xlink:href="#DejaVuSans-30" transform="translate(127.246094 0)"/>
       <use xlink:href="#DejaVuSans-20" transform="translate(190.869141 0)"/>
       <use xlink:href="#DejaVuSans-b5" transform="translate(222.65625 0)"/>
       <use xlink:href="#DejaVuSans-73" transform="translate(286.279297 0)"/>
      </g>
     </g>
    </g>
    <g id="ytick_5">
     <g id="line2d_14">
      <g>
       <use xlink:href="#m776d27201e" x="61.715625" y="96.855759" style="stroke: #000000; stroke-width: 0.8"/>
      </g>
     </g>
     <g id="text_15">
      <!-- 400 µs -->
      <g transform="translate(20.878125 100.654977) scale(0.1 -0.1)">
       <use xlink:href="#DejaVuSans-34"/>
       <use xlink:href="#DejaVuSans-30" transform="translate(63.623047 0)"/>
       <use xlink:href="#DejaVuSans-30" transform="translate(127.246094 0)"/>
       <use xlink:href="#DejaVuSans-20" transform="translate(190.869141 0)"/>
       <use xlink:href="#DejaVuSans-b5" transform="translate(222.65625 0)"/>
       <use xlink:href="#DejaVuSans-73" transform="translate(286.279297 0)"/>
      </g>
     </g>
    </g>
    <g id="ytick_6">
     <g id="line2d_15">
      <g>
       <use xlink:href="#m776d27201e" x="61.715625" y="48.962167" style="stroke: #000000; stroke-width: 0.8"/>
      </g>
     </g>
     <g id="text_16">
      <!-- 500 µs -->
      <g transform="translate(20.878125 52.761386) scale(0.1 -0.1)">
       <use xlink:href="#DejaVuSans-35"/>
       <use xlink:href="#DejaVuSans-30" transform="translate(63.623047 0)"/>
       <use xlink:href="#DejaVuSans-30" transform="translate(127.246094 0)"/>
       <use xlink:href="#DejaVuSans-20" transform="translate(190.869141 0)"/>
       <use xlink:href="#DejaVuSans-b5" transform="translate(222.65625 0)"/>
       <use xlink:href="#DejaVuSans-73" transform="translate(286.279297 0)"/>
      </g>
     </g>
    </g>
    <g id="text_17">
     <!-- Read latency (s) -->
     <g transform="translate(14.798438 195.98975) rotate(-90) scale(0.1 -0.1)">
      <defs>
       <path id="DejaVuSans-52" d="M 2841 2188 
Q 3044 2119 3236 1894 
Q 3428 1669 3622 1275 
L 4263 0 
L 3584 0 
L 2988 1197 
Q 2756 1666 2539 1819 
Q 2322 1972 1947 1972 
L 1259 1972 
L 1259 0 
L 628 0 
L 628 4666 
L 2053 4666 
Q 2853 4666 3247 4331 
Q 3641 3997 3641 3322 
Q 3641 2881 3436 2590 
Q 3231 2300 2841 2188 
z
M 1259 4147 
L 1259 2491 
L 2053 2491 
Q 2509 2491 2742 2702 
Q 2975 2913 2975 3322 
Q 2975 3731 2742 3939 
Q 2509 4147 2053 4147 
L 1259 4147 
z
" transform="scale(0.015625)"/>
       <path id="DejaVuSans-64" d="M 2906 2969 
L 2906 4863 
L 3481 4863 
L 3481 0 
L 2906 0 
L 2906 525 
Q 2725 213 2448 61 
Q 2172 -91 1784 -91 
Q 1150 -91 751 415 
Q 353 922 353 1747 
Q 353 2572 751 3078 
Q 1150 3584 1784 3584 
Q 2172 3584 2448 3432 
Q 2725 3281 2906 2969 
z
M 947 1747 
Q 947 1113 1208 752 
Q 1469 391 1925 391 
Q 2381 391 2643 752 
Q 2906 1113 2906 1747 
Q 2906 2381 2643 2742 
Q 2381 3103 1925 3103 
Q 1469 3103 1208 2742 
Q 947 2381 947 1747 
z
" transform="scale(0.015625)"/>
       <path id="DejaVuSans-79" d="M 2059 -325 
Q 1816 -950 1584 -1140 
Q 1353 -1331 966 -1331 
L 506 -1331 
L 506 -850 
L 844 -850 
Q 1081 -850 1212 -737 
Q 1344 -625 1503 -206 
L 1606 56 
L 191 3500 
L 800 3500 
L 1894 763 
L 2988 3500 
L 3597 3500 
L 2059 -325 
z
" transform="scale(0.015625)"/>
       <path id="DejaVuSans-28" d="M 1984 4856 
Q 1566 4138 1362 3434 
Q 1159 2731 1159 2009 
Q 1159 1288 1364 580 
Q 1569 -128 1984 -844 
L 1484 -844 
Q 1016 -109 783 600 
Q 550 1309 550 2009 
Q 550 2706 781 3412 
Q 1013 4119 1484 4856 
L 1984 4856 
z
" transform="scale(0.015625)"/>
       <path id="DejaVuSans-29" d="M 513 4856 
L 1013 4856 
Q 1481 4119 1714 3412 
Q 1947 2706 1947 2009 
Q 1947 1309 1714 600 
Q 1481 -109 1013 -844 
L 513 -844 
Q 928 -128 1133 580 
Q 1338 1288 1338 2009 
Q 1338 2731 1133 3434 
Q 928 4138 513 4856 
z
" transform="scale(0.015625)"/>
      </defs>
      <use xlink:href="#DejaVuSans-52"/>
      <use xlink:href="#DejaVuSans-65" transform="translate(64.982422 0)"/>
      <use xlink:href="#DejaVuSans-61" transform="translate(126.505859 0)"/>
      <use xlink:href="#DejaVuSans-64" transform="translate(187.785156 0)"/>
      <use xlink:href="#DejaVuSans-20" transform="translate(251.261719 0)"/>
      <use xlink:href="#DejaVuSans-6c" transform="translate(283.048828 0)"/>
      <use xlink:href="#DejaVuSans-61" transform="translate(310.832031 0)"/>
      <use xlink:href="#DejaVuSans-74" transform="translate(372.111328 0)"/>
      <use xlink:href="#DejaVuSans-65" transform="translate(411.320312 0)"/>
      <use xlink:href="#DejaVuSans-6e" transform="translate(472.84375 0)"/>
      <use xlink:href="#DejaVuSans-63" transform="translate(536.222656 0)"/>
      <use xlink:href="#DejaVuSans-79" transform="translate(591.203125 0)"/>
      <use xlink:href="#DejaVuSans-20" transform="translate(650.382812 0)"/>
      <use xlink:href="#DejaVuSans-28" transform="translate(682.169922 0)"/>
      <use xlink:href="#DejaVuSans-73" transform="translate(721.183594 0)"/>
      <use xlink:href="#DejaVuSans-29" transform="translate(773.283203 0)"/>
     </g>
    </g>
   </g>
   <g id="line2d_16">
    <path d="M 146.635325 81.959721 
L 147.070811 83.172447 
L 147.506296 83.363931 
L 147.941782 83.775005 
L 148.377268 84.428507 
L 148.812753 84.175538 
L 149.248239 84.916877 
L 149.683725 85.085523 
L 150.11921 85.771232 
L 150.554696 85.722043 
L 150.990181 86.671261 
L 151.861153 85.142909 
L 152.296638 86.070461 
L 152.732124 86.53248 
L 153.603095 88.396952 
L 154.038581 88.778162 
L 154.474067 88.686226 
L 155.345038 88.174433 
L 156.216009 87.865249 
L 156.651495 87.595885 
L 157.957952 87.396203 
L 158.828923 87.17427 
L 159.264409 86.006633 
L 159.699894 85.384752 
L 160.13538 85.271736 
L 160.570866 84.79332 
L 161.006351 84.013334 
L 162.312808 82.857993 
L 162.748294 82.445163 
L 163.183779 80.933207 
L 163.619265 80.545556 
L 164.054751 80.417315 
L 164.490236 79.971692 
L 164.925722 79.712282 
L 165.361208 80.227003 
L 166.232179 80.164346 
L 166.667665 78.981484 
L 170.15155 77.087147 
L 170.587035 77.006923 
L 171.022521 76.653236 
L 172.328978 76.143785 
L 172.764463 74.323816 
L 174.07092 74.183278 
L 174.506406 73.804411 
L 174.941892 73.618783 
L 175.377377 72.107413 
L 175.812863 71.719762 
L 176.248349 70.316723 
L 177.554806 69.511557 
L 177.990291 69.446558 
L 178.425777 69.194761 
L 179.732234 67.498348 
L 180.603205 67.867261 
L 181.038691 67.553392 
L 181.474176 66.410935 
L 181.909662 66.115805 
L 182.345148 64.787134 
L 182.780633 64.341511 
L 183.651605 61.218637 
L 184.08709 60.66234 
L 184.522576 60.69806 
L 185.829033 59.756455 
L 187.13549 59.505243 
L 188.006461 58.745751 
L 188.441947 58.07761 
L 188.877432 58.051845 
L 189.312918 57.885541 
L 190.183889 58.292516 
L 191.05486 57.742075 
L 191.490346 57.661266 
L 191.925832 57.217399 
L 192.796803 57.460413 
L 193.232289 61.917228 
L 194.10326 61.968173 
L 194.538746 62.185422 
L 195.409717 62.150287 
L 195.845202 61.714034 
L 196.280688 61.697638 
L 198.458116 60.446848 
L 199.329088 60.628377 
L 199.764573 58.934892 
L 200.635545 58.523818 
L 201.506516 57.405955 
L 201.942001 57.404198 
L 202.377487 57.546493 
L 202.812973 57.819371 
L 203.248458 57.866803 
L 203.683944 57.705184 
L 204.990401 56.748353 
L 205.425887 55.356441 
L 205.861372 54.960592 
L 206.296858 54.935412 
L 206.732343 55.26392 
L 207.167829 55.232884 
L 207.603315 54.851089 
L 208.0388 54.295963 
L 208.474286 54.250874 
L 208.909772 53.855025 
L 209.345257 53.838629 
L 209.780743 53.667641 
L 210.216229 53.354944 
L 210.651714 53.231973 
L 211.0872 53.418186 
L 211.522686 53.73791 
L 212.393657 53.165803 
L 212.829142 52.878871 
L 213.264628 53.101975 
L 213.700114 52.580227 
L 214.135599 52.290367 
L 214.571085 52.279827 
L 215.006571 51.931995 
L 215.442056 50.281258 
L 215.877542 51.577722 
L 216.748513 51.291375 
L 217.183999 51.283177 
L 217.619485 51.482273 
L 218.05497 51.36223 
L 218.490456 50.940616 
L 219.361427 52.543336 
L 220.232398 52.539237 
L 221.10337 52.183207 
L 221.538855 51.991138 
L 221.974341 51.984697 
L 222.409827 51.79497 
L 222.845312 51.805511 
L 224.151769 51.221106 
L 224.587255 51.57538 
L 225.02274 51.717674 
L 225.458226 50.65954 
L 226.329197 49.657034 
L 226.764683 51.174846 
L 227.200169 51.492813 
L 228.07114 50.75206 
L 228.506626 51.142639 
L 229.377597 50.637873 
L 229.813082 50.862149 
L 230.248568 50.811789 
L 230.684054 51.189485 
L 231.119539 51.252728 
L 231.555025 51.169576 
L 231.990511 50.79715 
L 232.425996 51.416689 
L 232.861482 50.085676 
L 233.296968 50.100315 
L 233.732453 51.092865 
L 234.167939 51.034308 
L 234.603425 51.594704 
L 235.03891 51.727629 
L 235.474396 53.011211 
L 235.909881 52.438518 
L 236.780853 55.089418 
L 237.216338 54.76091 
L 237.651824 54.94888 
L 238.08731 54.923115 
L 239.829252 55.18311 
L 240.264738 55.186038 
L 240.700224 55.013879 
L 241.135709 55.18838 
L 242.00668 54.584066 
L 242.442166 54.045923 
L 242.877652 53.743766 
L 243.313137 46.802939 
L 243.748623 46.49844 
L 244.184109 47.31766 
L 244.619594 47.540179 
L 245.05508 47.109195 
L 245.490566 47.047124 
L 245.926051 47.285454 
L 246.797022 46.856227 
L 247.232508 46.780687 
L 247.667994 46.264795 
L 248.103479 47.701212 
L 248.538965 47.452343 
L 248.974451 46.884334 
L 249.409936 46.99735 
L 249.845422 46.972756 
L 250.280908 46.642492 
L 250.716393 46.480287 
L 251.151879 45.524628 
L 251.587365 46.572808 
L 252.02285 46.39655 
L 252.458336 46.602673 
L 253.329307 45.935702 
L 253.764793 45.832055 
L 254.200278 44.200056 
L 255.07125 43.762046 
L 255.506735 43.799523 
L 255.942221 44.05659 
L 256.377707 44.102265 
L 256.813192 44.335324 
L 257.248678 44.385098 
L 257.684164 45.87246 
L 258.119649 45.990746 
L 258.555135 45.864847 
L 258.99062 45.594312 
L 259.426106 45.799263 
L 259.861592 45.458458 
L 260.297077 46.482044 
L 260.732563 44.389197 
L 261.168049 45.296254 
L 261.603534 45.247651 
L 262.03902 44.983556 
L 262.474506 45.18558 
L 263.345477 44.26974 
L 263.780962 44.184246 
L 264.216448 44.229921 
L 264.651934 44.153796 
L 265.087419 43.624436 
L 265.522905 43.354485 
L 265.958391 43.276018 
L 266.393876 44.397395 
L 266.829362 44.119247 
L 267.264848 44.911531 
L 267.700333 45.295668 
L 268.571305 47.640898 
L 269.00679 46.744967 
L 270.313247 46.475603 
L 270.748733 46.632537 
L 271.184218 46.555827 
L 272.490675 46.71686 
L 272.926161 46.530061 
L 273.361647 46.649519 
L 273.797132 46.524205 
L 274.232618 46.237859 
L 275.103589 46.007728 
L 275.97456 46.338578 
L 276.410046 46.338578 
L 276.845532 46.520692 
L 277.281017 45.229498 
L 278.587474 45.218372 
L 279.02296 45.042114 
L 279.458446 44.525636 
L 279.893931 43.018951 
L 280.329417 42.957465 
L 280.764902 43.65957 
L 281.635874 43.894971 
L 282.506845 44.301361 
L 283.377816 44.037266 
L 283.813302 43.97988 
L 284.248788 43.530158 
L 284.684273 44.765722 
L 285.555245 44.866441 
L 285.99073 45.305623 
L 286.426216 45.512917 
L 286.861701 45.535754 
L 287.297187 45.220714 
L 288.168158 45.095987 
L 288.603644 44.784461 
L 289.03913 44.950179 
L 289.910101 45.499448 
L 290.345587 46.067457 
L 290.781072 46.298173 
L 291.216558 46.053403 
L 292.523015 44.910359 
L 293.393986 45.159815 
L 293.829472 45.5826 
L 294.264957 44.388026 
L 294.700443 44.482304 
L 295.135929 39.749097 
L 296.442386 39.450454 
L 296.877871 39.566397 
L 297.313357 39.429958 
L 297.748842 38.863707 
L 299.055299 38.301554 
L 299.490785 38.344301 
L 299.926271 38.539884 
L 300.361756 39.69581 
L 301.668213 39.102622 
L 302.103699 38.730196 
L 302.539185 38.644702 
L 303.410156 39.027668 
L 303.845641 39.203341 
L 304.281127 39.201584 
L 304.716613 39.078613 
L 305.152098 39.565812 
L 305.587584 37.070089 
L 307.329527 36.189969 
L 307.765012 35.816958 
L 308.200498 35.682861 
L 308.635984 35.787679 
L 309.506955 36.57235 
L 309.94244 36.36857 
L 310.377926 37.734132 
L 311.248897 38.773528 
L 311.684383 38.798708 
L 312.119869 38.962669 
L 312.555354 39.419418 
L 312.99084 39.529506 
L 313.426326 39.226178 
L 313.861811 39.22852 
L 314.297297 38.966183 
L 314.732782 38.976137 
L 315.168268 38.839113 
L 316.039239 39.22852 
L 316.474725 39.188116 
L 316.910211 39.690539 
L 317.345696 38.440921 
L 317.781182 40.004408 
L 318.216668 40.085217 
L 318.652153 39.733872 
L 319.087639 39.562884 
L 319.523125 38.696232 
L 319.95861 38.446777 
L 320.394096 38.042144 
L 320.829581 38.250024 
L 321.265067 38.12881 
L 321.700553 36.506766 
L 322.136038 36.217491 
L 322.571524 36.182357 
L 323.00701 35.805246 
L 323.442495 35.79939 
L 323.877981 35.597367 
L 324.313467 35.792363 
L 324.748952 35.716239 
L 325.184438 35.487279 
L 325.619924 35.401785 
L 326.055409 34.990125 
L 326.490895 35.042827 
L 326.92638 35.571601 
L 327.361866 35.574529 
L 327.797352 35.306336 
L 328.232837 41.899916 
L 328.668323 42.097255 
L 329.103809 41.872979 
L 329.539294 41.898745 
L 329.97478 42.240135 
L 330.845751 42.314503 
L 331.281237 41.079525 
L 332.587694 41.867124 
L 333.023179 41.533346 
L 333.458665 41.775188 
L 334.329636 41.915141 
L 334.765122 42.155812 
L 335.200608 42.218469 
L 335.636093 41.860682 
L 336.071579 42.449771 
L 336.94255 42.536436 
L 337.378036 42.320359 
L 337.813521 42.476122 
L 338.249007 42.827467 
L 338.684493 42.832738 
L 339.119978 44.37163 
L 339.555464 44.067716 
L 340.426435 44.460052 
L 340.861921 44.222308 
L 341.297407 44.39681 
L 341.732892 43.993348 
L 342.168378 43.743307 
L 342.603864 44.085284 
L 343.039349 43.810063 
L 343.474835 43.778442 
L 344.345806 44.104608 
L 345.216777 44.283208 
L 345.652263 45.156887 
L 346.087749 45.289227 
L 346.523234 45.290398 
L 346.95872 45.510574 
L 347.394206 45.101843 
L 348.700662 45.65404 
L 349.571634 46.537674 
L 350.007119 46.619069 
L 350.878091 47.003206 
L 351.313576 46.774832 
L 351.749062 47.004963 
L 352.184548 47.108024 
L 352.620033 46.914784 
L 353.491005 47.329372 
L 353.92649 48.48237 
L 356.103918 48.308454 
L 356.539404 48.028549 
L 356.97489 48.066611 
L 357.410375 47.889767 
L 357.845861 48.123998 
L 358.281347 48.210663 
L 358.716832 48.008639 
L 359.152318 48.184312 
L 360.023289 47.606349 
L 360.458775 47.644411 
L 360.89426 47.86166 
L 361.329746 46.841587 
L 361.765232 46.638393 
L 362.200717 47.61806 
L 362.636203 47.407839 
L 363.071689 47.448244 
L 363.507174 47.288967 
L 363.94266 46.997936 
L 364.378146 47.518513 
L 364.813631 46.390109 
L 365.249117 46.427 
L 366.555574 45.377063 
L 366.991059 45.587285 
L 367.426545 45.189679 
L 368.297516 45.519943 
L 368.733002 42.274684 
L 369.603973 42.617246 
L 370.039459 42.524725 
L 370.474945 42.25536 
L 370.91043 42.48432 
L 371.781401 42.499545 
L 372.652373 42.86026 
L 373.087858 42.463239 
L 373.523344 42.770081 
L 373.95883 42.905349 
L 374.394315 42.624858 
L 374.829801 42.185091 
L 375.265287 42.682245 
L 375.700772 41.563795 
L 376.136258 41.623524 
L 376.571744 40.844123 
L 377.007229 40.742819 
L 377.442715 40.960653 
L 378.313686 40.694801 
L 378.749172 40.372735 
L 379.184657 41.40569 
L 379.620143 41.311998 
L 380.055629 45.021033 
L 380.491114 45.009322 
L 380.9266 44.769821 
L 381.362086 43.82236 
L 382.233057 43.70056 
L 382.668543 44.024969 
L 383.539514 43.501465 
L 383.974999 43.624436 
L 384.410485 43.585202 
L 385.716942 43.845198 
L 386.152428 43.831144 
L 386.587913 44.211182 
L 387.023399 44.297847 
L 388.765341 43.472772 
L 389.200827 43.49151 
L 389.636313 43.707587 
L 390.071798 43.534257 
L 390.507284 46.221463 
L 390.94277 45.01752 
L 391.813741 45.254678 
L 392.249227 45.644085 
L 392.684712 45.647599 
L 393.120198 45.874217 
L 393.555684 45.760615 
L 394.426655 45.036844 
L 394.86214 45.046798 
L 395.297626 44.761623 
L 395.733112 43.795424 
L 396.168597 43.213947 
L 397.039569 42.566301 
L 397.91054 42.715622 
L 398.781511 43.538942 
L 399.216997 42.488419 
L 399.652483 42.334413 
L 400.087968 42.440402 
L 400.523454 42.253018 
L 400.958939 42.244234 
L 401.829911 41.974869 
L 401.829911 41.974869 
" clip-path="url(#p401aa464fe)" style="fill: none; stroke: #1f77b4; stroke-opacity: 0.8; stroke-width: 1.5; stroke-linecap: square"/>
   </g>
   <g id="line2d_17">
    <path d="M 146.635325 125.566356 
L 147.070811 125.31046 
L 147.941782 124.411016 
L 148.377268 124.434439 
L 149.248239 124.935691 
L 151.425667 125.451583 
L 151.861153 125.333297 
L 154.038581 124.012239 
L 154.474067 124.147507 
L 154.909552 123.989401 
L 155.780523 124.279847 
L 156.216009 124.142237 
L 157.08698 124.517591 
L 157.522466 124.426241 
L 158.393437 124.745965 
L 158.828923 124.613039 
L 160.13538 125.024113 
L 160.570866 124.942718 
L 161.441837 125.24429 
L 161.877322 124.948574 
L 162.748294 125.411764 
L 163.619265 125.172264 
L 164.490236 125.685228 
L 164.925722 125.264785 
L 165.796693 125.162309 
L 166.232179 124.910512 
L 166.667665 124.840828 
L 167.10315 124.611868 
L 167.538636 124.582589 
L 168.409607 123.881656 
L 168.845093 123.823098 
L 169.280578 123.512743 
L 169.716064 123.660894 
L 170.15155 123.680218 
L 170.587035 122.825277 
L 171.893492 122.524877 
L 172.764463 121.891284 
L 173.199949 121.835655 
L 177.11932 117.772932 
L 177.554806 117.774103 
L 179.296748 116.041385 
L 179.732234 115.439999 
L 180.167719 114.614923 
L 180.603205 114.57569 
L 181.038691 114.71857 
L 181.909662 115.27311 
L 182.345148 115.328154 
L 184.08709 114.954557 
L 184.522576 116.568989 
L 184.958061 116.322462 
L 186.700004 115.827065 
L 187.13549 115.669545 
L 187.570975 115.978143 
L 188.006461 115.727517 
L 188.441947 115.744499 
L 188.877432 114.429882 
L 191.05486 113.694399 
L 191.490346 113.27337 
L 191.925832 113.108823 
L 193.232289 111.691731 
L 194.10326 111.701685 
L 194.538746 110.884808 
L 194.974231 110.885979 
L 195.409717 111.139533 
L 195.845202 111.702271 
L 196.280688 111.720424 
L 196.716174 111.38606 
L 197.151659 110.131172 
L 197.587145 110.226621 
L 198.022631 110.066759 
L 198.458116 108.963534 
L 198.893602 108.883896 
L 199.329088 108.469894 
L 199.764573 108.286024 
L 200.200059 108.590523 
L 201.07103 108.020172 
L 201.942001 107.437525 
L 202.377487 107.354958 
L 203.683944 106.346012 
L 204.11943 105.598232 
L 204.554915 105.44364 
L 204.990401 104.866263 
L 205.425887 102.794497 
L 205.861372 102.628779 
L 206.296858 102.58896 
L 207.167829 103.152283 
L 208.0388 102.878234 
L 208.474286 102.403332 
L 209.780743 102.34536 
L 210.651714 101.678975 
L 211.0872 101.401998 
L 211.522686 100.357331 
L 211.958171 100.002473 
L 212.393657 99.905853 
L 214.135599 99.091317 
L 214.571085 98.169621 
L 215.006571 98.186017 
L 215.877542 98.573668 
L 216.313028 97.086892 
L 216.748513 96.53001 
L 217.183999 96.319788 
L 218.490456 94.827742 
L 218.925941 94.792022 
L 219.361427 94.619277 
L 219.796913 94.259734 
L 220.232398 93.59452 
L 220.667884 93.251958 
L 221.10337 93.325741 
L 221.538855 93.513711 
L 221.974341 93.366731 
L 222.409827 91.91509 
L 222.845312 91.577212 
L 223.280798 92.40873 
L 223.716283 92.378865 
L 224.151769 92.029277 
L 224.587255 92.012881 
L 225.02274 87.585344 
L 225.458226 87.427239 
L 225.893712 87.455347 
L 226.329197 87.024363 
L 228.506626 86.653694 
L 228.942111 86.096226 
L 229.377597 85.727313 
L 229.813082 85.69862 
L 230.248568 85.402905 
L 231.119539 85.305113 
L 231.555025 84.783951 
L 232.425996 84.58427 
L 233.296968 85.11363 
L 233.732453 84.785122 
L 234.167939 84.708998 
L 234.603425 83.482802 
L 235.03891 83.310058 
L 235.909881 83.344021 
L 236.345367 83.075242 
L 236.780853 83.033081 
L 238.08731 82.235527 
L 238.958281 81.970261 
L 239.393767 81.468423 
L 239.829252 81.425676 
L 240.700224 80.963657 
L 241.135709 80.957801 
L 241.571195 80.694878 
L 242.00668 80.622266 
L 244.184109 79.473953 
L 246.361537 78.834504 
L 246.797022 79.071077 
L 247.232508 78.757794 
L 247.667994 78.193885 
L 248.538965 78.751938 
L 249.409936 77.925691 
L 249.845422 78.03695 
L 250.716393 77.413313 
L 251.151879 77.379349 
L 251.587365 77.012193 
L 252.02285 77.026833 
L 252.458336 76.736387 
L 252.893821 76.626885 
L 253.329307 76.748099 
L 253.764793 76.462338 
L 254.200278 76.342295 
L 254.635764 75.831088 
L 255.07125 75.628478 
L 255.506735 76.325899 
L 255.942221 75.504336 
L 256.813192 75.096776 
L 257.248678 75.106145 
L 257.684164 74.910563 
L 258.119649 74.528182 
L 258.99062 74.835024 
L 259.426106 73.848915 
L 259.861592 73.968372 
L 260.297077 74.317375 
L 260.732563 74.080217 
L 261.168049 74.407554 
L 262.03902 74.444445 
L 262.474506 74.046839 
L 262.909991 74.257646 
L 263.345477 72.976993 
L 263.780962 73.216493 
L 264.216448 71.854444 
L 264.651934 72.05881 
L 265.087419 72.478668 
L 266.829362 70.748292 
L 267.700333 69.92146 
L 268.571305 69.334127 
L 269.00679 69.266201 
L 269.877761 68.015411 
L 272.05519 66.167921 
L 272.926161 65.592886 
L 273.361647 64.934113 
L 273.797132 66.184317 
L 275.103589 65.801936 
L 275.539075 65.594642 
L 275.97456 65.253252 
L 277.281017 65.03249 
L 277.716503 64.576327 
L 278.151989 64.839836 
L 278.587474 64.856232 
L 279.02296 64.297007 
L 279.458446 64.634299 
L 279.893931 64.45277 
L 280.764902 63.641163 
L 281.635874 63.497697 
L 282.071359 64.381916 
L 282.506845 64.224981 
L 282.942331 64.197459 
L 283.377816 63.56738 
L 284.248788 63.091893 
L 285.119759 62.444246 
L 285.555245 62.543794 
L 285.99073 62.228754 
L 286.861701 62.123936 
L 287.297187 62.08646 
L 287.732673 62.340014 
L 288.168158 62.296681 
L 288.603644 62.470012 
L 289.03913 62.873473 
L 289.474615 62.991759 
L 289.910101 61.947678 
L 290.345587 63.827961 
L 290.781072 63.412788 
L 291.216558 63.690936 
L 291.652044 63.217792 
L 292.087529 63.111802 
L 292.523015 63.46022 
L 292.9585 63.580848 
L 293.393986 64.049309 
L 294.700443 64.046381 
L 295.135929 64.167009 
L 295.571414 63.136982 
L 296.0069 62.873473 
L 296.442386 63.159234 
L 296.877871 62.821942 
L 297.313357 61.978714 
L 297.748842 61.727502 
L 298.184328 61.991011 
L 299.055299 61.947678 
L 299.490785 62.752845 
L 300.797242 62.306636 
L 301.232728 63.39932 
L 301.668213 63.229503 
L 302.103699 62.716539 
L 302.539185 62.76807 
L 303.410156 62.533254 
L 304.281127 62.597667 
L 305.152098 63.076082 
L 305.587584 62.281456 
L 306.02307 62.25979 
L 306.894041 61.841104 
L 307.329527 63.50121 
L 307.765012 63.425085 
L 308.200498 63.742467 
L 308.635984 63.768818 
L 309.071469 64.131289 
L 309.506955 64.126019 
L 309.94244 68.681796 
L 310.813412 68.236173 
L 311.248897 68.167661 
L 311.684383 67.919377 
L 312.99084 68.055231 
L 314.297297 67.942215 
L 314.732782 67.960953 
L 315.168268 68.204552 
L 316.039239 68.255497 
L 316.474725 68.393108 
L 317.345696 68.909585 
L 317.781182 68.748552 
L 318.216668 68.39545 
L 319.087639 68.129013 
L 319.523125 69.26503 
L 319.95861 69.20413 
L 320.394096 69.323587 
L 320.829581 68.381982 
L 321.265067 68.229732 
L 322.136038 68.167076 
L 323.00701 68.749138 
L 323.442495 68.68004 
L 324.313467 66.560256 
L 324.748952 66.396881 
L 325.184438 66.439628 
L 326.055409 66.235848 
L 326.490895 66.4367 
L 326.92638 66.348278 
L 327.361866 66.635796 
L 327.797352 66.74237 
L 328.232837 66.690254 
L 328.668323 66.999438 
L 329.103809 66.240532 
L 329.539294 66.167921 
L 329.97478 65.977609 
L 330.410266 66.160308 
L 330.845751 65.258522 
L 331.281237 65.249738 
L 331.716722 65.016094 
L 332.152208 65.015508 
L 332.587694 65.185911 
L 333.458665 64.653037 
L 333.894151 64.7479 
L 334.329636 65.029562 
L 334.765122 64.616731 
L 335.200608 64.501373 
L 335.636093 64.588624 
L 336.071579 64.362006 
L 336.507065 64.37079 
L 337.378036 64.00949 
L 338.249007 64.270071 
L 338.684493 64.367276 
L 339.99095 65.187082 
L 340.861921 65.30771 
L 341.297407 64.907762 
L 341.732892 64.867943 
L 342.168378 64.271242 
L 342.603864 64.634299 
L 343.474835 64.82871 
L 343.91032 64.554075 
L 344.345806 65.540769 
L 344.781292 65.563021 
L 345.216777 65.380907 
L 345.652263 65.512662 
L 346.087749 65.475771 
L 346.523234 65.593471 
L 347.829691 65.512076 
L 348.265177 66.535662 
L 348.700662 66.671516 
L 349.136148 68.068699 
L 349.571634 68.290632 
L 350.878091 68.105005 
L 351.313576 68.422972 
L 352.184548 68.514322 
L 353.055519 68.767876 
L 353.491005 68.752065 
L 353.92649 68.552384 
L 354.797461 69.308948 
L 355.232947 69.46354 
L 355.668433 69.494575 
L 356.103918 69.912676 
L 356.539404 69.652095 
L 356.97489 69.196517 
L 357.410375 69.228724 
L 357.845861 69.444216 
L 358.281347 69.828353 
L 359.152318 69.326515 
L 360.458775 69.258003 
L 360.89426 69.61169 
L 362.200717 69.468224 
L 362.636203 70.106502 
L 363.071689 70.245869 
L 363.507174 70.111186 
L 363.94266 70.764688 
L 364.378146 70.977838 
L 366.120088 71.026441 
L 366.555574 71.35612 
L 366.991059 71.004774 
L 367.862031 71.014729 
L 368.297516 72.342229 
L 368.733002 72.237411 
L 369.168488 72.506776 
L 369.603973 71.520666 
L 370.039459 71.730888 
L 370.474945 71.788274 
L 371.345916 71.534135 
L 371.781401 71.55463 
L 372.216887 71.303418 
L 372.652373 70.775814 
L 373.523344 70.315552 
L 373.95883 70.306183 
L 374.394315 69.741688 
L 374.829801 70.822075 
L 375.265287 70.406316 
L 375.700772 70.665141 
L 376.136258 70.339561 
L 376.571744 70.495324 
L 377.007229 70.102988 
L 377.442715 69.874028 
L 378.313686 69.828939 
L 378.749172 68.541844 
L 379.184657 68.168247 
L 380.055629 68.265452 
L 380.491114 69.42782 
L 380.9266 68.463962 
L 381.362086 68.948233 
L 381.797571 68.951161 
L 382.233057 69.593537 
L 382.668543 69.286696 
L 383.104028 68.191084 
L 383.539514 67.847937 
L 384.410485 67.566275 
L 385.281456 67.730822 
L 385.716942 67.503619 
L 386.152428 68.031808 
L 386.587913 68.821749 
L 387.023399 69.153185 
L 387.458885 69.204715 
L 387.89437 69.422549 
L 388.329856 68.927738 
L 388.765341 68.79247 
L 389.200827 68.41536 
L 389.636313 68.344505 
L 390.071798 68.610356 
L 390.507284 69.54025 
L 390.94277 69.349938 
L 391.378255 69.301921 
L 391.813741 69.367505 
L 392.249227 69.112194 
L 393.120198 69.178364 
L 393.991169 69.028457 
L 394.426655 69.249219 
L 394.86214 69.342326 
L 396.168597 70.016323 
L 396.604083 70.127582 
L 397.039569 70.112357 
L 398.346026 70.531629 
L 399.216997 70.967883 
L 399.652483 71.004774 
L 400.087968 71.213825 
L 400.523454 71.060404 
L 400.958939 71.380128 
L 401.394425 72.085161 
L 401.829911 71.94638 
L 401.829911 71.94638 
" clip-path="url(#p401aa464fe)" style="fill: none; stroke: #ff7f0e; stroke-opacity: 0.8; stroke-width: 1.5; stroke-linecap: square"/>
   </g>
   <g id="line2d_18">
    <path d="M 146.635325 169.821224 
L 147.070811 169.775549 
L 147.941782 169.126146 
L 148.377268 169.058219 
L 148.812753 169.169478 
L 150.554696 169.146055 
L 152.296638 169.720505 
L 153.16761 169.602804 
L 153.603095 169.45114 
L 154.038581 169.791945 
L 157.957952 169.570012 
L 158.393437 169.757982 
L 158.828923 169.525508 
L 161.006351 169.951222 
L 162.748294 168.974482 
L 163.619265 168.529444 
L 164.054751 168.52476 
L 164.490236 168.181613 
L 165.361208 168.237242 
L 165.796693 168.067425 
L 167.538636 168.025264 
L 168.845093 167.917518 
L 169.716064 167.951481 
L 170.587035 167.866573 
L 171.022521 166.854698 
L 171.893492 166.495155 
L 172.764463 166.556641 
L 174.07092 166.327681 
L 175.812863 165.663052 
L 177.554806 164.869598 
L 177.990291 164.930497 
L 178.861262 164.494244 
L 179.296748 164.334382 
L 180.167719 164.53582 
L 180.603205 164.379471 
L 181.474176 164.885994 
L 182.780633 165.013649 
L 183.216119 164.812797 
L 183.651605 164.820995 
L 184.08709 165.011892 
L 184.522576 164.691583 
L 185.829033 164.555729 
L 186.264518 164.351949 
L 186.700004 164.337895 
L 187.570975 164.10425 
L 188.441947 164.132358 
L 188.877432 164.377129 
L 189.312918 164.386498 
L 190.619375 163.949073 
L 191.490346 164.301589 
L 191.925832 164.199699 
L 192.796803 164.30686 
L 193.667774 163.917452 
L 194.10326 164.160466 
L 194.974231 164.092539 
L 195.845202 164.230735 
L 198.893602 164.671673 
L 200.200059 164.934596 
L 201.07103 164.440371 
L 201.506516 164.442127 
L 201.942001 164.257086 
L 204.554915 165.560577 
L 207.167829 165.839311 
L 207.603315 165.685304 
L 208.474286 165.205132 
L 208.909772 165.260762 
L 209.345257 165.493821 
L 210.651714 165.597468 
L 211.0872 165.888499 
L 212.393657 165.956426 
L 212.829142 166.168404 
L 214.135599 166.125071 
L 214.571085 166.33178 
L 215.006571 166.327095 
L 215.442056 166.615198 
L 216.748513 166.580064 
L 217.183999 166.845329 
L 217.619485 166.580064 
L 218.925941 167.512885 
L 220.232398 167.453157 
L 220.667884 167.635271 
L 221.10337 167.683873 
L 221.538855 168.124226 
L 221.974341 168.211477 
L 223.716283 167.2687 
L 224.151769 167.545678 
L 225.458226 167.814457 
L 225.893712 168.029363 
L 226.764683 168.062155 
L 227.200169 168.279404 
L 228.506626 167.97022 
L 229.377597 167.999499 
L 229.813082 167.793962 
L 230.248568 167.782836 
L 230.684054 167.613604 
L 231.990511 167.593109 
L 232.861482 168.217333 
L 233.296968 168.415257 
L 233.732453 168.417014 
L 234.167939 168.238413 
L 234.603425 168.330349 
L 235.03891 168.280575 
L 236.345367 167.63 
L 237.216338 167.189648 
L 237.651824 167.217755 
L 238.522795 167.10591 
L 239.393767 167.063749 
L 241.135709 166.192998 
L 241.571195 165.875031 
L 243.748623 166.354031 
L 244.184109 166.023181 
L 244.619594 165.96111 
L 245.05508 165.779582 
L 245.926051 165.730394 
L 246.797022 166.249799 
L 247.232508 166.238087 
L 248.103479 166.602315 
L 248.538965 166.841816 
L 248.974451 166.879878 
L 249.409936 167.057893 
L 249.845422 166.798483 
L 250.280908 166.791456 
L 250.716393 166.984696 
L 251.151879 166.71416 
L 251.587365 166.745196 
L 252.02285 166.482858 
L 253.329307 166.567766 
L 254.635764 166.22052 
L 255.07125 166.255069 
L 255.506735 166.137954 
L 255.942221 166.976498 
L 256.377707 166.848257 
L 256.813192 166.995237 
L 257.684164 166.994065 
L 258.119649 166.85587 
L 258.555135 166.837717 
L 258.99062 167.005777 
L 259.426106 166.844744 
L 260.732563 167.399284 
L 261.168049 167.362392 
L 262.03902 167.728963 
L 262.474506 167.943869 
L 263.345477 167.899951 
L 263.780962 168.093776 
L 264.216448 168.111343 
L 264.651934 167.917518 
L 265.522905 168.288187 
L 265.958391 168.039318 
L 267.700333 168.2349 
L 269.00679 168.024093 
L 270.313247 168.770116 
L 271.619704 168.556381 
L 272.05519 168.734981 
L 272.490675 168.668811 
L 273.361647 168.253053 
L 273.797132 168.123055 
L 274.232618 168.36724 
L 274.668104 168.105488 
L 275.97456 168.469716 
L 276.410046 168.483184 
L 277.281017 169.059976 
L 278.587474 169.643209 
L 279.02296 169.379114 
L 279.458446 169.622714 
L 279.893931 169.64965 
L 280.329417 169.521995 
L 280.764902 169.602804 
L 281.200388 169.323485 
L 282.506845 169.328169 
L 283.377816 169.449969 
L 283.813302 169.363304 
L 284.248788 169.155425 
L 284.684273 169.348664 
L 285.555245 169.365646 
L 285.99073 169.574111 
L 286.426216 169.612759 
L 286.861701 169.763838 
L 288.603644 169.790774 
L 289.474615 169.503256 
L 289.910101 169.732216 
L 290.781072 169.5624 
L 292.523015 170.325404 
L 293.829472 170.522743 
L 295.135929 170.56549 
L 295.571414 170.441348 
L 296.0069 169.381457 
L 296.442386 169.413663 
L 296.877871 169.577039 
L 298.184328 169.485689 
L 299.055299 169.965861 
L 299.926271 169.563571 
L 300.361756 169.546589 
L 300.797242 169.322899 
L 301.668213 169.206955 
L 302.103699 168.989121 
L 302.539185 169.2579 
L 302.97467 169.016643 
L 304.281127 168.958086 
L 304.716613 168.699261 
L 306.02307 168.512463 
L 306.458555 168.341475 
L 307.329527 168.742008 
L 307.765012 168.740837 
L 308.635984 169.238576 
L 309.506955 169.01313 
L 309.94244 167.28861 
L 310.377926 167.287439 
L 311.248897 166.916184 
L 312.119869 167.189648 
L 312.99084 167.563245 
L 313.426326 167.574956 
L 313.861811 167.309105 
L 314.297297 167.323744 
L 314.732782 167.545092 
L 315.168268 167.615361 
L 315.603754 167.809772 
L 317.345696 167.406311 
L 317.781182 167.11528 
L 318.216668 167.212485 
L 319.95861 166.913256 
L 320.394096 166.903301 
L 320.829581 167.012804 
L 321.700553 166.971814 
L 322.136038 167.002263 
L 322.571524 167.201359 
L 323.442495 167.153342 
L 324.313467 166.699521 
L 324.748952 166.877536 
L 325.184438 166.785015 
L 326.055409 167.149829 
L 326.490895 167.485949 
L 326.92638 167.266944 
L 327.361866 167.471895 
L 327.797352 167.286268 
L 328.232837 167.261088 
L 328.668323 167.000507 
L 329.103809 167.320817 
L 329.539294 167.256989 
L 329.97478 167.459012 
L 330.845751 167.546849 
L 331.281237 167.509957 
L 331.716722 167.258746 
L 332.152208 167.460769 
L 333.023179 167.256989 
L 334.329636 166.957174 
L 335.200608 166.9074 
L 336.507065 166.712989 
L 337.378036 167.083073 
L 338.249007 167.114108 
L 338.684493 167.313204 
L 339.555464 167.29915 
L 339.99095 167.03974 
L 340.426435 167.20253 
L 340.861921 167.122306 
L 341.297407 167.444373 
L 341.732892 167.494732 
L 342.603864 167.160954 
L 343.039349 167.354194 
L 343.91032 167.29915 
L 344.781292 167.440274 
L 345.652263 167.284511 
L 346.087749 167.577884 
L 346.523234 167.60365 
L 346.95872 167.334285 
L 348.265177 167.188476 
L 348.700662 166.863482 
L 349.571634 167.18145 
L 351.313576 166.896274 
L 351.749062 167.092442 
L 352.184548 166.893346 
L 352.620033 167.142216 
L 353.055519 166.619883 
L 354.797461 166.672584 
L 355.232947 166.326509 
L 355.668433 166.164305 
L 356.103918 166.22579 
L 356.539404 166.486957 
L 356.97489 166.483444 
L 358.281347 166.989381 
L 359.152318 166.866996 
L 359.587804 167.260502 
L 360.023289 167.366491 
L 360.458775 167.094784 
L 360.89426 167.067262 
L 361.329746 166.851771 
L 363.071689 166.604072 
L 363.507174 166.303672 
L 365.249117 166.553127 
L 365.684603 166.305429 
L 366.120088 166.380382 
L 366.555574 166.123315 
L 366.991059 165.642557 
L 368.297516 165.151845 
L 369.168488 165.461614 
L 369.603973 165.189322 
L 370.474945 165.620305 
L 372.216887 165.593954 
L 373.087858 165.210988 
L 373.523344 165.211574 
L 373.95883 165.374949 
L 374.829801 165.307608 
L 375.700772 165.811203 
L 376.571744 165.374364 
L 377.007229 165.128422 
L 377.442715 165.124908 
L 377.8782 165.318734 
L 378.313686 165.229141 
L 378.749172 165.450488 
L 379.620143 165.151259 
L 380.491114 165.20806 
L 380.9266 166.246286 
L 381.797571 166.283762 
L 382.233057 166.549028 
L 383.104028 166.690737 
L 383.539514 166.543758 
L 384.410485 166.549028 
L 384.845971 166.786186 
L 385.281456 166.814879 
L 385.716942 167.040911 
L 386.587913 166.756907 
L 387.023399 166.756907 
L 387.458885 166.486957 
L 387.89437 166.732313 
L 388.765341 166.304258 
L 389.200827 166.333536 
L 389.636313 166.623982 
L 390.071798 166.486957 
L 390.94277 166.623982 
L 391.378255 166.806681 
L 391.813741 166.804339 
L 392.249227 166.526776 
L 392.684712 166.468804 
L 393.555684 165.974579 
L 393.991169 166.102234 
L 394.426655 165.943543 
L 394.86214 167.64464 
L 395.297626 167.422707 
L 395.733112 167.341897 
L 396.168597 167.484778 
L 396.604083 167.219512 
L 397.91054 167.037398 
L 398.346026 166.856455 
L 398.781511 167.165053 
L 399.216997 167.185549 
L 399.652483 166.996408 
L 400.087968 167.064334 
L 400.958939 166.768033 
L 401.394425 166.988795 
L 401.829911 166.988795 
L 401.829911 166.988795 
" clip-path="url(#p401aa464fe)" style="fill: none; stroke: #2ca02c; stroke-opacity: 0.8; stroke-width: 1.5; stroke-linecap: square"/>
   </g>
   <g id="line2d_19">
    <path d="M 146.635325 145.503445 
L 147.941782 144.875122 
L 148.377268 144.802511 
L 150.11921 145.540922 
L 150.554696 145.185477 
L 150.990181 145.146829 
L 152.296638 145.711324 
L 152.732124 145.30552 
L 154.038581 145.057822 
L 154.909552 145.189576 
L 156.216009 144.89269 
L 156.651495 145.026786 
L 157.957952 144.742782 
L 158.828923 145.074804 
L 159.264409 144.067028 
L 159.699894 144.268466 
L 160.13538 143.994417 
L 160.570866 144.180044 
L 161.006351 144.685396 
L 161.441837 144.883321 
L 161.877322 144.83706 
L 162.748294 145.425563 
L 163.183779 145.206558 
L 164.054751 145.136875 
L 164.490236 145.290881 
L 165.361208 142.586108 
L 165.796693 142.306788 
L 166.232179 140.215113 
L 166.667665 138.8232 
L 167.10315 138.595411 
L 167.974121 138.580186 
L 169.280578 138.470683 
L 169.716064 138.853064 
L 170.15155 138.529826 
L 171.458007 138.584285 
L 171.893492 138.481809 
L 172.328978 138.509331 
L 173.199949 137.695381 
L 173.635435 137.948936 
L 174.506406 137.315928 
L 176.248349 137.276109 
L 176.683834 137.389125 
L 177.11932 137.298361 
L 177.990291 136.599184 
L 178.425777 136.558779 
L 179.296748 136.631976 
L 179.732234 137.077014 
L 180.167719 136.725083 
L 180.603205 136.632562 
L 181.038691 136.358513 
L 181.474176 134.893988 
L 183.216119 135.081372 
L 183.651605 135.00232 
L 184.08709 135.430961 
L 184.522576 135.668119 
L 185.393547 135.645282 
L 187.13549 135.647624 
L 187.570975 135.411051 
L 188.006461 135.684515 
L 188.877432 135.676903 
L 189.312918 135.446186 
L 191.490346 136.821703 
L 192.361317 132.913572 
L 192.796803 133.217486 
L 193.667774 128.703284 
L 194.10326 128.922289 
L 194.974231 128.823913 
L 195.409717 128.579728 
L 196.716174 128.490135 
L 197.151659 128.280499 
L 197.587145 128.462027 
L 198.022631 128.360722 
L 199.329088 129.264851 
L 200.200059 129.527774 
L 200.635545 129.75205 
L 201.506516 129.689979 
L 201.942001 129.037062 
L 203.683944 128.890668 
L 204.554915 132.73907 
L 204.990401 132.806412 
L 205.425887 132.549344 
L 205.861372 132.443355 
L 206.296858 132.7338 
L 207.167829 131.754132 
L 208.909772 130.31186 
L 209.780743 129.735654 
L 210.216229 129.458677 
L 211.0872 129.372011 
L 211.522686 129.706961 
L 211.958171 129.769617 
L 214.135599 127.894019 
L 215.006571 127.724202 
L 215.442056 128.052124 
L 216.313028 128.054466 
L 217.183999 127.974828 
L 217.619485 127.661545 
L 218.05497 127.511638 
L 219.796913 125.993241 
L 220.232398 125.927656 
L 220.667884 125.613788 
L 221.538855 125.432259 
L 221.974341 125.34091 
L 222.409827 125.056906 
L 224.151769 125.968061 
L 224.587255 125.867342 
L 225.458226 124.91344 
L 225.893712 125.248974 
L 227.635654 125.198029 
L 228.07114 125.02587 
L 228.506626 124.706146 
L 229.377597 124.555653 
L 229.813082 124.813306 
L 230.248568 122.674199 
L 231.555025 122.575237 
L 232.425996 122.979869 
L 232.861482 123.034328 
L 233.296968 122.955275 
L 233.732453 123.15847 
L 234.167939 123.036085 
L 235.03891 122.431185 
L 235.474396 122.372628 
L 237.216338 120.985985 
L 238.08731 121.374807 
L 238.522795 120.926842 
L 238.958281 119.557766 
L 239.829252 119.291915 
L 241.571195 120.06019 
L 242.00668 119.973525 
L 242.442166 118.819941 
L 243.313137 118.714537 
L 243.748623 118.329814 
L 244.184109 119.163674 
L 244.619594 118.74733 
L 245.05508 118.156484 
L 245.926051 117.437397 
L 246.797022 117.256454 
L 247.232508 116.860605 
L 247.667994 116.850065 
L 248.103479 116.99763 
L 248.974451 116.803805 
L 249.409936 116.831327 
L 249.845422 118.018288 
L 250.280908 120.081271 
L 250.716393 119.991678 
L 251.151879 121.617235 
L 251.587365 122.670685 
L 252.02285 122.671271 
L 252.458336 122.493842 
L 252.893821 121.984977 
L 253.329307 121.953355 
L 254.635764 120.926256 
L 255.07125 121.146432 
L 255.506735 120.36586 
L 255.942221 119.972939 
L 256.377707 119.989921 
L 256.813192 120.126946 
L 258.119649 121.187423 
L 258.555135 121.15463 
L 258.99062 121.386518 
L 260.297077 121.699216 
L 260.732563 119.308311 
L 262.474506 119.290158 
L 262.909991 119.597 
L 263.345477 119.256195 
L 263.780962 119.509163 
L 264.216448 119.497452 
L 265.522905 119.854653 
L 265.958391 119.816005 
L 266.393876 119.904427 
L 267.264848 119.505064 
L 268.135819 119.024892 
L 268.571305 119.151962 
L 269.00679 119.066468 
L 269.442276 118.434047 
L 270.313247 118.719808 
L 270.748733 118.692871 
L 271.184218 116.043728 
L 272.05519 116.129222 
L 272.490675 115.907874 
L 272.926161 113.561473 
L 273.361647 113.474222 
L 273.797132 113.150399 
L 274.232618 113.053779 
L 275.539075 111.443447 
L 275.97456 110.368916 
L 276.410046 109.790367 
L 277.281017 113.219497 
L 278.151989 108.225124 
L 278.587474 108.645567 
L 279.893931 107.564009 
L 280.329417 106.997172 
L 281.635874 106.076062 
L 282.071359 104.941802 
L 282.506845 102.630535 
L 282.942331 102.521033 
L 283.377816 101.963565 
L 283.813302 101.615148 
L 284.248788 101.113309 
L 284.684273 100.896061 
L 287.732673 97.692377 
L 289.03913 97.459318 
L 289.474615 97.654315 
L 289.910101 97.56765 
L 290.345587 97.750935 
L 290.781072 97.694134 
L 291.216558 97.225088 
L 292.087529 97.787826 
L 292.523015 97.732782 
L 293.393986 98.16318 
L 294.264957 98.733531 
L 295.135929 98.511597 
L 296.442386 97.229187 
L 297.313357 97.045902 
L 297.748842 96.683431 
L 299.055299 96.972119 
L 299.490785 96.611991 
L 299.926271 96.475551 
L 300.361756 96.113666 
L 301.232728 95.697907 
L 301.668213 94.654412 
L 302.103699 94.426037 
L 302.539185 94.441848 
L 302.97467 94.131493 
L 303.410156 94.307751 
L 303.845641 94.31185 
L 304.281127 92.539899 
L 305.152098 92.481927 
L 305.587584 90.909071 
L 306.02307 90.856955 
L 306.458555 87.791467 
L 306.894041 86.19753 
L 307.329527 86.452256 
L 307.765012 86.44113 
L 308.635984 85.9633 
L 309.506955 85.213178 
L 309.94244 85.206151 
L 310.377926 85.325023 
L 310.813412 85.180971 
L 311.684383 84.517514 
L 312.119869 83.058846 
L 312.99084 82.916551 
L 313.426326 83.109791 
L 313.861811 82.763716 
L 314.297297 82.961055 
L 314.732782 82.095574 
L 315.168268 84.183151 
L 316.039239 84.035 
L 317.345696 83.51618 
L 317.781182 83.209924 
L 318.216668 83.167177 
L 318.652153 82.771328 
L 319.087639 81.902334 
L 319.523125 81.992513 
L 320.829581 81.523467 
L 321.265067 81.429775 
L 322.571524 81.834407 
L 323.00701 81.734274 
L 323.442495 81.951523 
L 323.877981 83.010243 
L 324.748952 82.882002 
L 325.184438 82.877903 
L 326.055409 82.469171 
L 326.490895 82.387776 
L 326.92638 82.591557 
L 327.361866 83.75978 
L 327.797352 83.931353 
L 328.232837 83.605188 
L 328.668323 81.850218 
L 329.103809 82.109042 
L 329.539294 82.109042 
L 329.97478 82.524215 
L 330.410266 81.126447 
L 330.845751 81.364776 
L 331.281237 81.115321 
L 331.716722 80.994107 
L 332.152208 81.015773 
L 333.023179 80.804966 
L 333.458665 79.974034 
L 334.765122 79.812415 
L 335.636093 80.351145 
L 337.813521 80.491097 
L 338.249007 80.219976 
L 338.684493 80.232273 
L 339.555464 80.583033 
L 339.99095 80.543799 
L 340.861921 81.130546 
L 341.297407 80.971855 
L 342.603864 79.699985 
L 343.474835 79.34864 
L 343.91032 77.560878 
L 344.781292 77.254036 
L 345.216777 77.076021 
L 345.652263 79.305307 
L 346.087749 79.170039 
L 346.523234 79.297694 
L 346.95872 79.121436 
L 347.394206 78.630138 
L 347.829691 78.467934 
L 348.265177 78.692209 
L 348.700662 78.195641 
L 349.136148 78.274694 
L 349.571634 77.029761 
L 350.007119 75.065155 
L 350.878091 74.542236 
L 351.313576 75.752035 
L 351.749062 74.676333 
L 352.620033 74.396428 
L 353.055519 73.639278 
L 353.491005 73.69198 
L 353.92649 73.321311 
L 354.361976 73.762249 
L 355.232947 73.019154 
L 355.668433 72.843481 
L 356.103918 75.018309 
L 356.97489 74.660522 
L 357.410375 73.624054 
L 357.845861 75.286502 
L 359.587804 73.665044 
L 360.023289 73.557884 
L 360.458775 72.026018 
L 360.89426 72.302995 
L 361.329746 72.160115 
L 361.765232 71.887237 
L 362.200717 71.846246 
L 362.636203 73.407391 
L 363.071689 77.442591 
L 363.507174 78.891305 
L 364.378146 78.830991 
L 364.813631 78.29109 
L 365.249117 78.406449 
L 366.120088 77.980735 
L 366.991059 78.1283 
L 367.426545 79.696471 
L 367.862031 79.332243 
L 368.297516 79.18585 
L 368.733002 77.653398 
L 369.168488 77.558535 
L 369.603973 76.211712 
L 370.474945 75.980995 
L 370.91043 76.075858 
L 371.345916 75.913068 
L 371.781401 76.075273 
L 372.216887 75.940005 
L 373.087858 75.145379 
L 373.523344 73.211808 
L 373.95883 73.089423 
L 374.394315 72.363895 
L 374.829801 71.986199 
L 375.265287 70.046187 
L 375.700772 69.715337 
L 376.136258 68.413603 
L 376.571744 68.13604 
L 377.442715 67.818658 
L 378.749172 66.630525 
L 379.184657 65.863422 
L 379.620143 64.822854 
L 380.055629 63.26171 
L 380.9266 62.705999 
L 381.362086 62.636315 
L 381.797571 61.988669 
L 382.668543 61.738042 
L 383.104028 61.562955 
L 383.539514 61.195799 
L 383.974999 60.658827 
L 384.410485 60.501892 
L 385.716942 59.679744 
L 386.152428 59.16151 
L 386.587913 59.653393 
L 387.023399 59.207185 
L 387.458885 59.18669 
L 387.89437 58.825975 
L 388.329856 57.590997 
L 388.765341 57.298209 
L 389.200827 58.544314 
L 389.636313 57.396 
L 390.071798 57.001908 
L 390.507284 58.172473 
L 390.94277 57.817614 
L 391.378255 60.220816 
L 391.813741 61.315842 
L 392.249227 61.062874 
L 392.684712 60.635989 
L 393.120198 59.861273 
L 393.555684 59.34421 
L 393.991169 59.022143 
L 394.86214 58.828318 
L 395.297626 58.376253 
L 395.733112 57.717481 
L 396.168597 57.261903 
L 396.604083 56.303316 
L 397.039569 56.172147 
L 397.475054 55.882287 
L 397.91054 55.281487 
L 398.346026 53.680523 
L 398.781511 52.974905 
L 399.216997 51.149666 
L 399.652483 51.071785 
L 400.087968 50.597469 
L 401.394425 49.962705 
L 401.829911 48.340075 
L 401.829911 48.340075 
" clip-path="url(#p401aa464fe)" style="fill: none; stroke: #d62728; stroke-opacity: 0.8; stroke-width: 1.5; stroke-linecap: square"/>
   </g>
   <g id="line2d_20">
    <path d="M 146.635325 176.586378 
L 147.070811 175.23604 
L 147.506296 175.124196 
L 148.377268 175.329733 
L 149.248239 175.202663 
L 150.554696 175.743734 
L 150.990181 175.681078 
L 151.425667 175.312751 
L 151.861153 175.401758 
L 152.296638 175.891885 
L 152.732124 175.872561 
L 155.345038 176.893219 
L 156.216009 176.829977 
L 157.08698 176.855157 
L 158.393437 177.253934 
L 158.828923 177.373391 
L 160.13538 177.191863 
L 160.570866 177.338256 
L 161.441837 176.845202 
L 161.877322 176.688853 
L 162.312808 176.727501 
L 164.054751 176.281293 
L 164.490236 176.037108 
L 164.925722 176.058774 
L 165.796693 176.69061 
L 167.974121 175.578017 
L 168.845093 171.952133 
L 169.716064 171.841459 
L 170.587035 171.894747 
L 171.022521 171.736641 
L 171.458007 171.973214 
L 172.764463 172.00952 
L 173.199949 171.04332 
L 173.635435 169.047093 
L 174.07092 168.880204 
L 174.506406 168.854439 
L 174.941892 168.713901 
L 177.554806 168.929392 
L 177.990291 168.678766 
L 179.732234 168.589173 
L 180.167719 168.407645 
L 180.603205 168.442194 
L 181.909662 167.547434 
L 182.780633 167.060821 
L 183.651605 166.496912 
L 184.522576 166.07764 
L 184.958061 165.766699 
L 185.829033 165.414768 
L 186.264518 165.206303 
L 187.13549 165.259591 
L 187.570975 165.028289 
L 188.006461 165.735664 
L 188.877432 165.383147 
L 189.312918 165.680034 
L 190.183889 165.750303 
L 191.05486 165.740348 
L 191.490346 165.489136 
L 192.796803 165.357968 
L 193.232289 165.18288 
L 193.667774 165.151845 
L 194.10326 164.784689 
L 194.974231 164.679871 
L 195.409717 164.69451 
L 195.845202 164.562756 
L 196.280688 164.891264 
L 196.716174 164.657034 
L 197.587145 165.191079 
L 198.458116 165.674178 
L 200.200059 165.675935 
L 201.07103 165.633774 
L 202.377487 164.778833 
L 203.248458 164.67343 
L 203.683944 164.812797 
L 204.554915 164.764194 
L 204.990401 164.470821 
L 205.425887 164.756581 
L 206.296858 164.794644 
L 206.732343 164.642394 
L 208.0388 163.840156 
L 209.345257 163.760518 
L 210.216229 164.361904 
L 211.522686 164.314472 
L 211.958171 164.528207 
L 213.264628 164.329697 
L 213.700114 164.349021 
L 214.571085 164.069116 
L 215.006571 164.179204 
L 215.877542 164.03808 
L 216.748513 163.990649 
L 217.183999 163.540927 
L 218.490456 162.782607 
L 219.361427 162.760355 
L 219.796913 162.868101 
L 220.232398 163.199536 
L 220.667884 163.012738 
L 221.10337 163.055485 
L 221.538855 162.750985 
L 221.974341 162.127348 
L 222.845312 162.11505 
L 223.280798 162.369776 
L 223.716283 162.38383 
L 224.151769 162.014331 
L 224.587255 161.807038 
L 225.458226 162.360992 
L 226.329197 161.596231 
L 227.200169 161.128356 
L 227.635654 161.079753 
L 228.07114 159.323027 
L 228.506626 159.462979 
L 230.248568 159.18366 
L 230.684054 158.890872 
L 231.119539 158.880331 
L 231.555025 158.601012 
L 231.990511 159.84009 
L 232.425996 159.851801 
L 233.296968 159.373386 
L 234.603425 159.416133 
L 235.474396 158.841098 
L 235.909881 158.84871 
L 236.345367 159.170777 
L 237.216338 158.679479 
L 237.651824 158.387862 
L 238.522795 158.373809 
L 240.264738 157.450356 
L 240.700224 157.647695 
L 241.571195 157.014688 
L 242.442166 156.410374 
L 242.877652 156.143352 
L 243.313137 156.251097 
L 243.748623 156.038534 
L 244.184109 156.007498 
L 244.619594 156.194297 
L 245.926051 156.320195 
L 246.361537 156.207765 
L 247.232508 156.45195 
L 247.667994 156.748837 
L 248.103479 156.769332 
L 249.409936 157.45914 
L 249.845422 157.534679 
L 250.280908 157.785891 
L 250.716393 157.531166 
L 251.151879 157.782377 
L 251.587365 157.793503 
L 252.02285 158.021878 
L 252.893821 157.828052 
L 253.764793 160.831469 
L 255.07125 161.599744 
L 255.506735 161.573979 
L 255.942221 161.877307 
L 256.377707 161.606771 
L 256.813192 161.65186 
L 257.684164 161.212679 
L 258.119649 162.000863 
L 259.426106 162.141987 
L 259.861592 162.387343 
L 262.909991 162.253832 
L 263.780962 161.831632 
L 265.087419 162.438288 
L 265.958391 162.475179 
L 266.829362 162.565944 
L 267.264848 162.788462 
L 267.700333 162.826525 
L 268.571305 163.332462 
L 269.442276 163.772229 
L 269.877761 164.062089 
L 270.313247 163.925064 
L 270.748733 164.161051 
L 271.619704 164.153439 
L 272.05519 163.905155 
L 272.926161 163.963712 
L 273.361647 164.063846 
L 273.797132 164.046278 
L 274.232618 163.78804 
L 274.668104 163.959028 
L 275.97456 164.037495 
L 276.410046 164.292806 
L 278.151989 164.412263 
L 278.587474 164.438028 
L 279.02296 164.814553 
L 279.458446 164.861985 
L 279.893931 164.631268 
L 280.329417 164.581494 
L 280.764902 164.67343 
L 281.200388 164.420461 
L 282.071359 164.474334 
L 283.813302 163.482369 
L 284.248788 163.294399 
L 285.555245 162.324686 
L 286.426216 162.921973 
L 286.861701 162.785534 
L 287.297187 162.799003 
L 287.732673 163.067782 
L 289.03913 162.992828 
L 289.474615 162.714094 
L 290.345587 162.795489 
L 290.781072 162.548962 
L 291.652044 162.895037 
L 292.087529 162.906163 
L 292.523015 163.14215 
L 292.9585 163.053142 
L 293.829472 162.628015 
L 294.264957 162.611033 
L 295.571414 161.898388 
L 296.877871 161.942891 
L 297.748842 162.565358 
L 298.619814 162.524953 
L 299.490785 163.0508 
L 301.668213 163.179627 
L 302.103699 163.344759 
L 302.97467 163.33012 
L 303.845641 163.80385 
L 304.281127 163.804436 
L 304.716613 163.475342 
L 305.152098 163.457189 
L 305.587584 162.365677 
L 306.02307 161.986809 
L 306.458555 162.260859 
L 306.894041 162.867515 
L 307.765012 162.824768 
L 308.635984 162.128519 
L 309.506955 158.637903 
L 309.94244 154.707521 
L 310.813412 150.629573 
L 311.684383 150.760742 
L 312.119869 150.664707 
L 312.555354 150.919433 
L 312.99084 152.626385 
L 313.426326 152.776878 
L 313.861811 152.766923 
L 314.297297 152.633998 
L 314.732782 152.225266 
L 317.781182 151.937163 
L 318.216668 151.184113 
L 318.652153 150.837452 
L 319.087639 150.754886 
L 319.523125 150.450387 
L 320.394096 150.984432 
L 321.265067 150.946369 
L 321.700553 147.439358 
L 322.571524 147.473321 
L 323.00701 146.650587 
L 324.313467 146.395862 
L 324.748952 146.509464 
L 325.184438 146.773558 
L 325.619924 146.542841 
L 327.361866 147.473906 
L 329.103809 147.673002 
L 329.539294 147.741514 
L 330.410266 147.627327 
L 330.845751 147.771379 
L 331.716722 148.440692 
L 332.152208 148.535555 
L 332.587694 148.273217 
L 333.023179 148.512132 
L 333.894151 148.520915 
L 335.200608 147.663633 
L 336.507065 147.872098 
L 336.94255 147.550031 
L 337.378036 147.668903 
L 337.813521 147.988627 
L 338.249007 148.072365 
L 338.684493 148.364567 
L 339.119978 148.236326 
L 339.99095 147.646066 
L 341.732892 147.435844 
L 343.039349 147.979258 
L 343.474835 149.64522 
L 344.345806 148.886315 
L 344.781292 148.640373 
L 345.216777 148.611094 
L 345.652263 148.363396 
L 347.394206 148.43952 
L 347.829691 147.979844 
L 348.265177 148.272631 
L 348.700662 148.411998 
L 350.007119 147.784261 
L 350.878091 148.345828 
L 351.749062 148.325333 
L 352.184548 148.136192 
L 352.620033 148.372765 
L 353.055519 148.154345 
L 353.92649 147.883809 
L 354.361976 147.590436 
L 354.797461 147.489717 
L 355.232947 147.856873 
L 355.668433 147.780162 
L 357.410375 148.598211 
L 358.716832 148.686048 
L 359.152318 148.013221 
L 359.587804 147.780748 
L 360.89426 147.603319 
L 361.329746 147.347422 
L 362.200717 147.301747 
L 362.636203 147.456925 
L 363.071689 147.043508 
L 363.94266 147.010716 
L 364.378146 146.966213 
L 364.813631 147.164723 
L 365.249117 147.121976 
L 365.684603 146.909997 
L 366.120088 146.907655 
L 366.555574 147.129588 
L 366.991059 146.867836 
L 367.426545 147.004861 
L 367.862031 147.010131 
L 369.168488 147.562914 
L 369.603973 147.766694 
L 370.039459 145.91569 
L 370.474945 146.259423 
L 371.345916 146.175686 
L 372.216887 146.791711 
L 372.652373 146.802837 
L 373.087858 146.59203 
L 373.523344 146.610183 
L 374.394315 147.119048 
L 374.829801 147.346837 
L 376.136258 147.346251 
L 376.571744 147.594535 
L 377.007229 146.737838 
L 377.442715 146.702704 
L 378.313686 147.251388 
L 380.055629 147.626156 
L 380.491114 147.508455 
L 380.9266 146.981437 
L 382.233057 146.179199 
L 382.668543 145.672091 
L 383.104028 145.633443 
L 383.539514 145.340069 
L 384.410485 145.327187 
L 385.716942 144.574137 
L 387.89437 144.759178 
L 388.765341 144.312384 
L 390.071798 144.364501 
L 390.507284 145.171424 
L 390.94277 145.346511 
L 391.378255 145.227053 
L 391.813741 145.268044 
L 392.249227 145.104082 
L 393.120198 145.227639 
L 393.555684 145.347682 
L 394.426655 148.977079 
L 394.86214 152.631655 
L 395.733112 157.163424 
L 396.604083 156.783386 
L 397.039569 156.942077 
L 397.475054 156.957302 
L 397.91054 157.309232 
L 398.346026 156.961401 
L 399.216997 157.529409 
L 400.087968 158.257865 
L 400.523454 158.346287 
L 400.958939 158.682407 
L 401.829911 159.04195 
L 401.829911 159.04195 
" clip-path="url(#p401aa464fe)" style="fill: none; stroke: #9467bd; stroke-opacity: 0.8; stroke-width: 1.5; stroke-linecap: square"/>
   </g>
   <g id="patch_3">
    <path d="M 61.715625 288.430125 
L 61.715625 22.318125 
" style="fill: none; stroke: #000000; stroke-width: 0.8; stroke-linejoin: miter; stroke-linecap: square"/>
   </g>
   <g id="patch_4">
    <path d="M 418.835625 288.430125 
L 418.835625 22.318125 
" style="fill: none; stroke: #000000; stroke-width: 0.8; stroke-linejoin: miter; stroke-linecap: square"/>
   </g>
   <g id="patch_5">
    <path d="M 61.715625 288.430125 
L 418.835625 288.430125 
" style="fill: none; stroke: #000000; stroke-width: 0.8; stroke-linejoin: miter; stroke-linecap: square"/>
   </g>
   <g id="patch_6">
    <path d="M 61.715625 22.318125 
L 418.835625 22.318125 
" style="fill: none; stroke: #000000; stroke-width: 0.8; stroke-linejoin: miter; stroke-linecap: square"/>
   </g>
   <g id="text_18">
    <!-- Get previous sibling [root] -->
    <g transform="translate(161.956875 16.318125) scale(0.12 -0.12)">
     <defs>
      <path id="DejaVuSans-47" d="M 3809 666 
L 3809 1919 
L 2778 1919 
L 2778 2438 
L 4434 2438 
L 4434 434 
Q 4069 175 3628 42 
Q 3188 -91 2688 -91 
Q 1594 -91 976 548 
Q 359 1188 359 2328 
Q 359 3472 976 4111 
Q 1594 4750 2688 4750 
Q 3144 4750 3555 4637 
Q 3966 4525 4313 4306 
L 4313 3634 
Q 3963 3931 3569 4081 
Q 3175 4231 2741 4231 
Q 1884 4231 1454 3753 
Q 1025 3275 1025 2328 
Q 1025 1384 1454 906 
Q 1884 428 2741 428 
Q 3075 428 3337 486 
Q 3600 544 3809 666 
z
" transform="scale(0.015625)"/>
      <path id="DejaVuSans-70" d="M 1159 525 
L 1159 -1331 
L 581 -1331 
L 581 3500 
L 1159 3500 
L 1159 2969 
Q 1341 3281 1617 3432 
Q 1894 3584 2278 3584 
Q 2916 3584 3314 3078 
Q 3713 2572 3713 1747 
Q 3713 922 3314 415 
Q 2916 -91 2278 -91 
Q 1894 -91 1617 61 
Q 1341 213 1159 525 
z
M 3116 1747 
Q 3116 2381 2855 2742 
Q 2594 3103 2138 3103 
Q 1681 3103 1420 2742 
Q 1159 2381 1159 1747 
Q 1159 1113 1420 752 
Q 1681 391 2138 391 
Q 2594 391 2855 752 
Q 3116 1113 3116 1747 
z
" transform="scale(0.015625)"/>
      <path id="DejaVuSans-72" d="M 2631 2963 
Q 2534 3019 2420 3045 
Q 2306 3072 2169 3072 
Q 1681 3072 1420 2755 
Q 1159 2438 1159 1844 
L 1159 0 
L 581 0 
L 581 3500 
L 1159 3500 
L 1159 2956 
Q 1341 3275 1631 3429 
Q 1922 3584 2338 3584 
Q 2397 3584 2469 3576 
Q 2541 3569 2628 3553 
L 2631 2963 
z
" transform="scale(0.015625)"/>
      <path id="DejaVuSans-76" d="M 191 3500 
L 800 3500 
L 1894 563 
L 2988 3500 
L 3597 3500 
L 2284 0 
L 1503 0 
L 191 3500 
z
" transform="scale(0.015625)"/>
      <path id="DejaVuSans-67" d="M 2906 1791 
Q 2906 2416 2648 2759 
Q 2391 3103 1925 3103 
Q 1463 3103 1205 2759 
Q 947 2416 947 1791 
Q 947 1169 1205 825 
Q 1463 481 1925 481 
Q 2391 481 2648 825 
Q 2906 1169 2906 1791 
z
M 3481 434 
Q 3481 -459 3084 -895 
Q 2688 -1331 1869 -1331 
Q 1566 -1331 1297 -1286 
Q 1028 -1241 775 -1147 
L 775 -588 
Q 1028 -725 1275 -790 
Q 1522 -856 1778 -856 
Q 2344 -856 2625 -561 
Q 2906 -266 2906 331 
L 2906 616 
Q 2728 306 2450 153 
Q 2172 0 1784 0 
Q 1141 0 747 490 
Q 353 981 353 1791 
Q 353 2603 747 3093 
Q 1141 3584 1784 3584 
Q 2172 3584 2450 3431 
Q 2728 3278 2906 2969 
L 2906 3500 
L 3481 3500 
L 3481 434 
z
" transform="scale(0.015625)"/>
      <path id="DejaVuSans-5b" d="M 550 4863 
L 1875 4863 
L 1875 4416 
L 1125 4416 
L 1125 -397 
L 1875 -397 
L 1875 -844 
L 550 -844 
L 550 4863 
z
" transform="scale(0.015625)"/>
      <path id="DejaVuSans-5d" d="M 1947 4863 
L 1947 -844 
L 622 -844 
L 622 -397 
L 1369 -397 
L 1369 4416 
L 622 4416 
L 622 4863 
L 1947 4863 
z
" transform="scale(0.015625)"/>
     </defs>
     <use xlink:href="#DejaVuSans-47"/>
     <use xlink:href="#DejaVuSans-65" transform="translate(77.490234 0)"/>
     <use xlink:href="#DejaVuSans-74" transform="translate(139.013672 0)"/>
     <use xlink:href="#DejaVuSans-20" transform="translate(178.222656 0)"/>
     <use xlink:href="#DejaVuSans-70" transform="translate(210.009766 0)"/>
     <use xlink:href="#DejaVuSans-72" transform="translate(273.486328 0)"/>
     <use xlink:href="#DejaVuSans-65" transform="translate(312.349609 0)"/>
     <use xlink:href="#DejaVuSans-76" transform="translate(373.873047 0)"/>
     <use xlink:href="#DejaVuSans-69" transform="translate(433.052734 0)"/>
     <use xlink:href="#DejaVuSans-6f" transform="translate(460.835938 0)"/>
     <use xlink:href="#DejaVuSans-75" transform="translate(522.017578 0)"/>
     <use xlink:href="#DejaVuSans-73" transform="translate(585.396484 0)"/>
     <use xlink:href="#DejaVuSans-20" transform="translate(637.496094 0)"/>
     <use xlink:href="#DejaVuSans-73" transform="translate(669.283203 0)"/>
     <use xlink:href="#DejaVuSans-69" transform="translate(721.382812 0)"/>
     <use xlink:href="#DejaVuSans-62" transform="translate(749.166016 0)"/>
     <use xlink:href="#DejaVuSans-6c" transform="translate(812.642578 0)"/>
     <use xlink:href="#DejaVuSans-69" transform="translate(840.425781 0)"/>
     <use xlink:href="#DejaVuSans-6e" transform="translate(868.208984 0)"/>
     <use xlink:href="#DejaVuSans-67" transform="translate(931.587891 0)"/>
     <use xlink:href="#DejaVuSans-20" transform="translate(995.064453 0)"/>
     <use xlink:href="#DejaVuSans-5b" transform="translate(1026.851562 0)"/>
     <use xlink:href="#DejaVuSans-72" transform="translate(1065.865234 0)"/>
     <use xlink:href="#DejaVuSans-6f" transform="translate(1104.728516 0)"/>
     <use xlink:href="#DejaVuSans-6f" transform="translate(1165.910156 0)"/>
     <use xlink:href="#DejaVuSans-74" transform="translate(1227.091797 0)"/>
     <use xlink:href="#DejaVuSans-5d" transform="translate(1266.300781 0)"/>
    </g>
   </g>
   <g id="legend_1">
    <g id="patch_7">
     <path d="M 92.717969 365.802375 
L 380.313281 365.802375 
Q 382.313281 365.802375 382.313281 363.802375 
L 382.313281 335.446125 
Q 382.313281 333.446125 380.313281 333.446125 
L 92.717969 333.446125 
Q 90.717969 333.446125 90.717969 335.446125 
L 90.717969 363.802375 
Q 90.717969 365.802375 92.717969 365.802375 
z
" style="fill: #4d4d4d; opacity: 0.5; stroke: #4d4d4d; stroke-linejoin: miter"/>
    </g>
    <g id="patch_8">
     <path d="M 90.717969 363.802375 
L 378.313281 363.802375 
Q 380.313281 363.802375 380.313281 361.802375 
L 380.313281 333.446125 
Q 380.313281 331.446125 378.313281 331.446125 
L 90.717969 331.446125 
Q 88.717969 331.446125 88.717969 333.446125 
L 88.717969 361.802375 
Q 88.717969 363.802375 90.717969 363.802375 
z
" style="fill: #ffffff; stroke: #cccccc; stroke-linejoin: miter"/>
    </g>
    <g id="line2d_21">
     <path d="M 92.717969 339.544562 
L 102.717969 339.544562 
L 112.717969 339.544562 
" style="fill: none; stroke: #1f77b4; stroke-opacity: 0.8; stroke-width: 1.5; stroke-linecap: square"/>
    </g>
    <g id="text_19">
     <!-- MPTT -->
     <g transform="translate(120.717969 343.044562) scale(0.1 -0.1)">
      <defs>
       <path id="DejaVuSans-4d" d="M 628 4666 
L 1569 4666 
L 2759 1491 
L 3956 4666 
L 4897 4666 
L 4897 0 
L 4281 0 
L 4281 4097 
L 3078 897 
L 2444 897 
L 1241 4097 
L 1241 0 
L 628 0 
L 628 4666 
z
" transform="scale(0.015625)"/>
       <path id="DejaVuSans-50" d="M 1259 4147 
L 1259 2394 
L 2053 2394 
Q 2494 2394 2734 2622 
Q 2975 2850 2975 3272 
Q 2975 3691 2734 3919 
Q 2494 4147 2053 4147 
L 1259 4147 
z
M 628 4666 
L 2053 4666 
Q 2838 4666 3239 4311 
Q 3641 3956 3641 3272 
Q 3641 2581 3239 2228 
Q 2838 1875 2053 1875 
L 1259 1875 
L 1259 0 
L 628 0 
L 628 4666 
z
" transform="scale(0.015625)"/>
       <path id="DejaVuSans-54" d="M -19 4666 
L 3928 4666 
L 3928 4134 
L 2272 4134 
L 2272 0 
L 1638 0 
L 1638 4134 
L -19 4134 
L -19 4666 
z
" transform="scale(0.015625)"/>
      </defs>
      <use xlink:href="#DejaVuSans-4d"/>
      <use xlink:href="#DejaVuSans-50" transform="translate(86.279297 0)"/>
      <use xlink:href="#DejaVuSans-54" transform="translate(146.582031 0)"/>
      <use xlink:href="#DejaVuSans-54" transform="translate(205.916016 0)"/>
     </g>
    </g>
    <g id="line2d_22">
     <path d="M 92.717969 354.222687 
L 102.717969 354.222687 
L 112.717969 354.222687 
" style="fill: none; stroke: #ff7f0e; stroke-opacity: 0.8; stroke-width: 1.5; stroke-linecap: square"/>
    </g>
    <g id="text_20">
     <!-- tree -->
     <g transform="translate(120.717969 357.722687) scale(0.1 -0.1)">
      <use xlink:href="#DejaVuSans-74"/>
      <use xlink:href="#DejaVuSans-72" transform="translate(39.208984 0)"/>
      <use xlink:href="#DejaVuSans-65" transform="translate(78.072266 0)"/>
      <use xlink:href="#DejaVuSans-65" transform="translate(139.595703 0)"/>
     </g>
    </g>
    <g id="line2d_23">
     <path d="M 167.416406 339.544562 
L 177.416406 339.544562 
L 187.416406 339.544562 
" style="fill: none; stroke: #2ca02c; stroke-opacity: 0.8; stroke-width: 1.5; stroke-linecap: square"/>
    </g>
    <g id="text_21">
     <!-- treebeard AL -->
     <g transform="translate(195.416406 343.044562) scale(0.1 -0.1)">
      <defs>
       <path id="DejaVuSans-4c" d="M 628 4666 
L 1259 4666 
L 1259 531 
L 3531 531 
L 3531 0 
L 628 0 
L 628 4666 
z
" transform="scale(0.015625)"/>
      </defs>
      <use xlink:href="#DejaVuSans-74"/>
      <use xlink:href="#DejaVuSans-72" transform="translate(39.208984 0)"/>
      <use xlink:href="#DejaVuSans-65" transform="translate(78.072266 0)"/>
      <use xlink:href="#DejaVuSans-65" transform="translate(139.595703 0)"/>
      <use xlink:href="#DejaVuSans-62" transform="translate(201.119141 0)"/>
      <use xlink:href="#DejaVuSans-65" transform="translate(264.595703 0)"/>
      <use xlink:href="#DejaVuSans-61" transform="translate(326.119141 0)"/>
      <use xlink:href="#DejaVuSans-72" transform="translate(387.398438 0)"/>
      <use xlink:href="#DejaVuSans-64" transform="translate(426.761719 0)"/>
      <use xlink:href="#DejaVuSans-20" transform="translate(490.238281 0)"/>
      <use xlink:href="#DejaVuSans-41" transform="translate(522.025391 0)"/>
      <use xlink:href="#DejaVuSans-4c" transform="translate(590.433594 0)"/>
     </g>
    </g>
    <g id="line2d_24">
     <path d="M 167.416406 354.222687 
L 177.416406 354.222687 
L 187.416406 354.222687 
" style="fill: none; stroke: #d62728; stroke-opacity: 0.8; stroke-width: 1.5; stroke-linecap: square"/>
    </g>
    <g id="text_22">
     <!-- treebeard MP -->
     <g transform="translate(195.416406 357.722687) scale(0.1 -0.1)">
      <use xlink:href="#DejaVuSans-74"/>
      <use xlink:href="#DejaVuSans-72" transform="translate(39.208984 0)"/>
      <use xlink:href="#DejaVuSans-65" transform="translate(78.072266 0)"/>
      <use xlink:href="#DejaVuSans-65" transform="translate(139.595703 0)"/>
      <use xlink:href="#DejaVuSans-62" transform="translate(201.119141 0)"/>
      <use xlink:href="#DejaVuSans-65" transform="translate(264.595703 0)"/>
      <use xlink:href="#DejaVuSans-61" transform="translate(326.119141 0)"/>
      <use xlink:href="#DejaVuSans-72" transform="translate(387.398438 0)"/>
      <use xlink:href="#DejaVuSans-64" transform="translate(426.761719 0)"/>
      <use xlink:href="#DejaVuSans-20" transform="translate(490.238281 0)"/>
      <use xlink:href="#DejaVuSans-4d" transform="translate(522.025391 0)"/>
      <use xlink:href="#DejaVuSans-50" transform="translate(608.304688 0)"/>
     </g>
    </g>
    <g id="line2d_25">
     <path d="M 282.278906 339.544562 
L 292.278906 339.544562 
L 302.278906 339.544562 
" style="fill: none; stroke: #9467bd; stroke-opacity: 0.8; stroke-width: 1.5; stroke-linecap: square"/>
    </g>
    <g id="text_23">
     <!-- treebeard NS -->
     <g transform="translate(310.278906 343.044562) scale(0.1 -0.1)">
      <defs>
       <path id="DejaVuSans-4e" d="M 628 4666 
L 1478 4666 
L 3547 763 
L 3547 4666 
L 4159 4666 
L 4159 0 
L 3309 0 
L 1241 3903 
L 1241 0 
L 628 0 
L 628 4666 
z
" transform="scale(0.015625)"/>
       <path id="DejaVuSans-53" d="M 3425 4513 
L 3425 3897 
Q 3066 4069 2747 4153 
Q 2428 4238 2131 4238 
Q 1616 4238 1336 4038 
Q 1056 3838 1056 3469 
Q 1056 3159 1242 3001 
Q 1428 2844 1947 2747 
L 2328 2669 
Q 3034 2534 3370 2195 
Q 3706 1856 3706 1288 
Q 3706 609 3251 259 
Q 2797 -91 1919 -91 
Q 1588 -91 1214 -16 
Q 841 59 441 206 
L 441 856 
Q 825 641 1194 531 
Q 1563 422 1919 422 
Q 2459 422 2753 634 
Q 3047 847 3047 1241 
Q 3047 1584 2836 1778 
Q 2625 1972 2144 2069 
L 1759 2144 
Q 1053 2284 737 2584 
Q 422 2884 422 3419 
Q 422 4038 858 4394 
Q 1294 4750 2059 4750 
Q 2388 4750 2728 4690 
Q 3069 4631 3425 4513 
z
" transform="scale(0.015625)"/>
      </defs>
      <use xlink:href="#DejaVuSans-74"/>
      <use xlink:href="#DejaVuSans-72" transform="translate(39.208984 0)"/>
      <use xlink:href="#DejaVuSans-65" transform="translate(78.072266 0)"/>
      <use xlink:href="#DejaVuSans-65" transform="translate(139.595703 0)"/>
      <use xlink:href="#DejaVuSans-62" transform="translate(201.119141 0)"/>
      <use xlink:href="#DejaVuSans-65" transform="translate(264.595703 0)"/>
      <use xlink:href="#DejaVuSans-61" transform="translate(326.119141 0)"/>
      <use xlink:href="#DejaVuSans-72" transform="translate(387.398438 0)"/>
      <use xlink:href="#DejaVuSans-64" transform="translate(426.761719 0)"/>
      <use xlink:href="#DejaVuSans-20" transform="translate(490.238281 0)"/>
      <use xlink:href="#DejaVuSans-4e" transform="translate(522.025391 0)"/>
      <use xlink:href="#DejaVuSans-53" transform="translate(596.830078 0)"/>
     </g>
    </g>
   </g>
  </g>
 </g>
 <defs>
  <clipPath id="p401aa464fe">
   <rect x="61.715625" y="22.318125" width="357.12" height="266.112"/>
  </clipPath>
 </defs>
</svg>
