<?xml version="1.0" encoding="utf-8" standalone="no"?>
<!DOCTYPE svg PUBLIC "-//W3C//DTD SVG 1.1//EN"
  "http://www.w3.org/Graphics/SVG/1.1/DTD/svg11.dtd">
<!-- Created with matplotlib (http://matplotlib.org/) -->
<svg height="371pt" version="1.1" viewBox="0 0 426 371" width="426pt" xmlns="http://www.w3.org/2000/svg" xmlns:xlink="http://www.w3.org/1999/xlink">
 <defs>
  <style type="text/css">
*{stroke-linecap:butt;stroke-linejoin:round;}
  </style>
 </defs>
 <g id="figure_1">
  <g id="patch_1">
   <path d="M 0 371.002375 
L 426.55125 371.002375 
L 426.55125 0 
L 0 0 
z
" style="fill:#ffffff;"/>
  </g>
  <g id="axes_1">
   <g id="patch_2">
    <path d="M 58.73125 288.430125 
L 415.85125 288.430125 
L 415.85125 22.318125 
L 58.73125 22.318125 
z
" style="fill:#ffffff;"/>
   </g>
   <g id="matplotlib.axis_1">
    <g id="xtick_1">
     <g id="line2d_1">
      <defs>
       <path d="M 0 0 
L 0 3.5 
" id="m9e35eaa129" style="stroke:#000000;stroke-width:0.8;"/>
      </defs>
      <g>
       <use style="stroke:#000000;stroke-width:0.8;" x="58.73125" xlink:href="#m9e35eaa129" y="288.430125"/>
      </g>
     </g>
     <g id="text_1">
      <!-- 0 -->
      <defs>
       <path d="M 31.78125 66.40625 
Q 24.171875 66.40625 20.328125 58.90625 
Q 16.5 51.421875 16.5 36.375 
Q 16.5 21.390625 20.328125 13.890625 
Q 24.171875 6.390625 31.78125 6.390625 
Q 39.453125 6.390625 43.28125 13.890625 
Q 47.125 21.390625 47.125 36.375 
Q 47.125 51.421875 43.28125 58.90625 
Q 39.453125 66.40625 31.78125 66.40625 
z
M 31.78125 74.21875 
Q 44.046875 74.21875 50.515625 64.515625 
Q 56.984375 54.828125 56.984375 36.375 
Q 56.984375 17.96875 50.515625 8.265625 
Q 44.046875 -1.421875 31.78125 -1.421875 
Q 19.53125 -1.421875 13.0625 8.265625 
Q 6.59375 17.96875 6.59375 36.375 
Q 6.59375 54.828125 13.0625 64.515625 
Q 19.53125 74.21875 31.78125 74.21875 
z
" id="DejaVuSans-30"/>
      </defs>
      <g transform="translate(55.55 303.028562)scale(0.1 -0.1)">
       <use xlink:href="#DejaVuSans-30"/>
      </g>
     </g>
    </g>
    <g id="xtick_2">
     <g id="line2d_2">
      <g>
       <use style="stroke:#000000;stroke-width:0.8;" x="102.279814" xlink:href="#m9e35eaa129" y="288.430125"/>
      </g>
     </g>
     <g id="text_2">
      <!-- 500  -->
      <defs>
       <path d="M 10.796875 72.90625 
L 49.515625 72.90625 
L 49.515625 64.59375 
L 19.828125 64.59375 
L 19.828125 46.734375 
Q 21.96875 47.46875 24.109375 47.828125 
Q 26.265625 48.1875 28.421875 48.1875 
Q 40.625 48.1875 47.75 41.5 
Q 54.890625 34.8125 54.890625 23.390625 
Q 54.890625 11.625 47.5625 5.09375 
Q 40.234375 -1.421875 26.90625 -1.421875 
Q 22.3125 -1.421875 17.546875 -0.640625 
Q 12.796875 0.140625 7.71875 1.703125 
L 7.71875 11.625 
Q 12.109375 9.234375 16.796875 8.0625 
Q 21.484375 6.890625 26.703125 6.890625 
Q 35.15625 6.890625 40.078125 11.328125 
Q 45.015625 15.765625 45.015625 23.390625 
Q 45.015625 31 40.078125 35.4375 
Q 35.15625 39.890625 26.703125 39.890625 
Q 22.75 39.890625 18.8125 39.015625 
Q 14.890625 38.140625 10.796875 36.28125 
z
" id="DejaVuSans-35"/>
       <path id="DejaVuSans-20"/>
      </defs>
      <g transform="translate(91.147002 303.028562)scale(0.1 -0.1)">
       <use xlink:href="#DejaVuSans-35"/>
       <use x="63.623047" xlink:href="#DejaVuSans-30"/>
       <use x="127.246094" xlink:href="#DejaVuSans-30"/>
       <use x="190.869141" xlink:href="#DejaVuSans-20"/>
      </g>
     </g>
    </g>
    <g id="xtick_3">
     <g id="line2d_3">
      <g>
       <use style="stroke:#000000;stroke-width:0.8;" x="145.828378" xlink:href="#m9e35eaa129" y="288.430125"/>
      </g>
     </g>
     <g id="text_3">
      <!-- 1 k -->
      <defs>
       <path d="M 12.40625 8.296875 
L 28.515625 8.296875 
L 28.515625 63.921875 
L 10.984375 60.40625 
L 10.984375 69.390625 
L 28.421875 72.90625 
L 38.28125 72.90625 
L 38.28125 8.296875 
L 54.390625 8.296875 
L 54.390625 0 
L 12.40625 0 
z
" id="DejaVuSans-31"/>
       <path d="M 9.078125 75.984375 
L 18.109375 75.984375 
L 18.109375 31.109375 
L 44.921875 54.6875 
L 56.390625 54.6875 
L 27.390625 29.109375 
L 57.625 0 
L 45.90625 0 
L 18.109375 26.703125 
L 18.109375 0 
L 9.078125 0 
z
" id="DejaVuSans-6b"/>
      </defs>
      <g transform="translate(138.162753 303.028562)scale(0.1 -0.1)">
       <use xlink:href="#DejaVuSans-31"/>
       <use x="63.623047" xlink:href="#DejaVuSans-20"/>
       <use x="95.410156" xlink:href="#DejaVuSans-6b"/>
      </g>
     </g>
    </g>
    <g id="xtick_4">
     <g id="line2d_4">
      <g>
       <use style="stroke:#000000;stroke-width:0.8;" x="189.376942" xlink:href="#m9e35eaa129" y="288.430125"/>
      </g>
     </g>
     <g id="text_4">
      <!-- 1.5 k -->
      <defs>
       <path d="M 10.6875 12.40625 
L 21 12.40625 
L 21 0 
L 10.6875 0 
z
" id="DejaVuSans-2e"/>
      </defs>
      <g transform="translate(176.941005 303.028562)scale(0.1 -0.1)">
       <use xlink:href="#DejaVuSans-31"/>
       <use x="63.623047" xlink:href="#DejaVuSans-2e"/>
       <use x="95.410156" xlink:href="#DejaVuSans-35"/>
       <use x="159.033203" xlink:href="#DejaVuSans-20"/>
       <use x="190.820312" xlink:href="#DejaVuSans-6b"/>
      </g>
     </g>
    </g>
    <g id="xtick_5">
     <g id="line2d_5">
      <g>
       <use style="stroke:#000000;stroke-width:0.8;" x="232.925506" xlink:href="#m9e35eaa129" y="288.430125"/>
      </g>
     </g>
     <g id="text_5">
      <!-- 2 k -->
      <defs>
       <path d="M 19.1875 8.296875 
L 53.609375 8.296875 
L 53.609375 0 
L 7.328125 0 
L 7.328125 8.296875 
Q 12.9375 14.109375 22.625 23.890625 
Q 32.328125 33.6875 34.8125 36.53125 
Q 39.546875 41.84375 41.421875 45.53125 
Q 43.3125 49.21875 43.3125 52.78125 
Q 43.3125 58.59375 39.234375 62.25 
Q 35.15625 65.921875 28.609375 65.921875 
Q 23.96875 65.921875 18.8125 64.3125 
Q 13.671875 62.703125 7.8125 59.421875 
L 7.8125 69.390625 
Q 13.765625 71.78125 18.9375 73 
Q 24.125 74.21875 28.421875 74.21875 
Q 39.75 74.21875 46.484375 68.546875 
Q 53.21875 62.890625 53.21875 53.421875 
Q 53.21875 48.921875 51.53125 44.890625 
Q 49.859375 40.875 45.40625 35.40625 
Q 44.1875 33.984375 37.640625 27.21875 
Q 31.109375 20.453125 19.1875 8.296875 
z
" id="DejaVuSans-32"/>
      </defs>
      <g transform="translate(225.259881 303.028562)scale(0.1 -0.1)">
       <use xlink:href="#DejaVuSans-32"/>
       <use x="63.623047" xlink:href="#DejaVuSans-20"/>
       <use x="95.410156" xlink:href="#DejaVuSans-6b"/>
      </g>
     </g>
    </g>
    <g id="xtick_6">
     <g id="line2d_6">
      <g>
       <use style="stroke:#000000;stroke-width:0.8;" x="276.474071" xlink:href="#m9e35eaa129" y="288.430125"/>
      </g>
     </g>
     <g id="text_6">
      <!-- 2.5 k -->
      <g transform="translate(264.038133 303.028562)scale(0.1 -0.1)">
       <use xlink:href="#DejaVuSans-32"/>
       <use x="63.623047" xlink:href="#DejaVuSans-2e"/>
       <use x="95.410156" xlink:href="#DejaVuSans-35"/>
       <use x="159.033203" xlink:href="#DejaVuSans-20"/>
       <use x="190.820312" xlink:href="#DejaVuSans-6b"/>
      </g>
     </g>
    </g>
    <g id="xtick_7">
     <g id="line2d_7">
      <g>
       <use style="stroke:#000000;stroke-width:0.8;" x="320.022635" xlink:href="#m9e35eaa129" y="288.430125"/>
      </g>
     </g>
     <g id="text_7">
      <!-- 3 k -->
      <defs>
       <path d="M 40.578125 39.3125 
Q 47.65625 37.796875 51.625 33 
Q 55.609375 28.21875 55.609375 21.1875 
Q 55.609375 10.40625 48.1875 4.484375 
Q 40.765625 -1.421875 27.09375 -1.421875 
Q 22.515625 -1.421875 17.65625 -0.515625 
Q 12.796875 0.390625 7.625 2.203125 
L 7.625 11.71875 
Q 11.71875 9.328125 16.59375 8.109375 
Q 21.484375 6.890625 26.8125 6.890625 
Q 36.078125 6.890625 40.9375 10.546875 
Q 45.796875 14.203125 45.796875 21.1875 
Q 45.796875 27.640625 41.28125 31.265625 
Q 36.765625 34.90625 28.71875 34.90625 
L 20.21875 34.90625 
L 20.21875 43.015625 
L 29.109375 43.015625 
Q 36.375 43.015625 40.234375 45.921875 
Q 44.09375 48.828125 44.09375 54.296875 
Q 44.09375 59.90625 40.109375 62.90625 
Q 36.140625 65.921875 28.71875 65.921875 
Q 24.65625 65.921875 20.015625 65.03125 
Q 15.375 64.15625 9.8125 62.3125 
L 9.8125 71.09375 
Q 15.4375 72.65625 20.34375 73.4375 
Q 25.25 74.21875 29.59375 74.21875 
Q 40.828125 74.21875 47.359375 69.109375 
Q 53.90625 64.015625 53.90625 55.328125 
Q 53.90625 49.265625 50.4375 45.09375 
Q 46.96875 40.921875 40.578125 39.3125 
z
" id="DejaVuSans-33"/>
      </defs>
      <g transform="translate(312.35701 303.028562)scale(0.1 -0.1)">
       <use xlink:href="#DejaVuSans-33"/>
       <use x="63.623047" xlink:href="#DejaVuSans-20"/>
       <use x="95.410156" xlink:href="#DejaVuSans-6b"/>
      </g>
     </g>
    </g>
    <g id="xtick_8">
     <g id="line2d_8">
      <g>
       <use style="stroke:#000000;stroke-width:0.8;" x="363.571199" xlink:href="#m9e35eaa129" y="288.430125"/>
      </g>
     </g>
     <g id="text_8">
      <!-- 3.5 k -->
      <g transform="translate(351.135261 303.028562)scale(0.1 -0.1)">
       <use xlink:href="#DejaVuSans-33"/>
       <use x="63.623047" xlink:href="#DejaVuSans-2e"/>
       <use x="95.410156" xlink:href="#DejaVuSans-35"/>
       <use x="159.033203" xlink:href="#DejaVuSans-20"/>
       <use x="190.820312" xlink:href="#DejaVuSans-6b"/>
      </g>
     </g>
    </g>
    <g id="xtick_9">
     <g id="line2d_9">
      <g>
       <use style="stroke:#000000;stroke-width:0.8;" x="407.119763" xlink:href="#m9e35eaa129" y="288.430125"/>
      </g>
     </g>
     <g id="text_9">
      <!-- 4 k -->
      <defs>
       <path d="M 37.796875 64.3125 
L 12.890625 25.390625 
L 37.796875 25.390625 
z
M 35.203125 72.90625 
L 47.609375 72.90625 
L 47.609375 25.390625 
L 58.015625 25.390625 
L 58.015625 17.1875 
L 47.609375 17.1875 
L 47.609375 0 
L 37.796875 0 
L 37.796875 17.1875 
L 4.890625 17.1875 
L 4.890625 26.703125 
z
" id="DejaVuSans-34"/>
      </defs>
      <g transform="translate(399.454138 303.028562)scale(0.1 -0.1)">
       <use xlink:href="#DejaVuSans-34"/>
       <use x="63.623047" xlink:href="#DejaVuSans-20"/>
       <use x="95.410156" xlink:href="#DejaVuSans-6b"/>
      </g>
     </g>
    </g>
    <g id="text_10">
     <!-- Amount of objects in table -->
     <defs>
      <path d="M 34.1875 63.1875 
L 20.796875 26.90625 
L 47.609375 26.90625 
z
M 28.609375 72.90625 
L 39.796875 72.90625 
L 67.578125 0 
L 57.328125 0 
L 50.6875 18.703125 
L 17.828125 18.703125 
L 11.1875 0 
L 0.78125 0 
z
" id="DejaVuSans-41"/>
      <path d="M 52 44.1875 
Q 55.375 50.25 60.0625 53.125 
Q 64.75 56 71.09375 56 
Q 79.640625 56 84.28125 50.015625 
Q 88.921875 44.046875 88.921875 33.015625 
L 88.921875 0 
L 79.890625 0 
L 79.890625 32.71875 
Q 79.890625 40.578125 77.09375 44.375 
Q 74.3125 48.1875 68.609375 48.1875 
Q 61.625 48.1875 57.5625 43.546875 
Q 53.515625 38.921875 53.515625 30.90625 
L 53.515625 0 
L 44.484375 0 
L 44.484375 32.71875 
Q 44.484375 40.625 41.703125 44.40625 
Q 38.921875 48.1875 33.109375 48.1875 
Q 26.21875 48.1875 22.15625 43.53125 
Q 18.109375 38.875 18.109375 30.90625 
L 18.109375 0 
L 9.078125 0 
L 9.078125 54.6875 
L 18.109375 54.6875 
L 18.109375 46.1875 
Q 21.1875 51.21875 25.484375 53.609375 
Q 29.78125 56 35.6875 56 
Q 41.65625 56 45.828125 52.96875 
Q 50 49.953125 52 44.1875 
z
" id="DejaVuSans-6d"/>
      <path d="M 30.609375 48.390625 
Q 23.390625 48.390625 19.1875 42.75 
Q 14.984375 37.109375 14.984375 27.296875 
Q 14.984375 17.484375 19.15625 11.84375 
Q 23.34375 6.203125 30.609375 6.203125 
Q 37.796875 6.203125 41.984375 11.859375 
Q 46.1875 17.53125 46.1875 27.296875 
Q 46.1875 37.015625 41.984375 42.703125 
Q 37.796875 48.390625 30.609375 48.390625 
z
M 30.609375 56 
Q 42.328125 56 49.015625 48.375 
Q 55.71875 40.765625 55.71875 27.296875 
Q 55.71875 13.875 49.015625 6.21875 
Q 42.328125 -1.421875 30.609375 -1.421875 
Q 18.84375 -1.421875 12.171875 6.21875 
Q 5.515625 13.875 5.515625 27.296875 
Q 5.515625 40.765625 12.171875 48.375 
Q 18.84375 56 30.609375 56 
z
" id="DejaVuSans-6f"/>
      <path d="M 8.5 21.578125 
L 8.5 54.6875 
L 17.484375 54.6875 
L 17.484375 21.921875 
Q 17.484375 14.15625 20.5 10.265625 
Q 23.53125 6.390625 29.59375 6.390625 
Q 36.859375 6.390625 41.078125 11.03125 
Q 45.3125 15.671875 45.3125 23.6875 
L 45.3125 54.6875 
L 54.296875 54.6875 
L 54.296875 0 
L 45.3125 0 
L 45.3125 8.40625 
Q 42.046875 3.421875 37.71875 1 
Q 33.40625 -1.421875 27.6875 -1.421875 
Q 18.265625 -1.421875 13.375 4.4375 
Q 8.5 10.296875 8.5 21.578125 
z
M 31.109375 56 
z
" id="DejaVuSans-75"/>
      <path d="M 54.890625 33.015625 
L 54.890625 0 
L 45.90625 0 
L 45.90625 32.71875 
Q 45.90625 40.484375 42.875 44.328125 
Q 39.84375 48.1875 33.796875 48.1875 
Q 26.515625 48.1875 22.3125 43.546875 
Q 18.109375 38.921875 18.109375 30.90625 
L 18.109375 0 
L 9.078125 0 
L 9.078125 54.6875 
L 18.109375 54.6875 
L 18.109375 46.1875 
Q 21.34375 51.125 25.703125 53.5625 
Q 30.078125 56 35.796875 56 
Q 45.21875 56 50.046875 50.171875 
Q 54.890625 44.34375 54.890625 33.015625 
z
" id="DejaVuSans-6e"/>
      <path d="M 18.3125 70.21875 
L 18.3125 54.6875 
L 36.8125 54.6875 
L 36.8125 47.703125 
L 18.3125 47.703125 
L 18.3125 18.015625 
Q 18.3125 11.328125 20.140625 9.421875 
Q 21.96875 7.515625 27.59375 7.515625 
L 36.8125 7.515625 
L 36.8125 0 
L 27.59375 0 
Q 17.1875 0 13.234375 3.875 
Q 9.28125 7.765625 9.28125 18.015625 
L 9.28125 47.703125 
L 2.6875 47.703125 
L 2.6875 54.6875 
L 9.28125 54.6875 
L 9.28125 70.21875 
z
" id="DejaVuSans-74"/>
      <path d="M 37.109375 75.984375 
L 37.109375 68.5 
L 28.515625 68.5 
Q 23.6875 68.5 21.796875 66.546875 
Q 19.921875 64.59375 19.921875 59.515625 
L 19.921875 54.6875 
L 34.71875 54.6875 
L 34.71875 47.703125 
L 19.921875 47.703125 
L 19.921875 0 
L 10.890625 0 
L 10.890625 47.703125 
L 2.296875 47.703125 
L 2.296875 54.6875 
L 10.890625 54.6875 
L 10.890625 58.5 
Q 10.890625 67.625 15.140625 71.796875 
Q 19.390625 75.984375 28.609375 75.984375 
z
" id="DejaVuSans-66"/>
      <path d="M 48.6875 27.296875 
Q 48.6875 37.203125 44.609375 42.84375 
Q 40.53125 48.484375 33.40625 48.484375 
Q 26.265625 48.484375 22.1875 42.84375 
Q 18.109375 37.203125 18.109375 27.296875 
Q 18.109375 17.390625 22.1875 11.75 
Q 26.265625 6.109375 33.40625 6.109375 
Q 40.53125 6.109375 44.609375 11.75 
Q 48.6875 17.390625 48.6875 27.296875 
z
M 18.109375 46.390625 
Q 20.953125 51.265625 25.265625 53.625 
Q 29.59375 56 35.59375 56 
Q 45.5625 56 51.78125 48.09375 
Q 58.015625 40.1875 58.015625 27.296875 
Q 58.015625 14.40625 51.78125 6.484375 
Q 45.5625 -1.421875 35.59375 -1.421875 
Q 29.59375 -1.421875 25.265625 0.953125 
Q 20.953125 3.328125 18.109375 8.203125 
L 18.109375 0 
L 9.078125 0 
L 9.078125 75.984375 
L 18.109375 75.984375 
z
" id="DejaVuSans-62"/>
      <path d="M 9.421875 54.6875 
L 18.40625 54.6875 
L 18.40625 -0.984375 
Q 18.40625 -11.421875 14.421875 -16.109375 
Q 10.453125 -20.796875 1.609375 -20.796875 
L -1.8125 -20.796875 
L -1.8125 -13.1875 
L 0.59375 -13.1875 
Q 5.71875 -13.1875 7.5625 -10.8125 
Q 9.421875 -8.453125 9.421875 -0.984375 
z
M 9.421875 75.984375 
L 18.40625 75.984375 
L 18.40625 64.59375 
L 9.421875 64.59375 
z
" id="DejaVuSans-6a"/>
      <path d="M 56.203125 29.59375 
L 56.203125 25.203125 
L 14.890625 25.203125 
Q 15.484375 15.921875 20.484375 11.0625 
Q 25.484375 6.203125 34.421875 6.203125 
Q 39.59375 6.203125 44.453125 7.46875 
Q 49.3125 8.734375 54.109375 11.28125 
L 54.109375 2.78125 
Q 49.265625 0.734375 44.1875 -0.34375 
Q 39.109375 -1.421875 33.890625 -1.421875 
Q 20.796875 -1.421875 13.15625 6.1875 
Q 5.515625 13.8125 5.515625 26.8125 
Q 5.515625 40.234375 12.765625 48.109375 
Q 20.015625 56 32.328125 56 
Q 43.359375 56 49.78125 48.890625 
Q 56.203125 41.796875 56.203125 29.59375 
z
M 47.21875 32.234375 
Q 47.125 39.59375 43.09375 43.984375 
Q 39.0625 48.390625 32.421875 48.390625 
Q 24.90625 48.390625 20.390625 44.140625 
Q 15.875 39.890625 15.1875 32.171875 
z
" id="DejaVuSans-65"/>
      <path d="M 48.78125 52.59375 
L 48.78125 44.1875 
Q 44.96875 46.296875 41.140625 47.34375 
Q 37.3125 48.390625 33.40625 48.390625 
Q 24.65625 48.390625 19.8125 42.84375 
Q 14.984375 37.3125 14.984375 27.296875 
Q 14.984375 17.28125 19.8125 11.734375 
Q 24.65625 6.203125 33.40625 6.203125 
Q 37.3125 6.203125 41.140625 7.25 
Q 44.96875 8.296875 48.78125 10.40625 
L 48.78125 2.09375 
Q 45.015625 0.34375 40.984375 -0.53125 
Q 36.96875 -1.421875 32.421875 -1.421875 
Q 20.0625 -1.421875 12.78125 6.34375 
Q 5.515625 14.109375 5.515625 27.296875 
Q 5.515625 40.671875 12.859375 48.328125 
Q 20.21875 56 33.015625 56 
Q 37.15625 56 41.109375 55.140625 
Q 45.0625 54.296875 48.78125 52.59375 
z
" id="DejaVuSans-63"/>
      <path d="M 44.28125 53.078125 
L 44.28125 44.578125 
Q 40.484375 46.53125 36.375 47.5 
Q 32.28125 48.484375 27.875 48.484375 
Q 21.1875 48.484375 17.84375 46.4375 
Q 14.5 44.390625 14.5 40.28125 
Q 14.5 37.15625 16.890625 35.375 
Q 19.28125 33.59375 26.515625 31.984375 
L 29.59375 31.296875 
Q 39.15625 29.25 43.1875 25.515625 
Q 47.21875 21.78125 47.21875 15.09375 
Q 47.21875 7.46875 41.1875 3.015625 
Q 35.15625 -1.421875 24.609375 -1.421875 
Q 20.21875 -1.421875 15.453125 -0.5625 
Q 10.6875 0.296875 5.421875 2 
L 5.421875 11.28125 
Q 10.40625 8.6875 15.234375 7.390625 
Q 20.0625 6.109375 24.8125 6.109375 
Q 31.15625 6.109375 34.5625 8.28125 
Q 37.984375 10.453125 37.984375 14.40625 
Q 37.984375 18.0625 35.515625 20.015625 
Q 33.0625 21.96875 24.703125 23.78125 
L 21.578125 24.515625 
Q 13.234375 26.265625 9.515625 29.90625 
Q 5.8125 33.546875 5.8125 39.890625 
Q 5.8125 47.609375 11.28125 51.796875 
Q 16.75 56 26.8125 56 
Q 31.78125 56 36.171875 55.265625 
Q 40.578125 54.546875 44.28125 53.078125 
z
" id="DejaVuSans-73"/>
      <path d="M 9.421875 54.6875 
L 18.40625 54.6875 
L 18.40625 0 
L 9.421875 0 
z
M 9.421875 75.984375 
L 18.40625 75.984375 
L 18.40625 64.59375 
L 9.421875 64.59375 
z
" id="DejaVuSans-69"/>
      <path d="M 34.28125 27.484375 
Q 23.390625 27.484375 19.1875 25 
Q 14.984375 22.515625 14.984375 16.5 
Q 14.984375 11.71875 18.140625 8.90625 
Q 21.296875 6.109375 26.703125 6.109375 
Q 34.1875 6.109375 38.703125 11.40625 
Q 43.21875 16.703125 43.21875 25.484375 
L 43.21875 27.484375 
z
M 52.203125 31.203125 
L 52.203125 0 
L 43.21875 0 
L 43.21875 8.296875 
Q 40.140625 3.328125 35.546875 0.953125 
Q 30.953125 -1.421875 24.3125 -1.421875 
Q 15.921875 -1.421875 10.953125 3.296875 
Q 6 8.015625 6 15.921875 
Q 6 25.140625 12.171875 29.828125 
Q 18.359375 34.515625 30.609375 34.515625 
L 43.21875 34.515625 
L 43.21875 35.40625 
Q 43.21875 41.609375 39.140625 45 
Q 35.0625 48.390625 27.6875 48.390625 
Q 23 48.390625 18.546875 47.265625 
Q 14.109375 46.140625 10.015625 43.890625 
L 10.015625 52.203125 
Q 14.9375 54.109375 19.578125 55.046875 
Q 24.21875 56 28.609375 56 
Q 40.484375 56 46.34375 49.84375 
Q 52.203125 43.703125 52.203125 31.203125 
z
" id="DejaVuSans-61"/>
      <path d="M 9.421875 75.984375 
L 18.40625 75.984375 
L 18.40625 0 
L 9.421875 0 
z
" id="DejaVuSans-6c"/>
     </defs>
     <g transform="translate(171.232656 316.706687)scale(0.1 -0.1)">
      <use xlink:href="#DejaVuSans-41"/>
      <use x="68.408203" xlink:href="#DejaVuSans-6d"/>
      <use x="165.820312" xlink:href="#DejaVuSans-6f"/>
      <use x="227.001953" xlink:href="#DejaVuSans-75"/>
      <use x="290.380859" xlink:href="#DejaVuSans-6e"/>
      <use x="353.759766" xlink:href="#DejaVuSans-74"/>
      <use x="392.96875" xlink:href="#DejaVuSans-20"/>
      <use x="424.755859" xlink:href="#DejaVuSans-6f"/>
      <use x="485.9375" xlink:href="#DejaVuSans-66"/>
      <use x="521.142578" xlink:href="#DejaVuSans-20"/>
      <use x="552.929688" xlink:href="#DejaVuSans-6f"/>
      <use x="614.111328" xlink:href="#DejaVuSans-62"/>
      <use x="677.587891" xlink:href="#DejaVuSans-6a"/>
      <use x="705.371094" xlink:href="#DejaVuSans-65"/>
      <use x="766.894531" xlink:href="#DejaVuSans-63"/>
      <use x="821.875" xlink:href="#DejaVuSans-74"/>
      <use x="861.083984" xlink:href="#DejaVuSans-73"/>
      <use x="913.183594" xlink:href="#DejaVuSans-20"/>
      <use x="944.970703" xlink:href="#DejaVuSans-69"/>
      <use x="972.753906" xlink:href="#DejaVuSans-6e"/>
      <use x="1036.132812" xlink:href="#DejaVuSans-20"/>
      <use x="1067.919922" xlink:href="#DejaVuSans-74"/>
      <use x="1107.128906" xlink:href="#DejaVuSans-61"/>
      <use x="1168.408203" xlink:href="#DejaVuSans-62"/>
      <use x="1231.884766" xlink:href="#DejaVuSans-6c"/>
      <use x="1259.667969" xlink:href="#DejaVuSans-65"/>
     </g>
    </g>
   </g>
   <g id="matplotlib.axis_2">
    <g id="ytick_1">
     <g id="line2d_10">
      <defs>
       <path d="M 0 0 
L -3.5 0 
" id="mc51de50976" style="stroke:#000000;stroke-width:0.8;"/>
      </defs>
      <g>
       <use style="stroke:#000000;stroke-width:0.8;" x="58.73125" xlink:href="#mc51de50976" y="288.430125"/>
      </g>
     </g>
     <g id="text_11">
      <!-- 0 -->
      <g transform="translate(45.36875 292.229344)scale(0.1 -0.1)">
       <use xlink:href="#DejaVuSans-30"/>
      </g>
     </g>
    </g>
    <g id="ytick_2">
     <g id="line2d_11">
      <g>
       <use style="stroke:#000000;stroke-width:0.8;" x="58.73125" xlink:href="#mc51de50976" y="257.410488"/>
      </g>
     </g>
     <g id="text_12">
      <!-- 5 ms -->
      <g transform="translate(27.240625 261.209707)scale(0.1 -0.1)">
       <use xlink:href="#DejaVuSans-35"/>
       <use x="63.623047" xlink:href="#DejaVuSans-20"/>
       <use x="95.410156" xlink:href="#DejaVuSans-6d"/>
       <use x="192.822266" xlink:href="#DejaVuSans-73"/>
      </g>
     </g>
    </g>
    <g id="ytick_3">
     <g id="line2d_12">
      <g>
       <use style="stroke:#000000;stroke-width:0.8;" x="58.73125" xlink:href="#mc51de50976" y="226.390851"/>
      </g>
     </g>
     <g id="text_13">
      <!-- 10 ms -->
      <g transform="translate(20.878125 230.19007)scale(0.1 -0.1)">
       <use xlink:href="#DejaVuSans-31"/>
       <use x="63.623047" xlink:href="#DejaVuSans-30"/>
       <use x="127.246094" xlink:href="#DejaVuSans-20"/>
       <use x="159.033203" xlink:href="#DejaVuSans-6d"/>
       <use x="256.445312" xlink:href="#DejaVuSans-73"/>
      </g>
     </g>
    </g>
    <g id="ytick_4">
     <g id="line2d_13">
      <g>
       <use style="stroke:#000000;stroke-width:0.8;" x="58.73125" xlink:href="#mc51de50976" y="195.371214"/>
      </g>
     </g>
     <g id="text_14">
      <!-- 15 ms -->
      <g transform="translate(20.878125 199.170433)scale(0.1 -0.1)">
       <use xlink:href="#DejaVuSans-31"/>
       <use x="63.623047" xlink:href="#DejaVuSans-35"/>
       <use x="127.246094" xlink:href="#DejaVuSans-20"/>
       <use x="159.033203" xlink:href="#DejaVuSans-6d"/>
       <use x="256.445312" xlink:href="#DejaVuSans-73"/>
      </g>
     </g>
    </g>
    <g id="ytick_5">
     <g id="line2d_14">
      <g>
       <use style="stroke:#000000;stroke-width:0.8;" x="58.73125" xlink:href="#mc51de50976" y="164.351577"/>
      </g>
     </g>
     <g id="text_15">
      <!-- 20 ms -->
      <g transform="translate(20.878125 168.150796)scale(0.1 -0.1)">
       <use xlink:href="#DejaVuSans-32"/>
       <use x="63.623047" xlink:href="#DejaVuSans-30"/>
       <use x="127.246094" xlink:href="#DejaVuSans-20"/>
       <use x="159.033203" xlink:href="#DejaVuSans-6d"/>
       <use x="256.445312" xlink:href="#DejaVuSans-73"/>
      </g>
     </g>
    </g>
    <g id="ytick_6">
     <g id="line2d_15">
      <g>
       <use style="stroke:#000000;stroke-width:0.8;" x="58.73125" xlink:href="#mc51de50976" y="133.33194"/>
      </g>
     </g>
     <g id="text_16">
      <!-- 25 ms -->
      <g transform="translate(20.878125 137.131159)scale(0.1 -0.1)">
       <use xlink:href="#DejaVuSans-32"/>
       <use x="63.623047" xlink:href="#DejaVuSans-35"/>
       <use x="127.246094" xlink:href="#DejaVuSans-20"/>
       <use x="159.033203" xlink:href="#DejaVuSans-6d"/>
       <use x="256.445312" xlink:href="#DejaVuSans-73"/>
      </g>
     </g>
    </g>
    <g id="ytick_7">
     <g id="line2d_16">
      <g>
       <use style="stroke:#000000;stroke-width:0.8;" x="58.73125" xlink:href="#mc51de50976" y="102.312303"/>
      </g>
     </g>
     <g id="text_17">
      <!-- 30 ms -->
      <g transform="translate(20.878125 106.111522)scale(0.1 -0.1)">
       <use xlink:href="#DejaVuSans-33"/>
       <use x="63.623047" xlink:href="#DejaVuSans-30"/>
       <use x="127.246094" xlink:href="#DejaVuSans-20"/>
       <use x="159.033203" xlink:href="#DejaVuSans-6d"/>
       <use x="256.445312" xlink:href="#DejaVuSans-73"/>
      </g>
     </g>
    </g>
    <g id="ytick_8">
     <g id="line2d_17">
      <g>
       <use style="stroke:#000000;stroke-width:0.8;" x="58.73125" xlink:href="#mc51de50976" y="71.292666"/>
      </g>
     </g>
     <g id="text_18">
      <!-- 35 ms -->
      <g transform="translate(20.878125 75.091885)scale(0.1 -0.1)">
       <use xlink:href="#DejaVuSans-33"/>
       <use x="63.623047" xlink:href="#DejaVuSans-35"/>
       <use x="127.246094" xlink:href="#DejaVuSans-20"/>
       <use x="159.033203" xlink:href="#DejaVuSans-6d"/>
       <use x="256.445312" xlink:href="#DejaVuSans-73"/>
      </g>
     </g>
    </g>
    <g id="ytick_9">
     <g id="line2d_18">
      <g>
       <use style="stroke:#000000;stroke-width:0.8;" x="58.73125" xlink:href="#mc51de50976" y="40.273029"/>
      </g>
     </g>
     <g id="text_19">
      <!-- 40 ms -->
      <g transform="translate(20.878125 44.072248)scale(0.1 -0.1)">
       <use xlink:href="#DejaVuSans-34"/>
       <use x="63.623047" xlink:href="#DejaVuSans-30"/>
       <use x="127.246094" xlink:href="#DejaVuSans-20"/>
       <use x="159.033203" xlink:href="#DejaVuSans-6d"/>
       <use x="256.445312" xlink:href="#DejaVuSans-73"/>
      </g>
     </g>
    </g>
    <g id="text_20">
     <!-- Write latency (s) -->
     <defs>
      <path d="M 3.328125 72.90625 
L 13.28125 72.90625 
L 28.609375 11.28125 
L 43.890625 72.90625 
L 54.984375 72.90625 
L 70.3125 11.28125 
L 85.59375 72.90625 
L 95.609375 72.90625 
L 77.296875 0 
L 64.890625 0 
L 49.515625 63.28125 
L 33.984375 0 
L 21.578125 0 
z
" id="DejaVuSans-57"/>
      <path d="M 41.109375 46.296875 
Q 39.59375 47.171875 37.8125 47.578125 
Q 36.03125 48 33.890625 48 
Q 26.265625 48 22.1875 43.046875 
Q 18.109375 38.09375 18.109375 28.8125 
L 18.109375 0 
L 9.078125 0 
L 9.078125 54.6875 
L 18.109375 54.6875 
L 18.109375 46.1875 
Q 20.953125 51.171875 25.484375 53.578125 
Q 30.03125 56 36.53125 56 
Q 37.453125 56 38.578125 55.875 
Q 39.703125 55.765625 41.0625 55.515625 
z
" id="DejaVuSans-72"/>
      <path d="M 32.171875 -5.078125 
Q 28.375 -14.84375 24.75 -17.8125 
Q 21.140625 -20.796875 15.09375 -20.796875 
L 7.90625 -20.796875 
L 7.90625 -13.28125 
L 13.1875 -13.28125 
Q 16.890625 -13.28125 18.9375 -11.515625 
Q 21 -9.765625 23.484375 -3.21875 
L 25.09375 0.875 
L 2.984375 54.6875 
L 12.5 54.6875 
L 29.59375 11.921875 
L 46.6875 54.6875 
L 56.203125 54.6875 
z
" id="DejaVuSans-79"/>
      <path d="M 31 75.875 
Q 24.46875 64.65625 21.28125 53.65625 
Q 18.109375 42.671875 18.109375 31.390625 
Q 18.109375 20.125 21.3125 9.0625 
Q 24.515625 -2 31 -13.1875 
L 23.1875 -13.1875 
Q 15.875 -1.703125 12.234375 9.375 
Q 8.59375 20.453125 8.59375 31.390625 
Q 8.59375 42.28125 12.203125 53.3125 
Q 15.828125 64.359375 23.1875 75.875 
z
" id="DejaVuSans-28"/>
      <path d="M 8.015625 75.875 
L 15.828125 75.875 
Q 23.140625 64.359375 26.78125 53.3125 
Q 30.421875 42.28125 30.421875 31.390625 
Q 30.421875 20.453125 26.78125 9.375 
Q 23.140625 -1.703125 15.828125 -13.1875 
L 8.015625 -13.1875 
Q 14.5 -2 17.703125 9.0625 
Q 20.90625 20.125 20.90625 31.390625 
Q 20.90625 42.671875 17.703125 53.65625 
Q 14.5 64.65625 8.015625 75.875 
z
" id="DejaVuSans-29"/>
     </defs>
     <g transform="translate(14.798437 196.847562)rotate(-90)scale(0.1 -0.1)">
      <use xlink:href="#DejaVuSans-57"/>
      <use x="98.814453" xlink:href="#DejaVuSans-72"/>
      <use x="139.927734" xlink:href="#DejaVuSans-69"/>
      <use x="167.710938" xlink:href="#DejaVuSans-74"/>
      <use x="206.919922" xlink:href="#DejaVuSans-65"/>
      <use x="268.443359" xlink:href="#DejaVuSans-20"/>
      <use x="300.230469" xlink:href="#DejaVuSans-6c"/>
      <use x="328.013672" xlink:href="#DejaVuSans-61"/>
      <use x="389.292969" xlink:href="#DejaVuSans-74"/>
      <use x="428.501953" xlink:href="#DejaVuSans-65"/>
      <use x="490.025391" xlink:href="#DejaVuSans-6e"/>
      <use x="553.404297" xlink:href="#DejaVuSans-63"/>
      <use x="608.384766" xlink:href="#DejaVuSans-79"/>
      <use x="667.564453" xlink:href="#DejaVuSans-20"/>
      <use x="699.351562" xlink:href="#DejaVuSans-28"/>
      <use x="738.365234" xlink:href="#DejaVuSans-73"/>
      <use x="790.464844" xlink:href="#DejaVuSans-29"/>
     </g>
    </g>
   </g>
   <g id="line2d_19">
    <path clip-path="url(#p1ab8aa9aaa)" d="M 89.650731 266.179993 
L 90.521702 265.7476 
L 93.570101 264.540354 
L 94.876558 263.923937 
L 95.312044 263.535876 
L 104.021757 258.838873 
L 105.328214 258.031816 
L 112.295984 253.531833 
L 117.086326 249.938811 
L 118.392783 248.897566 
L 125.360553 244.116738 
L 125.796039 244.037943 
L 127.102496 243.291996 
L 127.973467 243.866976 
L 129.71541 244.812078 
L 133.63478 247.009898 
L 134.941237 248.06416 
L 137.118665 249.563408 
L 138.425122 250.583924 
L 139.296094 251.045307 
L 141.473522 252.651581 
L 148.005806 256.746388 
L 151.054206 258.328129 
L 151.925177 258.621631 
L 153.231634 259.392554 
L 157.151005 260.893471 
L 157.586491 261.189001 
L 158.021976 260.657021 
L 160.199404 258.97508 
L 161.505861 257.846735 
L 164.989746 254.867383 
L 165.860718 254.043592 
L 167.167175 252.92877 
L 169.344603 250.914573 
L 170.215574 250.19263 
L 183.280143 238.466329 
L 184.151115 237.462886 
L 185.893057 236.163511 
L 187.635 234.012537 
L 188.941457 233.049327 
L 190.247914 232.135118 
L 190.683399 231.620929 
L 191.554371 231.071368 
L 191.989856 230.510017 
L 192.425342 230.170239 
L 193.296313 229.147568 
L 194.60277 228.142646 
L 195.038256 227.648109 
L 198.522141 232.328715 
L 199.393112 233.603346 
L 200.264083 234.853402 
L 204.183454 240.796151 
L 208.538311 247.780125 
L 209.409282 249.304412 
L 212.893167 253.826032 
L 215.941566 258.25096 
L 216.377052 258.781377 
L 218.118995 261.772434 
L 220.731908 265.118864 
L 221.60288 266.388762 
L 222.909337 268.395013 
L 223.780308 269.912856 
L 225.086765 271.583937 
L 225.522251 272.342308 
L 226.828707 271.391417 
L 227.264193 271.057662 
L 227.699679 270.540578 
L 228.57065 269.805598 
L 230.748078 267.849531 
L 232.490021 266.160278 
L 238.151334 259.800752 
L 239.022305 258.613347 
L 239.457791 258.029238 
L 244.248133 254.711758 
L 245.119104 254.291156 
L 246.425561 253.518289 
L 249.909446 251.398672 
L 254.264303 248.408502 
L 255.57076 247.758529 
L 256.441731 247.167236 
L 256.877217 246.926814 
L 257.312702 246.45664 
L 257.748188 246.170153 
L 258.183674 246.130998 
L 258.619159 245.785431 
L 259.490131 245.460128 
L 259.925616 244.881534 
L 260.796587 244.332544 
L 261.232073 243.935228 
L 262.53853 243.219053 
L 265.151444 241.510973 
L 265.58693 241.354122 
L 266.457901 240.836954 
L 266.893386 240.656268 
L 267.328872 240.322787 
L 269.070815 239.586813 
L 269.5063 239.27795 
L 270.377272 238.850502 
L 271.248243 238.173693 
L 271.683729 237.766425 
L 272.5547 237.216632 
L 273.861157 236.262444 
L 274.732128 235.741452 
L 275.603099 234.896677 
L 276.474071 234.284084 
L 277.780527 233.072317 
L 280.828927 230.549721 
L 281.264413 230.268137 
L 282.135384 229.522084 
L 283.006355 228.934446 
L 283.441841 228.249439 
L 285.183783 226.731744 
L 285.619269 226.391058 
L 286.054755 225.863029 
L 286.49024 225.584678 
L 287.361212 224.488303 
L 287.796697 224.269307 
L 289.53864 222.597635 
L 289.974125 222.032015 
L 290.409611 221.859971 
L 291.280582 220.946164 
L 291.716068 220.777648 
L 293.022525 219.281126 
L 294.764467 217.789253 
L 295.199953 217.647573 
L 296.070924 216.489709 
L 297.377381 215.532965 
L 298.248353 214.77043 
L 299.55481 213.385921 
L 300.425781 212.708267 
L 301.296752 211.884877 
L 302.167723 211.353552 
L 303.038695 210.512053 
L 303.909666 209.803887 
L 305.216123 208.730713 
L 305.651609 205.570718 
L 306.087094 205.268743 
L 306.52258 204.754913 
L 308.700008 203.135602 
L 310.006465 201.503698 
L 311.748407 199.805591 
L 312.183893 199.465602 
L 313.054864 198.554098 
L 313.49035 198.188964 
L 313.925836 197.989556 
L 315.232293 196.894639 
L 316.974235 194.77143 
L 318.280692 194.061152 
L 319.587149 193.196303 
L 320.022635 192.741048 
L 320.893606 192.315121 
L 322.200063 191.065107 
L 322.635549 190.886196 
L 323.071034 190.368183 
L 323.50652 190.18682 
L 324.377491 189.548004 
L 324.812977 189.015242 
L 325.248462 188.241361 
L 326.119434 187.263824 
L 326.554919 187.035192 
L 330.909776 183.372567 
L 332.651718 180.06544 
L 333.087204 179.544299 
L 333.958175 177.844798 
L 335.700118 174.313456 
L 336.135603 176.648012 
L 337.006575 175.113223 
L 338.313032 173.150288 
L 338.748517 172.694272 
L 339.184003 171.832826 
L 339.619489 171.525019 
L 342.667888 167.848215 
L 343.103374 166.741571 
L 343.974345 165.125302 
L 344.845316 164.384405 
L 345.716287 162.944746 
L 346.587259 162.047673 
L 347.893716 161.020586 
L 348.764687 159.826525 
L 349.635658 158.465851 
L 350.50663 157.362376 
L 350.942115 156.714834 
L 351.377601 156.326202 
L 352.248572 155.894845 
L 353.119543 155.069659 
L 353.555029 154.992871 
L 353.990515 154.466194 
L 354.861486 153.915894 
L 355.296972 153.748393 
L 355.732457 153.915345 
L 356.167943 153.540934 
L 356.603429 153.535736 
L 358.345371 151.247985 
L 360.522799 149.977537 
L 360.958285 149.519239 
L 361.393771 149.305399 
L 362.264742 149.850121 
L 363.571199 149.71273 
L 364.006684 150.118604 
L 364.44217 149.978002 
L 365.313141 150.761519 
L 365.748627 151.040441 
L 366.184113 151.167942 
L 367.055084 150.920547 
L 367.49057 151.113024 
L 367.926055 150.963357 
L 368.361541 151.102586 
L 368.797026 151.122533 
L 369.232512 150.827679 
L 369.667998 151.005491 
L 370.974455 150.95237 
L 371.845426 150.676279 
L 372.716397 150.71499 
L 373.151883 150.52938 
L 373.587369 151.35744 
L 374.45834 151.951248 
L 375.329311 152.056372 
L 375.764797 151.916467 
L 376.635768 152.141464 
L 377.071254 152.027022 
L 378.377711 151.99858 
L 378.813196 151.904656 
L 380.119653 152.058063 
L 380.555139 151.978211 
L 380.990624 151.772696 
L 381.42611 151.944423 
L 382.297081 151.433341 
L 382.732567 151.410921 
L 383.168053 151.536943 
L 384.47451 151.287287 
L 385.345481 150.690838 
L 385.780966 150.760843 
L 386.216452 150.407331 
L 386.651938 150.541847 
L 387.522909 150.241752 
L 387.958395 150.344615 
L 388.829366 150.865946 
L 390.135823 150.793342 
L 390.571309 150.566739 
L 391.006794 150.515159 
L 391.44228 150.667658 
L 392.313251 150.380706 
L 392.748737 150.611007 
L 393.184222 150.504615 
L 393.619708 150.156259 
L 394.055194 150.292635 
L 394.490679 150.168472 
L 394.926165 150.427151 
L 395.361651 150.25012 
L 397.103593 150.121478 
L 397.539079 150.428398 
L 397.974564 150.10956 
L 398.41005 150.366464 
L 398.845536 150.024743 
L 398.845536 150.024743 
" style="fill:none;opacity:0.8;stroke:#1f77b4;stroke-linecap:square;stroke-width:1.5;"/>
   </g>
   <g id="line2d_20">
    <path clip-path="url(#p1ab8aa9aaa)" d="M 89.650731 276.822978 
L 94.876558 276.021289 
L 97.489472 275.340614 
L 103.586271 273.285973 
L 104.892728 272.803903 
L 105.763699 272.670443 
L 107.941127 271.967158 
L 117.086326 269.016375 
L 120.570211 267.955331 
L 122.312154 267.57082 
L 122.747639 267.307957 
L 127.102496 266.534604 
L 128.844438 266.843933 
L 129.71541 266.931709 
L 131.892838 267.296061 
L 134.505752 267.558501 
L 134.941237 267.458512 
L 136.68318 267.605347 
L 144.086436 267.230134 
L 146.263864 267.08856 
L 150.183235 266.745084 
L 151.054206 266.731498 
L 152.796148 266.580351 
L 153.231634 266.710515 
L 153.66712 266.51153 
L 157.586491 266.234932 
L 160.199404 265.365034 
L 164.118775 264.291332 
L 164.989746 264.063123 
L 165.425232 264.128987 
L 168.473632 263.425575 
L 174.570431 263.051376 
L 175.876887 262.861096 
L 180.66723 262.64303 
L 183.715629 262.42881 
L 184.151115 262.565735 
L 188.070485 262.18583 
L 195.909227 261.758404 
L 197.65117 261.451484 
L 198.086655 261.510036 
L 198.957626 261.253893 
L 202.006026 260.115617 
L 203.747968 259.231857 
L 205.489911 258.259032 
L 209.844767 254.931958 
L 211.58671 253.282684 
L 216.812538 247.963431 
L 217.248023 246.477897 
L 218.55448 244.930768 
L 219.425452 243.578186 
L 220.731908 241.774111 
L 221.167394 240.500494 
L 221.60288 239.903791 
L 222.473851 238.48691 
L 225.522251 233.849114 
L 226.828707 231.48356 
L 229.441621 227.434099 
L 230.312593 225.907678 
L 237.280363 214.865771 
L 238.151334 213.15712 
L 242.941676 205.16476 
L 243.377162 204.224074 
L 245.119104 201.517982 
L 245.990076 199.866806 
L 247.296533 197.745182 
L 247.732018 197.982625 
L 248.60299 196.383853 
L 250.344932 193.547787 
L 250.780418 193.043805 
L 251.215903 192.352247 
L 251.651389 192.131772 
L 252.52236 190.942445 
L 253.828817 188.965184 
L 254.264303 188.043009 
L 254.699789 187.406116 
L 255.135274 186.48411 
L 257.312702 183.11674 
L 258.183674 181.488132 
L 259.054645 180.005387 
L 259.925616 178.591041 
L 260.361102 178.183055 
L 261.232073 176.620246 
L 262.53853 174.469399 
L 263.844987 172.136978 
L 264.715958 170.608443 
L 265.58693 168.65637 
L 266.022415 167.980259 
L 266.457901 166.942585 
L 267.328872 165.666982 
L 269.070815 162.87081 
L 269.5063 162.378724 
L 270.377272 160.832017 
L 270.812757 159.739658 
L 271.683729 158.44117 
L 272.5547 156.843729 
L 272.990185 154.924514 
L 273.861157 153.913232 
L 278.651499 145.315272 
L 279.086984 144.798569 
L 279.52247 144.005861 
L 279.957956 143.533553 
L 280.828927 142.057041 
L 281.699898 140.37343 
L 282.57087 139.043395 
L 285.619269 133.985378 
L 286.49024 132.411582 
L 287.361212 131.116222 
L 288.232183 130.176403 
L 290.845097 125.906467 
L 291.716068 124.743426 
L 292.587039 123.469809 
L 293.022525 123.180534 
L 293.893496 122.010287 
L 294.328982 121.444139 
L 294.764467 119.827216 
L 295.199953 119.082029 
L 296.070924 118.43026 
L 297.812867 116.180543 
L 298.248353 115.368479 
L 299.119324 114.39726 
L 299.55481 113.651799 
L 300.425781 112.567427 
L 300.861266 112.011569 
L 301.296752 111.742536 
L 302.167723 110.569141 
L 302.603209 109.196021 
L 303.038695 108.579646 
L 303.47418 109.153126 
L 303.909666 108.292102 
L 304.780637 107.228628 
L 305.651609 106.075497 
L 306.087094 105.398773 
L 306.52258 105.265123 
L 307.393551 104.088242 
L 307.829037 103.137836 
L 308.264522 102.791149 
L 308.700008 102.231826 
L 309.135494 101.402709 
L 310.441951 99.734418 
L 311.748407 98.155234 
L 313.054864 96.624586 
L 313.925836 94.949406 
L 315.232293 92.509135 
L 315.667778 92.031544 
L 316.103264 91.246189 
L 316.53875 90.949856 
L 316.974235 90.427955 
L 317.409721 88.76184 
L 317.845206 88.1738 
L 318.280692 86.794362 
L 318.716178 85.968267 
L 319.151663 85.572261 
L 319.587149 84.45763 
L 320.45812 83.112592 
L 323.071034 77.726293 
L 323.50652 76.516109 
L 324.812977 73.996388 
L 325.248462 73.729616 
L 325.683948 73.166003 
L 326.119434 72.151594 
L 326.554919 71.740606 
L 326.990405 70.137566 
L 327.425891 69.51557 
L 328.296862 67.681954 
L 328.732347 67.181606 
L 330.909776 63.450687 
L 331.345261 62.117778 
L 331.780747 61.304382 
L 332.216233 60.822545 
L 332.651718 59.796598 
L 333.087204 60.037126 
L 333.958175 58.244524 
L 335.700118 55.362457 
L 336.571089 54.276965 
L 337.006575 53.303929 
L 337.44206 52.686624 
L 337.877546 51.824206 
L 338.313032 51.381311 
L 338.748517 50.462644 
L 339.184003 49.931636 
L 339.619489 49.940405 
L 341.796917 47.714016 
L 342.232402 47.121307 
L 342.667888 46.932633 
L 343.103374 46.609401 
L 343.538859 45.932656 
L 343.974345 45.758731 
L 344.409831 45.198436 
L 345.280802 44.7185 
L 346.151773 43.806151 
L 346.587259 43.798375 
L 347.022744 43.124863 
L 347.45823 42.664007 
L 347.893716 43.17435 
L 348.329201 42.656696 
L 348.764687 42.925328 
L 349.200173 42.78257 
L 349.635658 42.001631 
L 350.071144 42.171689 
L 350.50663 41.835504 
L 351.377601 41.46029 
L 351.813086 41.106609 
L 352.248572 41.376931 
L 353.555029 40.856593 
L 353.990515 40.990032 
L 354.861486 40.937607 
L 355.296972 40.835928 
L 355.732457 41.131057 
L 356.167943 41.159245 
L 356.603429 40.571079 
L 357.038914 39.63631 
L 357.4744 40.32979 
L 357.909885 39.887424 
L 358.345371 40.267096 
L 358.780857 39.84903 
L 359.216342 39.885311 
L 359.651828 40.166811 
L 360.087314 39.686473 
L 360.522799 39.662976 
L 360.958285 39.2163 
L 361.393771 39.157494 
L 361.829256 39.750055 
L 363.571199 40.081845 
L 364.006684 40.596435 
L 364.44217 40.293699 
L 365.313141 40.925077 
L 365.748627 40.492389 
L 366.619598 40.338136 
L 367.055084 40.384877 
L 367.49057 40.20269 
L 367.926055 40.189632 
L 369.232512 40.562394 
L 369.667998 40.460778 
L 370.103483 39.443769 
L 370.538969 38.932285 
L 370.974455 38.623823 
L 371.40994 38.481087 
L 371.845426 38.537019 
L 372.716397 38.411694 
L 373.151883 38.029466 
L 373.587369 38.114938 
L 374.45834 38.511388 
L 374.893825 38.613659 
L 375.329311 37.895752 
L 375.764797 37.725737 
L 376.200282 36.502622 
L 377.071254 36.601089 
L 377.506739 36.549933 
L 377.942225 36.665305 
L 378.377711 36.628728 
L 378.813196 36.289944 
L 379.248682 36.2682 
L 379.684168 36.071074 
L 380.119653 36.255564 
L 380.555139 36.220953 
L 380.990624 36.070821 
L 381.42611 36.129754 
L 381.861596 35.536706 
L 382.297081 35.378693 
L 382.732567 35.559062 
L 383.603538 35.502327 
L 384.039024 36.049564 
L 384.47451 35.562612 
L 384.909995 35.413579 
L 385.345481 35.626342 
L 386.216452 35.599189 
L 386.651938 34.990125 
L 387.087423 35.46463 
L 387.522909 36.240688 
L 387.958395 36.230018 
L 388.39388 36.427777 
L 388.829366 36.201407 
L 389.264852 36.811443 
L 389.700337 36.931253 
L 390.135823 36.118554 
L 390.571309 36.533747 
L 391.44228 36.71961 
L 391.877765 36.690809 
L 392.313251 36.529838 
L 393.184222 36.608041 
L 394.926165 36.550334 
L 395.361651 36.848802 
L 395.797136 36.819895 
L 396.232622 37.327597 
L 396.668108 37.266847 
L 397.103593 36.755659 
L 397.974564 36.486605 
L 398.41005 36.216727 
L 398.845536 36.104334 
L 398.845536 36.104334 
" style="fill:none;opacity:0.8;stroke:#ff7f0e;stroke-linecap:square;stroke-width:1.5;"/>
   </g>
   <g id="line2d_21">
    <path clip-path="url(#p1ab8aa9aaa)" d="M 89.650731 285.605512 
L 97.924958 285.556003 
L 100.973357 285.586495 
L 131.021866 285.542543 
L 136.247694 285.475327 
L 151.925177 285.462248 
L 160.199404 285.4737 
L 164.989746 285.442808 
L 169.344603 285.463642 
L 175.876887 285.478349 
L 190.247914 285.46491 
L 208.538311 285.498486 
L 216.377052 285.420071 
L 232.054535 285.332084 
L 257.312702 285.177494 
L 263.409501 285.204731 
L 271.248243 285.25893 
L 275.603099 285.268904 
L 281.699898 285.274694 
L 323.071034 285.143495 
L 334.829146 285.118244 
L 343.538859 285.089697 
L 386.216452 285.058762 
L 389.264852 285.060346 
L 398.845536 285.099332 
L 398.845536 285.099332 
" style="fill:none;opacity:0.8;stroke:#2ca02c;stroke-linecap:square;stroke-width:1.5;"/>
   </g>
   <g id="line2d_22">
    <path clip-path="url(#p1ab8aa9aaa)" d="M 157.586491 198.214004 
L 158.021976 197.913951 
L 159.328433 197.75019 
L 160.199404 197.28625 
L 161.070376 197.284644 
L 161.505861 196.867149 
L 162.376833 196.60361 
L 162.812318 196.557397 
L 163.247804 196.382501 
L 163.68329 196.354144 
L 164.118775 196.607498 
L 164.989746 196.504888 
L 165.425232 196.646758 
L 167.167175 196.555369 
L 168.473632 196.236341 
L 171.086545 196.087583 
L 171.522031 196.259078 
L 171.957517 196.130372 
L 173.263974 196.362807 
L 176.312373 196.093901 
L 176.747859 196.123484 
L 177.183344 195.963082 
L 177.61883 195.972887 
L 178.054316 195.82901 
L 179.360773 195.991228 
L 180.231744 196.109559 
L 180.66723 196.070362 
L 181.102715 195.817303 
L 182.409172 195.942522 
L 185.893057 195.715814 
L 186.328543 196.549431 
L 186.764028 196.346642 
L 187.199514 196.31801 
L 187.635 196.951565 
L 188.941457 196.868416 
L 189.376942 196.852357 
L 189.812428 196.69316 
L 191.118885 196.798876 
L 191.554371 196.754946 
L 191.989856 197.174808 
L 192.860827 197.223936 
L 195.038256 197.159869 
L 197.215684 196.189791 
L 198.086655 196.084308 
L 198.957626 196.068861 
L 199.828598 195.790658 
L 200.699569 195.554166 
L 202.006026 195.025207 
L 202.441512 195.118076 
L 204.61894 194.364141 
L 205.489911 193.831041 
L 205.925397 193.761458 
L 207.231854 193.306372 
L 207.667339 193.264238 
L 208.538311 192.970799 
L 208.973796 192.871401 
L 210.280253 192.058893 
L 212.022196 191.590495 
L 213.328653 190.791975 
L 213.764138 190.282435 
L 215.070595 189.841844 
L 215.941566 189.459742 
L 216.377052 189.270836 
L 217.683509 189.086177 
L 220.296423 187.985513 
L 221.167394 187.572286 
L 222.038365 187.132392 
L 222.909337 186.53888 
L 224.651279 185.883688 
L 225.086765 185.5811 
L 225.522251 185.453324 
L 227.264193 185.591602 
L 228.57065 185.177149 
L 229.441621 184.918217 
L 230.312593 185.041745 
L 231.183564 185.126648 
L 231.61905 185.22744 
L 234.231963 184.939981 
L 235.102935 185.12276 
L 235.973906 185.310947 
L 237.715849 185.299854 
L 238.151334 185.168127 
L 238.58682 184.813473 
L 239.893277 184.707927 
L 240.764248 184.957181 
L 241.635219 184.876188 
L 243.377162 185.303446 
L 243.812647 185.281428 
L 244.248133 185.766351 
L 248.60299 185.620361 
L 249.473961 185.800836 
L 251.651389 185.686478 
L 252.086875 185.844703 
L 253.393332 185.843561 
L 255.135274 185.502558 
L 255.57076 185.090726 
L 256.877217 185.126077 
L 257.312702 185.047768 
L 258.183674 185.153547 
L 259.054645 185.020446 
L 259.925616 185.047789 
L 260.361102 184.801112 
L 262.103044 184.42911 
L 262.53853 184.481598 
L 262.974016 184.389512 
L 264.280473 185.29848 
L 265.151444 185.622009 
L 266.457901 185.985516 
L 268.199843 186.351495 
L 268.635329 186.516123 
L 269.070815 187.160749 
L 269.5063 187.368229 
L 269.941786 187.363306 
L 270.377272 187.647595 
L 270.812757 187.795825 
L 271.248243 187.679523 
L 271.683729 187.734885 
L 272.5547 188.037578 
L 272.990185 188.054631 
L 273.425671 187.937843 
L 274.296642 188.59071 
L 274.732128 188.499744 
L 275.603099 188.74828 
L 276.909556 189.499763 
L 277.780527 189.575833 
L 278.216013 189.528015 
L 278.651499 189.761823 
L 279.957956 189.498749 
L 280.393441 189.567782 
L 280.828927 189.756879 
L 281.264413 189.788046 
L 281.699898 190.122731 
L 283.006355 190.149588 
L 283.441841 190.410042 
L 284.748298 190.744622 
L 285.183783 190.97469 
L 286.054755 191.833516 
L 287.361212 191.702845 
L 288.232183 191.936569 
L 289.103154 192.384366 
L 289.53864 192.447123 
L 289.974125 192.341112 
L 290.845097 192.561587 
L 291.280582 192.729067 
L 291.716068 192.765327 
L 292.151554 192.660752 
L 292.587039 192.746394 
L 293.022525 192.64203 
L 293.458011 192.87624 
L 294.328982 192.223732 
L 295.199953 191.939697 
L 295.635439 191.942338 
L 296.070924 191.792713 
L 296.941896 191.962581 
L 297.377381 191.882391 
L 297.812867 192.043151 
L 298.248353 192.060457 
L 299.119324 191.870262 
L 299.990295 191.431277 
L 300.425781 191.550727 
L 300.861266 191.448202 
L 301.732238 191.096486 
L 302.167723 191.020881 
L 303.038695 190.660924 
L 304.345152 190.736634 
L 304.780637 190.578621 
L 305.216123 190.740226 
L 306.087094 190.718124 
L 306.958065 190.356624 
L 307.393551 190.373529 
L 307.829037 190.560554 
L 308.264522 190.597723 
L 308.700008 190.828383 
L 309.135494 190.66141 
L 310.441951 191.055598 
L 310.877436 190.893803 
L 311.312922 190.870453 
L 311.748407 191.078779 
L 312.183893 191.025149 
L 313.49035 191.415809 
L 313.925836 191.354911 
L 314.361321 190.743333 
L 315.232293 190.837131 
L 316.53875 190.315864 
L 316.974235 190.412303 
L 318.280692 190.228891 
L 319.151663 189.820798 
L 319.587149 189.833772 
L 320.022635 189.991955 
L 321.329092 189.957724 
L 321.764577 189.776572 
L 322.200063 189.775981 
L 322.635549 189.992758 
L 323.50652 190.197153 
L 323.942005 190.050782 
L 324.377491 190.207464 
L 325.683948 190.251162 
L 326.554919 190.118928 
L 326.990405 189.927655 
L 327.861376 189.967697 
L 328.732347 189.718569 
L 330.038804 190.166154 
L 330.909776 190.124379 
L 331.780747 190.363238 
L 332.216233 190.719033 
L 332.651718 190.656022 
L 333.52269 191.042054 
L 334.393661 191.048245 
L 335.700118 190.859677 
L 337.44206 190.868108 
L 337.877546 190.693232 
L 340.925945 190.866481 
L 341.361431 191.101663 
L 342.667888 190.772852 
L 343.103374 190.773697 
L 343.538859 190.640343 
L 343.974345 190.859064 
L 344.409831 190.778599 
L 344.845316 191.460965 
L 345.716287 191.452323 
L 346.151773 191.583184 
L 346.587259 191.543965 
L 347.022744 191.917467 
L 347.45823 191.891963 
L 347.893716 192.120637 
L 348.329201 192.140288 
L 350.071144 192.927503 
L 350.50663 192.79903 
L 351.377601 192.885855 
L 352.248572 193.063076 
L 353.119543 193.047503 
L 354.861486 193.549921 
L 355.732457 193.708674 
L 356.167943 193.572151 
L 356.603429 193.571538 
L 357.4744 193.922198 
L 358.780857 194.025568 
L 359.216342 194.15421 
L 360.087314 193.933672 
L 360.522799 193.81887 
L 360.958285 194.108716 
L 361.393771 194.08841 
L 361.829256 193.899356 
L 363.135713 193.91009 
L 363.571199 193.712182 
L 365.313141 193.791295 
L 365.748627 193.74616 
L 366.184113 193.922705 
L 369.232512 193.825695 
L 369.667998 193.620708 
L 370.974455 193.79159 
L 371.845426 193.764205 
L 373.151883 194.114252 
L 373.587369 194.009002 
L 374.022854 194.057876 
L 374.45834 193.810692 
L 376.200282 194.228948 
L 377.942225 194.304743 
L 378.377711 194.176228 
L 378.813196 194.238499 
L 379.248682 194.095996 
L 380.990624 194.08131 
L 382.297081 194.526888 
L 382.732567 194.54992 
L 383.168053 193.99345 
L 383.603538 193.971558 
L 384.039024 193.782082 
L 384.47451 193.796345 
L 384.909995 193.551231 
L 386.651938 193.532869 
L 387.087423 193.649298 
L 388.39388 193.12558 
L 388.829366 192.973314 
L 389.264852 193.075099 
L 390.135823 192.973271 
L 391.006794 193.401015 
L 392.313251 193.267872 
L 395.361651 193.422906 
L 397.103593 193.912118 
L 397.539079 193.855193 
L 397.974564 193.931939 
L 398.41005 194.1357 
L 398.845536 194.121458 
L 398.845536 194.121458 
" style="fill:none;opacity:0.8;stroke:#d62728;stroke-linecap:square;stroke-width:1.5;"/>
   </g>
   <g id="line2d_23">
    <path clip-path="url(#p1ab8aa9aaa)" d="M 157.586491 204.611776 
L 159.328433 202.589993 
L 161.070376 200.849457 
L 161.505861 200.482188 
L 161.941347 199.748666 
L 162.376833 199.341672 
L 162.812318 198.747738 
L 163.247804 197.641411 
L 164.118775 196.493858 
L 164.989746 195.286464 
L 166.296203 193.718225 
L 169.344603 189.775748 
L 171.086545 188.040156 
L 171.522031 187.448229 
L 172.393002 187.294505 
L 172.828488 187.175076 
L 173.263974 187.238129 
L 176.747859 186.495119 
L 178.054316 186.021015 
L 181.973686 183.958239 
L 183.280143 183.433338 
L 185.457572 181.991523 
L 185.893057 181.936266 
L 186.328543 181.567477 
L 186.764028 181.049126 
L 187.199514 180.968365 
L 188.070485 180.340854 
L 188.505971 180.007542 
L 188.941457 179.398077 
L 189.376942 179.159007 
L 190.247914 178.343139 
L 191.989856 176.889448 
L 192.425342 176.944071 
L 193.296313 176.221219 
L 193.731799 176.606364 
L 194.60277 175.802181 
L 195.038256 175.668996 
L 195.473741 176.324505 
L 195.909227 176.271214 
L 196.344713 176.367273 
L 196.780198 176.321229 
L 197.65117 176.574478 
L 198.086655 176.44835 
L 198.957626 176.681166 
L 200.699569 176.977774 
L 201.57054 176.898682 
L 202.006026 176.897563 
L 202.441512 176.725032 
L 203.312483 177.062401 
L 203.747968 176.98145 
L 204.183454 176.551911 
L 205.489911 176.883638 
L 206.796368 176.777668 
L 208.102825 177.193664 
L 208.973796 177.737244 
L 209.409282 177.778597 
L 209.844767 178.095553 
L 210.280253 178.246615 
L 211.151224 178.255553 
L 212.893167 178.736757 
L 215.506081 178.342463 
L 215.941566 178.463118 
L 216.377052 178.33344 
L 216.812538 178.392732 
L 217.248023 178.678521 
L 218.118995 178.579948 
L 218.55448 178.816905 
L 218.989966 178.875373 
L 219.425452 179.207248 
L 219.860937 178.803128 
L 220.296423 179.152372 
L 221.60288 179.474041 
L 222.038365 179.29103 
L 223.344822 179.303011 
L 224.215794 179.5316 
L 224.651279 179.521267 
L 225.086765 179.723105 
L 225.522251 179.653819 
L 225.957736 178.786815 
L 226.828707 178.110788 
L 227.699679 177.165539 
L 228.135164 176.886744 
L 228.57065 176.822613 
L 229.006136 176.03375 
L 229.441621 175.59168 
L 229.877107 174.579911 
L 230.748078 174.32026 
L 231.183564 173.827836 
L 232.054535 173.267584 
L 233.360992 171.775668 
L 233.796478 171.524998 
L 234.231963 170.839927 
L 234.667449 170.69212 
L 235.53842 169.694107 
L 238.58682 166.588269 
L 239.457791 165.483928 
L 239.893277 165.08676 
L 240.328762 164.852614 
L 240.764248 164.201648 
L 241.635219 163.520191 
L 242.070705 162.840361 
L 242.941676 161.948741 
L 243.377162 161.460881 
L 244.248133 160.846978 
L 244.683619 160.433751 
L 245.119104 160.21279 
L 245.55459 158.32172 
L 245.990076 158.195106 
L 246.425561 157.734948 
L 246.861047 157.561489 
L 247.296533 157.156608 
L 247.732018 156.981077 
L 249.038475 155.800139 
L 249.473961 155.721998 
L 249.909446 155.48352 
L 250.344932 155.485105 
L 250.780418 154.837773 
L 251.215903 154.580088 
L 252.086875 153.351965 
L 252.52236 152.541295 
L 252.957846 152.116404 
L 253.828817 150.975148 
L 254.264303 150.688746 
L 254.699789 150.123697 
L 256.006245 148.913513 
L 256.441731 148.445009 
L 256.877217 148.271211 
L 257.312702 147.712332 
L 258.183674 146.994636 
L 259.054645 146.199814 
L 259.490131 146.096719 
L 259.925616 145.575198 
L 260.361102 145.712314 
L 261.232073 144.375855 
L 261.667559 144.002395 
L 262.53853 143.030627 
L 262.974016 143.119903 
L 263.844987 143.695539 
L 264.280473 143.589253 
L 265.151444 144.334777 
L 266.022415 144.959076 
L 266.457901 144.969557 
L 267.328872 145.420058 
L 267.764358 145.870369 
L 268.199843 145.997152 
L 269.5063 147.178175 
L 269.941786 147.312459 
L 270.377272 147.621091 
L 270.812757 147.743605 
L 271.683729 148.533842 
L 272.119214 148.72989 
L 272.5547 149.337517 
L 274.296642 150.425313 
L 275.167614 151.334239 
L 275.603099 151.345311 
L 276.038585 153.251426 
L 276.474071 153.366756 
L 276.909556 153.70852 
L 277.345042 153.822962 
L 279.086984 155.244725 
L 279.52247 155.470736 
L 279.957956 155.539558 
L 281.264413 156.716334 
L 281.699898 156.896133 
L 282.57087 157.928947 
L 283.006355 159.044804 
L 283.441841 159.501496 
L 284.312812 160.67356 
L 284.748298 160.829883 
L 287.361212 163.293144 
L 288.667669 165.557188 
L 289.103154 166.064931 
L 289.53864 166.249041 
L 290.845097 167.808193 
L 291.280582 168.658567 
L 292.587039 170.39585 
L 293.022525 171.330555 
L 293.458011 171.611463 
L 293.893496 171.702472 
L 295.199953 171.458077 
L 295.635439 171.709593 
L 296.50641 171.859852 
L 297.377381 172.04842 
L 297.812867 171.987776 
L 298.248353 171.359123 
L 298.683838 171.44523 
L 299.119324 171.240962 
L 299.55481 170.874328 
L 299.990295 170.801026 
L 300.425781 170.873377 
L 300.861266 169.850367 
L 301.296752 169.86351 
L 302.167723 169.589089 
L 303.038695 169.52107 
L 303.909666 169.595978 
L 304.345152 169.58275 
L 304.780637 169.788286 
L 305.216123 169.593864 
L 305.651609 169.564662 
L 306.087094 169.810578 
L 308.264522 169.698608 
L 308.700008 169.800605 
L 309.135494 169.780953 
L 309.570979 169.475809 
L 310.006465 169.396485 
L 310.441951 169.583109 
L 311.312922 169.324071 
L 312.183893 169.335925 
L 312.619379 168.805276 
L 313.054864 168.824695 
L 313.49035 169.179771 
L 314.361321 169.274626 
L 314.796807 169.421651 
L 315.232293 169.724134 
L 315.667778 169.665243 
L 316.53875 169.934678 
L 317.845206 170.051994 
L 318.280692 169.964598 
L 319.151663 169.408191 
L 319.587149 169.593505 
L 320.022635 169.641831 
L 320.45812 169.529691 
L 321.329092 169.950758 
L 322.200063 169.859094 
L 322.635549 169.954773 
L 323.071034 169.829955 
L 323.50652 169.47416 
L 323.942005 169.325466 
L 324.377491 169.63883 
L 324.812977 169.66032 
L 325.248462 170.085464 
L 325.683948 170.09155 
L 326.119434 169.849839 
L 327.425891 169.534932 
L 327.861376 169.234309 
L 328.296862 169.37003 
L 329.167833 169.825581 
L 329.603319 170.012015 
L 330.038804 170.018037 
L 330.909776 170.183636 
L 331.345261 171.699683 
L 331.780747 172.156713 
L 334.829146 176.735661 
L 335.264632 177.016168 
L 336.135603 178.280381 
L 337.44206 180.002957 
L 339.184003 182.36849 
L 339.619489 182.83281 
L 340.49046 184.380891 
L 340.925945 184.631709 
L 341.361431 185.160689 
L 342.667888 187.250004 
L 343.103374 188.480261 
L 344.845316 190.649408 
L 345.280802 190.467855 
L 346.587259 190.471637 
L 347.022744 190.200851 
L 347.45823 190.169451 
L 347.893716 190.015431 
L 348.764687 189.968648 
L 349.200173 190.214036 
L 350.071144 190.186271 
L 350.50663 190.178051 
L 351.377601 190.358526 
L 351.813086 190.146778 
L 352.248572 189.725711 
L 354.426 189.82775 
L 354.861486 189.558126 
L 355.296972 189.592716 
L 356.603429 189.235612 
L 357.038914 189.241824 
L 357.4744 189.130171 
L 358.345371 189.554174 
L 358.780857 189.36774 
L 359.216342 189.610994 
L 359.651828 189.662996 
L 360.087314 189.429927 
L 360.522799 189.617523 
L 361.393771 189.382003 
L 364.006684 185.71175 
L 364.44217 184.821904 
L 365.313141 182.482552 
L 365.748627 181.797904 
L 367.055084 178.943392 
L 368.361541 176.48611 
L 369.667998 174.476161 
L 370.103483 173.996986 
L 370.538969 172.975962 
L 371.845426 170.883667 
L 372.280912 169.910399 
L 373.151883 168.462646 
L 375.329311 164.23009 
L 375.764797 163.710344 
L 376.200282 163.384998 
L 376.635768 163.492447 
L 377.071254 162.87362 
L 377.942225 162.780499 
L 378.377711 162.643763 
L 379.248682 161.973252 
L 380.119653 161.194574 
L 380.990624 160.241168 
L 381.42611 159.970656 
L 384.039024 157.453913 
L 384.909995 156.759017 
L 385.345481 156.15906 
L 385.780966 156.066953 
L 386.216452 155.315089 
L 386.651938 155.118027 
L 387.087423 154.29041 
L 388.829366 152.755917 
L 389.264852 151.49969 
L 390.135823 150.618466 
L 390.571309 150.455339 
L 391.006794 149.790702 
L 391.877765 148.997127 
L 392.748737 148.055723 
L 393.184222 147.854878 
L 394.055194 146.966511 
L 394.490679 146.215747 
L 394.926165 145.964019 
L 395.361651 146.010126 
L 395.797136 145.873475 
L 396.668108 145.054755 
L 397.103593 145.263608 
L 397.539079 144.695516 
L 398.845536 144.204571 
L 398.845536 144.204571 
" style="fill:none;opacity:0.8;stroke:#9467bd;stroke-linecap:square;stroke-width:1.5;"/>
   </g>
   <g id="patch_3">
    <path d="M 58.73125 288.430125 
L 58.73125 22.318125 
" style="fill:none;stroke:#000000;stroke-linecap:square;stroke-linejoin:miter;stroke-width:0.8;"/>
   </g>
   <g id="patch_4">
    <path d="M 415.85125 288.430125 
L 415.85125 22.318125 
" style="fill:none;stroke:#000000;stroke-linecap:square;stroke-linejoin:miter;stroke-width:0.8;"/>
   </g>
   <g id="patch_5">
    <path d="M 58.73125 288.430125 
L 415.85125 288.430125 
" style="fill:none;stroke:#000000;stroke-linecap:square;stroke-linejoin:miter;stroke-width:0.8;"/>
   </g>
   <g id="patch_6">
    <path d="M 58.73125 22.318125 
L 415.85125 22.318125 
" style="fill:none;stroke:#000000;stroke-linecap:square;stroke-linejoin:miter;stroke-width:0.8;"/>
   </g>
   <g id="text_21">
    <!-- Move [root to branch] -->
    <defs>
     <path d="M 9.8125 72.90625 
L 24.515625 72.90625 
L 43.109375 23.296875 
L 61.8125 72.90625 
L 76.515625 72.90625 
L 76.515625 0 
L 66.890625 0 
L 66.890625 64.015625 
L 48.09375 14.015625 
L 38.1875 14.015625 
L 19.390625 64.015625 
L 19.390625 0 
L 9.8125 0 
z
" id="DejaVuSans-4d"/>
     <path d="M 2.984375 54.6875 
L 12.5 54.6875 
L 29.59375 8.796875 
L 46.6875 54.6875 
L 56.203125 54.6875 
L 35.6875 0 
L 23.484375 0 
z
" id="DejaVuSans-76"/>
     <path d="M 8.59375 75.984375 
L 29.296875 75.984375 
L 29.296875 69 
L 17.578125 69 
L 17.578125 -6.203125 
L 29.296875 -6.203125 
L 29.296875 -13.1875 
L 8.59375 -13.1875 
z
" id="DejaVuSans-5b"/>
     <path d="M 54.890625 33.015625 
L 54.890625 0 
L 45.90625 0 
L 45.90625 32.71875 
Q 45.90625 40.484375 42.875 44.328125 
Q 39.84375 48.1875 33.796875 48.1875 
Q 26.515625 48.1875 22.3125 43.546875 
Q 18.109375 38.921875 18.109375 30.90625 
L 18.109375 0 
L 9.078125 0 
L 9.078125 75.984375 
L 18.109375 75.984375 
L 18.109375 46.1875 
Q 21.34375 51.125 25.703125 53.5625 
Q 30.078125 56 35.796875 56 
Q 45.21875 56 50.046875 50.171875 
Q 54.890625 44.34375 54.890625 33.015625 
z
" id="DejaVuSans-68"/>
     <path d="M 30.421875 75.984375 
L 30.421875 -13.1875 
L 9.71875 -13.1875 
L 9.71875 -6.203125 
L 21.390625 -6.203125 
L 21.390625 69 
L 9.71875 69 
L 9.71875 75.984375 
z
" id="DejaVuSans-5d"/>
    </defs>
    <g transform="translate(171.758125 16.318125)scale(0.12 -0.12)">
     <use xlink:href="#DejaVuSans-4d"/>
     <use x="86.279297" xlink:href="#DejaVuSans-6f"/>
     <use x="147.460938" xlink:href="#DejaVuSans-76"/>
     <use x="206.640625" xlink:href="#DejaVuSans-65"/>
     <use x="268.164062" xlink:href="#DejaVuSans-20"/>
     <use x="299.951172" xlink:href="#DejaVuSans-5b"/>
     <use x="338.964844" xlink:href="#DejaVuSans-72"/>
     <use x="380.046875" xlink:href="#DejaVuSans-6f"/>
     <use x="441.228516" xlink:href="#DejaVuSans-6f"/>
     <use x="502.410156" xlink:href="#DejaVuSans-74"/>
     <use x="541.619141" xlink:href="#DejaVuSans-20"/>
     <use x="573.40625" xlink:href="#DejaVuSans-74"/>
     <use x="612.615234" xlink:href="#DejaVuSans-6f"/>
     <use x="673.796875" xlink:href="#DejaVuSans-20"/>
     <use x="705.583984" xlink:href="#DejaVuSans-62"/>
     <use x="769.060547" xlink:href="#DejaVuSans-72"/>
     <use x="810.173828" xlink:href="#DejaVuSans-61"/>
     <use x="871.453125" xlink:href="#DejaVuSans-6e"/>
     <use x="934.832031" xlink:href="#DejaVuSans-63"/>
     <use x="989.8125" xlink:href="#DejaVuSans-68"/>
     <use x="1053.191406" xlink:href="#DejaVuSans-5d"/>
    </g>
   </g>
   <g id="legend_1">
    <g id="patch_7">
     <path d="M 89.251563 365.802375 
L 377.810938 365.802375 
Q 379.810938 365.802375 379.810938 363.802375 
L 379.810938 335.446125 
Q 379.810938 333.446125 377.810938 333.446125 
L 89.251563 333.446125 
Q 87.251563 333.446125 87.251563 335.446125 
L 87.251563 363.802375 
Q 87.251563 365.802375 89.251563 365.802375 
z
" style="fill:#4c4c4c;opacity:0.5;stroke:#4c4c4c;stroke-linejoin:miter;"/>
    </g>
    <g id="patch_8">
     <path d="M 87.251563 363.802375 
L 375.810938 363.802375 
Q 377.810938 363.802375 377.810938 361.802375 
L 377.810938 333.446125 
Q 377.810938 331.446125 375.810938 331.446125 
L 87.251563 331.446125 
Q 85.251563 331.446125 85.251563 333.446125 
L 85.251563 361.802375 
Q 85.251563 363.802375 87.251563 363.802375 
z
" style="fill:#ffffff;stroke:#cccccc;stroke-linejoin:miter;"/>
    </g>
    <g id="line2d_24">
     <path d="M 89.251563 339.544562 
L 109.251563 339.544562 
" style="fill:none;opacity:0.8;stroke:#1f77b4;stroke-linecap:square;stroke-width:1.5;"/>
    </g>
    <g id="line2d_25"/>
    <g id="text_22">
     <!-- MPTT -->
     <defs>
      <path d="M 19.671875 64.796875 
L 19.671875 37.40625 
L 32.078125 37.40625 
Q 38.96875 37.40625 42.71875 40.96875 
Q 46.484375 44.53125 46.484375 51.125 
Q 46.484375 57.671875 42.71875 61.234375 
Q 38.96875 64.796875 32.078125 64.796875 
z
M 9.8125 72.90625 
L 32.078125 72.90625 
Q 44.34375 72.90625 50.609375 67.359375 
Q 56.890625 61.8125 56.890625 51.125 
Q 56.890625 40.328125 50.609375 34.8125 
Q 44.34375 29.296875 32.078125 29.296875 
L 19.671875 29.296875 
L 19.671875 0 
L 9.8125 0 
z
" id="DejaVuSans-50"/>
      <path d="M -0.296875 72.90625 
L 61.375 72.90625 
L 61.375 64.59375 
L 35.5 64.59375 
L 35.5 0 
L 25.59375 0 
L 25.59375 64.59375 
L -0.296875 64.59375 
z
" id="DejaVuSans-54"/>
     </defs>
     <g transform="translate(117.251563 343.044562)scale(0.1 -0.1)">
      <use xlink:href="#DejaVuSans-4d"/>
      <use x="86.279297" xlink:href="#DejaVuSans-50"/>
      <use x="146.582031" xlink:href="#DejaVuSans-54"/>
      <use x="207.650391" xlink:href="#DejaVuSans-54"/>
     </g>
    </g>
    <g id="line2d_26">
     <path d="M 89.251563 354.222687 
L 109.251563 354.222687 
" style="fill:none;opacity:0.8;stroke:#ff7f0e;stroke-linecap:square;stroke-width:1.5;"/>
    </g>
    <g id="line2d_27"/>
    <g id="text_23">
     <!-- tree -->
     <g transform="translate(117.251563 357.722687)scale(0.1 -0.1)">
      <use xlink:href="#DejaVuSans-74"/>
      <use x="39.208984" xlink:href="#DejaVuSans-72"/>
      <use x="80.291016" xlink:href="#DejaVuSans-65"/>
      <use x="141.814453" xlink:href="#DejaVuSans-65"/>
     </g>
    </g>
    <g id="line2d_28">
     <path d="M 164.123438 339.544562 
L 184.123438 339.544562 
" style="fill:none;opacity:0.8;stroke:#2ca02c;stroke-linecap:square;stroke-width:1.5;"/>
    </g>
    <g id="line2d_29"/>
    <g id="text_24">
     <!-- treebeard AL -->
     <defs>
      <path d="M 45.40625 46.390625 
L 45.40625 75.984375 
L 54.390625 75.984375 
L 54.390625 0 
L 45.40625 0 
L 45.40625 8.203125 
Q 42.578125 3.328125 38.25 0.953125 
Q 33.9375 -1.421875 27.875 -1.421875 
Q 17.96875 -1.421875 11.734375 6.484375 
Q 5.515625 14.40625 5.515625 27.296875 
Q 5.515625 40.1875 11.734375 48.09375 
Q 17.96875 56 27.875 56 
Q 33.9375 56 38.25 53.625 
Q 42.578125 51.265625 45.40625 46.390625 
z
M 14.796875 27.296875 
Q 14.796875 17.390625 18.875 11.75 
Q 22.953125 6.109375 30.078125 6.109375 
Q 37.203125 6.109375 41.296875 11.75 
Q 45.40625 17.390625 45.40625 27.296875 
Q 45.40625 37.203125 41.296875 42.84375 
Q 37.203125 48.484375 30.078125 48.484375 
Q 22.953125 48.484375 18.875 42.84375 
Q 14.796875 37.203125 14.796875 27.296875 
z
" id="DejaVuSans-64"/>
      <path d="M 9.8125 72.90625 
L 19.671875 72.90625 
L 19.671875 8.296875 
L 55.171875 8.296875 
L 55.171875 0 
L 9.8125 0 
z
" id="DejaVuSans-4c"/>
     </defs>
     <g transform="translate(192.123438 343.044562)scale(0.1 -0.1)">
      <use xlink:href="#DejaVuSans-74"/>
      <use x="39.208984" xlink:href="#DejaVuSans-72"/>
      <use x="80.291016" xlink:href="#DejaVuSans-65"/>
      <use x="141.814453" xlink:href="#DejaVuSans-65"/>
      <use x="203.337891" xlink:href="#DejaVuSans-62"/>
      <use x="266.814453" xlink:href="#DejaVuSans-65"/>
      <use x="328.337891" xlink:href="#DejaVuSans-61"/>
      <use x="389.617188" xlink:href="#DejaVuSans-72"/>
      <use x="430.714844" xlink:href="#DejaVuSans-64"/>
      <use x="494.191406" xlink:href="#DejaVuSans-20"/>
      <use x="525.978516" xlink:href="#DejaVuSans-41"/>
      <use x="594.386719" xlink:href="#DejaVuSans-4c"/>
     </g>
    </g>
    <g id="line2d_30">
     <path d="M 164.123438 354.222687 
L 184.123438 354.222687 
" style="fill:none;opacity:0.8;stroke:#d62728;stroke-linecap:square;stroke-width:1.5;"/>
    </g>
    <g id="line2d_31"/>
    <g id="text_25">
     <!-- treebeard MP -->
     <g transform="translate(192.123438 357.722687)scale(0.1 -0.1)">
      <use xlink:href="#DejaVuSans-74"/>
      <use x="39.208984" xlink:href="#DejaVuSans-72"/>
      <use x="80.291016" xlink:href="#DejaVuSans-65"/>
      <use x="141.814453" xlink:href="#DejaVuSans-65"/>
      <use x="203.337891" xlink:href="#DejaVuSans-62"/>
      <use x="266.814453" xlink:href="#DejaVuSans-65"/>
      <use x="328.337891" xlink:href="#DejaVuSans-61"/>
      <use x="389.617188" xlink:href="#DejaVuSans-72"/>
      <use x="430.714844" xlink:href="#DejaVuSans-64"/>
      <use x="494.191406" xlink:href="#DejaVuSans-20"/>
      <use x="525.978516" xlink:href="#DejaVuSans-4d"/>
      <use x="612.257812" xlink:href="#DejaVuSans-50"/>
     </g>
    </g>
    <g id="line2d_32">
     <path d="M 279.38125 339.544562 
L 299.38125 339.544562 
" style="fill:none;opacity:0.8;stroke:#9467bd;stroke-linecap:square;stroke-width:1.5;"/>
    </g>
    <g id="line2d_33"/>
    <g id="text_26">
     <!-- treebeard NS -->
     <defs>
      <path d="M 9.8125 72.90625 
L 23.09375 72.90625 
L 55.421875 11.921875 
L 55.421875 72.90625 
L 64.984375 72.90625 
L 64.984375 0 
L 51.703125 0 
L 19.390625 60.984375 
L 19.390625 0 
L 9.8125 0 
z
" id="DejaVuSans-4e"/>
      <path d="M 53.515625 70.515625 
L 53.515625 60.890625 
Q 47.90625 63.578125 42.921875 64.890625 
Q 37.9375 66.21875 33.296875 66.21875 
Q 25.25 66.21875 20.875 63.09375 
Q 16.5 59.96875 16.5 54.203125 
Q 16.5 49.359375 19.40625 46.890625 
Q 22.3125 44.4375 30.421875 42.921875 
L 36.375 41.703125 
Q 47.40625 39.59375 52.65625 34.296875 
Q 57.90625 29 57.90625 20.125 
Q 57.90625 9.515625 50.796875 4.046875 
Q 43.703125 -1.421875 29.984375 -1.421875 
Q 24.8125 -1.421875 18.96875 -0.25 
Q 13.140625 0.921875 6.890625 3.21875 
L 6.890625 13.375 
Q 12.890625 10.015625 18.65625 8.296875 
Q 24.421875 6.59375 29.984375 6.59375 
Q 38.421875 6.59375 43.015625 9.90625 
Q 47.609375 13.234375 47.609375 19.390625 
Q 47.609375 24.75 44.3125 27.78125 
Q 41.015625 30.8125 33.5 32.328125 
L 27.484375 33.5 
Q 16.453125 35.6875 11.515625 40.375 
Q 6.59375 45.0625 6.59375 53.421875 
Q 6.59375 63.09375 13.40625 68.65625 
Q 20.21875 74.21875 32.171875 74.21875 
Q 37.3125 74.21875 42.625 73.28125 
Q 47.953125 72.359375 53.515625 70.515625 
z
" id="DejaVuSans-53"/>
     </defs>
     <g transform="translate(307.38125 343.044562)scale(0.1 -0.1)">
      <use xlink:href="#DejaVuSans-74"/>
      <use x="39.208984" xlink:href="#DejaVuSans-72"/>
      <use x="80.291016" xlink:href="#DejaVuSans-65"/>
      <use x="141.814453" xlink:href="#DejaVuSans-65"/>
      <use x="203.337891" xlink:href="#DejaVuSans-62"/>
      <use x="266.814453" xlink:href="#DejaVuSans-65"/>
      <use x="328.337891" xlink:href="#DejaVuSans-61"/>
      <use x="389.617188" xlink:href="#DejaVuSans-72"/>
      <use x="430.714844" xlink:href="#DejaVuSans-64"/>
      <use x="494.191406" xlink:href="#DejaVuSans-20"/>
      <use x="525.978516" xlink:href="#DejaVuSans-4e"/>
      <use x="600.783203" xlink:href="#DejaVuSans-53"/>
     </g>
    </g>
   </g>
  </g>
 </g>
 <defs>
  <clipPath id="p1ab8aa9aaa">
   <rect height="266.112" width="357.12" x="58.73125" y="22.318125"/>
  </clipPath>
 </defs>
</svg>
