<?xml version="1.0" encoding="utf-8" standalone="no"?>
<!DOCTYPE svg PUBLIC "-//W3C//DTD SVG 1.1//EN"
  "http://www.w3.org/Graphics/SVG/1.1/DTD/svg11.dtd">
<!-- Created with matplotlib (https://matplotlib.org/) -->
<svg height="371.002375pt" version="1.1" viewBox="0 0 429.41375 371.002375" width="429.41375pt" xmlns="http://www.w3.org/2000/svg" xmlns:xlink="http://www.w3.org/1999/xlink">
 <metadata>
  <rdf:RDF xmlns:cc="http://creativecommons.org/ns#" xmlns:dc="http://purl.org/dc/elements/1.1/" xmlns:rdf="http://www.w3.org/1999/02/22-rdf-syntax-ns#">
   <cc:Work>
    <dc:type rdf:resource="http://purl.org/dc/dcmitype/StillImage"/>
    <dc:date>2023-07-04T16:29:32.895061</dc:date>
    <dc:format>image/svg+xml</dc:format>
    <dc:creator>
     <cc:Agent>
      <dc:title>Matplotlib v3.3.4, https://matplotlib.org/</dc:title>
     </cc:Agent>
    </dc:creator>
   </cc:Work>
  </rdf:RDF>
 </metadata>
 <defs>
  <style type="text/css">*{stroke-linecap:butt;stroke-linejoin:round;}</style>
 </defs>
 <g id="figure_1">
  <g id="patch_1">
   <path d="M -0 371.002375 
L 429.41375 371.002375 
L 429.41375 0 
L -0 0 
z
" style="fill:#ffffff;"/>
  </g>
  <g id="axes_1">
   <g id="patch_2">
    <path d="M 65.09375 288.430125 
L 422.21375 288.430125 
L 422.21375 22.318125 
L 65.09375 22.318125 
z
" style="fill:#ffffff;"/>
   </g>
   <g id="matplotlib.axis_1">
    <g id="xtick_1">
     <g id="line2d_1">
      <defs>
       <path d="M 0 0 
L 0 3.5 
" id="m42e19189df" style="stroke:#000000;stroke-width:0.8;"/>
      </defs>
      <g>
       <use style="stroke:#000000;stroke-width:0.8;" x="65.09375" xlink:href="#m42e19189df" y="288.430125"/>
      </g>
     </g>
     <g id="text_1">
      <!-- 0 -->
      <g transform="translate(61.9125 303.028562)scale(0.1 -0.1)">
       <defs>
        <path d="M 31.78125 66.40625 
Q 24.171875 66.40625 20.328125 58.90625 
Q 16.5 51.421875 16.5 36.375 
Q 16.5 21.390625 20.328125 13.890625 
Q 24.171875 6.390625 31.78125 6.390625 
Q 39.453125 6.390625 43.28125 13.890625 
Q 47.125 21.390625 47.125 36.375 
Q 47.125 51.421875 43.28125 58.90625 
Q 39.453125 66.40625 31.78125 66.40625 
z
M 31.78125 74.21875 
Q 44.046875 74.21875 50.515625 64.515625 
Q 56.984375 54.828125 56.984375 36.375 
Q 56.984375 17.96875 50.515625 8.265625 
Q 44.046875 -1.421875 31.78125 -1.421875 
Q 19.53125 -1.421875 13.0625 8.265625 
Q 6.59375 17.96875 6.59375 36.375 
Q 6.59375 54.828125 13.0625 64.515625 
Q 19.53125 74.21875 31.78125 74.21875 
z
" id="DejaVuSans-48"/>
       </defs>
       <use xlink:href="#DejaVuSans-48"/>
      </g>
     </g>
    </g>
    <g id="xtick_2">
     <g id="line2d_2">
      <g>
       <use style="stroke:#000000;stroke-width:0.8;" x="108.642314" xlink:href="#m42e19189df" y="288.430125"/>
      </g>
     </g>
     <g id="text_2">
      <!-- 500  -->
      <g transform="translate(97.509502 303.028562)scale(0.1 -0.1)">
       <defs>
        <path d="M 10.796875 72.90625 
L 49.515625 72.90625 
L 49.515625 64.59375 
L 19.828125 64.59375 
L 19.828125 46.734375 
Q 21.96875 47.46875 24.109375 47.828125 
Q 26.265625 48.1875 28.421875 48.1875 
Q 40.625 48.1875 47.75 41.5 
Q 54.890625 34.8125 54.890625 23.390625 
Q 54.890625 11.625 47.5625 5.09375 
Q 40.234375 -1.421875 26.90625 -1.421875 
Q 22.3125 -1.421875 17.546875 -0.640625 
Q 12.796875 0.140625 7.71875 1.703125 
L 7.71875 11.625 
Q 12.109375 9.234375 16.796875 8.0625 
Q 21.484375 6.890625 26.703125 6.890625 
Q 35.15625 6.890625 40.078125 11.328125 
Q 45.015625 15.765625 45.015625 23.390625 
Q 45.015625 31 40.078125 35.4375 
Q 35.15625 39.890625 26.703125 39.890625 
Q 22.75 39.890625 18.8125 39.015625 
Q 14.890625 38.140625 10.796875 36.28125 
z
" id="DejaVuSans-53"/>
        <path id="DejaVuSans-32"/>
       </defs>
       <use xlink:href="#DejaVuSans-53"/>
       <use x="63.623047" xlink:href="#DejaVuSans-48"/>
       <use x="127.246094" xlink:href="#DejaVuSans-48"/>
       <use x="190.869141" xlink:href="#DejaVuSans-32"/>
      </g>
     </g>
    </g>
    <g id="xtick_3">
     <g id="line2d_3">
      <g>
       <use style="stroke:#000000;stroke-width:0.8;" x="152.190878" xlink:href="#m42e19189df" y="288.430125"/>
      </g>
     </g>
     <g id="text_3">
      <!-- 1 k -->
      <g transform="translate(144.525253 303.028562)scale(0.1 -0.1)">
       <defs>
        <path d="M 12.40625 8.296875 
L 28.515625 8.296875 
L 28.515625 63.921875 
L 10.984375 60.40625 
L 10.984375 69.390625 
L 28.421875 72.90625 
L 38.28125 72.90625 
L 38.28125 8.296875 
L 54.390625 8.296875 
L 54.390625 0 
L 12.40625 0 
z
" id="DejaVuSans-49"/>
        <path d="M 9.078125 75.984375 
L 18.109375 75.984375 
L 18.109375 31.109375 
L 44.921875 54.6875 
L 56.390625 54.6875 
L 27.390625 29.109375 
L 57.625 0 
L 45.90625 0 
L 18.109375 26.703125 
L 18.109375 0 
L 9.078125 0 
z
" id="DejaVuSans-107"/>
       </defs>
       <use xlink:href="#DejaVuSans-49"/>
       <use x="63.623047" xlink:href="#DejaVuSans-32"/>
       <use x="95.410156" xlink:href="#DejaVuSans-107"/>
      </g>
     </g>
    </g>
    <g id="xtick_4">
     <g id="line2d_4">
      <g>
       <use style="stroke:#000000;stroke-width:0.8;" x="195.739442" xlink:href="#m42e19189df" y="288.430125"/>
      </g>
     </g>
     <g id="text_4">
      <!-- 1.5 k -->
      <g transform="translate(183.303505 303.028562)scale(0.1 -0.1)">
       <defs>
        <path d="M 10.6875 12.40625 
L 21 12.40625 
L 21 0 
L 10.6875 0 
z
" id="DejaVuSans-46"/>
       </defs>
       <use xlink:href="#DejaVuSans-49"/>
       <use x="63.623047" xlink:href="#DejaVuSans-46"/>
       <use x="95.410156" xlink:href="#DejaVuSans-53"/>
       <use x="159.033203" xlink:href="#DejaVuSans-32"/>
       <use x="190.820312" xlink:href="#DejaVuSans-107"/>
      </g>
     </g>
    </g>
    <g id="xtick_5">
     <g id="line2d_5">
      <g>
       <use style="stroke:#000000;stroke-width:0.8;" x="239.288006" xlink:href="#m42e19189df" y="288.430125"/>
      </g>
     </g>
     <g id="text_5">
      <!-- 2 k -->
      <g transform="translate(231.622381 303.028562)scale(0.1 -0.1)">
       <defs>
        <path d="M 19.1875 8.296875 
L 53.609375 8.296875 
L 53.609375 0 
L 7.328125 0 
L 7.328125 8.296875 
Q 12.9375 14.109375 22.625 23.890625 
Q 32.328125 33.6875 34.8125 36.53125 
Q 39.546875 41.84375 41.421875 45.53125 
Q 43.3125 49.21875 43.3125 52.78125 
Q 43.3125 58.59375 39.234375 62.25 
Q 35.15625 65.921875 28.609375 65.921875 
Q 23.96875 65.921875 18.8125 64.3125 
Q 13.671875 62.703125 7.8125 59.421875 
L 7.8125 69.390625 
Q 13.765625 71.78125 18.9375 73 
Q 24.125 74.21875 28.421875 74.21875 
Q 39.75 74.21875 46.484375 68.546875 
Q 53.21875 62.890625 53.21875 53.421875 
Q 53.21875 48.921875 51.53125 44.890625 
Q 49.859375 40.875 45.40625 35.40625 
Q 44.1875 33.984375 37.640625 27.21875 
Q 31.109375 20.453125 19.1875 8.296875 
z
" id="DejaVuSans-50"/>
       </defs>
       <use xlink:href="#DejaVuSans-50"/>
       <use x="63.623047" xlink:href="#DejaVuSans-32"/>
       <use x="95.410156" xlink:href="#DejaVuSans-107"/>
      </g>
     </g>
    </g>
    <g id="xtick_6">
     <g id="line2d_6">
      <g>
       <use style="stroke:#000000;stroke-width:0.8;" x="282.836571" xlink:href="#m42e19189df" y="288.430125"/>
      </g>
     </g>
     <g id="text_6">
      <!-- 2.5 k -->
      <g transform="translate(270.400633 303.028562)scale(0.1 -0.1)">
       <use xlink:href="#DejaVuSans-50"/>
       <use x="63.623047" xlink:href="#DejaVuSans-46"/>
       <use x="95.410156" xlink:href="#DejaVuSans-53"/>
       <use x="159.033203" xlink:href="#DejaVuSans-32"/>
       <use x="190.820312" xlink:href="#DejaVuSans-107"/>
      </g>
     </g>
    </g>
    <g id="xtick_7">
     <g id="line2d_7">
      <g>
       <use style="stroke:#000000;stroke-width:0.8;" x="326.385135" xlink:href="#m42e19189df" y="288.430125"/>
      </g>
     </g>
     <g id="text_7">
      <!-- 3 k -->
      <g transform="translate(318.71951 303.028562)scale(0.1 -0.1)">
       <defs>
        <path d="M 40.578125 39.3125 
Q 47.65625 37.796875 51.625 33 
Q 55.609375 28.21875 55.609375 21.1875 
Q 55.609375 10.40625 48.1875 4.484375 
Q 40.765625 -1.421875 27.09375 -1.421875 
Q 22.515625 -1.421875 17.65625 -0.515625 
Q 12.796875 0.390625 7.625 2.203125 
L 7.625 11.71875 
Q 11.71875 9.328125 16.59375 8.109375 
Q 21.484375 6.890625 26.8125 6.890625 
Q 36.078125 6.890625 40.9375 10.546875 
Q 45.796875 14.203125 45.796875 21.1875 
Q 45.796875 27.640625 41.28125 31.265625 
Q 36.765625 34.90625 28.71875 34.90625 
L 20.21875 34.90625 
L 20.21875 43.015625 
L 29.109375 43.015625 
Q 36.375 43.015625 40.234375 45.921875 
Q 44.09375 48.828125 44.09375 54.296875 
Q 44.09375 59.90625 40.109375 62.90625 
Q 36.140625 65.921875 28.71875 65.921875 
Q 24.65625 65.921875 20.015625 65.03125 
Q 15.375 64.15625 9.8125 62.3125 
L 9.8125 71.09375 
Q 15.4375 72.65625 20.34375 73.4375 
Q 25.25 74.21875 29.59375 74.21875 
Q 40.828125 74.21875 47.359375 69.109375 
Q 53.90625 64.015625 53.90625 55.328125 
Q 53.90625 49.265625 50.4375 45.09375 
Q 46.96875 40.921875 40.578125 39.3125 
z
" id="DejaVuSans-51"/>
       </defs>
       <use xlink:href="#DejaVuSans-51"/>
       <use x="63.623047" xlink:href="#DejaVuSans-32"/>
       <use x="95.410156" xlink:href="#DejaVuSans-107"/>
      </g>
     </g>
    </g>
    <g id="xtick_8">
     <g id="line2d_8">
      <g>
       <use style="stroke:#000000;stroke-width:0.8;" x="369.933699" xlink:href="#m42e19189df" y="288.430125"/>
      </g>
     </g>
     <g id="text_8">
      <!-- 3.5 k -->
      <g transform="translate(357.497761 303.028562)scale(0.1 -0.1)">
       <use xlink:href="#DejaVuSans-51"/>
       <use x="63.623047" xlink:href="#DejaVuSans-46"/>
       <use x="95.410156" xlink:href="#DejaVuSans-53"/>
       <use x="159.033203" xlink:href="#DejaVuSans-32"/>
       <use x="190.820312" xlink:href="#DejaVuSans-107"/>
      </g>
     </g>
    </g>
    <g id="xtick_9">
     <g id="line2d_9">
      <g>
       <use style="stroke:#000000;stroke-width:0.8;" x="413.482263" xlink:href="#m42e19189df" y="288.430125"/>
      </g>
     </g>
     <g id="text_9">
      <!-- 4 k -->
      <g transform="translate(405.816638 303.028562)scale(0.1 -0.1)">
       <defs>
        <path d="M 37.796875 64.3125 
L 12.890625 25.390625 
L 37.796875 25.390625 
z
M 35.203125 72.90625 
L 47.609375 72.90625 
L 47.609375 25.390625 
L 58.015625 25.390625 
L 58.015625 17.1875 
L 47.609375 17.1875 
L 47.609375 0 
L 37.796875 0 
L 37.796875 17.1875 
L 4.890625 17.1875 
L 4.890625 26.703125 
z
" id="DejaVuSans-52"/>
       </defs>
       <use xlink:href="#DejaVuSans-52"/>
       <use x="63.623047" xlink:href="#DejaVuSans-32"/>
       <use x="95.410156" xlink:href="#DejaVuSans-107"/>
      </g>
     </g>
    </g>
    <g id="text_10">
     <!-- Amount of objects in table -->
     <g transform="translate(177.595156 316.706687)scale(0.1 -0.1)">
      <defs>
       <path d="M 34.1875 63.1875 
L 20.796875 26.90625 
L 47.609375 26.90625 
z
M 28.609375 72.90625 
L 39.796875 72.90625 
L 67.578125 0 
L 57.328125 0 
L 50.6875 18.703125 
L 17.828125 18.703125 
L 11.1875 0 
L 0.78125 0 
z
" id="DejaVuSans-65"/>
       <path d="M 52 44.1875 
Q 55.375 50.25 60.0625 53.125 
Q 64.75 56 71.09375 56 
Q 79.640625 56 84.28125 50.015625 
Q 88.921875 44.046875 88.921875 33.015625 
L 88.921875 0 
L 79.890625 0 
L 79.890625 32.71875 
Q 79.890625 40.578125 77.09375 44.375 
Q 74.3125 48.1875 68.609375 48.1875 
Q 61.625 48.1875 57.5625 43.546875 
Q 53.515625 38.921875 53.515625 30.90625 
L 53.515625 0 
L 44.484375 0 
L 44.484375 32.71875 
Q 44.484375 40.625 41.703125 44.40625 
Q 38.921875 48.1875 33.109375 48.1875 
Q 26.21875 48.1875 22.15625 43.53125 
Q 18.109375 38.875 18.109375 30.90625 
L 18.109375 0 
L 9.078125 0 
L 9.078125 54.6875 
L 18.109375 54.6875 
L 18.109375 46.1875 
Q 21.1875 51.21875 25.484375 53.609375 
Q 29.78125 56 35.6875 56 
Q 41.65625 56 45.828125 52.96875 
Q 50 49.953125 52 44.1875 
z
" id="DejaVuSans-109"/>
       <path d="M 30.609375 48.390625 
Q 23.390625 48.390625 19.1875 42.75 
Q 14.984375 37.109375 14.984375 27.296875 
Q 14.984375 17.484375 19.15625 11.84375 
Q 23.34375 6.203125 30.609375 6.203125 
Q 37.796875 6.203125 41.984375 11.859375 
Q 46.1875 17.53125 46.1875 27.296875 
Q 46.1875 37.015625 41.984375 42.703125 
Q 37.796875 48.390625 30.609375 48.390625 
z
M 30.609375 56 
Q 42.328125 56 49.015625 48.375 
Q 55.71875 40.765625 55.71875 27.296875 
Q 55.71875 13.875 49.015625 6.21875 
Q 42.328125 -1.421875 30.609375 -1.421875 
Q 18.84375 -1.421875 12.171875 6.21875 
Q 5.515625 13.875 5.515625 27.296875 
Q 5.515625 40.765625 12.171875 48.375 
Q 18.84375 56 30.609375 56 
z
" id="DejaVuSans-111"/>
       <path d="M 8.5 21.578125 
L 8.5 54.6875 
L 17.484375 54.6875 
L 17.484375 21.921875 
Q 17.484375 14.15625 20.5 10.265625 
Q 23.53125 6.390625 29.59375 6.390625 
Q 36.859375 6.390625 41.078125 11.03125 
Q 45.3125 15.671875 45.3125 23.6875 
L 45.3125 54.6875 
L 54.296875 54.6875 
L 54.296875 0 
L 45.3125 0 
L 45.3125 8.40625 
Q 42.046875 3.421875 37.71875 1 
Q 33.40625 -1.421875 27.6875 -1.421875 
Q 18.265625 -1.421875 13.375 4.4375 
Q 8.5 10.296875 8.5 21.578125 
z
M 31.109375 56 
z
" id="DejaVuSans-117"/>
       <path d="M 54.890625 33.015625 
L 54.890625 0 
L 45.90625 0 
L 45.90625 32.71875 
Q 45.90625 40.484375 42.875 44.328125 
Q 39.84375 48.1875 33.796875 48.1875 
Q 26.515625 48.1875 22.3125 43.546875 
Q 18.109375 38.921875 18.109375 30.90625 
L 18.109375 0 
L 9.078125 0 
L 9.078125 54.6875 
L 18.109375 54.6875 
L 18.109375 46.1875 
Q 21.34375 51.125 25.703125 53.5625 
Q 30.078125 56 35.796875 56 
Q 45.21875 56 50.046875 50.171875 
Q 54.890625 44.34375 54.890625 33.015625 
z
" id="DejaVuSans-110"/>
       <path d="M 18.3125 70.21875 
L 18.3125 54.6875 
L 36.8125 54.6875 
L 36.8125 47.703125 
L 18.3125 47.703125 
L 18.3125 18.015625 
Q 18.3125 11.328125 20.140625 9.421875 
Q 21.96875 7.515625 27.59375 7.515625 
L 36.8125 7.515625 
L 36.8125 0 
L 27.59375 0 
Q 17.1875 0 13.234375 3.875 
Q 9.28125 7.765625 9.28125 18.015625 
L 9.28125 47.703125 
L 2.6875 47.703125 
L 2.6875 54.6875 
L 9.28125 54.6875 
L 9.28125 70.21875 
z
" id="DejaVuSans-116"/>
       <path d="M 37.109375 75.984375 
L 37.109375 68.5 
L 28.515625 68.5 
Q 23.6875 68.5 21.796875 66.546875 
Q 19.921875 64.59375 19.921875 59.515625 
L 19.921875 54.6875 
L 34.71875 54.6875 
L 34.71875 47.703125 
L 19.921875 47.703125 
L 19.921875 0 
L 10.890625 0 
L 10.890625 47.703125 
L 2.296875 47.703125 
L 2.296875 54.6875 
L 10.890625 54.6875 
L 10.890625 58.5 
Q 10.890625 67.625 15.140625 71.796875 
Q 19.390625 75.984375 28.609375 75.984375 
z
" id="DejaVuSans-102"/>
       <path d="M 48.6875 27.296875 
Q 48.6875 37.203125 44.609375 42.84375 
Q 40.53125 48.484375 33.40625 48.484375 
Q 26.265625 48.484375 22.1875 42.84375 
Q 18.109375 37.203125 18.109375 27.296875 
Q 18.109375 17.390625 22.1875 11.75 
Q 26.265625 6.109375 33.40625 6.109375 
Q 40.53125 6.109375 44.609375 11.75 
Q 48.6875 17.390625 48.6875 27.296875 
z
M 18.109375 46.390625 
Q 20.953125 51.265625 25.265625 53.625 
Q 29.59375 56 35.59375 56 
Q 45.5625 56 51.78125 48.09375 
Q 58.015625 40.1875 58.015625 27.296875 
Q 58.015625 14.40625 51.78125 6.484375 
Q 45.5625 -1.421875 35.59375 -1.421875 
Q 29.59375 -1.421875 25.265625 0.953125 
Q 20.953125 3.328125 18.109375 8.203125 
L 18.109375 0 
L 9.078125 0 
L 9.078125 75.984375 
L 18.109375 75.984375 
z
" id="DejaVuSans-98"/>
       <path d="M 9.421875 54.6875 
L 18.40625 54.6875 
L 18.40625 -0.984375 
Q 18.40625 -11.421875 14.421875 -16.109375 
Q 10.453125 -20.796875 1.609375 -20.796875 
L -1.8125 -20.796875 
L -1.8125 -13.1875 
L 0.59375 -13.1875 
Q 5.71875 -13.1875 7.5625 -10.8125 
Q 9.421875 -8.453125 9.421875 -0.984375 
z
M 9.421875 75.984375 
L 18.40625 75.984375 
L 18.40625 64.59375 
L 9.421875 64.59375 
z
" id="DejaVuSans-106"/>
       <path d="M 56.203125 29.59375 
L 56.203125 25.203125 
L 14.890625 25.203125 
Q 15.484375 15.921875 20.484375 11.0625 
Q 25.484375 6.203125 34.421875 6.203125 
Q 39.59375 6.203125 44.453125 7.46875 
Q 49.3125 8.734375 54.109375 11.28125 
L 54.109375 2.78125 
Q 49.265625 0.734375 44.1875 -0.34375 
Q 39.109375 -1.421875 33.890625 -1.421875 
Q 20.796875 -1.421875 13.15625 6.1875 
Q 5.515625 13.8125 5.515625 26.8125 
Q 5.515625 40.234375 12.765625 48.109375 
Q 20.015625 56 32.328125 56 
Q 43.359375 56 49.78125 48.890625 
Q 56.203125 41.796875 56.203125 29.59375 
z
M 47.21875 32.234375 
Q 47.125 39.59375 43.09375 43.984375 
Q 39.0625 48.390625 32.421875 48.390625 
Q 24.90625 48.390625 20.390625 44.140625 
Q 15.875 39.890625 15.1875 32.171875 
z
" id="DejaVuSans-101"/>
       <path d="M 48.78125 52.59375 
L 48.78125 44.1875 
Q 44.96875 46.296875 41.140625 47.34375 
Q 37.3125 48.390625 33.40625 48.390625 
Q 24.65625 48.390625 19.8125 42.84375 
Q 14.984375 37.3125 14.984375 27.296875 
Q 14.984375 17.28125 19.8125 11.734375 
Q 24.65625 6.203125 33.40625 6.203125 
Q 37.3125 6.203125 41.140625 7.25 
Q 44.96875 8.296875 48.78125 10.40625 
L 48.78125 2.09375 
Q 45.015625 0.34375 40.984375 -0.53125 
Q 36.96875 -1.421875 32.421875 -1.421875 
Q 20.0625 -1.421875 12.78125 6.34375 
Q 5.515625 14.109375 5.515625 27.296875 
Q 5.515625 40.671875 12.859375 48.328125 
Q 20.21875 56 33.015625 56 
Q 37.15625 56 41.109375 55.140625 
Q 45.0625 54.296875 48.78125 52.59375 
z
" id="DejaVuSans-99"/>
       <path d="M 44.28125 53.078125 
L 44.28125 44.578125 
Q 40.484375 46.53125 36.375 47.5 
Q 32.28125 48.484375 27.875 48.484375 
Q 21.1875 48.484375 17.84375 46.4375 
Q 14.5 44.390625 14.5 40.28125 
Q 14.5 37.15625 16.890625 35.375 
Q 19.28125 33.59375 26.515625 31.984375 
L 29.59375 31.296875 
Q 39.15625 29.25 43.1875 25.515625 
Q 47.21875 21.78125 47.21875 15.09375 
Q 47.21875 7.46875 41.1875 3.015625 
Q 35.15625 -1.421875 24.609375 -1.421875 
Q 20.21875 -1.421875 15.453125 -0.5625 
Q 10.6875 0.296875 5.421875 2 
L 5.421875 11.28125 
Q 10.40625 8.6875 15.234375 7.390625 
Q 20.0625 6.109375 24.8125 6.109375 
Q 31.15625 6.109375 34.5625 8.28125 
Q 37.984375 10.453125 37.984375 14.40625 
Q 37.984375 18.0625 35.515625 20.015625 
Q 33.0625 21.96875 24.703125 23.78125 
L 21.578125 24.515625 
Q 13.234375 26.265625 9.515625 29.90625 
Q 5.8125 33.546875 5.8125 39.890625 
Q 5.8125 47.609375 11.28125 51.796875 
Q 16.75 56 26.8125 56 
Q 31.78125 56 36.171875 55.265625 
Q 40.578125 54.546875 44.28125 53.078125 
z
" id="DejaVuSans-115"/>
       <path d="M 9.421875 54.6875 
L 18.40625 54.6875 
L 18.40625 0 
L 9.421875 0 
z
M 9.421875 75.984375 
L 18.40625 75.984375 
L 18.40625 64.59375 
L 9.421875 64.59375 
z
" id="DejaVuSans-105"/>
       <path d="M 34.28125 27.484375 
Q 23.390625 27.484375 19.1875 25 
Q 14.984375 22.515625 14.984375 16.5 
Q 14.984375 11.71875 18.140625 8.90625 
Q 21.296875 6.109375 26.703125 6.109375 
Q 34.1875 6.109375 38.703125 11.40625 
Q 43.21875 16.703125 43.21875 25.484375 
L 43.21875 27.484375 
z
M 52.203125 31.203125 
L 52.203125 0 
L 43.21875 0 
L 43.21875 8.296875 
Q 40.140625 3.328125 35.546875 0.953125 
Q 30.953125 -1.421875 24.3125 -1.421875 
Q 15.921875 -1.421875 10.953125 3.296875 
Q 6 8.015625 6 15.921875 
Q 6 25.140625 12.171875 29.828125 
Q 18.359375 34.515625 30.609375 34.515625 
L 43.21875 34.515625 
L 43.21875 35.40625 
Q 43.21875 41.609375 39.140625 45 
Q 35.0625 48.390625 27.6875 48.390625 
Q 23 48.390625 18.546875 47.265625 
Q 14.109375 46.140625 10.015625 43.890625 
L 10.015625 52.203125 
Q 14.9375 54.109375 19.578125 55.046875 
Q 24.21875 56 28.609375 56 
Q 40.484375 56 46.34375 49.84375 
Q 52.203125 43.703125 52.203125 31.203125 
z
" id="DejaVuSans-97"/>
       <path d="M 9.421875 75.984375 
L 18.40625 75.984375 
L 18.40625 0 
L 9.421875 0 
z
" id="DejaVuSans-108"/>
      </defs>
      <use xlink:href="#DejaVuSans-65"/>
      <use x="68.408203" xlink:href="#DejaVuSans-109"/>
      <use x="165.820312" xlink:href="#DejaVuSans-111"/>
      <use x="227.001953" xlink:href="#DejaVuSans-117"/>
      <use x="290.380859" xlink:href="#DejaVuSans-110"/>
      <use x="353.759766" xlink:href="#DejaVuSans-116"/>
      <use x="392.96875" xlink:href="#DejaVuSans-32"/>
      <use x="424.755859" xlink:href="#DejaVuSans-111"/>
      <use x="485.9375" xlink:href="#DejaVuSans-102"/>
      <use x="521.142578" xlink:href="#DejaVuSans-32"/>
      <use x="552.929688" xlink:href="#DejaVuSans-111"/>
      <use x="614.111328" xlink:href="#DejaVuSans-98"/>
      <use x="677.587891" xlink:href="#DejaVuSans-106"/>
      <use x="705.371094" xlink:href="#DejaVuSans-101"/>
      <use x="766.894531" xlink:href="#DejaVuSans-99"/>
      <use x="821.875" xlink:href="#DejaVuSans-116"/>
      <use x="861.083984" xlink:href="#DejaVuSans-115"/>
      <use x="913.183594" xlink:href="#DejaVuSans-32"/>
      <use x="944.970703" xlink:href="#DejaVuSans-105"/>
      <use x="972.753906" xlink:href="#DejaVuSans-110"/>
      <use x="1036.132812" xlink:href="#DejaVuSans-32"/>
      <use x="1067.919922" xlink:href="#DejaVuSans-116"/>
      <use x="1107.128906" xlink:href="#DejaVuSans-97"/>
      <use x="1168.408203" xlink:href="#DejaVuSans-98"/>
      <use x="1231.884766" xlink:href="#DejaVuSans-108"/>
      <use x="1259.667969" xlink:href="#DejaVuSans-101"/>
     </g>
    </g>
   </g>
   <g id="matplotlib.axis_2">
    <g id="ytick_1">
     <g id="line2d_10">
      <defs>
       <path d="M 0 0 
L -3.5 0 
" id="m9ea4544ed0" style="stroke:#000000;stroke-width:0.8;"/>
      </defs>
      <g>
       <use style="stroke:#000000;stroke-width:0.8;" x="65.09375" xlink:href="#m9ea4544ed0" y="288.430125"/>
      </g>
     </g>
     <g id="text_11">
      <!-- 0 -->
      <g transform="translate(51.73125 292.229344)scale(0.1 -0.1)">
       <use xlink:href="#DejaVuSans-48"/>
      </g>
     </g>
    </g>
    <g id="ytick_2">
     <g id="line2d_11">
      <g>
       <use style="stroke:#000000;stroke-width:0.8;" x="65.09375" xlink:href="#m9ea4544ed0" y="245.226546"/>
      </g>
     </g>
     <g id="text_12">
      <!-- 20 ms -->
      <g transform="translate(27.240625 249.025764)scale(0.1 -0.1)">
       <use xlink:href="#DejaVuSans-50"/>
       <use x="63.623047" xlink:href="#DejaVuSans-48"/>
       <use x="127.246094" xlink:href="#DejaVuSans-32"/>
       <use x="159.033203" xlink:href="#DejaVuSans-109"/>
       <use x="256.445312" xlink:href="#DejaVuSans-115"/>
      </g>
     </g>
    </g>
    <g id="ytick_3">
     <g id="line2d_12">
      <g>
       <use style="stroke:#000000;stroke-width:0.8;" x="65.09375" xlink:href="#m9ea4544ed0" y="202.022966"/>
      </g>
     </g>
     <g id="text_13">
      <!-- 40 ms -->
      <g transform="translate(27.240625 205.822185)scale(0.1 -0.1)">
       <use xlink:href="#DejaVuSans-52"/>
       <use x="63.623047" xlink:href="#DejaVuSans-48"/>
       <use x="127.246094" xlink:href="#DejaVuSans-32"/>
       <use x="159.033203" xlink:href="#DejaVuSans-109"/>
       <use x="256.445312" xlink:href="#DejaVuSans-115"/>
      </g>
     </g>
    </g>
    <g id="ytick_4">
     <g id="line2d_13">
      <g>
       <use style="stroke:#000000;stroke-width:0.8;" x="65.09375" xlink:href="#m9ea4544ed0" y="158.819387"/>
      </g>
     </g>
     <g id="text_14">
      <!-- 60 ms -->
      <g transform="translate(27.240625 162.618606)scale(0.1 -0.1)">
       <defs>
        <path d="M 33.015625 40.375 
Q 26.375 40.375 22.484375 35.828125 
Q 18.609375 31.296875 18.609375 23.390625 
Q 18.609375 15.53125 22.484375 10.953125 
Q 26.375 6.390625 33.015625 6.390625 
Q 39.65625 6.390625 43.53125 10.953125 
Q 47.40625 15.53125 47.40625 23.390625 
Q 47.40625 31.296875 43.53125 35.828125 
Q 39.65625 40.375 33.015625 40.375 
z
M 52.59375 71.296875 
L 52.59375 62.3125 
Q 48.875 64.0625 45.09375 64.984375 
Q 41.3125 65.921875 37.59375 65.921875 
Q 27.828125 65.921875 22.671875 59.328125 
Q 17.53125 52.734375 16.796875 39.40625 
Q 19.671875 43.65625 24.015625 45.921875 
Q 28.375 48.1875 33.59375 48.1875 
Q 44.578125 48.1875 50.953125 41.515625 
Q 57.328125 34.859375 57.328125 23.390625 
Q 57.328125 12.15625 50.6875 5.359375 
Q 44.046875 -1.421875 33.015625 -1.421875 
Q 20.359375 -1.421875 13.671875 8.265625 
Q 6.984375 17.96875 6.984375 36.375 
Q 6.984375 53.65625 15.1875 63.9375 
Q 23.390625 74.21875 37.203125 74.21875 
Q 40.921875 74.21875 44.703125 73.484375 
Q 48.484375 72.75 52.59375 71.296875 
z
" id="DejaVuSans-54"/>
       </defs>
       <use xlink:href="#DejaVuSans-54"/>
       <use x="63.623047" xlink:href="#DejaVuSans-48"/>
       <use x="127.246094" xlink:href="#DejaVuSans-32"/>
       <use x="159.033203" xlink:href="#DejaVuSans-109"/>
       <use x="256.445312" xlink:href="#DejaVuSans-115"/>
      </g>
     </g>
    </g>
    <g id="ytick_5">
     <g id="line2d_14">
      <g>
       <use style="stroke:#000000;stroke-width:0.8;" x="65.09375" xlink:href="#m9ea4544ed0" y="115.615808"/>
      </g>
     </g>
     <g id="text_15">
      <!-- 80 ms -->
      <g transform="translate(27.240625 119.415027)scale(0.1 -0.1)">
       <defs>
        <path d="M 31.78125 34.625 
Q 24.75 34.625 20.71875 30.859375 
Q 16.703125 27.09375 16.703125 20.515625 
Q 16.703125 13.921875 20.71875 10.15625 
Q 24.75 6.390625 31.78125 6.390625 
Q 38.8125 6.390625 42.859375 10.171875 
Q 46.921875 13.96875 46.921875 20.515625 
Q 46.921875 27.09375 42.890625 30.859375 
Q 38.875 34.625 31.78125 34.625 
z
M 21.921875 38.8125 
Q 15.578125 40.375 12.03125 44.71875 
Q 8.5 49.078125 8.5 55.328125 
Q 8.5 64.0625 14.71875 69.140625 
Q 20.953125 74.21875 31.78125 74.21875 
Q 42.671875 74.21875 48.875 69.140625 
Q 55.078125 64.0625 55.078125 55.328125 
Q 55.078125 49.078125 51.53125 44.71875 
Q 48 40.375 41.703125 38.8125 
Q 48.828125 37.15625 52.796875 32.3125 
Q 56.78125 27.484375 56.78125 20.515625 
Q 56.78125 9.90625 50.3125 4.234375 
Q 43.84375 -1.421875 31.78125 -1.421875 
Q 19.734375 -1.421875 13.25 4.234375 
Q 6.78125 9.90625 6.78125 20.515625 
Q 6.78125 27.484375 10.78125 32.3125 
Q 14.796875 37.15625 21.921875 38.8125 
z
M 18.3125 54.390625 
Q 18.3125 48.734375 21.84375 45.5625 
Q 25.390625 42.390625 31.78125 42.390625 
Q 38.140625 42.390625 41.71875 45.5625 
Q 45.3125 48.734375 45.3125 54.390625 
Q 45.3125 60.0625 41.71875 63.234375 
Q 38.140625 66.40625 31.78125 66.40625 
Q 25.390625 66.40625 21.84375 63.234375 
Q 18.3125 60.0625 18.3125 54.390625 
z
" id="DejaVuSans-56"/>
       </defs>
       <use xlink:href="#DejaVuSans-56"/>
       <use x="63.623047" xlink:href="#DejaVuSans-48"/>
       <use x="127.246094" xlink:href="#DejaVuSans-32"/>
       <use x="159.033203" xlink:href="#DejaVuSans-109"/>
       <use x="256.445312" xlink:href="#DejaVuSans-115"/>
      </g>
     </g>
    </g>
    <g id="ytick_6">
     <g id="line2d_15">
      <g>
       <use style="stroke:#000000;stroke-width:0.8;" x="65.09375" xlink:href="#m9ea4544ed0" y="72.412228"/>
      </g>
     </g>
     <g id="text_16">
      <!-- 100 ms -->
      <g transform="translate(20.878125 76.211447)scale(0.1 -0.1)">
       <use xlink:href="#DejaVuSans-49"/>
       <use x="63.623047" xlink:href="#DejaVuSans-48"/>
       <use x="127.246094" xlink:href="#DejaVuSans-48"/>
       <use x="190.869141" xlink:href="#DejaVuSans-32"/>
       <use x="222.65625" xlink:href="#DejaVuSans-109"/>
       <use x="320.068359" xlink:href="#DejaVuSans-115"/>
      </g>
     </g>
    </g>
    <g id="ytick_7">
     <g id="line2d_16">
      <g>
       <use style="stroke:#000000;stroke-width:0.8;" x="65.09375" xlink:href="#m9ea4544ed0" y="29.208649"/>
      </g>
     </g>
     <g id="text_17">
      <!-- 120 ms -->
      <g transform="translate(20.878125 33.007868)scale(0.1 -0.1)">
       <use xlink:href="#DejaVuSans-49"/>
       <use x="63.623047" xlink:href="#DejaVuSans-50"/>
       <use x="127.246094" xlink:href="#DejaVuSans-48"/>
       <use x="190.869141" xlink:href="#DejaVuSans-32"/>
       <use x="222.65625" xlink:href="#DejaVuSans-109"/>
       <use x="320.068359" xlink:href="#DejaVuSans-115"/>
      </g>
     </g>
    </g>
    <g id="text_18">
     <!-- Write latency (s) -->
     <g transform="translate(14.798438 196.625687)rotate(-90)scale(0.1 -0.1)">
      <defs>
       <path d="M 3.328125 72.90625 
L 13.28125 72.90625 
L 28.609375 11.28125 
L 43.890625 72.90625 
L 54.984375 72.90625 
L 70.3125 11.28125 
L 85.59375 72.90625 
L 95.609375 72.90625 
L 77.296875 0 
L 64.890625 0 
L 49.515625 63.28125 
L 33.984375 0 
L 21.578125 0 
z
" id="DejaVuSans-87"/>
       <path d="M 41.109375 46.296875 
Q 39.59375 47.171875 37.8125 47.578125 
Q 36.03125 48 33.890625 48 
Q 26.265625 48 22.1875 43.046875 
Q 18.109375 38.09375 18.109375 28.8125 
L 18.109375 0 
L 9.078125 0 
L 9.078125 54.6875 
L 18.109375 54.6875 
L 18.109375 46.1875 
Q 20.953125 51.171875 25.484375 53.578125 
Q 30.03125 56 36.53125 56 
Q 37.453125 56 38.578125 55.875 
Q 39.703125 55.765625 41.0625 55.515625 
z
" id="DejaVuSans-114"/>
       <path d="M 32.171875 -5.078125 
Q 28.375 -14.84375 24.75 -17.8125 
Q 21.140625 -20.796875 15.09375 -20.796875 
L 7.90625 -20.796875 
L 7.90625 -13.28125 
L 13.1875 -13.28125 
Q 16.890625 -13.28125 18.9375 -11.515625 
Q 21 -9.765625 23.484375 -3.21875 
L 25.09375 0.875 
L 2.984375 54.6875 
L 12.5 54.6875 
L 29.59375 11.921875 
L 46.6875 54.6875 
L 56.203125 54.6875 
z
" id="DejaVuSans-121"/>
       <path d="M 31 75.875 
Q 24.46875 64.65625 21.28125 53.65625 
Q 18.109375 42.671875 18.109375 31.390625 
Q 18.109375 20.125 21.3125 9.0625 
Q 24.515625 -2 31 -13.1875 
L 23.1875 -13.1875 
Q 15.875 -1.703125 12.234375 9.375 
Q 8.59375 20.453125 8.59375 31.390625 
Q 8.59375 42.28125 12.203125 53.3125 
Q 15.828125 64.359375 23.1875 75.875 
z
" id="DejaVuSans-40"/>
       <path d="M 8.015625 75.875 
L 15.828125 75.875 
Q 23.140625 64.359375 26.78125 53.3125 
Q 30.421875 42.28125 30.421875 31.390625 
Q 30.421875 20.453125 26.78125 9.375 
Q 23.140625 -1.703125 15.828125 -13.1875 
L 8.015625 -13.1875 
Q 14.5 -2 17.703125 9.0625 
Q 20.90625 20.125 20.90625 31.390625 
Q 20.90625 42.671875 17.703125 53.65625 
Q 14.5 64.65625 8.015625 75.875 
z
" id="DejaVuSans-41"/>
      </defs>
      <use xlink:href="#DejaVuSans-87"/>
      <use x="94.376953" xlink:href="#DejaVuSans-114"/>
      <use x="135.490234" xlink:href="#DejaVuSans-105"/>
      <use x="163.273438" xlink:href="#DejaVuSans-116"/>
      <use x="202.482422" xlink:href="#DejaVuSans-101"/>
      <use x="264.005859" xlink:href="#DejaVuSans-32"/>
      <use x="295.792969" xlink:href="#DejaVuSans-108"/>
      <use x="323.576172" xlink:href="#DejaVuSans-97"/>
      <use x="384.855469" xlink:href="#DejaVuSans-116"/>
      <use x="424.064453" xlink:href="#DejaVuSans-101"/>
      <use x="485.587891" xlink:href="#DejaVuSans-110"/>
      <use x="548.966797" xlink:href="#DejaVuSans-99"/>
      <use x="603.947266" xlink:href="#DejaVuSans-121"/>
      <use x="663.126953" xlink:href="#DejaVuSans-32"/>
      <use x="694.914062" xlink:href="#DejaVuSans-40"/>
      <use x="733.927734" xlink:href="#DejaVuSans-115"/>
      <use x="786.027344" xlink:href="#DejaVuSans-41"/>
     </g>
    </g>
   </g>
   <g id="line2d_17">
    <path clip-path="url(#p3c51623f51)" d="M 150.01345 255.235021 
L 150.884421 254.297527 
L 151.319907 254.050346 
L 151.755393 253.644082 
L 153.497335 253.612607 
L 153.932821 253.088051 
L 155.239278 253.125505 
L 155.674763 252.61097 
L 156.545735 252.62005 
L 156.98122 252.633576 
L 157.852192 252.09276 
L 158.723163 252.088041 
L 159.158648 251.455252 
L 159.594134 251.110839 
L 160.02962 250.581556 
L 161.771562 250.611765 
L 162.642534 249.482473 
L 163.513505 249.529028 
L 164.384476 249.611493 
L 164.819962 249.164886 
L 165.690933 249.093395 
L 166.561904 247.824448 
L 167.868361 247.839556 
L 168.303847 247.358494 
L 168.739333 247.430318 
L 169.174818 247.098556 
L 169.610304 247.085876 
L 170.04579 247.190474 
L 170.481275 247.16462 
L 170.916761 246.600034 
L 171.352246 246.704645 
L 171.787732 246.13479 
L 172.223218 246.151583 
L 172.658703 245.732459 
L 173.529675 245.693259 
L 173.96516 245.653695 
L 174.836132 244.897355 
L 175.271617 244.344692 
L 175.707103 244.216537 
L 176.578074 243.089463 
L 177.01356 243.081553 
L 177.449045 242.600404 
L 177.884531 241.656749 
L 178.320017 241.850549 
L 178.755502 241.843273 
L 179.190988 241.21256 
L 179.626474 241.205501 
L 180.061959 241.386558 
L 180.497445 241.396245 
L 180.932931 241.199397 
L 181.368416 240.587804 
L 181.803902 240.564887 
L 183.545844 238.115562 
L 183.98133 238.141398 
L 184.416816 238.416115 
L 185.287787 237.786206 
L 185.723273 237.972854 
L 186.158758 237.997491 
L 186.594244 237.395858 
L 187.02973 237.39837 
L 187.465215 237.651541 
L 187.900701 237.413628 
L 188.771672 237.399965 
L 189.207158 237.686309 
L 189.642643 237.106286 
L 190.078129 237.133762 
L 190.513615 236.806408 
L 190.9491 237.087927 
L 191.384586 236.609571 
L 192.255557 235.120401 
L 193.562014 235.13502 
L 193.9975 234.230992 
L 194.432985 234.223848 
L 194.868471 233.861245 
L 195.303957 234.153133 
L 195.739442 234.158812 
L 196.174928 233.314772 
L 196.610414 233.311746 
L 198.787842 235.065689 
L 199.658813 233.946829 
L 200.094299 233.959076 
L 200.529784 233.582148 
L 200.96527 232.81667 
L 201.400756 233.264453 
L 201.836241 233.260882 
L 202.707213 233.868434 
L 203.578184 233.365818 
L 204.449155 233.480128 
L 204.884641 232.920288 
L 205.320126 232.834345 
L 205.755612 232.126653 
L 206.191098 232.065856 
L 206.626583 232.291464 
L 207.062069 231.780455 
L 207.93304 231.745908 
L 208.368526 231.186217 
L 209.239497 231.950041 
L 210.110468 230.29951 
L 210.545954 230.669196 
L 210.98144 230.862838 
L 211.416925 230.824354 
L 211.852411 230.242067 
L 212.287897 229.978284 
L 213.158868 230.649007 
L 213.594354 231.0314 
L 214.029839 230.783817 
L 214.465325 231.246631 
L 214.900811 231.410341 
L 215.336296 231.715474 
L 215.771782 231.731746 
L 216.207267 231.201467 
L 217.078239 230.820651 
L 217.94921 231.53367 
L 218.820181 231.29078 
L 219.255667 231.64056 
L 219.691153 230.833611 
L 220.126638 230.570105 
L 220.562124 229.966216 
L 220.99761 229.90881 
L 221.433095 230.190659 
L 221.868581 230.214625 
L 222.739552 228.708394 
L 223.175038 228.239738 
L 223.610523 227.43356 
L 224.046009 227.368978 
L 224.481495 227.851807 
L 224.91698 227.217682 
L 225.352466 227.13911 
L 226.658923 228.179076 
L 227.094408 228.009917 
L 227.529894 228.385757 
L 227.96538 228.391689 
L 228.400865 228.604094 
L 229.271837 226.999524 
L 230.142808 227.001297 
L 230.578294 226.513814 
L 231.013779 226.330824 
L 231.449265 225.760446 
L 231.884751 225.684827 
L 232.320236 226.050816 
L 233.626693 223.688586 
L 234.497664 223.294564 
L 234.93315 222.259257 
L 235.368636 222.372146 
L 235.804121 222.031048 
L 236.239607 222.133773 
L 236.675093 221.662547 
L 237.110578 221.677861 
L 237.546064 220.884706 
L 237.98155 220.693119 
L 238.417035 219.408312 
L 239.288006 218.421198 
L 239.723492 217.518676 
L 240.158978 217.500457 
L 240.594463 217.780766 
L 241.90092 216.974755 
L 242.771892 217.402259 
L 243.642863 215.674127 
L 244.078349 216.349491 
L 244.94932 216.805187 
L 245.820291 214.55018 
L 246.255777 213.840275 
L 247.126748 213.548852 
L 247.562234 213.087866 
L 247.997719 212.452801 
L 248.433205 212.233946 
L 249.304176 210.446986 
L 249.739662 210.274396 
L 250.175147 209.268594 
L 250.610633 209.070982 
L 251.046119 209.538991 
L 251.481604 209.559726 
L 251.91709 209.287055 
L 252.352576 208.536426 
L 252.788061 208.167266 
L 253.223547 208.198001 
L 253.659033 207.53635 
L 254.094518 207.559386 
L 256.271946 206.361901 
L 256.707432 206.26136 
L 257.578403 203.943164 
L 258.449375 201.74631 
L 258.88486 200.833057 
L 259.755832 201.109811 
L 260.626803 200.834922 
L 261.062289 201.209135 
L 261.497774 201.371484 
L 261.93326 200.260204 
L 262.804231 200.796596 
L 263.239717 199.980376 
L 263.675202 199.736536 
L 264.110688 200.099889 
L 264.981659 199.439244 
L 265.417145 199.197342 
L 265.852631 199.593377 
L 266.288116 200.24342 
L 266.723602 198.87469 
L 267.159087 198.595981 
L 267.594573 198.841649 
L 268.030059 198.399104 
L 268.465544 198.62701 
L 268.90103 197.318852 
L 269.336516 196.675079 
L 269.772001 196.244364 
L 270.207487 196.231084 
L 270.642973 195.894549 
L 271.513944 195.892151 
L 271.94943 194.677549 
L 272.820401 194.689115 
L 273.255886 194.357247 
L 274.126858 192.75381 
L 274.562343 192.452314 
L 275.8688 192.526029 
L 276.304286 192.170438 
L 276.739772 192.521723 
L 277.610743 191.675056 
L 278.046229 191.361334 
L 278.481714 190.825576 
L 278.9172 191.089925 
L 279.352685 190.015563 
L 279.788171 189.46767 
L 280.223657 189.160962 
L 280.659142 188.413827 
L 281.094628 187.916499 
L 281.530114 187.667752 
L 282.401085 185.671656 
L 282.836571 185.414227 
L 283.272056 185.397611 
L 284.143027 184.503023 
L 284.578513 184.756342 
L 285.013999 183.603422 
L 285.449484 184.326202 
L 285.88497 184.771645 
L 286.755941 184.811521 
L 287.191427 184.614081 
L 287.626913 183.382681 
L 288.062398 183.566258 
L 288.93337 182.808429 
L 289.368855 181.87369 
L 289.804341 182.668138 
L 290.239826 182.48664 
L 290.675312 182.590448 
L 291.546283 181.401384 
L 291.981769 181.623262 
L 292.85274 180.886441 
L 293.288226 181.150613 
L 293.723712 180.892814 
L 294.594683 178.928341 
L 295.465654 178.185863 
L 295.90114 178.224883 
L 296.336625 177.095902 
L 296.772111 176.565142 
L 297.207597 176.479753 
L 297.643082 176.537251 
L 298.514054 175.87718 
L 298.949539 176.095815 
L 299.385025 175.817732 
L 299.820511 174.742948 
L 300.255996 174.399314 
L 300.691482 172.828572 
L 301.126967 172.99495 
L 301.562453 173.480367 
L 302.433424 172.942837 
L 302.86891 172.846321 
L 303.304396 172.53136 
L 303.739881 171.971829 
L 304.610853 171.769334 
L 305.046338 171.015765 
L 305.481824 171.608907 
L 306.352795 170.976129 
L 306.788281 170.229813 
L 307.223766 170.742281 
L 307.659252 171.078429 
L 308.530223 172.769447 
L 308.965709 171.638639 
L 309.401195 171.501697 
L 309.83668 170.944103 
L 310.707652 168.247657 
L 311.143137 167.637034 
L 311.578623 166.530067 
L 312.014109 166.526623 
L 312.449594 165.607522 
L 312.88508 165.805786 
L 313.320565 164.672957 
L 313.756051 165.184888 
L 314.627022 164.508439 
L 315.062508 164.230887 
L 315.497994 164.097925 
L 315.933479 163.747055 
L 316.368965 163.778891 
L 316.804451 163.544617 
L 317.675422 162.389375 
L 318.546393 163.303617 
L 318.981879 162.769935 
L 319.417364 161.193039 
L 319.85285 161.863417 
L 320.288336 162.217547 
L 320.723821 161.51459 
L 321.159307 161.180594 
L 321.594793 161.59143 
L 322.030278 160.543189 
L 322.465764 160.988701 
L 322.90125 160.839707 
L 323.772221 162.421257 
L 324.207706 162.903715 
L 324.643192 163.843204 
L 325.078678 163.435078 
L 325.514163 163.416989 
L 325.949649 163.074263 
L 326.82062 162.969388 
L 327.691592 161.477907 
L 328.127077 161.960134 
L 328.562563 160.86726 
L 328.998049 159.473986 
L 329.86902 158.043534 
L 330.739991 159.5279 
L 331.175477 159.940943 
L 331.610962 158.663133 
L 332.046448 159.129821 
L 332.481934 159.780236 
L 333.352905 160.310651 
L 334.223876 159.76071 
L 334.659362 160.066583 
L 335.094847 159.651134 
L 335.965819 159.328096 
L 336.401304 159.619675 
L 336.83679 159.616402 
L 337.272276 159.011766 
L 337.707761 157.448876 
L 338.143247 157.542875 
L 338.578733 157.076562 
L 339.449704 154.669797 
L 340.320675 154.498993 
L 340.756161 155.045967 
L 341.191646 154.936927 
L 341.627132 155.198513 
L 342.062618 154.793868 
L 342.498103 155.089895 
L 342.933589 155.173913 
L 343.369075 154.552543 
L 343.80456 154.688151 
L 344.675532 154.507136 
L 345.111017 154.998294 
L 345.546503 153.994536 
L 345.981989 152.490389 
L 346.417474 152.308088 
L 346.85296 152.298566 
L 347.288445 152.537718 
L 347.723931 152.905025 
L 349.030388 152.535621 
L 349.465874 152.887593 
L 349.901359 152.878927 
L 351.207816 148.949447 
L 351.643302 150.003055 
L 352.078787 150.688384 
L 352.514273 149.697081 
L 352.949759 150.040042 
L 353.385244 150.106142 
L 353.82073 150.490711 
L 354.256216 151.084838 
L 354.691701 151.975037 
L 355.127187 150.414184 
L 355.562673 150.141198 
L 355.998158 149.706357 
L 356.433644 149.990734 
L 356.86913 150.889469 
L 357.304615 150.397108 
L 358.175586 150.012521 
L 358.611072 150.601291 
L 359.046558 149.617817 
L 359.482043 149.265388 
L 359.917529 148.503957 
L 360.353015 148.801806 
L 360.7885 148.380485 
L 361.223986 148.985251 
L 361.659472 148.796696 
L 362.094957 149.445722 
L 362.530443 149.87386 
L 362.965929 148.520752 
L 363.401414 148.579801 
L 363.8369 148.352191 
L 364.272385 147.460426 
L 364.707871 148.195501 
L 365.143357 147.375459 
L 365.578842 147.882333 
L 366.014328 147.481143 
L 366.449814 147.724943 
L 366.885299 148.535643 
L 367.320785 148.592494 
L 367.756271 148.365322 
L 368.627242 145.793495 
L 369.062728 146.466411 
L 369.498213 146.721745 
L 369.933699 147.283462 
L 370.369184 145.165044 
L 370.80467 145.068393 
L 371.675641 143.905544 
L 372.111127 143.416126 
L 372.546613 144.124243 
L 372.982098 143.70685 
L 373.417584 144.100948 
L 373.85307 143.996131 
L 374.724041 142.979257 
L 375.159526 142.73577 
L 375.595012 141.688853 
L 376.030498 141.813643 
L 376.465983 141.809903 
L 376.901469 142.131779 
L 377.336955 141.035857 
L 377.77244 140.965008 
L 378.207926 140.729926 
L 378.643412 140.817108 
L 379.078897 141.146208 
L 379.949869 143.250913 
L 380.385354 143.089599 
L 380.82084 142.64726 
L 381.256325 142.438555 
L 381.691811 141.905463 
L 382.127297 141.736547 
L 382.562782 140.480378 
L 382.998268 140.885176 
L 383.433754 139.634435 
L 383.869239 139.832654 
L 384.304725 139.874686 
L 384.740211 139.479195 
L 385.611182 139.564161 
L 386.046668 139.945899 
L 386.917639 139.281259 
L 387.353124 138.730478 
L 387.78861 137.584314 
L 388.224096 136.85801 
L 388.659581 136.926839 
L 389.095067 136.073518 
L 389.530553 135.727407 
L 389.966038 136.167763 
L 390.401524 134.568299 
L 390.83701 134.393081 
L 391.272495 132.746493 
L 391.707981 132.418011 
L 392.143466 131.506028 
L 392.578952 131.749739 
L 393.014438 129.774305 
L 393.449923 128.708131 
L 393.885409 128.455696 
L 394.320895 127.898403 
L 394.75638 128.306415 
L 395.191866 128.483988 
L 395.627352 128.999404 
L 396.062837 129.22138 
L 396.498323 130.44861 
L 396.933809 129.317648 
L 397.369294 129.536952 
L 397.80478 129.233413 
L 398.240265 128.177994 
L 398.675751 128.127659 
L 399.111237 127.928993 
L 399.546722 126.436004 
L 399.982208 126.039777 
L 400.417694 126.208616 
L 400.853179 126.233374 
L 401.288665 125.522442 
L 401.724151 124.354451 
L 402.159636 124.38582 
L 402.595122 124.193195 
L 403.030608 123.23652 
L 403.466093 122.959457 
L 403.901579 122.828191 
L 404.337064 123.653468 
L 404.77255 123.263854 
L 405.208036 121.655029 
L 405.208036 121.655029 
" style="fill:none;stroke:#1f77b4;stroke-linecap:square;stroke-opacity:0.8;stroke-width:1.5;"/>
   </g>
   <g id="line2d_18">
    <path clip-path="url(#p3c51623f51)" d="M 150.01345 282.357711 
L 160.02962 282.276836 
L 162.207048 282.247899 
L 174.400646 282.174673 
L 177.01356 282.182261 
L 186.594244 282.215651 
L 190.078129 282.19318 
L 193.9975 282.258915 
L 194.432985 282.541657 
L 221.868581 282.8652 
L 233.191207 282.708426 
L 234.062179 282.791976 
L 237.110578 282.814981 
L 247.562234 282.921668 
L 285.013999 282.853653 
L 301.997939 282.815884 
L 304.610853 282.828453 
L 313.320565 282.921076 
L 313.756051 283.070093 
L 316.804451 283.078651 
L 338.143247 283.008256 
L 345.111017 282.956571 
L 347.288445 282.937607 
L 354.256216 282.957139 
L 372.546613 282.995309 
L 372.982098 282.845299 
L 377.77244 282.8652 
L 394.320895 282.900491 
L 396.933809 282.901341 
L 397.369294 282.898103 
L 397.80478 282.750584 
L 405.208036 282.770918 
L 405.208036 282.770918 
" style="fill:none;stroke:#ff7f0e;stroke-linecap:square;stroke-opacity:0.8;stroke-width:1.5;"/>
   </g>
   <g id="line2d_19">
    <path clip-path="url(#p3c51623f51)" d="M 150.01345 286.06387 
L 188.771672 286.075179 
L 197.916871 286.082733 
L 198.787842 286.026873 
L 211.852411 286.024609 
L 226.658923 286.088391 
L 231.884751 286.106858 
L 260.191317 286.03581 
L 272.820401 285.950237 
L 301.126967 285.835914 
L 368.627242 285.953821 
L 369.933699 285.999835 
L 374.288555 286.010693 
L 385.611182 285.88781 
L 400.417694 285.900741 
L 405.208036 285.918265 
L 405.208036 285.918265 
" style="fill:none;stroke:#2ca02c;stroke-linecap:square;stroke-opacity:0.8;stroke-width:1.5;"/>
   </g>
   <g id="line2d_20">
    <path clip-path="url(#p3c51623f51)" d="M 150.01345 256.588918 
L 150.448936 256.588725 
L 150.884421 256.230325 
L 151.319907 256.234432 
L 152.626364 255.274453 
L 153.06185 255.042071 
L 153.932821 255.04201 
L 154.803792 254.470821 
L 155.674763 254.479025 
L 156.110249 254.096938 
L 156.545735 254.118184 
L 156.98122 253.807932 
L 157.416706 253.77044 
L 158.723163 253.152633 
L 159.158648 252.666492 
L 159.594134 252.659934 
L 160.02962 252.229166 
L 160.465105 252.191994 
L 160.900591 251.998172 
L 161.771562 251.982893 
L 162.642534 251.303198 
L 163.078019 251.292345 
L 164.384476 250.644706 
L 164.819962 250.639093 
L 165.255447 250.410313 
L 165.690933 249.893533 
L 166.126419 249.97941 
L 167.432876 249.22067 
L 167.868361 249.298568 
L 168.303847 248.8939 
L 168.739333 248.673199 
L 169.610304 247.955991 
L 170.04579 247.585904 
L 170.481275 247.592958 
L 170.916761 247.151799 
L 171.352246 246.947709 
L 172.223218 247.013442 
L 172.658703 246.833029 
L 173.094189 246.836075 
L 173.96516 246.43373 
L 175.271617 246.664066 
L 176.142588 246.643515 
L 177.01356 245.762833 
L 177.449045 245.885811 
L 177.884531 245.841362 
L 178.320017 245.608489 
L 178.755502 245.72522 
L 179.626474 245.222277 
L 180.497445 244.91714 
L 183.110359 244.84515 
L 184.852301 243.383084 
L 185.287787 243.382611 
L 186.158758 243.647134 
L 187.02973 243.177219 
L 187.465215 243.162748 
L 188.336186 242.76296 
L 188.771672 242.482527 
L 189.207158 242.638102 
L 190.078129 242.397479 
L 190.513615 242.417652 
L 191.820072 243.016882 
L 192.691043 242.418862 
L 193.126528 242.039921 
L 193.9975 241.908309 
L 194.432985 241.682751 
L 194.868471 241.330182 
L 196.174928 241.163332 
L 197.481385 239.737233 
L 197.916871 239.948518 
L 198.352356 239.92404 
L 199.658813 239.000011 
L 200.529784 238.91328 
L 200.96527 239.094324 
L 201.836241 239.085397 
L 202.271727 238.806894 
L 202.707213 238.890516 
L 203.142698 238.565251 
L 203.578184 238.555506 
L 204.01367 238.274948 
L 204.449155 238.486891 
L 204.884641 238.445295 
L 205.320126 237.923692 
L 205.755612 238.229639 
L 206.191098 238.03835 
L 206.626583 237.616646 
L 207.062069 237.475225 
L 207.497555 237.79834 
L 207.93304 237.771682 
L 208.804012 237.112416 
L 209.239497 237.075377 
L 209.674983 237.317017 
L 210.545954 236.605421 
L 210.98144 236.622465 
L 211.416925 236.354833 
L 211.852411 236.383429 
L 212.287897 236.112055 
L 212.723382 236.364782 
L 213.594354 235.885422 
L 214.465325 235.097153 
L 214.900811 234.703831 
L 215.336296 235.011635 
L 216.642753 233.632002 
L 217.513724 234.053004 
L 217.94921 233.583978 
L 218.384696 232.904299 
L 218.820181 233.112861 
L 219.691153 231.990211 
L 220.126638 232.23001 
L 220.562124 232.005543 
L 220.99761 232.021313 
L 221.868581 231.203453 
L 222.304066 230.967254 
L 222.739552 230.495566 
L 223.175038 230.384286 
L 223.610523 230.051684 
L 225.787952 229.182308 
L 226.223437 229.396229 
L 226.658923 229.087689 
L 227.529894 228.937692 
L 228.400865 229.468674 
L 228.836351 229.467575 
L 229.707322 230.200014 
L 230.142808 230.160318 
L 230.578294 229.88803 
L 231.013779 230.17705 
L 231.449265 230.169332 
L 231.884751 229.781929 
L 232.320236 229.097223 
L 232.755722 229.065289 
L 233.191207 228.729697 
L 234.062179 227.476899 
L 234.497664 227.306462 
L 234.93315 227.558965 
L 235.368636 226.768526 
L 235.804121 227.12986 
L 236.239607 227.136466 
L 236.675093 226.832207 
L 237.546064 226.662824 
L 237.98155 226.457856 
L 238.852521 225.461248 
L 239.723492 226.028881 
L 240.158978 225.686491 
L 240.594463 225.673423 
L 241.029949 226.01857 
L 241.465435 225.989765 
L 241.90092 226.267959 
L 242.336406 226.042269 
L 242.771892 225.572235 
L 243.207377 225.678586 
L 243.642863 225.114423 
L 244.513834 225.138027 
L 244.94932 224.801308 
L 245.384805 224.816526 
L 246.255777 223.976124 
L 246.691262 223.187164 
L 247.126748 222.689981 
L 247.562234 223.068383 
L 247.997719 222.652244 
L 248.868691 223.205657 
L 249.739662 222.951197 
L 250.175147 223.007713 
L 250.610633 223.52948 
L 251.481604 222.773468 
L 251.91709 222.745606 
L 252.352576 222.169294 
L 252.788061 222.174133 
L 253.223547 222.297496 
L 254.094518 222.834857 
L 254.530004 222.26122 
L 254.96549 222.357353 
L 255.400975 222.034964 
L 255.836461 222.494099 
L 256.271946 222.68875 
L 256.707432 222.445082 
L 257.142918 221.981325 
L 257.578403 221.938324 
L 258.013889 221.213557 
L 258.449375 221.199884 
L 260.626803 219.402079 
L 261.062289 219.401099 
L 261.497774 219.673817 
L 262.368745 219.68892 
L 262.804231 219.849568 
L 263.239717 219.828088 
L 263.675202 219.189534 
L 264.110688 219.045984 
L 264.546174 219.218013 
L 264.981659 219.16247 
L 265.417145 218.831941 
L 265.852631 218.838674 
L 266.288116 217.72437 
L 266.723602 217.063514 
L 267.594573 216.516967 
L 268.030059 215.566809 
L 268.90103 215.650948 
L 269.336516 215.502446 
L 269.772001 215.76768 
L 271.078458 215.786842 
L 271.513944 215.967423 
L 271.94943 216.282242 
L 272.384915 216.451583 
L 272.820401 216.067399 
L 273.255886 216.315048 
L 273.691372 215.806296 
L 274.126858 215.800911 
L 274.562343 216.088568 
L 274.997829 215.245514 
L 275.433315 214.64915 
L 276.304286 212.635229 
L 276.739772 212.635585 
L 278.046229 213.347189 
L 278.481714 213.308073 
L 278.9172 212.801112 
L 279.352685 212.936718 
L 279.788171 213.266039 
L 280.659142 213.165004 
L 281.094628 212.664194 
L 281.530114 212.579577 
L 281.965599 213.133009 
L 282.836571 212.64933 
L 283.272056 212.041905 
L 284.578513 212.843146 
L 285.013999 212.565462 
L 285.88497 211.218451 
L 286.320456 211.189237 
L 286.755941 210.867107 
L 287.191427 211.316829 
L 287.626913 211.258037 
L 288.062398 210.81964 
L 288.497884 210.65906 
L 288.93337 210.927072 
L 289.368855 210.230357 
L 290.675312 210.079468 
L 291.110798 209.628273 
L 291.981769 210.327587 
L 292.85274 209.361592 
L 293.288226 208.518765 
L 293.723712 208.804642 
L 294.594683 207.673698 
L 295.030169 207.671607 
L 295.465654 208.292599 
L 295.90114 207.680013 
L 296.336625 206.866429 
L 297.207597 206.991198 
L 297.643082 206.746029 
L 298.078568 206.969271 
L 298.514054 206.703985 
L 298.949539 206.897165 
L 300.255996 205.253912 
L 300.691482 204.980317 
L 301.126967 205.671961 
L 301.562453 205.78907 
L 301.997939 205.148723 
L 302.86891 205.187923 
L 303.304396 205.75591 
L 303.739881 205.739083 
L 304.610853 207.033874 
L 305.481824 206.403769 
L 305.91731 206.660128 
L 306.352795 206.359955 
L 306.788281 206.66797 
L 308.094738 205.507644 
L 308.530223 205.998908 
L 308.965709 205.980108 
L 309.401195 206.210792 
L 309.83668 205.188351 
L 310.707652 205.629536 
L 311.143137 205.515152 
L 311.578623 205.768762 
L 312.014109 204.854138 
L 312.449594 205.112837 
L 312.88508 205.069556 
L 313.320565 204.485292 
L 313.756051 203.576531 
L 314.191537 203.330926 
L 315.062508 203.342349 
L 315.497994 203.666586 
L 315.933479 203.42969 
L 316.804451 203.512778 
L 317.675422 202.904188 
L 318.110907 202.351889 
L 318.546393 202.692903 
L 318.981879 202.8089 
L 319.417364 201.967611 
L 319.85285 201.929966 
L 320.288336 202.706334 
L 320.723821 201.993344 
L 321.159307 202.027655 
L 321.594793 201.705584 
L 322.030278 200.785064 
L 322.90125 201.628874 
L 323.336735 201.673784 
L 323.772221 201.393924 
L 324.643192 201.363241 
L 325.078678 200.808193 
L 325.949649 198.823544 
L 326.385135 197.738348 
L 326.82062 197.717282 
L 327.256106 197.940936 
L 327.691592 198.417019 
L 328.127077 198.251177 
L 328.562563 197.702671 
L 328.998049 198.101762 
L 329.433534 197.40146 
L 329.86902 197.937626 
L 330.304505 197.929901 
L 330.739991 198.57192 
L 331.175477 198.761725 
L 331.610962 199.221221 
L 332.046448 200.045636 
L 332.481934 198.793173 
L 332.917419 199.175027 
L 333.352905 199.117931 
L 334.223876 197.667623 
L 335.094847 197.477185 
L 335.530333 196.552019 
L 335.965819 196.902742 
L 336.401304 196.605062 
L 336.83679 196.912533 
L 337.272276 197.789698 
L 337.707761 197.279478 
L 338.143247 197.531804 
L 338.578733 197.510775 
L 339.449704 198.087122 
L 339.88519 198.369031 
L 341.191646 198.386791 
L 341.627132 197.950624 
L 342.062618 197.774566 
L 342.498103 197.076383 
L 342.933589 197.524464 
L 343.369075 197.738726 
L 343.80456 198.437437 
L 344.240046 198.096799 
L 344.675532 198.421551 
L 345.111017 197.59086 
L 345.546503 197.186511 
L 345.981989 197.138075 
L 347.288445 193.813086 
L 347.723931 193.794901 
L 348.159417 192.804434 
L 349.030388 193.122237 
L 349.465874 192.181917 
L 349.901359 191.87724 
L 350.336845 192.432074 
L 350.772331 192.092571 
L 351.207816 192.01111 
L 351.643302 191.507469 
L 352.078787 190.506215 
L 352.514273 189.919922 
L 353.385244 190.660491 
L 353.82073 190.373549 
L 354.256216 190.451567 
L 354.691701 189.319665 
L 355.127187 188.95763 
L 355.998158 186.411279 
L 356.433644 186.616497 
L 356.86913 184.917435 
L 357.304615 184.785231 
L 357.740101 185.474897 
L 358.175586 184.383547 
L 358.611072 184.585427 
L 359.046558 183.559922 
L 359.482043 182.861894 
L 359.917529 183.717626 
L 360.7885 185.021866 
L 361.223986 185.684632 
L 362.094957 185.592072 
L 362.530443 185.577889 
L 362.965929 184.399801 
L 363.401414 184.151579 
L 363.8369 183.678359 
L 364.272385 183.741631 
L 364.707871 182.514478 
L 365.143357 182.864765 
L 365.578842 182.028803 
L 366.014328 182.87285 
L 366.449814 183.443409 
L 366.885299 183.185938 
L 367.320785 183.671307 
L 367.756271 183.929994 
L 368.191756 183.904351 
L 368.627242 183.707634 
L 369.062728 182.462754 
L 369.498213 182.196659 
L 369.933699 182.246337 
L 370.369184 182.971795 
L 370.80467 183.094649 
L 371.240156 181.701396 
L 371.675641 182.001464 
L 372.111127 181.980202 
L 372.546613 181.017974 
L 372.982098 181.898181 
L 373.417584 182.07141 
L 374.288555 182.054889 
L 374.724041 181.14495 
L 375.159526 181.340634 
L 375.595012 180.601534 
L 376.030498 181.412218 
L 376.901469 181.430579 
L 377.77244 180.322944 
L 378.207926 179.986396 
L 378.643412 178.672423 
L 379.514383 179.731397 
L 379.949869 179.738853 
L 380.385354 179.591788 
L 381.256325 181.179072 
L 381.691811 181.302279 
L 382.127297 181.802473 
L 382.562782 180.162182 
L 382.998268 180.163539 
L 383.433754 180.879379 
L 383.869239 180.457189 
L 385.175696 182.162617 
L 385.611182 183.144366 
L 386.046668 183.196411 
L 386.482153 183.449384 
L 386.917639 183.413419 
L 387.353124 182.118211 
L 387.78861 182.50339 
L 389.095067 179.813699 
L 389.530553 178.405277 
L 389.966038 177.388419 
L 390.401524 177.678495 
L 390.83701 177.655351 
L 391.272495 178.676501 
L 391.707981 178.727452 
L 392.143466 178.421188 
L 393.014438 179.51857 
L 393.449923 178.665923 
L 393.885409 179.13646 
L 394.320895 178.891373 
L 394.75638 178.886875 
L 396.062837 175.296148 
L 396.498323 175.319226 
L 396.933809 176.559899 
L 397.369294 174.93574 
L 397.80478 174.971963 
L 398.240265 175.553825 
L 398.675751 176.422252 
L 399.111237 175.842509 
L 399.546722 175.529959 
L 399.982208 175.497864 
L 400.417694 175.748011 
L 400.853179 175.736733 
L 401.724151 173.673391 
L 402.159636 173.713064 
L 402.595122 172.417866 
L 403.030608 173.312085 
L 403.466093 171.798099 
L 403.901579 172.365497 
L 404.337064 173.589204 
L 404.77255 173.328624 
L 405.208036 173.313118 
L 405.208036 173.313118 
" style="fill:none;stroke:#d62728;stroke-linecap:square;stroke-opacity:0.8;stroke-width:1.5;"/>
   </g>
   <g id="line2d_21">
    <path clip-path="url(#p3c51623f51)" d="M 150.01345 240.879724 
L 150.884421 240.134546 
L 151.755393 239.280806 
L 153.497335 238.059891 
L 153.932821 237.685174 
L 154.368306 237.610241 
L 154.803792 237.156838 
L 155.239278 237.11646 
L 156.545735 235.949673 
L 157.416706 235.156952 
L 157.852192 235.202261 
L 158.287677 234.839299 
L 158.723163 234.271885 
L 159.158648 234.209123 
L 160.02962 233.55566 
L 160.465105 233.156569 
L 160.900591 232.913561 
L 162.642534 231.204615 
L 163.513505 230.505003 
L 163.948991 230.028476 
L 164.384476 229.925912 
L 166.561904 227.611474 
L 166.99739 227.290324 
L 167.868361 226.371873 
L 168.739333 225.592344 
L 169.174818 225.490182 
L 169.610304 225.254154 
L 170.481275 224.416126 
L 170.916761 224.035965 
L 171.352246 224.147929 
L 172.223218 223.501935 
L 172.658703 223.114442 
L 173.094189 223.168338 
L 173.96516 222.398616 
L 174.400646 222.5944 
L 175.271617 221.881016 
L 176.578074 219.918595 
L 177.884531 218.812098 
L 178.320017 218.685597 
L 178.755502 218.429898 
L 179.190988 218.553845 
L 180.497445 217.240297 
L 180.932931 216.779583 
L 181.803902 216.66011 
L 182.239387 216.004954 
L 182.674873 215.950192 
L 183.110359 215.592539 
L 183.545844 215.470332 
L 183.98133 214.669556 
L 184.416816 214.239334 
L 184.852301 213.040597 
L 186.594244 210.98133 
L 187.02973 210.760346 
L 187.465215 210.392929 
L 188.771672 208.865682 
L 189.207158 208.651782 
L 189.642643 208.105587 
L 190.078129 207.171436 
L 190.513615 207.050437 
L 191.820072 205.36763 
L 192.255557 204.236843 
L 192.691043 203.487843 
L 193.126528 203.694784 
L 193.562014 203.389164 
L 193.9975 202.674291 
L 194.432985 202.500803 
L 195.739442 201.107181 
L 196.174928 200.795077 
L 197.481385 199.402791 
L 197.916871 199.663125 
L 199.658813 197.875665 
L 200.529784 195.894737 
L 201.400756 195.102383 
L 202.271727 194.391062 
L 203.578184 192.766329 
L 204.449155 191.591511 
L 205.755612 190.948488 
L 207.93304 188.346568 
L 208.368526 188.263249 
L 208.804012 187.869603 
L 209.239497 187.198649 
L 209.674983 187.09595 
L 210.545954 186.158382 
L 210.98144 185.580493 
L 211.416925 184.712198 
L 212.723382 183.390623 
L 213.158868 183.169022 
L 215.771782 180.920473 
L 216.207267 180.195769 
L 216.642753 179.991988 
L 218.384696 178.269234 
L 218.820181 178.271727 
L 219.691153 177.227321 
L 220.126638 176.523826 
L 220.99761 175.721362 
L 221.433095 175.219005 
L 221.868581 175.164924 
L 222.304066 174.475171 
L 222.739552 174.090243 
L 223.175038 173.980397 
L 224.046009 173.402016 
L 224.481495 172.931438 
L 224.91698 172.860626 
L 226.223437 172.045753 
L 227.529894 170.613978 
L 227.96538 169.893421 
L 228.836351 168.120913 
L 230.142808 167.12403 
L 230.578294 166.544237 
L 231.013779 166.262361 
L 231.449265 165.768387 
L 231.884751 165.488062 
L 232.320236 165.357221 
L 232.755722 165.103165 
L 234.497664 164.580093 
L 235.368636 162.836358 
L 235.804121 163.255167 
L 236.239607 162.975162 
L 237.110578 161.784272 
L 237.546064 161.155083 
L 237.98155 160.784346 
L 238.852521 159.65879 
L 239.288006 159.134316 
L 239.723492 158.961162 
L 240.158978 158.350852 
L 240.594463 157.958087 
L 241.029949 157.08498 
L 242.336406 155.646399 
L 242.771892 154.893345 
L 243.207377 154.462698 
L 243.642863 155.059284 
L 244.078349 154.185476 
L 244.94932 152.974464 
L 245.384805 153.074458 
L 245.820291 152.352029 
L 246.255777 151.904909 
L 246.691262 151.24882 
L 247.126748 150.810025 
L 247.562234 151.102193 
L 247.997719 150.953588 
L 248.868691 149.995005 
L 249.304176 150.143818 
L 250.175147 149.623559 
L 250.610633 148.970281 
L 251.046119 148.61534 
L 251.481604 148.58583 
L 251.91709 148.107455 
L 252.352576 148.03551 
L 253.659033 146.65519 
L 254.530004 145.129446 
L 254.96549 145.69372 
L 255.836461 144.733956 
L 256.271946 144.0564 
L 257.142918 143.641602 
L 257.578403 143.596399 
L 258.449375 142.883271 
L 258.88486 143.308544 
L 259.320346 142.589265 
L 259.755832 142.515365 
L 260.191317 142.286791 
L 260.626803 141.435312 
L 261.062289 139.566562 
L 261.497774 139.931016 
L 263.675202 137.008585 
L 264.110688 136.031196 
L 264.546174 135.850005 
L 264.981659 136.347138 
L 265.417145 136.013332 
L 265.852631 135.889915 
L 266.723602 134.475985 
L 267.159087 134.295482 
L 267.594573 134.444961 
L 268.465544 134.943367 
L 268.90103 134.959014 
L 269.336516 134.715683 
L 269.772001 135.579452 
L 270.207487 135.350175 
L 270.642973 134.881179 
L 271.513944 132.882122 
L 271.94943 132.352862 
L 272.384915 131.227264 
L 272.820401 130.921169 
L 273.255886 131.187454 
L 274.126858 130.266956 
L 274.562343 130.472945 
L 274.997829 130.472539 
L 275.433315 129.84273 
L 276.304286 129.158827 
L 276.739772 128.670552 
L 277.175257 128.821056 
L 277.610743 128.357374 
L 278.046229 127.326443 
L 278.481714 126.604436 
L 278.9172 126.934149 
L 279.352685 126.846895 
L 279.788171 126.206181 
L 280.223657 126.603031 
L 280.659142 126.050344 
L 282.401085 125.708163 
L 282.836571 124.739305 
L 283.272056 124.707466 
L 284.143027 123.980399 
L 284.578513 123.881976 
L 285.013999 123.952392 
L 285.88497 123.540196 
L 286.320456 123.175436 
L 287.626913 121.339051 
L 288.062398 120.249117 
L 288.497884 119.597867 
L 288.93337 119.28781 
L 289.804341 118.030624 
L 290.675312 116.291524 
L 291.110798 115.943162 
L 291.546283 116.02483 
L 292.85274 114.822705 
L 293.288226 114.617156 
L 293.723712 113.970594 
L 295.030169 111.377009 
L 295.465654 111.094845 
L 296.772111 109.100567 
L 297.207597 109.074757 
L 298.078568 107.986117 
L 298.514054 107.400674 
L 298.949539 107.10362 
L 299.385025 106.349404 
L 299.820511 106.978168 
L 300.255996 107.05908 
L 300.691482 106.658774 
L 301.126967 107.61244 
L 301.562453 106.663624 
L 301.997939 106.071554 
L 302.433424 105.253126 
L 303.304396 104.653801 
L 304.610853 102.76846 
L 305.046338 102.685726 
L 305.481824 102.275809 
L 305.91731 101.241395 
L 306.352795 101.093677 
L 306.788281 100.292436 
L 307.659252 99.228369 
L 308.094738 99.158518 
L 308.530223 99.757883 
L 309.83668 99.322471 
L 310.272166 98.932778 
L 310.707652 99.395304 
L 311.143137 98.85292 
L 311.578623 98.626229 
L 312.014109 98.81475 
L 312.449594 98.251503 
L 312.88508 97.980232 
L 313.320565 98.595171 
L 313.756051 97.579816 
L 314.627022 96.565525 
L 315.062508 96.07551 
L 315.497994 95.373423 
L 315.933479 94.937414 
L 316.368965 95.225346 
L 317.239936 94.140277 
L 317.675422 93.945787 
L 318.110907 93.410032 
L 318.546393 92.431172 
L 318.981879 91.983986 
L 319.417364 92.366464 
L 319.85285 91.943548 
L 320.288336 91.774859 
L 321.159307 90.107921 
L 321.594793 89.469507 
L 322.030278 90.103375 
L 322.465764 89.232758 
L 322.90125 89.264848 
L 323.336735 90.138598 
L 323.772221 89.84658 
L 324.207706 89.343227 
L 324.643192 89.721722 
L 325.514163 88.361523 
L 326.82062 87.591304 
L 327.256106 87.641954 
L 328.127077 86.71972 
L 328.562563 85.030319 
L 328.998049 85.297673 
L 329.433534 85.068273 
L 329.86902 85.027115 
L 330.739991 83.378087 
L 331.175477 83.609085 
L 331.610962 82.130813 
L 332.046448 82.560813 
L 332.481934 81.245086 
L 333.352905 82.125386 
L 334.223876 80.139046 
L 334.659362 79.733464 
L 335.094847 79.773047 
L 335.530333 79.966533 
L 335.965819 79.229886 
L 336.83679 79.823385 
L 337.272276 78.445878 
L 337.707761 79.012392 
L 338.143247 79.395223 
L 339.014218 79.068881 
L 339.449704 78.983033 
L 339.88519 77.281701 
L 340.320675 76.651139 
L 340.756161 76.248975 
L 341.627132 74.970163 
L 342.498103 75.647122 
L 342.933589 74.450559 
L 343.369075 74.054649 
L 343.80456 73.035863 
L 344.240046 73.411557 
L 345.111017 72.463641 
L 345.546503 72.739632 
L 345.981989 73.83525 
L 346.417474 72.909113 
L 347.288445 72.137437 
L 347.723931 72.034875 
L 348.159417 71.568237 
L 349.030388 70.080573 
L 349.901359 68.693872 
L 350.336845 69.311434 
L 350.772331 68.553592 
L 352.078787 66.90558 
L 352.514273 66.243325 
L 353.385244 64.191149 
L 353.82073 63.8157 
L 354.256216 63.151962 
L 354.691701 61.777208 
L 355.127187 62.316945 
L 355.998158 62.267297 
L 356.433644 63.288896 
L 356.86913 63.589471 
L 357.304615 63.092348 
L 357.740101 63.645397 
L 358.175586 62.426001 
L 358.611072 62.377758 
L 359.482043 60.301975 
L 359.917529 59.999293 
L 360.7885 58.705659 
L 361.223986 58.607973 
L 361.659472 58.700342 
L 362.094957 57.999497 
L 362.530443 57.92702 
L 362.965929 57.56123 
L 364.272385 54.639047 
L 364.707871 54.199058 
L 365.143357 54.554158 
L 366.014328 52.73307 
L 366.449814 53.531732 
L 367.320785 52.175199 
L 367.756271 51.638446 
L 368.191756 52.105723 
L 369.062728 52.487508 
L 369.498213 52.792539 
L 369.933699 52.933664 
L 370.369184 52.714521 
L 370.80467 51.968704 
L 371.240156 51.529888 
L 371.675641 52.365119 
L 372.111127 51.696617 
L 372.546613 51.472369 
L 372.982098 52.888717 
L 373.85307 52.542376 
L 374.724041 51.720747 
L 375.159526 51.231749 
L 375.595012 50.922886 
L 376.030498 51.921304 
L 377.77244 50.004751 
L 378.207926 48.771331 
L 379.078897 49.438233 
L 379.514383 49.0298 
L 379.949869 49.004416 
L 380.385354 48.841052 
L 380.82084 49.840978 
L 381.256325 50.024637 
L 381.691811 51.348897 
L 382.998268 49.667935 
L 383.433754 49.169323 
L 383.869239 48.277288 
L 384.304725 48.097705 
L 384.740211 47.07155 
L 385.175696 46.391683 
L 385.611182 46.154659 
L 386.046668 44.984725 
L 386.482153 45.506209 
L 386.917639 46.881418 
L 387.78861 47.217957 
L 388.224096 46.806757 
L 389.530553 46.085368 
L 390.401524 44.748156 
L 390.83701 44.904697 
L 391.707981 43.735555 
L 392.578952 43.551452 
L 393.014438 42.862222 
L 393.449923 41.351802 
L 393.885409 41.34536 
L 394.320895 40.9234 
L 394.75638 39.853365 
L 395.191866 39.539005 
L 395.627352 39.851112 
L 396.062837 40.571848 
L 396.498323 40.924161 
L 396.933809 39.785397 
L 397.369294 39.991994 
L 397.80478 39.776274 
L 398.240265 38.397365 
L 398.675751 38.815699 
L 399.111237 36.755373 
L 399.982208 35.549761 
L 401.288665 36.028305 
L 401.724151 36.814537 
L 402.159636 36.886599 
L 402.595122 37.343615 
L 403.030608 36.628623 
L 403.466093 36.642841 
L 403.901579 36.091379 
L 404.337064 34.990125 
L 404.77255 35.689994 
L 405.208036 36.650894 
L 405.208036 36.650894 
" style="fill:none;stroke:#9467bd;stroke-linecap:square;stroke-opacity:0.8;stroke-width:1.5;"/>
   </g>
   <g id="patch_3">
    <path d="M 65.09375 288.430125 
L 65.09375 22.318125 
" style="fill:none;stroke:#000000;stroke-linecap:square;stroke-linejoin:miter;stroke-width:0.8;"/>
   </g>
   <g id="patch_4">
    <path d="M 422.21375 288.430125 
L 422.21375 22.318125 
" style="fill:none;stroke:#000000;stroke-linecap:square;stroke-linejoin:miter;stroke-width:0.8;"/>
   </g>
   <g id="patch_5">
    <path d="M 65.09375 288.430125 
L 422.21375 288.430125 
" style="fill:none;stroke:#000000;stroke-linecap:square;stroke-linejoin:miter;stroke-width:0.8;"/>
   </g>
   <g id="patch_6">
    <path d="M 65.09375 22.318125 
L 422.21375 22.318125 
" style="fill:none;stroke:#000000;stroke-linecap:square;stroke-linejoin:miter;stroke-width:0.8;"/>
   </g>
   <g id="text_19">
    <!-- Create [root] -->
    <g transform="translate(205.104688 16.318125)scale(0.12 -0.12)">
     <defs>
      <path d="M 64.40625 67.28125 
L 64.40625 56.890625 
Q 59.421875 61.53125 53.78125 63.8125 
Q 48.140625 66.109375 41.796875 66.109375 
Q 29.296875 66.109375 22.65625 58.46875 
Q 16.015625 50.828125 16.015625 36.375 
Q 16.015625 21.96875 22.65625 14.328125 
Q 29.296875 6.6875 41.796875 6.6875 
Q 48.140625 6.6875 53.78125 8.984375 
Q 59.421875 11.28125 64.40625 15.921875 
L 64.40625 5.609375 
Q 59.234375 2.09375 53.4375 0.328125 
Q 47.65625 -1.421875 41.21875 -1.421875 
Q 24.65625 -1.421875 15.125 8.703125 
Q 5.609375 18.84375 5.609375 36.375 
Q 5.609375 53.953125 15.125 64.078125 
Q 24.65625 74.21875 41.21875 74.21875 
Q 47.75 74.21875 53.53125 72.484375 
Q 59.328125 70.75 64.40625 67.28125 
z
" id="DejaVuSans-67"/>
      <path d="M 8.59375 75.984375 
L 29.296875 75.984375 
L 29.296875 69 
L 17.578125 69 
L 17.578125 -6.203125 
L 29.296875 -6.203125 
L 29.296875 -13.1875 
L 8.59375 -13.1875 
z
" id="DejaVuSans-91"/>
      <path d="M 30.421875 75.984375 
L 30.421875 -13.1875 
L 9.71875 -13.1875 
L 9.71875 -6.203125 
L 21.390625 -6.203125 
L 21.390625 69 
L 9.71875 69 
L 9.71875 75.984375 
z
" id="DejaVuSans-93"/>
     </defs>
     <use xlink:href="#DejaVuSans-67"/>
     <use x="69.824219" xlink:href="#DejaVuSans-114"/>
     <use x="108.6875" xlink:href="#DejaVuSans-101"/>
     <use x="170.210938" xlink:href="#DejaVuSans-97"/>
     <use x="231.490234" xlink:href="#DejaVuSans-116"/>
     <use x="270.699219" xlink:href="#DejaVuSans-101"/>
     <use x="332.222656" xlink:href="#DejaVuSans-32"/>
     <use x="364.009766" xlink:href="#DejaVuSans-91"/>
     <use x="403.023438" xlink:href="#DejaVuSans-114"/>
     <use x="441.886719" xlink:href="#DejaVuSans-111"/>
     <use x="503.068359" xlink:href="#DejaVuSans-111"/>
     <use x="564.25" xlink:href="#DejaVuSans-116"/>
     <use x="603.458984" xlink:href="#DejaVuSans-93"/>
    </g>
   </g>
   <g id="legend_1">
    <g id="patch_7">
     <path d="M 96.096094 365.802375 
L 383.691406 365.802375 
Q 385.691406 365.802375 385.691406 363.802375 
L 385.691406 335.446125 
Q 385.691406 333.446125 383.691406 333.446125 
L 96.096094 333.446125 
Q 94.096094 333.446125 94.096094 335.446125 
L 94.096094 363.802375 
Q 94.096094 365.802375 96.096094 365.802375 
z
" style="fill:#4c4c4c;opacity:0.5;stroke:#4c4c4c;stroke-linejoin:miter;"/>
    </g>
    <g id="patch_8">
     <path d="M 94.096094 363.802375 
L 381.691406 363.802375 
Q 383.691406 363.802375 383.691406 361.802375 
L 383.691406 333.446125 
Q 383.691406 331.446125 381.691406 331.446125 
L 94.096094 331.446125 
Q 92.096094 331.446125 92.096094 333.446125 
L 92.096094 361.802375 
Q 92.096094 363.802375 94.096094 363.802375 
z
" style="fill:#ffffff;stroke:#cccccc;stroke-linejoin:miter;"/>
    </g>
    <g id="line2d_22">
     <path d="M 96.096094 339.544562 
L 116.096094 339.544562 
" style="fill:none;stroke:#1f77b4;stroke-linecap:square;stroke-opacity:0.8;stroke-width:1.5;"/>
    </g>
    <g id="line2d_23"/>
    <g id="text_20">
     <!-- MPTT -->
     <g transform="translate(124.096094 343.044562)scale(0.1 -0.1)">
      <defs>
       <path d="M 9.8125 72.90625 
L 24.515625 72.90625 
L 43.109375 23.296875 
L 61.8125 72.90625 
L 76.515625 72.90625 
L 76.515625 0 
L 66.890625 0 
L 66.890625 64.015625 
L 48.09375 14.015625 
L 38.1875 14.015625 
L 19.390625 64.015625 
L 19.390625 0 
L 9.8125 0 
z
" id="DejaVuSans-77"/>
       <path d="M 19.671875 64.796875 
L 19.671875 37.40625 
L 32.078125 37.40625 
Q 38.96875 37.40625 42.71875 40.96875 
Q 46.484375 44.53125 46.484375 51.125 
Q 46.484375 57.671875 42.71875 61.234375 
Q 38.96875 64.796875 32.078125 64.796875 
z
M 9.8125 72.90625 
L 32.078125 72.90625 
Q 44.34375 72.90625 50.609375 67.359375 
Q 56.890625 61.8125 56.890625 51.125 
Q 56.890625 40.328125 50.609375 34.8125 
Q 44.34375 29.296875 32.078125 29.296875 
L 19.671875 29.296875 
L 19.671875 0 
L 9.8125 0 
z
" id="DejaVuSans-80"/>
       <path d="M -0.296875 72.90625 
L 61.375 72.90625 
L 61.375 64.59375 
L 35.5 64.59375 
L 35.5 0 
L 25.59375 0 
L 25.59375 64.59375 
L -0.296875 64.59375 
z
" id="DejaVuSans-84"/>
      </defs>
      <use xlink:href="#DejaVuSans-77"/>
      <use x="86.279297" xlink:href="#DejaVuSans-80"/>
      <use x="146.582031" xlink:href="#DejaVuSans-84"/>
      <use x="205.916016" xlink:href="#DejaVuSans-84"/>
     </g>
    </g>
    <g id="line2d_24">
     <path d="M 96.096094 354.222687 
L 116.096094 354.222687 
" style="fill:none;stroke:#ff7f0e;stroke-linecap:square;stroke-opacity:0.8;stroke-width:1.5;"/>
    </g>
    <g id="line2d_25"/>
    <g id="text_21">
     <!-- tree -->
     <g transform="translate(124.096094 357.722687)scale(0.1 -0.1)">
      <use xlink:href="#DejaVuSans-116"/>
      <use x="39.208984" xlink:href="#DejaVuSans-114"/>
      <use x="78.072266" xlink:href="#DejaVuSans-101"/>
      <use x="139.595703" xlink:href="#DejaVuSans-101"/>
     </g>
    </g>
    <g id="line2d_26">
     <path d="M 170.794531 339.544562 
L 190.794531 339.544562 
" style="fill:none;stroke:#2ca02c;stroke-linecap:square;stroke-opacity:0.8;stroke-width:1.5;"/>
    </g>
    <g id="line2d_27"/>
    <g id="text_22">
     <!-- treebeard AL -->
     <g transform="translate(198.794531 343.044562)scale(0.1 -0.1)">
      <defs>
       <path d="M 45.40625 46.390625 
L 45.40625 75.984375 
L 54.390625 75.984375 
L 54.390625 0 
L 45.40625 0 
L 45.40625 8.203125 
Q 42.578125 3.328125 38.25 0.953125 
Q 33.9375 -1.421875 27.875 -1.421875 
Q 17.96875 -1.421875 11.734375 6.484375 
Q 5.515625 14.40625 5.515625 27.296875 
Q 5.515625 40.1875 11.734375 48.09375 
Q 17.96875 56 27.875 56 
Q 33.9375 56 38.25 53.625 
Q 42.578125 51.265625 45.40625 46.390625 
z
M 14.796875 27.296875 
Q 14.796875 17.390625 18.875 11.75 
Q 22.953125 6.109375 30.078125 6.109375 
Q 37.203125 6.109375 41.296875 11.75 
Q 45.40625 17.390625 45.40625 27.296875 
Q 45.40625 37.203125 41.296875 42.84375 
Q 37.203125 48.484375 30.078125 48.484375 
Q 22.953125 48.484375 18.875 42.84375 
Q 14.796875 37.203125 14.796875 27.296875 
z
" id="DejaVuSans-100"/>
       <path d="M 9.8125 72.90625 
L 19.671875 72.90625 
L 19.671875 8.296875 
L 55.171875 8.296875 
L 55.171875 0 
L 9.8125 0 
z
" id="DejaVuSans-76"/>
      </defs>
      <use xlink:href="#DejaVuSans-116"/>
      <use x="39.208984" xlink:href="#DejaVuSans-114"/>
      <use x="78.072266" xlink:href="#DejaVuSans-101"/>
      <use x="139.595703" xlink:href="#DejaVuSans-101"/>
      <use x="201.119141" xlink:href="#DejaVuSans-98"/>
      <use x="264.595703" xlink:href="#DejaVuSans-101"/>
      <use x="326.119141" xlink:href="#DejaVuSans-97"/>
      <use x="387.398438" xlink:href="#DejaVuSans-114"/>
      <use x="426.761719" xlink:href="#DejaVuSans-100"/>
      <use x="490.238281" xlink:href="#DejaVuSans-32"/>
      <use x="522.025391" xlink:href="#DejaVuSans-65"/>
      <use x="590.433594" xlink:href="#DejaVuSans-76"/>
     </g>
    </g>
    <g id="line2d_28">
     <path d="M 170.794531 354.222687 
L 190.794531 354.222687 
" style="fill:none;stroke:#d62728;stroke-linecap:square;stroke-opacity:0.8;stroke-width:1.5;"/>
    </g>
    <g id="line2d_29"/>
    <g id="text_23">
     <!-- treebeard MP -->
     <g transform="translate(198.794531 357.722687)scale(0.1 -0.1)">
      <use xlink:href="#DejaVuSans-116"/>
      <use x="39.208984" xlink:href="#DejaVuSans-114"/>
      <use x="78.072266" xlink:href="#DejaVuSans-101"/>
      <use x="139.595703" xlink:href="#DejaVuSans-101"/>
      <use x="201.119141" xlink:href="#DejaVuSans-98"/>
      <use x="264.595703" xlink:href="#DejaVuSans-101"/>
      <use x="326.119141" xlink:href="#DejaVuSans-97"/>
      <use x="387.398438" xlink:href="#DejaVuSans-114"/>
      <use x="426.761719" xlink:href="#DejaVuSans-100"/>
      <use x="490.238281" xlink:href="#DejaVuSans-32"/>
      <use x="522.025391" xlink:href="#DejaVuSans-77"/>
      <use x="608.304688" xlink:href="#DejaVuSans-80"/>
     </g>
    </g>
    <g id="line2d_30">
     <path d="M 285.657031 339.544562 
L 305.657031 339.544562 
" style="fill:none;stroke:#9467bd;stroke-linecap:square;stroke-opacity:0.8;stroke-width:1.5;"/>
    </g>
    <g id="line2d_31"/>
    <g id="text_24">
     <!-- treebeard NS -->
     <g transform="translate(313.657031 343.044562)scale(0.1 -0.1)">
      <defs>
       <path d="M 9.8125 72.90625 
L 23.09375 72.90625 
L 55.421875 11.921875 
L 55.421875 72.90625 
L 64.984375 72.90625 
L 64.984375 0 
L 51.703125 0 
L 19.390625 60.984375 
L 19.390625 0 
L 9.8125 0 
z
" id="DejaVuSans-78"/>
       <path d="M 53.515625 70.515625 
L 53.515625 60.890625 
Q 47.90625 63.578125 42.921875 64.890625 
Q 37.9375 66.21875 33.296875 66.21875 
Q 25.25 66.21875 20.875 63.09375 
Q 16.5 59.96875 16.5 54.203125 
Q 16.5 49.359375 19.40625 46.890625 
Q 22.3125 44.4375 30.421875 42.921875 
L 36.375 41.703125 
Q 47.40625 39.59375 52.65625 34.296875 
Q 57.90625 29 57.90625 20.125 
Q 57.90625 9.515625 50.796875 4.046875 
Q 43.703125 -1.421875 29.984375 -1.421875 
Q 24.8125 -1.421875 18.96875 -0.25 
Q 13.140625 0.921875 6.890625 3.21875 
L 6.890625 13.375 
Q 12.890625 10.015625 18.65625 8.296875 
Q 24.421875 6.59375 29.984375 6.59375 
Q 38.421875 6.59375 43.015625 9.90625 
Q 47.609375 13.234375 47.609375 19.390625 
Q 47.609375 24.75 44.3125 27.78125 
Q 41.015625 30.8125 33.5 32.328125 
L 27.484375 33.5 
Q 16.453125 35.6875 11.515625 40.375 
Q 6.59375 45.0625 6.59375 53.421875 
Q 6.59375 63.09375 13.40625 68.65625 
Q 20.21875 74.21875 32.171875 74.21875 
Q 37.3125 74.21875 42.625 73.28125 
Q 47.953125 72.359375 53.515625 70.515625 
z
" id="DejaVuSans-83"/>
      </defs>
      <use xlink:href="#DejaVuSans-116"/>
      <use x="39.208984" xlink:href="#DejaVuSans-114"/>
      <use x="78.072266" xlink:href="#DejaVuSans-101"/>
      <use x="139.595703" xlink:href="#DejaVuSans-101"/>
      <use x="201.119141" xlink:href="#DejaVuSans-98"/>
      <use x="264.595703" xlink:href="#DejaVuSans-101"/>
      <use x="326.119141" xlink:href="#DejaVuSans-97"/>
      <use x="387.398438" xlink:href="#DejaVuSans-114"/>
      <use x="426.761719" xlink:href="#DejaVuSans-100"/>
      <use x="490.238281" xlink:href="#DejaVuSans-32"/>
      <use x="522.025391" xlink:href="#DejaVuSans-78"/>
      <use x="596.830078" xlink:href="#DejaVuSans-83"/>
     </g>
    </g>
   </g>
  </g>
 </g>
 <defs>
  <clipPath id="p3c51623f51">
   <rect height="266.112" width="357.12" x="65.09375" y="22.318125"/>
  </clipPath>
 </defs>
</svg>
