<?xml version="1.0" encoding="utf-8" standalone="no"?>
<!DOCTYPE svg PUBLIC "-//W3C//DTD SVG 1.1//EN"
  "http://www.w3.org/Graphics/SVG/1.1/DTD/svg11.dtd">
<!-- Created with matplotlib (http://matplotlib.org/) -->
<svg height="472pt" version="1.1" viewBox="0 0 518 472" width="518pt" xmlns="http://www.w3.org/2000/svg" xmlns:xlink="http://www.w3.org/1999/xlink">
 <defs>
  <style type="text/css">
*{stroke-linecap:butt;stroke-linejoin:round;stroke-miterlimit:100000;}
  </style>
 </defs>
 <g id="figure_1">
  <g id="patch_1">
   <path d="M 0 472.93475 
L 518.4375 472.93475 
L 518.4375 0 
L 0 0 
z
" style="fill:#ffffff;"/>
  </g>
  <g id="axes_1">
   <g id="patch_2">
    <path d="M 64.8375 368.74175 
L 511.2375 368.74175 
L 511.2375 23.14175 
L 64.8375 23.14175 
z
" style="fill:#ffffff;"/>
   </g>
   <g id="line2d_1">
    <path clip-path="url(#pd2b886b3e2)" d="M 103.104184 368.318099 
L 117.262857 368.298015 
L 362.169633 368.220261 
L 375.562973 368.229422 
L 388.190978 368.233886 
L 403.880319 368.250858 
L 412.298989 368.268945 
L 469.316348 368.194598 
L 489.980357 368.209984 
L 489.980357 368.209984 
" style="fill:none;opacity:0.8;stroke:#0000ff;stroke-linecap:square;"/>
   </g>
   <g id="line2d_2">
    <path clip-path="url(#pd2b886b3e2)" d="M 103.104184 331.417947 
L 103.486851 331.314941 
L 103.869517 330.856818 
L 106.548185 330.096372 
L 107.313519 330.42336 
L 107.696186 330.55062 
L 108.46152 330.218816 
L 108.844186 330.257576 
L 109.226853 330.099837 
L 109.992187 330.049039 
L 110.374854 329.803446 
L 110.757521 329.763806 
L 111.140187 329.572006 
L 113.053522 329.7281 
L 113.436188 329.503237 
L 114.966856 329.183826 
L 116.114856 329.388486 
L 116.88019 329.15229 
L 117.262857 329.177542 
L 117.645524 328.99138 
L 119.941525 328.762465 
L 120.706858 328.570313 
L 121.089525 328.601907 
L 121.472192 328.490504 
L 121.854859 328.225237 
L 122.620193 328.066618 
L 123.002859 328.183953 
L 123.385526 328.027389 
L 123.768193 328.130453 
L 124.15086 328.057515 
L 124.916194 327.745914 
L 125.681527 327.710208 
L 126.829528 327.442652 
L 127.212195 327.142208 
L 127.594861 327.028691 
L 127.977528 327.178619 
L 128.742862 327.201757 
L 129.890862 326.595232 
L 130.273529 326.517772 
L 130.656196 326.607271 
L 131.038863 326.510138 
L 131.42153 326.656954 
L 132.186864 326.461513 
L 132.952197 326.38881 
L 133.334864 326.252682 
L 133.717531 326.300779 
L 134.100198 326.599578 
L 135.630865 326.657071 
L 136.396199 326.229955 
L 136.778866 326.231306 
L 137.544199 326.55982 
L 137.926866 326.468971 
L 138.309533 326.581608 
L 138.6922 326.507848 
L 139.457533 326.638631 
L 139.8402 326.44783 
L 140.605534 326.432385 
L 141.753534 326.863318 
L 142.136201 327.242513 
L 142.901535 327.34822 
L 143.666869 327.483466 
L 144.049535 327.402424 
L 144.432202 327.443709 
L 145.580203 327.237991 
L 145.96287 327.389211 
L 146.345537 327.775395 
L 146.728203 327.820203 
L 147.11087 327.578133 
L 147.876204 327.707096 
L 148.641538 327.644083 
L 149.024204 327.585944 
L 149.406871 327.714202 
L 149.789538 327.439598 
L 150.554872 327.31134 
L 151.320205 327.224954 
L 151.702872 327.602035 
L 152.085539 327.602035 
L 153.23354 328.208559 
L 153.998873 328.351381 
L 154.38154 328.067792 
L 155.146874 328.426199 
L 155.529541 328.437944 
L 155.912207 328.610834 
L 156.294874 328.645835 
L 157.442875 328.415041 
L 157.825542 328.448045 
L 158.208208 328.178961 
L 158.973542 328.214079 
L 159.356209 327.899894 
L 159.738876 327.732055 
L 160.121543 327.983873 
L 160.50421 327.787022 
L 160.886876 327.98029 
L 161.269543 327.603738 
L 162.800211 327.578485 
L 164.330878 327.656591 
L 164.713545 327.367658 
L 165.096212 327.341349 
L 165.478878 327.54648 
L 167.392213 327.197822 
L 168.157546 327.469137 
L 168.92288 327.196883 
L 170.07088 327.058347 
L 170.453547 327.108441 
L 170.836214 326.901607 
L 171.218881 327.05729 
L 171.601548 327.006198 
L 171.984215 327.095932 
L 172.366882 326.852747 
L 173.514882 326.619016 
L 174.662883 326.97249 
L 175.810883 326.553948 
L 176.19355 326.553478 
L 176.958884 326.223437 
L 178.106884 326.25603 
L 179.637551 325.306603 
L 180.020218 324.960471 
L 180.402885 324.939916 
L 180.785552 324.731203 
L 181.168219 324.731967 
L 181.933552 324.44415 
L 182.698886 324.559605 
L 183.081553 324.77102 
L 183.46422 324.802321 
L 184.229553 324.568767 
L 184.61222 324.21547 
L 186.908221 324.072413 
L 188.438889 324.476919 
L 188.821556 324.318182 
L 189.204222 324.428587 
L 189.586889 324.352713 
L 189.969556 323.886133 
L 190.352223 324.059845 
L 190.73489 323.962183 
L 191.117557 323.452087 
L 192.265557 322.972294 
L 192.648224 323.178071 
L 193.030891 323.052338 
L 193.413558 322.758413 
L 194.178891 322.82912 
L 194.561558 322.675844 
L 194.944225 322.795939 
L 195.326892 322.676725 
L 197.240226 322.862065 
L 198.388227 323.01258 
L 198.770893 323.199682 
L 199.536227 323.340566 
L 199.918894 323.234683 
L 202.597562 323.380735 
L 202.980229 323.753412 
L 203.362895 323.719644 
L 204.128229 324.082102 
L 204.893563 323.889657 
L 206.041563 323.766155 
L 208.337564 323.867164 
L 208.720231 323.695508 
L 209.102898 323.865344 
L 209.485565 323.827407 
L 209.868232 324.111289 
L 211.016232 324.037764 
L 211.398899 323.813724 
L 212.5469 323.654634 
L 213.312233 324.096021 
L 213.6949 324.418486 
L 214.077567 324.358938 
L 215.608234 324.622853 
L 218.286902 325.838545 
L 218.669569 325.711579 
L 220.200236 326.033164 
L 220.582903 325.987768 
L 220.96557 325.62901 
L 221.348237 325.532934 
L 222.11357 325.662249 
L 222.496237 325.483839 
L 224.409571 325.802722 
L 224.792238 325.989002 
L 226.322906 325.747696 
L 226.705573 325.751454 
L 227.853573 325.431396 
L 228.23624 325.608279 
L 229.001574 325.479141 
L 229.38424 325.932155 
L 230.149574 325.776119 
L 230.532241 325.920762 
L 230.914908 325.846297 
L 231.297575 325.897506 
L 232.445575 325.599001 
L 232.828242 325.756152 
L 233.210909 325.527707 
L 234.358909 325.519074 
L 234.741576 325.746404 
L 235.124243 325.665068 
L 236.65491 325.843126 
L 237.037577 325.845122 
L 237.420244 325.700245 
L 238.185578 325.812823 
L 238.950911 325.598648 
L 240.098912 325.616853 
L 240.864246 325.37637 
L 241.246912 325.114451 
L 241.629579 325.080507 
L 242.394913 324.713938 
L 242.77758 324.729735 
L 243.160247 324.881542 
L 243.542913 324.91026 
L 243.92558 325.188798 
L 244.690914 324.965756 
L 246.221581 325.68157 
L 246.604248 325.526063 
L 246.986915 325.658725 
L 247.752249 325.586433 
L 248.134915 325.213404 
L 248.517582 325.160727 
L 249.282916 325.471917 
L 249.665583 325.771186 
L 250.430916 325.688558 
L 250.813583 325.639346 
L 251.19625 325.094895 
L 251.578917 324.832682 
L 251.961584 324.825283 
L 252.344251 325.135357 
L 253.109584 325.20806 
L 254.640252 324.798915 
L 255.022919 324.880662 
L 255.405585 324.629431 
L 255.788252 324.562483 
L 256.170919 324.291755 
L 258.46692 324.273726 
L 259.232254 324.905855 
L 259.997587 324.699726 
L 260.380254 324.793218 
L 260.762921 325.012619 
L 261.145588 324.961997 
L 261.528255 324.752991 
L 261.910922 324.815299 
L 262.676255 324.711471 
L 263.441589 324.708124 
L 264.206923 325.270369 
L 264.589589 325.353525 
L 265.73759 324.994532 
L 266.502924 325.201542 
L 267.650924 324.579925 
L 268.416258 324.769434 
L 269.181592 324.387949 
L 269.564258 324.318475 
L 269.946925 324.579455 
L 270.329592 324.538112 
L 270.712259 324.66772 
L 271.094926 324.439745 
L 271.860259 324.922181 
L 272.625593 324.61839 
L 273.00826 324.430819 
L 273.773594 324.603415 
L 274.15626 324.506341 
L 274.538927 324.545159 
L 274.921594 324.236729 
L 275.304261 324.183053 
L 275.686928 324.000179 
L 277.600262 323.947032 
L 277.982929 323.856946 
L 278.748263 324.300094 
L 279.130929 324.307141 
L 279.513596 324.561191 
L 280.27893 324.75857 
L 281.42693 324.645463 
L 283.340265 324.888648 
L 284.488265 324.398226 
L 284.870932 324.714584 
L 285.253599 324.769317 
L 286.018932 324.492011 
L 286.401599 324.723393 
L 287.166933 324.608231 
L 289.080267 324.259925 
L 289.462934 324.482733 
L 289.845601 324.552499 
L 290.610934 324.049157 
L 291.376268 324.117984 
L 291.758935 324.293576 
L 292.524269 324.806021 
L 293.289602 325.08403 
L 293.672269 325.147572 
L 294.054936 324.861282 
L 294.437603 325.068468 
L 294.82027 324.988131 
L 295.585603 325.446019 
L 295.96827 325.164074 
L 297.116271 324.713174 
L 297.498938 324.841726 
L 299.029605 324.651571 
L 299.412272 324.585269 
L 299.794939 324.898103 
L 300.177605 324.997057 
L 300.942939 324.743301 
L 301.325606 324.625555 
L 301.708273 324.748939 
L 302.473606 324.420365 
L 303.23894 324.606469 
L 304.004274 325.114686 
L 304.769607 325.229378 
L 305.152274 325.081681 
L 305.534941 325.274127 
L 306.300275 325.413191 
L 307.065609 325.865794 
L 307.448275 326.296844 
L 308.213609 326.611793 
L 309.36161 326.9093 
L 310.126943 326.84846 
L 310.50961 326.867781 
L 310.892277 327.193418 
L 311.657611 327.280802 
L 312.040277 327.257429 
L 312.422944 327.113198 
L 312.805611 327.393792 
L 313.570945 327.745209 
L 313.953612 328.033849 
L 314.336278 327.996616 
L 315.484279 328.278091 
L 317.397613 327.444942 
L 318.162947 327.373648 
L 319.693614 327.192126 
L 320.458948 326.816924 
L 321.606948 326.803828 
L 321.989615 326.74516 
L 322.754949 327.200758 
L 323.520283 326.706401 
L 323.902949 326.861967 
L 326.581617 326.790908 
L 328.112285 326.916582 
L 328.877618 327.407181 
L 329.260285 327.356794 
L 330.025619 327.741627 
L 330.408286 327.601565 
L 331.173619 327.546186 
L 331.556286 327.297715 
L 331.938953 327.278923 
L 332.32162 327.606028 
L 332.704287 327.645198 
L 333.086954 327.507485 
L 333.46962 327.565272 
L 333.852287 327.269233 
L 335.382955 327.39479 
L 335.765621 326.942011 
L 336.148288 326.978832 
L 336.530955 327.14215 
L 337.296289 326.863494 
L 337.678956 327.198468 
L 338.061622 326.847461 
L 338.444289 326.710336 
L 338.826956 326.723314 
L 339.209623 326.899199 
L 341.505624 325.842832 
L 341.888291 325.767369 
L 342.270958 325.546911 
L 342.653624 325.470332 
L 343.036291 325.270956 
L 343.418958 325.453888 
L 344.949625 325.045624 
L 345.332292 324.811952 
L 345.714959 324.819528 
L 346.097626 324.60688 
L 346.86296 324.462061 
L 347.245627 324.265622 
L 347.628293 324.598717 
L 348.393627 324.426943 
L 348.776294 324.307787 
L 349.158961 324.051036 
L 349.541628 323.993837 
L 349.924294 323.80468 
L 350.689628 323.901167 
L 351.072295 323.629676 
L 351.454962 323.605011 
L 351.837629 323.346145 
L 352.220295 323.270154 
L 352.602962 323.415442 
L 352.985629 323.311791 
L 353.368296 323.332638 
L 353.750963 323.191872 
L 354.13363 323.186528 
L 354.898963 323.573768 
L 355.28163 323.515688 
L 356.046964 324.034652 
L 356.429631 323.823355 
L 357.577631 324.534647 
L 358.342965 324.637652 
L 358.725632 324.886064 
L 359.108299 324.85629 
L 359.490965 324.657678 
L 359.873632 324.676882 
L 360.256299 324.824754 
L 361.021633 324.202021 
L 361.786966 324.047982 
L 362.169633 323.883608 
L 363.317634 323.920899 
L 364.082967 323.602955 
L 365.996302 323.338687 
L 366.378968 323.187291 
L 367.144302 322.504364 
L 367.526969 322.465546 
L 368.292303 321.799825 
L 369.057636 321.630752 
L 369.440303 321.141328 
L 370.205637 321.527159 
L 370.588304 321.603915 
L 370.97097 321.549299 
L 371.353637 321.830304 
L 371.736304 321.590466 
L 372.501638 321.551707 
L 372.884305 321.327666 
L 375.180306 321.25373 
L 375.562973 321.184727 
L 375.945639 320.966324 
L 376.328306 320.983237 
L 376.710973 320.843116 
L 377.09364 321.0375 
L 377.858974 321.12324 
L 379.006974 321.43032 
L 379.772308 321.355561 
L 381.685642 321.783617 
L 382.068309 321.641676 
L 382.833642 321.719488 
L 383.216309 321.473777 
L 383.598976 321.664168 
L 383.981643 321.401309 
L 384.36431 321.622296 
L 384.746977 321.683312 
L 386.277644 321.564685 
L 388.190978 321.668572 
L 388.956312 321.43584 
L 390.486979 321.556405 
L 390.869646 321.369597 
L 391.252313 321.491571 
L 391.63498 321.338824 
L 392.017647 321.346929 
L 392.400313 321.518116 
L 393.548314 321.558872 
L 393.930981 321.513476 
L 394.313648 321.3289 
L 394.696314 321.431847 
L 395.078981 321.302414 
L 395.844315 320.820624 
L 396.609649 320.584545 
L 397.374982 320.35287 
L 397.757649 320.507437 
L 398.140316 320.455699 
L 399.288317 320.959805 
L 400.436317 321.483702 
L 400.818984 321.588411 
L 401.201651 321.241926 
L 402.349651 321.644201 
L 402.732318 321.235877 
L 403.880319 321.094699 
L 404.645652 321.084011 
L 405.410986 321.333656 
L 406.941653 321.471957 
L 407.32432 321.280509 
L 407.706987 321.587882 
L 408.472321 321.413289 
L 408.854987 321.104624 
L 409.237654 321.074439 
L 409.620321 320.92316 
L 410.002988 321.147847 
L 410.385655 321.101982 
L 410.768322 321.203108 
L 411.533655 321.572848 
L 413.064323 321.771343 
L 413.829656 322.52204 
L 414.212323 322.431778 
L 414.59499 322.618293 
L 416.508324 322.589282 
L 417.273658 322.567142 
L 418.421658 322.883383 
L 418.804325 322.699805 
L 419.569659 322.769513 
L 419.952326 322.598678 
L 421.100326 323.017396 
L 421.482993 323.000835 
L 422.630994 322.624987 
L 424.544328 322.420972 
L 425.692328 322.017523 
L 426.457662 321.963436 
L 426.840329 321.61472 
L 427.222996 321.799062 
L 428.370996 321.703397 
L 429.13633 321.959678 
L 429.901664 322.011298 
L 430.28433 322.191412 
L 430.666997 321.792308 
L 431.814998 321.330661 
L 432.197665 320.922397 
L 432.962998 320.847638 
L 434.493666 321.30723 
L 435.641666 321.367365 
L 436.024333 321.501555 
L 437.937667 321.425152 
L 438.320334 321.52205 
L 438.703001 321.484583 
L 439.085668 321.675678 
L 439.851001 321.792367 
L 440.233668 321.606557 
L 440.616335 321.706274 
L 440.999002 322.170681 
L 441.381669 322.31227 
L 441.764336 322.288604 
L 442.147002 322.090696 
L 442.912336 322.462022 
L 443.67767 322.258771 
L 444.82567 322.189944 
L 445.208337 321.993328 
L 445.591004 322.215431 
L 445.973671 322.169918 
L 446.356338 321.919568 
L 446.739004 321.86783 
L 447.504338 322.35379 
L 447.887005 322.348563 
L 448.652339 322.06979 
L 449.035005 322.262294 
L 449.417672 322.084295 
L 449.800339 322.208912 
L 450.183006 322.157938 
L 450.565673 322.250432 
L 450.94834 322.076484 
L 451.331006 322.075838 
L 451.713673 321.781914 
L 452.09634 321.838115 
L 452.479007 322.132509 
L 453.244341 321.859726 
L 454.009674 321.864483 
L 454.775008 321.736871 
L 455.540342 322.01447 
L 455.923009 321.695058 
L 457.071009 321.567152 
L 457.453676 321.802762 
L 457.836343 321.605441 
L 458.601676 321.65947 
L 458.984343 321.491513 
L 459.749677 321.94024 
L 460.132344 322.008538 
L 460.515011 322.200397 
L 460.897677 322.033145 
L 461.280344 321.711618 
L 461.663011 321.857259 
L 463.193678 321.681551 
L 463.576345 321.933838 
L 464.724346 322.090637 
L 465.107013 322.51376 
L 465.872346 322.865706 
L 466.63768 322.951858 
L 467.785681 322.40817 
L 468.168347 322.473415 
L 468.551014 322.267403 
L 468.933681 322.620935 
L 470.464348 323.314609 
L 471.229682 323.155226 
L 471.995016 322.657639 
L 472.377683 322.566907 
L 472.760349 322.804044 
L 474.291017 322.630801 
L 474.673684 322.854078 
L 475.439017 322.556102 
L 475.821684 322.623049 
L 476.587018 322.097743 
L 476.969685 322.149188 
L 477.352351 321.827603 
L 477.735018 321.881807 
L 478.500352 321.72906 
L 479.265686 321.824725 
L 480.413686 322.40958 
L 481.17902 322.35103 
L 481.561687 322.577478 
L 481.944354 322.621699 
L 482.32702 322.516579 
L 482.709687 322.849263 
L 483.092354 322.718714 
L 483.475021 322.880388 
L 484.623021 322.931891 
L 485.005688 323.094504 
L 485.771022 322.823012 
L 486.153689 322.885673 
L 486.919022 323.378445 
L 487.301689 323.082582 
L 488.067023 323.111006 
L 488.44969 323.183826 
L 488.832357 323.049108 
L 489.215023 323.350021 
L 489.980357 323.43858 
L 489.980357 323.43858 
" style="fill:none;opacity:0.8;stroke:#008000;stroke-linecap:square;"/>
   </g>
   <g id="line2d_3">
    <path clip-path="url(#pd2b886b3e2)" d="M 103.104184 191.227649 
L 103.486851 189.935144 
L 103.869517 188.841016 
L 104.634851 187.820648 
L 105.017518 187.677473 
L 105.400185 186.138846 
L 105.782852 185.180845 
L 106.165519 184.912701 
L 106.548185 184.988634 
L 107.313519 184.540553 
L 108.078853 183.25069 
L 108.46152 183.367967 
L 108.844186 183.291623 
L 109.60952 182.039991 
L 109.992187 182.201194 
L 110.374854 182.735015 
L 110.757521 182.337204 
L 111.140187 183.729192 
L 111.905521 185.595746 
L 112.288188 185.264001 
L 112.670855 184.397614 
L 113.053522 185.313508 
L 113.818855 184.351572 
L 114.201522 184.746095 
L 114.584189 184.793839 
L 114.966856 184.547718 
L 115.349523 184.471197 
L 116.114856 184.708451 
L 116.497523 184.466793 
L 116.88019 184.826021 
L 117.262857 184.877818 
L 118.02819 183.881527 
L 118.410857 183.656371 
L 118.793524 183.865906 
L 119.176191 184.476953 
L 120.324192 182.375082 
L 120.706858 183.388462 
L 121.089525 183.953173 
L 122.237526 186.858947 
L 122.620193 188.383891 
L 123.002859 187.432526 
L 124.15086 189.276177 
L 124.533527 189.61996 
L 124.916194 189.460225 
L 125.29886 188.821225 
L 125.681527 188.781174 
L 126.064194 188.916479 
L 126.446861 188.676876 
L 126.829528 188.765552 
L 127.212195 189.254096 
L 127.594861 190.147322 
L 127.977528 190.446414 
L 128.742862 193.937688 
L 129.125529 194.044394 
L 129.508196 193.206488 
L 130.273529 192.702089 
L 130.656196 191.431488 
L 131.42153 190.156248 
L 131.804197 190.310639 
L 132.186864 190.261074 
L 132.56953 190.002973 
L 132.952197 188.88876 
L 133.334864 188.317178 
L 133.717531 188.545329 
L 134.100198 188.610926 
L 134.482865 188.103649 
L 134.865531 188.146754 
L 135.248198 188.314476 
L 136.013532 188.027129 
L 136.396199 187.599602 
L 137.544199 186.778551 
L 137.926866 186.440992 
L 138.309533 186.309035 
L 139.074867 185.258364 
L 139.457533 185.704624 
L 139.8402 185.843864 
L 140.222867 184.891442 
L 140.605534 185.114602 
L 140.988201 184.871534 
L 141.370868 185.036202 
L 141.753534 184.975421 
L 142.136201 184.531157 
L 142.518868 184.261251 
L 142.901535 183.436207 
L 143.284202 182.992412 
L 143.666869 184.71591 
L 144.432202 185.816909 
L 144.814869 186.544351 
L 145.197536 186.652348 
L 146.345537 185.065918 
L 147.11087 184.943063 
L 147.493537 184.16864 
L 147.876204 184.711623 
L 148.258871 184.386984 
L 148.641538 183.672521 
L 149.024204 183.633762 
L 149.406871 184.266243 
L 149.789538 183.976781 
L 150.172205 184.151727 
L 150.554872 184.934371 
L 150.937539 185.193119 
L 152.085539 188.337321 
L 152.468206 186.95702 
L 153.23354 189.535923 
L 153.616206 189.401557 
L 153.998873 188.810184 
L 154.38154 188.837022 
L 154.764207 189.162424 
L 155.146874 189.83989 
L 155.529541 189.577971 
L 155.912207 189.771356 
L 156.294874 190.433495 
L 156.677541 191.380161 
L 157.060208 190.933666 
L 157.442875 189.71956 
L 157.825542 190.680203 
L 158.208208 190.652074 
L 158.590875 190.942181 
L 158.973542 190.419753 
L 159.738876 187.846898 
L 160.121543 186.941692 
L 160.50421 185.46461 
L 160.886876 184.706748 
L 161.269543 185.766111 
L 161.65221 185.272987 
L 162.034877 183.856393 
L 162.417544 183.493465 
L 162.800211 183.318695 
L 163.182877 182.843424 
L 163.565544 183.037044 
L 163.948211 183.020601 
L 164.713545 181.582102 
L 165.096212 181.504701 
L 165.478878 180.578765 
L 165.861545 179.132397 
L 166.244212 178.905244 
L 166.626879 177.482072 
L 167.009546 176.572697 
L 167.774879 176.024018 
L 168.157546 174.834694 
L 168.540213 174.290243 
L 168.92288 175.440984 
L 169.688214 175.833921 
L 170.07088 175.62327 
L 170.453547 175.0373 
L 170.836214 174.163806 
L 171.218881 174.316318 
L 171.601548 173.512121 
L 172.366882 173.755482 
L 172.749548 173.115778 
L 173.514882 172.438488 
L 173.897549 173.243977 
L 174.280216 172.90084 
L 174.662883 173.122531 
L 175.045549 172.313049 
L 175.428216 171.903081 
L 176.19355 172.29919 
L 176.576217 172.193365 
L 176.958884 172.644089 
L 177.34155 172.710626 
L 177.724217 171.415595 
L 178.106884 171.512845 
L 178.489551 172.264189 
L 179.254885 171.961338 
L 179.637551 172.555882 
L 180.020218 172.875646 
L 180.402885 174.289245 
L 181.168219 175.797276 
L 181.550886 177.016667 
L 181.933552 176.059665 
L 182.316219 176.554139 
L 182.698886 175.600308 
L 183.081553 175.662499 
L 183.46422 176.132955 
L 183.846887 177.547728 
L 184.229553 178.158305 
L 184.61222 179.566912 
L 184.994887 179.031799 
L 185.377554 178.787028 
L 185.760221 180.486388 
L 186.525555 181.923184 
L 186.908221 181.869861 
L 187.290888 182.207243 
L 187.673555 181.213184 
L 188.056222 181.627439 
L 188.438889 181.738314 
L 189.204222 182.480496 
L 189.586889 182.536697 
L 190.352223 180.367996 
L 190.73489 181.14236 
L 191.500223 178.073798 
L 191.88289 177.909775 
L 192.265557 178.17604 
L 193.413558 177.212871 
L 193.796224 177.957755 
L 194.178891 178.07832 
L 194.561558 177.438321 
L 194.944225 176.03036 
L 195.709559 176.999108 
L 196.092225 176.693144 
L 196.474892 177.170765 
L 196.857559 177.965624 
L 197.240226 176.73208 
L 197.622893 176.526773 
L 198.00556 176.53799 
L 198.388227 176.821285 
L 198.770893 178.300775 
L 199.15356 179.02111 
L 199.536227 179.063158 
L 199.918894 179.402537 
L 200.301561 180.346914 
L 201.066894 179.165753 
L 201.449561 179.746321 
L 201.832228 180.112772 
L 202.214895 180.799282 
L 202.980229 183.338545 
L 203.745562 182.954123 
L 204.893563 185.052235 
L 205.27623 185.212792 
L 205.658896 185.896013 
L 206.041563 186.826589 
L 206.42423 188.398279 
L 206.806897 188.210825 
L 207.189564 187.706073 
L 207.572231 187.604476 
L 207.954897 187.102896 
L 208.337564 187.311902 
L 208.720231 187.751409 
L 209.485565 187.053389 
L 209.868232 188.620205 
L 210.250898 188.814002 
L 211.398899 192.276265 
L 211.781566 193.656625 
L 212.5469 195.199128 
L 212.929566 196.100105 
L 213.6949 199.326583 
L 214.077567 199.882074 
L 214.460234 200.17776 
L 214.842901 201.29902 
L 215.225567 201.756321 
L 215.608234 202.636099 
L 215.990901 204.163392 
L 216.373568 204.629032 
L 216.756235 205.402632 
L 217.138902 205.733261 
L 217.521568 206.983484 
L 218.286902 208.206927 
L 218.669569 208.237288 
L 219.052236 208.449701 
L 219.434903 209.455623 
L 219.817569 209.282968 
L 220.582903 210.620516 
L 220.96557 210.418968 
L 221.348237 210.611296 
L 221.730904 211.453665 
L 222.11357 211.142005 
L 222.496237 212.152801 
L 222.878904 212.299381 
L 223.261571 212.980605 
L 223.644238 213.421698 
L 224.026905 214.059406 
L 224.409571 214.229242 
L 224.792238 212.898154 
L 225.174905 214.466673 
L 225.557572 213.951291 
L 225.940239 213.657132 
L 226.322906 213.769768 
L 227.088239 212.229262 
L 227.470906 213.08461 
L 227.853573 212.482725 
L 228.23624 213.280931 
L 229.766907 217.963702 
L 230.149574 218.408435 
L 230.532241 219.522296 
L 230.914908 219.681972 
L 231.297575 220.195768 
L 231.680241 220.492335 
L 232.062908 219.374423 
L 232.445575 219.654488 
L 232.828242 221.228057 
L 233.210909 222.096383 
L 233.593576 222.449504 
L 234.358909 223.672713 
L 234.741576 224.564294 
L 235.124243 224.605872 
L 235.50691 226.269762 
L 235.889577 226.818618 
L 236.65491 226.857318 
L 237.037577 226.512771 
L 237.420244 226.37729 
L 237.802911 226.494625 
L 238.185578 225.949 
L 238.950911 226.939124 
L 239.333578 227.617529 
L 239.716245 227.302345 
L 240.098912 227.510001 
L 240.481579 227.853021 
L 240.864246 227.625927 
L 241.246912 227.668797 
L 242.012246 229.426884 
L 242.77758 229.325346 
L 243.160247 229.043578 
L 243.542913 229.216292 
L 243.92558 229.625731 
L 244.308247 229.361345 
L 244.690914 229.44045 
L 245.073581 230.895392 
L 245.456248 231.764246 
L 246.221581 232.828365 
L 246.604248 233.688705 
L 246.986915 233.652647 
L 247.752249 236.119794 
L 248.134915 235.762093 
L 248.517582 236.125784 
L 248.900249 235.664842 
L 249.282916 234.78483 
L 249.665583 235.009105 
L 250.04825 235.030775 
L 250.430916 233.999425 
L 250.813583 233.366356 
L 251.19625 232.266414 
L 251.578917 231.939368 
L 251.961584 231.387048 
L 252.344251 231.539149 
L 252.726918 231.510314 
L 253.109584 231.00245 
L 253.492251 230.078451 
L 253.874918 229.652804 
L 254.640252 230.060246 
L 255.022919 230.016202 
L 255.405585 230.686855 
L 255.788252 230.154854 
L 256.553586 228.491082 
L 256.936253 228.033487 
L 257.31892 227.873223 
L 258.084253 227.134565 
L 258.46692 226.971893 
L 258.849587 226.493862 
L 259.232254 227.678369 
L 259.997587 227.017699 
L 260.762921 224.244471 
L 261.145588 223.69356 
L 262.293588 221.210909 
L 262.676255 220.513124 
L 263.058922 221.103616 
L 263.441589 220.747559 
L 263.824256 220.673858 
L 264.206923 222.170907 
L 264.589589 222.900228 
L 264.972256 222.402758 
L 265.73759 220.52575 
L 266.120257 220.311811 
L 266.502924 219.709104 
L 266.885591 219.856741 
L 267.268257 218.573221 
L 267.650924 217.969985 
L 268.416258 215.956439 
L 268.798925 213.635873 
L 269.181592 213.033635 
L 269.564258 212.859688 
L 269.946925 213.598288 
L 270.712259 212.875192 
L 271.094926 211.265624 
L 271.477593 210.314376 
L 271.860259 210.174314 
L 272.625593 209.437124 
L 273.773594 206.604347 
L 274.538927 207.481776 
L 274.921594 208.221021 
L 275.304261 208.475365 
L 275.686928 207.224907 
L 276.069595 207.064585 
L 276.452261 206.210294 
L 276.834928 205.765149 
L 277.217595 205.633485 
L 277.600262 205.190278 
L 277.982929 205.240489 
L 278.365596 204.598025 
L 279.130929 205.16855 
L 279.513596 204.759169 
L 279.896263 205.100721 
L 280.27893 205.250766 
L 280.661597 205.951958 
L 281.044264 205.995532 
L 281.42693 205.904037 
L 281.809597 206.525771 
L 282.192264 206.698896 
L 282.574931 207.199068 
L 283.340265 205.319183 
L 283.722931 205.041173 
L 284.488265 202.618716 
L 284.870932 202.05189 
L 285.253599 202.022762 
L 285.636266 201.13488 
L 286.401599 198.808206 
L 286.784266 197.772334 
L 287.166933 198.223176 
L 287.5496 198.398356 
L 288.314933 195.818572 
L 288.6976 196.02012 
L 289.080267 196.644615 
L 289.462934 196.562633 
L 290.228268 196.929496 
L 290.610934 196.529394 
L 291.376268 195.082791 
L 291.758935 194.467986 
L 292.141602 194.925874 
L 292.524269 193.173484 
L 293.289602 191.636677 
L 293.672269 189.87771 
L 294.437603 189.79884 
L 294.82027 190.811692 
L 295.202937 191.334472 
L 295.585603 191.621056 
L 296.350937 189.627712 
L 296.733604 188.942142 
L 297.116271 189.461693 
L 297.498938 189.71034 
L 297.881604 190.196945 
L 298.264271 190.371891 
L 298.646938 190.331605 
L 299.029605 191.264882 
L 299.412272 189.975254 
L 300.177605 191.973061 
L 300.942939 193.862636 
L 301.325606 194.764201 
L 302.09094 195.460048 
L 302.856273 192.82189 
L 303.23894 192.40141 
L 303.621607 192.604838 
L 304.004274 191.716428 
L 304.386941 191.639849 
L 304.769607 192.04412 
L 305.152274 190.519117 
L 305.534941 191.292777 
L 305.917608 191.471481 
L 306.300275 192.036544 
L 306.682942 192.157814 
L 307.448275 194.225506 
L 307.830942 194.708 
L 308.213609 193.853651 
L 308.596276 194.494765 
L 308.978943 194.259743 
L 309.36161 195.053134 
L 309.744276 195.088018 
L 310.126943 194.861217 
L 310.892277 192.96665 
L 311.274944 192.967531 
L 311.657611 193.153987 
L 312.040277 192.859768 
L 312.422944 192.403701 
L 312.805611 191.011654 
L 313.570945 189.388227 
L 314.336278 189.126131 
L 314.718945 189.516543 
L 315.101612 189.151442 
L 315.484279 188.051677 
L 315.866946 188.852174 
L 316.249613 188.170245 
L 316.632279 187.907856 
L 317.397613 184.891442 
L 317.78028 184.222786 
L 319.310947 179.652476 
L 319.693614 179.454627 
L 320.076281 178.221612 
L 320.458948 177.405493 
L 320.841615 175.718172 
L 321.224282 175.963765 
L 321.606948 175.170902 
L 321.989615 174.696453 
L 322.372282 175.032719 
L 322.754949 175.136606 
L 323.137616 174.768451 
L 323.520283 174.683298 
L 323.902949 174.882204 
L 324.285616 174.781899 
L 324.668283 175.00224 
L 325.05095 175.495012 
L 325.433617 174.593975 
L 325.816284 174.294942 
L 326.19895 174.549226 
L 326.581617 173.963726 
L 326.964284 173.808747 
L 327.346951 173.872817 
L 327.729618 174.814727 
L 328.112285 173.96813 
L 328.494951 173.39831 
L 328.877618 172.589415 
L 329.260285 172.933785 
L 329.642952 172.925798 
L 330.025619 173.557575 
L 330.408286 172.687076 
L 330.790952 173.13228 
L 331.173619 172.990632 
L 331.556286 173.389677 
L 331.938953 173.352444 
L 332.32162 172.929146 
L 332.704287 172.794075 
L 333.852287 167.621117 
L 334.234954 167.44535 
L 334.617621 167.522869 
L 335.000288 167.03086 
L 335.765621 165.048968 
L 336.148288 163.261694 
L 336.530955 162.790592 
L 336.913622 163.059911 
L 337.296289 161.853145 
L 337.678956 162.612769 
L 338.061622 161.535378 
L 338.444289 161.741154 
L 339.209623 159.63024 
L 339.59229 158.300091 
L 339.974957 156.515989 
L 340.357623 156.08071 
L 340.74029 156.804511 
L 341.122957 157.771732 
L 341.505624 158.086034 
L 341.888291 157.814895 
L 342.270958 158.391528 
L 342.653624 159.236892 
L 343.036291 158.507395 
L 343.418958 158.981903 
L 343.801625 158.208009 
L 344.184292 157.143772 
L 344.566959 157.757814 
L 344.949625 159.358103 
L 345.332292 159.677339 
L 345.714959 160.313168 
L 346.097626 160.49563 
L 346.480293 161.231822 
L 346.86296 161.328485 
L 347.628293 162.322309 
L 348.01096 163.890475 
L 348.393627 163.534125 
L 348.776294 163.865693 
L 349.158961 164.028717 
L 349.541628 163.948321 
L 349.924294 163.729566 
L 350.306961 164.011099 
L 350.689628 163.441807 
L 351.072295 164.686979 
L 351.454962 164.559896 
L 352.602962 167.411582 
L 353.368296 167.33054 
L 353.750963 167.768931 
L 354.13363 166.690777 
L 354.516296 167.186837 
L 354.898963 167.326136 
L 355.28163 168.956845 
L 355.664297 168.707787 
L 356.046964 169.00688 
L 357.960298 167.405534 
L 358.342965 167.472834 
L 358.725632 166.818917 
L 359.108299 167.739568 
L 359.490965 167.536317 
L 359.873632 168.455206 
L 360.256299 168.428133 
L 361.021633 168.680656 
L 361.786966 168.653466 
L 362.169633 168.044651 
L 362.5523 168.237625 
L 363.700301 166.932435 
L 364.465634 168.910099 
L 364.848301 169.615754 
L 365.613635 170.08574 
L 365.996302 170.243302 
L 367.144302 174.108368 
L 367.526969 174.764869 
L 367.909636 175.933932 
L 368.292303 175.797746 
L 369.057636 174.951442 
L 369.440303 174.24197 
L 369.82297 172.544254 
L 370.205637 173.284909 
L 370.588304 172.863783 
L 370.97097 173.611956 
L 371.353637 173.519286 
L 371.736304 173.30652 
L 372.118971 174.337107 
L 372.501638 174.346327 
L 373.266972 175.83903 
L 373.649638 175.439339 
L 374.414972 177.514078 
L 374.797639 177.194842 
L 375.180306 177.124195 
L 375.945639 179.163933 
L 376.328306 181.087627 
L 376.710973 180.250544 
L 377.09364 180.695101 
L 377.476307 180.531431 
L 377.858974 181.897286 
L 378.24164 182.153802 
L 378.624307 182.01603 
L 379.006974 182.709763 
L 379.389641 181.262749 
L 379.772308 180.878503 
L 380.154975 181.598135 
L 380.537641 181.748591 
L 380.920308 180.036428 
L 381.302975 180.309564 
L 381.685642 180.220124 
L 382.068309 179.996201 
L 382.450976 181.502293 
L 382.833642 180.218068 
L 383.216309 178.527282 
L 383.598976 178.407421 
L 384.36431 176.266792 
L 384.746977 175.344908 
L 385.51231 174.456439 
L 385.894977 173.150485 
L 386.277644 172.714854 
L 387.425645 171.96169 
L 387.808311 172.828665 
L 388.190978 172.745979 
L 388.573645 171.891806 
L 388.956312 173.165166 
L 389.338979 172.270003 
L 389.721646 173.35127 
L 390.104312 172.462566 
L 390.869646 169.868981 
L 391.252313 169.289471 
L 391.63498 168.397067 
L 392.400313 170.768608 
L 393.165647 171.303017 
L 393.548314 169.551331 
L 393.930981 169.4993 
L 394.313648 169.320067 
L 394.696314 169.704665 
L 395.078981 170.362575 
L 395.461648 170.633127 
L 395.844315 172.235648 
L 396.609649 173.545947 
L 396.992315 173.733284 
L 397.374982 173.4255 
L 397.757649 174.730631 
L 398.140316 173.966486 
L 398.522983 174.81367 
L 398.90565 174.577943 
L 399.288317 175.030135 
L 399.670983 175.912262 
L 400.05365 175.51586 
L 400.436317 175.510809 
L 401.201651 176.450664 
L 401.584318 176.105765 
L 401.966984 176.262035 
L 402.349651 174.712837 
L 402.732318 173.659289 
L 403.114985 174.043535 
L 403.880319 173.560394 
L 404.645652 170.281004 
L 405.028319 169.752527 
L 406.17632 166.447826 
L 406.558986 166.048488 
L 406.941653 166.892912 
L 407.32432 167.033444 
L 407.706987 167.590227 
L 408.089654 167.925261 
L 408.472321 167.919975 
L 408.854987 169.22405 
L 409.620321 169.163151 
L 410.002988 169.807906 
L 410.385655 169.325529 
L 410.768322 169.657802 
L 411.150988 168.684943 
L 411.533655 168.068611 
L 411.916322 168.256594 
L 412.298989 166.705928 
L 412.681656 167.267351 
L 413.44699 167.812154 
L 413.829656 166.52558 
L 414.212323 166.176159 
L 414.59499 164.974796 
L 414.977657 164.764498 
L 415.360324 163.568891 
L 415.742991 164.447494 
L 416.125657 163.155693 
L 416.508324 163.033308 
L 416.890991 163.811313 
L 417.273658 162.534076 
L 417.656325 163.202909 
L 418.038992 163.226634 
L 418.421658 163.389247 
L 418.804325 163.338743 
L 419.186992 164.376611 
L 419.569659 164.06871 
L 419.952326 164.776537 
L 420.334993 164.760857 
L 420.717659 163.519796 
L 421.100326 164.299621 
L 421.482993 164.712173 
L 421.86566 163.750413 
L 422.248327 163.683759 
L 422.630994 162.967652 
L 423.01366 162.537658 
L 423.396327 162.778729 
L 423.778994 161.956504 
L 424.161661 161.879161 
L 424.544328 160.602159 
L 424.926995 161.862365 
L 425.309662 161.400836 
L 425.692328 162.23974 
L 426.457662 161.467138 
L 426.840329 161.581419 
L 427.222996 161.820259 
L 427.605663 161.519228 
L 427.988329 160.511427 
L 428.370996 160.347405 
L 428.753663 160.605448 
L 429.13633 162.288835 
L 429.518997 162.794997 
L 429.901664 162.691932 
L 430.666997 159.689436 
L 431.432331 159.522537 
L 431.814998 159.888225 
L 432.580331 160.780746 
L 432.962998 160.297077 
L 433.728332 160.434379 
L 434.110999 158.745295 
L 434.493666 158.118804 
L 434.876332 157.215594 
L 435.258999 157.693215 
L 435.641666 157.024323 
L 436.407 156.436239 
L 437.172333 155.991857 
L 437.937667 154.816041 
L 438.320334 155.443648 
L 438.703001 155.843691 
L 439.085668 155.222661 
L 439.851001 155.72342 
L 440.233668 155.564213 
L 440.616335 155.819144 
L 440.999002 155.421802 
L 441.381669 155.659819 
L 441.764336 155.392791 
L 442.147002 154.869188 
L 442.529669 155.062104 
L 442.912336 155.525689 
L 443.295003 154.886101 
L 443.67767 154.599928 
L 444.060337 155.15266 
L 444.443003 154.757843 
L 444.82567 155.771869 
L 445.208337 154.216681 
L 445.591004 154.815395 
L 445.973671 154.677564 
L 446.356338 154.962093 
L 446.739004 155.65148 
L 447.121671 154.75156 
L 447.504338 153.421998 
L 447.887005 153.251985 
L 448.269672 153.46569 
L 448.652339 153.453005 
L 449.035005 153.026183 
L 449.417672 153.554602 
L 449.800339 155.185664 
L 450.183006 154.598108 
L 450.565673 154.996213 
L 450.94834 154.526756 
L 451.331006 153.707583 
L 452.09634 155.196763 
L 452.479007 154.449942 
L 452.861674 154.025703 
L 453.627008 153.900382 
L 454.009674 153.233839 
L 454.392341 153.632355 
L 454.775008 153.839659 
L 455.157675 153.424288 
L 455.540342 153.416654 
L 455.923009 152.674237 
L 456.305675 153.372139 
L 457.071009 153.580676 
L 457.453676 153.157554 
L 457.836343 153.407551 
L 458.21901 152.428409 
L 458.601676 152.561189 
L 458.984343 152.467403 
L 459.36701 151.189755 
L 459.749677 151.401346 
L 460.132344 152.084332 
L 460.515011 152.119392 
L 461.280344 152.608463 
L 461.663011 152.041462 
L 462.045678 152.631249 
L 462.428345 152.874728 
L 462.811012 152.933572 
L 463.193678 151.37075 
L 463.576345 151.668785 
L 464.341679 150.426726 
L 465.107013 151.125157 
L 465.48968 150.304399 
L 465.872346 150.876862 
L 467.020347 151.222466 
L 467.403014 150.149127 
L 467.785681 150.182131 
L 468.168347 150.71513 
L 468.551014 151.043116 
L 468.933681 150.964129 
L 469.316348 151.04664 
L 470.464348 152.400984 
L 471.612349 151.598901 
L 471.995016 150.943281 
L 472.377683 151.167968 
L 472.760349 151.85712 
L 473.143016 151.915846 
L 473.525683 151.563254 
L 473.90835 151.954077 
L 474.291017 150.710843 
L 474.673684 151.619396 
L 475.05635 151.262752 
L 475.821684 152.624085 
L 476.587018 151.90187 
L 476.969685 152.898219 
L 477.352351 153.037693 
L 477.735018 153.976021 
L 478.117685 153.947832 
L 478.883019 152.902036 
L 479.265686 153.104759 
L 479.648353 152.580627 
L 480.031019 153.30895 
L 480.413686 153.729253 
L 480.796353 153.939904 
L 481.17902 153.776176 
L 481.561687 154.322623 
L 481.944354 154.404429 
L 482.32702 154.024764 
L 483.475021 156.117884 
L 483.857688 156.105081 
L 484.240355 155.50026 
L 484.623021 156.88156 
L 485.005688 155.861426 
L 485.388355 156.318669 
L 486.153689 157.724281 
L 486.536356 156.91333 
L 486.919022 157.370984 
L 487.301689 158.429759 
L 487.684356 158.444852 
L 488.067023 157.539 
L 488.44969 158.116807 
L 488.832357 158.267733 
L 489.215023 157.561257 
L 489.59769 157.566425 
L 489.980357 156.878858 
L 489.980357 156.878858 
" style="fill:none;opacity:0.8;stroke:#ff0000;stroke-linecap:square;"/>
   </g>
   <g id="line2d_4">
    <path clip-path="url(#pd2b886b3e2)" d="M 103.104184 322.227352 
L 103.486851 322.321373 
L 103.869517 321.961087 
L 104.252184 322.005719 
L 104.634851 321.784968 
L 105.782852 321.552001 
L 106.548185 320.664765 
L 107.696186 320.732711 
L 108.078853 320.440078 
L 108.844186 320.209989 
L 109.226853 320.563227 
L 109.60952 320.648674 
L 109.992187 320.360915 
L 111.140187 320.30125 
L 111.905521 320.343004 
L 112.670855 319.656964 
L 113.818855 319.613096 
L 114.201522 319.86186 
L 114.584189 319.83003 
L 115.732189 319.136767 
L 116.497523 319.038401 
L 116.88019 318.876669 
L 117.262857 318.969809 
L 118.793524 318.729912 
L 119.176191 318.765148 
L 119.941525 318.521082 
L 120.706858 318.499294 
L 121.472192 318.856996 
L 122.620193 318.946377 
L 123.002859 318.839495 
L 123.385526 318.992594 
L 123.768193 319.303726 
L 124.15086 319.393812 
L 124.533527 319.216517 
L 124.916194 319.604169 
L 125.29886 319.577331 
L 125.681527 319.401681 
L 126.064194 319.736245 
L 127.594861 319.462991 
L 127.977528 319.380305 
L 128.360195 319.120089 
L 128.742862 319.392402 
L 129.508196 319.176525 
L 129.890862 319.437152 
L 130.273529 319.36345 
L 131.038863 319.526357 
L 131.804197 319.303315 
L 132.56953 319.516608 
L 132.952197 319.438091 
L 134.100198 319.56588 
L 134.482865 320.041327 
L 135.248198 320.059474 
L 135.630865 319.712284 
L 136.013532 320.130063 
L 136.778866 319.855635 
L 137.161532 319.862095 
L 137.544199 319.535518 
L 138.6922 319.773183 
L 139.074867 319.668181 
L 139.457533 319.825567 
L 139.8402 319.594891 
L 140.605534 319.524771 
L 140.988201 319.173647 
L 142.136201 319.170652 
L 142.518868 318.82499 
L 143.666869 319.243414 
L 144.049535 319.154033 
L 144.814869 319.654674 
L 145.197536 319.403208 
L 145.580203 319.496818 
L 145.96287 319.392109 
L 146.345537 320.11127 
L 146.728203 320.462336 
L 147.876204 320.378416 
L 148.258871 320.653959 
L 148.641538 320.763719 
L 149.406871 320.56493 
L 150.172205 320.685025 
L 150.937539 321.545893 
L 151.702872 321.90289 
L 152.085539 322.345627 
L 152.850873 322.801049 
L 153.23354 323.274147 
L 153.616206 323.444277 
L 154.38154 323.427716 
L 154.764207 323.585044 
L 157.060208 322.944164 
L 157.442875 322.613242 
L 157.825542 322.686063 
L 158.208208 322.57648 
L 158.590875 322.614006 
L 158.973542 322.827299 
L 159.356209 322.371936 
L 159.738876 322.512644 
L 160.121543 322.367414 
L 161.269543 322.411752 
L 161.65221 322.108608 
L 162.417544 321.836764 
L 162.800211 322.04442 
L 163.182877 321.990451 
L 163.565544 322.106259 
L 163.948211 322.369 
L 164.713545 322.225238 
L 166.244212 322.447517 
L 166.626879 322.763934 
L 167.009546 322.584408 
L 167.774879 322.715543 
L 168.157546 322.679544 
L 168.540213 322.886671 
L 168.92288 322.718362 
L 169.305547 322.700685 
L 169.688214 322.977521 
L 170.07088 323.052514 
L 170.836214 322.948804 
L 171.218881 323.088396 
L 171.601548 322.962898 
L 171.984215 323.01352 
L 172.366882 322.791006 
L 173.514882 323.122692 
L 173.897549 323.423253 
L 174.662883 323.150881 
L 175.045549 323.072657 
L 175.428216 323.229163 
L 175.810883 323.782188 
L 176.19355 323.942275 
L 176.576217 323.942334 
L 176.958884 323.748185 
L 177.34155 323.852131 
L 177.724217 323.62715 
L 178.106884 323.755115 
L 178.489551 323.636899 
L 179.254885 324.036531 
L 179.637551 323.949381 
L 180.402885 323.971638 
L 181.168219 324.444091 
L 181.933552 324.296453 
L 182.316219 324.053503 
L 182.698886 323.594146 
L 183.46422 324.029836 
L 184.229553 324.008107 
L 184.994887 323.414268 
L 185.377554 323.550219 
L 185.760221 323.390425 
L 186.142888 323.104487 
L 186.525555 323.070602 
L 186.908221 322.895363 
L 187.290888 322.843097 
L 188.056222 322.569491 
L 188.438889 322.485336 
L 189.969556 321.33718 
L 190.73489 320.861204 
L 191.117557 320.656367 
L 191.500223 320.249982 
L 191.88289 320.111681 
L 192.265557 320.243169 
L 193.030891 319.953414 
L 193.413558 320.10669 
L 193.796224 319.759324 
L 194.178891 319.756035 
L 194.944225 320.108158 
L 195.326892 320.075682 
L 195.709559 320.511724 
L 196.474892 320.498981 
L 196.857559 320.375421 
L 197.240226 320.084315 
L 197.622893 320.27541 
L 198.388227 320.020127 
L 201.066894 319.742881 
L 201.449561 319.730078 
L 201.832228 319.911777 
L 203.745562 319.785986 
L 204.128229 319.458235 
L 205.27623 319.414777 
L 205.658896 319.166483 
L 206.42423 319.129192 
L 206.806897 318.756339 
L 207.572231 318.518674 
L 208.337564 318.198087 
L 208.720231 318.198792 
L 209.102898 318.0306 
L 209.868232 317.949969 
L 210.250898 317.873684 
L 210.633565 318.04857 
L 211.398899 317.420552 
L 212.164233 317.460545 
L 213.312233 317.670726 
L 214.077567 316.976288 
L 214.460234 316.707792 
L 215.225567 317.16245 
L 215.990901 316.99972 
L 217.138902 316.532259 
L 218.286902 316.630508 
L 218.669569 316.325249 
L 219.052236 316.255013 
L 219.817569 315.826664 
L 220.200236 315.872588 
L 220.96557 316.443172 
L 221.348237 316.48933 
L 221.730904 316.417097 
L 222.11357 316.577831 
L 222.496237 316.297119 
L 222.878904 316.234106 
L 223.261571 316.364361 
L 223.644238 316.186773 
L 224.026905 316.160816 
L 224.409571 316.333941 
L 224.792238 316.361483 
L 225.940239 316.703857 
L 227.470906 316.364831 
L 227.853573 316.465135 
L 228.23624 316.756828 
L 228.618907 316.768104 
L 229.38424 316.541714 
L 230.149574 316.729286 
L 230.914908 316.499666 
L 231.297575 316.247143 
L 231.680241 316.315971 
L 232.445575 316.650358 
L 232.828242 316.49303 
L 233.210909 316.516168 
L 233.976242 315.700285 
L 234.358909 315.579368 
L 234.741576 315.578369 
L 235.124243 315.851916 
L 235.50691 315.687013 
L 235.889577 315.265652 
L 236.65491 314.976014 
L 237.802911 315.312574 
L 238.185578 315.146732 
L 238.568245 315.125179 
L 238.950911 314.98406 
L 239.333578 315.100455 
L 239.716245 314.992634 
L 240.864246 315.028574 
L 242.012246 314.924159 
L 242.394913 315.137335 
L 243.160247 314.879645 
L 243.92558 315.048952 
L 244.308247 314.653373 
L 244.690914 314.574268 
L 245.073581 314.680093 
L 245.456248 314.958397 
L 245.838914 315.090883 
L 246.986915 315.002265 
L 247.369582 315.470196 
L 247.752249 315.34922 
L 248.134915 315.368717 
L 248.900249 315.756956 
L 249.665583 315.909703 
L 250.813583 315.70745 
L 251.19625 315.824902 
L 252.726918 315.499735 
L 253.109584 315.196238 
L 253.874918 315.049951 
L 254.257585 315.299361 
L 254.640252 315.303237 
L 255.022919 315.575492 
L 256.170919 315.825665 
L 256.553586 315.691828 
L 256.936253 316.081183 
L 257.31892 316.046887 
L 257.701586 316.181076 
L 258.084253 315.940651 
L 259.232254 315.697642 
L 259.997587 315.824432 
L 260.380254 315.814214 
L 261.145588 316.248024 
L 261.528255 316.111427 
L 263.058922 316.280911 
L 264.206923 315.738985 
L 264.589589 315.903947 
L 265.73759 315.900424 
L 266.120257 315.477419 
L 266.885591 315.583009 
L 268.033591 315.546598 
L 268.416258 315.274696 
L 268.798925 315.245861 
L 269.181592 315.712794 
L 269.946925 315.561397 
L 270.329592 315.601155 
L 270.712259 315.39209 
L 271.477593 315.375353 
L 271.860259 315.722601 
L 272.625593 316.002373 
L 273.773594 315.754548 
L 274.15626 316.24221 
L 274.538927 316.157469 
L 274.921594 316.412164 
L 275.686928 315.872235 
L 276.069595 315.81392 
L 276.452261 316.083885 
L 276.834928 316.046476 
L 277.217595 316.130924 
L 277.600262 315.978295 
L 277.982929 315.623119 
L 278.748263 315.399254 
L 279.130929 315.528276 
L 279.896263 315.567622 
L 280.661597 315.280627 
L 281.044264 315.581834 
L 282.192264 315.384925 
L 282.574931 315.510834 
L 282.957598 315.455866 
L 283.722931 314.887103 
L 284.870932 315.427091 
L 285.636266 314.639807 
L 286.018932 314.519535 
L 286.401599 314.6512 
L 287.166933 314.197892 
L 287.5496 314.174108 
L 287.932267 313.967274 
L 290.228268 314.582842 
L 290.993601 314.685437 
L 291.376268 314.735061 
L 291.758935 314.114266 
L 292.141602 313.984246 
L 292.906936 313.910486 
L 293.289602 313.875309 
L 294.054936 313.554194 
L 294.437603 313.649624 
L 294.82027 313.558128 
L 295.202937 313.331856 
L 295.585603 313.322225 
L 295.96827 313.030591 
L 296.350937 313.267904 
L 297.498938 313.363392 
L 297.881604 313.287988 
L 298.646938 312.601243 
L 299.029605 312.521611 
L 299.412272 312.17125 
L 300.560272 312.104713 
L 301.708273 311.911034 
L 302.09094 311.625155 
L 302.473606 311.850605 
L 303.23894 311.825 
L 304.386941 312.17219 
L 304.769607 311.93288 
L 305.534941 311.897938 
L 306.300275 311.917905 
L 306.682942 312.500763 
L 307.065609 312.658971 
L 307.830942 312.112935 
L 308.213609 312.230857 
L 308.596276 312.126383 
L 308.978943 312.428471 
L 309.744276 312.480972 
L 310.126943 312.671363 
L 310.892277 312.601009 
L 311.657611 312.743009 
L 312.040277 313.252282 
L 312.422944 313.107052 
L 312.805611 313.412781 
L 313.188278 313.537927 
L 313.570945 313.973969 
L 313.953612 314.182506 
L 314.336278 314.246752 
L 315.866946 313.867733 
L 316.249613 314.078267 
L 316.632279 314.134703 
L 317.014946 314.066521 
L 317.397613 313.662074 
L 318.162947 314.172111 
L 318.928281 314.81716 
L 319.310947 314.638515 
L 319.693614 314.605158 
L 320.076281 314.724549 
L 320.841615 314.442369 
L 321.224282 314.432973 
L 321.606948 314.916231 
L 321.989615 314.853688 
L 322.372282 314.577263 
L 323.137616 314.448124 
L 323.520283 314.901784 
L 323.902949 314.802772 
L 324.285616 315.049011 
L 324.668283 314.958631 
L 325.05095 314.522119 
L 325.433617 314.548135 
L 325.816284 314.445423 
L 326.19895 314.48477 
L 326.581617 314.344531 
L 326.964284 314.527698 
L 327.729618 314.053895 
L 328.112285 313.731841 
L 328.877618 313.814703 
L 329.642952 313.881945 
L 330.025619 314.510139 
L 330.408286 314.625419 
L 330.790952 314.571567 
L 331.173619 314.757553 
L 331.556286 314.698181 
L 331.938953 314.769357 
L 332.32162 314.353458 
L 333.46962 314.101464 
L 333.852287 314.038157 
L 335.000288 314.209637 
L 335.765621 313.876483 
L 336.148288 314.061236 
L 336.530955 314.632055 
L 336.913622 314.558412 
L 337.296289 314.754088 
L 338.061622 315.467377 
L 338.444289 315.511891 
L 338.826956 315.37271 
L 339.59229 315.383516 
L 340.74029 316.141554 
L 341.505624 315.948873 
L 342.270958 315.536263 
L 342.653624 315.403071 
L 343.036291 315.430555 
L 343.418958 315.258429 
L 343.801625 314.87847 
L 344.184292 314.726252 
L 344.566959 314.182682 
L 344.949625 313.893397 
L 345.332292 314.103989 
L 345.714959 314.090012 
L 346.097626 314.548957 
L 347.245627 314.457051 
L 348.01096 314.920342 
L 348.393627 314.81622 
L 348.776294 314.862379 
L 349.541628 314.738526 
L 349.924294 314.753912 
L 350.306961 314.418409 
L 350.689628 314.480541 
L 351.837629 313.642929 
L 352.602962 313.379307 
L 353.368296 313.498815 
L 353.750963 313.388351 
L 354.13363 313.766783 
L 354.898963 313.691554 
L 355.664297 313.943314 
L 356.046964 313.723267 
L 356.429631 313.360632 
L 356.812297 313.396044 
L 357.577631 313.088377 
L 358.725632 313.355112 
L 359.108299 313.855459 
L 359.490965 313.982191 
L 359.873632 313.723619 
L 361.4043 313.269137 
L 361.786966 312.960942 
L 362.169633 313.104351 
L 362.934967 312.746238 
L 363.317634 313.136415 
L 363.700301 312.992654 
L 364.465634 313.022663 
L 364.848301 313.164134 
L 365.230968 313.016438 
L 365.613635 313.150569 
L 366.378968 313.715221 
L 366.761635 313.543682 
L 367.909636 313.393108 
L 368.292303 313.248641 
L 369.440303 313.458588 
L 369.82297 313.364273 
L 370.588304 314.144686 
L 370.97097 314.20165 
L 371.353637 314.46263 
L 373.649638 314.457755 
L 374.032305 314.577792 
L 374.414972 314.109979 
L 374.797639 313.90843 
L 375.180306 313.966041 
L 375.945639 313.418712 
L 376.328306 313.108403 
L 377.858974 313.092899 
L 378.24164 312.923827 
L 378.624307 312.968165 
L 379.006974 312.673124 
L 379.772308 312.721339 
L 380.154975 313.118915 
L 380.537641 313.078218 
L 381.685642 313.438444 
L 382.450976 314.03798 
L 382.833642 314.498981 
L 383.216309 314.30865 
L 383.598976 313.984305 
L 383.981643 314.085725 
L 384.746977 314.069164 
L 385.129644 314.169351 
L 385.51231 313.943314 
L 385.894977 313.551551 
L 387.042978 313.043804 
L 387.425645 313.33632 
L 387.808311 313.40315 
L 388.190978 312.999055 
L 388.573645 313.010095 
L 388.956312 312.908382 
L 389.338979 312.969457 
L 389.721646 313.458646 
L 391.252313 314.37871 
L 391.63498 314.637693 
L 392.017647 315.058407 
L 393.165647 314.96609 
L 394.696314 316.161344 
L 395.078981 315.934309 
L 395.461648 316.030033 
L 395.844315 315.826722 
L 396.992315 315.823375 
L 397.757649 315.501966 
L 398.140316 315.785027 
L 399.288317 316.001316 
L 399.670983 316.312153 
L 400.818984 316.317615 
L 401.201651 316.169273 
L 401.966984 316.356844 
L 403.114985 316.273159 
L 403.497652 315.797418 
L 403.880319 315.667809 
L 404.262985 315.294369 
L 404.645652 315.119483 
L 405.028319 315.23576 
L 405.410986 315.052241 
L 406.558986 315.187546 
L 406.941653 314.964504 
L 408.089654 314.67099 
L 408.472321 314.310353 
L 408.854987 314.328205 
L 409.620321 314.052956 
L 410.002988 314.402905 
L 411.150988 314.446656 
L 411.533655 314.46445 
L 411.916322 314.721612 
L 412.298989 314.773115 
L 413.064323 315.025579 
L 413.44699 314.938665 
L 414.212323 315.309697 
L 415.742991 315.311517 
L 416.125657 315.105506 
L 416.508324 315.138745 
L 416.890991 314.710866 
L 417.273658 314.800129 
L 417.656325 314.34829 
L 418.038992 314.345177 
L 418.421658 314.056832 
L 419.186992 314.285923 
L 421.100326 313.93151 
L 421.482993 314.143629 
L 423.01366 314.054776 
L 423.396327 314.281694 
L 424.544328 314.158898 
L 425.309662 314.945359 
L 426.074995 315.166992 
L 426.457662 315.354799 
L 426.840329 315.264654 
L 427.222996 315.437603 
L 427.988329 315.318858 
L 428.370996 314.902372 
L 428.753663 314.729482 
L 429.13633 314.776404 
L 429.901664 314.302248 
L 430.666997 313.564412 
L 431.049664 314.153025 
L 431.814998 313.753334 
L 432.197665 313.781229 
L 432.580331 313.477967 
L 432.962998 312.911905 
L 433.345665 313.119326 
L 433.728332 311.834631 
L 434.110999 312.271672 
L 435.258999 312.268794 
L 435.641666 312.47463 
L 436.407 313.208825 
L 436.789667 313.410961 
L 437.555 313.299909 
L 437.937667 313.191325 
L 439.085668 313.288986 
L 439.851001 313.030532 
L 440.233668 312.945966 
L 440.616335 313.065768 
L 441.381669 312.890999 
L 441.764336 313.250286 
L 442.147002 313.247643 
L 442.912336 313.928221 
L 443.295003 313.809066 
L 443.67767 314.014549 
L 444.060337 314.423283 
L 444.443003 314.41606 
L 445.208337 314.698474 
L 445.591004 314.529401 
L 446.356338 314.934201 
L 446.739004 315.025638 
L 447.121671 314.909125 
L 447.504338 315.022995 
L 447.887005 314.784626 
L 448.269672 314.320688 
L 449.035005 314.307769 
L 449.800339 314.411773 
L 450.94834 314.111388 
L 452.479007 314.132706 
L 452.861674 314.489468 
L 453.627008 314.565929 
L 454.009674 314.539737 
L 454.775008 314.728836 
L 455.157675 315.059229 
L 455.540342 315.127704 
L 455.923009 315.556053 
L 456.305675 315.538142 
L 456.688342 315.284914 
L 457.071009 315.334949 
L 457.453676 315.03292 
L 457.836343 315.167344 
L 458.21901 315.509072 
L 458.601676 315.609729 
L 458.984343 315.150314 
L 459.36701 315.330427 
L 460.132344 315.430144 
L 460.897677 315.570794 
L 461.663011 315.273287 
L 462.045678 314.920812 
L 462.811012 315.202756 
L 464.724346 313.438386 
L 465.107013 313.550788 
L 466.255013 313.383829 
L 466.63768 312.864572 
L 467.020347 312.661203 
L 467.403014 312.722748 
L 467.785681 312.239666 
L 468.168347 312.34919 
L 468.551014 312.655624 
L 468.933681 312.754108 
L 469.316348 311.899348 
L 469.699015 311.950792 
L 470.081682 311.817131 
L 470.464348 311.516218 
L 471.229682 311.350023 
L 471.612349 311.127744 
L 471.995016 312.296278 
L 472.377683 311.932176 
L 472.760349 312.024728 
L 473.143016 311.898467 
L 473.90835 311.389017 
L 474.291017 310.767928 
L 475.05635 310.172092 
L 476.587018 310.342692 
L 476.969685 310.155355 
L 477.352351 310.118592 
L 477.735018 310.472183 
L 478.883019 310.958495 
L 479.648353 310.771041 
L 480.413686 311.25653 
L 480.796353 311.244315 
L 481.17902 310.945634 
L 481.561687 310.932831 
L 481.944354 310.733456 
L 482.32702 310.403473 
L 482.709687 310.397836 
L 483.092354 309.937363 
L 483.475021 310.250726 
L 483.857688 310.302934 
L 484.240355 310.107376 
L 484.623021 310.263176 
L 485.005688 310.558276 
L 485.388355 310.55669 
L 486.536356 311.480982 
L 487.301689 312.224808 
L 487.684356 312.033478 
L 488.44969 311.93564 
L 488.832357 312.051918 
L 489.59769 311.826292 
L 489.980357 311.883022 
L 489.980357 311.883022 
" style="fill:none;opacity:0.8;stroke:#00bfbf;stroke-linecap:square;"/>
   </g>
   <g id="line2d_5">
    <path clip-path="url(#pd2b886b3e2)" d="M 103.104184 368.603215 
L 243.542913 368.600866 
L 285.253599 368.607795 
L 323.902949 368.604742 
L 483.092354 368.54443 
L 489.980357 368.549715 
L 489.980357 368.549715 
" style="fill:none;opacity:0.8;stroke:#bf00bf;stroke-linecap:square;"/>
   </g>
   <g id="patch_3">
    <path d="M 64.8375 23.14175 
L 511.2375 23.14175 
" style="fill:none;stroke:#000000;stroke-linecap:square;stroke-linejoin:miter;"/>
   </g>
   <g id="patch_4">
    <path d="M 511.2375 368.74175 
L 511.2375 23.14175 
" style="fill:none;stroke:#000000;stroke-linecap:square;stroke-linejoin:miter;"/>
   </g>
   <g id="patch_5">
    <path d="M 64.8375 368.74175 
L 64.8375 23.14175 
" style="fill:none;stroke:#000000;stroke-linecap:square;stroke-linejoin:miter;"/>
   </g>
   <g id="patch_6">
    <path d="M 64.8375 368.74175 
L 511.2375 368.74175 
" style="fill:none;stroke:#000000;stroke-linecap:square;stroke-linejoin:miter;"/>
   </g>
   <g id="matplotlib.axis_1">
    <g id="xtick_1">
     <g id="line2d_6">
      <defs>
       <path d="M 0 0 
L 0 -4 
" id="m5164f10113" style="stroke:#000000;stroke-width:0.5;"/>
      </defs>
      <g>
       <use style="stroke:#000000;stroke-width:0.5;" x="64.8375" xlink:href="#m5164f10113" y="368.74175"/>
      </g>
     </g>
     <g id="line2d_7">
      <defs>
       <path d="M 0 0 
L 0 4 
" id="m8079768ddf" style="stroke:#000000;stroke-width:0.5;"/>
      </defs>
      <g>
       <use style="stroke:#000000;stroke-width:0.5;" x="64.8375" xlink:href="#m8079768ddf" y="23.14175"/>
      </g>
     </g>
     <g id="text_1">
      <!-- 0 -->
      <defs>
       <path d="M 31.78125 66.40625 
Q 24.171875 66.40625 20.328125 58.90625 
Q 16.5 51.421875 16.5 36.375 
Q 16.5 21.390625 20.328125 13.890625 
Q 24.171875 6.390625 31.78125 6.390625 
Q 39.453125 6.390625 43.28125 13.890625 
Q 47.125 21.390625 47.125 36.375 
Q 47.125 51.421875 43.28125 58.90625 
Q 39.453125 66.40625 31.78125 66.40625 
M 31.78125 74.21875 
Q 44.046875 74.21875 50.515625 64.515625 
Q 56.984375 54.828125 56.984375 36.375 
Q 56.984375 17.96875 50.515625 8.265625 
Q 44.046875 -1.421875 31.78125 -1.421875 
Q 19.53125 -1.421875 13.0625 8.265625 
Q 6.59375 17.96875 6.59375 36.375 
Q 6.59375 54.828125 13.0625 64.515625 
Q 19.53125 74.21875 31.78125 74.21875 
" id="BitstreamVeraSans-Roman-30"/>
      </defs>
      <g transform="translate(61.02 381.859875)scale(0.12 -0.12)">
       <use xlink:href="#BitstreamVeraSans-Roman-30"/>
      </g>
     </g>
    </g>
    <g id="xtick_2">
     <g id="line2d_8">
      <g>
       <use style="stroke:#000000;stroke-width:0.5;" x="141.370867622" xlink:href="#m5164f10113" y="368.74175"/>
      </g>
     </g>
     <g id="line2d_9">
      <g>
       <use style="stroke:#000000;stroke-width:0.5;" x="141.370867622" xlink:href="#m8079768ddf" y="23.14175"/>
      </g>
     </g>
     <g id="text_2">
      <!-- 2 k -->
      <defs>
       <path id="BitstreamVeraSans-Roman-20"/>
       <path d="M 9.078125 75.984375 
L 18.109375 75.984375 
L 18.109375 31.109375 
L 44.921875 54.6875 
L 56.390625 54.6875 
L 27.390625 29.109375 
L 57.625 0 
L 45.90625 0 
L 18.109375 26.703125 
L 18.109375 0 
L 9.078125 0 
z
" id="BitstreamVeraSans-Roman-6b"/>
       <path d="M 19.1875 8.296875 
L 53.609375 8.296875 
L 53.609375 0 
L 7.328125 0 
L 7.328125 8.296875 
Q 12.9375 14.109375 22.625 23.890625 
Q 32.328125 33.6875 34.8125 36.53125 
Q 39.546875 41.84375 41.421875 45.53125 
Q 43.3125 49.21875 43.3125 52.78125 
Q 43.3125 58.59375 39.234375 62.25 
Q 35.15625 65.921875 28.609375 65.921875 
Q 23.96875 65.921875 18.8125 64.3125 
Q 13.671875 62.703125 7.8125 59.421875 
L 7.8125 69.390625 
Q 13.765625 71.78125 18.9375 73 
Q 24.125 74.21875 28.421875 74.21875 
Q 39.75 74.21875 46.484375 68.546875 
Q 53.21875 62.890625 53.21875 53.421875 
Q 53.21875 48.921875 51.53125 44.890625 
Q 49.859375 40.875 45.40625 35.40625 
Q 44.1875 33.984375 37.640625 27.21875 
Q 31.109375 20.453125 19.1875 8.296875 
" id="BitstreamVeraSans-Roman-32"/>
      </defs>
      <g transform="translate(132.172117622 381.859875)scale(0.12 -0.12)">
       <use xlink:href="#BitstreamVeraSans-Roman-32"/>
       <use x="63.623046875" xlink:href="#BitstreamVeraSans-Roman-20"/>
       <use x="95.41015625" xlink:href="#BitstreamVeraSans-Roman-6b"/>
      </g>
     </g>
    </g>
    <g id="xtick_3">
     <g id="line2d_10">
      <g>
       <use style="stroke:#000000;stroke-width:0.5;" x="217.904235245" xlink:href="#m5164f10113" y="368.74175"/>
      </g>
     </g>
     <g id="line2d_11">
      <g>
       <use style="stroke:#000000;stroke-width:0.5;" x="217.904235245" xlink:href="#m8079768ddf" y="23.14175"/>
      </g>
     </g>
     <g id="text_3">
      <!-- 4 k -->
      <defs>
       <path d="M 37.796875 64.3125 
L 12.890625 25.390625 
L 37.796875 25.390625 
z
M 35.203125 72.90625 
L 47.609375 72.90625 
L 47.609375 25.390625 
L 58.015625 25.390625 
L 58.015625 17.1875 
L 47.609375 17.1875 
L 47.609375 0 
L 37.796875 0 
L 37.796875 17.1875 
L 4.890625 17.1875 
L 4.890625 26.703125 
z
" id="BitstreamVeraSans-Roman-34"/>
      </defs>
      <g transform="translate(208.705485245 381.859875)scale(0.12 -0.12)">
       <use xlink:href="#BitstreamVeraSans-Roman-34"/>
       <use x="63.623046875" xlink:href="#BitstreamVeraSans-Roman-20"/>
       <use x="95.41015625" xlink:href="#BitstreamVeraSans-Roman-6b"/>
      </g>
     </g>
    </g>
    <g id="xtick_4">
     <g id="line2d_12">
      <g>
       <use style="stroke:#000000;stroke-width:0.5;" x="294.437602867" xlink:href="#m5164f10113" y="368.74175"/>
      </g>
     </g>
     <g id="line2d_13">
      <g>
       <use style="stroke:#000000;stroke-width:0.5;" x="294.437602867" xlink:href="#m8079768ddf" y="23.14175"/>
      </g>
     </g>
     <g id="text_4">
      <!-- 6 k -->
      <defs>
       <path d="M 33.015625 40.375 
Q 26.375 40.375 22.484375 35.828125 
Q 18.609375 31.296875 18.609375 23.390625 
Q 18.609375 15.53125 22.484375 10.953125 
Q 26.375 6.390625 33.015625 6.390625 
Q 39.65625 6.390625 43.53125 10.953125 
Q 47.40625 15.53125 47.40625 23.390625 
Q 47.40625 31.296875 43.53125 35.828125 
Q 39.65625 40.375 33.015625 40.375 
M 52.59375 71.296875 
L 52.59375 62.3125 
Q 48.875 64.0625 45.09375 64.984375 
Q 41.3125 65.921875 37.59375 65.921875 
Q 27.828125 65.921875 22.671875 59.328125 
Q 17.53125 52.734375 16.796875 39.40625 
Q 19.671875 43.65625 24.015625 45.921875 
Q 28.375 48.1875 33.59375 48.1875 
Q 44.578125 48.1875 50.953125 41.515625 
Q 57.328125 34.859375 57.328125 23.390625 
Q 57.328125 12.15625 50.6875 5.359375 
Q 44.046875 -1.421875 33.015625 -1.421875 
Q 20.359375 -1.421875 13.671875 8.265625 
Q 6.984375 17.96875 6.984375 36.375 
Q 6.984375 53.65625 15.1875 63.9375 
Q 23.390625 74.21875 37.203125 74.21875 
Q 40.921875 74.21875 44.703125 73.484375 
Q 48.484375 72.75 52.59375 71.296875 
" id="BitstreamVeraSans-Roman-36"/>
      </defs>
      <g transform="translate(285.238852867 381.859875)scale(0.12 -0.12)">
       <use xlink:href="#BitstreamVeraSans-Roman-36"/>
       <use x="63.623046875" xlink:href="#BitstreamVeraSans-Roman-20"/>
       <use x="95.41015625" xlink:href="#BitstreamVeraSans-Roman-6b"/>
      </g>
     </g>
    </g>
    <g id="xtick_5">
     <g id="line2d_14">
      <g>
       <use style="stroke:#000000;stroke-width:0.5;" x="370.97097049" xlink:href="#m5164f10113" y="368.74175"/>
      </g>
     </g>
     <g id="line2d_15">
      <g>
       <use style="stroke:#000000;stroke-width:0.5;" x="370.97097049" xlink:href="#m8079768ddf" y="23.14175"/>
      </g>
     </g>
     <g id="text_5">
      <!-- 8 k -->
      <defs>
       <path d="M 31.78125 34.625 
Q 24.75 34.625 20.71875 30.859375 
Q 16.703125 27.09375 16.703125 20.515625 
Q 16.703125 13.921875 20.71875 10.15625 
Q 24.75 6.390625 31.78125 6.390625 
Q 38.8125 6.390625 42.859375 10.171875 
Q 46.921875 13.96875 46.921875 20.515625 
Q 46.921875 27.09375 42.890625 30.859375 
Q 38.875 34.625 31.78125 34.625 
M 21.921875 38.8125 
Q 15.578125 40.375 12.03125 44.71875 
Q 8.5 49.078125 8.5 55.328125 
Q 8.5 64.0625 14.71875 69.140625 
Q 20.953125 74.21875 31.78125 74.21875 
Q 42.671875 74.21875 48.875 69.140625 
Q 55.078125 64.0625 55.078125 55.328125 
Q 55.078125 49.078125 51.53125 44.71875 
Q 48 40.375 41.703125 38.8125 
Q 48.828125 37.15625 52.796875 32.3125 
Q 56.78125 27.484375 56.78125 20.515625 
Q 56.78125 9.90625 50.3125 4.234375 
Q 43.84375 -1.421875 31.78125 -1.421875 
Q 19.734375 -1.421875 13.25 4.234375 
Q 6.78125 9.90625 6.78125 20.515625 
Q 6.78125 27.484375 10.78125 32.3125 
Q 14.796875 37.15625 21.921875 38.8125 
M 18.3125 54.390625 
Q 18.3125 48.734375 21.84375 45.5625 
Q 25.390625 42.390625 31.78125 42.390625 
Q 38.140625 42.390625 41.71875 45.5625 
Q 45.3125 48.734375 45.3125 54.390625 
Q 45.3125 60.0625 41.71875 63.234375 
Q 38.140625 66.40625 31.78125 66.40625 
Q 25.390625 66.40625 21.84375 63.234375 
Q 18.3125 60.0625 18.3125 54.390625 
" id="BitstreamVeraSans-Roman-38"/>
      </defs>
      <g transform="translate(361.77222049 381.859875)scale(0.12 -0.12)">
       <use xlink:href="#BitstreamVeraSans-Roman-38"/>
       <use x="63.623046875" xlink:href="#BitstreamVeraSans-Roman-20"/>
       <use x="95.41015625" xlink:href="#BitstreamVeraSans-Roman-6b"/>
      </g>
     </g>
    </g>
    <g id="xtick_6">
     <g id="line2d_16">
      <g>
       <use style="stroke:#000000;stroke-width:0.5;" x="447.504338112" xlink:href="#m5164f10113" y="368.74175"/>
      </g>
     </g>
     <g id="line2d_17">
      <g>
       <use style="stroke:#000000;stroke-width:0.5;" x="447.504338112" xlink:href="#m8079768ddf" y="23.14175"/>
      </g>
     </g>
     <g id="text_6">
      <!-- 10 k -->
      <defs>
       <path d="M 12.40625 8.296875 
L 28.515625 8.296875 
L 28.515625 63.921875 
L 10.984375 60.40625 
L 10.984375 69.390625 
L 28.421875 72.90625 
L 38.28125 72.90625 
L 38.28125 8.296875 
L 54.390625 8.296875 
L 54.390625 0 
L 12.40625 0 
z
" id="BitstreamVeraSans-Roman-31"/>
      </defs>
      <g transform="translate(434.488088112 381.859875)scale(0.12 -0.12)">
       <use xlink:href="#BitstreamVeraSans-Roman-31"/>
       <use x="63.623046875" xlink:href="#BitstreamVeraSans-Roman-30"/>
       <use x="127.24609375" xlink:href="#BitstreamVeraSans-Roman-20"/>
       <use x="159.033203125" xlink:href="#BitstreamVeraSans-Roman-6b"/>
      </g>
     </g>
    </g>
    <g id="text_7">
     <!-- Amount of objects in table -->
     <defs>
      <path d="M 9.421875 54.6875 
L 18.40625 54.6875 
L 18.40625 0 
L 9.421875 0 
z
M 9.421875 75.984375 
L 18.40625 75.984375 
L 18.40625 64.59375 
L 9.421875 64.59375 
z
" id="BitstreamVeraSans-Roman-69"/>
      <path d="M 9.421875 54.6875 
L 18.40625 54.6875 
L 18.40625 -0.984375 
Q 18.40625 -11.421875 14.421875 -16.109375 
Q 10.453125 -20.796875 1.609375 -20.796875 
L -1.8125 -20.796875 
L -1.8125 -13.1875 
L 0.59375 -13.1875 
Q 5.71875 -13.1875 7.5625 -10.8125 
Q 9.421875 -8.453125 9.421875 -0.984375 
z
M 9.421875 75.984375 
L 18.40625 75.984375 
L 18.40625 64.59375 
L 9.421875 64.59375 
z
" id="BitstreamVeraSans-Roman-6a"/>
      <path d="M 48.6875 27.296875 
Q 48.6875 37.203125 44.609375 42.84375 
Q 40.53125 48.484375 33.40625 48.484375 
Q 26.265625 48.484375 22.1875 42.84375 
Q 18.109375 37.203125 18.109375 27.296875 
Q 18.109375 17.390625 22.1875 11.75 
Q 26.265625 6.109375 33.40625 6.109375 
Q 40.53125 6.109375 44.609375 11.75 
Q 48.6875 17.390625 48.6875 27.296875 
M 18.109375 46.390625 
Q 20.953125 51.265625 25.265625 53.625 
Q 29.59375 56 35.59375 56 
Q 45.5625 56 51.78125 48.09375 
Q 58.015625 40.1875 58.015625 27.296875 
Q 58.015625 14.40625 51.78125 6.484375 
Q 45.5625 -1.421875 35.59375 -1.421875 
Q 29.59375 -1.421875 25.265625 0.953125 
Q 20.953125 3.328125 18.109375 8.203125 
L 18.109375 0 
L 9.078125 0 
L 9.078125 75.984375 
L 18.109375 75.984375 
z
" id="BitstreamVeraSans-Roman-62"/>
      <path d="M 30.609375 48.390625 
Q 23.390625 48.390625 19.1875 42.75 
Q 14.984375 37.109375 14.984375 27.296875 
Q 14.984375 17.484375 19.15625 11.84375 
Q 23.34375 6.203125 30.609375 6.203125 
Q 37.796875 6.203125 41.984375 11.859375 
Q 46.1875 17.53125 46.1875 27.296875 
Q 46.1875 37.015625 41.984375 42.703125 
Q 37.796875 48.390625 30.609375 48.390625 
M 30.609375 56 
Q 42.328125 56 49.015625 48.375 
Q 55.71875 40.765625 55.71875 27.296875 
Q 55.71875 13.875 49.015625 6.21875 
Q 42.328125 -1.421875 30.609375 -1.421875 
Q 18.84375 -1.421875 12.171875 6.21875 
Q 5.515625 13.875 5.515625 27.296875 
Q 5.515625 40.765625 12.171875 48.375 
Q 18.84375 56 30.609375 56 
" id="BitstreamVeraSans-Roman-6f"/>
      <path d="M 8.5 21.578125 
L 8.5 54.6875 
L 17.484375 54.6875 
L 17.484375 21.921875 
Q 17.484375 14.15625 20.5 10.265625 
Q 23.53125 6.390625 29.59375 6.390625 
Q 36.859375 6.390625 41.078125 11.03125 
Q 45.3125 15.671875 45.3125 23.6875 
L 45.3125 54.6875 
L 54.296875 54.6875 
L 54.296875 0 
L 45.3125 0 
L 45.3125 8.40625 
Q 42.046875 3.421875 37.71875 1 
Q 33.40625 -1.421875 27.6875 -1.421875 
Q 18.265625 -1.421875 13.375 4.4375 
Q 8.5 10.296875 8.5 21.578125 
" id="BitstreamVeraSans-Roman-75"/>
      <path d="M 52 44.1875 
Q 55.375 50.25 60.0625 53.125 
Q 64.75 56 71.09375 56 
Q 79.640625 56 84.28125 50.015625 
Q 88.921875 44.046875 88.921875 33.015625 
L 88.921875 0 
L 79.890625 0 
L 79.890625 32.71875 
Q 79.890625 40.578125 77.09375 44.375 
Q 74.3125 48.1875 68.609375 48.1875 
Q 61.625 48.1875 57.5625 43.546875 
Q 53.515625 38.921875 53.515625 30.90625 
L 53.515625 0 
L 44.484375 0 
L 44.484375 32.71875 
Q 44.484375 40.625 41.703125 44.40625 
Q 38.921875 48.1875 33.109375 48.1875 
Q 26.21875 48.1875 22.15625 43.53125 
Q 18.109375 38.875 18.109375 30.90625 
L 18.109375 0 
L 9.078125 0 
L 9.078125 54.6875 
L 18.109375 54.6875 
L 18.109375 46.1875 
Q 21.1875 51.21875 25.484375 53.609375 
Q 29.78125 56 35.6875 56 
Q 41.65625 56 45.828125 52.96875 
Q 50 49.953125 52 44.1875 
" id="BitstreamVeraSans-Roman-6d"/>
      <path d="M 34.28125 27.484375 
Q 23.390625 27.484375 19.1875 25 
Q 14.984375 22.515625 14.984375 16.5 
Q 14.984375 11.71875 18.140625 8.90625 
Q 21.296875 6.109375 26.703125 6.109375 
Q 34.1875 6.109375 38.703125 11.40625 
Q 43.21875 16.703125 43.21875 25.484375 
L 43.21875 27.484375 
z
M 52.203125 31.203125 
L 52.203125 0 
L 43.21875 0 
L 43.21875 8.296875 
Q 40.140625 3.328125 35.546875 0.953125 
Q 30.953125 -1.421875 24.3125 -1.421875 
Q 15.921875 -1.421875 10.953125 3.296875 
Q 6 8.015625 6 15.921875 
Q 6 25.140625 12.171875 29.828125 
Q 18.359375 34.515625 30.609375 34.515625 
L 43.21875 34.515625 
L 43.21875 35.40625 
Q 43.21875 41.609375 39.140625 45 
Q 35.0625 48.390625 27.6875 48.390625 
Q 23 48.390625 18.546875 47.265625 
Q 14.109375 46.140625 10.015625 43.890625 
L 10.015625 52.203125 
Q 14.9375 54.109375 19.578125 55.046875 
Q 24.21875 56 28.609375 56 
Q 40.484375 56 46.34375 49.84375 
Q 52.203125 43.703125 52.203125 31.203125 
" id="BitstreamVeraSans-Roman-61"/>
      <path d="M 37.109375 75.984375 
L 37.109375 68.5 
L 28.515625 68.5 
Q 23.6875 68.5 21.796875 66.546875 
Q 19.921875 64.59375 19.921875 59.515625 
L 19.921875 54.6875 
L 34.71875 54.6875 
L 34.71875 47.703125 
L 19.921875 47.703125 
L 19.921875 0 
L 10.890625 0 
L 10.890625 47.703125 
L 2.296875 47.703125 
L 2.296875 54.6875 
L 10.890625 54.6875 
L 10.890625 58.5 
Q 10.890625 67.625 15.140625 71.796875 
Q 19.390625 75.984375 28.609375 75.984375 
z
" id="BitstreamVeraSans-Roman-66"/>
      <path d="M 18.3125 70.21875 
L 18.3125 54.6875 
L 36.8125 54.6875 
L 36.8125 47.703125 
L 18.3125 47.703125 
L 18.3125 18.015625 
Q 18.3125 11.328125 20.140625 9.421875 
Q 21.96875 7.515625 27.59375 7.515625 
L 36.8125 7.515625 
L 36.8125 0 
L 27.59375 0 
Q 17.1875 0 13.234375 3.875 
Q 9.28125 7.765625 9.28125 18.015625 
L 9.28125 47.703125 
L 2.6875 47.703125 
L 2.6875 54.6875 
L 9.28125 54.6875 
L 9.28125 70.21875 
z
" id="BitstreamVeraSans-Roman-74"/>
      <path d="M 34.1875 63.1875 
L 20.796875 26.90625 
L 47.609375 26.90625 
z
M 28.609375 72.90625 
L 39.796875 72.90625 
L 67.578125 0 
L 57.328125 0 
L 50.6875 18.703125 
L 17.828125 18.703125 
L 11.1875 0 
L 0.78125 0 
z
" id="BitstreamVeraSans-Roman-41"/>
      <path d="M 56.203125 29.59375 
L 56.203125 25.203125 
L 14.890625 25.203125 
Q 15.484375 15.921875 20.484375 11.0625 
Q 25.484375 6.203125 34.421875 6.203125 
Q 39.59375 6.203125 44.453125 7.46875 
Q 49.3125 8.734375 54.109375 11.28125 
L 54.109375 2.78125 
Q 49.265625 0.734375 44.1875 -0.34375 
Q 39.109375 -1.421875 33.890625 -1.421875 
Q 20.796875 -1.421875 13.15625 6.1875 
Q 5.515625 13.8125 5.515625 26.8125 
Q 5.515625 40.234375 12.765625 48.109375 
Q 20.015625 56 32.328125 56 
Q 43.359375 56 49.78125 48.890625 
Q 56.203125 41.796875 56.203125 29.59375 
M 47.21875 32.234375 
Q 47.125 39.59375 43.09375 43.984375 
Q 39.0625 48.390625 32.421875 48.390625 
Q 24.90625 48.390625 20.390625 44.140625 
Q 15.875 39.890625 15.1875 32.171875 
z
" id="BitstreamVeraSans-Roman-65"/>
      <path d="M 44.28125 53.078125 
L 44.28125 44.578125 
Q 40.484375 46.53125 36.375 47.5 
Q 32.28125 48.484375 27.875 48.484375 
Q 21.1875 48.484375 17.84375 46.4375 
Q 14.5 44.390625 14.5 40.28125 
Q 14.5 37.15625 16.890625 35.375 
Q 19.28125 33.59375 26.515625 31.984375 
L 29.59375 31.296875 
Q 39.15625 29.25 43.1875 25.515625 
Q 47.21875 21.78125 47.21875 15.09375 
Q 47.21875 7.46875 41.1875 3.015625 
Q 35.15625 -1.421875 24.609375 -1.421875 
Q 20.21875 -1.421875 15.453125 -0.5625 
Q 10.6875 0.296875 5.421875 2 
L 5.421875 11.28125 
Q 10.40625 8.6875 15.234375 7.390625 
Q 20.0625 6.109375 24.8125 6.109375 
Q 31.15625 6.109375 34.5625 8.28125 
Q 37.984375 10.453125 37.984375 14.40625 
Q 37.984375 18.0625 35.515625 20.015625 
Q 33.0625 21.96875 24.703125 23.78125 
L 21.578125 24.515625 
Q 13.234375 26.265625 9.515625 29.90625 
Q 5.8125 33.546875 5.8125 39.890625 
Q 5.8125 47.609375 11.28125 51.796875 
Q 16.75 56 26.8125 56 
Q 31.78125 56 36.171875 55.265625 
Q 40.578125 54.546875 44.28125 53.078125 
" id="BitstreamVeraSans-Roman-73"/>
      <path d="M 9.421875 75.984375 
L 18.40625 75.984375 
L 18.40625 0 
L 9.421875 0 
z
" id="BitstreamVeraSans-Roman-6c"/>
      <path d="M 48.78125 52.59375 
L 48.78125 44.1875 
Q 44.96875 46.296875 41.140625 47.34375 
Q 37.3125 48.390625 33.40625 48.390625 
Q 24.65625 48.390625 19.8125 42.84375 
Q 14.984375 37.3125 14.984375 27.296875 
Q 14.984375 17.28125 19.8125 11.734375 
Q 24.65625 6.203125 33.40625 6.203125 
Q 37.3125 6.203125 41.140625 7.25 
Q 44.96875 8.296875 48.78125 10.40625 
L 48.78125 2.09375 
Q 45.015625 0.34375 40.984375 -0.53125 
Q 36.96875 -1.421875 32.421875 -1.421875 
Q 20.0625 -1.421875 12.78125 6.34375 
Q 5.515625 14.109375 5.515625 27.296875 
Q 5.515625 40.671875 12.859375 48.328125 
Q 20.21875 56 33.015625 56 
Q 37.15625 56 41.109375 55.140625 
Q 45.0625 54.296875 48.78125 52.59375 
" id="BitstreamVeraSans-Roman-63"/>
      <path d="M 54.890625 33.015625 
L 54.890625 0 
L 45.90625 0 
L 45.90625 32.71875 
Q 45.90625 40.484375 42.875 44.328125 
Q 39.84375 48.1875 33.796875 48.1875 
Q 26.515625 48.1875 22.3125 43.546875 
Q 18.109375 38.921875 18.109375 30.90625 
L 18.109375 0 
L 9.078125 0 
L 9.078125 54.6875 
L 18.109375 54.6875 
L 18.109375 46.1875 
Q 21.34375 51.125 25.703125 53.5625 
Q 30.078125 56 35.796875 56 
Q 45.21875 56 50.046875 50.171875 
Q 54.890625 44.34375 54.890625 33.015625 
" id="BitstreamVeraSans-Roman-6e"/>
     </defs>
     <g transform="translate(208.7671875 398.473625)scale(0.12 -0.12)">
      <use xlink:href="#BitstreamVeraSans-Roman-41"/>
      <use x="68.408203125" xlink:href="#BitstreamVeraSans-Roman-6d"/>
      <use x="165.8203125" xlink:href="#BitstreamVeraSans-Roman-6f"/>
      <use x="227.001953125" xlink:href="#BitstreamVeraSans-Roman-75"/>
      <use x="290.380859375" xlink:href="#BitstreamVeraSans-Roman-6e"/>
      <use x="353.759765625" xlink:href="#BitstreamVeraSans-Roman-74"/>
      <use x="392.96875" xlink:href="#BitstreamVeraSans-Roman-20"/>
      <use x="424.755859375" xlink:href="#BitstreamVeraSans-Roman-6f"/>
      <use x="485.9375" xlink:href="#BitstreamVeraSans-Roman-66"/>
      <use x="521.142578125" xlink:href="#BitstreamVeraSans-Roman-20"/>
      <use x="552.9296875" xlink:href="#BitstreamVeraSans-Roman-6f"/>
      <use x="614.111328125" xlink:href="#BitstreamVeraSans-Roman-62"/>
      <use x="677.587890625" xlink:href="#BitstreamVeraSans-Roman-6a"/>
      <use x="705.37109375" xlink:href="#BitstreamVeraSans-Roman-65"/>
      <use x="766.89453125" xlink:href="#BitstreamVeraSans-Roman-63"/>
      <use x="821.875" xlink:href="#BitstreamVeraSans-Roman-74"/>
      <use x="861.083984375" xlink:href="#BitstreamVeraSans-Roman-73"/>
      <use x="913.18359375" xlink:href="#BitstreamVeraSans-Roman-20"/>
      <use x="944.970703125" xlink:href="#BitstreamVeraSans-Roman-69"/>
      <use x="972.75390625" xlink:href="#BitstreamVeraSans-Roman-6e"/>
      <use x="1036.1328125" xlink:href="#BitstreamVeraSans-Roman-20"/>
      <use x="1067.919921875" xlink:href="#BitstreamVeraSans-Roman-74"/>
      <use x="1107.12890625" xlink:href="#BitstreamVeraSans-Roman-61"/>
      <use x="1168.408203125" xlink:href="#BitstreamVeraSans-Roman-62"/>
      <use x="1231.884765625" xlink:href="#BitstreamVeraSans-Roman-6c"/>
      <use x="1259.66796875" xlink:href="#BitstreamVeraSans-Roman-65"/>
     </g>
    </g>
   </g>
   <g id="matplotlib.axis_2">
    <g id="ytick_1">
     <g id="line2d_18">
      <defs>
       <path d="M 0 0 
L 4 0 
" id="m168524d841" style="stroke:#000000;stroke-width:0.5;"/>
      </defs>
      <g>
       <use style="stroke:#000000;stroke-width:0.5;" x="64.8375" xlink:href="#m168524d841" y="368.74175"/>
      </g>
     </g>
     <g id="line2d_19">
      <defs>
       <path d="M 0 0 
L -4 0 
" id="m080d3cb963" style="stroke:#000000;stroke-width:0.5;"/>
      </defs>
      <g>
       <use style="stroke:#000000;stroke-width:0.5;" x="511.2375" xlink:href="#m080d3cb963" y="368.74175"/>
      </g>
     </g>
     <g id="text_8">
      <!-- 0 -->
      <g transform="translate(53.2025 372.053)scale(0.12 -0.12)">
       <use xlink:href="#BitstreamVeraSans-Roman-30"/>
      </g>
     </g>
    </g>
    <g id="ytick_2">
     <g id="line2d_20">
      <g>
       <use style="stroke:#000000;stroke-width:0.5;" x="64.8375" xlink:href="#m168524d841" y="319.478624327"/>
      </g>
     </g>
     <g id="line2d_21">
      <g>
       <use style="stroke:#000000;stroke-width:0.5;" x="511.2375" xlink:href="#m080d3cb963" y="319.478624327"/>
      </g>
     </g>
     <g id="text_9">
      <!-- 2 ms -->
      <g transform="translate(31.44875 322.789874327)scale(0.12 -0.12)">
       <use xlink:href="#BitstreamVeraSans-Roman-32"/>
       <use x="63.623046875" xlink:href="#BitstreamVeraSans-Roman-20"/>
       <use x="95.41015625" xlink:href="#BitstreamVeraSans-Roman-6d"/>
       <use x="192.822265625" xlink:href="#BitstreamVeraSans-Roman-73"/>
      </g>
     </g>
    </g>
    <g id="ytick_3">
     <g id="line2d_22">
      <g>
       <use style="stroke:#000000;stroke-width:0.5;" x="64.8375" xlink:href="#m168524d841" y="270.215498655"/>
      </g>
     </g>
     <g id="line2d_23">
      <g>
       <use style="stroke:#000000;stroke-width:0.5;" x="511.2375" xlink:href="#m080d3cb963" y="270.215498655"/>
      </g>
     </g>
     <g id="text_10">
      <!-- 4 ms -->
      <g transform="translate(31.44875 273.526748655)scale(0.12 -0.12)">
       <use xlink:href="#BitstreamVeraSans-Roman-34"/>
       <use x="63.623046875" xlink:href="#BitstreamVeraSans-Roman-20"/>
       <use x="95.41015625" xlink:href="#BitstreamVeraSans-Roman-6d"/>
       <use x="192.822265625" xlink:href="#BitstreamVeraSans-Roman-73"/>
      </g>
     </g>
    </g>
    <g id="ytick_4">
     <g id="line2d_24">
      <g>
       <use style="stroke:#000000;stroke-width:0.5;" x="64.8375" xlink:href="#m168524d841" y="220.952372982"/>
      </g>
     </g>
     <g id="line2d_25">
      <g>
       <use style="stroke:#000000;stroke-width:0.5;" x="511.2375" xlink:href="#m080d3cb963" y="220.952372982"/>
      </g>
     </g>
     <g id="text_11">
      <!-- 6 ms -->
      <g transform="translate(31.44875 224.263622982)scale(0.12 -0.12)">
       <use xlink:href="#BitstreamVeraSans-Roman-36"/>
       <use x="63.623046875" xlink:href="#BitstreamVeraSans-Roman-20"/>
       <use x="95.41015625" xlink:href="#BitstreamVeraSans-Roman-6d"/>
       <use x="192.822265625" xlink:href="#BitstreamVeraSans-Roman-73"/>
      </g>
     </g>
    </g>
    <g id="ytick_5">
     <g id="line2d_26">
      <g>
       <use style="stroke:#000000;stroke-width:0.5;" x="64.8375" xlink:href="#m168524d841" y="171.68924731"/>
      </g>
     </g>
     <g id="line2d_27">
      <g>
       <use style="stroke:#000000;stroke-width:0.5;" x="511.2375" xlink:href="#m080d3cb963" y="171.68924731"/>
      </g>
     </g>
     <g id="text_12">
      <!-- 8 ms -->
      <g transform="translate(31.44875 175.00049731)scale(0.12 -0.12)">
       <use xlink:href="#BitstreamVeraSans-Roman-38"/>
       <use x="63.623046875" xlink:href="#BitstreamVeraSans-Roman-20"/>
       <use x="95.41015625" xlink:href="#BitstreamVeraSans-Roman-6d"/>
       <use x="192.822265625" xlink:href="#BitstreamVeraSans-Roman-73"/>
      </g>
     </g>
    </g>
    <g id="ytick_6">
     <g id="line2d_28">
      <g>
       <use style="stroke:#000000;stroke-width:0.5;" x="64.8375" xlink:href="#m168524d841" y="122.426121637"/>
      </g>
     </g>
     <g id="line2d_29">
      <g>
       <use style="stroke:#000000;stroke-width:0.5;" x="511.2375" xlink:href="#m080d3cb963" y="122.426121637"/>
      </g>
     </g>
     <g id="text_13">
      <!-- 10 ms -->
      <g transform="translate(23.81375 125.737371637)scale(0.12 -0.12)">
       <use xlink:href="#BitstreamVeraSans-Roman-31"/>
       <use x="63.623046875" xlink:href="#BitstreamVeraSans-Roman-30"/>
       <use x="127.24609375" xlink:href="#BitstreamVeraSans-Roman-20"/>
       <use x="159.033203125" xlink:href="#BitstreamVeraSans-Roman-6d"/>
       <use x="256.4453125" xlink:href="#BitstreamVeraSans-Roman-73"/>
      </g>
     </g>
    </g>
    <g id="ytick_7">
     <g id="line2d_30">
      <g>
       <use style="stroke:#000000;stroke-width:0.5;" x="64.8375" xlink:href="#m168524d841" y="73.1629959645"/>
      </g>
     </g>
     <g id="line2d_31">
      <g>
       <use style="stroke:#000000;stroke-width:0.5;" x="511.2375" xlink:href="#m080d3cb963" y="73.1629959645"/>
      </g>
     </g>
     <g id="text_14">
      <!-- 12 ms -->
      <g transform="translate(23.81375 76.4742459645)scale(0.12 -0.12)">
       <use xlink:href="#BitstreamVeraSans-Roman-31"/>
       <use x="63.623046875" xlink:href="#BitstreamVeraSans-Roman-32"/>
       <use x="127.24609375" xlink:href="#BitstreamVeraSans-Roman-20"/>
       <use x="159.033203125" xlink:href="#BitstreamVeraSans-Roman-6d"/>
       <use x="256.4453125" xlink:href="#BitstreamVeraSans-Roman-73"/>
      </g>
     </g>
    </g>
    <g id="ytick_8">
     <g id="line2d_32">
      <g>
       <use style="stroke:#000000;stroke-width:0.5;" x="64.8375" xlink:href="#m168524d841" y="23.8998702919"/>
      </g>
     </g>
     <g id="line2d_33">
      <g>
       <use style="stroke:#000000;stroke-width:0.5;" x="511.2375" xlink:href="#m080d3cb963" y="23.8998702919"/>
      </g>
     </g>
     <g id="text_15">
      <!-- 14 ms -->
      <g transform="translate(23.81375 27.2111202919)scale(0.12 -0.12)">
       <use xlink:href="#BitstreamVeraSans-Roman-31"/>
       <use x="63.623046875" xlink:href="#BitstreamVeraSans-Roman-34"/>
       <use x="127.24609375" xlink:href="#BitstreamVeraSans-Roman-20"/>
       <use x="159.033203125" xlink:href="#BitstreamVeraSans-Roman-6d"/>
       <use x="256.4453125" xlink:href="#BitstreamVeraSans-Roman-73"/>
      </g>
     </g>
    </g>
    <g id="text_16">
     <!-- Time (s) -->
     <defs>
      <path d="M 8.015625 75.875 
L 15.828125 75.875 
Q 23.140625 64.359375 26.78125 53.3125 
Q 30.421875 42.28125 30.421875 31.390625 
Q 30.421875 20.453125 26.78125 9.375 
Q 23.140625 -1.703125 15.828125 -13.1875 
L 8.015625 -13.1875 
Q 14.5 -2 17.703125 9.0625 
Q 20.90625 20.125 20.90625 31.390625 
Q 20.90625 42.671875 17.703125 53.65625 
Q 14.5 64.65625 8.015625 75.875 
" id="BitstreamVeraSans-Roman-29"/>
      <path d="M 31 75.875 
Q 24.46875 64.65625 21.28125 53.65625 
Q 18.109375 42.671875 18.109375 31.390625 
Q 18.109375 20.125 21.3125 9.0625 
Q 24.515625 -2 31 -13.1875 
L 23.1875 -13.1875 
Q 15.875 -1.703125 12.234375 9.375 
Q 8.59375 20.453125 8.59375 31.390625 
Q 8.59375 42.28125 12.203125 53.3125 
Q 15.828125 64.359375 23.1875 75.875 
z
" id="BitstreamVeraSans-Roman-28"/>
      <path d="M -0.296875 72.90625 
L 61.375 72.90625 
L 61.375 64.59375 
L 35.5 64.59375 
L 35.5 0 
L 25.59375 0 
L 25.59375 64.59375 
L -0.296875 64.59375 
z
" id="BitstreamVeraSans-Roman-54"/>
     </defs>
     <g transform="translate(16.318125 220.521125)rotate(-90.0)scale(0.12 -0.12)">
      <use xlink:href="#BitstreamVeraSans-Roman-54"/>
      <use x="61.037109375" xlink:href="#BitstreamVeraSans-Roman-69"/>
      <use x="88.8203125" xlink:href="#BitstreamVeraSans-Roman-6d"/>
      <use x="186.232421875" xlink:href="#BitstreamVeraSans-Roman-65"/>
      <use x="247.755859375" xlink:href="#BitstreamVeraSans-Roman-20"/>
      <use x="279.54296875" xlink:href="#BitstreamVeraSans-Roman-28"/>
      <use x="318.556640625" xlink:href="#BitstreamVeraSans-Roman-73"/>
      <use x="370.65625" xlink:href="#BitstreamVeraSans-Roman-29"/>
     </g>
    </g>
   </g>
   <g id="text_17">
    <!-- Get descendants count [leaf] -->
    <defs>
     <path d="M 30.421875 75.984375 
L 30.421875 -13.1875 
L 9.71875 -13.1875 
L 9.71875 -6.203125 
L 21.390625 -6.203125 
L 21.390625 69 
L 9.71875 69 
L 9.71875 75.984375 
z
" id="BitstreamVeraSans-Roman-5d"/>
     <path d="M 8.59375 75.984375 
L 29.296875 75.984375 
L 29.296875 69 
L 17.578125 69 
L 17.578125 -6.203125 
L 29.296875 -6.203125 
L 29.296875 -13.1875 
L 8.59375 -13.1875 
z
" id="BitstreamVeraSans-Roman-5b"/>
     <path d="M 59.515625 10.40625 
L 59.515625 29.984375 
L 43.40625 29.984375 
L 43.40625 38.09375 
L 69.28125 38.09375 
L 69.28125 6.78125 
Q 63.578125 2.734375 56.6875 0.65625 
Q 49.8125 -1.421875 42 -1.421875 
Q 24.90625 -1.421875 15.25 8.5625 
Q 5.609375 18.5625 5.609375 36.375 
Q 5.609375 54.25 15.25 64.234375 
Q 24.90625 74.21875 42 74.21875 
Q 49.125 74.21875 55.546875 72.453125 
Q 61.96875 70.703125 67.390625 67.28125 
L 67.390625 56.78125 
Q 61.921875 61.421875 55.765625 63.765625 
Q 49.609375 66.109375 42.828125 66.109375 
Q 29.4375 66.109375 22.71875 58.640625 
Q 16.015625 51.171875 16.015625 36.375 
Q 16.015625 21.625 22.71875 14.15625 
Q 29.4375 6.6875 42.828125 6.6875 
Q 48.046875 6.6875 52.140625 7.59375 
Q 56.25 8.5 59.515625 10.40625 
" id="BitstreamVeraSans-Roman-47"/>
     <path d="M 45.40625 46.390625 
L 45.40625 75.984375 
L 54.390625 75.984375 
L 54.390625 0 
L 45.40625 0 
L 45.40625 8.203125 
Q 42.578125 3.328125 38.25 0.953125 
Q 33.9375 -1.421875 27.875 -1.421875 
Q 17.96875 -1.421875 11.734375 6.484375 
Q 5.515625 14.40625 5.515625 27.296875 
Q 5.515625 40.1875 11.734375 48.09375 
Q 17.96875 56 27.875 56 
Q 33.9375 56 38.25 53.625 
Q 42.578125 51.265625 45.40625 46.390625 
M 14.796875 27.296875 
Q 14.796875 17.390625 18.875 11.75 
Q 22.953125 6.109375 30.078125 6.109375 
Q 37.203125 6.109375 41.296875 11.75 
Q 45.40625 17.390625 45.40625 27.296875 
Q 45.40625 37.203125 41.296875 42.84375 
Q 37.203125 48.484375 30.078125 48.484375 
Q 22.953125 48.484375 18.875 42.84375 
Q 14.796875 37.203125 14.796875 27.296875 
" id="BitstreamVeraSans-Roman-64"/>
    </defs>
    <g transform="translate(183.208875 18.14175)scale(0.144 -0.144)">
     <use xlink:href="#BitstreamVeraSans-Roman-47"/>
     <use x="77.490234375" xlink:href="#BitstreamVeraSans-Roman-65"/>
     <use x="139.013671875" xlink:href="#BitstreamVeraSans-Roman-74"/>
     <use x="178.22265625" xlink:href="#BitstreamVeraSans-Roman-20"/>
     <use x="210.009765625" xlink:href="#BitstreamVeraSans-Roman-64"/>
     <use x="273.486328125" xlink:href="#BitstreamVeraSans-Roman-65"/>
     <use x="335.009765625" xlink:href="#BitstreamVeraSans-Roman-73"/>
     <use x="387.109375" xlink:href="#BitstreamVeraSans-Roman-63"/>
     <use x="442.08984375" xlink:href="#BitstreamVeraSans-Roman-65"/>
     <use x="503.61328125" xlink:href="#BitstreamVeraSans-Roman-6e"/>
     <use x="566.9921875" xlink:href="#BitstreamVeraSans-Roman-64"/>
     <use x="630.46875" xlink:href="#BitstreamVeraSans-Roman-61"/>
     <use x="691.748046875" xlink:href="#BitstreamVeraSans-Roman-6e"/>
     <use x="755.126953125" xlink:href="#BitstreamVeraSans-Roman-74"/>
     <use x="794.3359375" xlink:href="#BitstreamVeraSans-Roman-73"/>
     <use x="846.435546875" xlink:href="#BitstreamVeraSans-Roman-20"/>
     <use x="878.22265625" xlink:href="#BitstreamVeraSans-Roman-63"/>
     <use x="933.203125" xlink:href="#BitstreamVeraSans-Roman-6f"/>
     <use x="994.384765625" xlink:href="#BitstreamVeraSans-Roman-75"/>
     <use x="1057.763671875" xlink:href="#BitstreamVeraSans-Roman-6e"/>
     <use x="1121.142578125" xlink:href="#BitstreamVeraSans-Roman-74"/>
     <use x="1160.3515625" xlink:href="#BitstreamVeraSans-Roman-20"/>
     <use x="1192.138671875" xlink:href="#BitstreamVeraSans-Roman-5b"/>
     <use x="1231.15234375" xlink:href="#BitstreamVeraSans-Roman-6c"/>
     <use x="1258.935546875" xlink:href="#BitstreamVeraSans-Roman-65"/>
     <use x="1320.458984375" xlink:href="#BitstreamVeraSans-Roman-61"/>
     <use x="1381.73828125" xlink:href="#BitstreamVeraSans-Roman-66"/>
     <use x="1416.943359375" xlink:href="#BitstreamVeraSans-Roman-5d"/>
    </g>
   </g>
   <g id="legend_1">
    <g id="patch_7">
     <path d="M 75.07475 467.73475 
L 490.60025 467.73475 
Q 493.48025 467.73475 493.48025 464.85475 
L 493.48025 424.02175 
Q 493.48025 421.14175 490.60025 421.14175 
L 75.07475 421.14175 
Q 72.19475 421.14175 72.19475 424.02175 
L 72.19475 464.85475 
Q 72.19475 467.73475 75.07475 467.73475 
z
" style="fill:#4c4c4c;opacity:0.5;stroke:#4c4c4c;stroke-linejoin:miter;"/>
    </g>
    <g id="patch_8">
     <path d="M 73.07475 465.73475 
L 488.60025 465.73475 
Q 491.48025 465.73475 491.48025 462.85475 
L 491.48025 422.02175 
Q 491.48025 419.14175 488.60025 419.14175 
L 73.07475 419.14175 
Q 70.19475 419.14175 70.19475 422.02175 
L 70.19475 462.85475 
Q 70.19475 465.73475 73.07475 465.73475 
z
" style="fill:#ffffff;stroke:#000000;stroke-linejoin:miter;"/>
    </g>
    <g id="line2d_34">
     <path d="M 80.27475 430.8035 
L 100.43475 430.8035 
" style="fill:none;opacity:0.8;stroke:#0000ff;stroke-linecap:square;"/>
    </g>
    <g id="line2d_35"/>
    <g id="text_18">
     <!-- MPTT -->
     <defs>
      <path d="M 9.8125 72.90625 
L 24.515625 72.90625 
L 43.109375 23.296875 
L 61.8125 72.90625 
L 76.515625 72.90625 
L 76.515625 0 
L 66.890625 0 
L 66.890625 64.015625 
L 48.09375 14.015625 
L 38.1875 14.015625 
L 19.390625 64.015625 
L 19.390625 0 
L 9.8125 0 
z
" id="BitstreamVeraSans-Roman-4d"/>
      <path d="M 19.671875 64.796875 
L 19.671875 37.40625 
L 32.078125 37.40625 
Q 38.96875 37.40625 42.71875 40.96875 
Q 46.484375 44.53125 46.484375 51.125 
Q 46.484375 57.671875 42.71875 61.234375 
Q 38.96875 64.796875 32.078125 64.796875 
z
M 9.8125 72.90625 
L 32.078125 72.90625 
Q 44.34375 72.90625 50.609375 67.359375 
Q 56.890625 61.8125 56.890625 51.125 
Q 56.890625 40.328125 50.609375 34.8125 
Q 44.34375 29.296875 32.078125 29.296875 
L 19.671875 29.296875 
L 19.671875 0 
L 9.8125 0 
z
" id="BitstreamVeraSans-Roman-50"/>
     </defs>
     <g transform="translate(116.27475 435.8435)scale(0.144 -0.144)">
      <use xlink:href="#BitstreamVeraSans-Roman-4d"/>
      <use x="86.279296875" xlink:href="#BitstreamVeraSans-Roman-50"/>
      <use x="146.58203125" xlink:href="#BitstreamVeraSans-Roman-54"/>
      <use x="207.650390625" xlink:href="#BitstreamVeraSans-Roman-54"/>
     </g>
    </g>
    <g id="line2d_36">
     <path d="M 80.27475 451.94 
L 100.43475 451.94 
" style="fill:none;opacity:0.8;stroke:#008000;stroke-linecap:square;"/>
    </g>
    <g id="line2d_37"/>
    <g id="text_19">
     <!-- tree -->
     <defs>
      <path d="M 41.109375 46.296875 
Q 39.59375 47.171875 37.8125 47.578125 
Q 36.03125 48 33.890625 48 
Q 26.265625 48 22.1875 43.046875 
Q 18.109375 38.09375 18.109375 28.8125 
L 18.109375 0 
L 9.078125 0 
L 9.078125 54.6875 
L 18.109375 54.6875 
L 18.109375 46.1875 
Q 20.953125 51.171875 25.484375 53.578125 
Q 30.03125 56 36.53125 56 
Q 37.453125 56 38.578125 55.875 
Q 39.703125 55.765625 41.0625 55.515625 
z
" id="BitstreamVeraSans-Roman-72"/>
     </defs>
     <g transform="translate(116.27475 456.98)scale(0.144 -0.144)">
      <use xlink:href="#BitstreamVeraSans-Roman-74"/>
      <use x="39.208984375" xlink:href="#BitstreamVeraSans-Roman-72"/>
      <use x="80.291015625" xlink:href="#BitstreamVeraSans-Roman-65"/>
      <use x="141.814453125" xlink:href="#BitstreamVeraSans-Roman-65"/>
     </g>
    </g>
    <g id="line2d_38">
     <path d="M 188.09025 430.8035 
L 208.25025 430.8035 
" style="fill:none;opacity:0.8;stroke:#ff0000;stroke-linecap:square;"/>
    </g>
    <g id="line2d_39"/>
    <g id="text_20">
     <!-- treebeard AL -->
     <defs>
      <path d="M 9.8125 72.90625 
L 19.671875 72.90625 
L 19.671875 8.296875 
L 55.171875 8.296875 
L 55.171875 0 
L 9.8125 0 
z
" id="BitstreamVeraSans-Roman-4c"/>
     </defs>
     <g transform="translate(224.09025 435.8435)scale(0.144 -0.144)">
      <use xlink:href="#BitstreamVeraSans-Roman-74"/>
      <use x="39.208984375" xlink:href="#BitstreamVeraSans-Roman-72"/>
      <use x="80.291015625" xlink:href="#BitstreamVeraSans-Roman-65"/>
      <use x="141.814453125" xlink:href="#BitstreamVeraSans-Roman-65"/>
      <use x="203.337890625" xlink:href="#BitstreamVeraSans-Roman-62"/>
      <use x="266.814453125" xlink:href="#BitstreamVeraSans-Roman-65"/>
      <use x="328.337890625" xlink:href="#BitstreamVeraSans-Roman-61"/>
      <use x="389.6171875" xlink:href="#BitstreamVeraSans-Roman-72"/>
      <use x="430.71484375" xlink:href="#BitstreamVeraSans-Roman-64"/>
      <use x="494.19140625" xlink:href="#BitstreamVeraSans-Roman-20"/>
      <use x="525.978515625" xlink:href="#BitstreamVeraSans-Roman-41"/>
      <use x="594.38671875" xlink:href="#BitstreamVeraSans-Roman-4c"/>
     </g>
    </g>
    <g id="line2d_40">
     <path d="M 188.09025 451.94 
L 208.25025 451.94 
" style="fill:none;opacity:0.8;stroke:#00bfbf;stroke-linecap:square;"/>
    </g>
    <g id="line2d_41"/>
    <g id="text_21">
     <!-- treebeard MP -->
     <g transform="translate(224.09025 456.98)scale(0.144 -0.144)">
      <use xlink:href="#BitstreamVeraSans-Roman-74"/>
      <use x="39.208984375" xlink:href="#BitstreamVeraSans-Roman-72"/>
      <use x="80.291015625" xlink:href="#BitstreamVeraSans-Roman-65"/>
      <use x="141.814453125" xlink:href="#BitstreamVeraSans-Roman-65"/>
      <use x="203.337890625" xlink:href="#BitstreamVeraSans-Roman-62"/>
      <use x="266.814453125" xlink:href="#BitstreamVeraSans-Roman-65"/>
      <use x="328.337890625" xlink:href="#BitstreamVeraSans-Roman-61"/>
      <use x="389.6171875" xlink:href="#BitstreamVeraSans-Roman-72"/>
      <use x="430.71484375" xlink:href="#BitstreamVeraSans-Roman-64"/>
      <use x="494.19140625" xlink:href="#BitstreamVeraSans-Roman-20"/>
      <use x="525.978515625" xlink:href="#BitstreamVeraSans-Roman-4d"/>
      <use x="612.2578125" xlink:href="#BitstreamVeraSans-Roman-50"/>
     </g>
    </g>
    <g id="line2d_42">
     <path d="M 354.0615 430.8035 
L 374.2215 430.8035 
" style="fill:none;opacity:0.8;stroke:#bf00bf;stroke-linecap:square;"/>
    </g>
    <g id="line2d_43"/>
    <g id="text_22">
     <!-- treebeard NS -->
     <defs>
      <path d="M 53.515625 70.515625 
L 53.515625 60.890625 
Q 47.90625 63.578125 42.921875 64.890625 
Q 37.9375 66.21875 33.296875 66.21875 
Q 25.25 66.21875 20.875 63.09375 
Q 16.5 59.96875 16.5 54.203125 
Q 16.5 49.359375 19.40625 46.890625 
Q 22.3125 44.4375 30.421875 42.921875 
L 36.375 41.703125 
Q 47.40625 39.59375 52.65625 34.296875 
Q 57.90625 29 57.90625 20.125 
Q 57.90625 9.515625 50.796875 4.046875 
Q 43.703125 -1.421875 29.984375 -1.421875 
Q 24.8125 -1.421875 18.96875 -0.25 
Q 13.140625 0.921875 6.890625 3.21875 
L 6.890625 13.375 
Q 12.890625 10.015625 18.65625 8.296875 
Q 24.421875 6.59375 29.984375 6.59375 
Q 38.421875 6.59375 43.015625 9.90625 
Q 47.609375 13.234375 47.609375 19.390625 
Q 47.609375 24.75 44.3125 27.78125 
Q 41.015625 30.8125 33.5 32.328125 
L 27.484375 33.5 
Q 16.453125 35.6875 11.515625 40.375 
Q 6.59375 45.0625 6.59375 53.421875 
Q 6.59375 63.09375 13.40625 68.65625 
Q 20.21875 74.21875 32.171875 74.21875 
Q 37.3125 74.21875 42.625 73.28125 
Q 47.953125 72.359375 53.515625 70.515625 
" id="BitstreamVeraSans-Roman-53"/>
      <path d="M 9.8125 72.90625 
L 23.09375 72.90625 
L 55.421875 11.921875 
L 55.421875 72.90625 
L 64.984375 72.90625 
L 64.984375 0 
L 51.703125 0 
L 19.390625 60.984375 
L 19.390625 0 
L 9.8125 0 
z
" id="BitstreamVeraSans-Roman-4e"/>
     </defs>
     <g transform="translate(390.0615 435.8435)scale(0.144 -0.144)">
      <use xlink:href="#BitstreamVeraSans-Roman-74"/>
      <use x="39.208984375" xlink:href="#BitstreamVeraSans-Roman-72"/>
      <use x="80.291015625" xlink:href="#BitstreamVeraSans-Roman-65"/>
      <use x="141.814453125" xlink:href="#BitstreamVeraSans-Roman-65"/>
      <use x="203.337890625" xlink:href="#BitstreamVeraSans-Roman-62"/>
      <use x="266.814453125" xlink:href="#BitstreamVeraSans-Roman-65"/>
      <use x="328.337890625" xlink:href="#BitstreamVeraSans-Roman-61"/>
      <use x="389.6171875" xlink:href="#BitstreamVeraSans-Roman-72"/>
      <use x="430.71484375" xlink:href="#BitstreamVeraSans-Roman-64"/>
      <use x="494.19140625" xlink:href="#BitstreamVeraSans-Roman-20"/>
      <use x="525.978515625" xlink:href="#BitstreamVeraSans-Roman-4e"/>
      <use x="600.783203125" xlink:href="#BitstreamVeraSans-Roman-53"/>
     </g>
    </g>
   </g>
  </g>
 </g>
 <defs>
  <clipPath id="pd2b886b3e2">
   <rect height="345.6" width="446.4" x="64.8375" y="23.14175"/>
  </clipPath>
 </defs>
</svg>
