<?xml version="1.0" encoding="utf-8" standalone="no"?>
<!DOCTYPE svg PUBLIC "-//W3C//DTD SVG 1.1//EN"
  "http://www.w3.org/Graphics/SVG/1.1/DTD/svg11.dtd">
<!-- Created with matplotlib (http://matplotlib.org/) -->
<svg height="371pt" version="1.1" viewBox="0 0 429 371" width="429pt" xmlns="http://www.w3.org/2000/svg" xmlns:xlink="http://www.w3.org/1999/xlink">
 <defs>
  <style type="text/css">
*{stroke-linecap:butt;stroke-linejoin:round;}
  </style>
 </defs>
 <g id="figure_1">
  <g id="patch_1">
   <path d="M 0 371.002375 
L 429.729375 371.002375 
L 429.729375 0 
L 0 0 
z
" style="fill:#ffffff;"/>
  </g>
  <g id="axes_1">
   <g id="patch_2">
    <path d="M 61.909375 288.430125 
L 419.029375 288.430125 
L 419.029375 22.318125 
L 61.909375 22.318125 
z
" style="fill:#ffffff;"/>
   </g>
   <g id="matplotlib.axis_1">
    <g id="xtick_1">
     <g id="line2d_1">
      <defs>
       <path d="M 0 0 
L 0 3.5 
" id="m0f6a3e3b25" style="stroke:#000000;stroke-width:0.8;"/>
      </defs>
      <g>
       <use style="stroke:#000000;stroke-width:0.8;" x="61.909375" xlink:href="#m0f6a3e3b25" y="288.430125"/>
      </g>
     </g>
     <g id="text_1">
      <!-- 0 -->
      <defs>
       <path d="M 31.78125 66.40625 
Q 24.171875 66.40625 20.328125 58.90625 
Q 16.5 51.421875 16.5 36.375 
Q 16.5 21.390625 20.328125 13.890625 
Q 24.171875 6.390625 31.78125 6.390625 
Q 39.453125 6.390625 43.28125 13.890625 
Q 47.125 21.390625 47.125 36.375 
Q 47.125 51.421875 43.28125 58.90625 
Q 39.453125 66.40625 31.78125 66.40625 
z
M 31.78125 74.21875 
Q 44.046875 74.21875 50.515625 64.515625 
Q 56.984375 54.828125 56.984375 36.375 
Q 56.984375 17.96875 50.515625 8.265625 
Q 44.046875 -1.421875 31.78125 -1.421875 
Q 19.53125 -1.421875 13.0625 8.265625 
Q 6.59375 17.96875 6.59375 36.375 
Q 6.59375 54.828125 13.0625 64.515625 
Q 19.53125 74.21875 31.78125 74.21875 
z
" id="DejaVuSans-30"/>
      </defs>
      <g transform="translate(58.728125 303.028562)scale(0.1 -0.1)">
       <use xlink:href="#DejaVuSans-30"/>
      </g>
     </g>
    </g>
    <g id="xtick_2">
     <g id="line2d_2">
      <g>
       <use style="stroke:#000000;stroke-width:0.8;" x="105.457939" xlink:href="#m0f6a3e3b25" y="288.430125"/>
      </g>
     </g>
     <g id="text_2">
      <!-- 500  -->
      <defs>
       <path d="M 10.796875 72.90625 
L 49.515625 72.90625 
L 49.515625 64.59375 
L 19.828125 64.59375 
L 19.828125 46.734375 
Q 21.96875 47.46875 24.109375 47.828125 
Q 26.265625 48.1875 28.421875 48.1875 
Q 40.625 48.1875 47.75 41.5 
Q 54.890625 34.8125 54.890625 23.390625 
Q 54.890625 11.625 47.5625 5.09375 
Q 40.234375 -1.421875 26.90625 -1.421875 
Q 22.3125 -1.421875 17.546875 -0.640625 
Q 12.796875 0.140625 7.71875 1.703125 
L 7.71875 11.625 
Q 12.109375 9.234375 16.796875 8.0625 
Q 21.484375 6.890625 26.703125 6.890625 
Q 35.15625 6.890625 40.078125 11.328125 
Q 45.015625 15.765625 45.015625 23.390625 
Q 45.015625 31 40.078125 35.4375 
Q 35.15625 39.890625 26.703125 39.890625 
Q 22.75 39.890625 18.8125 39.015625 
Q 14.890625 38.140625 10.796875 36.28125 
z
" id="DejaVuSans-35"/>
       <path id="DejaVuSans-20"/>
      </defs>
      <g transform="translate(94.325127 303.028562)scale(0.1 -0.1)">
       <use xlink:href="#DejaVuSans-35"/>
       <use x="63.623047" xlink:href="#DejaVuSans-30"/>
       <use x="127.246094" xlink:href="#DejaVuSans-30"/>
       <use x="190.869141" xlink:href="#DejaVuSans-20"/>
      </g>
     </g>
    </g>
    <g id="xtick_3">
     <g id="line2d_3">
      <g>
       <use style="stroke:#000000;stroke-width:0.8;" x="149.006503" xlink:href="#m0f6a3e3b25" y="288.430125"/>
      </g>
     </g>
     <g id="text_3">
      <!-- 1 k -->
      <defs>
       <path d="M 12.40625 8.296875 
L 28.515625 8.296875 
L 28.515625 63.921875 
L 10.984375 60.40625 
L 10.984375 69.390625 
L 28.421875 72.90625 
L 38.28125 72.90625 
L 38.28125 8.296875 
L 54.390625 8.296875 
L 54.390625 0 
L 12.40625 0 
z
" id="DejaVuSans-31"/>
       <path d="M 9.078125 75.984375 
L 18.109375 75.984375 
L 18.109375 31.109375 
L 44.921875 54.6875 
L 56.390625 54.6875 
L 27.390625 29.109375 
L 57.625 0 
L 45.90625 0 
L 18.109375 26.703125 
L 18.109375 0 
L 9.078125 0 
z
" id="DejaVuSans-6b"/>
      </defs>
      <g transform="translate(141.340878 303.028562)scale(0.1 -0.1)">
       <use xlink:href="#DejaVuSans-31"/>
       <use x="63.623047" xlink:href="#DejaVuSans-20"/>
       <use x="95.410156" xlink:href="#DejaVuSans-6b"/>
      </g>
     </g>
    </g>
    <g id="xtick_4">
     <g id="line2d_4">
      <g>
       <use style="stroke:#000000;stroke-width:0.8;" x="192.555067" xlink:href="#m0f6a3e3b25" y="288.430125"/>
      </g>
     </g>
     <g id="text_4">
      <!-- 1.5 k -->
      <defs>
       <path d="M 10.6875 12.40625 
L 21 12.40625 
L 21 0 
L 10.6875 0 
z
" id="DejaVuSans-2e"/>
      </defs>
      <g transform="translate(180.11913 303.028562)scale(0.1 -0.1)">
       <use xlink:href="#DejaVuSans-31"/>
       <use x="63.623047" xlink:href="#DejaVuSans-2e"/>
       <use x="95.410156" xlink:href="#DejaVuSans-35"/>
       <use x="159.033203" xlink:href="#DejaVuSans-20"/>
       <use x="190.820312" xlink:href="#DejaVuSans-6b"/>
      </g>
     </g>
    </g>
    <g id="xtick_5">
     <g id="line2d_5">
      <g>
       <use style="stroke:#000000;stroke-width:0.8;" x="236.103631" xlink:href="#m0f6a3e3b25" y="288.430125"/>
      </g>
     </g>
     <g id="text_5">
      <!-- 2 k -->
      <defs>
       <path d="M 19.1875 8.296875 
L 53.609375 8.296875 
L 53.609375 0 
L 7.328125 0 
L 7.328125 8.296875 
Q 12.9375 14.109375 22.625 23.890625 
Q 32.328125 33.6875 34.8125 36.53125 
Q 39.546875 41.84375 41.421875 45.53125 
Q 43.3125 49.21875 43.3125 52.78125 
Q 43.3125 58.59375 39.234375 62.25 
Q 35.15625 65.921875 28.609375 65.921875 
Q 23.96875 65.921875 18.8125 64.3125 
Q 13.671875 62.703125 7.8125 59.421875 
L 7.8125 69.390625 
Q 13.765625 71.78125 18.9375 73 
Q 24.125 74.21875 28.421875 74.21875 
Q 39.75 74.21875 46.484375 68.546875 
Q 53.21875 62.890625 53.21875 53.421875 
Q 53.21875 48.921875 51.53125 44.890625 
Q 49.859375 40.875 45.40625 35.40625 
Q 44.1875 33.984375 37.640625 27.21875 
Q 31.109375 20.453125 19.1875 8.296875 
z
" id="DejaVuSans-32"/>
      </defs>
      <g transform="translate(228.438006 303.028562)scale(0.1 -0.1)">
       <use xlink:href="#DejaVuSans-32"/>
       <use x="63.623047" xlink:href="#DejaVuSans-20"/>
       <use x="95.410156" xlink:href="#DejaVuSans-6b"/>
      </g>
     </g>
    </g>
    <g id="xtick_6">
     <g id="line2d_6">
      <g>
       <use style="stroke:#000000;stroke-width:0.8;" x="279.652196" xlink:href="#m0f6a3e3b25" y="288.430125"/>
      </g>
     </g>
     <g id="text_6">
      <!-- 2.5 k -->
      <g transform="translate(267.216258 303.028562)scale(0.1 -0.1)">
       <use xlink:href="#DejaVuSans-32"/>
       <use x="63.623047" xlink:href="#DejaVuSans-2e"/>
       <use x="95.410156" xlink:href="#DejaVuSans-35"/>
       <use x="159.033203" xlink:href="#DejaVuSans-20"/>
       <use x="190.820312" xlink:href="#DejaVuSans-6b"/>
      </g>
     </g>
    </g>
    <g id="xtick_7">
     <g id="line2d_7">
      <g>
       <use style="stroke:#000000;stroke-width:0.8;" x="323.20076" xlink:href="#m0f6a3e3b25" y="288.430125"/>
      </g>
     </g>
     <g id="text_7">
      <!-- 3 k -->
      <defs>
       <path d="M 40.578125 39.3125 
Q 47.65625 37.796875 51.625 33 
Q 55.609375 28.21875 55.609375 21.1875 
Q 55.609375 10.40625 48.1875 4.484375 
Q 40.765625 -1.421875 27.09375 -1.421875 
Q 22.515625 -1.421875 17.65625 -0.515625 
Q 12.796875 0.390625 7.625 2.203125 
L 7.625 11.71875 
Q 11.71875 9.328125 16.59375 8.109375 
Q 21.484375 6.890625 26.8125 6.890625 
Q 36.078125 6.890625 40.9375 10.546875 
Q 45.796875 14.203125 45.796875 21.1875 
Q 45.796875 27.640625 41.28125 31.265625 
Q 36.765625 34.90625 28.71875 34.90625 
L 20.21875 34.90625 
L 20.21875 43.015625 
L 29.109375 43.015625 
Q 36.375 43.015625 40.234375 45.921875 
Q 44.09375 48.828125 44.09375 54.296875 
Q 44.09375 59.90625 40.109375 62.90625 
Q 36.140625 65.921875 28.71875 65.921875 
Q 24.65625 65.921875 20.015625 65.03125 
Q 15.375 64.15625 9.8125 62.3125 
L 9.8125 71.09375 
Q 15.4375 72.65625 20.34375 73.4375 
Q 25.25 74.21875 29.59375 74.21875 
Q 40.828125 74.21875 47.359375 69.109375 
Q 53.90625 64.015625 53.90625 55.328125 
Q 53.90625 49.265625 50.4375 45.09375 
Q 46.96875 40.921875 40.578125 39.3125 
z
" id="DejaVuSans-33"/>
      </defs>
      <g transform="translate(315.535135 303.028562)scale(0.1 -0.1)">
       <use xlink:href="#DejaVuSans-33"/>
       <use x="63.623047" xlink:href="#DejaVuSans-20"/>
       <use x="95.410156" xlink:href="#DejaVuSans-6b"/>
      </g>
     </g>
    </g>
    <g id="xtick_8">
     <g id="line2d_8">
      <g>
       <use style="stroke:#000000;stroke-width:0.8;" x="366.749324" xlink:href="#m0f6a3e3b25" y="288.430125"/>
      </g>
     </g>
     <g id="text_8">
      <!-- 3.5 k -->
      <g transform="translate(354.313386 303.028562)scale(0.1 -0.1)">
       <use xlink:href="#DejaVuSans-33"/>
       <use x="63.623047" xlink:href="#DejaVuSans-2e"/>
       <use x="95.410156" xlink:href="#DejaVuSans-35"/>
       <use x="159.033203" xlink:href="#DejaVuSans-20"/>
       <use x="190.820312" xlink:href="#DejaVuSans-6b"/>
      </g>
     </g>
    </g>
    <g id="xtick_9">
     <g id="line2d_9">
      <g>
       <use style="stroke:#000000;stroke-width:0.8;" x="410.297888" xlink:href="#m0f6a3e3b25" y="288.430125"/>
      </g>
     </g>
     <g id="text_9">
      <!-- 4 k -->
      <defs>
       <path d="M 37.796875 64.3125 
L 12.890625 25.390625 
L 37.796875 25.390625 
z
M 35.203125 72.90625 
L 47.609375 72.90625 
L 47.609375 25.390625 
L 58.015625 25.390625 
L 58.015625 17.1875 
L 47.609375 17.1875 
L 47.609375 0 
L 37.796875 0 
L 37.796875 17.1875 
L 4.890625 17.1875 
L 4.890625 26.703125 
z
" id="DejaVuSans-34"/>
      </defs>
      <g transform="translate(402.632263 303.028562)scale(0.1 -0.1)">
       <use xlink:href="#DejaVuSans-34"/>
       <use x="63.623047" xlink:href="#DejaVuSans-20"/>
       <use x="95.410156" xlink:href="#DejaVuSans-6b"/>
      </g>
     </g>
    </g>
    <g id="text_10">
     <!-- Amount of objects in table -->
     <defs>
      <path d="M 34.1875 63.1875 
L 20.796875 26.90625 
L 47.609375 26.90625 
z
M 28.609375 72.90625 
L 39.796875 72.90625 
L 67.578125 0 
L 57.328125 0 
L 50.6875 18.703125 
L 17.828125 18.703125 
L 11.1875 0 
L 0.78125 0 
z
" id="DejaVuSans-41"/>
      <path d="M 52 44.1875 
Q 55.375 50.25 60.0625 53.125 
Q 64.75 56 71.09375 56 
Q 79.640625 56 84.28125 50.015625 
Q 88.921875 44.046875 88.921875 33.015625 
L 88.921875 0 
L 79.890625 0 
L 79.890625 32.71875 
Q 79.890625 40.578125 77.09375 44.375 
Q 74.3125 48.1875 68.609375 48.1875 
Q 61.625 48.1875 57.5625 43.546875 
Q 53.515625 38.921875 53.515625 30.90625 
L 53.515625 0 
L 44.484375 0 
L 44.484375 32.71875 
Q 44.484375 40.625 41.703125 44.40625 
Q 38.921875 48.1875 33.109375 48.1875 
Q 26.21875 48.1875 22.15625 43.53125 
Q 18.109375 38.875 18.109375 30.90625 
L 18.109375 0 
L 9.078125 0 
L 9.078125 54.6875 
L 18.109375 54.6875 
L 18.109375 46.1875 
Q 21.1875 51.21875 25.484375 53.609375 
Q 29.78125 56 35.6875 56 
Q 41.65625 56 45.828125 52.96875 
Q 50 49.953125 52 44.1875 
z
" id="DejaVuSans-6d"/>
      <path d="M 30.609375 48.390625 
Q 23.390625 48.390625 19.1875 42.75 
Q 14.984375 37.109375 14.984375 27.296875 
Q 14.984375 17.484375 19.15625 11.84375 
Q 23.34375 6.203125 30.609375 6.203125 
Q 37.796875 6.203125 41.984375 11.859375 
Q 46.1875 17.53125 46.1875 27.296875 
Q 46.1875 37.015625 41.984375 42.703125 
Q 37.796875 48.390625 30.609375 48.390625 
z
M 30.609375 56 
Q 42.328125 56 49.015625 48.375 
Q 55.71875 40.765625 55.71875 27.296875 
Q 55.71875 13.875 49.015625 6.21875 
Q 42.328125 -1.421875 30.609375 -1.421875 
Q 18.84375 -1.421875 12.171875 6.21875 
Q 5.515625 13.875 5.515625 27.296875 
Q 5.515625 40.765625 12.171875 48.375 
Q 18.84375 56 30.609375 56 
z
" id="DejaVuSans-6f"/>
      <path d="M 8.5 21.578125 
L 8.5 54.6875 
L 17.484375 54.6875 
L 17.484375 21.921875 
Q 17.484375 14.15625 20.5 10.265625 
Q 23.53125 6.390625 29.59375 6.390625 
Q 36.859375 6.390625 41.078125 11.03125 
Q 45.3125 15.671875 45.3125 23.6875 
L 45.3125 54.6875 
L 54.296875 54.6875 
L 54.296875 0 
L 45.3125 0 
L 45.3125 8.40625 
Q 42.046875 3.421875 37.71875 1 
Q 33.40625 -1.421875 27.6875 -1.421875 
Q 18.265625 -1.421875 13.375 4.4375 
Q 8.5 10.296875 8.5 21.578125 
z
M 31.109375 56 
z
" id="DejaVuSans-75"/>
      <path d="M 54.890625 33.015625 
L 54.890625 0 
L 45.90625 0 
L 45.90625 32.71875 
Q 45.90625 40.484375 42.875 44.328125 
Q 39.84375 48.1875 33.796875 48.1875 
Q 26.515625 48.1875 22.3125 43.546875 
Q 18.109375 38.921875 18.109375 30.90625 
L 18.109375 0 
L 9.078125 0 
L 9.078125 54.6875 
L 18.109375 54.6875 
L 18.109375 46.1875 
Q 21.34375 51.125 25.703125 53.5625 
Q 30.078125 56 35.796875 56 
Q 45.21875 56 50.046875 50.171875 
Q 54.890625 44.34375 54.890625 33.015625 
z
" id="DejaVuSans-6e"/>
      <path d="M 18.3125 70.21875 
L 18.3125 54.6875 
L 36.8125 54.6875 
L 36.8125 47.703125 
L 18.3125 47.703125 
L 18.3125 18.015625 
Q 18.3125 11.328125 20.140625 9.421875 
Q 21.96875 7.515625 27.59375 7.515625 
L 36.8125 7.515625 
L 36.8125 0 
L 27.59375 0 
Q 17.1875 0 13.234375 3.875 
Q 9.28125 7.765625 9.28125 18.015625 
L 9.28125 47.703125 
L 2.6875 47.703125 
L 2.6875 54.6875 
L 9.28125 54.6875 
L 9.28125 70.21875 
z
" id="DejaVuSans-74"/>
      <path d="M 37.109375 75.984375 
L 37.109375 68.5 
L 28.515625 68.5 
Q 23.6875 68.5 21.796875 66.546875 
Q 19.921875 64.59375 19.921875 59.515625 
L 19.921875 54.6875 
L 34.71875 54.6875 
L 34.71875 47.703125 
L 19.921875 47.703125 
L 19.921875 0 
L 10.890625 0 
L 10.890625 47.703125 
L 2.296875 47.703125 
L 2.296875 54.6875 
L 10.890625 54.6875 
L 10.890625 58.5 
Q 10.890625 67.625 15.140625 71.796875 
Q 19.390625 75.984375 28.609375 75.984375 
z
" id="DejaVuSans-66"/>
      <path d="M 48.6875 27.296875 
Q 48.6875 37.203125 44.609375 42.84375 
Q 40.53125 48.484375 33.40625 48.484375 
Q 26.265625 48.484375 22.1875 42.84375 
Q 18.109375 37.203125 18.109375 27.296875 
Q 18.109375 17.390625 22.1875 11.75 
Q 26.265625 6.109375 33.40625 6.109375 
Q 40.53125 6.109375 44.609375 11.75 
Q 48.6875 17.390625 48.6875 27.296875 
z
M 18.109375 46.390625 
Q 20.953125 51.265625 25.265625 53.625 
Q 29.59375 56 35.59375 56 
Q 45.5625 56 51.78125 48.09375 
Q 58.015625 40.1875 58.015625 27.296875 
Q 58.015625 14.40625 51.78125 6.484375 
Q 45.5625 -1.421875 35.59375 -1.421875 
Q 29.59375 -1.421875 25.265625 0.953125 
Q 20.953125 3.328125 18.109375 8.203125 
L 18.109375 0 
L 9.078125 0 
L 9.078125 75.984375 
L 18.109375 75.984375 
z
" id="DejaVuSans-62"/>
      <path d="M 9.421875 54.6875 
L 18.40625 54.6875 
L 18.40625 -0.984375 
Q 18.40625 -11.421875 14.421875 -16.109375 
Q 10.453125 -20.796875 1.609375 -20.796875 
L -1.8125 -20.796875 
L -1.8125 -13.1875 
L 0.59375 -13.1875 
Q 5.71875 -13.1875 7.5625 -10.8125 
Q 9.421875 -8.453125 9.421875 -0.984375 
z
M 9.421875 75.984375 
L 18.40625 75.984375 
L 18.40625 64.59375 
L 9.421875 64.59375 
z
" id="DejaVuSans-6a"/>
      <path d="M 56.203125 29.59375 
L 56.203125 25.203125 
L 14.890625 25.203125 
Q 15.484375 15.921875 20.484375 11.0625 
Q 25.484375 6.203125 34.421875 6.203125 
Q 39.59375 6.203125 44.453125 7.46875 
Q 49.3125 8.734375 54.109375 11.28125 
L 54.109375 2.78125 
Q 49.265625 0.734375 44.1875 -0.34375 
Q 39.109375 -1.421875 33.890625 -1.421875 
Q 20.796875 -1.421875 13.15625 6.1875 
Q 5.515625 13.8125 5.515625 26.8125 
Q 5.515625 40.234375 12.765625 48.109375 
Q 20.015625 56 32.328125 56 
Q 43.359375 56 49.78125 48.890625 
Q 56.203125 41.796875 56.203125 29.59375 
z
M 47.21875 32.234375 
Q 47.125 39.59375 43.09375 43.984375 
Q 39.0625 48.390625 32.421875 48.390625 
Q 24.90625 48.390625 20.390625 44.140625 
Q 15.875 39.890625 15.1875 32.171875 
z
" id="DejaVuSans-65"/>
      <path d="M 48.78125 52.59375 
L 48.78125 44.1875 
Q 44.96875 46.296875 41.140625 47.34375 
Q 37.3125 48.390625 33.40625 48.390625 
Q 24.65625 48.390625 19.8125 42.84375 
Q 14.984375 37.3125 14.984375 27.296875 
Q 14.984375 17.28125 19.8125 11.734375 
Q 24.65625 6.203125 33.40625 6.203125 
Q 37.3125 6.203125 41.140625 7.25 
Q 44.96875 8.296875 48.78125 10.40625 
L 48.78125 2.09375 
Q 45.015625 0.34375 40.984375 -0.53125 
Q 36.96875 -1.421875 32.421875 -1.421875 
Q 20.0625 -1.421875 12.78125 6.34375 
Q 5.515625 14.109375 5.515625 27.296875 
Q 5.515625 40.671875 12.859375 48.328125 
Q 20.21875 56 33.015625 56 
Q 37.15625 56 41.109375 55.140625 
Q 45.0625 54.296875 48.78125 52.59375 
z
" id="DejaVuSans-63"/>
      <path d="M 44.28125 53.078125 
L 44.28125 44.578125 
Q 40.484375 46.53125 36.375 47.5 
Q 32.28125 48.484375 27.875 48.484375 
Q 21.1875 48.484375 17.84375 46.4375 
Q 14.5 44.390625 14.5 40.28125 
Q 14.5 37.15625 16.890625 35.375 
Q 19.28125 33.59375 26.515625 31.984375 
L 29.59375 31.296875 
Q 39.15625 29.25 43.1875 25.515625 
Q 47.21875 21.78125 47.21875 15.09375 
Q 47.21875 7.46875 41.1875 3.015625 
Q 35.15625 -1.421875 24.609375 -1.421875 
Q 20.21875 -1.421875 15.453125 -0.5625 
Q 10.6875 0.296875 5.421875 2 
L 5.421875 11.28125 
Q 10.40625 8.6875 15.234375 7.390625 
Q 20.0625 6.109375 24.8125 6.109375 
Q 31.15625 6.109375 34.5625 8.28125 
Q 37.984375 10.453125 37.984375 14.40625 
Q 37.984375 18.0625 35.515625 20.015625 
Q 33.0625 21.96875 24.703125 23.78125 
L 21.578125 24.515625 
Q 13.234375 26.265625 9.515625 29.90625 
Q 5.8125 33.546875 5.8125 39.890625 
Q 5.8125 47.609375 11.28125 51.796875 
Q 16.75 56 26.8125 56 
Q 31.78125 56 36.171875 55.265625 
Q 40.578125 54.546875 44.28125 53.078125 
z
" id="DejaVuSans-73"/>
      <path d="M 9.421875 54.6875 
L 18.40625 54.6875 
L 18.40625 0 
L 9.421875 0 
z
M 9.421875 75.984375 
L 18.40625 75.984375 
L 18.40625 64.59375 
L 9.421875 64.59375 
z
" id="DejaVuSans-69"/>
      <path d="M 34.28125 27.484375 
Q 23.390625 27.484375 19.1875 25 
Q 14.984375 22.515625 14.984375 16.5 
Q 14.984375 11.71875 18.140625 8.90625 
Q 21.296875 6.109375 26.703125 6.109375 
Q 34.1875 6.109375 38.703125 11.40625 
Q 43.21875 16.703125 43.21875 25.484375 
L 43.21875 27.484375 
z
M 52.203125 31.203125 
L 52.203125 0 
L 43.21875 0 
L 43.21875 8.296875 
Q 40.140625 3.328125 35.546875 0.953125 
Q 30.953125 -1.421875 24.3125 -1.421875 
Q 15.921875 -1.421875 10.953125 3.296875 
Q 6 8.015625 6 15.921875 
Q 6 25.140625 12.171875 29.828125 
Q 18.359375 34.515625 30.609375 34.515625 
L 43.21875 34.515625 
L 43.21875 35.40625 
Q 43.21875 41.609375 39.140625 45 
Q 35.0625 48.390625 27.6875 48.390625 
Q 23 48.390625 18.546875 47.265625 
Q 14.109375 46.140625 10.015625 43.890625 
L 10.015625 52.203125 
Q 14.9375 54.109375 19.578125 55.046875 
Q 24.21875 56 28.609375 56 
Q 40.484375 56 46.34375 49.84375 
Q 52.203125 43.703125 52.203125 31.203125 
z
" id="DejaVuSans-61"/>
      <path d="M 9.421875 75.984375 
L 18.40625 75.984375 
L 18.40625 0 
L 9.421875 0 
z
" id="DejaVuSans-6c"/>
     </defs>
     <g transform="translate(174.410781 316.706687)scale(0.1 -0.1)">
      <use xlink:href="#DejaVuSans-41"/>
      <use x="68.408203" xlink:href="#DejaVuSans-6d"/>
      <use x="165.820312" xlink:href="#DejaVuSans-6f"/>
      <use x="227.001953" xlink:href="#DejaVuSans-75"/>
      <use x="290.380859" xlink:href="#DejaVuSans-6e"/>
      <use x="353.759766" xlink:href="#DejaVuSans-74"/>
      <use x="392.96875" xlink:href="#DejaVuSans-20"/>
      <use x="424.755859" xlink:href="#DejaVuSans-6f"/>
      <use x="485.9375" xlink:href="#DejaVuSans-66"/>
      <use x="521.142578" xlink:href="#DejaVuSans-20"/>
      <use x="552.929688" xlink:href="#DejaVuSans-6f"/>
      <use x="614.111328" xlink:href="#DejaVuSans-62"/>
      <use x="677.587891" xlink:href="#DejaVuSans-6a"/>
      <use x="705.371094" xlink:href="#DejaVuSans-65"/>
      <use x="766.894531" xlink:href="#DejaVuSans-63"/>
      <use x="821.875" xlink:href="#DejaVuSans-74"/>
      <use x="861.083984" xlink:href="#DejaVuSans-73"/>
      <use x="913.183594" xlink:href="#DejaVuSans-20"/>
      <use x="944.970703" xlink:href="#DejaVuSans-69"/>
      <use x="972.753906" xlink:href="#DejaVuSans-6e"/>
      <use x="1036.132812" xlink:href="#DejaVuSans-20"/>
      <use x="1067.919922" xlink:href="#DejaVuSans-74"/>
      <use x="1107.128906" xlink:href="#DejaVuSans-61"/>
      <use x="1168.408203" xlink:href="#DejaVuSans-62"/>
      <use x="1231.884766" xlink:href="#DejaVuSans-6c"/>
      <use x="1259.667969" xlink:href="#DejaVuSans-65"/>
     </g>
    </g>
   </g>
   <g id="matplotlib.axis_2">
    <g id="ytick_1">
     <g id="line2d_10">
      <defs>
       <path d="M 0 0 
L -3.5 0 
" id="m684f1f8fce" style="stroke:#000000;stroke-width:0.8;"/>
      </defs>
      <g>
       <use style="stroke:#000000;stroke-width:0.8;" x="61.909375" xlink:href="#m684f1f8fce" y="288.430125"/>
      </g>
     </g>
     <g id="text_11">
      <!-- 0 -->
      <g transform="translate(48.546875 292.229344)scale(0.1 -0.1)">
       <use xlink:href="#DejaVuSans-30"/>
      </g>
     </g>
    </g>
    <g id="ytick_2">
     <g id="line2d_11">
      <g>
       <use style="stroke:#000000;stroke-width:0.8;" x="61.909375" xlink:href="#m684f1f8fce" y="235.212496"/>
      </g>
     </g>
     <g id="text_12">
      <!-- 500 µs -->
      <defs>
       <path d="M 8.5 -20.796875 
L 8.5 54.6875 
L 17.484375 54.6875 
L 17.484375 20.703125 
Q 17.484375 13.625 20.84375 10 
Q 24.21875 6.390625 30.8125 6.390625 
Q 38.03125 6.390625 41.671875 10.484375 
Q 45.3125 14.59375 45.3125 22.796875 
L 45.3125 54.6875 
L 54.296875 54.6875 
L 54.296875 12.59375 
Q 54.296875 9.671875 55.140625 8.28125 
Q 56 6.890625 57.8125 6.890625 
Q 58.25 6.890625 59.03125 7.15625 
Q 59.8125 7.421875 61.1875 8.015625 
L 61.1875 0.78125 
Q 59.1875 -0.34375 57.390625 -0.875 
Q 55.609375 -1.421875 53.90625 -1.421875 
Q 50.53125 -1.421875 48.53125 0.484375 
Q 46.53125 2.390625 45.796875 6.296875 
Q 43.359375 2.4375 39.8125 0.5 
Q 36.28125 -1.421875 31.5 -1.421875 
Q 26.515625 -1.421875 23.015625 0.484375 
Q 19.53125 2.390625 17.484375 6.203125 
L 17.484375 -20.796875 
z
" id="DejaVuSans-b5"/>
      </defs>
      <g transform="translate(21.071875 239.011714)scale(0.1 -0.1)">
       <use xlink:href="#DejaVuSans-35"/>
       <use x="63.623047" xlink:href="#DejaVuSans-30"/>
       <use x="127.246094" xlink:href="#DejaVuSans-30"/>
       <use x="190.869141" xlink:href="#DejaVuSans-20"/>
       <use x="222.65625" xlink:href="#DejaVuSans-b5"/>
       <use x="286.279297" xlink:href="#DejaVuSans-73"/>
      </g>
     </g>
    </g>
    <g id="ytick_3">
     <g id="line2d_12">
      <g>
       <use style="stroke:#000000;stroke-width:0.8;" x="61.909375" xlink:href="#m684f1f8fce" y="181.994866"/>
      </g>
     </g>
     <g id="text_13">
      <!-- 1 ms -->
      <g transform="translate(30.41875 185.794085)scale(0.1 -0.1)">
       <use xlink:href="#DejaVuSans-31"/>
       <use x="63.623047" xlink:href="#DejaVuSans-20"/>
       <use x="95.410156" xlink:href="#DejaVuSans-6d"/>
       <use x="192.822266" xlink:href="#DejaVuSans-73"/>
      </g>
     </g>
    </g>
    <g id="ytick_4">
     <g id="line2d_13">
      <g>
       <use style="stroke:#000000;stroke-width:0.8;" x="61.909375" xlink:href="#m684f1f8fce" y="128.777237"/>
      </g>
     </g>
     <g id="text_14">
      <!-- 1.5 ms -->
      <g transform="translate(20.878125 132.576456)scale(0.1 -0.1)">
       <use xlink:href="#DejaVuSans-31"/>
       <use x="63.623047" xlink:href="#DejaVuSans-2e"/>
       <use x="95.410156" xlink:href="#DejaVuSans-35"/>
       <use x="159.033203" xlink:href="#DejaVuSans-20"/>
       <use x="190.820312" xlink:href="#DejaVuSans-6d"/>
       <use x="288.232422" xlink:href="#DejaVuSans-73"/>
      </g>
     </g>
    </g>
    <g id="ytick_5">
     <g id="line2d_14">
      <g>
       <use style="stroke:#000000;stroke-width:0.8;" x="61.909375" xlink:href="#m684f1f8fce" y="75.559608"/>
      </g>
     </g>
     <g id="text_15">
      <!-- 2 ms -->
      <g transform="translate(30.41875 79.358827)scale(0.1 -0.1)">
       <use xlink:href="#DejaVuSans-32"/>
       <use x="63.623047" xlink:href="#DejaVuSans-20"/>
       <use x="95.410156" xlink:href="#DejaVuSans-6d"/>
       <use x="192.822266" xlink:href="#DejaVuSans-73"/>
      </g>
     </g>
    </g>
    <g id="ytick_6">
     <g id="line2d_15">
      <g>
       <use style="stroke:#000000;stroke-width:0.8;" x="61.909375" xlink:href="#m684f1f8fce" y="22.341979"/>
      </g>
     </g>
     <g id="text_16">
      <!-- 2.5 ms -->
      <g transform="translate(20.878125 26.141197)scale(0.1 -0.1)">
       <use xlink:href="#DejaVuSans-32"/>
       <use x="63.623047" xlink:href="#DejaVuSans-2e"/>
       <use x="95.410156" xlink:href="#DejaVuSans-35"/>
       <use x="159.033203" xlink:href="#DejaVuSans-20"/>
       <use x="190.820312" xlink:href="#DejaVuSans-6d"/>
       <use x="288.232422" xlink:href="#DejaVuSans-73"/>
      </g>
     </g>
    </g>
    <g id="text_17">
     <!-- Read latency (s) -->
     <defs>
      <path d="M 44.390625 34.1875 
Q 47.5625 33.109375 50.5625 29.59375 
Q 53.5625 26.078125 56.59375 19.921875 
L 66.609375 0 
L 56 0 
L 46.6875 18.703125 
Q 43.0625 26.03125 39.671875 28.421875 
Q 36.28125 30.8125 30.421875 30.8125 
L 19.671875 30.8125 
L 19.671875 0 
L 9.8125 0 
L 9.8125 72.90625 
L 32.078125 72.90625 
Q 44.578125 72.90625 50.734375 67.671875 
Q 56.890625 62.453125 56.890625 51.90625 
Q 56.890625 45.015625 53.6875 40.46875 
Q 50.484375 35.9375 44.390625 34.1875 
z
M 19.671875 64.796875 
L 19.671875 38.921875 
L 32.078125 38.921875 
Q 39.203125 38.921875 42.84375 42.21875 
Q 46.484375 45.515625 46.484375 51.90625 
Q 46.484375 58.296875 42.84375 61.546875 
Q 39.203125 64.796875 32.078125 64.796875 
z
" id="DejaVuSans-52"/>
      <path d="M 45.40625 46.390625 
L 45.40625 75.984375 
L 54.390625 75.984375 
L 54.390625 0 
L 45.40625 0 
L 45.40625 8.203125 
Q 42.578125 3.328125 38.25 0.953125 
Q 33.9375 -1.421875 27.875 -1.421875 
Q 17.96875 -1.421875 11.734375 6.484375 
Q 5.515625 14.40625 5.515625 27.296875 
Q 5.515625 40.1875 11.734375 48.09375 
Q 17.96875 56 27.875 56 
Q 33.9375 56 38.25 53.625 
Q 42.578125 51.265625 45.40625 46.390625 
z
M 14.796875 27.296875 
Q 14.796875 17.390625 18.875 11.75 
Q 22.953125 6.109375 30.078125 6.109375 
Q 37.203125 6.109375 41.296875 11.75 
Q 45.40625 17.390625 45.40625 27.296875 
Q 45.40625 37.203125 41.296875 42.84375 
Q 37.203125 48.484375 30.078125 48.484375 
Q 22.953125 48.484375 18.875 42.84375 
Q 14.796875 37.203125 14.796875 27.296875 
z
" id="DejaVuSans-64"/>
      <path d="M 32.171875 -5.078125 
Q 28.375 -14.84375 24.75 -17.8125 
Q 21.140625 -20.796875 15.09375 -20.796875 
L 7.90625 -20.796875 
L 7.90625 -13.28125 
L 13.1875 -13.28125 
Q 16.890625 -13.28125 18.9375 -11.515625 
Q 21 -9.765625 23.484375 -3.21875 
L 25.09375 0.875 
L 2.984375 54.6875 
L 12.5 54.6875 
L 29.59375 11.921875 
L 46.6875 54.6875 
L 56.203125 54.6875 
z
" id="DejaVuSans-79"/>
      <path d="M 31 75.875 
Q 24.46875 64.65625 21.28125 53.65625 
Q 18.109375 42.671875 18.109375 31.390625 
Q 18.109375 20.125 21.3125 9.0625 
Q 24.515625 -2 31 -13.1875 
L 23.1875 -13.1875 
Q 15.875 -1.703125 12.234375 9.375 
Q 8.59375 20.453125 8.59375 31.390625 
Q 8.59375 42.28125 12.203125 53.3125 
Q 15.828125 64.359375 23.1875 75.875 
z
" id="DejaVuSans-28"/>
      <path d="M 8.015625 75.875 
L 15.828125 75.875 
Q 23.140625 64.359375 26.78125 53.3125 
Q 30.421875 42.28125 30.421875 31.390625 
Q 30.421875 20.453125 26.78125 9.375 
Q 23.140625 -1.703125 15.828125 -13.1875 
L 8.015625 -13.1875 
Q 14.5 -2 17.703125 9.0625 
Q 20.90625 20.125 20.90625 31.390625 
Q 20.90625 42.671875 17.703125 53.65625 
Q 14.5 64.65625 8.015625 75.875 
z
" id="DejaVuSans-29"/>
     </defs>
     <g transform="translate(14.798438 196.211625)rotate(-90)scale(0.1 -0.1)">
      <use xlink:href="#DejaVuSans-52"/>
      <use x="69.419922" xlink:href="#DejaVuSans-65"/>
      <use x="130.943359" xlink:href="#DejaVuSans-61"/>
      <use x="192.222656" xlink:href="#DejaVuSans-64"/>
      <use x="255.699219" xlink:href="#DejaVuSans-20"/>
      <use x="287.486328" xlink:href="#DejaVuSans-6c"/>
      <use x="315.269531" xlink:href="#DejaVuSans-61"/>
      <use x="376.548828" xlink:href="#DejaVuSans-74"/>
      <use x="415.757812" xlink:href="#DejaVuSans-65"/>
      <use x="477.28125" xlink:href="#DejaVuSans-6e"/>
      <use x="540.660156" xlink:href="#DejaVuSans-63"/>
      <use x="595.640625" xlink:href="#DejaVuSans-79"/>
      <use x="654.820312" xlink:href="#DejaVuSans-20"/>
      <use x="686.607422" xlink:href="#DejaVuSans-28"/>
      <use x="725.621094" xlink:href="#DejaVuSans-73"/>
      <use x="777.720703" xlink:href="#DejaVuSans-29"/>
     </g>
    </g>
   </g>
   <g id="line2d_16">
    <path clip-path="url(#p35aab2380d)" d="M 147.264561 173.85749 
L 147.700046 173.865428 
L 148.135532 173.341638 
L 148.571018 173.480751 
L 149.006503 173.31444 
L 149.877475 173.191203 
L 150.31296 173.509641 
L 151.183931 173.446136 
L 152.054903 173.575749 
L 152.490388 173.442492 
L 152.925874 173.603598 
L 153.796845 173.630145 
L 154.232331 173.144095 
L 155.103302 172.940565 
L 155.538788 173.195628 
L 156.409759 173.098027 
L 156.845245 173.3147 
L 157.716216 172.808609 
L 158.151702 173.16908 
L 158.587187 173.292187 
L 159.893644 173.202655 
L 160.32913 173.349837 
L 160.764616 173.260304 
L 161.200101 172.53819 
L 161.635587 172.464274 
L 162.071072 172.642428 
L 163.377529 172.752261 
L 163.813015 173.234017 
L 164.248501 173.54699 
L 165.554958 173.651227 
L 165.990443 173.904468 
L 166.425929 174.337294 
L 166.861415 174.141832 
L 167.2969 174.202605 
L 167.732386 174.077937 
L 169.038843 174.321808 
L 169.474328 174.202085 
L 171.651757 174.145736 
L 172.087242 174.50829 
L 172.522728 174.29474 
L 172.958213 174.924068 
L 173.393699 175.009697 
L 174.700156 174.94554 
L 175.135642 174.588453 
L 176.006613 174.696724 
L 176.877584 174.470942 
L 180.361469 174.423443 
L 180.796955 174.957903 
L 181.667926 175.018025 
L 182.103412 175.396976 
L 182.538898 175.328004 
L 183.409869 175.399578 
L 184.28084 175.3336 
L 186.022783 175.493275 
L 186.458268 176.037105 
L 187.764725 176.28449 
L 188.200211 177.030288 
L 188.635697 177.259324 
L 189.506668 177.199853 
L 189.942153 177.052021 
L 190.377639 177.066205 
L 191.24861 176.704563 
L 191.684096 176.572216 
L 192.119582 176.288654 
L 192.555067 176.290216 
L 192.990553 176.068597 
L 194.29701 176.184547 
L 194.732496 176.619455 
L 195.603467 176.618934 
L 196.038952 176.479691 
L 196.474438 176.48867 
L 196.909924 176.386385 
L 197.345409 176.539943 
L 197.780895 176.440781 
L 198.216381 176.8576 
L 198.651866 176.429199 
L 199.522838 176.7017 
L 199.958323 176.86658 
L 200.393809 176.764424 
L 200.829295 176.495697 
L 201.26478 176.508581 
L 201.700266 176.350728 
L 202.135751 176.446377 
L 202.571237 176.246491 
L 203.442208 176.327564 
L 204.31318 176.427898 
L 204.748665 176.366995 
L 205.184151 176.065084 
L 205.619637 176.466417 
L 206.055122 176.513656 
L 206.926093 176.474095 
L 207.797065 176.436877 
L 208.23255 176.718357 
L 208.668036 176.708597 
L 209.103522 177.077006 
L 209.539007 177.013111 
L 209.974493 176.562326 
L 210.845464 177.181374 
L 212.151921 177.287173 
L 212.587407 177.253598 
L 213.022892 177.649856 
L 213.893864 177.648685 
L 214.764835 177.183066 
L 215.200321 177.544448 
L 216.071292 177.307994 
L 217.377749 177.496038 
L 217.813235 177.191915 
L 220.426148 177.408588 
L 220.861634 177.279105 
L 222.168091 177.267262 
L 223.474548 176.89573 
L 223.910033 176.865148 
L 224.345519 176.596291 
L 227.393919 176.618804 
L 227.829404 176.237381 
L 228.26489 176.343571 
L 229.135861 176.260025 
L 230.442318 176.301407 
L 230.877804 175.962538 
L 231.313289 176.083693 
L 232.184261 175.90567 
L 232.619746 175.821863 
L 233.055232 176.408898 
L 233.490718 176.265881 
L 234.361689 176.502985 
L 235.668146 176.408247 
L 236.103631 176.002489 
L 236.974603 176.179862 
L 237.410088 175.840472 
L 237.845574 175.715804 
L 238.28106 175.753413 
L 238.716545 175.666743 
L 239.587517 176.376495 
L 240.023002 176.51717 
L 240.458488 176.43987 
L 240.893974 176.099049 
L 241.764945 176.150192 
L 242.20043 176.446897 
L 242.635916 176.602928 
L 243.071402 176.575079 
L 243.942373 176.121302 
L 245.684316 176.030859 
L 246.119801 176.72187 
L 248.297229 176.665913 
L 248.732715 176.600976 
L 249.168201 176.329907 
L 251.345629 176.635071 
L 251.781115 176.82858 
L 253.087571 176.749849 
L 253.958543 176.82845 
L 254.829514 176.907702 
L 255.265 176.851874 
L 255.700485 176.465116 
L 256.135971 176.308825 
L 256.571457 176.367385 
L 257.006942 175.989346 
L 257.442428 176.126507 
L 257.877914 175.754584 
L 258.313399 175.950436 
L 258.748885 175.802473 
L 259.619856 175.749899 
L 260.055342 176.437397 
L 260.926313 176.386515 
L 261.797284 176.568963 
L 263.103741 176.717966 
L 263.539227 176.480081 
L 264.410198 176.716535 
L 266.152141 176.75089 
L 266.587626 176.564148 
L 267.023112 176.539553 
L 267.458598 176.644831 
L 267.894083 176.555169 
L 268.329569 176.006263 
L 269.20054 175.981017 
L 269.636026 175.668695 
L 272.24894 175.718407 
L 273.990882 175.433283 
L 274.861854 175.279855 
L 275.297339 175.302108 
L 275.732825 175.55678 
L 277.039282 175.824596 
L 277.474767 175.739879 
L 277.910253 175.933648 
L 278.345739 175.769549 
L 279.21671 175.788419 
L 279.652196 175.241986 
L 280.523167 175.012039 
L 280.958652 175.490021 
L 282.700595 175.347004 
L 283.136081 175.040538 
L 283.571566 175.367305 
L 284.007052 175.382921 
L 284.442538 174.908843 
L 285.313509 175.089339 
L 285.748995 175.349737 
L 286.18448 175.280506 
L 286.619966 175.546109 
L 287.055451 175.465166 
L 287.490937 175.547801 
L 288.361908 175.399318 
L 289.23288 175.523466 
L 289.668365 175.419879 
L 290.103851 175.754324 
L 292.716765 175.445906 
L 293.15225 175.505637 
L 294.023222 175.301457 
L 294.458707 175.293649 
L 294.894193 175.703962 
L 295.329679 175.506548 
L 296.636136 175.206459 
L 297.071621 174.994601 
L 297.507107 175.112372 
L 298.378078 174.829461 
L 298.813564 174.718847 
L 299.249049 174.748908 
L 299.684535 175.23665 
L 300.120021 175.064483 
L 300.555506 175.142694 
L 301.426478 174.812543 
L 302.297449 174.640246 
L 302.732935 174.864727 
L 303.16842 174.866289 
L 304.039391 174.577131 
L 304.474877 174.024061 
L 305.781334 173.979425 
L 306.652305 173.579653 
L 307.087791 173.614659 
L 307.958762 173.911365 
L 308.829734 173.899002 
L 309.265219 174.122833 
L 310.13619 173.967193 
L 310.571676 173.505217 
L 312.313619 173.409568 
L 312.749104 173.681939 
L 314.926532 173.893276 
L 315.362018 173.718506 
L 315.797504 174.160572 
L 317.103961 174.010657 
L 317.539446 174.167469 
L 318.845903 173.678035 
L 319.281389 173.132773 
L 320.587846 172.957352 
L 321.023331 173.336693 
L 321.894303 173.424143 
L 322.329788 173.874927 
L 322.765274 173.536969 
L 324.071731 173.589023 
L 324.507217 173.437417 
L 324.942702 173.063151 
L 326.249159 173.092431 
L 326.684645 172.75174 
L 327.991102 172.612497 
L 328.426587 172.745494 
L 328.862073 173.148259 
L 329.297559 173.258482 
L 330.604016 173.095945 
L 331.039501 172.632147 
L 331.474987 172.720768 
L 331.910472 172.286771 
L 332.345958 172.326072 
L 332.781444 172.033921 
L 333.652415 171.949204 
L 334.087901 171.992668 
L 334.958872 171.813864 
L 335.829843 171.46966 
L 336.265329 171.263787 
L 336.700815 171.231514 
L 337.1363 171.045162 
L 338.442757 171.123893 
L 340.1847 170.83916 
L 340.620185 171.224487 
L 341.055671 171.281095 
L 341.491157 171.10086 
L 341.926642 171.475125 
L 342.362128 171.304519 
L 342.797614 171.666292 
L 344.10407 171.391319 
L 344.539556 171.060648 
L 344.975042 171.032799 
L 345.410527 170.886268 
L 345.846013 170.884707 
L 346.716984 170.658013 
L 347.15247 170.681177 
L 347.587956 170.521503 
L 348.023441 170.608823 
L 348.458927 170.975671 
L 348.894412 170.822633 
L 349.765384 170.977362 
L 350.200869 170.827448 
L 351.071841 170.757175 
L 351.507326 171.339525 
L 351.942812 171.239192 
L 352.378298 170.584097 
L 352.813783 170.512393 
L 353.249269 170.91685 
L 353.684755 171.039306 
L 354.12024 170.928822 
L 354.555726 171.171652 
L 355.426697 171.05245 
L 356.297668 170.167928 
L 357.16864 170.172743 
L 357.604125 170.176387 
L 358.039611 169.886318 
L 358.475097 170.031288 
L 359.346068 170.008774 
L 359.781554 170.142943 
L 360.217039 170.146586 
L 361.08801 169.690857 
L 362.394467 169.978713 
L 362.829953 169.991987 
L 363.265439 170.148408 
L 364.13641 169.8301 
L 364.571896 170.33476 
L 365.007381 170.303658 
L 365.442867 170.029726 
L 365.878353 169.37307 
L 366.313838 169.370207 
L 367.184809 169.533134 
L 367.620295 169.420699 
L 368.055781 169.678364 
L 368.926752 169.53808 
L 369.362238 170.016843 
L 370.233209 169.850922 
L 373.717094 169.798218 
L 374.15258 169.688124 
L 374.588065 169.851573 
L 375.459037 169.485115 
L 376.765494 169.337803 
L 377.200979 169.16017 
L 382.426807 169.304359 
L 382.862293 169.245798 
L 384.168749 169.433582 
L 384.604235 169.110069 
L 385.039721 169.283407 
L 385.475206 169.264017 
L 385.910692 169.571394 
L 386.781663 169.37307 
L 387.217149 169.463252 
L 387.652635 168.998674 
L 388.08812 168.818178 
L 388.523606 168.970695 
L 388.959091 168.875567 
L 389.394577 169.433061 
L 389.830063 169.379837 
L 390.265548 169.497738 
L 391.13652 169.107726 
L 391.572005 169.206108 
L 392.007491 169.090679 
L 392.442977 168.831061 
L 392.878462 168.327312 
L 394.184919 168.071729 
L 394.620405 168.116495 
L 395.05589 168.04349 
L 395.491376 168.550883 
L 396.362347 168.530451 
L 396.797833 168.319764 
L 397.233319 168.416454 
L 399.410747 167.978162 
L 400.281718 168.107646 
L 401.152689 167.865597 
L 402.023661 168.135625 
L 402.023661 168.135625 
" style="fill:none;opacity:0.8;stroke:#1f77b4;stroke-linecap:square;stroke-width:1.5;"/>
   </g>
   <g id="line2d_17">
    <path clip-path="url(#p35aab2380d)" d="M 147.264561 135.535089 
L 147.700046 135.302669 
L 149.006503 135.140913 
L 149.877475 135.289266 
L 150.31296 135.261287 
L 150.748446 135.356935 
L 151.183931 134.9733 
L 151.619417 135.049819 
L 152.054903 134.57548 
L 152.490388 134.333301 
L 152.925874 134.605411 
L 153.36136 134.579514 
L 153.796845 133.922337 
L 154.232331 133.912447 
L 154.667817 133.436937 
L 155.103302 133.803655 
L 155.538788 133.583598 
L 155.974273 133.613529 
L 156.409759 133.222737 
L 156.845245 133.035734 
L 157.28073 132.318695 
L 157.716216 132.095385 
L 158.587187 132.132343 
L 159.458159 132.705844 
L 160.32913 132.638435 
L 160.764616 132.907031 
L 161.200101 132.715604 
L 161.635587 132.083933 
L 162.071072 131.86674 
L 162.506558 131.903828 
L 162.942044 132.24556 
L 163.377529 132.149521 
L 163.813015 132.291757 
L 164.683986 132.169171 
L 165.119472 132.628414 
L 165.554958 132.43985 
L 165.990443 131.732051 
L 166.861415 131.732571 
L 167.2969 131.616101 
L 167.732386 131.751831 
L 169.038843 131.710058 
L 169.474328 130.484846 
L 169.909814 129.981357 
L 170.3453 129.822724 
L 170.780785 129.842764 
L 171.651757 129.536559 
L 172.087242 129.677234 
L 172.522728 129.222025 
L 173.393699 129.242846 
L 173.829185 129.74126 
L 174.26467 130.046424 
L 174.700156 130.092101 
L 175.571127 130.570344 
L 176.006613 130.198161 
L 176.442099 130.366684 
L 176.877584 130.201024 
L 177.31307 129.494265 
L 178.184041 129.593948 
L 178.619527 129.448458 
L 179.490498 129.831183 
L 179.925984 129.444164 
L 180.361469 129.618413 
L 180.796955 129.331728 
L 181.232441 128.711119 
L 182.103412 129.278894 
L 182.538898 129.307913 
L 182.974383 129.67372 
L 183.845355 129.766506 
L 184.28084 129.892085 
L 184.716326 129.680748 
L 185.151811 128.700708 
L 185.587297 128.613908 
L 186.022783 127.99395 
L 186.458268 127.729127 
L 186.893754 127.753722 
L 187.32924 127.961937 
L 187.764725 127.89726 
L 188.200211 128.088037 
L 188.635697 128.084263 
L 189.071182 127.934348 
L 189.506668 128.010347 
L 189.942153 127.794324 
L 190.377639 127.394682 
L 191.684096 127.729257 
L 192.119582 128.073592 
L 192.555067 128.21726 
L 192.990553 127.933047 
L 193.426039 127.947102 
L 193.861524 128.141652 
L 194.29701 128.810021 
L 194.732496 129.092802 
L 195.603467 128.968264 
L 196.038952 128.506808 
L 196.474438 128.672859 
L 196.909924 128.492754 
L 197.345409 128.64449 
L 198.216381 127.894007 
L 198.651866 127.860953 
L 199.087352 128.023881 
L 199.522838 127.938513 
L 199.958323 128.08127 
L 200.393809 128.074633 
L 200.829295 127.944629 
L 201.26478 128.313299 
L 201.700266 128.325011 
L 202.135751 128.817568 
L 202.571237 128.791802 
L 203.006723 129.521594 
L 203.442208 129.363871 
L 203.877694 129.503115 
L 204.31318 129.280195 
L 204.748665 128.664921 
L 205.619637 128.281676 
L 206.055122 128.53765 
L 206.490608 128.643059 
L 206.926093 129.49843 
L 207.361579 129.295941 
L 207.797065 129.560504 
L 208.668036 129.326392 
L 209.103522 129.385083 
L 209.974493 129.309475 
L 210.409979 129.290736 
L 210.845464 129.385343 
L 211.716436 129.127287 
L 212.151921 128.689386 
L 213.458378 128.381099 
L 213.893864 128.665442 
L 214.329349 128.319675 
L 214.764835 129.138219 
L 215.200321 128.748467 
L 215.635806 128.596731 
L 216.506778 128.75172 
L 216.942263 128.59556 
L 217.813235 129.977714 
L 218.24872 129.554518 
L 218.684206 127.943197 
L 219.119691 128.089208 
L 219.555177 127.833104 
L 220.426148 127.89687 
L 220.861634 129.205238 
L 221.29712 129.425555 
L 221.732605 128.956551 
L 222.168091 128.696674 
L 223.474548 129.260935 
L 223.910033 130.024432 
L 224.345519 130.105505 
L 224.781005 130.348986 
L 225.21649 130.455956 
L 226.087462 130.319576 
L 226.522947 131.172474 
L 228.700376 131.657094 
L 229.135861 131.561966 
L 229.571347 132.00299 
L 230.006832 132.191945 
L 230.442318 132.766487 
L 230.877804 132.648845 
L 231.748775 132.880224 
L 232.184261 133.89605 
L 232.619746 134.058197 
L 233.490718 133.941597 
L 233.926203 134.157229 
L 234.361689 134.146168 
L 234.797175 133.813675 
L 236.539117 133.54599 
L 236.974603 134.018637 
L 237.845574 134.268364 
L 238.28106 134.243638 
L 238.716545 134.939335 
L 239.587517 134.124566 
L 240.023002 134.166729 
L 240.893974 133.763444 
L 241.764945 133.654521 
L 242.20043 132.57584 
L 243.071402 132.961427 
L 243.506887 132.717947 
L 244.377859 132.704152 
L 245.684316 131.875719 
L 246.119801 131.783584 
L 246.555287 132.330147 
L 246.990772 132.156678 
L 247.861744 132.357345 
L 248.297229 132.619956 
L 248.732715 132.598353 
L 250.039172 132.857971 
L 250.474658 132.782103 
L 250.910143 133.382411 
L 251.345629 133.290016 
L 252.652086 132.539533 
L 253.958543 132.295401 
L 254.394028 133.484436 
L 254.829514 134.150853 
L 256.135971 134.358677 
L 256.571457 134.616993 
L 257.006942 134.547762 
L 257.442428 134.946753 
L 257.877914 134.828331 
L 258.748885 134.103614 
L 259.619856 133.995082 
L 260.055342 133.531545 
L 260.490827 133.340118 
L 260.926313 133.631878 
L 261.361799 133.562907 
L 261.797284 133.739499 
L 262.23277 135.005313 
L 263.103741 134.811283 
L 263.539227 135.043182 
L 263.974712 134.736456 
L 264.410198 134.591096 
L 264.845684 134.753894 
L 265.281169 134.064704 
L 265.716655 134.306623 
L 266.152141 135.107468 
L 266.587626 135.365134 
L 267.023112 135.171755 
L 267.458598 135.331559 
L 268.329569 134.553878 
L 268.765055 134.59422 
L 269.636026 134.217351 
L 270.071511 134.938945 
L 270.506997 134.43897 
L 270.942483 134.592137 
L 271.813454 134.613349 
L 272.24894 134.511194 
L 272.684425 134.68219 
L 273.119911 133.04146 
L 273.990882 133.095726 
L 274.861854 133.241996 
L 275.297339 132.844177 
L 275.732825 132.811903 
L 276.603796 132.354873 
L 277.039282 132.282648 
L 277.474767 131.946772 
L 277.910253 132.386495 
L 278.345739 133.045364 
L 278.781224 133.005543 
L 279.21671 132.829732 
L 279.652196 132.815417 
L 280.087681 133.086486 
L 280.523167 133.123444 
L 280.958652 133.453855 
L 281.394138 133.635652 
L 281.829624 133.997685 
L 282.265109 134.141874 
L 282.700595 134.464866 
L 283.136081 135.004793 
L 284.007052 134.816358 
L 284.442538 134.597733 
L 284.878023 134.222427 
L 285.313509 134.537741 
L 285.748995 134.365964 
L 286.18448 133.921687 
L 286.619966 133.898783 
L 287.490937 134.150202 
L 287.926423 134.37104 
L 288.361908 134.45901 
L 289.23288 134.363362 
L 289.668365 134.920726 
L 290.103851 135.12894 
L 290.974822 135.180734 
L 291.845794 135.120612 
L 292.281279 135.44894 
L 292.716765 135.328176 
L 293.15225 135.809281 
L 294.023222 134.277994 
L 294.458707 134.425696 
L 294.894193 134.328616 
L 296.20065 134.581727 
L 297.071621 134.985793 
L 297.507107 134.669437 
L 297.942592 134.852666 
L 298.813564 134.870624 
L 299.249049 135.056456 
L 299.684535 135.084435 
L 300.555506 136.072803 
L 300.990992 135.57465 
L 301.861963 135.418489 
L 302.297449 135.618765 
L 302.732935 135.654422 
L 303.16842 136.207882 
L 303.603906 137.8274 
L 304.039391 131.000177 
L 305.345848 131.12927 
L 305.781334 130.89672 
L 306.21682 130.842064 
L 307.087791 131.450961 
L 307.523277 131.266561 
L 307.958762 131.221665 
L 308.394248 130.571515 
L 309.265219 130.550173 
L 310.571676 131.033231 
L 311.007162 131.349066 
L 311.442647 131.213727 
L 311.878133 131.418298 
L 312.313619 131.015533 
L 313.18459 130.914419 
L 313.620076 131.089709 
L 314.055561 131.005512 
L 314.491047 131.288164 
L 315.362018 131.043381 
L 315.797504 131.229733 
L 317.539446 130.969595 
L 318.410418 131.14853 
L 318.845903 130.818249 
L 319.281389 130.813565 
L 319.716875 131.050799 
L 320.15236 131.073572 
L 320.587846 130.862105 
L 321.458817 131.277753 
L 321.894303 131.016053 
L 322.329788 131.029717 
L 322.765274 130.487839 
L 323.20076 130.660006 
L 323.636245 130.533256 
L 324.071731 130.856509 
L 324.507217 131.642779 
L 324.942702 131.503535 
L 326.249159 132.309456 
L 326.684645 132.350838 
L 327.12013 134.180653 
L 327.555616 134.193146 
L 327.991102 134.038677 
L 328.426587 134.130552 
L 328.862073 134.04128 
L 329.297559 133.601687 
L 330.16853 134.230365 
L 330.604016 134.090731 
L 331.039501 134.288274 
L 331.474987 133.497319 
L 332.345958 132.978215 
L 333.216929 132.999557 
L 333.652415 132.699728 
L 334.087901 132.650147 
L 334.523386 132.486959 
L 334.958872 132.497239 
L 335.394358 132.78939 
L 335.829843 132.461452 
L 336.265329 132.57584 
L 336.700815 132.826088 
L 337.1363 133.215059 
L 337.571786 133.125136 
L 338.442757 133.233798 
L 339.313728 133.298605 
L 339.749214 133.049658 
L 340.620185 133.054473 
L 342.362128 133.005283 
L 342.797614 133.189943 
L 343.668585 133.977905 
L 344.10407 133.98363 
L 344.539556 133.185909 
L 344.975042 132.921346 
L 345.410527 132.994351 
L 345.846013 132.430871 
L 346.716984 132.575059 
L 347.15247 131.92491 
L 347.587956 132.065715 
L 348.023441 131.86726 
L 348.458927 130.63424 
L 348.894412 129.922016 
L 349.329898 129.550223 
L 349.765384 129.795135 
L 350.200869 130.338836 
L 350.636355 129.490361 
L 351.071841 129.549442 
L 351.507326 129.495437 
L 351.942812 129.672419 
L 352.378298 129.4603 
L 352.813783 129.778999 
L 353.249269 129.534607 
L 353.684755 129.528751 
L 354.555726 130.077917 
L 354.991211 129.632858 
L 355.426697 130.406505 
L 355.862183 130.2657 
L 356.297668 130.550824 
L 356.733154 130.561495 
L 357.16864 129.927221 
L 357.604125 129.883236 
L 358.039611 131.506008 
L 358.910582 132.095645 
L 359.781554 131.981127 
L 360.217039 132.53654 
L 360.652525 131.773694 
L 361.08801 132.065454 
L 361.523496 132.19728 
L 361.958982 132.0514 
L 362.394467 132.176589 
L 362.829953 131.969415 
L 363.265439 131.933368 
L 363.700924 131.356744 
L 364.13641 131.406065 
L 364.571896 131.149441 
L 365.007381 131.217501 
L 365.878353 131.631327 
L 366.313838 131.571726 
L 366.749324 131.231946 
L 367.184809 130.441902 
L 367.620295 130.38152 
L 368.055781 129.041919 
L 368.491266 129.045823 
L 368.926752 128.355072 
L 369.797723 129.33329 
L 370.233209 129.101651 
L 370.668695 129.242456 
L 371.10418 129.511834 
L 371.539666 129.624009 
L 372.410637 129.408377 
L 372.846123 128.760049 
L 373.281608 128.788028 
L 373.717094 129.109199 
L 374.15258 129.232956 
L 374.588065 129.121822 
L 375.459037 129.269524 
L 376.765494 128.990777 
L 377.200979 129.072111 
L 377.636465 128.585019 
L 378.07195 128.305621 
L 378.507436 129.341358 
L 378.942922 130.006994 
L 379.378407 129.983309 
L 379.813893 130.11969 
L 380.249379 129.676453 
L 381.12035 129.656543 
L 381.555836 129.738787 
L 381.991321 129.970556 
L 382.426807 130.337014 
L 382.862293 130.328425 
L 383.297778 130.109539 
L 384.168749 130.065814 
L 384.604235 129.590825 
L 385.039721 129.494526 
L 385.475206 129.711459 
L 385.910692 130.436306 
L 386.346178 130.512565 
L 386.781663 130.773613 
L 387.217149 130.673801 
L 388.08812 130.869522 
L 388.523606 130.851434 
L 388.959091 137.629597 
L 389.394577 137.738519 
L 389.830063 137.721862 
L 390.265548 137.582748 
L 390.701034 137.769751 
L 391.13652 137.785888 
L 391.572005 138.092223 
L 392.007491 138.230035 
L 392.442977 138.114346 
L 392.878462 138.15664 
L 393.313948 137.528482 
L 394.184919 137.259105 
L 394.620405 136.809882 
L 395.491376 136.919976 
L 395.926862 136.70122 
L 396.362347 136.61403 
L 396.797833 136.038447 
L 397.233319 136.675714 
L 397.668804 136.228703 
L 398.10429 136.064865 
L 398.539776 135.480433 
L 399.410747 135.261417 
L 399.846233 135.181124 
L 400.281718 135.294471 
L 401.152689 135.160433 
L 401.588175 134.561556 
L 402.023661 134.653951 
L 402.023661 134.653951 
" style="fill:none;opacity:0.8;stroke:#ff7f0e;stroke-linecap:square;stroke-width:1.5;"/>
   </g>
   <g id="line2d_18">
    <path clip-path="url(#p35aab2380d)" d="M 147.264561 114.681235 
L 147.700046 114.25882 
L 148.135532 114.236957 
L 148.571018 113.800617 
L 149.006503 113.661895 
L 149.441989 113.662675 
L 149.877475 114.126473 
L 150.31296 114.312825 
L 151.619417 114.09381 
L 152.054903 114.2691 
L 152.490388 114.105522 
L 152.925874 114.253094 
L 153.36136 113.941292 
L 154.667817 114.097063 
L 155.538788 114.635037 
L 156.409759 114.671995 
L 156.845245 114.933304 
L 157.28073 115.031165 
L 157.716216 115.273865 
L 158.151702 115.266187 
L 158.587187 115.078664 
L 159.458159 115.321624 
L 159.893644 115.466203 
L 160.764616 115.219079 
L 161.200101 115.295598 
L 161.635587 115.755231 
L 162.506558 115.611954 
L 162.942044 115.915947 
L 163.377529 115.942754 
L 163.813015 115.544674 
L 164.248501 115.491189 
L 164.683986 116.146024 
L 165.554958 116.232042 
L 165.990443 116.828837 
L 166.425929 116.963136 
L 167.732386 116.922404 
L 168.167871 117.815123 
L 168.603357 117.78233 
L 169.038843 118.528518 
L 169.909814 118.796594 
L 170.3453 119.534715 
L 170.780785 118.662947 
L 171.216271 119.154593 
L 172.087242 119.202222 
L 172.958213 119.54929 
L 173.393699 119.528078 
L 173.829185 119.31596 
L 174.26467 119.658342 
L 175.135642 119.793421 
L 175.571127 119.595097 
L 176.877584 120.564466 
L 179.055012 120.66558 
L 179.490498 120.122791 
L 180.361469 120.20985 
L 180.796955 119.926809 
L 182.103412 120.249932 
L 182.538898 120.031697 
L 182.974383 119.9665 
L 183.845355 119.988232 
L 184.28084 120.535706 
L 184.716326 120.59804 
L 185.151811 120.392168 
L 185.587297 120.467386 
L 186.458268 120.31604 
L 187.32924 119.844954 
L 187.764725 119.068445 
L 189.506668 119.023418 
L 189.942153 118.634317 
L 190.377639 118.579661 
L 191.24861 118.718384 
L 191.684096 118.367152 
L 192.119582 118.436513 
L 192.555067 118.618961 
L 192.990553 120.630704 
L 193.426039 120.902554 
L 193.861524 120.835795 
L 194.29701 120.402058 
L 194.732496 120.314738 
L 195.603467 120.439407 
L 196.474438 120.276479 
L 196.909924 120.244076 
L 197.345409 120.864945 
L 197.780895 120.756283 
L 198.216381 120.341026 
L 198.651866 120.360025 
L 199.087352 120.493152 
L 199.522838 120.382278 
L 199.958323 119.833373 
L 200.829295 119.716252 
L 201.26478 119.208989 
L 201.700266 119.350055 
L 202.135751 119.253886 
L 202.571237 119.319733 
L 203.006723 119.272104 
L 203.442208 119.812031 
L 203.877694 120.048875 
L 204.31318 120.050566 
L 204.748665 119.917699 
L 205.619637 120.34545 
L 206.055122 127.348485 
L 206.490608 127.242946 
L 206.926093 127.352909 
L 207.361579 127.34367 
L 208.23255 127.03304 
L 209.539007 127.239563 
L 209.974493 126.998034 
L 210.409979 126.980075 
L 210.845464 127.338464 
L 211.28095 127.269103 
L 211.716436 126.695082 
L 212.151921 126.514716 
L 213.458378 126.275529 
L 213.893864 125.963858 
L 214.329349 125.306942 
L 214.764835 125.510992 
L 215.200321 125.440199 
L 216.071292 124.741379 
L 216.506778 124.746845 
L 216.942263 124.457687 
L 217.377749 124.336272 
L 217.813235 124.694531 
L 218.24872 124.05323 
L 219.119691 124.180631 
L 219.555177 122.596639 
L 221.29712 122.556558 
L 221.732605 122.891393 
L 223.474548 122.775183 
L 223.910033 122.913776 
L 224.781005 122.788977 
L 225.651976 122.795875 
L 226.087462 122.724952 
L 226.522947 122.784683 
L 226.958433 123.278282 
L 227.393919 123.261364 
L 227.829404 123.9758 
L 228.26489 124.029155 
L 229.135861 123.857248 
L 230.006832 123.861933 
L 230.877804 123.007603 
L 232.184261 122.871482 
L 232.619746 123.774613 
L 233.055232 123.652807 
L 233.490718 123.922185 
L 233.926203 123.904487 
L 234.361689 123.512783 
L 234.797175 123.478818 
L 235.23266 123.151401 
L 236.103631 123.127326 
L 236.974603 122.525326 
L 237.410088 122.59768 
L 237.845574 122.528579 
L 238.28106 122.871482 
L 239.152031 122.673288 
L 240.023002 122.619543 
L 240.458488 121.511581 
L 241.329459 121.561943 
L 241.764945 121.794233 
L 243.071402 121.871142 
L 243.506887 122.070768 
L 243.942373 121.980455 
L 245.24883 122.175526 
L 246.555287 122.027953 
L 246.990772 122.110458 
L 247.426258 121.837567 
L 248.297229 121.745563 
L 248.732715 122.298242 
L 249.603686 122.632166 
L 250.039172 122.63607 
L 250.474658 122.827497 
L 251.345629 122.417575 
L 251.781115 122.495135 
L 253.087571 122.127766 
L 253.958543 122.168108 
L 255.265 121.701187 
L 255.700485 122.514655 
L 256.135971 122.624748 
L 256.571457 122.533524 
L 257.006942 122.080528 
L 257.442428 121.848499 
L 258.313399 121.750898 
L 258.748885 121.99581 
L 259.619856 121.60749 
L 260.055342 121.035421 
L 260.490827 121.0634 
L 260.926313 120.913746 
L 261.361799 121.05364 
L 262.23277 120.734941 
L 262.668256 120.724661 
L 263.103741 119.954918 
L 263.974712 120.087394 
L 264.410198 120.593356 
L 265.281169 120.783351 
L 265.716655 120.430037 
L 267.458598 120.464002 
L 267.894083 120.60741 
L 268.329569 120.378764 
L 268.765055 120.317732 
L 269.20054 120.032868 
L 269.636026 120.215186 
L 270.942483 120.153763 
L 271.813454 120.057333 
L 272.24894 120.371217 
L 272.684425 121.075502 
L 273.119911 121.081358 
L 273.555397 121.215266 
L 274.426368 121.139658 
L 274.861854 121.377023 
L 275.297339 121.429987 
L 275.732825 120.906718 
L 276.603796 121.684139 
L 277.474767 121.440008 
L 277.910253 121.577039 
L 278.781224 121.013038 
L 279.21671 121.419577 
L 280.087681 121.718495 
L 282.700595 121.232314 
L 283.136081 121.507677 
L 283.571566 121.366092 
L 284.442538 121.464343 
L 284.878023 122.070637 
L 285.748995 121.880121 
L 286.18448 122.332727 
L 286.619966 121.883635 
L 287.055451 121.883244 
L 288.361908 121.446254 
L 288.797394 121.741528 
L 289.23288 121.567799 
L 289.668365 121.822992 
L 290.103851 121.914737 
L 290.539337 121.891833 
L 290.974822 121.644969 
L 291.410308 121.666181 
L 291.845794 121.305449 
L 292.716765 121.183644 
L 293.587736 121.408255 
L 294.023222 121.381708 
L 294.458707 121.204335 
L 296.20065 121.315469 
L 296.636136 121.612566 
L 297.507107 121.154103 
L 297.942592 120.831241 
L 298.378078 120.730777 
L 298.813564 120.964368 
L 299.249049 121.634818 
L 299.684535 121.609182 
L 300.120021 121.712639 
L 300.990992 122.630865 
L 301.426478 122.69398 
L 301.861963 122.604447 
L 302.732935 122.77167 
L 303.16842 123.463462 
L 304.039391 123.520201 
L 304.474877 124.989284 
L 306.21682 124.999435 
L 306.652305 120.781009 
L 307.087791 120.761098 
L 307.523277 120.605068 
L 308.394248 120.795324 
L 308.829734 120.910362 
L 309.700705 120.839179 
L 310.13619 120.804823 
L 310.571676 120.523474 
L 311.007162 120.699805 
L 311.442647 120.507207 
L 311.878133 120.503173 
L 312.313619 120.324108 
L 312.749104 119.721457 
L 314.926532 120.411038 
L 315.797504 121.254827 
L 316.232989 121.243635 
L 316.668475 121.535006 
L 317.974932 121.564416 
L 318.410418 121.331606 
L 318.845903 121.368434 
L 319.281389 121.722789 
L 319.716875 121.649133 
L 320.587846 121.938942 
L 321.023331 121.871142 
L 321.458817 122.119828 
L 321.894303 121.825074 
L 322.329788 121.752069 
L 322.765274 121.816225 
L 323.20076 121.753761 
L 324.071731 122.120088 
L 324.942702 122.052809 
L 325.378188 123.023869 
L 325.813674 123.038184 
L 327.555616 122.670165 
L 327.991102 122.666912 
L 328.426587 122.420568 
L 328.862073 122.512703 
L 329.297559 121.94727 
L 329.733044 122.040837 
L 330.604016 121.886368 
L 331.039501 122.096014 
L 331.910472 122.185936 
L 332.345958 122.285489 
L 333.216929 122.029645 
L 334.958872 121.373379 
L 335.829843 121.536958 
L 336.265329 121.699755 
L 336.700815 121.507157 
L 337.1363 121.53943 
L 337.571786 121.35438 
L 338.007271 121.468117 
L 338.442757 121.083571 
L 338.878243 121.060146 
L 339.313728 120.774502 
L 339.749214 120.782701 
L 340.1847 121.106734 
L 340.620185 120.817707 
L 341.926642 121.342277 
L 342.362128 121.605408 
L 343.233099 121.123392 
L 343.668585 121.028914 
L 344.10407 121.178568 
L 344.539556 121.178568 
L 344.975042 121.452891 
L 345.410527 121.244286 
L 347.15247 121.039195 
L 347.587956 120.92819 
L 348.023441 121.359455 
L 348.458927 120.921293 
L 348.894412 120.737934 
L 349.765384 120.560432 
L 350.200869 120.32606 
L 350.636355 120.653608 
L 351.071841 120.553925 
L 351.507326 120.770728 
L 352.378298 120.720757 
L 352.813783 120.429907 
L 354.12024 120.827857 
L 354.991211 119.546557 
L 355.862183 118.436253 
L 356.297668 118.496896 
L 356.733154 118.071487 
L 357.604125 117.877588 
L 360.217039 117.810959 
L 360.652525 118.293626 
L 361.958982 118.390316 
L 362.394467 118.410877 
L 363.700924 119.236968 
L 364.571896 118.971104 
L 365.007381 118.896277 
L 365.878353 119.040856 
L 366.313838 119.214715 
L 367.620295 119.045671 
L 368.055781 118.888339 
L 368.491266 118.980994 
L 368.926752 118.672707 
L 369.362238 118.053269 
L 369.797723 117.882142 
L 371.10418 118.25862 
L 371.539666 118.612064 
L 372.846123 118.563004 
L 374.15258 118.935968 
L 374.588065 118.59775 
L 376.330008 118.216847 
L 376.765494 118.448356 
L 377.200979 118.48141 
L 377.636465 118.688063 
L 379.378407 118.369104 
L 379.813893 118.380035 
L 380.249379 118.165965 
L 380.684864 118.139548 
L 381.12035 117.675099 
L 381.555836 117.640744 
L 382.426807 117.858848 
L 383.297778 118.359865 
L 384.168749 118.265387 
L 384.604235 118.327071 
L 385.039721 118.13252 
L 386.346178 118.262785 
L 386.781663 118.568209 
L 387.217149 118.338913 
L 387.652635 118.32642 
L 388.08812 117.65649 
L 388.523606 117.694229 
L 389.394577 117.451399 
L 390.701034 117.398434 
L 391.13652 117.239801 
L 391.572005 121.353859 
L 392.442977 121.343709 
L 393.313948 121.096063 
L 393.749434 121.156315 
L 394.184919 120.598431 
L 395.05589 120.353258 
L 395.491376 120.648272 
L 395.926862 120.405832 
L 396.362347 120.517227 
L 396.797833 120.157406 
L 397.233319 120.162221 
L 397.668804 120.760708 
L 398.10429 120.681717 
L 398.539776 120.472591 
L 398.975261 120.463352 
L 399.410747 120.204775 
L 399.846233 120.226377 
L 400.281718 119.81164 
L 400.717204 119.76271 
L 401.152689 119.536407 
L 402.023661 119.438286 
L 402.023661 119.438286 
" style="fill:none;opacity:0.8;stroke:#2ca02c;stroke-linecap:square;stroke-width:1.5;"/>
   </g>
   <g id="line2d_19">
    <path clip-path="url(#p35aab2380d)" d="M 147.264561 172.073872 
L 147.700046 172.035482 
L 148.571018 171.589513 
L 149.006503 171.821152 
L 150.31296 171.656142 
L 150.748446 171.333019 
L 151.183931 171.758948 
L 152.054903 171.432441 
L 152.490388 171.265219 
L 153.36136 171.342649 
L 154.232331 171.40173 
L 155.974273 171.505316 
L 156.409759 171.019135 
L 157.28073 170.902665 
L 157.716216 171.341998 
L 159.022673 171.088887 
L 159.458159 171.382209 
L 159.893644 170.905008 
L 160.764616 170.783723 
L 161.200101 171.080429 
L 162.071072 170.79036 
L 162.506558 171.27628 
L 163.377529 171.214076 
L 165.119472 171.12116 
L 165.554958 171.781331 
L 167.2969 171.726024 
L 167.732386 171.861623 
L 169.038843 171.794214 
L 169.474328 171.327683 
L 169.909814 171.464194 
L 170.3453 171.724072 
L 170.780785 171.623608 
L 172.522728 170.309514 
L 172.958213 170.406334 
L 173.393699 170.275419 
L 173.829185 170.348815 
L 174.26467 170.604268 
L 174.700156 170.575378 
L 175.135642 170.43119 
L 175.571127 170.487668 
L 176.442099 170.330206 
L 176.877584 170.413101 
L 177.748556 170.031418 
L 178.619527 169.863805 
L 179.490498 169.67433 
L 179.925984 170.255118 
L 180.796955 170.328774 
L 181.232441 170.167148 
L 181.667926 169.835696 
L 182.103412 169.240333 
L 182.974383 169.12087 
L 183.409869 168.70418 
L 183.845355 168.913436 
L 184.28084 168.639504 
L 184.716326 168.523424 
L 185.151811 168.67477 
L 185.587297 168.184035 
L 186.458268 168.023449 
L 187.32924 167.982197 
L 188.635697 167.836577 
L 189.071182 168.139268 
L 189.506668 168.007313 
L 189.942153 167.702669 
L 190.377639 167.913095 
L 192.119582 167.86924 
L 192.990553 167.581904 
L 193.426039 167.181872 
L 193.861524 167.221303 
L 194.29701 166.891283 
L 194.732496 166.92707 
L 195.167981 167.287281 
L 196.038952 167.088826 
L 196.909924 166.737464 
L 197.345409 166.304769 
L 197.780895 166.414862 
L 198.216381 166.69452 
L 198.651866 166.508428 
L 199.087352 166.46119 
L 199.522838 166.036692 
L 199.958323 166.106314 
L 200.829295 166.613447 
L 203.877694 166.156416 
L 206.055122 165.928681 
L 206.926093 166.110348 
L 207.361579 165.718515 
L 207.797065 165.763541 
L 208.23255 165.53971 
L 208.668036 165.537888 
L 209.103522 165.081118 
L 209.539007 164.942005 
L 210.409979 164.985599 
L 210.845464 165.380426 
L 211.716436 165.178588 
L 213.458378 165.582134 
L 214.329349 165.874675 
L 214.764835 165.765363 
L 215.635806 165.771739 
L 216.071292 165.516416 
L 216.506778 165.414912 
L 216.942263 165.049105 
L 217.377749 164.987812 
L 217.813235 165.051447 
L 218.24872 165.356872 
L 218.684206 165.273066 
L 219.119691 164.931854 
L 219.990663 165.197978 
L 220.861634 165.11196 
L 221.29712 165.146836 
L 221.732605 164.938621 
L 222.168091 165.03479 
L 222.603577 164.809268 
L 224.345519 164.544445 
L 224.781005 164.08299 
L 225.21649 163.938541 
L 226.087462 164.023779 
L 226.522947 163.756743 
L 227.393919 163.658232 
L 227.829404 163.55881 
L 228.26489 163.662657 
L 228.700376 163.453661 
L 229.135861 163.395101 
L 230.442318 163.67528 
L 230.877804 163.60748 
L 231.313289 163.946739 
L 231.748775 163.962225 
L 232.184261 163.559851 
L 232.619746 162.774101 
L 233.926203 162.915036 
L 234.361689 162.89929 
L 236.103631 163.546577 
L 237.410088 163.866967 
L 237.845574 164.018964 
L 239.587517 163.761298 
L 240.023002 163.915247 
L 240.893974 163.676451 
L 241.329459 164.303046 
L 242.20043 164.37501 
L 242.635916 164.027552 
L 243.071402 164.011546 
L 243.506887 164.229521 
L 243.942373 164.255677 
L 244.377859 164.136865 
L 244.813344 164.711797 
L 245.24883 164.890471 
L 246.119801 164.603005 
L 246.555287 164.795083 
L 246.990772 164.506316 
L 249.168201 164.085592 
L 249.603686 164.202062 
L 250.039172 164.030806 
L 250.474658 164.072969 
L 250.910143 163.837947 
L 251.345629 163.851611 
L 251.781115 163.731497 
L 252.2166 163.858899 
L 252.652086 163.837557 
L 253.958543 163.420607 
L 254.394028 163.725772 
L 254.829514 163.777435 
L 255.700485 163.570652 
L 256.135971 163.769887 
L 256.571457 164.138036 
L 257.006942 164.279362 
L 257.442428 164.649723 
L 258.313399 164.85963 
L 259.619856 164.996531 
L 260.055342 165.232334 
L 260.490827 164.457906 
L 261.361799 164.412749 
L 262.668256 164.449187 
L 263.103741 164.416523 
L 263.539227 164.634237 
L 263.974712 164.699695 
L 264.410198 164.504103 
L 265.281169 164.354059 
L 265.716655 164.229 
L 266.152141 164.27741 
L 266.587626 164.464543 
L 267.023112 165.003948 
L 267.894083 165.090227 
L 268.329569 165.417124 
L 268.765055 165.404891 
L 269.20054 165.598791 
L 270.071511 165.825485 
L 270.506997 166.401328 
L 271.813454 166.298912 
L 272.24894 166.298392 
L 272.684425 165.901483 
L 273.119911 165.761849 
L 273.990882 165.943516 
L 274.426368 165.771219 
L 274.861854 165.334879 
L 275.297339 165.526437 
L 275.732825 165.232854 
L 276.603796 165.193554 
L 277.039282 165.129267 
L 277.474767 165.321085 
L 277.910253 165.354139 
L 278.345739 165.610113 
L 278.781224 165.482061 
L 279.21671 165.793992 
L 280.087681 165.776164 
L 280.523167 165.860361 
L 281.394138 165.577059 
L 281.829624 165.34516 
L 282.265109 165.599572 
L 282.700595 165.700426 
L 284.007052 165.493252 
L 284.442538 165.808047 
L 285.313509 166.001426 
L 285.748995 165.907209 
L 286.619966 166.36463 
L 287.055451 166.226168 
L 287.926423 166.137676 
L 288.361908 166.326631 
L 289.668365 166.29683 
L 290.103851 165.880401 
L 290.539337 165.909161 
L 291.410308 165.659694 
L 291.845794 165.696262 
L 292.281279 166.221613 
L 293.587736 166.554886 
L 294.023222 167.051478 
L 295.329679 167.117846 
L 296.20065 167.450469 
L 296.636136 167.619643 
L 297.942592 167.682888 
L 298.813564 167.93717 
L 299.249049 168.060407 
L 299.684535 168.473843 
L 300.120021 168.553485 
L 300.555506 168.466686 
L 300.990992 168.069386 
L 301.426478 168.096194 
L 301.861963 168.536698 
L 302.297449 168.667222 
L 302.732935 168.647702 
L 303.16842 168.263937 
L 303.603906 168.215917 
L 304.039391 168.523945 
L 304.474877 168.370387 
L 304.910363 168.356462 
L 305.345848 168.19874 
L 306.21682 168.250013 
L 306.652305 168.508329 
L 307.087791 168.46135 
L 307.523277 168.808548 
L 307.958762 168.712249 
L 309.265219 169.063741 
L 309.700705 169.445945 
L 310.13619 169.440089 
L 311.442647 169.848449 
L 311.878133 169.360837 
L 312.313619 169.188539 
L 313.18459 169.129589 
L 313.620076 169.293948 
L 314.055561 169.080138 
L 314.926532 169.139999 
L 315.362018 168.747385 
L 315.797504 168.822472 
L 316.668475 168.389777 
L 317.103961 168.644449 
L 317.539446 169.355632 
L 317.974932 169.423952 
L 318.845903 169.142212 
L 319.281389 169.161472 
L 320.15236 168.961586 
L 322.765274 168.570533 
L 323.20076 168.670996 
L 323.636245 168.63586 
L 324.071731 168.41268 
L 324.942702 167.630314 
L 325.813674 167.666101 
L 326.684645 167.538179 
L 327.12013 167.368354 
L 327.555616 167.634348 
L 327.991102 167.708525 
L 330.16853 166.739156 
L 330.604016 166.909762 
L 331.474987 166.827777 
L 331.910472 167.178228 
L 332.345958 167.329704 
L 333.216929 166.878139 
L 333.652415 166.787306 
L 334.087901 166.871112 
L 334.523386 166.699205 
L 335.394358 166.726273 
L 335.829843 167.057724 
L 336.265329 166.819709 
L 337.1363 166.612405 
L 337.571786 166.448697 
L 339.313728 166.90833 
L 340.1847 166.860311 
L 340.620185 166.677603 
L 341.491157 166.781319 
L 341.926642 166.632186 
L 342.362128 166.279653 
L 343.233099 166.384671 
L 344.10407 166.130519 
L 344.975042 166.166957 
L 345.410527 166.954138 
L 346.281499 167.213885 
L 347.15247 167.314088 
L 347.587956 167.126956 
L 348.023441 167.090128 
L 348.894412 166.819188 
L 349.329898 167.250583 
L 349.765384 167.16014 
L 351.507326 167.346622 
L 352.378298 167.105744 
L 352.813783 166.749567 
L 354.12024 167.002287 
L 354.555726 166.50036 
L 354.991211 166.570502 
L 355.426697 166.510901 
L 355.862183 166.202223 
L 356.733154 166.281344 
L 357.16864 166.203524 
L 357.604125 166.539921 
L 358.039611 166.416033 
L 359.346068 166.569721 
L 359.781554 166.877489 
L 360.217039 166.701677 
L 360.652525 166.954138 
L 361.08801 166.494634 
L 362.394467 165.837327 
L 362.829953 165.850991 
L 363.265439 165.654098 
L 363.700924 165.640825 
L 364.571896 165.439377 
L 365.007381 165.50028 
L 365.442867 165.364159 
L 366.313838 165.669324 
L 366.749324 166.138848 
L 367.184809 166.226298 
L 367.620295 166.142491 
L 369.362238 166.592235 
L 369.797723 166.3252 
L 370.233209 166.212764 
L 370.668695 166.249852 
L 371.539666 165.932975 
L 372.410637 166.269112 
L 373.717094 166.230722 
L 374.15258 165.906038 
L 374.588065 166.0445 
L 375.023551 166.446875 
L 375.894522 166.554366 
L 376.765494 166.622166 
L 377.200979 166.391698 
L 377.636465 166.288111 
L 378.07195 166.341336 
L 381.555836 165.543224 
L 382.426807 165.473342 
L 382.862293 165.065762 
L 383.297778 165.030886 
L 383.733264 164.790529 
L 385.039721 163.359314 
L 385.475206 163.49114 
L 385.910692 164.120208 
L 386.346178 164.303176 
L 387.217149 163.827016 
L 387.652635 163.494653 
L 388.08812 163.989814 
L 388.523606 164.014799 
L 389.394577 164.211302 
L 389.830063 164.179549 
L 390.701034 164.27767 
L 391.13652 164.165234 
L 391.572005 160.007321 
L 392.007491 160.323807 
L 392.442977 160.148256 
L 394.184919 160.299472 
L 395.05589 160.510029 
L 395.491376 160.030354 
L 396.362347 159.896056 
L 396.797833 160.359854 
L 397.233319 160.553754 
L 397.668804 160.311704 
L 398.10429 160.384449 
L 398.539776 159.949281 
L 399.410747 159.886686 
L 399.846233 159.747573 
L 400.281718 160.077203 
L 400.717204 159.997431 
L 401.588175 160.466173 
L 402.023661 160.56013 
L 402.023661 160.56013 
" style="fill:none;opacity:0.8;stroke:#d62728;stroke-linecap:square;stroke-width:1.5;"/>
   </g>
   <g id="line2d_20">
    <path clip-path="url(#p35aab2380d)" d="M 147.264561 56.276285 
L 147.700046 55.555862 
L 148.135532 54.56307 
L 148.571018 53.926324 
L 149.006503 53.897304 
L 149.441989 53.550236 
L 150.31296 53.492587 
L 150.748446 53.565592 
L 151.183931 52.934181 
L 151.619417 53.192367 
L 152.054903 52.553669 
L 152.925874 52.249286 
L 154.667817 52.330489 
L 155.103302 52.880957 
L 155.538788 52.82578 
L 156.845245 53.169724 
L 157.28073 53.711732 
L 158.587187 53.397589 
L 159.022673 53.413725 
L 159.458159 52.677557 
L 160.32913 52.430302 
L 160.764616 52.176671 
L 161.200101 51.227864 
L 161.635587 50.5837 
L 162.071072 50.526831 
L 162.506558 50.352842 
L 162.942044 50.760162 
L 163.377529 51.365806 
L 164.248501 51.305554 
L 164.683986 52.014654 
L 165.990443 51.724715 
L 166.861415 51.921478 
L 167.2969 51.857843 
L 167.732386 52.108351 
L 168.167871 52.157151 
L 168.603357 51.885951 
L 169.038843 52.22443 
L 169.474328 52.120713 
L 169.909814 51.433475 
L 170.3453 51.537713 
L 170.780785 51.334964 
L 171.216271 50.769792 
L 171.651757 51.232809 
L 172.522728 51.006245 
L 173.829185 50.944952 
L 174.26467 51.0881 
L 174.700156 51.372182 
L 175.135642 51.221747 
L 175.571127 50.158161 
L 176.006613 50.705245 
L 176.442099 50.502106 
L 176.877584 50.471524 
L 177.31307 51.148221 
L 177.748556 51.378819 
L 178.184041 50.357267 
L 178.619527 50.653452 
L 179.055012 50.7681 
L 179.490498 51.607725 
L 179.925984 51.462625 
L 180.796955 51.941649 
L 182.538898 51.245041 
L 183.409869 51.135598 
L 183.845355 51.258575 
L 184.28084 51.053484 
L 185.151811 51.176721 
L 185.587297 50.858933 
L 186.022783 51.576623 
L 186.458268 50.598015 
L 187.764725 50.606083 
L 188.635697 50.383944 
L 189.071182 50.377568 
L 189.506668 51.086538 
L 189.942153 51.182317 
L 190.377639 51.413435 
L 191.24861 51.538363 
L 192.119582 51.342772 
L 192.555067 51.52522 
L 192.990553 51.225131 
L 193.426039 50.645383 
L 193.861524 50.527352 
L 194.29701 50.744025 
L 194.732496 50.495729 
L 195.167981 50.607905 
L 195.603467 49.8854 
L 196.038952 49.449712 
L 196.909924 49.387247 
L 197.345409 49.10798 
L 197.780895 49.347426 
L 199.087352 49.325434 
L 199.522838 49.534038 
L 199.958323 49.974022 
L 200.393809 49.983391 
L 200.829295 49.674063 
L 201.26478 49.684473 
L 201.700266 49.381131 
L 202.135751 50.026075 
L 202.571237 49.928475 
L 203.006723 49.951248 
L 203.877694 49.487841 
L 204.748665 49.890085 
L 205.184151 49.720521 
L 205.619637 49.812135 
L 206.055122 50.118861 
L 206.490608 50.217112 
L 206.926093 50.524229 
L 207.361579 49.589736 
L 207.797065 49.375535 
L 208.23255 48.840034 
L 208.668036 48.901847 
L 209.103522 49.659488 
L 209.539007 49.081432 
L 209.974493 48.940627 
L 210.845464 49.216902 
L 211.28095 49.461033 
L 211.716436 50.358568 
L 212.587407 50.199284 
L 213.458378 48.494267 
L 213.893864 47.916602 
L 214.329349 47.950697 
L 214.764835 48.490754 
L 215.200321 48.374154 
L 216.071292 48.502075 
L 216.942263 47.132935 
L 217.813235 47.778009 
L 218.24872 47.826289 
L 218.684206 48.044524 
L 219.119691 47.333602 
L 219.555177 47.454756 
L 219.990663 46.779361 
L 220.426148 46.745526 
L 220.861634 46.213407 
L 221.29712 46.657945 
L 221.732605 46.538613 
L 222.168091 46.540044 
L 223.039062 46.184908 
L 223.474548 46.087698 
L 223.910033 46.192326 
L 224.345519 46.150292 
L 224.781005 45.08944 
L 225.21649 44.941217 
L 225.651976 45.203827 
L 226.087462 44.946943 
L 226.522947 45.243258 
L 226.958433 45.20643 
L 227.393919 44.711921 
L 227.829404 44.610546 
L 228.26489 44.39101 
L 228.700376 44.475077 
L 229.135861 44.29419 
L 229.571347 44.242397 
L 230.006832 44.390229 
L 230.442318 44.823315 
L 231.313289 44.321649 
L 231.748775 43.16775 
L 232.184261 43.414484 
L 233.490718 45.818711 
L 233.926203 45.699768 
L 235.23266 45.898223 
L 235.668146 45.709138 
L 236.103631 45.791773 
L 236.539117 44.913498 
L 236.974603 45.648105 
L 237.410088 45.738158 
L 237.845574 45.706275 
L 238.28106 45.266682 
L 240.023002 45.073173 
L 240.458488 45.211375 
L 241.329459 44.544438 
L 242.20043 44.442934 
L 242.635916 44.048497 
L 243.071402 44.000217 
L 243.506887 42.945871 
L 243.942373 43.301658 
L 244.377859 44.029758 
L 244.813344 43.400429 
L 245.24883 43.363602 
L 245.684316 43.681129 
L 246.555287 45.159712 
L 246.990772 43.975232 
L 247.426258 43.761682 
L 247.861744 43.892987 
L 248.732715 43.598754 
L 249.168201 43.63389 
L 249.603686 43.455997 
L 250.039172 43.502455 
L 250.474658 43.343821 
L 250.910143 43.513516 
L 251.345629 43.407066 
L 251.781115 42.911646 
L 252.2166 42.91542 
L 252.652086 43.038006 
L 253.087571 42.655542 
L 253.523057 42.900454 
L 253.958543 42.684041 
L 254.394028 41.77037 
L 254.829514 42.42013 
L 255.265 42.457868 
L 255.700485 42.249524 
L 256.135971 42.330337 
L 256.571457 42.22636 
L 257.006942 41.968955 
L 258.313399 41.693981 
L 259.18437 41.535478 
L 259.619856 41.103563 
L 260.055342 41.095365 
L 260.490827 42.102993 
L 260.926313 41.939154 
L 261.797284 42.099479 
L 262.23277 41.205198 
L 262.668256 40.854096 
L 263.103741 41.850403 
L 263.539227 41.246971 
L 263.974712 41.025483 
L 264.845684 41.083523 
L 265.281169 40.617252 
L 265.716655 40.359326 
L 266.152141 40.515748 
L 266.587626 39.840482 
L 267.023112 39.786476 
L 267.458598 39.956431 
L 267.894083 38.821272 
L 268.329569 38.70285 
L 268.765055 38.762842 
L 269.20054 37.96551 
L 269.636026 37.500411 
L 270.071511 37.444193 
L 270.506997 37.658914 
L 270.942483 37.472562 
L 271.377968 38.349796 
L 272.24894 38.298003 
L 272.684425 37.33397 
L 273.990882 36.996012 
L 276.16831 36.97467 
L 276.603796 36.784804 
L 277.039282 36.862364 
L 277.474767 36.698525 
L 277.910253 35.957542 
L 278.345739 36.036533 
L 280.087681 35.730718 
L 280.958652 36.504886 
L 281.394138 36.400518 
L 281.829624 35.486196 
L 282.265109 35.601235 
L 282.700595 35.525627 
L 283.136081 35.273687 
L 283.571566 35.436225 
L 285.313509 34.990125 
L 286.18448 35.139389 
L 286.619966 35.530051 
L 287.055451 35.254688 
L 287.490937 35.233346 
L 287.926423 35.347473 
L 288.797394 35.795264 
L 289.23288 35.74204 
L 289.668365 35.882845 
L 290.103851 35.695582 
L 290.974822 35.698575 
L 291.845794 35.19925 
L 292.281279 36.092491 
L 292.716765 35.729417 
L 293.15225 36.29524 
L 293.587736 36.38269 
L 294.023222 36.332328 
L 294.458707 37.060688 
L 294.894193 37.226869 
L 295.765164 37.166878 
L 296.20065 35.885187 
L 296.636136 35.793573 
L 297.071621 36.103682 
L 297.507107 35.869961 
L 298.378078 37.643428 
L 298.813564 38.06246 
L 299.684535 37.78046 
L 300.120021 37.925559 
L 300.555506 37.063551 
L 300.990992 36.801851 
L 301.426478 37.365332 
L 301.861963 37.515897 
L 302.297449 37.282046 
L 302.732935 37.424153 
L 303.16842 37.410619 
L 303.603906 37.690016 
L 304.039391 38.380898 
L 304.474877 38.340296 
L 305.345848 37.724112 
L 305.781334 38.325331 
L 306.21682 38.000907 
L 307.523277 38.16904 
L 307.958762 38.348104 
L 308.394248 38.033701 
L 308.829734 37.889902 
L 309.265219 37.311456 
L 309.700705 37.81989 
L 311.442647 38.094733 
L 311.878133 37.621436 
L 312.313619 38.439328 
L 313.620076 37.980866 
L 314.055561 37.546739 
L 314.491047 36.922486 
L 315.362018 36.904397 
L 315.797504 37.193685 
L 316.232989 37.773823 
L 316.668475 38.84834 
L 317.103961 38.76076 
L 317.974932 37.908251 
L 318.410418 37.875588 
L 318.845903 37.721509 
L 319.716875 37.778898 
L 320.15236 37.468138 
L 320.587846 37.552985 
L 321.023331 37.99388 
L 321.458817 38.714432 
L 321.894303 38.345632 
L 322.765274 38.458849 
L 323.20076 38.738246 
L 323.636245 38.384152 
L 324.071731 38.42189 
L 324.507217 38.987713 
L 325.378188 38.83858 
L 325.813674 39.077766 
L 326.249159 38.356433 
L 327.12013 38.475636 
L 327.555616 38.019386 
L 327.991102 37.891594 
L 328.426587 39.164305 
L 328.862073 38.932797 
L 329.297559 38.329365 
L 329.733044 39.135676 
L 330.16853 39.226509 
L 330.604016 38.854977 
L 331.039501 38.737726 
L 331.474987 39.047835 
L 331.910472 39.892145 
L 332.345958 40.106086 
L 332.781444 39.91609 
L 333.216929 40.086956 
L 334.087901 39.98402 
L 334.958872 39.91622 
L 335.394358 39.452813 
L 336.265329 39.329185 
L 336.700815 39.008535 
L 337.571786 38.898311 
L 338.007271 39.027665 
L 338.442757 38.686063 
L 338.878243 37.121981 
L 339.313728 38.075864 
L 339.749214 38.017954 
L 340.1847 37.611416 
L 340.620185 37.886129 
L 341.055671 37.384982 
L 341.491157 37.358305 
L 341.926642 37.511212 
L 342.362128 37.057175 
L 342.797614 37.127447 
L 343.668585 36.291596 
L 344.10407 36.434743 
L 345.410527 36.250864 
L 346.281499 36.584267 
L 346.716984 36.469879 
L 347.15247 37.359476 
L 347.587956 37.595799 
L 348.894412 37.491172 
L 349.765384 37.514726 
L 350.200869 38.155506 
L 350.636355 38.597441 
L 351.071841 38.215888 
L 351.507326 38.358775 
L 351.942812 38.233847 
L 352.378298 38.250244 
L 352.813783 39.241735 
L 353.684755 39.17849 
L 354.12024 40.214878 
L 354.555726 40.486598 
L 355.426697 40.425565 
L 355.862183 40.703531 
L 356.297668 40.66397 
L 356.733154 40.39225 
L 357.16864 40.538391 
L 357.604125 41.465856 
L 358.475097 41.78963 
L 359.781554 41.592347 
L 360.217039 41.592867 
L 360.652525 40.851754 
L 361.08801 40.845507 
L 361.523496 40.551274 
L 362.394467 40.519782 
L 362.829953 41.402091 
L 363.265439 41.647524 
L 364.13641 41.690728 
L 364.571896 41.295901 
L 365.007381 41.367605 
L 365.442867 41.552396 
L 365.878353 41.235649 
L 366.313838 40.637033 
L 366.749324 41.33299 
L 367.184809 41.117878 
L 367.620295 41.220814 
L 368.055781 41.502945 
L 368.491266 41.446727 
L 368.926752 41.112542 
L 369.362238 40.456406 
L 370.233209 39.876789 
L 371.10418 39.687314 
L 371.539666 39.740409 
L 372.410637 38.854586 
L 372.846123 37.642518 
L 373.717094 37.464754 
L 374.15258 37.384852 
L 374.588065 37.420639 
L 375.023551 37.618833 
L 375.459037 37.541664 
L 375.894522 37.327463 
L 376.330008 37.26617 
L 376.765494 37.336312 
L 377.200979 37.089188 
L 377.636465 37.345552 
L 378.07195 37.421029 
L 378.507436 37.128488 
L 378.942922 37.241314 
L 379.378407 37.06277 
L 379.813893 37.293108 
L 380.249379 37.346983 
L 380.684864 37.193685 
L 381.12035 38.29527 
L 381.555836 37.863615 
L 381.991321 36.973238 
L 382.426807 36.968683 
L 382.862293 36.598842 
L 383.297778 36.408066 
L 383.733264 36.444894 
L 384.604235 36.218591 
L 385.039721 36.205057 
L 385.475206 37.310936 
L 385.910692 37.355312 
L 386.346178 37.254588 
L 386.781663 37.812082 
L 387.652635 38.030968 
L 388.523606 37.676873 
L 389.394577 37.72216 
L 389.830063 38.856018 
L 390.265548 39.228852 
L 390.701034 38.98446 
L 391.572005 38.847949 
L 392.007491 39.043151 
L 392.878462 38.953879 
L 393.313948 39.341938 
L 393.749434 39.292097 
L 394.620405 40.16829 
L 395.491376 40.199522 
L 395.926862 40.397716 
L 396.362347 40.356203 
L 396.797833 40.794495 
L 397.233319 40.164256 
L 398.539776 40.004581 
L 398.975261 40.344231 
L 399.410747 40.894828 
L 399.846233 40.759489 
L 400.281718 40.816097 
L 400.717204 41.065954 
L 401.152689 40.196659 
L 401.588175 40.079018 
L 402.023661 40.114284 
L 402.023661 40.114284 
" style="fill:none;opacity:0.8;stroke:#9467bd;stroke-linecap:square;stroke-width:1.5;"/>
   </g>
   <g id="patch_3">
    <path d="M 61.909375 288.430125 
L 61.909375 22.318125 
" style="fill:none;stroke:#000000;stroke-linecap:square;stroke-linejoin:miter;stroke-width:0.8;"/>
   </g>
   <g id="patch_4">
    <path d="M 419.029375 288.430125 
L 419.029375 22.318125 
" style="fill:none;stroke:#000000;stroke-linecap:square;stroke-linejoin:miter;stroke-width:0.8;"/>
   </g>
   <g id="patch_5">
    <path d="M 61.909375 288.430125 
L 419.029375 288.430125 
" style="fill:none;stroke:#000000;stroke-linecap:square;stroke-linejoin:miter;stroke-width:0.8;"/>
   </g>
   <g id="patch_6">
    <path d="M 61.909375 22.318125 
L 419.029375 22.318125 
" style="fill:none;stroke:#000000;stroke-linecap:square;stroke-linejoin:miter;stroke-width:0.8;"/>
   </g>
   <g id="text_18">
    <!-- Get next sibling [leaf] -->
    <defs>
     <path d="M 59.515625 10.40625 
L 59.515625 29.984375 
L 43.40625 29.984375 
L 43.40625 38.09375 
L 69.28125 38.09375 
L 69.28125 6.78125 
Q 63.578125 2.734375 56.6875 0.65625 
Q 49.8125 -1.421875 42 -1.421875 
Q 24.90625 -1.421875 15.25 8.5625 
Q 5.609375 18.5625 5.609375 36.375 
Q 5.609375 54.25 15.25 64.234375 
Q 24.90625 74.21875 42 74.21875 
Q 49.125 74.21875 55.546875 72.453125 
Q 61.96875 70.703125 67.390625 67.28125 
L 67.390625 56.78125 
Q 61.921875 61.421875 55.765625 63.765625 
Q 49.609375 66.109375 42.828125 66.109375 
Q 29.4375 66.109375 22.71875 58.640625 
Q 16.015625 51.171875 16.015625 36.375 
Q 16.015625 21.625 22.71875 14.15625 
Q 29.4375 6.6875 42.828125 6.6875 
Q 48.046875 6.6875 52.140625 7.59375 
Q 56.25 8.5 59.515625 10.40625 
z
" id="DejaVuSans-47"/>
     <path d="M 54.890625 54.6875 
L 35.109375 28.078125 
L 55.90625 0 
L 45.3125 0 
L 29.390625 21.484375 
L 13.484375 0 
L 2.875 0 
L 24.125 28.609375 
L 4.6875 54.6875 
L 15.28125 54.6875 
L 29.78125 35.203125 
L 44.28125 54.6875 
z
" id="DejaVuSans-78"/>
     <path d="M 45.40625 27.984375 
Q 45.40625 37.75 41.375 43.109375 
Q 37.359375 48.484375 30.078125 48.484375 
Q 22.859375 48.484375 18.828125 43.109375 
Q 14.796875 37.75 14.796875 27.984375 
Q 14.796875 18.265625 18.828125 12.890625 
Q 22.859375 7.515625 30.078125 7.515625 
Q 37.359375 7.515625 41.375 12.890625 
Q 45.40625 18.265625 45.40625 27.984375 
z
M 54.390625 6.78125 
Q 54.390625 -7.171875 48.1875 -13.984375 
Q 42 -20.796875 29.203125 -20.796875 
Q 24.46875 -20.796875 20.265625 -20.09375 
Q 16.0625 -19.390625 12.109375 -17.921875 
L 12.109375 -9.1875 
Q 16.0625 -11.328125 19.921875 -12.34375 
Q 23.78125 -13.375 27.78125 -13.375 
Q 36.625 -13.375 41.015625 -8.765625 
Q 45.40625 -4.15625 45.40625 5.171875 
L 45.40625 9.625 
Q 42.625 4.78125 38.28125 2.390625 
Q 33.9375 0 27.875 0 
Q 17.828125 0 11.671875 7.65625 
Q 5.515625 15.328125 5.515625 27.984375 
Q 5.515625 40.671875 11.671875 48.328125 
Q 17.828125 56 27.875 56 
Q 33.9375 56 38.28125 53.609375 
Q 42.625 51.21875 45.40625 46.390625 
L 45.40625 54.6875 
L 54.390625 54.6875 
z
" id="DejaVuSans-67"/>
     <path d="M 8.59375 75.984375 
L 29.296875 75.984375 
L 29.296875 69 
L 17.578125 69 
L 17.578125 -6.203125 
L 29.296875 -6.203125 
L 29.296875 -13.1875 
L 8.59375 -13.1875 
z
" id="DejaVuSans-5b"/>
     <path d="M 30.421875 75.984375 
L 30.421875 -13.1875 
L 9.71875 -13.1875 
L 9.71875 -6.203125 
L 21.390625 -6.203125 
L 21.390625 69 
L 9.71875 69 
L 9.71875 75.984375 
z
" id="DejaVuSans-5d"/>
    </defs>
    <g transform="translate(175.282188 16.318125)scale(0.12 -0.12)">
     <use xlink:href="#DejaVuSans-47"/>
     <use x="77.490234" xlink:href="#DejaVuSans-65"/>
     <use x="139.013672" xlink:href="#DejaVuSans-74"/>
     <use x="178.222656" xlink:href="#DejaVuSans-20"/>
     <use x="210.009766" xlink:href="#DejaVuSans-6e"/>
     <use x="273.388672" xlink:href="#DejaVuSans-65"/>
     <use x="334.896484" xlink:href="#DejaVuSans-78"/>
     <use x="394.076172" xlink:href="#DejaVuSans-74"/>
     <use x="433.285156" xlink:href="#DejaVuSans-20"/>
     <use x="465.072266" xlink:href="#DejaVuSans-73"/>
     <use x="517.171875" xlink:href="#DejaVuSans-69"/>
     <use x="544.955078" xlink:href="#DejaVuSans-62"/>
     <use x="608.431641" xlink:href="#DejaVuSans-6c"/>
     <use x="636.214844" xlink:href="#DejaVuSans-69"/>
     <use x="663.998047" xlink:href="#DejaVuSans-6e"/>
     <use x="727.376953" xlink:href="#DejaVuSans-67"/>
     <use x="790.853516" xlink:href="#DejaVuSans-20"/>
     <use x="822.640625" xlink:href="#DejaVuSans-5b"/>
     <use x="861.654297" xlink:href="#DejaVuSans-6c"/>
     <use x="889.4375" xlink:href="#DejaVuSans-65"/>
     <use x="950.960938" xlink:href="#DejaVuSans-61"/>
     <use x="1012.240234" xlink:href="#DejaVuSans-66"/>
     <use x="1047.445312" xlink:href="#DejaVuSans-5d"/>
    </g>
   </g>
   <g id="legend_1">
    <g id="patch_7">
     <path d="M 92.429688 365.802375 
L 380.989062 365.802375 
Q 382.989062 365.802375 382.989062 363.802375 
L 382.989062 335.446125 
Q 382.989062 333.446125 380.989062 333.446125 
L 92.429688 333.446125 
Q 90.429688 333.446125 90.429688 335.446125 
L 90.429688 363.802375 
Q 90.429688 365.802375 92.429688 365.802375 
z
" style="fill:#4c4c4c;opacity:0.5;stroke:#4c4c4c;stroke-linejoin:miter;"/>
    </g>
    <g id="patch_8">
     <path d="M 90.429688 363.802375 
L 378.989062 363.802375 
Q 380.989062 363.802375 380.989062 361.802375 
L 380.989062 333.446125 
Q 380.989062 331.446125 378.989062 331.446125 
L 90.429688 331.446125 
Q 88.429688 331.446125 88.429688 333.446125 
L 88.429688 361.802375 
Q 88.429688 363.802375 90.429688 363.802375 
z
" style="fill:#ffffff;stroke:#cccccc;stroke-linejoin:miter;"/>
    </g>
    <g id="line2d_21">
     <path d="M 92.429688 339.544562 
L 112.429688 339.544562 
" style="fill:none;opacity:0.8;stroke:#1f77b4;stroke-linecap:square;stroke-width:1.5;"/>
    </g>
    <g id="line2d_22"/>
    <g id="text_19">
     <!-- MPTT -->
     <defs>
      <path d="M 9.8125 72.90625 
L 24.515625 72.90625 
L 43.109375 23.296875 
L 61.8125 72.90625 
L 76.515625 72.90625 
L 76.515625 0 
L 66.890625 0 
L 66.890625 64.015625 
L 48.09375 14.015625 
L 38.1875 14.015625 
L 19.390625 64.015625 
L 19.390625 0 
L 9.8125 0 
z
" id="DejaVuSans-4d"/>
      <path d="M 19.671875 64.796875 
L 19.671875 37.40625 
L 32.078125 37.40625 
Q 38.96875 37.40625 42.71875 40.96875 
Q 46.484375 44.53125 46.484375 51.125 
Q 46.484375 57.671875 42.71875 61.234375 
Q 38.96875 64.796875 32.078125 64.796875 
z
M 9.8125 72.90625 
L 32.078125 72.90625 
Q 44.34375 72.90625 50.609375 67.359375 
Q 56.890625 61.8125 56.890625 51.125 
Q 56.890625 40.328125 50.609375 34.8125 
Q 44.34375 29.296875 32.078125 29.296875 
L 19.671875 29.296875 
L 19.671875 0 
L 9.8125 0 
z
" id="DejaVuSans-50"/>
      <path d="M -0.296875 72.90625 
L 61.375 72.90625 
L 61.375 64.59375 
L 35.5 64.59375 
L 35.5 0 
L 25.59375 0 
L 25.59375 64.59375 
L -0.296875 64.59375 
z
" id="DejaVuSans-54"/>
     </defs>
     <g transform="translate(120.429688 343.044562)scale(0.1 -0.1)">
      <use xlink:href="#DejaVuSans-4d"/>
      <use x="86.279297" xlink:href="#DejaVuSans-50"/>
      <use x="146.582031" xlink:href="#DejaVuSans-54"/>
      <use x="207.650391" xlink:href="#DejaVuSans-54"/>
     </g>
    </g>
    <g id="line2d_23">
     <path d="M 92.429688 354.222687 
L 112.429688 354.222687 
" style="fill:none;opacity:0.8;stroke:#ff7f0e;stroke-linecap:square;stroke-width:1.5;"/>
    </g>
    <g id="line2d_24"/>
    <g id="text_20">
     <!-- tree -->
     <defs>
      <path d="M 41.109375 46.296875 
Q 39.59375 47.171875 37.8125 47.578125 
Q 36.03125 48 33.890625 48 
Q 26.265625 48 22.1875 43.046875 
Q 18.109375 38.09375 18.109375 28.8125 
L 18.109375 0 
L 9.078125 0 
L 9.078125 54.6875 
L 18.109375 54.6875 
L 18.109375 46.1875 
Q 20.953125 51.171875 25.484375 53.578125 
Q 30.03125 56 36.53125 56 
Q 37.453125 56 38.578125 55.875 
Q 39.703125 55.765625 41.0625 55.515625 
z
" id="DejaVuSans-72"/>
     </defs>
     <g transform="translate(120.429688 357.722687)scale(0.1 -0.1)">
      <use xlink:href="#DejaVuSans-74"/>
      <use x="39.208984" xlink:href="#DejaVuSans-72"/>
      <use x="80.291016" xlink:href="#DejaVuSans-65"/>
      <use x="141.814453" xlink:href="#DejaVuSans-65"/>
     </g>
    </g>
    <g id="line2d_25">
     <path d="M 167.301562 339.544562 
L 187.301562 339.544562 
" style="fill:none;opacity:0.8;stroke:#2ca02c;stroke-linecap:square;stroke-width:1.5;"/>
    </g>
    <g id="line2d_26"/>
    <g id="text_21">
     <!-- treebeard AL -->
     <defs>
      <path d="M 9.8125 72.90625 
L 19.671875 72.90625 
L 19.671875 8.296875 
L 55.171875 8.296875 
L 55.171875 0 
L 9.8125 0 
z
" id="DejaVuSans-4c"/>
     </defs>
     <g transform="translate(195.301562 343.044562)scale(0.1 -0.1)">
      <use xlink:href="#DejaVuSans-74"/>
      <use x="39.208984" xlink:href="#DejaVuSans-72"/>
      <use x="80.291016" xlink:href="#DejaVuSans-65"/>
      <use x="141.814453" xlink:href="#DejaVuSans-65"/>
      <use x="203.337891" xlink:href="#DejaVuSans-62"/>
      <use x="266.814453" xlink:href="#DejaVuSans-65"/>
      <use x="328.337891" xlink:href="#DejaVuSans-61"/>
      <use x="389.617188" xlink:href="#DejaVuSans-72"/>
      <use x="430.714844" xlink:href="#DejaVuSans-64"/>
      <use x="494.191406" xlink:href="#DejaVuSans-20"/>
      <use x="525.978516" xlink:href="#DejaVuSans-41"/>
      <use x="594.386719" xlink:href="#DejaVuSans-4c"/>
     </g>
    </g>
    <g id="line2d_27">
     <path d="M 167.301562 354.222687 
L 187.301562 354.222687 
" style="fill:none;opacity:0.8;stroke:#d62728;stroke-linecap:square;stroke-width:1.5;"/>
    </g>
    <g id="line2d_28"/>
    <g id="text_22">
     <!-- treebeard MP -->
     <g transform="translate(195.301562 357.722687)scale(0.1 -0.1)">
      <use xlink:href="#DejaVuSans-74"/>
      <use x="39.208984" xlink:href="#DejaVuSans-72"/>
      <use x="80.291016" xlink:href="#DejaVuSans-65"/>
      <use x="141.814453" xlink:href="#DejaVuSans-65"/>
      <use x="203.337891" xlink:href="#DejaVuSans-62"/>
      <use x="266.814453" xlink:href="#DejaVuSans-65"/>
      <use x="328.337891" xlink:href="#DejaVuSans-61"/>
      <use x="389.617188" xlink:href="#DejaVuSans-72"/>
      <use x="430.714844" xlink:href="#DejaVuSans-64"/>
      <use x="494.191406" xlink:href="#DejaVuSans-20"/>
      <use x="525.978516" xlink:href="#DejaVuSans-4d"/>
      <use x="612.257812" xlink:href="#DejaVuSans-50"/>
     </g>
    </g>
    <g id="line2d_29">
     <path d="M 282.559375 339.544562 
L 302.559375 339.544562 
" style="fill:none;opacity:0.8;stroke:#9467bd;stroke-linecap:square;stroke-width:1.5;"/>
    </g>
    <g id="line2d_30"/>
    <g id="text_23">
     <!-- treebeard NS -->
     <defs>
      <path d="M 9.8125 72.90625 
L 23.09375 72.90625 
L 55.421875 11.921875 
L 55.421875 72.90625 
L 64.984375 72.90625 
L 64.984375 0 
L 51.703125 0 
L 19.390625 60.984375 
L 19.390625 0 
L 9.8125 0 
z
" id="DejaVuSans-4e"/>
      <path d="M 53.515625 70.515625 
L 53.515625 60.890625 
Q 47.90625 63.578125 42.921875 64.890625 
Q 37.9375 66.21875 33.296875 66.21875 
Q 25.25 66.21875 20.875 63.09375 
Q 16.5 59.96875 16.5 54.203125 
Q 16.5 49.359375 19.40625 46.890625 
Q 22.3125 44.4375 30.421875 42.921875 
L 36.375 41.703125 
Q 47.40625 39.59375 52.65625 34.296875 
Q 57.90625 29 57.90625 20.125 
Q 57.90625 9.515625 50.796875 4.046875 
Q 43.703125 -1.421875 29.984375 -1.421875 
Q 24.8125 -1.421875 18.96875 -0.25 
Q 13.140625 0.921875 6.890625 3.21875 
L 6.890625 13.375 
Q 12.890625 10.015625 18.65625 8.296875 
Q 24.421875 6.59375 29.984375 6.59375 
Q 38.421875 6.59375 43.015625 9.90625 
Q 47.609375 13.234375 47.609375 19.390625 
Q 47.609375 24.75 44.3125 27.78125 
Q 41.015625 30.8125 33.5 32.328125 
L 27.484375 33.5 
Q 16.453125 35.6875 11.515625 40.375 
Q 6.59375 45.0625 6.59375 53.421875 
Q 6.59375 63.09375 13.40625 68.65625 
Q 20.21875 74.21875 32.171875 74.21875 
Q 37.3125 74.21875 42.625 73.28125 
Q 47.953125 72.359375 53.515625 70.515625 
z
" id="DejaVuSans-53"/>
     </defs>
     <g transform="translate(310.559375 343.044562)scale(0.1 -0.1)">
      <use xlink:href="#DejaVuSans-74"/>
      <use x="39.208984" xlink:href="#DejaVuSans-72"/>
      <use x="80.291016" xlink:href="#DejaVuSans-65"/>
      <use x="141.814453" xlink:href="#DejaVuSans-65"/>
      <use x="203.337891" xlink:href="#DejaVuSans-62"/>
      <use x="266.814453" xlink:href="#DejaVuSans-65"/>
      <use x="328.337891" xlink:href="#DejaVuSans-61"/>
      <use x="389.617188" xlink:href="#DejaVuSans-72"/>
      <use x="430.714844" xlink:href="#DejaVuSans-64"/>
      <use x="494.191406" xlink:href="#DejaVuSans-20"/>
      <use x="525.978516" xlink:href="#DejaVuSans-4e"/>
      <use x="600.783203" xlink:href="#DejaVuSans-53"/>
     </g>
    </g>
   </g>
  </g>
 </g>
 <defs>
  <clipPath id="p35aab2380d">
   <rect height="266.112" width="357.12" x="61.909375" y="22.318125"/>
  </clipPath>
 </defs>
</svg>
