<?xml version="1.0" encoding="utf-8" standalone="no"?>
<!DOCTYPE svg PUBLIC "-//W3C//DTD SVG 1.1//EN"
  "http://www.w3.org/Graphics/SVG/1.1/DTD/svg11.dtd">
<!-- Created with matplotlib (https://matplotlib.org/) -->
<svg height="371.002375pt" version="1.1" viewBox="0 0 423.05125 371.002375" width="423.05125pt" xmlns="http://www.w3.org/2000/svg" xmlns:xlink="http://www.w3.org/1999/xlink">
 <metadata>
  <rdf:RDF xmlns:cc="http://creativecommons.org/ns#" xmlns:dc="http://purl.org/dc/elements/1.1/" xmlns:rdf="http://www.w3.org/1999/02/22-rdf-syntax-ns#">
   <cc:Work>
    <dc:type rdf:resource="http://purl.org/dc/dcmitype/StillImage"/>
    <dc:date>2023-07-02T20:18:21.696832</dc:date>
    <dc:format>image/svg+xml</dc:format>
    <dc:creator>
     <cc:Agent>
      <dc:title>Matplotlib v3.3.4, https://matplotlib.org/</dc:title>
     </cc:Agent>
    </dc:creator>
   </cc:Work>
  </rdf:RDF>
 </metadata>
 <defs>
  <style type="text/css">*{stroke-linecap:butt;stroke-linejoin:round;}</style>
 </defs>
 <g id="figure_1">
  <g id="patch_1">
   <path d="M 0 371.002375 
L 423.05125 371.002375 
L 423.05125 0 
L 0 0 
z
" style="fill:#ffffff;"/>
  </g>
  <g id="axes_1">
   <g id="patch_2">
    <path d="M 58.73125 288.430125 
L 415.85125 288.430125 
L 415.85125 22.318125 
L 58.73125 22.318125 
z
" style="fill:#ffffff;"/>
   </g>
   <g id="matplotlib.axis_1">
    <g id="xtick_1">
     <g id="line2d_1">
      <defs>
       <path d="M 0 0 
L 0 3.5 
" id="m1aeb460268" style="stroke:#000000;stroke-width:0.8;"/>
      </defs>
      <g>
       <use style="stroke:#000000;stroke-width:0.8;" x="58.73125" xlink:href="#m1aeb460268" y="288.430125"/>
      </g>
     </g>
     <g id="text_1">
      <!-- 0 -->
      <g transform="translate(55.55 303.028562)scale(0.1 -0.1)">
       <defs>
        <path d="M 31.78125 66.40625 
Q 24.171875 66.40625 20.328125 58.90625 
Q 16.5 51.421875 16.5 36.375 
Q 16.5 21.390625 20.328125 13.890625 
Q 24.171875 6.390625 31.78125 6.390625 
Q 39.453125 6.390625 43.28125 13.890625 
Q 47.125 21.390625 47.125 36.375 
Q 47.125 51.421875 43.28125 58.90625 
Q 39.453125 66.40625 31.78125 66.40625 
z
M 31.78125 74.21875 
Q 44.046875 74.21875 50.515625 64.515625 
Q 56.984375 54.828125 56.984375 36.375 
Q 56.984375 17.96875 50.515625 8.265625 
Q 44.046875 -1.421875 31.78125 -1.421875 
Q 19.53125 -1.421875 13.0625 8.265625 
Q 6.59375 17.96875 6.59375 36.375 
Q 6.59375 54.828125 13.0625 64.515625 
Q 19.53125 74.21875 31.78125 74.21875 
z
" id="DejaVuSans-48"/>
       </defs>
       <use xlink:href="#DejaVuSans-48"/>
      </g>
     </g>
    </g>
    <g id="xtick_2">
     <g id="line2d_2">
      <g>
       <use style="stroke:#000000;stroke-width:0.8;" x="102.279814" xlink:href="#m1aeb460268" y="288.430125"/>
      </g>
     </g>
     <g id="text_2">
      <!-- 500  -->
      <g transform="translate(91.147002 303.028562)scale(0.1 -0.1)">
       <defs>
        <path d="M 10.796875 72.90625 
L 49.515625 72.90625 
L 49.515625 64.59375 
L 19.828125 64.59375 
L 19.828125 46.734375 
Q 21.96875 47.46875 24.109375 47.828125 
Q 26.265625 48.1875 28.421875 48.1875 
Q 40.625 48.1875 47.75 41.5 
Q 54.890625 34.8125 54.890625 23.390625 
Q 54.890625 11.625 47.5625 5.09375 
Q 40.234375 -1.421875 26.90625 -1.421875 
Q 22.3125 -1.421875 17.546875 -0.640625 
Q 12.796875 0.140625 7.71875 1.703125 
L 7.71875 11.625 
Q 12.109375 9.234375 16.796875 8.0625 
Q 21.484375 6.890625 26.703125 6.890625 
Q 35.15625 6.890625 40.078125 11.328125 
Q 45.015625 15.765625 45.015625 23.390625 
Q 45.015625 31 40.078125 35.4375 
Q 35.15625 39.890625 26.703125 39.890625 
Q 22.75 39.890625 18.8125 39.015625 
Q 14.890625 38.140625 10.796875 36.28125 
z
" id="DejaVuSans-53"/>
        <path id="DejaVuSans-32"/>
       </defs>
       <use xlink:href="#DejaVuSans-53"/>
       <use x="63.623047" xlink:href="#DejaVuSans-48"/>
       <use x="127.246094" xlink:href="#DejaVuSans-48"/>
       <use x="190.869141" xlink:href="#DejaVuSans-32"/>
      </g>
     </g>
    </g>
    <g id="xtick_3">
     <g id="line2d_3">
      <g>
       <use style="stroke:#000000;stroke-width:0.8;" x="145.828378" xlink:href="#m1aeb460268" y="288.430125"/>
      </g>
     </g>
     <g id="text_3">
      <!-- 1 k -->
      <g transform="translate(138.162753 303.028562)scale(0.1 -0.1)">
       <defs>
        <path d="M 12.40625 8.296875 
L 28.515625 8.296875 
L 28.515625 63.921875 
L 10.984375 60.40625 
L 10.984375 69.390625 
L 28.421875 72.90625 
L 38.28125 72.90625 
L 38.28125 8.296875 
L 54.390625 8.296875 
L 54.390625 0 
L 12.40625 0 
z
" id="DejaVuSans-49"/>
        <path d="M 9.078125 75.984375 
L 18.109375 75.984375 
L 18.109375 31.109375 
L 44.921875 54.6875 
L 56.390625 54.6875 
L 27.390625 29.109375 
L 57.625 0 
L 45.90625 0 
L 18.109375 26.703125 
L 18.109375 0 
L 9.078125 0 
z
" id="DejaVuSans-107"/>
       </defs>
       <use xlink:href="#DejaVuSans-49"/>
       <use x="63.623047" xlink:href="#DejaVuSans-32"/>
       <use x="95.410156" xlink:href="#DejaVuSans-107"/>
      </g>
     </g>
    </g>
    <g id="xtick_4">
     <g id="line2d_4">
      <g>
       <use style="stroke:#000000;stroke-width:0.8;" x="189.376942" xlink:href="#m1aeb460268" y="288.430125"/>
      </g>
     </g>
     <g id="text_4">
      <!-- 1.5 k -->
      <g transform="translate(176.941005 303.028562)scale(0.1 -0.1)">
       <defs>
        <path d="M 10.6875 12.40625 
L 21 12.40625 
L 21 0 
L 10.6875 0 
z
" id="DejaVuSans-46"/>
       </defs>
       <use xlink:href="#DejaVuSans-49"/>
       <use x="63.623047" xlink:href="#DejaVuSans-46"/>
       <use x="95.410156" xlink:href="#DejaVuSans-53"/>
       <use x="159.033203" xlink:href="#DejaVuSans-32"/>
       <use x="190.820312" xlink:href="#DejaVuSans-107"/>
      </g>
     </g>
    </g>
    <g id="xtick_5">
     <g id="line2d_5">
      <g>
       <use style="stroke:#000000;stroke-width:0.8;" x="232.925506" xlink:href="#m1aeb460268" y="288.430125"/>
      </g>
     </g>
     <g id="text_5">
      <!-- 2 k -->
      <g transform="translate(225.259881 303.028562)scale(0.1 -0.1)">
       <defs>
        <path d="M 19.1875 8.296875 
L 53.609375 8.296875 
L 53.609375 0 
L 7.328125 0 
L 7.328125 8.296875 
Q 12.9375 14.109375 22.625 23.890625 
Q 32.328125 33.6875 34.8125 36.53125 
Q 39.546875 41.84375 41.421875 45.53125 
Q 43.3125 49.21875 43.3125 52.78125 
Q 43.3125 58.59375 39.234375 62.25 
Q 35.15625 65.921875 28.609375 65.921875 
Q 23.96875 65.921875 18.8125 64.3125 
Q 13.671875 62.703125 7.8125 59.421875 
L 7.8125 69.390625 
Q 13.765625 71.78125 18.9375 73 
Q 24.125 74.21875 28.421875 74.21875 
Q 39.75 74.21875 46.484375 68.546875 
Q 53.21875 62.890625 53.21875 53.421875 
Q 53.21875 48.921875 51.53125 44.890625 
Q 49.859375 40.875 45.40625 35.40625 
Q 44.1875 33.984375 37.640625 27.21875 
Q 31.109375 20.453125 19.1875 8.296875 
z
" id="DejaVuSans-50"/>
       </defs>
       <use xlink:href="#DejaVuSans-50"/>
       <use x="63.623047" xlink:href="#DejaVuSans-32"/>
       <use x="95.410156" xlink:href="#DejaVuSans-107"/>
      </g>
     </g>
    </g>
    <g id="xtick_6">
     <g id="line2d_6">
      <g>
       <use style="stroke:#000000;stroke-width:0.8;" x="276.474071" xlink:href="#m1aeb460268" y="288.430125"/>
      </g>
     </g>
     <g id="text_6">
      <!-- 2.5 k -->
      <g transform="translate(264.038133 303.028562)scale(0.1 -0.1)">
       <use xlink:href="#DejaVuSans-50"/>
       <use x="63.623047" xlink:href="#DejaVuSans-46"/>
       <use x="95.410156" xlink:href="#DejaVuSans-53"/>
       <use x="159.033203" xlink:href="#DejaVuSans-32"/>
       <use x="190.820312" xlink:href="#DejaVuSans-107"/>
      </g>
     </g>
    </g>
    <g id="xtick_7">
     <g id="line2d_7">
      <g>
       <use style="stroke:#000000;stroke-width:0.8;" x="320.022635" xlink:href="#m1aeb460268" y="288.430125"/>
      </g>
     </g>
     <g id="text_7">
      <!-- 3 k -->
      <g transform="translate(312.35701 303.028562)scale(0.1 -0.1)">
       <defs>
        <path d="M 40.578125 39.3125 
Q 47.65625 37.796875 51.625 33 
Q 55.609375 28.21875 55.609375 21.1875 
Q 55.609375 10.40625 48.1875 4.484375 
Q 40.765625 -1.421875 27.09375 -1.421875 
Q 22.515625 -1.421875 17.65625 -0.515625 
Q 12.796875 0.390625 7.625 2.203125 
L 7.625 11.71875 
Q 11.71875 9.328125 16.59375 8.109375 
Q 21.484375 6.890625 26.8125 6.890625 
Q 36.078125 6.890625 40.9375 10.546875 
Q 45.796875 14.203125 45.796875 21.1875 
Q 45.796875 27.640625 41.28125 31.265625 
Q 36.765625 34.90625 28.71875 34.90625 
L 20.21875 34.90625 
L 20.21875 43.015625 
L 29.109375 43.015625 
Q 36.375 43.015625 40.234375 45.921875 
Q 44.09375 48.828125 44.09375 54.296875 
Q 44.09375 59.90625 40.109375 62.90625 
Q 36.140625 65.921875 28.71875 65.921875 
Q 24.65625 65.921875 20.015625 65.03125 
Q 15.375 64.15625 9.8125 62.3125 
L 9.8125 71.09375 
Q 15.4375 72.65625 20.34375 73.4375 
Q 25.25 74.21875 29.59375 74.21875 
Q 40.828125 74.21875 47.359375 69.109375 
Q 53.90625 64.015625 53.90625 55.328125 
Q 53.90625 49.265625 50.4375 45.09375 
Q 46.96875 40.921875 40.578125 39.3125 
z
" id="DejaVuSans-51"/>
       </defs>
       <use xlink:href="#DejaVuSans-51"/>
       <use x="63.623047" xlink:href="#DejaVuSans-32"/>
       <use x="95.410156" xlink:href="#DejaVuSans-107"/>
      </g>
     </g>
    </g>
    <g id="xtick_8">
     <g id="line2d_8">
      <g>
       <use style="stroke:#000000;stroke-width:0.8;" x="363.571199" xlink:href="#m1aeb460268" y="288.430125"/>
      </g>
     </g>
     <g id="text_8">
      <!-- 3.5 k -->
      <g transform="translate(351.135261 303.028562)scale(0.1 -0.1)">
       <use xlink:href="#DejaVuSans-51"/>
       <use x="63.623047" xlink:href="#DejaVuSans-46"/>
       <use x="95.410156" xlink:href="#DejaVuSans-53"/>
       <use x="159.033203" xlink:href="#DejaVuSans-32"/>
       <use x="190.820312" xlink:href="#DejaVuSans-107"/>
      </g>
     </g>
    </g>
    <g id="xtick_9">
     <g id="line2d_9">
      <g>
       <use style="stroke:#000000;stroke-width:0.8;" x="407.119763" xlink:href="#m1aeb460268" y="288.430125"/>
      </g>
     </g>
     <g id="text_9">
      <!-- 4 k -->
      <g transform="translate(399.454138 303.028562)scale(0.1 -0.1)">
       <defs>
        <path d="M 37.796875 64.3125 
L 12.890625 25.390625 
L 37.796875 25.390625 
z
M 35.203125 72.90625 
L 47.609375 72.90625 
L 47.609375 25.390625 
L 58.015625 25.390625 
L 58.015625 17.1875 
L 47.609375 17.1875 
L 47.609375 0 
L 37.796875 0 
L 37.796875 17.1875 
L 4.890625 17.1875 
L 4.890625 26.703125 
z
" id="DejaVuSans-52"/>
       </defs>
       <use xlink:href="#DejaVuSans-52"/>
       <use x="63.623047" xlink:href="#DejaVuSans-32"/>
       <use x="95.410156" xlink:href="#DejaVuSans-107"/>
      </g>
     </g>
    </g>
    <g id="text_10">
     <!-- Amount of objects in table -->
     <g transform="translate(171.232656 316.706687)scale(0.1 -0.1)">
      <defs>
       <path d="M 34.1875 63.1875 
L 20.796875 26.90625 
L 47.609375 26.90625 
z
M 28.609375 72.90625 
L 39.796875 72.90625 
L 67.578125 0 
L 57.328125 0 
L 50.6875 18.703125 
L 17.828125 18.703125 
L 11.1875 0 
L 0.78125 0 
z
" id="DejaVuSans-65"/>
       <path d="M 52 44.1875 
Q 55.375 50.25 60.0625 53.125 
Q 64.75 56 71.09375 56 
Q 79.640625 56 84.28125 50.015625 
Q 88.921875 44.046875 88.921875 33.015625 
L 88.921875 0 
L 79.890625 0 
L 79.890625 32.71875 
Q 79.890625 40.578125 77.09375 44.375 
Q 74.3125 48.1875 68.609375 48.1875 
Q 61.625 48.1875 57.5625 43.546875 
Q 53.515625 38.921875 53.515625 30.90625 
L 53.515625 0 
L 44.484375 0 
L 44.484375 32.71875 
Q 44.484375 40.625 41.703125 44.40625 
Q 38.921875 48.1875 33.109375 48.1875 
Q 26.21875 48.1875 22.15625 43.53125 
Q 18.109375 38.875 18.109375 30.90625 
L 18.109375 0 
L 9.078125 0 
L 9.078125 54.6875 
L 18.109375 54.6875 
L 18.109375 46.1875 
Q 21.1875 51.21875 25.484375 53.609375 
Q 29.78125 56 35.6875 56 
Q 41.65625 56 45.828125 52.96875 
Q 50 49.953125 52 44.1875 
z
" id="DejaVuSans-109"/>
       <path d="M 30.609375 48.390625 
Q 23.390625 48.390625 19.1875 42.75 
Q 14.984375 37.109375 14.984375 27.296875 
Q 14.984375 17.484375 19.15625 11.84375 
Q 23.34375 6.203125 30.609375 6.203125 
Q 37.796875 6.203125 41.984375 11.859375 
Q 46.1875 17.53125 46.1875 27.296875 
Q 46.1875 37.015625 41.984375 42.703125 
Q 37.796875 48.390625 30.609375 48.390625 
z
M 30.609375 56 
Q 42.328125 56 49.015625 48.375 
Q 55.71875 40.765625 55.71875 27.296875 
Q 55.71875 13.875 49.015625 6.21875 
Q 42.328125 -1.421875 30.609375 -1.421875 
Q 18.84375 -1.421875 12.171875 6.21875 
Q 5.515625 13.875 5.515625 27.296875 
Q 5.515625 40.765625 12.171875 48.375 
Q 18.84375 56 30.609375 56 
z
" id="DejaVuSans-111"/>
       <path d="M 8.5 21.578125 
L 8.5 54.6875 
L 17.484375 54.6875 
L 17.484375 21.921875 
Q 17.484375 14.15625 20.5 10.265625 
Q 23.53125 6.390625 29.59375 6.390625 
Q 36.859375 6.390625 41.078125 11.03125 
Q 45.3125 15.671875 45.3125 23.6875 
L 45.3125 54.6875 
L 54.296875 54.6875 
L 54.296875 0 
L 45.3125 0 
L 45.3125 8.40625 
Q 42.046875 3.421875 37.71875 1 
Q 33.40625 -1.421875 27.6875 -1.421875 
Q 18.265625 -1.421875 13.375 4.4375 
Q 8.5 10.296875 8.5 21.578125 
z
M 31.109375 56 
z
" id="DejaVuSans-117"/>
       <path d="M 54.890625 33.015625 
L 54.890625 0 
L 45.90625 0 
L 45.90625 32.71875 
Q 45.90625 40.484375 42.875 44.328125 
Q 39.84375 48.1875 33.796875 48.1875 
Q 26.515625 48.1875 22.3125 43.546875 
Q 18.109375 38.921875 18.109375 30.90625 
L 18.109375 0 
L 9.078125 0 
L 9.078125 54.6875 
L 18.109375 54.6875 
L 18.109375 46.1875 
Q 21.34375 51.125 25.703125 53.5625 
Q 30.078125 56 35.796875 56 
Q 45.21875 56 50.046875 50.171875 
Q 54.890625 44.34375 54.890625 33.015625 
z
" id="DejaVuSans-110"/>
       <path d="M 18.3125 70.21875 
L 18.3125 54.6875 
L 36.8125 54.6875 
L 36.8125 47.703125 
L 18.3125 47.703125 
L 18.3125 18.015625 
Q 18.3125 11.328125 20.140625 9.421875 
Q 21.96875 7.515625 27.59375 7.515625 
L 36.8125 7.515625 
L 36.8125 0 
L 27.59375 0 
Q 17.1875 0 13.234375 3.875 
Q 9.28125 7.765625 9.28125 18.015625 
L 9.28125 47.703125 
L 2.6875 47.703125 
L 2.6875 54.6875 
L 9.28125 54.6875 
L 9.28125 70.21875 
z
" id="DejaVuSans-116"/>
       <path d="M 37.109375 75.984375 
L 37.109375 68.5 
L 28.515625 68.5 
Q 23.6875 68.5 21.796875 66.546875 
Q 19.921875 64.59375 19.921875 59.515625 
L 19.921875 54.6875 
L 34.71875 54.6875 
L 34.71875 47.703125 
L 19.921875 47.703125 
L 19.921875 0 
L 10.890625 0 
L 10.890625 47.703125 
L 2.296875 47.703125 
L 2.296875 54.6875 
L 10.890625 54.6875 
L 10.890625 58.5 
Q 10.890625 67.625 15.140625 71.796875 
Q 19.390625 75.984375 28.609375 75.984375 
z
" id="DejaVuSans-102"/>
       <path d="M 48.6875 27.296875 
Q 48.6875 37.203125 44.609375 42.84375 
Q 40.53125 48.484375 33.40625 48.484375 
Q 26.265625 48.484375 22.1875 42.84375 
Q 18.109375 37.203125 18.109375 27.296875 
Q 18.109375 17.390625 22.1875 11.75 
Q 26.265625 6.109375 33.40625 6.109375 
Q 40.53125 6.109375 44.609375 11.75 
Q 48.6875 17.390625 48.6875 27.296875 
z
M 18.109375 46.390625 
Q 20.953125 51.265625 25.265625 53.625 
Q 29.59375 56 35.59375 56 
Q 45.5625 56 51.78125 48.09375 
Q 58.015625 40.1875 58.015625 27.296875 
Q 58.015625 14.40625 51.78125 6.484375 
Q 45.5625 -1.421875 35.59375 -1.421875 
Q 29.59375 -1.421875 25.265625 0.953125 
Q 20.953125 3.328125 18.109375 8.203125 
L 18.109375 0 
L 9.078125 0 
L 9.078125 75.984375 
L 18.109375 75.984375 
z
" id="DejaVuSans-98"/>
       <path d="M 9.421875 54.6875 
L 18.40625 54.6875 
L 18.40625 -0.984375 
Q 18.40625 -11.421875 14.421875 -16.109375 
Q 10.453125 -20.796875 1.609375 -20.796875 
L -1.8125 -20.796875 
L -1.8125 -13.1875 
L 0.59375 -13.1875 
Q 5.71875 -13.1875 7.5625 -10.8125 
Q 9.421875 -8.453125 9.421875 -0.984375 
z
M 9.421875 75.984375 
L 18.40625 75.984375 
L 18.40625 64.59375 
L 9.421875 64.59375 
z
" id="DejaVuSans-106"/>
       <path d="M 56.203125 29.59375 
L 56.203125 25.203125 
L 14.890625 25.203125 
Q 15.484375 15.921875 20.484375 11.0625 
Q 25.484375 6.203125 34.421875 6.203125 
Q 39.59375 6.203125 44.453125 7.46875 
Q 49.3125 8.734375 54.109375 11.28125 
L 54.109375 2.78125 
Q 49.265625 0.734375 44.1875 -0.34375 
Q 39.109375 -1.421875 33.890625 -1.421875 
Q 20.796875 -1.421875 13.15625 6.1875 
Q 5.515625 13.8125 5.515625 26.8125 
Q 5.515625 40.234375 12.765625 48.109375 
Q 20.015625 56 32.328125 56 
Q 43.359375 56 49.78125 48.890625 
Q 56.203125 41.796875 56.203125 29.59375 
z
M 47.21875 32.234375 
Q 47.125 39.59375 43.09375 43.984375 
Q 39.0625 48.390625 32.421875 48.390625 
Q 24.90625 48.390625 20.390625 44.140625 
Q 15.875 39.890625 15.1875 32.171875 
z
" id="DejaVuSans-101"/>
       <path d="M 48.78125 52.59375 
L 48.78125 44.1875 
Q 44.96875 46.296875 41.140625 47.34375 
Q 37.3125 48.390625 33.40625 48.390625 
Q 24.65625 48.390625 19.8125 42.84375 
Q 14.984375 37.3125 14.984375 27.296875 
Q 14.984375 17.28125 19.8125 11.734375 
Q 24.65625 6.203125 33.40625 6.203125 
Q 37.3125 6.203125 41.140625 7.25 
Q 44.96875 8.296875 48.78125 10.40625 
L 48.78125 2.09375 
Q 45.015625 0.34375 40.984375 -0.53125 
Q 36.96875 -1.421875 32.421875 -1.421875 
Q 20.0625 -1.421875 12.78125 6.34375 
Q 5.515625 14.109375 5.515625 27.296875 
Q 5.515625 40.671875 12.859375 48.328125 
Q 20.21875 56 33.015625 56 
Q 37.15625 56 41.109375 55.140625 
Q 45.0625 54.296875 48.78125 52.59375 
z
" id="DejaVuSans-99"/>
       <path d="M 44.28125 53.078125 
L 44.28125 44.578125 
Q 40.484375 46.53125 36.375 47.5 
Q 32.28125 48.484375 27.875 48.484375 
Q 21.1875 48.484375 17.84375 46.4375 
Q 14.5 44.390625 14.5 40.28125 
Q 14.5 37.15625 16.890625 35.375 
Q 19.28125 33.59375 26.515625 31.984375 
L 29.59375 31.296875 
Q 39.15625 29.25 43.1875 25.515625 
Q 47.21875 21.78125 47.21875 15.09375 
Q 47.21875 7.46875 41.1875 3.015625 
Q 35.15625 -1.421875 24.609375 -1.421875 
Q 20.21875 -1.421875 15.453125 -0.5625 
Q 10.6875 0.296875 5.421875 2 
L 5.421875 11.28125 
Q 10.40625 8.6875 15.234375 7.390625 
Q 20.0625 6.109375 24.8125 6.109375 
Q 31.15625 6.109375 34.5625 8.28125 
Q 37.984375 10.453125 37.984375 14.40625 
Q 37.984375 18.0625 35.515625 20.015625 
Q 33.0625 21.96875 24.703125 23.78125 
L 21.578125 24.515625 
Q 13.234375 26.265625 9.515625 29.90625 
Q 5.8125 33.546875 5.8125 39.890625 
Q 5.8125 47.609375 11.28125 51.796875 
Q 16.75 56 26.8125 56 
Q 31.78125 56 36.171875 55.265625 
Q 40.578125 54.546875 44.28125 53.078125 
z
" id="DejaVuSans-115"/>
       <path d="M 9.421875 54.6875 
L 18.40625 54.6875 
L 18.40625 0 
L 9.421875 0 
z
M 9.421875 75.984375 
L 18.40625 75.984375 
L 18.40625 64.59375 
L 9.421875 64.59375 
z
" id="DejaVuSans-105"/>
       <path d="M 34.28125 27.484375 
Q 23.390625 27.484375 19.1875 25 
Q 14.984375 22.515625 14.984375 16.5 
Q 14.984375 11.71875 18.140625 8.90625 
Q 21.296875 6.109375 26.703125 6.109375 
Q 34.1875 6.109375 38.703125 11.40625 
Q 43.21875 16.703125 43.21875 25.484375 
L 43.21875 27.484375 
z
M 52.203125 31.203125 
L 52.203125 0 
L 43.21875 0 
L 43.21875 8.296875 
Q 40.140625 3.328125 35.546875 0.953125 
Q 30.953125 -1.421875 24.3125 -1.421875 
Q 15.921875 -1.421875 10.953125 3.296875 
Q 6 8.015625 6 15.921875 
Q 6 25.140625 12.171875 29.828125 
Q 18.359375 34.515625 30.609375 34.515625 
L 43.21875 34.515625 
L 43.21875 35.40625 
Q 43.21875 41.609375 39.140625 45 
Q 35.0625 48.390625 27.6875 48.390625 
Q 23 48.390625 18.546875 47.265625 
Q 14.109375 46.140625 10.015625 43.890625 
L 10.015625 52.203125 
Q 14.9375 54.109375 19.578125 55.046875 
Q 24.21875 56 28.609375 56 
Q 40.484375 56 46.34375 49.84375 
Q 52.203125 43.703125 52.203125 31.203125 
z
" id="DejaVuSans-97"/>
       <path d="M 9.421875 75.984375 
L 18.40625 75.984375 
L 18.40625 0 
L 9.421875 0 
z
" id="DejaVuSans-108"/>
      </defs>
      <use xlink:href="#DejaVuSans-65"/>
      <use x="68.408203" xlink:href="#DejaVuSans-109"/>
      <use x="165.820312" xlink:href="#DejaVuSans-111"/>
      <use x="227.001953" xlink:href="#DejaVuSans-117"/>
      <use x="290.380859" xlink:href="#DejaVuSans-110"/>
      <use x="353.759766" xlink:href="#DejaVuSans-116"/>
      <use x="392.96875" xlink:href="#DejaVuSans-32"/>
      <use x="424.755859" xlink:href="#DejaVuSans-111"/>
      <use x="485.9375" xlink:href="#DejaVuSans-102"/>
      <use x="521.142578" xlink:href="#DejaVuSans-32"/>
      <use x="552.929688" xlink:href="#DejaVuSans-111"/>
      <use x="614.111328" xlink:href="#DejaVuSans-98"/>
      <use x="677.587891" xlink:href="#DejaVuSans-106"/>
      <use x="705.371094" xlink:href="#DejaVuSans-101"/>
      <use x="766.894531" xlink:href="#DejaVuSans-99"/>
      <use x="821.875" xlink:href="#DejaVuSans-116"/>
      <use x="861.083984" xlink:href="#DejaVuSans-115"/>
      <use x="913.183594" xlink:href="#DejaVuSans-32"/>
      <use x="944.970703" xlink:href="#DejaVuSans-105"/>
      <use x="972.753906" xlink:href="#DejaVuSans-110"/>
      <use x="1036.132812" xlink:href="#DejaVuSans-32"/>
      <use x="1067.919922" xlink:href="#DejaVuSans-116"/>
      <use x="1107.128906" xlink:href="#DejaVuSans-97"/>
      <use x="1168.408203" xlink:href="#DejaVuSans-98"/>
      <use x="1231.884766" xlink:href="#DejaVuSans-108"/>
      <use x="1259.667969" xlink:href="#DejaVuSans-101"/>
     </g>
    </g>
   </g>
   <g id="matplotlib.axis_2">
    <g id="ytick_1">
     <g id="line2d_10">
      <defs>
       <path d="M 0 0 
L -3.5 0 
" id="mfafe5934c0" style="stroke:#000000;stroke-width:0.8;"/>
      </defs>
      <g>
       <use style="stroke:#000000;stroke-width:0.8;" x="58.73125" xlink:href="#mfafe5934c0" y="288.430125"/>
      </g>
     </g>
     <g id="text_11">
      <!-- 0 -->
      <g transform="translate(45.36875 292.229344)scale(0.1 -0.1)">
       <use xlink:href="#DejaVuSans-48"/>
      </g>
     </g>
    </g>
    <g id="ytick_2">
     <g id="line2d_11">
      <g>
       <use style="stroke:#000000;stroke-width:0.8;" x="58.73125" xlink:href="#mfafe5934c0" y="251.997666"/>
      </g>
     </g>
     <g id="text_12">
      <!-- 5 ms -->
      <g transform="translate(27.240625 255.796884)scale(0.1 -0.1)">
       <use xlink:href="#DejaVuSans-53"/>
       <use x="63.623047" xlink:href="#DejaVuSans-32"/>
       <use x="95.410156" xlink:href="#DejaVuSans-109"/>
       <use x="192.822266" xlink:href="#DejaVuSans-115"/>
      </g>
     </g>
    </g>
    <g id="ytick_3">
     <g id="line2d_12">
      <g>
       <use style="stroke:#000000;stroke-width:0.8;" x="58.73125" xlink:href="#mfafe5934c0" y="215.565206"/>
      </g>
     </g>
     <g id="text_13">
      <!-- 10 ms -->
      <g transform="translate(20.878125 219.364425)scale(0.1 -0.1)">
       <use xlink:href="#DejaVuSans-49"/>
       <use x="63.623047" xlink:href="#DejaVuSans-48"/>
       <use x="127.246094" xlink:href="#DejaVuSans-32"/>
       <use x="159.033203" xlink:href="#DejaVuSans-109"/>
       <use x="256.445312" xlink:href="#DejaVuSans-115"/>
      </g>
     </g>
    </g>
    <g id="ytick_4">
     <g id="line2d_13">
      <g>
       <use style="stroke:#000000;stroke-width:0.8;" x="58.73125" xlink:href="#mfafe5934c0" y="179.132747"/>
      </g>
     </g>
     <g id="text_14">
      <!-- 15 ms -->
      <g transform="translate(20.878125 182.931965)scale(0.1 -0.1)">
       <use xlink:href="#DejaVuSans-49"/>
       <use x="63.623047" xlink:href="#DejaVuSans-53"/>
       <use x="127.246094" xlink:href="#DejaVuSans-32"/>
       <use x="159.033203" xlink:href="#DejaVuSans-109"/>
       <use x="256.445312" xlink:href="#DejaVuSans-115"/>
      </g>
     </g>
    </g>
    <g id="ytick_5">
     <g id="line2d_14">
      <g>
       <use style="stroke:#000000;stroke-width:0.8;" x="58.73125" xlink:href="#mfafe5934c0" y="142.700287"/>
      </g>
     </g>
     <g id="text_15">
      <!-- 20 ms -->
      <g transform="translate(20.878125 146.499506)scale(0.1 -0.1)">
       <use xlink:href="#DejaVuSans-50"/>
       <use x="63.623047" xlink:href="#DejaVuSans-48"/>
       <use x="127.246094" xlink:href="#DejaVuSans-32"/>
       <use x="159.033203" xlink:href="#DejaVuSans-109"/>
       <use x="256.445312" xlink:href="#DejaVuSans-115"/>
      </g>
     </g>
    </g>
    <g id="ytick_6">
     <g id="line2d_15">
      <g>
       <use style="stroke:#000000;stroke-width:0.8;" x="58.73125" xlink:href="#mfafe5934c0" y="106.267828"/>
      </g>
     </g>
     <g id="text_16">
      <!-- 25 ms -->
      <g transform="translate(20.878125 110.067046)scale(0.1 -0.1)">
       <use xlink:href="#DejaVuSans-50"/>
       <use x="63.623047" xlink:href="#DejaVuSans-53"/>
       <use x="127.246094" xlink:href="#DejaVuSans-32"/>
       <use x="159.033203" xlink:href="#DejaVuSans-109"/>
       <use x="256.445312" xlink:href="#DejaVuSans-115"/>
      </g>
     </g>
    </g>
    <g id="ytick_7">
     <g id="line2d_16">
      <g>
       <use style="stroke:#000000;stroke-width:0.8;" x="58.73125" xlink:href="#mfafe5934c0" y="69.835368"/>
      </g>
     </g>
     <g id="text_17">
      <!-- 30 ms -->
      <g transform="translate(20.878125 73.634587)scale(0.1 -0.1)">
       <use xlink:href="#DejaVuSans-51"/>
       <use x="63.623047" xlink:href="#DejaVuSans-48"/>
       <use x="127.246094" xlink:href="#DejaVuSans-32"/>
       <use x="159.033203" xlink:href="#DejaVuSans-109"/>
       <use x="256.445312" xlink:href="#DejaVuSans-115"/>
      </g>
     </g>
    </g>
    <g id="ytick_8">
     <g id="line2d_17">
      <g>
       <use style="stroke:#000000;stroke-width:0.8;" x="58.73125" xlink:href="#mfafe5934c0" y="33.402909"/>
      </g>
     </g>
     <g id="text_18">
      <!-- 35 ms -->
      <g transform="translate(20.878125 37.202127)scale(0.1 -0.1)">
       <use xlink:href="#DejaVuSans-51"/>
       <use x="63.623047" xlink:href="#DejaVuSans-53"/>
       <use x="127.246094" xlink:href="#DejaVuSans-32"/>
       <use x="159.033203" xlink:href="#DejaVuSans-109"/>
       <use x="256.445312" xlink:href="#DejaVuSans-115"/>
      </g>
     </g>
    </g>
    <g id="text_19">
     <!-- Write latency (s) -->
     <g transform="translate(14.798437 196.625687)rotate(-90)scale(0.1 -0.1)">
      <defs>
       <path d="M 3.328125 72.90625 
L 13.28125 72.90625 
L 28.609375 11.28125 
L 43.890625 72.90625 
L 54.984375 72.90625 
L 70.3125 11.28125 
L 85.59375 72.90625 
L 95.609375 72.90625 
L 77.296875 0 
L 64.890625 0 
L 49.515625 63.28125 
L 33.984375 0 
L 21.578125 0 
z
" id="DejaVuSans-87"/>
       <path d="M 41.109375 46.296875 
Q 39.59375 47.171875 37.8125 47.578125 
Q 36.03125 48 33.890625 48 
Q 26.265625 48 22.1875 43.046875 
Q 18.109375 38.09375 18.109375 28.8125 
L 18.109375 0 
L 9.078125 0 
L 9.078125 54.6875 
L 18.109375 54.6875 
L 18.109375 46.1875 
Q 20.953125 51.171875 25.484375 53.578125 
Q 30.03125 56 36.53125 56 
Q 37.453125 56 38.578125 55.875 
Q 39.703125 55.765625 41.0625 55.515625 
z
" id="DejaVuSans-114"/>
       <path d="M 32.171875 -5.078125 
Q 28.375 -14.84375 24.75 -17.8125 
Q 21.140625 -20.796875 15.09375 -20.796875 
L 7.90625 -20.796875 
L 7.90625 -13.28125 
L 13.1875 -13.28125 
Q 16.890625 -13.28125 18.9375 -11.515625 
Q 21 -9.765625 23.484375 -3.21875 
L 25.09375 0.875 
L 2.984375 54.6875 
L 12.5 54.6875 
L 29.59375 11.921875 
L 46.6875 54.6875 
L 56.203125 54.6875 
z
" id="DejaVuSans-121"/>
       <path d="M 31 75.875 
Q 24.46875 64.65625 21.28125 53.65625 
Q 18.109375 42.671875 18.109375 31.390625 
Q 18.109375 20.125 21.3125 9.0625 
Q 24.515625 -2 31 -13.1875 
L 23.1875 -13.1875 
Q 15.875 -1.703125 12.234375 9.375 
Q 8.59375 20.453125 8.59375 31.390625 
Q 8.59375 42.28125 12.203125 53.3125 
Q 15.828125 64.359375 23.1875 75.875 
z
" id="DejaVuSans-40"/>
       <path d="M 8.015625 75.875 
L 15.828125 75.875 
Q 23.140625 64.359375 26.78125 53.3125 
Q 30.421875 42.28125 30.421875 31.390625 
Q 30.421875 20.453125 26.78125 9.375 
Q 23.140625 -1.703125 15.828125 -13.1875 
L 8.015625 -13.1875 
Q 14.5 -2 17.703125 9.0625 
Q 20.90625 20.125 20.90625 31.390625 
Q 20.90625 42.671875 17.703125 53.65625 
Q 14.5 64.65625 8.015625 75.875 
z
" id="DejaVuSans-41"/>
      </defs>
      <use xlink:href="#DejaVuSans-87"/>
      <use x="94.376953" xlink:href="#DejaVuSans-114"/>
      <use x="135.490234" xlink:href="#DejaVuSans-105"/>
      <use x="163.273438" xlink:href="#DejaVuSans-116"/>
      <use x="202.482422" xlink:href="#DejaVuSans-101"/>
      <use x="264.005859" xlink:href="#DejaVuSans-32"/>
      <use x="295.792969" xlink:href="#DejaVuSans-108"/>
      <use x="323.576172" xlink:href="#DejaVuSans-97"/>
      <use x="384.855469" xlink:href="#DejaVuSans-116"/>
      <use x="424.064453" xlink:href="#DejaVuSans-101"/>
      <use x="485.587891" xlink:href="#DejaVuSans-110"/>
      <use x="548.966797" xlink:href="#DejaVuSans-99"/>
      <use x="603.947266" xlink:href="#DejaVuSans-121"/>
      <use x="663.126953" xlink:href="#DejaVuSans-32"/>
      <use x="694.914062" xlink:href="#DejaVuSans-40"/>
      <use x="733.927734" xlink:href="#DejaVuSans-115"/>
      <use x="786.027344" xlink:href="#DejaVuSans-41"/>
     </g>
    </g>
   </g>
   <g id="line2d_18">
    <path clip-path="url(#p7969417391)" d="M 144.086436 159.050249 
L 145.392893 155.45746 
L 145.828378 153.149556 
L 146.69935 150.860094 
L 147.570321 148.569822 
L 148.441292 145.540743 
L 149.312263 143.297197 
L 150.183235 139.979693 
L 151.054206 137.469095 
L 151.489692 136.195559 
L 151.925177 134.188161 
L 152.360663 133.123076 
L 152.796148 131.019463 
L 154.973577 124.87121 
L 155.844548 122.108142 
L 157.151005 119.144169 
L 158.021976 116.770144 
L 161.070376 108.504709 
L 161.941347 105.357891 
L 165.425232 95.156695 
L 169.344603 88.188013 
L 169.780088 87.144718 
L 170.215574 86.631477 
L 171.086545 84.904968 
L 171.522031 84.144451 
L 171.957517 82.836803 
L 172.393002 82.552271 
L 172.828488 82.12002 
L 173.263974 81.266209 
L 173.699459 79.766138 
L 174.570431 78.311529 
L 175.005916 77.375631 
L 175.441402 76.729914 
L 176.747859 74.280644 
L 177.183344 73.640861 
L 177.61883 72.529939 
L 178.054316 70.702787 
L 178.489801 69.659368 
L 179.360773 68.027471 
L 179.796258 67.250152 
L 180.231744 66.230057 
L 180.66723 64.767296 
L 181.102715 64.352266 
L 181.973686 63.00059 
L 183.715629 59.530815 
L 184.151115 58.095449 
L 185.022086 56.363978 
L 185.457572 55.620246 
L 185.893057 54.48894 
L 186.764028 53.236483 
L 188.941457 49.778387 
L 190.247914 45.222279 
L 190.683399 44.615788 
L 191.989856 41.850947 
L 194.167284 36.402257 
L 195.038256 34.990125 
L 196.344713 36.061981 
L 196.780198 36.18504 
L 198.522141 37.443511 
L 199.393112 37.924404 
L 203.312483 40.759483 
L 203.747968 41.548945 
L 205.054425 42.474713 
L 205.925397 43.37934 
L 206.796368 44.778126 
L 207.667339 45.836164 
L 208.102825 46.623497 
L 208.973796 46.816339 
L 210.715739 48.283786 
L 212.022196 49.639845 
L 212.893167 51.218929 
L 213.764138 53.757965 
L 215.070595 55.824509 
L 217.248023 60.11392 
L 217.683509 61.593305 
L 218.118995 62.598416 
L 218.55448 63.26775 
L 218.989966 64.891539 
L 219.860937 66.361686 
L 220.296423 66.815514 
L 220.731908 67.464571 
L 221.60288 69.358746 
L 222.038365 69.909904 
L 222.909337 72.141101 
L 223.780308 73.4939 
L 224.215794 74.538459 
L 224.651279 76.018138 
L 225.957736 77.992839 
L 226.393222 78.027673 
L 226.828707 78.363378 
L 227.699679 79.476866 
L 228.135164 80.207868 
L 229.006136 81.882821 
L 230.312593 83.798421 
L 230.748078 85.516706 
L 232.054535 86.993543 
L 232.490021 87.086632 
L 233.360992 88.806745 
L 234.231963 89.898156 
L 234.667449 91.277877 
L 235.102935 92.210647 
L 235.53842 92.741092 
L 236.409392 94.288781 
L 236.844877 95.759872 
L 237.280363 96.217388 
L 237.715849 97.927754 
L 238.151334 98.587895 
L 238.58682 99.040003 
L 239.022305 99.735574 
L 239.893277 101.40128 
L 242.506191 104.630105 
L 243.377162 106.29002 
L 243.812647 106.662394 
L 244.683619 107.899029 
L 245.990076 110.189703 
L 246.425561 111.504389 
L 246.861047 112.016018 
L 249.038475 116.344637 
L 249.473961 116.626051 
L 249.909446 117.344964 
L 250.344932 118.46083 
L 252.957846 120.102428 
L 254.264303 121.248157 
L 254.699789 121.871735 
L 255.135274 122.13804 
L 255.57076 122.907911 
L 256.441731 123.76729 
L 256.877217 124.658216 
L 257.312702 124.942819 
L 257.748188 124.873864 
L 258.183674 125.455482 
L 258.619159 126.481564 
L 259.054645 127.096964 
L 259.925616 127.770762 
L 261.232073 129.702442 
L 262.103044 130.198436 
L 262.53853 131.18327 
L 262.974016 132.662388 
L 263.409501 133.084581 
L 263.844987 133.151718 
L 264.715958 133.881303 
L 265.151444 133.319232 
L 265.58693 134.19038 
L 266.893386 134.669545 
L 267.328872 134.988991 
L 268.199843 135.259251 
L 268.635329 135.847363 
L 269.5063 136.471441 
L 269.941786 136.846514 
L 270.377272 137.025948 
L 270.812757 137.471179 
L 271.683729 137.610844 
L 272.119214 137.723265 
L 272.5547 136.984914 
L 272.990185 137.333662 
L 273.425671 137.232911 
L 273.861157 137.455731 
L 274.732128 139.132573 
L 275.167614 140.027267 
L 275.603099 140.03875 
L 276.474071 140.676636 
L 276.909556 140.432372 
L 278.216013 142.276158 
L 278.651499 142.466354 
L 279.086984 142.876493 
L 279.957956 143.28215 
L 282.135384 138.897797 
L 283.441841 136.578766 
L 285.619269 132.799122 
L 286.054755 131.120828 
L 287.361212 128.956474 
L 288.232183 128.181996 
L 289.103154 126.811051 
L 290.409611 124.47634 
L 291.280582 123.220631 
L 291.716068 121.830086 
L 292.587039 119.797281 
L 293.458011 118.672211 
L 293.893496 118.392338 
L 294.328982 117.664651 
L 294.764467 116.65725 
L 295.199953 116.145007 
L 296.070924 114.314879 
L 296.50641 113.09566 
L 296.941896 112.557465 
L 297.377381 111.665212 
L 299.119324 109.075413 
L 300.861266 106.177625 
L 301.732238 103.68602 
L 302.167723 103.104483 
L 302.603209 102.140558 
L 303.909666 100.346769 
L 304.345152 99.761 
L 304.780637 98.637633 
L 305.216123 98.33718 
L 305.651609 97.324372 
L 306.52258 96.205228 
L 307.393551 95.340878 
L 309.135494 93.197174 
L 309.570979 91.731634 
L 310.006465 91.36636 
L 310.877436 90.135836 
L 311.312922 90.159659 
L 311.748407 89.925185 
L 312.183893 89.447962 
L 312.619379 88.439769 
L 313.49035 87.569031 
L 314.361321 86.532695 
L 316.103264 84.770408 
L 316.53875 84.305765 
L 317.845206 83.981561 
L 318.280692 83.63145 
L 319.587149 82.263827 
L 320.022635 81.830552 
L 320.45812 80.866351 
L 321.764577 79.85022 
L 322.200063 79.642064 
L 322.635549 78.980676 
L 323.50652 78.508772 
L 323.942005 77.859197 
L 324.812977 77.181898 
L 325.248462 77.231432 
L 325.683948 76.407564 
L 326.554919 75.877128 
L 326.990405 75.71846 
L 328.296862 74.678462 
L 328.732347 74.556125 
L 329.603319 72.25575 
L 330.038804 71.928553 
L 330.47429 71.773387 
L 331.345261 71.229837 
L 331.780747 71.63374 
L 332.216233 71.424585 
L 332.651718 71.458012 
L 333.087204 71.018741 
L 333.52269 70.937117 
L 333.958175 71.017556 
L 334.393661 71.391658 
L 334.829146 71.36127 
L 335.264632 71.085664 
L 335.700118 71.15853 
L 336.135603 71.081468 
L 336.571089 71.417565 
L 337.006575 71.438189 
L 337.877546 71.764478 
L 338.313032 71.708343 
L 339.184003 71.831268 
L 339.619489 71.379284 
L 340.49046 71.496854 
L 341.361431 71.492364 
L 342.232402 71.718098 
L 342.667888 72.084548 
L 343.103374 71.999877 
L 343.538859 72.11662 
L 343.974345 71.798902 
L 344.409831 71.127883 
L 344.845316 71.389841 
L 345.280802 70.766289 
L 346.151773 70.816206 
L 346.587259 70.448633 
L 347.45823 70.442362 
L 347.893716 70.410878 
L 348.329201 70.780445 
L 348.764687 70.819796 
L 349.635658 71.370624 
L 350.071144 72.689034 
L 350.50663 73.118452 
L 350.942115 73.372534 
L 352.248572 74.502093 
L 353.555029 75.55181 
L 353.990515 76.566124 
L 354.426 76.823956 
L 355.296972 77.463321 
L 356.167943 78.251242 
L 356.603429 78.477617 
L 357.038914 78.559383 
L 357.4744 79.973786 
L 357.909885 80.086618 
L 358.345371 80.523768 
L 359.216342 81.198867 
L 359.651828 81.696482 
L 360.087314 81.982057 
L 360.522799 82.130381 
L 361.393771 82.656656 
L 361.829256 83.747791 
L 363.571199 85.031002 
L 364.006684 84.958885 
L 364.44217 84.463808 
L 364.877656 84.619919 
L 365.313141 84.592729 
L 366.184113 85.427742 
L 367.926055 86.404532 
L 368.797026 86.995779 
L 369.232512 86.766402 
L 369.667998 87.092788 
L 370.103483 87.17737 
L 370.538969 87.484486 
L 370.974455 88.779082 
L 371.40994 89.003658 
L 371.845426 88.821622 
L 373.151883 89.649134 
L 373.587369 89.623254 
L 374.022854 89.758242 
L 374.45834 90.180532 
L 374.893825 90.021526 
L 375.764797 90.610369 
L 376.200282 90.176354 
L 376.635768 91.316132 
L 377.506739 92.56646 
L 377.942225 92.428497 
L 379.684168 94.102674 
L 380.119653 93.390319 
L 380.990624 94.559986 
L 381.861596 95.016977 
L 382.732567 95.535786 
L 383.168053 95.092203 
L 383.603538 95.110921 
L 384.47451 95.802474 
L 384.909995 96.303012 
L 385.780966 96.971402 
L 386.651938 98.76626 
L 387.087423 99.14977 
L 387.522909 99.849715 
L 387.958395 100.076616 
L 388.39388 100.430068 
L 388.829366 100.381265 
L 389.264852 100.680817 
L 389.700337 101.542388 
L 390.135823 101.796407 
L 390.571309 102.532888 
L 391.44228 103.035751 
L 392.313251 103.000124 
L 393.184222 103.515139 
L 393.619708 103.94845 
L 394.055194 104.064728 
L 394.490679 105.13189 
L 394.926165 105.089804 
L 395.797136 105.907409 
L 397.103593 106.775082 
L 397.539079 107.703194 
L 398.41005 108.297729 
L 398.845536 106.745505 
L 398.845536 106.745505 
" style="fill:none;stroke:#1f77b4;stroke-linecap:square;stroke-opacity:0.8;stroke-width:1.5;"/>
   </g>
   <g id="line2d_19">
    <path clip-path="url(#p7969417391)" d="M 144.086436 226.009898 
L 144.957407 225.298246 
L 145.392893 224.549854 
L 149.747749 220.570758 
L 150.61872 219.642905 
L 154.102605 216.529592 
L 157.586491 213.300331 
L 158.457462 212.406145 
L 160.199404 210.827631 
L 160.63489 210.617256 
L 163.247804 208.260104 
L 163.68329 207.576471 
L 164.989746 206.31261 
L 165.860718 205.378076 
L 167.60266 203.756211 
L 168.473632 202.982696 
L 169.344603 202.021034 
L 173.263974 198.748626 
L 175.005916 197.524553 
L 175.441402 197.030528 
L 175.876887 196.749069 
L 176.312373 195.632285 
L 177.183344 195.261256 
L 177.61883 195.032315 
L 178.054316 194.63595 
L 178.925287 194.218247 
L 179.360773 193.229716 
L 180.231744 192.923357 
L 182.409172 192.393509 
L 183.715629 192.179446 
L 184.151115 191.994568 
L 185.457572 191.967352 
L 185.893057 191.768291 
L 186.328543 191.441887 
L 186.764028 190.749105 
L 187.199514 190.47676 
L 187.635 190.484849 
L 188.070485 190.631142 
L 188.505971 190.614616 
L 188.941457 190.088884 
L 189.812428 190.098327 
L 190.247914 190.280479 
L 191.554371 190.214045 
L 191.989856 191.093469 
L 192.425342 191.440934 
L 192.860827 191.282204 
L 193.296313 191.003792 
L 193.731799 190.966811 
L 194.167284 191.463215 
L 194.60277 191.440791 
L 195.038256 191.9009 
L 196.780198 191.789815 
L 197.215684 191.252413 
L 197.65117 191.340593 
L 198.086655 192.28874 
L 198.522141 192.294103 
L 198.957626 192.671734 
L 199.828598 192.637631 
L 200.264083 192.099685 
L 201.57054 192.199366 
L 202.006026 192.335245 
L 202.441512 192.773108 
L 203.312483 192.81449 
L 203.747968 192.488745 
L 206.360882 192.298086 
L 206.796368 192.402676 
L 207.231854 192.185059 
L 207.667339 191.437228 
L 208.102825 191.795241 
L 208.538311 191.988145 
L 208.973796 191.98059 
L 209.409282 191.771401 
L 209.844767 191.724059 
L 210.280253 191.888392 
L 211.151224 191.92319 
L 211.58671 191.027793 
L 212.022196 190.837249 
L 212.457681 189.584373 
L 213.764138 188.373431 
L 214.63511 187.772018 
L 215.070595 186.671805 
L 215.506081 186.362132 
L 215.941566 185.353119 
L 216.812538 184.724293 
L 217.248023 184.605894 
L 220.731908 182.70135 
L 221.60288 182.531003 
L 222.473851 182.226212 
L 222.909337 182.154584 
L 223.344822 182.253954 
L 226.393222 181.882943 
L 226.828707 181.866025 
L 227.264193 182.260876 
L 228.57065 182.104552 
L 229.006136 182.09436 
L 229.441621 181.683446 
L 229.877107 181.572272 
L 230.312593 181.918712 
L 232.925506 181.906035 
L 233.796478 181.936049 
L 234.231963 181.71248 
L 234.667449 181.680417 
L 235.102935 181.818558 
L 235.973906 181.830826 
L 236.409392 180.949665 
L 237.280363 180.640294 
L 239.022305 180.611296 
L 239.457791 180.125903 
L 241.199734 180.037251 
L 244.683619 179.853541 
L 245.119104 179.483278 
L 247.732018 179.411944 
L 248.167504 179.397298 
L 248.60299 179.655808 
L 249.038475 179.649625 
L 249.473961 178.873384 
L 249.909446 178.544209 
L 251.215903 178.602357 
L 252.52236 178.523059 
L 252.957846 178.325192 
L 253.393332 178.30635 
L 253.828817 178.464189 
L 255.135274 178.401007 
L 255.57076 177.432423 
L 256.441731 177.379335 
L 256.877217 176.983406 
L 259.925616 176.919457 
L 260.361102 176.212162 
L 260.796587 176.163315 
L 261.232073 177.020511 
L 262.103044 176.983414 
L 262.53853 176.750411 
L 262.974016 176.971245 
L 263.844987 176.91658 
L 264.280473 177.730443 
L 265.151444 177.708848 
L 265.58693 177.504665 
L 267.764358 177.434312 
L 269.5063 177.572827 
L 270.377272 175.781738 
L 270.812757 175.9282 
L 271.248243 176.226238 
L 271.683729 177.097021 
L 272.119214 177.327904 
L 272.990185 177.350452 
L 273.425671 177.353241 
L 273.861157 177.843444 
L 276.038585 177.741847 
L 276.909556 177.777892 
L 277.345042 177.724581 
L 277.780527 177.790632 
L 278.216013 178.07046 
L 279.52247 178.059324 
L 279.957956 178.540645 
L 281.264413 178.440972 
L 281.699898 177.889681 
L 282.135384 178.407261 
L 282.57087 178.245387 
L 284.748298 178.15056 
L 285.183783 178.642135 
L 286.925726 178.650795 
L 287.361212 179.136517 
L 288.232183 179.160027 
L 288.667669 179.457781 
L 289.103154 179.28354 
L 289.53864 179.254007 
L 289.974125 179.395721 
L 291.716068 179.314258 
L 292.151554 179.501675 
L 292.587039 180.434819 
L 293.458011 180.326211 
L 293.893496 180.284651 
L 294.328982 180.513592 
L 296.070924 180.477609 
L 296.50641 181.323803 
L 296.941896 181.391697 
L 297.377381 181.815048 
L 297.812867 181.815609 
L 298.248353 181.438327 
L 299.119324 181.412001 
L 299.55481 181.293601 
L 299.990295 182.128142 
L 300.425781 182.102057 
L 300.861266 182.940759 
L 302.603209 182.972457 
L 303.47418 182.958282 
L 303.909666 183.115988 
L 305.216123 183.103685 
L 305.651609 183.068735 
L 306.087094 183.194208 
L 306.958065 183.192284 
L 307.829037 183.170136 
L 309.570979 183.126242 
L 310.441951 183.109636 
L 310.877436 181.869767 
L 312.183893 181.749523 
L 313.054864 181.870524 
L 313.925836 181.841285 
L 314.361321 182.184402 
L 314.796807 182.24517 
L 315.667778 182.117781 
L 318.280692 182.071259 
L 318.716178 182.070618 
L 319.151663 182.248609 
L 319.587149 182.047936 
L 320.022635 182.043303 
L 320.45812 181.621431 
L 320.893606 181.588869 
L 321.329092 182.454778 
L 322.200063 182.708014 
L 323.50652 182.673429 
L 323.942005 180.953023 
L 324.377491 181.341024 
L 326.119434 181.364071 
L 326.554919 180.823737 
L 327.425891 180.895365 
L 328.732347 180.812637 
L 329.167833 179.731604 
L 329.603319 179.722633 
L 330.038804 180.020048 
L 330.909776 180.040823 
L 331.345261 179.765993 
L 331.780747 179.642426 
L 333.087204 179.675915 
L 333.958175 179.603637 
L 334.393661 180.120255 
L 334.829146 180.443078 
L 336.135603 180.530171 
L 336.571089 180.555811 
L 337.006575 180.249559 
L 337.44206 180.147864 
L 337.877546 180.27576 
L 338.313032 179.384977 
L 339.184003 178.73616 
L 340.054974 178.697843 
L 340.49046 179.629116 
L 341.361431 179.62476 
L 341.796917 180.035416 
L 342.667888 180.059247 
L 343.103374 179.779926 
L 343.974345 179.659612 
L 344.409831 179.642961 
L 344.845316 179.390126 
L 345.280802 180.166804 
L 346.151773 180.216952 
L 346.587259 180.241095 
L 347.022744 179.814742 
L 347.45823 180.026302 
L 348.329201 180.002141 
L 348.764687 179.755756 
L 349.200173 179.741974 
L 349.635658 179.520312 
L 350.071144 179.523421 
L 350.50663 179.209222 
L 350.942115 179.213775 
L 351.377601 178.969876 
L 354.426 178.93098 
L 355.296972 180.677729 
L 355.732457 180.654067 
L 356.167943 180.489511 
L 356.603429 180.484086 
L 357.038914 179.454377 
L 357.909885 179.428764 
L 358.780857 179.405263 
L 359.216342 179.059998 
L 361.393771 178.960352 
L 361.829256 178.069757 
L 362.264742 177.625274 
L 363.135713 177.651546 
L 363.571199 177.560025 
L 364.006684 176.658213 
L 365.748627 176.654177 
L 366.184113 176.729778 
L 366.619598 177.240552 
L 367.055084 177.258628 
L 367.49057 177.40918 
L 367.926055 177.253755 
L 368.361541 176.915466 
L 368.797026 176.84979 
L 369.232512 176.577489 
L 369.667998 176.560803 
L 370.103483 175.639587 
L 370.538969 175.358289 
L 371.40994 175.344471 
L 372.280912 175.279205 
L 372.716397 174.848923 
L 373.151883 174.715218 
L 373.587369 174.708599 
L 374.022854 174.879195 
L 375.329311 174.783603 
L 375.764797 174.268704 
L 376.200282 174.240846 
L 376.635768 173.734411 
L 378.813196 173.888169 
L 379.248682 173.487091 
L 380.119653 173.45664 
L 380.555139 173.21741 
L 381.42611 173.177908 
L 381.861596 173.11404 
L 382.297081 172.576771 
L 382.732567 172.632362 
L 383.168053 172.97776 
L 384.909995 173.106868 
L 385.780966 173.131198 
L 386.651938 172.994019 
L 387.958395 172.964816 
L 388.829366 172.782736 
L 389.700337 172.749381 
L 390.571309 172.659704 
L 391.006794 172.639097 
L 391.44228 171.702398 
L 393.184222 171.527846 
L 393.619708 171.151026 
L 395.361651 171.100299 
L 395.797136 172.229787 
L 396.668108 172.305219 
L 398.41005 172.293423 
L 398.845536 172.261351 
L 398.845536 172.261351 
" style="fill:none;stroke:#ff7f0e;stroke-linecap:square;stroke-opacity:0.8;stroke-width:1.5;"/>
   </g>
   <g id="line2d_20">
    <path clip-path="url(#p7969417391)" d="M 144.086436 241.591177 
L 144.521921 241.343884 
L 144.957407 240.773491 
L 147.134835 239.659006 
L 147.570321 239.31041 
L 148.005806 239.309973 
L 149.312263 238.634189 
L 149.747749 238.15718 
L 151.054206 237.455765 
L 151.925177 236.93977 
L 152.360663 236.449879 
L 154.102605 235.500137 
L 154.973577 234.942974 
L 159.763919 232.314449 
L 160.63489 231.749865 
L 162.376833 230.669296 
L 162.812318 230.138682 
L 164.554261 229.234874 
L 164.989746 228.625328 
L 166.731689 227.696334 
L 168.038146 226.989823 
L 168.909117 226.593146 
L 169.344603 226.060919 
L 171.086545 225.123454 
L 171.522031 224.568723 
L 172.828488 224.037094 
L 173.263974 223.911933 
L 173.699459 223.407662 
L 178.054316 222.185994 
L 178.489801 222.276856 
L 179.796258 222.002845 
L 180.66723 221.925756 
L 181.538201 221.768113 
L 181.973686 221.739756 
L 182.844658 221.362981 
L 183.715629 221.236778 
L 184.5866 221.302472 
L 185.022086 221.35564 
L 185.893057 221.991842 
L 186.764028 221.855037 
L 187.199514 221.779143 
L 187.635 221.476997 
L 188.070485 221.41721 
L 188.505971 221.634373 
L 191.118885 221.551217 
L 191.989856 221.964973 
L 192.860827 221.854423 
L 193.296313 221.977196 
L 194.60277 221.926184 
L 195.038256 222.196863 
L 195.909227 222.106215 
L 196.344713 222.183384 
L 196.780198 222.128897 
L 197.215684 222.333196 
L 197.65117 222.137761 
L 198.957626 222.103284 
L 199.393112 221.702 
L 200.699569 221.737868 
L 201.135055 220.849107 
L 201.57054 220.832038 
L 202.006026 220.944655 
L 203.747968 220.98013 
L 204.183454 221.217169 
L 204.61894 221.006002 
L 205.925397 220.992282 
L 206.360882 221.326882 
L 207.231854 221.285091 
L 207.667339 220.961252 
L 208.973796 220.902828 
L 209.409282 221.177935 
L 209.844767 221.172117 
L 210.280253 221.014528 
L 211.151224 220.953332 
L 212.022196 220.35518 
L 212.457681 220.659998 
L 213.764138 219.915009 
L 215.070595 219.908256 
L 216.377052 219.940034 
L 218.118995 219.944551 
L 218.989966 220.059387 
L 219.425452 219.754498 
L 220.731908 219.660322 
L 221.167394 219.609799 
L 222.038365 219.680741 
L 222.473851 219.503044 
L 224.215794 219.490678 
L 224.651279 219.314104 
L 225.957736 219.292366 
L 229.441621 219.314558 
L 229.877107 219.617069 
L 230.312593 219.638637 
L 231.183564 218.904223 
L 232.054535 218.873497 
L 232.925506 219.037625 
L 234.231963 218.940117 
L 234.667449 219.174733 
L 236.844877 219.186858 
L 237.280363 219.377767 
L 239.022305 219.278076 
L 239.457791 219.418418 
L 241.635219 219.372609 
L 242.070705 219.074303 
L 242.506191 219.079613 
L 242.941676 218.82162 
L 247.296533 218.784372 
L 247.732018 219.062927 
L 249.473961 219.044556 
L 249.909446 219.406338 
L 251.215903 219.28548 
L 254.264303 219.210004 
L 255.135274 219.083266 
L 256.006245 219.069288 
L 256.441731 219.41293 
L 257.312702 219.019594 
L 258.183674 218.981669 
L 258.619159 219.38615 
L 260.361102 219.321365 
L 260.796587 219.067149 
L 261.232073 219.058989 
L 261.667559 218.214479 
L 262.974016 218.196028 
L 264.715958 218.998266 
L 265.151444 218.900321 
L 266.893386 219.446392 
L 267.764358 219.932978 
L 268.199843 220.108902 
L 269.941786 220.364891 
L 270.812757 220.585537 
L 271.683729 220.676747 
L 272.119214 220.778076 
L 272.5547 221.093496 
L 274.296642 221.309082 
L 276.474071 221.31294 
L 278.216013 221.307898 
L 278.651499 221.485372 
L 282.135384 221.527466 
L 282.57087 221.682677 
L 283.441841 221.608867 
L 283.877326 221.135804 
L 284.312812 221.545783 
L 285.619269 221.43035 
L 286.054755 222.120434 
L 286.49024 221.948715 
L 292.151554 221.693341 
L 292.587039 222.019202 
L 296.070924 222.080219 
L 296.941896 222.642967 
L 297.377381 222.516933 
L 298.683838 223.184806 
L 300.861266 223.114658 
L 301.732238 223.05152 
L 303.909666 223.058638 
L 304.345152 223.33158 
L 305.216123 223.198499 
L 306.52258 223.27933 
L 307.393551 223.308649 
L 309.135494 223.271659 
L 309.570979 223.462149 
L 314.361321 223.300845 
L 315.232293 223.269717 
L 315.667778 223.649842 
L 316.103264 223.834096 
L 317.845206 223.791769 
L 318.280692 223.567684 
L 320.45812 223.514043 
L 320.893606 223.495834 
L 321.329092 223.313513 
L 322.200063 223.314965 
L 322.635549 223.114132 
L 323.071034 223.186365 
L 323.50652 223.103655 
L 323.942005 222.767505 
L 326.119434 222.67642 
L 326.554919 222.667413 
L 326.990405 222.948435 
L 327.425891 222.919419 
L 327.861376 223.153376 
L 329.603319 223.152155 
L 330.038804 222.939972 
L 330.47429 223.049124 
L 335.700118 222.673952 
L 337.44206 222.868157 
L 339.619489 222.962975 
L 340.49046 223.069231 
L 340.925945 222.551428 
L 341.796917 222.599652 
L 342.232402 222.777331 
L 343.103374 222.682291 
L 343.538859 222.349651 
L 345.280802 222.33104 
L 345.716287 222.699744 
L 346.151773 222.693775 
L 346.587259 223.478604 
L 347.893716 223.417337 
L 349.200173 222.733553 
L 349.635658 222.559277 
L 350.071144 222.592899 
L 352.248572 221.781281 
L 353.990515 221.41468 
L 356.603429 220.861767 
L 358.780857 220.512547 
L 359.216342 220.336097 
L 359.651828 220.307464 
L 360.087314 220.0823 
L 360.522799 220.066933 
L 360.958285 219.910653 
L 361.393771 219.965024 
L 361.829256 219.778552 
L 367.49057 219.747869 
L 367.926055 219.761509 
L 368.361541 219.515757 
L 368.797026 220.011573 
L 370.103483 220.003091 
L 370.974455 220.235542 
L 371.40994 220.40139 
L 374.022854 220.509972 
L 374.45834 220.733764 
L 376.200282 220.690475 
L 377.071254 220.45545 
L 377.506739 220.495709 
L 378.377711 220.436269 
L 379.684168 220.492724 
L 383.603538 220.444839 
L 385.345481 220.344605 
L 385.780966 220.352641 
L 386.216452 220.06589 
L 386.651938 219.635689 
L 387.087423 219.477333 
L 388.39388 219.472362 
L 388.829366 219.224846 
L 389.264852 219.235358 
L 389.700337 219.02436 
L 390.135823 219.010979 
L 391.006794 218.377832 
L 391.877765 218.385485 
L 392.748737 218.442475 
L 396.232622 218.344709 
L 398.845536 218.297545 
L 398.845536 218.297545 
" style="fill:none;stroke:#2ca02c;stroke-linecap:square;stroke-opacity:0.8;stroke-width:1.5;"/>
   </g>
   <g id="line2d_21">
    <path clip-path="url(#p7969417391)" d="M 144.086436 268.514347 
L 146.69935 268.425926 
L 154.102605 268.14967 
L 156.280034 268.105125 
L 158.457462 268.127487 
L 159.763919 268.066291 
L 161.505861 268.023484 
L 169.780088 267.973274 
L 171.086545 267.948097 
L 171.522031 268.008152 
L 172.828488 267.885851 
L 179.796258 267.634477 
L 185.893057 267.574467 
L 187.199514 267.580757 
L 188.505971 267.561344 
L 191.989856 267.569576 
L 192.860827 267.642745 
L 205.054425 267.572961 
L 205.925397 267.623056 
L 206.796368 267.562262 
L 210.715739 267.57379 
L 211.58671 267.638549 
L 214.199624 267.60816 
L 218.989966 267.635707 
L 219.425452 267.794597 
L 221.60288 267.81057 
L 222.473851 267.763487 
L 224.651279 267.870991 
L 230.312593 267.923437 
L 231.183564 267.990281 
L 234.667449 268.063441 
L 242.070705 268.127504 
L 243.377162 268.074345 
L 244.683619 268.112119 
L 247.296533 267.984784 
L 248.167504 268.060884 
L 254.699789 268.057347 
L 255.57076 268.108537 
L 259.490131 268.156102 
L 260.361102 268.234447 
L 261.232073 268.219551 
L 262.103044 268.299402 
L 266.457901 268.363875 
L 266.893386 268.196495 
L 272.5547 268.292096 
L 273.861157 268.253058 
L 276.474071 268.210117 
L 277.345042 268.112003 
L 278.216013 268.088662 
L 279.52247 268.132271 
L 280.393441 268.124957 
L 284.312812 268.082541 
L 284.748298 268.087806 
L 285.183783 267.865191 
L 286.49024 267.921041 
L 289.103154 267.899793 
L 289.974125 267.826268 
L 290.845097 267.78992 
L 291.716068 267.869031 
L 293.893496 267.872273 
L 304.345152 267.801947 
L 305.651609 267.799773 
L 306.087094 267.608116 
L 316.53875 267.619038 
L 323.942005 267.752431 
L 327.425891 267.765046 
L 332.216233 267.779621 
L 333.087204 267.67634 
L 340.49046 267.715611 
L 346.587259 267.815337 
L 351.377601 267.832709 
L 351.813086 268.009568 
L 355.732457 267.928774 
L 357.4744 267.943162 
L 357.909885 268.047289 
L 359.651828 268.098132 
L 365.313141 268.188076 
L 367.49057 268.265984 
L 368.361541 268.191515 
L 369.667998 268.206892 
L 370.103483 268.427966 
L 377.506739 268.594126 
L 385.780966 268.523104 
L 386.216452 268.147131 
L 390.571309 268.175176 
L 391.006794 268.369461 
L 392.748737 268.32946 
L 393.619708 268.246109 
L 395.361651 268.26937 
L 398.845536 268.177154 
L 398.845536 268.177154 
" style="fill:none;stroke:#d62728;stroke-linecap:square;stroke-opacity:0.8;stroke-width:1.5;"/>
   </g>
   <g id="line2d_22">
    <path clip-path="url(#p7969417391)" d="M 144.086436 221.823206 
L 151.054206 212.141853 
L 154.973577 206.934496 
L 155.409062 206.09893 
L 158.457462 202.167986 
L 161.505861 198.234307 
L 162.376833 197.230016 
L 167.60266 190.608469 
L 168.038146 189.937397 
L 168.473632 188.837594 
L 169.344603 187.53244 
L 169.780088 186.33512 
L 170.65106 185.328085 
L 171.086545 184.694101 
L 171.957517 183.818552 
L 172.393002 182.975726 
L 173.699459 181.529001 
L 175.876887 179.442243 
L 176.747859 178.765853 
L 178.925287 177.091203 
L 179.360773 176.58002 
L 180.231744 175.829187 
L 180.66723 175.04858 
L 181.102715 174.781277 
L 181.538201 174.371531 
L 181.973686 173.662667 
L 183.715629 172.491878 
L 185.893057 171.126482 
L 188.505971 169.019706 
L 188.941457 168.435897 
L 189.812428 167.943993 
L 190.247914 167.2437 
L 190.683399 167.111429 
L 192.425342 165.866393 
L 192.860827 165.459301 
L 193.296313 164.888606 
L 194.60277 163.93138 
L 195.038256 163.7226 
L 195.473741 163.697647 
L 195.909227 163.321629 
L 197.215684 163.269993 
L 197.65117 163.277503 
L 198.086655 163.438941 
L 199.393112 163.46165 
L 200.699569 163.385229 
L 201.57054 163.364881 
L 203.747968 163.124617 
L 204.183454 162.934992 
L 205.925397 162.843684 
L 206.360882 162.891204 
L 206.796368 162.694255 
L 207.667339 162.623519 
L 208.102825 163.073953 
L 209.409282 162.96097 
L 212.022196 163.044785 
L 212.457681 163.536333 
L 215.506081 165.175259 
L 215.941566 165.747958 
L 216.812538 166.272755 
L 217.248023 166.345772 
L 218.55448 167.141167 
L 220.731908 168.413803 
L 221.60288 168.978583 
L 222.038365 169.07634 
L 222.909337 169.711919 
L 227.264193 173.088676 
L 228.135164 173.531778 
L 228.57065 173.994853 
L 232.054535 176.259976 
L 232.490021 176.303683 
L 233.360992 176.736362 
L 233.796478 177.15859 
L 234.231963 177.274655 
L 237.280363 179.242506 
L 237.715849 179.507572 
L 238.151334 180.122661 
L 238.58682 180.369143 
L 239.457791 180.579144 
L 239.893277 180.877111 
L 240.328762 181.350832 
L 240.764248 181.540316 
L 242.070705 182.391748 
L 243.377162 183.302095 
L 243.812647 183.666148 
L 244.248133 183.666335 
L 244.683619 184.059591 
L 245.119104 184.221074 
L 245.55459 184.713594 
L 245.990076 184.897803 
L 246.425561 185.203378 
L 246.861047 185.241936 
L 248.167504 186.306362 
L 248.60299 186.616543 
L 249.038475 186.730132 
L 251.215903 188.34054 
L 252.52236 189.268161 
L 252.957846 189.68744 
L 253.393332 190.462238 
L 254.264303 191.309056 
L 254.699789 192.273007 
L 255.57076 192.818633 
L 256.006245 193.219426 
L 256.877217 193.713335 
L 257.312702 194.34225 
L 258.619159 195.209398 
L 259.925616 195.985817 
L 260.361102 195.861654 
L 262.53853 196.962303 
L 262.974016 197.015677 
L 263.844987 196.745496 
L 264.280473 196.853107 
L 264.715958 196.740401 
L 265.151444 196.754771 
L 265.58693 197.272859 
L 266.022415 197.17593 
L 266.457901 197.232671 
L 266.893386 197.537444 
L 268.635329 197.309857 
L 269.070815 197.09469 
L 269.5063 197.101336 
L 269.941786 196.936316 
L 270.377272 196.932833 
L 270.812757 196.660987 
L 271.248243 196.584023 
L 271.683729 196.702939 
L 274.732128 196.464047 
L 275.167614 197.125327 
L 276.038585 196.951782 
L 276.474071 197.030011 
L 277.780527 196.699607 
L 278.216013 196.997957 
L 279.957956 196.587854 
L 280.393441 196.235658 
L 280.828927 196.115833 
L 281.699898 195.485565 
L 282.135384 195.142109 
L 282.57087 194.358536 
L 283.441841 193.647623 
L 283.877326 193.426888 
L 288.232183 189.993345 
L 288.667669 189.814098 
L 289.103154 189.299458 
L 290.845097 188.053985 
L 291.280582 187.358129 
L 291.716068 187.109749 
L 292.587039 186.330078 
L 295.199953 184.343776 
L 296.941896 182.728914 
L 299.119324 181.384953 
L 299.990295 180.689614 
L 300.425781 179.832017 
L 300.861266 179.308824 
L 302.603209 178.188245 
L 304.345152 176.927449 
L 305.651609 176.07672 
L 306.52258 175.097142 
L 306.958065 175.038335 
L 307.829037 174.483319 
L 310.006465 172.839931 
L 310.877436 172.087726 
L 311.312922 171.547 
L 312.619379 170.71784 
L 313.054864 170.538557 
L 313.49035 169.67419 
L 313.925836 169.303036 
L 316.974235 167.677002 
L 317.409721 167.734758 
L 318.280692 167.475527 
L 318.716178 167.214113 
L 319.151663 167.175582 
L 319.587149 166.711856 
L 321.764577 165.571794 
L 322.200063 165.510483 
L 323.50652 164.810502 
L 323.942005 164.363221 
L 324.377491 164.361297 
L 324.812977 164.114636 
L 326.119434 163.719536 
L 328.296862 162.662709 
L 328.732347 162.176345 
L 329.167833 162.292945 
L 329.603319 161.991655 
L 330.038804 161.884962 
L 330.47429 161.072292 
L 330.909776 160.595061 
L 331.345261 160.691499 
L 331.780747 160.906516 
L 334.393661 161.120668 
L 334.829146 161.315906 
L 337.877546 161.689091 
L 338.313032 161.866111 
L 339.184003 161.838876 
L 340.49046 162.058579 
L 341.796917 162.275938 
L 343.103374 162.385651 
L 344.845316 162.685159 
L 345.280802 163.03674 
L 346.151773 163.119816 
L 347.022744 163.129963 
L 347.45823 162.702318 
L 347.893716 162.884986 
L 348.764687 163.595551 
L 349.200173 163.81569 
L 350.071144 164.518183 
L 351.377601 165.400912 
L 351.813086 165.744974 
L 352.248572 165.943001 
L 352.684058 166.325798 
L 353.119543 166.34097 
L 353.555029 166.575773 
L 354.861486 167.75769 
L 355.732457 168.384484 
L 357.038914 169.40743 
L 357.4744 169.608887 
L 359.216342 170.983584 
L 360.958285 171.468192 
L 361.829256 172.027136 
L 362.700228 172.839833 
L 363.135713 173.038501 
L 363.571199 173.542139 
L 364.006684 173.728566 
L 364.877656 174.429608 
L 365.313141 174.630272 
L 366.184113 175.358369 
L 367.055084 176.045049 
L 367.49057 176.837113 
L 368.361541 177.466963 
L 370.103483 178.668452 
L 373.587369 181.145153 
L 374.022854 181.784838 
L 374.45834 182.154896 
L 374.893825 182.362259 
L 375.764797 183.073804 
L 376.200282 183.727878 
L 377.942225 185.097202 
L 378.377711 185.30975 
L 378.813196 185.771899 
L 380.119653 186.715931 
L 381.42611 187.793943 
L 382.297081 188.400906 
L 384.039024 189.421697 
L 384.47451 189.40656 
L 384.909995 189.570832 
L 385.345481 190.363741 
L 385.780966 190.836697 
L 388.39388 192.514447 
L 388.829366 192.841546 
L 389.264852 192.68769 
L 390.571309 193.517705 
L 391.877765 194.709029 
L 392.313251 195.047274 
L 392.748737 195.162938 
L 394.490679 196.362182 
L 395.361651 197.051927 
L 395.797136 197.464997 
L 396.668108 198.022168 
L 397.539079 198.587776 
L 397.974564 198.639688 
L 398.41005 199.517767 
L 398.845536 199.857651 
L 398.845536 199.857651 
" style="fill:none;stroke:#9467bd;stroke-linecap:square;stroke-opacity:0.8;stroke-width:1.5;"/>
   </g>
   <g id="patch_3">
    <path d="M 58.73125 288.430125 
L 58.73125 22.318125 
" style="fill:none;stroke:#000000;stroke-linecap:square;stroke-linejoin:miter;stroke-width:0.8;"/>
   </g>
   <g id="patch_4">
    <path d="M 415.85125 288.430125 
L 415.85125 22.318125 
" style="fill:none;stroke:#000000;stroke-linecap:square;stroke-linejoin:miter;stroke-width:0.8;"/>
   </g>
   <g id="patch_5">
    <path d="M 58.73125 288.430125 
L 415.85125 288.430125 
" style="fill:none;stroke:#000000;stroke-linecap:square;stroke-linejoin:miter;stroke-width:0.8;"/>
   </g>
   <g id="patch_6">
    <path d="M 58.73125 22.318125 
L 415.85125 22.318125 
" style="fill:none;stroke:#000000;stroke-linecap:square;stroke-linejoin:miter;stroke-width:0.8;"/>
   </g>
   <g id="text_20">
    <!-- Delete [branch] -->
    <g transform="translate(190.13125 16.318125)scale(0.12 -0.12)">
     <defs>
      <path d="M 19.671875 64.796875 
L 19.671875 8.109375 
L 31.59375 8.109375 
Q 46.6875 8.109375 53.6875 14.9375 
Q 60.6875 21.78125 60.6875 36.53125 
Q 60.6875 51.171875 53.6875 57.984375 
Q 46.6875 64.796875 31.59375 64.796875 
z
M 9.8125 72.90625 
L 30.078125 72.90625 
Q 51.265625 72.90625 61.171875 64.09375 
Q 71.09375 55.28125 71.09375 36.53125 
Q 71.09375 17.671875 61.125 8.828125 
Q 51.171875 0 30.078125 0 
L 9.8125 0 
z
" id="DejaVuSans-68"/>
      <path d="M 8.59375 75.984375 
L 29.296875 75.984375 
L 29.296875 69 
L 17.578125 69 
L 17.578125 -6.203125 
L 29.296875 -6.203125 
L 29.296875 -13.1875 
L 8.59375 -13.1875 
z
" id="DejaVuSans-91"/>
      <path d="M 54.890625 33.015625 
L 54.890625 0 
L 45.90625 0 
L 45.90625 32.71875 
Q 45.90625 40.484375 42.875 44.328125 
Q 39.84375 48.1875 33.796875 48.1875 
Q 26.515625 48.1875 22.3125 43.546875 
Q 18.109375 38.921875 18.109375 30.90625 
L 18.109375 0 
L 9.078125 0 
L 9.078125 75.984375 
L 18.109375 75.984375 
L 18.109375 46.1875 
Q 21.34375 51.125 25.703125 53.5625 
Q 30.078125 56 35.796875 56 
Q 45.21875 56 50.046875 50.171875 
Q 54.890625 44.34375 54.890625 33.015625 
z
" id="DejaVuSans-104"/>
      <path d="M 30.421875 75.984375 
L 30.421875 -13.1875 
L 9.71875 -13.1875 
L 9.71875 -6.203125 
L 21.390625 -6.203125 
L 21.390625 69 
L 9.71875 69 
L 9.71875 75.984375 
z
" id="DejaVuSans-93"/>
     </defs>
     <use xlink:href="#DejaVuSans-68"/>
     <use x="77.001953" xlink:href="#DejaVuSans-101"/>
     <use x="138.525391" xlink:href="#DejaVuSans-108"/>
     <use x="166.308594" xlink:href="#DejaVuSans-101"/>
     <use x="227.832031" xlink:href="#DejaVuSans-116"/>
     <use x="267.041016" xlink:href="#DejaVuSans-101"/>
     <use x="328.564453" xlink:href="#DejaVuSans-32"/>
     <use x="360.351562" xlink:href="#DejaVuSans-91"/>
     <use x="399.365234" xlink:href="#DejaVuSans-98"/>
     <use x="462.841797" xlink:href="#DejaVuSans-114"/>
     <use x="503.955078" xlink:href="#DejaVuSans-97"/>
     <use x="565.234375" xlink:href="#DejaVuSans-110"/>
     <use x="628.613281" xlink:href="#DejaVuSans-99"/>
     <use x="683.59375" xlink:href="#DejaVuSans-104"/>
     <use x="746.972656" xlink:href="#DejaVuSans-93"/>
    </g>
   </g>
   <g id="legend_1">
    <g id="patch_7">
     <path d="M 89.733594 365.802375 
L 377.328906 365.802375 
Q 379.328906 365.802375 379.328906 363.802375 
L 379.328906 335.446125 
Q 379.328906 333.446125 377.328906 333.446125 
L 89.733594 333.446125 
Q 87.733594 333.446125 87.733594 335.446125 
L 87.733594 363.802375 
Q 87.733594 365.802375 89.733594 365.802375 
z
" style="fill:#4c4c4c;opacity:0.5;stroke:#4c4c4c;stroke-linejoin:miter;"/>
    </g>
    <g id="patch_8">
     <path d="M 87.733594 363.802375 
L 375.328906 363.802375 
Q 377.328906 363.802375 377.328906 361.802375 
L 377.328906 333.446125 
Q 377.328906 331.446125 375.328906 331.446125 
L 87.733594 331.446125 
Q 85.733594 331.446125 85.733594 333.446125 
L 85.733594 361.802375 
Q 85.733594 363.802375 87.733594 363.802375 
z
" style="fill:#ffffff;stroke:#cccccc;stroke-linejoin:miter;"/>
    </g>
    <g id="line2d_23">
     <path d="M 89.733594 339.544562 
L 109.733594 339.544562 
" style="fill:none;stroke:#1f77b4;stroke-linecap:square;stroke-opacity:0.8;stroke-width:1.5;"/>
    </g>
    <g id="line2d_24"/>
    <g id="text_21">
     <!-- MPTT -->
     <g transform="translate(117.733594 343.044562)scale(0.1 -0.1)">
      <defs>
       <path d="M 9.8125 72.90625 
L 24.515625 72.90625 
L 43.109375 23.296875 
L 61.8125 72.90625 
L 76.515625 72.90625 
L 76.515625 0 
L 66.890625 0 
L 66.890625 64.015625 
L 48.09375 14.015625 
L 38.1875 14.015625 
L 19.390625 64.015625 
L 19.390625 0 
L 9.8125 0 
z
" id="DejaVuSans-77"/>
       <path d="M 19.671875 64.796875 
L 19.671875 37.40625 
L 32.078125 37.40625 
Q 38.96875 37.40625 42.71875 40.96875 
Q 46.484375 44.53125 46.484375 51.125 
Q 46.484375 57.671875 42.71875 61.234375 
Q 38.96875 64.796875 32.078125 64.796875 
z
M 9.8125 72.90625 
L 32.078125 72.90625 
Q 44.34375 72.90625 50.609375 67.359375 
Q 56.890625 61.8125 56.890625 51.125 
Q 56.890625 40.328125 50.609375 34.8125 
Q 44.34375 29.296875 32.078125 29.296875 
L 19.671875 29.296875 
L 19.671875 0 
L 9.8125 0 
z
" id="DejaVuSans-80"/>
       <path d="M -0.296875 72.90625 
L 61.375 72.90625 
L 61.375 64.59375 
L 35.5 64.59375 
L 35.5 0 
L 25.59375 0 
L 25.59375 64.59375 
L -0.296875 64.59375 
z
" id="DejaVuSans-84"/>
      </defs>
      <use xlink:href="#DejaVuSans-77"/>
      <use x="86.279297" xlink:href="#DejaVuSans-80"/>
      <use x="146.582031" xlink:href="#DejaVuSans-84"/>
      <use x="205.916016" xlink:href="#DejaVuSans-84"/>
     </g>
    </g>
    <g id="line2d_25">
     <path d="M 89.733594 354.222687 
L 109.733594 354.222687 
" style="fill:none;stroke:#ff7f0e;stroke-linecap:square;stroke-opacity:0.8;stroke-width:1.5;"/>
    </g>
    <g id="line2d_26"/>
    <g id="text_22">
     <!-- tree -->
     <g transform="translate(117.733594 357.722687)scale(0.1 -0.1)">
      <use xlink:href="#DejaVuSans-116"/>
      <use x="39.208984" xlink:href="#DejaVuSans-114"/>
      <use x="78.072266" xlink:href="#DejaVuSans-101"/>
      <use x="139.595703" xlink:href="#DejaVuSans-101"/>
     </g>
    </g>
    <g id="line2d_27">
     <path d="M 164.432031 339.544562 
L 184.432031 339.544562 
" style="fill:none;stroke:#2ca02c;stroke-linecap:square;stroke-opacity:0.8;stroke-width:1.5;"/>
    </g>
    <g id="line2d_28"/>
    <g id="text_23">
     <!-- treebeard AL -->
     <g transform="translate(192.432031 343.044562)scale(0.1 -0.1)">
      <defs>
       <path d="M 45.40625 46.390625 
L 45.40625 75.984375 
L 54.390625 75.984375 
L 54.390625 0 
L 45.40625 0 
L 45.40625 8.203125 
Q 42.578125 3.328125 38.25 0.953125 
Q 33.9375 -1.421875 27.875 -1.421875 
Q 17.96875 -1.421875 11.734375 6.484375 
Q 5.515625 14.40625 5.515625 27.296875 
Q 5.515625 40.1875 11.734375 48.09375 
Q 17.96875 56 27.875 56 
Q 33.9375 56 38.25 53.625 
Q 42.578125 51.265625 45.40625 46.390625 
z
M 14.796875 27.296875 
Q 14.796875 17.390625 18.875 11.75 
Q 22.953125 6.109375 30.078125 6.109375 
Q 37.203125 6.109375 41.296875 11.75 
Q 45.40625 17.390625 45.40625 27.296875 
Q 45.40625 37.203125 41.296875 42.84375 
Q 37.203125 48.484375 30.078125 48.484375 
Q 22.953125 48.484375 18.875 42.84375 
Q 14.796875 37.203125 14.796875 27.296875 
z
" id="DejaVuSans-100"/>
       <path d="M 9.8125 72.90625 
L 19.671875 72.90625 
L 19.671875 8.296875 
L 55.171875 8.296875 
L 55.171875 0 
L 9.8125 0 
z
" id="DejaVuSans-76"/>
      </defs>
      <use xlink:href="#DejaVuSans-116"/>
      <use x="39.208984" xlink:href="#DejaVuSans-114"/>
      <use x="78.072266" xlink:href="#DejaVuSans-101"/>
      <use x="139.595703" xlink:href="#DejaVuSans-101"/>
      <use x="201.119141" xlink:href="#DejaVuSans-98"/>
      <use x="264.595703" xlink:href="#DejaVuSans-101"/>
      <use x="326.119141" xlink:href="#DejaVuSans-97"/>
      <use x="387.398438" xlink:href="#DejaVuSans-114"/>
      <use x="426.761719" xlink:href="#DejaVuSans-100"/>
      <use x="490.238281" xlink:href="#DejaVuSans-32"/>
      <use x="522.025391" xlink:href="#DejaVuSans-65"/>
      <use x="590.433594" xlink:href="#DejaVuSans-76"/>
     </g>
    </g>
    <g id="line2d_29">
     <path d="M 164.432031 354.222687 
L 184.432031 354.222687 
" style="fill:none;stroke:#d62728;stroke-linecap:square;stroke-opacity:0.8;stroke-width:1.5;"/>
    </g>
    <g id="line2d_30"/>
    <g id="text_24">
     <!-- treebeard MP -->
     <g transform="translate(192.432031 357.722687)scale(0.1 -0.1)">
      <use xlink:href="#DejaVuSans-116"/>
      <use x="39.208984" xlink:href="#DejaVuSans-114"/>
      <use x="78.072266" xlink:href="#DejaVuSans-101"/>
      <use x="139.595703" xlink:href="#DejaVuSans-101"/>
      <use x="201.119141" xlink:href="#DejaVuSans-98"/>
      <use x="264.595703" xlink:href="#DejaVuSans-101"/>
      <use x="326.119141" xlink:href="#DejaVuSans-97"/>
      <use x="387.398438" xlink:href="#DejaVuSans-114"/>
      <use x="426.761719" xlink:href="#DejaVuSans-100"/>
      <use x="490.238281" xlink:href="#DejaVuSans-32"/>
      <use x="522.025391" xlink:href="#DejaVuSans-77"/>
      <use x="608.304688" xlink:href="#DejaVuSans-80"/>
     </g>
    </g>
    <g id="line2d_31">
     <path d="M 279.294531 339.544562 
L 299.294531 339.544562 
" style="fill:none;stroke:#9467bd;stroke-linecap:square;stroke-opacity:0.8;stroke-width:1.5;"/>
    </g>
    <g id="line2d_32"/>
    <g id="text_25">
     <!-- treebeard NS -->
     <g transform="translate(307.294531 343.044562)scale(0.1 -0.1)">
      <defs>
       <path d="M 9.8125 72.90625 
L 23.09375 72.90625 
L 55.421875 11.921875 
L 55.421875 72.90625 
L 64.984375 72.90625 
L 64.984375 0 
L 51.703125 0 
L 19.390625 60.984375 
L 19.390625 0 
L 9.8125 0 
z
" id="DejaVuSans-78"/>
       <path d="M 53.515625 70.515625 
L 53.515625 60.890625 
Q 47.90625 63.578125 42.921875 64.890625 
Q 37.9375 66.21875 33.296875 66.21875 
Q 25.25 66.21875 20.875 63.09375 
Q 16.5 59.96875 16.5 54.203125 
Q 16.5 49.359375 19.40625 46.890625 
Q 22.3125 44.4375 30.421875 42.921875 
L 36.375 41.703125 
Q 47.40625 39.59375 52.65625 34.296875 
Q 57.90625 29 57.90625 20.125 
Q 57.90625 9.515625 50.796875 4.046875 
Q 43.703125 -1.421875 29.984375 -1.421875 
Q 24.8125 -1.421875 18.96875 -0.25 
Q 13.140625 0.921875 6.890625 3.21875 
L 6.890625 13.375 
Q 12.890625 10.015625 18.65625 8.296875 
Q 24.421875 6.59375 29.984375 6.59375 
Q 38.421875 6.59375 43.015625 9.90625 
Q 47.609375 13.234375 47.609375 19.390625 
Q 47.609375 24.75 44.3125 27.78125 
Q 41.015625 30.8125 33.5 32.328125 
L 27.484375 33.5 
Q 16.453125 35.6875 11.515625 40.375 
Q 6.59375 45.0625 6.59375 53.421875 
Q 6.59375 63.09375 13.40625 68.65625 
Q 20.21875 74.21875 32.171875 74.21875 
Q 37.3125 74.21875 42.625 73.28125 
Q 47.953125 72.359375 53.515625 70.515625 
z
" id="DejaVuSans-83"/>
      </defs>
      <use xlink:href="#DejaVuSans-116"/>
      <use x="39.208984" xlink:href="#DejaVuSans-114"/>
      <use x="78.072266" xlink:href="#DejaVuSans-101"/>
      <use x="139.595703" xlink:href="#DejaVuSans-101"/>
      <use x="201.119141" xlink:href="#DejaVuSans-98"/>
      <use x="264.595703" xlink:href="#DejaVuSans-101"/>
      <use x="326.119141" xlink:href="#DejaVuSans-97"/>
      <use x="387.398438" xlink:href="#DejaVuSans-114"/>
      <use x="426.761719" xlink:href="#DejaVuSans-100"/>
      <use x="490.238281" xlink:href="#DejaVuSans-32"/>
      <use x="522.025391" xlink:href="#DejaVuSans-78"/>
      <use x="596.830078" xlink:href="#DejaVuSans-83"/>
     </g>
    </g>
   </g>
  </g>
 </g>
 <defs>
  <clipPath id="p7969417391">
   <rect height="266.112" width="357.12" x="58.73125" y="22.318125"/>
  </clipPath>
 </defs>
</svg>
