<?xml version="1.0" encoding="utf-8" standalone="no"?>
<!DOCTYPE svg PUBLIC "-//W3C//DTD SVG 1.1//EN"
  "http://www.w3.org/Graphics/SVG/1.1/DTD/svg11.dtd">
<svg xmlns:xlink="http://www.w3.org/1999/xlink" width="426.035625pt" height="371.002375pt" viewBox="0 0 426.035625 371.002375" xmlns="http://www.w3.org/2000/svg" version="1.1">
 <metadata>
  <rdf:RDF xmlns:dc="http://purl.org/dc/elements/1.1/" xmlns:cc="http://creativecommons.org/ns#" xmlns:rdf="http://www.w3.org/1999/02/22-rdf-syntax-ns#">
   <cc:Work>
    <dc:type rdf:resource="http://purl.org/dc/dcmitype/StillImage"/>
    <dc:date>2026-06-28T20:25:06.969679</dc:date>
    <dc:format>image/svg+xml</dc:format>
    <dc:creator>
     <cc:Agent>
      <dc:title>Matplotlib v3.10.6, https://matplotlib.org/</dc:title>
     </cc:Agent>
    </dc:creator>
   </cc:Work>
  </rdf:RDF>
 </metadata>
 <defs>
  <style type="text/css">*{stroke-linejoin: round; stroke-linecap: butt}</style>
 </defs>
 <g id="figure_1">
  <g id="patch_1">
   <path d="M 0 371.002375 
L 426.035625 371.002375 
L 426.035625 0 
L 0 0 
z
" style="fill: #ffffff"/>
  </g>
  <g id="axes_1">
   <g id="patch_2">
    <path d="M 61.715625 288.430125 
L 418.835625 288.430125 
L 418.835625 22.318125 
L 61.715625 22.318125 
z
" style="fill: #ffffff"/>
   </g>
   <g id="matplotlib.axis_1">
    <g id="xtick_1">
     <g id="line2d_1">
      <defs>
       <path id="m32e300910a" d="M 0 0 
L 0 3.5 
" style="stroke: #000000; stroke-width: 0.8"/>
      </defs>
      <g>
       <use xlink:href="#m32e300910a" x="61.715625" y="288.430125" style="stroke: #000000; stroke-width: 0.8"/>
      </g>
     </g>
     <g id="text_1">
      <!-- 0 -->
      <g transform="translate(58.534375 303.028562) scale(0.1 -0.1)">
       <defs>
        <path id="DejaVuSans-30" d="M 2034 4250 
Q 1547 4250 1301 3770 
Q 1056 3291 1056 2328 
Q 1056 1369 1301 889 
Q 1547 409 2034 409 
Q 2525 409 2770 889 
Q 3016 1369 3016 2328 
Q 3016 3291 2770 3770 
Q 2525 4250 2034 4250 
z
M 2034 4750 
Q 2819 4750 3233 4129 
Q 3647 3509 3647 2328 
Q 3647 1150 3233 529 
Q 2819 -91 2034 -91 
Q 1250 -91 836 529 
Q 422 1150 422 2328 
Q 422 3509 836 4129 
Q 1250 4750 2034 4750 
z
" transform="scale(0.015625)"/>
       </defs>
       <use xlink:href="#DejaVuSans-30"/>
      </g>
     </g>
    </g>
    <g id="xtick_2">
     <g id="line2d_2">
      <g>
       <use xlink:href="#m32e300910a" x="105.264189" y="288.430125" style="stroke: #000000; stroke-width: 0.8"/>
      </g>
     </g>
     <g id="text_2">
      <!-- 500  -->
      <g transform="translate(94.131377 303.028562) scale(0.1 -0.1)">
       <defs>
        <path id="DejaVuSans-35" d="M 691 4666 
L 3169 4666 
L 3169 4134 
L 1269 4134 
L 1269 2991 
Q 1406 3038 1543 3061 
Q 1681 3084 1819 3084 
Q 2600 3084 3056 2656 
Q 3513 2228 3513 1497 
Q 3513 744 3044 326 
Q 2575 -91 1722 -91 
Q 1428 -91 1123 -41 
Q 819 9 494 109 
L 494 744 
Q 775 591 1075 516 
Q 1375 441 1709 441 
Q 2250 441 2565 725 
Q 2881 1009 2881 1497 
Q 2881 1984 2565 2268 
Q 2250 2553 1709 2553 
Q 1456 2553 1204 2497 
Q 953 2441 691 2322 
L 691 4666 
z
" transform="scale(0.015625)"/>
        <path id="DejaVuSans-20" transform="scale(0.015625)"/>
       </defs>
       <use xlink:href="#DejaVuSans-35"/>
       <use xlink:href="#DejaVuSans-30" transform="translate(63.623047 0)"/>
       <use xlink:href="#DejaVuSans-30" transform="translate(127.246094 0)"/>
       <use xlink:href="#DejaVuSans-20" transform="translate(190.869141 0)"/>
      </g>
     </g>
    </g>
    <g id="xtick_3">
     <g id="line2d_3">
      <g>
       <use xlink:href="#m32e300910a" x="148.812753" y="288.430125" style="stroke: #000000; stroke-width: 0.8"/>
      </g>
     </g>
     <g id="text_3">
      <!-- 1 k -->
      <g transform="translate(141.147128 303.028562) scale(0.1 -0.1)">
       <defs>
        <path id="DejaVuSans-31" d="M 794 531 
L 1825 531 
L 1825 4091 
L 703 3866 
L 703 4441 
L 1819 4666 
L 2450 4666 
L 2450 531 
L 3481 531 
L 3481 0 
L 794 0 
L 794 531 
z
" transform="scale(0.015625)"/>
        <path id="DejaVuSans-6b" d="M 581 4863 
L 1159 4863 
L 1159 1991 
L 2875 3500 
L 3609 3500 
L 1753 1863 
L 3688 0 
L 2938 0 
L 1159 1709 
L 1159 0 
L 581 0 
L 581 4863 
z
" transform="scale(0.015625)"/>
       </defs>
       <use xlink:href="#DejaVuSans-31"/>
       <use xlink:href="#DejaVuSans-20" transform="translate(63.623047 0)"/>
       <use xlink:href="#DejaVuSans-6b" transform="translate(95.410156 0)"/>
      </g>
     </g>
    </g>
    <g id="xtick_4">
     <g id="line2d_4">
      <g>
       <use xlink:href="#m32e300910a" x="192.361317" y="288.430125" style="stroke: #000000; stroke-width: 0.8"/>
      </g>
     </g>
     <g id="text_4">
      <!-- 1.5 k -->
      <g transform="translate(179.92538 303.028562) scale(0.1 -0.1)">
       <defs>
        <path id="DejaVuSans-2e" d="M 684 794 
L 1344 794 
L 1344 0 
L 684 0 
L 684 794 
z
" transform="scale(0.015625)"/>
       </defs>
       <use xlink:href="#DejaVuSans-31"/>
       <use xlink:href="#DejaVuSans-2e" transform="translate(63.623047 0)"/>
       <use xlink:href="#DejaVuSans-35" transform="translate(95.410156 0)"/>
       <use xlink:href="#DejaVuSans-20" transform="translate(159.033203 0)"/>
       <use xlink:href="#DejaVuSans-6b" transform="translate(190.820312 0)"/>
      </g>
     </g>
    </g>
    <g id="xtick_5">
     <g id="line2d_5">
      <g>
       <use xlink:href="#m32e300910a" x="235.909881" y="288.430125" style="stroke: #000000; stroke-width: 0.8"/>
      </g>
     </g>
     <g id="text_5">
      <!-- 2 k -->
      <g transform="translate(228.244256 303.028562) scale(0.1 -0.1)">
       <defs>
        <path id="DejaVuSans-32" d="M 1228 531 
L 3431 531 
L 3431 0 
L 469 0 
L 469 531 
Q 828 903 1448 1529 
Q 2069 2156 2228 2338 
Q 2531 2678 2651 2914 
Q 2772 3150 2772 3378 
Q 2772 3750 2511 3984 
Q 2250 4219 1831 4219 
Q 1534 4219 1204 4116 
Q 875 4013 500 3803 
L 500 4441 
Q 881 4594 1212 4672 
Q 1544 4750 1819 4750 
Q 2544 4750 2975 4387 
Q 3406 4025 3406 3419 
Q 3406 3131 3298 2873 
Q 3191 2616 2906 2266 
Q 2828 2175 2409 1742 
Q 1991 1309 1228 531 
z
" transform="scale(0.015625)"/>
       </defs>
       <use xlink:href="#DejaVuSans-32"/>
       <use xlink:href="#DejaVuSans-20" transform="translate(63.623047 0)"/>
       <use xlink:href="#DejaVuSans-6b" transform="translate(95.410156 0)"/>
      </g>
     </g>
    </g>
    <g id="xtick_6">
     <g id="line2d_6">
      <g>
       <use xlink:href="#m32e300910a" x="279.458446" y="288.430125" style="stroke: #000000; stroke-width: 0.8"/>
      </g>
     </g>
     <g id="text_6">
      <!-- 2.5 k -->
      <g transform="translate(267.022508 303.028562) scale(0.1 -0.1)">
       <use xlink:href="#DejaVuSans-32"/>
       <use xlink:href="#DejaVuSans-2e" transform="translate(63.623047 0)"/>
       <use xlink:href="#DejaVuSans-35" transform="translate(95.410156 0)"/>
       <use xlink:href="#DejaVuSans-20" transform="translate(159.033203 0)"/>
       <use xlink:href="#DejaVuSans-6b" transform="translate(190.820312 0)"/>
      </g>
     </g>
    </g>
    <g id="xtick_7">
     <g id="line2d_7">
      <g>
       <use xlink:href="#m32e300910a" x="323.00701" y="288.430125" style="stroke: #000000; stroke-width: 0.8"/>
      </g>
     </g>
     <g id="text_7">
      <!-- 3 k -->
      <g transform="translate(315.341385 303.028562) scale(0.1 -0.1)">
       <defs>
        <path id="DejaVuSans-33" d="M 2597 2516 
Q 3050 2419 3304 2112 
Q 3559 1806 3559 1356 
Q 3559 666 3084 287 
Q 2609 -91 1734 -91 
Q 1441 -91 1130 -33 
Q 819 25 488 141 
L 488 750 
Q 750 597 1062 519 
Q 1375 441 1716 441 
Q 2309 441 2620 675 
Q 2931 909 2931 1356 
Q 2931 1769 2642 2001 
Q 2353 2234 1838 2234 
L 1294 2234 
L 1294 2753 
L 1863 2753 
Q 2328 2753 2575 2939 
Q 2822 3125 2822 3475 
Q 2822 3834 2567 4026 
Q 2313 4219 1838 4219 
Q 1578 4219 1281 4162 
Q 984 4106 628 3988 
L 628 4550 
Q 988 4650 1302 4700 
Q 1616 4750 1894 4750 
Q 2613 4750 3031 4423 
Q 3450 4097 3450 3541 
Q 3450 3153 3228 2886 
Q 3006 2619 2597 2516 
z
" transform="scale(0.015625)"/>
       </defs>
       <use xlink:href="#DejaVuSans-33"/>
       <use xlink:href="#DejaVuSans-20" transform="translate(63.623047 0)"/>
       <use xlink:href="#DejaVuSans-6b" transform="translate(95.410156 0)"/>
      </g>
     </g>
    </g>
    <g id="xtick_8">
     <g id="line2d_8">
      <g>
       <use xlink:href="#m32e300910a" x="366.555574" y="288.430125" style="stroke: #000000; stroke-width: 0.8"/>
      </g>
     </g>
     <g id="text_8">
      <!-- 3.5 k -->
      <g transform="translate(354.119636 303.028562) scale(0.1 -0.1)">
       <use xlink:href="#DejaVuSans-33"/>
       <use xlink:href="#DejaVuSans-2e" transform="translate(63.623047 0)"/>
       <use xlink:href="#DejaVuSans-35" transform="translate(95.410156 0)"/>
       <use xlink:href="#DejaVuSans-20" transform="translate(159.033203 0)"/>
       <use xlink:href="#DejaVuSans-6b" transform="translate(190.820312 0)"/>
      </g>
     </g>
    </g>
    <g id="xtick_9">
     <g id="line2d_9">
      <g>
       <use xlink:href="#m32e300910a" x="410.104138" y="288.430125" style="stroke: #000000; stroke-width: 0.8"/>
      </g>
     </g>
     <g id="text_9">
      <!-- 4 k -->
      <g transform="translate(402.438513 303.028562) scale(0.1 -0.1)">
       <defs>
        <path id="DejaVuSans-34" d="M 2419 4116 
L 825 1625 
L 2419 1625 
L 2419 4116 
z
M 2253 4666 
L 3047 4666 
L 3047 1625 
L 3713 1625 
L 3713 1100 
L 3047 1100 
L 3047 0 
L 2419 0 
L 2419 1100 
L 313 1100 
L 313 1709 
L 2253 4666 
z
" transform="scale(0.015625)"/>
       </defs>
       <use xlink:href="#DejaVuSans-34"/>
       <use xlink:href="#DejaVuSans-20" transform="translate(63.623047 0)"/>
       <use xlink:href="#DejaVuSans-6b" transform="translate(95.410156 0)"/>
      </g>
     </g>
    </g>
    <g id="text_10">
     <!-- Amount of objects in table -->
     <g transform="translate(174.217031 316.706687) scale(0.1 -0.1)">
      <defs>
       <path id="DejaVuSans-41" d="M 2188 4044 
L 1331 1722 
L 3047 1722 
L 2188 4044 
z
M 1831 4666 
L 2547 4666 
L 4325 0 
L 3669 0 
L 3244 1197 
L 1141 1197 
L 716 0 
L 50 0 
L 1831 4666 
z
" transform="scale(0.015625)"/>
       <path id="DejaVuSans-6d" d="M 3328 2828 
Q 3544 3216 3844 3400 
Q 4144 3584 4550 3584 
Q 5097 3584 5394 3201 
Q 5691 2819 5691 2113 
L 5691 0 
L 5113 0 
L 5113 2094 
Q 5113 2597 4934 2840 
Q 4756 3084 4391 3084 
Q 3944 3084 3684 2787 
Q 3425 2491 3425 1978 
L 3425 0 
L 2847 0 
L 2847 2094 
Q 2847 2600 2669 2842 
Q 2491 3084 2119 3084 
Q 1678 3084 1418 2786 
Q 1159 2488 1159 1978 
L 1159 0 
L 581 0 
L 581 3500 
L 1159 3500 
L 1159 2956 
Q 1356 3278 1631 3431 
Q 1906 3584 2284 3584 
Q 2666 3584 2933 3390 
Q 3200 3197 3328 2828 
z
" transform="scale(0.015625)"/>
       <path id="DejaVuSans-6f" d="M 1959 3097 
Q 1497 3097 1228 2736 
Q 959 2375 959 1747 
Q 959 1119 1226 758 
Q 1494 397 1959 397 
Q 2419 397 2687 759 
Q 2956 1122 2956 1747 
Q 2956 2369 2687 2733 
Q 2419 3097 1959 3097 
z
M 1959 3584 
Q 2709 3584 3137 3096 
Q 3566 2609 3566 1747 
Q 3566 888 3137 398 
Q 2709 -91 1959 -91 
Q 1206 -91 779 398 
Q 353 888 353 1747 
Q 353 2609 779 3096 
Q 1206 3584 1959 3584 
z
" transform="scale(0.015625)"/>
       <path id="DejaVuSans-75" d="M 544 1381 
L 544 3500 
L 1119 3500 
L 1119 1403 
Q 1119 906 1312 657 
Q 1506 409 1894 409 
Q 2359 409 2629 706 
Q 2900 1003 2900 1516 
L 2900 3500 
L 3475 3500 
L 3475 0 
L 2900 0 
L 2900 538 
Q 2691 219 2414 64 
Q 2138 -91 1772 -91 
Q 1169 -91 856 284 
Q 544 659 544 1381 
z
M 1991 3584 
L 1991 3584 
z
" transform="scale(0.015625)"/>
       <path id="DejaVuSans-6e" d="M 3513 2113 
L 3513 0 
L 2938 0 
L 2938 2094 
Q 2938 2591 2744 2837 
Q 2550 3084 2163 3084 
Q 1697 3084 1428 2787 
Q 1159 2491 1159 1978 
L 1159 0 
L 581 0 
L 581 3500 
L 1159 3500 
L 1159 2956 
Q 1366 3272 1645 3428 
Q 1925 3584 2291 3584 
Q 2894 3584 3203 3211 
Q 3513 2838 3513 2113 
z
" transform="scale(0.015625)"/>
       <path id="DejaVuSans-74" d="M 1172 4494 
L 1172 3500 
L 2356 3500 
L 2356 3053 
L 1172 3053 
L 1172 1153 
Q 1172 725 1289 603 
Q 1406 481 1766 481 
L 2356 481 
L 2356 0 
L 1766 0 
Q 1100 0 847 248 
Q 594 497 594 1153 
L 594 3053 
L 172 3053 
L 172 3500 
L 594 3500 
L 594 4494 
L 1172 4494 
z
" transform="scale(0.015625)"/>
       <path id="DejaVuSans-66" d="M 2375 4863 
L 2375 4384 
L 1825 4384 
Q 1516 4384 1395 4259 
Q 1275 4134 1275 3809 
L 1275 3500 
L 2222 3500 
L 2222 3053 
L 1275 3053 
L 1275 0 
L 697 0 
L 697 3053 
L 147 3053 
L 147 3500 
L 697 3500 
L 697 3744 
Q 697 4328 969 4595 
Q 1241 4863 1831 4863 
L 2375 4863 
z
" transform="scale(0.015625)"/>
       <path id="DejaVuSans-62" d="M 3116 1747 
Q 3116 2381 2855 2742 
Q 2594 3103 2138 3103 
Q 1681 3103 1420 2742 
Q 1159 2381 1159 1747 
Q 1159 1113 1420 752 
Q 1681 391 2138 391 
Q 2594 391 2855 752 
Q 3116 1113 3116 1747 
z
M 1159 2969 
Q 1341 3281 1617 3432 
Q 1894 3584 2278 3584 
Q 2916 3584 3314 3078 
Q 3713 2572 3713 1747 
Q 3713 922 3314 415 
Q 2916 -91 2278 -91 
Q 1894 -91 1617 61 
Q 1341 213 1159 525 
L 1159 0 
L 581 0 
L 581 4863 
L 1159 4863 
L 1159 2969 
z
" transform="scale(0.015625)"/>
       <path id="DejaVuSans-6a" d="M 603 3500 
L 1178 3500 
L 1178 -63 
Q 1178 -731 923 -1031 
Q 669 -1331 103 -1331 
L -116 -1331 
L -116 -844 
L 38 -844 
Q 366 -844 484 -692 
Q 603 -541 603 -63 
L 603 3500 
z
M 603 4863 
L 1178 4863 
L 1178 4134 
L 603 4134 
L 603 4863 
z
" transform="scale(0.015625)"/>
       <path id="DejaVuSans-65" d="M 3597 1894 
L 3597 1613 
L 953 1613 
Q 991 1019 1311 708 
Q 1631 397 2203 397 
Q 2534 397 2845 478 
Q 3156 559 3463 722 
L 3463 178 
Q 3153 47 2828 -22 
Q 2503 -91 2169 -91 
Q 1331 -91 842 396 
Q 353 884 353 1716 
Q 353 2575 817 3079 
Q 1281 3584 2069 3584 
Q 2775 3584 3186 3129 
Q 3597 2675 3597 1894 
z
M 3022 2063 
Q 3016 2534 2758 2815 
Q 2500 3097 2075 3097 
Q 1594 3097 1305 2825 
Q 1016 2553 972 2059 
L 3022 2063 
z
" transform="scale(0.015625)"/>
       <path id="DejaVuSans-63" d="M 3122 3366 
L 3122 2828 
Q 2878 2963 2633 3030 
Q 2388 3097 2138 3097 
Q 1578 3097 1268 2742 
Q 959 2388 959 1747 
Q 959 1106 1268 751 
Q 1578 397 2138 397 
Q 2388 397 2633 464 
Q 2878 531 3122 666 
L 3122 134 
Q 2881 22 2623 -34 
Q 2366 -91 2075 -91 
Q 1284 -91 818 406 
Q 353 903 353 1747 
Q 353 2603 823 3093 
Q 1294 3584 2113 3584 
Q 2378 3584 2631 3529 
Q 2884 3475 3122 3366 
z
" transform="scale(0.015625)"/>
       <path id="DejaVuSans-73" d="M 2834 3397 
L 2834 2853 
Q 2591 2978 2328 3040 
Q 2066 3103 1784 3103 
Q 1356 3103 1142 2972 
Q 928 2841 928 2578 
Q 928 2378 1081 2264 
Q 1234 2150 1697 2047 
L 1894 2003 
Q 2506 1872 2764 1633 
Q 3022 1394 3022 966 
Q 3022 478 2636 193 
Q 2250 -91 1575 -91 
Q 1294 -91 989 -36 
Q 684 19 347 128 
L 347 722 
Q 666 556 975 473 
Q 1284 391 1588 391 
Q 1994 391 2212 530 
Q 2431 669 2431 922 
Q 2431 1156 2273 1281 
Q 2116 1406 1581 1522 
L 1381 1569 
Q 847 1681 609 1914 
Q 372 2147 372 2553 
Q 372 3047 722 3315 
Q 1072 3584 1716 3584 
Q 2034 3584 2315 3537 
Q 2597 3491 2834 3397 
z
" transform="scale(0.015625)"/>
       <path id="DejaVuSans-69" d="M 603 3500 
L 1178 3500 
L 1178 0 
L 603 0 
L 603 3500 
z
M 603 4863 
L 1178 4863 
L 1178 4134 
L 603 4134 
L 603 4863 
z
" transform="scale(0.015625)"/>
       <path id="DejaVuSans-61" d="M 2194 1759 
Q 1497 1759 1228 1600 
Q 959 1441 959 1056 
Q 959 750 1161 570 
Q 1363 391 1709 391 
Q 2188 391 2477 730 
Q 2766 1069 2766 1631 
L 2766 1759 
L 2194 1759 
z
M 3341 1997 
L 3341 0 
L 2766 0 
L 2766 531 
Q 2569 213 2275 61 
Q 1981 -91 1556 -91 
Q 1019 -91 701 211 
Q 384 513 384 1019 
Q 384 1609 779 1909 
Q 1175 2209 1959 2209 
L 2766 2209 
L 2766 2266 
Q 2766 2663 2505 2880 
Q 2244 3097 1772 3097 
Q 1472 3097 1187 3025 
Q 903 2953 641 2809 
L 641 3341 
Q 956 3463 1253 3523 
Q 1550 3584 1831 3584 
Q 2591 3584 2966 3190 
Q 3341 2797 3341 1997 
z
" transform="scale(0.015625)"/>
       <path id="DejaVuSans-6c" d="M 603 4863 
L 1178 4863 
L 1178 0 
L 603 0 
L 603 4863 
z
" transform="scale(0.015625)"/>
      </defs>
      <use xlink:href="#DejaVuSans-41"/>
      <use xlink:href="#DejaVuSans-6d" transform="translate(68.408203 0)"/>
      <use xlink:href="#DejaVuSans-6f" transform="translate(165.820312 0)"/>
      <use xlink:href="#DejaVuSans-75" transform="translate(227.001953 0)"/>
      <use xlink:href="#DejaVuSans-6e" transform="translate(290.380859 0)"/>
      <use xlink:href="#DejaVuSans-74" transform="translate(353.759766 0)"/>
      <use xlink:href="#DejaVuSans-20" transform="translate(392.96875 0)"/>
      <use xlink:href="#DejaVuSans-6f" transform="translate(424.755859 0)"/>
      <use xlink:href="#DejaVuSans-66" transform="translate(485.9375 0)"/>
      <use xlink:href="#DejaVuSans-20" transform="translate(521.142578 0)"/>
      <use xlink:href="#DejaVuSans-6f" transform="translate(552.929688 0)"/>
      <use xlink:href="#DejaVuSans-62" transform="translate(614.111328 0)"/>
      <use xlink:href="#DejaVuSans-6a" transform="translate(677.587891 0)"/>
      <use xlink:href="#DejaVuSans-65" transform="translate(705.371094 0)"/>
      <use xlink:href="#DejaVuSans-63" transform="translate(766.894531 0)"/>
      <use xlink:href="#DejaVuSans-74" transform="translate(821.875 0)"/>
      <use xlink:href="#DejaVuSans-73" transform="translate(861.083984 0)"/>
      <use xlink:href="#DejaVuSans-20" transform="translate(913.183594 0)"/>
      <use xlink:href="#DejaVuSans-69" transform="translate(944.970703 0)"/>
      <use xlink:href="#DejaVuSans-6e" transform="translate(972.753906 0)"/>
      <use xlink:href="#DejaVuSans-20" transform="translate(1036.132812 0)"/>
      <use xlink:href="#DejaVuSans-74" transform="translate(1067.919922 0)"/>
      <use xlink:href="#DejaVuSans-61" transform="translate(1107.128906 0)"/>
      <use xlink:href="#DejaVuSans-62" transform="translate(1168.408203 0)"/>
      <use xlink:href="#DejaVuSans-6c" transform="translate(1231.884766 0)"/>
      <use xlink:href="#DejaVuSans-65" transform="translate(1259.667969 0)"/>
     </g>
    </g>
   </g>
   <g id="matplotlib.axis_2">
    <g id="ytick_1">
     <g id="line2d_10">
      <defs>
       <path id="mf0b6caa907" d="M 0 0 
L -3.5 0 
" style="stroke: #000000; stroke-width: 0.8"/>
      </defs>
      <g>
       <use xlink:href="#mf0b6caa907" x="61.715625" y="288.430125" style="stroke: #000000; stroke-width: 0.8"/>
      </g>
     </g>
     <g id="text_11">
      <!-- 0 -->
      <g transform="translate(48.353125 292.229344) scale(0.1 -0.1)">
       <use xlink:href="#DejaVuSans-30"/>
      </g>
     </g>
    </g>
    <g id="ytick_2">
     <g id="line2d_11">
      <g>
       <use xlink:href="#mf0b6caa907" x="61.715625" y="247.674761" style="stroke: #000000; stroke-width: 0.8"/>
      </g>
     </g>
     <g id="text_12">
      <!-- 50 µs -->
      <g transform="translate(27.240625 251.473979) scale(0.1 -0.1)">
       <defs>
        <path id="DejaVuSans-b5" d="M 544 -1331 
L 544 3500 
L 1119 3500 
L 1119 1325 
Q 1119 872 1334 640 
Q 1550 409 1972 409 
Q 2434 409 2667 671 
Q 2900 934 2900 1459 
L 2900 3500 
L 3475 3500 
L 3475 806 
Q 3475 619 3529 530 
Q 3584 441 3700 441 
Q 3728 441 3778 458 
Q 3828 475 3916 513 
L 3916 50 
Q 3788 -22 3673 -56 
Q 3559 -91 3450 -91 
Q 3234 -91 3106 31 
Q 2978 153 2931 403 
Q 2775 156 2548 32 
Q 2322 -91 2016 -91 
Q 1697 -91 1473 31 
Q 1250 153 1119 397 
L 1119 -1331 
L 544 -1331 
z
" transform="scale(0.015625)"/>
       </defs>
       <use xlink:href="#DejaVuSans-35"/>
       <use xlink:href="#DejaVuSans-30" transform="translate(63.623047 0)"/>
       <use xlink:href="#DejaVuSans-20" transform="translate(127.246094 0)"/>
       <use xlink:href="#DejaVuSans-b5" transform="translate(159.033203 0)"/>
       <use xlink:href="#DejaVuSans-73" transform="translate(222.65625 0)"/>
      </g>
     </g>
    </g>
    <g id="ytick_3">
     <g id="line2d_12">
      <g>
       <use xlink:href="#mf0b6caa907" x="61.715625" y="206.919396" style="stroke: #000000; stroke-width: 0.8"/>
      </g>
     </g>
     <g id="text_13">
      <!-- 100 µs -->
      <g transform="translate(20.878125 210.718615) scale(0.1 -0.1)">
       <use xlink:href="#DejaVuSans-31"/>
       <use xlink:href="#DejaVuSans-30" transform="translate(63.623047 0)"/>
       <use xlink:href="#DejaVuSans-30" transform="translate(127.246094 0)"/>
       <use xlink:href="#DejaVuSans-20" transform="translate(190.869141 0)"/>
       <use xlink:href="#DejaVuSans-b5" transform="translate(222.65625 0)"/>
       <use xlink:href="#DejaVuSans-73" transform="translate(286.279297 0)"/>
      </g>
     </g>
    </g>
    <g id="ytick_4">
     <g id="line2d_13">
      <g>
       <use xlink:href="#mf0b6caa907" x="61.715625" y="166.164032" style="stroke: #000000; stroke-width: 0.8"/>
      </g>
     </g>
     <g id="text_14">
      <!-- 150 µs -->
      <g transform="translate(20.878125 169.96325) scale(0.1 -0.1)">
       <use xlink:href="#DejaVuSans-31"/>
       <use xlink:href="#DejaVuSans-35" transform="translate(63.623047 0)"/>
       <use xlink:href="#DejaVuSans-30" transform="translate(127.246094 0)"/>
       <use xlink:href="#DejaVuSans-20" transform="translate(190.869141 0)"/>
       <use xlink:href="#DejaVuSans-b5" transform="translate(222.65625 0)"/>
       <use xlink:href="#DejaVuSans-73" transform="translate(286.279297 0)"/>
      </g>
     </g>
    </g>
    <g id="ytick_5">
     <g id="line2d_14">
      <g>
       <use xlink:href="#mf0b6caa907" x="61.715625" y="125.408667" style="stroke: #000000; stroke-width: 0.8"/>
      </g>
     </g>
     <g id="text_15">
      <!-- 200 µs -->
      <g transform="translate(20.878125 129.207886) scale(0.1 -0.1)">
       <use xlink:href="#DejaVuSans-32"/>
       <use xlink:href="#DejaVuSans-30" transform="translate(63.623047 0)"/>
       <use xlink:href="#DejaVuSans-30" transform="translate(127.246094 0)"/>
       <use xlink:href="#DejaVuSans-20" transform="translate(190.869141 0)"/>
       <use xlink:href="#DejaVuSans-b5" transform="translate(222.65625 0)"/>
       <use xlink:href="#DejaVuSans-73" transform="translate(286.279297 0)"/>
      </g>
     </g>
    </g>
    <g id="ytick_6">
     <g id="line2d_15">
      <g>
       <use xlink:href="#mf0b6caa907" x="61.715625" y="84.653303" style="stroke: #000000; stroke-width: 0.8"/>
      </g>
     </g>
     <g id="text_16">
      <!-- 250 µs -->
      <g transform="translate(20.878125 88.452522) scale(0.1 -0.1)">
       <use xlink:href="#DejaVuSans-32"/>
       <use xlink:href="#DejaVuSans-35" transform="translate(63.623047 0)"/>
       <use xlink:href="#DejaVuSans-30" transform="translate(127.246094 0)"/>
       <use xlink:href="#DejaVuSans-20" transform="translate(190.869141 0)"/>
       <use xlink:href="#DejaVuSans-b5" transform="translate(222.65625 0)"/>
       <use xlink:href="#DejaVuSans-73" transform="translate(286.279297 0)"/>
      </g>
     </g>
    </g>
    <g id="ytick_7">
     <g id="line2d_16">
      <g>
       <use xlink:href="#mf0b6caa907" x="61.715625" y="43.897938" style="stroke: #000000; stroke-width: 0.8"/>
      </g>
     </g>
     <g id="text_17">
      <!-- 300 µs -->
      <g transform="translate(20.878125 47.697157) scale(0.1 -0.1)">
       <use xlink:href="#DejaVuSans-33"/>
       <use xlink:href="#DejaVuSans-30" transform="translate(63.623047 0)"/>
       <use xlink:href="#DejaVuSans-30" transform="translate(127.246094 0)"/>
       <use xlink:href="#DejaVuSans-20" transform="translate(190.869141 0)"/>
       <use xlink:href="#DejaVuSans-b5" transform="translate(222.65625 0)"/>
       <use xlink:href="#DejaVuSans-73" transform="translate(286.279297 0)"/>
      </g>
     </g>
    </g>
    <g id="text_18">
     <!-- Read latency (s) -->
     <g transform="translate(14.798438 195.98975) rotate(-90) scale(0.1 -0.1)">
      <defs>
       <path id="DejaVuSans-52" d="M 2841 2188 
Q 3044 2119 3236 1894 
Q 3428 1669 3622 1275 
L 4263 0 
L 3584 0 
L 2988 1197 
Q 2756 1666 2539 1819 
Q 2322 1972 1947 1972 
L 1259 1972 
L 1259 0 
L 628 0 
L 628 4666 
L 2053 4666 
Q 2853 4666 3247 4331 
Q 3641 3997 3641 3322 
Q 3641 2881 3436 2590 
Q 3231 2300 2841 2188 
z
M 1259 4147 
L 1259 2491 
L 2053 2491 
Q 2509 2491 2742 2702 
Q 2975 2913 2975 3322 
Q 2975 3731 2742 3939 
Q 2509 4147 2053 4147 
L 1259 4147 
z
" transform="scale(0.015625)"/>
       <path id="DejaVuSans-64" d="M 2906 2969 
L 2906 4863 
L 3481 4863 
L 3481 0 
L 2906 0 
L 2906 525 
Q 2725 213 2448 61 
Q 2172 -91 1784 -91 
Q 1150 -91 751 415 
Q 353 922 353 1747 
Q 353 2572 751 3078 
Q 1150 3584 1784 3584 
Q 2172 3584 2448 3432 
Q 2725 3281 2906 2969 
z
M 947 1747 
Q 947 1113 1208 752 
Q 1469 391 1925 391 
Q 2381 391 2643 752 
Q 2906 1113 2906 1747 
Q 2906 2381 2643 2742 
Q 2381 3103 1925 3103 
Q 1469 3103 1208 2742 
Q 947 2381 947 1747 
z
" transform="scale(0.015625)"/>
       <path id="DejaVuSans-79" d="M 2059 -325 
Q 1816 -950 1584 -1140 
Q 1353 -1331 966 -1331 
L 506 -1331 
L 506 -850 
L 844 -850 
Q 1081 -850 1212 -737 
Q 1344 -625 1503 -206 
L 1606 56 
L 191 3500 
L 800 3500 
L 1894 763 
L 2988 3500 
L 3597 3500 
L 2059 -325 
z
" transform="scale(0.015625)"/>
       <path id="DejaVuSans-28" d="M 1984 4856 
Q 1566 4138 1362 3434 
Q 1159 2731 1159 2009 
Q 1159 1288 1364 580 
Q 1569 -128 1984 -844 
L 1484 -844 
Q 1016 -109 783 600 
Q 550 1309 550 2009 
Q 550 2706 781 3412 
Q 1013 4119 1484 4856 
L 1984 4856 
z
" transform="scale(0.015625)"/>
       <path id="DejaVuSans-29" d="M 513 4856 
L 1013 4856 
Q 1481 4119 1714 3412 
Q 1947 2706 1947 2009 
Q 1947 1309 1714 600 
Q 1481 -109 1013 -844 
L 513 -844 
Q 928 -128 1133 580 
Q 1338 1288 1338 2009 
Q 1338 2731 1133 3434 
Q 928 4138 513 4856 
z
" transform="scale(0.015625)"/>
      </defs>
      <use xlink:href="#DejaVuSans-52"/>
      <use xlink:href="#DejaVuSans-65" transform="translate(64.982422 0)"/>
      <use xlink:href="#DejaVuSans-61" transform="translate(126.505859 0)"/>
      <use xlink:href="#DejaVuSans-64" transform="translate(187.785156 0)"/>
      <use xlink:href="#DejaVuSans-20" transform="translate(251.261719 0)"/>
      <use xlink:href="#DejaVuSans-6c" transform="translate(283.048828 0)"/>
      <use xlink:href="#DejaVuSans-61" transform="translate(310.832031 0)"/>
      <use xlink:href="#DejaVuSans-74" transform="translate(372.111328 0)"/>
      <use xlink:href="#DejaVuSans-65" transform="translate(411.320312 0)"/>
      <use xlink:href="#DejaVuSans-6e" transform="translate(472.84375 0)"/>
      <use xlink:href="#DejaVuSans-63" transform="translate(536.222656 0)"/>
      <use xlink:href="#DejaVuSans-79" transform="translate(591.203125 0)"/>
      <use xlink:href="#DejaVuSans-20" transform="translate(650.382812 0)"/>
      <use xlink:href="#DejaVuSans-28" transform="translate(682.169922 0)"/>
      <use xlink:href="#DejaVuSans-73" transform="translate(721.183594 0)"/>
      <use xlink:href="#DejaVuSans-29" transform="translate(773.283203 0)"/>
     </g>
    </g>
   </g>
   <g id="line2d_17">
    <path d="M 147.070811 199.778696 
L 148.812753 201.465937 
L 154.038581 206.473845 
L 154.909552 206.917331 
L 155.780523 207.019981 
L 157.08698 207.014001 
L 157.522466 207.552164 
L 158.393437 207.052869 
L 159.699894 206.234661 
L 160.13538 204.457726 
L 160.570866 204.319199 
L 161.441837 203.894648 
L 161.877322 203.746154 
L 162.748294 203.777049 
L 164.054751 203.363461 
L 164.490236 203.354491 
L 164.925722 203.139226 
L 165.361208 203.233903 
L 166.232179 203.08242 
L 166.667665 203.344525 
L 167.974121 203.550821 
L 168.845093 203.367447 
L 171.022521 203.353495 
L 171.893492 202.947879 
L 172.328978 203.048535 
L 172.764463 202.528311 
L 174.07092 202.503396 
L 174.941892 202.238301 
L 175.812863 202.085821 
L 177.11932 202.026025 
L 178.425777 201.508791 
L 179.296748 201.457964 
L 179.732234 201.281566 
L 180.167719 201.317444 
L 180.603205 201.212801 
L 181.474176 200.889903 
L 181.909662 200.6856 
L 183.216119 200.700549 
L 184.08709 200.481298 
L 184.958061 200.383631 
L 185.829033 200.350743 
L 186.700004 200.119532 
L 188.006461 199.901277 
L 188.441947 201.160978 
L 192.796803 201.040389 
L 193.232289 200.866981 
L 193.667774 200.976607 
L 196.716174 200.750379 
L 197.151659 200.995542 
L 198.458116 201.260638 
L 198.893602 201.495835 
L 199.329088 201.009495 
L 199.764573 201.291532 
L 200.200059 201.204828 
L 202.812973 201.935335 
L 203.683944 202.090804 
L 204.990401 202.904029 
L 205.425887 202.997709 
L 207.603315 203.976369 
L 208.474286 204.197614 
L 208.909772 204.495597 
L 211.958171 205.385559 
L 212.393657 205.27095 
L 212.829142 205.577903 
L 214.135599 205.968569 
L 215.006571 206.263562 
L 219.361427 206.114073 
L 220.232398 206.135998 
L 220.667884 206.274525 
L 223.716283 206.191807 
L 224.151769 206.908362 
L 225.893712 206.881454 
L 232.861482 206.44893 
L 234.167939 206.422022 
L 235.909881 206.420028 
L 238.522795 206.508726 
L 238.958281 205.931695 
L 242.442166 205.892828 
L 242.877652 205.581889 
L 243.313137 205.714437 
L 244.619594 206.511716 
L 245.05508 208.258753 
L 245.490566 208.368379 
L 246.797022 209.050052 
L 247.667994 209.284253 
L 248.974451 209.981872 
L 249.409936 210.10246 
L 249.845422 210.373535 
L 250.280908 210.140331 
L 250.716393 210.281848 
L 251.151879 210.573851 
L 252.458336 210.852899 
L 252.893821 210.854892 
L 253.329307 210.97847 
L 254.200278 210.855889 
L 254.635764 211.035276 
L 255.506735 210.850906 
L 256.377707 211.12796 
L 256.813192 211.247552 
L 257.248678 211.089093 
L 257.684164 211.546532 
L 258.119649 211.640212 
L 258.555135 211.372127 
L 259.426106 211.56746 
L 260.297077 211.518627 
L 262.03902 210.913691 
L 262.474506 211.098062 
L 264.216448 210.799083 
L 265.522905 210.595776 
L 266.829362 211.018334 
L 267.700333 210.749253 
L 269.00679 210.687464 
L 269.442276 210.767191 
L 270.748733 210.68846 
L 272.05519 211.163838 
L 272.490675 210.999399 
L 273.797132 211.088096 
L 274.668104 211.284426 
L 275.539075 211.223634 
L 276.410046 211.549521 
L 277.281017 211.487732 
L 279.02296 211.630246 
L 279.893931 211.337246 
L 280.329417 211.358174 
L 280.764902 211.22164 
L 282.506845 211.532579 
L 282.942331 209.893174 
L 283.813302 209.335079 
L 284.248788 209.832382 
L 284.684273 209.608147 
L 285.119759 209.728736 
L 285.555245 209.283256 
L 286.426216 208.923484 
L 287.297187 208.534811 
L 291.652044 206.415045 
L 292.523015 202.569172 
L 292.9585 201.47092 
L 293.829472 201.052349 
L 295.135929 200.266032 
L 296.442386 199.900281 
L 296.877871 199.685015 
L 297.313357 199.776702 
L 299.055299 199.011315 
L 299.490785 198.792063 
L 299.926271 198.78409 
L 300.361756 198.536934 
L 302.103699 198.083481 
L 303.845641 197.232386 
L 304.281127 197.124754 
L 305.152098 196.605526 
L 306.894041 196.206886 
L 307.329527 196.118189 
L 309.506955 195.096675 
L 311.684383 194.341254 
L 312.555354 193.76522 
L 314.732782 192.887216 
L 315.168268 192.06004 
L 316.039239 191.472046 
L 316.910211 191.118254 
L 318.216668 190.30503 
L 318.652153 190.207363 
L 319.95861 189.486822 
L 320.394096 189.358261 
L 320.829581 189.063268 
L 321.265067 188.946666 
L 322.571524 188.103543 
L 323.00701 188.035775 
L 323.442495 187.800577 
L 323.877981 188.261006 
L 324.313467 187.987938 
L 324.748952 187.856387 
L 326.490895 186.869754 
L 326.92638 186.763118 
L 327.361866 186.540877 
L 327.797352 186.855802 
L 330.845751 185.422693 
L 331.281237 185.232343 
L 332.152208 185.07488 
L 334.765122 183.51321 
L 335.200608 183.616857 
L 335.636093 183.517197 
L 336.507065 183.031853 
L 338.249007 182.570428 
L 338.684493 182.706962 
L 339.99095 182.44984 
L 340.426435 182.523588 
L 340.861921 182.362139 
L 342.168378 182.478741 
L 342.603864 182.503656 
L 343.039349 182.355163 
L 343.474835 182.483724 
L 343.91032 182.340214 
L 344.781292 182.416952 
L 346.087749 182.871401 
L 346.95872 183.211241 
L 347.829691 183.271037 
L 348.700662 183.56603 
L 349.136148 183.509224 
L 350.007119 183.824149 
L 352.184548 183.737445 
L 352.620033 182.815591 
L 353.055519 182.776724 
L 353.92649 183.049792 
L 359.152318 182.166806 
L 360.458775 182.38805 
L 361.765232 182.284404 
L 363.071689 182.20069 
L 363.507174 182.038244 
L 363.94266 182.152853 
L 365.249117 182.012333 
L 365.684603 182.155843 
L 367.426545 181.576819 
L 367.862031 183.185329 
L 369.168488 183.177357 
L 371.345916 183.733459 
L 372.652373 183.604897 
L 373.087858 183.606891 
L 373.523344 183.720503 
L 374.394315 183.649744 
L 374.829801 183.65971 
L 375.265287 182.425921 
L 376.136258 182.429908 
L 376.571744 182.298357 
L 377.442715 185.680812 
L 377.8782 186.503006 
L 378.749172 186.514965 
L 379.620143 186.436234 
L 380.055629 186.579744 
L 380.491114 186.388397 
L 380.9266 186.384411 
L 381.362086 186.123302 
L 386.152428 185.805387 
L 386.587913 185.572183 
L 387.023399 185.555241 
L 387.458885 185.701741 
L 387.89437 185.580156 
L 388.765341 185.602081 
L 389.200827 185.444618 
L 390.94277 185.403758 
L 391.378255 185.212411 
L 392.684712 185.146635 
L 393.120198 185.233339 
L 393.555684 183.757377 
L 394.426655 183.673663 
L 395.297626 183.364717 
L 396.168597 183.337809 
L 396.604083 183.224197 
L 397.475054 183.42551 
L 397.91054 183.274027 
L 398.346026 183.377673 
L 398.781511 182.410972 
L 399.652483 182.550496 
L 400.087968 183.261071 
L 401.394425 183.202272 
L 401.829911 183.140482 
L 401.829911 183.140482 
" clip-path="url(#p0e6a7c06d2)" style="fill: none; stroke: #1f77b4; stroke-opacity: 0.8; stroke-width: 1.5; stroke-linecap: square"/>
   </g>
   <g id="line2d_18">
    <path d="M 147.070811 77.329619 
L 147.506296 77.104387 
L 148.377268 77.915619 
L 148.812753 77.582755 
L 149.683725 77.288758 
L 150.554696 78.097996 
L 150.990181 77.854826 
L 151.425667 78.307282 
L 152.296638 79.4155 
L 154.474067 81.484438 
L 154.909552 81.937891 
L 155.345038 81.950846 
L 155.780523 82.081401 
L 156.216009 82.681353 
L 157.08698 82.465091 
L 157.522466 82.472067 
L 157.957952 82.323574 
L 160.570866 84.961571 
L 161.877322 84.377564 
L 162.312808 84.763248 
L 162.748294 84.924696 
L 164.054751 86.084737 
L 164.490236 86.615924 
L 164.925722 86.903941 
L 165.796693 86.735516 
L 166.232179 86.636853 
L 166.667665 86.67273 
L 167.10315 86.574067 
L 167.538636 86.167455 
L 168.409607 84.862907 
L 168.845093 84.206149 
L 169.280578 83.793557 
L 170.587035 83.773625 
L 171.022521 83.99487 
L 171.893492 84.124428 
L 172.328978 83.609186 
L 172.764463 83.560353 
L 173.199949 83.360037 
L 173.635435 83.289278 
L 174.07092 82.649462 
L 174.506406 82.952428 
L 175.377377 83.1657 
L 175.812863 83.328146 
L 176.248349 84.046693 
L 176.683834 83.919129 
L 177.11932 84.52805 
L 177.554806 84.699465 
L 177.990291 84.584856 
L 178.425777 85.425986 
L 178.861262 85.545577 
L 179.296748 85.989064 
L 179.732234 85.937241 
L 180.167719 83.317183 
L 180.603205 83.217523 
L 181.038691 82.705271 
L 181.474176 82.703278 
L 181.909662 82.183054 
L 184.08709 82.003666 
L 184.958061 82.008649 
L 185.393547 81.984731 
L 185.829033 81.603033 
L 186.264518 81.606023 
L 186.700004 82.38935 
L 190.619375 86.986659 
L 191.05486 86.914904 
L 191.490346 86.407635 
L 191.925832 86.235224 
L 192.361317 85.466846 
L 193.232289 84.393509 
L 193.667774 83.662006 
L 194.10326 82.103326 
L 194.538746 81.99669 
L 195.409717 83.061057 
L 196.716174 82.939472 
L 198.458116 80.806751 
L 198.893602 80.855585 
L 200.200059 79.17233 
L 201.07103 79.147415 
L 202.812973 78.834483 
L 203.248458 79.228139 
L 203.683944 79.190268 
L 204.11943 79.314843 
L 204.554915 80.069268 
L 204.990401 80.031397 
L 205.425887 79.549044 
L 205.861372 79.505193 
L 206.296858 79.115523 
L 206.732343 79.074663 
L 207.167829 79.155387 
L 208.909772 77.095418 
L 209.345257 77.132292 
L 209.780743 76.730663 
L 210.216229 77.296731 
L 210.651714 77.292745 
L 211.0872 76.913041 
L 211.522686 77.085452 
L 212.393657 76.096826 
L 212.829142 76.264255 
L 213.264628 76.201469 
L 213.700114 76.265251 
L 214.135599 76.77551 
L 215.877542 77.02466 
L 216.748513 77.113357 
L 217.619485 76.061945 
L 218.490456 77.219993 
L 219.361427 76.045003 
L 219.796913 76.036034 
L 220.232398 75.516806 
L 220.667884 76.209442 
L 221.10337 76.104799 
L 221.974341 77.444228 
L 222.845312 76.497459 
L 223.716283 75.389241 
L 224.587255 74.329857 
L 225.02274 74.454432 
L 225.458226 73.8485 
L 225.893712 74.440479 
L 226.329197 74.374704 
L 226.764683 74.067752 
L 227.635654 72.634643 
L 228.506626 72.091497 
L 229.377597 71.915099 
L 229.813082 71.675915 
L 230.248568 71.959946 
L 230.684054 72.544949 
L 231.555025 72.276864 
L 231.990511 71.702823 
L 232.425996 72.260918 
L 232.861482 72.036684 
L 233.296968 72.027714 
L 233.732453 72.13435 
L 234.167939 72.67052 
L 234.603425 72.654575 
L 235.474396 71.668939 
L 235.909881 71.740694 
L 237.651824 69.568109 
L 238.522795 69.60897 
L 239.393767 68.528657 
L 239.829252 67.829045 
L 240.700224 68.471851 
L 241.135709 68.141977 
L 241.571195 68.312395 
L 242.877652 70.153112 
L 243.313137 70.23284 
L 244.184109 69.032936 
L 245.05508 67.960596 
L 245.490566 68.14098 
L 246.797022 70.114245 
L 247.232508 69.548177 
L 247.667994 70.027541 
L 248.103479 68.994068 
L 248.538965 69.053864 
L 248.974451 68.618351 
L 250.280908 68.626323 
L 250.716393 68.476834 
L 251.151879 67.855953 
L 252.458336 66.551405 
L 252.893821 67.31181 
L 253.764793 67.465286 
L 254.200278 67.252014 
L 254.635764 66.782616 
L 256.377707 66.539446 
L 256.813192 66.104929 
L 257.248678 66.643092 
L 257.684164 65.831861 
L 258.555135 65.06448 
L 258.99062 65.136235 
L 260.297077 64.904028 
L 261.168049 63.730035 
L 261.603534 63.764916 
L 263.345477 61.776701 
L 263.780962 62.317854 
L 264.651934 61.220599 
L 265.087419 63.342358 
L 265.522905 62.878939 
L 267.264848 62.725463 
L 269.00679 64.451572 
L 269.442276 64.436623 
L 269.877761 64.000113 
L 270.313247 63.290535 
L 271.184218 62.635769 
L 272.05519 61.631198 
L 272.490675 60.771133 
L 272.926161 60.81598 
L 273.361647 60.536933 
L 273.797132 60.757181 
L 275.103589 60.687419 
L 275.539075 60.505042 
L 276.410046 61.439851 
L 276.845532 61.49865 
L 277.281017 61.670065 
L 277.716503 62.186303 
L 278.151989 62.164378 
L 278.587474 62.324831 
L 279.02296 63.709106 
L 279.458446 63.661269 
L 280.329417 62.466348 
L 281.635874 62.503222 
L 282.071359 62.912824 
L 282.506845 63.477895 
L 282.942331 63.371259 
L 283.377816 63.867565 
L 283.813302 63.899456 
L 284.684273 64.953858 
L 285.555245 65.038569 
L 286.426216 63.84265 
L 286.861701 63.490851 
L 287.297187 63.84265 
L 287.732673 63.114137 
L 288.603644 63.015473 
L 289.03913 62.593912 
L 289.474615 62.408545 
L 289.910101 62.403562 
L 290.345587 62.542089 
L 290.781072 62.547072 
L 291.216558 62.910831 
L 292.087529 61.7478 
L 294.264957 61.684018 
L 294.700443 61.722885 
L 295.135929 61.481708 
L 296.442386 61.623225 
L 297.748842 61.675048 
L 298.184328 59.857253 
L 298.619814 59.848283 
L 299.055299 59.385861 
L 300.361756 59.325069 
L 300.797242 59.255307 
L 301.232728 59.532361 
L 302.103699 60.612674 
L 302.539185 60.703365 
L 302.97467 60.568824 
L 303.410156 59.628035 
L 303.845641 59.904093 
L 304.281127 60.477137 
L 304.716613 60.344589 
L 305.152098 60.395416 
L 306.458555 58.579613 
L 306.894041 58.546725 
L 307.329527 58.330464 
L 307.765012 58.283623 
L 308.200498 58.006569 
L 308.635984 58.32847 
L 309.071469 58.420157 
L 309.506955 58.713157 
L 309.94244 59.204481 
L 310.377926 59.983821 
L 311.248897 58.612501 
L 311.684383 58.785909 
L 312.119869 58.722127 
L 312.555354 59.376892 
L 312.99084 59.401807 
L 313.426326 59.598137 
L 314.297297 60.863817 
L 314.732782 61.029253 
L 315.168268 61.612263 
L 315.603754 61.029253 
L 316.039239 61.054167 
L 317.781182 59.3161 
L 318.216668 58.646385 
L 319.087639 58.699205 
L 319.95861 59.569236 
L 320.394096 60.060559 
L 320.829581 60.047603 
L 321.265067 60.557861 
L 322.136038 60.587759 
L 322.571524 60.336616 
L 323.877981 58.657348 
L 324.313467 58.616487 
L 324.748952 58.723123 
L 326.055409 57.476379 
L 326.490895 57.374726 
L 326.92638 56.76979 
L 327.361866 53.269736 
L 327.797352 52.755491 
L 328.232837 52.687722 
L 328.668323 52.785389 
L 329.539294 53.684321 
L 329.97478 53.720199 
L 330.845751 52.600022 
L 331.716722 52.471461 
L 332.152208 52.255199 
L 332.587694 51.392144 
L 333.023179 51.589471 
L 333.458665 51.36424 
L 333.894151 50.981546 
L 334.765122 49.733804 
L 335.200608 49.639127 
L 335.636093 49.708889 
L 336.071579 50.337743 
L 336.94255 50.469294 
L 337.378036 51.285508 
L 337.813521 50.560981 
L 338.249007 50.840029 
L 339.119978 51.890444 
L 339.555464 52.001066 
L 340.426435 51.130039 
L 340.861921 51.06825 
L 341.732892 50.494209 
L 342.168378 50.120485 
L 343.039349 50.525104 
L 343.474835 50.53208 
L 343.91032 50.412488 
L 344.781292 51.458916 
L 345.216777 50.274957 
L 345.652263 50.197223 
L 346.087749 50.320801 
L 346.523234 50.667617 
L 346.95872 50.764287 
L 347.394206 50.671604 
L 348.265177 50.693529 
L 348.700662 50.246056 
L 349.136148 50.334753 
L 350.007119 50.341729 
L 351.313576 51.685144 
L 352.620033 51.696107 
L 353.055519 50.946665 
L 353.92649 50.228117 
L 354.361976 50.704491 
L 354.797461 50.457335 
L 355.232947 50.86893 
L 355.668433 51.570535 
L 356.539404 51.134025 
L 356.97489 50.991512 
L 357.410375 51.453933 
L 357.845861 50.911784 
L 358.281347 51.102134 
L 358.716832 51.006461 
L 359.587804 50.274957 
L 360.023289 49.176706 
L 360.458775 49.283342 
L 361.329746 48.450185 
L 361.765232 48.371454 
L 362.200717 48.796005 
L 362.636203 48.793015 
L 363.507174 49.800576 
L 363.94266 49.429842 
L 364.378146 49.481665 
L 365.249117 43.594757 
L 365.684603 43.173196 
L 366.120088 42.592179 
L 366.555574 40.599978 
L 367.862031 40.328904 
L 368.297516 39.989063 
L 369.603973 38.513101 
L 370.474945 38.462274 
L 371.345916 39.775791 
L 371.781401 40.131577 
L 372.652373 39.895383 
L 373.087858 39.380142 
L 373.523344 39.191785 
L 373.95883 39.194774 
L 374.394315 38.91473 
L 374.829801 38.944628 
L 375.265287 36.157142 
L 376.136258 35.152571 
L 376.571744 35.282128 
L 377.007229 34.990125 
L 378.313686 35.06188 
L 378.749172 35.103737 
L 379.184657 35.569149 
L 380.055629 35.677778 
L 380.491114 35.851186 
L 380.9266 36.17807 
L 381.797571 37.228485 
L 382.233057 35.835241 
L 382.668543 36.371411 
L 383.104028 38.749295 
L 383.974999 39.768815 
L 384.410485 39.735927 
L 384.845971 39.293438 
L 385.716942 40.331893 
L 386.152428 40.091713 
L 386.587913 40.071781 
L 387.023399 39.512689 
L 387.458885 39.513686 
L 387.89437 39.212713 
L 388.329856 39.780774 
L 388.765341 39.566506 
L 389.200827 38.930676 
L 389.636313 38.494166 
L 390.507284 38.599805 
L 390.94277 39.126009 
L 391.378255 37.608189 
L 391.813741 37.627125 
L 392.249227 37.830431 
L 392.684712 38.360621 
L 393.120198 38.67754 
L 393.555684 38.322751 
L 393.991169 38.750291 
L 394.426655 38.987482 
L 395.297626 38.538016 
L 395.733112 38.759261 
L 396.168597 38.706441 
L 396.604083 38.1324 
L 397.039569 38.823043 
L 397.475054 39.079169 
L 398.346026 39.16687 
L 398.781511 39.264536 
L 399.652483 38.280893 
L 400.087968 38.286873 
L 400.523454 38.797132 
L 400.958939 38.783179 
L 401.394425 39.321342 
L 401.829911 40.064805 
L 401.829911 40.064805 
" clip-path="url(#p0e6a7c06d2)" style="fill: none; stroke: #ff7f0e; stroke-opacity: 0.8; stroke-width: 1.5; stroke-linecap: square"/>
   </g>
   <g id="line2d_19">
    <path d="M 147.070811 75.555673 
L 147.506296 75.012527 
L 147.941782 75.031462 
L 149.248239 74.755405 
L 149.683725 75.175969 
L 150.554696 75.065347 
L 150.990181 75.636398 
L 151.425667 75.995173 
L 151.861153 75.927405 
L 153.603095 74.81819 
L 154.474067 74.904894 
L 155.345038 74.732483 
L 156.216009 74.007956 
L 157.522466 73.982044 
L 157.957952 73.887367 
L 158.828923 72.801075 
L 160.13538 72.859874 
L 161.006351 72.14631 
L 161.877322 71.975891 
L 162.312808 71.975891 
L 163.183779 70.736123 
L 163.619265 70.863687 
L 164.054751 70.393293 
L 164.925722 70.858704 
L 165.361208 70.92149 
L 166.232179 72.007782 
L 167.538636 73.31831 
L 167.974121 73.761796 
L 168.409607 73.789701 
L 168.845093 74.339823 
L 169.280578 74.280027 
L 169.716064 74.72451 
L 170.15155 74.660728 
L 170.587035 75.050398 
L 171.022521 75.000568 
L 172.328978 76.356939 
L 173.199949 75.436081 
L 174.506406 75.465979 
L 174.941892 74.96469 
L 175.377377 74.990602 
L 175.812863 74.893932 
L 176.248349 74.425531 
L 176.683834 74.157446 
L 177.11932 74.159439 
L 177.554806 73.557493 
L 178.425777 74.562065 
L 178.861262 73.870425 
L 179.296748 73.882384 
L 179.732234 73.255524 
L 180.167719 73.381095 
L 181.038691 74.411578 
L 181.909662 74.332847 
L 182.345148 73.862452 
L 182.780633 74.358758 
L 183.216119 73.976065 
L 183.651605 73.910289 
L 184.08709 74.129541 
L 184.958061 74.077718 
L 185.393547 73.661139 
L 185.829033 73.496701 
L 186.700004 72.735299 
L 187.13549 72.715367 
L 187.570975 73.044245 
L 188.006461 73.138922 
L 188.877432 74.267071 
L 189.312918 74.261092 
L 190.619375 75.579592 
L 191.925832 75.64736 
L 192.361317 76.033044 
L 192.796803 75.634405 
L 193.667774 75.917439 
L 194.10326 76.109782 
L 194.974231 75.174973 
L 195.845202 76.075898 
L 196.280688 76.057959 
L 196.716174 76.209442 
L 197.151659 76.159612 
L 197.587145 75.984211 
L 198.458116 76.171571 
L 199.329088 76.068922 
L 200.200059 76.248309 
L 200.635545 76.419724 
L 202.377487 74.849085 
L 202.812973 74.82118 
L 203.248458 74.360752 
L 205.425887 74.220231 
L 206.732343 73.815612 
L 207.167829 73.329272 
L 207.603315 73.956133 
L 208.0388 73.731898 
L 208.474286 73.720935 
L 208.909772 73.405014 
L 209.345257 73.448864 
L 210.216229 74.292983 
L 210.651714 74.236177 
L 211.0872 74.379687 
L 211.522686 74.04483 
L 211.958171 74.242156 
L 213.264628 72.746262 
L 213.700114 72.721347 
L 214.571085 71.840354 
L 215.006571 71.967918 
L 215.442056 71.934034 
L 215.877542 72.048643 
L 216.313028 72.517044 
L 217.183999 72.717361 
L 218.05497 71.539381 
L 218.925941 71.492541 
L 219.361427 71.25535 
L 220.232398 71.263323 
L 220.667884 71.699833 
L 221.974341 71.715779 
L 222.409827 70.752068 
L 222.845312 70.295626 
L 223.280798 70.047473 
L 223.716283 70.031527 
L 224.151769 70.650415 
L 224.587255 70.630483 
L 225.458226 70.177031 
L 225.893712 69.709626 
L 227.200169 69.381745 
L 227.635654 69.922898 
L 228.07114 70.04847 
L 228.506626 70.612544 
L 228.942111 70.861694 
L 229.377597 70.651412 
L 229.813082 70.866677 
L 230.248568 70.801898 
L 230.684054 71.22047 
L 231.119539 71.171636 
L 231.990511 70.19497 
L 232.425996 70.195966 
L 232.861482 69.562129 
L 233.296968 69.60897 
L 233.732453 69.305007 
L 234.167939 69.758459 
L 235.03891 69.611959 
L 235.474396 69.854133 
L 235.909881 69.85214 
L 236.345367 69.352844 
L 236.780853 69.399684 
L 237.216338 69.217306 
L 237.651824 69.514293 
L 238.08731 69.149538 
L 238.522795 69.551167 
L 238.958281 68.899391 
L 239.393767 68.608385 
L 240.264738 68.615361 
L 240.700224 68.834613 
L 241.135709 69.278099 
L 241.571195 69.2193 
L 242.00668 69.713612 
L 242.442166 69.703646 
L 242.877652 69.328925 
L 243.748623 70.262738 
L 244.619594 70.222874 
L 245.05508 69.547181 
L 245.490566 69.190398 
L 245.926051 69.505323 
L 246.361537 69.26315 
L 246.797022 69.415629 
L 247.667994 69.261157 
L 248.103479 70.032524 
L 248.538965 69.651823 
L 248.974451 69.471439 
L 249.409936 69.511303 
L 250.716393 67.689521 
L 251.587365 66.824473 
L 252.02285 66.893239 
L 252.458336 66.738766 
L 252.893821 66.190637 
L 253.329307 66.615188 
L 253.764793 66.409888 
L 254.200278 66.929116 
L 254.635764 66.488619 
L 256.813192 66.846398 
L 257.684164 66.687939 
L 258.555135 66.844405 
L 258.99062 66.237477 
L 259.426106 66.061079 
L 259.861592 66.165722 
L 260.297077 65.045545 
L 260.732563 64.978773 
L 261.168049 65.442191 
L 261.603534 65.70031 
L 262.474506 66.680963 
L 262.909991 66.276344 
L 263.345477 65.640514 
L 264.651934 67.6078 
L 265.087419 68.099123 
L 265.958391 68.042317 
L 266.393876 67.996473 
L 266.829362 67.577902 
L 267.264848 67.974548 
L 268.135819 67.992487 
L 269.00679 68.806708 
L 269.442276 68.789766 
L 269.877761 69.231259 
L 270.313247 69.136582 
L 270.748733 68.77681 
L 271.619704 68.679143 
L 272.05519 68.101116 
L 272.490675 67.796157 
L 272.926161 68.23466 
L 273.361647 68.153936 
L 273.797132 68.241636 
L 274.668104 67.40848 
L 275.97456 66.180671 
L 276.410046 66.611201 
L 276.845532 66.557385 
L 277.281017 66.261395 
L 277.716503 66.262392 
L 278.151989 66.684949 
L 278.587474 66.431813 
L 279.02296 66.787599 
L 279.458446 66.577317 
L 279.893931 66.514531 
L 280.764902 65.012657 
L 281.200388 65.544841 
L 281.635874 65.358477 
L 282.071359 64.915987 
L 282.506845 65.122283 
L 283.377816 64.737596 
L 283.813302 65.093381 
L 284.248788 65.000698 
L 285.555245 66.42683 
L 286.426216 66.247443 
L 286.861701 66.71983 
L 287.297187 66.946058 
L 288.603644 68.159915 
L 289.03913 68.001456 
L 289.474615 68.04431 
L 290.345587 68.919323 
L 290.781072 68.586459 
L 291.652044 68.946232 
L 292.087529 69.272119 
L 292.523015 68.827636 
L 292.9585 68.554568 
L 293.829472 67.675568 
L 295.135929 67.765262 
L 295.571414 67.279919 
L 296.0069 67.686531 
L 296.877871 67.617766 
L 297.313357 67.955613 
L 297.748842 68.079191 
L 298.184328 68.457898 
L 298.619814 67.848977 
L 299.055299 68.321364 
L 299.926271 68.297446 
L 300.797242 67.324766 
L 301.668213 67.306827 
L 302.103699 66.709864 
L 302.539185 66.73179 
L 302.97467 67.389545 
L 303.410156 67.344698 
L 303.845641 67.436385 
L 304.281127 67.998466 
L 304.716613 67.59883 
L 305.152098 67.026783 
L 306.02307 66.997881 
L 306.458555 67.517109 
L 306.894041 67.492194 
L 307.329527 68.498759 
L 307.765012 68.461885 
L 308.635984 69.683715 
L 309.506955 69.747497 
L 309.94244 70.229851 
L 310.377926 69.929874 
L 310.813412 69.826228 
L 311.684383 67.779215 
L 312.119869 67.80114 
L 312.555354 67.077609 
L 312.99084 67.055684 
L 313.426326 66.848392 
L 313.861811 66.845402 
L 314.297297 66.97496 
L 314.732782 66.753715 
L 315.168268 67.145378 
L 316.039239 67.117473 
L 316.474725 67.26198 
L 316.910211 67.175276 
L 317.345696 66.33315 
L 317.781182 66.422844 
L 318.216668 66.810521 
L 318.652153 67.516113 
L 319.95861 67.391538 
L 320.394096 67.133419 
L 320.829581 66.641099 
L 321.265067 66.739762 
L 321.700553 66.480647 
L 322.136038 66.474667 
L 322.571524 65.968395 
L 323.442495 65.978361 
L 323.877981 66.505562 
L 324.313467 66.658041 
L 324.748952 66.240466 
L 325.184438 66.457725 
L 325.619924 66.13383 
L 326.055409 66.064068 
L 326.490895 66.277341 
L 326.92638 65.837841 
L 327.361866 65.745157 
L 328.232837 65.894647 
L 328.668323 65.545837 
L 329.539294 64.497416 
L 329.97478 65.151184 
L 330.410266 65.328579 
L 331.281237 65.21995 
L 331.716722 64.587109 
L 332.152208 65.07345 
L 333.023179 64.859181 
L 333.458665 65.222939 
L 333.894151 65.439201 
L 334.329636 65.075443 
L 334.765122 65.65646 
L 335.200608 65.658453 
L 336.071579 66.724813 
L 336.507065 67.152354 
L 336.94255 67.07163 
L 337.378036 66.71983 
L 337.813521 67.202184 
L 338.249007 67.085582 
L 338.684493 66.7288 
L 339.119978 66.547419 
L 339.555464 66.954031 
L 339.99095 66.977949 
L 340.861921 66.857361 
L 341.297407 66.774643 
L 342.168378 65.89365 
L 343.039349 66.153762 
L 343.474835 66.515528 
L 343.91032 67.103521 
L 344.345806 67.180259 
L 344.781292 67.398514 
L 345.216777 68.089157 
L 346.087749 68.288477 
L 347.394206 67.028776 
L 347.829691 67.106511 
L 348.265177 67.713439 
L 349.571634 66.127851 
L 350.007119 66.034171 
L 350.442605 66.134827 
L 350.878091 65.530888 
L 351.313576 65.50996 
L 351.749062 65.870728 
L 352.184548 65.462123 
L 352.620033 65.405317 
L 353.055519 65.640514 
L 353.491005 65.403324 
L 353.92649 64.974786 
L 354.797461 65.169123 
L 356.103918 66.835436 
L 357.410375 66.711858 
L 358.281347 65.834851 
L 358.716832 65.326586 
L 359.587804 65.317616 
L 360.458775 65.935507 
L 360.89426 65.945473 
L 361.329746 65.252837 
L 361.765232 64.852205 
L 362.636203 65.642507 
L 363.071689 65.201014 
L 363.507174 65.798973 
L 363.94266 65.825881 
L 365.249117 67.735364 
L 365.684603 68.026371 
L 367.426545 67.803133 
L 367.862031 68.322361 
L 368.733002 68.799732 
L 369.603973 67.968568 
L 370.039459 67.969565 
L 370.474945 67.432398 
L 370.91043 67.709453 
L 371.345916 68.210742 
L 371.781401 68.109089 
L 372.216887 67.822068 
L 372.652373 67.885851 
L 373.087858 67.424426 
L 373.523344 67.491198 
L 374.394315 68.395113 
L 374.829801 67.929701 
L 375.265287 67.84499 
L 375.700772 66.569344 
L 376.136258 66.610205 
L 377.007229 65.922551 
L 377.442715 66.352085 
L 378.313686 66.376004 
L 379.184657 66.987915 
L 379.620143 66.894235 
L 380.055629 66.38298 
L 380.491114 66.420851 
L 380.9266 65.913582 
L 381.362086 66.376004 
L 381.797571 66.341123 
L 382.233057 65.974375 
L 382.668543 65.870728 
L 383.539514 64.67182 
L 383.974999 64.173521 
L 384.410485 64.145616 
L 384.845971 63.647317 
L 385.281456 63.94231 
L 385.716942 63.612436 
L 386.587913 63.45896 
L 387.023399 63.544667 
L 387.458885 64.103759 
L 387.89437 63.642334 
L 388.329856 63.59948 
L 389.200827 62.446416 
L 389.636313 62.674637 
L 390.507284 62.716494 
L 390.94277 62.96365 
L 391.378255 62.362701 
L 391.813741 62.398579 
L 392.249227 62.309882 
L 392.684712 62.420504 
L 393.120198 61.916225 
L 393.555684 61.838491 
L 394.426655 60.397409 
L 395.297626 60.488099 
L 395.733112 60.943545 
L 396.168597 61.621232 
L 396.604083 62.647729 
L 397.039569 62.641749 
L 397.475054 63.292528 
L 397.91054 63.740001 
L 398.781511 63.051351 
L 399.652483 63.192868 
L 400.087968 62.81715 
L 400.958939 62.86399 
L 401.394425 63.254657 
L 401.829911 63.843647 
L 401.829911 63.843647 
" clip-path="url(#p0e6a7c06d2)" style="fill: none; stroke: #2ca02c; stroke-opacity: 0.8; stroke-width: 1.5; stroke-linecap: square"/>
   </g>
   <g id="line2d_20">
    <path d="M 147.070811 176.14436 
L 147.506296 175.873286 
L 148.377268 175.81349 
L 149.248239 174.305636 
L 149.683725 174.335534 
L 150.11921 175.482619 
L 150.554696 174.700289 
L 151.425667 174.713245 
L 151.861153 174.141197 
L 152.296638 174.88466 
L 153.16761 174.926517 
L 153.603095 174.081401 
L 154.038581 174.927514 
L 154.474067 174.941466 
L 154.909552 174.136214 
L 155.780523 174.175082 
L 156.216009 174.926517 
L 157.08698 174.908578 
L 157.522466 174.017619 
L 157.957952 170.564405 
L 158.393437 171.719463 
L 159.699894 171.731422 
L 160.13538 170.790633 
L 160.570866 171.99851 
L 161.006351 171.360687 
L 161.441837 172.171919 
L 161.877322 172.091194 
L 162.312808 166.44048 
L 163.183779 166.365735 
L 163.619265 167.111191 
L 164.054751 167.056378 
L 164.490236 165.744854 
L 165.361208 165.674096 
L 165.796693 166.758395 
L 166.232179 166.710558 
L 166.667665 165.426939 
L 167.974121 165.395048 
L 169.280578 165.317314 
L 169.716064 164.64162 
L 170.15155 165.690041 
L 170.587035 165.672103 
L 171.022521 164.265902 
L 171.893492 164.180195 
L 172.328978 162.947402 
L 172.764463 162.311572 
L 173.199949 163.062011 
L 174.07092 163.001218 
L 174.506406 164.126378 
L 174.941892 164.091497 
L 175.377377 162.999225 
L 175.812863 162.392297 
L 176.248349 162.442127 
L 176.683834 162.645433 
L 177.11932 162.644436 
L 177.554806 162.20095 
L 177.990291 162.140157 
L 178.425777 161.750487 
L 178.861262 162.491957 
L 179.296748 162.425184 
L 179.732234 160.841589 
L 180.167719 160.595429 
L 180.603205 160.53364 
L 181.038691 161.584055 
L 181.474176 161.554157 
L 181.909662 160.213732 
L 182.780633 160.064242 
L 183.216119 160.781793 
L 183.651605 160.733957 
L 184.08709 159.836021 
L 184.958061 159.688525 
L 185.393547 160.560549 
L 185.829033 160.30243 
L 186.264518 159.444358 
L 187.13549 158.848392 
L 187.570975 159.781208 
L 188.006461 159.503157 
L 188.441947 158.627147 
L 188.877432 158.308236 
L 189.312918 158.176685 
L 190.183889 157.56577 
L 190.619375 157.971385 
L 191.490346 157.444185 
L 191.925832 157.966402 
L 192.361317 157.732202 
L 192.796803 156.2971 
L 194.10326 155.527726 
L 194.974231 154.929767 
L 195.845202 154.365692 
L 196.280688 155.217784 
L 197.587145 154.625804 
L 198.022631 153.271427 
L 198.893602 152.705359 
L 199.329088 153.734845 
L 199.764573 153.075097 
L 200.200059 152.951518 
L 200.635545 152.653535 
L 201.07103 151.782508 
L 202.377487 151.517413 
L 203.248458 151.379882 
L 203.683944 151.354968 
L 204.11943 151.733675 
L 204.554915 151.638002 
L 204.990401 152.764158 
L 205.425887 151.474559 
L 205.861372 151.486519 
L 206.296858 151.61508 
L 206.732343 151.583189 
L 207.167829 152.183141 
L 207.603315 150.843712 
L 208.0388 150.747042 
L 208.474286 150.313522 
L 209.345257 150.224825 
L 209.780743 149.583015 
L 210.651714 149.725529 
L 211.0872 150.919454 
L 211.522686 151.028083 
L 211.958171 150.470985 
L 212.393657 150.469988 
L 212.829142 150.597553 
L 213.264628 150.453046 
L 213.700114 151.41277 
L 214.135599 149.913886 
L 215.006571 149.615903 
L 215.877542 149.1774 
L 216.313028 147.775185 
L 216.748513 148.64123 
L 217.619485 148.035298 
L 218.05497 148.989043 
L 218.490456 147.455277 
L 218.925941 147.338675 
L 219.361427 146.371975 
L 220.232398 145.763053 
L 220.667884 144.891029 
L 221.10337 145.767039 
L 221.974341 145.137189 
L 222.845312 144.935876 
L 223.280798 147.190182 
L 223.716283 145.830822 
L 224.587255 145.403281 
L 225.02274 144.525278 
L 225.458226 145.416237 
L 225.893712 145.087359 
L 226.329197 144.04392 
L 226.764683 143.913366 
L 227.200169 143.050312 
L 227.635654 144.127635 
L 228.07114 144.038937 
L 228.506626 143.137016 
L 228.942111 144.060863 
L 229.377597 142.629747 
L 230.248568 142.448366 
L 230.684054 142.197223 
L 231.119539 143.148975 
L 231.555025 142.272965 
L 231.990511 142.166329 
L 232.425996 142.214165 
L 232.861482 140.901645 
L 233.296968 140.766108 
L 233.732453 140.215985 
L 234.167939 140.912608 
L 235.03891 140.361489 
L 235.474396 140.847829 
L 235.909881 139.543281 
L 236.345367 139.237325 
L 236.780853 139.530325 
L 237.651824 138.92539 
L 238.08731 137.556064 
L 238.522795 138.187907 
L 238.958281 137.849064 
L 240.700224 137.353754 
L 241.135709 135.960509 
L 241.571195 135.679469 
L 242.00668 135.568846 
L 242.442166 135.577816 
L 242.877652 138.876557 
L 243.313137 138.767928 
L 244.619594 137.945734 
L 245.05508 138.662288 
L 245.490566 137.46039 
L 245.926051 137.816176 
L 246.361537 137.514207 
L 246.797022 136.219625 
L 247.232508 141.529502 
L 248.538965 140.661465 
L 248.974451 140.553832 
L 249.409936 141.746761 
L 249.845422 139.992747 
L 251.151879 139.260247 
L 251.587365 140.24389 
L 252.02285 139.496441 
L 252.893821 138.832706 
L 253.329307 136.598332 
L 253.764793 137.724489 
L 254.200278 137.564036 
L 254.635764 138.017489 
L 255.07125 137.933775 
L 255.506735 137.141479 
L 255.942221 138.15203 
L 256.813192 137.548091 
L 257.248678 138.497849 
L 257.684164 137.617853 
L 258.119649 137.539122 
L 258.99062 136.986009 
L 259.426106 136.894322 
L 259.861592 135.389458 
L 260.297077 136.164812 
L 260.732563 136.598332 
L 261.168049 136.463792 
L 261.603534 137.211241 
L 262.03902 136.938173 
L 262.474506 137.07969 
L 262.909991 135.217047 
L 263.345477 135.483139 
L 263.780962 135.366537 
L 264.216448 134.516438 
L 264.651934 135.800057 
L 265.087419 135.726309 
L 266.393876 135.097455 
L 266.829362 136.277428 
L 267.264848 135.12237 
L 267.700333 135.001782 
L 268.135819 134.752632 
L 268.571305 133.641425 
L 269.00679 134.233404 
L 269.877761 133.861673 
L 270.748733 133.774969 
L 271.184218 134.284231 
L 271.619704 133.782941 
L 272.05519 133.980268 
L 272.490675 133.692251 
L 272.926161 133.678299 
L 273.361647 134.275261 
L 273.797132 132.860091 
L 274.668104 132.765414 
L 275.103589 132.818234 
L 275.539075 133.245775 
L 275.97456 132.062812 
L 277.281017 132.392686 
L 277.716503 133.528809 
L 278.151989 132.350829 
L 279.02296 132.507295 
L 279.458446 131.943221 
L 279.893931 132.964734 
L 280.329417 133.060408 
L 281.200388 132.912911 
L 281.635874 132.395676 
L 282.506845 132.346843 
L 282.942331 133.468016 
L 283.377816 133.430146 
L 284.248788 130.619738 
L 284.684273 130.228074 
L 285.119759 130.046693 
L 285.555245 130.059649 
L 285.99073 123.922595 
L 286.426216 122.34199 
L 287.297187 122.24233 
L 287.732673 122.246316 
L 288.168158 123.209031 
L 288.603644 122.957888 
L 289.03913 122.033044 
L 289.474615 122.161606 
L 289.910101 122.019092 
L 290.781072 122.233361 
L 291.652044 122.152636 
L 292.087529 122.524367 
L 292.523015 123.964452 
L 292.9585 124.024248 
L 293.393986 124.255459 
L 294.264957 124.342163 
L 294.700443 125.002908 
L 295.135929 125.032806 
L 295.571414 124.34316 
L 296.442386 124.332197 
L 296.877871 124.767711 
L 297.313357 125.743381 
L 297.748842 124.34017 
L 298.619814 124.300306 
L 299.055299 125.833075 
L 299.490785 126.013459 
L 299.926271 124.563408 
L 300.797242 123.720286 
L 301.232728 124.807575 
L 301.668213 124.984969 
L 302.103699 124.559422 
L 302.539185 124.761731 
L 302.97467 124.819534 
L 303.410156 126.201816 
L 303.845641 126.190854 
L 304.716613 126.606435 
L 305.152098 126.638326 
L 305.587584 127.2612 
L 306.02307 127.331959 
L 306.458555 126.067275 
L 306.894041 126.245666 
L 307.329527 126.210786 
L 307.765012 125.434435 
L 308.200498 125.435432 
L 308.635984 126.480864 
L 309.071469 125.186282 
L 309.506955 125.034799 
L 309.94244 125.45636 
L 310.377926 125.45935 
L 310.813412 124.953078 
L 311.248897 125.832078 
L 311.684383 125.717469 
L 312.119869 125.192262 
L 312.99084 124.904245 
L 313.426326 125.682588 
L 313.861811 125.820119 
L 314.297297 125.586915 
L 314.732782 124.033218 
L 315.168268 119.252534 
L 315.603754 119.199715 
L 316.039239 117.699834 
L 316.474725 118.281847 
L 316.910211 118.069572 
L 317.345696 116.920494 
L 317.781182 116.544776 
L 318.216668 116.425184 
L 318.652153 117.411817 
L 319.087639 117.275283 
L 319.523125 116.331504 
L 319.95861 116.314562 
L 320.394096 116.463055 
L 320.829581 117.515463 
L 321.265067 117.487558 
L 322.136038 115.007024 
L 322.571524 114.97314 
L 323.00701 115.980701 
L 323.442495 116.039501 
L 323.877981 115.496354 
L 324.313467 115.480409 
L 324.748952 116.087337 
L 325.619924 115.958776 
L 326.490895 115.909943 
L 326.92638 115.709626 
L 327.361866 116.409239 
L 327.797352 114.934273 
L 328.232837 114.062249 
L 328.668323 114.058263 
L 329.103809 114.170878 
L 329.97478 114.107096 
L 330.410266 114.396109 
L 330.845751 114.388137 
L 331.281237 114.57749 
L 331.716722 115.637871 
L 332.152208 115.818256 
L 332.587694 115.837191 
L 333.023179 116.028538 
L 333.458665 114.915337 
L 333.894151 112.200603 
L 334.329636 112.023208 
L 334.765122 113.539035 
L 335.200608 113.742341 
L 336.507065 113.758286 
L 336.94255 113.621752 
L 337.813521 113.679555 
L 338.249007 115.783375 
L 338.684493 115.764439 
L 339.119978 112.618178 
L 339.555464 112.556389 
L 339.99095 112.368031 
L 340.426435 113.055684 
L 340.861921 113.160327 
L 341.732892 110.223351 
L 342.168378 110.345933 
L 342.603864 111.541851 
L 343.039349 111.399338 
L 343.474835 107.608277 
L 343.91032 106.213039 
L 344.345806 106.079494 
L 344.781292 107.35813 
L 345.216777 107.349161 
L 345.652263 102.620301 
L 346.523234 102.185784 
L 346.95872 102.132964 
L 347.394206 101.060624 
L 347.829691 101.588821 
L 348.700662 101.166263 
L 349.136148 101.745287 
L 349.571634 101.739308 
L 350.007119 100.735733 
L 350.878091 100.72477 
L 351.749062 100.855325 
L 352.184548 100.769617 
L 352.620033 99.912542 
L 353.055519 99.831818 
L 353.491005 100.702845 
L 353.92649 100.037117 
L 354.797461 100.300219 
L 355.232947 99.811886 
L 355.668433 99.803913 
L 356.103918 99.963369 
L 356.539404 99.340495 
L 356.97489 99.127223 
L 358.281347 99.504934 
L 358.716832 100.947012 
L 359.152318 100.846355 
L 359.587804 99.846767 
L 360.89426 99.671366 
L 361.765232 99.316576 
L 362.200717 99.211934 
L 363.071689 99.392318 
L 363.94266 98.945842 
L 364.378146 99.515896 
L 365.249117 97.325373 
L 366.120088 97.726005 
L 366.555574 96.375614 
L 366.991059 95.439808 
L 367.426545 90.152853 
L 368.297516 88.534377 
L 368.733002 88.534377 
L 369.168488 89.89872 
L 369.603973 89.667509 
L 370.039459 89.823975 
L 370.474945 89.861846 
L 370.91043 95.480669 
L 371.345916 96.863947 
L 371.781401 95.790611 
L 373.523344 96.101549 
L 373.95883 96.152376 
L 374.394315 94.833876 
L 376.571744 95.101961 
L 377.007229 94.037594 
L 377.442715 93.897073 
L 377.8782 93.876145 
L 378.313686 94.520944 
L 378.749172 94.687376 
L 379.184657 94.652495 
L 379.620143 93.372863 
L 380.055629 93.211414 
L 380.491114 93.926971 
L 380.9266 93.952883 
L 381.362086 92.857621 
L 382.233057 92.993159 
L 382.668543 92.545686 
L 383.539514 92.631393 
L 384.410485 92.444033 
L 384.845971 94.026631 
L 385.281456 94.213992 
L 385.716942 93.90405 
L 386.152428 93.938931 
L 386.587913 93.787448 
L 387.023399 94.230934 
L 387.458885 94.060516 
L 387.89437 92.893499 
L 388.329856 92.901471 
L 388.765341 91.323856 
L 389.200827 87.765002 
L 390.071798 85.007414 
L 390.94277 82.13422 
L 391.378255 82.491999 
L 391.813741 81.079819 
L 392.249227 80.947272 
L 392.684712 81.492411 
L 393.120198 81.505367 
L 393.555684 80.560591 
L 393.991169 81.881084 
L 394.426655 81.945863 
L 394.86214 80.862561 
L 395.297626 80.946275 
L 395.733112 80.554612 
L 396.604083 80.296493 
L 397.039569 81.412683 
L 397.475054 81.331959 
L 397.91054 81.426635 
L 398.346026 81.290101 
L 398.781511 79.952666 
L 399.652483 82.839812 
L 400.087968 86.217285 
L 400.523454 86.206322 
L 400.958939 87.65139 
L 401.394425 87.859679 
L 401.829911 87.902533 
L 401.829911 87.902533 
" clip-path="url(#p0e6a7c06d2)" style="fill: none; stroke: #d62728; stroke-opacity: 0.8; stroke-width: 1.5; stroke-linecap: square"/>
   </g>
   <g id="line2d_21">
    <path d="M 147.070811 140.892676 
L 147.506296 140.718271 
L 148.377268 140.125295 
L 148.812753 138.83171 
L 149.683725 138.499843 
L 150.11921 138.025462 
L 150.554696 137.766346 
L 150.990181 138.322448 
L 151.861153 137.754387 
L 152.296638 137.451421 
L 153.16761 137.277016 
L 154.038581 137.087662 
L 154.474067 136.329251 
L 154.909552 136.067145 
L 155.345038 137.000958 
L 157.08698 135.993397 
L 157.522466 134.554309 
L 157.957952 134.322101 
L 158.393437 135.086492 
L 159.264409 134.901125 
L 159.699894 133.534788 
L 161.006351 132.758438 
L 161.441837 132.8282 
L 161.877322 131.51269 
L 162.748294 131.129996 
L 163.183779 131.071197 
L 163.619265 132.218282 
L 164.054751 131.658193 
L 164.490236 131.645238 
L 164.925722 132.299006 
L 165.361208 132.093707 
L 165.796693 132.096697 
L 166.232179 131.420006 
L 166.667665 131.464853 
L 167.10315 131.267527 
L 167.538636 131.207731 
L 167.974121 132.208316 
L 168.409607 130.87088 
L 168.845093 130.818061 
L 169.280578 131.947207 
L 169.716064 131.974115 
L 170.15155 132.138554 
L 170.587035 130.776204 
L 171.458007 130.757268 
L 171.893492 129.551384 
L 172.328978 130.794142 
L 173.199949 131.065217 
L 174.07092 131.002431 
L 174.506406 131.566506 
L 174.941892 130.306806 
L 175.377377 130.34368 
L 175.812863 131.46286 
L 176.248349 130.33471 
L 176.683834 130.146353 
L 177.11932 130.353646 
L 177.554806 130.084564 
L 177.990291 130.701459 
L 178.861262 130.969544 
L 179.296748 129.562347 
L 179.732234 129.357047 
L 180.167719 130.160306 
L 181.038691 130.130408 
L 181.474176 129.339108 
L 181.909662 129.194602 
L 182.345148 129.678949 
L 182.780633 129.632108 
L 183.216119 129.774622 
L 183.651605 129.125836 
L 184.08709 129.129823 
L 184.958061 128.836823 
L 185.393547 129.777612 
L 185.829033 128.310619 
L 186.264518 128.368421 
L 186.700004 129.499561 
L 187.13549 129.330139 
L 187.570975 129.336119 
L 188.006461 128.578704 
L 188.877432 128.250823 
L 189.312918 129.563343 
L 189.748403 129.607193 
L 190.183889 128.393336 
L 190.619375 129.705857 
L 191.925832 129.664996 
L 192.361317 129.036142 
L 193.232289 129.134806 
L 193.667774 130.404472 
L 194.10326 130.398493 
L 194.538746 129.769639 
L 194.974231 129.938064 
L 195.409717 128.382374 
L 195.845202 129.734758 
L 196.716174 129.868302 
L 197.151659 129.735755 
L 197.587145 128.627537 
L 198.022631 128.645476 
L 198.458116 127.601041 
L 199.764573 127.676782 
L 200.200059 128.741149 
L 201.07103 128.752112 
L 201.506516 129.50853 
L 202.377487 129.543411 
L 202.812973 130.665581 
L 203.248458 130.564925 
L 203.683944 129.528462 
L 204.554915 129.182642 
L 204.990401 129.808506 
L 205.425887 129.639085 
L 205.861372 128.432204 
L 206.296858 128.616574 
L 206.732343 128.605612 
L 207.167829 129.149755 
L 207.603315 129.144772 
L 208.0388 128.557775 
L 208.474286 128.674377 
L 208.909772 128.525884 
L 209.345257 129.125836 
L 209.780743 129.110887 
L 210.216229 128.402306 
L 210.651714 128.528874 
L 211.958171 128.542826 
L 212.393657 128.849779 
L 212.829142 128.700289 
L 213.264628 128.78201 
L 213.700114 130.034734 
L 214.135599 130.058653 
L 214.571085 129.120853 
L 215.006571 129.150751 
L 215.442056 129.347081 
L 215.877542 129.157728 
L 216.313028 130.555955 
L 216.748513 129.199585 
L 217.183999 129.058068 
L 217.619485 130.253986 
L 218.05497 130.386534 
L 218.925941 130.38454 
L 219.361427 130.184224 
L 219.796913 128.823867 
L 220.232398 128.811908 
L 220.667884 129.978925 
L 221.10337 129.098928 
L 221.974341 129.043119 
L 222.409827 128.840809 
L 222.845312 130.05068 
L 223.716283 130.09154 
L 224.151769 129.447738 
L 224.587255 129.596231 
L 225.02274 130.928683 
L 225.458226 130.168278 
L 226.329197 130.498153 
L 226.764683 130.288867 
L 227.200169 130.771221 
L 227.635654 129.317183 
L 228.07114 129.232472 
L 228.506626 129.685925 
L 229.377597 129.969955 
L 229.813082 129.175666 
L 230.248568 130.849952 
L 230.684054 135.065564 
L 231.555025 134.990819 
L 231.990511 133.927448 
L 232.425996 133.811843 
L 233.296968 133.875625 
L 233.732453 134.884183 
L 234.167939 133.775965 
L 234.603425 133.60754 
L 235.03891 134.687853 
L 235.909881 134.661941 
L 236.345367 134.162646 
L 237.216338 134.478567 
L 237.651824 134.490526 
L 238.08731 135.203094 
L 238.522795 134.468601 
L 238.958281 134.225431 
L 239.393767 134.865248 
L 240.700224 135.241962 
L 241.135709 135.042642 
L 241.571195 133.551731 
L 242.00668 133.599567 
L 242.442166 134.914081 
L 242.877652 133.595581 
L 243.313137 133.712183 
L 243.748623 133.506884 
L 244.184109 133.455061 
L 244.619594 134.723731 
L 245.05508 134.796482 
L 245.490566 135.02271 
L 245.926051 134.48654 
L 246.361537 134.524411 
L 246.797022 135.858856 
L 247.232508 135.398428 
L 248.538965 135.862843 
L 248.974451 136.63421 
L 249.409936 136.550496 
L 249.845422 136.596339 
L 250.280908 136.094054 
L 250.716393 136.058176 
L 251.151879 136.715931 
L 252.02285 136.676067 
L 252.458336 135.441282 
L 252.893821 135.504067 
L 253.329307 136.749815 
L 253.764793 135.236979 
L 254.200278 135.306741 
L 255.07125 134.931023 
L 255.506735 136.267462 
L 255.942221 135.230003 
L 256.377707 135.208077 
L 256.813192 136.395026 
L 257.248678 136.38506 
L 257.684164 136.123952 
L 258.119649 134.560288 
L 258.99062 134.192544 
L 259.426106 134.328081 
L 259.861592 135.370523 
L 260.297077 134.023122 
L 260.732563 133.85669 
L 261.168049 134.78253 
L 261.603534 134.97288 
L 262.03902 134.741669 
L 262.474506 133.750054 
L 262.909991 133.631459 
L 263.345477 132.172438 
L 263.780962 132.082744 
L 264.216448 133.503894 
L 264.651934 132.215292 
L 265.522905 132.182404 
L 265.958391 132.009993 
L 266.393876 132.609945 
L 267.264848 132.593003 
L 267.700333 131.135976 
L 268.135819 130.903768 
L 268.571305 131.685102 
L 269.00679 130.239037 
L 269.877761 130.222095 
L 270.313247 130.250996 
L 270.748733 131.533619 
L 271.184218 131.31337 
L 271.619704 131.474819 
L 272.05519 130.864901 
L 272.490675 130.740326 
L 272.926161 131.489768 
L 273.361647 131.51867 
L 273.797132 131.742904 
L 274.232618 130.496159 
L 274.668104 130.488187 
L 275.103589 131.71201 
L 275.539075 131.502724 
L 275.97456 131.464853 
L 276.410046 124.291337 
L 276.845532 124.465741 
L 277.281017 125.255048 
L 277.716503 125.082636 
L 278.151989 125.123497 
L 278.587474 124.508595 
L 279.02296 124.683 
L 279.458446 125.259034 
L 279.893931 124.184701 
L 280.329417 125.687571 
L 281.635874 125.713483 
L 282.071359 124.48667 
L 283.377816 127.694721 
L 283.813302 127.693724 
L 284.684273 127.929918 
L 285.119759 126.775857 
L 285.99073 126.643309 
L 286.426216 126.215769 
L 288.168158 126.04834 
L 288.603644 127.132639 
L 289.03913 127.150578 
L 289.474615 126.008476 
L 290.781072 125.863969 
L 291.652044 125.51217 
L 292.087529 125.487255 
L 292.523015 125.341752 
L 292.9585 125.821116 
L 293.393986 125.637741 
L 293.829472 124.38402 
L 294.700443 124.336184 
L 295.135929 124.809568 
L 295.571414 124.582343 
L 296.0069 124.022255 
L 296.442386 124.004316 
L 296.877871 123.814963 
L 297.313357 124.445809 
L 297.748842 124.581347 
L 298.184328 123.999333 
L 299.055299 124.184701 
L 299.490785 125.121503 
L 299.926271 125.045762 
L 300.361756 124.195663 
L 301.232728 124.135867 
L 301.668213 125.61482 
L 302.103699 125.579939 
L 302.539185 124.954075 
L 302.97467 124.768707 
L 303.845641 125.027823 
L 304.716613 124.912218 
L 305.152098 125.063701 
L 305.587584 125.043769 
L 306.02307 125.903833 
L 306.458555 126.071262 
L 306.894041 124.963044 
L 307.765012 124.844449 
L 308.200498 124.14384 
L 308.635984 124.117929 
L 309.071469 124.58633 
L 309.506955 124.305289 
L 309.94244 124.184701 
L 310.377926 124.92617 
L 310.813412 124.760735 
L 311.248897 123.526946 
L 312.119869 123.697364 
L 312.555354 124.427871 
L 312.99084 124.485673 
L 313.426326 124.68898 
L 314.297297 124.165765 
L 314.732782 124.700939 
L 315.168268 124.866374 
L 315.603754 124.341167 
L 316.474725 124.245493 
L 316.910211 125.384605 
L 317.345696 125.308864 
L 317.781182 124.331201 
L 318.652153 124.641143 
L 319.087639 125.872939 
L 319.523125 125.984558 
L 319.95861 125.314843 
L 320.394096 125.45636 
L 320.829581 125.335772 
L 321.265067 125.741388 
L 321.700553 125.491241 
L 322.136038 124.154803 
L 323.00701 123.687398 
L 323.442495 124.19965 
L 323.877981 124.181711 
L 324.313467 122.788466 
L 325.184438 122.423711 
L 325.619924 122.364912 
L 326.055409 122.472544 
L 326.490895 123.31766 
L 326.92638 123.412337 
L 327.361866 123.381442 
L 327.797352 124.628187 
L 328.232837 124.63915 
L 328.668323 122.817367 
L 329.539294 122.709735 
L 330.845751 122.254289 
L 331.716722 121.932388 
L 332.152208 122.364912 
L 333.023179 122.04899 
L 333.458665 121.825752 
L 334.329636 119.153871 
L 334.765122 119.128956 
L 335.200608 119.637221 
L 336.071579 119.256521 
L 336.94255 119.214664 
L 337.378036 119.8485 
L 338.249007 120.139507 
L 338.684493 121.593544 
L 339.119978 121.671279 
L 339.555464 120.257106 
L 339.99095 120.260095 
L 340.426435 120.394636 
L 340.861921 121.368313 
L 341.297407 121.374293 
L 341.732892 120.710558 
L 342.168378 120.482337 
L 342.603864 120.597942 
L 343.039349 122.047993 
L 343.474835 122.031051 
L 343.91032 120.841112 
L 344.345806 120.592959 
L 344.781292 120.591963 
L 345.216777 121.863623 
L 345.652263 121.845684 
L 346.087749 121.163014 
L 346.523234 120.964691 
L 346.95872 120.997578 
L 347.394206 122.204459 
L 347.829691 122.317075 
L 348.265177 122.58217 
L 349.136148 122.442646 
L 349.571634 123.854827 
L 350.007119 123.883728 
L 350.442605 122.815374 
L 350.878091 122.804412 
L 351.313576 122.958884 
L 351.749062 122.859225 
L 352.184548 122.906065 
L 353.055519 123.392405 
L 353.491005 123.365497 
L 353.92649 124.819534 
L 354.797461 125.167347 
L 355.232947 125.135456 
L 355.668433 124.462752 
L 356.103918 124.477701 
L 356.539404 124.272401 
L 356.97489 123.626605 
L 357.410375 123.549867 
L 357.845861 123.349551 
L 358.281347 123.279789 
L 358.716832 123.004728 
L 359.152318 124.222571 
L 359.587804 124.197656 
L 360.023289 123.596707 
L 360.458775 123.787058 
L 360.89426 123.833898 
L 361.329746 126.939299 
L 361.765232 125.12549 
L 362.200717 124.972014 
L 362.636203 125.058718 
L 363.507174 124.950088 
L 363.94266 123.431272 
L 364.378146 123.430276 
L 364.813631 124.473714 
L 365.249117 124.475707 
L 365.684603 123.753173 
L 366.555574 123.66049 
L 366.991059 124.977993 
L 367.426545 125.112534 
L 367.862031 124.188687 
L 368.733002 124.172741 
L 369.603973 123.839878 
L 370.91043 124.081054 
L 371.345916 125.133462 
L 371.781401 125.149408 
L 372.216887 123.969435 
L 372.652373 123.884724 
L 373.087858 122.536327 
L 374.394315 122.548286 
L 375.265287 122.874174 
L 375.700772 124.123908 
L 376.136258 124.164769 
L 376.571744 124.042187 
L 377.007229 124.177724 
L 377.442715 123.012701 
L 378.313686 122.915034 
L 378.749172 122.68781 
L 379.184657 122.721694 
L 379.620143 122.564231 
L 380.491114 122.632 
L 380.9266 123.157208 
L 381.362086 123.07748 
L 381.797571 122.512408 
L 382.233057 122.534333 
L 383.104028 122.284187 
L 384.410485 122.359929 
L 384.845971 122.643959 
L 385.281456 123.428282 
L 385.716942 123.494058 
L 386.152428 122.019092 
L 386.587913 121.836714 
L 387.023399 122.074901 
L 387.458885 122.807401 
L 387.89437 122.978816 
L 388.329856 122.202466 
L 388.765341 122.021085 
L 389.636313 122.016102 
L 390.071798 121.838708 
L 390.94277 121.811799 
L 392.249227 121.630419 
L 392.684712 121.842694 
L 393.120198 122.421718 
L 393.555684 122.442646 
L 393.991169 118.421371 
L 397.039569 118.29281 
L 397.475054 118.991425 
L 397.91054 118.959534 
L 398.346026 118.774167 
L 398.781511 118.839943 
L 399.216997 118.038677 
L 399.652483 118.025721 
L 400.087968 117.864273 
L 400.523454 117.023143 
L 401.394425 116.990256 
L 401.829911 116.879633 
L 401.829911 116.879633 
" clip-path="url(#p0e6a7c06d2)" style="fill: none; stroke: #9467bd; stroke-opacity: 0.8; stroke-width: 1.5; stroke-linecap: square"/>
   </g>
   <g id="patch_3">
    <path d="M 61.715625 288.430125 
L 61.715625 22.318125 
" style="fill: none; stroke: #000000; stroke-width: 0.8; stroke-linejoin: miter; stroke-linecap: square"/>
   </g>
   <g id="patch_4">
    <path d="M 418.835625 288.430125 
L 418.835625 22.318125 
" style="fill: none; stroke: #000000; stroke-width: 0.8; stroke-linejoin: miter; stroke-linecap: square"/>
   </g>
   <g id="patch_5">
    <path d="M 61.715625 288.430125 
L 418.835625 288.430125 
" style="fill: none; stroke: #000000; stroke-width: 0.8; stroke-linejoin: miter; stroke-linecap: square"/>
   </g>
   <g id="patch_6">
    <path d="M 61.715625 22.318125 
L 418.835625 22.318125 
" style="fill: none; stroke: #000000; stroke-width: 0.8; stroke-linejoin: miter; stroke-linecap: square"/>
   </g>
   <g id="text_19">
    <!-- Get filtered children count [leaf] -->
    <g transform="translate(143.805 16.318125) scale(0.12 -0.12)">
     <defs>
      <path id="DejaVuSans-47" d="M 3809 666 
L 3809 1919 
L 2778 1919 
L 2778 2438 
L 4434 2438 
L 4434 434 
Q 4069 175 3628 42 
Q 3188 -91 2688 -91 
Q 1594 -91 976 548 
Q 359 1188 359 2328 
Q 359 3472 976 4111 
Q 1594 4750 2688 4750 
Q 3144 4750 3555 4637 
Q 3966 4525 4313 4306 
L 4313 3634 
Q 3963 3931 3569 4081 
Q 3175 4231 2741 4231 
Q 1884 4231 1454 3753 
Q 1025 3275 1025 2328 
Q 1025 1384 1454 906 
Q 1884 428 2741 428 
Q 3075 428 3337 486 
Q 3600 544 3809 666 
z
" transform="scale(0.015625)"/>
      <path id="DejaVuSans-72" d="M 2631 2963 
Q 2534 3019 2420 3045 
Q 2306 3072 2169 3072 
Q 1681 3072 1420 2755 
Q 1159 2438 1159 1844 
L 1159 0 
L 581 0 
L 581 3500 
L 1159 3500 
L 1159 2956 
Q 1341 3275 1631 3429 
Q 1922 3584 2338 3584 
Q 2397 3584 2469 3576 
Q 2541 3569 2628 3553 
L 2631 2963 
z
" transform="scale(0.015625)"/>
      <path id="DejaVuSans-68" d="M 3513 2113 
L 3513 0 
L 2938 0 
L 2938 2094 
Q 2938 2591 2744 2837 
Q 2550 3084 2163 3084 
Q 1697 3084 1428 2787 
Q 1159 2491 1159 1978 
L 1159 0 
L 581 0 
L 581 4863 
L 1159 4863 
L 1159 2956 
Q 1366 3272 1645 3428 
Q 1925 3584 2291 3584 
Q 2894 3584 3203 3211 
Q 3513 2838 3513 2113 
z
" transform="scale(0.015625)"/>
      <path id="DejaVuSans-5b" d="M 550 4863 
L 1875 4863 
L 1875 4416 
L 1125 4416 
L 1125 -397 
L 1875 -397 
L 1875 -844 
L 550 -844 
L 550 4863 
z
" transform="scale(0.015625)"/>
      <path id="DejaVuSans-5d" d="M 1947 4863 
L 1947 -844 
L 622 -844 
L 622 -397 
L 1369 -397 
L 1369 4416 
L 622 4416 
L 622 4863 
L 1947 4863 
z
" transform="scale(0.015625)"/>
     </defs>
     <use xlink:href="#DejaVuSans-47"/>
     <use xlink:href="#DejaVuSans-65" transform="translate(77.490234 0)"/>
     <use xlink:href="#DejaVuSans-74" transform="translate(139.013672 0)"/>
     <use xlink:href="#DejaVuSans-20" transform="translate(178.222656 0)"/>
     <use xlink:href="#DejaVuSans-66" transform="translate(210.009766 0)"/>
     <use xlink:href="#DejaVuSans-69" transform="translate(245.214844 0)"/>
     <use xlink:href="#DejaVuSans-6c" transform="translate(272.998047 0)"/>
     <use xlink:href="#DejaVuSans-74" transform="translate(300.78125 0)"/>
     <use xlink:href="#DejaVuSans-65" transform="translate(339.990234 0)"/>
     <use xlink:href="#DejaVuSans-72" transform="translate(401.513672 0)"/>
     <use xlink:href="#DejaVuSans-65" transform="translate(440.376953 0)"/>
     <use xlink:href="#DejaVuSans-64" transform="translate(501.900391 0)"/>
     <use xlink:href="#DejaVuSans-20" transform="translate(565.376953 0)"/>
     <use xlink:href="#DejaVuSans-63" transform="translate(597.164062 0)"/>
     <use xlink:href="#DejaVuSans-68" transform="translate(652.144531 0)"/>
     <use xlink:href="#DejaVuSans-69" transform="translate(715.523438 0)"/>
     <use xlink:href="#DejaVuSans-6c" transform="translate(743.306641 0)"/>
     <use xlink:href="#DejaVuSans-64" transform="translate(771.089844 0)"/>
     <use xlink:href="#DejaVuSans-72" transform="translate(834.566406 0)"/>
     <use xlink:href="#DejaVuSans-65" transform="translate(873.429688 0)"/>
     <use xlink:href="#DejaVuSans-6e" transform="translate(934.953125 0)"/>
     <use xlink:href="#DejaVuSans-20" transform="translate(998.332031 0)"/>
     <use xlink:href="#DejaVuSans-63" transform="translate(1030.119141 0)"/>
     <use xlink:href="#DejaVuSans-6f" transform="translate(1085.099609 0)"/>
     <use xlink:href="#DejaVuSans-75" transform="translate(1146.28125 0)"/>
     <use xlink:href="#DejaVuSans-6e" transform="translate(1209.660156 0)"/>
     <use xlink:href="#DejaVuSans-74" transform="translate(1273.039062 0)"/>
     <use xlink:href="#DejaVuSans-20" transform="translate(1312.248047 0)"/>
     <use xlink:href="#DejaVuSans-5b" transform="translate(1344.035156 0)"/>
     <use xlink:href="#DejaVuSans-6c" transform="translate(1383.048828 0)"/>
     <use xlink:href="#DejaVuSans-65" transform="translate(1410.832031 0)"/>
     <use xlink:href="#DejaVuSans-61" transform="translate(1472.355469 0)"/>
     <use xlink:href="#DejaVuSans-66" transform="translate(1533.634766 0)"/>
     <use xlink:href="#DejaVuSans-5d" transform="translate(1568.839844 0)"/>
    </g>
   </g>
   <g id="legend_1">
    <g id="patch_7">
     <path d="M 92.717969 365.802375 
L 380.313281 365.802375 
Q 382.313281 365.802375 382.313281 363.802375 
L 382.313281 335.446125 
Q 382.313281 333.446125 380.313281 333.446125 
L 92.717969 333.446125 
Q 90.717969 333.446125 90.717969 335.446125 
L 90.717969 363.802375 
Q 90.717969 365.802375 92.717969 365.802375 
z
" style="fill: #4d4d4d; opacity: 0.5; stroke: #4d4d4d; stroke-linejoin: miter"/>
    </g>
    <g id="patch_8">
     <path d="M 90.717969 363.802375 
L 378.313281 363.802375 
Q 380.313281 363.802375 380.313281 361.802375 
L 380.313281 333.446125 
Q 380.313281 331.446125 378.313281 331.446125 
L 90.717969 331.446125 
Q 88.717969 331.446125 88.717969 333.446125 
L 88.717969 361.802375 
Q 88.717969 363.802375 90.717969 363.802375 
z
" style="fill: #ffffff; stroke: #cccccc; stroke-linejoin: miter"/>
    </g>
    <g id="line2d_22">
     <path d="M 92.717969 339.544562 
L 102.717969 339.544562 
L 112.717969 339.544562 
" style="fill: none; stroke: #1f77b4; stroke-opacity: 0.8; stroke-width: 1.5; stroke-linecap: square"/>
    </g>
    <g id="text_20">
     <!-- MPTT -->
     <g transform="translate(120.717969 343.044562) scale(0.1 -0.1)">
      <defs>
       <path id="DejaVuSans-4d" d="M 628 4666 
L 1569 4666 
L 2759 1491 
L 3956 4666 
L 4897 4666 
L 4897 0 
L 4281 0 
L 4281 4097 
L 3078 897 
L 2444 897 
L 1241 4097 
L 1241 0 
L 628 0 
L 628 4666 
z
" transform="scale(0.015625)"/>
       <path id="DejaVuSans-50" d="M 1259 4147 
L 1259 2394 
L 2053 2394 
Q 2494 2394 2734 2622 
Q 2975 2850 2975 3272 
Q 2975 3691 2734 3919 
Q 2494 4147 2053 4147 
L 1259 4147 
z
M 628 4666 
L 2053 4666 
Q 2838 4666 3239 4311 
Q 3641 3956 3641 3272 
Q 3641 2581 3239 2228 
Q 2838 1875 2053 1875 
L 1259 1875 
L 1259 0 
L 628 0 
L 628 4666 
z
" transform="scale(0.015625)"/>
       <path id="DejaVuSans-54" d="M -19 4666 
L 3928 4666 
L 3928 4134 
L 2272 4134 
L 2272 0 
L 1638 0 
L 1638 4134 
L -19 4134 
L -19 4666 
z
" transform="scale(0.015625)"/>
      </defs>
      <use xlink:href="#DejaVuSans-4d"/>
      <use xlink:href="#DejaVuSans-50" transform="translate(86.279297 0)"/>
      <use xlink:href="#DejaVuSans-54" transform="translate(146.582031 0)"/>
      <use xlink:href="#DejaVuSans-54" transform="translate(205.916016 0)"/>
     </g>
    </g>
    <g id="line2d_23">
     <path d="M 92.717969 354.222687 
L 102.717969 354.222687 
L 112.717969 354.222687 
" style="fill: none; stroke: #ff7f0e; stroke-opacity: 0.8; stroke-width: 1.5; stroke-linecap: square"/>
    </g>
    <g id="text_21">
     <!-- tree -->
     <g transform="translate(120.717969 357.722687) scale(0.1 -0.1)">
      <use xlink:href="#DejaVuSans-74"/>
      <use xlink:href="#DejaVuSans-72" transform="translate(39.208984 0)"/>
      <use xlink:href="#DejaVuSans-65" transform="translate(78.072266 0)"/>
      <use xlink:href="#DejaVuSans-65" transform="translate(139.595703 0)"/>
     </g>
    </g>
    <g id="line2d_24">
     <path d="M 167.416406 339.544562 
L 177.416406 339.544562 
L 187.416406 339.544562 
" style="fill: none; stroke: #2ca02c; stroke-opacity: 0.8; stroke-width: 1.5; stroke-linecap: square"/>
    </g>
    <g id="text_22">
     <!-- treebeard AL -->
     <g transform="translate(195.416406 343.044562) scale(0.1 -0.1)">
      <defs>
       <path id="DejaVuSans-4c" d="M 628 4666 
L 1259 4666 
L 1259 531 
L 3531 531 
L 3531 0 
L 628 0 
L 628 4666 
z
" transform="scale(0.015625)"/>
      </defs>
      <use xlink:href="#DejaVuSans-74"/>
      <use xlink:href="#DejaVuSans-72" transform="translate(39.208984 0)"/>
      <use xlink:href="#DejaVuSans-65" transform="translate(78.072266 0)"/>
      <use xlink:href="#DejaVuSans-65" transform="translate(139.595703 0)"/>
      <use xlink:href="#DejaVuSans-62" transform="translate(201.119141 0)"/>
      <use xlink:href="#DejaVuSans-65" transform="translate(264.595703 0)"/>
      <use xlink:href="#DejaVuSans-61" transform="translate(326.119141 0)"/>
      <use xlink:href="#DejaVuSans-72" transform="translate(387.398438 0)"/>
      <use xlink:href="#DejaVuSans-64" transform="translate(426.761719 0)"/>
      <use xlink:href="#DejaVuSans-20" transform="translate(490.238281 0)"/>
      <use xlink:href="#DejaVuSans-41" transform="translate(522.025391 0)"/>
      <use xlink:href="#DejaVuSans-4c" transform="translate(590.433594 0)"/>
     </g>
    </g>
    <g id="line2d_25">
     <path d="M 167.416406 354.222687 
L 177.416406 354.222687 
L 187.416406 354.222687 
" style="fill: none; stroke: #d62728; stroke-opacity: 0.8; stroke-width: 1.5; stroke-linecap: square"/>
    </g>
    <g id="text_23">
     <!-- treebeard MP -->
     <g transform="translate(195.416406 357.722687) scale(0.1 -0.1)">
      <use xlink:href="#DejaVuSans-74"/>
      <use xlink:href="#DejaVuSans-72" transform="translate(39.208984 0)"/>
      <use xlink:href="#DejaVuSans-65" transform="translate(78.072266 0)"/>
      <use xlink:href="#DejaVuSans-65" transform="translate(139.595703 0)"/>
      <use xlink:href="#DejaVuSans-62" transform="translate(201.119141 0)"/>
      <use xlink:href="#DejaVuSans-65" transform="translate(264.595703 0)"/>
      <use xlink:href="#DejaVuSans-61" transform="translate(326.119141 0)"/>
      <use xlink:href="#DejaVuSans-72" transform="translate(387.398438 0)"/>
      <use xlink:href="#DejaVuSans-64" transform="translate(426.761719 0)"/>
      <use xlink:href="#DejaVuSans-20" transform="translate(490.238281 0)"/>
      <use xlink:href="#DejaVuSans-4d" transform="translate(522.025391 0)"/>
      <use xlink:href="#DejaVuSans-50" transform="translate(608.304688 0)"/>
     </g>
    </g>
    <g id="line2d_26">
     <path d="M 282.278906 339.544562 
L 292.278906 339.544562 
L 302.278906 339.544562 
" style="fill: none; stroke: #9467bd; stroke-opacity: 0.8; stroke-width: 1.5; stroke-linecap: square"/>
    </g>
    <g id="text_24">
     <!-- treebeard NS -->
     <g transform="translate(310.278906 343.044562) scale(0.1 -0.1)">
      <defs>
       <path id="DejaVuSans-4e" d="M 628 4666 
L 1478 4666 
L 3547 763 
L 3547 4666 
L 4159 4666 
L 4159 0 
L 3309 0 
L 1241 3903 
L 1241 0 
L 628 0 
L 628 4666 
z
" transform="scale(0.015625)"/>
       <path id="DejaVuSans-53" d="M 3425 4513 
L 3425 3897 
Q 3066 4069 2747 4153 
Q 2428 4238 2131 4238 
Q 1616 4238 1336 4038 
Q 1056 3838 1056 3469 
Q 1056 3159 1242 3001 
Q 1428 2844 1947 2747 
L 2328 2669 
Q 3034 2534 3370 2195 
Q 3706 1856 3706 1288 
Q 3706 609 3251 259 
Q 2797 -91 1919 -91 
Q 1588 -91 1214 -16 
Q 841 59 441 206 
L 441 856 
Q 825 641 1194 531 
Q 1563 422 1919 422 
Q 2459 422 2753 634 
Q 3047 847 3047 1241 
Q 3047 1584 2836 1778 
Q 2625 1972 2144 2069 
L 1759 2144 
Q 1053 2284 737 2584 
Q 422 2884 422 3419 
Q 422 4038 858 4394 
Q 1294 4750 2059 4750 
Q 2388 4750 2728 4690 
Q 3069 4631 3425 4513 
z
" transform="scale(0.015625)"/>
      </defs>
      <use xlink:href="#DejaVuSans-74"/>
      <use xlink:href="#DejaVuSans-72" transform="translate(39.208984 0)"/>
      <use xlink:href="#DejaVuSans-65" transform="translate(78.072266 0)"/>
      <use xlink:href="#DejaVuSans-65" transform="translate(139.595703 0)"/>
      <use xlink:href="#DejaVuSans-62" transform="translate(201.119141 0)"/>
      <use xlink:href="#DejaVuSans-65" transform="translate(264.595703 0)"/>
      <use xlink:href="#DejaVuSans-61" transform="translate(326.119141 0)"/>
      <use xlink:href="#DejaVuSans-72" transform="translate(387.398438 0)"/>
      <use xlink:href="#DejaVuSans-64" transform="translate(426.761719 0)"/>
      <use xlink:href="#DejaVuSans-20" transform="translate(490.238281 0)"/>
      <use xlink:href="#DejaVuSans-4e" transform="translate(522.025391 0)"/>
      <use xlink:href="#DejaVuSans-53" transform="translate(596.830078 0)"/>
     </g>
    </g>
   </g>
  </g>
 </g>
 <defs>
  <clipPath id="p0e6a7c06d2">
   <rect x="61.715625" y="22.318125" width="357.12" height="266.112"/>
  </clipPath>
 </defs>
</svg>
