<?xml version="1.0" encoding="utf-8" standalone="no"?>
<!DOCTYPE svg PUBLIC "-//W3C//DTD SVG 1.1//EN"
  "http://www.w3.org/Graphics/SVG/1.1/DTD/svg11.dtd">
<svg xmlns:xlink="http://www.w3.org/1999/xlink" width="426.035625pt" height="371.002375pt" viewBox="0 0 426.035625 371.002375" xmlns="http://www.w3.org/2000/svg" version="1.1">
 <metadata>
  <rdf:RDF xmlns:dc="http://purl.org/dc/elements/1.1/" xmlns:cc="http://creativecommons.org/ns#" xmlns:rdf="http://www.w3.org/1999/02/22-rdf-syntax-ns#">
   <cc:Work>
    <dc:type rdf:resource="http://purl.org/dc/dcmitype/StillImage"/>
    <dc:date>2026-06-28T14:41:54.219127</dc:date>
    <dc:format>image/svg+xml</dc:format>
    <dc:creator>
     <cc:Agent>
      <dc:title>Matplotlib v3.10.6, https://matplotlib.org/</dc:title>
     </cc:Agent>
    </dc:creator>
   </cc:Work>
  </rdf:RDF>
 </metadata>
 <defs>
  <style type="text/css">*{stroke-linejoin: round; stroke-linecap: butt}</style>
 </defs>
 <g id="figure_1">
  <g id="patch_1">
   <path d="M 0 371.002375 
L 426.035625 371.002375 
L 426.035625 0 
L 0 0 
z
" style="fill: #ffffff"/>
  </g>
  <g id="axes_1">
   <g id="patch_2">
    <path d="M 61.715625 288.430125 
L 418.835625 288.430125 
L 418.835625 22.318125 
L 61.715625 22.318125 
z
" style="fill: #ffffff"/>
   </g>
   <g id="matplotlib.axis_1">
    <g id="xtick_1">
     <g id="line2d_1">
      <defs>
       <path id="me8d0e2dac7" d="M 0 0 
L 0 3.5 
" style="stroke: #000000; stroke-width: 0.8"/>
      </defs>
      <g>
       <use xlink:href="#me8d0e2dac7" x="61.715625" y="288.430125" style="stroke: #000000; stroke-width: 0.8"/>
      </g>
     </g>
     <g id="text_1">
      <!-- 0 -->
      <g transform="translate(58.534375 303.028562) scale(0.1 -0.1)">
       <defs>
        <path id="DejaVuSans-30" d="M 2034 4250 
Q 1547 4250 1301 3770 
Q 1056 3291 1056 2328 
Q 1056 1369 1301 889 
Q 1547 409 2034 409 
Q 2525 409 2770 889 
Q 3016 1369 3016 2328 
Q 3016 3291 2770 3770 
Q 2525 4250 2034 4250 
z
M 2034 4750 
Q 2819 4750 3233 4129 
Q 3647 3509 3647 2328 
Q 3647 1150 3233 529 
Q 2819 -91 2034 -91 
Q 1250 -91 836 529 
Q 422 1150 422 2328 
Q 422 3509 836 4129 
Q 1250 4750 2034 4750 
z
" transform="scale(0.015625)"/>
       </defs>
       <use xlink:href="#DejaVuSans-30"/>
      </g>
     </g>
    </g>
    <g id="xtick_2">
     <g id="line2d_2">
      <g>
       <use xlink:href="#me8d0e2dac7" x="105.264189" y="288.430125" style="stroke: #000000; stroke-width: 0.8"/>
      </g>
     </g>
     <g id="text_2">
      <!-- 500  -->
      <g transform="translate(94.131377 303.028562) scale(0.1 -0.1)">
       <defs>
        <path id="DejaVuSans-35" d="M 691 4666 
L 3169 4666 
L 3169 4134 
L 1269 4134 
L 1269 2991 
Q 1406 3038 1543 3061 
Q 1681 3084 1819 3084 
Q 2600 3084 3056 2656 
Q 3513 2228 3513 1497 
Q 3513 744 3044 326 
Q 2575 -91 1722 -91 
Q 1428 -91 1123 -41 
Q 819 9 494 109 
L 494 744 
Q 775 591 1075 516 
Q 1375 441 1709 441 
Q 2250 441 2565 725 
Q 2881 1009 2881 1497 
Q 2881 1984 2565 2268 
Q 2250 2553 1709 2553 
Q 1456 2553 1204 2497 
Q 953 2441 691 2322 
L 691 4666 
z
" transform="scale(0.015625)"/>
        <path id="DejaVuSans-20" transform="scale(0.015625)"/>
       </defs>
       <use xlink:href="#DejaVuSans-35"/>
       <use xlink:href="#DejaVuSans-30" transform="translate(63.623047 0)"/>
       <use xlink:href="#DejaVuSans-30" transform="translate(127.246094 0)"/>
       <use xlink:href="#DejaVuSans-20" transform="translate(190.869141 0)"/>
      </g>
     </g>
    </g>
    <g id="xtick_3">
     <g id="line2d_3">
      <g>
       <use xlink:href="#me8d0e2dac7" x="148.812753" y="288.430125" style="stroke: #000000; stroke-width: 0.8"/>
      </g>
     </g>
     <g id="text_3">
      <!-- 1 k -->
      <g transform="translate(141.147128 303.028562) scale(0.1 -0.1)">
       <defs>
        <path id="DejaVuSans-31" d="M 794 531 
L 1825 531 
L 1825 4091 
L 703 3866 
L 703 4441 
L 1819 4666 
L 2450 4666 
L 2450 531 
L 3481 531 
L 3481 0 
L 794 0 
L 794 531 
z
" transform="scale(0.015625)"/>
        <path id="DejaVuSans-6b" d="M 581 4863 
L 1159 4863 
L 1159 1991 
L 2875 3500 
L 3609 3500 
L 1753 1863 
L 3688 0 
L 2938 0 
L 1159 1709 
L 1159 0 
L 581 0 
L 581 4863 
z
" transform="scale(0.015625)"/>
       </defs>
       <use xlink:href="#DejaVuSans-31"/>
       <use xlink:href="#DejaVuSans-20" transform="translate(63.623047 0)"/>
       <use xlink:href="#DejaVuSans-6b" transform="translate(95.410156 0)"/>
      </g>
     </g>
    </g>
    <g id="xtick_4">
     <g id="line2d_4">
      <g>
       <use xlink:href="#me8d0e2dac7" x="192.361317" y="288.430125" style="stroke: #000000; stroke-width: 0.8"/>
      </g>
     </g>
     <g id="text_4">
      <!-- 1.5 k -->
      <g transform="translate(179.92538 303.028562) scale(0.1 -0.1)">
       <defs>
        <path id="DejaVuSans-2e" d="M 684 794 
L 1344 794 
L 1344 0 
L 684 0 
L 684 794 
z
" transform="scale(0.015625)"/>
       </defs>
       <use xlink:href="#DejaVuSans-31"/>
       <use xlink:href="#DejaVuSans-2e" transform="translate(63.623047 0)"/>
       <use xlink:href="#DejaVuSans-35" transform="translate(95.410156 0)"/>
       <use xlink:href="#DejaVuSans-20" transform="translate(159.033203 0)"/>
       <use xlink:href="#DejaVuSans-6b" transform="translate(190.820312 0)"/>
      </g>
     </g>
    </g>
    <g id="xtick_5">
     <g id="line2d_5">
      <g>
       <use xlink:href="#me8d0e2dac7" x="235.909881" y="288.430125" style="stroke: #000000; stroke-width: 0.8"/>
      </g>
     </g>
     <g id="text_5">
      <!-- 2 k -->
      <g transform="translate(228.244256 303.028562) scale(0.1 -0.1)">
       <defs>
        <path id="DejaVuSans-32" d="M 1228 531 
L 3431 531 
L 3431 0 
L 469 0 
L 469 531 
Q 828 903 1448 1529 
Q 2069 2156 2228 2338 
Q 2531 2678 2651 2914 
Q 2772 3150 2772 3378 
Q 2772 3750 2511 3984 
Q 2250 4219 1831 4219 
Q 1534 4219 1204 4116 
Q 875 4013 500 3803 
L 500 4441 
Q 881 4594 1212 4672 
Q 1544 4750 1819 4750 
Q 2544 4750 2975 4387 
Q 3406 4025 3406 3419 
Q 3406 3131 3298 2873 
Q 3191 2616 2906 2266 
Q 2828 2175 2409 1742 
Q 1991 1309 1228 531 
z
" transform="scale(0.015625)"/>
       </defs>
       <use xlink:href="#DejaVuSans-32"/>
       <use xlink:href="#DejaVuSans-20" transform="translate(63.623047 0)"/>
       <use xlink:href="#DejaVuSans-6b" transform="translate(95.410156 0)"/>
      </g>
     </g>
    </g>
    <g id="xtick_6">
     <g id="line2d_6">
      <g>
       <use xlink:href="#me8d0e2dac7" x="279.458446" y="288.430125" style="stroke: #000000; stroke-width: 0.8"/>
      </g>
     </g>
     <g id="text_6">
      <!-- 2.5 k -->
      <g transform="translate(267.022508 303.028562) scale(0.1 -0.1)">
       <use xlink:href="#DejaVuSans-32"/>
       <use xlink:href="#DejaVuSans-2e" transform="translate(63.623047 0)"/>
       <use xlink:href="#DejaVuSans-35" transform="translate(95.410156 0)"/>
       <use xlink:href="#DejaVuSans-20" transform="translate(159.033203 0)"/>
       <use xlink:href="#DejaVuSans-6b" transform="translate(190.820312 0)"/>
      </g>
     </g>
    </g>
    <g id="xtick_7">
     <g id="line2d_7">
      <g>
       <use xlink:href="#me8d0e2dac7" x="323.00701" y="288.430125" style="stroke: #000000; stroke-width: 0.8"/>
      </g>
     </g>
     <g id="text_7">
      <!-- 3 k -->
      <g transform="translate(315.341385 303.028562) scale(0.1 -0.1)">
       <defs>
        <path id="DejaVuSans-33" d="M 2597 2516 
Q 3050 2419 3304 2112 
Q 3559 1806 3559 1356 
Q 3559 666 3084 287 
Q 2609 -91 1734 -91 
Q 1441 -91 1130 -33 
Q 819 25 488 141 
L 488 750 
Q 750 597 1062 519 
Q 1375 441 1716 441 
Q 2309 441 2620 675 
Q 2931 909 2931 1356 
Q 2931 1769 2642 2001 
Q 2353 2234 1838 2234 
L 1294 2234 
L 1294 2753 
L 1863 2753 
Q 2328 2753 2575 2939 
Q 2822 3125 2822 3475 
Q 2822 3834 2567 4026 
Q 2313 4219 1838 4219 
Q 1578 4219 1281 4162 
Q 984 4106 628 3988 
L 628 4550 
Q 988 4650 1302 4700 
Q 1616 4750 1894 4750 
Q 2613 4750 3031 4423 
Q 3450 4097 3450 3541 
Q 3450 3153 3228 2886 
Q 3006 2619 2597 2516 
z
" transform="scale(0.015625)"/>
       </defs>
       <use xlink:href="#DejaVuSans-33"/>
       <use xlink:href="#DejaVuSans-20" transform="translate(63.623047 0)"/>
       <use xlink:href="#DejaVuSans-6b" transform="translate(95.410156 0)"/>
      </g>
     </g>
    </g>
    <g id="xtick_8">
     <g id="line2d_8">
      <g>
       <use xlink:href="#me8d0e2dac7" x="366.555574" y="288.430125" style="stroke: #000000; stroke-width: 0.8"/>
      </g>
     </g>
     <g id="text_8">
      <!-- 3.5 k -->
      <g transform="translate(354.119636 303.028562) scale(0.1 -0.1)">
       <use xlink:href="#DejaVuSans-33"/>
       <use xlink:href="#DejaVuSans-2e" transform="translate(63.623047 0)"/>
       <use xlink:href="#DejaVuSans-35" transform="translate(95.410156 0)"/>
       <use xlink:href="#DejaVuSans-20" transform="translate(159.033203 0)"/>
       <use xlink:href="#DejaVuSans-6b" transform="translate(190.820312 0)"/>
      </g>
     </g>
    </g>
    <g id="xtick_9">
     <g id="line2d_9">
      <g>
       <use xlink:href="#me8d0e2dac7" x="410.104138" y="288.430125" style="stroke: #000000; stroke-width: 0.8"/>
      </g>
     </g>
     <g id="text_9">
      <!-- 4 k -->
      <g transform="translate(402.438513 303.028562) scale(0.1 -0.1)">
       <defs>
        <path id="DejaVuSans-34" d="M 2419 4116 
L 825 1625 
L 2419 1625 
L 2419 4116 
z
M 2253 4666 
L 3047 4666 
L 3047 1625 
L 3713 1625 
L 3713 1100 
L 3047 1100 
L 3047 0 
L 2419 0 
L 2419 1100 
L 313 1100 
L 313 1709 
L 2253 4666 
z
" transform="scale(0.015625)"/>
       </defs>
       <use xlink:href="#DejaVuSans-34"/>
       <use xlink:href="#DejaVuSans-20" transform="translate(63.623047 0)"/>
       <use xlink:href="#DejaVuSans-6b" transform="translate(95.410156 0)"/>
      </g>
     </g>
    </g>
    <g id="text_10">
     <!-- Amount of objects in table -->
     <g transform="translate(174.217031 316.706687) scale(0.1 -0.1)">
      <defs>
       <path id="DejaVuSans-41" d="M 2188 4044 
L 1331 1722 
L 3047 1722 
L 2188 4044 
z
M 1831 4666 
L 2547 4666 
L 4325 0 
L 3669 0 
L 3244 1197 
L 1141 1197 
L 716 0 
L 50 0 
L 1831 4666 
z
" transform="scale(0.015625)"/>
       <path id="DejaVuSans-6d" d="M 3328 2828 
Q 3544 3216 3844 3400 
Q 4144 3584 4550 3584 
Q 5097 3584 5394 3201 
Q 5691 2819 5691 2113 
L 5691 0 
L 5113 0 
L 5113 2094 
Q 5113 2597 4934 2840 
Q 4756 3084 4391 3084 
Q 3944 3084 3684 2787 
Q 3425 2491 3425 1978 
L 3425 0 
L 2847 0 
L 2847 2094 
Q 2847 2600 2669 2842 
Q 2491 3084 2119 3084 
Q 1678 3084 1418 2786 
Q 1159 2488 1159 1978 
L 1159 0 
L 581 0 
L 581 3500 
L 1159 3500 
L 1159 2956 
Q 1356 3278 1631 3431 
Q 1906 3584 2284 3584 
Q 2666 3584 2933 3390 
Q 3200 3197 3328 2828 
z
" transform="scale(0.015625)"/>
       <path id="DejaVuSans-6f" d="M 1959 3097 
Q 1497 3097 1228 2736 
Q 959 2375 959 1747 
Q 959 1119 1226 758 
Q 1494 397 1959 397 
Q 2419 397 2687 759 
Q 2956 1122 2956 1747 
Q 2956 2369 2687 2733 
Q 2419 3097 1959 3097 
z
M 1959 3584 
Q 2709 3584 3137 3096 
Q 3566 2609 3566 1747 
Q 3566 888 3137 398 
Q 2709 -91 1959 -91 
Q 1206 -91 779 398 
Q 353 888 353 1747 
Q 353 2609 779 3096 
Q 1206 3584 1959 3584 
z
" transform="scale(0.015625)"/>
       <path id="DejaVuSans-75" d="M 544 1381 
L 544 3500 
L 1119 3500 
L 1119 1403 
Q 1119 906 1312 657 
Q 1506 409 1894 409 
Q 2359 409 2629 706 
Q 2900 1003 2900 1516 
L 2900 3500 
L 3475 3500 
L 3475 0 
L 2900 0 
L 2900 538 
Q 2691 219 2414 64 
Q 2138 -91 1772 -91 
Q 1169 -91 856 284 
Q 544 659 544 1381 
z
M 1991 3584 
L 1991 3584 
z
" transform="scale(0.015625)"/>
       <path id="DejaVuSans-6e" d="M 3513 2113 
L 3513 0 
L 2938 0 
L 2938 2094 
Q 2938 2591 2744 2837 
Q 2550 3084 2163 3084 
Q 1697 3084 1428 2787 
Q 1159 2491 1159 1978 
L 1159 0 
L 581 0 
L 581 3500 
L 1159 3500 
L 1159 2956 
Q 1366 3272 1645 3428 
Q 1925 3584 2291 3584 
Q 2894 3584 3203 3211 
Q 3513 2838 3513 2113 
z
" transform="scale(0.015625)"/>
       <path id="DejaVuSans-74" d="M 1172 4494 
L 1172 3500 
L 2356 3500 
L 2356 3053 
L 1172 3053 
L 1172 1153 
Q 1172 725 1289 603 
Q 1406 481 1766 481 
L 2356 481 
L 2356 0 
L 1766 0 
Q 1100 0 847 248 
Q 594 497 594 1153 
L 594 3053 
L 172 3053 
L 172 3500 
L 594 3500 
L 594 4494 
L 1172 4494 
z
" transform="scale(0.015625)"/>
       <path id="DejaVuSans-66" d="M 2375 4863 
L 2375 4384 
L 1825 4384 
Q 1516 4384 1395 4259 
Q 1275 4134 1275 3809 
L 1275 3500 
L 2222 3500 
L 2222 3053 
L 1275 3053 
L 1275 0 
L 697 0 
L 697 3053 
L 147 3053 
L 147 3500 
L 697 3500 
L 697 3744 
Q 697 4328 969 4595 
Q 1241 4863 1831 4863 
L 2375 4863 
z
" transform="scale(0.015625)"/>
       <path id="DejaVuSans-62" d="M 3116 1747 
Q 3116 2381 2855 2742 
Q 2594 3103 2138 3103 
Q 1681 3103 1420 2742 
Q 1159 2381 1159 1747 
Q 1159 1113 1420 752 
Q 1681 391 2138 391 
Q 2594 391 2855 752 
Q 3116 1113 3116 1747 
z
M 1159 2969 
Q 1341 3281 1617 3432 
Q 1894 3584 2278 3584 
Q 2916 3584 3314 3078 
Q 3713 2572 3713 1747 
Q 3713 922 3314 415 
Q 2916 -91 2278 -91 
Q 1894 -91 1617 61 
Q 1341 213 1159 525 
L 1159 0 
L 581 0 
L 581 4863 
L 1159 4863 
L 1159 2969 
z
" transform="scale(0.015625)"/>
       <path id="DejaVuSans-6a" d="M 603 3500 
L 1178 3500 
L 1178 -63 
Q 1178 -731 923 -1031 
Q 669 -1331 103 -1331 
L -116 -1331 
L -116 -844 
L 38 -844 
Q 366 -844 484 -692 
Q 603 -541 603 -63 
L 603 3500 
z
M 603 4863 
L 1178 4863 
L 1178 4134 
L 603 4134 
L 603 4863 
z
" transform="scale(0.015625)"/>
       <path id="DejaVuSans-65" d="M 3597 1894 
L 3597 1613 
L 953 1613 
Q 991 1019 1311 708 
Q 1631 397 2203 397 
Q 2534 397 2845 478 
Q 3156 559 3463 722 
L 3463 178 
Q 3153 47 2828 -22 
Q 2503 -91 2169 -91 
Q 1331 -91 842 396 
Q 353 884 353 1716 
Q 353 2575 817 3079 
Q 1281 3584 2069 3584 
Q 2775 3584 3186 3129 
Q 3597 2675 3597 1894 
z
M 3022 2063 
Q 3016 2534 2758 2815 
Q 2500 3097 2075 3097 
Q 1594 3097 1305 2825 
Q 1016 2553 972 2059 
L 3022 2063 
z
" transform="scale(0.015625)"/>
       <path id="DejaVuSans-63" d="M 3122 3366 
L 3122 2828 
Q 2878 2963 2633 3030 
Q 2388 3097 2138 3097 
Q 1578 3097 1268 2742 
Q 959 2388 959 1747 
Q 959 1106 1268 751 
Q 1578 397 2138 397 
Q 2388 397 2633 464 
Q 2878 531 3122 666 
L 3122 134 
Q 2881 22 2623 -34 
Q 2366 -91 2075 -91 
Q 1284 -91 818 406 
Q 353 903 353 1747 
Q 353 2603 823 3093 
Q 1294 3584 2113 3584 
Q 2378 3584 2631 3529 
Q 2884 3475 3122 3366 
z
" transform="scale(0.015625)"/>
       <path id="DejaVuSans-73" d="M 2834 3397 
L 2834 2853 
Q 2591 2978 2328 3040 
Q 2066 3103 1784 3103 
Q 1356 3103 1142 2972 
Q 928 2841 928 2578 
Q 928 2378 1081 2264 
Q 1234 2150 1697 2047 
L 1894 2003 
Q 2506 1872 2764 1633 
Q 3022 1394 3022 966 
Q 3022 478 2636 193 
Q 2250 -91 1575 -91 
Q 1294 -91 989 -36 
Q 684 19 347 128 
L 347 722 
Q 666 556 975 473 
Q 1284 391 1588 391 
Q 1994 391 2212 530 
Q 2431 669 2431 922 
Q 2431 1156 2273 1281 
Q 2116 1406 1581 1522 
L 1381 1569 
Q 847 1681 609 1914 
Q 372 2147 372 2553 
Q 372 3047 722 3315 
Q 1072 3584 1716 3584 
Q 2034 3584 2315 3537 
Q 2597 3491 2834 3397 
z
" transform="scale(0.015625)"/>
       <path id="DejaVuSans-69" d="M 603 3500 
L 1178 3500 
L 1178 0 
L 603 0 
L 603 3500 
z
M 603 4863 
L 1178 4863 
L 1178 4134 
L 603 4134 
L 603 4863 
z
" transform="scale(0.015625)"/>
       <path id="DejaVuSans-61" d="M 2194 1759 
Q 1497 1759 1228 1600 
Q 959 1441 959 1056 
Q 959 750 1161 570 
Q 1363 391 1709 391 
Q 2188 391 2477 730 
Q 2766 1069 2766 1631 
L 2766 1759 
L 2194 1759 
z
M 3341 1997 
L 3341 0 
L 2766 0 
L 2766 531 
Q 2569 213 2275 61 
Q 1981 -91 1556 -91 
Q 1019 -91 701 211 
Q 384 513 384 1019 
Q 384 1609 779 1909 
Q 1175 2209 1959 2209 
L 2766 2209 
L 2766 2266 
Q 2766 2663 2505 2880 
Q 2244 3097 1772 3097 
Q 1472 3097 1187 3025 
Q 903 2953 641 2809 
L 641 3341 
Q 956 3463 1253 3523 
Q 1550 3584 1831 3584 
Q 2591 3584 2966 3190 
Q 3341 2797 3341 1997 
z
" transform="scale(0.015625)"/>
       <path id="DejaVuSans-6c" d="M 603 4863 
L 1178 4863 
L 1178 0 
L 603 0 
L 603 4863 
z
" transform="scale(0.015625)"/>
      </defs>
      <use xlink:href="#DejaVuSans-41"/>
      <use xlink:href="#DejaVuSans-6d" transform="translate(68.408203 0)"/>
      <use xlink:href="#DejaVuSans-6f" transform="translate(165.820312 0)"/>
      <use xlink:href="#DejaVuSans-75" transform="translate(227.001953 0)"/>
      <use xlink:href="#DejaVuSans-6e" transform="translate(290.380859 0)"/>
      <use xlink:href="#DejaVuSans-74" transform="translate(353.759766 0)"/>
      <use xlink:href="#DejaVuSans-20" transform="translate(392.96875 0)"/>
      <use xlink:href="#DejaVuSans-6f" transform="translate(424.755859 0)"/>
      <use xlink:href="#DejaVuSans-66" transform="translate(485.9375 0)"/>
      <use xlink:href="#DejaVuSans-20" transform="translate(521.142578 0)"/>
      <use xlink:href="#DejaVuSans-6f" transform="translate(552.929688 0)"/>
      <use xlink:href="#DejaVuSans-62" transform="translate(614.111328 0)"/>
      <use xlink:href="#DejaVuSans-6a" transform="translate(677.587891 0)"/>
      <use xlink:href="#DejaVuSans-65" transform="translate(705.371094 0)"/>
      <use xlink:href="#DejaVuSans-63" transform="translate(766.894531 0)"/>
      <use xlink:href="#DejaVuSans-74" transform="translate(821.875 0)"/>
      <use xlink:href="#DejaVuSans-73" transform="translate(861.083984 0)"/>
      <use xlink:href="#DejaVuSans-20" transform="translate(913.183594 0)"/>
      <use xlink:href="#DejaVuSans-69" transform="translate(944.970703 0)"/>
      <use xlink:href="#DejaVuSans-6e" transform="translate(972.753906 0)"/>
      <use xlink:href="#DejaVuSans-20" transform="translate(1036.132812 0)"/>
      <use xlink:href="#DejaVuSans-74" transform="translate(1067.919922 0)"/>
      <use xlink:href="#DejaVuSans-61" transform="translate(1107.128906 0)"/>
      <use xlink:href="#DejaVuSans-62" transform="translate(1168.408203 0)"/>
      <use xlink:href="#DejaVuSans-6c" transform="translate(1231.884766 0)"/>
      <use xlink:href="#DejaVuSans-65" transform="translate(1259.667969 0)"/>
     </g>
    </g>
   </g>
   <g id="matplotlib.axis_2">
    <g id="ytick_1">
     <g id="line2d_10">
      <defs>
       <path id="me997a8e220" d="M 0 0 
L -3.5 0 
" style="stroke: #000000; stroke-width: 0.8"/>
      </defs>
      <g>
       <use xlink:href="#me997a8e220" x="61.715625" y="288.430125" style="stroke: #000000; stroke-width: 0.8"/>
      </g>
     </g>
     <g id="text_11">
      <!-- 0 -->
      <g transform="translate(48.353125 292.229344) scale(0.1 -0.1)">
       <use xlink:href="#DejaVuSans-30"/>
      </g>
     </g>
    </g>
    <g id="ytick_2">
     <g id="line2d_11">
      <g>
       <use xlink:href="#me997a8e220" x="61.715625" y="255.129373" style="stroke: #000000; stroke-width: 0.8"/>
      </g>
     </g>
     <g id="text_12">
      <!-- 50 µs -->
      <g transform="translate(27.240625 258.928592) scale(0.1 -0.1)">
       <defs>
        <path id="DejaVuSans-b5" d="M 544 -1331 
L 544 3500 
L 1119 3500 
L 1119 1325 
Q 1119 872 1334 640 
Q 1550 409 1972 409 
Q 2434 409 2667 671 
Q 2900 934 2900 1459 
L 2900 3500 
L 3475 3500 
L 3475 806 
Q 3475 619 3529 530 
Q 3584 441 3700 441 
Q 3728 441 3778 458 
Q 3828 475 3916 513 
L 3916 50 
Q 3788 -22 3673 -56 
Q 3559 -91 3450 -91 
Q 3234 -91 3106 31 
Q 2978 153 2931 403 
Q 2775 156 2548 32 
Q 2322 -91 2016 -91 
Q 1697 -91 1473 31 
Q 1250 153 1119 397 
L 1119 -1331 
L 544 -1331 
z
" transform="scale(0.015625)"/>
       </defs>
       <use xlink:href="#DejaVuSans-35"/>
       <use xlink:href="#DejaVuSans-30" transform="translate(63.623047 0)"/>
       <use xlink:href="#DejaVuSans-20" transform="translate(127.246094 0)"/>
       <use xlink:href="#DejaVuSans-b5" transform="translate(159.033203 0)"/>
       <use xlink:href="#DejaVuSans-73" transform="translate(222.65625 0)"/>
      </g>
     </g>
    </g>
    <g id="ytick_3">
     <g id="line2d_12">
      <g>
       <use xlink:href="#me997a8e220" x="61.715625" y="221.828621" style="stroke: #000000; stroke-width: 0.8"/>
      </g>
     </g>
     <g id="text_13">
      <!-- 100 µs -->
      <g transform="translate(20.878125 225.62784) scale(0.1 -0.1)">
       <use xlink:href="#DejaVuSans-31"/>
       <use xlink:href="#DejaVuSans-30" transform="translate(63.623047 0)"/>
       <use xlink:href="#DejaVuSans-30" transform="translate(127.246094 0)"/>
       <use xlink:href="#DejaVuSans-20" transform="translate(190.869141 0)"/>
       <use xlink:href="#DejaVuSans-b5" transform="translate(222.65625 0)"/>
       <use xlink:href="#DejaVuSans-73" transform="translate(286.279297 0)"/>
      </g>
     </g>
    </g>
    <g id="ytick_4">
     <g id="line2d_13">
      <g>
       <use xlink:href="#me997a8e220" x="61.715625" y="188.527869" style="stroke: #000000; stroke-width: 0.8"/>
      </g>
     </g>
     <g id="text_14">
      <!-- 150 µs -->
      <g transform="translate(20.878125 192.327088) scale(0.1 -0.1)">
       <use xlink:href="#DejaVuSans-31"/>
       <use xlink:href="#DejaVuSans-35" transform="translate(63.623047 0)"/>
       <use xlink:href="#DejaVuSans-30" transform="translate(127.246094 0)"/>
       <use xlink:href="#DejaVuSans-20" transform="translate(190.869141 0)"/>
       <use xlink:href="#DejaVuSans-b5" transform="translate(222.65625 0)"/>
       <use xlink:href="#DejaVuSans-73" transform="translate(286.279297 0)"/>
      </g>
     </g>
    </g>
    <g id="ytick_5">
     <g id="line2d_14">
      <g>
       <use xlink:href="#me997a8e220" x="61.715625" y="155.227117" style="stroke: #000000; stroke-width: 0.8"/>
      </g>
     </g>
     <g id="text_15">
      <!-- 200 µs -->
      <g transform="translate(20.878125 159.026336) scale(0.1 -0.1)">
       <use xlink:href="#DejaVuSans-32"/>
       <use xlink:href="#DejaVuSans-30" transform="translate(63.623047 0)"/>
       <use xlink:href="#DejaVuSans-30" transform="translate(127.246094 0)"/>
       <use xlink:href="#DejaVuSans-20" transform="translate(190.869141 0)"/>
       <use xlink:href="#DejaVuSans-b5" transform="translate(222.65625 0)"/>
       <use xlink:href="#DejaVuSans-73" transform="translate(286.279297 0)"/>
      </g>
     </g>
    </g>
    <g id="ytick_6">
     <g id="line2d_15">
      <g>
       <use xlink:href="#me997a8e220" x="61.715625" y="121.926365" style="stroke: #000000; stroke-width: 0.8"/>
      </g>
     </g>
     <g id="text_16">
      <!-- 250 µs -->
      <g transform="translate(20.878125 125.725584) scale(0.1 -0.1)">
       <use xlink:href="#DejaVuSans-32"/>
       <use xlink:href="#DejaVuSans-35" transform="translate(63.623047 0)"/>
       <use xlink:href="#DejaVuSans-30" transform="translate(127.246094 0)"/>
       <use xlink:href="#DejaVuSans-20" transform="translate(190.869141 0)"/>
       <use xlink:href="#DejaVuSans-b5" transform="translate(222.65625 0)"/>
       <use xlink:href="#DejaVuSans-73" transform="translate(286.279297 0)"/>
      </g>
     </g>
    </g>
    <g id="ytick_7">
     <g id="line2d_16">
      <g>
       <use xlink:href="#me997a8e220" x="61.715625" y="88.625613" style="stroke: #000000; stroke-width: 0.8"/>
      </g>
     </g>
     <g id="text_17">
      <!-- 300 µs -->
      <g transform="translate(20.878125 92.424832) scale(0.1 -0.1)">
       <use xlink:href="#DejaVuSans-33"/>
       <use xlink:href="#DejaVuSans-30" transform="translate(63.623047 0)"/>
       <use xlink:href="#DejaVuSans-30" transform="translate(127.246094 0)"/>
       <use xlink:href="#DejaVuSans-20" transform="translate(190.869141 0)"/>
       <use xlink:href="#DejaVuSans-b5" transform="translate(222.65625 0)"/>
       <use xlink:href="#DejaVuSans-73" transform="translate(286.279297 0)"/>
      </g>
     </g>
    </g>
    <g id="ytick_8">
     <g id="line2d_17">
      <g>
       <use xlink:href="#me997a8e220" x="61.715625" y="55.324861" style="stroke: #000000; stroke-width: 0.8"/>
      </g>
     </g>
     <g id="text_18">
      <!-- 350 µs -->
      <g transform="translate(20.878125 59.12408) scale(0.1 -0.1)">
       <use xlink:href="#DejaVuSans-33"/>
       <use xlink:href="#DejaVuSans-35" transform="translate(63.623047 0)"/>
       <use xlink:href="#DejaVuSans-30" transform="translate(127.246094 0)"/>
       <use xlink:href="#DejaVuSans-20" transform="translate(190.869141 0)"/>
       <use xlink:href="#DejaVuSans-b5" transform="translate(222.65625 0)"/>
       <use xlink:href="#DejaVuSans-73" transform="translate(286.279297 0)"/>
      </g>
     </g>
    </g>
    <g id="text_19">
     <!-- Read latency (s) -->
     <g transform="translate(14.798438 195.98975) rotate(-90) scale(0.1 -0.1)">
      <defs>
       <path id="DejaVuSans-52" d="M 2841 2188 
Q 3044 2119 3236 1894 
Q 3428 1669 3622 1275 
L 4263 0 
L 3584 0 
L 2988 1197 
Q 2756 1666 2539 1819 
Q 2322 1972 1947 1972 
L 1259 1972 
L 1259 0 
L 628 0 
L 628 4666 
L 2053 4666 
Q 2853 4666 3247 4331 
Q 3641 3997 3641 3322 
Q 3641 2881 3436 2590 
Q 3231 2300 2841 2188 
z
M 1259 4147 
L 1259 2491 
L 2053 2491 
Q 2509 2491 2742 2702 
Q 2975 2913 2975 3322 
Q 2975 3731 2742 3939 
Q 2509 4147 2053 4147 
L 1259 4147 
z
" transform="scale(0.015625)"/>
       <path id="DejaVuSans-64" d="M 2906 2969 
L 2906 4863 
L 3481 4863 
L 3481 0 
L 2906 0 
L 2906 525 
Q 2725 213 2448 61 
Q 2172 -91 1784 -91 
Q 1150 -91 751 415 
Q 353 922 353 1747 
Q 353 2572 751 3078 
Q 1150 3584 1784 3584 
Q 2172 3584 2448 3432 
Q 2725 3281 2906 2969 
z
M 947 1747 
Q 947 1113 1208 752 
Q 1469 391 1925 391 
Q 2381 391 2643 752 
Q 2906 1113 2906 1747 
Q 2906 2381 2643 2742 
Q 2381 3103 1925 3103 
Q 1469 3103 1208 2742 
Q 947 2381 947 1747 
z
" transform="scale(0.015625)"/>
       <path id="DejaVuSans-79" d="M 2059 -325 
Q 1816 -950 1584 -1140 
Q 1353 -1331 966 -1331 
L 506 -1331 
L 506 -850 
L 844 -850 
Q 1081 -850 1212 -737 
Q 1344 -625 1503 -206 
L 1606 56 
L 191 3500 
L 800 3500 
L 1894 763 
L 2988 3500 
L 3597 3500 
L 2059 -325 
z
" transform="scale(0.015625)"/>
       <path id="DejaVuSans-28" d="M 1984 4856 
Q 1566 4138 1362 3434 
Q 1159 2731 1159 2009 
Q 1159 1288 1364 580 
Q 1569 -128 1984 -844 
L 1484 -844 
Q 1016 -109 783 600 
Q 550 1309 550 2009 
Q 550 2706 781 3412 
Q 1013 4119 1484 4856 
L 1984 4856 
z
" transform="scale(0.015625)"/>
       <path id="DejaVuSans-29" d="M 513 4856 
L 1013 4856 
Q 1481 4119 1714 3412 
Q 1947 2706 1947 2009 
Q 1947 1309 1714 600 
Q 1481 -109 1013 -844 
L 513 -844 
Q 928 -128 1133 580 
Q 1338 1288 1338 2009 
Q 1338 2731 1133 3434 
Q 928 4138 513 4856 
z
" transform="scale(0.015625)"/>
      </defs>
      <use xlink:href="#DejaVuSans-52"/>
      <use xlink:href="#DejaVuSans-65" transform="translate(64.982422 0)"/>
      <use xlink:href="#DejaVuSans-61" transform="translate(126.505859 0)"/>
      <use xlink:href="#DejaVuSans-64" transform="translate(187.785156 0)"/>
      <use xlink:href="#DejaVuSans-20" transform="translate(251.261719 0)"/>
      <use xlink:href="#DejaVuSans-6c" transform="translate(283.048828 0)"/>
      <use xlink:href="#DejaVuSans-61" transform="translate(310.832031 0)"/>
      <use xlink:href="#DejaVuSans-74" transform="translate(372.111328 0)"/>
      <use xlink:href="#DejaVuSans-65" transform="translate(411.320312 0)"/>
      <use xlink:href="#DejaVuSans-6e" transform="translate(472.84375 0)"/>
      <use xlink:href="#DejaVuSans-63" transform="translate(536.222656 0)"/>
      <use xlink:href="#DejaVuSans-79" transform="translate(591.203125 0)"/>
      <use xlink:href="#DejaVuSans-20" transform="translate(650.382812 0)"/>
      <use xlink:href="#DejaVuSans-28" transform="translate(682.169922 0)"/>
      <use xlink:href="#DejaVuSans-73" transform="translate(721.183594 0)"/>
      <use xlink:href="#DejaVuSans-29" transform="translate(773.283203 0)"/>
     </g>
    </g>
   </g>
   <g id="line2d_18">
    <path d="M 147.070811 211.269411 
L 149.683725 213.349157 
L 150.554696 213.928131 
L 150.990181 213.406159 
L 152.296638 214.380887 
L 153.603095 215.363759 
L 154.474067 214.308414 
L 155.345038 214.462318 
L 155.780523 214.389845 
L 156.216009 214.445218 
L 156.651495 214.257927 
L 157.522466 214.138223 
L 158.393437 213.679767 
L 158.828923 212.534848 
L 159.264409 212.468888 
L 159.699894 212.250654 
L 160.13538 212.18388 
L 161.006351 211.763696 
L 161.877322 211.78894 
L 163.183779 211.637478 
L 164.490236 211.442858 
L 166.667665 211.281625 
L 167.10315 211.189608 
L 168.409607 211.308497 
L 169.716064 211.187165 
L 170.587035 211.24091 
L 171.458007 211.228695 
L 171.893492 211.098406 
L 172.328978 211.127721 
L 173.199949 211.450187 
L 174.07092 211.461588 
L 174.506406 211.361428 
L 174.941892 211.409472 
L 175.812863 211.103291 
L 177.554806 211.213223 
L 177.990291 210.995803 
L 178.425777 211.125278 
L 179.296748 210.982774 
L 179.732234 209.681507 
L 180.167719 209.671735 
L 180.603205 211.440416 
L 181.038691 211.520218 
L 182.345148 211.316641 
L 183.651605 211.309312 
L 184.522576 211.192865 
L 185.393547 210.978702 
L 186.700004 210.878542 
L 187.13549 210.696137 
L 188.441947 210.730338 
L 188.877432 210.801183 
L 189.312918 209.344383 
L 189.748403 209.299596 
L 191.490346 208.411184 
L 192.361317 208.438056 
L 195.845202 208.299624 
L 198.022631 208.302881 
L 198.458116 208.400598 
L 198.893602 208.325682 
L 199.329088 208.59929 
L 205.425887 208.508901 
L 207.167829 207.938885 
L 208.0388 208.001586 
L 209.345257 207.675863 
L 209.780743 207.744265 
L 210.216229 209.078918 
L 211.522686 209.206764 
L 212.829142 209.050417 
L 215.006571 209.10579 
L 217.619485 208.091975 
L 218.05497 207.830581 
L 218.490456 207.741822 
L 219.796913 207.219035 
L 220.667884 206.887611 
L 221.538855 206.57573 
L 221.974341 207.267079 
L 223.716283 207.084674 
L 224.151769 206.814323 
L 225.893712 206.430783 
L 227.635654 206.188119 
L 229.813082 205.606702 
L 231.119539 205.44954 
L 231.555025 206.050501 
L 232.425996 205.703605 
L 233.296968 205.488627 
L 234.603425 204.987827 
L 235.03891 205.124631 
L 235.474396 205.135217 
L 235.909881 205.929983 
L 238.08731 205.127074 
L 238.522795 205.068443 
L 239.393767 206.671005 
L 241.135709 206.264664 
L 242.00668 206.092845 
L 242.442166 205.939755 
L 242.877652 205.971513 
L 243.313137 206.136818 
L 243.748623 206.16939 
L 244.184109 206.015485 
L 244.619594 206.138446 
L 245.05508 206.111574 
L 245.926051 206.27525 
L 246.361537 206.214177 
L 247.667994 206.32248 
L 248.103479 206.344466 
L 248.538965 206.23372 
L 248.974451 206.281765 
L 249.409936 206.209291 
L 249.845422 206.255707 
L 250.280908 206.145775 
L 251.151879 206.217434 
L 251.587365 206.071673 
L 252.02285 206.153918 
L 252.893821 206.171019 
L 253.764793 206.250007 
L 255.07125 206.33388 
L 255.506735 206.093659 
L 256.377707 206.008157 
L 256.813192 206.058644 
L 257.248678 205.937312 
L 262.474506 206.013042 
L 262.909991 206.168576 
L 263.780962 206.06353 
L 264.216448 206.0163 
L 264.651934 207.026044 
L 266.393876 206.91774 
L 266.829362 206.84201 
L 267.264848 206.652275 
L 268.571305 206.749178 
L 269.442276 206.642504 
L 270.313247 206.755693 
L 270.748733 206.740221 
L 271.184218 206.441369 
L 271.619704 205.406382 
L 272.05519 205.607516 
L 273.797132 205.590416 
L 274.232618 206.950313 
L 274.668104 207.057802 
L 275.103589 207.358282 
L 275.97456 207.686449 
L 276.845532 205.741063 
L 277.281017 205.597745 
L 277.716503 205.751649 
L 278.587474 205.651489 
L 279.02296 205.720705 
L 279.893931 205.623803 
L 280.329417 205.735363 
L 280.764902 204.959326 
L 281.200388 204.843694 
L 281.635874 204.910467 
L 282.506845 204.864052 
L 285.119759 205.023656 
L 285.99073 204.813565 
L 289.910101 204.513084 
L 291.216558 204.882781 
L 291.652044 204.782621 
L 292.523015 204.915353 
L 292.9585 204.783435 
L 294.264957 205.026099 
L 294.700443 205.013885 
L 295.135929 205.174304 
L 295.571414 205.067629 
L 296.877871 205.20199 
L 297.748842 205.322508 
L 299.055299 205.515499 
L 304.716613 206.653904 
L 305.152098 206.657161 
L 306.458555 207.003243 
L 306.894041 206.891682 
L 310.377926 207.031744 
L 310.813412 207.151447 
L 312.119869 206.998357 
L 312.99084 206.971485 
L 313.426326 207.017086 
L 313.861811 206.934841 
L 315.168268 206.994285 
L 315.603754 206.288279 
L 316.039239 206.27525 
L 316.474725 206.144146 
L 317.345696 206.18649 
L 318.216668 206.001642 
L 319.087639 206.258964 
L 319.95861 206.324923 
L 320.829581 206.209291 
L 322.571524 206.391696 
L 323.00701 206.244306 
L 323.442495 206.263036 
L 324.313467 206.140889 
L 326.490895 206.102617 
L 326.92638 205.938126 
L 328.232837 206.091216 
L 328.668323 207.04803 
L 329.97478 206.947056 
L 330.410266 206.804551 
L 331.281237 206.948684 
L 331.716722 206.824095 
L 333.023179 206.879468 
L 333.894151 207.009757 
L 336.071579 207.243464 
L 336.507065 207.469842 
L 336.94255 207.515444 
L 337.378036 207.368868 
L 338.249007 207.438898 
L 340.861921 207.666091 
L 341.297407 207.520329 
L 342.168378 207.730421 
L 342.603864 207.492643 
L 343.474835 207.320009 
L 343.91032 207.445413 
L 344.781292 207.364796 
L 348.700662 208.030902 
L 349.136148 207.973086 
L 349.571634 208.163634 
L 351.313576 208.066731 
L 351.749062 208.172591 
L 352.184548 208.41607 
L 353.491005 208.367211 
L 354.361976 208.645705 
L 355.668433 208.750751 
L 356.103918 209.110676 
L 356.539404 210.170093 
L 356.97489 210.03736 
L 360.023289 210.141592 
L 360.458775 209.871241 
L 360.89426 209.9486 
L 361.329746 211.197751 
L 361.765232 212.052776 
L 362.636203 212.21401 
L 364.378146 212.336156 
L 364.813631 212.328827 
L 365.249117 212.206681 
L 365.684603 212.961546 
L 366.991059 212.983532 
L 368.733002 212.753083 
L 369.603973 212.712367 
L 370.039459 212.617093 
L 370.91043 212.575563 
L 371.781401 212.609764 
L 373.087858 212.65618 
L 373.95883 212.844285 
L 375.265287 212.544619 
L 376.571744 212.707481 
L 377.007229 212.794612 
L 377.442715 212.658623 
L 378.313686 212.769369 
L 379.620143 212.493318 
L 380.9266 212.174108 
L 381.797571 212.169223 
L 383.539514 212.133393 
L 384.845971 211.884214 
L 387.023399 211.938773 
L 387.458885 212.002289 
L 387.89437 211.885843 
L 388.329856 211.906201 
L 388.765341 210.66275 
L 390.94277 210.493374 
L 391.813741 210.431486 
L 392.249227 210.361455 
L 392.684712 210.473016 
L 393.120198 210.354127 
L 396.604083 210.328069 
L 397.039569 210.209994 
L 397.91054 210.4038 
L 398.346026 210.275139 
L 398.781511 210.365527 
L 399.216997 210.265367 
L 400.087968 210.329697 
L 400.523454 211.018603 
L 401.394425 211.081305 
L 401.829911 211.162736 
L 401.829911 211.162736 
" clip-path="url(#p54c26d53d1)" style="fill: none; stroke: #1f77b4; stroke-opacity: 0.8; stroke-width: 1.5; stroke-linecap: square"/>
   </g>
   <g id="line2d_19">
    <path d="M 147.070811 50.419662 
L 147.506296 50.808088 
L 147.941782 51.498622 
L 148.377268 51.700571 
L 148.812753 52.028738 
L 149.248239 52.699729 
L 149.683725 52.834904 
L 150.11921 53.44075 
L 150.554696 55.230603 
L 150.990181 56.299791 
L 151.425667 57.926782 
L 151.861153 58.592073 
L 152.296638 60.964971 
L 152.732124 62.677464 
L 153.603095 67.257955 
L 154.038581 68.581208 
L 155.345038 74.731688 
L 155.780523 76.349721 
L 156.216009 78.645259 
L 157.08698 81.91064 
L 157.522466 82.505901 
L 157.957952 83.650006 
L 158.828923 85.200451 
L 160.13538 92.933134 
L 160.570866 93.680671 
L 161.006351 96.393136 
L 161.877322 99.783106 
L 162.312808 100.322179 
L 162.748294 101.074601 
L 163.183779 101.250492 
L 164.054751 101.222805 
L 164.490236 101.142189 
L 164.925722 103.331053 
L 165.361208 103.335939 
L 166.232179 102.623418 
L 166.667665 102.214634 
L 168.409607 102.079459 
L 168.845093 101.5184 
L 169.280578 101.513514 
L 169.716064 101.044472 
L 170.15155 101.553415 
L 170.587035 101.530614 
L 171.458007 100.582758 
L 172.328978 99.696789 
L 172.764463 99.893852 
L 173.199949 99.503798 
L 173.635435 99.940268 
L 174.07092 99.966326 
L 174.506406 100.136517 
L 174.941892 99.651188 
L 175.377377 100.12023 
L 175.812863 99.654445 
L 176.248349 99.826265 
L 177.554806 98.571414 
L 177.990291 98.55757 
L 178.425777 98.763591 
L 178.861262 98.842579 
L 179.296748 98.308392 
L 179.732234 98.327121 
L 180.167719 98.48754 
L 181.038691 98.613758 
L 181.474176 98.139015 
L 181.909662 97.103214 
L 182.345148 96.723745 
L 182.780633 96.805176 
L 183.216119 96.681401 
L 183.651605 96.808433 
L 184.522576 96.625214 
L 184.958061 96.525054 
L 185.393547 96.231902 
L 185.829033 96.793776 
L 186.264518 96.858921 
L 186.700004 97.351578 
L 187.13549 96.854035 
L 187.570975 96.668372 
L 188.006461 96.679773 
L 188.441947 96.468052 
L 188.877432 96.424079 
L 189.312918 95.942008 
L 189.748403 95.053596 
L 190.183889 94.568268 
L 191.05486 94.305246 
L 191.490346 94.713215 
L 191.925832 94.298731 
L 192.361317 94.363062 
L 193.232289 93.26863 
L 193.667774 93.300388 
L 194.10326 92.851703 
L 194.538746 92.214913 
L 194.974231 91.863132 
L 195.409717 91.902219 
L 197.151659 90.108295 
L 197.587145 90.569194 
L 198.022631 90.324087 
L 198.458116 89.727198 
L 198.893602 90.194611 
L 199.329088 90.327344 
L 199.764573 90.698669 
L 201.07103 90.598509 
L 201.506516 91.056151 
L 201.942001 91.039865 
L 202.377487 90.556979 
L 202.812973 90.499977 
L 203.248458 89.936475 
L 203.683944 90.069208 
L 204.11943 89.653096 
L 204.990401 89.703583 
L 205.425887 90.330601 
L 206.296858 90.391674 
L 206.732343 90.089565 
L 207.603315 91.42829 
L 208.474286 91.507278 
L 208.909772 91.406304 
L 209.345257 91.801244 
L 210.651714 90.078979 
L 211.0872 89.833058 
L 211.522686 90.53825 
L 212.393657 90.49102 
L 212.829142 90.403075 
L 213.264628 90.605838 
L 213.700114 90.617238 
L 214.135599 90.822444 
L 214.571085 90.506492 
L 215.006571 90.640853 
L 215.442056 90.136795 
L 215.877542 90.097709 
L 216.313028 89.771985 
L 216.748513 89.747555 
L 217.183999 90.166925 
L 217.619485 90.145753 
L 218.05497 89.627852 
L 218.490456 89.36483 
L 219.361427 89.473947 
L 220.232398 88.700353 
L 221.974341 88.957675 
L 222.409827 89.439746 
L 222.845312 88.87543 
L 223.280798 89.055392 
L 223.716283 89.434861 
L 224.151769 87.00659 
L 224.587255 86.52859 
L 225.458226 86.464259 
L 225.893712 86.871414 
L 226.764683 86.767183 
L 227.635654 87.466674 
L 228.506626 87.132808 
L 228.942111 87.519605 
L 229.377597 87.478075 
L 229.813082 87.893373 
L 230.684054 87.91373 
L 231.119539 87.298927 
L 231.555025 87.753311 
L 231.990511 87.564392 
L 233.296968 87.639308 
L 234.167939 87.649894 
L 234.603425 88.479676 
L 235.03891 88.082292 
L 235.474396 88.186524 
L 236.345367 87.615693 
L 236.780853 88.126265 
L 237.216338 88.059492 
L 237.651824 88.572507 
L 238.522795 88.604265 
L 239.393767 88.511434 
L 239.829252 88.848558 
L 240.264738 88.654752 
L 240.700224 88.163723 
L 241.135709 88.061935 
L 241.571195 87.655594 
L 242.442166 87.575792 
L 242.877652 87.110007 
L 243.313137 87.114893 
L 243.748623 86.987046 
L 244.184109 86.396672 
L 244.619594 86.291626 
L 245.05508 86.070134 
L 245.490566 86.493575 
L 246.361537 86.450416 
L 246.797022 86.652365 
L 247.667994 86.757411 
L 248.538965 87.459346 
L 250.280908 87.417002 
L 251.151879 87.765526 
L 251.587365 86.435759 
L 252.893821 85.303868 
L 253.329307 84.478973 
L 254.635764 84.277838 
L 255.506735 84.299825 
L 255.942221 84.763167 
L 256.377707 84.683364 
L 256.813192 85.102734 
L 257.248678 85.053061 
L 257.684164 84.805511 
L 258.555135 84.780267 
L 258.99062 84.454543 
L 259.426106 84.700465 
L 259.861592 85.198008 
L 260.297077 84.598676 
L 260.732563 84.926029 
L 262.03902 85.151592 
L 262.474506 85.069347 
L 262.909991 84.627991 
L 263.345477 84.62962 
L 263.780962 84.248523 
L 264.216448 84.373113 
L 264.651934 83.90407 
L 265.087419 83.675249 
L 265.522905 83.194807 
L 266.393876 83.122333 
L 266.829362 83.790881 
L 267.264848 83.470858 
L 268.135819 82.619904 
L 268.571305 82.360954 
L 269.442276 81.506743 
L 270.748733 80.376481 
L 271.184218 80.24782 
L 271.619704 79.637903 
L 272.05519 79.821122 
L 272.490675 79.601259 
L 272.926161 79.574386 
L 273.361647 79.252734 
L 273.797132 78.659917 
L 274.232618 78.727505 
L 275.539075 80.317851 
L 275.97456 80.304822 
L 276.410046 80.157432 
L 276.845532 80.533643 
L 277.281017 79.258434 
L 278.151989 80.400096 
L 278.587474 79.840666 
L 279.02296 79.857766 
L 279.458446 80.049129 
L 279.893931 80.031214 
L 280.764902 80.70872 
L 281.635874 81.579217 
L 282.071359 81.888654 
L 282.942331 81.768136 
L 283.377816 82.506715 
L 283.813302 81.76325 
L 284.248788 81.69892 
L 284.684273 81.463585 
L 285.99073 81.327595 
L 286.426216 80.664747 
L 286.861701 80.487227 
L 287.297187 80.887053 
L 287.732673 80.698948 
L 288.168158 81.051544 
L 288.603644 80.694876 
L 289.03913 81.19812 
L 289.474615 80.826795 
L 289.910101 79.280421 
L 290.345587 79.20469 
L 290.781072 78.500312 
L 291.216558 78.395266 
L 291.652044 79.254363 
L 292.523015 79.15746 
L 292.9585 78.558942 
L 293.393986 78.53777 
L 294.264957 78.667246 
L 295.135929 79.767378 
L 295.571414 79.742134 
L 296.442386 79.872424 
L 296.877871 79.887896 
L 298.184328 78.812193 
L 298.619814 78.840694 
L 299.055299 77.613529 
L 299.490785 77.663202 
L 299.926271 77.262562 
L 300.361756 77.045141 
L 300.797242 77.054098 
L 301.232728 78.14853 
L 301.668213 78.549985 
L 302.103699 78.653402 
L 302.539185 78.376537 
L 302.97467 78.858608 
L 303.410156 79.670475 
L 303.845641 79.389538 
L 304.281127 79.686761 
L 304.716613 80.554815 
L 305.587584 80.540972 
L 306.02307 80.088216 
L 306.894041 80.042614 
L 307.329527 79.816236 
L 307.765012 79.821937 
L 308.635984 79.082543 
L 309.071469 81.117503 
L 309.506955 81.221735 
L 309.94244 80.90334 
L 310.377926 80.922883 
L 312.555354 80.269807 
L 312.99084 80.488856 
L 313.861811 80.444069 
L 314.297297 80.937541 
L 314.732782 80.65579 
L 315.603754 81.286065 
L 316.039239 81.842238 
L 316.474725 81.834095 
L 316.910211 80.278764 
L 317.781182 79.299964 
L 318.216668 78.413181 
L 318.652153 78.409109 
L 319.523125 78.041042 
L 319.95861 78.325236 
L 320.829581 77.31142 
L 321.265067 77.64203 
L 322.136038 76.491411 
L 323.00701 75.536225 
L 323.442495 75.348934 
L 324.313467 74.565568 
L 324.748952 74.149456 
L 326.490895 74.319647 
L 326.92638 74.782989 
L 327.361866 74.961323 
L 327.797352 75.339977 
L 328.232837 75.269132 
L 329.103809 76.307377 
L 329.539294 76.43848 
L 329.97478 76.124157 
L 330.845751 76.041097 
L 331.281237 75.638014 
L 331.716722 75.485738 
L 332.587694 75.461309 
L 333.458665 74.730059 
L 334.329636 74.827776 
L 334.765122 73.74963 
L 335.636093 72.879133 
L 336.071579 70.016021 
L 336.94255 68.288056 
L 338.249007 69.911789 
L 339.119978 70.187026 
L 339.99095 70.17644 
L 340.426435 67.973733 
L 340.861921 67.886602 
L 341.297407 68.312486 
L 343.039349 67.845072 
L 343.474835 67.373587 
L 343.91032 67.222939 
L 344.345806 66.807642 
L 344.781292 66.806013 
L 345.216777 67.29297 
L 346.087749 67.38743 
L 346.523234 67.651266 
L 347.394206 67.219682 
L 347.829691 67.607293 
L 348.265177 67.58205 
L 348.700662 67.850772 
L 349.571634 67.791327 
L 350.007119 68.162653 
L 350.442605 68.047021 
L 350.878091 68.494077 
L 351.313576 67.722925 
L 351.749062 67.862172 
L 352.184548 68.541307 
L 353.055519 69.457405 
L 353.491005 69.359688 
L 354.361976 69.556751 
L 354.797461 69.66994 
L 355.668433 70.288 
L 356.103918 70.171554 
L 356.539404 70.227742 
L 356.97489 69.967163 
L 357.410375 69.857231 
L 358.281347 70.014392 
L 358.716832 70.256242 
L 359.587804 71.086838 
L 360.023289 70.923976 
L 360.89426 70.989121 
L 361.765232 70.452491 
L 362.200717 71.2326 
L 363.071689 70.31243 
L 363.94266 69.94029 
L 364.378146 70.35396 
L 364.813631 70.372689 
L 365.249117 70.07628 
L 365.684603 70.066508 
L 366.555574 69.088523 
L 366.991059 67.467232 
L 367.426545 67.522605 
L 368.297516 67.288898 
L 368.733002 66.560091 
L 369.168488 66.683052 
L 370.039459 66.582892 
L 370.474945 67.030762 
L 370.91043 66.801127 
L 371.345916 67.132551 
L 371.781401 66.024276 
L 372.216887 65.658651 
L 372.652373 65.502303 
L 373.087858 65.640736 
L 373.523344 65.999032 
L 374.394315 65.810927 
L 374.829801 67.552735 
L 375.265287 64.195337 
L 376.136258 64.039803 
L 377.007229 61.935628 
L 377.442715 61.445413 
L 377.8782 58.414553 
L 379.620143 55.916251 
L 380.055629 55.746061 
L 380.491114 56.125529 
L 380.9266 53.008352 
L 381.362086 52.439964 
L 381.797571 51.436735 
L 382.233057 49.140382 
L 382.668543 45.8579 
L 383.104028 45.738197 
L 383.539514 45.45156 
L 383.974999 43.81154 
L 384.410485 43.940201 
L 384.845971 43.502103 
L 385.281456 43.957302 
L 386.152428 43.26921 
L 386.587913 43.20488 
L 387.023399 42.857984 
L 387.458885 42.670693 
L 388.329856 41.860455 
L 388.765341 41.765995 
L 389.200827 41.83684 
L 389.636313 41.156891 
L 390.94277 41.103147 
L 391.378255 41.086046 
L 391.813741 40.622704 
L 392.249227 40.366197 
L 393.120198 40.393883 
L 393.555684 40.184606 
L 394.426655 39.086916 
L 394.86214 39.227792 
L 396.168597 38.041343 
L 396.604083 37.876852 
L 397.039569 37.99167 
L 397.475054 37.75552 
L 398.781511 37.497384 
L 401.394425 34.990125 
L 401.829911 36.710761 
L 401.829911 36.710761 
" clip-path="url(#p54c26d53d1)" style="fill: none; stroke: #ff7f0e; stroke-opacity: 0.8; stroke-width: 1.5; stroke-linecap: square"/>
   </g>
   <g id="line2d_20">
    <path d="M 147.070811 108.243782 
L 147.941782 108.620808 
L 148.812753 107.974246 
L 149.248239 107.588263 
L 150.11921 107.46856 
L 150.990181 107.305698 
L 151.425667 106.785354 
L 152.296638 106.830141 
L 152.732124 106.789425 
L 153.16761 106.629006 
L 153.603095 106.347255 
L 154.038581 106.628192 
L 154.474067 106.475102 
L 154.909552 105.883913 
L 155.345038 105.613562 
L 155.780523 105.897757 
L 156.216009 105.936029 
L 156.651495 105.741409 
L 157.08698 105.967787 
L 157.522466 105.243866 
L 157.957952 105.52236 
L 158.393437 106.736495 
L 158.828923 106.539432 
L 159.264409 107.492989 
L 159.699894 107.788583 
L 161.006351 106.628192 
L 161.441837 107.080948 
L 161.877322 107.193323 
L 162.312808 107.547548 
L 163.183779 107.492175 
L 163.619265 107.370028 
L 164.054751 106.912386 
L 164.490236 105.475944 
L 164.925722 105.156735 
L 165.361208 105.339954 
L 165.796693 105.88147 
L 166.232179 106.12332 
L 166.667665 106.116806 
L 167.10315 106.580962 
L 168.409607 105.551675 
L 169.280578 104.728408 
L 169.716064 102.982528 
L 170.15155 102.935298 
L 170.587035 103.160862 
L 171.022521 102.707292 
L 172.764463 102.556644 
L 173.199949 102.676348 
L 173.635435 102.440198 
L 174.07092 101.828652 
L 174.941892 101.87751 
L 176.248349 101.576216 
L 176.683834 101.887282 
L 177.11932 101.506185 
L 177.554806 101.823766 
L 177.990291 99.361294 
L 178.861262 100.051828 
L 179.296748 99.728547 
L 180.167719 99.595815 
L 180.603205 99.11863 
L 181.038691 99.125958 
L 181.474176 99.41911 
L 181.909662 99.86698 
L 182.345148 99.818122 
L 182.780633 100.405239 
L 183.216119 100.338465 
L 183.651605 100.126745 
L 184.08709 100.129188 
L 184.958061 99.584415 
L 185.393547 99.851508 
L 186.700004 98.548613 
L 187.570975 98.866194 
L 188.006461 98.715546 
L 188.441947 99.995641 
L 189.748403 98.722061 
L 191.490346 99.984241 
L 191.925832 100.713862 
L 192.361317 100.927211 
L 193.232289 100.357194 
L 193.667774 100.375109 
L 194.10326 100.974441 
L 194.538746 101.149518 
L 194.974231 101.183719 
L 195.409717 101.590873 
L 195.845202 101.551787 
L 196.280688 101.901125 
L 196.716174 101.583545 
L 197.151659 101.926369 
L 197.587145 102.034672 
L 198.022631 101.861224 
L 198.458116 102.138904 
L 199.329088 101.870996 
L 199.764573 102.306651 
L 200.200059 102.021643 
L 200.635545 101.949984 
L 201.506516 100.691061 
L 201.942001 101.831095 
L 202.377487 102.072945 
L 202.812973 102.120175 
L 203.248458 101.923926 
L 203.683944 101.970342 
L 204.990401 101.148703 
L 205.425887 101.572144 
L 205.861372 101.486642 
L 206.296858 100.943497 
L 206.732343 100.84008 
L 207.167829 100.985841 
L 208.474286 100.850666 
L 209.345257 100.328694 
L 209.780743 100.099058 
L 210.216229 100.049385 
L 210.651714 100.482598 
L 211.0872 100.537157 
L 211.522686 101.711391 
L 211.958171 101.305865 
L 212.393657 101.38811 
L 213.264628 101.23502 
L 214.571085 100.028213 
L 215.006571 100.151988 
L 215.442056 99.730176 
L 215.877542 100.330322 
L 216.313028 100.465498 
L 216.748513 99.923167 
L 218.05497 100.205733 
L 218.925941 99.904438 
L 219.361427 99.5665 
L 220.232398 99.209832 
L 220.667884 98.836064 
L 221.10337 98.941924 
L 221.538855 99.350708 
L 221.974341 99.265205 
L 222.409827 99.312435 
L 222.845312 99.028241 
L 223.280798 99.400381 
L 223.716283 98.959839 
L 224.587255 99.539628 
L 225.02274 99.401195 
L 225.458226 100.108016 
L 226.764683 99.073843 
L 227.200169 98.997298 
L 227.635654 98.633301 
L 228.07114 97.835278 
L 228.942111 98.021755 
L 229.377597 97.886579 
L 230.248568 98.044555 
L 230.684054 98.541284 
L 231.119539 98.308392 
L 231.555025 97.849121 
L 232.425996 97.420794 
L 232.861482 95.983538 
L 233.732453 96.551926 
L 234.603425 96.460723 
L 235.03891 96.743289 
L 235.474396 96.39395 
L 235.909881 96.416751 
L 236.345367 96.309262 
L 236.780853 96.53564 
L 237.216338 96.244931 
L 237.651824 95.79869 
L 238.522795 96.023439 
L 238.958281 95.920836 
L 239.393767 95.547068 
L 239.829252 96.11057 
L 240.264738 96.381735 
L 240.700224 96.022625 
L 242.00668 95.708301 
L 242.442166 96.380921 
L 242.877652 95.696901 
L 243.313137 96.011224 
L 245.05508 96.464795 
L 245.490566 96.880907 
L 245.926051 97.103214 
L 246.361537 97.007125 
L 246.797022 96.560069 
L 247.667994 96.127671 
L 248.103479 96.096727 
L 248.974451 95.6798 
L 249.409936 97.664273 
L 249.845422 97.564113 
L 250.280908 97.190345 
L 250.716393 96.970481 
L 251.151879 97.003053 
L 251.587365 96.896379 
L 252.02285 96.981881 
L 252.893821 96.858921 
L 253.329307 96.237602 
L 253.764793 96.055197 
L 254.200278 96.267732 
L 254.635764 97.665901 
L 255.07125 97.141486 
L 255.506735 96.880907 
L 255.942221 97.017711 
L 256.813192 95.96318 
L 257.248678 95.583712 
L 258.119649 95.442022 
L 258.555135 95.249845 
L 258.99062 95.712373 
L 259.426106 95.518567 
L 259.861592 94.959951 
L 260.297077 95.082912 
L 260.732563 95.011252 
L 261.168049 95.259617 
L 261.603534 94.643999 
L 262.474506 94.31176 
L 262.909991 96.992467 
L 263.345477 96.578798 
L 263.780962 96.621142 
L 264.216448 97.112985 
L 264.651934 97.391479 
L 265.087419 97.316563 
L 265.522905 97.774205 
L 265.958391 96.937909 
L 266.829362 97.057612 
L 267.264848 97.029926 
L 267.700333 95.605698 
L 268.135819 95.695272 
L 269.00679 95.254731 
L 269.442276 95.349191 
L 270.313247 95.30929 
L 271.184218 96.1635 
L 271.619704 96.767718 
L 272.05519 96.70583 
L 272.490675 96.869507 
L 272.926161 97.418351 
L 273.361647 97.323077 
L 273.797132 97.75059 
L 274.232618 95.767746 
L 274.668104 96.251446 
L 275.103589 96.317405 
L 275.539075 96.062526 
L 275.97456 93.876919 
L 276.410046 93.889134 
L 276.845532 93.61064 
L 277.716503 94.043038 
L 278.151989 94.051181 
L 278.587474 93.758844 
L 279.02296 93.959164 
L 279.458446 93.600868 
L 279.893931 93.659498 
L 280.329417 93.097625 
L 280.764902 92.776787 
L 281.200388 92.688027 
L 281.635874 92.778416 
L 282.506845 92.444549 
L 282.942331 92.789002 
L 283.377816 92.528423 
L 283.813302 92.706756 
L 284.248788 92.394876 
L 284.684273 92.280872 
L 285.119759 92.657083 
L 285.555245 92.771087 
L 286.426216 93.638326 
L 286.861701 93.361461 
L 287.297187 93.660313 
L 287.732673 93.709986 
L 288.168158 92.311816 
L 288.603644 92.028436 
L 289.474615 91.863132 
L 289.910101 92.446992 
L 290.345587 91.931534 
L 290.781072 92.400576 
L 291.216558 92.35986 
L 291.652044 92.130225 
L 292.523015 91.513793 
L 292.9585 91.884304 
L 293.393986 91.907919 
L 293.829472 91.341974 
L 294.700443 92.144068 
L 295.135929 91.743428 
L 296.0069 91.652225 
L 296.442386 91.193769 
L 296.877871 91.435619 
L 297.313357 90.989378 
L 298.184328 91.881861 
L 298.619814 91.990164 
L 299.055299 92.391619 
L 299.490785 92.438848 
L 299.926271 91.916876 
L 300.361756 92.333803 
L 300.797242 92.032508 
L 301.232728 91.523565 
L 301.668213 92.015408 
L 302.103699 91.833002 
L 302.539185 92.218985 
L 302.97467 92.368004 
L 303.410156 92.381847 
L 303.845641 92.540637 
L 306.02307 94.11144 
L 306.458555 94.214043 
L 306.894041 94.48928 
L 307.329527 94.457522 
L 307.765012 94.715658 
L 308.200498 94.604912 
L 308.635984 94.614684 
L 309.071469 94.165999 
L 309.506955 94.259645 
L 309.94244 94.467294 
L 310.377926 94.494166 
L 310.813412 94.399706 
L 311.684383 94.989266 
L 312.555354 94.955065 
L 312.99084 95.46808 
L 313.426326 95.592669 
L 314.297297 95.259617 
L 314.732782 95.669214 
L 315.168268 95.327204 
L 315.603754 95.202615 
L 316.039239 95.384206 
L 316.474725 95.911879 
L 316.910211 95.883378 
L 317.345696 95.349191 
L 317.781182 96.753875 
L 318.652153 95.932236 
L 319.087639 96.10487 
L 319.95861 96.078812 
L 320.394096 96.578798 
L 320.829581 96.036468 
L 321.265067 96.591013 
L 321.700553 96.132557 
L 322.136038 95.971323 
L 322.571524 96.423265 
L 323.00701 96.416751 
L 323.877981 96.678144 
L 324.313467 97.09507 
L 325.184438 96.357306 
L 325.619924 96.68873 
L 326.490895 96.866249 
L 326.92638 96.582055 
L 327.361866 96.555998 
L 327.797352 96.805176 
L 328.668323 96.737589 
L 329.103809 96.984324 
L 329.539294 96.766089 
L 329.97478 96.700945 
L 330.410266 96.330434 
L 330.845751 96.190373 
L 331.716722 96.208287 
L 332.152208 96.442808 
L 332.587694 96.339391 
L 333.023179 95.990867 
L 333.458665 95.988424 
L 333.894151 96.472938 
L 334.329636 96.301933 
L 334.765122 96.718045 
L 335.200608 95.700973 
L 335.636093 95.430622 
L 336.071579 94.901321 
L 336.507065 95.222158 
L 336.94255 95.251474 
L 337.378036 95.117113 
L 337.813521 95.540554 
L 338.249007 96.350792 
L 338.684493 96.570655 
L 339.99095 96.79459 
L 340.426435 97.082041 
L 341.732892 97.50304 
L 342.168378 97.921595 
L 343.039349 96.732703 
L 343.474835 97.197673 
L 344.345806 97.509554 
L 344.781292 98.032341 
L 345.216777 97.890651 
L 345.652263 97.900423 
L 346.523234 98.638187 
L 346.95872 99.209018 
L 347.394206 99.046156 
L 348.265177 99.248919 
L 348.700662 98.511155 
L 349.571634 98.700889 
L 350.007119 98.35725 
L 350.442605 98.367022 
L 350.878091 98.836064 
L 351.313576 98.460668 
L 352.184548 98.441938 
L 352.620033 99.358037 
L 353.055519 98.897952 
L 353.491005 98.991597 
L 353.92649 98.68786 
L 354.361976 98.741604 
L 354.797461 98.669131 
L 355.232947 98.95251 
L 357.845861 99.117001 
L 358.281347 99.507055 
L 358.716832 99.178074 
L 359.152318 101.267592 
L 360.023289 101.254564 
L 360.458775 101.172318 
L 360.89426 103.367697 
L 361.329746 103.037901 
L 362.200717 102.743121 
L 362.636203 102.459742 
L 363.507174 103.129918 
L 363.94266 102.68612 
L 364.813631 102.540358 
L 365.684603 103.756937 
L 366.555574 104.066374 
L 367.426545 104.782152 
L 367.862031 104.408384 
L 368.297516 104.842411 
L 368.733002 104.472715 
L 369.168488 104.872541 
L 369.603973 104.83264 
L 370.474945 104.311482 
L 370.91043 104.249594 
L 372.652373 103.194249 
L 373.087858 104.453986 
L 374.394315 105.237351 
L 374.829801 105.248752 
L 375.265287 105.661607 
L 375.700772 105.543532 
L 376.136258 106.136349 
L 376.571744 106.186022 
L 377.007229 106.617606 
L 377.442715 106.857013 
L 377.8782 105.900199 
L 378.313686 105.850527 
L 378.749172 106.781282 
L 379.184657 106.116806 
L 379.620143 106.079348 
L 380.055629 106.481616 
L 380.491114 106.378199 
L 380.9266 106.068762 
L 381.362086 106.528846 
L 381.797571 106.383899 
L 382.668543 106.513375 
L 383.104028 106.126577 
L 383.539514 106.289439 
L 383.974999 106.012574 
L 384.845971 106.633078 
L 385.281456 106.482431 
L 385.716942 106.550018 
L 386.152428 106.975088 
L 387.023399 106.640407 
L 387.89437 106.762553 
L 388.765341 106.883885 
L 389.200827 106.983231 
L 390.071798 106.216152 
L 390.507284 106.332598 
L 390.94277 106.227552 
L 391.378255 105.961273 
L 392.249227 106.238952 
L 392.684712 106.043518 
L 393.991169 106.375756 
L 394.86214 106.188465 
L 395.297626 106.242209 
L 395.733112 106.664022 
L 396.168597 106.627378 
L 396.604083 106.34237 
L 397.039569 106.405071 
L 397.91054 106.158336 
L 398.346026 106.188465 
L 398.781511 106.667279 
L 399.216997 106.594805 
L 399.652483 106.652621 
L 400.523454 107.258468 
L 400.958939 106.532918 
L 401.394425 106.451487 
L 401.829911 106.897729 
L 401.829911 106.897729 
" clip-path="url(#p54c26d53d1)" style="fill: none; stroke: #2ca02c; stroke-opacity: 0.8; stroke-width: 1.5; stroke-linecap: square"/>
   </g>
   <g id="line2d_21">
    <path d="M 147.070811 181.462424 
L 148.377268 181.144029 
L 148.812753 179.879407 
L 149.248239 180.218974 
L 149.683725 180.171744 
L 150.11921 178.95598 
L 150.990181 178.895721 
L 151.425667 178.71413 
L 152.296638 178.592797 
L 154.038581 177.967408 
L 154.474067 176.81516 
L 155.345038 176.758972 
L 156.216009 176.508979 
L 157.08698 176.200356 
L 157.522466 175.403147 
L 157.957952 175.41129 
L 158.393437 176.489436 
L 159.264409 176.235371 
L 159.699894 176.619725 
L 161.441837 176.619725 
L 161.877322 176.063552 
L 162.312808 175.927562 
L 162.748294 176.300516 
L 163.619265 176.132768 
L 164.054751 175.761443 
L 164.490236 175.699556 
L 165.361208 175.769586 
L 165.796693 175.65314 
L 166.232179 175.066023 
L 166.667665 175.048922 
L 167.10315 175.645811 
L 167.538636 174.995178 
L 167.974121 174.920261 
L 168.409607 173.939018 
L 168.845093 173.772085 
L 169.280578 174.482163 
L 169.716064 173.843744 
L 170.15155 173.667039 
L 170.587035 172.913803 
L 171.022521 172.785956 
L 171.458007 173.354344 
L 171.893492 172.170338 
L 172.764463 171.934188 
L 173.199949 171.982233 
L 173.635435 172.741983 
L 174.07092 172.874716 
L 174.506406 172.115779 
L 174.941892 171.127208 
L 175.377377 171.728982 
L 175.812863 171.519705 
L 176.248349 170.966789 
L 177.11932 170.8821 
L 177.554806 171.957803 
L 178.425777 171.844614 
L 178.861262 171.929303 
L 179.296748 171.022162 
L 179.732234 172.054706 
L 180.167719 172.112522 
L 180.603205 172.018877 
L 181.038691 172.145909 
L 181.474176 171.111736 
L 181.909662 171.535991 
L 183.216119 171.487132 
L 183.651605 170.961903 
L 184.522576 170.847899 
L 184.958061 171.623936 
L 185.393547 171.519705 
L 185.829033 170.738782 
L 186.264518 171.565306 
L 187.570975 171.369058 
L 188.006461 170.918744 
L 188.441947 170.760768 
L 189.312918 170.669566 
L 189.748403 171.277041 
L 190.183889 170.240425 
L 190.619375 170.091406 
L 191.05486 170.448073 
L 191.925832 170.474946 
L 192.361317 169.876428 
L 193.232289 169.698094 
L 193.667774 169.749396 
L 194.10326 170.273811 
L 194.538746 169.649236 
L 195.845202 169.448916 
L 196.280688 169.84467 
L 196.716174 169.812912 
L 197.151659 169.669594 
L 197.587145 169.162279 
L 198.022631 167.825997 
L 198.458116 168.981502 
L 198.893602 169.032804 
L 199.764573 167.347183 
L 200.635545 167.320311 
L 201.07103 167.371612 
L 201.506516 166.484015 
L 201.942001 166.549159 
L 202.377487 167.512488 
L 203.248458 167.855312 
L 203.683944 167.101261 
L 204.11943 167.143605 
L 204.554915 166.714464 
L 207.603315 166.70795 
L 208.909772 166.851268 
L 209.345257 167.041817 
L 210.651714 167.194907 
L 211.0872 166.263337 
L 211.522686 166.354539 
L 211.958171 167.376498 
L 212.393657 167.516559 
L 212.829142 166.651762 
L 213.264628 168.084133 
L 214.135599 168.220123 
L 214.571085 167.768995 
L 215.006571 166.718536 
L 215.877542 166.746222 
L 216.313028 167.382198 
L 216.748513 167.393598 
L 217.183999 166.886284 
L 217.619485 168.068661 
L 218.490456 168.154164 
L 218.925941 168.273053 
L 219.361427 167.994559 
L 220.232398 168.039346 
L 220.667884 168.614248 
L 221.10337 168.626463 
L 221.538855 167.567046 
L 222.409827 167.825997 
L 222.845312 168.781182 
L 223.280798 168.872385 
L 223.716283 168.420443 
L 224.151769 168.592262 
L 224.587255 168.591448 
L 225.02274 169.365042 
L 225.458226 169.360156 
L 226.329197 169.654936 
L 226.764683 169.268953 
L 227.200169 169.683437 
L 228.07114 169.875614 
L 228.506626 170.990404 
L 228.942111 171.083235 
L 229.377597 170.354428 
L 229.813082 171.457003 
L 230.248568 171.44886 
L 230.684054 172.177667 
L 231.119539 172.192325 
L 231.555025 171.290884 
L 232.861482 171.541691 
L 233.296968 171.097078 
L 233.732453 171.663838 
L 234.603425 171.822628 
L 235.03891 173.049792 
L 235.474396 173.102723 
L 235.909881 172.488733 
L 237.651824 173.088879 
L 238.08731 173.605966 
L 238.958281 173.946347 
L 239.393767 175.11081 
L 239.829252 175.314387 
L 240.264738 175.009021 
L 240.700224 175.220742 
L 241.135709 174.374674 
L 242.00668 174.731342 
L 242.442166 174.352688 
L 242.877652 173.768828 
L 243.748623 173.930061 
L 244.184109 174.087223 
L 244.619594 174.61571 
L 245.05508 174.622224 
L 245.490566 173.904817 
L 246.361537 173.987877 
L 246.797022 173.597823 
L 248.538965 174.052207 
L 248.974451 175.192241 
L 249.409936 175.343702 
L 249.845422 174.500078 
L 250.716393 174.895018 
L 251.587365 174.947948 
L 252.02285 174.43249 
L 252.458336 175.114881 
L 252.893821 175.2525 
L 253.329307 176.161269 
L 253.764793 176.206056 
L 254.200278 175.210156 
L 254.635764 175.7362 
L 255.07125 175.206898 
L 255.506735 175.901504 
L 255.942221 175.909648 
L 256.377707 175.017979 
L 256.813192 176.05948 
L 257.684164 176.105896 
L 258.119649 175.994336 
L 258.99062 176.017951 
L 259.861592 177.377848 
L 260.732563 177.394134 
L 261.168049 178.019524 
L 262.03902 178.22473 
L 262.909991 178.157142 
L 263.345477 177.772788 
L 263.780962 177.649013 
L 264.216448 178.539053 
L 264.651934 177.73533 
L 265.522905 177.878648 
L 265.958391 177.879462 
L 266.393876 178.774388 
L 266.829362 178.750774 
L 267.264848 177.918549 
L 267.700333 176.712557 
L 269.442276 176.696271 
L 270.313247 176.910434 
L 270.748733 177.518723 
L 271.184218 177.433221 
L 271.619704 176.477221 
L 272.490675 176.682427 
L 272.926161 177.031766 
L 273.361647 177.045609 
L 273.797132 176.67347 
L 274.668104 176.574124 
L 275.103589 177.485336 
L 275.539075 177.49348 
L 275.97456 177.024437 
L 276.845532 177.06271 
L 277.281017 177.702757 
L 277.716503 177.701943 
L 278.151989 177.271987 
L 279.02296 177.199514 
L 279.458446 177.284202 
L 280.329417 177.330618 
L 281.200388 177.355047 
L 281.635874 176.96255 
L 282.071359 176.954407 
L 282.506845 177.561882 
L 282.942331 178.832204 
L 283.377816 178.801261 
L 283.813302 178.600941 
L 284.684273 179.093598 
L 285.119759 178.947022 
L 285.555245 179.672572 
L 285.99073 178.942951 
L 286.426216 179.841948 
L 287.732673 179.39815 
L 288.168158 179.214116 
L 288.603644 180.041454 
L 289.03913 179.066726 
L 289.474615 179.850906 
L 289.910101 179.874521 
L 290.781072 177.482894 
L 291.216558 177.235343 
L 291.652044 178.108283 
L 292.9585 177.823275 
L 293.393986 176.802131 
L 293.829472 177.603411 
L 294.264957 177.526866 
L 295.135929 177.107497 
L 295.571414 176.583082 
L 296.0069 177.347718 
L 296.442386 177.385176 
L 297.313357 177.011408 
L 297.748842 177.28013 
L 299.055299 177.046424 
L 299.926271 177.503251 
L 300.797242 177.445435 
L 301.668213 177.034209 
L 302.103699 176.408819 
L 302.539185 176.340417 
L 303.410156 175.982935 
L 304.281127 175.879518 
L 304.716613 175.869746 
L 305.152098 175.730499 
L 305.587584 175.721542 
L 306.02307 174.43819 
L 306.458555 171.60765 
L 307.329527 171.592178 
L 307.765012 170.522176 
L 308.200498 170.472503 
L 308.635984 170.921187 
L 309.506955 170.618264 
L 310.377926 170.644322 
L 310.813412 169.495331 
L 311.248897 169.403314 
L 311.684383 169.775454 
L 313.861811 169.478231 
L 314.297297 169.993689 
L 314.732782 169.800697 
L 315.168268 168.800725 
L 315.603754 169.151693 
L 316.039239 168.277124 
L 316.474725 169.059676 
L 316.910211 167.841469 
L 317.345696 164.452312 
L 317.781182 163.188504 
L 318.652153 164.330166 
L 319.087639 164.191733 
L 319.523125 163.064729 
L 320.394096 162.774835 
L 320.829581 163.362766 
L 321.265067 163.214562 
L 321.700553 162.32615 
L 322.571524 161.968668 
L 323.00701 162.502041 
L 323.442495 162.412467 
L 323.877981 161.310706 
L 324.748952 160.98824 
L 325.184438 161.446696 
L 325.619924 161.244747 
L 326.055409 161.625844 
L 326.92638 161.416566 
L 327.361866 162.433639 
L 327.797352 162.817993 
L 328.232837 161.659231 
L 328.668323 161.604672 
L 329.539294 161.163316 
L 329.97478 160.987425 
L 330.410266 161.055827 
L 331.281237 160.923909 
L 331.716722 161.818835 
L 332.152208 161.632358 
L 333.023179 161.543599 
L 334.329636 158.796933 
L 334.765122 159.518411 
L 335.636093 159.143014 
L 336.071579 158.601498 
L 336.507065 157.352348 
L 336.94255 157.83849 
L 337.378036 156.425663 
L 337.813521 156.276645 
L 338.684493 156.2229 
L 339.119978 157.270917 
L 339.555464 156.342604 
L 339.99095 156.983465 
L 340.861921 156.893077 
L 341.297407 157.809989 
L 341.732892 157.306746 
L 342.603864 157.454951 
L 343.039349 157.553482 
L 343.474835 157.529867 
L 343.91032 156.582011 
L 344.781292 156.961479 
L 345.216777 157.020924 
L 345.652263 156.750573 
L 346.087749 155.810045 
L 347.829691 155.711514 
L 348.265177 155.161855 
L 349.136148 154.881732 
L 349.571634 155.659398 
L 350.007119 155.403705 
L 350.442605 154.452591 
L 351.313576 154.427348 
L 351.749062 154.539722 
L 352.184548 155.358103 
L 352.620033 155.538066 
L 353.055519 155.126025 
L 353.491005 155.95825 
L 353.92649 155.823074 
L 354.361976 155.994079 
L 355.232947 155.749786 
L 355.668433 155.163483 
L 356.103918 155.137426 
L 356.539404 156.073882 
L 356.97489 155.098339 
L 357.410375 154.953392 
L 357.845861 155.111368 
L 358.281347 155.103225 
L 358.716832 155.402076 
L 359.587804 155.620311 
L 360.023289 154.614639 
L 360.458775 154.616267 
L 360.89426 155.182213 
L 361.329746 151.259684 
L 362.636203 151.097636 
L 363.071689 151.500719 
L 363.507174 150.668495 
L 363.94266 150.682338 
L 364.378146 151.300399 
L 365.249117 151.190467 
L 365.684603 150.600093 
L 366.120088 150.3729 
L 366.555574 150.891616 
L 366.991059 150.913602 
L 367.426545 150.766212 
L 367.862031 149.586277 
L 368.733002 149.585463 
L 369.603973 150.848457 
L 370.039459 150.388372 
L 370.474945 150.511333 
L 370.91043 151.205939 
L 371.781401 151.08135 
L 372.216887 150.51459 
L 373.087858 150.393258 
L 373.523344 150.353357 
L 373.95883 151.276784 
L 374.394315 150.357429 
L 374.829801 150.271112 
L 375.700772 152.522678 
L 376.136258 152.633424 
L 377.007229 152.599223 
L 377.442715 152.139952 
L 377.8782 152.231969 
L 378.313686 153.415161 
L 378.749172 152.617138 
L 379.184657 151.39893 
L 380.055629 151.566678 
L 380.491114 150.774355 
L 381.362086 150.867186 
L 381.797571 150.191309 
L 382.233057 150.241797 
L 382.668543 150.794713 
L 383.104028 150.267855 
L 384.410485 150.210039 
L 384.845971 150.93966 
L 385.716942 148.414486 
L 386.152428 145.513101 
L 386.587913 145.630362 
L 387.023399 146.745151 
L 387.89437 146.727237 
L 388.329856 145.72075 
L 388.765341 145.851854 
L 389.200827 146.292395 
L 389.636313 145.374669 
L 390.071798 145.451214 
L 390.507284 145.316038 
L 390.94277 146.518773 
L 391.378255 150.335442 
L 391.813741 149.861514 
L 392.249227 149.717381 
L 392.684712 150.61475 
L 393.120198 150.517033 
L 393.555684 150.033333 
L 393.991169 149.289869 
L 394.86214 149.254853 
L 395.297626 148.995903 
L 395.733112 150.100107 
L 396.168597 149.109906 
L 396.604083 149.091177 
L 397.039569 149.498332 
L 397.91054 149.308598 
L 398.781511 149.105021 
L 399.216997 147.932415 
L 399.652483 148.032575 
L 400.087968 148.918544 
L 400.523454 148.061076 
L 400.958939 148.789883 
L 401.394425 148.750796 
L 401.829911 149.931545 
L 401.829911 149.931545 
" clip-path="url(#p54c26d53d1)" style="fill: none; stroke: #d62728; stroke-opacity: 0.8; stroke-width: 1.5; stroke-linecap: square"/>
   </g>
   <g id="line2d_22">
    <path d="M 147.070811 165.069559 
L 147.941782 165.15669 
L 148.377268 165.922141 
L 148.812753 166.971786 
L 149.248239 166.04103 
L 149.683725 166.87244 
L 150.11921 167.054846 
L 150.554696 166.307309 
L 152.296638 166.582546 
L 152.732124 167.673721 
L 153.16761 167.747823 
L 153.603095 166.67782 
L 154.038581 167.706293 
L 154.474067 167.801567 
L 154.909552 166.604532 
L 155.780523 166.786123 
L 156.216009 166.867554 
L 157.08698 167.31461 
L 157.522466 167.915571 
L 157.957952 167.116733 
L 158.393437 167.202236 
L 158.828923 167.458743 
L 159.264409 168.492916 
L 159.699894 168.586562 
L 160.13538 166.941657 
L 160.570866 166.995401 
L 161.006351 167.349626 
L 161.441837 167.300767 
L 161.877322 166.747037 
L 162.312808 167.157449 
L 163.183779 167.408256 
L 163.619265 168.154164 
L 164.054751 168.249438 
L 164.490236 167.88137 
L 164.925722 167.994559 
L 165.361208 168.241295 
L 165.796693 168.325169 
L 166.232179 168.608548 
L 166.667665 169.181822 
L 167.10315 169.230681 
L 168.845093 170.03929 
L 169.716064 170.225767 
L 170.587035 170.636993 
L 171.022521 169.852813 
L 171.458007 169.923658 
L 171.893492 170.173651 
L 172.328978 169.382957 
L 172.764463 169.473345 
L 173.199949 170.673637 
L 174.07092 171.040077 
L 174.506406 171.449674 
L 174.941892 171.654066 
L 175.377377 170.933402 
L 175.812863 171.625565 
L 176.248349 171.740383 
L 176.683834 171.215153 
L 177.554806 171.582407 
L 177.990291 172.220825 
L 178.861262 172.760713 
L 179.296748 172.845401 
L 179.732234 171.910573 
L 180.167719 173.035135 
L 181.474176 173.568508 
L 181.909662 172.577493 
L 182.345148 173.187411 
L 182.780633 173.460204 
L 183.651605 173.592937 
L 184.08709 172.597036 
L 184.522576 172.714297 
L 184.958061 172.676839 
L 185.393547 173.275356 
L 185.829033 173.266399 
L 186.264518 172.727326 
L 186.700004 173.290828 
L 187.13549 172.141837 
L 187.570975 172.067735 
L 188.006461 172.154866 
L 188.441947 171.695596 
L 188.877432 171.723282 
L 189.312918 172.608437 
L 189.748403 172.451275 
L 190.183889 172.426846 
L 190.619375 171.994447 
L 191.05486 171.908945 
L 192.361317 172.153238 
L 192.796803 171.558792 
L 193.232289 172.097865 
L 193.667774 173.087251 
L 194.10326 173.088065 
L 194.538746 173.360044 
L 194.974231 172.345415 
L 195.409717 172.450461 
L 195.845202 174.000092 
L 198.022631 173.519649 
L 198.458116 172.996048 
L 199.764573 173.488705 
L 200.200059 174.978077 
L 200.635545 175.19957 
L 202.377487 175.142568 
L 202.812973 175.556237 
L 203.248458 175.699556 
L 203.683944 174.753328 
L 204.554915 174.759028 
L 204.990401 176.099382 
L 205.425887 176.023651 
L 205.861372 175.397447 
L 206.732343 175.433276 
L 207.167829 176.418591 
L 207.603315 176.446278 
L 208.0388 176.055409 
L 208.474286 176.314359 
L 208.909772 176.315988 
L 209.345257 177.94705 
L 209.780743 177.929135 
L 210.216229 177.033395 
L 211.0872 176.846104 
L 212.393657 176.658812 
L 213.264628 176.784216 
L 213.700114 177.943793 
L 214.135599 177.727186 
L 214.571085 176.858318 
L 215.006571 176.858318 
L 215.442056 176.574938 
L 215.877542 176.485364 
L 216.313028 176.270387 
L 217.183999 176.151497 
L 217.619485 176.033423 
L 218.05497 176.877862 
L 218.490456 176.635197 
L 218.925941 176.530966 
L 219.361427 176.257358 
L 219.796913 175.018793 
L 220.667884 174.914561 
L 221.10337 175.162926 
L 221.538855 175.196312 
L 221.974341 174.842902 
L 222.845312 174.670268 
L 223.280798 175.471549 
L 223.716283 175.336374 
L 224.151769 174.749256 
L 225.02274 174.528579 
L 225.458226 174.842088 
L 225.893712 174.490306 
L 226.329197 174.382817 
L 227.200169 173.995206 
L 227.635654 174.17924 
L 228.07114 174.02615 
L 228.506626 174.225655 
L 228.942111 175.189798 
L 229.377597 174.984592 
L 229.813082 173.597823 
L 230.684054 173.282685 
L 231.119539 174.373045 
L 231.555025 174.275328 
L 231.990511 173.318515 
L 232.425996 172.864944 
L 233.296968 172.598665 
L 234.167939 172.090536 
L 234.603425 172.178481 
L 235.03891 172.12148 
L 235.474396 173.380402 
L 235.909881 173.283499 
L 236.345367 172.077507 
L 238.08731 171.404887 
L 238.522795 171.907316 
L 238.958281 171.772955 
L 239.393767 171.468403 
L 239.829252 172.52212 
L 241.135709 172.033534 
L 241.571195 171.377201 
L 242.442166 171.133722 
L 242.877652 170.567777 
L 244.619594 170.28684 
L 245.05508 171.790056 
L 245.490566 171.724911 
L 245.926051 171.077535 
L 246.361537 170.968417 
L 246.797022 171.587293 
L 247.232508 171.15408 
L 247.667994 170.951317 
L 248.538965 170.761583 
L 248.974451 170.484717 
L 249.409936 170.973303 
L 249.845422 170.739596 
L 250.280908 169.275468 
L 251.151879 168.936715 
L 251.587365 169.50266 
L 252.02285 169.567805 
L 252.458336 168.379727 
L 253.329307 167.970944 
L 253.764793 168.026317 
L 254.200278 167.374869 
L 254.635764 167.294253 
L 255.506735 166.780423 
L 255.942221 167.069503 
L 256.813192 166.714464 
L 257.248678 167.470958 
L 257.684164 167.407442 
L 258.119649 166.73075 
L 258.555135 166.514144 
L 258.99062 166.447371 
L 259.426106 166.572774 
L 259.861592 166.465286 
L 260.297077 166.590689 
L 261.168049 166.31301 
L 261.603534 166.942471 
L 262.03902 166.852083 
L 262.909991 166.399326 
L 263.345477 165.23975 
L 264.216448 164.926241 
L 264.651934 165.225906 
L 265.958391 164.493028 
L 266.393876 164.384725 
L 266.829362 165.485671 
L 267.264848 164.831781 
L 267.700333 164.743835 
L 268.135819 164.537001 
L 268.571305 163.40511 
L 269.00679 164.501985 
L 269.442276 164.291079 
L 269.877761 164.207205 
L 270.748733 164.493842 
L 271.184218 165.142033 
L 271.619704 164.384725 
L 272.05519 165.532087 
L 272.926161 165.666448 
L 273.361647 166.258451 
L 273.797132 165.819538 
L 274.668104 165.950642 
L 275.103589 166.095589 
L 275.539075 167.295881 
L 275.97456 166.221807 
L 276.410046 166.353725 
L 276.845532 166.356168 
L 277.281017 166.231579 
L 277.716503 166.843939 
L 278.151989 166.168877 
L 278.587474 166.17132 
L 279.02296 166.290209 
L 279.458446 165.750322 
L 279.893931 166.899313 
L 280.764902 166.931071 
L 281.200388 167.176992 
L 281.635874 166.695735 
L 282.506845 166.911527 
L 282.942331 167.632191 
L 283.377816 168.073547 
L 283.813302 167.900099 
L 284.248788 167.891142 
L 284.684273 166.375711 
L 285.119759 166.276366 
L 285.555245 166.409098 
L 285.99073 165.952271 
L 286.426216 167.007616 
L 286.861701 167.092304 
L 287.297187 167.032859 
L 287.732673 167.133834 
L 288.168158 166.977486 
L 288.603644 167.856941 
L 289.03913 167.164777 
L 289.910101 166.799152 
L 290.345587 165.437627 
L 290.781072 165.939242 
L 291.216558 165.78208 
L 291.652044 165.463685 
L 292.523015 165.601303 
L 292.9585 166.156662 
L 293.393986 165.05653 
L 294.700443 164.962884 
L 295.135929 165.828495 
L 295.571414 165.168905 
L 296.442386 165.300823 
L 296.877871 165.059787 
L 297.313357 166.159105 
L 297.748842 165.594789 
L 298.619814 165.349681 
L 299.055299 165.377368 
L 299.490785 166.216107 
L 299.926271 165.0093 
L 301.232728 165.011743 
L 301.668213 166.077674 
L 302.103699 165.259293 
L 303.845641 165.286165 
L 304.281127 164.870053 
L 304.716613 165.991357 
L 305.152098 165.979957 
L 305.587584 165.791852 
L 306.02307 166.444113 
L 306.458555 165.802438 
L 306.894041 166.073603 
L 307.329527 165.957156 
L 307.765012 164.80898 
L 308.635984 164.651818 
L 309.071469 165.247893 
L 309.94244 164.913212 
L 310.377926 165.332581 
L 310.813412 164.519086 
L 311.248897 164.417297 
L 311.684383 164.585045 
L 312.119869 163.574487 
L 312.555354 164.310623 
L 313.426326 164.429512 
L 314.297297 164.382282 
L 314.732782 165.547559 
L 315.168268 164.938455 
L 316.039239 165.229978 
L 316.474725 165.122489 
L 316.910211 166.032887 
L 317.345696 165.672962 
L 317.781182 165.524758 
L 318.216668 165.580131 
L 318.652153 165.778008 
L 319.087639 167.023902 
L 319.523125 166.403398 
L 320.394096 166.267408 
L 320.829581 166.195749 
L 321.265067 167.31461 
L 321.700553 166.415613 
L 322.571524 166.43027 
L 323.00701 166.333367 
L 323.442495 166.905827 
L 323.877981 165.822795 
L 324.748952 166.142005 
L 325.184438 166.048359 
L 325.619924 166.222621 
L 326.055409 165.523129 
L 326.490895 165.962042 
L 327.361866 165.752765 
L 327.797352 167.050774 
L 328.232837 165.880611 
L 328.668323 165.865139 
L 329.539294 165.661562 
L 329.97478 165.642019 
L 330.410266 164.510943 
L 330.845751 164.95637 
L 331.716722 165.153433 
L 332.152208 166.21855 
L 333.023179 166.007644 
L 333.894151 163.861124 
L 334.765122 164.270721 
L 335.200608 165.655862 
L 336.071579 165.820352 
L 336.94255 166.049988 
L 337.378036 167.213636 
L 338.249007 167.452229 
L 338.684493 168.271424 
L 339.99095 168.267353 
L 340.426435 167.861012 
L 340.861921 169.023032 
L 341.297407 169.235567 
L 341.732892 169.106091 
L 342.168378 169.317812 
L 342.603864 168.722552 
L 343.039349 169.307226 
L 343.474835 169.431815 
L 344.345806 169.470902 
L 344.781292 165.350496 
L 345.216777 166.028001 
L 345.652263 165.469385 
L 346.523234 165.668077 
L 346.95872 165.68762 
L 347.394206 165.898526 
L 347.829691 164.911583 
L 348.265177 166.004386 
L 349.136148 166.195749 
L 349.571634 166.973415 
L 350.007119 166.149333 
L 350.878091 166.596389 
L 353.055519 166.670492 
L 353.491005 167.683493 
L 353.92649 167.680235 
L 354.797461 167.9286 
L 355.232947 166.791009 
L 356.103918 166.931071 
L 356.539404 166.579289 
L 357.410375 166.678635 
L 358.281347 166.738894 
L 358.716832 167.336597 
L 359.152318 167.53366 
L 359.587804 167.084975 
L 360.458775 167.181878 
L 360.89426 167.634634 
L 362.636203 167.977458 
L 363.071689 168.819454 
L 363.94266 168.887042 
L 364.378146 169.515689 
L 364.813631 169.54419 
L 365.249117 169.44973 
L 365.684603 168.825969 
L 366.120088 168.773039 
L 366.555574 169.517318 
L 366.991059 168.431029 
L 367.862031 168.496174 
L 368.733002 168.855284 
L 369.168488 168.255138 
L 369.603973 169.823498 
L 370.039459 169.352827 
L 370.474945 169.439144 
L 370.91043 170.120721 
L 371.781401 170.237982 
L 372.216887 169.400057 
L 373.087858 169.642721 
L 373.523344 169.878057 
L 373.95883 170.627222 
L 374.394315 169.65575 
L 374.829801 169.832455 
L 375.265287 171.066134 
L 376.136258 171.233882 
L 376.571744 171.610093 
L 377.007229 171.540877 
L 377.442715 170.427716 
L 377.8782 170.262411 
L 378.313686 171.325899 
L 378.749172 169.430187 
L 380.055629 169.80884 
L 380.491114 170.649208 
L 380.9266 170.58732 
L 381.362086 170.648394 
L 381.797571 170.002646 
L 382.233057 169.965188 
L 382.668543 170.395958 
L 383.104028 169.480674 
L 384.410485 169.390285 
L 384.845971 170.469246 
L 385.281456 170.67038 
L 385.716942 170.42283 
L 386.587913 169.669594 
L 387.023399 170.330813 
L 387.89437 170.200523 
L 388.329856 169.05479 
L 388.765341 168.931015 
L 389.200827 169.063747 
L 389.636313 167.918828 
L 390.94277 167.865084 
L 391.378255 168.319468 
L 391.813741 167.188392 
L 392.249227 167.304024 
L 392.684712 168.363441 
L 393.555684 168.306439 
L 393.991169 167.677792 
L 394.86214 167.747823 
L 395.297626 167.711993 
L 395.733112 168.61262 
L 396.168597 167.612648 
L 396.604083 167.408256 
L 397.039569 168.308882 
L 397.475054 168.299111 
L 397.91054 168.159049 
L 398.346026 168.294225 
L 398.781511 168.308068 
L 399.216997 167.33904 
L 399.652483 167.30321 
L 400.087968 167.773881 
L 400.523454 166.661534 
L 401.394425 166.487272 
L 401.829911 166.470986 
L 401.829911 166.470986 
" clip-path="url(#p54c26d53d1)" style="fill: none; stroke: #9467bd; stroke-opacity: 0.8; stroke-width: 1.5; stroke-linecap: square"/>
   </g>
   <g id="patch_3">
    <path d="M 61.715625 288.430125 
L 61.715625 22.318125 
" style="fill: none; stroke: #000000; stroke-width: 0.8; stroke-linejoin: miter; stroke-linecap: square"/>
   </g>
   <g id="patch_4">
    <path d="M 418.835625 288.430125 
L 418.835625 22.318125 
" style="fill: none; stroke: #000000; stroke-width: 0.8; stroke-linejoin: miter; stroke-linecap: square"/>
   </g>
   <g id="patch_5">
    <path d="M 61.715625 288.430125 
L 418.835625 288.430125 
" style="fill: none; stroke: #000000; stroke-width: 0.8; stroke-linejoin: miter; stroke-linecap: square"/>
   </g>
   <g id="patch_6">
    <path d="M 61.715625 22.318125 
L 418.835625 22.318125 
" style="fill: none; stroke: #000000; stroke-width: 0.8; stroke-linejoin: miter; stroke-linecap: square"/>
   </g>
   <g id="text_20">
    <!-- Get filtered children count [leaf] -->
    <g transform="translate(143.805 16.318125) scale(0.12 -0.12)">
     <defs>
      <path id="DejaVuSans-47" d="M 3809 666 
L 3809 1919 
L 2778 1919 
L 2778 2438 
L 4434 2438 
L 4434 434 
Q 4069 175 3628 42 
Q 3188 -91 2688 -91 
Q 1594 -91 976 548 
Q 359 1188 359 2328 
Q 359 3472 976 4111 
Q 1594 4750 2688 4750 
Q 3144 4750 3555 4637 
Q 3966 4525 4313 4306 
L 4313 3634 
Q 3963 3931 3569 4081 
Q 3175 4231 2741 4231 
Q 1884 4231 1454 3753 
Q 1025 3275 1025 2328 
Q 1025 1384 1454 906 
Q 1884 428 2741 428 
Q 3075 428 3337 486 
Q 3600 544 3809 666 
z
" transform="scale(0.015625)"/>
      <path id="DejaVuSans-72" d="M 2631 2963 
Q 2534 3019 2420 3045 
Q 2306 3072 2169 3072 
Q 1681 3072 1420 2755 
Q 1159 2438 1159 1844 
L 1159 0 
L 581 0 
L 581 3500 
L 1159 3500 
L 1159 2956 
Q 1341 3275 1631 3429 
Q 1922 3584 2338 3584 
Q 2397 3584 2469 3576 
Q 2541 3569 2628 3553 
L 2631 2963 
z
" transform="scale(0.015625)"/>
      <path id="DejaVuSans-68" d="M 3513 2113 
L 3513 0 
L 2938 0 
L 2938 2094 
Q 2938 2591 2744 2837 
Q 2550 3084 2163 3084 
Q 1697 3084 1428 2787 
Q 1159 2491 1159 1978 
L 1159 0 
L 581 0 
L 581 4863 
L 1159 4863 
L 1159 2956 
Q 1366 3272 1645 3428 
Q 1925 3584 2291 3584 
Q 2894 3584 3203 3211 
Q 3513 2838 3513 2113 
z
" transform="scale(0.015625)"/>
      <path id="DejaVuSans-5b" d="M 550 4863 
L 1875 4863 
L 1875 4416 
L 1125 4416 
L 1125 -397 
L 1875 -397 
L 1875 -844 
L 550 -844 
L 550 4863 
z
" transform="scale(0.015625)"/>
      <path id="DejaVuSans-5d" d="M 1947 4863 
L 1947 -844 
L 622 -844 
L 622 -397 
L 1369 -397 
L 1369 4416 
L 622 4416 
L 622 4863 
L 1947 4863 
z
" transform="scale(0.015625)"/>
     </defs>
     <use xlink:href="#DejaVuSans-47"/>
     <use xlink:href="#DejaVuSans-65" transform="translate(77.490234 0)"/>
     <use xlink:href="#DejaVuSans-74" transform="translate(139.013672 0)"/>
     <use xlink:href="#DejaVuSans-20" transform="translate(178.222656 0)"/>
     <use xlink:href="#DejaVuSans-66" transform="translate(210.009766 0)"/>
     <use xlink:href="#DejaVuSans-69" transform="translate(245.214844 0)"/>
     <use xlink:href="#DejaVuSans-6c" transform="translate(272.998047 0)"/>
     <use xlink:href="#DejaVuSans-74" transform="translate(300.78125 0)"/>
     <use xlink:href="#DejaVuSans-65" transform="translate(339.990234 0)"/>
     <use xlink:href="#DejaVuSans-72" transform="translate(401.513672 0)"/>
     <use xlink:href="#DejaVuSans-65" transform="translate(440.376953 0)"/>
     <use xlink:href="#DejaVuSans-64" transform="translate(501.900391 0)"/>
     <use xlink:href="#DejaVuSans-20" transform="translate(565.376953 0)"/>
     <use xlink:href="#DejaVuSans-63" transform="translate(597.164062 0)"/>
     <use xlink:href="#DejaVuSans-68" transform="translate(652.144531 0)"/>
     <use xlink:href="#DejaVuSans-69" transform="translate(715.523438 0)"/>
     <use xlink:href="#DejaVuSans-6c" transform="translate(743.306641 0)"/>
     <use xlink:href="#DejaVuSans-64" transform="translate(771.089844 0)"/>
     <use xlink:href="#DejaVuSans-72" transform="translate(834.566406 0)"/>
     <use xlink:href="#DejaVuSans-65" transform="translate(873.429688 0)"/>
     <use xlink:href="#DejaVuSans-6e" transform="translate(934.953125 0)"/>
     <use xlink:href="#DejaVuSans-20" transform="translate(998.332031 0)"/>
     <use xlink:href="#DejaVuSans-63" transform="translate(1030.119141 0)"/>
     <use xlink:href="#DejaVuSans-6f" transform="translate(1085.099609 0)"/>
     <use xlink:href="#DejaVuSans-75" transform="translate(1146.28125 0)"/>
     <use xlink:href="#DejaVuSans-6e" transform="translate(1209.660156 0)"/>
     <use xlink:href="#DejaVuSans-74" transform="translate(1273.039062 0)"/>
     <use xlink:href="#DejaVuSans-20" transform="translate(1312.248047 0)"/>
     <use xlink:href="#DejaVuSans-5b" transform="translate(1344.035156 0)"/>
     <use xlink:href="#DejaVuSans-6c" transform="translate(1383.048828 0)"/>
     <use xlink:href="#DejaVuSans-65" transform="translate(1410.832031 0)"/>
     <use xlink:href="#DejaVuSans-61" transform="translate(1472.355469 0)"/>
     <use xlink:href="#DejaVuSans-66" transform="translate(1533.634766 0)"/>
     <use xlink:href="#DejaVuSans-5d" transform="translate(1568.839844 0)"/>
    </g>
   </g>
   <g id="legend_1">
    <g id="patch_7">
     <path d="M 92.717969 365.802375 
L 380.313281 365.802375 
Q 382.313281 365.802375 382.313281 363.802375 
L 382.313281 335.446125 
Q 382.313281 333.446125 380.313281 333.446125 
L 92.717969 333.446125 
Q 90.717969 333.446125 90.717969 335.446125 
L 90.717969 363.802375 
Q 90.717969 365.802375 92.717969 365.802375 
z
" style="fill: #4d4d4d; opacity: 0.5; stroke: #4d4d4d; stroke-linejoin: miter"/>
    </g>
    <g id="patch_8">
     <path d="M 90.717969 363.802375 
L 378.313281 363.802375 
Q 380.313281 363.802375 380.313281 361.802375 
L 380.313281 333.446125 
Q 380.313281 331.446125 378.313281 331.446125 
L 90.717969 331.446125 
Q 88.717969 331.446125 88.717969 333.446125 
L 88.717969 361.802375 
Q 88.717969 363.802375 90.717969 363.802375 
z
" style="fill: #ffffff; stroke: #cccccc; stroke-linejoin: miter"/>
    </g>
    <g id="line2d_23">
     <path d="M 92.717969 339.544562 
L 102.717969 339.544562 
L 112.717969 339.544562 
" style="fill: none; stroke: #1f77b4; stroke-opacity: 0.8; stroke-width: 1.5; stroke-linecap: square"/>
    </g>
    <g id="text_21">
     <!-- MPTT -->
     <g transform="translate(120.717969 343.044562) scale(0.1 -0.1)">
      <defs>
       <path id="DejaVuSans-4d" d="M 628 4666 
L 1569 4666 
L 2759 1491 
L 3956 4666 
L 4897 4666 
L 4897 0 
L 4281 0 
L 4281 4097 
L 3078 897 
L 2444 897 
L 1241 4097 
L 1241 0 
L 628 0 
L 628 4666 
z
" transform="scale(0.015625)"/>
       <path id="DejaVuSans-50" d="M 1259 4147 
L 1259 2394 
L 2053 2394 
Q 2494 2394 2734 2622 
Q 2975 2850 2975 3272 
Q 2975 3691 2734 3919 
Q 2494 4147 2053 4147 
L 1259 4147 
z
M 628 4666 
L 2053 4666 
Q 2838 4666 3239 4311 
Q 3641 3956 3641 3272 
Q 3641 2581 3239 2228 
Q 2838 1875 2053 1875 
L 1259 1875 
L 1259 0 
L 628 0 
L 628 4666 
z
" transform="scale(0.015625)"/>
       <path id="DejaVuSans-54" d="M -19 4666 
L 3928 4666 
L 3928 4134 
L 2272 4134 
L 2272 0 
L 1638 0 
L 1638 4134 
L -19 4134 
L -19 4666 
z
" transform="scale(0.015625)"/>
      </defs>
      <use xlink:href="#DejaVuSans-4d"/>
      <use xlink:href="#DejaVuSans-50" transform="translate(86.279297 0)"/>
      <use xlink:href="#DejaVuSans-54" transform="translate(146.582031 0)"/>
      <use xlink:href="#DejaVuSans-54" transform="translate(205.916016 0)"/>
     </g>
    </g>
    <g id="line2d_24">
     <path d="M 92.717969 354.222687 
L 102.717969 354.222687 
L 112.717969 354.222687 
" style="fill: none; stroke: #ff7f0e; stroke-opacity: 0.8; stroke-width: 1.5; stroke-linecap: square"/>
    </g>
    <g id="text_22">
     <!-- tree -->
     <g transform="translate(120.717969 357.722687) scale(0.1 -0.1)">
      <use xlink:href="#DejaVuSans-74"/>
      <use xlink:href="#DejaVuSans-72" transform="translate(39.208984 0)"/>
      <use xlink:href="#DejaVuSans-65" transform="translate(78.072266 0)"/>
      <use xlink:href="#DejaVuSans-65" transform="translate(139.595703 0)"/>
     </g>
    </g>
    <g id="line2d_25">
     <path d="M 167.416406 339.544562 
L 177.416406 339.544562 
L 187.416406 339.544562 
" style="fill: none; stroke: #2ca02c; stroke-opacity: 0.8; stroke-width: 1.5; stroke-linecap: square"/>
    </g>
    <g id="text_23">
     <!-- treebeard AL -->
     <g transform="translate(195.416406 343.044562) scale(0.1 -0.1)">
      <defs>
       <path id="DejaVuSans-4c" d="M 628 4666 
L 1259 4666 
L 1259 531 
L 3531 531 
L 3531 0 
L 628 0 
L 628 4666 
z
" transform="scale(0.015625)"/>
      </defs>
      <use xlink:href="#DejaVuSans-74"/>
      <use xlink:href="#DejaVuSans-72" transform="translate(39.208984 0)"/>
      <use xlink:href="#DejaVuSans-65" transform="translate(78.072266 0)"/>
      <use xlink:href="#DejaVuSans-65" transform="translate(139.595703 0)"/>
      <use xlink:href="#DejaVuSans-62" transform="translate(201.119141 0)"/>
      <use xlink:href="#DejaVuSans-65" transform="translate(264.595703 0)"/>
      <use xlink:href="#DejaVuSans-61" transform="translate(326.119141 0)"/>
      <use xlink:href="#DejaVuSans-72" transform="translate(387.398438 0)"/>
      <use xlink:href="#DejaVuSans-64" transform="translate(426.761719 0)"/>
      <use xlink:href="#DejaVuSans-20" transform="translate(490.238281 0)"/>
      <use xlink:href="#DejaVuSans-41" transform="translate(522.025391 0)"/>
      <use xlink:href="#DejaVuSans-4c" transform="translate(590.433594 0)"/>
     </g>
    </g>
    <g id="line2d_26">
     <path d="M 167.416406 354.222687 
L 177.416406 354.222687 
L 187.416406 354.222687 
" style="fill: none; stroke: #d62728; stroke-opacity: 0.8; stroke-width: 1.5; stroke-linecap: square"/>
    </g>
    <g id="text_24">
     <!-- treebeard MP -->
     <g transform="translate(195.416406 357.722687) scale(0.1 -0.1)">
      <use xlink:href="#DejaVuSans-74"/>
      <use xlink:href="#DejaVuSans-72" transform="translate(39.208984 0)"/>
      <use xlink:href="#DejaVuSans-65" transform="translate(78.072266 0)"/>
      <use xlink:href="#DejaVuSans-65" transform="translate(139.595703 0)"/>
      <use xlink:href="#DejaVuSans-62" transform="translate(201.119141 0)"/>
      <use xlink:href="#DejaVuSans-65" transform="translate(264.595703 0)"/>
      <use xlink:href="#DejaVuSans-61" transform="translate(326.119141 0)"/>
      <use xlink:href="#DejaVuSans-72" transform="translate(387.398438 0)"/>
      <use xlink:href="#DejaVuSans-64" transform="translate(426.761719 0)"/>
      <use xlink:href="#DejaVuSans-20" transform="translate(490.238281 0)"/>
      <use xlink:href="#DejaVuSans-4d" transform="translate(522.025391 0)"/>
      <use xlink:href="#DejaVuSans-50" transform="translate(608.304688 0)"/>
     </g>
    </g>
    <g id="line2d_27">
     <path d="M 282.278906 339.544562 
L 292.278906 339.544562 
L 302.278906 339.544562 
" style="fill: none; stroke: #9467bd; stroke-opacity: 0.8; stroke-width: 1.5; stroke-linecap: square"/>
    </g>
    <g id="text_25">
     <!-- treebeard NS -->
     <g transform="translate(310.278906 343.044562) scale(0.1 -0.1)">
      <defs>
       <path id="DejaVuSans-4e" d="M 628 4666 
L 1478 4666 
L 3547 763 
L 3547 4666 
L 4159 4666 
L 4159 0 
L 3309 0 
L 1241 3903 
L 1241 0 
L 628 0 
L 628 4666 
z
" transform="scale(0.015625)"/>
       <path id="DejaVuSans-53" d="M 3425 4513 
L 3425 3897 
Q 3066 4069 2747 4153 
Q 2428 4238 2131 4238 
Q 1616 4238 1336 4038 
Q 1056 3838 1056 3469 
Q 1056 3159 1242 3001 
Q 1428 2844 1947 2747 
L 2328 2669 
Q 3034 2534 3370 2195 
Q 3706 1856 3706 1288 
Q 3706 609 3251 259 
Q 2797 -91 1919 -91 
Q 1588 -91 1214 -16 
Q 841 59 441 206 
L 441 856 
Q 825 641 1194 531 
Q 1563 422 1919 422 
Q 2459 422 2753 634 
Q 3047 847 3047 1241 
Q 3047 1584 2836 1778 
Q 2625 1972 2144 2069 
L 1759 2144 
Q 1053 2284 737 2584 
Q 422 2884 422 3419 
Q 422 4038 858 4394 
Q 1294 4750 2059 4750 
Q 2388 4750 2728 4690 
Q 3069 4631 3425 4513 
z
" transform="scale(0.015625)"/>
      </defs>
      <use xlink:href="#DejaVuSans-74"/>
      <use xlink:href="#DejaVuSans-72" transform="translate(39.208984 0)"/>
      <use xlink:href="#DejaVuSans-65" transform="translate(78.072266 0)"/>
      <use xlink:href="#DejaVuSans-65" transform="translate(139.595703 0)"/>
      <use xlink:href="#DejaVuSans-62" transform="translate(201.119141 0)"/>
      <use xlink:href="#DejaVuSans-65" transform="translate(264.595703 0)"/>
      <use xlink:href="#DejaVuSans-61" transform="translate(326.119141 0)"/>
      <use xlink:href="#DejaVuSans-72" transform="translate(387.398438 0)"/>
      <use xlink:href="#DejaVuSans-64" transform="translate(426.761719 0)"/>
      <use xlink:href="#DejaVuSans-20" transform="translate(490.238281 0)"/>
      <use xlink:href="#DejaVuSans-4e" transform="translate(522.025391 0)"/>
      <use xlink:href="#DejaVuSans-53" transform="translate(596.830078 0)"/>
     </g>
    </g>
   </g>
  </g>
 </g>
 <defs>
  <clipPath id="p54c26d53d1">
   <rect x="61.715625" y="22.318125" width="357.12" height="266.112"/>
  </clipPath>
 </defs>
</svg>
