<?xml version="1.0" encoding="utf-8" standalone="no"?>
<!DOCTYPE svg PUBLIC "-//W3C//DTD SVG 1.1//EN"
  "http://www.w3.org/Graphics/SVG/1.1/DTD/svg11.dtd">
<svg xmlns:xlink="http://www.w3.org/1999/xlink" width="426.358281pt" height="371.647687pt" viewBox="0 0 426.358281 371.647687" xmlns="http://www.w3.org/2000/svg" version="1.1">
 <metadata>
  <rdf:RDF xmlns:dc="http://purl.org/dc/elements/1.1/" xmlns:cc="http://creativecommons.org/ns#" xmlns:rdf="http://www.w3.org/1999/02/22-rdf-syntax-ns#">
   <cc:Work>
    <dc:type rdf:resource="http://purl.org/dc/dcmitype/StillImage"/>
    <dc:date>2026-06-29T09:13:53.221391</dc:date>
    <dc:format>image/svg+xml</dc:format>
    <dc:creator>
     <cc:Agent>
      <dc:title>Matplotlib v3.11.0, https://matplotlib.org/</dc:title>
     </cc:Agent>
    </dc:creator>
   </cc:Work>
  </rdf:RDF>
 </metadata>
 <defs>
  <style type="text/css">*{stroke-linejoin: round; stroke-linecap: butt}</style>
 </defs>
 <g id="figure_1">
  <g id="patch_1">
   <path d="M 0 371.647687 
L 426.358281 371.647687 
L 426.358281 0 
L 0 0 
z
" style="fill: #ffffff"/>
  </g>
  <g id="axes_1">
   <g id="patch_2">
    <path d="M 62.038281 288.430125 
L 419.158281 288.430125 
L 419.158281 22.318125 
L 62.038281 22.318125 
z
" style="fill: #ffffff"/>
   </g>
   <g id="matplotlib.axis_1">
    <g id="xtick_1">
     <g id="line2d_1">
      <defs>
       <path id="m1de575f587" d="M 0 0 
L 0 3.5 
" style="stroke: #000000; stroke-width: 0.8"/>
      </defs>
      <g>
       <use xlink:href="#m1de575f587" x="62.038281" y="288.430125" style="stroke: #000000; stroke-width: 0.8"/>
      </g>
     </g>
     <g id="text_1">
      <!-- 0 -->
      <g transform="translate(58.857031 303.027781) scale(0.1 -0.1)">
       <defs>
        <path id="DejaVuSans-13" d="M 2034 4250 
Q 1547 4250 1301 3770 
Q 1056 3291 1056 2328 
Q 1056 1369 1301 889 
Q 1547 409 2034 409 
Q 2525 409 2770 889 
Q 3016 1369 3016 2328 
Q 3016 3291 2770 3770 
Q 2525 4250 2034 4250 
z
M 2034 4750 
Q 2819 4750 3233 4129 
Q 3647 3509 3647 2328 
Q 3647 1150 3233 529 
Q 2819 -91 2034 -91 
Q 1250 -91 836 529 
Q 422 1150 422 2328 
Q 422 3509 836 4129 
Q 1250 4750 2034 4750 
z
" transform="scale(0.015625)"/>
       </defs>
       <use xlink:href="#DejaVuSans-13"/>
      </g>
     </g>
    </g>
    <g id="xtick_2">
     <g id="line2d_2">
      <g>
       <use xlink:href="#m1de575f587" x="105.586845" y="288.430125" style="stroke: #000000; stroke-width: 0.8"/>
      </g>
     </g>
     <g id="text_2">
      <!-- 500  -->
      <g transform="translate(94.454033 303.027781) scale(0.1 -0.1)">
       <defs>
        <path id="DejaVuSans-18" d="M 691 4666 
L 3169 4666 
L 3169 4134 
L 1269 4134 
L 1269 2991 
Q 1406 3038 1543 3061 
Q 1681 3084 1819 3084 
Q 2600 3084 3056 2656 
Q 3513 2228 3513 1497 
Q 3513 744 3044 326 
Q 2575 -91 1722 -91 
Q 1428 -91 1123 -41 
Q 819 9 494 109 
L 494 744 
Q 775 591 1075 516 
Q 1375 441 1709 441 
Q 2250 441 2565 725 
Q 2881 1009 2881 1497 
Q 2881 1984 2565 2268 
Q 2250 2553 1709 2553 
Q 1456 2553 1204 2497 
Q 953 2441 691 2322 
L 691 4666 
z
" transform="scale(0.015625)"/>
        <path id="DejaVuSans-3" transform="scale(0.015625)"/>
       </defs>
       <use xlink:href="#DejaVuSans-18"/>
       <use xlink:href="#DejaVuSans-13" transform="translate(63.625 0)"/>
       <use xlink:href="#DejaVuSans-13" transform="translate(127.25 0)"/>
       <use xlink:href="#DejaVuSans-3" transform="translate(190.875 0)"/>
      </g>
     </g>
    </g>
    <g id="xtick_3">
     <g id="line2d_3">
      <g>
       <use xlink:href="#m1de575f587" x="149.135409" y="288.430125" style="stroke: #000000; stroke-width: 0.8"/>
      </g>
     </g>
     <g id="text_3">
      <!-- 1 k -->
      <g transform="translate(141.469784 303.028562) scale(0.1 -0.1)">
       <defs>
        <path id="DejaVuSans-14" d="M 794 531 
L 1825 531 
L 1825 4091 
L 703 3866 
L 703 4441 
L 1819 4666 
L 2450 4666 
L 2450 531 
L 3481 531 
L 3481 0 
L 794 0 
L 794 531 
z
" transform="scale(0.015625)"/>
        <path id="DejaVuSans-4e" d="M 581 4863 
L 1159 4863 
L 1159 1991 
L 2875 3500 
L 3609 3500 
L 1753 1863 
L 3688 0 
L 2938 0 
L 1159 1709 
L 1159 0 
L 581 0 
L 581 4863 
z
" transform="scale(0.015625)"/>
       </defs>
       <use xlink:href="#DejaVuSans-14"/>
       <use xlink:href="#DejaVuSans-3" transform="translate(63.625 0)"/>
       <use xlink:href="#DejaVuSans-4e" transform="translate(95.40625 0)"/>
      </g>
     </g>
    </g>
    <g id="xtick_4">
     <g id="line2d_4">
      <g>
       <use xlink:href="#m1de575f587" x="192.683974" y="288.430125" style="stroke: #000000; stroke-width: 0.8"/>
      </g>
     </g>
     <g id="text_4">
      <!-- 1.5 k -->
      <g transform="translate(180.248036 303.028562) scale(0.1 -0.1)">
       <defs>
        <path id="DejaVuSans-11" d="M 684 794 
L 1344 794 
L 1344 0 
L 684 0 
L 684 794 
z
" transform="scale(0.015625)"/>
       </defs>
       <use xlink:href="#DejaVuSans-14"/>
       <use xlink:href="#DejaVuSans-11" transform="translate(63.625 0)"/>
       <use xlink:href="#DejaVuSans-18" transform="translate(95.40625 0)"/>
       <use xlink:href="#DejaVuSans-3" transform="translate(159.03125 0)"/>
       <use xlink:href="#DejaVuSans-4e" transform="translate(190.8125 0)"/>
      </g>
     </g>
    </g>
    <g id="xtick_5">
     <g id="line2d_5">
      <g>
       <use xlink:href="#m1de575f587" x="236.232538" y="288.430125" style="stroke: #000000; stroke-width: 0.8"/>
      </g>
     </g>
     <g id="text_5">
      <!-- 2 k -->
      <g transform="translate(228.566913 303.028562) scale(0.1 -0.1)">
       <defs>
        <path id="DejaVuSans-15" d="M 1228 531 
L 3431 531 
L 3431 0 
L 469 0 
L 469 531 
Q 828 903 1448 1529 
Q 2069 2156 2228 2338 
Q 2531 2678 2651 2914 
Q 2772 3150 2772 3378 
Q 2772 3750 2511 3984 
Q 2250 4219 1831 4219 
Q 1534 4219 1204 4116 
Q 875 4013 500 3803 
L 500 4441 
Q 881 4594 1212 4672 
Q 1544 4750 1819 4750 
Q 2544 4750 2975 4387 
Q 3406 4025 3406 3419 
Q 3406 3131 3298 2873 
Q 3191 2616 2906 2266 
Q 2828 2175 2409 1742 
Q 1991 1309 1228 531 
z
" transform="scale(0.015625)"/>
       </defs>
       <use xlink:href="#DejaVuSans-15"/>
       <use xlink:href="#DejaVuSans-3" transform="translate(63.625 0)"/>
       <use xlink:href="#DejaVuSans-4e" transform="translate(95.40625 0)"/>
      </g>
     </g>
    </g>
    <g id="xtick_6">
     <g id="line2d_6">
      <g>
       <use xlink:href="#m1de575f587" x="279.781102" y="288.430125" style="stroke: #000000; stroke-width: 0.8"/>
      </g>
     </g>
     <g id="text_6">
      <!-- 2.5 k -->
      <g transform="translate(267.345164 303.028562) scale(0.1 -0.1)">
       <use xlink:href="#DejaVuSans-15"/>
       <use xlink:href="#DejaVuSans-11" transform="translate(63.625 0)"/>
       <use xlink:href="#DejaVuSans-18" transform="translate(95.40625 0)"/>
       <use xlink:href="#DejaVuSans-3" transform="translate(159.03125 0)"/>
       <use xlink:href="#DejaVuSans-4e" transform="translate(190.8125 0)"/>
      </g>
     </g>
    </g>
    <g id="xtick_7">
     <g id="line2d_7">
      <g>
       <use xlink:href="#m1de575f587" x="323.329666" y="288.430125" style="stroke: #000000; stroke-width: 0.8"/>
      </g>
     </g>
     <g id="text_7">
      <!-- 3 k -->
      <g transform="translate(315.664041 303.028562) scale(0.1 -0.1)">
       <defs>
        <path id="DejaVuSans-16" d="M 2597 2516 
Q 3050 2419 3304 2112 
Q 3559 1806 3559 1356 
Q 3559 666 3084 287 
Q 2609 -91 1734 -91 
Q 1441 -91 1130 -33 
Q 819 25 488 141 
L 488 750 
Q 750 597 1062 519 
Q 1375 441 1716 441 
Q 2309 441 2620 675 
Q 2931 909 2931 1356 
Q 2931 1769 2642 2001 
Q 2353 2234 1838 2234 
L 1294 2234 
L 1294 2753 
L 1863 2753 
Q 2328 2753 2575 2939 
Q 2822 3125 2822 3475 
Q 2822 3834 2567 4026 
Q 2313 4219 1838 4219 
Q 1578 4219 1281 4162 
Q 984 4106 628 3988 
L 628 4550 
Q 988 4650 1302 4700 
Q 1616 4750 1894 4750 
Q 2613 4750 3031 4423 
Q 3450 4097 3450 3541 
Q 3450 3153 3228 2886 
Q 3006 2619 2597 2516 
z
" transform="scale(0.015625)"/>
       </defs>
       <use xlink:href="#DejaVuSans-16"/>
       <use xlink:href="#DejaVuSans-3" transform="translate(63.625 0)"/>
       <use xlink:href="#DejaVuSans-4e" transform="translate(95.40625 0)"/>
      </g>
     </g>
    </g>
    <g id="xtick_8">
     <g id="line2d_8">
      <g>
       <use xlink:href="#m1de575f587" x="366.87823" y="288.430125" style="stroke: #000000; stroke-width: 0.8"/>
      </g>
     </g>
     <g id="text_8">
      <!-- 3.5 k -->
      <g transform="translate(354.442293 303.028562) scale(0.1 -0.1)">
       <use xlink:href="#DejaVuSans-16"/>
       <use xlink:href="#DejaVuSans-11" transform="translate(63.625 0)"/>
       <use xlink:href="#DejaVuSans-18" transform="translate(95.40625 0)"/>
       <use xlink:href="#DejaVuSans-3" transform="translate(159.03125 0)"/>
       <use xlink:href="#DejaVuSans-4e" transform="translate(190.8125 0)"/>
      </g>
     </g>
    </g>
    <g id="xtick_9">
     <g id="line2d_9">
      <g>
       <use xlink:href="#m1de575f587" x="410.426794" y="288.430125" style="stroke: #000000; stroke-width: 0.8"/>
      </g>
     </g>
     <g id="text_9">
      <!-- 4 k -->
      <g transform="translate(402.761169 303.028562) scale(0.1 -0.1)">
       <defs>
        <path id="DejaVuSans-17" d="M 2419 4116 
L 825 1625 
L 2419 1625 
L 2419 4116 
z
M 2253 4666 
L 3047 4666 
L 3047 1625 
L 3713 1625 
L 3713 1100 
L 3047 1100 
L 3047 0 
L 2419 0 
L 2419 1100 
L 313 1100 
L 313 1709 
L 2253 4666 
z
" transform="scale(0.015625)"/>
       </defs>
       <use xlink:href="#DejaVuSans-17"/>
       <use xlink:href="#DejaVuSans-3" transform="translate(63.625 0)"/>
       <use xlink:href="#DejaVuSans-4e" transform="translate(95.40625 0)"/>
      </g>
     </g>
    </g>
    <g id="text_10">
     <!-- Amount of objects in table -->
     <g transform="translate(174.539688 317.029344) scale(0.1 -0.1)">
      <defs>
       <path id="DejaVuSans-24" d="M 2188 4044 
L 1331 1722 
L 3047 1722 
L 2188 4044 
z
M 1831 4666 
L 2547 4666 
L 4325 0 
L 3669 0 
L 3244 1197 
L 1141 1197 
L 716 0 
L 50 0 
L 1831 4666 
z
" transform="scale(0.015625)"/>
       <path id="DejaVuSans-50" d="M 3328 2828 
Q 3544 3216 3844 3400 
Q 4144 3584 4550 3584 
Q 5097 3584 5394 3201 
Q 5691 2819 5691 2113 
L 5691 0 
L 5113 0 
L 5113 2094 
Q 5113 2597 4934 2840 
Q 4756 3084 4391 3084 
Q 3944 3084 3684 2787 
Q 3425 2491 3425 1978 
L 3425 0 
L 2847 0 
L 2847 2094 
Q 2847 2600 2669 2842 
Q 2491 3084 2119 3084 
Q 1678 3084 1418 2786 
Q 1159 2488 1159 1978 
L 1159 0 
L 581 0 
L 581 3500 
L 1159 3500 
L 1159 2956 
Q 1356 3278 1631 3431 
Q 1906 3584 2284 3584 
Q 2666 3584 2933 3390 
Q 3200 3197 3328 2828 
z
" transform="scale(0.015625)"/>
       <path id="DejaVuSans-52" d="M 1959 3097 
Q 1497 3097 1228 2736 
Q 959 2375 959 1747 
Q 959 1119 1226 758 
Q 1494 397 1959 397 
Q 2419 397 2687 759 
Q 2956 1122 2956 1747 
Q 2956 2369 2687 2733 
Q 2419 3097 1959 3097 
z
M 1959 3584 
Q 2709 3584 3137 3096 
Q 3566 2609 3566 1747 
Q 3566 888 3137 398 
Q 2709 -91 1959 -91 
Q 1206 -91 779 398 
Q 353 888 353 1747 
Q 353 2609 779 3096 
Q 1206 3584 1959 3584 
z
" transform="scale(0.015625)"/>
       <path id="DejaVuSans-58" d="M 544 1381 
L 544 3500 
L 1119 3500 
L 1119 1403 
Q 1119 906 1312 657 
Q 1506 409 1894 409 
Q 2359 409 2629 706 
Q 2900 1003 2900 1516 
L 2900 3500 
L 3475 3500 
L 3475 0 
L 2900 0 
L 2900 538 
Q 2691 219 2414 64 
Q 2138 -91 1772 -91 
Q 1169 -91 856 284 
Q 544 659 544 1381 
z
M 1991 3584 
L 1991 3584 
z
" transform="scale(0.015625)"/>
       <path id="DejaVuSans-51" d="M 3513 2113 
L 3513 0 
L 2938 0 
L 2938 2094 
Q 2938 2591 2744 2837 
Q 2550 3084 2163 3084 
Q 1697 3084 1428 2787 
Q 1159 2491 1159 1978 
L 1159 0 
L 581 0 
L 581 3500 
L 1159 3500 
L 1159 2956 
Q 1366 3272 1645 3428 
Q 1925 3584 2291 3584 
Q 2894 3584 3203 3211 
Q 3513 2838 3513 2113 
z
" transform="scale(0.015625)"/>
       <path id="DejaVuSans-57" d="M 1172 4494 
L 1172 3500 
L 2356 3500 
L 2356 3053 
L 1172 3053 
L 1172 1153 
Q 1172 725 1289 603 
Q 1406 481 1766 481 
L 2356 481 
L 2356 0 
L 1766 0 
Q 1100 0 847 248 
Q 594 497 594 1153 
L 594 3053 
L 172 3053 
L 172 3500 
L 594 3500 
L 594 4494 
L 1172 4494 
z
" transform="scale(0.015625)"/>
       <path id="DejaVuSans-49" d="M 2375 4863 
L 2375 4384 
L 1825 4384 
Q 1516 4384 1395 4259 
Q 1275 4134 1275 3809 
L 1275 3500 
L 2222 3500 
L 2222 3053 
L 1275 3053 
L 1275 0 
L 697 0 
L 697 3053 
L 147 3053 
L 147 3500 
L 697 3500 
L 697 3744 
Q 697 4328 969 4595 
Q 1241 4863 1831 4863 
L 2375 4863 
z
" transform="scale(0.015625)"/>
       <path id="DejaVuSans-45" d="M 3116 1747 
Q 3116 2381 2855 2742 
Q 2594 3103 2138 3103 
Q 1681 3103 1420 2742 
Q 1159 2381 1159 1747 
Q 1159 1113 1420 752 
Q 1681 391 2138 391 
Q 2594 391 2855 752 
Q 3116 1113 3116 1747 
z
M 1159 2969 
Q 1341 3281 1617 3432 
Q 1894 3584 2278 3584 
Q 2916 3584 3314 3078 
Q 3713 2572 3713 1747 
Q 3713 922 3314 415 
Q 2916 -91 2278 -91 
Q 1894 -91 1617 61 
Q 1341 213 1159 525 
L 1159 0 
L 581 0 
L 581 4863 
L 1159 4863 
L 1159 2969 
z
" transform="scale(0.015625)"/>
       <path id="DejaVuSans-4d" d="M 603 3500 
L 1178 3500 
L 1178 -63 
Q 1178 -731 923 -1031 
Q 669 -1331 103 -1331 
L -116 -1331 
L -116 -844 
L 38 -844 
Q 366 -844 484 -692 
Q 603 -541 603 -63 
L 603 3500 
z
M 603 4863 
L 1178 4863 
L 1178 4134 
L 603 4134 
L 603 4863 
z
" transform="scale(0.015625)"/>
       <path id="DejaVuSans-48" d="M 3597 1894 
L 3597 1613 
L 953 1613 
Q 991 1019 1311 708 
Q 1631 397 2203 397 
Q 2534 397 2845 478 
Q 3156 559 3463 722 
L 3463 178 
Q 3153 47 2828 -22 
Q 2503 -91 2169 -91 
Q 1331 -91 842 396 
Q 353 884 353 1716 
Q 353 2575 817 3079 
Q 1281 3584 2069 3584 
Q 2775 3584 3186 3129 
Q 3597 2675 3597 1894 
z
M 3022 2063 
Q 3016 2534 2758 2815 
Q 2500 3097 2075 3097 
Q 1594 3097 1305 2825 
Q 1016 2553 972 2059 
L 3022 2063 
z
" transform="scale(0.015625)"/>
       <path id="DejaVuSans-46" d="M 3122 3366 
L 3122 2828 
Q 2878 2963 2633 3030 
Q 2388 3097 2138 3097 
Q 1578 3097 1268 2742 
Q 959 2388 959 1747 
Q 959 1106 1268 751 
Q 1578 397 2138 397 
Q 2388 397 2633 464 
Q 2878 531 3122 666 
L 3122 134 
Q 2881 22 2623 -34 
Q 2366 -91 2075 -91 
Q 1284 -91 818 406 
Q 353 903 353 1747 
Q 353 2603 823 3093 
Q 1294 3584 2113 3584 
Q 2378 3584 2631 3529 
Q 2884 3475 3122 3366 
z
" transform="scale(0.015625)"/>
       <path id="DejaVuSans-56" d="M 2834 3397 
L 2834 2853 
Q 2591 2978 2328 3040 
Q 2066 3103 1784 3103 
Q 1356 3103 1142 2972 
Q 928 2841 928 2578 
Q 928 2378 1081 2264 
Q 1234 2150 1697 2047 
L 1894 2003 
Q 2506 1872 2764 1633 
Q 3022 1394 3022 966 
Q 3022 478 2636 193 
Q 2250 -91 1575 -91 
Q 1294 -91 989 -36 
Q 684 19 347 128 
L 347 722 
Q 666 556 975 473 
Q 1284 391 1588 391 
Q 1994 391 2212 530 
Q 2431 669 2431 922 
Q 2431 1156 2273 1281 
Q 2116 1406 1581 1522 
L 1381 1569 
Q 847 1681 609 1914 
Q 372 2147 372 2553 
Q 372 3047 722 3315 
Q 1072 3584 1716 3584 
Q 2034 3584 2315 3537 
Q 2597 3491 2834 3397 
z
" transform="scale(0.015625)"/>
       <path id="DejaVuSans-4c" d="M 603 3500 
L 1178 3500 
L 1178 0 
L 603 0 
L 603 3500 
z
M 603 4863 
L 1178 4863 
L 1178 4134 
L 603 4134 
L 603 4863 
z
" transform="scale(0.015625)"/>
       <path id="DejaVuSans-44" d="M 2194 1759 
Q 1497 1759 1228 1600 
Q 959 1441 959 1056 
Q 959 750 1161 570 
Q 1363 391 1709 391 
Q 2188 391 2477 730 
Q 2766 1069 2766 1631 
L 2766 1759 
L 2194 1759 
z
M 3341 1997 
L 3341 0 
L 2766 0 
L 2766 531 
Q 2569 213 2275 61 
Q 1981 -91 1556 -91 
Q 1019 -91 701 211 
Q 384 513 384 1019 
Q 384 1609 779 1909 
Q 1175 2209 1959 2209 
L 2766 2209 
L 2766 2266 
Q 2766 2663 2505 2880 
Q 2244 3097 1772 3097 
Q 1472 3097 1187 3025 
Q 903 2953 641 2809 
L 641 3341 
Q 956 3463 1253 3523 
Q 1550 3584 1831 3584 
Q 2591 3584 2966 3190 
Q 3341 2797 3341 1997 
z
" transform="scale(0.015625)"/>
       <path id="DejaVuSans-4f" d="M 603 4863 
L 1178 4863 
L 1178 0 
L 603 0 
L 603 4863 
z
" transform="scale(0.015625)"/>
      </defs>
      <use xlink:href="#DejaVuSans-24"/>
      <use xlink:href="#DejaVuSans-50" transform="translate(68.40625 0)"/>
      <use xlink:href="#DejaVuSans-52" transform="translate(165.8125 0)"/>
      <use xlink:href="#DejaVuSans-58" transform="translate(227 0)"/>
      <use xlink:href="#DejaVuSans-51" transform="translate(290.375 0)"/>
      <use xlink:href="#DejaVuSans-57" transform="translate(353.75 0)"/>
      <use xlink:href="#DejaVuSans-3" transform="translate(392.953125 0)"/>
      <use xlink:href="#DejaVuSans-52" transform="translate(424.734375 0)"/>
      <use xlink:href="#DejaVuSans-49" transform="translate(485.921875 0)"/>
      <use xlink:href="#DejaVuSans-3" transform="translate(521.125 0)"/>
      <use xlink:href="#DejaVuSans-52" transform="translate(552.90625 0)"/>
      <use xlink:href="#DejaVuSans-45" transform="translate(614.09375 0)"/>
      <use xlink:href="#DejaVuSans-4d" transform="translate(677.578125 0)"/>
      <use xlink:href="#DejaVuSans-48" transform="translate(705.359375 0)"/>
      <use xlink:href="#DejaVuSans-46" transform="translate(766.890625 0)"/>
      <use xlink:href="#DejaVuSans-57" transform="translate(821.875 0)"/>
      <use xlink:href="#DejaVuSans-56" transform="translate(861.078125 0)"/>
      <use xlink:href="#DejaVuSans-3" transform="translate(913.171875 0)"/>
      <use xlink:href="#DejaVuSans-4c" transform="translate(944.953125 0)"/>
      <use xlink:href="#DejaVuSans-51" transform="translate(972.734375 0)"/>
      <use xlink:href="#DejaVuSans-3" transform="translate(1036.109375 0)"/>
      <use xlink:href="#DejaVuSans-57" transform="translate(1067.890625 0)"/>
      <use xlink:href="#DejaVuSans-44" transform="translate(1107.09375 0)"/>
      <use xlink:href="#DejaVuSans-45" transform="translate(1168.375 0)"/>
      <use xlink:href="#DejaVuSans-4f" transform="translate(1231.859375 0)"/>
      <use xlink:href="#DejaVuSans-48" transform="translate(1259.640625 0)"/>
     </g>
    </g>
   </g>
   <g id="matplotlib.axis_2">
    <g id="ytick_1">
     <g id="line2d_10">
      <defs>
       <path id="m57a77842a2" d="M 0 0 
L -3.5 0 
" style="stroke: #000000; stroke-width: 0.8"/>
      </defs>
      <g>
       <use xlink:href="#m57a77842a2" x="62.038281" y="288.430125" style="stroke: #000000; stroke-width: 0.8"/>
      </g>
     </g>
     <g id="text_11">
      <!-- 0 -->
      <g transform="translate(48.675781 292.228953) scale(0.1 -0.1)">
       <use xlink:href="#DejaVuSans-13"/>
      </g>
     </g>
    </g>
    <g id="ytick_2">
     <g id="line2d_11">
      <g>
       <use xlink:href="#m57a77842a2" x="62.038281" y="254.252342" style="stroke: #000000; stroke-width: 0.8"/>
      </g>
     </g>
     <g id="text_12">
      <!-- 100 µs -->
      <g transform="translate(21.200781 258.051171) scale(0.1 -0.1)">
       <defs>
        <path id="DejaVuSans-77" d="M 544 -1331 
L 544 3500 
L 1119 3500 
L 1119 1325 
Q 1119 872 1334 640 
Q 1550 409 1972 409 
Q 2434 409 2667 671 
Q 2900 934 2900 1459 
L 2900 3500 
L 3475 3500 
L 3475 806 
Q 3475 619 3529 530 
Q 3584 441 3700 441 
Q 3728 441 3778 458 
Q 3828 475 3916 513 
L 3916 50 
Q 3788 -22 3673 -56 
Q 3559 -91 3450 -91 
Q 3234 -91 3106 31 
Q 2978 153 2931 403 
Q 2775 156 2548 32 
Q 2322 -91 2016 -91 
Q 1697 -91 1473 31 
Q 1250 153 1119 397 
L 1119 -1331 
L 544 -1331 
z
" transform="scale(0.015625)"/>
       </defs>
       <use xlink:href="#DejaVuSans-14"/>
       <use xlink:href="#DejaVuSans-13" transform="translate(63.625 0)"/>
       <use xlink:href="#DejaVuSans-13" transform="translate(127.25 0)"/>
       <use xlink:href="#DejaVuSans-3" transform="translate(190.875 0)"/>
       <use xlink:href="#DejaVuSans-77" transform="translate(222.65625 0)"/>
       <use xlink:href="#DejaVuSans-56" transform="translate(286.28125 0)"/>
      </g>
     </g>
    </g>
    <g id="ytick_3">
     <g id="line2d_12">
      <g>
       <use xlink:href="#m57a77842a2" x="62.038281" y="220.07456" style="stroke: #000000; stroke-width: 0.8"/>
      </g>
     </g>
     <g id="text_13">
      <!-- 200 µs -->
      <g transform="translate(21.200781 223.873388) scale(0.1 -0.1)">
       <use xlink:href="#DejaVuSans-15"/>
       <use xlink:href="#DejaVuSans-13" transform="translate(63.625 0)"/>
       <use xlink:href="#DejaVuSans-13" transform="translate(127.25 0)"/>
       <use xlink:href="#DejaVuSans-3" transform="translate(190.875 0)"/>
       <use xlink:href="#DejaVuSans-77" transform="translate(222.65625 0)"/>
       <use xlink:href="#DejaVuSans-56" transform="translate(286.28125 0)"/>
      </g>
     </g>
    </g>
    <g id="ytick_4">
     <g id="line2d_13">
      <g>
       <use xlink:href="#m57a77842a2" x="62.038281" y="185.896777" style="stroke: #000000; stroke-width: 0.8"/>
      </g>
     </g>
     <g id="text_14">
      <!-- 300 µs -->
      <g transform="translate(21.200781 189.695605) scale(0.1 -0.1)">
       <use xlink:href="#DejaVuSans-16"/>
       <use xlink:href="#DejaVuSans-13" transform="translate(63.625 0)"/>
       <use xlink:href="#DejaVuSans-13" transform="translate(127.25 0)"/>
       <use xlink:href="#DejaVuSans-3" transform="translate(190.875 0)"/>
       <use xlink:href="#DejaVuSans-77" transform="translate(222.65625 0)"/>
       <use xlink:href="#DejaVuSans-56" transform="translate(286.28125 0)"/>
      </g>
     </g>
    </g>
    <g id="ytick_5">
     <g id="line2d_14">
      <g>
       <use xlink:href="#m57a77842a2" x="62.038281" y="151.718995" style="stroke: #000000; stroke-width: 0.8"/>
      </g>
     </g>
     <g id="text_15">
      <!-- 400 µs -->
      <g transform="translate(21.200781 155.517823) scale(0.1 -0.1)">
       <use xlink:href="#DejaVuSans-17"/>
       <use xlink:href="#DejaVuSans-13" transform="translate(63.625 0)"/>
       <use xlink:href="#DejaVuSans-13" transform="translate(127.25 0)"/>
       <use xlink:href="#DejaVuSans-3" transform="translate(190.875 0)"/>
       <use xlink:href="#DejaVuSans-77" transform="translate(222.65625 0)"/>
       <use xlink:href="#DejaVuSans-56" transform="translate(286.28125 0)"/>
      </g>
     </g>
    </g>
    <g id="ytick_6">
     <g id="line2d_15">
      <g>
       <use xlink:href="#m57a77842a2" x="62.038281" y="117.541212" style="stroke: #000000; stroke-width: 0.8"/>
      </g>
     </g>
     <g id="text_16">
      <!-- 500 µs -->
      <g transform="translate(21.200781 121.34004) scale(0.1 -0.1)">
       <use xlink:href="#DejaVuSans-18"/>
       <use xlink:href="#DejaVuSans-13" transform="translate(63.625 0)"/>
       <use xlink:href="#DejaVuSans-13" transform="translate(127.25 0)"/>
       <use xlink:href="#DejaVuSans-3" transform="translate(190.875 0)"/>
       <use xlink:href="#DejaVuSans-77" transform="translate(222.65625 0)"/>
       <use xlink:href="#DejaVuSans-56" transform="translate(286.28125 0)"/>
      </g>
     </g>
    </g>
    <g id="ytick_7">
     <g id="line2d_16">
      <g>
       <use xlink:href="#m57a77842a2" x="62.038281" y="83.363429" style="stroke: #000000; stroke-width: 0.8"/>
      </g>
     </g>
     <g id="text_17">
      <!-- 600 µs -->
      <g transform="translate(21.200781 87.162257) scale(0.1 -0.1)">
       <defs>
        <path id="DejaVuSans-19" d="M 2113 2584 
Q 1688 2584 1439 2293 
Q 1191 2003 1191 1497 
Q 1191 994 1439 701 
Q 1688 409 2113 409 
Q 2538 409 2786 701 
Q 3034 994 3034 1497 
Q 3034 2003 2786 2293 
Q 2538 2584 2113 2584 
z
M 3366 4563 
L 3366 3988 
Q 3128 4100 2886 4159 
Q 2644 4219 2406 4219 
Q 1781 4219 1451 3797 
Q 1122 3375 1075 2522 
Q 1259 2794 1537 2939 
Q 1816 3084 2150 3084 
Q 2853 3084 3261 2657 
Q 3669 2231 3669 1497 
Q 3669 778 3244 343 
Q 2819 -91 2113 -91 
Q 1303 -91 875 529 
Q 447 1150 447 2328 
Q 447 3434 972 4092 
Q 1497 4750 2381 4750 
Q 2619 4750 2861 4703 
Q 3103 4656 3366 4563 
z
" transform="scale(0.015625)"/>
       </defs>
       <use xlink:href="#DejaVuSans-19"/>
       <use xlink:href="#DejaVuSans-13" transform="translate(63.625 0)"/>
       <use xlink:href="#DejaVuSans-13" transform="translate(127.25 0)"/>
       <use xlink:href="#DejaVuSans-3" transform="translate(190.875 0)"/>
       <use xlink:href="#DejaVuSans-77" transform="translate(222.65625 0)"/>
       <use xlink:href="#DejaVuSans-56" transform="translate(286.28125 0)"/>
      </g>
     </g>
    </g>
    <g id="ytick_8">
     <g id="line2d_17">
      <g>
       <use xlink:href="#m57a77842a2" x="62.038281" y="49.185647" style="stroke: #000000; stroke-width: 0.8"/>
      </g>
     </g>
     <g id="text_18">
      <!-- 700 µs -->
      <g transform="translate(21.200781 52.984475) scale(0.1 -0.1)">
       <defs>
        <path id="DejaVuSans-1a" d="M 525 4666 
L 3525 4666 
L 3525 4397 
L 1831 0 
L 1172 0 
L 2766 4134 
L 525 4134 
L 525 4666 
z
" transform="scale(0.015625)"/>
       </defs>
       <use xlink:href="#DejaVuSans-1a"/>
       <use xlink:href="#DejaVuSans-13" transform="translate(63.625 0)"/>
       <use xlink:href="#DejaVuSans-13" transform="translate(127.25 0)"/>
       <use xlink:href="#DejaVuSans-3" transform="translate(190.875 0)"/>
       <use xlink:href="#DejaVuSans-77" transform="translate(222.65625 0)"/>
       <use xlink:href="#DejaVuSans-56" transform="translate(286.28125 0)"/>
      </g>
     </g>
    </g>
    <g id="text_19">
     <!-- Read latency (s) -->
     <g transform="translate(14.798438 195.990531) rotate(-90) scale(0.1 -0.1)">
      <defs>
       <path id="DejaVuSans-35" d="M 2841 2188 
Q 3044 2119 3236 1894 
Q 3428 1669 3622 1275 
L 4263 0 
L 3584 0 
L 2988 1197 
Q 2756 1666 2539 1819 
Q 2322 1972 1947 1972 
L 1259 1972 
L 1259 0 
L 628 0 
L 628 4666 
L 2053 4666 
Q 2853 4666 3247 4331 
Q 3641 3997 3641 3322 
Q 3641 2881 3436 2590 
Q 3231 2300 2841 2188 
z
M 1259 4147 
L 1259 2491 
L 2053 2491 
Q 2509 2491 2742 2702 
Q 2975 2913 2975 3322 
Q 2975 3731 2742 3939 
Q 2509 4147 2053 4147 
L 1259 4147 
z
" transform="scale(0.015625)"/>
       <path id="DejaVuSans-47" d="M 2906 2969 
L 2906 4863 
L 3481 4863 
L 3481 0 
L 2906 0 
L 2906 525 
Q 2725 213 2448 61 
Q 2172 -91 1784 -91 
Q 1150 -91 751 415 
Q 353 922 353 1747 
Q 353 2572 751 3078 
Q 1150 3584 1784 3584 
Q 2172 3584 2448 3432 
Q 2725 3281 2906 2969 
z
M 947 1747 
Q 947 1113 1208 752 
Q 1469 391 1925 391 
Q 2381 391 2643 752 
Q 2906 1113 2906 1747 
Q 2906 2381 2643 2742 
Q 2381 3103 1925 3103 
Q 1469 3103 1208 2742 
Q 947 2381 947 1747 
z
" transform="scale(0.015625)"/>
       <path id="DejaVuSans-5c" d="M 2059 -325 
Q 1816 -950 1584 -1140 
Q 1353 -1331 966 -1331 
L 506 -1331 
L 506 -850 
L 844 -850 
Q 1081 -850 1212 -737 
Q 1344 -625 1503 -206 
L 1606 56 
L 191 3500 
L 800 3500 
L 1894 763 
L 2988 3500 
L 3597 3500 
L 2059 -325 
z
" transform="scale(0.015625)"/>
       <path id="DejaVuSans-b" d="M 1984 4856 
Q 1566 4138 1362 3434 
Q 1159 2731 1159 2009 
Q 1159 1288 1364 580 
Q 1569 -128 1984 -844 
L 1484 -844 
Q 1016 -109 783 600 
Q 550 1309 550 2009 
Q 550 2706 781 3412 
Q 1013 4119 1484 4856 
L 1984 4856 
z
" transform="scale(0.015625)"/>
       <path id="DejaVuSans-c" d="M 513 4856 
L 1013 4856 
Q 1481 4119 1714 3412 
Q 1947 2706 1947 2009 
Q 1947 1309 1714 600 
Q 1481 -109 1013 -844 
L 513 -844 
Q 928 -128 1133 580 
Q 1338 1288 1338 2009 
Q 1338 2731 1133 3434 
Q 928 4138 513 4856 
z
" transform="scale(0.015625)"/>
      </defs>
      <use xlink:href="#DejaVuSans-35"/>
      <use xlink:href="#DejaVuSans-48" transform="translate(65 0)"/>
      <use xlink:href="#DejaVuSans-44" transform="translate(126.53125 0)"/>
      <use xlink:href="#DejaVuSans-47" transform="translate(187.8125 0)"/>
      <use xlink:href="#DejaVuSans-3" transform="translate(251.296875 0)"/>
      <use xlink:href="#DejaVuSans-4f" transform="translate(283.078125 0)"/>
      <use xlink:href="#DejaVuSans-44" transform="translate(310.859375 0)"/>
      <use xlink:href="#DejaVuSans-57" transform="translate(372.140625 0)"/>
      <use xlink:href="#DejaVuSans-48" transform="translate(411.34375 0)"/>
      <use xlink:href="#DejaVuSans-51" transform="translate(472.875 0)"/>
      <use xlink:href="#DejaVuSans-46" transform="translate(536.25 0)"/>
      <use xlink:href="#DejaVuSans-5c" transform="translate(591.234375 0)"/>
      <use xlink:href="#DejaVuSans-3" transform="translate(650.421875 0)"/>
      <use xlink:href="#DejaVuSans-b" transform="translate(682.203125 0)"/>
      <use xlink:href="#DejaVuSans-56" transform="translate(721.21875 0)"/>
      <use xlink:href="#DejaVuSans-c" transform="translate(773.3125 0)"/>
     </g>
    </g>
   </g>
   <g id="line2d_18">
    <path d="M 146.957981 238.560998 
L 150.006381 238.524643 
L 150.877352 238.489123 
L 155.232208 238.177804 
L 155.667694 238.118466 
L 156.10318 238.372118 
L 156.974151 238.420592 
L 157.409637 238.706002 
L 157.845122 238.351224 
L 158.716094 238.33827 
L 159.151579 238.456947 
L 159.587065 238.795846 
L 161.329007 238.525897 
L 163.07095 238.354567 
L 163.941921 238.924134 
L 164.377407 238.929149 
L 164.812893 239.248408 
L 166.554835 239.083346 
L 166.990321 239.323626 
L 167.425806 239.388397 
L 167.861292 238.881929 
L 171.780663 238.746118 
L 172.216148 238.672572 
L 172.651634 239.146863 
L 176.571005 238.904494 
L 177.006491 239.18698 
L 180.490376 238.932492 
L 183.103289 238.835126 
L 184.409746 238.735254 
L 186.151689 238.613233 
L 187.893632 238.447754 
L 190.506545 238.22001 
L 192.248488 238.046173 
L 194.425916 238.031965 
L 194.861402 237.855203 
L 195.296887 237.799207 
L 195.732373 237.395537 
L 198.345287 237.325334 
L 199.216258 236.137307 
L 204.877572 229.997845 
L 205.748543 228.959419 
L 207.490485 227.085654 
L 208.361457 226.139579 
L 213.151799 220.819158 
L 213.587284 220.349463 
L 214.02277 220.043577 
L 214.893741 219.05446 
L 218.377626 215.643323 
L 218.813112 215.322393 
L 221.426026 212.304896 
L 222.732483 211.078007 
L 225.345397 208.650555 
L 226.216368 207.94852 
L 226.651854 207.355969 
L 227.522825 206.643905 
L 228.393796 205.165453 
L 229.264767 204.330115 
L 230.135739 203.330969 
L 230.571224 202.956551 
L 231.877681 201.386584 
L 232.313167 201.045177 
L 234.926081 197.899393 
L 235.797052 197.032714 
L 236.668023 195.956261 
L 237.103509 194.237111 
L 237.538995 193.712674 
L 237.97448 192.396359 
L 241.02288 189.125211 
L 241.893851 187.952228 
L 242.764822 187.222195 
L 243.635794 186.378918 
L 244.506765 185.200502 
L 245.813222 183.974449 
L 248.861621 180.913911 
L 249.297107 179.435041 
L 251.474535 176.95034 
L 251.910021 176.097869 
L 252.345506 175.532898 
L 252.780992 171.990965 
L 254.522935 169.591093 
L 254.95842 168.949232 
L 255.393906 168.10303 
L 257.135848 166.215475 
L 258.00682 161.144945 
L 259.313277 159.693237 
L 260.619734 158.430828 
L 261.490705 156.985807 
L 261.926191 155.078612 
L 262.797162 153.823307 
L 263.232647 151.446 
L 264.103619 150.358264 
L 264.539104 148.677559 
L 265.845561 146.810899 
L 266.281047 145.598217 
L 266.716533 145.042022 
L 267.152018 144.684736 
L 267.587504 142.110191 
L 268.022989 141.423199 
L 268.458475 141.054213 
L 268.893961 140.158283 
L 271.506875 136.539879 
L 272.813332 134.927288 
L 274.119788 133.207721 
L 275.861731 131.535373 
L 276.732702 130.765224 
L 277.603674 129.840043 
L 278.474645 129.013063 
L 279.781102 127.259647 
L 280.216587 126.762372 
L 280.652073 126.667096 
L 282.394016 124.536755 
L 282.829501 124.141024 
L 283.264987 123.576054 
L 283.700473 123.814244 
L 284.135958 123.405559 
L 285.00693 123.439408 
L 285.442415 123.393023 
L 285.877901 123.217932 
L 286.313386 123.173219 
L 286.748872 123.310283 
L 287.184358 123.24593 
L 287.619843 122.065843 
L 288.055329 121.895767 
L 288.9263 122.2121 
L 289.361786 122.175745 
L 289.797272 122.266842 
L 290.668243 122.282304 
L 291.103728 122.290661 
L 291.539214 122.128943 
L 291.9747 122.117242 
L 292.845671 121.767478 
L 294.587614 121.694767 
L 295.458585 121.382195 
L 296.329556 121.525945 
L 297.636013 121.467024 
L 298.506984 121.361719 
L 298.94247 121.017387 
L 300.248927 120.932976 
L 300.684413 120.768332 
L 301.119898 120.796748 
L 301.555384 120.454506 
L 302.426355 120.255178 
L 303.732812 119.480433 
L 304.603783 119.499237 
L 305.039269 119.318714 
L 305.474755 119.317042 
L 305.91024 119.504252 
L 306.781212 119.204215 
L 307.216697 119.163681 
L 308.523154 118.700673 
L 311.136068 117.825636 
L 311.571554 117.891243 
L 312.007039 117.639263 
L 312.442525 117.610429 
L 312.878011 116.071385 
L 313.313496 115.97778 
L 314.184467 115.584975 
L 314.619953 115.221421 
L 315.055439 115.16459 
L 315.490924 114.833213 
L 316.361896 114.531087 
L 316.797381 112.657323 
L 317.232867 112.334303 
L 317.668353 112.199329 
L 318.103838 112.343914 
L 318.539324 112.343079 
L 319.410295 112.146676 
L 319.845781 112.176763 
L 320.281266 111.834103 
L 320.716752 109.929834 
L 321.152238 109.927327 
L 321.587723 109.762265 
L 322.023209 110.773947 
L 322.458695 110.783559 
L 322.89418 111.402018 
L 323.329666 111.344351 
L 323.765152 109.301346 
L 324.200637 108.001328 
L 324.636123 107.932378 
L 325.071608 107.623148 
L 325.507094 107.520768 
L 326.378065 107.52829 
L 326.813551 106.974184 
L 327.249037 106.85091 
L 327.684522 106.982959 
L 328.120008 106.787393 
L 328.555494 106.788228 
L 328.990979 106.176037 
L 329.426465 106.009304 
L 329.861951 106.008468 
L 330.297436 105.667062 
L 330.732922 105.505343 
L 331.168407 105.559249 
L 331.603893 105.493643 
L 332.039379 105.286375 
L 332.474864 104.886884 
L 332.91035 104.979653 
L 333.781321 104.714718 
L 334.216807 105.495314 
L 334.652293 105.097494 
L 335.087778 105.001383 
L 335.523264 105.099166 
L 335.95875 104.868915 
L 336.394235 104.86014 
L 336.829721 105.051946 
L 337.265206 105.056542 
L 337.700692 108.586357 
L 338.136178 108.679961 
L 338.571663 107.147185 
L 339.007149 106.83712 
L 339.442635 107.04188 
L 339.87812 107.102055 
L 340.313606 107.372004 
L 340.749092 107.463937 
L 341.620063 107.388719 
L 342.055548 107.440536 
L 342.92652 110.794005 
L 343.797491 110.742606 
L 344.668462 110.549129 
L 345.539434 110.486029 
L 345.974919 108.199402 
L 346.410405 108.537465 
L 346.845891 109.579652 
L 347.716862 109.8145 
L 348.152347 111.53156 
L 348.587833 111.726291 
L 349.023319 110.239064 
L 349.458804 111.349783 
L 349.89429 111.389481 
L 350.329776 111.582123 
L 350.765261 111.550364 
L 351.200747 112.168824 
L 351.636233 112.20309 
L 352.071718 111.963646 
L 352.507204 114.013754 
L 353.378175 114.124074 
L 353.813661 113.686556 
L 354.249146 113.942715 
L 355.991089 114.184249 
L 356.426575 114.09148 
L 356.86206 114.118642 
L 357.297546 113.75676 
L 358.168517 111.854579 
L 358.604003 110.597185 
L 359.91046 110.610975 
L 360.781431 110.429198 
L 361.652402 110.066062 
L 362.087888 110.055615 
L 362.958859 109.782741 
L 363.394345 109.807814 
L 363.829831 110.048511 
L 364.265316 109.951982 
L 364.700802 109.405397 
L 365.136287 109.254961 
L 365.571773 108.550419 
L 366.007259 108.624384 
L 366.442744 108.199402 
L 366.87823 108.094097 
L 367.313716 108.11708 
L 367.749201 106.773185 
L 368.184687 106.262538 
L 368.620173 106.184395 
L 369.055658 106.410467 
L 369.491144 106.256688 
L 369.92663 106.237883 
L 370.362115 105.836302 
L 370.797601 106.079925 
L 371.233086 105.049438 
L 371.668572 104.779907 
L 372.104058 104.816263 
L 372.539543 105.983813 
L 372.975029 106.1401 
L 373.410515 106.122131 
L 373.846 104.376655 
L 374.281486 104.166045 
L 375.152457 104.091662 
L 375.587943 103.632415 
L 376.023428 103.4895 
L 376.458914 103.714319 
L 376.8944 103.559704 
L 378.200857 103.507469 
L 378.636342 102.451074 
L 379.507314 102.434359 
L 379.942799 101.248421 
L 380.378285 101.342444 
L 380.813771 100.86272 
L 381.249256 100.024875 
L 381.684742 99.992281 
L 382.120227 99.710631 
L 382.555713 99.939628 
L 384.733141 99.801728 
L 386.039598 99.556016 
L 387.781541 99.54933 
L 388.652512 99.875693 
L 389.087998 99.70687 
L 389.958969 99.685558 
L 390.82994 98.558124 
L 391.265426 98.545587 
L 391.700912 98.388883 
L 392.136397 97.971423 
L 392.571883 98.03118 
L 393.007369 97.803018 
L 393.87834 97.795497 
L 394.313825 97.745769 
L 394.749311 97.816808 
L 395.620282 97.640882 
L 396.055768 97.413556 
L 396.491254 97.366336 
L 396.926739 96.820588 
L 397.362225 96.606634 
L 397.797711 98.243462 
L 398.233196 98.414374 
L 399.104167 98.350856 
L 399.539653 98.669697 
L 399.975139 98.612448 
L 400.84611 96.673077 
L 401.281596 96.583233 
L 401.717081 98.398912 
L 402.152567 97.943425 
L 402.152567 97.943425 
" clip-path="url(#p3c9dcd165b)" style="fill: none; stroke: #1f77b4; stroke-opacity: 0.8; stroke-width: 1.5; stroke-linecap: square"/>
   </g>
   <g id="line2d_19">
    <path d="M 146.957981 173.451866 
L 147.393467 173.615256 
L 149.135409 172.923251 
L 149.570895 172.965038 
L 150.006381 172.784515 
L 151.312838 172.978411 
L 151.748323 173.851775 
L 152.183809 174.121724 
L 152.619295 174.100831 
L 153.490266 174.336514 
L 155.232208 174.12465 
L 155.667694 174.308934 
L 156.974151 173.901503 
L 157.845122 173.573469 
L 158.716094 173.340711 
L 159.151579 172.98635 
L 159.587065 172.904864 
L 160.022551 172.675449 
L 160.458036 172.132626 
L 161.329007 171.996815 
L 161.764493 171.787041 
L 163.07095 172.162713 
L 163.506436 171.650395 
L 163.941921 171.584788 
L 165.248378 171.086677 
L 165.683864 171.244635 
L 166.554835 171.143091 
L 166.990321 171.099214 
L 167.425806 171.206191 
L 167.861292 171.094617 
L 168.296778 171.14518 
L 169.603235 170.685515 
L 170.03872 170.181554 
L 170.474206 170.161914 
L 171.345177 170.385896 
L 173.08712 170.286023 
L 173.522605 169.942946 
L 173.958091 169.76493 
L 174.393577 169.925395 
L 174.829062 169.851431 
L 175.264548 168.688059 
L 175.700034 168.660479 
L 176.571005 168.301939 
L 177.006491 168.230064 
L 177.441976 168.513803 
L 179.183919 169.05788 
L 179.619404 169.035733 
L 180.05489 169.844744 
L 182.667804 169.379229 
L 184.845232 169.540947 
L 186.151689 169.40263 
L 187.02266 169.051194 
L 188.329117 168.685551 
L 189.200088 168.599051 
L 190.07106 168.349577 
L 190.942031 168.546816 
L 191.377517 168.146071 
L 192.683974 168.158607 
L 195.296887 167.692673 
L 195.732373 167.527194 
L 197.909801 167.464094 
L 198.345287 167.586532 
L 198.780773 167.430664 
L 199.216258 167.765802 
L 199.651744 167.759952 
L 200.087229 168.328266 
L 201.393686 168.52634 
L 201.829172 168.753665 
L 202.700143 168.339131 
L 203.135629 168.279374 
L 204.0066 167.469109 
L 205.748543 166.838113 
L 206.184028 166.375105 
L 206.619514 166.273978 
L 207.490485 165.197107 
L 208.361457 163.515148 
L 208.796942 163.189622 
L 210.974371 162.504302 
L 211.409856 162.558208 
L 212.280827 162.361388 
L 213.151799 161.992401 
L 213.587284 161.152467 
L 214.02277 161.073488 
L 214.458256 161.109008 
L 214.893741 159.880029 
L 215.329227 159.199306 
L 216.200198 158.774742 
L 216.635684 157.918092 
L 217.071169 157.865022 
L 217.506655 157.519855 
L 217.942141 157.011715 
L 218.377626 156.764749 
L 218.813112 156.376959 
L 219.248598 155.430883 
L 219.684083 155.080284 
L 220.119569 153.680393 
L 220.555055 153.550851 
L 220.99054 153.579266 
L 224.03894 152.389986 
L 224.474425 152.351541 
L 224.909911 151.652849 
L 225.345397 150.24084 
L 225.780882 150.046945 
L 226.651854 148.557628 
L 227.087339 148.27765 
L 227.958311 148.035699 
L 228.393796 147.497054 
L 228.829282 147.15523 
L 229.264767 147.306502 
L 229.700253 147.21624 
L 230.135739 147.007719 
L 231.00671 146.146473 
L 231.442196 145.762861 
L 232.313167 145.852705 
L 232.748653 145.926251 
L 234.055109 145.571473 
L 234.490595 145.015695 
L 237.103509 144.448635 
L 237.538995 143.378868 
L 239.716423 142.946782 
L 241.02288 142.921291 
L 241.458365 142.688116 
L 242.764822 142.322473 
L 243.635794 142.000289 
L 244.071279 142.100579 
L 244.506765 142.047091 
L 244.942251 141.414842 
L 245.377736 141.71446 
L 246.248707 141.486299 
L 247.119679 141.373054 
L 247.555164 141.107284 
L 247.99065 141.006157 
L 248.426136 141.24393 
L 248.861621 141.060899 
L 249.732593 141.087226 
L 250.168078 140.341314 
L 250.603564 140.039188 
L 251.039049 139.892931 
L 251.910021 139.288261 
L 252.780992 139.088934 
L 253.216478 138.832357 
L 253.651963 138.926379 
L 254.087449 138.855758 
L 254.522935 138.131575 
L 254.95842 138.421165 
L 255.393906 138.218076 
L 255.829392 137.84115 
L 258.00682 137.160845 
L 258.442305 137.423272 
L 258.877791 137.512698 
L 259.313277 137.412408 
L 259.748762 137.143712 
L 260.184248 138.143276 
L 260.619734 137.85494 
L 261.055219 137.788916 
L 261.490705 137.84115 
L 262.361676 137.715787 
L 262.797162 137.668567 
L 263.232647 137.473 
L 263.668133 136.768876 
L 265.410076 136.159192 
L 265.845561 136.12618 
L 266.281047 135.633084 
L 267.152018 135.404087 
L 269.329446 134.859592 
L 269.764932 134.377361 
L 271.071389 134.061445 
L 271.94236 134.067713 
L 272.377846 134.157557 
L 273.684303 133.81239 
L 274.555274 133.931485 
L 274.99076 133.710428 
L 275.426245 133.61933 
L 275.861731 133.342695 
L 276.297217 133.655686 
L 277.168188 133.437135 
L 278.039159 133.294639 
L 278.474645 133.443822 
L 278.910131 133.429196 
L 279.345616 133.122891 
L 281.087559 133.036391 
L 282.394016 132.477688 
L 282.829501 131.934029 
L 283.264987 131.806576 
L 283.700473 131.948237 
L 284.571444 131.778996 
L 285.00693 131.925671 
L 285.442415 131.885973 
L 285.877901 130.819131 
L 287.184358 130.32102 
L 288.490815 130.321438 
L 288.9263 130.513662 
L 290.232757 129.810791 
L 290.668243 129.707158 
L 291.103728 129.941587 
L 291.539214 129.974182 
L 292.410185 131.17558 
L 292.845671 131.677452 
L 293.281157 132.369875 
L 293.716642 131.592205 
L 294.152128 131.29969 
L 294.587614 131.28799 
L 295.023099 130.852979 
L 295.894071 130.781522 
L 296.765042 130.435519 
L 297.200527 129.782376 
L 297.636013 129.892695 
L 298.071499 129.011809 
L 298.506984 129.741424 
L 299.377956 129.914425 
L 299.813441 131.23283 
L 300.248927 131.724254 
L 301.119898 131.264588 
L 301.555384 131.903942 
L 301.99087 131.751834 
L 302.861841 132.358175 
L 303.297326 132.159683 
L 303.732812 132.363189 
L 304.603783 132.132939 
L 305.039269 133.259955 
L 305.91024 133.277506 
L 306.345726 133.356485 
L 307.652183 132.872165 
L 308.087668 132.71546 
L 308.523154 132.720475 
L 308.95864 132.585918 
L 309.394125 132.268331 
L 309.829611 132.651525 
L 310.265097 134.015061 
L 310.700582 133.49146 
L 311.136068 133.988316 
L 312.007039 134.13917 
L 312.878011 134.265369 
L 313.313496 134.628923 
L 313.748982 134.632266 
L 314.619953 134.264534 
L 316.361896 134.117441 
L 317.232867 133.875071 
L 317.668353 133.83997 
L 318.103838 134.022164 
L 318.97481 133.956976 
L 319.410295 134.279995 
L 319.845781 134.057266 
L 320.281266 134.040969 
L 320.716752 133.699563 
L 321.587723 133.574617 
L 322.023209 133.586736 
L 322.458695 134.513171 
L 322.89418 133.816151 
L 323.329666 133.366932 
L 323.765152 133.388244 
L 325.071608 133.012989 
L 325.507094 132.711282 
L 325.94258 132.736772 
L 326.378065 132.916878 
L 326.813551 132.420021 
L 327.684522 132.415424 
L 328.120008 132.272928 
L 328.990979 132.161772 
L 329.426465 131.990442 
L 329.861951 132.461809 
L 330.732922 131.92191 
L 331.168407 131.934865 
L 331.603893 132.076107 
L 332.474864 131.911463 
L 332.91035 131.839171 
L 333.345836 131.372401 
L 333.781321 131.4355 
L 334.652293 131.421711 
L 335.087778 131.850035 
L 335.523264 131.973309 
L 335.95875 131.609338 
L 336.829721 131.803651 
L 337.700692 131.12251 
L 338.136178 131.104959 
L 338.571663 130.810355 
L 339.007149 130.851725 
L 339.442635 131.279214 
L 340.313606 131.37449 
L 340.749092 130.91566 
L 341.620063 130.548764 
L 343.797491 129.992568 
L 344.668462 129.512844 
L 345.974919 129.088698 
L 346.845891 127.731013 
L 347.281376 127.570966 
L 347.716862 127.153088 
L 348.152347 126.492841 
L 348.587833 126.240025 
L 349.023319 126.331958 
L 349.458804 125.335319 
L 349.89429 124.687191 
L 350.329776 124.838881 
L 350.765261 124.4373 
L 351.200747 124.869803 
L 351.636233 124.636628 
L 352.507204 124.467387 
L 352.94269 124.17529 
L 353.378175 124.024854 
L 353.813661 123.459048 
L 354.684632 123.687209 
L 355.555603 123.477434 
L 355.991089 123.29524 
L 356.86206 123.247602 
L 361.652402 122.30863 
L 362.087888 121.988118 
L 362.523374 121.168241 
L 362.958859 119.586156 
L 363.394345 119.294895 
L 363.829831 119.267315 
L 364.265316 119.444913 
L 364.700802 119.308267 
L 365.136287 118.466661 
L 365.571773 118.371803 
L 366.007259 118.015353 
L 366.442744 117.814771 
L 366.87823 117.968968 
L 367.313716 117.810593 
L 367.749201 118.227217 
L 369.491144 117.025818 
L 370.362115 117.002835 
L 370.797601 117.913391 
L 371.668572 116.823147 
L 372.104058 116.918423 
L 372.539543 116.772584 
L 373.410515 116.878725 
L 374.281486 116.900037 
L 374.716972 117.213445 
L 375.152457 117.280724 
L 376.023428 116.832759 
L 376.8944 116.69653 
L 377.765371 115.533994 
L 378.200857 115.370186 
L 378.636342 116.236029 
L 379.071828 116.495531 
L 379.507314 116.475473 
L 380.378285 116.19842 
L 380.813771 116.058431 
L 381.249256 116.098965 
L 381.684742 115.998674 
L 382.120227 116.270713 
L 382.555713 115.933067 
L 382.991199 116.839027 
L 383.426684 116.803089 
L 384.297656 116.272384 
L 384.733141 116.194659 
L 385.168627 115.317533 
L 386.91057 115.449165 
L 387.781541 114.499329 
L 388.217026 114.819841 
L 388.652512 114.100673 
L 389.087998 114.798529 
L 389.523483 114.847421 
L 389.958969 115.082268 
L 390.394455 114.974038 
L 390.82994 114.731669 
L 391.265426 114.656868 
L 391.700912 114.761756 
L 392.136397 114.080615 
L 392.571883 114.255706 
L 393.007369 114.051781 
L 393.87834 114.213082 
L 394.313825 113.738791 
L 394.749311 113.821948 
L 395.184797 113.723747 
L 395.620282 114.085629 
L 396.055768 114.117806 
L 396.491254 114.438318 
L 396.926739 114.54822 
L 397.362225 114.355996 
L 397.797711 113.6268 
L 398.233196 113.332196 
L 398.668682 113.273693 
L 399.104167 113.342643 
L 399.539653 113.129525 
L 400.410624 113.209757 
L 401.281596 113.61301 
L 401.717081 113.592116 
L 402.152567 112.907214 
L 402.152567 112.907214 
" clip-path="url(#p3c9dcd165b)" style="fill: none; stroke: #ff7f0e; stroke-opacity: 0.8; stroke-width: 1.5; stroke-linecap: square"/>
   </g>
   <g id="line2d_20">
    <path d="M 146.957981 164.107699 
L 148.699924 164.016602 
L 149.135409 163.143237 
L 149.570895 161.991984 
L 150.006381 162.030428 
L 150.441866 162.514331 
L 150.877352 161.2327 
L 151.748323 160.591257 
L 152.183809 161.089785 
L 153.05478 160.970272 
L 153.490266 160.654774 
L 153.925752 160.141203 
L 154.361237 160.083953 
L 155.232208 160.147889 
L 155.667694 160.011243 
L 156.538665 159.434153 
L 156.974151 160.516457 
L 157.409637 160.590003 
L 157.845122 161.215149 
L 158.280608 160.933499 
L 158.716094 160.830283 
L 159.151579 161.251504 
L 159.587065 160.926813 
L 160.022551 161.234789 
L 160.893522 161.629684 
L 161.329007 161.521453 
L 161.764493 160.134934 
L 163.07095 159.381501 
L 163.506436 159.396962 
L 163.941921 159.925578 
L 164.812893 159.731682 
L 165.683864 159.7204 
L 166.554835 159.434989 
L 168.732263 160.024197 
L 169.167749 160.409062 
L 169.603235 160.516039 
L 170.03872 160.442492 
L 170.474206 159.55492 
L 171.345177 159.745472 
L 171.780663 159.643928 
L 172.216148 159.749651 
L 172.651634 159.652285 
L 173.522605 160.050523 
L 174.393577 160.029629 
L 174.829062 160.103176 
L 175.264548 159.990767 
L 175.700034 160.18299 
L 176.135519 160.062642 
L 176.571005 160.192602 
L 177.441976 159.746308 
L 177.877462 159.754248 
L 178.312947 158.926014 
L 178.748433 158.941057 
L 179.183919 158.843274 
L 179.619404 157.337242 
L 180.05489 157.056428 
L 180.490376 156.911007 
L 180.925861 157.129975 
L 182.232318 156.995 
L 182.667804 157.084008 
L 183.103289 157.001686 
L 183.538775 155.880938 
L 183.974261 155.504848 
L 184.845232 155.610989 
L 185.280718 155.726323 
L 187.458146 155.55959 
L 188.764603 155.157591 
L 189.200088 155.195618 
L 189.635574 155.120818 
L 190.07106 154.595128 
L 191.377517 155.030974 
L 191.813002 154.64193 
L 193.554945 154.430484 
L 193.990431 154.616439 
L 195.732373 154.487315 
L 196.167859 154.175996 
L 196.603344 154.08072 
L 197.03883 153.847544 
L 197.909801 153.753939 
L 198.345287 153.975415 
L 198.780773 153.846708 
L 199.651744 153.272126 
L 200.522715 153.05274 
L 200.958201 152.151378 
L 201.393686 151.868474 
L 201.829172 152.871799 
L 202.700143 152.809953 
L 203.135629 152.475651 
L 203.571115 152.576777 
L 204.442086 152.395001 
L 204.877572 152.201523 
L 205.748543 152.182719 
L 206.619514 151.715113 
L 207.490485 152.003867 
L 207.925971 153.162224 
L 208.361457 153.058591 
L 208.796942 154.535789 
L 210.103399 154.488151 
L 210.538885 155.429212 
L 211.409856 155.387424 
L 212.280827 155.462224 
L 212.716313 155.184335 
L 214.458256 155.176814 
L 214.893741 154.761861 
L 215.329227 154.718819 
L 216.200198 154.904357 
L 217.071169 154.656556 
L 217.506655 154.03935 
L 218.377626 153.891839 
L 219.248598 153.762715 
L 220.99054 153.048144 
L 221.426026 153.363224 
L 222.296997 152.464368 
L 222.732483 152.483173 
L 223.603454 152.288442 
L 224.03894 152.252504 
L 224.474425 152.015567 
L 225.780882 151.821254 
L 226.651854 151.545873 
L 227.087339 151.685862 
L 227.522825 151.356156 
L 227.958311 151.837551 
L 228.393796 151.442239 
L 228.829282 151.452268 
L 229.264767 150.119656 
L 230.571224 150.0085 
L 231.00671 150.574307 
L 231.442196 150.37289 
L 232.313167 146.99184 
L 233.619624 144.518003 
L 234.055109 145.136044 
L 234.490595 146.312788 
L 234.926081 146.362934 
L 235.361566 146.291476 
L 235.797052 147.308591 
L 236.232538 147.394674 
L 237.538995 148.173181 
L 238.409966 148.301051 
L 238.845452 148.711825 
L 239.280937 148.807937 
L 240.151908 148.479485 
L 240.587394 148.514169 
L 241.02288 148.843039 
L 241.458365 148.958373 
L 241.893851 148.836771 
L 242.329337 148.845964 
L 242.764822 148.710989 
L 243.635794 148.709736 
L 244.071279 149.215368 
L 244.506765 149.464005 
L 244.942251 149.464423 
L 245.813222 149.204085 
L 246.248707 148.987624 
L 246.684193 150.466912 
L 247.99065 150.885208 
L 249.732593 150.565531 
L 250.168078 150.334027 
L 250.603564 150.271763 
L 251.039049 150.334863 
L 252.345506 149.90027 
L 252.780992 149.451051 
L 253.216478 149.462752 
L 253.651963 149.090422 
L 254.522935 148.900706 
L 254.95842 148.953358 
L 255.393906 149.736879 
L 255.829392 149.711807 
L 256.264877 149.44144 
L 257.135848 149.196981 
L 258.00682 149.324016 
L 258.442305 149.058246 
L 259.748762 148.755702 
L 260.619734 148.61237 
L 261.055219 148.749852 
L 261.490705 148.471963 
L 262.361676 148.830502 
L 262.797162 148.593566 
L 263.232647 149.210771 
L 263.668133 149.30563 
L 264.103619 149.235008 
L 264.539104 150.252959 
L 265.410076 150.720564 
L 265.845561 150.671672 
L 266.281047 150.175233 
L 267.152018 150.206992 
L 267.587504 149.983845 
L 268.022989 149.964205 
L 268.458475 151.078685 
L 268.893961 151.381229 
L 269.764932 151.393765 
L 271.071389 151.227032 
L 271.506875 151.386243 
L 271.94236 150.723489 
L 272.377846 150.373307 
L 272.813332 150.217857 
L 273.248817 149.812515 
L 273.684303 150.027305 
L 274.119788 150.028976 
L 274.555274 149.919492 
L 274.99076 150.047781 
L 275.426245 149.970055 
L 276.297217 149.522508 
L 276.732702 149.790368 
L 277.168188 149.888569 
L 278.039159 149.554685 
L 278.474645 149.502032 
L 278.910131 149.2839 
L 279.345616 149.37249 
L 279.781102 148.752359 
L 280.216587 148.718093 
L 280.652073 148.450234 
L 281.087559 148.867694 
L 281.523044 148.562643 
L 281.95853 148.480321 
L 282.394016 148.03152 
L 282.829501 147.38172 
L 283.264987 147.202032 
L 283.700473 147.20454 
L 284.135958 147.371691 
L 284.571444 147.337425 
L 285.00693 147.512098 
L 285.442415 147.455266 
L 285.877901 148.10632 
L 286.313386 148.296872 
L 287.184358 148.184881 
L 287.619843 148.165659 
L 288.055329 146.974289 
L 288.490815 146.762843 
L 288.9263 146.4089 
L 289.797272 146.416004 
L 290.232757 146.352905 
L 291.539214 146.471164 
L 291.9747 146.041168 
L 293.281157 146.144383 
L 293.716642 145.962607 
L 294.152128 145.946727 
L 294.587614 145.696836 
L 295.458585 145.670928 
L 296.329556 145.821364 
L 297.636013 145.93837 
L 298.506984 145.708119 
L 299.377956 145.565205 
L 299.813441 146.149398 
L 300.684413 146.148144 
L 301.119898 145.863987 
L 301.555384 145.367131 
L 301.99087 145.36337 
L 302.426355 145.77874 
L 302.861841 145.767458 
L 303.732812 145.316985 
L 304.603783 145.567712 
L 305.474755 145.595292 
L 305.91024 145.982665 
L 306.345726 145.853123 
L 307.216697 146.277269 
L 307.652183 146.136862 
L 308.087668 146.28479 
L 308.523154 146.568529 
L 308.95864 146.321564 
L 309.394125 145.842676 
L 311.571554 146.070837 
L 312.007039 145.738206 
L 312.442525 145.871927 
L 312.878011 145.785844 
L 313.313496 145.977232 
L 313.748982 145.817185 
L 314.184467 147.205793 
L 315.490924 146.725652 
L 315.92641 146.790841 
L 316.361896 147.167766 
L 317.232867 150.732265 
L 317.668353 150.712206 
L 318.103838 151.084536 
L 318.539324 151.89898 
L 319.410295 151.270909 
L 319.845781 150.994692 
L 320.716752 149.822962 
L 321.587723 149.72685 
L 322.458695 149.273871 
L 322.89418 149.173998 
L 323.765152 149.275542 
L 324.200637 148.937479 
L 324.636123 149.149761 
L 325.071608 149.146836 
L 325.507094 149.289332 
L 325.94258 149.083736 
L 326.813551 149.017712 
L 327.249037 148.745255 
L 327.684522 149.079975 
L 328.555494 149.065768 
L 328.990979 148.86644 
L 329.426465 148.857247 
L 329.861951 148.586462 
L 331.168407 148.817966 
L 331.603893 148.720183 
L 332.039379 148.78955 
L 332.474864 148.184045 
L 332.91035 147.077087 
L 333.345836 146.995601 
L 334.216807 147.183646 
L 334.652293 147.098399 
L 335.087778 146.884445 
L 335.523264 147.045746 
L 335.95875 146.846418 
L 336.394235 147.080012 
L 336.829721 147.041985 
L 337.265206 146.866894 
L 337.700692 147.285608 
L 338.136178 146.999779 
L 338.571663 145.975561 
L 339.007149 146.014006 
L 339.442635 145.818439 
L 342.491034 146.424362 
L 342.92652 146.372127 
L 344.232977 146.642912 
L 344.668462 146.582737 
L 345.103948 146.804213 
L 345.539434 146.555993 
L 345.974919 146.561843 
L 346.410405 146.432719 
L 346.845891 146.477432 
L 347.281376 146.36753 
L 347.716862 146.503341 
L 348.152347 145.722745 
L 348.587833 145.620783 
L 349.458804 146.148562 
L 350.329776 145.669256 
L 350.765261 145.649616 
L 351.200747 146.063733 
L 351.636233 146.05454 
L 352.507204 146.481611 
L 353.813661 146.492476 
L 354.684632 146.187007 
L 355.991089 145.851451 
L 356.426575 144.483737 
L 357.297546 145.065423 
L 357.733032 145.156938 
L 358.168517 145.474525 
L 358.604003 144.208355 
L 359.039488 144.102214 
L 359.91046 144.270201 
L 360.345945 144.084663 
L 360.781431 144.228413 
L 361.216917 144.249307 
L 361.652402 143.538497 
L 362.523374 141.181666 
L 364.265316 136.782248 
L 364.700802 136.281212 
L 365.136287 134.759719 
L 365.571773 134.795239 
L 366.007259 134.685337 
L 366.442744 135.049726 
L 366.87823 135.155449 
L 367.313716 135.472201 
L 367.749201 136.272019 
L 369.055658 136.228977 
L 369.491144 136.452124 
L 369.92663 136.289152 
L 370.362115 135.961118 
L 370.797601 136.193876 
L 371.233086 136.189279 
L 371.668572 136.45296 
L 372.104058 135.49602 
L 372.539543 135.503542 
L 372.975029 136.877106 
L 373.410515 135.821129 
L 373.846 135.921001 
L 374.281486 135.758029 
L 375.152457 135.796892 
L 375.587943 135.253651 
L 376.458914 135.2361 
L 376.8944 135.549926 
L 377.329885 135.378178 
L 377.765371 134.811536 
L 378.200857 134.55663 
L 379.071828 134.776852 
L 379.507314 134.650653 
L 379.942799 134.658175 
L 380.378285 134.474726 
L 380.813771 134.533647 
L 381.684742 134.085682 
L 382.120227 133.907666 
L 382.991199 134.107829 
L 383.426684 133.676162 
L 384.733141 133.119966 
L 385.168627 133.217332 
L 385.604113 133.021765 
L 386.039598 132.996692 
L 386.475084 133.301743 
L 387.346055 133.375707 
L 387.781541 133.569603 
L 389.523483 133.423345 
L 389.958969 133.675744 
L 390.394455 133.634792 
L 391.265426 133.280013 
L 392.136397 133.20396 
L 392.571883 133.346874 
L 393.007369 133.168858 
L 393.87834 130.534138 
L 394.313825 130.906467 
L 394.749311 130.65783 
L 395.184797 130.672456 
L 395.620282 130.804505 
L 396.491254 130.78779 
L 396.926739 131.106213 
L 397.797711 130.823727 
L 399.539653 131.057321 
L 400.410624 130.832921 
L 400.84611 130.853815 
L 401.281596 130.507812 
L 401.717081 130.00594 
L 402.152567 129.933647 
L 402.152567 129.933647 
" clip-path="url(#p3c9dcd165b)" style="fill: none; stroke: #2ca02c; stroke-opacity: 0.8; stroke-width: 1.5; stroke-linecap: square"/>
   </g>
   <g id="line2d_21">
    <path d="M 146.957981 230.961054 
L 149.135409 227.935618 
L 149.570895 227.640596 
L 150.877352 226.030513 
L 151.748323 224.786908 
L 152.619295 223.732185 
L 153.05478 222.815778 
L 153.490266 221.600172 
L 156.10318 217.82757 
L 157.409637 215.568105 
L 157.845122 214.708112 
L 158.280608 214.189108 
L 158.716094 213.444449 
L 159.151579 212.16825 
L 160.022551 210.670576 
L 161.329007 208.847793 
L 162.635464 206.952299 
L 163.07095 205.531096 
L 163.941921 203.826572 
L 164.812893 202.08235 
L 166.119349 200.145068 
L 166.554835 199.287165 
L 166.990321 196.667071 
L 167.861292 194.838437 
L 168.732263 193.492035 
L 169.167749 192.674248 
L 170.03872 190.205008 
L 170.909692 188.322886 
L 171.345177 186.000321 
L 171.780663 185.05717 
L 172.216148 183.631789 
L 173.522605 180.883406 
L 175.264548 176.410024 
L 176.571005 173.476521 
L 177.006491 172.537549 
L 177.441976 171.900704 
L 178.312947 170.196598 
L 179.619404 167.893255 
L 180.490376 166.218818 
L 180.925861 164.568619 
L 181.796833 162.8198 
L 182.232318 161.172525 
L 183.103289 159.650614 
L 183.538775 158.502703 
L 184.845232 156.327649 
L 185.280718 155.363605 
L 185.716203 154.692493 
L 190.506545 144.534718 
L 190.942031 143.183301 
L 192.248488 140.821873 
L 192.683974 139.785118 
L 194.861402 136.022128 
L 195.296887 135.199326 
L 195.732373 133.531576 
L 197.03883 130.809519 
L 197.474316 129.13759 
L 198.345287 127.537118 
L 198.780773 125.23879 
L 199.216258 124.447329 
L 200.522715 121.484157 
L 200.958201 119.722384 
L 202.264658 116.927617 
L 202.700143 116.412791 
L 206.619514 108.137974 
L 207.925971 105.654526 
L 209.667914 101.938338 
L 210.103399 101.644987 
L 211.409856 98.641281 
L 212.280827 96.683524 
L 212.716313 94.805998 
L 213.587284 92.972768 
L 214.458256 91.575385 
L 215.329227 89.871697 
L 216.635684 88.287522 
L 217.071169 87.780218 
L 217.506655 86.452202 
L 218.377626 85.954092 
L 218.813112 85.776911 
L 219.248598 85.053983 
L 221.426026 82.881436 
L 221.861512 82.047769 
L 222.296997 80.577675 
L 222.732483 80.332799 
L 223.167968 79.899877 
L 223.603454 79.640375 
L 224.03894 78.366265 
L 224.474425 77.927076 
L 224.909911 75.91959 
L 225.345397 75.545172 
L 226.216368 74.098061 
L 227.087339 73.452439 
L 227.522825 72.614594 
L 228.393796 69.446244 
L 229.264767 68.717047 
L 229.700253 67.050551 
L 230.135739 65.847898 
L 230.571224 65.322626 
L 231.00671 63.786924 
L 231.877681 62.710889 
L 233.184138 61.431347 
L 233.619624 61.228258 
L 234.055109 60.771518 
L 234.490595 60.73767 
L 234.926081 60.938251 
L 236.668023 60.178967 
L 237.103509 59.117139 
L 237.538995 59.084963 
L 237.97448 59.306856 
L 238.409966 59.951224 
L 238.845452 59.790758 
L 239.280937 59.82001 
L 239.716423 59.708854 
L 240.151908 59.743538 
L 240.587394 59.588088 
L 241.02288 59.691721 
L 241.458365 59.469828 
L 242.329337 59.725569 
L 242.764822 59.46356 
L 243.200308 59.013923 
L 243.635794 58.843011 
L 244.071279 59.448099 
L 244.506765 59.626115 
L 244.942251 59.611907 
L 245.377736 59.270083 
L 245.813222 59.166449 
L 246.248707 58.900679 
L 246.684193 58.95751 
L 247.555164 58.592703 
L 247.99065 59.421354 
L 248.426136 59.448516 
L 248.861621 58.128022 
L 249.297107 58.515395 
L 249.732593 58.528349 
L 250.603564 58.34114 
L 251.474535 58.554676 
L 251.910021 60.394174 
L 252.345506 60.492375 
L 252.780992 60.842139 
L 253.651963 60.682928 
L 254.087449 60.902731 
L 254.522935 61.6336 
L 254.95842 62.104966 
L 255.829392 62.555856 
L 256.264877 64.320554 
L 256.700363 64.649842 
L 257.135848 65.445064 
L 257.571334 64.340613 
L 258.442305 64.766848 
L 258.877791 64.497317 
L 259.748762 64.850006 
L 260.184248 65.340594 
L 260.619734 64.795264 
L 261.055219 64.572117 
L 261.490705 64.618501 
L 261.926191 64.782727 
L 262.361676 64.471826 
L 262.797162 63.495664 
L 263.232647 63.259563 
L 263.668133 61.361143 
L 264.103619 60.313524 
L 265.410076 60.513269 
L 265.845561 61.46227 
L 266.716533 61.961634 
L 267.152018 62.973316 
L 268.022989 63.032655 
L 268.458475 63.591358 
L 268.893961 63.939032 
L 269.329446 63.915213 
L 269.764932 63.654875 
L 270.200418 63.827876 
L 271.071389 63.865903 
L 271.506875 63.899751 
L 272.377846 64.653603 
L 274.119788 65.155474 
L 274.555274 65.702477 
L 274.99076 65.962397 
L 275.426245 66.028003 
L 275.861731 66.740067 
L 276.732702 66.865013 
L 277.168188 66.817793 
L 277.603674 67.010016 
L 278.039159 66.997898 
L 278.474645 67.302531 
L 278.910131 67.283309 
L 279.345616 67.506873 
L 279.781102 67.310053 
L 280.216587 67.277458 
L 280.652073 68.14748 
L 281.087559 68.485543 
L 281.523044 68.61216 
L 281.95853 68.89966 
L 282.394016 69.495136 
L 283.264987 69.684017 
L 283.700473 71.541902 
L 284.135958 71.673116 
L 285.00693 72.571971 
L 285.442415 70.915085 
L 285.877901 71.484653 
L 286.313386 71.765049 
L 287.184358 70.882073 
L 288.9263 71.264431 
L 289.797272 71.484653 
L 290.668243 72.06007 
L 291.103728 72.136124 
L 291.539214 72.398134 
L 291.9747 71.488831 
L 293.281157 71.736633 
L 295.023099 72.330855 
L 295.458585 72.70611 
L 295.894071 72.727421 
L 296.329556 73.053784 
L 296.765042 73.607472 
L 297.200527 73.912105 
L 297.636013 75.108489 
L 298.071499 75.336651 
L 299.813441 75.432345 
L 300.248927 75.405183 
L 300.684413 75.489594 
L 301.119898 76.054983 
L 301.555384 76.379674 
L 303.297326 76.921661 
L 304.603783 77.861469 
L 305.474755 78.331581 
L 305.91024 78.557653 
L 306.345726 78.644572 
L 306.781212 78.890284 
L 307.216697 79.896534 
L 308.523154 80.337395 
L 308.95864 81.729346 
L 309.394125 81.953747 
L 309.829611 83.601857 
L 310.265097 83.428438 
L 310.700582 83.919862 
L 311.571554 84.51701 
L 312.007039 84.667028 
L 312.442525 85.174749 
L 312.878011 86.193536 
L 313.313496 86.758924 
L 314.184467 87.211486 
L 314.619953 88.534069 
L 315.055439 89.344753 
L 315.490924 89.643117 
L 315.92641 91.123659 
L 316.361896 91.430381 
L 316.797381 91.593353 
L 317.232867 91.967772 
L 317.668353 90.737539 
L 318.539324 91.315047 
L 318.97481 91.215174 
L 319.410295 89.931871 
L 320.716752 89.607598 
L 321.152238 89.753855 
L 321.587723 89.758452 
L 322.458695 87.178892 
L 322.89418 86.778147 
L 324.636123 86.178074 
L 326.378065 85.926094 
L 327.249037 85.804491 
L 327.684522 85.521588 
L 328.120008 85.867591 
L 328.555494 85.961195 
L 328.990979 85.271697 
L 329.861951 84.977511 
L 330.297436 85.076548 
L 330.732922 84.861759 
L 331.168407 84.97375 
L 331.603893 84.78069 
L 332.91035 84.880145 
L 333.345836 84.717173 
L 333.781321 85.240356 
L 334.652293 84.838358 
L 335.523264 85.176003 
L 335.95875 84.918172 
L 336.829721 84.058598 
L 337.265206 83.903147 
L 337.700692 83.56592 
L 338.136178 83.610215 
L 338.571663 83.830018 
L 339.442635 83.576366 
L 339.87812 83.199859 
L 340.313606 83.007217 
L 341.184577 82.890211 
L 342.055548 82.722224 
L 342.491034 84.007199 
L 343.362005 83.911087 
L 343.797491 84.555036 
L 344.232977 84.393318 
L 344.668462 83.609379 
L 345.103948 83.226185 
L 345.539434 83.941174 
L 345.974919 84.415047 
L 346.410405 83.954964 
L 347.281376 83.741846 
L 347.716862 84.684579 
L 348.152347 85.010523 
L 348.587833 86.637322 
L 349.023319 87.77186 
L 349.89429 87.908506 
L 351.200747 87.501075 
L 351.636233 87.455527 
L 352.507204 86.379909 
L 353.378175 86.179746 
L 353.813661 84.092864 
L 354.249146 84.179364 
L 354.684632 84.473132 
L 355.120118 83.84339 
L 355.555603 83.776948 
L 356.426575 80.940811 
L 356.86206 80.658325 
L 357.297546 80.567228 
L 357.733032 80.011868 
L 358.168517 80.225822 
L 358.604003 79.850985 
L 359.039488 79.842628 
L 359.474974 78.728147 
L 360.781431 78.883598 
L 361.652402 75.523024 
L 362.087888 75.693518 
L 362.523374 75.627494 
L 362.958859 74.93507 
L 363.394345 74.00571 
L 363.829831 73.920463 
L 364.265316 73.687705 
L 365.136287 74.035797 
L 366.007259 73.892465 
L 366.442744 73.478766 
L 366.87823 73.365103 
L 367.313716 73.828112 
L 367.749201 73.72406 
L 368.184687 73.4562 
L 368.620173 71.816448 
L 369.055658 71.806836 
L 369.491144 71.132799 
L 369.92663 71.021226 
L 370.362115 72.663068 
L 370.797601 73.027458 
L 371.233086 71.077222 
L 372.104058 68.595445 
L 372.539543 63.030983 
L 372.975029 62.452223 
L 374.281486 58.65037 
L 375.152457 55.919956 
L 375.587943 55.31654 
L 376.023428 55.328659 
L 376.458914 55.114705 
L 376.8944 55.500406 
L 377.329885 55.731911 
L 377.765371 55.696391 
L 378.200857 55.810054 
L 379.507314 55.65126 
L 380.378285 55.03489 
L 380.813771 55.159 
L 381.249256 55.025697 
L 381.684742 54.730257 
L 382.120227 52.019066 
L 382.555713 51.764996 
L 382.991199 51.683092 
L 383.426684 50.800116 
L 383.86217 49.269012 
L 384.297656 48.394393 
L 384.733141 48.062598 
L 385.168627 47.993648 
L 385.604113 47.470047 
L 386.039598 46.451261 
L 386.91057 46.307511 
L 387.346055 47.236454 
L 388.217026 47.310418 
L 388.652512 47.089361 
L 389.087998 47.294539 
L 389.523483 47.283256 
L 389.958969 46.411563 
L 390.394455 46.323391 
L 390.82994 45.931421 
L 391.265426 46.044666 
L 391.700912 46.009564 
L 392.136397 46.167522 
L 392.571883 45.758838 
L 393.442854 45.691559 
L 393.87834 45.357257 
L 394.313825 45.366868 
L 394.749311 44.516905 
L 395.184797 44.863325 
L 395.620282 44.903859 
L 396.055768 44.529859 
L 396.491254 44.569975 
L 397.362225 44.138725 
L 397.797711 44.170484 
L 398.233196 45.110291 
L 399.104167 43.709147 
L 399.539653 43.463017 
L 400.410624 38.288435 
L 400.84611 36.703424 
L 401.717081 35.11131 
L 402.152567 34.990125 
L 402.152567 34.990125 
" clip-path="url(#p3c9dcd165b)" style="fill: none; stroke: #d62728; stroke-opacity: 0.8; stroke-width: 1.5; stroke-linecap: square"/>
   </g>
   <g id="line2d_22">
    <path d="M 146.957981 230.531057 
L 147.393467 231.237271 
L 148.699924 231.045047 
L 149.135409 231.301206 
L 150.006381 231.180022 
L 150.441866 231.248554 
L 151.748323 231.129041 
L 153.05478 231.166232 
L 153.490266 231.159128 
L 153.925752 230.875389 
L 154.796723 230.892104 
L 156.10318 230.70573 
L 156.538665 230.594575 
L 156.974151 229.807293 
L 157.409637 229.747536 
L 157.845122 229.496392 
L 158.280608 229.394847 
L 158.716094 229.786399 
L 160.022551 229.744611 
L 160.458036 229.883765 
L 160.893522 230.200934 
L 161.764493 230.185472 
L 162.199979 230.818975 
L 163.941921 230.770501 
L 166.119349 230.487598 
L 166.554835 229.808129 
L 167.861292 229.929313 
L 168.296778 230.193412 
L 169.167749 230.029186 
L 169.603235 230.054259 
L 170.474206 229.945611 
L 171.345177 230.019575 
L 175.264548 229.717449 
L 175.700034 229.609219 
L 176.135519 229.979459 
L 178.312947 229.954804 
L 178.748433 230.019157 
L 180.05489 229.8729 
L 189.200088 229.61883 
L 189.635574 230.335491 
L 190.07106 230.280331 
L 191.377517 230.404858 
L 192.683974 230.307075 
L 193.990431 230.377696 
L 194.425916 230.004531 
L 195.296887 229.902569 
L 197.909801 229.83153 
L 198.780773 229.892958 
L 201.829172 230.065959 
L 202.700143 229.958565 
L 204.442086 230.059691 
L 206.184028 230.023754 
L 206.619514 230.106493 
L 208.796942 230.003278 
L 209.232428 230.251497 
L 210.103399 230.225589 
L 210.538885 229.890451 
L 210.974371 229.772609 
L 211.409856 228.913452 
L 213.151799 228.842413 
L 213.587284 228.341795 
L 216.635684 228.35266 
L 217.071169 228.668576 
L 218.813112 228.42161 
L 219.248598 228.536944 
L 220.99054 228.429968 
L 221.861512 228.273681 
L 224.03894 228.212253 
L 224.474425 227.49601 
L 226.651854 227.307965 
L 227.958311 227.15544 
L 228.393796 227.236926 
L 228.829282 227.049299 
L 229.264767 226.645211 
L 230.135739 226.480149 
L 232.313167 226.373173 
L 233.184138 226.180949 
L 233.619624 226.104059 
L 234.926081 226.217722 
L 235.797052 226.122028 
L 238.409966 225.771429 
L 238.845452 226.004186 
L 239.716423 225.833692 
L 241.458365 225.852497 
L 241.893851 226.488089 
L 242.329337 226.4977 
L 242.764822 226.648972 
L 243.635794 226.559128 
L 248.426136 225.942341 
L 251.039049 225.823245 
L 251.474535 226.485164 
L 253.216478 226.260764 
L 254.087449 226.363561 
L 254.522935 226.255331 
L 254.95842 225.498136 
L 255.393906 225.4856 
L 255.829392 225.322628 
L 256.264877 224.403714 
L 256.700363 224.314288 
L 257.135848 224.378224 
L 258.00682 224.204387 
L 258.442305 224.078187 
L 260.184248 224.073173 
L 262.361676 224.025117 
L 265.845561 223.761854 
L 268.022989 220.761909 
L 269.329446 219.465652 
L 270.200418 218.69007 
L 270.635903 218.051553 
L 271.071389 217.619049 
L 271.506875 216.935401 
L 271.94236 216.492868 
L 272.377846 215.086709 
L 272.813332 214.577316 
L 273.248817 213.744904 
L 273.684303 213.202498 
L 274.119788 212.220067 
L 276.297217 209.687727 
L 276.732702 207.760893 
L 277.168188 207.269468 
L 277.603674 206.48929 
L 278.910131 204.834076 
L 279.345616 204.643524 
L 279.781102 204.282059 
L 281.087559 201.952808 
L 281.95853 200.95408 
L 282.394016 200.502772 
L 283.700473 198.398757 
L 284.135958 197.562165 
L 287.619843 193.035712 
L 288.490815 191.646268 
L 289.797272 190.176592 
L 291.9747 186.725339 
L 292.410185 186.2406 
L 293.281157 184.862439 
L 293.716642 184.106498 
L 294.152128 183.708678 
L 295.023099 182.399885 
L 295.458585 182.203482 
L 295.894071 181.683642 
L 296.329556 181.972396 
L 297.636013 180.297541 
L 298.071499 179.738421 
L 298.506984 179.486858 
L 298.94247 178.913948 
L 299.377956 177.877611 
L 301.119898 175.419653 
L 301.555384 174.6307 
L 301.99087 173.139294 
L 304.168298 169.850177 
L 304.603783 168.419363 
L 305.039269 165.983553 
L 305.474755 165.45243 
L 306.345726 164.160352 
L 306.781212 162.8198 
L 308.087668 160.809807 
L 308.523154 159.695327 
L 308.95864 159.175069 
L 309.394125 159.01544 
L 309.829611 158.04262 
L 311.136068 156.35105 
L 311.571554 155.574633 
L 312.007039 155.033064 
L 312.442525 154.075705 
L 314.184467 151.688787 
L 315.490924 150.115059 
L 316.361896 148.611117 
L 316.797381 147.601106 
L 317.232867 145.796291 
L 320.716752 140.096019 
L 321.152238 139.416132 
L 321.587723 137.136608 
L 322.89418 135.253651 
L 323.329666 134.68074 
L 323.765152 133.774363 
L 324.200637 133.255776 
L 324.636123 132.549145 
L 325.071608 131.381176 
L 325.94258 129.860101 
L 326.378065 128.676253 
L 326.813551 128.115461 
L 327.249037 127.358684 
L 328.120008 126.237518 
L 328.555494 124.042405 
L 330.297436 121.450309 
L 330.732922 120.655505 
L 334.216807 116.065535 
L 334.652293 115.376872 
L 335.087778 113.159612 
L 335.523264 112.424983 
L 336.829721 110.755979 
L 337.265206 110.066062 
L 337.700692 109.595114 
L 338.571663 108.104544 
L 339.007149 107.649892 
L 339.442635 106.976691 
L 339.87812 106.947022 
L 340.313606 106.275074 
L 340.749092 105.844242 
L 341.184577 106.26797 
L 341.620063 105.395441 
L 342.92652 103.915736 
L 343.362005 102.009377 
L 343.797491 101.347041 
L 344.232977 99.756597 
L 346.410405 96.13485 
L 347.716862 94.010777 
L 348.152347 92.0292 
L 349.023319 90.2925 
L 349.89429 88.713339 
L 350.329776 87.294226 
L 350.765261 86.927329 
L 351.636233 86.63774 
L 352.071718 86.424204 
L 352.507204 86.410832 
L 352.94269 86.269171 
L 353.378175 85.48189 
L 355.120118 84.370752 
L 356.86206 83.755636 
L 357.297546 84.370752 
L 358.604003 84.28843 
L 359.039488 84.555872 
L 359.91046 84.202765 
L 360.345945 83.883089 
L 360.781431 83.850076 
L 361.216917 83.54419 
L 361.652402 84.730963 
L 362.087888 84.541246 
L 362.523374 84.683743 
L 362.958859 84.691265 
L 363.394345 84.315175 
L 363.829831 84.303474 
L 365.136287 82.733507 
L 365.571773 82.656617 
L 367.749201 81.07871 
L 368.620173 81.087486 
L 369.055658 81.410923 
L 369.491144 81.145989 
L 369.92663 81.235415 
L 370.362115 80.850967 
L 372.104058 80.199078 
L 372.539543 79.84806 
L 372.975029 80.072043 
L 373.410515 79.970081 
L 373.846 79.607363 
L 374.281486 79.641629 
L 374.716972 77.484543 
L 375.152457 77.520898 
L 375.587943 77.173642 
L 376.023428 77.187014 
L 376.8944 77.368791 
L 377.329885 77.226712 
L 378.200857 77.318228 
L 378.636342 76.75451 
L 379.507314 76.405164 
L 379.942799 76.477875 
L 380.378285 76.087159 
L 380.813771 76.090502 
L 381.249256 74.473315 
L 382.120227 73.981473 
L 382.555713 73.780891 
L 383.86217 73.6689 
L 384.297656 74.080092 
L 385.168627 74.037886 
L 385.604113 73.700659 
L 386.475084 73.736179 
L 386.91057 74.361742 
L 387.346055 74.235543 
L 387.781541 74.23011 
L 388.217026 73.980219 
L 388.652512 74.024932 
L 389.087998 73.844409 
L 389.523483 74.517192 
L 389.958969 76.207508 
L 390.82994 75.827657 
L 391.265426 75.711069 
L 391.700912 76.424387 
L 392.136397 76.321171 
L 392.571883 76.33705 
L 393.007369 76.521334 
L 393.442854 76.049968 
L 393.87834 75.7445 
L 394.313825 75.78378 
L 394.749311 75.950513 
L 395.184797 75.574423 
L 395.620282 75.624986 
L 396.055768 75.330383 
L 396.491254 75.490012 
L 397.362225 74.81305 
L 398.233196 74.973097 
L 398.668682 74.8937 
L 399.104167 75.242628 
L 399.539653 75.270208 
L 399.975139 75.027839 
L 400.410624 74.064631 
L 400.84611 73.901658 
L 401.281596 73.903748 
L 401.717081 73.34003 
L 402.152567 74.187487 
L 402.152567 74.187487 
" clip-path="url(#p3c9dcd165b)" style="fill: none; stroke: #9467bd; stroke-opacity: 0.8; stroke-width: 1.5; stroke-linecap: square"/>
   </g>
   <g id="patch_3">
    <path d="M 62.038281 288.430125 
L 62.038281 22.318125 
" style="fill: none; stroke: #000000; stroke-width: 0.8; stroke-linejoin: miter; stroke-linecap: square"/>
   </g>
   <g id="patch_4">
    <path d="M 419.158281 288.430125 
L 419.158281 22.318125 
" style="fill: none; stroke: #000000; stroke-width: 0.8; stroke-linejoin: miter; stroke-linecap: square"/>
   </g>
   <g id="patch_5">
    <path d="M 62.038281 288.430125 
L 419.158281 288.430125 
" style="fill: none; stroke: #000000; stroke-width: 0.8; stroke-linejoin: miter; stroke-linecap: square"/>
   </g>
   <g id="patch_6">
    <path d="M 62.038281 22.318125 
L 419.158281 22.318125 
" style="fill: none; stroke: #000000; stroke-width: 0.8; stroke-linejoin: miter; stroke-linecap: square"/>
   </g>
   <g id="text_20">
    <!-- Get children [root] -->
    <g transform="translate(185.307344 16.318125) scale(0.12 -0.12)">
     <defs>
      <path id="DejaVuSans-2a" d="M 3809 666 
L 3809 1919 
L 2778 1919 
L 2778 2438 
L 4434 2438 
L 4434 434 
Q 4069 175 3628 42 
Q 3188 -91 2688 -91 
Q 1594 -91 976 548 
Q 359 1188 359 2328 
Q 359 3472 976 4111 
Q 1594 4750 2688 4750 
Q 3144 4750 3555 4637 
Q 3966 4525 4313 4306 
L 4313 3634 
Q 3963 3931 3569 4081 
Q 3175 4231 2741 4231 
Q 1884 4231 1454 3753 
Q 1025 3275 1025 2328 
Q 1025 1384 1454 906 
Q 1884 428 2741 428 
Q 3075 428 3337 486 
Q 3600 544 3809 666 
z
" transform="scale(0.015625)"/>
      <path id="DejaVuSans-4b" d="M 3513 2113 
L 3513 0 
L 2938 0 
L 2938 2094 
Q 2938 2591 2744 2837 
Q 2550 3084 2163 3084 
Q 1697 3084 1428 2787 
Q 1159 2491 1159 1978 
L 1159 0 
L 581 0 
L 581 4863 
L 1159 4863 
L 1159 2956 
Q 1366 3272 1645 3428 
Q 1925 3584 2291 3584 
Q 2894 3584 3203 3211 
Q 3513 2838 3513 2113 
z
" transform="scale(0.015625)"/>
      <path id="DejaVuSans-55" d="M 2631 2963 
Q 2534 3019 2420 3045 
Q 2306 3072 2169 3072 
Q 1681 3072 1420 2755 
Q 1159 2438 1159 1844 
L 1159 0 
L 581 0 
L 581 3500 
L 1159 3500 
L 1159 2956 
Q 1341 3275 1631 3429 
Q 1922 3584 2338 3584 
Q 2397 3584 2469 3576 
Q 2541 3569 2628 3553 
L 2631 2963 
z
" transform="scale(0.015625)"/>
      <path id="DejaVuSans-3e" d="M 550 4863 
L 1875 4863 
L 1875 4416 
L 1125 4416 
L 1125 -397 
L 1875 -397 
L 1875 -844 
L 550 -844 
L 550 4863 
z
" transform="scale(0.015625)"/>
      <path id="DejaVuSans-40" d="M 1947 4863 
L 1947 -844 
L 622 -844 
L 622 -397 
L 1369 -397 
L 1369 4416 
L 622 4416 
L 622 4863 
L 1947 4863 
z
" transform="scale(0.015625)"/>
     </defs>
     <use xlink:href="#DejaVuSans-2a"/>
     <use xlink:href="#DejaVuSans-48" transform="translate(77.484375 0)"/>
     <use xlink:href="#DejaVuSans-57" transform="translate(139.015625 0)"/>
     <use xlink:href="#DejaVuSans-3" transform="translate(178.21875 0)"/>
     <use xlink:href="#DejaVuSans-46" transform="translate(210 0)"/>
     <use xlink:href="#DejaVuSans-4b" transform="translate(264.984375 0)"/>
     <use xlink:href="#DejaVuSans-4c" transform="translate(328.359375 0)"/>
     <use xlink:href="#DejaVuSans-4f" transform="translate(356.140625 0)"/>
     <use xlink:href="#DejaVuSans-47" transform="translate(383.921875 0)"/>
     <use xlink:href="#DejaVuSans-55" transform="translate(447.40625 0)"/>
     <use xlink:href="#DejaVuSans-48" transform="translate(486.3125 0)"/>
     <use xlink:href="#DejaVuSans-51" transform="translate(547.84375 0)"/>
     <use xlink:href="#DejaVuSans-3" transform="translate(611.21875 0)"/>
     <use xlink:href="#DejaVuSans-3e" transform="translate(643 0)"/>
     <use xlink:href="#DejaVuSans-55" transform="translate(682.015625 0)"/>
     <use xlink:href="#DejaVuSans-52" transform="translate(720.921875 0)"/>
     <use xlink:href="#DejaVuSans-52" transform="translate(782.109375 0)"/>
     <use xlink:href="#DejaVuSans-57" transform="translate(843.296875 0)"/>
     <use xlink:href="#DejaVuSans-40" transform="translate(882.5 0)"/>
    </g>
   </g>
   <g id="legend_1">
    <g id="patch_7">
     <path d="M 93.035937 366.447687 
L 380.640625 366.447687 
Q 382.640625 366.447687 382.640625 364.447687 
L 382.640625 335.446125 
Q 382.640625 333.446125 380.640625 333.446125 
L 93.035937 333.446125 
Q 91.035937 333.446125 91.035937 335.446125 
L 91.035937 364.447687 
Q 91.035937 366.447687 93.035937 366.447687 
z
" style="fill: #4d4d4d; opacity: 0.5; stroke: #4d4d4d; stroke-linejoin: miter"/>
    </g>
    <g id="patch_8">
     <path d="M 91.035937 364.447687 
L 378.640625 364.447687 
Q 380.640625 364.447687 380.640625 362.447687 
L 380.640625 333.446125 
Q 380.640625 331.446125 378.640625 331.446125 
L 91.035937 331.446125 
Q 89.035937 331.446125 89.035937 333.446125 
L 89.035937 362.447687 
Q 89.035937 364.447687 91.035937 364.447687 
z
" style="fill: #ffffff; stroke: #cccccc; stroke-linejoin: miter"/>
    </g>
    <g id="line2d_23">
     <path d="M 93.035937 339.544562 
L 103.035937 339.544562 
L 113.035937 339.544562 
" style="fill: none; stroke: #1f77b4; stroke-opacity: 0.8; stroke-width: 1.5; stroke-linecap: square"/>
    </g>
    <g id="text_21">
     <!-- MPTT -->
     <g transform="translate(121.035937 343.044562) scale(0.1 -0.1)">
      <defs>
       <path id="DejaVuSans-30" d="M 628 4666 
L 1569 4666 
L 2759 1491 
L 3956 4666 
L 4897 4666 
L 4897 0 
L 4281 0 
L 4281 4097 
L 3078 897 
L 2444 897 
L 1241 4097 
L 1241 0 
L 628 0 
L 628 4666 
z
" transform="scale(0.015625)"/>
       <path id="DejaVuSans-33" d="M 1259 4147 
L 1259 2394 
L 2053 2394 
Q 2494 2394 2734 2622 
Q 2975 2850 2975 3272 
Q 2975 3691 2734 3919 
Q 2494 4147 2053 4147 
L 1259 4147 
z
M 628 4666 
L 2053 4666 
Q 2838 4666 3239 4311 
Q 3641 3956 3641 3272 
Q 3641 2581 3239 2228 
Q 2838 1875 2053 1875 
L 1259 1875 
L 1259 0 
L 628 0 
L 628 4666 
z
" transform="scale(0.015625)"/>
       <path id="DejaVuSans-37" d="M -19 4666 
L 3928 4666 
L 3928 4134 
L 2272 4134 
L 2272 0 
L 1638 0 
L 1638 4134 
L -19 4134 
L -19 4666 
z
" transform="scale(0.015625)"/>
      </defs>
      <use xlink:href="#DejaVuSans-30"/>
      <use xlink:href="#DejaVuSans-33" transform="translate(86.28125 0)"/>
      <use xlink:href="#DejaVuSans-37" transform="translate(146.578125 0)"/>
      <use xlink:href="#DejaVuSans-37" transform="translate(205.90625 0)"/>
     </g>
    </g>
    <g id="line2d_24">
     <path d="M 93.035937 354.545344 
L 103.035937 354.545344 
L 113.035937 354.545344 
" style="fill: none; stroke: #ff7f0e; stroke-opacity: 0.8; stroke-width: 1.5; stroke-linecap: square"/>
    </g>
    <g id="text_22">
     <!-- tree -->
     <g transform="translate(121.035937 358.045344) scale(0.1 -0.1)">
      <use xlink:href="#DejaVuSans-57"/>
      <use xlink:href="#DejaVuSans-55" transform="translate(39.203125 0)"/>
      <use xlink:href="#DejaVuSans-48" transform="translate(78.109375 0)"/>
      <use xlink:href="#DejaVuSans-48" transform="translate(139.640625 0)"/>
     </g>
    </g>
    <g id="line2d_25">
     <path d="M 167.734375 339.544562 
L 177.734375 339.544562 
L 187.734375 339.544562 
" style="fill: none; stroke: #2ca02c; stroke-opacity: 0.8; stroke-width: 1.5; stroke-linecap: square"/>
    </g>
    <g id="text_23">
     <!-- treebeard AL -->
     <g transform="translate(195.734375 343.044562) scale(0.1 -0.1)">
      <defs>
       <path id="DejaVuSans-2f" d="M 628 4666 
L 1259 4666 
L 1259 531 
L 3531 531 
L 3531 0 
L 628 0 
L 628 4666 
z
" transform="scale(0.015625)"/>
      </defs>
      <use xlink:href="#DejaVuSans-57"/>
      <use xlink:href="#DejaVuSans-55" transform="translate(39.203125 0)"/>
      <use xlink:href="#DejaVuSans-48" transform="translate(78.109375 0)"/>
      <use xlink:href="#DejaVuSans-48" transform="translate(139.640625 0)"/>
      <use xlink:href="#DejaVuSans-45" transform="translate(201.171875 0)"/>
      <use xlink:href="#DejaVuSans-48" transform="translate(264.65625 0)"/>
      <use xlink:href="#DejaVuSans-44" transform="translate(326.1875 0)"/>
      <use xlink:href="#DejaVuSans-55" transform="translate(387.46875 0)"/>
      <use xlink:href="#DejaVuSans-47" transform="translate(426.828125 0)"/>
      <use xlink:href="#DejaVuSans-3" transform="translate(490.3125 0)"/>
      <use xlink:href="#DejaVuSans-24" transform="translate(522.09375 0)"/>
      <use xlink:href="#DejaVuSans-2f" transform="translate(590.5 0)"/>
     </g>
    </g>
    <g id="line2d_26">
     <path d="M 167.734375 354.545344 
L 177.734375 354.545344 
L 187.734375 354.545344 
" style="fill: none; stroke: #d62728; stroke-opacity: 0.8; stroke-width: 1.5; stroke-linecap: square"/>
    </g>
    <g id="text_24">
     <!-- treebeard MP -->
     <g transform="translate(195.734375 358.045344) scale(0.1 -0.1)">
      <use xlink:href="#DejaVuSans-57"/>
      <use xlink:href="#DejaVuSans-55" transform="translate(39.203125 0)"/>
      <use xlink:href="#DejaVuSans-48" transform="translate(78.109375 0)"/>
      <use xlink:href="#DejaVuSans-48" transform="translate(139.640625 0)"/>
      <use xlink:href="#DejaVuSans-45" transform="translate(201.171875 0)"/>
      <use xlink:href="#DejaVuSans-48" transform="translate(264.65625 0)"/>
      <use xlink:href="#DejaVuSans-44" transform="translate(326.1875 0)"/>
      <use xlink:href="#DejaVuSans-55" transform="translate(387.46875 0)"/>
      <use xlink:href="#DejaVuSans-47" transform="translate(426.828125 0)"/>
      <use xlink:href="#DejaVuSans-3" transform="translate(490.3125 0)"/>
      <use xlink:href="#DejaVuSans-30" transform="translate(522.09375 0)"/>
      <use xlink:href="#DejaVuSans-33" transform="translate(608.375 0)"/>
     </g>
    </g>
    <g id="line2d_27">
     <path d="M 282.601562 339.544562 
L 292.601562 339.544562 
L 302.601562 339.544562 
" style="fill: none; stroke: #9467bd; stroke-opacity: 0.8; stroke-width: 1.5; stroke-linecap: square"/>
    </g>
    <g id="text_25">
     <!-- treebeard NS -->
     <g transform="translate(310.601562 343.044562) scale(0.1 -0.1)">
      <defs>
       <path id="DejaVuSans-31" d="M 628 4666 
L 1478 4666 
L 3547 763 
L 3547 4666 
L 4159 4666 
L 4159 0 
L 3309 0 
L 1241 3903 
L 1241 0 
L 628 0 
L 628 4666 
z
" transform="scale(0.015625)"/>
       <path id="DejaVuSans-36" d="M 3425 4513 
L 3425 3897 
Q 3066 4069 2747 4153 
Q 2428 4238 2131 4238 
Q 1616 4238 1336 4038 
Q 1056 3838 1056 3469 
Q 1056 3159 1242 3001 
Q 1428 2844 1947 2747 
L 2328 2669 
Q 3034 2534 3370 2195 
Q 3706 1856 3706 1288 
Q 3706 609 3251 259 
Q 2797 -91 1919 -91 
Q 1588 -91 1214 -16 
Q 841 59 441 206 
L 441 856 
Q 825 641 1194 531 
Q 1563 422 1919 422 
Q 2459 422 2753 634 
Q 3047 847 3047 1241 
Q 3047 1584 2836 1778 
Q 2625 1972 2144 2069 
L 1759 2144 
Q 1053 2284 737 2584 
Q 422 2884 422 3419 
Q 422 4038 858 4394 
Q 1294 4750 2059 4750 
Q 2388 4750 2728 4690 
Q 3069 4631 3425 4513 
z
" transform="scale(0.015625)"/>
      </defs>
      <use xlink:href="#DejaVuSans-57"/>
      <use xlink:href="#DejaVuSans-55" transform="translate(39.203125 0)"/>
      <use xlink:href="#DejaVuSans-48" transform="translate(78.109375 0)"/>
      <use xlink:href="#DejaVuSans-48" transform="translate(139.640625 0)"/>
      <use xlink:href="#DejaVuSans-45" transform="translate(201.171875 0)"/>
      <use xlink:href="#DejaVuSans-48" transform="translate(264.65625 0)"/>
      <use xlink:href="#DejaVuSans-44" transform="translate(326.1875 0)"/>
      <use xlink:href="#DejaVuSans-55" transform="translate(387.46875 0)"/>
      <use xlink:href="#DejaVuSans-47" transform="translate(426.828125 0)"/>
      <use xlink:href="#DejaVuSans-3" transform="translate(490.3125 0)"/>
      <use xlink:href="#DejaVuSans-31" transform="translate(522.09375 0)"/>
      <use xlink:href="#DejaVuSans-36" transform="translate(596.90625 0)"/>
     </g>
    </g>
   </g>
  </g>
 </g>
 <defs>
  <clipPath id="p3c9dcd165b">
   <rect x="62.038281" y="22.318125" width="357.12" height="266.112"/>
  </clipPath>
 </defs>
</svg>
