<?xml version="1.0" encoding="utf-8" standalone="no"?>
<!DOCTYPE svg PUBLIC "-//W3C//DTD SVG 1.1//EN"
  "http://www.w3.org/Graphics/SVG/1.1/DTD/svg11.dtd">
<svg xmlns:xlink="http://www.w3.org/1999/xlink" width="426.229375pt" height="371.002375pt" viewBox="0 0 426.229375 371.002375" xmlns="http://www.w3.org/2000/svg" version="1.1">
 <metadata>
  <rdf:RDF xmlns:dc="http://purl.org/dc/elements/1.1/" xmlns:cc="http://creativecommons.org/ns#" xmlns:rdf="http://www.w3.org/1999/02/22-rdf-syntax-ns#">
   <cc:Work>
    <dc:type rdf:resource="http://purl.org/dc/dcmitype/StillImage"/>
    <dc:date>2025-09-29T14:54:24.629403</dc:date>
    <dc:format>image/svg+xml</dc:format>
    <dc:creator>
     <cc:Agent>
      <dc:title>Matplotlib v3.10.6, https://matplotlib.org/</dc:title>
     </cc:Agent>
    </dc:creator>
   </cc:Work>
  </rdf:RDF>
 </metadata>
 <defs>
  <style type="text/css">*{stroke-linejoin: round; stroke-linecap: butt}</style>
 </defs>
 <g id="figure_1">
  <g id="patch_1">
   <path d="M 0 371.002375 
L 426.229375 371.002375 
L 426.229375 0 
L 0 0 
z
" style="fill: #ffffff"/>
  </g>
  <g id="axes_1">
   <g id="patch_2">
    <path d="M 61.909375 288.430125 
L 419.029375 288.430125 
L 419.029375 22.318125 
L 61.909375 22.318125 
z
" style="fill: #ffffff"/>
   </g>
   <g id="matplotlib.axis_1">
    <g id="xtick_1">
     <g id="line2d_1">
      <defs>
       <path id="m940c487fa6" d="M 0 0 
L 0 3.5 
" style="stroke: #000000; stroke-width: 0.8"/>
      </defs>
      <g>
       <use xlink:href="#m940c487fa6" x="61.909375" y="288.430125" style="stroke: #000000; stroke-width: 0.8"/>
      </g>
     </g>
     <g id="text_1">
      <!-- 0 -->
      <g transform="translate(58.728125 303.028562) scale(0.1 -0.1)">
       <defs>
        <path id="DejaVuSans-30" d="M 2034 4250 
Q 1547 4250 1301 3770 
Q 1056 3291 1056 2328 
Q 1056 1369 1301 889 
Q 1547 409 2034 409 
Q 2525 409 2770 889 
Q 3016 1369 3016 2328 
Q 3016 3291 2770 3770 
Q 2525 4250 2034 4250 
z
M 2034 4750 
Q 2819 4750 3233 4129 
Q 3647 3509 3647 2328 
Q 3647 1150 3233 529 
Q 2819 -91 2034 -91 
Q 1250 -91 836 529 
Q 422 1150 422 2328 
Q 422 3509 836 4129 
Q 1250 4750 2034 4750 
z
" transform="scale(0.015625)"/>
       </defs>
       <use xlink:href="#DejaVuSans-30"/>
      </g>
     </g>
    </g>
    <g id="xtick_2">
     <g id="line2d_2">
      <g>
       <use xlink:href="#m940c487fa6" x="105.457939" y="288.430125" style="stroke: #000000; stroke-width: 0.8"/>
      </g>
     </g>
     <g id="text_2">
      <!-- 500  -->
      <g transform="translate(94.325127 303.028562) scale(0.1 -0.1)">
       <defs>
        <path id="DejaVuSans-35" d="M 691 4666 
L 3169 4666 
L 3169 4134 
L 1269 4134 
L 1269 2991 
Q 1406 3038 1543 3061 
Q 1681 3084 1819 3084 
Q 2600 3084 3056 2656 
Q 3513 2228 3513 1497 
Q 3513 744 3044 326 
Q 2575 -91 1722 -91 
Q 1428 -91 1123 -41 
Q 819 9 494 109 
L 494 744 
Q 775 591 1075 516 
Q 1375 441 1709 441 
Q 2250 441 2565 725 
Q 2881 1009 2881 1497 
Q 2881 1984 2565 2268 
Q 2250 2553 1709 2553 
Q 1456 2553 1204 2497 
Q 953 2441 691 2322 
L 691 4666 
z
" transform="scale(0.015625)"/>
        <path id="DejaVuSans-20" transform="scale(0.015625)"/>
       </defs>
       <use xlink:href="#DejaVuSans-35"/>
       <use xlink:href="#DejaVuSans-30" transform="translate(63.623047 0)"/>
       <use xlink:href="#DejaVuSans-30" transform="translate(127.246094 0)"/>
       <use xlink:href="#DejaVuSans-20" transform="translate(190.869141 0)"/>
      </g>
     </g>
    </g>
    <g id="xtick_3">
     <g id="line2d_3">
      <g>
       <use xlink:href="#m940c487fa6" x="149.006503" y="288.430125" style="stroke: #000000; stroke-width: 0.8"/>
      </g>
     </g>
     <g id="text_3">
      <!-- 1 k -->
      <g transform="translate(141.340878 303.028562) scale(0.1 -0.1)">
       <defs>
        <path id="DejaVuSans-31" d="M 794 531 
L 1825 531 
L 1825 4091 
L 703 3866 
L 703 4441 
L 1819 4666 
L 2450 4666 
L 2450 531 
L 3481 531 
L 3481 0 
L 794 0 
L 794 531 
z
" transform="scale(0.015625)"/>
        <path id="DejaVuSans-6b" d="M 581 4863 
L 1159 4863 
L 1159 1991 
L 2875 3500 
L 3609 3500 
L 1753 1863 
L 3688 0 
L 2938 0 
L 1159 1709 
L 1159 0 
L 581 0 
L 581 4863 
z
" transform="scale(0.015625)"/>
       </defs>
       <use xlink:href="#DejaVuSans-31"/>
       <use xlink:href="#DejaVuSans-20" transform="translate(63.623047 0)"/>
       <use xlink:href="#DejaVuSans-6b" transform="translate(95.410156 0)"/>
      </g>
     </g>
    </g>
    <g id="xtick_4">
     <g id="line2d_4">
      <g>
       <use xlink:href="#m940c487fa6" x="192.555067" y="288.430125" style="stroke: #000000; stroke-width: 0.8"/>
      </g>
     </g>
     <g id="text_4">
      <!-- 1.5 k -->
      <g transform="translate(180.11913 303.028562) scale(0.1 -0.1)">
       <defs>
        <path id="DejaVuSans-2e" d="M 684 794 
L 1344 794 
L 1344 0 
L 684 0 
L 684 794 
z
" transform="scale(0.015625)"/>
       </defs>
       <use xlink:href="#DejaVuSans-31"/>
       <use xlink:href="#DejaVuSans-2e" transform="translate(63.623047 0)"/>
       <use xlink:href="#DejaVuSans-35" transform="translate(95.410156 0)"/>
       <use xlink:href="#DejaVuSans-20" transform="translate(159.033203 0)"/>
       <use xlink:href="#DejaVuSans-6b" transform="translate(190.820312 0)"/>
      </g>
     </g>
    </g>
    <g id="xtick_5">
     <g id="line2d_5">
      <g>
       <use xlink:href="#m940c487fa6" x="236.103631" y="288.430125" style="stroke: #000000; stroke-width: 0.8"/>
      </g>
     </g>
     <g id="text_5">
      <!-- 2 k -->
      <g transform="translate(228.438006 303.028562) scale(0.1 -0.1)">
       <defs>
        <path id="DejaVuSans-32" d="M 1228 531 
L 3431 531 
L 3431 0 
L 469 0 
L 469 531 
Q 828 903 1448 1529 
Q 2069 2156 2228 2338 
Q 2531 2678 2651 2914 
Q 2772 3150 2772 3378 
Q 2772 3750 2511 3984 
Q 2250 4219 1831 4219 
Q 1534 4219 1204 4116 
Q 875 4013 500 3803 
L 500 4441 
Q 881 4594 1212 4672 
Q 1544 4750 1819 4750 
Q 2544 4750 2975 4387 
Q 3406 4025 3406 3419 
Q 3406 3131 3298 2873 
Q 3191 2616 2906 2266 
Q 2828 2175 2409 1742 
Q 1991 1309 1228 531 
z
" transform="scale(0.015625)"/>
       </defs>
       <use xlink:href="#DejaVuSans-32"/>
       <use xlink:href="#DejaVuSans-20" transform="translate(63.623047 0)"/>
       <use xlink:href="#DejaVuSans-6b" transform="translate(95.410156 0)"/>
      </g>
     </g>
    </g>
    <g id="xtick_6">
     <g id="line2d_6">
      <g>
       <use xlink:href="#m940c487fa6" x="279.652196" y="288.430125" style="stroke: #000000; stroke-width: 0.8"/>
      </g>
     </g>
     <g id="text_6">
      <!-- 2.5 k -->
      <g transform="translate(267.216258 303.028562) scale(0.1 -0.1)">
       <use xlink:href="#DejaVuSans-32"/>
       <use xlink:href="#DejaVuSans-2e" transform="translate(63.623047 0)"/>
       <use xlink:href="#DejaVuSans-35" transform="translate(95.410156 0)"/>
       <use xlink:href="#DejaVuSans-20" transform="translate(159.033203 0)"/>
       <use xlink:href="#DejaVuSans-6b" transform="translate(190.820312 0)"/>
      </g>
     </g>
    </g>
    <g id="xtick_7">
     <g id="line2d_7">
      <g>
       <use xlink:href="#m940c487fa6" x="323.20076" y="288.430125" style="stroke: #000000; stroke-width: 0.8"/>
      </g>
     </g>
     <g id="text_7">
      <!-- 3 k -->
      <g transform="translate(315.535135 303.028562) scale(0.1 -0.1)">
       <defs>
        <path id="DejaVuSans-33" d="M 2597 2516 
Q 3050 2419 3304 2112 
Q 3559 1806 3559 1356 
Q 3559 666 3084 287 
Q 2609 -91 1734 -91 
Q 1441 -91 1130 -33 
Q 819 25 488 141 
L 488 750 
Q 750 597 1062 519 
Q 1375 441 1716 441 
Q 2309 441 2620 675 
Q 2931 909 2931 1356 
Q 2931 1769 2642 2001 
Q 2353 2234 1838 2234 
L 1294 2234 
L 1294 2753 
L 1863 2753 
Q 2328 2753 2575 2939 
Q 2822 3125 2822 3475 
Q 2822 3834 2567 4026 
Q 2313 4219 1838 4219 
Q 1578 4219 1281 4162 
Q 984 4106 628 3988 
L 628 4550 
Q 988 4650 1302 4700 
Q 1616 4750 1894 4750 
Q 2613 4750 3031 4423 
Q 3450 4097 3450 3541 
Q 3450 3153 3228 2886 
Q 3006 2619 2597 2516 
z
" transform="scale(0.015625)"/>
       </defs>
       <use xlink:href="#DejaVuSans-33"/>
       <use xlink:href="#DejaVuSans-20" transform="translate(63.623047 0)"/>
       <use xlink:href="#DejaVuSans-6b" transform="translate(95.410156 0)"/>
      </g>
     </g>
    </g>
    <g id="xtick_8">
     <g id="line2d_8">
      <g>
       <use xlink:href="#m940c487fa6" x="366.749324" y="288.430125" style="stroke: #000000; stroke-width: 0.8"/>
      </g>
     </g>
     <g id="text_8">
      <!-- 3.5 k -->
      <g transform="translate(354.313386 303.028562) scale(0.1 -0.1)">
       <use xlink:href="#DejaVuSans-33"/>
       <use xlink:href="#DejaVuSans-2e" transform="translate(63.623047 0)"/>
       <use xlink:href="#DejaVuSans-35" transform="translate(95.410156 0)"/>
       <use xlink:href="#DejaVuSans-20" transform="translate(159.033203 0)"/>
       <use xlink:href="#DejaVuSans-6b" transform="translate(190.820312 0)"/>
      </g>
     </g>
    </g>
    <g id="xtick_9">
     <g id="line2d_9">
      <g>
       <use xlink:href="#m940c487fa6" x="410.297888" y="288.430125" style="stroke: #000000; stroke-width: 0.8"/>
      </g>
     </g>
     <g id="text_9">
      <!-- 4 k -->
      <g transform="translate(402.632263 303.028562) scale(0.1 -0.1)">
       <defs>
        <path id="DejaVuSans-34" d="M 2419 4116 
L 825 1625 
L 2419 1625 
L 2419 4116 
z
M 2253 4666 
L 3047 4666 
L 3047 1625 
L 3713 1625 
L 3713 1100 
L 3047 1100 
L 3047 0 
L 2419 0 
L 2419 1100 
L 313 1100 
L 313 1709 
L 2253 4666 
z
" transform="scale(0.015625)"/>
       </defs>
       <use xlink:href="#DejaVuSans-34"/>
       <use xlink:href="#DejaVuSans-20" transform="translate(63.623047 0)"/>
       <use xlink:href="#DejaVuSans-6b" transform="translate(95.410156 0)"/>
      </g>
     </g>
    </g>
    <g id="text_10">
     <!-- Amount of objects in table -->
     <g transform="translate(174.410781 316.706687) scale(0.1 -0.1)">
      <defs>
       <path id="DejaVuSans-41" d="M 2188 4044 
L 1331 1722 
L 3047 1722 
L 2188 4044 
z
M 1831 4666 
L 2547 4666 
L 4325 0 
L 3669 0 
L 3244 1197 
L 1141 1197 
L 716 0 
L 50 0 
L 1831 4666 
z
" transform="scale(0.015625)"/>
       <path id="DejaVuSans-6d" d="M 3328 2828 
Q 3544 3216 3844 3400 
Q 4144 3584 4550 3584 
Q 5097 3584 5394 3201 
Q 5691 2819 5691 2113 
L 5691 0 
L 5113 0 
L 5113 2094 
Q 5113 2597 4934 2840 
Q 4756 3084 4391 3084 
Q 3944 3084 3684 2787 
Q 3425 2491 3425 1978 
L 3425 0 
L 2847 0 
L 2847 2094 
Q 2847 2600 2669 2842 
Q 2491 3084 2119 3084 
Q 1678 3084 1418 2786 
Q 1159 2488 1159 1978 
L 1159 0 
L 581 0 
L 581 3500 
L 1159 3500 
L 1159 2956 
Q 1356 3278 1631 3431 
Q 1906 3584 2284 3584 
Q 2666 3584 2933 3390 
Q 3200 3197 3328 2828 
z
" transform="scale(0.015625)"/>
       <path id="DejaVuSans-6f" d="M 1959 3097 
Q 1497 3097 1228 2736 
Q 959 2375 959 1747 
Q 959 1119 1226 758 
Q 1494 397 1959 397 
Q 2419 397 2687 759 
Q 2956 1122 2956 1747 
Q 2956 2369 2687 2733 
Q 2419 3097 1959 3097 
z
M 1959 3584 
Q 2709 3584 3137 3096 
Q 3566 2609 3566 1747 
Q 3566 888 3137 398 
Q 2709 -91 1959 -91 
Q 1206 -91 779 398 
Q 353 888 353 1747 
Q 353 2609 779 3096 
Q 1206 3584 1959 3584 
z
" transform="scale(0.015625)"/>
       <path id="DejaVuSans-75" d="M 544 1381 
L 544 3500 
L 1119 3500 
L 1119 1403 
Q 1119 906 1312 657 
Q 1506 409 1894 409 
Q 2359 409 2629 706 
Q 2900 1003 2900 1516 
L 2900 3500 
L 3475 3500 
L 3475 0 
L 2900 0 
L 2900 538 
Q 2691 219 2414 64 
Q 2138 -91 1772 -91 
Q 1169 -91 856 284 
Q 544 659 544 1381 
z
M 1991 3584 
L 1991 3584 
z
" transform="scale(0.015625)"/>
       <path id="DejaVuSans-6e" d="M 3513 2113 
L 3513 0 
L 2938 0 
L 2938 2094 
Q 2938 2591 2744 2837 
Q 2550 3084 2163 3084 
Q 1697 3084 1428 2787 
Q 1159 2491 1159 1978 
L 1159 0 
L 581 0 
L 581 3500 
L 1159 3500 
L 1159 2956 
Q 1366 3272 1645 3428 
Q 1925 3584 2291 3584 
Q 2894 3584 3203 3211 
Q 3513 2838 3513 2113 
z
" transform="scale(0.015625)"/>
       <path id="DejaVuSans-74" d="M 1172 4494 
L 1172 3500 
L 2356 3500 
L 2356 3053 
L 1172 3053 
L 1172 1153 
Q 1172 725 1289 603 
Q 1406 481 1766 481 
L 2356 481 
L 2356 0 
L 1766 0 
Q 1100 0 847 248 
Q 594 497 594 1153 
L 594 3053 
L 172 3053 
L 172 3500 
L 594 3500 
L 594 4494 
L 1172 4494 
z
" transform="scale(0.015625)"/>
       <path id="DejaVuSans-66" d="M 2375 4863 
L 2375 4384 
L 1825 4384 
Q 1516 4384 1395 4259 
Q 1275 4134 1275 3809 
L 1275 3500 
L 2222 3500 
L 2222 3053 
L 1275 3053 
L 1275 0 
L 697 0 
L 697 3053 
L 147 3053 
L 147 3500 
L 697 3500 
L 697 3744 
Q 697 4328 969 4595 
Q 1241 4863 1831 4863 
L 2375 4863 
z
" transform="scale(0.015625)"/>
       <path id="DejaVuSans-62" d="M 3116 1747 
Q 3116 2381 2855 2742 
Q 2594 3103 2138 3103 
Q 1681 3103 1420 2742 
Q 1159 2381 1159 1747 
Q 1159 1113 1420 752 
Q 1681 391 2138 391 
Q 2594 391 2855 752 
Q 3116 1113 3116 1747 
z
M 1159 2969 
Q 1341 3281 1617 3432 
Q 1894 3584 2278 3584 
Q 2916 3584 3314 3078 
Q 3713 2572 3713 1747 
Q 3713 922 3314 415 
Q 2916 -91 2278 -91 
Q 1894 -91 1617 61 
Q 1341 213 1159 525 
L 1159 0 
L 581 0 
L 581 4863 
L 1159 4863 
L 1159 2969 
z
" transform="scale(0.015625)"/>
       <path id="DejaVuSans-6a" d="M 603 3500 
L 1178 3500 
L 1178 -63 
Q 1178 -731 923 -1031 
Q 669 -1331 103 -1331 
L -116 -1331 
L -116 -844 
L 38 -844 
Q 366 -844 484 -692 
Q 603 -541 603 -63 
L 603 3500 
z
M 603 4863 
L 1178 4863 
L 1178 4134 
L 603 4134 
L 603 4863 
z
" transform="scale(0.015625)"/>
       <path id="DejaVuSans-65" d="M 3597 1894 
L 3597 1613 
L 953 1613 
Q 991 1019 1311 708 
Q 1631 397 2203 397 
Q 2534 397 2845 478 
Q 3156 559 3463 722 
L 3463 178 
Q 3153 47 2828 -22 
Q 2503 -91 2169 -91 
Q 1331 -91 842 396 
Q 353 884 353 1716 
Q 353 2575 817 3079 
Q 1281 3584 2069 3584 
Q 2775 3584 3186 3129 
Q 3597 2675 3597 1894 
z
M 3022 2063 
Q 3016 2534 2758 2815 
Q 2500 3097 2075 3097 
Q 1594 3097 1305 2825 
Q 1016 2553 972 2059 
L 3022 2063 
z
" transform="scale(0.015625)"/>
       <path id="DejaVuSans-63" d="M 3122 3366 
L 3122 2828 
Q 2878 2963 2633 3030 
Q 2388 3097 2138 3097 
Q 1578 3097 1268 2742 
Q 959 2388 959 1747 
Q 959 1106 1268 751 
Q 1578 397 2138 397 
Q 2388 397 2633 464 
Q 2878 531 3122 666 
L 3122 134 
Q 2881 22 2623 -34 
Q 2366 -91 2075 -91 
Q 1284 -91 818 406 
Q 353 903 353 1747 
Q 353 2603 823 3093 
Q 1294 3584 2113 3584 
Q 2378 3584 2631 3529 
Q 2884 3475 3122 3366 
z
" transform="scale(0.015625)"/>
       <path id="DejaVuSans-73" d="M 2834 3397 
L 2834 2853 
Q 2591 2978 2328 3040 
Q 2066 3103 1784 3103 
Q 1356 3103 1142 2972 
Q 928 2841 928 2578 
Q 928 2378 1081 2264 
Q 1234 2150 1697 2047 
L 1894 2003 
Q 2506 1872 2764 1633 
Q 3022 1394 3022 966 
Q 3022 478 2636 193 
Q 2250 -91 1575 -91 
Q 1294 -91 989 -36 
Q 684 19 347 128 
L 347 722 
Q 666 556 975 473 
Q 1284 391 1588 391 
Q 1994 391 2212 530 
Q 2431 669 2431 922 
Q 2431 1156 2273 1281 
Q 2116 1406 1581 1522 
L 1381 1569 
Q 847 1681 609 1914 
Q 372 2147 372 2553 
Q 372 3047 722 3315 
Q 1072 3584 1716 3584 
Q 2034 3584 2315 3537 
Q 2597 3491 2834 3397 
z
" transform="scale(0.015625)"/>
       <path id="DejaVuSans-69" d="M 603 3500 
L 1178 3500 
L 1178 0 
L 603 0 
L 603 3500 
z
M 603 4863 
L 1178 4863 
L 1178 4134 
L 603 4134 
L 603 4863 
z
" transform="scale(0.015625)"/>
       <path id="DejaVuSans-61" d="M 2194 1759 
Q 1497 1759 1228 1600 
Q 959 1441 959 1056 
Q 959 750 1161 570 
Q 1363 391 1709 391 
Q 2188 391 2477 730 
Q 2766 1069 2766 1631 
L 2766 1759 
L 2194 1759 
z
M 3341 1997 
L 3341 0 
L 2766 0 
L 2766 531 
Q 2569 213 2275 61 
Q 1981 -91 1556 -91 
Q 1019 -91 701 211 
Q 384 513 384 1019 
Q 384 1609 779 1909 
Q 1175 2209 1959 2209 
L 2766 2209 
L 2766 2266 
Q 2766 2663 2505 2880 
Q 2244 3097 1772 3097 
Q 1472 3097 1187 3025 
Q 903 2953 641 2809 
L 641 3341 
Q 956 3463 1253 3523 
Q 1550 3584 1831 3584 
Q 2591 3584 2966 3190 
Q 3341 2797 3341 1997 
z
" transform="scale(0.015625)"/>
       <path id="DejaVuSans-6c" d="M 603 4863 
L 1178 4863 
L 1178 0 
L 603 0 
L 603 4863 
z
" transform="scale(0.015625)"/>
      </defs>
      <use xlink:href="#DejaVuSans-41"/>
      <use xlink:href="#DejaVuSans-6d" transform="translate(68.408203 0)"/>
      <use xlink:href="#DejaVuSans-6f" transform="translate(165.820312 0)"/>
      <use xlink:href="#DejaVuSans-75" transform="translate(227.001953 0)"/>
      <use xlink:href="#DejaVuSans-6e" transform="translate(290.380859 0)"/>
      <use xlink:href="#DejaVuSans-74" transform="translate(353.759766 0)"/>
      <use xlink:href="#DejaVuSans-20" transform="translate(392.96875 0)"/>
      <use xlink:href="#DejaVuSans-6f" transform="translate(424.755859 0)"/>
      <use xlink:href="#DejaVuSans-66" transform="translate(485.9375 0)"/>
      <use xlink:href="#DejaVuSans-20" transform="translate(521.142578 0)"/>
      <use xlink:href="#DejaVuSans-6f" transform="translate(552.929688 0)"/>
      <use xlink:href="#DejaVuSans-62" transform="translate(614.111328 0)"/>
      <use xlink:href="#DejaVuSans-6a" transform="translate(677.587891 0)"/>
      <use xlink:href="#DejaVuSans-65" transform="translate(705.371094 0)"/>
      <use xlink:href="#DejaVuSans-63" transform="translate(766.894531 0)"/>
      <use xlink:href="#DejaVuSans-74" transform="translate(821.875 0)"/>
      <use xlink:href="#DejaVuSans-73" transform="translate(861.083984 0)"/>
      <use xlink:href="#DejaVuSans-20" transform="translate(913.183594 0)"/>
      <use xlink:href="#DejaVuSans-69" transform="translate(944.970703 0)"/>
      <use xlink:href="#DejaVuSans-6e" transform="translate(972.753906 0)"/>
      <use xlink:href="#DejaVuSans-20" transform="translate(1036.132812 0)"/>
      <use xlink:href="#DejaVuSans-74" transform="translate(1067.919922 0)"/>
      <use xlink:href="#DejaVuSans-61" transform="translate(1107.128906 0)"/>
      <use xlink:href="#DejaVuSans-62" transform="translate(1168.408203 0)"/>
      <use xlink:href="#DejaVuSans-6c" transform="translate(1231.884766 0)"/>
      <use xlink:href="#DejaVuSans-65" transform="translate(1259.667969 0)"/>
     </g>
    </g>
   </g>
   <g id="matplotlib.axis_2">
    <g id="ytick_1">
     <g id="line2d_10">
      <defs>
       <path id="m0b6d64b0c3" d="M 0 0 
L -3.5 0 
" style="stroke: #000000; stroke-width: 0.8"/>
      </defs>
      <g>
       <use xlink:href="#m0b6d64b0c3" x="61.909375" y="288.430125" style="stroke: #000000; stroke-width: 0.8"/>
      </g>
     </g>
     <g id="text_11">
      <!-- 0 -->
      <g transform="translate(48.546875 292.229344) scale(0.1 -0.1)">
       <use xlink:href="#DejaVuSans-30"/>
      </g>
     </g>
    </g>
    <g id="ytick_2">
     <g id="line2d_11">
      <g>
       <use xlink:href="#m0b6d64b0c3" x="61.909375" y="249.038478" style="stroke: #000000; stroke-width: 0.8"/>
      </g>
     </g>
     <g id="text_12">
      <!-- 500 µs -->
      <g transform="translate(21.071875 252.837697) scale(0.1 -0.1)">
       <defs>
        <path id="DejaVuSans-b5" d="M 544 -1331 
L 544 3500 
L 1119 3500 
L 1119 1325 
Q 1119 872 1334 640 
Q 1550 409 1972 409 
Q 2434 409 2667 671 
Q 2900 934 2900 1459 
L 2900 3500 
L 3475 3500 
L 3475 806 
Q 3475 619 3529 530 
Q 3584 441 3700 441 
Q 3728 441 3778 458 
Q 3828 475 3916 513 
L 3916 50 
Q 3788 -22 3673 -56 
Q 3559 -91 3450 -91 
Q 3234 -91 3106 31 
Q 2978 153 2931 403 
Q 2775 156 2548 32 
Q 2322 -91 2016 -91 
Q 1697 -91 1473 31 
Q 1250 153 1119 397 
L 1119 -1331 
L 544 -1331 
z
" transform="scale(0.015625)"/>
       </defs>
       <use xlink:href="#DejaVuSans-35"/>
       <use xlink:href="#DejaVuSans-30" transform="translate(63.623047 0)"/>
       <use xlink:href="#DejaVuSans-30" transform="translate(127.246094 0)"/>
       <use xlink:href="#DejaVuSans-20" transform="translate(190.869141 0)"/>
       <use xlink:href="#DejaVuSans-b5" transform="translate(222.65625 0)"/>
       <use xlink:href="#DejaVuSans-73" transform="translate(286.279297 0)"/>
      </g>
     </g>
    </g>
    <g id="ytick_3">
     <g id="line2d_12">
      <g>
       <use xlink:href="#m0b6d64b0c3" x="61.909375" y="209.646831" style="stroke: #000000; stroke-width: 0.8"/>
      </g>
     </g>
     <g id="text_13">
      <!-- 1 ms -->
      <g transform="translate(30.41875 213.446049) scale(0.1 -0.1)">
       <use xlink:href="#DejaVuSans-31"/>
       <use xlink:href="#DejaVuSans-20" transform="translate(63.623047 0)"/>
       <use xlink:href="#DejaVuSans-6d" transform="translate(95.410156 0)"/>
       <use xlink:href="#DejaVuSans-73" transform="translate(192.822266 0)"/>
      </g>
     </g>
    </g>
    <g id="ytick_4">
     <g id="line2d_13">
      <g>
       <use xlink:href="#m0b6d64b0c3" x="61.909375" y="170.255183" style="stroke: #000000; stroke-width: 0.8"/>
      </g>
     </g>
     <g id="text_14">
      <!-- 1.5 ms -->
      <g transform="translate(20.878125 174.054402) scale(0.1 -0.1)">
       <use xlink:href="#DejaVuSans-31"/>
       <use xlink:href="#DejaVuSans-2e" transform="translate(63.623047 0)"/>
       <use xlink:href="#DejaVuSans-35" transform="translate(95.410156 0)"/>
       <use xlink:href="#DejaVuSans-20" transform="translate(159.033203 0)"/>
       <use xlink:href="#DejaVuSans-6d" transform="translate(190.820312 0)"/>
       <use xlink:href="#DejaVuSans-73" transform="translate(288.232422 0)"/>
      </g>
     </g>
    </g>
    <g id="ytick_5">
     <g id="line2d_14">
      <g>
       <use xlink:href="#m0b6d64b0c3" x="61.909375" y="130.863536" style="stroke: #000000; stroke-width: 0.8"/>
      </g>
     </g>
     <g id="text_15">
      <!-- 2 ms -->
      <g transform="translate(30.41875 134.662755) scale(0.1 -0.1)">
       <use xlink:href="#DejaVuSans-32"/>
       <use xlink:href="#DejaVuSans-20" transform="translate(63.623047 0)"/>
       <use xlink:href="#DejaVuSans-6d" transform="translate(95.410156 0)"/>
       <use xlink:href="#DejaVuSans-73" transform="translate(192.822266 0)"/>
      </g>
     </g>
    </g>
    <g id="ytick_6">
     <g id="line2d_15">
      <g>
       <use xlink:href="#m0b6d64b0c3" x="61.909375" y="91.471889" style="stroke: #000000; stroke-width: 0.8"/>
      </g>
     </g>
     <g id="text_16">
      <!-- 2.5 ms -->
      <g transform="translate(20.878125 95.271108) scale(0.1 -0.1)">
       <use xlink:href="#DejaVuSans-32"/>
       <use xlink:href="#DejaVuSans-2e" transform="translate(63.623047 0)"/>
       <use xlink:href="#DejaVuSans-35" transform="translate(95.410156 0)"/>
       <use xlink:href="#DejaVuSans-20" transform="translate(159.033203 0)"/>
       <use xlink:href="#DejaVuSans-6d" transform="translate(190.820312 0)"/>
       <use xlink:href="#DejaVuSans-73" transform="translate(288.232422 0)"/>
      </g>
     </g>
    </g>
    <g id="ytick_7">
     <g id="line2d_16">
      <g>
       <use xlink:href="#m0b6d64b0c3" x="61.909375" y="52.080242" style="stroke: #000000; stroke-width: 0.8"/>
      </g>
     </g>
     <g id="text_17">
      <!-- 3 ms -->
      <g transform="translate(30.41875 55.879461) scale(0.1 -0.1)">
       <use xlink:href="#DejaVuSans-33"/>
       <use xlink:href="#DejaVuSans-20" transform="translate(63.623047 0)"/>
       <use xlink:href="#DejaVuSans-6d" transform="translate(95.410156 0)"/>
       <use xlink:href="#DejaVuSans-73" transform="translate(192.822266 0)"/>
      </g>
     </g>
    </g>
    <g id="text_18">
     <!-- Read latency (s) -->
     <g transform="translate(14.798438 195.98975) rotate(-90) scale(0.1 -0.1)">
      <defs>
       <path id="DejaVuSans-52" d="M 2841 2188 
Q 3044 2119 3236 1894 
Q 3428 1669 3622 1275 
L 4263 0 
L 3584 0 
L 2988 1197 
Q 2756 1666 2539 1819 
Q 2322 1972 1947 1972 
L 1259 1972 
L 1259 0 
L 628 0 
L 628 4666 
L 2053 4666 
Q 2853 4666 3247 4331 
Q 3641 3997 3641 3322 
Q 3641 2881 3436 2590 
Q 3231 2300 2841 2188 
z
M 1259 4147 
L 1259 2491 
L 2053 2491 
Q 2509 2491 2742 2702 
Q 2975 2913 2975 3322 
Q 2975 3731 2742 3939 
Q 2509 4147 2053 4147 
L 1259 4147 
z
" transform="scale(0.015625)"/>
       <path id="DejaVuSans-64" d="M 2906 2969 
L 2906 4863 
L 3481 4863 
L 3481 0 
L 2906 0 
L 2906 525 
Q 2725 213 2448 61 
Q 2172 -91 1784 -91 
Q 1150 -91 751 415 
Q 353 922 353 1747 
Q 353 2572 751 3078 
Q 1150 3584 1784 3584 
Q 2172 3584 2448 3432 
Q 2725 3281 2906 2969 
z
M 947 1747 
Q 947 1113 1208 752 
Q 1469 391 1925 391 
Q 2381 391 2643 752 
Q 2906 1113 2906 1747 
Q 2906 2381 2643 2742 
Q 2381 3103 1925 3103 
Q 1469 3103 1208 2742 
Q 947 2381 947 1747 
z
" transform="scale(0.015625)"/>
       <path id="DejaVuSans-79" d="M 2059 -325 
Q 1816 -950 1584 -1140 
Q 1353 -1331 966 -1331 
L 506 -1331 
L 506 -850 
L 844 -850 
Q 1081 -850 1212 -737 
Q 1344 -625 1503 -206 
L 1606 56 
L 191 3500 
L 800 3500 
L 1894 763 
L 2988 3500 
L 3597 3500 
L 2059 -325 
z
" transform="scale(0.015625)"/>
       <path id="DejaVuSans-28" d="M 1984 4856 
Q 1566 4138 1362 3434 
Q 1159 2731 1159 2009 
Q 1159 1288 1364 580 
Q 1569 -128 1984 -844 
L 1484 -844 
Q 1016 -109 783 600 
Q 550 1309 550 2009 
Q 550 2706 781 3412 
Q 1013 4119 1484 4856 
L 1984 4856 
z
" transform="scale(0.015625)"/>
       <path id="DejaVuSans-29" d="M 513 4856 
L 1013 4856 
Q 1481 4119 1714 3412 
Q 1947 2706 1947 2009 
Q 1947 1309 1714 600 
Q 1481 -109 1013 -844 
L 513 -844 
Q 928 -128 1133 580 
Q 1338 1288 1338 2009 
Q 1338 2731 1133 3434 
Q 928 4138 513 4856 
z
" transform="scale(0.015625)"/>
      </defs>
      <use xlink:href="#DejaVuSans-52"/>
      <use xlink:href="#DejaVuSans-65" transform="translate(64.982422 0)"/>
      <use xlink:href="#DejaVuSans-61" transform="translate(126.505859 0)"/>
      <use xlink:href="#DejaVuSans-64" transform="translate(187.785156 0)"/>
      <use xlink:href="#DejaVuSans-20" transform="translate(251.261719 0)"/>
      <use xlink:href="#DejaVuSans-6c" transform="translate(283.048828 0)"/>
      <use xlink:href="#DejaVuSans-61" transform="translate(310.832031 0)"/>
      <use xlink:href="#DejaVuSans-74" transform="translate(372.111328 0)"/>
      <use xlink:href="#DejaVuSans-65" transform="translate(411.320312 0)"/>
      <use xlink:href="#DejaVuSans-6e" transform="translate(472.84375 0)"/>
      <use xlink:href="#DejaVuSans-63" transform="translate(536.222656 0)"/>
      <use xlink:href="#DejaVuSans-79" transform="translate(591.203125 0)"/>
      <use xlink:href="#DejaVuSans-20" transform="translate(650.382812 0)"/>
      <use xlink:href="#DejaVuSans-28" transform="translate(682.169922 0)"/>
      <use xlink:href="#DejaVuSans-73" transform="translate(721.183594 0)"/>
      <use xlink:href="#DejaVuSans-29" transform="translate(773.283203 0)"/>
     </g>
    </g>
   </g>
   <g id="line2d_17">
    <path d="M 147.264561 259.737276 
L 148.135532 259.772916 
L 148.571018 259.537786 
L 151.619417 259.55079 
L 152.490388 259.557726 
L 153.36136 259.521604 
L 153.796845 259.4955 
L 154.232331 259.676109 
L 157.28073 259.334637 
L 157.716216 259.370277 
L 158.151702 259.043927 
L 159.458159 259.012911 
L 159.893644 258.962051 
L 160.32913 259.168091 
L 166.861415 259.028997 
L 167.2969 258.693689 
L 168.167871 258.593318 
L 169.474328 258.587346 
L 170.3453 258.571645 
L 172.522728 258.478595 
L 172.958213 258.016716 
L 173.393699 257.730534 
L 173.829185 257.667827 
L 174.700156 256.950975 
L 175.571127 256.903872 
L 176.006613 256.660651 
L 178.184041 256.706116 
L 179.490498 256.619616 
L 179.925984 256.419934 
L 180.796955 256.435443 
L 181.232441 256.201854 
L 182.103412 256.13433 
L 182.538898 255.768391 
L 183.845355 255.273087 
L 184.28084 255.308631 
L 184.716326 255.500029 
L 186.458268 255.497814 
L 186.893754 256.261672 
L 187.764725 256.15138 
L 189.942153 256.125565 
L 190.377639 255.863079 
L 190.813125 255.803357 
L 191.684096 255.422777 
L 196.038952 255.223095 
L 196.474438 254.769307 
L 198.216381 254.670766 
L 198.651866 254.542365 
L 199.958323 253.356795 
L 200.393809 253.113767 
L 200.829295 253.047688 
L 201.700266 253.053082 
L 204.31318 253.042968 
L 205.184151 252.842515 
L 206.490608 252.701399 
L 209.974493 252.489387 
L 210.409979 252.492277 
L 210.845464 252.663447 
L 211.716436 252.684542 
L 213.022892 252.501332 
L 213.893864 252.574442 
L 214.764835 252.183555 
L 215.635806 252.09667 
L 216.506778 251.99495 
L 216.942263 251.704145 
L 217.377749 251.244674 
L 218.24872 251.119355 
L 221.29712 250.848103 
L 221.732605 250.84425 
L 222.168091 250.581668 
L 223.474548 250.797822 
L 223.910033 250.263121 
L 224.345519 250.29067 
L 224.781005 250.028858 
L 225.651976 249.971641 
L 226.087462 249.979443 
L 226.522947 250.255222 
L 227.829404 250.217077 
L 229.571347 249.170023 
L 231.748775 249.037384 
L 232.184261 248.564138 
L 232.619746 248.36253 
L 233.490718 248.348177 
L 233.926203 248.115167 
L 235.23266 248.092434 
L 237.410088 248.053037 
L 237.845574 248.004778 
L 238.716545 248.092241 
L 239.152031 247.820508 
L 240.458488 247.76541 
L 240.893974 247.349286 
L 241.764945 247.209807 
L 242.20043 247.260474 
L 242.635916 247.087474 
L 243.071402 247.243713 
L 243.506887 247.228783 
L 243.942373 247.079479 
L 246.119801 247.144402 
L 246.990772 247.115986 
L 247.426258 246.919001 
L 249.168201 246.904841 
L 250.474658 245.995821 
L 250.910143 245.999289 
L 251.781115 245.258645 
L 252.2166 245.517567 
L 253.523057 245.592797 
L 253.958543 245.357571 
L 255.265 245.347553 
L 256.135971 244.674144 
L 256.571457 244.515882 
L 257.442428 244.469742 
L 258.313399 244.982384 
L 258.748885 245.072159 
L 259.18437 245.326843 
L 259.619856 245.71696 
L 260.490827 245.620249 
L 260.926313 245.807024 
L 261.797284 245.554267 
L 262.668256 245.553303 
L 263.974712 245.539047 
L 264.410198 245.263846 
L 264.845684 245.499554 
L 265.716655 245.484335 
L 266.152141 245.700777 
L 266.587626 245.73295 
L 267.023112 245.631134 
L 268.329569 246.134337 
L 269.20054 246.145221 
L 269.636026 245.858943 
L 270.506997 245.857498 
L 270.942483 245.581141 
L 271.377968 245.618805 
L 271.813454 245.368937 
L 275.732825 245.666967 
L 277.039282 245.86164 
L 277.910253 244.934222 
L 279.21671 244.942891 
L 280.087681 245.081503 
L 280.958652 245.025538 
L 281.394138 245.404192 
L 282.700595 245.403422 
L 283.136081 245.381074 
L 284.442538 245.828023 
L 285.313509 246.418881 
L 286.18448 246.208989 
L 287.055451 246.141272 
L 287.490937 246.053038 
L 287.926423 245.678526 
L 289.23288 245.644909 
L 289.668365 245.796332 
L 292.281279 245.956809 
L 293.15225 245.785158 
L 295.765164 245.589907 
L 297.507107 245.667063 
L 298.813564 245.730734 
L 299.684535 246.188664 
L 300.555506 246.31196 
L 301.426478 246.417629 
L 302.297449 247.183221 
L 303.603906 247.164727 
L 304.474877 247.061562 
L 305.345848 247.09701 
L 306.652305 247.07341 
L 307.087791 247.343024 
L 308.394248 247.331176 
L 308.829734 247.827733 
L 309.265219 247.90932 
L 309.700705 248.167471 
L 310.13619 248.182016 
L 311.007162 247.434919 
L 311.442647 247.425093 
L 311.878133 246.791178 
L 312.313619 246.507308 
L 312.749104 246.525706 
L 313.620076 246.98142 
L 314.055561 247.335029 
L 314.926532 247.468729 
L 315.362018 247.482696 
L 315.797504 247.24564 
L 316.668475 247.275693 
L 317.539446 247.887839 
L 317.974932 247.750576 
L 318.410418 247.757608 
L 318.845903 247.971257 
L 320.15236 247.964129 
L 320.587846 247.672938 
L 321.023331 247.571219 
L 321.894303 247.538661 
L 322.765274 247.53606 
L 323.636245 247.468632 
L 324.507217 247.452546 
L 324.942702 247.561297 
L 325.378188 247.146329 
L 326.249159 247.812898 
L 327.555616 247.907104 
L 328.862073 248.151867 
L 329.733044 248.148303 
L 330.16853 247.827444 
L 331.910472 247.839292 
L 332.345958 248.06055 
L 334.087901 248.138574 
L 334.958872 248.635997 
L 335.394358 248.969667 
L 335.829843 248.755825 
L 337.1363 249.59684 
L 338.442757 249.505813 
L 338.878243 249.732755 
L 340.620185 249.701545 
L 341.055671 249.900746 
L 341.926642 249.925887 
L 342.362128 249.886586 
L 342.797614 250.072879 
L 343.668585 250.058141 
L 344.10407 249.90248 
L 344.539556 249.477975 
L 345.410527 249.534518 
L 345.846013 249.451196 
L 346.281499 249.571025 
L 348.894412 249.438385 
L 349.329898 249.67284 
L 349.765384 249.546462 
L 350.636355 249.539141 
L 351.507326 249.526908 
L 352.378298 249.757125 
L 354.555726 249.702894 
L 355.426697 249.595299 
L 355.862183 249.846515 
L 356.297668 249.761074 
L 356.733154 249.988883 
L 358.039611 249.920685 
L 359.781554 249.896315 
L 360.217039 249.45948 
L 361.958982 249.436555 
L 362.829953 250.349621 
L 363.700924 250.342782 
L 364.13641 250.147338 
L 367.620295 250.014024 
L 368.491266 249.92579 
L 368.926752 250.225265 
L 370.233209 250.236054 
L 370.668695 250.463092 
L 372.410637 250.674237 
L 372.846123 251.0579 
L 373.281608 251.045955 
L 373.717094 250.7119 
L 374.15258 250.77663 
L 374.588065 250.639367 
L 375.023551 250.233742 
L 375.459037 250.239232 
L 376.330008 249.963646 
L 376.765494 250.003236 
L 378.07195 249.836882 
L 380.249379 249.789876 
L 380.684864 249.446284 
L 382.426807 249.287733 
L 382.862293 248.9924 
L 383.297778 248.412619 
L 385.475206 248.150422 
L 386.346178 248.128074 
L 387.217149 248.05217 
L 391.13652 248.162462 
L 392.442977 247.865781 
L 394.620405 247.811357 
L 395.05589 247.760498 
L 395.926862 248.524356 
L 396.362347 248.52898 
L 396.797833 249.150566 
L 397.233319 249.464586 
L 398.10429 249.339074 
L 398.539776 249.115407 
L 398.975261 249.140162 
L 399.846233 248.921215 
L 400.281718 248.84483 
L 400.717204 248.932967 
L 402.023661 248.893281 
L 402.023661 248.893281 
" clip-path="url(#p5e2a9a76ed)" style="fill: none; stroke: #1f77b4; stroke-opacity: 0.8; stroke-width: 1.5; stroke-linecap: square"/>
   </g>
   <g id="line2d_18">
    <path d="M 147.264561 246.016146 
L 150.748446 245.982336 
L 152.054903 246.008054 
L 154.232331 246.267843 
L 159.893644 245.937255 
L 161.635587 245.955365 
L 162.506558 245.87946 
L 162.942044 246.29414 
L 163.813015 246.246748 
L 168.167871 246.179898 
L 170.780785 246.350972 
L 172.087242 246.339702 
L 172.522728 246.834428 
L 174.26467 247.051256 
L 174.700156 246.662487 
L 176.877584 246.838184 
L 177.748556 246.918327 
L 180.361469 246.964178 
L 181.232441 246.932872 
L 182.103412 246.825662 
L 183.409869 246.855523 
L 185.587297 246.512317 
L 186.893754 246.539962 
L 189.071182 246.818052 
L 191.24861 246.8037 
L 191.684096 246.769505 
L 192.555067 246.890489 
L 193.426039 246.911006 
L 193.861524 246.690614 
L 195.603467 246.665666 
L 196.038952 246.305314 
L 199.522838 246.21419 
L 200.393809 246.310419 
L 201.26478 246.888177 
L 202.135751 247.021106 
L 203.442208 247.154805 
L 205.619637 247.22387 
L 206.490608 247.504947 
L 207.797065 247.40737 
L 208.23255 247.451872 
L 209.103522 247.140838 
L 209.539007 246.705256 
L 211.28095 246.547379 
L 212.151921 246.541118 
L 213.022892 246.507211 
L 215.635806 246.605848 
L 223.474548 247.162415 
L 223.910033 247.14604 
L 224.345519 247.394558 
L 225.21649 247.47865 
L 225.651976 247.418158 
L 226.087462 247.528547 
L 228.26489 247.489053 
L 230.006832 247.533074 
L 230.442318 247.692203 
L 231.313289 247.580755 
L 233.490718 247.359978 
L 233.926203 247.029968 
L 247.426258 246.876137 
L 248.297229 246.735887 
L 251.781115 246.809961 
L 253.087571 246.578685 
L 256.135971 246.626751 
L 256.571457 246.127883 
L 257.442428 246.127305 
L 258.748885 246.057277 
L 259.18437 245.8024 
L 259.619856 246.139057 
L 260.055342 246.132025 
L 260.490827 245.904023 
L 261.361799 245.847384 
L 262.23277 245.413439 
L 263.103741 245.45457 
L 265.716655 245.247568 
L 267.023112 245.324531 
L 269.20054 245.338787 
L 270.071511 244.646017 
L 270.506997 244.016821 
L 271.377968 243.93822 
L 271.813454 244.001506 
L 274.861854 243.463626 
L 275.297339 243.467286 
L 276.16831 243.330119 
L 277.039282 243.277044 
L 277.474767 242.969671 
L 279.652196 242.691098 
L 280.523167 242.645055 
L 280.958652 243.033053 
L 281.829624 243.044901 
L 282.265109 242.989899 
L 284.007052 243.128126 
L 285.313509 242.93143 
L 286.18448 242.801776 
L 286.619966 242.444313 
L 287.055451 242.407325 
L 287.490937 242.017882 
L 287.926423 241.786605 
L 290.974822 241.728425 
L 291.410308 241.424519 
L 293.587736 241.641058 
L 294.023222 241.571993 
L 294.458707 241.935331 
L 294.894193 241.979256 
L 295.329679 241.712146 
L 295.765164 241.737094 
L 296.636136 241.498304 
L 297.507107 241.495222 
L 300.990992 241.426253 
L 301.861963 241.248437 
L 302.732935 240.664514 
L 304.910363 240.183466 
L 305.345848 239.853071 
L 305.781334 239.922907 
L 306.21682 239.827738 
L 307.087791 239.964519 
L 308.394248 239.459872 
L 310.13619 239.262213 
L 310.571676 239.068599 
L 311.007162 238.438536 
L 312.313619 238.311869 
L 312.749104 237.872819 
L 313.18459 237.235532 
L 314.491047 236.783767 
L 315.362018 236.910531 
L 317.103961 237.133909 
L 317.539446 237.02458 
L 317.974932 236.541798 
L 318.410418 236.515983 
L 318.845903 236.806211 
L 319.281389 236.38055 
L 319.716875 236.446533 
L 321.458817 235.872531 
L 321.894303 235.798265 
L 322.765274 235.827451 
L 324.507217 235.606289 
L 326.684645 235.630081 
L 327.12013 235.090949 
L 327.555616 235.025737 
L 328.426587 235.094031 
L 328.862073 234.751981 
L 329.733044 234.562124 
L 330.16853 234.405307 
L 330.604016 233.79894 
L 331.039501 233.794991 
L 331.474987 233.667456 
L 331.910472 233.206444 
L 334.523386 233.471146 
L 336.265329 233.365284 
L 336.700815 233.129288 
L 337.571786 233.151635 
L 339.313728 232.310235 
L 340.1847 232.061138 
L 341.055671 232.023668 
L 341.491157 232.497587 
L 343.668585 232.467438 
L 344.10407 232.646121 
L 344.539556 232.647084 
L 344.975042 232.269971 
L 346.716984 232.06528 
L 347.15247 232.147542 
L 347.587956 232.010086 
L 348.023441 231.338218 
L 350.200869 231.433002 
L 351.507326 231.373955 
L 352.813783 231.156356 
L 353.249269 231.163966 
L 354.555726 231.585485 
L 355.426697 232.315629 
L 356.297668 231.8079 
L 356.733154 231.378867 
L 357.16864 231.31327 
L 357.604125 230.78406 
L 358.475097 230.786083 
L 358.910582 230.367068 
L 360.217039 230.516468 
L 360.652525 230.209866 
L 361.958982 230.301471 
L 362.394467 230.648338 
L 363.700924 230.125099 
L 364.571896 230.100922 
L 365.007381 230.000069 
L 365.442867 229.695586 
L 365.878353 228.988559 
L 366.313838 228.919398 
L 367.184809 228.982491 
L 368.491266 228.458482 
L 368.926752 228.536698 
L 369.797723 228.517048 
L 370.668695 227.783243 
L 371.10418 227.443408 
L 371.539666 227.722751 
L 371.975151 227.731613 
L 372.410637 227.6271 
L 372.846123 227.758102 
L 373.717094 227.252684 
L 375.894522 227.417689 
L 376.330008 227.658791 
L 378.507436 227.543297 
L 378.942922 227.711577 
L 380.684864 227.794417 
L 381.555836 227.82264 
L 383.297778 227.078046 
L 383.733264 226.204281 
L 385.039721 226.291648 
L 385.475206 226.227207 
L 387.217149 226.593338 
L 387.652635 226.896281 
L 388.523606 227.053291 
L 388.959091 227.179958 
L 389.394577 227.112724 
L 390.265548 226.392308 
L 390.701034 226.402904 
L 391.572005 226.227399 
L 392.007491 225.515075 
L 392.878462 225.689616 
L 394.184919 226.014713 
L 395.491376 226.3165 
L 395.926862 226.719235 
L 396.797833 226.439892 
L 397.233319 226.492004 
L 397.668804 226.70103 
L 398.10429 227.283412 
L 398.975261 227.539829 
L 402.023661 227.440325 
L 402.023661 227.440325 
" clip-path="url(#p5e2a9a76ed)" style="fill: none; stroke: #ff7f0e; stroke-opacity: 0.8; stroke-width: 1.5; stroke-linecap: square"/>
   </g>
   <g id="line2d_19">
    <path d="M 147.264561 244.624729 
L 148.135532 244.80977 
L 149.441989 244.872863 
L 151.183931 245.020433 
L 152.490388 244.806013 
L 153.36136 244.774515 
L 153.796845 245.117721 
L 155.974273 245.051161 
L 157.28073 244.898678 
L 159.022673 244.76941 
L 159.458159 244.493149 
L 163.377529 244.300788 
L 164.248501 244.184812 
L 165.119472 244.1668 
L 165.990443 244.242415 
L 167.732386 244.302136 
L 172.522728 244.84069 
L 174.26467 244.796092 
L 175.571127 244.906962 
L 176.877584 244.703908 
L 178.184041 244.559132 
L 179.925984 244.605849 
L 183.409869 244.707184 
L 183.845355 244.764979 
L 184.716326 244.669713 
L 186.022783 244.721825 
L 186.458268 244.615482 
L 187.764725 244.768832 
L 191.24861 244.540059 
L 191.684096 244.698418 
L 194.732496 244.786748 
L 196.474438 245.067247 
L 199.087352 245.323279 
L 199.958323 245.593567 
L 201.700266 245.846036 
L 202.135751 245.80818 
L 203.006723 245.916546 
L 204.31318 245.927623 
L 205.184151 246.043984 
L 206.055122 245.967502 
L 206.926093 246.022214 
L 208.668036 245.947659 
L 209.103522 246.345674 
L 210.409979 246.197141 
L 212.587407 246.440169 
L 215.200321 246.323327 
L 217.377749 246.020962 
L 217.813235 245.513521 
L 219.119691 245.345723 
L 221.29712 245.113387 
L 221.732605 244.79272 
L 222.603577 244.960326 
L 223.039062 244.810733 
L 223.910033 244.762474 
L 226.522947 244.321401 
L 227.393919 244.361569 
L 228.700376 244.408865 
L 230.442318 244.154663 
L 231.313289 244.08107 
L 232.619746 243.928587 
L 233.926203 243.66639 
L 234.797175 243.75029 
L 235.23266 243.574882 
L 236.539117 243.74451 
L 237.410088 243.83573 
L 238.716545 243.766087 
L 240.893974 243.846518 
L 241.329459 243.676023 
L 242.635916 243.796237 
L 243.071402 243.567465 
L 243.942373 243.678335 
L 244.377859 243.95527 
L 244.813344 244.041095 
L 246.990772 243.75106 
L 247.861744 243.825905 
L 248.297229 243.565538 
L 249.168201 243.658395 
L 249.603686 243.342449 
L 253.087571 242.97545 
L 259.18437 242.769411 
L 264.845684 242.92382 
L 267.023112 243.007527 
L 268.329569 242.813239 
L 269.20054 242.788483 
L 269.636026 242.885001 
L 270.942483 242.684259 
L 271.377968 242.887794 
L 272.24894 242.786171 
L 274.861854 243.023228 
L 275.732825 242.956956 
L 277.039282 243.020723 
L 278.345739 243.068115 
L 279.652196 243.129956 
L 281.829624 243.143152 
L 282.265109 243.163573 
L 283.136081 242.957341 
L 284.442538 242.85437 
L 284.878023 242.66143 
L 285.313509 242.678865 
L 285.748995 242.50259 
L 286.18448 242.138577 
L 287.055451 242.221321 
L 287.926423 242.110451 
L 289.23288 242.243572 
L 289.668365 242.175181 
L 290.103851 241.855671 
L 291.410308 241.86983 
L 294.458707 241.943808 
L 296.20065 242.189533 
L 297.071621 242.122106 
L 298.378078 242.147825 
L 300.120021 242.120372 
L 302.297449 242.116712 
L 302.732935 242.673471 
L 303.16842 242.458955 
L 304.474877 242.484866 
L 305.345848 242.546803 
L 306.21682 242.511452 
L 306.652305 242.921027 
L 307.523277 242.83077 
L 307.958762 242.919196 
L 308.394248 242.821041 
L 309.265219 242.971405 
L 310.571676 243.245835 
L 312.749104 243.307676 
L 313.620076 243.113099 
L 315.362018 243.277622 
L 316.232989 243.417101 
L 317.103961 243.277526 
L 318.410418 243.578253 
L 319.716875 243.495028 
L 320.15236 243.669473 
L 321.458817 243.48029 
L 322.329788 243.410936 
L 325.813674 243.189388 
L 326.249159 243.364315 
L 327.555616 243.436077 
L 327.991102 243.654928 
L 329.733044 243.416523 
L 332.781444 243.577001 
L 333.216929 243.874356 
L 333.652415 243.897474 
L 334.087901 243.80192 
L 334.523386 244.056122 
L 335.829843 244.152254 
L 336.700815 244.13742 
L 338.442757 244.232975 
L 338.878243 244.131352 
L 341.055671 244.133278 
L 342.362128 244.008537 
L 343.668585 244.162947 
L 344.539556 244.126247 
L 345.410527 243.96914 
L 346.281499 244.149268 
L 347.15247 244.047934 
L 348.894412 243.965287 
L 349.329898 244.051884 
L 350.636355 243.910767 
L 351.071841 243.985516 
L 351.942812 243.963168 
L 354.12024 244.119985 
L 354.991211 243.983396 
L 355.862183 243.919437 
L 356.297668 243.841413 
L 356.733154 243.932248 
L 358.475097 243.623429 
L 360.217039 243.723704 
L 360.652525 243.671496 
L 361.08801 243.835056 
L 361.523496 243.454957 
L 361.958982 243.427408 
L 362.394467 243.138914 
L 362.829953 243.215781 
L 364.571896 243.068886 
L 367.620295 242.795322 
L 368.055781 242.940966 
L 369.362238 243.027947 
L 369.797723 243.143441 
L 370.233209 243.042589 
L 370.668695 243.097302 
L 371.10418 243.4014 
L 371.975151 243.321546 
L 372.410637 243.419027 
L 373.717094 243.178022 
L 374.15258 243.099517 
L 374.588065 243.16155 
L 375.023551 243.353719 
L 375.459037 243.288796 
L 376.330008 243.414886 
L 378.507436 243.759152 
L 380.249379 243.708485 
L 381.12035 243.548777 
L 381.555836 243.673326 
L 382.426807 243.557736 
L 382.862293 243.240922 
L 385.475206 243.004733 
L 385.910692 242.779043 
L 387.217149 242.866699 
L 387.652635 242.868818 
L 388.08812 243.186017 
L 389.394577 243.206245 
L 390.265548 243.173784 
L 390.701034 243.239477 
L 393.313948 243.031897 
L 394.620405 243.031608 
L 395.491376 242.947516 
L 396.362347 243.046538 
L 398.10429 242.831541 
L 398.975261 243.005793 
L 400.717204 242.792529 
L 401.152689 242.765172 
L 402.023661 242.937017 
L 402.023661 242.937017 
" clip-path="url(#p5e2a9a76ed)" style="fill: none; stroke: #2ca02c; stroke-opacity: 0.8; stroke-width: 1.5; stroke-linecap: square"/>
   </g>
   <g id="line2d_20">
    <path d="M 147.264561 260.783174 
L 148.135532 260.727594 
L 148.571018 260.72326 
L 149.006503 260.932382 
L 152.925874 260.504794 
L 153.796845 260.453646 
L 155.538788 260.214182 
L 156.409759 260.235084 
L 158.587187 260.06979 
L 159.893644 260.150414 
L 161.635587 260.331987 
L 162.942044 260.356165 
L 164.683986 260.507203 
L 165.554958 260.435151 
L 165.990443 260.715746 
L 166.861415 260.684248 
L 167.732386 260.841354 
L 169.038843 260.824305 
L 170.3453 260.928047 
L 171.651757 260.881907 
L 173.393699 261.060109 
L 175.135642 261.122142 
L 176.442099 261.145935 
L 176.877584 261.128114 
L 177.31307 261.223476 
L 178.619527 261.219816 
L 180.796955 261.185717 
L 181.667926 261.071764 
L 182.538898 261.086598 
L 186.458268 260.834708 
L 189.942153 260.709774 
L 191.684096 259.999954 
L 192.555067 259.359103 
L 192.990553 259.186585 
L 193.426039 258.825077 
L 193.861524 258.753026 
L 194.29701 258.379669 
L 195.603467 258.057076 
L 196.909924 257.933684 
L 198.651866 257.802874 
L 199.522838 257.861536 
L 206.055122 257.633053 
L 206.490608 257.429229 
L 208.23255 257.423353 
L 208.668036 257.454466 
L 209.539007 257.342537 
L 212.587407 257.771665 
L 213.893864 257.74113 
L 214.329349 258.071429 
L 215.635806 258.10129 
L 217.377749 257.96865 
L 217.813235 258.018739 
L 218.684206 258.000534 
L 225.21649 257.821369 
L 226.087462 257.697976 
L 227.393919 257.7655 
L 231.748775 257.619953 
L 233.055232 257.44493 
L 234.797175 257.414684 
L 235.23266 257.541352 
L 236.539117 257.377984 
L 237.845574 257.304488 
L 238.716545 257.188994 
L 240.458488 257.36604 
L 241.764945 257.275687 
L 244.813344 257.113475 
L 246.119801 257.023604 
L 251.781115 256.953672 
L 252.2166 256.776434 
L 254.394028 256.571454 
L 255.265 256.446809 
L 256.135971 256.425521 
L 257.006942 256.378226 
L 257.877914 256.201854 
L 260.490827 255.918658 
L 261.361799 255.8599 
L 262.23277 255.730632 
L 263.539227 255.763575 
L 265.716655 255.665034 
L 266.152141 255.803935 
L 266.587626 255.683047 
L 273.990882 255.79777 
L 274.426368 255.772341 
L 275.297339 256.091851 
L 275.732825 256.328233 
L 276.16831 256.119882 
L 277.039282 256.595343 
L 277.474767 256.887689 
L 277.910253 257.009926 
L 278.345739 257.366811 
L 278.781224 257.361127 
L 279.21671 257.731883 
L 280.523167 257.969324 
L 283.136081 257.805957 
L 285.313509 257.854119 
L 293.587736 258.55344 
L 294.023222 258.364932 
L 296.636136 258.149838 
L 299.249049 258.198963 
L 301.426478 258.215146 
L 301.861963 258.257625 
L 303.16842 258.094836 
L 307.087791 257.941583 
L 307.958762 257.958343 
L 309.700705 257.985122 
L 311.878133 258.063241 
L 313.620076 258.096184 
L 314.055561 257.868279 
L 314.926532 257.834276 
L 317.539446 257.928675 
L 318.410418 258.017294 
L 320.15236 258.132788 
L 321.023331 258.198674 
L 321.458817 258.065168 
L 323.20076 258.098978 
L 323.636245 258.199349 
L 325.378188 258.115546 
L 325.813674 258.140012 
L 326.249159 258.030683 
L 327.991102 258.189812 
L 328.426587 257.997933 
L 329.297559 258.119399 
L 329.733044 257.928097 
L 331.039501 257.992731 
L 331.474987 257.780816 
L 332.781444 257.723984 
L 333.216929 257.51072 
L 335.829843 257.555319 
L 336.265329 257.364499 
L 338.007271 257.423161 
L 338.442757 257.048456 
L 338.878243 256.858695 
L 339.313728 256.483413 
L 339.749214 256.552671 
L 340.1847 256.365992 
L 341.926642 256.441608 
L 342.797614 256.580412 
L 344.10407 256.769691 
L 344.539556 256.726152 
L 344.975042 256.500173 
L 346.716984 256.413192 
L 347.15247 256.012479 
L 348.023441 255.930603 
L 348.458927 255.973853 
L 348.894412 255.689501 
L 351.942812 255.491168 
L 354.555726 255.382127 
L 355.862183 255.263551 
L 356.297668 255.049132 
L 358.039611 255.066855 
L 359.346068 254.981608 
L 360.217039 254.933349 
L 360.652525 254.708333 
L 361.08801 255.135342 
L 363.265439 255.001258 
L 364.13641 254.90108 
L 365.878353 254.576271 
L 366.313838 254.590913 
L 366.749324 254.820841 
L 367.184809 254.563845 
L 368.055781 254.664698 
L 371.975151 254.501041 
L 372.410637 254.165926 
L 373.281608 254.11314 
L 374.588065 253.981175 
L 376.765494 253.941296 
L 377.636465 253.980211 
L 378.507436 253.863947 
L 378.942922 254.064881 
L 379.813893 254.034635 
L 380.249379 253.804225 
L 381.12035 253.798639 
L 382.426807 253.628625 
L 383.733264 253.372496 
L 384.604235 252.816989 
L 386.346178 252.880371 
L 386.781663 252.530133 
L 387.217149 252.361757 
L 388.523606 252.372256 
L 388.959091 252.047448 
L 389.394577 252.023174 
L 389.830063 251.738148 
L 391.572005 251.528833 
L 394.620405 251.402744 
L 395.05589 251.352654 
L 395.491376 251.079091 
L 396.362347 251.004921 
L 396.797833 250.948089 
L 397.668804 250.643702 
L 398.975261 250.222472 
L 399.846233 249.89304 
L 400.281718 249.716668 
L 402.023661 249.542802 
L 402.023661 249.542802 
" clip-path="url(#p5e2a9a76ed)" style="fill: none; stroke: #d62728; stroke-opacity: 0.8; stroke-width: 1.5; stroke-linecap: square"/>
   </g>
   <g id="line2d_21">
    <path d="M 147.264561 223.293625 
L 148.135532 223.191231 
L 148.571018 223.247292 
L 149.006503 223.153279 
L 149.441989 223.517099 
L 152.054903 223.502939 
L 152.925874 223.344292 
L 153.796845 223.34747 
L 154.667817 223.108391 
L 155.103302 222.976811 
L 156.409759 222.982013 
L 157.716216 222.821631 
L 158.151702 223.120336 
L 159.022673 223.259815 
L 160.32913 223.342076 
L 161.200101 223.087874 
L 161.635587 223.252975 
L 162.071072 222.943483 
L 162.506558 223.239683 
L 162.942044 223.19152 
L 163.377529 223.281488 
L 165.119472 222.829337 
L 165.554958 223.465758 
L 166.425929 223.487816 
L 166.861415 224.124236 
L 168.167871 224.156602 
L 169.474328 224.24811 
L 169.909814 224.339041 
L 170.780785 224.138781 
L 173.393699 224.061721 
L 173.829185 223.945072 
L 174.26467 223.67854 
L 174.700156 223.693181 
L 175.135642 224.328157 
L 178.619527 224.327675 
L 179.055012 224.309566 
L 180.361469 223.889685 
L 180.796955 223.860305 
L 181.667926 223.627391 
L 183.409869 223.300271 
L 184.28084 224.041011 
L 185.151811 223.93043 
L 186.458268 224.040241 
L 187.764725 223.667559 
L 188.635697 223.444662 
L 189.071182 224.022902 
L 189.506668 224.05469 
L 189.942153 223.731711 
L 191.24861 223.478762 
L 191.684096 223.514883 
L 192.119582 223.386289 
L 193.426039 223.670834 
L 193.861524 223.561505 
L 194.732496 223.674013 
L 197.780895 223.633845 
L 198.216381 223.736528 
L 198.651866 223.431851 
L 199.087352 222.981531 
L 200.393809 220.933948 
L 200.829295 221.143166 
L 201.700266 221.030369 
L 202.135751 221.019966 
L 202.571237 220.676278 
L 203.006723 220.631969 
L 203.442208 220.342897 
L 204.748665 219.90587 
L 205.619637 219.376756 
L 206.055122 218.985001 
L 206.490608 217.376757 
L 208.23255 215.201061 
L 208.668036 215.162627 
L 209.539007 214.114321 
L 209.974493 214.239351 
L 210.845464 214.139943 
L 211.716436 213.694536 
L 213.893864 211.966271 
L 215.200321 210.564258 
L 215.635806 209.402577 
L 217.813235 205.799246 
L 218.24872 202.650089 
L 218.684206 202.753349 
L 219.990663 201.82439 
L 222.168091 198.965845 
L 222.603577 198.337227 
L 223.474548 196.762504 
L 224.345519 195.146939 
L 224.781005 194.227323 
L 225.21649 193.573083 
L 225.651976 192.459275 
L 226.087462 190.834559 
L 226.522947 189.970812 
L 226.958433 188.65896 
L 227.393919 188.645185 
L 228.700376 187.714106 
L 230.877804 183.675675 
L 231.313289 182.780911 
L 231.748775 182.514476 
L 232.619746 180.591055 
L 234.797175 175.303961 
L 235.668146 172.450137 
L 236.103631 172.44744 
L 236.974603 172.044126 
L 237.845574 171.3135 
L 240.458488 167.956087 
L 240.893974 167.265918 
L 241.329459 166.092581 
L 242.635916 164.351216 
L 244.377859 160.987831 
L 245.24883 160.66389 
L 245.684316 159.98027 
L 246.555287 159.156305 
L 246.990772 159.076644 
L 249.168201 156.437046 
L 249.603686 155.552107 
L 251.345629 152.970594 
L 252.652086 150.26116 
L 253.087571 149.614626 
L 253.523057 149.570413 
L 253.958543 149.324013 
L 254.394028 148.700404 
L 255.265 148.217719 
L 255.700485 147.99357 
L 256.135971 146.775443 
L 256.571457 146.206739 
L 257.006942 145.836465 
L 257.877914 144.440329 
L 259.18437 142.48175 
L 260.490827 139.696509 
L 260.926313 137.389329 
L 261.797284 135.567436 
L 262.23277 135.566376 
L 263.974712 134.122559 
L 265.716655 132.200198 
L 266.152141 131.604427 
L 267.458598 131.700848 
L 267.894083 131.862482 
L 268.329569 131.735622 
L 268.765055 131.215851 
L 269.20054 131.062116 
L 269.636026 131.029366 
L 270.071511 130.80907 
L 270.506997 130.03163 
L 271.813454 130.229964 
L 272.684425 130.529342 
L 273.119911 130.46779 
L 273.555397 130.598311 
L 273.990882 130.483491 
L 274.426368 130.528475 
L 274.861854 130.83267 
L 275.732825 130.860026 
L 277.474767 130.429646 
L 277.910253 129.799294 
L 278.345739 129.677057 
L 278.781224 128.833345 
L 279.21671 128.696756 
L 282.700595 128.955197 
L 283.136081 128.865036 
L 284.007052 129.555977 
L 285.748995 132.235838 
L 287.055451 132.525102 
L 287.490937 132.978987 
L 287.926423 133.029076 
L 288.361908 133.319881 
L 288.797394 133.757775 
L 289.23288 133.901974 
L 290.103851 134.517877 
L 290.539337 134.884587 
L 290.974822 135.461767 
L 291.410308 137.116151 
L 292.281279 138.353158 
L 293.15225 139.305236 
L 293.587736 139.697472 
L 294.458707 140.79972 
L 295.329679 140.776699 
L 296.20065 141.337985 
L 297.071621 142.179482 
L 300.120021 145.895513 
L 300.555506 147.112677 
L 302.732935 151.003538 
L 303.16842 154.126977 
L 303.603906 154.006282 
L 304.039391 154.353726 
L 304.474877 154.395628 
L 305.345848 155.155537 
L 305.781334 154.659655 
L 306.21682 155.042836 
L 307.523277 157.028964 
L 309.700705 161.089839 
L 310.13619 161.699288 
L 310.571676 162.529322 
L 311.007162 164.241887 
L 311.442647 165.157939 
L 311.878133 166.356898 
L 312.313619 166.169353 
L 312.749104 166.387144 
L 313.18459 166.770036 
L 313.620076 166.935426 
L 315.797504 171.019516 
L 317.974932 175.828163 
L 318.845903 178.033623 
L 319.716875 180.105384 
L 320.587846 182.933875 
L 321.458817 182.980786 
L 321.894303 183.156097 
L 323.636245 184.851612 
L 324.507217 186.355151 
L 324.942702 186.89149 
L 325.378188 187.613061 
L 325.813674 187.992486 
L 326.249159 189.120164 
L 327.991102 191.961178 
L 328.862073 193.386308 
L 329.297559 194.418336 
L 330.16853 194.742855 
L 330.604016 195.413567 
L 332.345958 197.125457 
L 332.781444 197.806765 
L 333.652415 198.580448 
L 334.087901 199.392758 
L 334.523386 199.609104 
L 334.958872 199.425509 
L 338.007271 197.209549 
L 338.878243 195.445547 
L 339.313728 194.641136 
L 339.749214 193.442947 
L 340.1847 191.767179 
L 340.620185 192.092951 
L 341.055671 192.952267 
L 341.491157 193.066316 
L 341.926642 192.886959 
L 342.362128 193.168132 
L 342.797614 193.090012 
L 344.539556 191.593216 
L 345.410527 190.341471 
L 345.846013 191.2555 
L 346.716984 190.054903 
L 347.587956 187.534845 
L 348.023441 186.785339 
L 348.458927 185.780476 
L 348.894412 185.098012 
L 349.329898 185.560758 
L 350.200869 186.00212 
L 350.636355 186.120696 
L 351.071841 185.693687 
L 351.942812 183.248377 
L 353.249269 180.204214 
L 353.684755 179.899248 
L 354.555726 177.460392 
L 354.991211 175.904163 
L 355.426697 175.237208 
L 356.733154 171.046968 
L 357.16864 170.74836 
L 357.604125 170.679584 
L 358.039611 170.741232 
L 358.910582 169.561538 
L 359.346068 168.694998 
L 360.217039 167.35945 
L 361.08801 165.497581 
L 362.829953 161.12808 
L 363.265439 159.721444 
L 363.700924 159.224407 
L 364.13641 158.197581 
L 366.313838 150.588281 
L 366.749324 150.449091 
L 367.620295 149.644391 
L 368.055781 148.993233 
L 371.10418 140.895371 
L 372.846123 134.389861 
L 375.023551 125.17877 
L 375.459037 125.11298 
L 376.765494 123.731196 
L 377.200979 122.893649 
L 379.378407 116.766503 
L 381.12035 109.931272 
L 381.991321 105.546648 
L 382.426807 102.984014 
L 383.733264 97.052794 
L 384.168749 96.879312 
L 384.604235 95.634599 
L 385.039721 95.115021 
L 386.346178 92.873921 
L 386.781663 91.862988 
L 387.217149 87.402268 
L 388.08812 84.155533 
L 388.523606 83.093741 
L 388.959091 81.722071 
L 389.394577 79.735076 
L 390.265548 76.927584 
L 390.701034 76.145327 
L 391.572005 72.502118 
L 392.442977 68.105165 
L 393.749434 66.688511 
L 395.05589 63.872253 
L 395.491376 62.924895 
L 396.362347 60.172116 
L 397.233319 56.714332 
L 398.10429 51.760909 
L 399.846233 42.544135 
L 401.152689 35.193082 
L 401.588175 35.258583 
L 402.023661 34.990125 
L 402.023661 34.990125 
" clip-path="url(#p5e2a9a76ed)" style="fill: none; stroke: #9467bd; stroke-opacity: 0.8; stroke-width: 1.5; stroke-linecap: square"/>
   </g>
   <g id="patch_3">
    <path d="M 61.909375 288.430125 
L 61.909375 22.318125 
" style="fill: none; stroke: #000000; stroke-width: 0.8; stroke-linejoin: miter; stroke-linecap: square"/>
   </g>
   <g id="patch_4">
    <path d="M 419.029375 288.430125 
L 419.029375 22.318125 
" style="fill: none; stroke: #000000; stroke-width: 0.8; stroke-linejoin: miter; stroke-linecap: square"/>
   </g>
   <g id="patch_5">
    <path d="M 61.909375 288.430125 
L 419.029375 288.430125 
" style="fill: none; stroke: #000000; stroke-width: 0.8; stroke-linejoin: miter; stroke-linecap: square"/>
   </g>
   <g id="patch_6">
    <path d="M 61.909375 22.318125 
L 419.029375 22.318125 
" style="fill: none; stroke: #000000; stroke-width: 0.8; stroke-linejoin: miter; stroke-linecap: square"/>
   </g>
   <g id="text_19">
    <!-- Get previous sibling [branch] -->
    <g transform="translate(153.320312 16.318125) scale(0.12 -0.12)">
     <defs>
      <path id="DejaVuSans-47" d="M 3809 666 
L 3809 1919 
L 2778 1919 
L 2778 2438 
L 4434 2438 
L 4434 434 
Q 4069 175 3628 42 
Q 3188 -91 2688 -91 
Q 1594 -91 976 548 
Q 359 1188 359 2328 
Q 359 3472 976 4111 
Q 1594 4750 2688 4750 
Q 3144 4750 3555 4637 
Q 3966 4525 4313 4306 
L 4313 3634 
Q 3963 3931 3569 4081 
Q 3175 4231 2741 4231 
Q 1884 4231 1454 3753 
Q 1025 3275 1025 2328 
Q 1025 1384 1454 906 
Q 1884 428 2741 428 
Q 3075 428 3337 486 
Q 3600 544 3809 666 
z
" transform="scale(0.015625)"/>
      <path id="DejaVuSans-70" d="M 1159 525 
L 1159 -1331 
L 581 -1331 
L 581 3500 
L 1159 3500 
L 1159 2969 
Q 1341 3281 1617 3432 
Q 1894 3584 2278 3584 
Q 2916 3584 3314 3078 
Q 3713 2572 3713 1747 
Q 3713 922 3314 415 
Q 2916 -91 2278 -91 
Q 1894 -91 1617 61 
Q 1341 213 1159 525 
z
M 3116 1747 
Q 3116 2381 2855 2742 
Q 2594 3103 2138 3103 
Q 1681 3103 1420 2742 
Q 1159 2381 1159 1747 
Q 1159 1113 1420 752 
Q 1681 391 2138 391 
Q 2594 391 2855 752 
Q 3116 1113 3116 1747 
z
" transform="scale(0.015625)"/>
      <path id="DejaVuSans-72" d="M 2631 2963 
Q 2534 3019 2420 3045 
Q 2306 3072 2169 3072 
Q 1681 3072 1420 2755 
Q 1159 2438 1159 1844 
L 1159 0 
L 581 0 
L 581 3500 
L 1159 3500 
L 1159 2956 
Q 1341 3275 1631 3429 
Q 1922 3584 2338 3584 
Q 2397 3584 2469 3576 
Q 2541 3569 2628 3553 
L 2631 2963 
z
" transform="scale(0.015625)"/>
      <path id="DejaVuSans-76" d="M 191 3500 
L 800 3500 
L 1894 563 
L 2988 3500 
L 3597 3500 
L 2284 0 
L 1503 0 
L 191 3500 
z
" transform="scale(0.015625)"/>
      <path id="DejaVuSans-67" d="M 2906 1791 
Q 2906 2416 2648 2759 
Q 2391 3103 1925 3103 
Q 1463 3103 1205 2759 
Q 947 2416 947 1791 
Q 947 1169 1205 825 
Q 1463 481 1925 481 
Q 2391 481 2648 825 
Q 2906 1169 2906 1791 
z
M 3481 434 
Q 3481 -459 3084 -895 
Q 2688 -1331 1869 -1331 
Q 1566 -1331 1297 -1286 
Q 1028 -1241 775 -1147 
L 775 -588 
Q 1028 -725 1275 -790 
Q 1522 -856 1778 -856 
Q 2344 -856 2625 -561 
Q 2906 -266 2906 331 
L 2906 616 
Q 2728 306 2450 153 
Q 2172 0 1784 0 
Q 1141 0 747 490 
Q 353 981 353 1791 
Q 353 2603 747 3093 
Q 1141 3584 1784 3584 
Q 2172 3584 2450 3431 
Q 2728 3278 2906 2969 
L 2906 3500 
L 3481 3500 
L 3481 434 
z
" transform="scale(0.015625)"/>
      <path id="DejaVuSans-5b" d="M 550 4863 
L 1875 4863 
L 1875 4416 
L 1125 4416 
L 1125 -397 
L 1875 -397 
L 1875 -844 
L 550 -844 
L 550 4863 
z
" transform="scale(0.015625)"/>
      <path id="DejaVuSans-68" d="M 3513 2113 
L 3513 0 
L 2938 0 
L 2938 2094 
Q 2938 2591 2744 2837 
Q 2550 3084 2163 3084 
Q 1697 3084 1428 2787 
Q 1159 2491 1159 1978 
L 1159 0 
L 581 0 
L 581 4863 
L 1159 4863 
L 1159 2956 
Q 1366 3272 1645 3428 
Q 1925 3584 2291 3584 
Q 2894 3584 3203 3211 
Q 3513 2838 3513 2113 
z
" transform="scale(0.015625)"/>
      <path id="DejaVuSans-5d" d="M 1947 4863 
L 1947 -844 
L 622 -844 
L 622 -397 
L 1369 -397 
L 1369 4416 
L 622 4416 
L 622 4863 
L 1947 4863 
z
" transform="scale(0.015625)"/>
     </defs>
     <use xlink:href="#DejaVuSans-47"/>
     <use xlink:href="#DejaVuSans-65" transform="translate(77.490234 0)"/>
     <use xlink:href="#DejaVuSans-74" transform="translate(139.013672 0)"/>
     <use xlink:href="#DejaVuSans-20" transform="translate(178.222656 0)"/>
     <use xlink:href="#DejaVuSans-70" transform="translate(210.009766 0)"/>
     <use xlink:href="#DejaVuSans-72" transform="translate(273.486328 0)"/>
     <use xlink:href="#DejaVuSans-65" transform="translate(312.349609 0)"/>
     <use xlink:href="#DejaVuSans-76" transform="translate(373.873047 0)"/>
     <use xlink:href="#DejaVuSans-69" transform="translate(433.052734 0)"/>
     <use xlink:href="#DejaVuSans-6f" transform="translate(460.835938 0)"/>
     <use xlink:href="#DejaVuSans-75" transform="translate(522.017578 0)"/>
     <use xlink:href="#DejaVuSans-73" transform="translate(585.396484 0)"/>
     <use xlink:href="#DejaVuSans-20" transform="translate(637.496094 0)"/>
     <use xlink:href="#DejaVuSans-73" transform="translate(669.283203 0)"/>
     <use xlink:href="#DejaVuSans-69" transform="translate(721.382812 0)"/>
     <use xlink:href="#DejaVuSans-62" transform="translate(749.166016 0)"/>
     <use xlink:href="#DejaVuSans-6c" transform="translate(812.642578 0)"/>
     <use xlink:href="#DejaVuSans-69" transform="translate(840.425781 0)"/>
     <use xlink:href="#DejaVuSans-6e" transform="translate(868.208984 0)"/>
     <use xlink:href="#DejaVuSans-67" transform="translate(931.587891 0)"/>
     <use xlink:href="#DejaVuSans-20" transform="translate(995.064453 0)"/>
     <use xlink:href="#DejaVuSans-5b" transform="translate(1026.851562 0)"/>
     <use xlink:href="#DejaVuSans-62" transform="translate(1065.865234 0)"/>
     <use xlink:href="#DejaVuSans-72" transform="translate(1129.341797 0)"/>
     <use xlink:href="#DejaVuSans-61" transform="translate(1170.455078 0)"/>
     <use xlink:href="#DejaVuSans-6e" transform="translate(1231.734375 0)"/>
     <use xlink:href="#DejaVuSans-63" transform="translate(1295.113281 0)"/>
     <use xlink:href="#DejaVuSans-68" transform="translate(1350.09375 0)"/>
     <use xlink:href="#DejaVuSans-5d" transform="translate(1413.472656 0)"/>
    </g>
   </g>
   <g id="legend_1">
    <g id="patch_7">
     <path d="M 92.911719 365.802375 
L 380.507031 365.802375 
Q 382.507031 365.802375 382.507031 363.802375 
L 382.507031 335.446125 
Q 382.507031 333.446125 380.507031 333.446125 
L 92.911719 333.446125 
Q 90.911719 333.446125 90.911719 335.446125 
L 90.911719 363.802375 
Q 90.911719 365.802375 92.911719 365.802375 
z
" style="fill: #4d4d4d; opacity: 0.5; stroke: #4d4d4d; stroke-linejoin: miter"/>
    </g>
    <g id="patch_8">
     <path d="M 90.911719 363.802375 
L 378.507031 363.802375 
Q 380.507031 363.802375 380.507031 361.802375 
L 380.507031 333.446125 
Q 380.507031 331.446125 378.507031 331.446125 
L 90.911719 331.446125 
Q 88.911719 331.446125 88.911719 333.446125 
L 88.911719 361.802375 
Q 88.911719 363.802375 90.911719 363.802375 
z
" style="fill: #ffffff; stroke: #cccccc; stroke-linejoin: miter"/>
    </g>
    <g id="line2d_22">
     <path d="M 92.911719 339.544562 
L 102.911719 339.544562 
L 112.911719 339.544562 
" style="fill: none; stroke: #1f77b4; stroke-opacity: 0.8; stroke-width: 1.5; stroke-linecap: square"/>
    </g>
    <g id="text_20">
     <!-- MPTT -->
     <g transform="translate(120.911719 343.044562) scale(0.1 -0.1)">
      <defs>
       <path id="DejaVuSans-4d" d="M 628 4666 
L 1569 4666 
L 2759 1491 
L 3956 4666 
L 4897 4666 
L 4897 0 
L 4281 0 
L 4281 4097 
L 3078 897 
L 2444 897 
L 1241 4097 
L 1241 0 
L 628 0 
L 628 4666 
z
" transform="scale(0.015625)"/>
       <path id="DejaVuSans-50" d="M 1259 4147 
L 1259 2394 
L 2053 2394 
Q 2494 2394 2734 2622 
Q 2975 2850 2975 3272 
Q 2975 3691 2734 3919 
Q 2494 4147 2053 4147 
L 1259 4147 
z
M 628 4666 
L 2053 4666 
Q 2838 4666 3239 4311 
Q 3641 3956 3641 3272 
Q 3641 2581 3239 2228 
Q 2838 1875 2053 1875 
L 1259 1875 
L 1259 0 
L 628 0 
L 628 4666 
z
" transform="scale(0.015625)"/>
       <path id="DejaVuSans-54" d="M -19 4666 
L 3928 4666 
L 3928 4134 
L 2272 4134 
L 2272 0 
L 1638 0 
L 1638 4134 
L -19 4134 
L -19 4666 
z
" transform="scale(0.015625)"/>
      </defs>
      <use xlink:href="#DejaVuSans-4d"/>
      <use xlink:href="#DejaVuSans-50" transform="translate(86.279297 0)"/>
      <use xlink:href="#DejaVuSans-54" transform="translate(146.582031 0)"/>
      <use xlink:href="#DejaVuSans-54" transform="translate(205.916016 0)"/>
     </g>
    </g>
    <g id="line2d_23">
     <path d="M 92.911719 354.222687 
L 102.911719 354.222687 
L 112.911719 354.222687 
" style="fill: none; stroke: #ff7f0e; stroke-opacity: 0.8; stroke-width: 1.5; stroke-linecap: square"/>
    </g>
    <g id="text_21">
     <!-- tree -->
     <g transform="translate(120.911719 357.722687) scale(0.1 -0.1)">
      <use xlink:href="#DejaVuSans-74"/>
      <use xlink:href="#DejaVuSans-72" transform="translate(39.208984 0)"/>
      <use xlink:href="#DejaVuSans-65" transform="translate(78.072266 0)"/>
      <use xlink:href="#DejaVuSans-65" transform="translate(139.595703 0)"/>
     </g>
    </g>
    <g id="line2d_24">
     <path d="M 167.610156 339.544562 
L 177.610156 339.544562 
L 187.610156 339.544562 
" style="fill: none; stroke: #2ca02c; stroke-opacity: 0.8; stroke-width: 1.5; stroke-linecap: square"/>
    </g>
    <g id="text_22">
     <!-- treebeard AL -->
     <g transform="translate(195.610156 343.044562) scale(0.1 -0.1)">
      <defs>
       <path id="DejaVuSans-4c" d="M 628 4666 
L 1259 4666 
L 1259 531 
L 3531 531 
L 3531 0 
L 628 0 
L 628 4666 
z
" transform="scale(0.015625)"/>
      </defs>
      <use xlink:href="#DejaVuSans-74"/>
      <use xlink:href="#DejaVuSans-72" transform="translate(39.208984 0)"/>
      <use xlink:href="#DejaVuSans-65" transform="translate(78.072266 0)"/>
      <use xlink:href="#DejaVuSans-65" transform="translate(139.595703 0)"/>
      <use xlink:href="#DejaVuSans-62" transform="translate(201.119141 0)"/>
      <use xlink:href="#DejaVuSans-65" transform="translate(264.595703 0)"/>
      <use xlink:href="#DejaVuSans-61" transform="translate(326.119141 0)"/>
      <use xlink:href="#DejaVuSans-72" transform="translate(387.398438 0)"/>
      <use xlink:href="#DejaVuSans-64" transform="translate(426.761719 0)"/>
      <use xlink:href="#DejaVuSans-20" transform="translate(490.238281 0)"/>
      <use xlink:href="#DejaVuSans-41" transform="translate(522.025391 0)"/>
      <use xlink:href="#DejaVuSans-4c" transform="translate(590.433594 0)"/>
     </g>
    </g>
    <g id="line2d_25">
     <path d="M 167.610156 354.222687 
L 177.610156 354.222687 
L 187.610156 354.222687 
" style="fill: none; stroke: #d62728; stroke-opacity: 0.8; stroke-width: 1.5; stroke-linecap: square"/>
    </g>
    <g id="text_23">
     <!-- treebeard MP -->
     <g transform="translate(195.610156 357.722687) scale(0.1 -0.1)">
      <use xlink:href="#DejaVuSans-74"/>
      <use xlink:href="#DejaVuSans-72" transform="translate(39.208984 0)"/>
      <use xlink:href="#DejaVuSans-65" transform="translate(78.072266 0)"/>
      <use xlink:href="#DejaVuSans-65" transform="translate(139.595703 0)"/>
      <use xlink:href="#DejaVuSans-62" transform="translate(201.119141 0)"/>
      <use xlink:href="#DejaVuSans-65" transform="translate(264.595703 0)"/>
      <use xlink:href="#DejaVuSans-61" transform="translate(326.119141 0)"/>
      <use xlink:href="#DejaVuSans-72" transform="translate(387.398438 0)"/>
      <use xlink:href="#DejaVuSans-64" transform="translate(426.761719 0)"/>
      <use xlink:href="#DejaVuSans-20" transform="translate(490.238281 0)"/>
      <use xlink:href="#DejaVuSans-4d" transform="translate(522.025391 0)"/>
      <use xlink:href="#DejaVuSans-50" transform="translate(608.304688 0)"/>
     </g>
    </g>
    <g id="line2d_26">
     <path d="M 282.472656 339.544562 
L 292.472656 339.544562 
L 302.472656 339.544562 
" style="fill: none; stroke: #9467bd; stroke-opacity: 0.8; stroke-width: 1.5; stroke-linecap: square"/>
    </g>
    <g id="text_24">
     <!-- treebeard NS -->
     <g transform="translate(310.472656 343.044562) scale(0.1 -0.1)">
      <defs>
       <path id="DejaVuSans-4e" d="M 628 4666 
L 1478 4666 
L 3547 763 
L 3547 4666 
L 4159 4666 
L 4159 0 
L 3309 0 
L 1241 3903 
L 1241 0 
L 628 0 
L 628 4666 
z
" transform="scale(0.015625)"/>
       <path id="DejaVuSans-53" d="M 3425 4513 
L 3425 3897 
Q 3066 4069 2747 4153 
Q 2428 4238 2131 4238 
Q 1616 4238 1336 4038 
Q 1056 3838 1056 3469 
Q 1056 3159 1242 3001 
Q 1428 2844 1947 2747 
L 2328 2669 
Q 3034 2534 3370 2195 
Q 3706 1856 3706 1288 
Q 3706 609 3251 259 
Q 2797 -91 1919 -91 
Q 1588 -91 1214 -16 
Q 841 59 441 206 
L 441 856 
Q 825 641 1194 531 
Q 1563 422 1919 422 
Q 2459 422 2753 634 
Q 3047 847 3047 1241 
Q 3047 1584 2836 1778 
Q 2625 1972 2144 2069 
L 1759 2144 
Q 1053 2284 737 2584 
Q 422 2884 422 3419 
Q 422 4038 858 4394 
Q 1294 4750 2059 4750 
Q 2388 4750 2728 4690 
Q 3069 4631 3425 4513 
z
" transform="scale(0.015625)"/>
      </defs>
      <use xlink:href="#DejaVuSans-74"/>
      <use xlink:href="#DejaVuSans-72" transform="translate(39.208984 0)"/>
      <use xlink:href="#DejaVuSans-65" transform="translate(78.072266 0)"/>
      <use xlink:href="#DejaVuSans-65" transform="translate(139.595703 0)"/>
      <use xlink:href="#DejaVuSans-62" transform="translate(201.119141 0)"/>
      <use xlink:href="#DejaVuSans-65" transform="translate(264.595703 0)"/>
      <use xlink:href="#DejaVuSans-61" transform="translate(326.119141 0)"/>
      <use xlink:href="#DejaVuSans-72" transform="translate(387.398438 0)"/>
      <use xlink:href="#DejaVuSans-64" transform="translate(426.761719 0)"/>
      <use xlink:href="#DejaVuSans-20" transform="translate(490.238281 0)"/>
      <use xlink:href="#DejaVuSans-4e" transform="translate(522.025391 0)"/>
      <use xlink:href="#DejaVuSans-53" transform="translate(596.830078 0)"/>
     </g>
    </g>
   </g>
  </g>
 </g>
 <defs>
  <clipPath id="p5e2a9a76ed">
   <rect x="61.909375" y="22.318125" width="357.12" height="266.112"/>
  </clipPath>
 </defs>
</svg>
