<?xml version="1.0" encoding="utf-8" standalone="no"?>
<!DOCTYPE svg PUBLIC "-//W3C//DTD SVG 1.1//EN"
  "http://www.w3.org/Graphics/SVG/1.1/DTD/svg11.dtd">
<svg xmlns:xlink="http://www.w3.org/1999/xlink" width="426.035625pt" height="371.002375pt" viewBox="0 0 426.035625 371.002375" xmlns="http://www.w3.org/2000/svg" version="1.1">
 <metadata>
  <rdf:RDF xmlns:dc="http://purl.org/dc/elements/1.1/" xmlns:cc="http://creativecommons.org/ns#" xmlns:rdf="http://www.w3.org/1999/02/22-rdf-syntax-ns#">
   <cc:Work>
    <dc:type rdf:resource="http://purl.org/dc/dcmitype/StillImage"/>
    <dc:date>2026-06-29T06:11:44.172669</dc:date>
    <dc:format>image/svg+xml</dc:format>
    <dc:creator>
     <cc:Agent>
      <dc:title>Matplotlib v3.10.6, https://matplotlib.org/</dc:title>
     </cc:Agent>
    </dc:creator>
   </cc:Work>
  </rdf:RDF>
 </metadata>
 <defs>
  <style type="text/css">*{stroke-linejoin: round; stroke-linecap: butt}</style>
 </defs>
 <g id="figure_1">
  <g id="patch_1">
   <path d="M 0 371.002375 
L 426.035625 371.002375 
L 426.035625 0 
L 0 0 
z
" style="fill: #ffffff"/>
  </g>
  <g id="axes_1">
   <g id="patch_2">
    <path d="M 61.715625 288.430125 
L 418.835625 288.430125 
L 418.835625 22.318125 
L 61.715625 22.318125 
z
" style="fill: #ffffff"/>
   </g>
   <g id="matplotlib.axis_1">
    <g id="xtick_1">
     <g id="line2d_1">
      <defs>
       <path id="m74b46d8cf9" d="M 0 0 
L 0 3.5 
" style="stroke: #000000; stroke-width: 0.8"/>
      </defs>
      <g>
       <use xlink:href="#m74b46d8cf9" x="61.715625" y="288.430125" style="stroke: #000000; stroke-width: 0.8"/>
      </g>
     </g>
     <g id="text_1">
      <!-- 0 -->
      <g transform="translate(58.534375 303.028562) scale(0.1 -0.1)">
       <defs>
        <path id="DejaVuSans-30" d="M 2034 4250 
Q 1547 4250 1301 3770 
Q 1056 3291 1056 2328 
Q 1056 1369 1301 889 
Q 1547 409 2034 409 
Q 2525 409 2770 889 
Q 3016 1369 3016 2328 
Q 3016 3291 2770 3770 
Q 2525 4250 2034 4250 
z
M 2034 4750 
Q 2819 4750 3233 4129 
Q 3647 3509 3647 2328 
Q 3647 1150 3233 529 
Q 2819 -91 2034 -91 
Q 1250 -91 836 529 
Q 422 1150 422 2328 
Q 422 3509 836 4129 
Q 1250 4750 2034 4750 
z
" transform="scale(0.015625)"/>
       </defs>
       <use xlink:href="#DejaVuSans-30"/>
      </g>
     </g>
    </g>
    <g id="xtick_2">
     <g id="line2d_2">
      <g>
       <use xlink:href="#m74b46d8cf9" x="105.264189" y="288.430125" style="stroke: #000000; stroke-width: 0.8"/>
      </g>
     </g>
     <g id="text_2">
      <!-- 500  -->
      <g transform="translate(94.131377 303.028562) scale(0.1 -0.1)">
       <defs>
        <path id="DejaVuSans-35" d="M 691 4666 
L 3169 4666 
L 3169 4134 
L 1269 4134 
L 1269 2991 
Q 1406 3038 1543 3061 
Q 1681 3084 1819 3084 
Q 2600 3084 3056 2656 
Q 3513 2228 3513 1497 
Q 3513 744 3044 326 
Q 2575 -91 1722 -91 
Q 1428 -91 1123 -41 
Q 819 9 494 109 
L 494 744 
Q 775 591 1075 516 
Q 1375 441 1709 441 
Q 2250 441 2565 725 
Q 2881 1009 2881 1497 
Q 2881 1984 2565 2268 
Q 2250 2553 1709 2553 
Q 1456 2553 1204 2497 
Q 953 2441 691 2322 
L 691 4666 
z
" transform="scale(0.015625)"/>
        <path id="DejaVuSans-20" transform="scale(0.015625)"/>
       </defs>
       <use xlink:href="#DejaVuSans-35"/>
       <use xlink:href="#DejaVuSans-30" transform="translate(63.623047 0)"/>
       <use xlink:href="#DejaVuSans-30" transform="translate(127.246094 0)"/>
       <use xlink:href="#DejaVuSans-20" transform="translate(190.869141 0)"/>
      </g>
     </g>
    </g>
    <g id="xtick_3">
     <g id="line2d_3">
      <g>
       <use xlink:href="#m74b46d8cf9" x="148.812753" y="288.430125" style="stroke: #000000; stroke-width: 0.8"/>
      </g>
     </g>
     <g id="text_3">
      <!-- 1 k -->
      <g transform="translate(141.147128 303.028562) scale(0.1 -0.1)">
       <defs>
        <path id="DejaVuSans-31" d="M 794 531 
L 1825 531 
L 1825 4091 
L 703 3866 
L 703 4441 
L 1819 4666 
L 2450 4666 
L 2450 531 
L 3481 531 
L 3481 0 
L 794 0 
L 794 531 
z
" transform="scale(0.015625)"/>
        <path id="DejaVuSans-6b" d="M 581 4863 
L 1159 4863 
L 1159 1991 
L 2875 3500 
L 3609 3500 
L 1753 1863 
L 3688 0 
L 2938 0 
L 1159 1709 
L 1159 0 
L 581 0 
L 581 4863 
z
" transform="scale(0.015625)"/>
       </defs>
       <use xlink:href="#DejaVuSans-31"/>
       <use xlink:href="#DejaVuSans-20" transform="translate(63.623047 0)"/>
       <use xlink:href="#DejaVuSans-6b" transform="translate(95.410156 0)"/>
      </g>
     </g>
    </g>
    <g id="xtick_4">
     <g id="line2d_4">
      <g>
       <use xlink:href="#m74b46d8cf9" x="192.361317" y="288.430125" style="stroke: #000000; stroke-width: 0.8"/>
      </g>
     </g>
     <g id="text_4">
      <!-- 1.5 k -->
      <g transform="translate(179.92538 303.028562) scale(0.1 -0.1)">
       <defs>
        <path id="DejaVuSans-2e" d="M 684 794 
L 1344 794 
L 1344 0 
L 684 0 
L 684 794 
z
" transform="scale(0.015625)"/>
       </defs>
       <use xlink:href="#DejaVuSans-31"/>
       <use xlink:href="#DejaVuSans-2e" transform="translate(63.623047 0)"/>
       <use xlink:href="#DejaVuSans-35" transform="translate(95.410156 0)"/>
       <use xlink:href="#DejaVuSans-20" transform="translate(159.033203 0)"/>
       <use xlink:href="#DejaVuSans-6b" transform="translate(190.820312 0)"/>
      </g>
     </g>
    </g>
    <g id="xtick_5">
     <g id="line2d_5">
      <g>
       <use xlink:href="#m74b46d8cf9" x="235.909881" y="288.430125" style="stroke: #000000; stroke-width: 0.8"/>
      </g>
     </g>
     <g id="text_5">
      <!-- 2 k -->
      <g transform="translate(228.244256 303.028562) scale(0.1 -0.1)">
       <defs>
        <path id="DejaVuSans-32" d="M 1228 531 
L 3431 531 
L 3431 0 
L 469 0 
L 469 531 
Q 828 903 1448 1529 
Q 2069 2156 2228 2338 
Q 2531 2678 2651 2914 
Q 2772 3150 2772 3378 
Q 2772 3750 2511 3984 
Q 2250 4219 1831 4219 
Q 1534 4219 1204 4116 
Q 875 4013 500 3803 
L 500 4441 
Q 881 4594 1212 4672 
Q 1544 4750 1819 4750 
Q 2544 4750 2975 4387 
Q 3406 4025 3406 3419 
Q 3406 3131 3298 2873 
Q 3191 2616 2906 2266 
Q 2828 2175 2409 1742 
Q 1991 1309 1228 531 
z
" transform="scale(0.015625)"/>
       </defs>
       <use xlink:href="#DejaVuSans-32"/>
       <use xlink:href="#DejaVuSans-20" transform="translate(63.623047 0)"/>
       <use xlink:href="#DejaVuSans-6b" transform="translate(95.410156 0)"/>
      </g>
     </g>
    </g>
    <g id="xtick_6">
     <g id="line2d_6">
      <g>
       <use xlink:href="#m74b46d8cf9" x="279.458446" y="288.430125" style="stroke: #000000; stroke-width: 0.8"/>
      </g>
     </g>
     <g id="text_6">
      <!-- 2.5 k -->
      <g transform="translate(267.022508 303.028562) scale(0.1 -0.1)">
       <use xlink:href="#DejaVuSans-32"/>
       <use xlink:href="#DejaVuSans-2e" transform="translate(63.623047 0)"/>
       <use xlink:href="#DejaVuSans-35" transform="translate(95.410156 0)"/>
       <use xlink:href="#DejaVuSans-20" transform="translate(159.033203 0)"/>
       <use xlink:href="#DejaVuSans-6b" transform="translate(190.820312 0)"/>
      </g>
     </g>
    </g>
    <g id="xtick_7">
     <g id="line2d_7">
      <g>
       <use xlink:href="#m74b46d8cf9" x="323.00701" y="288.430125" style="stroke: #000000; stroke-width: 0.8"/>
      </g>
     </g>
     <g id="text_7">
      <!-- 3 k -->
      <g transform="translate(315.341385 303.028562) scale(0.1 -0.1)">
       <defs>
        <path id="DejaVuSans-33" d="M 2597 2516 
Q 3050 2419 3304 2112 
Q 3559 1806 3559 1356 
Q 3559 666 3084 287 
Q 2609 -91 1734 -91 
Q 1441 -91 1130 -33 
Q 819 25 488 141 
L 488 750 
Q 750 597 1062 519 
Q 1375 441 1716 441 
Q 2309 441 2620 675 
Q 2931 909 2931 1356 
Q 2931 1769 2642 2001 
Q 2353 2234 1838 2234 
L 1294 2234 
L 1294 2753 
L 1863 2753 
Q 2328 2753 2575 2939 
Q 2822 3125 2822 3475 
Q 2822 3834 2567 4026 
Q 2313 4219 1838 4219 
Q 1578 4219 1281 4162 
Q 984 4106 628 3988 
L 628 4550 
Q 988 4650 1302 4700 
Q 1616 4750 1894 4750 
Q 2613 4750 3031 4423 
Q 3450 4097 3450 3541 
Q 3450 3153 3228 2886 
Q 3006 2619 2597 2516 
z
" transform="scale(0.015625)"/>
       </defs>
       <use xlink:href="#DejaVuSans-33"/>
       <use xlink:href="#DejaVuSans-20" transform="translate(63.623047 0)"/>
       <use xlink:href="#DejaVuSans-6b" transform="translate(95.410156 0)"/>
      </g>
     </g>
    </g>
    <g id="xtick_8">
     <g id="line2d_8">
      <g>
       <use xlink:href="#m74b46d8cf9" x="366.555574" y="288.430125" style="stroke: #000000; stroke-width: 0.8"/>
      </g>
     </g>
     <g id="text_8">
      <!-- 3.5 k -->
      <g transform="translate(354.119636 303.028562) scale(0.1 -0.1)">
       <use xlink:href="#DejaVuSans-33"/>
       <use xlink:href="#DejaVuSans-2e" transform="translate(63.623047 0)"/>
       <use xlink:href="#DejaVuSans-35" transform="translate(95.410156 0)"/>
       <use xlink:href="#DejaVuSans-20" transform="translate(159.033203 0)"/>
       <use xlink:href="#DejaVuSans-6b" transform="translate(190.820312 0)"/>
      </g>
     </g>
    </g>
    <g id="xtick_9">
     <g id="line2d_9">
      <g>
       <use xlink:href="#m74b46d8cf9" x="410.104138" y="288.430125" style="stroke: #000000; stroke-width: 0.8"/>
      </g>
     </g>
     <g id="text_9">
      <!-- 4 k -->
      <g transform="translate(402.438513 303.028562) scale(0.1 -0.1)">
       <defs>
        <path id="DejaVuSans-34" d="M 2419 4116 
L 825 1625 
L 2419 1625 
L 2419 4116 
z
M 2253 4666 
L 3047 4666 
L 3047 1625 
L 3713 1625 
L 3713 1100 
L 3047 1100 
L 3047 0 
L 2419 0 
L 2419 1100 
L 313 1100 
L 313 1709 
L 2253 4666 
z
" transform="scale(0.015625)"/>
       </defs>
       <use xlink:href="#DejaVuSans-34"/>
       <use xlink:href="#DejaVuSans-20" transform="translate(63.623047 0)"/>
       <use xlink:href="#DejaVuSans-6b" transform="translate(95.410156 0)"/>
      </g>
     </g>
    </g>
    <g id="text_10">
     <!-- Amount of objects in table -->
     <g transform="translate(174.217031 316.706687) scale(0.1 -0.1)">
      <defs>
       <path id="DejaVuSans-41" d="M 2188 4044 
L 1331 1722 
L 3047 1722 
L 2188 4044 
z
M 1831 4666 
L 2547 4666 
L 4325 0 
L 3669 0 
L 3244 1197 
L 1141 1197 
L 716 0 
L 50 0 
L 1831 4666 
z
" transform="scale(0.015625)"/>
       <path id="DejaVuSans-6d" d="M 3328 2828 
Q 3544 3216 3844 3400 
Q 4144 3584 4550 3584 
Q 5097 3584 5394 3201 
Q 5691 2819 5691 2113 
L 5691 0 
L 5113 0 
L 5113 2094 
Q 5113 2597 4934 2840 
Q 4756 3084 4391 3084 
Q 3944 3084 3684 2787 
Q 3425 2491 3425 1978 
L 3425 0 
L 2847 0 
L 2847 2094 
Q 2847 2600 2669 2842 
Q 2491 3084 2119 3084 
Q 1678 3084 1418 2786 
Q 1159 2488 1159 1978 
L 1159 0 
L 581 0 
L 581 3500 
L 1159 3500 
L 1159 2956 
Q 1356 3278 1631 3431 
Q 1906 3584 2284 3584 
Q 2666 3584 2933 3390 
Q 3200 3197 3328 2828 
z
" transform="scale(0.015625)"/>
       <path id="DejaVuSans-6f" d="M 1959 3097 
Q 1497 3097 1228 2736 
Q 959 2375 959 1747 
Q 959 1119 1226 758 
Q 1494 397 1959 397 
Q 2419 397 2687 759 
Q 2956 1122 2956 1747 
Q 2956 2369 2687 2733 
Q 2419 3097 1959 3097 
z
M 1959 3584 
Q 2709 3584 3137 3096 
Q 3566 2609 3566 1747 
Q 3566 888 3137 398 
Q 2709 -91 1959 -91 
Q 1206 -91 779 398 
Q 353 888 353 1747 
Q 353 2609 779 3096 
Q 1206 3584 1959 3584 
z
" transform="scale(0.015625)"/>
       <path id="DejaVuSans-75" d="M 544 1381 
L 544 3500 
L 1119 3500 
L 1119 1403 
Q 1119 906 1312 657 
Q 1506 409 1894 409 
Q 2359 409 2629 706 
Q 2900 1003 2900 1516 
L 2900 3500 
L 3475 3500 
L 3475 0 
L 2900 0 
L 2900 538 
Q 2691 219 2414 64 
Q 2138 -91 1772 -91 
Q 1169 -91 856 284 
Q 544 659 544 1381 
z
M 1991 3584 
L 1991 3584 
z
" transform="scale(0.015625)"/>
       <path id="DejaVuSans-6e" d="M 3513 2113 
L 3513 0 
L 2938 0 
L 2938 2094 
Q 2938 2591 2744 2837 
Q 2550 3084 2163 3084 
Q 1697 3084 1428 2787 
Q 1159 2491 1159 1978 
L 1159 0 
L 581 0 
L 581 3500 
L 1159 3500 
L 1159 2956 
Q 1366 3272 1645 3428 
Q 1925 3584 2291 3584 
Q 2894 3584 3203 3211 
Q 3513 2838 3513 2113 
z
" transform="scale(0.015625)"/>
       <path id="DejaVuSans-74" d="M 1172 4494 
L 1172 3500 
L 2356 3500 
L 2356 3053 
L 1172 3053 
L 1172 1153 
Q 1172 725 1289 603 
Q 1406 481 1766 481 
L 2356 481 
L 2356 0 
L 1766 0 
Q 1100 0 847 248 
Q 594 497 594 1153 
L 594 3053 
L 172 3053 
L 172 3500 
L 594 3500 
L 594 4494 
L 1172 4494 
z
" transform="scale(0.015625)"/>
       <path id="DejaVuSans-66" d="M 2375 4863 
L 2375 4384 
L 1825 4384 
Q 1516 4384 1395 4259 
Q 1275 4134 1275 3809 
L 1275 3500 
L 2222 3500 
L 2222 3053 
L 1275 3053 
L 1275 0 
L 697 0 
L 697 3053 
L 147 3053 
L 147 3500 
L 697 3500 
L 697 3744 
Q 697 4328 969 4595 
Q 1241 4863 1831 4863 
L 2375 4863 
z
" transform="scale(0.015625)"/>
       <path id="DejaVuSans-62" d="M 3116 1747 
Q 3116 2381 2855 2742 
Q 2594 3103 2138 3103 
Q 1681 3103 1420 2742 
Q 1159 2381 1159 1747 
Q 1159 1113 1420 752 
Q 1681 391 2138 391 
Q 2594 391 2855 752 
Q 3116 1113 3116 1747 
z
M 1159 2969 
Q 1341 3281 1617 3432 
Q 1894 3584 2278 3584 
Q 2916 3584 3314 3078 
Q 3713 2572 3713 1747 
Q 3713 922 3314 415 
Q 2916 -91 2278 -91 
Q 1894 -91 1617 61 
Q 1341 213 1159 525 
L 1159 0 
L 581 0 
L 581 4863 
L 1159 4863 
L 1159 2969 
z
" transform="scale(0.015625)"/>
       <path id="DejaVuSans-6a" d="M 603 3500 
L 1178 3500 
L 1178 -63 
Q 1178 -731 923 -1031 
Q 669 -1331 103 -1331 
L -116 -1331 
L -116 -844 
L 38 -844 
Q 366 -844 484 -692 
Q 603 -541 603 -63 
L 603 3500 
z
M 603 4863 
L 1178 4863 
L 1178 4134 
L 603 4134 
L 603 4863 
z
" transform="scale(0.015625)"/>
       <path id="DejaVuSans-65" d="M 3597 1894 
L 3597 1613 
L 953 1613 
Q 991 1019 1311 708 
Q 1631 397 2203 397 
Q 2534 397 2845 478 
Q 3156 559 3463 722 
L 3463 178 
Q 3153 47 2828 -22 
Q 2503 -91 2169 -91 
Q 1331 -91 842 396 
Q 353 884 353 1716 
Q 353 2575 817 3079 
Q 1281 3584 2069 3584 
Q 2775 3584 3186 3129 
Q 3597 2675 3597 1894 
z
M 3022 2063 
Q 3016 2534 2758 2815 
Q 2500 3097 2075 3097 
Q 1594 3097 1305 2825 
Q 1016 2553 972 2059 
L 3022 2063 
z
" transform="scale(0.015625)"/>
       <path id="DejaVuSans-63" d="M 3122 3366 
L 3122 2828 
Q 2878 2963 2633 3030 
Q 2388 3097 2138 3097 
Q 1578 3097 1268 2742 
Q 959 2388 959 1747 
Q 959 1106 1268 751 
Q 1578 397 2138 397 
Q 2388 397 2633 464 
Q 2878 531 3122 666 
L 3122 134 
Q 2881 22 2623 -34 
Q 2366 -91 2075 -91 
Q 1284 -91 818 406 
Q 353 903 353 1747 
Q 353 2603 823 3093 
Q 1294 3584 2113 3584 
Q 2378 3584 2631 3529 
Q 2884 3475 3122 3366 
z
" transform="scale(0.015625)"/>
       <path id="DejaVuSans-73" d="M 2834 3397 
L 2834 2853 
Q 2591 2978 2328 3040 
Q 2066 3103 1784 3103 
Q 1356 3103 1142 2972 
Q 928 2841 928 2578 
Q 928 2378 1081 2264 
Q 1234 2150 1697 2047 
L 1894 2003 
Q 2506 1872 2764 1633 
Q 3022 1394 3022 966 
Q 3022 478 2636 193 
Q 2250 -91 1575 -91 
Q 1294 -91 989 -36 
Q 684 19 347 128 
L 347 722 
Q 666 556 975 473 
Q 1284 391 1588 391 
Q 1994 391 2212 530 
Q 2431 669 2431 922 
Q 2431 1156 2273 1281 
Q 2116 1406 1581 1522 
L 1381 1569 
Q 847 1681 609 1914 
Q 372 2147 372 2553 
Q 372 3047 722 3315 
Q 1072 3584 1716 3584 
Q 2034 3584 2315 3537 
Q 2597 3491 2834 3397 
z
" transform="scale(0.015625)"/>
       <path id="DejaVuSans-69" d="M 603 3500 
L 1178 3500 
L 1178 0 
L 603 0 
L 603 3500 
z
M 603 4863 
L 1178 4863 
L 1178 4134 
L 603 4134 
L 603 4863 
z
" transform="scale(0.015625)"/>
       <path id="DejaVuSans-61" d="M 2194 1759 
Q 1497 1759 1228 1600 
Q 959 1441 959 1056 
Q 959 750 1161 570 
Q 1363 391 1709 391 
Q 2188 391 2477 730 
Q 2766 1069 2766 1631 
L 2766 1759 
L 2194 1759 
z
M 3341 1997 
L 3341 0 
L 2766 0 
L 2766 531 
Q 2569 213 2275 61 
Q 1981 -91 1556 -91 
Q 1019 -91 701 211 
Q 384 513 384 1019 
Q 384 1609 779 1909 
Q 1175 2209 1959 2209 
L 2766 2209 
L 2766 2266 
Q 2766 2663 2505 2880 
Q 2244 3097 1772 3097 
Q 1472 3097 1187 3025 
Q 903 2953 641 2809 
L 641 3341 
Q 956 3463 1253 3523 
Q 1550 3584 1831 3584 
Q 2591 3584 2966 3190 
Q 3341 2797 3341 1997 
z
" transform="scale(0.015625)"/>
       <path id="DejaVuSans-6c" d="M 603 4863 
L 1178 4863 
L 1178 0 
L 603 0 
L 603 4863 
z
" transform="scale(0.015625)"/>
      </defs>
      <use xlink:href="#DejaVuSans-41"/>
      <use xlink:href="#DejaVuSans-6d" transform="translate(68.408203 0)"/>
      <use xlink:href="#DejaVuSans-6f" transform="translate(165.820312 0)"/>
      <use xlink:href="#DejaVuSans-75" transform="translate(227.001953 0)"/>
      <use xlink:href="#DejaVuSans-6e" transform="translate(290.380859 0)"/>
      <use xlink:href="#DejaVuSans-74" transform="translate(353.759766 0)"/>
      <use xlink:href="#DejaVuSans-20" transform="translate(392.96875 0)"/>
      <use xlink:href="#DejaVuSans-6f" transform="translate(424.755859 0)"/>
      <use xlink:href="#DejaVuSans-66" transform="translate(485.9375 0)"/>
      <use xlink:href="#DejaVuSans-20" transform="translate(521.142578 0)"/>
      <use xlink:href="#DejaVuSans-6f" transform="translate(552.929688 0)"/>
      <use xlink:href="#DejaVuSans-62" transform="translate(614.111328 0)"/>
      <use xlink:href="#DejaVuSans-6a" transform="translate(677.587891 0)"/>
      <use xlink:href="#DejaVuSans-65" transform="translate(705.371094 0)"/>
      <use xlink:href="#DejaVuSans-63" transform="translate(766.894531 0)"/>
      <use xlink:href="#DejaVuSans-74" transform="translate(821.875 0)"/>
      <use xlink:href="#DejaVuSans-73" transform="translate(861.083984 0)"/>
      <use xlink:href="#DejaVuSans-20" transform="translate(913.183594 0)"/>
      <use xlink:href="#DejaVuSans-69" transform="translate(944.970703 0)"/>
      <use xlink:href="#DejaVuSans-6e" transform="translate(972.753906 0)"/>
      <use xlink:href="#DejaVuSans-20" transform="translate(1036.132812 0)"/>
      <use xlink:href="#DejaVuSans-74" transform="translate(1067.919922 0)"/>
      <use xlink:href="#DejaVuSans-61" transform="translate(1107.128906 0)"/>
      <use xlink:href="#DejaVuSans-62" transform="translate(1168.408203 0)"/>
      <use xlink:href="#DejaVuSans-6c" transform="translate(1231.884766 0)"/>
      <use xlink:href="#DejaVuSans-65" transform="translate(1259.667969 0)"/>
     </g>
    </g>
   </g>
   <g id="matplotlib.axis_2">
    <g id="ytick_1">
     <g id="line2d_10">
      <defs>
       <path id="m88d68d4914" d="M 0 0 
L -3.5 0 
" style="stroke: #000000; stroke-width: 0.8"/>
      </defs>
      <g>
       <use xlink:href="#m88d68d4914" x="61.715625" y="288.430125" style="stroke: #000000; stroke-width: 0.8"/>
      </g>
     </g>
     <g id="text_11">
      <!-- 0 -->
      <g transform="translate(48.353125 292.229344) scale(0.1 -0.1)">
       <use xlink:href="#DejaVuSans-30"/>
      </g>
     </g>
    </g>
    <g id="ytick_2">
     <g id="line2d_11">
      <g>
       <use xlink:href="#m88d68d4914" x="61.715625" y="232.316835" style="stroke: #000000; stroke-width: 0.8"/>
      </g>
     </g>
     <g id="text_12">
      <!-- 100 µs -->
      <g transform="translate(20.878125 236.116054) scale(0.1 -0.1)">
       <defs>
        <path id="DejaVuSans-b5" d="M 544 -1331 
L 544 3500 
L 1119 3500 
L 1119 1325 
Q 1119 872 1334 640 
Q 1550 409 1972 409 
Q 2434 409 2667 671 
Q 2900 934 2900 1459 
L 2900 3500 
L 3475 3500 
L 3475 806 
Q 3475 619 3529 530 
Q 3584 441 3700 441 
Q 3728 441 3778 458 
Q 3828 475 3916 513 
L 3916 50 
Q 3788 -22 3673 -56 
Q 3559 -91 3450 -91 
Q 3234 -91 3106 31 
Q 2978 153 2931 403 
Q 2775 156 2548 32 
Q 2322 -91 2016 -91 
Q 1697 -91 1473 31 
Q 1250 153 1119 397 
L 1119 -1331 
L 544 -1331 
z
" transform="scale(0.015625)"/>
       </defs>
       <use xlink:href="#DejaVuSans-31"/>
       <use xlink:href="#DejaVuSans-30" transform="translate(63.623047 0)"/>
       <use xlink:href="#DejaVuSans-30" transform="translate(127.246094 0)"/>
       <use xlink:href="#DejaVuSans-20" transform="translate(190.869141 0)"/>
       <use xlink:href="#DejaVuSans-b5" transform="translate(222.65625 0)"/>
       <use xlink:href="#DejaVuSans-73" transform="translate(286.279297 0)"/>
      </g>
     </g>
    </g>
    <g id="ytick_3">
     <g id="line2d_12">
      <g>
       <use xlink:href="#m88d68d4914" x="61.715625" y="176.203546" style="stroke: #000000; stroke-width: 0.8"/>
      </g>
     </g>
     <g id="text_13">
      <!-- 200 µs -->
      <g transform="translate(20.878125 180.002764) scale(0.1 -0.1)">
       <use xlink:href="#DejaVuSans-32"/>
       <use xlink:href="#DejaVuSans-30" transform="translate(63.623047 0)"/>
       <use xlink:href="#DejaVuSans-30" transform="translate(127.246094 0)"/>
       <use xlink:href="#DejaVuSans-20" transform="translate(190.869141 0)"/>
       <use xlink:href="#DejaVuSans-b5" transform="translate(222.65625 0)"/>
       <use xlink:href="#DejaVuSans-73" transform="translate(286.279297 0)"/>
      </g>
     </g>
    </g>
    <g id="ytick_4">
     <g id="line2d_13">
      <g>
       <use xlink:href="#m88d68d4914" x="61.715625" y="120.090256" style="stroke: #000000; stroke-width: 0.8"/>
      </g>
     </g>
     <g id="text_14">
      <!-- 300 µs -->
      <g transform="translate(20.878125 123.889475) scale(0.1 -0.1)">
       <use xlink:href="#DejaVuSans-33"/>
       <use xlink:href="#DejaVuSans-30" transform="translate(63.623047 0)"/>
       <use xlink:href="#DejaVuSans-30" transform="translate(127.246094 0)"/>
       <use xlink:href="#DejaVuSans-20" transform="translate(190.869141 0)"/>
       <use xlink:href="#DejaVuSans-b5" transform="translate(222.65625 0)"/>
       <use xlink:href="#DejaVuSans-73" transform="translate(286.279297 0)"/>
      </g>
     </g>
    </g>
    <g id="ytick_5">
     <g id="line2d_14">
      <g>
       <use xlink:href="#m88d68d4914" x="61.715625" y="63.976966" style="stroke: #000000; stroke-width: 0.8"/>
      </g>
     </g>
     <g id="text_15">
      <!-- 400 µs -->
      <g transform="translate(20.878125 67.776185) scale(0.1 -0.1)">
       <use xlink:href="#DejaVuSans-34"/>
       <use xlink:href="#DejaVuSans-30" transform="translate(63.623047 0)"/>
       <use xlink:href="#DejaVuSans-30" transform="translate(127.246094 0)"/>
       <use xlink:href="#DejaVuSans-20" transform="translate(190.869141 0)"/>
       <use xlink:href="#DejaVuSans-b5" transform="translate(222.65625 0)"/>
       <use xlink:href="#DejaVuSans-73" transform="translate(286.279297 0)"/>
      </g>
     </g>
    </g>
    <g id="text_16">
     <!-- Read latency (s) -->
     <g transform="translate(14.798438 195.98975) rotate(-90) scale(0.1 -0.1)">
      <defs>
       <path id="DejaVuSans-52" d="M 2841 2188 
Q 3044 2119 3236 1894 
Q 3428 1669 3622 1275 
L 4263 0 
L 3584 0 
L 2988 1197 
Q 2756 1666 2539 1819 
Q 2322 1972 1947 1972 
L 1259 1972 
L 1259 0 
L 628 0 
L 628 4666 
L 2053 4666 
Q 2853 4666 3247 4331 
Q 3641 3997 3641 3322 
Q 3641 2881 3436 2590 
Q 3231 2300 2841 2188 
z
M 1259 4147 
L 1259 2491 
L 2053 2491 
Q 2509 2491 2742 2702 
Q 2975 2913 2975 3322 
Q 2975 3731 2742 3939 
Q 2509 4147 2053 4147 
L 1259 4147 
z
" transform="scale(0.015625)"/>
       <path id="DejaVuSans-64" d="M 2906 2969 
L 2906 4863 
L 3481 4863 
L 3481 0 
L 2906 0 
L 2906 525 
Q 2725 213 2448 61 
Q 2172 -91 1784 -91 
Q 1150 -91 751 415 
Q 353 922 353 1747 
Q 353 2572 751 3078 
Q 1150 3584 1784 3584 
Q 2172 3584 2448 3432 
Q 2725 3281 2906 2969 
z
M 947 1747 
Q 947 1113 1208 752 
Q 1469 391 1925 391 
Q 2381 391 2643 752 
Q 2906 1113 2906 1747 
Q 2906 2381 2643 2742 
Q 2381 3103 1925 3103 
Q 1469 3103 1208 2742 
Q 947 2381 947 1747 
z
" transform="scale(0.015625)"/>
       <path id="DejaVuSans-79" d="M 2059 -325 
Q 1816 -950 1584 -1140 
Q 1353 -1331 966 -1331 
L 506 -1331 
L 506 -850 
L 844 -850 
Q 1081 -850 1212 -737 
Q 1344 -625 1503 -206 
L 1606 56 
L 191 3500 
L 800 3500 
L 1894 763 
L 2988 3500 
L 3597 3500 
L 2059 -325 
z
" transform="scale(0.015625)"/>
       <path id="DejaVuSans-28" d="M 1984 4856 
Q 1566 4138 1362 3434 
Q 1159 2731 1159 2009 
Q 1159 1288 1364 580 
Q 1569 -128 1984 -844 
L 1484 -844 
Q 1016 -109 783 600 
Q 550 1309 550 2009 
Q 550 2706 781 3412 
Q 1013 4119 1484 4856 
L 1984 4856 
z
" transform="scale(0.015625)"/>
       <path id="DejaVuSans-29" d="M 513 4856 
L 1013 4856 
Q 1481 4119 1714 3412 
Q 1947 2706 1947 2009 
Q 1947 1309 1714 600 
Q 1481 -109 1013 -844 
L 513 -844 
Q 928 -128 1133 580 
Q 1338 1288 1338 2009 
Q 1338 2731 1133 3434 
Q 928 4138 513 4856 
z
" transform="scale(0.015625)"/>
      </defs>
      <use xlink:href="#DejaVuSans-52"/>
      <use xlink:href="#DejaVuSans-65" transform="translate(64.982422 0)"/>
      <use xlink:href="#DejaVuSans-61" transform="translate(126.505859 0)"/>
      <use xlink:href="#DejaVuSans-64" transform="translate(187.785156 0)"/>
      <use xlink:href="#DejaVuSans-20" transform="translate(251.261719 0)"/>
      <use xlink:href="#DejaVuSans-6c" transform="translate(283.048828 0)"/>
      <use xlink:href="#DejaVuSans-61" transform="translate(310.832031 0)"/>
      <use xlink:href="#DejaVuSans-74" transform="translate(372.111328 0)"/>
      <use xlink:href="#DejaVuSans-65" transform="translate(411.320312 0)"/>
      <use xlink:href="#DejaVuSans-6e" transform="translate(472.84375 0)"/>
      <use xlink:href="#DejaVuSans-63" transform="translate(536.222656 0)"/>
      <use xlink:href="#DejaVuSans-79" transform="translate(591.203125 0)"/>
      <use xlink:href="#DejaVuSans-20" transform="translate(650.382812 0)"/>
      <use xlink:href="#DejaVuSans-28" transform="translate(682.169922 0)"/>
      <use xlink:href="#DejaVuSans-73" transform="translate(721.183594 0)"/>
      <use xlink:href="#DejaVuSans-29" transform="translate(773.283203 0)"/>
     </g>
    </g>
   </g>
   <g id="line2d_15">
    <path d="M 146.635325 66.972855 
L 147.070811 68.443799 
L 148.377268 70.476637 
L 148.812753 71.043335 
L 149.248239 71.939348 
L 149.683725 71.954442 
L 150.11921 72.5822 
L 150.990181 74.825663 
L 151.425667 74.873688 
L 151.861153 75.198201 
L 152.296638 76.318561 
L 152.732124 76.987483 
L 153.603095 79.285833 
L 154.038581 81.189689 
L 154.474067 81.044241 
L 155.345038 80.571536 
L 156.216009 79.875171 
L 156.651495 79.508121 
L 157.08698 79.764026 
L 157.522466 79.654255 
L 158.393437 79.012089 
L 158.828923 79.069719 
L 159.264409 78.800778 
L 159.699894 78.368551 
L 160.13538 78.185369 
L 160.570866 77.666697 
L 161.006351 76.153217 
L 161.877322 75.346393 
L 162.748294 74.613666 
L 163.183779 73.827425 
L 163.619265 73.306694 
L 164.054751 73.27239 
L 164.925722 72.652179 
L 165.361208 72.298165 
L 166.232179 72.302967 
L 166.667665 72.270036 
L 167.10315 72.016874 
L 167.974121 71.01452 
L 168.409607 70.892398 
L 169.716064 70.013537 
L 170.15155 69.567589 
L 170.587035 69.281496 
L 171.022521 69.332265 
L 171.458007 68.714798 
L 172.328978 68.56935 
L 172.764463 68.312073 
L 173.199949 67.848286 
L 173.635435 67.642464 
L 174.506406 67.444188 
L 176.248349 66.271687 
L 177.990291 65.831914 
L 178.861262 64.984612 
L 179.296748 64.82407 
L 179.732234 64.808977 
L 180.167719 64.348621 
L 180.603205 64.439183 
L 181.038691 64.315689 
L 181.474176 62.933935 
L 181.909662 62.829652 
L 182.345148 61.010869 
L 182.780633 60.384483 
L 183.216119 60.106623 
L 183.651605 59.353313 
L 186.264518 57.714281 
L 186.700004 57.653221 
L 187.13549 57.92422 
L 187.570975 56.910888 
L 188.006461 56.587061 
L 188.441947 54.109646 
L 190.183889 54.408089 
L 191.05486 54.231082 
L 191.490346 54.153555 
L 191.925832 53.753574 
L 192.361317 53.837961 
L 192.796803 53.728875 
L 193.232289 56.343505 
L 193.667774 56.494441 
L 194.10326 56.13631 
L 194.538746 56.227558 
L 194.974231 56.556874 
L 196.716174 56.893736 
L 197.151659 56.20972 
L 198.022631 55.743876 
L 198.458116 55.750736 
L 198.893602 57.181201 
L 199.329088 58.200708 
L 200.635545 57.378105 
L 201.07103 55.420735 
L 201.506516 54.934994 
L 201.942001 54.683205 
L 202.377487 54.074657 
L 202.812973 54.060935 
L 203.248458 53.749457 
L 203.683944 53.115525 
L 204.554915 52.439055 
L 204.990401 52.53785 
L 205.425887 52.012317 
L 205.861372 51.750923 
L 206.296858 51.802378 
L 206.732343 52.200987 
L 207.167829 51.839426 
L 207.603315 51.702211 
L 208.0388 51.191086 
L 208.474286 51.051813 
L 208.909772 50.503639 
L 210.651714 49.974676 
L 211.522686 50.137962 
L 211.958171 49.985653 
L 212.829142 49.407292 
L 213.264628 49.783947 
L 214.135599 48.885876 
L 214.571085 48.865294 
L 215.006571 48.570968 
L 215.442056 47.92743 
L 215.877542 48.237536 
L 216.313028 48.258804 
L 217.183999 48.70681 
L 217.619485 48.435125 
L 218.05497 48.694461 
L 218.490456 48.708869 
L 218.925941 48.609388 
L 219.361427 48.710241 
L 220.232398 49.233716 
L 220.667884 49.40249 
L 221.10337 49.414839 
L 221.538855 49.225483 
L 222.845312 49.228227 
L 223.280798 49.51089 
L 223.716283 49.391513 
L 224.151769 48.302713 
L 224.587255 48.695833 
L 225.458226 48.813152 
L 225.893712 48.608016 
L 226.329197 48.272525 
L 227.200169 49.20147 
L 227.635654 48.660844 
L 228.07114 48.868038 
L 228.942111 48.824815 
L 229.377597 48.357599 
L 229.813082 48.456393 
L 230.248568 47.539112 
L 230.684054 47.21254 
L 231.119539 47.198133 
L 231.555025 46.927133 
L 231.990511 46.481871 
L 232.425996 46.563514 
L 232.861482 46.258211 
L 233.296968 46.285654 
L 233.732453 46.609481 
L 234.167939 46.48736 
L 234.603425 48.322609 
L 235.03891 48.439928 
L 235.474396 48.774046 
L 235.909881 48.24028 
L 236.345367 49.084837 
L 236.780853 49.462864 
L 237.651824 49.195982 
L 238.08731 49.199412 
L 238.522795 47.543228 
L 238.958281 47.932919 
L 240.264738 47.888324 
L 240.700224 46.875678 
L 241.135709 47.069837 
L 241.571195 47.025242 
L 242.442166 45.835589 
L 242.877652 45.790994 
L 243.313137 41.484505 
L 243.748623 41.258787 
L 244.619594 41.291718 
L 245.05508 41.138038 
L 245.490566 41.171655 
L 245.926051 42.073843 
L 246.361537 41.82274 
L 246.797022 41.800099 
L 247.667994 41.566148 
L 248.103479 42.260455 
L 248.538965 42.348959 
L 248.974451 42.019643 
L 249.409936 41.994945 
L 249.845422 42.214488 
L 251.587365 41.473528 
L 252.02285 40.949367 
L 252.458336 41.484505 
L 252.893821 41.626523 
L 253.329307 41.293091 
L 253.764793 41.41727 
L 254.200278 41.183319 
L 254.635764 40.771674 
L 255.07125 41.011114 
L 255.506735 41.094815 
L 255.942221 41.483133 
L 256.377707 41.638872 
L 257.248678 41.571637 
L 257.684164 41.153817 
L 258.119649 41.625837 
L 258.555135 41.743841 
L 258.99062 41.680036 
L 259.426106 41.795983 
L 259.861592 41.746586 
L 260.297077 41.481075 
L 260.732563 41.068744 
L 262.03902 41.108537 
L 262.474506 40.795001 
L 262.909991 40.88419 
L 263.780962 40.526745 
L 264.216448 40.175475 
L 265.522905 40.018364 
L 266.393876 39.490773 
L 266.829362 39.379629 
L 267.264848 40.690717 
L 267.700333 40.923296 
L 268.135819 40.963775 
L 268.571305 41.278683 
L 269.00679 41.076291 
L 269.442276 41.099618 
L 269.877761 40.980927 
L 270.313247 40.635145 
L 271.184218 40.93496 
L 271.619704 40.831362 
L 272.05519 41.083152 
L 272.490675 41.914674 
L 272.926161 41.552427 
L 273.361647 43.315638 
L 275.103589 42.834014 
L 276.845532 43.030917 
L 277.281017 42.115008 
L 277.716503 42.143137 
L 278.587474 41.931826 
L 279.02296 42.340726 
L 279.893931 41.064628 
L 280.329417 41.017289 
L 280.764902 41.119514 
L 281.200388 41.103048 
L 281.635874 41.372675 
L 282.506845 42.072471 
L 282.942331 42.012096 
L 283.377816 41.763051 
L 283.813302 41.710224 
L 284.248788 41.186749 
L 284.684273 41.036499 
L 285.119759 41.076291 
L 285.555245 41.251926 
L 285.99073 42.613784 
L 286.426216 42.800396 
L 286.861701 42.721497 
L 287.297187 42.896446 
L 288.168158 42.839502 
L 289.03913 44.064145 
L 289.474615 44.301527 
L 289.910101 44.153335 
L 290.781072 44.522443 
L 291.216558 44.305643 
L 291.652044 42.338668 
L 292.087529 42.469708 
L 292.523015 42.389437 
L 292.9585 42.55684 
L 293.393986 42.50264 
L 293.829472 42.954763 
L 294.700443 43.328673 
L 295.135929 39.190959 
L 295.571414 39.193703 
L 296.442386 38.900063 
L 296.877871 39.124409 
L 297.313357 39.127154 
L 297.748842 38.723742 
L 298.184328 38.529583 
L 299.055299 38.323074 
L 299.490785 38.200267 
L 299.926271 38.344343 
L 300.361756 38.914471 
L 300.797242 38.487046 
L 301.232728 38.474011 
L 301.668213 37.897708 
L 302.103699 37.628081 
L 302.539185 37.593091 
L 304.716613 37.935442 
L 305.152098 38.384135 
L 305.587584 36.150963 
L 306.02307 36.06589 
L 306.458555 36.118717 
L 306.894041 36.313563 
L 307.329527 35.544473 
L 308.200498 34.990125 
L 308.635984 35.281021 
L 309.071469 36.648367 
L 309.506955 36.933088 
L 310.377926 37.278183 
L 311.684383 37.932698 
L 312.119869 38.184487 
L 312.555354 38.763534 
L 313.861811 38.362181 
L 314.732782 38.39031 
L 315.168268 38.898005 
L 315.603754 39.088047 
L 316.039239 39.112746 
L 316.474725 39.480482 
L 316.910211 40.056784 
L 317.345696 39.813228 
L 318.216668 40.558305 
L 318.652153 39.61358 
L 319.087639 39.726783 
L 319.95861 38.251037 
L 320.829581 38.327877 
L 321.265067 38.129601 
L 321.700553 38.121369 
L 322.136038 37.619162 
L 323.00701 37.49361 
L 323.442495 39.2431 
L 323.877981 38.995427 
L 324.748952 39.400897 
L 325.184438 39.269171 
L 325.619924 40.346308 
L 326.055409 40.299655 
L 326.490895 39.138131 
L 326.92638 39.710317 
L 327.797352 39.728841 
L 328.232837 42.311225 
L 328.668323 42.527338 
L 329.103809 42.198023 
L 329.539294 42.481371 
L 329.97478 42.414822 
L 330.410266 42.512931 
L 330.845751 42.799024 
L 331.281237 42.829211 
L 331.716722 42.318772 
L 332.587694 42.660437 
L 333.023179 42.230268 
L 333.458665 42.340726 
L 333.894151 42.031307 
L 334.329636 40.323667 
L 334.765122 40.703067 
L 335.200608 40.92261 
L 335.636093 40.696892 
L 336.507065 40.593981 
L 336.94255 41.10442 
L 337.378036 40.815583 
L 337.813521 40.784023 
L 338.249007 41.162736 
L 338.684493 40.930157 
L 339.119978 41.116769 
L 339.555464 41.126374 
L 339.99095 41.253298 
L 340.426435 41.247124 
L 340.861921 40.92261 
L 341.297407 41.468726 
L 341.732892 41.443341 
L 342.168378 41.083152 
L 342.603864 41.774715 
L 343.039349 41.446085 
L 344.781292 41.406293 
L 345.216777 41.469412 
L 345.652263 41.916046 
L 346.523234 41.865277 
L 346.95872 41.755505 
L 347.394206 41.764424 
L 347.829691 41.49411 
L 348.265177 41.564776 
L 348.700662 41.497541 
L 349.571634 42.439521 
L 350.007119 42.439521 
L 350.442605 42.292015 
L 350.878091 42.661123 
L 351.313576 44.138241 
L 351.749062 43.968781 
L 352.184548 44.195871 
L 352.620033 44.213023 
L 354.797461 45.0123 
L 355.668433 45.73748 
L 356.103918 45.839706 
L 356.539404 45.819809 
L 357.410375 45.338185 
L 358.281347 46.13609 
L 358.716832 45.946733 
L 359.587804 45.951536 
L 360.023289 45.632511 
L 360.458775 45.590661 
L 360.89426 45.867835 
L 361.765232 46.059249 
L 362.200717 46.744638 
L 362.636203 46.775511 
L 363.071689 46.937425 
L 363.94266 46.802268 
L 364.378146 47.308591 
L 364.813631 46.682891 
L 365.249117 46.815303 
L 365.684603 46.287026 
L 366.120088 46.295259 
L 366.555574 45.620848 
L 366.991059 45.906255 
L 367.426545 45.775215 
L 367.862031 45.81089 
L 368.297516 46.01191 
L 368.733002 45.105606 
L 369.168488 45.346418 
L 369.603973 45.401304 
L 370.474945 45.102862 
L 370.91043 45.702491 
L 371.345916 45.879498 
L 371.781401 46.250664 
L 372.216887 46.350831 
L 372.652373 46.592329 
L 373.087858 46.254781 
L 373.523344 45.701119 
L 373.95883 44.598597 
L 374.394315 44.514896 
L 374.829801 44.301527 
L 375.265287 44.726207 
L 375.700772 44.585562 
L 376.136258 44.681612 
L 376.571744 46.309667 
L 377.007229 46.145695 
L 378.313686 46.504512 
L 379.620143 45.667501 
L 380.055629 50.037795 
L 381.797571 49.908813 
L 382.668543 50.061807 
L 383.104028 49.818251 
L 383.539514 50.211372 
L 383.974999 50.408275 
L 384.410485 50.077587 
L 384.845971 50.214802 
L 385.281456 49.886172 
L 386.587913 50.922831 
L 387.458885 50.485801 
L 387.89437 50.629191 
L 388.765341 50.643599 
L 389.200827 50.5647 
L 390.071798 50.076901 
L 390.507284 52.069947 
L 390.94277 51.825019 
L 391.378255 51.960175 
L 391.813741 51.806495 
L 392.249227 52.217453 
L 393.120198 52.262048 
L 393.555684 51.885393 
L 393.991169 50.806198 
L 394.86214 50.251164 
L 395.733112 50.240187 
L 396.168597 49.73455 
L 396.604083 49.823054 
L 397.039569 49.584986 
L 397.91054 49.574695 
L 398.346026 49.753074 
L 398.781511 50.148253 
L 400.087968 50.208627 
L 400.523454 49.8848 
L 400.958939 49.782575 
L 401.394425 49.823054 
L 401.829911 49.674861 
L 401.829911 49.674861 
" clip-path="url(#p19c997a3bb)" style="fill: none; stroke: #1f77b4; stroke-opacity: 0.8; stroke-width: 1.5; stroke-linecap: square"/>
   </g>
   <g id="line2d_16">
    <path d="M 146.635325 80.911143 
L 147.506296 87.056997 
L 147.941782 89.45963 
L 149.248239 92.15453 
L 150.11921 94.567454 
L 150.990181 98.130924 
L 151.861153 99.859832 
L 153.16761 101.302646 
L 153.603095 103.057624 
L 154.038581 103.836319 
L 155.345038 105.551505 
L 156.216009 108.54965 
L 156.651495 109.127325 
L 157.522466 112.762147 
L 158.393437 115.543493 
L 158.828923 117.716976 
L 159.699894 120.556638 
L 160.13538 120.640339 
L 160.570866 120.022186 
L 161.877322 120.99847 
L 162.312808 121.292796 
L 162.748294 121.886936 
L 163.183779 119.704534 
L 164.054751 119.566633 
L 165.361208 120.095596 
L 166.232179 119.416383 
L 166.667665 118.865465 
L 168.845093 118.813323 
L 169.280578 118.70904 
L 169.716064 118.783822 
L 170.15155 120.471565 
L 170.587035 118.776275 
L 171.022521 119.043844 
L 171.458007 118.809207 
L 171.893492 120.985435 
L 172.328978 120.75903 
L 172.764463 121.067764 
L 174.07092 120.922316 
L 174.941892 120.190961 
L 175.377377 120.167634 
L 175.812863 120.024244 
L 176.248349 120.081875 
L 176.683834 120.330234 
L 177.990291 120.301418 
L 178.425777 120.13333 
L 178.861262 120.125097 
L 179.296748 119.652392 
L 179.732234 119.681207 
L 180.603205 118.803718 
L 181.038691 118.842138 
L 182.780633 118.498415 
L 183.216119 118.09912 
L 183.651605 117.992778 
L 184.522576 118.571825 
L 184.958061 115.194281 
L 185.393547 115.122929 
L 185.829033 114.644049 
L 186.264518 114.669434 
L 187.13549 114.925339 
L 188.006461 115.030309 
L 188.441947 115.00218 
L 188.877432 113.005703 
L 189.312918 110.476147 
L 190.183889 109.856622 
L 191.490346 110.793799 
L 191.925832 110.147517 
L 192.361317 110.057642 
L 192.796803 110.162611 
L 193.232289 109.866227 
L 193.667774 109.984918 
L 194.10326 109.563668 
L 194.538746 109.554063 
L 197.151659 107.523969 
L 198.458116 107.434779 
L 198.893602 107.0938 
L 199.329088 107.092428 
L 200.635545 106.346665 
L 201.07103 105.933648 
L 201.942001 106.469472 
L 202.377487 106.031757 
L 203.248458 106.123005 
L 203.683944 105.861611 
L 204.11943 105.82319 
L 204.554915 106.896897 
L 204.990401 107.047147 
L 205.425887 106.903072 
L 207.603315 108.238172 
L 208.0388 108.248463 
L 208.474286 108.585326 
L 208.909772 108.302663 
L 210.216229 108.448797 
L 210.651714 108.2368 
L 211.522686 107.561703 
L 211.958171 107.906112 
L 212.829142 107.172699 
L 213.264628 107.229643 
L 215.006571 106.014605 
L 215.877542 106.176519 
L 216.313028 105.751839 
L 216.748513 106.654027 
L 217.183999 106.323339 
L 217.619485 105.818388 
L 218.05497 105.502794 
L 218.490456 105.514457 
L 218.925941 104.704203 
L 219.361427 103.580413 
L 219.796913 103.062427 
L 220.667884 102.536208 
L 221.10337 102.841511 
L 221.538855 102.875815 
L 222.409827 102.166414 
L 222.845312 101.650486 
L 223.280798 101.688906 
L 224.151769 101.102312 
L 224.587255 101.148279 
L 225.02274 100.600106 
L 225.458226 100.551395 
L 225.893712 100.35655 
L 226.764683 99.341846 
L 227.200169 98.908247 
L 227.635654 99.280099 
L 228.07114 98.773776 
L 228.942111 98.618037 
L 229.377597 98.303815 
L 230.248568 96.866489 
L 230.684054 96.568047 
L 231.119539 96.599606 
L 231.555025 96.909026 
L 231.990511 96.913142 
L 232.861482 96.311455 
L 233.296968 96.05898 
L 233.732453 96.293617 
L 234.167939 96.337526 
L 234.603425 96.070643 
L 235.474396 95.265191 
L 236.345367 94.600385 
L 236.780853 94.448077 
L 237.216338 92.544906 
L 237.651824 92.455031 
L 238.08731 92.234801 
L 238.522795 91.469828 
L 238.958281 91.022507 
L 239.829252 91.054067 
L 241.571195 91.078765 
L 242.00668 91.252342 
L 242.877652 90.650655 
L 243.313137 90.626642 
L 243.748623 90.444833 
L 244.184109 90.409843 
L 244.619594 90.579303 
L 245.05508 90.575873 
L 245.490566 90.898328 
L 245.926051 90.282919 
L 246.361537 89.273704 
L 246.797022 88.991041 
L 247.232508 88.992413 
L 247.667994 87.456979 
L 248.103479 89.64487 
L 248.538965 89.350544 
L 249.409936 88.339956 
L 250.280908 88.496381 
L 250.716393 87.966732 
L 251.151879 88.045631 
L 251.587365 88.343387 
L 252.458336 87.791097 
L 253.329307 86.683087 
L 254.200278 86.192544 
L 255.07125 85.499608 
L 255.506735 87.199015 
L 255.942221 86.880676 
L 256.377707 86.805208 
L 256.813192 86.60213 
L 257.248678 86.599386 
L 257.684164 86.296141 
L 258.119649 86.268012 
L 258.99062 85.79119 
L 259.426106 85.706803 
L 259.861592 85.293786 
L 260.297077 85.223807 
L 261.168049 84.656423 
L 261.603534 84.557628 
L 262.474506 83.995047 
L 262.909991 83.91066 
L 263.345477 83.678767 
L 263.780962 83.733653 
L 264.216448 83.652696 
L 265.522905 84.002594 
L 266.393876 83.443443 
L 266.829362 83.079138 
L 267.700333 82.853419 
L 268.135819 82.993379 
L 268.571305 82.664749 
L 269.00679 82.629759 
L 269.442276 81.87988 
L 269.877761 83.620451 
L 270.313247 83.265064 
L 271.184218 83.459223 
L 271.619704 83.379639 
L 272.05519 82.954958 
L 272.490675 82.909678 
L 273.361647 82.096679 
L 273.797132 83.571053 
L 274.232618 85.766491 
L 275.103589 85.693081 
L 275.539075 85.38229 
L 275.97456 84.509603 
L 276.410046 84.241348 
L 277.281017 84.103447 
L 277.716503 83.765212 
L 278.151989 83.942906 
L 278.587474 83.761096 
L 279.02296 84.366214 
L 279.458446 83.92644 
L 279.893931 84.11511 
L 280.329417 84.013571 
L 280.764902 83.698663 
L 281.200388 83.975151 
L 281.635874 83.99985 
L 282.071359 83.645149 
L 282.942331 82.689448 
L 283.377816 82.463729 
L 283.813302 82.452752 
L 284.248788 82.651714 
L 285.119759 82.550175 
L 286.426216 82.089819 
L 286.861701 81.726885 
L 287.732673 82.30799 
L 288.168158 82.30113 
L 289.03913 82.908305 
L 289.474615 82.874688 
L 292.523015 80.808232 
L 292.9585 80.793138 
L 293.393986 80.437752 
L 293.829472 80.563303 
L 294.264957 80.555756 
L 294.700443 80.709437 
L 295.135929 80.397273 
L 296.0069 80.732077 
L 296.442386 80.68611 
L 296.877871 80.359539 
L 297.748842 80.901538 
L 298.184328 80.376691 
L 298.619814 80.281327 
L 299.055299 78.871444 
L 299.490785 79.187724 
L 299.926271 76.986111 
L 300.361756 76.12646 
L 300.797242 75.603671 
L 301.668213 75.58995 
L 302.103699 73.334137 
L 302.539185 72.77087 
L 303.410156 71.204562 
L 303.845641 71.66286 
L 304.281127 72.483405 
L 304.716613 72.705007 
L 306.02307 72.874467 
L 306.894041 73.541332 
L 308.635984 73.181143 
L 309.506955 72.897794 
L 309.94244 73.297775 
L 310.377926 73.295031 
L 311.248897 73.819878 
L 311.684383 74.337178 
L 312.119869 74.433228 
L 312.555354 74.15674 
L 312.99084 74.669924 
L 313.426326 74.756369 
L 314.297297 74.361877 
L 314.732782 74.972483 
L 315.168268 75.35394 
L 315.603754 75.511051 
L 316.039239 75.821843 
L 316.474725 75.668848 
L 316.910211 74.877805 
L 318.216668 75.096662 
L 318.652153 75.070591 
L 319.087639 75.279844 
L 319.95861 76.439996 
L 320.394096 76.290432 
L 320.829581 75.839681 
L 321.700553 75.687372 
L 322.136038 77.838216 
L 322.571524 77.908881 
L 323.00701 78.136658 
L 324.313467 79.305729 
L 324.748952 78.871444 
L 325.184438 78.630632 
L 326.490895 78.498219 
L 326.92638 78.468032 
L 327.797352 78.707472 
L 328.232837 77.488318 
L 328.668323 77.376488 
L 329.103809 76.940144 
L 329.539294 76.823512 
L 329.97478 76.848896 
L 331.716722 77.974744 
L 332.152208 77.899276 
L 332.587694 79.0066 
L 333.023179 78.877618 
L 333.458665 79.227516 
L 333.894151 78.733543 
L 334.329636 78.845373 
L 334.765122 77.808714 
L 335.200608 77.405303 
L 335.636093 78.338364 
L 337.378036 78.040608 
L 338.249007 78.625829 
L 339.119978 78.322584 
L 339.555464 78.707472 
L 339.99095 78.589467 
L 340.426435 78.132542 
L 340.861921 77.992582 
L 342.168378 78.031689 
L 343.039349 77.740107 
L 344.345806 77.603578 
L 344.781292 77.974744 
L 345.216777 75.766271 
L 345.652263 75.989245 
L 346.523234 74.863397 
L 347.394206 74.759114 
L 347.829691 74.077156 
L 348.700662 74.113518 
L 349.136148 74.480567 
L 349.571634 74.110087 
L 350.007119 74.425682 
L 351.313576 74.277489 
L 351.749062 74.002374 
L 352.620033 72.864862 
L 353.055519 72.851141 
L 353.491005 73.037067 
L 353.92649 71.151735 
L 354.361976 71.432339 
L 354.797461 72.03677 
L 355.232947 71.754108 
L 355.668433 70.336678 
L 356.103918 70.182311 
L 357.410375 70.250233 
L 357.845861 70.099296 
L 358.281347 70.554164 
L 358.716832 70.672168 
L 359.152318 70.939051 
L 360.023289 70.742834 
L 360.458775 71.101651 
L 360.89426 71.695105 
L 361.329746 71.524273 
L 361.765232 72.078621 
L 362.200717 71.683442 
L 362.636203 71.822029 
L 363.071689 71.050882 
L 363.507174 71.169572 
L 363.94266 70.512999 
L 364.378146 71.018636 
L 365.249117 71.096162 
L 365.684603 71.602485 
L 366.120088 71.100965 
L 366.555574 71.028927 
L 366.991059 71.695792 
L 367.426545 70.146636 
L 367.862031 69.775469 
L 368.733002 69.739107 
L 369.168488 69.186131 
L 370.039459 68.880828 
L 370.474945 69.123699 
L 371.345916 68.338829 
L 371.781401 68.560431 
L 372.216887 68.561118 
L 373.087858 68.723717 
L 373.523344 69.06401 
L 373.95883 68.815651 
L 375.700772 68.464381 
L 376.136258 68.751846 
L 377.007229 68.635214 
L 377.442715 68.503487 
L 377.8782 68.089098 
L 378.749172 67.956 
L 379.184657 67.624626 
L 380.055629 66.620213 
L 380.491114 66.107716 
L 380.9266 66.056946 
L 381.362086 66.262768 
L 381.797571 66.190731 
L 382.668543 65.669314 
L 383.104028 64.297851 
L 383.539514 63.564438 
L 383.974999 64.510534 
L 384.410485 63.690675 
L 384.845971 65.46898 
L 385.716942 67.280903 
L 386.152428 67.140257 
L 386.587913 67.257576 
L 387.023399 69.479085 
L 388.329856 71.260134 
L 389.200827 71.171631 
L 390.507284 70.902003 
L 391.813741 69.787133 
L 393.555684 70.125367 
L 393.991169 70.524663 
L 394.426655 70.432042 
L 394.86214 70.499964 
L 395.297626 69.641685 
L 395.733112 68.098703 
L 396.168597 67.934046 
L 397.039569 66.9214 
L 397.475054 66.854851 
L 398.346026 65.950604 
L 399.216997 66.121437 
L 399.652483 65.445654 
L 400.958939 64.242965 
L 401.394425 64.371261 
L 401.829911 65.071743 
L 401.829911 65.071743 
" clip-path="url(#p19c997a3bb)" style="fill: none; stroke: #ff7f0e; stroke-opacity: 0.8; stroke-width: 1.5; stroke-linecap: square"/>
   </g>
   <g id="line2d_17">
    <path d="M 146.635325 149.827316 
L 147.070811 149.762139 
L 147.506296 149.543968 
L 148.377268 148.959432 
L 148.812753 149.041761 
L 150.11921 148.912779 
L 152.296638 149.782722 
L 153.16761 149.637274 
L 153.603095 149.501431 
L 154.038581 149.645507 
L 157.522466 149.441743 
L 157.957952 149.280515 
L 158.393437 149.514466 
L 159.264409 149.384112 
L 160.13538 149.612575 
L 160.570866 149.546712 
L 161.006351 149.688043 
L 163.619265 148.049698 
L 164.490236 147.303249 
L 165.361208 147.388322 
L 165.796693 147.137905 
L 167.10315 147.253851 
L 167.538636 147.083705 
L 169.716064 147.043913 
L 170.15155 146.78389 
L 170.587035 146.74547 
L 171.022521 145.618936 
L 171.893492 145.221699 
L 172.764463 145.267666 
L 173.635435 145.249142 
L 177.554806 143.240316 
L 177.990291 143.308924 
L 179.296748 142.578254 
L 180.167719 142.847882 
L 180.603205 142.59129 
L 182.345148 143.356263 
L 182.780633 143.4283 
L 183.216119 143.203954 
L 183.651605 143.199838 
L 184.08709 143.4283 
L 184.522576 142.968631 
L 185.393547 142.93021 
L 185.829033 142.914431 
L 186.264518 142.666072 
L 186.700004 142.682538 
L 187.13549 142.465738 
L 187.570975 143.105845 
L 188.441947 143.134661 
L 188.877432 143.44065 
L 189.748403 143.398799 
L 190.619375 142.971375 
L 191.05486 142.93021 
L 191.490346 143.197779 
L 191.925832 143.118195 
L 192.361317 143.265015 
L 192.796803 143.246491 
L 193.667774 142.753203 
L 194.10326 142.600895 
L 194.974231 142.61393 
L 195.409717 142.902081 
L 196.716174 143.046157 
L 197.151659 143.088008 
L 197.587145 143.306865 
L 198.458116 143.35146 
L 198.893602 143.633437 
L 200.200059 143.924332 
L 201.07103 143.374101 
L 201.506516 143.389194 
L 201.942001 143.137405 
L 204.554915 144.748308 
L 205.861372 144.974026 
L 207.167829 145.204547 
L 207.603315 145.018621 
L 208.474286 144.462215 
L 208.909772 144.520531 
L 209.345257 144.735272 
L 210.216229 144.698224 
L 210.651714 144.872487 
L 211.0872 145.190826 
L 211.522686 145.048808 
L 212.393657 145.053611 
L 212.829142 145.314319 
L 214.135599 145.216896 
L 214.571085 145.503676 
L 215.006571 145.492698 
L 215.442056 145.881016 
L 216.748513 145.817898 
L 217.183999 146.162307 
L 217.619485 145.895424 
L 218.925941 147.020586 
L 219.796913 146.98491 
L 220.232398 147.560527 
L 221.974341 148.488785 
L 223.716283 147.364309 
L 224.151769 147.742336 
L 224.587255 147.800653 
L 225.02274 147.500838 
L 226.329197 148.043523 
L 226.764683 148.043523 
L 227.200169 148.272672 
L 228.07114 147.886412 
L 228.942111 147.909052 
L 229.377597 147.913169 
L 229.813082 147.708033 
L 230.248568 147.702544 
L 230.684054 147.489861 
L 231.119539 147.504955 
L 231.555025 147.360879 
L 231.990511 147.463104 
L 233.296968 148.415375 
L 233.732453 148.407828 
L 234.167939 148.188971 
L 235.03891 148.193087 
L 235.474396 147.747825 
L 237.216338 146.784576 
L 237.651824 146.81888 
L 238.522795 146.492309 
L 239.393767 146.437423 
L 241.571195 145.074193 
L 242.442166 145.260119 
L 242.877652 145.568167 
L 244.619594 145.373321 
L 245.05508 145.201803 
L 245.926051 145.249142 
L 246.797022 145.702637 
L 247.232508 145.683427 
L 248.103479 146.187006 
L 249.409936 147.157115 
L 249.845422 146.902581 
L 250.280908 146.879941 
L 250.716393 147.173581 
L 251.151879 146.881313 
L 251.587365 146.921791 
L 252.02285 146.589731 
L 253.329307 146.708422 
L 253.764793 146.565033 
L 254.200278 146.101932 
L 254.635764 145.895424 
L 255.07125 146.232287 
L 255.506735 146.086839 
L 255.942221 147.034994 
L 256.377707 146.919047 
L 256.813192 147.075472 
L 257.684164 147.072728 
L 258.119649 146.887488 
L 258.555135 146.882685 
L 258.99062 147.160545 
L 259.426106 146.997259 
L 260.732563 147.793792 
L 261.168049 147.678531 
L 262.474506 148.387246 
L 263.345477 148.304917 
L 263.780962 148.525833 
L 264.651934 148.516228 
L 265.522905 149.017063 
L 265.958391 148.770076 
L 266.829362 148.689119 
L 267.264848 148.852405 
L 269.00679 148.717248 
L 269.442276 149.150161 
L 270.313247 149.708626 
L 271.184218 149.578271 
L 271.619704 149.515839 
L 272.05519 149.773117 
L 272.490675 149.668833 
L 273.361647 149.159766 
L 273.797132 148.962177 
L 274.232618 149.226315 
L 274.668104 149.147417 
L 275.539075 149.586504 
L 275.97456 149.953554 
L 276.410046 149.845154 
L 278.151989 151.101357 
L 279.458446 151.664624 
L 279.893931 151.685206 
L 280.329417 151.397741 
L 280.764902 151.377158 
L 281.200388 151.064309 
L 283.813302 151.018342 
L 284.248788 150.74254 
L 284.684273 150.977177 
L 285.555245 150.951106 
L 285.99073 151.197407 
L 286.426216 151.234455 
L 286.861701 151.484872 
L 288.603644 151.50271 
L 289.474615 151.130172 
L 289.910101 151.375786 
L 290.781072 151.255723 
L 292.087529 151.967869 
L 292.9585 152.214855 
L 294.700443 152.391862 
L 295.135929 152.4097 
L 295.571414 152.228577 
L 296.0069 151.022458 
L 296.877871 151.344913 
L 297.313357 151.382647 
L 298.184328 151.31747 
L 299.055299 151.867702 
L 299.926271 151.423812 
L 300.361756 151.389508 
L 300.797242 151.088321 
L 301.668213 151.010109 
L 302.103699 150.816636 
L 302.539185 151.117136 
L 302.97467 150.895534 
L 304.281127 150.877696 
L 304.716613 150.635512 
L 305.587584 150.556613 
L 306.458555 150.233472 
L 307.329527 150.74254 
L 307.765012 150.715097 
L 308.200498 150.944246 
L 308.635984 151.299632 
L 309.506955 151.101357 
L 309.94244 150.348047 
L 310.377926 150.339128 
L 310.813412 149.978253 
L 311.248897 149.811537 
L 311.684383 150.060582 
L 312.119869 150.107235 
L 313.426326 150.611499 
L 313.861811 150.364513 
L 314.297297 150.387839 
L 314.732782 150.660897 
L 315.168268 150.548381 
L 315.603754 150.748028 
L 316.474725 150.446155 
L 316.910211 150.387153 
L 317.781182 149.910331 
L 318.216668 149.994719 
L 318.652153 149.90004 
L 319.087639 150.079792 
L 319.523125 149.83898 
L 319.95861 149.849271 
L 320.829581 150.197797 
L 321.265067 150.056465 
L 322.136038 150.147027 
L 322.571524 150.405677 
L 323.00701 149.47536 
L 323.442495 149.501431 
L 324.313467 149.027354 
L 324.748952 149.291492 
L 325.184438 149.222885 
L 326.490895 149.997463 
L 326.92638 149.720289 
L 327.361866 149.940519 
L 327.797352 149.754592 
L 328.232837 149.738127 
L 328.668323 149.388229 
L 329.103809 149.750476 
L 329.539294 149.671577 
L 329.97478 149.904843 
L 331.281237 149.879458 
L 331.716722 149.812223 
L 332.152208 150.010498 
L 332.587694 149.761453 
L 335.200608 149.390973 
L 335.636093 148.912779 
L 336.071579 148.932675 
L 336.507065 148.658932 
L 337.378036 149.12752 
L 338.249007 149.17486 
L 339.555464 149.819083 
L 339.99095 149.578271 
L 340.426435 149.771744 
L 340.861921 149.631099 
L 341.297407 149.974822 
L 341.732892 150.013929 
L 342.168378 149.50692 
L 342.603864 149.312761 
L 343.039349 149.528874 
L 345.652263 149.339517 
L 346.087749 149.712056 
L 346.523234 149.718917 
L 346.95872 149.361472 
L 348.265177 149.156336 
L 348.700662 148.779681 
L 349.136148 148.99305 
L 351.749062 149.071948 
L 352.184548 148.835939 
L 353.055519 149.258561 
L 353.92649 149.08567 
L 354.797461 149.175546 
L 355.232947 148.779681 
L 355.668433 148.628744 
L 356.103918 148.675397 
L 356.539404 148.925815 
L 356.97489 148.853777 
L 358.281347 149.498687 
L 359.152318 149.399892 
L 359.587804 149.67981 
L 360.023289 149.77243 
L 360.458775 149.449975 
L 363.071689 149.063716 
L 363.507174 148.729597 
L 364.378146 148.856521 
L 365.249117 148.843486 
L 365.684603 148.597185 
L 366.120088 148.670595 
L 366.555574 148.45997 
L 366.991059 147.398613 
L 368.297516 146.79624 
L 369.168488 147.233269 
L 369.603973 146.867591 
L 370.474945 147.382833 
L 372.216887 147.249735 
L 372.652373 147.114578 
L 373.087858 146.83809 
L 373.523344 146.797612 
L 373.95883 146.988341 
L 374.829801 146.962956 
L 375.700772 147.578364 
L 377.007229 146.755075 
L 377.442715 146.778402 
L 377.8782 147.039796 
L 378.313686 146.976677 
L 378.749172 147.27855 
L 380.055629 146.94649 
L 380.491114 147.012353 
L 380.9266 148.219158 
L 381.797571 148.316581 
L 382.233057 148.565626 
L 383.104028 148.700782 
L 383.539514 148.523089 
L 384.410485 148.56837 
L 384.845971 148.806438 
L 385.281456 148.807124 
L 385.716942 149.115857 
L 386.587913 148.791344 
L 387.023399 148.703527 
L 387.458885 148.385874 
L 387.89437 148.575917 
L 388.765341 148.08949 
L 389.200827 148.111444 
L 389.636313 148.410573 
L 390.071798 148.189657 
L 391.813741 148.53681 
L 392.249227 148.219158 
L 392.684712 148.182796 
L 393.555684 147.590028 
L 393.991169 147.748511 
L 394.426655 147.653833 
L 394.86214 148.781053 
L 395.297626 148.488785 
L 395.733112 148.481924 
L 396.168597 148.639722 
L 396.604083 148.385874 
L 397.475054 148.434585 
L 398.346026 147.817118 
L 398.781511 148.102525 
L 399.216997 148.136143 
L 399.652483 147.867202 
L 400.087968 147.938554 
L 400.958939 147.59483 
L 401.394425 147.902192 
L 401.829911 147.902878 
L 401.829911 147.902878 
" clip-path="url(#p19c997a3bb)" style="fill: none; stroke: #2ca02c; stroke-opacity: 0.8; stroke-width: 1.5; stroke-linecap: square"/>
   </g>
   <g id="line2d_18">
    <path d="M 146.635325 117.772548 
L 147.506296 117.031588 
L 148.377268 116.501938 
L 148.812753 116.359235 
L 149.248239 116.401772 
L 150.11921 116.722168 
L 150.554696 116.190461 
L 151.425667 115.891332 
L 151.861153 116.11019 
L 152.296638 116.103329 
L 152.732124 115.553098 
L 153.603095 115.135278 
L 154.474067 115.224468 
L 156.216009 114.012861 
L 156.651495 113.898286 
L 157.957952 113.21427 
L 158.393437 113.204665 
L 158.828923 113.406371 
L 159.264409 113.333647 
L 159.699894 113.516143 
L 160.13538 113.931904 
L 160.570866 114.136354 
L 161.006351 114.149389 
L 161.441837 114.29964 
L 161.877322 114.153506 
L 162.748294 114.456065 
L 163.183779 114.119202 
L 163.619265 114.003255 
L 164.054751 114.48831 
L 164.490236 114.445773 
L 164.925722 114.011488 
L 166.232179 106.886606 
L 166.667665 105.50348 
L 167.10315 105.390277 
L 167.538636 105.041066 
L 169.280578 104.630793 
L 169.716064 104.940213 
L 170.15155 104.593059 
L 171.458007 104.243161 
L 171.893492 103.739582 
L 172.328978 103.57218 
L 173.199949 102.527975 
L 173.635435 102.519742 
L 174.506406 101.596972 
L 175.377377 101.495433 
L 175.812863 101.751339 
L 177.11932 101.337636 
L 177.990291 100.400458 
L 178.425777 100.293431 
L 178.861262 99.97372 
L 179.296748 99.917462 
L 180.167719 99.105836 
L 180.603205 98.962446 
L 181.038691 98.628328 
L 181.474176 96.891874 
L 182.345148 96.785532 
L 182.780633 97.018798 
L 183.216119 96.235301 
L 183.651605 96.066526 
L 184.08709 96.462391 
L 184.522576 96.695657 
L 184.958061 96.635968 
L 185.393547 96.7231 
L 186.700004 96.484346 
L 187.13549 96.673702 
L 187.570975 96.334095 
L 188.006461 96.620188 
L 188.441947 96.204427 
L 188.877432 96.129645 
L 189.312918 95.770142 
L 191.05486 96.814347 
L 192.361317 89.111104 
L 192.796803 89.443164 
L 193.667774 83.689058 
L 194.538746 83.647208 
L 194.974231 83.520284 
L 195.409717 83.159409 
L 197.151659 82.867827 
L 197.587145 83.136768 
L 198.022631 83.104523 
L 199.764573 84.27428 
L 200.200059 84.382679 
L 200.635545 84.746299 
L 201.07103 84.763451 
L 201.506516 83.672592 
L 201.942001 82.950842 
L 203.683944 82.848617 
L 204.554915 87.520098 
L 205.425887 87.570181 
L 205.861372 87.529703 
L 206.296858 87.918707 
L 206.732343 87.776003 
L 207.167829 87.018577 
L 208.474286 86.045724 
L 210.216229 84.830686 
L 211.0872 84.81079 
L 211.522686 85.218318 
L 211.958171 85.264971 
L 212.829142 84.586443 
L 213.264628 84.566547 
L 213.700114 83.599868 
L 214.135599 83.181363 
L 215.006571 83.160781 
L 215.442056 83.680139 
L 215.877542 83.059242 
L 217.183999 83.141571 
L 217.619485 83.338474 
L 218.05497 83.341218 
L 218.490456 83.009844 
L 218.925941 82.4898 
L 219.796913 81.881252 
L 220.232398 80.445984 
L 220.667884 80.100889 
L 221.10337 80.240162 
L 221.974341 80.193509 
L 222.409827 79.932115 
L 223.280798 80.64426 
L 223.716283 80.469311 
L 224.151769 80.856257 
L 224.587255 80.865176 
L 225.458226 80.013758 
L 225.893712 80.523511 
L 227.635654 80.760893 
L 228.07114 80.734136 
L 228.506626 80.098145 
L 229.377597 80.150286 
L 229.813082 80.557128 
L 230.248568 78.114704 
L 230.684054 78.194974 
L 231.119539 79.007286 
L 231.555025 79.194585 
L 232.425996 79.989059 
L 233.732453 80.470683 
L 234.167939 79.994547 
L 234.603425 79.694047 
L 235.03891 78.26907 
L 235.474396 78.294455 
L 236.780853 77.272204 
L 237.651824 76.693844 
L 238.08731 76.899666 
L 238.522795 76.944261 
L 238.958281 75.386872 
L 239.393767 75.286019 
L 239.829252 75.069905 
L 240.700224 75.96043 
L 241.135709 76.318561 
L 242.442166 76.587502 
L 242.877652 75.736084 
L 243.313137 75.611904 
L 243.748623 75.240052 
L 244.184109 75.117931 
L 245.926051 73.835658 
L 246.797022 73.865845 
L 247.232508 73.242889 
L 247.667994 73.315613 
L 248.103479 73.654534 
L 248.974451 73.677174 
L 249.845422 74.366679 
L 250.716393 77.613183 
L 251.151879 80.136565 
L 251.587365 80.478916 
L 252.02285 80.279954 
L 252.458336 80.251825 
L 252.893821 79.858019 
L 253.329307 79.899869 
L 255.506735 78.614166 
L 256.377707 78.660819 
L 258.119649 80.365028 
L 258.555135 80.372574 
L 258.99062 80.766381 
L 259.426106 80.966029 
L 259.861592 80.97975 
L 260.297077 81.250064 
L 260.732563 78.191544 
L 261.603534 78.295827 
L 262.03902 78.474893 
L 262.474506 78.485184 
L 262.909991 78.918783 
L 263.345477 78.547617 
L 263.780962 78.946226 
L 264.216448 78.937307 
L 265.087419 79.522528 
L 266.829362 79.058742 
L 267.700333 78.472148 
L 268.135819 78.086575 
L 268.571305 78.444705 
L 269.00679 78.476265 
L 269.442276 77.620044 
L 270.313247 78.0262 
L 270.748733 77.998757 
L 271.184218 75.1687 
L 271.619704 75.585833 
L 272.05519 74.28435 
L 272.490675 74.540942 
L 272.926161 71.703338 
L 273.361647 72.182218 
L 273.797132 72.233674 
L 274.232618 72.563676 
L 275.103589 71.984629 
L 275.539075 72.004525 
L 275.97456 71.749305 
L 276.845532 77.198108 
L 277.281017 79.707768 
L 278.151989 74.965622 
L 278.587474 77.422455 
L 279.02296 77.096569 
L 280.329417 76.971018 
L 280.764902 76.191637 
L 281.200388 75.746375 
L 281.635874 75.863007 
L 282.071359 75.826645 
L 282.506845 74.989635 
L 282.942331 75.330614 
L 283.813302 75.249657 
L 284.248788 74.393436 
L 284.684273 74.428426 
L 285.119759 74.328945 
L 285.555245 74.040794 
L 285.99073 74.066865 
L 286.426216 75.154979 
L 286.861701 75.881531 
L 287.732673 75.221528 
L 288.168158 75.313462 
L 288.603644 75.121361 
L 289.03913 75.124105 
L 289.474615 75.48498 
L 289.910101 75.534378 
L 290.345587 75.891136 
L 290.781072 75.940534 
L 291.216558 75.548785 
L 291.652044 75.71756 
L 292.087529 76.340515 
L 292.523015 76.392657 
L 294.700443 78.143519 
L 295.135929 78.124995 
L 296.0069 77.456072 
L 296.442386 77.058149 
L 298.184328 77.011496 
L 298.619814 77.970628 
L 299.055299 78.123623 
L 299.490785 77.855367 
L 299.926271 77.836157 
L 300.361756 77.47391 
L 300.797242 77.664639 
L 301.232728 77.659836 
L 302.103699 76.628666 
L 302.97467 76.661598 
L 303.845641 77.261913 
L 304.281127 76.576525 
L 304.716613 76.875653 
L 305.152098 78.3809 
L 305.587584 78.451566 
L 306.02307 78.701983 
L 306.458555 75.325811 
L 306.894041 74.459985 
L 307.765012 74.600631 
L 308.200498 74.606119 
L 308.635984 74.87163 
L 309.506955 74.241814 
L 310.377926 74.496347 
L 310.813412 74.438031 
L 311.248897 74.652086 
L 311.684383 74.362563 
L 312.119869 72.257686 
L 312.99084 72.261117 
L 313.426326 72.919062 
L 313.861811 72.560931 
L 314.297297 72.896422 
L 314.732782 71.891323 
L 315.168268 73.923475 
L 315.603754 73.917986 
L 316.039239 73.653848 
L 316.910211 73.430188 
L 317.781182 72.84085 
L 318.216668 72.886131 
L 318.652153 71.428909 
L 319.087639 71.035102 
L 319.523125 71.236808 
L 319.95861 72.411367 
L 320.394096 72.451159 
L 320.829581 72.267978 
L 321.265067 72.214464 
L 322.571524 73.708734 
L 323.00701 73.853495 
L 323.442495 73.771167 
L 323.877981 75.258576 
L 324.313467 73.789004 
L 324.748952 74.029817 
L 325.184438 74.075784 
L 325.619924 73.704617 
L 326.055409 73.591415 
L 326.92638 74.037363 
L 327.361866 74.148507 
L 327.797352 75.35051 
L 328.232837 75.29974 
L 328.668323 74.094994 
L 329.103809 74.463416 
L 329.97478 74.583479 
L 330.410266 73.902207 
L 330.845751 74.253477 
L 331.716722 74.222604 
L 332.152208 74.5972 
L 333.023179 74.530651 
L 333.458665 73.625033 
L 334.765122 73.585926 
L 335.200608 74.188986 
L 335.636093 74.519674 
L 336.071579 74.543 
L 336.507065 75.228389 
L 336.94255 75.432153 
L 337.813521 75.549471 
L 338.249007 74.189672 
L 339.119978 74.70217 
L 339.555464 75.020508 
L 339.99095 75.557704 
L 340.426435 75.435583 
L 341.297407 75.397849 
L 342.603864 74.386575 
L 343.474835 74.431856 
L 343.91032 74.112146 
L 345.216777 73.889171 
L 345.652263 76.952494 
L 346.087749 76.957296 
L 346.95872 77.532226 
L 347.394206 77.656406 
L 347.829691 77.649545 
L 348.265177 78.061876 
L 348.700662 77.694826 
L 349.136148 78.059132 
L 349.571634 78.041294 
L 350.007119 77.47734 
L 350.442605 77.334637 
L 350.878091 77.379232 
L 351.313576 78.756869 
L 351.749062 77.634452 
L 352.620033 77.67836 
L 353.055519 77.923289 
L 353.491005 77.985722 
L 353.92649 77.587798 
L 354.361976 78.238197 
L 355.232947 77.635138 
L 355.668433 77.56653 
L 356.103918 79.971221 
L 356.539404 79.685814 
L 356.97489 80.79451 
L 357.410375 79.069033 
L 357.845861 81.593101 
L 358.716832 81.027089 
L 359.152318 80.690227 
L 359.587804 80.577025 
L 360.023289 80.631224 
L 360.458775 78.083144 
L 360.89426 77.946615 
L 361.329746 77.94936 
L 361.765232 77.565844 
L 362.200717 77.608381 
L 362.636203 79.503318 
L 363.071689 84.506859 
L 363.507174 84.946632 
L 363.94266 85.591542 
L 364.378146 85.632021 
L 364.813631 85.25125 
L 365.249117 85.315741 
L 365.684603 86.130111 
L 366.120088 86.664563 
L 366.555574 86.686517 
L 366.991059 86.833337 
L 367.426545 87.360242 
L 368.297516 86.779823 
L 368.733002 86.793545 
L 369.168488 87.401407 
L 369.603973 86.965749 
L 370.474945 86.960947 
L 370.91043 87.254587 
L 371.345916 87.280658 
L 371.781401 87.098162 
L 372.652373 87.192154 
L 373.087858 87.109825 
L 373.523344 86.654958 
L 373.95883 86.917038 
L 374.394315 86.438158 
L 374.829801 86.36269 
L 375.265287 85.870775 
L 375.700772 85.84882 
L 376.136258 85.220376 
L 376.571744 85.181956 
L 377.442715 85.667011 
L 379.184657 85.463933 
L 380.055629 84.29349 
L 380.491114 84.272907 
L 380.9266 84.371702 
L 381.362086 84.660539 
L 381.797571 84.288001 
L 382.233057 84.598793 
L 382.668543 84.497254 
L 383.104028 84.652993 
L 383.974999 84.471869 
L 384.410485 84.729833 
L 385.281456 84.941144 
L 385.716942 85.44335 
L 386.152428 85.163432 
L 386.587913 85.586054 
L 387.023399 84.303095 
L 387.458885 84.259872 
L 387.89437 83.982698 
L 388.329856 83.516167 
L 388.765341 83.518912 
L 389.200827 84.265361 
L 389.636313 83.288391 
L 390.071798 83.297996 
L 390.507284 83.483236 
L 390.94277 83.210864 
L 391.378255 86.23165 
L 391.813741 87.063172 
L 392.249227 87.430222 
L 393.120198 87.404151 
L 393.555684 87.146873 
L 394.426655 87.427478 
L 394.86214 87.680639 
L 395.297626 87.639474 
L 396.168597 86.761985 
L 396.604083 85.148338 
L 397.039569 87.35887 
L 397.475054 87.426791 
L 398.346026 86.833337 
L 399.216997 85.876949 
L 400.087968 87.388371 
L 400.958939 87.908416 
L 401.394425 87.918707 
L 401.829911 87.677895 
L 401.829911 87.677895 
" clip-path="url(#p19c997a3bb)" style="fill: none; stroke: #d62728; stroke-opacity: 0.8; stroke-width: 1.5; stroke-linecap: square"/>
   </g>
   <g id="line2d_19">
    <path d="M 146.635325 159.959949 
L 147.070811 160.037476 
L 147.506296 159.983276 
L 147.941782 160.149306 
L 148.377268 160.165085 
L 148.812753 160.555462 
L 150.11921 161.166068 
L 150.554696 161.413055 
L 150.990181 161.3911 
L 151.425667 161.076192 
L 152.296638 161.440498 
L 152.732124 161.407566 
L 155.345038 162.445597 
L 155.780523 162.376303 
L 156.216009 162.516948 
L 156.651495 162.521065 
L 157.522466 162.886743 
L 158.828923 163.435602 
L 159.699894 163.329947 
L 160.13538 163.026016 
L 160.570866 163.055517 
L 161.877322 162.362582 
L 162.748294 162.350232 
L 163.619265 162.256926 
L 164.490236 161.678566 
L 165.361208 161.717672 
L 165.796693 162.180772 
L 166.232179 161.931727 
L 166.667665 161.964659 
L 167.974121 161.268293 
L 168.409607 160.013463 
L 168.845093 157.968275 
L 169.716064 157.870853 
L 171.022521 157.84684 
L 171.458007 158.193994 
L 172.764463 158.25574 
L 173.199949 156.660617 
L 173.635435 154.312871 
L 174.506406 154.319045 
L 174.941892 154.074803 
L 175.377377 154.084408 
L 175.812863 154.364326 
L 177.554806 154.555055 
L 177.990291 154.332081 
L 180.603205 154.194866 
L 181.474176 153.558189 
L 182.345148 152.891325 
L 182.780633 152.845358 
L 184.522576 151.715393 
L 184.958061 151.695497 
L 185.393547 152.022754 
L 186.264518 151.523292 
L 187.13549 151.610424 
L 187.570975 151.351774 
L 188.006461 151.277678 
L 188.877432 150.772727 
L 189.748403 151.411462 
L 191.05486 151.468406 
L 191.490346 151.168592 
L 193.232289 151.141149 
L 193.667774 151.860841 
L 194.538746 151.165848 
L 196.280688 151.298946 
L 196.716174 151.052645 
L 197.151659 151.469092 
L 197.587145 151.544561 
L 198.458116 152.230635 
L 201.07103 152.223774 
L 201.942001 151.554852 
L 202.377487 151.075286 
L 203.683944 150.890732 
L 204.11943 150.914744 
L 204.990401 150.345989 
L 205.425887 150.713038 
L 206.732343 150.559358 
L 207.167829 149.951496 
L 208.0388 149.438998 
L 208.909772 149.384798 
L 209.345257 149.043133 
L 210.216229 149.405381 
L 211.522686 149.389601 
L 211.958171 149.72715 
L 214.571085 149.102822 
L 215.442056 149.149475 
L 216.748513 149.073321 
L 217.619485 148.368036 
L 218.490456 147.829468 
L 218.925941 148.300801 
L 219.361427 148.303545 
L 219.796913 148.446249 
L 220.232398 148.746063 
L 220.667884 148.525147 
L 221.10337 148.593069 
L 221.974341 148.075768 
L 222.409827 148.040779 
L 222.845312 148.133399 
L 223.280798 148.42155 
L 223.716283 148.438016 
L 224.587255 147.873376 
L 225.02274 148.180738 
L 225.458226 148.706271 
L 227.200169 147.604435 
L 227.635654 146.250124 
L 228.07114 144.166517 
L 228.506626 144.531508 
L 228.942111 144.700968 
L 229.377597 144.687247 
L 229.813082 144.981573 
L 230.684054 144.426539 
L 231.119539 144.611779 
L 231.990511 144.070466 
L 232.425996 144.03136 
L 233.296968 143.455057 
L 233.732453 143.450941 
L 234.167939 143.209443 
L 234.603425 143.269131 
L 235.909881 142.703806 
L 236.345367 142.976177 
L 237.216338 142.327837 
L 237.651824 141.999894 
L 238.522795 142.135736 
L 239.393767 141.56012 
L 240.264738 141.087415 
L 240.700224 141.365275 
L 243.748623 139.042227 
L 244.184109 139.019586 
L 245.05508 139.615785 
L 245.490566 139.639798 
L 245.926051 139.892273 
L 246.361537 139.885412 
L 246.797022 140.021941 
L 247.667994 140.606476 
L 248.103479 140.111817 
L 249.409936 140.967352 
L 249.845422 141.031156 
L 250.280908 141.333715 
L 250.716393 140.869243 
L 251.151879 141.157394 
L 251.587365 141.160138 
L 252.02285 141.297353 
L 252.458336 141.209536 
L 252.893821 141.353611 
L 253.329307 142.303138 
L 253.764793 144.033418 
L 254.635764 144.661862 
L 255.07125 144.946583 
L 255.506735 144.987748 
L 255.942221 145.374007 
L 256.813192 145.346564 
L 257.684164 144.810054 
L 258.119649 146.018917 
L 258.555135 148.081257 
L 259.426106 148.030488 
L 259.861592 148.304917 
L 262.909991 148.18211 
L 263.345477 147.924832 
L 263.780962 147.815746 
L 264.651934 148.355687 
L 265.522905 148.388618 
L 265.958391 148.175249 
L 266.829362 148.30972 
L 267.264848 148.59101 
L 267.700333 148.361175 
L 268.571305 148.905918 
L 269.00679 148.835253 
L 269.442276 149.154963 
L 269.877761 149.20093 
L 270.313247 148.841427 
L 270.748733 149.117229 
L 271.619704 149.098019 
L 272.05519 148.82359 
L 272.490675 148.831822 
L 273.361647 149.287376 
L 273.797132 149.283259 
L 274.232618 148.969723 
L 275.103589 148.971782 
L 275.539075 148.860638 
L 275.97456 148.867498 
L 276.410046 149.175546 
L 278.587474 149.276399 
L 279.458446 150.021475 
L 279.893931 149.709312 
L 280.764902 149.530246 
L 281.200388 149.237292 
L 282.071359 149.187895 
L 283.377816 148.637663 
L 285.119759 147.395869 
L 285.555245 147.088507 
L 286.426216 147.799967 
L 287.297187 147.835642 
L 287.732673 148.203378 
L 288.168158 148.292568 
L 288.603644 148.52995 
L 289.03913 148.534066 
L 289.474615 148.398909 
L 289.910101 148.483983 
L 290.345587 148.42498 
L 290.781072 148.188285 
L 291.652044 148.35157 
L 292.087529 148.998539 
L 292.523015 149.277771 
L 292.9585 149.25513 
L 293.829472 148.735086 
L 294.264957 149.060971 
L 294.700443 148.794774 
L 295.135929 146.752331 
L 295.571414 146.418899 
L 296.877871 146.405863 
L 297.748842 147.123497 
L 298.619814 147.1825 
L 299.490785 147.701858 
L 302.103699 147.959136 
L 302.539185 148.095665 
L 302.97467 148.095665 
L 303.845641 148.602674 
L 304.716613 148.636291 
L 305.152098 148.669909 
L 305.587584 147.450069 
L 306.02307 147.093996 
L 306.458555 147.443894 
L 306.894041 147.642855 
L 308.200498 147.623645 
L 308.635984 147.504268 
L 309.94244 141.245212 
L 310.377926 138.850126 
L 310.813412 134.400933 
L 311.684383 134.442784 
L 312.119869 134.24245 
L 312.555354 135.861586 
L 312.99084 138.013801 
L 313.426326 137.976067 
L 315.168268 137.187768 
L 315.603754 137.139742 
L 316.039239 136.833753 
L 317.345696 136.734959 
L 318.216668 137.245398 
L 318.652153 136.868743 
L 319.087639 136.782984 
L 319.523125 136.42005 
L 320.394096 136.907849 
L 321.265067 136.883837 
L 321.700553 134.92578 
L 323.00701 132.624687 
L 323.877981 132.560196 
L 324.748952 132.495705 
L 325.184438 132.835998 
L 325.619924 132.550591 
L 326.055409 132.873732 
L 326.490895 132.964294 
L 327.361866 133.714859 
L 328.232837 134.316546 
L 328.668323 134.297336 
L 329.103809 134.464738 
L 329.539294 134.451703 
L 330.410266 134.291848 
L 330.845751 134.298022 
L 331.716722 134.907942 
L 332.152208 134.954596 
L 332.587694 134.657525 
L 333.023179 135.417696 
L 333.894151 135.467779 
L 334.765122 134.739168 
L 335.200608 134.674677 
L 335.636093 134.86815 
L 336.071579 134.86472 
L 336.94255 134.487379 
L 338.249007 134.772786 
L 338.684493 135.109648 
L 339.119978 134.966259 
L 339.99095 134.255486 
L 340.861921 134.191681 
L 341.297407 133.880889 
L 341.732892 133.824631 
L 342.168378 134.105235 
L 342.603864 134.210891 
L 343.039349 134.575882 
L 343.474835 134.565591 
L 344.781292 133.685358 
L 345.216777 133.672322 
L 345.652263 133.37045 
L 347.394206 133.549515 
L 347.829691 133.115916 
L 348.265177 133.388974 
L 348.700662 133.492571 
L 349.571634 133.37388 
L 350.007119 133.025354 
L 350.442605 133.37045 
L 350.878091 133.90696 
L 351.749062 133.90696 
L 352.184548 132.691922 
L 352.620033 132.637722 
L 353.055519 132.353687 
L 353.491005 132.241171 
L 353.92649 132.255579 
L 354.361976 131.896076 
L 354.797461 131.794537 
L 355.232947 132.186285 
L 355.668433 131.876866 
L 356.539404 132.44768 
L 356.97489 132.379072 
L 357.410375 132.58215 
L 360.89426 132.58215 
L 361.765232 131.918716 
L 362.636203 131.894704 
L 363.071689 131.412393 
L 363.94266 131.386323 
L 364.378146 131.328006 
L 364.813631 131.626449 
L 365.249117 131.612727 
L 365.684603 131.413079 
L 366.120088 131.403474 
L 366.555574 131.649775 
L 366.991059 131.460419 
L 367.426545 131.677904 
L 367.862031 131.479629 
L 369.603973 132.561568 
L 370.039459 130.562347 
L 370.474945 130.860104 
L 371.345916 130.805218 
L 372.216887 131.553039 
L 372.652373 131.574993 
L 373.087858 131.387009 
L 373.523344 131.401416 
L 374.829801 132.278905 
L 375.265287 132.319384 
L 375.700772 132.549219 
L 376.136258 132.551963 
L 376.571744 132.897744 
L 377.007229 131.803456 
L 377.442715 131.829527 
L 377.8782 132.104642 
L 378.313686 132.184227 
L 378.749172 132.449052 
L 379.184657 132.473064 
L 379.620143 132.772193 
L 380.055629 134.800229 
L 380.491114 134.831102 
L 380.9266 134.194425 
L 381.362086 134.105235 
L 381.797571 132.772193 
L 382.233057 132.392794 
L 382.668543 131.77121 
L 383.104028 131.730732 
L 383.539514 131.408277 
L 383.974999 131.452872 
L 384.410485 131.352019 
L 386.152428 130.154819 
L 386.587913 130.158935 
L 387.023399 130.460808 
L 387.89437 130.023093 
L 388.765341 129.47835 
L 389.200827 129.398765 
L 389.636313 129.143545 
L 390.071798 129.140801 
L 390.507284 130.549312 
L 390.94277 130.667317 
L 391.378255 130.569894 
L 391.813741 130.606256 
L 392.249227 130.520497 
L 392.684712 130.576069 
L 393.120198 130.504717 
L 393.555684 130.251556 
L 395.297626 138.743098 
L 395.733112 143.466035 
L 396.168597 143.898947 
L 396.604083 143.577865 
L 397.039569 143.765849 
L 397.475054 143.773396 
L 397.91054 144.198076 
L 398.346026 143.84612 
L 399.216997 144.560323 
L 399.652483 144.40527 
L 400.087968 144.809368 
L 400.523454 144.8965 
L 400.958939 145.317063 
L 401.829911 145.815153 
L 401.829911 145.815153 
" clip-path="url(#p19c997a3bb)" style="fill: none; stroke: #9467bd; stroke-opacity: 0.8; stroke-width: 1.5; stroke-linecap: square"/>
   </g>
   <g id="patch_3">
    <path d="M 61.715625 288.430125 
L 61.715625 22.318125 
" style="fill: none; stroke: #000000; stroke-width: 0.8; stroke-linejoin: miter; stroke-linecap: square"/>
   </g>
   <g id="patch_4">
    <path d="M 418.835625 288.430125 
L 418.835625 22.318125 
" style="fill: none; stroke: #000000; stroke-width: 0.8; stroke-linejoin: miter; stroke-linecap: square"/>
   </g>
   <g id="patch_5">
    <path d="M 61.715625 288.430125 
L 418.835625 288.430125 
" style="fill: none; stroke: #000000; stroke-width: 0.8; stroke-linejoin: miter; stroke-linecap: square"/>
   </g>
   <g id="patch_6">
    <path d="M 61.715625 22.318125 
L 418.835625 22.318125 
" style="fill: none; stroke: #000000; stroke-width: 0.8; stroke-linejoin: miter; stroke-linecap: square"/>
   </g>
   <g id="text_17">
    <!-- Get next sibling [root] -->
    <g transform="translate(174.314063 16.318125) scale(0.12 -0.12)">
     <defs>
      <path id="DejaVuSans-47" d="M 3809 666 
L 3809 1919 
L 2778 1919 
L 2778 2438 
L 4434 2438 
L 4434 434 
Q 4069 175 3628 42 
Q 3188 -91 2688 -91 
Q 1594 -91 976 548 
Q 359 1188 359 2328 
Q 359 3472 976 4111 
Q 1594 4750 2688 4750 
Q 3144 4750 3555 4637 
Q 3966 4525 4313 4306 
L 4313 3634 
Q 3963 3931 3569 4081 
Q 3175 4231 2741 4231 
Q 1884 4231 1454 3753 
Q 1025 3275 1025 2328 
Q 1025 1384 1454 906 
Q 1884 428 2741 428 
Q 3075 428 3337 486 
Q 3600 544 3809 666 
z
" transform="scale(0.015625)"/>
      <path id="DejaVuSans-78" d="M 3513 3500 
L 2247 1797 
L 3578 0 
L 2900 0 
L 1881 1375 
L 863 0 
L 184 0 
L 1544 1831 
L 300 3500 
L 978 3500 
L 1906 2253 
L 2834 3500 
L 3513 3500 
z
" transform="scale(0.015625)"/>
      <path id="DejaVuSans-67" d="M 2906 1791 
Q 2906 2416 2648 2759 
Q 2391 3103 1925 3103 
Q 1463 3103 1205 2759 
Q 947 2416 947 1791 
Q 947 1169 1205 825 
Q 1463 481 1925 481 
Q 2391 481 2648 825 
Q 2906 1169 2906 1791 
z
M 3481 434 
Q 3481 -459 3084 -895 
Q 2688 -1331 1869 -1331 
Q 1566 -1331 1297 -1286 
Q 1028 -1241 775 -1147 
L 775 -588 
Q 1028 -725 1275 -790 
Q 1522 -856 1778 -856 
Q 2344 -856 2625 -561 
Q 2906 -266 2906 331 
L 2906 616 
Q 2728 306 2450 153 
Q 2172 0 1784 0 
Q 1141 0 747 490 
Q 353 981 353 1791 
Q 353 2603 747 3093 
Q 1141 3584 1784 3584 
Q 2172 3584 2450 3431 
Q 2728 3278 2906 2969 
L 2906 3500 
L 3481 3500 
L 3481 434 
z
" transform="scale(0.015625)"/>
      <path id="DejaVuSans-5b" d="M 550 4863 
L 1875 4863 
L 1875 4416 
L 1125 4416 
L 1125 -397 
L 1875 -397 
L 1875 -844 
L 550 -844 
L 550 4863 
z
" transform="scale(0.015625)"/>
      <path id="DejaVuSans-72" d="M 2631 2963 
Q 2534 3019 2420 3045 
Q 2306 3072 2169 3072 
Q 1681 3072 1420 2755 
Q 1159 2438 1159 1844 
L 1159 0 
L 581 0 
L 581 3500 
L 1159 3500 
L 1159 2956 
Q 1341 3275 1631 3429 
Q 1922 3584 2338 3584 
Q 2397 3584 2469 3576 
Q 2541 3569 2628 3553 
L 2631 2963 
z
" transform="scale(0.015625)"/>
      <path id="DejaVuSans-5d" d="M 1947 4863 
L 1947 -844 
L 622 -844 
L 622 -397 
L 1369 -397 
L 1369 4416 
L 622 4416 
L 622 4863 
L 1947 4863 
z
" transform="scale(0.015625)"/>
     </defs>
     <use xlink:href="#DejaVuSans-47"/>
     <use xlink:href="#DejaVuSans-65" transform="translate(77.490234 0)"/>
     <use xlink:href="#DejaVuSans-74" transform="translate(139.013672 0)"/>
     <use xlink:href="#DejaVuSans-20" transform="translate(178.222656 0)"/>
     <use xlink:href="#DejaVuSans-6e" transform="translate(210.009766 0)"/>
     <use xlink:href="#DejaVuSans-65" transform="translate(273.388672 0)"/>
     <use xlink:href="#DejaVuSans-78" transform="translate(333.162109 0)"/>
     <use xlink:href="#DejaVuSans-74" transform="translate(392.341797 0)"/>
     <use xlink:href="#DejaVuSans-20" transform="translate(431.550781 0)"/>
     <use xlink:href="#DejaVuSans-73" transform="translate(463.337891 0)"/>
     <use xlink:href="#DejaVuSans-69" transform="translate(515.4375 0)"/>
     <use xlink:href="#DejaVuSans-62" transform="translate(543.220703 0)"/>
     <use xlink:href="#DejaVuSans-6c" transform="translate(606.697266 0)"/>
     <use xlink:href="#DejaVuSans-69" transform="translate(634.480469 0)"/>
     <use xlink:href="#DejaVuSans-6e" transform="translate(662.263672 0)"/>
     <use xlink:href="#DejaVuSans-67" transform="translate(725.642578 0)"/>
     <use xlink:href="#DejaVuSans-20" transform="translate(789.119141 0)"/>
     <use xlink:href="#DejaVuSans-5b" transform="translate(820.90625 0)"/>
     <use xlink:href="#DejaVuSans-72" transform="translate(859.919922 0)"/>
     <use xlink:href="#DejaVuSans-6f" transform="translate(898.783203 0)"/>
     <use xlink:href="#DejaVuSans-6f" transform="translate(959.964844 0)"/>
     <use xlink:href="#DejaVuSans-74" transform="translate(1021.146484 0)"/>
     <use xlink:href="#DejaVuSans-5d" transform="translate(1060.355469 0)"/>
    </g>
   </g>
   <g id="legend_1">
    <g id="patch_7">
     <path d="M 92.717969 365.802375 
L 380.313281 365.802375 
Q 382.313281 365.802375 382.313281 363.802375 
L 382.313281 335.446125 
Q 382.313281 333.446125 380.313281 333.446125 
L 92.717969 333.446125 
Q 90.717969 333.446125 90.717969 335.446125 
L 90.717969 363.802375 
Q 90.717969 365.802375 92.717969 365.802375 
z
" style="fill: #4d4d4d; opacity: 0.5; stroke: #4d4d4d; stroke-linejoin: miter"/>
    </g>
    <g id="patch_8">
     <path d="M 90.717969 363.802375 
L 378.313281 363.802375 
Q 380.313281 363.802375 380.313281 361.802375 
L 380.313281 333.446125 
Q 380.313281 331.446125 378.313281 331.446125 
L 90.717969 331.446125 
Q 88.717969 331.446125 88.717969 333.446125 
L 88.717969 361.802375 
Q 88.717969 363.802375 90.717969 363.802375 
z
" style="fill: #ffffff; stroke: #cccccc; stroke-linejoin: miter"/>
    </g>
    <g id="line2d_20">
     <path d="M 92.717969 339.544562 
L 102.717969 339.544562 
L 112.717969 339.544562 
" style="fill: none; stroke: #1f77b4; stroke-opacity: 0.8; stroke-width: 1.5; stroke-linecap: square"/>
    </g>
    <g id="text_18">
     <!-- MPTT -->
     <g transform="translate(120.717969 343.044562) scale(0.1 -0.1)">
      <defs>
       <path id="DejaVuSans-4d" d="M 628 4666 
L 1569 4666 
L 2759 1491 
L 3956 4666 
L 4897 4666 
L 4897 0 
L 4281 0 
L 4281 4097 
L 3078 897 
L 2444 897 
L 1241 4097 
L 1241 0 
L 628 0 
L 628 4666 
z
" transform="scale(0.015625)"/>
       <path id="DejaVuSans-50" d="M 1259 4147 
L 1259 2394 
L 2053 2394 
Q 2494 2394 2734 2622 
Q 2975 2850 2975 3272 
Q 2975 3691 2734 3919 
Q 2494 4147 2053 4147 
L 1259 4147 
z
M 628 4666 
L 2053 4666 
Q 2838 4666 3239 4311 
Q 3641 3956 3641 3272 
Q 3641 2581 3239 2228 
Q 2838 1875 2053 1875 
L 1259 1875 
L 1259 0 
L 628 0 
L 628 4666 
z
" transform="scale(0.015625)"/>
       <path id="DejaVuSans-54" d="M -19 4666 
L 3928 4666 
L 3928 4134 
L 2272 4134 
L 2272 0 
L 1638 0 
L 1638 4134 
L -19 4134 
L -19 4666 
z
" transform="scale(0.015625)"/>
      </defs>
      <use xlink:href="#DejaVuSans-4d"/>
      <use xlink:href="#DejaVuSans-50" transform="translate(86.279297 0)"/>
      <use xlink:href="#DejaVuSans-54" transform="translate(146.582031 0)"/>
      <use xlink:href="#DejaVuSans-54" transform="translate(205.916016 0)"/>
     </g>
    </g>
    <g id="line2d_21">
     <path d="M 92.717969 354.222687 
L 102.717969 354.222687 
L 112.717969 354.222687 
" style="fill: none; stroke: #ff7f0e; stroke-opacity: 0.8; stroke-width: 1.5; stroke-linecap: square"/>
    </g>
    <g id="text_19">
     <!-- tree -->
     <g transform="translate(120.717969 357.722687) scale(0.1 -0.1)">
      <use xlink:href="#DejaVuSans-74"/>
      <use xlink:href="#DejaVuSans-72" transform="translate(39.208984 0)"/>
      <use xlink:href="#DejaVuSans-65" transform="translate(78.072266 0)"/>
      <use xlink:href="#DejaVuSans-65" transform="translate(139.595703 0)"/>
     </g>
    </g>
    <g id="line2d_22">
     <path d="M 167.416406 339.544562 
L 177.416406 339.544562 
L 187.416406 339.544562 
" style="fill: none; stroke: #2ca02c; stroke-opacity: 0.8; stroke-width: 1.5; stroke-linecap: square"/>
    </g>
    <g id="text_20">
     <!-- treebeard AL -->
     <g transform="translate(195.416406 343.044562) scale(0.1 -0.1)">
      <defs>
       <path id="DejaVuSans-4c" d="M 628 4666 
L 1259 4666 
L 1259 531 
L 3531 531 
L 3531 0 
L 628 0 
L 628 4666 
z
" transform="scale(0.015625)"/>
      </defs>
      <use xlink:href="#DejaVuSans-74"/>
      <use xlink:href="#DejaVuSans-72" transform="translate(39.208984 0)"/>
      <use xlink:href="#DejaVuSans-65" transform="translate(78.072266 0)"/>
      <use xlink:href="#DejaVuSans-65" transform="translate(139.595703 0)"/>
      <use xlink:href="#DejaVuSans-62" transform="translate(201.119141 0)"/>
      <use xlink:href="#DejaVuSans-65" transform="translate(264.595703 0)"/>
      <use xlink:href="#DejaVuSans-61" transform="translate(326.119141 0)"/>
      <use xlink:href="#DejaVuSans-72" transform="translate(387.398438 0)"/>
      <use xlink:href="#DejaVuSans-64" transform="translate(426.761719 0)"/>
      <use xlink:href="#DejaVuSans-20" transform="translate(490.238281 0)"/>
      <use xlink:href="#DejaVuSans-41" transform="translate(522.025391 0)"/>
      <use xlink:href="#DejaVuSans-4c" transform="translate(590.433594 0)"/>
     </g>
    </g>
    <g id="line2d_23">
     <path d="M 167.416406 354.222687 
L 177.416406 354.222687 
L 187.416406 354.222687 
" style="fill: none; stroke: #d62728; stroke-opacity: 0.8; stroke-width: 1.5; stroke-linecap: square"/>
    </g>
    <g id="text_21">
     <!-- treebeard MP -->
     <g transform="translate(195.416406 357.722687) scale(0.1 -0.1)">
      <use xlink:href="#DejaVuSans-74"/>
      <use xlink:href="#DejaVuSans-72" transform="translate(39.208984 0)"/>
      <use xlink:href="#DejaVuSans-65" transform="translate(78.072266 0)"/>
      <use xlink:href="#DejaVuSans-65" transform="translate(139.595703 0)"/>
      <use xlink:href="#DejaVuSans-62" transform="translate(201.119141 0)"/>
      <use xlink:href="#DejaVuSans-65" transform="translate(264.595703 0)"/>
      <use xlink:href="#DejaVuSans-61" transform="translate(326.119141 0)"/>
      <use xlink:href="#DejaVuSans-72" transform="translate(387.398438 0)"/>
      <use xlink:href="#DejaVuSans-64" transform="translate(426.761719 0)"/>
      <use xlink:href="#DejaVuSans-20" transform="translate(490.238281 0)"/>
      <use xlink:href="#DejaVuSans-4d" transform="translate(522.025391 0)"/>
      <use xlink:href="#DejaVuSans-50" transform="translate(608.304688 0)"/>
     </g>
    </g>
    <g id="line2d_24">
     <path d="M 282.278906 339.544562 
L 292.278906 339.544562 
L 302.278906 339.544562 
" style="fill: none; stroke: #9467bd; stroke-opacity: 0.8; stroke-width: 1.5; stroke-linecap: square"/>
    </g>
    <g id="text_22">
     <!-- treebeard NS -->
     <g transform="translate(310.278906 343.044562) scale(0.1 -0.1)">
      <defs>
       <path id="DejaVuSans-4e" d="M 628 4666 
L 1478 4666 
L 3547 763 
L 3547 4666 
L 4159 4666 
L 4159 0 
L 3309 0 
L 1241 3903 
L 1241 0 
L 628 0 
L 628 4666 
z
" transform="scale(0.015625)"/>
       <path id="DejaVuSans-53" d="M 3425 4513 
L 3425 3897 
Q 3066 4069 2747 4153 
Q 2428 4238 2131 4238 
Q 1616 4238 1336 4038 
Q 1056 3838 1056 3469 
Q 1056 3159 1242 3001 
Q 1428 2844 1947 2747 
L 2328 2669 
Q 3034 2534 3370 2195 
Q 3706 1856 3706 1288 
Q 3706 609 3251 259 
Q 2797 -91 1919 -91 
Q 1588 -91 1214 -16 
Q 841 59 441 206 
L 441 856 
Q 825 641 1194 531 
Q 1563 422 1919 422 
Q 2459 422 2753 634 
Q 3047 847 3047 1241 
Q 3047 1584 2836 1778 
Q 2625 1972 2144 2069 
L 1759 2144 
Q 1053 2284 737 2584 
Q 422 2884 422 3419 
Q 422 4038 858 4394 
Q 1294 4750 2059 4750 
Q 2388 4750 2728 4690 
Q 3069 4631 3425 4513 
z
" transform="scale(0.015625)"/>
      </defs>
      <use xlink:href="#DejaVuSans-74"/>
      <use xlink:href="#DejaVuSans-72" transform="translate(39.208984 0)"/>
      <use xlink:href="#DejaVuSans-65" transform="translate(78.072266 0)"/>
      <use xlink:href="#DejaVuSans-65" transform="translate(139.595703 0)"/>
      <use xlink:href="#DejaVuSans-62" transform="translate(201.119141 0)"/>
      <use xlink:href="#DejaVuSans-65" transform="translate(264.595703 0)"/>
      <use xlink:href="#DejaVuSans-61" transform="translate(326.119141 0)"/>
      <use xlink:href="#DejaVuSans-72" transform="translate(387.398438 0)"/>
      <use xlink:href="#DejaVuSans-64" transform="translate(426.761719 0)"/>
      <use xlink:href="#DejaVuSans-20" transform="translate(490.238281 0)"/>
      <use xlink:href="#DejaVuSans-4e" transform="translate(522.025391 0)"/>
      <use xlink:href="#DejaVuSans-53" transform="translate(596.830078 0)"/>
     </g>
    </g>
   </g>
  </g>
 </g>
 <defs>
  <clipPath id="p19c997a3bb">
   <rect x="61.715625" y="22.318125" width="357.12" height="266.112"/>
  </clipPath>
 </defs>
</svg>
