<?xml version="1.0" encoding="utf-8" standalone="no"?>
<!DOCTYPE svg PUBLIC "-//W3C//DTD SVG 1.1//EN"
  "http://www.w3.org/Graphics/SVG/1.1/DTD/svg11.dtd">
<!-- Created with matplotlib (http://matplotlib.org/) -->
<svg height="371pt" version="1.1" viewBox="0 0 426 371" width="426pt" xmlns="http://www.w3.org/2000/svg" xmlns:xlink="http://www.w3.org/1999/xlink">
 <defs>
  <style type="text/css">
*{stroke-linecap:butt;stroke-linejoin:round;}
  </style>
 </defs>
 <g id="figure_1">
  <g id="patch_1">
   <path d="M 0 371.002375 
L 426.55125 371.002375 
L 426.55125 0 
L 0 0 
z
" style="fill:#ffffff;"/>
  </g>
  <g id="axes_1">
   <g id="patch_2">
    <path d="M 58.73125 288.430125 
L 415.85125 288.430125 
L 415.85125 22.318125 
L 58.73125 22.318125 
z
" style="fill:#ffffff;"/>
   </g>
   <g id="matplotlib.axis_1">
    <g id="xtick_1">
     <g id="line2d_1">
      <defs>
       <path d="M 0 0 
L 0 3.5 
" id="me0c76e9c26" style="stroke:#000000;stroke-width:0.8;"/>
      </defs>
      <g>
       <use style="stroke:#000000;stroke-width:0.8;" x="58.73125" xlink:href="#me0c76e9c26" y="288.430125"/>
      </g>
     </g>
     <g id="text_1">
      <!-- 0 -->
      <defs>
       <path d="M 31.78125 66.40625 
Q 24.171875 66.40625 20.328125 58.90625 
Q 16.5 51.421875 16.5 36.375 
Q 16.5 21.390625 20.328125 13.890625 
Q 24.171875 6.390625 31.78125 6.390625 
Q 39.453125 6.390625 43.28125 13.890625 
Q 47.125 21.390625 47.125 36.375 
Q 47.125 51.421875 43.28125 58.90625 
Q 39.453125 66.40625 31.78125 66.40625 
z
M 31.78125 74.21875 
Q 44.046875 74.21875 50.515625 64.515625 
Q 56.984375 54.828125 56.984375 36.375 
Q 56.984375 17.96875 50.515625 8.265625 
Q 44.046875 -1.421875 31.78125 -1.421875 
Q 19.53125 -1.421875 13.0625 8.265625 
Q 6.59375 17.96875 6.59375 36.375 
Q 6.59375 54.828125 13.0625 64.515625 
Q 19.53125 74.21875 31.78125 74.21875 
z
" id="DejaVuSans-30"/>
      </defs>
      <g transform="translate(55.55 303.028562)scale(0.1 -0.1)">
       <use xlink:href="#DejaVuSans-30"/>
      </g>
     </g>
    </g>
    <g id="xtick_2">
     <g id="line2d_2">
      <g>
       <use style="stroke:#000000;stroke-width:0.8;" x="102.279814" xlink:href="#me0c76e9c26" y="288.430125"/>
      </g>
     </g>
     <g id="text_2">
      <!-- 500  -->
      <defs>
       <path d="M 10.796875 72.90625 
L 49.515625 72.90625 
L 49.515625 64.59375 
L 19.828125 64.59375 
L 19.828125 46.734375 
Q 21.96875 47.46875 24.109375 47.828125 
Q 26.265625 48.1875 28.421875 48.1875 
Q 40.625 48.1875 47.75 41.5 
Q 54.890625 34.8125 54.890625 23.390625 
Q 54.890625 11.625 47.5625 5.09375 
Q 40.234375 -1.421875 26.90625 -1.421875 
Q 22.3125 -1.421875 17.546875 -0.640625 
Q 12.796875 0.140625 7.71875 1.703125 
L 7.71875 11.625 
Q 12.109375 9.234375 16.796875 8.0625 
Q 21.484375 6.890625 26.703125 6.890625 
Q 35.15625 6.890625 40.078125 11.328125 
Q 45.015625 15.765625 45.015625 23.390625 
Q 45.015625 31 40.078125 35.4375 
Q 35.15625 39.890625 26.703125 39.890625 
Q 22.75 39.890625 18.8125 39.015625 
Q 14.890625 38.140625 10.796875 36.28125 
z
" id="DejaVuSans-35"/>
       <path id="DejaVuSans-20"/>
      </defs>
      <g transform="translate(91.147002 303.028562)scale(0.1 -0.1)">
       <use xlink:href="#DejaVuSans-35"/>
       <use x="63.623047" xlink:href="#DejaVuSans-30"/>
       <use x="127.246094" xlink:href="#DejaVuSans-30"/>
       <use x="190.869141" xlink:href="#DejaVuSans-20"/>
      </g>
     </g>
    </g>
    <g id="xtick_3">
     <g id="line2d_3">
      <g>
       <use style="stroke:#000000;stroke-width:0.8;" x="145.828378" xlink:href="#me0c76e9c26" y="288.430125"/>
      </g>
     </g>
     <g id="text_3">
      <!-- 1 k -->
      <defs>
       <path d="M 12.40625 8.296875 
L 28.515625 8.296875 
L 28.515625 63.921875 
L 10.984375 60.40625 
L 10.984375 69.390625 
L 28.421875 72.90625 
L 38.28125 72.90625 
L 38.28125 8.296875 
L 54.390625 8.296875 
L 54.390625 0 
L 12.40625 0 
z
" id="DejaVuSans-31"/>
       <path d="M 9.078125 75.984375 
L 18.109375 75.984375 
L 18.109375 31.109375 
L 44.921875 54.6875 
L 56.390625 54.6875 
L 27.390625 29.109375 
L 57.625 0 
L 45.90625 0 
L 18.109375 26.703125 
L 18.109375 0 
L 9.078125 0 
z
" id="DejaVuSans-6b"/>
      </defs>
      <g transform="translate(138.162753 303.028562)scale(0.1 -0.1)">
       <use xlink:href="#DejaVuSans-31"/>
       <use x="63.623047" xlink:href="#DejaVuSans-20"/>
       <use x="95.410156" xlink:href="#DejaVuSans-6b"/>
      </g>
     </g>
    </g>
    <g id="xtick_4">
     <g id="line2d_4">
      <g>
       <use style="stroke:#000000;stroke-width:0.8;" x="189.376942" xlink:href="#me0c76e9c26" y="288.430125"/>
      </g>
     </g>
     <g id="text_4">
      <!-- 1.5 k -->
      <defs>
       <path d="M 10.6875 12.40625 
L 21 12.40625 
L 21 0 
L 10.6875 0 
z
" id="DejaVuSans-2e"/>
      </defs>
      <g transform="translate(176.941005 303.028562)scale(0.1 -0.1)">
       <use xlink:href="#DejaVuSans-31"/>
       <use x="63.623047" xlink:href="#DejaVuSans-2e"/>
       <use x="95.410156" xlink:href="#DejaVuSans-35"/>
       <use x="159.033203" xlink:href="#DejaVuSans-20"/>
       <use x="190.820312" xlink:href="#DejaVuSans-6b"/>
      </g>
     </g>
    </g>
    <g id="xtick_5">
     <g id="line2d_5">
      <g>
       <use style="stroke:#000000;stroke-width:0.8;" x="232.925506" xlink:href="#me0c76e9c26" y="288.430125"/>
      </g>
     </g>
     <g id="text_5">
      <!-- 2 k -->
      <defs>
       <path d="M 19.1875 8.296875 
L 53.609375 8.296875 
L 53.609375 0 
L 7.328125 0 
L 7.328125 8.296875 
Q 12.9375 14.109375 22.625 23.890625 
Q 32.328125 33.6875 34.8125 36.53125 
Q 39.546875 41.84375 41.421875 45.53125 
Q 43.3125 49.21875 43.3125 52.78125 
Q 43.3125 58.59375 39.234375 62.25 
Q 35.15625 65.921875 28.609375 65.921875 
Q 23.96875 65.921875 18.8125 64.3125 
Q 13.671875 62.703125 7.8125 59.421875 
L 7.8125 69.390625 
Q 13.765625 71.78125 18.9375 73 
Q 24.125 74.21875 28.421875 74.21875 
Q 39.75 74.21875 46.484375 68.546875 
Q 53.21875 62.890625 53.21875 53.421875 
Q 53.21875 48.921875 51.53125 44.890625 
Q 49.859375 40.875 45.40625 35.40625 
Q 44.1875 33.984375 37.640625 27.21875 
Q 31.109375 20.453125 19.1875 8.296875 
z
" id="DejaVuSans-32"/>
      </defs>
      <g transform="translate(225.259881 303.028562)scale(0.1 -0.1)">
       <use xlink:href="#DejaVuSans-32"/>
       <use x="63.623047" xlink:href="#DejaVuSans-20"/>
       <use x="95.410156" xlink:href="#DejaVuSans-6b"/>
      </g>
     </g>
    </g>
    <g id="xtick_6">
     <g id="line2d_6">
      <g>
       <use style="stroke:#000000;stroke-width:0.8;" x="276.474071" xlink:href="#me0c76e9c26" y="288.430125"/>
      </g>
     </g>
     <g id="text_6">
      <!-- 2.5 k -->
      <g transform="translate(264.038133 303.028562)scale(0.1 -0.1)">
       <use xlink:href="#DejaVuSans-32"/>
       <use x="63.623047" xlink:href="#DejaVuSans-2e"/>
       <use x="95.410156" xlink:href="#DejaVuSans-35"/>
       <use x="159.033203" xlink:href="#DejaVuSans-20"/>
       <use x="190.820312" xlink:href="#DejaVuSans-6b"/>
      </g>
     </g>
    </g>
    <g id="xtick_7">
     <g id="line2d_7">
      <g>
       <use style="stroke:#000000;stroke-width:0.8;" x="320.022635" xlink:href="#me0c76e9c26" y="288.430125"/>
      </g>
     </g>
     <g id="text_7">
      <!-- 3 k -->
      <defs>
       <path d="M 40.578125 39.3125 
Q 47.65625 37.796875 51.625 33 
Q 55.609375 28.21875 55.609375 21.1875 
Q 55.609375 10.40625 48.1875 4.484375 
Q 40.765625 -1.421875 27.09375 -1.421875 
Q 22.515625 -1.421875 17.65625 -0.515625 
Q 12.796875 0.390625 7.625 2.203125 
L 7.625 11.71875 
Q 11.71875 9.328125 16.59375 8.109375 
Q 21.484375 6.890625 26.8125 6.890625 
Q 36.078125 6.890625 40.9375 10.546875 
Q 45.796875 14.203125 45.796875 21.1875 
Q 45.796875 27.640625 41.28125 31.265625 
Q 36.765625 34.90625 28.71875 34.90625 
L 20.21875 34.90625 
L 20.21875 43.015625 
L 29.109375 43.015625 
Q 36.375 43.015625 40.234375 45.921875 
Q 44.09375 48.828125 44.09375 54.296875 
Q 44.09375 59.90625 40.109375 62.90625 
Q 36.140625 65.921875 28.71875 65.921875 
Q 24.65625 65.921875 20.015625 65.03125 
Q 15.375 64.15625 9.8125 62.3125 
L 9.8125 71.09375 
Q 15.4375 72.65625 20.34375 73.4375 
Q 25.25 74.21875 29.59375 74.21875 
Q 40.828125 74.21875 47.359375 69.109375 
Q 53.90625 64.015625 53.90625 55.328125 
Q 53.90625 49.265625 50.4375 45.09375 
Q 46.96875 40.921875 40.578125 39.3125 
z
" id="DejaVuSans-33"/>
      </defs>
      <g transform="translate(312.35701 303.028562)scale(0.1 -0.1)">
       <use xlink:href="#DejaVuSans-33"/>
       <use x="63.623047" xlink:href="#DejaVuSans-20"/>
       <use x="95.410156" xlink:href="#DejaVuSans-6b"/>
      </g>
     </g>
    </g>
    <g id="xtick_8">
     <g id="line2d_8">
      <g>
       <use style="stroke:#000000;stroke-width:0.8;" x="363.571199" xlink:href="#me0c76e9c26" y="288.430125"/>
      </g>
     </g>
     <g id="text_8">
      <!-- 3.5 k -->
      <g transform="translate(351.135261 303.028562)scale(0.1 -0.1)">
       <use xlink:href="#DejaVuSans-33"/>
       <use x="63.623047" xlink:href="#DejaVuSans-2e"/>
       <use x="95.410156" xlink:href="#DejaVuSans-35"/>
       <use x="159.033203" xlink:href="#DejaVuSans-20"/>
       <use x="190.820312" xlink:href="#DejaVuSans-6b"/>
      </g>
     </g>
    </g>
    <g id="xtick_9">
     <g id="line2d_9">
      <g>
       <use style="stroke:#000000;stroke-width:0.8;" x="407.119763" xlink:href="#me0c76e9c26" y="288.430125"/>
      </g>
     </g>
     <g id="text_9">
      <!-- 4 k -->
      <defs>
       <path d="M 37.796875 64.3125 
L 12.890625 25.390625 
L 37.796875 25.390625 
z
M 35.203125 72.90625 
L 47.609375 72.90625 
L 47.609375 25.390625 
L 58.015625 25.390625 
L 58.015625 17.1875 
L 47.609375 17.1875 
L 47.609375 0 
L 37.796875 0 
L 37.796875 17.1875 
L 4.890625 17.1875 
L 4.890625 26.703125 
z
" id="DejaVuSans-34"/>
      </defs>
      <g transform="translate(399.454138 303.028562)scale(0.1 -0.1)">
       <use xlink:href="#DejaVuSans-34"/>
       <use x="63.623047" xlink:href="#DejaVuSans-20"/>
       <use x="95.410156" xlink:href="#DejaVuSans-6b"/>
      </g>
     </g>
    </g>
    <g id="text_10">
     <!-- Amount of objects in table -->
     <defs>
      <path d="M 34.1875 63.1875 
L 20.796875 26.90625 
L 47.609375 26.90625 
z
M 28.609375 72.90625 
L 39.796875 72.90625 
L 67.578125 0 
L 57.328125 0 
L 50.6875 18.703125 
L 17.828125 18.703125 
L 11.1875 0 
L 0.78125 0 
z
" id="DejaVuSans-41"/>
      <path d="M 52 44.1875 
Q 55.375 50.25 60.0625 53.125 
Q 64.75 56 71.09375 56 
Q 79.640625 56 84.28125 50.015625 
Q 88.921875 44.046875 88.921875 33.015625 
L 88.921875 0 
L 79.890625 0 
L 79.890625 32.71875 
Q 79.890625 40.578125 77.09375 44.375 
Q 74.3125 48.1875 68.609375 48.1875 
Q 61.625 48.1875 57.5625 43.546875 
Q 53.515625 38.921875 53.515625 30.90625 
L 53.515625 0 
L 44.484375 0 
L 44.484375 32.71875 
Q 44.484375 40.625 41.703125 44.40625 
Q 38.921875 48.1875 33.109375 48.1875 
Q 26.21875 48.1875 22.15625 43.53125 
Q 18.109375 38.875 18.109375 30.90625 
L 18.109375 0 
L 9.078125 0 
L 9.078125 54.6875 
L 18.109375 54.6875 
L 18.109375 46.1875 
Q 21.1875 51.21875 25.484375 53.609375 
Q 29.78125 56 35.6875 56 
Q 41.65625 56 45.828125 52.96875 
Q 50 49.953125 52 44.1875 
z
" id="DejaVuSans-6d"/>
      <path d="M 30.609375 48.390625 
Q 23.390625 48.390625 19.1875 42.75 
Q 14.984375 37.109375 14.984375 27.296875 
Q 14.984375 17.484375 19.15625 11.84375 
Q 23.34375 6.203125 30.609375 6.203125 
Q 37.796875 6.203125 41.984375 11.859375 
Q 46.1875 17.53125 46.1875 27.296875 
Q 46.1875 37.015625 41.984375 42.703125 
Q 37.796875 48.390625 30.609375 48.390625 
z
M 30.609375 56 
Q 42.328125 56 49.015625 48.375 
Q 55.71875 40.765625 55.71875 27.296875 
Q 55.71875 13.875 49.015625 6.21875 
Q 42.328125 -1.421875 30.609375 -1.421875 
Q 18.84375 -1.421875 12.171875 6.21875 
Q 5.515625 13.875 5.515625 27.296875 
Q 5.515625 40.765625 12.171875 48.375 
Q 18.84375 56 30.609375 56 
z
" id="DejaVuSans-6f"/>
      <path d="M 8.5 21.578125 
L 8.5 54.6875 
L 17.484375 54.6875 
L 17.484375 21.921875 
Q 17.484375 14.15625 20.5 10.265625 
Q 23.53125 6.390625 29.59375 6.390625 
Q 36.859375 6.390625 41.078125 11.03125 
Q 45.3125 15.671875 45.3125 23.6875 
L 45.3125 54.6875 
L 54.296875 54.6875 
L 54.296875 0 
L 45.3125 0 
L 45.3125 8.40625 
Q 42.046875 3.421875 37.71875 1 
Q 33.40625 -1.421875 27.6875 -1.421875 
Q 18.265625 -1.421875 13.375 4.4375 
Q 8.5 10.296875 8.5 21.578125 
z
M 31.109375 56 
z
" id="DejaVuSans-75"/>
      <path d="M 54.890625 33.015625 
L 54.890625 0 
L 45.90625 0 
L 45.90625 32.71875 
Q 45.90625 40.484375 42.875 44.328125 
Q 39.84375 48.1875 33.796875 48.1875 
Q 26.515625 48.1875 22.3125 43.546875 
Q 18.109375 38.921875 18.109375 30.90625 
L 18.109375 0 
L 9.078125 0 
L 9.078125 54.6875 
L 18.109375 54.6875 
L 18.109375 46.1875 
Q 21.34375 51.125 25.703125 53.5625 
Q 30.078125 56 35.796875 56 
Q 45.21875 56 50.046875 50.171875 
Q 54.890625 44.34375 54.890625 33.015625 
z
" id="DejaVuSans-6e"/>
      <path d="M 18.3125 70.21875 
L 18.3125 54.6875 
L 36.8125 54.6875 
L 36.8125 47.703125 
L 18.3125 47.703125 
L 18.3125 18.015625 
Q 18.3125 11.328125 20.140625 9.421875 
Q 21.96875 7.515625 27.59375 7.515625 
L 36.8125 7.515625 
L 36.8125 0 
L 27.59375 0 
Q 17.1875 0 13.234375 3.875 
Q 9.28125 7.765625 9.28125 18.015625 
L 9.28125 47.703125 
L 2.6875 47.703125 
L 2.6875 54.6875 
L 9.28125 54.6875 
L 9.28125 70.21875 
z
" id="DejaVuSans-74"/>
      <path d="M 37.109375 75.984375 
L 37.109375 68.5 
L 28.515625 68.5 
Q 23.6875 68.5 21.796875 66.546875 
Q 19.921875 64.59375 19.921875 59.515625 
L 19.921875 54.6875 
L 34.71875 54.6875 
L 34.71875 47.703125 
L 19.921875 47.703125 
L 19.921875 0 
L 10.890625 0 
L 10.890625 47.703125 
L 2.296875 47.703125 
L 2.296875 54.6875 
L 10.890625 54.6875 
L 10.890625 58.5 
Q 10.890625 67.625 15.140625 71.796875 
Q 19.390625 75.984375 28.609375 75.984375 
z
" id="DejaVuSans-66"/>
      <path d="M 48.6875 27.296875 
Q 48.6875 37.203125 44.609375 42.84375 
Q 40.53125 48.484375 33.40625 48.484375 
Q 26.265625 48.484375 22.1875 42.84375 
Q 18.109375 37.203125 18.109375 27.296875 
Q 18.109375 17.390625 22.1875 11.75 
Q 26.265625 6.109375 33.40625 6.109375 
Q 40.53125 6.109375 44.609375 11.75 
Q 48.6875 17.390625 48.6875 27.296875 
z
M 18.109375 46.390625 
Q 20.953125 51.265625 25.265625 53.625 
Q 29.59375 56 35.59375 56 
Q 45.5625 56 51.78125 48.09375 
Q 58.015625 40.1875 58.015625 27.296875 
Q 58.015625 14.40625 51.78125 6.484375 
Q 45.5625 -1.421875 35.59375 -1.421875 
Q 29.59375 -1.421875 25.265625 0.953125 
Q 20.953125 3.328125 18.109375 8.203125 
L 18.109375 0 
L 9.078125 0 
L 9.078125 75.984375 
L 18.109375 75.984375 
z
" id="DejaVuSans-62"/>
      <path d="M 9.421875 54.6875 
L 18.40625 54.6875 
L 18.40625 -0.984375 
Q 18.40625 -11.421875 14.421875 -16.109375 
Q 10.453125 -20.796875 1.609375 -20.796875 
L -1.8125 -20.796875 
L -1.8125 -13.1875 
L 0.59375 -13.1875 
Q 5.71875 -13.1875 7.5625 -10.8125 
Q 9.421875 -8.453125 9.421875 -0.984375 
z
M 9.421875 75.984375 
L 18.40625 75.984375 
L 18.40625 64.59375 
L 9.421875 64.59375 
z
" id="DejaVuSans-6a"/>
      <path d="M 56.203125 29.59375 
L 56.203125 25.203125 
L 14.890625 25.203125 
Q 15.484375 15.921875 20.484375 11.0625 
Q 25.484375 6.203125 34.421875 6.203125 
Q 39.59375 6.203125 44.453125 7.46875 
Q 49.3125 8.734375 54.109375 11.28125 
L 54.109375 2.78125 
Q 49.265625 0.734375 44.1875 -0.34375 
Q 39.109375 -1.421875 33.890625 -1.421875 
Q 20.796875 -1.421875 13.15625 6.1875 
Q 5.515625 13.8125 5.515625 26.8125 
Q 5.515625 40.234375 12.765625 48.109375 
Q 20.015625 56 32.328125 56 
Q 43.359375 56 49.78125 48.890625 
Q 56.203125 41.796875 56.203125 29.59375 
z
M 47.21875 32.234375 
Q 47.125 39.59375 43.09375 43.984375 
Q 39.0625 48.390625 32.421875 48.390625 
Q 24.90625 48.390625 20.390625 44.140625 
Q 15.875 39.890625 15.1875 32.171875 
z
" id="DejaVuSans-65"/>
      <path d="M 48.78125 52.59375 
L 48.78125 44.1875 
Q 44.96875 46.296875 41.140625 47.34375 
Q 37.3125 48.390625 33.40625 48.390625 
Q 24.65625 48.390625 19.8125 42.84375 
Q 14.984375 37.3125 14.984375 27.296875 
Q 14.984375 17.28125 19.8125 11.734375 
Q 24.65625 6.203125 33.40625 6.203125 
Q 37.3125 6.203125 41.140625 7.25 
Q 44.96875 8.296875 48.78125 10.40625 
L 48.78125 2.09375 
Q 45.015625 0.34375 40.984375 -0.53125 
Q 36.96875 -1.421875 32.421875 -1.421875 
Q 20.0625 -1.421875 12.78125 6.34375 
Q 5.515625 14.109375 5.515625 27.296875 
Q 5.515625 40.671875 12.859375 48.328125 
Q 20.21875 56 33.015625 56 
Q 37.15625 56 41.109375 55.140625 
Q 45.0625 54.296875 48.78125 52.59375 
z
" id="DejaVuSans-63"/>
      <path d="M 44.28125 53.078125 
L 44.28125 44.578125 
Q 40.484375 46.53125 36.375 47.5 
Q 32.28125 48.484375 27.875 48.484375 
Q 21.1875 48.484375 17.84375 46.4375 
Q 14.5 44.390625 14.5 40.28125 
Q 14.5 37.15625 16.890625 35.375 
Q 19.28125 33.59375 26.515625 31.984375 
L 29.59375 31.296875 
Q 39.15625 29.25 43.1875 25.515625 
Q 47.21875 21.78125 47.21875 15.09375 
Q 47.21875 7.46875 41.1875 3.015625 
Q 35.15625 -1.421875 24.609375 -1.421875 
Q 20.21875 -1.421875 15.453125 -0.5625 
Q 10.6875 0.296875 5.421875 2 
L 5.421875 11.28125 
Q 10.40625 8.6875 15.234375 7.390625 
Q 20.0625 6.109375 24.8125 6.109375 
Q 31.15625 6.109375 34.5625 8.28125 
Q 37.984375 10.453125 37.984375 14.40625 
Q 37.984375 18.0625 35.515625 20.015625 
Q 33.0625 21.96875 24.703125 23.78125 
L 21.578125 24.515625 
Q 13.234375 26.265625 9.515625 29.90625 
Q 5.8125 33.546875 5.8125 39.890625 
Q 5.8125 47.609375 11.28125 51.796875 
Q 16.75 56 26.8125 56 
Q 31.78125 56 36.171875 55.265625 
Q 40.578125 54.546875 44.28125 53.078125 
z
" id="DejaVuSans-73"/>
      <path d="M 9.421875 54.6875 
L 18.40625 54.6875 
L 18.40625 0 
L 9.421875 0 
z
M 9.421875 75.984375 
L 18.40625 75.984375 
L 18.40625 64.59375 
L 9.421875 64.59375 
z
" id="DejaVuSans-69"/>
      <path d="M 34.28125 27.484375 
Q 23.390625 27.484375 19.1875 25 
Q 14.984375 22.515625 14.984375 16.5 
Q 14.984375 11.71875 18.140625 8.90625 
Q 21.296875 6.109375 26.703125 6.109375 
Q 34.1875 6.109375 38.703125 11.40625 
Q 43.21875 16.703125 43.21875 25.484375 
L 43.21875 27.484375 
z
M 52.203125 31.203125 
L 52.203125 0 
L 43.21875 0 
L 43.21875 8.296875 
Q 40.140625 3.328125 35.546875 0.953125 
Q 30.953125 -1.421875 24.3125 -1.421875 
Q 15.921875 -1.421875 10.953125 3.296875 
Q 6 8.015625 6 15.921875 
Q 6 25.140625 12.171875 29.828125 
Q 18.359375 34.515625 30.609375 34.515625 
L 43.21875 34.515625 
L 43.21875 35.40625 
Q 43.21875 41.609375 39.140625 45 
Q 35.0625 48.390625 27.6875 48.390625 
Q 23 48.390625 18.546875 47.265625 
Q 14.109375 46.140625 10.015625 43.890625 
L 10.015625 52.203125 
Q 14.9375 54.109375 19.578125 55.046875 
Q 24.21875 56 28.609375 56 
Q 40.484375 56 46.34375 49.84375 
Q 52.203125 43.703125 52.203125 31.203125 
z
" id="DejaVuSans-61"/>
      <path d="M 9.421875 75.984375 
L 18.40625 75.984375 
L 18.40625 0 
L 9.421875 0 
z
" id="DejaVuSans-6c"/>
     </defs>
     <g transform="translate(171.232656 316.706687)scale(0.1 -0.1)">
      <use xlink:href="#DejaVuSans-41"/>
      <use x="68.408203" xlink:href="#DejaVuSans-6d"/>
      <use x="165.820312" xlink:href="#DejaVuSans-6f"/>
      <use x="227.001953" xlink:href="#DejaVuSans-75"/>
      <use x="290.380859" xlink:href="#DejaVuSans-6e"/>
      <use x="353.759766" xlink:href="#DejaVuSans-74"/>
      <use x="392.96875" xlink:href="#DejaVuSans-20"/>
      <use x="424.755859" xlink:href="#DejaVuSans-6f"/>
      <use x="485.9375" xlink:href="#DejaVuSans-66"/>
      <use x="521.142578" xlink:href="#DejaVuSans-20"/>
      <use x="552.929688" xlink:href="#DejaVuSans-6f"/>
      <use x="614.111328" xlink:href="#DejaVuSans-62"/>
      <use x="677.587891" xlink:href="#DejaVuSans-6a"/>
      <use x="705.371094" xlink:href="#DejaVuSans-65"/>
      <use x="766.894531" xlink:href="#DejaVuSans-63"/>
      <use x="821.875" xlink:href="#DejaVuSans-74"/>
      <use x="861.083984" xlink:href="#DejaVuSans-73"/>
      <use x="913.183594" xlink:href="#DejaVuSans-20"/>
      <use x="944.970703" xlink:href="#DejaVuSans-69"/>
      <use x="972.753906" xlink:href="#DejaVuSans-6e"/>
      <use x="1036.132812" xlink:href="#DejaVuSans-20"/>
      <use x="1067.919922" xlink:href="#DejaVuSans-74"/>
      <use x="1107.128906" xlink:href="#DejaVuSans-61"/>
      <use x="1168.408203" xlink:href="#DejaVuSans-62"/>
      <use x="1231.884766" xlink:href="#DejaVuSans-6c"/>
      <use x="1259.667969" xlink:href="#DejaVuSans-65"/>
     </g>
    </g>
   </g>
   <g id="matplotlib.axis_2">
    <g id="ytick_1">
     <g id="line2d_10">
      <defs>
       <path d="M 0 0 
L -3.5 0 
" id="m201e08fb1a" style="stroke:#000000;stroke-width:0.8;"/>
      </defs>
      <g>
       <use style="stroke:#000000;stroke-width:0.8;" x="58.73125" xlink:href="#m201e08fb1a" y="288.430125"/>
      </g>
     </g>
     <g id="text_11">
      <!-- 0 -->
      <g transform="translate(45.36875 292.229344)scale(0.1 -0.1)">
       <use xlink:href="#DejaVuSans-30"/>
      </g>
     </g>
    </g>
    <g id="ytick_2">
     <g id="line2d_11">
      <g>
       <use style="stroke:#000000;stroke-width:0.8;" x="58.73125" xlink:href="#m201e08fb1a" y="240.425968"/>
      </g>
     </g>
     <g id="text_12">
      <!-- 10 ms -->
      <g transform="translate(20.878125 244.225186)scale(0.1 -0.1)">
       <use xlink:href="#DejaVuSans-31"/>
       <use x="63.623047" xlink:href="#DejaVuSans-30"/>
       <use x="127.246094" xlink:href="#DejaVuSans-20"/>
       <use x="159.033203" xlink:href="#DejaVuSans-6d"/>
       <use x="256.445312" xlink:href="#DejaVuSans-73"/>
      </g>
     </g>
    </g>
    <g id="ytick_3">
     <g id="line2d_12">
      <g>
       <use style="stroke:#000000;stroke-width:0.8;" x="58.73125" xlink:href="#m201e08fb1a" y="192.42181"/>
      </g>
     </g>
     <g id="text_13">
      <!-- 20 ms -->
      <g transform="translate(20.878125 196.221029)scale(0.1 -0.1)">
       <use xlink:href="#DejaVuSans-32"/>
       <use x="63.623047" xlink:href="#DejaVuSans-30"/>
       <use x="127.246094" xlink:href="#DejaVuSans-20"/>
       <use x="159.033203" xlink:href="#DejaVuSans-6d"/>
       <use x="256.445312" xlink:href="#DejaVuSans-73"/>
      </g>
     </g>
    </g>
    <g id="ytick_4">
     <g id="line2d_13">
      <g>
       <use style="stroke:#000000;stroke-width:0.8;" x="58.73125" xlink:href="#m201e08fb1a" y="144.417653"/>
      </g>
     </g>
     <g id="text_14">
      <!-- 30 ms -->
      <g transform="translate(20.878125 148.216871)scale(0.1 -0.1)">
       <use xlink:href="#DejaVuSans-33"/>
       <use x="63.623047" xlink:href="#DejaVuSans-30"/>
       <use x="127.246094" xlink:href="#DejaVuSans-20"/>
       <use x="159.033203" xlink:href="#DejaVuSans-6d"/>
       <use x="256.445312" xlink:href="#DejaVuSans-73"/>
      </g>
     </g>
    </g>
    <g id="ytick_5">
     <g id="line2d_14">
      <g>
       <use style="stroke:#000000;stroke-width:0.8;" x="58.73125" xlink:href="#m201e08fb1a" y="96.413495"/>
      </g>
     </g>
     <g id="text_15">
      <!-- 40 ms -->
      <g transform="translate(20.878125 100.212714)scale(0.1 -0.1)">
       <use xlink:href="#DejaVuSans-34"/>
       <use x="63.623047" xlink:href="#DejaVuSans-30"/>
       <use x="127.246094" xlink:href="#DejaVuSans-20"/>
       <use x="159.033203" xlink:href="#DejaVuSans-6d"/>
       <use x="256.445312" xlink:href="#DejaVuSans-73"/>
      </g>
     </g>
    </g>
    <g id="ytick_6">
     <g id="line2d_15">
      <g>
       <use style="stroke:#000000;stroke-width:0.8;" x="58.73125" xlink:href="#m201e08fb1a" y="48.409338"/>
      </g>
     </g>
     <g id="text_16">
      <!-- 50 ms -->
      <g transform="translate(20.878125 52.208556)scale(0.1 -0.1)">
       <use xlink:href="#DejaVuSans-35"/>
       <use x="63.623047" xlink:href="#DejaVuSans-30"/>
       <use x="127.246094" xlink:href="#DejaVuSans-20"/>
       <use x="159.033203" xlink:href="#DejaVuSans-6d"/>
       <use x="256.445312" xlink:href="#DejaVuSans-73"/>
      </g>
     </g>
    </g>
    <g id="text_17">
     <!-- Write latency (s) -->
     <defs>
      <path d="M 3.328125 72.90625 
L 13.28125 72.90625 
L 28.609375 11.28125 
L 43.890625 72.90625 
L 54.984375 72.90625 
L 70.3125 11.28125 
L 85.59375 72.90625 
L 95.609375 72.90625 
L 77.296875 0 
L 64.890625 0 
L 49.515625 63.28125 
L 33.984375 0 
L 21.578125 0 
z
" id="DejaVuSans-57"/>
      <path d="M 41.109375 46.296875 
Q 39.59375 47.171875 37.8125 47.578125 
Q 36.03125 48 33.890625 48 
Q 26.265625 48 22.1875 43.046875 
Q 18.109375 38.09375 18.109375 28.8125 
L 18.109375 0 
L 9.078125 0 
L 9.078125 54.6875 
L 18.109375 54.6875 
L 18.109375 46.1875 
Q 20.953125 51.171875 25.484375 53.578125 
Q 30.03125 56 36.53125 56 
Q 37.453125 56 38.578125 55.875 
Q 39.703125 55.765625 41.0625 55.515625 
z
" id="DejaVuSans-72"/>
      <path d="M 32.171875 -5.078125 
Q 28.375 -14.84375 24.75 -17.8125 
Q 21.140625 -20.796875 15.09375 -20.796875 
L 7.90625 -20.796875 
L 7.90625 -13.28125 
L 13.1875 -13.28125 
Q 16.890625 -13.28125 18.9375 -11.515625 
Q 21 -9.765625 23.484375 -3.21875 
L 25.09375 0.875 
L 2.984375 54.6875 
L 12.5 54.6875 
L 29.59375 11.921875 
L 46.6875 54.6875 
L 56.203125 54.6875 
z
" id="DejaVuSans-79"/>
      <path d="M 31 75.875 
Q 24.46875 64.65625 21.28125 53.65625 
Q 18.109375 42.671875 18.109375 31.390625 
Q 18.109375 20.125 21.3125 9.0625 
Q 24.515625 -2 31 -13.1875 
L 23.1875 -13.1875 
Q 15.875 -1.703125 12.234375 9.375 
Q 8.59375 20.453125 8.59375 31.390625 
Q 8.59375 42.28125 12.203125 53.3125 
Q 15.828125 64.359375 23.1875 75.875 
z
" id="DejaVuSans-28"/>
      <path d="M 8.015625 75.875 
L 15.828125 75.875 
Q 23.140625 64.359375 26.78125 53.3125 
Q 30.421875 42.28125 30.421875 31.390625 
Q 30.421875 20.453125 26.78125 9.375 
Q 23.140625 -1.703125 15.828125 -13.1875 
L 8.015625 -13.1875 
Q 14.5 -2 17.703125 9.0625 
Q 20.90625 20.125 20.90625 31.390625 
Q 20.90625 42.671875 17.703125 53.65625 
Q 14.5 64.65625 8.015625 75.875 
z
" id="DejaVuSans-29"/>
     </defs>
     <g transform="translate(14.798437 196.847562)rotate(-90)scale(0.1 -0.1)">
      <use xlink:href="#DejaVuSans-57"/>
      <use x="98.814453" xlink:href="#DejaVuSans-72"/>
      <use x="139.927734" xlink:href="#DejaVuSans-69"/>
      <use x="167.710938" xlink:href="#DejaVuSans-74"/>
      <use x="206.919922" xlink:href="#DejaVuSans-65"/>
      <use x="268.443359" xlink:href="#DejaVuSans-20"/>
      <use x="300.230469" xlink:href="#DejaVuSans-6c"/>
      <use x="328.013672" xlink:href="#DejaVuSans-61"/>
      <use x="389.292969" xlink:href="#DejaVuSans-74"/>
      <use x="428.501953" xlink:href="#DejaVuSans-65"/>
      <use x="490.025391" xlink:href="#DejaVuSans-6e"/>
      <use x="553.404297" xlink:href="#DejaVuSans-63"/>
      <use x="608.384766" xlink:href="#DejaVuSans-79"/>
      <use x="667.564453" xlink:href="#DejaVuSans-20"/>
      <use x="699.351562" xlink:href="#DejaVuSans-28"/>
      <use x="738.365234" xlink:href="#DejaVuSans-73"/>
      <use x="790.464844" xlink:href="#DejaVuSans-29"/>
     </g>
    </g>
   </g>
   <g id="line2d_16">
    <path clip-path="url(#p85c43ac943)" d="M 89.650731 281.92026 
L 90.521702 281.731253 
L 94.876558 280.175653 
L 96.618501 279.390439 
L 99.6669 277.923555 
L 100.102386 277.502785 
L 101.408843 276.903766 
L 102.279814 276.526993 
L 103.150785 275.974523 
L 104.021757 275.382894 
L 104.892728 274.848098 
L 107.505642 273.291272 
L 107.941127 272.631839 
L 109.68307 271.401673 
L 111.860498 269.707048 
L 112.731469 269.04428 
L 117.086326 265.508469 
L 117.957297 264.956391 
L 119.263754 263.979863 
L 119.69924 263.76656 
L 121.441182 262.516544 
L 121.876668 262.294493 
L 122.747639 261.594005 
L 126.66701 258.901696 
L 127.102496 258.40704 
L 127.973467 257.73693 
L 128.844438 256.931425 
L 129.71541 256.51623 
L 130.150895 256.193463 
L 130.586381 256.050023 
L 131.457352 255.343175 
L 133.199295 253.728633 
L 134.505752 252.897884 
L 134.941237 252.687638 
L 137.989637 250.252892 
L 138.425122 250.215892 
L 139.296094 249.430449 
L 140.167065 248.551859 
L 141.473522 247.791954 
L 141.909007 247.277645 
L 143.215464 246.219089 
L 143.65095 245.301422 
L 144.086436 245.034098 
L 144.521921 244.620326 
L 144.957407 244.38786 
L 145.828378 243.564043 
L 147.134835 242.303252 
L 148.441292 241.543331 
L 148.876778 241.384425 
L 150.61872 239.932469 
L 151.489692 239.417293 
L 154.538091 237.214049 
L 154.973577 236.720014 
L 156.280034 235.698197 
L 157.151005 234.688348 
L 157.586491 234.588776 
L 158.021976 234.2983 
L 158.457462 233.737572 
L 159.328433 233.275927 
L 164.118775 229.03227 
L 166.296203 227.400005 
L 166.731689 227.2117 
L 169.344603 224.849795 
L 171.957517 221.867174 
L 172.828488 220.974048 
L 173.263974 220.388845 
L 174.134945 219.859722 
L 174.570431 219.043296 
L 175.441402 218.231578 
L 175.876887 217.876567 
L 176.747859 216.645322 
L 177.183344 216.316881 
L 177.61883 216.127824 
L 178.054316 215.295014 
L 179.360773 213.674587 
L 179.796258 213.410974 
L 180.231744 212.78192 
L 182.844658 210.719957 
L 183.280143 210.217125 
L 183.715629 210.014776 
L 185.022086 208.703415 
L 185.457572 208.588768 
L 185.893057 208.157795 
L 186.328543 207.503856 
L 187.199514 207.117405 
L 187.635 206.99146 
L 188.070485 206.525726 
L 188.941457 206.03797 
L 189.376942 205.475428 
L 189.812428 205.141182 
L 190.683399 204.758884 
L 191.989856 204.081662 
L 192.425342 204.004931 
L 192.860827 203.468843 
L 193.296313 203.638459 
L 194.167284 203.168835 
L 194.60277 202.670107 
L 195.038256 202.409273 
L 195.473741 202.726008 
L 197.215684 203.015683 
L 197.65117 203.229706 
L 198.086655 203.308726 
L 198.522141 203.623025 
L 199.393112 203.976563 
L 201.135055 205.133367 
L 201.57054 205.284556 
L 203.747968 206.730757 
L 204.183454 206.79328 
L 205.054425 207.860452 
L 205.489911 208.081555 
L 206.360882 208.284231 
L 207.231854 209.339713 
L 208.102825 209.308598 
L 208.538311 209.882831 
L 209.409282 210.228472 
L 209.844767 210.544308 
L 210.280253 210.618521 
L 210.715739 210.997533 
L 211.58671 211.169553 
L 212.893167 211.558767 
L 213.328653 211.509014 
L 213.764138 211.725244 
L 214.199624 211.729054 
L 214.63511 211.579417 
L 215.070595 211.952086 
L 216.377052 212.367133 
L 216.812538 212.723615 
L 217.248023 212.742548 
L 217.683509 213.0369 
L 218.989966 213.286435 
L 219.860937 213.756812 
L 221.60288 213.515419 
L 222.038365 213.795136 
L 222.473851 213.917762 
L 222.909337 213.802396 
L 223.344822 214.021798 
L 223.780308 213.986711 
L 224.215794 213.756403 
L 225.522251 213.788515 
L 226.828707 211.929392 
L 229.877107 208.714435 
L 230.312593 208.173508 
L 232.054535 207.279745 
L 232.925506 206.58802 
L 233.796478 206.152551 
L 235.102935 205.624868 
L 235.973906 204.923039 
L 236.409392 204.692764 
L 237.280363 203.866036 
L 238.58682 203.587545 
L 239.457791 203.140745 
L 239.893277 202.40154 
L 240.328762 202.16358 
L 240.764248 201.741535 
L 241.635219 201.477039 
L 242.506191 201.002787 
L 242.941676 200.385145 
L 243.377162 199.441514 
L 243.812647 199.190377 
L 244.248133 198.809697 
L 244.683619 198.607724 
L 245.119104 198.592011 
L 245.990076 197.800731 
L 246.425561 197.481282 
L 247.732018 197.031948 
L 251.215903 194.083564 
L 252.086875 193.148452 
L 252.957846 192.445707 
L 253.393332 192.102764 
L 253.828817 191.934325 
L 254.264303 191.37878 
L 254.699789 191.343497 
L 255.135274 191.014843 
L 255.57076 190.392917 
L 256.877217 189.620391 
L 257.312702 189.798116 
L 257.748188 189.492582 
L 258.183674 189.453897 
L 259.054645 189.071991 
L 259.925616 188.067603 
L 260.361102 187.713166 
L 260.796587 187.6718 
L 261.232073 187.236543 
L 261.667559 187.038527 
L 262.103044 186.532965 
L 262.53853 186.286699 
L 262.974016 185.866158 
L 264.715958 185.375131 
L 265.58693 185.139395 
L 267.328872 185.434253 
L 267.764358 185.305889 
L 268.199843 185.000632 
L 268.635329 184.945679 
L 269.5063 184.382303 
L 269.941786 183.924974 
L 270.377272 184.395285 
L 270.812757 184.391704 
L 271.248243 184.513529 
L 271.683729 184.187475 
L 272.119214 184.037021 
L 272.5547 184.208223 
L 272.990185 184.133193 
L 273.425671 184.473341 
L 273.861157 185.10524 
L 275.167614 185.506652 
L 275.603099 185.469177 
L 276.474071 185.813494 
L 276.909556 185.972189 
L 277.345042 185.97402 
L 277.780527 186.110952 
L 278.216013 186.098886 
L 278.651499 185.51584 
L 280.393441 186.062114 
L 280.828927 186.222215 
L 281.699898 187.295273 
L 282.57087 188.036538 
L 283.441841 188.384256 
L 283.877326 188.72272 
L 284.312812 188.72187 
L 284.748298 189.324012 
L 285.183783 189.414412 
L 285.619269 189.84648 
L 286.054755 190.453707 
L 286.925726 190.817808 
L 289.103154 192.498371 
L 289.53864 192.677209 
L 290.845097 194.337416 
L 293.458011 196.31892 
L 295.199953 195.708815 
L 296.070924 196.029097 
L 296.50641 195.705283 
L 297.377381 195.718723 
L 297.812867 195.632901 
L 298.248353 195.688394 
L 299.119324 195.30876 
L 299.990295 195.384036 
L 300.425781 195.749331 
L 301.296752 195.50869 
L 301.732238 195.547063 
L 302.167723 195.771632 
L 303.47418 195.956503 
L 303.909666 195.709355 
L 304.345152 195.802272 
L 305.216123 195.37452 
L 305.651609 195.361931 
L 306.52258 195.58771 
L 306.958065 195.178679 
L 307.829037 195.164798 
L 308.264522 194.968433 
L 308.700008 194.942469 
L 309.135494 195.659127 
L 309.570979 195.524533 
L 310.441951 195.977251 
L 310.877436 195.853693 
L 311.312922 195.898967 
L 312.183893 195.786037 
L 313.49035 195.905507 
L 314.796807 196.044548 
L 315.232293 195.383186 
L 315.667778 195.30603 
L 316.53875 194.967141 
L 317.409721 194.913774 
L 317.845206 194.98269 
L 318.280692 194.339901 
L 319.151663 194.247801 
L 319.587149 193.698061 
L 320.022635 193.89593 
L 320.45812 193.893314 
L 321.329092 193.460706 
L 321.764577 193.206233 
L 322.200063 193.305037 
L 324.812977 193.04713 
L 325.683948 193.635326 
L 326.119434 193.39202 
L 326.554919 193.301783 
L 326.990405 193.69538 
L 327.861376 193.393393 
L 328.296862 193.572607 
L 329.167833 193.642405 
L 330.47429 193.910155 
L 330.909776 193.606615 
L 331.345261 193.15491 
L 332.651718 192.561417 
L 333.087204 192.152844 
L 333.52269 191.483568 
L 333.958175 191.067687 
L 334.393661 190.864814 
L 334.829146 190.536308 
L 335.700118 190.349148 
L 337.006575 189.349126 
L 337.44206 189.402918 
L 337.877546 189.111477 
L 338.313032 188.650224 
L 338.748517 188.47034 
L 339.184003 187.857161 
L 340.054974 187.208241 
L 340.49046 186.94901 
L 341.796917 185.549702 
L 342.667888 184.993389 
L 343.974345 183.9503 
L 344.845316 183.111621 
L 345.280802 183.010741 
L 345.716287 183.424546 
L 346.587259 182.999851 
L 347.022744 182.563156 
L 347.45823 182.493014 
L 347.893716 182.272631 
L 348.329201 181.915037 
L 349.635658 180.010641 
L 350.071144 180.400461 
L 351.377601 179.640442 
L 351.813086 179.651331 
L 352.248572 179.338161 
L 353.119543 178.485862 
L 353.555029 178.244256 
L 354.426 177.103672 
L 354.861486 177.27767 
L 355.296972 177.104358 
L 356.167943 176.329281 
L 356.603429 176.329739 
L 357.4744 175.591008 
L 359.216342 174.512832 
L 359.651828 173.993977 
L 360.958285 173.692056 
L 361.393771 173.728517 
L 361.829256 174.12038 
L 362.264742 174.22162 
L 362.700228 173.653012 
L 364.006684 174.183655 
L 364.877656 174.549636 
L 365.748627 174.709344 
L 366.184113 174.43942 
L 367.926055 175.071728 
L 368.361541 174.506292 
L 369.667998 175.43251 
L 370.103483 175.460632 
L 370.538969 175.676208 
L 370.974455 175.43403 
L 371.40994 175.691986 
L 371.845426 175.765153 
L 372.280912 176.189488 
L 373.151883 176.043595 
L 373.587369 175.420492 
L 374.022854 175.272933 
L 374.45834 175.370216 
L 374.893825 175.679969 
L 375.329311 175.822149 
L 375.764797 175.713732 
L 376.200282 175.320037 
L 376.635768 175.208579 
L 377.071254 175.345478 
L 377.506739 175.31129 
L 377.942225 175.023021 
L 378.377711 175.108434 
L 378.813196 174.998807 
L 379.248682 175.882449 
L 379.684168 176.018384 
L 380.119653 176.421349 
L 381.42611 176.466638 
L 381.861596 176.020182 
L 382.297081 175.200027 
L 382.732567 175.20557 
L 383.603538 174.524686 
L 384.039024 174.489304 
L 384.47451 174.699714 
L 387.522909 174.351881 
L 388.829366 174.232378 
L 389.700337 173.832602 
L 390.135823 174.321519 
L 390.571309 174.243595 
L 391.006794 173.828563 
L 391.44228 173.644428 
L 391.877765 173.753598 
L 392.313251 173.669656 
L 392.748737 173.41932 
L 393.184222 173.999814 
L 393.619708 173.750393 
L 394.490679 173.80134 
L 394.926165 173.660647 
L 395.361651 173.392015 
L 395.797136 173.399536 
L 396.232622 173.158535 
L 396.668108 173.392571 
L 397.103593 173.364367 
L 397.539079 173.181017 
L 397.974564 172.859148 
L 398.41005 172.805716 
L 398.845536 173.252777 
L 398.845536 173.252777 
" style="fill:none;opacity:0.8;stroke:#1f77b4;stroke-linecap:square;stroke-width:1.5;"/>
   </g>
   <g id="line2d_17">
    <path clip-path="url(#p85c43ac943)" d="M 89.650731 279.606587 
L 90.521702 279.567968 
L 93.570101 279.014223 
L 94.441073 278.67862 
L 97.924958 277.620996 
L 100.102386 276.721821 
L 105.328214 274.143162 
L 106.199185 273.748585 
L 108.376613 272.81429 
L 109.247584 272.581841 
L 114.037926 270.390581 
L 116.215355 269.479602 
L 120.570211 267.571756 
L 123.618611 266.46894 
L 125.360553 266.133975 
L 127.102496 265.763449 
L 128.844438 266.254933 
L 132.763809 267.746816 
L 134.505752 268.428682 
L 135.812208 268.791883 
L 137.554151 269.245893 
L 138.860608 269.584357 
L 146.69935 270.634051 
L 147.570321 270.710373 
L 148.876778 270.938081 
L 153.231634 271.474251 
L 154.538091 271.613946 
L 157.586491 271.977409 
L 164.118775 270.180875 
L 169.780088 269.078501 
L 171.086545 268.963281 
L 171.957517 268.863186 
L 176.747859 268.492087 
L 178.054316 268.407394 
L 181.538201 268.243566 
L 182.409172 268.132139 
L 183.280143 268.142244 
L 185.022086 268.060035 
L 186.764028 268.010789 
L 188.070485 267.832932 
L 196.344713 267.283928 
L 199.828598 266.802417 
L 200.699569 266.546341 
L 201.57054 266.106213 
L 202.441512 265.859555 
L 203.747968 265.402667 
L 204.61894 265.073523 
L 205.489911 264.535865 
L 206.360882 264.048321 
L 208.102825 263.132551 
L 209.409282 262.402567 
L 212.893167 260.135117 
L 215.506081 257.902344 
L 220.296423 253.24946 
L 221.60288 251.630096 
L 224.215794 248.717077 
L 225.086765 247.619608 
L 227.699679 244.444987 
L 228.135164 243.952832 
L 229.006136 242.759404 
L 229.877107 241.707634 
L 231.61905 239.525808 
L 232.490021 238.534321 
L 234.231963 236.308792 
L 235.102935 235.081814 
L 236.409392 233.638458 
L 238.58682 230.748771 
L 240.328762 228.786364 
L 241.635219 227.155963 
L 244.683619 223.508219 
L 245.55459 222.436141 
L 246.425561 221.472449 
L 247.732018 219.971623 
L 248.60299 218.802442 
L 249.473961 217.767447 
L 250.780418 216.091805 
L 252.086875 214.825177 
L 252.52236 214.065551 
L 252.957846 213.53293 
L 253.828817 211.923391 
L 255.57076 209.503312 
L 256.877217 206.716451 
L 257.312702 206.253726 
L 258.619159 203.959624 
L 259.054645 203.646356 
L 260.361102 201.658754 
L 262.103044 199.599228 
L 266.022415 193.638923 
L 273.425671 179.10782 
L 273.861157 177.949709 
L 274.732128 176.363813 
L 275.603099 174.549996 
L 276.474071 172.953456 
L 277.780527 169.897864 
L 279.086984 167.307171 
L 279.52247 166.13356 
L 280.393441 164.700079 
L 281.264413 162.659454 
L 282.135384 159.749492 
L 283.006355 157.724465 
L 283.877326 155.93138 
L 285.619269 152.454168 
L 286.054755 151.232699 
L 287.361212 149.370584 
L 287.796697 148.269093 
L 288.232183 147.604919 
L 289.974125 143.982239 
L 290.845097 142.242603 
L 291.716068 140.418927 
L 293.458011 136.192258 
L 294.328982 134.681654 
L 295.635439 131.563114 
L 296.50641 130.120314 
L 296.941896 129.504585 
L 298.248353 126.53233 
L 298.683838 126.016451 
L 300.861266 121.98649 
L 301.296752 120.791869 
L 302.603209 118.441931 
L 303.038695 117.761767 
L 303.47418 117.298192 
L 304.780637 115.186132 
L 305.651609 112.935162 
L 306.958065 109.934262 
L 307.829037 108.775284 
L 308.700008 107.43974 
L 309.135494 106.350921 
L 310.006465 104.911244 
L 310.877436 102.756265 
L 311.312922 102.07821 
L 311.748407 101.606688 
L 312.183893 101.538263 
L 312.619379 101.131685 
L 313.054864 99.896172 
L 313.49035 99.334627 
L 313.925836 98.081636 
L 314.361321 97.843938 
L 314.796807 96.659241 
L 315.232293 96.026949 
L 316.103264 94.306884 
L 316.974235 92.909341 
L 317.409721 92.373482 
L 318.716178 89.804355 
L 319.151663 87.782336 
L 320.45812 84.522564 
L 320.893606 83.857032 
L 321.329092 82.978835 
L 321.764577 81.792241 
L 322.635549 80.275375 
L 323.50652 78.298712 
L 327.861376 70.487508 
L 328.732347 69.190159 
L 329.167833 68.25552 
L 329.603319 66.647306 
L 330.47429 64.478414 
L 331.780747 62.253065 
L 332.216233 61.642306 
L 333.958175 57.899551 
L 334.829146 56.535723 
L 335.264632 55.867608 
L 335.700118 55.815157 
L 336.135603 55.290498 
L 336.571089 54.405874 
L 337.006575 54.073918 
L 337.44206 53.515349 
L 338.313032 52.000478 
L 338.748517 51.399333 
L 339.184003 50.550059 
L 339.619489 50.168316 
L 340.49046 49.031263 
L 340.925945 48.889688 
L 341.796917 47.994061 
L 342.232402 46.971181 
L 343.103374 45.993706 
L 343.538859 45.670611 
L 344.409831 44.592272 
L 344.845316 43.840117 
L 345.280802 43.748377 
L 345.716287 43.410976 
L 346.151773 42.709147 
L 346.587259 42.271291 
L 347.022744 42.341531 
L 348.329201 40.423613 
L 348.764687 40.325005 
L 349.200173 39.946958 
L 349.635658 41.080348 
L 350.071144 41.04083 
L 350.50663 41.249261 
L 350.942115 41.052651 
L 351.377601 40.385386 
L 352.248572 40.553449 
L 352.684058 39.762267 
L 353.119543 39.317723 
L 353.990515 39.591621 
L 354.426 39.634899 
L 354.861486 39.426468 
L 355.296972 39.090816 
L 355.732457 38.954375 
L 356.603429 38.365018 
L 357.038914 37.946652 
L 357.4744 37.697983 
L 357.909885 37.169808 
L 358.345371 36.858568 
L 359.216342 36.582643 
L 359.651828 36.44697 
L 360.087314 37.239542 
L 360.522799 37.146755 
L 360.958285 37.308866 
L 361.393771 37.135424 
L 361.829256 37.110686 
L 362.264742 36.72103 
L 362.700228 36.518779 
L 363.135713 36.079321 
L 363.571199 36.55475 
L 364.006684 36.489742 
L 364.44217 36.002312 
L 364.877656 35.813893 
L 365.313141 35.772887 
L 365.748627 35.920627 
L 366.184113 35.264398 
L 367.055084 35.821038 
L 367.49057 35.435077 
L 367.926055 35.237437 
L 368.361541 35.463379 
L 368.797026 35.392403 
L 369.232512 35.176337 
L 370.103483 35.296183 
L 370.538969 35.63154 
L 370.974455 35.5174 
L 371.40994 35.262714 
L 371.845426 35.405369 
L 372.280912 35.0069 
L 372.716397 35.218634 
L 373.151883 34.990125 
L 373.587369 35.042854 
L 374.022854 35.492744 
L 374.45834 35.335587 
L 374.893825 35.8798 
L 375.329311 36.034489 
L 375.764797 35.980468 
L 376.200282 35.676928 
L 376.635768 35.96196 
L 377.506739 35.652109 
L 378.377711 36.359856 
L 378.813196 36.500287 
L 379.684168 36.444877 
L 380.555139 36.382779 
L 381.42611 36.074171 
L 381.861596 36.399832 
L 382.297081 35.92648 
L 382.732567 35.985013 
L 383.168053 36.399129 
L 383.603538 36.546525 
L 384.039024 36.505078 
L 385.345481 35.840936 
L 385.780966 36.182588 
L 386.216452 36.300424 
L 386.651938 36.580354 
L 387.087423 36.590099 
L 387.958395 36.87809 
L 388.829366 37.96328 
L 389.264852 37.934879 
L 389.700337 38.205327 
L 390.571309 38.213142 
L 391.006794 37.879681 
L 392.313251 38.023906 
L 392.748737 38.48493 
L 393.184222 38.529746 
L 393.619708 39.069856 
L 394.055194 38.383102 
L 394.490679 38.295645 
L 394.926165 38.529713 
L 395.361651 38.412352 
L 395.797136 37.535086 
L 396.232622 37.255287 
L 396.668108 37.773209 
L 397.103593 37.114414 
L 397.539079 37.17746 
L 397.974564 37.670563 
L 398.845536 37.567541 
L 398.845536 37.567541 
" style="fill:none;opacity:0.8;stroke:#ff7f0e;stroke-linecap:square;stroke-width:1.5;"/>
   </g>
   <g id="line2d_18">
    <path clip-path="url(#p85c43ac943)" d="M 89.650731 285.882499 
L 134.941237 285.779656 
L 138.860608 285.80544 
L 144.086436 285.897819 
L 206.360882 285.92666 
L 210.280253 285.821529 
L 212.893167 285.821774 
L 219.860937 285.74609 
L 222.038365 285.710937 
L 264.715958 285.443792 
L 267.764358 285.407217 
L 269.5063 285.446735 
L 276.474071 285.441683 
L 282.57087 285.509683 
L 285.183783 285.541893 
L 295.199953 285.621387 
L 297.812867 285.615109 
L 304.345152 285.48663 
L 330.038804 285.481447 
L 333.087204 285.459276 
L 342.232402 285.399287 
L 345.280802 285.39878 
L 347.022744 285.428995 
L 354.426 285.458246 
L 358.780857 285.426232 
L 364.006684 285.475037 
L 398.845536 285.567563 
L 398.845536 285.567563 
" style="fill:none;opacity:0.8;stroke:#2ca02c;stroke-linecap:square;stroke-width:1.5;"/>
   </g>
   <g id="line2d_19">
    <path clip-path="url(#p85c43ac943)" d="M 89.650731 263.276727 
L 90.086216 262.992774 
L 90.521702 263.045438 
L 90.957187 263.327428 
L 92.69913 262.927946 
L 94.441073 262.450522 
L 96.618501 261.857405 
L 97.489472 261.75283 
L 98.360443 261.519154 
L 99.231415 261.389383 
L 100.102386 261.130855 
L 100.973357 261.163065 
L 101.408843 261.22531 
L 102.7153 261.039033 
L 104.021757 261.040145 
L 104.457242 261.242347 
L 106.634671 261.373851 
L 107.505642 261.436374 
L 111.860498 261.10391 
L 113.602441 260.843175 
L 114.473412 260.866408 
L 116.215355 260.720941 
L 118.392783 260.637245 
L 118.828268 260.636542 
L 119.69924 260.508717 
L 121.441182 260.176368 
L 122.312154 260.222982 
L 123.618611 259.897124 
L 124.489582 260.02181 
L 126.66701 260.025309 
L 127.102496 259.83228 
L 127.973467 260.108466 
L 128.408953 260.334114 
L 129.279924 260.526555 
L 131.457352 261.152208 
L 131.892838 261.153189 
L 132.763809 261.517781 
L 133.63478 261.726294 
L 134.505752 261.999292 
L 135.376723 262.187089 
L 137.989637 262.924986 
L 141.038036 263.935669 
L 142.344493 264.307814 
L 142.779979 264.510964 
L 143.65095 264.689164 
L 148.876778 266.327315 
L 149.747749 266.6079 
L 150.61872 266.918863 
L 151.489692 267.359825 
L 152.360663 267.504687 
L 152.796148 267.576284 
L 154.102605 268.110001 
L 154.973577 268.367369 
L 156.280034 268.727823 
L 157.151005 269.076571 
L 157.586491 269.401906 
L 158.892947 269.357156 
L 159.763919 269.456581 
L 160.63489 269.394826 
L 164.118775 269.650935 
L 164.554261 269.536402 
L 166.296203 269.454929 
L 168.473632 269.340658 
L 170.215574 269.338239 
L 171.086545 269.191545 
L 172.393002 269.24071 
L 174.134945 269.395742 
L 174.570431 269.409231 
L 175.876887 269.188308 
L 177.183344 269.062102 
L 180.66723 269.007361 
L 181.973686 268.955809 
L 183.280143 269.023483 
L 184.151115 268.938576 
L 184.5866 269.121943 
L 185.893057 269.100148 
L 188.941457 269.076293 
L 189.812428 269.026393 
L 194.167284 268.93668 
L 194.60277 268.92046 
L 195.473741 269.023237 
L 195.909227 268.958491 
L 196.344713 269.020899 
L 198.086655 268.744239 
L 198.522141 268.788695 
L 198.957626 268.711424 
L 199.393112 268.494507 
L 203.312483 268.077955 
L 204.61894 267.826376 
L 205.489911 267.801033 
L 207.667339 267.760681 
L 210.715739 267.352876 
L 211.58671 267.479606 
L 213.764138 267.237101 
L 214.63511 267.083672 
L 215.070595 266.883236 
L 218.118995 266.652519 
L 220.731908 266.276434 
L 221.167394 266.212995 
L 221.60288 266.264662 
L 223.344822 266.098741 
L 225.957736 266.111232 
L 227.699679 266.20742 
L 228.135164 266.170583 
L 228.57065 266.306992 
L 229.441621 266.342815 
L 229.877107 266.539246 
L 231.183564 266.67384 
L 233.360992 266.845827 
L 236.844877 266.973652 
L 237.715849 266.889759 
L 244.248133 266.631509 
L 245.990076 266.740663 
L 247.732018 266.716693 
L 249.038475 266.792967 
L 250.780418 266.773183 
L 251.215903 266.922754 
L 256.877217 266.590258 
L 257.748188 266.55177 
L 259.054645 266.547372 
L 259.925616 266.519462 
L 260.361102 266.241771 
L 262.103044 266.016859 
L 262.974016 266.036627 
L 263.844987 265.970523 
L 264.715958 265.940553 
L 268.635329 265.601141 
L 269.5063 265.401097 
L 271.248243 265.308114 
L 272.119214 265.125827 
L 273.861157 264.734307 
L 275.167614 264.306522 
L 276.038585 264.190796 
L 279.086984 262.936415 
L 280.393441 262.424182 
L 282.135384 261.593792 
L 284.312812 260.732844 
L 289.53864 257.642525 
L 290.409611 256.955951 
L 290.845097 256.892855 
L 291.716068 256.380999 
L 293.022525 255.501182 
L 295.199953 253.883894 
L 296.50641 252.894385 
L 296.941896 252.601881 
L 297.377381 252.130736 
L 300.425781 250.253334 
L 300.861266 249.935847 
L 301.296752 249.464114 
L 301.732238 249.204032 
L 303.038695 248.017995 
L 304.780637 246.845675 
L 306.958065 245.409726 
L 307.393551 245.24078 
L 307.829037 244.841657 
L 308.264522 243.872962 
L 308.700008 243.596939 
L 310.006465 242.446414 
L 310.877436 241.859968 
L 311.312922 241.207304 
L 313.925836 238.74478 
L 314.796807 238.124195 
L 315.232293 237.451894 
L 315.667778 237.215962 
L 316.103264 236.73486 
L 316.974235 236.118199 
L 317.409721 235.840426 
L 317.845206 235.375674 
L 318.716178 234.802537 
L 319.587149 233.9617 
L 325.683948 229.846996 
L 327.425891 228.671619 
L 327.861376 228.546622 
L 329.167833 227.562263 
L 330.038804 226.702737 
L 330.909776 225.95055 
L 331.345261 225.500317 
L 331.780747 225.362764 
L 332.216233 224.957918 
L 332.651718 224.708187 
L 333.087204 224.615351 
L 334.393661 223.687236 
L 335.700118 222.683927 
L 337.006575 221.616821 
L 338.313032 220.852992 
L 338.748517 220.901405 
L 339.619489 220.497557 
L 341.361431 219.557278 
L 341.796917 219.468562 
L 342.232402 219.015468 
L 343.103374 218.655095 
L 343.538859 218.483353 
L 343.974345 218.507633 
L 344.845316 217.83409 
L 345.280802 217.360214 
L 345.716287 217.518222 
L 346.151773 217.142611 
L 347.45823 216.602092 
L 349.635658 216.03301 
L 350.071144 215.99063 
L 353.555029 214.363303 
L 353.990515 214.075574 
L 354.426 213.99554 
L 355.296972 213.544865 
L 357.038914 213.198717 
L 357.909885 212.701624 
L 358.780857 212.485198 
L 359.651828 212.464498 
L 360.087314 212.214832 
L 360.522799 212.117859 
L 360.958285 211.858285 
L 361.829256 212.015524 
L 364.006684 211.823672 
L 364.877656 211.398552 
L 367.926055 210.985581 
L 368.361541 210.877065 
L 368.797026 210.618128 
L 369.232512 210.954925 
L 370.103483 210.756532 
L 370.538969 210.7401 
L 371.845426 210.361023 
L 372.280912 210.381575 
L 372.716397 210.657074 
L 374.022854 210.363214 
L 374.893825 210.272144 
L 375.329311 210.276362 
L 375.764797 210.432309 
L 376.200282 210.3622 
L 377.506739 210.482472 
L 377.942225 210.476308 
L 378.377711 210.294674 
L 378.813196 210.329745 
L 379.684168 210.109117 
L 381.42611 209.557529 
L 382.297081 209.555845 
L 384.039024 209.270944 
L 385.345481 209.075871 
L 387.087423 208.880405 
L 387.522909 208.818471 
L 388.39388 208.935096 
L 389.700337 208.493709 
L 390.135823 208.288907 
L 390.571309 208.462038 
L 391.006794 208.088798 
L 391.44228 208.231305 
L 392.748737 208.037769 
L 394.055194 208.020062 
L 395.361651 208.439671 
L 395.797136 208.352983 
L 396.668108 208.452833 
L 397.539079 208.36935 
L 398.41005 207.881086 
L 398.845536 207.808524 
L 398.845536 207.808524 
" style="fill:none;opacity:0.8;stroke:#d62728;stroke-linecap:square;stroke-width:1.5;"/>
   </g>
   <g id="line2d_20">
    <path clip-path="url(#p85c43ac943)" d="M 89.650731 252.450577 
L 90.086216 251.972647 
L 91.828159 251.541086 
L 94.441073 250.30124 
L 94.876558 249.940965 
L 95.312044 249.905828 
L 96.183015 249.528615 
L 97.924958 248.549243 
L 100.537872 247.988728 
L 101.408843 247.394352 
L 101.844328 247.09073 
L 102.7153 246.769042 
L 103.150785 246.122983 
L 104.021757 245.628098 
L 104.457242 245.569107 
L 104.892728 245.378235 
L 105.328214 245.412767 
L 106.199185 245.182639 
L 106.634671 245.182067 
L 107.505642 244.99489 
L 109.247584 244.929572 
L 110.554041 244.342831 
L 113.166955 244.601834 
L 113.602441 244.662329 
L 114.037926 244.354276 
L 114.473412 244.37012 
L 116.65084 243.78163 
L 120.570211 242.890352 
L 121.441182 242.684619 
L 121.876668 242.277092 
L 122.747639 242.264192 
L 123.183125 241.958445 
L 124.054096 241.839481 
L 124.489582 241.255667 
L 124.925067 241.159447 
L 125.796039 241.222133 
L 126.66701 241.036935 
L 127.102496 241.059302 
L 133.199295 235.050568 
L 133.63478 235.232071 
L 134.505752 234.601251 
L 136.68318 232.081436 
L 138.860608 229.701856 
L 139.731579 228.715879 
L 140.167065 228.328315 
L 140.602551 227.749358 
L 141.038036 226.593797 
L 144.086436 223.317969 
L 144.521921 223.252912 
L 144.957407 222.744783 
L 146.263864 221.684428 
L 146.69935 221.177542 
L 147.134835 220.052098 
L 148.005806 219.268093 
L 148.441292 219.034973 
L 150.61872 217.041763 
L 151.054206 216.232285 
L 151.925177 215.545498 
L 152.360663 215.580586 
L 153.231634 214.853022 
L 154.102605 214.256586 
L 154.538091 213.961254 
L 154.973577 214.270189 
L 155.844548 213.818599 
L 157.151005 212.910546 
L 157.586491 212.219655 
L 158.021976 211.87766 
L 158.892947 212.013055 
L 159.328433 211.704022 
L 160.199404 211.793261 
L 160.63489 211.564522 
L 161.070376 211.612412 
L 161.505861 211.813992 
L 161.941347 211.638082 
L 162.376833 211.770354 
L 162.812318 211.762571 
L 163.68329 212.062056 
L 164.118775 211.941965 
L 164.554261 211.566811 
L 165.425232 211.425612 
L 165.860718 211.696174 
L 167.167175 211.337959 
L 168.038146 211.414608 
L 168.909117 211.509684 
L 169.780088 211.692004 
L 170.215574 211.625688 
L 170.65106 211.679496 
L 171.086545 211.975401 
L 171.522031 212.764196 
L 172.393002 212.731103 
L 174.570431 212.429068 
L 175.441402 212.406259 
L 176.312373 212.401158 
L 176.747859 212.220456 
L 177.183344 212.24418 
L 177.61883 212.902093 
L 178.489801 212.830414 
L 181.102715 212.527806 
L 181.538201 212.829466 
L 181.973686 212.658345 
L 182.844658 212.50933 
L 183.280143 212.391855 
L 183.715629 211.919287 
L 184.151115 211.894664 
L 186.328543 211.01045 
L 186.764028 210.933588 
L 187.199514 210.546466 
L 187.635 210.411872 
L 188.505971 210.805484 
L 189.376942 210.546073 
L 189.812428 210.801969 
L 190.683399 210.264377 
L 191.118885 210.23135 
L 191.554371 209.912277 
L 191.989856 209.924491 
L 192.425342 210.058873 
L 192.860827 210.014662 
L 193.296313 210.142356 
L 193.731799 209.870225 
L 194.60277 209.696505 
L 195.473741 210.400754 
L 195.909227 210.84358 
L 196.780198 211.429062 
L 198.957626 213.205518 
L 199.393112 213.156615 
L 200.264083 213.614533 
L 200.699569 213.631194 
L 201.135055 213.997175 
L 201.57054 214.122155 
L 202.006026 214.378149 
L 202.441512 214.497439 
L 204.61894 216.196658 
L 205.054425 215.788559 
L 205.925397 216.514815 
L 206.360882 216.71584 
L 208.102825 218.340322 
L 209.409282 219.331319 
L 209.844767 219.729363 
L 210.715739 220.167513 
L 212.457681 221.650763 
L 212.893167 221.726955 
L 213.764138 222.520361 
L 214.199624 223.306458 
L 215.941566 225.279394 
L 216.377052 225.393943 
L 218.55448 227.356317 
L 219.425452 228.311622 
L 222.473851 230.957512 
L 222.909337 230.850272 
L 223.780308 231.37843 
L 224.215794 231.915302 
L 225.086765 232.669076 
L 225.522251 233.098577 
L 226.393222 233.082799 
L 226.828707 232.63698 
L 227.699679 232.788448 
L 229.441621 232.798765 
L 229.877107 233.151797 
L 230.312593 233.054301 
L 233.360992 233.776257 
L 233.796478 233.5373 
L 234.231963 233.574889 
L 234.667449 233.486532 
L 235.102935 233.168588 
L 235.53842 233.92107 
L 236.409392 233.923195 
L 236.844877 234.037221 
L 238.58682 233.871545 
L 239.022305 233.642316 
L 240.328762 233.663212 
L 240.764248 234.052165 
L 241.635219 233.838878 
L 242.506191 234.005616 
L 242.941676 234.006483 
L 243.377162 234.307913 
L 243.812647 234.282244 
L 244.248133 234.046884 
L 246.425561 233.745845 
L 246.861047 233.890855 
L 247.296533 233.897329 
L 247.732018 233.738144 
L 248.167504 234.106186 
L 249.473961 234.029013 
L 250.344932 233.650099 
L 250.780418 233.578469 
L 251.215903 233.87179 
L 251.651389 233.80688 
L 252.086875 233.973161 
L 252.957846 233.997784 
L 253.393332 234.192841 
L 253.828817 234.078309 
L 255.57076 234.009426 
L 256.441731 233.819519 
L 256.877217 233.830457 
L 257.312702 234.187446 
L 257.748188 234.147192 
L 258.183674 234.247532 
L 258.619159 234.175772 
L 259.054645 233.886031 
L 260.361102 233.900141 
L 261.667559 234.221568 
L 262.103044 234.214783 
L 262.974016 234.051429 
L 263.409501 234.092141 
L 263.844987 234.009507 
L 264.280473 234.237542 
L 264.715958 234.094217 
L 265.151444 234.14935 
L 265.58693 234.602493 
L 266.022415 234.002133 
L 266.893386 234.041063 
L 267.764358 233.92483 
L 269.070815 233.955536 
L 269.5063 234.186628 
L 269.941786 234.17811 
L 270.812757 233.920285 
L 271.248243 233.860165 
L 271.683729 233.95516 
L 272.119214 233.904164 
L 272.990185 233.413725 
L 275.167614 233.155197 
L 276.038585 232.484172 
L 278.651499 231.791238 
L 279.086984 231.362668 
L 279.52247 231.159698 
L 279.957956 230.138846 
L 280.828927 230.273538 
L 281.264413 230.141854 
L 281.699898 229.042783 
L 282.135384 228.681576 
L 284.312812 227.965408 
L 286.054755 226.812496 
L 286.49024 226.728652 
L 286.925726 226.232819 
L 287.361212 225.563625 
L 288.232183 225.203546 
L 289.103154 224.688664 
L 289.53864 224.702791 
L 290.409611 224.037815 
L 292.587039 222.536776 
L 293.022525 222.403098 
L 294.328982 221.539501 
L 294.764467 220.664312 
L 295.199953 220.544907 
L 296.070924 219.900303 
L 296.50641 220.167987 
L 298.248353 218.590708 
L 299.55481 217.651246 
L 300.425781 216.981644 
L 301.732238 216.199961 
L 302.603209 215.583365 
L 303.47418 215.111746 
L 304.345152 214.411797 
L 304.780637 214.054024 
L 305.216123 213.404712 
L 305.651609 213.062978 
L 306.52258 212.990792 
L 306.958065 212.659604 
L 307.393551 212.186677 
L 307.829037 212.025596 
L 309.135494 210.987854 
L 309.570979 210.92036 
L 310.006465 210.678526 
L 310.441951 211.273392 
L 310.877436 210.612782 
L 311.312922 210.336596 
L 311.748407 209.712152 
L 312.183893 210.288919 
L 313.054864 209.713558 
L 313.925836 208.911013 
L 315.232293 208.487822 
L 315.667778 208.033796 
L 316.103264 207.337183 
L 316.53875 207.21714 
L 316.974235 206.800049 
L 317.409721 206.729024 
L 317.845206 206.873608 
L 318.716178 206.458904 
L 322.200063 203.977757 
L 323.50652 202.419836 
L 323.942005 202.056209 
L 324.377491 201.416641 
L 324.812977 201.168577 
L 325.248462 201.392198 
L 326.554919 200.689535 
L 326.990405 200.000165 
L 328.296862 199.529789 
L 329.603319 198.591717 
L 330.038804 198.209484 
L 331.780747 195.978428 
L 333.087204 193.445321 
L 333.958175 192.425793 
L 334.829146 190.82062 
L 335.264632 190.34905 
L 335.700118 189.416635 
L 336.571089 188.568735 
L 337.44206 187.458905 
L 337.877546 187.220913 
L 339.619489 185.327961 
L 340.054974 184.313044 
L 341.796917 182.626137 
L 342.232402 182.562469 
L 342.667888 182.195409 
L 343.538859 181.179429 
L 343.974345 180.967287 
L 344.409831 180.480789 
L 344.845316 180.207823 
L 345.716287 179.351617 
L 346.587259 179.119707 
L 347.45823 178.476575 
L 347.893716 178.190513 
L 348.329201 177.61579 
L 348.764687 176.486308 
L 349.200173 176.078683 
L 349.635658 175.445982 
L 351.377601 173.845535 
L 351.813086 173.264043 
L 353.119543 172.157843 
L 353.555029 172.016725 
L 353.990515 171.718204 
L 354.426 171.180318 
L 354.861486 170.84429 
L 355.732457 169.957264 
L 356.603429 169.421323 
L 357.038914 168.816124 
L 357.4744 168.709717 
L 357.909885 167.952903 
L 360.522799 165.923902 
L 361.829256 165.537222 
L 362.264742 165.486716 
L 362.700228 165.657068 
L 363.135713 165.236069 
L 364.006684 165.405816 
L 364.44217 165.149332 
L 364.877656 165.234221 
L 365.313141 165.509999 
L 365.748627 165.544645 
L 366.184113 166.214967 
L 366.619598 166.120921 
L 367.055084 165.853139 
L 368.361541 165.624548 
L 369.232512 165.319193 
L 369.667998 165.42524 
L 370.103483 165.297856 
L 370.538969 165.726752 
L 370.974455 165.294717 
L 371.40994 165.264306 
L 371.845426 165.077473 
L 372.280912 165.06351 
L 373.151883 164.768063 
L 373.587369 165.130676 
L 374.022854 164.789204 
L 374.45834 164.621664 
L 374.893825 164.724278 
L 375.329311 164.659973 
L 376.200282 164.095174 
L 376.635768 163.808229 
L 377.071254 163.821473 
L 377.506739 163.594484 
L 378.813196 163.418933 
L 379.248682 163.938524 
L 380.119653 163.957735 
L 380.555139 164.084203 
L 381.42611 163.861678 
L 381.861596 163.839 
L 382.732567 163.940257 
L 383.603538 163.886857 
L 384.039024 164.043982 
L 384.47451 163.536065 
L 384.909995 163.907115 
L 385.345481 164.123214 
L 386.216452 164.019669 
L 387.087423 163.738431 
L 387.522909 163.959305 
L 387.958395 163.711355 
L 388.39388 164.12225 
L 388.829366 163.541902 
L 389.700337 163.211908 
L 390.571309 163.152966 
L 391.006794 162.94957 
L 391.877765 163.024764 
L 392.313251 162.977349 
L 392.748737 163.069073 
L 393.184222 162.823756 
L 393.619708 163.154225 
L 394.055194 163.340763 
L 394.490679 163.24106 
L 394.926165 163.375752 
L 395.797136 163.267057 
L 396.232622 163.173027 
L 397.103593 163.289898 
L 397.974564 162.805967 
L 398.41005 162.917181 
L 398.845536 161.943188 
L 398.845536 161.943188 
" style="fill:none;opacity:0.8;stroke:#9467bd;stroke-linecap:square;stroke-width:1.5;"/>
   </g>
   <g id="patch_3">
    <path d="M 58.73125 288.430125 
L 58.73125 22.318125 
" style="fill:none;stroke:#000000;stroke-linecap:square;stroke-linejoin:miter;stroke-width:0.8;"/>
   </g>
   <g id="patch_4">
    <path d="M 415.85125 288.430125 
L 415.85125 22.318125 
" style="fill:none;stroke:#000000;stroke-linecap:square;stroke-linejoin:miter;stroke-width:0.8;"/>
   </g>
   <g id="patch_5">
    <path d="M 58.73125 288.430125 
L 415.85125 288.430125 
" style="fill:none;stroke:#000000;stroke-linecap:square;stroke-linejoin:miter;stroke-width:0.8;"/>
   </g>
   <g id="patch_6">
    <path d="M 58.73125 22.318125 
L 415.85125 22.318125 
" style="fill:none;stroke:#000000;stroke-linecap:square;stroke-linejoin:miter;stroke-width:0.8;"/>
   </g>
   <g id="text_18">
    <!-- Move [root to branch] -->
    <defs>
     <path d="M 9.8125 72.90625 
L 24.515625 72.90625 
L 43.109375 23.296875 
L 61.8125 72.90625 
L 76.515625 72.90625 
L 76.515625 0 
L 66.890625 0 
L 66.890625 64.015625 
L 48.09375 14.015625 
L 38.1875 14.015625 
L 19.390625 64.015625 
L 19.390625 0 
L 9.8125 0 
z
" id="DejaVuSans-4d"/>
     <path d="M 2.984375 54.6875 
L 12.5 54.6875 
L 29.59375 8.796875 
L 46.6875 54.6875 
L 56.203125 54.6875 
L 35.6875 0 
L 23.484375 0 
z
" id="DejaVuSans-76"/>
     <path d="M 8.59375 75.984375 
L 29.296875 75.984375 
L 29.296875 69 
L 17.578125 69 
L 17.578125 -6.203125 
L 29.296875 -6.203125 
L 29.296875 -13.1875 
L 8.59375 -13.1875 
z
" id="DejaVuSans-5b"/>
     <path d="M 54.890625 33.015625 
L 54.890625 0 
L 45.90625 0 
L 45.90625 32.71875 
Q 45.90625 40.484375 42.875 44.328125 
Q 39.84375 48.1875 33.796875 48.1875 
Q 26.515625 48.1875 22.3125 43.546875 
Q 18.109375 38.921875 18.109375 30.90625 
L 18.109375 0 
L 9.078125 0 
L 9.078125 75.984375 
L 18.109375 75.984375 
L 18.109375 46.1875 
Q 21.34375 51.125 25.703125 53.5625 
Q 30.078125 56 35.796875 56 
Q 45.21875 56 50.046875 50.171875 
Q 54.890625 44.34375 54.890625 33.015625 
z
" id="DejaVuSans-68"/>
     <path d="M 30.421875 75.984375 
L 30.421875 -13.1875 
L 9.71875 -13.1875 
L 9.71875 -6.203125 
L 21.390625 -6.203125 
L 21.390625 69 
L 9.71875 69 
L 9.71875 75.984375 
z
" id="DejaVuSans-5d"/>
    </defs>
    <g transform="translate(171.758125 16.318125)scale(0.12 -0.12)">
     <use xlink:href="#DejaVuSans-4d"/>
     <use x="86.279297" xlink:href="#DejaVuSans-6f"/>
     <use x="147.460938" xlink:href="#DejaVuSans-76"/>
     <use x="206.640625" xlink:href="#DejaVuSans-65"/>
     <use x="268.164062" xlink:href="#DejaVuSans-20"/>
     <use x="299.951172" xlink:href="#DejaVuSans-5b"/>
     <use x="338.964844" xlink:href="#DejaVuSans-72"/>
     <use x="380.046875" xlink:href="#DejaVuSans-6f"/>
     <use x="441.228516" xlink:href="#DejaVuSans-6f"/>
     <use x="502.410156" xlink:href="#DejaVuSans-74"/>
     <use x="541.619141" xlink:href="#DejaVuSans-20"/>
     <use x="573.40625" xlink:href="#DejaVuSans-74"/>
     <use x="612.615234" xlink:href="#DejaVuSans-6f"/>
     <use x="673.796875" xlink:href="#DejaVuSans-20"/>
     <use x="705.583984" xlink:href="#DejaVuSans-62"/>
     <use x="769.060547" xlink:href="#DejaVuSans-72"/>
     <use x="810.173828" xlink:href="#DejaVuSans-61"/>
     <use x="871.453125" xlink:href="#DejaVuSans-6e"/>
     <use x="934.832031" xlink:href="#DejaVuSans-63"/>
     <use x="989.8125" xlink:href="#DejaVuSans-68"/>
     <use x="1053.191406" xlink:href="#DejaVuSans-5d"/>
    </g>
   </g>
   <g id="legend_1">
    <g id="patch_7">
     <path d="M 89.251563 365.802375 
L 377.810938 365.802375 
Q 379.810938 365.802375 379.810938 363.802375 
L 379.810938 335.446125 
Q 379.810938 333.446125 377.810938 333.446125 
L 89.251563 333.446125 
Q 87.251563 333.446125 87.251563 335.446125 
L 87.251563 363.802375 
Q 87.251563 365.802375 89.251563 365.802375 
z
" style="fill:#4c4c4c;opacity:0.5;stroke:#4c4c4c;stroke-linejoin:miter;"/>
    </g>
    <g id="patch_8">
     <path d="M 87.251563 363.802375 
L 375.810938 363.802375 
Q 377.810938 363.802375 377.810938 361.802375 
L 377.810938 333.446125 
Q 377.810938 331.446125 375.810938 331.446125 
L 87.251563 331.446125 
Q 85.251563 331.446125 85.251563 333.446125 
L 85.251563 361.802375 
Q 85.251563 363.802375 87.251563 363.802375 
z
" style="fill:#ffffff;stroke:#cccccc;stroke-linejoin:miter;"/>
    </g>
    <g id="line2d_21">
     <path d="M 89.251563 339.544562 
L 109.251563 339.544562 
" style="fill:none;opacity:0.8;stroke:#1f77b4;stroke-linecap:square;stroke-width:1.5;"/>
    </g>
    <g id="line2d_22"/>
    <g id="text_19">
     <!-- MPTT -->
     <defs>
      <path d="M 19.671875 64.796875 
L 19.671875 37.40625 
L 32.078125 37.40625 
Q 38.96875 37.40625 42.71875 40.96875 
Q 46.484375 44.53125 46.484375 51.125 
Q 46.484375 57.671875 42.71875 61.234375 
Q 38.96875 64.796875 32.078125 64.796875 
z
M 9.8125 72.90625 
L 32.078125 72.90625 
Q 44.34375 72.90625 50.609375 67.359375 
Q 56.890625 61.8125 56.890625 51.125 
Q 56.890625 40.328125 50.609375 34.8125 
Q 44.34375 29.296875 32.078125 29.296875 
L 19.671875 29.296875 
L 19.671875 0 
L 9.8125 0 
z
" id="DejaVuSans-50"/>
      <path d="M -0.296875 72.90625 
L 61.375 72.90625 
L 61.375 64.59375 
L 35.5 64.59375 
L 35.5 0 
L 25.59375 0 
L 25.59375 64.59375 
L -0.296875 64.59375 
z
" id="DejaVuSans-54"/>
     </defs>
     <g transform="translate(117.251563 343.044562)scale(0.1 -0.1)">
      <use xlink:href="#DejaVuSans-4d"/>
      <use x="86.279297" xlink:href="#DejaVuSans-50"/>
      <use x="146.582031" xlink:href="#DejaVuSans-54"/>
      <use x="207.650391" xlink:href="#DejaVuSans-54"/>
     </g>
    </g>
    <g id="line2d_23">
     <path d="M 89.251563 354.222687 
L 109.251563 354.222687 
" style="fill:none;opacity:0.8;stroke:#ff7f0e;stroke-linecap:square;stroke-width:1.5;"/>
    </g>
    <g id="line2d_24"/>
    <g id="text_20">
     <!-- tree -->
     <g transform="translate(117.251563 357.722687)scale(0.1 -0.1)">
      <use xlink:href="#DejaVuSans-74"/>
      <use x="39.208984" xlink:href="#DejaVuSans-72"/>
      <use x="80.291016" xlink:href="#DejaVuSans-65"/>
      <use x="141.814453" xlink:href="#DejaVuSans-65"/>
     </g>
    </g>
    <g id="line2d_25">
     <path d="M 164.123438 339.544562 
L 184.123438 339.544562 
" style="fill:none;opacity:0.8;stroke:#2ca02c;stroke-linecap:square;stroke-width:1.5;"/>
    </g>
    <g id="line2d_26"/>
    <g id="text_21">
     <!-- treebeard AL -->
     <defs>
      <path d="M 45.40625 46.390625 
L 45.40625 75.984375 
L 54.390625 75.984375 
L 54.390625 0 
L 45.40625 0 
L 45.40625 8.203125 
Q 42.578125 3.328125 38.25 0.953125 
Q 33.9375 -1.421875 27.875 -1.421875 
Q 17.96875 -1.421875 11.734375 6.484375 
Q 5.515625 14.40625 5.515625 27.296875 
Q 5.515625 40.1875 11.734375 48.09375 
Q 17.96875 56 27.875 56 
Q 33.9375 56 38.25 53.625 
Q 42.578125 51.265625 45.40625 46.390625 
z
M 14.796875 27.296875 
Q 14.796875 17.390625 18.875 11.75 
Q 22.953125 6.109375 30.078125 6.109375 
Q 37.203125 6.109375 41.296875 11.75 
Q 45.40625 17.390625 45.40625 27.296875 
Q 45.40625 37.203125 41.296875 42.84375 
Q 37.203125 48.484375 30.078125 48.484375 
Q 22.953125 48.484375 18.875 42.84375 
Q 14.796875 37.203125 14.796875 27.296875 
z
" id="DejaVuSans-64"/>
      <path d="M 9.8125 72.90625 
L 19.671875 72.90625 
L 19.671875 8.296875 
L 55.171875 8.296875 
L 55.171875 0 
L 9.8125 0 
z
" id="DejaVuSans-4c"/>
     </defs>
     <g transform="translate(192.123438 343.044562)scale(0.1 -0.1)">
      <use xlink:href="#DejaVuSans-74"/>
      <use x="39.208984" xlink:href="#DejaVuSans-72"/>
      <use x="80.291016" xlink:href="#DejaVuSans-65"/>
      <use x="141.814453" xlink:href="#DejaVuSans-65"/>
      <use x="203.337891" xlink:href="#DejaVuSans-62"/>
      <use x="266.814453" xlink:href="#DejaVuSans-65"/>
      <use x="328.337891" xlink:href="#DejaVuSans-61"/>
      <use x="389.617188" xlink:href="#DejaVuSans-72"/>
      <use x="430.714844" xlink:href="#DejaVuSans-64"/>
      <use x="494.191406" xlink:href="#DejaVuSans-20"/>
      <use x="525.978516" xlink:href="#DejaVuSans-41"/>
      <use x="594.386719" xlink:href="#DejaVuSans-4c"/>
     </g>
    </g>
    <g id="line2d_27">
     <path d="M 164.123438 354.222687 
L 184.123438 354.222687 
" style="fill:none;opacity:0.8;stroke:#d62728;stroke-linecap:square;stroke-width:1.5;"/>
    </g>
    <g id="line2d_28"/>
    <g id="text_22">
     <!-- treebeard MP -->
     <g transform="translate(192.123438 357.722687)scale(0.1 -0.1)">
      <use xlink:href="#DejaVuSans-74"/>
      <use x="39.208984" xlink:href="#DejaVuSans-72"/>
      <use x="80.291016" xlink:href="#DejaVuSans-65"/>
      <use x="141.814453" xlink:href="#DejaVuSans-65"/>
      <use x="203.337891" xlink:href="#DejaVuSans-62"/>
      <use x="266.814453" xlink:href="#DejaVuSans-65"/>
      <use x="328.337891" xlink:href="#DejaVuSans-61"/>
      <use x="389.617188" xlink:href="#DejaVuSans-72"/>
      <use x="430.714844" xlink:href="#DejaVuSans-64"/>
      <use x="494.191406" xlink:href="#DejaVuSans-20"/>
      <use x="525.978516" xlink:href="#DejaVuSans-4d"/>
      <use x="612.257812" xlink:href="#DejaVuSans-50"/>
     </g>
    </g>
    <g id="line2d_29">
     <path d="M 279.38125 339.544562 
L 299.38125 339.544562 
" style="fill:none;opacity:0.8;stroke:#9467bd;stroke-linecap:square;stroke-width:1.5;"/>
    </g>
    <g id="line2d_30"/>
    <g id="text_23">
     <!-- treebeard NS -->
     <defs>
      <path d="M 9.8125 72.90625 
L 23.09375 72.90625 
L 55.421875 11.921875 
L 55.421875 72.90625 
L 64.984375 72.90625 
L 64.984375 0 
L 51.703125 0 
L 19.390625 60.984375 
L 19.390625 0 
L 9.8125 0 
z
" id="DejaVuSans-4e"/>
      <path d="M 53.515625 70.515625 
L 53.515625 60.890625 
Q 47.90625 63.578125 42.921875 64.890625 
Q 37.9375 66.21875 33.296875 66.21875 
Q 25.25 66.21875 20.875 63.09375 
Q 16.5 59.96875 16.5 54.203125 
Q 16.5 49.359375 19.40625 46.890625 
Q 22.3125 44.4375 30.421875 42.921875 
L 36.375 41.703125 
Q 47.40625 39.59375 52.65625 34.296875 
Q 57.90625 29 57.90625 20.125 
Q 57.90625 9.515625 50.796875 4.046875 
Q 43.703125 -1.421875 29.984375 -1.421875 
Q 24.8125 -1.421875 18.96875 -0.25 
Q 13.140625 0.921875 6.890625 3.21875 
L 6.890625 13.375 
Q 12.890625 10.015625 18.65625 8.296875 
Q 24.421875 6.59375 29.984375 6.59375 
Q 38.421875 6.59375 43.015625 9.90625 
Q 47.609375 13.234375 47.609375 19.390625 
Q 47.609375 24.75 44.3125 27.78125 
Q 41.015625 30.8125 33.5 32.328125 
L 27.484375 33.5 
Q 16.453125 35.6875 11.515625 40.375 
Q 6.59375 45.0625 6.59375 53.421875 
Q 6.59375 63.09375 13.40625 68.65625 
Q 20.21875 74.21875 32.171875 74.21875 
Q 37.3125 74.21875 42.625 73.28125 
Q 47.953125 72.359375 53.515625 70.515625 
z
" id="DejaVuSans-53"/>
     </defs>
     <g transform="translate(307.38125 343.044562)scale(0.1 -0.1)">
      <use xlink:href="#DejaVuSans-74"/>
      <use x="39.208984" xlink:href="#DejaVuSans-72"/>
      <use x="80.291016" xlink:href="#DejaVuSans-65"/>
      <use x="141.814453" xlink:href="#DejaVuSans-65"/>
      <use x="203.337891" xlink:href="#DejaVuSans-62"/>
      <use x="266.814453" xlink:href="#DejaVuSans-65"/>
      <use x="328.337891" xlink:href="#DejaVuSans-61"/>
      <use x="389.617188" xlink:href="#DejaVuSans-72"/>
      <use x="430.714844" xlink:href="#DejaVuSans-64"/>
      <use x="494.191406" xlink:href="#DejaVuSans-20"/>
      <use x="525.978516" xlink:href="#DejaVuSans-4e"/>
      <use x="600.783203" xlink:href="#DejaVuSans-53"/>
     </g>
    </g>
   </g>
  </g>
 </g>
 <defs>
  <clipPath id="p85c43ac943">
   <rect height="266.112" width="357.12" x="58.73125" y="22.318125"/>
  </clipPath>
 </defs>
</svg>
