<?xml version="1.0" encoding="utf-8" standalone="no"?>
<!DOCTYPE svg PUBLIC "-//W3C//DTD SVG 1.1//EN"
  "http://www.w3.org/Graphics/SVG/1.1/DTD/svg11.dtd">
<svg xmlns:xlink="http://www.w3.org/1999/xlink" width="426.035625pt" height="371.002375pt" viewBox="0 0 426.035625 371.002375" xmlns="http://www.w3.org/2000/svg" version="1.1">
 <metadata>
  <rdf:RDF xmlns:dc="http://purl.org/dc/elements/1.1/" xmlns:cc="http://creativecommons.org/ns#" xmlns:rdf="http://www.w3.org/1999/02/22-rdf-syntax-ns#">
   <cc:Work>
    <dc:type rdf:resource="http://purl.org/dc/dcmitype/StillImage"/>
    <dc:date>2026-06-28T20:25:07.683557</dc:date>
    <dc:format>image/svg+xml</dc:format>
    <dc:creator>
     <cc:Agent>
      <dc:title>Matplotlib v3.10.6, https://matplotlib.org/</dc:title>
     </cc:Agent>
    </dc:creator>
   </cc:Work>
  </rdf:RDF>
 </metadata>
 <defs>
  <style type="text/css">*{stroke-linejoin: round; stroke-linecap: butt}</style>
 </defs>
 <g id="figure_1">
  <g id="patch_1">
   <path d="M 0 371.002375 
L 426.035625 371.002375 
L 426.035625 0 
L 0 0 
z
" style="fill: #ffffff"/>
  </g>
  <g id="axes_1">
   <g id="patch_2">
    <path d="M 61.715625 288.430125 
L 418.835625 288.430125 
L 418.835625 22.318125 
L 61.715625 22.318125 
z
" style="fill: #ffffff"/>
   </g>
   <g id="matplotlib.axis_1">
    <g id="xtick_1">
     <g id="line2d_1">
      <defs>
       <path id="mb23fdd1941" d="M 0 0 
L 0 3.5 
" style="stroke: #000000; stroke-width: 0.8"/>
      </defs>
      <g>
       <use xlink:href="#mb23fdd1941" x="61.715625" y="288.430125" style="stroke: #000000; stroke-width: 0.8"/>
      </g>
     </g>
     <g id="text_1">
      <!-- 0 -->
      <g transform="translate(58.534375 303.028562) scale(0.1 -0.1)">
       <defs>
        <path id="DejaVuSans-30" d="M 2034 4250 
Q 1547 4250 1301 3770 
Q 1056 3291 1056 2328 
Q 1056 1369 1301 889 
Q 1547 409 2034 409 
Q 2525 409 2770 889 
Q 3016 1369 3016 2328 
Q 3016 3291 2770 3770 
Q 2525 4250 2034 4250 
z
M 2034 4750 
Q 2819 4750 3233 4129 
Q 3647 3509 3647 2328 
Q 3647 1150 3233 529 
Q 2819 -91 2034 -91 
Q 1250 -91 836 529 
Q 422 1150 422 2328 
Q 422 3509 836 4129 
Q 1250 4750 2034 4750 
z
" transform="scale(0.015625)"/>
       </defs>
       <use xlink:href="#DejaVuSans-30"/>
      </g>
     </g>
    </g>
    <g id="xtick_2">
     <g id="line2d_2">
      <g>
       <use xlink:href="#mb23fdd1941" x="105.264189" y="288.430125" style="stroke: #000000; stroke-width: 0.8"/>
      </g>
     </g>
     <g id="text_2">
      <!-- 500  -->
      <g transform="translate(94.131377 303.028562) scale(0.1 -0.1)">
       <defs>
        <path id="DejaVuSans-35" d="M 691 4666 
L 3169 4666 
L 3169 4134 
L 1269 4134 
L 1269 2991 
Q 1406 3038 1543 3061 
Q 1681 3084 1819 3084 
Q 2600 3084 3056 2656 
Q 3513 2228 3513 1497 
Q 3513 744 3044 326 
Q 2575 -91 1722 -91 
Q 1428 -91 1123 -41 
Q 819 9 494 109 
L 494 744 
Q 775 591 1075 516 
Q 1375 441 1709 441 
Q 2250 441 2565 725 
Q 2881 1009 2881 1497 
Q 2881 1984 2565 2268 
Q 2250 2553 1709 2553 
Q 1456 2553 1204 2497 
Q 953 2441 691 2322 
L 691 4666 
z
" transform="scale(0.015625)"/>
        <path id="DejaVuSans-20" transform="scale(0.015625)"/>
       </defs>
       <use xlink:href="#DejaVuSans-35"/>
       <use xlink:href="#DejaVuSans-30" transform="translate(63.623047 0)"/>
       <use xlink:href="#DejaVuSans-30" transform="translate(127.246094 0)"/>
       <use xlink:href="#DejaVuSans-20" transform="translate(190.869141 0)"/>
      </g>
     </g>
    </g>
    <g id="xtick_3">
     <g id="line2d_3">
      <g>
       <use xlink:href="#mb23fdd1941" x="148.812753" y="288.430125" style="stroke: #000000; stroke-width: 0.8"/>
      </g>
     </g>
     <g id="text_3">
      <!-- 1 k -->
      <g transform="translate(141.147128 303.028562) scale(0.1 -0.1)">
       <defs>
        <path id="DejaVuSans-31" d="M 794 531 
L 1825 531 
L 1825 4091 
L 703 3866 
L 703 4441 
L 1819 4666 
L 2450 4666 
L 2450 531 
L 3481 531 
L 3481 0 
L 794 0 
L 794 531 
z
" transform="scale(0.015625)"/>
        <path id="DejaVuSans-6b" d="M 581 4863 
L 1159 4863 
L 1159 1991 
L 2875 3500 
L 3609 3500 
L 1753 1863 
L 3688 0 
L 2938 0 
L 1159 1709 
L 1159 0 
L 581 0 
L 581 4863 
z
" transform="scale(0.015625)"/>
       </defs>
       <use xlink:href="#DejaVuSans-31"/>
       <use xlink:href="#DejaVuSans-20" transform="translate(63.623047 0)"/>
       <use xlink:href="#DejaVuSans-6b" transform="translate(95.410156 0)"/>
      </g>
     </g>
    </g>
    <g id="xtick_4">
     <g id="line2d_4">
      <g>
       <use xlink:href="#mb23fdd1941" x="192.361317" y="288.430125" style="stroke: #000000; stroke-width: 0.8"/>
      </g>
     </g>
     <g id="text_4">
      <!-- 1.5 k -->
      <g transform="translate(179.92538 303.028562) scale(0.1 -0.1)">
       <defs>
        <path id="DejaVuSans-2e" d="M 684 794 
L 1344 794 
L 1344 0 
L 684 0 
L 684 794 
z
" transform="scale(0.015625)"/>
       </defs>
       <use xlink:href="#DejaVuSans-31"/>
       <use xlink:href="#DejaVuSans-2e" transform="translate(63.623047 0)"/>
       <use xlink:href="#DejaVuSans-35" transform="translate(95.410156 0)"/>
       <use xlink:href="#DejaVuSans-20" transform="translate(159.033203 0)"/>
       <use xlink:href="#DejaVuSans-6b" transform="translate(190.820312 0)"/>
      </g>
     </g>
    </g>
    <g id="xtick_5">
     <g id="line2d_5">
      <g>
       <use xlink:href="#mb23fdd1941" x="235.909881" y="288.430125" style="stroke: #000000; stroke-width: 0.8"/>
      </g>
     </g>
     <g id="text_5">
      <!-- 2 k -->
      <g transform="translate(228.244256 303.028562) scale(0.1 -0.1)">
       <defs>
        <path id="DejaVuSans-32" d="M 1228 531 
L 3431 531 
L 3431 0 
L 469 0 
L 469 531 
Q 828 903 1448 1529 
Q 2069 2156 2228 2338 
Q 2531 2678 2651 2914 
Q 2772 3150 2772 3378 
Q 2772 3750 2511 3984 
Q 2250 4219 1831 4219 
Q 1534 4219 1204 4116 
Q 875 4013 500 3803 
L 500 4441 
Q 881 4594 1212 4672 
Q 1544 4750 1819 4750 
Q 2544 4750 2975 4387 
Q 3406 4025 3406 3419 
Q 3406 3131 3298 2873 
Q 3191 2616 2906 2266 
Q 2828 2175 2409 1742 
Q 1991 1309 1228 531 
z
" transform="scale(0.015625)"/>
       </defs>
       <use xlink:href="#DejaVuSans-32"/>
       <use xlink:href="#DejaVuSans-20" transform="translate(63.623047 0)"/>
       <use xlink:href="#DejaVuSans-6b" transform="translate(95.410156 0)"/>
      </g>
     </g>
    </g>
    <g id="xtick_6">
     <g id="line2d_6">
      <g>
       <use xlink:href="#mb23fdd1941" x="279.458446" y="288.430125" style="stroke: #000000; stroke-width: 0.8"/>
      </g>
     </g>
     <g id="text_6">
      <!-- 2.5 k -->
      <g transform="translate(267.022508 303.028562) scale(0.1 -0.1)">
       <use xlink:href="#DejaVuSans-32"/>
       <use xlink:href="#DejaVuSans-2e" transform="translate(63.623047 0)"/>
       <use xlink:href="#DejaVuSans-35" transform="translate(95.410156 0)"/>
       <use xlink:href="#DejaVuSans-20" transform="translate(159.033203 0)"/>
       <use xlink:href="#DejaVuSans-6b" transform="translate(190.820312 0)"/>
      </g>
     </g>
    </g>
    <g id="xtick_7">
     <g id="line2d_7">
      <g>
       <use xlink:href="#mb23fdd1941" x="323.00701" y="288.430125" style="stroke: #000000; stroke-width: 0.8"/>
      </g>
     </g>
     <g id="text_7">
      <!-- 3 k -->
      <g transform="translate(315.341385 303.028562) scale(0.1 -0.1)">
       <defs>
        <path id="DejaVuSans-33" d="M 2597 2516 
Q 3050 2419 3304 2112 
Q 3559 1806 3559 1356 
Q 3559 666 3084 287 
Q 2609 -91 1734 -91 
Q 1441 -91 1130 -33 
Q 819 25 488 141 
L 488 750 
Q 750 597 1062 519 
Q 1375 441 1716 441 
Q 2309 441 2620 675 
Q 2931 909 2931 1356 
Q 2931 1769 2642 2001 
Q 2353 2234 1838 2234 
L 1294 2234 
L 1294 2753 
L 1863 2753 
Q 2328 2753 2575 2939 
Q 2822 3125 2822 3475 
Q 2822 3834 2567 4026 
Q 2313 4219 1838 4219 
Q 1578 4219 1281 4162 
Q 984 4106 628 3988 
L 628 4550 
Q 988 4650 1302 4700 
Q 1616 4750 1894 4750 
Q 2613 4750 3031 4423 
Q 3450 4097 3450 3541 
Q 3450 3153 3228 2886 
Q 3006 2619 2597 2516 
z
" transform="scale(0.015625)"/>
       </defs>
       <use xlink:href="#DejaVuSans-33"/>
       <use xlink:href="#DejaVuSans-20" transform="translate(63.623047 0)"/>
       <use xlink:href="#DejaVuSans-6b" transform="translate(95.410156 0)"/>
      </g>
     </g>
    </g>
    <g id="xtick_8">
     <g id="line2d_8">
      <g>
       <use xlink:href="#mb23fdd1941" x="366.555574" y="288.430125" style="stroke: #000000; stroke-width: 0.8"/>
      </g>
     </g>
     <g id="text_8">
      <!-- 3.5 k -->
      <g transform="translate(354.119636 303.028562) scale(0.1 -0.1)">
       <use xlink:href="#DejaVuSans-33"/>
       <use xlink:href="#DejaVuSans-2e" transform="translate(63.623047 0)"/>
       <use xlink:href="#DejaVuSans-35" transform="translate(95.410156 0)"/>
       <use xlink:href="#DejaVuSans-20" transform="translate(159.033203 0)"/>
       <use xlink:href="#DejaVuSans-6b" transform="translate(190.820312 0)"/>
      </g>
     </g>
    </g>
    <g id="xtick_9">
     <g id="line2d_9">
      <g>
       <use xlink:href="#mb23fdd1941" x="410.104138" y="288.430125" style="stroke: #000000; stroke-width: 0.8"/>
      </g>
     </g>
     <g id="text_9">
      <!-- 4 k -->
      <g transform="translate(402.438513 303.028562) scale(0.1 -0.1)">
       <defs>
        <path id="DejaVuSans-34" d="M 2419 4116 
L 825 1625 
L 2419 1625 
L 2419 4116 
z
M 2253 4666 
L 3047 4666 
L 3047 1625 
L 3713 1625 
L 3713 1100 
L 3047 1100 
L 3047 0 
L 2419 0 
L 2419 1100 
L 313 1100 
L 313 1709 
L 2253 4666 
z
" transform="scale(0.015625)"/>
       </defs>
       <use xlink:href="#DejaVuSans-34"/>
       <use xlink:href="#DejaVuSans-20" transform="translate(63.623047 0)"/>
       <use xlink:href="#DejaVuSans-6b" transform="translate(95.410156 0)"/>
      </g>
     </g>
    </g>
    <g id="text_10">
     <!-- Amount of objects in table -->
     <g transform="translate(174.217031 316.706687) scale(0.1 -0.1)">
      <defs>
       <path id="DejaVuSans-41" d="M 2188 4044 
L 1331 1722 
L 3047 1722 
L 2188 4044 
z
M 1831 4666 
L 2547 4666 
L 4325 0 
L 3669 0 
L 3244 1197 
L 1141 1197 
L 716 0 
L 50 0 
L 1831 4666 
z
" transform="scale(0.015625)"/>
       <path id="DejaVuSans-6d" d="M 3328 2828 
Q 3544 3216 3844 3400 
Q 4144 3584 4550 3584 
Q 5097 3584 5394 3201 
Q 5691 2819 5691 2113 
L 5691 0 
L 5113 0 
L 5113 2094 
Q 5113 2597 4934 2840 
Q 4756 3084 4391 3084 
Q 3944 3084 3684 2787 
Q 3425 2491 3425 1978 
L 3425 0 
L 2847 0 
L 2847 2094 
Q 2847 2600 2669 2842 
Q 2491 3084 2119 3084 
Q 1678 3084 1418 2786 
Q 1159 2488 1159 1978 
L 1159 0 
L 581 0 
L 581 3500 
L 1159 3500 
L 1159 2956 
Q 1356 3278 1631 3431 
Q 1906 3584 2284 3584 
Q 2666 3584 2933 3390 
Q 3200 3197 3328 2828 
z
" transform="scale(0.015625)"/>
       <path id="DejaVuSans-6f" d="M 1959 3097 
Q 1497 3097 1228 2736 
Q 959 2375 959 1747 
Q 959 1119 1226 758 
Q 1494 397 1959 397 
Q 2419 397 2687 759 
Q 2956 1122 2956 1747 
Q 2956 2369 2687 2733 
Q 2419 3097 1959 3097 
z
M 1959 3584 
Q 2709 3584 3137 3096 
Q 3566 2609 3566 1747 
Q 3566 888 3137 398 
Q 2709 -91 1959 -91 
Q 1206 -91 779 398 
Q 353 888 353 1747 
Q 353 2609 779 3096 
Q 1206 3584 1959 3584 
z
" transform="scale(0.015625)"/>
       <path id="DejaVuSans-75" d="M 544 1381 
L 544 3500 
L 1119 3500 
L 1119 1403 
Q 1119 906 1312 657 
Q 1506 409 1894 409 
Q 2359 409 2629 706 
Q 2900 1003 2900 1516 
L 2900 3500 
L 3475 3500 
L 3475 0 
L 2900 0 
L 2900 538 
Q 2691 219 2414 64 
Q 2138 -91 1772 -91 
Q 1169 -91 856 284 
Q 544 659 544 1381 
z
M 1991 3584 
L 1991 3584 
z
" transform="scale(0.015625)"/>
       <path id="DejaVuSans-6e" d="M 3513 2113 
L 3513 0 
L 2938 0 
L 2938 2094 
Q 2938 2591 2744 2837 
Q 2550 3084 2163 3084 
Q 1697 3084 1428 2787 
Q 1159 2491 1159 1978 
L 1159 0 
L 581 0 
L 581 3500 
L 1159 3500 
L 1159 2956 
Q 1366 3272 1645 3428 
Q 1925 3584 2291 3584 
Q 2894 3584 3203 3211 
Q 3513 2838 3513 2113 
z
" transform="scale(0.015625)"/>
       <path id="DejaVuSans-74" d="M 1172 4494 
L 1172 3500 
L 2356 3500 
L 2356 3053 
L 1172 3053 
L 1172 1153 
Q 1172 725 1289 603 
Q 1406 481 1766 481 
L 2356 481 
L 2356 0 
L 1766 0 
Q 1100 0 847 248 
Q 594 497 594 1153 
L 594 3053 
L 172 3053 
L 172 3500 
L 594 3500 
L 594 4494 
L 1172 4494 
z
" transform="scale(0.015625)"/>
       <path id="DejaVuSans-66" d="M 2375 4863 
L 2375 4384 
L 1825 4384 
Q 1516 4384 1395 4259 
Q 1275 4134 1275 3809 
L 1275 3500 
L 2222 3500 
L 2222 3053 
L 1275 3053 
L 1275 0 
L 697 0 
L 697 3053 
L 147 3053 
L 147 3500 
L 697 3500 
L 697 3744 
Q 697 4328 969 4595 
Q 1241 4863 1831 4863 
L 2375 4863 
z
" transform="scale(0.015625)"/>
       <path id="DejaVuSans-62" d="M 3116 1747 
Q 3116 2381 2855 2742 
Q 2594 3103 2138 3103 
Q 1681 3103 1420 2742 
Q 1159 2381 1159 1747 
Q 1159 1113 1420 752 
Q 1681 391 2138 391 
Q 2594 391 2855 752 
Q 3116 1113 3116 1747 
z
M 1159 2969 
Q 1341 3281 1617 3432 
Q 1894 3584 2278 3584 
Q 2916 3584 3314 3078 
Q 3713 2572 3713 1747 
Q 3713 922 3314 415 
Q 2916 -91 2278 -91 
Q 1894 -91 1617 61 
Q 1341 213 1159 525 
L 1159 0 
L 581 0 
L 581 4863 
L 1159 4863 
L 1159 2969 
z
" transform="scale(0.015625)"/>
       <path id="DejaVuSans-6a" d="M 603 3500 
L 1178 3500 
L 1178 -63 
Q 1178 -731 923 -1031 
Q 669 -1331 103 -1331 
L -116 -1331 
L -116 -844 
L 38 -844 
Q 366 -844 484 -692 
Q 603 -541 603 -63 
L 603 3500 
z
M 603 4863 
L 1178 4863 
L 1178 4134 
L 603 4134 
L 603 4863 
z
" transform="scale(0.015625)"/>
       <path id="DejaVuSans-65" d="M 3597 1894 
L 3597 1613 
L 953 1613 
Q 991 1019 1311 708 
Q 1631 397 2203 397 
Q 2534 397 2845 478 
Q 3156 559 3463 722 
L 3463 178 
Q 3153 47 2828 -22 
Q 2503 -91 2169 -91 
Q 1331 -91 842 396 
Q 353 884 353 1716 
Q 353 2575 817 3079 
Q 1281 3584 2069 3584 
Q 2775 3584 3186 3129 
Q 3597 2675 3597 1894 
z
M 3022 2063 
Q 3016 2534 2758 2815 
Q 2500 3097 2075 3097 
Q 1594 3097 1305 2825 
Q 1016 2553 972 2059 
L 3022 2063 
z
" transform="scale(0.015625)"/>
       <path id="DejaVuSans-63" d="M 3122 3366 
L 3122 2828 
Q 2878 2963 2633 3030 
Q 2388 3097 2138 3097 
Q 1578 3097 1268 2742 
Q 959 2388 959 1747 
Q 959 1106 1268 751 
Q 1578 397 2138 397 
Q 2388 397 2633 464 
Q 2878 531 3122 666 
L 3122 134 
Q 2881 22 2623 -34 
Q 2366 -91 2075 -91 
Q 1284 -91 818 406 
Q 353 903 353 1747 
Q 353 2603 823 3093 
Q 1294 3584 2113 3584 
Q 2378 3584 2631 3529 
Q 2884 3475 3122 3366 
z
" transform="scale(0.015625)"/>
       <path id="DejaVuSans-73" d="M 2834 3397 
L 2834 2853 
Q 2591 2978 2328 3040 
Q 2066 3103 1784 3103 
Q 1356 3103 1142 2972 
Q 928 2841 928 2578 
Q 928 2378 1081 2264 
Q 1234 2150 1697 2047 
L 1894 2003 
Q 2506 1872 2764 1633 
Q 3022 1394 3022 966 
Q 3022 478 2636 193 
Q 2250 -91 1575 -91 
Q 1294 -91 989 -36 
Q 684 19 347 128 
L 347 722 
Q 666 556 975 473 
Q 1284 391 1588 391 
Q 1994 391 2212 530 
Q 2431 669 2431 922 
Q 2431 1156 2273 1281 
Q 2116 1406 1581 1522 
L 1381 1569 
Q 847 1681 609 1914 
Q 372 2147 372 2553 
Q 372 3047 722 3315 
Q 1072 3584 1716 3584 
Q 2034 3584 2315 3537 
Q 2597 3491 2834 3397 
z
" transform="scale(0.015625)"/>
       <path id="DejaVuSans-69" d="M 603 3500 
L 1178 3500 
L 1178 0 
L 603 0 
L 603 3500 
z
M 603 4863 
L 1178 4863 
L 1178 4134 
L 603 4134 
L 603 4863 
z
" transform="scale(0.015625)"/>
       <path id="DejaVuSans-61" d="M 2194 1759 
Q 1497 1759 1228 1600 
Q 959 1441 959 1056 
Q 959 750 1161 570 
Q 1363 391 1709 391 
Q 2188 391 2477 730 
Q 2766 1069 2766 1631 
L 2766 1759 
L 2194 1759 
z
M 3341 1997 
L 3341 0 
L 2766 0 
L 2766 531 
Q 2569 213 2275 61 
Q 1981 -91 1556 -91 
Q 1019 -91 701 211 
Q 384 513 384 1019 
Q 384 1609 779 1909 
Q 1175 2209 1959 2209 
L 2766 2209 
L 2766 2266 
Q 2766 2663 2505 2880 
Q 2244 3097 1772 3097 
Q 1472 3097 1187 3025 
Q 903 2953 641 2809 
L 641 3341 
Q 956 3463 1253 3523 
Q 1550 3584 1831 3584 
Q 2591 3584 2966 3190 
Q 3341 2797 3341 1997 
z
" transform="scale(0.015625)"/>
       <path id="DejaVuSans-6c" d="M 603 4863 
L 1178 4863 
L 1178 0 
L 603 0 
L 603 4863 
z
" transform="scale(0.015625)"/>
      </defs>
      <use xlink:href="#DejaVuSans-41"/>
      <use xlink:href="#DejaVuSans-6d" transform="translate(68.408203 0)"/>
      <use xlink:href="#DejaVuSans-6f" transform="translate(165.820312 0)"/>
      <use xlink:href="#DejaVuSans-75" transform="translate(227.001953 0)"/>
      <use xlink:href="#DejaVuSans-6e" transform="translate(290.380859 0)"/>
      <use xlink:href="#DejaVuSans-74" transform="translate(353.759766 0)"/>
      <use xlink:href="#DejaVuSans-20" transform="translate(392.96875 0)"/>
      <use xlink:href="#DejaVuSans-6f" transform="translate(424.755859 0)"/>
      <use xlink:href="#DejaVuSans-66" transform="translate(485.9375 0)"/>
      <use xlink:href="#DejaVuSans-20" transform="translate(521.142578 0)"/>
      <use xlink:href="#DejaVuSans-6f" transform="translate(552.929688 0)"/>
      <use xlink:href="#DejaVuSans-62" transform="translate(614.111328 0)"/>
      <use xlink:href="#DejaVuSans-6a" transform="translate(677.587891 0)"/>
      <use xlink:href="#DejaVuSans-65" transform="translate(705.371094 0)"/>
      <use xlink:href="#DejaVuSans-63" transform="translate(766.894531 0)"/>
      <use xlink:href="#DejaVuSans-74" transform="translate(821.875 0)"/>
      <use xlink:href="#DejaVuSans-73" transform="translate(861.083984 0)"/>
      <use xlink:href="#DejaVuSans-20" transform="translate(913.183594 0)"/>
      <use xlink:href="#DejaVuSans-69" transform="translate(944.970703 0)"/>
      <use xlink:href="#DejaVuSans-6e" transform="translate(972.753906 0)"/>
      <use xlink:href="#DejaVuSans-20" transform="translate(1036.132812 0)"/>
      <use xlink:href="#DejaVuSans-74" transform="translate(1067.919922 0)"/>
      <use xlink:href="#DejaVuSans-61" transform="translate(1107.128906 0)"/>
      <use xlink:href="#DejaVuSans-62" transform="translate(1168.408203 0)"/>
      <use xlink:href="#DejaVuSans-6c" transform="translate(1231.884766 0)"/>
      <use xlink:href="#DejaVuSans-65" transform="translate(1259.667969 0)"/>
     </g>
    </g>
   </g>
   <g id="matplotlib.axis_2">
    <g id="ytick_1">
     <g id="line2d_10">
      <defs>
       <path id="m7f720e48cb" d="M 0 0 
L -3.5 0 
" style="stroke: #000000; stroke-width: 0.8"/>
      </defs>
      <g>
       <use xlink:href="#m7f720e48cb" x="61.715625" y="288.430125" style="stroke: #000000; stroke-width: 0.8"/>
      </g>
     </g>
     <g id="text_11">
      <!-- 0 -->
      <g transform="translate(48.353125 292.229344) scale(0.1 -0.1)">
       <use xlink:href="#DejaVuSans-30"/>
      </g>
     </g>
    </g>
    <g id="ytick_2">
     <g id="line2d_11">
      <g>
       <use xlink:href="#m7f720e48cb" x="61.715625" y="245.805201" style="stroke: #000000; stroke-width: 0.8"/>
      </g>
     </g>
     <g id="text_12">
      <!-- 100 µs -->
      <g transform="translate(20.878125 249.60442) scale(0.1 -0.1)">
       <defs>
        <path id="DejaVuSans-b5" d="M 544 -1331 
L 544 3500 
L 1119 3500 
L 1119 1325 
Q 1119 872 1334 640 
Q 1550 409 1972 409 
Q 2434 409 2667 671 
Q 2900 934 2900 1459 
L 2900 3500 
L 3475 3500 
L 3475 806 
Q 3475 619 3529 530 
Q 3584 441 3700 441 
Q 3728 441 3778 458 
Q 3828 475 3916 513 
L 3916 50 
Q 3788 -22 3673 -56 
Q 3559 -91 3450 -91 
Q 3234 -91 3106 31 
Q 2978 153 2931 403 
Q 2775 156 2548 32 
Q 2322 -91 2016 -91 
Q 1697 -91 1473 31 
Q 1250 153 1119 397 
L 1119 -1331 
L 544 -1331 
z
" transform="scale(0.015625)"/>
       </defs>
       <use xlink:href="#DejaVuSans-31"/>
       <use xlink:href="#DejaVuSans-30" transform="translate(63.623047 0)"/>
       <use xlink:href="#DejaVuSans-30" transform="translate(127.246094 0)"/>
       <use xlink:href="#DejaVuSans-20" transform="translate(190.869141 0)"/>
       <use xlink:href="#DejaVuSans-b5" transform="translate(222.65625 0)"/>
       <use xlink:href="#DejaVuSans-73" transform="translate(286.279297 0)"/>
      </g>
     </g>
    </g>
    <g id="ytick_3">
     <g id="line2d_12">
      <g>
       <use xlink:href="#m7f720e48cb" x="61.715625" y="203.180277" style="stroke: #000000; stroke-width: 0.8"/>
      </g>
     </g>
     <g id="text_13">
      <!-- 200 µs -->
      <g transform="translate(20.878125 206.979495) scale(0.1 -0.1)">
       <use xlink:href="#DejaVuSans-32"/>
       <use xlink:href="#DejaVuSans-30" transform="translate(63.623047 0)"/>
       <use xlink:href="#DejaVuSans-30" transform="translate(127.246094 0)"/>
       <use xlink:href="#DejaVuSans-20" transform="translate(190.869141 0)"/>
       <use xlink:href="#DejaVuSans-b5" transform="translate(222.65625 0)"/>
       <use xlink:href="#DejaVuSans-73" transform="translate(286.279297 0)"/>
      </g>
     </g>
    </g>
    <g id="ytick_4">
     <g id="line2d_13">
      <g>
       <use xlink:href="#m7f720e48cb" x="61.715625" y="160.555352" style="stroke: #000000; stroke-width: 0.8"/>
      </g>
     </g>
     <g id="text_14">
      <!-- 300 µs -->
      <g transform="translate(20.878125 164.354571) scale(0.1 -0.1)">
       <use xlink:href="#DejaVuSans-33"/>
       <use xlink:href="#DejaVuSans-30" transform="translate(63.623047 0)"/>
       <use xlink:href="#DejaVuSans-30" transform="translate(127.246094 0)"/>
       <use xlink:href="#DejaVuSans-20" transform="translate(190.869141 0)"/>
       <use xlink:href="#DejaVuSans-b5" transform="translate(222.65625 0)"/>
       <use xlink:href="#DejaVuSans-73" transform="translate(286.279297 0)"/>
      </g>
     </g>
    </g>
    <g id="ytick_5">
     <g id="line2d_14">
      <g>
       <use xlink:href="#m7f720e48cb" x="61.715625" y="117.930428" style="stroke: #000000; stroke-width: 0.8"/>
      </g>
     </g>
     <g id="text_15">
      <!-- 400 µs -->
      <g transform="translate(20.878125 121.729647) scale(0.1 -0.1)">
       <use xlink:href="#DejaVuSans-34"/>
       <use xlink:href="#DejaVuSans-30" transform="translate(63.623047 0)"/>
       <use xlink:href="#DejaVuSans-30" transform="translate(127.246094 0)"/>
       <use xlink:href="#DejaVuSans-20" transform="translate(190.869141 0)"/>
       <use xlink:href="#DejaVuSans-b5" transform="translate(222.65625 0)"/>
       <use xlink:href="#DejaVuSans-73" transform="translate(286.279297 0)"/>
      </g>
     </g>
    </g>
    <g id="ytick_6">
     <g id="line2d_15">
      <g>
       <use xlink:href="#m7f720e48cb" x="61.715625" y="75.305504" style="stroke: #000000; stroke-width: 0.8"/>
      </g>
     </g>
     <g id="text_16">
      <!-- 500 µs -->
      <g transform="translate(20.878125 79.104723) scale(0.1 -0.1)">
       <use xlink:href="#DejaVuSans-35"/>
       <use xlink:href="#DejaVuSans-30" transform="translate(63.623047 0)"/>
       <use xlink:href="#DejaVuSans-30" transform="translate(127.246094 0)"/>
       <use xlink:href="#DejaVuSans-20" transform="translate(190.869141 0)"/>
       <use xlink:href="#DejaVuSans-b5" transform="translate(222.65625 0)"/>
       <use xlink:href="#DejaVuSans-73" transform="translate(286.279297 0)"/>
      </g>
     </g>
    </g>
    <g id="ytick_7">
     <g id="line2d_16">
      <g>
       <use xlink:href="#m7f720e48cb" x="61.715625" y="32.68058" style="stroke: #000000; stroke-width: 0.8"/>
      </g>
     </g>
     <g id="text_17">
      <!-- 600 µs -->
      <g transform="translate(20.878125 36.479798) scale(0.1 -0.1)">
       <defs>
        <path id="DejaVuSans-36" d="M 2113 2584 
Q 1688 2584 1439 2293 
Q 1191 2003 1191 1497 
Q 1191 994 1439 701 
Q 1688 409 2113 409 
Q 2538 409 2786 701 
Q 3034 994 3034 1497 
Q 3034 2003 2786 2293 
Q 2538 2584 2113 2584 
z
M 3366 4563 
L 3366 3988 
Q 3128 4100 2886 4159 
Q 2644 4219 2406 4219 
Q 1781 4219 1451 3797 
Q 1122 3375 1075 2522 
Q 1259 2794 1537 2939 
Q 1816 3084 2150 3084 
Q 2853 3084 3261 2657 
Q 3669 2231 3669 1497 
Q 3669 778 3244 343 
Q 2819 -91 2113 -91 
Q 1303 -91 875 529 
Q 447 1150 447 2328 
Q 447 3434 972 4092 
Q 1497 4750 2381 4750 
Q 2619 4750 2861 4703 
Q 3103 4656 3366 4563 
z
" transform="scale(0.015625)"/>
       </defs>
       <use xlink:href="#DejaVuSans-36"/>
       <use xlink:href="#DejaVuSans-30" transform="translate(63.623047 0)"/>
       <use xlink:href="#DejaVuSans-30" transform="translate(127.246094 0)"/>
       <use xlink:href="#DejaVuSans-20" transform="translate(190.869141 0)"/>
       <use xlink:href="#DejaVuSans-b5" transform="translate(222.65625 0)"/>
       <use xlink:href="#DejaVuSans-73" transform="translate(286.279297 0)"/>
      </g>
     </g>
    </g>
    <g id="text_18">
     <!-- Read latency (s) -->
     <g transform="translate(14.798438 195.98975) rotate(-90) scale(0.1 -0.1)">
      <defs>
       <path id="DejaVuSans-52" d="M 2841 2188 
Q 3044 2119 3236 1894 
Q 3428 1669 3622 1275 
L 4263 0 
L 3584 0 
L 2988 1197 
Q 2756 1666 2539 1819 
Q 2322 1972 1947 1972 
L 1259 1972 
L 1259 0 
L 628 0 
L 628 4666 
L 2053 4666 
Q 2853 4666 3247 4331 
Q 3641 3997 3641 3322 
Q 3641 2881 3436 2590 
Q 3231 2300 2841 2188 
z
M 1259 4147 
L 1259 2491 
L 2053 2491 
Q 2509 2491 2742 2702 
Q 2975 2913 2975 3322 
Q 2975 3731 2742 3939 
Q 2509 4147 2053 4147 
L 1259 4147 
z
" transform="scale(0.015625)"/>
       <path id="DejaVuSans-64" d="M 2906 2969 
L 2906 4863 
L 3481 4863 
L 3481 0 
L 2906 0 
L 2906 525 
Q 2725 213 2448 61 
Q 2172 -91 1784 -91 
Q 1150 -91 751 415 
Q 353 922 353 1747 
Q 353 2572 751 3078 
Q 1150 3584 1784 3584 
Q 2172 3584 2448 3432 
Q 2725 3281 2906 2969 
z
M 947 1747 
Q 947 1113 1208 752 
Q 1469 391 1925 391 
Q 2381 391 2643 752 
Q 2906 1113 2906 1747 
Q 2906 2381 2643 2742 
Q 2381 3103 1925 3103 
Q 1469 3103 1208 2742 
Q 947 2381 947 1747 
z
" transform="scale(0.015625)"/>
       <path id="DejaVuSans-79" d="M 2059 -325 
Q 1816 -950 1584 -1140 
Q 1353 -1331 966 -1331 
L 506 -1331 
L 506 -850 
L 844 -850 
Q 1081 -850 1212 -737 
Q 1344 -625 1503 -206 
L 1606 56 
L 191 3500 
L 800 3500 
L 1894 763 
L 2988 3500 
L 3597 3500 
L 2059 -325 
z
" transform="scale(0.015625)"/>
       <path id="DejaVuSans-28" d="M 1984 4856 
Q 1566 4138 1362 3434 
Q 1159 2731 1159 2009 
Q 1159 1288 1364 580 
Q 1569 -128 1984 -844 
L 1484 -844 
Q 1016 -109 783 600 
Q 550 1309 550 2009 
Q 550 2706 781 3412 
Q 1013 4119 1484 4856 
L 1984 4856 
z
" transform="scale(0.015625)"/>
       <path id="DejaVuSans-29" d="M 513 4856 
L 1013 4856 
Q 1481 4119 1714 3412 
Q 1947 2706 1947 2009 
Q 1947 1309 1714 600 
Q 1481 -109 1013 -844 
L 513 -844 
Q 928 -128 1133 580 
Q 1338 1288 1338 2009 
Q 1338 2731 1133 3434 
Q 928 4138 513 4856 
z
" transform="scale(0.015625)"/>
      </defs>
      <use xlink:href="#DejaVuSans-52"/>
      <use xlink:href="#DejaVuSans-65" transform="translate(64.982422 0)"/>
      <use xlink:href="#DejaVuSans-61" transform="translate(126.505859 0)"/>
      <use xlink:href="#DejaVuSans-64" transform="translate(187.785156 0)"/>
      <use xlink:href="#DejaVuSans-20" transform="translate(251.261719 0)"/>
      <use xlink:href="#DejaVuSans-6c" transform="translate(283.048828 0)"/>
      <use xlink:href="#DejaVuSans-61" transform="translate(310.832031 0)"/>
      <use xlink:href="#DejaVuSans-74" transform="translate(372.111328 0)"/>
      <use xlink:href="#DejaVuSans-65" transform="translate(411.320312 0)"/>
      <use xlink:href="#DejaVuSans-6e" transform="translate(472.84375 0)"/>
      <use xlink:href="#DejaVuSans-63" transform="translate(536.222656 0)"/>
      <use xlink:href="#DejaVuSans-79" transform="translate(591.203125 0)"/>
      <use xlink:href="#DejaVuSans-20" transform="translate(650.382812 0)"/>
      <use xlink:href="#DejaVuSans-28" transform="translate(682.169922 0)"/>
      <use xlink:href="#DejaVuSans-73" transform="translate(721.183594 0)"/>
      <use xlink:href="#DejaVuSans-29" transform="translate(773.283203 0)"/>
     </g>
    </g>
   </g>
   <g id="line2d_17">
    <path d="M 146.635325 85.872829 
L 147.070811 87.879286 
L 147.941782 89.044074 
L 149.248239 90.419409 
L 149.683725 91.642566 
L 150.11921 91.723866 
L 150.990181 93.477562 
L 151.425667 93.764198 
L 152.732124 96.737403 
L 153.16761 97.055309 
L 153.603095 97.555099 
L 154.474067 99.489115 
L 154.909552 99.743961 
L 155.345038 100.150985 
L 155.780523 100.088446 
L 156.216009 99.815881 
L 157.957952 98.062707 
L 158.393437 98.005379 
L 158.828923 97.467023 
L 159.699894 96.993812 
L 160.570866 95.875929 
L 161.441837 95.57001 
L 161.877322 95.237511 
L 162.312808 94.63401 
L 163.183779 94.207182 
L 164.054751 93.693321 
L 164.490236 93.103371 
L 164.925722 91.979233 
L 165.361208 91.824971 
L 165.796693 90.456932 
L 166.667665 90.425141 
L 167.974121 90.539275 
L 168.409607 90.202086 
L 168.845093 89.564189 
L 169.280578 89.323414 
L 169.716064 89.452661 
L 170.15155 89.014889 
L 171.458007 88.2097 
L 171.893492 87.854271 
L 172.328978 87.873032 
L 172.764463 87.650498 
L 173.199949 86.737951 
L 173.635435 86.230865 
L 174.07092 86.203243 
L 174.506406 85.912959 
L 174.941892 85.08953 
L 175.377377 84.798724 
L 175.812863 83.242026 
L 176.248349 82.673964 
L 176.683834 82.350846 
L 177.11932 82.22629 
L 177.554806 81.670214 
L 177.990291 81.331462 
L 178.425777 79.443308 
L 178.861262 79.335949 
L 179.296748 78.703264 
L 179.732234 78.294155 
L 180.603205 77.987714 
L 181.474176 77.596325 
L 181.909662 75.989596 
L 182.345148 75.345966 
L 182.780633 74.131148 
L 183.216119 73.859625 
L 183.651605 73.804382 
L 184.08709 72.872031 
L 184.522576 73.031505 
L 184.958061 72.738615 
L 185.829033 71.85838 
L 186.264518 71.549854 
L 186.700004 71.576954 
L 187.13549 71.387253 
L 187.570975 70.911436 
L 188.006461 69.779482 
L 188.441947 71.577997 
L 188.877432 71.353899 
L 189.312918 70.803556 
L 189.748403 70.539851 
L 190.183889 70.498158 
L 191.490346 69.635121 
L 191.925832 68.184218 
L 192.361317 67.884031 
L 192.796803 67.282094 
L 193.667774 67.142945 
L 194.10326 66.749992 
L 194.538746 65.380911 
L 194.974231 65.204239 
L 195.409717 64.25938 
L 195.845202 63.853919 
L 196.280688 64.180164 
L 197.151659 63.941995 
L 197.587145 63.760632 
L 198.022631 63.892485 
L 198.458116 63.737701 
L 198.893602 64.387064 
L 199.329088 62.32797 
L 199.764573 62.29201 
L 200.200059 61.690073 
L 200.635545 62.740727 
L 201.07103 60.195393 
L 201.506516 60.137023 
L 201.942001 59.632021 
L 202.377487 59.408966 
L 202.812973 60.843713 
L 203.248458 60.968791 
L 203.683944 60.945339 
L 204.11943 61.217383 
L 205.425887 60.832247 
L 205.861372 59.32506 
L 206.732343 58.985265 
L 207.167829 58.885724 
L 207.603315 58.603256 
L 208.0388 58.124312 
L 208.474286 57.975782 
L 208.909772 57.660482 
L 209.345257 57.019458 
L 209.780743 56.713018 
L 210.216229 57.168509 
L 211.0872 56.710412 
L 211.522686 56.06574 
L 211.958171 56.260653 
L 212.393657 54.855612 
L 212.829142 54.825906 
L 213.264628 54.672685 
L 213.700114 55.430449 
L 214.135599 54.66591 
L 214.571085 54.141626 
L 215.006571 52.572941 
L 215.442056 52.105984 
L 215.877542 53.417738 
L 216.748513 52.882509 
L 217.619485 52.578153 
L 218.925941 51.685931 
L 219.361427 51.315909 
L 219.796913 51.180408 
L 220.667884 50.11881 
L 221.10337 50.082329 
L 221.538855 49.824877 
L 221.974341 49.934841 
L 222.409827 49.727942 
L 223.280798 49.890022 
L 223.716283 49.455897 
L 224.151769 50.860417 
L 224.587255 50.985495 
L 225.02274 50.87501 
L 225.458226 50.498734 
L 225.893712 51.408154 
L 226.329197 51.719285 
L 226.764683 51.747428 
L 227.635654 51.427958 
L 228.506626 51.503005 
L 228.942111 52.33373 
L 230.248568 52.496852 
L 231.119539 52.080968 
L 231.990511 52.129957 
L 233.296968 52.268585 
L 233.732453 52.247739 
L 234.167939 52.427538 
L 234.603425 52.234189 
L 235.03891 52.492162 
L 235.474396 52.458287 
L 236.345367 53.061787 
L 236.780853 51.659873 
L 237.651824 51.273695 
L 238.08731 50.485184 
L 238.522795 50.338738 
L 239.393767 47.562532 
L 240.264738 47.141958 
L 240.700224 46.103812 
L 241.135709 46.130912 
L 241.571195 44.871795 
L 242.00668 44.800917 
L 242.442166 45.021888 
L 242.877652 44.852512 
L 243.313137 44.487181 
L 243.748623 44.415782 
L 244.184109 44.18543 
L 244.619594 43.828437 
L 245.05508 43.751306 
L 245.926051 41.936635 
L 246.361537 41.496778 
L 246.797022 41.250792 
L 247.232508 41.220565 
L 247.667994 40.204307 
L 248.103479 39.750379 
L 248.538965 39.542437 
L 248.974451 39.132807 
L 249.409936 39.248504 
L 249.845422 40.216815 
L 250.280908 39.401724 
L 250.716393 40.143853 
L 251.587365 39.472081 
L 252.02285 38.3641 
L 252.893821 37.808024 
L 253.329307 37.781966 
L 253.764793 37.93675 
L 254.200278 37.431227 
L 254.635764 37.190974 
L 255.07125 37.326475 
L 255.506735 37.239963 
L 255.942221 36.122601 
L 256.377707 35.668672 
L 256.813192 35.47845 
L 257.248678 35.135007 
L 257.684164 35.035466 
L 258.119649 35.707759 
L 259.426106 36.184618 
L 259.861592 36.644279 
L 260.297077 35.44249 
L 260.732563 35.927688 
L 261.168049 35.201194 
L 262.03902 34.990125 
L 262.909991 35.197025 
L 263.345477 36.820952 
L 263.780962 37.169085 
L 264.216448 37.289994 
L 264.651934 37.108631 
L 265.522905 37.048698 
L 265.958391 37.176381 
L 266.393876 37.04088 
L 266.829362 38.206189 
L 267.264848 38.678879 
L 267.700333 39.754548 
L 268.571305 40.069327 
L 269.00679 40.609768 
L 269.442276 40.667095 
L 269.877761 39.659697 
L 270.313247 39.487715 
L 270.748733 39.057239 
L 271.619704 39.03952 
L 272.05519 38.920696 
L 272.490675 39.148442 
L 272.926161 40.090695 
L 273.361647 40.478957 
L 273.797132 40.303327 
L 274.668104 41.0293 
L 275.103589 41.125714 
L 275.539075 41.414435 
L 275.97456 41.549415 
L 276.410046 41.411308 
L 276.845532 42.571926 
L 277.281017 42.74026 
L 277.716503 43.243177 
L 278.151989 43.211908 
L 278.587474 41.963214 
L 279.02296 41.732862 
L 279.458446 42.895565 
L 279.893931 42.74026 
L 280.329417 43.662709 
L 280.764902 43.739841 
L 281.200388 43.940486 
L 282.071359 43.729417 
L 282.506845 42.889311 
L 282.942331 42.858563 
L 283.377816 43.005529 
L 283.813302 43.954036 
L 284.248788 45.75203 
L 284.684273 45.591514 
L 285.119759 46.022511 
L 285.555245 46.123616 
L 285.99073 48.487065 
L 286.426216 48.549604 
L 286.861701 48.728883 
L 287.297187 48.698134 
L 288.168158 48.280166 
L 289.03913 48.603805 
L 289.474615 48.098803 
L 289.910101 47.867409 
L 290.345587 48.039912 
L 290.781072 49.307368 
L 291.216558 49.358441 
L 291.652044 47.287882 
L 292.087529 46.856884 
L 292.523015 45.583175 
L 292.9585 45.75203 
L 293.393986 46.10329 
L 293.829472 46.270061 
L 294.264957 46.623406 
L 295.571414 46.786528 
L 296.0069 46.749005 
L 296.442386 47.307686 
L 296.877871 47.244626 
L 297.313357 48.496446 
L 297.748842 48.597551 
L 298.184328 49.103074 
L 298.619814 49.304241 
L 299.055299 50.479451 
L 299.490785 51.028751 
L 299.926271 52.402523 
L 300.361756 52.609943 
L 300.797242 52.553658 
L 301.232728 52.380113 
L 301.668213 52.406171 
L 302.103699 52.208652 
L 303.410156 52.692286 
L 303.845641 52.756389 
L 304.716613 53.272335 
L 305.152098 53.148299 
L 306.02307 53.340085 
L 306.458555 52.533854 
L 306.894041 52.664665 
L 307.329527 53.055012 
L 307.765012 53.017489 
L 308.200498 53.105564 
L 309.071469 53.721052 
L 309.506955 53.817987 
L 309.94244 54.132245 
L 310.377926 54.267225 
L 310.813412 54.55751 
L 311.684383 54.608583 
L 312.119869 54.642458 
L 312.555354 54.444939 
L 312.99084 55.278792 
L 313.426326 55.076061 
L 314.297297 55.459112 
L 314.732782 55.222507 
L 315.168268 54.379795 
L 316.039239 55.038017 
L 316.474725 55.178208 
L 316.910211 54.991113 
L 317.781182 55.035411 
L 318.216668 54.941603 
L 318.652153 54.663305 
L 319.523125 54.851442 
L 320.394096 55.371037 
L 320.829581 55.266805 
L 321.265067 55.362698 
L 321.700553 56.945454 
L 322.136038 57.319645 
L 322.571524 57.369155 
L 323.00701 58.439092 
L 323.442495 57.125774 
L 323.877981 58.582931 
L 324.313467 58.226459 
L 324.748952 58.77159 
L 325.184438 58.908655 
L 326.055409 58.840904 
L 326.490895 60.321513 
L 326.92638 60.377277 
L 327.361866 60.245424 
L 328.232837 60.738439 
L 329.539294 61.07198 
L 329.97478 61.538937 
L 330.410266 62.812125 
L 330.845751 63.451065 
L 331.281237 63.712686 
L 332.152208 63.507871 
L 332.587694 64.60595 
L 333.023179 64.639304 
L 333.458665 64.896235 
L 333.894151 65.375179 
L 334.765122 65.34443 
L 335.200608 66.224144 
L 336.507065 66.953765 
L 336.94255 67.980967 
L 337.378036 68.053408 
L 337.813521 68.328058 
L 338.249007 68.322846 
L 339.555464 68.875794 
L 339.99095 68.718405 
L 340.426435 68.866414 
L 340.861921 70.24227 
L 342.603864 71.15638 
L 343.474835 71.105828 
L 343.91032 70.694113 
L 344.345806 69.674729 
L 344.781292 69.612711 
L 345.216777 71.004723 
L 346.087749 72.716205 
L 346.95872 73.07424 
L 347.394206 73.487518 
L 347.829691 73.373906 
L 348.265177 73.431233 
L 348.700662 73.046098 
L 349.136148 73.324917 
L 349.571634 72.921541 
L 350.442605 73.139906 
L 350.878091 73.378075 
L 351.749062 73.472926 
L 352.184548 73.192022 
L 352.620033 73.122187 
L 353.491005 72.742784 
L 353.92649 72.888187 
L 354.361976 72.887666 
L 354.797461 73.971153 
L 355.232947 74.154079 
L 355.668433 74.603838 
L 356.103918 74.708591 
L 356.539404 73.199318 
L 356.97489 73.320227 
L 357.410375 73.266026 
L 358.281347 72.911639 
L 359.152318 72.913203 
L 360.023289 72.580183 
L 360.458775 72.373804 
L 360.89426 71.915186 
L 361.765232 72.471782 
L 363.071689 72.531194 
L 363.507174 73.471884 
L 363.94266 73.975322 
L 364.378146 74.225478 
L 364.813631 73.364004 
L 365.249117 73.319184 
L 366.120088 73.704841 
L 366.555574 73.602694 
L 366.991059 73.672008 
L 367.426545 74.378177 
L 368.297516 74.106132 
L 369.168488 74.236943 
L 370.039459 74.399023 
L 370.474945 74.66325 
L 371.781401 74.385994 
L 372.216887 74.525143 
L 372.652373 74.932688 
L 373.087858 73.664712 
L 373.523344 73.264463 
L 373.95883 73.143033 
L 374.829801 73.675135 
L 375.265287 69.988987 
L 375.700772 69.836809 
L 376.136258 69.809709 
L 376.571744 71.907368 
L 377.007229 72.197653 
L 377.442715 73.724645 
L 377.8782 72.163778 
L 378.313686 71.88548 
L 378.749172 70.570599 
L 379.184657 70.564866 
L 379.620143 70.776456 
L 380.055629 70.251651 
L 380.9266 70.273018 
L 381.362086 69.880586 
L 382.233057 69.697139 
L 382.668543 69.963972 
L 383.104028 69.151487 
L 383.539514 68.940418 
L 383.974999 67.664103 
L 384.845971 67.424892 
L 385.281456 67.812633 
L 385.716942 67.739671 
L 386.152428 68.138356 
L 386.587913 68.354637 
L 387.023399 68.798142 
L 387.89437 68.871625 
L 388.329856 68.763746 
L 388.765341 68.922699 
L 389.200827 68.86485 
L 389.636313 68.607398 
L 390.071798 68.976378 
L 390.507284 68.957616 
L 390.94277 69.059242 
L 391.378255 69.992635 
L 391.813741 70.058301 
L 392.249227 69.862867 
L 392.684712 70.078626 
L 393.120198 69.991072 
L 393.555684 68.862765 
L 394.426655 68.47763 
L 395.297626 68.63502 
L 396.168597 68.437501 
L 396.604083 68.48232 
L 397.039569 68.654302 
L 397.91054 69.501705 
L 398.781511 69.677856 
L 399.216997 69.502226 
L 399.652483 69.475126 
L 400.087968 70.382461 
L 400.523454 70.263637 
L 401.394425 69.789905 
L 401.829911 69.970747 
L 401.829911 69.970747 
" clip-path="url(#p0840371c9d)" style="fill: none; stroke: #1f77b4; stroke-opacity: 0.8; stroke-width: 1.5; stroke-linecap: square"/>
   </g>
   <g id="line2d_18">
    <path d="M 146.635325 141.720082 
L 147.070811 142.03903 
L 147.506296 142.009845 
L 148.377268 142.368402 
L 149.683725 142.410094 
L 151.425667 143.003172 
L 152.296638 143.439902 
L 153.603095 143.906859 
L 154.038581 143.617617 
L 154.909552 143.876111 
L 155.345038 143.813051 
L 155.780523 143.584262 
L 156.216009 143.682761 
L 157.08698 143.439381 
L 157.522466 141.826398 
L 157.957952 141.735716 
L 159.264409 142.239676 
L 160.13538 142.623769 
L 161.006351 142.27303 
L 161.877322 141.912389 
L 162.312808 141.970237 
L 162.748294 141.773761 
L 163.619265 141.975449 
L 164.490236 142.342344 
L 164.925722 143.268441 
L 167.10315 142.52058 
L 167.538636 142.427814 
L 168.409607 141.700799 
L 168.845093 140.247811 
L 169.280578 139.773558 
L 170.587035 139.503077 
L 171.893492 139.355068 
L 172.328978 138.916775 
L 172.764463 138.861532 
L 174.506406 137.565934 
L 175.377377 137.849444 
L 176.683834 137.506001 
L 177.11932 137.718633 
L 177.554806 137.545088 
L 177.990291 137.139627 
L 178.425777 137.35695 
L 178.861262 137.264705 
L 179.296748 137.544045 
L 179.732234 137.441899 
L 180.167719 135.333816 
L 181.038691 135.11493 
L 181.474176 135.073758 
L 181.909662 134.729273 
L 182.780633 134.617224 
L 183.216119 134.348828 
L 186.264518 133.705198 
L 186.700004 133.990272 
L 187.13549 134.011639 
L 188.441947 134.501527 
L 188.877432 134.456708 
L 189.312918 133.281497 
L 190.619375 133.149644 
L 191.05486 133.21531 
L 193.232289 131.460572 
L 193.667774 130.927949 
L 194.10326 128.833417 
L 194.538746 128.539484 
L 194.974231 128.904294 
L 195.409717 128.277342 
L 196.716174 127.715534 
L 198.022631 126.567423 
L 198.458116 126.19219 
L 198.893602 126.045223 
L 200.200059 125.032093 
L 201.506516 123.744312 
L 201.942001 122.731703 
L 202.377487 122.43308 
L 203.248458 121.031687 
L 203.683944 120.877424 
L 204.11943 119.112263 
L 204.554915 119.239947 
L 204.990401 118.42642 
L 205.861372 118.112162 
L 206.296858 117.72859 
L 206.732343 117.571721 
L 208.909772 116.082774 
L 209.345257 115.561095 
L 209.780743 115.58142 
L 210.216229 114.786134 
L 211.0872 114.346277 
L 211.522686 114.769978 
L 212.393657 114.235791 
L 212.829142 114.494807 
L 213.700114 114.600602 
L 214.135599 114.442691 
L 216.748513 114.776753 
L 219.361427 112.857851 
L 219.796913 112.794269 
L 220.232398 112.441446 
L 220.667884 112.630105 
L 221.10337 112.559227 
L 221.974341 112.79896 
L 222.409827 112.580074 
L 223.716283 111.533068 
L 224.151769 111.505968 
L 225.02274 110.674721 
L 225.458226 109.414562 
L 225.893712 109.5485 
L 226.329197 109.298865 
L 226.764683 108.823048 
L 227.200169 109.023173 
L 227.635654 108.559864 
L 228.07114 108.459801 
L 228.506626 107.870893 
L 228.942111 108.134078 
L 229.377597 108.227886 
L 229.813082 108.12626 
L 230.248568 108.213815 
L 230.684054 108.05851 
L 231.119539 107.59051 
L 231.990511 107.110003 
L 232.861482 106.71705 
L 234.167939 106.040588 
L 234.603425 105.474089 
L 235.474396 104.88935 
L 236.345367 104.12377 
L 237.216338 103.400924 
L 237.651824 102.725504 
L 238.08731 102.725504 
L 238.522795 101.258966 
L 238.958281 101.402806 
L 239.829252 100.5356 
L 240.264738 100.48609 
L 240.700224 99.656928 
L 241.135709 99.407293 
L 241.571195 99.439084 
L 242.00668 99.684549 
L 242.442166 100.352152 
L 242.877652 100.339123 
L 245.05508 98.97369 
L 245.490566 99.26189 
L 246.361537 98.942942 
L 247.232508 98.82516 
L 247.667994 98.617218 
L 248.103479 98.716759 
L 248.538965 98.597935 
L 248.974451 98.348822 
L 249.409936 98.358724 
L 249.845422 98.234167 
L 250.280908 97.784408 
L 250.716393 96.826521 
L 252.893821 95.780557 
L 253.329307 95.864464 
L 253.764793 96.975572 
L 254.200278 97.100128 
L 254.635764 96.858832 
L 255.07125 96.809844 
L 255.942221 96.367381 
L 256.813192 95.184353 
L 257.248678 95.26878 
L 257.684164 94.941493 
L 258.555135 94.86801 
L 259.426106 94.898759 
L 259.861592 94.835177 
L 260.732563 94.510496 
L 261.603534 94.497988 
L 262.474506 94.001325 
L 264.216448 94.236888 
L 264.651934 93.952857 
L 265.087419 95.723751 
L 266.393876 95.17862 
L 267.700333 94.972763 
L 268.571305 95.427212 
L 269.442276 95.416268 
L 270.313247 95.082206 
L 271.184218 94.62463 
L 272.05519 94.42659 
L 272.490675 93.165388 
L 272.926161 92.95901 
L 273.361647 92.514984 
L 273.797132 92.38261 
L 274.232618 93.551566 
L 274.668104 93.505704 
L 275.539075 93.777748 
L 275.97456 92.649963 
L 276.410046 92.406062 
L 276.845532 92.726574 
L 278.151989 92.817776 
L 278.587474 92.459741 
L 279.02296 94.101909 
L 279.893931 93.509352 
L 280.329417 93.748564 
L 281.635874 93.561989 
L 282.071359 93.71104 
L 282.942331 92.970475 
L 283.377816 93.103371 
L 283.813302 93.065847 
L 284.248788 92.855821 
L 285.99073 92.757843 
L 286.426216 92.781295 
L 286.861701 93.59378 
L 287.297187 93.664657 
L 287.732673 93.516649 
L 288.168158 93.960675 
L 288.603644 93.196658 
L 289.03913 94.515187 
L 289.474615 94.294216 
L 289.910101 94.844558 
L 290.781072 93.668305 
L 292.087529 92.81517 
L 293.829472 92.624427 
L 294.700443 92.662992 
L 295.135929 93.193531 
L 296.0069 93.191446 
L 297.748842 93.01738 
L 298.184328 93.172163 
L 298.619814 93.119526 
L 299.055299 93.303495 
L 300.797242 93.240956 
L 301.232728 93.397825 
L 301.668213 93.213335 
L 302.97467 93.682898 
L 303.410156 94.155067 
L 303.845641 94.260862 
L 304.281127 94.040933 
L 304.716613 93.545833 
L 305.152098 93.479125 
L 305.587584 93.573455 
L 306.458555 92.79693 
L 306.894041 92.827157 
L 307.765012 92.494137 
L 309.071469 92.235122 
L 309.506955 92.053238 
L 309.94244 92.284111 
L 310.377926 93.50831 
L 310.813412 93.381669 
L 311.684383 93.509352 
L 312.119869 92.841228 
L 312.555354 92.715629 
L 312.99084 92.028222 
L 313.426326 92.472249 
L 313.861811 92.47277 
L 314.732782 92.015193 
L 315.168268 92.222093 
L 317.345696 91.287657 
L 317.781182 91.151635 
L 318.216668 90.847279 
L 318.652153 90.737315 
L 319.087639 89.198858 
L 319.523125 89.658519 
L 319.95861 89.891476 
L 320.394096 89.851868 
L 321.265067 90.330291 
L 322.136038 90.319868 
L 322.571524 90.620576 
L 323.00701 90.210946 
L 323.442495 91.299644 
L 324.313467 91.362183 
L 324.748952 91.522178 
L 325.184438 91.467978 
L 325.619924 92.246066 
L 326.490895 92.20281 
L 326.92638 91.917737 
L 327.361866 90.855618 
L 327.797352 90.796727 
L 328.232837 90.888451 
L 328.668323 90.707609 
L 329.539294 91.184468 
L 329.97478 91.287657 
L 330.410266 91.032811 
L 331.716722 91.908356 
L 332.152208 91.610775 
L 332.587694 91.762953 
L 333.023179 91.258994 
L 333.458665 90.976526 
L 333.894151 91.019261 
L 334.765122 90.558558 
L 335.636093 91.596183 
L 336.071579 91.424722 
L 336.94255 91.753572 
L 337.813521 92.534266 
L 338.249007 92.195514 
L 338.684493 92.370102 
L 339.119978 92.239812 
L 339.555464 92.276815 
L 339.99095 91.423679 
L 340.426435 91.458597 
L 340.861921 91.661848 
L 341.732892 92.848524 
L 342.603864 93.18415 
L 343.039349 92.896471 
L 344.345806 92.937121 
L 345.216777 93.205517 
L 346.087749 93.541664 
L 346.523234 93.452025 
L 346.95872 93.57606 
L 348.265177 93.50831 
L 349.136148 93.664136 
L 350.007119 93.635994 
L 350.442605 93.831428 
L 350.878091 93.735014 
L 351.313576 93.317566 
L 351.749062 93.332159 
L 353.055519 91.591492 
L 354.361976 91.203751 
L 354.797461 91.42837 
L 355.232947 91.490909 
L 355.668433 91.670708 
L 356.539404 91.224076 
L 356.97489 91.260557 
L 357.410375 92.501433 
L 357.845861 92.588467 
L 358.281347 93.06272 
L 359.152318 93.115357 
L 359.587804 92.845919 
L 360.023289 92.4415 
L 360.458775 92.273166 
L 361.329746 92.812043 
L 361.765232 92.431598 
L 362.200717 92.536351 
L 362.636203 92.28359 
L 363.071689 92.371144 
L 363.507174 92.928262 
L 363.94266 93.098159 
L 365.249117 87.480601 
L 365.684603 87.024067 
L 366.120088 86.973514 
L 366.991059 85.861364 
L 367.426545 86.171974 
L 367.862031 86.73743 
L 368.733002 86.562321 
L 369.168488 86.811434 
L 370.039459 86.859902 
L 370.474945 87.205951 
L 370.91043 87.144975 
L 372.216887 86.571702 
L 372.652373 87.048561 
L 373.087858 87.080873 
L 373.523344 87.78183 
L 373.95883 88.075763 
L 374.829801 88.326961 
L 376.136258 89.465169 
L 376.571744 89.56002 
L 377.007229 89.792977 
L 378.749172 89.93838 
L 379.184657 90.189057 
L 380.055629 90.220848 
L 380.491114 89.719494 
L 381.797571 90.043133 
L 382.233057 88.593794 
L 382.668543 89.00186 
L 383.104028 89.065441 
L 383.539514 89.345824 
L 383.974999 88.579201 
L 384.410485 88.648515 
L 384.845971 88.390542 
L 385.281456 88.279535 
L 385.716942 88.47497 
L 386.152428 88.199798 
L 386.587913 88.360315 
L 387.023399 88.229504 
L 387.89437 88.309763 
L 388.329856 87.872511 
L 388.765341 87.777661 
L 389.636313 88.582328 
L 390.071798 88.301424 
L 390.507284 88.436404 
L 390.94277 87.988208 
L 391.813741 87.774013 
L 392.249227 87.926191 
L 393.120198 88.022605 
L 393.555684 88.280057 
L 393.991169 88.402529 
L 394.426655 89.005508 
L 394.86214 89.196252 
L 395.297626 89.264523 
L 396.168597 88.796003 
L 396.604083 88.876261 
L 397.039569 89.168109 
L 397.475054 89.265045 
L 397.91054 89.680928 
L 398.346026 88.954956 
L 398.781511 88.9659 
L 399.216997 89.155601 
L 399.652483 89.201984 
L 400.087968 88.966421 
L 400.523454 89.09202 
L 400.958939 89.668942 
L 401.829911 90.222932 
L 401.829911 90.222932 
" clip-path="url(#p0840371c9d)" style="fill: none; stroke: #ff7f0e; stroke-opacity: 0.8; stroke-width: 1.5; stroke-linecap: square"/>
   </g>
   <g id="line2d_19">
    <path d="M 146.635325 177.237496 
L 147.070811 177.598658 
L 148.377268 177.537682 
L 149.683725 177.963989 
L 150.554696 177.940537 
L 151.425667 178.26157 
L 152.296638 178.202158 
L 152.732124 178.405931 
L 155.345038 178.394987 
L 156.651495 177.857673 
L 157.08698 177.970764 
L 157.522466 177.728426 
L 157.957952 177.728947 
L 158.828923 177.334431 
L 159.264409 177.235932 
L 159.699894 177.001411 
L 160.13538 176.969621 
L 161.877322 176.274917 
L 162.312808 176.416151 
L 163.183779 176.184757 
L 164.054751 176.119091 
L 164.490236 176.026846 
L 164.925722 176.261888 
L 165.361208 176.319737 
L 166.232179 176.853402 
L 167.10315 176.788258 
L 169.280578 177.754484 
L 170.15155 177.933762 
L 171.458007 177.960862 
L 172.328978 178.248541 
L 173.199949 177.808163 
L 174.506406 177.722693 
L 175.377377 177.636702 
L 176.248349 177.598658 
L 176.683834 177.404266 
L 177.11932 177.368306 
L 177.554806 177.170787 
L 178.425777 177.436057 
L 179.732234 177.457945 
L 181.038691 178.224047 
L 181.474176 178.263655 
L 182.345148 178.584688 
L 183.651605 178.861944 
L 184.08709 178.967218 
L 184.522576 179.194442 
L 184.958061 179.205387 
L 185.829033 178.903637 
L 186.700004 178.628986 
L 188.441947 179.58948 
L 189.312918 180.081453 
L 189.748403 180.280014 
L 190.619375 180.383724 
L 191.05486 180.194023 
L 191.925832 180.329003 
L 192.361317 180.167965 
L 192.796803 180.407176 
L 193.232289 180.42229 
L 194.10326 180.112201 
L 194.974231 180.177346 
L 195.409717 180.457729 
L 195.845202 180.48535 
L 196.280688 180.330045 
L 198.022631 180.522873 
L 198.893602 180.988788 
L 199.329088 180.866316 
L 199.764573 180.92208 
L 200.200059 180.765212 
L 200.635545 180.798566 
L 201.506516 180.326397 
L 201.942001 180.297212 
L 203.248458 179.627003 
L 204.11943 179.654625 
L 204.554915 179.46805 
L 205.861372 179.499841 
L 208.0388 179.38675 
L 208.474286 179.421146 
L 208.909772 179.17516 
L 209.345257 179.368509 
L 209.780743 179.390919 
L 210.216229 179.663484 
L 210.651714 179.703092 
L 211.522686 179.313266 
L 211.958171 179.335155 
L 212.829142 178.886438 
L 213.264628 178.86924 
L 215.442056 178.20737 
L 215.877542 178.159423 
L 216.313028 178.344434 
L 216.748513 178.13076 
L 217.619485 178.093758 
L 218.05497 177.948876 
L 220.232398 177.972328 
L 221.10337 177.910831 
L 221.538855 178.137014 
L 222.409827 178.104181 
L 222.845312 177.855589 
L 225.02274 178.700906 
L 225.458226 178.442933 
L 226.764683 178.413227 
L 227.200169 178.447102 
L 228.07114 178.904679 
L 228.942111 178.983374 
L 229.813082 179.420625 
L 231.119539 180.065818 
L 231.990511 179.80993 
L 232.861482 179.790647 
L 233.296968 179.951163 
L 234.167939 179.955333 
L 234.603425 179.741137 
L 235.474396 180.06686 
L 235.909881 180.0309 
L 238.08731 179.318478 
L 239.393767 179.296068 
L 239.829252 179.075097 
L 241.571195 179.670781 
L 242.442166 179.577493 
L 242.877652 179.585832 
L 243.313137 179.817226 
L 243.748623 179.592086 
L 244.184109 179.681204 
L 244.619594 179.947515 
L 245.05508 179.668175 
L 245.490566 179.853186 
L 246.797022 179.881849 
L 248.103479 179.830776 
L 248.538965 179.565507 
L 248.974451 179.169427 
L 249.845422 179.336719 
L 250.716393 179.306491 
L 251.151879 179.065195 
L 252.02285 179.443035 
L 253.764793 179.308055 
L 254.200278 179.572282 
L 254.635764 179.587395 
L 255.07125 179.807845 
L 255.506735 179.752081 
L 256.377707 180.150767 
L 256.813192 180.216954 
L 257.248678 180.063733 
L 257.684164 180.254477 
L 258.119649 180.082495 
L 258.555135 180.340468 
L 259.861592 180.33213 
L 261.168049 180.194544 
L 262.03902 180.736548 
L 262.909991 180.784494 
L 263.345477 181.019537 
L 263.780962 181.060187 
L 264.216448 181.332231 
L 264.651934 181.102922 
L 265.958391 181.160249 
L 266.829362 180.653163 
L 267.700333 180.968984 
L 268.135819 181.062793 
L 268.571305 180.826187 
L 269.442276 180.819412 
L 269.877761 181.037777 
L 270.748733 181.250409 
L 271.619704 181.654828 
L 272.05519 181.447928 
L 272.926161 181.478676 
L 273.361647 181.02996 
L 273.797132 181.066962 
L 274.668104 180.734984 
L 275.103589 180.685996 
L 275.97456 180.844949 
L 276.845532 180.820454 
L 277.281017 180.977323 
L 277.716503 180.959082 
L 278.587474 181.305652 
L 279.458446 181.269171 
L 282.506845 180.659417 
L 282.942331 180.851724 
L 283.813302 180.579158 
L 284.684273 180.887684 
L 285.555245 180.759479 
L 286.861701 180.969505 
L 287.297187 181.19673 
L 287.732673 181.23738 
L 288.168158 181.163897 
L 288.603644 181.343697 
L 289.910101 181.402587 
L 290.345587 181.129501 
L 290.781072 180.991915 
L 291.216558 181.19204 
L 291.652044 181.248325 
L 292.9585 180.789185 
L 294.264957 180.780846 
L 294.700443 180.964815 
L 295.135929 180.918432 
L 296.0069 181.281679 
L 297.313357 181.148784 
L 297.748842 181.34057 
L 298.184328 181.195167 
L 298.619814 181.197772 
L 299.055299 181.409362 
L 299.490785 181.359852 
L 299.926271 181.492226 
L 300.361756 181.489621 
L 300.797242 181.260311 
L 301.232728 181.205069 
L 301.668213 181.441153 
L 302.103699 181.400503 
L 302.539185 181.19673 
L 302.97467 181.346302 
L 303.845641 181.357768 
L 304.281127 181.245719 
L 304.716613 181.004944 
L 305.152098 180.98045 
L 305.587584 181.19204 
L 306.02307 181.154516 
L 306.458555 180.943448 
L 306.894041 180.90384 
L 307.329527 180.66567 
L 307.765012 180.953349 
L 308.200498 180.919474 
L 309.071469 180.621893 
L 309.506955 180.63388 
L 309.94244 180.437925 
L 310.377926 180.48066 
L 311.248897 180.273239 
L 312.555354 180.66098 
L 312.99084 180.509323 
L 313.426326 180.740717 
L 315.168268 180.693292 
L 315.603754 180.436361 
L 316.039239 180.326918 
L 316.474725 180.560918 
L 317.345696 180.568735 
L 317.781182 180.374343 
L 319.087639 180.411346 
L 319.523125 180.62502 
L 319.95861 180.651078 
L 320.829581 180.331608 
L 321.265067 180.273239 
L 321.700553 180.433755 
L 322.136038 180.253956 
L 322.571524 180.36392 
L 324.313467 179.771364 
L 324.748952 179.999631 
L 325.184438 179.742179 
L 326.490895 179.810972 
L 327.797352 180.163275 
L 328.232837 180.135132 
L 328.668323 180.520268 
L 329.103809 180.264379 
L 329.539294 180.266985 
L 329.97478 180.570299 
L 330.410266 180.348807 
L 330.845751 180.320664 
L 331.716722 180.774071 
L 332.152208 180.750619 
L 332.587694 180.590103 
L 333.023179 180.309199 
L 334.329636 180.847033 
L 334.765122 180.844428 
L 335.636093 180.567172 
L 336.071579 180.805862 
L 337.378036 180.515056 
L 337.813521 180.533296 
L 338.249007 180.349849 
L 339.119978 180.327439 
L 339.555464 180.513492 
L 339.99095 180.506196 
L 340.426435 180.717265 
L 342.603864 180.718307 
L 343.039349 181.093541 
L 343.474835 181.11543 
L 344.345806 180.766775 
L 345.216777 180.679742 
L 345.652263 180.729773 
L 346.523234 180.509844 
L 347.394206 180.524958 
L 348.265177 180.475969 
L 348.700662 180.66567 
L 349.136148 180.543198 
L 349.571634 181.039862 
L 350.007119 180.85902 
L 352.620033 180.694855 
L 353.491005 180.767296 
L 353.92649 180.551016 
L 354.797461 180.50359 
L 355.232947 180.645345 
L 355.668433 180.454602 
L 356.97489 180.440009 
L 357.410375 180.284183 
L 357.845861 180.284183 
L 358.281347 180.810031 
L 359.152318 180.752183 
L 360.023289 180.92677 
L 360.458775 180.906966 
L 360.89426 181.104485 
L 361.765232 180.961167 
L 362.200717 180.983055 
L 362.636203 180.553622 
L 364.378146 180.785537 
L 364.813631 181.048721 
L 365.249117 181.020579 
L 366.991059 181.574048 
L 368.297516 181.69652 
L 368.733002 181.909153 
L 369.168488 181.729874 
L 371.345916 181.738734 
L 372.216887 181.275425 
L 372.652373 181.306173 
L 373.087858 181.540694 
L 373.523344 181.391122 
L 373.95883 181.53444 
L 374.394315 181.34057 
L 375.265287 181.495353 
L 375.700772 181.43959 
L 376.571744 181.011198 
L 377.442715 181.508904 
L 377.8782 181.511509 
L 378.313686 181.359852 
L 378.749172 181.606881 
L 379.184657 181.33171 
L 380.9266 181.417701 
L 381.362086 181.659518 
L 383.539514 181.738213 
L 383.974999 181.532356 
L 385.281456 181.517242 
L 385.716942 181.793977 
L 386.152428 181.811696 
L 387.023399 181.453661 
L 387.458885 181.637108 
L 391.378255 181.802315 
L 391.813741 181.848698 
L 392.249227 182.089994 
L 392.684712 181.860685 
L 393.991169 181.95762 
L 394.426655 181.8044 
L 396.168597 181.871629 
L 397.039569 181.915928 
L 397.475054 181.906547 
L 398.346026 181.534961 
L 399.652483 181.66942 
L 400.087968 181.706943 
L 400.958939 182.081135 
L 401.829911 182.022244 
L 401.829911 182.022244 
" clip-path="url(#p0840371c9d)" style="fill: none; stroke: #2ca02c; stroke-opacity: 0.8; stroke-width: 1.5; stroke-linecap: square"/>
   </g>
   <g id="line2d_20">
    <path d="M 146.635325 158.017723 
L 147.070811 157.80457 
L 147.506296 157.460606 
L 147.941782 157.269341 
L 148.377268 156.930067 
L 148.812753 157.011368 
L 150.554696 157.800922 
L 150.990181 157.641447 
L 151.861153 158.001567 
L 152.296638 157.956227 
L 153.603095 158.320516 
L 154.038581 157.990623 
L 154.474067 157.96248 
L 155.345038 158.411197 
L 155.780523 158.363772 
L 156.216009 157.953621 
L 157.08698 157.847305 
L 157.957952 154.510332 
L 158.828923 154.938203 
L 159.264409 154.827196 
L 160.570866 155.389004 
L 161.006351 155.188358 
L 161.877322 154.532742 
L 162.312808 152.667519 
L 162.748294 152.341795 
L 163.183779 152.230789 
L 164.054751 151.572046 
L 164.925722 151.458954 
L 165.796693 151.272901 
L 166.667665 150.688683 
L 168.409607 150.672527 
L 168.845093 150.438528 
L 169.280578 150.693895 
L 170.587035 150.675654 
L 171.893492 149.982515 
L 172.328978 150.008051 
L 172.764463 150.368693 
L 173.199949 150.165441 
L 174.07092 150.056519 
L 174.941892 149.947597 
L 175.377377 150.180033 
L 176.248349 150.130002 
L 176.683834 150.330648 
L 177.11932 149.000133 
L 177.554806 149.219019 
L 178.425777 148.738511 
L 178.861262 148.67493 
L 179.732234 148.157942 
L 180.167719 148.39559 
L 181.474176 148.150125 
L 181.909662 148.079768 
L 183.216119 147.107288 
L 183.651605 146.926968 
L 184.958061 147.664406 
L 185.393547 147.313667 
L 186.264518 147.600824 
L 187.13549 147.501804 
L 187.570975 147.678998 
L 188.006461 147.639911 
L 188.441947 147.874953 
L 188.877432 147.785314 
L 189.748403 148.180873 
L 190.183889 148.075599 
L 190.619375 148.289795 
L 191.05486 148.256441 
L 191.925832 147.712352 
L 192.796803 148.281456 
L 193.667774 148.410182 
L 194.10326 148.259568 
L 194.538746 147.930196 
L 195.409717 147.845768 
L 195.845202 147.459069 
L 196.280688 147.428842 
L 196.716174 147.586232 
L 197.151659 147.492424 
L 197.587145 147.706098 
L 198.022631 147.615417 
L 198.893602 147.225591 
L 199.329088 147.464281 
L 200.635545 147.483043 
L 202.377487 147.307934 
L 202.812973 147.398094 
L 203.248458 147.847332 
L 203.683944 147.767074 
L 204.11943 147.553399 
L 204.990401 148.016187 
L 205.425887 147.85098 
L 205.861372 147.146375 
L 206.732343 147.53568 
L 207.167829 147.784793 
L 208.474286 147.893194 
L 208.909772 147.548187 
L 209.345257 147.406954 
L 210.216229 147.875474 
L 210.651714 148.259046 
L 211.522686 148.62542 
L 212.393657 149.185665 
L 212.829142 149.625522 
L 214.135599 149.199215 
L 215.006571 148.477933 
L 215.442056 148.418 
L 216.313028 148.517541 
L 217.183999 148.334614 
L 218.05497 147.834303 
L 218.490456 146.707039 
L 218.925941 146.936348 
L 219.361427 146.886838 
L 219.796913 146.36985 
L 220.232398 146.187445 
L 220.667884 145.871623 
L 221.538855 145.645962 
L 221.974341 145.694951 
L 222.409827 146.046211 
L 223.280798 146.046211 
L 224.151769 145.539125 
L 224.587255 145.413526 
L 226.764683 146.408937 
L 229.377597 147.659715 
L 229.813082 147.99065 
L 230.248568 147.894236 
L 231.555025 148.324712 
L 231.990511 148.046935 
L 232.425996 148.22465 
L 232.861482 148.038597 
L 233.296968 148.244975 
L 234.167939 147.742058 
L 235.474396 146.766451 
L 235.909881 146.774268 
L 236.345367 145.390074 
L 238.08731 144.117407 
L 238.522795 143.561332 
L 239.829252 143.291893 
L 240.264738 143.235087 
L 240.700224 142.848909 
L 241.571195 143.377363 
L 242.00668 143.524329 
L 242.877652 147.227675 
L 243.313137 147.126571 
L 244.184109 146.476687 
L 245.926051 145.330662 
L 246.797022 145.31659 
L 247.232508 146.861302 
L 248.538965 146.795115 
L 249.409936 147.169827 
L 250.280908 147.305849 
L 251.151879 147.668575 
L 252.02285 147.650855 
L 252.458336 147.559653 
L 252.893821 147.659194 
L 253.329307 147.32878 
L 253.764793 147.466887 
L 254.200278 147.352753 
L 254.635764 147.367346 
L 255.506735 147.683688 
L 255.942221 147.530989 
L 257.684164 147.840557 
L 258.555135 148.323149 
L 258.99062 148.490962 
L 259.861592 149.013683 
L 260.297077 148.879745 
L 260.732563 149.13407 
L 261.603534 149.18358 
L 262.03902 150.501588 
L 262.474506 150.337944 
L 263.345477 150.822621 
L 263.780962 150.835129 
L 264.216448 149.788644 
L 264.651934 149.774573 
L 265.087419 149.560898 
L 265.522905 149.538488 
L 267.264848 150.523998 
L 267.700333 150.748616 
L 268.135819 150.846073 
L 268.571305 151.147302 
L 269.00679 151.122286 
L 269.442276 149.861606 
L 269.877761 149.663566 
L 270.313247 150.047659 
L 270.748733 149.978345 
L 271.184218 150.060688 
L 272.05519 150.649075 
L 273.361647 150.564648 
L 273.797132 150.417681 
L 274.232618 150.447387 
L 274.668104 150.094042 
L 275.103589 150.184724 
L 275.539075 149.907468 
L 277.281017 150.670964 
L 277.716503 150.428105 
L 278.151989 150.389018 
L 280.764902 151.798228 
L 281.635874 151.85764 
L 282.942331 152.030664 
L 283.377816 151.932687 
L 283.813302 150.722559 
L 284.248788 148.863589 
L 284.684273 148.87297 
L 285.555245 148.270512 
L 286.426216 144.391014 
L 288.168158 145.00129 
L 288.603644 144.811589 
L 289.474615 144.864226 
L 289.910101 144.727161 
L 290.345587 143.28147 
L 290.781072 144.181509 
L 291.216558 144.121055 
L 291.652044 143.811487 
L 292.087529 143.131898 
L 292.523015 143.268962 
L 293.393986 142.969818 
L 294.264957 142.975029 
L 294.700443 142.625854 
L 296.442386 142.387163 
L 296.877871 141.676304 
L 297.313357 141.270844 
L 297.748842 141.162443 
L 298.184328 140.864341 
L 298.619814 140.772617 
L 299.926271 141.547057 
L 300.361756 141.470447 
L 300.797242 141.524126 
L 301.232728 141.092087 
L 302.103699 141.600215 
L 302.97467 142.397587 
L 303.410156 143.604066 
L 303.845641 143.397167 
L 304.281127 143.384659 
L 304.716613 143.798979 
L 305.587584 143.899042 
L 306.02307 143.771358 
L 306.458555 143.130855 
L 306.894041 143.251764 
L 307.765012 143.076134 
L 308.200498 142.78637 
L 309.071469 142.792624 
L 309.94244 141.979618 
L 310.377926 141.712785 
L 311.248897 141.670572 
L 312.555354 140.660047 
L 312.99084 140.525588 
L 313.861811 140.497446 
L 314.732782 136.354764 
L 315.168268 134.162254 
L 315.603754 133.018313 
L 316.039239 131.012898 
L 316.474725 130.746065 
L 316.910211 130.992573 
L 317.345696 130.772123 
L 317.781182 127.444532 
L 318.216668 127.153205 
L 319.087639 127.022915 
L 319.523125 127.22304 
L 319.95861 127.226688 
L 320.394096 126.976532 
L 320.829581 126.905134 
L 321.265067 127.823934 
L 321.700553 127.995395 
L 322.136038 127.068777 
L 322.571524 126.842073 
L 323.00701 126.245869 
L 323.877981 126.991125 
L 324.313467 126.850412 
L 324.748952 126.415767 
L 326.055409 126.419936 
L 326.92638 125.696569 
L 327.361866 125.093068 
L 327.797352 122.77965 
L 328.232837 122.731703 
L 328.668323 122.810919 
L 329.103809 123.013128 
L 329.539294 122.494055 
L 330.845751 122.81561 
L 331.716722 123.16687 
L 332.152208 123.036059 
L 332.587694 123.04544 
L 333.023179 123.233578 
L 333.894151 122.950068 
L 334.765122 122.435165 
L 335.200608 121.955178 
L 336.071579 121.52366 
L 337.378036 122.093285 
L 337.813521 121.293308 
L 339.555464 120.921202 
L 339.99095 120.694498 
L 341.297407 120.663229 
L 342.168378 120.412552 
L 342.603864 119.978427 
L 343.039349 118.661462 
L 343.91032 114.94196 
L 345.216777 112.536296 
L 345.652263 110.612182 
L 346.523234 110.339096 
L 347.394206 110.0707 
L 347.829691 109.752272 
L 348.700662 108.940309 
L 349.136148 110.114998 
L 349.571634 110.180664 
L 350.007119 109.50368 
L 350.442605 109.471368 
L 352.184548 108.84181 
L 352.620033 108.572893 
L 353.055519 108.610416 
L 353.491005 108.335766 
L 353.92649 106.964079 
L 354.361976 108.209125 
L 355.232947 108.459801 
L 356.103918 108.464492 
L 356.539404 107.748942 
L 357.410375 107.205375 
L 357.845861 107.453446 
L 358.281347 107.449798 
L 358.716832 107.61292 
L 359.152318 107.490969 
L 360.023289 107.480025 
L 360.458775 107.478462 
L 361.765232 106.888511 
L 362.200717 106.861932 
L 362.636203 107.092284 
L 363.071689 107.135019 
L 364.378146 106.148988 
L 365.684603 106.027559 
L 366.120088 105.785742 
L 366.555574 102.612934 
L 366.991059 100.815461 
L 367.426545 98.329539 
L 367.862031 97.044886 
L 368.297516 94.811725 
L 368.733002 94.161321 
L 369.168488 95.949934 
L 369.603973 95.63307 
L 370.039459 95.860816 
L 370.474945 95.854041 
L 370.91043 96.945866 
L 371.345916 98.683926 
L 371.781401 98.812652 
L 372.216887 98.728225 
L 373.087858 98.115865 
L 373.523344 98.021014 
L 373.95883 96.851015 
L 374.394315 96.054686 
L 374.829801 95.837363 
L 375.265287 96.430962 
L 375.700772 96.191229 
L 376.136258 96.264192 
L 376.571744 96.522165 
L 377.007229 97.141821 
L 377.442715 96.905737 
L 378.313686 97.399794 
L 378.749172 97.639005 
L 379.184657 97.697375 
L 380.055629 97.133483 
L 381.362086 97.278885 
L 381.797571 97.666106 
L 382.233057 97.756787 
L 383.104028 97.457643 
L 383.539514 97.790141 
L 384.845971 97.401879 
L 385.716942 97.548324 
L 386.152428 97.933981 
L 386.587913 97.863103 
L 387.89437 97.045407 
L 388.329856 97.099607 
L 389.636313 90.913987 
L 390.071798 89.497481 
L 390.94277 85.550233 
L 391.378255 86.069827 
L 392.249227 84.669477 
L 392.684712 84.285904 
L 393.120198 84.375022 
L 393.555684 84.590782 
L 393.991169 84.439125 
L 394.426655 84.692929 
L 394.86214 84.333851 
L 395.297626 84.564724 
L 396.168597 84.182194 
L 396.604083 84.299455 
L 397.475054 84.811753 
L 397.91054 84.79716 
L 398.346026 84.535018 
L 398.781511 84.538666 
L 399.652483 88.523437 
L 400.087968 90.660184 
L 400.523454 91.775461 
L 400.958939 93.614105 
L 401.394425 93.839766 
L 401.829911 93.801201 
L 401.829911 93.801201 
" clip-path="url(#p0840371c9d)" style="fill: none; stroke: #d62728; stroke-opacity: 0.8; stroke-width: 1.5; stroke-linecap: square"/>
   </g>
   <g id="line2d_21">
    <path d="M 146.635325 176.085737 
L 147.070811 175.678192 
L 147.506296 175.812651 
L 148.377268 175.494744 
L 149.683725 175.499435 
L 151.861153 174.483699 
L 153.16761 174.472233 
L 153.603095 174.265855 
L 154.474067 174.379988 
L 156.651495 174.180385 
L 157.522466 173.592519 
L 158.393437 173.237611 
L 160.570866 173.418974 
L 161.006351 173.166212 
L 161.441837 173.745739 
L 163.183779 172.784725 
L 164.490236 172.946805 
L 165.361208 172.3506 
L 166.232179 172.372489 
L 166.667665 172.504342 
L 167.10315 172.209888 
L 167.538636 172.524667 
L 168.845093 172.225001 
L 169.280578 172.482453 
L 169.716064 172.479848 
L 170.15155 172.695086 
L 171.022521 172.487665 
L 171.458007 172.722186 
L 171.893492 172.70134 
L 172.764463 172.947326 
L 173.199949 172.82329 
L 173.635435 172.82329 
L 174.506406 172.500694 
L 174.941892 172.262004 
L 175.812863 172.584079 
L 176.248349 172.620039 
L 176.683834 172.432422 
L 177.11932 172.730524 
L 177.554806 172.468382 
L 177.990291 172.450142 
L 178.861262 172.969215 
L 179.732234 172.405843 
L 180.167719 172.66121 
L 181.474176 172.614306 
L 182.345148 172.145264 
L 184.522576 173.073967 
L 185.393547 172.501215 
L 185.829033 171.128486 
L 186.700004 171.113372 
L 187.13549 170.787649 
L 188.006461 170.789212 
L 189.748403 169.765137 
L 190.183889 169.788068 
L 190.619375 170.022589 
L 191.925832 169.929823 
L 192.796803 170.384794 
L 193.232289 170.313395 
L 193.667774 170.528633 
L 194.10326 170.503097 
L 194.538746 170.885105 
L 195.409717 171.294735 
L 196.280688 171.752311 
L 197.151659 171.441702 
L 198.458116 171.491733 
L 198.893602 171.700196 
L 202.377487 171.840387 
L 202.812973 171.817977 
L 203.248458 171.602218 
L 203.683944 171.531862 
L 205.861372 170.343622 
L 206.732343 170.360299 
L 207.167829 170.159654 
L 208.0388 170.165386 
L 208.474286 170.349355 
L 209.345257 169.785984 
L 209.780743 169.754714 
L 210.651714 170.161738 
L 211.0872 170.139329 
L 211.522686 170.301409 
L 212.829142 170.102848 
L 213.264628 169.968389 
L 214.135599 170.137244 
L 214.571085 169.972558 
L 215.006571 170.215418 
L 215.877542 170.142456 
L 216.748513 170.653711 
L 217.183999 172.153082 
L 217.619485 172.182267 
L 218.05497 172.497046 
L 218.925941 172.577825 
L 219.796913 172.046244 
L 220.667884 172.091585 
L 221.10337 172.404801 
L 222.409827 172.48558 
L 223.280798 172.77378 
L 223.716283 172.48558 
L 224.151769 172.51268 
L 224.587255 172.794627 
L 225.458226 172.995794 
L 226.329197 173.680595 
L 227.200169 173.640466 
L 227.635654 173.440862 
L 228.07114 173.47161 
L 228.506626 173.220413 
L 228.942111 173.45337 
L 229.813082 173.485161 
L 230.248568 174.950656 
L 230.684054 175.873105 
L 231.555025 175.924699 
L 231.990511 176.295243 
L 232.425996 176.098245 
L 232.861482 176.206125 
L 233.296968 176.450548 
L 234.167939 176.429701 
L 234.603425 176.19518 
L 235.474396 176.130557 
L 235.909881 176.347879 
L 236.345367 176.786694 
L 236.780853 176.972747 
L 237.216338 176.981607 
L 237.651824 177.151505 
L 238.08731 177.163491 
L 238.522795 177.337558 
L 239.393767 177.2573 
L 239.829252 177.461593 
L 240.264738 177.296908 
L 241.135709 177.592404 
L 241.571195 177.598137 
L 242.442166 178.117731 
L 242.877652 178.116167 
L 243.313137 178.248541 
L 243.748623 178.017147 
L 244.184109 178.005682 
L 245.05508 178.476287 
L 245.490566 178.505472 
L 245.926051 178.760318 
L 246.361537 178.081771 
L 247.232508 178.467428 
L 247.667994 178.723316 
L 248.103479 178.036951 
L 248.974451 178.42782 
L 249.409936 178.363717 
L 250.280908 178.9594 
L 251.587365 178.890086 
L 252.02285 178.985979 
L 252.458336 178.754064 
L 253.764793 179.462839 
L 255.07125 178.72071 
L 255.506735 178.794715 
L 256.813192 179.583747 
L 257.248678 179.561337 
L 257.684164 179.266362 
L 258.119649 179.533195 
L 258.555135 179.234572 
L 258.99062 179.172033 
L 259.426106 179.352353 
L 259.861592 179.384144 
L 260.297077 179.129819 
L 260.732563 179.157961 
L 261.603534 178.945329 
L 262.03902 178.88279 
L 262.909991 178.943766 
L 263.345477 178.889565 
L 263.780962 178.656087 
L 264.216448 178.910412 
L 264.651934 178.993797 
L 266.393876 178.920835 
L 267.264848 178.919792 
L 267.700333 178.55863 
L 268.135819 178.556024 
L 268.571305 177.463678 
L 269.00679 177.283357 
L 270.313247 177.229157 
L 270.748733 178.303263 
L 271.184218 178.004118 
L 272.05519 178.575307 
L 272.926161 178.022359 
L 273.361647 178.060403 
L 273.797132 178.380394 
L 275.103589 178.471076 
L 275.539075 178.199553 
L 276.410046 178.192778 
L 276.845532 178.468991 
L 278.151989 178.55394 
L 278.587474 178.584167 
L 279.02296 178.862986 
L 279.458446 178.781164 
L 279.893931 178.82859 
L 280.329417 178.69361 
L 281.200388 178.714977 
L 282.071359 178.964612 
L 282.506845 178.907806 
L 284.248788 179.20695 
L 284.684273 179.442514 
L 285.119759 179.443556 
L 285.99073 179.852143 
L 289.03913 179.732798 
L 289.910101 179.613453 
L 290.781072 179.528505 
L 292.087529 179.093859 
L 292.9585 178.50912 
L 293.393986 178.257922 
L 293.829472 178.331927 
L 294.264957 178.560715 
L 295.571414 177.812332 
L 296.0069 178.041642 
L 296.877871 178.05415 
L 297.313357 177.82484 
L 297.748842 178.032782 
L 298.184328 177.957735 
L 299.055299 178.251147 
L 299.490785 178.190693 
L 299.926271 177.845687 
L 300.361756 178.116167 
L 300.797242 177.985357 
L 302.103699 178.006203 
L 302.539185 178.242809 
L 302.97467 178.201637 
L 303.845641 178.631071 
L 304.716613 178.613352 
L 305.587584 178.919792 
L 306.02307 178.677454 
L 306.458555 178.852563 
L 306.894041 178.872367 
L 307.765012 179.365903 
L 308.200498 179.35079 
L 308.635984 179.612411 
L 309.506955 179.486291 
L 309.94244 179.65254 
L 310.377926 179.607199 
L 311.684383 178.947414 
L 312.119869 178.486189 
L 312.555354 178.692047 
L 312.99084 178.660777 
L 313.426326 178.870804 
L 313.861811 178.53153 
L 314.732782 178.491922 
L 315.168268 178.505993 
L 315.603754 178.784813 
L 316.039239 178.77022 
L 319.523125 180.078326 
L 320.394096 180.496294 
L 321.265067 180.351934 
L 321.700553 180.061649 
L 322.136038 178.913539 
L 323.442495 178.189129 
L 323.877981 178.18027 
L 324.748952 177.608039 
L 325.184438 177.925945 
L 325.619924 177.929593 
L 326.055409 177.789401 
L 326.490895 177.959299 
L 328.668323 178.090109 
L 329.103809 177.930114 
L 330.845751 177.899887 
L 331.281237 178.600844 
L 331.716722 178.464822 
L 332.152208 177.999428 
L 332.587694 177.823277 
L 333.023179 178.663904 
L 336.071579 177.130658 
L 336.507065 177.136912 
L 336.94255 177.312021 
L 337.378036 177.809205 
L 338.249007 177.855589 
L 338.684493 177.848292 
L 339.119978 178.033824 
L 339.555464 177.895196 
L 340.426435 177.869139 
L 341.297407 177.354235 
L 341.732892 177.302119 
L 342.168378 177.019131 
L 342.603864 176.971184 
L 343.039349 176.698619 
L 343.91032 177.165576 
L 344.345806 177.147335 
L 346.087749 177.727384 
L 346.523234 177.956172 
L 346.95872 177.987963 
L 347.394206 178.220399 
L 349.136148 178.193299 
L 349.571634 178.363196 
L 350.442605 178.360069 
L 350.878091 178.179227 
L 351.313576 178.181833 
L 351.749062 178.401241 
L 352.184548 178.394987 
L 352.620033 178.55863 
L 353.055519 178.547165 
L 353.491005 179.646807 
L 355.668433 180.563524 
L 356.103918 180.596357 
L 356.97489 180.112722 
L 357.410375 180.263858 
L 357.845861 179.725502 
L 358.281347 179.965756 
L 358.716832 179.763547 
L 359.152318 178.922919 
L 359.587804 178.537784 
L 360.89426 179.291378 
L 361.329746 178.114604 
L 361.765232 176.172771 
L 362.200717 175.93408 
L 362.636203 175.884049 
L 363.507174 175.954405 
L 363.94266 175.937207 
L 364.378146 175.727181 
L 364.813631 175.719885 
L 365.684603 175.835582 
L 366.555574 175.758971 
L 366.991059 175.404063 
L 367.426545 175.628682 
L 368.297516 175.717279 
L 369.168488 175.724054 
L 369.603973 175.538001 
L 370.91043 175.556241 
L 371.345916 175.766268 
L 372.216887 175.82151 
L 372.652373 176.06906 
L 373.087858 175.832455 
L 373.523344 175.770437 
L 373.95883 176.003394 
L 374.394315 176.038833 
L 375.700772 176.759073 
L 376.136258 176.692365 
L 376.571744 176.752298 
L 377.442715 177.095741 
L 377.8782 176.161826 
L 378.749172 176.151924 
L 379.184657 175.908022 
L 380.491114 175.986196 
L 381.362086 175.563016 
L 381.797571 175.754802 
L 382.668543 175.622949 
L 383.104028 175.843399 
L 384.410485 175.985154 
L 384.845971 176.317652 
L 389.200827 176.140459 
L 389.636313 176.40208 
L 390.071798 176.206125 
L 391.378255 176.109189 
L 391.813741 176.280129 
L 392.249227 176.016423 
L 392.684712 176.008606 
L 393.120198 175.783466 
L 394.426655 175.738646 
L 395.297626 175.764183 
L 396.168597 176.142543 
L 396.604083 176.182673 
L 397.039569 176.559469 
L 397.91054 176.515692 
L 398.346026 176.249381 
L 399.652483 176.393741 
L 400.087968 176.182673 
L 400.523454 176.123261 
L 400.958939 176.278566 
L 401.829911 175.818904 
L 401.829911 175.818904 
" clip-path="url(#p0840371c9d)" style="fill: none; stroke: #9467bd; stroke-opacity: 0.8; stroke-width: 1.5; stroke-linecap: square"/>
   </g>
   <g id="patch_3">
    <path d="M 61.715625 288.430125 
L 61.715625 22.318125 
" style="fill: none; stroke: #000000; stroke-width: 0.8; stroke-linejoin: miter; stroke-linecap: square"/>
   </g>
   <g id="patch_4">
    <path d="M 418.835625 288.430125 
L 418.835625 22.318125 
" style="fill: none; stroke: #000000; stroke-width: 0.8; stroke-linejoin: miter; stroke-linecap: square"/>
   </g>
   <g id="patch_5">
    <path d="M 61.715625 288.430125 
L 418.835625 288.430125 
" style="fill: none; stroke: #000000; stroke-width: 0.8; stroke-linejoin: miter; stroke-linecap: square"/>
   </g>
   <g id="patch_6">
    <path d="M 61.715625 22.318125 
L 418.835625 22.318125 
" style="fill: none; stroke: #000000; stroke-width: 0.8; stroke-linejoin: miter; stroke-linecap: square"/>
   </g>
   <g id="text_19">
    <!-- Get previous sibling [root] -->
    <g transform="translate(161.956875 16.318125) scale(0.12 -0.12)">
     <defs>
      <path id="DejaVuSans-47" d="M 3809 666 
L 3809 1919 
L 2778 1919 
L 2778 2438 
L 4434 2438 
L 4434 434 
Q 4069 175 3628 42 
Q 3188 -91 2688 -91 
Q 1594 -91 976 548 
Q 359 1188 359 2328 
Q 359 3472 976 4111 
Q 1594 4750 2688 4750 
Q 3144 4750 3555 4637 
Q 3966 4525 4313 4306 
L 4313 3634 
Q 3963 3931 3569 4081 
Q 3175 4231 2741 4231 
Q 1884 4231 1454 3753 
Q 1025 3275 1025 2328 
Q 1025 1384 1454 906 
Q 1884 428 2741 428 
Q 3075 428 3337 486 
Q 3600 544 3809 666 
z
" transform="scale(0.015625)"/>
      <path id="DejaVuSans-70" d="M 1159 525 
L 1159 -1331 
L 581 -1331 
L 581 3500 
L 1159 3500 
L 1159 2969 
Q 1341 3281 1617 3432 
Q 1894 3584 2278 3584 
Q 2916 3584 3314 3078 
Q 3713 2572 3713 1747 
Q 3713 922 3314 415 
Q 2916 -91 2278 -91 
Q 1894 -91 1617 61 
Q 1341 213 1159 525 
z
M 3116 1747 
Q 3116 2381 2855 2742 
Q 2594 3103 2138 3103 
Q 1681 3103 1420 2742 
Q 1159 2381 1159 1747 
Q 1159 1113 1420 752 
Q 1681 391 2138 391 
Q 2594 391 2855 752 
Q 3116 1113 3116 1747 
z
" transform="scale(0.015625)"/>
      <path id="DejaVuSans-72" d="M 2631 2963 
Q 2534 3019 2420 3045 
Q 2306 3072 2169 3072 
Q 1681 3072 1420 2755 
Q 1159 2438 1159 1844 
L 1159 0 
L 581 0 
L 581 3500 
L 1159 3500 
L 1159 2956 
Q 1341 3275 1631 3429 
Q 1922 3584 2338 3584 
Q 2397 3584 2469 3576 
Q 2541 3569 2628 3553 
L 2631 2963 
z
" transform="scale(0.015625)"/>
      <path id="DejaVuSans-76" d="M 191 3500 
L 800 3500 
L 1894 563 
L 2988 3500 
L 3597 3500 
L 2284 0 
L 1503 0 
L 191 3500 
z
" transform="scale(0.015625)"/>
      <path id="DejaVuSans-67" d="M 2906 1791 
Q 2906 2416 2648 2759 
Q 2391 3103 1925 3103 
Q 1463 3103 1205 2759 
Q 947 2416 947 1791 
Q 947 1169 1205 825 
Q 1463 481 1925 481 
Q 2391 481 2648 825 
Q 2906 1169 2906 1791 
z
M 3481 434 
Q 3481 -459 3084 -895 
Q 2688 -1331 1869 -1331 
Q 1566 -1331 1297 -1286 
Q 1028 -1241 775 -1147 
L 775 -588 
Q 1028 -725 1275 -790 
Q 1522 -856 1778 -856 
Q 2344 -856 2625 -561 
Q 2906 -266 2906 331 
L 2906 616 
Q 2728 306 2450 153 
Q 2172 0 1784 0 
Q 1141 0 747 490 
Q 353 981 353 1791 
Q 353 2603 747 3093 
Q 1141 3584 1784 3584 
Q 2172 3584 2450 3431 
Q 2728 3278 2906 2969 
L 2906 3500 
L 3481 3500 
L 3481 434 
z
" transform="scale(0.015625)"/>
      <path id="DejaVuSans-5b" d="M 550 4863 
L 1875 4863 
L 1875 4416 
L 1125 4416 
L 1125 -397 
L 1875 -397 
L 1875 -844 
L 550 -844 
L 550 4863 
z
" transform="scale(0.015625)"/>
      <path id="DejaVuSans-5d" d="M 1947 4863 
L 1947 -844 
L 622 -844 
L 622 -397 
L 1369 -397 
L 1369 4416 
L 622 4416 
L 622 4863 
L 1947 4863 
z
" transform="scale(0.015625)"/>
     </defs>
     <use xlink:href="#DejaVuSans-47"/>
     <use xlink:href="#DejaVuSans-65" transform="translate(77.490234 0)"/>
     <use xlink:href="#DejaVuSans-74" transform="translate(139.013672 0)"/>
     <use xlink:href="#DejaVuSans-20" transform="translate(178.222656 0)"/>
     <use xlink:href="#DejaVuSans-70" transform="translate(210.009766 0)"/>
     <use xlink:href="#DejaVuSans-72" transform="translate(273.486328 0)"/>
     <use xlink:href="#DejaVuSans-65" transform="translate(312.349609 0)"/>
     <use xlink:href="#DejaVuSans-76" transform="translate(373.873047 0)"/>
     <use xlink:href="#DejaVuSans-69" transform="translate(433.052734 0)"/>
     <use xlink:href="#DejaVuSans-6f" transform="translate(460.835938 0)"/>
     <use xlink:href="#DejaVuSans-75" transform="translate(522.017578 0)"/>
     <use xlink:href="#DejaVuSans-73" transform="translate(585.396484 0)"/>
     <use xlink:href="#DejaVuSans-20" transform="translate(637.496094 0)"/>
     <use xlink:href="#DejaVuSans-73" transform="translate(669.283203 0)"/>
     <use xlink:href="#DejaVuSans-69" transform="translate(721.382812 0)"/>
     <use xlink:href="#DejaVuSans-62" transform="translate(749.166016 0)"/>
     <use xlink:href="#DejaVuSans-6c" transform="translate(812.642578 0)"/>
     <use xlink:href="#DejaVuSans-69" transform="translate(840.425781 0)"/>
     <use xlink:href="#DejaVuSans-6e" transform="translate(868.208984 0)"/>
     <use xlink:href="#DejaVuSans-67" transform="translate(931.587891 0)"/>
     <use xlink:href="#DejaVuSans-20" transform="translate(995.064453 0)"/>
     <use xlink:href="#DejaVuSans-5b" transform="translate(1026.851562 0)"/>
     <use xlink:href="#DejaVuSans-72" transform="translate(1065.865234 0)"/>
     <use xlink:href="#DejaVuSans-6f" transform="translate(1104.728516 0)"/>
     <use xlink:href="#DejaVuSans-6f" transform="translate(1165.910156 0)"/>
     <use xlink:href="#DejaVuSans-74" transform="translate(1227.091797 0)"/>
     <use xlink:href="#DejaVuSans-5d" transform="translate(1266.300781 0)"/>
    </g>
   </g>
   <g id="legend_1">
    <g id="patch_7">
     <path d="M 92.717969 365.802375 
L 380.313281 365.802375 
Q 382.313281 365.802375 382.313281 363.802375 
L 382.313281 335.446125 
Q 382.313281 333.446125 380.313281 333.446125 
L 92.717969 333.446125 
Q 90.717969 333.446125 90.717969 335.446125 
L 90.717969 363.802375 
Q 90.717969 365.802375 92.717969 365.802375 
z
" style="fill: #4d4d4d; opacity: 0.5; stroke: #4d4d4d; stroke-linejoin: miter"/>
    </g>
    <g id="patch_8">
     <path d="M 90.717969 363.802375 
L 378.313281 363.802375 
Q 380.313281 363.802375 380.313281 361.802375 
L 380.313281 333.446125 
Q 380.313281 331.446125 378.313281 331.446125 
L 90.717969 331.446125 
Q 88.717969 331.446125 88.717969 333.446125 
L 88.717969 361.802375 
Q 88.717969 363.802375 90.717969 363.802375 
z
" style="fill: #ffffff; stroke: #cccccc; stroke-linejoin: miter"/>
    </g>
    <g id="line2d_22">
     <path d="M 92.717969 339.544562 
L 102.717969 339.544562 
L 112.717969 339.544562 
" style="fill: none; stroke: #1f77b4; stroke-opacity: 0.8; stroke-width: 1.5; stroke-linecap: square"/>
    </g>
    <g id="text_20">
     <!-- MPTT -->
     <g transform="translate(120.717969 343.044562) scale(0.1 -0.1)">
      <defs>
       <path id="DejaVuSans-4d" d="M 628 4666 
L 1569 4666 
L 2759 1491 
L 3956 4666 
L 4897 4666 
L 4897 0 
L 4281 0 
L 4281 4097 
L 3078 897 
L 2444 897 
L 1241 4097 
L 1241 0 
L 628 0 
L 628 4666 
z
" transform="scale(0.015625)"/>
       <path id="DejaVuSans-50" d="M 1259 4147 
L 1259 2394 
L 2053 2394 
Q 2494 2394 2734 2622 
Q 2975 2850 2975 3272 
Q 2975 3691 2734 3919 
Q 2494 4147 2053 4147 
L 1259 4147 
z
M 628 4666 
L 2053 4666 
Q 2838 4666 3239 4311 
Q 3641 3956 3641 3272 
Q 3641 2581 3239 2228 
Q 2838 1875 2053 1875 
L 1259 1875 
L 1259 0 
L 628 0 
L 628 4666 
z
" transform="scale(0.015625)"/>
       <path id="DejaVuSans-54" d="M -19 4666 
L 3928 4666 
L 3928 4134 
L 2272 4134 
L 2272 0 
L 1638 0 
L 1638 4134 
L -19 4134 
L -19 4666 
z
" transform="scale(0.015625)"/>
      </defs>
      <use xlink:href="#DejaVuSans-4d"/>
      <use xlink:href="#DejaVuSans-50" transform="translate(86.279297 0)"/>
      <use xlink:href="#DejaVuSans-54" transform="translate(146.582031 0)"/>
      <use xlink:href="#DejaVuSans-54" transform="translate(205.916016 0)"/>
     </g>
    </g>
    <g id="line2d_23">
     <path d="M 92.717969 354.222687 
L 102.717969 354.222687 
L 112.717969 354.222687 
" style="fill: none; stroke: #ff7f0e; stroke-opacity: 0.8; stroke-width: 1.5; stroke-linecap: square"/>
    </g>
    <g id="text_21">
     <!-- tree -->
     <g transform="translate(120.717969 357.722687) scale(0.1 -0.1)">
      <use xlink:href="#DejaVuSans-74"/>
      <use xlink:href="#DejaVuSans-72" transform="translate(39.208984 0)"/>
      <use xlink:href="#DejaVuSans-65" transform="translate(78.072266 0)"/>
      <use xlink:href="#DejaVuSans-65" transform="translate(139.595703 0)"/>
     </g>
    </g>
    <g id="line2d_24">
     <path d="M 167.416406 339.544562 
L 177.416406 339.544562 
L 187.416406 339.544562 
" style="fill: none; stroke: #2ca02c; stroke-opacity: 0.8; stroke-width: 1.5; stroke-linecap: square"/>
    </g>
    <g id="text_22">
     <!-- treebeard AL -->
     <g transform="translate(195.416406 343.044562) scale(0.1 -0.1)">
      <defs>
       <path id="DejaVuSans-4c" d="M 628 4666 
L 1259 4666 
L 1259 531 
L 3531 531 
L 3531 0 
L 628 0 
L 628 4666 
z
" transform="scale(0.015625)"/>
      </defs>
      <use xlink:href="#DejaVuSans-74"/>
      <use xlink:href="#DejaVuSans-72" transform="translate(39.208984 0)"/>
      <use xlink:href="#DejaVuSans-65" transform="translate(78.072266 0)"/>
      <use xlink:href="#DejaVuSans-65" transform="translate(139.595703 0)"/>
      <use xlink:href="#DejaVuSans-62" transform="translate(201.119141 0)"/>
      <use xlink:href="#DejaVuSans-65" transform="translate(264.595703 0)"/>
      <use xlink:href="#DejaVuSans-61" transform="translate(326.119141 0)"/>
      <use xlink:href="#DejaVuSans-72" transform="translate(387.398438 0)"/>
      <use xlink:href="#DejaVuSans-64" transform="translate(426.761719 0)"/>
      <use xlink:href="#DejaVuSans-20" transform="translate(490.238281 0)"/>
      <use xlink:href="#DejaVuSans-41" transform="translate(522.025391 0)"/>
      <use xlink:href="#DejaVuSans-4c" transform="translate(590.433594 0)"/>
     </g>
    </g>
    <g id="line2d_25">
     <path d="M 167.416406 354.222687 
L 177.416406 354.222687 
L 187.416406 354.222687 
" style="fill: none; stroke: #d62728; stroke-opacity: 0.8; stroke-width: 1.5; stroke-linecap: square"/>
    </g>
    <g id="text_23">
     <!-- treebeard MP -->
     <g transform="translate(195.416406 357.722687) scale(0.1 -0.1)">
      <use xlink:href="#DejaVuSans-74"/>
      <use xlink:href="#DejaVuSans-72" transform="translate(39.208984 0)"/>
      <use xlink:href="#DejaVuSans-65" transform="translate(78.072266 0)"/>
      <use xlink:href="#DejaVuSans-65" transform="translate(139.595703 0)"/>
      <use xlink:href="#DejaVuSans-62" transform="translate(201.119141 0)"/>
      <use xlink:href="#DejaVuSans-65" transform="translate(264.595703 0)"/>
      <use xlink:href="#DejaVuSans-61" transform="translate(326.119141 0)"/>
      <use xlink:href="#DejaVuSans-72" transform="translate(387.398438 0)"/>
      <use xlink:href="#DejaVuSans-64" transform="translate(426.761719 0)"/>
      <use xlink:href="#DejaVuSans-20" transform="translate(490.238281 0)"/>
      <use xlink:href="#DejaVuSans-4d" transform="translate(522.025391 0)"/>
      <use xlink:href="#DejaVuSans-50" transform="translate(608.304688 0)"/>
     </g>
    </g>
    <g id="line2d_26">
     <path d="M 282.278906 339.544562 
L 292.278906 339.544562 
L 302.278906 339.544562 
" style="fill: none; stroke: #9467bd; stroke-opacity: 0.8; stroke-width: 1.5; stroke-linecap: square"/>
    </g>
    <g id="text_24">
     <!-- treebeard NS -->
     <g transform="translate(310.278906 343.044562) scale(0.1 -0.1)">
      <defs>
       <path id="DejaVuSans-4e" d="M 628 4666 
L 1478 4666 
L 3547 763 
L 3547 4666 
L 4159 4666 
L 4159 0 
L 3309 0 
L 1241 3903 
L 1241 0 
L 628 0 
L 628 4666 
z
" transform="scale(0.015625)"/>
       <path id="DejaVuSans-53" d="M 3425 4513 
L 3425 3897 
Q 3066 4069 2747 4153 
Q 2428 4238 2131 4238 
Q 1616 4238 1336 4038 
Q 1056 3838 1056 3469 
Q 1056 3159 1242 3001 
Q 1428 2844 1947 2747 
L 2328 2669 
Q 3034 2534 3370 2195 
Q 3706 1856 3706 1288 
Q 3706 609 3251 259 
Q 2797 -91 1919 -91 
Q 1588 -91 1214 -16 
Q 841 59 441 206 
L 441 856 
Q 825 641 1194 531 
Q 1563 422 1919 422 
Q 2459 422 2753 634 
Q 3047 847 3047 1241 
Q 3047 1584 2836 1778 
Q 2625 1972 2144 2069 
L 1759 2144 
Q 1053 2284 737 2584 
Q 422 2884 422 3419 
Q 422 4038 858 4394 
Q 1294 4750 2059 4750 
Q 2388 4750 2728 4690 
Q 3069 4631 3425 4513 
z
" transform="scale(0.015625)"/>
      </defs>
      <use xlink:href="#DejaVuSans-74"/>
      <use xlink:href="#DejaVuSans-72" transform="translate(39.208984 0)"/>
      <use xlink:href="#DejaVuSans-65" transform="translate(78.072266 0)"/>
      <use xlink:href="#DejaVuSans-65" transform="translate(139.595703 0)"/>
      <use xlink:href="#DejaVuSans-62" transform="translate(201.119141 0)"/>
      <use xlink:href="#DejaVuSans-65" transform="translate(264.595703 0)"/>
      <use xlink:href="#DejaVuSans-61" transform="translate(326.119141 0)"/>
      <use xlink:href="#DejaVuSans-72" transform="translate(387.398438 0)"/>
      <use xlink:href="#DejaVuSans-64" transform="translate(426.761719 0)"/>
      <use xlink:href="#DejaVuSans-20" transform="translate(490.238281 0)"/>
      <use xlink:href="#DejaVuSans-4e" transform="translate(522.025391 0)"/>
      <use xlink:href="#DejaVuSans-53" transform="translate(596.830078 0)"/>
     </g>
    </g>
   </g>
  </g>
 </g>
 <defs>
  <clipPath id="p0840371c9d">
   <rect x="61.715625" y="22.318125" width="357.12" height="266.112"/>
  </clipPath>
 </defs>
</svg>
