<?xml version="1.0" encoding="utf-8" standalone="no"?>
<!DOCTYPE svg PUBLIC "-//W3C//DTD SVG 1.1//EN"
  "http://www.w3.org/Graphics/SVG/1.1/DTD/svg11.dtd">
<!-- Created with matplotlib (https://matplotlib.org/) -->
<svg height="371.002375pt" version="1.1" viewBox="0 0 426.229375 371.002375" width="426.229375pt" xmlns="http://www.w3.org/2000/svg" xmlns:xlink="http://www.w3.org/1999/xlink">
 <metadata>
  <rdf:RDF xmlns:cc="http://creativecommons.org/ns#" xmlns:dc="http://purl.org/dc/elements/1.1/" xmlns:rdf="http://www.w3.org/1999/02/22-rdf-syntax-ns#">
   <cc:Work>
    <dc:type rdf:resource="http://purl.org/dc/dcmitype/StillImage"/>
    <dc:date>2023-07-05T17:39:03.583662</dc:date>
    <dc:format>image/svg+xml</dc:format>
    <dc:creator>
     <cc:Agent>
      <dc:title>Matplotlib v3.3.4, https://matplotlib.org/</dc:title>
     </cc:Agent>
    </dc:creator>
   </cc:Work>
  </rdf:RDF>
 </metadata>
 <defs>
  <style type="text/css">*{stroke-linecap:butt;stroke-linejoin:round;}</style>
 </defs>
 <g id="figure_1">
  <g id="patch_1">
   <path d="M 0 371.002375 
L 426.229375 371.002375 
L 426.229375 0 
L 0 0 
z
" style="fill:#ffffff;"/>
  </g>
  <g id="axes_1">
   <g id="patch_2">
    <path d="M 61.909375 288.430125 
L 419.029375 288.430125 
L 419.029375 22.318125 
L 61.909375 22.318125 
z
" style="fill:#ffffff;"/>
   </g>
   <g id="matplotlib.axis_1">
    <g id="xtick_1">
     <g id="line2d_1">
      <defs>
       <path d="M 0 0 
L 0 3.5 
" id="m761a2f79b2" style="stroke:#000000;stroke-width:0.8;"/>
      </defs>
      <g>
       <use style="stroke:#000000;stroke-width:0.8;" x="61.909375" xlink:href="#m761a2f79b2" y="288.430125"/>
      </g>
     </g>
     <g id="text_1">
      <!-- 0 -->
      <g transform="translate(58.728125 303.028562)scale(0.1 -0.1)">
       <defs>
        <path d="M 31.78125 66.40625 
Q 24.171875 66.40625 20.328125 58.90625 
Q 16.5 51.421875 16.5 36.375 
Q 16.5 21.390625 20.328125 13.890625 
Q 24.171875 6.390625 31.78125 6.390625 
Q 39.453125 6.390625 43.28125 13.890625 
Q 47.125 21.390625 47.125 36.375 
Q 47.125 51.421875 43.28125 58.90625 
Q 39.453125 66.40625 31.78125 66.40625 
z
M 31.78125 74.21875 
Q 44.046875 74.21875 50.515625 64.515625 
Q 56.984375 54.828125 56.984375 36.375 
Q 56.984375 17.96875 50.515625 8.265625 
Q 44.046875 -1.421875 31.78125 -1.421875 
Q 19.53125 -1.421875 13.0625 8.265625 
Q 6.59375 17.96875 6.59375 36.375 
Q 6.59375 54.828125 13.0625 64.515625 
Q 19.53125 74.21875 31.78125 74.21875 
z
" id="DejaVuSans-48"/>
       </defs>
       <use xlink:href="#DejaVuSans-48"/>
      </g>
     </g>
    </g>
    <g id="xtick_2">
     <g id="line2d_2">
      <g>
       <use style="stroke:#000000;stroke-width:0.8;" x="105.457939" xlink:href="#m761a2f79b2" y="288.430125"/>
      </g>
     </g>
     <g id="text_2">
      <!-- 500  -->
      <g transform="translate(94.325127 303.028562)scale(0.1 -0.1)">
       <defs>
        <path d="M 10.796875 72.90625 
L 49.515625 72.90625 
L 49.515625 64.59375 
L 19.828125 64.59375 
L 19.828125 46.734375 
Q 21.96875 47.46875 24.109375 47.828125 
Q 26.265625 48.1875 28.421875 48.1875 
Q 40.625 48.1875 47.75 41.5 
Q 54.890625 34.8125 54.890625 23.390625 
Q 54.890625 11.625 47.5625 5.09375 
Q 40.234375 -1.421875 26.90625 -1.421875 
Q 22.3125 -1.421875 17.546875 -0.640625 
Q 12.796875 0.140625 7.71875 1.703125 
L 7.71875 11.625 
Q 12.109375 9.234375 16.796875 8.0625 
Q 21.484375 6.890625 26.703125 6.890625 
Q 35.15625 6.890625 40.078125 11.328125 
Q 45.015625 15.765625 45.015625 23.390625 
Q 45.015625 31 40.078125 35.4375 
Q 35.15625 39.890625 26.703125 39.890625 
Q 22.75 39.890625 18.8125 39.015625 
Q 14.890625 38.140625 10.796875 36.28125 
z
" id="DejaVuSans-53"/>
        <path id="DejaVuSans-32"/>
       </defs>
       <use xlink:href="#DejaVuSans-53"/>
       <use x="63.623047" xlink:href="#DejaVuSans-48"/>
       <use x="127.246094" xlink:href="#DejaVuSans-48"/>
       <use x="190.869141" xlink:href="#DejaVuSans-32"/>
      </g>
     </g>
    </g>
    <g id="xtick_3">
     <g id="line2d_3">
      <g>
       <use style="stroke:#000000;stroke-width:0.8;" x="149.006503" xlink:href="#m761a2f79b2" y="288.430125"/>
      </g>
     </g>
     <g id="text_3">
      <!-- 1 k -->
      <g transform="translate(141.340878 303.028562)scale(0.1 -0.1)">
       <defs>
        <path d="M 12.40625 8.296875 
L 28.515625 8.296875 
L 28.515625 63.921875 
L 10.984375 60.40625 
L 10.984375 69.390625 
L 28.421875 72.90625 
L 38.28125 72.90625 
L 38.28125 8.296875 
L 54.390625 8.296875 
L 54.390625 0 
L 12.40625 0 
z
" id="DejaVuSans-49"/>
        <path d="M 9.078125 75.984375 
L 18.109375 75.984375 
L 18.109375 31.109375 
L 44.921875 54.6875 
L 56.390625 54.6875 
L 27.390625 29.109375 
L 57.625 0 
L 45.90625 0 
L 18.109375 26.703125 
L 18.109375 0 
L 9.078125 0 
z
" id="DejaVuSans-107"/>
       </defs>
       <use xlink:href="#DejaVuSans-49"/>
       <use x="63.623047" xlink:href="#DejaVuSans-32"/>
       <use x="95.410156" xlink:href="#DejaVuSans-107"/>
      </g>
     </g>
    </g>
    <g id="xtick_4">
     <g id="line2d_4">
      <g>
       <use style="stroke:#000000;stroke-width:0.8;" x="192.555067" xlink:href="#m761a2f79b2" y="288.430125"/>
      </g>
     </g>
     <g id="text_4">
      <!-- 1.5 k -->
      <g transform="translate(180.11913 303.028562)scale(0.1 -0.1)">
       <defs>
        <path d="M 10.6875 12.40625 
L 21 12.40625 
L 21 0 
L 10.6875 0 
z
" id="DejaVuSans-46"/>
       </defs>
       <use xlink:href="#DejaVuSans-49"/>
       <use x="63.623047" xlink:href="#DejaVuSans-46"/>
       <use x="95.410156" xlink:href="#DejaVuSans-53"/>
       <use x="159.033203" xlink:href="#DejaVuSans-32"/>
       <use x="190.820312" xlink:href="#DejaVuSans-107"/>
      </g>
     </g>
    </g>
    <g id="xtick_5">
     <g id="line2d_5">
      <g>
       <use style="stroke:#000000;stroke-width:0.8;" x="236.103631" xlink:href="#m761a2f79b2" y="288.430125"/>
      </g>
     </g>
     <g id="text_5">
      <!-- 2 k -->
      <g transform="translate(228.438006 303.028562)scale(0.1 -0.1)">
       <defs>
        <path d="M 19.1875 8.296875 
L 53.609375 8.296875 
L 53.609375 0 
L 7.328125 0 
L 7.328125 8.296875 
Q 12.9375 14.109375 22.625 23.890625 
Q 32.328125 33.6875 34.8125 36.53125 
Q 39.546875 41.84375 41.421875 45.53125 
Q 43.3125 49.21875 43.3125 52.78125 
Q 43.3125 58.59375 39.234375 62.25 
Q 35.15625 65.921875 28.609375 65.921875 
Q 23.96875 65.921875 18.8125 64.3125 
Q 13.671875 62.703125 7.8125 59.421875 
L 7.8125 69.390625 
Q 13.765625 71.78125 18.9375 73 
Q 24.125 74.21875 28.421875 74.21875 
Q 39.75 74.21875 46.484375 68.546875 
Q 53.21875 62.890625 53.21875 53.421875 
Q 53.21875 48.921875 51.53125 44.890625 
Q 49.859375 40.875 45.40625 35.40625 
Q 44.1875 33.984375 37.640625 27.21875 
Q 31.109375 20.453125 19.1875 8.296875 
z
" id="DejaVuSans-50"/>
       </defs>
       <use xlink:href="#DejaVuSans-50"/>
       <use x="63.623047" xlink:href="#DejaVuSans-32"/>
       <use x="95.410156" xlink:href="#DejaVuSans-107"/>
      </g>
     </g>
    </g>
    <g id="xtick_6">
     <g id="line2d_6">
      <g>
       <use style="stroke:#000000;stroke-width:0.8;" x="279.652196" xlink:href="#m761a2f79b2" y="288.430125"/>
      </g>
     </g>
     <g id="text_6">
      <!-- 2.5 k -->
      <g transform="translate(267.216258 303.028562)scale(0.1 -0.1)">
       <use xlink:href="#DejaVuSans-50"/>
       <use x="63.623047" xlink:href="#DejaVuSans-46"/>
       <use x="95.410156" xlink:href="#DejaVuSans-53"/>
       <use x="159.033203" xlink:href="#DejaVuSans-32"/>
       <use x="190.820312" xlink:href="#DejaVuSans-107"/>
      </g>
     </g>
    </g>
    <g id="xtick_7">
     <g id="line2d_7">
      <g>
       <use style="stroke:#000000;stroke-width:0.8;" x="323.20076" xlink:href="#m761a2f79b2" y="288.430125"/>
      </g>
     </g>
     <g id="text_7">
      <!-- 3 k -->
      <g transform="translate(315.535135 303.028562)scale(0.1 -0.1)">
       <defs>
        <path d="M 40.578125 39.3125 
Q 47.65625 37.796875 51.625 33 
Q 55.609375 28.21875 55.609375 21.1875 
Q 55.609375 10.40625 48.1875 4.484375 
Q 40.765625 -1.421875 27.09375 -1.421875 
Q 22.515625 -1.421875 17.65625 -0.515625 
Q 12.796875 0.390625 7.625 2.203125 
L 7.625 11.71875 
Q 11.71875 9.328125 16.59375 8.109375 
Q 21.484375 6.890625 26.8125 6.890625 
Q 36.078125 6.890625 40.9375 10.546875 
Q 45.796875 14.203125 45.796875 21.1875 
Q 45.796875 27.640625 41.28125 31.265625 
Q 36.765625 34.90625 28.71875 34.90625 
L 20.21875 34.90625 
L 20.21875 43.015625 
L 29.109375 43.015625 
Q 36.375 43.015625 40.234375 45.921875 
Q 44.09375 48.828125 44.09375 54.296875 
Q 44.09375 59.90625 40.109375 62.90625 
Q 36.140625 65.921875 28.71875 65.921875 
Q 24.65625 65.921875 20.015625 65.03125 
Q 15.375 64.15625 9.8125 62.3125 
L 9.8125 71.09375 
Q 15.4375 72.65625 20.34375 73.4375 
Q 25.25 74.21875 29.59375 74.21875 
Q 40.828125 74.21875 47.359375 69.109375 
Q 53.90625 64.015625 53.90625 55.328125 
Q 53.90625 49.265625 50.4375 45.09375 
Q 46.96875 40.921875 40.578125 39.3125 
z
" id="DejaVuSans-51"/>
       </defs>
       <use xlink:href="#DejaVuSans-51"/>
       <use x="63.623047" xlink:href="#DejaVuSans-32"/>
       <use x="95.410156" xlink:href="#DejaVuSans-107"/>
      </g>
     </g>
    </g>
    <g id="xtick_8">
     <g id="line2d_8">
      <g>
       <use style="stroke:#000000;stroke-width:0.8;" x="366.749324" xlink:href="#m761a2f79b2" y="288.430125"/>
      </g>
     </g>
     <g id="text_8">
      <!-- 3.5 k -->
      <g transform="translate(354.313386 303.028562)scale(0.1 -0.1)">
       <use xlink:href="#DejaVuSans-51"/>
       <use x="63.623047" xlink:href="#DejaVuSans-46"/>
       <use x="95.410156" xlink:href="#DejaVuSans-53"/>
       <use x="159.033203" xlink:href="#DejaVuSans-32"/>
       <use x="190.820312" xlink:href="#DejaVuSans-107"/>
      </g>
     </g>
    </g>
    <g id="xtick_9">
     <g id="line2d_9">
      <g>
       <use style="stroke:#000000;stroke-width:0.8;" x="410.297888" xlink:href="#m761a2f79b2" y="288.430125"/>
      </g>
     </g>
     <g id="text_9">
      <!-- 4 k -->
      <g transform="translate(402.632263 303.028562)scale(0.1 -0.1)">
       <defs>
        <path d="M 37.796875 64.3125 
L 12.890625 25.390625 
L 37.796875 25.390625 
z
M 35.203125 72.90625 
L 47.609375 72.90625 
L 47.609375 25.390625 
L 58.015625 25.390625 
L 58.015625 17.1875 
L 47.609375 17.1875 
L 47.609375 0 
L 37.796875 0 
L 37.796875 17.1875 
L 4.890625 17.1875 
L 4.890625 26.703125 
z
" id="DejaVuSans-52"/>
       </defs>
       <use xlink:href="#DejaVuSans-52"/>
       <use x="63.623047" xlink:href="#DejaVuSans-32"/>
       <use x="95.410156" xlink:href="#DejaVuSans-107"/>
      </g>
     </g>
    </g>
    <g id="text_10">
     <!-- Amount of objects in table -->
     <g transform="translate(174.410781 316.706687)scale(0.1 -0.1)">
      <defs>
       <path d="M 34.1875 63.1875 
L 20.796875 26.90625 
L 47.609375 26.90625 
z
M 28.609375 72.90625 
L 39.796875 72.90625 
L 67.578125 0 
L 57.328125 0 
L 50.6875 18.703125 
L 17.828125 18.703125 
L 11.1875 0 
L 0.78125 0 
z
" id="DejaVuSans-65"/>
       <path d="M 52 44.1875 
Q 55.375 50.25 60.0625 53.125 
Q 64.75 56 71.09375 56 
Q 79.640625 56 84.28125 50.015625 
Q 88.921875 44.046875 88.921875 33.015625 
L 88.921875 0 
L 79.890625 0 
L 79.890625 32.71875 
Q 79.890625 40.578125 77.09375 44.375 
Q 74.3125 48.1875 68.609375 48.1875 
Q 61.625 48.1875 57.5625 43.546875 
Q 53.515625 38.921875 53.515625 30.90625 
L 53.515625 0 
L 44.484375 0 
L 44.484375 32.71875 
Q 44.484375 40.625 41.703125 44.40625 
Q 38.921875 48.1875 33.109375 48.1875 
Q 26.21875 48.1875 22.15625 43.53125 
Q 18.109375 38.875 18.109375 30.90625 
L 18.109375 0 
L 9.078125 0 
L 9.078125 54.6875 
L 18.109375 54.6875 
L 18.109375 46.1875 
Q 21.1875 51.21875 25.484375 53.609375 
Q 29.78125 56 35.6875 56 
Q 41.65625 56 45.828125 52.96875 
Q 50 49.953125 52 44.1875 
z
" id="DejaVuSans-109"/>
       <path d="M 30.609375 48.390625 
Q 23.390625 48.390625 19.1875 42.75 
Q 14.984375 37.109375 14.984375 27.296875 
Q 14.984375 17.484375 19.15625 11.84375 
Q 23.34375 6.203125 30.609375 6.203125 
Q 37.796875 6.203125 41.984375 11.859375 
Q 46.1875 17.53125 46.1875 27.296875 
Q 46.1875 37.015625 41.984375 42.703125 
Q 37.796875 48.390625 30.609375 48.390625 
z
M 30.609375 56 
Q 42.328125 56 49.015625 48.375 
Q 55.71875 40.765625 55.71875 27.296875 
Q 55.71875 13.875 49.015625 6.21875 
Q 42.328125 -1.421875 30.609375 -1.421875 
Q 18.84375 -1.421875 12.171875 6.21875 
Q 5.515625 13.875 5.515625 27.296875 
Q 5.515625 40.765625 12.171875 48.375 
Q 18.84375 56 30.609375 56 
z
" id="DejaVuSans-111"/>
       <path d="M 8.5 21.578125 
L 8.5 54.6875 
L 17.484375 54.6875 
L 17.484375 21.921875 
Q 17.484375 14.15625 20.5 10.265625 
Q 23.53125 6.390625 29.59375 6.390625 
Q 36.859375 6.390625 41.078125 11.03125 
Q 45.3125 15.671875 45.3125 23.6875 
L 45.3125 54.6875 
L 54.296875 54.6875 
L 54.296875 0 
L 45.3125 0 
L 45.3125 8.40625 
Q 42.046875 3.421875 37.71875 1 
Q 33.40625 -1.421875 27.6875 -1.421875 
Q 18.265625 -1.421875 13.375 4.4375 
Q 8.5 10.296875 8.5 21.578125 
z
M 31.109375 56 
z
" id="DejaVuSans-117"/>
       <path d="M 54.890625 33.015625 
L 54.890625 0 
L 45.90625 0 
L 45.90625 32.71875 
Q 45.90625 40.484375 42.875 44.328125 
Q 39.84375 48.1875 33.796875 48.1875 
Q 26.515625 48.1875 22.3125 43.546875 
Q 18.109375 38.921875 18.109375 30.90625 
L 18.109375 0 
L 9.078125 0 
L 9.078125 54.6875 
L 18.109375 54.6875 
L 18.109375 46.1875 
Q 21.34375 51.125 25.703125 53.5625 
Q 30.078125 56 35.796875 56 
Q 45.21875 56 50.046875 50.171875 
Q 54.890625 44.34375 54.890625 33.015625 
z
" id="DejaVuSans-110"/>
       <path d="M 18.3125 70.21875 
L 18.3125 54.6875 
L 36.8125 54.6875 
L 36.8125 47.703125 
L 18.3125 47.703125 
L 18.3125 18.015625 
Q 18.3125 11.328125 20.140625 9.421875 
Q 21.96875 7.515625 27.59375 7.515625 
L 36.8125 7.515625 
L 36.8125 0 
L 27.59375 0 
Q 17.1875 0 13.234375 3.875 
Q 9.28125 7.765625 9.28125 18.015625 
L 9.28125 47.703125 
L 2.6875 47.703125 
L 2.6875 54.6875 
L 9.28125 54.6875 
L 9.28125 70.21875 
z
" id="DejaVuSans-116"/>
       <path d="M 37.109375 75.984375 
L 37.109375 68.5 
L 28.515625 68.5 
Q 23.6875 68.5 21.796875 66.546875 
Q 19.921875 64.59375 19.921875 59.515625 
L 19.921875 54.6875 
L 34.71875 54.6875 
L 34.71875 47.703125 
L 19.921875 47.703125 
L 19.921875 0 
L 10.890625 0 
L 10.890625 47.703125 
L 2.296875 47.703125 
L 2.296875 54.6875 
L 10.890625 54.6875 
L 10.890625 58.5 
Q 10.890625 67.625 15.140625 71.796875 
Q 19.390625 75.984375 28.609375 75.984375 
z
" id="DejaVuSans-102"/>
       <path d="M 48.6875 27.296875 
Q 48.6875 37.203125 44.609375 42.84375 
Q 40.53125 48.484375 33.40625 48.484375 
Q 26.265625 48.484375 22.1875 42.84375 
Q 18.109375 37.203125 18.109375 27.296875 
Q 18.109375 17.390625 22.1875 11.75 
Q 26.265625 6.109375 33.40625 6.109375 
Q 40.53125 6.109375 44.609375 11.75 
Q 48.6875 17.390625 48.6875 27.296875 
z
M 18.109375 46.390625 
Q 20.953125 51.265625 25.265625 53.625 
Q 29.59375 56 35.59375 56 
Q 45.5625 56 51.78125 48.09375 
Q 58.015625 40.1875 58.015625 27.296875 
Q 58.015625 14.40625 51.78125 6.484375 
Q 45.5625 -1.421875 35.59375 -1.421875 
Q 29.59375 -1.421875 25.265625 0.953125 
Q 20.953125 3.328125 18.109375 8.203125 
L 18.109375 0 
L 9.078125 0 
L 9.078125 75.984375 
L 18.109375 75.984375 
z
" id="DejaVuSans-98"/>
       <path d="M 9.421875 54.6875 
L 18.40625 54.6875 
L 18.40625 -0.984375 
Q 18.40625 -11.421875 14.421875 -16.109375 
Q 10.453125 -20.796875 1.609375 -20.796875 
L -1.8125 -20.796875 
L -1.8125 -13.1875 
L 0.59375 -13.1875 
Q 5.71875 -13.1875 7.5625 -10.8125 
Q 9.421875 -8.453125 9.421875 -0.984375 
z
M 9.421875 75.984375 
L 18.40625 75.984375 
L 18.40625 64.59375 
L 9.421875 64.59375 
z
" id="DejaVuSans-106"/>
       <path d="M 56.203125 29.59375 
L 56.203125 25.203125 
L 14.890625 25.203125 
Q 15.484375 15.921875 20.484375 11.0625 
Q 25.484375 6.203125 34.421875 6.203125 
Q 39.59375 6.203125 44.453125 7.46875 
Q 49.3125 8.734375 54.109375 11.28125 
L 54.109375 2.78125 
Q 49.265625 0.734375 44.1875 -0.34375 
Q 39.109375 -1.421875 33.890625 -1.421875 
Q 20.796875 -1.421875 13.15625 6.1875 
Q 5.515625 13.8125 5.515625 26.8125 
Q 5.515625 40.234375 12.765625 48.109375 
Q 20.015625 56 32.328125 56 
Q 43.359375 56 49.78125 48.890625 
Q 56.203125 41.796875 56.203125 29.59375 
z
M 47.21875 32.234375 
Q 47.125 39.59375 43.09375 43.984375 
Q 39.0625 48.390625 32.421875 48.390625 
Q 24.90625 48.390625 20.390625 44.140625 
Q 15.875 39.890625 15.1875 32.171875 
z
" id="DejaVuSans-101"/>
       <path d="M 48.78125 52.59375 
L 48.78125 44.1875 
Q 44.96875 46.296875 41.140625 47.34375 
Q 37.3125 48.390625 33.40625 48.390625 
Q 24.65625 48.390625 19.8125 42.84375 
Q 14.984375 37.3125 14.984375 27.296875 
Q 14.984375 17.28125 19.8125 11.734375 
Q 24.65625 6.203125 33.40625 6.203125 
Q 37.3125 6.203125 41.140625 7.25 
Q 44.96875 8.296875 48.78125 10.40625 
L 48.78125 2.09375 
Q 45.015625 0.34375 40.984375 -0.53125 
Q 36.96875 -1.421875 32.421875 -1.421875 
Q 20.0625 -1.421875 12.78125 6.34375 
Q 5.515625 14.109375 5.515625 27.296875 
Q 5.515625 40.671875 12.859375 48.328125 
Q 20.21875 56 33.015625 56 
Q 37.15625 56 41.109375 55.140625 
Q 45.0625 54.296875 48.78125 52.59375 
z
" id="DejaVuSans-99"/>
       <path d="M 44.28125 53.078125 
L 44.28125 44.578125 
Q 40.484375 46.53125 36.375 47.5 
Q 32.28125 48.484375 27.875 48.484375 
Q 21.1875 48.484375 17.84375 46.4375 
Q 14.5 44.390625 14.5 40.28125 
Q 14.5 37.15625 16.890625 35.375 
Q 19.28125 33.59375 26.515625 31.984375 
L 29.59375 31.296875 
Q 39.15625 29.25 43.1875 25.515625 
Q 47.21875 21.78125 47.21875 15.09375 
Q 47.21875 7.46875 41.1875 3.015625 
Q 35.15625 -1.421875 24.609375 -1.421875 
Q 20.21875 -1.421875 15.453125 -0.5625 
Q 10.6875 0.296875 5.421875 2 
L 5.421875 11.28125 
Q 10.40625 8.6875 15.234375 7.390625 
Q 20.0625 6.109375 24.8125 6.109375 
Q 31.15625 6.109375 34.5625 8.28125 
Q 37.984375 10.453125 37.984375 14.40625 
Q 37.984375 18.0625 35.515625 20.015625 
Q 33.0625 21.96875 24.703125 23.78125 
L 21.578125 24.515625 
Q 13.234375 26.265625 9.515625 29.90625 
Q 5.8125 33.546875 5.8125 39.890625 
Q 5.8125 47.609375 11.28125 51.796875 
Q 16.75 56 26.8125 56 
Q 31.78125 56 36.171875 55.265625 
Q 40.578125 54.546875 44.28125 53.078125 
z
" id="DejaVuSans-115"/>
       <path d="M 9.421875 54.6875 
L 18.40625 54.6875 
L 18.40625 0 
L 9.421875 0 
z
M 9.421875 75.984375 
L 18.40625 75.984375 
L 18.40625 64.59375 
L 9.421875 64.59375 
z
" id="DejaVuSans-105"/>
       <path d="M 34.28125 27.484375 
Q 23.390625 27.484375 19.1875 25 
Q 14.984375 22.515625 14.984375 16.5 
Q 14.984375 11.71875 18.140625 8.90625 
Q 21.296875 6.109375 26.703125 6.109375 
Q 34.1875 6.109375 38.703125 11.40625 
Q 43.21875 16.703125 43.21875 25.484375 
L 43.21875 27.484375 
z
M 52.203125 31.203125 
L 52.203125 0 
L 43.21875 0 
L 43.21875 8.296875 
Q 40.140625 3.328125 35.546875 0.953125 
Q 30.953125 -1.421875 24.3125 -1.421875 
Q 15.921875 -1.421875 10.953125 3.296875 
Q 6 8.015625 6 15.921875 
Q 6 25.140625 12.171875 29.828125 
Q 18.359375 34.515625 30.609375 34.515625 
L 43.21875 34.515625 
L 43.21875 35.40625 
Q 43.21875 41.609375 39.140625 45 
Q 35.0625 48.390625 27.6875 48.390625 
Q 23 48.390625 18.546875 47.265625 
Q 14.109375 46.140625 10.015625 43.890625 
L 10.015625 52.203125 
Q 14.9375 54.109375 19.578125 55.046875 
Q 24.21875 56 28.609375 56 
Q 40.484375 56 46.34375 49.84375 
Q 52.203125 43.703125 52.203125 31.203125 
z
" id="DejaVuSans-97"/>
       <path d="M 9.421875 75.984375 
L 18.40625 75.984375 
L 18.40625 0 
L 9.421875 0 
z
" id="DejaVuSans-108"/>
      </defs>
      <use xlink:href="#DejaVuSans-65"/>
      <use x="68.408203" xlink:href="#DejaVuSans-109"/>
      <use x="165.820312" xlink:href="#DejaVuSans-111"/>
      <use x="227.001953" xlink:href="#DejaVuSans-117"/>
      <use x="290.380859" xlink:href="#DejaVuSans-110"/>
      <use x="353.759766" xlink:href="#DejaVuSans-116"/>
      <use x="392.96875" xlink:href="#DejaVuSans-32"/>
      <use x="424.755859" xlink:href="#DejaVuSans-111"/>
      <use x="485.9375" xlink:href="#DejaVuSans-102"/>
      <use x="521.142578" xlink:href="#DejaVuSans-32"/>
      <use x="552.929688" xlink:href="#DejaVuSans-111"/>
      <use x="614.111328" xlink:href="#DejaVuSans-98"/>
      <use x="677.587891" xlink:href="#DejaVuSans-106"/>
      <use x="705.371094" xlink:href="#DejaVuSans-101"/>
      <use x="766.894531" xlink:href="#DejaVuSans-99"/>
      <use x="821.875" xlink:href="#DejaVuSans-116"/>
      <use x="861.083984" xlink:href="#DejaVuSans-115"/>
      <use x="913.183594" xlink:href="#DejaVuSans-32"/>
      <use x="944.970703" xlink:href="#DejaVuSans-105"/>
      <use x="972.753906" xlink:href="#DejaVuSans-110"/>
      <use x="1036.132812" xlink:href="#DejaVuSans-32"/>
      <use x="1067.919922" xlink:href="#DejaVuSans-116"/>
      <use x="1107.128906" xlink:href="#DejaVuSans-97"/>
      <use x="1168.408203" xlink:href="#DejaVuSans-98"/>
      <use x="1231.884766" xlink:href="#DejaVuSans-108"/>
      <use x="1259.667969" xlink:href="#DejaVuSans-101"/>
     </g>
    </g>
   </g>
   <g id="matplotlib.axis_2">
    <g id="ytick_1">
     <g id="line2d_10">
      <defs>
       <path d="M 0 0 
L -3.5 0 
" id="me88c48cce9" style="stroke:#000000;stroke-width:0.8;"/>
      </defs>
      <g>
       <use style="stroke:#000000;stroke-width:0.8;" x="61.909375" xlink:href="#me88c48cce9" y="288.430125"/>
      </g>
     </g>
     <g id="text_11">
      <!-- 0 -->
      <g transform="translate(48.546875 292.229344)scale(0.1 -0.1)">
       <use xlink:href="#DejaVuSans-48"/>
      </g>
     </g>
    </g>
    <g id="ytick_2">
     <g id="line2d_11">
      <g>
       <use style="stroke:#000000;stroke-width:0.8;" x="61.909375" xlink:href="#me88c48cce9" y="241.770918"/>
      </g>
     </g>
     <g id="text_12">
      <!-- 500 µs -->
      <g transform="translate(21.071875 245.570137)scale(0.1 -0.1)">
       <defs>
        <path d="M 8.5 -20.796875 
L 8.5 54.6875 
L 17.484375 54.6875 
L 17.484375 20.703125 
Q 17.484375 13.625 20.84375 10 
Q 24.21875 6.390625 30.8125 6.390625 
Q 38.03125 6.390625 41.671875 10.484375 
Q 45.3125 14.59375 45.3125 22.796875 
L 45.3125 54.6875 
L 54.296875 54.6875 
L 54.296875 12.59375 
Q 54.296875 9.671875 55.140625 8.28125 
Q 56 6.890625 57.8125 6.890625 
Q 58.25 6.890625 59.03125 7.15625 
Q 59.8125 7.421875 61.1875 8.015625 
L 61.1875 0.78125 
Q 59.1875 -0.34375 57.390625 -0.875 
Q 55.609375 -1.421875 53.90625 -1.421875 
Q 50.53125 -1.421875 48.53125 0.484375 
Q 46.53125 2.390625 45.796875 6.296875 
Q 43.359375 2.4375 39.8125 0.5 
Q 36.28125 -1.421875 31.5 -1.421875 
Q 26.515625 -1.421875 23.015625 0.484375 
Q 19.53125 2.390625 17.484375 6.203125 
L 17.484375 -20.796875 
z
" id="DejaVuSans-181"/>
       </defs>
       <use xlink:href="#DejaVuSans-53"/>
       <use x="63.623047" xlink:href="#DejaVuSans-48"/>
       <use x="127.246094" xlink:href="#DejaVuSans-48"/>
       <use x="190.869141" xlink:href="#DejaVuSans-32"/>
       <use x="222.65625" xlink:href="#DejaVuSans-181"/>
       <use x="286.279297" xlink:href="#DejaVuSans-115"/>
      </g>
     </g>
    </g>
    <g id="ytick_3">
     <g id="line2d_12">
      <g>
       <use style="stroke:#000000;stroke-width:0.8;" x="61.909375" xlink:href="#me88c48cce9" y="195.111711"/>
      </g>
     </g>
     <g id="text_13">
      <!-- 1 ms -->
      <g transform="translate(30.41875 198.91093)scale(0.1 -0.1)">
       <use xlink:href="#DejaVuSans-49"/>
       <use x="63.623047" xlink:href="#DejaVuSans-32"/>
       <use x="95.410156" xlink:href="#DejaVuSans-109"/>
       <use x="192.822266" xlink:href="#DejaVuSans-115"/>
      </g>
     </g>
    </g>
    <g id="ytick_4">
     <g id="line2d_13">
      <g>
       <use style="stroke:#000000;stroke-width:0.8;" x="61.909375" xlink:href="#me88c48cce9" y="148.452505"/>
      </g>
     </g>
     <g id="text_14">
      <!-- 1.5 ms -->
      <g transform="translate(20.878125 152.251723)scale(0.1 -0.1)">
       <use xlink:href="#DejaVuSans-49"/>
       <use x="63.623047" xlink:href="#DejaVuSans-46"/>
       <use x="95.410156" xlink:href="#DejaVuSans-53"/>
       <use x="159.033203" xlink:href="#DejaVuSans-32"/>
       <use x="190.820312" xlink:href="#DejaVuSans-109"/>
       <use x="288.232422" xlink:href="#DejaVuSans-115"/>
      </g>
     </g>
    </g>
    <g id="ytick_5">
     <g id="line2d_14">
      <g>
       <use style="stroke:#000000;stroke-width:0.8;" x="61.909375" xlink:href="#me88c48cce9" y="101.793298"/>
      </g>
     </g>
     <g id="text_15">
      <!-- 2 ms -->
      <g transform="translate(30.41875 105.592517)scale(0.1 -0.1)">
       <use xlink:href="#DejaVuSans-50"/>
       <use x="63.623047" xlink:href="#DejaVuSans-32"/>
       <use x="95.410156" xlink:href="#DejaVuSans-109"/>
       <use x="192.822266" xlink:href="#DejaVuSans-115"/>
      </g>
     </g>
    </g>
    <g id="ytick_6">
     <g id="line2d_15">
      <g>
       <use style="stroke:#000000;stroke-width:0.8;" x="61.909375" xlink:href="#me88c48cce9" y="55.134091"/>
      </g>
     </g>
     <g id="text_16">
      <!-- 2.5 ms -->
      <g transform="translate(20.878125 58.93331)scale(0.1 -0.1)">
       <use xlink:href="#DejaVuSans-50"/>
       <use x="63.623047" xlink:href="#DejaVuSans-46"/>
       <use x="95.410156" xlink:href="#DejaVuSans-53"/>
       <use x="159.033203" xlink:href="#DejaVuSans-32"/>
       <use x="190.820312" xlink:href="#DejaVuSans-109"/>
       <use x="288.232422" xlink:href="#DejaVuSans-115"/>
      </g>
     </g>
    </g>
    <g id="text_17">
     <!-- Read latency (s) -->
     <g transform="translate(14.798438 195.98975)rotate(-90)scale(0.1 -0.1)">
      <defs>
       <path d="M 44.390625 34.1875 
Q 47.5625 33.109375 50.5625 29.59375 
Q 53.5625 26.078125 56.59375 19.921875 
L 66.609375 0 
L 56 0 
L 46.6875 18.703125 
Q 43.0625 26.03125 39.671875 28.421875 
Q 36.28125 30.8125 30.421875 30.8125 
L 19.671875 30.8125 
L 19.671875 0 
L 9.8125 0 
L 9.8125 72.90625 
L 32.078125 72.90625 
Q 44.578125 72.90625 50.734375 67.671875 
Q 56.890625 62.453125 56.890625 51.90625 
Q 56.890625 45.015625 53.6875 40.46875 
Q 50.484375 35.9375 44.390625 34.1875 
z
M 19.671875 64.796875 
L 19.671875 38.921875 
L 32.078125 38.921875 
Q 39.203125 38.921875 42.84375 42.21875 
Q 46.484375 45.515625 46.484375 51.90625 
Q 46.484375 58.296875 42.84375 61.546875 
Q 39.203125 64.796875 32.078125 64.796875 
z
" id="DejaVuSans-82"/>
       <path d="M 45.40625 46.390625 
L 45.40625 75.984375 
L 54.390625 75.984375 
L 54.390625 0 
L 45.40625 0 
L 45.40625 8.203125 
Q 42.578125 3.328125 38.25 0.953125 
Q 33.9375 -1.421875 27.875 -1.421875 
Q 17.96875 -1.421875 11.734375 6.484375 
Q 5.515625 14.40625 5.515625 27.296875 
Q 5.515625 40.1875 11.734375 48.09375 
Q 17.96875 56 27.875 56 
Q 33.9375 56 38.25 53.625 
Q 42.578125 51.265625 45.40625 46.390625 
z
M 14.796875 27.296875 
Q 14.796875 17.390625 18.875 11.75 
Q 22.953125 6.109375 30.078125 6.109375 
Q 37.203125 6.109375 41.296875 11.75 
Q 45.40625 17.390625 45.40625 27.296875 
Q 45.40625 37.203125 41.296875 42.84375 
Q 37.203125 48.484375 30.078125 48.484375 
Q 22.953125 48.484375 18.875 42.84375 
Q 14.796875 37.203125 14.796875 27.296875 
z
" id="DejaVuSans-100"/>
       <path d="M 32.171875 -5.078125 
Q 28.375 -14.84375 24.75 -17.8125 
Q 21.140625 -20.796875 15.09375 -20.796875 
L 7.90625 -20.796875 
L 7.90625 -13.28125 
L 13.1875 -13.28125 
Q 16.890625 -13.28125 18.9375 -11.515625 
Q 21 -9.765625 23.484375 -3.21875 
L 25.09375 0.875 
L 2.984375 54.6875 
L 12.5 54.6875 
L 29.59375 11.921875 
L 46.6875 54.6875 
L 56.203125 54.6875 
z
" id="DejaVuSans-121"/>
       <path d="M 31 75.875 
Q 24.46875 64.65625 21.28125 53.65625 
Q 18.109375 42.671875 18.109375 31.390625 
Q 18.109375 20.125 21.3125 9.0625 
Q 24.515625 -2 31 -13.1875 
L 23.1875 -13.1875 
Q 15.875 -1.703125 12.234375 9.375 
Q 8.59375 20.453125 8.59375 31.390625 
Q 8.59375 42.28125 12.203125 53.3125 
Q 15.828125 64.359375 23.1875 75.875 
z
" id="DejaVuSans-40"/>
       <path d="M 8.015625 75.875 
L 15.828125 75.875 
Q 23.140625 64.359375 26.78125 53.3125 
Q 30.421875 42.28125 30.421875 31.390625 
Q 30.421875 20.453125 26.78125 9.375 
Q 23.140625 -1.703125 15.828125 -13.1875 
L 8.015625 -13.1875 
Q 14.5 -2 17.703125 9.0625 
Q 20.90625 20.125 20.90625 31.390625 
Q 20.90625 42.671875 17.703125 53.65625 
Q 14.5 64.65625 8.015625 75.875 
z
" id="DejaVuSans-41"/>
      </defs>
      <use xlink:href="#DejaVuSans-82"/>
      <use x="64.982422" xlink:href="#DejaVuSans-101"/>
      <use x="126.505859" xlink:href="#DejaVuSans-97"/>
      <use x="187.785156" xlink:href="#DejaVuSans-100"/>
      <use x="251.261719" xlink:href="#DejaVuSans-32"/>
      <use x="283.048828" xlink:href="#DejaVuSans-108"/>
      <use x="310.832031" xlink:href="#DejaVuSans-97"/>
      <use x="372.111328" xlink:href="#DejaVuSans-116"/>
      <use x="411.320312" xlink:href="#DejaVuSans-101"/>
      <use x="472.84375" xlink:href="#DejaVuSans-110"/>
      <use x="536.222656" xlink:href="#DejaVuSans-99"/>
      <use x="591.203125" xlink:href="#DejaVuSans-121"/>
      <use x="650.382812" xlink:href="#DejaVuSans-32"/>
      <use x="682.169922" xlink:href="#DejaVuSans-40"/>
      <use x="721.183594" xlink:href="#DejaVuSans-115"/>
      <use x="773.283203" xlink:href="#DejaVuSans-41"/>
     </g>
    </g>
   </g>
   <g id="line2d_16">
    <path clip-path="url(#p1c5937bd25)" d="M 147.264561 188.420546 
L 147.700046 188.343075 
L 149.006503 188.449983 
L 149.877475 188.352773 
L 150.31296 188.416781 
L 150.748446 187.927877 
L 151.183931 187.942253 
L 151.619417 187.735054 
L 152.054903 187.876648 
L 152.490388 187.820968 
L 152.925874 188.030564 
L 153.796845 187.991087 
L 154.667817 188.586557 
L 155.974273 188.569328 
L 156.409759 188.513991 
L 157.28073 188.967982 
L 157.716216 188.396016 
L 158.151702 188.239931 
L 158.587187 188.380498 
L 159.022673 188.383465 
L 159.893644 188.260469 
L 160.32913 188.27804 
L 160.764616 188.069471 
L 161.635587 188.015389 
L 162.071072 187.625977 
L 162.942044 187.660663 
L 165.119472 186.816005 
L 165.990443 186.349122 
L 166.861415 186.30896 
L 167.2969 186.150251 
L 167.732386 185.784686 
L 168.167871 185.581594 
L 168.603357 185.701852 
L 170.780785 185.48735 
L 172.522728 185.622783 
L 172.958213 185.49682 
L 173.393699 185.581366 
L 173.829185 185.501726 
L 175.135642 185.770652 
L 176.877584 185.57201 
L 177.748556 185.727295 
L 179.490498 185.515874 
L 179.925984 185.90346 
L 180.361469 185.996221 
L 180.796955 185.753537 
L 182.103412 185.899467 
L 182.538898 185.278553 
L 182.974383 185.352374 
L 183.845355 185.021722 
L 184.716326 184.801515 
L 185.151811 184.814294 
L 185.587297 185.094401 
L 186.458268 185.089039 
L 186.893754 184.720735 
L 187.32924 184.697003 
L 187.764725 184.80916 
L 188.635697 184.704761 
L 189.506668 184.682284 
L 190.377639 183.967925 
L 190.813125 183.720564 
L 192.119582 183.934837 
L 192.555067 183.735168 
L 192.990553 183.875963 
L 193.426039 183.707785 
L 193.861524 183.728322 
L 194.732496 183.358763 
L 197.780895 182.923256 
L 198.216381 182.485125 
L 198.651866 182.415755 
L 201.26478 181.269197 
L 202.135751 181.206444 
L 203.877694 181.187847 
L 204.31318 181.425282 
L 205.184151 181.291218 
L 206.490608 181.312896 
L 206.926093 180.655358 
L 208.23255 180.537724 
L 208.668036 180.282946 
L 209.539007 180.353458 
L 210.409979 180.147628 
L 210.845464 180.635733 
L 212.587407 179.873225 
L 214.764835 179.834318 
L 215.200321 180.011054 
L 217.377749 179.830553 
L 217.813235 179.635448 
L 218.684206 180.110546 
L 219.119691 180.735339 
L 219.555177 181.110261 
L 221.29712 180.603101 
L 222.603577 180.503495 
L 223.039062 180.592376 
L 224.345519 180.48832 
L 224.781005 180.483756 
L 225.651976 180.106325 
L 226.087462 179.644461 
L 226.958433 179.372911 
L 227.393919 178.969922 
L 227.829404 179.041118 
L 229.571347 178.302343 
L 230.006832 178.512623 
L 230.877804 178.59945 
L 232.184261 178.394875 
L 232.619746 178.582108 
L 233.490718 178.278953 
L 233.926203 178.143178 
L 234.361689 178.17581 
L 235.23266 177.922971 
L 235.668146 178.376506 
L 236.103631 178.325048 
L 236.539117 178.567389 
L 237.845574 178.663002 
L 239.152031 178.289564 
L 240.023002 178.053726 
L 240.458488 177.883494 
L 241.329459 177.994738 
L 241.764945 177.82907 
L 242.20043 177.830781 
L 242.635916 178.289564 
L 243.071402 178.382439 
L 245.24883 177.815835 
L 246.119801 178.062512 
L 246.555287 177.84105 
L 246.990772 178.262865 
L 247.861744 177.764948 
L 248.732715 177.875393 
L 249.603686 178.038437 
L 250.039172 177.754907 
L 250.474658 177.84048 
L 250.910143 177.58844 
L 251.781115 177.603615 
L 252.2166 177.32636 
L 253.523057 177.867292 
L 253.958543 177.822224 
L 254.394028 177.626662 
L 255.265 177.959026 
L 256.135971 177.799861 
L 256.571457 177.292017 
L 257.442428 177.008943 
L 258.313399 176.133936 
L 258.748885 176.191897 
L 259.18437 175.531278 
L 259.619856 175.327387 
L 260.490827 175.584333 
L 260.926313 175.220707 
L 261.361799 175.024575 
L 261.797284 174.555181 
L 262.23277 174.53761 
L 262.668256 174.089096 
L 263.974712 173.585017 
L 264.845684 172.851604 
L 265.281169 172.551302 
L 265.716655 172.832778 
L 266.152141 172.445991 
L 266.587626 172.238905 
L 267.023112 171.832949 
L 267.458598 172.340565 
L 267.894083 172.130514 
L 268.765055 172.223274 
L 269.20054 172.304397 
L 269.636026 172.161776 
L 270.506997 171.69204 
L 270.942483 171.708812 
L 271.377968 171.288594 
L 271.813454 171.787197 
L 273.119911 171.604186 
L 273.990882 171.435893 
L 274.426368 171.224929 
L 275.732825 172.063425 
L 276.603796 172.019954 
L 277.039282 171.912247 
L 277.474767 172.070727 
L 277.910253 171.821312 
L 278.345739 171.85303 
L 278.781224 171.684396 
L 279.652196 171.893078 
L 280.087681 171.743726 
L 280.523167 171.469324 
L 281.394138 170.502469 
L 281.829624 170.132453 
L 282.700595 169.916354 
L 283.136081 170.109862 
L 283.571566 169.564708 
L 284.007052 169.528426 
L 284.442538 169.228922 
L 284.878023 169.468069 
L 285.313509 169.36367 
L 285.748995 169.415584 
L 286.18448 169.293957 
L 287.490937 169.251057 
L 287.926423 168.949385 
L 288.361908 168.953036 
L 288.797394 168.822624 
L 289.23288 168.327787 
L 289.668365 168.313068 
L 290.103851 168.130742 
L 290.974822 168.218254 
L 291.410308 168.198515 
L 292.281279 168.370801 
L 293.15225 168.287625 
L 293.587736 168.519469 
L 294.458707 168.462535 
L 294.894193 168.318203 
L 295.329679 168.345472 
L 295.765164 168.141011 
L 296.636136 168.689359 
L 297.071621 168.429561 
L 298.378078 168.484327 
L 298.813564 168.371486 
L 299.249049 168.464246 
L 300.990992 168.154816 
L 301.861963 168.009229 
L 302.297449 168.181059 
L 302.732935 168.543315 
L 303.603906 168.497905 
L 305.781334 168.507717 
L 306.21682 168.687191 
L 307.087791 168.724273 
L 307.958762 168.620331 
L 308.394248 168.680459 
L 309.265219 168.393278 
L 309.700705 168.466871 
L 310.13619 168.716058 
L 310.571676 168.788167 
L 311.007162 169.271822 
L 311.442647 169.475713 
L 311.878133 169.838312 
L 313.18459 170.211979 
L 313.620076 170.488663 
L 314.055561 170.5092 
L 314.491047 171.195035 
L 314.926532 170.620673 
L 315.797504 170.581081 
L 316.668475 170.608464 
L 317.539446 170.691184 
L 317.974932 170.658667 
L 318.410418 170.784516 
L 320.587846 170.845671 
L 321.023331 170.492542 
L 322.329788 170.432527 
L 322.765274 169.824849 
L 323.20076 169.515875 
L 324.507217 169.695805 
L 324.942702 169.783203 
L 325.813674 169.66865 
L 326.684645 169.019326 
L 327.12013 168.835175 
L 327.555616 168.985668 
L 327.991102 168.937633 
L 328.426587 168.521637 
L 328.862073 168.259785 
L 329.733044 168.306793 
L 330.16853 168.074949 
L 330.604016 168.321626 
L 331.039501 168.238791 
L 331.474987 168.330525 
L 331.910472 168.265034 
L 332.781444 168.706245 
L 333.216929 168.674298 
L 333.652415 168.809845 
L 334.087901 168.482958 
L 334.523386 168.552443 
L 334.958872 169.025145 
L 335.394358 169.068959 
L 335.829843 169.323736 
L 336.265329 169.304796 
L 336.700815 168.894391 
L 337.1363 169.276843 
L 337.571786 168.988635 
L 338.007271 169.065536 
L 338.442757 168.999474 
L 339.313728 169.108094 
L 340.1847 168.77128 
L 340.620185 168.79159 
L 341.055671 168.424313 
L 341.491157 168.710353 
L 342.362128 168.504751 
L 342.797614 168.958285 
L 343.233099 169.089496 
L 343.668585 169.007689 
L 344.10407 169.211579 
L 344.975042 169.249459 
L 345.410527 168.89074 
L 345.846013 169.204505 
L 346.716984 170.018471 
L 347.15247 169.978081 
L 348.023441 170.5181 
L 348.458927 170.46881 
L 348.894412 170.679661 
L 349.329898 170.72393 
L 350.200869 171.240902 
L 350.636355 171.076717 
L 351.942812 171.503553 
L 352.378298 171.2854 
L 353.684755 171.128973 
L 355.426697 171.390825 
L 355.862183 171.105583 
L 356.297668 171.257446 
L 357.16864 171.089952 
L 357.604125 170.528597 
L 358.475097 170.277356 
L 358.910582 169.738478 
L 359.346068 169.909052 
L 360.217039 169.939059 
L 360.652525 169.720907 
L 361.523496 169.541661 
L 362.829953 169.132282 
L 363.265439 169.091436 
L 363.700924 168.771623 
L 364.571896 168.55347 
L 365.007381 168.165199 
L 365.442867 168.217341 
L 366.313838 168.980648 
L 366.749324 169.315407 
L 367.184809 169.438746 
L 367.620295 169.419463 
L 368.055781 169.566534 
L 368.491266 169.9661 
L 369.362238 170.009913 
L 369.797723 169.642522 
L 370.233209 169.470236 
L 370.668695 169.543486 
L 371.10418 169.806821 
L 371.539666 169.842648 
L 371.975151 169.535614 
L 372.410637 169.461451 
L 372.846123 169.653932 
L 373.281608 169.519526 
L 373.717094 169.609891 
L 375.023551 169.478223 
L 375.459037 169.423343 
L 375.894522 168.863813 
L 376.765494 168.978366 
L 377.200979 168.932499 
L 377.636465 169.064395 
L 379.378407 168.684909 
L 379.813893 168.795013 
L 380.249379 168.690158 
L 381.12035 168.864041 
L 381.555836 168.812583 
L 381.991321 169.193324 
L 382.426807 168.701453 
L 383.297778 168.348096 
L 383.733264 168.401379 
L 384.168749 168.311129 
L 384.604235 168.433783 
L 385.039721 167.934952 
L 385.475206 167.985155 
L 385.910692 167.545312 
L 386.346178 167.581937 
L 388.08812 167.292816 
L 388.523606 167.021837 
L 389.394577 166.996735 
L 389.830063 167.156927 
L 392.442977 166.989091 
L 393.749434 166.860618 
L 394.184919 166.982702 
L 394.620405 166.686621 
L 395.05589 166.530765 
L 395.926862 166.430132 
L 396.797833 166.314894 
L 397.233319 166.531563 
L 398.975261 166.290135 
L 399.410747 166.263094 
L 399.846233 166.436863 
L 400.281718 166.278041 
L 401.152689 166.306223 
L 402.023661 166.233087 
L 402.023661 166.233087 
" style="fill:none;stroke:#1f77b4;stroke-linecap:square;stroke-opacity:0.8;stroke-width:1.5;"/>
   </g>
   <g id="line2d_17">
    <path clip-path="url(#p1c5937bd25)" d="M 147.264561 137.900268 
L 147.700046 138.126864 
L 148.135532 138.04905 
L 148.571018 138.16714 
L 149.877475 137.859878 
L 150.31296 137.372229 
L 150.748446 137.360705 
L 151.619417 137.615141 
L 152.490388 137.602134 
L 152.925874 137.466131 
L 153.36136 137.454036 
L 153.796845 137.234743 
L 154.667817 137.154305 
L 155.103302 137.317463 
L 156.409759 137.298066 
L 157.28073 136.836317 
L 159.022673 136.972549 
L 159.458159 137.29567 
L 159.893644 137.317463 
L 160.764616 138.308962 
L 161.635587 137.951954 
L 162.071072 138.027144 
L 162.506558 137.766547 
L 162.942044 137.153049 
L 163.377529 136.74755 
L 163.813015 136.621473 
L 164.248501 137.01659 
L 164.683986 137.136277 
L 165.119472 136.866211 
L 165.990443 136.815552 
L 166.425929 137.167197 
L 166.861415 137.290764 
L 167.2969 137.238051 
L 168.167871 138.106327 
L 169.038843 138.338399 
L 169.909814 138.198061 
L 170.780785 137.696264 
L 171.216271 137.71566 
L 171.651757 138.198745 
L 172.087242 138.247464 
L 172.522728 138.479081 
L 173.393699 138.385407 
L 173.829185 139.627121 
L 175.135642 140.246552 
L 175.571127 140.382327 
L 176.006613 140.784859 
L 177.31307 140.781893 
L 177.748556 135.860563 
L 178.184041 135.951954 
L 178.619527 135.550448 
L 179.055012 135.631 
L 179.490498 135.139016 
L 179.925984 135.319288 
L 180.361469 135.777615 
L 180.796955 135.535502 
L 181.667926 136.307479 
L 182.103412 136.26127 
L 182.538898 135.714976 
L 182.974383 135.98527 
L 183.409869 135.885664 
L 183.845355 135.649028 
L 185.587297 135.567449 
L 186.458268 136.189732 
L 187.32924 136.647031 
L 187.764725 136.707959 
L 188.200211 136.900097 
L 188.635697 136.680461 
L 189.506668 136.601164 
L 191.24861 136.79239 
L 192.119582 136.568875 
L 192.990553 136.962736 
L 194.29701 136.936152 
L 194.732496 136.917668 
L 195.167981 137.11825 
L 195.603467 137.69421 
L 196.038952 137.665115 
L 196.474438 137.508118 
L 196.909924 137.762326 
L 197.345409 138.368521 
L 197.780895 138.366467 
L 198.216381 138.19749 
L 198.651866 138.285687 
L 199.087352 138.542975 
L 199.522838 138.94836 
L 199.958323 139.012939 
L 200.393809 139.243186 
L 202.571237 139.187164 
L 203.442208 139.677552 
L 203.877694 139.284489 
L 206.055122 139.459285 
L 208.23255 141.447761 
L 209.103522 141.458372 
L 209.539007 141.39482 
L 210.409979 141.546569 
L 211.28095 141.928564 
L 211.716436 141.826562 
L 212.151921 141.999418 
L 212.587407 141.913503 
L 213.458378 142.500074 
L 213.893864 142.246323 
L 214.329349 142.771396 
L 215.200321 142.888573 
L 216.506778 142.934098 
L 216.942263 143.544401 
L 217.377749 143.64298 
L 217.813235 143.577489 
L 218.684206 143.602704 
L 219.119691 143.489634 
L 219.555177 143.54132 
L 220.426148 144.220537 
L 220.861634 144.156871 
L 221.29712 144.222933 
L 221.732605 144.533504 
L 222.603577 143.738365 
L 223.039062 143.634195 
L 223.474548 143.669793 
L 223.910033 144.298922 
L 224.345519 144.35848 
L 224.781005 144.25933 
L 226.958433 144.443254 
L 227.393919 144.275075 
L 227.829404 144.254424 
L 228.26489 144.101192 
L 228.700376 143.718854 
L 229.571347 143.461452 
L 230.442318 144.193725 
L 231.313289 144.127777 
L 232.184261 143.813669 
L 233.055232 143.481533 
L 233.490718 142.844532 
L 234.361689 142.538182 
L 234.797175 142.735912 
L 235.668146 143.493742 
L 236.103631 143.150995 
L 236.539117 143.094289 
L 237.410088 142.657527 
L 238.716545 142.852519 
L 239.152031 142.48798 
L 239.587517 142.394535 
L 240.023002 142.09138 
L 240.458488 141.965417 
L 241.329459 140.715146 
L 242.20043 141.370517 
L 243.071402 141.149855 
L 244.377859 141.311872 
L 244.813344 141.576005 
L 246.119801 141.383068 
L 247.426258 142.122072 
L 247.861744 142.812014 
L 248.297229 143.284374 
L 249.603686 143.666826 
L 250.039172 144.045285 
L 250.474658 144.034446 
L 250.910143 143.349409 
L 251.781115 143.313583 
L 252.2166 143.441828 
L 253.523057 143.089726 
L 253.958543 143.022637 
L 255.265 143.377363 
L 255.700485 143.926054 
L 256.571457 144.028969 
L 257.006942 143.924799 
L 257.442428 143.454378 
L 257.877914 143.414901 
L 258.313399 143.238508 
L 259.619856 143.164345 
L 260.926313 142.371259 
L 261.361799 141.929363 
L 262.23277 141.527286 
L 262.668256 146.342621 
L 263.103741 146.08191 
L 263.539227 146.345017 
L 263.974712 146.163032 
L 264.410198 146.610177 
L 265.281169 146.699401 
L 265.716655 147.113229 
L 267.023112 146.978481 
L 267.458598 147.53938 
L 268.329569 147.565736 
L 268.765055 147.803742 
L 269.636026 147.688162 
L 270.071511 147.680746 
L 270.506997 147.786513 
L 270.942483 147.752056 
L 272.684425 148.086702 
L 273.119911 147.912933 
L 273.990882 148.147401 
L 274.426368 147.408169 
L 274.861854 147.272394 
L 275.297339 146.96034 
L 275.732825 146.108494 
L 276.603796 146.054184 
L 277.039282 146.498248 
L 277.474767 145.817548 
L 278.345739 145.914872 
L 278.781224 144.415871 
L 279.21671 144.495738 
L 279.652196 144.150482 
L 280.523167 143.866267 
L 280.958652 143.389115 
L 282.265109 142.913674 
L 282.700595 142.304969 
L 283.136081 142.48045 
L 284.878023 142.271653 
L 286.18448 142.24541 
L 287.490937 142.142952 
L 287.926423 141.807279 
L 288.361908 141.826562 
L 288.797394 142.211638 
L 289.668365 142.080084 
L 290.103851 141.811273 
L 290.539337 141.319288 
L 291.845794 141.244098 
L 292.281279 141.068275 
L 293.15225 139.916584 
L 293.587736 139.969639 
L 294.023222 139.789594 
L 294.894193 139.837059 
L 295.765164 139.181231 
L 297.071621 139.217514 
L 297.507107 139.294415 
L 298.378078 139.130344 
L 298.813564 139.698659 
L 299.249049 139.401438 
L 299.684535 139.64686 
L 300.120021 139.594717 
L 300.555506 139.406914 
L 301.861963 139.469896 
L 302.732935 138.924856 
L 303.603906 138.672703 
L 304.474877 138.935695 
L 306.652305 138.509773 
L 307.087791 138.820229 
L 307.958762 138.216316 
L 308.394248 137.727184 
L 308.829734 137.565052 
L 309.265219 137.539495 
L 310.13619 136.713777 
L 311.007162 136.250545 
L 311.442647 136.272223 
L 311.878133 135.957317 
L 312.313619 135.9418 
L 312.749104 135.533448 
L 313.18459 134.923373 
L 313.620076 135.260757 
L 314.491047 135.478453 
L 314.926532 135.417982 
L 315.362018 134.755993 
L 316.232989 134.530196 
L 316.668475 134.001358 
L 317.103961 133.667626 
L 317.974932 133.784346 
L 318.410418 134.129032 
L 318.845903 134.113743 
L 319.716875 133.052188 
L 320.15236 132.72359 
L 320.587846 132.693126 
L 321.023331 132.913447 
L 321.458817 132.707274 
L 321.894303 132.780524 
L 322.329788 132.592721 
L 322.765274 132.005123 
L 323.636245 131.99611 
L 324.071731 132.287969 
L 324.942702 131.864899 
L 325.378188 131.512568 
L 325.813674 131.479252 
L 326.249159 131.570529 
L 326.684645 130.820458 
L 327.12013 130.608923 
L 327.555616 130.166913 
L 328.862073 129.492487 
L 330.16853 129.410794 
L 330.604016 129.567905 
L 332.781444 129.228354 
L 333.216929 129.340168 
L 334.087901 129.1575 
L 335.394358 128.242445 
L 335.829843 128.813498 
L 337.1363 128.898044 
L 337.571786 128.690046 
L 339.313728 128.874426 
L 340.1847 128.163604 
L 340.620185 128.150711 
L 341.055671 127.409653 
L 341.491157 126.97369 
L 341.926642 126.714919 
L 342.362128 126.936609 
L 342.797614 126.730094 
L 343.233099 126.264237 
L 344.10407 125.949331 
L 344.975042 125.252885 
L 345.410527 125.597342 
L 345.846013 125.369834 
L 346.716984 125.658612 
L 347.587956 125.611376 
L 348.023441 124.91242 
L 348.458927 124.849667 
L 348.894412 124.989778 
L 349.329898 124.761128 
L 349.765384 124.083851 
L 350.636355 123.697976 
L 351.071841 123.767689 
L 351.507326 123.265778 
L 351.942812 123.21375 
L 352.378298 122.631058 
L 352.813783 122.406858 
L 353.249269 121.777387 
L 353.684755 121.48142 
L 354.12024 121.401325 
L 354.555726 121.166057 
L 354.991211 120.611662 
L 355.426697 120.405375 
L 356.297668 119.065538 
L 357.604125 118.773565 
L 358.475097 118.683885 
L 358.910582 118.193155 
L 359.346068 118.703396 
L 359.781554 118.187793 
L 360.217039 118.265835 
L 360.652525 118.972435 
L 361.958982 116.976543 
L 362.394467 117.082311 
L 363.265439 116.635851 
L 363.700924 117.937921 
L 364.571896 117.596088 
L 365.442867 117.375425 
L 365.878353 117.453581 
L 366.313838 117.006094 
L 366.749324 117.034846 
L 367.184809 116.862218 
L 367.620295 117.232348 
L 368.055781 117.256194 
L 369.797723 116.509774 
L 370.233209 116.263097 
L 370.668695 115.737796 
L 371.975151 115.02047 
L 372.410637 114.909683 
L 372.846123 115.109922 
L 373.281608 113.59084 
L 373.717094 113.050478 
L 374.15258 112.847728 
L 374.588065 112.341596 
L 375.894522 112.461511 
L 376.330008 112.140785 
L 376.765494 111.644921 
L 377.200979 111.371888 
L 377.636465 111.454038 
L 378.07195 111.394023 
L 378.942922 110.450444 
L 379.378407 109.733118 
L 379.813893 109.602478 
L 380.249379 109.972037 
L 380.684864 110.125611 
L 381.12035 110.072784 
L 381.555836 109.603619 
L 382.426807 109.678466 
L 383.297778 109.498193 
L 383.733264 109.498307 
L 384.168749 109.675842 
L 384.604235 109.273195 
L 387.217149 109.325907 
L 388.523606 109.57498 
L 388.959091 109.433044 
L 389.394577 108.838715 
L 390.265548 108.582796 
L 390.701034 108.040495 
L 391.572005 108.23058 
L 392.007491 108.319005 
L 392.442977 108.763639 
L 392.878462 108.738196 
L 393.313948 109.087103 
L 393.749434 109.260074 
L 394.184919 109.081855 
L 394.620405 109.643096 
L 395.05589 109.698661 
L 395.491376 109.972607 
L 396.362347 109.300806 
L 396.797833 109.551591 
L 397.233319 109.129319 
L 397.668804 109.521697 
L 398.10429 110.184827 
L 398.539776 110.178894 
L 398.975261 109.658043 
L 399.846233 109.070787 
L 400.281718 109.450387 
L 400.717204 109.504469 
L 401.152689 109.036444 
L 401.588175 109.450501 
L 402.023661 109.424601 
L 402.023661 109.424601 
" style="fill:none;stroke:#ff7f0e;stroke-linecap:square;stroke-opacity:0.8;stroke-width:1.5;"/>
   </g>
   <g id="line2d_18">
    <path clip-path="url(#p1c5937bd25)" d="M 147.264561 123.662492 
L 148.571018 123.414902 
L 149.441989 123.238851 
L 150.748446 123.21181 
L 151.183931 123.053672 
L 152.054903 123.110606 
L 152.925874 123.176668 
L 153.36136 123.425855 
L 153.796845 123.042833 
L 154.232331 123.276275 
L 154.667817 124.081569 
L 155.538788 124.474175 
L 155.974273 124.727013 
L 156.409759 124.824338 
L 156.845245 124.439376 
L 157.28073 124.757477 
L 158.151702 126.152651 
L 158.587187 126.166114 
L 159.022673 125.847214 
L 159.458159 126.199544 
L 159.893644 125.792334 
L 160.32913 125.996909 
L 160.764616 125.968271 
L 161.200101 126.157899 
L 161.635587 126.160067 
L 162.071072 126.418382 
L 162.506558 126.344904 
L 162.942044 126.492887 
L 163.377529 126.47543 
L 163.813015 126.783947 
L 164.248501 125.983902 
L 165.119472 125.6577 
L 165.554958 125.671391 
L 165.990443 125.336289 
L 166.861415 125.593235 
L 167.2969 125.637847 
L 167.732386 126.188705 
L 168.167871 125.765863 
L 169.474328 126.407086 
L 169.909814 126.784176 
L 170.3453 126.539895 
L 170.780785 127.188534 
L 171.651757 128.01448 
L 172.522728 128.124355 
L 172.958213 128.847956 
L 173.393699 128.930333 
L 173.829185 128.818404 
L 174.26467 128.238223 
L 174.700156 128.249519 
L 175.135642 127.560831 
L 176.877584 127.877906 
L 177.31307 127.63739 
L 177.748556 127.633055 
L 178.184041 127.210327 
L 178.619527 126.61246 
L 179.490498 126.292191 
L 179.925984 126.076662 
L 180.361469 126.007976 
L 180.796955 126.077689 
L 181.232441 126.381985 
L 181.667926 126.412449 
L 182.103412 126.564654 
L 182.538898 126.559177 
L 183.409869 126.301775 
L 183.845355 126.303601 
L 184.28084 126.617138 
L 184.716326 126.235941 
L 185.151811 126.191444 
L 185.587297 125.985956 
L 186.022783 126.027943 
L 186.458268 126.185168 
L 187.32924 126.232747 
L 187.764725 125.902437 
L 189.506668 126.030453 
L 189.942153 126.367951 
L 190.377639 126.56066 
L 190.813125 126.555982 
L 191.24861 126.685938 
L 192.555067 126.32448 
L 193.861524 126.376737 
L 194.29701 126.137704 
L 194.732496 126.044715 
L 195.167981 126.318319 
L 195.603467 126.371944 
L 196.038952 126.154704 
L 196.474438 126.07381 
L 196.909924 125.871745 
L 197.345409 125.921035 
L 197.780895 125.814925 
L 199.087352 123.706761 
L 199.522838 123.319289 
L 199.958323 123.260073 
L 200.393809 123.023551 
L 201.26478 123.07923 
L 201.700266 123.410909 
L 202.135751 123.252543 
L 202.571237 123.232918 
L 203.006723 123.553986 
L 203.442208 123.506179 
L 203.877694 123.667626 
L 204.31318 123.657129 
L 205.184151 122.643837 
L 206.055122 122.597057 
L 206.490608 122.324823 
L 206.926093 122.350951 
L 207.361579 122.572755 
L 207.797065 122.504981 
L 208.668036 123.035531 
L 209.103522 122.745725 
L 209.539007 122.850352 
L 209.974493 122.302003 
L 210.409979 122.576748 
L 210.845464 122.045286 
L 211.28095 121.785488 
L 212.151921 121.628947 
L 212.587407 122.193383 
L 213.022892 122.361562 
L 213.458378 122.22978 
L 213.893864 122.280781 
L 214.329349 122.668025 
L 214.764835 122.594547 
L 215.200321 122.375139 
L 216.071292 122.401153 
L 216.942263 122.685482 
L 217.377749 123.138104 
L 217.813235 122.739222 
L 219.555177 122.22978 
L 219.990663 122.392026 
L 220.426148 122.197035 
L 220.861634 122.779726 
L 221.29712 122.64532 
L 222.168091 122.578345 
L 222.603577 122.490605 
L 223.039062 122.203652 
L 223.474548 122.150711 
L 224.345519 122.207189 
L 224.781005 121.948646 
L 225.21649 121.831583 
L 226.087462 121.985613 
L 226.522947 121.946935 
L 226.958433 121.680861 
L 227.393919 121.650283 
L 227.829404 122.049279 
L 228.26489 122.2437 
L 229.135861 122.393737 
L 229.571347 122.586104 
L 230.877804 122.516277 
L 231.313289 121.693754 
L 231.748775 121.277302 
L 233.490718 121.262469 
L 233.926203 120.972207 
L 234.361689 120.828331 
L 234.797175 120.942086 
L 235.23266 120.92075 
L 235.668146 120.698946 
L 236.974603 120.882413 
L 237.845574 120.749262 
L 239.152031 120.84054 
L 240.893974 120.455692 
L 241.329459 120.472236 
L 241.764945 120.975858 
L 243.506887 121.2611 
L 243.942373 121.73346 
L 244.813344 121.786287 
L 245.24883 121.427339 
L 245.684316 121.767118 
L 246.990772 121.601907 
L 247.426258 121.632827 
L 247.861744 121.494313 
L 248.732715 121.383411 
L 249.168201 121.894108 
L 250.039172 122.204907 
L 250.474658 122.073468 
L 250.910143 122.659696 
L 251.345629 122.353119 
L 252.652086 122.233888 
L 253.087571 122.623071 
L 253.958543 122.48433 
L 254.829514 122.752913 
L 255.265 123.289396 
L 255.700485 123.368008 
L 256.135971 122.611319 
L 256.571457 122.708644 
L 257.442428 122.653307 
L 257.877914 123.241475 
L 258.313399 123.141983 
L 258.748885 123.429164 
L 259.18437 124.111576 
L 259.619856 124.050763 
L 260.055342 124.683086 
L 260.490827 124.185625 
L 260.926313 124.140443 
L 261.361799 123.802374 
L 261.797284 123.647431 
L 262.23277 123.859765 
L 262.668256 123.383411 
L 263.103741 123.588215 
L 263.539227 123.653592 
L 263.974712 123.468071 
L 264.410198 123.676297 
L 264.845684 123.278214 
L 265.281169 122.719711 
L 266.152141 122.021782 
L 266.587626 121.470239 
L 267.023112 121.195494 
L 268.329569 121.267489 
L 268.765055 120.995711 
L 269.20054 120.948817 
L 269.636026 121.360706 
L 270.071511 120.973919 
L 270.506997 120.374569 
L 271.377968 120.282721 
L 271.813454 119.653706 
L 272.684425 119.243757 
L 273.119911 119.325222 
L 273.555397 119.098056 
L 273.990882 118.716745 
L 274.426368 118.634938 
L 274.861854 118.755652 
L 275.297339 118.5545 
L 275.732825 117.959371 
L 276.16831 117.81367 
L 277.039282 117.306625 
L 278.781224 117.376908 
L 279.21671 117.66968 
L 279.652196 117.068163 
L 280.087681 117.249576 
L 280.523167 116.625582 
L 280.958652 116.731121 
L 281.394138 116.560775 
L 281.829624 116.539781 
L 282.265109 116.139987 
L 282.700595 116.213693 
L 283.136081 113.927767 
L 283.571566 114.301776 
L 284.442538 115.344277 
L 285.313509 115.676526 
L 286.18448 115.391513 
L 287.490937 115.541322 
L 287.926423 115.510401 
L 288.361908 114.886179 
L 289.23288 114.280554 
L 289.668365 114.835292 
L 290.539337 115.051619 
L 290.974822 115.018645 
L 291.410308 115.262013 
L 291.845794 115.181347 
L 292.281279 114.845903 
L 292.716765 115.141641 
L 293.15225 115.199374 
L 293.587736 114.941173 
L 294.023222 115.107298 
L 294.458707 115.09566 
L 295.329679 115.545087 
L 295.765164 116.078488 
L 296.20065 116.349126 
L 296.636136 116.371717 
L 297.071621 116.587474 
L 297.507107 116.570473 
L 297.942592 116.900897 
L 298.378078 117.063827 
L 298.813564 117.359451 
L 299.249049 117.361847 
L 300.120021 117.741903 
L 300.990992 117.710299 
L 301.426478 117.54406 
L 302.297449 117.641384 
L 302.732935 117.97603 
L 304.039391 118.319689 
L 304.474877 117.863873 
L 305.781334 118.395563 
L 306.21682 118.202511 
L 306.652305 117.267832 
L 307.523277 116.141242 
L 307.958762 116.332239 
L 308.829734 116.336689 
L 309.265219 115.913847 
L 309.700705 115.743501 
L 310.13619 115.930733 
L 311.442647 115.53014 
L 311.878133 115.7613 
L 312.313619 115.738595 
L 312.749104 115.947163 
L 313.620076 115.61788 
L 314.491047 115.490777 
L 314.926532 115.369834 
L 315.797504 115.393566 
L 316.232989 116.205478 
L 316.668475 116.734088 
L 317.103961 116.223049 
L 317.539446 116.38963 
L 318.410418 116.405261 
L 318.845903 116.752571 
L 319.281389 116.921206 
L 319.716875 116.262526 
L 320.15236 116.240277 
L 320.587846 116.430819 
L 321.458817 116.368294 
L 321.894303 116.273251 
L 322.329788 115.531281 
L 322.765274 115.572926 
L 323.20076 115.44993 
L 324.071731 115.512569 
L 324.942702 115.824395 
L 326.249159 115.543946 
L 327.555616 115.358425 
L 327.991102 115.014081 
L 328.426587 115.163205 
L 329.297559 114.796156 
L 329.733044 114.94414 
L 330.16853 115.487696 
L 330.604016 115.363559 
L 334.523386 115.514395 
L 334.958872 115.358539 
L 335.394358 115.491918 
L 335.829843 115.342337 
L 336.700815 115.352377 
L 337.1363 115.318034 
L 337.571786 115.483132 
L 338.442757 115.612632 
L 338.878243 115.284718 
L 339.749214 115.317236 
L 340.620185 115.260187 
L 341.055671 115.95709 
L 342.362128 115.959143 
L 342.797614 115.906317 
L 343.233099 116.007863 
L 344.10407 115.717373 
L 344.539556 116.009232 
L 344.975042 116.122416 
L 345.410527 116.530539 
L 346.716984 116.834835 
L 347.15247 116.993886 
L 347.587956 117.378277 
L 348.023441 117.566194 
L 348.458927 118.197035 
L 348.894412 118.407999 
L 349.329898 118.404691 
L 350.200869 119.69558 
L 350.636355 120.033306 
L 351.507326 121.096573 
L 351.942812 121.344619 
L 352.378298 121.431903 
L 354.12024 122.391113 
L 354.555726 122.482276 
L 355.426697 123.608752 
L 355.862183 123.651995 
L 356.297668 123.069874 
L 356.733154 123.666713 
L 357.16864 123.810361 
L 357.604125 124.354602 
L 358.039611 124.321057 
L 358.475097 124.518559 
L 358.910582 124.895306 
L 360.217039 124.968784 
L 360.652525 125.646176 
L 361.523496 125.684056 
L 361.958982 126.041635 
L 362.394467 125.626551 
L 362.829953 125.642981 
L 363.265439 125.499219 
L 363.700924 125.765293 
L 364.13641 125.803287 
L 364.571896 126.495968 
L 365.007381 126.51023 
L 365.442867 127.000389 
L 366.749324 127.008033 
L 367.184809 127.368693 
L 367.620295 127.369263 
L 368.055781 130.271197 
L 368.491266 130.614856 
L 368.926752 130.194752 
L 369.362238 129.59449 
L 369.797723 129.763809 
L 371.975151 129.584335 
L 372.846123 129.69364 
L 373.281608 130.407428 
L 374.15258 130.995482 
L 374.588065 131.066793 
L 375.023551 131.328873 
L 375.459037 131.214206 
L 375.894522 131.354659 
L 376.330008 131.148714 
L 376.765494 131.164003 
L 377.200979 131.355571 
L 378.507436 131.120418 
L 378.942922 131.165715 
L 379.378407 130.701341 
L 381.555836 130.68377 
L 381.991321 130.570586 
L 382.862293 129.762212 
L 383.297778 129.549079 
L 384.168749 129.598711 
L 385.039721 128.134395 
L 385.910692 127.562657 
L 386.346178 127.564597 
L 386.781663 127.32488 
L 388.08812 127.534247 
L 388.523606 127.284261 
L 388.959091 127.423117 
L 389.394577 127.958002 
L 391.13652 127.887376 
L 391.572005 128.858909 
L 392.442977 129.912363 
L 392.878462 129.862503 
L 393.749434 130.015164 
L 394.184919 130.478967 
L 394.620405 130.740933 
L 395.491376 130.779269 
L 395.926862 130.514565 
L 398.10429 130.317178 
L 398.539776 130.393509 
L 398.975261 130.14261 
L 399.410747 130.175812 
L 400.281718 129.919323 
L 400.717204 129.838542 
L 401.152689 129.527401 
L 401.588175 129.466587 
L 402.023661 130.122757 
L 402.023661 130.122757 
" style="fill:none;stroke:#2ca02c;stroke-linecap:square;stroke-opacity:0.8;stroke-width:1.5;"/>
   </g>
   <g id="line2d_19">
    <path clip-path="url(#p1c5937bd25)" d="M 147.264561 167.954349 
L 147.700046 167.816634 
L 148.135532 168.050418 
L 148.571018 167.67698 
L 149.441989 167.31381 
L 149.877475 167.283574 
L 150.31296 167.075234 
L 151.619417 167.261668 
L 152.054903 167.042374 
L 152.490388 166.96205 
L 152.925874 167.122128 
L 153.36136 167.151222 
L 153.796845 166.805624 
L 155.538788 166.443253 
L 155.974273 166.036498 
L 156.409759 165.970893 
L 156.845245 165.581139 
L 157.716216 165.51964 
L 158.151702 165.149055 
L 158.587187 165.32579 
L 159.893644 164.853887 
L 160.32913 164.369546 
L 160.764616 164.481247 
L 161.200101 164.739676 
L 161.635587 165.187962 
L 162.506558 165.531164 
L 162.942044 165.82405 
L 163.377529 165.685993 
L 163.813015 165.945563 
L 165.119472 166.109748 
L 165.554958 165.73882 
L 166.425929 165.595857 
L 169.474328 165.402349 
L 169.909814 164.674413 
L 170.3453 164.238221 
L 170.780785 164.083963 
L 171.216271 163.683027 
L 171.651757 163.474344 
L 172.087242 163.854628 
L 172.958213 163.888971 
L 173.393699 163.415584 
L 173.829185 163.393678 
L 174.26467 163.103074 
L 175.571127 162.810302 
L 176.006613 162.898384 
L 176.442099 162.843504 
L 176.877584 163.142893 
L 177.31307 162.680574 
L 177.748556 162.710467 
L 178.184041 162.533047 
L 178.619527 162.552101 
L 179.925984 161.716686 
L 180.796955 161.619703 
L 181.232441 161.734256 
L 182.538898 161.466586 
L 182.974383 161.66557 
L 184.28084 161.840709 
L 184.716326 161.573722 
L 186.458268 161.42186 
L 186.893754 161.627348 
L 187.32924 161.631912 
L 187.764725 161.434639 
L 190.377639 161.054355 
L 190.813125 160.622271 
L 191.24861 160.609035 
L 191.684096 160.852175 
L 192.119582 160.830041 
L 192.555067 160.686963 
L 192.990553 160.837571 
L 193.426039 160.809275 
L 195.603467 158.963534 
L 196.038952 159.230292 
L 196.909924 158.84339 
L 197.345409 158.426367 
L 197.780895 158.610177 
L 198.216381 158.496993 
L 199.087352 158.731689 
L 199.522838 158.68046 
L 199.958323 159.10045 
L 200.393809 159.182029 
L 201.26478 159.933812 
L 201.700266 159.877106 
L 202.135751 160.182314 
L 203.877694 160.464931 
L 205.184151 160.084647 
L 205.619637 160.159495 
L 206.055122 159.894334 
L 207.797065 159.810359 
L 209.103522 160.088298 
L 209.974493 159.942027 
L 210.409979 159.882696 
L 211.28095 160.020753 
L 212.151921 159.726156 
L 213.022892 159.525003 
L 213.458378 160.030337 
L 214.329349 159.718511 
L 215.200321 159.914415 
L 215.635806 159.758445 
L 216.071292 159.782519 
L 216.506778 160.009914 
L 217.377749 160.253853 
L 218.684206 160.590666 
L 219.555177 160.424998 
L 223.474548 160.598424 
L 223.910033 159.998847 
L 224.781005 160.070385 
L 226.087462 161.227553 
L 226.522947 161.065536 
L 226.958433 161.079912 
L 227.829404 160.880814 
L 228.700376 161.722961 
L 229.571347 161.882012 
L 230.006832 162.090694 
L 230.442318 162.016075 
L 230.877804 162.136219 
L 231.313289 162.089553 
L 231.748775 162.412903 
L 232.184261 162.43036 
L 232.619746 162.739448 
L 233.055232 162.730891 
L 233.490718 163.13388 
L 234.361689 163.396758 
L 236.539117 163.506634 
L 236.974603 163.760042 
L 237.845574 163.863642 
L 238.28106 163.678349 
L 238.716545 163.947503 
L 239.587517 164.201482 
L 240.023002 163.896159 
L 240.458488 163.904374 
L 240.893974 164.280437 
L 241.764945 164.684225 
L 243.942373 164.633908 
L 245.24883 165.031421 
L 246.119801 165.369033 
L 246.990772 165.214774 
L 247.426258 165.093604 
L 248.297229 165.502184 
L 249.603686 165.461223 
L 250.039172 165.115396 
L 250.474658 165.487693 
L 250.910143 165.463505 
L 251.781115 165.197546 
L 252.652086 165.114712 
L 253.087571 165.352261 
L 253.958543 165.237936 
L 254.394028 165.321569 
L 254.829514 165.86387 
L 255.700485 166.010028 
L 256.135971 166.40195 
L 256.571457 166.58382 
L 257.877914 166.320485 
L 258.313399 166.828329 
L 258.748885 166.72587 
L 259.18437 166.937519 
L 259.619856 166.700655 
L 260.490827 166.783032 
L 261.797284 166.34513 
L 262.23277 166.775844 
L 262.668256 166.805738 
L 263.103741 166.418722 
L 263.539227 166.255221 
L 263.974712 166.51308 
L 264.410198 166.200569 
L 264.845684 166.338968 
L 265.716655 166.227382 
L 266.152141 165.956631 
L 267.458598 165.904945 
L 267.894083 165.835232 
L 268.329569 165.953208 
L 268.765055 165.525345 
L 269.20054 165.481304 
L 269.636026 165.587186 
L 270.071511 165.44582 
L 270.506997 165.451068 
L 271.377968 165.111175 
L 271.813454 165.20268 
L 274.861854 164.318659 
L 275.297339 163.972604 
L 275.732825 163.781835 
L 276.16831 163.8026 
L 276.603796 164.111118 
L 277.039282 163.895133 
L 277.474767 163.356482 
L 278.345739 163.327502 
L 279.21671 163.950469 
L 279.652196 164.604585 
L 280.087681 164.72142 
L 280.523167 165.0353 
L 281.394138 165.175183 
L 281.829624 165.201995 
L 282.265109 165.410906 
L 282.700595 165.200854 
L 283.571566 165.161833 
L 285.748995 164.50806 
L 286.18448 164.237879 
L 286.619966 164.198401 
L 287.490937 163.931872 
L 287.926423 163.863414 
L 289.23288 162.987266 
L 290.539337 163.088698 
L 290.974822 163.356596 
L 291.410308 163.339824 
L 292.281279 162.929989 
L 293.15225 162.892337 
L 294.023222 162.800147 
L 294.458707 162.803 
L 294.894193 162.671446 
L 295.329679 162.666426 
L 295.765164 162.541832 
L 296.20065 162.541034 
L 296.636136 162.81304 
L 297.507107 162.875793 
L 297.942592 163.049677 
L 298.378078 162.882297 
L 298.813564 162.848752 
L 299.249049 162.234342 
L 299.684535 162.152763 
L 300.120021 161.741445 
L 300.555506 161.821312 
L 300.990992 161.654617 
L 304.910363 161.510285 
L 305.345848 161.322824 
L 305.781334 161.389913 
L 306.21682 160.83449 
L 307.087791 160.766945 
L 307.958762 160.765918 
L 308.394248 160.570585 
L 308.829734 161.025146 
L 310.13619 160.915043 
L 311.442647 160.597512 
L 312.749104 160.60527 
L 313.18459 160.423058 
L 313.620076 160.412219 
L 314.055561 160.541947 
L 314.926532 160.54343 
L 316.232989 160.155159 
L 317.974932 160.033076 
L 318.410418 159.772593 
L 319.716875 159.459398 
L 320.15236 159.033247 
L 320.587846 159.025602 
L 321.023331 158.601049 
L 322.329788 158.270054 
L 323.20076 158.367493 
L 323.636245 158.061714 
L 324.071731 158.004323 
L 324.942702 157.545655 
L 325.378188 157.106725 
L 325.813674 156.88766 
L 327.991102 156.513765 
L 328.426587 156.611203 
L 328.862073 156.538524 
L 329.297559 156.248262 
L 329.733044 156.22453 
L 330.16853 156.490261 
L 330.604016 155.918066 
L 331.039501 155.725814 
L 331.474987 155.295783 
L 331.910472 155.3631 
L 332.345958 155.586616 
L 332.781444 155.534588 
L 333.216929 155.173814 
L 333.652415 155.020582 
L 334.087901 155.036556 
L 334.523386 154.918922 
L 334.958872 155.200627 
L 336.265329 155.578173 
L 337.571786 155.462136 
L 338.007271 155.187734 
L 338.878243 155.382155 
L 339.313728 155.171418 
L 339.749214 155.249574 
L 340.1847 154.661634 
L 341.491157 154.803799 
L 341.926642 154.714347 
L 342.797614 154.834034 
L 344.10407 154.717085 
L 344.539556 154.832893 
L 344.975042 154.761811 
L 345.846013 154.813041 
L 346.716984 154.786912 
L 347.587956 154.676923 
L 348.023441 155.13639 
L 348.458927 155.233144 
L 348.894412 155.113457 
L 349.329898 155.569729 
L 350.200869 155.575548 
L 351.071841 156.002612 
L 351.942812 156.036385 
L 352.378298 156.143521 
L 353.249269 156.060687 
L 353.684755 156.422602 
L 354.991211 156.666997 
L 355.426697 156.599337 
L 356.297668 156.782577 
L 356.733154 156.717313 
L 357.16864 156.810759 
L 358.039611 157.169592 
L 358.475097 157.261326 
L 358.910582 157.1478 
L 359.781554 157.470237 
L 360.217039 157.815379 
L 360.652525 158.384836 
L 361.523496 158.22761 
L 361.958982 158.350607 
L 362.394467 158.922345 
L 362.829953 158.845558 
L 363.265439 158.566478 
L 364.571896 158.457059 
L 365.878353 157.89924 
L 366.749324 158.087386 
L 367.184809 158.170676 
L 367.620295 158.509201 
L 368.055781 158.535101 
L 368.491266 158.400011 
L 369.362238 158.615425 
L 370.233209 158.608693 
L 372.410637 158.605156 
L 372.846123 158.666426 
L 373.281608 158.865182 
L 373.717094 158.933983 
L 374.15258 159.187848 
L 374.588065 159.058348 
L 375.023551 159.10741 
L 375.459037 159.042489 
L 375.894522 158.608807 
L 376.330008 158.584505 
L 377.200979 158.768543 
L 377.636465 158.601847 
L 378.507436 158.783489 
L 379.378407 158.500073 
L 380.249379 158.540235 
L 380.684864 158.840652 
L 381.991321 158.552786 
L 382.426807 158.504181 
L 382.862293 158.315237 
L 383.733264 158.20308 
L 384.168749 158.920063 
L 384.604235 158.905687 
L 385.039721 159.294072 
L 387.217149 159.10992 
L 388.08812 158.802543 
L 388.523606 158.724045 
L 389.830063 158.875565 
L 390.265548 159.043173 
L 390.701034 158.676238 
L 391.13652 159.165599 
L 392.007491 159.060744 
L 392.442977 159.264635 
L 394.620405 159.386034 
L 397.668804 159.650966 
L 398.10429 159.818118 
L 399.410747 159.452096 
L 399.846233 159.428021 
L 400.717204 159.792674 
L 401.588175 159.915442 
L 402.023661 159.726042 
L 402.023661 159.726042 
" style="fill:none;stroke:#d62728;stroke-linecap:square;stroke-opacity:0.8;stroke-width:1.5;"/>
   </g>
   <g id="line2d_20">
    <path clip-path="url(#p1c5937bd25)" d="M 147.264561 63.123617 
L 147.700046 63.314272 
L 148.571018 63.204283 
L 149.006503 63.924233 
L 152.054903 63.229042 
L 152.490388 62.957378 
L 152.925874 62.877168 
L 153.36136 62.994916 
L 154.232331 62.675445 
L 155.974273 62.455809 
L 158.151702 61.673677 
L 159.458159 61.969073 
L 159.893644 61.430651 
L 160.32913 60.712526 
L 161.200101 60.448849 
L 161.635587 60.665176 
L 162.506558 60.771629 
L 162.942044 60.485474 
L 163.813015 60.454326 
L 164.248501 60.444057 
L 164.683986 60.302007 
L 165.990443 60.509891 
L 166.425929 60.250321 
L 167.732386 60.010034 
L 168.167871 60.695868 
L 169.038843 60.591812 
L 169.909814 60.588161 
L 170.3453 60.713667 
L 172.087242 60.605732 
L 172.522728 60.162467 
L 172.958213 60.176501 
L 173.393699 61.138335 
L 173.829185 61.150658 
L 174.26467 60.57253 
L 174.700156 60.264697 
L 175.571127 60.410399 
L 176.442099 60.676472 
L 177.31307 61.81527 
L 179.925984 61.629863 
L 180.361469 61.718745 
L 180.796955 61.394368 
L 181.232441 61.291111 
L 181.667926 61.886695 
L 182.103412 61.779216 
L 182.538898 60.906605 
L 182.974383 61.318037 
L 183.409869 60.804146 
L 183.845355 60.638135 
L 184.28084 60.751662 
L 184.716326 60.480796 
L 185.151811 60.402754 
L 185.587297 60.479313 
L 186.022783 60.77277 
L 186.458268 60.715721 
L 186.893754 60.868154 
L 187.32924 61.375884 
L 187.764725 61.683831 
L 188.200211 60.918471 
L 188.635697 61.340857 
L 189.071182 60.834039 
L 189.506668 61.857372 
L 190.377639 62.801179 
L 190.813125 62.738655 
L 191.24861 62.023839 
L 192.119582 62.446453 
L 192.555067 62.385297 
L 192.990553 63.015795 
L 193.426039 63.01956 
L 193.861524 62.818294 
L 194.29701 63.130462 
L 195.603467 63.059266 
L 196.038952 63.286318 
L 196.474438 64.411425 
L 197.345409 64.332356 
L 198.651866 64.6678 
L 199.958323 64.192017 
L 201.700266 63.928796 
L 202.571237 63.466591 
L 203.006723 63.53619 
L 204.748665 63.266694 
L 205.184151 62.632316 
L 205.619637 62.75497 
L 206.055122 62.525978 
L 206.490608 61.555244 
L 207.361579 61.787203 
L 207.797065 60.969928 
L 208.23255 60.707506 
L 208.668036 56.578349 
L 209.103522 55.462712 
L 209.539007 55.229499 
L 209.974493 55.331159 
L 210.409979 55.282782 
L 210.845464 56.01996 
L 211.28095 56.426829 
L 211.716436 57.663636 
L 212.587407 58.085337 
L 213.022892 58.467903 
L 213.893864 60.799354 
L 214.764835 60.84659 
L 215.200321 61.697523 
L 216.071292 61.062233 
L 216.506778 61.222995 
L 216.942263 61.177014 
L 217.377749 61.877567 
L 217.813235 61.931991 
L 218.24872 62.109412 
L 218.684206 62.037645 
L 219.119691 61.60944 
L 219.990663 61.291681 
L 220.426148 60.437782 
L 220.861634 60.715379 
L 221.29712 60.850127 
L 221.732605 60.084539 
L 222.168091 60.991607 
L 222.603577 61.102395 
L 223.039062 60.547086 
L 223.910033 60.553932 
L 224.345519 60.722909 
L 225.21649 59.098744 
L 226.087462 59.444 
L 226.522947 58.867698 
L 227.393919 57.116657 
L 227.829404 57.085623 
L 228.26489 57.270802 
L 229.135861 56.789542 
L 230.442318 56.211528 
L 230.877804 55.898105 
L 231.313289 55.412852 
L 231.748775 55.489525 
L 233.055232 55.01397 
L 233.490718 54.847161 
L 233.926203 55.019789 
L 234.361689 54.813046 
L 235.23266 54.720285 
L 235.668146 53.848929 
L 236.103631 54.002618 
L 236.539117 53.952187 
L 236.974603 53.190706 
L 237.410088 53.449477 
L 238.28106 53.267037 
L 238.716545 52.120479 
L 239.587517 52.039014 
L 240.023002 52.114546 
L 240.458488 51.621535 
L 240.893974 51.57852 
L 241.329459 51.759135 
L 241.764945 51.354092 
L 242.20043 51.420154 
L 242.635916 51.305601 
L 243.071402 51.540184 
L 243.506887 51.523754 
L 243.942373 50.415191 
L 244.377859 50.247583 
L 244.813344 50.645666 
L 245.24883 51.437383 
L 245.684316 51.46682 
L 246.119801 51.053334 
L 246.555287 50.968788 
L 246.990772 50.438581 
L 247.426258 50.315927 
L 247.861744 49.737343 
L 248.297229 49.468874 
L 250.039172 49.590387 
L 250.474658 49.141302 
L 250.910143 47.991665 
L 251.781115 48.29345 
L 253.087571 47.885783 
L 253.523057 47.352153 
L 253.958543 47.099771 
L 255.265 46.99948 
L 255.700485 46.025095 
L 256.135971 46.066512 
L 256.571457 45.935757 
L 257.006942 45.667744 
L 257.442428 45.824513 
L 258.313399 45.651999 
L 258.748885 45.878595 
L 259.619856 46.564088 
L 260.055342 46.42489 
L 261.361799 46.400815 
L 261.797284 46.221455 
L 262.23277 46.229556 
L 262.668256 45.906549 
L 264.410198 45.373831 
L 264.845684 44.939009 
L 265.281169 44.960003 
L 265.716655 44.481596 
L 266.152141 44.365103 
L 266.587626 43.82748 
L 267.023112 43.656677 
L 267.458598 44.521073 
L 267.894083 44.389063 
L 268.329569 44.688909 
L 268.765055 44.75075 
L 269.20054 44.567282 
L 270.071511 44.880363 
L 270.506997 44.812932 
L 270.942483 44.471099 
L 271.377968 44.472012 
L 272.24894 42.36362 
L 272.684425 42.391231 
L 273.119911 43.392315 
L 273.555397 43.434645 
L 273.990882 43.921267 
L 274.426368 43.7896 
L 275.297339 43.793935 
L 275.732825 43.894569 
L 276.603796 45.20725 
L 277.474767 45.269661 
L 277.910253 45.204398 
L 278.345739 45.283809 
L 278.781224 45.532426 
L 279.652196 45.029031 
L 280.087681 45.049455 
L 280.523167 45.734719 
L 280.958652 45.615716 
L 281.394138 44.474179 
L 282.700595 44.191904 
L 283.136081 43.804546 
L 284.007052 43.750122 
L 284.442538 43.93667 
L 284.878023 43.945798 
L 285.313509 43.746471 
L 286.18448 43.81356 
L 286.619966 43.866044 
L 287.055451 44.097546 
L 287.490937 43.663295 
L 287.926423 43.583883 
L 288.361908 43.312333 
L 289.668365 43.357516 
L 290.103851 43.807855 
L 290.539337 42.970614 
L 290.974822 43.038844 
L 291.410308 43.900844 
L 291.845794 43.878139 
L 292.281279 42.714353 
L 292.716765 43.818352 
L 293.15225 44.113634 
L 293.587736 48.202972 
L 294.023222 49.400188 
L 294.458707 49.673335 
L 294.894193 48.306914 
L 295.765164 48.401614 
L 296.20065 47.944885 
L 296.636136 47.007581 
L 297.071621 46.804033 
L 297.942592 47.37965 
L 298.813564 47.299326 
L 300.120021 47.017051 
L 300.555506 47.408403 
L 300.990992 46.911169 
L 301.861963 46.872034 
L 302.297449 46.700205 
L 302.732935 46.258879 
L 303.603906 46.206052 
L 304.039391 46.514455 
L 304.910363 45.834097 
L 305.345848 46.491864 
L 306.21682 46.149574 
L 306.652305 46.868611 
L 307.523277 46.235946 
L 308.394248 46.849215 
L 308.829734 46.830275 
L 309.700705 46.535677 
L 310.13619 46.953157 
L 311.007162 46.946425 
L 311.442647 47.488613 
L 311.878133 48.346733 
L 312.313619 48.913794 
L 312.749104 48.892914 
L 313.620076 47.200176 
L 315.362018 48.069821 
L 315.797504 47.982537 
L 316.232989 48.218489 
L 316.668475 47.439779 
L 317.103961 47.63671 
L 317.539446 47.584111 
L 317.974932 46.557584 
L 318.410418 46.619424 
L 319.281389 46.41405 
L 319.716875 46.091727 
L 320.15236 45.968161 
L 320.587846 46.549027 
L 321.023331 46.481596 
L 321.458817 46.66107 
L 321.894303 47.449706 
L 322.329788 47.384899 
L 322.765274 47.530714 
L 323.20076 47.520674 
L 323.636245 48.176729 
L 324.071731 48.063317 
L 324.942702 47.559238 
L 325.813674 47.430423 
L 326.249159 47.289856 
L 326.684645 47.6512 
L 327.555616 47.565285 
L 327.991102 47.185572 
L 328.426587 47.016024 
L 328.862073 47.80968 
L 329.733044 47.505727 
L 330.16853 46.862222 
L 330.604016 46.688225 
L 331.039501 47.283923 
L 331.474987 46.157333 
L 331.910472 46.814073 
L 332.345958 46.900787 
L 332.781444 47.67904 
L 333.216929 48.150031 
L 333.652415 47.680067 
L 334.087901 47.521016 
L 334.523386 47.592897 
L 334.958872 47.054817 
L 335.394358 47.0652 
L 335.829843 48.179354 
L 336.700815 48.2809 
L 337.571786 47.940892 
L 338.442757 48.122648 
L 338.878243 47.756283 
L 339.749214 47.694215 
L 340.1847 46.974151 
L 340.620185 47.904267 
L 341.055671 47.731296 
L 341.491157 47.370751 
L 341.926642 47.769404 
L 342.797614 47.971355 
L 343.233099 47.813902 
L 344.10407 47.987785 
L 344.975042 47.470928 
L 345.410527 47.377482 
L 345.846013 46.9616 
L 346.281499 46.939351 
L 346.716984 47.043065 
L 347.15247 46.955667 
L 347.587956 47.219573 
L 348.023441 47.231325 
L 348.894412 47.490324 
L 349.329898 47.512915 
L 349.765384 47.894797 
L 350.200869 47.717034 
L 350.636355 48.56055 
L 351.071841 48.242449 
L 351.507326 48.357002 
L 351.942812 48.658559 
L 354.12024 47.368811 
L 354.555726 46.745843 
L 355.426697 46.485931 
L 355.862183 46.068566 
L 356.297668 45.962798 
L 357.16864 47.315072 
L 357.604125 46.446568 
L 358.039611 46.175817 
L 358.475097 44.982138 
L 358.910582 44.846249 
L 359.346068 44.250892 
L 359.781554 43.314844 
L 360.217039 42.670084 
L 360.652525 42.659244 
L 361.523496 42.248154 
L 361.958982 42.257168 
L 362.394467 41.643784 
L 362.829953 41.463854 
L 363.265439 41.029716 
L 363.700924 40.795134 
L 364.13641 40.428541 
L 364.571896 40.539557 
L 365.442867 40.418272 
L 365.878353 40.20959 
L 366.313838 41.517365 
L 367.620295 41.591414 
L 368.055781 41.86285 
L 368.491266 41.814701 
L 368.926752 41.541896 
L 369.362238 41.529117 
L 369.797723 41.017166 
L 370.233209 41.057556 
L 370.668695 40.814758 
L 371.10418 40.770831 
L 371.539666 40.893143 
L 371.975151 40.656278 
L 372.410637 41.254829 
L 372.846123 41.319293 
L 373.281608 41.572132 
L 374.15258 41.657818 
L 375.023551 40.685144 
L 375.459037 41.368583 
L 375.894522 41.057556 
L 376.330008 41.073758 
L 376.765494 40.800838 
L 377.200979 41.353066 
L 377.636465 41.196183 
L 378.07195 40.881505 
L 378.942922 40.507154 
L 379.378407 39.800325 
L 379.813893 40.125843 
L 380.249379 40.009806 
L 380.684864 38.907405 
L 381.12035 38.181522 
L 381.991321 38.404124 
L 382.862293 36.83792 
L 383.733264 36.673393 
L 384.168749 36.811564 
L 384.604235 36.024867 
L 385.039721 35.956067 
L 385.475206 36.088876 
L 385.910692 36.687427 
L 386.346178 36.653654 
L 386.781663 36.231382 
L 387.217149 36.298129 
L 387.652635 36.588619 
L 388.959091 36.411313 
L 389.830063 37.226419 
L 390.265548 37.366986 
L 390.701034 36.799584 
L 391.13652 37.066227 
L 391.572005 37.148035 
L 392.007491 36.283639 
L 392.442977 36.366587 
L 393.313948 36.194073 
L 394.184919 35.535507 
L 395.05589 36.362593 
L 395.491376 36.411883 
L 395.926862 35.992464 
L 396.362347 35.156592 
L 396.797833 34.990125 
L 397.233319 35.200291 
L 397.668804 35.161156 
L 398.10429 35.815728 
L 398.539776 37.01032 
L 399.410747 37.017736 
L 400.281718 36.839631 
L 400.717204 37.296817 
L 401.152689 37.421867 
L 401.588175 38.101426 
L 402.023661 38.124017 
L 402.023661 38.124017 
" style="fill:none;stroke:#9467bd;stroke-linecap:square;stroke-opacity:0.8;stroke-width:1.5;"/>
   </g>
   <g id="patch_3">
    <path d="M 61.909375 288.430125 
L 61.909375 22.318125 
" style="fill:none;stroke:#000000;stroke-linecap:square;stroke-linejoin:miter;stroke-width:0.8;"/>
   </g>
   <g id="patch_4">
    <path d="M 419.029375 288.430125 
L 419.029375 22.318125 
" style="fill:none;stroke:#000000;stroke-linecap:square;stroke-linejoin:miter;stroke-width:0.8;"/>
   </g>
   <g id="patch_5">
    <path d="M 61.909375 288.430125 
L 419.029375 288.430125 
" style="fill:none;stroke:#000000;stroke-linecap:square;stroke-linejoin:miter;stroke-width:0.8;"/>
   </g>
   <g id="patch_6">
    <path d="M 61.909375 22.318125 
L 419.029375 22.318125 
" style="fill:none;stroke:#000000;stroke-linecap:square;stroke-linejoin:miter;stroke-width:0.8;"/>
   </g>
   <g id="text_18">
    <!-- Get previous sibling [leaf] -->
    <g transform="translate(163.029063 16.318125)scale(0.12 -0.12)">
     <defs>
      <path d="M 59.515625 10.40625 
L 59.515625 29.984375 
L 43.40625 29.984375 
L 43.40625 38.09375 
L 69.28125 38.09375 
L 69.28125 6.78125 
Q 63.578125 2.734375 56.6875 0.65625 
Q 49.8125 -1.421875 42 -1.421875 
Q 24.90625 -1.421875 15.25 8.5625 
Q 5.609375 18.5625 5.609375 36.375 
Q 5.609375 54.25 15.25 64.234375 
Q 24.90625 74.21875 42 74.21875 
Q 49.125 74.21875 55.546875 72.453125 
Q 61.96875 70.703125 67.390625 67.28125 
L 67.390625 56.78125 
Q 61.921875 61.421875 55.765625 63.765625 
Q 49.609375 66.109375 42.828125 66.109375 
Q 29.4375 66.109375 22.71875 58.640625 
Q 16.015625 51.171875 16.015625 36.375 
Q 16.015625 21.625 22.71875 14.15625 
Q 29.4375 6.6875 42.828125 6.6875 
Q 48.046875 6.6875 52.140625 7.59375 
Q 56.25 8.5 59.515625 10.40625 
z
" id="DejaVuSans-71"/>
      <path d="M 18.109375 8.203125 
L 18.109375 -20.796875 
L 9.078125 -20.796875 
L 9.078125 54.6875 
L 18.109375 54.6875 
L 18.109375 46.390625 
Q 20.953125 51.265625 25.265625 53.625 
Q 29.59375 56 35.59375 56 
Q 45.5625 56 51.78125 48.09375 
Q 58.015625 40.1875 58.015625 27.296875 
Q 58.015625 14.40625 51.78125 6.484375 
Q 45.5625 -1.421875 35.59375 -1.421875 
Q 29.59375 -1.421875 25.265625 0.953125 
Q 20.953125 3.328125 18.109375 8.203125 
z
M 48.6875 27.296875 
Q 48.6875 37.203125 44.609375 42.84375 
Q 40.53125 48.484375 33.40625 48.484375 
Q 26.265625 48.484375 22.1875 42.84375 
Q 18.109375 37.203125 18.109375 27.296875 
Q 18.109375 17.390625 22.1875 11.75 
Q 26.265625 6.109375 33.40625 6.109375 
Q 40.53125 6.109375 44.609375 11.75 
Q 48.6875 17.390625 48.6875 27.296875 
z
" id="DejaVuSans-112"/>
      <path d="M 41.109375 46.296875 
Q 39.59375 47.171875 37.8125 47.578125 
Q 36.03125 48 33.890625 48 
Q 26.265625 48 22.1875 43.046875 
Q 18.109375 38.09375 18.109375 28.8125 
L 18.109375 0 
L 9.078125 0 
L 9.078125 54.6875 
L 18.109375 54.6875 
L 18.109375 46.1875 
Q 20.953125 51.171875 25.484375 53.578125 
Q 30.03125 56 36.53125 56 
Q 37.453125 56 38.578125 55.875 
Q 39.703125 55.765625 41.0625 55.515625 
z
" id="DejaVuSans-114"/>
      <path d="M 2.984375 54.6875 
L 12.5 54.6875 
L 29.59375 8.796875 
L 46.6875 54.6875 
L 56.203125 54.6875 
L 35.6875 0 
L 23.484375 0 
z
" id="DejaVuSans-118"/>
      <path d="M 45.40625 27.984375 
Q 45.40625 37.75 41.375 43.109375 
Q 37.359375 48.484375 30.078125 48.484375 
Q 22.859375 48.484375 18.828125 43.109375 
Q 14.796875 37.75 14.796875 27.984375 
Q 14.796875 18.265625 18.828125 12.890625 
Q 22.859375 7.515625 30.078125 7.515625 
Q 37.359375 7.515625 41.375 12.890625 
Q 45.40625 18.265625 45.40625 27.984375 
z
M 54.390625 6.78125 
Q 54.390625 -7.171875 48.1875 -13.984375 
Q 42 -20.796875 29.203125 -20.796875 
Q 24.46875 -20.796875 20.265625 -20.09375 
Q 16.0625 -19.390625 12.109375 -17.921875 
L 12.109375 -9.1875 
Q 16.0625 -11.328125 19.921875 -12.34375 
Q 23.78125 -13.375 27.78125 -13.375 
Q 36.625 -13.375 41.015625 -8.765625 
Q 45.40625 -4.15625 45.40625 5.171875 
L 45.40625 9.625 
Q 42.625 4.78125 38.28125 2.390625 
Q 33.9375 0 27.875 0 
Q 17.828125 0 11.671875 7.65625 
Q 5.515625 15.328125 5.515625 27.984375 
Q 5.515625 40.671875 11.671875 48.328125 
Q 17.828125 56 27.875 56 
Q 33.9375 56 38.28125 53.609375 
Q 42.625 51.21875 45.40625 46.390625 
L 45.40625 54.6875 
L 54.390625 54.6875 
z
" id="DejaVuSans-103"/>
      <path d="M 8.59375 75.984375 
L 29.296875 75.984375 
L 29.296875 69 
L 17.578125 69 
L 17.578125 -6.203125 
L 29.296875 -6.203125 
L 29.296875 -13.1875 
L 8.59375 -13.1875 
z
" id="DejaVuSans-91"/>
      <path d="M 30.421875 75.984375 
L 30.421875 -13.1875 
L 9.71875 -13.1875 
L 9.71875 -6.203125 
L 21.390625 -6.203125 
L 21.390625 69 
L 9.71875 69 
L 9.71875 75.984375 
z
" id="DejaVuSans-93"/>
     </defs>
     <use xlink:href="#DejaVuSans-71"/>
     <use x="77.490234" xlink:href="#DejaVuSans-101"/>
     <use x="139.013672" xlink:href="#DejaVuSans-116"/>
     <use x="178.222656" xlink:href="#DejaVuSans-32"/>
     <use x="210.009766" xlink:href="#DejaVuSans-112"/>
     <use x="273.486328" xlink:href="#DejaVuSans-114"/>
     <use x="312.349609" xlink:href="#DejaVuSans-101"/>
     <use x="373.873047" xlink:href="#DejaVuSans-118"/>
     <use x="433.052734" xlink:href="#DejaVuSans-105"/>
     <use x="460.835938" xlink:href="#DejaVuSans-111"/>
     <use x="522.017578" xlink:href="#DejaVuSans-117"/>
     <use x="585.396484" xlink:href="#DejaVuSans-115"/>
     <use x="637.496094" xlink:href="#DejaVuSans-32"/>
     <use x="669.283203" xlink:href="#DejaVuSans-115"/>
     <use x="721.382812" xlink:href="#DejaVuSans-105"/>
     <use x="749.166016" xlink:href="#DejaVuSans-98"/>
     <use x="812.642578" xlink:href="#DejaVuSans-108"/>
     <use x="840.425781" xlink:href="#DejaVuSans-105"/>
     <use x="868.208984" xlink:href="#DejaVuSans-110"/>
     <use x="931.587891" xlink:href="#DejaVuSans-103"/>
     <use x="995.064453" xlink:href="#DejaVuSans-32"/>
     <use x="1026.851562" xlink:href="#DejaVuSans-91"/>
     <use x="1065.865234" xlink:href="#DejaVuSans-108"/>
     <use x="1093.648438" xlink:href="#DejaVuSans-101"/>
     <use x="1155.171875" xlink:href="#DejaVuSans-97"/>
     <use x="1216.451172" xlink:href="#DejaVuSans-102"/>
     <use x="1251.65625" xlink:href="#DejaVuSans-93"/>
    </g>
   </g>
   <g id="legend_1">
    <g id="patch_7">
     <path d="M 92.911719 365.802375 
L 380.507031 365.802375 
Q 382.507031 365.802375 382.507031 363.802375 
L 382.507031 335.446125 
Q 382.507031 333.446125 380.507031 333.446125 
L 92.911719 333.446125 
Q 90.911719 333.446125 90.911719 335.446125 
L 90.911719 363.802375 
Q 90.911719 365.802375 92.911719 365.802375 
z
" style="fill:#4c4c4c;opacity:0.5;stroke:#4c4c4c;stroke-linejoin:miter;"/>
    </g>
    <g id="patch_8">
     <path d="M 90.911719 363.802375 
L 378.507031 363.802375 
Q 380.507031 363.802375 380.507031 361.802375 
L 380.507031 333.446125 
Q 380.507031 331.446125 378.507031 331.446125 
L 90.911719 331.446125 
Q 88.911719 331.446125 88.911719 333.446125 
L 88.911719 361.802375 
Q 88.911719 363.802375 90.911719 363.802375 
z
" style="fill:#ffffff;stroke:#cccccc;stroke-linejoin:miter;"/>
    </g>
    <g id="line2d_21">
     <path d="M 92.911719 339.544562 
L 112.911719 339.544562 
" style="fill:none;stroke:#1f77b4;stroke-linecap:square;stroke-opacity:0.8;stroke-width:1.5;"/>
    </g>
    <g id="line2d_22"/>
    <g id="text_19">
     <!-- MPTT -->
     <g transform="translate(120.911719 343.044562)scale(0.1 -0.1)">
      <defs>
       <path d="M 9.8125 72.90625 
L 24.515625 72.90625 
L 43.109375 23.296875 
L 61.8125 72.90625 
L 76.515625 72.90625 
L 76.515625 0 
L 66.890625 0 
L 66.890625 64.015625 
L 48.09375 14.015625 
L 38.1875 14.015625 
L 19.390625 64.015625 
L 19.390625 0 
L 9.8125 0 
z
" id="DejaVuSans-77"/>
       <path d="M 19.671875 64.796875 
L 19.671875 37.40625 
L 32.078125 37.40625 
Q 38.96875 37.40625 42.71875 40.96875 
Q 46.484375 44.53125 46.484375 51.125 
Q 46.484375 57.671875 42.71875 61.234375 
Q 38.96875 64.796875 32.078125 64.796875 
z
M 9.8125 72.90625 
L 32.078125 72.90625 
Q 44.34375 72.90625 50.609375 67.359375 
Q 56.890625 61.8125 56.890625 51.125 
Q 56.890625 40.328125 50.609375 34.8125 
Q 44.34375 29.296875 32.078125 29.296875 
L 19.671875 29.296875 
L 19.671875 0 
L 9.8125 0 
z
" id="DejaVuSans-80"/>
       <path d="M -0.296875 72.90625 
L 61.375 72.90625 
L 61.375 64.59375 
L 35.5 64.59375 
L 35.5 0 
L 25.59375 0 
L 25.59375 64.59375 
L -0.296875 64.59375 
z
" id="DejaVuSans-84"/>
      </defs>
      <use xlink:href="#DejaVuSans-77"/>
      <use x="86.279297" xlink:href="#DejaVuSans-80"/>
      <use x="146.582031" xlink:href="#DejaVuSans-84"/>
      <use x="205.916016" xlink:href="#DejaVuSans-84"/>
     </g>
    </g>
    <g id="line2d_23">
     <path d="M 92.911719 354.222687 
L 112.911719 354.222687 
" style="fill:none;stroke:#ff7f0e;stroke-linecap:square;stroke-opacity:0.8;stroke-width:1.5;"/>
    </g>
    <g id="line2d_24"/>
    <g id="text_20">
     <!-- tree -->
     <g transform="translate(120.911719 357.722687)scale(0.1 -0.1)">
      <use xlink:href="#DejaVuSans-116"/>
      <use x="39.208984" xlink:href="#DejaVuSans-114"/>
      <use x="78.072266" xlink:href="#DejaVuSans-101"/>
      <use x="139.595703" xlink:href="#DejaVuSans-101"/>
     </g>
    </g>
    <g id="line2d_25">
     <path d="M 167.610156 339.544562 
L 187.610156 339.544562 
" style="fill:none;stroke:#2ca02c;stroke-linecap:square;stroke-opacity:0.8;stroke-width:1.5;"/>
    </g>
    <g id="line2d_26"/>
    <g id="text_21">
     <!-- treebeard AL -->
     <g transform="translate(195.610156 343.044562)scale(0.1 -0.1)">
      <defs>
       <path d="M 9.8125 72.90625 
L 19.671875 72.90625 
L 19.671875 8.296875 
L 55.171875 8.296875 
L 55.171875 0 
L 9.8125 0 
z
" id="DejaVuSans-76"/>
      </defs>
      <use xlink:href="#DejaVuSans-116"/>
      <use x="39.208984" xlink:href="#DejaVuSans-114"/>
      <use x="78.072266" xlink:href="#DejaVuSans-101"/>
      <use x="139.595703" xlink:href="#DejaVuSans-101"/>
      <use x="201.119141" xlink:href="#DejaVuSans-98"/>
      <use x="264.595703" xlink:href="#DejaVuSans-101"/>
      <use x="326.119141" xlink:href="#DejaVuSans-97"/>
      <use x="387.398438" xlink:href="#DejaVuSans-114"/>
      <use x="426.761719" xlink:href="#DejaVuSans-100"/>
      <use x="490.238281" xlink:href="#DejaVuSans-32"/>
      <use x="522.025391" xlink:href="#DejaVuSans-65"/>
      <use x="590.433594" xlink:href="#DejaVuSans-76"/>
     </g>
    </g>
    <g id="line2d_27">
     <path d="M 167.610156 354.222687 
L 187.610156 354.222687 
" style="fill:none;stroke:#d62728;stroke-linecap:square;stroke-opacity:0.8;stroke-width:1.5;"/>
    </g>
    <g id="line2d_28"/>
    <g id="text_22">
     <!-- treebeard MP -->
     <g transform="translate(195.610156 357.722687)scale(0.1 -0.1)">
      <use xlink:href="#DejaVuSans-116"/>
      <use x="39.208984" xlink:href="#DejaVuSans-114"/>
      <use x="78.072266" xlink:href="#DejaVuSans-101"/>
      <use x="139.595703" xlink:href="#DejaVuSans-101"/>
      <use x="201.119141" xlink:href="#DejaVuSans-98"/>
      <use x="264.595703" xlink:href="#DejaVuSans-101"/>
      <use x="326.119141" xlink:href="#DejaVuSans-97"/>
      <use x="387.398438" xlink:href="#DejaVuSans-114"/>
      <use x="426.761719" xlink:href="#DejaVuSans-100"/>
      <use x="490.238281" xlink:href="#DejaVuSans-32"/>
      <use x="522.025391" xlink:href="#DejaVuSans-77"/>
      <use x="608.304688" xlink:href="#DejaVuSans-80"/>
     </g>
    </g>
    <g id="line2d_29">
     <path d="M 282.472656 339.544562 
L 302.472656 339.544562 
" style="fill:none;stroke:#9467bd;stroke-linecap:square;stroke-opacity:0.8;stroke-width:1.5;"/>
    </g>
    <g id="line2d_30"/>
    <g id="text_23">
     <!-- treebeard NS -->
     <g transform="translate(310.472656 343.044562)scale(0.1 -0.1)">
      <defs>
       <path d="M 9.8125 72.90625 
L 23.09375 72.90625 
L 55.421875 11.921875 
L 55.421875 72.90625 
L 64.984375 72.90625 
L 64.984375 0 
L 51.703125 0 
L 19.390625 60.984375 
L 19.390625 0 
L 9.8125 0 
z
" id="DejaVuSans-78"/>
       <path d="M 53.515625 70.515625 
L 53.515625 60.890625 
Q 47.90625 63.578125 42.921875 64.890625 
Q 37.9375 66.21875 33.296875 66.21875 
Q 25.25 66.21875 20.875 63.09375 
Q 16.5 59.96875 16.5 54.203125 
Q 16.5 49.359375 19.40625 46.890625 
Q 22.3125 44.4375 30.421875 42.921875 
L 36.375 41.703125 
Q 47.40625 39.59375 52.65625 34.296875 
Q 57.90625 29 57.90625 20.125 
Q 57.90625 9.515625 50.796875 4.046875 
Q 43.703125 -1.421875 29.984375 -1.421875 
Q 24.8125 -1.421875 18.96875 -0.25 
Q 13.140625 0.921875 6.890625 3.21875 
L 6.890625 13.375 
Q 12.890625 10.015625 18.65625 8.296875 
Q 24.421875 6.59375 29.984375 6.59375 
Q 38.421875 6.59375 43.015625 9.90625 
Q 47.609375 13.234375 47.609375 19.390625 
Q 47.609375 24.75 44.3125 27.78125 
Q 41.015625 30.8125 33.5 32.328125 
L 27.484375 33.5 
Q 16.453125 35.6875 11.515625 40.375 
Q 6.59375 45.0625 6.59375 53.421875 
Q 6.59375 63.09375 13.40625 68.65625 
Q 20.21875 74.21875 32.171875 74.21875 
Q 37.3125 74.21875 42.625 73.28125 
Q 47.953125 72.359375 53.515625 70.515625 
z
" id="DejaVuSans-83"/>
      </defs>
      <use xlink:href="#DejaVuSans-116"/>
      <use x="39.208984" xlink:href="#DejaVuSans-114"/>
      <use x="78.072266" xlink:href="#DejaVuSans-101"/>
      <use x="139.595703" xlink:href="#DejaVuSans-101"/>
      <use x="201.119141" xlink:href="#DejaVuSans-98"/>
      <use x="264.595703" xlink:href="#DejaVuSans-101"/>
      <use x="326.119141" xlink:href="#DejaVuSans-97"/>
      <use x="387.398438" xlink:href="#DejaVuSans-114"/>
      <use x="426.761719" xlink:href="#DejaVuSans-100"/>
      <use x="490.238281" xlink:href="#DejaVuSans-32"/>
      <use x="522.025391" xlink:href="#DejaVuSans-78"/>
      <use x="596.830078" xlink:href="#DejaVuSans-83"/>
     </g>
    </g>
   </g>
  </g>
 </g>
 <defs>
  <clipPath id="p1c5937bd25">
   <rect height="266.112" width="357.12" x="61.909375" y="22.318125"/>
  </clipPath>
 </defs>
</svg>
