<?xml version="1.0" encoding="utf-8" standalone="no"?>
<!DOCTYPE svg PUBLIC "-//W3C//DTD SVG 1.1//EN"
  "http://www.w3.org/Graphics/SVG/1.1/DTD/svg11.dtd">
<svg xmlns:xlink="http://www.w3.org/1999/xlink" width="429.736406pt" height="386.648469pt" viewBox="0 0 429.736406 386.648469" xmlns="http://www.w3.org/2000/svg" version="1.1">
 <metadata>
  <rdf:RDF xmlns:dc="http://purl.org/dc/elements/1.1/" xmlns:cc="http://creativecommons.org/ns#" xmlns:rdf="http://www.w3.org/1999/02/22-rdf-syntax-ns#">
   <cc:Work>
    <dc:type rdf:resource="http://purl.org/dc/dcmitype/StillImage"/>
    <dc:date>2026-06-29T19:53:20.019414</dc:date>
    <dc:format>image/svg+xml</dc:format>
    <dc:creator>
     <cc:Agent>
      <dc:title>Matplotlib v3.11.0, https://matplotlib.org/</dc:title>
     </cc:Agent>
    </dc:creator>
   </cc:Work>
  </rdf:RDF>
 </metadata>
 <defs>
  <style type="text/css">*{stroke-linejoin: round; stroke-linecap: butt}</style>
 </defs>
 <g id="figure_1">
  <g id="patch_1">
   <path d="M 0 386.648469 
L 429.736406 386.648469 
L 429.736406 0 
L 0 0 
z
" style="fill: #ffffff"/>
  </g>
  <g id="axes_1">
   <g id="patch_2">
    <path d="M 65.416406 288.430125 
L 422.536406 288.430125 
L 422.536406 22.318125 
L 65.416406 22.318125 
z
" style="fill: #ffffff"/>
   </g>
   <g id="matplotlib.axis_1">
    <g id="xtick_1">
     <g id="line2d_1">
      <defs>
       <path id="m737887c604" d="M 0 0 
L 0 3.5 
" style="stroke: #000000; stroke-width: 0.8"/>
      </defs>
      <g>
       <use xlink:href="#m737887c604" x="65.416406" y="288.430125" style="stroke: #000000; stroke-width: 0.8"/>
      </g>
     </g>
     <g id="text_1">
      <!-- 0 -->
      <g transform="translate(62.235156 303.027781) scale(0.1 -0.1)">
       <defs>
        <path id="DejaVuSans-13" d="M 2034 4250 
Q 1547 4250 1301 3770 
Q 1056 3291 1056 2328 
Q 1056 1369 1301 889 
Q 1547 409 2034 409 
Q 2525 409 2770 889 
Q 3016 1369 3016 2328 
Q 3016 3291 2770 3770 
Q 2525 4250 2034 4250 
z
M 2034 4750 
Q 2819 4750 3233 4129 
Q 3647 3509 3647 2328 
Q 3647 1150 3233 529 
Q 2819 -91 2034 -91 
Q 1250 -91 836 529 
Q 422 1150 422 2328 
Q 422 3509 836 4129 
Q 1250 4750 2034 4750 
z
" transform="scale(0.015625)"/>
       </defs>
       <use xlink:href="#DejaVuSans-13"/>
      </g>
     </g>
    </g>
    <g id="xtick_2">
     <g id="line2d_2">
      <g>
       <use xlink:href="#m737887c604" x="108.96497" y="288.430125" style="stroke: #000000; stroke-width: 0.8"/>
      </g>
     </g>
     <g id="text_2">
      <!-- 500  -->
      <g transform="translate(97.832158 303.027781) scale(0.1 -0.1)">
       <defs>
        <path id="DejaVuSans-18" d="M 691 4666 
L 3169 4666 
L 3169 4134 
L 1269 4134 
L 1269 2991 
Q 1406 3038 1543 3061 
Q 1681 3084 1819 3084 
Q 2600 3084 3056 2656 
Q 3513 2228 3513 1497 
Q 3513 744 3044 326 
Q 2575 -91 1722 -91 
Q 1428 -91 1123 -41 
Q 819 9 494 109 
L 494 744 
Q 775 591 1075 516 
Q 1375 441 1709 441 
Q 2250 441 2565 725 
Q 2881 1009 2881 1497 
Q 2881 1984 2565 2268 
Q 2250 2553 1709 2553 
Q 1456 2553 1204 2497 
Q 953 2441 691 2322 
L 691 4666 
z
" transform="scale(0.015625)"/>
        <path id="DejaVuSans-3" transform="scale(0.015625)"/>
       </defs>
       <use xlink:href="#DejaVuSans-18"/>
       <use xlink:href="#DejaVuSans-13" transform="translate(63.625 0)"/>
       <use xlink:href="#DejaVuSans-13" transform="translate(127.25 0)"/>
       <use xlink:href="#DejaVuSans-3" transform="translate(190.875 0)"/>
      </g>
     </g>
    </g>
    <g id="xtick_3">
     <g id="line2d_3">
      <g>
       <use xlink:href="#m737887c604" x="152.513534" y="288.430125" style="stroke: #000000; stroke-width: 0.8"/>
      </g>
     </g>
     <g id="text_3">
      <!-- 1 k -->
      <g transform="translate(144.847909 303.028562) scale(0.1 -0.1)">
       <defs>
        <path id="DejaVuSans-14" d="M 794 531 
L 1825 531 
L 1825 4091 
L 703 3866 
L 703 4441 
L 1819 4666 
L 2450 4666 
L 2450 531 
L 3481 531 
L 3481 0 
L 794 0 
L 794 531 
z
" transform="scale(0.015625)"/>
        <path id="DejaVuSans-4e" d="M 581 4863 
L 1159 4863 
L 1159 1991 
L 2875 3500 
L 3609 3500 
L 1753 1863 
L 3688 0 
L 2938 0 
L 1159 1709 
L 1159 0 
L 581 0 
L 581 4863 
z
" transform="scale(0.015625)"/>
       </defs>
       <use xlink:href="#DejaVuSans-14"/>
       <use xlink:href="#DejaVuSans-3" transform="translate(63.625 0)"/>
       <use xlink:href="#DejaVuSans-4e" transform="translate(95.40625 0)"/>
      </g>
     </g>
    </g>
    <g id="xtick_4">
     <g id="line2d_4">
      <g>
       <use xlink:href="#m737887c604" x="196.062099" y="288.430125" style="stroke: #000000; stroke-width: 0.8"/>
      </g>
     </g>
     <g id="text_4">
      <!-- 1.5 k -->
      <g transform="translate(183.626161 303.028562) scale(0.1 -0.1)">
       <defs>
        <path id="DejaVuSans-11" d="M 684 794 
L 1344 794 
L 1344 0 
L 684 0 
L 684 794 
z
" transform="scale(0.015625)"/>
       </defs>
       <use xlink:href="#DejaVuSans-14"/>
       <use xlink:href="#DejaVuSans-11" transform="translate(63.625 0)"/>
       <use xlink:href="#DejaVuSans-18" transform="translate(95.40625 0)"/>
       <use xlink:href="#DejaVuSans-3" transform="translate(159.03125 0)"/>
       <use xlink:href="#DejaVuSans-4e" transform="translate(190.8125 0)"/>
      </g>
     </g>
    </g>
    <g id="xtick_5">
     <g id="line2d_5">
      <g>
       <use xlink:href="#m737887c604" x="239.610663" y="288.430125" style="stroke: #000000; stroke-width: 0.8"/>
      </g>
     </g>
     <g id="text_5">
      <!-- 2 k -->
      <g transform="translate(231.945038 303.028562) scale(0.1 -0.1)">
       <defs>
        <path id="DejaVuSans-15" d="M 1228 531 
L 3431 531 
L 3431 0 
L 469 0 
L 469 531 
Q 828 903 1448 1529 
Q 2069 2156 2228 2338 
Q 2531 2678 2651 2914 
Q 2772 3150 2772 3378 
Q 2772 3750 2511 3984 
Q 2250 4219 1831 4219 
Q 1534 4219 1204 4116 
Q 875 4013 500 3803 
L 500 4441 
Q 881 4594 1212 4672 
Q 1544 4750 1819 4750 
Q 2544 4750 2975 4387 
Q 3406 4025 3406 3419 
Q 3406 3131 3298 2873 
Q 3191 2616 2906 2266 
Q 2828 2175 2409 1742 
Q 1991 1309 1228 531 
z
" transform="scale(0.015625)"/>
       </defs>
       <use xlink:href="#DejaVuSans-15"/>
       <use xlink:href="#DejaVuSans-3" transform="translate(63.625 0)"/>
       <use xlink:href="#DejaVuSans-4e" transform="translate(95.40625 0)"/>
      </g>
     </g>
    </g>
    <g id="xtick_6">
     <g id="line2d_6">
      <g>
       <use xlink:href="#m737887c604" x="283.159227" y="288.430125" style="stroke: #000000; stroke-width: 0.8"/>
      </g>
     </g>
     <g id="text_6">
      <!-- 2.5 k -->
      <g transform="translate(270.723289 303.028562) scale(0.1 -0.1)">
       <use xlink:href="#DejaVuSans-15"/>
       <use xlink:href="#DejaVuSans-11" transform="translate(63.625 0)"/>
       <use xlink:href="#DejaVuSans-18" transform="translate(95.40625 0)"/>
       <use xlink:href="#DejaVuSans-3" transform="translate(159.03125 0)"/>
       <use xlink:href="#DejaVuSans-4e" transform="translate(190.8125 0)"/>
      </g>
     </g>
    </g>
    <g id="xtick_7">
     <g id="line2d_7">
      <g>
       <use xlink:href="#m737887c604" x="326.707791" y="288.430125" style="stroke: #000000; stroke-width: 0.8"/>
      </g>
     </g>
     <g id="text_7">
      <!-- 3 k -->
      <g transform="translate(319.042166 303.028562) scale(0.1 -0.1)">
       <defs>
        <path id="DejaVuSans-16" d="M 2597 2516 
Q 3050 2419 3304 2112 
Q 3559 1806 3559 1356 
Q 3559 666 3084 287 
Q 2609 -91 1734 -91 
Q 1441 -91 1130 -33 
Q 819 25 488 141 
L 488 750 
Q 750 597 1062 519 
Q 1375 441 1716 441 
Q 2309 441 2620 675 
Q 2931 909 2931 1356 
Q 2931 1769 2642 2001 
Q 2353 2234 1838 2234 
L 1294 2234 
L 1294 2753 
L 1863 2753 
Q 2328 2753 2575 2939 
Q 2822 3125 2822 3475 
Q 2822 3834 2567 4026 
Q 2313 4219 1838 4219 
Q 1578 4219 1281 4162 
Q 984 4106 628 3988 
L 628 4550 
Q 988 4650 1302 4700 
Q 1616 4750 1894 4750 
Q 2613 4750 3031 4423 
Q 3450 4097 3450 3541 
Q 3450 3153 3228 2886 
Q 3006 2619 2597 2516 
z
" transform="scale(0.015625)"/>
       </defs>
       <use xlink:href="#DejaVuSans-16"/>
       <use xlink:href="#DejaVuSans-3" transform="translate(63.625 0)"/>
       <use xlink:href="#DejaVuSans-4e" transform="translate(95.40625 0)"/>
      </g>
     </g>
    </g>
    <g id="xtick_8">
     <g id="line2d_8">
      <g>
       <use xlink:href="#m737887c604" x="370.256355" y="288.430125" style="stroke: #000000; stroke-width: 0.8"/>
      </g>
     </g>
     <g id="text_8">
      <!-- 3.5 k -->
      <g transform="translate(357.820418 303.028562) scale(0.1 -0.1)">
       <use xlink:href="#DejaVuSans-16"/>
       <use xlink:href="#DejaVuSans-11" transform="translate(63.625 0)"/>
       <use xlink:href="#DejaVuSans-18" transform="translate(95.40625 0)"/>
       <use xlink:href="#DejaVuSans-3" transform="translate(159.03125 0)"/>
       <use xlink:href="#DejaVuSans-4e" transform="translate(190.8125 0)"/>
      </g>
     </g>
    </g>
    <g id="xtick_9">
     <g id="line2d_9">
      <g>
       <use xlink:href="#m737887c604" x="413.804919" y="288.430125" style="stroke: #000000; stroke-width: 0.8"/>
      </g>
     </g>
     <g id="text_9">
      <!-- 4 k -->
      <g transform="translate(406.139294 303.028562) scale(0.1 -0.1)">
       <defs>
        <path id="DejaVuSans-17" d="M 2419 4116 
L 825 1625 
L 2419 1625 
L 2419 4116 
z
M 2253 4666 
L 3047 4666 
L 3047 1625 
L 3713 1625 
L 3713 1100 
L 3047 1100 
L 3047 0 
L 2419 0 
L 2419 1100 
L 313 1100 
L 313 1709 
L 2253 4666 
z
" transform="scale(0.015625)"/>
       </defs>
       <use xlink:href="#DejaVuSans-17"/>
       <use xlink:href="#DejaVuSans-3" transform="translate(63.625 0)"/>
       <use xlink:href="#DejaVuSans-4e" transform="translate(95.40625 0)"/>
      </g>
     </g>
    </g>
    <g id="text_10">
     <!-- Amount of objects in table -->
     <g transform="translate(177.917813 317.029344) scale(0.1 -0.1)">
      <defs>
       <path id="DejaVuSans-24" d="M 2188 4044 
L 1331 1722 
L 3047 1722 
L 2188 4044 
z
M 1831 4666 
L 2547 4666 
L 4325 0 
L 3669 0 
L 3244 1197 
L 1141 1197 
L 716 0 
L 50 0 
L 1831 4666 
z
" transform="scale(0.015625)"/>
       <path id="DejaVuSans-50" d="M 3328 2828 
Q 3544 3216 3844 3400 
Q 4144 3584 4550 3584 
Q 5097 3584 5394 3201 
Q 5691 2819 5691 2113 
L 5691 0 
L 5113 0 
L 5113 2094 
Q 5113 2597 4934 2840 
Q 4756 3084 4391 3084 
Q 3944 3084 3684 2787 
Q 3425 2491 3425 1978 
L 3425 0 
L 2847 0 
L 2847 2094 
Q 2847 2600 2669 2842 
Q 2491 3084 2119 3084 
Q 1678 3084 1418 2786 
Q 1159 2488 1159 1978 
L 1159 0 
L 581 0 
L 581 3500 
L 1159 3500 
L 1159 2956 
Q 1356 3278 1631 3431 
Q 1906 3584 2284 3584 
Q 2666 3584 2933 3390 
Q 3200 3197 3328 2828 
z
" transform="scale(0.015625)"/>
       <path id="DejaVuSans-52" d="M 1959 3097 
Q 1497 3097 1228 2736 
Q 959 2375 959 1747 
Q 959 1119 1226 758 
Q 1494 397 1959 397 
Q 2419 397 2687 759 
Q 2956 1122 2956 1747 
Q 2956 2369 2687 2733 
Q 2419 3097 1959 3097 
z
M 1959 3584 
Q 2709 3584 3137 3096 
Q 3566 2609 3566 1747 
Q 3566 888 3137 398 
Q 2709 -91 1959 -91 
Q 1206 -91 779 398 
Q 353 888 353 1747 
Q 353 2609 779 3096 
Q 1206 3584 1959 3584 
z
" transform="scale(0.015625)"/>
       <path id="DejaVuSans-58" d="M 544 1381 
L 544 3500 
L 1119 3500 
L 1119 1403 
Q 1119 906 1312 657 
Q 1506 409 1894 409 
Q 2359 409 2629 706 
Q 2900 1003 2900 1516 
L 2900 3500 
L 3475 3500 
L 3475 0 
L 2900 0 
L 2900 538 
Q 2691 219 2414 64 
Q 2138 -91 1772 -91 
Q 1169 -91 856 284 
Q 544 659 544 1381 
z
M 1991 3584 
L 1991 3584 
z
" transform="scale(0.015625)"/>
       <path id="DejaVuSans-51" d="M 3513 2113 
L 3513 0 
L 2938 0 
L 2938 2094 
Q 2938 2591 2744 2837 
Q 2550 3084 2163 3084 
Q 1697 3084 1428 2787 
Q 1159 2491 1159 1978 
L 1159 0 
L 581 0 
L 581 3500 
L 1159 3500 
L 1159 2956 
Q 1366 3272 1645 3428 
Q 1925 3584 2291 3584 
Q 2894 3584 3203 3211 
Q 3513 2838 3513 2113 
z
" transform="scale(0.015625)"/>
       <path id="DejaVuSans-57" d="M 1172 4494 
L 1172 3500 
L 2356 3500 
L 2356 3053 
L 1172 3053 
L 1172 1153 
Q 1172 725 1289 603 
Q 1406 481 1766 481 
L 2356 481 
L 2356 0 
L 1766 0 
Q 1100 0 847 248 
Q 594 497 594 1153 
L 594 3053 
L 172 3053 
L 172 3500 
L 594 3500 
L 594 4494 
L 1172 4494 
z
" transform="scale(0.015625)"/>
       <path id="DejaVuSans-49" d="M 2375 4863 
L 2375 4384 
L 1825 4384 
Q 1516 4384 1395 4259 
Q 1275 4134 1275 3809 
L 1275 3500 
L 2222 3500 
L 2222 3053 
L 1275 3053 
L 1275 0 
L 697 0 
L 697 3053 
L 147 3053 
L 147 3500 
L 697 3500 
L 697 3744 
Q 697 4328 969 4595 
Q 1241 4863 1831 4863 
L 2375 4863 
z
" transform="scale(0.015625)"/>
       <path id="DejaVuSans-45" d="M 3116 1747 
Q 3116 2381 2855 2742 
Q 2594 3103 2138 3103 
Q 1681 3103 1420 2742 
Q 1159 2381 1159 1747 
Q 1159 1113 1420 752 
Q 1681 391 2138 391 
Q 2594 391 2855 752 
Q 3116 1113 3116 1747 
z
M 1159 2969 
Q 1341 3281 1617 3432 
Q 1894 3584 2278 3584 
Q 2916 3584 3314 3078 
Q 3713 2572 3713 1747 
Q 3713 922 3314 415 
Q 2916 -91 2278 -91 
Q 1894 -91 1617 61 
Q 1341 213 1159 525 
L 1159 0 
L 581 0 
L 581 4863 
L 1159 4863 
L 1159 2969 
z
" transform="scale(0.015625)"/>
       <path id="DejaVuSans-4d" d="M 603 3500 
L 1178 3500 
L 1178 -63 
Q 1178 -731 923 -1031 
Q 669 -1331 103 -1331 
L -116 -1331 
L -116 -844 
L 38 -844 
Q 366 -844 484 -692 
Q 603 -541 603 -63 
L 603 3500 
z
M 603 4863 
L 1178 4863 
L 1178 4134 
L 603 4134 
L 603 4863 
z
" transform="scale(0.015625)"/>
       <path id="DejaVuSans-48" d="M 3597 1894 
L 3597 1613 
L 953 1613 
Q 991 1019 1311 708 
Q 1631 397 2203 397 
Q 2534 397 2845 478 
Q 3156 559 3463 722 
L 3463 178 
Q 3153 47 2828 -22 
Q 2503 -91 2169 -91 
Q 1331 -91 842 396 
Q 353 884 353 1716 
Q 353 2575 817 3079 
Q 1281 3584 2069 3584 
Q 2775 3584 3186 3129 
Q 3597 2675 3597 1894 
z
M 3022 2063 
Q 3016 2534 2758 2815 
Q 2500 3097 2075 3097 
Q 1594 3097 1305 2825 
Q 1016 2553 972 2059 
L 3022 2063 
z
" transform="scale(0.015625)"/>
       <path id="DejaVuSans-46" d="M 3122 3366 
L 3122 2828 
Q 2878 2963 2633 3030 
Q 2388 3097 2138 3097 
Q 1578 3097 1268 2742 
Q 959 2388 959 1747 
Q 959 1106 1268 751 
Q 1578 397 2138 397 
Q 2388 397 2633 464 
Q 2878 531 3122 666 
L 3122 134 
Q 2881 22 2623 -34 
Q 2366 -91 2075 -91 
Q 1284 -91 818 406 
Q 353 903 353 1747 
Q 353 2603 823 3093 
Q 1294 3584 2113 3584 
Q 2378 3584 2631 3529 
Q 2884 3475 3122 3366 
z
" transform="scale(0.015625)"/>
       <path id="DejaVuSans-56" d="M 2834 3397 
L 2834 2853 
Q 2591 2978 2328 3040 
Q 2066 3103 1784 3103 
Q 1356 3103 1142 2972 
Q 928 2841 928 2578 
Q 928 2378 1081 2264 
Q 1234 2150 1697 2047 
L 1894 2003 
Q 2506 1872 2764 1633 
Q 3022 1394 3022 966 
Q 3022 478 2636 193 
Q 2250 -91 1575 -91 
Q 1294 -91 989 -36 
Q 684 19 347 128 
L 347 722 
Q 666 556 975 473 
Q 1284 391 1588 391 
Q 1994 391 2212 530 
Q 2431 669 2431 922 
Q 2431 1156 2273 1281 
Q 2116 1406 1581 1522 
L 1381 1569 
Q 847 1681 609 1914 
Q 372 2147 372 2553 
Q 372 3047 722 3315 
Q 1072 3584 1716 3584 
Q 2034 3584 2315 3537 
Q 2597 3491 2834 3397 
z
" transform="scale(0.015625)"/>
       <path id="DejaVuSans-4c" d="M 603 3500 
L 1178 3500 
L 1178 0 
L 603 0 
L 603 3500 
z
M 603 4863 
L 1178 4863 
L 1178 4134 
L 603 4134 
L 603 4863 
z
" transform="scale(0.015625)"/>
       <path id="DejaVuSans-44" d="M 2194 1759 
Q 1497 1759 1228 1600 
Q 959 1441 959 1056 
Q 959 750 1161 570 
Q 1363 391 1709 391 
Q 2188 391 2477 730 
Q 2766 1069 2766 1631 
L 2766 1759 
L 2194 1759 
z
M 3341 1997 
L 3341 0 
L 2766 0 
L 2766 531 
Q 2569 213 2275 61 
Q 1981 -91 1556 -91 
Q 1019 -91 701 211 
Q 384 513 384 1019 
Q 384 1609 779 1909 
Q 1175 2209 1959 2209 
L 2766 2209 
L 2766 2266 
Q 2766 2663 2505 2880 
Q 2244 3097 1772 3097 
Q 1472 3097 1187 3025 
Q 903 2953 641 2809 
L 641 3341 
Q 956 3463 1253 3523 
Q 1550 3584 1831 3584 
Q 2591 3584 2966 3190 
Q 3341 2797 3341 1997 
z
" transform="scale(0.015625)"/>
       <path id="DejaVuSans-4f" d="M 603 4863 
L 1178 4863 
L 1178 0 
L 603 0 
L 603 4863 
z
" transform="scale(0.015625)"/>
      </defs>
      <use xlink:href="#DejaVuSans-24"/>
      <use xlink:href="#DejaVuSans-50" transform="translate(68.40625 0)"/>
      <use xlink:href="#DejaVuSans-52" transform="translate(165.8125 0)"/>
      <use xlink:href="#DejaVuSans-58" transform="translate(227 0)"/>
      <use xlink:href="#DejaVuSans-51" transform="translate(290.375 0)"/>
      <use xlink:href="#DejaVuSans-57" transform="translate(353.75 0)"/>
      <use xlink:href="#DejaVuSans-3" transform="translate(392.953125 0)"/>
      <use xlink:href="#DejaVuSans-52" transform="translate(424.734375 0)"/>
      <use xlink:href="#DejaVuSans-49" transform="translate(485.921875 0)"/>
      <use xlink:href="#DejaVuSans-3" transform="translate(521.125 0)"/>
      <use xlink:href="#DejaVuSans-52" transform="translate(552.90625 0)"/>
      <use xlink:href="#DejaVuSans-45" transform="translate(614.09375 0)"/>
      <use xlink:href="#DejaVuSans-4d" transform="translate(677.578125 0)"/>
      <use xlink:href="#DejaVuSans-48" transform="translate(705.359375 0)"/>
      <use xlink:href="#DejaVuSans-46" transform="translate(766.890625 0)"/>
      <use xlink:href="#DejaVuSans-57" transform="translate(821.875 0)"/>
      <use xlink:href="#DejaVuSans-56" transform="translate(861.078125 0)"/>
      <use xlink:href="#DejaVuSans-3" transform="translate(913.171875 0)"/>
      <use xlink:href="#DejaVuSans-4c" transform="translate(944.953125 0)"/>
      <use xlink:href="#DejaVuSans-51" transform="translate(972.734375 0)"/>
      <use xlink:href="#DejaVuSans-3" transform="translate(1036.109375 0)"/>
      <use xlink:href="#DejaVuSans-57" transform="translate(1067.890625 0)"/>
      <use xlink:href="#DejaVuSans-44" transform="translate(1107.09375 0)"/>
      <use xlink:href="#DejaVuSans-45" transform="translate(1168.375 0)"/>
      <use xlink:href="#DejaVuSans-4f" transform="translate(1231.859375 0)"/>
      <use xlink:href="#DejaVuSans-48" transform="translate(1259.640625 0)"/>
     </g>
    </g>
   </g>
   <g id="matplotlib.axis_2">
    <g id="ytick_1">
     <g id="line2d_10">
      <defs>
       <path id="meed3d3c32e" d="M 0 0 
L -3.5 0 
" style="stroke: #000000; stroke-width: 0.8"/>
      </defs>
      <g>
       <use xlink:href="#meed3d3c32e" x="65.416406" y="244.513281" style="stroke: #000000; stroke-width: 0.8"/>
      </g>
     </g>
     <g id="text_11">
      <!-- 10 µs -->
      <g transform="translate(30.941406 248.312109) scale(0.1 -0.1)">
       <defs>
        <path id="DejaVuSans-77" d="M 544 -1331 
L 544 3500 
L 1119 3500 
L 1119 1325 
Q 1119 872 1334 640 
Q 1550 409 1972 409 
Q 2434 409 2667 671 
Q 2900 934 2900 1459 
L 2900 3500 
L 3475 3500 
L 3475 806 
Q 3475 619 3529 530 
Q 3584 441 3700 441 
Q 3728 441 3778 458 
Q 3828 475 3916 513 
L 3916 50 
Q 3788 -22 3673 -56 
Q 3559 -91 3450 -91 
Q 3234 -91 3106 31 
Q 2978 153 2931 403 
Q 2775 156 2548 32 
Q 2322 -91 2016 -91 
Q 1697 -91 1473 31 
Q 1250 153 1119 397 
L 1119 -1331 
L 544 -1331 
z
" transform="scale(0.015625)"/>
       </defs>
       <use xlink:href="#DejaVuSans-14"/>
       <use xlink:href="#DejaVuSans-13" transform="translate(63.625 0)"/>
       <use xlink:href="#DejaVuSans-3" transform="translate(127.25 0)"/>
       <use xlink:href="#DejaVuSans-77" transform="translate(159.03125 0)"/>
       <use xlink:href="#DejaVuSans-56" transform="translate(222.65625 0)"/>
      </g>
     </g>
    </g>
    <g id="ytick_2">
     <g id="line2d_11">
      <g>
       <use xlink:href="#meed3d3c32e" x="65.416406" y="196.075045" style="stroke: #000000; stroke-width: 0.8"/>
      </g>
     </g>
     <g id="text_12">
      <!-- 100 µs -->
      <g transform="translate(24.578906 199.873873) scale(0.1 -0.1)">
       <use xlink:href="#DejaVuSans-14"/>
       <use xlink:href="#DejaVuSans-13" transform="translate(63.625 0)"/>
       <use xlink:href="#DejaVuSans-13" transform="translate(127.25 0)"/>
       <use xlink:href="#DejaVuSans-3" transform="translate(190.875 0)"/>
       <use xlink:href="#DejaVuSans-77" transform="translate(222.65625 0)"/>
       <use xlink:href="#DejaVuSans-56" transform="translate(286.28125 0)"/>
      </g>
     </g>
    </g>
    <g id="ytick_3">
     <g id="line2d_12">
      <g>
       <use xlink:href="#meed3d3c32e" x="65.416406" y="147.636809" style="stroke: #000000; stroke-width: 0.8"/>
      </g>
     </g>
     <g id="text_13">
      <!-- 1 ms -->
      <g transform="translate(33.925781 151.435637) scale(0.1 -0.1)">
       <use xlink:href="#DejaVuSans-14"/>
       <use xlink:href="#DejaVuSans-3" transform="translate(63.625 0)"/>
       <use xlink:href="#DejaVuSans-50" transform="translate(95.40625 0)"/>
       <use xlink:href="#DejaVuSans-56" transform="translate(192.8125 0)"/>
      </g>
     </g>
    </g>
    <g id="ytick_4">
     <g id="line2d_13">
      <g>
       <use xlink:href="#meed3d3c32e" x="65.416406" y="99.198573" style="stroke: #000000; stroke-width: 0.8"/>
      </g>
     </g>
     <g id="text_14">
      <!-- 10 ms -->
      <g transform="translate(27.563281 102.997401) scale(0.1 -0.1)">
       <use xlink:href="#DejaVuSans-14"/>
       <use xlink:href="#DejaVuSans-13" transform="translate(63.625 0)"/>
       <use xlink:href="#DejaVuSans-3" transform="translate(127.25 0)"/>
       <use xlink:href="#DejaVuSans-50" transform="translate(159.03125 0)"/>
       <use xlink:href="#DejaVuSans-56" transform="translate(256.4375 0)"/>
      </g>
     </g>
    </g>
    <g id="ytick_5">
     <g id="line2d_14">
      <g>
       <use xlink:href="#meed3d3c32e" x="65.416406" y="50.760337" style="stroke: #000000; stroke-width: 0.8"/>
      </g>
     </g>
     <g id="text_15">
      <!-- 100 ms -->
      <g transform="translate(21.200781 54.559165) scale(0.1 -0.1)">
       <use xlink:href="#DejaVuSans-14"/>
       <use xlink:href="#DejaVuSans-13" transform="translate(63.625 0)"/>
       <use xlink:href="#DejaVuSans-13" transform="translate(127.25 0)"/>
       <use xlink:href="#DejaVuSans-3" transform="translate(190.875 0)"/>
       <use xlink:href="#DejaVuSans-50" transform="translate(222.65625 0)"/>
       <use xlink:href="#DejaVuSans-56" transform="translate(320.0625 0)"/>
      </g>
     </g>
    </g>
    <g id="ytick_6">
     <g id="line2d_15">
      <defs>
       <path id="m708c78ad6e" d="M 0 0 
L -2 0 
" style="stroke: #000000; stroke-width: 0.6"/>
      </defs>
      <g>
       <use xlink:href="#m708c78ad6e" x="65.416406" y="278.370155" style="stroke: #000000; stroke-width: 0.6"/>
      </g>
     </g>
    </g>
    <g id="ytick_7">
     <g id="line2d_16">
      <g>
       <use xlink:href="#m708c78ad6e" x="65.416406" y="269.840605" style="stroke: #000000; stroke-width: 0.6"/>
      </g>
     </g>
    </g>
    <g id="ytick_8">
     <g id="line2d_17">
      <g>
       <use xlink:href="#m708c78ad6e" x="65.416406" y="263.788793" style="stroke: #000000; stroke-width: 0.6"/>
      </g>
     </g>
    </g>
    <g id="ytick_9">
     <g id="line2d_18">
      <g>
       <use xlink:href="#m708c78ad6e" x="65.416406" y="259.094643" style="stroke: #000000; stroke-width: 0.6"/>
      </g>
     </g>
    </g>
    <g id="ytick_10">
     <g id="line2d_19">
      <g>
       <use xlink:href="#m708c78ad6e" x="65.416406" y="255.259243" style="stroke: #000000; stroke-width: 0.6"/>
      </g>
     </g>
    </g>
    <g id="ytick_11">
     <g id="line2d_20">
      <g>
       <use xlink:href="#m708c78ad6e" x="65.416406" y="252.016458" style="stroke: #000000; stroke-width: 0.6"/>
      </g>
     </g>
    </g>
    <g id="ytick_12">
     <g id="line2d_21">
      <g>
       <use xlink:href="#m708c78ad6e" x="65.416406" y="249.207431" style="stroke: #000000; stroke-width: 0.6"/>
      </g>
     </g>
    </g>
    <g id="ytick_13">
     <g id="line2d_22">
      <g>
       <use xlink:href="#m708c78ad6e" x="65.416406" y="246.729693" style="stroke: #000000; stroke-width: 0.6"/>
      </g>
     </g>
    </g>
    <g id="ytick_14">
     <g id="line2d_23">
      <g>
       <use xlink:href="#m708c78ad6e" x="65.416406" y="229.931919" style="stroke: #000000; stroke-width: 0.6"/>
      </g>
     </g>
    </g>
    <g id="ytick_15">
     <g id="line2d_24">
      <g>
       <use xlink:href="#m708c78ad6e" x="65.416406" y="221.402369" style="stroke: #000000; stroke-width: 0.6"/>
      </g>
     </g>
    </g>
    <g id="ytick_16">
     <g id="line2d_25">
      <g>
       <use xlink:href="#m708c78ad6e" x="65.416406" y="215.350557" style="stroke: #000000; stroke-width: 0.6"/>
      </g>
     </g>
    </g>
    <g id="ytick_17">
     <g id="line2d_26">
      <g>
       <use xlink:href="#m708c78ad6e" x="65.416406" y="210.656407" style="stroke: #000000; stroke-width: 0.6"/>
      </g>
     </g>
    </g>
    <g id="ytick_18">
     <g id="line2d_27">
      <g>
       <use xlink:href="#m708c78ad6e" x="65.416406" y="206.821007" style="stroke: #000000; stroke-width: 0.6"/>
      </g>
     </g>
    </g>
    <g id="ytick_19">
     <g id="line2d_28">
      <g>
       <use xlink:href="#m708c78ad6e" x="65.416406" y="203.578222" style="stroke: #000000; stroke-width: 0.6"/>
      </g>
     </g>
    </g>
    <g id="ytick_20">
     <g id="line2d_29">
      <g>
       <use xlink:href="#m708c78ad6e" x="65.416406" y="200.769195" style="stroke: #000000; stroke-width: 0.6"/>
      </g>
     </g>
    </g>
    <g id="ytick_21">
     <g id="line2d_30">
      <g>
       <use xlink:href="#m708c78ad6e" x="65.416406" y="198.291457" style="stroke: #000000; stroke-width: 0.6"/>
      </g>
     </g>
    </g>
    <g id="ytick_22">
     <g id="line2d_31">
      <g>
       <use xlink:href="#m708c78ad6e" x="65.416406" y="181.493683" style="stroke: #000000; stroke-width: 0.6"/>
      </g>
     </g>
    </g>
    <g id="ytick_23">
     <g id="line2d_32">
      <g>
       <use xlink:href="#m708c78ad6e" x="65.416406" y="172.964133" style="stroke: #000000; stroke-width: 0.6"/>
      </g>
     </g>
    </g>
    <g id="ytick_24">
     <g id="line2d_33">
      <g>
       <use xlink:href="#m708c78ad6e" x="65.416406" y="166.912321" style="stroke: #000000; stroke-width: 0.6"/>
      </g>
     </g>
    </g>
    <g id="ytick_25">
     <g id="line2d_34">
      <g>
       <use xlink:href="#m708c78ad6e" x="65.416406" y="162.218171" style="stroke: #000000; stroke-width: 0.6"/>
      </g>
     </g>
    </g>
    <g id="ytick_26">
     <g id="line2d_35">
      <g>
       <use xlink:href="#m708c78ad6e" x="65.416406" y="158.382771" style="stroke: #000000; stroke-width: 0.6"/>
      </g>
     </g>
    </g>
    <g id="ytick_27">
     <g id="line2d_36">
      <g>
       <use xlink:href="#m708c78ad6e" x="65.416406" y="155.139986" style="stroke: #000000; stroke-width: 0.6"/>
      </g>
     </g>
    </g>
    <g id="ytick_28">
     <g id="line2d_37">
      <g>
       <use xlink:href="#m708c78ad6e" x="65.416406" y="152.330959" style="stroke: #000000; stroke-width: 0.6"/>
      </g>
     </g>
    </g>
    <g id="ytick_29">
     <g id="line2d_38">
      <g>
       <use xlink:href="#m708c78ad6e" x="65.416406" y="149.853221" style="stroke: #000000; stroke-width: 0.6"/>
      </g>
     </g>
    </g>
    <g id="ytick_30">
     <g id="line2d_39">
      <g>
       <use xlink:href="#m708c78ad6e" x="65.416406" y="133.055447" style="stroke: #000000; stroke-width: 0.6"/>
      </g>
     </g>
    </g>
    <g id="ytick_31">
     <g id="line2d_40">
      <g>
       <use xlink:href="#m708c78ad6e" x="65.416406" y="124.525897" style="stroke: #000000; stroke-width: 0.6"/>
      </g>
     </g>
    </g>
    <g id="ytick_32">
     <g id="line2d_41">
      <g>
       <use xlink:href="#m708c78ad6e" x="65.416406" y="118.474085" style="stroke: #000000; stroke-width: 0.6"/>
      </g>
     </g>
    </g>
    <g id="ytick_33">
     <g id="line2d_42">
      <g>
       <use xlink:href="#m708c78ad6e" x="65.416406" y="113.779935" style="stroke: #000000; stroke-width: 0.6"/>
      </g>
     </g>
    </g>
    <g id="ytick_34">
     <g id="line2d_43">
      <g>
       <use xlink:href="#m708c78ad6e" x="65.416406" y="109.944535" style="stroke: #000000; stroke-width: 0.6"/>
      </g>
     </g>
    </g>
    <g id="ytick_35">
     <g id="line2d_44">
      <g>
       <use xlink:href="#m708c78ad6e" x="65.416406" y="106.70175" style="stroke: #000000; stroke-width: 0.6"/>
      </g>
     </g>
    </g>
    <g id="ytick_36">
     <g id="line2d_45">
      <g>
       <use xlink:href="#m708c78ad6e" x="65.416406" y="103.892723" style="stroke: #000000; stroke-width: 0.6"/>
      </g>
     </g>
    </g>
    <g id="ytick_37">
     <g id="line2d_46">
      <g>
       <use xlink:href="#m708c78ad6e" x="65.416406" y="101.414985" style="stroke: #000000; stroke-width: 0.6"/>
      </g>
     </g>
    </g>
    <g id="ytick_38">
     <g id="line2d_47">
      <g>
       <use xlink:href="#m708c78ad6e" x="65.416406" y="84.617211" style="stroke: #000000; stroke-width: 0.6"/>
      </g>
     </g>
    </g>
    <g id="ytick_39">
     <g id="line2d_48">
      <g>
       <use xlink:href="#m708c78ad6e" x="65.416406" y="76.087661" style="stroke: #000000; stroke-width: 0.6"/>
      </g>
     </g>
    </g>
    <g id="ytick_40">
     <g id="line2d_49">
      <g>
       <use xlink:href="#m708c78ad6e" x="65.416406" y="70.035849" style="stroke: #000000; stroke-width: 0.6"/>
      </g>
     </g>
    </g>
    <g id="ytick_41">
     <g id="line2d_50">
      <g>
       <use xlink:href="#m708c78ad6e" x="65.416406" y="65.341699" style="stroke: #000000; stroke-width: 0.6"/>
      </g>
     </g>
    </g>
    <g id="ytick_42">
     <g id="line2d_51">
      <g>
       <use xlink:href="#m708c78ad6e" x="65.416406" y="61.506299" style="stroke: #000000; stroke-width: 0.6"/>
      </g>
     </g>
    </g>
    <g id="ytick_43">
     <g id="line2d_52">
      <g>
       <use xlink:href="#m708c78ad6e" x="65.416406" y="58.263514" style="stroke: #000000; stroke-width: 0.6"/>
      </g>
     </g>
    </g>
    <g id="ytick_44">
     <g id="line2d_53">
      <g>
       <use xlink:href="#m708c78ad6e" x="65.416406" y="55.454487" style="stroke: #000000; stroke-width: 0.6"/>
      </g>
     </g>
    </g>
    <g id="ytick_45">
     <g id="line2d_54">
      <g>
       <use xlink:href="#m708c78ad6e" x="65.416406" y="52.976749" style="stroke: #000000; stroke-width: 0.6"/>
      </g>
     </g>
    </g>
    <g id="ytick_46">
     <g id="line2d_55">
      <g>
       <use xlink:href="#m708c78ad6e" x="65.416406" y="36.178975" style="stroke: #000000; stroke-width: 0.6"/>
      </g>
     </g>
    </g>
    <g id="ytick_47">
     <g id="line2d_56">
      <g>
       <use xlink:href="#m708c78ad6e" x="65.416406" y="27.649425" style="stroke: #000000; stroke-width: 0.6"/>
      </g>
     </g>
    </g>
    <g id="text_16">
     <!-- Read latency (s) -->
     <g transform="translate(14.798438 195.990531) rotate(-90) scale(0.1 -0.1)">
      <defs>
       <path id="DejaVuSans-35" d="M 2841 2188 
Q 3044 2119 3236 1894 
Q 3428 1669 3622 1275 
L 4263 0 
L 3584 0 
L 2988 1197 
Q 2756 1666 2539 1819 
Q 2322 1972 1947 1972 
L 1259 1972 
L 1259 0 
L 628 0 
L 628 4666 
L 2053 4666 
Q 2853 4666 3247 4331 
Q 3641 3997 3641 3322 
Q 3641 2881 3436 2590 
Q 3231 2300 2841 2188 
z
M 1259 4147 
L 1259 2491 
L 2053 2491 
Q 2509 2491 2742 2702 
Q 2975 2913 2975 3322 
Q 2975 3731 2742 3939 
Q 2509 4147 2053 4147 
L 1259 4147 
z
" transform="scale(0.015625)"/>
       <path id="DejaVuSans-47" d="M 2906 2969 
L 2906 4863 
L 3481 4863 
L 3481 0 
L 2906 0 
L 2906 525 
Q 2725 213 2448 61 
Q 2172 -91 1784 -91 
Q 1150 -91 751 415 
Q 353 922 353 1747 
Q 353 2572 751 3078 
Q 1150 3584 1784 3584 
Q 2172 3584 2448 3432 
Q 2725 3281 2906 2969 
z
M 947 1747 
Q 947 1113 1208 752 
Q 1469 391 1925 391 
Q 2381 391 2643 752 
Q 2906 1113 2906 1747 
Q 2906 2381 2643 2742 
Q 2381 3103 1925 3103 
Q 1469 3103 1208 2742 
Q 947 2381 947 1747 
z
" transform="scale(0.015625)"/>
       <path id="DejaVuSans-5c" d="M 2059 -325 
Q 1816 -950 1584 -1140 
Q 1353 -1331 966 -1331 
L 506 -1331 
L 506 -850 
L 844 -850 
Q 1081 -850 1212 -737 
Q 1344 -625 1503 -206 
L 1606 56 
L 191 3500 
L 800 3500 
L 1894 763 
L 2988 3500 
L 3597 3500 
L 2059 -325 
z
" transform="scale(0.015625)"/>
       <path id="DejaVuSans-b" d="M 1984 4856 
Q 1566 4138 1362 3434 
Q 1159 2731 1159 2009 
Q 1159 1288 1364 580 
Q 1569 -128 1984 -844 
L 1484 -844 
Q 1016 -109 783 600 
Q 550 1309 550 2009 
Q 550 2706 781 3412 
Q 1013 4119 1484 4856 
L 1984 4856 
z
" transform="scale(0.015625)"/>
       <path id="DejaVuSans-c" d="M 513 4856 
L 1013 4856 
Q 1481 4119 1714 3412 
Q 1947 2706 1947 2009 
Q 1947 1309 1714 600 
Q 1481 -109 1013 -844 
L 513 -844 
Q 928 -128 1133 580 
Q 1338 1288 1338 2009 
Q 1338 2731 1133 3434 
Q 928 4138 513 4856 
z
" transform="scale(0.015625)"/>
      </defs>
      <use xlink:href="#DejaVuSans-35"/>
      <use xlink:href="#DejaVuSans-48" transform="translate(65 0)"/>
      <use xlink:href="#DejaVuSans-44" transform="translate(126.53125 0)"/>
      <use xlink:href="#DejaVuSans-47" transform="translate(187.8125 0)"/>
      <use xlink:href="#DejaVuSans-3" transform="translate(251.296875 0)"/>
      <use xlink:href="#DejaVuSans-4f" transform="translate(283.078125 0)"/>
      <use xlink:href="#DejaVuSans-44" transform="translate(310.859375 0)"/>
      <use xlink:href="#DejaVuSans-57" transform="translate(372.140625 0)"/>
      <use xlink:href="#DejaVuSans-48" transform="translate(411.34375 0)"/>
      <use xlink:href="#DejaVuSans-51" transform="translate(472.875 0)"/>
      <use xlink:href="#DejaVuSans-46" transform="translate(536.25 0)"/>
      <use xlink:href="#DejaVuSans-5c" transform="translate(591.234375 0)"/>
      <use xlink:href="#DejaVuSans-3" transform="translate(650.421875 0)"/>
      <use xlink:href="#DejaVuSans-b" transform="translate(682.203125 0)"/>
      <use xlink:href="#DejaVuSans-56" transform="translate(721.21875 0)"/>
      <use xlink:href="#DejaVuSans-c" transform="translate(773.3125 0)"/>
     </g>
    </g>
   </g>
   <g id="line2d_57">
    <path d="M 152.513534 267.898332 
L 161.223247 269.154613 
L 169.93296 271.371025 
L 178.642673 272.289794 
L 187.352386 270.838428 
L 196.062099 268.205439 
L 204.771811 266.0045 
L 213.481524 265.454496 
L 222.191237 260.625063 
L 230.90095 260.517459 
L 239.610663 260.303889 
L 248.320376 259.573021 
L 257.030088 258.087477 
L 265.739801 257.428563 
L 274.449514 257.061105 
L 283.159227 257.428563 
L 291.86894 255.823309 
L 300.578652 255.737621 
L 309.288365 258.767699 
L 317.998078 258.279592 
L 326.707791 257.897101 
L 335.417504 257.52144 
L 344.127217 255.230694 
L 352.836929 254.492497 
L 361.546642 254.735696 
L 370.256355 254.735696 
L 378.966068 256.257066 
L 387.675781 255.99574 
L 396.385494 255.230694 
L 405.095206 255.064397 
L 405.530692 254.899404 
" clip-path="url(#p43b219d482)" style="fill: none; stroke: #1f77b4; stroke-opacity: 0.8; stroke-width: 1.5; stroke-linecap: square"/>
   </g>
   <g id="line2d_58">
    <path d="M 152.513534 170.879054 
L 161.223247 169.068208 
L 169.93296 167.687811 
L 178.642673 166.906323 
L 187.352386 164.741494 
L 196.062099 163.408302 
L 204.771811 161.348189 
L 213.481524 159.703872 
L 222.191237 157.504289 
L 230.90095 156.362898 
L 239.610663 154.970949 
L 248.320376 154.281557 
L 257.030088 151.938071 
L 265.739801 150.856889 
L 274.449514 149.448509 
L 283.159227 147.853101 
L 291.86894 146.731726 
L 300.578652 146.195731 
L 309.288365 145.690878 
L 317.998078 144.898073 
L 326.707791 144.947447 
L 335.417504 145.154132 
L 344.127217 145.595532 
L 352.836929 145.738026 
L 361.546642 146.286785 
L 370.256355 146.926235 
L 378.966068 148.275882 
L 387.675781 148.957375 
L 396.385494 149.764099 
L 405.095206 150.026541 
L 405.530692 149.986124 
" clip-path="url(#p43b219d482)" style="fill: none; stroke: #ff7f0e; stroke-opacity: 0.8; stroke-width: 1.5; stroke-linecap: square"/>
   </g>
   <g id="line2d_59">
    <path d="M 152.513534 145.197857 
L 161.223247 143.434587 
L 169.93296 142.589658 
L 178.642673 141.364616 
L 187.352386 140.121918 
L 196.062099 139.028016 
L 204.771811 137.755511 
L 213.481524 136.907725 
L 222.191237 136.19531 
L 230.90095 135.945831 
L 239.610663 135.357148 
L 248.320376 130.767555 
L 257.030088 130.015712 
L 265.739801 129.488047 
L 274.449514 128.702412 
L 283.159227 127.873199 
L 291.86894 126.940179 
L 300.578652 126.226736 
L 309.288365 125.462803 
L 317.998078 124.705736 
L 326.707791 123.667468 
L 335.417504 125.857325 
L 344.127217 125.156699 
L 352.836929 124.504027 
L 361.546642 123.933808 
L 370.256355 123.180107 
L 378.966068 122.258709 
L 387.675781 121.60507 
L 396.385494 120.831814 
L 405.095206 120.528391 
L 405.530692 120.207213 
" clip-path="url(#p43b219d482)" style="fill: none; stroke: #2ca02c; stroke-opacity: 0.8; stroke-width: 1.5; stroke-linecap: square"/>
   </g>
   <g id="line2d_60">
    <path d="M 152.513534 157.803038 
L 161.223247 157.055338 
L 169.93296 156.818878 
L 178.642673 156.860048 
L 187.352386 156.09203 
L 196.062099 153.514324 
L 204.771811 135.796466 
L 213.481524 112.011425 
L 222.191237 86.852683 
L 230.90095 77.056947 
L 239.610663 68.43632 
L 248.320376 62.25104 
L 257.030088 55.907822 
L 265.739801 49.257767 
L 274.449514 44.921811 
L 283.159227 41.600947 
L 291.86894 38.477688 
L 300.578652 36.391325 
L 309.288365 34.776732 
L 317.998078 33.325336 
L 326.707791 32.372931 
L 335.417504 31.547869 
L 344.127217 31.101552 
L 352.836929 31.411812 
L 361.546642 31.501176 
L 370.256355 31.410966 
L 378.966068 31.661678 
L 387.675781 31.521982 
L 396.385494 30.847675 
L 405.095206 30.943657 
L 405.530692 31.046386 
" clip-path="url(#p43b219d482)" style="fill: none; stroke: #d62728; stroke-opacity: 0.8; stroke-width: 1.5; stroke-linecap: square"/>
   </g>
   <g id="line2d_61">
    <path d="M 152.513534 175.886285 
L 161.223247 171.964937 
L 169.93296 166.408351 
L 178.642673 162.732496 
L 187.352386 159.812744 
L 196.062099 157.767288 
L 204.771811 154.504914 
L 213.481524 151.847811 
L 222.191237 150.487239 
L 230.90095 149.40864 
L 239.610663 149.073046 
L 248.320376 148.324019 
L 257.030088 148.734265 
L 265.739801 148.608353 
L 274.449514 147.505832 
L 283.159227 146.00551 
L 291.86894 146.455382 
L 300.578652 146.729324 
L 309.288365 146.778861 
L 317.998078 146.421271 
L 326.707791 145.837244 
L 335.417504 145.543707 
L 344.127217 145.899493 
L 352.836929 145.807797 
L 361.546642 145.771046 
L 370.256355 146.095278 
L 378.966068 145.251523 
L 387.675781 144.737965 
L 396.385494 144.737528 
L 405.095206 144.772953 
L 405.530692 144.382225 
" clip-path="url(#p43b219d482)" style="fill: none; stroke: #9467bd; stroke-opacity: 0.8; stroke-width: 1.5; stroke-linecap: square"/>
   </g>
   <g id="line2d_62">
    <path d="M 152.513534 279.900575 
L 161.223247 278.848533 
L 169.93296 277.846607 
L 178.642673 277.362989 
L 187.352386 277.362989 
L 196.062099 276.200458 
L 204.771811 275.975467 
L 213.481524 275.752857 
L 222.191237 275.098821 
L 230.90095 274.673828 
L 239.610663 274.052015 
L 248.320376 274.052015 
L 257.030088 273.448056 
L 265.739801 272.860954 
L 274.449514 272.860954 
L 283.159227 272.860954 
L 291.86894 272.860954 
L 300.578652 273.05484 
L 309.288365 273.05484 
L 317.998078 273.848763 
L 326.707791 274.464508 
L 335.417504 274.885251 
L 344.127217 273.848763 
L 352.836929 274.052015 
L 361.546642 274.052015 
L 370.256355 274.885251 
L 378.966068 272.102802 
L 387.675781 271.733732 
L 396.385494 271.733732 
L 405.095206 270.838428 
L 405.530692 270.49071 
" clip-path="url(#p43b219d482)" style="fill: none; stroke: #8c564b; stroke-opacity: 0.8; stroke-width: 1.5; stroke-linecap: square"/>
   </g>
   <g id="line2d_63">
    <path d="M 152.513534 272.860954 
L 161.223247 271.917457 
L 169.93296 271.733732 
L 178.642673 272.478463 
L 187.352386 272.102802 
L 196.062099 272.289794 
L 204.771811 272.668839 
L 213.481524 272.668839 
L 222.191237 272.478463 
L 230.90095 272.478463 
L 239.610663 272.860954 
L 248.320376 272.860954 
L 257.030088 273.25053 
L 265.739801 272.478463 
L 274.449514 272.478463 
L 283.159227 272.102802 
L 291.86894 271.551597 
L 300.578652 269.979678 
L 309.288365 269.979678 
L 317.998078 269.645759 
L 326.707791 269.480766 
L 335.417504 267.898332 
L 344.127217 267.297249 
L 352.836929 267.898332 
L 361.546642 267.746443 
L 370.256355 268.051325 
L 378.966068 267.898332 
L 387.675781 269.317057 
L 396.385494 269.480766 
L 405.095206 269.812056 
L 405.530692 269.979678 
" clip-path="url(#p43b219d482)" style="fill: none; stroke: #e377c2; stroke-opacity: 0.8; stroke-width: 1.5; stroke-linecap: square"/>
   </g>
   <g id="patch_3">
    <path d="M 65.416406 288.430125 
L 65.416406 22.318125 
" style="fill: none; stroke: #000000; stroke-width: 0.8; stroke-linejoin: miter; stroke-linecap: square"/>
   </g>
   <g id="patch_4">
    <path d="M 422.536406 288.430125 
L 422.536406 22.318125 
" style="fill: none; stroke: #000000; stroke-width: 0.8; stroke-linejoin: miter; stroke-linecap: square"/>
   </g>
   <g id="patch_5">
    <path d="M 65.416406 288.430125 
L 422.536406 288.430125 
" style="fill: none; stroke: #000000; stroke-width: 0.8; stroke-linejoin: miter; stroke-linecap: square"/>
   </g>
   <g id="patch_6">
    <path d="M 65.416406 22.318125 
L 422.536406 22.318125 
" style="fill: none; stroke: #000000; stroke-width: 0.8; stroke-linejoin: miter; stroke-linecap: square"/>
   </g>
   <g id="text_17">
    <!-- Get descendants count [root] -->
    <g transform="translate(155.737969 16.318125) scale(0.12 -0.12)">
     <defs>
      <path id="DejaVuSans-2a" d="M 3809 666 
L 3809 1919 
L 2778 1919 
L 2778 2438 
L 4434 2438 
L 4434 434 
Q 4069 175 3628 42 
Q 3188 -91 2688 -91 
Q 1594 -91 976 548 
Q 359 1188 359 2328 
Q 359 3472 976 4111 
Q 1594 4750 2688 4750 
Q 3144 4750 3555 4637 
Q 3966 4525 4313 4306 
L 4313 3634 
Q 3963 3931 3569 4081 
Q 3175 4231 2741 4231 
Q 1884 4231 1454 3753 
Q 1025 3275 1025 2328 
Q 1025 1384 1454 906 
Q 1884 428 2741 428 
Q 3075 428 3337 486 
Q 3600 544 3809 666 
z
" transform="scale(0.015625)"/>
      <path id="DejaVuSans-3e" d="M 550 4863 
L 1875 4863 
L 1875 4416 
L 1125 4416 
L 1125 -397 
L 1875 -397 
L 1875 -844 
L 550 -844 
L 550 4863 
z
" transform="scale(0.015625)"/>
      <path id="DejaVuSans-55" d="M 2631 2963 
Q 2534 3019 2420 3045 
Q 2306 3072 2169 3072 
Q 1681 3072 1420 2755 
Q 1159 2438 1159 1844 
L 1159 0 
L 581 0 
L 581 3500 
L 1159 3500 
L 1159 2956 
Q 1341 3275 1631 3429 
Q 1922 3584 2338 3584 
Q 2397 3584 2469 3576 
Q 2541 3569 2628 3553 
L 2631 2963 
z
" transform="scale(0.015625)"/>
      <path id="DejaVuSans-40" d="M 1947 4863 
L 1947 -844 
L 622 -844 
L 622 -397 
L 1369 -397 
L 1369 4416 
L 622 4416 
L 622 4863 
L 1947 4863 
z
" transform="scale(0.015625)"/>
     </defs>
     <use xlink:href="#DejaVuSans-2a"/>
     <use xlink:href="#DejaVuSans-48" transform="translate(77.484375 0)"/>
     <use xlink:href="#DejaVuSans-57" transform="translate(139.015625 0)"/>
     <use xlink:href="#DejaVuSans-3" transform="translate(178.21875 0)"/>
     <use xlink:href="#DejaVuSans-47" transform="translate(210 0)"/>
     <use xlink:href="#DejaVuSans-48" transform="translate(273.484375 0)"/>
     <use xlink:href="#DejaVuSans-56" transform="translate(335.015625 0)"/>
     <use xlink:href="#DejaVuSans-46" transform="translate(387.109375 0)"/>
     <use xlink:href="#DejaVuSans-48" transform="translate(442.09375 0)"/>
     <use xlink:href="#DejaVuSans-51" transform="translate(503.625 0)"/>
     <use xlink:href="#DejaVuSans-47" transform="translate(567 0)"/>
     <use xlink:href="#DejaVuSans-44" transform="translate(630.484375 0)"/>
     <use xlink:href="#DejaVuSans-51" transform="translate(691.765625 0)"/>
     <use xlink:href="#DejaVuSans-57" transform="translate(755.140625 0)"/>
     <use xlink:href="#DejaVuSans-56" transform="translate(794.34375 0)"/>
     <use xlink:href="#DejaVuSans-3" transform="translate(846.4375 0)"/>
     <use xlink:href="#DejaVuSans-46" transform="translate(878.21875 0)"/>
     <use xlink:href="#DejaVuSans-52" transform="translate(933.203125 0)"/>
     <use xlink:href="#DejaVuSans-58" transform="translate(994.390625 0)"/>
     <use xlink:href="#DejaVuSans-51" transform="translate(1057.765625 0)"/>
     <use xlink:href="#DejaVuSans-57" transform="translate(1121.140625 0)"/>
     <use xlink:href="#DejaVuSans-3" transform="translate(1160.34375 0)"/>
     <use xlink:href="#DejaVuSans-3e" transform="translate(1192.125 0)"/>
     <use xlink:href="#DejaVuSans-55" transform="translate(1231.140625 0)"/>
     <use xlink:href="#DejaVuSans-52" transform="translate(1270.046875 0)"/>
     <use xlink:href="#DejaVuSans-52" transform="translate(1331.234375 0)"/>
     <use xlink:href="#DejaVuSans-57" transform="translate(1392.421875 0)"/>
     <use xlink:href="#DejaVuSans-40" transform="translate(1431.625 0)"/>
    </g>
   </g>
   <g id="legend_1">
    <g id="patch_7">
     <path d="M 79.355469 381.448469 
L 401.077344 381.448469 
Q 403.077344 381.448469 403.077344 379.448469 
L 403.077344 335.446125 
Q 403.077344 333.446125 401.077344 333.446125 
L 79.355469 333.446125 
Q 77.355469 333.446125 77.355469 335.446125 
L 77.355469 379.448469 
Q 77.355469 381.448469 79.355469 381.448469 
z
" style="fill: #4d4d4d; opacity: 0.5; stroke: #4d4d4d; stroke-linejoin: miter"/>
    </g>
    <g id="patch_8">
     <path d="M 77.355469 379.448469 
L 399.077344 379.448469 
Q 401.077344 379.448469 401.077344 377.448469 
L 401.077344 333.446125 
Q 401.077344 331.446125 399.077344 331.446125 
L 77.355469 331.446125 
Q 75.355469 331.446125 75.355469 333.446125 
L 75.355469 377.448469 
Q 75.355469 379.448469 77.355469 379.448469 
z
" style="fill: #ffffff; stroke: #cccccc; stroke-linejoin: miter"/>
    </g>
    <g id="line2d_64">
     <path d="M 79.355469 339.544562 
L 89.355469 339.544562 
L 99.355469 339.544562 
" style="fill: none; stroke: #1f77b4; stroke-opacity: 0.8; stroke-width: 1.5; stroke-linecap: square"/>
    </g>
    <g id="text_18">
     <!-- MPTT -->
     <g transform="translate(107.355469 343.044562) scale(0.1 -0.1)">
      <defs>
       <path id="DejaVuSans-30" d="M 628 4666 
L 1569 4666 
L 2759 1491 
L 3956 4666 
L 4897 4666 
L 4897 0 
L 4281 0 
L 4281 4097 
L 3078 897 
L 2444 897 
L 1241 4097 
L 1241 0 
L 628 0 
L 628 4666 
z
" transform="scale(0.015625)"/>
       <path id="DejaVuSans-33" d="M 1259 4147 
L 1259 2394 
L 2053 2394 
Q 2494 2394 2734 2622 
Q 2975 2850 2975 3272 
Q 2975 3691 2734 3919 
Q 2494 4147 2053 4147 
L 1259 4147 
z
M 628 4666 
L 2053 4666 
Q 2838 4666 3239 4311 
Q 3641 3956 3641 3272 
Q 3641 2581 3239 2228 
Q 2838 1875 2053 1875 
L 1259 1875 
L 1259 0 
L 628 0 
L 628 4666 
z
" transform="scale(0.015625)"/>
       <path id="DejaVuSans-37" d="M -19 4666 
L 3928 4666 
L 3928 4134 
L 2272 4134 
L 2272 0 
L 1638 0 
L 1638 4134 
L -19 4134 
L -19 4666 
z
" transform="scale(0.015625)"/>
      </defs>
      <use xlink:href="#DejaVuSans-30"/>
      <use xlink:href="#DejaVuSans-33" transform="translate(86.28125 0)"/>
      <use xlink:href="#DejaVuSans-37" transform="translate(146.578125 0)"/>
      <use xlink:href="#DejaVuSans-37" transform="translate(205.90625 0)"/>
     </g>
    </g>
    <g id="line2d_65">
     <path d="M 79.355469 354.545344 
L 89.355469 354.545344 
L 99.355469 354.545344 
" style="fill: none; stroke: #ff7f0e; stroke-opacity: 0.8; stroke-width: 1.5; stroke-linecap: square"/>
    </g>
    <g id="text_19">
     <!-- tree -->
     <g transform="translate(107.355469 358.045344) scale(0.1 -0.1)">
      <use xlink:href="#DejaVuSans-57"/>
      <use xlink:href="#DejaVuSans-55" transform="translate(39.203125 0)"/>
      <use xlink:href="#DejaVuSans-48" transform="translate(78.109375 0)"/>
      <use xlink:href="#DejaVuSans-48" transform="translate(139.640625 0)"/>
     </g>
    </g>
    <g id="line2d_66">
     <path d="M 79.355469 369.546125 
L 89.355469 369.546125 
L 99.355469 369.546125 
" style="fill: none; stroke: #2ca02c; stroke-opacity: 0.8; stroke-width: 1.5; stroke-linecap: square"/>
    </g>
    <g id="text_20">
     <!-- tree-queries -->
     <g transform="translate(107.355469 373.046125) scale(0.1 -0.1)">
      <defs>
       <path id="DejaVuSans-10" d="M 313 2009 
L 1997 2009 
L 1997 1497 
L 313 1497 
L 313 2009 
z
" transform="scale(0.015625)"/>
       <path id="DejaVuSans-54" d="M 947 1747 
Q 947 1113 1208 752 
Q 1469 391 1925 391 
Q 2381 391 2643 752 
Q 2906 1113 2906 1747 
Q 2906 2381 2643 2742 
Q 2381 3103 1925 3103 
Q 1469 3103 1208 2742 
Q 947 2381 947 1747 
z
M 2906 525 
Q 2725 213 2448 61 
Q 2172 -91 1784 -91 
Q 1150 -91 751 415 
Q 353 922 353 1747 
Q 353 2572 751 3078 
Q 1150 3584 1784 3584 
Q 2172 3584 2448 3432 
Q 2725 3281 2906 2969 
L 2906 3500 
L 3481 3500 
L 3481 -1331 
L 2906 -1331 
L 2906 525 
z
" transform="scale(0.015625)"/>
      </defs>
      <use xlink:href="#DejaVuSans-57"/>
      <use xlink:href="#DejaVuSans-55" transform="translate(39.203125 0)"/>
      <use xlink:href="#DejaVuSans-48" transform="translate(78.109375 0)"/>
      <use xlink:href="#DejaVuSans-48" transform="translate(139.640625 0)"/>
      <use xlink:href="#DejaVuSans-10" transform="translate(201.171875 0)"/>
      <use xlink:href="#DejaVuSans-54" transform="translate(237.25 0)"/>
      <use xlink:href="#DejaVuSans-58" transform="translate(300.734375 0)"/>
      <use xlink:href="#DejaVuSans-48" transform="translate(364.109375 0)"/>
      <use xlink:href="#DejaVuSans-55" transform="translate(425.640625 0)"/>
      <use xlink:href="#DejaVuSans-4c" transform="translate(466.75 0)"/>
      <use xlink:href="#DejaVuSans-48" transform="translate(494.53125 0)"/>
      <use xlink:href="#DejaVuSans-56" transform="translate(556.0625 0)"/>
     </g>
    </g>
    <g id="line2d_67">
     <path d="M 188.171094 339.544562 
L 198.171094 339.544562 
L 208.171094 339.544562 
" style="fill: none; stroke: #d62728; stroke-opacity: 0.8; stroke-width: 1.5; stroke-linecap: square"/>
    </g>
    <g id="text_21">
     <!-- treebeard AL -->
     <g transform="translate(216.171094 343.044562) scale(0.1 -0.1)">
      <defs>
       <path id="DejaVuSans-2f" d="M 628 4666 
L 1259 4666 
L 1259 531 
L 3531 531 
L 3531 0 
L 628 0 
L 628 4666 
z
" transform="scale(0.015625)"/>
      </defs>
      <use xlink:href="#DejaVuSans-57"/>
      <use xlink:href="#DejaVuSans-55" transform="translate(39.203125 0)"/>
      <use xlink:href="#DejaVuSans-48" transform="translate(78.109375 0)"/>
      <use xlink:href="#DejaVuSans-48" transform="translate(139.640625 0)"/>
      <use xlink:href="#DejaVuSans-45" transform="translate(201.171875 0)"/>
      <use xlink:href="#DejaVuSans-48" transform="translate(264.65625 0)"/>
      <use xlink:href="#DejaVuSans-44" transform="translate(326.1875 0)"/>
      <use xlink:href="#DejaVuSans-55" transform="translate(387.46875 0)"/>
      <use xlink:href="#DejaVuSans-47" transform="translate(426.828125 0)"/>
      <use xlink:href="#DejaVuSans-3" transform="translate(490.3125 0)"/>
      <use xlink:href="#DejaVuSans-24" transform="translate(522.09375 0)"/>
      <use xlink:href="#DejaVuSans-2f" transform="translate(590.5 0)"/>
     </g>
    </g>
    <g id="line2d_68">
     <path d="M 188.171094 354.545344 
L 198.171094 354.545344 
L 208.171094 354.545344 
" style="fill: none; stroke: #9467bd; stroke-opacity: 0.8; stroke-width: 1.5; stroke-linecap: square"/>
    </g>
    <g id="text_22">
     <!-- treebeard MP -->
     <g transform="translate(216.171094 358.045344) scale(0.1 -0.1)">
      <use xlink:href="#DejaVuSans-57"/>
      <use xlink:href="#DejaVuSans-55" transform="translate(39.203125 0)"/>
      <use xlink:href="#DejaVuSans-48" transform="translate(78.109375 0)"/>
      <use xlink:href="#DejaVuSans-48" transform="translate(139.640625 0)"/>
      <use xlink:href="#DejaVuSans-45" transform="translate(201.171875 0)"/>
      <use xlink:href="#DejaVuSans-48" transform="translate(264.65625 0)"/>
      <use xlink:href="#DejaVuSans-44" transform="translate(326.1875 0)"/>
      <use xlink:href="#DejaVuSans-55" transform="translate(387.46875 0)"/>
      <use xlink:href="#DejaVuSans-47" transform="translate(426.828125 0)"/>
      <use xlink:href="#DejaVuSans-3" transform="translate(490.3125 0)"/>
      <use xlink:href="#DejaVuSans-30" transform="translate(522.09375 0)"/>
      <use xlink:href="#DejaVuSans-33" transform="translate(608.375 0)"/>
     </g>
    </g>
    <g id="line2d_69">
     <path d="M 303.038281 339.544562 
L 313.038281 339.544562 
L 323.038281 339.544562 
" style="fill: none; stroke: #8c564b; stroke-opacity: 0.8; stroke-width: 1.5; stroke-linecap: square"/>
    </g>
    <g id="text_23">
     <!-- treebeard NS -->
     <g transform="translate(331.038281 343.044562) scale(0.1 -0.1)">
      <defs>
       <path id="DejaVuSans-31" d="M 628 4666 
L 1478 4666 
L 3547 763 
L 3547 4666 
L 4159 4666 
L 4159 0 
L 3309 0 
L 1241 3903 
L 1241 0 
L 628 0 
L 628 4666 
z
" transform="scale(0.015625)"/>
       <path id="DejaVuSans-36" d="M 3425 4513 
L 3425 3897 
Q 3066 4069 2747 4153 
Q 2428 4238 2131 4238 
Q 1616 4238 1336 4038 
Q 1056 3838 1056 3469 
Q 1056 3159 1242 3001 
Q 1428 2844 1947 2747 
L 2328 2669 
Q 3034 2534 3370 2195 
Q 3706 1856 3706 1288 
Q 3706 609 3251 259 
Q 2797 -91 1919 -91 
Q 1588 -91 1214 -16 
Q 841 59 441 206 
L 441 856 
Q 825 641 1194 531 
Q 1563 422 1919 422 
Q 2459 422 2753 634 
Q 3047 847 3047 1241 
Q 3047 1584 2836 1778 
Q 2625 1972 2144 2069 
L 1759 2144 
Q 1053 2284 737 2584 
Q 422 2884 422 3419 
Q 422 4038 858 4394 
Q 1294 4750 2059 4750 
Q 2388 4750 2728 4690 
Q 3069 4631 3425 4513 
z
" transform="scale(0.015625)"/>
      </defs>
      <use xlink:href="#DejaVuSans-57"/>
      <use xlink:href="#DejaVuSans-55" transform="translate(39.203125 0)"/>
      <use xlink:href="#DejaVuSans-48" transform="translate(78.109375 0)"/>
      <use xlink:href="#DejaVuSans-48" transform="translate(139.640625 0)"/>
      <use xlink:href="#DejaVuSans-45" transform="translate(201.171875 0)"/>
      <use xlink:href="#DejaVuSans-48" transform="translate(264.65625 0)"/>
      <use xlink:href="#DejaVuSans-44" transform="translate(326.1875 0)"/>
      <use xlink:href="#DejaVuSans-55" transform="translate(387.46875 0)"/>
      <use xlink:href="#DejaVuSans-47" transform="translate(426.828125 0)"/>
      <use xlink:href="#DejaVuSans-3" transform="translate(490.3125 0)"/>
      <use xlink:href="#DejaVuSans-31" transform="translate(522.09375 0)"/>
      <use xlink:href="#DejaVuSans-36" transform="translate(596.90625 0)"/>
     </g>
    </g>
    <g id="line2d_70">
     <path d="M 303.038281 354.545344 
L 313.038281 354.545344 
L 323.038281 354.545344 
" style="fill: none; stroke: #e377c2; stroke-opacity: 0.8; stroke-width: 1.5; stroke-linecap: square"/>
    </g>
    <g id="text_24">
     <!-- treenode -->
     <g transform="translate(331.038281 358.045344) scale(0.1 -0.1)">
      <use xlink:href="#DejaVuSans-57"/>
      <use xlink:href="#DejaVuSans-55" transform="translate(39.203125 0)"/>
      <use xlink:href="#DejaVuSans-48" transform="translate(78.109375 0)"/>
      <use xlink:href="#DejaVuSans-48" transform="translate(139.640625 0)"/>
      <use xlink:href="#DejaVuSans-51" transform="translate(201.171875 0)"/>
      <use xlink:href="#DejaVuSans-52" transform="translate(264.546875 0)"/>
      <use xlink:href="#DejaVuSans-47" transform="translate(325.734375 0)"/>
      <use xlink:href="#DejaVuSans-48" transform="translate(389.21875 0)"/>
     </g>
    </g>
   </g>
  </g>
 </g>
 <defs>
  <clipPath id="p43b219d482">
   <rect x="65.416406" y="22.318125" width="357.12" height="266.112"/>
  </clipPath>
 </defs>
</svg>
