<?xml version="1.0" encoding="utf-8" standalone="no"?>
<!DOCTYPE svg PUBLIC "-//W3C//DTD SVG 1.1//EN"
  "http://www.w3.org/Graphics/SVG/1.1/DTD/svg11.dtd">
<svg xmlns:xlink="http://www.w3.org/1999/xlink" width="416.68875pt" height="371.002375pt" viewBox="0 0 416.68875 371.002375" xmlns="http://www.w3.org/2000/svg" version="1.1">
 <metadata>
  <rdf:RDF xmlns:dc="http://purl.org/dc/elements/1.1/" xmlns:cc="http://creativecommons.org/ns#" xmlns:rdf="http://www.w3.org/1999/02/22-rdf-syntax-ns#">
   <cc:Work>
    <dc:type rdf:resource="http://purl.org/dc/dcmitype/StillImage"/>
    <dc:date>2026-06-28T14:41:55.512022</dc:date>
    <dc:format>image/svg+xml</dc:format>
    <dc:creator>
     <cc:Agent>
      <dc:title>Matplotlib v3.10.6, https://matplotlib.org/</dc:title>
     </cc:Agent>
    </dc:creator>
   </cc:Work>
  </rdf:RDF>
 </metadata>
 <defs>
  <style type="text/css">*{stroke-linejoin: round; stroke-linecap: butt}</style>
 </defs>
 <g id="figure_1">
  <g id="patch_1">
   <path d="M 0 371.002375 
L 416.68875 371.002375 
L 416.68875 0 
L 0 0 
z
" style="fill: #ffffff"/>
  </g>
  <g id="axes_1">
   <g id="patch_2">
    <path d="M 52.36875 288.430125 
L 409.48875 288.430125 
L 409.48875 22.318125 
L 52.36875 22.318125 
z
" style="fill: #ffffff"/>
   </g>
   <g id="matplotlib.axis_1">
    <g id="xtick_1">
     <g id="line2d_1">
      <defs>
       <path id="m7c0a031bdb" d="M 0 0 
L 0 3.5 
" style="stroke: #000000; stroke-width: 0.8"/>
      </defs>
      <g>
       <use xlink:href="#m7c0a031bdb" x="52.36875" y="288.430125" style="stroke: #000000; stroke-width: 0.8"/>
      </g>
     </g>
     <g id="text_1">
      <!-- 0 -->
      <g transform="translate(49.1875 303.028562) scale(0.1 -0.1)">
       <defs>
        <path id="DejaVuSans-30" d="M 2034 4250 
Q 1547 4250 1301 3770 
Q 1056 3291 1056 2328 
Q 1056 1369 1301 889 
Q 1547 409 2034 409 
Q 2525 409 2770 889 
Q 3016 1369 3016 2328 
Q 3016 3291 2770 3770 
Q 2525 4250 2034 4250 
z
M 2034 4750 
Q 2819 4750 3233 4129 
Q 3647 3509 3647 2328 
Q 3647 1150 3233 529 
Q 2819 -91 2034 -91 
Q 1250 -91 836 529 
Q 422 1150 422 2328 
Q 422 3509 836 4129 
Q 1250 4750 2034 4750 
z
" transform="scale(0.015625)"/>
       </defs>
       <use xlink:href="#DejaVuSans-30"/>
      </g>
     </g>
    </g>
    <g id="xtick_2">
     <g id="line2d_2">
      <g>
       <use xlink:href="#m7c0a031bdb" x="95.917314" y="288.430125" style="stroke: #000000; stroke-width: 0.8"/>
      </g>
     </g>
     <g id="text_2">
      <!-- 500  -->
      <g transform="translate(84.784502 303.028562) scale(0.1 -0.1)">
       <defs>
        <path id="DejaVuSans-35" d="M 691 4666 
L 3169 4666 
L 3169 4134 
L 1269 4134 
L 1269 2991 
Q 1406 3038 1543 3061 
Q 1681 3084 1819 3084 
Q 2600 3084 3056 2656 
Q 3513 2228 3513 1497 
Q 3513 744 3044 326 
Q 2575 -91 1722 -91 
Q 1428 -91 1123 -41 
Q 819 9 494 109 
L 494 744 
Q 775 591 1075 516 
Q 1375 441 1709 441 
Q 2250 441 2565 725 
Q 2881 1009 2881 1497 
Q 2881 1984 2565 2268 
Q 2250 2553 1709 2553 
Q 1456 2553 1204 2497 
Q 953 2441 691 2322 
L 691 4666 
z
" transform="scale(0.015625)"/>
        <path id="DejaVuSans-20" transform="scale(0.015625)"/>
       </defs>
       <use xlink:href="#DejaVuSans-35"/>
       <use xlink:href="#DejaVuSans-30" transform="translate(63.623047 0)"/>
       <use xlink:href="#DejaVuSans-30" transform="translate(127.246094 0)"/>
       <use xlink:href="#DejaVuSans-20" transform="translate(190.869141 0)"/>
      </g>
     </g>
    </g>
    <g id="xtick_3">
     <g id="line2d_3">
      <g>
       <use xlink:href="#m7c0a031bdb" x="139.465878" y="288.430125" style="stroke: #000000; stroke-width: 0.8"/>
      </g>
     </g>
     <g id="text_3">
      <!-- 1 k -->
      <g transform="translate(131.800253 303.028562) scale(0.1 -0.1)">
       <defs>
        <path id="DejaVuSans-31" d="M 794 531 
L 1825 531 
L 1825 4091 
L 703 3866 
L 703 4441 
L 1819 4666 
L 2450 4666 
L 2450 531 
L 3481 531 
L 3481 0 
L 794 0 
L 794 531 
z
" transform="scale(0.015625)"/>
        <path id="DejaVuSans-6b" d="M 581 4863 
L 1159 4863 
L 1159 1991 
L 2875 3500 
L 3609 3500 
L 1753 1863 
L 3688 0 
L 2938 0 
L 1159 1709 
L 1159 0 
L 581 0 
L 581 4863 
z
" transform="scale(0.015625)"/>
       </defs>
       <use xlink:href="#DejaVuSans-31"/>
       <use xlink:href="#DejaVuSans-20" transform="translate(63.623047 0)"/>
       <use xlink:href="#DejaVuSans-6b" transform="translate(95.410156 0)"/>
      </g>
     </g>
    </g>
    <g id="xtick_4">
     <g id="line2d_4">
      <g>
       <use xlink:href="#m7c0a031bdb" x="183.014442" y="288.430125" style="stroke: #000000; stroke-width: 0.8"/>
      </g>
     </g>
     <g id="text_4">
      <!-- 1.5 k -->
      <g transform="translate(170.578505 303.028562) scale(0.1 -0.1)">
       <defs>
        <path id="DejaVuSans-2e" d="M 684 794 
L 1344 794 
L 1344 0 
L 684 0 
L 684 794 
z
" transform="scale(0.015625)"/>
       </defs>
       <use xlink:href="#DejaVuSans-31"/>
       <use xlink:href="#DejaVuSans-2e" transform="translate(63.623047 0)"/>
       <use xlink:href="#DejaVuSans-35" transform="translate(95.410156 0)"/>
       <use xlink:href="#DejaVuSans-20" transform="translate(159.033203 0)"/>
       <use xlink:href="#DejaVuSans-6b" transform="translate(190.820312 0)"/>
      </g>
     </g>
    </g>
    <g id="xtick_5">
     <g id="line2d_5">
      <g>
       <use xlink:href="#m7c0a031bdb" x="226.563006" y="288.430125" style="stroke: #000000; stroke-width: 0.8"/>
      </g>
     </g>
     <g id="text_5">
      <!-- 2 k -->
      <g transform="translate(218.897381 303.028562) scale(0.1 -0.1)">
       <defs>
        <path id="DejaVuSans-32" d="M 1228 531 
L 3431 531 
L 3431 0 
L 469 0 
L 469 531 
Q 828 903 1448 1529 
Q 2069 2156 2228 2338 
Q 2531 2678 2651 2914 
Q 2772 3150 2772 3378 
Q 2772 3750 2511 3984 
Q 2250 4219 1831 4219 
Q 1534 4219 1204 4116 
Q 875 4013 500 3803 
L 500 4441 
Q 881 4594 1212 4672 
Q 1544 4750 1819 4750 
Q 2544 4750 2975 4387 
Q 3406 4025 3406 3419 
Q 3406 3131 3298 2873 
Q 3191 2616 2906 2266 
Q 2828 2175 2409 1742 
Q 1991 1309 1228 531 
z
" transform="scale(0.015625)"/>
       </defs>
       <use xlink:href="#DejaVuSans-32"/>
       <use xlink:href="#DejaVuSans-20" transform="translate(63.623047 0)"/>
       <use xlink:href="#DejaVuSans-6b" transform="translate(95.410156 0)"/>
      </g>
     </g>
    </g>
    <g id="xtick_6">
     <g id="line2d_6">
      <g>
       <use xlink:href="#m7c0a031bdb" x="270.111571" y="288.430125" style="stroke: #000000; stroke-width: 0.8"/>
      </g>
     </g>
     <g id="text_6">
      <!-- 2.5 k -->
      <g transform="translate(257.675633 303.028562) scale(0.1 -0.1)">
       <use xlink:href="#DejaVuSans-32"/>
       <use xlink:href="#DejaVuSans-2e" transform="translate(63.623047 0)"/>
       <use xlink:href="#DejaVuSans-35" transform="translate(95.410156 0)"/>
       <use xlink:href="#DejaVuSans-20" transform="translate(159.033203 0)"/>
       <use xlink:href="#DejaVuSans-6b" transform="translate(190.820312 0)"/>
      </g>
     </g>
    </g>
    <g id="xtick_7">
     <g id="line2d_7">
      <g>
       <use xlink:href="#m7c0a031bdb" x="313.660135" y="288.430125" style="stroke: #000000; stroke-width: 0.8"/>
      </g>
     </g>
     <g id="text_7">
      <!-- 3 k -->
      <g transform="translate(305.99451 303.028562) scale(0.1 -0.1)">
       <defs>
        <path id="DejaVuSans-33" d="M 2597 2516 
Q 3050 2419 3304 2112 
Q 3559 1806 3559 1356 
Q 3559 666 3084 287 
Q 2609 -91 1734 -91 
Q 1441 -91 1130 -33 
Q 819 25 488 141 
L 488 750 
Q 750 597 1062 519 
Q 1375 441 1716 441 
Q 2309 441 2620 675 
Q 2931 909 2931 1356 
Q 2931 1769 2642 2001 
Q 2353 2234 1838 2234 
L 1294 2234 
L 1294 2753 
L 1863 2753 
Q 2328 2753 2575 2939 
Q 2822 3125 2822 3475 
Q 2822 3834 2567 4026 
Q 2313 4219 1838 4219 
Q 1578 4219 1281 4162 
Q 984 4106 628 3988 
L 628 4550 
Q 988 4650 1302 4700 
Q 1616 4750 1894 4750 
Q 2613 4750 3031 4423 
Q 3450 4097 3450 3541 
Q 3450 3153 3228 2886 
Q 3006 2619 2597 2516 
z
" transform="scale(0.015625)"/>
       </defs>
       <use xlink:href="#DejaVuSans-33"/>
       <use xlink:href="#DejaVuSans-20" transform="translate(63.623047 0)"/>
       <use xlink:href="#DejaVuSans-6b" transform="translate(95.410156 0)"/>
      </g>
     </g>
    </g>
    <g id="xtick_8">
     <g id="line2d_8">
      <g>
       <use xlink:href="#m7c0a031bdb" x="357.208699" y="288.430125" style="stroke: #000000; stroke-width: 0.8"/>
      </g>
     </g>
     <g id="text_8">
      <!-- 3.5 k -->
      <g transform="translate(344.772761 303.028562) scale(0.1 -0.1)">
       <use xlink:href="#DejaVuSans-33"/>
       <use xlink:href="#DejaVuSans-2e" transform="translate(63.623047 0)"/>
       <use xlink:href="#DejaVuSans-35" transform="translate(95.410156 0)"/>
       <use xlink:href="#DejaVuSans-20" transform="translate(159.033203 0)"/>
       <use xlink:href="#DejaVuSans-6b" transform="translate(190.820312 0)"/>
      </g>
     </g>
    </g>
    <g id="xtick_9">
     <g id="line2d_9">
      <g>
       <use xlink:href="#m7c0a031bdb" x="400.757263" y="288.430125" style="stroke: #000000; stroke-width: 0.8"/>
      </g>
     </g>
     <g id="text_9">
      <!-- 4 k -->
      <g transform="translate(393.091638 303.028562) scale(0.1 -0.1)">
       <defs>
        <path id="DejaVuSans-34" d="M 2419 4116 
L 825 1625 
L 2419 1625 
L 2419 4116 
z
M 2253 4666 
L 3047 4666 
L 3047 1625 
L 3713 1625 
L 3713 1100 
L 3047 1100 
L 3047 0 
L 2419 0 
L 2419 1100 
L 313 1100 
L 313 1709 
L 2253 4666 
z
" transform="scale(0.015625)"/>
       </defs>
       <use xlink:href="#DejaVuSans-34"/>
       <use xlink:href="#DejaVuSans-20" transform="translate(63.623047 0)"/>
       <use xlink:href="#DejaVuSans-6b" transform="translate(95.410156 0)"/>
      </g>
     </g>
    </g>
    <g id="text_10">
     <!-- Amount of objects in table -->
     <g transform="translate(164.870156 316.706687) scale(0.1 -0.1)">
      <defs>
       <path id="DejaVuSans-41" d="M 2188 4044 
L 1331 1722 
L 3047 1722 
L 2188 4044 
z
M 1831 4666 
L 2547 4666 
L 4325 0 
L 3669 0 
L 3244 1197 
L 1141 1197 
L 716 0 
L 50 0 
L 1831 4666 
z
" transform="scale(0.015625)"/>
       <path id="DejaVuSans-6d" d="M 3328 2828 
Q 3544 3216 3844 3400 
Q 4144 3584 4550 3584 
Q 5097 3584 5394 3201 
Q 5691 2819 5691 2113 
L 5691 0 
L 5113 0 
L 5113 2094 
Q 5113 2597 4934 2840 
Q 4756 3084 4391 3084 
Q 3944 3084 3684 2787 
Q 3425 2491 3425 1978 
L 3425 0 
L 2847 0 
L 2847 2094 
Q 2847 2600 2669 2842 
Q 2491 3084 2119 3084 
Q 1678 3084 1418 2786 
Q 1159 2488 1159 1978 
L 1159 0 
L 581 0 
L 581 3500 
L 1159 3500 
L 1159 2956 
Q 1356 3278 1631 3431 
Q 1906 3584 2284 3584 
Q 2666 3584 2933 3390 
Q 3200 3197 3328 2828 
z
" transform="scale(0.015625)"/>
       <path id="DejaVuSans-6f" d="M 1959 3097 
Q 1497 3097 1228 2736 
Q 959 2375 959 1747 
Q 959 1119 1226 758 
Q 1494 397 1959 397 
Q 2419 397 2687 759 
Q 2956 1122 2956 1747 
Q 2956 2369 2687 2733 
Q 2419 3097 1959 3097 
z
M 1959 3584 
Q 2709 3584 3137 3096 
Q 3566 2609 3566 1747 
Q 3566 888 3137 398 
Q 2709 -91 1959 -91 
Q 1206 -91 779 398 
Q 353 888 353 1747 
Q 353 2609 779 3096 
Q 1206 3584 1959 3584 
z
" transform="scale(0.015625)"/>
       <path id="DejaVuSans-75" d="M 544 1381 
L 544 3500 
L 1119 3500 
L 1119 1403 
Q 1119 906 1312 657 
Q 1506 409 1894 409 
Q 2359 409 2629 706 
Q 2900 1003 2900 1516 
L 2900 3500 
L 3475 3500 
L 3475 0 
L 2900 0 
L 2900 538 
Q 2691 219 2414 64 
Q 2138 -91 1772 -91 
Q 1169 -91 856 284 
Q 544 659 544 1381 
z
M 1991 3584 
L 1991 3584 
z
" transform="scale(0.015625)"/>
       <path id="DejaVuSans-6e" d="M 3513 2113 
L 3513 0 
L 2938 0 
L 2938 2094 
Q 2938 2591 2744 2837 
Q 2550 3084 2163 3084 
Q 1697 3084 1428 2787 
Q 1159 2491 1159 1978 
L 1159 0 
L 581 0 
L 581 3500 
L 1159 3500 
L 1159 2956 
Q 1366 3272 1645 3428 
Q 1925 3584 2291 3584 
Q 2894 3584 3203 3211 
Q 3513 2838 3513 2113 
z
" transform="scale(0.015625)"/>
       <path id="DejaVuSans-74" d="M 1172 4494 
L 1172 3500 
L 2356 3500 
L 2356 3053 
L 1172 3053 
L 1172 1153 
Q 1172 725 1289 603 
Q 1406 481 1766 481 
L 2356 481 
L 2356 0 
L 1766 0 
Q 1100 0 847 248 
Q 594 497 594 1153 
L 594 3053 
L 172 3053 
L 172 3500 
L 594 3500 
L 594 4494 
L 1172 4494 
z
" transform="scale(0.015625)"/>
       <path id="DejaVuSans-66" d="M 2375 4863 
L 2375 4384 
L 1825 4384 
Q 1516 4384 1395 4259 
Q 1275 4134 1275 3809 
L 1275 3500 
L 2222 3500 
L 2222 3053 
L 1275 3053 
L 1275 0 
L 697 0 
L 697 3053 
L 147 3053 
L 147 3500 
L 697 3500 
L 697 3744 
Q 697 4328 969 4595 
Q 1241 4863 1831 4863 
L 2375 4863 
z
" transform="scale(0.015625)"/>
       <path id="DejaVuSans-62" d="M 3116 1747 
Q 3116 2381 2855 2742 
Q 2594 3103 2138 3103 
Q 1681 3103 1420 2742 
Q 1159 2381 1159 1747 
Q 1159 1113 1420 752 
Q 1681 391 2138 391 
Q 2594 391 2855 752 
Q 3116 1113 3116 1747 
z
M 1159 2969 
Q 1341 3281 1617 3432 
Q 1894 3584 2278 3584 
Q 2916 3584 3314 3078 
Q 3713 2572 3713 1747 
Q 3713 922 3314 415 
Q 2916 -91 2278 -91 
Q 1894 -91 1617 61 
Q 1341 213 1159 525 
L 1159 0 
L 581 0 
L 581 4863 
L 1159 4863 
L 1159 2969 
z
" transform="scale(0.015625)"/>
       <path id="DejaVuSans-6a" d="M 603 3500 
L 1178 3500 
L 1178 -63 
Q 1178 -731 923 -1031 
Q 669 -1331 103 -1331 
L -116 -1331 
L -116 -844 
L 38 -844 
Q 366 -844 484 -692 
Q 603 -541 603 -63 
L 603 3500 
z
M 603 4863 
L 1178 4863 
L 1178 4134 
L 603 4134 
L 603 4863 
z
" transform="scale(0.015625)"/>
       <path id="DejaVuSans-65" d="M 3597 1894 
L 3597 1613 
L 953 1613 
Q 991 1019 1311 708 
Q 1631 397 2203 397 
Q 2534 397 2845 478 
Q 3156 559 3463 722 
L 3463 178 
Q 3153 47 2828 -22 
Q 2503 -91 2169 -91 
Q 1331 -91 842 396 
Q 353 884 353 1716 
Q 353 2575 817 3079 
Q 1281 3584 2069 3584 
Q 2775 3584 3186 3129 
Q 3597 2675 3597 1894 
z
M 3022 2063 
Q 3016 2534 2758 2815 
Q 2500 3097 2075 3097 
Q 1594 3097 1305 2825 
Q 1016 2553 972 2059 
L 3022 2063 
z
" transform="scale(0.015625)"/>
       <path id="DejaVuSans-63" d="M 3122 3366 
L 3122 2828 
Q 2878 2963 2633 3030 
Q 2388 3097 2138 3097 
Q 1578 3097 1268 2742 
Q 959 2388 959 1747 
Q 959 1106 1268 751 
Q 1578 397 2138 397 
Q 2388 397 2633 464 
Q 2878 531 3122 666 
L 3122 134 
Q 2881 22 2623 -34 
Q 2366 -91 2075 -91 
Q 1284 -91 818 406 
Q 353 903 353 1747 
Q 353 2603 823 3093 
Q 1294 3584 2113 3584 
Q 2378 3584 2631 3529 
Q 2884 3475 3122 3366 
z
" transform="scale(0.015625)"/>
       <path id="DejaVuSans-73" d="M 2834 3397 
L 2834 2853 
Q 2591 2978 2328 3040 
Q 2066 3103 1784 3103 
Q 1356 3103 1142 2972 
Q 928 2841 928 2578 
Q 928 2378 1081 2264 
Q 1234 2150 1697 2047 
L 1894 2003 
Q 2506 1872 2764 1633 
Q 3022 1394 3022 966 
Q 3022 478 2636 193 
Q 2250 -91 1575 -91 
Q 1294 -91 989 -36 
Q 684 19 347 128 
L 347 722 
Q 666 556 975 473 
Q 1284 391 1588 391 
Q 1994 391 2212 530 
Q 2431 669 2431 922 
Q 2431 1156 2273 1281 
Q 2116 1406 1581 1522 
L 1381 1569 
Q 847 1681 609 1914 
Q 372 2147 372 2553 
Q 372 3047 722 3315 
Q 1072 3584 1716 3584 
Q 2034 3584 2315 3537 
Q 2597 3491 2834 3397 
z
" transform="scale(0.015625)"/>
       <path id="DejaVuSans-69" d="M 603 3500 
L 1178 3500 
L 1178 0 
L 603 0 
L 603 3500 
z
M 603 4863 
L 1178 4863 
L 1178 4134 
L 603 4134 
L 603 4863 
z
" transform="scale(0.015625)"/>
       <path id="DejaVuSans-61" d="M 2194 1759 
Q 1497 1759 1228 1600 
Q 959 1441 959 1056 
Q 959 750 1161 570 
Q 1363 391 1709 391 
Q 2188 391 2477 730 
Q 2766 1069 2766 1631 
L 2766 1759 
L 2194 1759 
z
M 3341 1997 
L 3341 0 
L 2766 0 
L 2766 531 
Q 2569 213 2275 61 
Q 1981 -91 1556 -91 
Q 1019 -91 701 211 
Q 384 513 384 1019 
Q 384 1609 779 1909 
Q 1175 2209 1959 2209 
L 2766 2209 
L 2766 2266 
Q 2766 2663 2505 2880 
Q 2244 3097 1772 3097 
Q 1472 3097 1187 3025 
Q 903 2953 641 2809 
L 641 3341 
Q 956 3463 1253 3523 
Q 1550 3584 1831 3584 
Q 2591 3584 2966 3190 
Q 3341 2797 3341 1997 
z
" transform="scale(0.015625)"/>
       <path id="DejaVuSans-6c" d="M 603 4863 
L 1178 4863 
L 1178 0 
L 603 0 
L 603 4863 
z
" transform="scale(0.015625)"/>
      </defs>
      <use xlink:href="#DejaVuSans-41"/>
      <use xlink:href="#DejaVuSans-6d" transform="translate(68.408203 0)"/>
      <use xlink:href="#DejaVuSans-6f" transform="translate(165.820312 0)"/>
      <use xlink:href="#DejaVuSans-75" transform="translate(227.001953 0)"/>
      <use xlink:href="#DejaVuSans-6e" transform="translate(290.380859 0)"/>
      <use xlink:href="#DejaVuSans-74" transform="translate(353.759766 0)"/>
      <use xlink:href="#DejaVuSans-20" transform="translate(392.96875 0)"/>
      <use xlink:href="#DejaVuSans-6f" transform="translate(424.755859 0)"/>
      <use xlink:href="#DejaVuSans-66" transform="translate(485.9375 0)"/>
      <use xlink:href="#DejaVuSans-20" transform="translate(521.142578 0)"/>
      <use xlink:href="#DejaVuSans-6f" transform="translate(552.929688 0)"/>
      <use xlink:href="#DejaVuSans-62" transform="translate(614.111328 0)"/>
      <use xlink:href="#DejaVuSans-6a" transform="translate(677.587891 0)"/>
      <use xlink:href="#DejaVuSans-65" transform="translate(705.371094 0)"/>
      <use xlink:href="#DejaVuSans-63" transform="translate(766.894531 0)"/>
      <use xlink:href="#DejaVuSans-74" transform="translate(821.875 0)"/>
      <use xlink:href="#DejaVuSans-73" transform="translate(861.083984 0)"/>
      <use xlink:href="#DejaVuSans-20" transform="translate(913.183594 0)"/>
      <use xlink:href="#DejaVuSans-69" transform="translate(944.970703 0)"/>
      <use xlink:href="#DejaVuSans-6e" transform="translate(972.753906 0)"/>
      <use xlink:href="#DejaVuSans-20" transform="translate(1036.132812 0)"/>
      <use xlink:href="#DejaVuSans-74" transform="translate(1067.919922 0)"/>
      <use xlink:href="#DejaVuSans-61" transform="translate(1107.128906 0)"/>
      <use xlink:href="#DejaVuSans-62" transform="translate(1168.408203 0)"/>
      <use xlink:href="#DejaVuSans-6c" transform="translate(1231.884766 0)"/>
      <use xlink:href="#DejaVuSans-65" transform="translate(1259.667969 0)"/>
     </g>
    </g>
   </g>
   <g id="matplotlib.axis_2">
    <g id="ytick_1">
     <g id="line2d_10">
      <defs>
       <path id="ma5febe7d5f" d="M 0 0 
L -3.5 0 
" style="stroke: #000000; stroke-width: 0.8"/>
      </defs>
      <g>
       <use xlink:href="#ma5febe7d5f" x="52.36875" y="288.430125" style="stroke: #000000; stroke-width: 0.8"/>
      </g>
     </g>
     <g id="text_11">
      <!-- 0 -->
      <g transform="translate(39.00625 292.229344) scale(0.1 -0.1)">
       <use xlink:href="#DejaVuSans-30"/>
      </g>
     </g>
    </g>
    <g id="ytick_2">
     <g id="line2d_11">
      <g>
       <use xlink:href="#ma5febe7d5f" x="52.36875" y="254.3053" style="stroke: #000000; stroke-width: 0.8"/>
      </g>
     </g>
     <g id="text_12">
      <!-- 1 ms -->
      <g transform="translate(20.878125 258.104519) scale(0.1 -0.1)">
       <use xlink:href="#DejaVuSans-31"/>
       <use xlink:href="#DejaVuSans-20" transform="translate(63.623047 0)"/>
       <use xlink:href="#DejaVuSans-6d" transform="translate(95.410156 0)"/>
       <use xlink:href="#DejaVuSans-73" transform="translate(192.822266 0)"/>
      </g>
     </g>
    </g>
    <g id="ytick_3">
     <g id="line2d_12">
      <g>
       <use xlink:href="#ma5febe7d5f" x="52.36875" y="220.180475" style="stroke: #000000; stroke-width: 0.8"/>
      </g>
     </g>
     <g id="text_13">
      <!-- 2 ms -->
      <g transform="translate(20.878125 223.979693) scale(0.1 -0.1)">
       <use xlink:href="#DejaVuSans-32"/>
       <use xlink:href="#DejaVuSans-20" transform="translate(63.623047 0)"/>
       <use xlink:href="#DejaVuSans-6d" transform="translate(95.410156 0)"/>
       <use xlink:href="#DejaVuSans-73" transform="translate(192.822266 0)"/>
      </g>
     </g>
    </g>
    <g id="ytick_4">
     <g id="line2d_13">
      <g>
       <use xlink:href="#ma5febe7d5f" x="52.36875" y="186.055649" style="stroke: #000000; stroke-width: 0.8"/>
      </g>
     </g>
     <g id="text_14">
      <!-- 3 ms -->
      <g transform="translate(20.878125 189.854868) scale(0.1 -0.1)">
       <use xlink:href="#DejaVuSans-33"/>
       <use xlink:href="#DejaVuSans-20" transform="translate(63.623047 0)"/>
       <use xlink:href="#DejaVuSans-6d" transform="translate(95.410156 0)"/>
       <use xlink:href="#DejaVuSans-73" transform="translate(192.822266 0)"/>
      </g>
     </g>
    </g>
    <g id="ytick_5">
     <g id="line2d_14">
      <g>
       <use xlink:href="#ma5febe7d5f" x="52.36875" y="151.930824" style="stroke: #000000; stroke-width: 0.8"/>
      </g>
     </g>
     <g id="text_15">
      <!-- 4 ms -->
      <g transform="translate(20.878125 155.730043) scale(0.1 -0.1)">
       <use xlink:href="#DejaVuSans-34"/>
       <use xlink:href="#DejaVuSans-20" transform="translate(63.623047 0)"/>
       <use xlink:href="#DejaVuSans-6d" transform="translate(95.410156 0)"/>
       <use xlink:href="#DejaVuSans-73" transform="translate(192.822266 0)"/>
      </g>
     </g>
    </g>
    <g id="ytick_6">
     <g id="line2d_15">
      <g>
       <use xlink:href="#ma5febe7d5f" x="52.36875" y="117.805999" style="stroke: #000000; stroke-width: 0.8"/>
      </g>
     </g>
     <g id="text_16">
      <!-- 5 ms -->
      <g transform="translate(20.878125 121.605218) scale(0.1 -0.1)">
       <use xlink:href="#DejaVuSans-35"/>
       <use xlink:href="#DejaVuSans-20" transform="translate(63.623047 0)"/>
       <use xlink:href="#DejaVuSans-6d" transform="translate(95.410156 0)"/>
       <use xlink:href="#DejaVuSans-73" transform="translate(192.822266 0)"/>
      </g>
     </g>
    </g>
    <g id="ytick_7">
     <g id="line2d_16">
      <g>
       <use xlink:href="#ma5febe7d5f" x="52.36875" y="83.681174" style="stroke: #000000; stroke-width: 0.8"/>
      </g>
     </g>
     <g id="text_17">
      <!-- 6 ms -->
      <g transform="translate(20.878125 87.480392) scale(0.1 -0.1)">
       <defs>
        <path id="DejaVuSans-36" d="M 2113 2584 
Q 1688 2584 1439 2293 
Q 1191 2003 1191 1497 
Q 1191 994 1439 701 
Q 1688 409 2113 409 
Q 2538 409 2786 701 
Q 3034 994 3034 1497 
Q 3034 2003 2786 2293 
Q 2538 2584 2113 2584 
z
M 3366 4563 
L 3366 3988 
Q 3128 4100 2886 4159 
Q 2644 4219 2406 4219 
Q 1781 4219 1451 3797 
Q 1122 3375 1075 2522 
Q 1259 2794 1537 2939 
Q 1816 3084 2150 3084 
Q 2853 3084 3261 2657 
Q 3669 2231 3669 1497 
Q 3669 778 3244 343 
Q 2819 -91 2113 -91 
Q 1303 -91 875 529 
Q 447 1150 447 2328 
Q 447 3434 972 4092 
Q 1497 4750 2381 4750 
Q 2619 4750 2861 4703 
Q 3103 4656 3366 4563 
z
" transform="scale(0.015625)"/>
       </defs>
       <use xlink:href="#DejaVuSans-36"/>
       <use xlink:href="#DejaVuSans-20" transform="translate(63.623047 0)"/>
       <use xlink:href="#DejaVuSans-6d" transform="translate(95.410156 0)"/>
       <use xlink:href="#DejaVuSans-73" transform="translate(192.822266 0)"/>
      </g>
     </g>
    </g>
    <g id="ytick_8">
     <g id="line2d_17">
      <g>
       <use xlink:href="#ma5febe7d5f" x="52.36875" y="49.556348" style="stroke: #000000; stroke-width: 0.8"/>
      </g>
     </g>
     <g id="text_18">
      <!-- 7 ms -->
      <g transform="translate(20.878125 53.355567) scale(0.1 -0.1)">
       <defs>
        <path id="DejaVuSans-37" d="M 525 4666 
L 3525 4666 
L 3525 4397 
L 1831 0 
L 1172 0 
L 2766 4134 
L 525 4134 
L 525 4666 
z
" transform="scale(0.015625)"/>
       </defs>
       <use xlink:href="#DejaVuSans-37"/>
       <use xlink:href="#DejaVuSans-20" transform="translate(63.623047 0)"/>
       <use xlink:href="#DejaVuSans-6d" transform="translate(95.410156 0)"/>
       <use xlink:href="#DejaVuSans-73" transform="translate(192.822266 0)"/>
      </g>
     </g>
    </g>
    <g id="text_19">
     <!-- Write latency (s) -->
     <g transform="translate(14.798438 196.625687) rotate(-90) scale(0.1 -0.1)">
      <defs>
       <path id="DejaVuSans-57" d="M 213 4666 
L 850 4666 
L 1831 722 
L 2809 4666 
L 3519 4666 
L 4500 722 
L 5478 4666 
L 6119 4666 
L 4947 0 
L 4153 0 
L 3169 4050 
L 2175 0 
L 1381 0 
L 213 4666 
z
" transform="scale(0.015625)"/>
       <path id="DejaVuSans-72" d="M 2631 2963 
Q 2534 3019 2420 3045 
Q 2306 3072 2169 3072 
Q 1681 3072 1420 2755 
Q 1159 2438 1159 1844 
L 1159 0 
L 581 0 
L 581 3500 
L 1159 3500 
L 1159 2956 
Q 1341 3275 1631 3429 
Q 1922 3584 2338 3584 
Q 2397 3584 2469 3576 
Q 2541 3569 2628 3553 
L 2631 2963 
z
" transform="scale(0.015625)"/>
       <path id="DejaVuSans-79" d="M 2059 -325 
Q 1816 -950 1584 -1140 
Q 1353 -1331 966 -1331 
L 506 -1331 
L 506 -850 
L 844 -850 
Q 1081 -850 1212 -737 
Q 1344 -625 1503 -206 
L 1606 56 
L 191 3500 
L 800 3500 
L 1894 763 
L 2988 3500 
L 3597 3500 
L 2059 -325 
z
" transform="scale(0.015625)"/>
       <path id="DejaVuSans-28" d="M 1984 4856 
Q 1566 4138 1362 3434 
Q 1159 2731 1159 2009 
Q 1159 1288 1364 580 
Q 1569 -128 1984 -844 
L 1484 -844 
Q 1016 -109 783 600 
Q 550 1309 550 2009 
Q 550 2706 781 3412 
Q 1013 4119 1484 4856 
L 1984 4856 
z
" transform="scale(0.015625)"/>
       <path id="DejaVuSans-29" d="M 513 4856 
L 1013 4856 
Q 1481 4119 1714 3412 
Q 1947 2706 1947 2009 
Q 1947 1309 1714 600 
Q 1481 -109 1013 -844 
L 513 -844 
Q 928 -128 1133 580 
Q 1338 1288 1338 2009 
Q 1338 2731 1133 3434 
Q 928 4138 513 4856 
z
" transform="scale(0.015625)"/>
      </defs>
      <use xlink:href="#DejaVuSans-57"/>
      <use xlink:href="#DejaVuSans-72" transform="translate(94.376953 0)"/>
      <use xlink:href="#DejaVuSans-69" transform="translate(135.490234 0)"/>
      <use xlink:href="#DejaVuSans-74" transform="translate(163.273438 0)"/>
      <use xlink:href="#DejaVuSans-65" transform="translate(202.482422 0)"/>
      <use xlink:href="#DejaVuSans-20" transform="translate(264.005859 0)"/>
      <use xlink:href="#DejaVuSans-6c" transform="translate(295.792969 0)"/>
      <use xlink:href="#DejaVuSans-61" transform="translate(323.576172 0)"/>
      <use xlink:href="#DejaVuSans-74" transform="translate(384.855469 0)"/>
      <use xlink:href="#DejaVuSans-65" transform="translate(424.064453 0)"/>
      <use xlink:href="#DejaVuSans-6e" transform="translate(485.587891 0)"/>
      <use xlink:href="#DejaVuSans-63" transform="translate(548.966797 0)"/>
      <use xlink:href="#DejaVuSans-79" transform="translate(603.947266 0)"/>
      <use xlink:href="#DejaVuSans-20" transform="translate(663.126953 0)"/>
      <use xlink:href="#DejaVuSans-28" transform="translate(694.914062 0)"/>
      <use xlink:href="#DejaVuSans-73" transform="translate(733.927734 0)"/>
      <use xlink:href="#DejaVuSans-29" transform="translate(786.027344 0)"/>
     </g>
    </g>
   </g>
   <g id="line2d_18">
    <path d="M 137.723936 174.021759 
L 138.594907 173.394787 
L 139.465878 172.422473 
L 140.772335 171.676006 
L 141.207821 171.159851 
L 141.643306 170.986325 
L 142.514278 170.238898 
L 142.949763 169.938325 
L 143.385249 169.844323 
L 144.25622 169.394841 
L 144.691706 169.278016 
L 145.127192 169.009487 
L 146.433648 167.734848 
L 147.30462 166.910693 
L 148.175591 166.252137 
L 149.046562 164.691445 
L 150.353019 163.43846 
L 150.788505 163.585868 
L 151.223991 162.395843 
L 151.659476 162.102947 
L 152.530447 161.36253 
L 153.401419 160.810618 
L 153.836904 160.276813 
L 154.27239 160.029479 
L 154.707876 159.940359 
L 156.449818 158.573095 
L 157.756275 158.224541 
L 158.191761 157.737383 
L 159.062732 157.018077 
L 159.498218 156.447139 
L 160.369189 156.11953 
L 160.804675 155.748153 
L 161.24016 155.557896 
L 162.111132 155.422588 
L 162.982103 155.217895 
L 163.417588 155.190275 
L 164.28856 154.77271 
L 166.030502 154.551578 
L 166.901474 154.227265 
L 168.207931 154.301991 
L 169.078902 154.222968 
L 170.820844 154.738706 
L 171.25633 155.089639 
L 172.562787 155.621148 
L 172.998273 155.641801 
L 176.482158 158.400695 
L 176.917643 158.527283 
L 179.530557 160.507667 
L 179.966043 161.001876 
L 180.401528 161.32014 
L 180.837014 161.346091 
L 182.143471 162.384202 
L 183.014442 163.272861 
L 188.24027 170.302818 
L 188.675756 169.585474 
L 189.982213 166.697029 
L 190.853184 165.152526 
L 193.030612 160.487974 
L 193.901583 158.264553 
L 194.772555 155.846328 
L 195.20804 155.08434 
L 196.079012 152.915827 
L 196.514497 151.981189 
L 196.949983 150.752988 
L 197.385468 150.032181 
L 197.820954 148.971164 
L 198.25644 147.312089 
L 199.998382 143.550089 
L 200.433868 143.107408 
L 201.304839 141.692079 
L 203.046782 137.964626 
L 203.482267 137.424271 
L 203.917753 136.680975 
L 204.353239 135.438422 
L 205.659696 133.603985 
L 206.095181 133.376511 
L 206.530667 132.387258 
L 206.966153 131.07803 
L 208.27261 128.618332 
L 208.708095 128.10226 
L 209.579066 126.332452 
L 210.014552 125.844626 
L 210.450038 124.579751 
L 210.885523 124.025043 
L 211.321009 122.82997 
L 211.756495 122.195321 
L 212.19198 123.188121 
L 213.498437 120.731552 
L 214.369408 118.757635 
L 214.804894 117.870895 
L 215.24038 117.473858 
L 215.675865 116.792021 
L 216.982322 114.234732 
L 217.853294 112.859583 
L 218.288779 112.436594 
L 218.724265 111.752253 
L 219.159751 111.459775 
L 219.595236 110.985592 
L 220.030722 110.228152 
L 220.466207 109.879389 
L 220.901693 109.740327 
L 221.772664 108.324747 
L 222.20815 108.525727 
L 222.643636 108.12844 
L 223.514607 106.577845 
L 224.385578 105.834675 
L 225.25655 104.434575 
L 225.692035 103.421164 
L 226.127521 102.961209 
L 226.563006 102.186454 
L 227.869463 101.107997 
L 228.740435 100.145405 
L 230.046892 97.536255 
L 230.482377 97.084811 
L 231.353349 95.92925 
L 231.788834 95.598303 
L 232.22432 94.986268 
L 232.659805 94.001521 
L 233.530777 92.879838 
L 233.966262 92.775948 
L 235.708205 89.605498 
L 236.143691 89.858339 
L 236.579176 89.053043 
L 237.014662 88.846723 
L 237.450147 87.753955 
L 238.321119 86.368124 
L 238.756604 85.947347 
L 240.063061 83.604974 
L 241.369518 82.458759 
L 242.24049 80.922141 
L 242.675975 80.243808 
L 243.546946 79.451905 
L 243.982432 78.901369 
L 244.417918 78.663005 
L 244.853403 78.212605 
L 246.15986 75.746899 
L 247.030832 74.487489 
L 247.466317 73.50487 
L 247.901803 72.799291 
L 249.20826 71.550771 
L 249.643745 71.217613 
L 250.514717 70.216635 
L 250.950202 69.418599 
L 251.385688 69.193294 
L 252.256659 68.041447 
L 252.692145 67.001249 
L 253.127631 66.490893 
L 253.998602 64.959115 
L 256.611516 61.613095 
L 257.047001 60.958919 
L 257.482487 59.957399 
L 259.22443 57.631507 
L 260.966372 55.009756 
L 261.837343 54.081627 
L 262.272829 51.481197 
L 263.579286 49.638291 
L 264.014772 48.948317 
L 264.450257 46.670406 
L 265.321229 45.713905 
L 265.756714 45.529323 
L 266.627685 44.429211 
L 269.240599 40.769016 
L 270.547056 38.893566 
L 272.724484 35.470315 
L 273.15997 34.990125 
L 274.030941 36.781086 
L 274.901913 38.685034 
L 275.337398 39.298404 
L 276.643855 41.88953 
L 277.514826 44.146913 
L 278.385798 46.207823 
L 279.692255 49.254564 
L 280.12774 49.763293 
L 281.869683 54.514462 
L 282.305169 55.093536 
L 282.740654 56.060676 
L 283.17614 57.793976 
L 283.611625 58.720729 
L 284.047111 59.956148 
L 284.482597 60.659807 
L 286.660025 65.772464 
L 287.095511 66.89277 
L 288.837453 70.053957 
L 289.272939 71.274815 
L 289.708424 71.937085 
L 290.579396 73.757586 
L 291.014881 74.361903 
L 293.19231 80.088348 
L 294.063281 82.046869 
L 294.498766 83.326932 
L 294.934252 84.136984 
L 295.369738 85.569879 
L 295.805223 86.225056 
L 299.289109 94.43761 
L 299.724594 94.934072 
L 300.16008 95.760772 
L 300.595565 96.299 
L 304.079451 103.929434 
L 304.514936 104.604805 
L 305.385907 106.297175 
L 306.256879 107.937265 
L 306.692364 109.086735 
L 307.12785 109.373539 
L 307.563336 110.021039 
L 308.869793 112.82804 
L 309.305278 113.340733 
L 310.17625 114.99163 
L 311.482706 118.191954 
L 312.789163 120.598747 
L 313.660135 122.007901 
L 314.966592 125.332393 
L 316.708534 128.569641 
L 317.14402 129.056215 
L 317.579505 130.345124 
L 318.450477 132.105627 
L 319.321448 134.179012 
L 320.627905 137.21478 
L 321.934362 139.733016 
L 322.369847 141.134159 
L 323.676304 143.990142 
L 324.11179 145.031591 
L 324.547276 144.510429 
L 324.982761 145.830587 
L 326.289218 148.26546 
L 326.724704 148.761964 
L 327.595675 150.509576 
L 330.208589 155.804354 
L 331.07956 157.972075 
L 331.950532 159.566604 
L 332.386017 160.602504 
L 334.12796 163.074594 
L 334.998931 164.182382 
L 335.434417 164.841356 
L 335.869902 165.786466 
L 336.305388 166.233695 
L 337.176359 167.637175 
L 337.611845 168.534095 
L 338.047331 169.156978 
L 338.918302 170.835037 
L 339.789273 171.827503 
L 340.224759 172.470204 
L 340.660244 172.87909 
L 341.09573 173.475563 
L 341.531216 173.785481 
L 341.966701 174.331219 
L 342.402187 175.314339 
L 345.450586 178.655394 
L 345.886072 179.220491 
L 346.757043 180.092544 
L 347.192529 182.555455 
L 348.498986 183.682269 
L 348.934472 184.161417 
L 349.369957 186.304145 
L 350.240929 186.703685 
L 351.982871 188.047876 
L 353.289328 188.821004 
L 354.595785 189.613616 
L 355.466756 190.387829 
L 355.902242 190.714145 
L 356.337728 190.843069 
L 356.773213 191.462948 
L 357.208699 191.64774 
L 358.07967 192.186509 
L 358.950641 192.773678 
L 359.821613 193.137878 
L 360.692584 191.465327 
L 361.999041 191.163711 
L 362.870012 191.266224 
L 363.305498 191.066287 
L 363.740983 191.252122 
L 364.176469 191.695012 
L 364.611955 191.805745 
L 365.04744 192.140781 
L 365.918412 192.033594 
L 366.789383 191.831989 
L 367.224869 192.128514 
L 367.660354 192.136066 
L 368.09584 191.884393 
L 368.531325 192.103564 
L 369.402297 192.063551 
L 369.837782 192.011064 
L 370.273268 192.160057 
L 370.708754 191.978103 
L 371.579725 192.051869 
L 372.015211 191.971177 
L 372.450696 192.064845 
L 372.886182 192.334459 
L 373.321668 192.096805 
L 374.192639 192.313347 
L 374.628124 192.128222 
L 375.06361 191.527661 
L 375.934581 191.213403 
L 377.241038 190.237251 
L 377.676524 190.194067 
L 378.11201 188.964573 
L 378.547495 188.690494 
L 378.982981 186.299973 
L 379.418466 185.142242 
L 380.289438 184.457024 
L 380.724923 184.375122 
L 381.160409 184.421101 
L 381.595895 183.954596 
L 382.466866 183.430596 
L 382.902352 182.739412 
L 383.773323 182.584953 
L 384.208809 182.235189 
L 384.644294 182.458908 
L 385.07978 181.899945 
L 387.257208 180.29657 
L 387.692694 177.716501 
L 388.999151 176.867479 
L 391.612064 174.241848 
L 392.04755 174.552017 
L 392.483036 174.022385 
L 392.483036 174.022385 
" clip-path="url(#p511c0849d5)" style="fill: none; stroke: #1f77b4; stroke-opacity: 0.8; stroke-width: 1.5; stroke-linecap: square"/>
   </g>
   <g id="line2d_19">
    <path d="M 137.723936 271.027988 
L 140.33685 271.176564 
L 143.385249 271.676949 
L 147.740105 272.345936 
L 151.223991 272.966357 
L 152.094962 273.18582 
L 153.836904 273.256708 
L 157.32079 273.220826 
L 158.191761 273.101331 
L 158.627246 273.081888 
L 159.062732 272.945746 
L 161.675646 272.767547 
L 163.853074 272.668413 
L 166.030502 272.705129 
L 173.869244 272.318232 
L 175.175701 272.259986 
L 176.046672 272.219598 
L 178.659586 272.093136 
L 181.2725 271.872463 
L 181.707985 271.914353 
L 182.578957 271.820225 
L 183.449928 271.788057 
L 184.320899 271.674278 
L 189.111241 271.266561 
L 189.982213 271.359645 
L 192.595126 271.309285 
L 194.337069 271.222376 
L 195.20804 271.290844 
L 201.304839 271.040797 
L 202.175811 271.145773 
L 206.966153 271.390812 
L 210.885523 271.181821 
L 212.627466 271.11932 
L 213.498437 271.113437 
L 214.369408 271.136301 
L 216.982322 271.163046 
L 218.724265 271.025068 
L 227.433978 270.590272 
L 228.304949 270.684024 
L 229.17592 270.631453 
L 234.401748 270.832891 
L 235.272719 270.821 
L 236.143691 270.836062 
L 236.579176 270.626696 
L 238.756604 270.540872 
L 239.627576 270.453713 
L 242.24049 270.385162 
L 242.675975 270.459136 
L 243.546946 270.380614 
L 243.982432 270.461056 
L 245.288889 270.372144 
L 246.15986 270.448914 
L 247.030832 270.480791 
L 247.466317 270.32967 
L 249.643745 270.265542 
L 250.079231 270.150011 
L 251.385688 270.121597 
L 254.869573 270.006358 
L 255.305059 269.728733 
L 257.917973 269.719429 
L 259.22443 269.704909 
L 268.369628 269.738872 
L 269.240599 269.8214 
L 279.692255 269.760192 
L 280.563226 269.705326 
L 282.305169 269.731528 
L 284.047111 269.59209 
L 284.918082 269.664146 
L 288.401967 269.636024 
L 288.837453 269.582202 
L 289.272939 269.326523 
L 305.385907 268.741858 
L 306.692364 268.895566 
L 307.12785 268.66417 
L 307.563336 268.661583 
L 307.998821 268.534077 
L 311.918192 268.462063 
L 312.789163 268.277856 
L 315.402077 268.170419 
L 319.321448 268.109837 
L 322.369847 268.289997 
L 323.240819 268.171045 
L 325.853733 268.026391 
L 327.16019 267.447901 
L 331.07956 267.523587 
L 331.515046 267.39024 
L 331.950532 267.375637 
L 332.386017 267.497552 
L 335.434417 267.48153 
L 338.918302 267.561054 
L 339.789273 267.547411 
L 340.224759 267.78469 
L 341.966701 267.754441 
L 344.579615 267.712467 
L 345.886072 267.747056 
L 346.321558 267.583919 
L 350.240929 267.311592 
L 351.547385 267.372967 
L 354.160299 267.212834 
L 360.257098 266.974428 
L 361.12807 266.794727 
L 361.999041 266.64031 
L 365.04744 266.615402 
L 367.660354 265.592186 
L 369.402297 264.954074 
L 370.273268 264.650121 
L 371.144239 264.266436 
L 373.321668 263.444618 
L 375.06361 263.388 
L 376.805553 263.225947 
L 377.676524 263.317529 
L 379.853952 263.353036 
L 380.724923 263.402144 
L 387.257208 263.32287 
L 388.128179 263.412783 
L 391.612064 263.322745 
L 392.04755 263.526395 
L 392.483036 263.550344 
L 392.483036 263.550344 
" clip-path="url(#p511c0849d5)" style="fill: none; stroke: #ff7f0e; stroke-opacity: 0.8; stroke-width: 1.5; stroke-linecap: square"/>
   </g>
   <g id="line2d_20">
    <path d="M 137.723936 280.834696 
L 141.207821 280.723463 
L 143.820735 280.65754 
L 145.562677 280.630921 
L 178.659586 280.342364 
L 180.837014 280.295593 
L 187.369299 280.308277 
L 189.546727 280.32434 
L 207.401638 280.290252 
L 209.579066 280.282617 
L 213.498437 280.308318 
L 214.369408 280.283577 
L 216.546837 280.295343 
L 285.353568 280.059941 
L 287.095511 280.04029 
L 288.837453 280.056395 
L 302.337508 280.028065 
L 304.079451 280.059733 
L 350.676414 280.246151 
L 353.289328 280.27227 
L 387.257208 280.255372 
L 392.483036 280.232549 
L 392.483036 280.232549 
" clip-path="url(#p511c0849d5)" style="fill: none; stroke: #2ca02c; stroke-opacity: 0.8; stroke-width: 1.5; stroke-linecap: square"/>
   </g>
   <g id="line2d_21">
    <path d="M 137.723936 262.223217 
L 139.030393 262.000083 
L 139.465878 261.814415 
L 139.901364 261.929654 
L 140.33685 261.912005 
L 140.772335 261.55252 
L 144.691706 261.2726 
L 145.127192 260.886119 
L 147.740105 260.710924 
L 148.175591 260.471517 
L 152.094962 260.289396 
L 152.530447 260.031757 
L 152.965933 259.984568 
L 154.27239 260.078236 
L 155.143361 260.034719 
L 156.449818 259.940508 
L 156.885304 259.66814 
L 158.627246 259.672354 
L 159.062732 259.345371 
L 159.498218 259.33736 
L 159.933703 259.549313 
L 160.804675 259.526991 
L 161.24016 259.328473 
L 161.675646 259.323133 
L 162.111132 259.45068 
L 162.546617 259.167297 
L 163.853074 259.064408 
L 164.28856 259.135379 
L 166.465988 258.812151 
L 166.901474 258.513998 
L 169.514387 258.452206 
L 169.949873 258.186764 
L 170.385359 258.431052 
L 171.691816 258.36926 
L 172.127301 258.08884 
L 172.562787 258.224774 
L 173.869244 258.206165 
L 174.30473 257.984991 
L 175.175701 258.012403 
L 175.611186 258.209712 
L 176.046672 258.207333 
L 176.482158 257.927372 
L 176.917643 258.282101 
L 178.2241 258.318484 
L 178.659586 258.163858 
L 179.966043 258.121926 
L 180.401528 258.401262 
L 180.837014 258.171285 
L 181.2725 258.14404 
L 181.707985 258.320987 
L 183.449928 258.174038 
L 184.320899 258.116043 
L 184.756385 258.331668 
L 185.627356 258.141244 
L 186.498327 258.21113 
L 186.933813 258.483039 
L 188.24027 258.358538 
L 188.675756 258.020414 
L 189.546727 258.268249 
L 189.982213 258.19515 
L 190.417698 257.969679 
L 191.724155 258.096308 
L 192.159641 257.955076 
L 192.595126 257.94452 
L 193.030612 258.158768 
L 196.949983 258.087421 
L 197.820954 258.223939 
L 199.127411 258.138616 
L 199.998382 258.063222 
L 200.869354 258.08375 
L 201.304839 258.095975 
L 201.740325 257.906761 
L 202.175811 257.88423 
L 202.611296 258.078284 
L 203.046782 258.03848 
L 203.482267 257.810714 
L 203.917753 258.125348 
L 204.788724 258.19586 
L 205.22421 258.168823 
L 205.659696 258.007856 
L 206.530667 258.031429 
L 206.966153 258.206624 
L 207.401638 258.191729 
L 207.837124 258.06439 
L 208.708095 258.16415 
L 210.885523 257.967134 
L 211.321009 258.201367 
L 211.756495 258.195567 
L 212.19198 258.047033 
L 213.062952 258.078952 
L 213.498437 258.272254 
L 213.933923 258.275717 
L 214.369408 258.137781 
L 215.24038 258.214802 
L 215.675865 258.352738 
L 218.288779 258.487879 
L 218.724265 258.502732 
L 219.159751 258.882913 
L 220.901693 258.726118 
L 221.337179 258.992185 
L 223.514607 258.875736 
L 223.950093 259.006622 
L 225.25655 258.865097 
L 225.692035 259.183736 
L 226.127521 259.191622 
L 226.563006 258.941242 
L 229.611406 259.112556 
L 230.046892 259.455269 
L 231.353349 259.374243 
L 231.788834 259.028568 
L 233.095291 259.070959 
L 233.530777 259.056314 
L 234.401748 259.157617 
L 235.708205 259.371072 
L 236.143691 259.194208 
L 239.19209 258.995106 
L 239.627576 259.153028 
L 240.063061 259.118356 
L 240.498547 258.948001 
L 241.369518 258.88671 
L 241.805004 259.150608 
L 242.24049 259.146102 
L 242.675975 258.926221 
L 243.546946 258.940073 
L 243.982432 259.215445 
L 244.417918 259.216864 
L 244.853403 258.962812 
L 245.288889 258.975538 
L 245.724375 258.802805 
L 246.15986 259.031405 
L 247.030832 258.975079 
L 247.466317 259.241856 
L 250.079231 259.291507 
L 253.127631 259.870873 
L 253.563116 259.844128 
L 253.998602 259.624957 
L 254.434087 259.646862 
L 254.869573 259.86186 
L 255.305059 259.607934 
L 256.611516 259.642606 
L 257.047001 259.895155 
L 257.482487 259.886686 
L 257.917973 259.639143 
L 258.788944 259.671395 
L 259.22443 259.455687 
L 260.966372 259.435159 
L 261.401858 259.702019 
L 261.837343 259.712116 
L 262.272829 259.570383 
L 264.014772 259.618365 
L 264.450257 259.417719 
L 265.321229 259.429651 
L 265.756714 259.62237 
L 266.1922 259.606474 
L 266.627685 259.261841 
L 267.498657 259.241564 
L 267.934142 259.422225 
L 269.240599 259.343327 
L 269.676085 259.363813 
L 270.111571 258.834848 
L 270.547056 258.910367 
L 272.724484 258.574872 
L 273.15997 258.709595 
L 273.595456 259.065701 
L 274.030941 258.943995 
L 274.901913 259.040042 
L 276.20837 259.24849 
L 276.643855 258.93611 
L 277.079341 259.089233 
L 278.821283 259.038456 
L 279.256769 259.204305 
L 279.692255 258.989724 
L 280.12774 259.137048 
L 280.563226 259.132709 
L 280.998712 258.924052 
L 281.869683 258.885041 
L 282.740654 259.01505 
L 284.047111 258.930853 
L 284.482597 259.228087 
L 285.353568 259.297556 
L 287.095511 259.261841 
L 290.14391 259.225793 
L 290.579396 259.116228 
L 292.321338 259.114058 
L 292.756824 258.999862 
L 293.19231 259.136464 
L 294.063281 259.076591 
L 296.240709 258.827421 
L 296.676195 258.511077 
L 297.11168 257.878931 
L 302.337508 257.858529 
L 302.772994 257.627383 
L 303.643965 257.542852 
L 304.514936 257.602767 
L 305.385907 257.666227 
L 305.821393 257.421146 
L 306.692364 257.248621 
L 307.563336 256.863059 
L 307.998821 256.127899 
L 308.869793 256.023216 
L 309.305278 256.223862 
L 310.611735 256.093686 
L 311.047221 256.059306 
L 311.482706 256.219064 
L 311.918192 256.191234 
L 312.353678 255.659141 
L 312.789163 255.531134 
L 314.09562 255.697943 
L 314.531106 255.494209 
L 316.273049 255.540731 
L 316.708534 255.684633 
L 317.579505 255.664356 
L 318.014991 255.844349 
L 318.450477 255.853194 
L 318.885962 255.502679 
L 321.063391 255.516156 
L 321.934362 255.562844 
L 322.369847 255.800874 
L 323.676304 255.849189 
L 324.11179 255.53635 
L 324.982761 255.165265 
L 325.853733 255.365869 
L 326.724704 255.34142 
L 327.16019 255.309209 
L 327.595675 255.511566 
L 328.031161 255.261603 
L 329.337618 255.276457 
L 329.773103 255.506017 
L 330.208589 255.293104 
L 330.644075 255.425784 
L 331.950532 255.381515 
L 333.256989 254.969042 
L 334.12796 254.973923 
L 334.563445 254.779035 
L 335.869902 254.796308 
L 336.305388 254.858392 
L 336.740874 254.631085 
L 339.789273 254.547555 
L 340.224759 254.781914 
L 340.660244 254.791051 
L 341.09573 254.332932 
L 342.402187 254.332974 
L 342.837673 254.569669 
L 343.708644 254.285201 
L 344.14413 254.693669 
L 345.886072 254.487433 
L 346.321558 254.188404 
L 346.757043 254.156944 
L 347.192529 254.291209 
L 347.628015 254.10671 
L 348.934472 254.215023 
L 349.369957 254.385336 
L 350.240929 254.37428 
L 350.676414 254.202047 
L 351.1119 254.210099 
L 351.547385 254.527153 
L 351.982871 253.84569 
L 353.724814 253.882198 
L 354.160299 253.623849 
L 354.595785 253.618175 
L 355.031271 254.259166 
L 355.466756 254.113385 
L 355.902242 254.16725 
L 356.337728 253.942446 
L 357.208699 254.181269 
L 359.821613 253.957133 
L 360.257098 254.155359 
L 360.692584 253.936939 
L 361.12807 253.919874 
L 361.563555 254.158321 
L 362.434526 254.177931 
L 362.870012 253.992681 
L 364.176469 253.977035 
L 364.611955 254.178599 
L 365.482926 254.073373 
L 365.918412 254.264173 
L 367.224869 254.238471 
L 367.660354 254.227581 
L 368.09584 253.894214 
L 368.531325 253.867136 
L 368.966811 254.012666 
L 369.402297 253.665614 
L 370.708754 253.610247 
L 372.015211 253.858833 
L 372.886182 253.68272 
L 373.321668 253.842561 
L 373.757153 253.607285 
L 374.192639 253.508485 
L 375.06361 253.520626 
L 375.499096 253.793412 
L 375.934581 253.499723 
L 376.370067 253.49238 
L 376.805553 252.941302 
L 377.241038 252.941594 
L 377.676524 253.081074 
L 378.547495 253.046653 
L 378.982981 252.827189 
L 379.418466 252.901081 
L 379.853952 253.092423 
L 380.289438 252.780084 
L 381.160409 252.844254 
L 381.595895 253.161892 
L 382.03138 254.004447 
L 382.466866 253.802299 
L 382.902352 253.766417 
L 383.337837 253.912656 
L 386.386237 253.940777 
L 386.821722 253.74084 
L 387.257208 253.737127 
L 387.692694 254.056267 
L 388.128179 253.931598 
L 389.434636 254.014961 
L 389.870122 253.845148 
L 390.305608 253.856914 
L 390.741093 254.109213 
L 391.176579 253.990511 
L 392.04755 254.410328 
L 392.483036 254.644311 
L 392.483036 254.644311 
" clip-path="url(#p511c0849d5)" style="fill: none; stroke: #d62728; stroke-opacity: 0.8; stroke-width: 1.5; stroke-linecap: square"/>
   </g>
   <g id="line2d_22">
    <path d="M 137.723936 203.03379 
L 138.594907 202.012618 
L 139.030393 202.109166 
L 139.465878 201.92959 
L 139.901364 201.196391 
L 140.33685 201.132304 
L 142.949763 197.904818 
L 143.385249 197.749567 
L 143.820735 197.216764 
L 144.25622 196.349926 
L 144.691706 196.148696 
L 145.998163 194.545113 
L 147.740105 193.24423 
L 148.175591 193.260877 
L 148.611077 192.599776 
L 149.482048 192.110156 
L 149.917534 192.170237 
L 150.788505 190.962647 
L 151.659476 189.453442 
L 152.094962 189.253755 
L 153.836904 187.3438 
L 154.27239 187.214458 
L 155.143361 186.399816 
L 156.014333 186.040622 
L 156.449818 185.935188 
L 156.885304 185.556051 
L 157.32079 185.472021 
L 157.756275 185.044735 
L 158.627246 184.734608 
L 159.062732 184.363064 
L 159.933703 184.316752 
L 160.804675 183.779734 
L 161.24016 183.668584 
L 161.675646 183.373811 
L 162.111132 183.378025 
L 163.417588 182.974605 
L 163.853074 183.285817 
L 164.724045 183.433809 
L 165.595017 183.601202 
L 166.030502 183.284899 
L 166.901474 183.590395 
L 167.336959 183.545877 
L 167.772445 183.624024 
L 168.207931 183.82225 
L 169.078902 184.634765 
L 169.949873 184.945518 
L 170.385359 184.768111 
L 170.820844 185.023415 
L 172.127301 185.401384 
L 172.562787 185.290901 
L 173.433758 185.655143 
L 174.30473 185.832216 
L 174.740215 185.633155 
L 176.917643 186.544219 
L 177.353129 187.020279 
L 178.659586 187.675248 
L 179.095072 187.69928 
L 179.530557 187.93126 
L 179.966043 188.550889 
L 180.837014 188.98969 
L 181.2725 189.421065 
L 183.885414 190.881121 
L 184.320899 191.379043 
L 185.191871 191.975349 
L 185.627356 191.881681 
L 187.804784 193.681946 
L 188.24027 194.100804 
L 188.675756 193.351959 
L 189.111241 192.336211 
L 190.417698 190.476324 
L 190.853184 190.204665 
L 192.159641 188.084884 
L 193.901583 186.112094 
L 194.337069 185.175078 
L 195.643526 183.655108 
L 196.514497 181.971249 
L 197.385468 181.181557 
L 197.820954 180.925795 
L 198.25644 180.481236 
L 198.691925 179.874834 
L 200.433868 178.827585 
L 201.304839 177.470794 
L 201.740325 176.816785 
L 202.611296 176.108537 
L 204.353239 174.45522 
L 204.788724 174.100949 
L 205.22421 173.463838 
L 206.966153 171.918501 
L 208.708095 170.88427 
L 210.014552 169.347485 
L 210.450038 168.234315 
L 210.885523 167.634671 
L 211.321009 167.485428 
L 211.756495 166.886535 
L 212.19198 166.622345 
L 212.627466 166.13114 
L 213.062952 166.017069 
L 213.498437 165.411251 
L 214.369408 165.184986 
L 215.24038 163.964421 
L 215.675865 163.624336 
L 216.111351 163.033288 
L 216.982322 162.627364 
L 217.853294 161.598683 
L 218.288779 161.478061 
L 218.724265 161.011097 
L 220.030722 160.271682 
L 220.466207 159.567689 
L 220.901693 159.397667 
L 221.337179 158.843836 
L 221.772664 158.767107 
L 222.20815 158.561454 
L 222.643636 157.892926 
L 223.514607 157.504234 
L 223.950093 156.833828 
L 224.385578 156.667854 
L 224.821064 156.380716 
L 225.25655 155.799181 
L 226.563006 155.483546 
L 226.998492 155.046247 
L 228.304949 154.785561 
L 228.740435 154.442765 
L 229.17592 154.493917 
L 229.611406 153.891728 
L 230.482377 153.898821 
L 231.353349 152.729784 
L 231.788834 152.472686 
L 232.22432 151.876464 
L 233.095291 151.048679 
L 233.530777 147.927879 
L 233.966262 147.472889 
L 234.401748 147.192052 
L 234.837234 146.463734 
L 235.708205 146.387798 
L 236.143691 146.646189 
L 236.579176 146.437699 
L 237.014662 145.944449 
L 237.450147 145.832089 
L 237.885633 145.324987 
L 238.321119 145.006641 
L 238.756604 145.049323 
L 239.19209 144.653413 
L 239.627576 144.618533 
L 240.498547 144.222498 
L 240.934033 143.399094 
L 241.805004 142.711957 
L 243.982432 140.111694 
L 244.417918 139.522565 
L 244.853403 139.281447 
L 245.724375 138.31172 
L 247.030832 136.302255 
L 247.901803 135.330192 
L 248.337289 135.011804 
L 249.20826 133.456661 
L 250.079231 132.900493 
L 250.950202 131.623058 
L 251.821174 130.870166 
L 252.256659 130.774078 
L 252.692145 130.539344 
L 253.127631 129.797509 
L 253.563116 129.38249 
L 253.998602 128.624966 
L 255.305059 127.134244 
L 256.17603 125.538338 
L 257.482487 124.210126 
L 258.353458 122.81737 
L 258.788944 122.454212 
L 259.659915 120.621736 
L 260.966372 119.332203 
L 263.579286 115.050668 
L 264.014772 114.768745 
L 264.450257 113.755793 
L 266.1922 111.746621 
L 266.627685 110.443151 
L 267.063171 109.943852 
L 269.676085 104.624039 
L 270.111571 103.591602 
L 270.982542 102.444761 
L 272.724484 99.158822 
L 273.15997 98.324945 
L 273.595456 98.894423 
L 274.030941 99.07475 
L 274.466427 98.937106 
L 274.901913 99.220447 
L 275.337398 99.170546 
L 276.20837 100.180744 
L 276.643855 100.025576 
L 277.079341 100.837381 
L 278.385798 101.2277 
L 278.821283 101.093436 
L 279.256769 101.753244 
L 279.692255 101.597325 
L 280.12774 101.906618 
L 280.563226 102.458029 
L 280.998712 102.611236 
L 281.434197 102.990373 
L 281.869683 102.702485 
L 282.740654 103.33463 
L 284.047111 103.148212 
L 284.482597 103.179671 
L 284.918082 103.349984 
L 285.353568 103.175081 
L 285.789054 103.466433 
L 286.224539 103.276093 
L 286.660025 103.309972 
L 287.095511 102.968469 
L 287.530996 102.98157 
L 287.966482 103.198864 
L 288.401967 102.886567 
L 289.272939 103.30993 
L 289.708424 102.978566 
L 290.14391 103.163941 
L 291.014881 102.571266 
L 291.450367 102.470338 
L 292.321338 102.623878 
L 292.756824 102.167136 
L 293.627795 102.217913 
L 294.498766 102.626131 
L 294.934252 102.130545 
L 295.369738 102.580778 
L 295.805223 102.822939 
L 296.240709 102.777419 
L 296.676195 103.04574 
L 297.11168 102.530377 
L 297.547166 102.49049 
L 299.289109 101.622734 
L 299.724594 101.840236 
L 300.16008 101.928522 
L 300.595565 101.733509 
L 301.031051 102.149696 
L 301.466537 101.486967 
L 301.902022 101.097983 
L 302.337508 101.208299 
L 302.772994 100.67633 
L 303.208479 100.596306 
L 303.643965 100.657096 
L 304.079451 100.288974 
L 304.514936 100.301032 
L 304.950422 99.815709 
L 305.385907 99.803902 
L 305.821393 99.002444 
L 306.256879 99.169837 
L 307.12785 98.500849 
L 307.563336 98.637993 
L 307.998821 97.767859 
L 308.434307 97.288044 
L 308.869793 97.164169 
L 309.305278 96.524054 
L 310.17625 95.897374 
L 311.482706 94.664041 
L 311.918192 94.315653 
L 312.789163 92.480966 
L 313.224649 92.001193 
L 313.660135 91.944742 
L 314.09562 91.601027 
L 314.531106 91.035472 
L 314.966592 90.788721 
L 315.402077 90.403326 
L 315.837563 90.192583 
L 316.273049 89.830677 
L 317.14402 88.634561 
L 318.014991 88.189627 
L 318.450477 90.66518 
L 318.885962 89.726161 
L 319.321448 89.431429 
L 319.756934 89.360667 
L 320.192419 89.08784 
L 321.063391 87.523351 
L 321.498876 87.482838 
L 322.369847 86.74918 
L 322.805333 87.130946 
L 323.240819 86.554167 
L 324.11179 85.694631 
L 324.547276 84.327075 
L 325.418247 85.451886 
L 325.853733 86.540899 
L 326.289218 87.065775 
L 327.16019 88.627468 
L 327.595675 89.730876 
L 328.031161 90.337695 
L 329.337618 93.176364 
L 329.773103 93.611076 
L 331.07956 95.580863 
L 331.515046 96.794544 
L 332.386017 98.391493 
L 332.821503 99.059604 
L 333.256989 99.188445 
L 334.12796 100.928129 
L 334.998931 101.804146 
L 335.434417 101.748195 
L 335.869902 102.801076 
L 336.305388 103.008523 
L 337.611845 104.278238 
L 338.047331 105.056874 
L 338.482816 105.081073 
L 338.918302 105.847901 
L 339.789273 106.72275 
L 340.224759 107.568142 
L 340.660244 107.979322 
L 341.09573 108.81299 
L 341.966701 109.641902 
L 342.402187 110.268916 
L 342.837673 110.564607 
L 343.273158 111.255832 
L 343.708644 111.623079 
L 344.14413 112.522669 
L 344.579615 113.730551 
L 345.450586 114.467129 
L 345.886072 114.596179 
L 346.321558 115.242344 
L 346.757043 116.10722 
L 347.628015 116.769198 
L 348.0635 117.342055 
L 348.498986 118.122693 
L 348.934472 118.456603 
L 349.369957 119.210789 
L 349.805443 119.502182 
L 350.240929 119.584126 
L 350.676414 119.897299 
L 351.547385 121.053361 
L 351.982871 121.414558 
L 352.853842 122.580633 
L 353.289328 123.099835 
L 353.724814 124.054458 
L 355.031271 126.007346 
L 355.466756 126.644248 
L 356.337728 127.28574 
L 357.208699 128.476808 
L 357.644184 128.728272 
L 358.515156 129.812362 
L 359.386127 131.623893 
L 359.821613 131.903479 
L 360.257098 132.475168 
L 360.692584 132.428021 
L 361.12807 132.73698 
L 361.563555 133.690644 
L 362.870012 134.543629 
L 364.611955 137.085313 
L 365.04744 137.121988 
L 365.482926 137.516187 
L 366.789383 139.856599 
L 367.224869 139.986817 
L 368.09584 140.587712 
L 368.966811 141.872072 
L 369.402297 142.00521 
L 369.837782 142.394194 
L 370.708754 143.751862 
L 371.144239 144.789055 
L 372.015211 146.252407 
L 372.450696 146.393055 
L 372.886182 147.128007 
L 373.321668 148.118971 
L 373.757153 148.227743 
L 374.192639 148.634083 
L 376.370067 152.214796 
L 376.805553 152.287144 
L 377.676524 153.260918 
L 378.982981 154.244622 
L 379.418466 154.651588 
L 379.853952 155.569161 
L 381.160409 156.817264 
L 382.03138 158.339029 
L 382.466866 158.622161 
L 382.902352 159.041353 
L 383.773323 160.392595 
L 384.208809 160.861478 
L 384.644294 160.103204 
L 385.950751 161.049107 
L 386.386237 161.916445 
L 387.257208 162.527855 
L 387.692694 163.496205 
L 388.999151 165.043212 
L 390.305608 166.264528 
L 390.741093 167.253406 
L 391.176579 167.168875 
L 391.612064 167.881505 
L 392.04755 168.259974 
L 392.483036 168.329401 
L 392.483036 168.329401 
" clip-path="url(#p511c0849d5)" style="fill: none; stroke: #9467bd; stroke-opacity: 0.8; stroke-width: 1.5; stroke-linecap: square"/>
   </g>
   <g id="patch_3">
    <path d="M 52.36875 288.430125 
L 52.36875 22.318125 
" style="fill: none; stroke: #000000; stroke-width: 0.8; stroke-linejoin: miter; stroke-linecap: square"/>
   </g>
   <g id="patch_4">
    <path d="M 409.48875 288.430125 
L 409.48875 22.318125 
" style="fill: none; stroke: #000000; stroke-width: 0.8; stroke-linejoin: miter; stroke-linecap: square"/>
   </g>
   <g id="patch_5">
    <path d="M 52.36875 288.430125 
L 409.48875 288.430125 
" style="fill: none; stroke: #000000; stroke-width: 0.8; stroke-linejoin: miter; stroke-linecap: square"/>
   </g>
   <g id="patch_6">
    <path d="M 52.36875 22.318125 
L 409.48875 22.318125 
" style="fill: none; stroke: #000000; stroke-width: 0.8; stroke-linejoin: miter; stroke-linecap: square"/>
   </g>
   <g id="text_20">
    <!-- Create [leaf] -->
    <g transform="translate(193.258125 16.318125) scale(0.12 -0.12)">
     <defs>
      <path id="DejaVuSans-43" d="M 4122 4306 
L 4122 3641 
Q 3803 3938 3442 4084 
Q 3081 4231 2675 4231 
Q 1875 4231 1450 3742 
Q 1025 3253 1025 2328 
Q 1025 1406 1450 917 
Q 1875 428 2675 428 
Q 3081 428 3442 575 
Q 3803 722 4122 1019 
L 4122 359 
Q 3791 134 3420 21 
Q 3050 -91 2638 -91 
Q 1578 -91 968 557 
Q 359 1206 359 2328 
Q 359 3453 968 4101 
Q 1578 4750 2638 4750 
Q 3056 4750 3426 4639 
Q 3797 4528 4122 4306 
z
" transform="scale(0.015625)"/>
      <path id="DejaVuSans-5b" d="M 550 4863 
L 1875 4863 
L 1875 4416 
L 1125 4416 
L 1125 -397 
L 1875 -397 
L 1875 -844 
L 550 -844 
L 550 4863 
z
" transform="scale(0.015625)"/>
      <path id="DejaVuSans-5d" d="M 1947 4863 
L 1947 -844 
L 622 -844 
L 622 -397 
L 1369 -397 
L 1369 4416 
L 622 4416 
L 622 4863 
L 1947 4863 
z
" transform="scale(0.015625)"/>
     </defs>
     <use xlink:href="#DejaVuSans-43"/>
     <use xlink:href="#DejaVuSans-72" transform="translate(69.824219 0)"/>
     <use xlink:href="#DejaVuSans-65" transform="translate(108.6875 0)"/>
     <use xlink:href="#DejaVuSans-61" transform="translate(170.210938 0)"/>
     <use xlink:href="#DejaVuSans-74" transform="translate(231.490234 0)"/>
     <use xlink:href="#DejaVuSans-65" transform="translate(270.699219 0)"/>
     <use xlink:href="#DejaVuSans-20" transform="translate(332.222656 0)"/>
     <use xlink:href="#DejaVuSans-5b" transform="translate(364.009766 0)"/>
     <use xlink:href="#DejaVuSans-6c" transform="translate(403.023438 0)"/>
     <use xlink:href="#DejaVuSans-65" transform="translate(430.806641 0)"/>
     <use xlink:href="#DejaVuSans-61" transform="translate(492.330078 0)"/>
     <use xlink:href="#DejaVuSans-66" transform="translate(553.609375 0)"/>
     <use xlink:href="#DejaVuSans-5d" transform="translate(588.814453 0)"/>
    </g>
   </g>
   <g id="legend_1">
    <g id="patch_7">
     <path d="M 83.371094 365.802375 
L 370.966406 365.802375 
Q 372.966406 365.802375 372.966406 363.802375 
L 372.966406 335.446125 
Q 372.966406 333.446125 370.966406 333.446125 
L 83.371094 333.446125 
Q 81.371094 333.446125 81.371094 335.446125 
L 81.371094 363.802375 
Q 81.371094 365.802375 83.371094 365.802375 
z
" style="fill: #4d4d4d; opacity: 0.5; stroke: #4d4d4d; stroke-linejoin: miter"/>
    </g>
    <g id="patch_8">
     <path d="M 81.371094 363.802375 
L 368.966406 363.802375 
Q 370.966406 363.802375 370.966406 361.802375 
L 370.966406 333.446125 
Q 370.966406 331.446125 368.966406 331.446125 
L 81.371094 331.446125 
Q 79.371094 331.446125 79.371094 333.446125 
L 79.371094 361.802375 
Q 79.371094 363.802375 81.371094 363.802375 
z
" style="fill: #ffffff; stroke: #cccccc; stroke-linejoin: miter"/>
    </g>
    <g id="line2d_23">
     <path d="M 83.371094 339.544562 
L 93.371094 339.544562 
L 103.371094 339.544562 
" style="fill: none; stroke: #1f77b4; stroke-opacity: 0.8; stroke-width: 1.5; stroke-linecap: square"/>
    </g>
    <g id="text_21">
     <!-- MPTT -->
     <g transform="translate(111.371094 343.044562) scale(0.1 -0.1)">
      <defs>
       <path id="DejaVuSans-4d" d="M 628 4666 
L 1569 4666 
L 2759 1491 
L 3956 4666 
L 4897 4666 
L 4897 0 
L 4281 0 
L 4281 4097 
L 3078 897 
L 2444 897 
L 1241 4097 
L 1241 0 
L 628 0 
L 628 4666 
z
" transform="scale(0.015625)"/>
       <path id="DejaVuSans-50" d="M 1259 4147 
L 1259 2394 
L 2053 2394 
Q 2494 2394 2734 2622 
Q 2975 2850 2975 3272 
Q 2975 3691 2734 3919 
Q 2494 4147 2053 4147 
L 1259 4147 
z
M 628 4666 
L 2053 4666 
Q 2838 4666 3239 4311 
Q 3641 3956 3641 3272 
Q 3641 2581 3239 2228 
Q 2838 1875 2053 1875 
L 1259 1875 
L 1259 0 
L 628 0 
L 628 4666 
z
" transform="scale(0.015625)"/>
       <path id="DejaVuSans-54" d="M -19 4666 
L 3928 4666 
L 3928 4134 
L 2272 4134 
L 2272 0 
L 1638 0 
L 1638 4134 
L -19 4134 
L -19 4666 
z
" transform="scale(0.015625)"/>
      </defs>
      <use xlink:href="#DejaVuSans-4d"/>
      <use xlink:href="#DejaVuSans-50" transform="translate(86.279297 0)"/>
      <use xlink:href="#DejaVuSans-54" transform="translate(146.582031 0)"/>
      <use xlink:href="#DejaVuSans-54" transform="translate(205.916016 0)"/>
     </g>
    </g>
    <g id="line2d_24">
     <path d="M 83.371094 354.222687 
L 93.371094 354.222687 
L 103.371094 354.222687 
" style="fill: none; stroke: #ff7f0e; stroke-opacity: 0.8; stroke-width: 1.5; stroke-linecap: square"/>
    </g>
    <g id="text_22">
     <!-- tree -->
     <g transform="translate(111.371094 357.722687) scale(0.1 -0.1)">
      <use xlink:href="#DejaVuSans-74"/>
      <use xlink:href="#DejaVuSans-72" transform="translate(39.208984 0)"/>
      <use xlink:href="#DejaVuSans-65" transform="translate(78.072266 0)"/>
      <use xlink:href="#DejaVuSans-65" transform="translate(139.595703 0)"/>
     </g>
    </g>
    <g id="line2d_25">
     <path d="M 158.069531 339.544562 
L 168.069531 339.544562 
L 178.069531 339.544562 
" style="fill: none; stroke: #2ca02c; stroke-opacity: 0.8; stroke-width: 1.5; stroke-linecap: square"/>
    </g>
    <g id="text_23">
     <!-- treebeard AL -->
     <g transform="translate(186.069531 343.044562) scale(0.1 -0.1)">
      <defs>
       <path id="DejaVuSans-64" d="M 2906 2969 
L 2906 4863 
L 3481 4863 
L 3481 0 
L 2906 0 
L 2906 525 
Q 2725 213 2448 61 
Q 2172 -91 1784 -91 
Q 1150 -91 751 415 
Q 353 922 353 1747 
Q 353 2572 751 3078 
Q 1150 3584 1784 3584 
Q 2172 3584 2448 3432 
Q 2725 3281 2906 2969 
z
M 947 1747 
Q 947 1113 1208 752 
Q 1469 391 1925 391 
Q 2381 391 2643 752 
Q 2906 1113 2906 1747 
Q 2906 2381 2643 2742 
Q 2381 3103 1925 3103 
Q 1469 3103 1208 2742 
Q 947 2381 947 1747 
z
" transform="scale(0.015625)"/>
       <path id="DejaVuSans-4c" d="M 628 4666 
L 1259 4666 
L 1259 531 
L 3531 531 
L 3531 0 
L 628 0 
L 628 4666 
z
" transform="scale(0.015625)"/>
      </defs>
      <use xlink:href="#DejaVuSans-74"/>
      <use xlink:href="#DejaVuSans-72" transform="translate(39.208984 0)"/>
      <use xlink:href="#DejaVuSans-65" transform="translate(78.072266 0)"/>
      <use xlink:href="#DejaVuSans-65" transform="translate(139.595703 0)"/>
      <use xlink:href="#DejaVuSans-62" transform="translate(201.119141 0)"/>
      <use xlink:href="#DejaVuSans-65" transform="translate(264.595703 0)"/>
      <use xlink:href="#DejaVuSans-61" transform="translate(326.119141 0)"/>
      <use xlink:href="#DejaVuSans-72" transform="translate(387.398438 0)"/>
      <use xlink:href="#DejaVuSans-64" transform="translate(426.761719 0)"/>
      <use xlink:href="#DejaVuSans-20" transform="translate(490.238281 0)"/>
      <use xlink:href="#DejaVuSans-41" transform="translate(522.025391 0)"/>
      <use xlink:href="#DejaVuSans-4c" transform="translate(590.433594 0)"/>
     </g>
    </g>
    <g id="line2d_26">
     <path d="M 158.069531 354.222687 
L 168.069531 354.222687 
L 178.069531 354.222687 
" style="fill: none; stroke: #d62728; stroke-opacity: 0.8; stroke-width: 1.5; stroke-linecap: square"/>
    </g>
    <g id="text_24">
     <!-- treebeard MP -->
     <g transform="translate(186.069531 357.722687) scale(0.1 -0.1)">
      <use xlink:href="#DejaVuSans-74"/>
      <use xlink:href="#DejaVuSans-72" transform="translate(39.208984 0)"/>
      <use xlink:href="#DejaVuSans-65" transform="translate(78.072266 0)"/>
      <use xlink:href="#DejaVuSans-65" transform="translate(139.595703 0)"/>
      <use xlink:href="#DejaVuSans-62" transform="translate(201.119141 0)"/>
      <use xlink:href="#DejaVuSans-65" transform="translate(264.595703 0)"/>
      <use xlink:href="#DejaVuSans-61" transform="translate(326.119141 0)"/>
      <use xlink:href="#DejaVuSans-72" transform="translate(387.398438 0)"/>
      <use xlink:href="#DejaVuSans-64" transform="translate(426.761719 0)"/>
      <use xlink:href="#DejaVuSans-20" transform="translate(490.238281 0)"/>
      <use xlink:href="#DejaVuSans-4d" transform="translate(522.025391 0)"/>
      <use xlink:href="#DejaVuSans-50" transform="translate(608.304688 0)"/>
     </g>
    </g>
    <g id="line2d_27">
     <path d="M 272.932031 339.544562 
L 282.932031 339.544562 
L 292.932031 339.544562 
" style="fill: none; stroke: #9467bd; stroke-opacity: 0.8; stroke-width: 1.5; stroke-linecap: square"/>
    </g>
    <g id="text_25">
     <!-- treebeard NS -->
     <g transform="translate(300.932031 343.044562) scale(0.1 -0.1)">
      <defs>
       <path id="DejaVuSans-4e" d="M 628 4666 
L 1478 4666 
L 3547 763 
L 3547 4666 
L 4159 4666 
L 4159 0 
L 3309 0 
L 1241 3903 
L 1241 0 
L 628 0 
L 628 4666 
z
" transform="scale(0.015625)"/>
       <path id="DejaVuSans-53" d="M 3425 4513 
L 3425 3897 
Q 3066 4069 2747 4153 
Q 2428 4238 2131 4238 
Q 1616 4238 1336 4038 
Q 1056 3838 1056 3469 
Q 1056 3159 1242 3001 
Q 1428 2844 1947 2747 
L 2328 2669 
Q 3034 2534 3370 2195 
Q 3706 1856 3706 1288 
Q 3706 609 3251 259 
Q 2797 -91 1919 -91 
Q 1588 -91 1214 -16 
Q 841 59 441 206 
L 441 856 
Q 825 641 1194 531 
Q 1563 422 1919 422 
Q 2459 422 2753 634 
Q 3047 847 3047 1241 
Q 3047 1584 2836 1778 
Q 2625 1972 2144 2069 
L 1759 2144 
Q 1053 2284 737 2584 
Q 422 2884 422 3419 
Q 422 4038 858 4394 
Q 1294 4750 2059 4750 
Q 2388 4750 2728 4690 
Q 3069 4631 3425 4513 
z
" transform="scale(0.015625)"/>
      </defs>
      <use xlink:href="#DejaVuSans-74"/>
      <use xlink:href="#DejaVuSans-72" transform="translate(39.208984 0)"/>
      <use xlink:href="#DejaVuSans-65" transform="translate(78.072266 0)"/>
      <use xlink:href="#DejaVuSans-65" transform="translate(139.595703 0)"/>
      <use xlink:href="#DejaVuSans-62" transform="translate(201.119141 0)"/>
      <use xlink:href="#DejaVuSans-65" transform="translate(264.595703 0)"/>
      <use xlink:href="#DejaVuSans-61" transform="translate(326.119141 0)"/>
      <use xlink:href="#DejaVuSans-72" transform="translate(387.398438 0)"/>
      <use xlink:href="#DejaVuSans-64" transform="translate(426.761719 0)"/>
      <use xlink:href="#DejaVuSans-20" transform="translate(490.238281 0)"/>
      <use xlink:href="#DejaVuSans-4e" transform="translate(522.025391 0)"/>
      <use xlink:href="#DejaVuSans-53" transform="translate(596.830078 0)"/>
     </g>
    </g>
   </g>
  </g>
 </g>
 <defs>
  <clipPath id="p511c0849d5">
   <rect x="52.36875" y="22.318125" width="357.12" height="266.112"/>
  </clipPath>
 </defs>
</svg>
