<?xml version="1.0" encoding="utf-8" standalone="no"?>
<!DOCTYPE svg PUBLIC "-//W3C//DTD SVG 1.1//EN"
  "http://www.w3.org/Graphics/SVG/1.1/DTD/svg11.dtd">
<svg xmlns:xlink="http://www.w3.org/1999/xlink" width="426.035625pt" height="371.002375pt" viewBox="0 0 426.035625 371.002375" xmlns="http://www.w3.org/2000/svg" version="1.1">
 <metadata>
  <rdf:RDF xmlns:dc="http://purl.org/dc/elements/1.1/" xmlns:cc="http://creativecommons.org/ns#" xmlns:rdf="http://www.w3.org/1999/02/22-rdf-syntax-ns#">
   <cc:Work>
    <dc:type rdf:resource="http://purl.org/dc/dcmitype/StillImage"/>
    <dc:date>2026-06-28T20:25:05.640855</dc:date>
    <dc:format>image/svg+xml</dc:format>
    <dc:creator>
     <cc:Agent>
      <dc:title>Matplotlib v3.10.6, https://matplotlib.org/</dc:title>
     </cc:Agent>
    </dc:creator>
   </cc:Work>
  </rdf:RDF>
 </metadata>
 <defs>
  <style type="text/css">*{stroke-linejoin: round; stroke-linecap: butt}</style>
 </defs>
 <g id="figure_1">
  <g id="patch_1">
   <path d="M 0 371.002375 
L 426.035625 371.002375 
L 426.035625 0 
L 0 0 
z
" style="fill: #ffffff"/>
  </g>
  <g id="axes_1">
   <g id="patch_2">
    <path d="M 61.715625 288.430125 
L 418.835625 288.430125 
L 418.835625 22.318125 
L 61.715625 22.318125 
z
" style="fill: #ffffff"/>
   </g>
   <g id="matplotlib.axis_1">
    <g id="xtick_1">
     <g id="line2d_1">
      <defs>
       <path id="m60698f1943" d="M 0 0 
L 0 3.5 
" style="stroke: #000000; stroke-width: 0.8"/>
      </defs>
      <g>
       <use xlink:href="#m60698f1943" x="61.715625" y="288.430125" style="stroke: #000000; stroke-width: 0.8"/>
      </g>
     </g>
     <g id="text_1">
      <!-- 0 -->
      <g transform="translate(58.534375 303.028562) scale(0.1 -0.1)">
       <defs>
        <path id="DejaVuSans-30" d="M 2034 4250 
Q 1547 4250 1301 3770 
Q 1056 3291 1056 2328 
Q 1056 1369 1301 889 
Q 1547 409 2034 409 
Q 2525 409 2770 889 
Q 3016 1369 3016 2328 
Q 3016 3291 2770 3770 
Q 2525 4250 2034 4250 
z
M 2034 4750 
Q 2819 4750 3233 4129 
Q 3647 3509 3647 2328 
Q 3647 1150 3233 529 
Q 2819 -91 2034 -91 
Q 1250 -91 836 529 
Q 422 1150 422 2328 
Q 422 3509 836 4129 
Q 1250 4750 2034 4750 
z
" transform="scale(0.015625)"/>
       </defs>
       <use xlink:href="#DejaVuSans-30"/>
      </g>
     </g>
    </g>
    <g id="xtick_2">
     <g id="line2d_2">
      <g>
       <use xlink:href="#m60698f1943" x="105.264189" y="288.430125" style="stroke: #000000; stroke-width: 0.8"/>
      </g>
     </g>
     <g id="text_2">
      <!-- 500  -->
      <g transform="translate(94.131377 303.028562) scale(0.1 -0.1)">
       <defs>
        <path id="DejaVuSans-35" d="M 691 4666 
L 3169 4666 
L 3169 4134 
L 1269 4134 
L 1269 2991 
Q 1406 3038 1543 3061 
Q 1681 3084 1819 3084 
Q 2600 3084 3056 2656 
Q 3513 2228 3513 1497 
Q 3513 744 3044 326 
Q 2575 -91 1722 -91 
Q 1428 -91 1123 -41 
Q 819 9 494 109 
L 494 744 
Q 775 591 1075 516 
Q 1375 441 1709 441 
Q 2250 441 2565 725 
Q 2881 1009 2881 1497 
Q 2881 1984 2565 2268 
Q 2250 2553 1709 2553 
Q 1456 2553 1204 2497 
Q 953 2441 691 2322 
L 691 4666 
z
" transform="scale(0.015625)"/>
        <path id="DejaVuSans-20" transform="scale(0.015625)"/>
       </defs>
       <use xlink:href="#DejaVuSans-35"/>
       <use xlink:href="#DejaVuSans-30" transform="translate(63.623047 0)"/>
       <use xlink:href="#DejaVuSans-30" transform="translate(127.246094 0)"/>
       <use xlink:href="#DejaVuSans-20" transform="translate(190.869141 0)"/>
      </g>
     </g>
    </g>
    <g id="xtick_3">
     <g id="line2d_3">
      <g>
       <use xlink:href="#m60698f1943" x="148.812753" y="288.430125" style="stroke: #000000; stroke-width: 0.8"/>
      </g>
     </g>
     <g id="text_3">
      <!-- 1 k -->
      <g transform="translate(141.147128 303.028562) scale(0.1 -0.1)">
       <defs>
        <path id="DejaVuSans-31" d="M 794 531 
L 1825 531 
L 1825 4091 
L 703 3866 
L 703 4441 
L 1819 4666 
L 2450 4666 
L 2450 531 
L 3481 531 
L 3481 0 
L 794 0 
L 794 531 
z
" transform="scale(0.015625)"/>
        <path id="DejaVuSans-6b" d="M 581 4863 
L 1159 4863 
L 1159 1991 
L 2875 3500 
L 3609 3500 
L 1753 1863 
L 3688 0 
L 2938 0 
L 1159 1709 
L 1159 0 
L 581 0 
L 581 4863 
z
" transform="scale(0.015625)"/>
       </defs>
       <use xlink:href="#DejaVuSans-31"/>
       <use xlink:href="#DejaVuSans-20" transform="translate(63.623047 0)"/>
       <use xlink:href="#DejaVuSans-6b" transform="translate(95.410156 0)"/>
      </g>
     </g>
    </g>
    <g id="xtick_4">
     <g id="line2d_4">
      <g>
       <use xlink:href="#m60698f1943" x="192.361317" y="288.430125" style="stroke: #000000; stroke-width: 0.8"/>
      </g>
     </g>
     <g id="text_4">
      <!-- 1.5 k -->
      <g transform="translate(179.92538 303.028562) scale(0.1 -0.1)">
       <defs>
        <path id="DejaVuSans-2e" d="M 684 794 
L 1344 794 
L 1344 0 
L 684 0 
L 684 794 
z
" transform="scale(0.015625)"/>
       </defs>
       <use xlink:href="#DejaVuSans-31"/>
       <use xlink:href="#DejaVuSans-2e" transform="translate(63.623047 0)"/>
       <use xlink:href="#DejaVuSans-35" transform="translate(95.410156 0)"/>
       <use xlink:href="#DejaVuSans-20" transform="translate(159.033203 0)"/>
       <use xlink:href="#DejaVuSans-6b" transform="translate(190.820312 0)"/>
      </g>
     </g>
    </g>
    <g id="xtick_5">
     <g id="line2d_5">
      <g>
       <use xlink:href="#m60698f1943" x="235.909881" y="288.430125" style="stroke: #000000; stroke-width: 0.8"/>
      </g>
     </g>
     <g id="text_5">
      <!-- 2 k -->
      <g transform="translate(228.244256 303.028562) scale(0.1 -0.1)">
       <defs>
        <path id="DejaVuSans-32" d="M 1228 531 
L 3431 531 
L 3431 0 
L 469 0 
L 469 531 
Q 828 903 1448 1529 
Q 2069 2156 2228 2338 
Q 2531 2678 2651 2914 
Q 2772 3150 2772 3378 
Q 2772 3750 2511 3984 
Q 2250 4219 1831 4219 
Q 1534 4219 1204 4116 
Q 875 4013 500 3803 
L 500 4441 
Q 881 4594 1212 4672 
Q 1544 4750 1819 4750 
Q 2544 4750 2975 4387 
Q 3406 4025 3406 3419 
Q 3406 3131 3298 2873 
Q 3191 2616 2906 2266 
Q 2828 2175 2409 1742 
Q 1991 1309 1228 531 
z
" transform="scale(0.015625)"/>
       </defs>
       <use xlink:href="#DejaVuSans-32"/>
       <use xlink:href="#DejaVuSans-20" transform="translate(63.623047 0)"/>
       <use xlink:href="#DejaVuSans-6b" transform="translate(95.410156 0)"/>
      </g>
     </g>
    </g>
    <g id="xtick_6">
     <g id="line2d_6">
      <g>
       <use xlink:href="#m60698f1943" x="279.458446" y="288.430125" style="stroke: #000000; stroke-width: 0.8"/>
      </g>
     </g>
     <g id="text_6">
      <!-- 2.5 k -->
      <g transform="translate(267.022508 303.028562) scale(0.1 -0.1)">
       <use xlink:href="#DejaVuSans-32"/>
       <use xlink:href="#DejaVuSans-2e" transform="translate(63.623047 0)"/>
       <use xlink:href="#DejaVuSans-35" transform="translate(95.410156 0)"/>
       <use xlink:href="#DejaVuSans-20" transform="translate(159.033203 0)"/>
       <use xlink:href="#DejaVuSans-6b" transform="translate(190.820312 0)"/>
      </g>
     </g>
    </g>
    <g id="xtick_7">
     <g id="line2d_7">
      <g>
       <use xlink:href="#m60698f1943" x="323.00701" y="288.430125" style="stroke: #000000; stroke-width: 0.8"/>
      </g>
     </g>
     <g id="text_7">
      <!-- 3 k -->
      <g transform="translate(315.341385 303.028562) scale(0.1 -0.1)">
       <defs>
        <path id="DejaVuSans-33" d="M 2597 2516 
Q 3050 2419 3304 2112 
Q 3559 1806 3559 1356 
Q 3559 666 3084 287 
Q 2609 -91 1734 -91 
Q 1441 -91 1130 -33 
Q 819 25 488 141 
L 488 750 
Q 750 597 1062 519 
Q 1375 441 1716 441 
Q 2309 441 2620 675 
Q 2931 909 2931 1356 
Q 2931 1769 2642 2001 
Q 2353 2234 1838 2234 
L 1294 2234 
L 1294 2753 
L 1863 2753 
Q 2328 2753 2575 2939 
Q 2822 3125 2822 3475 
Q 2822 3834 2567 4026 
Q 2313 4219 1838 4219 
Q 1578 4219 1281 4162 
Q 984 4106 628 3988 
L 628 4550 
Q 988 4650 1302 4700 
Q 1616 4750 1894 4750 
Q 2613 4750 3031 4423 
Q 3450 4097 3450 3541 
Q 3450 3153 3228 2886 
Q 3006 2619 2597 2516 
z
" transform="scale(0.015625)"/>
       </defs>
       <use xlink:href="#DejaVuSans-33"/>
       <use xlink:href="#DejaVuSans-20" transform="translate(63.623047 0)"/>
       <use xlink:href="#DejaVuSans-6b" transform="translate(95.410156 0)"/>
      </g>
     </g>
    </g>
    <g id="xtick_8">
     <g id="line2d_8">
      <g>
       <use xlink:href="#m60698f1943" x="366.555574" y="288.430125" style="stroke: #000000; stroke-width: 0.8"/>
      </g>
     </g>
     <g id="text_8">
      <!-- 3.5 k -->
      <g transform="translate(354.119636 303.028562) scale(0.1 -0.1)">
       <use xlink:href="#DejaVuSans-33"/>
       <use xlink:href="#DejaVuSans-2e" transform="translate(63.623047 0)"/>
       <use xlink:href="#DejaVuSans-35" transform="translate(95.410156 0)"/>
       <use xlink:href="#DejaVuSans-20" transform="translate(159.033203 0)"/>
       <use xlink:href="#DejaVuSans-6b" transform="translate(190.820312 0)"/>
      </g>
     </g>
    </g>
    <g id="xtick_9">
     <g id="line2d_9">
      <g>
       <use xlink:href="#m60698f1943" x="410.104138" y="288.430125" style="stroke: #000000; stroke-width: 0.8"/>
      </g>
     </g>
     <g id="text_9">
      <!-- 4 k -->
      <g transform="translate(402.438513 303.028562) scale(0.1 -0.1)">
       <defs>
        <path id="DejaVuSans-34" d="M 2419 4116 
L 825 1625 
L 2419 1625 
L 2419 4116 
z
M 2253 4666 
L 3047 4666 
L 3047 1625 
L 3713 1625 
L 3713 1100 
L 3047 1100 
L 3047 0 
L 2419 0 
L 2419 1100 
L 313 1100 
L 313 1709 
L 2253 4666 
z
" transform="scale(0.015625)"/>
       </defs>
       <use xlink:href="#DejaVuSans-34"/>
       <use xlink:href="#DejaVuSans-20" transform="translate(63.623047 0)"/>
       <use xlink:href="#DejaVuSans-6b" transform="translate(95.410156 0)"/>
      </g>
     </g>
    </g>
    <g id="text_10">
     <!-- Amount of objects in table -->
     <g transform="translate(174.217031 316.706687) scale(0.1 -0.1)">
      <defs>
       <path id="DejaVuSans-41" d="M 2188 4044 
L 1331 1722 
L 3047 1722 
L 2188 4044 
z
M 1831 4666 
L 2547 4666 
L 4325 0 
L 3669 0 
L 3244 1197 
L 1141 1197 
L 716 0 
L 50 0 
L 1831 4666 
z
" transform="scale(0.015625)"/>
       <path id="DejaVuSans-6d" d="M 3328 2828 
Q 3544 3216 3844 3400 
Q 4144 3584 4550 3584 
Q 5097 3584 5394 3201 
Q 5691 2819 5691 2113 
L 5691 0 
L 5113 0 
L 5113 2094 
Q 5113 2597 4934 2840 
Q 4756 3084 4391 3084 
Q 3944 3084 3684 2787 
Q 3425 2491 3425 1978 
L 3425 0 
L 2847 0 
L 2847 2094 
Q 2847 2600 2669 2842 
Q 2491 3084 2119 3084 
Q 1678 3084 1418 2786 
Q 1159 2488 1159 1978 
L 1159 0 
L 581 0 
L 581 3500 
L 1159 3500 
L 1159 2956 
Q 1356 3278 1631 3431 
Q 1906 3584 2284 3584 
Q 2666 3584 2933 3390 
Q 3200 3197 3328 2828 
z
" transform="scale(0.015625)"/>
       <path id="DejaVuSans-6f" d="M 1959 3097 
Q 1497 3097 1228 2736 
Q 959 2375 959 1747 
Q 959 1119 1226 758 
Q 1494 397 1959 397 
Q 2419 397 2687 759 
Q 2956 1122 2956 1747 
Q 2956 2369 2687 2733 
Q 2419 3097 1959 3097 
z
M 1959 3584 
Q 2709 3584 3137 3096 
Q 3566 2609 3566 1747 
Q 3566 888 3137 398 
Q 2709 -91 1959 -91 
Q 1206 -91 779 398 
Q 353 888 353 1747 
Q 353 2609 779 3096 
Q 1206 3584 1959 3584 
z
" transform="scale(0.015625)"/>
       <path id="DejaVuSans-75" d="M 544 1381 
L 544 3500 
L 1119 3500 
L 1119 1403 
Q 1119 906 1312 657 
Q 1506 409 1894 409 
Q 2359 409 2629 706 
Q 2900 1003 2900 1516 
L 2900 3500 
L 3475 3500 
L 3475 0 
L 2900 0 
L 2900 538 
Q 2691 219 2414 64 
Q 2138 -91 1772 -91 
Q 1169 -91 856 284 
Q 544 659 544 1381 
z
M 1991 3584 
L 1991 3584 
z
" transform="scale(0.015625)"/>
       <path id="DejaVuSans-6e" d="M 3513 2113 
L 3513 0 
L 2938 0 
L 2938 2094 
Q 2938 2591 2744 2837 
Q 2550 3084 2163 3084 
Q 1697 3084 1428 2787 
Q 1159 2491 1159 1978 
L 1159 0 
L 581 0 
L 581 3500 
L 1159 3500 
L 1159 2956 
Q 1366 3272 1645 3428 
Q 1925 3584 2291 3584 
Q 2894 3584 3203 3211 
Q 3513 2838 3513 2113 
z
" transform="scale(0.015625)"/>
       <path id="DejaVuSans-74" d="M 1172 4494 
L 1172 3500 
L 2356 3500 
L 2356 3053 
L 1172 3053 
L 1172 1153 
Q 1172 725 1289 603 
Q 1406 481 1766 481 
L 2356 481 
L 2356 0 
L 1766 0 
Q 1100 0 847 248 
Q 594 497 594 1153 
L 594 3053 
L 172 3053 
L 172 3500 
L 594 3500 
L 594 4494 
L 1172 4494 
z
" transform="scale(0.015625)"/>
       <path id="DejaVuSans-66" d="M 2375 4863 
L 2375 4384 
L 1825 4384 
Q 1516 4384 1395 4259 
Q 1275 4134 1275 3809 
L 1275 3500 
L 2222 3500 
L 2222 3053 
L 1275 3053 
L 1275 0 
L 697 0 
L 697 3053 
L 147 3053 
L 147 3500 
L 697 3500 
L 697 3744 
Q 697 4328 969 4595 
Q 1241 4863 1831 4863 
L 2375 4863 
z
" transform="scale(0.015625)"/>
       <path id="DejaVuSans-62" d="M 3116 1747 
Q 3116 2381 2855 2742 
Q 2594 3103 2138 3103 
Q 1681 3103 1420 2742 
Q 1159 2381 1159 1747 
Q 1159 1113 1420 752 
Q 1681 391 2138 391 
Q 2594 391 2855 752 
Q 3116 1113 3116 1747 
z
M 1159 2969 
Q 1341 3281 1617 3432 
Q 1894 3584 2278 3584 
Q 2916 3584 3314 3078 
Q 3713 2572 3713 1747 
Q 3713 922 3314 415 
Q 2916 -91 2278 -91 
Q 1894 -91 1617 61 
Q 1341 213 1159 525 
L 1159 0 
L 581 0 
L 581 4863 
L 1159 4863 
L 1159 2969 
z
" transform="scale(0.015625)"/>
       <path id="DejaVuSans-6a" d="M 603 3500 
L 1178 3500 
L 1178 -63 
Q 1178 -731 923 -1031 
Q 669 -1331 103 -1331 
L -116 -1331 
L -116 -844 
L 38 -844 
Q 366 -844 484 -692 
Q 603 -541 603 -63 
L 603 3500 
z
M 603 4863 
L 1178 4863 
L 1178 4134 
L 603 4134 
L 603 4863 
z
" transform="scale(0.015625)"/>
       <path id="DejaVuSans-65" d="M 3597 1894 
L 3597 1613 
L 953 1613 
Q 991 1019 1311 708 
Q 1631 397 2203 397 
Q 2534 397 2845 478 
Q 3156 559 3463 722 
L 3463 178 
Q 3153 47 2828 -22 
Q 2503 -91 2169 -91 
Q 1331 -91 842 396 
Q 353 884 353 1716 
Q 353 2575 817 3079 
Q 1281 3584 2069 3584 
Q 2775 3584 3186 3129 
Q 3597 2675 3597 1894 
z
M 3022 2063 
Q 3016 2534 2758 2815 
Q 2500 3097 2075 3097 
Q 1594 3097 1305 2825 
Q 1016 2553 972 2059 
L 3022 2063 
z
" transform="scale(0.015625)"/>
       <path id="DejaVuSans-63" d="M 3122 3366 
L 3122 2828 
Q 2878 2963 2633 3030 
Q 2388 3097 2138 3097 
Q 1578 3097 1268 2742 
Q 959 2388 959 1747 
Q 959 1106 1268 751 
Q 1578 397 2138 397 
Q 2388 397 2633 464 
Q 2878 531 3122 666 
L 3122 134 
Q 2881 22 2623 -34 
Q 2366 -91 2075 -91 
Q 1284 -91 818 406 
Q 353 903 353 1747 
Q 353 2603 823 3093 
Q 1294 3584 2113 3584 
Q 2378 3584 2631 3529 
Q 2884 3475 3122 3366 
z
" transform="scale(0.015625)"/>
       <path id="DejaVuSans-73" d="M 2834 3397 
L 2834 2853 
Q 2591 2978 2328 3040 
Q 2066 3103 1784 3103 
Q 1356 3103 1142 2972 
Q 928 2841 928 2578 
Q 928 2378 1081 2264 
Q 1234 2150 1697 2047 
L 1894 2003 
Q 2506 1872 2764 1633 
Q 3022 1394 3022 966 
Q 3022 478 2636 193 
Q 2250 -91 1575 -91 
Q 1294 -91 989 -36 
Q 684 19 347 128 
L 347 722 
Q 666 556 975 473 
Q 1284 391 1588 391 
Q 1994 391 2212 530 
Q 2431 669 2431 922 
Q 2431 1156 2273 1281 
Q 2116 1406 1581 1522 
L 1381 1569 
Q 847 1681 609 1914 
Q 372 2147 372 2553 
Q 372 3047 722 3315 
Q 1072 3584 1716 3584 
Q 2034 3584 2315 3537 
Q 2597 3491 2834 3397 
z
" transform="scale(0.015625)"/>
       <path id="DejaVuSans-69" d="M 603 3500 
L 1178 3500 
L 1178 0 
L 603 0 
L 603 3500 
z
M 603 4863 
L 1178 4863 
L 1178 4134 
L 603 4134 
L 603 4863 
z
" transform="scale(0.015625)"/>
       <path id="DejaVuSans-61" d="M 2194 1759 
Q 1497 1759 1228 1600 
Q 959 1441 959 1056 
Q 959 750 1161 570 
Q 1363 391 1709 391 
Q 2188 391 2477 730 
Q 2766 1069 2766 1631 
L 2766 1759 
L 2194 1759 
z
M 3341 1997 
L 3341 0 
L 2766 0 
L 2766 531 
Q 2569 213 2275 61 
Q 1981 -91 1556 -91 
Q 1019 -91 701 211 
Q 384 513 384 1019 
Q 384 1609 779 1909 
Q 1175 2209 1959 2209 
L 2766 2209 
L 2766 2266 
Q 2766 2663 2505 2880 
Q 2244 3097 1772 3097 
Q 1472 3097 1187 3025 
Q 903 2953 641 2809 
L 641 3341 
Q 956 3463 1253 3523 
Q 1550 3584 1831 3584 
Q 2591 3584 2966 3190 
Q 3341 2797 3341 1997 
z
" transform="scale(0.015625)"/>
       <path id="DejaVuSans-6c" d="M 603 4863 
L 1178 4863 
L 1178 0 
L 603 0 
L 603 4863 
z
" transform="scale(0.015625)"/>
      </defs>
      <use xlink:href="#DejaVuSans-41"/>
      <use xlink:href="#DejaVuSans-6d" transform="translate(68.408203 0)"/>
      <use xlink:href="#DejaVuSans-6f" transform="translate(165.820312 0)"/>
      <use xlink:href="#DejaVuSans-75" transform="translate(227.001953 0)"/>
      <use xlink:href="#DejaVuSans-6e" transform="translate(290.380859 0)"/>
      <use xlink:href="#DejaVuSans-74" transform="translate(353.759766 0)"/>
      <use xlink:href="#DejaVuSans-20" transform="translate(392.96875 0)"/>
      <use xlink:href="#DejaVuSans-6f" transform="translate(424.755859 0)"/>
      <use xlink:href="#DejaVuSans-66" transform="translate(485.9375 0)"/>
      <use xlink:href="#DejaVuSans-20" transform="translate(521.142578 0)"/>
      <use xlink:href="#DejaVuSans-6f" transform="translate(552.929688 0)"/>
      <use xlink:href="#DejaVuSans-62" transform="translate(614.111328 0)"/>
      <use xlink:href="#DejaVuSans-6a" transform="translate(677.587891 0)"/>
      <use xlink:href="#DejaVuSans-65" transform="translate(705.371094 0)"/>
      <use xlink:href="#DejaVuSans-63" transform="translate(766.894531 0)"/>
      <use xlink:href="#DejaVuSans-74" transform="translate(821.875 0)"/>
      <use xlink:href="#DejaVuSans-73" transform="translate(861.083984 0)"/>
      <use xlink:href="#DejaVuSans-20" transform="translate(913.183594 0)"/>
      <use xlink:href="#DejaVuSans-69" transform="translate(944.970703 0)"/>
      <use xlink:href="#DejaVuSans-6e" transform="translate(972.753906 0)"/>
      <use xlink:href="#DejaVuSans-20" transform="translate(1036.132812 0)"/>
      <use xlink:href="#DejaVuSans-74" transform="translate(1067.919922 0)"/>
      <use xlink:href="#DejaVuSans-61" transform="translate(1107.128906 0)"/>
      <use xlink:href="#DejaVuSans-62" transform="translate(1168.408203 0)"/>
      <use xlink:href="#DejaVuSans-6c" transform="translate(1231.884766 0)"/>
      <use xlink:href="#DejaVuSans-65" transform="translate(1259.667969 0)"/>
     </g>
    </g>
   </g>
   <g id="matplotlib.axis_2">
    <g id="ytick_1">
     <g id="line2d_10">
      <defs>
       <path id="m2a4eac1bd3" d="M 0 0 
L -3.5 0 
" style="stroke: #000000; stroke-width: 0.8"/>
      </defs>
      <g>
       <use xlink:href="#m2a4eac1bd3" x="61.715625" y="288.430125" style="stroke: #000000; stroke-width: 0.8"/>
      </g>
     </g>
     <g id="text_11">
      <!-- 0 -->
      <g transform="translate(48.353125 292.229344) scale(0.1 -0.1)">
       <use xlink:href="#DejaVuSans-30"/>
      </g>
     </g>
    </g>
    <g id="ytick_2">
     <g id="line2d_11">
      <g>
       <use xlink:href="#m2a4eac1bd3" x="61.715625" y="256.024038" style="stroke: #000000; stroke-width: 0.8"/>
      </g>
     </g>
     <g id="text_12">
      <!-- 100 µs -->
      <g transform="translate(20.878125 259.823257) scale(0.1 -0.1)">
       <defs>
        <path id="DejaVuSans-b5" d="M 544 -1331 
L 544 3500 
L 1119 3500 
L 1119 1325 
Q 1119 872 1334 640 
Q 1550 409 1972 409 
Q 2434 409 2667 671 
Q 2900 934 2900 1459 
L 2900 3500 
L 3475 3500 
L 3475 806 
Q 3475 619 3529 530 
Q 3584 441 3700 441 
Q 3728 441 3778 458 
Q 3828 475 3916 513 
L 3916 50 
Q 3788 -22 3673 -56 
Q 3559 -91 3450 -91 
Q 3234 -91 3106 31 
Q 2978 153 2931 403 
Q 2775 156 2548 32 
Q 2322 -91 2016 -91 
Q 1697 -91 1473 31 
Q 1250 153 1119 397 
L 1119 -1331 
L 544 -1331 
z
" transform="scale(0.015625)"/>
       </defs>
       <use xlink:href="#DejaVuSans-31"/>
       <use xlink:href="#DejaVuSans-30" transform="translate(63.623047 0)"/>
       <use xlink:href="#DejaVuSans-30" transform="translate(127.246094 0)"/>
       <use xlink:href="#DejaVuSans-20" transform="translate(190.869141 0)"/>
       <use xlink:href="#DejaVuSans-b5" transform="translate(222.65625 0)"/>
       <use xlink:href="#DejaVuSans-73" transform="translate(286.279297 0)"/>
      </g>
     </g>
    </g>
    <g id="ytick_3">
     <g id="line2d_12">
      <g>
       <use xlink:href="#m2a4eac1bd3" x="61.715625" y="223.617951" style="stroke: #000000; stroke-width: 0.8"/>
      </g>
     </g>
     <g id="text_13">
      <!-- 200 µs -->
      <g transform="translate(20.878125 227.41717) scale(0.1 -0.1)">
       <use xlink:href="#DejaVuSans-32"/>
       <use xlink:href="#DejaVuSans-30" transform="translate(63.623047 0)"/>
       <use xlink:href="#DejaVuSans-30" transform="translate(127.246094 0)"/>
       <use xlink:href="#DejaVuSans-20" transform="translate(190.869141 0)"/>
       <use xlink:href="#DejaVuSans-b5" transform="translate(222.65625 0)"/>
       <use xlink:href="#DejaVuSans-73" transform="translate(286.279297 0)"/>
      </g>
     </g>
    </g>
    <g id="ytick_4">
     <g id="line2d_13">
      <g>
       <use xlink:href="#m2a4eac1bd3" x="61.715625" y="191.211864" style="stroke: #000000; stroke-width: 0.8"/>
      </g>
     </g>
     <g id="text_14">
      <!-- 300 µs -->
      <g transform="translate(20.878125 195.011083) scale(0.1 -0.1)">
       <use xlink:href="#DejaVuSans-33"/>
       <use xlink:href="#DejaVuSans-30" transform="translate(63.623047 0)"/>
       <use xlink:href="#DejaVuSans-30" transform="translate(127.246094 0)"/>
       <use xlink:href="#DejaVuSans-20" transform="translate(190.869141 0)"/>
       <use xlink:href="#DejaVuSans-b5" transform="translate(222.65625 0)"/>
       <use xlink:href="#DejaVuSans-73" transform="translate(286.279297 0)"/>
      </g>
     </g>
    </g>
    <g id="ytick_5">
     <g id="line2d_14">
      <g>
       <use xlink:href="#m2a4eac1bd3" x="61.715625" y="158.805777" style="stroke: #000000; stroke-width: 0.8"/>
      </g>
     </g>
     <g id="text_15">
      <!-- 400 µs -->
      <g transform="translate(20.878125 162.604996) scale(0.1 -0.1)">
       <use xlink:href="#DejaVuSans-34"/>
       <use xlink:href="#DejaVuSans-30" transform="translate(63.623047 0)"/>
       <use xlink:href="#DejaVuSans-30" transform="translate(127.246094 0)"/>
       <use xlink:href="#DejaVuSans-20" transform="translate(190.869141 0)"/>
       <use xlink:href="#DejaVuSans-b5" transform="translate(222.65625 0)"/>
       <use xlink:href="#DejaVuSans-73" transform="translate(286.279297 0)"/>
      </g>
     </g>
    </g>
    <g id="ytick_6">
     <g id="line2d_15">
      <g>
       <use xlink:href="#m2a4eac1bd3" x="61.715625" y="126.39969" style="stroke: #000000; stroke-width: 0.8"/>
      </g>
     </g>
     <g id="text_16">
      <!-- 500 µs -->
      <g transform="translate(20.878125 130.198909) scale(0.1 -0.1)">
       <use xlink:href="#DejaVuSans-35"/>
       <use xlink:href="#DejaVuSans-30" transform="translate(63.623047 0)"/>
       <use xlink:href="#DejaVuSans-30" transform="translate(127.246094 0)"/>
       <use xlink:href="#DejaVuSans-20" transform="translate(190.869141 0)"/>
       <use xlink:href="#DejaVuSans-b5" transform="translate(222.65625 0)"/>
       <use xlink:href="#DejaVuSans-73" transform="translate(286.279297 0)"/>
      </g>
     </g>
    </g>
    <g id="ytick_7">
     <g id="line2d_16">
      <g>
       <use xlink:href="#m2a4eac1bd3" x="61.715625" y="93.993603" style="stroke: #000000; stroke-width: 0.8"/>
      </g>
     </g>
     <g id="text_17">
      <!-- 600 µs -->
      <g transform="translate(20.878125 97.792822) scale(0.1 -0.1)">
       <defs>
        <path id="DejaVuSans-36" d="M 2113 2584 
Q 1688 2584 1439 2293 
Q 1191 2003 1191 1497 
Q 1191 994 1439 701 
Q 1688 409 2113 409 
Q 2538 409 2786 701 
Q 3034 994 3034 1497 
Q 3034 2003 2786 2293 
Q 2538 2584 2113 2584 
z
M 3366 4563 
L 3366 3988 
Q 3128 4100 2886 4159 
Q 2644 4219 2406 4219 
Q 1781 4219 1451 3797 
Q 1122 3375 1075 2522 
Q 1259 2794 1537 2939 
Q 1816 3084 2150 3084 
Q 2853 3084 3261 2657 
Q 3669 2231 3669 1497 
Q 3669 778 3244 343 
Q 2819 -91 2113 -91 
Q 1303 -91 875 529 
Q 447 1150 447 2328 
Q 447 3434 972 4092 
Q 1497 4750 2381 4750 
Q 2619 4750 2861 4703 
Q 3103 4656 3366 4563 
z
" transform="scale(0.015625)"/>
       </defs>
       <use xlink:href="#DejaVuSans-36"/>
       <use xlink:href="#DejaVuSans-30" transform="translate(63.623047 0)"/>
       <use xlink:href="#DejaVuSans-30" transform="translate(127.246094 0)"/>
       <use xlink:href="#DejaVuSans-20" transform="translate(190.869141 0)"/>
       <use xlink:href="#DejaVuSans-b5" transform="translate(222.65625 0)"/>
       <use xlink:href="#DejaVuSans-73" transform="translate(286.279297 0)"/>
      </g>
     </g>
    </g>
    <g id="ytick_8">
     <g id="line2d_17">
      <g>
       <use xlink:href="#m2a4eac1bd3" x="61.715625" y="61.587516" style="stroke: #000000; stroke-width: 0.8"/>
      </g>
     </g>
     <g id="text_18">
      <!-- 700 µs -->
      <g transform="translate(20.878125 65.386735) scale(0.1 -0.1)">
       <defs>
        <path id="DejaVuSans-37" d="M 525 4666 
L 3525 4666 
L 3525 4397 
L 1831 0 
L 1172 0 
L 2766 4134 
L 525 4134 
L 525 4666 
z
" transform="scale(0.015625)"/>
       </defs>
       <use xlink:href="#DejaVuSans-37"/>
       <use xlink:href="#DejaVuSans-30" transform="translate(63.623047 0)"/>
       <use xlink:href="#DejaVuSans-30" transform="translate(127.246094 0)"/>
       <use xlink:href="#DejaVuSans-20" transform="translate(190.869141 0)"/>
       <use xlink:href="#DejaVuSans-b5" transform="translate(222.65625 0)"/>
       <use xlink:href="#DejaVuSans-73" transform="translate(286.279297 0)"/>
      </g>
     </g>
    </g>
    <g id="ytick_9">
     <g id="line2d_18">
      <g>
       <use xlink:href="#m2a4eac1bd3" x="61.715625" y="29.18143" style="stroke: #000000; stroke-width: 0.8"/>
      </g>
     </g>
     <g id="text_19">
      <!-- 800 µs -->
      <g transform="translate(20.878125 32.980648) scale(0.1 -0.1)">
       <defs>
        <path id="DejaVuSans-38" d="M 2034 2216 
Q 1584 2216 1326 1975 
Q 1069 1734 1069 1313 
Q 1069 891 1326 650 
Q 1584 409 2034 409 
Q 2484 409 2743 651 
Q 3003 894 3003 1313 
Q 3003 1734 2745 1975 
Q 2488 2216 2034 2216 
z
M 1403 2484 
Q 997 2584 770 2862 
Q 544 3141 544 3541 
Q 544 4100 942 4425 
Q 1341 4750 2034 4750 
Q 2731 4750 3128 4425 
Q 3525 4100 3525 3541 
Q 3525 3141 3298 2862 
Q 3072 2584 2669 2484 
Q 3125 2378 3379 2068 
Q 3634 1759 3634 1313 
Q 3634 634 3220 271 
Q 2806 -91 2034 -91 
Q 1263 -91 848 271 
Q 434 634 434 1313 
Q 434 1759 690 2068 
Q 947 2378 1403 2484 
z
M 1172 3481 
Q 1172 3119 1398 2916 
Q 1625 2713 2034 2713 
Q 2441 2713 2670 2916 
Q 2900 3119 2900 3481 
Q 2900 3844 2670 4047 
Q 2441 4250 2034 4250 
Q 1625 4250 1398 4047 
Q 1172 3844 1172 3481 
z
" transform="scale(0.015625)"/>
       </defs>
       <use xlink:href="#DejaVuSans-38"/>
       <use xlink:href="#DejaVuSans-30" transform="translate(63.623047 0)"/>
       <use xlink:href="#DejaVuSans-30" transform="translate(127.246094 0)"/>
       <use xlink:href="#DejaVuSans-20" transform="translate(190.869141 0)"/>
       <use xlink:href="#DejaVuSans-b5" transform="translate(222.65625 0)"/>
       <use xlink:href="#DejaVuSans-73" transform="translate(286.279297 0)"/>
      </g>
     </g>
    </g>
    <g id="text_20">
     <!-- Read latency (s) -->
     <g transform="translate(14.798438 195.98975) rotate(-90) scale(0.1 -0.1)">
      <defs>
       <path id="DejaVuSans-52" d="M 2841 2188 
Q 3044 2119 3236 1894 
Q 3428 1669 3622 1275 
L 4263 0 
L 3584 0 
L 2988 1197 
Q 2756 1666 2539 1819 
Q 2322 1972 1947 1972 
L 1259 1972 
L 1259 0 
L 628 0 
L 628 4666 
L 2053 4666 
Q 2853 4666 3247 4331 
Q 3641 3997 3641 3322 
Q 3641 2881 3436 2590 
Q 3231 2300 2841 2188 
z
M 1259 4147 
L 1259 2491 
L 2053 2491 
Q 2509 2491 2742 2702 
Q 2975 2913 2975 3322 
Q 2975 3731 2742 3939 
Q 2509 4147 2053 4147 
L 1259 4147 
z
" transform="scale(0.015625)"/>
       <path id="DejaVuSans-64" d="M 2906 2969 
L 2906 4863 
L 3481 4863 
L 3481 0 
L 2906 0 
L 2906 525 
Q 2725 213 2448 61 
Q 2172 -91 1784 -91 
Q 1150 -91 751 415 
Q 353 922 353 1747 
Q 353 2572 751 3078 
Q 1150 3584 1784 3584 
Q 2172 3584 2448 3432 
Q 2725 3281 2906 2969 
z
M 947 1747 
Q 947 1113 1208 752 
Q 1469 391 1925 391 
Q 2381 391 2643 752 
Q 2906 1113 2906 1747 
Q 2906 2381 2643 2742 
Q 2381 3103 1925 3103 
Q 1469 3103 1208 2742 
Q 947 2381 947 1747 
z
" transform="scale(0.015625)"/>
       <path id="DejaVuSans-79" d="M 2059 -325 
Q 1816 -950 1584 -1140 
Q 1353 -1331 966 -1331 
L 506 -1331 
L 506 -850 
L 844 -850 
Q 1081 -850 1212 -737 
Q 1344 -625 1503 -206 
L 1606 56 
L 191 3500 
L 800 3500 
L 1894 763 
L 2988 3500 
L 3597 3500 
L 2059 -325 
z
" transform="scale(0.015625)"/>
       <path id="DejaVuSans-28" d="M 1984 4856 
Q 1566 4138 1362 3434 
Q 1159 2731 1159 2009 
Q 1159 1288 1364 580 
Q 1569 -128 1984 -844 
L 1484 -844 
Q 1016 -109 783 600 
Q 550 1309 550 2009 
Q 550 2706 781 3412 
Q 1013 4119 1484 4856 
L 1984 4856 
z
" transform="scale(0.015625)"/>
       <path id="DejaVuSans-29" d="M 513 4856 
L 1013 4856 
Q 1481 4119 1714 3412 
Q 1947 2706 1947 2009 
Q 1947 1309 1714 600 
Q 1481 -109 1013 -844 
L 513 -844 
Q 928 -128 1133 580 
Q 1338 1288 1338 2009 
Q 1338 2731 1133 3434 
Q 928 4138 513 4856 
z
" transform="scale(0.015625)"/>
      </defs>
      <use xlink:href="#DejaVuSans-52"/>
      <use xlink:href="#DejaVuSans-65" transform="translate(64.982422 0)"/>
      <use xlink:href="#DejaVuSans-61" transform="translate(126.505859 0)"/>
      <use xlink:href="#DejaVuSans-64" transform="translate(187.785156 0)"/>
      <use xlink:href="#DejaVuSans-20" transform="translate(251.261719 0)"/>
      <use xlink:href="#DejaVuSans-6c" transform="translate(283.048828 0)"/>
      <use xlink:href="#DejaVuSans-61" transform="translate(310.832031 0)"/>
      <use xlink:href="#DejaVuSans-74" transform="translate(372.111328 0)"/>
      <use xlink:href="#DejaVuSans-65" transform="translate(411.320312 0)"/>
      <use xlink:href="#DejaVuSans-6e" transform="translate(472.84375 0)"/>
      <use xlink:href="#DejaVuSans-63" transform="translate(536.222656 0)"/>
      <use xlink:href="#DejaVuSans-79" transform="translate(591.203125 0)"/>
      <use xlink:href="#DejaVuSans-20" transform="translate(650.382812 0)"/>
      <use xlink:href="#DejaVuSans-28" transform="translate(682.169922 0)"/>
      <use xlink:href="#DejaVuSans-73" transform="translate(721.183594 0)"/>
      <use xlink:href="#DejaVuSans-29" transform="translate(773.283203 0)"/>
     </g>
    </g>
   </g>
   <g id="line2d_19">
    <path d="M 147.070811 159.411478 
L 147.941782 160.349717 
L 148.812753 161.252297 
L 150.554696 163.8907 
L 150.990181 164.744149 
L 151.425667 165.123724 
L 153.16761 167.974499 
L 153.603095 168.472939 
L 154.038581 168.778421 
L 154.909552 169.986088 
L 155.345038 170.303061 
L 156.216009 170.495622 
L 156.651495 170.217874 
L 158.393437 170.039973 
L 159.699894 169.666342 
L 160.13538 168.001046 
L 161.441837 167.319554 
L 161.877322 167.08539 
L 162.312808 167.004958 
L 162.748294 167.106786 
L 163.183779 166.933243 
L 163.619265 166.237884 
L 164.054751 166.104359 
L 164.925722 165.510035 
L 165.361208 165.334115 
L 166.232179 165.256061 
L 167.538636 165.723199 
L 167.974121 165.65822 
L 168.845093 165.666937 
L 170.15155 165.642768 
L 170.587035 165.474772 
L 171.458007 164.933937 
L 172.328978 164.513552 
L 172.764463 164.694622 
L 173.199949 164.658171 
L 173.635435 164.322972 
L 174.506406 164.202918 
L 175.377377 163.839588 
L 175.812863 164.065035 
L 177.554806 164.146259 
L 177.990291 163.900605 
L 178.425777 163.431486 
L 179.296748 163.325696 
L 179.732234 163.046364 
L 181.038691 162.881142 
L 181.474176 163.001195 
L 182.345148 162.733353 
L 182.780633 162.868859 
L 183.216119 162.028088 
L 184.08709 161.61959 
L 184.522576 161.615231 
L 184.958061 161.434161 
L 185.829033 161.406029 
L 186.264518 161.144527 
L 186.700004 161.218619 
L 188.006461 160.82161 
L 188.441947 162.331194 
L 190.183889 162.421135 
L 190.619375 161.636627 
L 191.05486 161.439708 
L 191.490346 160.930174 
L 191.925832 161.073604 
L 192.796803 161.034379 
L 193.232289 160.880647 
L 193.667774 161.033586 
L 194.10326 160.996342 
L 194.538746 161.110848 
L 194.974231 161.035963 
L 195.409717 161.309352 
L 195.845202 161.316881 
L 196.280688 161.681399 
L 196.716174 161.606514 
L 197.151659 161.829584 
L 197.587145 161.629099 
L 198.022631 161.553818 
L 198.893602 161.839093 
L 199.329088 159.774015 
L 199.764573 160.621918 
L 200.200059 161.211883 
L 201.942001 161.037548 
L 202.812973 160.673029 
L 203.248458 160.604484 
L 203.683944 160.326737 
L 204.990401 160.085045 
L 205.861372 159.785505 
L 207.167829 159.783128 
L 208.0388 159.666244 
L 208.474286 159.680904 
L 208.909772 160.413112 
L 209.780743 160.468978 
L 210.651714 159.966576 
L 211.0872 159.985198 
L 211.958171 159.592152 
L 212.829142 159.147598 
L 213.264628 159.156711 
L 214.135599 158.627762 
L 215.006571 158.456993 
L 215.877542 158.001345 
L 216.748513 157.954591 
L 218.490456 157.121349 
L 220.667884 157.221195 
L 221.538855 156.873317 
L 223.280798 156.655002 
L 223.716283 156.473139 
L 224.151769 157.884065 
L 224.587255 157.881291 
L 225.02274 158.048098 
L 225.458226 158.083361 
L 226.329197 157.57145 
L 227.635654 157.544507 
L 228.07114 157.569469 
L 228.506626 157.759653 
L 228.942111 157.529055 
L 229.377597 157.517565 
L 230.248568 157.089255 
L 230.684054 157.068652 
L 231.555025 157.186328 
L 233.732453 157.314306 
L 235.03891 156.754849 
L 235.474396 156.738208 
L 236.345367 157.104708 
L 236.780853 156.094753 
L 238.08731 155.969549 
L 238.958281 156.28454 
L 239.393767 155.880004 
L 240.264738 155.519051 
L 240.700224 155.598294 
L 241.135709 155.37879 
L 241.571195 155.52856 
L 243.313137 154.527322 
L 243.748623 154.396967 
L 244.184109 153.957167 
L 244.619594 153.919527 
L 245.05508 155.351848 
L 248.103479 154.653319 
L 248.538965 155.108967 
L 248.974451 154.816956 
L 249.409936 154.948896 
L 250.280908 154.686205 
L 250.716393 154.335157 
L 251.587365 154.081975 
L 252.458336 153.533216 
L 252.893821 153.511028 
L 253.329307 153.716664 
L 253.764793 153.478934 
L 254.200278 153.452784 
L 254.635764 153.580366 
L 255.07125 153.399295 
L 255.506735 153.43337 
L 255.942221 153.871585 
L 256.377707 153.757871 
L 257.248678 154.091484 
L 257.684164 153.83434 
L 258.119649 154.007487 
L 258.555135 153.913583 
L 259.426106 154.191331 
L 260.297077 153.953601 
L 260.732563 153.639402 
L 261.168049 152.683729 
L 261.603534 152.369926 
L 262.909991 152.245514 
L 263.345477 152.367945 
L 263.780962 152.050972 
L 264.216448 151.901202 
L 264.651934 151.934088 
L 265.958391 151.605229 
L 266.393876 151.378197 
L 266.829362 151.444365 
L 267.264848 151.30252 
L 267.700333 150.940378 
L 268.135819 151.511325 
L 268.571305 151.145222 
L 269.00679 151.084601 
L 269.442276 151.186428 
L 270.313247 151.009716 
L 270.748733 150.948699 
L 271.184218 151.173749 
L 271.619704 151.143637 
L 272.05519 151.352443 
L 273.361647 151.319557 
L 274.232618 151.585418 
L 275.103589 151.225654 
L 275.539075 151.886146 
L 275.97456 152.10248 
L 276.410046 152.610429 
L 276.845532 152.378642 
L 279.02296 152.025614 
L 280.764902 150.949491 
L 281.200388 150.881342 
L 281.635874 151.069545 
L 282.071359 151.014471 
L 282.506845 151.201088 
L 282.942331 151.155127 
L 283.813302 150.576652 
L 284.248788 152.346153 
L 284.684273 152.139328 
L 285.119759 152.223326 
L 285.555245 151.669416 
L 285.99073 151.379782 
L 286.426216 151.529155 
L 286.861701 150.281075 
L 288.168158 150.107136 
L 289.474615 150.169738 
L 291.652044 150.122984 
L 292.523015 145.241603 
L 292.9585 143.973315 
L 293.393986 143.913882 
L 294.264957 143.423367 
L 294.700443 143.100451 
L 295.571414 143.301332 
L 296.0069 143.075093 
L 296.442386 143.18326 
L 296.877871 143.134129 
L 297.748842 143.592947 
L 298.184328 143.358784 
L 298.619814 143.633362 
L 300.361756 143.850884 
L 300.797242 144.029181 
L 301.668213 143.655946 
L 302.103699 143.819583 
L 302.539185 143.758962 
L 302.97467 143.528364 
L 304.281127 143.556496 
L 304.716613 143.332634 
L 305.152098 143.291823 
L 307.329527 144.015314 
L 308.635984 143.988371 
L 309.071469 143.757773 
L 309.506955 143.867921 
L 309.94244 143.848507 
L 310.813412 144.401228 
L 311.248897 144.43768 
L 311.684383 144.619543 
L 312.119869 144.562092 
L 312.555354 144.329117 
L 312.99084 144.430944 
L 313.426326 144.1948 
L 313.861811 144.465811 
L 315.168268 144.623505 
L 315.603754 144.454321 
L 316.039239 144.16231 
L 317.781182 144.31208 
L 318.216668 144.239968 
L 318.652153 144.3937 
L 319.523125 144.245912 
L 319.95861 144.301778 
L 320.394096 144.192819 
L 320.829581 143.91626 
L 321.265067 143.910713 
L 321.700553 144.854896 
L 322.571524 144.814085 
L 323.00701 145.04706 
L 323.442495 144.907989 
L 324.748952 145.278847 
L 325.184438 144.982873 
L 326.92638 144.817255 
L 327.361866 144.838651 
L 327.797352 145.134228 
L 328.668323 145.180189 
L 329.103809 145.62514 
L 329.97478 145.443673 
L 330.410266 145.454371 
L 330.845751 145.888227 
L 331.281237 145.959942 
L 331.716722 146.23135 
L 332.152208 146.293952 
L 333.458665 145.920321 
L 333.894151 146.079996 
L 334.329636 145.871586 
L 334.765122 145.904076 
L 335.636093 146.48057 
L 336.071579 146.298311 
L 336.507065 146.271764 
L 337.378036 146.386667 
L 337.813521 146.369233 
L 338.249007 146.158446 
L 338.684493 146.397761 
L 339.555464 146.021752 
L 340.426435 145.901302 
L 340.861921 145.535199 
L 342.603864 145.705175 
L 343.039349 145.484879 
L 343.474835 145.638215 
L 343.91032 145.455559 
L 344.781292 145.486464 
L 345.652263 145.948452 
L 346.087749 146.893031 
L 346.95872 147.429111 
L 347.829691 147.493298 
L 348.700662 148.006002 
L 349.136148 147.9434 
L 350.442605 148.460462 
L 350.878091 148.40618 
L 351.313576 148.610628 
L 352.184548 148.658966 
L 352.620033 147.580862 
L 353.055519 147.465563 
L 353.491005 147.975493 
L 353.92649 148.24809 
L 354.361976 148.08366 
L 354.797461 148.13398 
L 355.232947 147.936664 
L 355.668433 147.904571 
L 356.97489 147.085988 
L 359.587804 146.654113 
L 360.458775 146.752374 
L 361.329746 146.505136 
L 362.200717 146.608152 
L 363.071689 146.754355 
L 363.507174 146.536833 
L 363.94266 146.702451 
L 366.120088 146.821712 
L 367.426545 146.064543 
L 367.862031 146.020167 
L 370.039459 146.543172 
L 370.474945 147.072121 
L 370.91043 147.136308 
L 371.345916 147.00516 
L 371.781401 148.014323 
L 373.087858 147.912495 
L 373.523344 148.084453 
L 373.95883 147.974701 
L 374.829801 148.02502 
L 375.265287 146.250765 
L 376.136258 146.339121 
L 376.571744 146.095844 
L 377.442715 150.756534 
L 377.8782 151.238729 
L 378.313686 151.286275 
L 378.749172 150.99466 
L 380.055629 151.13492 
L 380.491114 150.924926 
L 382.668543 150.817155 
L 383.104028 150.954246 
L 383.539514 150.731968 
L 383.974999 150.731176 
L 384.410485 150.947906 
L 384.845971 150.747421 
L 385.281456 150.772779 
L 385.716942 150.498993 
L 386.152428 150.766835 
L 386.587913 150.889266 
L 387.023399 150.752175 
L 387.89437 151.132147 
L 388.765341 151.20822 
L 389.200827 150.934831 
L 390.071798 150.984358 
L 390.507284 150.776741 
L 390.94277 150.731968 
L 391.378255 150.298904 
L 391.813741 150.259679 
L 392.249227 150.017591 
L 393.120198 150.384883 
L 393.555684 148.995353 
L 394.426655 148.974354 
L 395.733112 148.213223 
L 396.168597 148.142697 
L 396.604083 147.954098 
L 397.039569 148.001247 
L 397.475054 148.164488 
L 397.91054 147.299945 
L 398.346026 147.458431 
L 398.781511 145.790758 
L 400.523454 145.993621 
L 400.958939 145.746778 
L 401.829911 145.469031 
L 401.829911 145.469031 
" clip-path="url(#p2f6f98aba4)" style="fill: none; stroke: #1f77b4; stroke-opacity: 0.8; stroke-width: 1.5; stroke-linecap: square"/>
   </g>
   <g id="line2d_20">
    <path d="M 147.070811 210.499576 
L 147.506296 210.328807 
L 148.377268 210.371599 
L 149.683725 209.909215 
L 150.554696 210.016589 
L 150.990181 209.911988 
L 154.909552 210.591499 
L 155.345038 210.550292 
L 155.780523 210.156057 
L 156.216009 210.276507 
L 158.393437 210.086323 
L 160.13538 210.393391 
L 160.570866 210.401315 
L 161.877322 210.123171 
L 162.312808 210.175472 
L 162.748294 210.104549 
L 164.054751 210.348618 
L 164.490236 210.44688 
L 165.361208 210.299487 
L 167.10315 210.076814 
L 167.538636 210.092663 
L 170.15155 209.429397 
L 171.893492 209.459906 
L 172.328978 209.307362 
L 174.941892 209.235647 
L 175.812863 209.463471 
L 176.248349 209.508244 
L 176.683834 209.433359 
L 177.11932 209.584714 
L 178.861262 209.520923 
L 179.296748 210.011042 
L 179.732234 209.988062 
L 180.167719 209.168687 
L 180.603205 209.167498 
L 181.038691 209.041501 
L 181.474176 209.032388 
L 181.909662 208.904014 
L 186.264518 209.050218 
L 187.13549 209.450793 
L 188.441947 209.881479 
L 188.877432 210.28879 
L 189.312918 210.449257 
L 189.748403 210.00391 
L 190.619375 210.324845 
L 191.05486 210.344656 
L 193.667774 209.619581 
L 194.10326 209.123914 
L 194.538746 209.13065 
L 195.409717 209.623543 
L 196.716174 209.720616 
L 201.506516 208.605664 
L 202.812973 208.476101 
L 203.683944 208.438064 
L 204.11943 208.375462 
L 204.554915 208.552967 
L 204.990401 208.522458 
L 205.425887 208.347727 
L 205.861372 208.298992 
L 206.296858 208.128223 
L 207.603315 207.919418 
L 208.909772 207.409884 
L 209.345257 207.412261 
L 209.780743 207.285472 
L 210.216229 207.772025 
L 210.651714 207.772025 
L 211.0872 207.636123 
L 211.522686 207.676933 
L 212.393657 207.398393 
L 213.264628 207.431279 
L 214.135599 207.508145 
L 216.748513 207.591351 
L 217.619485 207.30449 
L 218.490456 207.625029 
L 219.361427 207.296962 
L 219.796913 207.401563 
L 220.232398 207.268038 
L 220.667884 207.376998 
L 221.10337 207.363923 
L 221.974341 207.750233 
L 222.409827 207.218908 
L 223.280798 206.95265 
L 224.587255 206.490662 
L 225.458226 206.571887 
L 225.893712 206.725222 
L 226.764683 206.669356 
L 227.635654 206.303252 
L 230.248568 206.363873 
L 230.684054 206.531473 
L 231.555025 206.432419 
L 231.990511 206.275913 
L 232.425996 206.403099 
L 233.296968 206.286611 
L 234.167939 206.404684 
L 234.603425 206.495813 
L 237.216338 205.657816 
L 237.651824 205.160565 
L 238.522795 205.139962 
L 239.829252 204.523053 
L 240.264738 204.615372 
L 240.700224 205.085284 
L 241.135709 204.975136 
L 241.571195 205.010399 
L 242.877652 205.360654 
L 243.313137 205.377691 
L 245.05508 204.757613 
L 245.490566 204.813084 
L 246.797022 205.261204 
L 247.667994 205.002871 
L 250.716393 204.712841 
L 252.458336 204.135554 
L 253.329307 204.208062 
L 254.200278 204.131196 
L 254.635764 203.977464 
L 256.377707 203.866523 
L 256.813192 203.314198 
L 257.248678 203.436233 
L 257.684164 202.703629 
L 258.555135 202.384675 
L 259.861592 202.340695 
L 262.909991 201.316873 
L 263.345477 201.188895 
L 263.780962 201.535188 
L 264.651934 201.166311 
L 265.087419 201.802634 
L 265.958391 201.508245 
L 267.264848 201.267742 
L 269.00679 201.532018 
L 269.877761 201.380664 
L 270.748733 200.961071 
L 272.05519 200.55495 
L 272.490675 200.031548 
L 273.361647 199.831855 
L 273.797132 199.615125 
L 274.232618 199.560447 
L 274.668104 200.093754 
L 275.97456 200.005794 
L 276.845532 200.036699 
L 278.151989 200.125451 
L 278.587474 200.104056 
L 279.02296 200.599722 
L 279.458446 200.531177 
L 280.329417 200.01253 
L 281.635874 199.863949 
L 283.377816 200.031944 
L 284.248788 200.058491 
L 285.119759 200.151602 
L 285.555245 200.175375 
L 286.426216 199.817591 
L 288.603644 199.824723 
L 289.474615 199.728839 
L 289.910101 199.737556 
L 290.345587 199.887326 
L 290.781072 199.911098 
L 291.216558 200.064038 
L 292.087529 199.726858 
L 300.797242 199.974493 
L 302.103699 200.384973 
L 302.539185 199.996285 
L 303.410156 199.663067 
L 304.281127 200.041057 
L 305.152098 200.066415 
L 306.458555 199.56124 
L 306.894041 199.546976 
L 307.329527 199.883363 
L 309.506955 199.80729 
L 309.94244 199.983606 
L 310.377926 199.95389 
L 311.248897 199.553712 
L 312.119869 199.546183 
L 312.555354 199.779951 
L 313.426326 199.837798 
L 314.297297 200.139715 
L 314.732782 200.152394 
L 315.168268 200.29622 
L 315.603754 200.135753 
L 316.474725 200.074736 
L 317.345696 199.960625 
L 318.652153 199.76331 
L 319.523125 200.007775 
L 321.265067 200.522856 
L 322.136038 200.590609 
L 322.571524 200.943638 
L 323.877981 200.516913 
L 325.184438 200.579119 
L 326.92638 200.308503 
L 327.361866 199.291813 
L 328.668323 199.32985 
L 329.539294 199.658313 
L 329.97478 199.325887 
L 330.845751 199.117874 
L 332.152208 199.172948 
L 332.587694 199.144817 
L 333.023179 198.893616 
L 334.329636 198.599227 
L 334.765122 198.495815 
L 335.636093 198.60002 
L 336.507065 198.842504 
L 337.378036 199.104799 
L 337.813521 198.910653 
L 338.684493 199.163043 
L 339.555464 199.467733 
L 340.426435 199.324699 
L 340.861921 199.335 
L 341.297407 198.811599 
L 341.732892 199.178891 
L 342.168378 199.192363 
L 342.603864 199.638106 
L 343.474835 199.866326 
L 343.91032 199.829478 
L 345.216777 200.266108 
L 346.087749 200.422613 
L 346.95872 200.719775 
L 350.442605 200.934128 
L 350.878091 201.134614 
L 352.184548 201.285968 
L 353.491005 201.316081 
L 353.92649 201.266157 
L 354.361976 201.429002 
L 354.797461 201.310534 
L 355.668433 201.77688 
L 356.97489 201.637412 
L 357.410375 201.796294 
L 357.845861 201.692882 
L 358.281347 201.792332 
L 358.716832 202.039175 
L 359.152318 201.988459 
L 360.023289 201.740824 
L 360.89426 201.75905 
L 361.765232 201.531226 
L 363.507174 202.055816 
L 363.94266 201.968252 
L 364.378146 202.028477 
L 364.813631 201.233271 
L 365.249117 200.168639 
L 366.120088 200.050567 
L 367.426545 199.907136 
L 368.297516 199.86593 
L 369.603973 199.58739 
L 370.474945 199.640879 
L 371.345916 200.05651 
L 372.216887 200.069189 
L 373.087858 199.775593 
L 375.265287 199.790253 
L 376.136258 199.523599 
L 377.007229 199.601258 
L 379.184657 199.821157 
L 380.491114 199.99153 
L 381.797571 200.340993 
L 382.233057 199.901589 
L 383.104028 200.1413 
L 383.974999 200.412312 
L 384.410485 200.226486 
L 384.845971 199.835421 
L 385.716942 200.122678 
L 387.023399 199.93923 
L 387.458885 200.424198 
L 387.89437 200.44599 
L 388.329856 200.657966 
L 390.071798 200.251052 
L 390.507284 200.272448 
L 390.94277 200.425783 
L 391.813741 200.310484 
L 393.120198 200.775246 
L 393.555684 200.6544 
L 393.991169 201.004655 
L 394.426655 201.041503 
L 394.86214 200.813282 
L 396.168597 201.10252 
L 396.604083 200.949581 
L 397.475054 201.293893 
L 398.346026 201.301421 
L 398.781511 201.337476 
L 399.652483 201.089445 
L 400.087968 200.863998 
L 400.523454 201.030409 
L 401.829911 201.158387 
L 401.829911 201.158387 
" clip-path="url(#p2f6f98aba4)" style="fill: none; stroke: #ff7f0e; stroke-opacity: 0.8; stroke-width: 1.5; stroke-linecap: square"/>
   </g>
   <g id="line2d_21">
    <path d="M 147.070811 50.283669 
L 147.506296 48.3014 
L 147.941782 47.771659 
L 148.377268 47.052527 
L 149.248239 46.210568 
L 149.683725 46.642839 
L 150.554696 46.517239 
L 151.425667 47.082639 
L 152.296638 46.896021 
L 153.16761 46.712573 
L 153.603095 46.287434 
L 154.038581 46.24702 
L 154.474067 45.588905 
L 155.345038 45.387627 
L 156.651495 44.051586 
L 157.08698 44.001663 
L 157.522466 43.837233 
L 157.957952 43.817026 
L 158.828923 42.618077 
L 160.570866 42.625605 
L 161.006351 41.157624 
L 162.312808 41.517785 
L 162.748294 40.908404 
L 163.183779 40.081898 
L 163.619265 39.9769 
L 164.054751 39.412292 
L 164.925722 40.014937 
L 165.361208 40.096161 
L 166.232179 41.36326 
L 167.974121 43.415263 
L 168.409607 43.420414 
L 168.845093 44.009191 
L 169.280578 44.003644 
L 169.716064 44.480688 
L 170.15155 44.399464 
L 170.587035 45.01241 
L 171.022521 44.941488 
L 172.328978 46.580237 
L 173.199949 45.483511 
L 174.506406 45.525906 
L 174.941892 44.945054 
L 175.377377 44.912168 
L 175.812863 44.998543 
L 176.248349 44.508423 
L 177.11932 44.434727 
L 177.554806 43.974324 
L 178.425777 45.298874 
L 178.861262 44.676419 
L 179.296748 44.652646 
L 179.732234 44.002852 
L 180.167719 44.236223 
L 181.038691 45.40823 
L 181.909662 45.485492 
L 182.345148 45.03024 
L 182.780633 45.575037 
L 183.216119 45.124539 
L 183.651605 45.153463 
L 184.08709 45.418136 
L 184.522576 45.471625 
L 184.958061 45.33493 
L 185.393547 44.832528 
L 185.829033 44.787756 
L 186.700004 43.813064 
L 187.13549 43.768292 
L 187.570975 44.2386 
L 188.006461 44.265147 
L 188.877432 45.465285 
L 189.312918 45.472813 
L 190.619375 46.813608 
L 191.925832 46.796967 
L 192.361317 47.270049 
L 192.796803 46.880965 
L 193.232289 46.865117 
L 194.10326 47.162279 
L 194.974231 46.122608 
L 195.845202 47.182882 
L 196.280688 47.104431 
L 196.716174 47.217749 
L 197.151659 47.044999 
L 198.893602 47.025188 
L 200.200059 47.097299 
L 200.635545 47.271238 
L 202.377487 45.416154 
L 202.812973 45.368609 
L 203.248458 44.805585 
L 204.11943 44.833321 
L 204.554915 44.899092 
L 204.990401 44.781416 
L 205.425887 44.313881 
L 205.861372 44.245336 
L 206.296858 44.312693 
L 206.732343 44.127264 
L 207.167829 43.501638 
L 207.603315 44.223544 
L 208.0388 44.099132 
L 208.474286 44.116566 
L 208.909772 43.619315 
L 209.345257 43.650616 
L 210.651714 45.202594 
L 211.0872 45.019146 
L 211.522686 44.621345 
L 211.958171 44.628081 
L 213.264628 43.007161 
L 213.700114 42.996859 
L 214.571085 42.129146 
L 215.006571 42.244841 
L 215.877542 42.207597 
L 216.313028 42.604209 
L 217.183999 42.670377 
L 217.619485 42.066148 
L 218.05497 41.809003 
L 218.925941 41.861304 
L 219.361427 41.259452 
L 220.232398 41.323639 
L 220.667884 41.792759 
L 221.974341 41.701629 
L 222.409827 39.876261 
L 223.280798 39.152375 
L 223.716283 39.141281 
L 224.151769 39.723322 
L 224.587255 39.790679 
L 225.02274 40.162726 
L 225.458226 40.140934 
L 225.893712 39.58742 
L 226.329197 39.569986 
L 226.764683 39.34454 
L 227.200169 39.29422 
L 227.635654 40.049012 
L 228.07114 40.251082 
L 228.506626 40.861255 
L 228.942111 41.165549 
L 229.377597 41.022515 
L 229.813082 41.490446 
L 230.248568 41.379109 
L 230.684054 41.92034 
L 231.119539 41.945698 
L 231.555025 41.333148 
L 231.990511 39.868733 
L 232.425996 40.575979 
L 232.861482 40.019692 
L 233.296968 40.011371 
L 233.732453 39.891714 
L 234.167939 40.358456 
L 235.03891 40.168273 
L 235.474396 40.490793 
L 235.909881 40.388569 
L 236.345367 39.978485 
L 236.780853 40.063275 
L 237.216338 39.559289 
L 237.651824 39.587024 
L 238.08731 39.064415 
L 238.522795 39.539874 
L 238.958281 38.856798 
L 239.393767 39.475687 
L 239.829252 39.472914 
L 240.264738 39.599306 
L 241.135709 40.587469 
L 241.571195 40.538339 
L 242.00668 41.198434 
L 242.442166 41.27847 
L 242.877652 40.803011 
L 243.748623 41.980169 
L 244.619594 41.940547 
L 245.05508 41.137813 
L 245.490566 40.922272 
L 245.926051 42.329631 
L 246.361537 41.846644 
L 246.797022 41.957584 
L 247.667994 41.474201 
L 248.103479 42.41244 
L 248.538965 42.02296 
L 249.409936 41.808211 
L 250.280908 40.179367 
L 250.716393 38.776762 
L 251.151879 38.250191 
L 251.587365 37.383666 
L 252.02285 37.491833 
L 252.458336 37.340479 
L 252.893821 36.676421 
L 253.329307 37.187539 
L 253.764793 36.959319 
L 254.200278 37.489456 
L 254.635764 37.038958 
L 255.07125 37.165351 
L 255.506735 37.140786 
L 256.377707 37.361478 
L 257.684164 37.349195 
L 258.119649 37.937576 
L 258.555135 38.023159 
L 258.99062 37.407835 
L 259.426106 37.27233 
L 259.861592 37.472022 
L 260.297077 35.301155 
L 260.732563 35.007559 
L 261.168049 35.544827 
L 261.603534 35.569393 
L 262.474506 36.702175 
L 263.345477 35.635165 
L 264.651934 37.367025 
L 265.087419 37.887653 
L 265.958391 37.886068 
L 266.393876 37.899936 
L 266.829362 37.386044 
L 267.264848 37.895974 
L 268.135819 37.879729 
L 269.00679 38.704254 
L 269.442276 38.666218 
L 269.877761 39.289069 
L 270.313247 39.332257 
L 270.748733 38.692764 
L 271.619704 38.552504 
L 272.490675 37.331762 
L 272.926161 37.944312 
L 273.797132 38.160646 
L 274.232618 37.77275 
L 274.668104 37.202992 
L 275.103589 37.076599 
L 275.539075 37.195067 
L 275.97456 36.728721 
L 276.410046 37.213293 
L 276.845532 37.183181 
L 277.281017 36.738626 
L 277.716503 36.706929 
L 278.587474 37.523134 
L 279.02296 37.215274 
L 279.458446 36.729514 
L 279.893931 36.643138 
L 280.764902 35.137121 
L 281.200388 35.707276 
L 281.635874 35.64824 
L 282.071359 35.259156 
L 282.506845 35.294815 
L 282.942331 35.194176 
L 283.377816 35.213591 
L 283.813302 35.686673 
L 284.248788 35.730653 
L 285.555245 37.221614 
L 285.99073 37.160993 
L 286.426216 37.309574 
L 287.732673 38.674142 
L 288.168158 38.898796 
L 288.603644 39.34454 
L 289.03913 39.246674 
L 289.474615 39.607231 
L 289.910101 40.128651 
L 290.345587 40.963875 
L 290.781072 40.400455 
L 291.216558 40.534773 
L 291.652044 40.902461 
L 292.087529 41.443692 
L 293.393986 39.940845 
L 295.135929 40.023258 
L 295.571414 39.520856 
L 296.0069 39.996711 
L 296.442386 39.833074 
L 296.877871 39.846545 
L 297.748842 40.873141 
L 298.184328 41.32245 
L 298.619814 40.714655 
L 299.055299 41.233301 
L 299.490785 41.083532 
L 299.926271 41.095022 
L 300.797242 39.853281 
L 301.668213 39.918657 
L 302.103699 39.459838 
L 302.539185 39.445971 
L 302.97467 39.725699 
L 303.410156 39.503026 
L 303.845641 39.531553 
L 304.281127 40.169858 
L 305.152098 39.064415 
L 306.02307 39.060453 
L 306.458555 39.588609 
L 306.894041 39.551761 
L 307.329527 41.35811 
L 307.765012 41.145342 
L 308.200498 41.916378 
L 308.635984 42.396196 
L 309.071469 42.188578 
L 309.94244 42.050695 
L 310.377926 41.530067 
L 310.813412 41.426655 
L 311.684383 36.890773 
L 312.119869 36.770324 
L 312.555354 35.957685 
L 313.861811 36.003646 
L 314.297297 36.13202 
L 314.732782 35.651806 
L 315.168268 36.105869 
L 316.474725 36.095172 
L 316.910211 37.098787 
L 317.345696 37.651508 
L 317.781182 37.687168 
L 318.652153 38.688802 
L 319.95861 38.490298 
L 320.829581 37.737487 
L 322.136038 37.70896 
L 322.571524 37.155842 
L 323.00701 37.276688 
L 323.442495 37.198237 
L 323.877981 37.37178 
L 324.313467 37.285405 
L 324.748952 36.678005 
L 325.184438 37.113051 
L 325.619924 36.540915 
L 326.055409 36.485048 
L 326.490895 37.088089 
L 326.92638 36.50684 
L 328.232837 36.471973 
L 329.539294 35.051142 
L 329.97478 35.805141 
L 330.410266 35.742539 
L 330.845751 35.822179 
L 331.281237 35.760369 
L 331.716722 34.990125 
L 332.152208 35.458056 
L 333.023179 35.087198 
L 333.458665 35.46915 
L 333.894151 35.657353 
L 334.329636 35.246477 
L 334.765122 35.994137 
L 335.200608 36.349939 
L 335.636093 37.719261 
L 336.071579 38.228795 
L 336.507065 39.024397 
L 336.94255 39.002605 
L 337.378036 38.631351 
L 337.813521 39.314823 
L 338.249007 39.317993 
L 338.684493 38.998643 
L 339.119978 39.008945 
L 339.555464 39.547798 
L 339.99095 39.54344 
L 340.861921 39.388123 
L 341.297407 39.314031 
L 341.732892 38.658293 
L 342.168378 38.229191 
L 343.039349 38.429677 
L 343.91032 39.434084 
L 344.345806 39.629023 
L 344.781292 40.077539 
L 345.216777 41.83555 
L 345.652263 42.112505 
L 346.087749 42.156485 
L 347.394206 40.728522 
L 348.265177 41.505106 
L 348.700662 41.048269 
L 349.136148 40.821633 
L 349.571634 40.906027 
L 350.007119 40.877103 
L 350.442605 40.974176 
L 350.878091 40.231271 
L 351.313576 40.127066 
L 351.749062 40.655618 
L 352.184548 40.135783 
L 352.620033 40.137764 
L 353.055519 40.626298 
L 353.491005 40.549433 
L 353.92649 40.106859 
L 354.361976 40.158764 
L 354.797461 40.007013 
L 355.232947 40.527244 
L 355.668433 41.321261 
L 356.103918 41.867247 
L 356.97489 42.023356 
L 357.410375 42.072091 
L 358.281347 40.896122 
L 358.716832 40.357268 
L 359.587804 40.360834 
L 360.023289 40.474548 
L 360.458775 40.306552 
L 360.89426 40.335872 
L 361.329746 39.405557 
L 361.765232 39.092546 
L 362.636203 40.025239 
L 363.071689 39.599703 
L 363.507174 39.597722 
L 363.94266 40.063672 
L 364.378146 41.045099 
L 365.684603 42.570927 
L 366.991059 42.542399 
L 367.426545 42.494457 
L 367.862031 43.044009 
L 368.733002 43.032915 
L 369.603973 42.027318 
L 370.039459 42.074468 
L 370.474945 41.511445 
L 371.345916 42.372026 
L 371.781401 42.458402 
L 372.216887 41.948075 
L 372.652373 42.030884 
L 373.087858 41.825644 
L 373.523344 41.795532 
L 373.95883 42.381932 
L 374.394315 42.541211 
L 375.265287 42.513872 
L 375.700772 41.213491 
L 376.136258 41.289564 
L 376.571744 40.848972 
L 377.007229 40.568055 
L 377.442715 41.14653 
L 377.8782 41.228547 
L 378.749172 41.717478 
L 379.184657 42.143806 
L 379.620143 42.067733 
L 380.055629 41.50154 
L 380.491114 41.435768 
L 380.9266 40.81252 
L 381.362086 41.497578 
L 381.797571 41.453201 
L 382.233057 40.854123 
L 382.668543 40.482472 
L 383.104028 39.77166 
L 383.539514 40.067634 
L 383.974999 39.512139 
L 384.410485 39.436858 
L 384.845971 38.95704 
L 385.281456 39.491139 
L 385.716942 38.96338 
L 386.587913 38.785479 
L 387.023399 38.725254 
L 387.458885 39.351275 
L 387.89437 38.811233 
L 388.329856 38.999435 
L 389.200827 37.853182 
L 389.636313 38.323095 
L 390.071798 38.284265 
L 390.507284 38.385697 
L 390.94277 38.756951 
L 391.378255 38.131722 
L 392.249227 38.210569 
L 392.684712 38.389659 
L 393.120198 37.667753 
L 393.555684 37.514814 
L 393.991169 36.937923 
L 394.426655 36.004438 
L 395.297626 36.130831 
L 395.733112 36.666911 
L 396.604083 40.761012 
L 397.039569 40.910385 
L 397.475054 41.684592 
L 397.91054 42.12241 
L 398.346026 41.666762 
L 398.781511 41.018949 
L 399.652483 41.111663 
L 400.087968 40.737239 
L 401.394425 40.600941 
L 401.829911 41.157624 
L 401.829911 41.157624 
" clip-path="url(#p2f6f98aba4)" style="fill: none; stroke: #2ca02c; stroke-opacity: 0.8; stroke-width: 1.5; stroke-linecap: square"/>
   </g>
   <g id="line2d_22">
    <path d="M 147.070811 193.54034 
L 147.506296 193.23882 
L 147.941782 193.112427 
L 148.377268 192.869943 
L 149.248239 192.998713 
L 149.683725 193.105691 
L 150.11921 192.555744 
L 150.554696 192.649647 
L 150.990181 192.570007 
L 151.861153 192.647666 
L 152.732124 192.518895 
L 153.603095 192.662722 
L 154.038581 192.399634 
L 154.474067 192.363579 
L 155.345038 192.592988 
L 155.780523 192.540687 
L 156.216009 192.23362 
L 157.08698 192.026399 
L 157.957952 189.966472 
L 158.828923 190.057997 
L 159.264409 189.528653 
L 160.570866 189.821456 
L 161.441837 189.352733 
L 161.877322 189.043288 
L 162.312808 187.522215 
L 162.748294 187.248033 
L 163.183779 187.120055 
L 164.054751 186.614484 
L 165.796693 186.137043 
L 166.667665 185.73845 
L 167.538636 185.637811 
L 168.845093 185.45159 
L 169.280578 185.56253 
L 170.587035 185.373535 
L 172.328978 184.774456 
L 172.764463 184.864397 
L 173.635435 184.519293 
L 174.941892 184.211433 
L 175.377377 184.325543 
L 176.683834 184.296223 
L 177.11932 183.968553 
L 177.554806 184.010948 
L 178.425777 183.655542 
L 179.296748 183.377795 
L 179.732234 183.15948 
L 180.167719 183.215346 
L 182.345148 182.648361 
L 183.651605 181.89555 
L 184.522576 181.992227 
L 184.958061 181.950228 
L 185.393547 180.830522 
L 185.829033 180.069787 
L 186.264518 180.18667 
L 187.13549 180.003619 
L 187.570975 180.080881 
L 188.006461 179.986978 
L 188.441947 180.106239 
L 188.877432 180.043636 
L 189.748403 180.118125 
L 190.183889 180.008373 
L 190.619375 180.152992 
L 191.05486 180.104258 
L 191.925832 179.698532 
L 192.361317 180.03175 
L 193.232289 180.013524 
L 193.667774 180.041259 
L 194.538746 179.730626 
L 195.409717 179.555498 
L 195.845202 179.38671 
L 197.151659 179.362937 
L 198.022631 179.355805 
L 198.458116 179.171565 
L 198.893602 178.798726 
L 199.329088 178.908477 
L 202.812973 178.32287 
L 203.683944 178.324059 
L 204.11943 178.102178 
L 204.554915 178.092669 
L 204.990401 178.225401 
L 205.425887 177.973011 
L 207.167829 178.418754 
L 209.780743 178.108121 
L 212.393657 178.935024 
L 212.829142 179.110151 
L 215.442056 178.246004 
L 216.313028 178.368039 
L 218.490456 178.186968 
L 218.925941 178.367643 
L 219.361427 178.400132 
L 220.232398 178.121989 
L 220.667884 178.578429 
L 221.10337 178.539997 
L 221.538855 178.702049 
L 221.974341 178.737708 
L 222.409827 179.019418 
L 222.845312 179.07053 
L 223.716283 178.723048 
L 224.587255 178.450848 
L 225.02274 178.621617 
L 225.458226 177.836317 
L 225.893712 177.846618 
L 227.200169 178.32604 
L 227.635654 178.244816 
L 228.506626 178.666786 
L 228.942111 178.641824 
L 229.813082 179.068153 
L 230.684054 179.10302 
L 231.119539 178.732954 
L 231.555025 178.881139 
L 231.990511 178.752368 
L 232.425996 178.902534 
L 232.861482 178.606957 
L 233.296968 178.770991 
L 233.732453 178.522167 
L 234.603425 178.316134 
L 235.03891 178.769406 
L 235.474396 178.537223 
L 235.909881 178.599429 
L 236.780853 178.366058 
L 237.216338 178.198458 
L 237.651824 178.175478 
L 238.08731 178.001539 
L 240.700224 177.763017 
L 241.571195 178.178647 
L 242.00668 178.139026 
L 242.877652 180.229858 
L 243.313137 180.255612 
L 243.748623 180.077711 
L 244.184109 180.36893 
L 245.490566 179.869698 
L 246.797022 179.882773 
L 247.232508 181.042893 
L 248.103479 181.154626 
L 248.538965 181.071025 
L 249.409936 181.471599 
L 249.845422 181.229907 
L 250.280908 181.188305 
L 251.151879 181.542126 
L 251.587365 181.362244 
L 252.02285 181.61186 
L 253.329307 181.412563 
L 253.764793 181.580559 
L 255.07125 181.62652 
L 255.506735 181.806006 
L 256.813192 181.752516 
L 257.248678 181.777478 
L 257.684164 181.683971 
L 258.119649 181.87574 
L 258.555135 181.841665 
L 258.99062 181.922889 
L 259.426106 182.126148 
L 259.861592 182.101979 
L 260.297077 181.837307 
L 260.732563 181.911795 
L 261.168049 182.202222 
L 261.603534 182.222825 
L 262.03902 182.545741 
L 262.474506 181.798874 
L 262.909991 181.654255 
L 263.780962 181.826213 
L 265.087419 181.815515 
L 265.522905 181.814722 
L 268.135819 182.680058 
L 268.571305 182.909863 
L 269.442276 182.828243 
L 269.877761 182.951862 
L 270.313247 184.08504 
L 270.748733 184.828342 
L 271.184218 183.822745 
L 272.05519 184.309695 
L 273.361647 184.228867 
L 274.668104 183.740332 
L 275.103589 183.82433 
L 275.539075 183.609185 
L 275.97456 183.519244 
L 277.281017 184.077116 
L 278.151989 184.076324 
L 278.587474 184.295827 
L 279.02296 184.329902 
L 279.458446 184.569613 
L 279.893931 184.541877 
L 280.329417 184.79189 
L 281.200388 184.593782 
L 281.635874 184.736023 
L 283.377816 184.636573 
L 284.248788 182.406669 
L 284.684273 182.574268 
L 285.119759 182.321483 
L 285.555245 182.256503 
L 285.99073 181.285774 
L 286.426216 179.84117 
L 287.732673 180.019864 
L 288.603644 179.522612 
L 289.474615 179.458029 
L 289.910101 179.317769 
L 290.781072 179.568573 
L 291.216558 179.337976 
L 291.652044 179.299939 
L 292.087529 179.132736 
L 292.523015 179.341145 
L 292.9585 179.398597 
L 293.393986 179.312618 
L 294.264957 179.4192 
L 294.700443 179.241695 
L 296.442386 179.332825 
L 297.748842 178.636277 
L 298.184328 178.562977 
L 298.619814 178.6339 
L 299.490785 179.164037 
L 299.926271 179.087171 
L 300.361756 178.88312 
L 300.797242 178.988117 
L 301.232728 178.748802 
L 302.97467 179.657326 
L 303.410156 179.742512 
L 303.845641 179.707249 
L 305.152098 179.979846 
L 306.02307 179.710815 
L 306.458555 179.485368 
L 307.329527 179.712796 
L 309.506955 179.461595 
L 309.94244 179.19613 
L 310.377926 179.960827 
L 310.813412 180.133974 
L 311.684383 179.968752 
L 312.119869 179.824925 
L 312.555354 179.860981 
L 312.99084 179.72706 
L 313.861811 179.675948 
L 315.168268 175.204254 
L 315.603754 174.722059 
L 316.039239 173.81195 
L 316.474725 173.682784 
L 316.910211 173.794913 
L 317.781182 171.997281 
L 318.216668 171.845926 
L 318.652153 171.96598 
L 319.087639 171.843549 
L 319.523125 171.883567 
L 320.394096 171.787682 
L 321.700553 171.668818 
L 322.136038 171.437427 
L 323.442495 171.402164 
L 323.877981 171.637517 
L 324.313467 171.395032 
L 326.92638 171.066569 
L 327.361866 171.154133 
L 327.797352 169.895355 
L 328.232837 169.82879 
L 328.668323 169.156808 
L 329.539294 169.24239 
L 330.845751 169.393745 
L 331.281237 169.672285 
L 331.716722 169.622362 
L 332.152208 169.914373 
L 332.587694 169.866035 
L 333.458665 170.076425 
L 334.329636 169.595815 
L 334.765122 169.877525 
L 335.200608 169.881091 
L 335.636093 168.984454 
L 336.071579 168.862023 
L 336.507065 168.998718 
L 336.94255 168.920267 
L 338.684493 169.206731 
L 339.119978 169.11362 
L 339.555464 169.280031 
L 339.99095 169.150072 
L 341.297407 169.050622 
L 341.732892 168.857268 
L 342.168378 168.918682 
L 342.603864 168.81527 
L 343.039349 168.496712 
L 343.474835 167.762523 
L 343.91032 166.460954 
L 344.345806 166.048097 
L 345.216777 165.914968 
L 345.652263 164.530193 
L 346.95872 164.020263 
L 347.394206 164.68551 
L 347.829691 164.866184 
L 349.136148 164.273445 
L 350.442605 164.233823 
L 352.184548 164.384385 
L 352.620033 164.262747 
L 353.055519 164.284143 
L 353.92649 163.836418 
L 355.232947 164.164485 
L 355.668433 164.084054 
L 356.103918 165.076179 
L 357.410375 164.544457 
L 359.152318 165.061519 
L 359.587804 165.124121 
L 360.89426 164.95454 
L 361.329746 164.008376 
L 362.200717 163.652178 
L 363.071689 163.77976 
L 363.507174 163.505182 
L 363.94266 162.874802 
L 364.813631 162.416776 
L 365.249117 162.377947 
L 365.684603 162.613696 
L 366.120088 162.584376 
L 366.555574 160.423017 
L 366.991059 158.911849 
L 367.426545 158.185189 
L 368.297516 154.986537 
L 368.733002 155.079251 
L 369.168488 156.025415 
L 369.603973 155.838401 
L 370.039459 156.019472 
L 370.474945 156.034528 
L 370.91043 156.612607 
L 371.345916 157.86465 
L 373.95883 157.973609 
L 374.394315 157.653467 
L 374.829801 157.645543 
L 375.265287 156.516723 
L 375.700772 156.47512 
L 376.136258 156.667681 
L 377.007229 156.689077 
L 377.442715 156.500082 
L 377.8782 156.556345 
L 378.749172 156.92641 
L 380.055629 156.582099 
L 380.9266 156.475517 
L 381.362086 156.148638 
L 381.797571 156.233825 
L 383.104028 156.150223 
L 383.539514 156.202127 
L 384.410485 155.994114 
L 384.845971 156.298804 
L 385.281456 156.263937 
L 385.716942 156.025415 
L 386.152428 156.23224 
L 387.89437 155.507957 
L 388.329856 155.536088 
L 389.636313 151.587399 
L 390.071798 151.32867 
L 390.94277 149.28261 
L 391.378255 149.389985 
L 392.249227 148.520687 
L 392.684712 148.080491 
L 393.555684 148.290881 
L 393.991169 148.435104 
L 394.426655 148.420444 
L 394.86214 148.202525 
L 395.297626 148.304749 
L 397.039569 147.754009 
L 397.475054 147.712406 
L 397.91054 147.807894 
L 398.346026 147.623653 
L 398.781511 147.607012 
L 400.087968 151.691604 
L 400.523454 152.018482 
L 400.958939 153.279638 
L 401.394425 153.40405 
L 401.829911 153.390182 
L 401.829911 153.390182 
" clip-path="url(#p2f6f98aba4)" style="fill: none; stroke: #d62728; stroke-opacity: 0.8; stroke-width: 1.5; stroke-linecap: square"/>
   </g>
   <g id="line2d_23">
    <path d="M 147.070811 183.195535 
L 147.506296 182.949485 
L 147.941782 182.871431 
L 148.377268 182.544552 
L 149.683725 182.349614 
L 150.990181 181.648312 
L 151.861153 181.529843 
L 152.296638 181.166117 
L 153.603095 180.968405 
L 154.038581 181.146306 
L 155.345038 180.987423 
L 156.216009 180.811503 
L 158.828923 179.60978 
L 160.570866 179.417615 
L 162.312808 178.47264 
L 163.183779 177.995596 
L 163.619265 177.917541 
L 164.054751 178.085537 
L 164.490236 178.060179 
L 164.925722 177.341443 
L 165.361208 177.160372 
L 166.232179 177.176617 
L 166.667665 177.293501 
L 167.10315 177.028828 
L 167.974121 176.912341 
L 168.845093 176.697196 
L 169.280578 176.22451 
L 170.15155 176.607651 
L 171.893492 176.273641 
L 173.199949 176.732459 
L 173.635435 176.70829 
L 174.506406 176.195586 
L 174.941892 176.00461 
L 175.812863 176.20351 
L 176.683834 175.97529 
L 177.11932 176.178549 
L 177.554806 175.916254 
L 177.990291 175.86118 
L 178.861262 176.248679 
L 179.732234 175.731617 
L 180.167719 175.963007 
L 181.909662 175.636525 
L 182.345148 175.361948 
L 182.780633 175.229215 
L 183.651605 175.568376 
L 184.08709 175.527566 
L 185.829033 174.471254 
L 186.700004 174.422123 
L 187.13549 174.15547 
L 188.006461 174.105943 
L 188.877432 173.589277 
L 189.748403 174.960184 
L 190.183889 174.944732 
L 190.619375 175.082219 
L 191.925832 174.965731 
L 192.796803 175.277553 
L 193.232289 175.240309 
L 193.667774 175.378589 
L 194.10326 175.34174 
L 196.280688 176.131795 
L 196.716174 176.193605 
L 197.151659 175.982026 
L 197.587145 175.994705 
L 198.022631 175.833841 
L 200.200059 175.817596 
L 201.07103 175.74073 
L 201.942001 175.90516 
L 202.812973 175.90199 
L 203.248458 175.721315 
L 203.683944 175.707844 
L 205.861372 174.780699 
L 206.296858 174.924921 
L 206.732343 174.918186 
L 207.603315 174.48631 
L 208.474286 174.637268 
L 208.909772 174.736322 
L 209.345257 174.501366 
L 209.780743 174.491857 
L 211.0872 174.812792 
L 211.522686 174.69472 
L 212.393657 174.872224 
L 212.829142 174.694323 
L 214.135599 174.601213 
L 215.006571 174.571496 
L 215.442056 174.800509 
L 215.877542 174.543761 
L 216.313028 174.745435 
L 217.619485 174.657872 
L 218.05497 174.873017 
L 218.925941 174.886092 
L 219.361427 174.661438 
L 220.232398 174.771586 
L 220.667884 174.747813 
L 221.10337 174.979203 
L 221.974341 174.903129 
L 222.409827 174.653909 
L 224.151769 174.781095 
L 224.587255 174.976033 
L 225.02274 174.98158 
L 225.893712 175.39523 
L 226.329197 175.62345 
L 227.635654 174.892431 
L 228.07114 174.769208 
L 228.506626 174.446292 
L 229.377597 174.862319 
L 229.813082 174.83498 
L 230.684054 177.107279 
L 231.990511 177.007433 
L 232.425996 177.092223 
L 232.861482 177.009414 
L 233.296968 177.202371 
L 235.909881 177.0946 
L 237.216338 177.591455 
L 238.522795 177.618002 
L 238.958281 177.34699 
L 239.393767 177.289142 
L 240.700224 177.676246 
L 241.571195 177.521721 
L 242.877652 177.668717 
L 243.313137 177.650888 
L 243.748623 177.469421 
L 244.184109 177.436931 
L 248.974451 179.322919 
L 249.409936 179.169584 
L 249.845422 179.821359 
L 250.280908 180.019071 
L 251.587365 179.835623 
L 253.764793 180.300781 
L 254.200278 180.755241 
L 255.506735 180.176765 
L 257.248678 180.26948 
L 257.684164 179.978261 
L 258.119649 179.904168 
L 258.555135 179.658514 
L 258.99062 179.650194 
L 259.426106 179.777379 
L 259.861592 179.668024 
L 262.03902 178.481357 
L 262.474506 177.281218 
L 262.909991 177.214258 
L 263.780962 176.744345 
L 264.216448 176.941265 
L 265.522905 176.851324 
L 266.393876 176.35962 
L 267.264848 176.230849 
L 267.700333 176.054929 
L 268.135819 175.75222 
L 268.571305 175.709825 
L 269.00679 175.425738 
L 269.877761 175.500623 
L 270.748733 175.530339 
L 271.184218 175.001787 
L 272.05519 175.37106 
L 272.490675 175.154727 
L 273.361647 175.132142 
L 273.797132 175.381362 
L 275.103589 175.308062 
L 275.539075 175.045371 
L 275.97456 174.969694 
L 276.410046 173.471601 
L 276.845532 173.662577 
L 278.151989 173.432375 
L 278.587474 173.426432 
L 279.02296 173.575806 
L 279.893931 173.117384 
L 280.329417 172.15656 
L 282.071359 172.034921 
L 282.506845 171.922 
L 282.942331 171.984206 
L 283.813302 171.800361 
L 284.684273 172.01828 
L 285.119759 171.994903 
L 285.555245 172.188653 
L 286.861701 171.983413 
L 290.781072 171.451295 
L 291.652044 170.960383 
L 292.523015 170.915611 
L 293.393986 170.410435 
L 294.700443 170.289589 
L 295.571414 169.677039 
L 296.0069 169.868016 
L 296.442386 169.923486 
L 297.313357 169.387802 
L 298.184328 169.627512 
L 298.619814 169.650889 
L 299.055299 169.969051 
L 299.926271 169.747566 
L 300.361756 169.67387 
L 300.797242 169.736472 
L 301.232728 169.665945 
L 302.539185 170.080387 
L 302.97467 169.904467 
L 304.281127 170.119613 
L 304.716613 170.060973 
L 305.587584 170.287608 
L 306.02307 170.085142 
L 306.458555 170.207177 
L 307.765012 170.277307 
L 308.635984 170.291174 
L 309.506955 169.875147 
L 309.94244 169.926259 
L 311.684383 169.471403 
L 312.119869 169.602551 
L 312.555354 169.859299 
L 312.99084 169.942504 
L 313.426326 170.197271 
L 314.297297 169.652474 
L 314.732782 169.503101 
L 315.603754 170.075237 
L 316.039239 170.042747 
L 316.474725 170.158046 
L 316.910211 170.055822 
L 317.781182 170.181819 
L 319.523125 170.836764 
L 320.394096 171.189 
L 321.265067 170.879159 
L 322.136038 170.429454 
L 323.442495 169.884657 
L 323.877981 170.055426 
L 325.184438 169.514591 
L 326.055409 169.549062 
L 326.92638 169.94924 
L 327.797352 170.047105 
L 328.232837 170.223818 
L 328.668323 170.228572 
L 329.103809 169.99639 
L 330.845751 169.747962 
L 331.716722 169.40999 
L 332.152208 169.003472 
L 332.587694 168.988812 
L 334.329636 168.573578 
L 334.765122 168.558918 
L 336.071579 167.980046 
L 337.378036 168.113967 
L 338.249007 168.355263 
L 338.684493 168.262152 
L 339.119978 168.386168 
L 339.555464 168.321981 
L 339.99095 168.426582 
L 340.426435 168.650047 
L 341.297407 168.426978 
L 341.732892 168.612407 
L 342.168378 168.365168 
L 342.603864 168.621124 
L 343.91032 168.620331 
L 344.345806 168.336641 
L 345.652263 168.518504 
L 346.95872 169.123922 
L 347.394206 170.549111 
L 348.700662 170.611713 
L 349.136148 170.557035 
L 349.571634 170.794765 
L 351.313576 170.989703 
L 352.184548 171.166416 
L 353.055519 171.649799 
L 353.491005 171.657327 
L 354.361976 172.174786 
L 354.797461 172.313857 
L 355.232947 172.20886 
L 356.103918 172.666093 
L 356.97489 172.316631 
L 358.281347 172.275821 
L 358.716832 172.084844 
L 359.587804 172.117334 
L 360.023289 172.133975 
L 360.89426 172.422421 
L 361.329746 173.518354 
L 361.765232 171.733797 
L 362.200717 171.581254 
L 363.507174 171.703685 
L 363.94266 171.614536 
L 364.813631 171.802739 
L 365.249117 172.650641 
L 366.991059 172.777034 
L 367.426545 172.988613 
L 367.862031 172.362988 
L 368.733002 172.420439 
L 369.603973 172.097523 
L 372.652373 172.337234 
L 373.087858 172.041657 
L 373.523344 172.026204 
L 373.95883 172.22035 
L 374.394315 172.224709 
L 376.136258 172.776241 
L 377.442715 173.110648 
L 379.620143 172.832108 
L 380.491114 173.034178 
L 381.362086 172.679961 
L 382.233057 172.962463 
L 382.668543 172.778223 
L 383.539514 172.884408 
L 383.974999 172.911351 
L 384.410485 173.064687 
L 384.845971 173.351547 
L 385.716942 173.350359 
L 386.587913 172.917294 
L 389.636313 173.211683 
L 390.507284 172.922049 
L 391.378255 172.931558 
L 391.813741 172.947803 
L 392.249227 172.080882 
L 392.684712 172.247293 
L 393.120198 172.064241 
L 393.555684 172.051166 
L 394.86214 171.34392 
L 395.733112 171.316582 
L 396.604083 171.299544 
L 397.91054 171.222282 
L 398.346026 171.028532 
L 398.781511 171.090342 
L 399.216997 171.348279 
L 399.652483 171.360958 
L 400.523454 170.900951 
L 400.958939 170.070086 
L 401.394425 169.915562 
L 401.829911 169.97856 
L 401.829911 169.97856 
" clip-path="url(#p2f6f98aba4)" style="fill: none; stroke: #9467bd; stroke-opacity: 0.8; stroke-width: 1.5; stroke-linecap: square"/>
   </g>
   <g id="patch_3">
    <path d="M 61.715625 288.430125 
L 61.715625 22.318125 
" style="fill: none; stroke: #000000; stroke-width: 0.8; stroke-linejoin: miter; stroke-linecap: square"/>
   </g>
   <g id="patch_4">
    <path d="M 418.835625 288.430125 
L 418.835625 22.318125 
" style="fill: none; stroke: #000000; stroke-width: 0.8; stroke-linejoin: miter; stroke-linecap: square"/>
   </g>
   <g id="patch_5">
    <path d="M 61.715625 288.430125 
L 418.835625 288.430125 
" style="fill: none; stroke: #000000; stroke-width: 0.8; stroke-linejoin: miter; stroke-linecap: square"/>
   </g>
   <g id="patch_6">
    <path d="M 61.715625 22.318125 
L 418.835625 22.318125 
" style="fill: none; stroke: #000000; stroke-width: 0.8; stroke-linejoin: miter; stroke-linecap: square"/>
   </g>
   <g id="text_21">
    <!-- Get ancestors [leaf] -->
    <g transform="translate(180.7275 16.318125) scale(0.12 -0.12)">
     <defs>
      <path id="DejaVuSans-47" d="M 3809 666 
L 3809 1919 
L 2778 1919 
L 2778 2438 
L 4434 2438 
L 4434 434 
Q 4069 175 3628 42 
Q 3188 -91 2688 -91 
Q 1594 -91 976 548 
Q 359 1188 359 2328 
Q 359 3472 976 4111 
Q 1594 4750 2688 4750 
Q 3144 4750 3555 4637 
Q 3966 4525 4313 4306 
L 4313 3634 
Q 3963 3931 3569 4081 
Q 3175 4231 2741 4231 
Q 1884 4231 1454 3753 
Q 1025 3275 1025 2328 
Q 1025 1384 1454 906 
Q 1884 428 2741 428 
Q 3075 428 3337 486 
Q 3600 544 3809 666 
z
" transform="scale(0.015625)"/>
      <path id="DejaVuSans-72" d="M 2631 2963 
Q 2534 3019 2420 3045 
Q 2306 3072 2169 3072 
Q 1681 3072 1420 2755 
Q 1159 2438 1159 1844 
L 1159 0 
L 581 0 
L 581 3500 
L 1159 3500 
L 1159 2956 
Q 1341 3275 1631 3429 
Q 1922 3584 2338 3584 
Q 2397 3584 2469 3576 
Q 2541 3569 2628 3553 
L 2631 2963 
z
" transform="scale(0.015625)"/>
      <path id="DejaVuSans-5b" d="M 550 4863 
L 1875 4863 
L 1875 4416 
L 1125 4416 
L 1125 -397 
L 1875 -397 
L 1875 -844 
L 550 -844 
L 550 4863 
z
" transform="scale(0.015625)"/>
      <path id="DejaVuSans-5d" d="M 1947 4863 
L 1947 -844 
L 622 -844 
L 622 -397 
L 1369 -397 
L 1369 4416 
L 622 4416 
L 622 4863 
L 1947 4863 
z
" transform="scale(0.015625)"/>
     </defs>
     <use xlink:href="#DejaVuSans-47"/>
     <use xlink:href="#DejaVuSans-65" transform="translate(77.490234 0)"/>
     <use xlink:href="#DejaVuSans-74" transform="translate(139.013672 0)"/>
     <use xlink:href="#DejaVuSans-20" transform="translate(178.222656 0)"/>
     <use xlink:href="#DejaVuSans-61" transform="translate(210.009766 0)"/>
     <use xlink:href="#DejaVuSans-6e" transform="translate(271.289062 0)"/>
     <use xlink:href="#DejaVuSans-63" transform="translate(334.667969 0)"/>
     <use xlink:href="#DejaVuSans-65" transform="translate(389.648438 0)"/>
     <use xlink:href="#DejaVuSans-73" transform="translate(451.171875 0)"/>
     <use xlink:href="#DejaVuSans-74" transform="translate(503.271484 0)"/>
     <use xlink:href="#DejaVuSans-6f" transform="translate(542.480469 0)"/>
     <use xlink:href="#DejaVuSans-72" transform="translate(603.662109 0)"/>
     <use xlink:href="#DejaVuSans-73" transform="translate(644.775391 0)"/>
     <use xlink:href="#DejaVuSans-20" transform="translate(696.875 0)"/>
     <use xlink:href="#DejaVuSans-5b" transform="translate(728.662109 0)"/>
     <use xlink:href="#DejaVuSans-6c" transform="translate(767.675781 0)"/>
     <use xlink:href="#DejaVuSans-65" transform="translate(795.458984 0)"/>
     <use xlink:href="#DejaVuSans-61" transform="translate(856.982422 0)"/>
     <use xlink:href="#DejaVuSans-66" transform="translate(918.261719 0)"/>
     <use xlink:href="#DejaVuSans-5d" transform="translate(953.466797 0)"/>
    </g>
   </g>
   <g id="legend_1">
    <g id="patch_7">
     <path d="M 92.717969 365.802375 
L 380.313281 365.802375 
Q 382.313281 365.802375 382.313281 363.802375 
L 382.313281 335.446125 
Q 382.313281 333.446125 380.313281 333.446125 
L 92.717969 333.446125 
Q 90.717969 333.446125 90.717969 335.446125 
L 90.717969 363.802375 
Q 90.717969 365.802375 92.717969 365.802375 
z
" style="fill: #4d4d4d; opacity: 0.5; stroke: #4d4d4d; stroke-linejoin: miter"/>
    </g>
    <g id="patch_8">
     <path d="M 90.717969 363.802375 
L 378.313281 363.802375 
Q 380.313281 363.802375 380.313281 361.802375 
L 380.313281 333.446125 
Q 380.313281 331.446125 378.313281 331.446125 
L 90.717969 331.446125 
Q 88.717969 331.446125 88.717969 333.446125 
L 88.717969 361.802375 
Q 88.717969 363.802375 90.717969 363.802375 
z
" style="fill: #ffffff; stroke: #cccccc; stroke-linejoin: miter"/>
    </g>
    <g id="line2d_24">
     <path d="M 92.717969 339.544562 
L 102.717969 339.544562 
L 112.717969 339.544562 
" style="fill: none; stroke: #1f77b4; stroke-opacity: 0.8; stroke-width: 1.5; stroke-linecap: square"/>
    </g>
    <g id="text_22">
     <!-- MPTT -->
     <g transform="translate(120.717969 343.044562) scale(0.1 -0.1)">
      <defs>
       <path id="DejaVuSans-4d" d="M 628 4666 
L 1569 4666 
L 2759 1491 
L 3956 4666 
L 4897 4666 
L 4897 0 
L 4281 0 
L 4281 4097 
L 3078 897 
L 2444 897 
L 1241 4097 
L 1241 0 
L 628 0 
L 628 4666 
z
" transform="scale(0.015625)"/>
       <path id="DejaVuSans-50" d="M 1259 4147 
L 1259 2394 
L 2053 2394 
Q 2494 2394 2734 2622 
Q 2975 2850 2975 3272 
Q 2975 3691 2734 3919 
Q 2494 4147 2053 4147 
L 1259 4147 
z
M 628 4666 
L 2053 4666 
Q 2838 4666 3239 4311 
Q 3641 3956 3641 3272 
Q 3641 2581 3239 2228 
Q 2838 1875 2053 1875 
L 1259 1875 
L 1259 0 
L 628 0 
L 628 4666 
z
" transform="scale(0.015625)"/>
       <path id="DejaVuSans-54" d="M -19 4666 
L 3928 4666 
L 3928 4134 
L 2272 4134 
L 2272 0 
L 1638 0 
L 1638 4134 
L -19 4134 
L -19 4666 
z
" transform="scale(0.015625)"/>
      </defs>
      <use xlink:href="#DejaVuSans-4d"/>
      <use xlink:href="#DejaVuSans-50" transform="translate(86.279297 0)"/>
      <use xlink:href="#DejaVuSans-54" transform="translate(146.582031 0)"/>
      <use xlink:href="#DejaVuSans-54" transform="translate(205.916016 0)"/>
     </g>
    </g>
    <g id="line2d_25">
     <path d="M 92.717969 354.222687 
L 102.717969 354.222687 
L 112.717969 354.222687 
" style="fill: none; stroke: #ff7f0e; stroke-opacity: 0.8; stroke-width: 1.5; stroke-linecap: square"/>
    </g>
    <g id="text_23">
     <!-- tree -->
     <g transform="translate(120.717969 357.722687) scale(0.1 -0.1)">
      <use xlink:href="#DejaVuSans-74"/>
      <use xlink:href="#DejaVuSans-72" transform="translate(39.208984 0)"/>
      <use xlink:href="#DejaVuSans-65" transform="translate(78.072266 0)"/>
      <use xlink:href="#DejaVuSans-65" transform="translate(139.595703 0)"/>
     </g>
    </g>
    <g id="line2d_26">
     <path d="M 167.416406 339.544562 
L 177.416406 339.544562 
L 187.416406 339.544562 
" style="fill: none; stroke: #2ca02c; stroke-opacity: 0.8; stroke-width: 1.5; stroke-linecap: square"/>
    </g>
    <g id="text_24">
     <!-- treebeard AL -->
     <g transform="translate(195.416406 343.044562) scale(0.1 -0.1)">
      <defs>
       <path id="DejaVuSans-4c" d="M 628 4666 
L 1259 4666 
L 1259 531 
L 3531 531 
L 3531 0 
L 628 0 
L 628 4666 
z
" transform="scale(0.015625)"/>
      </defs>
      <use xlink:href="#DejaVuSans-74"/>
      <use xlink:href="#DejaVuSans-72" transform="translate(39.208984 0)"/>
      <use xlink:href="#DejaVuSans-65" transform="translate(78.072266 0)"/>
      <use xlink:href="#DejaVuSans-65" transform="translate(139.595703 0)"/>
      <use xlink:href="#DejaVuSans-62" transform="translate(201.119141 0)"/>
      <use xlink:href="#DejaVuSans-65" transform="translate(264.595703 0)"/>
      <use xlink:href="#DejaVuSans-61" transform="translate(326.119141 0)"/>
      <use xlink:href="#DejaVuSans-72" transform="translate(387.398438 0)"/>
      <use xlink:href="#DejaVuSans-64" transform="translate(426.761719 0)"/>
      <use xlink:href="#DejaVuSans-20" transform="translate(490.238281 0)"/>
      <use xlink:href="#DejaVuSans-41" transform="translate(522.025391 0)"/>
      <use xlink:href="#DejaVuSans-4c" transform="translate(590.433594 0)"/>
     </g>
    </g>
    <g id="line2d_27">
     <path d="M 167.416406 354.222687 
L 177.416406 354.222687 
L 187.416406 354.222687 
" style="fill: none; stroke: #d62728; stroke-opacity: 0.8; stroke-width: 1.5; stroke-linecap: square"/>
    </g>
    <g id="text_25">
     <!-- treebeard MP -->
     <g transform="translate(195.416406 357.722687) scale(0.1 -0.1)">
      <use xlink:href="#DejaVuSans-74"/>
      <use xlink:href="#DejaVuSans-72" transform="translate(39.208984 0)"/>
      <use xlink:href="#DejaVuSans-65" transform="translate(78.072266 0)"/>
      <use xlink:href="#DejaVuSans-65" transform="translate(139.595703 0)"/>
      <use xlink:href="#DejaVuSans-62" transform="translate(201.119141 0)"/>
      <use xlink:href="#DejaVuSans-65" transform="translate(264.595703 0)"/>
      <use xlink:href="#DejaVuSans-61" transform="translate(326.119141 0)"/>
      <use xlink:href="#DejaVuSans-72" transform="translate(387.398438 0)"/>
      <use xlink:href="#DejaVuSans-64" transform="translate(426.761719 0)"/>
      <use xlink:href="#DejaVuSans-20" transform="translate(490.238281 0)"/>
      <use xlink:href="#DejaVuSans-4d" transform="translate(522.025391 0)"/>
      <use xlink:href="#DejaVuSans-50" transform="translate(608.304688 0)"/>
     </g>
    </g>
    <g id="line2d_28">
     <path d="M 282.278906 339.544562 
L 292.278906 339.544562 
L 302.278906 339.544562 
" style="fill: none; stroke: #9467bd; stroke-opacity: 0.8; stroke-width: 1.5; stroke-linecap: square"/>
    </g>
    <g id="text_26">
     <!-- treebeard NS -->
     <g transform="translate(310.278906 343.044562) scale(0.1 -0.1)">
      <defs>
       <path id="DejaVuSans-4e" d="M 628 4666 
L 1478 4666 
L 3547 763 
L 3547 4666 
L 4159 4666 
L 4159 0 
L 3309 0 
L 1241 3903 
L 1241 0 
L 628 0 
L 628 4666 
z
" transform="scale(0.015625)"/>
       <path id="DejaVuSans-53" d="M 3425 4513 
L 3425 3897 
Q 3066 4069 2747 4153 
Q 2428 4238 2131 4238 
Q 1616 4238 1336 4038 
Q 1056 3838 1056 3469 
Q 1056 3159 1242 3001 
Q 1428 2844 1947 2747 
L 2328 2669 
Q 3034 2534 3370 2195 
Q 3706 1856 3706 1288 
Q 3706 609 3251 259 
Q 2797 -91 1919 -91 
Q 1588 -91 1214 -16 
Q 841 59 441 206 
L 441 856 
Q 825 641 1194 531 
Q 1563 422 1919 422 
Q 2459 422 2753 634 
Q 3047 847 3047 1241 
Q 3047 1584 2836 1778 
Q 2625 1972 2144 2069 
L 1759 2144 
Q 1053 2284 737 2584 
Q 422 2884 422 3419 
Q 422 4038 858 4394 
Q 1294 4750 2059 4750 
Q 2388 4750 2728 4690 
Q 3069 4631 3425 4513 
z
" transform="scale(0.015625)"/>
      </defs>
      <use xlink:href="#DejaVuSans-74"/>
      <use xlink:href="#DejaVuSans-72" transform="translate(39.208984 0)"/>
      <use xlink:href="#DejaVuSans-65" transform="translate(78.072266 0)"/>
      <use xlink:href="#DejaVuSans-65" transform="translate(139.595703 0)"/>
      <use xlink:href="#DejaVuSans-62" transform="translate(201.119141 0)"/>
      <use xlink:href="#DejaVuSans-65" transform="translate(264.595703 0)"/>
      <use xlink:href="#DejaVuSans-61" transform="translate(326.119141 0)"/>
      <use xlink:href="#DejaVuSans-72" transform="translate(387.398438 0)"/>
      <use xlink:href="#DejaVuSans-64" transform="translate(426.761719 0)"/>
      <use xlink:href="#DejaVuSans-20" transform="translate(490.238281 0)"/>
      <use xlink:href="#DejaVuSans-4e" transform="translate(522.025391 0)"/>
      <use xlink:href="#DejaVuSans-53" transform="translate(596.830078 0)"/>
     </g>
    </g>
   </g>
  </g>
 </g>
 <defs>
  <clipPath id="p2f6f98aba4">
   <rect x="61.715625" y="22.318125" width="357.12" height="266.112"/>
  </clipPath>
 </defs>
</svg>
