<?xml version="1.0" encoding="utf-8" standalone="no"?>
<!DOCTYPE svg PUBLIC "-//W3C//DTD SVG 1.1//EN"
  "http://www.w3.org/Graphics/SVG/1.1/DTD/svg11.dtd">
<svg xmlns:xlink="http://www.w3.org/1999/xlink" width="432.914531pt" height="371.647687pt" viewBox="0 0 432.914531 371.647687" xmlns="http://www.w3.org/2000/svg" version="1.1">
 <metadata>
  <rdf:RDF xmlns:dc="http://purl.org/dc/elements/1.1/" xmlns:cc="http://creativecommons.org/ns#" xmlns:rdf="http://www.w3.org/1999/02/22-rdf-syntax-ns#">
   <cc:Work>
    <dc:type rdf:resource="http://purl.org/dc/dcmitype/StillImage"/>
    <dc:date>2026-06-29T09:13:56.286668</dc:date>
    <dc:format>image/svg+xml</dc:format>
    <dc:creator>
     <cc:Agent>
      <dc:title>Matplotlib v3.11.0, https://matplotlib.org/</dc:title>
     </cc:Agent>
    </dc:creator>
   </cc:Work>
  </rdf:RDF>
 </metadata>
 <defs>
  <style type="text/css">*{stroke-linejoin: round; stroke-linecap: butt}</style>
 </defs>
 <g id="figure_1">
  <g id="patch_1">
   <path d="M 0 371.647687 
L 432.914531 371.647687 
L 432.914531 0 
L 0 0 
z
" style="fill: #ffffff"/>
  </g>
  <g id="axes_1">
   <g id="patch_2">
    <path d="M 68.594531 288.430125 
L 425.714531 288.430125 
L 425.714531 22.318125 
L 68.594531 22.318125 
z
" style="fill: #ffffff"/>
   </g>
   <g id="matplotlib.axis_1">
    <g id="xtick_1">
     <g id="line2d_1">
      <defs>
       <path id="m44c758eb0b" d="M 0 0 
L 0 3.5 
" style="stroke: #000000; stroke-width: 0.8"/>
      </defs>
      <g>
       <use xlink:href="#m44c758eb0b" x="68.594531" y="288.430125" style="stroke: #000000; stroke-width: 0.8"/>
      </g>
     </g>
     <g id="text_1">
      <!-- 0 -->
      <g transform="translate(65.413281 303.027781) scale(0.1 -0.1)">
       <defs>
        <path id="DejaVuSans-13" d="M 2034 4250 
Q 1547 4250 1301 3770 
Q 1056 3291 1056 2328 
Q 1056 1369 1301 889 
Q 1547 409 2034 409 
Q 2525 409 2770 889 
Q 3016 1369 3016 2328 
Q 3016 3291 2770 3770 
Q 2525 4250 2034 4250 
z
M 2034 4750 
Q 2819 4750 3233 4129 
Q 3647 3509 3647 2328 
Q 3647 1150 3233 529 
Q 2819 -91 2034 -91 
Q 1250 -91 836 529 
Q 422 1150 422 2328 
Q 422 3509 836 4129 
Q 1250 4750 2034 4750 
z
" transform="scale(0.015625)"/>
       </defs>
       <use xlink:href="#DejaVuSans-13"/>
      </g>
     </g>
    </g>
    <g id="xtick_2">
     <g id="line2d_2">
      <g>
       <use xlink:href="#m44c758eb0b" x="112.143095" y="288.430125" style="stroke: #000000; stroke-width: 0.8"/>
      </g>
     </g>
     <g id="text_2">
      <!-- 500  -->
      <g transform="translate(101.010283 303.027781) scale(0.1 -0.1)">
       <defs>
        <path id="DejaVuSans-18" d="M 691 4666 
L 3169 4666 
L 3169 4134 
L 1269 4134 
L 1269 2991 
Q 1406 3038 1543 3061 
Q 1681 3084 1819 3084 
Q 2600 3084 3056 2656 
Q 3513 2228 3513 1497 
Q 3513 744 3044 326 
Q 2575 -91 1722 -91 
Q 1428 -91 1123 -41 
Q 819 9 494 109 
L 494 744 
Q 775 591 1075 516 
Q 1375 441 1709 441 
Q 2250 441 2565 725 
Q 2881 1009 2881 1497 
Q 2881 1984 2565 2268 
Q 2250 2553 1709 2553 
Q 1456 2553 1204 2497 
Q 953 2441 691 2322 
L 691 4666 
z
" transform="scale(0.015625)"/>
        <path id="DejaVuSans-3" transform="scale(0.015625)"/>
       </defs>
       <use xlink:href="#DejaVuSans-18"/>
       <use xlink:href="#DejaVuSans-13" transform="translate(63.625 0)"/>
       <use xlink:href="#DejaVuSans-13" transform="translate(127.25 0)"/>
       <use xlink:href="#DejaVuSans-3" transform="translate(190.875 0)"/>
      </g>
     </g>
    </g>
    <g id="xtick_3">
     <g id="line2d_3">
      <g>
       <use xlink:href="#m44c758eb0b" x="155.691659" y="288.430125" style="stroke: #000000; stroke-width: 0.8"/>
      </g>
     </g>
     <g id="text_3">
      <!-- 1 k -->
      <g transform="translate(148.026034 303.028562) scale(0.1 -0.1)">
       <defs>
        <path id="DejaVuSans-14" d="M 794 531 
L 1825 531 
L 1825 4091 
L 703 3866 
L 703 4441 
L 1819 4666 
L 2450 4666 
L 2450 531 
L 3481 531 
L 3481 0 
L 794 0 
L 794 531 
z
" transform="scale(0.015625)"/>
        <path id="DejaVuSans-4e" d="M 581 4863 
L 1159 4863 
L 1159 1991 
L 2875 3500 
L 3609 3500 
L 1753 1863 
L 3688 0 
L 2938 0 
L 1159 1709 
L 1159 0 
L 581 0 
L 581 4863 
z
" transform="scale(0.015625)"/>
       </defs>
       <use xlink:href="#DejaVuSans-14"/>
       <use xlink:href="#DejaVuSans-3" transform="translate(63.625 0)"/>
       <use xlink:href="#DejaVuSans-4e" transform="translate(95.40625 0)"/>
      </g>
     </g>
    </g>
    <g id="xtick_4">
     <g id="line2d_4">
      <g>
       <use xlink:href="#m44c758eb0b" x="199.240224" y="288.430125" style="stroke: #000000; stroke-width: 0.8"/>
      </g>
     </g>
     <g id="text_4">
      <!-- 1.5 k -->
      <g transform="translate(186.804286 303.028562) scale(0.1 -0.1)">
       <defs>
        <path id="DejaVuSans-11" d="M 684 794 
L 1344 794 
L 1344 0 
L 684 0 
L 684 794 
z
" transform="scale(0.015625)"/>
       </defs>
       <use xlink:href="#DejaVuSans-14"/>
       <use xlink:href="#DejaVuSans-11" transform="translate(63.625 0)"/>
       <use xlink:href="#DejaVuSans-18" transform="translate(95.40625 0)"/>
       <use xlink:href="#DejaVuSans-3" transform="translate(159.03125 0)"/>
       <use xlink:href="#DejaVuSans-4e" transform="translate(190.8125 0)"/>
      </g>
     </g>
    </g>
    <g id="xtick_5">
     <g id="line2d_5">
      <g>
       <use xlink:href="#m44c758eb0b" x="242.788788" y="288.430125" style="stroke: #000000; stroke-width: 0.8"/>
      </g>
     </g>
     <g id="text_5">
      <!-- 2 k -->
      <g transform="translate(235.123163 303.028562) scale(0.1 -0.1)">
       <defs>
        <path id="DejaVuSans-15" d="M 1228 531 
L 3431 531 
L 3431 0 
L 469 0 
L 469 531 
Q 828 903 1448 1529 
Q 2069 2156 2228 2338 
Q 2531 2678 2651 2914 
Q 2772 3150 2772 3378 
Q 2772 3750 2511 3984 
Q 2250 4219 1831 4219 
Q 1534 4219 1204 4116 
Q 875 4013 500 3803 
L 500 4441 
Q 881 4594 1212 4672 
Q 1544 4750 1819 4750 
Q 2544 4750 2975 4387 
Q 3406 4025 3406 3419 
Q 3406 3131 3298 2873 
Q 3191 2616 2906 2266 
Q 2828 2175 2409 1742 
Q 1991 1309 1228 531 
z
" transform="scale(0.015625)"/>
       </defs>
       <use xlink:href="#DejaVuSans-15"/>
       <use xlink:href="#DejaVuSans-3" transform="translate(63.625 0)"/>
       <use xlink:href="#DejaVuSans-4e" transform="translate(95.40625 0)"/>
      </g>
     </g>
    </g>
    <g id="xtick_6">
     <g id="line2d_6">
      <g>
       <use xlink:href="#m44c758eb0b" x="286.337352" y="288.430125" style="stroke: #000000; stroke-width: 0.8"/>
      </g>
     </g>
     <g id="text_6">
      <!-- 2.5 k -->
      <g transform="translate(273.901414 303.028562) scale(0.1 -0.1)">
       <use xlink:href="#DejaVuSans-15"/>
       <use xlink:href="#DejaVuSans-11" transform="translate(63.625 0)"/>
       <use xlink:href="#DejaVuSans-18" transform="translate(95.40625 0)"/>
       <use xlink:href="#DejaVuSans-3" transform="translate(159.03125 0)"/>
       <use xlink:href="#DejaVuSans-4e" transform="translate(190.8125 0)"/>
      </g>
     </g>
    </g>
    <g id="xtick_7">
     <g id="line2d_7">
      <g>
       <use xlink:href="#m44c758eb0b" x="329.885916" y="288.430125" style="stroke: #000000; stroke-width: 0.8"/>
      </g>
     </g>
     <g id="text_7">
      <!-- 3 k -->
      <g transform="translate(322.220291 303.028562) scale(0.1 -0.1)">
       <defs>
        <path id="DejaVuSans-16" d="M 2597 2516 
Q 3050 2419 3304 2112 
Q 3559 1806 3559 1356 
Q 3559 666 3084 287 
Q 2609 -91 1734 -91 
Q 1441 -91 1130 -33 
Q 819 25 488 141 
L 488 750 
Q 750 597 1062 519 
Q 1375 441 1716 441 
Q 2309 441 2620 675 
Q 2931 909 2931 1356 
Q 2931 1769 2642 2001 
Q 2353 2234 1838 2234 
L 1294 2234 
L 1294 2753 
L 1863 2753 
Q 2328 2753 2575 2939 
Q 2822 3125 2822 3475 
Q 2822 3834 2567 4026 
Q 2313 4219 1838 4219 
Q 1578 4219 1281 4162 
Q 984 4106 628 3988 
L 628 4550 
Q 988 4650 1302 4700 
Q 1616 4750 1894 4750 
Q 2613 4750 3031 4423 
Q 3450 4097 3450 3541 
Q 3450 3153 3228 2886 
Q 3006 2619 2597 2516 
z
" transform="scale(0.015625)"/>
       </defs>
       <use xlink:href="#DejaVuSans-16"/>
       <use xlink:href="#DejaVuSans-3" transform="translate(63.625 0)"/>
       <use xlink:href="#DejaVuSans-4e" transform="translate(95.40625 0)"/>
      </g>
     </g>
    </g>
    <g id="xtick_8">
     <g id="line2d_8">
      <g>
       <use xlink:href="#m44c758eb0b" x="373.43448" y="288.430125" style="stroke: #000000; stroke-width: 0.8"/>
      </g>
     </g>
     <g id="text_8">
      <!-- 3.5 k -->
      <g transform="translate(360.998543 303.028562) scale(0.1 -0.1)">
       <use xlink:href="#DejaVuSans-16"/>
       <use xlink:href="#DejaVuSans-11" transform="translate(63.625 0)"/>
       <use xlink:href="#DejaVuSans-18" transform="translate(95.40625 0)"/>
       <use xlink:href="#DejaVuSans-3" transform="translate(159.03125 0)"/>
       <use xlink:href="#DejaVuSans-4e" transform="translate(190.8125 0)"/>
      </g>
     </g>
    </g>
    <g id="xtick_9">
     <g id="line2d_9">
      <g>
       <use xlink:href="#m44c758eb0b" x="416.983044" y="288.430125" style="stroke: #000000; stroke-width: 0.8"/>
      </g>
     </g>
     <g id="text_9">
      <!-- 4 k -->
      <g transform="translate(409.317419 303.028562) scale(0.1 -0.1)">
       <defs>
        <path id="DejaVuSans-17" d="M 2419 4116 
L 825 1625 
L 2419 1625 
L 2419 4116 
z
M 2253 4666 
L 3047 4666 
L 3047 1625 
L 3713 1625 
L 3713 1100 
L 3047 1100 
L 3047 0 
L 2419 0 
L 2419 1100 
L 313 1100 
L 313 1709 
L 2253 4666 
z
" transform="scale(0.015625)"/>
       </defs>
       <use xlink:href="#DejaVuSans-17"/>
       <use xlink:href="#DejaVuSans-3" transform="translate(63.625 0)"/>
       <use xlink:href="#DejaVuSans-4e" transform="translate(95.40625 0)"/>
      </g>
     </g>
    </g>
    <g id="text_10">
     <!-- Amount of objects in table -->
     <g transform="translate(181.095938 317.029344) scale(0.1 -0.1)">
      <defs>
       <path id="DejaVuSans-24" d="M 2188 4044 
L 1331 1722 
L 3047 1722 
L 2188 4044 
z
M 1831 4666 
L 2547 4666 
L 4325 0 
L 3669 0 
L 3244 1197 
L 1141 1197 
L 716 0 
L 50 0 
L 1831 4666 
z
" transform="scale(0.015625)"/>
       <path id="DejaVuSans-50" d="M 3328 2828 
Q 3544 3216 3844 3400 
Q 4144 3584 4550 3584 
Q 5097 3584 5394 3201 
Q 5691 2819 5691 2113 
L 5691 0 
L 5113 0 
L 5113 2094 
Q 5113 2597 4934 2840 
Q 4756 3084 4391 3084 
Q 3944 3084 3684 2787 
Q 3425 2491 3425 1978 
L 3425 0 
L 2847 0 
L 2847 2094 
Q 2847 2600 2669 2842 
Q 2491 3084 2119 3084 
Q 1678 3084 1418 2786 
Q 1159 2488 1159 1978 
L 1159 0 
L 581 0 
L 581 3500 
L 1159 3500 
L 1159 2956 
Q 1356 3278 1631 3431 
Q 1906 3584 2284 3584 
Q 2666 3584 2933 3390 
Q 3200 3197 3328 2828 
z
" transform="scale(0.015625)"/>
       <path id="DejaVuSans-52" d="M 1959 3097 
Q 1497 3097 1228 2736 
Q 959 2375 959 1747 
Q 959 1119 1226 758 
Q 1494 397 1959 397 
Q 2419 397 2687 759 
Q 2956 1122 2956 1747 
Q 2956 2369 2687 2733 
Q 2419 3097 1959 3097 
z
M 1959 3584 
Q 2709 3584 3137 3096 
Q 3566 2609 3566 1747 
Q 3566 888 3137 398 
Q 2709 -91 1959 -91 
Q 1206 -91 779 398 
Q 353 888 353 1747 
Q 353 2609 779 3096 
Q 1206 3584 1959 3584 
z
" transform="scale(0.015625)"/>
       <path id="DejaVuSans-58" d="M 544 1381 
L 544 3500 
L 1119 3500 
L 1119 1403 
Q 1119 906 1312 657 
Q 1506 409 1894 409 
Q 2359 409 2629 706 
Q 2900 1003 2900 1516 
L 2900 3500 
L 3475 3500 
L 3475 0 
L 2900 0 
L 2900 538 
Q 2691 219 2414 64 
Q 2138 -91 1772 -91 
Q 1169 -91 856 284 
Q 544 659 544 1381 
z
M 1991 3584 
L 1991 3584 
z
" transform="scale(0.015625)"/>
       <path id="DejaVuSans-51" d="M 3513 2113 
L 3513 0 
L 2938 0 
L 2938 2094 
Q 2938 2591 2744 2837 
Q 2550 3084 2163 3084 
Q 1697 3084 1428 2787 
Q 1159 2491 1159 1978 
L 1159 0 
L 581 0 
L 581 3500 
L 1159 3500 
L 1159 2956 
Q 1366 3272 1645 3428 
Q 1925 3584 2291 3584 
Q 2894 3584 3203 3211 
Q 3513 2838 3513 2113 
z
" transform="scale(0.015625)"/>
       <path id="DejaVuSans-57" d="M 1172 4494 
L 1172 3500 
L 2356 3500 
L 2356 3053 
L 1172 3053 
L 1172 1153 
Q 1172 725 1289 603 
Q 1406 481 1766 481 
L 2356 481 
L 2356 0 
L 1766 0 
Q 1100 0 847 248 
Q 594 497 594 1153 
L 594 3053 
L 172 3053 
L 172 3500 
L 594 3500 
L 594 4494 
L 1172 4494 
z
" transform="scale(0.015625)"/>
       <path id="DejaVuSans-49" d="M 2375 4863 
L 2375 4384 
L 1825 4384 
Q 1516 4384 1395 4259 
Q 1275 4134 1275 3809 
L 1275 3500 
L 2222 3500 
L 2222 3053 
L 1275 3053 
L 1275 0 
L 697 0 
L 697 3053 
L 147 3053 
L 147 3500 
L 697 3500 
L 697 3744 
Q 697 4328 969 4595 
Q 1241 4863 1831 4863 
L 2375 4863 
z
" transform="scale(0.015625)"/>
       <path id="DejaVuSans-45" d="M 3116 1747 
Q 3116 2381 2855 2742 
Q 2594 3103 2138 3103 
Q 1681 3103 1420 2742 
Q 1159 2381 1159 1747 
Q 1159 1113 1420 752 
Q 1681 391 2138 391 
Q 2594 391 2855 752 
Q 3116 1113 3116 1747 
z
M 1159 2969 
Q 1341 3281 1617 3432 
Q 1894 3584 2278 3584 
Q 2916 3584 3314 3078 
Q 3713 2572 3713 1747 
Q 3713 922 3314 415 
Q 2916 -91 2278 -91 
Q 1894 -91 1617 61 
Q 1341 213 1159 525 
L 1159 0 
L 581 0 
L 581 4863 
L 1159 4863 
L 1159 2969 
z
" transform="scale(0.015625)"/>
       <path id="DejaVuSans-4d" d="M 603 3500 
L 1178 3500 
L 1178 -63 
Q 1178 -731 923 -1031 
Q 669 -1331 103 -1331 
L -116 -1331 
L -116 -844 
L 38 -844 
Q 366 -844 484 -692 
Q 603 -541 603 -63 
L 603 3500 
z
M 603 4863 
L 1178 4863 
L 1178 4134 
L 603 4134 
L 603 4863 
z
" transform="scale(0.015625)"/>
       <path id="DejaVuSans-48" d="M 3597 1894 
L 3597 1613 
L 953 1613 
Q 991 1019 1311 708 
Q 1631 397 2203 397 
Q 2534 397 2845 478 
Q 3156 559 3463 722 
L 3463 178 
Q 3153 47 2828 -22 
Q 2503 -91 2169 -91 
Q 1331 -91 842 396 
Q 353 884 353 1716 
Q 353 2575 817 3079 
Q 1281 3584 2069 3584 
Q 2775 3584 3186 3129 
Q 3597 2675 3597 1894 
z
M 3022 2063 
Q 3016 2534 2758 2815 
Q 2500 3097 2075 3097 
Q 1594 3097 1305 2825 
Q 1016 2553 972 2059 
L 3022 2063 
z
" transform="scale(0.015625)"/>
       <path id="DejaVuSans-46" d="M 3122 3366 
L 3122 2828 
Q 2878 2963 2633 3030 
Q 2388 3097 2138 3097 
Q 1578 3097 1268 2742 
Q 959 2388 959 1747 
Q 959 1106 1268 751 
Q 1578 397 2138 397 
Q 2388 397 2633 464 
Q 2878 531 3122 666 
L 3122 134 
Q 2881 22 2623 -34 
Q 2366 -91 2075 -91 
Q 1284 -91 818 406 
Q 353 903 353 1747 
Q 353 2603 823 3093 
Q 1294 3584 2113 3584 
Q 2378 3584 2631 3529 
Q 2884 3475 3122 3366 
z
" transform="scale(0.015625)"/>
       <path id="DejaVuSans-56" d="M 2834 3397 
L 2834 2853 
Q 2591 2978 2328 3040 
Q 2066 3103 1784 3103 
Q 1356 3103 1142 2972 
Q 928 2841 928 2578 
Q 928 2378 1081 2264 
Q 1234 2150 1697 2047 
L 1894 2003 
Q 2506 1872 2764 1633 
Q 3022 1394 3022 966 
Q 3022 478 2636 193 
Q 2250 -91 1575 -91 
Q 1294 -91 989 -36 
Q 684 19 347 128 
L 347 722 
Q 666 556 975 473 
Q 1284 391 1588 391 
Q 1994 391 2212 530 
Q 2431 669 2431 922 
Q 2431 1156 2273 1281 
Q 2116 1406 1581 1522 
L 1381 1569 
Q 847 1681 609 1914 
Q 372 2147 372 2553 
Q 372 3047 722 3315 
Q 1072 3584 1716 3584 
Q 2034 3584 2315 3537 
Q 2597 3491 2834 3397 
z
" transform="scale(0.015625)"/>
       <path id="DejaVuSans-4c" d="M 603 3500 
L 1178 3500 
L 1178 0 
L 603 0 
L 603 3500 
z
M 603 4863 
L 1178 4863 
L 1178 4134 
L 603 4134 
L 603 4863 
z
" transform="scale(0.015625)"/>
       <path id="DejaVuSans-44" d="M 2194 1759 
Q 1497 1759 1228 1600 
Q 959 1441 959 1056 
Q 959 750 1161 570 
Q 1363 391 1709 391 
Q 2188 391 2477 730 
Q 2766 1069 2766 1631 
L 2766 1759 
L 2194 1759 
z
M 3341 1997 
L 3341 0 
L 2766 0 
L 2766 531 
Q 2569 213 2275 61 
Q 1981 -91 1556 -91 
Q 1019 -91 701 211 
Q 384 513 384 1019 
Q 384 1609 779 1909 
Q 1175 2209 1959 2209 
L 2766 2209 
L 2766 2266 
Q 2766 2663 2505 2880 
Q 2244 3097 1772 3097 
Q 1472 3097 1187 3025 
Q 903 2953 641 2809 
L 641 3341 
Q 956 3463 1253 3523 
Q 1550 3584 1831 3584 
Q 2591 3584 2966 3190 
Q 3341 2797 3341 1997 
z
" transform="scale(0.015625)"/>
       <path id="DejaVuSans-4f" d="M 603 4863 
L 1178 4863 
L 1178 0 
L 603 0 
L 603 4863 
z
" transform="scale(0.015625)"/>
      </defs>
      <use xlink:href="#DejaVuSans-24"/>
      <use xlink:href="#DejaVuSans-50" transform="translate(68.40625 0)"/>
      <use xlink:href="#DejaVuSans-52" transform="translate(165.8125 0)"/>
      <use xlink:href="#DejaVuSans-58" transform="translate(227 0)"/>
      <use xlink:href="#DejaVuSans-51" transform="translate(290.375 0)"/>
      <use xlink:href="#DejaVuSans-57" transform="translate(353.75 0)"/>
      <use xlink:href="#DejaVuSans-3" transform="translate(392.953125 0)"/>
      <use xlink:href="#DejaVuSans-52" transform="translate(424.734375 0)"/>
      <use xlink:href="#DejaVuSans-49" transform="translate(485.921875 0)"/>
      <use xlink:href="#DejaVuSans-3" transform="translate(521.125 0)"/>
      <use xlink:href="#DejaVuSans-52" transform="translate(552.90625 0)"/>
      <use xlink:href="#DejaVuSans-45" transform="translate(614.09375 0)"/>
      <use xlink:href="#DejaVuSans-4d" transform="translate(677.578125 0)"/>
      <use xlink:href="#DejaVuSans-48" transform="translate(705.359375 0)"/>
      <use xlink:href="#DejaVuSans-46" transform="translate(766.890625 0)"/>
      <use xlink:href="#DejaVuSans-57" transform="translate(821.875 0)"/>
      <use xlink:href="#DejaVuSans-56" transform="translate(861.078125 0)"/>
      <use xlink:href="#DejaVuSans-3" transform="translate(913.171875 0)"/>
      <use xlink:href="#DejaVuSans-4c" transform="translate(944.953125 0)"/>
      <use xlink:href="#DejaVuSans-51" transform="translate(972.734375 0)"/>
      <use xlink:href="#DejaVuSans-3" transform="translate(1036.109375 0)"/>
      <use xlink:href="#DejaVuSans-57" transform="translate(1067.890625 0)"/>
      <use xlink:href="#DejaVuSans-44" transform="translate(1107.09375 0)"/>
      <use xlink:href="#DejaVuSans-45" transform="translate(1168.375 0)"/>
      <use xlink:href="#DejaVuSans-4f" transform="translate(1231.859375 0)"/>
      <use xlink:href="#DejaVuSans-48" transform="translate(1259.640625 0)"/>
     </g>
    </g>
   </g>
   <g id="matplotlib.axis_2">
    <g id="ytick_1">
     <g id="line2d_10">
      <defs>
       <path id="mb62dcd9b48" d="M 0 0 
L -3.5 0 
" style="stroke: #000000; stroke-width: 0.8"/>
      </defs>
      <g>
       <use xlink:href="#mb62dcd9b48" x="68.594531" y="288.430125" style="stroke: #000000; stroke-width: 0.8"/>
      </g>
     </g>
     <g id="text_11">
      <!-- 0 -->
      <g transform="translate(55.232031 292.228953) scale(0.1 -0.1)">
       <use xlink:href="#DejaVuSans-13"/>
      </g>
     </g>
    </g>
    <g id="ytick_2">
     <g id="line2d_11">
      <g>
       <use xlink:href="#mb62dcd9b48" x="68.594531" y="253.874285" style="stroke: #000000; stroke-width: 0.8"/>
      </g>
     </g>
     <g id="text_12">
      <!-- 2.5 ms -->
      <g transform="translate(27.563281 257.673113) scale(0.1 -0.1)">
       <use xlink:href="#DejaVuSans-15"/>
       <use xlink:href="#DejaVuSans-11" transform="translate(63.625 0)"/>
       <use xlink:href="#DejaVuSans-18" transform="translate(95.40625 0)"/>
       <use xlink:href="#DejaVuSans-3" transform="translate(159.03125 0)"/>
       <use xlink:href="#DejaVuSans-50" transform="translate(190.8125 0)"/>
       <use xlink:href="#DejaVuSans-56" transform="translate(288.21875 0)"/>
      </g>
     </g>
    </g>
    <g id="ytick_3">
     <g id="line2d_12">
      <g>
       <use xlink:href="#mb62dcd9b48" x="68.594531" y="219.318445" style="stroke: #000000; stroke-width: 0.8"/>
      </g>
     </g>
     <g id="text_13">
      <!-- 5 ms -->
      <g transform="translate(37.103906 223.117273) scale(0.1 -0.1)">
       <use xlink:href="#DejaVuSans-18"/>
       <use xlink:href="#DejaVuSans-3" transform="translate(63.625 0)"/>
       <use xlink:href="#DejaVuSans-50" transform="translate(95.40625 0)"/>
       <use xlink:href="#DejaVuSans-56" transform="translate(192.8125 0)"/>
      </g>
     </g>
    </g>
    <g id="ytick_4">
     <g id="line2d_13">
      <g>
       <use xlink:href="#mb62dcd9b48" x="68.594531" y="184.762606" style="stroke: #000000; stroke-width: 0.8"/>
      </g>
     </g>
     <g id="text_14">
      <!-- 7.5 ms -->
      <g transform="translate(27.563281 188.561434) scale(0.1 -0.1)">
       <defs>
        <path id="DejaVuSans-1a" d="M 525 4666 
L 3525 4666 
L 3525 4397 
L 1831 0 
L 1172 0 
L 2766 4134 
L 525 4134 
L 525 4666 
z
" transform="scale(0.015625)"/>
       </defs>
       <use xlink:href="#DejaVuSans-1a"/>
       <use xlink:href="#DejaVuSans-11" transform="translate(63.625 0)"/>
       <use xlink:href="#DejaVuSans-18" transform="translate(95.40625 0)"/>
       <use xlink:href="#DejaVuSans-3" transform="translate(159.03125 0)"/>
       <use xlink:href="#DejaVuSans-50" transform="translate(190.8125 0)"/>
       <use xlink:href="#DejaVuSans-56" transform="translate(288.21875 0)"/>
      </g>
     </g>
    </g>
    <g id="ytick_5">
     <g id="line2d_14">
      <g>
       <use xlink:href="#mb62dcd9b48" x="68.594531" y="150.206766" style="stroke: #000000; stroke-width: 0.8"/>
      </g>
     </g>
     <g id="text_15">
      <!-- 10 ms -->
      <g transform="translate(30.741406 154.005594) scale(0.1 -0.1)">
       <use xlink:href="#DejaVuSans-14"/>
       <use xlink:href="#DejaVuSans-13" transform="translate(63.625 0)"/>
       <use xlink:href="#DejaVuSans-3" transform="translate(127.25 0)"/>
       <use xlink:href="#DejaVuSans-50" transform="translate(159.03125 0)"/>
       <use xlink:href="#DejaVuSans-56" transform="translate(256.4375 0)"/>
      </g>
     </g>
    </g>
    <g id="ytick_6">
     <g id="line2d_15">
      <g>
       <use xlink:href="#mb62dcd9b48" x="68.594531" y="115.650926" style="stroke: #000000; stroke-width: 0.8"/>
      </g>
     </g>
     <g id="text_16">
      <!-- 12.5 ms -->
      <g transform="translate(21.200781 119.449754) scale(0.1 -0.1)">
       <use xlink:href="#DejaVuSans-14"/>
       <use xlink:href="#DejaVuSans-15" transform="translate(63.625 0)"/>
       <use xlink:href="#DejaVuSans-11" transform="translate(127.25 0)"/>
       <use xlink:href="#DejaVuSans-18" transform="translate(159.03125 0)"/>
       <use xlink:href="#DejaVuSans-3" transform="translate(222.65625 0)"/>
       <use xlink:href="#DejaVuSans-50" transform="translate(254.4375 0)"/>
       <use xlink:href="#DejaVuSans-56" transform="translate(351.84375 0)"/>
      </g>
     </g>
    </g>
    <g id="ytick_7">
     <g id="line2d_16">
      <g>
       <use xlink:href="#mb62dcd9b48" x="68.594531" y="81.095086" style="stroke: #000000; stroke-width: 0.8"/>
      </g>
     </g>
     <g id="text_17">
      <!-- 15 ms -->
      <g transform="translate(30.741406 84.893914) scale(0.1 -0.1)">
       <use xlink:href="#DejaVuSans-14"/>
       <use xlink:href="#DejaVuSans-18" transform="translate(63.625 0)"/>
       <use xlink:href="#DejaVuSans-3" transform="translate(127.25 0)"/>
       <use xlink:href="#DejaVuSans-50" transform="translate(159.03125 0)"/>
       <use xlink:href="#DejaVuSans-56" transform="translate(256.4375 0)"/>
      </g>
     </g>
    </g>
    <g id="ytick_8">
     <g id="line2d_17">
      <g>
       <use xlink:href="#mb62dcd9b48" x="68.594531" y="46.539246" style="stroke: #000000; stroke-width: 0.8"/>
      </g>
     </g>
     <g id="text_18">
      <!-- 17.5 ms -->
      <g transform="translate(21.200781 50.338074) scale(0.1 -0.1)">
       <use xlink:href="#DejaVuSans-14"/>
       <use xlink:href="#DejaVuSans-1a" transform="translate(63.625 0)"/>
       <use xlink:href="#DejaVuSans-11" transform="translate(127.25 0)"/>
       <use xlink:href="#DejaVuSans-18" transform="translate(159.03125 0)"/>
       <use xlink:href="#DejaVuSans-3" transform="translate(222.65625 0)"/>
       <use xlink:href="#DejaVuSans-50" transform="translate(254.4375 0)"/>
       <use xlink:href="#DejaVuSans-56" transform="translate(351.84375 0)"/>
      </g>
     </g>
    </g>
    <g id="text_19">
     <!-- Write latency (s) -->
     <g transform="translate(14.798437 196.626469) rotate(-90) scale(0.1 -0.1)">
      <defs>
       <path id="DejaVuSans-3a" d="M 213 4666 
L 850 4666 
L 1831 722 
L 2809 4666 
L 3519 4666 
L 4500 722 
L 5478 4666 
L 6119 4666 
L 4947 0 
L 4153 0 
L 3169 4050 
L 2175 0 
L 1381 0 
L 213 4666 
z
" transform="scale(0.015625)"/>
       <path id="DejaVuSans-55" d="M 2631 2963 
Q 2534 3019 2420 3045 
Q 2306 3072 2169 3072 
Q 1681 3072 1420 2755 
Q 1159 2438 1159 1844 
L 1159 0 
L 581 0 
L 581 3500 
L 1159 3500 
L 1159 2956 
Q 1341 3275 1631 3429 
Q 1922 3584 2338 3584 
Q 2397 3584 2469 3576 
Q 2541 3569 2628 3553 
L 2631 2963 
z
" transform="scale(0.015625)"/>
       <path id="DejaVuSans-5c" d="M 2059 -325 
Q 1816 -950 1584 -1140 
Q 1353 -1331 966 -1331 
L 506 -1331 
L 506 -850 
L 844 -850 
Q 1081 -850 1212 -737 
Q 1344 -625 1503 -206 
L 1606 56 
L 191 3500 
L 800 3500 
L 1894 763 
L 2988 3500 
L 3597 3500 
L 2059 -325 
z
" transform="scale(0.015625)"/>
       <path id="DejaVuSans-b" d="M 1984 4856 
Q 1566 4138 1362 3434 
Q 1159 2731 1159 2009 
Q 1159 1288 1364 580 
Q 1569 -128 1984 -844 
L 1484 -844 
Q 1016 -109 783 600 
Q 550 1309 550 2009 
Q 550 2706 781 3412 
Q 1013 4119 1484 4856 
L 1984 4856 
z
" transform="scale(0.015625)"/>
       <path id="DejaVuSans-c" d="M 513 4856 
L 1013 4856 
Q 1481 4119 1714 3412 
Q 1947 2706 1947 2009 
Q 1947 1309 1714 600 
Q 1481 -109 1013 -844 
L 513 -844 
Q 928 -128 1133 580 
Q 1338 1288 1338 2009 
Q 1338 2731 1133 3434 
Q 928 4138 513 4856 
z
" transform="scale(0.015625)"/>
      </defs>
      <use xlink:href="#DejaVuSans-3a"/>
      <use xlink:href="#DejaVuSans-55" transform="translate(94.390625 0)"/>
      <use xlink:href="#DejaVuSans-4c" transform="translate(135.5 0)"/>
      <use xlink:href="#DejaVuSans-57" transform="translate(163.28125 0)"/>
      <use xlink:href="#DejaVuSans-48" transform="translate(202.484375 0)"/>
      <use xlink:href="#DejaVuSans-3" transform="translate(264.015625 0)"/>
      <use xlink:href="#DejaVuSans-4f" transform="translate(295.796875 0)"/>
      <use xlink:href="#DejaVuSans-44" transform="translate(323.578125 0)"/>
      <use xlink:href="#DejaVuSans-57" transform="translate(384.859375 0)"/>
      <use xlink:href="#DejaVuSans-48" transform="translate(424.0625 0)"/>
      <use xlink:href="#DejaVuSans-51" transform="translate(485.59375 0)"/>
      <use xlink:href="#DejaVuSans-46" transform="translate(548.96875 0)"/>
      <use xlink:href="#DejaVuSans-5c" transform="translate(603.953125 0)"/>
      <use xlink:href="#DejaVuSans-3" transform="translate(663.140625 0)"/>
      <use xlink:href="#DejaVuSans-b" transform="translate(694.921875 0)"/>
      <use xlink:href="#DejaVuSans-56" transform="translate(733.9375 0)"/>
      <use xlink:href="#DejaVuSans-c" transform="translate(786.03125 0)"/>
     </g>
    </g>
   </g>
   <g id="line2d_18">
    <path d="M 153.949717 248.773866 
L 156.127145 248.036299 
L 159.175545 247.089932 
L 160.046516 246.688168 
L 162.223944 245.857871 
L 163.965887 245.030531 
L 165.272344 244.39962 
L 167.014286 243.286737 
L 171.804628 240.897448 
L 175.288513 238.572598 
L 177.030456 237.392673 
L 178.772398 235.64043 
L 179.207884 234.278982 
L 180.514341 232.996863 
L 181.385312 232.179916 
L 182.691769 230.640545 
L 184.869197 228.374863 
L 186.175654 227.222637 
L 187.917597 225.465949 
L 188.353083 225.234266 
L 194.885367 218.615479 
L 195.756338 217.776563 
L 197.498281 215.959778 
L 197.933767 215.665245 
L 200.546681 212.990396 
L 203.159594 210.538796 
L 204.030566 209.699221 
L 204.901537 209.148635 
L 206.643479 207.221984 
L 210.56285 203.988066 
L 211.869307 202.701383 
L 218.401592 196.190942 
L 219.272563 194.882966 
L 221.014506 192.99897 
L 221.449991 192.302419 
L 221.885477 191.863932 
L 225.369362 184.889247 
L 226.240333 183.079662 
L 231.466161 173.342823 
L 231.901647 172.760449 
L 233.643589 169.337741 
L 234.514561 167.625382 
L 234.950046 166.4365 
L 236.256503 163.936853 
L 237.127474 162.486866 
L 237.56296 161.280358 
L 241.917816 152.825892 
L 243.224273 149.939286 
L 244.095245 148.301658 
L 244.53073 147.320241 
L 244.966216 145.976403 
L 245.401702 145.209109 
L 245.837187 144.003716 
L 246.272673 143.225842 
L 247.143644 141.212493 
L 251.063015 133.79633 
L 251.933986 132.455416 
L 252.804957 130.648585 
L 253.675929 129.120976 
L 257.159814 121.21718 
L 259.337242 116.773779 
L 260.643699 113.409917 
L 261.950156 110.2883 
L 262.821127 109.013431 
L 263.256613 108.131825 
L 263.692098 105.566285 
L 264.127584 104.147343 
L 264.998555 102.795968 
L 266.305012 100.392449 
L 266.740498 99.76218 
L 267.611469 98.195938 
L 268.917926 96.2039 
L 269.353412 93.497871 
L 272.837297 86.488085 
L 273.708268 85.303563 
L 274.579239 83.971876 
L 276.321182 82.254244 
L 276.756668 81.534743 
L 277.627639 80.573606 
L 279.805067 77.898013 
L 280.676038 76.331873 
L 281.54701 75.588475 
L 281.982495 75.08139 
L 282.417981 74.815181 
L 282.853467 74.362295 
L 285.466381 72.65318 
L 286.772837 71.491406 
L 287.208323 70.969669 
L 288.079294 70.306732 
L 288.950266 69.478699 
L 289.385751 69.200728 
L 289.821237 68.599341 
L 290.256723 68.24679 
L 291.56318 67.704553 
L 292.434151 67.150064 
L 292.869636 66.673788 
L 293.740608 66.199456 
L 294.176093 65.762134 
L 294.611579 65.057995 
L 295.918036 64.228644 
L 296.789007 63.530691 
L 297.224493 63.362079 
L 297.659978 62.864661 
L 298.095464 62.76605 
L 298.966435 62.163294 
L 300.708378 60.355956 
L 301.143864 60.08537 
L 301.579349 60.016452 
L 302.014835 59.419054 
L 302.450321 59.119383 
L 302.885806 58.414923 
L 303.321292 57.967343 
L 303.756777 57.961952 
L 304.192263 57.840677 
L 305.063234 57.184011 
L 306.369691 56.385654 
L 306.805177 56.355522 
L 307.240663 56.07341 
L 307.676148 55.540367 
L 308.111634 55.33804 
L 308.54712 54.976092 
L 309.853576 54.74921 
L 311.160033 54.231005 
L 312.031005 53.822464 
L 312.46649 53.835747 
L 312.901976 53.535941 
L 313.337462 53.564603 
L 313.772947 53.406673 
L 314.208433 52.954243 
L 314.643918 52.874289 
L 315.079404 52.397776 
L 315.51489 52.23775 
L 315.950375 49.721018 
L 317.256832 49.320031 
L 317.692318 47.519893 
L 318.127804 47.375178 
L 318.563289 47.072668 
L 318.998775 47.100012 
L 319.434261 46.721367 
L 319.869746 45.882028 
L 320.740717 45.8317 
L 321.611689 45.399821 
L 322.047174 45.199809 
L 322.48266 45.482005 
L 322.918146 45.331832 
L 323.353631 42.808323 
L 323.789117 42.765261 
L 324.224603 42.297976 
L 325.53106 42.114881 
L 325.966545 41.882895 
L 326.402031 40.175284 
L 326.837516 40.074391 
L 327.273002 40.232981 
L 327.708488 40.248411 
L 328.143973 40.554335 
L 329.014945 40.47531 
L 329.45043 40.571792 
L 330.321402 39.565059 
L 330.756887 37.79316 
L 331.192373 37.314248 
L 331.627858 37.447505 
L 332.063344 37.311814 
L 332.49883 37.469762 
L 332.934315 37.463475 
L 333.805287 37.293005 
L 334.240772 36.173312 
L 335.111744 35.828619 
L 335.547229 35.587608 
L 335.982715 35.81013 
L 336.853686 35.31136 
L 337.289172 35.615239 
L 337.724657 35.737004 
L 339.031114 34.990125 
L 339.4666 35.442488 
L 339.902086 35.673882 
L 340.337571 36.173295 
L 340.773057 36.426491 
L 342.515 38.801364 
L 343.385971 39.704467 
L 343.821456 40.612048 
L 344.256942 40.939621 
L 344.692428 41.816512 
L 345.127913 42.429847 
L 345.563399 42.813325 
L 346.43437 44.062489 
L 346.869856 44.795645 
L 347.740827 45.223537 
L 348.176313 45.906179 
L 349.047284 50.487805 
L 349.48277 50.652816 
L 350.353741 51.96784 
L 350.789227 52.408575 
L 352.095684 54.639326 
L 352.531169 53.421207 
L 353.837626 54.958144 
L 354.273112 57.326241 
L 354.708597 57.795436 
L 355.144083 56.148716 
L 356.015054 57.259013 
L 356.886026 58.395201 
L 357.756997 59.65175 
L 359.063454 61.014533 
L 359.49894 61.321403 
L 359.934425 61.406562 
L 360.805396 62.055675 
L 362.111853 63.024248 
L 362.547339 63.072143 
L 363.853796 63.944099 
L 364.724767 64.201689 
L 365.595738 65.366082 
L 366.031224 65.236476 
L 366.902195 65.629452 
L 367.337681 65.824191 
L 367.773167 65.757977 
L 368.208652 64.753626 
L 368.644138 64.828121 
L 369.079624 64.663633 
L 370.386081 64.995921 
L 370.821566 63.758418 
L 371.257052 63.334093 
L 371.692537 63.325102 
L 372.128023 63.589891 
L 372.998994 63.739135 
L 373.43448 64.114417 
L 374.305451 63.956537 
L 374.740937 64.056534 
L 375.176423 63.864753 
L 375.611908 63.844811 
L 376.047394 63.968333 
L 376.48288 63.734454 
L 377.353851 63.619416 
L 377.789336 63.774727 
L 378.660308 63.498107 
L 379.095793 63.69408 
L 379.531279 64.190602 
L 379.966765 64.147355 
L 380.40225 63.930258 
L 382.579678 64.541446 
L 383.015164 64.497625 
L 383.45065 64.307804 
L 383.886135 64.545097 
L 384.757107 65.191049 
L 385.192592 65.361046 
L 386.063564 65.909941 
L 386.499049 65.852025 
L 386.934535 66.182505 
L 388.240992 65.972522 
L 389.111963 65.978708 
L 389.982934 66.307176 
L 390.41842 66.310928 
L 391.289391 65.835446 
L 391.724877 65.268231 
L 392.160363 64.954905 
L 392.595848 65.31038 
L 393.031334 65.3179 
L 394.337791 65.017063 
L 394.773276 64.604348 
L 395.208762 64.47432 
L 395.644248 64.610044 
L 396.079733 64.526203 
L 397.821676 62.7552 
L 398.692647 62.43797 
L 399.128133 62.568877 
L 399.563619 62.079842 
L 399.999104 61.945318 
L 400.43459 61.377951 
L 400.870075 63.427432 
L 401.305561 63.339467 
L 402.176532 62.848944 
L 402.612018 64.338258 
L 403.047504 63.996134 
L 403.482989 64.047561 
L 403.918475 63.764908 
L 404.353961 63.846636 
L 404.789446 64.1953 
L 405.224932 63.696666 
L 406.095903 63.240332 
L 406.531389 62.847102 
L 407.837846 62.462475 
L 408.273331 64.701675 
L 408.708817 64.110445 
L 408.708817 64.110445 
" clip-path="url(#p1ae7b9ec8c)" style="fill: none; stroke: #1f77b4; stroke-opacity: 0.8; stroke-width: 1.5; stroke-linecap: square"/>
   </g>
   <g id="line2d_19">
    <path d="M 153.949717 281.576952 
L 161.788458 281.425409 
L 169.6272 281.17921 
L 173.111085 281.111154 
L 180.949827 280.996994 
L 183.562741 280.933636 
L 188.788568 280.800278 
L 190.965996 280.762321 
L 197.062795 280.673342 
L 204.466051 280.579378 
L 208.385422 280.38589 
L 210.127365 280.142648 
L 215.788678 279.12258 
L 218.837077 278.420047 
L 219.272563 278.311498 
L 219.708049 277.882154 
L 220.57902 277.674283 
L 221.014506 277.38068 
L 221.449991 276.941499 
L 223.627419 276.222792 
L 230.59519 272.909208 
L 231.901647 272.136506 
L 232.337132 271.728996 
L 233.208104 269.728727 
L 234.950046 268.702643 
L 236.691989 267.598988 
L 237.127474 266.640961 
L 241.046845 264.227487 
L 246.272673 261.021083 
L 247.57913 259.979822 
L 250.192044 257.911447 
L 251.063015 257.147043 
L 252.804957 255.815559 
L 255.417871 253.41302 
L 255.853357 252.013648 
L 256.724328 251.206504 
L 260.208213 247.704332 
L 261.51467 246.270214 
L 266.740498 240.888558 
L 275.450211 231.121942 
L 292.869636 210.020524 
L 293.740608 208.759158 
L 297.659978 204.14003 
L 302.014835 199.299361 
L 304.627749 197.126223 
L 305.934206 196.098922 
L 306.369691 195.987061 
L 308.982605 193.717694 
L 310.289062 192.758196 
L 311.595519 191.619625 
L 312.901976 190.640912 
L 314.208433 189.541887 
L 315.51489 188.699422 
L 315.950375 187.4847 
L 316.385861 187.267281 
L 316.821347 186.60759 
L 317.256832 186.515535 
L 318.127804 187.474104 
L 319.869746 186.374995 
L 321.611689 185.206156 
L 322.047174 185.45626 
L 324.224603 184.057378 
L 324.660088 183.633492 
L 325.53106 183.145217 
L 326.837516 182.284466 
L 327.708488 181.630943 
L 329.014945 180.923018 
L 329.885916 180.344801 
L 330.321402 180.144316 
L 330.756887 179.683926 
L 332.934315 178.877407 
L 334.240772 178.392377 
L 335.982715 177.779667 
L 336.418201 177.159826 
L 337.289172 176.843035 
L 338.595629 176.286551 
L 339.4666 176.212141 
L 340.337571 175.816224 
L 340.773057 176.655817 
L 341.208543 176.384436 
L 342.079514 176.288106 
L 343.385971 175.978414 
L 343.821456 175.721821 
L 344.256942 175.676039 
L 344.692428 175.418364 
L 345.127913 175.292577 
L 345.563399 175.356645 
L 346.869856 175.053899 
L 349.047284 174.587357 
L 352.095684 174.140064 
L 353.402141 173.753713 
L 353.837626 173.739264 
L 354.708597 173.470469 
L 355.579569 173.425532 
L 356.015054 173.054087 
L 357.321511 172.975147 
L 358.627968 172.927996 
L 367.337681 172.412123 
L 368.644138 172.179325 
L 369.079624 171.435624 
L 369.950595 171.368007 
L 370.821566 171.392444 
L 371.257052 171.285247 
L 371.692537 171.389639 
L 372.563509 171.156655 
L 372.998994 171.035668 
L 373.43448 171.032761 
L 374.305451 171.218661 
L 377.789336 171.637968 
L 378.224822 171.852496 
L 380.837736 172.114953 
L 381.273222 172.307411 
L 383.886135 172.56642 
L 385.192592 173.005618 
L 385.628078 171.985584 
L 386.934535 172.032498 
L 387.370021 171.50172 
L 388.676477 171.619141 
L 389.982934 171.532511 
L 390.41842 171.585763 
L 390.853906 170.258149 
L 391.289391 170.330786 
L 392.160363 170.262797 
L 396.079733 170.848703 
L 396.950705 170.895161 
L 398.692647 170.995885 
L 399.563619 171.190438 
L 400.43459 171.278927 
L 400.870075 172.244289 
L 401.305561 172.272326 
L 401.741047 172.694455 
L 403.047504 172.742265 
L 405.660417 173.244499 
L 406.531389 173.132993 
L 406.966874 173.317727 
L 408.708817 173.482451 
L 408.708817 173.482451 
" clip-path="url(#p1ae7b9ec8c)" style="fill: none; stroke: #ff7f0e; stroke-opacity: 0.8; stroke-width: 1.5; stroke-linecap: square"/>
   </g>
   <g id="line2d_20">
    <path d="M 153.949717 284.175869 
L 155.691659 284.109317 
L 156.998116 284.038269 
L 171.804628 283.873933 
L 212.740278 283.512645 
L 228.417762 283.137583 
L 236.691989 282.89718 
L 237.56296 282.824375 
L 239.740388 282.46236 
L 244.966216 282.440914 
L 249.756558 282.364103 
L 263.256613 281.828492 
L 265.869527 281.679569 
L 282.417981 281.169932 
L 293.740608 280.793112 
L 294.611579 280.784747 
L 297.659978 280.68649 
L 302.014835 280.565165 
L 302.885806 280.601585 
L 322.047174 280.400711 
L 323.789117 280.544446 
L 335.982715 280.329917 
L 337.724657 280.277189 
L 339.4666 280.339601 
L 345.563399 280.275651 
L 350.353741 280.297097 
L 354.273112 280.242206 
L 360.805396 280.256284 
L 366.902195 280.202913 
L 367.773167 280.120813 
L 369.079624 280.045017 
L 371.257052 279.718525 
L 373.43448 279.635867 
L 374.305451 279.778504 
L 376.48288 279.759356 
L 388.240992 279.711309 
L 390.41842 279.696522 
L 392.595848 279.726773 
L 408.273331 279.5272 
L 408.708817 279.583089 
L 408.708817 279.583089 
" clip-path="url(#p1ae7b9ec8c)" style="fill: none; stroke: #2ca02c; stroke-opacity: 0.8; stroke-width: 1.5; stroke-linecap: square"/>
   </g>
   <g id="line2d_21">
    <path d="M 153.949717 252.936372 
L 155.691659 251.599666 
L 156.562631 250.920674 
L 158.304573 249.707034 
L 159.175545 249.086601 
L 164.836858 244.407546 
L 171.369143 238.225117 
L 172.240114 237.343258 
L 173.546571 235.978447 
L 174.417542 235.061706 
L 175.288513 234.237999 
L 175.723999 233.37517 
L 178.336913 230.168224 
L 178.772398 229.392699 
L 180.078855 227.654517 
L 183.998226 221.994281 
L 185.304683 220.485431 
L 186.61114 218.706722 
L 187.917597 216.944744 
L 188.788568 215.898837 
L 189.659539 214.694069 
L 195.320853 206.927552 
L 195.756338 206.169536 
L 196.62731 205.063109 
L 200.546681 199.16482 
L 200.982166 197.353376 
L 201.853137 196.287644 
L 204.030566 193.165283 
L 205.337023 191.372108 
L 206.207994 189.835795 
L 207.514451 187.899899 
L 207.949936 185.737442 
L 209.256393 183.607804 
L 211.433822 181.134471 
L 217.966106 172.68276 
L 219.708049 170.876571 
L 220.57902 169.739421 
L 224.498391 165.611053 
L 225.369362 164.786129 
L 226.240333 163.807771 
L 228.417762 161.670511 
L 232.337132 158.473638 
L 232.772618 156.520217 
L 233.208104 155.874789 
L 233.643589 155.434628 
L 234.950046 150.591711 
L 235.821017 148.541858 
L 236.256503 148.204838 
L 237.56296 146.534526 
L 237.998446 146.032088 
L 238.869417 145.506464 
L 240.611359 143.88986 
L 241.046845 143.669281 
L 241.917816 142.961729 
L 242.788788 142.374352 
L 243.224273 141.958747 
L 243.659759 141.09759 
L 245.401702 140.112573 
L 246.272673 139.434967 
L 246.708158 139.085695 
L 247.143644 138.907721 
L 248.014615 138.240103 
L 248.885587 137.057491 
L 250.627529 135.296358 
L 251.498501 134.707511 
L 251.933986 134.445476 
L 252.804957 133.529242 
L 254.5469 131.950562 
L 255.853357 131.224385 
L 256.288843 130.84525 
L 256.724328 130.682926 
L 258.030785 129.875494 
L 258.466271 129.688563 
L 260.208213 128.38684 
L 260.643699 128.675965 
L 262.821127 128.183888 
L 263.256613 128.202055 
L 264.127584 126.714702 
L 264.998555 126.36347 
L 265.434041 126.427385 
L 266.740498 126.359667 
L 267.175984 126.427318 
L 268.046955 125.039996 
L 268.482441 124.855042 
L 268.917926 124.337868 
L 269.353412 124.182557 
L 270.224383 123.093064 
L 270.659869 122.873161 
L 271.53084 122.705716 
L 272.837297 122.204901 
L 277.627639 122.808637 
L 278.49861 123.155037 
L 279.369582 123.287161 
L 280.676038 123.960863 
L 281.54701 124.30128 
L 281.982495 124.554273 
L 282.417981 124.574739 
L 283.288952 124.933543 
L 283.724438 125.295913 
L 285.030895 125.803099 
L 285.466381 125.905006 
L 285.901866 127.249064 
L 286.772837 127.312794 
L 287.208323 127.545574 
L 288.51478 127.665801 
L 288.950266 127.940105 
L 290.256723 128.34535 
L 291.127694 128.849461 
L 292.434151 129.473561 
L 292.869636 131.22545 
L 294.176093 132.189055 
L 295.047065 132.615002 
L 297.224493 133.859637 
L 298.095464 134.369359 
L 298.53095 134.430469 
L 299.837407 135.11639 
L 300.272892 134.822329 
L 300.708378 134.989335 
L 303.756777 135.250119 
L 304.627749 135.172886 
L 305.063234 135.439062 
L 306.369691 135.54014 
L 306.805177 135.494494 
L 307.676148 135.728778 
L 308.111634 135.507642 
L 308.54712 135.500865 
L 308.982605 135.250288 
L 309.853576 135.236447 
L 312.46649 135.68058 
L 313.337462 135.465206 
L 314.643918 134.862095 
L 316.385861 134.139992 
L 316.821347 134.141428 
L 317.256832 133.885866 
L 317.692318 135.427907 
L 318.563289 135.585601 
L 319.434261 138.155839 
L 319.869746 138.771557 
L 320.305232 140.008401 
L 320.740717 140.587058 
L 321.176203 140.428198 
L 322.047174 140.655401 
L 322.48266 140.851661 
L 323.353631 140.491353 
L 324.224603 140.153792 
L 324.660088 140.257136 
L 325.095574 140.219111 
L 325.53106 140.359989 
L 325.966545 140.211032 
L 326.402031 140.2751 
L 327.273002 139.991637 
L 327.708488 139.938047 
L 328.579459 135.734727 
L 329.014945 134.39748 
L 329.45043 134.31053 
L 329.885916 134.102913 
L 331.627858 134.15946 
L 332.063344 133.935535 
L 332.934315 133.841284 
L 333.805287 134.338989 
L 334.676258 134.469525 
L 335.111744 134.757062 
L 335.982715 134.643223 
L 336.418201 134.501229 
L 338.595629 134.718327 
L 339.031114 134.363106 
L 339.4666 134.490988 
L 339.902086 134.194781 
L 340.337571 134.160052 
L 340.773057 134.254236 
L 341.208543 134.470083 
L 341.644028 134.521577 
L 342.079514 134.220148 
L 342.950485 134.509612 
L 344.256942 134.50662 
L 344.692428 134.438006 
L 345.127913 134.551287 
L 346.43437 134.315819 
L 346.869856 134.401587 
L 348.176313 134.233364 
L 348.611798 135.025653 
L 349.047284 135.528074 
L 349.48277 135.731465 
L 349.918255 135.779563 
L 350.789227 135.594626 
L 352.095684 135.412968 
L 352.531169 135.807177 
L 352.966655 136.375913 
L 353.402141 136.310409 
L 353.837626 136.655034 
L 354.273112 136.607748 
L 355.144083 137.150863 
L 355.579569 137.259463 
L 356.015054 136.946373 
L 356.886026 137.242343 
L 357.321511 136.80612 
L 357.756997 136.854437 
L 358.627968 136.456053 
L 359.063454 134.843083 
L 359.49894 134.64133 
L 360.369911 131.252389 
L 361.240882 130.810065 
L 362.111853 130.595654 
L 362.547339 128.113296 
L 362.982825 127.658044 
L 364.724767 126.614992 
L 365.160253 126.531506 
L 366.46671 125.470879 
L 367.337681 125.2093 
L 367.773167 123.243559 
L 368.644138 122.983789 
L 369.515109 122.67342 
L 369.950595 122.451337 
L 370.386081 122.43099 
L 371.257052 121.483829 
L 371.692537 121.362892 
L 372.128023 121.023641 
L 372.998994 120.589649 
L 374.305451 119.755296 
L 374.740937 119.219785 
L 377.353851 117.87757 
L 377.789336 115.461274 
L 378.660308 111.827012 
L 379.095793 111.138438 
L 379.531279 109.921367 
L 379.966765 108.267599 
L 380.40225 108.051516 
L 381.273222 106.521338 
L 382.579678 105.862661 
L 383.015164 105.519557 
L 383.886135 105.39742 
L 384.321621 105.104154 
L 384.757107 104.957412 
L 385.628078 104.990806 
L 386.499049 104.805954 
L 387.370021 104.832216 
L 387.805506 104.752245 
L 388.240992 104.521358 
L 388.676477 104.106293 
L 389.547449 103.706355 
L 389.982934 102.846246 
L 390.853906 101.856733 
L 391.724877 101.850244 
L 392.595848 101.774363 
L 393.46682 102.034521 
L 394.773276 102.144608 
L 396.079733 101.852863 
L 396.515219 101.914954 
L 396.950705 101.632555 
L 397.38619 101.489107 
L 399.999104 101.630087 
L 400.43459 101.43616 
L 400.870075 101.409728 
L 401.305561 101.587077 
L 401.741047 101.522688 
L 402.176532 101.706695 
L 402.612018 101.759102 
L 403.047504 101.2725 
L 404.353961 101.477429 
L 404.789446 101.679773 
L 405.660417 101.661166 
L 406.095903 101.75824 
L 406.531389 101.429298 
L 406.966874 100.644293 
L 407.40236 100.567347 
L 408.273331 100.763201 
L 408.708817 100.928399 
L 408.708817 100.928399 
" clip-path="url(#p1ae7b9ec8c)" style="fill: none; stroke: #d62728; stroke-opacity: 0.8; stroke-width: 1.5; stroke-linecap: square"/>
   </g>
   <g id="line2d_22">
    <path d="M 153.949717 203.77766 
L 161.352973 193.769272 
L 163.530401 191.121954 
L 167.014286 186.687104 
L 168.320743 185.603746 
L 169.191714 184.424176 
L 171.369143 181.954713 
L 172.675599 180.556491 
L 173.111085 178.980633 
L 173.982056 178.243437 
L 177.901427 173.389856 
L 178.772398 172.522396 
L 179.64337 171.530382 
L 181.385312 169.610169 
L 182.691769 168.524969 
L 184.869197 166.854268 
L 185.304683 166.503035 
L 185.740169 166.307519 
L 190.530511 162.663911 
L 192.272453 161.56634 
L 192.707939 161.155399 
L 193.143425 160.948881 
L 194.014396 160.282885 
L 194.885367 159.867095 
L 197.062795 158.665876 
L 197.498281 158.504717 
L 197.933767 158.224126 
L 199.675709 157.708896 
L 200.546681 157.190167 
L 201.417652 156.697904 
L 202.288623 156.510854 
L 203.159594 156.06995 
L 203.59508 155.60427 
L 204.466051 155.287733 
L 205.337023 155.254457 
L 206.207994 155.197521 
L 206.643479 155.205329 
L 207.078965 155.083125 
L 207.514451 154.803176 
L 207.949936 154.721684 
L 208.385422 154.785482 
L 208.820908 154.735103 
L 209.256393 154.526692 
L 210.127365 154.504147 
L 211.433822 154.564413 
L 211.869307 154.356205 
L 214.046735 154.120517 
L 214.482221 154.333068 
L 214.917707 154.098631 
L 215.353192 154.08572 
L 216.224164 154.300806 
L 216.659649 154.183419 
L 217.530621 154.103262 
L 217.966106 153.959409 
L 218.401592 153.016811 
L 219.708049 153.059247 
L 221.885477 152.510571 
L 222.756448 152.959486 
L 223.191934 152.898038 
L 223.627419 153.029875 
L 224.933876 152.946659 
L 225.369362 153.140688 
L 225.804848 153.166089 
L 229.288733 154.295432 
L 229.724218 152.559835 
L 230.59519 152.68623 
L 231.901647 152.643997 
L 233.643589 153.167019 
L 234.079075 152.661336 
L 235.821017 153.265529 
L 236.256503 153.221538 
L 241.046845 154.611006 
L 241.482331 154.812217 
L 242.353302 154.822898 
L 244.095245 155.290302 
L 245.401702 155.462479 
L 245.837187 155.627187 
L 247.57913 155.857652 
L 248.450101 156.132311 
L 249.756558 156.32879 
L 250.627529 156.455084 
L 251.498501 156.712184 
L 253.240443 156.588053 
L 253.675929 156.788555 
L 257.595299 157.416914 
L 258.030785 158.649212 
L 258.901756 158.574227 
L 260.643699 159.271251 
L 261.079185 158.822606 
L 261.51467 159.007002 
L 262.385642 159.583986 
L 262.821127 159.166031 
L 263.692098 159.243924 
L 264.127584 159.515946 
L 264.56307 159.495024 
L 266.740498 160.40438 
L 267.175984 160.392144 
L 267.611469 160.744492 
L 268.917926 161.169612 
L 269.353412 161.19552 
L 269.788897 160.679782 
L 271.095354 161.136894 
L 272.401811 161.62189 
L 272.837297 161.921798 
L 273.272783 161.941081 
L 274.579239 162.683718 
L 275.014725 163.020585 
L 275.450211 163.130064 
L 276.321182 163.692141 
L 277.192153 163.750311 
L 277.627639 163.978326 
L 278.063125 164.000668 
L 280.240553 164.937351 
L 281.111524 165.199402 
L 281.54701 164.598742 
L 285.466381 165.661263 
L 288.079294 165.779596 
L 288.51478 165.972273 
L 289.385751 166.17896 
L 290.256723 165.820004 
L 290.692208 165.456874 
L 291.127694 165.477779 
L 291.56318 165.177365 
L 291.998665 165.258147 
L 293.740608 165.205334 
L 294.176093 165.279001 
L 294.611579 165.189566 
L 295.047065 164.980598 
L 295.48255 164.53317 
L 296.353522 164.315042 
L 297.224493 164.483535 
L 298.53095 164.004521 
L 299.401921 163.885765 
L 301.143864 163.161295 
L 301.579349 163.046257 
L 302.014835 162.747194 
L 302.885806 162.630077 
L 303.321292 163.304354 
L 306.369691 162.575541 
L 307.240663 162.079779 
L 307.676148 161.895653 
L 308.111634 161.956612 
L 310.724548 161.178468 
L 311.160033 160.708884 
L 311.595519 159.944767 
L 312.031005 159.838669 
L 312.46649 159.45536 
L 313.772947 158.666721 
L 314.208433 158.349609 
L 314.643918 160.097729 
L 315.079404 159.135459 
L 315.950375 159.032302 
L 316.385861 158.496081 
L 318.127804 157.666122 
L 318.563289 157.094412 
L 318.998775 157.330285 
L 319.434261 156.902039 
L 322.047174 155.403245 
L 324.224603 153.840366 
L 324.660088 153.024957 
L 325.095574 152.597167 
L 325.53106 152.40013 
L 325.966545 151.293382 
L 326.402031 150.799277 
L 327.708488 150.087262 
L 330.321402 148.877171 
L 331.192373 148.037579 
L 331.627858 147.843752 
L 332.49883 147.126246 
L 332.934315 146.483437 
L 334.676258 145.059104 
L 335.111744 144.20028 
L 337.289172 142.13814 
L 337.724657 141.855623 
L 338.595629 140.914816 
L 339.031114 140.65072 
L 340.337571 139.243929 
L 341.644028 137.52672 
L 342.515 135.980132 
L 344.256942 133.64161 
L 345.127913 131.932327 
L 345.563399 131.296295 
L 345.998885 131.344511 
L 346.869856 130.180928 
L 347.305342 129.660188 
L 347.740827 129.451507 
L 348.176313 129.035293 
L 349.918255 126.597585 
L 351.224712 124.580975 
L 353.402141 121.94067 
L 354.273112 120.688345 
L 354.708597 120.624598 
L 358.192483 115.57829 
L 359.49894 113.561054 
L 360.369911 112.155328 
L 360.805396 111.539509 
L 361.240882 110.724675 
L 366.031224 105.035946 
L 366.46671 105.174661 
L 366.902195 104.627608 
L 367.337681 102.725427 
L 367.773167 101.74663 
L 369.515109 99.432157 
L 370.386081 98.644599 
L 370.821566 97.735582 
L 371.692537 96.736909 
L 372.128023 95.685915 
L 372.563509 93.962688 
L 372.998994 92.940103 
L 374.305451 91.271244 
L 375.176423 90.608189 
L 376.918365 88.622979 
L 377.353851 88.285519 
L 377.789336 87.490205 
L 378.660308 86.389507 
L 379.095793 85.641851 
L 379.966765 84.7292 
L 380.837736 83.913876 
L 382.144193 81.822229 
L 382.579678 81.514818 
L 383.886135 80.198054 
L 384.321621 79.452155 
L 384.757107 79.300984 
L 385.628078 78.425446 
L 386.063564 76.707746 
L 388.676477 74.312423 
L 389.982934 72.998633 
L 390.41842 72.783986 
L 391.289391 71.953182 
L 391.724877 71.802822 
L 392.595848 70.72183 
L 393.46682 69.795929 
L 393.902305 69.541128 
L 395.208762 68.289902 
L 395.644248 67.018362 
L 396.079733 66.978816 
L 396.515219 67.293647 
L 397.821676 66.163543 
L 398.257162 65.800936 
L 398.692647 65.290658 
L 399.563619 64.687023 
L 399.999104 65.122874 
L 400.870075 63.963415 
L 401.305561 64.152864 
L 402.176532 63.161561 
L 403.482989 62.037795 
L 403.918475 61.784751 
L 404.353961 61.80547 
L 406.095903 60.718884 
L 407.40236 59.386893 
L 407.837846 59.090872 
L 408.273331 58.649309 
L 408.708817 58.411678 
L 408.708817 58.411678 
" clip-path="url(#p1ae7b9ec8c)" style="fill: none; stroke: #9467bd; stroke-opacity: 0.8; stroke-width: 1.5; stroke-linecap: square"/>
   </g>
   <g id="patch_3">
    <path d="M 68.594531 288.430125 
L 68.594531 22.318125 
" style="fill: none; stroke: #000000; stroke-width: 0.8; stroke-linejoin: miter; stroke-linecap: square"/>
   </g>
   <g id="patch_4">
    <path d="M 425.714531 288.430125 
L 425.714531 22.318125 
" style="fill: none; stroke: #000000; stroke-width: 0.8; stroke-linejoin: miter; stroke-linecap: square"/>
   </g>
   <g id="patch_5">
    <path d="M 68.594531 288.430125 
L 425.714531 288.430125 
" style="fill: none; stroke: #000000; stroke-width: 0.8; stroke-linejoin: miter; stroke-linecap: square"/>
   </g>
   <g id="patch_6">
    <path d="M 68.594531 22.318125 
L 425.714531 22.318125 
" style="fill: none; stroke: #000000; stroke-width: 0.8; stroke-linejoin: miter; stroke-linecap: square"/>
   </g>
   <g id="text_20">
    <!-- Move [root to branch] -->
    <g transform="translate(181.751719 16.318125) scale(0.12 -0.12)">
     <defs>
      <path id="DejaVuSans-30" d="M 628 4666 
L 1569 4666 
L 2759 1491 
L 3956 4666 
L 4897 4666 
L 4897 0 
L 4281 0 
L 4281 4097 
L 3078 897 
L 2444 897 
L 1241 4097 
L 1241 0 
L 628 0 
L 628 4666 
z
" transform="scale(0.015625)"/>
      <path id="DejaVuSans-59" d="M 191 3500 
L 800 3500 
L 1894 563 
L 2988 3500 
L 3597 3500 
L 2284 0 
L 1503 0 
L 191 3500 
z
" transform="scale(0.015625)"/>
      <path id="DejaVuSans-3e" d="M 550 4863 
L 1875 4863 
L 1875 4416 
L 1125 4416 
L 1125 -397 
L 1875 -397 
L 1875 -844 
L 550 -844 
L 550 4863 
z
" transform="scale(0.015625)"/>
      <path id="DejaVuSans-4b" d="M 3513 2113 
L 3513 0 
L 2938 0 
L 2938 2094 
Q 2938 2591 2744 2837 
Q 2550 3084 2163 3084 
Q 1697 3084 1428 2787 
Q 1159 2491 1159 1978 
L 1159 0 
L 581 0 
L 581 4863 
L 1159 4863 
L 1159 2956 
Q 1366 3272 1645 3428 
Q 1925 3584 2291 3584 
Q 2894 3584 3203 3211 
Q 3513 2838 3513 2113 
z
" transform="scale(0.015625)"/>
      <path id="DejaVuSans-40" d="M 1947 4863 
L 1947 -844 
L 622 -844 
L 622 -397 
L 1369 -397 
L 1369 4416 
L 622 4416 
L 622 4863 
L 1947 4863 
z
" transform="scale(0.015625)"/>
     </defs>
     <use xlink:href="#DejaVuSans-30"/>
     <use xlink:href="#DejaVuSans-52" transform="translate(86.28125 0)"/>
     <use xlink:href="#DejaVuSans-59" transform="translate(147.46875 0)"/>
     <use xlink:href="#DejaVuSans-48" transform="translate(206.65625 0)"/>
     <use xlink:href="#DejaVuSans-3" transform="translate(268.1875 0)"/>
     <use xlink:href="#DejaVuSans-3e" transform="translate(299.96875 0)"/>
     <use xlink:href="#DejaVuSans-55" transform="translate(338.984375 0)"/>
     <use xlink:href="#DejaVuSans-52" transform="translate(377.890625 0)"/>
     <use xlink:href="#DejaVuSans-52" transform="translate(439.078125 0)"/>
     <use xlink:href="#DejaVuSans-57" transform="translate(500.265625 0)"/>
     <use xlink:href="#DejaVuSans-3" transform="translate(539.46875 0)"/>
     <use xlink:href="#DejaVuSans-57" transform="translate(571.25 0)"/>
     <use xlink:href="#DejaVuSans-52" transform="translate(610.453125 0)"/>
     <use xlink:href="#DejaVuSans-3" transform="translate(671.640625 0)"/>
     <use xlink:href="#DejaVuSans-45" transform="translate(703.421875 0)"/>
     <use xlink:href="#DejaVuSans-55" transform="translate(766.90625 0)"/>
     <use xlink:href="#DejaVuSans-44" transform="translate(808.015625 0)"/>
     <use xlink:href="#DejaVuSans-51" transform="translate(869.296875 0)"/>
     <use xlink:href="#DejaVuSans-46" transform="translate(932.671875 0)"/>
     <use xlink:href="#DejaVuSans-4b" transform="translate(987.65625 0)"/>
     <use xlink:href="#DejaVuSans-40" transform="translate(1051.03125 0)"/>
    </g>
   </g>
   <g id="legend_1">
    <g id="patch_7">
     <path d="M 99.592187 366.447687 
L 387.196875 366.447687 
Q 389.196875 366.447687 389.196875 364.447687 
L 389.196875 335.446125 
Q 389.196875 333.446125 387.196875 333.446125 
L 99.592187 333.446125 
Q 97.592187 333.446125 97.592187 335.446125 
L 97.592187 364.447687 
Q 97.592187 366.447687 99.592187 366.447687 
z
" style="fill: #4d4d4d; opacity: 0.5; stroke: #4d4d4d; stroke-linejoin: miter"/>
    </g>
    <g id="patch_8">
     <path d="M 97.592187 364.447687 
L 385.196875 364.447687 
Q 387.196875 364.447687 387.196875 362.447687 
L 387.196875 333.446125 
Q 387.196875 331.446125 385.196875 331.446125 
L 97.592187 331.446125 
Q 95.592187 331.446125 95.592187 333.446125 
L 95.592187 362.447687 
Q 95.592187 364.447687 97.592187 364.447687 
z
" style="fill: #ffffff; stroke: #cccccc; stroke-linejoin: miter"/>
    </g>
    <g id="line2d_23">
     <path d="M 99.592187 339.544562 
L 109.592187 339.544562 
L 119.592187 339.544562 
" style="fill: none; stroke: #1f77b4; stroke-opacity: 0.8; stroke-width: 1.5; stroke-linecap: square"/>
    </g>
    <g id="text_21">
     <!-- MPTT -->
     <g transform="translate(127.592187 343.044562) scale(0.1 -0.1)">
      <defs>
       <path id="DejaVuSans-33" d="M 1259 4147 
L 1259 2394 
L 2053 2394 
Q 2494 2394 2734 2622 
Q 2975 2850 2975 3272 
Q 2975 3691 2734 3919 
Q 2494 4147 2053 4147 
L 1259 4147 
z
M 628 4666 
L 2053 4666 
Q 2838 4666 3239 4311 
Q 3641 3956 3641 3272 
Q 3641 2581 3239 2228 
Q 2838 1875 2053 1875 
L 1259 1875 
L 1259 0 
L 628 0 
L 628 4666 
z
" transform="scale(0.015625)"/>
       <path id="DejaVuSans-37" d="M -19 4666 
L 3928 4666 
L 3928 4134 
L 2272 4134 
L 2272 0 
L 1638 0 
L 1638 4134 
L -19 4134 
L -19 4666 
z
" transform="scale(0.015625)"/>
      </defs>
      <use xlink:href="#DejaVuSans-30"/>
      <use xlink:href="#DejaVuSans-33" transform="translate(86.28125 0)"/>
      <use xlink:href="#DejaVuSans-37" transform="translate(146.578125 0)"/>
      <use xlink:href="#DejaVuSans-37" transform="translate(205.90625 0)"/>
     </g>
    </g>
    <g id="line2d_24">
     <path d="M 99.592187 354.545344 
L 109.592187 354.545344 
L 119.592187 354.545344 
" style="fill: none; stroke: #ff7f0e; stroke-opacity: 0.8; stroke-width: 1.5; stroke-linecap: square"/>
    </g>
    <g id="text_22">
     <!-- tree -->
     <g transform="translate(127.592187 358.045344) scale(0.1 -0.1)">
      <use xlink:href="#DejaVuSans-57"/>
      <use xlink:href="#DejaVuSans-55" transform="translate(39.203125 0)"/>
      <use xlink:href="#DejaVuSans-48" transform="translate(78.109375 0)"/>
      <use xlink:href="#DejaVuSans-48" transform="translate(139.640625 0)"/>
     </g>
    </g>
    <g id="line2d_25">
     <path d="M 174.290625 339.544562 
L 184.290625 339.544562 
L 194.290625 339.544562 
" style="fill: none; stroke: #2ca02c; stroke-opacity: 0.8; stroke-width: 1.5; stroke-linecap: square"/>
    </g>
    <g id="text_23">
     <!-- treebeard AL -->
     <g transform="translate(202.290625 343.044562) scale(0.1 -0.1)">
      <defs>
       <path id="DejaVuSans-47" d="M 2906 2969 
L 2906 4863 
L 3481 4863 
L 3481 0 
L 2906 0 
L 2906 525 
Q 2725 213 2448 61 
Q 2172 -91 1784 -91 
Q 1150 -91 751 415 
Q 353 922 353 1747 
Q 353 2572 751 3078 
Q 1150 3584 1784 3584 
Q 2172 3584 2448 3432 
Q 2725 3281 2906 2969 
z
M 947 1747 
Q 947 1113 1208 752 
Q 1469 391 1925 391 
Q 2381 391 2643 752 
Q 2906 1113 2906 1747 
Q 2906 2381 2643 2742 
Q 2381 3103 1925 3103 
Q 1469 3103 1208 2742 
Q 947 2381 947 1747 
z
" transform="scale(0.015625)"/>
       <path id="DejaVuSans-2f" d="M 628 4666 
L 1259 4666 
L 1259 531 
L 3531 531 
L 3531 0 
L 628 0 
L 628 4666 
z
" transform="scale(0.015625)"/>
      </defs>
      <use xlink:href="#DejaVuSans-57"/>
      <use xlink:href="#DejaVuSans-55" transform="translate(39.203125 0)"/>
      <use xlink:href="#DejaVuSans-48" transform="translate(78.109375 0)"/>
      <use xlink:href="#DejaVuSans-48" transform="translate(139.640625 0)"/>
      <use xlink:href="#DejaVuSans-45" transform="translate(201.171875 0)"/>
      <use xlink:href="#DejaVuSans-48" transform="translate(264.65625 0)"/>
      <use xlink:href="#DejaVuSans-44" transform="translate(326.1875 0)"/>
      <use xlink:href="#DejaVuSans-55" transform="translate(387.46875 0)"/>
      <use xlink:href="#DejaVuSans-47" transform="translate(426.828125 0)"/>
      <use xlink:href="#DejaVuSans-3" transform="translate(490.3125 0)"/>
      <use xlink:href="#DejaVuSans-24" transform="translate(522.09375 0)"/>
      <use xlink:href="#DejaVuSans-2f" transform="translate(590.5 0)"/>
     </g>
    </g>
    <g id="line2d_26">
     <path d="M 174.290625 354.545344 
L 184.290625 354.545344 
L 194.290625 354.545344 
" style="fill: none; stroke: #d62728; stroke-opacity: 0.8; stroke-width: 1.5; stroke-linecap: square"/>
    </g>
    <g id="text_24">
     <!-- treebeard MP -->
     <g transform="translate(202.290625 358.045344) scale(0.1 -0.1)">
      <use xlink:href="#DejaVuSans-57"/>
      <use xlink:href="#DejaVuSans-55" transform="translate(39.203125 0)"/>
      <use xlink:href="#DejaVuSans-48" transform="translate(78.109375 0)"/>
      <use xlink:href="#DejaVuSans-48" transform="translate(139.640625 0)"/>
      <use xlink:href="#DejaVuSans-45" transform="translate(201.171875 0)"/>
      <use xlink:href="#DejaVuSans-48" transform="translate(264.65625 0)"/>
      <use xlink:href="#DejaVuSans-44" transform="translate(326.1875 0)"/>
      <use xlink:href="#DejaVuSans-55" transform="translate(387.46875 0)"/>
      <use xlink:href="#DejaVuSans-47" transform="translate(426.828125 0)"/>
      <use xlink:href="#DejaVuSans-3" transform="translate(490.3125 0)"/>
      <use xlink:href="#DejaVuSans-30" transform="translate(522.09375 0)"/>
      <use xlink:href="#DejaVuSans-33" transform="translate(608.375 0)"/>
     </g>
    </g>
    <g id="line2d_27">
     <path d="M 289.157812 339.544562 
L 299.157812 339.544562 
L 309.157812 339.544562 
" style="fill: none; stroke: #9467bd; stroke-opacity: 0.8; stroke-width: 1.5; stroke-linecap: square"/>
    </g>
    <g id="text_25">
     <!-- treebeard NS -->
     <g transform="translate(317.157812 343.044562) scale(0.1 -0.1)">
      <defs>
       <path id="DejaVuSans-31" d="M 628 4666 
L 1478 4666 
L 3547 763 
L 3547 4666 
L 4159 4666 
L 4159 0 
L 3309 0 
L 1241 3903 
L 1241 0 
L 628 0 
L 628 4666 
z
" transform="scale(0.015625)"/>
       <path id="DejaVuSans-36" d="M 3425 4513 
L 3425 3897 
Q 3066 4069 2747 4153 
Q 2428 4238 2131 4238 
Q 1616 4238 1336 4038 
Q 1056 3838 1056 3469 
Q 1056 3159 1242 3001 
Q 1428 2844 1947 2747 
L 2328 2669 
Q 3034 2534 3370 2195 
Q 3706 1856 3706 1288 
Q 3706 609 3251 259 
Q 2797 -91 1919 -91 
Q 1588 -91 1214 -16 
Q 841 59 441 206 
L 441 856 
Q 825 641 1194 531 
Q 1563 422 1919 422 
Q 2459 422 2753 634 
Q 3047 847 3047 1241 
Q 3047 1584 2836 1778 
Q 2625 1972 2144 2069 
L 1759 2144 
Q 1053 2284 737 2584 
Q 422 2884 422 3419 
Q 422 4038 858 4394 
Q 1294 4750 2059 4750 
Q 2388 4750 2728 4690 
Q 3069 4631 3425 4513 
z
" transform="scale(0.015625)"/>
      </defs>
      <use xlink:href="#DejaVuSans-57"/>
      <use xlink:href="#DejaVuSans-55" transform="translate(39.203125 0)"/>
      <use xlink:href="#DejaVuSans-48" transform="translate(78.109375 0)"/>
      <use xlink:href="#DejaVuSans-48" transform="translate(139.640625 0)"/>
      <use xlink:href="#DejaVuSans-45" transform="translate(201.171875 0)"/>
      <use xlink:href="#DejaVuSans-48" transform="translate(264.65625 0)"/>
      <use xlink:href="#DejaVuSans-44" transform="translate(326.1875 0)"/>
      <use xlink:href="#DejaVuSans-55" transform="translate(387.46875 0)"/>
      <use xlink:href="#DejaVuSans-47" transform="translate(426.828125 0)"/>
      <use xlink:href="#DejaVuSans-3" transform="translate(490.3125 0)"/>
      <use xlink:href="#DejaVuSans-31" transform="translate(522.09375 0)"/>
      <use xlink:href="#DejaVuSans-36" transform="translate(596.90625 0)"/>
     </g>
    </g>
   </g>
  </g>
 </g>
 <defs>
  <clipPath id="p1ae7b9ec8c">
   <rect x="68.594531" y="22.318125" width="357.12" height="266.112"/>
  </clipPath>
 </defs>
</svg>
