<?xml version="1.0" encoding="utf-8" standalone="no"?>
<!DOCTYPE svg PUBLIC "-//W3C//DTD SVG 1.1//EN"
  "http://www.w3.org/Graphics/SVG/1.1/DTD/svg11.dtd">
<svg xmlns:xlink="http://www.w3.org/1999/xlink" width="426.035625pt" height="371.002375pt" viewBox="0 0 426.035625 371.002375" xmlns="http://www.w3.org/2000/svg" version="1.1">
 <metadata>
  <rdf:RDF xmlns:dc="http://purl.org/dc/elements/1.1/" xmlns:cc="http://creativecommons.org/ns#" xmlns:rdf="http://www.w3.org/1999/02/22-rdf-syntax-ns#">
   <cc:Work>
    <dc:type rdf:resource="http://purl.org/dc/dcmitype/StillImage"/>
    <dc:date>2026-06-28T06:53:51.892440</dc:date>
    <dc:format>image/svg+xml</dc:format>
    <dc:creator>
     <cc:Agent>
      <dc:title>Matplotlib v3.10.6, https://matplotlib.org/</dc:title>
     </cc:Agent>
    </dc:creator>
   </cc:Work>
  </rdf:RDF>
 </metadata>
 <defs>
  <style type="text/css">*{stroke-linejoin: round; stroke-linecap: butt}</style>
 </defs>
 <g id="figure_1">
  <g id="patch_1">
   <path d="M 0 371.002375 
L 426.035625 371.002375 
L 426.035625 0 
L 0 0 
z
" style="fill: #ffffff"/>
  </g>
  <g id="axes_1">
   <g id="patch_2">
    <path d="M 61.715625 288.430125 
L 418.835625 288.430125 
L 418.835625 22.318125 
L 61.715625 22.318125 
z
" style="fill: #ffffff"/>
   </g>
   <g id="matplotlib.axis_1">
    <g id="xtick_1">
     <g id="line2d_1">
      <defs>
       <path id="mc9429721f8" d="M 0 0 
L 0 3.5 
" style="stroke: #000000; stroke-width: 0.8"/>
      </defs>
      <g>
       <use xlink:href="#mc9429721f8" x="61.715625" y="288.430125" style="stroke: #000000; stroke-width: 0.8"/>
      </g>
     </g>
     <g id="text_1">
      <!-- 0 -->
      <g transform="translate(58.534375 303.028562) scale(0.1 -0.1)">
       <defs>
        <path id="DejaVuSans-30" d="M 2034 4250 
Q 1547 4250 1301 3770 
Q 1056 3291 1056 2328 
Q 1056 1369 1301 889 
Q 1547 409 2034 409 
Q 2525 409 2770 889 
Q 3016 1369 3016 2328 
Q 3016 3291 2770 3770 
Q 2525 4250 2034 4250 
z
M 2034 4750 
Q 2819 4750 3233 4129 
Q 3647 3509 3647 2328 
Q 3647 1150 3233 529 
Q 2819 -91 2034 -91 
Q 1250 -91 836 529 
Q 422 1150 422 2328 
Q 422 3509 836 4129 
Q 1250 4750 2034 4750 
z
" transform="scale(0.015625)"/>
       </defs>
       <use xlink:href="#DejaVuSans-30"/>
      </g>
     </g>
    </g>
    <g id="xtick_2">
     <g id="line2d_2">
      <g>
       <use xlink:href="#mc9429721f8" x="105.264189" y="288.430125" style="stroke: #000000; stroke-width: 0.8"/>
      </g>
     </g>
     <g id="text_2">
      <!-- 500  -->
      <g transform="translate(94.131377 303.028562) scale(0.1 -0.1)">
       <defs>
        <path id="DejaVuSans-35" d="M 691 4666 
L 3169 4666 
L 3169 4134 
L 1269 4134 
L 1269 2991 
Q 1406 3038 1543 3061 
Q 1681 3084 1819 3084 
Q 2600 3084 3056 2656 
Q 3513 2228 3513 1497 
Q 3513 744 3044 326 
Q 2575 -91 1722 -91 
Q 1428 -91 1123 -41 
Q 819 9 494 109 
L 494 744 
Q 775 591 1075 516 
Q 1375 441 1709 441 
Q 2250 441 2565 725 
Q 2881 1009 2881 1497 
Q 2881 1984 2565 2268 
Q 2250 2553 1709 2553 
Q 1456 2553 1204 2497 
Q 953 2441 691 2322 
L 691 4666 
z
" transform="scale(0.015625)"/>
        <path id="DejaVuSans-20" transform="scale(0.015625)"/>
       </defs>
       <use xlink:href="#DejaVuSans-35"/>
       <use xlink:href="#DejaVuSans-30" transform="translate(63.623047 0)"/>
       <use xlink:href="#DejaVuSans-30" transform="translate(127.246094 0)"/>
       <use xlink:href="#DejaVuSans-20" transform="translate(190.869141 0)"/>
      </g>
     </g>
    </g>
    <g id="xtick_3">
     <g id="line2d_3">
      <g>
       <use xlink:href="#mc9429721f8" x="148.812753" y="288.430125" style="stroke: #000000; stroke-width: 0.8"/>
      </g>
     </g>
     <g id="text_3">
      <!-- 1 k -->
      <g transform="translate(141.147128 303.028562) scale(0.1 -0.1)">
       <defs>
        <path id="DejaVuSans-31" d="M 794 531 
L 1825 531 
L 1825 4091 
L 703 3866 
L 703 4441 
L 1819 4666 
L 2450 4666 
L 2450 531 
L 3481 531 
L 3481 0 
L 794 0 
L 794 531 
z
" transform="scale(0.015625)"/>
        <path id="DejaVuSans-6b" d="M 581 4863 
L 1159 4863 
L 1159 1991 
L 2875 3500 
L 3609 3500 
L 1753 1863 
L 3688 0 
L 2938 0 
L 1159 1709 
L 1159 0 
L 581 0 
L 581 4863 
z
" transform="scale(0.015625)"/>
       </defs>
       <use xlink:href="#DejaVuSans-31"/>
       <use xlink:href="#DejaVuSans-20" transform="translate(63.623047 0)"/>
       <use xlink:href="#DejaVuSans-6b" transform="translate(95.410156 0)"/>
      </g>
     </g>
    </g>
    <g id="xtick_4">
     <g id="line2d_4">
      <g>
       <use xlink:href="#mc9429721f8" x="192.361317" y="288.430125" style="stroke: #000000; stroke-width: 0.8"/>
      </g>
     </g>
     <g id="text_4">
      <!-- 1.5 k -->
      <g transform="translate(179.92538 303.028562) scale(0.1 -0.1)">
       <defs>
        <path id="DejaVuSans-2e" d="M 684 794 
L 1344 794 
L 1344 0 
L 684 0 
L 684 794 
z
" transform="scale(0.015625)"/>
       </defs>
       <use xlink:href="#DejaVuSans-31"/>
       <use xlink:href="#DejaVuSans-2e" transform="translate(63.623047 0)"/>
       <use xlink:href="#DejaVuSans-35" transform="translate(95.410156 0)"/>
       <use xlink:href="#DejaVuSans-20" transform="translate(159.033203 0)"/>
       <use xlink:href="#DejaVuSans-6b" transform="translate(190.820312 0)"/>
      </g>
     </g>
    </g>
    <g id="xtick_5">
     <g id="line2d_5">
      <g>
       <use xlink:href="#mc9429721f8" x="235.909881" y="288.430125" style="stroke: #000000; stroke-width: 0.8"/>
      </g>
     </g>
     <g id="text_5">
      <!-- 2 k -->
      <g transform="translate(228.244256 303.028562) scale(0.1 -0.1)">
       <defs>
        <path id="DejaVuSans-32" d="M 1228 531 
L 3431 531 
L 3431 0 
L 469 0 
L 469 531 
Q 828 903 1448 1529 
Q 2069 2156 2228 2338 
Q 2531 2678 2651 2914 
Q 2772 3150 2772 3378 
Q 2772 3750 2511 3984 
Q 2250 4219 1831 4219 
Q 1534 4219 1204 4116 
Q 875 4013 500 3803 
L 500 4441 
Q 881 4594 1212 4672 
Q 1544 4750 1819 4750 
Q 2544 4750 2975 4387 
Q 3406 4025 3406 3419 
Q 3406 3131 3298 2873 
Q 3191 2616 2906 2266 
Q 2828 2175 2409 1742 
Q 1991 1309 1228 531 
z
" transform="scale(0.015625)"/>
       </defs>
       <use xlink:href="#DejaVuSans-32"/>
       <use xlink:href="#DejaVuSans-20" transform="translate(63.623047 0)"/>
       <use xlink:href="#DejaVuSans-6b" transform="translate(95.410156 0)"/>
      </g>
     </g>
    </g>
    <g id="xtick_6">
     <g id="line2d_6">
      <g>
       <use xlink:href="#mc9429721f8" x="279.458446" y="288.430125" style="stroke: #000000; stroke-width: 0.8"/>
      </g>
     </g>
     <g id="text_6">
      <!-- 2.5 k -->
      <g transform="translate(267.022508 303.028562) scale(0.1 -0.1)">
       <use xlink:href="#DejaVuSans-32"/>
       <use xlink:href="#DejaVuSans-2e" transform="translate(63.623047 0)"/>
       <use xlink:href="#DejaVuSans-35" transform="translate(95.410156 0)"/>
       <use xlink:href="#DejaVuSans-20" transform="translate(159.033203 0)"/>
       <use xlink:href="#DejaVuSans-6b" transform="translate(190.820312 0)"/>
      </g>
     </g>
    </g>
    <g id="xtick_7">
     <g id="line2d_7">
      <g>
       <use xlink:href="#mc9429721f8" x="323.00701" y="288.430125" style="stroke: #000000; stroke-width: 0.8"/>
      </g>
     </g>
     <g id="text_7">
      <!-- 3 k -->
      <g transform="translate(315.341385 303.028562) scale(0.1 -0.1)">
       <defs>
        <path id="DejaVuSans-33" d="M 2597 2516 
Q 3050 2419 3304 2112 
Q 3559 1806 3559 1356 
Q 3559 666 3084 287 
Q 2609 -91 1734 -91 
Q 1441 -91 1130 -33 
Q 819 25 488 141 
L 488 750 
Q 750 597 1062 519 
Q 1375 441 1716 441 
Q 2309 441 2620 675 
Q 2931 909 2931 1356 
Q 2931 1769 2642 2001 
Q 2353 2234 1838 2234 
L 1294 2234 
L 1294 2753 
L 1863 2753 
Q 2328 2753 2575 2939 
Q 2822 3125 2822 3475 
Q 2822 3834 2567 4026 
Q 2313 4219 1838 4219 
Q 1578 4219 1281 4162 
Q 984 4106 628 3988 
L 628 4550 
Q 988 4650 1302 4700 
Q 1616 4750 1894 4750 
Q 2613 4750 3031 4423 
Q 3450 4097 3450 3541 
Q 3450 3153 3228 2886 
Q 3006 2619 2597 2516 
z
" transform="scale(0.015625)"/>
       </defs>
       <use xlink:href="#DejaVuSans-33"/>
       <use xlink:href="#DejaVuSans-20" transform="translate(63.623047 0)"/>
       <use xlink:href="#DejaVuSans-6b" transform="translate(95.410156 0)"/>
      </g>
     </g>
    </g>
    <g id="xtick_8">
     <g id="line2d_8">
      <g>
       <use xlink:href="#mc9429721f8" x="366.555574" y="288.430125" style="stroke: #000000; stroke-width: 0.8"/>
      </g>
     </g>
     <g id="text_8">
      <!-- 3.5 k -->
      <g transform="translate(354.119636 303.028562) scale(0.1 -0.1)">
       <use xlink:href="#DejaVuSans-33"/>
       <use xlink:href="#DejaVuSans-2e" transform="translate(63.623047 0)"/>
       <use xlink:href="#DejaVuSans-35" transform="translate(95.410156 0)"/>
       <use xlink:href="#DejaVuSans-20" transform="translate(159.033203 0)"/>
       <use xlink:href="#DejaVuSans-6b" transform="translate(190.820312 0)"/>
      </g>
     </g>
    </g>
    <g id="xtick_9">
     <g id="line2d_9">
      <g>
       <use xlink:href="#mc9429721f8" x="410.104138" y="288.430125" style="stroke: #000000; stroke-width: 0.8"/>
      </g>
     </g>
     <g id="text_9">
      <!-- 4 k -->
      <g transform="translate(402.438513 303.028562) scale(0.1 -0.1)">
       <defs>
        <path id="DejaVuSans-34" d="M 2419 4116 
L 825 1625 
L 2419 1625 
L 2419 4116 
z
M 2253 4666 
L 3047 4666 
L 3047 1625 
L 3713 1625 
L 3713 1100 
L 3047 1100 
L 3047 0 
L 2419 0 
L 2419 1100 
L 313 1100 
L 313 1709 
L 2253 4666 
z
" transform="scale(0.015625)"/>
       </defs>
       <use xlink:href="#DejaVuSans-34"/>
       <use xlink:href="#DejaVuSans-20" transform="translate(63.623047 0)"/>
       <use xlink:href="#DejaVuSans-6b" transform="translate(95.410156 0)"/>
      </g>
     </g>
    </g>
    <g id="text_10">
     <!-- Amount of objects in table -->
     <g transform="translate(174.217031 316.706687) scale(0.1 -0.1)">
      <defs>
       <path id="DejaVuSans-41" d="M 2188 4044 
L 1331 1722 
L 3047 1722 
L 2188 4044 
z
M 1831 4666 
L 2547 4666 
L 4325 0 
L 3669 0 
L 3244 1197 
L 1141 1197 
L 716 0 
L 50 0 
L 1831 4666 
z
" transform="scale(0.015625)"/>
       <path id="DejaVuSans-6d" d="M 3328 2828 
Q 3544 3216 3844 3400 
Q 4144 3584 4550 3584 
Q 5097 3584 5394 3201 
Q 5691 2819 5691 2113 
L 5691 0 
L 5113 0 
L 5113 2094 
Q 5113 2597 4934 2840 
Q 4756 3084 4391 3084 
Q 3944 3084 3684 2787 
Q 3425 2491 3425 1978 
L 3425 0 
L 2847 0 
L 2847 2094 
Q 2847 2600 2669 2842 
Q 2491 3084 2119 3084 
Q 1678 3084 1418 2786 
Q 1159 2488 1159 1978 
L 1159 0 
L 581 0 
L 581 3500 
L 1159 3500 
L 1159 2956 
Q 1356 3278 1631 3431 
Q 1906 3584 2284 3584 
Q 2666 3584 2933 3390 
Q 3200 3197 3328 2828 
z
" transform="scale(0.015625)"/>
       <path id="DejaVuSans-6f" d="M 1959 3097 
Q 1497 3097 1228 2736 
Q 959 2375 959 1747 
Q 959 1119 1226 758 
Q 1494 397 1959 397 
Q 2419 397 2687 759 
Q 2956 1122 2956 1747 
Q 2956 2369 2687 2733 
Q 2419 3097 1959 3097 
z
M 1959 3584 
Q 2709 3584 3137 3096 
Q 3566 2609 3566 1747 
Q 3566 888 3137 398 
Q 2709 -91 1959 -91 
Q 1206 -91 779 398 
Q 353 888 353 1747 
Q 353 2609 779 3096 
Q 1206 3584 1959 3584 
z
" transform="scale(0.015625)"/>
       <path id="DejaVuSans-75" d="M 544 1381 
L 544 3500 
L 1119 3500 
L 1119 1403 
Q 1119 906 1312 657 
Q 1506 409 1894 409 
Q 2359 409 2629 706 
Q 2900 1003 2900 1516 
L 2900 3500 
L 3475 3500 
L 3475 0 
L 2900 0 
L 2900 538 
Q 2691 219 2414 64 
Q 2138 -91 1772 -91 
Q 1169 -91 856 284 
Q 544 659 544 1381 
z
M 1991 3584 
L 1991 3584 
z
" transform="scale(0.015625)"/>
       <path id="DejaVuSans-6e" d="M 3513 2113 
L 3513 0 
L 2938 0 
L 2938 2094 
Q 2938 2591 2744 2837 
Q 2550 3084 2163 3084 
Q 1697 3084 1428 2787 
Q 1159 2491 1159 1978 
L 1159 0 
L 581 0 
L 581 3500 
L 1159 3500 
L 1159 2956 
Q 1366 3272 1645 3428 
Q 1925 3584 2291 3584 
Q 2894 3584 3203 3211 
Q 3513 2838 3513 2113 
z
" transform="scale(0.015625)"/>
       <path id="DejaVuSans-74" d="M 1172 4494 
L 1172 3500 
L 2356 3500 
L 2356 3053 
L 1172 3053 
L 1172 1153 
Q 1172 725 1289 603 
Q 1406 481 1766 481 
L 2356 481 
L 2356 0 
L 1766 0 
Q 1100 0 847 248 
Q 594 497 594 1153 
L 594 3053 
L 172 3053 
L 172 3500 
L 594 3500 
L 594 4494 
L 1172 4494 
z
" transform="scale(0.015625)"/>
       <path id="DejaVuSans-66" d="M 2375 4863 
L 2375 4384 
L 1825 4384 
Q 1516 4384 1395 4259 
Q 1275 4134 1275 3809 
L 1275 3500 
L 2222 3500 
L 2222 3053 
L 1275 3053 
L 1275 0 
L 697 0 
L 697 3053 
L 147 3053 
L 147 3500 
L 697 3500 
L 697 3744 
Q 697 4328 969 4595 
Q 1241 4863 1831 4863 
L 2375 4863 
z
" transform="scale(0.015625)"/>
       <path id="DejaVuSans-62" d="M 3116 1747 
Q 3116 2381 2855 2742 
Q 2594 3103 2138 3103 
Q 1681 3103 1420 2742 
Q 1159 2381 1159 1747 
Q 1159 1113 1420 752 
Q 1681 391 2138 391 
Q 2594 391 2855 752 
Q 3116 1113 3116 1747 
z
M 1159 2969 
Q 1341 3281 1617 3432 
Q 1894 3584 2278 3584 
Q 2916 3584 3314 3078 
Q 3713 2572 3713 1747 
Q 3713 922 3314 415 
Q 2916 -91 2278 -91 
Q 1894 -91 1617 61 
Q 1341 213 1159 525 
L 1159 0 
L 581 0 
L 581 4863 
L 1159 4863 
L 1159 2969 
z
" transform="scale(0.015625)"/>
       <path id="DejaVuSans-6a" d="M 603 3500 
L 1178 3500 
L 1178 -63 
Q 1178 -731 923 -1031 
Q 669 -1331 103 -1331 
L -116 -1331 
L -116 -844 
L 38 -844 
Q 366 -844 484 -692 
Q 603 -541 603 -63 
L 603 3500 
z
M 603 4863 
L 1178 4863 
L 1178 4134 
L 603 4134 
L 603 4863 
z
" transform="scale(0.015625)"/>
       <path id="DejaVuSans-65" d="M 3597 1894 
L 3597 1613 
L 953 1613 
Q 991 1019 1311 708 
Q 1631 397 2203 397 
Q 2534 397 2845 478 
Q 3156 559 3463 722 
L 3463 178 
Q 3153 47 2828 -22 
Q 2503 -91 2169 -91 
Q 1331 -91 842 396 
Q 353 884 353 1716 
Q 353 2575 817 3079 
Q 1281 3584 2069 3584 
Q 2775 3584 3186 3129 
Q 3597 2675 3597 1894 
z
M 3022 2063 
Q 3016 2534 2758 2815 
Q 2500 3097 2075 3097 
Q 1594 3097 1305 2825 
Q 1016 2553 972 2059 
L 3022 2063 
z
" transform="scale(0.015625)"/>
       <path id="DejaVuSans-63" d="M 3122 3366 
L 3122 2828 
Q 2878 2963 2633 3030 
Q 2388 3097 2138 3097 
Q 1578 3097 1268 2742 
Q 959 2388 959 1747 
Q 959 1106 1268 751 
Q 1578 397 2138 397 
Q 2388 397 2633 464 
Q 2878 531 3122 666 
L 3122 134 
Q 2881 22 2623 -34 
Q 2366 -91 2075 -91 
Q 1284 -91 818 406 
Q 353 903 353 1747 
Q 353 2603 823 3093 
Q 1294 3584 2113 3584 
Q 2378 3584 2631 3529 
Q 2884 3475 3122 3366 
z
" transform="scale(0.015625)"/>
       <path id="DejaVuSans-73" d="M 2834 3397 
L 2834 2853 
Q 2591 2978 2328 3040 
Q 2066 3103 1784 3103 
Q 1356 3103 1142 2972 
Q 928 2841 928 2578 
Q 928 2378 1081 2264 
Q 1234 2150 1697 2047 
L 1894 2003 
Q 2506 1872 2764 1633 
Q 3022 1394 3022 966 
Q 3022 478 2636 193 
Q 2250 -91 1575 -91 
Q 1294 -91 989 -36 
Q 684 19 347 128 
L 347 722 
Q 666 556 975 473 
Q 1284 391 1588 391 
Q 1994 391 2212 530 
Q 2431 669 2431 922 
Q 2431 1156 2273 1281 
Q 2116 1406 1581 1522 
L 1381 1569 
Q 847 1681 609 1914 
Q 372 2147 372 2553 
Q 372 3047 722 3315 
Q 1072 3584 1716 3584 
Q 2034 3584 2315 3537 
Q 2597 3491 2834 3397 
z
" transform="scale(0.015625)"/>
       <path id="DejaVuSans-69" d="M 603 3500 
L 1178 3500 
L 1178 0 
L 603 0 
L 603 3500 
z
M 603 4863 
L 1178 4863 
L 1178 4134 
L 603 4134 
L 603 4863 
z
" transform="scale(0.015625)"/>
       <path id="DejaVuSans-61" d="M 2194 1759 
Q 1497 1759 1228 1600 
Q 959 1441 959 1056 
Q 959 750 1161 570 
Q 1363 391 1709 391 
Q 2188 391 2477 730 
Q 2766 1069 2766 1631 
L 2766 1759 
L 2194 1759 
z
M 3341 1997 
L 3341 0 
L 2766 0 
L 2766 531 
Q 2569 213 2275 61 
Q 1981 -91 1556 -91 
Q 1019 -91 701 211 
Q 384 513 384 1019 
Q 384 1609 779 1909 
Q 1175 2209 1959 2209 
L 2766 2209 
L 2766 2266 
Q 2766 2663 2505 2880 
Q 2244 3097 1772 3097 
Q 1472 3097 1187 3025 
Q 903 2953 641 2809 
L 641 3341 
Q 956 3463 1253 3523 
Q 1550 3584 1831 3584 
Q 2591 3584 2966 3190 
Q 3341 2797 3341 1997 
z
" transform="scale(0.015625)"/>
       <path id="DejaVuSans-6c" d="M 603 4863 
L 1178 4863 
L 1178 0 
L 603 0 
L 603 4863 
z
" transform="scale(0.015625)"/>
      </defs>
      <use xlink:href="#DejaVuSans-41"/>
      <use xlink:href="#DejaVuSans-6d" transform="translate(68.408203 0)"/>
      <use xlink:href="#DejaVuSans-6f" transform="translate(165.820312 0)"/>
      <use xlink:href="#DejaVuSans-75" transform="translate(227.001953 0)"/>
      <use xlink:href="#DejaVuSans-6e" transform="translate(290.380859 0)"/>
      <use xlink:href="#DejaVuSans-74" transform="translate(353.759766 0)"/>
      <use xlink:href="#DejaVuSans-20" transform="translate(392.96875 0)"/>
      <use xlink:href="#DejaVuSans-6f" transform="translate(424.755859 0)"/>
      <use xlink:href="#DejaVuSans-66" transform="translate(485.9375 0)"/>
      <use xlink:href="#DejaVuSans-20" transform="translate(521.142578 0)"/>
      <use xlink:href="#DejaVuSans-6f" transform="translate(552.929688 0)"/>
      <use xlink:href="#DejaVuSans-62" transform="translate(614.111328 0)"/>
      <use xlink:href="#DejaVuSans-6a" transform="translate(677.587891 0)"/>
      <use xlink:href="#DejaVuSans-65" transform="translate(705.371094 0)"/>
      <use xlink:href="#DejaVuSans-63" transform="translate(766.894531 0)"/>
      <use xlink:href="#DejaVuSans-74" transform="translate(821.875 0)"/>
      <use xlink:href="#DejaVuSans-73" transform="translate(861.083984 0)"/>
      <use xlink:href="#DejaVuSans-20" transform="translate(913.183594 0)"/>
      <use xlink:href="#DejaVuSans-69" transform="translate(944.970703 0)"/>
      <use xlink:href="#DejaVuSans-6e" transform="translate(972.753906 0)"/>
      <use xlink:href="#DejaVuSans-20" transform="translate(1036.132812 0)"/>
      <use xlink:href="#DejaVuSans-74" transform="translate(1067.919922 0)"/>
      <use xlink:href="#DejaVuSans-61" transform="translate(1107.128906 0)"/>
      <use xlink:href="#DejaVuSans-62" transform="translate(1168.408203 0)"/>
      <use xlink:href="#DejaVuSans-6c" transform="translate(1231.884766 0)"/>
      <use xlink:href="#DejaVuSans-65" transform="translate(1259.667969 0)"/>
     </g>
    </g>
   </g>
   <g id="matplotlib.axis_2">
    <g id="ytick_1">
     <g id="line2d_10">
      <defs>
       <path id="mbc62ca3e28" d="M 0 0 
L -3.5 0 
" style="stroke: #000000; stroke-width: 0.8"/>
      </defs>
      <g>
       <use xlink:href="#mbc62ca3e28" x="61.715625" y="288.430125" style="stroke: #000000; stroke-width: 0.8"/>
      </g>
     </g>
     <g id="text_11">
      <!-- 0 -->
      <g transform="translate(48.353125 292.229344) scale(0.1 -0.1)">
       <use xlink:href="#DejaVuSans-30"/>
      </g>
     </g>
    </g>
    <g id="ytick_2">
     <g id="line2d_11">
      <g>
       <use xlink:href="#mbc62ca3e28" x="61.715625" y="238.837122" style="stroke: #000000; stroke-width: 0.8"/>
      </g>
     </g>
     <g id="text_12">
      <!-- 100 µs -->
      <g transform="translate(20.878125 242.636341) scale(0.1 -0.1)">
       <defs>
        <path id="DejaVuSans-b5" d="M 544 -1331 
L 544 3500 
L 1119 3500 
L 1119 1325 
Q 1119 872 1334 640 
Q 1550 409 1972 409 
Q 2434 409 2667 671 
Q 2900 934 2900 1459 
L 2900 3500 
L 3475 3500 
L 3475 806 
Q 3475 619 3529 530 
Q 3584 441 3700 441 
Q 3728 441 3778 458 
Q 3828 475 3916 513 
L 3916 50 
Q 3788 -22 3673 -56 
Q 3559 -91 3450 -91 
Q 3234 -91 3106 31 
Q 2978 153 2931 403 
Q 2775 156 2548 32 
Q 2322 -91 2016 -91 
Q 1697 -91 1473 31 
Q 1250 153 1119 397 
L 1119 -1331 
L 544 -1331 
z
" transform="scale(0.015625)"/>
       </defs>
       <use xlink:href="#DejaVuSans-31"/>
       <use xlink:href="#DejaVuSans-30" transform="translate(63.623047 0)"/>
       <use xlink:href="#DejaVuSans-30" transform="translate(127.246094 0)"/>
       <use xlink:href="#DejaVuSans-20" transform="translate(190.869141 0)"/>
       <use xlink:href="#DejaVuSans-b5" transform="translate(222.65625 0)"/>
       <use xlink:href="#DejaVuSans-73" transform="translate(286.279297 0)"/>
      </g>
     </g>
    </g>
    <g id="ytick_3">
     <g id="line2d_12">
      <g>
       <use xlink:href="#mbc62ca3e28" x="61.715625" y="189.244119" style="stroke: #000000; stroke-width: 0.8"/>
      </g>
     </g>
     <g id="text_13">
      <!-- 200 µs -->
      <g transform="translate(20.878125 193.043337) scale(0.1 -0.1)">
       <use xlink:href="#DejaVuSans-32"/>
       <use xlink:href="#DejaVuSans-30" transform="translate(63.623047 0)"/>
       <use xlink:href="#DejaVuSans-30" transform="translate(127.246094 0)"/>
       <use xlink:href="#DejaVuSans-20" transform="translate(190.869141 0)"/>
       <use xlink:href="#DejaVuSans-b5" transform="translate(222.65625 0)"/>
       <use xlink:href="#DejaVuSans-73" transform="translate(286.279297 0)"/>
      </g>
     </g>
    </g>
    <g id="ytick_4">
     <g id="line2d_13">
      <g>
       <use xlink:href="#mbc62ca3e28" x="61.715625" y="139.651115" style="stroke: #000000; stroke-width: 0.8"/>
      </g>
     </g>
     <g id="text_14">
      <!-- 300 µs -->
      <g transform="translate(20.878125 143.450334) scale(0.1 -0.1)">
       <use xlink:href="#DejaVuSans-33"/>
       <use xlink:href="#DejaVuSans-30" transform="translate(63.623047 0)"/>
       <use xlink:href="#DejaVuSans-30" transform="translate(127.246094 0)"/>
       <use xlink:href="#DejaVuSans-20" transform="translate(190.869141 0)"/>
       <use xlink:href="#DejaVuSans-b5" transform="translate(222.65625 0)"/>
       <use xlink:href="#DejaVuSans-73" transform="translate(286.279297 0)"/>
      </g>
     </g>
    </g>
    <g id="ytick_5">
     <g id="line2d_14">
      <g>
       <use xlink:href="#mbc62ca3e28" x="61.715625" y="90.058112" style="stroke: #000000; stroke-width: 0.8"/>
      </g>
     </g>
     <g id="text_15">
      <!-- 400 µs -->
      <g transform="translate(20.878125 93.857331) scale(0.1 -0.1)">
       <use xlink:href="#DejaVuSans-34"/>
       <use xlink:href="#DejaVuSans-30" transform="translate(63.623047 0)"/>
       <use xlink:href="#DejaVuSans-30" transform="translate(127.246094 0)"/>
       <use xlink:href="#DejaVuSans-20" transform="translate(190.869141 0)"/>
       <use xlink:href="#DejaVuSans-b5" transform="translate(222.65625 0)"/>
       <use xlink:href="#DejaVuSans-73" transform="translate(286.279297 0)"/>
      </g>
     </g>
    </g>
    <g id="ytick_6">
     <g id="line2d_15">
      <g>
       <use xlink:href="#mbc62ca3e28" x="61.715625" y="40.465109" style="stroke: #000000; stroke-width: 0.8"/>
      </g>
     </g>
     <g id="text_16">
      <!-- 500 µs -->
      <g transform="translate(20.878125 44.264328) scale(0.1 -0.1)">
       <use xlink:href="#DejaVuSans-35"/>
       <use xlink:href="#DejaVuSans-30" transform="translate(63.623047 0)"/>
       <use xlink:href="#DejaVuSans-30" transform="translate(127.246094 0)"/>
       <use xlink:href="#DejaVuSans-20" transform="translate(190.869141 0)"/>
       <use xlink:href="#DejaVuSans-b5" transform="translate(222.65625 0)"/>
       <use xlink:href="#DejaVuSans-73" transform="translate(286.279297 0)"/>
      </g>
     </g>
    </g>
    <g id="text_17">
     <!-- Read latency (s) -->
     <g transform="translate(14.798438 195.98975) rotate(-90) scale(0.1 -0.1)">
      <defs>
       <path id="DejaVuSans-52" d="M 2841 2188 
Q 3044 2119 3236 1894 
Q 3428 1669 3622 1275 
L 4263 0 
L 3584 0 
L 2988 1197 
Q 2756 1666 2539 1819 
Q 2322 1972 1947 1972 
L 1259 1972 
L 1259 0 
L 628 0 
L 628 4666 
L 2053 4666 
Q 2853 4666 3247 4331 
Q 3641 3997 3641 3322 
Q 3641 2881 3436 2590 
Q 3231 2300 2841 2188 
z
M 1259 4147 
L 1259 2491 
L 2053 2491 
Q 2509 2491 2742 2702 
Q 2975 2913 2975 3322 
Q 2975 3731 2742 3939 
Q 2509 4147 2053 4147 
L 1259 4147 
z
" transform="scale(0.015625)"/>
       <path id="DejaVuSans-64" d="M 2906 2969 
L 2906 4863 
L 3481 4863 
L 3481 0 
L 2906 0 
L 2906 525 
Q 2725 213 2448 61 
Q 2172 -91 1784 -91 
Q 1150 -91 751 415 
Q 353 922 353 1747 
Q 353 2572 751 3078 
Q 1150 3584 1784 3584 
Q 2172 3584 2448 3432 
Q 2725 3281 2906 2969 
z
M 947 1747 
Q 947 1113 1208 752 
Q 1469 391 1925 391 
Q 2381 391 2643 752 
Q 2906 1113 2906 1747 
Q 2906 2381 2643 2742 
Q 2381 3103 1925 3103 
Q 1469 3103 1208 2742 
Q 947 2381 947 1747 
z
" transform="scale(0.015625)"/>
       <path id="DejaVuSans-79" d="M 2059 -325 
Q 1816 -950 1584 -1140 
Q 1353 -1331 966 -1331 
L 506 -1331 
L 506 -850 
L 844 -850 
Q 1081 -850 1212 -737 
Q 1344 -625 1503 -206 
L 1606 56 
L 191 3500 
L 800 3500 
L 1894 763 
L 2988 3500 
L 3597 3500 
L 2059 -325 
z
" transform="scale(0.015625)"/>
       <path id="DejaVuSans-28" d="M 1984 4856 
Q 1566 4138 1362 3434 
Q 1159 2731 1159 2009 
Q 1159 1288 1364 580 
Q 1569 -128 1984 -844 
L 1484 -844 
Q 1016 -109 783 600 
Q 550 1309 550 2009 
Q 550 2706 781 3412 
Q 1013 4119 1484 4856 
L 1984 4856 
z
" transform="scale(0.015625)"/>
       <path id="DejaVuSans-29" d="M 513 4856 
L 1013 4856 
Q 1481 4119 1714 3412 
Q 1947 2706 1947 2009 
Q 1947 1309 1714 600 
Q 1481 -109 1013 -844 
L 513 -844 
Q 928 -128 1133 580 
Q 1338 1288 1338 2009 
Q 1338 2731 1133 3434 
Q 928 4138 513 4856 
z
" transform="scale(0.015625)"/>
      </defs>
      <use xlink:href="#DejaVuSans-52"/>
      <use xlink:href="#DejaVuSans-65" transform="translate(64.982422 0)"/>
      <use xlink:href="#DejaVuSans-61" transform="translate(126.505859 0)"/>
      <use xlink:href="#DejaVuSans-64" transform="translate(187.785156 0)"/>
      <use xlink:href="#DejaVuSans-20" transform="translate(251.261719 0)"/>
      <use xlink:href="#DejaVuSans-6c" transform="translate(283.048828 0)"/>
      <use xlink:href="#DejaVuSans-61" transform="translate(310.832031 0)"/>
      <use xlink:href="#DejaVuSans-74" transform="translate(372.111328 0)"/>
      <use xlink:href="#DejaVuSans-65" transform="translate(411.320312 0)"/>
      <use xlink:href="#DejaVuSans-6e" transform="translate(472.84375 0)"/>
      <use xlink:href="#DejaVuSans-63" transform="translate(536.222656 0)"/>
      <use xlink:href="#DejaVuSans-79" transform="translate(591.203125 0)"/>
      <use xlink:href="#DejaVuSans-20" transform="translate(650.382812 0)"/>
      <use xlink:href="#DejaVuSans-28" transform="translate(682.169922 0)"/>
      <use xlink:href="#DejaVuSans-73" transform="translate(721.183594 0)"/>
      <use xlink:href="#DejaVuSans-29" transform="translate(773.283203 0)"/>
     </g>
    </g>
   </g>
   <g id="line2d_16">
    <path d="M 147.070811 142.456582 
L 149.683725 144.889879 
L 150.11921 145.858225 
L 150.554696 146.191113 
L 150.990181 146.159583 
L 152.296638 147.545707 
L 152.732124 147.750655 
L 153.603095 148.434621 
L 154.038581 148.928799 
L 154.474067 148.430983 
L 154.909552 148.83057 
L 155.345038 148.930012 
L 157.08698 148.717182 
L 157.522466 148.66928 
L 158.393437 147.383811 
L 158.828923 144.536375 
L 159.699894 143.229077 
L 161.006351 141.77686 
L 161.441837 141.915715 
L 161.877322 141.494299 
L 162.312808 141.730171 
L 162.748294 141.451854 
L 163.183779 140.793354 
L 164.490236 140.62782 
L 164.925722 140.075432 
L 165.796693 139.689185 
L 166.232179 139.552755 
L 167.10315 139.883218 
L 167.538636 139.786808 
L 167.974121 139.36903 
L 169.280578 139.450888 
L 169.716064 139.193188 
L 170.15155 139.166508 
L 170.587035 138.95004 
L 171.893492 139.785595 
L 173.199949 139.766798 
L 174.07092 139.310214 
L 174.506406 139.453313 
L 174.941892 139.372668 
L 176.248349 138.154504 
L 177.11932 138.24667 
L 177.990291 138.786324 
L 178.425777 139.971745 
L 178.861262 139.73648 
L 179.296748 140.50473 
L 180.167719 141.085011 
L 180.603205 140.99527 
L 181.038691 141.397283 
L 181.474176 141.607687 
L 181.909662 141.987871 
L 182.345148 141.953915 
L 182.780633 142.4869 
L 183.216119 142.818575 
L 183.651605 142.36381 
L 184.08709 142.404436 
L 185.393547 141.540988 
L 185.829033 141.580401 
L 186.264518 142.138853 
L 186.700004 142.146736 
L 187.13549 142.469316 
L 188.441947 142.433541 
L 188.877432 142.624542 
L 189.312918 142.334705 
L 189.748403 141.359689 
L 190.183889 141.278437 
L 190.619375 141.485204 
L 191.05486 141.189303 
L 191.490346 141.031651 
L 191.925832 139.626124 
L 192.796803 139.490907 
L 193.232289 139.992362 
L 193.667774 140.00085 
L 194.10326 139.688578 
L 194.974231 138.537113 
L 195.409717 138.991878 
L 195.845202 138.834226 
L 196.280688 138.145409 
L 197.587145 138.42615 
L 198.022631 138.15026 
L 198.458116 138.135707 
L 199.329088 137.667602 
L 199.764573 138.483148 
L 200.200059 138.642012 
L 200.635545 137.901048 
L 201.07103 137.941068 
L 201.506516 137.231634 
L 202.812973 136.604664 
L 203.248458 137.170392 
L 203.683944 137.217082 
L 204.11943 137.032144 
L 204.554915 136.981816 
L 204.990401 137.063674 
L 205.861372 136.734424 
L 206.296858 136.865396 
L 206.732343 136.518562 
L 207.603315 136.897533 
L 208.0388 136.671363 
L 208.909772 136.052883 
L 209.345257 135.808522 
L 209.780743 135.790938 
L 210.216229 136.96787 
L 210.651714 137.258314 
L 211.522686 137.399594 
L 211.958171 137.07762 
L 213.264628 136.522807 
L 213.700114 136.032267 
L 215.006571 136.05167 
L 215.442056 135.154873 
L 215.877542 134.763169 
L 216.748513 133.342483 
L 217.183999 132.878016 
L 217.619485 132.107341 
L 218.490456 131.136569 
L 220.232398 128.374628 
L 221.538855 126.416713 
L 221.974341 126.732017 
L 223.716283 125.343467 
L 226.329197 122.380218 
L 226.764683 122.000034 
L 227.200169 121.420966 
L 228.942111 118.53533 
L 231.119539 115.804314 
L 231.555025 116.046249 
L 233.296968 113.361316 
L 234.167939 111.812082 
L 234.603425 111.112957 
L 235.03891 109.806265 
L 235.474396 109.436389 
L 235.909881 109.874177 
L 236.345367 109.084704 
L 236.780853 108.720286 
L 237.651824 107.371149 
L 238.522795 106.658684 
L 238.958281 106.169963 
L 239.393767 106.513765 
L 241.135709 103.590535 
L 242.442166 101.400993 
L 242.877652 101.462234 
L 243.313137 100.868008 
L 243.748623 102.404508 
L 244.184109 102.401476 
L 245.05508 101.801186 
L 245.490566 101.792091 
L 245.926051 101.558645 
L 246.797022 101.786027 
L 247.232508 101.400993 
L 247.667994 101.451926 
L 248.103479 101.723573 
L 248.974451 101.593207 
L 249.409936 101.271233 
L 249.845422 101.385834 
L 250.280908 101.249404 
L 251.151879 101.271839 
L 251.587365 101.040212 
L 252.02285 100.99898 
L 252.458336 100.735823 
L 252.893821 101.022022 
L 253.764793 100.355639 
L 254.635764 100.179797 
L 255.07125 99.951201 
L 255.506735 100.034878 
L 257.248678 98.860371 
L 257.684164 98.885838 
L 258.119649 98.568109 
L 259.426106 98.265539 
L 259.861592 98.345577 
L 260.297077 98.694837 
L 260.732563 98.595395 
L 261.603534 98.950718 
L 262.909991 97.557318 
L 263.780962 97.257779 
L 264.216448 96.796344 
L 265.087419 96.626565 
L 265.522905 96.262147 
L 265.958391 96.149365 
L 266.829362 95.62305 
L 267.264848 95.804956 
L 269.442276 94.819025 
L 269.877761 95.051865 
L 270.313247 95.005782 
L 270.748733 94.561325 
L 271.184218 94.572846 
L 271.619704 91.918837 
L 272.05519 91.894582 
L 272.490675 91.487719 
L 272.926161 91.411319 
L 273.361647 91.196063 
L 274.232618 91.153012 
L 274.668104 91.91156 
L 275.103589 91.968558 
L 275.539075 90.095532 
L 275.97456 90.200431 
L 276.410046 88.642102 
L 276.845532 89.679573 
L 277.281017 89.983356 
L 277.716503 90.088862 
L 278.587474 89.66684 
L 279.893931 90.261672 
L 280.764902 89.725656 
L 281.200388 89.929391 
L 282.071359 89.506762 
L 282.506845 89.179331 
L 283.377816 89.4722 
L 283.813302 89.822672 
L 284.248788 90.023375 
L 284.684273 89.939699 
L 285.119759 89.60196 
L 285.555245 89.891797 
L 285.99073 89.778409 
L 286.426216 90.303511 
L 287.297187 90.777679 
L 287.732673 90.728565 
L 288.168158 90.947458 
L 288.603644 90.591529 
L 289.03913 90.877728 
L 289.910101 90.72432 
L 290.345587 90.466014 
L 290.781072 90.622453 
L 291.216558 90.422356 
L 291.652044 90.43509 
L 292.087529 90.198005 
L 292.523015 89.457041 
L 292.9585 89.235722 
L 293.393986 89.610449 
L 294.700443 89.560121 
L 295.135929 90.045204 
L 295.571414 89.726262 
L 296.442386 90.235599 
L 296.877871 90.090074 
L 297.313357 90.270768 
L 297.748842 90.312606 
L 299.055299 91.236689 
L 299.490785 91.245178 
L 299.926271 91.390703 
L 300.361756 91.827277 
L 300.797242 91.889732 
L 301.232728 92.273553 
L 301.668213 92.229896 
L 302.103699 91.818788 
L 302.539185 91.797566 
L 303.845641 91.348258 
L 304.716613 91.91156 
L 305.152098 91.858201 
L 305.587584 91.985535 
L 306.02307 92.306903 
L 306.458555 92.440907 
L 307.329527 91.637489 
L 308.200498 91.565332 
L 309.071469 91.255486 
L 309.94244 91.341588 
L 310.377926 90.915928 
L 310.813412 90.102808 
L 311.248897 89.81479 
L 311.684383 89.755367 
L 312.119869 89.89119 
L 312.555354 90.210132 
L 312.99084 90.314425 
L 313.426326 90.108871 
L 313.861811 90.160411 
L 314.297297 89.974261 
L 314.732782 89.628033 
L 315.168268 89.572248 
L 315.603754 88.317097 
L 316.039239 87.943583 
L 316.474725 88.132159 
L 317.345696 88.221293 
L 317.781182 87.859906 
L 318.216668 87.821706 
L 318.652153 88.308001 
L 319.087639 88.521438 
L 319.523125 88.49112 
L 319.95861 89.280592 
L 320.829581 88.648772 
L 321.265067 88.74882 
L 321.700553 88.354084 
L 322.136038 88.229782 
L 322.571524 88.315278 
L 323.00701 87.958135 
L 323.442495 87.923573 
L 323.877981 87.732572 
L 324.313467 87.91751 
L 324.748952 88.238271 
L 325.184438 88.158232 
L 326.055409 88.577222 
L 326.490895 88.657867 
L 327.361866 89.332739 
L 327.797352 89.464924 
L 328.232837 90.133732 
L 328.668323 90.561211 
L 329.103809 90.570306 
L 329.539294 89.547388 
L 330.410266 89.639554 
L 330.845751 89.867543 
L 331.281237 89.803269 
L 331.716722 89.341228 
L 332.152208 89.169023 
L 332.587694 89.276954 
L 333.023179 89.619544 
L 333.894151 89.303028 
L 334.765122 90.07249 
L 335.636093 90.264098 
L 336.071579 89.506156 
L 336.507065 89.768101 
L 336.94255 89.493423 
L 337.813521 89.574068 
L 339.99095 90.889855 
L 340.426435 90.683088 
L 340.861921 90.899556 
L 341.297407 90.931087 
L 342.168378 91.522888 
L 342.603864 91.433147 
L 343.474835 91.599895 
L 343.91032 91.904284 
L 344.345806 91.704794 
L 344.781292 91.8867 
L 345.216777 91.645977 
L 345.652263 91.980685 
L 346.087749 92.579762 
L 346.523234 92.465161 
L 346.95872 92.855046 
L 347.829691 93.156404 
L 348.265177 93.190966 
L 348.700662 93.377117 
L 349.136148 93.418349 
L 349.571634 93.298897 
L 350.007119 93.65422 
L 350.878091 93.89373 
L 352.184548 95.099161 
L 353.055519 95.297438 
L 353.491005 95.452665 
L 353.92649 95.949268 
L 354.361976 95.938354 
L 354.797461 95.697632 
L 355.668433 96.298528 
L 356.103918 96.327027 
L 356.539404 98.964058 
L 356.97489 99.016204 
L 357.410375 99.484309 
L 357.845861 99.099275 
L 358.281347 99.609218 
L 358.716832 99.281181 
L 359.152318 99.253895 
L 359.587804 99.689257 
L 360.023289 99.960297 
L 360.458775 101.888501 
L 360.89426 102.053429 
L 361.329746 103.455318 
L 361.765232 103.813067 
L 363.94266 103.714838 
L 364.813631 103.958592 
L 365.249117 104.172635 
L 365.684603 104.531596 
L 366.120088 104.663175 
L 366.555574 104.911173 
L 366.991059 105.350173 
L 367.862031 104.947554 
L 368.297516 104.427303 
L 368.733002 104.49097 
L 369.168488 104.2648 
L 369.603973 103.739698 
L 370.039459 103.628735 
L 370.474945 102.375403 
L 370.91043 102.685249 
L 371.345916 102.346904 
L 371.781401 102.242611 
L 372.652373 102.475451 
L 373.087858 102.480908 
L 373.523344 102.879889 
L 374.394315 102.016441 
L 374.829801 102.057674 
L 375.265287 102.491216 
L 376.136258 102.514258 
L 376.571744 102.303247 
L 377.007229 102.494854 
L 377.8782 103.24552 
L 378.313686 103.063008 
L 379.620143 103.699072 
L 380.055629 101.757529 
L 380.491114 101.798154 
L 380.9266 101.408875 
L 381.362086 100.52178 
L 381.797571 100.85103 
L 383.104028 100.50177 
L 383.539514 100.706112 
L 383.974999 100.352607 
L 384.410485 100.57332 
L 384.845971 100.319864 
L 385.281456 100.381712 
L 385.716942 100.262867 
L 386.152428 100.022145 
L 386.587913 100.022751 
L 387.458885 100.707931 
L 387.89437 100.944408 
L 388.329856 100.507834 
L 388.765341 98.547493 
L 389.200827 98.530515 
L 389.636313 98.354673 
L 390.071798 98.358311 
L 390.507284 98.153363 
L 391.378255 97.913854 
L 391.813741 97.820475 
L 392.249227 98.163671 
L 392.684712 98.118195 
L 393.120198 97.752564 
L 393.555684 97.691928 
L 393.991169 96.464669 
L 394.426655 96.221521 
L 394.86214 96.203937 
L 395.297626 96.347036 
L 395.733112 97.190474 
L 396.604083 96.96006 
L 397.039569 96.806652 
L 398.346026 97.081937 
L 398.781511 97.371774 
L 399.216997 97.315989 
L 399.652483 97.7465 
L 400.087968 97.442717 
L 400.523454 98.890689 
L 400.958939 99.429737 
L 401.829911 99.51584 
L 401.829911 99.51584 
" clip-path="url(#pa99fc34e18)" style="fill: none; stroke: #1f77b4; stroke-opacity: 0.8; stroke-width: 1.5; stroke-linecap: square"/>
   </g>
   <g id="line2d_17">
    <path d="M 147.070811 137.453559 
L 147.506296 137.078833 
L 148.812753 136.583442 
L 149.683725 136.670757 
L 150.11921 136.653779 
L 151.861153 136.057127 
L 152.732124 136.346358 
L 153.16761 136.164452 
L 153.603095 134.818347 
L 154.038581 134.694651 
L 154.474067 134.406633 
L 154.909552 135.328897 
L 155.345038 135.165181 
L 155.780523 134.236854 
L 156.216009 133.982186 
L 157.522466 133.996738 
L 158.393437 134.195016 
L 158.828923 132.892568 
L 159.264409 132.92228 
L 160.570866 132.334117 
L 161.006351 132.034578 
L 161.441837 131.890872 
L 161.877322 132.514204 
L 162.748294 132.236494 
L 163.183779 133.19817 
L 164.054751 133.034455 
L 164.490236 131.806589 
L 164.925722 131.620439 
L 165.361208 131.593153 
L 165.796693 130.633902 
L 166.232179 130.143968 
L 166.667665 130.005719 
L 167.10315 130.247654 
L 167.538636 129.883842 
L 168.845093 129.837153 
L 169.716064 129.509722 
L 170.15155 129.395728 
L 170.587035 129.496989 
L 171.022521 129.324784 
L 171.458007 128.791193 
L 171.893492 128.633541 
L 172.328978 128.33946 
L 173.635435 128.787555 
L 174.506406 128.350981 
L 176.248349 127.685811 
L 176.683834 127.281979 
L 177.990291 126.966069 
L 178.425777 127.140093 
L 179.296748 126.667137 
L 179.732234 126.48038 
L 180.167719 126.142035 
L 180.603205 125.644219 
L 181.474176 125.897068 
L 181.909662 125.071214 
L 182.345148 124.793505 
L 182.780633 125.090618 
L 183.216119 124.806844 
L 183.651605 124.270828 
L 184.08709 123.985235 
L 184.522576 124.358143 
L 184.958061 125.108808 
L 185.829033 124.586738 
L 186.264518 124.557633 
L 186.700004 124.710434 
L 187.13549 124.226564 
L 188.006461 123.707525 
L 188.441947 123.916717 
L 188.877432 123.877911 
L 189.312918 124.050115 
L 189.748403 123.75664 
L 190.183889 123.955524 
L 190.619375 123.507429 
L 191.05486 123.437092 
L 191.490346 123.488025 
L 191.925832 123.414657 
L 192.361317 123.148467 
L 193.232289 123.432847 
L 193.667774 123.695398 
L 194.538746 123.42739 
L 194.974231 122.98839 
L 195.409717 122.901682 
L 195.845202 122.035809 
L 197.151659 122.461469 
L 197.587145 122.375367 
L 198.458116 121.772651 
L 198.893602 121.696251 
L 199.329088 121.787204 
L 200.200059 121.667146 
L 200.635545 121.817522 
L 201.506516 121.578618 
L 202.812973 122.20195 
L 203.683944 122.214683 
L 204.11943 122.552422 
L 204.990401 123.001124 
L 205.425887 122.636099 
L 205.861372 122.74403 
L 206.732343 122.278957 
L 207.167829 122.006097 
L 208.474286 120.561157 
L 208.909772 120.183399 
L 209.345257 118.991308 
L 209.780743 118.950076 
L 210.216229 117.935646 
L 210.651714 117.693105 
L 211.0872 117.597907 
L 211.522686 117.765261 
L 211.958171 117.515443 
L 212.393657 117.411757 
L 212.829142 117.640959 
L 213.264628 117.42449 
L 213.700114 117.795579 
L 214.135599 117.646416 
L 214.571085 117.923519 
L 215.877542 117.436011 
L 217.183999 117.740401 
L 217.619485 118.112095 
L 218.05497 117.875011 
L 218.490456 117.940497 
L 218.925941 117.652479 
L 219.361427 117.586387 
L 219.796913 117.2632 
L 220.232398 117.170428 
L 220.667884 117.192863 
L 221.10337 117.013989 
L 221.538855 117.237734 
L 221.974341 117.094634 
L 222.409827 116.654421 
L 222.845312 116.5283 
L 223.280798 116.203901 
L 224.151769 116.279695 
L 225.458226 115.752774 
L 225.893712 115.464756 
L 226.329197 115.490223 
L 226.764683 115.396238 
L 227.200169 115.529636 
L 228.07114 115.515083 
L 228.506626 115.696989 
L 229.813082 115.607249 
L 230.684054 114.931771 
L 231.119539 115.038489 
L 231.555025 114.869923 
L 231.990511 114.948749 
L 232.861482 114.763811 
L 234.603425 114.422434 
L 235.03891 113.991317 
L 235.474396 113.820932 
L 237.216338 113.70148 
L 238.08731 112.970218 
L 238.522795 113.899151 
L 239.393767 113.686321 
L 239.829252 113.705724 
L 240.264738 113.502596 
L 240.700224 114.026485 
L 241.135709 114.148362 
L 241.571195 113.828208 
L 242.00668 113.659035 
L 242.442166 113.361316 
L 242.877652 112.9017 
L 243.313137 112.920497 
L 243.748623 114.255081 
L 244.619594 113.765753 
L 245.490566 113.361922 
L 245.926051 113.421345 
L 246.361537 113.303106 
L 246.797022 113.332211 
L 247.232508 113.215791 
L 248.103479 112.600948 
L 248.538965 112.15831 
L 248.974451 111.971553 
L 249.409936 112.915039 
L 249.845422 112.918677 
L 250.280908 112.69372 
L 250.716393 113.477129 
L 251.587365 112.987195 
L 252.02285 112.450573 
L 252.458336 112.814385 
L 253.764793 112.34628 
L 254.635764 112.788918 
L 255.506735 112.434807 
L 255.942221 112.454211 
L 256.377707 112.751324 
L 257.248678 112.372959 
L 257.684164 111.93214 
L 258.119649 111.97883 
L 258.555135 111.709609 
L 258.99062 111.57136 
L 259.861592 111.046258 
L 260.297077 110.955305 
L 260.732563 111.141455 
L 261.168049 111.096585 
L 262.474506 111.334882 
L 262.909991 111.379752 
L 263.345477 111.779946 
L 263.780962 111.8806 
L 264.216448 111.761149 
L 265.087419 112.029157 
L 265.522905 112.481497 
L 265.958391 112.273517 
L 266.393876 111.931534 
L 266.829362 112.570631 
L 267.264848 112.481497 
L 268.135819 112.536675 
L 268.571305 112.242593 
L 269.00679 112.522729 
L 269.442276 112.518484 
L 269.877761 112.638542 
L 270.313247 112.447541 
L 270.748733 112.44936 
L 271.184218 111.987319 
L 271.619704 112.053411 
L 272.05519 112.474827 
L 272.490675 113.243077 
L 273.797132 112.666434 
L 274.232618 112.598523 
L 274.668104 113.035097 
L 275.103589 113.166676 
L 276.410046 114.014965 
L 277.281017 114.467911 
L 278.151989 114.400605 
L 278.587474 114.292068 
L 279.02296 114.419402 
L 279.893931 114.997864 
L 280.329417 114.859615 
L 280.764902 115.370165 
L 282.506845 114.890539 
L 282.942331 115.309529 
L 283.377816 115.255564 
L 283.813302 115.562379 
L 284.248788 115.72185 
L 284.684273 115.721243 
L 285.555245 115.26951 
L 285.99073 115.225246 
L 286.426216 115.64363 
L 287.732673 114.974216 
L 288.603644 114.857796 
L 289.03913 114.615255 
L 289.474615 114.683773 
L 289.910101 114.483676 
L 290.345587 114.629201 
L 290.781072 114.595851 
L 291.216558 114.713484 
L 291.652044 115.097912 
L 292.087529 115.050616 
L 292.523015 115.261627 
L 293.393986 116.083236 
L 293.829472 116.132351 
L 294.264957 117.319591 
L 294.700443 117.265019 
L 295.135929 118.575349 
L 295.571414 118.505619 
L 296.0069 118.776052 
L 296.877871 118.715417 
L 297.313357 117.81862 
L 297.748842 117.43116 
L 298.184328 117.239553 
L 299.055299 117.182555 
L 299.490785 117.249861 
L 299.926271 117.554856 
L 300.361756 116.537395 
L 300.797242 116.363978 
L 301.232728 116.477973 
L 301.668213 116.103852 
L 302.103699 116.234218 
L 302.97467 116.111735 
L 303.410156 115.058499 
L 303.845641 115.228278 
L 304.281127 114.428498 
L 304.716613 115.083966 
L 305.587584 115.606036 
L 306.02307 116.014718 
L 306.458555 115.686681 
L 306.894041 116.027452 
L 307.329527 116.722333 
L 308.200498 116.869677 
L 308.635984 116.615008 
L 309.071469 116.83754 
L 309.506955 116.108703 
L 309.94244 116.35367 
L 310.377926 116.422794 
L 310.813412 116.710206 
L 311.248897 116.558618 
L 311.684383 116.660485 
L 312.119869 116.421582 
L 314.297297 116.371254 
L 315.603754 117.27654 
L 316.039239 117.371738 
L 316.474725 117.241372 
L 316.910211 117.475424 
L 317.345696 116.341543 
L 317.781182 116.608339 
L 318.216668 116.452506 
L 318.652153 116.460995 
L 319.087639 116.188742 
L 320.394096 116.61804 
L 320.829581 116.285152 
L 321.265067 116.433102 
L 322.136038 116.1275 
L 322.571524 115.456267 
L 323.00701 115.644843 
L 323.877981 115.438683 
L 324.313467 115.33439 
L 324.748952 115.068807 
L 326.055409 115.461118 
L 326.490895 115.403514 
L 326.92638 115.529636 
L 327.797352 115.992283 
L 328.668323 115.473851 
L 330.410266 116.363372 
L 330.845751 116.138415 
L 331.281237 116.25726 
L 331.716722 116.097789 
L 332.152208 116.200263 
L 332.587694 116.516779 
L 333.023179 115.555103 
L 334.329636 115.755806 
L 334.765122 114.563715 
L 335.636093 114.983918 
L 336.071579 114.985737 
L 336.507065 114.612223 
L 336.94255 115.274361 
L 337.378036 115.06335 
L 337.813521 115.072445 
L 338.249007 115.320444 
L 338.684493 115.151271 
L 339.555464 115.168249 
L 339.99095 115.335603 
L 340.861921 115.387143 
L 341.297407 115.18644 
L 341.732892 115.144601 
L 342.168378 115.231916 
L 342.603864 115.628471 
L 343.039349 115.647268 
L 343.474835 115.915883 
L 343.91032 115.639386 
L 344.781292 115.703659 
L 345.216777 114.414552 
L 345.652263 114.137448 
L 346.087749 114.12047 
L 346.523234 113.632356 
L 347.394206 113.847005 
L 348.265177 113.459545 
L 349.136148 113.321903 
L 350.007119 112.825905 
L 350.878091 112.664615 
L 351.313576 112.914433 
L 351.749062 112.933836 
L 353.491005 113.795465 
L 353.92649 113.60992 
L 354.361976 113.680257 
L 354.797461 113.478948 
L 355.232947 113.817293 
L 355.668433 113.754233 
L 356.103918 114.071962 
L 357.845861 114.311471 
L 358.716832 115.044553 
L 359.587804 114.75411 
L 360.023289 114.617074 
L 360.89426 114.042251 
L 361.329746 114.051346 
L 363.071689 113.005386 
L 364.813631 113.335242 
L 365.249117 113.714213 
L 365.684603 113.788795 
L 366.120088 114.041038 
L 366.555574 113.995561 
L 366.991059 114.21021 
L 367.426545 114.152607 
L 367.862031 112.249263 
L 368.297516 112.443903 
L 368.733002 112.04856 
L 369.168488 111.430686 
L 369.603973 111.397943 
L 370.91043 111.953969 
L 371.345916 111.528309 
L 371.781401 111.748415 
L 373.087858 111.957001 
L 373.523344 111.391273 
L 373.95883 111.115989 
L 374.829801 111.009877 
L 375.265287 110.955911 
L 376.571744 110.20949 
L 377.007229 110.352589 
L 378.749172 109.723195 
L 379.184657 109.062876 
L 381.362086 107.198339 
L 381.797571 107.5573 
L 382.233057 108.555964 
L 382.668543 108.532316 
L 383.104028 108.835493 
L 383.539514 108.753635 
L 383.974999 108.797899 
L 384.410485 108.304934 
L 384.845971 106.964286 
L 385.281456 108.089072 
L 385.716942 108.34374 
L 386.152428 108.457735 
L 386.587913 108.756667 
L 387.023399 108.720286 
L 387.89437 109.075609 
L 388.329856 109.922685 
L 388.765341 109.934812 
L 389.200827 110.933476 
L 389.636313 110.821907 
L 390.071798 110.851618 
L 390.94277 110.512667 
L 391.378255 110.772792 
L 391.813741 110.763091 
L 392.249227 110.40413 
L 393.120198 110.180991 
L 393.555684 110.146429 
L 393.991169 109.660134 
L 394.426655 110.774611 
L 394.86214 110.698817 
L 395.297626 110.83464 
L 396.168597 110.173109 
L 396.604083 110.123994 
L 397.475054 110.593312 
L 398.346026 110.499933 
L 398.781511 110.666681 
L 399.216997 110.607864 
L 399.652483 110.389577 
L 400.958939 110.095496 
L 401.394425 110.334399 
L 401.829911 110.405949 
L 401.829911 110.405949 
" clip-path="url(#pa99fc34e18)" style="fill: none; stroke: #ff7f0e; stroke-opacity: 0.8; stroke-width: 1.5; stroke-linecap: square"/>
   </g>
   <g id="line2d_18">
    <path d="M 147.070811 101.701138 
L 147.941782 101.591388 
L 148.377268 101.288817 
L 148.812753 100.807373 
L 149.248239 100.136139 
L 150.11921 99.724425 
L 150.554696 99.283606 
L 150.990181 99.064713 
L 151.425667 99.07017 
L 151.861153 98.529909 
L 152.296638 98.469273 
L 153.16761 97.655547 
L 154.038581 97.626442 
L 154.474067 97.209271 
L 154.909552 97.057683 
L 155.345038 96.721156 
L 156.216009 97.125594 
L 156.651495 96.832725 
L 157.08698 96.935199 
L 157.522466 96.162098 
L 157.957952 96.342792 
L 158.393437 96.04204 
L 158.828923 95.540586 
L 159.264409 96.803014 
L 159.699894 96.544707 
L 161.006351 95.334426 
L 161.877322 95.230133 
L 162.312808 95.427198 
L 162.748294 95.784946 
L 163.183779 95.794042 
L 165.361208 94.98456 
L 166.232179 95.567266 
L 167.538636 94.443693 
L 167.974121 94.145973 
L 168.409607 94.107773 
L 168.845093 93.569937 
L 169.280578 93.542045 
L 169.716064 91.351896 
L 170.15155 92.712553 
L 170.587035 91.476198 
L 171.022521 91.547748 
L 171.458007 91.297931 
L 172.328978 91.217286 
L 172.764463 91.023859 
L 173.635435 91.049932 
L 174.07092 90.755244 
L 174.506406 89.67836 
L 175.377377 89.306666 
L 175.812863 89.568004 
L 176.248349 89.426117 
L 176.683834 88.896164 
L 177.11932 88.757309 
L 177.554806 89.097474 
L 178.861262 89.244211 
L 180.167719 89.529804 
L 180.603205 89.164779 
L 182.345148 89.288475 
L 182.780633 89.730507 
L 183.216119 89.548601 
L 183.651605 90.016706 
L 184.08709 91.354321 
L 184.522576 90.489055 
L 184.958061 90.222259 
L 185.393547 92.531254 
L 186.700004 91.584736 
L 187.13549 91.563513 
L 187.570975 90.723107 
L 188.006461 90.823156 
L 188.441947 91.145129 
L 189.312918 90.91229 
L 189.748403 90.516947 
L 190.183889 90.80921 
L 190.619375 90.784349 
L 191.925832 91.675082 
L 192.361317 91.632031 
L 192.796803 91.863658 
L 193.232289 91.957643 
L 193.667774 91.891551 
L 194.10326 91.034167 
L 194.538746 91.00203 
L 194.974231 90.794657 
L 195.409717 90.75767 
L 195.845202 90.880153 
L 196.280688 91.245178 
L 196.716174 91.270645 
L 197.151659 91.522888 
L 197.587145 91.310664 
L 198.458116 92.134698 
L 198.893602 91.334918 
L 199.329088 91.210009 
L 199.764573 91.482868 
L 200.200059 91.46589 
L 200.635545 91.157257 
L 201.07103 91.303388 
L 201.506516 91.146342 
L 201.942001 91.178479 
L 202.377487 89.523134 
L 202.812973 89.566791 
L 203.248458 90.754638 
L 204.11943 91.0087 
L 204.554915 90.76252 
L 204.990401 89.768707 
L 205.425887 90.125243 
L 205.861372 90.177996 
L 206.296858 89.2145 
L 206.732343 89.659563 
L 207.603315 89.595896 
L 208.0388 89.728688 
L 208.474286 89.740815 
L 208.909772 89.963346 
L 209.345257 89.832374 
L 209.780743 89.946369 
L 210.216229 90.250152 
L 210.651714 90.397496 
L 211.0872 90.084011 
L 211.522686 88.654229 
L 213.264628 89.36245 
L 213.700114 89.772345 
L 214.571085 90.196186 
L 215.006571 90.835889 
L 215.442056 92.438482 
L 215.877542 92.736807 
L 216.313028 91.829096 
L 216.748513 92.365719 
L 217.183999 92.272947 
L 217.619485 92.554901 
L 218.05497 92.611292 
L 218.490456 92.476075 
L 218.925941 92.541562 
L 219.796913 91.768461 
L 220.232398 92.096498 
L 222.409827 92.614324 
L 222.845312 92.855046 
L 223.280798 93.26191 
L 223.716283 92.832611 
L 224.151769 93.096375 
L 225.02274 93.155191 
L 225.458226 93.30678 
L 225.893712 94.802654 
L 226.329197 94.584973 
L 227.200169 94.877842 
L 228.506626 96.259115 
L 228.942111 96.45618 
L 229.377597 96.804833 
L 229.813082 96.932774 
L 230.248568 95.576361 
L 230.684054 95.821328 
L 231.119539 95.298651 
L 231.555025 95.139786 
L 231.990511 95.514513 
L 232.425996 95.295013 
L 232.861482 92.234747 
L 233.296968 92.679204 
L 234.167939 93.10547 
L 234.603425 93.149734 
L 235.474396 93.859774 
L 236.345367 93.538407 
L 236.780853 93.626934 
L 237.216338 93.489898 
L 237.651824 93.724557 
L 238.08731 93.819148 
L 238.522795 93.673017 
L 238.958281 93.649369 
L 239.393767 94.155068 
L 240.264738 94.606802 
L 242.00668 94.547985 
L 242.442166 95.298045 
L 242.877652 94.748688 
L 243.313137 94.930594 
L 243.748623 95.286524 
L 244.184109 95.38536 
L 244.619594 95.620625 
L 245.490566 95.714003 
L 245.926051 96.039009 
L 246.797022 95.61638 
L 247.232508 95.49996 
L 247.667994 95.196177 
L 248.538965 94.219948 
L 248.974451 94.1963 
L 249.409936 94.470978 
L 249.845422 94.53889 
L 250.280908 94.323028 
L 250.716393 94.356378 
L 251.587365 94.777793 
L 252.458336 94.253904 
L 252.893821 94.574059 
L 253.329307 94.527369 
L 254.200278 95.051865 
L 254.635764 97.004323 
L 255.07125 96.684169 
L 255.506735 98.06908 
L 255.942221 97.856856 
L 256.813192 97.645239 
L 257.248678 97.412399 
L 257.684164 97.724065 
L 258.119649 97.896876 
L 258.555135 97.593699 
L 258.99062 97.90779 
L 259.426106 98.47655 
L 259.861592 98.648754 
L 260.732563 98.559014 
L 261.168049 98.625106 
L 261.603534 99.122923 
L 262.03902 98.977398 
L 262.474506 98.694231 
L 262.909991 98.880381 
L 265.087419 98.407425 
L 265.522905 98.730005 
L 265.958391 98.662094 
L 266.393876 98.344971 
L 266.829362 98.526877 
L 267.264848 98.452296 
L 267.700333 96.496806 
L 268.571305 96.515602 
L 269.00679 96.212426 
L 269.442276 96.859405 
L 269.877761 97.143785 
L 270.313247 97.02312 
L 271.619704 98.118195 
L 272.05519 98.131535 
L 272.490675 99.051979 
L 272.926161 99.238736 
L 273.361647 99.003471 
L 273.797132 99.259352 
L 274.232618 98.785184 
L 274.668104 99.173856 
L 275.103589 99.205387 
L 275.539075 99.064713 
L 276.410046 99.181132 
L 276.845532 98.979217 
L 277.281017 99.051979 
L 277.716503 99.286032 
L 278.151989 99.339391 
L 278.587474 99.095637 
L 279.02296 100.281664 
L 279.458446 100.266505 
L 279.893931 100.459326 
L 280.329417 100.166457 
L 281.635874 99.970605 
L 282.071359 99.814166 
L 282.942331 99.779603 
L 283.377816 99.638323 
L 283.813302 100.52178 
L 284.248788 100.397478 
L 285.119759 100.556342 
L 285.555245 100.630924 
L 285.99073 100.569076 
L 286.426216 100.315014 
L 286.861701 100.27075 
L 287.297187 101.910936 
L 287.732673 101.98673 
L 288.168158 100.331385 
L 289.474615 99.910576 
L 289.910101 101.196045 
L 290.345587 100.823744 
L 290.781072 101.004437 
L 291.216558 101.69083 
L 291.652044 101.540454 
L 292.087529 101.735093 
L 292.523015 101.701744 
L 292.9585 101.92852 
L 293.393986 101.990368 
L 293.829472 101.478 
L 294.700443 102.110426 
L 295.135929 101.739338 
L 296.0069 101.843631 
L 296.442386 102.917483 
L 296.877871 103.113335 
L 297.313357 103.008436 
L 298.619814 103.232787 
L 299.055299 103.529293 
L 299.490785 103.587503 
L 299.926271 103.39347 
L 300.361756 103.382556 
L 300.797242 103.189129 
L 301.232728 104.273289 
L 301.668213 104.269651 
L 302.97467 104.688641 
L 303.845641 104.750489 
L 304.281127 105.070644 
L 305.152098 105.403532 
L 305.587584 105.338652 
L 307.765012 106.055969 
L 308.200498 105.880126 
L 308.635984 105.974111 
L 309.071469 105.909231 
L 309.506955 106.11054 
L 309.94244 106.51134 
L 310.813412 106.534381 
L 311.248897 106.814517 
L 311.684383 106.773285 
L 312.555354 105.741271 
L 312.99084 105.455072 
L 313.426326 105.477507 
L 313.861811 105.63334 
L 314.297297 105.356237 
L 314.732782 105.653956 
L 315.168268 106.990966 
L 315.603754 106.870301 
L 316.039239 107.471198 
L 316.474725 107.853807 
L 316.910211 107.908985 
L 317.345696 108.107262 
L 317.781182 111.374901 
L 318.652153 110.945603 
L 319.087639 111.134179 
L 319.523125 108.96404 
L 319.95861 108.917351 
L 320.394096 108.999208 
L 321.265067 109.49945 
L 322.136038 110.227074 
L 322.571524 108.331007 
L 323.00701 108.375877 
L 323.877981 107.995087 
L 324.313467 107.226837 
L 325.184438 106.450705 
L 325.619924 105.91105 
L 326.055409 105.61515 
L 326.490895 105.855872 
L 327.361866 105.489028 
L 327.797352 106.017768 
L 328.232837 106.063851 
L 328.668323 105.823735 
L 329.103809 105.725506 
L 329.539294 105.428393 
L 329.97478 105.428999 
L 330.410266 105.233147 
L 330.845751 104.876611 
L 331.716722 105.357449 
L 332.152208 105.138556 
L 332.587694 105.116121 
L 333.894151 105.491453 
L 334.329636 105.077314 
L 335.200608 104.944523 
L 335.636093 104.416389 
L 336.071579 104.109574 
L 336.507065 104.118669 
L 336.94255 104.41457 
L 337.378036 104.323617 
L 337.813521 103.937976 
L 338.249007 104.047726 
L 338.684493 102.990245 
L 339.119978 102.859273 
L 339.555464 102.94295 
L 339.99095 103.264923 
L 340.426435 102.925972 
L 340.861921 103.130313 
L 341.732892 103.092113 
L 342.168378 103.261892 
L 343.039349 102.636135 
L 343.474835 102.598541 
L 343.91032 102.278993 
L 344.345806 102.345691 
L 344.781292 102.135287 
L 345.216777 102.334171 
L 345.652263 102.061312 
L 346.087749 102.009772 
L 346.523234 101.823621 
L 346.95872 102.190465 
L 347.394206 102.081321 
L 347.829691 101.779357 
L 348.700662 101.966114 
L 349.136148 101.550762 
L 349.571634 101.775113 
L 350.007119 101.363399 
L 350.442605 101.355516 
L 351.313576 101.722966 
L 351.749062 101.34824 
L 352.184548 101.387047 
L 352.620033 103.032084 
L 353.491005 102.597934 
L 353.92649 102.808339 
L 354.361976 102.825923 
L 354.797461 102.34751 
L 355.232947 102.468781 
L 355.668433 101.992794 
L 356.103918 101.756922 
L 356.539404 100.297429 
L 356.97489 100.005773 
L 357.410375 100.010624 
L 357.845861 99.544338 
L 358.281347 99.561316 
L 358.716832 99.288457 
L 359.152318 99.420642 
L 359.587804 99.356369 
L 360.023289 98.801555 
L 360.458775 98.435318 
L 360.89426 97.912035 
L 362.200717 97.050406 
L 362.636203 96.756931 
L 363.507174 96.626565 
L 364.813631 95.596371 
L 365.249117 95.897728 
L 366.120088 95.928046 
L 366.991059 95.872868 
L 367.426545 95.519364 
L 367.862031 94.976677 
L 368.733002 94.715339 
L 369.168488 94.934839 
L 370.474945 94.768092 
L 370.91043 94.937871 
L 371.345916 96.040221 
L 371.781401 95.116139 
L 372.216887 94.741412 
L 372.652373 94.644396 
L 373.087858 96.437989 
L 374.394315 97.120137 
L 374.829801 97.221398 
L 375.265287 96.344004 
L 376.136258 96.3913 
L 376.571744 96.23668 
L 377.8782 95.301076 
L 378.313686 95.438112 
L 378.749172 95.88742 
L 379.620143 94.916648 
L 380.055629 95.236803 
L 380.491114 95.00457 
L 381.362086 94.855407 
L 381.797571 93.980438 
L 382.233057 93.919803 
L 383.104028 94.288466 
L 383.539514 94.216916 
L 383.974999 93.993778 
L 384.410485 93.586915 
L 384.845971 93.85553 
L 385.716942 93.627541 
L 386.152428 93.779735 
L 386.587913 93.619658 
L 387.023399 93.805809 
L 387.458885 93.730014 
L 387.89437 93.435327 
L 388.329856 93.360139 
L 389.200827 93.677262 
L 390.94277 92.768944 
L 391.813741 93.061813 
L 392.684712 92.884758 
L 393.120198 93.132756 
L 393.555684 93.130937 
L 394.86214 92.394824 
L 395.297626 92.070425 
L 395.733112 92.341465 
L 396.168597 92.22929 
L 397.475054 92.685874 
L 398.346026 92.589464 
L 398.781511 92.772582 
L 399.216997 92.658588 
L 399.652483 92.274766 
L 400.087968 92.470012 
L 400.523454 92.437269 
L 401.394425 91.658711 
L 401.829911 91.561088 
L 401.829911 91.561088 
" clip-path="url(#pa99fc34e18)" style="fill: none; stroke: #2ca02c; stroke-opacity: 0.8; stroke-width: 1.5; stroke-linecap: square"/>
   </g>
   <g id="line2d_19">
    <path d="M 147.070811 108.945243 
L 147.941782 107.887156 
L 148.377268 107.83501 
L 148.812753 107.346895 
L 149.683725 106.954584 
L 150.554696 106.596836 
L 150.990181 106.365209 
L 151.425667 105.781897 
L 152.296638 105.322281 
L 152.732124 104.811731 
L 153.603095 104.241759 
L 154.474067 103.40014 
L 154.909552 103.344356 
L 155.345038 103.653596 
L 155.780523 103.27705 
L 156.216009 103.096357 
L 156.651495 102.646443 
L 157.522466 102.122553 
L 157.957952 101.974603 
L 158.393437 102.202592 
L 159.264409 101.572591 
L 160.570866 101.329443 
L 161.877322 101.256074 
L 163.183779 99.553434 
L 164.054751 99.333327 
L 164.490236 99.396388 
L 164.925722 99.652269 
L 165.361208 99.469757 
L 167.10315 98.304345 
L 167.538636 98.299494 
L 167.974121 97.848974 
L 168.409607 97.671919 
L 169.280578 97.07466 
L 169.716064 97.008568 
L 170.15155 96.451329 
L 171.022521 95.880144 
L 171.893492 95.088246 
L 172.328978 94.706244 
L 172.764463 94.572239 
L 173.199949 94.845099 
L 174.07092 94.571633 
L 174.506406 94.920286 
L 174.941892 94.703818 
L 176.248349 93.673624 
L 176.683834 93.713643 
L 177.11932 93.412892 
L 177.554806 93.338916 
L 177.990291 94.139303 
L 178.861262 94.021064 
L 179.296748 93.870082 
L 179.732234 93.949514 
L 180.167719 94.49402 
L 182.780633 92.597346 
L 183.216119 92.52519 
L 183.651605 93.201274 
L 184.08709 93.166106 
L 185.393547 92.681023 
L 185.829033 91.991599 
L 186.264518 92.023736 
L 186.700004 91.836979 
L 187.13549 91.429509 
L 187.570975 91.277921 
L 188.006461 91.518037 
L 188.441947 91.227594 
L 189.312918 91.204552 
L 191.05486 90.141614 
L 191.490346 90.26713 
L 191.925832 90.061576 
L 192.361317 90.228929 
L 192.796803 89.775377 
L 193.232289 89.953645 
L 193.667774 89.906349 
L 194.538746 89.626214 
L 194.974231 89.486753 
L 196.716174 88.19522 
L 197.587145 87.658597 
L 198.022631 87.280839 
L 199.329088 89.094442 
L 199.764573 89.908168 
L 200.200059 90.359295 
L 202.812973 95.399306 
L 204.11943 98.035124 
L 204.990401 99.248438 
L 205.425887 100.071259 
L 206.296858 101.21848 
L 207.167829 102.787723 
L 208.474286 105.048209 
L 209.345257 106.915171 
L 210.216229 108.067849 
L 211.0872 109.069545 
L 211.958171 110.917105 
L 212.393657 111.765999 
L 212.829142 112.302016 
L 213.700114 113.904608 
L 216.313028 117.169216 
L 217.183999 118.344329 
L 217.619485 119.306612 
L 218.490456 120.42594 
L 219.361427 121.692006 
L 220.232398 122.984146 
L 221.538855 124.514582 
L 222.845312 126.844798 
L 225.02274 130.287067 
L 225.893712 131.816897 
L 228.07114 135.7491 
L 230.684054 140.319792 
L 231.555025 141.17657 
L 231.990511 142.023039 
L 232.425996 142.526919 
L 232.861482 143.621994 
L 234.167939 145.61629 
L 235.909881 147.80462 
L 236.345367 148.718395 
L 236.780853 149.356279 
L 239.829252 155.675695 
L 241.135709 158.375181 
L 242.442166 160.947939 
L 243.748623 162.800955 
L 244.184109 163.613469 
L 245.05508 164.68247 
L 245.926051 166.268084 
L 246.361537 166.054648 
L 246.797022 166.602185 
L 248.538965 170.131769 
L 249.845422 171.973264 
L 251.151879 174.226474 
L 252.02285 175.697488 
L 252.893821 176.68645 
L 253.764793 177.54444 
L 254.200278 177.568088 
L 254.635764 177.368598 
L 255.07125 177.833671 
L 255.506735 177.688146 
L 256.377707 175.864841 
L 257.248678 175.998845 
L 257.684164 176.183177 
L 258.119649 176.144977 
L 258.99062 176.441483 
L 259.426106 176.037046 
L 259.861592 176.355381 
L 260.297077 176.304448 
L 260.732563 176.070395 
L 261.603534 176.422686 
L 262.03902 176.965373 
L 262.474506 177.300686 
L 262.909991 177.167895 
L 263.345477 177.472284 
L 263.780962 177.292804 
L 264.216448 177.902189 
L 264.651934 176.847134 
L 265.087419 176.85441 
L 265.958391 177.166076 
L 266.829362 177.173352 
L 267.264848 177.3783 
L 268.571305 177.574758 
L 269.00679 177.827608 
L 269.442276 177.878541 
L 269.877761 177.755451 
L 271.184218 178.573422 
L 271.619704 178.618292 
L 272.490675 179.576331 
L 272.926161 178.928745 
L 273.361647 179.000295 
L 273.797132 178.690449 
L 275.103589 178.846281 
L 275.539075 178.775944 
L 276.410046 179.270729 
L 276.845532 179.870412 
L 277.281017 179.562991 
L 278.151989 180.282733 
L 279.02296 180.266361 
L 279.458446 180.756901 
L 279.893931 180.764784 
L 281.635874 182.685105 
L 282.071359 182.733007 
L 282.506845 183.15321 
L 282.942331 183.36604 
L 283.813302 181.614285 
L 284.684273 180.716882 
L 286.426216 177.861563 
L 286.861701 177.257635 
L 287.297187 175.946699 
L 290.781072 169.717629 
L 291.652044 168.549186 
L 292.523015 166.607642 
L 293.393986 164.752201 
L 294.264957 163.561322 
L 295.571414 162.121839 
L 296.442386 160.687813 
L 296.877871 160.25427 
L 297.313357 159.594558 
L 298.184328 158.639551 
L 298.619814 157.877364 
L 299.055299 157.422599 
L 299.490785 156.594927 
L 299.926271 155.350083 
L 301.232728 153.56801 
L 302.103699 151.69074 
L 302.539185 151.15533 
L 303.845641 148.925161 
L 304.281127 148.377018 
L 305.152098 146.668314 
L 305.587584 146.248111 
L 306.458555 141.411835 
L 307.329527 140.369513 
L 307.765012 139.530926 
L 308.200498 139.016132 
L 308.635984 138.119942 
L 309.071469 137.589989 
L 311.248897 133.714177 
L 312.99084 131.748379 
L 313.426326 130.917675 
L 314.297297 129.911128 
L 315.603754 127.568178 
L 316.039239 125.656952 
L 316.474725 124.932966 
L 317.781182 117.764655 
L 318.216668 117.143142 
L 318.652153 116.772054 
L 320.394096 113.908246 
L 322.136038 111.438569 
L 323.00701 109.714099 
L 325.184438 105.889828 
L 325.619924 104.943916 
L 326.055409 104.468535 
L 329.97478 97.150455 
L 330.845751 95.236803 
L 331.281237 95.348978 
L 331.716722 94.709882 
L 332.152208 92.984806 
L 333.023179 91.644765 
L 333.458665 90.815273 
L 333.894151 88.442006 
L 334.765122 87.274775 
L 336.507065 84.16115 
L 336.94255 83.001196 
L 337.378036 82.162002 
L 337.813521 81.72664 
L 338.249007 81.452569 
L 338.684493 80.964454 
L 339.555464 81.155455 
L 339.99095 80.914127 
L 340.426435 81.239739 
L 340.861921 82.007382 
L 341.297407 83.391081 
L 343.474835 83.820985 
L 343.91032 83.52266 
L 344.345806 83.706385 
L 344.781292 83.734277 
L 345.216777 84.144172 
L 345.652263 82.875074 
L 346.087749 82.738644 
L 346.523234 82.184437 
L 346.95872 82.294794 
L 347.829691 81.54049 
L 348.265177 81.246409 
L 348.700662 81.137871 
L 349.136148 80.854098 
L 349.571634 81.898239 
L 350.878091 81.629018 
L 352.184548 82.399087 
L 352.620033 82.388172 
L 353.491005 82.013446 
L 353.92649 80.470276 
L 354.361976 80.435714 
L 354.797461 80.683106 
L 355.232947 80.512721 
L 355.668433 80.63096 
L 356.103918 80.385387 
L 356.97489 80.478765 
L 357.410375 79.97246 
L 357.845861 80.63096 
L 358.281347 80.626715 
L 358.716832 80.96506 
L 360.458775 81.518661 
L 360.89426 81.408911 
L 361.329746 79.273334 
L 361.765232 79.195721 
L 362.636203 79.47525 
L 363.071689 79.201784 
L 363.507174 78.505084 
L 363.94266 78.620898 
L 364.378146 78.280127 
L 364.813631 78.353496 
L 365.249117 76.954032 
L 366.120088 76.510181 
L 366.555574 76.101499 
L 366.991059 73.862842 
L 367.862031 73.786441 
L 368.297516 74.25394 
L 369.168488 74.055662 
L 369.603973 73.742784 
L 370.039459 74.055662 
L 371.345916 74.116904 
L 371.781401 73.876788 
L 372.216887 74.297597 
L 372.652373 74.327309 
L 373.087858 74.602593 
L 373.523344 74.558329 
L 373.95883 74.771159 
L 374.394315 74.718407 
L 374.829801 74.804509 
L 375.265287 73.993208 
L 375.700772 74.019281 
L 376.571744 73.471744 
L 377.007229 74.062939 
L 378.313686 75.013094 
L 378.749172 75.023402 
L 380.055629 74.155104 
L 380.491114 72.373638 
L 380.9266 72.173541 
L 381.362086 72.347564 
L 382.233057 72.331193 
L 382.668543 71.655109 
L 383.539514 71.596292 
L 383.974999 71.201556 
L 384.410485 71.251277 
L 384.845971 71.738179 
L 386.152428 65.980246 
L 386.587913 66.175492 
L 387.023399 66.187013 
L 387.458885 65.797128 
L 388.329856 65.723759 
L 388.765341 65.954779 
L 389.200827 65.68192 
L 389.636313 65.680101 
L 390.071798 66.028148 
L 390.507284 65.603701 
L 391.378255 69.132678 
L 392.249227 69.219387 
L 392.684712 68.153417 
L 393.120198 67.819923 
L 393.555684 67.847815 
L 393.991169 67.716236 
L 394.426655 67.712598 
L 394.86214 68.05822 
L 395.297626 67.950895 
L 395.733112 68.255891 
L 397.039569 67.306948 
L 397.475054 67.168699 
L 397.91054 67.232973 
L 398.346026 67.151115 
L 399.216997 66.384684 
L 399.652483 66.57993 
L 400.523454 66.590238 
L 400.958939 67.895717 
L 401.394425 67.901174 
L 401.829911 69.466173 
L 401.829911 69.466173 
" clip-path="url(#pa99fc34e18)" style="fill: none; stroke: #d62728; stroke-opacity: 0.8; stroke-width: 1.5; stroke-linecap: square"/>
   </g>
   <g id="line2d_20">
    <path d="M 147.070811 116.382775 
L 147.506296 116.316076 
L 148.377268 117.38629 
L 148.812753 116.084449 
L 149.683725 117.268658 
L 150.11921 117.832566 
L 150.990181 118.446196 
L 151.861153 119.256891 
L 153.16761 121.33729 
L 154.038581 122.100689 
L 154.474067 122.839227 
L 154.909552 123.187274 
L 155.345038 123.9246 
L 156.651495 125.169444 
L 157.08698 125.93163 
L 157.522466 126.430053 
L 157.957952 127.214068 
L 159.264409 128.480134 
L 159.699894 129.17077 
L 160.13538 130.083333 
L 160.570866 130.463516 
L 161.006351 131.180832 
L 161.441837 131.665915 
L 164.054751 136.007406 
L 166.232179 138.765708 
L 168.845093 142.683358 
L 169.280578 143.826941 
L 169.716064 144.251995 
L 171.893492 148.115073 
L 172.764463 148.962755 
L 173.199949 149.557588 
L 174.07092 151.157149 
L 174.941892 152.063647 
L 175.377377 152.525082 
L 176.248349 154.10342 
L 177.554806 156.11045 
L 178.425777 156.884157 
L 178.861262 157.719106 
L 181.038691 160.680537 
L 181.909662 162.153369 
L 182.345148 162.503235 
L 182.780633 163.256326 
L 183.651605 163.970611 
L 184.08709 164.613952 
L 184.522576 164.971094 
L 185.829033 164.270756 
L 186.264518 163.557684 
L 186.700004 163.519484 
L 187.13549 163.084122 
L 187.570975 162.073331 
L 188.006461 162.03695 
L 188.441947 161.708912 
L 188.877432 161.657979 
L 189.312918 161.487593 
L 190.183889 161.339643 
L 190.619375 160.87457 
L 191.05486 159.670958 
L 191.490346 159.275616 
L 192.361317 159.559995 
L 193.232289 159.677628 
L 193.667774 159.81527 
L 194.10326 159.721286 
L 194.538746 159.74554 
L 194.974231 159.322911 
L 195.409717 159.47935 
L 195.845202 159.414471 
L 196.280688 159.643672 
L 196.716174 158.46007 
L 197.151659 158.340012 
L 197.587145 158.33698 
L 198.022631 157.888885 
L 198.458116 157.74336 
L 200.200059 158.480686 
L 200.635545 158.534045 
L 202.377487 157.993178 
L 202.812973 157.620271 
L 203.683944 157.612388 
L 204.554915 157.409866 
L 204.990401 158.168414 
L 205.425887 157.716074 
L 207.167829 157.448673 
L 207.603315 157.746392 
L 208.474286 159.222863 
L 208.909772 159.021554 
L 209.345257 159.316241 
L 209.780743 159.154951 
L 210.216229 159.359899 
L 210.651714 159.13858 
L 211.0872 158.747482 
L 211.958171 158.745663 
L 212.393657 158.946972 
L 212.829142 158.267856 
L 213.264628 158.454007 
L 213.700114 158.859657 
L 214.135599 158.208434 
L 214.571085 158.141128 
L 215.006571 158.254516 
L 215.442056 157.795507 
L 216.313028 156.418478 
L 216.748513 154.967474 
L 217.183999 154.425394 
L 218.490456 151.726515 
L 219.361427 150.655694 
L 219.796913 150.291882 
L 220.232398 149.395085 
L 220.667884 148.012599 
L 221.10337 147.15946 
L 222.409827 145.70118 
L 225.458226 141.759882 
L 226.764683 139.644921 
L 227.200169 138.91669 
L 228.07114 137.181307 
L 228.506626 136.471267 
L 229.813082 133.474668 
L 231.555025 130.524152 
L 231.990511 129.628567 
L 232.861482 128.568661 
L 233.296968 127.608804 
L 233.732453 128.866987 
L 235.474396 125.497481 
L 235.909881 124.93054 
L 237.651824 121.534961 
L 238.522795 120.185218 
L 238.958281 117.503923 
L 239.393767 116.893325 
L 240.264738 115.000289 
L 241.571195 112.354769 
L 243.313137 108.64146 
L 244.184109 107.188031 
L 244.619594 105.930453 
L 250.280908 94.214491 
L 250.716393 92.999358 
L 252.893821 88.479599 
L 253.764793 86.736939 
L 254.635764 84.363066 
L 255.07125 83.571168 
L 257.684164 77.430626 
L 258.119649 76.681173 
L 258.555135 75.672807 
L 258.99062 75.10526 
L 259.861592 73.179481 
L 260.297077 71.336167 
L 263.780962 64.254564 
L 264.216448 63.075207 
L 264.651934 62.35971 
L 265.958391 59.246084 
L 266.393876 58.248026 
L 267.700333 56.148224 
L 269.00679 53.494215 
L 269.442276 52.563462 
L 270.748733 51.590265 
L 271.619704 51.613306 
L 272.05519 51.56116 
L 272.490675 52.022595 
L 272.926161 51.537512 
L 274.232618 51.891623 
L 275.103589 51.743672 
L 275.539075 52.00016 
L 275.97456 52.787207 
L 276.410046 53.27714 
L 276.845532 52.868458 
L 277.281017 52.292422 
L 277.716503 51.924972 
L 279.458446 51.562373 
L 279.893931 51.718812 
L 280.329417 51.20038 
L 280.764902 51.248888 
L 281.200388 50.989369 
L 281.635874 51.609668 
L 282.071359 51.70911 
L 282.506845 51.601786 
L 282.942331 51.692132 
L 283.377816 51.501131 
L 284.684273 50.14108 
L 285.119759 49.778481 
L 285.555245 50.068924 
L 285.99073 49.930069 
L 286.861701 50.107124 
L 287.297187 49.806979 
L 287.732673 49.802735 
L 289.03913 48.859855 
L 289.910101 47.544068 
L 290.345587 47.380353 
L 290.781072 46.742469 
L 291.216558 46.602401 
L 291.652044 46.743681 
L 292.087529 46.544797 
L 292.523015 45.688626 
L 293.829472 44.850646 
L 294.264957 45.025882 
L 295.135929 43.941722 
L 295.571414 43.556687 
L 296.0069 43.528189 
L 296.442386 42.887273 
L 296.877871 42.582884 
L 297.313357 42.442816 
L 297.748842 42.752056 
L 298.184328 42.364596 
L 298.619814 41.714585 
L 299.055299 41.767944 
L 299.490785 41.687299 
L 299.926271 41.256182 
L 300.361756 40.654073 
L 300.797242 40.703794 
L 301.232728 40.551599 
L 301.668213 41.210706 
L 302.103699 41.164016 
L 302.539185 41.386548 
L 302.97467 41.135518 
L 303.410156 41.18342 
L 304.716613 40.288442 
L 305.152098 40.427903 
L 305.587584 41.142188 
L 306.02307 41.353805 
L 308.200498 39.583859 
L 308.635984 39.221866 
L 309.071469 39.043598 
L 309.94244 38.311123 
L 310.813412 38.106176 
L 311.248897 37.650804 
L 312.119869 37.117213 
L 312.555354 37.408869 
L 312.99084 37.519225 
L 314.297297 36.987453 
L 315.603754 36.997761 
L 316.039239 37.031717 
L 316.910211 36.819494 
L 317.781182 35.922697 
L 318.216668 35.670454 
L 318.652153 35.669847 
L 319.087639 35.866306 
L 319.523125 36.204651 
L 320.394096 36.304093 
L 320.829581 35.772927 
L 322.571524 35.765045 
L 323.00701 35.578288 
L 323.442495 34.990125 
L 323.877981 36.78675 
L 324.313467 35.712898 
L 324.748952 36.080955 
L 325.619924 36.293179 
L 326.055409 36.142803 
L 326.490895 36.282871 
L 327.361866 36.181003 
L 327.797352 36.467808 
L 328.232837 36.249521 
L 329.103809 35.606787 
L 329.539294 35.914814 
L 330.410266 35.928154 
L 330.845751 35.913601 
L 332.152208 36.430215 
L 332.587694 36.335017 
L 333.023179 36.495701 
L 333.458665 36.456894 
L 333.894151 36.603025 
L 335.200608 39.145466 
L 336.071579 41.261033 
L 336.94255 43.134665 
L 338.249007 45.810503 
L 338.684493 46.558744 
L 339.555464 48.957478 
L 339.99095 49.534727 
L 342.603864 55.766222 
L 343.039349 56.447156 
L 343.474835 57.351836 
L 343.91032 57.982444 
L 344.781292 59.97674 
L 345.216777 61.800652 
L 350.442605 72.62103 
L 351.313576 74.536501 
L 352.620033 76.419835 
L 353.491005 78.270425 
L 354.361976 79.930621 
L 355.232947 81.938258 
L 356.103918 84.377012 
L 356.539404 84.910603 
L 357.410375 86.74846 
L 358.281347 88.957406 
L 358.716832 89.353355 
L 366.120088 105.093686 
L 366.555574 106.358539 
L 368.297516 109.093193 
L 372.216887 117.000043 
L 372.652373 117.656724 
L 374.829801 122.952009 
L 375.265287 123.003549 
L 375.700772 123.318246 
L 376.136258 123.425571 
L 376.571744 123.25943 
L 377.007229 123.541991 
L 377.442715 124.356324 
L 377.8782 124.228989 
L 378.313686 124.306603 
L 378.749172 124.190789 
L 379.184657 124.302965 
L 379.620143 124.898404 
L 380.055629 124.879 
L 380.491114 125.51931 
L 380.9266 125.786105 
L 381.797571 126.759303 
L 382.233057 126.604682 
L 383.104028 126.810236 
L 383.539514 127.027311 
L 383.974999 127.507543 
L 384.410485 127.395367 
L 384.845971 127.575454 
L 385.281456 128.163011 
L 385.716942 127.828304 
L 386.152428 128.265485 
L 387.023399 128.070845 
L 387.458885 127.713703 
L 387.89437 127.92532 
L 389.636313 127.606985 
L 390.071798 127.761605 
L 390.507284 127.508756 
L 390.94277 127.639728 
L 391.813741 127.54453 
L 393.555684 128.780279 
L 393.991169 128.854254 
L 394.426655 129.196237 
L 394.86214 129.242927 
L 395.297626 129.0113 
L 395.733112 129.001598 
L 396.168597 129.253235 
L 397.475054 129.323572 
L 397.91054 129.192599 
L 398.346026 129.43029 
L 398.781511 128.748142 
L 399.652483 129.270819 
L 400.958939 128.91307 
L 401.829911 129.03616 
L 401.829911 129.03616 
" clip-path="url(#pa99fc34e18)" style="fill: none; stroke: #9467bd; stroke-opacity: 0.8; stroke-width: 1.5; stroke-linecap: square"/>
   </g>
   <g id="patch_3">
    <path d="M 61.715625 288.430125 
L 61.715625 22.318125 
" style="fill: none; stroke: #000000; stroke-width: 0.8; stroke-linejoin: miter; stroke-linecap: square"/>
   </g>
   <g id="patch_4">
    <path d="M 418.835625 288.430125 
L 418.835625 22.318125 
" style="fill: none; stroke: #000000; stroke-width: 0.8; stroke-linejoin: miter; stroke-linecap: square"/>
   </g>
   <g id="patch_5">
    <path d="M 61.715625 288.430125 
L 418.835625 288.430125 
" style="fill: none; stroke: #000000; stroke-width: 0.8; stroke-linejoin: miter; stroke-linecap: square"/>
   </g>
   <g id="patch_6">
    <path d="M 61.715625 22.318125 
L 418.835625 22.318125 
" style="fill: none; stroke: #000000; stroke-width: 0.8; stroke-linejoin: miter; stroke-linecap: square"/>
   </g>
   <g id="text_18">
    <!-- Get children [branch] -->
    <g transform="translate(176.16 16.318125) scale(0.12 -0.12)">
     <defs>
      <path id="DejaVuSans-47" d="M 3809 666 
L 3809 1919 
L 2778 1919 
L 2778 2438 
L 4434 2438 
L 4434 434 
Q 4069 175 3628 42 
Q 3188 -91 2688 -91 
Q 1594 -91 976 548 
Q 359 1188 359 2328 
Q 359 3472 976 4111 
Q 1594 4750 2688 4750 
Q 3144 4750 3555 4637 
Q 3966 4525 4313 4306 
L 4313 3634 
Q 3963 3931 3569 4081 
Q 3175 4231 2741 4231 
Q 1884 4231 1454 3753 
Q 1025 3275 1025 2328 
Q 1025 1384 1454 906 
Q 1884 428 2741 428 
Q 3075 428 3337 486 
Q 3600 544 3809 666 
z
" transform="scale(0.015625)"/>
      <path id="DejaVuSans-68" d="M 3513 2113 
L 3513 0 
L 2938 0 
L 2938 2094 
Q 2938 2591 2744 2837 
Q 2550 3084 2163 3084 
Q 1697 3084 1428 2787 
Q 1159 2491 1159 1978 
L 1159 0 
L 581 0 
L 581 4863 
L 1159 4863 
L 1159 2956 
Q 1366 3272 1645 3428 
Q 1925 3584 2291 3584 
Q 2894 3584 3203 3211 
Q 3513 2838 3513 2113 
z
" transform="scale(0.015625)"/>
      <path id="DejaVuSans-72" d="M 2631 2963 
Q 2534 3019 2420 3045 
Q 2306 3072 2169 3072 
Q 1681 3072 1420 2755 
Q 1159 2438 1159 1844 
L 1159 0 
L 581 0 
L 581 3500 
L 1159 3500 
L 1159 2956 
Q 1341 3275 1631 3429 
Q 1922 3584 2338 3584 
Q 2397 3584 2469 3576 
Q 2541 3569 2628 3553 
L 2631 2963 
z
" transform="scale(0.015625)"/>
      <path id="DejaVuSans-5b" d="M 550 4863 
L 1875 4863 
L 1875 4416 
L 1125 4416 
L 1125 -397 
L 1875 -397 
L 1875 -844 
L 550 -844 
L 550 4863 
z
" transform="scale(0.015625)"/>
      <path id="DejaVuSans-5d" d="M 1947 4863 
L 1947 -844 
L 622 -844 
L 622 -397 
L 1369 -397 
L 1369 4416 
L 622 4416 
L 622 4863 
L 1947 4863 
z
" transform="scale(0.015625)"/>
     </defs>
     <use xlink:href="#DejaVuSans-47"/>
     <use xlink:href="#DejaVuSans-65" transform="translate(77.490234 0)"/>
     <use xlink:href="#DejaVuSans-74" transform="translate(139.013672 0)"/>
     <use xlink:href="#DejaVuSans-20" transform="translate(178.222656 0)"/>
     <use xlink:href="#DejaVuSans-63" transform="translate(210.009766 0)"/>
     <use xlink:href="#DejaVuSans-68" transform="translate(264.990234 0)"/>
     <use xlink:href="#DejaVuSans-69" transform="translate(328.369141 0)"/>
     <use xlink:href="#DejaVuSans-6c" transform="translate(356.152344 0)"/>
     <use xlink:href="#DejaVuSans-64" transform="translate(383.935547 0)"/>
     <use xlink:href="#DejaVuSans-72" transform="translate(447.412109 0)"/>
     <use xlink:href="#DejaVuSans-65" transform="translate(486.275391 0)"/>
     <use xlink:href="#DejaVuSans-6e" transform="translate(547.798828 0)"/>
     <use xlink:href="#DejaVuSans-20" transform="translate(611.177734 0)"/>
     <use xlink:href="#DejaVuSans-5b" transform="translate(642.964844 0)"/>
     <use xlink:href="#DejaVuSans-62" transform="translate(681.978516 0)"/>
     <use xlink:href="#DejaVuSans-72" transform="translate(745.455078 0)"/>
     <use xlink:href="#DejaVuSans-61" transform="translate(786.568359 0)"/>
     <use xlink:href="#DejaVuSans-6e" transform="translate(847.847656 0)"/>
     <use xlink:href="#DejaVuSans-63" transform="translate(911.226562 0)"/>
     <use xlink:href="#DejaVuSans-68" transform="translate(966.207031 0)"/>
     <use xlink:href="#DejaVuSans-5d" transform="translate(1029.585938 0)"/>
    </g>
   </g>
   <g id="legend_1">
    <g id="patch_7">
     <path d="M 92.717969 365.802375 
L 380.313281 365.802375 
Q 382.313281 365.802375 382.313281 363.802375 
L 382.313281 335.446125 
Q 382.313281 333.446125 380.313281 333.446125 
L 92.717969 333.446125 
Q 90.717969 333.446125 90.717969 335.446125 
L 90.717969 363.802375 
Q 90.717969 365.802375 92.717969 365.802375 
z
" style="fill: #4d4d4d; opacity: 0.5; stroke: #4d4d4d; stroke-linejoin: miter"/>
    </g>
    <g id="patch_8">
     <path d="M 90.717969 363.802375 
L 378.313281 363.802375 
Q 380.313281 363.802375 380.313281 361.802375 
L 380.313281 333.446125 
Q 380.313281 331.446125 378.313281 331.446125 
L 90.717969 331.446125 
Q 88.717969 331.446125 88.717969 333.446125 
L 88.717969 361.802375 
Q 88.717969 363.802375 90.717969 363.802375 
z
" style="fill: #ffffff; stroke: #cccccc; stroke-linejoin: miter"/>
    </g>
    <g id="line2d_21">
     <path d="M 92.717969 339.544562 
L 102.717969 339.544562 
L 112.717969 339.544562 
" style="fill: none; stroke: #1f77b4; stroke-opacity: 0.8; stroke-width: 1.5; stroke-linecap: square"/>
    </g>
    <g id="text_19">
     <!-- MPTT -->
     <g transform="translate(120.717969 343.044562) scale(0.1 -0.1)">
      <defs>
       <path id="DejaVuSans-4d" d="M 628 4666 
L 1569 4666 
L 2759 1491 
L 3956 4666 
L 4897 4666 
L 4897 0 
L 4281 0 
L 4281 4097 
L 3078 897 
L 2444 897 
L 1241 4097 
L 1241 0 
L 628 0 
L 628 4666 
z
" transform="scale(0.015625)"/>
       <path id="DejaVuSans-50" d="M 1259 4147 
L 1259 2394 
L 2053 2394 
Q 2494 2394 2734 2622 
Q 2975 2850 2975 3272 
Q 2975 3691 2734 3919 
Q 2494 4147 2053 4147 
L 1259 4147 
z
M 628 4666 
L 2053 4666 
Q 2838 4666 3239 4311 
Q 3641 3956 3641 3272 
Q 3641 2581 3239 2228 
Q 2838 1875 2053 1875 
L 1259 1875 
L 1259 0 
L 628 0 
L 628 4666 
z
" transform="scale(0.015625)"/>
       <path id="DejaVuSans-54" d="M -19 4666 
L 3928 4666 
L 3928 4134 
L 2272 4134 
L 2272 0 
L 1638 0 
L 1638 4134 
L -19 4134 
L -19 4666 
z
" transform="scale(0.015625)"/>
      </defs>
      <use xlink:href="#DejaVuSans-4d"/>
      <use xlink:href="#DejaVuSans-50" transform="translate(86.279297 0)"/>
      <use xlink:href="#DejaVuSans-54" transform="translate(146.582031 0)"/>
      <use xlink:href="#DejaVuSans-54" transform="translate(205.916016 0)"/>
     </g>
    </g>
    <g id="line2d_22">
     <path d="M 92.717969 354.222687 
L 102.717969 354.222687 
L 112.717969 354.222687 
" style="fill: none; stroke: #ff7f0e; stroke-opacity: 0.8; stroke-width: 1.5; stroke-linecap: square"/>
    </g>
    <g id="text_20">
     <!-- tree -->
     <g transform="translate(120.717969 357.722687) scale(0.1 -0.1)">
      <use xlink:href="#DejaVuSans-74"/>
      <use xlink:href="#DejaVuSans-72" transform="translate(39.208984 0)"/>
      <use xlink:href="#DejaVuSans-65" transform="translate(78.072266 0)"/>
      <use xlink:href="#DejaVuSans-65" transform="translate(139.595703 0)"/>
     </g>
    </g>
    <g id="line2d_23">
     <path d="M 167.416406 339.544562 
L 177.416406 339.544562 
L 187.416406 339.544562 
" style="fill: none; stroke: #2ca02c; stroke-opacity: 0.8; stroke-width: 1.5; stroke-linecap: square"/>
    </g>
    <g id="text_21">
     <!-- treebeard AL -->
     <g transform="translate(195.416406 343.044562) scale(0.1 -0.1)">
      <defs>
       <path id="DejaVuSans-4c" d="M 628 4666 
L 1259 4666 
L 1259 531 
L 3531 531 
L 3531 0 
L 628 0 
L 628 4666 
z
" transform="scale(0.015625)"/>
      </defs>
      <use xlink:href="#DejaVuSans-74"/>
      <use xlink:href="#DejaVuSans-72" transform="translate(39.208984 0)"/>
      <use xlink:href="#DejaVuSans-65" transform="translate(78.072266 0)"/>
      <use xlink:href="#DejaVuSans-65" transform="translate(139.595703 0)"/>
      <use xlink:href="#DejaVuSans-62" transform="translate(201.119141 0)"/>
      <use xlink:href="#DejaVuSans-65" transform="translate(264.595703 0)"/>
      <use xlink:href="#DejaVuSans-61" transform="translate(326.119141 0)"/>
      <use xlink:href="#DejaVuSans-72" transform="translate(387.398438 0)"/>
      <use xlink:href="#DejaVuSans-64" transform="translate(426.761719 0)"/>
      <use xlink:href="#DejaVuSans-20" transform="translate(490.238281 0)"/>
      <use xlink:href="#DejaVuSans-41" transform="translate(522.025391 0)"/>
      <use xlink:href="#DejaVuSans-4c" transform="translate(590.433594 0)"/>
     </g>
    </g>
    <g id="line2d_24">
     <path d="M 167.416406 354.222687 
L 177.416406 354.222687 
L 187.416406 354.222687 
" style="fill: none; stroke: #d62728; stroke-opacity: 0.8; stroke-width: 1.5; stroke-linecap: square"/>
    </g>
    <g id="text_22">
     <!-- treebeard MP -->
     <g transform="translate(195.416406 357.722687) scale(0.1 -0.1)">
      <use xlink:href="#DejaVuSans-74"/>
      <use xlink:href="#DejaVuSans-72" transform="translate(39.208984 0)"/>
      <use xlink:href="#DejaVuSans-65" transform="translate(78.072266 0)"/>
      <use xlink:href="#DejaVuSans-65" transform="translate(139.595703 0)"/>
      <use xlink:href="#DejaVuSans-62" transform="translate(201.119141 0)"/>
      <use xlink:href="#DejaVuSans-65" transform="translate(264.595703 0)"/>
      <use xlink:href="#DejaVuSans-61" transform="translate(326.119141 0)"/>
      <use xlink:href="#DejaVuSans-72" transform="translate(387.398438 0)"/>
      <use xlink:href="#DejaVuSans-64" transform="translate(426.761719 0)"/>
      <use xlink:href="#DejaVuSans-20" transform="translate(490.238281 0)"/>
      <use xlink:href="#DejaVuSans-4d" transform="translate(522.025391 0)"/>
      <use xlink:href="#DejaVuSans-50" transform="translate(608.304688 0)"/>
     </g>
    </g>
    <g id="line2d_25">
     <path d="M 282.278906 339.544562 
L 292.278906 339.544562 
L 302.278906 339.544562 
" style="fill: none; stroke: #9467bd; stroke-opacity: 0.8; stroke-width: 1.5; stroke-linecap: square"/>
    </g>
    <g id="text_23">
     <!-- treebeard NS -->
     <g transform="translate(310.278906 343.044562) scale(0.1 -0.1)">
      <defs>
       <path id="DejaVuSans-4e" d="M 628 4666 
L 1478 4666 
L 3547 763 
L 3547 4666 
L 4159 4666 
L 4159 0 
L 3309 0 
L 1241 3903 
L 1241 0 
L 628 0 
L 628 4666 
z
" transform="scale(0.015625)"/>
       <path id="DejaVuSans-53" d="M 3425 4513 
L 3425 3897 
Q 3066 4069 2747 4153 
Q 2428 4238 2131 4238 
Q 1616 4238 1336 4038 
Q 1056 3838 1056 3469 
Q 1056 3159 1242 3001 
Q 1428 2844 1947 2747 
L 2328 2669 
Q 3034 2534 3370 2195 
Q 3706 1856 3706 1288 
Q 3706 609 3251 259 
Q 2797 -91 1919 -91 
Q 1588 -91 1214 -16 
Q 841 59 441 206 
L 441 856 
Q 825 641 1194 531 
Q 1563 422 1919 422 
Q 2459 422 2753 634 
Q 3047 847 3047 1241 
Q 3047 1584 2836 1778 
Q 2625 1972 2144 2069 
L 1759 2144 
Q 1053 2284 737 2584 
Q 422 2884 422 3419 
Q 422 4038 858 4394 
Q 1294 4750 2059 4750 
Q 2388 4750 2728 4690 
Q 3069 4631 3425 4513 
z
" transform="scale(0.015625)"/>
      </defs>
      <use xlink:href="#DejaVuSans-74"/>
      <use xlink:href="#DejaVuSans-72" transform="translate(39.208984 0)"/>
      <use xlink:href="#DejaVuSans-65" transform="translate(78.072266 0)"/>
      <use xlink:href="#DejaVuSans-65" transform="translate(139.595703 0)"/>
      <use xlink:href="#DejaVuSans-62" transform="translate(201.119141 0)"/>
      <use xlink:href="#DejaVuSans-65" transform="translate(264.595703 0)"/>
      <use xlink:href="#DejaVuSans-61" transform="translate(326.119141 0)"/>
      <use xlink:href="#DejaVuSans-72" transform="translate(387.398438 0)"/>
      <use xlink:href="#DejaVuSans-64" transform="translate(426.761719 0)"/>
      <use xlink:href="#DejaVuSans-20" transform="translate(490.238281 0)"/>
      <use xlink:href="#DejaVuSans-4e" transform="translate(522.025391 0)"/>
      <use xlink:href="#DejaVuSans-53" transform="translate(596.830078 0)"/>
     </g>
    </g>
   </g>
  </g>
 </g>
 <defs>
  <clipPath id="pa99fc34e18">
   <rect x="61.715625" y="22.318125" width="357.12" height="266.112"/>
  </clipPath>
 </defs>
</svg>
