<?xml version="1.0" encoding="utf-8" standalone="no"?>
<!DOCTYPE svg PUBLIC "-//W3C//DTD SVG 1.1//EN"
  "http://www.w3.org/Graphics/SVG/1.1/DTD/svg11.dtd">
<svg xmlns:xlink="http://www.w3.org/1999/xlink" width="432.591875pt" height="371.002375pt" viewBox="0 0 432.591875 371.002375" xmlns="http://www.w3.org/2000/svg" version="1.1">
 <metadata>
  <rdf:RDF xmlns:dc="http://purl.org/dc/elements/1.1/" xmlns:cc="http://creativecommons.org/ns#" xmlns:rdf="http://www.w3.org/1999/02/22-rdf-syntax-ns#">
   <cc:Work>
    <dc:type rdf:resource="http://purl.org/dc/dcmitype/StillImage"/>
    <dc:date>2026-06-28T06:53:55.125208</dc:date>
    <dc:format>image/svg+xml</dc:format>
    <dc:creator>
     <cc:Agent>
      <dc:title>Matplotlib v3.10.6, https://matplotlib.org/</dc:title>
     </cc:Agent>
    </dc:creator>
   </cc:Work>
  </rdf:RDF>
 </metadata>
 <defs>
  <style type="text/css">*{stroke-linejoin: round; stroke-linecap: butt}</style>
 </defs>
 <g id="figure_1">
  <g id="patch_1">
   <path d="M 0 371.002375 
L 432.591875 371.002375 
L 432.591875 0 
L 0 0 
z
" style="fill: #ffffff"/>
  </g>
  <g id="axes_1">
   <g id="patch_2">
    <path d="M 68.271875 288.430125 
L 425.391875 288.430125 
L 425.391875 22.318125 
L 68.271875 22.318125 
z
" style="fill: #ffffff"/>
   </g>
   <g id="matplotlib.axis_1">
    <g id="xtick_1">
     <g id="line2d_1">
      <defs>
       <path id="mffb7df8ddf" d="M 0 0 
L 0 3.5 
" style="stroke: #000000; stroke-width: 0.8"/>
      </defs>
      <g>
       <use xlink:href="#mffb7df8ddf" x="68.271875" y="288.430125" style="stroke: #000000; stroke-width: 0.8"/>
      </g>
     </g>
     <g id="text_1">
      <!-- 0 -->
      <g transform="translate(65.090625 303.028562) scale(0.1 -0.1)">
       <defs>
        <path id="DejaVuSans-30" d="M 2034 4250 
Q 1547 4250 1301 3770 
Q 1056 3291 1056 2328 
Q 1056 1369 1301 889 
Q 1547 409 2034 409 
Q 2525 409 2770 889 
Q 3016 1369 3016 2328 
Q 3016 3291 2770 3770 
Q 2525 4250 2034 4250 
z
M 2034 4750 
Q 2819 4750 3233 4129 
Q 3647 3509 3647 2328 
Q 3647 1150 3233 529 
Q 2819 -91 2034 -91 
Q 1250 -91 836 529 
Q 422 1150 422 2328 
Q 422 3509 836 4129 
Q 1250 4750 2034 4750 
z
" transform="scale(0.015625)"/>
       </defs>
       <use xlink:href="#DejaVuSans-30"/>
      </g>
     </g>
    </g>
    <g id="xtick_2">
     <g id="line2d_2">
      <g>
       <use xlink:href="#mffb7df8ddf" x="111.820439" y="288.430125" style="stroke: #000000; stroke-width: 0.8"/>
      </g>
     </g>
     <g id="text_2">
      <!-- 500  -->
      <g transform="translate(100.687627 303.028562) scale(0.1 -0.1)">
       <defs>
        <path id="DejaVuSans-35" d="M 691 4666 
L 3169 4666 
L 3169 4134 
L 1269 4134 
L 1269 2991 
Q 1406 3038 1543 3061 
Q 1681 3084 1819 3084 
Q 2600 3084 3056 2656 
Q 3513 2228 3513 1497 
Q 3513 744 3044 326 
Q 2575 -91 1722 -91 
Q 1428 -91 1123 -41 
Q 819 9 494 109 
L 494 744 
Q 775 591 1075 516 
Q 1375 441 1709 441 
Q 2250 441 2565 725 
Q 2881 1009 2881 1497 
Q 2881 1984 2565 2268 
Q 2250 2553 1709 2553 
Q 1456 2553 1204 2497 
Q 953 2441 691 2322 
L 691 4666 
z
" transform="scale(0.015625)"/>
        <path id="DejaVuSans-20" transform="scale(0.015625)"/>
       </defs>
       <use xlink:href="#DejaVuSans-35"/>
       <use xlink:href="#DejaVuSans-30" transform="translate(63.623047 0)"/>
       <use xlink:href="#DejaVuSans-30" transform="translate(127.246094 0)"/>
       <use xlink:href="#DejaVuSans-20" transform="translate(190.869141 0)"/>
      </g>
     </g>
    </g>
    <g id="xtick_3">
     <g id="line2d_3">
      <g>
       <use xlink:href="#mffb7df8ddf" x="155.369003" y="288.430125" style="stroke: #000000; stroke-width: 0.8"/>
      </g>
     </g>
     <g id="text_3">
      <!-- 1 k -->
      <g transform="translate(147.703378 303.028562) scale(0.1 -0.1)">
       <defs>
        <path id="DejaVuSans-31" d="M 794 531 
L 1825 531 
L 1825 4091 
L 703 3866 
L 703 4441 
L 1819 4666 
L 2450 4666 
L 2450 531 
L 3481 531 
L 3481 0 
L 794 0 
L 794 531 
z
" transform="scale(0.015625)"/>
        <path id="DejaVuSans-6b" d="M 581 4863 
L 1159 4863 
L 1159 1991 
L 2875 3500 
L 3609 3500 
L 1753 1863 
L 3688 0 
L 2938 0 
L 1159 1709 
L 1159 0 
L 581 0 
L 581 4863 
z
" transform="scale(0.015625)"/>
       </defs>
       <use xlink:href="#DejaVuSans-31"/>
       <use xlink:href="#DejaVuSans-20" transform="translate(63.623047 0)"/>
       <use xlink:href="#DejaVuSans-6b" transform="translate(95.410156 0)"/>
      </g>
     </g>
    </g>
    <g id="xtick_4">
     <g id="line2d_4">
      <g>
       <use xlink:href="#mffb7df8ddf" x="198.917567" y="288.430125" style="stroke: #000000; stroke-width: 0.8"/>
      </g>
     </g>
     <g id="text_4">
      <!-- 1.5 k -->
      <g transform="translate(186.48163 303.028562) scale(0.1 -0.1)">
       <defs>
        <path id="DejaVuSans-2e" d="M 684 794 
L 1344 794 
L 1344 0 
L 684 0 
L 684 794 
z
" transform="scale(0.015625)"/>
       </defs>
       <use xlink:href="#DejaVuSans-31"/>
       <use xlink:href="#DejaVuSans-2e" transform="translate(63.623047 0)"/>
       <use xlink:href="#DejaVuSans-35" transform="translate(95.410156 0)"/>
       <use xlink:href="#DejaVuSans-20" transform="translate(159.033203 0)"/>
       <use xlink:href="#DejaVuSans-6b" transform="translate(190.820312 0)"/>
      </g>
     </g>
    </g>
    <g id="xtick_5">
     <g id="line2d_5">
      <g>
       <use xlink:href="#mffb7df8ddf" x="242.466131" y="288.430125" style="stroke: #000000; stroke-width: 0.8"/>
      </g>
     </g>
     <g id="text_5">
      <!-- 2 k -->
      <g transform="translate(234.800506 303.028562) scale(0.1 -0.1)">
       <defs>
        <path id="DejaVuSans-32" d="M 1228 531 
L 3431 531 
L 3431 0 
L 469 0 
L 469 531 
Q 828 903 1448 1529 
Q 2069 2156 2228 2338 
Q 2531 2678 2651 2914 
Q 2772 3150 2772 3378 
Q 2772 3750 2511 3984 
Q 2250 4219 1831 4219 
Q 1534 4219 1204 4116 
Q 875 4013 500 3803 
L 500 4441 
Q 881 4594 1212 4672 
Q 1544 4750 1819 4750 
Q 2544 4750 2975 4387 
Q 3406 4025 3406 3419 
Q 3406 3131 3298 2873 
Q 3191 2616 2906 2266 
Q 2828 2175 2409 1742 
Q 1991 1309 1228 531 
z
" transform="scale(0.015625)"/>
       </defs>
       <use xlink:href="#DejaVuSans-32"/>
       <use xlink:href="#DejaVuSans-20" transform="translate(63.623047 0)"/>
       <use xlink:href="#DejaVuSans-6b" transform="translate(95.410156 0)"/>
      </g>
     </g>
    </g>
    <g id="xtick_6">
     <g id="line2d_6">
      <g>
       <use xlink:href="#mffb7df8ddf" x="286.014696" y="288.430125" style="stroke: #000000; stroke-width: 0.8"/>
      </g>
     </g>
     <g id="text_6">
      <!-- 2.5 k -->
      <g transform="translate(273.578758 303.028562) scale(0.1 -0.1)">
       <use xlink:href="#DejaVuSans-32"/>
       <use xlink:href="#DejaVuSans-2e" transform="translate(63.623047 0)"/>
       <use xlink:href="#DejaVuSans-35" transform="translate(95.410156 0)"/>
       <use xlink:href="#DejaVuSans-20" transform="translate(159.033203 0)"/>
       <use xlink:href="#DejaVuSans-6b" transform="translate(190.820312 0)"/>
      </g>
     </g>
    </g>
    <g id="xtick_7">
     <g id="line2d_7">
      <g>
       <use xlink:href="#mffb7df8ddf" x="329.56326" y="288.430125" style="stroke: #000000; stroke-width: 0.8"/>
      </g>
     </g>
     <g id="text_7">
      <!-- 3 k -->
      <g transform="translate(321.897635 303.028562) scale(0.1 -0.1)">
       <defs>
        <path id="DejaVuSans-33" d="M 2597 2516 
Q 3050 2419 3304 2112 
Q 3559 1806 3559 1356 
Q 3559 666 3084 287 
Q 2609 -91 1734 -91 
Q 1441 -91 1130 -33 
Q 819 25 488 141 
L 488 750 
Q 750 597 1062 519 
Q 1375 441 1716 441 
Q 2309 441 2620 675 
Q 2931 909 2931 1356 
Q 2931 1769 2642 2001 
Q 2353 2234 1838 2234 
L 1294 2234 
L 1294 2753 
L 1863 2753 
Q 2328 2753 2575 2939 
Q 2822 3125 2822 3475 
Q 2822 3834 2567 4026 
Q 2313 4219 1838 4219 
Q 1578 4219 1281 4162 
Q 984 4106 628 3988 
L 628 4550 
Q 988 4650 1302 4700 
Q 1616 4750 1894 4750 
Q 2613 4750 3031 4423 
Q 3450 4097 3450 3541 
Q 3450 3153 3228 2886 
Q 3006 2619 2597 2516 
z
" transform="scale(0.015625)"/>
       </defs>
       <use xlink:href="#DejaVuSans-33"/>
       <use xlink:href="#DejaVuSans-20" transform="translate(63.623047 0)"/>
       <use xlink:href="#DejaVuSans-6b" transform="translate(95.410156 0)"/>
      </g>
     </g>
    </g>
    <g id="xtick_8">
     <g id="line2d_8">
      <g>
       <use xlink:href="#mffb7df8ddf" x="373.111824" y="288.430125" style="stroke: #000000; stroke-width: 0.8"/>
      </g>
     </g>
     <g id="text_8">
      <!-- 3.5 k -->
      <g transform="translate(360.675886 303.028562) scale(0.1 -0.1)">
       <use xlink:href="#DejaVuSans-33"/>
       <use xlink:href="#DejaVuSans-2e" transform="translate(63.623047 0)"/>
       <use xlink:href="#DejaVuSans-35" transform="translate(95.410156 0)"/>
       <use xlink:href="#DejaVuSans-20" transform="translate(159.033203 0)"/>
       <use xlink:href="#DejaVuSans-6b" transform="translate(190.820312 0)"/>
      </g>
     </g>
    </g>
    <g id="xtick_9">
     <g id="line2d_9">
      <g>
       <use xlink:href="#mffb7df8ddf" x="416.660388" y="288.430125" style="stroke: #000000; stroke-width: 0.8"/>
      </g>
     </g>
     <g id="text_9">
      <!-- 4 k -->
      <g transform="translate(408.994763 303.028562) scale(0.1 -0.1)">
       <defs>
        <path id="DejaVuSans-34" d="M 2419 4116 
L 825 1625 
L 2419 1625 
L 2419 4116 
z
M 2253 4666 
L 3047 4666 
L 3047 1625 
L 3713 1625 
L 3713 1100 
L 3047 1100 
L 3047 0 
L 2419 0 
L 2419 1100 
L 313 1100 
L 313 1709 
L 2253 4666 
z
" transform="scale(0.015625)"/>
       </defs>
       <use xlink:href="#DejaVuSans-34"/>
       <use xlink:href="#DejaVuSans-20" transform="translate(63.623047 0)"/>
       <use xlink:href="#DejaVuSans-6b" transform="translate(95.410156 0)"/>
      </g>
     </g>
    </g>
    <g id="text_10">
     <!-- Amount of objects in table -->
     <g transform="translate(180.773281 316.706687) scale(0.1 -0.1)">
      <defs>
       <path id="DejaVuSans-41" d="M 2188 4044 
L 1331 1722 
L 3047 1722 
L 2188 4044 
z
M 1831 4666 
L 2547 4666 
L 4325 0 
L 3669 0 
L 3244 1197 
L 1141 1197 
L 716 0 
L 50 0 
L 1831 4666 
z
" transform="scale(0.015625)"/>
       <path id="DejaVuSans-6d" d="M 3328 2828 
Q 3544 3216 3844 3400 
Q 4144 3584 4550 3584 
Q 5097 3584 5394 3201 
Q 5691 2819 5691 2113 
L 5691 0 
L 5113 0 
L 5113 2094 
Q 5113 2597 4934 2840 
Q 4756 3084 4391 3084 
Q 3944 3084 3684 2787 
Q 3425 2491 3425 1978 
L 3425 0 
L 2847 0 
L 2847 2094 
Q 2847 2600 2669 2842 
Q 2491 3084 2119 3084 
Q 1678 3084 1418 2786 
Q 1159 2488 1159 1978 
L 1159 0 
L 581 0 
L 581 3500 
L 1159 3500 
L 1159 2956 
Q 1356 3278 1631 3431 
Q 1906 3584 2284 3584 
Q 2666 3584 2933 3390 
Q 3200 3197 3328 2828 
z
" transform="scale(0.015625)"/>
       <path id="DejaVuSans-6f" d="M 1959 3097 
Q 1497 3097 1228 2736 
Q 959 2375 959 1747 
Q 959 1119 1226 758 
Q 1494 397 1959 397 
Q 2419 397 2687 759 
Q 2956 1122 2956 1747 
Q 2956 2369 2687 2733 
Q 2419 3097 1959 3097 
z
M 1959 3584 
Q 2709 3584 3137 3096 
Q 3566 2609 3566 1747 
Q 3566 888 3137 398 
Q 2709 -91 1959 -91 
Q 1206 -91 779 398 
Q 353 888 353 1747 
Q 353 2609 779 3096 
Q 1206 3584 1959 3584 
z
" transform="scale(0.015625)"/>
       <path id="DejaVuSans-75" d="M 544 1381 
L 544 3500 
L 1119 3500 
L 1119 1403 
Q 1119 906 1312 657 
Q 1506 409 1894 409 
Q 2359 409 2629 706 
Q 2900 1003 2900 1516 
L 2900 3500 
L 3475 3500 
L 3475 0 
L 2900 0 
L 2900 538 
Q 2691 219 2414 64 
Q 2138 -91 1772 -91 
Q 1169 -91 856 284 
Q 544 659 544 1381 
z
M 1991 3584 
L 1991 3584 
z
" transform="scale(0.015625)"/>
       <path id="DejaVuSans-6e" d="M 3513 2113 
L 3513 0 
L 2938 0 
L 2938 2094 
Q 2938 2591 2744 2837 
Q 2550 3084 2163 3084 
Q 1697 3084 1428 2787 
Q 1159 2491 1159 1978 
L 1159 0 
L 581 0 
L 581 3500 
L 1159 3500 
L 1159 2956 
Q 1366 3272 1645 3428 
Q 1925 3584 2291 3584 
Q 2894 3584 3203 3211 
Q 3513 2838 3513 2113 
z
" transform="scale(0.015625)"/>
       <path id="DejaVuSans-74" d="M 1172 4494 
L 1172 3500 
L 2356 3500 
L 2356 3053 
L 1172 3053 
L 1172 1153 
Q 1172 725 1289 603 
Q 1406 481 1766 481 
L 2356 481 
L 2356 0 
L 1766 0 
Q 1100 0 847 248 
Q 594 497 594 1153 
L 594 3053 
L 172 3053 
L 172 3500 
L 594 3500 
L 594 4494 
L 1172 4494 
z
" transform="scale(0.015625)"/>
       <path id="DejaVuSans-66" d="M 2375 4863 
L 2375 4384 
L 1825 4384 
Q 1516 4384 1395 4259 
Q 1275 4134 1275 3809 
L 1275 3500 
L 2222 3500 
L 2222 3053 
L 1275 3053 
L 1275 0 
L 697 0 
L 697 3053 
L 147 3053 
L 147 3500 
L 697 3500 
L 697 3744 
Q 697 4328 969 4595 
Q 1241 4863 1831 4863 
L 2375 4863 
z
" transform="scale(0.015625)"/>
       <path id="DejaVuSans-62" d="M 3116 1747 
Q 3116 2381 2855 2742 
Q 2594 3103 2138 3103 
Q 1681 3103 1420 2742 
Q 1159 2381 1159 1747 
Q 1159 1113 1420 752 
Q 1681 391 2138 391 
Q 2594 391 2855 752 
Q 3116 1113 3116 1747 
z
M 1159 2969 
Q 1341 3281 1617 3432 
Q 1894 3584 2278 3584 
Q 2916 3584 3314 3078 
Q 3713 2572 3713 1747 
Q 3713 922 3314 415 
Q 2916 -91 2278 -91 
Q 1894 -91 1617 61 
Q 1341 213 1159 525 
L 1159 0 
L 581 0 
L 581 4863 
L 1159 4863 
L 1159 2969 
z
" transform="scale(0.015625)"/>
       <path id="DejaVuSans-6a" d="M 603 3500 
L 1178 3500 
L 1178 -63 
Q 1178 -731 923 -1031 
Q 669 -1331 103 -1331 
L -116 -1331 
L -116 -844 
L 38 -844 
Q 366 -844 484 -692 
Q 603 -541 603 -63 
L 603 3500 
z
M 603 4863 
L 1178 4863 
L 1178 4134 
L 603 4134 
L 603 4863 
z
" transform="scale(0.015625)"/>
       <path id="DejaVuSans-65" d="M 3597 1894 
L 3597 1613 
L 953 1613 
Q 991 1019 1311 708 
Q 1631 397 2203 397 
Q 2534 397 2845 478 
Q 3156 559 3463 722 
L 3463 178 
Q 3153 47 2828 -22 
Q 2503 -91 2169 -91 
Q 1331 -91 842 396 
Q 353 884 353 1716 
Q 353 2575 817 3079 
Q 1281 3584 2069 3584 
Q 2775 3584 3186 3129 
Q 3597 2675 3597 1894 
z
M 3022 2063 
Q 3016 2534 2758 2815 
Q 2500 3097 2075 3097 
Q 1594 3097 1305 2825 
Q 1016 2553 972 2059 
L 3022 2063 
z
" transform="scale(0.015625)"/>
       <path id="DejaVuSans-63" d="M 3122 3366 
L 3122 2828 
Q 2878 2963 2633 3030 
Q 2388 3097 2138 3097 
Q 1578 3097 1268 2742 
Q 959 2388 959 1747 
Q 959 1106 1268 751 
Q 1578 397 2138 397 
Q 2388 397 2633 464 
Q 2878 531 3122 666 
L 3122 134 
Q 2881 22 2623 -34 
Q 2366 -91 2075 -91 
Q 1284 -91 818 406 
Q 353 903 353 1747 
Q 353 2603 823 3093 
Q 1294 3584 2113 3584 
Q 2378 3584 2631 3529 
Q 2884 3475 3122 3366 
z
" transform="scale(0.015625)"/>
       <path id="DejaVuSans-73" d="M 2834 3397 
L 2834 2853 
Q 2591 2978 2328 3040 
Q 2066 3103 1784 3103 
Q 1356 3103 1142 2972 
Q 928 2841 928 2578 
Q 928 2378 1081 2264 
Q 1234 2150 1697 2047 
L 1894 2003 
Q 2506 1872 2764 1633 
Q 3022 1394 3022 966 
Q 3022 478 2636 193 
Q 2250 -91 1575 -91 
Q 1294 -91 989 -36 
Q 684 19 347 128 
L 347 722 
Q 666 556 975 473 
Q 1284 391 1588 391 
Q 1994 391 2212 530 
Q 2431 669 2431 922 
Q 2431 1156 2273 1281 
Q 2116 1406 1581 1522 
L 1381 1569 
Q 847 1681 609 1914 
Q 372 2147 372 2553 
Q 372 3047 722 3315 
Q 1072 3584 1716 3584 
Q 2034 3584 2315 3537 
Q 2597 3491 2834 3397 
z
" transform="scale(0.015625)"/>
       <path id="DejaVuSans-69" d="M 603 3500 
L 1178 3500 
L 1178 0 
L 603 0 
L 603 3500 
z
M 603 4863 
L 1178 4863 
L 1178 4134 
L 603 4134 
L 603 4863 
z
" transform="scale(0.015625)"/>
       <path id="DejaVuSans-61" d="M 2194 1759 
Q 1497 1759 1228 1600 
Q 959 1441 959 1056 
Q 959 750 1161 570 
Q 1363 391 1709 391 
Q 2188 391 2477 730 
Q 2766 1069 2766 1631 
L 2766 1759 
L 2194 1759 
z
M 3341 1997 
L 3341 0 
L 2766 0 
L 2766 531 
Q 2569 213 2275 61 
Q 1981 -91 1556 -91 
Q 1019 -91 701 211 
Q 384 513 384 1019 
Q 384 1609 779 1909 
Q 1175 2209 1959 2209 
L 2766 2209 
L 2766 2266 
Q 2766 2663 2505 2880 
Q 2244 3097 1772 3097 
Q 1472 3097 1187 3025 
Q 903 2953 641 2809 
L 641 3341 
Q 956 3463 1253 3523 
Q 1550 3584 1831 3584 
Q 2591 3584 2966 3190 
Q 3341 2797 3341 1997 
z
" transform="scale(0.015625)"/>
       <path id="DejaVuSans-6c" d="M 603 4863 
L 1178 4863 
L 1178 0 
L 603 0 
L 603 4863 
z
" transform="scale(0.015625)"/>
      </defs>
      <use xlink:href="#DejaVuSans-41"/>
      <use xlink:href="#DejaVuSans-6d" transform="translate(68.408203 0)"/>
      <use xlink:href="#DejaVuSans-6f" transform="translate(165.820312 0)"/>
      <use xlink:href="#DejaVuSans-75" transform="translate(227.001953 0)"/>
      <use xlink:href="#DejaVuSans-6e" transform="translate(290.380859 0)"/>
      <use xlink:href="#DejaVuSans-74" transform="translate(353.759766 0)"/>
      <use xlink:href="#DejaVuSans-20" transform="translate(392.96875 0)"/>
      <use xlink:href="#DejaVuSans-6f" transform="translate(424.755859 0)"/>
      <use xlink:href="#DejaVuSans-66" transform="translate(485.9375 0)"/>
      <use xlink:href="#DejaVuSans-20" transform="translate(521.142578 0)"/>
      <use xlink:href="#DejaVuSans-6f" transform="translate(552.929688 0)"/>
      <use xlink:href="#DejaVuSans-62" transform="translate(614.111328 0)"/>
      <use xlink:href="#DejaVuSans-6a" transform="translate(677.587891 0)"/>
      <use xlink:href="#DejaVuSans-65" transform="translate(705.371094 0)"/>
      <use xlink:href="#DejaVuSans-63" transform="translate(766.894531 0)"/>
      <use xlink:href="#DejaVuSans-74" transform="translate(821.875 0)"/>
      <use xlink:href="#DejaVuSans-73" transform="translate(861.083984 0)"/>
      <use xlink:href="#DejaVuSans-20" transform="translate(913.183594 0)"/>
      <use xlink:href="#DejaVuSans-69" transform="translate(944.970703 0)"/>
      <use xlink:href="#DejaVuSans-6e" transform="translate(972.753906 0)"/>
      <use xlink:href="#DejaVuSans-20" transform="translate(1036.132812 0)"/>
      <use xlink:href="#DejaVuSans-74" transform="translate(1067.919922 0)"/>
      <use xlink:href="#DejaVuSans-61" transform="translate(1107.128906 0)"/>
      <use xlink:href="#DejaVuSans-62" transform="translate(1168.408203 0)"/>
      <use xlink:href="#DejaVuSans-6c" transform="translate(1231.884766 0)"/>
      <use xlink:href="#DejaVuSans-65" transform="translate(1259.667969 0)"/>
     </g>
    </g>
   </g>
   <g id="matplotlib.axis_2">
    <g id="ytick_1">
     <g id="line2d_10">
      <defs>
       <path id="mb751ca2014" d="M 0 0 
L -3.5 0 
" style="stroke: #000000; stroke-width: 0.8"/>
      </defs>
      <g>
       <use xlink:href="#mb751ca2014" x="68.271875" y="288.430125" style="stroke: #000000; stroke-width: 0.8"/>
      </g>
     </g>
     <g id="text_11">
      <!-- 0 -->
      <g transform="translate(54.909375 292.229344) scale(0.1 -0.1)">
       <use xlink:href="#DejaVuSans-30"/>
      </g>
     </g>
    </g>
    <g id="ytick_2">
     <g id="line2d_11">
      <g>
       <use xlink:href="#mb751ca2014" x="68.271875" y="257.608537" style="stroke: #000000; stroke-width: 0.8"/>
      </g>
     </g>
     <g id="text_12">
      <!-- 2.5 ms -->
      <g transform="translate(27.240625 261.407755) scale(0.1 -0.1)">
       <use xlink:href="#DejaVuSans-32"/>
       <use xlink:href="#DejaVuSans-2e" transform="translate(63.623047 0)"/>
       <use xlink:href="#DejaVuSans-35" transform="translate(95.410156 0)"/>
       <use xlink:href="#DejaVuSans-20" transform="translate(159.033203 0)"/>
       <use xlink:href="#DejaVuSans-6d" transform="translate(190.820312 0)"/>
       <use xlink:href="#DejaVuSans-73" transform="translate(288.232422 0)"/>
      </g>
     </g>
    </g>
    <g id="ytick_3">
     <g id="line2d_12">
      <g>
       <use xlink:href="#mb751ca2014" x="68.271875" y="226.786948" style="stroke: #000000; stroke-width: 0.8"/>
      </g>
     </g>
     <g id="text_13">
      <!-- 5 ms -->
      <g transform="translate(36.78125 230.586167) scale(0.1 -0.1)">
       <use xlink:href="#DejaVuSans-35"/>
       <use xlink:href="#DejaVuSans-20" transform="translate(63.623047 0)"/>
       <use xlink:href="#DejaVuSans-6d" transform="translate(95.410156 0)"/>
       <use xlink:href="#DejaVuSans-73" transform="translate(192.822266 0)"/>
      </g>
     </g>
    </g>
    <g id="ytick_4">
     <g id="line2d_13">
      <g>
       <use xlink:href="#mb751ca2014" x="68.271875" y="195.96536" style="stroke: #000000; stroke-width: 0.8"/>
      </g>
     </g>
     <g id="text_14">
      <!-- 7.5 ms -->
      <g transform="translate(27.240625 199.764578) scale(0.1 -0.1)">
       <defs>
        <path id="DejaVuSans-37" d="M 525 4666 
L 3525 4666 
L 3525 4397 
L 1831 0 
L 1172 0 
L 2766 4134 
L 525 4134 
L 525 4666 
z
" transform="scale(0.015625)"/>
       </defs>
       <use xlink:href="#DejaVuSans-37"/>
       <use xlink:href="#DejaVuSans-2e" transform="translate(63.623047 0)"/>
       <use xlink:href="#DejaVuSans-35" transform="translate(95.410156 0)"/>
       <use xlink:href="#DejaVuSans-20" transform="translate(159.033203 0)"/>
       <use xlink:href="#DejaVuSans-6d" transform="translate(190.820312 0)"/>
       <use xlink:href="#DejaVuSans-73" transform="translate(288.232422 0)"/>
      </g>
     </g>
    </g>
    <g id="ytick_5">
     <g id="line2d_14">
      <g>
       <use xlink:href="#mb751ca2014" x="68.271875" y="165.143771" style="stroke: #000000; stroke-width: 0.8"/>
      </g>
     </g>
     <g id="text_15">
      <!-- 10 ms -->
      <g transform="translate(30.41875 168.94299) scale(0.1 -0.1)">
       <use xlink:href="#DejaVuSans-31"/>
       <use xlink:href="#DejaVuSans-30" transform="translate(63.623047 0)"/>
       <use xlink:href="#DejaVuSans-20" transform="translate(127.246094 0)"/>
       <use xlink:href="#DejaVuSans-6d" transform="translate(159.033203 0)"/>
       <use xlink:href="#DejaVuSans-73" transform="translate(256.445312 0)"/>
      </g>
     </g>
    </g>
    <g id="ytick_6">
     <g id="line2d_15">
      <g>
       <use xlink:href="#mb751ca2014" x="68.271875" y="134.322183" style="stroke: #000000; stroke-width: 0.8"/>
      </g>
     </g>
     <g id="text_16">
      <!-- 12.5 ms -->
      <g transform="translate(20.878125 138.121401) scale(0.1 -0.1)">
       <use xlink:href="#DejaVuSans-31"/>
       <use xlink:href="#DejaVuSans-32" transform="translate(63.623047 0)"/>
       <use xlink:href="#DejaVuSans-2e" transform="translate(127.246094 0)"/>
       <use xlink:href="#DejaVuSans-35" transform="translate(159.033203 0)"/>
       <use xlink:href="#DejaVuSans-20" transform="translate(222.65625 0)"/>
       <use xlink:href="#DejaVuSans-6d" transform="translate(254.443359 0)"/>
       <use xlink:href="#DejaVuSans-73" transform="translate(351.855469 0)"/>
      </g>
     </g>
    </g>
    <g id="ytick_7">
     <g id="line2d_16">
      <g>
       <use xlink:href="#mb751ca2014" x="68.271875" y="103.500594" style="stroke: #000000; stroke-width: 0.8"/>
      </g>
     </g>
     <g id="text_17">
      <!-- 15 ms -->
      <g transform="translate(30.41875 107.299813) scale(0.1 -0.1)">
       <use xlink:href="#DejaVuSans-31"/>
       <use xlink:href="#DejaVuSans-35" transform="translate(63.623047 0)"/>
       <use xlink:href="#DejaVuSans-20" transform="translate(127.246094 0)"/>
       <use xlink:href="#DejaVuSans-6d" transform="translate(159.033203 0)"/>
       <use xlink:href="#DejaVuSans-73" transform="translate(256.445312 0)"/>
      </g>
     </g>
    </g>
    <g id="ytick_8">
     <g id="line2d_17">
      <g>
       <use xlink:href="#mb751ca2014" x="68.271875" y="72.679006" style="stroke: #000000; stroke-width: 0.8"/>
      </g>
     </g>
     <g id="text_18">
      <!-- 17.5 ms -->
      <g transform="translate(20.878125 76.478224) scale(0.1 -0.1)">
       <use xlink:href="#DejaVuSans-31"/>
       <use xlink:href="#DejaVuSans-37" transform="translate(63.623047 0)"/>
       <use xlink:href="#DejaVuSans-2e" transform="translate(127.246094 0)"/>
       <use xlink:href="#DejaVuSans-35" transform="translate(159.033203 0)"/>
       <use xlink:href="#DejaVuSans-20" transform="translate(222.65625 0)"/>
       <use xlink:href="#DejaVuSans-6d" transform="translate(254.443359 0)"/>
       <use xlink:href="#DejaVuSans-73" transform="translate(351.855469 0)"/>
      </g>
     </g>
    </g>
    <g id="ytick_9">
     <g id="line2d_18">
      <g>
       <use xlink:href="#mb751ca2014" x="68.271875" y="41.857417" style="stroke: #000000; stroke-width: 0.8"/>
      </g>
     </g>
     <g id="text_19">
      <!-- 20 ms -->
      <g transform="translate(30.41875 45.656636) scale(0.1 -0.1)">
       <use xlink:href="#DejaVuSans-32"/>
       <use xlink:href="#DejaVuSans-30" transform="translate(63.623047 0)"/>
       <use xlink:href="#DejaVuSans-20" transform="translate(127.246094 0)"/>
       <use xlink:href="#DejaVuSans-6d" transform="translate(159.033203 0)"/>
       <use xlink:href="#DejaVuSans-73" transform="translate(256.445312 0)"/>
      </g>
     </g>
    </g>
    <g id="text_20">
     <!-- Write latency (s) -->
     <g transform="translate(14.798438 196.625687) rotate(-90) scale(0.1 -0.1)">
      <defs>
       <path id="DejaVuSans-57" d="M 213 4666 
L 850 4666 
L 1831 722 
L 2809 4666 
L 3519 4666 
L 4500 722 
L 5478 4666 
L 6119 4666 
L 4947 0 
L 4153 0 
L 3169 4050 
L 2175 0 
L 1381 0 
L 213 4666 
z
" transform="scale(0.015625)"/>
       <path id="DejaVuSans-72" d="M 2631 2963 
Q 2534 3019 2420 3045 
Q 2306 3072 2169 3072 
Q 1681 3072 1420 2755 
Q 1159 2438 1159 1844 
L 1159 0 
L 581 0 
L 581 3500 
L 1159 3500 
L 1159 2956 
Q 1341 3275 1631 3429 
Q 1922 3584 2338 3584 
Q 2397 3584 2469 3576 
Q 2541 3569 2628 3553 
L 2631 2963 
z
" transform="scale(0.015625)"/>
       <path id="DejaVuSans-79" d="M 2059 -325 
Q 1816 -950 1584 -1140 
Q 1353 -1331 966 -1331 
L 506 -1331 
L 506 -850 
L 844 -850 
Q 1081 -850 1212 -737 
Q 1344 -625 1503 -206 
L 1606 56 
L 191 3500 
L 800 3500 
L 1894 763 
L 2988 3500 
L 3597 3500 
L 2059 -325 
z
" transform="scale(0.015625)"/>
       <path id="DejaVuSans-28" d="M 1984 4856 
Q 1566 4138 1362 3434 
Q 1159 2731 1159 2009 
Q 1159 1288 1364 580 
Q 1569 -128 1984 -844 
L 1484 -844 
Q 1016 -109 783 600 
Q 550 1309 550 2009 
Q 550 2706 781 3412 
Q 1013 4119 1484 4856 
L 1984 4856 
z
" transform="scale(0.015625)"/>
       <path id="DejaVuSans-29" d="M 513 4856 
L 1013 4856 
Q 1481 4119 1714 3412 
Q 1947 2706 1947 2009 
Q 1947 1309 1714 600 
Q 1481 -109 1013 -844 
L 513 -844 
Q 928 -128 1133 580 
Q 1338 1288 1338 2009 
Q 1338 2731 1133 3434 
Q 928 4138 513 4856 
z
" transform="scale(0.015625)"/>
      </defs>
      <use xlink:href="#DejaVuSans-57"/>
      <use xlink:href="#DejaVuSans-72" transform="translate(94.376953 0)"/>
      <use xlink:href="#DejaVuSans-69" transform="translate(135.490234 0)"/>
      <use xlink:href="#DejaVuSans-74" transform="translate(163.273438 0)"/>
      <use xlink:href="#DejaVuSans-65" transform="translate(202.482422 0)"/>
      <use xlink:href="#DejaVuSans-20" transform="translate(264.005859 0)"/>
      <use xlink:href="#DejaVuSans-6c" transform="translate(295.792969 0)"/>
      <use xlink:href="#DejaVuSans-61" transform="translate(323.576172 0)"/>
      <use xlink:href="#DejaVuSans-74" transform="translate(384.855469 0)"/>
      <use xlink:href="#DejaVuSans-65" transform="translate(424.064453 0)"/>
      <use xlink:href="#DejaVuSans-6e" transform="translate(485.587891 0)"/>
      <use xlink:href="#DejaVuSans-63" transform="translate(548.966797 0)"/>
      <use xlink:href="#DejaVuSans-79" transform="translate(603.947266 0)"/>
      <use xlink:href="#DejaVuSans-20" transform="translate(663.126953 0)"/>
      <use xlink:href="#DejaVuSans-28" transform="translate(694.914062 0)"/>
      <use xlink:href="#DejaVuSans-73" transform="translate(733.927734 0)"/>
      <use xlink:href="#DejaVuSans-29" transform="translate(786.027344 0)"/>
     </g>
    </g>
   </g>
   <g id="line2d_19">
    <path d="M 153.627061 243.862873 
L 156.67546 240.657325 
L 157.110946 239.261122 
L 158.417403 237.824777 
L 159.72386 236.194871 
L 161.465802 233.74316 
L 164.078716 230.654193 
L 168.433572 224.715734 
L 170.611001 221.944054 
L 172.352943 219.594362 
L 173.6594 218.094301 
L 176.272314 213.906519 
L 177.143285 212.572766 
L 177.578771 212.168398 
L 178.014257 211.432952 
L 178.449742 210.925495 
L 179.320713 209.444848 
L 180.191685 208.076622 
L 180.62717 207.121792 
L 181.062656 206.504086 
L 183.240084 201.952003 
L 187.594941 193.900389 
L 188.901398 191.556998 
L 189.336883 190.93979 
L 190.207855 189.103012 
L 191.514311 186.728282 
L 192.820768 184.456266 
L 197.175625 176.618202 
L 197.61111 175.733208 
L 198.046596 175.124562 
L 203.272424 165.165655 
L 204.578881 163.309387 
L 205.885338 162.212788 
L 207.191795 160.888833 
L 208.062766 160.344084 
L 208.498251 158.858343 
L 209.369223 158.4356 
L 209.804708 158.10948 
L 211.982137 155.857692 
L 216.772479 151.566535 
L 217.207964 149.183832 
L 218.514421 148.043927 
L 219.820878 146.503845 
L 220.256364 146.189874 
L 220.691849 145.698275 
L 221.127335 145.418371 
L 222.869278 143.770527 
L 224.175735 142.978207 
L 224.61122 142.472182 
L 228.095105 139.828523 
L 228.530591 139.265866 
L 229.401562 138.598371 
L 229.837048 138.344334 
L 230.708019 137.480308 
L 231.143505 137.165705 
L 231.57899 136.700936 
L 232.014476 136.478599 
L 232.885447 135.727159 
L 235.498361 133.631037 
L 236.804818 132.188799 
L 238.111275 131.333079 
L 238.546761 131.058707 
L 238.982246 130.568298 
L 240.288703 129.634225 
L 241.159675 128.611473 
L 241.59516 128.280379 
L 242.030646 128.804748 
L 242.901617 127.937225 
L 243.337103 127.452439 
L 244.64356 126.693297 
L 245.079045 126.529475 
L 245.950017 125.772443 
L 246.385502 125.663053 
L 246.820988 125.038232 
L 247.691959 124.138452 
L 248.998416 122.550043 
L 249.869387 121.863872 
L 251.175844 120.170219 
L 254.224244 116.896629 
L 255.530701 115.889267 
L 257.708129 113.740237 
L 258.143615 113.105196 
L 259.014586 112.597543 
L 259.450071 112.179986 
L 260.756528 111.353659 
L 261.6275 110.823064 
L 262.062985 110.581975 
L 262.498471 109.941161 
L 262.933957 109.621749 
L 263.369442 109.13532 
L 263.804928 108.976292 
L 264.675899 108.007595 
L 265.982356 107.137615 
L 266.417842 106.99051 
L 266.853327 106.687996 
L 267.288813 105.19315 
L 267.724299 104.993574 
L 268.159784 104.5399 
L 268.59527 104.366296 
L 269.030756 104.072163 
L 269.466241 103.585945 
L 270.772698 102.766703 
L 272.079155 101.232002 
L 272.514641 100.770791 
L 272.950126 100.637766 
L 273.385612 100.118778 
L 274.256583 99.704039 
L 274.692069 99.818479 
L 275.127555 99.449369 
L 275.998526 99.195165 
L 276.869497 98.48566 
L 277.740468 98.004492 
L 278.175954 96.210734 
L 280.353382 94.539646 
L 280.788868 94.31945 
L 281.659839 94.337538 
L 282.095325 94.201829 
L 283.401782 93.050152 
L 284.272753 92.529098 
L 284.708239 92.271458 
L 288.627609 91.983008 
L 289.498581 91.429681 
L 290.369552 90.328832 
L 290.805038 89.858427 
L 291.240523 88.493396 
L 292.982466 86.928623 
L 293.417951 87.769103 
L 294.724408 86.52118 
L 296.901837 84.966296 
L 299.079265 83.352639 
L 299.51475 82.585281 
L 299.950236 82.05868 
L 300.821207 81.85416 
L 301.692179 81.413691 
L 302.127664 83.156635 
L 302.56315 82.945241 
L 302.998636 82.559701 
L 303.434121 82.004385 
L 304.305092 81.68244 
L 304.740578 81.374378 
L 305.176064 80.83391 
L 305.611549 80.513036 
L 306.482521 79.545092 
L 306.918006 79.082796 
L 308.659949 78.062094 
L 309.095435 77.540106 
L 309.53092 77.307699 
L 310.401891 76.33858 
L 311.272863 75.6006 
L 311.708348 75.343186 
L 312.143834 74.776143 
L 312.57932 74.392291 
L 313.014805 73.83093 
L 313.450291 73.888045 
L 313.885777 73.730027 
L 314.756748 73.231433 
L 315.192234 73.209531 
L 315.627719 72.583233 
L 316.49869 71.826306 
L 317.369662 71.129177 
L 318.240633 70.670664 
L 318.676119 70.270743 
L 319.111604 70.270427 
L 319.54709 69.73237 
L 319.982576 67.633973 
L 320.418061 67.196413 
L 321.289032 66.991305 
L 321.724518 66.776504 
L 322.160004 66.694337 
L 323.466461 65.691482 
L 324.337432 65.710536 
L 325.208403 65.160722 
L 326.079375 65.022872 
L 326.51486 64.582026 
L 327.821317 64.61641 
L 328.256803 64.751937 
L 329.127774 64.432299 
L 330.869717 64.060144 
L 331.305202 63.684748 
L 332.176174 63.618529 
L 332.611659 63.361794 
L 333.48263 63.66479 
L 333.918116 63.648933 
L 335.224573 63.180396 
L 335.660059 63.188491 
L 336.53103 62.637607 
L 336.966516 62.538286 
L 337.837487 62.81617 
L 339.579429 62.592446 
L 340.014915 62.438016 
L 340.450401 62.536311 
L 340.885886 62.222235 
L 341.321372 62.184883 
L 342.192343 61.190439 
L 342.627829 60.900481 
L 343.4988 60.521347 
L 343.934286 60.131329 
L 344.369771 59.923131 
L 344.805257 59.886879 
L 345.240743 59.492897 
L 346.111714 59.314288 
L 346.5472 58.970999 
L 347.418171 58.881024 
L 348.724628 57.824492 
L 349.160114 57.803012 
L 349.595599 57.943544 
L 350.031085 57.717288 
L 351.337542 57.6104 
L 351.773027 57.683281 
L 352.208513 59.193819 
L 352.643999 59.231458 
L 353.079484 59.014261 
L 353.950456 58.092458 
L 354.821427 58.506096 
L 355.256912 58.404423 
L 355.692398 58.451348 
L 356.127884 58.785909 
L 356.563369 58.790356 
L 356.998855 59.063853 
L 357.434341 59.004418 
L 357.869826 58.78312 
L 358.305312 58.791305 
L 360.48274 57.333194 
L 360.918226 57.335742 
L 361.353711 57.218001 
L 361.789197 57.273427 
L 362.660168 56.856834 
L 363.095654 58.274262 
L 365.273082 58.247913 
L 366.579539 57.24144 
L 367.015025 57.266629 
L 367.45051 57.492448 
L 367.885996 57.573937 
L 368.756967 57.278115 
L 369.192453 56.860211 
L 370.063424 56.509837 
L 370.49891 55.964319 
L 371.369881 55.884368 
L 373.111824 55.394774 
L 373.547309 55.036095 
L 373.982795 55.072618 
L 374.418281 54.853793 
L 374.853766 54.873962 
L 375.289252 54.346879 
L 375.724738 54.235514 
L 376.160223 54.596319 
L 376.595709 54.482557 
L 377.46668 53.373418 
L 377.902166 53.273223 
L 378.337651 52.927025 
L 378.773137 52.32076 
L 379.208623 51.940269 
L 380.079594 51.881662 
L 380.51508 51.411814 
L 380.950565 51.484228 
L 381.821537 50.955141 
L 382.692508 49.998442 
L 383.563479 49.907728 
L 383.998965 49.478941 
L 384.869936 49.797117 
L 385.740907 49.184205 
L 386.176393 49.0341 
L 386.611879 48.46246 
L 387.48285 47.982196 
L 387.918336 47.410419 
L 388.353821 47.386151 
L 388.789307 47.225585 
L 389.224793 46.657442 
L 389.660278 46.600177 
L 390.095764 46.746874 
L 390.531249 46.432391 
L 390.966735 46.299803 
L 391.402221 45.867503 
L 392.708678 45.266333 
L 393.144163 44.820769 
L 393.579649 44.732513 
L 394.45062 43.93053 
L 394.886106 40.797744 
L 395.321591 40.04258 
L 395.757077 39.883914 
L 396.192563 39.442194 
L 396.628048 39.212455 
L 397.063534 39.449083 
L 397.49902 39.150728 
L 397.934505 39.268695 
L 398.805477 38.547101 
L 399.240962 37.280532 
L 399.676448 36.988494 
L 400.111934 36.543683 
L 400.547419 36.807624 
L 401.41839 36.418059 
L 401.853876 36.141396 
L 402.289362 36.121694 
L 403.160333 35.784601 
L 403.595819 35.251036 
L 404.031304 34.990125 
L 404.46679 35.001611 
L 404.902276 36.517832 
L 405.337761 36.681713 
L 405.773247 36.287158 
L 406.208733 36.194591 
L 407.079704 35.698349 
L 407.515189 35.60753 
L 407.950675 35.733064 
L 408.386161 35.668473 
L 408.386161 35.668473 
" clip-path="url(#p40713fd794)" style="fill: none; stroke: #1f77b4; stroke-opacity: 0.8; stroke-width: 1.5; stroke-linecap: square"/>
   </g>
   <g id="line2d_20">
    <path d="M 153.627061 279.127528 
L 166.69163 278.32321 
L 174.094886 278.040547 
L 178.449742 277.873154 
L 184.546541 277.573232 
L 184.982027 277.42878 
L 209.369223 275.867957 
L 211.982137 275.577622 
L 212.417622 275.284709 
L 216.772479 274.485862 
L 222.433792 272.886962 
L 223.740249 272.492408 
L 225.482191 271.948819 
L 229.401562 270.278817 
L 236.369332 266.50401 
L 245.950017 260.884647 
L 253.788758 255.053589 
L 256.837158 252.427973 
L 258.5791 250.97161 
L 268.159784 241.813887 
L 269.030756 240.813308 
L 270.337212 239.312086 
L 277.304983 231.642742 
L 279.482411 229.138394 
L 282.53081 225.765046 
L 283.837267 224.369174 
L 285.143724 222.942612 
L 288.192124 219.469823 
L 289.498581 217.892267 
L 290.369552 216.856477 
L 295.159894 211.256981 
L 295.59538 209.469328 
L 296.901837 208.090761 
L 297.337322 207.888577 
L 301.256693 203.981604 
L 302.56315 202.875344 
L 304.305092 201.40347 
L 313.450291 194.311902 
L 316.934176 192.377235 
L 318.240633 191.543462 
L 319.54709 190.769849 
L 319.982576 189.274505 
L 323.466461 187.63162 
L 325.643889 186.468592 
L 326.950346 185.680719 
L 330.869717 183.802609 
L 332.611659 183.164885 
L 345.240743 179.026967 
L 349.160114 178.431706 
L 349.595599 178.513647 
L 350.031085 178.410346 
L 351.337542 178.3895 
L 352.643999 178.172724 
L 353.079484 178.131091 
L 353.950456 178.239501 
L 354.821427 178.223131 
L 355.256912 178.452854 
L 357.434341 178.34452 
L 357.869826 178.383304 
L 358.740798 178.276989 
L 359.176283 178.203279 
L 359.611769 178.416195 
L 362.224683 178.519752 
L 363.095654 178.563737 
L 370.934396 178.754223 
L 371.805367 178.84667 
L 373.111824 178.905383 
L 374.418281 179.021179 
L 377.46668 179.323271 
L 380.079594 179.832537 
L 380.51508 181.191644 
L 382.257022 181.213591 
L 384.43445 181.35958 
L 385.305422 181.446164 
L 390.095764 181.533803 
L 395.321591 181.395396 
L 395.757077 181.542892 
L 396.628048 181.494475 
L 397.49902 181.528406 
L 398.805477 181.497023 
L 400.111934 181.458781 
L 400.547419 180.202944 
L 401.853876 180.189618 
L 403.160333 180.296054 
L 404.46679 180.262455 
L 404.902276 181.491234 
L 407.515189 181.296934 
L 407.950675 181.170315 
L 408.386161 181.209567 
L 408.386161 181.209567 
" clip-path="url(#p40713fd794)" style="fill: none; stroke: #ff7f0e; stroke-opacity: 0.8; stroke-width: 1.5; stroke-linecap: square"/>
   </g>
   <g id="line2d_21">
    <path d="M 153.627061 284.972002 
L 163.64323 284.901548 
L 185.417512 284.897402 
L 195.869168 284.886836 
L 204.143395 284.878681 
L 210.240194 284.885268 
L 221.998306 284.791555 
L 266.853327 284.170306 
L 269.466241 284.080874 
L 281.224354 283.831931 
L 284.272753 283.765893 
L 299.079265 283.448381 
L 299.51475 283.302241 
L 308.659949 283.197011 
L 322.595489 283.077205 
L 331.740688 283.028954 
L 365.273082 282.865299 
L 370.934396 282.917921 
L 408.386161 283.075366 
L 408.386161 283.075366 
" clip-path="url(#p40713fd794)" style="fill: none; stroke: #2ca02c; stroke-opacity: 0.8; stroke-width: 1.5; stroke-linecap: square"/>
   </g>
   <g id="line2d_22">
    <path d="M 153.627061 265.271673 
L 155.804489 264.69747 
L 157.981917 264.262171 
L 159.72386 263.950115 
L 162.772259 263.072191 
L 164.514202 262.730228 
L 165.385173 262.628164 
L 171.046486 261.58256 
L 174.094886 261.389165 
L 179.320713 260.415674 
L 180.62717 260.200647 
L 182.369113 259.899881 
L 184.111056 259.680815 
L 185.417512 259.465893 
L 186.723969 259.336727 
L 189.772369 258.762629 
L 191.078826 258.709238 
L 192.385283 258.511772 
L 199.788539 257.543662 
L 202.401452 257.176783 
L 205.449852 256.780721 
L 207.62728 256.517986 
L 208.933737 256.186409 
L 210.240194 255.983894 
L 213.288593 255.234474 
L 215.030536 254.790161 
L 216.336993 254.45156 
L 218.078936 253.832497 
L 218.949907 253.454086 
L 220.256364 253.010647 
L 220.691849 252.738612 
L 222.869278 252.084367 
L 225.482191 251.326747 
L 226.353163 251.147068 
L 227.224134 250.865853 
L 231.143505 249.803336 
L 233.756419 248.977251 
L 236.369332 248.220912 
L 238.982246 246.967592 
L 240.288703 246.540554 
L 241.59516 245.70954 
L 243.337103 244.683547 
L 244.208074 244.369863 
L 245.950017 243.503229 
L 247.256474 242.972453 
L 248.127445 242.480899 
L 249.433902 241.520387 
L 255.966186 237.200122 
L 258.5791 235.244156 
L 259.450071 234.580008 
L 261.192014 233.355147 
L 263.804928 231.587286 
L 264.675899 230.789314 
L 265.54687 230.154725 
L 266.853327 229.053122 
L 267.288813 227.617049 
L 271.643669 223.840795 
L 272.514641 223.126331 
L 274.256583 221.513171 
L 276.869497 219.460748 
L 279.482411 217.016575 
L 279.917897 216.70185 
L 281.224354 215.441989 
L 284.272753 212.697456 
L 285.143724 211.897358 
L 289.063095 208.263355 
L 295.159894 203.45529 
L 295.59538 203.02905 
L 296.030865 202.791654 
L 296.901837 202.006539 
L 297.337322 201.314595 
L 300.821207 199.009145 
L 301.692179 198.474857 
L 302.56315 197.950819 
L 303.434121 197.367978 
L 303.869607 196.963671 
L 305.176064 196.181134 
L 306.047035 195.519593 
L 308.659949 194.077581 
L 309.095435 194.064904 
L 309.966406 193.469628 
L 310.401891 193.097895 
L 310.837377 192.916 
L 312.143834 191.945915 
L 313.450291 190.699997 
L 313.885777 190.365617 
L 314.756748 190.034809 
L 315.192234 189.672225 
L 316.063205 189.270239 
L 317.369662 188.525718 
L 320.853547 186.876849 
L 321.724518 186.50801 
L 323.466461 185.464381 
L 324.337432 184.973566 
L 326.51486 184.182647 
L 327.385831 183.930042 
L 328.692288 183.524634 
L 329.127774 183.323973 
L 330.434231 183.087737 
L 330.869717 182.874143 
L 331.740688 182.28782 
L 332.611659 182.084822 
L 334.353602 181.765878 
L 335.660059 181.299994 
L 336.53103 181.164089 
L 336.966516 181.172335 
L 337.837487 180.98215 
L 338.272972 181.012056 
L 339.579429 180.733539 
L 340.014915 180.753888 
L 340.450401 180.608698 
L 340.885886 180.708637 
L 341.756858 180.581716 
L 342.192343 180.811138 
L 342.627829 180.730313 
L 343.4988 180.905545 
L 343.934286 181.031908 
L 345.676228 181.013156 
L 346.111714 181.165009 
L 347.418171 181.233444 
L 348.724628 181.624983 
L 350.902056 182.227209 
L 351.773027 182.374147 
L 352.208513 183.604585 
L 353.51497 183.514369 
L 354.385941 183.890051 
L 355.692398 184.360065 
L 356.127884 184.591537 
L 356.998855 184.774728 
L 357.434341 184.865412 
L 358.740798 185.478339 
L 359.611769 185.560506 
L 360.918226 185.733598 
L 361.353711 185.656797 
L 363.53114 186.475602 
L 367.015025 187.711692 
L 367.45051 187.985205 
L 367.885996 187.942757 
L 368.321482 188.161145 
L 368.756967 188.248935 
L 369.627939 188.593806 
L 373.111824 189.721486 
L 373.547309 189.667507 
L 374.418281 189.94408 
L 375.289252 190.063886 
L 375.724738 190.208639 
L 377.902166 190.392056 
L 381.821537 191.873697 
L 382.257022 192.37309 
L 383.127994 192.476978 
L 383.998965 192.598758 
L 384.43445 192.825573 
L 384.869936 192.804711 
L 386.176393 193.323277 
L 386.611879 193.192105 
L 387.48285 193.42213 
L 389.660278 194.156281 
L 390.095764 194.191282 
L 390.531249 194.521743 
L 391.402221 194.663888 
L 392.273192 194.435959 
L 393.144163 194.810601 
L 394.45062 195.055398 
L 397.063534 195.738419 
L 397.49902 195.907486 
L 397.934505 196.198966 
L 399.240962 196.26416 
L 400.547419 196.287087 
L 401.853876 196.484975 
L 402.724847 196.456546 
L 404.031304 196.391111 
L 407.515189 196.094897 
L 408.386161 196.526021 
L 408.386161 196.526021 
" clip-path="url(#p40713fd794)" style="fill: none; stroke: #d62728; stroke-opacity: 0.8; stroke-width: 1.5; stroke-linecap: square"/>
   </g>
   <g id="line2d_23">
    <path d="M 153.627061 247.460383 
L 154.498032 247.385948 
L 155.369003 247.461016 
L 157.546431 247.067893 
L 160.159345 246.859785 
L 161.030317 246.77997 
L 161.901288 246.627725 
L 164.514202 246.596764 
L 164.949687 246.891711 
L 166.256144 246.723473 
L 167.127116 246.720836 
L 167.998087 246.574862 
L 169.304544 246.633996 
L 169.740029 246.534675 
L 171.046486 246.529505 
L 172.352943 246.390827 
L 172.788429 246.423476 
L 173.6594 246.278633 
L 174.530371 246.28923 
L 175.401343 246.233593 
L 175.836828 246.339606 
L 176.272314 246.27696 
L 176.7078 246.367734 
L 177.143285 246.331617 
L 178.014257 246.108375 
L 179.756199 245.802635 
L 181.498142 245.467802 
L 184.982027 244.53192 
L 185.852998 244.335449 
L 186.723969 244.076995 
L 188.030426 243.774285 
L 190.207855 243.03522 
L 191.949797 242.171843 
L 195.869168 239.891972 
L 196.740139 239.423873 
L 198.482082 238.397895 
L 198.917567 238.269512 
L 200.224024 237.480524 
L 201.530481 236.685008 
L 202.401452 236.08031 
L 205.014366 234.469834 
L 206.756309 233.994876 
L 207.62728 233.680574 
L 208.933737 233.314901 
L 209.804708 233.160395 
L 211.982137 232.774553 
L 214.59505 232.305805 
L 218.078936 231.848815 
L 218.949907 231.815849 
L 219.385392 231.70352 
L 219.820878 231.758659 
L 221.562821 231.49499 
L 225.917677 227.76153 
L 227.224134 226.774156 
L 229.401562 225.419165 
L 230.272533 224.863592 
L 231.143505 224.439855 
L 233.756419 223.019066 
L 240.288703 220.063125 
L 241.59516 219.666083 
L 243.337103 218.9846 
L 245.079045 218.430686 
L 246.820988 217.959225 
L 251.175844 216.07198 
L 255.530701 214.522763 
L 259.014586 213.131564 
L 260.756528 212.495393 
L 261.6275 212.376642 
L 262.062985 212.203174 
L 263.804928 212.023932 
L 264.675899 211.831923 
L 265.54687 211.623107 
L 266.853327 211.458743 
L 267.288813 211.529484 
L 269.030756 211.256755 
L 270.772698 211.061173 
L 271.208184 211.094411 
L 272.079155 211.003773 
L 272.514641 210.940252 
L 273.821098 210.444854 
L 275.998526 209.847874 
L 278.61144 209.518604 
L 279.046925 209.607192 
L 279.917897 209.293478 
L 281.659839 209.211989 
L 282.095325 209.27337 
L 283.401782 209.048274 
L 283.837267 208.755693 
L 284.272753 208.719546 
L 284.708239 208.52505 
L 286.885667 208.318766 
L 288.192124 208.355501 
L 289.063095 208.225369 
L 289.498581 208.314621 
L 290.369552 208.1243 
L 292.111495 207.745648 
L 293.417951 207.535354 
L 293.853437 207.353249 
L 294.288923 207.306128 
L 297.337322 206.034781 
L 299.079265 205.691883 
L 300.821207 205.086101 
L 301.692179 204.834505 
L 302.127664 204.776547 
L 303.434121 204.327877 
L 305.176064 203.812718 
L 306.918006 203.129125 
L 308.224463 202.80712 
L 309.095435 202.71009 
L 310.401891 202.232886 
L 311.708348 201.944421 
L 312.57932 201.702623 
L 315.192234 200.502046 
L 315.627719 199.792481 
L 316.934176 199.26368 
L 320.853547 197.39805 
L 323.901946 195.993979 
L 324.337432 195.868445 
L 324.772918 195.506751 
L 325.643889 195.165783 
L 327.385831 194.543434 
L 329.127774 193.878985 
L 330.434231 193.183151 
L 330.869717 193.094925 
L 332.176174 192.440469 
L 340.450401 189.7775 
L 340.885886 189.424097 
L 341.321372 189.308919 
L 341.756858 188.966323 
L 343.063315 188.587792 
L 343.4988 188.193177 
L 343.934286 188.061674 
L 344.369771 187.719545 
L 344.805257 187.558453 
L 345.240743 187.178776 
L 346.111714 186.797079 
L 346.5472 185.627509 
L 346.982685 185.468858 
L 347.853657 184.810438 
L 348.289142 184.188285 
L 349.160114 183.692314 
L 350.031085 182.962068 
L 351.773027 181.524728 
L 352.208513 181.320856 
L 353.51497 180.330904 
L 354.385941 179.938083 
L 355.692398 179.173619 
L 356.563369 178.508069 
L 356.998855 177.96849 
L 357.434341 177.624146 
L 357.869826 177.55648 
L 358.740798 176.938835 
L 359.611769 176.331394 
L 360.047255 175.995732 
L 361.353711 175.58437 
L 364.402111 174.326574 
L 364.837597 174.327071 
L 365.708568 173.724107 
L 366.579539 173.320704 
L 367.015025 173.003764 
L 367.45051 172.934305 
L 367.885996 172.638347 
L 368.756967 172.512768 
L 369.192453 172.181327 
L 369.627939 172.258926 
L 370.063424 171.934103 
L 370.934396 171.547417 
L 371.369881 171.294269 
L 372.240853 171.170302 
L 372.676338 170.869476 
L 374.418281 170.183516 
L 376.160223 169.400873 
L 377.46668 168.502238 
L 378.337651 168.059991 
L 378.773137 167.78699 
L 379.208623 167.367519 
L 380.079594 166.935114 
L 380.950565 166.31073 
L 381.386051 166.198612 
L 381.821537 165.793234 
L 382.257022 165.650969 
L 383.127994 164.941675 
L 383.563479 164.709539 
L 383.998965 164.292208 
L 384.869936 163.754272 
L 385.305422 163.313155 
L 386.176393 162.986975 
L 386.611879 162.636948 
L 387.047364 162.437055 
L 388.353821 161.089766 
L 388.789307 160.927558 
L 390.966735 159.519521 
L 391.837706 159.33015 
L 392.273192 158.896992 
L 392.708678 158.703867 
L 393.579649 157.682623 
L 394.015135 157.202178 
L 394.45062 157.067524 
L 395.757077 156.047561 
L 397.49902 154.633254 
L 400.982905 152.343917 
L 401.853876 151.358639 
L 402.724847 150.64122 
L 403.595819 149.931278 
L 404.46679 149.566298 
L 405.773247 148.074572 
L 408.386161 145.61142 
L 408.386161 145.61142 
" clip-path="url(#p40713fd794)" style="fill: none; stroke: #9467bd; stroke-opacity: 0.8; stroke-width: 1.5; stroke-linecap: square"/>
   </g>
   <g id="patch_3">
    <path d="M 68.271875 288.430125 
L 68.271875 22.318125 
" style="fill: none; stroke: #000000; stroke-width: 0.8; stroke-linejoin: miter; stroke-linecap: square"/>
   </g>
   <g id="patch_4">
    <path d="M 425.391875 288.430125 
L 425.391875 22.318125 
" style="fill: none; stroke: #000000; stroke-width: 0.8; stroke-linejoin: miter; stroke-linecap: square"/>
   </g>
   <g id="patch_5">
    <path d="M 68.271875 288.430125 
L 425.391875 288.430125 
" style="fill: none; stroke: #000000; stroke-width: 0.8; stroke-linejoin: miter; stroke-linecap: square"/>
   </g>
   <g id="patch_6">
    <path d="M 68.271875 22.318125 
L 425.391875 22.318125 
" style="fill: none; stroke: #000000; stroke-width: 0.8; stroke-linejoin: miter; stroke-linecap: square"/>
   </g>
   <g id="text_21">
    <!-- Move [root to branch] -->
    <g transform="translate(181.431875 16.318125) scale(0.12 -0.12)">
     <defs>
      <path id="DejaVuSans-4d" d="M 628 4666 
L 1569 4666 
L 2759 1491 
L 3956 4666 
L 4897 4666 
L 4897 0 
L 4281 0 
L 4281 4097 
L 3078 897 
L 2444 897 
L 1241 4097 
L 1241 0 
L 628 0 
L 628 4666 
z
" transform="scale(0.015625)"/>
      <path id="DejaVuSans-76" d="M 191 3500 
L 800 3500 
L 1894 563 
L 2988 3500 
L 3597 3500 
L 2284 0 
L 1503 0 
L 191 3500 
z
" transform="scale(0.015625)"/>
      <path id="DejaVuSans-5b" d="M 550 4863 
L 1875 4863 
L 1875 4416 
L 1125 4416 
L 1125 -397 
L 1875 -397 
L 1875 -844 
L 550 -844 
L 550 4863 
z
" transform="scale(0.015625)"/>
      <path id="DejaVuSans-68" d="M 3513 2113 
L 3513 0 
L 2938 0 
L 2938 2094 
Q 2938 2591 2744 2837 
Q 2550 3084 2163 3084 
Q 1697 3084 1428 2787 
Q 1159 2491 1159 1978 
L 1159 0 
L 581 0 
L 581 4863 
L 1159 4863 
L 1159 2956 
Q 1366 3272 1645 3428 
Q 1925 3584 2291 3584 
Q 2894 3584 3203 3211 
Q 3513 2838 3513 2113 
z
" transform="scale(0.015625)"/>
      <path id="DejaVuSans-5d" d="M 1947 4863 
L 1947 -844 
L 622 -844 
L 622 -397 
L 1369 -397 
L 1369 4416 
L 622 4416 
L 622 4863 
L 1947 4863 
z
" transform="scale(0.015625)"/>
     </defs>
     <use xlink:href="#DejaVuSans-4d"/>
     <use xlink:href="#DejaVuSans-6f" transform="translate(86.279297 0)"/>
     <use xlink:href="#DejaVuSans-76" transform="translate(147.460938 0)"/>
     <use xlink:href="#DejaVuSans-65" transform="translate(206.640625 0)"/>
     <use xlink:href="#DejaVuSans-20" transform="translate(268.164062 0)"/>
     <use xlink:href="#DejaVuSans-5b" transform="translate(299.951172 0)"/>
     <use xlink:href="#DejaVuSans-72" transform="translate(338.964844 0)"/>
     <use xlink:href="#DejaVuSans-6f" transform="translate(377.828125 0)"/>
     <use xlink:href="#DejaVuSans-6f" transform="translate(439.009766 0)"/>
     <use xlink:href="#DejaVuSans-74" transform="translate(500.191406 0)"/>
     <use xlink:href="#DejaVuSans-20" transform="translate(539.400391 0)"/>
     <use xlink:href="#DejaVuSans-74" transform="translate(571.1875 0)"/>
     <use xlink:href="#DejaVuSans-6f" transform="translate(610.396484 0)"/>
     <use xlink:href="#DejaVuSans-20" transform="translate(671.578125 0)"/>
     <use xlink:href="#DejaVuSans-62" transform="translate(703.365234 0)"/>
     <use xlink:href="#DejaVuSans-72" transform="translate(766.841797 0)"/>
     <use xlink:href="#DejaVuSans-61" transform="translate(807.955078 0)"/>
     <use xlink:href="#DejaVuSans-6e" transform="translate(869.234375 0)"/>
     <use xlink:href="#DejaVuSans-63" transform="translate(932.613281 0)"/>
     <use xlink:href="#DejaVuSans-68" transform="translate(987.59375 0)"/>
     <use xlink:href="#DejaVuSans-5d" transform="translate(1050.972656 0)"/>
    </g>
   </g>
   <g id="legend_1">
    <g id="patch_7">
     <path d="M 99.274219 365.802375 
L 386.869531 365.802375 
Q 388.869531 365.802375 388.869531 363.802375 
L 388.869531 335.446125 
Q 388.869531 333.446125 386.869531 333.446125 
L 99.274219 333.446125 
Q 97.274219 333.446125 97.274219 335.446125 
L 97.274219 363.802375 
Q 97.274219 365.802375 99.274219 365.802375 
z
" style="fill: #4d4d4d; opacity: 0.5; stroke: #4d4d4d; stroke-linejoin: miter"/>
    </g>
    <g id="patch_8">
     <path d="M 97.274219 363.802375 
L 384.869531 363.802375 
Q 386.869531 363.802375 386.869531 361.802375 
L 386.869531 333.446125 
Q 386.869531 331.446125 384.869531 331.446125 
L 97.274219 331.446125 
Q 95.274219 331.446125 95.274219 333.446125 
L 95.274219 361.802375 
Q 95.274219 363.802375 97.274219 363.802375 
z
" style="fill: #ffffff; stroke: #cccccc; stroke-linejoin: miter"/>
    </g>
    <g id="line2d_24">
     <path d="M 99.274219 339.544562 
L 109.274219 339.544562 
L 119.274219 339.544562 
" style="fill: none; stroke: #1f77b4; stroke-opacity: 0.8; stroke-width: 1.5; stroke-linecap: square"/>
    </g>
    <g id="text_22">
     <!-- MPTT -->
     <g transform="translate(127.274219 343.044562) scale(0.1 -0.1)">
      <defs>
       <path id="DejaVuSans-50" d="M 1259 4147 
L 1259 2394 
L 2053 2394 
Q 2494 2394 2734 2622 
Q 2975 2850 2975 3272 
Q 2975 3691 2734 3919 
Q 2494 4147 2053 4147 
L 1259 4147 
z
M 628 4666 
L 2053 4666 
Q 2838 4666 3239 4311 
Q 3641 3956 3641 3272 
Q 3641 2581 3239 2228 
Q 2838 1875 2053 1875 
L 1259 1875 
L 1259 0 
L 628 0 
L 628 4666 
z
" transform="scale(0.015625)"/>
       <path id="DejaVuSans-54" d="M -19 4666 
L 3928 4666 
L 3928 4134 
L 2272 4134 
L 2272 0 
L 1638 0 
L 1638 4134 
L -19 4134 
L -19 4666 
z
" transform="scale(0.015625)"/>
      </defs>
      <use xlink:href="#DejaVuSans-4d"/>
      <use xlink:href="#DejaVuSans-50" transform="translate(86.279297 0)"/>
      <use xlink:href="#DejaVuSans-54" transform="translate(146.582031 0)"/>
      <use xlink:href="#DejaVuSans-54" transform="translate(205.916016 0)"/>
     </g>
    </g>
    <g id="line2d_25">
     <path d="M 99.274219 354.222687 
L 109.274219 354.222687 
L 119.274219 354.222687 
" style="fill: none; stroke: #ff7f0e; stroke-opacity: 0.8; stroke-width: 1.5; stroke-linecap: square"/>
    </g>
    <g id="text_23">
     <!-- tree -->
     <g transform="translate(127.274219 357.722687) scale(0.1 -0.1)">
      <use xlink:href="#DejaVuSans-74"/>
      <use xlink:href="#DejaVuSans-72" transform="translate(39.208984 0)"/>
      <use xlink:href="#DejaVuSans-65" transform="translate(78.072266 0)"/>
      <use xlink:href="#DejaVuSans-65" transform="translate(139.595703 0)"/>
     </g>
    </g>
    <g id="line2d_26">
     <path d="M 173.972656 339.544562 
L 183.972656 339.544562 
L 193.972656 339.544562 
" style="fill: none; stroke: #2ca02c; stroke-opacity: 0.8; stroke-width: 1.5; stroke-linecap: square"/>
    </g>
    <g id="text_24">
     <!-- treebeard AL -->
     <g transform="translate(201.972656 343.044562) scale(0.1 -0.1)">
      <defs>
       <path id="DejaVuSans-64" d="M 2906 2969 
L 2906 4863 
L 3481 4863 
L 3481 0 
L 2906 0 
L 2906 525 
Q 2725 213 2448 61 
Q 2172 -91 1784 -91 
Q 1150 -91 751 415 
Q 353 922 353 1747 
Q 353 2572 751 3078 
Q 1150 3584 1784 3584 
Q 2172 3584 2448 3432 
Q 2725 3281 2906 2969 
z
M 947 1747 
Q 947 1113 1208 752 
Q 1469 391 1925 391 
Q 2381 391 2643 752 
Q 2906 1113 2906 1747 
Q 2906 2381 2643 2742 
Q 2381 3103 1925 3103 
Q 1469 3103 1208 2742 
Q 947 2381 947 1747 
z
" transform="scale(0.015625)"/>
       <path id="DejaVuSans-4c" d="M 628 4666 
L 1259 4666 
L 1259 531 
L 3531 531 
L 3531 0 
L 628 0 
L 628 4666 
z
" transform="scale(0.015625)"/>
      </defs>
      <use xlink:href="#DejaVuSans-74"/>
      <use xlink:href="#DejaVuSans-72" transform="translate(39.208984 0)"/>
      <use xlink:href="#DejaVuSans-65" transform="translate(78.072266 0)"/>
      <use xlink:href="#DejaVuSans-65" transform="translate(139.595703 0)"/>
      <use xlink:href="#DejaVuSans-62" transform="translate(201.119141 0)"/>
      <use xlink:href="#DejaVuSans-65" transform="translate(264.595703 0)"/>
      <use xlink:href="#DejaVuSans-61" transform="translate(326.119141 0)"/>
      <use xlink:href="#DejaVuSans-72" transform="translate(387.398438 0)"/>
      <use xlink:href="#DejaVuSans-64" transform="translate(426.761719 0)"/>
      <use xlink:href="#DejaVuSans-20" transform="translate(490.238281 0)"/>
      <use xlink:href="#DejaVuSans-41" transform="translate(522.025391 0)"/>
      <use xlink:href="#DejaVuSans-4c" transform="translate(590.433594 0)"/>
     </g>
    </g>
    <g id="line2d_27">
     <path d="M 173.972656 354.222687 
L 183.972656 354.222687 
L 193.972656 354.222687 
" style="fill: none; stroke: #d62728; stroke-opacity: 0.8; stroke-width: 1.5; stroke-linecap: square"/>
    </g>
    <g id="text_25">
     <!-- treebeard MP -->
     <g transform="translate(201.972656 357.722687) scale(0.1 -0.1)">
      <use xlink:href="#DejaVuSans-74"/>
      <use xlink:href="#DejaVuSans-72" transform="translate(39.208984 0)"/>
      <use xlink:href="#DejaVuSans-65" transform="translate(78.072266 0)"/>
      <use xlink:href="#DejaVuSans-65" transform="translate(139.595703 0)"/>
      <use xlink:href="#DejaVuSans-62" transform="translate(201.119141 0)"/>
      <use xlink:href="#DejaVuSans-65" transform="translate(264.595703 0)"/>
      <use xlink:href="#DejaVuSans-61" transform="translate(326.119141 0)"/>
      <use xlink:href="#DejaVuSans-72" transform="translate(387.398438 0)"/>
      <use xlink:href="#DejaVuSans-64" transform="translate(426.761719 0)"/>
      <use xlink:href="#DejaVuSans-20" transform="translate(490.238281 0)"/>
      <use xlink:href="#DejaVuSans-4d" transform="translate(522.025391 0)"/>
      <use xlink:href="#DejaVuSans-50" transform="translate(608.304688 0)"/>
     </g>
    </g>
    <g id="line2d_28">
     <path d="M 288.835156 339.544562 
L 298.835156 339.544562 
L 308.835156 339.544562 
" style="fill: none; stroke: #9467bd; stroke-opacity: 0.8; stroke-width: 1.5; stroke-linecap: square"/>
    </g>
    <g id="text_26">
     <!-- treebeard NS -->
     <g transform="translate(316.835156 343.044562) scale(0.1 -0.1)">
      <defs>
       <path id="DejaVuSans-4e" d="M 628 4666 
L 1478 4666 
L 3547 763 
L 3547 4666 
L 4159 4666 
L 4159 0 
L 3309 0 
L 1241 3903 
L 1241 0 
L 628 0 
L 628 4666 
z
" transform="scale(0.015625)"/>
       <path id="DejaVuSans-53" d="M 3425 4513 
L 3425 3897 
Q 3066 4069 2747 4153 
Q 2428 4238 2131 4238 
Q 1616 4238 1336 4038 
Q 1056 3838 1056 3469 
Q 1056 3159 1242 3001 
Q 1428 2844 1947 2747 
L 2328 2669 
Q 3034 2534 3370 2195 
Q 3706 1856 3706 1288 
Q 3706 609 3251 259 
Q 2797 -91 1919 -91 
Q 1588 -91 1214 -16 
Q 841 59 441 206 
L 441 856 
Q 825 641 1194 531 
Q 1563 422 1919 422 
Q 2459 422 2753 634 
Q 3047 847 3047 1241 
Q 3047 1584 2836 1778 
Q 2625 1972 2144 2069 
L 1759 2144 
Q 1053 2284 737 2584 
Q 422 2884 422 3419 
Q 422 4038 858 4394 
Q 1294 4750 2059 4750 
Q 2388 4750 2728 4690 
Q 3069 4631 3425 4513 
z
" transform="scale(0.015625)"/>
      </defs>
      <use xlink:href="#DejaVuSans-74"/>
      <use xlink:href="#DejaVuSans-72" transform="translate(39.208984 0)"/>
      <use xlink:href="#DejaVuSans-65" transform="translate(78.072266 0)"/>
      <use xlink:href="#DejaVuSans-65" transform="translate(139.595703 0)"/>
      <use xlink:href="#DejaVuSans-62" transform="translate(201.119141 0)"/>
      <use xlink:href="#DejaVuSans-65" transform="translate(264.595703 0)"/>
      <use xlink:href="#DejaVuSans-61" transform="translate(326.119141 0)"/>
      <use xlink:href="#DejaVuSans-72" transform="translate(387.398438 0)"/>
      <use xlink:href="#DejaVuSans-64" transform="translate(426.761719 0)"/>
      <use xlink:href="#DejaVuSans-20" transform="translate(490.238281 0)"/>
      <use xlink:href="#DejaVuSans-4e" transform="translate(522.025391 0)"/>
      <use xlink:href="#DejaVuSans-53" transform="translate(596.830078 0)"/>
     </g>
    </g>
   </g>
  </g>
 </g>
 <defs>
  <clipPath id="p40713fd794">
   <rect x="68.271875" y="22.318125" width="357.12" height="266.112"/>
  </clipPath>
 </defs>
</svg>
