<?xml version="1.0" encoding="utf-8" standalone="no"?>
<!DOCTYPE svg PUBLIC "-//W3C//DTD SVG 1.1//EN"
  "http://www.w3.org/Graphics/SVG/1.1/DTD/svg11.dtd">
<svg xmlns:xlink="http://www.w3.org/1999/xlink" width="426.035625pt" height="371.002375pt" viewBox="0 0 426.035625 371.002375" xmlns="http://www.w3.org/2000/svg" version="1.1">
 <metadata>
  <rdf:RDF xmlns:dc="http://purl.org/dc/elements/1.1/" xmlns:cc="http://creativecommons.org/ns#" xmlns:rdf="http://www.w3.org/1999/02/22-rdf-syntax-ns#">
   <cc:Work>
    <dc:type rdf:resource="http://purl.org/dc/dcmitype/StillImage"/>
    <dc:date>2026-06-28T18:00:22.413527</dc:date>
    <dc:format>image/svg+xml</dc:format>
    <dc:creator>
     <cc:Agent>
      <dc:title>Matplotlib v3.10.6, https://matplotlib.org/</dc:title>
     </cc:Agent>
    </dc:creator>
   </cc:Work>
  </rdf:RDF>
 </metadata>
 <defs>
  <style type="text/css">*{stroke-linejoin: round; stroke-linecap: butt}</style>
 </defs>
 <g id="figure_1">
  <g id="patch_1">
   <path d="M 0 371.002375 
L 426.035625 371.002375 
L 426.035625 0 
L 0 0 
z
" style="fill: #ffffff"/>
  </g>
  <g id="axes_1">
   <g id="patch_2">
    <path d="M 61.715625 288.430125 
L 418.835625 288.430125 
L 418.835625 22.318125 
L 61.715625 22.318125 
z
" style="fill: #ffffff"/>
   </g>
   <g id="matplotlib.axis_1">
    <g id="xtick_1">
     <g id="line2d_1">
      <defs>
       <path id="m17996317cd" d="M 0 0 
L 0 3.5 
" style="stroke: #000000; stroke-width: 0.8"/>
      </defs>
      <g>
       <use xlink:href="#m17996317cd" x="61.715625" y="288.430125" style="stroke: #000000; stroke-width: 0.8"/>
      </g>
     </g>
     <g id="text_1">
      <!-- 0 -->
      <g transform="translate(58.534375 303.028562) scale(0.1 -0.1)">
       <defs>
        <path id="DejaVuSans-30" d="M 2034 4250 
Q 1547 4250 1301 3770 
Q 1056 3291 1056 2328 
Q 1056 1369 1301 889 
Q 1547 409 2034 409 
Q 2525 409 2770 889 
Q 3016 1369 3016 2328 
Q 3016 3291 2770 3770 
Q 2525 4250 2034 4250 
z
M 2034 4750 
Q 2819 4750 3233 4129 
Q 3647 3509 3647 2328 
Q 3647 1150 3233 529 
Q 2819 -91 2034 -91 
Q 1250 -91 836 529 
Q 422 1150 422 2328 
Q 422 3509 836 4129 
Q 1250 4750 2034 4750 
z
" transform="scale(0.015625)"/>
       </defs>
       <use xlink:href="#DejaVuSans-30"/>
      </g>
     </g>
    </g>
    <g id="xtick_2">
     <g id="line2d_2">
      <g>
       <use xlink:href="#m17996317cd" x="105.264189" y="288.430125" style="stroke: #000000; stroke-width: 0.8"/>
      </g>
     </g>
     <g id="text_2">
      <!-- 500  -->
      <g transform="translate(94.131377 303.028562) scale(0.1 -0.1)">
       <defs>
        <path id="DejaVuSans-35" d="M 691 4666 
L 3169 4666 
L 3169 4134 
L 1269 4134 
L 1269 2991 
Q 1406 3038 1543 3061 
Q 1681 3084 1819 3084 
Q 2600 3084 3056 2656 
Q 3513 2228 3513 1497 
Q 3513 744 3044 326 
Q 2575 -91 1722 -91 
Q 1428 -91 1123 -41 
Q 819 9 494 109 
L 494 744 
Q 775 591 1075 516 
Q 1375 441 1709 441 
Q 2250 441 2565 725 
Q 2881 1009 2881 1497 
Q 2881 1984 2565 2268 
Q 2250 2553 1709 2553 
Q 1456 2553 1204 2497 
Q 953 2441 691 2322 
L 691 4666 
z
" transform="scale(0.015625)"/>
        <path id="DejaVuSans-20" transform="scale(0.015625)"/>
       </defs>
       <use xlink:href="#DejaVuSans-35"/>
       <use xlink:href="#DejaVuSans-30" transform="translate(63.623047 0)"/>
       <use xlink:href="#DejaVuSans-30" transform="translate(127.246094 0)"/>
       <use xlink:href="#DejaVuSans-20" transform="translate(190.869141 0)"/>
      </g>
     </g>
    </g>
    <g id="xtick_3">
     <g id="line2d_3">
      <g>
       <use xlink:href="#m17996317cd" x="148.812753" y="288.430125" style="stroke: #000000; stroke-width: 0.8"/>
      </g>
     </g>
     <g id="text_3">
      <!-- 1 k -->
      <g transform="translate(141.147128 303.028562) scale(0.1 -0.1)">
       <defs>
        <path id="DejaVuSans-31" d="M 794 531 
L 1825 531 
L 1825 4091 
L 703 3866 
L 703 4441 
L 1819 4666 
L 2450 4666 
L 2450 531 
L 3481 531 
L 3481 0 
L 794 0 
L 794 531 
z
" transform="scale(0.015625)"/>
        <path id="DejaVuSans-6b" d="M 581 4863 
L 1159 4863 
L 1159 1991 
L 2875 3500 
L 3609 3500 
L 1753 1863 
L 3688 0 
L 2938 0 
L 1159 1709 
L 1159 0 
L 581 0 
L 581 4863 
z
" transform="scale(0.015625)"/>
       </defs>
       <use xlink:href="#DejaVuSans-31"/>
       <use xlink:href="#DejaVuSans-20" transform="translate(63.623047 0)"/>
       <use xlink:href="#DejaVuSans-6b" transform="translate(95.410156 0)"/>
      </g>
     </g>
    </g>
    <g id="xtick_4">
     <g id="line2d_4">
      <g>
       <use xlink:href="#m17996317cd" x="192.361317" y="288.430125" style="stroke: #000000; stroke-width: 0.8"/>
      </g>
     </g>
     <g id="text_4">
      <!-- 1.5 k -->
      <g transform="translate(179.92538 303.028562) scale(0.1 -0.1)">
       <defs>
        <path id="DejaVuSans-2e" d="M 684 794 
L 1344 794 
L 1344 0 
L 684 0 
L 684 794 
z
" transform="scale(0.015625)"/>
       </defs>
       <use xlink:href="#DejaVuSans-31"/>
       <use xlink:href="#DejaVuSans-2e" transform="translate(63.623047 0)"/>
       <use xlink:href="#DejaVuSans-35" transform="translate(95.410156 0)"/>
       <use xlink:href="#DejaVuSans-20" transform="translate(159.033203 0)"/>
       <use xlink:href="#DejaVuSans-6b" transform="translate(190.820312 0)"/>
      </g>
     </g>
    </g>
    <g id="xtick_5">
     <g id="line2d_5">
      <g>
       <use xlink:href="#m17996317cd" x="235.909881" y="288.430125" style="stroke: #000000; stroke-width: 0.8"/>
      </g>
     </g>
     <g id="text_5">
      <!-- 2 k -->
      <g transform="translate(228.244256 303.028562) scale(0.1 -0.1)">
       <defs>
        <path id="DejaVuSans-32" d="M 1228 531 
L 3431 531 
L 3431 0 
L 469 0 
L 469 531 
Q 828 903 1448 1529 
Q 2069 2156 2228 2338 
Q 2531 2678 2651 2914 
Q 2772 3150 2772 3378 
Q 2772 3750 2511 3984 
Q 2250 4219 1831 4219 
Q 1534 4219 1204 4116 
Q 875 4013 500 3803 
L 500 4441 
Q 881 4594 1212 4672 
Q 1544 4750 1819 4750 
Q 2544 4750 2975 4387 
Q 3406 4025 3406 3419 
Q 3406 3131 3298 2873 
Q 3191 2616 2906 2266 
Q 2828 2175 2409 1742 
Q 1991 1309 1228 531 
z
" transform="scale(0.015625)"/>
       </defs>
       <use xlink:href="#DejaVuSans-32"/>
       <use xlink:href="#DejaVuSans-20" transform="translate(63.623047 0)"/>
       <use xlink:href="#DejaVuSans-6b" transform="translate(95.410156 0)"/>
      </g>
     </g>
    </g>
    <g id="xtick_6">
     <g id="line2d_6">
      <g>
       <use xlink:href="#m17996317cd" x="279.458446" y="288.430125" style="stroke: #000000; stroke-width: 0.8"/>
      </g>
     </g>
     <g id="text_6">
      <!-- 2.5 k -->
      <g transform="translate(267.022508 303.028562) scale(0.1 -0.1)">
       <use xlink:href="#DejaVuSans-32"/>
       <use xlink:href="#DejaVuSans-2e" transform="translate(63.623047 0)"/>
       <use xlink:href="#DejaVuSans-35" transform="translate(95.410156 0)"/>
       <use xlink:href="#DejaVuSans-20" transform="translate(159.033203 0)"/>
       <use xlink:href="#DejaVuSans-6b" transform="translate(190.820312 0)"/>
      </g>
     </g>
    </g>
    <g id="xtick_7">
     <g id="line2d_7">
      <g>
       <use xlink:href="#m17996317cd" x="323.00701" y="288.430125" style="stroke: #000000; stroke-width: 0.8"/>
      </g>
     </g>
     <g id="text_7">
      <!-- 3 k -->
      <g transform="translate(315.341385 303.028562) scale(0.1 -0.1)">
       <defs>
        <path id="DejaVuSans-33" d="M 2597 2516 
Q 3050 2419 3304 2112 
Q 3559 1806 3559 1356 
Q 3559 666 3084 287 
Q 2609 -91 1734 -91 
Q 1441 -91 1130 -33 
Q 819 25 488 141 
L 488 750 
Q 750 597 1062 519 
Q 1375 441 1716 441 
Q 2309 441 2620 675 
Q 2931 909 2931 1356 
Q 2931 1769 2642 2001 
Q 2353 2234 1838 2234 
L 1294 2234 
L 1294 2753 
L 1863 2753 
Q 2328 2753 2575 2939 
Q 2822 3125 2822 3475 
Q 2822 3834 2567 4026 
Q 2313 4219 1838 4219 
Q 1578 4219 1281 4162 
Q 984 4106 628 3988 
L 628 4550 
Q 988 4650 1302 4700 
Q 1616 4750 1894 4750 
Q 2613 4750 3031 4423 
Q 3450 4097 3450 3541 
Q 3450 3153 3228 2886 
Q 3006 2619 2597 2516 
z
" transform="scale(0.015625)"/>
       </defs>
       <use xlink:href="#DejaVuSans-33"/>
       <use xlink:href="#DejaVuSans-20" transform="translate(63.623047 0)"/>
       <use xlink:href="#DejaVuSans-6b" transform="translate(95.410156 0)"/>
      </g>
     </g>
    </g>
    <g id="xtick_8">
     <g id="line2d_8">
      <g>
       <use xlink:href="#m17996317cd" x="366.555574" y="288.430125" style="stroke: #000000; stroke-width: 0.8"/>
      </g>
     </g>
     <g id="text_8">
      <!-- 3.5 k -->
      <g transform="translate(354.119636 303.028562) scale(0.1 -0.1)">
       <use xlink:href="#DejaVuSans-33"/>
       <use xlink:href="#DejaVuSans-2e" transform="translate(63.623047 0)"/>
       <use xlink:href="#DejaVuSans-35" transform="translate(95.410156 0)"/>
       <use xlink:href="#DejaVuSans-20" transform="translate(159.033203 0)"/>
       <use xlink:href="#DejaVuSans-6b" transform="translate(190.820312 0)"/>
      </g>
     </g>
    </g>
    <g id="xtick_9">
     <g id="line2d_9">
      <g>
       <use xlink:href="#m17996317cd" x="410.104138" y="288.430125" style="stroke: #000000; stroke-width: 0.8"/>
      </g>
     </g>
     <g id="text_9">
      <!-- 4 k -->
      <g transform="translate(402.438513 303.028562) scale(0.1 -0.1)">
       <defs>
        <path id="DejaVuSans-34" d="M 2419 4116 
L 825 1625 
L 2419 1625 
L 2419 4116 
z
M 2253 4666 
L 3047 4666 
L 3047 1625 
L 3713 1625 
L 3713 1100 
L 3047 1100 
L 3047 0 
L 2419 0 
L 2419 1100 
L 313 1100 
L 313 1709 
L 2253 4666 
z
" transform="scale(0.015625)"/>
       </defs>
       <use xlink:href="#DejaVuSans-34"/>
       <use xlink:href="#DejaVuSans-20" transform="translate(63.623047 0)"/>
       <use xlink:href="#DejaVuSans-6b" transform="translate(95.410156 0)"/>
      </g>
     </g>
    </g>
    <g id="text_10">
     <!-- Amount of objects in table -->
     <g transform="translate(174.217031 316.706687) scale(0.1 -0.1)">
      <defs>
       <path id="DejaVuSans-41" d="M 2188 4044 
L 1331 1722 
L 3047 1722 
L 2188 4044 
z
M 1831 4666 
L 2547 4666 
L 4325 0 
L 3669 0 
L 3244 1197 
L 1141 1197 
L 716 0 
L 50 0 
L 1831 4666 
z
" transform="scale(0.015625)"/>
       <path id="DejaVuSans-6d" d="M 3328 2828 
Q 3544 3216 3844 3400 
Q 4144 3584 4550 3584 
Q 5097 3584 5394 3201 
Q 5691 2819 5691 2113 
L 5691 0 
L 5113 0 
L 5113 2094 
Q 5113 2597 4934 2840 
Q 4756 3084 4391 3084 
Q 3944 3084 3684 2787 
Q 3425 2491 3425 1978 
L 3425 0 
L 2847 0 
L 2847 2094 
Q 2847 2600 2669 2842 
Q 2491 3084 2119 3084 
Q 1678 3084 1418 2786 
Q 1159 2488 1159 1978 
L 1159 0 
L 581 0 
L 581 3500 
L 1159 3500 
L 1159 2956 
Q 1356 3278 1631 3431 
Q 1906 3584 2284 3584 
Q 2666 3584 2933 3390 
Q 3200 3197 3328 2828 
z
" transform="scale(0.015625)"/>
       <path id="DejaVuSans-6f" d="M 1959 3097 
Q 1497 3097 1228 2736 
Q 959 2375 959 1747 
Q 959 1119 1226 758 
Q 1494 397 1959 397 
Q 2419 397 2687 759 
Q 2956 1122 2956 1747 
Q 2956 2369 2687 2733 
Q 2419 3097 1959 3097 
z
M 1959 3584 
Q 2709 3584 3137 3096 
Q 3566 2609 3566 1747 
Q 3566 888 3137 398 
Q 2709 -91 1959 -91 
Q 1206 -91 779 398 
Q 353 888 353 1747 
Q 353 2609 779 3096 
Q 1206 3584 1959 3584 
z
" transform="scale(0.015625)"/>
       <path id="DejaVuSans-75" d="M 544 1381 
L 544 3500 
L 1119 3500 
L 1119 1403 
Q 1119 906 1312 657 
Q 1506 409 1894 409 
Q 2359 409 2629 706 
Q 2900 1003 2900 1516 
L 2900 3500 
L 3475 3500 
L 3475 0 
L 2900 0 
L 2900 538 
Q 2691 219 2414 64 
Q 2138 -91 1772 -91 
Q 1169 -91 856 284 
Q 544 659 544 1381 
z
M 1991 3584 
L 1991 3584 
z
" transform="scale(0.015625)"/>
       <path id="DejaVuSans-6e" d="M 3513 2113 
L 3513 0 
L 2938 0 
L 2938 2094 
Q 2938 2591 2744 2837 
Q 2550 3084 2163 3084 
Q 1697 3084 1428 2787 
Q 1159 2491 1159 1978 
L 1159 0 
L 581 0 
L 581 3500 
L 1159 3500 
L 1159 2956 
Q 1366 3272 1645 3428 
Q 1925 3584 2291 3584 
Q 2894 3584 3203 3211 
Q 3513 2838 3513 2113 
z
" transform="scale(0.015625)"/>
       <path id="DejaVuSans-74" d="M 1172 4494 
L 1172 3500 
L 2356 3500 
L 2356 3053 
L 1172 3053 
L 1172 1153 
Q 1172 725 1289 603 
Q 1406 481 1766 481 
L 2356 481 
L 2356 0 
L 1766 0 
Q 1100 0 847 248 
Q 594 497 594 1153 
L 594 3053 
L 172 3053 
L 172 3500 
L 594 3500 
L 594 4494 
L 1172 4494 
z
" transform="scale(0.015625)"/>
       <path id="DejaVuSans-66" d="M 2375 4863 
L 2375 4384 
L 1825 4384 
Q 1516 4384 1395 4259 
Q 1275 4134 1275 3809 
L 1275 3500 
L 2222 3500 
L 2222 3053 
L 1275 3053 
L 1275 0 
L 697 0 
L 697 3053 
L 147 3053 
L 147 3500 
L 697 3500 
L 697 3744 
Q 697 4328 969 4595 
Q 1241 4863 1831 4863 
L 2375 4863 
z
" transform="scale(0.015625)"/>
       <path id="DejaVuSans-62" d="M 3116 1747 
Q 3116 2381 2855 2742 
Q 2594 3103 2138 3103 
Q 1681 3103 1420 2742 
Q 1159 2381 1159 1747 
Q 1159 1113 1420 752 
Q 1681 391 2138 391 
Q 2594 391 2855 752 
Q 3116 1113 3116 1747 
z
M 1159 2969 
Q 1341 3281 1617 3432 
Q 1894 3584 2278 3584 
Q 2916 3584 3314 3078 
Q 3713 2572 3713 1747 
Q 3713 922 3314 415 
Q 2916 -91 2278 -91 
Q 1894 -91 1617 61 
Q 1341 213 1159 525 
L 1159 0 
L 581 0 
L 581 4863 
L 1159 4863 
L 1159 2969 
z
" transform="scale(0.015625)"/>
       <path id="DejaVuSans-6a" d="M 603 3500 
L 1178 3500 
L 1178 -63 
Q 1178 -731 923 -1031 
Q 669 -1331 103 -1331 
L -116 -1331 
L -116 -844 
L 38 -844 
Q 366 -844 484 -692 
Q 603 -541 603 -63 
L 603 3500 
z
M 603 4863 
L 1178 4863 
L 1178 4134 
L 603 4134 
L 603 4863 
z
" transform="scale(0.015625)"/>
       <path id="DejaVuSans-65" d="M 3597 1894 
L 3597 1613 
L 953 1613 
Q 991 1019 1311 708 
Q 1631 397 2203 397 
Q 2534 397 2845 478 
Q 3156 559 3463 722 
L 3463 178 
Q 3153 47 2828 -22 
Q 2503 -91 2169 -91 
Q 1331 -91 842 396 
Q 353 884 353 1716 
Q 353 2575 817 3079 
Q 1281 3584 2069 3584 
Q 2775 3584 3186 3129 
Q 3597 2675 3597 1894 
z
M 3022 2063 
Q 3016 2534 2758 2815 
Q 2500 3097 2075 3097 
Q 1594 3097 1305 2825 
Q 1016 2553 972 2059 
L 3022 2063 
z
" transform="scale(0.015625)"/>
       <path id="DejaVuSans-63" d="M 3122 3366 
L 3122 2828 
Q 2878 2963 2633 3030 
Q 2388 3097 2138 3097 
Q 1578 3097 1268 2742 
Q 959 2388 959 1747 
Q 959 1106 1268 751 
Q 1578 397 2138 397 
Q 2388 397 2633 464 
Q 2878 531 3122 666 
L 3122 134 
Q 2881 22 2623 -34 
Q 2366 -91 2075 -91 
Q 1284 -91 818 406 
Q 353 903 353 1747 
Q 353 2603 823 3093 
Q 1294 3584 2113 3584 
Q 2378 3584 2631 3529 
Q 2884 3475 3122 3366 
z
" transform="scale(0.015625)"/>
       <path id="DejaVuSans-73" d="M 2834 3397 
L 2834 2853 
Q 2591 2978 2328 3040 
Q 2066 3103 1784 3103 
Q 1356 3103 1142 2972 
Q 928 2841 928 2578 
Q 928 2378 1081 2264 
Q 1234 2150 1697 2047 
L 1894 2003 
Q 2506 1872 2764 1633 
Q 3022 1394 3022 966 
Q 3022 478 2636 193 
Q 2250 -91 1575 -91 
Q 1294 -91 989 -36 
Q 684 19 347 128 
L 347 722 
Q 666 556 975 473 
Q 1284 391 1588 391 
Q 1994 391 2212 530 
Q 2431 669 2431 922 
Q 2431 1156 2273 1281 
Q 2116 1406 1581 1522 
L 1381 1569 
Q 847 1681 609 1914 
Q 372 2147 372 2553 
Q 372 3047 722 3315 
Q 1072 3584 1716 3584 
Q 2034 3584 2315 3537 
Q 2597 3491 2834 3397 
z
" transform="scale(0.015625)"/>
       <path id="DejaVuSans-69" d="M 603 3500 
L 1178 3500 
L 1178 0 
L 603 0 
L 603 3500 
z
M 603 4863 
L 1178 4863 
L 1178 4134 
L 603 4134 
L 603 4863 
z
" transform="scale(0.015625)"/>
       <path id="DejaVuSans-61" d="M 2194 1759 
Q 1497 1759 1228 1600 
Q 959 1441 959 1056 
Q 959 750 1161 570 
Q 1363 391 1709 391 
Q 2188 391 2477 730 
Q 2766 1069 2766 1631 
L 2766 1759 
L 2194 1759 
z
M 3341 1997 
L 3341 0 
L 2766 0 
L 2766 531 
Q 2569 213 2275 61 
Q 1981 -91 1556 -91 
Q 1019 -91 701 211 
Q 384 513 384 1019 
Q 384 1609 779 1909 
Q 1175 2209 1959 2209 
L 2766 2209 
L 2766 2266 
Q 2766 2663 2505 2880 
Q 2244 3097 1772 3097 
Q 1472 3097 1187 3025 
Q 903 2953 641 2809 
L 641 3341 
Q 956 3463 1253 3523 
Q 1550 3584 1831 3584 
Q 2591 3584 2966 3190 
Q 3341 2797 3341 1997 
z
" transform="scale(0.015625)"/>
       <path id="DejaVuSans-6c" d="M 603 4863 
L 1178 4863 
L 1178 0 
L 603 0 
L 603 4863 
z
" transform="scale(0.015625)"/>
      </defs>
      <use xlink:href="#DejaVuSans-41"/>
      <use xlink:href="#DejaVuSans-6d" transform="translate(68.408203 0)"/>
      <use xlink:href="#DejaVuSans-6f" transform="translate(165.820312 0)"/>
      <use xlink:href="#DejaVuSans-75" transform="translate(227.001953 0)"/>
      <use xlink:href="#DejaVuSans-6e" transform="translate(290.380859 0)"/>
      <use xlink:href="#DejaVuSans-74" transform="translate(353.759766 0)"/>
      <use xlink:href="#DejaVuSans-20" transform="translate(392.96875 0)"/>
      <use xlink:href="#DejaVuSans-6f" transform="translate(424.755859 0)"/>
      <use xlink:href="#DejaVuSans-66" transform="translate(485.9375 0)"/>
      <use xlink:href="#DejaVuSans-20" transform="translate(521.142578 0)"/>
      <use xlink:href="#DejaVuSans-6f" transform="translate(552.929688 0)"/>
      <use xlink:href="#DejaVuSans-62" transform="translate(614.111328 0)"/>
      <use xlink:href="#DejaVuSans-6a" transform="translate(677.587891 0)"/>
      <use xlink:href="#DejaVuSans-65" transform="translate(705.371094 0)"/>
      <use xlink:href="#DejaVuSans-63" transform="translate(766.894531 0)"/>
      <use xlink:href="#DejaVuSans-74" transform="translate(821.875 0)"/>
      <use xlink:href="#DejaVuSans-73" transform="translate(861.083984 0)"/>
      <use xlink:href="#DejaVuSans-20" transform="translate(913.183594 0)"/>
      <use xlink:href="#DejaVuSans-69" transform="translate(944.970703 0)"/>
      <use xlink:href="#DejaVuSans-6e" transform="translate(972.753906 0)"/>
      <use xlink:href="#DejaVuSans-20" transform="translate(1036.132812 0)"/>
      <use xlink:href="#DejaVuSans-74" transform="translate(1067.919922 0)"/>
      <use xlink:href="#DejaVuSans-61" transform="translate(1107.128906 0)"/>
      <use xlink:href="#DejaVuSans-62" transform="translate(1168.408203 0)"/>
      <use xlink:href="#DejaVuSans-6c" transform="translate(1231.884766 0)"/>
      <use xlink:href="#DejaVuSans-65" transform="translate(1259.667969 0)"/>
     </g>
    </g>
   </g>
   <g id="matplotlib.axis_2">
    <g id="ytick_1">
     <g id="line2d_10">
      <defs>
       <path id="m77ca0a59a6" d="M 0 0 
L -3.5 0 
" style="stroke: #000000; stroke-width: 0.8"/>
      </defs>
      <g>
       <use xlink:href="#m77ca0a59a6" x="61.715625" y="288.430125" style="stroke: #000000; stroke-width: 0.8"/>
      </g>
     </g>
     <g id="text_11">
      <!-- 0 -->
      <g transform="translate(48.353125 292.229344) scale(0.1 -0.1)">
       <use xlink:href="#DejaVuSans-30"/>
      </g>
     </g>
    </g>
    <g id="ytick_2">
     <g id="line2d_11">
      <g>
       <use xlink:href="#m77ca0a59a6" x="61.715625" y="233.599704" style="stroke: #000000; stroke-width: 0.8"/>
      </g>
     </g>
     <g id="text_12">
      <!-- 100 µs -->
      <g transform="translate(20.878125 237.398923) scale(0.1 -0.1)">
       <defs>
        <path id="DejaVuSans-b5" d="M 544 -1331 
L 544 3500 
L 1119 3500 
L 1119 1325 
Q 1119 872 1334 640 
Q 1550 409 1972 409 
Q 2434 409 2667 671 
Q 2900 934 2900 1459 
L 2900 3500 
L 3475 3500 
L 3475 806 
Q 3475 619 3529 530 
Q 3584 441 3700 441 
Q 3728 441 3778 458 
Q 3828 475 3916 513 
L 3916 50 
Q 3788 -22 3673 -56 
Q 3559 -91 3450 -91 
Q 3234 -91 3106 31 
Q 2978 153 2931 403 
Q 2775 156 2548 32 
Q 2322 -91 2016 -91 
Q 1697 -91 1473 31 
Q 1250 153 1119 397 
L 1119 -1331 
L 544 -1331 
z
" transform="scale(0.015625)"/>
       </defs>
       <use xlink:href="#DejaVuSans-31"/>
       <use xlink:href="#DejaVuSans-30" transform="translate(63.623047 0)"/>
       <use xlink:href="#DejaVuSans-30" transform="translate(127.246094 0)"/>
       <use xlink:href="#DejaVuSans-20" transform="translate(190.869141 0)"/>
       <use xlink:href="#DejaVuSans-b5" transform="translate(222.65625 0)"/>
       <use xlink:href="#DejaVuSans-73" transform="translate(286.279297 0)"/>
      </g>
     </g>
    </g>
    <g id="ytick_3">
     <g id="line2d_12">
      <g>
       <use xlink:href="#m77ca0a59a6" x="61.715625" y="178.769283" style="stroke: #000000; stroke-width: 0.8"/>
      </g>
     </g>
     <g id="text_13">
      <!-- 200 µs -->
      <g transform="translate(20.878125 182.568501) scale(0.1 -0.1)">
       <use xlink:href="#DejaVuSans-32"/>
       <use xlink:href="#DejaVuSans-30" transform="translate(63.623047 0)"/>
       <use xlink:href="#DejaVuSans-30" transform="translate(127.246094 0)"/>
       <use xlink:href="#DejaVuSans-20" transform="translate(190.869141 0)"/>
       <use xlink:href="#DejaVuSans-b5" transform="translate(222.65625 0)"/>
       <use xlink:href="#DejaVuSans-73" transform="translate(286.279297 0)"/>
      </g>
     </g>
    </g>
    <g id="ytick_4">
     <g id="line2d_13">
      <g>
       <use xlink:href="#m77ca0a59a6" x="61.715625" y="123.938861" style="stroke: #000000; stroke-width: 0.8"/>
      </g>
     </g>
     <g id="text_14">
      <!-- 300 µs -->
      <g transform="translate(20.878125 127.73808) scale(0.1 -0.1)">
       <use xlink:href="#DejaVuSans-33"/>
       <use xlink:href="#DejaVuSans-30" transform="translate(63.623047 0)"/>
       <use xlink:href="#DejaVuSans-30" transform="translate(127.246094 0)"/>
       <use xlink:href="#DejaVuSans-20" transform="translate(190.869141 0)"/>
       <use xlink:href="#DejaVuSans-b5" transform="translate(222.65625 0)"/>
       <use xlink:href="#DejaVuSans-73" transform="translate(286.279297 0)"/>
      </g>
     </g>
    </g>
    <g id="ytick_5">
     <g id="line2d_14">
      <g>
       <use xlink:href="#m77ca0a59a6" x="61.715625" y="69.10844" style="stroke: #000000; stroke-width: 0.8"/>
      </g>
     </g>
     <g id="text_15">
      <!-- 400 µs -->
      <g transform="translate(20.878125 72.907659) scale(0.1 -0.1)">
       <use xlink:href="#DejaVuSans-34"/>
       <use xlink:href="#DejaVuSans-30" transform="translate(63.623047 0)"/>
       <use xlink:href="#DejaVuSans-30" transform="translate(127.246094 0)"/>
       <use xlink:href="#DejaVuSans-20" transform="translate(190.869141 0)"/>
       <use xlink:href="#DejaVuSans-b5" transform="translate(222.65625 0)"/>
       <use xlink:href="#DejaVuSans-73" transform="translate(286.279297 0)"/>
      </g>
     </g>
    </g>
    <g id="text_16">
     <!-- Read latency (s) -->
     <g transform="translate(14.798438 195.98975) rotate(-90) scale(0.1 -0.1)">
      <defs>
       <path id="DejaVuSans-52" d="M 2841 2188 
Q 3044 2119 3236 1894 
Q 3428 1669 3622 1275 
L 4263 0 
L 3584 0 
L 2988 1197 
Q 2756 1666 2539 1819 
Q 2322 1972 1947 1972 
L 1259 1972 
L 1259 0 
L 628 0 
L 628 4666 
L 2053 4666 
Q 2853 4666 3247 4331 
Q 3641 3997 3641 3322 
Q 3641 2881 3436 2590 
Q 3231 2300 2841 2188 
z
M 1259 4147 
L 1259 2491 
L 2053 2491 
Q 2509 2491 2742 2702 
Q 2975 2913 2975 3322 
Q 2975 3731 2742 3939 
Q 2509 4147 2053 4147 
L 1259 4147 
z
" transform="scale(0.015625)"/>
       <path id="DejaVuSans-64" d="M 2906 2969 
L 2906 4863 
L 3481 4863 
L 3481 0 
L 2906 0 
L 2906 525 
Q 2725 213 2448 61 
Q 2172 -91 1784 -91 
Q 1150 -91 751 415 
Q 353 922 353 1747 
Q 353 2572 751 3078 
Q 1150 3584 1784 3584 
Q 2172 3584 2448 3432 
Q 2725 3281 2906 2969 
z
M 947 1747 
Q 947 1113 1208 752 
Q 1469 391 1925 391 
Q 2381 391 2643 752 
Q 2906 1113 2906 1747 
Q 2906 2381 2643 2742 
Q 2381 3103 1925 3103 
Q 1469 3103 1208 2742 
Q 947 2381 947 1747 
z
" transform="scale(0.015625)"/>
       <path id="DejaVuSans-79" d="M 2059 -325 
Q 1816 -950 1584 -1140 
Q 1353 -1331 966 -1331 
L 506 -1331 
L 506 -850 
L 844 -850 
Q 1081 -850 1212 -737 
Q 1344 -625 1503 -206 
L 1606 56 
L 191 3500 
L 800 3500 
L 1894 763 
L 2988 3500 
L 3597 3500 
L 2059 -325 
z
" transform="scale(0.015625)"/>
       <path id="DejaVuSans-28" d="M 1984 4856 
Q 1566 4138 1362 3434 
Q 1159 2731 1159 2009 
Q 1159 1288 1364 580 
Q 1569 -128 1984 -844 
L 1484 -844 
Q 1016 -109 783 600 
Q 550 1309 550 2009 
Q 550 2706 781 3412 
Q 1013 4119 1484 4856 
L 1984 4856 
z
" transform="scale(0.015625)"/>
       <path id="DejaVuSans-29" d="M 513 4856 
L 1013 4856 
Q 1481 4119 1714 3412 
Q 1947 2706 1947 2009 
Q 1947 1309 1714 600 
Q 1481 -109 1013 -844 
L 513 -844 
Q 928 -128 1133 580 
Q 1338 1288 1338 2009 
Q 1338 2731 1133 3434 
Q 928 4138 513 4856 
z
" transform="scale(0.015625)"/>
      </defs>
      <use xlink:href="#DejaVuSans-52"/>
      <use xlink:href="#DejaVuSans-65" transform="translate(64.982422 0)"/>
      <use xlink:href="#DejaVuSans-61" transform="translate(126.505859 0)"/>
      <use xlink:href="#DejaVuSans-64" transform="translate(187.785156 0)"/>
      <use xlink:href="#DejaVuSans-20" transform="translate(251.261719 0)"/>
      <use xlink:href="#DejaVuSans-6c" transform="translate(283.048828 0)"/>
      <use xlink:href="#DejaVuSans-61" transform="translate(310.832031 0)"/>
      <use xlink:href="#DejaVuSans-74" transform="translate(372.111328 0)"/>
      <use xlink:href="#DejaVuSans-65" transform="translate(411.320312 0)"/>
      <use xlink:href="#DejaVuSans-6e" transform="translate(472.84375 0)"/>
      <use xlink:href="#DejaVuSans-63" transform="translate(536.222656 0)"/>
      <use xlink:href="#DejaVuSans-79" transform="translate(591.203125 0)"/>
      <use xlink:href="#DejaVuSans-20" transform="translate(650.382812 0)"/>
      <use xlink:href="#DejaVuSans-28" transform="translate(682.169922 0)"/>
      <use xlink:href="#DejaVuSans-73" transform="translate(721.183594 0)"/>
      <use xlink:href="#DejaVuSans-29" transform="translate(773.283203 0)"/>
     </g>
    </g>
   </g>
   <g id="line2d_15">
    <path d="M 147.070811 95.989517 
L 147.506296 96.200019 
L 147.941782 96.586163 
L 150.554696 99.932747 
L 151.425667 100.881347 
L 151.861153 100.544142 
L 152.296638 99.95621 
L 152.732124 100.453639 
L 153.16761 99.774535 
L 154.038581 100.3866 
L 154.909552 100.801571 
L 155.780523 100.867269 
L 156.651495 100.86861 
L 157.522466 100.893414 
L 158.393437 100.864588 
L 158.828923 100.878666 
L 159.264409 100.519337 
L 159.699894 100.554197 
L 161.006351 100.297438 
L 161.441837 101.105257 
L 162.312808 101.91911 
L 163.619265 104.091842 
L 164.490236 105.390386 
L 165.361208 106.660773 
L 166.232179 107.435743 
L 166.667665 107.821888 
L 167.10315 108.544567 
L 167.538636 110.431043 
L 167.974121 110.825232 
L 168.845093 112.073497 
L 169.280578 112.469697 
L 169.716064 113.252041 
L 170.587035 118.031246 
L 171.022521 119.524203 
L 171.458007 120.391016 
L 171.893492 120.806658 
L 174.07092 125.403517 
L 174.506406 125.780276 
L 176.683834 131.335792 
L 177.11932 132.022941 
L 177.554806 132.394337 
L 177.990291 132.964838 
L 178.425777 133.944947 
L 179.296748 136.632538 
L 179.732234 139.80549 
L 180.167719 140.514092 
L 181.038691 143.109839 
L 181.474176 142.622466 
L 181.909662 143.550285 
L 182.345148 143.314308 
L 183.216119 145.207487 
L 183.651605 147.050387 
L 184.08709 147.483459 
L 184.522576 148.228932 
L 185.393547 148.728372 
L 185.829033 148.681444 
L 186.264518 148.959656 
L 186.700004 151.196075 
L 187.13549 151.413281 
L 187.570975 151.44613 
L 188.441947 150.874288 
L 190.183889 152.526127 
L 190.619375 152.725233 
L 191.05486 152.477189 
L 191.490346 152.54892 
L 191.925832 154.005006 
L 192.361317 153.972827 
L 192.796803 154.348915 
L 193.232289 153.948023 
L 193.667774 153.137522 
L 194.10326 153.516962 
L 194.974231 156.661088 
L 195.409717 156.576619 
L 195.845202 156.614831 
L 196.716174 156.308463 
L 197.151659 155.697068 
L 197.587145 155.524108 
L 198.022631 153.206572 
L 198.458116 152.65216 
L 198.893602 152.82378 
L 199.764573 147.920553 
L 200.200059 145.696871 
L 200.635545 145.214191 
L 201.07103 147.07184 
L 201.506516 147.115415 
L 201.942001 146.860667 
L 202.377487 147.246811 
L 202.812973 147.182454 
L 203.248458 147.290387 
L 203.683944 147.653738 
L 204.554915 147.579324 
L 204.990401 147.86491 
L 205.425887 147.249493 
L 205.861372 147.197873 
L 206.732343 147.65843 
L 207.603315 147.473403 
L 208.909772 147.302454 
L 209.345257 147.533068 
L 209.780743 147.489492 
L 210.216229 147.105359 
L 210.651714 147.194521 
L 211.522686 147.714743 
L 211.958171 148.153178 
L 212.829142 147.356755 
L 213.264628 144.438551 
L 213.700114 143.695759 
L 214.571085 142.795426 
L 215.006571 142.745818 
L 215.877542 141.261576 
L 216.313028 140.439008 
L 216.748513 139.022476 
L 217.183999 138.098009 
L 217.619485 137.490636 
L 218.490456 135.679915 
L 218.925941 134.779582 
L 219.361427 133.234334 
L 221.538855 128.840603 
L 222.845312 127.145859 
L 223.280798 126.005527 
L 223.716283 125.51212 
L 224.151769 124.611787 
L 225.02274 123.175814 
L 225.458226 121.647326 
L 225.893712 120.830792 
L 226.764683 117.051137 
L 227.200169 116.277508 
L 227.635654 115.91952 
L 228.07114 114.443993 
L 228.506626 110.65093 
L 228.942111 108.567361 
L 229.377597 107.974736 
L 229.813082 107.132057 
L 230.248568 106.616528 
L 230.684054 105.745022 
L 231.119539 105.235526 
L 232.425996 102.376986 
L 233.296968 100.810956 
L 234.167939 99.204033 
L 234.603425 98.673085 
L 236.345367 95.312424 
L 237.216338 95.346613 
L 237.651824 94.439577 
L 238.08731 94.503264 
L 238.522795 93.592875 
L 238.958281 92.020812 
L 239.393767 91.366512 
L 239.829252 90.468191 
L 240.264738 88.914228 
L 240.700224 87.933449 
L 241.135709 87.252333 
L 241.571195 86.308425 
L 242.442166 83.704633 
L 243.748623 81.135031 
L 244.184109 81.041176 
L 244.619594 80.194475 
L 245.05508 79.712465 
L 246.361537 77.677163 
L 246.797022 77.099958 
L 250.716393 68.398975 
L 251.151879 68.022216 
L 251.587365 67.191604 
L 253.329307 64.866694 
L 253.764793 63.743792 
L 254.200278 63.241 
L 256.377707 59.009503 
L 256.813192 58.306935 
L 258.555135 54.75052 
L 259.426106 53.331306 
L 259.861592 52.156784 
L 260.297077 49.475226 
L 261.168049 48.41333 
L 261.603534 47.574673 
L 262.474506 46.29557 
L 263.780962 43.656247 
L 264.216448 43.038819 
L 265.087419 41.002176 
L 265.958391 39.161958 
L 266.393876 39.633241 
L 266.829362 38.917265 
L 267.264848 39.615141 
L 269.442276 35.425878 
L 269.877761 35.494258 
L 270.313247 35.781184 
L 270.748733 35.534481 
L 271.184218 35.777832 
L 271.619704 35.87638 
L 272.926161 35.645766 
L 273.361647 35.835486 
L 273.797132 35.355487 
L 274.232618 35.248225 
L 274.668104 35.568671 
L 275.103589 35.346772 
L 275.539075 34.990125 
L 275.97456 35.350794 
L 276.410046 35.547218 
L 276.845532 35.319286 
L 277.281017 35.472135 
L 277.716503 35.209342 
L 278.151989 35.606883 
L 278.587474 36.682858 
L 279.458446 36.828332 
L 279.893931 37.670341 
L 280.329417 37.856039 
L 280.764902 37.727995 
L 281.200388 38.148999 
L 281.635874 37.956598 
L 282.071359 38.504976 
L 282.506845 38.868327 
L 282.942331 41.113461 
L 283.377816 41.809995 
L 283.813302 41.775135 
L 284.248788 44.856244 
L 285.119759 48.727072 
L 285.555245 48.743161 
L 285.99073 48.385844 
L 286.426216 45.507192 
L 287.297187 44.765071 
L 287.732673 44.811998 
L 288.168158 44.55591 
L 289.474615 44.482837 
L 289.910101 44.550547 
L 290.345587 44.744289 
L 291.652044 43.543622 
L 292.087529 43.536248 
L 292.523015 43.233232 
L 292.9585 43.21245 
L 293.393986 43.531555 
L 293.829472 43.599935 
L 294.700443 44.322614 
L 295.571414 44.535798 
L 296.0069 43.674348 
L 296.442386 43.305634 
L 296.877871 43.100495 
L 297.748842 43.116584 
L 298.184328 46.166855 
L 299.055299 47.210651 
L 300.361756 47.859588 
L 300.797242 47.84618 
L 301.668213 48.536681 
L 302.103699 48.485061 
L 302.97467 48.556793 
L 303.410156 48.368414 
L 303.845641 48.346291 
L 304.281127 49.290199 
L 305.587584 49.250646 
L 306.02307 49.455115 
L 306.458555 49.414891 
L 306.894041 49.261372 
L 307.765012 49.25802 
L 308.200498 49.367294 
L 309.506955 48.837016 
L 309.94244 49.220478 
L 310.377926 49.973326 
L 310.813412 47.305176 
L 311.248897 47.067188 
L 311.684383 48.361039 
L 312.119869 48.46562 
L 312.555354 48.232325 
L 312.99084 48.911429 
L 313.426326 52.171532 
L 313.861811 53.42516 
L 314.297297 53.179798 
L 315.168268 53.096669 
L 315.603754 53.328624 
L 316.039239 52.94248 
L 316.474725 52.744715 
L 316.910211 53.002815 
L 317.345696 52.687732 
L 317.781182 53.006837 
L 318.216668 52.935776 
L 318.652153 53.14896 
L 319.087639 52.510079 
L 319.523125 52.390079 
L 319.95861 52.439017 
L 320.394096 51.488405 
L 320.829581 51.536673 
L 321.265067 51.145166 
L 321.700553 50.244833 
L 322.571524 50.702039 
L 323.00701 51.180697 
L 323.442495 51.227624 
L 323.877981 51.963711 
L 324.313467 51.731757 
L 324.748952 51.694215 
L 325.184438 52.523486 
L 325.619924 53.019575 
L 326.055409 53.01153 
L 326.490895 52.611307 
L 327.361866 53.1322 
L 327.797352 53.629629 
L 328.232837 53.504936 
L 328.668323 53.590076 
L 329.103809 53.251529 
L 329.539294 53.219351 
L 329.97478 52.882145 
L 330.410266 53.119463 
L 331.281237 52.567732 
L 331.716722 52.119912 
L 332.152208 52.210415 
L 332.587694 51.969075 
L 333.458665 52.840581 
L 333.894151 53.164379 
L 334.329636 53.039016 
L 335.200608 53.224043 
L 335.636093 53.71745 
L 336.071579 53.369518 
L 336.507065 53.548512 
L 337.378036 53.443261 
L 338.249007 53.42449 
L 338.684493 53.622925 
L 339.119978 53.596109 
L 340.426435 54.848396 
L 340.861921 54.723704 
L 341.297407 54.715659 
L 341.732892 54.52728 
L 342.168378 54.947614 
L 342.603864 55.145379 
L 343.039349 55.558339 
L 343.474835 54.310744 
L 343.91032 54.541358 
L 344.345806 54.38985 
L 344.781292 54.666721 
L 345.216777 56.447275 
L 345.652263 56.299789 
L 346.087749 56.317219 
L 346.523234 56.615543 
L 346.95872 56.169734 
L 347.394206 56.138225 
L 348.265177 56.62761 
L 348.700662 56.488839 
L 349.136148 53.704042 
L 349.571634 54.084823 
L 350.878091 54.420018 
L 351.313576 54.318789 
L 351.749062 54.066723 
L 352.184548 53.675215 
L 352.620033 53.641696 
L 353.055519 52.127957 
L 353.92649 52.346504 
L 354.361976 52.725944 
L 355.232947 52.746056 
L 355.668433 51.365724 
L 356.103918 51.027848 
L 356.539404 51.053993 
L 356.97489 50.624274 
L 357.410375 50.466732 
L 357.845861 50.622933 
L 358.281347 50.533771 
L 358.716832 48.77467 
L 359.152318 49.06897 
L 359.587804 48.55076 
L 360.023289 48.393218 
L 360.458775 48.853105 
L 360.89426 48.696234 
L 362.200717 48.663385 
L 362.636203 48.663385 
L 363.071689 48.44886 
L 363.507174 48.555452 
L 363.94266 48.303386 
L 364.378146 48.411319 
L 365.249117 48.253777 
L 365.684603 48.436123 
L 366.120088 48.332213 
L 366.991059 48.766625 
L 367.426545 48.491765 
L 368.297516 48.937574 
L 368.733002 49.215115 
L 369.168488 49.231875 
L 369.603973 49.109864 
L 370.039459 49.221149 
L 370.474945 49.622712 
L 370.91043 49.444388 
L 371.345916 51.993879 
L 371.781401 52.328403 
L 372.216887 52.394772 
L 373.087858 51.91008 
L 373.523344 51.420026 
L 374.394315 51.179356 
L 374.829801 50.797904 
L 375.265287 51.140473 
L 375.700772 51.201479 
L 376.136258 51.453545 
L 377.007229 51.407959 
L 377.442715 51.938237 
L 377.8782 51.751198 
L 378.749172 50.901815 
L 379.184657 50.885055 
L 379.620143 50.565279 
L 380.055629 50.739581 
L 380.491114 50.507626 
L 380.9266 51.533321 
L 381.797571 52.25399 
L 382.233057 49.834555 
L 383.104028 49.261372 
L 383.539514 49.548299 
L 384.410485 49.359249 
L 384.845971 49.045507 
L 385.281456 45.975794 
L 385.716942 44.244179 
L 386.152428 41.640387 
L 386.587913 41.527091 
L 387.023399 41.786532 
L 387.458885 41.791895 
L 387.89437 41.92195 
L 388.329856 42.389212 
L 388.765341 42.549435 
L 389.200827 42.384519 
L 389.636313 42.568876 
L 390.507284 43.324405 
L 390.94277 43.479935 
L 392.249227 43.198371 
L 392.684712 42.938931 
L 393.120198 43.193679 
L 393.555684 43.115243 
L 393.991169 43.613342 
L 394.426655 42.037928 
L 394.86214 41.654465 
L 395.297626 41.595471 
L 395.733112 44.079933 
L 396.168597 45.300712 
L 396.604083 45.202165 
L 397.039569 45.462276 
L 397.475054 45.546075 
L 397.91054 45.776018 
L 398.346026 45.238366 
L 398.781511 45.182053 
L 400.087968 45.723728 
L 400.523454 45.605739 
L 400.958939 46.022051 
L 401.394425 46.60529 
L 401.829911 46.676351 
L 401.829911 46.676351 
" clip-path="url(#p97beaf6a4b)" style="fill: none; stroke: #1f77b4; stroke-opacity: 0.8; stroke-width: 1.5; stroke-linecap: square"/>
   </g>
   <g id="line2d_16">
    <path d="M 147.070811 124.129777 
L 147.506296 122.631457 
L 147.941782 122.210453 
L 148.377268 122.144084 
L 149.683725 122.697156 
L 150.11921 122.612016 
L 150.990181 121.734477 
L 151.425667 121.542075 
L 152.296638 120.696044 
L 152.732124 120.558614 
L 153.16761 120.765094 
L 153.603095 120.55191 
L 154.474067 119.487332 
L 154.909552 119.245321 
L 155.345038 118.736496 
L 157.08698 118.005771 
L 159.264409 118.935601 
L 159.699894 119.075042 
L 160.13538 118.541412 
L 160.570866 118.368452 
L 161.006351 117.907224 
L 161.441837 116.7803 
L 161.877322 116.667674 
L 162.748294 115.674828 
L 163.183779 115.426113 
L 164.490236 114.259636 
L 165.361208 113.553716 
L 166.667665 112.259865 
L 168.409607 111.048471 
L 168.845093 110.548361 
L 169.280578 110.524897 
L 171.022521 109.688251 
L 171.458007 109.820989 
L 172.328978 109.498531 
L 172.764463 109.189482 
L 173.635435 108.984343 
L 174.506406 108.986354 
L 174.941892 108.944119 
L 175.377377 109.458308 
L 175.812863 108.5144 
L 176.248349 108.277752 
L 177.554806 107.105912 
L 177.990291 106.959097 
L 178.425777 106.63798 
L 178.861262 106.592394 
L 179.296748 106.984571 
L 179.732234 106.869935 
L 180.167719 107.20647 
L 180.603205 106.801555 
L 181.909662 106.825689 
L 182.780633 106.790829 
L 183.216119 106.334294 
L 183.651605 106.408037 
L 184.08709 106.046697 
L 184.522576 106.32692 
L 184.958061 106.154629 
L 185.393547 106.282003 
L 185.829033 105.945468 
L 186.700004 106.670829 
L 188.006461 106.814293 
L 188.441947 106.288037 
L 188.877432 106.081557 
L 189.312918 105.594184 
L 189.748403 105.446028 
L 190.183889 105.433961 
L 190.619375 105.616307 
L 191.05486 106.237758 
L 191.490346 106.653399 
L 191.925832 106.808929 
L 192.796803 106.811611 
L 193.667774 105.986362 
L 194.10326 105.938094 
L 195.409717 105.498318 
L 195.845202 105.696754 
L 196.716174 104.935862 
L 197.151659 104.710611 
L 197.587145 104.781002 
L 198.022631 104.62346 
L 198.458116 104.761561 
L 199.329088 104.801114 
L 200.200059 105.304576 
L 201.942001 103.715753 
L 202.812973 103.632625 
L 203.248458 102.893856 
L 203.683944 103.310168 
L 204.11943 103.308157 
L 204.990401 102.993744 
L 205.861372 103.041342 
L 206.732343 103.041342 
L 207.167829 103.291397 
L 208.0388 103.312849 
L 208.474286 102.948828 
L 208.909772 102.910616 
L 209.345257 102.474192 
L 210.216229 103.070839 
L 210.651714 103.078883 
L 211.0872 103.394637 
L 211.522686 103.357095 
L 211.958171 103.569608 
L 212.393657 103.381899 
L 212.829142 102.812069 
L 213.264628 102.675979 
L 213.700114 102.990392 
L 214.135599 102.601566 
L 215.006571 102.144361 
L 215.442056 100.648722 
L 215.877542 100.513974 
L 216.313028 100.211628 
L 216.748513 100.229059 
L 217.619485 103.71039 
L 218.05497 103.253185 
L 218.490456 104.017428 
L 218.925941 103.948378 
L 219.361427 104.296981 
L 219.796913 104.341897 
L 220.232398 104.178322 
L 220.667884 103.419441 
L 221.10337 101.968719 
L 221.538855 101.948607 
L 221.974341 102.216763 
L 222.409827 103.626591 
L 222.845312 103.574301 
L 223.280798 103.811619 
L 223.716283 103.911507 
L 224.151769 103.625921 
L 224.587255 103.603128 
L 225.02274 104.562455 
L 225.458226 104.500779 
L 225.893712 105.683346 
L 226.329197 105.798653 
L 226.764683 105.624352 
L 227.635654 104.824577 
L 228.07114 104.774298 
L 228.506626 104.081786 
L 228.942111 104.044244 
L 229.377597 103.892066 
L 229.813082 103.31486 
L 230.684054 103.72782 
L 231.119539 103.269944 
L 231.555025 103.283352 
L 231.990511 103.148604 
L 232.425996 104.69184 
L 232.861482 104.851393 
L 233.732453 104.052289 
L 235.03891 103.69363 
L 235.474396 103.928267 
L 236.345367 103.773407 
L 237.216338 103.306145 
L 237.651824 103.265922 
L 238.08731 102.993744 
L 238.958281 102.946146 
L 239.829252 103.401341 
L 240.264738 103.50324 
L 240.700224 101.940562 
L 241.135709 101.754194 
L 242.00668 101.079112 
L 242.442166 101.085146 
L 242.877652 100.813638 
L 243.313137 100.949057 
L 244.184109 100.006489 
L 244.619594 100.005819 
L 245.490566 100.626599 
L 245.926051 101.089838 
L 246.361537 102.371623 
L 246.797022 101.961344 
L 247.232508 102.265031 
L 248.538965 102.14369 
L 248.974451 102.322684 
L 249.409936 102.655868 
L 249.845422 102.466818 
L 250.716393 103.155978 
L 251.151879 103.111733 
L 252.02285 103.322235 
L 252.458336 103.312849 
L 252.893821 103.722457 
L 253.329307 103.973853 
L 253.764793 104.366031 
L 254.200278 103.772066 
L 254.635764 102.84961 
L 255.07125 102.496315 
L 255.506735 102.744359 
L 256.377707 102.260338 
L 256.813192 101.434419 
L 258.119649 101.345927 
L 259.426106 100.456991 
L 259.861592 100.448946 
L 260.297077 98.68113 
L 260.732563 99.096771 
L 261.168049 99.145039 
L 261.603534 99.375653 
L 264.216448 98.935878 
L 264.651934 98.410292 
L 265.087419 98.166941 
L 265.522905 98.471968 
L 265.958391 98.180349 
L 266.393876 98.045601 
L 266.829362 98.172975 
L 267.700333 98.222583 
L 268.135819 97.962472 
L 268.571305 96.828844 
L 269.00679 97.04605 
L 269.442276 96.964263 
L 269.877761 97.225715 
L 270.748733 97.318228 
L 271.184218 96.951525 
L 272.05519 96.668621 
L 272.926161 97.158676 
L 273.361647 97.257223 
L 273.797132 97.490518 
L 274.232618 97.582362 
L 275.539075 97.462362 
L 275.97456 97.215659 
L 276.410046 96.56337 
L 277.281017 95.958679 
L 277.716503 95.984154 
L 278.151989 95.628177 
L 279.02296 95.992869 
L 279.458446 96.298566 
L 279.893931 95.349965 
L 280.329417 95.15153 
L 280.764902 95.155552 
L 281.200388 95.46058 
L 281.635874 95.992869 
L 282.942331 95.782366 
L 283.377816 95.399574 
L 283.813302 95.624825 
L 284.248788 95.996891 
L 284.684273 96.02974 
L 285.555245 95.738121 
L 286.426216 96.624375 
L 286.861701 96.602923 
L 287.297187 96.348175 
L 287.732673 96.479571 
L 288.168158 97.179458 
L 289.03913 96.519795 
L 291.216558 96.814766 
L 291.652044 96.4427 
L 292.087529 94.760023 
L 292.523015 94.743263 
L 292.9585 94.231086 
L 293.393986 94.234438 
L 293.829472 94.37656 
L 294.264957 94.688291 
L 294.700443 94.662816 
L 296.0069 94.259242 
L 296.442386 94.13522 
L 296.877871 93.528518 
L 297.748842 93.843601 
L 298.184328 93.966282 
L 298.619814 93.538573 
L 299.055299 93.892539 
L 299.490785 93.989745 
L 299.926271 93.949522 
L 300.361756 95.345943 
L 300.797242 95.059687 
L 301.668213 94.972536 
L 302.103699 94.315555 
L 302.539185 94.166058 
L 302.97467 94.216337 
L 303.410156 93.87779 
L 304.281127 93.645836 
L 304.716613 91.390646 
L 305.152098 91.596456 
L 305.587584 92.090533 
L 306.02307 93.53254 
L 306.458555 93.553322 
L 307.329527 90.261711 
L 307.765012 90.218135 
L 308.200498 89.852103 
L 309.071469 89.547076 
L 309.506955 89.552439 
L 309.94244 88.778139 
L 310.377926 88.987301 
L 310.813412 88.910876 
L 311.248897 89.126071 
L 311.684383 87.479595 
L 312.119869 87.805404 
L 312.555354 87.962946 
L 312.99084 87.255685 
L 313.426326 86.844066 
L 314.297297 86.90306 
L 314.732782 87.233562 
L 315.168268 86.711999 
L 315.603754 86.522279 
L 316.039239 86.64429 
L 316.474725 86.504849 
L 317.345696 85.912895 
L 317.781182 85.864627 
L 318.652153 85.584405 
L 319.523125 84.743736 
L 319.95861 84.655915 
L 320.394096 84.395804 
L 320.829581 84.677368 
L 321.265067 84.64586 
L 322.136038 85.436249 
L 322.571524 84.639156 
L 323.00701 84.795356 
L 323.442495 84.477592 
L 323.877981 84.843624 
L 324.313467 83.740164 
L 324.748952 83.356031 
L 325.184438 83.25145 
L 325.619924 84.751111 
L 326.055409 84.433346 
L 326.490895 84.682731 
L 327.361866 84.131671 
L 327.797352 84.418598 
L 328.232837 84.013012 
L 329.103809 84.197369 
L 329.97478 83.968766 
L 330.410266 83.219271 
L 330.845751 80.225313 
L 331.281237 78.897271 
L 331.716722 78.65325 
L 332.152208 78.557384 
L 333.023179 79.063528 
L 333.458665 79.365203 
L 333.894151 79.457046 
L 334.329636 79.332354 
L 334.765122 79.620621 
L 335.200608 79.113137 
L 335.636093 78.420625 
L 336.071579 78.696825 
L 337.378036 78.651909 
L 337.813521 78.375038 
L 338.249007 78.283865 
L 338.684493 77.892358 
L 339.119978 78.248335 
L 339.555464 79.079617 
L 339.99095 79.241181 
L 340.426435 77.462638 
L 340.861921 77.180404 
L 341.297407 77.142863 
L 341.732892 77.271577 
L 342.168378 76.883422 
L 342.603864 77.022193 
L 343.039349 76.749344 
L 343.91032 76.745992 
L 344.345806 76.607892 
L 344.781292 76.896159 
L 345.216777 78.49906 
L 345.652263 78.664646 
L 346.087749 78.992467 
L 346.95872 79.048779 
L 347.394206 79.533471 
L 347.829691 79.137941 
L 348.700662 79.235818 
L 349.136148 78.914031 
L 349.571634 79.162075 
L 350.007119 79.103081 
L 350.442605 78.807439 
L 350.878091 78.989115 
L 351.313576 78.974366 
L 351.749062 78.80878 
L 352.620033 78.8604 
L 353.055519 79.206321 
L 353.491005 80.695926 
L 353.92649 80.485424 
L 354.797461 80.44453 
L 355.232947 80.533692 
L 355.668433 80.18643 
L 356.103918 80.463301 
L 356.539404 80.130117 
L 356.97489 80.228665 
L 357.410375 79.813694 
L 358.281347 80.124084 
L 358.716832 80.047659 
L 359.152318 80.329223 
L 359.587804 80.06643 
L 360.023289 80.073805 
L 360.458775 79.829113 
L 360.89426 79.8928 
L 361.329746 80.488105 
L 362.636203 81.111567 
L 363.071689 79.192243 
L 363.507174 79.059506 
L 364.378146 79.196265 
L 364.813631 80.465982 
L 365.684603 81.205422 
L 366.120088 81.033802 
L 366.555574 80.614809 
L 366.991059 80.508217 
L 368.297516 80.717378 
L 368.733002 80.510228 
L 369.168488 79.967213 
L 369.603973 79.705761 
L 370.91043 79.968554 
L 371.345916 79.615929 
L 371.781401 79.741292 
L 372.216887 80.019503 
L 372.652373 79.625985 
L 373.087858 79.85995 
L 373.523344 79.856598 
L 374.394315 80.18576 
L 374.829801 79.783526 
L 375.265287 80.01481 
L 375.700772 79.831124 
L 376.136258 79.788219 
L 376.571744 80.087212 
L 377.007229 81.452795 
L 378.313686 82.042068 
L 379.184657 81.485644 
L 379.620143 80.824641 
L 380.055629 80.61615 
L 380.491114 79.925649 
L 380.9266 79.625985 
L 381.362086 79.477829 
L 381.797571 79.798945 
L 382.233057 79.914922 
L 383.104028 79.985984 
L 383.539514 80.232017 
L 383.974999 80.335256 
L 384.410485 80.250787 
L 384.845971 80.927881 
L 385.281456 81.13436 
L 385.716942 81.100171 
L 386.152428 81.385756 
L 386.587913 81.403187 
L 387.458885 82.30419 
L 388.765341 83.017484 
L 389.200827 82.139274 
L 389.636313 84.327425 
L 390.071798 83.869549 
L 390.507284 84.011671 
L 390.94277 84.330106 
L 391.378255 84.314687 
L 392.249227 88.000488 
L 392.684712 88.051437 
L 393.555684 88.640039 
L 393.991169 89.197803 
L 394.426655 89.08987 
L 394.86214 89.694561 
L 395.733112 89.789757 
L 396.168597 89.711991 
L 396.604083 91.401372 
L 397.039569 90.740369 
L 397.91054 90.073331 
L 398.346026 90.872435 
L 398.781511 90.36361 
L 399.216997 90.052549 
L 399.652483 90.005622 
L 400.087968 90.509755 
L 401.829911 90.873106 
L 401.829911 90.873106 
" clip-path="url(#p97beaf6a4b)" style="fill: none; stroke: #ff7f0e; stroke-opacity: 0.8; stroke-width: 1.5; stroke-linecap: square"/>
   </g>
   <g id="line2d_17">
    <path d="M 147.070811 73.518068 
L 147.506296 73.233152 
L 148.377268 72.398518 
L 148.812753 72.234943 
L 149.248239 72.405892 
L 149.683725 70.743997 
L 150.554696 70.057518 
L 150.990181 71.688575 
L 151.425667 71.362766 
L 151.861153 71.492151 
L 152.296638 72.072038 
L 152.732124 71.999636 
L 154.038581 71.257515 
L 154.909552 70.334389 
L 155.780523 68.829365 
L 156.216009 68.97551 
L 157.08698 67.905569 
L 157.522466 67.791602 
L 157.957952 67.92501 
L 158.393437 67.870708 
L 159.699894 66.640544 
L 160.13538 64.436304 
L 160.570866 64.655521 
L 161.006351 63.448821 
L 161.441837 63.287257 
L 162.312808 62.532399 
L 162.748294 62.728823 
L 163.183779 62.494857 
L 163.619265 62.416421 
L 164.490236 61.648825 
L 164.925722 61.522122 
L 165.796693 60.578884 
L 166.667665 60.134416 
L 167.10315 60.407264 
L 168.409607 59.875646 
L 168.845093 60.078774 
L 169.280578 60.004361 
L 170.15155 60.387153 
L 170.587035 60.553409 
L 171.022521 60.521901 
L 171.458007 59.065816 
L 171.893492 59.33196 
L 172.764463 59.172407 
L 173.199949 59.380898 
L 173.635435 58.988721 
L 174.07092 59.015536 
L 174.506406 58.925034 
L 174.941892 58.963916 
L 175.377377 58.854643 
L 175.812863 59.242128 
L 176.248349 59.181793 
L 176.683834 58.50604 
L 177.11932 55.536886 
L 177.990291 54.873201 
L 178.425777 55.154094 
L 178.861262 55.635434 
L 179.296748 55.444373 
L 179.732234 55.80236 
L 180.167719 56.666492 
L 180.603205 55.975991 
L 181.038691 56.282359 
L 181.474176 56.368169 
L 181.909662 56.629621 
L 183.216119 56.671185 
L 183.651605 56.913866 
L 184.08709 56.853531 
L 184.522576 56.447945 
L 185.393547 56.866939 
L 185.829033 56.444593 
L 186.264518 56.651744 
L 186.700004 57.003698 
L 187.570975 56.895765 
L 188.441947 57.338222 
L 188.877432 57.572859 
L 189.748403 57.180681 
L 190.183889 58.325035 
L 190.619375 58.596543 
L 191.05486 58.213751 
L 191.490346 59.120787 
L 191.925832 59.386262 
L 192.361317 59.12548 
L 192.796803 59.321234 
L 193.232289 58.959894 
L 193.667774 58.98738 
L 194.10326 59.162352 
L 194.538746 58.995425 
L 194.974231 59.116095 
L 195.409717 59.069167 
L 196.716174 59.706708 
L 197.151659 59.502909 
L 197.587145 59.974863 
L 198.022631 60.221567 
L 198.458116 60.121679 
L 198.893602 60.401231 
L 199.329088 60.324807 
L 199.764573 59.771065 
L 200.200059 62.084578 
L 200.635545 62.787817 
L 201.07103 63.092174 
L 201.506516 62.807929 
L 202.377487 63.836306 
L 202.812973 63.507145 
L 203.248458 63.767926 
L 204.11943 63.893289 
L 204.554915 64.916303 
L 204.990401 64.969934 
L 205.425887 64.594516 
L 205.861372 64.837867 
L 206.296858 64.470494 
L 206.732343 64.993398 
L 207.167829 65.116749 
L 207.603315 64.817756 
L 208.0388 65.175073 
L 208.474286 65.096638 
L 208.909772 64.727923 
L 209.345257 65.045688 
L 209.780743 65.603452 
L 211.522686 65.768368 
L 211.958171 66.177975 
L 212.393657 66.261774 
L 212.829142 66.608365 
L 213.264628 66.591606 
L 213.700114 67.04613 
L 215.006571 67.330375 
L 215.442056 67.943781 
L 216.313028 67.655513 
L 216.748513 68.357411 
L 217.619485 68.852829 
L 218.490456 68.231378 
L 218.925941 68.488807 
L 219.361427 68.256182 
L 219.796913 68.341322 
L 220.232398 66.30602 
L 220.667884 66.369036 
L 221.10337 66.269819 
L 221.538855 67.164118 
L 222.409827 67.430933 
L 222.845312 67.99339 
L 223.280798 69.118303 
L 223.716283 69.01037 
L 224.151769 69.359643 
L 224.587255 69.043219 
L 225.02274 69.448805 
L 225.893712 70.489919 
L 226.329197 70.690366 
L 226.764683 71.16232 
L 227.200169 71.135504 
L 227.635654 71.389582 
L 228.07114 71.456621 
L 228.506626 71.254163 
L 228.942111 71.399638 
L 229.377597 71.857514 
L 229.813082 72.094831 
L 230.248568 72.526562 
L 230.684054 72.607679 
L 231.119539 72.813489 
L 231.555025 75.223538 
L 231.990511 74.963427 
L 232.425996 75.07203 
L 233.296968 75.611694 
L 233.732453 73.652816 
L 234.167939 73.156728 
L 234.603425 74.220636 
L 235.474396 73.971251 
L 235.909881 74.110692 
L 236.345367 74.402982 
L 236.780853 74.182424 
L 237.216338 74.443205 
L 237.651824 74.459965 
L 238.08731 74.664433 
L 238.522795 74.640299 
L 238.958281 74.453931 
L 240.264738 75.471582 
L 240.700224 75.755827 
L 241.135709 75.019069 
L 241.571195 75.788676 
L 242.442166 76.264653 
L 242.877652 76.357837 
L 243.313137 76.585099 
L 243.748623 76.421524 
L 244.184109 76.39739 
L 244.619594 76.701747 
L 245.05508 78.647887 
L 245.490566 78.409898 
L 245.926051 79.644755 
L 246.361537 79.436935 
L 246.797022 79.525426 
L 247.232508 79.813694 
L 248.538965 78.869785 
L 250.716393 80.555144 
L 251.151879 80.481401 
L 252.02285 79.981291 
L 252.458336 79.68632 
L 252.893821 79.898163 
L 253.329307 79.752018 
L 253.764793 79.787548 
L 254.200278 79.61727 
L 254.635764 79.278053 
L 255.07125 79.301516 
L 255.506735 78.987774 
L 255.942221 78.820847 
L 256.377707 80.223972 
L 256.813192 80.231346 
L 257.248678 80.780395 
L 257.684164 77.972134 
L 258.119649 77.899062 
L 258.555135 78.056603 
L 258.99062 78.385764 
L 259.426106 77.98286 
L 259.861592 78.298614 
L 260.297077 78.372357 
L 260.732563 78.302636 
L 261.603534 78.886545 
L 262.03902 81.393131 
L 262.474506 81.838269 
L 263.780962 81.507767 
L 264.216448 81.954917 
L 265.087419 80.99559 
L 265.522905 81.763186 
L 265.958391 81.348215 
L 266.393876 81.277153 
L 266.829362 81.065981 
L 267.264848 81.360952 
L 267.700333 81.031121 
L 268.135819 81.065981 
L 268.571305 80.950674 
L 269.00679 81.214137 
L 269.442276 81.210785 
L 269.877761 80.941959 
L 270.313247 81.055255 
L 270.748733 81.483633 
L 271.184218 81.619052 
L 271.619704 81.585532 
L 272.05519 81.865085 
L 272.490675 81.837599 
L 272.926161 81.46084 
L 273.361647 81.274472 
L 273.797132 81.349555 
L 274.232618 81.118942 
L 274.668104 81.105534 
L 275.103589 81.620393 
L 275.539075 81.657935 
L 275.97456 81.987096 
L 276.845532 81.987096 
L 277.281017 82.230447 
L 277.716503 82.199609 
L 278.151989 82.535474 
L 278.587474 82.534133 
L 279.02296 82.120503 
L 279.458446 82.164078 
L 280.329417 81.543968 
L 281.635874 81.452125 
L 282.071359 81.700839 
L 282.942331 81.613018 
L 283.377816 81.261064 
L 283.813302 81.177265 
L 284.684273 82.044079 
L 285.119759 81.991788 
L 285.555245 81.465533 
L 285.99073 81.510449 
L 287.297187 80.579949 
L 287.732673 80.571233 
L 288.168158 80.673803 
L 288.603644 81.058606 
L 289.03913 80.787769 
L 289.474615 80.709334 
L 289.910101 81.234919 
L 290.345587 81.401846 
L 290.781072 81.0814 
L 291.216558 81.570114 
L 291.652044 81.66799 
L 292.087529 81.527879 
L 292.523015 81.52989 
L 292.9585 81.808772 
L 293.393986 81.867766 
L 293.829472 82.230447 
L 294.264957 82.281397 
L 294.700443 82.158045 
L 295.571414 80.35872 
L 296.0069 80.645647 
L 296.442386 80.691904 
L 296.877871 80.550451 
L 297.313357 80.718719 
L 297.748842 80.687211 
L 299.055299 81.547991 
L 299.490785 81.145757 
L 299.926271 81.033802 
L 300.361756 80.648999 
L 300.797242 80.624865 
L 301.232728 80.469334 
L 301.668213 80.451904 
L 302.103699 80.550451 
L 302.539185 80.532351 
L 302.97467 80.849445 
L 303.845641 80.63425 
L 304.281127 80.437826 
L 304.716613 80.39291 
L 305.152098 82.319609 
L 305.587584 82.384637 
L 306.02307 82.302849 
L 306.458555 81.941509 
L 306.894041 81.743744 
L 307.329527 81.362963 
L 307.765012 81.389108 
L 308.200498 82.294134 
L 308.635984 82.765418 
L 309.071469 82.504636 
L 309.506955 82.814356 
L 310.813412 82.414134 
L 311.248897 82.640725 
L 311.684383 82.624636 
L 312.119869 82.397374 
L 312.555354 82.687652 
L 312.99084 82.678267 
L 315.168268 81.933465 
L 316.039239 82.111788 
L 316.910211 83.201171 
L 317.345696 83.361394 
L 317.781182 83.402287 
L 318.216668 83.005417 
L 318.652153 84.817479 
L 319.087639 84.712899 
L 319.523125 84.452117 
L 320.394096 85.170774 
L 320.829581 85.116473 
L 321.265067 84.81815 
L 321.700553 85.114462 
L 322.136038 84.737033 
L 323.00701 85.288093 
L 323.442495 85.357813 
L 324.313467 85.123847 
L 324.748952 84.753122 
L 325.184438 84.756474 
L 325.619924 84.571446 
L 326.055409 85.459712 
L 326.490895 85.35245 
L 326.92638 85.659488 
L 327.361866 85.130551 
L 328.232837 84.451447 
L 328.668323 84.86977 
L 329.103809 85.072227 
L 329.539294 84.944853 
L 329.97478 85.052786 
L 330.410266 85.032004 
L 330.845751 84.468206 
L 331.281237 84.50843 
L 332.152208 84.038487 
L 332.587694 84.399827 
L 333.458665 84.598932 
L 334.329636 84.006979 
L 334.765122 83.636924 
L 335.200608 83.484075 
L 335.636093 83.4586 
L 336.507065 84.143068 
L 336.94255 84.325413 
L 337.378036 84.965635 
L 337.813521 85.132562 
L 338.249007 85.526751 
L 338.684493 85.428204 
L 339.119978 85.555578 
L 339.555464 85.846527 
L 339.99095 85.497254 
L 340.426435 85.367198 
L 341.297407 85.995353 
L 342.168378 85.85122 
L 342.603864 88.541492 
L 343.039349 88.257247 
L 343.474835 88.329649 
L 343.91032 87.381718 
L 344.345806 87.531215 
L 344.781292 87.053228 
L 345.652263 87.084736 
L 346.95872 87.163171 
L 347.394206 86.734122 
L 347.829691 87.149093 
L 348.265177 87.261048 
L 348.700662 87.497696 
L 349.136148 87.444735 
L 349.571634 87.562723 
L 350.007119 87.521159 
L 350.442605 86.718703 
L 350.878091 86.770323 
L 351.313576 86.981496 
L 351.749062 86.889653 
L 352.184548 86.496134 
L 352.620033 86.516916 
L 353.055519 86.232001 
L 353.491005 86.136135 
L 353.92649 86.394905 
L 354.797461 86.388872 
L 355.232947 86.098593 
L 355.668433 85.560941 
L 356.103918 85.461053 
L 356.539404 85.657477 
L 356.97489 83.972118 
L 357.845861 83.852119 
L 358.281347 84.080721 
L 358.716832 83.972789 
L 359.152318 84.200721 
L 360.023289 84.014353 
L 360.458775 83.327204 
L 360.89426 83.432455 
L 361.329746 83.110668 
L 361.765232 82.933685 
L 362.636203 82.253911 
L 363.071689 82.231788 
L 363.507174 81.948883 
L 363.94266 81.905308 
L 364.378146 81.654583 
L 365.249117 82.213017 
L 366.555574 82.129218 
L 366.991059 82.176816 
L 367.426545 81.862403 
L 367.862031 82.194916 
L 368.297516 82.151341 
L 368.733002 82.536144 
L 369.168488 82.111118 
L 369.603973 82.071565 
L 370.039459 81.796035 
L 370.474945 82.141956 
L 370.91043 82.054805 
L 371.345916 82.640055 
L 371.781401 83.018825 
L 372.216887 83.132121 
L 372.652373 82.937708 
L 373.087858 81.46084 
L 373.523344 81.086763 
L 373.95883 81.378382 
L 374.394315 81.165869 
L 374.829801 80.800507 
L 375.265287 81.222852 
L 375.700772 81.286539 
L 376.136258 80.766987 
L 376.571744 80.729445 
L 377.007229 81.208774 
L 377.442715 81.164528 
L 377.8782 81.258383 
L 378.313686 80.825981 
L 378.749172 80.998271 
L 379.620143 80.42777 
L 380.491114 82.46039 
L 381.362086 82.627317 
L 381.797571 83.262176 
L 382.668543 83.262846 
L 383.539514 82.584413 
L 383.974999 82.593128 
L 384.410485 82.996032 
L 384.845971 83.13078 
L 385.281456 83.740164 
L 385.716942 83.282958 
L 386.152428 83.343293 
L 386.587913 81.920057 
L 387.023399 79.870677 
L 388.765341 79.688331 
L 389.200827 80.240732 
L 390.071798 80.366094 
L 390.507284 79.507326 
L 390.94277 79.840509 
L 391.378255 79.896151 
L 391.813741 79.831794 
L 392.249227 80.219949 
L 392.684712 80.049 
L 393.120198 79.689672 
L 393.555684 79.735258 
L 393.991169 79.916934 
L 394.86214 79.184868 
L 395.297626 79.377941 
L 396.168597 79.103081 
L 396.604083 79.171461 
L 397.475054 79.491236 
L 398.781511 78.938836 
L 399.652483 79.234477 
L 400.087968 78.766546 
L 400.523454 78.738389 
L 401.394425 77.824649 
L 401.829911 77.854146 
L 401.829911 77.854146 
" clip-path="url(#p97beaf6a4b)" style="fill: none; stroke: #2ca02c; stroke-opacity: 0.8; stroke-width: 1.5; stroke-linecap: square"/>
   </g>
   <g id="line2d_18">
    <path d="M 147.070811 103.41743 
L 150.990181 97.391971 
L 153.603095 93.434663 
L 154.038581 89.79512 
L 154.474067 88.810988 
L 155.345038 87.629762 
L 155.780523 86.606748 
L 156.216009 85.999376 
L 158.828923 80.49682 
L 159.264409 79.900174 
L 159.699894 78.850344 
L 160.13538 77.470683 
L 160.570866 76.750685 
L 161.006351 75.803425 
L 161.877322 75.478956 
L 162.312808 75.363649 
L 162.748294 74.954042 
L 163.183779 74.821975 
L 164.054751 73.839184 
L 164.490236 74.15829 
L 164.925722 73.834492 
L 165.361208 73.782872 
L 165.796693 74.0041 
L 166.232179 74.02153 
L 167.538636 74.55449 
L 167.974121 74.205887 
L 168.845093 73.805665 
L 169.280578 73.314269 
L 170.15155 73.003879 
L 170.587035 73.05684 
L 171.022521 72.971701 
L 171.893492 72.330138 
L 172.328978 71.797178 
L 172.764463 71.727458 
L 173.199949 71.353381 
L 174.07092 71.361425 
L 174.506406 71.038968 
L 174.941892 72.02377 
L 175.377377 72.026452 
L 175.812863 72.285892 
L 176.248349 70.67964 
L 176.683834 70.658187 
L 177.11932 70.38735 
L 177.554806 70.558299 
L 177.990291 70.167462 
L 178.425777 70.120535 
L 179.296748 70.640757 
L 181.038691 70.391372 
L 181.474176 70.104446 
L 181.909662 70.272043 
L 182.345148 69.883217 
L 183.216119 69.920759 
L 183.651605 70.381987 
L 184.08709 70.105786 
L 184.522576 69.696849 
L 184.958061 70.040759 
L 185.393547 69.613721 
L 185.829033 69.47562 
L 186.264518 69.661989 
L 187.13549 70.253272 
L 187.570975 69.834949 
L 188.006461 70.327685 
L 188.441947 70.207015 
L 188.877432 69.935507 
L 189.312918 69.950926 
L 189.748403 69.832938 
L 190.619375 70.075619 
L 191.05486 70.103105 
L 191.925832 70.469137 
L 192.361317 67.15071 
L 193.232289 66.485014 
L 193.667774 66.678756 
L 194.10326 66.531941 
L 194.538746 66.13373 
L 194.974231 65.972836 
L 195.845202 66.527919 
L 196.280688 66.417975 
L 196.716174 66.610377 
L 197.151659 66.401885 
L 197.587145 66.491047 
L 198.022631 66.371718 
L 198.893602 67.617301 
L 199.329088 68.529701 
L 199.764573 68.687913 
L 200.200059 69.674056 
L 200.635545 71.26556 
L 201.07103 72.407233 
L 201.506516 73.084996 
L 201.942001 75.078064 
L 203.248458 77.332583 
L 203.683944 78.386435 
L 204.554915 79.957827 
L 207.167829 85.566304 
L 207.603315 86.315129 
L 208.474286 88.285403 
L 208.909772 89.105289 
L 209.780743 91.192211 
L 211.0872 93.743713 
L 211.522686 94.678235 
L 211.958171 95.219239 
L 212.393657 95.163597 
L 212.829142 94.885386 
L 213.264628 95.071083 
L 213.700114 94.725163 
L 214.135599 95.182368 
L 215.006571 95.742813 
L 215.442056 94.977899 
L 216.313028 95.718009 
L 216.748513 95.632199 
L 217.183999 94.993318 
L 217.619485 94.709073 
L 218.490456 94.743263 
L 218.925941 94.808291 
L 219.361427 94.646057 
L 219.796913 94.208292 
L 220.232398 94.499912 
L 221.10337 94.672202 
L 221.538855 94.726503 
L 223.716283 96.192645 
L 224.151769 96.387728 
L 224.587255 96.263706 
L 225.02274 97.653423 
L 225.458226 98.003366 
L 225.893712 98.160237 
L 227.635654 98.213198 
L 228.07114 96.230186 
L 228.506626 96.200689 
L 228.942111 96.295214 
L 229.377597 96.635772 
L 229.813082 96.699459 
L 230.248568 96.516443 
L 230.684054 96.558677 
L 232.425996 95.617451 
L 233.296968 95.749517 
L 233.732453 95.7884 
L 234.167939 95.249407 
L 234.603425 95.311083 
L 235.474396 94.831754 
L 235.909881 94.473767 
L 236.780853 93.98103 
L 237.216338 93.694774 
L 237.651824 93.572763 
L 238.08731 93.30796 
L 238.522795 93.34282 
L 238.958281 96.35622 
L 239.393767 96.738342 
L 239.829252 96.411192 
L 240.264738 96.538566 
L 240.700224 96.904598 
L 241.135709 96.83823 
L 241.571195 97.191525 
L 242.00668 97.242474 
L 242.442166 96.936777 
L 242.877652 96.795325 
L 243.748623 96.87376 
L 244.184109 96.58013 
L 245.05508 97.485155 
L 245.490566 97.315547 
L 246.361537 97.939009 
L 247.667994 98.1475 
L 248.103479 97.910182 
L 248.538965 98.321801 
L 248.974451 97.391971 
L 250.280908 97.826383 
L 250.716393 97.762696 
L 251.587365 97.277335 
L 252.02285 97.007838 
L 252.458336 97.133201 
L 253.764793 96.715548 
L 254.200278 96.75309 
L 255.07125 96.405158 
L 255.942221 96.172533 
L 256.377707 96.382365 
L 257.684164 96.298566 
L 258.119649 96.687392 
L 258.555135 96.602923 
L 259.426106 97.050073 
L 259.861592 97.298787 
L 260.297077 96.706833 
L 260.732563 96.661247 
L 261.168049 98.432415 
L 261.603534 98.626158 
L 262.474506 98.455209 
L 262.909991 98.654314 
L 263.345477 98.449845 
L 263.780962 98.443142 
L 264.216448 98.126047 
L 264.651934 98.349957 
L 265.958391 98.506828 
L 267.700333 102.118216 
L 268.135819 102.651845 
L 268.571305 103.517988 
L 269.877761 107.65429 
L 270.313247 107.943899 
L 271.184218 109.925569 
L 272.05519 111.23551 
L 272.926161 113.555057 
L 275.539075 118.324206 
L 275.97456 118.643982 
L 276.845532 120.132917 
L 277.281017 124.969775 
L 280.329417 131.65959 
L 281.635874 133.633886 
L 282.942331 136.145835 
L 284.248788 135.962148 
L 284.684273 136.382482 
L 285.99073 136.241701 
L 286.861701 136.104271 
L 288.168158 136.121701 
L 289.03913 134.642152 
L 289.474615 134.178913 
L 290.781072 131.884841 
L 291.216558 130.668084 
L 292.087529 130.556129 
L 292.523015 130.62719 
L 292.9585 129.401048 
L 295.135929 129.256244 
L 296.877871 128.995463 
L 299.490785 133.269865 
L 299.926271 133.481038 
L 300.797242 134.847291 
L 301.668213 136.032539 
L 303.410156 139.171972 
L 304.716613 141.756323 
L 306.02307 143.447045 
L 306.894041 144.398327 
L 309.071469 147.41642 
L 309.94244 148.652618 
L 311.248897 150.184457 
L 312.555354 152.06691 
L 312.99084 154.613049 
L 315.168268 157.768571 
L 316.474725 160.373704 
L 317.345696 160.739066 
L 318.652153 162.339285 
L 319.087639 163.505092 
L 319.523125 163.365651 
L 320.394096 165.057714 
L 320.829581 165.427769 
L 321.265067 165.18844 
L 322.136038 165.939946 
L 322.571524 166.156482 
L 323.442495 166.061287 
L 323.877981 165.451232 
L 324.748952 165.719388 
L 325.619924 165.480059 
L 326.055409 165.564528 
L 326.490895 164.061515 
L 326.92638 164.030007 
L 327.361866 164.34509 
L 328.232837 164.442297 
L 328.668323 164.811011 
L 329.103809 164.713804 
L 329.539294 163.830231 
L 329.97478 162.60543 
L 330.845751 161.805655 
L 331.716722 161.610572 
L 332.152208 161.832471 
L 333.023179 161.635377 
L 333.458665 161.403422 
L 333.894151 162.258839 
L 334.329636 161.740628 
L 334.765122 162.013476 
L 335.636093 161.422863 
L 336.94255 154.808802 
L 337.378036 154.327463 
L 337.813521 153.301097 
L 338.249007 153.447242 
L 339.555464 152.474507 
L 339.99095 152.620652 
L 340.861921 152.245904 
L 341.297407 151.427359 
L 341.732892 151.488364 
L 342.603864 151.954285 
L 343.039349 151.906687 
L 343.474835 152.104452 
L 344.345806 151.65328 
L 344.781292 151.810151 
L 345.216777 152.676965 
L 345.652263 152.487915 
L 346.087749 152.102441 
L 346.523234 151.91138 
L 346.95872 152.038754 
L 347.394206 151.516521 
L 347.829691 151.301326 
L 349.136148 151.535962 
L 349.571634 151.529258 
L 350.007119 150.793841 
L 350.878091 150.608814 
L 351.313576 149.992055 
L 352.184548 148.080105 
L 353.055519 146.674969 
L 353.92649 144.486819 
L 354.361976 143.531514 
L 354.797461 142.903359 
L 355.232947 143.060901 
L 357.410375 138.831415 
L 358.281347 137.337787 
L 360.89426 131.721936 
L 363.94266 125.688433 
L 364.378146 122.823859 
L 365.249117 121.311461 
L 365.684603 120.352804 
L 366.555574 119.087109 
L 367.426545 117.627672 
L 369.168488 113.599973 
L 371.781401 108.574735 
L 373.087858 105.968932 
L 373.523344 105.89653 
L 374.829801 105.235526 
L 375.700772 104.926476 
L 376.136258 105.116867 
L 377.442715 102.598885 
L 377.8782 103.09028 
L 378.749172 97.026609 
L 379.184657 94.231086 
L 380.055629 92.51623 
L 380.9266 90.933441 
L 381.362086 89.716014 
L 381.797571 87.159819 
L 382.233057 86.154906 
L 383.104028 85.02463 
L 383.539514 82.489888 
L 383.974999 81.678046 
L 384.410485 78.850344 
L 384.845971 78.436714 
L 386.152428 75.964989 
L 386.587913 75.404543 
L 387.023399 75.412588 
L 388.329856 72.954941 
L 389.200827 69.788692 
L 389.636313 69.024448 
L 390.94277 66.081439 
L 391.378255 65.527027 
L 391.813741 64.607253 
L 392.684712 63.308039 
L 393.555684 60.649945 
L 395.297626 58.058891 
L 396.168597 56.246829 
L 396.604083 55.622026 
L 400.523454 48.024504 
L 400.958939 46.988752 
L 401.394425 46.441044 
L 401.829911 46.211771 
L 401.829911 46.211771 
" clip-path="url(#p97beaf6a4b)" style="fill: none; stroke: #d62728; stroke-opacity: 0.8; stroke-width: 1.5; stroke-linecap: square"/>
   </g>
   <g id="line2d_19">
    <path d="M 147.070811 153.061768 
L 147.506296 151.923447 
L 147.941782 151.43004 
L 148.812753 149.240549 
L 151.861153 142.727717 
L 153.16761 139.393201 
L 154.909552 136.767956 
L 155.345038 135.783154 
L 155.780523 135.107402 
L 156.651495 132.96819 
L 157.08698 132.336683 
L 157.522466 131.19501 
L 157.957952 129.675238 
L 158.393437 129.07591 
L 159.264409 126.998373 
L 160.13538 125.921058 
L 163.619265 118.424094 
L 164.490236 116.103877 
L 168.409607 107.707251 
L 168.845093 106.390607 
L 169.280578 105.81139 
L 169.716064 104.866141 
L 170.15155 104.367372 
L 170.587035 103.449609 
L 171.022521 102.816091 
L 171.893492 100.98928 
L 173.199949 99.200681 
L 174.07092 97.239122 
L 177.11932 90.612324 
L 178.425777 88.425514 
L 179.296748 86.415687 
L 180.603205 83.260835 
L 183.216119 77.20789 
L 185.829033 71.451258 
L 190.183889 62.718096 
L 190.619375 62.055752 
L 191.05486 61.120559 
L 191.490346 59.886372 
L 192.361317 58.252633 
L 192.796803 56.548504 
L 193.667774 54.762587 
L 194.10326 53.83879 
L 194.538746 52.629408 
L 194.974231 52.209074 
L 195.409717 51.525277 
L 195.845202 51.058686 
L 196.280688 49.247294 
L 198.458116 45.113674 
L 198.893602 44.563954 
L 199.329088 43.785632 
L 199.764573 43.551667 
L 201.506516 40.183631 
L 201.942001 40.618043 
L 202.377487 40.740054 
L 202.812973 40.392122 
L 203.683944 41.190556 
L 204.11943 40.987428 
L 204.990401 41.543851 
L 205.425887 41.248879 
L 205.861372 41.527091 
L 206.732343 42.402619 
L 207.167829 42.193458 
L 207.603315 42.364407 
L 208.0388 41.725526 
L 208.909772 42.089548 
L 209.345257 42.600384 
L 209.780743 42.441502 
L 210.216229 41.844855 
L 211.522686 42.804853 
L 211.958171 42.796138 
L 212.393657 42.501837 
L 212.829142 43.054238 
L 213.264628 43.40284 
L 213.700114 43.573789 
L 214.135599 43.582505 
L 215.006571 42.865188 
L 216.313028 43.922392 
L 217.183999 43.758146 
L 217.619485 43.91904 
L 218.05497 43.761498 
L 218.490456 43.263399 
L 218.925941 43.559041 
L 219.796913 43.273455 
L 220.232398 42.740496 
L 221.538855 42.515245 
L 221.974341 43.00597 
L 222.409827 43.312338 
L 222.845312 43.050886 
L 223.280798 42.955691 
L 224.151769 43.070327 
L 224.587255 42.927534 
L 225.02274 43.04083 
L 225.458226 42.878596 
L 225.893712 42.422731 
L 226.329197 42.759266 
L 227.635654 42.875244 
L 228.506626 43.034796 
L 228.942111 43.253343 
L 229.377597 42.747199 
L 229.813082 42.718373 
L 230.248568 42.458262 
L 230.684054 42.737814 
L 231.990511 41.458041 
L 232.425996 41.858934 
L 232.861482 40.863406 
L 233.296968 40.909662 
L 234.167939 40.57916 
L 234.603425 40.909662 
L 235.474396 40.415586 
L 235.909881 40.521507 
L 236.345367 40.01067 
L 236.780853 40.349217 
L 237.216338 40.247318 
L 238.08731 40.634803 
L 239.829252 38.869668 
L 240.264738 38.945422 
L 240.700224 38.820059 
L 241.571195 38.981623 
L 242.00668 38.645758 
L 242.442166 38.864975 
L 242.877652 39.523968 
L 243.313137 38.92531 
L 244.184109 39.483074 
L 244.619594 39.015813 
L 245.05508 39.082181 
L 245.926051 38.865645 
L 247.232508 38.727545 
L 248.103479 38.419837 
L 248.538965 38.462071 
L 248.974451 38.812685 
L 249.409936 38.771121 
L 249.845422 38.519725 
L 250.280908 38.692685 
L 250.716393 38.591456 
L 251.151879 38.282407 
L 251.587365 38.485535 
L 252.02285 38.413133 
L 252.458336 37.916374 
L 253.329307 37.934475 
L 253.764793 38.686652 
L 254.200278 38.668551 
L 255.506735 38.101402 
L 255.942221 37.772911 
L 256.813192 37.866765 
L 257.684164 37.214477 
L 258.119649 36.925539 
L 259.861592 36.904086 
L 260.732563 37.532241 
L 261.168049 37.539615 
L 262.03902 38.019614 
L 262.474506 37.837268 
L 263.345477 37.148108 
L 263.780962 37.017382 
L 264.651934 37.247326 
L 265.522905 37.795034 
L 265.958391 37.956598 
L 268.135819 39.656705 
L 269.00679 40.438379 
L 269.877761 40.968657 
L 270.313247 40.782959 
L 270.748733 40.889551 
L 271.184218 41.126869 
L 272.05519 40.726646 
L 273.361647 41.793906 
L 275.539075 41.867649 
L 275.97456 42.23234 
L 276.410046 42.857814 
L 276.845532 43.21312 
L 277.281017 43.061612 
L 277.716503 44.116805 
L 278.587474 43.854683 
L 279.02296 43.882169 
L 279.458446 44.133565 
L 279.893931 43.805074 
L 280.329417 44.321274 
L 280.764902 43.504069 
L 281.200388 44.614234 
L 281.635874 44.59144 
L 282.071359 44.43591 
L 283.377816 44.830769 
L 283.813302 44.496915 
L 285.119759 44.386301 
L 286.426216 45.230992 
L 287.297187 45.939593 
L 288.168158 45.64194 
L 288.603644 45.308087 
L 289.03913 45.558142 
L 289.474615 45.559483 
L 290.781072 45.895348 
L 291.216558 45.704957 
L 291.652044 44.53982 
L 292.087529 44.787194 
L 292.523015 44.749652 
L 292.9585 45.251103 
L 293.829472 45.319483 
L 294.264957 44.83211 
L 294.700443 44.930657 
L 295.135929 43.756135 
L 295.571414 43.687756 
L 296.0069 43.165522 
L 296.442386 42.16262 
L 296.877871 42.123737 
L 297.313357 41.653124 
L 297.748842 41.413795 
L 298.184328 41.539828 
L 298.619814 41.351449 
L 299.055299 40.986757 
L 299.490785 40.986757 
L 299.926271 41.137595 
L 301.668213 39.746537 
L 302.103699 39.271901 
L 302.97467 38.713467 
L 303.410156 38.785199 
L 304.281127 38.13358 
L 304.716613 37.984754 
L 305.152098 38.221401 
L 305.587584 38.63168 
L 306.02307 38.325312 
L 306.458555 38.35615 
L 306.894041 38.140284 
L 308.200498 38.256932 
L 308.635984 38.720171 
L 309.071469 38.740953 
L 309.506955 38.497602 
L 309.94244 39.000394 
L 310.813412 39.479052 
L 311.248897 39.021846 
L 311.684383 39.281287 
L 312.119869 39.255812 
L 313.426326 39.678157 
L 313.861811 39.477041 
L 314.297297 39.915475 
L 314.732782 40.028771 
L 315.168268 40.018715 
L 315.603754 40.247988 
L 316.039239 40.135363 
L 316.474725 40.253351 
L 316.910211 39.452236 
L 317.345696 39.070785 
L 319.087639 40.697819 
L 319.523125 40.367317 
L 319.95861 40.382736 
L 320.394096 40.566423 
L 321.265067 41.196589 
L 321.700553 41.383628 
L 322.136038 41.813347 
L 323.00701 41.124857 
L 323.877981 41.23346 
L 324.313467 41.533124 
L 324.748952 41.332678 
L 325.184438 41.269661 
L 326.055409 41.553907 
L 326.490895 41.359494 
L 327.361866 41.816029 
L 327.797352 41.736252 
L 328.232837 42.073458 
L 328.668323 42.146531 
L 329.103809 42.062062 
L 329.539294 42.208206 
L 329.97478 42.033235 
L 330.410266 42.47234 
L 330.845751 42.688205 
L 332.587694 42.814238 
L 333.023179 43.052897 
L 333.458665 43.080383 
L 333.894151 42.959042 
L 334.765122 43.027422 
L 335.200608 42.83502 
L 336.507065 42.887311 
L 336.94255 43.062282 
L 337.378036 43.944515 
L 337.813521 43.601946 
L 338.249007 43.725297 
L 339.119978 43.027422 
L 340.426435 43.31703 
L 340.861921 43.685744 
L 341.297407 43.670326 
L 341.732892 43.812448 
L 342.168378 43.618706 
L 342.603864 43.771554 
L 343.039349 44.132224 
L 344.345806 44.09066 
L 344.781292 44.449988 
L 345.216777 44.094012 
L 346.087749 44.222726 
L 346.95872 43.685744 
L 347.394206 43.834571 
L 348.265177 44.583396 
L 348.700662 44.439262 
L 349.571634 45.114344 
L 350.007119 44.968199 
L 351.749062 43.549655 
L 353.055519 42.640608 
L 353.92649 41.81804 
L 354.361976 41.994352 
L 354.797461 40.95659 
L 356.103918 41.155695 
L 356.97489 41.071897 
L 358.281347 40.109888 
L 359.587804 40.024078 
L 360.023289 39.70028 
L 360.458775 39.772012 
L 360.89426 39.147209 
L 361.329746 39.18408 
L 361.765232 38.702741 
L 362.200717 38.852238 
L 362.636203 38.572015 
L 363.071689 38.982964 
L 363.507174 39.027209 
L 363.94266 39.346315 
L 364.378146 39.18341 
L 364.813631 39.549443 
L 365.249117 39.414024 
L 366.120088 39.996592 
L 367.426545 39.971788 
L 367.862031 40.224525 
L 368.297516 40.229888 
L 368.733002 40.445753 
L 369.168488 40.311005 
L 369.603973 39.019165 
L 370.474945 39.157935 
L 371.345916 38.556596 
L 371.781401 38.56397 
L 372.216887 38.313245 
L 372.652373 38.407099 
L 373.087858 38.241513 
L 373.523344 38.264977 
L 374.394315 37.611347 
L 375.265287 37.508778 
L 375.700772 37.710565 
L 376.136258 37.5309 
L 376.571744 38.290451 
L 377.442715 37.40956 
L 377.8782 37.84062 
L 378.313686 37.400845 
L 378.749172 37.576487 
L 379.184657 36.963081 
L 379.620143 36.936265 
L 380.055629 38.892461 
L 380.491114 38.675255 
L 380.9266 39.196147 
L 381.362086 40.270111 
L 381.797571 40.448435 
L 382.233057 41.055807 
L 382.668543 41.202623 
L 383.104028 41.124187 
L 383.539514 41.454689 
L 383.974999 41.257594 
L 384.410485 41.351449 
L 384.845971 40.847987 
L 385.281456 41.11145 
L 385.716942 40.837931 
L 386.152428 41.061841 
L 386.587913 41.086645 
L 387.023399 41.341393 
L 387.458885 41.305862 
L 388.329856 41.7148 
L 389.200827 41.860945 
L 389.636313 42.23234 
L 390.507284 41.785191 
L 390.94277 42.02519 
L 391.813741 41.834129 
L 392.249227 41.49089 
L 392.684712 41.618264 
L 393.555684 41.315918 
L 393.991169 41.001506 
L 394.426655 41.030332 
L 395.297626 40.555026 
L 395.733112 40.505418 
L 396.168597 40.648881 
L 397.475054 39.969777 
L 398.346026 40.046201 
L 398.781511 40.387429 
L 399.216997 40.498043 
L 399.652483 40.089776 
L 400.087968 40.424971 
L 400.523454 40.273463 
L 400.958939 40.402848 
L 401.394425 40.381396 
L 401.829911 41.256254 
L 401.829911 41.256254 
" clip-path="url(#p97beaf6a4b)" style="fill: none; stroke: #9467bd; stroke-opacity: 0.8; stroke-width: 1.5; stroke-linecap: square"/>
   </g>
   <g id="patch_3">
    <path d="M 61.715625 288.430125 
L 61.715625 22.318125 
" style="fill: none; stroke: #000000; stroke-width: 0.8; stroke-linejoin: miter; stroke-linecap: square"/>
   </g>
   <g id="patch_4">
    <path d="M 418.835625 288.430125 
L 418.835625 22.318125 
" style="fill: none; stroke: #000000; stroke-width: 0.8; stroke-linejoin: miter; stroke-linecap: square"/>
   </g>
   <g id="patch_5">
    <path d="M 61.715625 288.430125 
L 418.835625 288.430125 
" style="fill: none; stroke: #000000; stroke-width: 0.8; stroke-linejoin: miter; stroke-linecap: square"/>
   </g>
   <g id="patch_6">
    <path d="M 61.715625 22.318125 
L 418.835625 22.318125 
" style="fill: none; stroke: #000000; stroke-width: 0.8; stroke-linejoin: miter; stroke-linecap: square"/>
   </g>
   <g id="text_17">
    <!-- Get children [branch] -->
    <g transform="translate(176.16 16.318125) scale(0.12 -0.12)">
     <defs>
      <path id="DejaVuSans-47" d="M 3809 666 
L 3809 1919 
L 2778 1919 
L 2778 2438 
L 4434 2438 
L 4434 434 
Q 4069 175 3628 42 
Q 3188 -91 2688 -91 
Q 1594 -91 976 548 
Q 359 1188 359 2328 
Q 359 3472 976 4111 
Q 1594 4750 2688 4750 
Q 3144 4750 3555 4637 
Q 3966 4525 4313 4306 
L 4313 3634 
Q 3963 3931 3569 4081 
Q 3175 4231 2741 4231 
Q 1884 4231 1454 3753 
Q 1025 3275 1025 2328 
Q 1025 1384 1454 906 
Q 1884 428 2741 428 
Q 3075 428 3337 486 
Q 3600 544 3809 666 
z
" transform="scale(0.015625)"/>
      <path id="DejaVuSans-68" d="M 3513 2113 
L 3513 0 
L 2938 0 
L 2938 2094 
Q 2938 2591 2744 2837 
Q 2550 3084 2163 3084 
Q 1697 3084 1428 2787 
Q 1159 2491 1159 1978 
L 1159 0 
L 581 0 
L 581 4863 
L 1159 4863 
L 1159 2956 
Q 1366 3272 1645 3428 
Q 1925 3584 2291 3584 
Q 2894 3584 3203 3211 
Q 3513 2838 3513 2113 
z
" transform="scale(0.015625)"/>
      <path id="DejaVuSans-72" d="M 2631 2963 
Q 2534 3019 2420 3045 
Q 2306 3072 2169 3072 
Q 1681 3072 1420 2755 
Q 1159 2438 1159 1844 
L 1159 0 
L 581 0 
L 581 3500 
L 1159 3500 
L 1159 2956 
Q 1341 3275 1631 3429 
Q 1922 3584 2338 3584 
Q 2397 3584 2469 3576 
Q 2541 3569 2628 3553 
L 2631 2963 
z
" transform="scale(0.015625)"/>
      <path id="DejaVuSans-5b" d="M 550 4863 
L 1875 4863 
L 1875 4416 
L 1125 4416 
L 1125 -397 
L 1875 -397 
L 1875 -844 
L 550 -844 
L 550 4863 
z
" transform="scale(0.015625)"/>
      <path id="DejaVuSans-5d" d="M 1947 4863 
L 1947 -844 
L 622 -844 
L 622 -397 
L 1369 -397 
L 1369 4416 
L 622 4416 
L 622 4863 
L 1947 4863 
z
" transform="scale(0.015625)"/>
     </defs>
     <use xlink:href="#DejaVuSans-47"/>
     <use xlink:href="#DejaVuSans-65" transform="translate(77.490234 0)"/>
     <use xlink:href="#DejaVuSans-74" transform="translate(139.013672 0)"/>
     <use xlink:href="#DejaVuSans-20" transform="translate(178.222656 0)"/>
     <use xlink:href="#DejaVuSans-63" transform="translate(210.009766 0)"/>
     <use xlink:href="#DejaVuSans-68" transform="translate(264.990234 0)"/>
     <use xlink:href="#DejaVuSans-69" transform="translate(328.369141 0)"/>
     <use xlink:href="#DejaVuSans-6c" transform="translate(356.152344 0)"/>
     <use xlink:href="#DejaVuSans-64" transform="translate(383.935547 0)"/>
     <use xlink:href="#DejaVuSans-72" transform="translate(447.412109 0)"/>
     <use xlink:href="#DejaVuSans-65" transform="translate(486.275391 0)"/>
     <use xlink:href="#DejaVuSans-6e" transform="translate(547.798828 0)"/>
     <use xlink:href="#DejaVuSans-20" transform="translate(611.177734 0)"/>
     <use xlink:href="#DejaVuSans-5b" transform="translate(642.964844 0)"/>
     <use xlink:href="#DejaVuSans-62" transform="translate(681.978516 0)"/>
     <use xlink:href="#DejaVuSans-72" transform="translate(745.455078 0)"/>
     <use xlink:href="#DejaVuSans-61" transform="translate(786.568359 0)"/>
     <use xlink:href="#DejaVuSans-6e" transform="translate(847.847656 0)"/>
     <use xlink:href="#DejaVuSans-63" transform="translate(911.226562 0)"/>
     <use xlink:href="#DejaVuSans-68" transform="translate(966.207031 0)"/>
     <use xlink:href="#DejaVuSans-5d" transform="translate(1029.585938 0)"/>
    </g>
   </g>
   <g id="legend_1">
    <g id="patch_7">
     <path d="M 92.717969 365.802375 
L 380.313281 365.802375 
Q 382.313281 365.802375 382.313281 363.802375 
L 382.313281 335.446125 
Q 382.313281 333.446125 380.313281 333.446125 
L 92.717969 333.446125 
Q 90.717969 333.446125 90.717969 335.446125 
L 90.717969 363.802375 
Q 90.717969 365.802375 92.717969 365.802375 
z
" style="fill: #4d4d4d; opacity: 0.5; stroke: #4d4d4d; stroke-linejoin: miter"/>
    </g>
    <g id="patch_8">
     <path d="M 90.717969 363.802375 
L 378.313281 363.802375 
Q 380.313281 363.802375 380.313281 361.802375 
L 380.313281 333.446125 
Q 380.313281 331.446125 378.313281 331.446125 
L 90.717969 331.446125 
Q 88.717969 331.446125 88.717969 333.446125 
L 88.717969 361.802375 
Q 88.717969 363.802375 90.717969 363.802375 
z
" style="fill: #ffffff; stroke: #cccccc; stroke-linejoin: miter"/>
    </g>
    <g id="line2d_20">
     <path d="M 92.717969 339.544562 
L 102.717969 339.544562 
L 112.717969 339.544562 
" style="fill: none; stroke: #1f77b4; stroke-opacity: 0.8; stroke-width: 1.5; stroke-linecap: square"/>
    </g>
    <g id="text_18">
     <!-- MPTT -->
     <g transform="translate(120.717969 343.044562) scale(0.1 -0.1)">
      <defs>
       <path id="DejaVuSans-4d" d="M 628 4666 
L 1569 4666 
L 2759 1491 
L 3956 4666 
L 4897 4666 
L 4897 0 
L 4281 0 
L 4281 4097 
L 3078 897 
L 2444 897 
L 1241 4097 
L 1241 0 
L 628 0 
L 628 4666 
z
" transform="scale(0.015625)"/>
       <path id="DejaVuSans-50" d="M 1259 4147 
L 1259 2394 
L 2053 2394 
Q 2494 2394 2734 2622 
Q 2975 2850 2975 3272 
Q 2975 3691 2734 3919 
Q 2494 4147 2053 4147 
L 1259 4147 
z
M 628 4666 
L 2053 4666 
Q 2838 4666 3239 4311 
Q 3641 3956 3641 3272 
Q 3641 2581 3239 2228 
Q 2838 1875 2053 1875 
L 1259 1875 
L 1259 0 
L 628 0 
L 628 4666 
z
" transform="scale(0.015625)"/>
       <path id="DejaVuSans-54" d="M -19 4666 
L 3928 4666 
L 3928 4134 
L 2272 4134 
L 2272 0 
L 1638 0 
L 1638 4134 
L -19 4134 
L -19 4666 
z
" transform="scale(0.015625)"/>
      </defs>
      <use xlink:href="#DejaVuSans-4d"/>
      <use xlink:href="#DejaVuSans-50" transform="translate(86.279297 0)"/>
      <use xlink:href="#DejaVuSans-54" transform="translate(146.582031 0)"/>
      <use xlink:href="#DejaVuSans-54" transform="translate(205.916016 0)"/>
     </g>
    </g>
    <g id="line2d_21">
     <path d="M 92.717969 354.222687 
L 102.717969 354.222687 
L 112.717969 354.222687 
" style="fill: none; stroke: #ff7f0e; stroke-opacity: 0.8; stroke-width: 1.5; stroke-linecap: square"/>
    </g>
    <g id="text_19">
     <!-- tree -->
     <g transform="translate(120.717969 357.722687) scale(0.1 -0.1)">
      <use xlink:href="#DejaVuSans-74"/>
      <use xlink:href="#DejaVuSans-72" transform="translate(39.208984 0)"/>
      <use xlink:href="#DejaVuSans-65" transform="translate(78.072266 0)"/>
      <use xlink:href="#DejaVuSans-65" transform="translate(139.595703 0)"/>
     </g>
    </g>
    <g id="line2d_22">
     <path d="M 167.416406 339.544562 
L 177.416406 339.544562 
L 187.416406 339.544562 
" style="fill: none; stroke: #2ca02c; stroke-opacity: 0.8; stroke-width: 1.5; stroke-linecap: square"/>
    </g>
    <g id="text_20">
     <!-- treebeard AL -->
     <g transform="translate(195.416406 343.044562) scale(0.1 -0.1)">
      <defs>
       <path id="DejaVuSans-4c" d="M 628 4666 
L 1259 4666 
L 1259 531 
L 3531 531 
L 3531 0 
L 628 0 
L 628 4666 
z
" transform="scale(0.015625)"/>
      </defs>
      <use xlink:href="#DejaVuSans-74"/>
      <use xlink:href="#DejaVuSans-72" transform="translate(39.208984 0)"/>
      <use xlink:href="#DejaVuSans-65" transform="translate(78.072266 0)"/>
      <use xlink:href="#DejaVuSans-65" transform="translate(139.595703 0)"/>
      <use xlink:href="#DejaVuSans-62" transform="translate(201.119141 0)"/>
      <use xlink:href="#DejaVuSans-65" transform="translate(264.595703 0)"/>
      <use xlink:href="#DejaVuSans-61" transform="translate(326.119141 0)"/>
      <use xlink:href="#DejaVuSans-72" transform="translate(387.398438 0)"/>
      <use xlink:href="#DejaVuSans-64" transform="translate(426.761719 0)"/>
      <use xlink:href="#DejaVuSans-20" transform="translate(490.238281 0)"/>
      <use xlink:href="#DejaVuSans-41" transform="translate(522.025391 0)"/>
      <use xlink:href="#DejaVuSans-4c" transform="translate(590.433594 0)"/>
     </g>
    </g>
    <g id="line2d_23">
     <path d="M 167.416406 354.222687 
L 177.416406 354.222687 
L 187.416406 354.222687 
" style="fill: none; stroke: #d62728; stroke-opacity: 0.8; stroke-width: 1.5; stroke-linecap: square"/>
    </g>
    <g id="text_21">
     <!-- treebeard MP -->
     <g transform="translate(195.416406 357.722687) scale(0.1 -0.1)">
      <use xlink:href="#DejaVuSans-74"/>
      <use xlink:href="#DejaVuSans-72" transform="translate(39.208984 0)"/>
      <use xlink:href="#DejaVuSans-65" transform="translate(78.072266 0)"/>
      <use xlink:href="#DejaVuSans-65" transform="translate(139.595703 0)"/>
      <use xlink:href="#DejaVuSans-62" transform="translate(201.119141 0)"/>
      <use xlink:href="#DejaVuSans-65" transform="translate(264.595703 0)"/>
      <use xlink:href="#DejaVuSans-61" transform="translate(326.119141 0)"/>
      <use xlink:href="#DejaVuSans-72" transform="translate(387.398438 0)"/>
      <use xlink:href="#DejaVuSans-64" transform="translate(426.761719 0)"/>
      <use xlink:href="#DejaVuSans-20" transform="translate(490.238281 0)"/>
      <use xlink:href="#DejaVuSans-4d" transform="translate(522.025391 0)"/>
      <use xlink:href="#DejaVuSans-50" transform="translate(608.304688 0)"/>
     </g>
    </g>
    <g id="line2d_24">
     <path d="M 282.278906 339.544562 
L 292.278906 339.544562 
L 302.278906 339.544562 
" style="fill: none; stroke: #9467bd; stroke-opacity: 0.8; stroke-width: 1.5; stroke-linecap: square"/>
    </g>
    <g id="text_22">
     <!-- treebeard NS -->
     <g transform="translate(310.278906 343.044562) scale(0.1 -0.1)">
      <defs>
       <path id="DejaVuSans-4e" d="M 628 4666 
L 1478 4666 
L 3547 763 
L 3547 4666 
L 4159 4666 
L 4159 0 
L 3309 0 
L 1241 3903 
L 1241 0 
L 628 0 
L 628 4666 
z
" transform="scale(0.015625)"/>
       <path id="DejaVuSans-53" d="M 3425 4513 
L 3425 3897 
Q 3066 4069 2747 4153 
Q 2428 4238 2131 4238 
Q 1616 4238 1336 4038 
Q 1056 3838 1056 3469 
Q 1056 3159 1242 3001 
Q 1428 2844 1947 2747 
L 2328 2669 
Q 3034 2534 3370 2195 
Q 3706 1856 3706 1288 
Q 3706 609 3251 259 
Q 2797 -91 1919 -91 
Q 1588 -91 1214 -16 
Q 841 59 441 206 
L 441 856 
Q 825 641 1194 531 
Q 1563 422 1919 422 
Q 2459 422 2753 634 
Q 3047 847 3047 1241 
Q 3047 1584 2836 1778 
Q 2625 1972 2144 2069 
L 1759 2144 
Q 1053 2284 737 2584 
Q 422 2884 422 3419 
Q 422 4038 858 4394 
Q 1294 4750 2059 4750 
Q 2388 4750 2728 4690 
Q 3069 4631 3425 4513 
z
" transform="scale(0.015625)"/>
      </defs>
      <use xlink:href="#DejaVuSans-74"/>
      <use xlink:href="#DejaVuSans-72" transform="translate(39.208984 0)"/>
      <use xlink:href="#DejaVuSans-65" transform="translate(78.072266 0)"/>
      <use xlink:href="#DejaVuSans-65" transform="translate(139.595703 0)"/>
      <use xlink:href="#DejaVuSans-62" transform="translate(201.119141 0)"/>
      <use xlink:href="#DejaVuSans-65" transform="translate(264.595703 0)"/>
      <use xlink:href="#DejaVuSans-61" transform="translate(326.119141 0)"/>
      <use xlink:href="#DejaVuSans-72" transform="translate(387.398438 0)"/>
      <use xlink:href="#DejaVuSans-64" transform="translate(426.761719 0)"/>
      <use xlink:href="#DejaVuSans-20" transform="translate(490.238281 0)"/>
      <use xlink:href="#DejaVuSans-4e" transform="translate(522.025391 0)"/>
      <use xlink:href="#DejaVuSans-53" transform="translate(596.830078 0)"/>
     </g>
    </g>
   </g>
  </g>
 </g>
 <defs>
  <clipPath id="p97beaf6a4b">
   <rect x="61.715625" y="22.318125" width="357.12" height="266.112"/>
  </clipPath>
 </defs>
</svg>
