<?xml version="1.0" encoding="utf-8" standalone="no"?>
<!DOCTYPE svg PUBLIC "-//W3C//DTD SVG 1.1//EN"
  "http://www.w3.org/Graphics/SVG/1.1/DTD/svg11.dtd">
<svg xmlns:xlink="http://www.w3.org/1999/xlink" width="426.035625pt" height="371.002375pt" viewBox="0 0 426.035625 371.002375" xmlns="http://www.w3.org/2000/svg" version="1.1">
 <metadata>
  <rdf:RDF xmlns:dc="http://purl.org/dc/elements/1.1/" xmlns:cc="http://creativecommons.org/ns#" xmlns:rdf="http://www.w3.org/1999/02/22-rdf-syntax-ns#">
   <cc:Work>
    <dc:type rdf:resource="http://purl.org/dc/dcmitype/StillImage"/>
    <dc:date>2026-06-28T19:50:34.409550</dc:date>
    <dc:format>image/svg+xml</dc:format>
    <dc:creator>
     <cc:Agent>
      <dc:title>Matplotlib v3.10.6, https://matplotlib.org/</dc:title>
     </cc:Agent>
    </dc:creator>
   </cc:Work>
  </rdf:RDF>
 </metadata>
 <defs>
  <style type="text/css">*{stroke-linejoin: round; stroke-linecap: butt}</style>
 </defs>
 <g id="figure_1">
  <g id="patch_1">
   <path d="M 0 371.002375 
L 426.035625 371.002375 
L 426.035625 0 
L 0 0 
z
" style="fill: #ffffff"/>
  </g>
  <g id="axes_1">
   <g id="patch_2">
    <path d="M 61.715625 288.430125 
L 418.835625 288.430125 
L 418.835625 22.318125 
L 61.715625 22.318125 
z
" style="fill: #ffffff"/>
   </g>
   <g id="matplotlib.axis_1">
    <g id="xtick_1">
     <g id="line2d_1">
      <defs>
       <path id="m5316740b3c" d="M 0 0 
L 0 3.5 
" style="stroke: #000000; stroke-width: 0.8"/>
      </defs>
      <g>
       <use xlink:href="#m5316740b3c" x="61.715625" y="288.430125" style="stroke: #000000; stroke-width: 0.8"/>
      </g>
     </g>
     <g id="text_1">
      <!-- 0 -->
      <g transform="translate(58.534375 303.028562) scale(0.1 -0.1)">
       <defs>
        <path id="DejaVuSans-30" d="M 2034 4250 
Q 1547 4250 1301 3770 
Q 1056 3291 1056 2328 
Q 1056 1369 1301 889 
Q 1547 409 2034 409 
Q 2525 409 2770 889 
Q 3016 1369 3016 2328 
Q 3016 3291 2770 3770 
Q 2525 4250 2034 4250 
z
M 2034 4750 
Q 2819 4750 3233 4129 
Q 3647 3509 3647 2328 
Q 3647 1150 3233 529 
Q 2819 -91 2034 -91 
Q 1250 -91 836 529 
Q 422 1150 422 2328 
Q 422 3509 836 4129 
Q 1250 4750 2034 4750 
z
" transform="scale(0.015625)"/>
       </defs>
       <use xlink:href="#DejaVuSans-30"/>
      </g>
     </g>
    </g>
    <g id="xtick_2">
     <g id="line2d_2">
      <g>
       <use xlink:href="#m5316740b3c" x="105.264189" y="288.430125" style="stroke: #000000; stroke-width: 0.8"/>
      </g>
     </g>
     <g id="text_2">
      <!-- 500  -->
      <g transform="translate(94.131377 303.028562) scale(0.1 -0.1)">
       <defs>
        <path id="DejaVuSans-35" d="M 691 4666 
L 3169 4666 
L 3169 4134 
L 1269 4134 
L 1269 2991 
Q 1406 3038 1543 3061 
Q 1681 3084 1819 3084 
Q 2600 3084 3056 2656 
Q 3513 2228 3513 1497 
Q 3513 744 3044 326 
Q 2575 -91 1722 -91 
Q 1428 -91 1123 -41 
Q 819 9 494 109 
L 494 744 
Q 775 591 1075 516 
Q 1375 441 1709 441 
Q 2250 441 2565 725 
Q 2881 1009 2881 1497 
Q 2881 1984 2565 2268 
Q 2250 2553 1709 2553 
Q 1456 2553 1204 2497 
Q 953 2441 691 2322 
L 691 4666 
z
" transform="scale(0.015625)"/>
        <path id="DejaVuSans-20" transform="scale(0.015625)"/>
       </defs>
       <use xlink:href="#DejaVuSans-35"/>
       <use xlink:href="#DejaVuSans-30" transform="translate(63.623047 0)"/>
       <use xlink:href="#DejaVuSans-30" transform="translate(127.246094 0)"/>
       <use xlink:href="#DejaVuSans-20" transform="translate(190.869141 0)"/>
      </g>
     </g>
    </g>
    <g id="xtick_3">
     <g id="line2d_3">
      <g>
       <use xlink:href="#m5316740b3c" x="148.812753" y="288.430125" style="stroke: #000000; stroke-width: 0.8"/>
      </g>
     </g>
     <g id="text_3">
      <!-- 1 k -->
      <g transform="translate(141.147128 303.028562) scale(0.1 -0.1)">
       <defs>
        <path id="DejaVuSans-31" d="M 794 531 
L 1825 531 
L 1825 4091 
L 703 3866 
L 703 4441 
L 1819 4666 
L 2450 4666 
L 2450 531 
L 3481 531 
L 3481 0 
L 794 0 
L 794 531 
z
" transform="scale(0.015625)"/>
        <path id="DejaVuSans-6b" d="M 581 4863 
L 1159 4863 
L 1159 1991 
L 2875 3500 
L 3609 3500 
L 1753 1863 
L 3688 0 
L 2938 0 
L 1159 1709 
L 1159 0 
L 581 0 
L 581 4863 
z
" transform="scale(0.015625)"/>
       </defs>
       <use xlink:href="#DejaVuSans-31"/>
       <use xlink:href="#DejaVuSans-20" transform="translate(63.623047 0)"/>
       <use xlink:href="#DejaVuSans-6b" transform="translate(95.410156 0)"/>
      </g>
     </g>
    </g>
    <g id="xtick_4">
     <g id="line2d_4">
      <g>
       <use xlink:href="#m5316740b3c" x="192.361317" y="288.430125" style="stroke: #000000; stroke-width: 0.8"/>
      </g>
     </g>
     <g id="text_4">
      <!-- 1.5 k -->
      <g transform="translate(179.92538 303.028562) scale(0.1 -0.1)">
       <defs>
        <path id="DejaVuSans-2e" d="M 684 794 
L 1344 794 
L 1344 0 
L 684 0 
L 684 794 
z
" transform="scale(0.015625)"/>
       </defs>
       <use xlink:href="#DejaVuSans-31"/>
       <use xlink:href="#DejaVuSans-2e" transform="translate(63.623047 0)"/>
       <use xlink:href="#DejaVuSans-35" transform="translate(95.410156 0)"/>
       <use xlink:href="#DejaVuSans-20" transform="translate(159.033203 0)"/>
       <use xlink:href="#DejaVuSans-6b" transform="translate(190.820312 0)"/>
      </g>
     </g>
    </g>
    <g id="xtick_5">
     <g id="line2d_5">
      <g>
       <use xlink:href="#m5316740b3c" x="235.909881" y="288.430125" style="stroke: #000000; stroke-width: 0.8"/>
      </g>
     </g>
     <g id="text_5">
      <!-- 2 k -->
      <g transform="translate(228.244256 303.028562) scale(0.1 -0.1)">
       <defs>
        <path id="DejaVuSans-32" d="M 1228 531 
L 3431 531 
L 3431 0 
L 469 0 
L 469 531 
Q 828 903 1448 1529 
Q 2069 2156 2228 2338 
Q 2531 2678 2651 2914 
Q 2772 3150 2772 3378 
Q 2772 3750 2511 3984 
Q 2250 4219 1831 4219 
Q 1534 4219 1204 4116 
Q 875 4013 500 3803 
L 500 4441 
Q 881 4594 1212 4672 
Q 1544 4750 1819 4750 
Q 2544 4750 2975 4387 
Q 3406 4025 3406 3419 
Q 3406 3131 3298 2873 
Q 3191 2616 2906 2266 
Q 2828 2175 2409 1742 
Q 1991 1309 1228 531 
z
" transform="scale(0.015625)"/>
       </defs>
       <use xlink:href="#DejaVuSans-32"/>
       <use xlink:href="#DejaVuSans-20" transform="translate(63.623047 0)"/>
       <use xlink:href="#DejaVuSans-6b" transform="translate(95.410156 0)"/>
      </g>
     </g>
    </g>
    <g id="xtick_6">
     <g id="line2d_6">
      <g>
       <use xlink:href="#m5316740b3c" x="279.458446" y="288.430125" style="stroke: #000000; stroke-width: 0.8"/>
      </g>
     </g>
     <g id="text_6">
      <!-- 2.5 k -->
      <g transform="translate(267.022508 303.028562) scale(0.1 -0.1)">
       <use xlink:href="#DejaVuSans-32"/>
       <use xlink:href="#DejaVuSans-2e" transform="translate(63.623047 0)"/>
       <use xlink:href="#DejaVuSans-35" transform="translate(95.410156 0)"/>
       <use xlink:href="#DejaVuSans-20" transform="translate(159.033203 0)"/>
       <use xlink:href="#DejaVuSans-6b" transform="translate(190.820312 0)"/>
      </g>
     </g>
    </g>
    <g id="xtick_7">
     <g id="line2d_7">
      <g>
       <use xlink:href="#m5316740b3c" x="323.00701" y="288.430125" style="stroke: #000000; stroke-width: 0.8"/>
      </g>
     </g>
     <g id="text_7">
      <!-- 3 k -->
      <g transform="translate(315.341385 303.028562) scale(0.1 -0.1)">
       <defs>
        <path id="DejaVuSans-33" d="M 2597 2516 
Q 3050 2419 3304 2112 
Q 3559 1806 3559 1356 
Q 3559 666 3084 287 
Q 2609 -91 1734 -91 
Q 1441 -91 1130 -33 
Q 819 25 488 141 
L 488 750 
Q 750 597 1062 519 
Q 1375 441 1716 441 
Q 2309 441 2620 675 
Q 2931 909 2931 1356 
Q 2931 1769 2642 2001 
Q 2353 2234 1838 2234 
L 1294 2234 
L 1294 2753 
L 1863 2753 
Q 2328 2753 2575 2939 
Q 2822 3125 2822 3475 
Q 2822 3834 2567 4026 
Q 2313 4219 1838 4219 
Q 1578 4219 1281 4162 
Q 984 4106 628 3988 
L 628 4550 
Q 988 4650 1302 4700 
Q 1616 4750 1894 4750 
Q 2613 4750 3031 4423 
Q 3450 4097 3450 3541 
Q 3450 3153 3228 2886 
Q 3006 2619 2597 2516 
z
" transform="scale(0.015625)"/>
       </defs>
       <use xlink:href="#DejaVuSans-33"/>
       <use xlink:href="#DejaVuSans-20" transform="translate(63.623047 0)"/>
       <use xlink:href="#DejaVuSans-6b" transform="translate(95.410156 0)"/>
      </g>
     </g>
    </g>
    <g id="xtick_8">
     <g id="line2d_8">
      <g>
       <use xlink:href="#m5316740b3c" x="366.555574" y="288.430125" style="stroke: #000000; stroke-width: 0.8"/>
      </g>
     </g>
     <g id="text_8">
      <!-- 3.5 k -->
      <g transform="translate(354.119636 303.028562) scale(0.1 -0.1)">
       <use xlink:href="#DejaVuSans-33"/>
       <use xlink:href="#DejaVuSans-2e" transform="translate(63.623047 0)"/>
       <use xlink:href="#DejaVuSans-35" transform="translate(95.410156 0)"/>
       <use xlink:href="#DejaVuSans-20" transform="translate(159.033203 0)"/>
       <use xlink:href="#DejaVuSans-6b" transform="translate(190.820312 0)"/>
      </g>
     </g>
    </g>
    <g id="xtick_9">
     <g id="line2d_9">
      <g>
       <use xlink:href="#m5316740b3c" x="410.104138" y="288.430125" style="stroke: #000000; stroke-width: 0.8"/>
      </g>
     </g>
     <g id="text_9">
      <!-- 4 k -->
      <g transform="translate(402.438513 303.028562) scale(0.1 -0.1)">
       <defs>
        <path id="DejaVuSans-34" d="M 2419 4116 
L 825 1625 
L 2419 1625 
L 2419 4116 
z
M 2253 4666 
L 3047 4666 
L 3047 1625 
L 3713 1625 
L 3713 1100 
L 3047 1100 
L 3047 0 
L 2419 0 
L 2419 1100 
L 313 1100 
L 313 1709 
L 2253 4666 
z
" transform="scale(0.015625)"/>
       </defs>
       <use xlink:href="#DejaVuSans-34"/>
       <use xlink:href="#DejaVuSans-20" transform="translate(63.623047 0)"/>
       <use xlink:href="#DejaVuSans-6b" transform="translate(95.410156 0)"/>
      </g>
     </g>
    </g>
    <g id="text_10">
     <!-- Amount of objects in table -->
     <g transform="translate(174.217031 316.706687) scale(0.1 -0.1)">
      <defs>
       <path id="DejaVuSans-41" d="M 2188 4044 
L 1331 1722 
L 3047 1722 
L 2188 4044 
z
M 1831 4666 
L 2547 4666 
L 4325 0 
L 3669 0 
L 3244 1197 
L 1141 1197 
L 716 0 
L 50 0 
L 1831 4666 
z
" transform="scale(0.015625)"/>
       <path id="DejaVuSans-6d" d="M 3328 2828 
Q 3544 3216 3844 3400 
Q 4144 3584 4550 3584 
Q 5097 3584 5394 3201 
Q 5691 2819 5691 2113 
L 5691 0 
L 5113 0 
L 5113 2094 
Q 5113 2597 4934 2840 
Q 4756 3084 4391 3084 
Q 3944 3084 3684 2787 
Q 3425 2491 3425 1978 
L 3425 0 
L 2847 0 
L 2847 2094 
Q 2847 2600 2669 2842 
Q 2491 3084 2119 3084 
Q 1678 3084 1418 2786 
Q 1159 2488 1159 1978 
L 1159 0 
L 581 0 
L 581 3500 
L 1159 3500 
L 1159 2956 
Q 1356 3278 1631 3431 
Q 1906 3584 2284 3584 
Q 2666 3584 2933 3390 
Q 3200 3197 3328 2828 
z
" transform="scale(0.015625)"/>
       <path id="DejaVuSans-6f" d="M 1959 3097 
Q 1497 3097 1228 2736 
Q 959 2375 959 1747 
Q 959 1119 1226 758 
Q 1494 397 1959 397 
Q 2419 397 2687 759 
Q 2956 1122 2956 1747 
Q 2956 2369 2687 2733 
Q 2419 3097 1959 3097 
z
M 1959 3584 
Q 2709 3584 3137 3096 
Q 3566 2609 3566 1747 
Q 3566 888 3137 398 
Q 2709 -91 1959 -91 
Q 1206 -91 779 398 
Q 353 888 353 1747 
Q 353 2609 779 3096 
Q 1206 3584 1959 3584 
z
" transform="scale(0.015625)"/>
       <path id="DejaVuSans-75" d="M 544 1381 
L 544 3500 
L 1119 3500 
L 1119 1403 
Q 1119 906 1312 657 
Q 1506 409 1894 409 
Q 2359 409 2629 706 
Q 2900 1003 2900 1516 
L 2900 3500 
L 3475 3500 
L 3475 0 
L 2900 0 
L 2900 538 
Q 2691 219 2414 64 
Q 2138 -91 1772 -91 
Q 1169 -91 856 284 
Q 544 659 544 1381 
z
M 1991 3584 
L 1991 3584 
z
" transform="scale(0.015625)"/>
       <path id="DejaVuSans-6e" d="M 3513 2113 
L 3513 0 
L 2938 0 
L 2938 2094 
Q 2938 2591 2744 2837 
Q 2550 3084 2163 3084 
Q 1697 3084 1428 2787 
Q 1159 2491 1159 1978 
L 1159 0 
L 581 0 
L 581 3500 
L 1159 3500 
L 1159 2956 
Q 1366 3272 1645 3428 
Q 1925 3584 2291 3584 
Q 2894 3584 3203 3211 
Q 3513 2838 3513 2113 
z
" transform="scale(0.015625)"/>
       <path id="DejaVuSans-74" d="M 1172 4494 
L 1172 3500 
L 2356 3500 
L 2356 3053 
L 1172 3053 
L 1172 1153 
Q 1172 725 1289 603 
Q 1406 481 1766 481 
L 2356 481 
L 2356 0 
L 1766 0 
Q 1100 0 847 248 
Q 594 497 594 1153 
L 594 3053 
L 172 3053 
L 172 3500 
L 594 3500 
L 594 4494 
L 1172 4494 
z
" transform="scale(0.015625)"/>
       <path id="DejaVuSans-66" d="M 2375 4863 
L 2375 4384 
L 1825 4384 
Q 1516 4384 1395 4259 
Q 1275 4134 1275 3809 
L 1275 3500 
L 2222 3500 
L 2222 3053 
L 1275 3053 
L 1275 0 
L 697 0 
L 697 3053 
L 147 3053 
L 147 3500 
L 697 3500 
L 697 3744 
Q 697 4328 969 4595 
Q 1241 4863 1831 4863 
L 2375 4863 
z
" transform="scale(0.015625)"/>
       <path id="DejaVuSans-62" d="M 3116 1747 
Q 3116 2381 2855 2742 
Q 2594 3103 2138 3103 
Q 1681 3103 1420 2742 
Q 1159 2381 1159 1747 
Q 1159 1113 1420 752 
Q 1681 391 2138 391 
Q 2594 391 2855 752 
Q 3116 1113 3116 1747 
z
M 1159 2969 
Q 1341 3281 1617 3432 
Q 1894 3584 2278 3584 
Q 2916 3584 3314 3078 
Q 3713 2572 3713 1747 
Q 3713 922 3314 415 
Q 2916 -91 2278 -91 
Q 1894 -91 1617 61 
Q 1341 213 1159 525 
L 1159 0 
L 581 0 
L 581 4863 
L 1159 4863 
L 1159 2969 
z
" transform="scale(0.015625)"/>
       <path id="DejaVuSans-6a" d="M 603 3500 
L 1178 3500 
L 1178 -63 
Q 1178 -731 923 -1031 
Q 669 -1331 103 -1331 
L -116 -1331 
L -116 -844 
L 38 -844 
Q 366 -844 484 -692 
Q 603 -541 603 -63 
L 603 3500 
z
M 603 4863 
L 1178 4863 
L 1178 4134 
L 603 4134 
L 603 4863 
z
" transform="scale(0.015625)"/>
       <path id="DejaVuSans-65" d="M 3597 1894 
L 3597 1613 
L 953 1613 
Q 991 1019 1311 708 
Q 1631 397 2203 397 
Q 2534 397 2845 478 
Q 3156 559 3463 722 
L 3463 178 
Q 3153 47 2828 -22 
Q 2503 -91 2169 -91 
Q 1331 -91 842 396 
Q 353 884 353 1716 
Q 353 2575 817 3079 
Q 1281 3584 2069 3584 
Q 2775 3584 3186 3129 
Q 3597 2675 3597 1894 
z
M 3022 2063 
Q 3016 2534 2758 2815 
Q 2500 3097 2075 3097 
Q 1594 3097 1305 2825 
Q 1016 2553 972 2059 
L 3022 2063 
z
" transform="scale(0.015625)"/>
       <path id="DejaVuSans-63" d="M 3122 3366 
L 3122 2828 
Q 2878 2963 2633 3030 
Q 2388 3097 2138 3097 
Q 1578 3097 1268 2742 
Q 959 2388 959 1747 
Q 959 1106 1268 751 
Q 1578 397 2138 397 
Q 2388 397 2633 464 
Q 2878 531 3122 666 
L 3122 134 
Q 2881 22 2623 -34 
Q 2366 -91 2075 -91 
Q 1284 -91 818 406 
Q 353 903 353 1747 
Q 353 2603 823 3093 
Q 1294 3584 2113 3584 
Q 2378 3584 2631 3529 
Q 2884 3475 3122 3366 
z
" transform="scale(0.015625)"/>
       <path id="DejaVuSans-73" d="M 2834 3397 
L 2834 2853 
Q 2591 2978 2328 3040 
Q 2066 3103 1784 3103 
Q 1356 3103 1142 2972 
Q 928 2841 928 2578 
Q 928 2378 1081 2264 
Q 1234 2150 1697 2047 
L 1894 2003 
Q 2506 1872 2764 1633 
Q 3022 1394 3022 966 
Q 3022 478 2636 193 
Q 2250 -91 1575 -91 
Q 1294 -91 989 -36 
Q 684 19 347 128 
L 347 722 
Q 666 556 975 473 
Q 1284 391 1588 391 
Q 1994 391 2212 530 
Q 2431 669 2431 922 
Q 2431 1156 2273 1281 
Q 2116 1406 1581 1522 
L 1381 1569 
Q 847 1681 609 1914 
Q 372 2147 372 2553 
Q 372 3047 722 3315 
Q 1072 3584 1716 3584 
Q 2034 3584 2315 3537 
Q 2597 3491 2834 3397 
z
" transform="scale(0.015625)"/>
       <path id="DejaVuSans-69" d="M 603 3500 
L 1178 3500 
L 1178 0 
L 603 0 
L 603 3500 
z
M 603 4863 
L 1178 4863 
L 1178 4134 
L 603 4134 
L 603 4863 
z
" transform="scale(0.015625)"/>
       <path id="DejaVuSans-61" d="M 2194 1759 
Q 1497 1759 1228 1600 
Q 959 1441 959 1056 
Q 959 750 1161 570 
Q 1363 391 1709 391 
Q 2188 391 2477 730 
Q 2766 1069 2766 1631 
L 2766 1759 
L 2194 1759 
z
M 3341 1997 
L 3341 0 
L 2766 0 
L 2766 531 
Q 2569 213 2275 61 
Q 1981 -91 1556 -91 
Q 1019 -91 701 211 
Q 384 513 384 1019 
Q 384 1609 779 1909 
Q 1175 2209 1959 2209 
L 2766 2209 
L 2766 2266 
Q 2766 2663 2505 2880 
Q 2244 3097 1772 3097 
Q 1472 3097 1187 3025 
Q 903 2953 641 2809 
L 641 3341 
Q 956 3463 1253 3523 
Q 1550 3584 1831 3584 
Q 2591 3584 2966 3190 
Q 3341 2797 3341 1997 
z
" transform="scale(0.015625)"/>
       <path id="DejaVuSans-6c" d="M 603 4863 
L 1178 4863 
L 1178 0 
L 603 0 
L 603 4863 
z
" transform="scale(0.015625)"/>
      </defs>
      <use xlink:href="#DejaVuSans-41"/>
      <use xlink:href="#DejaVuSans-6d" transform="translate(68.408203 0)"/>
      <use xlink:href="#DejaVuSans-6f" transform="translate(165.820312 0)"/>
      <use xlink:href="#DejaVuSans-75" transform="translate(227.001953 0)"/>
      <use xlink:href="#DejaVuSans-6e" transform="translate(290.380859 0)"/>
      <use xlink:href="#DejaVuSans-74" transform="translate(353.759766 0)"/>
      <use xlink:href="#DejaVuSans-20" transform="translate(392.96875 0)"/>
      <use xlink:href="#DejaVuSans-6f" transform="translate(424.755859 0)"/>
      <use xlink:href="#DejaVuSans-66" transform="translate(485.9375 0)"/>
      <use xlink:href="#DejaVuSans-20" transform="translate(521.142578 0)"/>
      <use xlink:href="#DejaVuSans-6f" transform="translate(552.929688 0)"/>
      <use xlink:href="#DejaVuSans-62" transform="translate(614.111328 0)"/>
      <use xlink:href="#DejaVuSans-6a" transform="translate(677.587891 0)"/>
      <use xlink:href="#DejaVuSans-65" transform="translate(705.371094 0)"/>
      <use xlink:href="#DejaVuSans-63" transform="translate(766.894531 0)"/>
      <use xlink:href="#DejaVuSans-74" transform="translate(821.875 0)"/>
      <use xlink:href="#DejaVuSans-73" transform="translate(861.083984 0)"/>
      <use xlink:href="#DejaVuSans-20" transform="translate(913.183594 0)"/>
      <use xlink:href="#DejaVuSans-69" transform="translate(944.970703 0)"/>
      <use xlink:href="#DejaVuSans-6e" transform="translate(972.753906 0)"/>
      <use xlink:href="#DejaVuSans-20" transform="translate(1036.132812 0)"/>
      <use xlink:href="#DejaVuSans-74" transform="translate(1067.919922 0)"/>
      <use xlink:href="#DejaVuSans-61" transform="translate(1107.128906 0)"/>
      <use xlink:href="#DejaVuSans-62" transform="translate(1168.408203 0)"/>
      <use xlink:href="#DejaVuSans-6c" transform="translate(1231.884766 0)"/>
      <use xlink:href="#DejaVuSans-65" transform="translate(1259.667969 0)"/>
     </g>
    </g>
   </g>
   <g id="matplotlib.axis_2">
    <g id="ytick_1">
     <g id="line2d_10">
      <defs>
       <path id="mc7f7fc1301" d="M 0 0 
L -3.5 0 
" style="stroke: #000000; stroke-width: 0.8"/>
      </defs>
      <g>
       <use xlink:href="#mc7f7fc1301" x="61.715625" y="288.430125" style="stroke: #000000; stroke-width: 0.8"/>
      </g>
     </g>
     <g id="text_11">
      <!-- 0 -->
      <g transform="translate(48.353125 292.229344) scale(0.1 -0.1)">
       <use xlink:href="#DejaVuSans-30"/>
      </g>
     </g>
    </g>
    <g id="ytick_2">
     <g id="line2d_11">
      <g>
       <use xlink:href="#mc7f7fc1301" x="61.715625" y="251.925853" style="stroke: #000000; stroke-width: 0.8"/>
      </g>
     </g>
     <g id="text_12">
      <!-- 25 µs -->
      <g transform="translate(27.240625 255.725072) scale(0.1 -0.1)">
       <defs>
        <path id="DejaVuSans-b5" d="M 544 -1331 
L 544 3500 
L 1119 3500 
L 1119 1325 
Q 1119 872 1334 640 
Q 1550 409 1972 409 
Q 2434 409 2667 671 
Q 2900 934 2900 1459 
L 2900 3500 
L 3475 3500 
L 3475 806 
Q 3475 619 3529 530 
Q 3584 441 3700 441 
Q 3728 441 3778 458 
Q 3828 475 3916 513 
L 3916 50 
Q 3788 -22 3673 -56 
Q 3559 -91 3450 -91 
Q 3234 -91 3106 31 
Q 2978 153 2931 403 
Q 2775 156 2548 32 
Q 2322 -91 2016 -91 
Q 1697 -91 1473 31 
Q 1250 153 1119 397 
L 1119 -1331 
L 544 -1331 
z
" transform="scale(0.015625)"/>
       </defs>
       <use xlink:href="#DejaVuSans-32"/>
       <use xlink:href="#DejaVuSans-35" transform="translate(63.623047 0)"/>
       <use xlink:href="#DejaVuSans-20" transform="translate(127.246094 0)"/>
       <use xlink:href="#DejaVuSans-b5" transform="translate(159.033203 0)"/>
       <use xlink:href="#DejaVuSans-73" transform="translate(222.65625 0)"/>
      </g>
     </g>
    </g>
    <g id="ytick_3">
     <g id="line2d_12">
      <g>
       <use xlink:href="#mc7f7fc1301" x="61.715625" y="215.421581" style="stroke: #000000; stroke-width: 0.8"/>
      </g>
     </g>
     <g id="text_13">
      <!-- 50 µs -->
      <g transform="translate(27.240625 219.220799) scale(0.1 -0.1)">
       <use xlink:href="#DejaVuSans-35"/>
       <use xlink:href="#DejaVuSans-30" transform="translate(63.623047 0)"/>
       <use xlink:href="#DejaVuSans-20" transform="translate(127.246094 0)"/>
       <use xlink:href="#DejaVuSans-b5" transform="translate(159.033203 0)"/>
       <use xlink:href="#DejaVuSans-73" transform="translate(222.65625 0)"/>
      </g>
     </g>
    </g>
    <g id="ytick_4">
     <g id="line2d_13">
      <g>
       <use xlink:href="#mc7f7fc1301" x="61.715625" y="178.917308" style="stroke: #000000; stroke-width: 0.8"/>
      </g>
     </g>
     <g id="text_14">
      <!-- 75 µs -->
      <g transform="translate(27.240625 182.716527) scale(0.1 -0.1)">
       <defs>
        <path id="DejaVuSans-37" d="M 525 4666 
L 3525 4666 
L 3525 4397 
L 1831 0 
L 1172 0 
L 2766 4134 
L 525 4134 
L 525 4666 
z
" transform="scale(0.015625)"/>
       </defs>
       <use xlink:href="#DejaVuSans-37"/>
       <use xlink:href="#DejaVuSans-35" transform="translate(63.623047 0)"/>
       <use xlink:href="#DejaVuSans-20" transform="translate(127.246094 0)"/>
       <use xlink:href="#DejaVuSans-b5" transform="translate(159.033203 0)"/>
       <use xlink:href="#DejaVuSans-73" transform="translate(222.65625 0)"/>
      </g>
     </g>
    </g>
    <g id="ytick_5">
     <g id="line2d_14">
      <g>
       <use xlink:href="#mc7f7fc1301" x="61.715625" y="142.413036" style="stroke: #000000; stroke-width: 0.8"/>
      </g>
     </g>
     <g id="text_15">
      <!-- 100 µs -->
      <g transform="translate(20.878125 146.212255) scale(0.1 -0.1)">
       <use xlink:href="#DejaVuSans-31"/>
       <use xlink:href="#DejaVuSans-30" transform="translate(63.623047 0)"/>
       <use xlink:href="#DejaVuSans-30" transform="translate(127.246094 0)"/>
       <use xlink:href="#DejaVuSans-20" transform="translate(190.869141 0)"/>
       <use xlink:href="#DejaVuSans-b5" transform="translate(222.65625 0)"/>
       <use xlink:href="#DejaVuSans-73" transform="translate(286.279297 0)"/>
      </g>
     </g>
    </g>
    <g id="ytick_6">
     <g id="line2d_15">
      <g>
       <use xlink:href="#mc7f7fc1301" x="61.715625" y="105.908764" style="stroke: #000000; stroke-width: 0.8"/>
      </g>
     </g>
     <g id="text_16">
      <!-- 125 µs -->
      <g transform="translate(20.878125 109.707983) scale(0.1 -0.1)">
       <use xlink:href="#DejaVuSans-31"/>
       <use xlink:href="#DejaVuSans-32" transform="translate(63.623047 0)"/>
       <use xlink:href="#DejaVuSans-35" transform="translate(127.246094 0)"/>
       <use xlink:href="#DejaVuSans-20" transform="translate(190.869141 0)"/>
       <use xlink:href="#DejaVuSans-b5" transform="translate(222.65625 0)"/>
       <use xlink:href="#DejaVuSans-73" transform="translate(286.279297 0)"/>
      </g>
     </g>
    </g>
    <g id="ytick_7">
     <g id="line2d_16">
      <g>
       <use xlink:href="#mc7f7fc1301" x="61.715625" y="69.404492" style="stroke: #000000; stroke-width: 0.8"/>
      </g>
     </g>
     <g id="text_17">
      <!-- 150 µs -->
      <g transform="translate(20.878125 73.203711) scale(0.1 -0.1)">
       <use xlink:href="#DejaVuSans-31"/>
       <use xlink:href="#DejaVuSans-35" transform="translate(63.623047 0)"/>
       <use xlink:href="#DejaVuSans-30" transform="translate(127.246094 0)"/>
       <use xlink:href="#DejaVuSans-20" transform="translate(190.869141 0)"/>
       <use xlink:href="#DejaVuSans-b5" transform="translate(222.65625 0)"/>
       <use xlink:href="#DejaVuSans-73" transform="translate(286.279297 0)"/>
      </g>
     </g>
    </g>
    <g id="ytick_8">
     <g id="line2d_17">
      <g>
       <use xlink:href="#mc7f7fc1301" x="61.715625" y="32.90022" style="stroke: #000000; stroke-width: 0.8"/>
      </g>
     </g>
     <g id="text_18">
      <!-- 175 µs -->
      <g transform="translate(20.878125 36.699439) scale(0.1 -0.1)">
       <use xlink:href="#DejaVuSans-31"/>
       <use xlink:href="#DejaVuSans-37" transform="translate(63.623047 0)"/>
       <use xlink:href="#DejaVuSans-35" transform="translate(127.246094 0)"/>
       <use xlink:href="#DejaVuSans-20" transform="translate(190.869141 0)"/>
       <use xlink:href="#DejaVuSans-b5" transform="translate(222.65625 0)"/>
       <use xlink:href="#DejaVuSans-73" transform="translate(286.279297 0)"/>
      </g>
     </g>
    </g>
    <g id="text_19">
     <!-- Read latency (s) -->
     <g transform="translate(14.798438 195.98975) rotate(-90) scale(0.1 -0.1)">
      <defs>
       <path id="DejaVuSans-52" d="M 2841 2188 
Q 3044 2119 3236 1894 
Q 3428 1669 3622 1275 
L 4263 0 
L 3584 0 
L 2988 1197 
Q 2756 1666 2539 1819 
Q 2322 1972 1947 1972 
L 1259 1972 
L 1259 0 
L 628 0 
L 628 4666 
L 2053 4666 
Q 2853 4666 3247 4331 
Q 3641 3997 3641 3322 
Q 3641 2881 3436 2590 
Q 3231 2300 2841 2188 
z
M 1259 4147 
L 1259 2491 
L 2053 2491 
Q 2509 2491 2742 2702 
Q 2975 2913 2975 3322 
Q 2975 3731 2742 3939 
Q 2509 4147 2053 4147 
L 1259 4147 
z
" transform="scale(0.015625)"/>
       <path id="DejaVuSans-64" d="M 2906 2969 
L 2906 4863 
L 3481 4863 
L 3481 0 
L 2906 0 
L 2906 525 
Q 2725 213 2448 61 
Q 2172 -91 1784 -91 
Q 1150 -91 751 415 
Q 353 922 353 1747 
Q 353 2572 751 3078 
Q 1150 3584 1784 3584 
Q 2172 3584 2448 3432 
Q 2725 3281 2906 2969 
z
M 947 1747 
Q 947 1113 1208 752 
Q 1469 391 1925 391 
Q 2381 391 2643 752 
Q 2906 1113 2906 1747 
Q 2906 2381 2643 2742 
Q 2381 3103 1925 3103 
Q 1469 3103 1208 2742 
Q 947 2381 947 1747 
z
" transform="scale(0.015625)"/>
       <path id="DejaVuSans-79" d="M 2059 -325 
Q 1816 -950 1584 -1140 
Q 1353 -1331 966 -1331 
L 506 -1331 
L 506 -850 
L 844 -850 
Q 1081 -850 1212 -737 
Q 1344 -625 1503 -206 
L 1606 56 
L 191 3500 
L 800 3500 
L 1894 763 
L 2988 3500 
L 3597 3500 
L 2059 -325 
z
" transform="scale(0.015625)"/>
       <path id="DejaVuSans-28" d="M 1984 4856 
Q 1566 4138 1362 3434 
Q 1159 2731 1159 2009 
Q 1159 1288 1364 580 
Q 1569 -128 1984 -844 
L 1484 -844 
Q 1016 -109 783 600 
Q 550 1309 550 2009 
Q 550 2706 781 3412 
Q 1013 4119 1484 4856 
L 1984 4856 
z
" transform="scale(0.015625)"/>
       <path id="DejaVuSans-29" d="M 513 4856 
L 1013 4856 
Q 1481 4119 1714 3412 
Q 1947 2706 1947 2009 
Q 1947 1309 1714 600 
Q 1481 -109 1013 -844 
L 513 -844 
Q 928 -128 1133 580 
Q 1338 1288 1338 2009 
Q 1338 2731 1133 3434 
Q 928 4138 513 4856 
z
" transform="scale(0.015625)"/>
      </defs>
      <use xlink:href="#DejaVuSans-52"/>
      <use xlink:href="#DejaVuSans-65" transform="translate(64.982422 0)"/>
      <use xlink:href="#DejaVuSans-61" transform="translate(126.505859 0)"/>
      <use xlink:href="#DejaVuSans-64" transform="translate(187.785156 0)"/>
      <use xlink:href="#DejaVuSans-20" transform="translate(251.261719 0)"/>
      <use xlink:href="#DejaVuSans-6c" transform="translate(283.048828 0)"/>
      <use xlink:href="#DejaVuSans-61" transform="translate(310.832031 0)"/>
      <use xlink:href="#DejaVuSans-74" transform="translate(372.111328 0)"/>
      <use xlink:href="#DejaVuSans-65" transform="translate(411.320312 0)"/>
      <use xlink:href="#DejaVuSans-6e" transform="translate(472.84375 0)"/>
      <use xlink:href="#DejaVuSans-63" transform="translate(536.222656 0)"/>
      <use xlink:href="#DejaVuSans-79" transform="translate(591.203125 0)"/>
      <use xlink:href="#DejaVuSans-20" transform="translate(650.382812 0)"/>
      <use xlink:href="#DejaVuSans-28" transform="translate(682.169922 0)"/>
      <use xlink:href="#DejaVuSans-73" transform="translate(721.183594 0)"/>
      <use xlink:href="#DejaVuSans-29" transform="translate(773.283203 0)"/>
     </g>
    </g>
   </g>
   <g id="line2d_18">
    <path d="M 148.812753 80.734652 
L 157.522466 100.438916 
L 166.232179 127.767268 
L 174.941892 128.567971 
L 183.651605 129.681993 
L 192.361317 129.299048 
L 201.07103 126.653246 
L 209.780743 125.504411 
L 218.490456 123.937817 
L 227.200169 123.763751 
L 235.909881 122.997861 
L 244.619594 126.444367 
L 253.329307 123.868191 
L 262.03902 125.748103 
L 270.748733 126.688059 
L 279.458446 125.399971 
L 288.168158 124.982213 
L 296.877871 125.887356 
L 305.587584 123.241554 
L 314.297297 120.665378 
L 323.00701 120.665378 
L 331.716722 116.452982 
L 340.426435 113.91162 
L 349.136148 111.161378 
L 357.845861 109.664411 
L 366.555574 109.699224 
L 375.265287 111.091751 
L 383.974999 108.480762 
L 392.684712 108.202257 
L 401.394425 107.123048 
L 401.829911 108.898521 
" clip-path="url(#p1f9acedcb8)" style="fill: none; stroke: #1f77b4; stroke-opacity: 0.8; stroke-width: 1.5; stroke-linecap: square"/>
   </g>
   <g id="line2d_19">
    <path d="M 148.812753 174.068806 
L 157.522466 176.366477 
L 166.232179 178.107136 
L 174.941892 177.027927 
L 183.651605 174.033993 
L 192.361317 175.287268 
L 201.07103 191.4754 
L 209.780743 190.918389 
L 218.490456 188.446652 
L 227.200169 189.908806 
L 235.909881 190.291751 
L 244.619594 190.396191 
L 253.329307 189.038477 
L 262.03902 187.019312 
L 270.748733 186.531927 
L 279.458446 187.959268 
L 288.168158 188.899224 
L 296.877871 188.829598 
L 305.587584 190.744323 
L 314.297297 190.744323 
L 323.00701 190.918389 
L 331.716722 190.50063 
L 340.426435 190.70951 
L 349.136148 192.171663 
L 357.845861 195.30485 
L 366.555574 196.27962 
L 375.265287 197.672147 
L 383.974999 197.358828 
L 392.684712 197.358828 
L 401.394425 194.852279 
L 401.829911 196.17518 
" clip-path="url(#p1f9acedcb8)" style="fill: none; stroke: #ff7f0e; stroke-opacity: 0.8; stroke-width: 1.5; stroke-linecap: square"/>
   </g>
   <g id="line2d_20">
    <path d="M 148.812753 277.638037 
L 157.522466 276.802521 
L 166.232179 276.489202 
L 174.941892 276.315136 
L 183.651605 276.175883 
L 192.361317 275.688499 
L 201.07103 275.235927 
L 209.780743 274.992235 
L 218.490456 275.131488 
L 227.200169 275.688499 
L 235.909881 275.235927 
L 244.619594 276.349949 
L 253.329307 276.384762 
L 262.03902 276.384762 
L 270.748733 276.14107 
L 279.458446 275.967004 
L 288.168158 276.24551 
L 296.877871 276.315136 
L 305.587584 276.315136 
L 314.297297 275.688499 
L 323.00701 275.792938 
L 331.716722 275.653685 
L 340.426435 275.514433 
L 349.136148 275.340367 
L 357.845861 275.235927 
L 366.555574 275.514433 
L 375.265287 275.235927 
L 383.974999 274.783356 
L 392.684712 274.574477 
L 401.394425 274.887795 
L 401.829911 274.678916 
" clip-path="url(#p1f9acedcb8)" style="fill: none; stroke: #2ca02c; stroke-opacity: 0.8; stroke-width: 1.5; stroke-linecap: square"/>
   </g>
   <g id="line2d_21">
    <path d="M 148.812753 186.323048 
L 157.522466 186.531927 
L 166.232179 186.392674 
L 174.941892 182.806916 
L 183.651605 180.544059 
L 192.361317 178.211576 
L 201.07103 172.119268 
L 209.780743 165.609202 
L 218.490456 163.590037 
L 227.200169 157.915488 
L 235.909881 155.687444 
L 244.619594 151.892806 
L 253.329307 149.595136 
L 262.03902 127.906521 
L 270.748733 126.131048 
L 279.458446 128.254652 
L 288.168158 131.492279 
L 296.877871 137.166828 
L 305.587584 135.809114 
L 314.297297 136.992762 
L 323.00701 136.783883 
L 331.716722 139.638565 
L 340.426435 139.603751 
L 349.136148 161.048674 
L 357.845861 160.630916 
L 366.555574 158.542125 
L 375.265287 156.418521 
L 383.974999 154.468982 
L 392.684712 154.051224 
L 401.394425 156.940718 
L 401.829911 155.025993 
" clip-path="url(#p1f9acedcb8)" style="fill: none; stroke: #d62728; stroke-opacity: 0.8; stroke-width: 1.5; stroke-linecap: square"/>
   </g>
   <g id="line2d_22">
    <path d="M 148.812753 155.86151 
L 157.522466 157.602169 
L 166.232179 159.342828 
L 174.941892 159.482081 
L 183.651605 160.073905 
L 192.361317 157.497729 
L 201.07103 155.304499 
L 209.780743 149.699576 
L 218.490456 150.709158 
L 227.200169 144.164279 
L 235.909881 141.205158 
L 244.619594 138.594169 
L 253.329307 133.128499 
L 262.03902 131.213773 
L 270.748733 131.144147 
L 279.458446 133.789949 
L 288.168158 134.555839 
L 296.877871 100.821861 
L 305.587584 63.328059 
L 314.297297 69.733685 
L 323.00701 69.698872 
L 331.716722 68.793729 
L 340.426435 70.812894 
L 349.136148 70.151444 
L 357.845861 38.367004 
L 366.555574 36.521905 
L 375.265287 34.990125 
L 383.974999 73.632762 
L 392.684712 108.411136 
L 401.394425 107.958565 
L 401.829911 109.908103 
" clip-path="url(#p1f9acedcb8)" style="fill: none; stroke: #9467bd; stroke-opacity: 0.8; stroke-width: 1.5; stroke-linecap: square"/>
   </g>
   <g id="patch_3">
    <path d="M 61.715625 288.430125 
L 61.715625 22.318125 
" style="fill: none; stroke: #000000; stroke-width: 0.8; stroke-linejoin: miter; stroke-linecap: square"/>
   </g>
   <g id="patch_4">
    <path d="M 418.835625 288.430125 
L 418.835625 22.318125 
" style="fill: none; stroke: #000000; stroke-width: 0.8; stroke-linejoin: miter; stroke-linecap: square"/>
   </g>
   <g id="patch_5">
    <path d="M 61.715625 288.430125 
L 418.835625 288.430125 
" style="fill: none; stroke: #000000; stroke-width: 0.8; stroke-linejoin: miter; stroke-linecap: square"/>
   </g>
   <g id="patch_6">
    <path d="M 61.715625 22.318125 
L 418.835625 22.318125 
" style="fill: none; stroke: #000000; stroke-width: 0.8; stroke-linejoin: miter; stroke-linecap: square"/>
   </g>
   <g id="text_20">
    <!-- Get ancestors [root] -->
    <g transform="translate(179.849063 16.318125) scale(0.12 -0.12)">
     <defs>
      <path id="DejaVuSans-47" d="M 3809 666 
L 3809 1919 
L 2778 1919 
L 2778 2438 
L 4434 2438 
L 4434 434 
Q 4069 175 3628 42 
Q 3188 -91 2688 -91 
Q 1594 -91 976 548 
Q 359 1188 359 2328 
Q 359 3472 976 4111 
Q 1594 4750 2688 4750 
Q 3144 4750 3555 4637 
Q 3966 4525 4313 4306 
L 4313 3634 
Q 3963 3931 3569 4081 
Q 3175 4231 2741 4231 
Q 1884 4231 1454 3753 
Q 1025 3275 1025 2328 
Q 1025 1384 1454 906 
Q 1884 428 2741 428 
Q 3075 428 3337 486 
Q 3600 544 3809 666 
z
" transform="scale(0.015625)"/>
      <path id="DejaVuSans-72" d="M 2631 2963 
Q 2534 3019 2420 3045 
Q 2306 3072 2169 3072 
Q 1681 3072 1420 2755 
Q 1159 2438 1159 1844 
L 1159 0 
L 581 0 
L 581 3500 
L 1159 3500 
L 1159 2956 
Q 1341 3275 1631 3429 
Q 1922 3584 2338 3584 
Q 2397 3584 2469 3576 
Q 2541 3569 2628 3553 
L 2631 2963 
z
" transform="scale(0.015625)"/>
      <path id="DejaVuSans-5b" d="M 550 4863 
L 1875 4863 
L 1875 4416 
L 1125 4416 
L 1125 -397 
L 1875 -397 
L 1875 -844 
L 550 -844 
L 550 4863 
z
" transform="scale(0.015625)"/>
      <path id="DejaVuSans-5d" d="M 1947 4863 
L 1947 -844 
L 622 -844 
L 622 -397 
L 1369 -397 
L 1369 4416 
L 622 4416 
L 622 4863 
L 1947 4863 
z
" transform="scale(0.015625)"/>
     </defs>
     <use xlink:href="#DejaVuSans-47"/>
     <use xlink:href="#DejaVuSans-65" transform="translate(77.490234 0)"/>
     <use xlink:href="#DejaVuSans-74" transform="translate(139.013672 0)"/>
     <use xlink:href="#DejaVuSans-20" transform="translate(178.222656 0)"/>
     <use xlink:href="#DejaVuSans-61" transform="translate(210.009766 0)"/>
     <use xlink:href="#DejaVuSans-6e" transform="translate(271.289062 0)"/>
     <use xlink:href="#DejaVuSans-63" transform="translate(334.667969 0)"/>
     <use xlink:href="#DejaVuSans-65" transform="translate(389.648438 0)"/>
     <use xlink:href="#DejaVuSans-73" transform="translate(451.171875 0)"/>
     <use xlink:href="#DejaVuSans-74" transform="translate(503.271484 0)"/>
     <use xlink:href="#DejaVuSans-6f" transform="translate(542.480469 0)"/>
     <use xlink:href="#DejaVuSans-72" transform="translate(603.662109 0)"/>
     <use xlink:href="#DejaVuSans-73" transform="translate(644.775391 0)"/>
     <use xlink:href="#DejaVuSans-20" transform="translate(696.875 0)"/>
     <use xlink:href="#DejaVuSans-5b" transform="translate(728.662109 0)"/>
     <use xlink:href="#DejaVuSans-72" transform="translate(767.675781 0)"/>
     <use xlink:href="#DejaVuSans-6f" transform="translate(806.539062 0)"/>
     <use xlink:href="#DejaVuSans-6f" transform="translate(867.720703 0)"/>
     <use xlink:href="#DejaVuSans-74" transform="translate(928.902344 0)"/>
     <use xlink:href="#DejaVuSans-5d" transform="translate(968.111328 0)"/>
    </g>
   </g>
   <g id="legend_1">
    <g id="patch_7">
     <path d="M 92.717969 365.802375 
L 380.313281 365.802375 
Q 382.313281 365.802375 382.313281 363.802375 
L 382.313281 335.446125 
Q 382.313281 333.446125 380.313281 333.446125 
L 92.717969 333.446125 
Q 90.717969 333.446125 90.717969 335.446125 
L 90.717969 363.802375 
Q 90.717969 365.802375 92.717969 365.802375 
z
" style="fill: #4d4d4d; opacity: 0.5; stroke: #4d4d4d; stroke-linejoin: miter"/>
    </g>
    <g id="patch_8">
     <path d="M 90.717969 363.802375 
L 378.313281 363.802375 
Q 380.313281 363.802375 380.313281 361.802375 
L 380.313281 333.446125 
Q 380.313281 331.446125 378.313281 331.446125 
L 90.717969 331.446125 
Q 88.717969 331.446125 88.717969 333.446125 
L 88.717969 361.802375 
Q 88.717969 363.802375 90.717969 363.802375 
z
" style="fill: #ffffff; stroke: #cccccc; stroke-linejoin: miter"/>
    </g>
    <g id="line2d_23">
     <path d="M 92.717969 339.544562 
L 102.717969 339.544562 
L 112.717969 339.544562 
" style="fill: none; stroke: #1f77b4; stroke-opacity: 0.8; stroke-width: 1.5; stroke-linecap: square"/>
    </g>
    <g id="text_21">
     <!-- MPTT -->
     <g transform="translate(120.717969 343.044562) scale(0.1 -0.1)">
      <defs>
       <path id="DejaVuSans-4d" d="M 628 4666 
L 1569 4666 
L 2759 1491 
L 3956 4666 
L 4897 4666 
L 4897 0 
L 4281 0 
L 4281 4097 
L 3078 897 
L 2444 897 
L 1241 4097 
L 1241 0 
L 628 0 
L 628 4666 
z
" transform="scale(0.015625)"/>
       <path id="DejaVuSans-50" d="M 1259 4147 
L 1259 2394 
L 2053 2394 
Q 2494 2394 2734 2622 
Q 2975 2850 2975 3272 
Q 2975 3691 2734 3919 
Q 2494 4147 2053 4147 
L 1259 4147 
z
M 628 4666 
L 2053 4666 
Q 2838 4666 3239 4311 
Q 3641 3956 3641 3272 
Q 3641 2581 3239 2228 
Q 2838 1875 2053 1875 
L 1259 1875 
L 1259 0 
L 628 0 
L 628 4666 
z
" transform="scale(0.015625)"/>
       <path id="DejaVuSans-54" d="M -19 4666 
L 3928 4666 
L 3928 4134 
L 2272 4134 
L 2272 0 
L 1638 0 
L 1638 4134 
L -19 4134 
L -19 4666 
z
" transform="scale(0.015625)"/>
      </defs>
      <use xlink:href="#DejaVuSans-4d"/>
      <use xlink:href="#DejaVuSans-50" transform="translate(86.279297 0)"/>
      <use xlink:href="#DejaVuSans-54" transform="translate(146.582031 0)"/>
      <use xlink:href="#DejaVuSans-54" transform="translate(205.916016 0)"/>
     </g>
    </g>
    <g id="line2d_24">
     <path d="M 92.717969 354.222687 
L 102.717969 354.222687 
L 112.717969 354.222687 
" style="fill: none; stroke: #ff7f0e; stroke-opacity: 0.8; stroke-width: 1.5; stroke-linecap: square"/>
    </g>
    <g id="text_22">
     <!-- tree -->
     <g transform="translate(120.717969 357.722687) scale(0.1 -0.1)">
      <use xlink:href="#DejaVuSans-74"/>
      <use xlink:href="#DejaVuSans-72" transform="translate(39.208984 0)"/>
      <use xlink:href="#DejaVuSans-65" transform="translate(78.072266 0)"/>
      <use xlink:href="#DejaVuSans-65" transform="translate(139.595703 0)"/>
     </g>
    </g>
    <g id="line2d_25">
     <path d="M 167.416406 339.544562 
L 177.416406 339.544562 
L 187.416406 339.544562 
" style="fill: none; stroke: #2ca02c; stroke-opacity: 0.8; stroke-width: 1.5; stroke-linecap: square"/>
    </g>
    <g id="text_23">
     <!-- treebeard AL -->
     <g transform="translate(195.416406 343.044562) scale(0.1 -0.1)">
      <defs>
       <path id="DejaVuSans-4c" d="M 628 4666 
L 1259 4666 
L 1259 531 
L 3531 531 
L 3531 0 
L 628 0 
L 628 4666 
z
" transform="scale(0.015625)"/>
      </defs>
      <use xlink:href="#DejaVuSans-74"/>
      <use xlink:href="#DejaVuSans-72" transform="translate(39.208984 0)"/>
      <use xlink:href="#DejaVuSans-65" transform="translate(78.072266 0)"/>
      <use xlink:href="#DejaVuSans-65" transform="translate(139.595703 0)"/>
      <use xlink:href="#DejaVuSans-62" transform="translate(201.119141 0)"/>
      <use xlink:href="#DejaVuSans-65" transform="translate(264.595703 0)"/>
      <use xlink:href="#DejaVuSans-61" transform="translate(326.119141 0)"/>
      <use xlink:href="#DejaVuSans-72" transform="translate(387.398438 0)"/>
      <use xlink:href="#DejaVuSans-64" transform="translate(426.761719 0)"/>
      <use xlink:href="#DejaVuSans-20" transform="translate(490.238281 0)"/>
      <use xlink:href="#DejaVuSans-41" transform="translate(522.025391 0)"/>
      <use xlink:href="#DejaVuSans-4c" transform="translate(590.433594 0)"/>
     </g>
    </g>
    <g id="line2d_26">
     <path d="M 167.416406 354.222687 
L 177.416406 354.222687 
L 187.416406 354.222687 
" style="fill: none; stroke: #d62728; stroke-opacity: 0.8; stroke-width: 1.5; stroke-linecap: square"/>
    </g>
    <g id="text_24">
     <!-- treebeard MP -->
     <g transform="translate(195.416406 357.722687) scale(0.1 -0.1)">
      <use xlink:href="#DejaVuSans-74"/>
      <use xlink:href="#DejaVuSans-72" transform="translate(39.208984 0)"/>
      <use xlink:href="#DejaVuSans-65" transform="translate(78.072266 0)"/>
      <use xlink:href="#DejaVuSans-65" transform="translate(139.595703 0)"/>
      <use xlink:href="#DejaVuSans-62" transform="translate(201.119141 0)"/>
      <use xlink:href="#DejaVuSans-65" transform="translate(264.595703 0)"/>
      <use xlink:href="#DejaVuSans-61" transform="translate(326.119141 0)"/>
      <use xlink:href="#DejaVuSans-72" transform="translate(387.398438 0)"/>
      <use xlink:href="#DejaVuSans-64" transform="translate(426.761719 0)"/>
      <use xlink:href="#DejaVuSans-20" transform="translate(490.238281 0)"/>
      <use xlink:href="#DejaVuSans-4d" transform="translate(522.025391 0)"/>
      <use xlink:href="#DejaVuSans-50" transform="translate(608.304688 0)"/>
     </g>
    </g>
    <g id="line2d_27">
     <path d="M 282.278906 339.544562 
L 292.278906 339.544562 
L 302.278906 339.544562 
" style="fill: none; stroke: #9467bd; stroke-opacity: 0.8; stroke-width: 1.5; stroke-linecap: square"/>
    </g>
    <g id="text_25">
     <!-- treebeard NS -->
     <g transform="translate(310.278906 343.044562) scale(0.1 -0.1)">
      <defs>
       <path id="DejaVuSans-4e" d="M 628 4666 
L 1478 4666 
L 3547 763 
L 3547 4666 
L 4159 4666 
L 4159 0 
L 3309 0 
L 1241 3903 
L 1241 0 
L 628 0 
L 628 4666 
z
" transform="scale(0.015625)"/>
       <path id="DejaVuSans-53" d="M 3425 4513 
L 3425 3897 
Q 3066 4069 2747 4153 
Q 2428 4238 2131 4238 
Q 1616 4238 1336 4038 
Q 1056 3838 1056 3469 
Q 1056 3159 1242 3001 
Q 1428 2844 1947 2747 
L 2328 2669 
Q 3034 2534 3370 2195 
Q 3706 1856 3706 1288 
Q 3706 609 3251 259 
Q 2797 -91 1919 -91 
Q 1588 -91 1214 -16 
Q 841 59 441 206 
L 441 856 
Q 825 641 1194 531 
Q 1563 422 1919 422 
Q 2459 422 2753 634 
Q 3047 847 3047 1241 
Q 3047 1584 2836 1778 
Q 2625 1972 2144 2069 
L 1759 2144 
Q 1053 2284 737 2584 
Q 422 2884 422 3419 
Q 422 4038 858 4394 
Q 1294 4750 2059 4750 
Q 2388 4750 2728 4690 
Q 3069 4631 3425 4513 
z
" transform="scale(0.015625)"/>
      </defs>
      <use xlink:href="#DejaVuSans-74"/>
      <use xlink:href="#DejaVuSans-72" transform="translate(39.208984 0)"/>
      <use xlink:href="#DejaVuSans-65" transform="translate(78.072266 0)"/>
      <use xlink:href="#DejaVuSans-65" transform="translate(139.595703 0)"/>
      <use xlink:href="#DejaVuSans-62" transform="translate(201.119141 0)"/>
      <use xlink:href="#DejaVuSans-65" transform="translate(264.595703 0)"/>
      <use xlink:href="#DejaVuSans-61" transform="translate(326.119141 0)"/>
      <use xlink:href="#DejaVuSans-72" transform="translate(387.398438 0)"/>
      <use xlink:href="#DejaVuSans-64" transform="translate(426.761719 0)"/>
      <use xlink:href="#DejaVuSans-20" transform="translate(490.238281 0)"/>
      <use xlink:href="#DejaVuSans-4e" transform="translate(522.025391 0)"/>
      <use xlink:href="#DejaVuSans-53" transform="translate(596.830078 0)"/>
     </g>
    </g>
   </g>
  </g>
 </g>
 <defs>
  <clipPath id="p1f9acedcb8">
   <rect x="61.715625" y="22.318125" width="357.12" height="266.112"/>
  </clipPath>
 </defs>
</svg>
