<?xml version="1.0" encoding="utf-8" standalone="no"?>
<!DOCTYPE svg PUBLIC "-//W3C//DTD SVG 1.1//EN"
  "http://www.w3.org/Graphics/SVG/1.1/DTD/svg11.dtd">
<!-- Created with matplotlib (https://matplotlib.org/) -->
<svg height="371.002375pt" version="1.1" viewBox="0 0 426.229375 371.002375" width="426.229375pt" xmlns="http://www.w3.org/2000/svg" xmlns:xlink="http://www.w3.org/1999/xlink">
 <metadata>
  <rdf:RDF xmlns:cc="http://creativecommons.org/ns#" xmlns:dc="http://purl.org/dc/elements/1.1/" xmlns:rdf="http://www.w3.org/1999/02/22-rdf-syntax-ns#">
   <cc:Work>
    <dc:type rdf:resource="http://purl.org/dc/dcmitype/StillImage"/>
    <dc:date>2023-07-05T09:05:24.356838</dc:date>
    <dc:format>image/svg+xml</dc:format>
    <dc:creator>
     <cc:Agent>
      <dc:title>Matplotlib v3.3.4, https://matplotlib.org/</dc:title>
     </cc:Agent>
    </dc:creator>
   </cc:Work>
  </rdf:RDF>
 </metadata>
 <defs>
  <style type="text/css">*{stroke-linecap:butt;stroke-linejoin:round;}</style>
 </defs>
 <g id="figure_1">
  <g id="patch_1">
   <path d="M 0 371.002375 
L 426.229375 371.002375 
L 426.229375 0 
L 0 0 
z
" style="fill:#ffffff;"/>
  </g>
  <g id="axes_1">
   <g id="patch_2">
    <path d="M 61.909375 288.430125 
L 419.029375 288.430125 
L 419.029375 22.318125 
L 61.909375 22.318125 
z
" style="fill:#ffffff;"/>
   </g>
   <g id="matplotlib.axis_1">
    <g id="xtick_1">
     <g id="line2d_1">
      <defs>
       <path d="M 0 0 
L 0 3.5 
" id="m975ab1105f" style="stroke:#000000;stroke-width:0.8;"/>
      </defs>
      <g>
       <use style="stroke:#000000;stroke-width:0.8;" x="61.909375" xlink:href="#m975ab1105f" y="288.430125"/>
      </g>
     </g>
     <g id="text_1">
      <!-- 0 -->
      <g transform="translate(58.728125 303.028562)scale(0.1 -0.1)">
       <defs>
        <path d="M 31.78125 66.40625 
Q 24.171875 66.40625 20.328125 58.90625 
Q 16.5 51.421875 16.5 36.375 
Q 16.5 21.390625 20.328125 13.890625 
Q 24.171875 6.390625 31.78125 6.390625 
Q 39.453125 6.390625 43.28125 13.890625 
Q 47.125 21.390625 47.125 36.375 
Q 47.125 51.421875 43.28125 58.90625 
Q 39.453125 66.40625 31.78125 66.40625 
z
M 31.78125 74.21875 
Q 44.046875 74.21875 50.515625 64.515625 
Q 56.984375 54.828125 56.984375 36.375 
Q 56.984375 17.96875 50.515625 8.265625 
Q 44.046875 -1.421875 31.78125 -1.421875 
Q 19.53125 -1.421875 13.0625 8.265625 
Q 6.59375 17.96875 6.59375 36.375 
Q 6.59375 54.828125 13.0625 64.515625 
Q 19.53125 74.21875 31.78125 74.21875 
z
" id="DejaVuSans-48"/>
       </defs>
       <use xlink:href="#DejaVuSans-48"/>
      </g>
     </g>
    </g>
    <g id="xtick_2">
     <g id="line2d_2">
      <g>
       <use style="stroke:#000000;stroke-width:0.8;" x="105.457939" xlink:href="#m975ab1105f" y="288.430125"/>
      </g>
     </g>
     <g id="text_2">
      <!-- 500  -->
      <g transform="translate(94.325127 303.028562)scale(0.1 -0.1)">
       <defs>
        <path d="M 10.796875 72.90625 
L 49.515625 72.90625 
L 49.515625 64.59375 
L 19.828125 64.59375 
L 19.828125 46.734375 
Q 21.96875 47.46875 24.109375 47.828125 
Q 26.265625 48.1875 28.421875 48.1875 
Q 40.625 48.1875 47.75 41.5 
Q 54.890625 34.8125 54.890625 23.390625 
Q 54.890625 11.625 47.5625 5.09375 
Q 40.234375 -1.421875 26.90625 -1.421875 
Q 22.3125 -1.421875 17.546875 -0.640625 
Q 12.796875 0.140625 7.71875 1.703125 
L 7.71875 11.625 
Q 12.109375 9.234375 16.796875 8.0625 
Q 21.484375 6.890625 26.703125 6.890625 
Q 35.15625 6.890625 40.078125 11.328125 
Q 45.015625 15.765625 45.015625 23.390625 
Q 45.015625 31 40.078125 35.4375 
Q 35.15625 39.890625 26.703125 39.890625 
Q 22.75 39.890625 18.8125 39.015625 
Q 14.890625 38.140625 10.796875 36.28125 
z
" id="DejaVuSans-53"/>
        <path id="DejaVuSans-32"/>
       </defs>
       <use xlink:href="#DejaVuSans-53"/>
       <use x="63.623047" xlink:href="#DejaVuSans-48"/>
       <use x="127.246094" xlink:href="#DejaVuSans-48"/>
       <use x="190.869141" xlink:href="#DejaVuSans-32"/>
      </g>
     </g>
    </g>
    <g id="xtick_3">
     <g id="line2d_3">
      <g>
       <use style="stroke:#000000;stroke-width:0.8;" x="149.006503" xlink:href="#m975ab1105f" y="288.430125"/>
      </g>
     </g>
     <g id="text_3">
      <!-- 1 k -->
      <g transform="translate(141.340878 303.028562)scale(0.1 -0.1)">
       <defs>
        <path d="M 12.40625 8.296875 
L 28.515625 8.296875 
L 28.515625 63.921875 
L 10.984375 60.40625 
L 10.984375 69.390625 
L 28.421875 72.90625 
L 38.28125 72.90625 
L 38.28125 8.296875 
L 54.390625 8.296875 
L 54.390625 0 
L 12.40625 0 
z
" id="DejaVuSans-49"/>
        <path d="M 9.078125 75.984375 
L 18.109375 75.984375 
L 18.109375 31.109375 
L 44.921875 54.6875 
L 56.390625 54.6875 
L 27.390625 29.109375 
L 57.625 0 
L 45.90625 0 
L 18.109375 26.703125 
L 18.109375 0 
L 9.078125 0 
z
" id="DejaVuSans-107"/>
       </defs>
       <use xlink:href="#DejaVuSans-49"/>
       <use x="63.623047" xlink:href="#DejaVuSans-32"/>
       <use x="95.410156" xlink:href="#DejaVuSans-107"/>
      </g>
     </g>
    </g>
    <g id="xtick_4">
     <g id="line2d_4">
      <g>
       <use style="stroke:#000000;stroke-width:0.8;" x="192.555067" xlink:href="#m975ab1105f" y="288.430125"/>
      </g>
     </g>
     <g id="text_4">
      <!-- 1.5 k -->
      <g transform="translate(180.11913 303.028562)scale(0.1 -0.1)">
       <defs>
        <path d="M 10.6875 12.40625 
L 21 12.40625 
L 21 0 
L 10.6875 0 
z
" id="DejaVuSans-46"/>
       </defs>
       <use xlink:href="#DejaVuSans-49"/>
       <use x="63.623047" xlink:href="#DejaVuSans-46"/>
       <use x="95.410156" xlink:href="#DejaVuSans-53"/>
       <use x="159.033203" xlink:href="#DejaVuSans-32"/>
       <use x="190.820312" xlink:href="#DejaVuSans-107"/>
      </g>
     </g>
    </g>
    <g id="xtick_5">
     <g id="line2d_5">
      <g>
       <use style="stroke:#000000;stroke-width:0.8;" x="236.103631" xlink:href="#m975ab1105f" y="288.430125"/>
      </g>
     </g>
     <g id="text_5">
      <!-- 2 k -->
      <g transform="translate(228.438006 303.028562)scale(0.1 -0.1)">
       <defs>
        <path d="M 19.1875 8.296875 
L 53.609375 8.296875 
L 53.609375 0 
L 7.328125 0 
L 7.328125 8.296875 
Q 12.9375 14.109375 22.625 23.890625 
Q 32.328125 33.6875 34.8125 36.53125 
Q 39.546875 41.84375 41.421875 45.53125 
Q 43.3125 49.21875 43.3125 52.78125 
Q 43.3125 58.59375 39.234375 62.25 
Q 35.15625 65.921875 28.609375 65.921875 
Q 23.96875 65.921875 18.8125 64.3125 
Q 13.671875 62.703125 7.8125 59.421875 
L 7.8125 69.390625 
Q 13.765625 71.78125 18.9375 73 
Q 24.125 74.21875 28.421875 74.21875 
Q 39.75 74.21875 46.484375 68.546875 
Q 53.21875 62.890625 53.21875 53.421875 
Q 53.21875 48.921875 51.53125 44.890625 
Q 49.859375 40.875 45.40625 35.40625 
Q 44.1875 33.984375 37.640625 27.21875 
Q 31.109375 20.453125 19.1875 8.296875 
z
" id="DejaVuSans-50"/>
       </defs>
       <use xlink:href="#DejaVuSans-50"/>
       <use x="63.623047" xlink:href="#DejaVuSans-32"/>
       <use x="95.410156" xlink:href="#DejaVuSans-107"/>
      </g>
     </g>
    </g>
    <g id="xtick_6">
     <g id="line2d_6">
      <g>
       <use style="stroke:#000000;stroke-width:0.8;" x="279.652196" xlink:href="#m975ab1105f" y="288.430125"/>
      </g>
     </g>
     <g id="text_6">
      <!-- 2.5 k -->
      <g transform="translate(267.216258 303.028562)scale(0.1 -0.1)">
       <use xlink:href="#DejaVuSans-50"/>
       <use x="63.623047" xlink:href="#DejaVuSans-46"/>
       <use x="95.410156" xlink:href="#DejaVuSans-53"/>
       <use x="159.033203" xlink:href="#DejaVuSans-32"/>
       <use x="190.820312" xlink:href="#DejaVuSans-107"/>
      </g>
     </g>
    </g>
    <g id="xtick_7">
     <g id="line2d_7">
      <g>
       <use style="stroke:#000000;stroke-width:0.8;" x="323.20076" xlink:href="#m975ab1105f" y="288.430125"/>
      </g>
     </g>
     <g id="text_7">
      <!-- 3 k -->
      <g transform="translate(315.535135 303.028562)scale(0.1 -0.1)">
       <defs>
        <path d="M 40.578125 39.3125 
Q 47.65625 37.796875 51.625 33 
Q 55.609375 28.21875 55.609375 21.1875 
Q 55.609375 10.40625 48.1875 4.484375 
Q 40.765625 -1.421875 27.09375 -1.421875 
Q 22.515625 -1.421875 17.65625 -0.515625 
Q 12.796875 0.390625 7.625 2.203125 
L 7.625 11.71875 
Q 11.71875 9.328125 16.59375 8.109375 
Q 21.484375 6.890625 26.8125 6.890625 
Q 36.078125 6.890625 40.9375 10.546875 
Q 45.796875 14.203125 45.796875 21.1875 
Q 45.796875 27.640625 41.28125 31.265625 
Q 36.765625 34.90625 28.71875 34.90625 
L 20.21875 34.90625 
L 20.21875 43.015625 
L 29.109375 43.015625 
Q 36.375 43.015625 40.234375 45.921875 
Q 44.09375 48.828125 44.09375 54.296875 
Q 44.09375 59.90625 40.109375 62.90625 
Q 36.140625 65.921875 28.71875 65.921875 
Q 24.65625 65.921875 20.015625 65.03125 
Q 15.375 64.15625 9.8125 62.3125 
L 9.8125 71.09375 
Q 15.4375 72.65625 20.34375 73.4375 
Q 25.25 74.21875 29.59375 74.21875 
Q 40.828125 74.21875 47.359375 69.109375 
Q 53.90625 64.015625 53.90625 55.328125 
Q 53.90625 49.265625 50.4375 45.09375 
Q 46.96875 40.921875 40.578125 39.3125 
z
" id="DejaVuSans-51"/>
       </defs>
       <use xlink:href="#DejaVuSans-51"/>
       <use x="63.623047" xlink:href="#DejaVuSans-32"/>
       <use x="95.410156" xlink:href="#DejaVuSans-107"/>
      </g>
     </g>
    </g>
    <g id="xtick_8">
     <g id="line2d_8">
      <g>
       <use style="stroke:#000000;stroke-width:0.8;" x="366.749324" xlink:href="#m975ab1105f" y="288.430125"/>
      </g>
     </g>
     <g id="text_8">
      <!-- 3.5 k -->
      <g transform="translate(354.313386 303.028562)scale(0.1 -0.1)">
       <use xlink:href="#DejaVuSans-51"/>
       <use x="63.623047" xlink:href="#DejaVuSans-46"/>
       <use x="95.410156" xlink:href="#DejaVuSans-53"/>
       <use x="159.033203" xlink:href="#DejaVuSans-32"/>
       <use x="190.820312" xlink:href="#DejaVuSans-107"/>
      </g>
     </g>
    </g>
    <g id="xtick_9">
     <g id="line2d_9">
      <g>
       <use style="stroke:#000000;stroke-width:0.8;" x="410.297888" xlink:href="#m975ab1105f" y="288.430125"/>
      </g>
     </g>
     <g id="text_9">
      <!-- 4 k -->
      <g transform="translate(402.632263 303.028562)scale(0.1 -0.1)">
       <defs>
        <path d="M 37.796875 64.3125 
L 12.890625 25.390625 
L 37.796875 25.390625 
z
M 35.203125 72.90625 
L 47.609375 72.90625 
L 47.609375 25.390625 
L 58.015625 25.390625 
L 58.015625 17.1875 
L 47.609375 17.1875 
L 47.609375 0 
L 37.796875 0 
L 37.796875 17.1875 
L 4.890625 17.1875 
L 4.890625 26.703125 
z
" id="DejaVuSans-52"/>
       </defs>
       <use xlink:href="#DejaVuSans-52"/>
       <use x="63.623047" xlink:href="#DejaVuSans-32"/>
       <use x="95.410156" xlink:href="#DejaVuSans-107"/>
      </g>
     </g>
    </g>
    <g id="text_10">
     <!-- Amount of objects in table -->
     <g transform="translate(174.410781 316.706687)scale(0.1 -0.1)">
      <defs>
       <path d="M 34.1875 63.1875 
L 20.796875 26.90625 
L 47.609375 26.90625 
z
M 28.609375 72.90625 
L 39.796875 72.90625 
L 67.578125 0 
L 57.328125 0 
L 50.6875 18.703125 
L 17.828125 18.703125 
L 11.1875 0 
L 0.78125 0 
z
" id="DejaVuSans-65"/>
       <path d="M 52 44.1875 
Q 55.375 50.25 60.0625 53.125 
Q 64.75 56 71.09375 56 
Q 79.640625 56 84.28125 50.015625 
Q 88.921875 44.046875 88.921875 33.015625 
L 88.921875 0 
L 79.890625 0 
L 79.890625 32.71875 
Q 79.890625 40.578125 77.09375 44.375 
Q 74.3125 48.1875 68.609375 48.1875 
Q 61.625 48.1875 57.5625 43.546875 
Q 53.515625 38.921875 53.515625 30.90625 
L 53.515625 0 
L 44.484375 0 
L 44.484375 32.71875 
Q 44.484375 40.625 41.703125 44.40625 
Q 38.921875 48.1875 33.109375 48.1875 
Q 26.21875 48.1875 22.15625 43.53125 
Q 18.109375 38.875 18.109375 30.90625 
L 18.109375 0 
L 9.078125 0 
L 9.078125 54.6875 
L 18.109375 54.6875 
L 18.109375 46.1875 
Q 21.1875 51.21875 25.484375 53.609375 
Q 29.78125 56 35.6875 56 
Q 41.65625 56 45.828125 52.96875 
Q 50 49.953125 52 44.1875 
z
" id="DejaVuSans-109"/>
       <path d="M 30.609375 48.390625 
Q 23.390625 48.390625 19.1875 42.75 
Q 14.984375 37.109375 14.984375 27.296875 
Q 14.984375 17.484375 19.15625 11.84375 
Q 23.34375 6.203125 30.609375 6.203125 
Q 37.796875 6.203125 41.984375 11.859375 
Q 46.1875 17.53125 46.1875 27.296875 
Q 46.1875 37.015625 41.984375 42.703125 
Q 37.796875 48.390625 30.609375 48.390625 
z
M 30.609375 56 
Q 42.328125 56 49.015625 48.375 
Q 55.71875 40.765625 55.71875 27.296875 
Q 55.71875 13.875 49.015625 6.21875 
Q 42.328125 -1.421875 30.609375 -1.421875 
Q 18.84375 -1.421875 12.171875 6.21875 
Q 5.515625 13.875 5.515625 27.296875 
Q 5.515625 40.765625 12.171875 48.375 
Q 18.84375 56 30.609375 56 
z
" id="DejaVuSans-111"/>
       <path d="M 8.5 21.578125 
L 8.5 54.6875 
L 17.484375 54.6875 
L 17.484375 21.921875 
Q 17.484375 14.15625 20.5 10.265625 
Q 23.53125 6.390625 29.59375 6.390625 
Q 36.859375 6.390625 41.078125 11.03125 
Q 45.3125 15.671875 45.3125 23.6875 
L 45.3125 54.6875 
L 54.296875 54.6875 
L 54.296875 0 
L 45.3125 0 
L 45.3125 8.40625 
Q 42.046875 3.421875 37.71875 1 
Q 33.40625 -1.421875 27.6875 -1.421875 
Q 18.265625 -1.421875 13.375 4.4375 
Q 8.5 10.296875 8.5 21.578125 
z
M 31.109375 56 
z
" id="DejaVuSans-117"/>
       <path d="M 54.890625 33.015625 
L 54.890625 0 
L 45.90625 0 
L 45.90625 32.71875 
Q 45.90625 40.484375 42.875 44.328125 
Q 39.84375 48.1875 33.796875 48.1875 
Q 26.515625 48.1875 22.3125 43.546875 
Q 18.109375 38.921875 18.109375 30.90625 
L 18.109375 0 
L 9.078125 0 
L 9.078125 54.6875 
L 18.109375 54.6875 
L 18.109375 46.1875 
Q 21.34375 51.125 25.703125 53.5625 
Q 30.078125 56 35.796875 56 
Q 45.21875 56 50.046875 50.171875 
Q 54.890625 44.34375 54.890625 33.015625 
z
" id="DejaVuSans-110"/>
       <path d="M 18.3125 70.21875 
L 18.3125 54.6875 
L 36.8125 54.6875 
L 36.8125 47.703125 
L 18.3125 47.703125 
L 18.3125 18.015625 
Q 18.3125 11.328125 20.140625 9.421875 
Q 21.96875 7.515625 27.59375 7.515625 
L 36.8125 7.515625 
L 36.8125 0 
L 27.59375 0 
Q 17.1875 0 13.234375 3.875 
Q 9.28125 7.765625 9.28125 18.015625 
L 9.28125 47.703125 
L 2.6875 47.703125 
L 2.6875 54.6875 
L 9.28125 54.6875 
L 9.28125 70.21875 
z
" id="DejaVuSans-116"/>
       <path d="M 37.109375 75.984375 
L 37.109375 68.5 
L 28.515625 68.5 
Q 23.6875 68.5 21.796875 66.546875 
Q 19.921875 64.59375 19.921875 59.515625 
L 19.921875 54.6875 
L 34.71875 54.6875 
L 34.71875 47.703125 
L 19.921875 47.703125 
L 19.921875 0 
L 10.890625 0 
L 10.890625 47.703125 
L 2.296875 47.703125 
L 2.296875 54.6875 
L 10.890625 54.6875 
L 10.890625 58.5 
Q 10.890625 67.625 15.140625 71.796875 
Q 19.390625 75.984375 28.609375 75.984375 
z
" id="DejaVuSans-102"/>
       <path d="M 48.6875 27.296875 
Q 48.6875 37.203125 44.609375 42.84375 
Q 40.53125 48.484375 33.40625 48.484375 
Q 26.265625 48.484375 22.1875 42.84375 
Q 18.109375 37.203125 18.109375 27.296875 
Q 18.109375 17.390625 22.1875 11.75 
Q 26.265625 6.109375 33.40625 6.109375 
Q 40.53125 6.109375 44.609375 11.75 
Q 48.6875 17.390625 48.6875 27.296875 
z
M 18.109375 46.390625 
Q 20.953125 51.265625 25.265625 53.625 
Q 29.59375 56 35.59375 56 
Q 45.5625 56 51.78125 48.09375 
Q 58.015625 40.1875 58.015625 27.296875 
Q 58.015625 14.40625 51.78125 6.484375 
Q 45.5625 -1.421875 35.59375 -1.421875 
Q 29.59375 -1.421875 25.265625 0.953125 
Q 20.953125 3.328125 18.109375 8.203125 
L 18.109375 0 
L 9.078125 0 
L 9.078125 75.984375 
L 18.109375 75.984375 
z
" id="DejaVuSans-98"/>
       <path d="M 9.421875 54.6875 
L 18.40625 54.6875 
L 18.40625 -0.984375 
Q 18.40625 -11.421875 14.421875 -16.109375 
Q 10.453125 -20.796875 1.609375 -20.796875 
L -1.8125 -20.796875 
L -1.8125 -13.1875 
L 0.59375 -13.1875 
Q 5.71875 -13.1875 7.5625 -10.8125 
Q 9.421875 -8.453125 9.421875 -0.984375 
z
M 9.421875 75.984375 
L 18.40625 75.984375 
L 18.40625 64.59375 
L 9.421875 64.59375 
z
" id="DejaVuSans-106"/>
       <path d="M 56.203125 29.59375 
L 56.203125 25.203125 
L 14.890625 25.203125 
Q 15.484375 15.921875 20.484375 11.0625 
Q 25.484375 6.203125 34.421875 6.203125 
Q 39.59375 6.203125 44.453125 7.46875 
Q 49.3125 8.734375 54.109375 11.28125 
L 54.109375 2.78125 
Q 49.265625 0.734375 44.1875 -0.34375 
Q 39.109375 -1.421875 33.890625 -1.421875 
Q 20.796875 -1.421875 13.15625 6.1875 
Q 5.515625 13.8125 5.515625 26.8125 
Q 5.515625 40.234375 12.765625 48.109375 
Q 20.015625 56 32.328125 56 
Q 43.359375 56 49.78125 48.890625 
Q 56.203125 41.796875 56.203125 29.59375 
z
M 47.21875 32.234375 
Q 47.125 39.59375 43.09375 43.984375 
Q 39.0625 48.390625 32.421875 48.390625 
Q 24.90625 48.390625 20.390625 44.140625 
Q 15.875 39.890625 15.1875 32.171875 
z
" id="DejaVuSans-101"/>
       <path d="M 48.78125 52.59375 
L 48.78125 44.1875 
Q 44.96875 46.296875 41.140625 47.34375 
Q 37.3125 48.390625 33.40625 48.390625 
Q 24.65625 48.390625 19.8125 42.84375 
Q 14.984375 37.3125 14.984375 27.296875 
Q 14.984375 17.28125 19.8125 11.734375 
Q 24.65625 6.203125 33.40625 6.203125 
Q 37.3125 6.203125 41.140625 7.25 
Q 44.96875 8.296875 48.78125 10.40625 
L 48.78125 2.09375 
Q 45.015625 0.34375 40.984375 -0.53125 
Q 36.96875 -1.421875 32.421875 -1.421875 
Q 20.0625 -1.421875 12.78125 6.34375 
Q 5.515625 14.109375 5.515625 27.296875 
Q 5.515625 40.671875 12.859375 48.328125 
Q 20.21875 56 33.015625 56 
Q 37.15625 56 41.109375 55.140625 
Q 45.0625 54.296875 48.78125 52.59375 
z
" id="DejaVuSans-99"/>
       <path d="M 44.28125 53.078125 
L 44.28125 44.578125 
Q 40.484375 46.53125 36.375 47.5 
Q 32.28125 48.484375 27.875 48.484375 
Q 21.1875 48.484375 17.84375 46.4375 
Q 14.5 44.390625 14.5 40.28125 
Q 14.5 37.15625 16.890625 35.375 
Q 19.28125 33.59375 26.515625 31.984375 
L 29.59375 31.296875 
Q 39.15625 29.25 43.1875 25.515625 
Q 47.21875 21.78125 47.21875 15.09375 
Q 47.21875 7.46875 41.1875 3.015625 
Q 35.15625 -1.421875 24.609375 -1.421875 
Q 20.21875 -1.421875 15.453125 -0.5625 
Q 10.6875 0.296875 5.421875 2 
L 5.421875 11.28125 
Q 10.40625 8.6875 15.234375 7.390625 
Q 20.0625 6.109375 24.8125 6.109375 
Q 31.15625 6.109375 34.5625 8.28125 
Q 37.984375 10.453125 37.984375 14.40625 
Q 37.984375 18.0625 35.515625 20.015625 
Q 33.0625 21.96875 24.703125 23.78125 
L 21.578125 24.515625 
Q 13.234375 26.265625 9.515625 29.90625 
Q 5.8125 33.546875 5.8125 39.890625 
Q 5.8125 47.609375 11.28125 51.796875 
Q 16.75 56 26.8125 56 
Q 31.78125 56 36.171875 55.265625 
Q 40.578125 54.546875 44.28125 53.078125 
z
" id="DejaVuSans-115"/>
       <path d="M 9.421875 54.6875 
L 18.40625 54.6875 
L 18.40625 0 
L 9.421875 0 
z
M 9.421875 75.984375 
L 18.40625 75.984375 
L 18.40625 64.59375 
L 9.421875 64.59375 
z
" id="DejaVuSans-105"/>
       <path d="M 34.28125 27.484375 
Q 23.390625 27.484375 19.1875 25 
Q 14.984375 22.515625 14.984375 16.5 
Q 14.984375 11.71875 18.140625 8.90625 
Q 21.296875 6.109375 26.703125 6.109375 
Q 34.1875 6.109375 38.703125 11.40625 
Q 43.21875 16.703125 43.21875 25.484375 
L 43.21875 27.484375 
z
M 52.203125 31.203125 
L 52.203125 0 
L 43.21875 0 
L 43.21875 8.296875 
Q 40.140625 3.328125 35.546875 0.953125 
Q 30.953125 -1.421875 24.3125 -1.421875 
Q 15.921875 -1.421875 10.953125 3.296875 
Q 6 8.015625 6 15.921875 
Q 6 25.140625 12.171875 29.828125 
Q 18.359375 34.515625 30.609375 34.515625 
L 43.21875 34.515625 
L 43.21875 35.40625 
Q 43.21875 41.609375 39.140625 45 
Q 35.0625 48.390625 27.6875 48.390625 
Q 23 48.390625 18.546875 47.265625 
Q 14.109375 46.140625 10.015625 43.890625 
L 10.015625 52.203125 
Q 14.9375 54.109375 19.578125 55.046875 
Q 24.21875 56 28.609375 56 
Q 40.484375 56 46.34375 49.84375 
Q 52.203125 43.703125 52.203125 31.203125 
z
" id="DejaVuSans-97"/>
       <path d="M 9.421875 75.984375 
L 18.40625 75.984375 
L 18.40625 0 
L 9.421875 0 
z
" id="DejaVuSans-108"/>
      </defs>
      <use xlink:href="#DejaVuSans-65"/>
      <use x="68.408203" xlink:href="#DejaVuSans-109"/>
      <use x="165.820312" xlink:href="#DejaVuSans-111"/>
      <use x="227.001953" xlink:href="#DejaVuSans-117"/>
      <use x="290.380859" xlink:href="#DejaVuSans-110"/>
      <use x="353.759766" xlink:href="#DejaVuSans-116"/>
      <use x="392.96875" xlink:href="#DejaVuSans-32"/>
      <use x="424.755859" xlink:href="#DejaVuSans-111"/>
      <use x="485.9375" xlink:href="#DejaVuSans-102"/>
      <use x="521.142578" xlink:href="#DejaVuSans-32"/>
      <use x="552.929688" xlink:href="#DejaVuSans-111"/>
      <use x="614.111328" xlink:href="#DejaVuSans-98"/>
      <use x="677.587891" xlink:href="#DejaVuSans-106"/>
      <use x="705.371094" xlink:href="#DejaVuSans-101"/>
      <use x="766.894531" xlink:href="#DejaVuSans-99"/>
      <use x="821.875" xlink:href="#DejaVuSans-116"/>
      <use x="861.083984" xlink:href="#DejaVuSans-115"/>
      <use x="913.183594" xlink:href="#DejaVuSans-32"/>
      <use x="944.970703" xlink:href="#DejaVuSans-105"/>
      <use x="972.753906" xlink:href="#DejaVuSans-110"/>
      <use x="1036.132812" xlink:href="#DejaVuSans-32"/>
      <use x="1067.919922" xlink:href="#DejaVuSans-116"/>
      <use x="1107.128906" xlink:href="#DejaVuSans-97"/>
      <use x="1168.408203" xlink:href="#DejaVuSans-98"/>
      <use x="1231.884766" xlink:href="#DejaVuSans-108"/>
      <use x="1259.667969" xlink:href="#DejaVuSans-101"/>
     </g>
    </g>
   </g>
   <g id="matplotlib.axis_2">
    <g id="ytick_1">
     <g id="line2d_10">
      <defs>
       <path d="M 0 0 
L -3.5 0 
" id="m69e8fc660c" style="stroke:#000000;stroke-width:0.8;"/>
      </defs>
      <g>
       <use style="stroke:#000000;stroke-width:0.8;" x="61.909375" xlink:href="#m69e8fc660c" y="288.430125"/>
      </g>
     </g>
     <g id="text_11">
      <!-- 0 -->
      <g transform="translate(48.546875 292.229344)scale(0.1 -0.1)">
       <use xlink:href="#DejaVuSans-48"/>
      </g>
     </g>
    </g>
    <g id="ytick_2">
     <g id="line2d_11">
      <g>
       <use style="stroke:#000000;stroke-width:0.8;" x="61.909375" xlink:href="#m69e8fc660c" y="244.885054"/>
      </g>
     </g>
     <g id="text_12">
      <!-- 200 µs -->
      <g transform="translate(21.071875 248.684273)scale(0.1 -0.1)">
       <defs>
        <path d="M 8.5 -20.796875 
L 8.5 54.6875 
L 17.484375 54.6875 
L 17.484375 20.703125 
Q 17.484375 13.625 20.84375 10 
Q 24.21875 6.390625 30.8125 6.390625 
Q 38.03125 6.390625 41.671875 10.484375 
Q 45.3125 14.59375 45.3125 22.796875 
L 45.3125 54.6875 
L 54.296875 54.6875 
L 54.296875 12.59375 
Q 54.296875 9.671875 55.140625 8.28125 
Q 56 6.890625 57.8125 6.890625 
Q 58.25 6.890625 59.03125 7.15625 
Q 59.8125 7.421875 61.1875 8.015625 
L 61.1875 0.78125 
Q 59.1875 -0.34375 57.390625 -0.875 
Q 55.609375 -1.421875 53.90625 -1.421875 
Q 50.53125 -1.421875 48.53125 0.484375 
Q 46.53125 2.390625 45.796875 6.296875 
Q 43.359375 2.4375 39.8125 0.5 
Q 36.28125 -1.421875 31.5 -1.421875 
Q 26.515625 -1.421875 23.015625 0.484375 
Q 19.53125 2.390625 17.484375 6.203125 
L 17.484375 -20.796875 
z
" id="DejaVuSans-181"/>
       </defs>
       <use xlink:href="#DejaVuSans-50"/>
       <use x="63.623047" xlink:href="#DejaVuSans-48"/>
       <use x="127.246094" xlink:href="#DejaVuSans-48"/>
       <use x="190.869141" xlink:href="#DejaVuSans-32"/>
       <use x="222.65625" xlink:href="#DejaVuSans-181"/>
       <use x="286.279297" xlink:href="#DejaVuSans-115"/>
      </g>
     </g>
    </g>
    <g id="ytick_3">
     <g id="line2d_12">
      <g>
       <use style="stroke:#000000;stroke-width:0.8;" x="61.909375" xlink:href="#m69e8fc660c" y="201.339983"/>
      </g>
     </g>
     <g id="text_13">
      <!-- 400 µs -->
      <g transform="translate(21.071875 205.139202)scale(0.1 -0.1)">
       <use xlink:href="#DejaVuSans-52"/>
       <use x="63.623047" xlink:href="#DejaVuSans-48"/>
       <use x="127.246094" xlink:href="#DejaVuSans-48"/>
       <use x="190.869141" xlink:href="#DejaVuSans-32"/>
       <use x="222.65625" xlink:href="#DejaVuSans-181"/>
       <use x="286.279297" xlink:href="#DejaVuSans-115"/>
      </g>
     </g>
    </g>
    <g id="ytick_4">
     <g id="line2d_13">
      <g>
       <use style="stroke:#000000;stroke-width:0.8;" x="61.909375" xlink:href="#m69e8fc660c" y="157.794912"/>
      </g>
     </g>
     <g id="text_14">
      <!-- 600 µs -->
      <g transform="translate(21.071875 161.594131)scale(0.1 -0.1)">
       <defs>
        <path d="M 33.015625 40.375 
Q 26.375 40.375 22.484375 35.828125 
Q 18.609375 31.296875 18.609375 23.390625 
Q 18.609375 15.53125 22.484375 10.953125 
Q 26.375 6.390625 33.015625 6.390625 
Q 39.65625 6.390625 43.53125 10.953125 
Q 47.40625 15.53125 47.40625 23.390625 
Q 47.40625 31.296875 43.53125 35.828125 
Q 39.65625 40.375 33.015625 40.375 
z
M 52.59375 71.296875 
L 52.59375 62.3125 
Q 48.875 64.0625 45.09375 64.984375 
Q 41.3125 65.921875 37.59375 65.921875 
Q 27.828125 65.921875 22.671875 59.328125 
Q 17.53125 52.734375 16.796875 39.40625 
Q 19.671875 43.65625 24.015625 45.921875 
Q 28.375 48.1875 33.59375 48.1875 
Q 44.578125 48.1875 50.953125 41.515625 
Q 57.328125 34.859375 57.328125 23.390625 
Q 57.328125 12.15625 50.6875 5.359375 
Q 44.046875 -1.421875 33.015625 -1.421875 
Q 20.359375 -1.421875 13.671875 8.265625 
Q 6.984375 17.96875 6.984375 36.375 
Q 6.984375 53.65625 15.1875 63.9375 
Q 23.390625 74.21875 37.203125 74.21875 
Q 40.921875 74.21875 44.703125 73.484375 
Q 48.484375 72.75 52.59375 71.296875 
z
" id="DejaVuSans-54"/>
       </defs>
       <use xlink:href="#DejaVuSans-54"/>
       <use x="63.623047" xlink:href="#DejaVuSans-48"/>
       <use x="127.246094" xlink:href="#DejaVuSans-48"/>
       <use x="190.869141" xlink:href="#DejaVuSans-32"/>
       <use x="222.65625" xlink:href="#DejaVuSans-181"/>
       <use x="286.279297" xlink:href="#DejaVuSans-115"/>
      </g>
     </g>
    </g>
    <g id="ytick_5">
     <g id="line2d_14">
      <g>
       <use style="stroke:#000000;stroke-width:0.8;" x="61.909375" xlink:href="#m69e8fc660c" y="114.249841"/>
      </g>
     </g>
     <g id="text_15">
      <!-- 800 µs -->
      <g transform="translate(21.071875 118.04906)scale(0.1 -0.1)">
       <defs>
        <path d="M 31.78125 34.625 
Q 24.75 34.625 20.71875 30.859375 
Q 16.703125 27.09375 16.703125 20.515625 
Q 16.703125 13.921875 20.71875 10.15625 
Q 24.75 6.390625 31.78125 6.390625 
Q 38.8125 6.390625 42.859375 10.171875 
Q 46.921875 13.96875 46.921875 20.515625 
Q 46.921875 27.09375 42.890625 30.859375 
Q 38.875 34.625 31.78125 34.625 
z
M 21.921875 38.8125 
Q 15.578125 40.375 12.03125 44.71875 
Q 8.5 49.078125 8.5 55.328125 
Q 8.5 64.0625 14.71875 69.140625 
Q 20.953125 74.21875 31.78125 74.21875 
Q 42.671875 74.21875 48.875 69.140625 
Q 55.078125 64.0625 55.078125 55.328125 
Q 55.078125 49.078125 51.53125 44.71875 
Q 48 40.375 41.703125 38.8125 
Q 48.828125 37.15625 52.796875 32.3125 
Q 56.78125 27.484375 56.78125 20.515625 
Q 56.78125 9.90625 50.3125 4.234375 
Q 43.84375 -1.421875 31.78125 -1.421875 
Q 19.734375 -1.421875 13.25 4.234375 
Q 6.78125 9.90625 6.78125 20.515625 
Q 6.78125 27.484375 10.78125 32.3125 
Q 14.796875 37.15625 21.921875 38.8125 
z
M 18.3125 54.390625 
Q 18.3125 48.734375 21.84375 45.5625 
Q 25.390625 42.390625 31.78125 42.390625 
Q 38.140625 42.390625 41.71875 45.5625 
Q 45.3125 48.734375 45.3125 54.390625 
Q 45.3125 60.0625 41.71875 63.234375 
Q 38.140625 66.40625 31.78125 66.40625 
Q 25.390625 66.40625 21.84375 63.234375 
Q 18.3125 60.0625 18.3125 54.390625 
z
" id="DejaVuSans-56"/>
       </defs>
       <use xlink:href="#DejaVuSans-56"/>
       <use x="63.623047" xlink:href="#DejaVuSans-48"/>
       <use x="127.246094" xlink:href="#DejaVuSans-48"/>
       <use x="190.869141" xlink:href="#DejaVuSans-32"/>
       <use x="222.65625" xlink:href="#DejaVuSans-181"/>
       <use x="286.279297" xlink:href="#DejaVuSans-115"/>
      </g>
     </g>
    </g>
    <g id="ytick_6">
     <g id="line2d_15">
      <g>
       <use style="stroke:#000000;stroke-width:0.8;" x="61.909375" xlink:href="#m69e8fc660c" y="70.704771"/>
      </g>
     </g>
     <g id="text_16">
      <!-- 1 ms -->
      <g transform="translate(30.41875 74.503989)scale(0.1 -0.1)">
       <use xlink:href="#DejaVuSans-49"/>
       <use x="63.623047" xlink:href="#DejaVuSans-32"/>
       <use x="95.410156" xlink:href="#DejaVuSans-109"/>
       <use x="192.822266" xlink:href="#DejaVuSans-115"/>
      </g>
     </g>
    </g>
    <g id="ytick_7">
     <g id="line2d_16">
      <g>
       <use style="stroke:#000000;stroke-width:0.8;" x="61.909375" xlink:href="#m69e8fc660c" y="27.1597"/>
      </g>
     </g>
     <g id="text_17">
      <!-- 1.2 ms -->
      <g transform="translate(20.878125 30.958918)scale(0.1 -0.1)">
       <use xlink:href="#DejaVuSans-49"/>
       <use x="63.623047" xlink:href="#DejaVuSans-46"/>
       <use x="95.410156" xlink:href="#DejaVuSans-50"/>
       <use x="159.033203" xlink:href="#DejaVuSans-32"/>
       <use x="190.820312" xlink:href="#DejaVuSans-109"/>
       <use x="288.232422" xlink:href="#DejaVuSans-115"/>
      </g>
     </g>
    </g>
    <g id="text_18">
     <!-- Write latency (s) -->
     <g transform="translate(14.798438 196.625687)rotate(-90)scale(0.1 -0.1)">
      <defs>
       <path d="M 3.328125 72.90625 
L 13.28125 72.90625 
L 28.609375 11.28125 
L 43.890625 72.90625 
L 54.984375 72.90625 
L 70.3125 11.28125 
L 85.59375 72.90625 
L 95.609375 72.90625 
L 77.296875 0 
L 64.890625 0 
L 49.515625 63.28125 
L 33.984375 0 
L 21.578125 0 
z
" id="DejaVuSans-87"/>
       <path d="M 41.109375 46.296875 
Q 39.59375 47.171875 37.8125 47.578125 
Q 36.03125 48 33.890625 48 
Q 26.265625 48 22.1875 43.046875 
Q 18.109375 38.09375 18.109375 28.8125 
L 18.109375 0 
L 9.078125 0 
L 9.078125 54.6875 
L 18.109375 54.6875 
L 18.109375 46.1875 
Q 20.953125 51.171875 25.484375 53.578125 
Q 30.03125 56 36.53125 56 
Q 37.453125 56 38.578125 55.875 
Q 39.703125 55.765625 41.0625 55.515625 
z
" id="DejaVuSans-114"/>
       <path d="M 32.171875 -5.078125 
Q 28.375 -14.84375 24.75 -17.8125 
Q 21.140625 -20.796875 15.09375 -20.796875 
L 7.90625 -20.796875 
L 7.90625 -13.28125 
L 13.1875 -13.28125 
Q 16.890625 -13.28125 18.9375 -11.515625 
Q 21 -9.765625 23.484375 -3.21875 
L 25.09375 0.875 
L 2.984375 54.6875 
L 12.5 54.6875 
L 29.59375 11.921875 
L 46.6875 54.6875 
L 56.203125 54.6875 
z
" id="DejaVuSans-121"/>
       <path d="M 31 75.875 
Q 24.46875 64.65625 21.28125 53.65625 
Q 18.109375 42.671875 18.109375 31.390625 
Q 18.109375 20.125 21.3125 9.0625 
Q 24.515625 -2 31 -13.1875 
L 23.1875 -13.1875 
Q 15.875 -1.703125 12.234375 9.375 
Q 8.59375 20.453125 8.59375 31.390625 
Q 8.59375 42.28125 12.203125 53.3125 
Q 15.828125 64.359375 23.1875 75.875 
z
" id="DejaVuSans-40"/>
       <path d="M 8.015625 75.875 
L 15.828125 75.875 
Q 23.140625 64.359375 26.78125 53.3125 
Q 30.421875 42.28125 30.421875 31.390625 
Q 30.421875 20.453125 26.78125 9.375 
Q 23.140625 -1.703125 15.828125 -13.1875 
L 8.015625 -13.1875 
Q 14.5 -2 17.703125 9.0625 
Q 20.90625 20.125 20.90625 31.390625 
Q 20.90625 42.671875 17.703125 53.65625 
Q 14.5 64.65625 8.015625 75.875 
z
" id="DejaVuSans-41"/>
      </defs>
      <use xlink:href="#DejaVuSans-87"/>
      <use x="94.376953" xlink:href="#DejaVuSans-114"/>
      <use x="135.490234" xlink:href="#DejaVuSans-105"/>
      <use x="163.273438" xlink:href="#DejaVuSans-116"/>
      <use x="202.482422" xlink:href="#DejaVuSans-101"/>
      <use x="264.005859" xlink:href="#DejaVuSans-32"/>
      <use x="295.792969" xlink:href="#DejaVuSans-108"/>
      <use x="323.576172" xlink:href="#DejaVuSans-97"/>
      <use x="384.855469" xlink:href="#DejaVuSans-116"/>
      <use x="424.064453" xlink:href="#DejaVuSans-101"/>
      <use x="485.587891" xlink:href="#DejaVuSans-110"/>
      <use x="548.966797" xlink:href="#DejaVuSans-99"/>
      <use x="603.947266" xlink:href="#DejaVuSans-121"/>
      <use x="663.126953" xlink:href="#DejaVuSans-32"/>
      <use x="694.914062" xlink:href="#DejaVuSans-40"/>
      <use x="733.927734" xlink:href="#DejaVuSans-115"/>
      <use x="786.027344" xlink:href="#DejaVuSans-41"/>
     </g>
    </g>
   </g>
   <g id="line2d_17">
    <path clip-path="url(#pf136d7261f)" d="M 147.264561 69.822645 
L 147.700046 69.71643 
L 148.135532 70.167113 
L 148.571018 70.155933 
L 149.006503 70.444764 
L 149.877475 69.923803 
L 150.31296 69.642159 
L 150.748446 70.596766 
L 152.490388 69.158466 
L 152.925874 69.086591 
L 153.36136 69.286244 
L 153.796845 68.765017 
L 154.232331 68.551521 
L 154.667817 68.539542 
L 155.103302 68.253107 
L 155.538788 67.596115 
L 156.845245 67.505872 
L 157.28073 68.006868 
L 157.716216 68.070225 
L 158.151702 67.212249 
L 159.022673 67.436659 
L 159.458159 66.699541 
L 159.893644 66.182572 
L 160.32913 66.300767 
L 160.764616 66.991034 
L 161.200101 66.468742 
L 161.635587 67.205594 
L 162.071072 67.279599 
L 162.506558 67.234344 
L 162.942044 66.942851 
L 163.813015 67.165397 
L 164.248501 67.162469 
L 165.119472 67.330976 
L 165.990443 66.946578 
L 166.425929 67.206127 
L 166.861415 66.853939 
L 167.732386 66.922886 
L 168.167871 66.331913 
L 168.603357 66.422156 
L 169.038843 66.261103 
L 169.474328 65.605176 
L 169.909814 66.126403 
L 170.3453 65.538359 
L 170.780785 65.511739 
L 171.216271 65.320338 
L 171.651757 64.860337 
L 172.522728 64.742409 
L 172.958213 64.957236 
L 173.393699 64.82227 
L 173.829185 64.892548 
L 174.26467 65.601715 
L 174.700156 65.834378 
L 175.135642 65.462225 
L 176.442099 65.683174 
L 176.877584 66.847018 
L 177.31307 66.809483 
L 177.748556 66.027642 
L 178.184041 65.711924 
L 178.619527 65.84822 
L 179.490498 65.847688 
L 179.925984 65.606507 
L 180.361469 65.756646 
L 180.796955 65.630199 
L 181.232441 65.384227 
L 181.667926 65.614759 
L 182.103412 66.289586 
L 182.538898 66.151959 
L 183.409869 66.151427 
L 183.845355 66.340964 
L 184.28084 66.313279 
L 184.716326 66.733615 
L 186.022783 66.582677 
L 186.458268 66.079552 
L 186.893754 65.771287 
L 187.32924 65.174724 
L 187.764725 65.13293 
L 188.200211 64.846761 
L 188.635697 64.836379 
L 189.071182 65.069574 
L 189.506668 65.54528 
L 190.377639 65.526646 
L 190.813125 65.021657 
L 191.24861 65.329921 
L 191.684096 65.444655 
L 192.119582 65.171796 
L 192.555067 64.385163 
L 192.990553 64.645777 
L 193.426039 64.580823 
L 193.861524 64.192698 
L 194.29701 63.988786 
L 195.603467 63.921702 
L 196.038952 64.163682 
L 196.909924 63.507489 
L 197.345409 63.262848 
L 198.651866 63.432153 
L 199.087352 63.22904 
L 199.958323 63.04669 
L 200.829295 63.539966 
L 201.700266 63.140128 
L 202.135751 63.586285 
L 202.571237 62.750671 
L 203.006723 62.577905 
L 203.442208 62.805243 
L 203.877694 62.676933 
L 204.31318 62.101134 
L 205.619637 62.178865 
L 206.055122 62.067592 
L 206.490608 63.030185 
L 206.926093 62.74162 
L 207.361579 62.588287 
L 207.797065 62.724051 
L 208.23255 62.547558 
L 209.103522 63.26897 
L 209.539007 63.03897 
L 209.974493 63.316088 
L 210.409979 62.721921 
L 211.28095 62.934352 
L 211.716436 62.714201 
L 212.151921 61.922511 
L 212.587407 61.517615 
L 213.022892 61.356029 
L 213.458378 61.54104 
L 213.893864 61.467036 
L 214.329349 61.04457 
L 214.764835 60.933031 
L 215.635806 61.265519 
L 216.071292 60.721931 
L 216.942263 60.870207 
L 218.24872 60.165565 
L 218.684206 60.528667 
L 219.119691 60.451468 
L 219.555177 60.18553 
L 219.990663 59.722335 
L 220.861634 59.653388 
L 221.29712 59.75002 
L 221.732605 59.514696 
L 222.168091 60.029801 
L 222.603577 59.899627 
L 223.910033 59.958724 
L 224.345519 59.72553 
L 224.781005 60.684929 
L 225.21649 60.418991 
L 225.651976 60.716074 
L 226.087462 60.717139 
L 226.522947 60.547035 
L 226.958433 60.646329 
L 227.393919 61.161966 
L 227.829404 61.00464 
L 229.135861 60.243296 
L 229.571347 60.286687 
L 230.442318 59.916132 
L 230.877804 59.644337 
L 231.313289 58.769059 
L 231.748775 58.881131 
L 233.490718 58.597091 
L 233.926203 58.325563 
L 234.361689 58.396639 
L 234.797175 58.75708 
L 235.23266 58.749626 
L 235.668146 58.136292 
L 236.974603 57.834417 
L 237.410088 58.53054 
L 237.845574 57.903896 
L 238.716545 58.455204 
L 240.023002 58.338341 
L 240.458488 58.823631 
L 241.329459 58.71635 
L 242.20043 58.304799 
L 242.635916 58.206836 
L 243.071402 58.946883 
L 243.506887 58.483688 
L 243.942373 58.686269 
L 244.377859 59.397832 
L 244.813344 59.638215 
L 245.24883 58.979094 
L 245.684316 58.673492 
L 246.119801 59.058422 
L 246.555287 58.987878 
L 246.990772 59.086374 
L 247.426258 58.984418 
L 247.861744 59.084777 
L 248.297229 58.64341 
L 248.732715 58.871281 
L 249.168201 58.25076 
L 249.603686 58.086246 
L 250.910143 57.897773 
L 251.345629 57.640886 
L 251.781115 58.142947 
L 252.2166 57.902565 
L 252.652086 57.949151 
L 253.087571 58.654325 
L 253.523057 58.249429 
L 253.958543 58.401697 
L 254.394028 59.19392 
L 254.829514 59.140147 
L 255.265 59.629962 
L 257.442428 59.774245 
L 257.877914 59.097821 
L 258.313399 59.13083 
L 258.748885 58.480494 
L 259.619856 58.167704 
L 260.490827 58.314915 
L 260.926313 58.017033 
L 261.361799 56.661788 
L 261.797284 56.152008 
L 262.23277 56.026892 
L 263.103741 56.916279 
L 263.539227 56.523628 
L 263.974712 56.564624 
L 264.410198 56.443767 
L 264.845684 56.694798 
L 266.152141 56.64342 
L 266.587626 56.802344 
L 267.023112 56.65327 
L 267.458598 56.677228 
L 267.894083 56.235862 
L 268.329569 56.20445 
L 268.765055 55.811 
L 269.636026 56.24651 
L 270.071511 56.362309 
L 270.506997 56.147216 
L 271.377968 56.361776 
L 271.813454 56.212968 
L 272.24894 56.563027 
L 272.684425 56.42886 
L 273.119911 56.954346 
L 273.555397 56.847066 
L 273.990882 56.161857 
L 274.426368 56.43658 
L 274.861854 56.463733 
L 275.297339 56.027691 
L 275.732825 55.91482 
L 277.039282 56.392922 
L 277.474767 56.999335 
L 278.345739 56.731268 
L 278.781224 57.208305 
L 279.21671 57.206974 
L 280.958652 56.564624 
L 282.265109 57.067217 
L 282.700595 56.683085 
L 283.136081 56.824705 
L 284.442538 56.703582 
L 284.878023 56.864103 
L 285.313509 56.05085 
L 285.748995 54.920282 
L 286.619966 55.215502 
L 287.055451 54.94424 
L 287.490937 55.79769 
L 287.926423 55.480908 
L 288.361908 55.634773 
L 288.797394 55.070954 
L 289.23288 55.447366 
L 289.668365 55.50034 
L 290.103851 54.895525 
L 290.539337 55.151347 
L 290.974822 54.628256 
L 291.845794 54.652481 
L 292.281279 54.964738 
L 292.716765 54.762157 
L 293.15225 54.872632 
L 293.587736 53.997087 
L 294.023222 54.17145 
L 294.458707 53.703996 
L 294.894193 53.861323 
L 295.329679 54.170918 
L 296.20065 54.170119 
L 296.636136 54.193013 
L 297.071621 54.741925 
L 297.942592 54.983905 
L 298.813564 54.435525 
L 299.249049 54.738997 
L 299.684535 54.806347 
L 300.120021 54.744055 
L 300.555506 54.551856 
L 300.990992 55.055247 
L 301.426478 54.922146 
L 301.861963 55.333697 
L 302.732935 55.403708 
L 303.16842 55.451891 
L 303.603906 55.257562 
L 304.039391 55.304947 
L 304.474877 55.154542 
L 305.345848 55.44497 
L 305.781334 55.065363 
L 306.21682 55.026497 
L 306.652305 55.360583 
L 307.087791 55.227748 
L 307.523277 55.224553 
L 308.394248 53.6441 
L 308.829734 53.778533 
L 309.265219 52.567572 
L 309.700705 52.352213 
L 310.13619 52.519655 
L 310.571676 52.415835 
L 311.007162 52.547074 
L 311.878133 52.501287 
L 312.313619 52.810882 
L 313.620076 53.088533 
L 314.055561 52.820732 
L 314.926532 53.528302 
L 315.797504 53.788915 
L 316.232989 54.647955 
L 316.668475 54.482643 
L 317.103961 53.930536 
L 317.539446 54.111288 
L 317.974932 53.980582 
L 318.410418 54.292839 
L 318.845903 53.681901 
L 319.281389 53.572492 
L 319.716875 53.159343 
L 320.15236 53.190489 
L 321.458817 53.729019 
L 322.329788 53.329447 
L 322.765274 53.321727 
L 323.20076 53.143637 
L 323.636245 53.165199 
L 324.071731 53.338764 
L 324.507217 52.774412 
L 324.942702 51.910048 
L 325.378188 52.114226 
L 325.813674 52.0144 
L 326.249159 51.728497 
L 326.684645 51.738346 
L 327.12013 51.899932 
L 327.555616 51.64198 
L 327.991102 51.156957 
L 328.426587 51.052605 
L 328.862073 50.76404 
L 329.297559 50.665278 
L 329.733044 50.447523 
L 330.604016 50.678588 
L 331.039501 50.110509 
L 331.474987 49.812095 
L 331.910472 49.990984 
L 332.345958 49.194235 
L 332.781444 49.081897 
L 333.216929 49.217395 
L 333.652415 49.053413 
L 335.829843 49.823275 
L 336.265329 49.632407 
L 336.700815 49.590613 
L 337.1363 49.697361 
L 337.571786 49.595405 
L 338.007271 49.378715 
L 338.442757 49.326006 
L 338.878243 49.095207 
L 339.313728 48.686584 
L 339.749214 48.672475 
L 340.1847 49.016411 
L 341.491157 48.720392 
L 342.362128 48.41479 
L 342.797614 48.958911 
L 343.233099 48.65464 
L 343.668585 48.880381 
L 344.10407 48.87905 
L 344.539556 48.342915 
L 344.975042 48.534049 
L 345.846013 48.359153 
L 346.281499 49.253332 
L 347.15247 48.9653 
L 347.587956 49.181191 
L 348.023441 48.87479 
L 348.458927 49.069652 
L 349.329898 49.03398 
L 349.765384 48.068725 
L 351.071841 48.128621 
L 351.507326 47.761259 
L 352.378298 47.657174 
L 352.813783 47.389372 
L 353.249269 47.328678 
L 353.684755 47.400553 
L 354.555726 47.175344 
L 355.426697 47.513423 
L 355.862183 47.35237 
L 356.297668 47.413863 
L 356.733154 46.674349 
L 358.475097 45.943619 
L 358.910582 46.234314 
L 359.781554 45.949741 
L 361.08801 46.519152 
L 361.523496 45.568537 
L 361.958982 45.24084 
L 362.394467 45.072866 
L 363.265439 45.752218 
L 364.13641 46.074325 
L 364.571896 46.16164 
L 365.442867 46.041316 
L 366.313838 45.94495 
L 367.184809 45.516628 
L 367.620295 45.676882 
L 368.055781 45.419197 
L 368.491266 45.352646 
L 368.926752 45.587438 
L 369.362238 45.652392 
L 369.797723 45.457797 
L 370.668695 47.219534 
L 371.10418 46.78642 
L 371.975151 46.491467 
L 372.410637 46.127566 
L 372.846123 46.668758 
L 373.281608 46.314973 
L 373.717094 46.598481 
L 374.15258 46.691918 
L 374.588065 46.371409 
L 375.023551 46.605402 
L 375.459037 46.569198 
L 375.894522 47.062208 
L 376.330008 46.035193 
L 378.07195 46.236443 
L 378.507436 46.936027 
L 378.942922 46.638145 
L 379.378407 47.066467 
L 379.813893 46.620575 
L 380.684864 46.805321 
L 381.12035 45.969973 
L 381.555836 46.032797 
L 381.991321 45.880528 
L 382.426807 45.895968 
L 382.862293 45.738109 
L 383.297778 45.818237 
L 383.733264 46.254545 
L 385.475206 45.947346 
L 385.910692 45.750887 
L 386.346178 45.690459 
L 387.217149 45.997126 
L 387.652635 45.696049 
L 388.08812 45.020424 
L 388.523606 45.237912 
L 390.265548 44.891581 
L 391.13652 44.975169 
L 391.572005 44.725203 
L 392.007491 44.744104 
L 392.442977 44.59503 
L 392.878462 45.544047 
L 393.313948 45.935899 
L 393.749434 45.803862 
L 394.184919 46.622705 
L 394.620405 46.718272 
L 395.05589 46.966108 
L 395.491376 46.069267 
L 395.926862 45.651327 
L 396.362347 45.416801 
L 396.797833 44.912611 
L 397.233319 44.735851 
L 397.668804 44.152332 
L 398.10429 43.925793 
L 398.539776 43.950017 
L 398.975261 44.668768 
L 400.281718 43.990214 
L 400.717204 43.917274 
L 401.152689 43.700851 
L 401.588175 43.293825 
L 402.023661 43.813987 
L 402.023661 43.813987 
" style="fill:none;stroke:#1f77b4;stroke-linecap:square;stroke-opacity:0.8;stroke-width:1.5;"/>
   </g>
   <g id="line2d_18">
    <path clip-path="url(#pf136d7261f)" d="M 147.264561 61.145994 
L 149.441989 60.433898 
L 149.877475 60.923714 
L 150.31296 60.891503 
L 150.748446 61.269779 
L 151.619417 60.758135 
L 152.054903 59.914268 
L 152.925874 58.88539 
L 153.36136 57.981095 
L 153.796845 57.594301 
L 154.232331 57.656326 
L 154.667817 57.358976 
L 155.103302 56.514844 
L 155.538788 56.683351 
L 155.974273 56.062297 
L 156.409759 55.895653 
L 157.28073 55.447366 
L 158.151702 55.253836 
L 159.022673 54.460548 
L 159.458159 54.838291 
L 159.893644 54.72755 
L 160.764616 54.724356 
L 161.635587 54.278997 
L 162.071072 54.344483 
L 162.942044 53.772144 
L 163.813015 53.336635 
L 164.248501 53.495292 
L 164.683986 53.525107 
L 165.119472 53.338232 
L 165.554958 53.40079 
L 165.990443 53.018255 
L 166.861415 52.99057 
L 167.2969 52.525245 
L 168.603357 52.659678 
L 169.038843 52.59366 
L 169.474328 52.802363 
L 169.909814 52.620812 
L 170.780785 53.265026 
L 171.216271 53.254644 
L 171.651757 53.383221 
L 172.522728 53.202734 
L 172.958213 54.050328 
L 173.393699 53.973661 
L 173.829185 53.778267 
L 174.26467 53.399459 
L 175.571127 53.319864 
L 176.442099 52.751519 
L 176.877584 53.768684 
L 177.31307 53.625466 
L 177.748556 53.637179 
L 178.184041 53.879957 
L 178.619527 54.421948 
L 179.055012 54.314136 
L 179.490498 55.127123 
L 180.361469 54.682296 
L 180.796955 54.600837 
L 181.667926 53.682966 
L 182.538898 53.194748 
L 182.974383 53.335304 
L 183.409869 53.231218 
L 183.845355 53.602306 
L 184.28084 53.41064 
L 184.716326 53.555721 
L 185.587297 54.890733 
L 186.022783 55.306012 
L 186.893754 55.361914 
L 187.32924 55.223488 
L 188.200211 56.014913 
L 188.635697 55.719959 
L 189.071182 56.310665 
L 189.506668 56.652471 
L 190.377639 56.641291 
L 190.813125 56.79702 
L 191.684096 56.81592 
L 192.119582 56.542263 
L 192.555067 56.54945 
L 192.990553 55.563431 
L 193.426039 55.587123 
L 193.861524 55.063766 
L 194.29701 54.136578 
L 194.732496 54.061242 
L 195.167981 53.662202 
L 195.603467 53.849876 
L 196.038952 53.902052 
L 197.345409 53.738337 
L 197.780895 53.424748 
L 198.216381 53.716508 
L 198.651866 53.409308 
L 199.522838 53.629725 
L 199.958323 53.325454 
L 200.393809 53.454563 
L 200.829295 53.195547 
L 201.700266 53.054459 
L 202.135751 53.099713 
L 202.571237 53.681103 
L 203.442208 53.925212 
L 204.31318 54.719298 
L 204.748665 54.506601 
L 205.184151 54.548395 
L 205.619637 54.895525 
L 206.055122 55.012655 
L 206.490608 54.488233 
L 206.926093 54.64902 
L 207.361579 54.423812 
L 207.797065 54.726219 
L 209.103522 54.678835 
L 209.539007 54.529495 
L 210.845464 54.502608 
L 211.28095 54.638106 
L 211.716436 54.506601 
L 212.151921 54.606694 
L 212.587407 54.591786 
L 213.022892 54.151219 
L 213.458378 54.111821 
L 213.893864 54.70865 
L 214.329349 55.079738 
L 215.200321 54.875826 
L 216.071292 53.854401 
L 216.506778 53.649957 
L 216.942263 53.784922 
L 217.377749 53.483579 
L 218.24872 53.279401 
L 218.684206 52.407051 
L 219.555177 51.679515 
L 219.990663 51.664342 
L 220.426148 51.256783 
L 220.861634 50.667408 
L 221.29712 51.234955 
L 221.732605 51.246401 
L 222.168091 50.671667 
L 222.603577 50.61603 
L 223.039062 50.910718 
L 223.474548 50.933878 
L 223.910033 51.452443 
L 224.781005 51.94918 
L 225.21649 51.848555 
L 226.087462 51.211795 
L 226.958433 50.005092 
L 227.393919 50.144849 
L 227.829404 49.992048 
L 228.26489 50.612304 
L 228.700376 50.441667 
L 229.135861 50.40147 
L 229.571347 50.183715 
L 230.006832 50.177326 
L 230.442318 49.371527 
L 230.877804 49.764178 
L 231.313289 49.833391 
L 231.748775 49.062997 
L 232.619746 49.041967 
L 233.490718 48.853228 
L 233.926203 48.499443 
L 234.797175 48.338123 
L 235.668146 48.108922 
L 236.103631 48.580901 
L 236.539117 48.344512 
L 236.974603 48.698031 
L 237.410088 48.646387 
L 238.28106 49.615902 
L 238.716545 50.34956 
L 239.152031 50.185845 
L 239.587517 50.212998 
L 240.023002 50.998566 
L 240.458488 51.19742 
L 240.893974 50.999364 
L 241.764945 50.167211 
L 242.20043 50.181319 
L 242.635916 49.985393 
L 243.942373 50.049548 
L 244.813344 49.485196 
L 245.684316 48.564663 
L 246.119801 48.66582 
L 246.555287 48.203424 
L 246.990772 48.016549 
L 247.426258 47.36009 
L 247.861744 47.119442 
L 249.168201 47.039314 
L 249.603686 47.143932 
L 250.039172 46.44355 
L 250.474658 46.191987 
L 250.910143 46.441953 
L 251.781115 46.282763 
L 252.2166 46.607265 
L 253.087571 45.682207 
L 253.523057 44.785099 
L 253.958543 44.760875 
L 254.394028 43.698721 
L 254.829514 43.619126 
L 255.265 43.709103 
L 256.135971 43.054774 
L 257.006942 42.953084 
L 257.877914 42.207446 
L 258.748885 42.359183 
L 259.18437 42.724148 
L 259.619856 42.780584 
L 260.055342 41.416821 
L 260.490827 40.788846 
L 260.926313 40.932063 
L 261.361799 40.907839 
L 261.797284 40.606496 
L 262.23277 40.514656 
L 262.668256 39.896796 
L 263.103741 40.152618 
L 263.974712 40.234077 
L 264.410198 40.198139 
L 264.845684 40.388741 
L 265.281169 40.117479 
L 265.716655 40.164597 
L 266.152141 39.763428 
L 266.587626 40.001681 
L 267.023112 39.851808 
L 267.894083 39.839562 
L 268.329569 40.18057 
L 268.765055 40.306484 
L 269.636026 40.182433 
L 270.071511 39.970535 
L 270.506997 39.577884 
L 271.813454 39.208659 
L 272.24894 39.37477 
L 273.119911 40.041079 
L 274.426368 39.649226 
L 274.861854 39.715511 
L 276.603796 39.285592 
L 277.039282 39.315407 
L 277.474767 39.033231 
L 277.910253 39.591993 
L 278.345739 39.605037 
L 279.21671 40.725489 
L 279.652196 40.672514 
L 280.087681 40.950165 
L 280.523167 40.961346 
L 280.958652 40.850871 
L 281.394138 41.024968 
L 281.829624 41.342816 
L 282.265109 40.962677 
L 282.700595 41.289575 
L 283.136081 41.0066 
L 283.571566 41.315397 
L 284.007052 41.352133 
L 284.442538 41.078475 
L 285.313509 40.968799 
L 285.748995 41.358788 
L 286.18448 41.188684 
L 287.055451 40.347746 
L 287.490937 40.236472 
L 287.926423 39.880558 
L 288.361908 39.864053 
L 288.797394 39.600245 
L 289.23288 39.567768 
L 289.668365 39.70087 
L 290.103851 40.334435 
L 290.539337 40.497086 
L 290.974822 40.336565 
L 291.410308 40.540743 
L 291.845794 39.809481 
L 292.281279 40.193614 
L 292.716765 39.959088 
L 293.587736 40.135847 
L 294.458707 39.85021 
L 294.894193 39.016992 
L 295.329679 39.192154 
L 295.765164 38.888149 
L 296.20065 38.750788 
L 296.636136 38.8208 
L 297.507107 38.549006 
L 297.942592 38.700476 
L 298.378078 38.635256 
L 298.813564 38.797108 
L 299.249049 37.475139 
L 299.684535 37.268298 
L 300.120021 36.284409 
L 300.555506 36.622488 
L 301.861963 36.322742 
L 302.732935 35.467695 
L 303.16842 35.819616 
L 303.603906 36.52905 
L 304.474877 37.180717 
L 305.345848 36.992245 
L 306.652305 37.641783 
L 307.087791 38.312616 
L 307.523277 38.003287 
L 307.958762 38.103913 
L 308.829734 37.937269 
L 309.265219 37.963357 
L 309.700705 37.456505 
L 310.13619 37.587477 
L 310.571676 38.361598 
L 311.007162 38.631529 
L 311.878133 39.832375 
L 312.313619 39.471668 
L 312.749104 39.765558 
L 313.18459 39.819331 
L 314.055561 39.609296 
L 314.491047 39.758104 
L 314.926532 39.720037 
L 315.362018 40.382618 
L 316.232989 40.445975 
L 316.668475 41.001276 
L 317.103961 40.8727 
L 317.539446 40.871635 
L 317.974932 41.028163 
L 318.410418 40.791774 
L 319.281389 40.894795 
L 319.716875 41.219031 
L 320.15236 41.231277 
L 320.587846 41.608754 
L 321.023331 41.419749 
L 321.458817 41.572018 
L 321.894303 42.250039 
L 322.329788 42.402574 
L 322.765274 42.30887 
L 323.20076 42.508523 
L 323.636245 42.33762 
L 324.071731 41.734668 
L 324.507217 41.4288 
L 325.378188 41.196138 
L 325.813674 41.588256 
L 326.684645 41.965467 
L 327.12013 41.945502 
L 327.555616 42.084993 
L 327.991102 41.47645 
L 328.426587 41.898916 
L 328.862073 41.869101 
L 329.297559 41.682758 
L 329.733044 41.956416 
L 330.16853 42.029888 
L 330.604016 42.387933 
L 331.039501 41.947099 
L 331.474987 42.236995 
L 331.910472 42.272134 
L 332.345958 42.985827 
L 332.781444 43.359311 
L 333.216929 43.130642 
L 334.087901 43.359577 
L 334.523386 43.293292 
L 334.958872 43.877876 
L 335.394358 44.047714 
L 335.829843 43.784705 
L 336.700815 43.691267 
L 337.571786 43.833686 
L 338.007271 44.286233 
L 338.442757 45.215551 
L 338.878243 45.163375 
L 339.313728 45.520355 
L 340.1847 45.467646 
L 340.620185 45.855505 
L 341.055671 45.889047 
L 341.491157 45.601281 
L 341.926642 45.164706 
L 342.362128 45.558155 
L 342.797614 45.458861 
L 343.233099 45.699776 
L 343.668585 45.716281 
L 344.10407 45.229926 
L 344.539556 45.196384 
L 344.975042 46.494395 
L 345.846013 46.962914 
L 346.281499 46.829812 
L 346.716984 46.924847 
L 347.587956 47.610322 
L 348.458927 47.060611 
L 349.329898 46.700969 
L 349.765384 45.595424 
L 350.200869 45.588503 
L 350.636355 44.459798 
L 351.071841 45.516628 
L 351.507326 45.443155 
L 351.942812 44.415874 
L 352.378298 43.9218 
L 353.249269 43.383535 
L 353.684755 42.290502 
L 354.12024 42.113476 
L 354.555726 41.159135 
L 354.991211 40.970397 
L 355.426697 40.645095 
L 355.862183 40.516519 
L 356.297668 40.062109 
L 356.733154 39.912236 
L 357.16864 39.61462 
L 357.604125 39.162872 
L 358.039611 38.278809 
L 358.475097 38.410047 
L 358.910582 38.712189 
L 359.346068 38.106308 
L 359.781554 37.220382 
L 360.217039 36.946458 
L 361.08801 36.881504 
L 361.523496 36.418575 
L 361.958982 36.863668 
L 362.829953 37.278148 
L 363.265439 36.537036 
L 363.700924 36.243679 
L 364.13641 36.681851 
L 364.571896 36.670138 
L 366.313838 35.768239 
L 366.749324 35.571514 
L 367.184809 35.766642 
L 368.055781 35.234766 
L 369.362238 35.083296 
L 370.233209 35.406202 
L 370.668695 34.990125 
L 371.10418 35.386769 
L 371.539666 35.966029 
L 371.975151 36.267372 
L 372.410637 36.275358 
L 373.717094 37.281609 
L 374.15258 37.220382 
L 374.588065 36.965624 
L 375.023551 36.49471 
L 376.330008 36.661087 
L 376.765494 37.292789 
L 377.200979 36.835451 
L 377.636465 36.946458 
L 378.07195 36.626481 
L 378.507436 36.098066 
L 379.378407 36.526654 
L 379.813893 37.178588 
L 380.249379 37.018865 
L 380.684864 37.220115 
L 381.12035 37.256319 
L 381.555836 36.986122 
L 382.426807 36.97015 
L 382.862293 37.219583 
L 383.733264 36.932083 
L 384.168749 37.808426 
L 384.604235 37.479132 
L 385.039721 38.541286 
L 385.475206 38.571633 
L 385.910692 38.932872 
L 386.346178 38.50455 
L 387.217149 38.965349 
L 387.652635 39.211587 
L 388.08812 39.014596 
L 388.959091 38.775279 
L 389.830063 38.494168 
L 390.265548 38.444121 
L 390.701034 38.550603 
L 391.572005 38.442524 
L 392.007491 38.572964 
L 392.442977 39.174319 
L 393.313948 38.98558 
L 393.749434 39.056923 
L 394.184919 38.922223 
L 394.620405 39.277073 
L 395.05589 38.568971 
L 395.491376 38.431876 
L 395.926862 38.502154 
L 396.797833 38.225035 
L 397.233319 38.592663 
L 397.668804 37.650833 
L 398.10429 37.392349 
L 398.975261 37.859537 
L 399.410747 37.373449 
L 400.281718 36.907326 
L 401.152689 36.964826 
L 401.588175 36.739617 
L 402.023661 36.720717 
L 402.023661 36.720717 
" style="fill:none;stroke:#ff7f0e;stroke-linecap:square;stroke-opacity:0.8;stroke-width:1.5;"/>
   </g>
   <g id="line2d_19">
    <path clip-path="url(#pf136d7261f)" d="M 147.264561 101.778033 
L 147.700046 101.320961 
L 148.135532 101.273311 
L 148.571018 101.053692 
L 149.441989 101.056088 
L 149.877475 100.917928 
L 150.31296 100.527939 
L 150.748446 100.641342 
L 152.054903 100.568935 
L 152.490388 100.627766 
L 152.925874 100.015231 
L 153.36136 100.426516 
L 153.796845 100.290219 
L 154.232331 100.519421 
L 154.667817 100.218611 
L 155.538788 100.067939 
L 155.974273 99.870948 
L 156.409759 100.030404 
L 156.845245 99.836608 
L 157.716216 99.779374 
L 158.151702 99.091237 
L 159.022673 98.931781 
L 159.458159 99.352649 
L 159.893644 99.609802 
L 160.32913 99.553899 
L 160.764616 99.631365 
L 161.200101 99.412013 
L 161.635587 99.677418 
L 162.942044 99.532071 
L 163.377529 99.696585 
L 163.813015 100.131296 
L 164.248501 100.002187 
L 164.683986 100.182407 
L 165.119472 99.993402 
L 165.990443 99.446087 
L 166.425929 99.417337 
L 166.861415 99.250427 
L 167.2969 99.561087 
L 167.732386 99.352117 
L 168.167871 99.529675 
L 168.603357 99.401098 
L 169.038843 99.887985 
L 169.474328 99.84699 
L 169.909814 99.631365 
L 170.3453 99.61486 
L 171.216271 99.041457 
L 171.651757 99.027348 
L 172.087242 98.443829 
L 172.522728 98.700716 
L 173.393699 97.494279 
L 173.829185 97.394187 
L 174.26467 97.868562 
L 175.135642 98.107879 
L 175.571127 98.131572 
L 176.442099 98.629639 
L 177.31307 98.731063 
L 177.748556 98.885461 
L 178.184041 99.414675 
L 178.619527 99.285299 
L 179.055012 99.35957 
L 179.490498 99.3042 
L 179.925984 99.64574 
L 180.361469 100.365821 
L 181.667926 100.193321 
L 182.103412 101.237107 
L 183.409869 101.189723 
L 183.845355 100.88412 
L 184.28084 101.385915 
L 184.716326 101.252547 
L 185.151811 100.973299 
L 185.587297 101.102408 
L 186.022783 100.996458 
L 186.893754 100.118252 
L 187.32924 99.687267 
L 189.071182 99.586376 
L 189.942153 99.644941 
L 190.813125 99.626839 
L 192.119582 99.972638 
L 192.555067 100.246296 
L 192.990553 100.277442 
L 193.426039 100.750752 
L 193.861524 100.867882 
L 194.29701 100.547905 
L 195.167981 100.543379 
L 196.474438 100.419594 
L 196.909924 100.316574 
L 197.345409 99.835543 
L 197.780895 100.072198 
L 198.651866 99.603147 
L 199.087352 99.770323 
L 199.522838 100.467511 
L 199.958323 100.541782 
L 200.393809 100.392175 
L 201.26478 100.751551 
L 201.700266 100.237245 
L 202.135751 99.973703 
L 203.006723 99.814247 
L 203.877694 98.676491 
L 204.31318 98.893713 
L 204.748665 97.917544 
L 205.184151 97.7698 
L 206.055122 96.818387 
L 206.490608 96.84767 
L 206.926093 97.240321 
L 207.361579 96.917415 
L 207.797065 97.130645 
L 208.668036 97.108284 
L 209.103522 97.143689 
L 209.974493 98.670368 
L 210.409979 98.584917 
L 210.845464 98.910484 
L 211.28095 97.777254 
L 211.716436 98.115333 
L 212.151921 98.186143 
L 212.587407 97.707509 
L 213.458378 97.603689 
L 213.893864 97.037207 
L 214.329349 96.965864 
L 214.764835 97.292763 
L 215.635806 97.210772 
L 216.506778 97.634036 
L 216.942263 97.317786 
L 217.813235 97.290899 
L 219.555177 96.865239 
L 219.990663 97.070216 
L 220.426148 96.029093 
L 220.861634 96.06929 
L 221.29712 95.323919 
L 222.168091 95.596511 
L 222.603577 95.453027 
L 223.910033 95.517449 
L 225.21649 94.986638 
L 225.651976 95.127194 
L 226.958433 94.482182 
L 227.393919 94.777136 
L 227.829404 94.571626 
L 228.26489 94.599045 
L 228.700376 94.386881 
L 229.135861 94.456626 
L 229.571347 94.198674 
L 230.006832 94.233281 
L 230.442318 94.396464 
L 230.877804 94.732147 
L 231.748775 94.752911 
L 232.184261 93.981984 
L 232.619746 94.307286 
L 233.055232 94.460353 
L 233.926203 94.330978 
L 234.797175 93.590665 
L 235.23266 93.881093 
L 236.539117 94.250318 
L 236.974603 94.667193 
L 237.410088 94.736939 
L 237.845574 95.187356 
L 238.28106 95.215574 
L 238.716545 94.396996 
L 239.152031 94.086869 
L 240.458488 93.940723 
L 240.893974 94.327251 
L 241.329459 94.511996 
L 242.20043 95.052391 
L 242.635916 95.066766 
L 243.506887 95.252043 
L 245.684316 95.3154 
L 246.119801 95.518514 
L 246.990772 95.191083 
L 247.426258 95.149289 
L 248.297229 94.748119 
L 248.732715 94.160873 
L 249.168201 94.175249 
L 249.603686 94.04614 
L 250.039172 94.316869 
L 250.474658 94.443316 
L 250.910143 94.859659 
L 251.345629 94.83996 
L 251.781115 95.037749 
L 252.2166 94.754242 
L 252.652086 94.740399 
L 253.087571 94.484577 
L 253.958543 94.738802 
L 255.265 94.857529 
L 255.700485 95.236337 
L 256.135971 95.047066 
L 256.571457 95.057182 
L 257.006942 95.606095 
L 257.877914 95.959347 
L 258.313399 96.667716 
L 259.18437 96.629649 
L 260.490827 96.152611 
L 261.797284 95.824648 
L 262.23277 95.630585 
L 262.668256 95.946836 
L 263.103741 95.880285 
L 263.539227 96.170447 
L 263.974712 96.051188 
L 264.410198 96.09378 
L 264.845684 96.355991 
L 265.281169 96.148885 
L 265.716655 96.24951 
L 266.152141 96.202924 
L 266.587626 96.326443 
L 267.023112 96.297693 
L 267.458598 96.578005 
L 268.329569 96.495482 
L 268.765055 96.691674 
L 269.20054 96.643491 
L 269.636026 96.774996 
L 270.506997 96.703387 
L 270.942483 96.365042 
L 272.684425 96.852994 
L 274.861854 96.752369 
L 275.732825 96.154741 
L 276.16831 96.36238 
L 277.039282 96.038676 
L 277.910253 96.038676 
L 278.345739 95.962542 
L 278.781224 96.02856 
L 279.21671 95.919151 
L 279.652196 95.936188 
L 280.087681 95.783653 
L 280.523167 95.769278 
L 280.958652 95.618074 
L 281.829624 95.823583 
L 282.265109 96.311269 
L 282.700595 96.553781 
L 283.136081 96.511188 
L 283.571566 96.649348 
L 284.007052 96.543665 
L 284.442538 96.624059 
L 284.878023 96.570552 
L 285.313509 96.690876 
L 285.748995 96.621663 
L 286.18448 96.360517 
L 286.619966 96.705783 
L 287.055451 96.370632 
L 287.490937 96.215436 
L 287.926423 96.303283 
L 288.797394 97.071814 
L 289.23288 96.991154 
L 289.668365 97.68781 
L 290.103851 97.80281 
L 290.974822 98.37222 
L 291.410308 98.491213 
L 291.845794 98.402035 
L 292.281279 98.669836 
L 293.15225 98.224743 
L 293.587736 97.878412 
L 294.023222 97.790831 
L 295.329679 97.078203 
L 295.765164 96.898781 
L 296.20065 98.170437 
L 297.071621 97.87921 
L 297.507107 98.294222 
L 297.942592 98.324037 
L 298.378078 98.681017 
L 298.813564 99.264003 
L 299.684535 98.982892 
L 300.120021 98.313123 
L 300.555506 98.304338 
L 301.426478 97.820379 
L 302.297449 98.260947 
L 303.603906 97.885599 
L 304.039391 98.121988 
L 304.474877 98.058099 
L 304.910363 97.878412 
L 305.345848 98.655727 
L 305.781334 98.67516 
L 306.21682 99.399767 
L 306.652305 99.162846 
L 307.523277 99.248031 
L 307.958762 98.604084 
L 308.394248 98.666908 
L 308.829734 98.441433 
L 309.700705 98.43957 
L 310.13619 98.419338 
L 310.571676 98.227937 
L 311.007162 98.442232 
L 311.442647 98.384199 
L 311.878133 98.556699 
L 312.313619 98.577463 
L 313.620076 99.022024 
L 314.055561 99.020959 
L 315.797504 97.987555 
L 316.668475 97.94097 
L 317.103961 98.396977 
L 317.539446 97.833157 
L 317.974932 97.557636 
L 318.410418 97.434383 
L 319.281389 97.533411 
L 319.716875 97.786039 
L 320.15236 97.833689 
L 321.023331 97.492682 
L 321.458817 97.637231 
L 323.20076 97.104823 
L 323.636245 97.747439 
L 324.507217 97.786305 
L 324.942702 97.149545 
L 325.378188 97.332694 
L 325.813674 97.10083 
L 326.684645 96.118005 
L 327.555616 95.904243 
L 327.991102 96.183225 
L 328.426587 96.2551 
L 329.297559 95.994486 
L 329.733044 95.67025 
L 330.16853 95.745852 
L 331.474987 95.344416 
L 331.910472 95.463942 
L 332.781444 94.958687 
L 333.216929 94.917159 
L 333.652415 95.274671 
L 334.087901 95.287449 
L 334.523386 95.103502 
L 335.829843 95.2004 
L 337.571786 95.107229 
L 338.442757 94.880423 
L 338.878243 95.115215 
L 339.313728 95.022309 
L 339.749214 95.082205 
L 340.1847 94.59026 
L 340.620185 94.596117 
L 341.055671 94.805886 
L 341.491157 94.852471 
L 341.926642 95.12959 
L 342.362128 95.00261 
L 342.797614 95.397125 
L 344.539556 95.078212 
L 344.975042 95.444509 
L 345.410527 95.408838 
L 346.716984 95.66253 
L 347.15247 96.017912 
L 348.023441 96.388468 
L 348.458927 96.290771 
L 349.329898 96.751837 
L 349.765384 96.732137 
L 350.200869 96.945899 
L 350.636355 96.543931 
L 351.071841 96.6387 
L 351.942812 96.322183 
L 352.378298 96.037611 
L 352.813783 96.017114 
L 353.249269 96.287843 
L 353.684755 96.345343 
L 354.12024 96.253503 
L 354.991211 96.460077 
L 355.426697 96.358653 
L 355.862183 96.825841 
L 356.297668 97.061165 
L 356.733154 97.168978 
L 358.039611 96.903307 
L 358.910582 96.811466 
L 359.781554 96.720691 
L 360.217039 96.787774 
L 360.652525 97.159661 
L 361.08801 96.976513 
L 362.394467 96.838353 
L 363.265439 97.005795 
L 363.700924 96.704718 
L 364.13641 97.073943 
L 365.442867 97.047589 
L 365.878353 97.274661 
L 366.749324 97.339349 
L 367.184809 97.617532 
L 368.055781 97.478573 
L 368.491266 97.724546 
L 368.926752 97.620992 
L 369.362238 97.389129 
L 369.797723 97.350263 
L 370.233209 97.467925 
L 371.10418 97.400043 
L 371.539666 97.228608 
L 372.410637 97.939372 
L 374.15258 98.181352 
L 375.023551 97.945761 
L 375.894522 97.832092 
L 376.765494 98.184014 
L 377.636465 98.14222 
L 378.507436 98.99567 
L 378.942922 99.086179 
L 380.249379 99.986747 
L 380.684864 99.978228 
L 381.12035 99.723471 
L 381.991321 99.841133 
L 382.426807 99.762337 
L 382.862293 99.944687 
L 383.297778 99.607939 
L 383.733264 99.532603 
L 384.168749 99.736515 
L 384.604235 99.79295 
L 385.039721 100.302465 
L 385.475206 100.623773 
L 385.910692 100.5125 
L 386.781663 100.626169 
L 387.217149 100.080451 
L 387.652635 99.907684 
L 388.08812 99.957731 
L 388.523606 100.231921 
L 388.959091 100.084976 
L 389.830063 100.428379 
L 390.265548 100.370347 
L 390.701034 100.581446 
L 392.007491 100.510104 
L 392.442977 100.741435 
L 392.878462 101.252547 
L 393.313948 101.161239 
L 394.184919 101.432767 
L 394.620405 101.584769 
L 395.926862 101.482547 
L 396.362347 101.71867 
L 397.233319 101.5861 
L 397.668804 101.453797 
L 398.10429 101.040914 
L 398.975261 100.852176 
L 399.410747 101.42132 
L 401.152689 102.200765 
L 401.588175 102.04823 
L 402.023661 102.387374 
L 402.023661 102.387374 
" style="fill:none;stroke:#2ca02c;stroke-linecap:square;stroke-opacity:0.8;stroke-width:1.5;"/>
   </g>
   <g id="line2d_20">
    <path clip-path="url(#pf136d7261f)" d="M 147.264561 101.567732 
L 147.700046 101.341725 
L 148.135532 101.414132 
L 148.571018 101.166829 
L 149.006503 101.268519 
L 149.877475 100.634687 
L 150.31296 101.142072 
L 151.183931 101.117049 
L 152.925874 100.512766 
L 153.796845 100.483483 
L 154.667817 99.857638 
L 155.103302 99.779374 
L 155.538788 99.288494 
L 155.974273 99.622314 
L 156.409759 99.483888 
L 157.28073 99.071804 
L 157.716216 99.180415 
L 158.151702 99.080589 
L 158.587187 99.15486 
L 159.022673 99.345994 
L 159.458159 99.373679 
L 160.764616 98.879871 
L 161.200101 98.472579 
L 161.635587 98.608343 
L 162.071072 98.537 
L 162.506558 98.339743 
L 162.942044 98.449951 
L 163.377529 98.258817 
L 163.813015 97.739453 
L 164.248501 98.505854 
L 164.683986 98.676757 
L 165.990443 98.420403 
L 166.425929 98.526086 
L 166.861415 98.240449 
L 167.732386 98.030414 
L 168.167871 97.589048 
L 169.038843 97.525691 
L 169.474328 97.481502 
L 169.909814 97.820379 
L 170.3453 97.502265 
L 170.780785 97.655865 
L 171.216271 97.219557 
L 172.522728 97.216362 
L 172.958213 96.740922 
L 173.393699 96.70392 
L 173.829185 96.415089 
L 174.26467 96.763283 
L 174.700156 97.331362 
L 175.135642 97.427196 
L 176.006613 97.955877 
L 176.877584 97.804939 
L 177.31307 97.616733 
L 178.184041 98.407359 
L 179.055012 98.192798 
L 179.490498 98.164581 
L 179.925984 98.010981 
L 180.361469 97.654002 
L 181.232441 97.511849 
L 181.667926 97.873354 
L 182.103412 97.537404 
L 182.974383 97.237659 
L 183.409869 96.714568 
L 183.845355 96.392994 
L 184.28084 96.267878 
L 184.716326 96.276929 
L 186.022783 95.963074 
L 186.458268 95.621268 
L 186.893754 95.49003 
L 187.764725 95.573618 
L 188.200211 95.636974 
L 188.635697 95.293837 
L 189.506668 95.030296 
L 189.942153 94.341094 
L 191.24861 93.87151 
L 191.684096 94.113755 
L 192.990553 93.705931 
L 193.426039 93.667864 
L 194.732496 94.557784 
L 195.603467 94.566036 
L 196.038952 94.592656 
L 196.474438 94.317135 
L 196.909924 94.25085 
L 197.345409 93.961487 
L 197.780895 93.95563 
L 198.216381 93.812679 
L 198.651866 93.961753 
L 199.522838 93.935133 
L 199.958323 93.821197 
L 200.393809 93.909577 
L 200.829295 93.755445 
L 201.26478 93.263234 
L 201.700266 93.564843 
L 202.571237 93.463952 
L 203.006723 93.672389 
L 203.442208 93.648697 
L 203.877694 93.412042 
L 204.748665 93.435468 
L 205.184151 93.154623 
L 206.055122 91.928487 
L 207.361579 91.79645 
L 207.797065 91.487121 
L 208.668036 91.645512 
L 209.103522 91.530512 
L 209.539007 91.128012 
L 209.974493 90.346171 
L 210.409979 89.912258 
L 210.845464 89.854758 
L 211.716436 89.470626 
L 212.151921 89.563798 
L 212.587407 89.408068 
L 213.022892 88.952061 
L 213.458378 88.755336 
L 213.893864 88.219201 
L 214.329349 87.915995 
L 214.764835 87.43736 
L 215.635806 87.27471 
L 216.071292 87.409409 
L 216.942263 87.357499 
L 217.377749 87.097684 
L 218.24872 87.130161 
L 219.990663 86.681874 
L 220.426148 86.469443 
L 220.861634 86.395971 
L 221.29712 86.694651 
L 222.603577 86.662973 
L 223.474548 86.251156 
L 224.345519 86.405554 
L 224.781005 86.286295 
L 225.651976 86.275913 
L 226.087462 86.027012 
L 226.522947 86.21016 
L 226.958433 86.56288 
L 227.393919 86.517626 
L 227.829404 86.625971 
L 228.26489 87.145601 
L 228.700376 87.454131 
L 229.571347 87.507638 
L 230.006832 87.746423 
L 230.442318 87.672951 
L 231.313289 88.074919 
L 232.619746 87.942882 
L 233.055232 87.674814 
L 235.668146 87.346052 
L 236.103631 87.194316 
L 236.974603 87.190856 
L 237.410088 87.319166 
L 238.28106 87.229721 
L 238.716545 86.890311 
L 239.152031 87.000254 
L 239.587517 86.768922 
L 240.023002 86.803263 
L 240.458488 86.958992 
L 240.893974 86.650728 
L 241.329459 86.650195 
L 241.764945 86.266595 
L 242.635916 85.766931 
L 243.071402 85.893111 
L 243.942373 85.69612 
L 244.813344 85.437104 
L 246.119801 85.574731 
L 246.555287 85.689465 
L 246.990772 85.375078 
L 247.426258 85.225472 
L 247.861744 84.906027 
L 248.297229 84.930252 
L 248.732715 85.329291 
L 250.039172 84.344071 
L 250.474658 84.449754 
L 250.910143 84.134834 
L 252.652086 84.146547 
L 253.087571 83.812461 
L 253.958543 84.038735 
L 254.394028 83.873422 
L 254.829514 84.093839 
L 255.700485 83.835621 
L 256.135971 84.013978 
L 256.571457 83.65407 
L 257.006942 83.764545 
L 257.442428 83.555574 
L 257.877914 83.745112 
L 259.18437 83.491686 
L 259.619856 83.592311 
L 260.055342 83.421408 
L 260.490827 83.440308 
L 260.926313 82.890331 
L 261.361799 82.650215 
L 261.797284 81.885411 
L 262.668256 81.979913 
L 263.103741 81.506336 
L 263.539227 81.428605 
L 263.974712 81.475989 
L 264.410198 81.301359 
L 264.845684 81.301626 
L 265.281169 81.18769 
L 265.716655 81.404913 
L 266.152141 81.450167 
L 266.587626 81.211116 
L 267.458598 81.344218 
L 267.894083 81.012794 
L 268.329569 81.188223 
L 269.636026 80.856533 
L 271.813454 80.835236 
L 272.684425 80.436995 
L 273.119911 80.233083 
L 273.990882 80.524576 
L 274.426368 80.579681 
L 274.861854 81.035422 
L 275.297339 80.813408 
L 275.732825 80.844021 
L 277.474767 80.392273 
L 278.345739 80.241868 
L 278.781224 79.854275 
L 279.21671 79.652758 
L 279.652196 79.254783 
L 280.087681 79.335976 
L 280.523167 79.300038 
L 280.958652 78.967283 
L 281.394138 78.971276 
L 281.829624 78.80969 
L 282.700595 78.829922 
L 283.136081 78.761508 
L 283.571566 78.425026 
L 284.007052 78.566646 
L 284.878023 78.366993 
L 285.313509 78.114898 
L 285.748995 78.110373 
L 286.18448 78.561855 
L 287.055451 78.421831 
L 287.490937 78.131669 
L 288.361908 78.426357 
L 288.797394 78.180917 
L 289.23288 77.612571 
L 290.103851 77.540962 
L 290.974822 78.145245 
L 291.410308 78.040095 
L 291.845794 78.290327 
L 292.716765 78.084019 
L 293.15225 77.690303 
L 294.458707 77.926958 
L 294.894193 78.935339 
L 295.329679 78.758846 
L 295.765164 78.793984 
L 296.20065 79.000825 
L 296.636136 79.33358 
L 297.507107 79.110767 
L 297.942592 79.17998 
L 298.378078 79.048742 
L 299.249049 79.380432 
L 299.684535 79.689761 
L 300.120021 79.576092 
L 300.555506 79.614159 
L 300.990992 79.409448 
L 301.861963 79.410513 
L 302.297449 79.073232 
L 302.732935 78.96888 
L 303.16842 79.202608 
L 303.603906 79.135258 
L 304.039391 78.700014 
L 304.474877 78.90792 
L 304.910363 78.745269 
L 305.345848 78.829656 
L 306.21682 78.507283 
L 306.652305 78.784135 
L 307.523277 78.714123 
L 307.958762 79.086809 
L 308.394248 79.139517 
L 308.829734 79.333314 
L 309.265219 79.066311 
L 311.007162 78.459898 
L 312.313619 77.776021 
L 313.18459 77.164018 
L 313.620076 77.305372 
L 314.491047 77.024793 
L 314.926532 77.004029 
L 315.362018 76.800117 
L 316.232989 75.966899 
L 316.668475 75.770174 
L 317.539446 75.83007 
L 317.974932 76.124225 
L 318.410418 76.171077 
L 319.281389 75.813033 
L 319.716875 75.74941 
L 320.15236 76.053947 
L 320.587846 75.42331 
L 321.023331 75.425972 
L 321.458817 75.289143 
L 321.894303 75.391099 
L 322.329788 75.068993 
L 324.507217 75.431296 
L 324.942702 75.357025 
L 325.813674 74.871736 
L 326.684645 74.89596 
L 327.12013 74.837661 
L 327.991102 75.059942 
L 328.426587 74.807314 
L 328.862073 74.190786 
L 329.297559 74.261862 
L 329.733044 74.466307 
L 330.16853 74.485474 
L 331.039501 74.900486 
L 331.474987 74.524073 
L 331.910472 74.673946 
L 332.781444 74.684594 
L 333.216929 74.427974 
L 333.652415 74.747418 
L 334.523386 74.461781 
L 334.958872 74.502511 
L 335.394358 74.373668 
L 335.829843 74.620173 
L 336.265329 74.203031 
L 336.700815 73.975427 
L 337.1363 73.962649 
L 337.571786 73.808517 
L 338.007271 74.103205 
L 338.442757 73.857232 
L 339.313728 73.73398 
L 339.749214 73.238308 
L 340.620185 73.18134 
L 341.491157 73.610994 
L 341.926642 73.419061 
L 342.797614 73.293679 
L 343.233099 72.9745 
L 344.10407 73.086838 
L 344.539556 72.911942 
L 344.975042 73.051433 
L 345.410527 72.848319 
L 345.846013 73.294477 
L 346.281499 73.38126 
L 347.15247 73.350114 
L 347.587956 72.804662 
L 348.458927 72.560819 
L 349.329898 72.709095 
L 349.765384 72.487347 
L 350.200869 72.576525 
L 350.636355 72.276247 
L 351.507326 72.483354 
L 351.942812 72.233122 
L 352.378298 72.126108 
L 352.813783 72.183608 
L 353.249269 71.99833 
L 354.555726 71.917138 
L 356.297668 71.184012 
L 356.733154 71.309394 
L 357.16864 71.634696 
L 358.039611 71.797612 
L 358.910582 70.876813 
L 359.781554 70.49135 
L 360.217039 70.566951 
L 360.652525 70.455146 
L 361.08801 70.470586 
L 361.523496 70.373421 
L 361.958982 70.69047 
L 362.394467 70.65613 
L 364.13641 69.673039 
L 364.571896 69.705516 
L 365.878353 69.402309 
L 366.313838 69.441707 
L 367.184809 69.69114 
L 367.620295 69.314728 
L 368.491266 69.722819 
L 369.362238 69.235399 
L 371.975151 68.730943 
L 372.410637 68.784982 
L 373.281608 68.2571 
L 373.717094 68.631383 
L 374.15258 68.653744 
L 374.588065 68.183894 
L 375.023551 68.145294 
L 375.459037 67.948836 
L 375.894522 67.521046 
L 376.330008 67.679437 
L 376.765494 66.744795 
L 378.07195 66.988638 
L 378.942922 66.74799 
L 379.378407 67.050664 
L 379.813893 66.597052 
L 380.249379 66.791115 
L 382.862293 66.803094 
L 383.297778 67.061312 
L 383.733264 66.681705 
L 384.604235 66.830779 
L 385.475206 66.510536 
L 385.910692 66.596253 
L 386.346178 66.548603 
L 386.781663 66.318869 
L 387.652635 66.215848 
L 388.08812 65.953105 
L 388.523606 65.930211 
L 388.959091 66.382225 
L 389.394577 66.102445 
L 389.830063 66.153822 
L 390.265548 65.566843 
L 390.701034 65.824794 
L 391.572005 64.974007 
L 392.442977 64.69609 
L 393.749434 63.457176 
L 395.491376 63.57404 
L 395.926862 64.043091 
L 396.362347 64.076367 
L 396.797833 63.788867 
L 397.233319 63.642721 
L 397.668804 63.657096 
L 398.10429 63.43801 
L 398.539776 62.970822 
L 399.410747 62.995845 
L 399.846233 62.700891 
L 400.717204 62.97588 
L 401.588175 62.85103 
L 402.023661 62.929294 
L 402.023661 62.929294 
" style="fill:none;stroke:#d62728;stroke-linecap:square;stroke-opacity:0.8;stroke-width:1.5;"/>
   </g>
   <g id="line2d_21">
    <path clip-path="url(#pf136d7261f)" d="M 147.264561 98.289697 
L 147.700046 98.036803 
L 148.135532 98.091375 
L 149.441989 97.448492 
L 149.877475 96.965332 
L 150.748446 96.460609 
L 151.619417 96.362114 
L 152.490388 96.114278 
L 153.796845 95.73334 
L 154.232331 95.454625 
L 154.667817 95.422148 
L 155.103302 95.241395 
L 155.538788 95.530493 
L 156.409759 95.381685 
L 156.845245 95.575747 
L 157.28073 95.337229 
L 157.716216 95.339625 
L 158.151702 95.139972 
L 159.022673 95.826512 
L 159.458159 95.780192 
L 159.893644 95.528629 
L 160.764616 95.734405 
L 161.200101 95.566963 
L 161.635587 95.641766 
L 162.506558 96.024834 
L 162.942044 96.042935 
L 163.377529 96.510123 
L 163.813015 96.793098 
L 165.119472 96.674904 
L 165.990443 96.358121 
L 167.2969 96.663723 
L 167.732386 96.953087 
L 168.603357 96.941906 
L 169.038843 97.184152 
L 171.651757 96.245783 
L 172.087242 96.24738 
L 172.522728 95.93459 
L 173.829185 95.870435 
L 174.26467 95.606361 
L 174.700156 95.748248 
L 175.135642 95.553919 
L 175.571127 95.84062 
L 176.006613 95.554185 
L 176.877584 95.390736 
L 177.31307 95.027634 
L 178.184041 94.740133 
L 178.619527 94.956557 
L 179.055012 94.991164 
L 179.490498 94.825319 
L 179.925984 94.80136 
L 180.361469 94.90305 
L 180.796955 94.676244 
L 181.232441 94.85114 
L 182.103412 94.552992 
L 182.538898 94.565503 
L 182.974383 94.222633 
L 183.409869 94.083941 
L 184.28084 94.767818 
L 184.716326 94.44092 
L 186.022783 94.288651 
L 186.458268 94.471001 
L 186.893754 94.500816 
L 187.32924 94.23754 
L 187.764725 94.256441 
L 189.071182 94.920087 
L 189.506668 94.813606 
L 189.942153 94.558848 
L 190.813125 94.523443 
L 192.119582 94.409774 
L 192.555067 94.702599 
L 192.990553 94.521047 
L 193.426039 94.494427 
L 193.861524 94.754508 
L 194.29701 94.827182 
L 194.732496 94.707124 
L 195.167981 94.459821 
L 196.038952 94.417494 
L 196.474438 94.161406 
L 196.909924 94.218906 
L 197.345409 94.093258 
L 197.780895 94.495492 
L 198.651866 93.987309 
L 199.522838 94.362124 
L 199.958323 94.014994 
L 200.393809 94.175781 
L 200.829295 94.051464 
L 201.26478 93.470074 
L 201.700266 93.523847 
L 202.135751 93.701405 
L 202.571237 93.738408 
L 203.006723 94.03629 
L 203.877694 93.981718 
L 204.31318 94.178975 
L 204.748665 94.071163 
L 205.184151 93.81401 
L 205.619637 94.117748 
L 206.055122 93.659345 
L 206.490608 92.91424 
L 207.361579 93.303164 
L 207.797065 93.306625 
L 208.23255 93.428813 
L 208.668036 93.365989 
L 209.539007 93.000224 
L 210.409979 92.875108 
L 211.28095 92.799507 
L 211.716436 91.809228 
L 212.151921 91.64711 
L 213.022892 91.674262 
L 213.458378 92.11696 
L 214.329349 92.060524 
L 214.764835 92.327527 
L 215.200321 92.353082 
L 215.635806 92.079691 
L 216.071292 92.214656 
L 216.506778 91.55314 
L 217.813235 91.539829 
L 218.24872 91.067317 
L 219.119691 90.952584 
L 219.555177 90.718324 
L 221.29712 90.402606 
L 222.168091 90.390361 
L 222.603577 90.145986 
L 223.039062 90.359215 
L 223.474548 90.371194 
L 223.910033 89.65271 
L 225.21649 89.110452 
L 225.651976 89.20735 
L 226.087462 89.18286 
L 226.958433 88.374132 
L 227.393919 88.228785 
L 227.829404 88.483276 
L 228.700376 87.880058 
L 229.135861 87.888842 
L 229.571347 87.589895 
L 230.442318 87.622905 
L 230.877804 87.625567 
L 231.313289 87.480485 
L 231.748775 86.880994 
L 232.184261 86.943818 
L 232.619746 86.865288 
L 233.490718 87.063876 
L 233.926203 87.353506 
L 234.361689 87.159177 
L 234.797175 87.653518 
L 235.23266 87.848646 
L 235.668146 88.28522 
L 237.845574 88.082373 
L 238.28106 87.795671 
L 238.716545 88.041377 
L 239.152031 87.476492 
L 239.587517 87.346319 
L 240.023002 87.569398 
L 242.20043 87.543043 
L 242.635916 87.545439 
L 243.071402 87.383853 
L 243.506887 87.365485 
L 245.24883 86.821098 
L 246.555287 86.67655 
L 246.990772 86.578853 
L 247.426258 86.204304 
L 247.861744 85.990276 
L 248.297229 85.311189 
L 249.168201 85.07906 
L 249.603686 85.056699 
L 250.039172 84.766536 
L 250.474658 84.707173 
L 250.910143 84.835749 
L 251.345629 84.728469 
L 251.781115 84.426061 
L 252.652086 84.439372 
L 253.087571 84.675494 
L 253.523057 84.61693 
L 253.958543 84.346466 
L 254.394028 84.279915 
L 255.700485 84.571675 
L 256.135971 84.430853 
L 257.006942 84.613469 
L 257.442428 85.051907 
L 257.877914 84.761478 
L 258.313399 84.96752 
L 258.748885 85.037532 
L 259.18437 85.262474 
L 259.619856 85.166641 
L 260.055342 85.276583 
L 260.490827 84.849059 
L 260.926313 84.854117 
L 261.361799 85.014106 
L 261.797284 84.821374 
L 263.103741 85.220148 
L 263.539227 84.94649 
L 264.410198 84.871953 
L 264.845684 84.474244 
L 265.281169 84.235726 
L 267.023112 83.902704 
L 267.894083 83.911755 
L 268.765055 83.277658 
L 269.20054 83.277125 
L 269.636026 83.527091 
L 270.506997 83.485829 
L 270.942483 83.371361 
L 271.377968 83.411824 
L 272.24894 82.864775 
L 273.119911 82.45136 
L 273.555397 82.199265 
L 274.426368 82.263154 
L 274.861854 82.401847 
L 275.297339 82.385874 
L 275.732825 82.23121 
L 276.16831 82.243721 
L 277.039282 82.068825 
L 277.474767 81.754705 
L 277.910253 81.937853 
L 278.345739 81.906707 
L 278.781224 81.462945 
L 280.523167 81.721163 
L 280.958652 81.425677 
L 281.829624 81.616811 
L 282.265109 81.688154 
L 282.700595 81.89739 
L 283.136081 82.270608 
L 284.007052 82.339821 
L 284.442538 82.081869 
L 284.878023 82.232541 
L 285.313509 81.821522 
L 285.748995 81.133385 
L 286.18448 81.620804 
L 286.619966 81.459751 
L 287.490937 81.527633 
L 287.926423 81.218038 
L 288.361908 81.391869 
L 288.797394 81.330908 
L 289.23288 81.117146 
L 289.668365 81.190352 
L 290.103851 80.756706 
L 290.974822 80.745792 
L 291.410308 81.130723 
L 292.281279 80.859195 
L 292.716765 80.308153 
L 293.15225 80.322794 
L 293.587736 80.199807 
L 294.023222 79.602712 
L 294.458707 79.710258 
L 295.329679 79.343163 
L 295.765164 79.372712 
L 296.20065 79.275015 
L 296.636136 79.813279 
L 297.071621 80.038488 
L 297.942592 79.561983 
L 298.378078 79.187966 
L 299.684535 78.926022 
L 300.120021 78.791056 
L 300.555506 79.198348 
L 300.990992 79.06711 
L 301.426478 79.658349 
L 302.297449 79.351416 
L 302.732935 79.663673 
L 303.16842 80.497157 
L 304.039391 80.185965 
L 304.474877 80.559449 
L 304.910363 80.382956 
L 306.21682 80.342227 
L 307.087791 80.756972 
L 307.523277 80.71225 
L 308.394248 80.351544 
L 308.829734 80.829912 
L 309.700705 80.899924 
L 310.13619 81.035688 
L 311.007162 81.00747 
L 311.442647 81.448836 
L 312.313619 81.92401 
L 312.749104 81.639438 
L 313.18459 81.510063 
L 313.620076 82.003872 
L 314.055561 82.109288 
L 314.491047 82.340087 
L 315.797504 82.149485 
L 316.232989 82.343548 
L 316.668475 82.679497 
L 317.974932 82.008131 
L 318.410418 82.007332 
L 318.845903 81.631985 
L 319.716875 81.579543 
L 320.15236 81.382019 
L 320.587846 81.06151 
L 321.458817 81.050862 
L 321.894303 81.27394 
L 322.765274 81.393998 
L 323.20076 81.763223 
L 323.636245 81.827112 
L 324.071731 82.448698 
L 324.507217 82.374694 
L 326.684645 82.767877 
L 327.12013 82.263154 
L 327.555616 82.240793 
L 327.991102 82.591916 
L 328.426587 82.623328 
L 329.297559 82.325978 
L 329.733044 82.506465 
L 330.16853 82.363779 
L 331.039501 82.551453 
L 331.474987 82.89459 
L 331.910472 82.68775 
L 332.781444 83.000805 
L 333.216929 83.37988 
L 334.087901 83.39319 
L 334.523386 83.222021 
L 334.958872 83.394787 
L 335.394358 83.380945 
L 336.265329 82.780655 
L 336.700815 82.778791 
L 338.007271 81.781325 
L 338.442757 81.857726 
L 338.878243 81.668188 
L 339.313728 81.783455 
L 340.1847 81.634913 
L 340.620185 81.406776 
L 341.055671 81.495422 
L 342.362128 81.001348 
L 342.797614 81.153084 
L 343.233099 81.147227 
L 343.668585 80.944114 
L 344.539556 81.195676 
L 344.975042 81.160271 
L 345.410527 81.374033 
L 346.281499 81.066834 
L 347.15247 81.690017 
L 347.587956 81.635445 
L 348.023441 81.764288 
L 348.458927 81.75364 
L 348.894412 81.455225 
L 350.200869 81.881684 
L 351.071841 81.761094 
L 351.507326 81.430468 
L 351.942812 81.827645 
L 352.813783 81.73261 
L 353.249269 82.019045 
L 353.684755 81.815399 
L 354.991211 81.747251 
L 355.426697 81.594716 
L 355.862183 81.619739 
L 356.733154 81.904311 
L 357.16864 82.191812 
L 357.604125 81.813802 
L 358.039611 81.976453 
L 358.475097 81.705191 
L 358.910582 81.729415 
L 359.346068 81.625596 
L 360.217039 81.803686 
L 360.652525 82.024636 
L 361.08801 81.901383 
L 361.523496 82.185423 
L 362.394467 82.441245 
L 362.829953 81.786915 
L 364.571896 81.721695 
L 365.007381 81.595249 
L 365.442867 81.612019 
L 365.878353 81.904311 
L 366.749324 81.777598 
L 367.184809 81.984971 
L 368.055781 81.511661 
L 369.797723 81.461082 
L 370.233209 81.725422 
L 370.668695 82.382147 
L 371.10418 82.295631 
L 371.975151 81.125132 
L 372.410637 80.963014 
L 372.846123 80.998952 
L 373.281608 80.642771 
L 373.717094 80.652354 
L 374.15258 80.536023 
L 374.588065 80.12953 
L 375.023551 80.28659 
L 375.459037 80.242666 
L 375.894522 80.515259 
L 376.330008 80.51659 
L 376.765494 80.220838 
L 377.200979 80.07975 
L 377.636465 80.460421 
L 378.07195 80.271683 
L 378.507436 80.366451 
L 378.942922 80.91776 
L 379.378407 80.79078 
L 380.249379 81.056452 
L 380.684864 81.012262 
L 381.555836 81.246788 
L 381.991321 80.92122 
L 382.426807 80.930005 
L 383.297778 81.292308 
L 384.604235 80.776938 
L 385.039721 81.139507 
L 385.475206 80.747921 
L 386.346178 80.640907 
L 386.781663 80.557586 
L 387.217149 80.766289 
L 388.08812 80.080814 
L 388.959091 80.332643 
L 389.830063 80.250919 
L 390.265548 80.290317 
L 391.13652 79.936266 
L 391.572005 79.446983 
L 393.749434 78.657156 
L 394.184919 78.598857 
L 394.620405 78.323336 
L 395.05589 78.29006 
L 395.926862 78.692827 
L 396.362347 78.691762 
L 396.797833 77.910187 
L 399.846233 77.343173 
L 400.281718 77.657826 
L 400.717204 77.601391 
L 401.152689 77.795986 
L 402.023661 77.908058 
L 402.023661 77.908058 
" style="fill:none;stroke:#9467bd;stroke-linecap:square;stroke-opacity:0.8;stroke-width:1.5;"/>
   </g>
   <g id="patch_3">
    <path d="M 61.909375 288.430125 
L 61.909375 22.318125 
" style="fill:none;stroke:#000000;stroke-linecap:square;stroke-linejoin:miter;stroke-width:0.8;"/>
   </g>
   <g id="patch_4">
    <path d="M 419.029375 288.430125 
L 419.029375 22.318125 
" style="fill:none;stroke:#000000;stroke-linecap:square;stroke-linejoin:miter;stroke-width:0.8;"/>
   </g>
   <g id="patch_5">
    <path d="M 61.909375 288.430125 
L 419.029375 288.430125 
" style="fill:none;stroke:#000000;stroke-linecap:square;stroke-linejoin:miter;stroke-width:0.8;"/>
   </g>
   <g id="patch_6">
    <path d="M 61.909375 22.318125 
L 419.029375 22.318125 
" style="fill:none;stroke:#000000;stroke-linecap:square;stroke-linejoin:miter;stroke-width:0.8;"/>
   </g>
   <g id="text_19">
    <!-- Save without change [leaf] -->
    <g transform="translate(159.55375 16.318125)scale(0.12 -0.12)">
     <defs>
      <path d="M 53.515625 70.515625 
L 53.515625 60.890625 
Q 47.90625 63.578125 42.921875 64.890625 
Q 37.9375 66.21875 33.296875 66.21875 
Q 25.25 66.21875 20.875 63.09375 
Q 16.5 59.96875 16.5 54.203125 
Q 16.5 49.359375 19.40625 46.890625 
Q 22.3125 44.4375 30.421875 42.921875 
L 36.375 41.703125 
Q 47.40625 39.59375 52.65625 34.296875 
Q 57.90625 29 57.90625 20.125 
Q 57.90625 9.515625 50.796875 4.046875 
Q 43.703125 -1.421875 29.984375 -1.421875 
Q 24.8125 -1.421875 18.96875 -0.25 
Q 13.140625 0.921875 6.890625 3.21875 
L 6.890625 13.375 
Q 12.890625 10.015625 18.65625 8.296875 
Q 24.421875 6.59375 29.984375 6.59375 
Q 38.421875 6.59375 43.015625 9.90625 
Q 47.609375 13.234375 47.609375 19.390625 
Q 47.609375 24.75 44.3125 27.78125 
Q 41.015625 30.8125 33.5 32.328125 
L 27.484375 33.5 
Q 16.453125 35.6875 11.515625 40.375 
Q 6.59375 45.0625 6.59375 53.421875 
Q 6.59375 63.09375 13.40625 68.65625 
Q 20.21875 74.21875 32.171875 74.21875 
Q 37.3125 74.21875 42.625 73.28125 
Q 47.953125 72.359375 53.515625 70.515625 
z
" id="DejaVuSans-83"/>
      <path d="M 2.984375 54.6875 
L 12.5 54.6875 
L 29.59375 8.796875 
L 46.6875 54.6875 
L 56.203125 54.6875 
L 35.6875 0 
L 23.484375 0 
z
" id="DejaVuSans-118"/>
      <path d="M 4.203125 54.6875 
L 13.1875 54.6875 
L 24.421875 12.015625 
L 35.59375 54.6875 
L 46.1875 54.6875 
L 57.421875 12.015625 
L 68.609375 54.6875 
L 77.59375 54.6875 
L 63.28125 0 
L 52.6875 0 
L 40.921875 44.828125 
L 29.109375 0 
L 18.5 0 
z
" id="DejaVuSans-119"/>
      <path d="M 54.890625 33.015625 
L 54.890625 0 
L 45.90625 0 
L 45.90625 32.71875 
Q 45.90625 40.484375 42.875 44.328125 
Q 39.84375 48.1875 33.796875 48.1875 
Q 26.515625 48.1875 22.3125 43.546875 
Q 18.109375 38.921875 18.109375 30.90625 
L 18.109375 0 
L 9.078125 0 
L 9.078125 75.984375 
L 18.109375 75.984375 
L 18.109375 46.1875 
Q 21.34375 51.125 25.703125 53.5625 
Q 30.078125 56 35.796875 56 
Q 45.21875 56 50.046875 50.171875 
Q 54.890625 44.34375 54.890625 33.015625 
z
" id="DejaVuSans-104"/>
      <path d="M 45.40625 27.984375 
Q 45.40625 37.75 41.375 43.109375 
Q 37.359375 48.484375 30.078125 48.484375 
Q 22.859375 48.484375 18.828125 43.109375 
Q 14.796875 37.75 14.796875 27.984375 
Q 14.796875 18.265625 18.828125 12.890625 
Q 22.859375 7.515625 30.078125 7.515625 
Q 37.359375 7.515625 41.375 12.890625 
Q 45.40625 18.265625 45.40625 27.984375 
z
M 54.390625 6.78125 
Q 54.390625 -7.171875 48.1875 -13.984375 
Q 42 -20.796875 29.203125 -20.796875 
Q 24.46875 -20.796875 20.265625 -20.09375 
Q 16.0625 -19.390625 12.109375 -17.921875 
L 12.109375 -9.1875 
Q 16.0625 -11.328125 19.921875 -12.34375 
Q 23.78125 -13.375 27.78125 -13.375 
Q 36.625 -13.375 41.015625 -8.765625 
Q 45.40625 -4.15625 45.40625 5.171875 
L 45.40625 9.625 
Q 42.625 4.78125 38.28125 2.390625 
Q 33.9375 0 27.875 0 
Q 17.828125 0 11.671875 7.65625 
Q 5.515625 15.328125 5.515625 27.984375 
Q 5.515625 40.671875 11.671875 48.328125 
Q 17.828125 56 27.875 56 
Q 33.9375 56 38.28125 53.609375 
Q 42.625 51.21875 45.40625 46.390625 
L 45.40625 54.6875 
L 54.390625 54.6875 
z
" id="DejaVuSans-103"/>
      <path d="M 8.59375 75.984375 
L 29.296875 75.984375 
L 29.296875 69 
L 17.578125 69 
L 17.578125 -6.203125 
L 29.296875 -6.203125 
L 29.296875 -13.1875 
L 8.59375 -13.1875 
z
" id="DejaVuSans-91"/>
      <path d="M 30.421875 75.984375 
L 30.421875 -13.1875 
L 9.71875 -13.1875 
L 9.71875 -6.203125 
L 21.390625 -6.203125 
L 21.390625 69 
L 9.71875 69 
L 9.71875 75.984375 
z
" id="DejaVuSans-93"/>
     </defs>
     <use xlink:href="#DejaVuSans-83"/>
     <use x="63.476562" xlink:href="#DejaVuSans-97"/>
     <use x="124.755859" xlink:href="#DejaVuSans-118"/>
     <use x="183.935547" xlink:href="#DejaVuSans-101"/>
     <use x="245.458984" xlink:href="#DejaVuSans-32"/>
     <use x="277.246094" xlink:href="#DejaVuSans-119"/>
     <use x="359.033203" xlink:href="#DejaVuSans-105"/>
     <use x="386.816406" xlink:href="#DejaVuSans-116"/>
     <use x="426.025391" xlink:href="#DejaVuSans-104"/>
     <use x="489.404297" xlink:href="#DejaVuSans-111"/>
     <use x="550.585938" xlink:href="#DejaVuSans-117"/>
     <use x="613.964844" xlink:href="#DejaVuSans-116"/>
     <use x="653.173828" xlink:href="#DejaVuSans-32"/>
     <use x="684.960938" xlink:href="#DejaVuSans-99"/>
     <use x="739.941406" xlink:href="#DejaVuSans-104"/>
     <use x="803.320312" xlink:href="#DejaVuSans-97"/>
     <use x="864.599609" xlink:href="#DejaVuSans-110"/>
     <use x="927.978516" xlink:href="#DejaVuSans-103"/>
     <use x="991.455078" xlink:href="#DejaVuSans-101"/>
     <use x="1052.978516" xlink:href="#DejaVuSans-32"/>
     <use x="1084.765625" xlink:href="#DejaVuSans-91"/>
     <use x="1123.779297" xlink:href="#DejaVuSans-108"/>
     <use x="1151.5625" xlink:href="#DejaVuSans-101"/>
     <use x="1213.085938" xlink:href="#DejaVuSans-97"/>
     <use x="1274.365234" xlink:href="#DejaVuSans-102"/>
     <use x="1309.570312" xlink:href="#DejaVuSans-93"/>
    </g>
   </g>
   <g id="legend_1">
    <g id="patch_7">
     <path d="M 92.911719 365.802375 
L 380.507031 365.802375 
Q 382.507031 365.802375 382.507031 363.802375 
L 382.507031 335.446125 
Q 382.507031 333.446125 380.507031 333.446125 
L 92.911719 333.446125 
Q 90.911719 333.446125 90.911719 335.446125 
L 90.911719 363.802375 
Q 90.911719 365.802375 92.911719 365.802375 
z
" style="fill:#4c4c4c;opacity:0.5;stroke:#4c4c4c;stroke-linejoin:miter;"/>
    </g>
    <g id="patch_8">
     <path d="M 90.911719 363.802375 
L 378.507031 363.802375 
Q 380.507031 363.802375 380.507031 361.802375 
L 380.507031 333.446125 
Q 380.507031 331.446125 378.507031 331.446125 
L 90.911719 331.446125 
Q 88.911719 331.446125 88.911719 333.446125 
L 88.911719 361.802375 
Q 88.911719 363.802375 90.911719 363.802375 
z
" style="fill:#ffffff;stroke:#cccccc;stroke-linejoin:miter;"/>
    </g>
    <g id="line2d_22">
     <path d="M 92.911719 339.544562 
L 112.911719 339.544562 
" style="fill:none;stroke:#1f77b4;stroke-linecap:square;stroke-opacity:0.8;stroke-width:1.5;"/>
    </g>
    <g id="line2d_23"/>
    <g id="text_20">
     <!-- MPTT -->
     <g transform="translate(120.911719 343.044562)scale(0.1 -0.1)">
      <defs>
       <path d="M 9.8125 72.90625 
L 24.515625 72.90625 
L 43.109375 23.296875 
L 61.8125 72.90625 
L 76.515625 72.90625 
L 76.515625 0 
L 66.890625 0 
L 66.890625 64.015625 
L 48.09375 14.015625 
L 38.1875 14.015625 
L 19.390625 64.015625 
L 19.390625 0 
L 9.8125 0 
z
" id="DejaVuSans-77"/>
       <path d="M 19.671875 64.796875 
L 19.671875 37.40625 
L 32.078125 37.40625 
Q 38.96875 37.40625 42.71875 40.96875 
Q 46.484375 44.53125 46.484375 51.125 
Q 46.484375 57.671875 42.71875 61.234375 
Q 38.96875 64.796875 32.078125 64.796875 
z
M 9.8125 72.90625 
L 32.078125 72.90625 
Q 44.34375 72.90625 50.609375 67.359375 
Q 56.890625 61.8125 56.890625 51.125 
Q 56.890625 40.328125 50.609375 34.8125 
Q 44.34375 29.296875 32.078125 29.296875 
L 19.671875 29.296875 
L 19.671875 0 
L 9.8125 0 
z
" id="DejaVuSans-80"/>
       <path d="M -0.296875 72.90625 
L 61.375 72.90625 
L 61.375 64.59375 
L 35.5 64.59375 
L 35.5 0 
L 25.59375 0 
L 25.59375 64.59375 
L -0.296875 64.59375 
z
" id="DejaVuSans-84"/>
      </defs>
      <use xlink:href="#DejaVuSans-77"/>
      <use x="86.279297" xlink:href="#DejaVuSans-80"/>
      <use x="146.582031" xlink:href="#DejaVuSans-84"/>
      <use x="205.916016" xlink:href="#DejaVuSans-84"/>
     </g>
    </g>
    <g id="line2d_24">
     <path d="M 92.911719 354.222687 
L 112.911719 354.222687 
" style="fill:none;stroke:#ff7f0e;stroke-linecap:square;stroke-opacity:0.8;stroke-width:1.5;"/>
    </g>
    <g id="line2d_25"/>
    <g id="text_21">
     <!-- tree -->
     <g transform="translate(120.911719 357.722687)scale(0.1 -0.1)">
      <use xlink:href="#DejaVuSans-116"/>
      <use x="39.208984" xlink:href="#DejaVuSans-114"/>
      <use x="78.072266" xlink:href="#DejaVuSans-101"/>
      <use x="139.595703" xlink:href="#DejaVuSans-101"/>
     </g>
    </g>
    <g id="line2d_26">
     <path d="M 167.610156 339.544562 
L 187.610156 339.544562 
" style="fill:none;stroke:#2ca02c;stroke-linecap:square;stroke-opacity:0.8;stroke-width:1.5;"/>
    </g>
    <g id="line2d_27"/>
    <g id="text_22">
     <!-- treebeard AL -->
     <g transform="translate(195.610156 343.044562)scale(0.1 -0.1)">
      <defs>
       <path d="M 45.40625 46.390625 
L 45.40625 75.984375 
L 54.390625 75.984375 
L 54.390625 0 
L 45.40625 0 
L 45.40625 8.203125 
Q 42.578125 3.328125 38.25 0.953125 
Q 33.9375 -1.421875 27.875 -1.421875 
Q 17.96875 -1.421875 11.734375 6.484375 
Q 5.515625 14.40625 5.515625 27.296875 
Q 5.515625 40.1875 11.734375 48.09375 
Q 17.96875 56 27.875 56 
Q 33.9375 56 38.25 53.625 
Q 42.578125 51.265625 45.40625 46.390625 
z
M 14.796875 27.296875 
Q 14.796875 17.390625 18.875 11.75 
Q 22.953125 6.109375 30.078125 6.109375 
Q 37.203125 6.109375 41.296875 11.75 
Q 45.40625 17.390625 45.40625 27.296875 
Q 45.40625 37.203125 41.296875 42.84375 
Q 37.203125 48.484375 30.078125 48.484375 
Q 22.953125 48.484375 18.875 42.84375 
Q 14.796875 37.203125 14.796875 27.296875 
z
" id="DejaVuSans-100"/>
       <path d="M 9.8125 72.90625 
L 19.671875 72.90625 
L 19.671875 8.296875 
L 55.171875 8.296875 
L 55.171875 0 
L 9.8125 0 
z
" id="DejaVuSans-76"/>
      </defs>
      <use xlink:href="#DejaVuSans-116"/>
      <use x="39.208984" xlink:href="#DejaVuSans-114"/>
      <use x="78.072266" xlink:href="#DejaVuSans-101"/>
      <use x="139.595703" xlink:href="#DejaVuSans-101"/>
      <use x="201.119141" xlink:href="#DejaVuSans-98"/>
      <use x="264.595703" xlink:href="#DejaVuSans-101"/>
      <use x="326.119141" xlink:href="#DejaVuSans-97"/>
      <use x="387.398438" xlink:href="#DejaVuSans-114"/>
      <use x="426.761719" xlink:href="#DejaVuSans-100"/>
      <use x="490.238281" xlink:href="#DejaVuSans-32"/>
      <use x="522.025391" xlink:href="#DejaVuSans-65"/>
      <use x="590.433594" xlink:href="#DejaVuSans-76"/>
     </g>
    </g>
    <g id="line2d_28">
     <path d="M 167.610156 354.222687 
L 187.610156 354.222687 
" style="fill:none;stroke:#d62728;stroke-linecap:square;stroke-opacity:0.8;stroke-width:1.5;"/>
    </g>
    <g id="line2d_29"/>
    <g id="text_23">
     <!-- treebeard MP -->
     <g transform="translate(195.610156 357.722687)scale(0.1 -0.1)">
      <use xlink:href="#DejaVuSans-116"/>
      <use x="39.208984" xlink:href="#DejaVuSans-114"/>
      <use x="78.072266" xlink:href="#DejaVuSans-101"/>
      <use x="139.595703" xlink:href="#DejaVuSans-101"/>
      <use x="201.119141" xlink:href="#DejaVuSans-98"/>
      <use x="264.595703" xlink:href="#DejaVuSans-101"/>
      <use x="326.119141" xlink:href="#DejaVuSans-97"/>
      <use x="387.398438" xlink:href="#DejaVuSans-114"/>
      <use x="426.761719" xlink:href="#DejaVuSans-100"/>
      <use x="490.238281" xlink:href="#DejaVuSans-32"/>
      <use x="522.025391" xlink:href="#DejaVuSans-77"/>
      <use x="608.304688" xlink:href="#DejaVuSans-80"/>
     </g>
    </g>
    <g id="line2d_30">
     <path d="M 282.472656 339.544562 
L 302.472656 339.544562 
" style="fill:none;stroke:#9467bd;stroke-linecap:square;stroke-opacity:0.8;stroke-width:1.5;"/>
    </g>
    <g id="line2d_31"/>
    <g id="text_24">
     <!-- treebeard NS -->
     <g transform="translate(310.472656 343.044562)scale(0.1 -0.1)">
      <defs>
       <path d="M 9.8125 72.90625 
L 23.09375 72.90625 
L 55.421875 11.921875 
L 55.421875 72.90625 
L 64.984375 72.90625 
L 64.984375 0 
L 51.703125 0 
L 19.390625 60.984375 
L 19.390625 0 
L 9.8125 0 
z
" id="DejaVuSans-78"/>
      </defs>
      <use xlink:href="#DejaVuSans-116"/>
      <use x="39.208984" xlink:href="#DejaVuSans-114"/>
      <use x="78.072266" xlink:href="#DejaVuSans-101"/>
      <use x="139.595703" xlink:href="#DejaVuSans-101"/>
      <use x="201.119141" xlink:href="#DejaVuSans-98"/>
      <use x="264.595703" xlink:href="#DejaVuSans-101"/>
      <use x="326.119141" xlink:href="#DejaVuSans-97"/>
      <use x="387.398438" xlink:href="#DejaVuSans-114"/>
      <use x="426.761719" xlink:href="#DejaVuSans-100"/>
      <use x="490.238281" xlink:href="#DejaVuSans-32"/>
      <use x="522.025391" xlink:href="#DejaVuSans-78"/>
      <use x="596.830078" xlink:href="#DejaVuSans-83"/>
     </g>
    </g>
   </g>
  </g>
 </g>
 <defs>
  <clipPath id="pf136d7261f">
   <rect height="266.112" width="357.12" x="61.909375" y="22.318125"/>
  </clipPath>
 </defs>
</svg>
