<?xml version="1.0" encoding="utf-8" standalone="no"?>
<!DOCTYPE svg PUBLIC "-//W3C//DTD SVG 1.1//EN"
  "http://www.w3.org/Graphics/SVG/1.1/DTD/svg11.dtd">
<!-- Created with matplotlib (https://matplotlib.org/) -->
<svg height="371.002375pt" version="1.1" viewBox="0 0 426.229375 371.002375" width="426.229375pt" xmlns="http://www.w3.org/2000/svg" xmlns:xlink="http://www.w3.org/1999/xlink">
 <metadata>
  <rdf:RDF xmlns:cc="http://creativecommons.org/ns#" xmlns:dc="http://purl.org/dc/elements/1.1/" xmlns:rdf="http://www.w3.org/1999/02/22-rdf-syntax-ns#">
   <cc:Work>
    <dc:type rdf:resource="http://purl.org/dc/dcmitype/StillImage"/>
    <dc:date>2023-07-09T08:52:50.693846</dc:date>
    <dc:format>image/svg+xml</dc:format>
    <dc:creator>
     <cc:Agent>
      <dc:title>Matplotlib v3.3.4, https://matplotlib.org/</dc:title>
     </cc:Agent>
    </dc:creator>
   </cc:Work>
  </rdf:RDF>
 </metadata>
 <defs>
  <style type="text/css">*{stroke-linecap:butt;stroke-linejoin:round;}</style>
 </defs>
 <g id="figure_1">
  <g id="patch_1">
   <path d="M 0 371.002375 
L 426.229375 371.002375 
L 426.229375 0 
L 0 0 
z
" style="fill:#ffffff;"/>
  </g>
  <g id="axes_1">
   <g id="patch_2">
    <path d="M 61.909375 288.430125 
L 419.029375 288.430125 
L 419.029375 22.318125 
L 61.909375 22.318125 
z
" style="fill:#ffffff;"/>
   </g>
   <g id="matplotlib.axis_1">
    <g id="xtick_1">
     <g id="line2d_1">
      <defs>
       <path d="M 0 0 
L 0 3.5 
" id="mdfb80eac30" style="stroke:#000000;stroke-width:0.8;"/>
      </defs>
      <g>
       <use style="stroke:#000000;stroke-width:0.8;" x="61.909375" xlink:href="#mdfb80eac30" y="288.430125"/>
      </g>
     </g>
     <g id="text_1">
      <!-- 0 -->
      <g transform="translate(58.728125 303.028562)scale(0.1 -0.1)">
       <defs>
        <path d="M 31.78125 66.40625 
Q 24.171875 66.40625 20.328125 58.90625 
Q 16.5 51.421875 16.5 36.375 
Q 16.5 21.390625 20.328125 13.890625 
Q 24.171875 6.390625 31.78125 6.390625 
Q 39.453125 6.390625 43.28125 13.890625 
Q 47.125 21.390625 47.125 36.375 
Q 47.125 51.421875 43.28125 58.90625 
Q 39.453125 66.40625 31.78125 66.40625 
z
M 31.78125 74.21875 
Q 44.046875 74.21875 50.515625 64.515625 
Q 56.984375 54.828125 56.984375 36.375 
Q 56.984375 17.96875 50.515625 8.265625 
Q 44.046875 -1.421875 31.78125 -1.421875 
Q 19.53125 -1.421875 13.0625 8.265625 
Q 6.59375 17.96875 6.59375 36.375 
Q 6.59375 54.828125 13.0625 64.515625 
Q 19.53125 74.21875 31.78125 74.21875 
z
" id="DejaVuSans-48"/>
       </defs>
       <use xlink:href="#DejaVuSans-48"/>
      </g>
     </g>
    </g>
    <g id="xtick_2">
     <g id="line2d_2">
      <g>
       <use style="stroke:#000000;stroke-width:0.8;" x="105.457939" xlink:href="#mdfb80eac30" y="288.430125"/>
      </g>
     </g>
     <g id="text_2">
      <!-- 500  -->
      <g transform="translate(94.325127 303.028562)scale(0.1 -0.1)">
       <defs>
        <path d="M 10.796875 72.90625 
L 49.515625 72.90625 
L 49.515625 64.59375 
L 19.828125 64.59375 
L 19.828125 46.734375 
Q 21.96875 47.46875 24.109375 47.828125 
Q 26.265625 48.1875 28.421875 48.1875 
Q 40.625 48.1875 47.75 41.5 
Q 54.890625 34.8125 54.890625 23.390625 
Q 54.890625 11.625 47.5625 5.09375 
Q 40.234375 -1.421875 26.90625 -1.421875 
Q 22.3125 -1.421875 17.546875 -0.640625 
Q 12.796875 0.140625 7.71875 1.703125 
L 7.71875 11.625 
Q 12.109375 9.234375 16.796875 8.0625 
Q 21.484375 6.890625 26.703125 6.890625 
Q 35.15625 6.890625 40.078125 11.328125 
Q 45.015625 15.765625 45.015625 23.390625 
Q 45.015625 31 40.078125 35.4375 
Q 35.15625 39.890625 26.703125 39.890625 
Q 22.75 39.890625 18.8125 39.015625 
Q 14.890625 38.140625 10.796875 36.28125 
z
" id="DejaVuSans-53"/>
        <path id="DejaVuSans-32"/>
       </defs>
       <use xlink:href="#DejaVuSans-53"/>
       <use x="63.623047" xlink:href="#DejaVuSans-48"/>
       <use x="127.246094" xlink:href="#DejaVuSans-48"/>
       <use x="190.869141" xlink:href="#DejaVuSans-32"/>
      </g>
     </g>
    </g>
    <g id="xtick_3">
     <g id="line2d_3">
      <g>
       <use style="stroke:#000000;stroke-width:0.8;" x="149.006503" xlink:href="#mdfb80eac30" y="288.430125"/>
      </g>
     </g>
     <g id="text_3">
      <!-- 1 k -->
      <g transform="translate(141.340878 303.028562)scale(0.1 -0.1)">
       <defs>
        <path d="M 12.40625 8.296875 
L 28.515625 8.296875 
L 28.515625 63.921875 
L 10.984375 60.40625 
L 10.984375 69.390625 
L 28.421875 72.90625 
L 38.28125 72.90625 
L 38.28125 8.296875 
L 54.390625 8.296875 
L 54.390625 0 
L 12.40625 0 
z
" id="DejaVuSans-49"/>
        <path d="M 9.078125 75.984375 
L 18.109375 75.984375 
L 18.109375 31.109375 
L 44.921875 54.6875 
L 56.390625 54.6875 
L 27.390625 29.109375 
L 57.625 0 
L 45.90625 0 
L 18.109375 26.703125 
L 18.109375 0 
L 9.078125 0 
z
" id="DejaVuSans-107"/>
       </defs>
       <use xlink:href="#DejaVuSans-49"/>
       <use x="63.623047" xlink:href="#DejaVuSans-32"/>
       <use x="95.410156" xlink:href="#DejaVuSans-107"/>
      </g>
     </g>
    </g>
    <g id="xtick_4">
     <g id="line2d_4">
      <g>
       <use style="stroke:#000000;stroke-width:0.8;" x="192.555067" xlink:href="#mdfb80eac30" y="288.430125"/>
      </g>
     </g>
     <g id="text_4">
      <!-- 1.5 k -->
      <g transform="translate(180.11913 303.028562)scale(0.1 -0.1)">
       <defs>
        <path d="M 10.6875 12.40625 
L 21 12.40625 
L 21 0 
L 10.6875 0 
z
" id="DejaVuSans-46"/>
       </defs>
       <use xlink:href="#DejaVuSans-49"/>
       <use x="63.623047" xlink:href="#DejaVuSans-46"/>
       <use x="95.410156" xlink:href="#DejaVuSans-53"/>
       <use x="159.033203" xlink:href="#DejaVuSans-32"/>
       <use x="190.820312" xlink:href="#DejaVuSans-107"/>
      </g>
     </g>
    </g>
    <g id="xtick_5">
     <g id="line2d_5">
      <g>
       <use style="stroke:#000000;stroke-width:0.8;" x="236.103631" xlink:href="#mdfb80eac30" y="288.430125"/>
      </g>
     </g>
     <g id="text_5">
      <!-- 2 k -->
      <g transform="translate(228.438006 303.028562)scale(0.1 -0.1)">
       <defs>
        <path d="M 19.1875 8.296875 
L 53.609375 8.296875 
L 53.609375 0 
L 7.328125 0 
L 7.328125 8.296875 
Q 12.9375 14.109375 22.625 23.890625 
Q 32.328125 33.6875 34.8125 36.53125 
Q 39.546875 41.84375 41.421875 45.53125 
Q 43.3125 49.21875 43.3125 52.78125 
Q 43.3125 58.59375 39.234375 62.25 
Q 35.15625 65.921875 28.609375 65.921875 
Q 23.96875 65.921875 18.8125 64.3125 
Q 13.671875 62.703125 7.8125 59.421875 
L 7.8125 69.390625 
Q 13.765625 71.78125 18.9375 73 
Q 24.125 74.21875 28.421875 74.21875 
Q 39.75 74.21875 46.484375 68.546875 
Q 53.21875 62.890625 53.21875 53.421875 
Q 53.21875 48.921875 51.53125 44.890625 
Q 49.859375 40.875 45.40625 35.40625 
Q 44.1875 33.984375 37.640625 27.21875 
Q 31.109375 20.453125 19.1875 8.296875 
z
" id="DejaVuSans-50"/>
       </defs>
       <use xlink:href="#DejaVuSans-50"/>
       <use x="63.623047" xlink:href="#DejaVuSans-32"/>
       <use x="95.410156" xlink:href="#DejaVuSans-107"/>
      </g>
     </g>
    </g>
    <g id="xtick_6">
     <g id="line2d_6">
      <g>
       <use style="stroke:#000000;stroke-width:0.8;" x="279.652196" xlink:href="#mdfb80eac30" y="288.430125"/>
      </g>
     </g>
     <g id="text_6">
      <!-- 2.5 k -->
      <g transform="translate(267.216258 303.028562)scale(0.1 -0.1)">
       <use xlink:href="#DejaVuSans-50"/>
       <use x="63.623047" xlink:href="#DejaVuSans-46"/>
       <use x="95.410156" xlink:href="#DejaVuSans-53"/>
       <use x="159.033203" xlink:href="#DejaVuSans-32"/>
       <use x="190.820312" xlink:href="#DejaVuSans-107"/>
      </g>
     </g>
    </g>
    <g id="xtick_7">
     <g id="line2d_7">
      <g>
       <use style="stroke:#000000;stroke-width:0.8;" x="323.20076" xlink:href="#mdfb80eac30" y="288.430125"/>
      </g>
     </g>
     <g id="text_7">
      <!-- 3 k -->
      <g transform="translate(315.535135 303.028562)scale(0.1 -0.1)">
       <defs>
        <path d="M 40.578125 39.3125 
Q 47.65625 37.796875 51.625 33 
Q 55.609375 28.21875 55.609375 21.1875 
Q 55.609375 10.40625 48.1875 4.484375 
Q 40.765625 -1.421875 27.09375 -1.421875 
Q 22.515625 -1.421875 17.65625 -0.515625 
Q 12.796875 0.390625 7.625 2.203125 
L 7.625 11.71875 
Q 11.71875 9.328125 16.59375 8.109375 
Q 21.484375 6.890625 26.8125 6.890625 
Q 36.078125 6.890625 40.9375 10.546875 
Q 45.796875 14.203125 45.796875 21.1875 
Q 45.796875 27.640625 41.28125 31.265625 
Q 36.765625 34.90625 28.71875 34.90625 
L 20.21875 34.90625 
L 20.21875 43.015625 
L 29.109375 43.015625 
Q 36.375 43.015625 40.234375 45.921875 
Q 44.09375 48.828125 44.09375 54.296875 
Q 44.09375 59.90625 40.109375 62.90625 
Q 36.140625 65.921875 28.71875 65.921875 
Q 24.65625 65.921875 20.015625 65.03125 
Q 15.375 64.15625 9.8125 62.3125 
L 9.8125 71.09375 
Q 15.4375 72.65625 20.34375 73.4375 
Q 25.25 74.21875 29.59375 74.21875 
Q 40.828125 74.21875 47.359375 69.109375 
Q 53.90625 64.015625 53.90625 55.328125 
Q 53.90625 49.265625 50.4375 45.09375 
Q 46.96875 40.921875 40.578125 39.3125 
z
" id="DejaVuSans-51"/>
       </defs>
       <use xlink:href="#DejaVuSans-51"/>
       <use x="63.623047" xlink:href="#DejaVuSans-32"/>
       <use x="95.410156" xlink:href="#DejaVuSans-107"/>
      </g>
     </g>
    </g>
    <g id="xtick_8">
     <g id="line2d_8">
      <g>
       <use style="stroke:#000000;stroke-width:0.8;" x="366.749324" xlink:href="#mdfb80eac30" y="288.430125"/>
      </g>
     </g>
     <g id="text_8">
      <!-- 3.5 k -->
      <g transform="translate(354.313386 303.028562)scale(0.1 -0.1)">
       <use xlink:href="#DejaVuSans-51"/>
       <use x="63.623047" xlink:href="#DejaVuSans-46"/>
       <use x="95.410156" xlink:href="#DejaVuSans-53"/>
       <use x="159.033203" xlink:href="#DejaVuSans-32"/>
       <use x="190.820312" xlink:href="#DejaVuSans-107"/>
      </g>
     </g>
    </g>
    <g id="xtick_9">
     <g id="line2d_9">
      <g>
       <use style="stroke:#000000;stroke-width:0.8;" x="410.297888" xlink:href="#mdfb80eac30" y="288.430125"/>
      </g>
     </g>
     <g id="text_9">
      <!-- 4 k -->
      <g transform="translate(402.632263 303.028562)scale(0.1 -0.1)">
       <defs>
        <path d="M 37.796875 64.3125 
L 12.890625 25.390625 
L 37.796875 25.390625 
z
M 35.203125 72.90625 
L 47.609375 72.90625 
L 47.609375 25.390625 
L 58.015625 25.390625 
L 58.015625 17.1875 
L 47.609375 17.1875 
L 47.609375 0 
L 37.796875 0 
L 37.796875 17.1875 
L 4.890625 17.1875 
L 4.890625 26.703125 
z
" id="DejaVuSans-52"/>
       </defs>
       <use xlink:href="#DejaVuSans-52"/>
       <use x="63.623047" xlink:href="#DejaVuSans-32"/>
       <use x="95.410156" xlink:href="#DejaVuSans-107"/>
      </g>
     </g>
    </g>
    <g id="text_10">
     <!-- Amount of objects in table -->
     <g transform="translate(174.410781 316.706687)scale(0.1 -0.1)">
      <defs>
       <path d="M 34.1875 63.1875 
L 20.796875 26.90625 
L 47.609375 26.90625 
z
M 28.609375 72.90625 
L 39.796875 72.90625 
L 67.578125 0 
L 57.328125 0 
L 50.6875 18.703125 
L 17.828125 18.703125 
L 11.1875 0 
L 0.78125 0 
z
" id="DejaVuSans-65"/>
       <path d="M 52 44.1875 
Q 55.375 50.25 60.0625 53.125 
Q 64.75 56 71.09375 56 
Q 79.640625 56 84.28125 50.015625 
Q 88.921875 44.046875 88.921875 33.015625 
L 88.921875 0 
L 79.890625 0 
L 79.890625 32.71875 
Q 79.890625 40.578125 77.09375 44.375 
Q 74.3125 48.1875 68.609375 48.1875 
Q 61.625 48.1875 57.5625 43.546875 
Q 53.515625 38.921875 53.515625 30.90625 
L 53.515625 0 
L 44.484375 0 
L 44.484375 32.71875 
Q 44.484375 40.625 41.703125 44.40625 
Q 38.921875 48.1875 33.109375 48.1875 
Q 26.21875 48.1875 22.15625 43.53125 
Q 18.109375 38.875 18.109375 30.90625 
L 18.109375 0 
L 9.078125 0 
L 9.078125 54.6875 
L 18.109375 54.6875 
L 18.109375 46.1875 
Q 21.1875 51.21875 25.484375 53.609375 
Q 29.78125 56 35.6875 56 
Q 41.65625 56 45.828125 52.96875 
Q 50 49.953125 52 44.1875 
z
" id="DejaVuSans-109"/>
       <path d="M 30.609375 48.390625 
Q 23.390625 48.390625 19.1875 42.75 
Q 14.984375 37.109375 14.984375 27.296875 
Q 14.984375 17.484375 19.15625 11.84375 
Q 23.34375 6.203125 30.609375 6.203125 
Q 37.796875 6.203125 41.984375 11.859375 
Q 46.1875 17.53125 46.1875 27.296875 
Q 46.1875 37.015625 41.984375 42.703125 
Q 37.796875 48.390625 30.609375 48.390625 
z
M 30.609375 56 
Q 42.328125 56 49.015625 48.375 
Q 55.71875 40.765625 55.71875 27.296875 
Q 55.71875 13.875 49.015625 6.21875 
Q 42.328125 -1.421875 30.609375 -1.421875 
Q 18.84375 -1.421875 12.171875 6.21875 
Q 5.515625 13.875 5.515625 27.296875 
Q 5.515625 40.765625 12.171875 48.375 
Q 18.84375 56 30.609375 56 
z
" id="DejaVuSans-111"/>
       <path d="M 8.5 21.578125 
L 8.5 54.6875 
L 17.484375 54.6875 
L 17.484375 21.921875 
Q 17.484375 14.15625 20.5 10.265625 
Q 23.53125 6.390625 29.59375 6.390625 
Q 36.859375 6.390625 41.078125 11.03125 
Q 45.3125 15.671875 45.3125 23.6875 
L 45.3125 54.6875 
L 54.296875 54.6875 
L 54.296875 0 
L 45.3125 0 
L 45.3125 8.40625 
Q 42.046875 3.421875 37.71875 1 
Q 33.40625 -1.421875 27.6875 -1.421875 
Q 18.265625 -1.421875 13.375 4.4375 
Q 8.5 10.296875 8.5 21.578125 
z
M 31.109375 56 
z
" id="DejaVuSans-117"/>
       <path d="M 54.890625 33.015625 
L 54.890625 0 
L 45.90625 0 
L 45.90625 32.71875 
Q 45.90625 40.484375 42.875 44.328125 
Q 39.84375 48.1875 33.796875 48.1875 
Q 26.515625 48.1875 22.3125 43.546875 
Q 18.109375 38.921875 18.109375 30.90625 
L 18.109375 0 
L 9.078125 0 
L 9.078125 54.6875 
L 18.109375 54.6875 
L 18.109375 46.1875 
Q 21.34375 51.125 25.703125 53.5625 
Q 30.078125 56 35.796875 56 
Q 45.21875 56 50.046875 50.171875 
Q 54.890625 44.34375 54.890625 33.015625 
z
" id="DejaVuSans-110"/>
       <path d="M 18.3125 70.21875 
L 18.3125 54.6875 
L 36.8125 54.6875 
L 36.8125 47.703125 
L 18.3125 47.703125 
L 18.3125 18.015625 
Q 18.3125 11.328125 20.140625 9.421875 
Q 21.96875 7.515625 27.59375 7.515625 
L 36.8125 7.515625 
L 36.8125 0 
L 27.59375 0 
Q 17.1875 0 13.234375 3.875 
Q 9.28125 7.765625 9.28125 18.015625 
L 9.28125 47.703125 
L 2.6875 47.703125 
L 2.6875 54.6875 
L 9.28125 54.6875 
L 9.28125 70.21875 
z
" id="DejaVuSans-116"/>
       <path d="M 37.109375 75.984375 
L 37.109375 68.5 
L 28.515625 68.5 
Q 23.6875 68.5 21.796875 66.546875 
Q 19.921875 64.59375 19.921875 59.515625 
L 19.921875 54.6875 
L 34.71875 54.6875 
L 34.71875 47.703125 
L 19.921875 47.703125 
L 19.921875 0 
L 10.890625 0 
L 10.890625 47.703125 
L 2.296875 47.703125 
L 2.296875 54.6875 
L 10.890625 54.6875 
L 10.890625 58.5 
Q 10.890625 67.625 15.140625 71.796875 
Q 19.390625 75.984375 28.609375 75.984375 
z
" id="DejaVuSans-102"/>
       <path d="M 48.6875 27.296875 
Q 48.6875 37.203125 44.609375 42.84375 
Q 40.53125 48.484375 33.40625 48.484375 
Q 26.265625 48.484375 22.1875 42.84375 
Q 18.109375 37.203125 18.109375 27.296875 
Q 18.109375 17.390625 22.1875 11.75 
Q 26.265625 6.109375 33.40625 6.109375 
Q 40.53125 6.109375 44.609375 11.75 
Q 48.6875 17.390625 48.6875 27.296875 
z
M 18.109375 46.390625 
Q 20.953125 51.265625 25.265625 53.625 
Q 29.59375 56 35.59375 56 
Q 45.5625 56 51.78125 48.09375 
Q 58.015625 40.1875 58.015625 27.296875 
Q 58.015625 14.40625 51.78125 6.484375 
Q 45.5625 -1.421875 35.59375 -1.421875 
Q 29.59375 -1.421875 25.265625 0.953125 
Q 20.953125 3.328125 18.109375 8.203125 
L 18.109375 0 
L 9.078125 0 
L 9.078125 75.984375 
L 18.109375 75.984375 
z
" id="DejaVuSans-98"/>
       <path d="M 9.421875 54.6875 
L 18.40625 54.6875 
L 18.40625 -0.984375 
Q 18.40625 -11.421875 14.421875 -16.109375 
Q 10.453125 -20.796875 1.609375 -20.796875 
L -1.8125 -20.796875 
L -1.8125 -13.1875 
L 0.59375 -13.1875 
Q 5.71875 -13.1875 7.5625 -10.8125 
Q 9.421875 -8.453125 9.421875 -0.984375 
z
M 9.421875 75.984375 
L 18.40625 75.984375 
L 18.40625 64.59375 
L 9.421875 64.59375 
z
" id="DejaVuSans-106"/>
       <path d="M 56.203125 29.59375 
L 56.203125 25.203125 
L 14.890625 25.203125 
Q 15.484375 15.921875 20.484375 11.0625 
Q 25.484375 6.203125 34.421875 6.203125 
Q 39.59375 6.203125 44.453125 7.46875 
Q 49.3125 8.734375 54.109375 11.28125 
L 54.109375 2.78125 
Q 49.265625 0.734375 44.1875 -0.34375 
Q 39.109375 -1.421875 33.890625 -1.421875 
Q 20.796875 -1.421875 13.15625 6.1875 
Q 5.515625 13.8125 5.515625 26.8125 
Q 5.515625 40.234375 12.765625 48.109375 
Q 20.015625 56 32.328125 56 
Q 43.359375 56 49.78125 48.890625 
Q 56.203125 41.796875 56.203125 29.59375 
z
M 47.21875 32.234375 
Q 47.125 39.59375 43.09375 43.984375 
Q 39.0625 48.390625 32.421875 48.390625 
Q 24.90625 48.390625 20.390625 44.140625 
Q 15.875 39.890625 15.1875 32.171875 
z
" id="DejaVuSans-101"/>
       <path d="M 48.78125 52.59375 
L 48.78125 44.1875 
Q 44.96875 46.296875 41.140625 47.34375 
Q 37.3125 48.390625 33.40625 48.390625 
Q 24.65625 48.390625 19.8125 42.84375 
Q 14.984375 37.3125 14.984375 27.296875 
Q 14.984375 17.28125 19.8125 11.734375 
Q 24.65625 6.203125 33.40625 6.203125 
Q 37.3125 6.203125 41.140625 7.25 
Q 44.96875 8.296875 48.78125 10.40625 
L 48.78125 2.09375 
Q 45.015625 0.34375 40.984375 -0.53125 
Q 36.96875 -1.421875 32.421875 -1.421875 
Q 20.0625 -1.421875 12.78125 6.34375 
Q 5.515625 14.109375 5.515625 27.296875 
Q 5.515625 40.671875 12.859375 48.328125 
Q 20.21875 56 33.015625 56 
Q 37.15625 56 41.109375 55.140625 
Q 45.0625 54.296875 48.78125 52.59375 
z
" id="DejaVuSans-99"/>
       <path d="M 44.28125 53.078125 
L 44.28125 44.578125 
Q 40.484375 46.53125 36.375 47.5 
Q 32.28125 48.484375 27.875 48.484375 
Q 21.1875 48.484375 17.84375 46.4375 
Q 14.5 44.390625 14.5 40.28125 
Q 14.5 37.15625 16.890625 35.375 
Q 19.28125 33.59375 26.515625 31.984375 
L 29.59375 31.296875 
Q 39.15625 29.25 43.1875 25.515625 
Q 47.21875 21.78125 47.21875 15.09375 
Q 47.21875 7.46875 41.1875 3.015625 
Q 35.15625 -1.421875 24.609375 -1.421875 
Q 20.21875 -1.421875 15.453125 -0.5625 
Q 10.6875 0.296875 5.421875 2 
L 5.421875 11.28125 
Q 10.40625 8.6875 15.234375 7.390625 
Q 20.0625 6.109375 24.8125 6.109375 
Q 31.15625 6.109375 34.5625 8.28125 
Q 37.984375 10.453125 37.984375 14.40625 
Q 37.984375 18.0625 35.515625 20.015625 
Q 33.0625 21.96875 24.703125 23.78125 
L 21.578125 24.515625 
Q 13.234375 26.265625 9.515625 29.90625 
Q 5.8125 33.546875 5.8125 39.890625 
Q 5.8125 47.609375 11.28125 51.796875 
Q 16.75 56 26.8125 56 
Q 31.78125 56 36.171875 55.265625 
Q 40.578125 54.546875 44.28125 53.078125 
z
" id="DejaVuSans-115"/>
       <path d="M 9.421875 54.6875 
L 18.40625 54.6875 
L 18.40625 0 
L 9.421875 0 
z
M 9.421875 75.984375 
L 18.40625 75.984375 
L 18.40625 64.59375 
L 9.421875 64.59375 
z
" id="DejaVuSans-105"/>
       <path d="M 34.28125 27.484375 
Q 23.390625 27.484375 19.1875 25 
Q 14.984375 22.515625 14.984375 16.5 
Q 14.984375 11.71875 18.140625 8.90625 
Q 21.296875 6.109375 26.703125 6.109375 
Q 34.1875 6.109375 38.703125 11.40625 
Q 43.21875 16.703125 43.21875 25.484375 
L 43.21875 27.484375 
z
M 52.203125 31.203125 
L 52.203125 0 
L 43.21875 0 
L 43.21875 8.296875 
Q 40.140625 3.328125 35.546875 0.953125 
Q 30.953125 -1.421875 24.3125 -1.421875 
Q 15.921875 -1.421875 10.953125 3.296875 
Q 6 8.015625 6 15.921875 
Q 6 25.140625 12.171875 29.828125 
Q 18.359375 34.515625 30.609375 34.515625 
L 43.21875 34.515625 
L 43.21875 35.40625 
Q 43.21875 41.609375 39.140625 45 
Q 35.0625 48.390625 27.6875 48.390625 
Q 23 48.390625 18.546875 47.265625 
Q 14.109375 46.140625 10.015625 43.890625 
L 10.015625 52.203125 
Q 14.9375 54.109375 19.578125 55.046875 
Q 24.21875 56 28.609375 56 
Q 40.484375 56 46.34375 49.84375 
Q 52.203125 43.703125 52.203125 31.203125 
z
" id="DejaVuSans-97"/>
       <path d="M 9.421875 75.984375 
L 18.40625 75.984375 
L 18.40625 0 
L 9.421875 0 
z
" id="DejaVuSans-108"/>
      </defs>
      <use xlink:href="#DejaVuSans-65"/>
      <use x="68.408203" xlink:href="#DejaVuSans-109"/>
      <use x="165.820312" xlink:href="#DejaVuSans-111"/>
      <use x="227.001953" xlink:href="#DejaVuSans-117"/>
      <use x="290.380859" xlink:href="#DejaVuSans-110"/>
      <use x="353.759766" xlink:href="#DejaVuSans-116"/>
      <use x="392.96875" xlink:href="#DejaVuSans-32"/>
      <use x="424.755859" xlink:href="#DejaVuSans-111"/>
      <use x="485.9375" xlink:href="#DejaVuSans-102"/>
      <use x="521.142578" xlink:href="#DejaVuSans-32"/>
      <use x="552.929688" xlink:href="#DejaVuSans-111"/>
      <use x="614.111328" xlink:href="#DejaVuSans-98"/>
      <use x="677.587891" xlink:href="#DejaVuSans-106"/>
      <use x="705.371094" xlink:href="#DejaVuSans-101"/>
      <use x="766.894531" xlink:href="#DejaVuSans-99"/>
      <use x="821.875" xlink:href="#DejaVuSans-116"/>
      <use x="861.083984" xlink:href="#DejaVuSans-115"/>
      <use x="913.183594" xlink:href="#DejaVuSans-32"/>
      <use x="944.970703" xlink:href="#DejaVuSans-105"/>
      <use x="972.753906" xlink:href="#DejaVuSans-110"/>
      <use x="1036.132812" xlink:href="#DejaVuSans-32"/>
      <use x="1067.919922" xlink:href="#DejaVuSans-116"/>
      <use x="1107.128906" xlink:href="#DejaVuSans-97"/>
      <use x="1168.408203" xlink:href="#DejaVuSans-98"/>
      <use x="1231.884766" xlink:href="#DejaVuSans-108"/>
      <use x="1259.667969" xlink:href="#DejaVuSans-101"/>
     </g>
    </g>
   </g>
   <g id="matplotlib.axis_2">
    <g id="ytick_1">
     <g id="line2d_10">
      <defs>
       <path d="M 0 0 
L -3.5 0 
" id="mdeb38c66de" style="stroke:#000000;stroke-width:0.8;"/>
      </defs>
      <g>
       <use style="stroke:#000000;stroke-width:0.8;" x="61.909375" xlink:href="#mdeb38c66de" y="288.430125"/>
      </g>
     </g>
     <g id="text_11">
      <!-- 0 -->
      <g transform="translate(48.546875 292.229344)scale(0.1 -0.1)">
       <use xlink:href="#DejaVuSans-48"/>
      </g>
     </g>
    </g>
    <g id="ytick_2">
     <g id="line2d_11">
      <g>
       <use style="stroke:#000000;stroke-width:0.8;" x="61.909375" xlink:href="#mdeb38c66de" y="239.605584"/>
      </g>
     </g>
     <g id="text_12">
      <!-- 500 µs -->
      <g transform="translate(21.071875 243.404803)scale(0.1 -0.1)">
       <defs>
        <path d="M 8.5 -20.796875 
L 8.5 54.6875 
L 17.484375 54.6875 
L 17.484375 20.703125 
Q 17.484375 13.625 20.84375 10 
Q 24.21875 6.390625 30.8125 6.390625 
Q 38.03125 6.390625 41.671875 10.484375 
Q 45.3125 14.59375 45.3125 22.796875 
L 45.3125 54.6875 
L 54.296875 54.6875 
L 54.296875 12.59375 
Q 54.296875 9.671875 55.140625 8.28125 
Q 56 6.890625 57.8125 6.890625 
Q 58.25 6.890625 59.03125 7.15625 
Q 59.8125 7.421875 61.1875 8.015625 
L 61.1875 0.78125 
Q 59.1875 -0.34375 57.390625 -0.875 
Q 55.609375 -1.421875 53.90625 -1.421875 
Q 50.53125 -1.421875 48.53125 0.484375 
Q 46.53125 2.390625 45.796875 6.296875 
Q 43.359375 2.4375 39.8125 0.5 
Q 36.28125 -1.421875 31.5 -1.421875 
Q 26.515625 -1.421875 23.015625 0.484375 
Q 19.53125 2.390625 17.484375 6.203125 
L 17.484375 -20.796875 
z
" id="DejaVuSans-181"/>
       </defs>
       <use xlink:href="#DejaVuSans-53"/>
       <use x="63.623047" xlink:href="#DejaVuSans-48"/>
       <use x="127.246094" xlink:href="#DejaVuSans-48"/>
       <use x="190.869141" xlink:href="#DejaVuSans-32"/>
       <use x="222.65625" xlink:href="#DejaVuSans-181"/>
       <use x="286.279297" xlink:href="#DejaVuSans-115"/>
      </g>
     </g>
    </g>
    <g id="ytick_3">
     <g id="line2d_12">
      <g>
       <use style="stroke:#000000;stroke-width:0.8;" x="61.909375" xlink:href="#mdeb38c66de" y="190.781043"/>
      </g>
     </g>
     <g id="text_13">
      <!-- 1 ms -->
      <g transform="translate(30.41875 194.580261)scale(0.1 -0.1)">
       <use xlink:href="#DejaVuSans-49"/>
       <use x="63.623047" xlink:href="#DejaVuSans-32"/>
       <use x="95.410156" xlink:href="#DejaVuSans-109"/>
       <use x="192.822266" xlink:href="#DejaVuSans-115"/>
      </g>
     </g>
    </g>
    <g id="ytick_4">
     <g id="line2d_13">
      <g>
       <use style="stroke:#000000;stroke-width:0.8;" x="61.909375" xlink:href="#mdeb38c66de" y="141.956501"/>
      </g>
     </g>
     <g id="text_14">
      <!-- 1.5 ms -->
      <g transform="translate(20.878125 145.75572)scale(0.1 -0.1)">
       <use xlink:href="#DejaVuSans-49"/>
       <use x="63.623047" xlink:href="#DejaVuSans-46"/>
       <use x="95.410156" xlink:href="#DejaVuSans-53"/>
       <use x="159.033203" xlink:href="#DejaVuSans-32"/>
       <use x="190.820312" xlink:href="#DejaVuSans-109"/>
       <use x="288.232422" xlink:href="#DejaVuSans-115"/>
      </g>
     </g>
    </g>
    <g id="ytick_5">
     <g id="line2d_14">
      <g>
       <use style="stroke:#000000;stroke-width:0.8;" x="61.909375" xlink:href="#mdeb38c66de" y="93.13196"/>
      </g>
     </g>
     <g id="text_15">
      <!-- 2 ms -->
      <g transform="translate(30.41875 96.931179)scale(0.1 -0.1)">
       <use xlink:href="#DejaVuSans-50"/>
       <use x="63.623047" xlink:href="#DejaVuSans-32"/>
       <use x="95.410156" xlink:href="#DejaVuSans-109"/>
       <use x="192.822266" xlink:href="#DejaVuSans-115"/>
      </g>
     </g>
    </g>
    <g id="ytick_6">
     <g id="line2d_15">
      <g>
       <use style="stroke:#000000;stroke-width:0.8;" x="61.909375" xlink:href="#mdeb38c66de" y="44.307419"/>
      </g>
     </g>
     <g id="text_16">
      <!-- 2.5 ms -->
      <g transform="translate(20.878125 48.106638)scale(0.1 -0.1)">
       <use xlink:href="#DejaVuSans-50"/>
       <use x="63.623047" xlink:href="#DejaVuSans-46"/>
       <use x="95.410156" xlink:href="#DejaVuSans-53"/>
       <use x="159.033203" xlink:href="#DejaVuSans-32"/>
       <use x="190.820312" xlink:href="#DejaVuSans-109"/>
       <use x="288.232422" xlink:href="#DejaVuSans-115"/>
      </g>
     </g>
    </g>
    <g id="text_17">
     <!-- Read latency (s) -->
     <g transform="translate(14.798438 195.98975)rotate(-90)scale(0.1 -0.1)">
      <defs>
       <path d="M 44.390625 34.1875 
Q 47.5625 33.109375 50.5625 29.59375 
Q 53.5625 26.078125 56.59375 19.921875 
L 66.609375 0 
L 56 0 
L 46.6875 18.703125 
Q 43.0625 26.03125 39.671875 28.421875 
Q 36.28125 30.8125 30.421875 30.8125 
L 19.671875 30.8125 
L 19.671875 0 
L 9.8125 0 
L 9.8125 72.90625 
L 32.078125 72.90625 
Q 44.578125 72.90625 50.734375 67.671875 
Q 56.890625 62.453125 56.890625 51.90625 
Q 56.890625 45.015625 53.6875 40.46875 
Q 50.484375 35.9375 44.390625 34.1875 
z
M 19.671875 64.796875 
L 19.671875 38.921875 
L 32.078125 38.921875 
Q 39.203125 38.921875 42.84375 42.21875 
Q 46.484375 45.515625 46.484375 51.90625 
Q 46.484375 58.296875 42.84375 61.546875 
Q 39.203125 64.796875 32.078125 64.796875 
z
" id="DejaVuSans-82"/>
       <path d="M 45.40625 46.390625 
L 45.40625 75.984375 
L 54.390625 75.984375 
L 54.390625 0 
L 45.40625 0 
L 45.40625 8.203125 
Q 42.578125 3.328125 38.25 0.953125 
Q 33.9375 -1.421875 27.875 -1.421875 
Q 17.96875 -1.421875 11.734375 6.484375 
Q 5.515625 14.40625 5.515625 27.296875 
Q 5.515625 40.1875 11.734375 48.09375 
Q 17.96875 56 27.875 56 
Q 33.9375 56 38.25 53.625 
Q 42.578125 51.265625 45.40625 46.390625 
z
M 14.796875 27.296875 
Q 14.796875 17.390625 18.875 11.75 
Q 22.953125 6.109375 30.078125 6.109375 
Q 37.203125 6.109375 41.296875 11.75 
Q 45.40625 17.390625 45.40625 27.296875 
Q 45.40625 37.203125 41.296875 42.84375 
Q 37.203125 48.484375 30.078125 48.484375 
Q 22.953125 48.484375 18.875 42.84375 
Q 14.796875 37.203125 14.796875 27.296875 
z
" id="DejaVuSans-100"/>
       <path d="M 32.171875 -5.078125 
Q 28.375 -14.84375 24.75 -17.8125 
Q 21.140625 -20.796875 15.09375 -20.796875 
L 7.90625 -20.796875 
L 7.90625 -13.28125 
L 13.1875 -13.28125 
Q 16.890625 -13.28125 18.9375 -11.515625 
Q 21 -9.765625 23.484375 -3.21875 
L 25.09375 0.875 
L 2.984375 54.6875 
L 12.5 54.6875 
L 29.59375 11.921875 
L 46.6875 54.6875 
L 56.203125 54.6875 
z
" id="DejaVuSans-121"/>
       <path d="M 31 75.875 
Q 24.46875 64.65625 21.28125 53.65625 
Q 18.109375 42.671875 18.109375 31.390625 
Q 18.109375 20.125 21.3125 9.0625 
Q 24.515625 -2 31 -13.1875 
L 23.1875 -13.1875 
Q 15.875 -1.703125 12.234375 9.375 
Q 8.59375 20.453125 8.59375 31.390625 
Q 8.59375 42.28125 12.203125 53.3125 
Q 15.828125 64.359375 23.1875 75.875 
z
" id="DejaVuSans-40"/>
       <path d="M 8.015625 75.875 
L 15.828125 75.875 
Q 23.140625 64.359375 26.78125 53.3125 
Q 30.421875 42.28125 30.421875 31.390625 
Q 30.421875 20.453125 26.78125 9.375 
Q 23.140625 -1.703125 15.828125 -13.1875 
L 8.015625 -13.1875 
Q 14.5 -2 17.703125 9.0625 
Q 20.90625 20.125 20.90625 31.390625 
Q 20.90625 42.671875 17.703125 53.65625 
Q 14.5 64.65625 8.015625 75.875 
z
" id="DejaVuSans-41"/>
      </defs>
      <use xlink:href="#DejaVuSans-82"/>
      <use x="64.982422" xlink:href="#DejaVuSans-101"/>
      <use x="126.505859" xlink:href="#DejaVuSans-97"/>
      <use x="187.785156" xlink:href="#DejaVuSans-100"/>
      <use x="251.261719" xlink:href="#DejaVuSans-32"/>
      <use x="283.048828" xlink:href="#DejaVuSans-108"/>
      <use x="310.832031" xlink:href="#DejaVuSans-97"/>
      <use x="372.111328" xlink:href="#DejaVuSans-116"/>
      <use x="411.320312" xlink:href="#DejaVuSans-101"/>
      <use x="472.84375" xlink:href="#DejaVuSans-110"/>
      <use x="536.222656" xlink:href="#DejaVuSans-99"/>
      <use x="591.203125" xlink:href="#DejaVuSans-121"/>
      <use x="650.382812" xlink:href="#DejaVuSans-32"/>
      <use x="682.169922" xlink:href="#DejaVuSans-40"/>
      <use x="721.183594" xlink:href="#DejaVuSans-115"/>
      <use x="773.283203" xlink:href="#DejaVuSans-41"/>
     </g>
    </g>
   </g>
   <g id="line2d_16">
    <path clip-path="url(#p111e8bd5ec)" d="M 147.264561 182.199449 
L 147.700046 182.19133 
L 149.006503 181.821933 
L 149.441989 181.830768 
L 149.877475 181.094122 
L 150.748446 181.800562 
L 151.183931 181.799129 
L 151.619417 181.526797 
L 152.054903 181.631742 
L 152.490388 181.290402 
L 152.925874 181.336367 
L 154.232331 182.073252 
L 154.667817 181.83435 
L 155.103302 181.883658 
L 155.538788 181.815725 
L 155.974273 181.874823 
L 156.409759 181.538736 
L 156.845245 181.579926 
L 157.28073 181.383766 
L 158.151702 181.322637 
L 158.587187 181.085884 
L 159.893644 180.804956 
L 161.635587 181.29458 
L 162.071072 180.409053 
L 162.506558 180.058997 
L 162.942044 180.027119 
L 163.377529 180.155346 
L 163.813015 179.827139 
L 164.248501 179.845047 
L 164.683986 179.507289 
L 165.119472 179.018977 
L 165.554958 178.773269 
L 166.861415 178.680741 
L 167.2969 178.168909 
L 167.732386 178.236962 
L 168.167871 177.849178 
L 168.603357 177.813003 
L 169.038843 177.936812 
L 169.474328 177.937886 
L 171.216271 178.486132 
L 171.651757 178.56708 
L 172.087242 178.8535 
L 172.522728 178.773986 
L 172.958213 178.144076 
L 173.393699 178.083425 
L 173.829185 178.180371 
L 174.700156 177.441218 
L 175.135642 177.606455 
L 175.571127 178.261318 
L 176.006613 178.447688 
L 176.442099 179.130608 
L 176.877584 179.225524 
L 177.31307 179.467889 
L 177.748556 179.565313 
L 178.184041 179.833824 
L 179.055012 181.103196 
L 179.490498 182.448739 
L 179.925984 183.071963 
L 180.361469 182.906963 
L 180.796955 183.837979 
L 181.232441 183.866394 
L 181.667926 183.739242 
L 182.103412 184.252984 
L 182.538898 184.432191 
L 182.974383 184.453442 
L 183.409869 185.058519 
L 183.845355 185.298257 
L 184.28084 185.075592 
L 184.716326 185.278916 
L 185.151811 185.169434 
L 185.587297 185.906915 
L 186.022783 185.674221 
L 186.458268 184.662258 
L 186.893754 184.308382 
L 187.764725 183.143239 
L 188.200211 183.285793 
L 188.635697 182.537685 
L 189.071182 182.631169 
L 189.506668 182.870668 
L 189.942153 182.949228 
L 190.377639 182.866132 
L 190.813125 183.570661 
L 191.684096 183.329132 
L 192.555067 184.493797 
L 193.426039 184.637664 
L 193.861524 185.438184 
L 194.29701 185.308286 
L 194.732496 185.714814 
L 195.603467 185.80794 
L 196.474438 186.235003 
L 196.909924 186.768087 
L 197.780895 187.570876 
L 198.216381 186.698243 
L 199.087352 186.515335 
L 199.958323 186.955293 
L 200.393809 186.884135 
L 200.829295 185.85498 
L 201.26478 186.00219 
L 202.571237 187.02442 
L 203.006723 188.237677 
L 203.442208 188.060023 
L 203.877694 189.282951 
L 204.31318 188.691843 
L 205.184151 188.883705 
L 205.619637 188.313014 
L 206.055122 188.501652 
L 206.490608 188.430495 
L 206.926093 189.474813 
L 207.361579 188.70032 
L 207.797065 188.629043 
L 208.23255 189.254894 
L 208.668036 188.530426 
L 209.103522 188.420705 
L 209.539007 188.687903 
L 209.974493 187.940392 
L 210.409979 187.71725 
L 210.845464 186.737164 
L 211.28095 185.372519 
L 211.716436 185.361773 
L 212.151921 186.083376 
L 212.587407 185.326553 
L 213.022892 186.345918 
L 213.458378 186.196559 
L 214.329349 184.917159 
L 214.764835 185.524027 
L 215.200321 185.656671 
L 215.635806 184.533077 
L 216.071292 184.18314 
L 216.942263 182.68394 
L 217.377749 182.352151 
L 217.813235 182.516672 
L 218.24872 182.293888 
L 218.684206 181.354873 
L 220.426148 180.080726 
L 220.861634 180.130751 
L 221.29712 180.42529 
L 222.168091 179.718492 
L 222.603577 179.772099 
L 223.474548 178.868544 
L 224.345519 178.545589 
L 224.781005 178.229082 
L 225.21649 177.667942 
L 226.522947 173.492938 
L 226.958433 173.221561 
L 227.393919 173.394679 
L 227.829404 173.115183 
L 228.26489 172.437756 
L 228.700376 172.130084 
L 229.135861 172.004842 
L 230.877804 170.849251 
L 231.313289 169.879194 
L 231.748775 169.607459 
L 232.184261 169.072585 
L 232.619746 167.506287 
L 233.055232 167.22894 
L 233.490718 166.123613 
L 233.926203 165.847938 
L 235.23266 163.74999 
L 235.668146 162.26046 
L 236.103631 162.323977 
L 236.539117 162.246372 
L 236.974603 161.919239 
L 237.410088 162.165186 
L 237.845574 161.974756 
L 239.152031 160.531551 
L 239.587517 160.456693 
L 240.023002 159.049782 
L 240.458488 158.850399 
L 240.893974 157.707344 
L 241.764945 157.360153 
L 242.20043 157.535778 
L 242.635916 157.176051 
L 243.071402 157.032184 
L 243.506887 156.368487 
L 243.942373 155.008258 
L 244.377859 154.83526 
L 245.24883 153.802762 
L 245.684316 152.813006 
L 246.555287 151.778836 
L 246.990772 152.362422 
L 247.426258 152.554762 
L 247.861744 152.114207 
L 248.297229 151.860977 
L 248.732715 152.10382 
L 249.168201 151.185341 
L 249.603686 151.181162 
L 250.910143 151.787552 
L 251.781115 151.017357 
L 252.2166 151.291599 
L 252.652086 151.091499 
L 253.087571 151.31094 
L 254.829514 150.27892 
L 255.265 149.710497 
L 255.700485 149.339666 
L 256.135971 148.774108 
L 256.571457 148.593947 
L 257.442428 147.936935 
L 257.877914 148.251173 
L 258.748885 147.540197 
L 259.619856 147.600609 
L 260.055342 147.359915 
L 260.490827 146.753526 
L 261.797284 146.299002 
L 262.23277 145.912054 
L 262.668256 143.973971 
L 263.539227 143.322212 
L 263.974712 142.371736 
L 264.410198 142.226794 
L 264.845684 141.845458 
L 265.281169 142.094508 
L 265.716655 141.410037 
L 266.152141 140.497646 
L 266.587626 140.848419 
L 267.023112 140.637573 
L 267.458598 140.843524 
L 267.894083 139.271853 
L 268.765055 138.651614 
L 269.20054 138.896844 
L 269.636026 137.868644 
L 270.071511 137.296281 
L 270.506997 137.210558 
L 270.942483 137.57709 
L 271.377968 138.661285 
L 271.813454 138.919529 
L 272.684425 140.852 
L 273.119911 139.832516 
L 273.990882 139.805295 
L 274.861854 139.48628 
L 275.297339 139.425271 
L 275.732825 139.187682 
L 276.16831 139.426585 
L 276.603796 138.789869 
L 277.039282 138.605051 
L 277.474767 138.625228 
L 277.910253 137.487427 
L 278.345739 137.824947 
L 278.781224 137.872703 
L 279.21671 138.949854 
L 279.652196 137.456982 
L 280.087681 136.730484 
L 280.523167 136.626255 
L 281.394138 135.717447 
L 281.829624 134.411661 
L 282.700595 134.391006 
L 283.136081 134.801713 
L 284.442538 134.665607 
L 284.878023 134.848157 
L 285.313509 133.770409 
L 285.748995 135.105923 
L 287.490937 135.562835 
L 287.926423 134.43936 
L 288.361908 134.634207 
L 288.797394 134.628476 
L 289.23288 136.306047 
L 289.668365 136.279542 
L 290.103851 135.046227 
L 290.539337 136.34282 
L 290.974822 136.32503 
L 291.410308 136.789344 
L 292.281279 135.608203 
L 292.716765 134.454284 
L 293.15225 134.48449 
L 293.587736 135.215525 
L 294.023222 134.099572 
L 294.458707 134.360442 
L 295.329679 133.572816 
L 296.20065 134.537858 
L 296.636136 133.592874 
L 297.071621 133.593948 
L 297.507107 134.178609 
L 297.942592 133.496644 
L 298.378078 132.570882 
L 298.813564 132.070393 
L 299.249049 133.217268 
L 299.684535 132.241242 
L 300.120021 132.59882 
L 300.555506 133.268487 
L 300.990992 132.27694 
L 301.861963 133.348121 
L 302.732935 130.855583 
L 303.16842 130.77774 
L 303.603906 132.026218 
L 304.039391 132.066094 
L 304.474877 131.617302 
L 304.910363 131.870412 
L 305.345848 130.948709 
L 305.781334 131.182836 
L 306.21682 129.766493 
L 306.652305 129.821175 
L 307.523277 129.675517 
L 308.394248 130.021514 
L 308.829734 130.045153 
L 309.265219 129.493445 
L 310.13619 130.661691 
L 311.442647 134.190906 
L 311.878133 134.100407 
L 312.313619 133.851834 
L 313.18459 134.266003 
L 313.620076 133.656987 
L 314.055561 134.165715 
L 314.491047 134.150074 
L 314.926532 134.019102 
L 315.362018 133.349554 
L 315.797504 133.386446 
L 316.232989 133.848252 
L 316.668475 133.77996 
L 317.103961 134.092647 
L 317.539446 135.266266 
L 317.974932 135.533464 
L 318.410418 136.61754 
L 318.845903 135.889132 
L 319.281389 136.375772 
L 319.716875 137.444326 
L 320.15236 137.622339 
L 320.587846 138.608991 
L 321.458817 138.319347 
L 322.329788 138.282216 
L 322.765274 138.206164 
L 323.20076 137.940398 
L 323.636245 138.160676 
L 324.071731 138.215357 
L 324.507217 138.017883 
L 324.942702 138.937915 
L 325.378188 138.874637 
L 325.813674 139.621073 
L 326.249159 139.90439 
L 327.12013 138.967643 
L 327.555616 138.762648 
L 327.991102 138.407219 
L 328.426587 138.846342 
L 328.862073 139.938177 
L 329.297559 139.897704 
L 329.733044 139.683038 
L 330.16853 139.820457 
L 330.604016 140.639603 
L 331.039501 140.438667 
L 332.345958 140.593995 
L 332.781444 139.828098 
L 333.216929 139.84147 
L 333.652415 139.422645 
L 334.523386 140.106042 
L 334.958872 139.758851 
L 335.829843 139.578451 
L 336.265329 139.854961 
L 337.1363 139.851499 
L 338.007271 139.561975 
L 338.442757 138.763126 
L 339.313728 138.707728 
L 339.749214 138.186823 
L 340.1847 138.369253 
L 340.620185 138.36388 
L 341.055671 138.070774 
L 341.491157 137.370542 
L 341.926642 137.418777 
L 342.362128 136.358938 
L 342.797614 136.292437 
L 343.233099 136.03479 
L 343.668585 136.214354 
L 344.10407 135.491558 
L 344.539556 135.036318 
L 344.975042 135.095894 
L 345.410527 135.011007 
L 346.716984 135.078105 
L 347.15247 134.887556 
L 347.587956 136.820625 
L 348.023441 136.195729 
L 348.458927 136.251843 
L 349.329898 135.613934 
L 350.200869 135.628619 
L 350.636355 136.028462 
L 351.071841 137.077675 
L 352.378298 137.021322 
L 352.813783 138.332958 
L 353.684755 138.350867 
L 354.12024 138.355403 
L 354.555726 139.306596 
L 354.991211 139.200696 
L 355.426697 139.238304 
L 356.297668 138.981732 
L 356.733154 138.967643 
L 357.16864 139.093243 
L 357.604125 139.078081 
L 358.475097 141.338402 
L 358.910582 140.858567 
L 359.781554 140.782873 
L 360.217039 140.869551 
L 360.652525 141.165403 
L 361.08801 140.768307 
L 361.523496 141.372428 
L 361.958982 141.514504 
L 362.394467 141.182715 
L 362.829953 142.184649 
L 363.265439 141.697293 
L 363.700924 141.604645 
L 364.13641 141.697173 
L 365.007381 144.269345 
L 365.442867 144.400437 
L 365.878353 144.848991 
L 366.313838 145.478065 
L 366.749324 146.65849 
L 367.184809 146.682368 
L 367.620295 146.406216 
L 368.055781 146.722126 
L 368.491266 146.477373 
L 369.362238 146.592705 
L 369.797723 145.332169 
L 370.233209 146.229994 
L 370.668695 146.210413 
L 371.539666 145.881131 
L 372.410637 145.864178 
L 372.846123 146.769285 
L 373.281608 145.993598 
L 373.717094 145.815108 
L 374.15258 145.406311 
L 374.588065 145.413355 
L 375.023551 146.333506 
L 375.459037 146.502565 
L 375.894522 146.107856 
L 376.330008 145.497049 
L 376.765494 146.088515 
L 377.200979 147.866136 
L 377.636465 149.053007 
L 378.07195 148.848848 
L 378.507436 148.796077 
L 378.942922 149.630385 
L 379.378407 149.325936 
L 379.813893 150.59089 
L 380.249379 151.118481 
L 381.555836 153.546667 
L 382.426807 153.225026 
L 382.862293 153.821745 
L 383.733264 155.870504 
L 384.168749 155.883399 
L 384.604235 156.927836 
L 385.039721 156.54435 
L 385.475206 156.548529 
L 385.910692 156.978936 
L 386.346178 157.247447 
L 386.781663 157.308576 
L 387.652635 159.940205 
L 388.959091 159.619877 
L 389.394577 159.374408 
L 389.830063 159.319846 
L 390.265548 160.522 
L 390.701034 160.362731 
L 391.13652 161.482147 
L 392.007491 161.546499 
L 393.313948 161.219605 
L 393.749434 161.267361 
L 394.184919 161.525725 
L 394.620405 161.446091 
L 395.05589 161.61109 
L 396.362347 161.394394 
L 396.797833 161.477968 
L 397.233319 161.321685 
L 397.668804 161.650608 
L 398.539776 161.991232 
L 398.975261 161.717826 
L 399.410747 161.77203 
L 399.846233 161.172206 
L 400.281718 161.743017 
L 400.717204 161.302462 
L 401.152689 161.3421 
L 401.588175 161.227365 
L 402.023661 161.331952 
L 402.023661 161.331952 
" style="fill:none;stroke:#1f77b4;stroke-linecap:square;stroke-opacity:0.8;stroke-width:1.5;"/>
   </g>
   <g id="line2d_17">
    <path clip-path="url(#p111e8bd5ec)" d="M 147.264561 143.342509 
L 147.700046 143.265859 
L 148.135532 142.347977 
L 148.571018 142.685736 
L 149.441989 142.97323 
L 149.877475 142.093315 
L 150.31296 141.711262 
L 150.748446 142.054512 
L 151.183931 141.893931 
L 151.619417 142.036007 
L 152.490388 140.211465 
L 152.925874 140.103415 
L 153.36136 139.732466 
L 154.232331 139.542991 
L 154.667817 139.702737 
L 155.538788 139.601016 
L 155.974273 138.621527 
L 156.845245 139.272689 
L 157.28073 140.227702 
L 158.151702 140.838748 
L 158.587187 140.398671 
L 159.022673 140.573341 
L 159.893644 138.848132 
L 160.32913 138.775901 
L 160.764616 139.812936 
L 161.200101 139.707632 
L 161.635587 139.777715 
L 162.071072 140.108907 
L 162.506558 140.059837 
L 162.942044 139.118196 
L 163.813015 139.09396 
L 164.248501 140.095894 
L 164.683986 140.082999 
L 165.119472 140.513406 
L 165.554958 139.540842 
L 165.990443 140.189616 
L 166.425929 139.893167 
L 166.861415 139.78846 
L 167.2969 139.49225 
L 167.732386 140.39676 
L 168.167871 140.526897 
L 168.603357 140.413714 
L 169.474328 140.410849 
L 170.3453 140.335393 
L 170.780785 139.276032 
L 171.216271 138.581173 
L 171.651757 138.846819 
L 172.087242 138.788556 
L 172.522728 139.652473 
L 172.958213 138.802525 
L 173.393699 138.389191 
L 174.26467 139.151268 
L 174.700156 139.102317 
L 175.135642 138.62487 
L 175.571127 137.543183 
L 176.006613 137.595357 
L 176.442099 137.879747 
L 177.31307 137.863868 
L 177.748556 138.339763 
L 178.184041 137.531482 
L 178.619527 137.576493 
L 179.055012 138.592396 
L 179.490498 137.634756 
L 179.925984 137.084003 
L 180.361469 137.906491 
L 180.796955 137.309533 
L 181.232441 137.252942 
L 181.667926 136.676877 
L 182.103412 135.885311 
L 182.538898 136.561187 
L 182.974383 136.62542 
L 183.409869 136.873157 
L 183.845355 137.847392 
L 184.716326 138.47575 
L 185.151811 138.924662 
L 185.587297 137.98911 
L 186.022783 137.852646 
L 186.893754 139.377156 
L 187.32924 139.367247 
L 187.764725 139.955131 
L 188.635697 139.930059 
L 189.071182 139.098616 
L 189.506668 140.030228 
L 189.942153 139.850305 
L 190.813125 139.927432 
L 191.24861 140.710283 
L 192.119582 141.065592 
L 192.555067 141.046847 
L 192.990553 140.528449 
L 193.861524 138.693878 
L 195.167981 137.638218 
L 195.603467 136.776808 
L 196.038952 136.73526 
L 196.474438 135.809856 
L 196.909924 136.078487 
L 197.345409 138.355284 
L 197.780895 137.422478 
L 198.216381 137.63595 
L 198.651866 136.653118 
L 199.087352 136.575872 
L 199.958323 134.76518 
L 200.393809 135.692375 
L 200.829295 135.586713 
L 201.700266 137.179755 
L 202.135751 136.451585 
L 203.006723 136.275602 
L 203.442208 136.821341 
L 203.877694 137.791875 
L 205.184151 137.689795 
L 205.619637 138.513 
L 206.055122 138.439097 
L 206.490608 138.144797 
L 206.926093 138.973613 
L 207.797065 138.900545 
L 208.23255 139.588718 
L 208.668036 140.64402 
L 209.974493 140.797916 
L 210.409979 141.674728 
L 210.845464 140.902026 
L 211.28095 141.885573 
L 211.716436 142.515483 
L 212.151921 142.544734 
L 212.587407 142.743999 
L 213.022892 143.343464 
L 213.458378 143.263113 
L 213.893864 143.528759 
L 214.764835 143.131185 
L 215.200321 142.195753 
L 215.635806 142.218556 
L 216.506778 141.953626 
L 216.942263 141.803432 
L 217.377749 142.733253 
L 218.24872 142.752953 
L 219.119691 144.490458 
L 220.426148 144.347189 
L 220.861634 143.515029 
L 221.29712 143.582008 
L 221.732605 142.677856 
L 222.168091 142.718688 
L 222.603577 142.931085 
L 223.039062 142.074093 
L 223.474548 141.931778 
L 223.910033 141.937031 
L 224.345519 141.074785 
L 225.21649 140.825854 
L 225.651976 141.721052 
L 226.087462 141.594616 
L 226.522947 142.028246 
L 226.958433 141.059861 
L 227.393919 141.884141 
L 227.829404 141.959596 
L 228.26489 143.111844 
L 229.135861 143.188971 
L 229.571347 143.846341 
L 230.006832 143.7248 
L 231.748775 143.813269 
L 232.184261 143.006899 
L 232.619746 143.029703 
L 233.055232 143.998326 
L 233.926203 143.918812 
L 234.361689 143.753812 
L 234.797175 145.048495 
L 235.23266 145.366554 
L 235.668146 145.124905 
L 236.103631 144.568182 
L 236.539117 144.530693 
L 237.410088 146.37004 
L 237.845574 146.147494 
L 238.28106 146.719141 
L 238.716545 146.881991 
L 240.023002 146.750063 
L 240.458488 147.868046 
L 240.893974 147.988751 
L 241.329459 147.937412 
L 241.764945 148.395876 
L 242.635916 148.434798 
L 243.071402 147.626994 
L 243.506887 148.135125 
L 243.942373 148.128678 
L 244.813344 150.071059 
L 245.24883 149.4076 
L 246.119801 149.353277 
L 246.555287 150.135172 
L 246.990772 149.611163 
L 247.426258 149.950115 
L 247.861744 150.954437 
L 248.297229 151.377919 
L 248.732715 151.498027 
L 249.603686 151.426034 
L 250.039172 151.700754 
L 250.474658 152.617442 
L 250.910143 152.325411 
L 251.781115 152.455786 
L 252.2166 152.73373 
L 253.087571 152.620905 
L 253.523057 153.665342 
L 254.394028 153.570306 
L 254.829514 152.693614 
L 255.265 152.701375 
L 256.135971 154.492368 
L 256.571457 153.831416 
L 257.442428 153.541414 
L 257.877914 154.482697 
L 258.313399 154.021845 
L 258.748885 154.526036 
L 259.18437 154.539885 
L 259.619856 154.665247 
L 260.055342 155.218507 
L 260.490827 156.219964 
L 260.926313 155.169795 
L 261.797284 154.947488 
L 262.668256 154.374289 
L 263.103741 155.099235 
L 263.539227 154.802547 
L 263.974712 154.768878 
L 264.410198 155.499674 
L 264.845684 155.969719 
L 265.281169 156.930463 
L 265.716655 156.938343 
L 266.152141 156.011267 
L 266.587626 156.471044 
L 267.023112 157.14298 
L 267.458598 157.35884 
L 267.894083 157.764532 
L 268.329569 157.80035 
L 268.765055 157.703165 
L 270.071511 155.157259 
L 270.506997 155.116069 
L 270.942483 155.390073 
L 272.24894 155.387685 
L 272.684425 154.609013 
L 273.119911 155.234864 
L 273.555397 154.652591 
L 274.426368 154.370469 
L 274.861854 154.493561 
L 276.603796 154.442342 
L 277.039282 154.193411 
L 278.781224 157.908518 
L 279.21671 158.320061 
L 279.652196 158.412351 
L 280.087681 159.066736 
L 280.523167 160.032853 
L 280.958652 159.942951 
L 281.394138 160.91253 
L 281.829624 160.814151 
L 282.265109 160.845073 
L 282.700595 161.429018 
L 283.571566 161.346399 
L 284.007052 161.419586 
L 284.878023 163.245799 
L 285.313509 162.014872 
L 286.18448 162.299621 
L 286.619966 162.415073 
L 287.055451 163.060503 
L 287.926423 163.319822 
L 288.361908 162.941351 
L 288.797394 162.823153 
L 289.23288 162.858732 
L 290.103851 162.602637 
L 290.539337 162.707462 
L 290.974822 162.455307 
L 291.410308 162.795812 
L 291.845794 162.783754 
L 292.716765 162.411133 
L 293.15225 162.679764 
L 294.023222 162.712835 
L 294.458707 161.73072 
L 295.329679 161.830531 
L 295.765164 162.767636 
L 296.20065 163.030178 
L 296.636136 162.781605 
L 297.071621 161.851306 
L 298.813564 162.185244 
L 299.249049 161.39129 
L 300.120021 162.353705 
L 300.555506 162.343079 
L 300.990992 162.625679 
L 301.426478 162.708298 
L 301.861963 162.911144 
L 302.297449 162.74531 
L 302.732935 162.936694 
L 303.16842 162.954961 
L 303.603906 162.140472 
L 304.474877 161.479998 
L 305.345848 161.464477 
L 305.781334 161.77191 
L 306.21682 161.619208 
L 306.652305 162.58819 
L 307.523277 162.466769 
L 307.958762 163.466793 
L 308.394248 163.804074 
L 308.829734 163.731723 
L 309.265219 164.685423 
L 309.700705 163.882395 
L 310.13619 164.0462 
L 310.571676 164.01098 
L 311.007162 164.123805 
L 311.442647 164.057423 
L 311.878133 164.771504 
L 312.313619 164.859973 
L 312.749104 165.793615 
L 313.18459 165.752664 
L 313.620076 166.362874 
L 314.055561 166.097586 
L 314.491047 166.156207 
L 314.926532 166.327415 
L 315.362018 166.346876 
L 315.797504 167.346183 
L 316.668475 167.248282 
L 317.103961 167.939082 
L 317.539446 168.055608 
L 317.974932 167.094147 
L 318.410418 166.753165 
L 318.845903 165.834328 
L 319.281389 165.891636 
L 319.716875 165.659419 
L 320.15236 165.639481 
L 320.587846 164.87227 
L 321.023331 165.640078 
L 321.894303 165.717085 
L 322.329788 165.179226 
L 323.20076 165.171227 
L 323.636245 165.053746 
L 324.071731 165.074042 
L 324.507217 164.860212 
L 324.942702 163.827833 
L 325.378188 163.739722 
L 325.813674 164.72518 
L 326.684645 162.693374 
L 327.555616 162.794976 
L 327.991102 162.259625 
L 328.426587 162.235508 
L 328.862073 161.916971 
L 329.733044 160.008258 
L 330.604016 159.862839 
L 331.039501 159.921102 
L 331.474987 159.035455 
L 332.345958 159.66644 
L 332.781444 158.533533 
L 333.216929 157.863985 
L 334.523386 157.926427 
L 334.958872 156.892257 
L 335.394358 156.737645 
L 335.829843 156.059262 
L 336.265329 156.461015 
L 336.700815 156.523934 
L 338.007271 153.776734 
L 339.313728 153.891947 
L 339.749214 154.903433 
L 340.1847 154.698915 
L 340.620185 154.772221 
L 341.055671 153.692205 
L 341.491157 154.667634 
L 341.926642 155.135172 
L 342.797614 154.708347 
L 343.233099 155.711714 
L 343.668585 155.565101 
L 344.10407 154.561615 
L 344.539556 154.534513 
L 344.975042 154.371782 
L 345.410527 153.323405 
L 345.846013 154.074975 
L 346.716984 154.254898 
L 347.15247 153.585827 
L 347.587956 153.983879 
L 348.023441 154.082974 
L 348.458927 153.495329 
L 348.894412 152.595594 
L 349.765384 152.809185 
L 350.200869 151.845934 
L 350.636355 151.831965 
L 351.071841 152.621621 
L 351.507326 151.782895 
L 351.942812 152.268103 
L 352.378298 151.589242 
L 352.813783 150.505047 
L 353.249269 150.252773 
L 353.684755 150.319394 
L 354.12024 150.628618 
L 354.555726 151.587451 
L 354.991211 152.158859 
L 355.426697 153.142288 
L 355.862183 153.118171 
L 356.297668 152.877716 
L 357.16864 152.776472 
L 357.604125 153.35958 
L 358.039611 153.242696 
L 358.475097 153.656149 
L 358.910582 154.397571 
L 359.346068 154.587284 
L 359.781554 154.635757 
L 360.217039 154.561853 
L 360.652525 154.07975 
L 361.08801 153.95021 
L 361.958982 154.026143 
L 362.394467 153.686474 
L 362.829953 153.881799 
L 363.265439 153.886933 
L 363.700924 153.566367 
L 364.13641 153.679072 
L 364.571896 153.950569 
L 365.007381 154.043216 
L 365.442867 153.891589 
L 365.878353 154.16034 
L 366.313838 153.966448 
L 366.749324 154.178726 
L 367.184809 154.17204 
L 367.620295 154.632056 
L 368.055781 154.488786 
L 368.491266 155.591009 
L 368.926752 155.462543 
L 369.797723 155.389118 
L 370.233209 156.35989 
L 371.539666 155.917545 
L 371.975151 156.206592 
L 372.410637 156.217814 
L 372.846123 155.999567 
L 373.281608 156.400722 
L 374.15258 156.557722 
L 375.023551 154.975665 
L 375.459037 154.879793 
L 375.894522 155.188062 
L 376.765494 153.284961 
L 377.200979 152.964275 
L 377.636465 153.213326 
L 378.507436 152.817304 
L 378.942922 152.51775 
L 379.378407 153.411635 
L 379.813893 153.023971 
L 380.249379 152.024544 
L 381.991321 152.0606 
L 382.426807 151.767494 
L 383.297778 151.605241 
L 383.733264 150.921366 
L 384.168749 151.882468 
L 384.604235 151.837577 
L 385.039721 152.158979 
L 386.346178 152.201243 
L 386.781663 152.067525 
L 387.652635 152.413999 
L 388.08812 152.395135 
L 388.523606 153.32042 
L 389.830063 153.971462 
L 390.265548 153.627137 
L 390.701034 154.245346 
L 391.13652 154.410107 
L 391.572005 154.338472 
L 392.007491 154.576658 
L 392.878462 154.645308 
L 393.749434 154.652113 
L 394.184919 154.688647 
L 394.620405 155.632557 
L 395.491376 155.592083 
L 395.926862 154.640055 
L 396.797833 155.143649 
L 398.10429 155.133261 
L 398.539776 154.764461 
L 398.975261 153.909975 
L 399.846233 154.362589 
L 400.281718 155.333839 
L 400.717204 155.212299 
L 401.152689 155.408937 
L 401.588175 156.41099 
L 402.023661 156.676278 
L 402.023661 156.676278 
" style="fill:none;stroke:#ff7f0e;stroke-linecap:square;stroke-opacity:0.8;stroke-width:1.5;"/>
   </g>
   <g id="line2d_18">
    <path clip-path="url(#p111e8bd5ec)" d="M 147.264561 153.128558 
L 147.700046 153.688743 
L 148.135532 153.649941 
L 148.571018 153.209744 
L 149.441989 153.098352 
L 149.877475 151.929031 
L 150.748446 151.998158 
L 152.054903 150.507555 
L 152.490388 150.712192 
L 152.925874 150.650824 
L 153.36136 150.82048 
L 154.667817 149.836932 
L 155.103302 149.062917 
L 155.538788 148.801449 
L 155.974273 147.987796 
L 156.845245 148.083906 
L 157.716216 147.442057 
L 158.151702 146.680219 
L 158.587187 146.998756 
L 159.022673 146.026192 
L 159.458159 146.110005 
L 159.893644 146.383054 
L 160.32913 146.332193 
L 161.200101 146.896079 
L 161.635587 146.754123 
L 162.071072 146.080754 
L 163.377529 145.705865 
L 164.248501 146.00112 
L 165.119472 145.548626 
L 165.554958 145.404281 
L 165.990443 145.732728 
L 166.425929 145.820361 
L 167.2969 146.305688 
L 168.167871 145.579668 
L 168.603357 145.308529 
L 169.038843 145.451919 
L 169.474328 145.447859 
L 169.909814 145.036317 
L 170.3453 144.126792 
L 170.780785 144.239497 
L 171.216271 144.655219 
L 171.651757 144.134791 
L 172.087242 144.245348 
L 172.522728 144.538215 
L 172.958213 144.463476 
L 173.829185 144.68841 
L 174.26467 144.925402 
L 175.135642 144.248929 
L 176.006613 144.057664 
L 176.442099 143.661762 
L 176.877584 143.671313 
L 177.31307 143.978388 
L 178.184041 143.502732 
L 179.055012 141.268677 
L 179.490498 141.290645 
L 179.925984 140.674346 
L 181.232441 141.082904 
L 182.103412 141.796388 
L 182.538898 141.663027 
L 182.974383 141.653476 
L 183.409869 140.543731 
L 183.845355 139.77879 
L 184.716326 138.926692 
L 185.151811 138.811121 
L 185.587297 138.382386 
L 186.022783 138.475392 
L 186.458268 139.253228 
L 187.764725 136.609899 
L 188.200211 136.539816 
L 188.635697 136.355833 
L 189.506668 136.547815 
L 189.942153 135.627545 
L 190.377639 135.679003 
L 190.813125 135.48917 
L 192.119582 135.985481 
L 192.555067 135.837077 
L 192.990553 135.866806 
L 193.426039 134.601852 
L 193.861524 134.690679 
L 194.29701 134.98104 
L 194.732496 135.12622 
L 195.167981 134.923493 
L 196.038952 134.978532 
L 196.474438 133.840731 
L 196.909924 134.155447 
L 197.345409 134.139807 
L 198.651866 131.240741 
L 199.087352 131.076935 
L 199.958323 131.164091 
L 200.393809 130.783948 
L 200.829295 130.953604 
L 201.700266 129.776284 
L 202.135751 130.428281 
L 202.571237 130.83075 
L 203.006723 129.907495 
L 203.442208 129.995845 
L 204.31318 130.760786 
L 205.184151 129.065665 
L 205.619637 128.819599 
L 206.490608 127.493636 
L 206.926093 127.391676 
L 207.361579 126.265813 
L 207.797065 126.251367 
L 208.668036 125.061391 
L 209.103522 125.121565 
L 209.539007 124.893288 
L 210.409979 121.977626 
L 210.845464 120.836124 
L 212.151921 119.107811 
L 213.022892 119.980803 
L 213.458378 119.724588 
L 213.893864 119.632776 
L 214.329349 120.026529 
L 214.764835 120.227585 
L 215.635806 119.07474 
L 216.071292 119.12763 
L 216.506778 119.396858 
L 216.942263 119.204041 
L 217.377749 119.673727 
L 218.24872 117.297835 
L 218.684206 116.175435 
L 219.119691 116.166003 
L 219.555177 116.65527 
L 219.990663 117.836172 
L 220.426148 117.734808 
L 220.861634 117.944579 
L 221.29712 118.923829 
L 221.732605 119.152344 
L 222.168091 118.085581 
L 222.603577 118.171185 
L 223.039062 118.128442 
L 223.474548 118.720266 
L 223.910033 119.029729 
L 224.345519 119.062204 
L 224.781005 118.42334 
L 225.21649 118.265146 
L 226.087462 117.496264 
L 226.522947 117.586405 
L 227.393919 115.747655 
L 227.829404 116.953152 
L 229.135861 116.741709 
L 229.571347 117.739823 
L 230.006832 117.420689 
L 230.442318 118.172975 
L 230.877804 118.619261 
L 231.313289 117.801071 
L 232.184261 118.991643 
L 232.619746 118.951408 
L 233.055232 118.527688 
L 233.490718 119.22386 
L 233.926203 118.198406 
L 234.797175 119.08453 
L 235.23266 118.64899 
L 235.668146 118.017289 
L 236.103631 118.449606 
L 236.539117 118.367703 
L 236.974603 117.579719 
L 237.410088 116.517611 
L 237.845574 115.999691 
L 238.28106 115.853555 
L 239.152031 116.351657 
L 239.587517 115.645337 
L 240.023002 116.621243 
L 240.458488 116.563935 
L 240.893974 117.486474 
L 241.329459 117.242318 
L 241.764945 117.281956 
L 242.635916 116.029539 
L 243.071402 117.404571 
L 243.942373 116.88092 
L 244.813344 114.77736 
L 245.24883 114.808163 
L 245.684316 113.824138 
L 246.119801 113.758233 
L 246.555287 113.116384 
L 246.990772 112.720004 
L 247.861744 111.003989 
L 248.297229 110.2406 
L 248.732715 110.273791 
L 249.168201 109.268275 
L 249.603686 109.308987 
L 250.039172 108.914876 
L 250.474658 109.292869 
L 250.910143 108.187304 
L 251.345629 107.714752 
L 252.2166 105.70181 
L 252.652086 106.260204 
L 253.523057 106.836866 
L 254.394028 106.873996 
L 254.829514 107.015714 
L 255.265 107.016311 
L 255.700485 106.624468 
L 256.135971 106.571219 
L 256.571457 105.967814 
L 257.006942 105.145326 
L 257.442428 105.065334 
L 257.877914 105.341964 
L 258.313399 105.469713 
L 258.748885 105.402257 
L 259.619856 105.642711 
L 260.055342 106.040166 
L 260.490827 106.185704 
L 260.926313 106.109771 
L 261.361799 106.517254 
L 261.797284 105.468638 
L 262.23277 105.49383 
L 262.668256 105.757088 
L 263.103741 105.049932 
L 263.539227 105.954681 
L 263.974712 107.253423 
L 264.410198 106.969151 
L 264.845684 107.259154 
L 265.281169 107.345354 
L 265.716655 107.584376 
L 266.587626 107.168774 
L 267.023112 106.763559 
L 267.458598 106.634497 
L 267.894083 106.116576 
L 268.329569 107.156357 
L 268.765055 107.894914 
L 269.20054 107.235633 
L 269.636026 107.668905 
L 270.071511 107.84274 
L 270.506997 108.334036 
L 270.942483 107.025146 
L 271.377968 106.771678 
L 271.813454 107.86029 
L 272.24894 107.711289 
L 273.119911 109.387905 
L 273.555397 109.506461 
L 273.990882 109.406888 
L 274.426368 108.419281 
L 274.861854 109.323911 
L 275.297339 109.697607 
L 275.732825 108.999763 
L 276.16831 109.073189 
L 276.603796 108.304188 
L 277.474767 106.26892 
L 277.910253 106.283605 
L 278.345739 106.810958 
L 279.652196 103.795007 
L 280.087681 103.131906 
L 280.523167 102.908525 
L 281.394138 104.115454 
L 281.829624 104.137542 
L 282.265109 103.068271 
L 282.700595 103.133459 
L 283.136081 103.737461 
L 283.571566 104.658089 
L 284.007052 105.037396 
L 284.442538 105.008623 
L 284.878023 104.657731 
L 285.313509 104.005972 
L 285.748995 102.83295 
L 286.619966 104.8718 
L 287.055451 104.942838 
L 287.490937 103.58846 
L 287.926423 104.421216 
L 288.361908 104.421932 
L 288.797394 104.294064 
L 289.23288 104.364386 
L 289.668365 105.047067 
L 290.539337 105.110344 
L 291.410308 106.423771 
L 292.281279 108.523988 
L 292.716765 107.861126 
L 293.15225 108.199362 
L 293.587736 108.911175 
L 294.458707 109.380742 
L 295.329679 112.464745 
L 295.765164 112.529814 
L 296.20065 112.117674 
L 296.636136 112.669263 
L 297.071621 112.225365 
L 297.942592 111.046851 
L 298.378078 111.347001 
L 299.249049 110.846512 
L 299.684535 109.736409 
L 300.555506 110.763415 
L 300.990992 111.839611 
L 301.426478 111.46699 
L 301.861963 112.038159 
L 302.297449 112.093557 
L 302.732935 113.208674 
L 303.603906 114.82834 
L 304.039391 114.465151 
L 304.474877 112.805608 
L 304.910363 111.836984 
L 305.345848 111.888681 
L 305.781334 111.682969 
L 306.21682 111.643212 
L 306.652305 110.111776 
L 307.087791 111.059865 
L 307.523277 110.698466 
L 307.958762 110.839945 
L 308.394248 109.833952 
L 308.829734 110.002294 
L 309.265219 110.914923 
L 309.700705 110.809142 
L 310.13619 109.902483 
L 310.571676 109.886843 
L 311.007162 110.61931 
L 311.442647 110.572747 
L 311.878133 110.69178 
L 312.313619 111.104159 
L 312.749104 111.112158 
L 313.18459 110.895462 
L 313.620076 110.314026 
L 314.055561 111.475467 
L 314.491047 111.895367 
L 314.926532 113.251655 
L 315.797504 111.054014 
L 316.232989 111.834597 
L 316.668475 111.770125 
L 317.103961 112.183697 
L 317.539446 111.130067 
L 318.410418 111.04518 
L 318.845903 112.149313 
L 319.281389 112.851693 
L 319.716875 112.190503 
L 320.15236 112.149313 
L 320.587846 111.679507 
L 321.023331 111.661359 
L 321.458817 111.789467 
L 321.894303 112.332459 
L 322.765274 114.152584 
L 323.20076 114.278542 
L 323.636245 114.700233 
L 324.071731 113.935888 
L 324.507217 115.085032 
L 325.378188 113.69818 
L 326.249159 114.158912 
L 326.684645 114.089664 
L 327.12013 114.400918 
L 327.555616 115.374676 
L 327.991102 115.645934 
L 328.426587 115.490724 
L 329.297559 118.024333 
L 329.733044 118.710476 
L 330.16853 118.62332 
L 330.604016 119.692591 
L 331.039501 120.112372 
L 331.474987 121.142841 
L 331.910472 121.823373 
L 332.345958 122.910552 
L 332.781444 123.331766 
L 333.216929 123.948662 
L 333.652415 122.83438 
L 334.087901 123.879654 
L 334.523386 124.296808 
L 334.958872 124.872991 
L 335.394358 124.237231 
L 335.829843 125.22651 
L 336.265329 125.773562 
L 337.1363 127.84811 
L 338.007271 127.782325 
L 338.442757 126.485852 
L 338.878243 126.581007 
L 339.313728 125.897849 
L 339.749214 126.131737 
L 340.1847 127.19468 
L 340.620185 127.510829 
L 341.055671 127.528499 
L 341.926642 129.291196 
L 342.362128 129.197593 
L 342.797614 128.871415 
L 343.233099 128.779603 
L 343.668585 128.994508 
L 344.10407 128.999641 
L 344.539556 129.33155 
L 344.975042 129.017908 
L 345.410527 129.055636 
L 345.846013 128.768141 
L 346.281499 127.604551 
L 346.716984 128.534731 
L 347.15247 128.14444 
L 347.587956 127.960696 
L 348.023441 128.893264 
L 348.458927 128.792378 
L 348.894412 127.609804 
L 349.329898 127.994723 
L 349.765384 128.088684 
L 350.636355 128.016691 
L 351.071841 128.212373 
L 351.507326 128.143126 
L 352.813783 129.181117 
L 353.684755 129.246066 
L 354.12024 130.307337 
L 354.991211 130.210391 
L 355.426697 129.975906 
L 355.862183 131.002316 
L 356.733154 130.522958 
L 357.16864 131.678669 
L 357.604125 131.662312 
L 358.039611 131.415052 
L 358.475097 131.625778 
L 358.910582 131.469375 
L 359.346068 132.868406 
L 359.781554 133.142051 
L 360.217039 133.143365 
L 360.652525 134.263735 
L 361.523496 134.28236 
L 361.958982 134.503712 
L 362.394467 135.466605 
L 362.829953 135.405596 
L 363.265439 135.135413 
L 364.13641 137.021919 
L 364.571896 136.416126 
L 365.007381 137.454594 
L 365.442867 137.645262 
L 365.878353 137.647531 
L 366.313838 138.374625 
L 366.749324 138.205209 
L 367.620295 140.507914 
L 368.055781 140.491557 
L 368.491266 139.581435 
L 369.362238 139.649727 
L 369.797723 140.321544 
L 370.668695 142.537212 
L 371.975151 142.450773 
L 372.410637 143.813628 
L 372.846123 143.852549 
L 373.281608 143.643733 
L 373.717094 142.913415 
L 374.15258 142.933115 
L 375.459037 143.884785 
L 375.894522 143.899231 
L 376.330008 143.740679 
L 377.200979 143.842162 
L 378.07195 144.361874 
L 378.942922 143.909141 
L 379.378407 143.992476 
L 379.813893 143.822343 
L 380.249379 143.935885 
L 381.12035 145.645811 
L 381.555836 145.789916 
L 381.991321 145.800184 
L 382.426807 146.496953 
L 382.862293 146.227845 
L 383.297778 146.163731 
L 383.733264 146.644282 
L 384.168749 146.856441 
L 384.604235 147.679407 
L 385.475206 147.56897 
L 385.910692 147.652783 
L 386.346178 148.1713 
L 386.781663 147.783875 
L 387.217149 147.719881 
L 387.652635 147.285654 
L 388.08812 147.933353 
L 388.523606 147.719642 
L 388.959091 147.990422 
L 389.394577 149.264569 
L 389.830063 149.208694 
L 390.265548 149.316624 
L 391.13652 149.732823 
L 391.572005 150.732488 
L 392.007491 150.072611 
L 392.442977 150.262921 
L 392.878462 149.057544 
L 393.313948 149.932326 
L 393.749434 149.432314 
L 394.184919 149.601373 
L 395.05589 151.27763 
L 395.491376 152.231091 
L 397.233319 151.979056 
L 397.668804 150.725802 
L 398.539776 152.036961 
L 400.281718 151.962818 
L 400.717204 152.892043 
L 402.023661 153.003316 
L 402.023661 153.003316 
" style="fill:none;stroke:#2ca02c;stroke-linecap:square;stroke-opacity:0.8;stroke-width:1.5;"/>
   </g>
   <g id="line2d_19">
    <path clip-path="url(#p111e8bd5ec)" d="M 147.264561 106.449321 
L 147.700046 106.051627 
L 148.135532 105.483562 
L 148.571018 103.811722 
L 149.006503 103.039975 
L 149.441989 101.99709 
L 149.877475 101.586621 
L 150.31296 100.238094 
L 151.183931 99.563173 
L 151.619417 97.945417 
L 152.054903 97.75451 
L 152.490388 97.427616 
L 152.925874 95.738584 
L 153.36136 95.341726 
L 153.796845 94.185896 
L 154.232331 93.808977 
L 154.667817 92.923092 
L 155.103302 91.306052 
L 155.538788 90.950385 
L 155.974273 89.861773 
L 156.409759 89.541684 
L 156.845245 87.935032 
L 157.716216 87.329955 
L 158.151702 86.165171 
L 158.587187 85.806638 
L 159.458159 84.737725 
L 159.893644 83.593954 
L 160.32913 83.050364 
L 160.764616 82.210325 
L 161.200101 81.919726 
L 161.635587 81.803081 
L 162.071072 80.614418 
L 162.506558 80.350443 
L 162.942044 79.582875 
L 163.377529 79.255862 
L 163.813015 79.202732 
L 164.248501 78.356724 
L 164.683986 78.145042 
L 165.119472 77.332225 
L 165.554958 77.211997 
L 165.990443 77.463436 
L 166.861415 76.89549 
L 167.2969 76.305099 
L 169.474328 76.399657 
L 169.909814 75.718409 
L 170.3453 76.108342 
L 170.780785 76.229285 
L 171.216271 76.499588 
L 172.522728 74.923977 
L 172.958213 74.852462 
L 173.393699 74.287859 
L 173.829185 74.18948 
L 174.26467 72.994848 
L 174.700156 72.920348 
L 175.135642 71.792217 
L 176.006613 71.812156 
L 176.442099 70.957073 
L 176.877584 71.041125 
L 177.31307 70.560813 
L 177.748556 70.715663 
L 178.184041 70.549112 
L 179.055012 69.918725 
L 179.925984 69.837419 
L 180.361469 70.160254 
L 181.232441 70.201563 
L 181.667926 70.281198 
L 182.103412 69.964094 
L 182.538898 70.817504 
L 182.974383 70.396649 
L 183.409869 70.194161 
L 183.845355 70.630776 
L 184.28084 70.296002 
L 184.716326 70.401783 
L 185.151811 70.656923 
L 185.587297 70.442257 
L 186.022783 70.684502 
L 187.764725 75.09232 
L 188.200211 75.299822 
L 188.635697 75.834935 
L 189.506668 77.91008 
L 189.942153 77.40374 
L 190.377639 76.098432 
L 190.813125 75.758047 
L 191.24861 75.798282 
L 191.684096 75.545769 
L 192.119582 75.871111 
L 192.555067 75.976175 
L 192.990553 75.852724 
L 193.426039 75.397246 
L 194.29701 78.39075 
L 194.732496 79.690924 
L 195.167981 78.719913 
L 195.603467 78.612222 
L 196.038952 78.88336 
L 196.909924 81.253163 
L 197.345409 82.320046 
L 197.780895 83.70069 
L 198.216381 83.738418 
L 198.651866 85.068679 
L 199.087352 85.90824 
L 199.958323 88.267776 
L 200.829295 90.624088 
L 201.26478 90.627311 
L 201.700266 91.8069 
L 202.135751 92.275631 
L 203.006723 95.477116 
L 203.442208 95.466371 
L 203.877694 95.578599 
L 204.31318 96.028466 
L 204.748665 96.850836 
L 205.619637 96.713893 
L 206.055122 97.679652 
L 206.926093 97.101558 
L 207.361579 98.1097 
L 207.797065 98.243658 
L 208.23255 98.624755 
L 208.668036 99.460019 
L 209.103522 100.682827 
L 209.539007 101.514867 
L 209.974493 102.730273 
L 210.409979 102.139166 
L 211.28095 104.597677 
L 211.716436 106.542446 
L 212.151921 107.894914 
L 212.587407 108.278161 
L 213.022892 109.444377 
L 213.458378 109.611406 
L 213.893864 109.349222 
L 215.635806 109.154614 
L 216.071292 110.530244 
L 216.506778 110.128013 
L 217.813235 113.346333 
L 218.24872 113.174528 
L 218.684206 114.466584 
L 219.119691 114.335372 
L 219.990663 116.278351 
L 220.426148 116.281455 
L 221.732605 120.106402 
L 222.168091 119.565081 
L 222.603577 119.636477 
L 223.039062 120.593759 
L 223.474548 122.91688 
L 224.345519 125.572148 
L 225.21649 125.311755 
L 225.651976 125.92507 
L 226.087462 127.241242 
L 226.522947 126.887605 
L 226.958433 127.058932 
L 227.393919 128.870102 
L 228.26489 128.756321 
L 228.700376 130.278922 
L 229.571347 130.452637 
L 230.006832 131.70983 
L 230.442318 131.360013 
L 230.877804 132.841304 
L 231.313289 132.958785 
L 231.748775 132.904581 
L 232.184261 134.050979 
L 232.619746 134.059575 
L 233.055232 134.298478 
L 233.490718 135.567968 
L 234.361689 136.600944 
L 234.797175 136.425439 
L 235.23266 137.423791 
L 236.103631 137.455549 
L 236.539117 138.458319 
L 237.410088 138.354448 
L 237.845574 139.73354 
L 238.28106 139.763985 
L 238.716545 140.495617 
L 239.152031 140.484513 
L 239.587517 140.632678 
L 240.023002 141.858591 
L 240.458488 141.593064 
L 240.893974 142.270014 
L 241.329459 142.267268 
L 241.764945 143.525058 
L 242.20043 143.554309 
L 242.635916 143.390504 
L 243.071402 144.023757 
L 243.506887 143.912961 
L 243.942373 144.07211 
L 244.377859 144.102913 
L 244.813344 144.90821 
L 245.24883 144.903792 
L 245.684316 145.397357 
L 246.555287 145.484513 
L 246.990772 146.847009 
L 247.426258 146.885931 
L 247.861744 147.688242 
L 248.297229 148.079608 
L 248.732715 148.156018 
L 249.168201 148.88956 
L 249.603686 149.32713 
L 250.039172 150.02772 
L 250.474658 150.316409 
L 250.910143 150.235939 
L 251.345629 150.310439 
L 251.781115 150.585637 
L 252.2166 151.429735 
L 252.652086 150.841493 
L 253.087571 150.838627 
L 253.523057 150.690343 
L 253.958543 150.731414 
L 254.394028 150.594591 
L 254.829514 151.09723 
L 255.265 151.147971 
L 256.135971 150.96172 
L 256.571457 151.062128 
L 257.442428 152.325172 
L 257.877914 152.291145 
L 258.313399 153.042357 
L 258.748885 152.893714 
L 259.18437 153.868547 
L 259.619856 153.800016 
L 260.055342 155.163109 
L 260.926313 155.350793 
L 261.361799 156.213636 
L 261.797284 156.23835 
L 262.23277 156.898108 
L 262.668256 156.638073 
L 263.539227 156.855604 
L 263.974712 156.730482 
L 264.410198 156.393798 
L 265.281169 157.277176 
L 265.716655 157.261297 
L 266.152141 157.061316 
L 266.587626 157.38045 
L 268.329569 160.564026 
L 268.765055 160.749321 
L 269.20054 161.607866 
L 269.636026 161.948371 
L 270.071511 162.070867 
L 270.506997 162.811453 
L 270.942483 163.124736 
L 271.377968 163.923585 
L 271.813454 164.355544 
L 272.684425 165.800301 
L 273.119911 166.592345 
L 273.555397 166.770954 
L 274.861854 169.281878 
L 275.297339 170.999565 
L 275.732825 171.843544 
L 276.16831 172.219627 
L 276.603796 173.020148 
L 277.474767 173.727304 
L 278.345739 175.273186 
L 278.781224 175.487375 
L 279.21671 176.064155 
L 279.652196 176.285388 
L 280.087681 177.774559 
L 280.523167 178.428705 
L 280.958652 178.614478 
L 281.394138 179.029722 
L 282.265109 180.284528 
L 282.700595 180.537757 
L 283.136081 181.037053 
L 283.571566 181.326935 
L 284.007052 182.172586 
L 284.442538 182.569682 
L 285.313509 183.735899 
L 287.055451 185.055773 
L 287.490937 185.6273 
L 287.926423 185.999802 
L 288.361908 186.520469 
L 289.668365 187.378178 
L 290.103851 187.75438 
L 290.539337 188.37068 
L 290.974822 189.224807 
L 291.410308 189.699388 
L 292.281279 191.120029 
L 292.716765 191.275954 
L 293.15225 191.582074 
L 293.587736 192.322541 
L 294.023222 192.758678 
L 294.458707 193.638474 
L 294.894193 193.989366 
L 295.765164 195.343267 
L 297.071621 196.413731 
L 297.942592 197.609318 
L 298.378078 197.923438 
L 298.813564 198.539498 
L 299.684535 199.148037 
L 301.426478 201.28837 
L 301.861963 201.843063 
L 302.732935 202.463302 
L 303.16842 203.075184 
L 304.039391 203.850274 
L 304.474877 204.480542 
L 305.781334 205.504086 
L 306.652305 206.184379 
L 307.087791 206.976064 
L 307.523277 207.245173 
L 308.394248 208.456878 
L 309.700705 209.447828 
L 311.007162 211.047914 
L 311.442647 211.758294 
L 313.620076 213.718464 
L 314.926532 215.008968 
L 315.362018 215.689739 
L 316.668475 216.807482 
L 317.539446 217.738975 
L 317.974932 217.886305 
L 320.15236 219.985567 
L 320.587846 220.385528 
L 321.023331 220.346726 
L 321.894303 220.556378 
L 322.329788 220.345174 
L 322.765274 220.314848 
L 323.636245 220.517098 
L 324.071731 220.246915 
L 324.507217 220.694633 
L 324.942702 220.726869 
L 325.813674 221.116085 
L 326.249159 220.813308 
L 328.862073 221.156201 
L 329.297559 220.898434 
L 329.733044 220.926372 
L 330.16853 221.200376 
L 330.604016 221.231059 
L 331.474987 220.425883 
L 331.910472 220.315087 
L 332.345958 220.476505 
L 332.781444 220.308998 
L 333.216929 219.908201 
L 335.829843 220.143522 
L 336.265329 220.440329 
L 336.700815 220.217902 
L 337.1363 220.212649 
L 337.571786 220.788714 
L 338.007271 220.825725 
L 338.442757 221.021527 
L 338.878243 221.017707 
L 339.313728 221.16217 
L 339.749214 221.514972 
L 340.620185 221.598666 
L 341.055671 221.716505 
L 341.491157 222.085664 
L 343.233099 222.396202 
L 344.975042 223.029096 
L 347.15247 223.003069 
L 347.587956 223.374138 
L 348.023441 223.341902 
L 348.458927 223.679542 
L 349.329898 224.559935 
L 350.200869 224.568054 
L 351.071841 224.744037 
L 355.862183 221.770232 
L 356.297668 221.107489 
L 356.733154 220.860468 
L 357.16864 220.751583 
L 359.781554 218.672737 
L 360.217039 217.94206 
L 361.523496 216.920188 
L 363.265439 215.25969 
L 363.700924 214.983776 
L 364.13641 214.379774 
L 364.571896 214.06852 
L 365.007381 213.929668 
L 365.442867 213.558122 
L 366.313838 213.014293 
L 367.184809 212.311912 
L 368.055781 211.829332 
L 368.491266 211.545896 
L 368.926752 210.898316 
L 371.10418 209.048941 
L 371.539666 208.666768 
L 371.975151 208.042112 
L 373.281608 207.024299 
L 373.717094 206.519272 
L 374.588065 205.855575 
L 375.894522 204.641004 
L 376.330008 204.331064 
L 376.765494 203.772669 
L 379.813893 201.629591 
L 380.684864 200.803162 
L 381.12035 200.027237 
L 381.991321 199.340019 
L 382.426807 198.709989 
L 383.733264 197.63069 
L 384.168749 196.915534 
L 385.039721 196.324188 
L 385.910692 195.619419 
L 387.217149 194.555402 
L 387.652635 193.895883 
L 388.523606 193.12139 
L 388.959091 192.312989 
L 389.394577 192.002094 
L 390.265548 190.763048 
L 393.313948 188.624626 
L 395.05589 187.556549 
L 395.491376 186.864316 
L 397.233319 185.600915 
L 397.668804 184.859254 
L 399.410747 183.623313 
L 399.846233 182.453872 
L 402.023661 180.655 
L 402.023661 180.655 
" style="fill:none;stroke:#d62728;stroke-linecap:square;stroke-opacity:0.8;stroke-width:1.5;"/>
   </g>
   <g id="line2d_20">
    <path clip-path="url(#p111e8bd5ec)" d="M 147.264561 128.06588 
L 147.700046 127.687767 
L 148.135532 127.715108 
L 148.571018 126.960195 
L 149.006503 126.817641 
L 149.441989 126.530385 
L 150.31296 125.496574 
L 150.748446 125.618234 
L 151.619417 124.431362 
L 152.054903 124.191027 
L 152.490388 123.344899 
L 153.36136 122.676903 
L 153.796845 122.000908 
L 154.232331 120.502902 
L 154.667817 119.993816 
L 155.103302 119.769241 
L 155.538788 119.784403 
L 155.974273 117.976696 
L 156.409759 117.611238 
L 157.28073 117.204352 
L 158.587187 114.860337 
L 159.022673 113.567207 
L 160.32913 112.283986 
L 160.764616 111.834358 
L 161.200101 110.156429 
L 161.635587 109.170254 
L 162.071072 108.811363 
L 162.506558 108.18014 
L 162.942044 108.197094 
L 163.377529 108.422624 
L 163.813015 107.01261 
L 164.248501 107.425347 
L 164.683986 107.053919 
L 165.554958 106.902531 
L 165.990443 105.336591 
L 166.425929 104.728649 
L 166.861415 104.75993 
L 167.2969 105.181621 
L 167.732386 105.35247 
L 168.167871 104.160226 
L 168.603357 103.846346 
L 169.038843 104.019344 
L 169.909814 101.698014 
L 170.3453 101.665539 
L 170.780785 101.419473 
L 171.216271 100.195829 
L 171.651757 100.353187 
L 172.087242 100.711959 
L 172.522728 100.901791 
L 172.958213 101.386402 
L 173.829185 100.681992 
L 174.700156 98.46489 
L 175.135642 98.663438 
L 175.571127 99.119156 
L 176.006613 98.394688 
L 176.442099 99.238309 
L 176.877584 98.338216 
L 178.184041 94.323674 
L 178.619527 93.595744 
L 179.055012 93.503693 
L 179.490498 92.953417 
L 179.925984 91.822899 
L 180.361469 92.560022 
L 181.232441 89.848998 
L 182.103412 90.236185 
L 182.974383 89.58359 
L 183.409869 89.596604 
L 183.845355 89.281888 
L 184.716326 87.892648 
L 185.151811 86.660885 
L 185.587297 86.676047 
L 186.458268 85.418854 
L 186.893754 85.188787 
L 187.32924 85.24693 
L 187.764725 84.452738 
L 188.200211 84.511837 
L 188.635697 85.291941 
L 189.071182 84.27174 
L 189.942153 84.573681 
L 190.377639 83.240197 
L 190.813125 83.476831 
L 191.24861 82.704965 
L 191.684096 82.471554 
L 192.119582 81.437504 
L 192.555067 81.708761 
L 192.990553 80.638655 
L 193.426039 79.875743 
L 193.861524 80.106049 
L 194.29701 79.421458 
L 194.732496 79.08549 
L 195.167981 79.37191 
L 195.603467 78.780683 
L 196.038952 78.878465 
L 196.474438 78.771012 
L 196.909924 77.869009 
L 197.345409 76.62865 
L 197.780895 76.510811 
L 198.216381 76.569432 
L 198.651866 75.291345 
L 199.522838 73.758954 
L 199.958323 73.384662 
L 200.393809 73.19268 
L 201.700266 73.684812 
L 202.135751 74.74095 
L 202.571237 75.430198 
L 203.006723 74.525807 
L 203.442208 74.457395 
L 203.877694 74.812585 
L 204.31318 72.737798 
L 204.748665 72.796778 
L 205.184151 72.093442 
L 205.619637 71.921876 
L 207.361579 72.472988 
L 207.797065 72.142631 
L 208.23255 72.087353 
L 208.668036 72.531012 
L 209.539007 73.149102 
L 210.409979 73.926819 
L 210.845464 73.846946 
L 211.28095 74.605321 
L 211.716436 74.167632 
L 212.151921 74.070566 
L 212.587407 74.286068 
L 213.022892 75.695128 
L 213.458378 75.66719 
L 213.893864 73.536289 
L 214.329349 73.071856 
L 214.764835 73.137641 
L 215.200321 72.861607 
L 215.635806 73.190412 
L 216.071292 72.055595 
L 217.377749 72.167704 
L 217.813235 72.991506 
L 218.24872 73.066364 
L 218.684206 73.34968 
L 219.119691 73.270165 
L 219.555177 72.407442 
L 219.990663 72.236473 
L 220.426148 72.305601 
L 220.861634 72.200178 
L 221.29712 72.481107 
L 221.732605 72.128901 
L 222.603577 73.334517 
L 223.039062 73.555631 
L 223.910033 72.843579 
L 225.651976 73.197098 
L 226.087462 73.213454 
L 226.522947 72.340583 
L 226.958433 72.162689 
L 227.393919 72.174031 
L 227.829404 71.686317 
L 228.26489 72.653986 
L 228.700376 71.379958 
L 229.135861 70.743482 
L 229.571347 70.946686 
L 230.006832 72.518476 
L 230.877804 70.075963 
L 231.313289 70.541352 
L 231.748775 69.441278 
L 232.184261 69.909293 
L 232.619746 70.065457 
L 233.055232 69.630155 
L 233.490718 68.820442 
L 233.926203 67.248771 
L 234.361689 66.674259 
L 234.797175 67.006764 
L 235.23266 67.097621 
L 235.668146 67.006167 
L 236.103631 67.220237 
L 236.539117 67.249129 
L 236.974603 66.799859 
L 237.410088 67.397652 
L 237.845574 67.594529 
L 238.28106 67.47669 
L 238.716545 67.923214 
L 239.152031 69.070209 
L 240.458488 68.626669 
L 240.893974 69.22697 
L 241.764945 68.817099 
L 242.20043 68.172862 
L 243.071402 69.383851 
L 243.506887 69.488438 
L 243.942373 70.578721 
L 244.377859 70.920778 
L 245.24883 70.802581 
L 245.684316 69.730922 
L 246.555287 72.381892 
L 247.426258 73.247481 
L 247.861744 73.139073 
L 248.297229 71.759981 
L 248.732715 72.155406 
L 249.168201 72.248054 
L 249.603686 73.089884 
L 250.039172 72.584261 
L 250.474658 72.553816 
L 250.910143 73.420479 
L 251.345629 73.905209 
L 251.781115 74.180168 
L 252.2166 74.314245 
L 252.652086 74.123457 
L 253.087571 75.659071 
L 253.523057 76.409328 
L 253.958543 76.003277 
L 254.394028 77.623301 
L 254.829514 78.501068 
L 255.265 78.189576 
L 255.700485 78.976605 
L 256.135971 80.124077 
L 257.006942 79.598396 
L 257.442428 79.472796 
L 257.877914 80.369785 
L 258.313399 80.239171 
L 258.748885 80.948118 
L 259.18437 82.488508 
L 260.055342 81.820631 
L 260.490827 81.424132 
L 260.926313 82.405769 
L 261.361799 80.327878 
L 261.797284 81.307725 
L 262.668256 84.259323 
L 263.103741 85.154641 
L 263.974712 85.502906 
L 264.410198 86.118369 
L 266.152141 91.052226 
L 266.587626 91.332796 
L 267.023112 92.22095 
L 267.458598 92.765137 
L 267.894083 92.995085 
L 268.329569 92.781493 
L 268.765055 92.748541 
L 269.636026 94.003705 
L 270.071511 94.812225 
L 270.506997 94.790257 
L 270.942483 95.395214 
L 271.377968 94.560189 
L 271.813454 93.095016 
L 272.24894 93.175844 
L 272.684425 94.083458 
L 273.555397 93.624637 
L 273.990882 94.554697 
L 274.861854 94.731635 
L 275.297339 96.299843 
L 275.732825 96.365031 
L 276.16831 95.653099 
L 276.603796 95.952414 
L 277.039282 97.647297 
L 277.910253 97.315149 
L 278.345739 98.787725 
L 278.781224 98.676571 
L 279.21671 98.896968 
L 279.652196 97.669504 
L 280.087681 97.445764 
L 280.523167 98.002606 
L 280.958652 98.077345 
L 281.394138 98.30204 
L 281.829624 97.699232 
L 282.265109 99.215744 
L 282.700595 99.210013 
L 283.136081 99.350059 
L 283.571566 100.496576 
L 284.007052 100.977724 
L 284.442538 101.063209 
L 284.878023 100.857378 
L 285.313509 100.830515 
L 286.619966 98.441251 
L 287.055451 98.20008 
L 287.490937 97.134271 
L 287.926423 97.317179 
L 288.797394 95.613939 
L 289.23288 97.252588 
L 289.668365 97.072068 
L 290.103851 97.687412 
L 290.539337 96.318349 
L 290.974822 96.32408 
L 291.410308 95.189502 
L 291.845794 95.894867 
L 292.281279 95.370738 
L 292.716765 96.040286 
L 293.15225 94.56783 
L 293.587736 93.988662 
L 294.458707 91.107265 
L 295.329679 91.167319 
L 295.765164 90.259347 
L 296.20065 90.915761 
L 296.636136 90.671128 
L 297.071621 90.703006 
L 297.507107 89.555414 
L 297.942592 89.780825 
L 298.378078 89.370835 
L 298.813564 91.031571 
L 299.249049 89.992626 
L 299.684535 89.778557 
L 300.120021 90.076558 
L 300.555506 90.045636 
L 300.990992 91.097834 
L 301.861963 90.805324 
L 302.297449 90.990023 
L 303.16842 91.01605 
L 303.603906 89.179569 
L 304.039391 88.875718 
L 304.474877 87.978132 
L 305.781334 82.579126 
L 306.21682 81.154784 
L 306.652305 81.472366 
L 307.958762 81.448488 
L 308.394248 81.671153 
L 308.829734 81.617069 
L 309.700705 80.537291 
L 310.571676 80.43163 
L 311.007162 80.079425 
L 311.442647 80.683307 
L 311.878133 80.347578 
L 312.313619 79.857834 
L 312.749104 80.532157 
L 313.18459 80.56296 
L 313.620076 81.810483 
L 314.055561 82.528146 
L 314.926532 82.157077 
L 315.362018 83.108747 
L 315.797504 84.686506 
L 316.232989 85.140314 
L 316.668475 85.413362 
L 317.103961 85.271406 
L 317.539446 84.861057 
L 317.974932 85.428286 
L 318.410418 84.328332 
L 318.845903 85.861319 
L 319.281389 86.406223 
L 320.15236 86.393328 
L 320.587846 86.470216 
L 321.023331 85.566303 
L 321.458817 85.719363 
L 321.894303 86.19872 
L 322.765274 86.158843 
L 323.20076 86.064046 
L 323.636245 86.145949 
L 324.071731 85.672681 
L 324.507217 86.077896 
L 325.378188 86.256864 
L 325.813674 86.807856 
L 326.249159 86.993987 
L 326.684645 85.426973 
L 327.12013 85.724019 
L 327.555616 85.712677 
L 327.991102 85.351398 
L 328.426587 85.418257 
L 329.297559 85.174818 
L 329.733044 83.911297 
L 330.16853 83.656038 
L 330.604016 84.563414 
L 331.474987 83.661649 
L 331.910472 83.027083 
L 332.345958 81.999599 
L 332.781444 80.612627 
L 333.216929 80.592928 
L 333.652415 81.774188 
L 334.087901 80.153328 
L 334.958872 78.92455 
L 335.394358 77.624853 
L 335.829843 77.330314 
L 336.265329 77.852653 
L 336.700815 76.86421 
L 337.1363 75.005522 
L 337.571786 73.690185 
L 338.007271 73.43027 
L 338.442757 71.997809 
L 338.878243 72.415919 
L 339.749214 72.196119 
L 340.1847 70.978564 
L 340.620185 69.353525 
L 341.055671 69.403431 
L 341.491157 68.182294 
L 341.926642 65.839831 
L 342.362128 64.37227 
L 342.797614 64.528315 
L 343.233099 63.51874 
L 343.668585 63.528649 
L 344.10407 62.518 
L 344.539556 63.723258 
L 344.975042 63.434808 
L 345.410527 62.353239 
L 345.846013 60.646418 
L 346.281499 61.334949 
L 346.716984 61.194664 
L 347.15247 59.542762 
L 347.587956 59.452144 
L 348.023441 59.929471 
L 348.458927 60.88341 
L 348.894412 60.057578 
L 349.329898 60.0768 
L 349.765384 58.401737 
L 350.200869 58.619507 
L 350.636355 57.728129 
L 351.071841 56.275612 
L 351.507326 55.394979 
L 352.378298 55.295765 
L 352.813783 53.618314 
L 353.249269 53.947118 
L 353.684755 53.359353 
L 354.555726 51.436075 
L 354.991211 51.841409 
L 355.426697 51.870182 
L 355.862183 51.448133 
L 356.297668 51.338412 
L 356.733154 53.060994 
L 357.604125 50.021643 
L 358.475097 47.811347 
L 358.910582 48.046429 
L 359.346068 48.017416 
L 359.781554 47.048196 
L 360.217039 45.575023 
L 360.652525 45.56965 
L 361.08801 47.039003 
L 361.523496 45.326808 
L 361.958982 45.099367 
L 362.394467 45.15572 
L 362.829953 46.851438 
L 364.13641 42.580563 
L 364.571896 42.395864 
L 365.007381 41.554154 
L 365.442867 41.758791 
L 365.878353 40.710056 
L 366.313838 40.470079 
L 366.749324 40.893322 
L 367.620295 40.187359 
L 368.055781 40.167182 
L 368.491266 40.676148 
L 368.926752 40.793271 
L 369.362238 42.412699 
L 369.797723 43.134063 
L 370.233209 43.165582 
L 370.668695 43.584527 
L 371.10418 41.995545 
L 371.539666 41.521679 
L 371.975151 40.105934 
L 372.410637 39.5239 
L 372.846123 40.449424 
L 373.281608 40.402264 
L 373.717094 41.189293 
L 374.588065 41.855856 
L 375.023551 41.614805 
L 375.459037 43.120691 
L 375.894522 42.055121 
L 376.330008 41.63546 
L 376.765494 41.669486 
L 377.200979 42.390492 
L 377.636465 42.387507 
L 378.07195 44.078808 
L 378.507436 44.91622 
L 378.942922 44.674214 
L 379.378407 44.581088 
L 380.684864 41.083871 
L 381.12035 40.8347 
L 381.555836 41.527649 
L 381.991321 41.42736 
L 382.426807 42.543313 
L 382.862293 41.88272 
L 383.297778 41.845947 
L 383.733264 41.564541 
L 384.168749 41.850961 
L 384.604235 41.728227 
L 385.475206 41.78255 
L 387.217149 35.471154 
L 387.652635 35.33445 
L 388.08812 34.990125 
L 388.523606 36.541618 
L 388.959091 36.728227 
L 389.830063 40.604752 
L 390.701034 44.237718 
L 391.13652 45.688206 
L 391.572005 45.87983 
L 392.007491 45.864428 
L 393.313948 43.67228 
L 394.184919 43.644223 
L 395.491376 44.209661 
L 395.926862 44.624786 
L 396.362347 43.96861 
L 396.797833 44.22172 
L 397.668804 44.111999 
L 398.539776 44.081793 
L 398.975261 43.995353 
L 399.410747 44.366184 
L 399.846233 44.527959 
L 400.281718 44.370004 
L 400.717204 43.285332 
L 401.152689 41.760343 
L 401.588175 41.809413 
L 402.023661 40.843058 
L 402.023661 40.843058 
" style="fill:none;stroke:#9467bd;stroke-linecap:square;stroke-opacity:0.8;stroke-width:1.5;"/>
   </g>
   <g id="patch_3">
    <path d="M 61.909375 288.430125 
L 61.909375 22.318125 
" style="fill:none;stroke:#000000;stroke-linecap:square;stroke-linejoin:miter;stroke-width:0.8;"/>
   </g>
   <g id="patch_4">
    <path d="M 419.029375 288.430125 
L 419.029375 22.318125 
" style="fill:none;stroke:#000000;stroke-linecap:square;stroke-linejoin:miter;stroke-width:0.8;"/>
   </g>
   <g id="patch_5">
    <path d="M 61.909375 288.430125 
L 419.029375 288.430125 
" style="fill:none;stroke:#000000;stroke-linecap:square;stroke-linejoin:miter;stroke-width:0.8;"/>
   </g>
   <g id="patch_6">
    <path d="M 61.909375 22.318125 
L 419.029375 22.318125 
" style="fill:none;stroke:#000000;stroke-linecap:square;stroke-linejoin:miter;stroke-width:0.8;"/>
   </g>
   <g id="text_18">
    <!-- Get filtered children count [branch] -->
    <g transform="translate(134.29 16.318125)scale(0.12 -0.12)">
     <defs>
      <path d="M 59.515625 10.40625 
L 59.515625 29.984375 
L 43.40625 29.984375 
L 43.40625 38.09375 
L 69.28125 38.09375 
L 69.28125 6.78125 
Q 63.578125 2.734375 56.6875 0.65625 
Q 49.8125 -1.421875 42 -1.421875 
Q 24.90625 -1.421875 15.25 8.5625 
Q 5.609375 18.5625 5.609375 36.375 
Q 5.609375 54.25 15.25 64.234375 
Q 24.90625 74.21875 42 74.21875 
Q 49.125 74.21875 55.546875 72.453125 
Q 61.96875 70.703125 67.390625 67.28125 
L 67.390625 56.78125 
Q 61.921875 61.421875 55.765625 63.765625 
Q 49.609375 66.109375 42.828125 66.109375 
Q 29.4375 66.109375 22.71875 58.640625 
Q 16.015625 51.171875 16.015625 36.375 
Q 16.015625 21.625 22.71875 14.15625 
Q 29.4375 6.6875 42.828125 6.6875 
Q 48.046875 6.6875 52.140625 7.59375 
Q 56.25 8.5 59.515625 10.40625 
z
" id="DejaVuSans-71"/>
      <path d="M 41.109375 46.296875 
Q 39.59375 47.171875 37.8125 47.578125 
Q 36.03125 48 33.890625 48 
Q 26.265625 48 22.1875 43.046875 
Q 18.109375 38.09375 18.109375 28.8125 
L 18.109375 0 
L 9.078125 0 
L 9.078125 54.6875 
L 18.109375 54.6875 
L 18.109375 46.1875 
Q 20.953125 51.171875 25.484375 53.578125 
Q 30.03125 56 36.53125 56 
Q 37.453125 56 38.578125 55.875 
Q 39.703125 55.765625 41.0625 55.515625 
z
" id="DejaVuSans-114"/>
      <path d="M 54.890625 33.015625 
L 54.890625 0 
L 45.90625 0 
L 45.90625 32.71875 
Q 45.90625 40.484375 42.875 44.328125 
Q 39.84375 48.1875 33.796875 48.1875 
Q 26.515625 48.1875 22.3125 43.546875 
Q 18.109375 38.921875 18.109375 30.90625 
L 18.109375 0 
L 9.078125 0 
L 9.078125 75.984375 
L 18.109375 75.984375 
L 18.109375 46.1875 
Q 21.34375 51.125 25.703125 53.5625 
Q 30.078125 56 35.796875 56 
Q 45.21875 56 50.046875 50.171875 
Q 54.890625 44.34375 54.890625 33.015625 
z
" id="DejaVuSans-104"/>
      <path d="M 8.59375 75.984375 
L 29.296875 75.984375 
L 29.296875 69 
L 17.578125 69 
L 17.578125 -6.203125 
L 29.296875 -6.203125 
L 29.296875 -13.1875 
L 8.59375 -13.1875 
z
" id="DejaVuSans-91"/>
      <path d="M 30.421875 75.984375 
L 30.421875 -13.1875 
L 9.71875 -13.1875 
L 9.71875 -6.203125 
L 21.390625 -6.203125 
L 21.390625 69 
L 9.71875 69 
L 9.71875 75.984375 
z
" id="DejaVuSans-93"/>
     </defs>
     <use xlink:href="#DejaVuSans-71"/>
     <use x="77.490234" xlink:href="#DejaVuSans-101"/>
     <use x="139.013672" xlink:href="#DejaVuSans-116"/>
     <use x="178.222656" xlink:href="#DejaVuSans-32"/>
     <use x="210.009766" xlink:href="#DejaVuSans-102"/>
     <use x="245.214844" xlink:href="#DejaVuSans-105"/>
     <use x="272.998047" xlink:href="#DejaVuSans-108"/>
     <use x="300.78125" xlink:href="#DejaVuSans-116"/>
     <use x="339.990234" xlink:href="#DejaVuSans-101"/>
     <use x="401.513672" xlink:href="#DejaVuSans-114"/>
     <use x="440.376953" xlink:href="#DejaVuSans-101"/>
     <use x="501.900391" xlink:href="#DejaVuSans-100"/>
     <use x="565.376953" xlink:href="#DejaVuSans-32"/>
     <use x="597.164062" xlink:href="#DejaVuSans-99"/>
     <use x="652.144531" xlink:href="#DejaVuSans-104"/>
     <use x="715.523438" xlink:href="#DejaVuSans-105"/>
     <use x="743.306641" xlink:href="#DejaVuSans-108"/>
     <use x="771.089844" xlink:href="#DejaVuSans-100"/>
     <use x="834.566406" xlink:href="#DejaVuSans-114"/>
     <use x="873.429688" xlink:href="#DejaVuSans-101"/>
     <use x="934.953125" xlink:href="#DejaVuSans-110"/>
     <use x="998.332031" xlink:href="#DejaVuSans-32"/>
     <use x="1030.119141" xlink:href="#DejaVuSans-99"/>
     <use x="1085.099609" xlink:href="#DejaVuSans-111"/>
     <use x="1146.28125" xlink:href="#DejaVuSans-117"/>
     <use x="1209.660156" xlink:href="#DejaVuSans-110"/>
     <use x="1273.039062" xlink:href="#DejaVuSans-116"/>
     <use x="1312.248047" xlink:href="#DejaVuSans-32"/>
     <use x="1344.035156" xlink:href="#DejaVuSans-91"/>
     <use x="1383.048828" xlink:href="#DejaVuSans-98"/>
     <use x="1446.525391" xlink:href="#DejaVuSans-114"/>
     <use x="1487.638672" xlink:href="#DejaVuSans-97"/>
     <use x="1548.917969" xlink:href="#DejaVuSans-110"/>
     <use x="1612.296875" xlink:href="#DejaVuSans-99"/>
     <use x="1667.277344" xlink:href="#DejaVuSans-104"/>
     <use x="1730.65625" xlink:href="#DejaVuSans-93"/>
    </g>
   </g>
   <g id="legend_1">
    <g id="patch_7">
     <path d="M 92.911719 365.802375 
L 380.507031 365.802375 
Q 382.507031 365.802375 382.507031 363.802375 
L 382.507031 335.446125 
Q 382.507031 333.446125 380.507031 333.446125 
L 92.911719 333.446125 
Q 90.911719 333.446125 90.911719 335.446125 
L 90.911719 363.802375 
Q 90.911719 365.802375 92.911719 365.802375 
z
" style="fill:#4c4c4c;opacity:0.5;stroke:#4c4c4c;stroke-linejoin:miter;"/>
    </g>
    <g id="patch_8">
     <path d="M 90.911719 363.802375 
L 378.507031 363.802375 
Q 380.507031 363.802375 380.507031 361.802375 
L 380.507031 333.446125 
Q 380.507031 331.446125 378.507031 331.446125 
L 90.911719 331.446125 
Q 88.911719 331.446125 88.911719 333.446125 
L 88.911719 361.802375 
Q 88.911719 363.802375 90.911719 363.802375 
z
" style="fill:#ffffff;stroke:#cccccc;stroke-linejoin:miter;"/>
    </g>
    <g id="line2d_21">
     <path d="M 92.911719 339.544562 
L 112.911719 339.544562 
" style="fill:none;stroke:#1f77b4;stroke-linecap:square;stroke-opacity:0.8;stroke-width:1.5;"/>
    </g>
    <g id="line2d_22"/>
    <g id="text_19">
     <!-- MPTT -->
     <g transform="translate(120.911719 343.044562)scale(0.1 -0.1)">
      <defs>
       <path d="M 9.8125 72.90625 
L 24.515625 72.90625 
L 43.109375 23.296875 
L 61.8125 72.90625 
L 76.515625 72.90625 
L 76.515625 0 
L 66.890625 0 
L 66.890625 64.015625 
L 48.09375 14.015625 
L 38.1875 14.015625 
L 19.390625 64.015625 
L 19.390625 0 
L 9.8125 0 
z
" id="DejaVuSans-77"/>
       <path d="M 19.671875 64.796875 
L 19.671875 37.40625 
L 32.078125 37.40625 
Q 38.96875 37.40625 42.71875 40.96875 
Q 46.484375 44.53125 46.484375 51.125 
Q 46.484375 57.671875 42.71875 61.234375 
Q 38.96875 64.796875 32.078125 64.796875 
z
M 9.8125 72.90625 
L 32.078125 72.90625 
Q 44.34375 72.90625 50.609375 67.359375 
Q 56.890625 61.8125 56.890625 51.125 
Q 56.890625 40.328125 50.609375 34.8125 
Q 44.34375 29.296875 32.078125 29.296875 
L 19.671875 29.296875 
L 19.671875 0 
L 9.8125 0 
z
" id="DejaVuSans-80"/>
       <path d="M -0.296875 72.90625 
L 61.375 72.90625 
L 61.375 64.59375 
L 35.5 64.59375 
L 35.5 0 
L 25.59375 0 
L 25.59375 64.59375 
L -0.296875 64.59375 
z
" id="DejaVuSans-84"/>
      </defs>
      <use xlink:href="#DejaVuSans-77"/>
      <use x="86.279297" xlink:href="#DejaVuSans-80"/>
      <use x="146.582031" xlink:href="#DejaVuSans-84"/>
      <use x="205.916016" xlink:href="#DejaVuSans-84"/>
     </g>
    </g>
    <g id="line2d_23">
     <path d="M 92.911719 354.222687 
L 112.911719 354.222687 
" style="fill:none;stroke:#ff7f0e;stroke-linecap:square;stroke-opacity:0.8;stroke-width:1.5;"/>
    </g>
    <g id="line2d_24"/>
    <g id="text_20">
     <!-- tree -->
     <g transform="translate(120.911719 357.722687)scale(0.1 -0.1)">
      <use xlink:href="#DejaVuSans-116"/>
      <use x="39.208984" xlink:href="#DejaVuSans-114"/>
      <use x="78.072266" xlink:href="#DejaVuSans-101"/>
      <use x="139.595703" xlink:href="#DejaVuSans-101"/>
     </g>
    </g>
    <g id="line2d_25">
     <path d="M 167.610156 339.544562 
L 187.610156 339.544562 
" style="fill:none;stroke:#2ca02c;stroke-linecap:square;stroke-opacity:0.8;stroke-width:1.5;"/>
    </g>
    <g id="line2d_26"/>
    <g id="text_21">
     <!-- treebeard AL -->
     <g transform="translate(195.610156 343.044562)scale(0.1 -0.1)">
      <defs>
       <path d="M 9.8125 72.90625 
L 19.671875 72.90625 
L 19.671875 8.296875 
L 55.171875 8.296875 
L 55.171875 0 
L 9.8125 0 
z
" id="DejaVuSans-76"/>
      </defs>
      <use xlink:href="#DejaVuSans-116"/>
      <use x="39.208984" xlink:href="#DejaVuSans-114"/>
      <use x="78.072266" xlink:href="#DejaVuSans-101"/>
      <use x="139.595703" xlink:href="#DejaVuSans-101"/>
      <use x="201.119141" xlink:href="#DejaVuSans-98"/>
      <use x="264.595703" xlink:href="#DejaVuSans-101"/>
      <use x="326.119141" xlink:href="#DejaVuSans-97"/>
      <use x="387.398438" xlink:href="#DejaVuSans-114"/>
      <use x="426.761719" xlink:href="#DejaVuSans-100"/>
      <use x="490.238281" xlink:href="#DejaVuSans-32"/>
      <use x="522.025391" xlink:href="#DejaVuSans-65"/>
      <use x="590.433594" xlink:href="#DejaVuSans-76"/>
     </g>
    </g>
    <g id="line2d_27">
     <path d="M 167.610156 354.222687 
L 187.610156 354.222687 
" style="fill:none;stroke:#d62728;stroke-linecap:square;stroke-opacity:0.8;stroke-width:1.5;"/>
    </g>
    <g id="line2d_28"/>
    <g id="text_22">
     <!-- treebeard MP -->
     <g transform="translate(195.610156 357.722687)scale(0.1 -0.1)">
      <use xlink:href="#DejaVuSans-116"/>
      <use x="39.208984" xlink:href="#DejaVuSans-114"/>
      <use x="78.072266" xlink:href="#DejaVuSans-101"/>
      <use x="139.595703" xlink:href="#DejaVuSans-101"/>
      <use x="201.119141" xlink:href="#DejaVuSans-98"/>
      <use x="264.595703" xlink:href="#DejaVuSans-101"/>
      <use x="326.119141" xlink:href="#DejaVuSans-97"/>
      <use x="387.398438" xlink:href="#DejaVuSans-114"/>
      <use x="426.761719" xlink:href="#DejaVuSans-100"/>
      <use x="490.238281" xlink:href="#DejaVuSans-32"/>
      <use x="522.025391" xlink:href="#DejaVuSans-77"/>
      <use x="608.304688" xlink:href="#DejaVuSans-80"/>
     </g>
    </g>
    <g id="line2d_29">
     <path d="M 282.472656 339.544562 
L 302.472656 339.544562 
" style="fill:none;stroke:#9467bd;stroke-linecap:square;stroke-opacity:0.8;stroke-width:1.5;"/>
    </g>
    <g id="line2d_30"/>
    <g id="text_23">
     <!-- treebeard NS -->
     <g transform="translate(310.472656 343.044562)scale(0.1 -0.1)">
      <defs>
       <path d="M 9.8125 72.90625 
L 23.09375 72.90625 
L 55.421875 11.921875 
L 55.421875 72.90625 
L 64.984375 72.90625 
L 64.984375 0 
L 51.703125 0 
L 19.390625 60.984375 
L 19.390625 0 
L 9.8125 0 
z
" id="DejaVuSans-78"/>
       <path d="M 53.515625 70.515625 
L 53.515625 60.890625 
Q 47.90625 63.578125 42.921875 64.890625 
Q 37.9375 66.21875 33.296875 66.21875 
Q 25.25 66.21875 20.875 63.09375 
Q 16.5 59.96875 16.5 54.203125 
Q 16.5 49.359375 19.40625 46.890625 
Q 22.3125 44.4375 30.421875 42.921875 
L 36.375 41.703125 
Q 47.40625 39.59375 52.65625 34.296875 
Q 57.90625 29 57.90625 20.125 
Q 57.90625 9.515625 50.796875 4.046875 
Q 43.703125 -1.421875 29.984375 -1.421875 
Q 24.8125 -1.421875 18.96875 -0.25 
Q 13.140625 0.921875 6.890625 3.21875 
L 6.890625 13.375 
Q 12.890625 10.015625 18.65625 8.296875 
Q 24.421875 6.59375 29.984375 6.59375 
Q 38.421875 6.59375 43.015625 9.90625 
Q 47.609375 13.234375 47.609375 19.390625 
Q 47.609375 24.75 44.3125 27.78125 
Q 41.015625 30.8125 33.5 32.328125 
L 27.484375 33.5 
Q 16.453125 35.6875 11.515625 40.375 
Q 6.59375 45.0625 6.59375 53.421875 
Q 6.59375 63.09375 13.40625 68.65625 
Q 20.21875 74.21875 32.171875 74.21875 
Q 37.3125 74.21875 42.625 73.28125 
Q 47.953125 72.359375 53.515625 70.515625 
z
" id="DejaVuSans-83"/>
      </defs>
      <use xlink:href="#DejaVuSans-116"/>
      <use x="39.208984" xlink:href="#DejaVuSans-114"/>
      <use x="78.072266" xlink:href="#DejaVuSans-101"/>
      <use x="139.595703" xlink:href="#DejaVuSans-101"/>
      <use x="201.119141" xlink:href="#DejaVuSans-98"/>
      <use x="264.595703" xlink:href="#DejaVuSans-101"/>
      <use x="326.119141" xlink:href="#DejaVuSans-97"/>
      <use x="387.398438" xlink:href="#DejaVuSans-114"/>
      <use x="426.761719" xlink:href="#DejaVuSans-100"/>
      <use x="490.238281" xlink:href="#DejaVuSans-32"/>
      <use x="522.025391" xlink:href="#DejaVuSans-78"/>
      <use x="596.830078" xlink:href="#DejaVuSans-83"/>
     </g>
    </g>
   </g>
  </g>
 </g>
 <defs>
  <clipPath id="p111e8bd5ec">
   <rect height="266.112" width="357.12" x="61.909375" y="22.318125"/>
  </clipPath>
 </defs>
</svg>
