<?xml version="1.0" encoding="utf-8" standalone="no"?>
<!DOCTYPE svg PUBLIC "-//W3C//DTD SVG 1.1//EN"
  "http://www.w3.org/Graphics/SVG/1.1/DTD/svg11.dtd">
<svg xmlns:xlink="http://www.w3.org/1999/xlink" width="426.035625pt" height="371.002375pt" viewBox="0 0 426.035625 371.002375" xmlns="http://www.w3.org/2000/svg" version="1.1">
 <metadata>
  <rdf:RDF xmlns:dc="http://purl.org/dc/elements/1.1/" xmlns:cc="http://creativecommons.org/ns#" xmlns:rdf="http://www.w3.org/1999/02/22-rdf-syntax-ns#">
   <cc:Work>
    <dc:type rdf:resource="http://purl.org/dc/dcmitype/StillImage"/>
    <dc:date>2026-06-28T14:41:52.980771</dc:date>
    <dc:format>image/svg+xml</dc:format>
    <dc:creator>
     <cc:Agent>
      <dc:title>Matplotlib v3.10.6, https://matplotlib.org/</dc:title>
     </cc:Agent>
    </dc:creator>
   </cc:Work>
  </rdf:RDF>
 </metadata>
 <defs>
  <style type="text/css">*{stroke-linejoin: round; stroke-linecap: butt}</style>
 </defs>
 <g id="figure_1">
  <g id="patch_1">
   <path d="M 0 371.002375 
L 426.035625 371.002375 
L 426.035625 0 
L 0 0 
z
" style="fill: #ffffff"/>
  </g>
  <g id="axes_1">
   <g id="patch_2">
    <path d="M 61.715625 288.430125 
L 418.835625 288.430125 
L 418.835625 22.318125 
L 61.715625 22.318125 
z
" style="fill: #ffffff"/>
   </g>
   <g id="matplotlib.axis_1">
    <g id="xtick_1">
     <g id="line2d_1">
      <defs>
       <path id="m5187fdcd99" d="M 0 0 
L 0 3.5 
" style="stroke: #000000; stroke-width: 0.8"/>
      </defs>
      <g>
       <use xlink:href="#m5187fdcd99" x="61.715625" y="288.430125" style="stroke: #000000; stroke-width: 0.8"/>
      </g>
     </g>
     <g id="text_1">
      <!-- 0 -->
      <g transform="translate(58.534375 303.028562) scale(0.1 -0.1)">
       <defs>
        <path id="DejaVuSans-30" d="M 2034 4250 
Q 1547 4250 1301 3770 
Q 1056 3291 1056 2328 
Q 1056 1369 1301 889 
Q 1547 409 2034 409 
Q 2525 409 2770 889 
Q 3016 1369 3016 2328 
Q 3016 3291 2770 3770 
Q 2525 4250 2034 4250 
z
M 2034 4750 
Q 2819 4750 3233 4129 
Q 3647 3509 3647 2328 
Q 3647 1150 3233 529 
Q 2819 -91 2034 -91 
Q 1250 -91 836 529 
Q 422 1150 422 2328 
Q 422 3509 836 4129 
Q 1250 4750 2034 4750 
z
" transform="scale(0.015625)"/>
       </defs>
       <use xlink:href="#DejaVuSans-30"/>
      </g>
     </g>
    </g>
    <g id="xtick_2">
     <g id="line2d_2">
      <g>
       <use xlink:href="#m5187fdcd99" x="105.264189" y="288.430125" style="stroke: #000000; stroke-width: 0.8"/>
      </g>
     </g>
     <g id="text_2">
      <!-- 500  -->
      <g transform="translate(94.131377 303.028562) scale(0.1 -0.1)">
       <defs>
        <path id="DejaVuSans-35" d="M 691 4666 
L 3169 4666 
L 3169 4134 
L 1269 4134 
L 1269 2991 
Q 1406 3038 1543 3061 
Q 1681 3084 1819 3084 
Q 2600 3084 3056 2656 
Q 3513 2228 3513 1497 
Q 3513 744 3044 326 
Q 2575 -91 1722 -91 
Q 1428 -91 1123 -41 
Q 819 9 494 109 
L 494 744 
Q 775 591 1075 516 
Q 1375 441 1709 441 
Q 2250 441 2565 725 
Q 2881 1009 2881 1497 
Q 2881 1984 2565 2268 
Q 2250 2553 1709 2553 
Q 1456 2553 1204 2497 
Q 953 2441 691 2322 
L 691 4666 
z
" transform="scale(0.015625)"/>
        <path id="DejaVuSans-20" transform="scale(0.015625)"/>
       </defs>
       <use xlink:href="#DejaVuSans-35"/>
       <use xlink:href="#DejaVuSans-30" transform="translate(63.623047 0)"/>
       <use xlink:href="#DejaVuSans-30" transform="translate(127.246094 0)"/>
       <use xlink:href="#DejaVuSans-20" transform="translate(190.869141 0)"/>
      </g>
     </g>
    </g>
    <g id="xtick_3">
     <g id="line2d_3">
      <g>
       <use xlink:href="#m5187fdcd99" x="148.812753" y="288.430125" style="stroke: #000000; stroke-width: 0.8"/>
      </g>
     </g>
     <g id="text_3">
      <!-- 1 k -->
      <g transform="translate(141.147128 303.028562) scale(0.1 -0.1)">
       <defs>
        <path id="DejaVuSans-31" d="M 794 531 
L 1825 531 
L 1825 4091 
L 703 3866 
L 703 4441 
L 1819 4666 
L 2450 4666 
L 2450 531 
L 3481 531 
L 3481 0 
L 794 0 
L 794 531 
z
" transform="scale(0.015625)"/>
        <path id="DejaVuSans-6b" d="M 581 4863 
L 1159 4863 
L 1159 1991 
L 2875 3500 
L 3609 3500 
L 1753 1863 
L 3688 0 
L 2938 0 
L 1159 1709 
L 1159 0 
L 581 0 
L 581 4863 
z
" transform="scale(0.015625)"/>
       </defs>
       <use xlink:href="#DejaVuSans-31"/>
       <use xlink:href="#DejaVuSans-20" transform="translate(63.623047 0)"/>
       <use xlink:href="#DejaVuSans-6b" transform="translate(95.410156 0)"/>
      </g>
     </g>
    </g>
    <g id="xtick_4">
     <g id="line2d_4">
      <g>
       <use xlink:href="#m5187fdcd99" x="192.361317" y="288.430125" style="stroke: #000000; stroke-width: 0.8"/>
      </g>
     </g>
     <g id="text_4">
      <!-- 1.5 k -->
      <g transform="translate(179.92538 303.028562) scale(0.1 -0.1)">
       <defs>
        <path id="DejaVuSans-2e" d="M 684 794 
L 1344 794 
L 1344 0 
L 684 0 
L 684 794 
z
" transform="scale(0.015625)"/>
       </defs>
       <use xlink:href="#DejaVuSans-31"/>
       <use xlink:href="#DejaVuSans-2e" transform="translate(63.623047 0)"/>
       <use xlink:href="#DejaVuSans-35" transform="translate(95.410156 0)"/>
       <use xlink:href="#DejaVuSans-20" transform="translate(159.033203 0)"/>
       <use xlink:href="#DejaVuSans-6b" transform="translate(190.820312 0)"/>
      </g>
     </g>
    </g>
    <g id="xtick_5">
     <g id="line2d_5">
      <g>
       <use xlink:href="#m5187fdcd99" x="235.909881" y="288.430125" style="stroke: #000000; stroke-width: 0.8"/>
      </g>
     </g>
     <g id="text_5">
      <!-- 2 k -->
      <g transform="translate(228.244256 303.028562) scale(0.1 -0.1)">
       <defs>
        <path id="DejaVuSans-32" d="M 1228 531 
L 3431 531 
L 3431 0 
L 469 0 
L 469 531 
Q 828 903 1448 1529 
Q 2069 2156 2228 2338 
Q 2531 2678 2651 2914 
Q 2772 3150 2772 3378 
Q 2772 3750 2511 3984 
Q 2250 4219 1831 4219 
Q 1534 4219 1204 4116 
Q 875 4013 500 3803 
L 500 4441 
Q 881 4594 1212 4672 
Q 1544 4750 1819 4750 
Q 2544 4750 2975 4387 
Q 3406 4025 3406 3419 
Q 3406 3131 3298 2873 
Q 3191 2616 2906 2266 
Q 2828 2175 2409 1742 
Q 1991 1309 1228 531 
z
" transform="scale(0.015625)"/>
       </defs>
       <use xlink:href="#DejaVuSans-32"/>
       <use xlink:href="#DejaVuSans-20" transform="translate(63.623047 0)"/>
       <use xlink:href="#DejaVuSans-6b" transform="translate(95.410156 0)"/>
      </g>
     </g>
    </g>
    <g id="xtick_6">
     <g id="line2d_6">
      <g>
       <use xlink:href="#m5187fdcd99" x="279.458446" y="288.430125" style="stroke: #000000; stroke-width: 0.8"/>
      </g>
     </g>
     <g id="text_6">
      <!-- 2.5 k -->
      <g transform="translate(267.022508 303.028562) scale(0.1 -0.1)">
       <use xlink:href="#DejaVuSans-32"/>
       <use xlink:href="#DejaVuSans-2e" transform="translate(63.623047 0)"/>
       <use xlink:href="#DejaVuSans-35" transform="translate(95.410156 0)"/>
       <use xlink:href="#DejaVuSans-20" transform="translate(159.033203 0)"/>
       <use xlink:href="#DejaVuSans-6b" transform="translate(190.820312 0)"/>
      </g>
     </g>
    </g>
    <g id="xtick_7">
     <g id="line2d_7">
      <g>
       <use xlink:href="#m5187fdcd99" x="323.00701" y="288.430125" style="stroke: #000000; stroke-width: 0.8"/>
      </g>
     </g>
     <g id="text_7">
      <!-- 3 k -->
      <g transform="translate(315.341385 303.028562) scale(0.1 -0.1)">
       <defs>
        <path id="DejaVuSans-33" d="M 2597 2516 
Q 3050 2419 3304 2112 
Q 3559 1806 3559 1356 
Q 3559 666 3084 287 
Q 2609 -91 1734 -91 
Q 1441 -91 1130 -33 
Q 819 25 488 141 
L 488 750 
Q 750 597 1062 519 
Q 1375 441 1716 441 
Q 2309 441 2620 675 
Q 2931 909 2931 1356 
Q 2931 1769 2642 2001 
Q 2353 2234 1838 2234 
L 1294 2234 
L 1294 2753 
L 1863 2753 
Q 2328 2753 2575 2939 
Q 2822 3125 2822 3475 
Q 2822 3834 2567 4026 
Q 2313 4219 1838 4219 
Q 1578 4219 1281 4162 
Q 984 4106 628 3988 
L 628 4550 
Q 988 4650 1302 4700 
Q 1616 4750 1894 4750 
Q 2613 4750 3031 4423 
Q 3450 4097 3450 3541 
Q 3450 3153 3228 2886 
Q 3006 2619 2597 2516 
z
" transform="scale(0.015625)"/>
       </defs>
       <use xlink:href="#DejaVuSans-33"/>
       <use xlink:href="#DejaVuSans-20" transform="translate(63.623047 0)"/>
       <use xlink:href="#DejaVuSans-6b" transform="translate(95.410156 0)"/>
      </g>
     </g>
    </g>
    <g id="xtick_8">
     <g id="line2d_8">
      <g>
       <use xlink:href="#m5187fdcd99" x="366.555574" y="288.430125" style="stroke: #000000; stroke-width: 0.8"/>
      </g>
     </g>
     <g id="text_8">
      <!-- 3.5 k -->
      <g transform="translate(354.119636 303.028562) scale(0.1 -0.1)">
       <use xlink:href="#DejaVuSans-33"/>
       <use xlink:href="#DejaVuSans-2e" transform="translate(63.623047 0)"/>
       <use xlink:href="#DejaVuSans-35" transform="translate(95.410156 0)"/>
       <use xlink:href="#DejaVuSans-20" transform="translate(159.033203 0)"/>
       <use xlink:href="#DejaVuSans-6b" transform="translate(190.820312 0)"/>
      </g>
     </g>
    </g>
    <g id="xtick_9">
     <g id="line2d_9">
      <g>
       <use xlink:href="#m5187fdcd99" x="410.104138" y="288.430125" style="stroke: #000000; stroke-width: 0.8"/>
      </g>
     </g>
     <g id="text_9">
      <!-- 4 k -->
      <g transform="translate(402.438513 303.028562) scale(0.1 -0.1)">
       <defs>
        <path id="DejaVuSans-34" d="M 2419 4116 
L 825 1625 
L 2419 1625 
L 2419 4116 
z
M 2253 4666 
L 3047 4666 
L 3047 1625 
L 3713 1625 
L 3713 1100 
L 3047 1100 
L 3047 0 
L 2419 0 
L 2419 1100 
L 313 1100 
L 313 1709 
L 2253 4666 
z
" transform="scale(0.015625)"/>
       </defs>
       <use xlink:href="#DejaVuSans-34"/>
       <use xlink:href="#DejaVuSans-20" transform="translate(63.623047 0)"/>
       <use xlink:href="#DejaVuSans-6b" transform="translate(95.410156 0)"/>
      </g>
     </g>
    </g>
    <g id="text_10">
     <!-- Amount of objects in table -->
     <g transform="translate(174.217031 316.706687) scale(0.1 -0.1)">
      <defs>
       <path id="DejaVuSans-41" d="M 2188 4044 
L 1331 1722 
L 3047 1722 
L 2188 4044 
z
M 1831 4666 
L 2547 4666 
L 4325 0 
L 3669 0 
L 3244 1197 
L 1141 1197 
L 716 0 
L 50 0 
L 1831 4666 
z
" transform="scale(0.015625)"/>
       <path id="DejaVuSans-6d" d="M 3328 2828 
Q 3544 3216 3844 3400 
Q 4144 3584 4550 3584 
Q 5097 3584 5394 3201 
Q 5691 2819 5691 2113 
L 5691 0 
L 5113 0 
L 5113 2094 
Q 5113 2597 4934 2840 
Q 4756 3084 4391 3084 
Q 3944 3084 3684 2787 
Q 3425 2491 3425 1978 
L 3425 0 
L 2847 0 
L 2847 2094 
Q 2847 2600 2669 2842 
Q 2491 3084 2119 3084 
Q 1678 3084 1418 2786 
Q 1159 2488 1159 1978 
L 1159 0 
L 581 0 
L 581 3500 
L 1159 3500 
L 1159 2956 
Q 1356 3278 1631 3431 
Q 1906 3584 2284 3584 
Q 2666 3584 2933 3390 
Q 3200 3197 3328 2828 
z
" transform="scale(0.015625)"/>
       <path id="DejaVuSans-6f" d="M 1959 3097 
Q 1497 3097 1228 2736 
Q 959 2375 959 1747 
Q 959 1119 1226 758 
Q 1494 397 1959 397 
Q 2419 397 2687 759 
Q 2956 1122 2956 1747 
Q 2956 2369 2687 2733 
Q 2419 3097 1959 3097 
z
M 1959 3584 
Q 2709 3584 3137 3096 
Q 3566 2609 3566 1747 
Q 3566 888 3137 398 
Q 2709 -91 1959 -91 
Q 1206 -91 779 398 
Q 353 888 353 1747 
Q 353 2609 779 3096 
Q 1206 3584 1959 3584 
z
" transform="scale(0.015625)"/>
       <path id="DejaVuSans-75" d="M 544 1381 
L 544 3500 
L 1119 3500 
L 1119 1403 
Q 1119 906 1312 657 
Q 1506 409 1894 409 
Q 2359 409 2629 706 
Q 2900 1003 2900 1516 
L 2900 3500 
L 3475 3500 
L 3475 0 
L 2900 0 
L 2900 538 
Q 2691 219 2414 64 
Q 2138 -91 1772 -91 
Q 1169 -91 856 284 
Q 544 659 544 1381 
z
M 1991 3584 
L 1991 3584 
z
" transform="scale(0.015625)"/>
       <path id="DejaVuSans-6e" d="M 3513 2113 
L 3513 0 
L 2938 0 
L 2938 2094 
Q 2938 2591 2744 2837 
Q 2550 3084 2163 3084 
Q 1697 3084 1428 2787 
Q 1159 2491 1159 1978 
L 1159 0 
L 581 0 
L 581 3500 
L 1159 3500 
L 1159 2956 
Q 1366 3272 1645 3428 
Q 1925 3584 2291 3584 
Q 2894 3584 3203 3211 
Q 3513 2838 3513 2113 
z
" transform="scale(0.015625)"/>
       <path id="DejaVuSans-74" d="M 1172 4494 
L 1172 3500 
L 2356 3500 
L 2356 3053 
L 1172 3053 
L 1172 1153 
Q 1172 725 1289 603 
Q 1406 481 1766 481 
L 2356 481 
L 2356 0 
L 1766 0 
Q 1100 0 847 248 
Q 594 497 594 1153 
L 594 3053 
L 172 3053 
L 172 3500 
L 594 3500 
L 594 4494 
L 1172 4494 
z
" transform="scale(0.015625)"/>
       <path id="DejaVuSans-66" d="M 2375 4863 
L 2375 4384 
L 1825 4384 
Q 1516 4384 1395 4259 
Q 1275 4134 1275 3809 
L 1275 3500 
L 2222 3500 
L 2222 3053 
L 1275 3053 
L 1275 0 
L 697 0 
L 697 3053 
L 147 3053 
L 147 3500 
L 697 3500 
L 697 3744 
Q 697 4328 969 4595 
Q 1241 4863 1831 4863 
L 2375 4863 
z
" transform="scale(0.015625)"/>
       <path id="DejaVuSans-62" d="M 3116 1747 
Q 3116 2381 2855 2742 
Q 2594 3103 2138 3103 
Q 1681 3103 1420 2742 
Q 1159 2381 1159 1747 
Q 1159 1113 1420 752 
Q 1681 391 2138 391 
Q 2594 391 2855 752 
Q 3116 1113 3116 1747 
z
M 1159 2969 
Q 1341 3281 1617 3432 
Q 1894 3584 2278 3584 
Q 2916 3584 3314 3078 
Q 3713 2572 3713 1747 
Q 3713 922 3314 415 
Q 2916 -91 2278 -91 
Q 1894 -91 1617 61 
Q 1341 213 1159 525 
L 1159 0 
L 581 0 
L 581 4863 
L 1159 4863 
L 1159 2969 
z
" transform="scale(0.015625)"/>
       <path id="DejaVuSans-6a" d="M 603 3500 
L 1178 3500 
L 1178 -63 
Q 1178 -731 923 -1031 
Q 669 -1331 103 -1331 
L -116 -1331 
L -116 -844 
L 38 -844 
Q 366 -844 484 -692 
Q 603 -541 603 -63 
L 603 3500 
z
M 603 4863 
L 1178 4863 
L 1178 4134 
L 603 4134 
L 603 4863 
z
" transform="scale(0.015625)"/>
       <path id="DejaVuSans-65" d="M 3597 1894 
L 3597 1613 
L 953 1613 
Q 991 1019 1311 708 
Q 1631 397 2203 397 
Q 2534 397 2845 478 
Q 3156 559 3463 722 
L 3463 178 
Q 3153 47 2828 -22 
Q 2503 -91 2169 -91 
Q 1331 -91 842 396 
Q 353 884 353 1716 
Q 353 2575 817 3079 
Q 1281 3584 2069 3584 
Q 2775 3584 3186 3129 
Q 3597 2675 3597 1894 
z
M 3022 2063 
Q 3016 2534 2758 2815 
Q 2500 3097 2075 3097 
Q 1594 3097 1305 2825 
Q 1016 2553 972 2059 
L 3022 2063 
z
" transform="scale(0.015625)"/>
       <path id="DejaVuSans-63" d="M 3122 3366 
L 3122 2828 
Q 2878 2963 2633 3030 
Q 2388 3097 2138 3097 
Q 1578 3097 1268 2742 
Q 959 2388 959 1747 
Q 959 1106 1268 751 
Q 1578 397 2138 397 
Q 2388 397 2633 464 
Q 2878 531 3122 666 
L 3122 134 
Q 2881 22 2623 -34 
Q 2366 -91 2075 -91 
Q 1284 -91 818 406 
Q 353 903 353 1747 
Q 353 2603 823 3093 
Q 1294 3584 2113 3584 
Q 2378 3584 2631 3529 
Q 2884 3475 3122 3366 
z
" transform="scale(0.015625)"/>
       <path id="DejaVuSans-73" d="M 2834 3397 
L 2834 2853 
Q 2591 2978 2328 3040 
Q 2066 3103 1784 3103 
Q 1356 3103 1142 2972 
Q 928 2841 928 2578 
Q 928 2378 1081 2264 
Q 1234 2150 1697 2047 
L 1894 2003 
Q 2506 1872 2764 1633 
Q 3022 1394 3022 966 
Q 3022 478 2636 193 
Q 2250 -91 1575 -91 
Q 1294 -91 989 -36 
Q 684 19 347 128 
L 347 722 
Q 666 556 975 473 
Q 1284 391 1588 391 
Q 1994 391 2212 530 
Q 2431 669 2431 922 
Q 2431 1156 2273 1281 
Q 2116 1406 1581 1522 
L 1381 1569 
Q 847 1681 609 1914 
Q 372 2147 372 2553 
Q 372 3047 722 3315 
Q 1072 3584 1716 3584 
Q 2034 3584 2315 3537 
Q 2597 3491 2834 3397 
z
" transform="scale(0.015625)"/>
       <path id="DejaVuSans-69" d="M 603 3500 
L 1178 3500 
L 1178 0 
L 603 0 
L 603 3500 
z
M 603 4863 
L 1178 4863 
L 1178 4134 
L 603 4134 
L 603 4863 
z
" transform="scale(0.015625)"/>
       <path id="DejaVuSans-61" d="M 2194 1759 
Q 1497 1759 1228 1600 
Q 959 1441 959 1056 
Q 959 750 1161 570 
Q 1363 391 1709 391 
Q 2188 391 2477 730 
Q 2766 1069 2766 1631 
L 2766 1759 
L 2194 1759 
z
M 3341 1997 
L 3341 0 
L 2766 0 
L 2766 531 
Q 2569 213 2275 61 
Q 1981 -91 1556 -91 
Q 1019 -91 701 211 
Q 384 513 384 1019 
Q 384 1609 779 1909 
Q 1175 2209 1959 2209 
L 2766 2209 
L 2766 2266 
Q 2766 2663 2505 2880 
Q 2244 3097 1772 3097 
Q 1472 3097 1187 3025 
Q 903 2953 641 2809 
L 641 3341 
Q 956 3463 1253 3523 
Q 1550 3584 1831 3584 
Q 2591 3584 2966 3190 
Q 3341 2797 3341 1997 
z
" transform="scale(0.015625)"/>
       <path id="DejaVuSans-6c" d="M 603 4863 
L 1178 4863 
L 1178 0 
L 603 0 
L 603 4863 
z
" transform="scale(0.015625)"/>
      </defs>
      <use xlink:href="#DejaVuSans-41"/>
      <use xlink:href="#DejaVuSans-6d" transform="translate(68.408203 0)"/>
      <use xlink:href="#DejaVuSans-6f" transform="translate(165.820312 0)"/>
      <use xlink:href="#DejaVuSans-75" transform="translate(227.001953 0)"/>
      <use xlink:href="#DejaVuSans-6e" transform="translate(290.380859 0)"/>
      <use xlink:href="#DejaVuSans-74" transform="translate(353.759766 0)"/>
      <use xlink:href="#DejaVuSans-20" transform="translate(392.96875 0)"/>
      <use xlink:href="#DejaVuSans-6f" transform="translate(424.755859 0)"/>
      <use xlink:href="#DejaVuSans-66" transform="translate(485.9375 0)"/>
      <use xlink:href="#DejaVuSans-20" transform="translate(521.142578 0)"/>
      <use xlink:href="#DejaVuSans-6f" transform="translate(552.929688 0)"/>
      <use xlink:href="#DejaVuSans-62" transform="translate(614.111328 0)"/>
      <use xlink:href="#DejaVuSans-6a" transform="translate(677.587891 0)"/>
      <use xlink:href="#DejaVuSans-65" transform="translate(705.371094 0)"/>
      <use xlink:href="#DejaVuSans-63" transform="translate(766.894531 0)"/>
      <use xlink:href="#DejaVuSans-74" transform="translate(821.875 0)"/>
      <use xlink:href="#DejaVuSans-73" transform="translate(861.083984 0)"/>
      <use xlink:href="#DejaVuSans-20" transform="translate(913.183594 0)"/>
      <use xlink:href="#DejaVuSans-69" transform="translate(944.970703 0)"/>
      <use xlink:href="#DejaVuSans-6e" transform="translate(972.753906 0)"/>
      <use xlink:href="#DejaVuSans-20" transform="translate(1036.132812 0)"/>
      <use xlink:href="#DejaVuSans-74" transform="translate(1067.919922 0)"/>
      <use xlink:href="#DejaVuSans-61" transform="translate(1107.128906 0)"/>
      <use xlink:href="#DejaVuSans-62" transform="translate(1168.408203 0)"/>
      <use xlink:href="#DejaVuSans-6c" transform="translate(1231.884766 0)"/>
      <use xlink:href="#DejaVuSans-65" transform="translate(1259.667969 0)"/>
     </g>
    </g>
   </g>
   <g id="matplotlib.axis_2">
    <g id="ytick_1">
     <g id="line2d_10">
      <defs>
       <path id="m6a1b99d1ce" d="M 0 0 
L -3.5 0 
" style="stroke: #000000; stroke-width: 0.8"/>
      </defs>
      <g>
       <use xlink:href="#m6a1b99d1ce" x="61.715625" y="288.430125" style="stroke: #000000; stroke-width: 0.8"/>
      </g>
     </g>
     <g id="text_11">
      <!-- 0 -->
      <g transform="translate(48.353125 292.229344) scale(0.1 -0.1)">
       <use xlink:href="#DejaVuSans-30"/>
      </g>
     </g>
    </g>
    <g id="ytick_2">
     <g id="line2d_11">
      <g>
       <use xlink:href="#m6a1b99d1ce" x="61.715625" y="258.100299" style="stroke: #000000; stroke-width: 0.8"/>
      </g>
     </g>
     <g id="text_12">
      <!-- 100 µs -->
      <g transform="translate(20.878125 261.899518) scale(0.1 -0.1)">
       <defs>
        <path id="DejaVuSans-b5" d="M 544 -1331 
L 544 3500 
L 1119 3500 
L 1119 1325 
Q 1119 872 1334 640 
Q 1550 409 1972 409 
Q 2434 409 2667 671 
Q 2900 934 2900 1459 
L 2900 3500 
L 3475 3500 
L 3475 806 
Q 3475 619 3529 530 
Q 3584 441 3700 441 
Q 3728 441 3778 458 
Q 3828 475 3916 513 
L 3916 50 
Q 3788 -22 3673 -56 
Q 3559 -91 3450 -91 
Q 3234 -91 3106 31 
Q 2978 153 2931 403 
Q 2775 156 2548 32 
Q 2322 -91 2016 -91 
Q 1697 -91 1473 31 
Q 1250 153 1119 397 
L 1119 -1331 
L 544 -1331 
z
" transform="scale(0.015625)"/>
       </defs>
       <use xlink:href="#DejaVuSans-31"/>
       <use xlink:href="#DejaVuSans-30" transform="translate(63.623047 0)"/>
       <use xlink:href="#DejaVuSans-30" transform="translate(127.246094 0)"/>
       <use xlink:href="#DejaVuSans-20" transform="translate(190.869141 0)"/>
       <use xlink:href="#DejaVuSans-b5" transform="translate(222.65625 0)"/>
       <use xlink:href="#DejaVuSans-73" transform="translate(286.279297 0)"/>
      </g>
     </g>
    </g>
    <g id="ytick_3">
     <g id="line2d_12">
      <g>
       <use xlink:href="#m6a1b99d1ce" x="61.715625" y="227.770473" style="stroke: #000000; stroke-width: 0.8"/>
      </g>
     </g>
     <g id="text_13">
      <!-- 200 µs -->
      <g transform="translate(20.878125 231.569692) scale(0.1 -0.1)">
       <use xlink:href="#DejaVuSans-32"/>
       <use xlink:href="#DejaVuSans-30" transform="translate(63.623047 0)"/>
       <use xlink:href="#DejaVuSans-30" transform="translate(127.246094 0)"/>
       <use xlink:href="#DejaVuSans-20" transform="translate(190.869141 0)"/>
       <use xlink:href="#DejaVuSans-b5" transform="translate(222.65625 0)"/>
       <use xlink:href="#DejaVuSans-73" transform="translate(286.279297 0)"/>
      </g>
     </g>
    </g>
    <g id="ytick_4">
     <g id="line2d_13">
      <g>
       <use xlink:href="#m6a1b99d1ce" x="61.715625" y="197.440647" style="stroke: #000000; stroke-width: 0.8"/>
      </g>
     </g>
     <g id="text_14">
      <!-- 300 µs -->
      <g transform="translate(20.878125 201.239866) scale(0.1 -0.1)">
       <use xlink:href="#DejaVuSans-33"/>
       <use xlink:href="#DejaVuSans-30" transform="translate(63.623047 0)"/>
       <use xlink:href="#DejaVuSans-30" transform="translate(127.246094 0)"/>
       <use xlink:href="#DejaVuSans-20" transform="translate(190.869141 0)"/>
       <use xlink:href="#DejaVuSans-b5" transform="translate(222.65625 0)"/>
       <use xlink:href="#DejaVuSans-73" transform="translate(286.279297 0)"/>
      </g>
     </g>
    </g>
    <g id="ytick_5">
     <g id="line2d_14">
      <g>
       <use xlink:href="#m6a1b99d1ce" x="61.715625" y="167.110821" style="stroke: #000000; stroke-width: 0.8"/>
      </g>
     </g>
     <g id="text_15">
      <!-- 400 µs -->
      <g transform="translate(20.878125 170.91004) scale(0.1 -0.1)">
       <use xlink:href="#DejaVuSans-34"/>
       <use xlink:href="#DejaVuSans-30" transform="translate(63.623047 0)"/>
       <use xlink:href="#DejaVuSans-30" transform="translate(127.246094 0)"/>
       <use xlink:href="#DejaVuSans-20" transform="translate(190.869141 0)"/>
       <use xlink:href="#DejaVuSans-b5" transform="translate(222.65625 0)"/>
       <use xlink:href="#DejaVuSans-73" transform="translate(286.279297 0)"/>
      </g>
     </g>
    </g>
    <g id="ytick_6">
     <g id="line2d_15">
      <g>
       <use xlink:href="#m6a1b99d1ce" x="61.715625" y="136.780995" style="stroke: #000000; stroke-width: 0.8"/>
      </g>
     </g>
     <g id="text_16">
      <!-- 500 µs -->
      <g transform="translate(20.878125 140.580214) scale(0.1 -0.1)">
       <use xlink:href="#DejaVuSans-35"/>
       <use xlink:href="#DejaVuSans-30" transform="translate(63.623047 0)"/>
       <use xlink:href="#DejaVuSans-30" transform="translate(127.246094 0)"/>
       <use xlink:href="#DejaVuSans-20" transform="translate(190.869141 0)"/>
       <use xlink:href="#DejaVuSans-b5" transform="translate(222.65625 0)"/>
       <use xlink:href="#DejaVuSans-73" transform="translate(286.279297 0)"/>
      </g>
     </g>
    </g>
    <g id="ytick_7">
     <g id="line2d_16">
      <g>
       <use xlink:href="#m6a1b99d1ce" x="61.715625" y="106.451169" style="stroke: #000000; stroke-width: 0.8"/>
      </g>
     </g>
     <g id="text_17">
      <!-- 600 µs -->
      <g transform="translate(20.878125 110.250388) scale(0.1 -0.1)">
       <defs>
        <path id="DejaVuSans-36" d="M 2113 2584 
Q 1688 2584 1439 2293 
Q 1191 2003 1191 1497 
Q 1191 994 1439 701 
Q 1688 409 2113 409 
Q 2538 409 2786 701 
Q 3034 994 3034 1497 
Q 3034 2003 2786 2293 
Q 2538 2584 2113 2584 
z
M 3366 4563 
L 3366 3988 
Q 3128 4100 2886 4159 
Q 2644 4219 2406 4219 
Q 1781 4219 1451 3797 
Q 1122 3375 1075 2522 
Q 1259 2794 1537 2939 
Q 1816 3084 2150 3084 
Q 2853 3084 3261 2657 
Q 3669 2231 3669 1497 
Q 3669 778 3244 343 
Q 2819 -91 2113 -91 
Q 1303 -91 875 529 
Q 447 1150 447 2328 
Q 447 3434 972 4092 
Q 1497 4750 2381 4750 
Q 2619 4750 2861 4703 
Q 3103 4656 3366 4563 
z
" transform="scale(0.015625)"/>
       </defs>
       <use xlink:href="#DejaVuSans-36"/>
       <use xlink:href="#DejaVuSans-30" transform="translate(63.623047 0)"/>
       <use xlink:href="#DejaVuSans-30" transform="translate(127.246094 0)"/>
       <use xlink:href="#DejaVuSans-20" transform="translate(190.869141 0)"/>
       <use xlink:href="#DejaVuSans-b5" transform="translate(222.65625 0)"/>
       <use xlink:href="#DejaVuSans-73" transform="translate(286.279297 0)"/>
      </g>
     </g>
    </g>
    <g id="ytick_8">
     <g id="line2d_17">
      <g>
       <use xlink:href="#m6a1b99d1ce" x="61.715625" y="76.121343" style="stroke: #000000; stroke-width: 0.8"/>
      </g>
     </g>
     <g id="text_18">
      <!-- 700 µs -->
      <g transform="translate(20.878125 79.920562) scale(0.1 -0.1)">
       <defs>
        <path id="DejaVuSans-37" d="M 525 4666 
L 3525 4666 
L 3525 4397 
L 1831 0 
L 1172 0 
L 2766 4134 
L 525 4134 
L 525 4666 
z
" transform="scale(0.015625)"/>
       </defs>
       <use xlink:href="#DejaVuSans-37"/>
       <use xlink:href="#DejaVuSans-30" transform="translate(63.623047 0)"/>
       <use xlink:href="#DejaVuSans-30" transform="translate(127.246094 0)"/>
       <use xlink:href="#DejaVuSans-20" transform="translate(190.869141 0)"/>
       <use xlink:href="#DejaVuSans-b5" transform="translate(222.65625 0)"/>
       <use xlink:href="#DejaVuSans-73" transform="translate(286.279297 0)"/>
      </g>
     </g>
    </g>
    <g id="ytick_9">
     <g id="line2d_18">
      <g>
       <use xlink:href="#m6a1b99d1ce" x="61.715625" y="45.791517" style="stroke: #000000; stroke-width: 0.8"/>
      </g>
     </g>
     <g id="text_19">
      <!-- 800 µs -->
      <g transform="translate(20.878125 49.590736) scale(0.1 -0.1)">
       <defs>
        <path id="DejaVuSans-38" d="M 2034 2216 
Q 1584 2216 1326 1975 
Q 1069 1734 1069 1313 
Q 1069 891 1326 650 
Q 1584 409 2034 409 
Q 2484 409 2743 651 
Q 3003 894 3003 1313 
Q 3003 1734 2745 1975 
Q 2488 2216 2034 2216 
z
M 1403 2484 
Q 997 2584 770 2862 
Q 544 3141 544 3541 
Q 544 4100 942 4425 
Q 1341 4750 2034 4750 
Q 2731 4750 3128 4425 
Q 3525 4100 3525 3541 
Q 3525 3141 3298 2862 
Q 3072 2584 2669 2484 
Q 3125 2378 3379 2068 
Q 3634 1759 3634 1313 
Q 3634 634 3220 271 
Q 2806 -91 2034 -91 
Q 1263 -91 848 271 
Q 434 634 434 1313 
Q 434 1759 690 2068 
Q 947 2378 1403 2484 
z
M 1172 3481 
Q 1172 3119 1398 2916 
Q 1625 2713 2034 2713 
Q 2441 2713 2670 2916 
Q 2900 3119 2900 3481 
Q 2900 3844 2670 4047 
Q 2441 4250 2034 4250 
Q 1625 4250 1398 4047 
Q 1172 3844 1172 3481 
z
" transform="scale(0.015625)"/>
       </defs>
       <use xlink:href="#DejaVuSans-38"/>
       <use xlink:href="#DejaVuSans-30" transform="translate(63.623047 0)"/>
       <use xlink:href="#DejaVuSans-30" transform="translate(127.246094 0)"/>
       <use xlink:href="#DejaVuSans-20" transform="translate(190.869141 0)"/>
       <use xlink:href="#DejaVuSans-b5" transform="translate(222.65625 0)"/>
       <use xlink:href="#DejaVuSans-73" transform="translate(286.279297 0)"/>
      </g>
     </g>
    </g>
    <g id="text_20">
     <!-- Read latency (s) -->
     <g transform="translate(14.798438 195.98975) rotate(-90) scale(0.1 -0.1)">
      <defs>
       <path id="DejaVuSans-52" d="M 2841 2188 
Q 3044 2119 3236 1894 
Q 3428 1669 3622 1275 
L 4263 0 
L 3584 0 
L 2988 1197 
Q 2756 1666 2539 1819 
Q 2322 1972 1947 1972 
L 1259 1972 
L 1259 0 
L 628 0 
L 628 4666 
L 2053 4666 
Q 2853 4666 3247 4331 
Q 3641 3997 3641 3322 
Q 3641 2881 3436 2590 
Q 3231 2300 2841 2188 
z
M 1259 4147 
L 1259 2491 
L 2053 2491 
Q 2509 2491 2742 2702 
Q 2975 2913 2975 3322 
Q 2975 3731 2742 3939 
Q 2509 4147 2053 4147 
L 1259 4147 
z
" transform="scale(0.015625)"/>
       <path id="DejaVuSans-64" d="M 2906 2969 
L 2906 4863 
L 3481 4863 
L 3481 0 
L 2906 0 
L 2906 525 
Q 2725 213 2448 61 
Q 2172 -91 1784 -91 
Q 1150 -91 751 415 
Q 353 922 353 1747 
Q 353 2572 751 3078 
Q 1150 3584 1784 3584 
Q 2172 3584 2448 3432 
Q 2725 3281 2906 2969 
z
M 947 1747 
Q 947 1113 1208 752 
Q 1469 391 1925 391 
Q 2381 391 2643 752 
Q 2906 1113 2906 1747 
Q 2906 2381 2643 2742 
Q 2381 3103 1925 3103 
Q 1469 3103 1208 2742 
Q 947 2381 947 1747 
z
" transform="scale(0.015625)"/>
       <path id="DejaVuSans-79" d="M 2059 -325 
Q 1816 -950 1584 -1140 
Q 1353 -1331 966 -1331 
L 506 -1331 
L 506 -850 
L 844 -850 
Q 1081 -850 1212 -737 
Q 1344 -625 1503 -206 
L 1606 56 
L 191 3500 
L 800 3500 
L 1894 763 
L 2988 3500 
L 3597 3500 
L 2059 -325 
z
" transform="scale(0.015625)"/>
       <path id="DejaVuSans-28" d="M 1984 4856 
Q 1566 4138 1362 3434 
Q 1159 2731 1159 2009 
Q 1159 1288 1364 580 
Q 1569 -128 1984 -844 
L 1484 -844 
Q 1016 -109 783 600 
Q 550 1309 550 2009 
Q 550 2706 781 3412 
Q 1013 4119 1484 4856 
L 1984 4856 
z
" transform="scale(0.015625)"/>
       <path id="DejaVuSans-29" d="M 513 4856 
L 1013 4856 
Q 1481 4119 1714 3412 
Q 1947 2706 1947 2009 
Q 1947 1309 1714 600 
Q 1481 -109 1013 -844 
L 513 -844 
Q 928 -128 1133 580 
Q 1338 1288 1338 2009 
Q 1338 2731 1133 3434 
Q 928 4138 513 4856 
z
" transform="scale(0.015625)"/>
      </defs>
      <use xlink:href="#DejaVuSans-52"/>
      <use xlink:href="#DejaVuSans-65" transform="translate(64.982422 0)"/>
      <use xlink:href="#DejaVuSans-61" transform="translate(126.505859 0)"/>
      <use xlink:href="#DejaVuSans-64" transform="translate(187.785156 0)"/>
      <use xlink:href="#DejaVuSans-20" transform="translate(251.261719 0)"/>
      <use xlink:href="#DejaVuSans-6c" transform="translate(283.048828 0)"/>
      <use xlink:href="#DejaVuSans-61" transform="translate(310.832031 0)"/>
      <use xlink:href="#DejaVuSans-74" transform="translate(372.111328 0)"/>
      <use xlink:href="#DejaVuSans-65" transform="translate(411.320312 0)"/>
      <use xlink:href="#DejaVuSans-6e" transform="translate(472.84375 0)"/>
      <use xlink:href="#DejaVuSans-63" transform="translate(536.222656 0)"/>
      <use xlink:href="#DejaVuSans-79" transform="translate(591.203125 0)"/>
      <use xlink:href="#DejaVuSans-20" transform="translate(650.382812 0)"/>
      <use xlink:href="#DejaVuSans-28" transform="translate(682.169922 0)"/>
      <use xlink:href="#DejaVuSans-73" transform="translate(721.183594 0)"/>
      <use xlink:href="#DejaVuSans-29" transform="translate(773.283203 0)"/>
     </g>
    </g>
   </g>
   <g id="line2d_19">
    <path d="M 147.070811 164.906498 
L 147.506296 166.163243 
L 147.941782 166.543344 
L 148.377268 167.679568 
L 148.812753 168.272155 
L 149.248239 168.465729 
L 149.683725 169.394288 
L 150.11921 170.637312 
L 150.554696 171.181691 
L 150.990181 169.677232 
L 151.861153 171.352644 
L 152.732124 172.085034 
L 153.16761 172.768846 
L 154.038581 173.703709 
L 154.474067 173.08331 
L 154.909552 173.425216 
L 155.780523 173.558344 
L 157.08698 173.291346 
L 157.522466 172.901974 
L 157.957952 172.809266 
L 158.393437 172.586397 
L 158.828923 171.240653 
L 159.264409 171.500605 
L 159.699894 171.564017 
L 160.13538 171.383423 
L 160.570866 171.442014 
L 161.006351 171.260307 
L 161.441837 171.343373 
L 163.183779 170.763024 
L 164.054751 170.273157 
L 164.490236 170.10925 
L 165.361208 169.97538 
L 166.232179 169.575995 
L 166.667665 169.642374 
L 167.10315 169.112086 
L 167.538636 169.199973 
L 168.409607 169.016041 
L 168.845093 169.043854 
L 169.280578 169.225561 
L 169.716064 169.152507 
L 170.15155 169.240023 
L 170.587035 169.454734 
L 171.022521 169.400963 
L 171.458007 169.161778 
L 171.893492 168.714927 
L 172.328978 168.867709 
L 172.764463 168.853988 
L 173.199949 168.980442 
L 175.377377 168.790206 
L 175.812863 168.542491 
L 176.248349 168.639648 
L 176.683834 168.465358 
L 177.554806 168.717523 
L 178.861262 168.441254 
L 179.732234 168.075615 
L 180.167719 168.035195 
L 180.603205 169.051641 
L 181.038691 169.195894 
L 182.345148 169.146944 
L 183.216119 169.666107 
L 183.651605 169.36388 
L 184.08709 169.35461 
L 185.393547 168.800589 
L 186.700004 168.222093 
L 187.13549 168.143848 
L 187.570975 167.885379 
L 188.877432 167.846071 
L 189.312918 167.507874 
L 190.183889 167.137785 
L 190.619375 167.310963 
L 191.490346 166.912691 
L 191.925832 166.901195 
L 192.361317 166.658672 
L 193.667774 166.857066 
L 194.538746 166.516644 
L 194.974231 166.484753 
L 195.409717 166.308237 
L 196.716174 166.103168 
L 197.151659 165.770904 
L 197.587145 165.731225 
L 198.022631 165.303658 
L 198.458116 165.439752 
L 199.329088 165.326649 
L 200.200059 165.298095 
L 201.07103 164.846053 
L 201.506516 164.747412 
L 201.942001 164.841974 
L 202.812973 164.571638 
L 204.11943 164.698091 
L 204.554915 164.648771 
L 204.990401 164.757424 
L 206.732343 164.568301 
L 207.167829 164.265332 
L 208.0388 163.880039 
L 209.345257 163.109454 
L 209.780743 163.199566 
L 210.216229 164.131833 
L 211.522686 164.452231 
L 211.958171 164.150375 
L 212.393657 164.079546 
L 212.829142 164.141846 
L 214.571085 163.50513 
L 215.006571 163.623054 
L 215.442056 163.571509 
L 215.877542 163.329356 
L 216.313028 163.417243 
L 216.748513 163.265203 
L 217.183999 163.26409 
L 217.619485 163.10315 
L 218.490456 163.098329 
L 218.925941 162.99153 
L 219.361427 163.020084 
L 221.538855 162.173848 
L 221.974341 163.358281 
L 222.845312 163.614525 
L 225.893712 163.581521 
L 227.200169 163.905256 
L 228.942111 163.435785 
L 229.377597 163.495859 
L 229.813082 163.346414 
L 230.248568 163.499938 
L 230.684054 163.504017 
L 231.119539 163.352348 
L 231.555025 163.964218 
L 232.425996 163.601546 
L 232.861482 163.778061 
L 233.732453 163.340852 
L 234.167939 163.512546 
L 234.603425 163.329727 
L 235.474396 163.430964 
L 235.909881 165.687096 
L 236.780853 165.301433 
L 237.216338 165.404523 
L 238.08731 165.338516 
L 238.522795 165.473869 
L 238.958281 165.48796 
L 239.393767 166.785496 
L 240.700224 166.733951 
L 241.135709 166.836671 
L 242.00668 166.480673 
L 242.877652 166.465469 
L 243.313137 166.558548 
L 243.748623 168.05077 
L 244.184109 167.717022 
L 244.619594 167.776355 
L 245.05508 167.574994 
L 245.926051 167.496749 
L 246.361537 167.366587 
L 246.797022 167.432224 
L 247.232508 167.155214 
L 247.667994 167.107748 
L 248.103479 166.703543 
L 248.974451 166.917141 
L 249.845422 166.855583 
L 250.280908 166.633826 
L 251.151879 166.74693 
L 251.587365 166.428757 
L 252.02285 167.002432 
L 252.458336 166.93457 
L 252.893821 167.098106 
L 253.764793 166.773259 
L 254.635764 167.024311 
L 255.942221 166.393157 
L 256.813192 166.848166 
L 258.119649 166.05941 
L 258.99062 166.073131 
L 259.426106 166.063489 
L 260.297077 165.753104 
L 260.732563 165.894761 
L 261.168049 165.649272 
L 261.603534 165.713796 
L 262.03902 165.602176 
L 262.474506 165.196488 
L 264.216448 164.86274 
L 265.087419 164.837524 
L 265.958391 164.665088 
L 266.829362 164.161129 
L 267.700333 164.063971 
L 268.135819 163.932327 
L 268.571305 163.990918 
L 269.877761 163.621571 
L 271.184218 163.900806 
L 271.619704 162.224281 
L 274.668104 163.106487 
L 275.103589 163.419097 
L 275.539075 162.948884 
L 275.97456 163.093508 
L 276.845532 160.703135 
L 277.716503 160.671614 
L 278.151989 160.460612 
L 278.587474 160.424641 
L 279.02296 160.550724 
L 279.893931 160.382737 
L 280.329417 160.584098 
L 280.764902 160.257026 
L 281.200388 160.157643 
L 281.635874 160.278905 
L 282.071359 160.654556 
L 282.942331 160.817351 
L 284.248788 160.725756 
L 284.684273 160.691639 
L 285.119759 160.530328 
L 285.555245 160.612652 
L 286.426216 160.411291 
L 286.861701 160.099423 
L 287.297187 160.247755 
L 287.732673 160.085702 
L 288.168158 160.082365 
L 288.603644 159.914008 
L 289.474615 159.945528 
L 289.910101 159.795713 
L 290.345587 159.988174 
L 290.781072 159.931437 
L 291.652044 159.53094 
L 292.087529 159.567281 
L 292.523015 159.824267 
L 292.9585 159.737122 
L 293.829472 160.172847 
L 294.264957 160.268151 
L 294.700443 160.188051 
L 295.135929 160.279276 
L 296.442386 159.818704 
L 296.877871 159.418578 
L 297.313357 159.270246 
L 297.748842 159.286192 
L 299.490785 160.090894 
L 300.361756 160.072352 
L 301.232728 160.200289 
L 301.668213 160.084961 
L 302.103699 160.190276 
L 302.539185 159.971857 
L 303.845641 159.896208 
L 305.152098 160.356408 
L 305.587584 160.267409 
L 306.02307 160.500291 
L 306.458555 160.547757 
L 306.894041 161.010924 
L 307.329527 160.987191 
L 307.765012 160.801776 
L 309.071469 160.693493 
L 309.94244 160.937129 
L 310.377926 160.919329 
L 310.813412 161.07619 
L 312.555354 160.440216 
L 312.99084 160.537374 
L 313.426326 160.501403 
L 313.861811 160.322292 
L 314.297297 160.392008 
L 315.168268 160.351217 
L 315.603754 159.442311 
L 316.039239 159.526861 
L 316.474725 160.099052 
L 317.345696 160.231439 
L 318.216668 160.09831 
L 319.087639 160.54924 
L 319.95861 160.765064 
L 320.394096 160.545532 
L 321.265067 160.639352 
L 321.700553 160.400537 
L 322.136038 160.425383 
L 322.571524 160.621923 
L 323.00701 160.31228 
L 323.442495 160.344913 
L 323.877981 160.193985 
L 325.184438 160.19176 
L 325.619924 160.380883 
L 326.055409 160.232551 
L 326.490895 160.462466 
L 326.92638 160.3616 
L 327.361866 160.726868 
L 328.232837 160.949366 
L 328.668323 161.040961 
L 329.103809 160.103131 
L 329.539294 160.15171 
L 329.97478 160.32155 
L 330.410266 160.305605 
L 331.281237 160.660119 
L 331.716722 160.51327 
L 333.023179 161.502275 
L 333.458665 161.399184 
L 335.636093 161.949867 
L 336.071579 161.901288 
L 336.507065 162.258398 
L 336.94255 162.25506 
L 337.378036 162.074095 
L 339.555464 162.491279 
L 340.426435 162.568041 
L 340.861921 162.399313 
L 341.297407 162.10302 
L 342.168378 162.569525 
L 343.039349 162.716744 
L 343.474835 162.568412 
L 343.91032 162.631824 
L 344.345806 162.469771 
L 345.652263 162.384851 
L 346.087749 162.634791 
L 346.95872 162.867672 
L 347.394206 163.225153 
L 347.829691 163.332323 
L 348.265177 163.25964 
L 348.700662 163.343077 
L 349.136148 163.276698 
L 349.571634 163.357539 
L 350.007119 163.04975 
L 350.442605 163.070517 
L 350.878091 162.751602 
L 351.749062 163.20142 
L 352.620033 163.293386 
L 353.055519 163.220332 
L 353.92649 163.646416 
L 354.797461 164.194133 
L 356.103918 164.213416 
L 356.539404 166.066827 
L 357.410375 166.093156 
L 357.845861 166.177334 
L 358.281347 165.717504 
L 359.152318 165.533202 
L 360.023289 165.578072 
L 360.458775 165.85842 
L 360.89426 165.918124 
L 361.765232 168.222464 
L 362.200717 167.913192 
L 362.636203 167.893908 
L 363.071689 168.035195 
L 363.94266 168.065974 
L 364.813631 168.226543 
L 365.249117 167.933587 
L 365.684603 168.178706 
L 366.120088 168.075244 
L 366.991059 168.090819 
L 367.426545 167.939521 
L 367.862031 168.102315 
L 368.733002 168.049657 
L 369.168488 168.229881 
L 369.603973 168.041128 
L 370.039459 167.994403 
L 370.474945 166.943841 
L 370.91043 167.07734 
L 371.345916 166.128755 
L 371.781401 166.402428 
L 372.652373 166.458794 
L 373.95883 166.903791 
L 374.394315 166.152859 
L 374.829801 166.112068 
L 375.265287 165.957803 
L 376.571744 166.275975 
L 377.007229 166.464728 
L 377.442715 166.255579 
L 377.8782 166.451007 
L 378.313686 166.470661 
L 378.749172 166.301562 
L 379.184657 165.796862 
L 380.491114 165.789075 
L 381.362086 165.656317 
L 381.797571 166.294887 
L 382.668543 166.508115 
L 383.104028 166.343095 
L 383.539514 166.347175 
L 383.974999 166.176592 
L 385.281456 166.210709 
L 385.716942 166.382033 
L 386.152428 165.851374 
L 386.587913 166.112068 
L 387.023399 166.151747 
L 387.458885 166.494023 
L 387.89437 166.594148 
L 388.329856 166.138397 
L 388.765341 164.641725 
L 390.071798 164.546793 
L 391.378255 164.597596 
L 391.813741 164.502664 
L 392.249227 164.226395 
L 392.684712 164.421823 
L 393.120198 164.251241 
L 394.426655 164.337273 
L 396.604083 164.19747 
L 397.039569 163.149503 
L 397.475054 163.426885 
L 397.91054 163.509951 
L 398.346026 163.359764 
L 398.781511 163.570767 
L 399.216997 163.350494 
L 399.652483 163.56335 
L 400.087968 163.546292 
L 400.523454 164.483751 
L 401.829911 164.673246 
L 401.829911 164.673246 
" clip-path="url(#pd7f1abcfb6)" style="fill: none; stroke: #1f77b4; stroke-opacity: 0.8; stroke-width: 1.5; stroke-linecap: square"/>
   </g>
   <g id="line2d_20">
    <path d="M 147.070811 179.996331 
L 148.377268 180.154305 
L 148.812753 180.148372 
L 150.11921 180.861479 
L 151.861153 182.769402 
L 153.16761 185.03703 
L 153.603095 185.727516 
L 154.038581 186.198842 
L 154.474067 187.125547 
L 155.780523 189.103186 
L 156.651495 190.836818 
L 158.393437 192.526322 
L 158.828923 192.885657 
L 160.13538 195.717689 
L 161.006351 197.188032 
L 161.441837 197.793227 
L 162.312808 198.141437 
L 164.054751 198.597929 
L 164.490236 198.615358 
L 164.925722 198.990638 
L 165.361208 199.121171 
L 166.232179 199.030688 
L 167.10315 199.000651 
L 167.974121 199.026609 
L 168.409607 199.155287 
L 168.845093 199.082975 
L 169.280578 199.199045 
L 170.15155 199.160479 
L 172.328978 199.292865 
L 172.764463 199.273582 
L 173.199949 198.589029 
L 173.635435 198.877164 
L 174.07092 198.912022 
L 174.506406 199.097438 
L 174.941892 198.968759 
L 175.377377 199.267278 
L 176.248349 199.200528 
L 177.990291 198.806706 
L 178.425777 199.118575 
L 178.861262 199.169008 
L 179.296748 199.003247 
L 179.732234 199.162704 
L 180.603205 199.642929 
L 181.038691 199.684091 
L 182.780633 199.355536 
L 185.393547 199.410789 
L 185.829033 199.632917 
L 186.264518 199.71487 
L 186.700004 199.911781 
L 187.13549 199.778653 
L 188.877432 199.79497 
L 189.312918 199.594721 
L 189.748403 199.226487 
L 191.05486 199.105596 
L 191.490346 199.285078 
L 192.796803 199.308069 
L 193.232289 199.194966 
L 193.667774 199.252816 
L 194.974231 198.977659 
L 195.409717 199.073334 
L 197.151659 198.739215 
L 197.587145 198.947622 
L 199.329088 199.196078 
L 199.764573 199.519072 
L 201.07103 199.694845 
L 201.506516 199.906219 
L 201.942001 199.967777 
L 202.377487 199.876923 
L 202.812973 200.064563 
L 203.248458 200.045651 
L 203.683944 200.169879 
L 204.11943 200.054922 
L 205.861372 200.667905 
L 206.296858 200.716113 
L 207.603315 202.006232 
L 208.0388 202.21983 
L 208.474286 202.240967 
L 209.345257 202.710068 
L 210.651714 202.413033 
L 211.0872 202.425641 
L 211.522686 202.703393 
L 212.393657 202.909946 
L 212.829142 202.926633 
L 213.264628 203.099811 
L 213.700114 203.096102 
L 214.135599 203.212543 
L 214.571085 203.118723 
L 215.006571 203.176202 
L 215.442056 203.049378 
L 215.877542 203.043445 
L 216.313028 203.253335 
L 218.05497 203.106857 
L 218.490456 202.826509 
L 221.974341 202.757534 
L 222.409827 202.948883 
L 223.716283 202.886954 
L 224.151769 202.193501 
L 224.587255 202.034415 
L 225.02274 202.026998 
L 225.458226 202.324033 
L 225.893712 202.449374 
L 226.764683 202.401166 
L 227.635654 202.638127 
L 230.248568 202.413033 
L 230.684054 202.42082 
L 231.119539 202.184601 
L 234.167939 201.850854 
L 234.603425 202.002523 
L 235.03891 201.922424 
L 235.474396 202.163835 
L 235.909881 202.008457 
L 238.958281 202.615135 
L 239.393767 202.436395 
L 239.829252 202.634789 
L 240.700224 202.303638 
L 241.135709 202.315504 
L 242.00668 202.209447 
L 242.442166 202.20203 
L 242.877652 202.024773 
L 243.748623 201.98324 
L 245.490566 202.019211 
L 245.926051 202.461612 
L 246.361537 202.331821 
L 247.232508 202.438991 
L 248.103479 202.550611 
L 248.538965 202.757534 
L 248.974451 202.765693 
L 249.409936 202.528732 
L 250.716393 202.500178 
L 251.151879 202.607719 
L 251.587365 202.382625 
L 252.458336 202.200176 
L 253.329307 201.92057 
L 254.200278 202.006973 
L 255.07125 201.861979 
L 255.506735 201.874587 
L 255.942221 202.018469 
L 256.377707 202.001411 
L 256.813192 202.16161 
L 257.248678 202.143439 
L 257.684164 201.981386 
L 258.119649 202.539486 
L 258.555135 202.548386 
L 258.99062 202.429349 
L 260.732563 202.843567 
L 263.345477 202.970391 
L 265.087419 202.721193 
L 265.522905 202.556915 
L 266.393876 202.542082 
L 266.829362 202.641835 
L 267.700333 202.383737 
L 268.135819 202.234292 
L 269.00679 201.709197 
L 271.619704 200.908203 
L 272.05519 201.04541 
L 273.797132 200.688671 
L 274.232618 200.800291 
L 275.103589 201.307216 
L 275.539075 201.477427 
L 276.410046 201.401778 
L 277.281017 201.191888 
L 278.151989 201.55456 
L 278.587474 201.3087 
L 280.764902 201.452953 
L 282.071359 201.83565 
L 282.942331 201.771125 
L 283.377816 201.950607 
L 287.297187 201.494486 
L 287.732673 201.047264 
L 288.168158 201.086572 
L 288.603644 200.891515 
L 289.03913 201.218217 
L 289.910101 201.095472 
L 292.523015 201.066176 
L 292.9585 200.829216 
L 294.700443 201.055793 
L 295.135929 201.224521 
L 298.619814 201.047264 
L 299.055299 199.829828 
L 299.490785 199.845032 
L 299.926271 199.717095 
L 300.361756 199.879148 
L 301.232728 199.918456 
L 302.103699 200.06308 
L 302.539185 200.044909 
L 302.97467 200.180263 
L 303.410156 200.525506 
L 304.281127 200.465802 
L 304.716613 200.618955 
L 305.152098 200.169138 
L 305.587584 200.170992 
L 306.02307 200.047134 
L 307.329527 199.987802 
L 307.765012 199.770866 
L 308.635984 199.597688 
L 309.071469 200.178408 
L 309.506955 200.225504 
L 309.94244 200.083476 
L 310.377926 200.086813 
L 310.813412 199.457514 
L 313.426326 199.537984 
L 314.297297 199.873215 
L 315.168268 200.015985 
L 316.039239 200.35307 
L 316.474725 200.549239 
L 316.910211 199.838357 
L 317.345696 199.682608 
L 317.781182 199.648492 
L 318.216668 199.115237 
L 319.087639 199.324757 
L 320.394096 199.062209 
L 320.829581 197.979384 
L 321.265067 197.97308 
L 322.136038 197.520296 
L 323.877981 196.984816 
L 324.313467 197.01782 
L 324.748952 196.878388 
L 329.97478 197.127957 
L 333.023179 196.91065 
L 333.458665 196.770847 
L 333.894151 196.804593 
L 334.329636 196.994458 
L 334.765122 196.65144 
L 335.636093 196.311388 
L 336.071579 195.076523 
L 336.507065 194.328558 
L 338.684493 194.851058 
L 339.99095 194.878129 
L 340.426435 194.19098 
L 340.861921 194.176147 
L 341.297407 194.283687 
L 342.603864 194.216567 
L 343.039349 194.19988 
L 343.474835 194.04821 
L 346.087749 193.931769 
L 346.523234 194.044873 
L 347.394206 193.760075 
L 347.829691 193.88319 
L 349.571634 193.871695 
L 350.007119 193.997035 
L 350.442605 193.953648 
L 351.313576 194.178372 
L 351.749062 194.238817 
L 352.620033 194.600377 
L 353.055519 194.421636 
L 353.491005 194.706063 
L 355.668433 195.076894 
L 356.103918 195.191109 
L 356.539404 195.160701 
L 356.97489 194.987524 
L 357.845861 194.960824 
L 358.281347 194.993828 
L 359.587804 195.427328 
L 360.458775 195.380604 
L 360.89426 195.423249 
L 361.329746 195.346858 
L 361.765232 195.402483 
L 362.200717 195.344633 
L 363.071689 195.076894 
L 363.507174 195.255634 
L 363.94266 195.185176 
L 364.378146 195.319417 
L 365.684603 195.327946 
L 366.120088 195.117685 
L 366.555574 195.05279 
L 366.991059 194.75798 
L 367.426545 194.792467 
L 368.297516 194.669351 
L 368.733002 193.989248 
L 370.039459 194.077135 
L 370.474945 194.254021 
L 370.91043 193.89654 
L 371.345916 194.040793 
L 372.216887 194.065268 
L 372.652373 194.422378 
L 373.523344 194.675284 
L 374.394315 194.55291 
L 374.829801 194.628931 
L 375.265287 194.447594 
L 375.700772 194.061189 
L 376.136258 194.036714 
L 377.007229 192.115442 
L 377.442715 191.967851 
L 377.8782 190.778969 
L 379.620143 189.874884 
L 380.055629 189.792189 
L 380.491114 189.897134 
L 380.9266 188.331488 
L 381.362086 188.111956 
L 382.233057 187.321716 
L 382.668543 186.55966 
L 384.410485 186.281537 
L 384.845971 186.031597 
L 385.716942 185.91664 
L 386.152428 185.777578 
L 386.587913 185.795378 
L 388.765341 185.179058 
L 389.200827 185.293274 
L 389.636313 185.206128 
L 390.071798 185.654463 
L 391.378255 185.619604 
L 392.249227 185.34519 
L 393.120198 185.440864 
L 393.555684 185.317378 
L 394.426655 184.828252 
L 394.86214 184.821206 
L 395.297626 184.670649 
L 395.733112 185.170158 
L 396.604083 184.847906 
L 397.039569 184.856435 
L 397.91054 184.712924 
L 399.652483 184.353218 
L 400.087968 184.351364 
L 401.394425 183.959767 
L 401.829911 184.717003 
L 401.829911 184.717003 
" clip-path="url(#pd7f1abcfb6)" style="fill: none; stroke: #ff7f0e; stroke-opacity: 0.8; stroke-width: 1.5; stroke-linecap: square"/>
   </g>
   <g id="line2d_21">
    <path d="M 147.070811 50.981818 
L 147.506296 50.34881 
L 147.941782 50.071429 
L 149.248239 47.994778 
L 149.683725 48.158686 
L 150.11921 48.514312 
L 151.425667 48.312209 
L 151.861153 48.06672 
L 152.732124 47.990699 
L 153.16761 47.081794 
L 153.603095 46.864116 
L 154.038581 46.824438 
L 155.345038 46.251504 
L 156.216009 46.875983 
L 156.651495 46.547798 
L 157.08698 46.569306 
L 157.522466 44.832336 
L 157.957952 45.849153 
L 158.393437 47.479695 
L 158.828923 47.347679 
L 159.264409 48.478341 
L 159.699894 48.161652 
L 160.13538 48.210231 
L 161.006351 47.158185 
L 161.877322 47.11146 
L 162.312808 47.472278 
L 163.183779 47.355838 
L 163.619265 47.237172 
L 164.054751 46.500703 
L 164.490236 46.66498 
L 164.925722 46.123939 
L 165.361208 46.270417 
L 165.796693 46.954228 
L 166.232179 47.253859 
L 167.10315 46.738776 
L 167.974121 45.703046 
L 168.409607 45.393403 
L 168.845093 44.295745 
L 169.280578 43.799944 
L 169.716064 41.943567 
L 170.15155 41.889055 
L 170.587035 42.580283 
L 171.022521 42.066683 
L 171.893492 41.850118 
L 172.764463 41.874222 
L 173.199949 42.216127 
L 173.635435 41.933555 
L 174.07092 40.928233 
L 174.941892 40.995724 
L 175.812863 40.620073 
L 176.248349 40.379033 
L 176.683834 40.733918 
L 177.11932 40.250726 
L 177.554806 40.663089 
L 177.990291 40.662719 
L 178.861262 41.378051 
L 179.296748 41.877188 
L 179.732234 41.737014 
L 180.167719 41.728114 
L 180.603205 41.045045 
L 181.038691 40.969395 
L 181.474176 41.362476 
L 181.909662 41.551228 
L 182.345148 41.606853 
L 182.780633 41.549374 
L 183.216119 41.612786 
L 183.651605 42.458651 
L 184.08709 42.428242 
L 184.522576 43.097221 
L 184.958061 42.708961 
L 185.393547 42.783869 
L 186.700004 41.135157 
L 187.13549 41.805618 
L 187.570975 41.848264 
L 188.006461 42.683745 
L 188.441947 43.261869 
L 188.877432 43.269657 
L 189.312918 43.125033 
L 189.748403 42.52985 
L 190.183889 43.061992 
L 190.619375 43.332327 
L 191.05486 44.363607 
L 191.490346 45.056318 
L 191.925832 45.390807 
L 192.361317 45.005885 
L 192.796803 44.817874 
L 193.232289 44.967319 
L 193.667774 44.97696 
L 194.10326 45.804654 
L 194.974231 46.077214 
L 195.409717 46.792175 
L 195.845202 46.725426 
L 196.280688 47.493045 
L 196.716174 47.102931 
L 197.151659 47.344713 
L 197.587145 48.152381 
L 198.022631 49.202202 
L 199.329088 49.582675 
L 200.200059 50.800111 
L 200.635545 50.381814 
L 201.07103 50.267598 
L 201.506516 50.306165 
L 201.942001 50.071429 
L 202.377487 50.341764 
L 202.812973 50.480084 
L 203.248458 51.109754 
L 203.683944 51.123475 
L 204.11943 50.836823 
L 204.554915 50.218649 
L 204.990401 50.297265 
L 205.425887 50.820877 
L 205.861372 50.847206 
L 206.296858 50.560925 
L 206.732343 50.866119 
L 207.603315 51.010372 
L 208.0388 50.756353 
L 208.474286 50.731507 
L 208.909772 50.26389 
L 209.345257 50.301344 
L 209.780743 50.0362 
L 210.216229 50.245349 
L 210.651714 51.012597 
L 211.522686 51.83102 
L 211.958171 51.375269 
L 212.829142 51.707533 
L 213.700114 50.640283 
L 214.135599 50.599862 
L 214.571085 50.809753 
L 215.442056 49.950909 
L 215.877542 50.285398 
L 216.313028 50.787874 
L 216.748513 50.753757 
L 217.183999 51.342636 
L 217.619485 51.223599 
L 218.05497 51.565876 
L 218.925941 51.282561 
L 219.361427 50.498997 
L 220.232398 50.390343 
L 220.667884 50.397018 
L 221.538855 49.770315 
L 221.974341 50.130391 
L 222.409827 50.181937 
L 222.845312 49.831131 
L 223.280798 49.774023 
L 223.716283 49.294168 
L 224.587255 50.19232 
L 225.02274 50.240528 
L 225.893712 49.672415 
L 226.764683 48.61184 
L 227.200169 48.865118 
L 228.07114 47.856088 
L 228.506626 48.392309 
L 228.942111 49.35721 
L 229.377597 49.370189 
L 229.813082 48.475375 
L 230.248568 48.71011 
L 231.990511 48.827664 
L 232.425996 48.329638 
L 232.861482 46.317512 
L 233.296968 46.464361 
L 233.732453 46.817763 
L 234.167939 46.64681 
L 235.03891 47.448174 
L 235.474396 47.290571 
L 235.909881 46.542606 
L 236.345367 46.274867 
L 236.780853 46.639764 
L 237.216338 46.612693 
L 237.651824 46.363866 
L 238.08731 47.288346 
L 238.522795 47.033957 
L 238.958281 46.943103 
L 240.264738 47.479324 
L 240.700224 46.918999 
L 241.135709 46.843721 
L 241.571195 47.000582 
L 242.00668 46.786613 
L 242.442166 48.467587 
L 242.877652 48.284026 
L 243.313137 48.699727 
L 243.748623 48.727169 
L 245.490566 49.389843 
L 245.926051 49.686507 
L 246.361537 49.765123 
L 247.232508 48.498737 
L 248.103479 48.494658 
L 248.538965 48.217648 
L 248.974451 48.786131 
L 249.409936 49.060545 
L 249.845422 49.067962 
L 250.280908 48.194285 
L 251.587365 46.958307 
L 252.02285 47.211955 
L 252.458336 47.173389 
L 252.893821 46.969803 
L 253.329307 46.324558 
L 253.764793 46.667576 
L 254.200278 47.152622 
L 254.635764 48.244718 
L 255.07125 47.64249 
L 256.377707 47.498978 
L 256.813192 47.002436 
L 257.248678 46.308242 
L 257.684164 46.296375 
L 258.119649 45.961515 
L 258.555135 46.284879 
L 258.99062 47.309484 
L 259.426106 47.275738 
L 259.861592 46.691309 
L 260.732563 46.98167 
L 261.168049 47.537915 
L 262.474506 47.080311 
L 262.909991 47.547557 
L 263.780962 47.701452 
L 264.651934 48.648553 
L 265.087419 48.645957 
L 265.522905 49.289348 
L 265.958391 48.747193 
L 266.393876 48.790581 
L 266.829362 48.693794 
L 267.264848 48.314805 
L 267.700333 45.724925 
L 268.135819 45.510214 
L 269.877761 44.213791 
L 270.313247 44.36509 
L 271.184218 45.327766 
L 271.619704 45.936669 
L 272.05519 45.645567 
L 272.490675 45.895136 
L 273.361647 45.915532 
L 273.797132 46.588219 
L 274.232618 44.929865 
L 274.668104 45.595135 
L 275.103589 45.688955 
L 275.539075 45.48166 
L 275.97456 43.493638 
L 276.410046 43.51218 
L 276.845532 43.171016 
L 277.281017 43.6149 
L 277.716503 43.80699 
L 278.151989 43.688324 
L 278.587474 43.212178 
L 279.458446 43.281894 
L 279.893931 40.986083 
L 280.329417 40.987937 
L 280.764902 40.202518 
L 281.200388 40.025632 
L 282.071359 40.022665 
L 282.506845 39.601031 
L 282.942331 39.561723 
L 283.377816 38.449232 
L 283.813302 38.452569 
L 284.248788 38.012764 
L 284.684273 37.987177 
L 285.119759 38.459986 
L 285.555245 38.669876 
L 286.426216 39.477544 
L 287.297187 39.798684 
L 287.732673 39.873962 
L 288.168158 38.02426 
L 288.603644 37.651946 
L 289.03913 37.440573 
L 289.474615 37.51956 
L 289.910101 37.926361 
L 290.345587 37.424627 
L 290.781072 37.902998 
L 291.216558 37.605221 
L 291.652044 37.791007 
L 292.523015 36.612879 
L 292.9585 36.955897 
L 293.393986 37.477285 
L 293.829472 35.934259 
L 294.264957 36.642175 
L 294.700443 37.061213 
L 295.135929 36.618071 
L 295.571414 36.531296 
L 296.442386 35.451067 
L 296.877871 35.687657 
L 297.313357 34.990125 
L 298.184328 36.365535 
L 298.619814 36.53278 
L 299.055299 37.080125 
L 299.490785 37.15355 
L 299.926271 37.059359 
L 300.361756 37.631921 
L 300.797242 37.402377 
L 301.232728 36.386302 
L 301.668213 36.624375 
L 302.103699 36.276536 
L 302.539185 36.751941 
L 303.845641 37.143537 
L 304.281127 38.000898 
L 304.716613 38.607205 
L 305.152098 38.834895 
L 305.587584 38.516723 
L 306.458555 39.375566 
L 307.765012 39.210546 
L 308.635984 39.388545 
L 309.071469 38.817095 
L 309.506955 38.85492 
L 310.377926 39.232425 
L 310.813412 38.989161 
L 311.248897 39.110051 
L 311.684383 39.52019 
L 312.119869 39.055539 
L 312.555354 39.104489 
L 312.99084 39.347383 
L 313.426326 39.449361 
L 314.297297 39.468644 
L 314.732782 40.384225 
L 315.168268 40.4354 
L 316.039239 40.396091 
L 316.474725 40.605982 
L 316.910211 40.637873 
L 317.345696 41.125144 
L 317.781182 43.047529 
L 318.652153 41.950984 
L 319.087639 42.523175 
L 319.523125 42.012541 
L 319.95861 41.929475 
L 320.394096 42.180157 
L 320.829581 42.296598 
L 321.265067 42.584362 
L 321.700553 42.317364 
L 322.136038 41.62354 
L 322.571524 41.738498 
L 323.00701 41.719585 
L 323.442495 41.972492 
L 323.877981 42.058895 
L 324.313467 41.952467 
L 325.184438 40.942325 
L 325.619924 39.374824 
L 326.490895 39.118581 
L 326.92638 39.331437 
L 327.361866 39.13601 
L 328.232837 38.321295 
L 328.668323 38.276054 
L 329.103809 38.347624 
L 330.845751 37.663071 
L 331.281237 36.986676 
L 331.716722 36.881731 
L 332.152208 37.359361 
L 332.587694 37.226604 
L 333.023179 36.804969 
L 333.458665 37.146504 
L 333.894151 37.195825 
L 334.329636 36.968135 
L 334.765122 37.574442 
L 335.200608 38.56011 
L 335.636093 38.521173 
L 336.071579 39.041819 
L 336.507065 39.785705 
L 336.94255 39.807954 
L 337.378036 39.641451 
L 337.813521 40.314138 
L 338.684493 41.121436 
L 339.119978 41.099186 
L 339.555464 41.759635 
L 339.99095 42.162728 
L 340.426435 42.118599 
L 340.861921 42.560258 
L 341.297407 42.357785 
L 341.732892 42.456796 
L 342.168378 43.149508 
L 343.039349 42.724165 
L 343.474835 42.803894 
L 343.91032 42.730469 
L 344.345806 42.786835 
L 344.781292 43.362364 
L 346.087749 43.408347 
L 346.523234 43.165453 
L 346.95872 43.92306 
L 347.829691 43.827386 
L 348.265177 43.510697 
L 348.700662 43.441351 
L 349.136148 43.151362 
L 349.571634 43.188445 
L 350.442605 42.054445 
L 350.878091 42.638132 
L 351.313576 42.258402 
L 352.184548 42.615141 
L 352.620033 44.840124 
L 353.055519 44.248278 
L 353.491005 44.140737 
L 353.92649 43.827757 
L 354.797461 43.971268 
L 355.232947 44.281282 
L 356.103918 44.341728 
L 356.539404 43.81589 
L 356.97489 44.0751 
L 358.281347 44.214904 
L 358.716832 43.670154 
L 359.152318 45.892541 
L 359.587804 45.913678 
L 360.458775 45.569176 
L 360.89426 47.546074 
L 361.329746 47.116281 
L 362.636203 46.452124 
L 363.071689 47.136306 
L 363.507174 47.53569 
L 364.378146 46.506265 
L 364.813631 48.72791 
L 365.249117 49.337556 
L 365.684603 50.30394 
L 366.555574 50.850915 
L 367.426545 51.658954 
L 367.862031 51.325578 
L 368.297516 52.527439 
L 368.733002 51.887015 
L 369.168488 52.269712 
L 369.603973 52.224842 
L 370.039459 51.559201 
L 370.474945 51.470572 
L 370.91043 50.877614 
L 371.781401 50.712966 
L 372.216887 50.194174 
L 372.652373 50.020996 
L 373.087858 51.42496 
L 373.95883 52.079476 
L 374.829801 51.980835 
L 375.265287 52.473669 
L 375.700772 52.462173 
L 376.136258 52.693942 
L 376.571744 52.425461 
L 377.007229 53.072189 
L 377.442715 53.451549 
L 377.8782 52.80445 
L 378.313686 52.710259 
L 378.749172 54.71571 
L 379.184657 54.271084 
L 379.620143 54.23808 
L 380.055629 54.700506 
L 380.491114 54.739443 
L 380.9266 54.437958 
L 381.362086 55.042411 
L 382.233057 55.370596 
L 382.668543 55.170719 
L 383.104028 54.63079 
L 383.539514 55.029061 
L 383.974999 54.67566 
L 384.410485 55.166269 
L 384.845971 55.181473 
L 385.281456 54.864784 
L 385.716942 54.945254 
L 386.152428 55.915346 
L 387.89437 55.760339 
L 388.329856 55.816335 
L 388.765341 55.697298 
L 389.200827 55.701748 
L 390.071798 54.563669 
L 390.507284 54.811384 
L 390.94277 54.653781 
L 391.378255 53.792342 
L 391.813741 53.589498 
L 392.249227 54.070465 
L 392.684712 54.147597 
L 393.555684 53.793454 
L 393.991169 54.174297 
L 395.297626 54.12201 
L 395.733112 54.677143 
L 396.168597 54.685672 
L 396.604083 54.302234 
L 397.039569 54.308909 
L 397.91054 54.034494 
L 398.781511 54.125348 
L 399.216997 54.427204 
L 399.652483 54.469107 
L 400.087968 55.009407 
L 400.523454 55.300139 
L 400.958939 54.518428 
L 401.394425 54.788393 
L 401.829911 55.375788 
L 401.829911 55.375788 
" clip-path="url(#pd7f1abcfb6)" style="fill: none; stroke: #2ca02c; stroke-opacity: 0.8; stroke-width: 1.5; stroke-linecap: square"/>
   </g>
   <g id="line2d_22">
    <path d="M 147.070811 200.346024 
L 148.377268 200.108692 
L 148.812753 199.752695 
L 149.248239 199.654425 
L 149.683725 199.680754 
L 150.11921 199.42896 
L 150.990181 199.330319 
L 151.425667 199.086683 
L 151.861153 199.103371 
L 152.296638 199.350715 
L 153.16761 198.942801 
L 153.603095 198.822652 
L 154.474067 198.336864 
L 154.909552 198.345393 
L 156.651495 197.673819 
L 158.393437 198.027963 
L 159.264409 197.835872 
L 159.699894 198.012388 
L 161.877322 197.935997 
L 162.748294 197.474683 
L 164.054751 197.180986 
L 164.925722 197.278514 
L 165.796693 197.22734 
L 166.232179 197.516587 
L 166.667665 197.523262 
L 167.10315 197.304472 
L 167.974121 197.233644 
L 168.409607 197.171715 
L 168.845093 196.954038 
L 169.280578 197.109786 
L 169.716064 197.064916 
L 170.15155 196.828697 
L 170.587035 196.787164 
L 171.022521 196.610648 
L 171.458007 196.582836 
L 172.764463 195.828567 
L 173.199949 195.971337 
L 174.07092 195.876033 
L 175.377377 195.742905 
L 175.812863 195.644264 
L 176.248349 195.78073 
L 176.683834 195.647602 
L 177.11932 195.699147 
L 177.990291 195.978383 
L 179.732234 195.775909 
L 180.167719 196.04884 
L 182.345148 195.42362 
L 183.216119 195.411012 
L 184.522576 195.159589 
L 184.958061 195.112123 
L 185.393547 194.921516 
L 187.570975 194.775409 
L 188.006461 194.948586 
L 188.441947 194.791725 
L 189.748403 194.639314 
L 190.183889 194.495061 
L 190.619375 195.353533 
L 191.490346 195.21373 
L 191.925832 195.233755 
L 192.361317 195.403225 
L 192.796803 195.275288 
L 193.232289 195.44142 
L 193.667774 195.077265 
L 194.10326 195.069477 
L 194.538746 195.238576 
L 194.974231 195.207055 
L 195.409717 195.521519 
L 195.845202 195.512249 
L 196.280688 195.330913 
L 197.151659 195.205201 
L 197.587145 195.370221 
L 198.022631 195.188514 
L 198.458116 195.3476 
L 199.764573 195.20038 
L 200.200059 195.037215 
L 201.942001 194.961195 
L 203.683944 195.193705 
L 206.296858 194.35637 
L 206.732343 194.339312 
L 207.167829 194.051918 
L 207.603315 194.054885 
L 208.0388 193.886157 
L 208.909772 193.997035 
L 209.345257 194.178001 
L 209.780743 194.048952 
L 210.216229 193.732262 
L 210.651714 193.737083 
L 211.0872 193.607663 
L 212.393657 193.674413 
L 212.829142 193.682942 
L 213.264628 193.836466 
L 213.700114 193.813474 
L 214.135599 193.648826 
L 214.571085 193.665142 
L 215.877542 193.177871 
L 216.313028 192.640538 
L 216.748513 193.55723 
L 217.183999 193.583559 
L 217.619485 194.010385 
L 218.05497 193.951423 
L 218.925941 194.028556 
L 219.796913 194.102722 
L 220.667884 193.690729 
L 221.538855 193.223112 
L 221.974341 192.290103 
L 223.280798 192.191091 
L 224.151769 192.504072 
L 224.587255 192.291215 
L 225.02274 192.352773 
L 225.893712 192.198878 
L 227.200169 192.642392 
L 227.635654 192.610129 
L 228.506626 192.697645 
L 229.377597 192.692825 
L 230.248568 192.68615 
L 230.684054 193.382198 
L 231.990511 193.350678 
L 232.861482 193.049934 
L 233.732453 193.55241 
L 234.603425 193.327316 
L 235.03891 193.38739 
L 236.780853 193.260937 
L 237.216338 193.40964 
L 237.651824 193.328428 
L 238.08731 193.549443 
L 238.522795 193.595426 
L 240.700224 194.543269 
L 241.571195 194.422749 
L 242.00668 194.228063 
L 244.184109 194.211005 
L 245.05508 193.837207 
L 245.490566 193.872066 
L 246.797022 193.575401 
L 247.667994 193.594314 
L 248.103479 193.479356 
L 248.538965 193.583559 
L 248.974451 193.563905 
L 249.409936 193.29802 
L 251.587365 192.797028 
L 252.02285 192.99876 
L 253.764793 193.022493 
L 254.200278 193.085163 
L 254.635764 192.925706 
L 255.07125 193.048451 
L 255.506735 193.03918 
L 256.377707 191.70382 
L 257.248678 191.644858 
L 257.684164 191.856602 
L 258.119649 191.718653 
L 258.99062 191.749432 
L 259.426106 191.63225 
L 259.861592 191.635958 
L 261.168049 191.177611 
L 262.03902 191.462409 
L 262.909991 191.412347 
L 263.345477 191.696032 
L 263.780962 191.605179 
L 265.087419 191.876998 
L 267.700333 191.67712 
L 268.571305 191.667478 
L 270.313247 192.167358 
L 270.748733 191.947826 
L 272.05519 192.230399 
L 272.490675 192.441031 
L 272.926161 191.955985 
L 273.361647 191.951905 
L 273.797132 192.063525 
L 275.97456 192.025701 
L 276.845532 192.263032 
L 278.151989 192.225949 
L 278.587474 192.53893 
L 280.329417 192.496285 
L 281.200388 192.564147 
L 281.635874 192.759945 
L 282.506845 192.568596 
L 284.684273 193.01211 
L 285.555245 192.827807 
L 286.426216 193.060688 
L 289.474615 192.685037 
L 289.910101 192.853394 
L 290.345587 192.653887 
L 290.781072 192.805186 
L 291.216558 192.58343 
L 292.087529 192.655742 
L 292.523015 192.369461 
L 294.264957 192.278607 
L 296.877871 192.530401 
L 297.313357 192.386519 
L 298.184328 192.649067 
L 298.619814 192.626446 
L 299.055299 192.769587 
L 299.490785 192.552651 
L 300.797242 192.94536 
L 301.232728 193.276141 
L 302.103699 193.097401 
L 302.539185 193.115201 
L 302.97467 192.990231 
L 303.410156 193.063655 
L 303.845641 192.963531 
L 305.152098 193.191962 
L 305.587584 193.428552 
L 306.02307 192.830032 
L 306.458555 191.62372 
L 306.894041 192.545234 
L 307.329527 192.70432 
L 307.765012 192.679846 
L 308.200498 192.836336 
L 309.071469 192.524097 
L 309.94244 192.60605 
L 310.377926 192.766991 
L 311.248897 192.748449 
L 311.684383 192.531884 
L 312.119869 192.532626 
L 312.555354 192.731762 
L 313.426326 192.423602 
L 313.861811 192.611984 
L 315.603754 192.176999 
L 316.039239 191.447205 
L 316.474725 191.243248 
L 316.910211 190.764506 
L 317.345696 189.843363 
L 317.781182 188.651514 
L 319.523125 188.457941 
L 319.95861 188.602565 
L 320.829581 188.277346 
L 321.265067 188.418262 
L 322.136038 188.083031 
L 322.571524 188.220609 
L 323.00701 188.087481 
L 323.442495 187.544956 
L 323.877981 187.431111 
L 324.313467 187.167822 
L 325.619924 186.860032 
L 326.055409 187.117389 
L 326.92638 187.241246 
L 328.232837 186.703542 
L 328.668323 186.824062 
L 329.103809 186.631601 
L 329.97478 186.589326 
L 330.410266 186.092042 
L 331.716722 186.2159 
L 332.152208 186.225171 
L 333.458665 186.533331 
L 333.894151 186.156196 
L 335.200608 186.431352 
L 336.071579 186.133946 
L 337.378036 185.070775 
L 338.249007 185.169416 
L 338.684493 185.062988 
L 340.426435 185.205387 
L 341.297407 186.486977 
L 342.168378 186.908982 
L 343.474835 187.10923 
L 343.91032 186.953111 
L 344.781292 187.234571 
L 345.216777 187.563498 
L 345.652263 187.693288 
L 346.95872 187.616897 
L 347.394206 187.42184 
L 347.829691 187.517886 
L 348.265177 187.2431 
L 348.700662 187.464486 
L 349.136148 187.255338 
L 349.571634 187.189701 
L 350.007119 186.941244 
L 351.313576 186.868561 
L 352.184548 187.10923 
L 352.620033 187.185992 
L 353.491005 187.051752 
L 353.92649 186.288212 
L 354.361976 186.515531 
L 355.232947 186.19365 
L 355.668433 186.343095 
L 357.410375 185.793153 
L 358.281347 185.817257 
L 358.716832 185.684129 
L 360.023289 185.834686 
L 360.458775 185.245807 
L 360.89426 185.300319 
L 361.329746 183.900064 
L 361.765232 183.803277 
L 362.200717 183.561866 
L 362.636203 183.650866 
L 363.071689 183.44728 
L 363.507174 183.521446 
L 363.94266 183.44283 
L 364.378146 183.205498 
L 364.813631 183.439121 
L 365.249117 183.412792 
L 365.684603 183.528121 
L 366.120088 183.514771 
L 366.555574 183.352718 
L 366.991059 183.38943 
L 367.426545 183.232569 
L 367.862031 182.941838 
L 368.297516 182.919959 
L 368.733002 182.753085 
L 369.603973 182.699685 
L 370.474945 183.155065 
L 373.523344 182.822801 
L 373.95883 182.962604 
L 377.007229 183.145794 
L 377.442715 183.171382 
L 378.313686 183.486588 
L 378.749172 183.522187 
L 379.184657 183.166932 
L 379.620143 183.060133 
L 380.055629 183.144682 
L 380.491114 181.873475 
L 382.233057 182.472737 
L 382.668543 182.172735 
L 383.539514 182.236147 
L 383.974999 182.04109 
L 384.845971 181.851225 
L 385.716942 179.038476 
L 386.587913 177.734266 
L 387.023399 177.78544 
L 387.458885 177.605217 
L 387.89437 177.641929 
L 388.329856 177.546996 
L 388.765341 177.727591 
L 389.636313 177.418318 
L 390.071798 177.413868 
L 390.507284 177.244398 
L 390.94277 177.918939 
L 391.378255 179.070368 
L 391.813741 179.105597 
L 392.249227 178.879019 
L 392.684712 178.118075 
L 393.120198 177.833277 
L 393.555684 177.704228 
L 393.991169 177.44168 
L 394.426655 177.455772 
L 395.297626 177.127216 
L 395.733112 177.315227 
L 396.168597 177.148353 
L 396.604083 177.208799 
L 397.039569 177.017821 
L 397.475054 176.5172 
L 397.91054 176.728944 
L 398.346026 176.74489 
L 399.652483 176.223131 
L 400.523454 176.169732 
L 400.958939 176.913247 
L 401.394425 176.937351 
L 401.829911 177.152062 
L 401.829911 177.152062 
" clip-path="url(#pd7f1abcfb6)" style="fill: none; stroke: #d62728; stroke-opacity: 0.8; stroke-width: 1.5; stroke-linecap: square"/>
   </g>
   <g id="line2d_23">
    <path d="M 147.070811 188.721601 
L 147.506296 188.713443 
L 147.941782 188.525432 
L 149.248239 188.256951 
L 149.683725 187.842733 
L 150.554696 187.48859 
L 151.861153 186.723196 
L 152.732124 186.542972 
L 153.603095 185.799457 
L 154.038581 185.590309 
L 154.909552 185.433077 
L 155.345038 185.084125 
L 155.780523 184.966572 
L 156.216009 184.606866 
L 157.08698 184.732207 
L 157.522466 184.239003 
L 157.957952 184.105874 
L 158.393437 183.617862 
L 159.264409 183.278923 
L 160.570866 182.564332 
L 161.006351 182.837263 
L 161.877322 182.985596 
L 162.312808 183.122061 
L 163.183779 182.793876 
L 163.619265 182.685594 
L 164.054751 182.374096 
L 164.490236 182.596965 
L 164.925722 182.344801 
L 165.361208 182.518349 
L 165.796693 182.163465 
L 166.232179 182.078915 
L 166.667665 182.315134 
L 167.10315 181.985095 
L 167.538636 181.93355 
L 167.974121 182.041461 
L 168.409607 181.871992 
L 169.280578 181.992883 
L 169.716064 181.833796 
L 170.15155 183.873364 
L 170.587035 183.905255 
L 171.458007 183.632695 
L 171.893492 183.712794 
L 172.328978 183.511433 
L 172.764463 182.985225 
L 173.199949 182.698573 
L 173.635435 182.788314 
L 174.07092 182.731206 
L 174.506406 182.546162 
L 175.377377 182.46495 
L 175.812863 182.588807 
L 177.11932 182.186085 
L 177.554806 182.249868 
L 177.990291 182.055924 
L 180.167719 182.392638 
L 180.603205 182.198323 
L 181.474176 182.4249 
L 183.216119 182.041832 
L 183.651605 181.827121 
L 184.08709 181.749247 
L 184.522576 181.546032 
L 184.958061 181.490407 
L 185.829033 181.181135 
L 186.264518 181.354683 
L 187.13549 181.102519 
L 188.006461 180.808821 
L 188.441947 180.991269 
L 188.877432 181.034657 
L 189.312918 180.937128 
L 189.748403 180.966424 
L 191.05486 180.453565 
L 192.796803 180.748746 
L 193.232289 180.712034 
L 193.667774 180.823283 
L 194.10326 180.773221 
L 194.538746 180.945286 
L 194.974231 180.788796 
L 195.409717 180.931566 
L 195.845202 180.496211 
L 197.151659 180.445036 
L 198.022631 180.413886 
L 200.200059 181.548998 
L 201.942001 181.352087 
L 202.812973 180.954928 
L 203.248458 181.164447 
L 204.554915 181.177426 
L 204.990401 181.225263 
L 205.425887 181.084348 
L 207.167829 181.118464 
L 207.603315 181.098439 
L 208.909772 181.466303 
L 209.345257 181.283855 
L 210.651714 181.198193 
L 211.0872 181.255301 
L 212.393657 180.814383 
L 213.264628 181.088427 
L 213.700114 181.435154 
L 214.571085 181.217847 
L 215.442056 181.00054 
L 215.877542 181.340221 
L 216.748513 181.328725 
L 217.183999 181.547515 
L 217.619485 181.215251 
L 218.490456 180.898562 
L 218.925941 181.161851 
L 219.796913 181.141456 
L 220.232398 181.174089 
L 220.667884 180.737621 
L 221.10337 180.901528 
L 221.538855 181.474462 
L 221.974341 181.58089 
L 222.409827 181.924279 
L 222.845312 180.930453 
L 224.151769 181.075077 
L 225.02274 181.369887 
L 225.893712 181.28608 
L 226.329197 181.495599 
L 227.200169 181.207093 
L 228.07114 181.226747 
L 228.506626 181.410679 
L 228.942111 181.422174 
L 229.377597 181.274584 
L 230.248568 181.347638 
L 231.990511 180.882987 
L 232.425996 180.85777 
L 232.861482 180.984965 
L 233.732453 180.887066 
L 234.167939 180.855916 
L 234.603425 181.321309 
L 235.909881 181.944675 
L 236.780853 182.063711 
L 237.216338 181.942079 
L 237.651824 181.978791 
L 238.522795 182.583245 
L 239.829252 182.443071 
L 240.264738 182.69301 
L 240.700224 182.592886 
L 241.135709 182.861367 
L 241.571195 182.922184 
L 242.00668 182.408954 
L 242.442166 182.812047 
L 242.877652 182.546903 
L 243.313137 182.998946 
L 244.184109 183.207352 
L 245.490566 183.496971 
L 246.361537 183.507725 
L 247.232508 183.118724 
L 247.667994 183.118724 
L 248.103479 183.302285 
L 248.974451 183.355684 
L 249.409936 183.113903 
L 250.280908 183.204015 
L 250.716393 183.394622 
L 251.151879 183.415759 
L 251.587365 183.159886 
L 252.02285 183.59042 
L 252.458336 183.598949 
L 253.329307 183.354201 
L 254.635764 183.584487 
L 255.942221 183.230344 
L 256.377707 182.783864 
L 256.813192 182.83578 
L 257.248678 183.100553 
L 258.119649 184.015763 
L 258.555135 183.840731 
L 259.426106 184.166691 
L 259.861592 184.158903 
L 260.732563 183.77769 
L 261.168049 183.786219 
L 261.603534 184.154824 
L 262.03902 184.205257 
L 263.345477 183.862981 
L 263.780962 183.94308 
L 264.216448 183.697961 
L 264.651934 183.738382 
L 265.087419 183.520333 
L 265.522905 183.588937 
L 265.958391 183.384609 
L 266.393876 183.308218 
L 267.264848 183.584487 
L 268.571305 183.492892 
L 269.00679 183.158773 
L 269.442276 183.103149 
L 269.877761 182.924038 
L 270.748733 183.241469 
L 271.184218 183.113532 
L 272.490675 183.13467 
L 272.926161 183.426142 
L 273.361647 183.333435 
L 274.232618 183.506612 
L 274.668104 183.59932 
L 275.539075 184.135541 
L 275.97456 183.94308 
L 276.410046 184.08585 
L 277.716503 183.788073 
L 278.587474 183.665699 
L 279.458446 183.771015 
L 279.893931 183.924909 
L 280.329417 183.4432 
L 280.764902 183.763598 
L 281.200388 183.624907 
L 281.635874 183.652349 
L 282.071359 183.841472 
L 282.942331 183.895614 
L 283.377816 183.682757 
L 283.813302 183.267798 
L 284.684273 183.117982 
L 285.119759 182.925521 
L 285.555245 182.883246 
L 286.861701 183.369776 
L 287.297187 183.186957 
L 287.732673 183.341964 
L 288.168158 183.056424 
L 289.474615 182.588436 
L 289.910101 182.235035 
L 290.345587 182.08559 
L 291.216558 181.532311 
L 291.652044 181.485216 
L 292.523015 181.675822 
L 292.9585 181.619827 
L 293.393986 181.421433 
L 293.829472 181.396958 
L 294.264957 181.540469 
L 294.700443 181.313892 
L 295.571414 181.224522 
L 296.0069 181.065806 
L 296.442386 181.136264 
L 296.877871 180.774334 
L 297.313357 180.924891 
L 297.748842 180.955299 
L 298.619814 180.542194 
L 299.055299 180.396457 
L 299.490785 180.489165 
L 300.361756 180.311908 
L 301.232728 180.254058 
L 301.668213 180.354183 
L 302.103699 180.314875 
L 302.539185 180.569635 
L 303.410156 180.515123 
L 303.845641 180.281871 
L 304.281127 180.473961 
L 305.152098 180.418707 
L 305.587584 180.835891 
L 307.329527 180.721676 
L 307.765012 181.843809 
L 309.506955 181.332063 
L 311.248897 181.006844 
L 311.684383 181.287192 
L 312.555354 181.295721 
L 312.99084 181.528974 
L 313.426326 181.507836 
L 313.861811 181.3265 
L 315.603754 181.560123 
L 316.039239 181.72848 
L 316.910211 181.734414 
L 317.345696 181.854192 
L 317.781182 181.748505 
L 318.216668 181.841584 
L 319.087639 182.269151 
L 319.523125 182.27323 
L 320.829581 181.863092 
L 322.136038 182.304009 
L 322.571524 182.351846 
L 323.00701 182.208706 
L 323.442495 182.215752 
L 323.877981 182.342205 
L 324.313467 182.057778 
L 324.748952 182.187198 
L 325.184438 181.84418 
L 325.619924 181.988803 
L 326.055409 181.910187 
L 326.490895 181.689172 
L 326.92638 182.021807 
L 327.361866 181.853821 
L 327.797352 182.055182 
L 328.232837 181.893129 
L 328.668323 181.54084 
L 330.410266 181.266426 
L 330.845751 181.110677 
L 332.587694 181.714018 
L 333.458665 181.591273 
L 333.894151 181.586082 
L 334.765122 181.988803 
L 336.071579 181.852709 
L 336.507065 182.118223 
L 338.249007 182.265443 
L 338.684493 182.077432 
L 339.119978 182.263589 
L 339.555464 182.303638 
L 339.99095 181.976937 
L 340.861921 182.477187 
L 341.297407 183.079787 
L 341.732892 182.76866 
L 342.603864 182.893259 
L 343.91032 182.361117 
L 344.345806 182.37558 
L 344.781292 181.226376 
L 346.087749 181.731076 
L 346.95872 181.78633 
L 347.394206 181.986208 
L 348.265177 182.063711 
L 349.136148 182.124898 
L 349.571634 181.993995 
L 350.007119 182.092636 
L 350.442605 182.324034 
L 351.313576 182.360005 
L 351.749062 182.249497 
L 352.184548 182.298447 
L 352.620033 182.185714 
L 353.491005 182.269522 
L 353.92649 182.623665 
L 354.361976 182.649252 
L 354.797461 182.829105 
L 355.232947 182.322922 
L 356.103918 182.485716 
L 356.539404 182.311797 
L 356.97489 182.479041 
L 358.716832 182.374467 
L 359.152318 182.596595 
L 359.587804 182.692269 
L 360.023289 182.51872 
L 360.458775 182.552466 
L 360.89426 182.813901 
L 361.329746 182.867301 
L 361.765232 182.707844 
L 362.636203 182.936646 
L 363.071689 183.021566 
L 363.507174 182.986337 
L 363.94266 183.142086 
L 364.378146 183.131332 
L 364.813631 182.9919 
L 366.120088 183.884118 
L 366.555574 183.931955 
L 368.297516 183.34901 
L 368.733002 183.594499 
L 369.603973 183.752102 
L 370.91043 184.273861 
L 371.345916 184.303156 
L 371.781401 184.187457 
L 372.216887 184.366197 
L 372.652373 184.201549 
L 373.087858 184.328002 
L 373.523344 184.618733 
L 374.394315 184.73777 
L 374.829801 183.298947 
L 375.265287 183.160628 
L 375.700772 183.285968 
L 376.136258 183.530716 
L 376.571744 183.627503 
L 377.442715 183.415759 
L 377.8782 183.22886 
L 378.313686 183.441717 
L 378.749172 183.256302 
L 379.184657 183.482138 
L 379.620143 183.554079 
L 380.055629 183.746169 
L 380.491114 183.454696 
L 381.362086 183.638628 
L 381.797571 184.10847 
L 382.233057 184.062858 
L 382.668543 183.904884 
L 383.104028 183.969409 
L 383.539514 183.899322 
L 383.974999 184.051362 
L 384.410485 183.88931 
L 384.845971 183.968667 
L 385.281456 184.274973 
L 385.716942 184.141474 
L 386.152428 184.376952 
L 386.587913 184.154824 
L 388.329856 184.075837 
L 388.765341 184.079916 
L 389.200827 183.45173 
L 389.636313 183.314893 
L 390.507284 183.356797 
L 391.813741 182.72861 
L 392.249227 182.917734 
L 392.684712 182.84913 
L 393.555684 182.979662 
L 393.991169 182.974471 
L 394.426655 183.091282 
L 395.733112 182.713035 
L 396.168597 182.714889 
L 396.604083 182.53652 
L 397.475054 182.499808 
L 397.91054 182.290289 
L 398.346026 182.500549 
L 399.652483 182.556174 
L 400.523454 182.02737 
L 400.958939 181.845292 
L 401.829911 181.860867 
L 401.829911 181.860867 
" clip-path="url(#pd7f1abcfb6)" style="fill: none; stroke: #9467bd; stroke-opacity: 0.8; stroke-width: 1.5; stroke-linecap: square"/>
   </g>
   <g id="patch_3">
    <path d="M 61.715625 288.430125 
L 61.715625 22.318125 
" style="fill: none; stroke: #000000; stroke-width: 0.8; stroke-linejoin: miter; stroke-linecap: square"/>
   </g>
   <g id="patch_4">
    <path d="M 418.835625 288.430125 
L 418.835625 22.318125 
" style="fill: none; stroke: #000000; stroke-width: 0.8; stroke-linejoin: miter; stroke-linecap: square"/>
   </g>
   <g id="patch_5">
    <path d="M 61.715625 288.430125 
L 418.835625 288.430125 
" style="fill: none; stroke: #000000; stroke-width: 0.8; stroke-linejoin: miter; stroke-linecap: square"/>
   </g>
   <g id="patch_6">
    <path d="M 61.715625 22.318125 
L 418.835625 22.318125 
" style="fill: none; stroke: #000000; stroke-width: 0.8; stroke-linejoin: miter; stroke-linecap: square"/>
   </g>
   <g id="text_21">
    <!-- Get ancestors [leaf] -->
    <g transform="translate(180.7275 16.318125) scale(0.12 -0.12)">
     <defs>
      <path id="DejaVuSans-47" d="M 3809 666 
L 3809 1919 
L 2778 1919 
L 2778 2438 
L 4434 2438 
L 4434 434 
Q 4069 175 3628 42 
Q 3188 -91 2688 -91 
Q 1594 -91 976 548 
Q 359 1188 359 2328 
Q 359 3472 976 4111 
Q 1594 4750 2688 4750 
Q 3144 4750 3555 4637 
Q 3966 4525 4313 4306 
L 4313 3634 
Q 3963 3931 3569 4081 
Q 3175 4231 2741 4231 
Q 1884 4231 1454 3753 
Q 1025 3275 1025 2328 
Q 1025 1384 1454 906 
Q 1884 428 2741 428 
Q 3075 428 3337 486 
Q 3600 544 3809 666 
z
" transform="scale(0.015625)"/>
      <path id="DejaVuSans-72" d="M 2631 2963 
Q 2534 3019 2420 3045 
Q 2306 3072 2169 3072 
Q 1681 3072 1420 2755 
Q 1159 2438 1159 1844 
L 1159 0 
L 581 0 
L 581 3500 
L 1159 3500 
L 1159 2956 
Q 1341 3275 1631 3429 
Q 1922 3584 2338 3584 
Q 2397 3584 2469 3576 
Q 2541 3569 2628 3553 
L 2631 2963 
z
" transform="scale(0.015625)"/>
      <path id="DejaVuSans-5b" d="M 550 4863 
L 1875 4863 
L 1875 4416 
L 1125 4416 
L 1125 -397 
L 1875 -397 
L 1875 -844 
L 550 -844 
L 550 4863 
z
" transform="scale(0.015625)"/>
      <path id="DejaVuSans-5d" d="M 1947 4863 
L 1947 -844 
L 622 -844 
L 622 -397 
L 1369 -397 
L 1369 4416 
L 622 4416 
L 622 4863 
L 1947 4863 
z
" transform="scale(0.015625)"/>
     </defs>
     <use xlink:href="#DejaVuSans-47"/>
     <use xlink:href="#DejaVuSans-65" transform="translate(77.490234 0)"/>
     <use xlink:href="#DejaVuSans-74" transform="translate(139.013672 0)"/>
     <use xlink:href="#DejaVuSans-20" transform="translate(178.222656 0)"/>
     <use xlink:href="#DejaVuSans-61" transform="translate(210.009766 0)"/>
     <use xlink:href="#DejaVuSans-6e" transform="translate(271.289062 0)"/>
     <use xlink:href="#DejaVuSans-63" transform="translate(334.667969 0)"/>
     <use xlink:href="#DejaVuSans-65" transform="translate(389.648438 0)"/>
     <use xlink:href="#DejaVuSans-73" transform="translate(451.171875 0)"/>
     <use xlink:href="#DejaVuSans-74" transform="translate(503.271484 0)"/>
     <use xlink:href="#DejaVuSans-6f" transform="translate(542.480469 0)"/>
     <use xlink:href="#DejaVuSans-72" transform="translate(603.662109 0)"/>
     <use xlink:href="#DejaVuSans-73" transform="translate(644.775391 0)"/>
     <use xlink:href="#DejaVuSans-20" transform="translate(696.875 0)"/>
     <use xlink:href="#DejaVuSans-5b" transform="translate(728.662109 0)"/>
     <use xlink:href="#DejaVuSans-6c" transform="translate(767.675781 0)"/>
     <use xlink:href="#DejaVuSans-65" transform="translate(795.458984 0)"/>
     <use xlink:href="#DejaVuSans-61" transform="translate(856.982422 0)"/>
     <use xlink:href="#DejaVuSans-66" transform="translate(918.261719 0)"/>
     <use xlink:href="#DejaVuSans-5d" transform="translate(953.466797 0)"/>
    </g>
   </g>
   <g id="legend_1">
    <g id="patch_7">
     <path d="M 92.717969 365.802375 
L 380.313281 365.802375 
Q 382.313281 365.802375 382.313281 363.802375 
L 382.313281 335.446125 
Q 382.313281 333.446125 380.313281 333.446125 
L 92.717969 333.446125 
Q 90.717969 333.446125 90.717969 335.446125 
L 90.717969 363.802375 
Q 90.717969 365.802375 92.717969 365.802375 
z
" style="fill: #4d4d4d; opacity: 0.5; stroke: #4d4d4d; stroke-linejoin: miter"/>
    </g>
    <g id="patch_8">
     <path d="M 90.717969 363.802375 
L 378.313281 363.802375 
Q 380.313281 363.802375 380.313281 361.802375 
L 380.313281 333.446125 
Q 380.313281 331.446125 378.313281 331.446125 
L 90.717969 331.446125 
Q 88.717969 331.446125 88.717969 333.446125 
L 88.717969 361.802375 
Q 88.717969 363.802375 90.717969 363.802375 
z
" style="fill: #ffffff; stroke: #cccccc; stroke-linejoin: miter"/>
    </g>
    <g id="line2d_24">
     <path d="M 92.717969 339.544562 
L 102.717969 339.544562 
L 112.717969 339.544562 
" style="fill: none; stroke: #1f77b4; stroke-opacity: 0.8; stroke-width: 1.5; stroke-linecap: square"/>
    </g>
    <g id="text_22">
     <!-- MPTT -->
     <g transform="translate(120.717969 343.044562) scale(0.1 -0.1)">
      <defs>
       <path id="DejaVuSans-4d" d="M 628 4666 
L 1569 4666 
L 2759 1491 
L 3956 4666 
L 4897 4666 
L 4897 0 
L 4281 0 
L 4281 4097 
L 3078 897 
L 2444 897 
L 1241 4097 
L 1241 0 
L 628 0 
L 628 4666 
z
" transform="scale(0.015625)"/>
       <path id="DejaVuSans-50" d="M 1259 4147 
L 1259 2394 
L 2053 2394 
Q 2494 2394 2734 2622 
Q 2975 2850 2975 3272 
Q 2975 3691 2734 3919 
Q 2494 4147 2053 4147 
L 1259 4147 
z
M 628 4666 
L 2053 4666 
Q 2838 4666 3239 4311 
Q 3641 3956 3641 3272 
Q 3641 2581 3239 2228 
Q 2838 1875 2053 1875 
L 1259 1875 
L 1259 0 
L 628 0 
L 628 4666 
z
" transform="scale(0.015625)"/>
       <path id="DejaVuSans-54" d="M -19 4666 
L 3928 4666 
L 3928 4134 
L 2272 4134 
L 2272 0 
L 1638 0 
L 1638 4134 
L -19 4134 
L -19 4666 
z
" transform="scale(0.015625)"/>
      </defs>
      <use xlink:href="#DejaVuSans-4d"/>
      <use xlink:href="#DejaVuSans-50" transform="translate(86.279297 0)"/>
      <use xlink:href="#DejaVuSans-54" transform="translate(146.582031 0)"/>
      <use xlink:href="#DejaVuSans-54" transform="translate(205.916016 0)"/>
     </g>
    </g>
    <g id="line2d_25">
     <path d="M 92.717969 354.222687 
L 102.717969 354.222687 
L 112.717969 354.222687 
" style="fill: none; stroke: #ff7f0e; stroke-opacity: 0.8; stroke-width: 1.5; stroke-linecap: square"/>
    </g>
    <g id="text_23">
     <!-- tree -->
     <g transform="translate(120.717969 357.722687) scale(0.1 -0.1)">
      <use xlink:href="#DejaVuSans-74"/>
      <use xlink:href="#DejaVuSans-72" transform="translate(39.208984 0)"/>
      <use xlink:href="#DejaVuSans-65" transform="translate(78.072266 0)"/>
      <use xlink:href="#DejaVuSans-65" transform="translate(139.595703 0)"/>
     </g>
    </g>
    <g id="line2d_26">
     <path d="M 167.416406 339.544562 
L 177.416406 339.544562 
L 187.416406 339.544562 
" style="fill: none; stroke: #2ca02c; stroke-opacity: 0.8; stroke-width: 1.5; stroke-linecap: square"/>
    </g>
    <g id="text_24">
     <!-- treebeard AL -->
     <g transform="translate(195.416406 343.044562) scale(0.1 -0.1)">
      <defs>
       <path id="DejaVuSans-4c" d="M 628 4666 
L 1259 4666 
L 1259 531 
L 3531 531 
L 3531 0 
L 628 0 
L 628 4666 
z
" transform="scale(0.015625)"/>
      </defs>
      <use xlink:href="#DejaVuSans-74"/>
      <use xlink:href="#DejaVuSans-72" transform="translate(39.208984 0)"/>
      <use xlink:href="#DejaVuSans-65" transform="translate(78.072266 0)"/>
      <use xlink:href="#DejaVuSans-65" transform="translate(139.595703 0)"/>
      <use xlink:href="#DejaVuSans-62" transform="translate(201.119141 0)"/>
      <use xlink:href="#DejaVuSans-65" transform="translate(264.595703 0)"/>
      <use xlink:href="#DejaVuSans-61" transform="translate(326.119141 0)"/>
      <use xlink:href="#DejaVuSans-72" transform="translate(387.398438 0)"/>
      <use xlink:href="#DejaVuSans-64" transform="translate(426.761719 0)"/>
      <use xlink:href="#DejaVuSans-20" transform="translate(490.238281 0)"/>
      <use xlink:href="#DejaVuSans-41" transform="translate(522.025391 0)"/>
      <use xlink:href="#DejaVuSans-4c" transform="translate(590.433594 0)"/>
     </g>
    </g>
    <g id="line2d_27">
     <path d="M 167.416406 354.222687 
L 177.416406 354.222687 
L 187.416406 354.222687 
" style="fill: none; stroke: #d62728; stroke-opacity: 0.8; stroke-width: 1.5; stroke-linecap: square"/>
    </g>
    <g id="text_25">
     <!-- treebeard MP -->
     <g transform="translate(195.416406 357.722687) scale(0.1 -0.1)">
      <use xlink:href="#DejaVuSans-74"/>
      <use xlink:href="#DejaVuSans-72" transform="translate(39.208984 0)"/>
      <use xlink:href="#DejaVuSans-65" transform="translate(78.072266 0)"/>
      <use xlink:href="#DejaVuSans-65" transform="translate(139.595703 0)"/>
      <use xlink:href="#DejaVuSans-62" transform="translate(201.119141 0)"/>
      <use xlink:href="#DejaVuSans-65" transform="translate(264.595703 0)"/>
      <use xlink:href="#DejaVuSans-61" transform="translate(326.119141 0)"/>
      <use xlink:href="#DejaVuSans-72" transform="translate(387.398438 0)"/>
      <use xlink:href="#DejaVuSans-64" transform="translate(426.761719 0)"/>
      <use xlink:href="#DejaVuSans-20" transform="translate(490.238281 0)"/>
      <use xlink:href="#DejaVuSans-4d" transform="translate(522.025391 0)"/>
      <use xlink:href="#DejaVuSans-50" transform="translate(608.304688 0)"/>
     </g>
    </g>
    <g id="line2d_28">
     <path d="M 282.278906 339.544562 
L 292.278906 339.544562 
L 302.278906 339.544562 
" style="fill: none; stroke: #9467bd; stroke-opacity: 0.8; stroke-width: 1.5; stroke-linecap: square"/>
    </g>
    <g id="text_26">
     <!-- treebeard NS -->
     <g transform="translate(310.278906 343.044562) scale(0.1 -0.1)">
      <defs>
       <path id="DejaVuSans-4e" d="M 628 4666 
L 1478 4666 
L 3547 763 
L 3547 4666 
L 4159 4666 
L 4159 0 
L 3309 0 
L 1241 3903 
L 1241 0 
L 628 0 
L 628 4666 
z
" transform="scale(0.015625)"/>
       <path id="DejaVuSans-53" d="M 3425 4513 
L 3425 3897 
Q 3066 4069 2747 4153 
Q 2428 4238 2131 4238 
Q 1616 4238 1336 4038 
Q 1056 3838 1056 3469 
Q 1056 3159 1242 3001 
Q 1428 2844 1947 2747 
L 2328 2669 
Q 3034 2534 3370 2195 
Q 3706 1856 3706 1288 
Q 3706 609 3251 259 
Q 2797 -91 1919 -91 
Q 1588 -91 1214 -16 
Q 841 59 441 206 
L 441 856 
Q 825 641 1194 531 
Q 1563 422 1919 422 
Q 2459 422 2753 634 
Q 3047 847 3047 1241 
Q 3047 1584 2836 1778 
Q 2625 1972 2144 2069 
L 1759 2144 
Q 1053 2284 737 2584 
Q 422 2884 422 3419 
Q 422 4038 858 4394 
Q 1294 4750 2059 4750 
Q 2388 4750 2728 4690 
Q 3069 4631 3425 4513 
z
" transform="scale(0.015625)"/>
      </defs>
      <use xlink:href="#DejaVuSans-74"/>
      <use xlink:href="#DejaVuSans-72" transform="translate(39.208984 0)"/>
      <use xlink:href="#DejaVuSans-65" transform="translate(78.072266 0)"/>
      <use xlink:href="#DejaVuSans-65" transform="translate(139.595703 0)"/>
      <use xlink:href="#DejaVuSans-62" transform="translate(201.119141 0)"/>
      <use xlink:href="#DejaVuSans-65" transform="translate(264.595703 0)"/>
      <use xlink:href="#DejaVuSans-61" transform="translate(326.119141 0)"/>
      <use xlink:href="#DejaVuSans-72" transform="translate(387.398438 0)"/>
      <use xlink:href="#DejaVuSans-64" transform="translate(426.761719 0)"/>
      <use xlink:href="#DejaVuSans-20" transform="translate(490.238281 0)"/>
      <use xlink:href="#DejaVuSans-4e" transform="translate(522.025391 0)"/>
      <use xlink:href="#DejaVuSans-53" transform="translate(596.830078 0)"/>
     </g>
    </g>
   </g>
  </g>
 </g>
 <defs>
  <clipPath id="pd7f1abcfb6">
   <rect x="61.715625" y="22.318125" width="357.12" height="266.112"/>
  </clipPath>
 </defs>
</svg>
