<?xml version="1.0" encoding="utf-8" standalone="no"?>
<!DOCTYPE svg PUBLIC "-//W3C//DTD SVG 1.1//EN"
  "http://www.w3.org/Graphics/SVG/1.1/DTD/svg11.dtd">
<!-- Created with matplotlib (https://matplotlib.org/) -->
<svg height="371.002375pt" version="1.1" viewBox="0 0 426.035625 371.002375" width="426.035625pt" xmlns="http://www.w3.org/2000/svg" xmlns:xlink="http://www.w3.org/1999/xlink">
 <metadata>
  <rdf:RDF xmlns:cc="http://creativecommons.org/ns#" xmlns:dc="http://purl.org/dc/elements/1.1/" xmlns:rdf="http://www.w3.org/1999/02/22-rdf-syntax-ns#">
   <cc:Work>
    <dc:type rdf:resource="http://purl.org/dc/dcmitype/StillImage"/>
    <dc:date>2023-07-03T20:37:45.871079</dc:date>
    <dc:format>image/svg+xml</dc:format>
    <dc:creator>
     <cc:Agent>
      <dc:title>Matplotlib v3.3.4, https://matplotlib.org/</dc:title>
     </cc:Agent>
    </dc:creator>
   </cc:Work>
  </rdf:RDF>
 </metadata>
 <defs>
  <style type="text/css">*{stroke-linecap:butt;stroke-linejoin:round;}</style>
 </defs>
 <g id="figure_1">
  <g id="patch_1">
   <path d="M 0 371.002375 
L 426.035625 371.002375 
L 426.035625 0 
L 0 0 
z
" style="fill:#ffffff;"/>
  </g>
  <g id="axes_1">
   <g id="patch_2">
    <path d="M 61.715625 288.430125 
L 418.835625 288.430125 
L 418.835625 22.318125 
L 61.715625 22.318125 
z
" style="fill:#ffffff;"/>
   </g>
   <g id="matplotlib.axis_1">
    <g id="xtick_1">
     <g id="line2d_1">
      <defs>
       <path d="M 0 0 
L 0 3.5 
" id="m647c5a99f6" style="stroke:#000000;stroke-width:0.8;"/>
      </defs>
      <g>
       <use style="stroke:#000000;stroke-width:0.8;" x="61.715625" xlink:href="#m647c5a99f6" y="288.430125"/>
      </g>
     </g>
     <g id="text_1">
      <!-- 0 -->
      <g transform="translate(58.534375 303.028562)scale(0.1 -0.1)">
       <defs>
        <path d="M 31.78125 66.40625 
Q 24.171875 66.40625 20.328125 58.90625 
Q 16.5 51.421875 16.5 36.375 
Q 16.5 21.390625 20.328125 13.890625 
Q 24.171875 6.390625 31.78125 6.390625 
Q 39.453125 6.390625 43.28125 13.890625 
Q 47.125 21.390625 47.125 36.375 
Q 47.125 51.421875 43.28125 58.90625 
Q 39.453125 66.40625 31.78125 66.40625 
z
M 31.78125 74.21875 
Q 44.046875 74.21875 50.515625 64.515625 
Q 56.984375 54.828125 56.984375 36.375 
Q 56.984375 17.96875 50.515625 8.265625 
Q 44.046875 -1.421875 31.78125 -1.421875 
Q 19.53125 -1.421875 13.0625 8.265625 
Q 6.59375 17.96875 6.59375 36.375 
Q 6.59375 54.828125 13.0625 64.515625 
Q 19.53125 74.21875 31.78125 74.21875 
z
" id="DejaVuSans-48"/>
       </defs>
       <use xlink:href="#DejaVuSans-48"/>
      </g>
     </g>
    </g>
    <g id="xtick_2">
     <g id="line2d_2">
      <g>
       <use style="stroke:#000000;stroke-width:0.8;" x="105.264189" xlink:href="#m647c5a99f6" y="288.430125"/>
      </g>
     </g>
     <g id="text_2">
      <!-- 500  -->
      <g transform="translate(94.131377 303.028562)scale(0.1 -0.1)">
       <defs>
        <path d="M 10.796875 72.90625 
L 49.515625 72.90625 
L 49.515625 64.59375 
L 19.828125 64.59375 
L 19.828125 46.734375 
Q 21.96875 47.46875 24.109375 47.828125 
Q 26.265625 48.1875 28.421875 48.1875 
Q 40.625 48.1875 47.75 41.5 
Q 54.890625 34.8125 54.890625 23.390625 
Q 54.890625 11.625 47.5625 5.09375 
Q 40.234375 -1.421875 26.90625 -1.421875 
Q 22.3125 -1.421875 17.546875 -0.640625 
Q 12.796875 0.140625 7.71875 1.703125 
L 7.71875 11.625 
Q 12.109375 9.234375 16.796875 8.0625 
Q 21.484375 6.890625 26.703125 6.890625 
Q 35.15625 6.890625 40.078125 11.328125 
Q 45.015625 15.765625 45.015625 23.390625 
Q 45.015625 31 40.078125 35.4375 
Q 35.15625 39.890625 26.703125 39.890625 
Q 22.75 39.890625 18.8125 39.015625 
Q 14.890625 38.140625 10.796875 36.28125 
z
" id="DejaVuSans-53"/>
        <path id="DejaVuSans-32"/>
       </defs>
       <use xlink:href="#DejaVuSans-53"/>
       <use x="63.623047" xlink:href="#DejaVuSans-48"/>
       <use x="127.246094" xlink:href="#DejaVuSans-48"/>
       <use x="190.869141" xlink:href="#DejaVuSans-32"/>
      </g>
     </g>
    </g>
    <g id="xtick_3">
     <g id="line2d_3">
      <g>
       <use style="stroke:#000000;stroke-width:0.8;" x="148.812753" xlink:href="#m647c5a99f6" y="288.430125"/>
      </g>
     </g>
     <g id="text_3">
      <!-- 1 k -->
      <g transform="translate(141.147128 303.028562)scale(0.1 -0.1)">
       <defs>
        <path d="M 12.40625 8.296875 
L 28.515625 8.296875 
L 28.515625 63.921875 
L 10.984375 60.40625 
L 10.984375 69.390625 
L 28.421875 72.90625 
L 38.28125 72.90625 
L 38.28125 8.296875 
L 54.390625 8.296875 
L 54.390625 0 
L 12.40625 0 
z
" id="DejaVuSans-49"/>
        <path d="M 9.078125 75.984375 
L 18.109375 75.984375 
L 18.109375 31.109375 
L 44.921875 54.6875 
L 56.390625 54.6875 
L 27.390625 29.109375 
L 57.625 0 
L 45.90625 0 
L 18.109375 26.703125 
L 18.109375 0 
L 9.078125 0 
z
" id="DejaVuSans-107"/>
       </defs>
       <use xlink:href="#DejaVuSans-49"/>
       <use x="63.623047" xlink:href="#DejaVuSans-32"/>
       <use x="95.410156" xlink:href="#DejaVuSans-107"/>
      </g>
     </g>
    </g>
    <g id="xtick_4">
     <g id="line2d_4">
      <g>
       <use style="stroke:#000000;stroke-width:0.8;" x="192.361317" xlink:href="#m647c5a99f6" y="288.430125"/>
      </g>
     </g>
     <g id="text_4">
      <!-- 1.5 k -->
      <g transform="translate(179.92538 303.028562)scale(0.1 -0.1)">
       <defs>
        <path d="M 10.6875 12.40625 
L 21 12.40625 
L 21 0 
L 10.6875 0 
z
" id="DejaVuSans-46"/>
       </defs>
       <use xlink:href="#DejaVuSans-49"/>
       <use x="63.623047" xlink:href="#DejaVuSans-46"/>
       <use x="95.410156" xlink:href="#DejaVuSans-53"/>
       <use x="159.033203" xlink:href="#DejaVuSans-32"/>
       <use x="190.820312" xlink:href="#DejaVuSans-107"/>
      </g>
     </g>
    </g>
    <g id="xtick_5">
     <g id="line2d_5">
      <g>
       <use style="stroke:#000000;stroke-width:0.8;" x="235.909881" xlink:href="#m647c5a99f6" y="288.430125"/>
      </g>
     </g>
     <g id="text_5">
      <!-- 2 k -->
      <g transform="translate(228.244256 303.028562)scale(0.1 -0.1)">
       <defs>
        <path d="M 19.1875 8.296875 
L 53.609375 8.296875 
L 53.609375 0 
L 7.328125 0 
L 7.328125 8.296875 
Q 12.9375 14.109375 22.625 23.890625 
Q 32.328125 33.6875 34.8125 36.53125 
Q 39.546875 41.84375 41.421875 45.53125 
Q 43.3125 49.21875 43.3125 52.78125 
Q 43.3125 58.59375 39.234375 62.25 
Q 35.15625 65.921875 28.609375 65.921875 
Q 23.96875 65.921875 18.8125 64.3125 
Q 13.671875 62.703125 7.8125 59.421875 
L 7.8125 69.390625 
Q 13.765625 71.78125 18.9375 73 
Q 24.125 74.21875 28.421875 74.21875 
Q 39.75 74.21875 46.484375 68.546875 
Q 53.21875 62.890625 53.21875 53.421875 
Q 53.21875 48.921875 51.53125 44.890625 
Q 49.859375 40.875 45.40625 35.40625 
Q 44.1875 33.984375 37.640625 27.21875 
Q 31.109375 20.453125 19.1875 8.296875 
z
" id="DejaVuSans-50"/>
       </defs>
       <use xlink:href="#DejaVuSans-50"/>
       <use x="63.623047" xlink:href="#DejaVuSans-32"/>
       <use x="95.410156" xlink:href="#DejaVuSans-107"/>
      </g>
     </g>
    </g>
    <g id="xtick_6">
     <g id="line2d_6">
      <g>
       <use style="stroke:#000000;stroke-width:0.8;" x="279.458446" xlink:href="#m647c5a99f6" y="288.430125"/>
      </g>
     </g>
     <g id="text_6">
      <!-- 2.5 k -->
      <g transform="translate(267.022508 303.028562)scale(0.1 -0.1)">
       <use xlink:href="#DejaVuSans-50"/>
       <use x="63.623047" xlink:href="#DejaVuSans-46"/>
       <use x="95.410156" xlink:href="#DejaVuSans-53"/>
       <use x="159.033203" xlink:href="#DejaVuSans-32"/>
       <use x="190.820312" xlink:href="#DejaVuSans-107"/>
      </g>
     </g>
    </g>
    <g id="xtick_7">
     <g id="line2d_7">
      <g>
       <use style="stroke:#000000;stroke-width:0.8;" x="323.00701" xlink:href="#m647c5a99f6" y="288.430125"/>
      </g>
     </g>
     <g id="text_7">
      <!-- 3 k -->
      <g transform="translate(315.341385 303.028562)scale(0.1 -0.1)">
       <defs>
        <path d="M 40.578125 39.3125 
Q 47.65625 37.796875 51.625 33 
Q 55.609375 28.21875 55.609375 21.1875 
Q 55.609375 10.40625 48.1875 4.484375 
Q 40.765625 -1.421875 27.09375 -1.421875 
Q 22.515625 -1.421875 17.65625 -0.515625 
Q 12.796875 0.390625 7.625 2.203125 
L 7.625 11.71875 
Q 11.71875 9.328125 16.59375 8.109375 
Q 21.484375 6.890625 26.8125 6.890625 
Q 36.078125 6.890625 40.9375 10.546875 
Q 45.796875 14.203125 45.796875 21.1875 
Q 45.796875 27.640625 41.28125 31.265625 
Q 36.765625 34.90625 28.71875 34.90625 
L 20.21875 34.90625 
L 20.21875 43.015625 
L 29.109375 43.015625 
Q 36.375 43.015625 40.234375 45.921875 
Q 44.09375 48.828125 44.09375 54.296875 
Q 44.09375 59.90625 40.109375 62.90625 
Q 36.140625 65.921875 28.71875 65.921875 
Q 24.65625 65.921875 20.015625 65.03125 
Q 15.375 64.15625 9.8125 62.3125 
L 9.8125 71.09375 
Q 15.4375 72.65625 20.34375 73.4375 
Q 25.25 74.21875 29.59375 74.21875 
Q 40.828125 74.21875 47.359375 69.109375 
Q 53.90625 64.015625 53.90625 55.328125 
Q 53.90625 49.265625 50.4375 45.09375 
Q 46.96875 40.921875 40.578125 39.3125 
z
" id="DejaVuSans-51"/>
       </defs>
       <use xlink:href="#DejaVuSans-51"/>
       <use x="63.623047" xlink:href="#DejaVuSans-32"/>
       <use x="95.410156" xlink:href="#DejaVuSans-107"/>
      </g>
     </g>
    </g>
    <g id="xtick_8">
     <g id="line2d_8">
      <g>
       <use style="stroke:#000000;stroke-width:0.8;" x="366.555574" xlink:href="#m647c5a99f6" y="288.430125"/>
      </g>
     </g>
     <g id="text_8">
      <!-- 3.5 k -->
      <g transform="translate(354.119636 303.028562)scale(0.1 -0.1)">
       <use xlink:href="#DejaVuSans-51"/>
       <use x="63.623047" xlink:href="#DejaVuSans-46"/>
       <use x="95.410156" xlink:href="#DejaVuSans-53"/>
       <use x="159.033203" xlink:href="#DejaVuSans-32"/>
       <use x="190.820312" xlink:href="#DejaVuSans-107"/>
      </g>
     </g>
    </g>
    <g id="xtick_9">
     <g id="line2d_9">
      <g>
       <use style="stroke:#000000;stroke-width:0.8;" x="410.104138" xlink:href="#m647c5a99f6" y="288.430125"/>
      </g>
     </g>
     <g id="text_9">
      <!-- 4 k -->
      <g transform="translate(402.438513 303.028562)scale(0.1 -0.1)">
       <defs>
        <path d="M 37.796875 64.3125 
L 12.890625 25.390625 
L 37.796875 25.390625 
z
M 35.203125 72.90625 
L 47.609375 72.90625 
L 47.609375 25.390625 
L 58.015625 25.390625 
L 58.015625 17.1875 
L 47.609375 17.1875 
L 47.609375 0 
L 37.796875 0 
L 37.796875 17.1875 
L 4.890625 17.1875 
L 4.890625 26.703125 
z
" id="DejaVuSans-52"/>
       </defs>
       <use xlink:href="#DejaVuSans-52"/>
       <use x="63.623047" xlink:href="#DejaVuSans-32"/>
       <use x="95.410156" xlink:href="#DejaVuSans-107"/>
      </g>
     </g>
    </g>
    <g id="text_10">
     <!-- Amount of objects in table -->
     <g transform="translate(174.217031 316.706687)scale(0.1 -0.1)">
      <defs>
       <path d="M 34.1875 63.1875 
L 20.796875 26.90625 
L 47.609375 26.90625 
z
M 28.609375 72.90625 
L 39.796875 72.90625 
L 67.578125 0 
L 57.328125 0 
L 50.6875 18.703125 
L 17.828125 18.703125 
L 11.1875 0 
L 0.78125 0 
z
" id="DejaVuSans-65"/>
       <path d="M 52 44.1875 
Q 55.375 50.25 60.0625 53.125 
Q 64.75 56 71.09375 56 
Q 79.640625 56 84.28125 50.015625 
Q 88.921875 44.046875 88.921875 33.015625 
L 88.921875 0 
L 79.890625 0 
L 79.890625 32.71875 
Q 79.890625 40.578125 77.09375 44.375 
Q 74.3125 48.1875 68.609375 48.1875 
Q 61.625 48.1875 57.5625 43.546875 
Q 53.515625 38.921875 53.515625 30.90625 
L 53.515625 0 
L 44.484375 0 
L 44.484375 32.71875 
Q 44.484375 40.625 41.703125 44.40625 
Q 38.921875 48.1875 33.109375 48.1875 
Q 26.21875 48.1875 22.15625 43.53125 
Q 18.109375 38.875 18.109375 30.90625 
L 18.109375 0 
L 9.078125 0 
L 9.078125 54.6875 
L 18.109375 54.6875 
L 18.109375 46.1875 
Q 21.1875 51.21875 25.484375 53.609375 
Q 29.78125 56 35.6875 56 
Q 41.65625 56 45.828125 52.96875 
Q 50 49.953125 52 44.1875 
z
" id="DejaVuSans-109"/>
       <path d="M 30.609375 48.390625 
Q 23.390625 48.390625 19.1875 42.75 
Q 14.984375 37.109375 14.984375 27.296875 
Q 14.984375 17.484375 19.15625 11.84375 
Q 23.34375 6.203125 30.609375 6.203125 
Q 37.796875 6.203125 41.984375 11.859375 
Q 46.1875 17.53125 46.1875 27.296875 
Q 46.1875 37.015625 41.984375 42.703125 
Q 37.796875 48.390625 30.609375 48.390625 
z
M 30.609375 56 
Q 42.328125 56 49.015625 48.375 
Q 55.71875 40.765625 55.71875 27.296875 
Q 55.71875 13.875 49.015625 6.21875 
Q 42.328125 -1.421875 30.609375 -1.421875 
Q 18.84375 -1.421875 12.171875 6.21875 
Q 5.515625 13.875 5.515625 27.296875 
Q 5.515625 40.765625 12.171875 48.375 
Q 18.84375 56 30.609375 56 
z
" id="DejaVuSans-111"/>
       <path d="M 8.5 21.578125 
L 8.5 54.6875 
L 17.484375 54.6875 
L 17.484375 21.921875 
Q 17.484375 14.15625 20.5 10.265625 
Q 23.53125 6.390625 29.59375 6.390625 
Q 36.859375 6.390625 41.078125 11.03125 
Q 45.3125 15.671875 45.3125 23.6875 
L 45.3125 54.6875 
L 54.296875 54.6875 
L 54.296875 0 
L 45.3125 0 
L 45.3125 8.40625 
Q 42.046875 3.421875 37.71875 1 
Q 33.40625 -1.421875 27.6875 -1.421875 
Q 18.265625 -1.421875 13.375 4.4375 
Q 8.5 10.296875 8.5 21.578125 
z
M 31.109375 56 
z
" id="DejaVuSans-117"/>
       <path d="M 54.890625 33.015625 
L 54.890625 0 
L 45.90625 0 
L 45.90625 32.71875 
Q 45.90625 40.484375 42.875 44.328125 
Q 39.84375 48.1875 33.796875 48.1875 
Q 26.515625 48.1875 22.3125 43.546875 
Q 18.109375 38.921875 18.109375 30.90625 
L 18.109375 0 
L 9.078125 0 
L 9.078125 54.6875 
L 18.109375 54.6875 
L 18.109375 46.1875 
Q 21.34375 51.125 25.703125 53.5625 
Q 30.078125 56 35.796875 56 
Q 45.21875 56 50.046875 50.171875 
Q 54.890625 44.34375 54.890625 33.015625 
z
" id="DejaVuSans-110"/>
       <path d="M 18.3125 70.21875 
L 18.3125 54.6875 
L 36.8125 54.6875 
L 36.8125 47.703125 
L 18.3125 47.703125 
L 18.3125 18.015625 
Q 18.3125 11.328125 20.140625 9.421875 
Q 21.96875 7.515625 27.59375 7.515625 
L 36.8125 7.515625 
L 36.8125 0 
L 27.59375 0 
Q 17.1875 0 13.234375 3.875 
Q 9.28125 7.765625 9.28125 18.015625 
L 9.28125 47.703125 
L 2.6875 47.703125 
L 2.6875 54.6875 
L 9.28125 54.6875 
L 9.28125 70.21875 
z
" id="DejaVuSans-116"/>
       <path d="M 37.109375 75.984375 
L 37.109375 68.5 
L 28.515625 68.5 
Q 23.6875 68.5 21.796875 66.546875 
Q 19.921875 64.59375 19.921875 59.515625 
L 19.921875 54.6875 
L 34.71875 54.6875 
L 34.71875 47.703125 
L 19.921875 47.703125 
L 19.921875 0 
L 10.890625 0 
L 10.890625 47.703125 
L 2.296875 47.703125 
L 2.296875 54.6875 
L 10.890625 54.6875 
L 10.890625 58.5 
Q 10.890625 67.625 15.140625 71.796875 
Q 19.390625 75.984375 28.609375 75.984375 
z
" id="DejaVuSans-102"/>
       <path d="M 48.6875 27.296875 
Q 48.6875 37.203125 44.609375 42.84375 
Q 40.53125 48.484375 33.40625 48.484375 
Q 26.265625 48.484375 22.1875 42.84375 
Q 18.109375 37.203125 18.109375 27.296875 
Q 18.109375 17.390625 22.1875 11.75 
Q 26.265625 6.109375 33.40625 6.109375 
Q 40.53125 6.109375 44.609375 11.75 
Q 48.6875 17.390625 48.6875 27.296875 
z
M 18.109375 46.390625 
Q 20.953125 51.265625 25.265625 53.625 
Q 29.59375 56 35.59375 56 
Q 45.5625 56 51.78125 48.09375 
Q 58.015625 40.1875 58.015625 27.296875 
Q 58.015625 14.40625 51.78125 6.484375 
Q 45.5625 -1.421875 35.59375 -1.421875 
Q 29.59375 -1.421875 25.265625 0.953125 
Q 20.953125 3.328125 18.109375 8.203125 
L 18.109375 0 
L 9.078125 0 
L 9.078125 75.984375 
L 18.109375 75.984375 
z
" id="DejaVuSans-98"/>
       <path d="M 9.421875 54.6875 
L 18.40625 54.6875 
L 18.40625 -0.984375 
Q 18.40625 -11.421875 14.421875 -16.109375 
Q 10.453125 -20.796875 1.609375 -20.796875 
L -1.8125 -20.796875 
L -1.8125 -13.1875 
L 0.59375 -13.1875 
Q 5.71875 -13.1875 7.5625 -10.8125 
Q 9.421875 -8.453125 9.421875 -0.984375 
z
M 9.421875 75.984375 
L 18.40625 75.984375 
L 18.40625 64.59375 
L 9.421875 64.59375 
z
" id="DejaVuSans-106"/>
       <path d="M 56.203125 29.59375 
L 56.203125 25.203125 
L 14.890625 25.203125 
Q 15.484375 15.921875 20.484375 11.0625 
Q 25.484375 6.203125 34.421875 6.203125 
Q 39.59375 6.203125 44.453125 7.46875 
Q 49.3125 8.734375 54.109375 11.28125 
L 54.109375 2.78125 
Q 49.265625 0.734375 44.1875 -0.34375 
Q 39.109375 -1.421875 33.890625 -1.421875 
Q 20.796875 -1.421875 13.15625 6.1875 
Q 5.515625 13.8125 5.515625 26.8125 
Q 5.515625 40.234375 12.765625 48.109375 
Q 20.015625 56 32.328125 56 
Q 43.359375 56 49.78125 48.890625 
Q 56.203125 41.796875 56.203125 29.59375 
z
M 47.21875 32.234375 
Q 47.125 39.59375 43.09375 43.984375 
Q 39.0625 48.390625 32.421875 48.390625 
Q 24.90625 48.390625 20.390625 44.140625 
Q 15.875 39.890625 15.1875 32.171875 
z
" id="DejaVuSans-101"/>
       <path d="M 48.78125 52.59375 
L 48.78125 44.1875 
Q 44.96875 46.296875 41.140625 47.34375 
Q 37.3125 48.390625 33.40625 48.390625 
Q 24.65625 48.390625 19.8125 42.84375 
Q 14.984375 37.3125 14.984375 27.296875 
Q 14.984375 17.28125 19.8125 11.734375 
Q 24.65625 6.203125 33.40625 6.203125 
Q 37.3125 6.203125 41.140625 7.25 
Q 44.96875 8.296875 48.78125 10.40625 
L 48.78125 2.09375 
Q 45.015625 0.34375 40.984375 -0.53125 
Q 36.96875 -1.421875 32.421875 -1.421875 
Q 20.0625 -1.421875 12.78125 6.34375 
Q 5.515625 14.109375 5.515625 27.296875 
Q 5.515625 40.671875 12.859375 48.328125 
Q 20.21875 56 33.015625 56 
Q 37.15625 56 41.109375 55.140625 
Q 45.0625 54.296875 48.78125 52.59375 
z
" id="DejaVuSans-99"/>
       <path d="M 44.28125 53.078125 
L 44.28125 44.578125 
Q 40.484375 46.53125 36.375 47.5 
Q 32.28125 48.484375 27.875 48.484375 
Q 21.1875 48.484375 17.84375 46.4375 
Q 14.5 44.390625 14.5 40.28125 
Q 14.5 37.15625 16.890625 35.375 
Q 19.28125 33.59375 26.515625 31.984375 
L 29.59375 31.296875 
Q 39.15625 29.25 43.1875 25.515625 
Q 47.21875 21.78125 47.21875 15.09375 
Q 47.21875 7.46875 41.1875 3.015625 
Q 35.15625 -1.421875 24.609375 -1.421875 
Q 20.21875 -1.421875 15.453125 -0.5625 
Q 10.6875 0.296875 5.421875 2 
L 5.421875 11.28125 
Q 10.40625 8.6875 15.234375 7.390625 
Q 20.0625 6.109375 24.8125 6.109375 
Q 31.15625 6.109375 34.5625 8.28125 
Q 37.984375 10.453125 37.984375 14.40625 
Q 37.984375 18.0625 35.515625 20.015625 
Q 33.0625 21.96875 24.703125 23.78125 
L 21.578125 24.515625 
Q 13.234375 26.265625 9.515625 29.90625 
Q 5.8125 33.546875 5.8125 39.890625 
Q 5.8125 47.609375 11.28125 51.796875 
Q 16.75 56 26.8125 56 
Q 31.78125 56 36.171875 55.265625 
Q 40.578125 54.546875 44.28125 53.078125 
z
" id="DejaVuSans-115"/>
       <path d="M 9.421875 54.6875 
L 18.40625 54.6875 
L 18.40625 0 
L 9.421875 0 
z
M 9.421875 75.984375 
L 18.40625 75.984375 
L 18.40625 64.59375 
L 9.421875 64.59375 
z
" id="DejaVuSans-105"/>
       <path d="M 34.28125 27.484375 
Q 23.390625 27.484375 19.1875 25 
Q 14.984375 22.515625 14.984375 16.5 
Q 14.984375 11.71875 18.140625 8.90625 
Q 21.296875 6.109375 26.703125 6.109375 
Q 34.1875 6.109375 38.703125 11.40625 
Q 43.21875 16.703125 43.21875 25.484375 
L 43.21875 27.484375 
z
M 52.203125 31.203125 
L 52.203125 0 
L 43.21875 0 
L 43.21875 8.296875 
Q 40.140625 3.328125 35.546875 0.953125 
Q 30.953125 -1.421875 24.3125 -1.421875 
Q 15.921875 -1.421875 10.953125 3.296875 
Q 6 8.015625 6 15.921875 
Q 6 25.140625 12.171875 29.828125 
Q 18.359375 34.515625 30.609375 34.515625 
L 43.21875 34.515625 
L 43.21875 35.40625 
Q 43.21875 41.609375 39.140625 45 
Q 35.0625 48.390625 27.6875 48.390625 
Q 23 48.390625 18.546875 47.265625 
Q 14.109375 46.140625 10.015625 43.890625 
L 10.015625 52.203125 
Q 14.9375 54.109375 19.578125 55.046875 
Q 24.21875 56 28.609375 56 
Q 40.484375 56 46.34375 49.84375 
Q 52.203125 43.703125 52.203125 31.203125 
z
" id="DejaVuSans-97"/>
       <path d="M 9.421875 75.984375 
L 18.40625 75.984375 
L 18.40625 0 
L 9.421875 0 
z
" id="DejaVuSans-108"/>
      </defs>
      <use xlink:href="#DejaVuSans-65"/>
      <use x="68.408203" xlink:href="#DejaVuSans-109"/>
      <use x="165.820312" xlink:href="#DejaVuSans-111"/>
      <use x="227.001953" xlink:href="#DejaVuSans-117"/>
      <use x="290.380859" xlink:href="#DejaVuSans-110"/>
      <use x="353.759766" xlink:href="#DejaVuSans-116"/>
      <use x="392.96875" xlink:href="#DejaVuSans-32"/>
      <use x="424.755859" xlink:href="#DejaVuSans-111"/>
      <use x="485.9375" xlink:href="#DejaVuSans-102"/>
      <use x="521.142578" xlink:href="#DejaVuSans-32"/>
      <use x="552.929688" xlink:href="#DejaVuSans-111"/>
      <use x="614.111328" xlink:href="#DejaVuSans-98"/>
      <use x="677.587891" xlink:href="#DejaVuSans-106"/>
      <use x="705.371094" xlink:href="#DejaVuSans-101"/>
      <use x="766.894531" xlink:href="#DejaVuSans-99"/>
      <use x="821.875" xlink:href="#DejaVuSans-116"/>
      <use x="861.083984" xlink:href="#DejaVuSans-115"/>
      <use x="913.183594" xlink:href="#DejaVuSans-32"/>
      <use x="944.970703" xlink:href="#DejaVuSans-105"/>
      <use x="972.753906" xlink:href="#DejaVuSans-110"/>
      <use x="1036.132812" xlink:href="#DejaVuSans-32"/>
      <use x="1067.919922" xlink:href="#DejaVuSans-116"/>
      <use x="1107.128906" xlink:href="#DejaVuSans-97"/>
      <use x="1168.408203" xlink:href="#DejaVuSans-98"/>
      <use x="1231.884766" xlink:href="#DejaVuSans-108"/>
      <use x="1259.667969" xlink:href="#DejaVuSans-101"/>
     </g>
    </g>
   </g>
   <g id="matplotlib.axis_2">
    <g id="ytick_1">
     <g id="line2d_10">
      <defs>
       <path d="M 0 0 
L -3.5 0 
" id="m9e9dc3a297" style="stroke:#000000;stroke-width:0.8;"/>
      </defs>
      <g>
       <use style="stroke:#000000;stroke-width:0.8;" x="61.715625" xlink:href="#m9e9dc3a297" y="288.430125"/>
      </g>
     </g>
     <g id="text_11">
      <!-- 0 -->
      <g transform="translate(48.353125 292.229344)scale(0.1 -0.1)">
       <use xlink:href="#DejaVuSans-48"/>
      </g>
     </g>
    </g>
    <g id="ytick_2">
     <g id="line2d_11">
      <g>
       <use style="stroke:#000000;stroke-width:0.8;" x="61.715625" xlink:href="#m9e9dc3a297" y="255.469534"/>
      </g>
     </g>
     <g id="text_12">
      <!-- 100 µs -->
      <g transform="translate(20.878125 259.268753)scale(0.1 -0.1)">
       <defs>
        <path d="M 8.5 -20.796875 
L 8.5 54.6875 
L 17.484375 54.6875 
L 17.484375 20.703125 
Q 17.484375 13.625 20.84375 10 
Q 24.21875 6.390625 30.8125 6.390625 
Q 38.03125 6.390625 41.671875 10.484375 
Q 45.3125 14.59375 45.3125 22.796875 
L 45.3125 54.6875 
L 54.296875 54.6875 
L 54.296875 12.59375 
Q 54.296875 9.671875 55.140625 8.28125 
Q 56 6.890625 57.8125 6.890625 
Q 58.25 6.890625 59.03125 7.15625 
Q 59.8125 7.421875 61.1875 8.015625 
L 61.1875 0.78125 
Q 59.1875 -0.34375 57.390625 -0.875 
Q 55.609375 -1.421875 53.90625 -1.421875 
Q 50.53125 -1.421875 48.53125 0.484375 
Q 46.53125 2.390625 45.796875 6.296875 
Q 43.359375 2.4375 39.8125 0.5 
Q 36.28125 -1.421875 31.5 -1.421875 
Q 26.515625 -1.421875 23.015625 0.484375 
Q 19.53125 2.390625 17.484375 6.203125 
L 17.484375 -20.796875 
z
" id="DejaVuSans-181"/>
       </defs>
       <use xlink:href="#DejaVuSans-49"/>
       <use x="63.623047" xlink:href="#DejaVuSans-48"/>
       <use x="127.246094" xlink:href="#DejaVuSans-48"/>
       <use x="190.869141" xlink:href="#DejaVuSans-32"/>
       <use x="222.65625" xlink:href="#DejaVuSans-181"/>
       <use x="286.279297" xlink:href="#DejaVuSans-115"/>
      </g>
     </g>
    </g>
    <g id="ytick_3">
     <g id="line2d_12">
      <g>
       <use style="stroke:#000000;stroke-width:0.8;" x="61.715625" xlink:href="#m9e9dc3a297" y="222.508944"/>
      </g>
     </g>
     <g id="text_13">
      <!-- 200 µs -->
      <g transform="translate(20.878125 226.308162)scale(0.1 -0.1)">
       <use xlink:href="#DejaVuSans-50"/>
       <use x="63.623047" xlink:href="#DejaVuSans-48"/>
       <use x="127.246094" xlink:href="#DejaVuSans-48"/>
       <use x="190.869141" xlink:href="#DejaVuSans-32"/>
       <use x="222.65625" xlink:href="#DejaVuSans-181"/>
       <use x="286.279297" xlink:href="#DejaVuSans-115"/>
      </g>
     </g>
    </g>
    <g id="ytick_4">
     <g id="line2d_13">
      <g>
       <use style="stroke:#000000;stroke-width:0.8;" x="61.715625" xlink:href="#m9e9dc3a297" y="189.548353"/>
      </g>
     </g>
     <g id="text_14">
      <!-- 300 µs -->
      <g transform="translate(20.878125 193.347572)scale(0.1 -0.1)">
       <use xlink:href="#DejaVuSans-51"/>
       <use x="63.623047" xlink:href="#DejaVuSans-48"/>
       <use x="127.246094" xlink:href="#DejaVuSans-48"/>
       <use x="190.869141" xlink:href="#DejaVuSans-32"/>
       <use x="222.65625" xlink:href="#DejaVuSans-181"/>
       <use x="286.279297" xlink:href="#DejaVuSans-115"/>
      </g>
     </g>
    </g>
    <g id="ytick_5">
     <g id="line2d_14">
      <g>
       <use style="stroke:#000000;stroke-width:0.8;" x="61.715625" xlink:href="#m9e9dc3a297" y="156.587762"/>
      </g>
     </g>
     <g id="text_15">
      <!-- 400 µs -->
      <g transform="translate(20.878125 160.386981)scale(0.1 -0.1)">
       <use xlink:href="#DejaVuSans-52"/>
       <use x="63.623047" xlink:href="#DejaVuSans-48"/>
       <use x="127.246094" xlink:href="#DejaVuSans-48"/>
       <use x="190.869141" xlink:href="#DejaVuSans-32"/>
       <use x="222.65625" xlink:href="#DejaVuSans-181"/>
       <use x="286.279297" xlink:href="#DejaVuSans-115"/>
      </g>
     </g>
    </g>
    <g id="ytick_6">
     <g id="line2d_15">
      <g>
       <use style="stroke:#000000;stroke-width:0.8;" x="61.715625" xlink:href="#m9e9dc3a297" y="123.627171"/>
      </g>
     </g>
     <g id="text_16">
      <!-- 500 µs -->
      <g transform="translate(20.878125 127.42639)scale(0.1 -0.1)">
       <use xlink:href="#DejaVuSans-53"/>
       <use x="63.623047" xlink:href="#DejaVuSans-48"/>
       <use x="127.246094" xlink:href="#DejaVuSans-48"/>
       <use x="190.869141" xlink:href="#DejaVuSans-32"/>
       <use x="222.65625" xlink:href="#DejaVuSans-181"/>
       <use x="286.279297" xlink:href="#DejaVuSans-115"/>
      </g>
     </g>
    </g>
    <g id="ytick_7">
     <g id="line2d_16">
      <g>
       <use style="stroke:#000000;stroke-width:0.8;" x="61.715625" xlink:href="#m9e9dc3a297" y="90.666581"/>
      </g>
     </g>
     <g id="text_17">
      <!-- 600 µs -->
      <g transform="translate(20.878125 94.465799)scale(0.1 -0.1)">
       <defs>
        <path d="M 33.015625 40.375 
Q 26.375 40.375 22.484375 35.828125 
Q 18.609375 31.296875 18.609375 23.390625 
Q 18.609375 15.53125 22.484375 10.953125 
Q 26.375 6.390625 33.015625 6.390625 
Q 39.65625 6.390625 43.53125 10.953125 
Q 47.40625 15.53125 47.40625 23.390625 
Q 47.40625 31.296875 43.53125 35.828125 
Q 39.65625 40.375 33.015625 40.375 
z
M 52.59375 71.296875 
L 52.59375 62.3125 
Q 48.875 64.0625 45.09375 64.984375 
Q 41.3125 65.921875 37.59375 65.921875 
Q 27.828125 65.921875 22.671875 59.328125 
Q 17.53125 52.734375 16.796875 39.40625 
Q 19.671875 43.65625 24.015625 45.921875 
Q 28.375 48.1875 33.59375 48.1875 
Q 44.578125 48.1875 50.953125 41.515625 
Q 57.328125 34.859375 57.328125 23.390625 
Q 57.328125 12.15625 50.6875 5.359375 
Q 44.046875 -1.421875 33.015625 -1.421875 
Q 20.359375 -1.421875 13.671875 8.265625 
Q 6.984375 17.96875 6.984375 36.375 
Q 6.984375 53.65625 15.1875 63.9375 
Q 23.390625 74.21875 37.203125 74.21875 
Q 40.921875 74.21875 44.703125 73.484375 
Q 48.484375 72.75 52.59375 71.296875 
z
" id="DejaVuSans-54"/>
       </defs>
       <use xlink:href="#DejaVuSans-54"/>
       <use x="63.623047" xlink:href="#DejaVuSans-48"/>
       <use x="127.246094" xlink:href="#DejaVuSans-48"/>
       <use x="190.869141" xlink:href="#DejaVuSans-32"/>
       <use x="222.65625" xlink:href="#DejaVuSans-181"/>
       <use x="286.279297" xlink:href="#DejaVuSans-115"/>
      </g>
     </g>
    </g>
    <g id="ytick_8">
     <g id="line2d_17">
      <g>
       <use style="stroke:#000000;stroke-width:0.8;" x="61.715625" xlink:href="#m9e9dc3a297" y="57.70599"/>
      </g>
     </g>
     <g id="text_18">
      <!-- 700 µs -->
      <g transform="translate(20.878125 61.505209)scale(0.1 -0.1)">
       <defs>
        <path d="M 8.203125 72.90625 
L 55.078125 72.90625 
L 55.078125 68.703125 
L 28.609375 0 
L 18.3125 0 
L 43.21875 64.59375 
L 8.203125 64.59375 
z
" id="DejaVuSans-55"/>
       </defs>
       <use xlink:href="#DejaVuSans-55"/>
       <use x="63.623047" xlink:href="#DejaVuSans-48"/>
       <use x="127.246094" xlink:href="#DejaVuSans-48"/>
       <use x="190.869141" xlink:href="#DejaVuSans-32"/>
       <use x="222.65625" xlink:href="#DejaVuSans-181"/>
       <use x="286.279297" xlink:href="#DejaVuSans-115"/>
      </g>
     </g>
    </g>
    <g id="ytick_9">
     <g id="line2d_18">
      <g>
       <use style="stroke:#000000;stroke-width:0.8;" x="61.715625" xlink:href="#m9e9dc3a297" y="24.745399"/>
      </g>
     </g>
     <g id="text_19">
      <!-- 800 µs -->
      <g transform="translate(20.878125 28.544618)scale(0.1 -0.1)">
       <defs>
        <path d="M 31.78125 34.625 
Q 24.75 34.625 20.71875 30.859375 
Q 16.703125 27.09375 16.703125 20.515625 
Q 16.703125 13.921875 20.71875 10.15625 
Q 24.75 6.390625 31.78125 6.390625 
Q 38.8125 6.390625 42.859375 10.171875 
Q 46.921875 13.96875 46.921875 20.515625 
Q 46.921875 27.09375 42.890625 30.859375 
Q 38.875 34.625 31.78125 34.625 
z
M 21.921875 38.8125 
Q 15.578125 40.375 12.03125 44.71875 
Q 8.5 49.078125 8.5 55.328125 
Q 8.5 64.0625 14.71875 69.140625 
Q 20.953125 74.21875 31.78125 74.21875 
Q 42.671875 74.21875 48.875 69.140625 
Q 55.078125 64.0625 55.078125 55.328125 
Q 55.078125 49.078125 51.53125 44.71875 
Q 48 40.375 41.703125 38.8125 
Q 48.828125 37.15625 52.796875 32.3125 
Q 56.78125 27.484375 56.78125 20.515625 
Q 56.78125 9.90625 50.3125 4.234375 
Q 43.84375 -1.421875 31.78125 -1.421875 
Q 19.734375 -1.421875 13.25 4.234375 
Q 6.78125 9.90625 6.78125 20.515625 
Q 6.78125 27.484375 10.78125 32.3125 
Q 14.796875 37.15625 21.921875 38.8125 
z
M 18.3125 54.390625 
Q 18.3125 48.734375 21.84375 45.5625 
Q 25.390625 42.390625 31.78125 42.390625 
Q 38.140625 42.390625 41.71875 45.5625 
Q 45.3125 48.734375 45.3125 54.390625 
Q 45.3125 60.0625 41.71875 63.234375 
Q 38.140625 66.40625 31.78125 66.40625 
Q 25.390625 66.40625 21.84375 63.234375 
Q 18.3125 60.0625 18.3125 54.390625 
z
" id="DejaVuSans-56"/>
       </defs>
       <use xlink:href="#DejaVuSans-56"/>
       <use x="63.623047" xlink:href="#DejaVuSans-48"/>
       <use x="127.246094" xlink:href="#DejaVuSans-48"/>
       <use x="190.869141" xlink:href="#DejaVuSans-32"/>
       <use x="222.65625" xlink:href="#DejaVuSans-181"/>
       <use x="286.279297" xlink:href="#DejaVuSans-115"/>
      </g>
     </g>
    </g>
    <g id="text_20">
     <!-- Write latency (s) -->
     <g transform="translate(14.798438 196.625687)rotate(-90)scale(0.1 -0.1)">
      <defs>
       <path d="M 3.328125 72.90625 
L 13.28125 72.90625 
L 28.609375 11.28125 
L 43.890625 72.90625 
L 54.984375 72.90625 
L 70.3125 11.28125 
L 85.59375 72.90625 
L 95.609375 72.90625 
L 77.296875 0 
L 64.890625 0 
L 49.515625 63.28125 
L 33.984375 0 
L 21.578125 0 
z
" id="DejaVuSans-87"/>
       <path d="M 41.109375 46.296875 
Q 39.59375 47.171875 37.8125 47.578125 
Q 36.03125 48 33.890625 48 
Q 26.265625 48 22.1875 43.046875 
Q 18.109375 38.09375 18.109375 28.8125 
L 18.109375 0 
L 9.078125 0 
L 9.078125 54.6875 
L 18.109375 54.6875 
L 18.109375 46.1875 
Q 20.953125 51.171875 25.484375 53.578125 
Q 30.03125 56 36.53125 56 
Q 37.453125 56 38.578125 55.875 
Q 39.703125 55.765625 41.0625 55.515625 
z
" id="DejaVuSans-114"/>
       <path d="M 32.171875 -5.078125 
Q 28.375 -14.84375 24.75 -17.8125 
Q 21.140625 -20.796875 15.09375 -20.796875 
L 7.90625 -20.796875 
L 7.90625 -13.28125 
L 13.1875 -13.28125 
Q 16.890625 -13.28125 18.9375 -11.515625 
Q 21 -9.765625 23.484375 -3.21875 
L 25.09375 0.875 
L 2.984375 54.6875 
L 12.5 54.6875 
L 29.59375 11.921875 
L 46.6875 54.6875 
L 56.203125 54.6875 
z
" id="DejaVuSans-121"/>
       <path d="M 31 75.875 
Q 24.46875 64.65625 21.28125 53.65625 
Q 18.109375 42.671875 18.109375 31.390625 
Q 18.109375 20.125 21.3125 9.0625 
Q 24.515625 -2 31 -13.1875 
L 23.1875 -13.1875 
Q 15.875 -1.703125 12.234375 9.375 
Q 8.59375 20.453125 8.59375 31.390625 
Q 8.59375 42.28125 12.203125 53.3125 
Q 15.828125 64.359375 23.1875 75.875 
z
" id="DejaVuSans-40"/>
       <path d="M 8.015625 75.875 
L 15.828125 75.875 
Q 23.140625 64.359375 26.78125 53.3125 
Q 30.421875 42.28125 30.421875 31.390625 
Q 30.421875 20.453125 26.78125 9.375 
Q 23.140625 -1.703125 15.828125 -13.1875 
L 8.015625 -13.1875 
Q 14.5 -2 17.703125 9.0625 
Q 20.90625 20.125 20.90625 31.390625 
Q 20.90625 42.671875 17.703125 53.65625 
Q 14.5 64.65625 8.015625 75.875 
z
" id="DejaVuSans-41"/>
      </defs>
      <use xlink:href="#DejaVuSans-87"/>
      <use x="94.376953" xlink:href="#DejaVuSans-114"/>
      <use x="135.490234" xlink:href="#DejaVuSans-105"/>
      <use x="163.273438" xlink:href="#DejaVuSans-116"/>
      <use x="202.482422" xlink:href="#DejaVuSans-101"/>
      <use x="264.005859" xlink:href="#DejaVuSans-32"/>
      <use x="295.792969" xlink:href="#DejaVuSans-108"/>
      <use x="323.576172" xlink:href="#DejaVuSans-97"/>
      <use x="384.855469" xlink:href="#DejaVuSans-116"/>
      <use x="424.064453" xlink:href="#DejaVuSans-101"/>
      <use x="485.587891" xlink:href="#DejaVuSans-110"/>
      <use x="548.966797" xlink:href="#DejaVuSans-99"/>
      <use x="603.947266" xlink:href="#DejaVuSans-121"/>
      <use x="663.126953" xlink:href="#DejaVuSans-32"/>
      <use x="694.914062" xlink:href="#DejaVuSans-40"/>
      <use x="733.927734" xlink:href="#DejaVuSans-115"/>
      <use x="786.027344" xlink:href="#DejaVuSans-41"/>
     </g>
    </g>
   </g>
   <g id="line2d_19">
    <path clip-path="url(#p7ba2f87e01)" d="M 147.070811 59.703034 
L 147.506296 59.246842 
L 147.941782 59.250066 
L 148.377268 59.390309 
L 148.812753 59.758647 
L 149.248239 58.881325 
L 149.683725 59.004642 
L 150.11921 58.901475 
L 150.554696 59.302859 
L 150.990181 59.147303 
L 151.425667 59.185184 
L 151.861153 60.1963 
L 152.732124 61.727684 
L 153.16761 62.598558 
L 153.603095 62.787563 
L 154.038581 62.587677 
L 154.474067 62.169771 
L 154.909552 62.222966 
L 155.345038 62.44139 
L 157.522466 61.921122 
L 157.957952 61.935227 
L 158.393437 61.518127 
L 158.828923 61.531022 
L 159.264409 61.759521 
L 159.699894 61.859464 
L 160.570866 62.694874 
L 161.441837 63.063212 
L 161.877322 63.534717 
L 162.748294 63.698334 
L 163.183779 64.185152 
L 163.619265 64.289931 
L 164.054751 64.996786 
L 164.490236 64.949635 
L 164.925722 65.443305 
L 165.361208 65.558965 
L 166.667665 66.350449 
L 167.10315 65.916422 
L 167.538636 66.470944 
L 167.974121 66.393166 
L 168.409607 66.574514 
L 168.845093 66.187235 
L 169.280578 66.105427 
L 169.716064 66.912628 
L 170.587035 67.885459 
L 171.022521 68.059554 
L 171.458007 68.606016 
L 171.893492 68.725706 
L 172.764463 68.645106 
L 173.635435 68.502446 
L 174.506406 68.001925 
L 174.941892 68.244529 
L 175.377377 68.350114 
L 175.812863 68.25944 
L 176.248349 68.342457 
L 177.11932 68.095823 
L 177.554806 68.141765 
L 177.990291 67.777457 
L 178.425777 67.783099 
L 178.861262 68.324322 
L 179.296748 68.280798 
L 179.732234 68.358576 
L 181.038691 68.906248 
L 181.474176 69.063416 
L 181.909662 69.412007 
L 182.780633 69.270556 
L 183.651605 69.004176 
L 184.08709 68.545969 
L 185.829033 68.744646 
L 186.700004 69.173031 
L 187.13549 69.161747 
L 187.570975 69.323751 
L 188.006461 70.060831 
L 188.877432 70.306255 
L 189.312918 69.257257 
L 189.748403 69.190763 
L 190.183889 56.902616 
L 190.619375 57.269745 
L 191.05486 57.853686 
L 191.490346 58.100723 
L 191.925832 58.175277 
L 192.361317 56.912288 
L 192.796803 57.452705 
L 193.232289 57.281432 
L 193.667774 56.873197 
L 194.10326 56.880451 
L 195.409717 57.692891 
L 195.845202 57.638083 
L 196.280688 57.412003 
L 196.716174 57.669517 
L 197.151659 57.445048 
L 197.587145 58.10032 
L 198.022631 58.097096 
L 198.458116 58.507345 
L 198.893602 58.432791 
L 199.329088 58.861176 
L 199.764573 58.449314 
L 200.200059 58.849489 
L 201.07103 58.600034 
L 201.506516 58.727784 
L 201.942001 58.674588 
L 202.377487 58.790651 
L 202.812973 59.129168 
L 203.248458 58.544018 
L 204.990401 58.352192 
L 205.425887 58.219606 
L 205.861372 58.379193 
L 206.296858 58.327609 
L 206.732343 58.492434 
L 207.167829 58.386447 
L 207.603315 57.899628 
L 209.780743 57.487766 
L 210.216229 58.224442 
L 210.651714 58.194218 
L 211.0872 58.400551 
L 211.522686 58.400148 
L 211.958171 59.304874 
L 212.393657 59.518059 
L 212.829142 58.937745 
L 214.135599 58.825712 
L 214.571085 71.94806 
L 215.442056 72.004479 
L 216.313028 71.190831 
L 216.748513 71.244429 
L 217.183999 70.545634 
L 217.619485 71.153755 
L 218.05497 70.907525 
L 218.490456 71.032453 
L 218.925941 71.032856 
L 219.361427 71.476958 
L 219.796913 71.654679 
L 220.232398 71.16383 
L 220.667884 71.232339 
L 221.538855 70.294568 
L 222.409827 69.925021 
L 222.845312 70.048338 
L 223.716283 70.517425 
L 224.151769 71.255713 
L 224.587255 71.264176 
L 225.02274 71.624051 
L 225.893712 71.584154 
L 226.764683 71.761876 
L 227.200169 71.310923 
L 227.635654 71.572871 
L 228.07114 72.373623 
L 228.942111 72.465909 
L 229.377597 73.30011 
L 230.248568 73.256587 
L 230.684054 72.0746 
L 231.119539 72.200335 
L 231.555025 72.062913 
L 231.990511 72.225321 
L 232.861482 72.813292 
L 233.732453 72.876562 
L 234.167939 73.475817 
L 235.474396 73.493951 
L 235.909881 73.61485 
L 236.780853 73.248527 
L 237.216338 73.562461 
L 237.651824 73.582207 
L 238.522795 73.386351 
L 238.958281 73.549968 
L 239.393767 73.946919 
L 239.829252 73.886872 
L 240.264738 73.662001 
L 240.700224 73.692628 
L 241.135709 73.930396 
L 241.571195 72.043167 
L 242.00668 72.192678 
L 242.877652 71.931537 
L 243.313137 72.409087 
L 243.748623 71.697799 
L 244.184109 71.675635 
L 244.619594 71.485824 
L 245.490566 71.569244 
L 246.797022 71.165845 
L 247.667994 71.308908 
L 248.974451 71.47857 
L 249.409936 71.368552 
L 249.845422 71.123933 
L 250.280908 71.028826 
L 250.716393 69.869005 
L 251.151879 69.883109 
L 252.02285 70.195028 
L 253.329307 69.829511 
L 253.764793 70.656861 
L 254.200278 70.001187 
L 254.635764 70.207118 
L 255.506735 69.820242 
L 255.942221 70.067681 
L 256.377707 70.158758 
L 256.813192 69.835153 
L 257.684164 69.986679 
L 258.119649 69.891169 
L 258.555135 69.380171 
L 259.426106 69.600206 
L 259.861592 69.042057 
L 260.297077 69.072282 
L 261.603534 68.667271 
L 262.474506 68.219946 
L 262.909991 68.463758 
L 263.345477 68.526223 
L 264.216448 68.383159 
L 264.651934 68.57297 
L 265.087419 68.423862 
L 265.958391 67.876594 
L 266.393876 67.788337 
L 266.829362 67.363983 
L 267.700333 67.266458 
L 268.135819 67.419596 
L 268.571305 67.384939 
L 269.00679 67.813726 
L 269.442276 67.67832 
L 269.877761 67.776651 
L 270.313247 67.689604 
L 271.184218 67.715395 
L 271.619704 68.036583 
L 272.05519 68.219543 
L 272.926161 68.032956 
L 273.361647 67.82904 
L 273.797132 67.794785 
L 274.232618 68.288052 
L 274.668104 68.359785 
L 275.103589 80.299341 
L 276.410046 80.459733 
L 276.845532 80.653574 
L 277.281017 81.891174 
L 278.587474 82.32923 
L 279.02296 82.155942 
L 279.458446 82.145867 
L 279.893931 82.446099 
L 280.764902 82.392098 
L 281.200388 82.62382 
L 281.635874 82.610521 
L 282.071359 82.833781 
L 282.506845 82.737465 
L 282.942331 82.444487 
L 284.248788 82.409426 
L 284.684273 82.317946 
L 285.555245 82.558132 
L 285.99073 82.470682 
L 286.426216 82.191809 
L 286.861701 82.07494 
L 287.297187 82.09912 
L 287.732673 82.247422 
L 288.168158 83.015532 
L 288.603644 83.138446 
L 289.474615 83.046563 
L 290.345587 83.255315 
L 290.781072 82.581506 
L 292.087529 82.694344 
L 292.9585 82.38162 
L 293.393986 81.958877 
L 293.829472 81.890368 
L 294.264957 81.964519 
L 294.700443 80.83331 
L 295.135929 81.320532 
L 295.571414 81.250411 
L 296.0069 80.975568 
L 296.877871 81.062212 
L 297.313357 81.05254 
L 297.748842 81.934294 
L 298.184328 81.775917 
L 300.361756 81.680407 
L 300.797242 82.18657 
L 301.232728 82.468667 
L 301.668213 82.361873 
L 302.103699 83.120311 
L 302.539185 82.766481 
L 302.97467 83.113863 
L 303.845641 82.78663 
L 304.281127 83.048981 
L 305.587584 82.7153 
L 306.02307 83.232344 
L 306.894041 83.300047 
L 307.329527 83.39999 
L 308.200498 83.335108 
L 309.071469 83.684505 
L 309.94244 83.63816 
L 311.248897 83.76994 
L 311.684383 83.648638 
L 312.555354 84.472362 
L 312.99084 84.50178 
L 313.426326 84.667009 
L 313.861811 84.678696 
L 314.297297 84.294641 
L 314.732782 84.32285 
L 315.168268 84.128606 
L 315.603754 85.374669 
L 316.039239 84.304715 
L 316.474725 83.996021 
L 317.345696 83.968214 
L 317.781182 83.827568 
L 318.216668 83.118699 
L 319.087639 83.096534 
L 319.95861 83.171894 
L 320.394096 82.002804 
L 321.265067 81.969758 
L 321.700553 81.561926 
L 322.571524 81.479312 
L 323.00701 81.694915 
L 323.877981 81.590942 
L 324.313467 80.581035 
L 324.748952 80.450867 
L 325.619924 80.592722 
L 326.055409 80.454897 
L 326.490895 82.695956 
L 326.92638 82.298603 
L 327.361866 82.220824 
L 327.797352 81.743274 
L 328.232837 81.666302 
L 328.668323 82.527504 
L 329.103809 82.338902 
L 329.539294 81.894398 
L 330.845751 81.50188 
L 331.281237 81.639302 
L 332.152208 81.462789 
L 333.458665 80.73377 
L 333.894151 80.728934 
L 334.329636 80.974359 
L 334.765122 81.078331 
L 335.200608 80.744248 
L 335.636093 81.736021 
L 336.071579 81.534926 
L 336.507065 81.514776 
L 336.94255 81.726349 
L 338.684493 81.980639 
L 339.119978 82.303036 
L 340.426435 82.474712 
L 340.861921 82.223242 
L 341.297407 81.497044 
L 341.732892 81.596987 
L 342.603864 80.850236 
L 343.039349 80.948164 
L 343.474835 81.423699 
L 344.345806 81.528881 
L 344.781292 82.126523 
L 345.216777 81.284665 
L 346.523234 81.707408 
L 347.394206 82.004819 
L 348.265177 81.691288 
L 349.136148 81.876666 
L 350.007119 82.011267 
L 350.442605 81.833143 
L 350.878091 81.790828 
L 351.313576 81.486163 
L 351.749062 81.82871 
L 352.184548 81.98749 
L 352.620033 81.931876 
L 353.055519 81.72917 
L 353.491005 81.773499 
L 353.92649 81.443446 
L 354.361976 81.696527 
L 355.232947 81.56918 
L 355.668433 81.645749 
L 356.103918 81.520418 
L 356.539404 80.306595 
L 356.97489 80.228816 
L 357.410375 80.400493 
L 357.845861 79.61989 
L 358.716832 79.762953 
L 359.152318 79.643264 
L 359.587804 79.145564 
L 360.023289 79.484483 
L 360.458775 78.168299 
L 360.89426 77.544462 
L 361.329746 77.627076 
L 361.765232 77.511416 
L 362.636203 77.786259 
L 363.507174 77.803185 
L 363.94266 78.086491 
L 364.378146 77.867261 
L 364.813631 77.93698 
L 365.249117 77.591612 
L 365.684603 77.488042 
L 366.555574 76.915788 
L 367.426545 76.958506 
L 367.862031 77.419936 
L 368.297516 77.418727 
L 368.733002 77.180154 
L 369.168488 77.204333 
L 369.603973 77.679062 
L 371.345916 77.933353 
L 371.781401 78.07158 
L 372.652373 78.061102 
L 373.523344 77.764094 
L 375.265287 77.75684 
L 375.700772 78.481427 
L 376.136258 78.316199 
L 376.571744 78.340781 
L 377.007229 78.090521 
L 377.442715 78.57331 
L 377.8782 78.741359 
L 378.313686 79.362779 
L 378.749172 79.302732 
L 379.184657 79.424437 
L 379.620143 80.669694 
L 380.9266 80.801473 
L 381.362086 80.947358 
L 381.797571 80.907461 
L 382.233057 80.443613 
L 383.104028 80.265086 
L 383.539514 79.828642 
L 384.410485 79.704116 
L 384.845971 78.871527 
L 386.152428 78.702268 
L 386.587913 78.774002 
L 387.458885 78.59346 
L 387.89437 78.711134 
L 388.329856 78.296452 
L 388.765341 78.399216 
L 389.200827 78.31902 
L 390.071798 79.417183 
L 390.507284 79.494558 
L 390.94277 79.434109 
L 391.813741 79.584023 
L 392.684712 79.395824 
L 393.120198 79.233417 
L 393.555684 78.943663 
L 395.733112 79.073025 
L 396.168597 78.93923 
L 396.604083 78.950111 
L 397.475054 78.682119 
L 397.91054 77.672211 
L 398.346026 77.461848 
L 398.781511 77.382054 
L 399.216997 77.669793 
L 399.652483 77.738706 
L 400.087968 78.112283 
L 400.523454 78.035714 
L 400.958939 79.099219 
L 401.394425 79.156848 
L 401.829911 79.075846 
L 401.829911 79.075846 
" style="fill:none;stroke:#1f77b4;stroke-linecap:square;stroke-opacity:0.8;stroke-width:1.5;"/>
   </g>
   <g id="line2d_20">
    <path clip-path="url(#p7ba2f87e01)" d="M 147.070811 44.743831 
L 147.506296 44.772041 
L 147.941782 44.637037 
L 148.377268 44.298521 
L 148.812753 43.78591 
L 149.248239 43.8383 
L 149.683725 44.353328 
L 150.11921 43.524769 
L 150.554696 43.716998 
L 150.990181 43.671057 
L 151.425667 44.509691 
L 151.861153 44.398867 
L 152.296638 44.493571 
L 153.16761 44.266281 
L 154.038581 43.881017 
L 154.474067 43.938243 
L 155.345038 43.656146 
L 155.780523 44.27958 
L 157.08698 44.199384 
L 157.957952 44.393628 
L 158.393437 45.294323 
L 158.828923 45.224202 
L 159.264409 44.760757 
L 159.699894 42.793332 
L 160.13538 43.161267 
L 160.570866 43.064951 
L 161.006351 43.435707 
L 161.441837 43.245896 
L 161.877322 43.426438 
L 163.183779 43.449006 
L 163.619265 43.902779 
L 164.054751 43.821777 
L 165.796693 43.941467 
L 166.667665 43.807672 
L 167.10315 43.910436 
L 167.538636 43.273703 
L 168.409607 43.491723 
L 169.280578 44.307387 
L 170.15155 44.468182 
L 170.587035 44.012797 
L 171.893492 43.995871 
L 172.328978 44.22437 
L 172.764463 44.234445 
L 173.199949 44.075261 
L 174.07092 44.235654 
L 174.506406 43.86933 
L 174.941892 44.048261 
L 175.377377 44.044634 
L 175.812863 44.189712 
L 176.248349 44.522184 
L 176.683834 45.104915 
L 179.732234 44.701517 
L 180.167719 44.289655 
L 180.603205 44.209459 
L 181.038691 44.477048 
L 181.474176 44.138532 
L 181.909662 44.161502 
L 182.780633 44.591499 
L 183.216119 45.295532 
L 183.651605 45.554659 
L 184.08709 45.420058 
L 184.522576 44.563692 
L 185.393547 44.619709 
L 185.829033 44.314641 
L 186.264518 44.378717 
L 186.700004 44.55805 
L 187.13549 44.521378 
L 187.570975 44.349298 
L 188.006461 44.421435 
L 188.441947 44.798236 
L 188.877432 44.695472 
L 189.312918 44.7531 
L 189.748403 44.930015 
L 191.05486 44.435942 
L 191.490346 44.03738 
L 191.925832 43.908018 
L 192.361317 43.451021 
L 192.796803 43.562651 
L 193.667774 43.32851 
L 194.10326 43.239045 
L 196.280688 43.723043 
L 196.716174 44.05632 
L 197.151659 43.955572 
L 197.587145 44.156263 
L 198.022631 44.153845 
L 198.458116 44.004334 
L 198.893602 44.041813 
L 199.329088 43.829031 
L 199.764573 43.926959 
L 200.200059 44.388792 
L 200.635545 44.287237 
L 201.07103 44.309805 
L 201.506516 44.492362 
L 201.942001 44.338418 
L 203.248458 44.192936 
L 203.683944 44.085739 
L 204.11943 44.392419 
L 204.554915 44.422241 
L 204.990401 44.328343 
L 205.425887 44.564095 
L 205.861372 44.516542 
L 206.296858 44.628977 
L 207.167829 44.108307 
L 208.0388 44.165935 
L 208.474286 43.735939 
L 208.909772 43.787119 
L 209.345257 44.182861 
L 210.216229 43.926153 
L 210.651714 43.89754 
L 211.0872 43.544919 
L 211.522686 43.383721 
L 211.958171 42.972665 
L 212.829142 44.088963 
L 213.264628 44.29973 
L 213.700114 44.047052 
L 216.313028 44.155457 
L 216.748513 43.511067 
L 217.183999 43.461499 
L 217.619485 43.715386 
L 218.05497 43.6231 
L 218.490456 42.801392 
L 218.925941 42.514862 
L 219.361427 42.443531 
L 219.796913 42.640596 
L 220.232398 42.408874 
L 221.10337 42.603521 
L 221.538855 42.39759 
L 221.974341 41.958728 
L 222.409827 41.877725 
L 222.845312 41.95631 
L 223.280798 41.760454 
L 223.716283 42.200122 
L 224.151769 42.470532 
L 225.02274 41.670183 
L 225.893712 41.676631 
L 226.329197 41.189409 
L 226.764683 41.91601 
L 227.200169 41.691138 
L 227.635654 41.713303 
L 228.07114 41.516641 
L 228.506626 41.089869 
L 229.377597 41.340129 
L 229.813082 41.498909 
L 230.684054 42.247676 
L 231.119539 42.486249 
L 231.555025 43.16167 
L 232.425996 43.020218 
L 232.861482 43.133057 
L 233.296968 43.421199 
L 233.732453 43.915272 
L 234.167939 43.677504 
L 234.603425 43.594487 
L 235.03891 44.232833 
L 235.474396 44.207041 
L 235.909881 44.378717 
L 237.651824 44.198578 
L 238.08731 44.656784 
L 238.522795 44.690636 
L 238.958281 43.945497 
L 239.393767 43.904794 
L 239.829252 44.003931 
L 240.264738 43.927765 
L 240.700224 43.351078 
L 241.135709 43.302718 
L 241.571195 42.769555 
L 242.00668 42.632133 
L 242.442166 42.296841 
L 243.313137 42.278706 
L 243.748623 42.993218 
L 244.184109 43.462305 
L 244.619594 45.046078 
L 245.490566 43.725864 
L 245.926051 43.608995 
L 247.232508 43.959199 
L 247.667994 43.514291 
L 248.103479 43.318435 
L 248.538965 43.392586 
L 249.409936 43.280151 
L 249.845422 42.543877 
L 250.280908 42.238004 
L 250.716393 42.145315 
L 251.151879 42.191659 
L 252.02285 41.93616 
L 252.458336 42.488264 
L 253.329307 42.280721 
L 253.764793 42.290796 
L 254.635764 42.018774 
L 255.07125 41.245425 
L 255.506735 42.005878 
L 255.942221 41.844277 
L 256.813192 42.040939 
L 257.684164 42.026028 
L 258.555135 39.986466 
L 258.99062 39.888135 
L 259.426106 40.256071 
L 259.861592 40.068677 
L 261.603534 39.829298 
L 262.474506 39.388421 
L 263.780962 39.359808 
L 264.216448 39.553649 
L 264.651934 38.415186 
L 265.087419 38.848003 
L 265.522905 38.063774 
L 265.958391 37.923934 
L 266.393876 38.018638 
L 266.829362 37.835678 
L 267.700333 37.828827 
L 268.135819 37.718406 
L 269.00679 37.879605 
L 269.442276 38.490949 
L 269.877761 38.484904 
L 270.748733 38.827854 
L 271.184218 38.669476 
L 272.490675 38.675924 
L 272.926161 38.102058 
L 273.797132 38.368841 
L 274.668104 37.972697 
L 276.410046 38.589683 
L 277.281017 39.703966 
L 277.716503 39.82285 
L 279.458446 39.604829 
L 279.893931 39.529066 
L 280.764902 39.682205 
L 281.635874 39.575814 
L 282.506845 38.737986 
L 283.377816 38.765792 
L 283.813302 37.565671 
L 285.119759 36.805621 
L 285.555245 36.868488 
L 285.99073 36.806024 
L 286.426216 37.350471 
L 286.861701 37.501998 
L 287.297187 37.221915 
L 288.168158 37.362964 
L 288.603644 37.50643 
L 289.03913 37.525371 
L 289.910101 37.853813 
L 291.652044 38.419619 
L 292.087529 38.796017 
L 292.9585 38.977768 
L 293.393986 38.746045 
L 294.264957 38.507472 
L 294.700443 38.744836 
L 296.0069 38.002115 
L 296.442386 37.245692 
L 296.877871 37.3678 
L 297.313357 37.678913 
L 297.748842 37.491117 
L 298.619814 36.335325 
L 299.055299 36.043959 
L 299.490785 36.156395 
L 299.926271 35.914597 
L 300.797242 36.07499 
L 301.232728 35.381031 
L 301.668213 35.885985 
L 302.103699 35.494676 
L 302.539185 35.310507 
L 302.97467 35.392718 
L 303.410156 36.833428 
L 303.845641 36.83101 
L 304.716613 36.2378 
L 305.587584 36.326056 
L 306.02307 36.031466 
L 306.458555 36.355878 
L 307.329527 36.027839 
L 307.765012 36.03066 
L 308.200498 36.217247 
L 308.635984 36.171306 
L 309.071469 35.514019 
L 309.506955 36.563823 
L 309.94244 37.260603 
L 310.377926 37.330724 
L 310.813412 37.195318 
L 311.248897 37.688585 
L 312.119869 37.6503 
L 312.99084 37.676898 
L 313.426326 38.133089 
L 313.861811 38.253182 
L 314.297297 38.080699 
L 314.732782 38.355543 
L 315.168268 37.950129 
L 315.603754 38.0404 
L 316.474725 37.548342 
L 317.345696 37.678913 
L 318.216668 37.773617 
L 318.652153 37.50361 
L 319.087639 37.806259 
L 319.95861 37.774826 
L 320.394096 38.079893 
L 320.829581 37.794572 
L 321.265067 37.909023 
L 321.700553 37.712764 
L 322.136038 38.029922 
L 322.571524 38.071431 
L 323.00701 37.74178 
L 323.442495 36.836652 
L 323.877981 36.897907 
L 324.313467 36.455821 
L 324.748952 36.260368 
L 325.184438 36.291398 
L 325.619924 36.735903 
L 326.055409 36.749604 
L 326.490895 37.124391 
L 326.92638 37.03694 
L 327.361866 37.480639 
L 327.797352 37.125197 
L 328.232837 36.589212 
L 329.103809 36.346609 
L 329.539294 36.48 
L 330.410266 37.819558 
L 331.281237 37.526983 
L 331.716722 37.337172 
L 332.152208 37.551969 
L 332.587694 38.165329 
L 334.329636 38.302347 
L 334.765122 38.803674 
L 335.200608 36.473552 
L 335.636093 36.509419 
L 336.071579 36.353057 
L 336.507065 35.967793 
L 336.94255 36.080229 
L 337.378036 35.10377 
L 338.249007 35.195653 
L 339.119978 35.129562 
L 339.555464 34.990125 
L 339.99095 35.70383 
L 340.426435 35.933941 
L 340.861921 35.924269 
L 341.297407 35.721965 
L 341.732892 35.651441 
L 342.168378 35.769519 
L 342.603864 35.608723 
L 343.474835 37.774826 
L 343.91032 36.748798 
L 344.345806 36.13826 
L 345.216777 36.331295 
L 346.523234 36.405446 
L 347.394206 36.824562 
L 347.829691 36.967222 
L 348.265177 37.288813 
L 348.700662 36.987775 
L 349.136148 36.89428 
L 349.571634 38.017026 
L 350.007119 38.015414 
L 350.442605 38.882258 
L 350.878091 38.759747 
L 351.313576 38.791181 
L 351.749062 38.964469 
L 352.184548 38.843973 
L 353.055519 39.057158 
L 354.361976 38.953588 
L 354.797461 39.053934 
L 355.232947 38.900393 
L 355.668433 37.944487 
L 356.103918 38.008563 
L 356.539404 37.953756 
L 356.97489 37.669644 
L 357.410375 37.684958 
L 357.845861 38.030728 
L 358.281347 37.580582 
L 359.587804 37.044597 
L 360.023289 36.94949 
L 360.458775 37.090136 
L 362.200717 36.718171 
L 362.636203 36.384893 
L 363.071689 36.439298 
L 363.507174 36.286562 
L 363.94266 36.254726 
L 364.378146 36.460657 
L 365.684603 36.197903 
L 366.120088 35.781206 
L 366.555574 35.571648 
L 366.991059 36.239815 
L 367.426545 36.381669 
L 367.862031 36.232158 
L 368.297516 36.59969 
L 368.733002 37.547536 
L 369.603973 37.884038 
L 370.039459 38.685193 
L 370.91043 38.215703 
L 371.345916 37.556805 
L 371.781401 37.703092 
L 374.829801 37.539073 
L 375.265287 37.244483 
L 376.571744 37.075628 
L 377.007229 36.89831 
L 377.8782 36.257144 
L 378.313686 36.399804 
L 378.749172 36.199515 
L 379.184657 36.31316 
L 379.620143 35.272222 
L 380.491114 35.571245 
L 380.9266 35.898477 
L 381.362086 36.507001 
L 382.233057 36.817308 
L 382.668543 36.335325 
L 383.539514 37.5427 
L 383.974999 37.655136 
L 384.410485 37.576149 
L 384.845971 37.768378 
L 385.716942 37.302918 
L 386.152428 37.645061 
L 387.89437 37.679316 
L 388.329856 37.23199 
L 389.200827 37.435503 
L 390.071798 37.215065 
L 390.94277 37.322664 
L 391.378255 36.852368 
L 391.813741 37.219901 
L 392.249227 37.083285 
L 392.684712 37.076434 
L 393.120198 36.604123 
L 393.555684 36.660542 
L 394.426655 36.600899 
L 394.86214 36.812069 
L 395.297626 36.50821 
L 395.733112 36.868488 
L 396.604083 37.003089 
L 397.039569 37.21708 
L 397.475054 36.982133 
L 397.91054 37.194915 
L 398.781511 36.960371 
L 399.652483 36.69117 
L 400.087968 36.920072 
L 400.958939 36.899519 
L 401.394425 35.776773 
L 401.829911 35.514422 
L 401.829911 35.514422 
" style="fill:none;stroke:#ff7f0e;stroke-linecap:square;stroke-opacity:0.8;stroke-width:1.5;"/>
   </g>
   <g id="line2d_21">
    <path clip-path="url(#p7ba2f87e01)" d="M 147.070811 100.179121 
L 147.506296 99.919995 
L 147.941782 100.139628 
L 148.377268 100.056611 
L 148.812753 99.776528 
L 149.248239 99.959086 
L 149.683725 99.949817 
L 150.11921 99.232081 
L 150.554696 99.371518 
L 150.990181 99.363861 
L 151.861153 98.445836 
L 152.732124 98.595751 
L 153.16761 98.443016 
L 153.603095 98.56069 
L 154.038581 98.41803 
L 154.474067 98.916536 
L 154.909552 98.833921 
L 156.216009 98.965701 
L 156.651495 99.826903 
L 157.08698 99.754767 
L 157.522466 99.936115 
L 157.957952 99.569792 
L 158.393437 99.448087 
L 158.828923 99.712049 
L 159.264409 99.524253 
L 159.699894 99.168005 
L 160.13538 99.757588 
L 161.006351 100.092477 
L 161.441837 100.508772 
L 161.877322 100.645387 
L 162.312808 100.493458 
L 162.748294 100.597431 
L 163.183779 100.937156 
L 163.619265 100.908141 
L 164.054751 102.811892 
L 164.490236 102.985584 
L 165.361208 101.599681 
L 165.796693 101.597666 
L 166.232179 101.802791 
L 166.667665 101.613383 
L 167.10315 101.698818 
L 167.974121 102.563647 
L 169.716064 102.76313 
L 170.15155 102.869924 
L 171.458007 102.711144 
L 171.893492 103.021853 
L 172.328978 103.786336 
L 172.764463 103.670273 
L 173.199949 103.382937 
L 173.635435 102.940851 
L 174.07092 102.945284 
L 174.506406 103.500209 
L 174.941892 103.486104 
L 175.377377 103.081497 
L 175.812863 103.732738 
L 176.683834 103.822203 
L 177.11932 104.704764 
L 177.554806 104.719271 
L 177.990291 103.86089 
L 178.425777 103.82986 
L 178.861262 104.336425 
L 181.474176 104.481907 
L 182.345148 104.612881 
L 182.780633 104.530266 
L 183.216119 104.568148 
L 183.651605 104.776094 
L 184.08709 104.743048 
L 185.829033 104.025716 
L 186.264518 103.721051 
L 187.570975 103.589674 
L 188.006461 103.152424 
L 188.441947 103.210455 
L 188.877432 102.19813 
L 189.312918 101.688743 
L 189.748403 101.870091 
L 190.183889 101.804403 
L 190.619375 102.224728 
L 191.05486 102.301297 
L 191.490346 102.218683 
L 192.361317 102.443151 
L 192.796803 102.323462 
L 193.232289 102.405673 
L 193.667774 102.769981 
L 194.10326 102.586215 
L 194.538746 102.917477 
L 197.151659 103.012181 
L 197.587145 103.262442 
L 198.022631 103.101243 
L 198.458116 102.50078 
L 198.893602 102.760309 
L 199.329088 102.810684 
L 199.764573 102.178786 
L 200.635545 102.189264 
L 201.942001 102.548736 
L 202.377487 102.441539 
L 202.812973 102.63941 
L 203.248458 102.061111 
L 204.11943 102.793355 
L 204.554915 102.780056 
L 204.990401 102.937627 
L 206.296858 102.853804 
L 206.732343 103.048854 
L 207.167829 102.971479 
L 207.603315 103.156051 
L 208.474286 103.147991 
L 209.345257 103.106885 
L 210.216229 103.846383 
L 210.651714 103.722663 
L 211.0872 102.923925 
L 211.958171 103.289442 
L 212.829142 103.302338 
L 213.700114 103.678333 
L 214.135599 103.611839 
L 215.006571 103.843965 
L 215.442056 103.603376 
L 215.877542 102.846147 
L 216.313028 102.471764 
L 217.183999 102.396001 
L 217.619485 102.668023 
L 218.05497 102.770384 
L 218.490456 102.211429 
L 218.925941 102.34482 
L 219.361427 102.1941 
L 219.796913 101.443319 
L 220.232398 101.356272 
L 221.10337 101.59686 
L 221.538855 100.908544 
L 221.974341 100.985516 
L 222.845312 100.755002 
L 223.280798 101.225701 
L 224.151769 101.271643 
L 224.587255 101.092713 
L 225.893712 101.012516 
L 226.329197 100.926275 
L 226.764683 100.552295 
L 227.200169 100.506354 
L 227.635654 100.612342 
L 228.942111 100.389888 
L 229.813082 100.534966 
L 230.248568 100.853333 
L 230.684054 100.602267 
L 231.990511 100.344752 
L 232.425996 100.235138 
L 233.296968 100.43583 
L 234.167939 100.284303 
L 234.603425 99.900248 
L 235.03891 100.325812 
L 235.909881 99.789424 
L 236.780853 100.807392 
L 237.216338 100.406411 
L 237.651824 100.331051 
L 238.08731 99.845441 
L 238.522795 99.818843 
L 239.829252 100.193226 
L 240.264738 99.475894 
L 241.571195 99.400533 
L 242.442166 98.948775 
L 243.313137 99.425116 
L 243.748623 98.804503 
L 244.184109 98.776293 
L 244.619594 99.119645 
L 245.05508 98.320505 
L 245.490566 97.775655 
L 246.361537 97.739788 
L 246.797022 97.557231 
L 249.409936 97.381122 
L 249.845422 98.092409 
L 250.280908 98.581646 
L 250.716393 98.382969 
L 251.151879 98.342267 
L 251.587365 98.480897 
L 252.458336 98.459135 
L 252.893821 98.532078 
L 253.329307 98.195173 
L 254.635764 98.650961 
L 255.506735 98.556257 
L 255.942221 98.616707 
L 256.377707 98.289877 
L 257.684164 98.513943 
L 258.119649 98.657812 
L 258.555135 99.149467 
L 258.99062 98.93064 
L 259.426106 99.082973 
L 259.861592 98.628394 
L 260.297077 98.73962 
L 261.168049 97.907434 
L 261.603534 98.148829 
L 262.474506 98.216935 
L 262.909991 99.045494 
L 263.780962 98.94676 
L 264.216448 98.753725 
L 264.651934 98.713829 
L 265.087419 98.886311 
L 265.958391 98.897192 
L 266.393876 98.881878 
L 267.264848 98.004556 
L 267.700333 97.998511 
L 268.571305 97.673294 
L 269.877761 97.51008 
L 270.313247 97.647099 
L 270.748733 97.384346 
L 271.184218 97.709966 
L 271.619704 97.192923 
L 272.490675 97.364196 
L 272.926161 97.870762 
L 273.361647 97.86109 
L 273.797132 98.919357 
L 274.232618 99.40416 
L 274.668104 99.174856 
L 275.103589 99.327591 
L 275.97456 97.791371 
L 276.845532 98.002944 
L 277.281017 97.366614 
L 278.151989 97.529424 
L 278.587474 96.529189 
L 279.458446 96.488486 
L 279.893931 96.406678 
L 280.329417 93.576439 
L 282.071359 92.881674 
L 282.942331 92.904242 
L 283.377816 93.285073 
L 283.813302 92.926407 
L 284.248788 92.790194 
L 284.684273 93.265326 
L 285.555245 93.307238 
L 286.861701 93.073097 
L 287.732673 93.025141 
L 288.168158 93.307238 
L 288.603644 93.429345 
L 290.781072 93.276207 
L 291.652044 92.487141 
L 292.087529 92.589099 
L 292.9585 92.343272 
L 293.829472 92.660832 
L 294.264957 92.076489 
L 295.571414 91.785929 
L 296.0069 92.431931 
L 296.442386 92.182073 
L 296.877871 92.278389 
L 297.313357 92.210686 
L 297.748842 92.418632 
L 298.184328 92.400094 
L 298.619814 92.131699 
L 299.055299 92.078101 
L 300.361756 92.240508 
L 300.797242 93.026753 
L 301.232728 93.429748 
L 301.668213 93.497452 
L 302.103699 93.712248 
L 302.539185 93.612708 
L 302.97467 92.880868 
L 303.410156 93.453525 
L 304.281127 93.191175 
L 304.716613 93.928254 
L 305.152098 93.97339 
L 305.587584 93.472869 
L 306.02307 93.476496 
L 306.458555 93.789221 
L 307.329527 93.603843 
L 307.765012 93.710636 
L 308.200498 93.955255 
L 308.635984 93.835565 
L 309.071469 93.837177 
L 309.506955 94.004017 
L 309.94244 93.51478 
L 311.248897 93.59538 
L 311.684383 93.868611 
L 312.119869 93.83355 
L 312.555354 93.980644 
L 312.99084 93.750936 
L 313.426326 93.798892 
L 313.861811 93.170219 
L 314.297297 93.135964 
L 314.732782 92.883689 
L 315.168268 92.855882 
L 315.603754 93.081157 
L 316.039239 93.115815 
L 316.474725 92.838151 
L 316.910211 92.800672 
L 317.345696 93.066246 
L 317.781182 93.059395 
L 318.216668 92.633832 
L 318.652153 93.15692 
L 319.087639 93.16095 
L 319.523125 93.756981 
L 319.95861 93.987091 
L 320.394096 94.084213 
L 320.829581 94.323996 
L 321.700553 94.400968 
L 322.136038 94.662915 
L 324.313467 94.587152 
L 324.748952 94.319966 
L 325.184438 94.927281 
L 325.619924 94.889802 
L 326.055409 94.419103 
L 326.490895 94.46585 
L 326.92638 94.70926 
L 327.361866 94.512598 
L 327.797352 94.161992 
L 328.232837 93.642933 
L 329.103809 93.958076 
L 329.539294 93.948404 
L 329.97478 94.747141 
L 330.410266 95.171093 
L 330.845751 95.076792 
L 331.281237 94.785829 
L 331.716722 94.902698 
L 333.023179 94.634706 
L 333.894151 94.632288 
L 334.329636 94.409028 
L 334.765122 93.729577 
L 335.636093 93.871432 
L 336.071579 93.500273 
L 337.378036 93.343104 
L 338.249007 94.066482 
L 338.684493 94.002808 
L 339.119978 78.104223 
L 339.555464 78.197315 
L 340.426435 77.913203 
L 341.297407 77.425981 
L 342.168378 77.501341 
L 343.039349 77.203124 
L 343.474835 77.105599 
L 343.91032 77.382054 
L 344.345806 77.287753 
L 344.781292 77.897486 
L 345.652263 78.663984 
L 346.087749 78.912229 
L 346.523234 78.734508 
L 346.95872 78.033699 
L 347.394206 77.807215 
L 348.265177 77.65448 
L 348.700662 77.694376 
L 349.571634 78.114298 
L 350.007119 77.525924 
L 350.878091 77.28735 
L 351.313576 76.865817 
L 351.749062 77.009283 
L 352.184548 77.419533 
L 353.055519 77.731855 
L 353.491005 77.234155 
L 354.361976 77.540432 
L 354.797461 76.748545 
L 356.103918 77.09633 
L 356.539404 77.686719 
L 356.97489 77.362711 
L 357.410375 77.353845 
L 358.281347 76.850503 
L 358.716832 76.635706 
L 359.152318 76.650617 
L 359.587804 76.795696 
L 360.023289 76.627646 
L 360.89426 77.984936 
L 361.329746 77.636748 
L 361.765232 77.643196 
L 362.200717 78.076013 
L 362.636203 77.076584 
L 363.071689 77.116883 
L 363.507174 78.235599 
L 363.94266 78.518502 
L 364.378146 78.485457 
L 364.813631 78.687358 
L 365.249117 81.46964 
L 365.684603 81.292322 
L 366.120088 81.48173 
L 366.555574 81.79647 
L 366.991059 81.901249 
L 367.426545 81.888756 
L 367.862031 81.209305 
L 368.297516 81.163364 
L 368.733002 81.388638 
L 370.039459 81.202857 
L 370.91043 81.273381 
L 371.345916 80.38397 
L 372.652373 80.492376 
L 373.087858 80.851445 
L 374.394315 80.835728 
L 374.829801 80.446031 
L 375.265287 80.464569 
L 375.700772 80.36382 
L 376.136258 80.395254 
L 376.571744 80.622543 
L 377.007229 80.487943 
L 377.8782 80.514137 
L 378.313686 79.743207 
L 378.749172 79.665831 
L 379.184657 80.197383 
L 380.9266 80.622946 
L 381.362086 80.815981 
L 381.797571 80.657201 
L 382.233057 80.712008 
L 382.668543 80.53872 
L 383.104028 80.589095 
L 383.539514 80.775279 
L 384.410485 80.740218 
L 387.458885 80.387597 
L 387.89437 80.499227 
L 388.765341 79.896345 
L 389.200827 80.101873 
L 390.071798 80.003139 
L 390.507284 80.396866 
L 391.813741 80.454494 
L 392.249227 80.745457 
L 392.684712 80.515346 
L 393.120198 80.575393 
L 393.555684 79.483677 
L 393.991169 79.407511 
L 394.426655 78.827197 
L 394.86214 79.193923 
L 395.297626 78.791331 
L 395.733112 78.723627 
L 396.168597 78.435888 
L 396.604083 78.497547 
L 397.039569 78.422186 
L 397.475054 78.117522 
L 397.91054 78.425007 
L 398.346026 78.07561 
L 398.781511 79.202386 
L 399.216997 79.245104 
L 399.652483 79.609009 
L 400.087968 79.656562 
L 400.958939 79.458289 
L 401.394425 79.804059 
L 401.829911 79.677115 
L 401.829911 79.677115 
" style="fill:none;stroke:#2ca02c;stroke-linecap:square;stroke-opacity:0.8;stroke-width:1.5;"/>
   </g>
   <g id="line2d_22">
    <path clip-path="url(#p7ba2f87e01)" d="M 147.070811 100.437442 
L 147.941782 100.3512 
L 148.377268 100.289542 
L 148.812753 100.040894 
L 149.248239 99.92201 
L 149.683725 100.126732 
L 150.11921 99.756379 
L 150.554696 100.323797 
L 151.425667 99.78217 
L 152.296638 99.674974 
L 153.16761 99.747513 
L 153.603095 99.67578 
L 154.038581 99.273993 
L 154.474067 99.120854 
L 154.909552 99.479118 
L 155.345038 99.394488 
L 155.780523 99.951429 
L 156.651495 99.871635 
L 157.08698 100.98068 
L 157.522466 100.66191 
L 157.957952 100.807795 
L 158.828923 100.740091 
L 159.264409 100.685284 
L 159.699894 101.133818 
L 160.13538 101.064906 
L 160.570866 100.672388 
L 161.006351 100.437442 
L 161.441837 100.532146 
L 161.877322 100.267377 
L 162.312808 100.933529 
L 162.748294 100.663925 
L 163.183779 100.794093 
L 163.619265 101.711714 
L 164.054751 101.731864 
L 164.490236 101.592024 
L 164.925722 101.305897 
L 166.667665 101.845106 
L 167.10315 102.298476 
L 167.538636 102.534228 
L 168.409607 101.981318 
L 169.280578 102.41333 
L 169.716064 102.343208 
L 170.15155 102.527377 
L 171.022521 102.013155 
L 171.893492 102.275908 
L 172.328978 102.198936 
L 172.764463 102.310969 
L 173.199949 101.986557 
L 173.635435 102.301297 
L 177.11932 101.893868 
L 177.554806 102.069171 
L 177.990291 102.519318 
L 178.425777 102.131233 
L 178.861262 102.390359 
L 179.732234 102.234803 
L 180.167719 102.443151 
L 181.038691 102.164681 
L 181.474176 102.289207 
L 182.345148 102.036932 
L 182.780633 102.040156 
L 183.216119 102.42945 
L 183.651605 102.143323 
L 184.522576 102.099799 
L 184.958061 101.828986 
L 185.393547 101.897495 
L 187.13549 101.587591 
L 187.570975 102.152188 
L 188.006461 101.955124 
L 188.441947 101.990184 
L 188.877432 102.221101 
L 189.312918 101.754432 
L 189.748403 101.539232 
L 190.619375 101.677862 
L 191.05486 101.629906 
L 191.925832 101.918451 
L 192.361317 102.855013 
L 192.796803 102.11874 
L 193.667774 102.280744 
L 194.538746 103.195544 
L 194.974231 103.081094 
L 195.409717 103.197156 
L 196.280688 101.58477 
L 196.716174 101.58074 
L 197.151659 101.445334 
L 198.022631 101.40181 
L 199.764573 100.709867 
L 200.200059 100.646193 
L 200.635545 100.356036 
L 201.07103 100.397948 
L 201.506516 100.278258 
L 201.942001 100.484592 
L 202.377487 100.103761 
L 202.812973 99.996161 
L 203.248458 99.695526 
L 203.683944 100.248839 
L 204.11943 99.807962 
L 204.554915 99.907502 
L 204.990401 99.733408 
L 205.425887 99.680212 
L 206.296858 99.900651 
L 206.732343 99.599613 
L 207.167829 99.936921 
L 207.603315 100.069103 
L 208.0388 100.434218 
L 208.474286 100.553101 
L 208.909772 100.521668 
L 209.345257 100.69818 
L 209.780743 100.705434 
L 210.651714 100.40762 
L 211.0872 100.412456 
L 211.522686 99.588732 
L 212.393657 100.015505 
L 213.264628 99.860352 
L 213.700114 99.477506 
L 214.135599 99.267142 
L 214.571085 98.821429 
L 215.006571 98.657006 
L 215.877542 98.515958 
L 216.748513 98.337431 
L 218.490456 98.3467 
L 219.361427 98.959253 
L 219.796913 98.857698 
L 220.232398 99.021717 
L 220.667884 98.87543 
L 221.538855 98.780726 
L 222.409827 98.483718 
L 222.845312 97.746639 
L 223.280798 97.54635 
L 224.587255 97.778476 
L 225.02274 97.560858 
L 225.458226 97.583426 
L 226.329197 97.427063 
L 226.764683 97.345255 
L 227.200169 97.40651 
L 228.07114 96.991828 
L 230.248568 97.01762 
L 230.684054 97.075248 
L 231.555025 97.001903 
L 232.425996 97.032933 
L 232.861482 96.903572 
L 234.167939 97.250954 
L 234.603425 96.683536 
L 235.03891 96.872138 
L 235.909881 96.89793 
L 236.780853 95.558775 
L 237.216338 94.719738 
L 237.651824 94.299816 
L 238.522795 94.074139 
L 238.958281 94.456582 
L 239.393767 94.299816 
L 239.829252 94.482373 
L 240.264738 94.458999 
L 240.700224 93.852491 
L 242.877652 93.990718 
L 243.313137 94.229695 
L 244.184109 94.313115 
L 244.619594 94.194634 
L 245.05508 94.338907 
L 245.490566 94.837413 
L 245.926051 95.058254 
L 246.361537 95.051403 
L 246.797022 95.360098 
L 247.232508 95.46931 
L 247.667994 95.753019 
L 248.103479 95.500744 
L 249.845422 95.782438 
L 250.280908 94.98773 
L 251.151879 94.883354 
L 252.02285 94.767291 
L 252.458336 95.754228 
L 252.893821 95.999652 
L 253.329307 96.032295 
L 253.764793 95.907366 
L 254.200278 95.594642 
L 255.07125 95.674435 
L 255.506735 95.801781 
L 255.942221 96.086296 
L 256.813192 96.20921 
L 257.248678 96.164881 
L 258.119649 96.637998 
L 259.426106 96.510248 
L 259.861592 96.340184 
L 261.168049 96.364363 
L 261.603534 96.57916 
L 262.03902 96.929363 
L 262.474506 96.560219 
L 262.909991 96.349453 
L 263.345477 96.571503 
L 263.780962 96.371214 
L 264.216448 96.343005 
L 265.087419 96.015772 
L 265.958391 96.21727 
L 266.393876 95.942024 
L 267.264848 95.935979 
L 267.700333 96.054057 
L 268.135819 96.033907 
L 268.571305 96.38008 
L 269.00679 96.143119 
L 269.442276 95.747377 
L 269.877761 96.055266 
L 270.313247 95.788885 
L 270.748733 95.136032 
L 271.184218 95.11548 
L 272.05519 95.400801 
L 272.490675 94.215993 
L 272.926161 94.373564 
L 273.361647 94.360266 
L 273.797132 94.038675 
L 274.232618 94.662512 
L 275.103589 94.610123 
L 275.539075 94.498896 
L 275.97456 94.56539 
L 276.410046 94.429581 
L 276.845532 94.543226 
L 277.281017 94.433208 
L 277.716503 95.076389 
L 278.151989 95.040522 
L 278.587474 95.1586 
L 279.02296 94.789053 
L 279.893931 95.154167 
L 280.329417 95.116286 
L 281.200388 96.659759 
L 281.635874 96.637998 
L 282.071359 96.747209 
L 282.506845 96.55498 
L 285.555245 97.9163 
L 285.99073 97.958212 
L 286.426216 97.799834 
L 286.861701 97.28803 
L 287.297187 97.304553 
L 287.732673 97.011575 
L 288.168158 97.145369 
L 288.603644 97.05671 
L 289.03913 97.521767 
L 289.474615 97.643875 
L 289.910101 97.215087 
L 290.345587 97.293269 
L 290.781072 97.072024 
L 291.652044 97.377495 
L 292.523015 97.417794 
L 292.9585 96.84151 
L 293.829472 96.994246 
L 294.264957 97.078069 
L 294.700443 97.57053 
L 296.0069 97.660801 
L 296.442386 98.14762 
L 296.877871 97.859881 
L 297.313357 97.034948 
L 297.748842 97.153429 
L 298.184328 96.907602 
L 299.055299 97.451243 
L 299.490785 97.791371 
L 299.926271 97.448825 
L 300.797242 97.285612 
L 302.97467 97.461721 
L 303.845641 97.31906 
L 304.281127 97.724474 
L 305.587584 97.745027 
L 306.02307 97.994884 
L 306.458555 97.857463 
L 307.765012 98.183486 
L 308.635984 97.424242 
L 309.94244 97.295687 
L 310.377926 96.890273 
L 310.813412 96.731493 
L 312.99084 97.216296 
L 313.426326 96.959588 
L 313.861811 97.095398 
L 314.297297 96.882213 
L 314.732782 96.873347 
L 315.168268 96.738746 
L 315.603754 96.795972 
L 316.039239 96.734314 
L 316.474725 97.127234 
L 316.910211 96.926945 
L 317.345696 96.147552 
L 317.781182 96.164478 
L 319.087639 95.678868 
L 319.523125 96.196717 
L 319.95861 96.153194 
L 320.394096 95.910993 
L 320.829581 96.19309 
L 321.700553 97.585441 
L 322.136038 98.46921 
L 322.571524 98.875027 
L 323.00701 98.771054 
L 323.442495 98.925804 
L 323.877981 98.937894 
L 324.313467 99.195812 
L 325.184438 98.736799 
L 326.055409 98.788383 
L 326.490895 98.660633 
L 327.361866 98.987463 
L 327.797352 98.953208 
L 328.232837 98.752516 
L 329.103809 98.851653 
L 330.410266 98.746068 
L 330.845751 98.327356 
L 332.587694 98.359595 
L 333.023179 98.522809 
L 334.765122 98.199203 
L 335.200608 98.81619 
L 336.071579 98.921774 
L 336.94255 98.856086 
L 337.378036 98.402716 
L 337.813521 98.353147 
L 339.119978 98.606229 
L 339.555464 98.411179 
L 339.99095 98.347103 
L 341.297407 98.459135 
L 344.345806 98.289877 
L 344.781292 98.464777 
L 345.652263 98.261264 
L 346.087749 98.325341 
L 347.394206 97.862299 
L 347.829691 97.969899 
L 348.265177 97.859075 
L 348.700662 98.006974 
L 349.136148 97.923151 
L 349.571634 98.158098 
L 350.007119 97.989242 
L 350.878091 97.87318 
L 351.313576 98.262473 
L 351.749062 98.135127 
L 352.184548 98.278593 
L 352.620033 98.00778 
L 353.92649 97.618486 
L 354.361976 97.988436 
L 354.797461 97.918315 
L 355.232947 97.989645 
L 355.668433 98.748486 
L 356.103918 98.414403 
L 356.97489 98.326953 
L 357.410375 99.357816 
L 358.281347 98.584064 
L 358.716832 98.819817 
L 359.152318 98.794025 
L 359.587804 99.00318 
L 360.458775 99.041464 
L 360.89426 98.212502 
L 361.329746 98.247966 
L 361.765232 97.687801 
L 362.636203 97.787341 
L 363.071689 97.764774 
L 363.507174 97.555619 
L 363.94266 97.748654 
L 364.813631 97.684175 
L 365.249117 97.532648 
L 365.684603 97.541514 
L 366.120088 97.179221 
L 366.991059 97.261835 
L 367.426545 97.37145 
L 367.862031 97.062352 
L 368.297516 97.049456 
L 368.733002 97.149399 
L 369.168488 97.045426 
L 369.603973 97.368629 
L 370.474945 96.99747 
L 370.91043 96.901557 
L 371.345916 97.087741 
L 371.781401 97.713593 
L 372.216887 97.592694 
L 372.652373 97.826029 
L 373.95883 97.437944 
L 374.394315 96.667013 
L 374.829801 97.136503 
L 376.571744 97.224759 
L 377.007229 97.312209 
L 377.442715 97.170758 
L 377.8782 97.499602 
L 379.620143 97.333568 
L 380.055629 97.215087 
L 380.9266 97.311 
L 381.362086 97.507259 
L 381.797571 97.330747 
L 382.233057 98.027124 
L 383.104028 98.148023 
L 383.974999 98.447448 
L 384.410485 98.515555 
L 384.845971 99.454132 
L 385.281456 99.567777 
L 385.716942 99.522641 
L 386.152428 99.211528 
L 386.587913 99.185334 
L 387.023399 99.282456 
L 387.89437 99.08257 
L 388.765341 99.117227 
L 390.507284 98.752113 
L 390.94277 98.499435 
L 391.378255 98.611871 
L 392.249227 97.972316 
L 393.120198 99.082167 
L 393.555684 99.324367 
L 393.991169 99.272784 
L 394.426655 99.037837 
L 394.86214 99.065241 
L 395.297626 99.687466 
L 395.733112 99.940548 
L 397.91054 99.413832 
L 398.346026 99.625405 
L 398.781511 98.967716 
L 401.394425 99.411011 
L 401.829911 99.214752 
L 401.829911 99.214752 
" style="fill:none;stroke:#d62728;stroke-linecap:square;stroke-opacity:0.8;stroke-width:1.5;"/>
   </g>
   <g id="line2d_23">
    <path clip-path="url(#p7ba2f87e01)" d="M 147.070811 98.881475 
L 148.377268 98.815787 
L 150.11921 98.445836 
L 150.554696 98.799264 
L 150.990181 98.79604 
L 151.425667 98.507495 
L 151.861153 98.74365 
L 152.296638 98.645722 
L 153.603095 98.983433 
L 154.038581 98.897998 
L 154.474067 98.986657 
L 155.345038 98.838757 
L 155.780523 98.449866 
L 156.216009 99.092645 
L 156.651495 99.168408 
L 157.522466 99.037837 
L 157.957952 99.114003 
L 158.393437 98.989881 
L 158.828923 99.033807 
L 159.264409 99.385623 
L 160.13538 99.142213 
L 160.570866 99.401339 
L 161.441837 99.371115 
L 161.877322 100.370141 
L 162.312808 100.646193 
L 162.748294 100.356842 
L 163.183779 100.746136 
L 163.619265 100.762256 
L 164.490236 100.568818 
L 164.925722 100.67803 
L 166.232179 99.582688 
L 166.667665 99.970772 
L 167.10315 99.95425 
L 167.974121 99.685451 
L 168.409607 99.56415 
L 168.845093 99.837784 
L 169.280578 99.250619 
L 169.716064 99.24941 
L 170.15155 98.567138 
L 170.587035 98.569959 
L 171.022521 98.706172 
L 171.458007 99.151079 
L 171.893492 99.856322 
L 172.328978 99.833351 
L 173.635435 100.045327 
L 174.07092 100.115045 
L 174.506406 99.604449 
L 174.941892 99.675377 
L 175.377377 99.946996 
L 176.248349 100.023162 
L 176.683834 99.769275 
L 177.11932 99.888964 
L 177.990291 99.856725 
L 178.861262 99.934503 
L 179.296748 99.573822 
L 180.167719 99.369906 
L 181.474176 100.011475 
L 181.909662 99.781364 
L 182.345148 99.893397 
L 182.780633 99.796678 
L 184.08709 100.12109 
L 184.958061 99.886546 
L 185.829033 100.051372 
L 186.264518 100.385052 
L 187.13549 100.316946 
L 187.570975 100.748957 
L 189.312918 100.72518 
L 189.748403 100.757823 
L 190.183889 100.614357 
L 190.619375 100.6337 
L 191.05486 100.013893 
L 191.490346 100.143255 
L 191.925832 100.062655 
L 192.361317 100.18436 
L 192.796803 100.007042 
L 193.667774 100.171867 
L 194.10326 99.859949 
L 194.538746 99.968757 
L 194.974231 100.197256 
L 195.845202 100.279467 
L 196.280688 100.140837 
L 197.151659 100.069506 
L 197.587145 99.789021 
L 198.458116 99.705601 
L 199.764573 100.187987 
L 200.200059 100.122299 
L 200.635545 100.314931 
L 201.07103 100.354827 
L 201.506516 101.84027 
L 201.942001 102.280744 
L 202.377487 102.39721 
L 202.812973 102.051843 
L 204.11943 102.319029 
L 204.554915 102.429853 
L 204.990401 102.296058 
L 205.425887 102.715577 
L 205.861372 102.546721 
L 206.296858 102.700666 
L 207.167829 102.452823 
L 207.603315 102.742577 
L 208.474286 102.8667 
L 208.909772 102.255758 
L 209.780743 102.097784 
L 210.216229 101.872912 
L 210.651714 102.357313 
L 211.0872 102.511661 
L 211.522686 102.509646 
L 211.958171 101.837852 
L 212.393657 101.955124 
L 212.829142 102.305327 
L 213.264628 102.335149 
L 213.700114 102.614022 
L 215.006571 102.559214 
L 215.877542 102.672456 
L 216.313028 102.871939 
L 217.183999 102.684546 
L 217.619485 102.907402 
L 218.05497 102.816728 
L 218.490456 103.176604 
L 220.232398 102.886044 
L 220.667884 103.004524 
L 221.10337 102.995256 
L 221.538855 103.928191 
L 222.409827 103.788754 
L 223.280798 104.111554 
L 223.716283 103.959221 
L 224.587255 104.122435 
L 226.764683 104.438383 
L 227.200169 104.662046 
L 227.635654 105.419275 
L 228.942111 105.851689 
L 229.377597 105.857331 
L 229.813082 106.08986 
L 230.248568 106.113637 
L 230.684054 106.704025 
L 231.119539 107.023601 
L 231.555025 106.994182 
L 231.990511 106.653248 
L 232.425996 106.45578 
L 233.296968 106.586754 
L 234.603425 106.513811 
L 235.474396 106.390898 
L 235.909881 105.991529 
L 236.345367 106.003216 
L 236.780853 106.145473 
L 238.08731 105.467232 
L 238.958281 105.370513 
L 239.393767 105.128715 
L 239.829252 105.20609 
L 240.264738 105.026757 
L 240.700224 104.381158 
L 242.442166 104.052313 
L 242.877652 104.077299 
L 243.313137 103.940281 
L 243.748623 103.992267 
L 244.184109 103.501821 
L 244.619594 103.449029 
L 245.05508 103.247934 
L 245.490566 103.228993 
L 246.361537 102.892895 
L 246.797022 102.079649 
L 247.232508 102.145338 
L 247.667994 102.42139 
L 248.103479 102.276311 
L 248.538965 102.297267 
L 248.974451 102.203369 
L 249.409936 102.449599 
L 249.845422 102.38109 
L 250.280908 102.704293 
L 250.716393 102.403658 
L 251.151879 102.880402 
L 251.587365 102.92997 
L 252.458336 103.355937 
L 252.893821 103.488522 
L 253.329307 103.818173 
L 253.764793 103.56348 
L 254.200278 104.127271 
L 254.635764 104.076896 
L 255.07125 104.779318 
L 255.942221 104.808333 
L 256.377707 104.942531 
L 257.248678 104.884903 
L 258.119649 105.101311 
L 258.555135 104.956636 
L 258.99062 105.219389 
L 259.426106 105.66752 
L 259.861592 105.574428 
L 260.297077 105.271779 
L 262.909991 105.399528 
L 264.216448 105.176672 
L 265.087419 104.120823 
L 266.393876 103.607406 
L 266.829362 103.960027 
L 268.135819 103.452253 
L 268.571305 103.436536 
L 269.00679 103.281786 
L 270.313247 103.33216 
L 270.748733 103.242292 
L 271.184218 102.268654 
L 272.05519 102.49675 
L 272.490675 102.21425 
L 272.926161 102.214653 
L 273.361647 102.062723 
L 274.668104 102.233191 
L 275.539075 102.50884 
L 275.97456 103.232217 
L 276.410046 103.124214 
L 277.716503 103.217709 
L 278.587474 102.923522 
L 279.02296 84.318417 
L 280.764902 83.991588 
L 281.200388 84.219683 
L 282.071359 84.135457 
L 282.942331 84.691591 
L 283.377816 84.652501 
L 284.248788 84.352269 
L 284.684273 84.321238 
L 286.861701 83.643802 
L 287.297187 83.640578 
L 287.732673 84.001663 
L 288.168158 83.961766 
L 288.603644 83.81024 
L 289.03913 83.846106 
L 289.910101 83.584965 
L 290.345587 83.114266 
L 290.781072 83.35969 
L 291.216558 83.019562 
L 291.652044 83.139655 
L 292.087529 81.943966 
L 293.393986 81.797679 
L 293.829472 82.398143 
L 295.135929 82.417889 
L 295.571414 81.961295 
L 296.442386 81.974997 
L 296.877871 82.614551 
L 297.313357 82.437636 
L 298.619814 82.515414 
L 299.055299 82.643567 
L 299.490785 82.435218 
L 299.926271 81.953638 
L 300.361756 81.994744 
L 301.232728 81.92825 
L 301.668213 81.361637 
L 302.103699 81.404355 
L 302.539185 81.042868 
L 302.97467 81.156513 
L 303.410156 80.990478 
L 305.587584 81.178677 
L 310.377926 80.68259 
L 311.248897 80.343267 
L 311.684383 79.749654 
L 312.119869 79.700489 
L 312.99084 79.949137 
L 313.861811 79.849597 
L 314.297297 79.921331 
L 314.732782 79.589262 
L 315.168268 79.449423 
L 315.603754 79.590874 
L 316.039239 79.305553 
L 317.345696 80.259041 
L 318.652153 80.350521 
L 319.087639 80.008781 
L 319.523125 80.039005 
L 320.394096 79.814134 
L 321.265067 80.299744 
L 321.700553 80.439583 
L 322.136038 80.795831 
L 322.571524 80.044647 
L 323.00701 80.189726 
L 323.442495 80.031348 
L 324.313467 80.342461 
L 324.748952 79.7827 
L 325.184438 79.951152 
L 325.619924 81.24759 
L 326.055409 81.152483 
L 327.797352 81.229858 
L 328.232837 81.478103 
L 328.668323 81.52606 
L 329.103809 81.990714 
L 329.539294 81.922608 
L 329.97478 81.238724 
L 330.410266 81.160543 
L 330.845751 81.504701 
L 331.281237 81.572807 
L 331.716722 82.364291 
L 332.587694 81.97943 
L 333.023179 82.097911 
L 333.458665 82.078164 
L 333.894151 81.523239 
L 334.329636 81.4507 
L 334.765122 81.542583 
L 335.200608 81.418863 
L 335.636093 81.811381 
L 336.071579 81.992729 
L 336.507065 81.853292 
L 336.94255 81.852083 
L 337.378036 81.541374 
L 338.684493 81.460774 
L 339.119978 81.237112 
L 339.555464 80.285639 
L 339.99095 80.248966 
L 340.426435 79.96163 
L 340.861921 80.007169 
L 342.168378 79.812119 
L 342.603864 79.068592 
L 343.039349 78.913438 
L 343.474835 79.072622 
L 343.91032 79.07504 
L 344.345806 79.216491 
L 344.781292 79.118563 
L 345.216777 79.484886 
L 346.087749 79.135489 
L 346.523234 79.172565 
L 346.95872 79.060935 
L 347.394206 79.12219 
L 348.265177 78.845332 
L 348.700662 78.69703 
L 349.136148 78.911826 
L 350.007119 79.87015 
L 350.442605 79.876195 
L 350.878091 80.036184 
L 351.313576 79.179415 
L 351.749062 79.307165 
L 352.184548 79.317643 
L 352.620033 79.507857 
L 353.92649 79.655756 
L 354.361976 79.410735 
L 354.797461 79.588053 
L 355.232947 78.700657 
L 355.668433 78.741359 
L 356.103918 79.541306 
L 356.539404 79.626741 
L 356.97489 79.592083 
L 357.845861 78.871124 
L 359.152318 79.045218 
L 359.587804 79.222133 
L 360.023289 79.210849 
L 360.458775 78.958171 
L 361.765232 78.699448 
L 362.636203 78.723627 
L 363.071689 78.894094 
L 363.507174 78.904169 
L 363.94266 97.855851 
L 364.378146 97.340016 
L 367.862031 96.943065 
L 368.297516 96.997873 
L 368.733002 96.437306 
L 369.168488 96.305123 
L 370.039459 96.373229 
L 371.781401 96.456246 
L 372.652373 96.040355 
L 373.087858 95.981114 
L 373.523344 96.270868 
L 373.95883 96.056072 
L 374.829801 96.225733 
L 375.265287 96.598504 
L 376.571744 97.1091 
L 377.007229 98.316475 
L 377.442715 98.6965 
L 377.8782 98.723098 
L 378.313686 98.311236 
L 378.749172 98.214114 
L 379.184657 97.610426 
L 379.620143 97.472602 
L 380.055629 97.807894 
L 380.491114 98.319699 
L 380.9266 98.336222 
L 382.233057 98.030751 
L 382.668543 98.140769 
L 383.974999 98.02793 
L 384.410485 98.237891 
L 384.845971 98.611065 
L 385.281456 98.710605 
L 385.716942 98.480897 
L 386.152428 98.68038 
L 386.587913 99.230872 
L 387.023399 99.41222 
L 387.458885 99.021717 
L 387.89437 98.841175 
L 389.200827 98.772263 
L 389.636313 98.567138 
L 390.071798 97.518543 
L 390.507284 97.684981 
L 391.813741 97.222744 
L 392.249227 97.29609 
L 393.120198 96.846346 
L 393.555684 96.996664 
L 393.991169 96.874959 
L 396.168597 97.140533 
L 396.604083 97.640651 
L 397.039569 97.21549 
L 397.475054 97.090562 
L 397.91054 95.857395 
L 398.346026 95.790497 
L 398.781511 95.281514 
L 399.216997 95.230736 
L 400.087968 95.574492 
L 400.523454 95.0913 
L 400.958939 95.187213 
L 401.394425 94.830562 
L 401.829911 94.691528 
L 401.829911 94.691528 
" style="fill:none;stroke:#9467bd;stroke-linecap:square;stroke-opacity:0.8;stroke-width:1.5;"/>
   </g>
   <g id="patch_3">
    <path d="M 61.715625 288.430125 
L 61.715625 22.318125 
" style="fill:none;stroke:#000000;stroke-linecap:square;stroke-linejoin:miter;stroke-width:0.8;"/>
   </g>
   <g id="patch_4">
    <path d="M 418.835625 288.430125 
L 418.835625 22.318125 
" style="fill:none;stroke:#000000;stroke-linecap:square;stroke-linejoin:miter;stroke-width:0.8;"/>
   </g>
   <g id="patch_5">
    <path d="M 61.715625 288.430125 
L 418.835625 288.430125 
" style="fill:none;stroke:#000000;stroke-linecap:square;stroke-linejoin:miter;stroke-width:0.8;"/>
   </g>
   <g id="patch_6">
    <path d="M 61.715625 22.318125 
L 418.835625 22.318125 
" style="fill:none;stroke:#000000;stroke-linecap:square;stroke-linejoin:miter;stroke-width:0.8;"/>
   </g>
   <g id="text_21">
    <!-- Save without change [branch] -->
    <g transform="translate(149.65125 16.318125)scale(0.12 -0.12)">
     <defs>
      <path d="M 53.515625 70.515625 
L 53.515625 60.890625 
Q 47.90625 63.578125 42.921875 64.890625 
Q 37.9375 66.21875 33.296875 66.21875 
Q 25.25 66.21875 20.875 63.09375 
Q 16.5 59.96875 16.5 54.203125 
Q 16.5 49.359375 19.40625 46.890625 
Q 22.3125 44.4375 30.421875 42.921875 
L 36.375 41.703125 
Q 47.40625 39.59375 52.65625 34.296875 
Q 57.90625 29 57.90625 20.125 
Q 57.90625 9.515625 50.796875 4.046875 
Q 43.703125 -1.421875 29.984375 -1.421875 
Q 24.8125 -1.421875 18.96875 -0.25 
Q 13.140625 0.921875 6.890625 3.21875 
L 6.890625 13.375 
Q 12.890625 10.015625 18.65625 8.296875 
Q 24.421875 6.59375 29.984375 6.59375 
Q 38.421875 6.59375 43.015625 9.90625 
Q 47.609375 13.234375 47.609375 19.390625 
Q 47.609375 24.75 44.3125 27.78125 
Q 41.015625 30.8125 33.5 32.328125 
L 27.484375 33.5 
Q 16.453125 35.6875 11.515625 40.375 
Q 6.59375 45.0625 6.59375 53.421875 
Q 6.59375 63.09375 13.40625 68.65625 
Q 20.21875 74.21875 32.171875 74.21875 
Q 37.3125 74.21875 42.625 73.28125 
Q 47.953125 72.359375 53.515625 70.515625 
z
" id="DejaVuSans-83"/>
      <path d="M 2.984375 54.6875 
L 12.5 54.6875 
L 29.59375 8.796875 
L 46.6875 54.6875 
L 56.203125 54.6875 
L 35.6875 0 
L 23.484375 0 
z
" id="DejaVuSans-118"/>
      <path d="M 4.203125 54.6875 
L 13.1875 54.6875 
L 24.421875 12.015625 
L 35.59375 54.6875 
L 46.1875 54.6875 
L 57.421875 12.015625 
L 68.609375 54.6875 
L 77.59375 54.6875 
L 63.28125 0 
L 52.6875 0 
L 40.921875 44.828125 
L 29.109375 0 
L 18.5 0 
z
" id="DejaVuSans-119"/>
      <path d="M 54.890625 33.015625 
L 54.890625 0 
L 45.90625 0 
L 45.90625 32.71875 
Q 45.90625 40.484375 42.875 44.328125 
Q 39.84375 48.1875 33.796875 48.1875 
Q 26.515625 48.1875 22.3125 43.546875 
Q 18.109375 38.921875 18.109375 30.90625 
L 18.109375 0 
L 9.078125 0 
L 9.078125 75.984375 
L 18.109375 75.984375 
L 18.109375 46.1875 
Q 21.34375 51.125 25.703125 53.5625 
Q 30.078125 56 35.796875 56 
Q 45.21875 56 50.046875 50.171875 
Q 54.890625 44.34375 54.890625 33.015625 
z
" id="DejaVuSans-104"/>
      <path d="M 45.40625 27.984375 
Q 45.40625 37.75 41.375 43.109375 
Q 37.359375 48.484375 30.078125 48.484375 
Q 22.859375 48.484375 18.828125 43.109375 
Q 14.796875 37.75 14.796875 27.984375 
Q 14.796875 18.265625 18.828125 12.890625 
Q 22.859375 7.515625 30.078125 7.515625 
Q 37.359375 7.515625 41.375 12.890625 
Q 45.40625 18.265625 45.40625 27.984375 
z
M 54.390625 6.78125 
Q 54.390625 -7.171875 48.1875 -13.984375 
Q 42 -20.796875 29.203125 -20.796875 
Q 24.46875 -20.796875 20.265625 -20.09375 
Q 16.0625 -19.390625 12.109375 -17.921875 
L 12.109375 -9.1875 
Q 16.0625 -11.328125 19.921875 -12.34375 
Q 23.78125 -13.375 27.78125 -13.375 
Q 36.625 -13.375 41.015625 -8.765625 
Q 45.40625 -4.15625 45.40625 5.171875 
L 45.40625 9.625 
Q 42.625 4.78125 38.28125 2.390625 
Q 33.9375 0 27.875 0 
Q 17.828125 0 11.671875 7.65625 
Q 5.515625 15.328125 5.515625 27.984375 
Q 5.515625 40.671875 11.671875 48.328125 
Q 17.828125 56 27.875 56 
Q 33.9375 56 38.28125 53.609375 
Q 42.625 51.21875 45.40625 46.390625 
L 45.40625 54.6875 
L 54.390625 54.6875 
z
" id="DejaVuSans-103"/>
      <path d="M 8.59375 75.984375 
L 29.296875 75.984375 
L 29.296875 69 
L 17.578125 69 
L 17.578125 -6.203125 
L 29.296875 -6.203125 
L 29.296875 -13.1875 
L 8.59375 -13.1875 
z
" id="DejaVuSans-91"/>
      <path d="M 30.421875 75.984375 
L 30.421875 -13.1875 
L 9.71875 -13.1875 
L 9.71875 -6.203125 
L 21.390625 -6.203125 
L 21.390625 69 
L 9.71875 69 
L 9.71875 75.984375 
z
" id="DejaVuSans-93"/>
     </defs>
     <use xlink:href="#DejaVuSans-83"/>
     <use x="63.476562" xlink:href="#DejaVuSans-97"/>
     <use x="124.755859" xlink:href="#DejaVuSans-118"/>
     <use x="183.935547" xlink:href="#DejaVuSans-101"/>
     <use x="245.458984" xlink:href="#DejaVuSans-32"/>
     <use x="277.246094" xlink:href="#DejaVuSans-119"/>
     <use x="359.033203" xlink:href="#DejaVuSans-105"/>
     <use x="386.816406" xlink:href="#DejaVuSans-116"/>
     <use x="426.025391" xlink:href="#DejaVuSans-104"/>
     <use x="489.404297" xlink:href="#DejaVuSans-111"/>
     <use x="550.585938" xlink:href="#DejaVuSans-117"/>
     <use x="613.964844" xlink:href="#DejaVuSans-116"/>
     <use x="653.173828" xlink:href="#DejaVuSans-32"/>
     <use x="684.960938" xlink:href="#DejaVuSans-99"/>
     <use x="739.941406" xlink:href="#DejaVuSans-104"/>
     <use x="803.320312" xlink:href="#DejaVuSans-97"/>
     <use x="864.599609" xlink:href="#DejaVuSans-110"/>
     <use x="927.978516" xlink:href="#DejaVuSans-103"/>
     <use x="991.455078" xlink:href="#DejaVuSans-101"/>
     <use x="1052.978516" xlink:href="#DejaVuSans-32"/>
     <use x="1084.765625" xlink:href="#DejaVuSans-91"/>
     <use x="1123.779297" xlink:href="#DejaVuSans-98"/>
     <use x="1187.255859" xlink:href="#DejaVuSans-114"/>
     <use x="1228.369141" xlink:href="#DejaVuSans-97"/>
     <use x="1289.648438" xlink:href="#DejaVuSans-110"/>
     <use x="1353.027344" xlink:href="#DejaVuSans-99"/>
     <use x="1408.007812" xlink:href="#DejaVuSans-104"/>
     <use x="1471.386719" xlink:href="#DejaVuSans-93"/>
    </g>
   </g>
   <g id="legend_1">
    <g id="patch_7">
     <path d="M 92.717969 365.802375 
L 380.313281 365.802375 
Q 382.313281 365.802375 382.313281 363.802375 
L 382.313281 335.446125 
Q 382.313281 333.446125 380.313281 333.446125 
L 92.717969 333.446125 
Q 90.717969 333.446125 90.717969 335.446125 
L 90.717969 363.802375 
Q 90.717969 365.802375 92.717969 365.802375 
z
" style="fill:#4c4c4c;opacity:0.5;stroke:#4c4c4c;stroke-linejoin:miter;"/>
    </g>
    <g id="patch_8">
     <path d="M 90.717969 363.802375 
L 378.313281 363.802375 
Q 380.313281 363.802375 380.313281 361.802375 
L 380.313281 333.446125 
Q 380.313281 331.446125 378.313281 331.446125 
L 90.717969 331.446125 
Q 88.717969 331.446125 88.717969 333.446125 
L 88.717969 361.802375 
Q 88.717969 363.802375 90.717969 363.802375 
z
" style="fill:#ffffff;stroke:#cccccc;stroke-linejoin:miter;"/>
    </g>
    <g id="line2d_24">
     <path d="M 92.717969 339.544562 
L 112.717969 339.544562 
" style="fill:none;stroke:#1f77b4;stroke-linecap:square;stroke-opacity:0.8;stroke-width:1.5;"/>
    </g>
    <g id="line2d_25"/>
    <g id="text_22">
     <!-- MPTT -->
     <g transform="translate(120.717969 343.044562)scale(0.1 -0.1)">
      <defs>
       <path d="M 9.8125 72.90625 
L 24.515625 72.90625 
L 43.109375 23.296875 
L 61.8125 72.90625 
L 76.515625 72.90625 
L 76.515625 0 
L 66.890625 0 
L 66.890625 64.015625 
L 48.09375 14.015625 
L 38.1875 14.015625 
L 19.390625 64.015625 
L 19.390625 0 
L 9.8125 0 
z
" id="DejaVuSans-77"/>
       <path d="M 19.671875 64.796875 
L 19.671875 37.40625 
L 32.078125 37.40625 
Q 38.96875 37.40625 42.71875 40.96875 
Q 46.484375 44.53125 46.484375 51.125 
Q 46.484375 57.671875 42.71875 61.234375 
Q 38.96875 64.796875 32.078125 64.796875 
z
M 9.8125 72.90625 
L 32.078125 72.90625 
Q 44.34375 72.90625 50.609375 67.359375 
Q 56.890625 61.8125 56.890625 51.125 
Q 56.890625 40.328125 50.609375 34.8125 
Q 44.34375 29.296875 32.078125 29.296875 
L 19.671875 29.296875 
L 19.671875 0 
L 9.8125 0 
z
" id="DejaVuSans-80"/>
       <path d="M -0.296875 72.90625 
L 61.375 72.90625 
L 61.375 64.59375 
L 35.5 64.59375 
L 35.5 0 
L 25.59375 0 
L 25.59375 64.59375 
L -0.296875 64.59375 
z
" id="DejaVuSans-84"/>
      </defs>
      <use xlink:href="#DejaVuSans-77"/>
      <use x="86.279297" xlink:href="#DejaVuSans-80"/>
      <use x="146.582031" xlink:href="#DejaVuSans-84"/>
      <use x="205.916016" xlink:href="#DejaVuSans-84"/>
     </g>
    </g>
    <g id="line2d_26">
     <path d="M 92.717969 354.222687 
L 112.717969 354.222687 
" style="fill:none;stroke:#ff7f0e;stroke-linecap:square;stroke-opacity:0.8;stroke-width:1.5;"/>
    </g>
    <g id="line2d_27"/>
    <g id="text_23">
     <!-- tree -->
     <g transform="translate(120.717969 357.722687)scale(0.1 -0.1)">
      <use xlink:href="#DejaVuSans-116"/>
      <use x="39.208984" xlink:href="#DejaVuSans-114"/>
      <use x="78.072266" xlink:href="#DejaVuSans-101"/>
      <use x="139.595703" xlink:href="#DejaVuSans-101"/>
     </g>
    </g>
    <g id="line2d_28">
     <path d="M 167.416406 339.544562 
L 187.416406 339.544562 
" style="fill:none;stroke:#2ca02c;stroke-linecap:square;stroke-opacity:0.8;stroke-width:1.5;"/>
    </g>
    <g id="line2d_29"/>
    <g id="text_24">
     <!-- treebeard AL -->
     <g transform="translate(195.416406 343.044562)scale(0.1 -0.1)">
      <defs>
       <path d="M 45.40625 46.390625 
L 45.40625 75.984375 
L 54.390625 75.984375 
L 54.390625 0 
L 45.40625 0 
L 45.40625 8.203125 
Q 42.578125 3.328125 38.25 0.953125 
Q 33.9375 -1.421875 27.875 -1.421875 
Q 17.96875 -1.421875 11.734375 6.484375 
Q 5.515625 14.40625 5.515625 27.296875 
Q 5.515625 40.1875 11.734375 48.09375 
Q 17.96875 56 27.875 56 
Q 33.9375 56 38.25 53.625 
Q 42.578125 51.265625 45.40625 46.390625 
z
M 14.796875 27.296875 
Q 14.796875 17.390625 18.875 11.75 
Q 22.953125 6.109375 30.078125 6.109375 
Q 37.203125 6.109375 41.296875 11.75 
Q 45.40625 17.390625 45.40625 27.296875 
Q 45.40625 37.203125 41.296875 42.84375 
Q 37.203125 48.484375 30.078125 48.484375 
Q 22.953125 48.484375 18.875 42.84375 
Q 14.796875 37.203125 14.796875 27.296875 
z
" id="DejaVuSans-100"/>
       <path d="M 9.8125 72.90625 
L 19.671875 72.90625 
L 19.671875 8.296875 
L 55.171875 8.296875 
L 55.171875 0 
L 9.8125 0 
z
" id="DejaVuSans-76"/>
      </defs>
      <use xlink:href="#DejaVuSans-116"/>
      <use x="39.208984" xlink:href="#DejaVuSans-114"/>
      <use x="78.072266" xlink:href="#DejaVuSans-101"/>
      <use x="139.595703" xlink:href="#DejaVuSans-101"/>
      <use x="201.119141" xlink:href="#DejaVuSans-98"/>
      <use x="264.595703" xlink:href="#DejaVuSans-101"/>
      <use x="326.119141" xlink:href="#DejaVuSans-97"/>
      <use x="387.398438" xlink:href="#DejaVuSans-114"/>
      <use x="426.761719" xlink:href="#DejaVuSans-100"/>
      <use x="490.238281" xlink:href="#DejaVuSans-32"/>
      <use x="522.025391" xlink:href="#DejaVuSans-65"/>
      <use x="590.433594" xlink:href="#DejaVuSans-76"/>
     </g>
    </g>
    <g id="line2d_30">
     <path d="M 167.416406 354.222687 
L 187.416406 354.222687 
" style="fill:none;stroke:#d62728;stroke-linecap:square;stroke-opacity:0.8;stroke-width:1.5;"/>
    </g>
    <g id="line2d_31"/>
    <g id="text_25">
     <!-- treebeard MP -->
     <g transform="translate(195.416406 357.722687)scale(0.1 -0.1)">
      <use xlink:href="#DejaVuSans-116"/>
      <use x="39.208984" xlink:href="#DejaVuSans-114"/>
      <use x="78.072266" xlink:href="#DejaVuSans-101"/>
      <use x="139.595703" xlink:href="#DejaVuSans-101"/>
      <use x="201.119141" xlink:href="#DejaVuSans-98"/>
      <use x="264.595703" xlink:href="#DejaVuSans-101"/>
      <use x="326.119141" xlink:href="#DejaVuSans-97"/>
      <use x="387.398438" xlink:href="#DejaVuSans-114"/>
      <use x="426.761719" xlink:href="#DejaVuSans-100"/>
      <use x="490.238281" xlink:href="#DejaVuSans-32"/>
      <use x="522.025391" xlink:href="#DejaVuSans-77"/>
      <use x="608.304688" xlink:href="#DejaVuSans-80"/>
     </g>
    </g>
    <g id="line2d_32">
     <path d="M 282.278906 339.544562 
L 302.278906 339.544562 
" style="fill:none;stroke:#9467bd;stroke-linecap:square;stroke-opacity:0.8;stroke-width:1.5;"/>
    </g>
    <g id="line2d_33"/>
    <g id="text_26">
     <!-- treebeard NS -->
     <g transform="translate(310.278906 343.044562)scale(0.1 -0.1)">
      <defs>
       <path d="M 9.8125 72.90625 
L 23.09375 72.90625 
L 55.421875 11.921875 
L 55.421875 72.90625 
L 64.984375 72.90625 
L 64.984375 0 
L 51.703125 0 
L 19.390625 60.984375 
L 19.390625 0 
L 9.8125 0 
z
" id="DejaVuSans-78"/>
      </defs>
      <use xlink:href="#DejaVuSans-116"/>
      <use x="39.208984" xlink:href="#DejaVuSans-114"/>
      <use x="78.072266" xlink:href="#DejaVuSans-101"/>
      <use x="139.595703" xlink:href="#DejaVuSans-101"/>
      <use x="201.119141" xlink:href="#DejaVuSans-98"/>
      <use x="264.595703" xlink:href="#DejaVuSans-101"/>
      <use x="326.119141" xlink:href="#DejaVuSans-97"/>
      <use x="387.398438" xlink:href="#DejaVuSans-114"/>
      <use x="426.761719" xlink:href="#DejaVuSans-100"/>
      <use x="490.238281" xlink:href="#DejaVuSans-32"/>
      <use x="522.025391" xlink:href="#DejaVuSans-78"/>
      <use x="596.830078" xlink:href="#DejaVuSans-83"/>
     </g>
    </g>
   </g>
  </g>
 </g>
 <defs>
  <clipPath id="p7ba2f87e01">
   <rect height="266.112" width="357.12" x="61.715625" y="22.318125"/>
  </clipPath>
 </defs>
</svg>
