<?xml version="1.0" encoding="utf-8" standalone="no"?>
<!DOCTYPE svg PUBLIC "-//W3C//DTD SVG 1.1//EN"
  "http://www.w3.org/Graphics/SVG/1.1/DTD/svg11.dtd">
<svg xmlns:xlink="http://www.w3.org/1999/xlink" width="429.736406pt" height="386.648469pt" viewBox="0 0 429.736406 386.648469" xmlns="http://www.w3.org/2000/svg" version="1.1">
 <metadata>
  <rdf:RDF xmlns:dc="http://purl.org/dc/elements/1.1/" xmlns:cc="http://creativecommons.org/ns#" xmlns:rdf="http://www.w3.org/1999/02/22-rdf-syntax-ns#">
   <cc:Work>
    <dc:type rdf:resource="http://purl.org/dc/dcmitype/StillImage"/>
    <dc:date>2026-06-29T10:26:03.574758</dc:date>
    <dc:format>image/svg+xml</dc:format>
    <dc:creator>
     <cc:Agent>
      <dc:title>Matplotlib v3.11.0, https://matplotlib.org/</dc:title>
     </cc:Agent>
    </dc:creator>
   </cc:Work>
  </rdf:RDF>
 </metadata>
 <defs>
  <style type="text/css">*{stroke-linejoin: round; stroke-linecap: butt}</style>
 </defs>
 <g id="figure_1">
  <g id="patch_1">
   <path d="M 0 386.648469 
L 429.736406 386.648469 
L 429.736406 0 
L 0 0 
z
" style="fill: #ffffff"/>
  </g>
  <g id="axes_1">
   <g id="patch_2">
    <path d="M 65.416406 288.430125 
L 422.536406 288.430125 
L 422.536406 22.318125 
L 65.416406 22.318125 
z
" style="fill: #ffffff"/>
   </g>
   <g id="matplotlib.axis_1">
    <g id="xtick_1">
     <g id="line2d_1">
      <defs>
       <path id="mae91cb8549" d="M 0 0 
L 0 3.5 
" style="stroke: #000000; stroke-width: 0.8"/>
      </defs>
      <g>
       <use xlink:href="#mae91cb8549" x="65.416406" y="288.430125" style="stroke: #000000; stroke-width: 0.8"/>
      </g>
     </g>
     <g id="text_1">
      <!-- 0 -->
      <g transform="translate(62.235156 303.027781) scale(0.1 -0.1)">
       <defs>
        <path id="DejaVuSans-13" d="M 2034 4250 
Q 1547 4250 1301 3770 
Q 1056 3291 1056 2328 
Q 1056 1369 1301 889 
Q 1547 409 2034 409 
Q 2525 409 2770 889 
Q 3016 1369 3016 2328 
Q 3016 3291 2770 3770 
Q 2525 4250 2034 4250 
z
M 2034 4750 
Q 2819 4750 3233 4129 
Q 3647 3509 3647 2328 
Q 3647 1150 3233 529 
Q 2819 -91 2034 -91 
Q 1250 -91 836 529 
Q 422 1150 422 2328 
Q 422 3509 836 4129 
Q 1250 4750 2034 4750 
z
" transform="scale(0.015625)"/>
       </defs>
       <use xlink:href="#DejaVuSans-13"/>
      </g>
     </g>
    </g>
    <g id="xtick_2">
     <g id="line2d_2">
      <g>
       <use xlink:href="#mae91cb8549" x="108.96497" y="288.430125" style="stroke: #000000; stroke-width: 0.8"/>
      </g>
     </g>
     <g id="text_2">
      <!-- 500  -->
      <g transform="translate(97.832158 303.027781) scale(0.1 -0.1)">
       <defs>
        <path id="DejaVuSans-18" d="M 691 4666 
L 3169 4666 
L 3169 4134 
L 1269 4134 
L 1269 2991 
Q 1406 3038 1543 3061 
Q 1681 3084 1819 3084 
Q 2600 3084 3056 2656 
Q 3513 2228 3513 1497 
Q 3513 744 3044 326 
Q 2575 -91 1722 -91 
Q 1428 -91 1123 -41 
Q 819 9 494 109 
L 494 744 
Q 775 591 1075 516 
Q 1375 441 1709 441 
Q 2250 441 2565 725 
Q 2881 1009 2881 1497 
Q 2881 1984 2565 2268 
Q 2250 2553 1709 2553 
Q 1456 2553 1204 2497 
Q 953 2441 691 2322 
L 691 4666 
z
" transform="scale(0.015625)"/>
        <path id="DejaVuSans-3" transform="scale(0.015625)"/>
       </defs>
       <use xlink:href="#DejaVuSans-18"/>
       <use xlink:href="#DejaVuSans-13" transform="translate(63.625 0)"/>
       <use xlink:href="#DejaVuSans-13" transform="translate(127.25 0)"/>
       <use xlink:href="#DejaVuSans-3" transform="translate(190.875 0)"/>
      </g>
     </g>
    </g>
    <g id="xtick_3">
     <g id="line2d_3">
      <g>
       <use xlink:href="#mae91cb8549" x="152.513534" y="288.430125" style="stroke: #000000; stroke-width: 0.8"/>
      </g>
     </g>
     <g id="text_3">
      <!-- 1 k -->
      <g transform="translate(144.847909 303.028562) scale(0.1 -0.1)">
       <defs>
        <path id="DejaVuSans-14" d="M 794 531 
L 1825 531 
L 1825 4091 
L 703 3866 
L 703 4441 
L 1819 4666 
L 2450 4666 
L 2450 531 
L 3481 531 
L 3481 0 
L 794 0 
L 794 531 
z
" transform="scale(0.015625)"/>
        <path id="DejaVuSans-4e" d="M 581 4863 
L 1159 4863 
L 1159 1991 
L 2875 3500 
L 3609 3500 
L 1753 1863 
L 3688 0 
L 2938 0 
L 1159 1709 
L 1159 0 
L 581 0 
L 581 4863 
z
" transform="scale(0.015625)"/>
       </defs>
       <use xlink:href="#DejaVuSans-14"/>
       <use xlink:href="#DejaVuSans-3" transform="translate(63.625 0)"/>
       <use xlink:href="#DejaVuSans-4e" transform="translate(95.40625 0)"/>
      </g>
     </g>
    </g>
    <g id="xtick_4">
     <g id="line2d_4">
      <g>
       <use xlink:href="#mae91cb8549" x="196.062099" y="288.430125" style="stroke: #000000; stroke-width: 0.8"/>
      </g>
     </g>
     <g id="text_4">
      <!-- 1.5 k -->
      <g transform="translate(183.626161 303.028562) scale(0.1 -0.1)">
       <defs>
        <path id="DejaVuSans-11" d="M 684 794 
L 1344 794 
L 1344 0 
L 684 0 
L 684 794 
z
" transform="scale(0.015625)"/>
       </defs>
       <use xlink:href="#DejaVuSans-14"/>
       <use xlink:href="#DejaVuSans-11" transform="translate(63.625 0)"/>
       <use xlink:href="#DejaVuSans-18" transform="translate(95.40625 0)"/>
       <use xlink:href="#DejaVuSans-3" transform="translate(159.03125 0)"/>
       <use xlink:href="#DejaVuSans-4e" transform="translate(190.8125 0)"/>
      </g>
     </g>
    </g>
    <g id="xtick_5">
     <g id="line2d_5">
      <g>
       <use xlink:href="#mae91cb8549" x="239.610663" y="288.430125" style="stroke: #000000; stroke-width: 0.8"/>
      </g>
     </g>
     <g id="text_5">
      <!-- 2 k -->
      <g transform="translate(231.945038 303.028562) scale(0.1 -0.1)">
       <defs>
        <path id="DejaVuSans-15" d="M 1228 531 
L 3431 531 
L 3431 0 
L 469 0 
L 469 531 
Q 828 903 1448 1529 
Q 2069 2156 2228 2338 
Q 2531 2678 2651 2914 
Q 2772 3150 2772 3378 
Q 2772 3750 2511 3984 
Q 2250 4219 1831 4219 
Q 1534 4219 1204 4116 
Q 875 4013 500 3803 
L 500 4441 
Q 881 4594 1212 4672 
Q 1544 4750 1819 4750 
Q 2544 4750 2975 4387 
Q 3406 4025 3406 3419 
Q 3406 3131 3298 2873 
Q 3191 2616 2906 2266 
Q 2828 2175 2409 1742 
Q 1991 1309 1228 531 
z
" transform="scale(0.015625)"/>
       </defs>
       <use xlink:href="#DejaVuSans-15"/>
       <use xlink:href="#DejaVuSans-3" transform="translate(63.625 0)"/>
       <use xlink:href="#DejaVuSans-4e" transform="translate(95.40625 0)"/>
      </g>
     </g>
    </g>
    <g id="xtick_6">
     <g id="line2d_6">
      <g>
       <use xlink:href="#mae91cb8549" x="283.159227" y="288.430125" style="stroke: #000000; stroke-width: 0.8"/>
      </g>
     </g>
     <g id="text_6">
      <!-- 2.5 k -->
      <g transform="translate(270.723289 303.028562) scale(0.1 -0.1)">
       <use xlink:href="#DejaVuSans-15"/>
       <use xlink:href="#DejaVuSans-11" transform="translate(63.625 0)"/>
       <use xlink:href="#DejaVuSans-18" transform="translate(95.40625 0)"/>
       <use xlink:href="#DejaVuSans-3" transform="translate(159.03125 0)"/>
       <use xlink:href="#DejaVuSans-4e" transform="translate(190.8125 0)"/>
      </g>
     </g>
    </g>
    <g id="xtick_7">
     <g id="line2d_7">
      <g>
       <use xlink:href="#mae91cb8549" x="326.707791" y="288.430125" style="stroke: #000000; stroke-width: 0.8"/>
      </g>
     </g>
     <g id="text_7">
      <!-- 3 k -->
      <g transform="translate(319.042166 303.028562) scale(0.1 -0.1)">
       <defs>
        <path id="DejaVuSans-16" d="M 2597 2516 
Q 3050 2419 3304 2112 
Q 3559 1806 3559 1356 
Q 3559 666 3084 287 
Q 2609 -91 1734 -91 
Q 1441 -91 1130 -33 
Q 819 25 488 141 
L 488 750 
Q 750 597 1062 519 
Q 1375 441 1716 441 
Q 2309 441 2620 675 
Q 2931 909 2931 1356 
Q 2931 1769 2642 2001 
Q 2353 2234 1838 2234 
L 1294 2234 
L 1294 2753 
L 1863 2753 
Q 2328 2753 2575 2939 
Q 2822 3125 2822 3475 
Q 2822 3834 2567 4026 
Q 2313 4219 1838 4219 
Q 1578 4219 1281 4162 
Q 984 4106 628 3988 
L 628 4550 
Q 988 4650 1302 4700 
Q 1616 4750 1894 4750 
Q 2613 4750 3031 4423 
Q 3450 4097 3450 3541 
Q 3450 3153 3228 2886 
Q 3006 2619 2597 2516 
z
" transform="scale(0.015625)"/>
       </defs>
       <use xlink:href="#DejaVuSans-16"/>
       <use xlink:href="#DejaVuSans-3" transform="translate(63.625 0)"/>
       <use xlink:href="#DejaVuSans-4e" transform="translate(95.40625 0)"/>
      </g>
     </g>
    </g>
    <g id="xtick_8">
     <g id="line2d_8">
      <g>
       <use xlink:href="#mae91cb8549" x="370.256355" y="288.430125" style="stroke: #000000; stroke-width: 0.8"/>
      </g>
     </g>
     <g id="text_8">
      <!-- 3.5 k -->
      <g transform="translate(357.820418 303.028562) scale(0.1 -0.1)">
       <use xlink:href="#DejaVuSans-16"/>
       <use xlink:href="#DejaVuSans-11" transform="translate(63.625 0)"/>
       <use xlink:href="#DejaVuSans-18" transform="translate(95.40625 0)"/>
       <use xlink:href="#DejaVuSans-3" transform="translate(159.03125 0)"/>
       <use xlink:href="#DejaVuSans-4e" transform="translate(190.8125 0)"/>
      </g>
     </g>
    </g>
    <g id="xtick_9">
     <g id="line2d_9">
      <g>
       <use xlink:href="#mae91cb8549" x="413.804919" y="288.430125" style="stroke: #000000; stroke-width: 0.8"/>
      </g>
     </g>
     <g id="text_9">
      <!-- 4 k -->
      <g transform="translate(406.139294 303.028562) scale(0.1 -0.1)">
       <defs>
        <path id="DejaVuSans-17" d="M 2419 4116 
L 825 1625 
L 2419 1625 
L 2419 4116 
z
M 2253 4666 
L 3047 4666 
L 3047 1625 
L 3713 1625 
L 3713 1100 
L 3047 1100 
L 3047 0 
L 2419 0 
L 2419 1100 
L 313 1100 
L 313 1709 
L 2253 4666 
z
" transform="scale(0.015625)"/>
       </defs>
       <use xlink:href="#DejaVuSans-17"/>
       <use xlink:href="#DejaVuSans-3" transform="translate(63.625 0)"/>
       <use xlink:href="#DejaVuSans-4e" transform="translate(95.40625 0)"/>
      </g>
     </g>
    </g>
    <g id="text_10">
     <!-- Amount of objects in table -->
     <g transform="translate(177.917813 317.029344) scale(0.1 -0.1)">
      <defs>
       <path id="DejaVuSans-24" d="M 2188 4044 
L 1331 1722 
L 3047 1722 
L 2188 4044 
z
M 1831 4666 
L 2547 4666 
L 4325 0 
L 3669 0 
L 3244 1197 
L 1141 1197 
L 716 0 
L 50 0 
L 1831 4666 
z
" transform="scale(0.015625)"/>
       <path id="DejaVuSans-50" d="M 3328 2828 
Q 3544 3216 3844 3400 
Q 4144 3584 4550 3584 
Q 5097 3584 5394 3201 
Q 5691 2819 5691 2113 
L 5691 0 
L 5113 0 
L 5113 2094 
Q 5113 2597 4934 2840 
Q 4756 3084 4391 3084 
Q 3944 3084 3684 2787 
Q 3425 2491 3425 1978 
L 3425 0 
L 2847 0 
L 2847 2094 
Q 2847 2600 2669 2842 
Q 2491 3084 2119 3084 
Q 1678 3084 1418 2786 
Q 1159 2488 1159 1978 
L 1159 0 
L 581 0 
L 581 3500 
L 1159 3500 
L 1159 2956 
Q 1356 3278 1631 3431 
Q 1906 3584 2284 3584 
Q 2666 3584 2933 3390 
Q 3200 3197 3328 2828 
z
" transform="scale(0.015625)"/>
       <path id="DejaVuSans-52" d="M 1959 3097 
Q 1497 3097 1228 2736 
Q 959 2375 959 1747 
Q 959 1119 1226 758 
Q 1494 397 1959 397 
Q 2419 397 2687 759 
Q 2956 1122 2956 1747 
Q 2956 2369 2687 2733 
Q 2419 3097 1959 3097 
z
M 1959 3584 
Q 2709 3584 3137 3096 
Q 3566 2609 3566 1747 
Q 3566 888 3137 398 
Q 2709 -91 1959 -91 
Q 1206 -91 779 398 
Q 353 888 353 1747 
Q 353 2609 779 3096 
Q 1206 3584 1959 3584 
z
" transform="scale(0.015625)"/>
       <path id="DejaVuSans-58" d="M 544 1381 
L 544 3500 
L 1119 3500 
L 1119 1403 
Q 1119 906 1312 657 
Q 1506 409 1894 409 
Q 2359 409 2629 706 
Q 2900 1003 2900 1516 
L 2900 3500 
L 3475 3500 
L 3475 0 
L 2900 0 
L 2900 538 
Q 2691 219 2414 64 
Q 2138 -91 1772 -91 
Q 1169 -91 856 284 
Q 544 659 544 1381 
z
M 1991 3584 
L 1991 3584 
z
" transform="scale(0.015625)"/>
       <path id="DejaVuSans-51" d="M 3513 2113 
L 3513 0 
L 2938 0 
L 2938 2094 
Q 2938 2591 2744 2837 
Q 2550 3084 2163 3084 
Q 1697 3084 1428 2787 
Q 1159 2491 1159 1978 
L 1159 0 
L 581 0 
L 581 3500 
L 1159 3500 
L 1159 2956 
Q 1366 3272 1645 3428 
Q 1925 3584 2291 3584 
Q 2894 3584 3203 3211 
Q 3513 2838 3513 2113 
z
" transform="scale(0.015625)"/>
       <path id="DejaVuSans-57" d="M 1172 4494 
L 1172 3500 
L 2356 3500 
L 2356 3053 
L 1172 3053 
L 1172 1153 
Q 1172 725 1289 603 
Q 1406 481 1766 481 
L 2356 481 
L 2356 0 
L 1766 0 
Q 1100 0 847 248 
Q 594 497 594 1153 
L 594 3053 
L 172 3053 
L 172 3500 
L 594 3500 
L 594 4494 
L 1172 4494 
z
" transform="scale(0.015625)"/>
       <path id="DejaVuSans-49" d="M 2375 4863 
L 2375 4384 
L 1825 4384 
Q 1516 4384 1395 4259 
Q 1275 4134 1275 3809 
L 1275 3500 
L 2222 3500 
L 2222 3053 
L 1275 3053 
L 1275 0 
L 697 0 
L 697 3053 
L 147 3053 
L 147 3500 
L 697 3500 
L 697 3744 
Q 697 4328 969 4595 
Q 1241 4863 1831 4863 
L 2375 4863 
z
" transform="scale(0.015625)"/>
       <path id="DejaVuSans-45" d="M 3116 1747 
Q 3116 2381 2855 2742 
Q 2594 3103 2138 3103 
Q 1681 3103 1420 2742 
Q 1159 2381 1159 1747 
Q 1159 1113 1420 752 
Q 1681 391 2138 391 
Q 2594 391 2855 752 
Q 3116 1113 3116 1747 
z
M 1159 2969 
Q 1341 3281 1617 3432 
Q 1894 3584 2278 3584 
Q 2916 3584 3314 3078 
Q 3713 2572 3713 1747 
Q 3713 922 3314 415 
Q 2916 -91 2278 -91 
Q 1894 -91 1617 61 
Q 1341 213 1159 525 
L 1159 0 
L 581 0 
L 581 4863 
L 1159 4863 
L 1159 2969 
z
" transform="scale(0.015625)"/>
       <path id="DejaVuSans-4d" d="M 603 3500 
L 1178 3500 
L 1178 -63 
Q 1178 -731 923 -1031 
Q 669 -1331 103 -1331 
L -116 -1331 
L -116 -844 
L 38 -844 
Q 366 -844 484 -692 
Q 603 -541 603 -63 
L 603 3500 
z
M 603 4863 
L 1178 4863 
L 1178 4134 
L 603 4134 
L 603 4863 
z
" transform="scale(0.015625)"/>
       <path id="DejaVuSans-48" d="M 3597 1894 
L 3597 1613 
L 953 1613 
Q 991 1019 1311 708 
Q 1631 397 2203 397 
Q 2534 397 2845 478 
Q 3156 559 3463 722 
L 3463 178 
Q 3153 47 2828 -22 
Q 2503 -91 2169 -91 
Q 1331 -91 842 396 
Q 353 884 353 1716 
Q 353 2575 817 3079 
Q 1281 3584 2069 3584 
Q 2775 3584 3186 3129 
Q 3597 2675 3597 1894 
z
M 3022 2063 
Q 3016 2534 2758 2815 
Q 2500 3097 2075 3097 
Q 1594 3097 1305 2825 
Q 1016 2553 972 2059 
L 3022 2063 
z
" transform="scale(0.015625)"/>
       <path id="DejaVuSans-46" d="M 3122 3366 
L 3122 2828 
Q 2878 2963 2633 3030 
Q 2388 3097 2138 3097 
Q 1578 3097 1268 2742 
Q 959 2388 959 1747 
Q 959 1106 1268 751 
Q 1578 397 2138 397 
Q 2388 397 2633 464 
Q 2878 531 3122 666 
L 3122 134 
Q 2881 22 2623 -34 
Q 2366 -91 2075 -91 
Q 1284 -91 818 406 
Q 353 903 353 1747 
Q 353 2603 823 3093 
Q 1294 3584 2113 3584 
Q 2378 3584 2631 3529 
Q 2884 3475 3122 3366 
z
" transform="scale(0.015625)"/>
       <path id="DejaVuSans-56" d="M 2834 3397 
L 2834 2853 
Q 2591 2978 2328 3040 
Q 2066 3103 1784 3103 
Q 1356 3103 1142 2972 
Q 928 2841 928 2578 
Q 928 2378 1081 2264 
Q 1234 2150 1697 2047 
L 1894 2003 
Q 2506 1872 2764 1633 
Q 3022 1394 3022 966 
Q 3022 478 2636 193 
Q 2250 -91 1575 -91 
Q 1294 -91 989 -36 
Q 684 19 347 128 
L 347 722 
Q 666 556 975 473 
Q 1284 391 1588 391 
Q 1994 391 2212 530 
Q 2431 669 2431 922 
Q 2431 1156 2273 1281 
Q 2116 1406 1581 1522 
L 1381 1569 
Q 847 1681 609 1914 
Q 372 2147 372 2553 
Q 372 3047 722 3315 
Q 1072 3584 1716 3584 
Q 2034 3584 2315 3537 
Q 2597 3491 2834 3397 
z
" transform="scale(0.015625)"/>
       <path id="DejaVuSans-4c" d="M 603 3500 
L 1178 3500 
L 1178 0 
L 603 0 
L 603 3500 
z
M 603 4863 
L 1178 4863 
L 1178 4134 
L 603 4134 
L 603 4863 
z
" transform="scale(0.015625)"/>
       <path id="DejaVuSans-44" d="M 2194 1759 
Q 1497 1759 1228 1600 
Q 959 1441 959 1056 
Q 959 750 1161 570 
Q 1363 391 1709 391 
Q 2188 391 2477 730 
Q 2766 1069 2766 1631 
L 2766 1759 
L 2194 1759 
z
M 3341 1997 
L 3341 0 
L 2766 0 
L 2766 531 
Q 2569 213 2275 61 
Q 1981 -91 1556 -91 
Q 1019 -91 701 211 
Q 384 513 384 1019 
Q 384 1609 779 1909 
Q 1175 2209 1959 2209 
L 2766 2209 
L 2766 2266 
Q 2766 2663 2505 2880 
Q 2244 3097 1772 3097 
Q 1472 3097 1187 3025 
Q 903 2953 641 2809 
L 641 3341 
Q 956 3463 1253 3523 
Q 1550 3584 1831 3584 
Q 2591 3584 2966 3190 
Q 3341 2797 3341 1997 
z
" transform="scale(0.015625)"/>
       <path id="DejaVuSans-4f" d="M 603 4863 
L 1178 4863 
L 1178 0 
L 603 0 
L 603 4863 
z
" transform="scale(0.015625)"/>
      </defs>
      <use xlink:href="#DejaVuSans-24"/>
      <use xlink:href="#DejaVuSans-50" transform="translate(68.40625 0)"/>
      <use xlink:href="#DejaVuSans-52" transform="translate(165.8125 0)"/>
      <use xlink:href="#DejaVuSans-58" transform="translate(227 0)"/>
      <use xlink:href="#DejaVuSans-51" transform="translate(290.375 0)"/>
      <use xlink:href="#DejaVuSans-57" transform="translate(353.75 0)"/>
      <use xlink:href="#DejaVuSans-3" transform="translate(392.953125 0)"/>
      <use xlink:href="#DejaVuSans-52" transform="translate(424.734375 0)"/>
      <use xlink:href="#DejaVuSans-49" transform="translate(485.921875 0)"/>
      <use xlink:href="#DejaVuSans-3" transform="translate(521.125 0)"/>
      <use xlink:href="#DejaVuSans-52" transform="translate(552.90625 0)"/>
      <use xlink:href="#DejaVuSans-45" transform="translate(614.09375 0)"/>
      <use xlink:href="#DejaVuSans-4d" transform="translate(677.578125 0)"/>
      <use xlink:href="#DejaVuSans-48" transform="translate(705.359375 0)"/>
      <use xlink:href="#DejaVuSans-46" transform="translate(766.890625 0)"/>
      <use xlink:href="#DejaVuSans-57" transform="translate(821.875 0)"/>
      <use xlink:href="#DejaVuSans-56" transform="translate(861.078125 0)"/>
      <use xlink:href="#DejaVuSans-3" transform="translate(913.171875 0)"/>
      <use xlink:href="#DejaVuSans-4c" transform="translate(944.953125 0)"/>
      <use xlink:href="#DejaVuSans-51" transform="translate(972.734375 0)"/>
      <use xlink:href="#DejaVuSans-3" transform="translate(1036.109375 0)"/>
      <use xlink:href="#DejaVuSans-57" transform="translate(1067.890625 0)"/>
      <use xlink:href="#DejaVuSans-44" transform="translate(1107.09375 0)"/>
      <use xlink:href="#DejaVuSans-45" transform="translate(1168.375 0)"/>
      <use xlink:href="#DejaVuSans-4f" transform="translate(1231.859375 0)"/>
      <use xlink:href="#DejaVuSans-48" transform="translate(1259.640625 0)"/>
     </g>
    </g>
   </g>
   <g id="matplotlib.axis_2">
    <g id="ytick_1">
     <g id="line2d_10">
      <defs>
       <path id="m2a83fd4b1a" d="M 0 0 
L -3.5 0 
" style="stroke: #000000; stroke-width: 0.8"/>
      </defs>
      <g>
       <use xlink:href="#m2a83fd4b1a" x="65.416406" y="288.430125" style="stroke: #000000; stroke-width: 0.8"/>
      </g>
     </g>
     <g id="text_11">
      <!-- 0 -->
      <g transform="translate(52.053906 292.228953) scale(0.1 -0.1)">
       <use xlink:href="#DejaVuSans-13"/>
      </g>
     </g>
    </g>
    <g id="ytick_2">
     <g id="line2d_11">
      <g>
       <use xlink:href="#m2a83fd4b1a" x="65.416406" y="232.503012" style="stroke: #000000; stroke-width: 0.8"/>
      </g>
     </g>
     <g id="text_12">
      <!-- 100 ms -->
      <g transform="translate(21.200781 236.30184) scale(0.1 -0.1)">
       <use xlink:href="#DejaVuSans-14"/>
       <use xlink:href="#DejaVuSans-13" transform="translate(63.625 0)"/>
       <use xlink:href="#DejaVuSans-13" transform="translate(127.25 0)"/>
       <use xlink:href="#DejaVuSans-3" transform="translate(190.875 0)"/>
       <use xlink:href="#DejaVuSans-50" transform="translate(222.65625 0)"/>
       <use xlink:href="#DejaVuSans-56" transform="translate(320.0625 0)"/>
      </g>
     </g>
    </g>
    <g id="ytick_3">
     <g id="line2d_12">
      <g>
       <use xlink:href="#m2a83fd4b1a" x="65.416406" y="176.575898" style="stroke: #000000; stroke-width: 0.8"/>
      </g>
     </g>
     <g id="text_13">
      <!-- 200 ms -->
      <g transform="translate(21.200781 180.374726) scale(0.1 -0.1)">
       <use xlink:href="#DejaVuSans-15"/>
       <use xlink:href="#DejaVuSans-13" transform="translate(63.625 0)"/>
       <use xlink:href="#DejaVuSans-13" transform="translate(127.25 0)"/>
       <use xlink:href="#DejaVuSans-3" transform="translate(190.875 0)"/>
       <use xlink:href="#DejaVuSans-50" transform="translate(222.65625 0)"/>
       <use xlink:href="#DejaVuSans-56" transform="translate(320.0625 0)"/>
      </g>
     </g>
    </g>
    <g id="ytick_4">
     <g id="line2d_13">
      <g>
       <use xlink:href="#m2a83fd4b1a" x="65.416406" y="120.648785" style="stroke: #000000; stroke-width: 0.8"/>
      </g>
     </g>
     <g id="text_14">
      <!-- 300 ms -->
      <g transform="translate(21.200781 124.447613) scale(0.1 -0.1)">
       <use xlink:href="#DejaVuSans-16"/>
       <use xlink:href="#DejaVuSans-13" transform="translate(63.625 0)"/>
       <use xlink:href="#DejaVuSans-13" transform="translate(127.25 0)"/>
       <use xlink:href="#DejaVuSans-3" transform="translate(190.875 0)"/>
       <use xlink:href="#DejaVuSans-50" transform="translate(222.65625 0)"/>
       <use xlink:href="#DejaVuSans-56" transform="translate(320.0625 0)"/>
      </g>
     </g>
    </g>
    <g id="ytick_5">
     <g id="line2d_14">
      <g>
       <use xlink:href="#m2a83fd4b1a" x="65.416406" y="64.721672" style="stroke: #000000; stroke-width: 0.8"/>
      </g>
     </g>
     <g id="text_15">
      <!-- 400 ms -->
      <g transform="translate(21.200781 68.5205) scale(0.1 -0.1)">
       <use xlink:href="#DejaVuSans-17"/>
       <use xlink:href="#DejaVuSans-13" transform="translate(63.625 0)"/>
       <use xlink:href="#DejaVuSans-13" transform="translate(127.25 0)"/>
       <use xlink:href="#DejaVuSans-3" transform="translate(190.875 0)"/>
       <use xlink:href="#DejaVuSans-50" transform="translate(222.65625 0)"/>
       <use xlink:href="#DejaVuSans-56" transform="translate(320.0625 0)"/>
      </g>
     </g>
    </g>
    <g id="text_16">
     <!-- Write latency (s) -->
     <g transform="translate(14.798438 196.626469) rotate(-90) scale(0.1 -0.1)">
      <defs>
       <path id="DejaVuSans-3a" d="M 213 4666 
L 850 4666 
L 1831 722 
L 2809 4666 
L 3519 4666 
L 4500 722 
L 5478 4666 
L 6119 4666 
L 4947 0 
L 4153 0 
L 3169 4050 
L 2175 0 
L 1381 0 
L 213 4666 
z
" transform="scale(0.015625)"/>
       <path id="DejaVuSans-55" d="M 2631 2963 
Q 2534 3019 2420 3045 
Q 2306 3072 2169 3072 
Q 1681 3072 1420 2755 
Q 1159 2438 1159 1844 
L 1159 0 
L 581 0 
L 581 3500 
L 1159 3500 
L 1159 2956 
Q 1341 3275 1631 3429 
Q 1922 3584 2338 3584 
Q 2397 3584 2469 3576 
Q 2541 3569 2628 3553 
L 2631 2963 
z
" transform="scale(0.015625)"/>
       <path id="DejaVuSans-5c" d="M 2059 -325 
Q 1816 -950 1584 -1140 
Q 1353 -1331 966 -1331 
L 506 -1331 
L 506 -850 
L 844 -850 
Q 1081 -850 1212 -737 
Q 1344 -625 1503 -206 
L 1606 56 
L 191 3500 
L 800 3500 
L 1894 763 
L 2988 3500 
L 3597 3500 
L 2059 -325 
z
" transform="scale(0.015625)"/>
       <path id="DejaVuSans-b" d="M 1984 4856 
Q 1566 4138 1362 3434 
Q 1159 2731 1159 2009 
Q 1159 1288 1364 580 
Q 1569 -128 1984 -844 
L 1484 -844 
Q 1016 -109 783 600 
Q 550 1309 550 2009 
Q 550 2706 781 3412 
Q 1013 4119 1484 4856 
L 1984 4856 
z
" transform="scale(0.015625)"/>
       <path id="DejaVuSans-c" d="M 513 4856 
L 1013 4856 
Q 1481 4119 1714 3412 
Q 1947 2706 1947 2009 
Q 1947 1309 1714 600 
Q 1481 -109 1013 -844 
L 513 -844 
Q 928 -128 1133 580 
Q 1338 1288 1338 2009 
Q 1338 2731 1133 3434 
Q 928 4138 513 4856 
z
" transform="scale(0.015625)"/>
      </defs>
      <use xlink:href="#DejaVuSans-3a"/>
      <use xlink:href="#DejaVuSans-55" transform="translate(94.390625 0)"/>
      <use xlink:href="#DejaVuSans-4c" transform="translate(135.5 0)"/>
      <use xlink:href="#DejaVuSans-57" transform="translate(163.28125 0)"/>
      <use xlink:href="#DejaVuSans-48" transform="translate(202.484375 0)"/>
      <use xlink:href="#DejaVuSans-3" transform="translate(264.015625 0)"/>
      <use xlink:href="#DejaVuSans-4f" transform="translate(295.796875 0)"/>
      <use xlink:href="#DejaVuSans-44" transform="translate(323.578125 0)"/>
      <use xlink:href="#DejaVuSans-57" transform="translate(384.859375 0)"/>
      <use xlink:href="#DejaVuSans-48" transform="translate(424.0625 0)"/>
      <use xlink:href="#DejaVuSans-51" transform="translate(485.59375 0)"/>
      <use xlink:href="#DejaVuSans-46" transform="translate(548.96875 0)"/>
      <use xlink:href="#DejaVuSans-5c" transform="translate(603.953125 0)"/>
      <use xlink:href="#DejaVuSans-3" transform="translate(663.140625 0)"/>
      <use xlink:href="#DejaVuSans-b" transform="translate(694.921875 0)"/>
      <use xlink:href="#DejaVuSans-56" transform="translate(733.9375 0)"/>
      <use xlink:href="#DejaVuSans-c" transform="translate(786.03125 0)"/>
     </g>
    </g>
   </g>
   <g id="line2d_15">
    <path d="M 152.513534 284.902159 
L 161.223247 284.513897 
L 169.93296 284.279471 
L 178.642673 283.911438 
L 187.352386 283.64809 
L 196.062099 283.555538 
L 204.771811 283.408917 
L 213.481524 283.41025 
L 222.191237 283.432518 
L 230.90095 283.380755 
L 239.610663 283.431852 
L 248.320376 283.457026 
L 257.030088 283.516189 
L 265.739801 283.680358 
L 274.449514 283.759656 
L 283.159227 283.735081 
L 291.86894 283.675545 
L 300.578652 283.46324 
L 309.288365 283.372555 
L 317.998078 283.373248 
L 326.707791 283.146009 
L 335.417504 282.830565 
L 344.127217 282.170809 
L 352.836929 281.926089 
L 361.546642 281.737852 
L 370.256355 281.542215 
L 378.966068 281.442689 
L 387.675781 281.438689 
L 396.385494 281.151127 
L 405.095206 280.84491 
L 405.530692 280.651913 
" clip-path="url(#p84156e1007)" style="fill: none; stroke: #1f77b4; stroke-opacity: 0.8; stroke-width: 1.5; stroke-linecap: square"/>
   </g>
   <g id="line2d_16">
    <path d="M 152.513534 288.126122 
L 161.223247 288.120041 
L 169.93296 288.127388 
L 178.642673 288.125842 
L 187.352386 288.117215 
L 196.062099 288.118895 
L 204.771811 288.109321 
L 213.481524 288.117215 
L 222.191237 288.112908 
L 230.90095 288.09012 
L 239.610663 288.090093 
L 248.320376 288.083919 
L 257.030088 288.071585 
L 265.739801 288.049758 
L 274.449514 288.039824 
L 283.159227 287.988688 
L 291.86894 287.965433 
L 300.578652 287.946339 
L 309.288365 287.934378 
L 317.998078 287.933071 
L 326.707791 287.937431 
L 335.417504 287.924684 
L 344.127217 287.905456 
L 352.836929 287.887802 
L 361.546642 287.883295 
L 370.256355 287.897376 
L 378.966068 287.90747 
L 387.675781 287.907576 
L 396.385494 287.907043 
L 405.095206 287.899496 
L 405.530692 287.892949 
" clip-path="url(#p84156e1007)" style="fill: none; stroke: #ff7f0e; stroke-opacity: 0.8; stroke-width: 1.5; stroke-linecap: square"/>
   </g>
   <g id="line2d_17">
    <path d="M 152.513534 288.240755 
L 161.223247 288.239155 
L 169.93296 288.227274 
L 178.642673 288.220047 
L 187.352386 288.2181 
L 196.062099 288.267836 
L 204.771811 288.258582 
L 213.481524 288.255249 
L 222.191237 288.262356 
L 230.90095 288.262929 
L 239.610663 288.265289 
L 248.320376 288.264223 
L 257.030088 288.26901 
L 265.739801 288.261822 
L 274.449514 288.250875 
L 283.159227 288.256556 
L 291.86894 288.264316 
L 300.578652 288.263449 
L 309.288365 288.252422 
L 317.998078 288.241795 
L 326.707791 288.243181 
L 335.417504 288.236168 
L 344.127217 288.233621 
L 352.836929 288.244742 
L 361.546642 288.245822 
L 370.256355 288.237474 
L 378.966068 288.228847 
L 387.675781 288.219153 
L 396.385494 288.219687 
L 405.095206 288.234208 
L 405.530692 288.232541 
" clip-path="url(#p84156e1007)" style="fill: none; stroke: #2ca02c; stroke-opacity: 0.8; stroke-width: 1.5; stroke-linecap: square"/>
   </g>
   <g id="line2d_18">
    <path d="M 152.513534 288.254462 
L 161.223247 288.260569 
L 169.93296 288.255675 
L 178.642673 288.248542 
L 187.352386 288.242915 
L 196.062099 288.248902 
L 204.771811 288.248915 
L 213.481524 288.266236 
L 222.191237 288.266676 
L 230.90095 288.267796 
L 239.610663 288.263503 
L 248.320376 288.255795 
L 257.030088 288.251995 
L 265.739801 288.251689 
L 274.449514 288.259516 
L 283.159227 288.252089 
L 291.86894 288.244702 
L 300.578652 288.242435 
L 309.288365 288.233141 
L 317.998078 288.232794 
L 326.707791 288.237474 
L 335.417504 288.243941 
L 344.127217 288.244808 
L 352.836929 288.245555 
L 361.546642 288.239568 
L 370.256355 288.240181 
L 378.966068 288.238928 
L 387.675781 288.246475 
L 396.385494 288.246715 
L 405.095206 288.247515 
L 405.530692 288.241048 
" clip-path="url(#p84156e1007)" style="fill: none; stroke: #d62728; stroke-opacity: 0.8; stroke-width: 1.5; stroke-linecap: square"/>
   </g>
   <g id="line2d_19">
    <path d="M 152.513534 287.582972 
L 161.223247 287.584692 
L 169.93296 287.640175 
L 178.642673 287.66527 
L 187.352386 287.696792 
L 196.062099 287.732033 
L 204.771811 287.586519 
L 213.481524 287.594799 
L 222.191237 287.077224 
L 230.90095 286.307462 
L 239.610663 286.311902 
L 248.320376 285.925735 
L 257.030088 285.930842 
L 265.739801 285.16676 
L 274.449514 285.175094 
L 283.159227 285.203455 
L 291.86894 285.394199 
L 300.578652 285.382998 
L 309.288365 285.905454 
L 317.998078 286.538782 
L 326.707791 286.530821 
L 335.417504 286.931336 
L 344.127217 286.917656 
L 352.836929 287.258568 
L 361.546642 287.131321 
L 370.256355 287.113386 
L 378.966068 286.775021 
L 387.675781 286.799142 
L 396.385494 286.786088 
L 405.095206 286.530994 
L 405.530692 286.561849 
" clip-path="url(#p84156e1007)" style="fill: none; stroke: #9467bd; stroke-opacity: 0.8; stroke-width: 1.5; stroke-linecap: square"/>
   </g>
   <g id="line2d_20">
    <path d="M 152.513534 285.396519 
L 161.223247 285.068168 
L 169.93296 284.694854 
L 178.642673 284.421012 
L 187.352386 284.067166 
L 196.062099 283.616755 
L 204.771811 283.185065 
L 213.481524 283.071458 
L 222.191237 282.811004 
L 230.90095 282.629141 
L 239.610663 282.526109 
L 248.320376 282.527455 
L 257.030088 282.715386 
L 265.739801 282.8609 
L 274.449514 282.750068 
L 283.159227 282.668236 
L 291.86894 282.62086 
L 300.578652 282.423716 
L 309.288365 281.926996 
L 317.998078 281.407114 
L 326.707791 280.809188 
L 335.417504 280.252518 
L 344.127217 279.265784 
L 352.836929 278.446325 
L 361.546642 277.869934 
L 370.256355 277.557223 
L 378.966068 276.75706 
L 387.675781 275.78654 
L 396.385494 275.364743 
L 405.095206 274.680786 
L 405.530692 274.195546 
" clip-path="url(#p84156e1007)" style="fill: none; stroke: #8c564b; stroke-opacity: 0.8; stroke-width: 1.5; stroke-linecap: square"/>
   </g>
   <g id="line2d_21">
    <path d="M 152.513534 238.753714 
L 161.223247 229.910376 
L 169.93296 223.586804 
L 178.642673 213.384726 
L 187.352386 203.570829 
L 196.062099 194.809363 
L 204.771811 188.91872 
L 213.481524 181.193898 
L 222.191237 170.490005 
L 230.90095 158.563339 
L 239.610663 150.424334 
L 248.320376 134.857589 
L 257.030088 120.275751 
L 265.739801 106.954596 
L 274.449514 94.731567 
L 283.159227 84.463339 
L 291.86894 79.273748 
L 300.578652 72.941628 
L 309.288365 67.430967 
L 317.998078 61.217147 
L 326.707791 51.366688 
L 335.417504 53.665613 
L 344.127217 52.029737 
L 352.836929 57.014263 
L 361.546642 58.694715 
L 370.256355 51.372995 
L 378.966068 44.924082 
L 387.675781 41.180184 
L 396.385494 35.883054 
L 405.095206 37.166977 
L 405.530692 34.990125 
" clip-path="url(#p84156e1007)" style="fill: none; stroke: #e377c2; stroke-opacity: 0.8; stroke-width: 1.5; stroke-linecap: square"/>
   </g>
   <g id="patch_3">
    <path d="M 65.416406 288.430125 
L 65.416406 22.318125 
" style="fill: none; stroke: #000000; stroke-width: 0.8; stroke-linejoin: miter; stroke-linecap: square"/>
   </g>
   <g id="patch_4">
    <path d="M 422.536406 288.430125 
L 422.536406 22.318125 
" style="fill: none; stroke: #000000; stroke-width: 0.8; stroke-linejoin: miter; stroke-linecap: square"/>
   </g>
   <g id="patch_5">
    <path d="M 65.416406 288.430125 
L 422.536406 288.430125 
" style="fill: none; stroke: #000000; stroke-width: 0.8; stroke-linejoin: miter; stroke-linecap: square"/>
   </g>
   <g id="patch_6">
    <path d="M 65.416406 22.318125 
L 422.536406 22.318125 
" style="fill: none; stroke: #000000; stroke-width: 0.8; stroke-linejoin: miter; stroke-linecap: square"/>
   </g>
   <g id="text_17">
    <!-- Move [leaf to branch] -->
    <g transform="translate(179.454844 16.318125) scale(0.12 -0.12)">
     <defs>
      <path id="DejaVuSans-30" d="M 628 4666 
L 1569 4666 
L 2759 1491 
L 3956 4666 
L 4897 4666 
L 4897 0 
L 4281 0 
L 4281 4097 
L 3078 897 
L 2444 897 
L 1241 4097 
L 1241 0 
L 628 0 
L 628 4666 
z
" transform="scale(0.015625)"/>
      <path id="DejaVuSans-59" d="M 191 3500 
L 800 3500 
L 1894 563 
L 2988 3500 
L 3597 3500 
L 2284 0 
L 1503 0 
L 191 3500 
z
" transform="scale(0.015625)"/>
      <path id="DejaVuSans-3e" d="M 550 4863 
L 1875 4863 
L 1875 4416 
L 1125 4416 
L 1125 -397 
L 1875 -397 
L 1875 -844 
L 550 -844 
L 550 4863 
z
" transform="scale(0.015625)"/>
      <path id="DejaVuSans-4b" d="M 3513 2113 
L 3513 0 
L 2938 0 
L 2938 2094 
Q 2938 2591 2744 2837 
Q 2550 3084 2163 3084 
Q 1697 3084 1428 2787 
Q 1159 2491 1159 1978 
L 1159 0 
L 581 0 
L 581 4863 
L 1159 4863 
L 1159 2956 
Q 1366 3272 1645 3428 
Q 1925 3584 2291 3584 
Q 2894 3584 3203 3211 
Q 3513 2838 3513 2113 
z
" transform="scale(0.015625)"/>
      <path id="DejaVuSans-40" d="M 1947 4863 
L 1947 -844 
L 622 -844 
L 622 -397 
L 1369 -397 
L 1369 4416 
L 622 4416 
L 622 4863 
L 1947 4863 
z
" transform="scale(0.015625)"/>
     </defs>
     <use xlink:href="#DejaVuSans-30"/>
     <use xlink:href="#DejaVuSans-52" transform="translate(86.28125 0)"/>
     <use xlink:href="#DejaVuSans-59" transform="translate(147.46875 0)"/>
     <use xlink:href="#DejaVuSans-48" transform="translate(206.65625 0)"/>
     <use xlink:href="#DejaVuSans-3" transform="translate(268.1875 0)"/>
     <use xlink:href="#DejaVuSans-3e" transform="translate(299.96875 0)"/>
     <use xlink:href="#DejaVuSans-4f" transform="translate(338.984375 0)"/>
     <use xlink:href="#DejaVuSans-48" transform="translate(366.765625 0)"/>
     <use xlink:href="#DejaVuSans-44" transform="translate(428.296875 0)"/>
     <use xlink:href="#DejaVuSans-49" transform="translate(489.578125 0)"/>
     <use xlink:href="#DejaVuSans-3" transform="translate(524.78125 0)"/>
     <use xlink:href="#DejaVuSans-57" transform="translate(556.5625 0)"/>
     <use xlink:href="#DejaVuSans-52" transform="translate(595.765625 0)"/>
     <use xlink:href="#DejaVuSans-3" transform="translate(656.953125 0)"/>
     <use xlink:href="#DejaVuSans-45" transform="translate(688.734375 0)"/>
     <use xlink:href="#DejaVuSans-55" transform="translate(752.21875 0)"/>
     <use xlink:href="#DejaVuSans-44" transform="translate(793.328125 0)"/>
     <use xlink:href="#DejaVuSans-51" transform="translate(854.609375 0)"/>
     <use xlink:href="#DejaVuSans-46" transform="translate(917.984375 0)"/>
     <use xlink:href="#DejaVuSans-4b" transform="translate(972.96875 0)"/>
     <use xlink:href="#DejaVuSans-40" transform="translate(1036.34375 0)"/>
    </g>
   </g>
   <g id="legend_1">
    <g id="patch_7">
     <path d="M 79.355469 381.448469 
L 401.077344 381.448469 
Q 403.077344 381.448469 403.077344 379.448469 
L 403.077344 335.446125 
Q 403.077344 333.446125 401.077344 333.446125 
L 79.355469 333.446125 
Q 77.355469 333.446125 77.355469 335.446125 
L 77.355469 379.448469 
Q 77.355469 381.448469 79.355469 381.448469 
z
" style="fill: #4d4d4d; opacity: 0.5; stroke: #4d4d4d; stroke-linejoin: miter"/>
    </g>
    <g id="patch_8">
     <path d="M 77.355469 379.448469 
L 399.077344 379.448469 
Q 401.077344 379.448469 401.077344 377.448469 
L 401.077344 333.446125 
Q 401.077344 331.446125 399.077344 331.446125 
L 77.355469 331.446125 
Q 75.355469 331.446125 75.355469 333.446125 
L 75.355469 377.448469 
Q 75.355469 379.448469 77.355469 379.448469 
z
" style="fill: #ffffff; stroke: #cccccc; stroke-linejoin: miter"/>
    </g>
    <g id="line2d_22">
     <path d="M 79.355469 339.544562 
L 89.355469 339.544562 
L 99.355469 339.544562 
" style="fill: none; stroke: #1f77b4; stroke-opacity: 0.8; stroke-width: 1.5; stroke-linecap: square"/>
    </g>
    <g id="text_18">
     <!-- MPTT -->
     <g transform="translate(107.355469 343.044562) scale(0.1 -0.1)">
      <defs>
       <path id="DejaVuSans-33" d="M 1259 4147 
L 1259 2394 
L 2053 2394 
Q 2494 2394 2734 2622 
Q 2975 2850 2975 3272 
Q 2975 3691 2734 3919 
Q 2494 4147 2053 4147 
L 1259 4147 
z
M 628 4666 
L 2053 4666 
Q 2838 4666 3239 4311 
Q 3641 3956 3641 3272 
Q 3641 2581 3239 2228 
Q 2838 1875 2053 1875 
L 1259 1875 
L 1259 0 
L 628 0 
L 628 4666 
z
" transform="scale(0.015625)"/>
       <path id="DejaVuSans-37" d="M -19 4666 
L 3928 4666 
L 3928 4134 
L 2272 4134 
L 2272 0 
L 1638 0 
L 1638 4134 
L -19 4134 
L -19 4666 
z
" transform="scale(0.015625)"/>
      </defs>
      <use xlink:href="#DejaVuSans-30"/>
      <use xlink:href="#DejaVuSans-33" transform="translate(86.28125 0)"/>
      <use xlink:href="#DejaVuSans-37" transform="translate(146.578125 0)"/>
      <use xlink:href="#DejaVuSans-37" transform="translate(205.90625 0)"/>
     </g>
    </g>
    <g id="line2d_23">
     <path d="M 79.355469 354.545344 
L 89.355469 354.545344 
L 99.355469 354.545344 
" style="fill: none; stroke: #ff7f0e; stroke-opacity: 0.8; stroke-width: 1.5; stroke-linecap: square"/>
    </g>
    <g id="text_19">
     <!-- tree -->
     <g transform="translate(107.355469 358.045344) scale(0.1 -0.1)">
      <use xlink:href="#DejaVuSans-57"/>
      <use xlink:href="#DejaVuSans-55" transform="translate(39.203125 0)"/>
      <use xlink:href="#DejaVuSans-48" transform="translate(78.109375 0)"/>
      <use xlink:href="#DejaVuSans-48" transform="translate(139.640625 0)"/>
     </g>
    </g>
    <g id="line2d_24">
     <path d="M 79.355469 369.546125 
L 89.355469 369.546125 
L 99.355469 369.546125 
" style="fill: none; stroke: #2ca02c; stroke-opacity: 0.8; stroke-width: 1.5; stroke-linecap: square"/>
    </g>
    <g id="text_20">
     <!-- tree-queries -->
     <g transform="translate(107.355469 373.046125) scale(0.1 -0.1)">
      <defs>
       <path id="DejaVuSans-10" d="M 313 2009 
L 1997 2009 
L 1997 1497 
L 313 1497 
L 313 2009 
z
" transform="scale(0.015625)"/>
       <path id="DejaVuSans-54" d="M 947 1747 
Q 947 1113 1208 752 
Q 1469 391 1925 391 
Q 2381 391 2643 752 
Q 2906 1113 2906 1747 
Q 2906 2381 2643 2742 
Q 2381 3103 1925 3103 
Q 1469 3103 1208 2742 
Q 947 2381 947 1747 
z
M 2906 525 
Q 2725 213 2448 61 
Q 2172 -91 1784 -91 
Q 1150 -91 751 415 
Q 353 922 353 1747 
Q 353 2572 751 3078 
Q 1150 3584 1784 3584 
Q 2172 3584 2448 3432 
Q 2725 3281 2906 2969 
L 2906 3500 
L 3481 3500 
L 3481 -1331 
L 2906 -1331 
L 2906 525 
z
" transform="scale(0.015625)"/>
      </defs>
      <use xlink:href="#DejaVuSans-57"/>
      <use xlink:href="#DejaVuSans-55" transform="translate(39.203125 0)"/>
      <use xlink:href="#DejaVuSans-48" transform="translate(78.109375 0)"/>
      <use xlink:href="#DejaVuSans-48" transform="translate(139.640625 0)"/>
      <use xlink:href="#DejaVuSans-10" transform="translate(201.171875 0)"/>
      <use xlink:href="#DejaVuSans-54" transform="translate(237.25 0)"/>
      <use xlink:href="#DejaVuSans-58" transform="translate(300.734375 0)"/>
      <use xlink:href="#DejaVuSans-48" transform="translate(364.109375 0)"/>
      <use xlink:href="#DejaVuSans-55" transform="translate(425.640625 0)"/>
      <use xlink:href="#DejaVuSans-4c" transform="translate(466.75 0)"/>
      <use xlink:href="#DejaVuSans-48" transform="translate(494.53125 0)"/>
      <use xlink:href="#DejaVuSans-56" transform="translate(556.0625 0)"/>
     </g>
    </g>
    <g id="line2d_25">
     <path d="M 188.171094 339.544562 
L 198.171094 339.544562 
L 208.171094 339.544562 
" style="fill: none; stroke: #d62728; stroke-opacity: 0.8; stroke-width: 1.5; stroke-linecap: square"/>
    </g>
    <g id="text_21">
     <!-- treebeard AL -->
     <g transform="translate(216.171094 343.044562) scale(0.1 -0.1)">
      <defs>
       <path id="DejaVuSans-47" d="M 2906 2969 
L 2906 4863 
L 3481 4863 
L 3481 0 
L 2906 0 
L 2906 525 
Q 2725 213 2448 61 
Q 2172 -91 1784 -91 
Q 1150 -91 751 415 
Q 353 922 353 1747 
Q 353 2572 751 3078 
Q 1150 3584 1784 3584 
Q 2172 3584 2448 3432 
Q 2725 3281 2906 2969 
z
M 947 1747 
Q 947 1113 1208 752 
Q 1469 391 1925 391 
Q 2381 391 2643 752 
Q 2906 1113 2906 1747 
Q 2906 2381 2643 2742 
Q 2381 3103 1925 3103 
Q 1469 3103 1208 2742 
Q 947 2381 947 1747 
z
" transform="scale(0.015625)"/>
       <path id="DejaVuSans-2f" d="M 628 4666 
L 1259 4666 
L 1259 531 
L 3531 531 
L 3531 0 
L 628 0 
L 628 4666 
z
" transform="scale(0.015625)"/>
      </defs>
      <use xlink:href="#DejaVuSans-57"/>
      <use xlink:href="#DejaVuSans-55" transform="translate(39.203125 0)"/>
      <use xlink:href="#DejaVuSans-48" transform="translate(78.109375 0)"/>
      <use xlink:href="#DejaVuSans-48" transform="translate(139.640625 0)"/>
      <use xlink:href="#DejaVuSans-45" transform="translate(201.171875 0)"/>
      <use xlink:href="#DejaVuSans-48" transform="translate(264.65625 0)"/>
      <use xlink:href="#DejaVuSans-44" transform="translate(326.1875 0)"/>
      <use xlink:href="#DejaVuSans-55" transform="translate(387.46875 0)"/>
      <use xlink:href="#DejaVuSans-47" transform="translate(426.828125 0)"/>
      <use xlink:href="#DejaVuSans-3" transform="translate(490.3125 0)"/>
      <use xlink:href="#DejaVuSans-24" transform="translate(522.09375 0)"/>
      <use xlink:href="#DejaVuSans-2f" transform="translate(590.5 0)"/>
     </g>
    </g>
    <g id="line2d_26">
     <path d="M 188.171094 354.545344 
L 198.171094 354.545344 
L 208.171094 354.545344 
" style="fill: none; stroke: #9467bd; stroke-opacity: 0.8; stroke-width: 1.5; stroke-linecap: square"/>
    </g>
    <g id="text_22">
     <!-- treebeard MP -->
     <g transform="translate(216.171094 358.045344) scale(0.1 -0.1)">
      <use xlink:href="#DejaVuSans-57"/>
      <use xlink:href="#DejaVuSans-55" transform="translate(39.203125 0)"/>
      <use xlink:href="#DejaVuSans-48" transform="translate(78.109375 0)"/>
      <use xlink:href="#DejaVuSans-48" transform="translate(139.640625 0)"/>
      <use xlink:href="#DejaVuSans-45" transform="translate(201.171875 0)"/>
      <use xlink:href="#DejaVuSans-48" transform="translate(264.65625 0)"/>
      <use xlink:href="#DejaVuSans-44" transform="translate(326.1875 0)"/>
      <use xlink:href="#DejaVuSans-55" transform="translate(387.46875 0)"/>
      <use xlink:href="#DejaVuSans-47" transform="translate(426.828125 0)"/>
      <use xlink:href="#DejaVuSans-3" transform="translate(490.3125 0)"/>
      <use xlink:href="#DejaVuSans-30" transform="translate(522.09375 0)"/>
      <use xlink:href="#DejaVuSans-33" transform="translate(608.375 0)"/>
     </g>
    </g>
    <g id="line2d_27">
     <path d="M 303.038281 339.544562 
L 313.038281 339.544562 
L 323.038281 339.544562 
" style="fill: none; stroke: #8c564b; stroke-opacity: 0.8; stroke-width: 1.5; stroke-linecap: square"/>
    </g>
    <g id="text_23">
     <!-- treebeard NS -->
     <g transform="translate(331.038281 343.044562) scale(0.1 -0.1)">
      <defs>
       <path id="DejaVuSans-31" d="M 628 4666 
L 1478 4666 
L 3547 763 
L 3547 4666 
L 4159 4666 
L 4159 0 
L 3309 0 
L 1241 3903 
L 1241 0 
L 628 0 
L 628 4666 
z
" transform="scale(0.015625)"/>
       <path id="DejaVuSans-36" d="M 3425 4513 
L 3425 3897 
Q 3066 4069 2747 4153 
Q 2428 4238 2131 4238 
Q 1616 4238 1336 4038 
Q 1056 3838 1056 3469 
Q 1056 3159 1242 3001 
Q 1428 2844 1947 2747 
L 2328 2669 
Q 3034 2534 3370 2195 
Q 3706 1856 3706 1288 
Q 3706 609 3251 259 
Q 2797 -91 1919 -91 
Q 1588 -91 1214 -16 
Q 841 59 441 206 
L 441 856 
Q 825 641 1194 531 
Q 1563 422 1919 422 
Q 2459 422 2753 634 
Q 3047 847 3047 1241 
Q 3047 1584 2836 1778 
Q 2625 1972 2144 2069 
L 1759 2144 
Q 1053 2284 737 2584 
Q 422 2884 422 3419 
Q 422 4038 858 4394 
Q 1294 4750 2059 4750 
Q 2388 4750 2728 4690 
Q 3069 4631 3425 4513 
z
" transform="scale(0.015625)"/>
      </defs>
      <use xlink:href="#DejaVuSans-57"/>
      <use xlink:href="#DejaVuSans-55" transform="translate(39.203125 0)"/>
      <use xlink:href="#DejaVuSans-48" transform="translate(78.109375 0)"/>
      <use xlink:href="#DejaVuSans-48" transform="translate(139.640625 0)"/>
      <use xlink:href="#DejaVuSans-45" transform="translate(201.171875 0)"/>
      <use xlink:href="#DejaVuSans-48" transform="translate(264.65625 0)"/>
      <use xlink:href="#DejaVuSans-44" transform="translate(326.1875 0)"/>
      <use xlink:href="#DejaVuSans-55" transform="translate(387.46875 0)"/>
      <use xlink:href="#DejaVuSans-47" transform="translate(426.828125 0)"/>
      <use xlink:href="#DejaVuSans-3" transform="translate(490.3125 0)"/>
      <use xlink:href="#DejaVuSans-31" transform="translate(522.09375 0)"/>
      <use xlink:href="#DejaVuSans-36" transform="translate(596.90625 0)"/>
     </g>
    </g>
    <g id="line2d_28">
     <path d="M 303.038281 354.545344 
L 313.038281 354.545344 
L 323.038281 354.545344 
" style="fill: none; stroke: #e377c2; stroke-opacity: 0.8; stroke-width: 1.5; stroke-linecap: square"/>
    </g>
    <g id="text_24">
     <!-- treenode -->
     <g transform="translate(331.038281 358.045344) scale(0.1 -0.1)">
      <use xlink:href="#DejaVuSans-57"/>
      <use xlink:href="#DejaVuSans-55" transform="translate(39.203125 0)"/>
      <use xlink:href="#DejaVuSans-48" transform="translate(78.109375 0)"/>
      <use xlink:href="#DejaVuSans-48" transform="translate(139.640625 0)"/>
      <use xlink:href="#DejaVuSans-51" transform="translate(201.171875 0)"/>
      <use xlink:href="#DejaVuSans-52" transform="translate(264.546875 0)"/>
      <use xlink:href="#DejaVuSans-47" transform="translate(325.734375 0)"/>
      <use xlink:href="#DejaVuSans-48" transform="translate(389.21875 0)"/>
     </g>
    </g>
   </g>
  </g>
 </g>
 <defs>
  <clipPath id="p84156e1007">
   <rect x="65.416406" y="22.318125" width="357.12" height="266.112"/>
  </clipPath>
 </defs>
</svg>
