<?xml version="1.0" encoding="utf-8" standalone="no"?>
<!DOCTYPE svg PUBLIC "-//W3C//DTD SVG 1.1//EN"
  "http://www.w3.org/Graphics/SVG/1.1/DTD/svg11.dtd">
<svg xmlns:xlink="http://www.w3.org/1999/xlink" width="426.035625pt" height="371.002375pt" viewBox="0 0 426.035625 371.002375" xmlns="http://www.w3.org/2000/svg" version="1.1">
 <metadata>
  <rdf:RDF xmlns:dc="http://purl.org/dc/elements/1.1/" xmlns:cc="http://creativecommons.org/ns#" xmlns:rdf="http://www.w3.org/1999/02/22-rdf-syntax-ns#">
   <cc:Work>
    <dc:type rdf:resource="http://purl.org/dc/dcmitype/StillImage"/>
    <dc:date>2026-06-28T20:25:06.811601</dc:date>
    <dc:format>image/svg+xml</dc:format>
    <dc:creator>
     <cc:Agent>
      <dc:title>Matplotlib v3.10.6, https://matplotlib.org/</dc:title>
     </cc:Agent>
    </dc:creator>
   </cc:Work>
  </rdf:RDF>
 </metadata>
 <defs>
  <style type="text/css">*{stroke-linejoin: round; stroke-linecap: butt}</style>
 </defs>
 <g id="figure_1">
  <g id="patch_1">
   <path d="M 0 371.002375 
L 426.035625 371.002375 
L 426.035625 0 
L 0 0 
z
" style="fill: #ffffff"/>
  </g>
  <g id="axes_1">
   <g id="patch_2">
    <path d="M 61.715625 288.430125 
L 418.835625 288.430125 
L 418.835625 22.318125 
L 61.715625 22.318125 
z
" style="fill: #ffffff"/>
   </g>
   <g id="matplotlib.axis_1">
    <g id="xtick_1">
     <g id="line2d_1">
      <defs>
       <path id="m5cb090d0b8" d="M 0 0 
L 0 3.5 
" style="stroke: #000000; stroke-width: 0.8"/>
      </defs>
      <g>
       <use xlink:href="#m5cb090d0b8" x="61.715625" y="288.430125" style="stroke: #000000; stroke-width: 0.8"/>
      </g>
     </g>
     <g id="text_1">
      <!-- 0 -->
      <g transform="translate(58.534375 303.028562) scale(0.1 -0.1)">
       <defs>
        <path id="DejaVuSans-30" d="M 2034 4250 
Q 1547 4250 1301 3770 
Q 1056 3291 1056 2328 
Q 1056 1369 1301 889 
Q 1547 409 2034 409 
Q 2525 409 2770 889 
Q 3016 1369 3016 2328 
Q 3016 3291 2770 3770 
Q 2525 4250 2034 4250 
z
M 2034 4750 
Q 2819 4750 3233 4129 
Q 3647 3509 3647 2328 
Q 3647 1150 3233 529 
Q 2819 -91 2034 -91 
Q 1250 -91 836 529 
Q 422 1150 422 2328 
Q 422 3509 836 4129 
Q 1250 4750 2034 4750 
z
" transform="scale(0.015625)"/>
       </defs>
       <use xlink:href="#DejaVuSans-30"/>
      </g>
     </g>
    </g>
    <g id="xtick_2">
     <g id="line2d_2">
      <g>
       <use xlink:href="#m5cb090d0b8" x="105.264189" y="288.430125" style="stroke: #000000; stroke-width: 0.8"/>
      </g>
     </g>
     <g id="text_2">
      <!-- 500  -->
      <g transform="translate(94.131377 303.028562) scale(0.1 -0.1)">
       <defs>
        <path id="DejaVuSans-35" d="M 691 4666 
L 3169 4666 
L 3169 4134 
L 1269 4134 
L 1269 2991 
Q 1406 3038 1543 3061 
Q 1681 3084 1819 3084 
Q 2600 3084 3056 2656 
Q 3513 2228 3513 1497 
Q 3513 744 3044 326 
Q 2575 -91 1722 -91 
Q 1428 -91 1123 -41 
Q 819 9 494 109 
L 494 744 
Q 775 591 1075 516 
Q 1375 441 1709 441 
Q 2250 441 2565 725 
Q 2881 1009 2881 1497 
Q 2881 1984 2565 2268 
Q 2250 2553 1709 2553 
Q 1456 2553 1204 2497 
Q 953 2441 691 2322 
L 691 4666 
z
" transform="scale(0.015625)"/>
        <path id="DejaVuSans-20" transform="scale(0.015625)"/>
       </defs>
       <use xlink:href="#DejaVuSans-35"/>
       <use xlink:href="#DejaVuSans-30" transform="translate(63.623047 0)"/>
       <use xlink:href="#DejaVuSans-30" transform="translate(127.246094 0)"/>
       <use xlink:href="#DejaVuSans-20" transform="translate(190.869141 0)"/>
      </g>
     </g>
    </g>
    <g id="xtick_3">
     <g id="line2d_3">
      <g>
       <use xlink:href="#m5cb090d0b8" x="148.812753" y="288.430125" style="stroke: #000000; stroke-width: 0.8"/>
      </g>
     </g>
     <g id="text_3">
      <!-- 1 k -->
      <g transform="translate(141.147128 303.028562) scale(0.1 -0.1)">
       <defs>
        <path id="DejaVuSans-31" d="M 794 531 
L 1825 531 
L 1825 4091 
L 703 3866 
L 703 4441 
L 1819 4666 
L 2450 4666 
L 2450 531 
L 3481 531 
L 3481 0 
L 794 0 
L 794 531 
z
" transform="scale(0.015625)"/>
        <path id="DejaVuSans-6b" d="M 581 4863 
L 1159 4863 
L 1159 1991 
L 2875 3500 
L 3609 3500 
L 1753 1863 
L 3688 0 
L 2938 0 
L 1159 1709 
L 1159 0 
L 581 0 
L 581 4863 
z
" transform="scale(0.015625)"/>
       </defs>
       <use xlink:href="#DejaVuSans-31"/>
       <use xlink:href="#DejaVuSans-20" transform="translate(63.623047 0)"/>
       <use xlink:href="#DejaVuSans-6b" transform="translate(95.410156 0)"/>
      </g>
     </g>
    </g>
    <g id="xtick_4">
     <g id="line2d_4">
      <g>
       <use xlink:href="#m5cb090d0b8" x="192.361317" y="288.430125" style="stroke: #000000; stroke-width: 0.8"/>
      </g>
     </g>
     <g id="text_4">
      <!-- 1.5 k -->
      <g transform="translate(179.92538 303.028562) scale(0.1 -0.1)">
       <defs>
        <path id="DejaVuSans-2e" d="M 684 794 
L 1344 794 
L 1344 0 
L 684 0 
L 684 794 
z
" transform="scale(0.015625)"/>
       </defs>
       <use xlink:href="#DejaVuSans-31"/>
       <use xlink:href="#DejaVuSans-2e" transform="translate(63.623047 0)"/>
       <use xlink:href="#DejaVuSans-35" transform="translate(95.410156 0)"/>
       <use xlink:href="#DejaVuSans-20" transform="translate(159.033203 0)"/>
       <use xlink:href="#DejaVuSans-6b" transform="translate(190.820312 0)"/>
      </g>
     </g>
    </g>
    <g id="xtick_5">
     <g id="line2d_5">
      <g>
       <use xlink:href="#m5cb090d0b8" x="235.909881" y="288.430125" style="stroke: #000000; stroke-width: 0.8"/>
      </g>
     </g>
     <g id="text_5">
      <!-- 2 k -->
      <g transform="translate(228.244256 303.028562) scale(0.1 -0.1)">
       <defs>
        <path id="DejaVuSans-32" d="M 1228 531 
L 3431 531 
L 3431 0 
L 469 0 
L 469 531 
Q 828 903 1448 1529 
Q 2069 2156 2228 2338 
Q 2531 2678 2651 2914 
Q 2772 3150 2772 3378 
Q 2772 3750 2511 3984 
Q 2250 4219 1831 4219 
Q 1534 4219 1204 4116 
Q 875 4013 500 3803 
L 500 4441 
Q 881 4594 1212 4672 
Q 1544 4750 1819 4750 
Q 2544 4750 2975 4387 
Q 3406 4025 3406 3419 
Q 3406 3131 3298 2873 
Q 3191 2616 2906 2266 
Q 2828 2175 2409 1742 
Q 1991 1309 1228 531 
z
" transform="scale(0.015625)"/>
       </defs>
       <use xlink:href="#DejaVuSans-32"/>
       <use xlink:href="#DejaVuSans-20" transform="translate(63.623047 0)"/>
       <use xlink:href="#DejaVuSans-6b" transform="translate(95.410156 0)"/>
      </g>
     </g>
    </g>
    <g id="xtick_6">
     <g id="line2d_6">
      <g>
       <use xlink:href="#m5cb090d0b8" x="279.458446" y="288.430125" style="stroke: #000000; stroke-width: 0.8"/>
      </g>
     </g>
     <g id="text_6">
      <!-- 2.5 k -->
      <g transform="translate(267.022508 303.028562) scale(0.1 -0.1)">
       <use xlink:href="#DejaVuSans-32"/>
       <use xlink:href="#DejaVuSans-2e" transform="translate(63.623047 0)"/>
       <use xlink:href="#DejaVuSans-35" transform="translate(95.410156 0)"/>
       <use xlink:href="#DejaVuSans-20" transform="translate(159.033203 0)"/>
       <use xlink:href="#DejaVuSans-6b" transform="translate(190.820312 0)"/>
      </g>
     </g>
    </g>
    <g id="xtick_7">
     <g id="line2d_7">
      <g>
       <use xlink:href="#m5cb090d0b8" x="323.00701" y="288.430125" style="stroke: #000000; stroke-width: 0.8"/>
      </g>
     </g>
     <g id="text_7">
      <!-- 3 k -->
      <g transform="translate(315.341385 303.028562) scale(0.1 -0.1)">
       <defs>
        <path id="DejaVuSans-33" d="M 2597 2516 
Q 3050 2419 3304 2112 
Q 3559 1806 3559 1356 
Q 3559 666 3084 287 
Q 2609 -91 1734 -91 
Q 1441 -91 1130 -33 
Q 819 25 488 141 
L 488 750 
Q 750 597 1062 519 
Q 1375 441 1716 441 
Q 2309 441 2620 675 
Q 2931 909 2931 1356 
Q 2931 1769 2642 2001 
Q 2353 2234 1838 2234 
L 1294 2234 
L 1294 2753 
L 1863 2753 
Q 2328 2753 2575 2939 
Q 2822 3125 2822 3475 
Q 2822 3834 2567 4026 
Q 2313 4219 1838 4219 
Q 1578 4219 1281 4162 
Q 984 4106 628 3988 
L 628 4550 
Q 988 4650 1302 4700 
Q 1616 4750 1894 4750 
Q 2613 4750 3031 4423 
Q 3450 4097 3450 3541 
Q 3450 3153 3228 2886 
Q 3006 2619 2597 2516 
z
" transform="scale(0.015625)"/>
       </defs>
       <use xlink:href="#DejaVuSans-33"/>
       <use xlink:href="#DejaVuSans-20" transform="translate(63.623047 0)"/>
       <use xlink:href="#DejaVuSans-6b" transform="translate(95.410156 0)"/>
      </g>
     </g>
    </g>
    <g id="xtick_8">
     <g id="line2d_8">
      <g>
       <use xlink:href="#m5cb090d0b8" x="366.555574" y="288.430125" style="stroke: #000000; stroke-width: 0.8"/>
      </g>
     </g>
     <g id="text_8">
      <!-- 3.5 k -->
      <g transform="translate(354.119636 303.028562) scale(0.1 -0.1)">
       <use xlink:href="#DejaVuSans-33"/>
       <use xlink:href="#DejaVuSans-2e" transform="translate(63.623047 0)"/>
       <use xlink:href="#DejaVuSans-35" transform="translate(95.410156 0)"/>
       <use xlink:href="#DejaVuSans-20" transform="translate(159.033203 0)"/>
       <use xlink:href="#DejaVuSans-6b" transform="translate(190.820312 0)"/>
      </g>
     </g>
    </g>
    <g id="xtick_9">
     <g id="line2d_9">
      <g>
       <use xlink:href="#m5cb090d0b8" x="410.104138" y="288.430125" style="stroke: #000000; stroke-width: 0.8"/>
      </g>
     </g>
     <g id="text_9">
      <!-- 4 k -->
      <g transform="translate(402.438513 303.028562) scale(0.1 -0.1)">
       <defs>
        <path id="DejaVuSans-34" d="M 2419 4116 
L 825 1625 
L 2419 1625 
L 2419 4116 
z
M 2253 4666 
L 3047 4666 
L 3047 1625 
L 3713 1625 
L 3713 1100 
L 3047 1100 
L 3047 0 
L 2419 0 
L 2419 1100 
L 313 1100 
L 313 1709 
L 2253 4666 
z
" transform="scale(0.015625)"/>
       </defs>
       <use xlink:href="#DejaVuSans-34"/>
       <use xlink:href="#DejaVuSans-20" transform="translate(63.623047 0)"/>
       <use xlink:href="#DejaVuSans-6b" transform="translate(95.410156 0)"/>
      </g>
     </g>
    </g>
    <g id="text_10">
     <!-- Amount of objects in table -->
     <g transform="translate(174.217031 316.706687) scale(0.1 -0.1)">
      <defs>
       <path id="DejaVuSans-41" d="M 2188 4044 
L 1331 1722 
L 3047 1722 
L 2188 4044 
z
M 1831 4666 
L 2547 4666 
L 4325 0 
L 3669 0 
L 3244 1197 
L 1141 1197 
L 716 0 
L 50 0 
L 1831 4666 
z
" transform="scale(0.015625)"/>
       <path id="DejaVuSans-6d" d="M 3328 2828 
Q 3544 3216 3844 3400 
Q 4144 3584 4550 3584 
Q 5097 3584 5394 3201 
Q 5691 2819 5691 2113 
L 5691 0 
L 5113 0 
L 5113 2094 
Q 5113 2597 4934 2840 
Q 4756 3084 4391 3084 
Q 3944 3084 3684 2787 
Q 3425 2491 3425 1978 
L 3425 0 
L 2847 0 
L 2847 2094 
Q 2847 2600 2669 2842 
Q 2491 3084 2119 3084 
Q 1678 3084 1418 2786 
Q 1159 2488 1159 1978 
L 1159 0 
L 581 0 
L 581 3500 
L 1159 3500 
L 1159 2956 
Q 1356 3278 1631 3431 
Q 1906 3584 2284 3584 
Q 2666 3584 2933 3390 
Q 3200 3197 3328 2828 
z
" transform="scale(0.015625)"/>
       <path id="DejaVuSans-6f" d="M 1959 3097 
Q 1497 3097 1228 2736 
Q 959 2375 959 1747 
Q 959 1119 1226 758 
Q 1494 397 1959 397 
Q 2419 397 2687 759 
Q 2956 1122 2956 1747 
Q 2956 2369 2687 2733 
Q 2419 3097 1959 3097 
z
M 1959 3584 
Q 2709 3584 3137 3096 
Q 3566 2609 3566 1747 
Q 3566 888 3137 398 
Q 2709 -91 1959 -91 
Q 1206 -91 779 398 
Q 353 888 353 1747 
Q 353 2609 779 3096 
Q 1206 3584 1959 3584 
z
" transform="scale(0.015625)"/>
       <path id="DejaVuSans-75" d="M 544 1381 
L 544 3500 
L 1119 3500 
L 1119 1403 
Q 1119 906 1312 657 
Q 1506 409 1894 409 
Q 2359 409 2629 706 
Q 2900 1003 2900 1516 
L 2900 3500 
L 3475 3500 
L 3475 0 
L 2900 0 
L 2900 538 
Q 2691 219 2414 64 
Q 2138 -91 1772 -91 
Q 1169 -91 856 284 
Q 544 659 544 1381 
z
M 1991 3584 
L 1991 3584 
z
" transform="scale(0.015625)"/>
       <path id="DejaVuSans-6e" d="M 3513 2113 
L 3513 0 
L 2938 0 
L 2938 2094 
Q 2938 2591 2744 2837 
Q 2550 3084 2163 3084 
Q 1697 3084 1428 2787 
Q 1159 2491 1159 1978 
L 1159 0 
L 581 0 
L 581 3500 
L 1159 3500 
L 1159 2956 
Q 1366 3272 1645 3428 
Q 1925 3584 2291 3584 
Q 2894 3584 3203 3211 
Q 3513 2838 3513 2113 
z
" transform="scale(0.015625)"/>
       <path id="DejaVuSans-74" d="M 1172 4494 
L 1172 3500 
L 2356 3500 
L 2356 3053 
L 1172 3053 
L 1172 1153 
Q 1172 725 1289 603 
Q 1406 481 1766 481 
L 2356 481 
L 2356 0 
L 1766 0 
Q 1100 0 847 248 
Q 594 497 594 1153 
L 594 3053 
L 172 3053 
L 172 3500 
L 594 3500 
L 594 4494 
L 1172 4494 
z
" transform="scale(0.015625)"/>
       <path id="DejaVuSans-66" d="M 2375 4863 
L 2375 4384 
L 1825 4384 
Q 1516 4384 1395 4259 
Q 1275 4134 1275 3809 
L 1275 3500 
L 2222 3500 
L 2222 3053 
L 1275 3053 
L 1275 0 
L 697 0 
L 697 3053 
L 147 3053 
L 147 3500 
L 697 3500 
L 697 3744 
Q 697 4328 969 4595 
Q 1241 4863 1831 4863 
L 2375 4863 
z
" transform="scale(0.015625)"/>
       <path id="DejaVuSans-62" d="M 3116 1747 
Q 3116 2381 2855 2742 
Q 2594 3103 2138 3103 
Q 1681 3103 1420 2742 
Q 1159 2381 1159 1747 
Q 1159 1113 1420 752 
Q 1681 391 2138 391 
Q 2594 391 2855 752 
Q 3116 1113 3116 1747 
z
M 1159 2969 
Q 1341 3281 1617 3432 
Q 1894 3584 2278 3584 
Q 2916 3584 3314 3078 
Q 3713 2572 3713 1747 
Q 3713 922 3314 415 
Q 2916 -91 2278 -91 
Q 1894 -91 1617 61 
Q 1341 213 1159 525 
L 1159 0 
L 581 0 
L 581 4863 
L 1159 4863 
L 1159 2969 
z
" transform="scale(0.015625)"/>
       <path id="DejaVuSans-6a" d="M 603 3500 
L 1178 3500 
L 1178 -63 
Q 1178 -731 923 -1031 
Q 669 -1331 103 -1331 
L -116 -1331 
L -116 -844 
L 38 -844 
Q 366 -844 484 -692 
Q 603 -541 603 -63 
L 603 3500 
z
M 603 4863 
L 1178 4863 
L 1178 4134 
L 603 4134 
L 603 4863 
z
" transform="scale(0.015625)"/>
       <path id="DejaVuSans-65" d="M 3597 1894 
L 3597 1613 
L 953 1613 
Q 991 1019 1311 708 
Q 1631 397 2203 397 
Q 2534 397 2845 478 
Q 3156 559 3463 722 
L 3463 178 
Q 3153 47 2828 -22 
Q 2503 -91 2169 -91 
Q 1331 -91 842 396 
Q 353 884 353 1716 
Q 353 2575 817 3079 
Q 1281 3584 2069 3584 
Q 2775 3584 3186 3129 
Q 3597 2675 3597 1894 
z
M 3022 2063 
Q 3016 2534 2758 2815 
Q 2500 3097 2075 3097 
Q 1594 3097 1305 2825 
Q 1016 2553 972 2059 
L 3022 2063 
z
" transform="scale(0.015625)"/>
       <path id="DejaVuSans-63" d="M 3122 3366 
L 3122 2828 
Q 2878 2963 2633 3030 
Q 2388 3097 2138 3097 
Q 1578 3097 1268 2742 
Q 959 2388 959 1747 
Q 959 1106 1268 751 
Q 1578 397 2138 397 
Q 2388 397 2633 464 
Q 2878 531 3122 666 
L 3122 134 
Q 2881 22 2623 -34 
Q 2366 -91 2075 -91 
Q 1284 -91 818 406 
Q 353 903 353 1747 
Q 353 2603 823 3093 
Q 1294 3584 2113 3584 
Q 2378 3584 2631 3529 
Q 2884 3475 3122 3366 
z
" transform="scale(0.015625)"/>
       <path id="DejaVuSans-73" d="M 2834 3397 
L 2834 2853 
Q 2591 2978 2328 3040 
Q 2066 3103 1784 3103 
Q 1356 3103 1142 2972 
Q 928 2841 928 2578 
Q 928 2378 1081 2264 
Q 1234 2150 1697 2047 
L 1894 2003 
Q 2506 1872 2764 1633 
Q 3022 1394 3022 966 
Q 3022 478 2636 193 
Q 2250 -91 1575 -91 
Q 1294 -91 989 -36 
Q 684 19 347 128 
L 347 722 
Q 666 556 975 473 
Q 1284 391 1588 391 
Q 1994 391 2212 530 
Q 2431 669 2431 922 
Q 2431 1156 2273 1281 
Q 2116 1406 1581 1522 
L 1381 1569 
Q 847 1681 609 1914 
Q 372 2147 372 2553 
Q 372 3047 722 3315 
Q 1072 3584 1716 3584 
Q 2034 3584 2315 3537 
Q 2597 3491 2834 3397 
z
" transform="scale(0.015625)"/>
       <path id="DejaVuSans-69" d="M 603 3500 
L 1178 3500 
L 1178 0 
L 603 0 
L 603 3500 
z
M 603 4863 
L 1178 4863 
L 1178 4134 
L 603 4134 
L 603 4863 
z
" transform="scale(0.015625)"/>
       <path id="DejaVuSans-61" d="M 2194 1759 
Q 1497 1759 1228 1600 
Q 959 1441 959 1056 
Q 959 750 1161 570 
Q 1363 391 1709 391 
Q 2188 391 2477 730 
Q 2766 1069 2766 1631 
L 2766 1759 
L 2194 1759 
z
M 3341 1997 
L 3341 0 
L 2766 0 
L 2766 531 
Q 2569 213 2275 61 
Q 1981 -91 1556 -91 
Q 1019 -91 701 211 
Q 384 513 384 1019 
Q 384 1609 779 1909 
Q 1175 2209 1959 2209 
L 2766 2209 
L 2766 2266 
Q 2766 2663 2505 2880 
Q 2244 3097 1772 3097 
Q 1472 3097 1187 3025 
Q 903 2953 641 2809 
L 641 3341 
Q 956 3463 1253 3523 
Q 1550 3584 1831 3584 
Q 2591 3584 2966 3190 
Q 3341 2797 3341 1997 
z
" transform="scale(0.015625)"/>
       <path id="DejaVuSans-6c" d="M 603 4863 
L 1178 4863 
L 1178 0 
L 603 0 
L 603 4863 
z
" transform="scale(0.015625)"/>
      </defs>
      <use xlink:href="#DejaVuSans-41"/>
      <use xlink:href="#DejaVuSans-6d" transform="translate(68.408203 0)"/>
      <use xlink:href="#DejaVuSans-6f" transform="translate(165.820312 0)"/>
      <use xlink:href="#DejaVuSans-75" transform="translate(227.001953 0)"/>
      <use xlink:href="#DejaVuSans-6e" transform="translate(290.380859 0)"/>
      <use xlink:href="#DejaVuSans-74" transform="translate(353.759766 0)"/>
      <use xlink:href="#DejaVuSans-20" transform="translate(392.96875 0)"/>
      <use xlink:href="#DejaVuSans-6f" transform="translate(424.755859 0)"/>
      <use xlink:href="#DejaVuSans-66" transform="translate(485.9375 0)"/>
      <use xlink:href="#DejaVuSans-20" transform="translate(521.142578 0)"/>
      <use xlink:href="#DejaVuSans-6f" transform="translate(552.929688 0)"/>
      <use xlink:href="#DejaVuSans-62" transform="translate(614.111328 0)"/>
      <use xlink:href="#DejaVuSans-6a" transform="translate(677.587891 0)"/>
      <use xlink:href="#DejaVuSans-65" transform="translate(705.371094 0)"/>
      <use xlink:href="#DejaVuSans-63" transform="translate(766.894531 0)"/>
      <use xlink:href="#DejaVuSans-74" transform="translate(821.875 0)"/>
      <use xlink:href="#DejaVuSans-73" transform="translate(861.083984 0)"/>
      <use xlink:href="#DejaVuSans-20" transform="translate(913.183594 0)"/>
      <use xlink:href="#DejaVuSans-69" transform="translate(944.970703 0)"/>
      <use xlink:href="#DejaVuSans-6e" transform="translate(972.753906 0)"/>
      <use xlink:href="#DejaVuSans-20" transform="translate(1036.132812 0)"/>
      <use xlink:href="#DejaVuSans-74" transform="translate(1067.919922 0)"/>
      <use xlink:href="#DejaVuSans-61" transform="translate(1107.128906 0)"/>
      <use xlink:href="#DejaVuSans-62" transform="translate(1168.408203 0)"/>
      <use xlink:href="#DejaVuSans-6c" transform="translate(1231.884766 0)"/>
      <use xlink:href="#DejaVuSans-65" transform="translate(1259.667969 0)"/>
     </g>
    </g>
   </g>
   <g id="matplotlib.axis_2">
    <g id="ytick_1">
     <g id="line2d_10">
      <defs>
       <path id="m6f9b5a8f76" d="M 0 0 
L -3.5 0 
" style="stroke: #000000; stroke-width: 0.8"/>
      </defs>
      <g>
       <use xlink:href="#m6f9b5a8f76" x="61.715625" y="288.430125" style="stroke: #000000; stroke-width: 0.8"/>
      </g>
     </g>
     <g id="text_11">
      <!-- 0 -->
      <g transform="translate(48.353125 292.229344) scale(0.1 -0.1)">
       <use xlink:href="#DejaVuSans-30"/>
      </g>
     </g>
    </g>
    <g id="ytick_2">
     <g id="line2d_11">
      <g>
       <use xlink:href="#m6f9b5a8f76" x="61.715625" y="243.904994" style="stroke: #000000; stroke-width: 0.8"/>
      </g>
     </g>
     <g id="text_12">
      <!-- 100 µs -->
      <g transform="translate(20.878125 247.704212) scale(0.1 -0.1)">
       <defs>
        <path id="DejaVuSans-b5" d="M 544 -1331 
L 544 3500 
L 1119 3500 
L 1119 1325 
Q 1119 872 1334 640 
Q 1550 409 1972 409 
Q 2434 409 2667 671 
Q 2900 934 2900 1459 
L 2900 3500 
L 3475 3500 
L 3475 806 
Q 3475 619 3529 530 
Q 3584 441 3700 441 
Q 3728 441 3778 458 
Q 3828 475 3916 513 
L 3916 50 
Q 3788 -22 3673 -56 
Q 3559 -91 3450 -91 
Q 3234 -91 3106 31 
Q 2978 153 2931 403 
Q 2775 156 2548 32 
Q 2322 -91 2016 -91 
Q 1697 -91 1473 31 
Q 1250 153 1119 397 
L 1119 -1331 
L 544 -1331 
z
" transform="scale(0.015625)"/>
       </defs>
       <use xlink:href="#DejaVuSans-31"/>
       <use xlink:href="#DejaVuSans-30" transform="translate(63.623047 0)"/>
       <use xlink:href="#DejaVuSans-30" transform="translate(127.246094 0)"/>
       <use xlink:href="#DejaVuSans-20" transform="translate(190.869141 0)"/>
       <use xlink:href="#DejaVuSans-b5" transform="translate(222.65625 0)"/>
       <use xlink:href="#DejaVuSans-73" transform="translate(286.279297 0)"/>
      </g>
     </g>
    </g>
    <g id="ytick_3">
     <g id="line2d_12">
      <g>
       <use xlink:href="#m6f9b5a8f76" x="61.715625" y="199.379862" style="stroke: #000000; stroke-width: 0.8"/>
      </g>
     </g>
     <g id="text_13">
      <!-- 200 µs -->
      <g transform="translate(20.878125 203.179081) scale(0.1 -0.1)">
       <use xlink:href="#DejaVuSans-32"/>
       <use xlink:href="#DejaVuSans-30" transform="translate(63.623047 0)"/>
       <use xlink:href="#DejaVuSans-30" transform="translate(127.246094 0)"/>
       <use xlink:href="#DejaVuSans-20" transform="translate(190.869141 0)"/>
       <use xlink:href="#DejaVuSans-b5" transform="translate(222.65625 0)"/>
       <use xlink:href="#DejaVuSans-73" transform="translate(286.279297 0)"/>
      </g>
     </g>
    </g>
    <g id="ytick_4">
     <g id="line2d_13">
      <g>
       <use xlink:href="#m6f9b5a8f76" x="61.715625" y="154.854731" style="stroke: #000000; stroke-width: 0.8"/>
      </g>
     </g>
     <g id="text_14">
      <!-- 300 µs -->
      <g transform="translate(20.878125 158.653949) scale(0.1 -0.1)">
       <use xlink:href="#DejaVuSans-33"/>
       <use xlink:href="#DejaVuSans-30" transform="translate(63.623047 0)"/>
       <use xlink:href="#DejaVuSans-30" transform="translate(127.246094 0)"/>
       <use xlink:href="#DejaVuSans-20" transform="translate(190.869141 0)"/>
       <use xlink:href="#DejaVuSans-b5" transform="translate(222.65625 0)"/>
       <use xlink:href="#DejaVuSans-73" transform="translate(286.279297 0)"/>
      </g>
     </g>
    </g>
    <g id="ytick_5">
     <g id="line2d_14">
      <g>
       <use xlink:href="#m6f9b5a8f76" x="61.715625" y="110.329599" style="stroke: #000000; stroke-width: 0.8"/>
      </g>
     </g>
     <g id="text_15">
      <!-- 400 µs -->
      <g transform="translate(20.878125 114.128818) scale(0.1 -0.1)">
       <use xlink:href="#DejaVuSans-34"/>
       <use xlink:href="#DejaVuSans-30" transform="translate(63.623047 0)"/>
       <use xlink:href="#DejaVuSans-30" transform="translate(127.246094 0)"/>
       <use xlink:href="#DejaVuSans-20" transform="translate(190.869141 0)"/>
       <use xlink:href="#DejaVuSans-b5" transform="translate(222.65625 0)"/>
       <use xlink:href="#DejaVuSans-73" transform="translate(286.279297 0)"/>
      </g>
     </g>
    </g>
    <g id="ytick_6">
     <g id="line2d_15">
      <g>
       <use xlink:href="#m6f9b5a8f76" x="61.715625" y="65.804468" style="stroke: #000000; stroke-width: 0.8"/>
      </g>
     </g>
     <g id="text_16">
      <!-- 500 µs -->
      <g transform="translate(20.878125 69.603686) scale(0.1 -0.1)">
       <use xlink:href="#DejaVuSans-35"/>
       <use xlink:href="#DejaVuSans-30" transform="translate(63.623047 0)"/>
       <use xlink:href="#DejaVuSans-30" transform="translate(127.246094 0)"/>
       <use xlink:href="#DejaVuSans-20" transform="translate(190.869141 0)"/>
       <use xlink:href="#DejaVuSans-b5" transform="translate(222.65625 0)"/>
       <use xlink:href="#DejaVuSans-73" transform="translate(286.279297 0)"/>
      </g>
     </g>
    </g>
    <g id="text_17">
     <!-- Read latency (s) -->
     <g transform="translate(14.798438 195.98975) rotate(-90) scale(0.1 -0.1)">
      <defs>
       <path id="DejaVuSans-52" d="M 2841 2188 
Q 3044 2119 3236 1894 
Q 3428 1669 3622 1275 
L 4263 0 
L 3584 0 
L 2988 1197 
Q 2756 1666 2539 1819 
Q 2322 1972 1947 1972 
L 1259 1972 
L 1259 0 
L 628 0 
L 628 4666 
L 2053 4666 
Q 2853 4666 3247 4331 
Q 3641 3997 3641 3322 
Q 3641 2881 3436 2590 
Q 3231 2300 2841 2188 
z
M 1259 4147 
L 1259 2491 
L 2053 2491 
Q 2509 2491 2742 2702 
Q 2975 2913 2975 3322 
Q 2975 3731 2742 3939 
Q 2509 4147 2053 4147 
L 1259 4147 
z
" transform="scale(0.015625)"/>
       <path id="DejaVuSans-64" d="M 2906 2969 
L 2906 4863 
L 3481 4863 
L 3481 0 
L 2906 0 
L 2906 525 
Q 2725 213 2448 61 
Q 2172 -91 1784 -91 
Q 1150 -91 751 415 
Q 353 922 353 1747 
Q 353 2572 751 3078 
Q 1150 3584 1784 3584 
Q 2172 3584 2448 3432 
Q 2725 3281 2906 2969 
z
M 947 1747 
Q 947 1113 1208 752 
Q 1469 391 1925 391 
Q 2381 391 2643 752 
Q 2906 1113 2906 1747 
Q 2906 2381 2643 2742 
Q 2381 3103 1925 3103 
Q 1469 3103 1208 2742 
Q 947 2381 947 1747 
z
" transform="scale(0.015625)"/>
       <path id="DejaVuSans-79" d="M 2059 -325 
Q 1816 -950 1584 -1140 
Q 1353 -1331 966 -1331 
L 506 -1331 
L 506 -850 
L 844 -850 
Q 1081 -850 1212 -737 
Q 1344 -625 1503 -206 
L 1606 56 
L 191 3500 
L 800 3500 
L 1894 763 
L 2988 3500 
L 3597 3500 
L 2059 -325 
z
" transform="scale(0.015625)"/>
       <path id="DejaVuSans-28" d="M 1984 4856 
Q 1566 4138 1362 3434 
Q 1159 2731 1159 2009 
Q 1159 1288 1364 580 
Q 1569 -128 1984 -844 
L 1484 -844 
Q 1016 -109 783 600 
Q 550 1309 550 2009 
Q 550 2706 781 3412 
Q 1013 4119 1484 4856 
L 1984 4856 
z
" transform="scale(0.015625)"/>
       <path id="DejaVuSans-29" d="M 513 4856 
L 1013 4856 
Q 1481 4119 1714 3412 
Q 1947 2706 1947 2009 
Q 1947 1309 1714 600 
Q 1481 -109 1013 -844 
L 513 -844 
Q 928 -128 1133 580 
Q 1338 1288 1338 2009 
Q 1338 2731 1133 3434 
Q 928 4138 513 4856 
z
" transform="scale(0.015625)"/>
      </defs>
      <use xlink:href="#DejaVuSans-52"/>
      <use xlink:href="#DejaVuSans-65" transform="translate(64.982422 0)"/>
      <use xlink:href="#DejaVuSans-61" transform="translate(126.505859 0)"/>
      <use xlink:href="#DejaVuSans-64" transform="translate(187.785156 0)"/>
      <use xlink:href="#DejaVuSans-20" transform="translate(251.261719 0)"/>
      <use xlink:href="#DejaVuSans-6c" transform="translate(283.048828 0)"/>
      <use xlink:href="#DejaVuSans-61" transform="translate(310.832031 0)"/>
      <use xlink:href="#DejaVuSans-74" transform="translate(372.111328 0)"/>
      <use xlink:href="#DejaVuSans-65" transform="translate(411.320312 0)"/>
      <use xlink:href="#DejaVuSans-6e" transform="translate(472.84375 0)"/>
      <use xlink:href="#DejaVuSans-63" transform="translate(536.222656 0)"/>
      <use xlink:href="#DejaVuSans-79" transform="translate(591.203125 0)"/>
      <use xlink:href="#DejaVuSans-20" transform="translate(650.382812 0)"/>
      <use xlink:href="#DejaVuSans-28" transform="translate(682.169922 0)"/>
      <use xlink:href="#DejaVuSans-73" transform="translate(721.183594 0)"/>
      <use xlink:href="#DejaVuSans-29" transform="translate(773.283203 0)"/>
     </g>
    </g>
   </g>
   <g id="line2d_16">
    <path d="M 147.070811 186.447783 
L 152.296638 189.329787 
L 154.474067 190.516014 
L 155.345038 190.696752 
L 157.08698 190.706007 
L 157.522466 191.02883 
L 159.264409 188.653109 
L 159.699894 187.954112 
L 160.13538 185.946943 
L 160.570866 185.533206 
L 161.006351 184.903891 
L 162.312808 184.508119 
L 162.748294 184.651838 
L 164.925722 183.879347 
L 165.796693 184.023066 
L 167.10315 184.431904 
L 167.538636 184.683412 
L 167.974121 184.661637 
L 168.409607 184.444969 
L 169.280578 184.43136 
L 170.15155 184.662726 
L 170.587035 184.590866 
L 171.022521 184.289818 
L 171.893492 183.965361 
L 173.199949 184.21687 
L 174.941892 184.015989 
L 175.377377 183.83634 
L 177.11932 183.758493 
L 177.554806 183.628383 
L 178.425777 183.131355 
L 179.296748 183.088892 
L 179.732234 182.876035 
L 180.167719 182.803631 
L 180.603205 182.963682 
L 181.038691 182.822685 
L 181.474176 182.833573 
L 182.345148 182.620716 
L 182.780633 182.756269 
L 183.216119 182.382273 
L 184.08709 182.052917 
L 184.522576 182.081225 
L 184.958061 181.912464 
L 185.829033 181.866191 
L 186.264518 181.581474 
L 186.700004 181.583107 
L 187.570975 181.231975 
L 188.006461 180.050103 
L 188.441947 181.604339 
L 188.877432 181.652789 
L 189.312918 181.586374 
L 189.748403 181.928795 
L 191.05486 181.948938 
L 191.490346 181.785076 
L 191.925832 182.166694 
L 193.232289 182.098645 
L 193.667774 182.243998 
L 194.10326 182.198269 
L 194.538746 182.309869 
L 194.974231 182.23311 
L 195.845202 182.456854 
L 196.280688 182.504761 
L 196.716174 182.376285 
L 197.151659 183.117745 
L 197.587145 183.245132 
L 198.022631 183.239688 
L 198.893602 184.363311 
L 199.329088 184.358411 
L 199.764573 184.806989 
L 200.200059 185.060675 
L 201.942001 186.656829 
L 204.11943 188.588327 
L 207.603315 192.692488 
L 209.345257 194.38881 
L 214.571085 199.892055 
L 215.006571 200.417392 
L 220.232398 200.246454 
L 221.10337 200.262785 
L 222.845312 200.279661 
L 223.716283 200.23611 
L 224.151769 200.644403 
L 226.764683 200.586698 
L 235.474396 200.432635 
L 238.522795 200.448423 
L 238.958281 200.094024 
L 242.442166 200.048295 
L 243.313137 200.868148 
L 244.619594 202.865517 
L 245.05508 204.851455 
L 245.490566 205.238516 
L 246.797022 206.989277 
L 248.538965 208.890833 
L 249.409936 209.998669 
L 249.845422 210.485354 
L 250.280908 210.706376 
L 252.458336 212.722255 
L 252.893821 212.683059 
L 253.329307 212.858897 
L 253.764793 212.680337 
L 254.200278 212.68197 
L 254.635764 212.801192 
L 255.07125 212.653662 
L 255.506735 212.730965 
L 255.942221 213.230172 
L 256.377707 213.120205 
L 256.813192 213.322174 
L 257.684164 213.006972 
L 258.119649 213.167022 
L 258.555135 212.483268 
L 259.426106 212.773428 
L 260.297077 212.535529 
L 261.168049 212.111449 
L 261.603534 211.867562 
L 262.03902 211.797335 
L 263.345477 211.94541 
L 263.780962 211.65906 
L 265.087419 211.341136 
L 265.958391 211.530584 
L 266.393876 211.457636 
L 266.829362 211.616598 
L 267.264848 211.540927 
L 267.700333 211.289963 
L 268.135819 211.476145 
L 269.00679 211.369989 
L 269.442276 211.514252 
L 270.313247 211.405919 
L 270.748733 211.438038 
L 271.184218 211.756506 
L 271.619704 211.88716 
L 272.05519 212.169699 
L 272.490675 212.289465 
L 272.926161 213.453916 
L 273.361647 213.511622 
L 274.232618 214.009739 
L 275.539075 213.774562 
L 275.97456 213.892695 
L 276.410046 214.380469 
L 276.845532 214.261792 
L 277.716503 214.225318 
L 278.587474 214.1834 
L 279.02296 214.208442 
L 279.893931 213.809403 
L 280.329417 213.69617 
L 280.764902 213.466437 
L 281.200388 213.54483 
L 281.635874 213.842067 
L 282.071359 213.881263 
L 282.506845 214.089765 
L 283.377816 212.850187 
L 283.813302 212.164799 
L 284.248788 211.978618 
L 284.684273 211.379243 
L 285.119759 211.007425 
L 285.555245 210.068895 
L 285.99073 209.424881 
L 286.861701 208.625715 
L 287.732673 207.404103 
L 289.474615 205.312009 
L 291.216558 202.964596 
L 291.652044 202.606932 
L 292.523015 197.676385 
L 292.9585 195.908749 
L 293.393986 195.459626 
L 295.135929 192.94563 
L 295.571414 192.601031 
L 296.0069 191.949395 
L 296.442386 191.603707 
L 296.877871 191.008144 
L 297.748842 190.259606 
L 299.490785 188.033048 
L 299.926271 187.702603 
L 300.361756 187.085264 
L 300.797242 186.715078 
L 301.668213 185.435216 
L 302.103699 185.056864 
L 303.845641 182.582609 
L 304.281127 182.211879 
L 305.152098 180.948892 
L 306.894041 179.414799 
L 307.329527 179.057135 
L 309.071469 176.689035 
L 309.94244 175.796779 
L 310.813412 174.953517 
L 311.248897 174.337267 
L 311.684383 173.955105 
L 312.555354 172.56582 
L 314.732782 170.124228 
L 315.168268 168.724599 
L 320.394096 161.785251 
L 320.829581 161.079721 
L 321.265067 160.708446 
L 322.571524 158.72632 
L 323.00701 158.308228 
L 323.442495 157.714297 
L 323.877981 157.692522 
L 324.313467 157.017477 
L 324.748952 156.647836 
L 325.184438 155.806208 
L 326.490895 154.153438 
L 327.361866 152.907872 
L 327.797352 152.604102 
L 330.410266 148.953418 
L 330.845751 148.622973 
L 331.281237 148.079671 
L 332.152208 147.425313 
L 333.023179 146.123675 
L 333.894151 144.715881 
L 334.765122 143.42513 
L 335.636093 142.629775 
L 336.507065 141.226336 
L 337.378036 139.984037 
L 337.813521 139.953006 
L 338.249007 139.678089 
L 338.684493 139.885502 
L 340.861921 139.051495 
L 341.732892 139.064561 
L 342.168378 139.27034 
L 342.603864 139.260541 
L 343.039349 139.043874 
L 343.474835 139.571933 
L 343.91032 139.371053 
L 344.781292 139.466321 
L 346.95872 140.708621 
L 347.829691 140.662892 
L 348.700662 141.218715 
L 349.136148 141.126168 
L 349.571634 141.515952 
L 350.007119 141.751129 
L 350.878091 141.50452 
L 351.313576 141.726087 
L 352.184548 141.619386 
L 352.620033 140.568712 
L 353.055519 140.399407 
L 353.491005 140.684668 
L 353.92649 140.200704 
L 354.361976 139.999824 
L 354.797461 140.061885 
L 356.97489 139.215357 
L 357.410375 137.7651 
L 357.845861 137.568031 
L 358.281347 137.00622 
L 358.716832 136.979544 
L 359.152318 136.602826 
L 359.587804 136.533688 
L 360.023289 136.597927 
L 360.458775 136.80044 
L 360.89426 136.485782 
L 361.329746 136.309399 
L 361.765232 136.497759 
L 363.071689 136.47435 
L 363.507174 136.193444 
L 363.94266 136.385614 
L 364.813631 136.360572 
L 366.120088 136.32192 
L 367.426545 135.478115 
L 367.862031 135.993653 
L 370.039459 136.533144 
L 370.474945 137.079168 
L 370.91043 137.302368 
L 373.087858 136.844536 
L 373.523344 136.93926 
L 373.95883 136.78683 
L 374.829801 136.828204 
L 375.265287 134.909771 
L 376.136258 134.923381 
L 376.571744 134.63812 
L 377.442715 138.360664 
L 378.313686 138.598562 
L 378.749172 138.438512 
L 379.620143 138.594752 
L 380.055629 138.492406 
L 380.491114 138.094457 
L 381.797571 137.731892 
L 382.233057 137.772722 
L 383.539514 137.337754 
L 383.974999 137.33231 
L 384.410485 137.616482 
L 384.845971 137.336665 
L 385.281456 137.319244 
L 385.716942 137.008942 
L 386.152428 137.311623 
L 387.023399 137.211455 
L 387.458885 137.496716 
L 388.329856 137.42159 
L 388.765341 137.467319 
L 389.200827 137.161915 
L 389.636313 137.191312 
L 390.071798 137.346464 
L 390.507284 137.130341 
L 390.94277 137.097133 
L 391.378255 136.725858 
L 391.813741 136.725314 
L 392.249227 136.440598 
L 393.120198 136.857057 
L 393.555684 135.059478 
L 393.991169 135.080165 
L 394.426655 134.444317 
L 395.297626 133.826978 
L 396.604083 133.524841 
L 397.475054 133.929868 
L 397.91054 133.804658 
L 398.346026 134.020781 
L 398.781511 132.862862 
L 399.652483 132.977184 
L 400.087968 133.828067 
L 400.523454 133.851475 
L 401.829911 133.463869 
L 401.829911 133.463869 
" clip-path="url(#pbc01611fe9)" style="fill: none; stroke: #1f77b4; stroke-opacity: 0.8; stroke-width: 1.5; stroke-linecap: square"/>
   </g>
   <g id="line2d_17">
    <path d="M 147.070811 167.988039 
L 147.506296 167.85684 
L 148.377268 168.252612 
L 149.683725 167.971162 
L 150.554696 168.38871 
L 150.990181 168.267855 
L 151.425667 168.479623 
L 152.296638 169.065932 
L 154.909552 170.261414 
L 155.345038 170.230928 
L 156.216009 170.733401 
L 157.522466 170.517822 
L 157.957952 170.459028 
L 159.264409 171.130806 
L 160.570866 171.706227 
L 161.877322 171.43131 
L 162.312808 171.619124 
L 162.748294 170.884197 
L 164.054751 171.413345 
L 164.490236 171.68554 
L 164.925722 171.81565 
L 165.361208 171.824904 
L 166.232179 171.650699 
L 166.667665 171.700239 
L 167.10315 171.62348 
L 167.538636 171.382859 
L 167.974121 170.879298 
L 169.280578 169.936413 
L 171.022521 169.950023 
L 171.893492 170.008817 
L 172.328978 169.705591 
L 172.764463 169.714846 
L 173.635435 169.468237 
L 174.07092 169.102406 
L 174.941892 169.117105 
L 175.812863 169.270623 
L 176.248349 169.65333 
L 176.683834 169.56405 
L 177.554806 170.180844 
L 177.990291 169.920081 
L 178.425777 170.539598 
L 178.861262 170.60438 
L 179.296748 170.834657 
L 179.732234 170.761709 
L 180.167719 169.420875 
L 180.603205 169.389845 
L 181.038691 169.106217 
L 181.474176 169.091518 
L 181.909662 168.812246 
L 186.264518 168.626609 
L 186.700004 169.205841 
L 188.441947 170.315853 
L 188.877432 170.058356 
L 190.619375 171.164014 
L 191.05486 171.119374 
L 191.490346 170.830847 
L 191.925832 170.679506 
L 192.796803 169.956011 
L 193.667774 169.295121 
L 194.10326 168.413208 
L 194.538746 168.363668 
L 194.974231 168.515009 
L 195.409717 168.841099 
L 196.716174 168.751274 
L 198.458116 167.611865 
L 198.893602 167.565591 
L 200.200059 166.581877 
L 201.942001 166.541048 
L 202.377487 166.329824 
L 202.812973 166.333091 
L 203.248458 166.452857 
L 203.683944 166.434347 
L 204.554915 167.140422 
L 204.990401 167.099593 
L 205.425887 166.857339 
L 205.861372 166.817599 
L 206.296858 166.545403 
L 207.167829 166.586777 
L 208.909772 165.442468 
L 209.345257 165.459344 
L 209.780743 165.250842 
L 210.216229 165.637359 
L 210.651714 165.670023 
L 211.0872 165.460977 
L 211.522686 165.589453 
L 212.393657 165.112567 
L 213.700114 165.290583 
L 214.135599 165.600341 
L 216.748513 165.878525 
L 217.619485 165.286772 
L 218.490456 165.885057 
L 219.361427 165.308003 
L 219.796913 165.32869 
L 220.232398 165.04724 
L 221.10337 164.962859 
L 221.974341 165.728273 
L 222.409827 165.493096 
L 223.280798 164.790288 
L 224.587255 163.9933 
L 225.02274 164.065704 
L 225.458226 163.453264 
L 225.893712 163.788064 
L 226.329197 163.747779 
L 226.764683 163.556154 
L 228.07114 162.580061 
L 228.506626 162.456485 
L 228.942111 162.568629 
L 229.377597 162.525622 
L 229.813082 162.345429 
L 230.248568 162.488059 
L 230.684054 162.831025 
L 231.119539 162.820138 
L 231.555025 162.650288 
L 231.990511 162.359039 
L 233.296968 162.011717 
L 233.732453 162.006818 
L 234.167939 162.312766 
L 235.03891 162.233284 
L 235.474396 161.932781 
L 235.909881 161.945302 
L 237.651824 160.679593 
L 238.522795 160.725322 
L 239.393767 160.210329 
L 239.829252 159.832521 
L 240.264738 160.000194 
L 240.700224 160.002916 
L 241.135709 159.716566 
L 241.571195 159.81619 
L 242.877652 160.78575 
L 243.313137 160.854887 
L 245.05508 159.711667 
L 245.490566 159.86954 
L 246.797022 160.887006 
L 247.232508 160.590858 
L 247.667994 161.524488 
L 248.103479 160.858698 
L 248.538965 160.909871 
L 248.974451 160.678505 
L 250.280908 160.708446 
L 250.716393 160.601201 
L 251.151879 160.635498 
L 252.02285 160.211417 
L 252.458336 160.129759 
L 252.893821 160.615355 
L 253.764793 160.726411 
L 254.200278 160.603923 
L 254.635764 160.364936 
L 255.506735 160.452038 
L 255.942221 160.480891 
L 256.813192 160.090018 
L 257.248678 160.391066 
L 257.684164 159.220082 
L 258.555135 158.906513 
L 259.861592 158.911412 
L 260.732563 158.407851 
L 261.168049 158.106259 
L 261.603534 158.138378 
L 262.474506 157.571667 
L 262.909991 157.531382 
L 263.345477 157.272252 
L 263.780962 157.567312 
L 264.651934 157.022921 
L 265.087419 158.349601 
L 265.522905 158.098093 
L 267.264848 157.968528 
L 268.135819 158.46229 
L 269.00679 158.964218 
L 269.877761 158.959319 
L 270.748733 158.262499 
L 272.490675 157.327236 
L 272.926161 157.354455 
L 273.361647 157.124178 
L 273.797132 157.607597 
L 275.103589 157.574389 
L 275.539075 157.38984 
L 276.410046 157.881425 
L 277.281017 158.027322 
L 277.716503 158.312583 
L 278.587474 158.339258 
L 279.02296 158.529795 
L 279.458446 158.571168 
L 280.329417 157.8014 
L 281.635874 157.798678 
L 282.506845 158.304961 
L 282.942331 158.222214 
L 283.377816 158.46229 
L 283.813302 158.574435 
L 284.684273 159.148767 
L 285.555245 159.168365 
L 286.426216 158.406218 
L 286.861701 158.176485 
L 287.297187 158.421461 
L 287.732673 158.038754 
L 288.603644 157.958184 
L 289.474615 157.60052 
L 290.781072 157.658769 
L 291.216558 157.114379 
L 291.652044 157.108935 
L 292.087529 156.638037 
L 293.829472 156.547124 
L 294.700443 156.546035 
L 295.135929 156.342433 
L 297.313357 156.290716 
L 297.748842 156.2194 
L 298.184328 154.673331 
L 298.619814 154.661354 
L 299.055299 154.291713 
L 301.232728 154.196989 
L 302.103699 154.735391 
L 302.97467 154.770232 
L 303.410156 154.603649 
L 303.845641 154.676597 
L 304.281127 154.979278 
L 305.152098 154.986356 
L 306.02307 154.32982 
L 306.458555 153.996109 
L 307.765012 153.836058 
L 308.200498 153.667297 
L 308.635984 153.886142 
L 309.071469 153.875254 
L 309.94244 154.310222 
L 310.377926 154.926473 
L 311.248897 154.195356 
L 311.684383 154.336353 
L 312.119869 154.294979 
L 312.555354 154.713071 
L 312.99084 154.630868 
L 313.861811 155.010309 
L 314.297297 155.346198 
L 314.732782 155.487195 
L 315.168268 155.752313 
L 315.603754 155.418057 
L 316.039239 155.417513 
L 316.910211 155.059848 
L 317.345696 155.182881 
L 317.781182 155.05386 
L 318.216668 154.717427 
L 319.087639 154.720148 
L 319.523125 155.00051 
L 319.95861 155.039706 
L 320.394096 155.307546 
L 320.829581 155.292303 
L 321.265067 155.567765 
L 322.571524 155.548167 
L 323.442495 154.872578 
L 324.313467 154.760433 
L 324.748952 154.803985 
L 326.055409 154.272659 
L 326.490895 154.210599 
L 326.92638 153.848579 
L 327.361866 152.190909 
L 327.797352 151.911092 
L 328.668323 151.762474 
L 329.539294 152.223028 
L 329.97478 152.256781 
L 330.845751 151.613855 
L 331.716722 151.522398 
L 332.152208 151.329683 
L 332.587694 150.821222 
L 333.023179 151.004138 
L 333.894151 150.833743 
L 334.765122 150.152166 
L 335.200608 150.08575 
L 336.507065 150.188096 
L 336.94255 150.069963 
L 337.378036 150.347602 
L 337.813521 149.977961 
L 338.684493 150.369922 
L 339.119978 150.719966 
L 339.555464 150.914313 
L 340.426435 150.410207 
L 341.297407 150.312217 
L 341.732892 150.064519 
L 342.168378 149.049231 
L 342.603864 149.84023 
L 343.474835 149.922978 
L 343.91032 149.877249 
L 344.781292 150.452125 
L 345.652263 150.392787 
L 346.95872 150.856608 
L 348.265177 150.802169 
L 348.700662 150.568081 
L 350.007119 150.632319 
L 351.313576 151.404809 
L 352.620033 151.420052 
L 353.92649 150.776582 
L 354.361976 151.044967 
L 354.797461 150.688391 
L 355.232947 150.878928 
L 355.668433 151.254013 
L 357.410375 150.847353 
L 357.845861 149.634995 
L 358.281347 149.811922 
L 359.587804 149.257732 
L 360.023289 148.380719 
L 360.458775 148.509739 
L 361.329746 148.074771 
L 361.765232 148.038297 
L 362.200717 148.254965 
L 362.636203 148.261497 
L 363.507174 148.817865 
L 363.94266 149.213092 
L 364.378146 149.16573 
L 365.249117 146.194446 
L 365.684603 146.083934 
L 366.120088 145.782342 
L 366.555574 145.303278 
L 367.862031 145.181879 
L 368.297516 145.045781 
L 369.603973 144.279824 
L 370.474945 144.311398 
L 371.345916 145.087155 
L 371.781401 145.326687 
L 372.652373 145.276059 
L 373.523344 144.84109 
L 373.95883 144.868854 
L 374.394315 144.754532 
L 374.829801 144.766509 
L 375.265287 144.611902 
L 375.700772 144.317387 
L 376.136258 144.82367 
L 376.571744 144.559096 
L 378.313686 144.664708 
L 378.749172 144.72078 
L 379.184657 144.961401 
L 380.055629 145.018017 
L 380.9266 145.386026 
L 381.797571 145.991932 
L 382.233057 144.920572 
L 382.668543 145.26626 
L 383.104028 147.042062 
L 383.974999 147.716562 
L 384.410485 147.714929 
L 384.845971 147.391017 
L 386.152428 148.075316 
L 386.587913 148.055718 
L 387.023399 147.797676 
L 387.458885 147.813464 
L 387.89437 147.643614 
L 388.329856 147.699686 
L 388.765341 147.595163 
L 389.636313 146.946249 
L 390.071798 146.280459 
L 390.507284 146.310401 
L 390.94277 146.559188 
L 391.378255 146.312579 
L 392.249227 146.470996 
L 393.120198 146.965847 
L 393.555684 146.722505 
L 393.991169 147.022464 
L 394.426655 147.126987 
L 394.86214 147.013754 
L 395.297626 146.201523 
L 395.733112 146.34742 
L 396.168597 146.318022 
L 396.604083 145.972334 
L 397.039569 146.385527 
L 397.91054 146.640846 
L 398.781511 146.792731 
L 400.087968 146.077946 
L 400.523454 146.349053 
L 400.958939 146.373006 
L 401.394425 146.675143 
L 401.829911 147.167272 
L 401.829911 147.167272 
" clip-path="url(#pbc01611fe9)" style="fill: none; stroke: #ff7f0e; stroke-opacity: 0.8; stroke-width: 1.5; stroke-linecap: square"/>
   </g>
   <g id="line2d_18">
    <path d="M 147.070811 167.289585 
L 147.506296 167.020656 
L 149.248239 166.823042 
L 149.683725 167.030455 
L 150.554696 166.933009 
L 151.425667 167.27162 
L 151.861153 167.233513 
L 152.296638 166.998881 
L 152.732124 166.985815 
L 154.038581 166.64176 
L 154.909552 166.612908 
L 155.345038 166.582422 
L 156.216009 166.202437 
L 156.651495 166.313493 
L 157.957952 166.200259 
L 158.828923 165.597075 
L 160.13538 165.642259 
L 161.877322 165.012399 
L 162.312808 165.152307 
L 163.183779 164.485973 
L 163.619265 164.603017 
L 164.054751 164.346065 
L 164.925722 164.628059 
L 165.361208 164.692842 
L 166.232179 165.251386 
L 167.538636 165.867637 
L 167.974121 166.10118 
L 168.409607 166.130577 
L 168.845093 166.294439 
L 169.280578 166.269397 
L 169.716064 166.492053 
L 170.15155 166.429992 
L 170.587035 166.580789 
L 171.022521 166.525805 
L 172.328978 167.140422 
L 173.199949 166.549758 
L 174.506406 166.528527 
L 174.941892 166.271575 
L 175.812863 166.222035 
L 176.683834 165.778901 
L 177.11932 165.731539 
L 177.554806 165.446823 
L 178.425777 165.950384 
L 178.861262 165.687443 
L 179.296748 165.577477 
L 179.732234 165.231788 
L 180.167719 165.177349 
L 181.038691 165.798499 
L 181.909662 165.74406 
L 182.345148 165.524671 
L 182.780633 165.742427 
L 183.216119 165.544269 
L 183.651605 165.487652 
L 184.08709 165.587276 
L 184.958061 165.51215 
L 186.264518 164.870857 
L 186.700004 164.642758 
L 187.13549 164.630237 
L 188.006461 164.847449 
L 188.877432 165.465332 
L 189.312918 165.452267 
L 190.619375 166.156164 
L 191.925832 166.134933 
L 192.361317 166.30696 
L 192.796803 166.077772 
L 194.10326 166.370109 
L 194.974231 165.825174 
L 195.845202 166.362488 
L 197.151659 166.376642 
L 197.587145 166.213869 
L 200.635545 166.359766 
L 202.377487 165.419059 
L 202.812973 165.364075 
L 203.248458 165.126177 
L 205.425887 164.968848 
L 206.296858 164.660178 
L 206.732343 164.647113 
L 207.167829 163.479939 
L 207.603315 163.815828 
L 208.0388 163.63128 
L 208.474286 163.602427 
L 208.909772 163.337309 
L 209.345257 163.323155 
L 210.216229 163.746146 
L 211.0872 163.665032 
L 211.522686 163.468507 
L 211.958171 163.62257 
L 213.264628 162.81796 
L 213.700114 162.796729 
L 214.571085 162.304055 
L 215.877542 162.485882 
L 216.313028 162.716703 
L 217.183999 162.868588 
L 218.05497 162.268125 
L 218.925941 162.232196 
L 219.361427 161.944757 
L 220.232398 161.939858 
L 220.667884 162.183745 
L 221.974341 162.158159 
L 222.845312 161.664396 
L 223.280798 161.515233 
L 223.716283 161.54463 
L 224.151769 161.81737 
L 224.587255 161.809204 
L 226.329197 161.048146 
L 227.200169 160.92838 
L 227.635654 161.247937 
L 228.07114 161.295844 
L 228.506626 161.6252 
L 228.942111 161.756398 
L 230.248568 161.692704 
L 230.684054 161.917538 
L 231.119539 161.915905 
L 231.990511 161.342661 
L 232.425996 161.308909 
L 232.861482 160.962677 
L 235.909881 161.066111 
L 236.345367 160.832567 
L 237.651824 160.809703 
L 238.08731 160.622432 
L 238.522795 160.857065 
L 239.393767 160.271845 
L 239.829252 160.187464 
L 240.700224 160.283277 
L 241.135709 160.520087 
L 241.571195 160.413931 
L 242.00668 160.726955 
L 242.442166 160.709535 
L 242.877652 160.556561 
L 243.748623 161.095508 
L 244.619594 161.044335 
L 245.05508 160.645297 
L 245.490566 160.562005 
L 245.926051 160.738932 
L 246.797022 160.81678 
L 247.232508 160.636042 
L 247.667994 160.664895 
L 248.103479 161.043246 
L 248.538965 160.808614 
L 249.409936 160.716068 
L 251.151879 159.470502 
L 251.587365 159.291942 
L 252.02285 159.343659 
L 252.458336 159.278876 
L 252.893821 158.916312 
L 253.329307 159.148767 
L 253.764793 159.023013 
L 254.200278 159.285409 
L 254.635764 159.038255 
L 257.684164 159.372511 
L 258.555135 159.410074 
L 258.99062 159.086162 
L 259.426106 158.940265 
L 259.861592 158.99416 
L 260.297077 157.230878 
L 260.732563 157.222712 
L 262.474506 158.110069 
L 262.909991 157.92661 
L 263.345477 157.597253 
L 264.651934 158.612542 
L 265.087419 158.997426 
L 266.393876 158.911957 
L 266.829362 158.695289 
L 267.264848 158.896169 
L 268.135819 158.923389 
L 269.00679 159.40463 
L 269.442276 159.418785 
L 269.877761 159.638718 
L 271.619704 159.393743 
L 272.05519 159.081807 
L 272.490675 158.960408 
L 272.926161 159.21736 
L 274.232618 158.965307 
L 275.103589 158.496042 
L 275.97456 158.11388 
L 276.410046 158.358311 
L 276.845532 158.335447 
L 277.281017 158.193905 
L 277.716503 158.192817 
L 278.151989 158.393152 
L 278.587474 158.358311 
L 279.02296 158.548304 
L 279.458446 158.419828 
L 279.893931 158.417106 
L 280.764902 157.592898 
L 281.200388 157.890135 
L 282.071359 157.474221 
L 282.506845 157.657136 
L 282.942331 157.608685 
L 283.377816 157.405628 
L 283.813302 157.465511 
L 284.248788 157.395284 
L 285.555245 158.252155 
L 286.426216 158.307683 
L 286.861701 158.557014 
L 287.297187 158.614175 
L 288.603644 159.273977 
L 289.474615 159.225526 
L 290.345587 159.735076 
L 290.781072 159.629464 
L 291.652044 159.826533 
L 292.087529 160.956688 
L 292.523015 160.719334 
L 292.9585 160.637675 
L 293.829472 160.113427 
L 295.135929 160.173854 
L 295.571414 159.87825 
L 296.0069 160.144457 
L 296.877871 160.12867 
L 298.184328 160.480891 
L 298.619814 160.209784 
L 299.055299 160.461293 
L 299.926271 160.450949 
L 300.797242 159.898393 
L 301.668213 159.918535 
L 302.103699 159.658861 
L 302.539185 159.67737 
L 302.97467 160.02578 
L 303.845641 160.053544 
L 304.281127 160.369291 
L 304.716613 160.162422 
L 305.152098 159.809657 
L 306.02307 159.763384 
L 306.458555 160.040479 
L 306.894041 160.013804 
L 307.329527 160.588136 
L 307.765012 160.518454 
L 308.635984 161.100952 
L 309.506955 161.093875 
L 309.94244 161.442285 
L 310.813412 161.276246 
L 311.684383 158.684402 
L 312.119869 158.702911 
L 312.555354 158.217314 
L 312.99084 158.223303 
L 313.426326 158.036032 
L 314.732782 157.904834 
L 315.168268 158.085027 
L 316.910211 158.116058 
L 317.345696 157.730629 
L 317.781182 157.733895 
L 318.652153 158.191184 
L 319.95861 158.088294 
L 320.394096 158.05182 
L 320.829581 157.8014 
L 321.265067 157.835152 
L 321.700553 157.63155 
L 322.136038 157.64026 
L 322.571524 157.371331 
L 323.442495 157.257553 
L 323.877981 157.591265 
L 324.313467 157.757304 
L 324.748952 157.546625 
L 325.184438 157.603786 
L 326.055409 157.447546 
L 326.490895 157.74805 
L 326.92638 157.468777 
L 327.797352 157.426859 
L 328.232837 157.459522 
L 329.539294 156.702275 
L 329.97478 157.041975 
L 331.281237 156.943984 
L 331.716722 156.621161 
L 332.152208 156.862326 
L 333.023179 156.751815 
L 333.894151 157.062117 
L 334.329636 156.841639 
L 334.765122 157.147042 
L 335.200608 157.143231 
L 336.071579 157.749138 
L 336.507065 158.006091 
L 336.94255 157.950018 
L 337.378036 157.764926 
L 337.813521 158.065429 
L 338.684493 157.814465 
L 339.119978 157.649515 
L 339.555464 157.853117 
L 340.861921 157.780713 
L 341.297407 157.722463 
L 342.168378 157.221079 
L 343.039349 157.325602 
L 343.474835 157.521039 
L 343.91032 157.850395 
L 344.781292 157.970161 
L 345.216777 159.502076 
L 346.087749 159.662127 
L 347.829691 158.853707 
L 348.265177 159.174898 
L 349.571634 158.421461 
L 350.007119 158.348512 
L 350.442605 158.404585 
L 350.878091 158.054541 
L 351.313576 158.075773 
L 351.749062 158.240723 
L 352.184548 158.021334 
L 353.491005 157.914633 
L 353.92649 157.681634 
L 354.797461 157.824264 
L 356.103918 158.821588 
L 356.97489 158.722509 
L 357.410375 158.674602 
L 358.716832 157.95274 
L 359.587804 157.961995 
L 360.023289 158.071418 
L 360.458775 157.75186 
L 360.89426 157.766014 
L 361.329746 157.383852 
L 361.765232 157.286406 
L 362.636203 157.724641 
L 363.071689 157.530838 
L 363.507174 157.772003 
L 363.94266 157.8014 
L 364.813631 158.464468 
L 365.684603 158.890181 
L 366.120088 158.873849 
L 366.991059 158.981094 
L 367.426545 158.953331 
L 368.733002 159.609321 
L 369.603973 159.121547 
L 370.039459 159.110115 
L 370.474945 158.862417 
L 370.91043 158.84173 
L 371.345916 159.046421 
L 372.652373 158.975651 
L 373.087858 158.728497 
L 373.523344 158.778581 
L 374.394315 159.217904 
L 374.829801 158.990893 
L 375.265287 159.021379 
L 375.700772 158.218947 
L 376.136258 158.150354 
L 377.007229 157.680545 
L 377.442715 157.934776 
L 378.313686 157.970161 
L 379.184657 158.423638 
L 379.620143 158.327826 
L 380.055629 158.071418 
L 380.491114 158.114424 
L 380.9266 157.797045 
L 381.362086 158.100815 
L 382.668543 158.015345 
L 383.539514 157.38603 
L 383.974999 157.102947 
L 384.410485 157.109479 
L 384.845971 156.845994 
L 385.281456 156.938541 
L 386.152428 156.702819 
L 387.023399 156.651647 
L 387.458885 156.958683 
L 387.89437 156.663079 
L 388.329856 156.621161 
L 389.200827 156.046829 
L 390.94277 156.346788 
L 391.378255 156.042473 
L 391.813741 156.086569 
L 392.249227 155.969525 
L 392.684712 156.011443 
L 393.120198 155.758846 
L 393.555684 155.713117 
L 394.426655 154.989622 
L 395.297626 155.068559 
L 395.733112 155.305913 
L 396.604083 157.744783 
L 397.039569 157.755127 
L 397.475054 158.166686 
L 397.91054 158.392608 
L 398.781511 158.180296 
L 399.216997 158.332725 
L 399.652483 158.346335 
L 400.087968 158.157976 
L 400.958939 158.182473 
L 401.829911 158.765516 
L 401.829911 158.765516 
" clip-path="url(#pbc01611fe9)" style="fill: none; stroke: #2ca02c; stroke-opacity: 0.8; stroke-width: 1.5; stroke-linecap: square"/>
   </g>
   <g id="line2d_19">
    <path d="M 147.070811 225.92373 
L 148.377268 225.828461 
L 149.248239 225.752247 
L 151.425667 225.796887 
L 151.861153 225.449021 
L 154.474067 225.484406 
L 156.216009 225.472974 
L 157.08698 225.45882 
L 157.957952 224.278037 
L 160.570866 224.312333 
L 161.006351 223.858856 
L 161.877322 223.736368 
L 162.312808 223.016139 
L 166.667665 222.66664 
L 168.409607 222.622 
L 168.845093 222.598047 
L 169.280578 222.357426 
L 169.716064 221.934979 
L 171.458007 221.802692 
L 172.328978 221.711234 
L 172.764463 221.296953 
L 175.377377 221.1565 
L 175.812863 220.72752 
L 176.248349 220.483633 
L 176.683834 220.492888 
L 177.11932 220.109093 
L 177.990291 220.043766 
L 178.425777 219.547826 
L 181.909662 219.355111 
L 184.522576 218.950629 
L 184.958061 218.395895 
L 185.393547 217.220011 
L 185.829033 215.507902 
L 186.264518 215.012507 
L 187.13549 213.449017 
L 188.441947 211.651983 
L 190.183889 208.331744 
L 190.619375 207.880989 
L 192.361317 204.964688 
L 193.232289 203.378333 
L 194.10326 201.81321 
L 194.538746 200.713541 
L 196.280688 197.441753 
L 196.716174 195.647985 
L 197.151659 195.118293 
L 197.587145 193.791613 
L 199.329088 190.760446 
L 200.200059 188.072789 
L 200.635545 187.091252 
L 201.506516 185.903936 
L 203.248458 185.148866 
L 203.683944 185.120558 
L 204.11943 184.852718 
L 204.554915 184.780314 
L 204.990401 183.845051 
L 205.425887 183.524405 
L 205.861372 182.856437 
L 206.296858 183.011589 
L 206.732343 182.957694 
L 207.167829 182.19718 
L 208.0388 181.767656 
L 208.474286 181.196046 
L 208.909772 181.185702 
L 209.345257 181.002243 
L 209.780743 181.289136 
L 210.216229 181.405092 
L 210.651714 181.995756 
L 211.522686 182.173227 
L 211.958171 182.381729 
L 212.393657 181.609783 
L 213.264628 181.525946 
L 213.700114 181.247763 
L 214.135599 181.104044 
L 214.571085 180.813339 
L 215.006571 180.703916 
L 215.442056 180.054458 
L 215.877542 178.55194 
L 217.183999 176.076595 
L 218.925941 172.491238 
L 219.361427 171.316443 
L 221.10337 168.366934 
L 221.974341 165.806665 
L 223.280798 164.123953 
L 223.716283 163.323699 
L 224.151769 161.850578 
L 225.02274 160.602834 
L 226.329197 156.587409 
L 227.200169 155.403903 
L 227.635654 153.413066 
L 228.07114 152.132659 
L 229.813082 148.728584 
L 230.248568 147.345832 
L 231.555025 145.268437 
L 231.990511 143.721279 
L 232.861482 141.399453 
L 233.296968 139.995469 
L 233.732453 139.415148 
L 234.167939 137.829883 
L 235.03891 136.248972 
L 235.909881 134.652274 
L 236.345367 133.0387 
L 236.780853 132.602099 
L 237.216338 131.762104 
L 237.651824 130.133287 
L 238.08731 129.316157 
L 238.522795 127.720547 
L 238.958281 126.796172 
L 239.829252 124.026857 
L 241.571195 120.568342 
L 242.00668 120.001087 
L 242.442166 120.109966 
L 242.877652 120.053893 
L 243.313137 118.290612 
L 245.05508 115.062375 
L 245.490566 114.406929 
L 245.926051 114.077572 
L 246.797022 112.664334 
L 247.232508 112.658346 
L 248.974451 108.602091 
L 249.409936 108.059333 
L 249.845422 106.764772 
L 250.280908 105.877415 
L 251.151879 103.042773 
L 251.587365 102.363373 
L 252.02285 101.891386 
L 253.329307 99.345816 
L 253.764793 98.849331 
L 254.635764 98.245058 
L 255.506735 97.236302 
L 255.942221 96.32227 
L 256.377707 95.744671 
L 257.248678 94.317279 
L 257.684164 94.111499 
L 258.119649 93.579629 
L 260.297077 89.537528 
L 260.732563 89.322494 
L 261.168049 88.072029 
L 263.345477 84.957569 
L 263.780962 83.599859 
L 264.216448 83.08051 
L 265.087419 80.04281 
L 265.958391 78.487486 
L 266.829362 77.264785 
L 269.442276 73.687049 
L 269.877761 73.519377 
L 270.313247 73.996807 
L 270.748733 74.993587 
L 271.184218 74.693627 
L 271.619704 74.879809 
L 272.926161 74.58366 
L 274.232618 73.405599 
L 274.668104 73.518832 
L 275.103589 73.47637 
L 275.539075 73.006561 
L 275.97456 72.905304 
L 276.410046 73.129048 
L 276.845532 73.149191 
L 277.281017 73.400699 
L 277.716503 73.394711 
L 278.151989 73.252625 
L 278.587474 73.536797 
L 279.02296 72.134447 
L 279.458446 72.722389 
L 280.329417 72.912925 
L 281.200388 72.724022 
L 281.635874 74.08391 
L 282.071359 74.046347 
L 282.506845 74.659331 
L 283.377816 74.89233 
L 284.248788 70.828998 
L 284.684273 71.306428 
L 285.119759 71.593867 
L 285.555245 71.711999 
L 285.99073 71.637418 
L 286.426216 69.666724 
L 287.732673 69.947629 
L 288.168158 69.475642 
L 288.603644 69.215424 
L 289.474615 69.101102 
L 289.910101 69.952529 
L 290.781072 70.028199 
L 291.216558 69.52246 
L 291.652044 69.382007 
L 292.087529 70.09897 
L 292.523015 70.446835 
L 292.9585 70.55027 
L 293.393986 70.892147 
L 294.264957 70.994492 
L 294.700443 70.809944 
L 295.571414 70.936787 
L 296.0069 70.591643 
L 296.442386 70.630295 
L 296.877871 70.212203 
L 297.313357 70.81321 
L 298.184328 70.42506 
L 298.619814 70.443025 
L 299.490785 70.97925 
L 299.926271 70.648804 
L 300.361756 70.556258 
L 300.797242 71.467568 
L 301.232728 71.342358 
L 302.103699 72.021758 
L 303.410156 73.117616 
L 303.845641 72.377245 
L 304.281127 73.086042 
L 304.716613 72.521508 
L 305.152098 72.764307 
L 306.02307 72.548184 
L 306.458555 72.871552 
L 306.894041 73.446428 
L 307.765012 73.430096 
L 308.635984 73.616278 
L 309.071469 74.187344 
L 309.506955 73.99844 
L 309.94244 73.360959 
L 310.377926 74.026749 
L 310.813412 74.973988 
L 311.248897 74.947858 
L 312.119869 74.469338 
L 312.555354 75.688773 
L 313.861811 76.551088 
L 315.168268 71.623808 
L 315.603754 71.077784 
L 316.039239 68.889334 
L 316.474725 68.72765 
L 316.910211 69.53607 
L 317.345696 69.851272 
L 317.781182 68.293226 
L 318.216668 68.884434 
L 318.652153 68.757591 
L 319.087639 69.61664 
L 319.95861 69.797922 
L 320.829581 69.825686 
L 321.265067 70.570957 
L 322.136038 70.316182 
L 322.571524 71.199728 
L 323.00701 71.18884 
L 323.442495 72.200318 
L 324.748952 73.403421 
L 325.184438 73.789394 
L 325.619924 73.637509 
L 326.055409 73.686504 
L 326.92638 73.235749 
L 327.361866 72.675027 
L 327.797352 70.218736 
L 328.232837 71.461035 
L 328.668323 71.670626 
L 329.103809 71.05002 
L 329.97478 71.022256 
L 330.845751 70.88507 
L 331.281237 70.999392 
L 331.716722 70.912834 
L 333.458665 71.404963 
L 333.894151 71.524729 
L 334.329636 71.21606 
L 334.765122 71.754462 
L 335.200608 71.624897 
L 335.636093 72.56016 
L 336.071579 72.948855 
L 336.94255 72.756685 
L 337.378036 72.465981 
L 337.813521 72.750152 
L 338.249007 72.450738 
L 338.684493 71.835032 
L 339.119978 70.511074 
L 340.426435 70.196416 
L 340.861921 70.511074 
L 341.297407 69.98247 
L 341.732892 69.796289 
L 342.168378 69.307426 
L 342.603864 69.066805 
L 343.039349 68.54419 
L 343.474835 66.977978 
L 343.91032 64.845055 
L 344.781292 64.37198 
L 345.216777 64.33115 
L 345.652263 62.151954 
L 346.087749 62.892326 
L 346.523234 62.556437 
L 346.95872 62.632651 
L 347.829691 62.539561 
L 348.265177 62.680013 
L 348.700662 63.071975 
L 349.136148 62.7056 
L 349.571634 63.287553 
L 350.007119 64.066576 
L 350.878091 64.290865 
L 351.313576 64.08563 
L 352.184548 64.110128 
L 353.491005 63.663183 
L 353.92649 63.022435 
L 354.797461 63.30824 
L 355.232947 63.523819 
L 355.668433 63.318039 
L 356.103918 63.260334 
L 356.539404 63.059998 
L 356.97489 63.178675 
L 357.410375 63.02679 
L 358.281347 63.577714 
L 359.152318 64.15259 
L 359.587804 64.319174 
L 360.023289 64.297943 
L 361.765232 63.582613 
L 362.200717 63.431817 
L 363.071689 63.76825 
L 363.507174 63.200995 
L 363.94266 64.068754 
L 364.378146 63.563559 
L 364.813631 62.205849 
L 365.249117 62.123646 
L 365.684603 62.468245 
L 366.120088 62.216737 
L 366.555574 58.746791 
L 367.426545 54.581113 
L 367.862031 52.634916 
L 368.297516 49.904797 
L 368.733002 50.028918 
L 369.168488 51.729595 
L 369.603973 51.972393 
L 370.039459 51.776957 
L 370.474945 51.763891 
L 370.91043 51.172683 
L 371.345916 52.744883 
L 371.781401 52.775369 
L 372.216887 52.383408 
L 372.652373 52.35891 
L 373.087858 52.645804 
L 373.95883 52.578844 
L 374.394315 51.717618 
L 374.829801 51.694209 
L 375.265287 49.14265 
L 376.136258 49.895542 
L 376.571744 49.458941 
L 377.007229 49.354418 
L 377.442715 49.028872 
L 379.184657 49.158437 
L 379.620143 48.620579 
L 380.055629 48.316809 
L 380.491114 48.157303 
L 380.9266 48.40119 
L 381.362086 47.403322 
L 381.797571 47.506212 
L 382.233057 47.4006 
L 382.668543 47.128404 
L 383.104028 47.143647 
L 383.539514 47.398967 
L 384.410485 47.10554 
L 384.845971 47.678239 
L 386.587913 47.317852 
L 387.458885 46.528486 
L 387.89437 46.223627 
L 388.329856 46.545362 
L 389.636313 41.639313 
L 390.071798 41.239186 
L 390.507284 39.540142 
L 390.94277 37.328827 
L 391.378255 37.674516 
L 391.813741 36.774093 
L 392.249227 36.591722 
L 392.684712 35.85244 
L 393.120198 36.028278 
L 393.555684 35.938454 
L 393.991169 36.143689 
L 394.426655 36.16492 
L 394.86214 35.483343 
L 395.297626 35.728319 
L 395.733112 35.540504 
L 396.604083 35.849718 
L 397.91054 35.61073 
L 398.781511 34.990125 
L 400.087968 40.422055 
L 400.523454 40.619125 
L 400.958939 42.836428 
L 401.394425 42.617583 
L 401.829911 42.551167 
L 401.829911 42.551167 
" clip-path="url(#pbc01611fe9)" style="fill: none; stroke: #d62728; stroke-opacity: 0.8; stroke-width: 1.5; stroke-linecap: square"/>
   </g>
   <g id="line2d_20">
    <path d="M 147.070811 141.004225 
L 147.506296 140.072772 
L 148.812753 138.034574 
L 152.296638 132.952142 
L 154.038581 131.031532 
L 154.474067 130.614528 
L 158.393437 124.270199 
L 159.699894 122.563534 
L 161.006351 120.514448 
L 161.441837 120.510093 
L 162.748294 119.790953 
L 163.183779 119.527467 
L 164.054751 119.549243 
L 164.925722 119.411512 
L 165.361208 119.110464 
L 166.232179 119.205733 
L 166.667665 119.519846 
L 167.10315 119.220431 
L 167.538636 119.229686 
L 168.845093 118.858956 
L 169.280578 118.527966 
L 169.716064 118.954768 
L 170.15155 119.162726 
L 171.893492 118.670597 
L 173.635435 119.141494 
L 174.07092 118.630312 
L 174.941892 118.163224 
L 175.377377 118.123484 
L 175.812863 118.210042 
L 176.683834 118.027127 
L 177.11932 118.253593 
L 177.554806 117.906272 
L 177.990291 117.797394 
L 178.861262 118.205687 
L 179.732234 117.509411 
L 180.167719 117.594336 
L 181.038691 117.466949 
L 181.474176 117.432652 
L 182.780633 116.65254 
L 183.651605 117.099485 
L 184.522576 117.024359 
L 185.829033 116.020503 
L 186.700004 116.019414 
L 187.13549 115.685702 
L 187.570975 115.55396 
L 188.006461 115.538717 
L 188.877432 114.933354 
L 189.312918 115.927956 
L 189.748403 115.736331 
L 190.183889 115.717277 
L 190.619375 115.890938 
L 191.925832 115.784237 
L 192.796803 116.101072 
L 193.232289 116.065143 
L 193.667774 116.224649 
L 194.10326 116.185453 
L 194.974231 116.584491 
L 195.409717 116.595379 
L 196.280688 116.996051 
L 196.716174 116.963387 
L 197.151659 116.753252 
L 198.458116 116.80007 
L 199.329088 116.838722 
L 202.812973 116.735832 
L 204.554915 115.737419 
L 205.861372 114.988882 
L 206.732343 115.178875 
L 207.167829 114.899602 
L 207.603315 114.846252 
L 208.474286 115.154377 
L 208.909772 114.902869 
L 209.345257 114.499475 
L 210.216229 114.506008 
L 210.651714 114.696 
L 211.522686 114.473889 
L 212.393657 114.756972 
L 212.829142 114.466267 
L 213.264628 114.350856 
L 214.135599 114.393863 
L 215.006571 114.153243 
L 215.442056 114.49022 
L 215.877542 114.106425 
L 216.313028 114.416728 
L 216.748513 114.319282 
L 217.183999 114.499475 
L 217.619485 114.487498 
L 218.05497 114.744995 
L 218.925941 114.736829 
L 219.361427 115.07544 
L 219.796913 114.82992 
L 220.232398 114.793446 
L 220.667884 114.636117 
L 221.10337 114.722131 
L 221.974341 114.559902 
L 222.409827 114.226735 
L 222.845312 114.218025 
L 223.280798 114.012245 
L 224.151769 114.055252 
L 224.587255 114.337247 
L 225.02274 114.334525 
L 225.458226 114.472255 
L 226.329197 115.092861 
L 227.635654 114.09717 
L 228.07114 113.888124 
L 228.506626 113.424848 
L 229.377597 113.950729 
L 229.813082 113.901734 
L 230.684054 116.584491 
L 231.555025 116.404298 
L 232.425996 116.760874 
L 232.861482 116.577959 
L 234.167939 116.466359 
L 234.603425 116.1615 
L 235.474396 116.020503 
L 235.909881 116.078752 
L 236.345367 116.340604 
L 238.522795 116.635664 
L 238.958281 116.190897 
L 239.393767 116.118493 
L 240.700224 116.824023 
L 241.135709 116.65254 
L 241.571195 116.260579 
L 242.00668 116.397765 
L 242.442166 116.685748 
L 243.748623 116.062965 
L 244.184109 116.028124 
L 245.05508 116.418997 
L 246.361537 117.031436 
L 248.103479 118.221474 
L 248.974451 118.736468 
L 249.409936 118.632489 
L 249.845422 118.737012 
L 250.280908 119.050037 
L 252.02285 119.251461 
L 252.458336 118.918839 
L 253.764793 119.320055 
L 254.200278 119.661388 
L 254.635764 119.379938 
L 255.07125 118.927549 
L 255.506735 118.795262 
L 256.377707 118.997231 
L 256.813192 118.865488 
L 257.248678 118.905229 
L 258.119649 118.180645 
L 258.555135 117.926414 
L 258.99062 117.987931 
L 259.426106 118.202421 
L 260.297077 117.864898 
L 262.03902 116.612255 
L 262.474506 115.268155 
L 262.909991 115.099394 
L 263.780962 114.525061 
L 264.216448 114.858228 
L 265.087419 114.773304 
L 265.522905 114.847885 
L 266.393876 114.107514 
L 267.700333 113.779246 
L 268.135819 113.345367 
L 268.571305 113.338834 
L 269.00679 112.965926 
L 270.313247 112.970282 
L 270.748733 112.989335 
L 271.184218 112.502106 
L 272.05519 113.062828 
L 272.490675 112.837995 
L 273.361647 112.785733 
L 273.797132 113.137954 
L 275.103589 113.014377 
L 275.539075 112.697542 
L 276.410046 112.459099 
L 276.845532 112.674133 
L 277.281017 112.716051 
L 277.716503 112.601729 
L 278.587474 112.690465 
L 279.02296 112.981169 
L 279.458446 112.596285 
L 280.329417 112.609351 
L 281.200388 112.765046 
L 282.071359 112.547834 
L 283.377816 112.107422 
L 283.813302 112.057338 
L 284.684273 112.518982 
L 285.119759 112.465631 
L 285.99073 112.565255 
L 286.861701 112.293604 
L 288.168158 112.172749 
L 290.781072 111.812363 
L 291.652044 111.221699 
L 292.087529 111.159638 
L 292.9585 110.511269 
L 293.393986 110.167758 
L 293.829472 110.095899 
L 294.264957 110.172658 
L 295.571414 108.925459 
L 296.0069 109.275502 
L 296.442386 109.123617 
L 297.313357 108.532953 
L 299.055299 109.435008 
L 299.490785 109.245016 
L 300.361756 109.080066 
L 300.797242 109.2951 
L 301.232728 109.229229 
L 301.668213 109.56784 
L 302.103699 109.574372 
L 302.539185 109.824248 
L 303.410156 109.519933 
L 303.845641 109.773619 
L 304.716613 109.590704 
L 305.587584 110.260305 
L 306.02307 110.142716 
L 306.458555 110.396402 
L 307.765012 110.509636 
L 308.200498 110.900508 
L 308.635984 110.819938 
L 309.506955 110.099709 
L 309.94244 110.122574 
L 310.377926 109.96089 
L 311.248897 109.320142 
L 311.684383 109.374581 
L 312.119869 109.009839 
L 312.555354 109.401801 
L 312.99084 109.5232 
L 313.426326 109.940747 
L 314.297297 108.976087 
L 314.732782 107.290109 
L 315.603754 108.00435 
L 316.039239 107.893838 
L 316.474725 108.029392 
L 316.910211 107.853553 
L 318.216668 107.818712 
L 320.394096 109.076255 
L 320.829581 107.550872 
L 321.265067 107.251457 
L 321.700553 106.674948 
L 322.571524 105.98956 
L 323.442495 105.309071 
L 323.877981 105.472388 
L 325.184438 104.350944 
L 326.055409 104.244787 
L 326.490895 104.803332 
L 326.92638 104.942696 
L 327.797352 104.918743 
L 328.232837 105.247011 
L 328.668323 104.3406 
L 329.539294 104.041185 
L 329.97478 102.585485 
L 330.845751 102.288792 
L 331.281237 102.075391 
L 331.716722 101.66492 
L 332.152208 99.939201 
L 333.023179 99.477558 
L 335.636093 97.750751 
L 336.071579 97.309794 
L 336.94255 97.21126 
L 337.378036 97.842753 
L 337.813521 97.971229 
L 338.249007 97.870517 
L 338.684493 97.904269 
L 339.119978 98.091539 
L 339.555464 97.97014 
L 339.99095 98.111137 
L 340.426435 98.518886 
L 341.297407 98.116581 
L 341.732892 98.467169 
L 342.168378 98.044722 
L 342.603864 98.378433 
L 343.039349 98.515075 
L 343.91032 98.430695 
L 344.345806 97.958164 
L 346.523234 98.467713 
L 346.95872 98.496566 
L 347.394206 100.129194 
L 348.265177 100.397578 
L 348.700662 100.222285 
L 349.136148 99.747576 
L 349.571634 100.07911 
L 350.878091 100.073666 
L 351.313576 100.452562 
L 352.184548 100.607713 
L 353.055519 101.165169 
L 353.491005 101.131961 
L 354.797461 102.149972 
L 355.232947 101.957802 
L 355.668433 102.278448 
L 356.103918 102.390048 
L 356.97489 101.712826 
L 357.410375 101.772709 
L 357.845861 101.579451 
L 358.281347 101.703027 
L 358.716832 101.396535 
L 359.152318 101.560941 
L 359.587804 101.46404 
L 360.023289 101.65621 
L 360.458775 101.98611 
L 360.89426 102.122208 
L 361.329746 101.60667 
L 361.765232 98.982163 
L 362.200717 98.561893 
L 362.636203 98.494933 
L 363.507174 98.512898 
L 363.94266 98.222193 
L 365.249117 98.154144 
L 366.555574 97.942921 
L 367.862031 98.678393 
L 368.733002 98.662605 
L 369.168488 98.327261 
L 369.603973 96.824198 
L 370.91043 96.959207 
L 371.781401 97.083872 
L 372.652373 97.105103 
L 373.087858 96.900957 
L 373.523344 96.878093 
L 373.95883 97.039777 
L 374.394315 97.064274 
L 375.700772 97.972318 
L 376.136258 97.864528 
L 376.571744 95.437635 
L 377.007229 95.749571 
L 377.442715 95.734328 
L 377.8782 95.561211 
L 378.313686 95.533992 
L 378.749172 95.320591 
L 379.184657 95.270507 
L 380.491114 95.566111 
L 380.9266 95.195381 
L 381.362086 95.214979 
L 381.797571 95.521471 
L 382.233057 95.579176 
L 382.668543 95.262885 
L 383.974999 95.223145 
L 384.410485 95.453966 
L 384.845971 95.867159 
L 385.281456 95.880769 
L 385.716942 95.717452 
L 386.587913 94.891611 
L 387.023399 95.090858 
L 387.458885 95.036419 
L 387.89437 95.122977 
L 388.329856 95.524737 
L 388.765341 95.365775 
L 389.636313 95.438179 
L 390.507284 94.800153 
L 391.378255 94.752791 
L 391.813741 94.710329 
L 392.249227 94.325989 
L 392.684712 94.543201 
L 393.120198 94.216022 
L 393.555684 94.227454 
L 393.991169 93.974857 
L 394.426655 93.907897 
L 395.297626 93.602494 
L 396.168597 93.699395 
L 396.604083 93.59705 
L 397.039569 92.520789 
L 397.475054 92.331341 
L 397.91054 92.263837 
L 398.346026 91.931214 
L 398.781511 92.010695 
L 399.216997 92.297589 
L 399.652483 93.796841 
L 400.523454 93.040683 
L 400.958939 93.252451 
L 401.394425 93.00693 
L 401.829911 93.094577 
L 401.829911 93.094577 
" clip-path="url(#pbc01611fe9)" style="fill: none; stroke: #9467bd; stroke-opacity: 0.8; stroke-width: 1.5; stroke-linecap: square"/>
   </g>
   <g id="patch_3">
    <path d="M 61.715625 288.430125 
L 61.715625 22.318125 
" style="fill: none; stroke: #000000; stroke-width: 0.8; stroke-linejoin: miter; stroke-linecap: square"/>
   </g>
   <g id="patch_4">
    <path d="M 418.835625 288.430125 
L 418.835625 22.318125 
" style="fill: none; stroke: #000000; stroke-width: 0.8; stroke-linejoin: miter; stroke-linecap: square"/>
   </g>
   <g id="patch_5">
    <path d="M 61.715625 288.430125 
L 418.835625 288.430125 
" style="fill: none; stroke: #000000; stroke-width: 0.8; stroke-linejoin: miter; stroke-linecap: square"/>
   </g>
   <g id="patch_6">
    <path d="M 61.715625 22.318125 
L 418.835625 22.318125 
" style="fill: none; stroke: #000000; stroke-width: 0.8; stroke-linejoin: miter; stroke-linecap: square"/>
   </g>
   <g id="text_18">
    <!-- Get filtered children count [branch] -->
    <g transform="translate(134.09625 16.318125) scale(0.12 -0.12)">
     <defs>
      <path id="DejaVuSans-47" d="M 3809 666 
L 3809 1919 
L 2778 1919 
L 2778 2438 
L 4434 2438 
L 4434 434 
Q 4069 175 3628 42 
Q 3188 -91 2688 -91 
Q 1594 -91 976 548 
Q 359 1188 359 2328 
Q 359 3472 976 4111 
Q 1594 4750 2688 4750 
Q 3144 4750 3555 4637 
Q 3966 4525 4313 4306 
L 4313 3634 
Q 3963 3931 3569 4081 
Q 3175 4231 2741 4231 
Q 1884 4231 1454 3753 
Q 1025 3275 1025 2328 
Q 1025 1384 1454 906 
Q 1884 428 2741 428 
Q 3075 428 3337 486 
Q 3600 544 3809 666 
z
" transform="scale(0.015625)"/>
      <path id="DejaVuSans-72" d="M 2631 2963 
Q 2534 3019 2420 3045 
Q 2306 3072 2169 3072 
Q 1681 3072 1420 2755 
Q 1159 2438 1159 1844 
L 1159 0 
L 581 0 
L 581 3500 
L 1159 3500 
L 1159 2956 
Q 1341 3275 1631 3429 
Q 1922 3584 2338 3584 
Q 2397 3584 2469 3576 
Q 2541 3569 2628 3553 
L 2631 2963 
z
" transform="scale(0.015625)"/>
      <path id="DejaVuSans-68" d="M 3513 2113 
L 3513 0 
L 2938 0 
L 2938 2094 
Q 2938 2591 2744 2837 
Q 2550 3084 2163 3084 
Q 1697 3084 1428 2787 
Q 1159 2491 1159 1978 
L 1159 0 
L 581 0 
L 581 4863 
L 1159 4863 
L 1159 2956 
Q 1366 3272 1645 3428 
Q 1925 3584 2291 3584 
Q 2894 3584 3203 3211 
Q 3513 2838 3513 2113 
z
" transform="scale(0.015625)"/>
      <path id="DejaVuSans-5b" d="M 550 4863 
L 1875 4863 
L 1875 4416 
L 1125 4416 
L 1125 -397 
L 1875 -397 
L 1875 -844 
L 550 -844 
L 550 4863 
z
" transform="scale(0.015625)"/>
      <path id="DejaVuSans-5d" d="M 1947 4863 
L 1947 -844 
L 622 -844 
L 622 -397 
L 1369 -397 
L 1369 4416 
L 622 4416 
L 622 4863 
L 1947 4863 
z
" transform="scale(0.015625)"/>
     </defs>
     <use xlink:href="#DejaVuSans-47"/>
     <use xlink:href="#DejaVuSans-65" transform="translate(77.490234 0)"/>
     <use xlink:href="#DejaVuSans-74" transform="translate(139.013672 0)"/>
     <use xlink:href="#DejaVuSans-20" transform="translate(178.222656 0)"/>
     <use xlink:href="#DejaVuSans-66" transform="translate(210.009766 0)"/>
     <use xlink:href="#DejaVuSans-69" transform="translate(245.214844 0)"/>
     <use xlink:href="#DejaVuSans-6c" transform="translate(272.998047 0)"/>
     <use xlink:href="#DejaVuSans-74" transform="translate(300.78125 0)"/>
     <use xlink:href="#DejaVuSans-65" transform="translate(339.990234 0)"/>
     <use xlink:href="#DejaVuSans-72" transform="translate(401.513672 0)"/>
     <use xlink:href="#DejaVuSans-65" transform="translate(440.376953 0)"/>
     <use xlink:href="#DejaVuSans-64" transform="translate(501.900391 0)"/>
     <use xlink:href="#DejaVuSans-20" transform="translate(565.376953 0)"/>
     <use xlink:href="#DejaVuSans-63" transform="translate(597.164062 0)"/>
     <use xlink:href="#DejaVuSans-68" transform="translate(652.144531 0)"/>
     <use xlink:href="#DejaVuSans-69" transform="translate(715.523438 0)"/>
     <use xlink:href="#DejaVuSans-6c" transform="translate(743.306641 0)"/>
     <use xlink:href="#DejaVuSans-64" transform="translate(771.089844 0)"/>
     <use xlink:href="#DejaVuSans-72" transform="translate(834.566406 0)"/>
     <use xlink:href="#DejaVuSans-65" transform="translate(873.429688 0)"/>
     <use xlink:href="#DejaVuSans-6e" transform="translate(934.953125 0)"/>
     <use xlink:href="#DejaVuSans-20" transform="translate(998.332031 0)"/>
     <use xlink:href="#DejaVuSans-63" transform="translate(1030.119141 0)"/>
     <use xlink:href="#DejaVuSans-6f" transform="translate(1085.099609 0)"/>
     <use xlink:href="#DejaVuSans-75" transform="translate(1146.28125 0)"/>
     <use xlink:href="#DejaVuSans-6e" transform="translate(1209.660156 0)"/>
     <use xlink:href="#DejaVuSans-74" transform="translate(1273.039062 0)"/>
     <use xlink:href="#DejaVuSans-20" transform="translate(1312.248047 0)"/>
     <use xlink:href="#DejaVuSans-5b" transform="translate(1344.035156 0)"/>
     <use xlink:href="#DejaVuSans-62" transform="translate(1383.048828 0)"/>
     <use xlink:href="#DejaVuSans-72" transform="translate(1446.525391 0)"/>
     <use xlink:href="#DejaVuSans-61" transform="translate(1487.638672 0)"/>
     <use xlink:href="#DejaVuSans-6e" transform="translate(1548.917969 0)"/>
     <use xlink:href="#DejaVuSans-63" transform="translate(1612.296875 0)"/>
     <use xlink:href="#DejaVuSans-68" transform="translate(1667.277344 0)"/>
     <use xlink:href="#DejaVuSans-5d" transform="translate(1730.65625 0)"/>
    </g>
   </g>
   <g id="legend_1">
    <g id="patch_7">
     <path d="M 92.717969 365.802375 
L 380.313281 365.802375 
Q 382.313281 365.802375 382.313281 363.802375 
L 382.313281 335.446125 
Q 382.313281 333.446125 380.313281 333.446125 
L 92.717969 333.446125 
Q 90.717969 333.446125 90.717969 335.446125 
L 90.717969 363.802375 
Q 90.717969 365.802375 92.717969 365.802375 
z
" style="fill: #4d4d4d; opacity: 0.5; stroke: #4d4d4d; stroke-linejoin: miter"/>
    </g>
    <g id="patch_8">
     <path d="M 90.717969 363.802375 
L 378.313281 363.802375 
Q 380.313281 363.802375 380.313281 361.802375 
L 380.313281 333.446125 
Q 380.313281 331.446125 378.313281 331.446125 
L 90.717969 331.446125 
Q 88.717969 331.446125 88.717969 333.446125 
L 88.717969 361.802375 
Q 88.717969 363.802375 90.717969 363.802375 
z
" style="fill: #ffffff; stroke: #cccccc; stroke-linejoin: miter"/>
    </g>
    <g id="line2d_21">
     <path d="M 92.717969 339.544562 
L 102.717969 339.544562 
L 112.717969 339.544562 
" style="fill: none; stroke: #1f77b4; stroke-opacity: 0.8; stroke-width: 1.5; stroke-linecap: square"/>
    </g>
    <g id="text_19">
     <!-- MPTT -->
     <g transform="translate(120.717969 343.044562) scale(0.1 -0.1)">
      <defs>
       <path id="DejaVuSans-4d" d="M 628 4666 
L 1569 4666 
L 2759 1491 
L 3956 4666 
L 4897 4666 
L 4897 0 
L 4281 0 
L 4281 4097 
L 3078 897 
L 2444 897 
L 1241 4097 
L 1241 0 
L 628 0 
L 628 4666 
z
" transform="scale(0.015625)"/>
       <path id="DejaVuSans-50" d="M 1259 4147 
L 1259 2394 
L 2053 2394 
Q 2494 2394 2734 2622 
Q 2975 2850 2975 3272 
Q 2975 3691 2734 3919 
Q 2494 4147 2053 4147 
L 1259 4147 
z
M 628 4666 
L 2053 4666 
Q 2838 4666 3239 4311 
Q 3641 3956 3641 3272 
Q 3641 2581 3239 2228 
Q 2838 1875 2053 1875 
L 1259 1875 
L 1259 0 
L 628 0 
L 628 4666 
z
" transform="scale(0.015625)"/>
       <path id="DejaVuSans-54" d="M -19 4666 
L 3928 4666 
L 3928 4134 
L 2272 4134 
L 2272 0 
L 1638 0 
L 1638 4134 
L -19 4134 
L -19 4666 
z
" transform="scale(0.015625)"/>
      </defs>
      <use xlink:href="#DejaVuSans-4d"/>
      <use xlink:href="#DejaVuSans-50" transform="translate(86.279297 0)"/>
      <use xlink:href="#DejaVuSans-54" transform="translate(146.582031 0)"/>
      <use xlink:href="#DejaVuSans-54" transform="translate(205.916016 0)"/>
     </g>
    </g>
    <g id="line2d_22">
     <path d="M 92.717969 354.222687 
L 102.717969 354.222687 
L 112.717969 354.222687 
" style="fill: none; stroke: #ff7f0e; stroke-opacity: 0.8; stroke-width: 1.5; stroke-linecap: square"/>
    </g>
    <g id="text_20">
     <!-- tree -->
     <g transform="translate(120.717969 357.722687) scale(0.1 -0.1)">
      <use xlink:href="#DejaVuSans-74"/>
      <use xlink:href="#DejaVuSans-72" transform="translate(39.208984 0)"/>
      <use xlink:href="#DejaVuSans-65" transform="translate(78.072266 0)"/>
      <use xlink:href="#DejaVuSans-65" transform="translate(139.595703 0)"/>
     </g>
    </g>
    <g id="line2d_23">
     <path d="M 167.416406 339.544562 
L 177.416406 339.544562 
L 187.416406 339.544562 
" style="fill: none; stroke: #2ca02c; stroke-opacity: 0.8; stroke-width: 1.5; stroke-linecap: square"/>
    </g>
    <g id="text_21">
     <!-- treebeard AL -->
     <g transform="translate(195.416406 343.044562) scale(0.1 -0.1)">
      <defs>
       <path id="DejaVuSans-4c" d="M 628 4666 
L 1259 4666 
L 1259 531 
L 3531 531 
L 3531 0 
L 628 0 
L 628 4666 
z
" transform="scale(0.015625)"/>
      </defs>
      <use xlink:href="#DejaVuSans-74"/>
      <use xlink:href="#DejaVuSans-72" transform="translate(39.208984 0)"/>
      <use xlink:href="#DejaVuSans-65" transform="translate(78.072266 0)"/>
      <use xlink:href="#DejaVuSans-65" transform="translate(139.595703 0)"/>
      <use xlink:href="#DejaVuSans-62" transform="translate(201.119141 0)"/>
      <use xlink:href="#DejaVuSans-65" transform="translate(264.595703 0)"/>
      <use xlink:href="#DejaVuSans-61" transform="translate(326.119141 0)"/>
      <use xlink:href="#DejaVuSans-72" transform="translate(387.398438 0)"/>
      <use xlink:href="#DejaVuSans-64" transform="translate(426.761719 0)"/>
      <use xlink:href="#DejaVuSans-20" transform="translate(490.238281 0)"/>
      <use xlink:href="#DejaVuSans-41" transform="translate(522.025391 0)"/>
      <use xlink:href="#DejaVuSans-4c" transform="translate(590.433594 0)"/>
     </g>
    </g>
    <g id="line2d_24">
     <path d="M 167.416406 354.222687 
L 177.416406 354.222687 
L 187.416406 354.222687 
" style="fill: none; stroke: #d62728; stroke-opacity: 0.8; stroke-width: 1.5; stroke-linecap: square"/>
    </g>
    <g id="text_22">
     <!-- treebeard MP -->
     <g transform="translate(195.416406 357.722687) scale(0.1 -0.1)">
      <use xlink:href="#DejaVuSans-74"/>
      <use xlink:href="#DejaVuSans-72" transform="translate(39.208984 0)"/>
      <use xlink:href="#DejaVuSans-65" transform="translate(78.072266 0)"/>
      <use xlink:href="#DejaVuSans-65" transform="translate(139.595703 0)"/>
      <use xlink:href="#DejaVuSans-62" transform="translate(201.119141 0)"/>
      <use xlink:href="#DejaVuSans-65" transform="translate(264.595703 0)"/>
      <use xlink:href="#DejaVuSans-61" transform="translate(326.119141 0)"/>
      <use xlink:href="#DejaVuSans-72" transform="translate(387.398438 0)"/>
      <use xlink:href="#DejaVuSans-64" transform="translate(426.761719 0)"/>
      <use xlink:href="#DejaVuSans-20" transform="translate(490.238281 0)"/>
      <use xlink:href="#DejaVuSans-4d" transform="translate(522.025391 0)"/>
      <use xlink:href="#DejaVuSans-50" transform="translate(608.304688 0)"/>
     </g>
    </g>
    <g id="line2d_25">
     <path d="M 282.278906 339.544562 
L 292.278906 339.544562 
L 302.278906 339.544562 
" style="fill: none; stroke: #9467bd; stroke-opacity: 0.8; stroke-width: 1.5; stroke-linecap: square"/>
    </g>
    <g id="text_23">
     <!-- treebeard NS -->
     <g transform="translate(310.278906 343.044562) scale(0.1 -0.1)">
      <defs>
       <path id="DejaVuSans-4e" d="M 628 4666 
L 1478 4666 
L 3547 763 
L 3547 4666 
L 4159 4666 
L 4159 0 
L 3309 0 
L 1241 3903 
L 1241 0 
L 628 0 
L 628 4666 
z
" transform="scale(0.015625)"/>
       <path id="DejaVuSans-53" d="M 3425 4513 
L 3425 3897 
Q 3066 4069 2747 4153 
Q 2428 4238 2131 4238 
Q 1616 4238 1336 4038 
Q 1056 3838 1056 3469 
Q 1056 3159 1242 3001 
Q 1428 2844 1947 2747 
L 2328 2669 
Q 3034 2534 3370 2195 
Q 3706 1856 3706 1288 
Q 3706 609 3251 259 
Q 2797 -91 1919 -91 
Q 1588 -91 1214 -16 
Q 841 59 441 206 
L 441 856 
Q 825 641 1194 531 
Q 1563 422 1919 422 
Q 2459 422 2753 634 
Q 3047 847 3047 1241 
Q 3047 1584 2836 1778 
Q 2625 1972 2144 2069 
L 1759 2144 
Q 1053 2284 737 2584 
Q 422 2884 422 3419 
Q 422 4038 858 4394 
Q 1294 4750 2059 4750 
Q 2388 4750 2728 4690 
Q 3069 4631 3425 4513 
z
" transform="scale(0.015625)"/>
      </defs>
      <use xlink:href="#DejaVuSans-74"/>
      <use xlink:href="#DejaVuSans-72" transform="translate(39.208984 0)"/>
      <use xlink:href="#DejaVuSans-65" transform="translate(78.072266 0)"/>
      <use xlink:href="#DejaVuSans-65" transform="translate(139.595703 0)"/>
      <use xlink:href="#DejaVuSans-62" transform="translate(201.119141 0)"/>
      <use xlink:href="#DejaVuSans-65" transform="translate(264.595703 0)"/>
      <use xlink:href="#DejaVuSans-61" transform="translate(326.119141 0)"/>
      <use xlink:href="#DejaVuSans-72" transform="translate(387.398438 0)"/>
      <use xlink:href="#DejaVuSans-64" transform="translate(426.761719 0)"/>
      <use xlink:href="#DejaVuSans-20" transform="translate(490.238281 0)"/>
      <use xlink:href="#DejaVuSans-4e" transform="translate(522.025391 0)"/>
      <use xlink:href="#DejaVuSans-53" transform="translate(596.830078 0)"/>
     </g>
    </g>
   </g>
  </g>
 </g>
 <defs>
  <clipPath id="pbc01611fe9">
   <rect x="61.715625" y="22.318125" width="357.12" height="266.112"/>
  </clipPath>
 </defs>
</svg>
