<?xml version="1.0" encoding="utf-8" standalone="no"?>
<!DOCTYPE svg PUBLIC "-//W3C//DTD SVG 1.1//EN"
  "http://www.w3.org/Graphics/SVG/1.1/DTD/svg11.dtd">
<!-- Created with matplotlib (https://matplotlib.org/) -->
<svg height="371.002375pt" version="1.1" viewBox="0 0 423.05125 371.002375" width="423.05125pt" xmlns="http://www.w3.org/2000/svg" xmlns:xlink="http://www.w3.org/1999/xlink">
 <metadata>
  <rdf:RDF xmlns:cc="http://creativecommons.org/ns#" xmlns:dc="http://purl.org/dc/elements/1.1/" xmlns:rdf="http://www.w3.org/1999/02/22-rdf-syntax-ns#">
   <cc:Work>
    <dc:type rdf:resource="http://purl.org/dc/dcmitype/StillImage"/>
    <dc:date>2023-07-05T04:02:45.649130</dc:date>
    <dc:format>image/svg+xml</dc:format>
    <dc:creator>
     <cc:Agent>
      <dc:title>Matplotlib v3.3.4, https://matplotlib.org/</dc:title>
     </cc:Agent>
    </dc:creator>
   </cc:Work>
  </rdf:RDF>
 </metadata>
 <defs>
  <style type="text/css">*{stroke-linecap:butt;stroke-linejoin:round;}</style>
 </defs>
 <g id="figure_1">
  <g id="patch_1">
   <path d="M 0 371.002375 
L 423.05125 371.002375 
L 423.05125 0 
L 0 0 
z
" style="fill:#ffffff;"/>
  </g>
  <g id="axes_1">
   <g id="patch_2">
    <path d="M 58.73125 288.430125 
L 415.85125 288.430125 
L 415.85125 22.318125 
L 58.73125 22.318125 
z
" style="fill:#ffffff;"/>
   </g>
   <g id="matplotlib.axis_1">
    <g id="xtick_1">
     <g id="line2d_1">
      <defs>
       <path d="M 0 0 
L 0 3.5 
" id="m48fc4b4cb9" style="stroke:#000000;stroke-width:0.8;"/>
      </defs>
      <g>
       <use style="stroke:#000000;stroke-width:0.8;" x="58.73125" xlink:href="#m48fc4b4cb9" y="288.430125"/>
      </g>
     </g>
     <g id="text_1">
      <!-- 0 -->
      <g transform="translate(55.55 303.028562)scale(0.1 -0.1)">
       <defs>
        <path d="M 31.78125 66.40625 
Q 24.171875 66.40625 20.328125 58.90625 
Q 16.5 51.421875 16.5 36.375 
Q 16.5 21.390625 20.328125 13.890625 
Q 24.171875 6.390625 31.78125 6.390625 
Q 39.453125 6.390625 43.28125 13.890625 
Q 47.125 21.390625 47.125 36.375 
Q 47.125 51.421875 43.28125 58.90625 
Q 39.453125 66.40625 31.78125 66.40625 
z
M 31.78125 74.21875 
Q 44.046875 74.21875 50.515625 64.515625 
Q 56.984375 54.828125 56.984375 36.375 
Q 56.984375 17.96875 50.515625 8.265625 
Q 44.046875 -1.421875 31.78125 -1.421875 
Q 19.53125 -1.421875 13.0625 8.265625 
Q 6.59375 17.96875 6.59375 36.375 
Q 6.59375 54.828125 13.0625 64.515625 
Q 19.53125 74.21875 31.78125 74.21875 
z
" id="DejaVuSans-48"/>
       </defs>
       <use xlink:href="#DejaVuSans-48"/>
      </g>
     </g>
    </g>
    <g id="xtick_2">
     <g id="line2d_2">
      <g>
       <use style="stroke:#000000;stroke-width:0.8;" x="102.279814" xlink:href="#m48fc4b4cb9" y="288.430125"/>
      </g>
     </g>
     <g id="text_2">
      <!-- 500  -->
      <g transform="translate(91.147002 303.028562)scale(0.1 -0.1)">
       <defs>
        <path d="M 10.796875 72.90625 
L 49.515625 72.90625 
L 49.515625 64.59375 
L 19.828125 64.59375 
L 19.828125 46.734375 
Q 21.96875 47.46875 24.109375 47.828125 
Q 26.265625 48.1875 28.421875 48.1875 
Q 40.625 48.1875 47.75 41.5 
Q 54.890625 34.8125 54.890625 23.390625 
Q 54.890625 11.625 47.5625 5.09375 
Q 40.234375 -1.421875 26.90625 -1.421875 
Q 22.3125 -1.421875 17.546875 -0.640625 
Q 12.796875 0.140625 7.71875 1.703125 
L 7.71875 11.625 
Q 12.109375 9.234375 16.796875 8.0625 
Q 21.484375 6.890625 26.703125 6.890625 
Q 35.15625 6.890625 40.078125 11.328125 
Q 45.015625 15.765625 45.015625 23.390625 
Q 45.015625 31 40.078125 35.4375 
Q 35.15625 39.890625 26.703125 39.890625 
Q 22.75 39.890625 18.8125 39.015625 
Q 14.890625 38.140625 10.796875 36.28125 
z
" id="DejaVuSans-53"/>
        <path id="DejaVuSans-32"/>
       </defs>
       <use xlink:href="#DejaVuSans-53"/>
       <use x="63.623047" xlink:href="#DejaVuSans-48"/>
       <use x="127.246094" xlink:href="#DejaVuSans-48"/>
       <use x="190.869141" xlink:href="#DejaVuSans-32"/>
      </g>
     </g>
    </g>
    <g id="xtick_3">
     <g id="line2d_3">
      <g>
       <use style="stroke:#000000;stroke-width:0.8;" x="145.828378" xlink:href="#m48fc4b4cb9" y="288.430125"/>
      </g>
     </g>
     <g id="text_3">
      <!-- 1 k -->
      <g transform="translate(138.162753 303.028562)scale(0.1 -0.1)">
       <defs>
        <path d="M 12.40625 8.296875 
L 28.515625 8.296875 
L 28.515625 63.921875 
L 10.984375 60.40625 
L 10.984375 69.390625 
L 28.421875 72.90625 
L 38.28125 72.90625 
L 38.28125 8.296875 
L 54.390625 8.296875 
L 54.390625 0 
L 12.40625 0 
z
" id="DejaVuSans-49"/>
        <path d="M 9.078125 75.984375 
L 18.109375 75.984375 
L 18.109375 31.109375 
L 44.921875 54.6875 
L 56.390625 54.6875 
L 27.390625 29.109375 
L 57.625 0 
L 45.90625 0 
L 18.109375 26.703125 
L 18.109375 0 
L 9.078125 0 
z
" id="DejaVuSans-107"/>
       </defs>
       <use xlink:href="#DejaVuSans-49"/>
       <use x="63.623047" xlink:href="#DejaVuSans-32"/>
       <use x="95.410156" xlink:href="#DejaVuSans-107"/>
      </g>
     </g>
    </g>
    <g id="xtick_4">
     <g id="line2d_4">
      <g>
       <use style="stroke:#000000;stroke-width:0.8;" x="189.376942" xlink:href="#m48fc4b4cb9" y="288.430125"/>
      </g>
     </g>
     <g id="text_4">
      <!-- 1.5 k -->
      <g transform="translate(176.941005 303.028562)scale(0.1 -0.1)">
       <defs>
        <path d="M 10.6875 12.40625 
L 21 12.40625 
L 21 0 
L 10.6875 0 
z
" id="DejaVuSans-46"/>
       </defs>
       <use xlink:href="#DejaVuSans-49"/>
       <use x="63.623047" xlink:href="#DejaVuSans-46"/>
       <use x="95.410156" xlink:href="#DejaVuSans-53"/>
       <use x="159.033203" xlink:href="#DejaVuSans-32"/>
       <use x="190.820312" xlink:href="#DejaVuSans-107"/>
      </g>
     </g>
    </g>
    <g id="xtick_5">
     <g id="line2d_5">
      <g>
       <use style="stroke:#000000;stroke-width:0.8;" x="232.925506" xlink:href="#m48fc4b4cb9" y="288.430125"/>
      </g>
     </g>
     <g id="text_5">
      <!-- 2 k -->
      <g transform="translate(225.259881 303.028562)scale(0.1 -0.1)">
       <defs>
        <path d="M 19.1875 8.296875 
L 53.609375 8.296875 
L 53.609375 0 
L 7.328125 0 
L 7.328125 8.296875 
Q 12.9375 14.109375 22.625 23.890625 
Q 32.328125 33.6875 34.8125 36.53125 
Q 39.546875 41.84375 41.421875 45.53125 
Q 43.3125 49.21875 43.3125 52.78125 
Q 43.3125 58.59375 39.234375 62.25 
Q 35.15625 65.921875 28.609375 65.921875 
Q 23.96875 65.921875 18.8125 64.3125 
Q 13.671875 62.703125 7.8125 59.421875 
L 7.8125 69.390625 
Q 13.765625 71.78125 18.9375 73 
Q 24.125 74.21875 28.421875 74.21875 
Q 39.75 74.21875 46.484375 68.546875 
Q 53.21875 62.890625 53.21875 53.421875 
Q 53.21875 48.921875 51.53125 44.890625 
Q 49.859375 40.875 45.40625 35.40625 
Q 44.1875 33.984375 37.640625 27.21875 
Q 31.109375 20.453125 19.1875 8.296875 
z
" id="DejaVuSans-50"/>
       </defs>
       <use xlink:href="#DejaVuSans-50"/>
       <use x="63.623047" xlink:href="#DejaVuSans-32"/>
       <use x="95.410156" xlink:href="#DejaVuSans-107"/>
      </g>
     </g>
    </g>
    <g id="xtick_6">
     <g id="line2d_6">
      <g>
       <use style="stroke:#000000;stroke-width:0.8;" x="276.474071" xlink:href="#m48fc4b4cb9" y="288.430125"/>
      </g>
     </g>
     <g id="text_6">
      <!-- 2.5 k -->
      <g transform="translate(264.038133 303.028562)scale(0.1 -0.1)">
       <use xlink:href="#DejaVuSans-50"/>
       <use x="63.623047" xlink:href="#DejaVuSans-46"/>
       <use x="95.410156" xlink:href="#DejaVuSans-53"/>
       <use x="159.033203" xlink:href="#DejaVuSans-32"/>
       <use x="190.820312" xlink:href="#DejaVuSans-107"/>
      </g>
     </g>
    </g>
    <g id="xtick_7">
     <g id="line2d_7">
      <g>
       <use style="stroke:#000000;stroke-width:0.8;" x="320.022635" xlink:href="#m48fc4b4cb9" y="288.430125"/>
      </g>
     </g>
     <g id="text_7">
      <!-- 3 k -->
      <g transform="translate(312.35701 303.028562)scale(0.1 -0.1)">
       <defs>
        <path d="M 40.578125 39.3125 
Q 47.65625 37.796875 51.625 33 
Q 55.609375 28.21875 55.609375 21.1875 
Q 55.609375 10.40625 48.1875 4.484375 
Q 40.765625 -1.421875 27.09375 -1.421875 
Q 22.515625 -1.421875 17.65625 -0.515625 
Q 12.796875 0.390625 7.625 2.203125 
L 7.625 11.71875 
Q 11.71875 9.328125 16.59375 8.109375 
Q 21.484375 6.890625 26.8125 6.890625 
Q 36.078125 6.890625 40.9375 10.546875 
Q 45.796875 14.203125 45.796875 21.1875 
Q 45.796875 27.640625 41.28125 31.265625 
Q 36.765625 34.90625 28.71875 34.90625 
L 20.21875 34.90625 
L 20.21875 43.015625 
L 29.109375 43.015625 
Q 36.375 43.015625 40.234375 45.921875 
Q 44.09375 48.828125 44.09375 54.296875 
Q 44.09375 59.90625 40.109375 62.90625 
Q 36.140625 65.921875 28.71875 65.921875 
Q 24.65625 65.921875 20.015625 65.03125 
Q 15.375 64.15625 9.8125 62.3125 
L 9.8125 71.09375 
Q 15.4375 72.65625 20.34375 73.4375 
Q 25.25 74.21875 29.59375 74.21875 
Q 40.828125 74.21875 47.359375 69.109375 
Q 53.90625 64.015625 53.90625 55.328125 
Q 53.90625 49.265625 50.4375 45.09375 
Q 46.96875 40.921875 40.578125 39.3125 
z
" id="DejaVuSans-51"/>
       </defs>
       <use xlink:href="#DejaVuSans-51"/>
       <use x="63.623047" xlink:href="#DejaVuSans-32"/>
       <use x="95.410156" xlink:href="#DejaVuSans-107"/>
      </g>
     </g>
    </g>
    <g id="xtick_8">
     <g id="line2d_8">
      <g>
       <use style="stroke:#000000;stroke-width:0.8;" x="363.571199" xlink:href="#m48fc4b4cb9" y="288.430125"/>
      </g>
     </g>
     <g id="text_8">
      <!-- 3.5 k -->
      <g transform="translate(351.135261 303.028562)scale(0.1 -0.1)">
       <use xlink:href="#DejaVuSans-51"/>
       <use x="63.623047" xlink:href="#DejaVuSans-46"/>
       <use x="95.410156" xlink:href="#DejaVuSans-53"/>
       <use x="159.033203" xlink:href="#DejaVuSans-32"/>
       <use x="190.820312" xlink:href="#DejaVuSans-107"/>
      </g>
     </g>
    </g>
    <g id="xtick_9">
     <g id="line2d_9">
      <g>
       <use style="stroke:#000000;stroke-width:0.8;" x="407.119763" xlink:href="#m48fc4b4cb9" y="288.430125"/>
      </g>
     </g>
     <g id="text_9">
      <!-- 4 k -->
      <g transform="translate(399.454138 303.028562)scale(0.1 -0.1)">
       <defs>
        <path d="M 37.796875 64.3125 
L 12.890625 25.390625 
L 37.796875 25.390625 
z
M 35.203125 72.90625 
L 47.609375 72.90625 
L 47.609375 25.390625 
L 58.015625 25.390625 
L 58.015625 17.1875 
L 47.609375 17.1875 
L 47.609375 0 
L 37.796875 0 
L 37.796875 17.1875 
L 4.890625 17.1875 
L 4.890625 26.703125 
z
" id="DejaVuSans-52"/>
       </defs>
       <use xlink:href="#DejaVuSans-52"/>
       <use x="63.623047" xlink:href="#DejaVuSans-32"/>
       <use x="95.410156" xlink:href="#DejaVuSans-107"/>
      </g>
     </g>
    </g>
    <g id="text_10">
     <!-- Amount of objects in table -->
     <g transform="translate(171.232656 316.706687)scale(0.1 -0.1)">
      <defs>
       <path d="M 34.1875 63.1875 
L 20.796875 26.90625 
L 47.609375 26.90625 
z
M 28.609375 72.90625 
L 39.796875 72.90625 
L 67.578125 0 
L 57.328125 0 
L 50.6875 18.703125 
L 17.828125 18.703125 
L 11.1875 0 
L 0.78125 0 
z
" id="DejaVuSans-65"/>
       <path d="M 52 44.1875 
Q 55.375 50.25 60.0625 53.125 
Q 64.75 56 71.09375 56 
Q 79.640625 56 84.28125 50.015625 
Q 88.921875 44.046875 88.921875 33.015625 
L 88.921875 0 
L 79.890625 0 
L 79.890625 32.71875 
Q 79.890625 40.578125 77.09375 44.375 
Q 74.3125 48.1875 68.609375 48.1875 
Q 61.625 48.1875 57.5625 43.546875 
Q 53.515625 38.921875 53.515625 30.90625 
L 53.515625 0 
L 44.484375 0 
L 44.484375 32.71875 
Q 44.484375 40.625 41.703125 44.40625 
Q 38.921875 48.1875 33.109375 48.1875 
Q 26.21875 48.1875 22.15625 43.53125 
Q 18.109375 38.875 18.109375 30.90625 
L 18.109375 0 
L 9.078125 0 
L 9.078125 54.6875 
L 18.109375 54.6875 
L 18.109375 46.1875 
Q 21.1875 51.21875 25.484375 53.609375 
Q 29.78125 56 35.6875 56 
Q 41.65625 56 45.828125 52.96875 
Q 50 49.953125 52 44.1875 
z
" id="DejaVuSans-109"/>
       <path d="M 30.609375 48.390625 
Q 23.390625 48.390625 19.1875 42.75 
Q 14.984375 37.109375 14.984375 27.296875 
Q 14.984375 17.484375 19.15625 11.84375 
Q 23.34375 6.203125 30.609375 6.203125 
Q 37.796875 6.203125 41.984375 11.859375 
Q 46.1875 17.53125 46.1875 27.296875 
Q 46.1875 37.015625 41.984375 42.703125 
Q 37.796875 48.390625 30.609375 48.390625 
z
M 30.609375 56 
Q 42.328125 56 49.015625 48.375 
Q 55.71875 40.765625 55.71875 27.296875 
Q 55.71875 13.875 49.015625 6.21875 
Q 42.328125 -1.421875 30.609375 -1.421875 
Q 18.84375 -1.421875 12.171875 6.21875 
Q 5.515625 13.875 5.515625 27.296875 
Q 5.515625 40.765625 12.171875 48.375 
Q 18.84375 56 30.609375 56 
z
" id="DejaVuSans-111"/>
       <path d="M 8.5 21.578125 
L 8.5 54.6875 
L 17.484375 54.6875 
L 17.484375 21.921875 
Q 17.484375 14.15625 20.5 10.265625 
Q 23.53125 6.390625 29.59375 6.390625 
Q 36.859375 6.390625 41.078125 11.03125 
Q 45.3125 15.671875 45.3125 23.6875 
L 45.3125 54.6875 
L 54.296875 54.6875 
L 54.296875 0 
L 45.3125 0 
L 45.3125 8.40625 
Q 42.046875 3.421875 37.71875 1 
Q 33.40625 -1.421875 27.6875 -1.421875 
Q 18.265625 -1.421875 13.375 4.4375 
Q 8.5 10.296875 8.5 21.578125 
z
M 31.109375 56 
z
" id="DejaVuSans-117"/>
       <path d="M 54.890625 33.015625 
L 54.890625 0 
L 45.90625 0 
L 45.90625 32.71875 
Q 45.90625 40.484375 42.875 44.328125 
Q 39.84375 48.1875 33.796875 48.1875 
Q 26.515625 48.1875 22.3125 43.546875 
Q 18.109375 38.921875 18.109375 30.90625 
L 18.109375 0 
L 9.078125 0 
L 9.078125 54.6875 
L 18.109375 54.6875 
L 18.109375 46.1875 
Q 21.34375 51.125 25.703125 53.5625 
Q 30.078125 56 35.796875 56 
Q 45.21875 56 50.046875 50.171875 
Q 54.890625 44.34375 54.890625 33.015625 
z
" id="DejaVuSans-110"/>
       <path d="M 18.3125 70.21875 
L 18.3125 54.6875 
L 36.8125 54.6875 
L 36.8125 47.703125 
L 18.3125 47.703125 
L 18.3125 18.015625 
Q 18.3125 11.328125 20.140625 9.421875 
Q 21.96875 7.515625 27.59375 7.515625 
L 36.8125 7.515625 
L 36.8125 0 
L 27.59375 0 
Q 17.1875 0 13.234375 3.875 
Q 9.28125 7.765625 9.28125 18.015625 
L 9.28125 47.703125 
L 2.6875 47.703125 
L 2.6875 54.6875 
L 9.28125 54.6875 
L 9.28125 70.21875 
z
" id="DejaVuSans-116"/>
       <path d="M 37.109375 75.984375 
L 37.109375 68.5 
L 28.515625 68.5 
Q 23.6875 68.5 21.796875 66.546875 
Q 19.921875 64.59375 19.921875 59.515625 
L 19.921875 54.6875 
L 34.71875 54.6875 
L 34.71875 47.703125 
L 19.921875 47.703125 
L 19.921875 0 
L 10.890625 0 
L 10.890625 47.703125 
L 2.296875 47.703125 
L 2.296875 54.6875 
L 10.890625 54.6875 
L 10.890625 58.5 
Q 10.890625 67.625 15.140625 71.796875 
Q 19.390625 75.984375 28.609375 75.984375 
z
" id="DejaVuSans-102"/>
       <path d="M 48.6875 27.296875 
Q 48.6875 37.203125 44.609375 42.84375 
Q 40.53125 48.484375 33.40625 48.484375 
Q 26.265625 48.484375 22.1875 42.84375 
Q 18.109375 37.203125 18.109375 27.296875 
Q 18.109375 17.390625 22.1875 11.75 
Q 26.265625 6.109375 33.40625 6.109375 
Q 40.53125 6.109375 44.609375 11.75 
Q 48.6875 17.390625 48.6875 27.296875 
z
M 18.109375 46.390625 
Q 20.953125 51.265625 25.265625 53.625 
Q 29.59375 56 35.59375 56 
Q 45.5625 56 51.78125 48.09375 
Q 58.015625 40.1875 58.015625 27.296875 
Q 58.015625 14.40625 51.78125 6.484375 
Q 45.5625 -1.421875 35.59375 -1.421875 
Q 29.59375 -1.421875 25.265625 0.953125 
Q 20.953125 3.328125 18.109375 8.203125 
L 18.109375 0 
L 9.078125 0 
L 9.078125 75.984375 
L 18.109375 75.984375 
z
" id="DejaVuSans-98"/>
       <path d="M 9.421875 54.6875 
L 18.40625 54.6875 
L 18.40625 -0.984375 
Q 18.40625 -11.421875 14.421875 -16.109375 
Q 10.453125 -20.796875 1.609375 -20.796875 
L -1.8125 -20.796875 
L -1.8125 -13.1875 
L 0.59375 -13.1875 
Q 5.71875 -13.1875 7.5625 -10.8125 
Q 9.421875 -8.453125 9.421875 -0.984375 
z
M 9.421875 75.984375 
L 18.40625 75.984375 
L 18.40625 64.59375 
L 9.421875 64.59375 
z
" id="DejaVuSans-106"/>
       <path d="M 56.203125 29.59375 
L 56.203125 25.203125 
L 14.890625 25.203125 
Q 15.484375 15.921875 20.484375 11.0625 
Q 25.484375 6.203125 34.421875 6.203125 
Q 39.59375 6.203125 44.453125 7.46875 
Q 49.3125 8.734375 54.109375 11.28125 
L 54.109375 2.78125 
Q 49.265625 0.734375 44.1875 -0.34375 
Q 39.109375 -1.421875 33.890625 -1.421875 
Q 20.796875 -1.421875 13.15625 6.1875 
Q 5.515625 13.8125 5.515625 26.8125 
Q 5.515625 40.234375 12.765625 48.109375 
Q 20.015625 56 32.328125 56 
Q 43.359375 56 49.78125 48.890625 
Q 56.203125 41.796875 56.203125 29.59375 
z
M 47.21875 32.234375 
Q 47.125 39.59375 43.09375 43.984375 
Q 39.0625 48.390625 32.421875 48.390625 
Q 24.90625 48.390625 20.390625 44.140625 
Q 15.875 39.890625 15.1875 32.171875 
z
" id="DejaVuSans-101"/>
       <path d="M 48.78125 52.59375 
L 48.78125 44.1875 
Q 44.96875 46.296875 41.140625 47.34375 
Q 37.3125 48.390625 33.40625 48.390625 
Q 24.65625 48.390625 19.8125 42.84375 
Q 14.984375 37.3125 14.984375 27.296875 
Q 14.984375 17.28125 19.8125 11.734375 
Q 24.65625 6.203125 33.40625 6.203125 
Q 37.3125 6.203125 41.140625 7.25 
Q 44.96875 8.296875 48.78125 10.40625 
L 48.78125 2.09375 
Q 45.015625 0.34375 40.984375 -0.53125 
Q 36.96875 -1.421875 32.421875 -1.421875 
Q 20.0625 -1.421875 12.78125 6.34375 
Q 5.515625 14.109375 5.515625 27.296875 
Q 5.515625 40.671875 12.859375 48.328125 
Q 20.21875 56 33.015625 56 
Q 37.15625 56 41.109375 55.140625 
Q 45.0625 54.296875 48.78125 52.59375 
z
" id="DejaVuSans-99"/>
       <path d="M 44.28125 53.078125 
L 44.28125 44.578125 
Q 40.484375 46.53125 36.375 47.5 
Q 32.28125 48.484375 27.875 48.484375 
Q 21.1875 48.484375 17.84375 46.4375 
Q 14.5 44.390625 14.5 40.28125 
Q 14.5 37.15625 16.890625 35.375 
Q 19.28125 33.59375 26.515625 31.984375 
L 29.59375 31.296875 
Q 39.15625 29.25 43.1875 25.515625 
Q 47.21875 21.78125 47.21875 15.09375 
Q 47.21875 7.46875 41.1875 3.015625 
Q 35.15625 -1.421875 24.609375 -1.421875 
Q 20.21875 -1.421875 15.453125 -0.5625 
Q 10.6875 0.296875 5.421875 2 
L 5.421875 11.28125 
Q 10.40625 8.6875 15.234375 7.390625 
Q 20.0625 6.109375 24.8125 6.109375 
Q 31.15625 6.109375 34.5625 8.28125 
Q 37.984375 10.453125 37.984375 14.40625 
Q 37.984375 18.0625 35.515625 20.015625 
Q 33.0625 21.96875 24.703125 23.78125 
L 21.578125 24.515625 
Q 13.234375 26.265625 9.515625 29.90625 
Q 5.8125 33.546875 5.8125 39.890625 
Q 5.8125 47.609375 11.28125 51.796875 
Q 16.75 56 26.8125 56 
Q 31.78125 56 36.171875 55.265625 
Q 40.578125 54.546875 44.28125 53.078125 
z
" id="DejaVuSans-115"/>
       <path d="M 9.421875 54.6875 
L 18.40625 54.6875 
L 18.40625 0 
L 9.421875 0 
z
M 9.421875 75.984375 
L 18.40625 75.984375 
L 18.40625 64.59375 
L 9.421875 64.59375 
z
" id="DejaVuSans-105"/>
       <path d="M 34.28125 27.484375 
Q 23.390625 27.484375 19.1875 25 
Q 14.984375 22.515625 14.984375 16.5 
Q 14.984375 11.71875 18.140625 8.90625 
Q 21.296875 6.109375 26.703125 6.109375 
Q 34.1875 6.109375 38.703125 11.40625 
Q 43.21875 16.703125 43.21875 25.484375 
L 43.21875 27.484375 
z
M 52.203125 31.203125 
L 52.203125 0 
L 43.21875 0 
L 43.21875 8.296875 
Q 40.140625 3.328125 35.546875 0.953125 
Q 30.953125 -1.421875 24.3125 -1.421875 
Q 15.921875 -1.421875 10.953125 3.296875 
Q 6 8.015625 6 15.921875 
Q 6 25.140625 12.171875 29.828125 
Q 18.359375 34.515625 30.609375 34.515625 
L 43.21875 34.515625 
L 43.21875 35.40625 
Q 43.21875 41.609375 39.140625 45 
Q 35.0625 48.390625 27.6875 48.390625 
Q 23 48.390625 18.546875 47.265625 
Q 14.109375 46.140625 10.015625 43.890625 
L 10.015625 52.203125 
Q 14.9375 54.109375 19.578125 55.046875 
Q 24.21875 56 28.609375 56 
Q 40.484375 56 46.34375 49.84375 
Q 52.203125 43.703125 52.203125 31.203125 
z
" id="DejaVuSans-97"/>
       <path d="M 9.421875 75.984375 
L 18.40625 75.984375 
L 18.40625 0 
L 9.421875 0 
z
" id="DejaVuSans-108"/>
      </defs>
      <use xlink:href="#DejaVuSans-65"/>
      <use x="68.408203" xlink:href="#DejaVuSans-109"/>
      <use x="165.820312" xlink:href="#DejaVuSans-111"/>
      <use x="227.001953" xlink:href="#DejaVuSans-117"/>
      <use x="290.380859" xlink:href="#DejaVuSans-110"/>
      <use x="353.759766" xlink:href="#DejaVuSans-116"/>
      <use x="392.96875" xlink:href="#DejaVuSans-32"/>
      <use x="424.755859" xlink:href="#DejaVuSans-111"/>
      <use x="485.9375" xlink:href="#DejaVuSans-102"/>
      <use x="521.142578" xlink:href="#DejaVuSans-32"/>
      <use x="552.929688" xlink:href="#DejaVuSans-111"/>
      <use x="614.111328" xlink:href="#DejaVuSans-98"/>
      <use x="677.587891" xlink:href="#DejaVuSans-106"/>
      <use x="705.371094" xlink:href="#DejaVuSans-101"/>
      <use x="766.894531" xlink:href="#DejaVuSans-99"/>
      <use x="821.875" xlink:href="#DejaVuSans-116"/>
      <use x="861.083984" xlink:href="#DejaVuSans-115"/>
      <use x="913.183594" xlink:href="#DejaVuSans-32"/>
      <use x="944.970703" xlink:href="#DejaVuSans-105"/>
      <use x="972.753906" xlink:href="#DejaVuSans-110"/>
      <use x="1036.132812" xlink:href="#DejaVuSans-32"/>
      <use x="1067.919922" xlink:href="#DejaVuSans-116"/>
      <use x="1107.128906" xlink:href="#DejaVuSans-97"/>
      <use x="1168.408203" xlink:href="#DejaVuSans-98"/>
      <use x="1231.884766" xlink:href="#DejaVuSans-108"/>
      <use x="1259.667969" xlink:href="#DejaVuSans-101"/>
     </g>
    </g>
   </g>
   <g id="matplotlib.axis_2">
    <g id="ytick_1">
     <g id="line2d_10">
      <defs>
       <path d="M 0 0 
L -3.5 0 
" id="mbae16bb043" style="stroke:#000000;stroke-width:0.8;"/>
      </defs>
      <g>
       <use style="stroke:#000000;stroke-width:0.8;" x="58.73125" xlink:href="#mbae16bb043" y="288.430125"/>
      </g>
     </g>
     <g id="text_11">
      <!-- 0 -->
      <g transform="translate(45.36875 292.229344)scale(0.1 -0.1)">
       <use xlink:href="#DejaVuSans-48"/>
      </g>
     </g>
    </g>
    <g id="ytick_2">
     <g id="line2d_11">
      <g>
       <use style="stroke:#000000;stroke-width:0.8;" x="58.73125" xlink:href="#mbae16bb043" y="246.621776"/>
      </g>
     </g>
     <g id="text_12">
      <!-- 5 ms -->
      <g transform="translate(27.240625 250.420995)scale(0.1 -0.1)">
       <use xlink:href="#DejaVuSans-53"/>
       <use x="63.623047" xlink:href="#DejaVuSans-32"/>
       <use x="95.410156" xlink:href="#DejaVuSans-109"/>
       <use x="192.822266" xlink:href="#DejaVuSans-115"/>
      </g>
     </g>
    </g>
    <g id="ytick_3">
     <g id="line2d_12">
      <g>
       <use style="stroke:#000000;stroke-width:0.8;" x="58.73125" xlink:href="#mbae16bb043" y="204.813428"/>
      </g>
     </g>
     <g id="text_13">
      <!-- 10 ms -->
      <g transform="translate(20.878125 208.612647)scale(0.1 -0.1)">
       <use xlink:href="#DejaVuSans-49"/>
       <use x="63.623047" xlink:href="#DejaVuSans-48"/>
       <use x="127.246094" xlink:href="#DejaVuSans-32"/>
       <use x="159.033203" xlink:href="#DejaVuSans-109"/>
       <use x="256.445312" xlink:href="#DejaVuSans-115"/>
      </g>
     </g>
    </g>
    <g id="ytick_4">
     <g id="line2d_13">
      <g>
       <use style="stroke:#000000;stroke-width:0.8;" x="58.73125" xlink:href="#mbae16bb043" y="163.005079"/>
      </g>
     </g>
     <g id="text_14">
      <!-- 15 ms -->
      <g transform="translate(20.878125 166.804298)scale(0.1 -0.1)">
       <use xlink:href="#DejaVuSans-49"/>
       <use x="63.623047" xlink:href="#DejaVuSans-53"/>
       <use x="127.246094" xlink:href="#DejaVuSans-32"/>
       <use x="159.033203" xlink:href="#DejaVuSans-109"/>
       <use x="256.445312" xlink:href="#DejaVuSans-115"/>
      </g>
     </g>
    </g>
    <g id="ytick_5">
     <g id="line2d_14">
      <g>
       <use style="stroke:#000000;stroke-width:0.8;" x="58.73125" xlink:href="#mbae16bb043" y="121.196731"/>
      </g>
     </g>
     <g id="text_15">
      <!-- 20 ms -->
      <g transform="translate(20.878125 124.995949)scale(0.1 -0.1)">
       <use xlink:href="#DejaVuSans-50"/>
       <use x="63.623047" xlink:href="#DejaVuSans-48"/>
       <use x="127.246094" xlink:href="#DejaVuSans-32"/>
       <use x="159.033203" xlink:href="#DejaVuSans-109"/>
       <use x="256.445312" xlink:href="#DejaVuSans-115"/>
      </g>
     </g>
    </g>
    <g id="ytick_6">
     <g id="line2d_15">
      <g>
       <use style="stroke:#000000;stroke-width:0.8;" x="58.73125" xlink:href="#mbae16bb043" y="79.388382"/>
      </g>
     </g>
     <g id="text_16">
      <!-- 25 ms -->
      <g transform="translate(20.878125 83.187601)scale(0.1 -0.1)">
       <use xlink:href="#DejaVuSans-50"/>
       <use x="63.623047" xlink:href="#DejaVuSans-53"/>
       <use x="127.246094" xlink:href="#DejaVuSans-32"/>
       <use x="159.033203" xlink:href="#DejaVuSans-109"/>
       <use x="256.445312" xlink:href="#DejaVuSans-115"/>
      </g>
     </g>
    </g>
    <g id="ytick_7">
     <g id="line2d_16">
      <g>
       <use style="stroke:#000000;stroke-width:0.8;" x="58.73125" xlink:href="#mbae16bb043" y="37.580034"/>
      </g>
     </g>
     <g id="text_17">
      <!-- 30 ms -->
      <g transform="translate(20.878125 41.379252)scale(0.1 -0.1)">
       <use xlink:href="#DejaVuSans-51"/>
       <use x="63.623047" xlink:href="#DejaVuSans-48"/>
       <use x="127.246094" xlink:href="#DejaVuSans-32"/>
       <use x="159.033203" xlink:href="#DejaVuSans-109"/>
       <use x="256.445312" xlink:href="#DejaVuSans-115"/>
      </g>
     </g>
    </g>
    <g id="text_18">
     <!-- Write latency (s) -->
     <g transform="translate(14.798437 196.625687)rotate(-90)scale(0.1 -0.1)">
      <defs>
       <path d="M 3.328125 72.90625 
L 13.28125 72.90625 
L 28.609375 11.28125 
L 43.890625 72.90625 
L 54.984375 72.90625 
L 70.3125 11.28125 
L 85.59375 72.90625 
L 95.609375 72.90625 
L 77.296875 0 
L 64.890625 0 
L 49.515625 63.28125 
L 33.984375 0 
L 21.578125 0 
z
" id="DejaVuSans-87"/>
       <path d="M 41.109375 46.296875 
Q 39.59375 47.171875 37.8125 47.578125 
Q 36.03125 48 33.890625 48 
Q 26.265625 48 22.1875 43.046875 
Q 18.109375 38.09375 18.109375 28.8125 
L 18.109375 0 
L 9.078125 0 
L 9.078125 54.6875 
L 18.109375 54.6875 
L 18.109375 46.1875 
Q 20.953125 51.171875 25.484375 53.578125 
Q 30.03125 56 36.53125 56 
Q 37.453125 56 38.578125 55.875 
Q 39.703125 55.765625 41.0625 55.515625 
z
" id="DejaVuSans-114"/>
       <path d="M 32.171875 -5.078125 
Q 28.375 -14.84375 24.75 -17.8125 
Q 21.140625 -20.796875 15.09375 -20.796875 
L 7.90625 -20.796875 
L 7.90625 -13.28125 
L 13.1875 -13.28125 
Q 16.890625 -13.28125 18.9375 -11.515625 
Q 21 -9.765625 23.484375 -3.21875 
L 25.09375 0.875 
L 2.984375 54.6875 
L 12.5 54.6875 
L 29.59375 11.921875 
L 46.6875 54.6875 
L 56.203125 54.6875 
z
" id="DejaVuSans-121"/>
       <path d="M 31 75.875 
Q 24.46875 64.65625 21.28125 53.65625 
Q 18.109375 42.671875 18.109375 31.390625 
Q 18.109375 20.125 21.3125 9.0625 
Q 24.515625 -2 31 -13.1875 
L 23.1875 -13.1875 
Q 15.875 -1.703125 12.234375 9.375 
Q 8.59375 20.453125 8.59375 31.390625 
Q 8.59375 42.28125 12.203125 53.3125 
Q 15.828125 64.359375 23.1875 75.875 
z
" id="DejaVuSans-40"/>
       <path d="M 8.015625 75.875 
L 15.828125 75.875 
Q 23.140625 64.359375 26.78125 53.3125 
Q 30.421875 42.28125 30.421875 31.390625 
Q 30.421875 20.453125 26.78125 9.375 
Q 23.140625 -1.703125 15.828125 -13.1875 
L 8.015625 -13.1875 
Q 14.5 -2 17.703125 9.0625 
Q 20.90625 20.125 20.90625 31.390625 
Q 20.90625 42.671875 17.703125 53.65625 
Q 14.5 64.65625 8.015625 75.875 
z
" id="DejaVuSans-41"/>
      </defs>
      <use xlink:href="#DejaVuSans-87"/>
      <use x="94.376953" xlink:href="#DejaVuSans-114"/>
      <use x="135.490234" xlink:href="#DejaVuSans-105"/>
      <use x="163.273438" xlink:href="#DejaVuSans-116"/>
      <use x="202.482422" xlink:href="#DejaVuSans-101"/>
      <use x="264.005859" xlink:href="#DejaVuSans-32"/>
      <use x="295.792969" xlink:href="#DejaVuSans-108"/>
      <use x="323.576172" xlink:href="#DejaVuSans-97"/>
      <use x="384.855469" xlink:href="#DejaVuSans-116"/>
      <use x="424.064453" xlink:href="#DejaVuSans-101"/>
      <use x="485.587891" xlink:href="#DejaVuSans-110"/>
      <use x="548.966797" xlink:href="#DejaVuSans-99"/>
      <use x="603.947266" xlink:href="#DejaVuSans-121"/>
      <use x="663.126953" xlink:href="#DejaVuSans-32"/>
      <use x="694.914062" xlink:href="#DejaVuSans-40"/>
      <use x="733.927734" xlink:href="#DejaVuSans-115"/>
      <use x="786.027344" xlink:href="#DejaVuSans-41"/>
     </g>
    </g>
   </g>
   <g id="line2d_17">
    <path clip-path="url(#pe14fd9bbaa)" d="M 144.086436 130.688312 
L 144.957407 128.495254 
L 145.828378 125.70716 
L 148.441292 119.905665 
L 149.747749 117.118654 
L 150.183235 116.233066 
L 151.054206 113.791261 
L 151.489692 112.671351 
L 151.925177 111.159361 
L 153.66712 108.42451 
L 155.409062 105.232455 
L 155.844548 103.712971 
L 156.280034 102.778821 
L 156.715519 100.844397 
L 158.021976 97.901049 
L 158.892947 96.045437 
L 160.199404 92.431674 
L 161.070376 89.858048 
L 161.941347 89.065268 
L 162.812318 87.957473 
L 163.247804 87.395847 
L 166.296203 81.70404 
L 168.473632 77.10956 
L 169.780088 73.8775 
L 170.215574 72.576614 
L 171.522031 71.167012 
L 171.957517 70.486947 
L 172.393002 69.090103 
L 172.828488 68.647028 
L 173.699459 66.99287 
L 174.134945 66.410275 
L 175.005916 64.611567 
L 175.876887 62.789345 
L 176.312373 62.536274 
L 176.747859 61.803976 
L 177.183344 60.811563 
L 177.61883 60.218009 
L 178.489801 58.361733 
L 179.360773 58.014543 
L 180.231744 57.191431 
L 181.102715 56.115022 
L 181.538201 54.919366 
L 181.973686 54.526141 
L 182.409172 53.748094 
L 183.280143 52.806348 
L 183.715629 52.470067 
L 184.5866 51.272265 
L 185.022086 50.829711 
L 185.457572 49.633657 
L 186.328543 48.159626 
L 186.764028 48.303204 
L 187.635 48.107987 
L 188.070485 48.138433 
L 188.505971 47.695306 
L 189.376942 47.439903 
L 189.812428 47.005661 
L 190.247914 45.798852 
L 190.683399 45.25118 
L 191.118885 44.273878 
L 191.554371 43.812952 
L 191.989856 43.870429 
L 192.425342 43.321397 
L 192.860827 42.42624 
L 193.296313 40.662742 
L 193.731799 39.753957 
L 194.167284 39.98465 
L 194.60277 39.402474 
L 195.909227 39.534224 
L 196.344713 39.249418 
L 197.215684 38.999107 
L 197.65117 38.760552 
L 198.086655 38.718994 
L 198.522141 38.386946 
L 198.957626 38.432849 
L 200.264083 37.825595 
L 200.699569 37.353424 
L 201.135055 37.333192 
L 202.006026 36.991922 
L 202.441512 36.681578 
L 202.876997 36.204234 
L 203.312483 35.491188 
L 204.183454 35.065676 
L 205.054425 34.990125 
L 205.489911 35.534075 
L 205.925397 35.719386 
L 206.360882 35.634827 
L 207.667339 36.391058 
L 208.102825 36.991074 
L 208.538311 37.050646 
L 208.973796 37.444648 
L 209.409282 38.265286 
L 209.844767 39.343802 
L 210.715739 40.303264 
L 211.58671 40.623402 
L 212.022196 40.957505 
L 212.893167 41.228765 
L 214.199624 40.177189 
L 214.63511 40.153286 
L 215.070595 40.547462 
L 216.377052 40.367018 
L 218.55448 42.307505 
L 218.989966 43.443456 
L 219.425452 44.114351 
L 219.860937 44.193991 
L 221.167394 44.808269 
L 221.60288 44.765422 
L 222.038365 44.398042 
L 222.909337 44.210052 
L 223.780308 44.484604 
L 225.522251 45.470873 
L 225.957736 45.316938 
L 226.393222 44.77402 
L 226.828707 44.533697 
L 227.264193 44.42084 
L 227.699679 43.94321 
L 228.135164 43.684719 
L 228.57065 42.976662 
L 229.441621 42.594171 
L 229.877107 43.067405 
L 230.312593 43.85584 
L 230.748078 44.409226 
L 231.61905 44.727544 
L 232.490021 44.846648 
L 233.360992 44.940049 
L 233.796478 45.05351 
L 234.231963 44.706167 
L 234.667449 44.55533 
L 235.102935 44.152413 
L 235.53842 45.151573 
L 235.973906 45.537816 
L 236.844877 46.930672 
L 237.280363 46.610524 
L 238.151334 46.166416 
L 239.457791 45.188889 
L 240.328762 44.992619 
L 241.199734 46.193907 
L 241.635219 47.455791 
L 242.070705 47.890503 
L 242.941676 47.886025 
L 243.812647 47.080272 
L 244.683619 46.87566 
L 245.55459 47.486216 
L 245.990076 47.660076 
L 246.425561 47.671925 
L 247.296533 46.965851 
L 247.732018 46.758652 
L 248.167504 46.682457 
L 248.60299 46.88938 
L 249.038475 46.968928 
L 249.473961 46.86105 
L 249.909446 46.100475 
L 250.344932 46.180791 
L 251.215903 45.615197 
L 251.651389 44.947891 
L 252.52236 45.827815 
L 253.393332 46.701666 
L 253.828817 46.887018 
L 254.264303 47.433974 
L 254.699789 47.569762 
L 255.135274 47.948848 
L 255.57076 46.573393 
L 256.441731 45.46344 
L 256.877217 45.41493 
L 257.312702 46.683612 
L 259.054645 47.608315 
L 259.490131 47.669625 
L 259.925616 47.916921 
L 260.361102 48.301016 
L 261.232073 48.280713 
L 261.667559 48.72341 
L 262.103044 48.868941 
L 262.974016 50.024408 
L 263.409501 50.481959 
L 263.844987 50.163693 
L 264.280473 50.006282 
L 264.715958 49.977758 
L 265.151444 49.648746 
L 265.58693 49.521403 
L 266.022415 48.895358 
L 266.457901 49.103252 
L 266.893386 48.039561 
L 267.328872 48.440506 
L 268.199843 48.822107 
L 268.635329 48.036249 
L 269.070815 48.308817 
L 269.5063 48.264273 
L 269.941786 48.003084 
L 270.377272 48.949123 
L 271.248243 48.38443 
L 272.119214 46.806651 
L 272.5547 45.523074 
L 272.990185 45.683521 
L 273.425671 46.465504 
L 273.861157 46.136912 
L 274.296642 46.162286 
L 274.732128 46.567402 
L 275.167614 47.413087 
L 276.038585 48.435946 
L 276.474071 48.302386 
L 276.909556 48.438553 
L 277.345042 49.105389 
L 277.780527 49.293399 
L 278.216013 50.595379 
L 278.651499 50.522291 
L 279.086984 49.970816 
L 279.52247 49.851038 
L 280.828927 48.776296 
L 281.264413 47.901964 
L 281.699898 47.671302 
L 282.57087 47.897383 
L 283.006355 47.805117 
L 283.441841 47.995682 
L 284.312812 48.067103 
L 285.183783 48.572204 
L 285.619269 48.66215 
L 286.054755 48.459971 
L 286.49024 48.963835 
L 286.925726 48.487094 
L 287.361212 48.338935 
L 288.232183 48.64199 
L 289.103154 48.34144 
L 289.53864 48.262147 
L 290.845097 48.371385 
L 291.280582 49.13377 
L 291.716068 49.074289 
L 292.151554 49.442754 
L 292.587039 49.598058 
L 293.022525 49.928021 
L 293.893496 50.157702 
L 294.328982 49.900162 
L 294.764467 49.491734 
L 295.199953 49.306168 
L 295.635439 48.914302 
L 296.941896 50.164817 
L 297.812867 50.815991 
L 298.248353 49.842307 
L 298.683838 50.026964 
L 299.990295 47.907392 
L 300.425781 48.042076 
L 300.861266 48.302938 
L 301.296752 48.789719 
L 301.732238 47.996244 
L 302.603209 47.630633 
L 303.038695 47.543917 
L 303.47418 46.635132 
L 303.909666 46.319656 
L 304.345152 46.671947 
L 304.780637 46.509884 
L 305.651609 46.569763 
L 306.087094 46.075039 
L 306.52258 45.865836 
L 306.958065 45.952562 
L 307.393551 44.865326 
L 307.829037 44.794457 
L 308.264522 44.853395 
L 308.700008 44.269359 
L 309.135494 44.059921 
L 310.006465 44.405167 
L 310.441951 44.242512 
L 310.877436 44.841556 
L 311.312922 45.067546 
L 311.748407 44.835709 
L 312.619379 45.58786 
L 313.49035 46.920101 
L 313.925836 47.171047 
L 314.361321 47.188355 
L 315.232293 45.760391 
L 315.667778 45.268438 
L 316.103264 44.072025 
L 316.53875 44.150501 
L 316.974235 44.539903 
L 317.845206 44.824759 
L 318.716178 45.076032 
L 319.151663 44.795357 
L 319.587149 44.740988 
L 320.022635 45.184707 
L 320.45812 44.498682 
L 320.893606 44.41262 
L 321.329092 43.797658 
L 321.764577 43.577731 
L 322.200063 43.723272 
L 322.635549 43.284409 
L 323.942005 42.86724 
L 324.812977 43.622162 
L 325.248462 43.968727 
L 325.683948 44.105415 
L 326.554919 43.667513 
L 326.990405 43.448332 
L 327.861376 43.754086 
L 328.732347 45.069479 
L 329.167833 45.314801 
L 329.603319 45.419336 
L 330.038804 45.353834 
L 330.909776 44.625258 
L 331.345261 45.151297 
L 332.651718 47.916379 
L 334.393661 51.43903 
L 334.829146 53.052284 
L 335.264632 53.940816 
L 336.135603 56.617107 
L 336.571089 58.228879 
L 337.877546 59.915282 
L 338.313032 60.685181 
L 338.748517 61.720614 
L 339.184003 62.342273 
L 340.054974 64.32211 
L 340.49046 66.248632 
L 341.796917 69.055405 
L 342.232402 69.364378 
L 342.667888 69.888822 
L 343.103374 70.921649 
L 343.974345 72.345881 
L 345.280802 74.863544 
L 347.022744 78.984412 
L 347.45823 79.325508 
L 350.071144 83.434567 
L 350.50663 84.336298 
L 351.813086 88.894015 
L 353.119543 90.939507 
L 353.555029 92.372991 
L 357.038914 100.170231 
L 357.4744 101.823571 
L 359.216342 103.729492 
L 360.087314 105.268513 
L 360.522799 106.003602 
L 361.393771 108.187622 
L 361.829256 108.995041 
L 362.264742 109.186005 
L 362.700228 110.149271 
L 363.135713 110.788995 
L 363.571199 111.760256 
L 364.006684 112.434279 
L 364.44217 113.695007 
L 364.877656 114.183771 
L 365.748627 115.518405 
L 366.184113 116.836803 
L 366.619598 117.286534 
L 367.055084 117.316714 
L 368.361541 118.408867 
L 368.797026 118.533573 
L 369.232512 118.941592 
L 370.103483 119.560889 
L 370.974455 121.488597 
L 371.40994 121.623035 
L 371.845426 122.650515 
L 372.280912 122.881872 
L 372.716397 123.288981 
L 374.022854 125.073345 
L 374.893825 125.962695 
L 375.329311 126.562384 
L 375.764797 126.869518 
L 376.200282 126.814945 
L 376.635768 127.027194 
L 377.071254 126.749167 
L 377.942225 127.281196 
L 378.377711 127.902272 
L 378.813196 128.28277 
L 380.555139 130.682996 
L 380.990624 130.404918 
L 382.297081 130.655699 
L 382.732567 130.938777 
L 383.168053 132.041992 
L 383.603538 132.625834 
L 384.909995 136.581705 
L 386.216452 137.23292 
L 386.651938 137.988118 
L 387.087423 138.068382 
L 387.958395 137.898877 
L 388.39388 139.303777 
L 388.829366 140.094624 
L 389.700337 140.741637 
L 390.135823 140.191655 
L 390.571309 140.510699 
L 391.006794 141.182882 
L 391.44228 142.154429 
L 391.877765 142.664683 
L 392.313251 144.236409 
L 392.748737 144.588331 
L 393.184222 144.489215 
L 393.619708 145.267702 
L 394.055194 145.281677 
L 394.490679 145.662328 
L 394.926165 145.63452 
L 395.361651 146.313481 
L 396.232622 146.722349 
L 396.668108 147.252139 
L 397.539079 147.435232 
L 397.974564 147.857083 
L 398.41005 147.168092 
L 398.845536 147.1904 
L 398.845536 147.1904 
" style="fill:none;stroke:#1f77b4;stroke-linecap:square;stroke-opacity:0.8;stroke-width:1.5;"/>
   </g>
   <g id="line2d_18">
    <path clip-path="url(#pe14fd9bbaa)" d="M 144.086436 270.125148 
L 144.957407 270.140841 
L 145.392893 270.052286 
L 147.134835 270.079388 
L 149.747749 270.00171 
L 151.054206 270.06989 
L 153.66712 270.118247 
L 160.199404 270.158743 
L 160.63489 270.464056 
L 165.425232 270.518599 
L 168.473632 270.58315 
L 170.65106 270.631589 
L 179.360773 270.722966 
L 183.715629 270.921189 
L 189.376942 270.921598 
L 191.554371 271.00679 
L 195.909227 271.161573 
L 197.65117 271.088455 
L 201.57054 271.266548 
L 202.006026 271.022033 
L 206.360882 271.123665 
L 216.377052 271.515193 
L 216.812538 271.841884 
L 218.55448 271.90985 
L 220.731908 271.946389 
L 222.038365 271.921781 
L 223.780308 271.92084 
L 236.409392 272.232176 
L 237.715849 272.203673 
L 243.377162 272.106427 
L 250.780418 271.842007 
L 252.52236 271.887 
L 256.006245 271.668821 
L 259.925616 271.627478 
L 262.974016 271.512964 
L 263.844987 270.335905 
L 266.022415 268.219922 
L 267.328872 266.631286 
L 268.635329 265.525894 
L 271.248243 262.746571 
L 271.683729 261.974044 
L 272.990185 260.481775 
L 273.425671 260.069114 
L 274.732128 258.488003 
L 275.603099 257.559896 
L 276.038585 256.819093 
L 278.216013 255.001246 
L 282.135384 251.040969 
L 283.006355 250.074626 
L 283.441841 249.695959 
L 284.312812 248.769068 
L 285.183783 247.998964 
L 286.49024 246.932564 
L 286.925726 246.72285 
L 287.796697 245.835094 
L 288.232183 245.031008 
L 293.893496 238.723349 
L 294.764467 237.937123 
L 295.635439 237.03984 
L 298.683838 233.593548 
L 299.55481 232.498205 
L 300.861266 231.389592 
L 301.732238 230.440536 
L 302.603209 229.521109 
L 303.47418 228.422678 
L 303.909666 228.021274 
L 304.780637 226.985513 
L 308.264522 223.02084 
L 309.570979 221.43935 
L 310.006465 220.518123 
L 310.877436 219.475227 
L 311.312922 219.079772 
L 312.183893 217.993682 
L 314.796807 215.377454 
L 316.974235 212.980346 
L 320.45812 209.504232 
L 321.329092 208.663157 
L 322.200063 207.533954 
L 323.942005 205.812668 
L 324.377491 205.315685 
L 325.248462 203.976665 
L 327.861376 200.729342 
L 328.296862 200.165712 
L 330.47429 198.290021 
L 331.780747 196.826644 
L 333.52269 195.319039 
L 335.264632 193.612823 
L 336.571089 192.169064 
L 337.006575 191.353589 
L 339.619489 188.696395 
L 340.49046 187.792916 
L 342.232402 186.028437 
L 343.103374 184.933676 
L 345.280802 182.458491 
L 346.151773 181.494581 
L 347.45823 180.251908 
L 347.893716 179.61383 
L 348.329201 179.861361 
L 348.764687 179.956797 
L 349.635658 179.820201 
L 350.071144 179.398463 
L 350.50663 179.419768 
L 350.942115 179.27436 
L 351.377601 179.445327 
L 351.813086 179.151351 
L 352.248572 179.207059 
L 353.555029 178.770455 
L 354.861486 178.559494 
L 355.296972 178.828627 
L 356.167943 178.931434 
L 356.603429 179.265465 
L 357.909885 179.224183 
L 359.216342 179.212968 
L 359.651828 178.859195 
L 360.087314 178.731248 
L 360.522799 178.251215 
L 360.958285 177.036135 
L 361.829256 176.322005 
L 362.264742 175.963519 
L 362.700228 175.924189 
L 363.571199 175.259377 
L 364.44217 175.149996 
L 364.877656 175.182486 
L 365.313141 175.042782 
L 365.748627 175.06236 
L 366.184113 174.712002 
L 367.055084 174.647911 
L 367.49057 174.376539 
L 368.797026 174.121075 
L 369.667998 173.526416 
L 371.845426 172.671836 
L 372.716397 172.677398 
L 373.151883 173.072555 
L 373.587369 173.090078 
L 374.022854 172.958686 
L 376.200282 173.259256 
L 377.071254 172.956038 
L 377.942225 172.896609 
L 378.377711 172.793546 
L 378.813196 172.388257 
L 380.119653 171.885405 
L 380.555139 171.891437 
L 381.42611 171.733076 
L 382.732567 171.684616 
L 383.168053 171.45695 
L 384.039024 171.755782 
L 384.47451 171.789427 
L 385.780966 171.290195 
L 386.216452 170.960314 
L 387.087423 170.661226 
L 388.39388 170.595857 
L 388.829366 170.20483 
L 390.135823 170.233026 
L 391.44228 169.860156 
L 391.877765 169.975078 
L 392.313251 169.945532 
L 392.748737 170.130342 
L 393.184222 169.955674 
L 394.055194 170.000442 
L 394.490679 169.787906 
L 394.926165 170.077609 
L 395.797136 169.88004 
L 396.232622 169.697551 
L 396.668108 169.799674 
L 398.41005 169.171278 
L 398.845536 169.282754 
L 398.845536 169.282754 
" style="fill:none;stroke:#ff7f0e;stroke-linecap:square;stroke-opacity:0.8;stroke-width:1.5;"/>
   </g>
   <g id="line2d_19">
    <path clip-path="url(#pe14fd9bbaa)" d="M 144.086436 280.794764 
L 199.828598 280.893472 
L 208.102825 280.736951 
L 212.022196 280.714091 
L 215.941566 280.683829 
L 224.651279 280.796686 
L 227.699679 280.842477 
L 237.280363 280.914952 
L 242.941676 280.85175 
L 268.635329 281.023218 
L 283.877326 281.10382 
L 298.683838 281.477222 
L 301.296752 281.476547 
L 304.345152 281.466682 
L 309.135494 281.430992 
L 309.570979 281.245783 
L 317.409721 281.267191 
L 320.022635 281.261987 
L 323.942005 281.27947 
L 331.780747 281.117928 
L 345.716287 280.957011 
L 349.635658 280.844205 
L 357.038914 280.728322 
L 369.667998 280.749413 
L 378.377711 280.702743 
L 385.780966 280.721391 
L 398.845536 281.023412 
L 398.845536 281.023412 
" style="fill:none;stroke:#2ca02c;stroke-linecap:square;stroke-opacity:0.8;stroke-width:1.5;"/>
   </g>
   <g id="line2d_20">
    <path clip-path="url(#pe14fd9bbaa)" d="M 144.086436 280.885968 
L 154.973577 280.812451 
L 158.457462 280.808218 
L 159.763919 280.759279 
L 162.376833 280.771925 
L 166.296203 280.765014 
L 172.393002 280.757214 
L 184.151115 280.817052 
L 185.893057 280.784204 
L 203.747968 280.812543 
L 219.860937 280.646974 
L 220.296423 280.848335 
L 229.441621 280.832837 
L 234.231963 280.823738 
L 242.506191 280.816776 
L 245.119104 280.833757 
L 251.215903 280.857935 
L 258.619159 280.787649 
L 274.732128 280.697989 
L 286.49024 280.646391 
L 292.587039 280.694963 
L 294.328982 280.658332 
L 305.651609 280.59649 
L 315.232293 280.452687 
L 322.200063 280.272529 
L 325.683948 280.200852 
L 327.861376 280.170846 
L 333.52269 280.103637 
L 338.313032 280.007107 
L 338.748517 279.545292 
L 342.232402 279.528904 
L 350.942115 279.387933 
L 364.006684 279.499471 
L 370.103483 279.384201 
L 379.248682 279.401693 
L 381.861596 279.391265 
L 386.651938 279.457595 
L 393.184222 279.51818 
L 395.797136 279.530151 
L 398.845536 279.55844 
L 398.845536 279.55844 
" style="fill:none;stroke:#d62728;stroke-linecap:square;stroke-opacity:0.8;stroke-width:1.5;"/>
   </g>
   <g id="line2d_21">
    <path clip-path="url(#pe14fd9bbaa)" d="M 144.086436 280.881521 
L 158.021976 280.748718 
L 162.376833 280.683676 
L 164.989746 280.715982 
L 182.409172 280.486036 
L 182.844658 280.790593 
L 186.764028 280.769001 
L 191.554371 280.800377 
L 193.731799 280.828461 
L 259.925616 280.890528 
L 265.151444 281.006687 
L 266.893386 280.961448 
L 272.990185 280.950458 
L 278.216013 280.912437 
L 292.151554 280.919613 
L 294.328982 280.890916 
L 298.248353 280.874784 
L 310.006465 280.973256 
L 322.635549 281.028023 
L 325.683948 281.027727 
L 331.780747 281.023484 
L 342.667888 281.088679 
L 345.280802 281.095018 
L 377.071254 280.963145 
L 379.248682 280.975137 
L 384.039024 280.991137 
L 398.845536 280.951276 
L 398.845536 280.951276 
" style="fill:none;stroke:#9467bd;stroke-linecap:square;stroke-opacity:0.8;stroke-width:1.5;"/>
   </g>
   <g id="patch_3">
    <path d="M 58.73125 288.430125 
L 58.73125 22.318125 
" style="fill:none;stroke:#000000;stroke-linecap:square;stroke-linejoin:miter;stroke-width:0.8;"/>
   </g>
   <g id="patch_4">
    <path d="M 415.85125 288.430125 
L 415.85125 22.318125 
" style="fill:none;stroke:#000000;stroke-linecap:square;stroke-linejoin:miter;stroke-width:0.8;"/>
   </g>
   <g id="patch_5">
    <path d="M 58.73125 288.430125 
L 415.85125 288.430125 
" style="fill:none;stroke:#000000;stroke-linecap:square;stroke-linejoin:miter;stroke-width:0.8;"/>
   </g>
   <g id="patch_6">
    <path d="M 58.73125 22.318125 
L 415.85125 22.318125 
" style="fill:none;stroke:#000000;stroke-linecap:square;stroke-linejoin:miter;stroke-width:0.8;"/>
   </g>
   <g id="text_19">
    <!-- Move [same branch path] -->
    <g transform="translate(159.961563 16.318125)scale(0.12 -0.12)">
     <defs>
      <path d="M 9.8125 72.90625 
L 24.515625 72.90625 
L 43.109375 23.296875 
L 61.8125 72.90625 
L 76.515625 72.90625 
L 76.515625 0 
L 66.890625 0 
L 66.890625 64.015625 
L 48.09375 14.015625 
L 38.1875 14.015625 
L 19.390625 64.015625 
L 19.390625 0 
L 9.8125 0 
z
" id="DejaVuSans-77"/>
      <path d="M 2.984375 54.6875 
L 12.5 54.6875 
L 29.59375 8.796875 
L 46.6875 54.6875 
L 56.203125 54.6875 
L 35.6875 0 
L 23.484375 0 
z
" id="DejaVuSans-118"/>
      <path d="M 8.59375 75.984375 
L 29.296875 75.984375 
L 29.296875 69 
L 17.578125 69 
L 17.578125 -6.203125 
L 29.296875 -6.203125 
L 29.296875 -13.1875 
L 8.59375 -13.1875 
z
" id="DejaVuSans-91"/>
      <path d="M 54.890625 33.015625 
L 54.890625 0 
L 45.90625 0 
L 45.90625 32.71875 
Q 45.90625 40.484375 42.875 44.328125 
Q 39.84375 48.1875 33.796875 48.1875 
Q 26.515625 48.1875 22.3125 43.546875 
Q 18.109375 38.921875 18.109375 30.90625 
L 18.109375 0 
L 9.078125 0 
L 9.078125 75.984375 
L 18.109375 75.984375 
L 18.109375 46.1875 
Q 21.34375 51.125 25.703125 53.5625 
Q 30.078125 56 35.796875 56 
Q 45.21875 56 50.046875 50.171875 
Q 54.890625 44.34375 54.890625 33.015625 
z
" id="DejaVuSans-104"/>
      <path d="M 18.109375 8.203125 
L 18.109375 -20.796875 
L 9.078125 -20.796875 
L 9.078125 54.6875 
L 18.109375 54.6875 
L 18.109375 46.390625 
Q 20.953125 51.265625 25.265625 53.625 
Q 29.59375 56 35.59375 56 
Q 45.5625 56 51.78125 48.09375 
Q 58.015625 40.1875 58.015625 27.296875 
Q 58.015625 14.40625 51.78125 6.484375 
Q 45.5625 -1.421875 35.59375 -1.421875 
Q 29.59375 -1.421875 25.265625 0.953125 
Q 20.953125 3.328125 18.109375 8.203125 
z
M 48.6875 27.296875 
Q 48.6875 37.203125 44.609375 42.84375 
Q 40.53125 48.484375 33.40625 48.484375 
Q 26.265625 48.484375 22.1875 42.84375 
Q 18.109375 37.203125 18.109375 27.296875 
Q 18.109375 17.390625 22.1875 11.75 
Q 26.265625 6.109375 33.40625 6.109375 
Q 40.53125 6.109375 44.609375 11.75 
Q 48.6875 17.390625 48.6875 27.296875 
z
" id="DejaVuSans-112"/>
      <path d="M 30.421875 75.984375 
L 30.421875 -13.1875 
L 9.71875 -13.1875 
L 9.71875 -6.203125 
L 21.390625 -6.203125 
L 21.390625 69 
L 9.71875 69 
L 9.71875 75.984375 
z
" id="DejaVuSans-93"/>
     </defs>
     <use xlink:href="#DejaVuSans-77"/>
     <use x="86.279297" xlink:href="#DejaVuSans-111"/>
     <use x="147.460938" xlink:href="#DejaVuSans-118"/>
     <use x="206.640625" xlink:href="#DejaVuSans-101"/>
     <use x="268.164062" xlink:href="#DejaVuSans-32"/>
     <use x="299.951172" xlink:href="#DejaVuSans-91"/>
     <use x="338.964844" xlink:href="#DejaVuSans-115"/>
     <use x="391.064453" xlink:href="#DejaVuSans-97"/>
     <use x="452.34375" xlink:href="#DejaVuSans-109"/>
     <use x="549.755859" xlink:href="#DejaVuSans-101"/>
     <use x="611.279297" xlink:href="#DejaVuSans-32"/>
     <use x="643.066406" xlink:href="#DejaVuSans-98"/>
     <use x="706.542969" xlink:href="#DejaVuSans-114"/>
     <use x="747.65625" xlink:href="#DejaVuSans-97"/>
     <use x="808.935547" xlink:href="#DejaVuSans-110"/>
     <use x="872.314453" xlink:href="#DejaVuSans-99"/>
     <use x="927.294922" xlink:href="#DejaVuSans-104"/>
     <use x="990.673828" xlink:href="#DejaVuSans-32"/>
     <use x="1022.460938" xlink:href="#DejaVuSans-112"/>
     <use x="1085.9375" xlink:href="#DejaVuSans-97"/>
     <use x="1147.216797" xlink:href="#DejaVuSans-116"/>
     <use x="1186.425781" xlink:href="#DejaVuSans-104"/>
     <use x="1249.804688" xlink:href="#DejaVuSans-93"/>
    </g>
   </g>
   <g id="legend_1">
    <g id="patch_7">
     <path d="M 89.733594 365.802375 
L 377.328906 365.802375 
Q 379.328906 365.802375 379.328906 363.802375 
L 379.328906 335.446125 
Q 379.328906 333.446125 377.328906 333.446125 
L 89.733594 333.446125 
Q 87.733594 333.446125 87.733594 335.446125 
L 87.733594 363.802375 
Q 87.733594 365.802375 89.733594 365.802375 
z
" style="fill:#4c4c4c;opacity:0.5;stroke:#4c4c4c;stroke-linejoin:miter;"/>
    </g>
    <g id="patch_8">
     <path d="M 87.733594 363.802375 
L 375.328906 363.802375 
Q 377.328906 363.802375 377.328906 361.802375 
L 377.328906 333.446125 
Q 377.328906 331.446125 375.328906 331.446125 
L 87.733594 331.446125 
Q 85.733594 331.446125 85.733594 333.446125 
L 85.733594 361.802375 
Q 85.733594 363.802375 87.733594 363.802375 
z
" style="fill:#ffffff;stroke:#cccccc;stroke-linejoin:miter;"/>
    </g>
    <g id="line2d_22">
     <path d="M 89.733594 339.544562 
L 109.733594 339.544562 
" style="fill:none;stroke:#1f77b4;stroke-linecap:square;stroke-opacity:0.8;stroke-width:1.5;"/>
    </g>
    <g id="line2d_23"/>
    <g id="text_20">
     <!-- MPTT -->
     <g transform="translate(117.733594 343.044562)scale(0.1 -0.1)">
      <defs>
       <path d="M 19.671875 64.796875 
L 19.671875 37.40625 
L 32.078125 37.40625 
Q 38.96875 37.40625 42.71875 40.96875 
Q 46.484375 44.53125 46.484375 51.125 
Q 46.484375 57.671875 42.71875 61.234375 
Q 38.96875 64.796875 32.078125 64.796875 
z
M 9.8125 72.90625 
L 32.078125 72.90625 
Q 44.34375 72.90625 50.609375 67.359375 
Q 56.890625 61.8125 56.890625 51.125 
Q 56.890625 40.328125 50.609375 34.8125 
Q 44.34375 29.296875 32.078125 29.296875 
L 19.671875 29.296875 
L 19.671875 0 
L 9.8125 0 
z
" id="DejaVuSans-80"/>
       <path d="M -0.296875 72.90625 
L 61.375 72.90625 
L 61.375 64.59375 
L 35.5 64.59375 
L 35.5 0 
L 25.59375 0 
L 25.59375 64.59375 
L -0.296875 64.59375 
z
" id="DejaVuSans-84"/>
      </defs>
      <use xlink:href="#DejaVuSans-77"/>
      <use x="86.279297" xlink:href="#DejaVuSans-80"/>
      <use x="146.582031" xlink:href="#DejaVuSans-84"/>
      <use x="205.916016" xlink:href="#DejaVuSans-84"/>
     </g>
    </g>
    <g id="line2d_24">
     <path d="M 89.733594 354.222687 
L 109.733594 354.222687 
" style="fill:none;stroke:#ff7f0e;stroke-linecap:square;stroke-opacity:0.8;stroke-width:1.5;"/>
    </g>
    <g id="line2d_25"/>
    <g id="text_21">
     <!-- tree -->
     <g transform="translate(117.733594 357.722687)scale(0.1 -0.1)">
      <use xlink:href="#DejaVuSans-116"/>
      <use x="39.208984" xlink:href="#DejaVuSans-114"/>
      <use x="78.072266" xlink:href="#DejaVuSans-101"/>
      <use x="139.595703" xlink:href="#DejaVuSans-101"/>
     </g>
    </g>
    <g id="line2d_26">
     <path d="M 164.432031 339.544562 
L 184.432031 339.544562 
" style="fill:none;stroke:#2ca02c;stroke-linecap:square;stroke-opacity:0.8;stroke-width:1.5;"/>
    </g>
    <g id="line2d_27"/>
    <g id="text_22">
     <!-- treebeard AL -->
     <g transform="translate(192.432031 343.044562)scale(0.1 -0.1)">
      <defs>
       <path d="M 45.40625 46.390625 
L 45.40625 75.984375 
L 54.390625 75.984375 
L 54.390625 0 
L 45.40625 0 
L 45.40625 8.203125 
Q 42.578125 3.328125 38.25 0.953125 
Q 33.9375 -1.421875 27.875 -1.421875 
Q 17.96875 -1.421875 11.734375 6.484375 
Q 5.515625 14.40625 5.515625 27.296875 
Q 5.515625 40.1875 11.734375 48.09375 
Q 17.96875 56 27.875 56 
Q 33.9375 56 38.25 53.625 
Q 42.578125 51.265625 45.40625 46.390625 
z
M 14.796875 27.296875 
Q 14.796875 17.390625 18.875 11.75 
Q 22.953125 6.109375 30.078125 6.109375 
Q 37.203125 6.109375 41.296875 11.75 
Q 45.40625 17.390625 45.40625 27.296875 
Q 45.40625 37.203125 41.296875 42.84375 
Q 37.203125 48.484375 30.078125 48.484375 
Q 22.953125 48.484375 18.875 42.84375 
Q 14.796875 37.203125 14.796875 27.296875 
z
" id="DejaVuSans-100"/>
       <path d="M 9.8125 72.90625 
L 19.671875 72.90625 
L 19.671875 8.296875 
L 55.171875 8.296875 
L 55.171875 0 
L 9.8125 0 
z
" id="DejaVuSans-76"/>
      </defs>
      <use xlink:href="#DejaVuSans-116"/>
      <use x="39.208984" xlink:href="#DejaVuSans-114"/>
      <use x="78.072266" xlink:href="#DejaVuSans-101"/>
      <use x="139.595703" xlink:href="#DejaVuSans-101"/>
      <use x="201.119141" xlink:href="#DejaVuSans-98"/>
      <use x="264.595703" xlink:href="#DejaVuSans-101"/>
      <use x="326.119141" xlink:href="#DejaVuSans-97"/>
      <use x="387.398438" xlink:href="#DejaVuSans-114"/>
      <use x="426.761719" xlink:href="#DejaVuSans-100"/>
      <use x="490.238281" xlink:href="#DejaVuSans-32"/>
      <use x="522.025391" xlink:href="#DejaVuSans-65"/>
      <use x="590.433594" xlink:href="#DejaVuSans-76"/>
     </g>
    </g>
    <g id="line2d_28">
     <path d="M 164.432031 354.222687 
L 184.432031 354.222687 
" style="fill:none;stroke:#d62728;stroke-linecap:square;stroke-opacity:0.8;stroke-width:1.5;"/>
    </g>
    <g id="line2d_29"/>
    <g id="text_23">
     <!-- treebeard MP -->
     <g transform="translate(192.432031 357.722687)scale(0.1 -0.1)">
      <use xlink:href="#DejaVuSans-116"/>
      <use x="39.208984" xlink:href="#DejaVuSans-114"/>
      <use x="78.072266" xlink:href="#DejaVuSans-101"/>
      <use x="139.595703" xlink:href="#DejaVuSans-101"/>
      <use x="201.119141" xlink:href="#DejaVuSans-98"/>
      <use x="264.595703" xlink:href="#DejaVuSans-101"/>
      <use x="326.119141" xlink:href="#DejaVuSans-97"/>
      <use x="387.398438" xlink:href="#DejaVuSans-114"/>
      <use x="426.761719" xlink:href="#DejaVuSans-100"/>
      <use x="490.238281" xlink:href="#DejaVuSans-32"/>
      <use x="522.025391" xlink:href="#DejaVuSans-77"/>
      <use x="608.304688" xlink:href="#DejaVuSans-80"/>
     </g>
    </g>
    <g id="line2d_30">
     <path d="M 279.294531 339.544562 
L 299.294531 339.544562 
" style="fill:none;stroke:#9467bd;stroke-linecap:square;stroke-opacity:0.8;stroke-width:1.5;"/>
    </g>
    <g id="line2d_31"/>
    <g id="text_24">
     <!-- treebeard NS -->
     <g transform="translate(307.294531 343.044562)scale(0.1 -0.1)">
      <defs>
       <path d="M 9.8125 72.90625 
L 23.09375 72.90625 
L 55.421875 11.921875 
L 55.421875 72.90625 
L 64.984375 72.90625 
L 64.984375 0 
L 51.703125 0 
L 19.390625 60.984375 
L 19.390625 0 
L 9.8125 0 
z
" id="DejaVuSans-78"/>
       <path d="M 53.515625 70.515625 
L 53.515625 60.890625 
Q 47.90625 63.578125 42.921875 64.890625 
Q 37.9375 66.21875 33.296875 66.21875 
Q 25.25 66.21875 20.875 63.09375 
Q 16.5 59.96875 16.5 54.203125 
Q 16.5 49.359375 19.40625 46.890625 
Q 22.3125 44.4375 30.421875 42.921875 
L 36.375 41.703125 
Q 47.40625 39.59375 52.65625 34.296875 
Q 57.90625 29 57.90625 20.125 
Q 57.90625 9.515625 50.796875 4.046875 
Q 43.703125 -1.421875 29.984375 -1.421875 
Q 24.8125 -1.421875 18.96875 -0.25 
Q 13.140625 0.921875 6.890625 3.21875 
L 6.890625 13.375 
Q 12.890625 10.015625 18.65625 8.296875 
Q 24.421875 6.59375 29.984375 6.59375 
Q 38.421875 6.59375 43.015625 9.90625 
Q 47.609375 13.234375 47.609375 19.390625 
Q 47.609375 24.75 44.3125 27.78125 
Q 41.015625 30.8125 33.5 32.328125 
L 27.484375 33.5 
Q 16.453125 35.6875 11.515625 40.375 
Q 6.59375 45.0625 6.59375 53.421875 
Q 6.59375 63.09375 13.40625 68.65625 
Q 20.21875 74.21875 32.171875 74.21875 
Q 37.3125 74.21875 42.625 73.28125 
Q 47.953125 72.359375 53.515625 70.515625 
z
" id="DejaVuSans-83"/>
      </defs>
      <use xlink:href="#DejaVuSans-116"/>
      <use x="39.208984" xlink:href="#DejaVuSans-114"/>
      <use x="78.072266" xlink:href="#DejaVuSans-101"/>
      <use x="139.595703" xlink:href="#DejaVuSans-101"/>
      <use x="201.119141" xlink:href="#DejaVuSans-98"/>
      <use x="264.595703" xlink:href="#DejaVuSans-101"/>
      <use x="326.119141" xlink:href="#DejaVuSans-97"/>
      <use x="387.398438" xlink:href="#DejaVuSans-114"/>
      <use x="426.761719" xlink:href="#DejaVuSans-100"/>
      <use x="490.238281" xlink:href="#DejaVuSans-32"/>
      <use x="522.025391" xlink:href="#DejaVuSans-78"/>
      <use x="596.830078" xlink:href="#DejaVuSans-83"/>
     </g>
    </g>
   </g>
  </g>
 </g>
 <defs>
  <clipPath id="pe14fd9bbaa">
   <rect height="266.112" width="357.12" x="58.73125" y="22.318125"/>
  </clipPath>
 </defs>
</svg>
