<?xml version="1.0" encoding="utf-8" standalone="no"?>
<!DOCTYPE svg PUBLIC "-//W3C//DTD SVG 1.1//EN"
  "http://www.w3.org/Graphics/SVG/1.1/DTD/svg11.dtd">
<!-- Created with matplotlib (https://matplotlib.org/) -->
<svg height="371.002375pt" version="1.1" viewBox="0 0 423.05125 371.002375" width="423.05125pt" xmlns="http://www.w3.org/2000/svg" xmlns:xlink="http://www.w3.org/1999/xlink">
 <metadata>
  <rdf:RDF xmlns:cc="http://creativecommons.org/ns#" xmlns:dc="http://purl.org/dc/elements/1.1/" xmlns:rdf="http://www.w3.org/1999/02/22-rdf-syntax-ns#">
   <cc:Work>
    <dc:type rdf:resource="http://purl.org/dc/dcmitype/StillImage"/>
    <dc:date>2023-07-04T16:29:29.880659</dc:date>
    <dc:format>image/svg+xml</dc:format>
    <dc:creator>
     <cc:Agent>
      <dc:title>Matplotlib v3.3.4, https://matplotlib.org/</dc:title>
     </cc:Agent>
    </dc:creator>
   </cc:Work>
  </rdf:RDF>
 </metadata>
 <defs>
  <style type="text/css">*{stroke-linecap:butt;stroke-linejoin:round;}</style>
 </defs>
 <g id="figure_1">
  <g id="patch_1">
   <path d="M 0 371.002375 
L 423.05125 371.002375 
L 423.05125 0 
L 0 0 
z
" style="fill:#ffffff;"/>
  </g>
  <g id="axes_1">
   <g id="patch_2">
    <path d="M 58.73125 288.430125 
L 415.85125 288.430125 
L 415.85125 22.318125 
L 58.73125 22.318125 
z
" style="fill:#ffffff;"/>
   </g>
   <g id="matplotlib.axis_1">
    <g id="xtick_1">
     <g id="line2d_1">
      <defs>
       <path d="M 0 0 
L 0 3.5 
" id="m68f794db37" style="stroke:#000000;stroke-width:0.8;"/>
      </defs>
      <g>
       <use style="stroke:#000000;stroke-width:0.8;" x="58.73125" xlink:href="#m68f794db37" y="288.430125"/>
      </g>
     </g>
     <g id="text_1">
      <!-- 0 -->
      <g transform="translate(55.55 303.028562)scale(0.1 -0.1)">
       <defs>
        <path d="M 31.78125 66.40625 
Q 24.171875 66.40625 20.328125 58.90625 
Q 16.5 51.421875 16.5 36.375 
Q 16.5 21.390625 20.328125 13.890625 
Q 24.171875 6.390625 31.78125 6.390625 
Q 39.453125 6.390625 43.28125 13.890625 
Q 47.125 21.390625 47.125 36.375 
Q 47.125 51.421875 43.28125 58.90625 
Q 39.453125 66.40625 31.78125 66.40625 
z
M 31.78125 74.21875 
Q 44.046875 74.21875 50.515625 64.515625 
Q 56.984375 54.828125 56.984375 36.375 
Q 56.984375 17.96875 50.515625 8.265625 
Q 44.046875 -1.421875 31.78125 -1.421875 
Q 19.53125 -1.421875 13.0625 8.265625 
Q 6.59375 17.96875 6.59375 36.375 
Q 6.59375 54.828125 13.0625 64.515625 
Q 19.53125 74.21875 31.78125 74.21875 
z
" id="DejaVuSans-48"/>
       </defs>
       <use xlink:href="#DejaVuSans-48"/>
      </g>
     </g>
    </g>
    <g id="xtick_2">
     <g id="line2d_2">
      <g>
       <use style="stroke:#000000;stroke-width:0.8;" x="102.279814" xlink:href="#m68f794db37" y="288.430125"/>
      </g>
     </g>
     <g id="text_2">
      <!-- 500  -->
      <g transform="translate(91.147002 303.028562)scale(0.1 -0.1)">
       <defs>
        <path d="M 10.796875 72.90625 
L 49.515625 72.90625 
L 49.515625 64.59375 
L 19.828125 64.59375 
L 19.828125 46.734375 
Q 21.96875 47.46875 24.109375 47.828125 
Q 26.265625 48.1875 28.421875 48.1875 
Q 40.625 48.1875 47.75 41.5 
Q 54.890625 34.8125 54.890625 23.390625 
Q 54.890625 11.625 47.5625 5.09375 
Q 40.234375 -1.421875 26.90625 -1.421875 
Q 22.3125 -1.421875 17.546875 -0.640625 
Q 12.796875 0.140625 7.71875 1.703125 
L 7.71875 11.625 
Q 12.109375 9.234375 16.796875 8.0625 
Q 21.484375 6.890625 26.703125 6.890625 
Q 35.15625 6.890625 40.078125 11.328125 
Q 45.015625 15.765625 45.015625 23.390625 
Q 45.015625 31 40.078125 35.4375 
Q 35.15625 39.890625 26.703125 39.890625 
Q 22.75 39.890625 18.8125 39.015625 
Q 14.890625 38.140625 10.796875 36.28125 
z
" id="DejaVuSans-53"/>
        <path id="DejaVuSans-32"/>
       </defs>
       <use xlink:href="#DejaVuSans-53"/>
       <use x="63.623047" xlink:href="#DejaVuSans-48"/>
       <use x="127.246094" xlink:href="#DejaVuSans-48"/>
       <use x="190.869141" xlink:href="#DejaVuSans-32"/>
      </g>
     </g>
    </g>
    <g id="xtick_3">
     <g id="line2d_3">
      <g>
       <use style="stroke:#000000;stroke-width:0.8;" x="145.828378" xlink:href="#m68f794db37" y="288.430125"/>
      </g>
     </g>
     <g id="text_3">
      <!-- 1 k -->
      <g transform="translate(138.162753 303.028562)scale(0.1 -0.1)">
       <defs>
        <path d="M 12.40625 8.296875 
L 28.515625 8.296875 
L 28.515625 63.921875 
L 10.984375 60.40625 
L 10.984375 69.390625 
L 28.421875 72.90625 
L 38.28125 72.90625 
L 38.28125 8.296875 
L 54.390625 8.296875 
L 54.390625 0 
L 12.40625 0 
z
" id="DejaVuSans-49"/>
        <path d="M 9.078125 75.984375 
L 18.109375 75.984375 
L 18.109375 31.109375 
L 44.921875 54.6875 
L 56.390625 54.6875 
L 27.390625 29.109375 
L 57.625 0 
L 45.90625 0 
L 18.109375 26.703125 
L 18.109375 0 
L 9.078125 0 
z
" id="DejaVuSans-107"/>
       </defs>
       <use xlink:href="#DejaVuSans-49"/>
       <use x="63.623047" xlink:href="#DejaVuSans-32"/>
       <use x="95.410156" xlink:href="#DejaVuSans-107"/>
      </g>
     </g>
    </g>
    <g id="xtick_4">
     <g id="line2d_4">
      <g>
       <use style="stroke:#000000;stroke-width:0.8;" x="189.376942" xlink:href="#m68f794db37" y="288.430125"/>
      </g>
     </g>
     <g id="text_4">
      <!-- 1.5 k -->
      <g transform="translate(176.941005 303.028562)scale(0.1 -0.1)">
       <defs>
        <path d="M 10.6875 12.40625 
L 21 12.40625 
L 21 0 
L 10.6875 0 
z
" id="DejaVuSans-46"/>
       </defs>
       <use xlink:href="#DejaVuSans-49"/>
       <use x="63.623047" xlink:href="#DejaVuSans-46"/>
       <use x="95.410156" xlink:href="#DejaVuSans-53"/>
       <use x="159.033203" xlink:href="#DejaVuSans-32"/>
       <use x="190.820312" xlink:href="#DejaVuSans-107"/>
      </g>
     </g>
    </g>
    <g id="xtick_5">
     <g id="line2d_5">
      <g>
       <use style="stroke:#000000;stroke-width:0.8;" x="232.925506" xlink:href="#m68f794db37" y="288.430125"/>
      </g>
     </g>
     <g id="text_5">
      <!-- 2 k -->
      <g transform="translate(225.259881 303.028562)scale(0.1 -0.1)">
       <defs>
        <path d="M 19.1875 8.296875 
L 53.609375 8.296875 
L 53.609375 0 
L 7.328125 0 
L 7.328125 8.296875 
Q 12.9375 14.109375 22.625 23.890625 
Q 32.328125 33.6875 34.8125 36.53125 
Q 39.546875 41.84375 41.421875 45.53125 
Q 43.3125 49.21875 43.3125 52.78125 
Q 43.3125 58.59375 39.234375 62.25 
Q 35.15625 65.921875 28.609375 65.921875 
Q 23.96875 65.921875 18.8125 64.3125 
Q 13.671875 62.703125 7.8125 59.421875 
L 7.8125 69.390625 
Q 13.765625 71.78125 18.9375 73 
Q 24.125 74.21875 28.421875 74.21875 
Q 39.75 74.21875 46.484375 68.546875 
Q 53.21875 62.890625 53.21875 53.421875 
Q 53.21875 48.921875 51.53125 44.890625 
Q 49.859375 40.875 45.40625 35.40625 
Q 44.1875 33.984375 37.640625 27.21875 
Q 31.109375 20.453125 19.1875 8.296875 
z
" id="DejaVuSans-50"/>
       </defs>
       <use xlink:href="#DejaVuSans-50"/>
       <use x="63.623047" xlink:href="#DejaVuSans-32"/>
       <use x="95.410156" xlink:href="#DejaVuSans-107"/>
      </g>
     </g>
    </g>
    <g id="xtick_6">
     <g id="line2d_6">
      <g>
       <use style="stroke:#000000;stroke-width:0.8;" x="276.474071" xlink:href="#m68f794db37" y="288.430125"/>
      </g>
     </g>
     <g id="text_6">
      <!-- 2.5 k -->
      <g transform="translate(264.038133 303.028562)scale(0.1 -0.1)">
       <use xlink:href="#DejaVuSans-50"/>
       <use x="63.623047" xlink:href="#DejaVuSans-46"/>
       <use x="95.410156" xlink:href="#DejaVuSans-53"/>
       <use x="159.033203" xlink:href="#DejaVuSans-32"/>
       <use x="190.820312" xlink:href="#DejaVuSans-107"/>
      </g>
     </g>
    </g>
    <g id="xtick_7">
     <g id="line2d_7">
      <g>
       <use style="stroke:#000000;stroke-width:0.8;" x="320.022635" xlink:href="#m68f794db37" y="288.430125"/>
      </g>
     </g>
     <g id="text_7">
      <!-- 3 k -->
      <g transform="translate(312.35701 303.028562)scale(0.1 -0.1)">
       <defs>
        <path d="M 40.578125 39.3125 
Q 47.65625 37.796875 51.625 33 
Q 55.609375 28.21875 55.609375 21.1875 
Q 55.609375 10.40625 48.1875 4.484375 
Q 40.765625 -1.421875 27.09375 -1.421875 
Q 22.515625 -1.421875 17.65625 -0.515625 
Q 12.796875 0.390625 7.625 2.203125 
L 7.625 11.71875 
Q 11.71875 9.328125 16.59375 8.109375 
Q 21.484375 6.890625 26.8125 6.890625 
Q 36.078125 6.890625 40.9375 10.546875 
Q 45.796875 14.203125 45.796875 21.1875 
Q 45.796875 27.640625 41.28125 31.265625 
Q 36.765625 34.90625 28.71875 34.90625 
L 20.21875 34.90625 
L 20.21875 43.015625 
L 29.109375 43.015625 
Q 36.375 43.015625 40.234375 45.921875 
Q 44.09375 48.828125 44.09375 54.296875 
Q 44.09375 59.90625 40.109375 62.90625 
Q 36.140625 65.921875 28.71875 65.921875 
Q 24.65625 65.921875 20.015625 65.03125 
Q 15.375 64.15625 9.8125 62.3125 
L 9.8125 71.09375 
Q 15.4375 72.65625 20.34375 73.4375 
Q 25.25 74.21875 29.59375 74.21875 
Q 40.828125 74.21875 47.359375 69.109375 
Q 53.90625 64.015625 53.90625 55.328125 
Q 53.90625 49.265625 50.4375 45.09375 
Q 46.96875 40.921875 40.578125 39.3125 
z
" id="DejaVuSans-51"/>
       </defs>
       <use xlink:href="#DejaVuSans-51"/>
       <use x="63.623047" xlink:href="#DejaVuSans-32"/>
       <use x="95.410156" xlink:href="#DejaVuSans-107"/>
      </g>
     </g>
    </g>
    <g id="xtick_8">
     <g id="line2d_8">
      <g>
       <use style="stroke:#000000;stroke-width:0.8;" x="363.571199" xlink:href="#m68f794db37" y="288.430125"/>
      </g>
     </g>
     <g id="text_8">
      <!-- 3.5 k -->
      <g transform="translate(351.135261 303.028562)scale(0.1 -0.1)">
       <use xlink:href="#DejaVuSans-51"/>
       <use x="63.623047" xlink:href="#DejaVuSans-46"/>
       <use x="95.410156" xlink:href="#DejaVuSans-53"/>
       <use x="159.033203" xlink:href="#DejaVuSans-32"/>
       <use x="190.820312" xlink:href="#DejaVuSans-107"/>
      </g>
     </g>
    </g>
    <g id="xtick_9">
     <g id="line2d_9">
      <g>
       <use style="stroke:#000000;stroke-width:0.8;" x="407.119763" xlink:href="#m68f794db37" y="288.430125"/>
      </g>
     </g>
     <g id="text_9">
      <!-- 4 k -->
      <g transform="translate(399.454138 303.028562)scale(0.1 -0.1)">
       <defs>
        <path d="M 37.796875 64.3125 
L 12.890625 25.390625 
L 37.796875 25.390625 
z
M 35.203125 72.90625 
L 47.609375 72.90625 
L 47.609375 25.390625 
L 58.015625 25.390625 
L 58.015625 17.1875 
L 47.609375 17.1875 
L 47.609375 0 
L 37.796875 0 
L 37.796875 17.1875 
L 4.890625 17.1875 
L 4.890625 26.703125 
z
" id="DejaVuSans-52"/>
       </defs>
       <use xlink:href="#DejaVuSans-52"/>
       <use x="63.623047" xlink:href="#DejaVuSans-32"/>
       <use x="95.410156" xlink:href="#DejaVuSans-107"/>
      </g>
     </g>
    </g>
    <g id="text_10">
     <!-- Amount of objects in table -->
     <g transform="translate(171.232656 316.706687)scale(0.1 -0.1)">
      <defs>
       <path d="M 34.1875 63.1875 
L 20.796875 26.90625 
L 47.609375 26.90625 
z
M 28.609375 72.90625 
L 39.796875 72.90625 
L 67.578125 0 
L 57.328125 0 
L 50.6875 18.703125 
L 17.828125 18.703125 
L 11.1875 0 
L 0.78125 0 
z
" id="DejaVuSans-65"/>
       <path d="M 52 44.1875 
Q 55.375 50.25 60.0625 53.125 
Q 64.75 56 71.09375 56 
Q 79.640625 56 84.28125 50.015625 
Q 88.921875 44.046875 88.921875 33.015625 
L 88.921875 0 
L 79.890625 0 
L 79.890625 32.71875 
Q 79.890625 40.578125 77.09375 44.375 
Q 74.3125 48.1875 68.609375 48.1875 
Q 61.625 48.1875 57.5625 43.546875 
Q 53.515625 38.921875 53.515625 30.90625 
L 53.515625 0 
L 44.484375 0 
L 44.484375 32.71875 
Q 44.484375 40.625 41.703125 44.40625 
Q 38.921875 48.1875 33.109375 48.1875 
Q 26.21875 48.1875 22.15625 43.53125 
Q 18.109375 38.875 18.109375 30.90625 
L 18.109375 0 
L 9.078125 0 
L 9.078125 54.6875 
L 18.109375 54.6875 
L 18.109375 46.1875 
Q 21.1875 51.21875 25.484375 53.609375 
Q 29.78125 56 35.6875 56 
Q 41.65625 56 45.828125 52.96875 
Q 50 49.953125 52 44.1875 
z
" id="DejaVuSans-109"/>
       <path d="M 30.609375 48.390625 
Q 23.390625 48.390625 19.1875 42.75 
Q 14.984375 37.109375 14.984375 27.296875 
Q 14.984375 17.484375 19.15625 11.84375 
Q 23.34375 6.203125 30.609375 6.203125 
Q 37.796875 6.203125 41.984375 11.859375 
Q 46.1875 17.53125 46.1875 27.296875 
Q 46.1875 37.015625 41.984375 42.703125 
Q 37.796875 48.390625 30.609375 48.390625 
z
M 30.609375 56 
Q 42.328125 56 49.015625 48.375 
Q 55.71875 40.765625 55.71875 27.296875 
Q 55.71875 13.875 49.015625 6.21875 
Q 42.328125 -1.421875 30.609375 -1.421875 
Q 18.84375 -1.421875 12.171875 6.21875 
Q 5.515625 13.875 5.515625 27.296875 
Q 5.515625 40.765625 12.171875 48.375 
Q 18.84375 56 30.609375 56 
z
" id="DejaVuSans-111"/>
       <path d="M 8.5 21.578125 
L 8.5 54.6875 
L 17.484375 54.6875 
L 17.484375 21.921875 
Q 17.484375 14.15625 20.5 10.265625 
Q 23.53125 6.390625 29.59375 6.390625 
Q 36.859375 6.390625 41.078125 11.03125 
Q 45.3125 15.671875 45.3125 23.6875 
L 45.3125 54.6875 
L 54.296875 54.6875 
L 54.296875 0 
L 45.3125 0 
L 45.3125 8.40625 
Q 42.046875 3.421875 37.71875 1 
Q 33.40625 -1.421875 27.6875 -1.421875 
Q 18.265625 -1.421875 13.375 4.4375 
Q 8.5 10.296875 8.5 21.578125 
z
M 31.109375 56 
z
" id="DejaVuSans-117"/>
       <path d="M 54.890625 33.015625 
L 54.890625 0 
L 45.90625 0 
L 45.90625 32.71875 
Q 45.90625 40.484375 42.875 44.328125 
Q 39.84375 48.1875 33.796875 48.1875 
Q 26.515625 48.1875 22.3125 43.546875 
Q 18.109375 38.921875 18.109375 30.90625 
L 18.109375 0 
L 9.078125 0 
L 9.078125 54.6875 
L 18.109375 54.6875 
L 18.109375 46.1875 
Q 21.34375 51.125 25.703125 53.5625 
Q 30.078125 56 35.796875 56 
Q 45.21875 56 50.046875 50.171875 
Q 54.890625 44.34375 54.890625 33.015625 
z
" id="DejaVuSans-110"/>
       <path d="M 18.3125 70.21875 
L 18.3125 54.6875 
L 36.8125 54.6875 
L 36.8125 47.703125 
L 18.3125 47.703125 
L 18.3125 18.015625 
Q 18.3125 11.328125 20.140625 9.421875 
Q 21.96875 7.515625 27.59375 7.515625 
L 36.8125 7.515625 
L 36.8125 0 
L 27.59375 0 
Q 17.1875 0 13.234375 3.875 
Q 9.28125 7.765625 9.28125 18.015625 
L 9.28125 47.703125 
L 2.6875 47.703125 
L 2.6875 54.6875 
L 9.28125 54.6875 
L 9.28125 70.21875 
z
" id="DejaVuSans-116"/>
       <path d="M 37.109375 75.984375 
L 37.109375 68.5 
L 28.515625 68.5 
Q 23.6875 68.5 21.796875 66.546875 
Q 19.921875 64.59375 19.921875 59.515625 
L 19.921875 54.6875 
L 34.71875 54.6875 
L 34.71875 47.703125 
L 19.921875 47.703125 
L 19.921875 0 
L 10.890625 0 
L 10.890625 47.703125 
L 2.296875 47.703125 
L 2.296875 54.6875 
L 10.890625 54.6875 
L 10.890625 58.5 
Q 10.890625 67.625 15.140625 71.796875 
Q 19.390625 75.984375 28.609375 75.984375 
z
" id="DejaVuSans-102"/>
       <path d="M 48.6875 27.296875 
Q 48.6875 37.203125 44.609375 42.84375 
Q 40.53125 48.484375 33.40625 48.484375 
Q 26.265625 48.484375 22.1875 42.84375 
Q 18.109375 37.203125 18.109375 27.296875 
Q 18.109375 17.390625 22.1875 11.75 
Q 26.265625 6.109375 33.40625 6.109375 
Q 40.53125 6.109375 44.609375 11.75 
Q 48.6875 17.390625 48.6875 27.296875 
z
M 18.109375 46.390625 
Q 20.953125 51.265625 25.265625 53.625 
Q 29.59375 56 35.59375 56 
Q 45.5625 56 51.78125 48.09375 
Q 58.015625 40.1875 58.015625 27.296875 
Q 58.015625 14.40625 51.78125 6.484375 
Q 45.5625 -1.421875 35.59375 -1.421875 
Q 29.59375 -1.421875 25.265625 0.953125 
Q 20.953125 3.328125 18.109375 8.203125 
L 18.109375 0 
L 9.078125 0 
L 9.078125 75.984375 
L 18.109375 75.984375 
z
" id="DejaVuSans-98"/>
       <path d="M 9.421875 54.6875 
L 18.40625 54.6875 
L 18.40625 -0.984375 
Q 18.40625 -11.421875 14.421875 -16.109375 
Q 10.453125 -20.796875 1.609375 -20.796875 
L -1.8125 -20.796875 
L -1.8125 -13.1875 
L 0.59375 -13.1875 
Q 5.71875 -13.1875 7.5625 -10.8125 
Q 9.421875 -8.453125 9.421875 -0.984375 
z
M 9.421875 75.984375 
L 18.40625 75.984375 
L 18.40625 64.59375 
L 9.421875 64.59375 
z
" id="DejaVuSans-106"/>
       <path d="M 56.203125 29.59375 
L 56.203125 25.203125 
L 14.890625 25.203125 
Q 15.484375 15.921875 20.484375 11.0625 
Q 25.484375 6.203125 34.421875 6.203125 
Q 39.59375 6.203125 44.453125 7.46875 
Q 49.3125 8.734375 54.109375 11.28125 
L 54.109375 2.78125 
Q 49.265625 0.734375 44.1875 -0.34375 
Q 39.109375 -1.421875 33.890625 -1.421875 
Q 20.796875 -1.421875 13.15625 6.1875 
Q 5.515625 13.8125 5.515625 26.8125 
Q 5.515625 40.234375 12.765625 48.109375 
Q 20.015625 56 32.328125 56 
Q 43.359375 56 49.78125 48.890625 
Q 56.203125 41.796875 56.203125 29.59375 
z
M 47.21875 32.234375 
Q 47.125 39.59375 43.09375 43.984375 
Q 39.0625 48.390625 32.421875 48.390625 
Q 24.90625 48.390625 20.390625 44.140625 
Q 15.875 39.890625 15.1875 32.171875 
z
" id="DejaVuSans-101"/>
       <path d="M 48.78125 52.59375 
L 48.78125 44.1875 
Q 44.96875 46.296875 41.140625 47.34375 
Q 37.3125 48.390625 33.40625 48.390625 
Q 24.65625 48.390625 19.8125 42.84375 
Q 14.984375 37.3125 14.984375 27.296875 
Q 14.984375 17.28125 19.8125 11.734375 
Q 24.65625 6.203125 33.40625 6.203125 
Q 37.3125 6.203125 41.140625 7.25 
Q 44.96875 8.296875 48.78125 10.40625 
L 48.78125 2.09375 
Q 45.015625 0.34375 40.984375 -0.53125 
Q 36.96875 -1.421875 32.421875 -1.421875 
Q 20.0625 -1.421875 12.78125 6.34375 
Q 5.515625 14.109375 5.515625 27.296875 
Q 5.515625 40.671875 12.859375 48.328125 
Q 20.21875 56 33.015625 56 
Q 37.15625 56 41.109375 55.140625 
Q 45.0625 54.296875 48.78125 52.59375 
z
" id="DejaVuSans-99"/>
       <path d="M 44.28125 53.078125 
L 44.28125 44.578125 
Q 40.484375 46.53125 36.375 47.5 
Q 32.28125 48.484375 27.875 48.484375 
Q 21.1875 48.484375 17.84375 46.4375 
Q 14.5 44.390625 14.5 40.28125 
Q 14.5 37.15625 16.890625 35.375 
Q 19.28125 33.59375 26.515625 31.984375 
L 29.59375 31.296875 
Q 39.15625 29.25 43.1875 25.515625 
Q 47.21875 21.78125 47.21875 15.09375 
Q 47.21875 7.46875 41.1875 3.015625 
Q 35.15625 -1.421875 24.609375 -1.421875 
Q 20.21875 -1.421875 15.453125 -0.5625 
Q 10.6875 0.296875 5.421875 2 
L 5.421875 11.28125 
Q 10.40625 8.6875 15.234375 7.390625 
Q 20.0625 6.109375 24.8125 6.109375 
Q 31.15625 6.109375 34.5625 8.28125 
Q 37.984375 10.453125 37.984375 14.40625 
Q 37.984375 18.0625 35.515625 20.015625 
Q 33.0625 21.96875 24.703125 23.78125 
L 21.578125 24.515625 
Q 13.234375 26.265625 9.515625 29.90625 
Q 5.8125 33.546875 5.8125 39.890625 
Q 5.8125 47.609375 11.28125 51.796875 
Q 16.75 56 26.8125 56 
Q 31.78125 56 36.171875 55.265625 
Q 40.578125 54.546875 44.28125 53.078125 
z
" id="DejaVuSans-115"/>
       <path d="M 9.421875 54.6875 
L 18.40625 54.6875 
L 18.40625 0 
L 9.421875 0 
z
M 9.421875 75.984375 
L 18.40625 75.984375 
L 18.40625 64.59375 
L 9.421875 64.59375 
z
" id="DejaVuSans-105"/>
       <path d="M 34.28125 27.484375 
Q 23.390625 27.484375 19.1875 25 
Q 14.984375 22.515625 14.984375 16.5 
Q 14.984375 11.71875 18.140625 8.90625 
Q 21.296875 6.109375 26.703125 6.109375 
Q 34.1875 6.109375 38.703125 11.40625 
Q 43.21875 16.703125 43.21875 25.484375 
L 43.21875 27.484375 
z
M 52.203125 31.203125 
L 52.203125 0 
L 43.21875 0 
L 43.21875 8.296875 
Q 40.140625 3.328125 35.546875 0.953125 
Q 30.953125 -1.421875 24.3125 -1.421875 
Q 15.921875 -1.421875 10.953125 3.296875 
Q 6 8.015625 6 15.921875 
Q 6 25.140625 12.171875 29.828125 
Q 18.359375 34.515625 30.609375 34.515625 
L 43.21875 34.515625 
L 43.21875 35.40625 
Q 43.21875 41.609375 39.140625 45 
Q 35.0625 48.390625 27.6875 48.390625 
Q 23 48.390625 18.546875 47.265625 
Q 14.109375 46.140625 10.015625 43.890625 
L 10.015625 52.203125 
Q 14.9375 54.109375 19.578125 55.046875 
Q 24.21875 56 28.609375 56 
Q 40.484375 56 46.34375 49.84375 
Q 52.203125 43.703125 52.203125 31.203125 
z
" id="DejaVuSans-97"/>
       <path d="M 9.421875 75.984375 
L 18.40625 75.984375 
L 18.40625 0 
L 9.421875 0 
z
" id="DejaVuSans-108"/>
      </defs>
      <use xlink:href="#DejaVuSans-65"/>
      <use x="68.408203" xlink:href="#DejaVuSans-109"/>
      <use x="165.820312" xlink:href="#DejaVuSans-111"/>
      <use x="227.001953" xlink:href="#DejaVuSans-117"/>
      <use x="290.380859" xlink:href="#DejaVuSans-110"/>
      <use x="353.759766" xlink:href="#DejaVuSans-116"/>
      <use x="392.96875" xlink:href="#DejaVuSans-32"/>
      <use x="424.755859" xlink:href="#DejaVuSans-111"/>
      <use x="485.9375" xlink:href="#DejaVuSans-102"/>
      <use x="521.142578" xlink:href="#DejaVuSans-32"/>
      <use x="552.929688" xlink:href="#DejaVuSans-111"/>
      <use x="614.111328" xlink:href="#DejaVuSans-98"/>
      <use x="677.587891" xlink:href="#DejaVuSans-106"/>
      <use x="705.371094" xlink:href="#DejaVuSans-101"/>
      <use x="766.894531" xlink:href="#DejaVuSans-99"/>
      <use x="821.875" xlink:href="#DejaVuSans-116"/>
      <use x="861.083984" xlink:href="#DejaVuSans-115"/>
      <use x="913.183594" xlink:href="#DejaVuSans-32"/>
      <use x="944.970703" xlink:href="#DejaVuSans-105"/>
      <use x="972.753906" xlink:href="#DejaVuSans-110"/>
      <use x="1036.132812" xlink:href="#DejaVuSans-32"/>
      <use x="1067.919922" xlink:href="#DejaVuSans-116"/>
      <use x="1107.128906" xlink:href="#DejaVuSans-97"/>
      <use x="1168.408203" xlink:href="#DejaVuSans-98"/>
      <use x="1231.884766" xlink:href="#DejaVuSans-108"/>
      <use x="1259.667969" xlink:href="#DejaVuSans-101"/>
     </g>
    </g>
   </g>
   <g id="matplotlib.axis_2">
    <g id="ytick_1">
     <g id="line2d_10">
      <defs>
       <path d="M 0 0 
L -3.5 0 
" id="mac8dfb5835" style="stroke:#000000;stroke-width:0.8;"/>
      </defs>
      <g>
       <use style="stroke:#000000;stroke-width:0.8;" x="58.73125" xlink:href="#mac8dfb5835" y="288.430125"/>
      </g>
     </g>
     <g id="text_11">
      <!-- 0 -->
      <g transform="translate(45.36875 292.229344)scale(0.1 -0.1)">
       <use xlink:href="#DejaVuSans-48"/>
      </g>
     </g>
    </g>
    <g id="ytick_2">
     <g id="line2d_11">
      <g>
       <use style="stroke:#000000;stroke-width:0.8;" x="58.73125" xlink:href="#mac8dfb5835" y="235.293843"/>
      </g>
     </g>
     <g id="text_12">
      <!-- 2 ms -->
      <g transform="translate(27.240625 239.093062)scale(0.1 -0.1)">
       <use xlink:href="#DejaVuSans-50"/>
       <use x="63.623047" xlink:href="#DejaVuSans-32"/>
       <use x="95.410156" xlink:href="#DejaVuSans-109"/>
       <use x="192.822266" xlink:href="#DejaVuSans-115"/>
      </g>
     </g>
    </g>
    <g id="ytick_3">
     <g id="line2d_12">
      <g>
       <use style="stroke:#000000;stroke-width:0.8;" x="58.73125" xlink:href="#mac8dfb5835" y="182.157561"/>
      </g>
     </g>
     <g id="text_13">
      <!-- 4 ms -->
      <g transform="translate(27.240625 185.956779)scale(0.1 -0.1)">
       <use xlink:href="#DejaVuSans-52"/>
       <use x="63.623047" xlink:href="#DejaVuSans-32"/>
       <use x="95.410156" xlink:href="#DejaVuSans-109"/>
       <use x="192.822266" xlink:href="#DejaVuSans-115"/>
      </g>
     </g>
    </g>
    <g id="ytick_4">
     <g id="line2d_13">
      <g>
       <use style="stroke:#000000;stroke-width:0.8;" x="58.73125" xlink:href="#mac8dfb5835" y="129.021278"/>
      </g>
     </g>
     <g id="text_14">
      <!-- 6 ms -->
      <g transform="translate(27.240625 132.820497)scale(0.1 -0.1)">
       <defs>
        <path d="M 33.015625 40.375 
Q 26.375 40.375 22.484375 35.828125 
Q 18.609375 31.296875 18.609375 23.390625 
Q 18.609375 15.53125 22.484375 10.953125 
Q 26.375 6.390625 33.015625 6.390625 
Q 39.65625 6.390625 43.53125 10.953125 
Q 47.40625 15.53125 47.40625 23.390625 
Q 47.40625 31.296875 43.53125 35.828125 
Q 39.65625 40.375 33.015625 40.375 
z
M 52.59375 71.296875 
L 52.59375 62.3125 
Q 48.875 64.0625 45.09375 64.984375 
Q 41.3125 65.921875 37.59375 65.921875 
Q 27.828125 65.921875 22.671875 59.328125 
Q 17.53125 52.734375 16.796875 39.40625 
Q 19.671875 43.65625 24.015625 45.921875 
Q 28.375 48.1875 33.59375 48.1875 
Q 44.578125 48.1875 50.953125 41.515625 
Q 57.328125 34.859375 57.328125 23.390625 
Q 57.328125 12.15625 50.6875 5.359375 
Q 44.046875 -1.421875 33.015625 -1.421875 
Q 20.359375 -1.421875 13.671875 8.265625 
Q 6.984375 17.96875 6.984375 36.375 
Q 6.984375 53.65625 15.1875 63.9375 
Q 23.390625 74.21875 37.203125 74.21875 
Q 40.921875 74.21875 44.703125 73.484375 
Q 48.484375 72.75 52.59375 71.296875 
z
" id="DejaVuSans-54"/>
       </defs>
       <use xlink:href="#DejaVuSans-54"/>
       <use x="63.623047" xlink:href="#DejaVuSans-32"/>
       <use x="95.410156" xlink:href="#DejaVuSans-109"/>
       <use x="192.822266" xlink:href="#DejaVuSans-115"/>
      </g>
     </g>
    </g>
    <g id="ytick_5">
     <g id="line2d_14">
      <g>
       <use style="stroke:#000000;stroke-width:0.8;" x="58.73125" xlink:href="#mac8dfb5835" y="75.884996"/>
      </g>
     </g>
     <g id="text_15">
      <!-- 8 ms -->
      <g transform="translate(27.240625 79.684215)scale(0.1 -0.1)">
       <defs>
        <path d="M 31.78125 34.625 
Q 24.75 34.625 20.71875 30.859375 
Q 16.703125 27.09375 16.703125 20.515625 
Q 16.703125 13.921875 20.71875 10.15625 
Q 24.75 6.390625 31.78125 6.390625 
Q 38.8125 6.390625 42.859375 10.171875 
Q 46.921875 13.96875 46.921875 20.515625 
Q 46.921875 27.09375 42.890625 30.859375 
Q 38.875 34.625 31.78125 34.625 
z
M 21.921875 38.8125 
Q 15.578125 40.375 12.03125 44.71875 
Q 8.5 49.078125 8.5 55.328125 
Q 8.5 64.0625 14.71875 69.140625 
Q 20.953125 74.21875 31.78125 74.21875 
Q 42.671875 74.21875 48.875 69.140625 
Q 55.078125 64.0625 55.078125 55.328125 
Q 55.078125 49.078125 51.53125 44.71875 
Q 48 40.375 41.703125 38.8125 
Q 48.828125 37.15625 52.796875 32.3125 
Q 56.78125 27.484375 56.78125 20.515625 
Q 56.78125 9.90625 50.3125 4.234375 
Q 43.84375 -1.421875 31.78125 -1.421875 
Q 19.734375 -1.421875 13.25 4.234375 
Q 6.78125 9.90625 6.78125 20.515625 
Q 6.78125 27.484375 10.78125 32.3125 
Q 14.796875 37.15625 21.921875 38.8125 
z
M 18.3125 54.390625 
Q 18.3125 48.734375 21.84375 45.5625 
Q 25.390625 42.390625 31.78125 42.390625 
Q 38.140625 42.390625 41.71875 45.5625 
Q 45.3125 48.734375 45.3125 54.390625 
Q 45.3125 60.0625 41.71875 63.234375 
Q 38.140625 66.40625 31.78125 66.40625 
Q 25.390625 66.40625 21.84375 63.234375 
Q 18.3125 60.0625 18.3125 54.390625 
z
" id="DejaVuSans-56"/>
       </defs>
       <use xlink:href="#DejaVuSans-56"/>
       <use x="63.623047" xlink:href="#DejaVuSans-32"/>
       <use x="95.410156" xlink:href="#DejaVuSans-109"/>
       <use x="192.822266" xlink:href="#DejaVuSans-115"/>
      </g>
     </g>
    </g>
    <g id="ytick_6">
     <g id="line2d_15">
      <g>
       <use style="stroke:#000000;stroke-width:0.8;" x="58.73125" xlink:href="#mac8dfb5835" y="22.748714"/>
      </g>
     </g>
     <g id="text_16">
      <!-- 10 ms -->
      <g transform="translate(20.878125 26.547933)scale(0.1 -0.1)">
       <use xlink:href="#DejaVuSans-49"/>
       <use x="63.623047" xlink:href="#DejaVuSans-48"/>
       <use x="127.246094" xlink:href="#DejaVuSans-32"/>
       <use x="159.033203" xlink:href="#DejaVuSans-109"/>
       <use x="256.445312" xlink:href="#DejaVuSans-115"/>
      </g>
     </g>
    </g>
    <g id="text_17">
     <!-- Read latency (s) -->
     <g transform="translate(14.798437 195.98975)rotate(-90)scale(0.1 -0.1)">
      <defs>
       <path d="M 44.390625 34.1875 
Q 47.5625 33.109375 50.5625 29.59375 
Q 53.5625 26.078125 56.59375 19.921875 
L 66.609375 0 
L 56 0 
L 46.6875 18.703125 
Q 43.0625 26.03125 39.671875 28.421875 
Q 36.28125 30.8125 30.421875 30.8125 
L 19.671875 30.8125 
L 19.671875 0 
L 9.8125 0 
L 9.8125 72.90625 
L 32.078125 72.90625 
Q 44.578125 72.90625 50.734375 67.671875 
Q 56.890625 62.453125 56.890625 51.90625 
Q 56.890625 45.015625 53.6875 40.46875 
Q 50.484375 35.9375 44.390625 34.1875 
z
M 19.671875 64.796875 
L 19.671875 38.921875 
L 32.078125 38.921875 
Q 39.203125 38.921875 42.84375 42.21875 
Q 46.484375 45.515625 46.484375 51.90625 
Q 46.484375 58.296875 42.84375 61.546875 
Q 39.203125 64.796875 32.078125 64.796875 
z
" id="DejaVuSans-82"/>
       <path d="M 45.40625 46.390625 
L 45.40625 75.984375 
L 54.390625 75.984375 
L 54.390625 0 
L 45.40625 0 
L 45.40625 8.203125 
Q 42.578125 3.328125 38.25 0.953125 
Q 33.9375 -1.421875 27.875 -1.421875 
Q 17.96875 -1.421875 11.734375 6.484375 
Q 5.515625 14.40625 5.515625 27.296875 
Q 5.515625 40.1875 11.734375 48.09375 
Q 17.96875 56 27.875 56 
Q 33.9375 56 38.25 53.625 
Q 42.578125 51.265625 45.40625 46.390625 
z
M 14.796875 27.296875 
Q 14.796875 17.390625 18.875 11.75 
Q 22.953125 6.109375 30.078125 6.109375 
Q 37.203125 6.109375 41.296875 11.75 
Q 45.40625 17.390625 45.40625 27.296875 
Q 45.40625 37.203125 41.296875 42.84375 
Q 37.203125 48.484375 30.078125 48.484375 
Q 22.953125 48.484375 18.875 42.84375 
Q 14.796875 37.203125 14.796875 27.296875 
z
" id="DejaVuSans-100"/>
       <path d="M 32.171875 -5.078125 
Q 28.375 -14.84375 24.75 -17.8125 
Q 21.140625 -20.796875 15.09375 -20.796875 
L 7.90625 -20.796875 
L 7.90625 -13.28125 
L 13.1875 -13.28125 
Q 16.890625 -13.28125 18.9375 -11.515625 
Q 21 -9.765625 23.484375 -3.21875 
L 25.09375 0.875 
L 2.984375 54.6875 
L 12.5 54.6875 
L 29.59375 11.921875 
L 46.6875 54.6875 
L 56.203125 54.6875 
z
" id="DejaVuSans-121"/>
       <path d="M 31 75.875 
Q 24.46875 64.65625 21.28125 53.65625 
Q 18.109375 42.671875 18.109375 31.390625 
Q 18.109375 20.125 21.3125 9.0625 
Q 24.515625 -2 31 -13.1875 
L 23.1875 -13.1875 
Q 15.875 -1.703125 12.234375 9.375 
Q 8.59375 20.453125 8.59375 31.390625 
Q 8.59375 42.28125 12.203125 53.3125 
Q 15.828125 64.359375 23.1875 75.875 
z
" id="DejaVuSans-40"/>
       <path d="M 8.015625 75.875 
L 15.828125 75.875 
Q 23.140625 64.359375 26.78125 53.3125 
Q 30.421875 42.28125 30.421875 31.390625 
Q 30.421875 20.453125 26.78125 9.375 
Q 23.140625 -1.703125 15.828125 -13.1875 
L 8.015625 -13.1875 
Q 14.5 -2 17.703125 9.0625 
Q 20.90625 20.125 20.90625 31.390625 
Q 20.90625 42.671875 17.703125 53.65625 
Q 14.5 64.65625 8.015625 75.875 
z
" id="DejaVuSans-41"/>
      </defs>
      <use xlink:href="#DejaVuSans-82"/>
      <use x="64.982422" xlink:href="#DejaVuSans-101"/>
      <use x="126.505859" xlink:href="#DejaVuSans-97"/>
      <use x="187.785156" xlink:href="#DejaVuSans-100"/>
      <use x="251.261719" xlink:href="#DejaVuSans-32"/>
      <use x="283.048828" xlink:href="#DejaVuSans-108"/>
      <use x="310.832031" xlink:href="#DejaVuSans-97"/>
      <use x="372.111328" xlink:href="#DejaVuSans-116"/>
      <use x="411.320312" xlink:href="#DejaVuSans-101"/>
      <use x="472.84375" xlink:href="#DejaVuSans-110"/>
      <use x="536.222656" xlink:href="#DejaVuSans-99"/>
      <use x="591.203125" xlink:href="#DejaVuSans-121"/>
      <use x="650.382812" xlink:href="#DejaVuSans-32"/>
      <use x="682.169922" xlink:href="#DejaVuSans-40"/>
      <use x="721.183594" xlink:href="#DejaVuSans-115"/>
      <use x="773.283203" xlink:href="#DejaVuSans-41"/>
     </g>
    </g>
   </g>
   <g id="line2d_16">
    <path clip-path="url(#p55367169d0)" d="M 144.086436 235.633057 
L 145.392893 235.768287 
L 145.828378 235.911865 
L 146.263864 235.677689 
L 146.69935 235.578744 
L 147.134835 234.396691 
L 148.005806 234.502004 
L 148.441292 234.385582 
L 150.183235 234.366774 
L 151.489692 234.251943 
L 152.796148 234.097061 
L 154.102605 234.158098 
L 154.973577 234.25909 
L 156.280034 234.298655 
L 157.586491 234.214295 
L 158.021976 234.349817 
L 158.457462 234.330392 
L 158.892947 234.488588 
L 159.763919 234.424173 
L 160.199404 234.561774 
L 160.63489 234.492421 
L 162.812318 234.775517 
L 164.118775 234.626774 
L 167.60266 234.541179 
L 168.473632 234.753948 
L 169.344603 234.689695 
L 170.65106 234.978054 
L 172.393002 234.928938 
L 173.699459 234.540984 
L 175.441402 234.637591 
L 176.312373 235.107274 
L 178.489801 235.219213 
L 181.973686 235.65547 
L 182.409172 235.641048 
L 183.280143 235.855668 
L 183.715629 235.779786 
L 184.5866 235.786478 
L 186.764028 235.762927 
L 188.070485 235.718619 
L 188.941457 235.847417 
L 189.376942 235.748114 
L 190.683399 235.799406 
L 191.118885 235.714883 
L 191.989856 235.737752 
L 192.425342 235.58196 
L 194.167284 235.672784 
L 195.473741 235.488504 
L 196.344713 235.672524 
L 197.65117 235.559383 
L 199.393112 235.433281 
L 200.264083 235.713422 
L 201.57054 235.498866 
L 202.006026 235.749316 
L 202.441512 235.479343 
L 204.183454 235.573611 
L 204.61894 235.669341 
L 205.054425 235.885131 
L 205.489911 235.954776 
L 206.360882 235.955198 
L 206.796368 235.924404 
L 207.231854 236.339612 
L 207.667339 236.509047 
L 208.102825 236.556798 
L 208.538311 236.460289 
L 209.844767 236.700864 
L 210.280253 236.569044 
L 211.151224 236.579342 
L 211.58671 236.71808 
L 212.022196 236.593895 
L 212.457681 236.735654 
L 212.893167 236.644439 
L 213.764138 236.835412 
L 214.63511 236.73299 
L 215.506081 236.875951 
L 217.248023 236.773043 
L 217.683509 236.441838 
L 219.425452 236.535391 
L 221.167394 236.714799 
L 221.60288 236.541856 
L 222.038365 236.536561 
L 222.473851 236.67728 
L 223.780308 236.484067 
L 226.828707 236.619199 
L 228.57065 236.519442 
L 229.006136 236.707425 
L 230.748078 236.564042 
L 231.183564 236.831773 
L 231.61905 236.900639 
L 232.054535 238.117936 
L 232.925506 238.19593 
L 233.360992 238.267492 
L 234.231963 238.131092 
L 235.53842 238.13616 
L 236.409392 238.07116 
L 236.844877 237.80999 
L 237.280363 237.857384 
L 237.715849 237.753696 
L 238.58682 237.826232 
L 239.457791 237.786569 
L 240.764248 237.70065 
L 244.248133 237.326274 
L 244.683619 237.409595 
L 247.296533 237.253575 
L 250.344932 237.380619 
L 250.780418 237.204427 
L 252.52236 237.090702 
L 252.957846 236.902458 
L 258.183674 236.738707 
L 258.619159 236.841843 
L 259.490131 236.707718 
L 260.796587 236.717983 
L 261.667559 236.550594 
L 262.103044 236.502063 
L 262.53853 236.095268 
L 263.409501 235.958804 
L 264.715958 236.05671 
L 267.764358 236.25249 
L 269.070815 236.214224 
L 271.248243 236.201523 
L 272.119214 236.240406 
L 276.474071 236.359264 
L 276.909556 236.095496 
L 277.345042 236.311838 
L 277.780527 236.184891 
L 280.393441 236.204382 
L 281.264413 236.022765 
L 281.699898 236.040273 
L 282.135384 235.946493 
L 282.57087 236.047907 
L 283.006355 235.95234 
L 283.441841 236.073342 
L 285.619269 235.940126 
L 286.054755 235.564288 
L 286.925726 235.412947 
L 287.361212 235.752759 
L 289.103154 235.840563 
L 291.716068 235.845111 
L 293.893496 236.091143 
L 294.764467 235.943894 
L 295.199953 236.218317 
L 296.50641 236.172255 
L 297.812867 236.235306 
L 298.683838 236.050246 
L 299.119324 236.196618 
L 301.296752 236.042385 
L 302.167723 236.079709 
L 302.603209 236.405684 
L 304.345152 236.226503 
L 305.216123 236.275878 
L 305.651609 235.939476 
L 306.087094 235.905531 
L 306.52258 236.069087 
L 307.393551 236.027767 
L 307.829037 236.201425 
L 309.570979 236.373232 
L 310.441951 236.479519 
L 312.619379 236.621051 
L 313.054864 236.370374 
L 313.49035 236.399284 
L 314.796807 236.10628 
L 315.232293 236.26844 
L 316.103264 236.143669 
L 316.53875 235.923169 
L 318.716178 235.83595 
L 319.587149 236.038487 
L 320.45812 236.118332 
L 320.893606 236.218512 
L 321.329092 236.17232 
L 321.764577 236.523177 
L 322.200063 236.476108 
L 322.635549 236.617965 
L 323.071034 236.525906 
L 323.942005 236.580154 
L 325.248462 236.543317 
L 325.683948 236.663767 
L 326.554919 236.720029 
L 327.425891 236.884917 
L 328.296862 236.985259 
L 329.603319 236.831773 
L 331.345261 236.927536 
L 332.216233 236.915841 
L 333.087204 236.625566 
L 333.958175 236.537405 
L 334.393661 236.648597 
L 336.135603 235.944706 
L 336.571089 235.898254 
L 337.006575 235.994049 
L 338.748517 235.827635 
L 339.184003 235.846248 
L 339.619489 235.630133 
L 341.361431 235.453096 
L 343.103374 235.618926 
L 343.538859 235.555843 
L 343.974345 235.626657 
L 344.845316 235.406807 
L 347.022744 235.377604 
L 347.45823 235.787322 
L 348.764687 235.637345 
L 350.071144 235.504064 
L 350.50663 235.598202 
L 350.942115 235.514653 
L 351.813086 235.751038 
L 352.684058 235.652677 
L 353.555029 235.742982 
L 354.426 235.725635 
L 354.861486 235.828707 
L 355.296972 235.702507 
L 355.732457 235.739571 
L 356.167943 235.520046 
L 357.4744 235.539016 
L 360.087314 235.338851 
L 360.522799 234.849613 
L 360.958285 234.946155 
L 361.393771 234.867381 
L 361.829256 235.06001 
L 362.264742 234.876867 
L 364.006684 234.764798 
L 365.748627 234.731339 
L 366.619598 234.734718 
L 367.055084 234.71565 
L 367.49057 234.019035 
L 368.797026 234.058243 
L 370.538969 234.129869 
L 370.974455 234.511327 
L 371.40994 234.632329 
L 372.716397 234.584545 
L 373.151883 234.479005 
L 373.587369 234.531142 
L 374.45834 234.316911 
L 375.764797 234.121684 
L 376.200282 234.148255 
L 376.635768 233.929607 
L 377.942225 233.685296 
L 378.813196 233.322777 
L 379.248682 233.325311 
L 380.119653 233.046113 
L 381.861596 233.101075 
L 383.168053 233.058327 
L 383.603538 233.152725 
L 385.780966 232.88246 
L 386.651938 232.761847 
L 387.087423 232.753889 
L 387.522909 232.532187 
L 387.958395 232.467901 
L 388.829366 232.627722 
L 389.700337 232.391045 
L 390.135823 232.174833 
L 390.571309 232.466147 
L 392.748737 232.257764 
L 393.619708 232.107819 
L 394.055194 232.191172 
L 394.490679 231.814782 
L 394.926165 231.602923 
L 397.539079 231.455187 
L 397.974564 231.658795 
L 398.845536 231.632873 
L 398.845536 231.632873 
" style="fill:none;stroke:#1f77b4;stroke-linecap:square;stroke-opacity:0.8;stroke-width:1.5;"/>
   </g>
   <g id="line2d_17">
    <path clip-path="url(#p55367169d0)" d="M 144.086436 216.691273 
L 145.828378 216.395378 
L 146.263864 216.368579 
L 146.69935 216.491076 
L 148.005806 216.323947 
L 148.441292 215.917899 
L 148.876778 215.942944 
L 149.312263 215.562819 
L 150.183235 215.656957 
L 150.61872 215.568439 
L 151.054206 217.257108 
L 152.796148 217.15355 
L 153.231634 216.925871 
L 153.66712 217.125029 
L 154.102605 216.505498 
L 154.973577 216.415291 
L 155.409062 216.00645 
L 157.151005 215.818596 
L 157.586491 215.700713 
L 158.892947 215.853614 
L 159.328433 215.85579 
L 160.199404 216.366013 
L 162.376833 216.456903 
L 162.812318 216.136515 
L 163.247804 216.285323 
L 163.68329 216.759976 
L 164.118775 216.453719 
L 164.554261 216.729409 
L 166.731689 216.873897 
L 168.038146 216.8024 
L 168.473632 216.952963 
L 169.344603 216.73792 
L 170.215574 216.919115 
L 172.828488 216.955496 
L 173.699459 217.082281 
L 175.005916 217.158423 
L 175.441402 217.228685 
L 175.876887 217.177458 
L 176.747859 217.349297 
L 177.61883 217.379377 
L 178.054316 217.493265 
L 178.489801 220.678041 
L 180.231744 220.674403 
L 180.66723 220.515557 
L 181.102715 220.593258 
L 181.973686 220.416222 
L 183.280143 220.257928 
L 184.5866 220.183995 
L 185.022086 220.280797 
L 185.457572 220.117923 
L 185.893057 220.195949 
L 186.328543 220.086511 
L 188.070485 220.212613 
L 188.941457 220.13358 
L 189.376942 220.193773 
L 189.812428 220.007381 
L 190.683399 219.923443 
L 191.554371 220.204005 
L 191.989856 219.754624 
L 192.425342 219.774115 
L 192.860827 219.667925 
L 193.296313 219.942738 
L 197.65117 220.065722 
L 198.086655 220.212808 
L 198.522141 220.121431 
L 199.393112 220.130949 
L 200.264083 219.986916 
L 201.135055 219.972688 
L 201.57054 220.172658 
L 202.441512 220.075077 
L 203.747968 220.252178 
L 204.183454 220.316496 
L 205.489911 220.125687 
L 205.925397 219.831968 
L 206.360882 219.740429 
L 206.796368 219.764272 
L 207.667339 219.547508 
L 209.409282 219.572033 
L 210.280253 219.803902 
L 210.715739 219.601463 
L 211.151224 219.775024 
L 212.457681 219.81251 
L 213.764138 219.746373 
L 215.070595 219.589542 
L 216.377052 219.66289 
L 216.812538 219.419684 
L 217.683509 219.399479 
L 218.118995 219.229426 
L 218.55448 219.301605 
L 218.989966 219.217992 
L 219.425452 219.394736 
L 220.296423 219.366281 
L 222.038365 219.204869 
L 222.473851 219.028807 
L 222.909337 219.17271 
L 223.344822 219.011428 
L 224.651279 218.952957 
L 226.393222 218.698057 
L 226.828707 218.682854 
L 227.264193 218.990736 
L 229.877107 219.08104 
L 230.312593 219.313072 
L 231.61905 219.176023 
L 232.490021 218.978522 
L 232.925506 218.966145 
L 233.360992 219.23719 
L 233.796478 219.271298 
L 234.231963 219.557773 
L 235.102935 219.269381 
L 235.973906 219.117747 
L 236.409392 219.209092 
L 238.151334 218.852062 
L 238.58682 218.575235 
L 239.022305 218.050655 
L 239.457791 217.836424 
L 239.893277 217.884435 
L 240.328762 218.233376 
L 241.635219 218.208201 
L 242.070705 218.394463 
L 243.812647 218.152816 
L 244.248133 218.180947 
L 244.683619 217.959245 
L 245.55459 217.925527 
L 245.990076 217.990202 
L 246.425561 217.846299 
L 246.861047 218.051012 
L 247.296533 217.956549 
L 247.732018 218.337974 
L 248.60299 218.322414 
L 249.038475 218.528426 
L 250.344932 218.430683 
L 250.780418 218.318224 
L 251.215903 218.370068 
L 251.651389 218.244356 
L 252.957846 218.345997 
L 253.828817 218.343204 
L 254.699789 218.487757 
L 256.441731 218.478174 
L 257.312702 218.362597 
L 258.183674 218.526672 
L 258.619159 218.386894 
L 259.054645 218.377052 
L 259.925616 218.096262 
L 260.361102 218.235228 
L 262.103044 218.197417 
L 262.53853 217.973019 
L 264.280473 217.930237 
L 264.715958 217.858903 
L 265.151444 217.66413 
L 265.58693 217.651656 
L 266.022415 217.178822 
L 266.457901 217.161151 
L 267.328872 217.513925 
L 268.199843 217.635642 
L 269.070815 217.86972 
L 269.941786 217.901652 
L 270.377272 218.031782 
L 272.119214 217.978833 
L 272.5547 217.238852 
L 272.990185 216.814094 
L 273.861157 216.828615 
L 274.732128 216.665124 
L 275.167614 216.691338 
L 275.603099 216.477075 
L 276.038585 216.51794 
L 276.474071 216.420293 
L 276.909556 216.759229 
L 279.086984 216.437347 
L 279.957956 216.280938 
L 280.393441 215.914294 
L 280.828927 215.868849 
L 281.699898 215.646855 
L 282.57087 215.642209 
L 283.441841 215.750056 
L 283.877326 215.902307 
L 284.312812 215.733976 
L 289.53864 215.977799 
L 289.974125 216.299226 
L 291.280582 216.831961 
L 291.716068 216.791193 
L 292.151554 216.92337 
L 294.764467 216.924604 
L 295.199953 216.873215 
L 295.635439 217.136204 
L 296.070924 216.904139 
L 296.941896 216.878217 
L 297.812867 217.07848 
L 298.683838 216.986681 
L 299.119324 216.956991 
L 300.861266 217.218907 
L 301.296752 217.183305 
L 301.732238 217.339032 
L 302.167723 217.227451 
L 303.47418 217.233363 
L 304.345152 217.209422 
L 304.780637 217.338383 
L 305.651609 217.186683 
L 306.52258 217.32958 
L 306.958065 217.284785 
L 307.393551 217.400687 
L 307.829037 217.2587 
L 308.264522 217.406891 
L 310.877436 217.621999 
L 311.312922 217.659063 
L 311.748407 217.854713 
L 312.619379 217.921239 
L 313.054864 218.053578 
L 315.667778 218.09519 
L 316.974235 218.357594 
L 317.845206 218.465018 
L 318.716178 218.624286 
L 319.151663 218.558474 
L 319.587149 218.60577 
L 320.022635 218.45667 
L 320.45812 218.584818 
L 321.764577 218.554446 
L 322.635549 218.687532 
L 323.071034 218.984336 
L 323.50652 219.122815 
L 323.942005 220.27482 
L 324.377491 220.443118 
L 325.248462 220.342873 
L 326.554919 220.517961 
L 326.990405 220.363695 
L 328.296862 220.499348 
L 330.038804 220.835035 
L 330.909776 220.984558 
L 331.345261 221.146684 
L 332.216233 220.979133 
L 332.651718 220.984818 
L 333.087204 220.338813 
L 334.393661 220.336961 
L 334.829146 219.527335 
L 337.877546 219.685239 
L 338.313032 219.757645 
L 341.796917 219.279581 
L 342.232402 219.305796 
L 343.103374 219.163419 
L 343.974345 219.236475 
L 344.845316 219.514472 
L 345.280802 219.365371 
L 345.716287 217.18886 
L 346.587259 217.071171 
L 347.893716 217.434015 
L 348.329201 217.281114 
L 349.200173 217.678163 
L 349.635658 217.681314 
L 350.50663 217.933193 
L 350.942115 218.407587 
L 351.377601 218.478206 
L 353.119543 218.23029 
L 353.555029 218.274208 
L 353.990515 218.098893 
L 354.426 217.254997 
L 355.296972 217.104532 
L 357.038914 217.247428 
L 357.4744 218.009888 
L 357.909885 218.379098 
L 359.216342 218.561982 
L 359.651828 218.633089 
L 360.087314 218.522904 
L 360.522799 218.671842 
L 360.958285 218.617075 
L 361.829256 218.772217 
L 362.264742 218.652287 
L 362.700228 218.69731 
L 363.135713 218.445788 
L 364.44217 218.618049 
L 364.877656 218.566627 
L 365.313141 218.845501 
L 365.748627 218.777674 
L 366.184113 218.924079 
L 366.619598 218.821917 
L 367.49057 218.940321 
L 368.797026 218.904069 
L 369.232512 219.128239 
L 370.538969 219.193369 
L 371.40994 219.026305 
L 371.845426 219.127752 
L 372.280912 218.943049 
L 372.716397 218.896695 
L 373.151883 218.724141 
L 373.587369 218.841862 
L 374.022854 218.749641 
L 374.45834 218.823931 
L 374.893825 218.781572 
L 375.329311 218.624351 
L 376.200282 218.545513 
L 377.071254 218.509748 
L 377.942225 218.505038 
L 378.377711 218.534793 
L 379.248682 218.033049 
L 381.861596 218.039805 
L 382.732567 217.765577 
L 384.47451 217.859942 
L 384.909995 217.44873 
L 385.780966 217.260714 
L 386.216452 217.265229 
L 386.651938 217.390032 
L 387.087423 217.288033 
L 387.522909 216.875716 
L 387.958395 216.953547 
L 388.39388 216.917198 
L 388.829366 217.033847 
L 390.571309 216.888775 
L 391.44228 216.58765 
L 391.877765 216.726063 
L 392.313251 216.720476 
L 392.748737 216.895336 
L 393.184222 216.818545 
L 393.619708 216.927138 
L 394.490679 216.845604 
L 395.361651 216.849599 
L 395.797136 216.941463 
L 396.668108 216.869707 
L 397.103593 216.427213 
L 397.974564 216.396483 
L 398.845536 216.382612 
L 398.845536 216.382612 
" style="fill:none;stroke:#ff7f0e;stroke-linecap:square;stroke-opacity:0.8;stroke-width:1.5;"/>
   </g>
   <g id="line2d_18">
    <path clip-path="url(#p55367169d0)" d="M 144.086436 203.856442 
L 146.263864 203.108892 
L 146.69935 203.211476 
L 147.134835 203.191921 
L 147.570321 202.63817 
L 148.441292 202.523599 
L 148.876778 202.615204 
L 149.312263 202.534871 
L 150.61872 202.735394 
L 151.489692 202.711421 
L 152.796148 202.935559 
L 153.231634 203.114934 
L 154.102605 203.031191 
L 154.538091 203.032718 
L 154.973577 203.484178 
L 155.409062 203.41359 
L 155.844548 203.488823 
L 156.280034 203.335434 
L 156.715519 203.391112 
L 157.151005 203.203323 
L 157.586491 203.375552 
L 158.021976 203.193058 
L 160.63489 203.085764 
L 161.070376 203.265399 
L 162.376833 203.18432 
L 163.68329 203.421484 
L 164.989746 203.346674 
L 165.860718 203.164602 
L 166.731689 203.214692 
L 167.167175 203.114122 
L 168.038146 203.205272 
L 169.344603 203.011766 
L 169.780088 202.874294 
L 171.957517 203.183703 
L 172.393002 203.162815 
L 172.828488 203.262995 
L 173.699459 203.152843 
L 174.570431 203.353885 
L 175.005916 203.306914 
L 175.441402 203.131826 
L 178.925287 203.357491 
L 179.360773 203.364572 
L 179.796258 203.174217 
L 180.66723 203.148328 
L 181.102715 202.95349 
L 181.538201 202.904894 
L 182.409172 203.11396 
L 182.844658 203.126921 
L 183.280143 203.022031 
L 184.151115 203.064162 
L 184.5866 202.952548 
L 185.022086 203.089857 
L 185.457572 204.489031 
L 185.893057 204.311864 
L 188.070485 204.597007 
L 191.118885 204.400318 
L 191.989856 204.293738 
L 192.425342 204.31141 
L 193.296313 204.148146 
L 194.167284 204.154773 
L 194.60277 204.306927 
L 195.038256 204.194565 
L 195.909227 204.422472 
L 196.780198 204.386805 
L 198.086655 204.409056 
L 198.522141 204.544091 
L 199.393112 204.413116 
L 199.828598 204.539608 
L 202.441512 204.448946 
L 202.876997 204.52629 
L 203.312483 205.806768 
L 203.747968 205.71877 
L 205.054425 206.000632 
L 206.360882 205.804722 
L 207.667339 206.069367 
L 208.102825 206.039612 
L 209.409282 206.423311 
L 209.844767 206.436564 
L 210.280253 206.625132 
L 211.151224 206.559645 
L 212.022196 206.679445 
L 212.457681 206.853136 
L 213.328653 206.77589 
L 213.764138 206.878733 
L 215.070595 206.907254 
L 216.812538 206.937919 
L 217.683509 206.874705 
L 218.55448 207.312587 
L 218.989966 208.748857 
L 219.425452 208.6389 
L 219.860937 208.780886 
L 220.296423 208.634969 
L 221.167394 208.756491 
L 222.473851 208.671708 
L 222.909337 209.432706 
L 223.344822 209.321059 
L 223.780308 209.427249 
L 225.086765 209.197199 
L 225.522251 209.351269 
L 225.957736 209.164 
L 227.699679 209.179852 
L 228.57065 209.292993 
L 230.312593 209.21932 
L 231.183564 209.557964 
L 232.054535 209.672989 
L 232.490021 210.007312 
L 232.925506 210.04012 
L 233.796478 209.916812 
L 234.667449 209.846614 
L 235.102935 209.666914 
L 235.973906 209.724735 
L 236.844877 209.712197 
L 237.280363 209.868768 
L 238.151334 209.594865 
L 239.457791 209.699106 
L 239.893277 209.506802 
L 241.635219 209.632384 
L 242.070705 209.780153 
L 242.506191 209.647651 
L 244.248133 209.870945 
L 246.425561 209.496017 
L 246.861047 209.650575 
L 247.296533 209.675847 
L 248.60299 209.352049 
L 249.473961 209.098026 
L 250.344932 209.122291 
L 251.215903 209.084675 
L 252.086875 209.14006 
L 252.52236 209.108713 
L 253.393332 209.353738 
L 253.828817 209.289323 
L 254.264303 209.402853 
L 254.699789 209.400222 
L 255.57076 209.274997 
L 258.183674 208.805607 
L 259.054645 208.794107 
L 259.925616 208.819022 
L 260.361102 208.867651 
L 261.232073 208.65394 
L 261.667559 208.361098 
L 263.409501 208.727645 
L 264.280473 208.201733 
L 264.715958 208.500779 
L 265.58693 208.279889 
L 266.022415 208.506853 
L 266.457901 208.454002 
L 266.893386 208.247243 
L 267.764358 208.108375 
L 268.199843 208.278395 
L 268.635329 208.221288 
L 269.070815 205.115383 
L 269.5063 205.109829 
L 270.377272 204.797854 
L 272.5547 205.124641 
L 272.990185 204.848367 
L 274.296642 204.95238 
L 274.732128 204.83219 
L 275.167614 204.96677 
L 275.603099 204.97632 
L 276.038585 204.724928 
L 276.909556 204.869384 
L 277.780527 204.892804 
L 278.216013 204.976255 
L 279.086984 204.975963 
L 279.957956 205.128799 
L 280.393441 204.828909 
L 281.699898 204.895566 
L 282.57087 204.799641 
L 283.006355 204.868442 
L 283.441841 205.065066 
L 283.877326 205.030146 
L 284.312812 205.188634 
L 284.748298 205.186166 
L 285.183783 204.984214 
L 285.619269 205.119119 
L 286.054755 205.007245 
L 286.925726 204.999286 
L 288.667669 204.933896 
L 289.103154 204.883027 
L 291.280582 205.293167 
L 291.716068 204.931947 
L 292.587039 204.893097 
L 294.328982 204.729931 
L 294.764467 204.596 
L 296.50641 204.6113 
L 299.119324 204.092599 
L 299.55481 204.244493 
L 299.990295 204.124368 
L 300.425781 204.197002 
L 302.167723 203.919428 
L 302.603209 203.882851 
L 303.038695 203.644745 
L 303.909666 203.64364 
L 304.345152 203.757334 
L 304.780637 203.628243 
L 305.216123 203.681679 
L 305.651609 203.18406 
L 306.087094 203.050551 
L 306.958065 203.336994 
L 308.264522 203.444223 
L 309.135494 203.235352 
L 310.006465 203.306946 
L 310.441951 203.144332 
L 310.877436 203.443086 
L 311.312922 203.506332 
L 312.183893 203.786244 
L 313.054864 203.808268 
L 313.49035 203.837146 
L 313.925836 203.728358 
L 314.361321 203.831592 
L 314.796807 203.725889 
L 315.232293 203.777474 
L 315.667778 203.654847 
L 317.845206 203.719458 
L 318.280692 203.620999 
L 318.716178 203.385784 
L 319.587149 203.574288 
L 320.022635 203.7548 
L 321.329092 203.807456 
L 322.200063 203.756944 
L 322.635549 203.886814 
L 325.683948 203.810412 
L 326.119434 203.946389 
L 326.554919 203.672129 
L 326.990405 203.532319 
L 327.425891 203.539725 
L 327.861376 203.134555 
L 328.296862 202.984285 
L 329.603319 203.048992 
L 330.47429 203.164602 
L 331.780747 203.07826 
L 332.216233 203.092261 
L 332.651718 203.324682 
L 333.087204 203.285572 
L 333.52269 202.776746 
L 335.264632 202.757158 
L 335.700118 202.920746 
L 336.571089 202.746113 
L 337.006575 202.943258 
L 337.877546 202.776518 
L 338.748517 202.470943 
L 340.054974 202.405521 
L 341.361431 202.409841 
L 342.232402 202.575054 
L 342.667888 202.489979 
L 343.103374 202.598377 
L 343.538859 202.503492 
L 343.974345 202.655646 
L 345.280802 202.804779 
L 345.716287 202.8741 
L 346.151773 202.811991 
L 346.587259 202.981848 
L 347.022744 202.955114 
L 347.45823 201.884091 
L 348.329201 201.776505 
L 349.200173 202.381678 
L 349.635658 202.221208 
L 350.071144 202.419586 
L 350.50663 202.444761 
L 350.942115 202.256323 
L 351.377601 202.264801 
L 351.813086 202.518142 
L 352.248572 202.638949 
L 353.119543 202.608934 
L 353.555029 202.698102 
L 353.990515 205.652438 
L 354.861486 205.856176 
L 355.732457 206.273755 
L 356.167943 206.29906 
L 356.603429 206.101169 
L 357.909885 206.330732 
L 358.345371 206.268103 
L 358.780857 206.385889 
L 359.216342 206.37033 
L 359.651828 206.049455 
L 360.087314 205.913802 
L 360.522799 205.906136 
L 360.958285 206.207456 
L 361.393771 206.104125 
L 361.829256 205.843345 
L 363.135713 205.899315 
L 364.006684 205.561191 
L 364.877656 205.199841 
L 365.313141 205.386071 
L 365.748627 205.218974 
L 367.055084 205.547093 
L 367.49057 205.705776 
L 368.361541 205.453507 
L 369.232512 205.47826 
L 369.667998 205.195716 
L 370.103483 205.237035 
L 371.845426 205.024266 
L 372.716397 205.02222 
L 373.151883 204.909274 
L 373.587369 205.020206 
L 375.764797 204.913562 
L 376.200282 204.765013 
L 376.635768 205.106158 
L 377.071254 204.975443 
L 377.942225 205.075363 
L 378.377711 204.943577 
L 379.248682 204.917622 
L 380.119653 205.153877 
L 380.555139 205.17798 
L 381.42611 205.45786 
L 382.732567 205.493755 
L 383.168053 204.814746 
L 384.909995 205.054249 
L 385.345481 205.00195 
L 386.216452 205.219332 
L 386.651938 205.256883 
L 387.522909 205.077475 
L 387.958395 205.31662 
L 388.39388 205.377917 
L 388.829366 205.116131 
L 389.264852 205.19289 
L 389.700337 205.122725 
L 390.135823 205.208839 
L 390.571309 205.603907 
L 391.006794 205.600399 
L 392.313251 205.241291 
L 392.748737 205.379671 
L 393.184222 205.270169 
L 395.361651 205.679075 
L 396.232622 205.728223 
L 397.539079 205.675761 
L 397.974564 205.730431 
L 398.41005 205.607318 
L 398.845536 205.661631 
L 398.845536 205.661631 
" style="fill:none;stroke:#2ca02c;stroke-linecap:square;stroke-opacity:0.8;stroke-width:1.5;"/>
   </g>
   <g id="line2d_19">
    <path clip-path="url(#p55367169d0)" d="M 144.086436 226.578396 
L 144.521921 226.778886 
L 144.957407 226.7962 
L 145.828378 226.714308 
L 146.263864 226.73029 
L 146.69935 225.986801 
L 147.134835 225.851766 
L 148.441292 226.252941 
L 148.876778 226.369915 
L 149.747749 226.192229 
L 150.183235 226.21029 
L 150.61872 226.378751 
L 151.925177 226.262199 
L 152.796148 226.144413 
L 154.538091 226.03335 
L 154.973577 226.121609 
L 155.409062 226.031174 
L 155.844548 226.149025 
L 156.280034 225.819607 
L 156.715519 226.56615 
L 158.021976 226.505665 
L 158.457462 226.699236 
L 159.328433 226.573621 
L 159.763919 226.45041 
L 161.070376 226.350555 
L 163.68329 226.136357 
L 164.989746 226.307871 
L 166.296203 226.267851 
L 167.167175 226.486207 
L 167.60266 226.398208 
L 168.038146 226.46035 
L 168.473632 226.408148 
L 170.215574 226.714373 
L 170.65106 226.537694 
L 171.522031 226.670228 
L 173.699459 226.864578 
L 174.134945 227.042914 
L 174.570431 227.03148 
L 175.441402 227.139813 
L 176.312373 227.193054 
L 178.489801 227.403841 
L 178.925287 227.436488 
L 179.796258 227.862772 
L 180.231744 228.078497 
L 180.66723 228.051763 
L 181.102715 228.161039 
L 181.973686 228.240461 
L 182.409172 228.290584 
L 183.715629 228.12745 
L 184.5866 228.308872 
L 185.022086 228.195569 
L 186.328543 228.453035 
L 186.764028 229.072988 
L 189.812428 230.058352 
L 190.247914 230.023789 
L 190.683399 229.859876 
L 191.989856 230.328162 
L 192.860827 230.366915 
L 193.731799 230.150606 
L 194.60277 230.033014 
L 195.909227 230.280833 
L 196.780198 230.10253 
L 197.65117 230.080441 
L 198.522141 230.173831 
L 199.393112 230.258647 
L 199.828598 230.175553 
L 200.699569 230.328129 
L 201.57054 230.319131 
L 202.006026 230.209726 
L 202.876997 230.411873 
L 203.312483 230.51777 
L 203.747968 230.416388 
L 205.489911 230.567275 
L 205.925397 230.473429 
L 206.360882 230.598849 
L 206.796368 230.584719 
L 207.667339 230.817205 
L 208.102825 230.851053 
L 208.973796 230.728102 
L 209.409282 230.938532 
L 210.280253 230.899649 
L 210.715739 230.846895 
L 211.151224 230.992455 
L 211.58671 230.942463 
L 212.457681 231.136229 
L 213.764138 230.999374 
L 215.941566 231.085359 
L 216.377052 231.00311 
L 216.812538 231.041473 
L 217.248023 231.208018 
L 217.683509 231.21419 
L 218.118995 231.037835 
L 219.860937 231.038712 
L 220.731908 230.951461 
L 221.60288 231.005351 
L 222.038365 231.040499 
L 222.473851 230.819284 
L 223.344822 230.761593 
L 223.780308 230.735119 
L 224.215794 230.556231 
L 225.957736 230.374061 
L 226.828707 230.422267 
L 228.135164 230.487267 
L 229.006136 230.398587 
L 230.312593 230.097982 
L 230.748078 230.11221 
L 231.183564 230.014531 
L 231.61905 230.70166 
L 232.490021 230.599402 
L 232.925506 230.529399 
L 233.796478 230.104511 
L 234.667449 230.277877 
L 235.102935 230.34671 
L 235.973906 230.165873 
L 236.409392 230.113054 
L 236.844877 229.892814 
L 238.151334 229.857212 
L 239.893277 229.56096 
L 240.328762 229.287381 
L 240.764248 229.244275 
L 241.199734 229.373463 
L 243.377162 228.968943 
L 247.732018 229.602734 
L 248.167504 229.630085 
L 248.60299 229.5148 
L 249.909446 229.638466 
L 250.344932 229.56083 
L 251.651389 229.720942 
L 252.957846 229.56489 
L 254.264303 229.610303 
L 254.699789 229.564241 
L 255.135274 229.357644 
L 255.57076 229.480368 
L 256.877217 229.278253 
L 257.312702 229.297094 
L 257.748188 229.186389 
L 258.183674 229.23021 
L 260.361102 228.721514 
L 263.844987 227.962563 
L 264.715958 227.980624 
L 265.151444 227.819244 
L 265.58693 227.916566 
L 266.457901 227.924037 
L 266.893386 228.026816 
L 267.764358 228.090451 
L 269.941786 228.673145 
L 270.812757 228.45401 
L 271.248243 228.18787 
L 272.119214 228.22292 
L 274.296642 227.663289 
L 276.038585 227.664784 
L 277.345042 227.43652 
L 279.52247 227.896036 
L 279.957956 227.802775 
L 280.393441 227.887915 
L 280.828927 227.764704 
L 281.699898 228.059299 
L 282.57087 228.111306 
L 283.441841 227.889474 
L 284.748298 228.03721 
L 285.619269 227.899447 
L 286.925726 228.199467 
L 288.667669 228.184687 
L 289.974125 228.342071 
L 290.409611 228.354837 
L 290.845097 228.631696 
L 291.280582 228.550909 
L 291.716068 228.703745 
L 292.151554 228.665512 
L 293.893496 229.022866 
L 294.328982 228.923563 
L 295.635439 229.143641 
L 296.070924 229.11041 
L 296.50641 229.31522 
L 297.812867 229.214423 
L 298.683838 229.404258 
L 299.55481 229.301739 
L 302.167723 229.51964 
L 302.603209 229.420175 
L 303.038695 229.666402 
L 304.345152 229.610205 
L 305.216123 229.686185 
L 305.651609 229.911135 
L 306.958065 229.833564 
L 307.393551 229.986822 
L 310.006465 230.159344 
L 310.441951 230.299576 
L 310.877436 230.302825 
L 311.312922 230.148364 
L 313.925836 230.15642 
L 315.232293 230.605086 
L 315.667778 230.589169 
L 316.974235 230.942885 
L 317.845206 230.915631 
L 318.716178 231.228905 
L 319.151663 231.106214 
L 320.022635 231.219062 
L 321.329092 231.061451 
L 321.764577 231.201001 
L 322.200063 230.463717 
L 322.635549 230.416096 
L 323.50652 230.568932 
L 324.812977 230.795604 
L 325.248462 231.167251 
L 326.119434 231.270484 
L 327.425891 231.539028 
L 327.861376 228.649692 
L 328.732347 228.751171 
L 330.47429 228.693155 
L 330.909776 228.523817 
L 331.345261 228.545744 
L 333.087204 228.137001 
L 333.52269 228.266156 
L 335.264632 228.091621 
L 336.135603 228.172863 
L 336.571089 227.649192 
L 337.44206 227.726113 
L 337.877546 227.8668 
L 339.619489 227.647502 
L 340.054974 227.857088 
L 342.232402 228.113807 
L 343.538859 228.153957 
L 344.845316 228.285062 
L 346.151773 228.246308 
L 346.587259 228.440367 
L 347.45823 228.482108 
L 347.893716 228.615389 
L 350.50663 228.54451 
L 350.942115 228.491269 
L 351.377601 227.985301 
L 351.813086 227.726535 
L 352.248572 227.694247 
L 353.119543 227.388022 
L 353.555029 227.424534 
L 353.990515 227.176747 
L 355.296972 226.948159 
L 356.603429 226.918923 
L 357.909885 226.70479 
L 359.651828 226.769693 
L 360.522799 226.488156 
L 360.958285 226.328368 
L 361.393771 225.892079 
L 362.264742 225.82448 
L 363.135713 225.677686 
L 363.571199 225.233502 
L 364.006684 224.975191 
L 364.877656 224.850356 
L 365.313141 224.748779 
L 365.748627 224.846555 
L 366.619598 224.654836 
L 367.055084 224.614881 
L 367.926055 224.308754 
L 368.361541 224.354946 
L 369.232512 224.202564 
L 370.538969 224.077112 
L 371.40994 223.782257 
L 372.716397 223.732979 
L 373.151883 223.669668 
L 373.587369 223.110362 
L 374.45834 222.86956 
L 375.329311 222.941251 
L 375.764797 222.715197 
L 376.200282 222.731958 
L 377.942225 222.210301 
L 378.377711 222.204357 
L 378.813196 222.075461 
L 379.248682 222.066041 
L 380.119653 221.786063 
L 380.990624 221.826115 
L 381.861596 221.708264 
L 382.732567 221.818612 
L 384.47451 221.451902 
L 385.345481 221.120243 
L 385.780966 221.165915 
L 386.651938 221.069113 
L 387.087423 220.648805 
L 387.522909 220.758926 
L 387.958395 220.560482 
L 388.829366 220.596799 
L 389.700337 220.500972 
L 390.135823 220.49467 
L 390.571309 220.229667 
L 391.44228 220.262346 
L 392.313251 219.819624 
L 392.748737 219.864939 
L 393.619708 219.693815 
L 394.055194 219.764987 
L 395.361651 219.30677 
L 395.797136 218.903744 
L 396.232622 219.058204 
L 397.103593 219.054046 
L 398.845536 218.914983 
L 398.845536 218.914983 
" style="fill:none;stroke:#d62728;stroke-linecap:square;stroke-opacity:0.8;stroke-width:1.5;"/>
   </g>
   <g id="line2d_20">
    <path clip-path="url(#p55367169d0)" d="M 144.086436 154.434504 
L 144.521921 155.251276 
L 145.828378 155.094542 
L 146.263864 155.112473 
L 147.134835 154.12659 
L 147.570321 154.22638 
L 148.876778 153.942017 
L 149.312263 153.698844 
L 149.747749 153.738441 
L 150.183235 153.628191 
L 151.054206 153.697057 
L 151.925177 153.627574 
L 152.360663 153.798959 
L 152.796148 153.624131 
L 154.102605 154.067535 
L 154.538091 154.082834 
L 155.409062 153.780963 
L 155.844548 153.913042 
L 156.280034 153.771672 
L 157.151005 153.840603 
L 157.586491 153.707809 
L 158.457462 153.959136 
L 158.892947 153.673084 
L 159.328433 153.744191 
L 159.763919 153.65093 
L 160.199404 153.909826 
L 161.505861 153.559098 
L 161.941347 153.859671 
L 162.376833 153.81585 
L 162.812318 154.140006 
L 164.118775 154.675826 
L 164.554261 154.46257 
L 165.425232 154.66319 
L 165.860718 155.004952 
L 166.296203 154.965906 
L 166.731689 155.36799 
L 167.167175 155.591187 
L 168.038146 155.371304 
L 168.473632 155.587288 
L 168.909117 155.634617 
L 169.344603 155.548828 
L 169.780088 155.831729 
L 171.086545 155.622241 
L 171.522031 155.40486 
L 171.957517 155.536614 
L 172.393002 155.915732 
L 172.828488 156.048168 
L 173.263974 155.903583 
L 173.699459 156.035045 
L 174.134945 155.892311 
L 174.570431 156.152701 
L 175.005916 156.182651 
L 175.441402 156.678516 
L 176.312373 157.169704 
L 176.747859 157.666933 
L 178.054316 158.064859 
L 178.489801 158.071389 
L 178.925287 158.378685 
L 179.360773 158.286821 
L 179.796258 158.038093 
L 180.66723 158.411396 
L 181.102715 158.029972 
L 181.538201 157.014821 
L 181.973686 156.672669 
L 182.409172 156.919351 
L 182.844658 156.763819 
L 184.151115 156.920163 
L 184.5866 157.175291 
L 185.022086 155.78505 
L 186.328543 155.8201 
L 186.764028 155.941557 
L 187.199514 155.830982 
L 187.635 155.913491 
L 188.505971 154.478422 
L 188.941457 154.407055 
L 189.376942 154.588477 
L 189.812428 153.883579 
L 191.118885 153.929543 
L 191.989856 154.597637 
L 192.860827 155.186081 
L 193.296313 155.883443 
L 194.60277 156.811018 
L 195.038256 156.843339 
L 195.473741 155.935385 
L 195.909227 154.402897 
L 196.344713 153.660935 
L 197.215684 151.191225 
L 197.65117 150.413433 
L 198.086655 150.448061 
L 198.522141 150.192544 
L 199.393112 150.274078 
L 199.828598 142.943299 
L 200.264083 143.251278 
L 201.135055 143.270671 
L 202.441512 142.483036 
L 202.876997 140.526246 
L 203.312483 140.254941 
L 203.747968 140.184971 
L 205.054425 139.442846 
L 206.360882 137.622195 
L 207.231854 137.902758 
L 207.667339 137.239698 
L 208.973796 137.259254 
L 210.280253 136.223963 
L 210.715739 135.699642 
L 211.151224 135.601639 
L 212.022196 134.264671 
L 212.893167 132.570349 
L 214.199624 130.386399 
L 214.63511 130.515002 
L 215.070595 129.561733 
L 215.941566 129.251286 
L 217.248023 128.569678 
L 218.118995 127.706974 
L 218.55448 127.539 
L 219.425452 126.69832 
L 219.860937 126.253617 
L 220.296423 125.542612 
L 220.731908 125.163493 
L 221.167394 124.490527 
L 222.473851 121.705887 
L 223.344822 120.556448 
L 223.780308 119.411329 
L 224.215794 119.532331 
L 224.651279 119.279218 
L 225.086765 116.339597 
L 225.957736 115.23713 
L 226.393222 114.662492 
L 226.828707 114.622829 
L 227.699679 115.399971 
L 228.57065 115.160728 
L 229.006136 114.132714 
L 229.877107 113.271991 
L 230.312593 112.800814 
L 231.183564 112.328922 
L 231.61905 112.587623 
L 232.054535 111.841438 
L 232.490021 111.487299 
L 232.925506 110.861012 
L 233.796478 110.296086 
L 235.102935 109.068394 
L 235.53842 108.271697 
L 236.409392 107.637223 
L 236.844877 107.02786 
L 237.280363 106.017289 
L 237.715849 105.472959 
L 238.58682 103.869234 
L 239.022305 102.969466 
L 239.893277 101.893375 
L 240.328762 101.436718 
L 241.199734 99.949643 
L 241.635219 99.853069 
L 242.506191 99.327351 
L 243.377162 98.218517 
L 243.812647 97.872207 
L 244.683619 96.322113 
L 245.119104 95.224064 
L 245.55459 94.851637 
L 245.990076 93.745857 
L 246.425561 93.073248 
L 246.861047 91.402931 
L 247.296533 90.715899 
L 248.167504 88.808776 
L 249.038475 87.259202 
L 249.909446 85.790545 
L 250.344932 85.647746 
L 251.215903 85.116929 
L 252.086875 83.71194 
L 252.52236 82.683828 
L 252.957846 82.669015 
L 255.135274 81.790296 
L 255.57076 81.846721 
L 256.006245 81.531336 
L 256.877217 81.236415 
L 257.748188 80.297894 
L 258.183674 80.122839 
L 258.619159 79.380812 
L 259.054645 79.632366 
L 259.490131 79.397671 
L 259.925616 78.859317 
L 260.361102 78.534934 
L 262.974016 74.137766 
L 264.280473 74.300055 
L 264.715958 74.688658 
L 265.58693 74.373566 
L 266.022415 74.742094 
L 266.457901 75.895334 
L 266.893386 76.325159 
L 267.328872 75.665511 
L 268.199843 75.695006 
L 269.070815 75.4416 
L 269.5063 75.536453 
L 269.941786 77.522739 
L 270.377272 77.651082 
L 271.248243 77.707279 
L 272.119214 77.887012 
L 272.5547 77.810805 
L 273.425671 79.149722 
L 274.296642 78.78207 
L 274.732128 79.528255 
L 276.038585 79.816971 
L 276.474071 79.433045 
L 277.345042 79.42369 
L 277.780527 76.190741 
L 278.651499 76.186356 
L 279.086984 76.450189 
L 279.52247 76.316194 
L 279.957956 76.353095 
L 280.393441 77.492821 
L 280.828927 79.140561 
L 281.264413 79.872616 
L 281.699898 79.510779 
L 282.57087 81.214132 
L 283.006355 80.95241 
L 283.441841 81.358554 
L 284.312812 81.235408 
L 284.748298 88.137856 
L 286.054755 88.337306 
L 286.49024 88.923411 
L 287.361212 89.570781 
L 287.796697 91.604006 
L 288.232183 92.250498 
L 288.667669 89.881293 
L 289.974125 90.843495 
L 291.280582 92.419511 
L 292.151554 92.23744 
L 292.587039 93.03914 
L 293.022525 93.475657 
L 293.458011 93.483388 
L 294.328982 94.448514 
L 295.635439 96.156544 
L 296.070924 96.581919 
L 296.50641 97.286655 
L 297.377381 99.160189 
L 297.812867 99.600345 
L 298.248353 100.413284 
L 299.119324 101.184189 
L 299.55481 101.350766 
L 299.990295 102.164128 
L 300.861266 102.26957 
L 302.167723 101.832338 
L 302.603209 101.955354 
L 304.345152 103.502979 
L 305.216123 105.129832 
L 305.651609 105.355107 
L 306.087094 105.812707 
L 307.829037 108.508081 
L 308.264522 108.643636 
L 308.700008 109.397163 
L 309.135494 109.295131 
L 309.570979 109.429127 
L 310.006465 111.962732 
L 311.312922 113.335302 
L 311.748407 113.242886 
L 312.619379 113.393058 
L 313.054864 113.584323 
L 313.49035 112.654344 
L 313.925836 113.653318 
L 314.796807 113.883206 
L 315.232293 114.23101 
L 315.667778 114.278079 
L 316.103264 113.878203 
L 316.53875 113.963344 
L 316.974235 115.238267 
L 317.409721 115.132792 
L 317.845206 115.522305 
L 318.716178 115.385354 
L 319.151663 115.436418 
L 319.587149 115.68859 
L 320.022635 116.136606 
L 320.45812 116.83504 
L 321.329092 117.744944 
L 321.764577 117.399966 
L 322.200063 118.15739 
L 322.635549 118.58871 
L 323.942005 120.741703 
L 325.248462 121.952601 
L 326.119434 123.254844 
L 326.554919 122.975678 
L 327.425891 123.051235 
L 327.861376 123.475181 
L 328.296862 123.61197 
L 329.167833 125.030277 
L 329.603319 125.968019 
L 330.47429 126.972028 
L 330.909776 128.053381 
L 331.345261 127.76434 
L 331.780747 128.653259 
L 332.216233 128.26118 
L 332.651718 128.19631 
L 333.087204 127.887779 
L 333.958175 127.089782 
L 334.829146 126.411943 
L 335.264632 124.921424 
L 337.006575 120.661435 
L 337.44206 121.816429 
L 337.877546 121.570657 
L 339.184003 120.351962 
L 340.054974 119.852199 
L 340.49046 119.27415 
L 341.361431 118.47349 
L 341.796917 117.581518 
L 342.667888 116.661739 
L 343.103374 115.72364 
L 343.538859 115.391363 
L 344.409831 113.312206 
L 344.845316 112.941306 
L 345.280802 111.370553 
L 346.151773 112.532693 
L 347.022744 112.750042 
L 347.45823 113.038595 
L 347.893716 113.187176 
L 348.764687 111.880223 
L 349.635658 110.126553 
L 350.071144 109.570593 
L 350.50663 107.572223 
L 350.942115 106.718777 
L 351.377601 106.160413 
L 351.813086 105.279063 
L 352.248572 104.763903 
L 352.684058 103.783899 
L 353.119543 101.484794 
L 353.990515 100.077824 
L 354.426 99.464433 
L 355.296972 99.073263 
L 355.732457 98.293165 
L 356.603429 96.068935 
L 357.4744 94.483369 
L 358.345371 92.483147 
L 358.780857 91.780458 
L 360.087314 88.470425 
L 360.522799 86.740436 
L 361.393771 84.630451 
L 361.829256 82.745222 
L 362.264742 82.786867 
L 362.700228 85.847619 
L 363.135713 85.685265 
L 363.571199 85.725382 
L 364.44217 84.806416 
L 365.748627 82.566204 
L 366.184113 81.183012 
L 366.619598 82.129557 
L 367.926055 79.461111 
L 368.361541 78.819329 
L 369.232512 76.421863 
L 369.667998 75.852618 
L 371.845426 68.910377 
L 372.280912 68.927074 
L 372.716397 68.575665 
L 373.151883 68.00814 
L 373.587369 70.093145 
L 374.45834 68.560722 
L 374.893825 68.07483 
L 376.200282 65.6543 
L 377.942225 60.761235 
L 378.377711 60.501787 
L 379.684168 60.148721 
L 380.119653 59.89879 
L 380.990624 59.850682 
L 381.42611 59.518535 
L 384.039024 55.825778 
L 384.47451 54.070257 
L 384.909995 53.433217 
L 385.345481 51.763421 
L 386.216452 50.458482 
L 386.651938 48.994048 
L 387.522909 47.224461 
L 388.829366 42.951511 
L 389.264852 41.352887 
L 390.135823 40.672514 
L 390.571309 40.474558 
L 391.44228 39.573587 
L 392.313251 38.444711 
L 392.748737 37.064507 
L 393.619708 35.298266 
L 394.055194 35.33546 
L 394.490679 35.670335 
L 395.797136 35.876348 
L 396.668108 35.773894 
L 397.103593 35.582954 
L 397.539079 35.527212 
L 397.974564 34.990125 
L 398.41005 36.120268 
L 398.845536 35.420243 
L 398.845536 35.420243 
" style="fill:none;stroke:#9467bd;stroke-linecap:square;stroke-opacity:0.8;stroke-width:1.5;"/>
   </g>
   <g id="patch_3">
    <path d="M 58.73125 288.430125 
L 58.73125 22.318125 
" style="fill:none;stroke:#000000;stroke-linecap:square;stroke-linejoin:miter;stroke-width:0.8;"/>
   </g>
   <g id="patch_4">
    <path d="M 415.85125 288.430125 
L 415.85125 22.318125 
" style="fill:none;stroke:#000000;stroke-linecap:square;stroke-linejoin:miter;stroke-width:0.8;"/>
   </g>
   <g id="patch_5">
    <path d="M 58.73125 288.430125 
L 415.85125 288.430125 
" style="fill:none;stroke:#000000;stroke-linecap:square;stroke-linejoin:miter;stroke-width:0.8;"/>
   </g>
   <g id="patch_6">
    <path d="M 58.73125 22.318125 
L 415.85125 22.318125 
" style="fill:none;stroke:#000000;stroke-linecap:square;stroke-linejoin:miter;stroke-width:0.8;"/>
   </g>
   <g id="text_18">
    <!-- Get previous sibling [branch] -->
    <g transform="translate(150.142188 16.318125)scale(0.12 -0.12)">
     <defs>
      <path d="M 59.515625 10.40625 
L 59.515625 29.984375 
L 43.40625 29.984375 
L 43.40625 38.09375 
L 69.28125 38.09375 
L 69.28125 6.78125 
Q 63.578125 2.734375 56.6875 0.65625 
Q 49.8125 -1.421875 42 -1.421875 
Q 24.90625 -1.421875 15.25 8.5625 
Q 5.609375 18.5625 5.609375 36.375 
Q 5.609375 54.25 15.25 64.234375 
Q 24.90625 74.21875 42 74.21875 
Q 49.125 74.21875 55.546875 72.453125 
Q 61.96875 70.703125 67.390625 67.28125 
L 67.390625 56.78125 
Q 61.921875 61.421875 55.765625 63.765625 
Q 49.609375 66.109375 42.828125 66.109375 
Q 29.4375 66.109375 22.71875 58.640625 
Q 16.015625 51.171875 16.015625 36.375 
Q 16.015625 21.625 22.71875 14.15625 
Q 29.4375 6.6875 42.828125 6.6875 
Q 48.046875 6.6875 52.140625 7.59375 
Q 56.25 8.5 59.515625 10.40625 
z
" id="DejaVuSans-71"/>
      <path d="M 18.109375 8.203125 
L 18.109375 -20.796875 
L 9.078125 -20.796875 
L 9.078125 54.6875 
L 18.109375 54.6875 
L 18.109375 46.390625 
Q 20.953125 51.265625 25.265625 53.625 
Q 29.59375 56 35.59375 56 
Q 45.5625 56 51.78125 48.09375 
Q 58.015625 40.1875 58.015625 27.296875 
Q 58.015625 14.40625 51.78125 6.484375 
Q 45.5625 -1.421875 35.59375 -1.421875 
Q 29.59375 -1.421875 25.265625 0.953125 
Q 20.953125 3.328125 18.109375 8.203125 
z
M 48.6875 27.296875 
Q 48.6875 37.203125 44.609375 42.84375 
Q 40.53125 48.484375 33.40625 48.484375 
Q 26.265625 48.484375 22.1875 42.84375 
Q 18.109375 37.203125 18.109375 27.296875 
Q 18.109375 17.390625 22.1875 11.75 
Q 26.265625 6.109375 33.40625 6.109375 
Q 40.53125 6.109375 44.609375 11.75 
Q 48.6875 17.390625 48.6875 27.296875 
z
" id="DejaVuSans-112"/>
      <path d="M 41.109375 46.296875 
Q 39.59375 47.171875 37.8125 47.578125 
Q 36.03125 48 33.890625 48 
Q 26.265625 48 22.1875 43.046875 
Q 18.109375 38.09375 18.109375 28.8125 
L 18.109375 0 
L 9.078125 0 
L 9.078125 54.6875 
L 18.109375 54.6875 
L 18.109375 46.1875 
Q 20.953125 51.171875 25.484375 53.578125 
Q 30.03125 56 36.53125 56 
Q 37.453125 56 38.578125 55.875 
Q 39.703125 55.765625 41.0625 55.515625 
z
" id="DejaVuSans-114"/>
      <path d="M 2.984375 54.6875 
L 12.5 54.6875 
L 29.59375 8.796875 
L 46.6875 54.6875 
L 56.203125 54.6875 
L 35.6875 0 
L 23.484375 0 
z
" id="DejaVuSans-118"/>
      <path d="M 45.40625 27.984375 
Q 45.40625 37.75 41.375 43.109375 
Q 37.359375 48.484375 30.078125 48.484375 
Q 22.859375 48.484375 18.828125 43.109375 
Q 14.796875 37.75 14.796875 27.984375 
Q 14.796875 18.265625 18.828125 12.890625 
Q 22.859375 7.515625 30.078125 7.515625 
Q 37.359375 7.515625 41.375 12.890625 
Q 45.40625 18.265625 45.40625 27.984375 
z
M 54.390625 6.78125 
Q 54.390625 -7.171875 48.1875 -13.984375 
Q 42 -20.796875 29.203125 -20.796875 
Q 24.46875 -20.796875 20.265625 -20.09375 
Q 16.0625 -19.390625 12.109375 -17.921875 
L 12.109375 -9.1875 
Q 16.0625 -11.328125 19.921875 -12.34375 
Q 23.78125 -13.375 27.78125 -13.375 
Q 36.625 -13.375 41.015625 -8.765625 
Q 45.40625 -4.15625 45.40625 5.171875 
L 45.40625 9.625 
Q 42.625 4.78125 38.28125 2.390625 
Q 33.9375 0 27.875 0 
Q 17.828125 0 11.671875 7.65625 
Q 5.515625 15.328125 5.515625 27.984375 
Q 5.515625 40.671875 11.671875 48.328125 
Q 17.828125 56 27.875 56 
Q 33.9375 56 38.28125 53.609375 
Q 42.625 51.21875 45.40625 46.390625 
L 45.40625 54.6875 
L 54.390625 54.6875 
z
" id="DejaVuSans-103"/>
      <path d="M 8.59375 75.984375 
L 29.296875 75.984375 
L 29.296875 69 
L 17.578125 69 
L 17.578125 -6.203125 
L 29.296875 -6.203125 
L 29.296875 -13.1875 
L 8.59375 -13.1875 
z
" id="DejaVuSans-91"/>
      <path d="M 54.890625 33.015625 
L 54.890625 0 
L 45.90625 0 
L 45.90625 32.71875 
Q 45.90625 40.484375 42.875 44.328125 
Q 39.84375 48.1875 33.796875 48.1875 
Q 26.515625 48.1875 22.3125 43.546875 
Q 18.109375 38.921875 18.109375 30.90625 
L 18.109375 0 
L 9.078125 0 
L 9.078125 75.984375 
L 18.109375 75.984375 
L 18.109375 46.1875 
Q 21.34375 51.125 25.703125 53.5625 
Q 30.078125 56 35.796875 56 
Q 45.21875 56 50.046875 50.171875 
Q 54.890625 44.34375 54.890625 33.015625 
z
" id="DejaVuSans-104"/>
      <path d="M 30.421875 75.984375 
L 30.421875 -13.1875 
L 9.71875 -13.1875 
L 9.71875 -6.203125 
L 21.390625 -6.203125 
L 21.390625 69 
L 9.71875 69 
L 9.71875 75.984375 
z
" id="DejaVuSans-93"/>
     </defs>
     <use xlink:href="#DejaVuSans-71"/>
     <use x="77.490234" xlink:href="#DejaVuSans-101"/>
     <use x="139.013672" xlink:href="#DejaVuSans-116"/>
     <use x="178.222656" xlink:href="#DejaVuSans-32"/>
     <use x="210.009766" xlink:href="#DejaVuSans-112"/>
     <use x="273.486328" xlink:href="#DejaVuSans-114"/>
     <use x="312.349609" xlink:href="#DejaVuSans-101"/>
     <use x="373.873047" xlink:href="#DejaVuSans-118"/>
     <use x="433.052734" xlink:href="#DejaVuSans-105"/>
     <use x="460.835938" xlink:href="#DejaVuSans-111"/>
     <use x="522.017578" xlink:href="#DejaVuSans-117"/>
     <use x="585.396484" xlink:href="#DejaVuSans-115"/>
     <use x="637.496094" xlink:href="#DejaVuSans-32"/>
     <use x="669.283203" xlink:href="#DejaVuSans-115"/>
     <use x="721.382812" xlink:href="#DejaVuSans-105"/>
     <use x="749.166016" xlink:href="#DejaVuSans-98"/>
     <use x="812.642578" xlink:href="#DejaVuSans-108"/>
     <use x="840.425781" xlink:href="#DejaVuSans-105"/>
     <use x="868.208984" xlink:href="#DejaVuSans-110"/>
     <use x="931.587891" xlink:href="#DejaVuSans-103"/>
     <use x="995.064453" xlink:href="#DejaVuSans-32"/>
     <use x="1026.851562" xlink:href="#DejaVuSans-91"/>
     <use x="1065.865234" xlink:href="#DejaVuSans-98"/>
     <use x="1129.341797" xlink:href="#DejaVuSans-114"/>
     <use x="1170.455078" xlink:href="#DejaVuSans-97"/>
     <use x="1231.734375" xlink:href="#DejaVuSans-110"/>
     <use x="1295.113281" xlink:href="#DejaVuSans-99"/>
     <use x="1350.09375" xlink:href="#DejaVuSans-104"/>
     <use x="1413.472656" xlink:href="#DejaVuSans-93"/>
    </g>
   </g>
   <g id="legend_1">
    <g id="patch_7">
     <path d="M 89.733594 365.802375 
L 377.328906 365.802375 
Q 379.328906 365.802375 379.328906 363.802375 
L 379.328906 335.446125 
Q 379.328906 333.446125 377.328906 333.446125 
L 89.733594 333.446125 
Q 87.733594 333.446125 87.733594 335.446125 
L 87.733594 363.802375 
Q 87.733594 365.802375 89.733594 365.802375 
z
" style="fill:#4c4c4c;opacity:0.5;stroke:#4c4c4c;stroke-linejoin:miter;"/>
    </g>
    <g id="patch_8">
     <path d="M 87.733594 363.802375 
L 375.328906 363.802375 
Q 377.328906 363.802375 377.328906 361.802375 
L 377.328906 333.446125 
Q 377.328906 331.446125 375.328906 331.446125 
L 87.733594 331.446125 
Q 85.733594 331.446125 85.733594 333.446125 
L 85.733594 361.802375 
Q 85.733594 363.802375 87.733594 363.802375 
z
" style="fill:#ffffff;stroke:#cccccc;stroke-linejoin:miter;"/>
    </g>
    <g id="line2d_21">
     <path d="M 89.733594 339.544562 
L 109.733594 339.544562 
" style="fill:none;stroke:#1f77b4;stroke-linecap:square;stroke-opacity:0.8;stroke-width:1.5;"/>
    </g>
    <g id="line2d_22"/>
    <g id="text_19">
     <!-- MPTT -->
     <g transform="translate(117.733594 343.044562)scale(0.1 -0.1)">
      <defs>
       <path d="M 9.8125 72.90625 
L 24.515625 72.90625 
L 43.109375 23.296875 
L 61.8125 72.90625 
L 76.515625 72.90625 
L 76.515625 0 
L 66.890625 0 
L 66.890625 64.015625 
L 48.09375 14.015625 
L 38.1875 14.015625 
L 19.390625 64.015625 
L 19.390625 0 
L 9.8125 0 
z
" id="DejaVuSans-77"/>
       <path d="M 19.671875 64.796875 
L 19.671875 37.40625 
L 32.078125 37.40625 
Q 38.96875 37.40625 42.71875 40.96875 
Q 46.484375 44.53125 46.484375 51.125 
Q 46.484375 57.671875 42.71875 61.234375 
Q 38.96875 64.796875 32.078125 64.796875 
z
M 9.8125 72.90625 
L 32.078125 72.90625 
Q 44.34375 72.90625 50.609375 67.359375 
Q 56.890625 61.8125 56.890625 51.125 
Q 56.890625 40.328125 50.609375 34.8125 
Q 44.34375 29.296875 32.078125 29.296875 
L 19.671875 29.296875 
L 19.671875 0 
L 9.8125 0 
z
" id="DejaVuSans-80"/>
       <path d="M -0.296875 72.90625 
L 61.375 72.90625 
L 61.375 64.59375 
L 35.5 64.59375 
L 35.5 0 
L 25.59375 0 
L 25.59375 64.59375 
L -0.296875 64.59375 
z
" id="DejaVuSans-84"/>
      </defs>
      <use xlink:href="#DejaVuSans-77"/>
      <use x="86.279297" xlink:href="#DejaVuSans-80"/>
      <use x="146.582031" xlink:href="#DejaVuSans-84"/>
      <use x="205.916016" xlink:href="#DejaVuSans-84"/>
     </g>
    </g>
    <g id="line2d_23">
     <path d="M 89.733594 354.222687 
L 109.733594 354.222687 
" style="fill:none;stroke:#ff7f0e;stroke-linecap:square;stroke-opacity:0.8;stroke-width:1.5;"/>
    </g>
    <g id="line2d_24"/>
    <g id="text_20">
     <!-- tree -->
     <g transform="translate(117.733594 357.722687)scale(0.1 -0.1)">
      <use xlink:href="#DejaVuSans-116"/>
      <use x="39.208984" xlink:href="#DejaVuSans-114"/>
      <use x="78.072266" xlink:href="#DejaVuSans-101"/>
      <use x="139.595703" xlink:href="#DejaVuSans-101"/>
     </g>
    </g>
    <g id="line2d_25">
     <path d="M 164.432031 339.544562 
L 184.432031 339.544562 
" style="fill:none;stroke:#2ca02c;stroke-linecap:square;stroke-opacity:0.8;stroke-width:1.5;"/>
    </g>
    <g id="line2d_26"/>
    <g id="text_21">
     <!-- treebeard AL -->
     <g transform="translate(192.432031 343.044562)scale(0.1 -0.1)">
      <defs>
       <path d="M 9.8125 72.90625 
L 19.671875 72.90625 
L 19.671875 8.296875 
L 55.171875 8.296875 
L 55.171875 0 
L 9.8125 0 
z
" id="DejaVuSans-76"/>
      </defs>
      <use xlink:href="#DejaVuSans-116"/>
      <use x="39.208984" xlink:href="#DejaVuSans-114"/>
      <use x="78.072266" xlink:href="#DejaVuSans-101"/>
      <use x="139.595703" xlink:href="#DejaVuSans-101"/>
      <use x="201.119141" xlink:href="#DejaVuSans-98"/>
      <use x="264.595703" xlink:href="#DejaVuSans-101"/>
      <use x="326.119141" xlink:href="#DejaVuSans-97"/>
      <use x="387.398438" xlink:href="#DejaVuSans-114"/>
      <use x="426.761719" xlink:href="#DejaVuSans-100"/>
      <use x="490.238281" xlink:href="#DejaVuSans-32"/>
      <use x="522.025391" xlink:href="#DejaVuSans-65"/>
      <use x="590.433594" xlink:href="#DejaVuSans-76"/>
     </g>
    </g>
    <g id="line2d_27">
     <path d="M 164.432031 354.222687 
L 184.432031 354.222687 
" style="fill:none;stroke:#d62728;stroke-linecap:square;stroke-opacity:0.8;stroke-width:1.5;"/>
    </g>
    <g id="line2d_28"/>
    <g id="text_22">
     <!-- treebeard MP -->
     <g transform="translate(192.432031 357.722687)scale(0.1 -0.1)">
      <use xlink:href="#DejaVuSans-116"/>
      <use x="39.208984" xlink:href="#DejaVuSans-114"/>
      <use x="78.072266" xlink:href="#DejaVuSans-101"/>
      <use x="139.595703" xlink:href="#DejaVuSans-101"/>
      <use x="201.119141" xlink:href="#DejaVuSans-98"/>
      <use x="264.595703" xlink:href="#DejaVuSans-101"/>
      <use x="326.119141" xlink:href="#DejaVuSans-97"/>
      <use x="387.398438" xlink:href="#DejaVuSans-114"/>
      <use x="426.761719" xlink:href="#DejaVuSans-100"/>
      <use x="490.238281" xlink:href="#DejaVuSans-32"/>
      <use x="522.025391" xlink:href="#DejaVuSans-77"/>
      <use x="608.304688" xlink:href="#DejaVuSans-80"/>
     </g>
    </g>
    <g id="line2d_29">
     <path d="M 279.294531 339.544562 
L 299.294531 339.544562 
" style="fill:none;stroke:#9467bd;stroke-linecap:square;stroke-opacity:0.8;stroke-width:1.5;"/>
    </g>
    <g id="line2d_30"/>
    <g id="text_23">
     <!-- treebeard NS -->
     <g transform="translate(307.294531 343.044562)scale(0.1 -0.1)">
      <defs>
       <path d="M 9.8125 72.90625 
L 23.09375 72.90625 
L 55.421875 11.921875 
L 55.421875 72.90625 
L 64.984375 72.90625 
L 64.984375 0 
L 51.703125 0 
L 19.390625 60.984375 
L 19.390625 0 
L 9.8125 0 
z
" id="DejaVuSans-78"/>
       <path d="M 53.515625 70.515625 
L 53.515625 60.890625 
Q 47.90625 63.578125 42.921875 64.890625 
Q 37.9375 66.21875 33.296875 66.21875 
Q 25.25 66.21875 20.875 63.09375 
Q 16.5 59.96875 16.5 54.203125 
Q 16.5 49.359375 19.40625 46.890625 
Q 22.3125 44.4375 30.421875 42.921875 
L 36.375 41.703125 
Q 47.40625 39.59375 52.65625 34.296875 
Q 57.90625 29 57.90625 20.125 
Q 57.90625 9.515625 50.796875 4.046875 
Q 43.703125 -1.421875 29.984375 -1.421875 
Q 24.8125 -1.421875 18.96875 -0.25 
Q 13.140625 0.921875 6.890625 3.21875 
L 6.890625 13.375 
Q 12.890625 10.015625 18.65625 8.296875 
Q 24.421875 6.59375 29.984375 6.59375 
Q 38.421875 6.59375 43.015625 9.90625 
Q 47.609375 13.234375 47.609375 19.390625 
Q 47.609375 24.75 44.3125 27.78125 
Q 41.015625 30.8125 33.5 32.328125 
L 27.484375 33.5 
Q 16.453125 35.6875 11.515625 40.375 
Q 6.59375 45.0625 6.59375 53.421875 
Q 6.59375 63.09375 13.40625 68.65625 
Q 20.21875 74.21875 32.171875 74.21875 
Q 37.3125 74.21875 42.625 73.28125 
Q 47.953125 72.359375 53.515625 70.515625 
z
" id="DejaVuSans-83"/>
      </defs>
      <use xlink:href="#DejaVuSans-116"/>
      <use x="39.208984" xlink:href="#DejaVuSans-114"/>
      <use x="78.072266" xlink:href="#DejaVuSans-101"/>
      <use x="139.595703" xlink:href="#DejaVuSans-101"/>
      <use x="201.119141" xlink:href="#DejaVuSans-98"/>
      <use x="264.595703" xlink:href="#DejaVuSans-101"/>
      <use x="326.119141" xlink:href="#DejaVuSans-97"/>
      <use x="387.398438" xlink:href="#DejaVuSans-114"/>
      <use x="426.761719" xlink:href="#DejaVuSans-100"/>
      <use x="490.238281" xlink:href="#DejaVuSans-32"/>
      <use x="522.025391" xlink:href="#DejaVuSans-78"/>
      <use x="596.830078" xlink:href="#DejaVuSans-83"/>
     </g>
    </g>
   </g>
  </g>
 </g>
 <defs>
  <clipPath id="p55367169d0">
   <rect height="266.112" width="357.12" x="58.73125" y="22.318125"/>
  </clipPath>
 </defs>
</svg>
