<?xml version="1.0" encoding="utf-8" standalone="no"?>
<!DOCTYPE svg PUBLIC "-//W3C//DTD SVG 1.1//EN"
  "http://www.w3.org/Graphics/SVG/1.1/DTD/svg11.dtd">
<!-- Created with matplotlib (https://matplotlib.org/) -->
<svg height="371.002375pt" version="1.1" viewBox="0 0 426.229375 371.002375" width="426.229375pt" xmlns="http://www.w3.org/2000/svg" xmlns:xlink="http://www.w3.org/1999/xlink">
 <metadata>
  <rdf:RDF xmlns:cc="http://creativecommons.org/ns#" xmlns:dc="http://purl.org/dc/elements/1.1/" xmlns:rdf="http://www.w3.org/1999/02/22-rdf-syntax-ns#">
   <cc:Work>
    <dc:type rdf:resource="http://purl.org/dc/dcmitype/StillImage"/>
    <dc:date>2023-07-05T09:05:20.355386</dc:date>
    <dc:format>image/svg+xml</dc:format>
    <dc:creator>
     <cc:Agent>
      <dc:title>Matplotlib v3.3.4, https://matplotlib.org/</dc:title>
     </cc:Agent>
    </dc:creator>
   </cc:Work>
  </rdf:RDF>
 </metadata>
 <defs>
  <style type="text/css">*{stroke-linecap:butt;stroke-linejoin:round;}</style>
 </defs>
 <g id="figure_1">
  <g id="patch_1">
   <path d="M 0 371.002375 
L 426.229375 371.002375 
L 426.229375 0 
L 0 0 
z
" style="fill:#ffffff;"/>
  </g>
  <g id="axes_1">
   <g id="patch_2">
    <path d="M 61.909375 288.430125 
L 419.029375 288.430125 
L 419.029375 22.318125 
L 61.909375 22.318125 
z
" style="fill:#ffffff;"/>
   </g>
   <g id="matplotlib.axis_1">
    <g id="xtick_1">
     <g id="line2d_1">
      <defs>
       <path d="M 0 0 
L 0 3.5 
" id="m6928ff0619" style="stroke:#000000;stroke-width:0.8;"/>
      </defs>
      <g>
       <use style="stroke:#000000;stroke-width:0.8;" x="61.909375" xlink:href="#m6928ff0619" y="288.430125"/>
      </g>
     </g>
     <g id="text_1">
      <!-- 0 -->
      <g transform="translate(58.728125 303.028562)scale(0.1 -0.1)">
       <defs>
        <path d="M 31.78125 66.40625 
Q 24.171875 66.40625 20.328125 58.90625 
Q 16.5 51.421875 16.5 36.375 
Q 16.5 21.390625 20.328125 13.890625 
Q 24.171875 6.390625 31.78125 6.390625 
Q 39.453125 6.390625 43.28125 13.890625 
Q 47.125 21.390625 47.125 36.375 
Q 47.125 51.421875 43.28125 58.90625 
Q 39.453125 66.40625 31.78125 66.40625 
z
M 31.78125 74.21875 
Q 44.046875 74.21875 50.515625 64.515625 
Q 56.984375 54.828125 56.984375 36.375 
Q 56.984375 17.96875 50.515625 8.265625 
Q 44.046875 -1.421875 31.78125 -1.421875 
Q 19.53125 -1.421875 13.0625 8.265625 
Q 6.59375 17.96875 6.59375 36.375 
Q 6.59375 54.828125 13.0625 64.515625 
Q 19.53125 74.21875 31.78125 74.21875 
z
" id="DejaVuSans-48"/>
       </defs>
       <use xlink:href="#DejaVuSans-48"/>
      </g>
     </g>
    </g>
    <g id="xtick_2">
     <g id="line2d_2">
      <g>
       <use style="stroke:#000000;stroke-width:0.8;" x="105.457939" xlink:href="#m6928ff0619" y="288.430125"/>
      </g>
     </g>
     <g id="text_2">
      <!-- 500  -->
      <g transform="translate(94.325127 303.028562)scale(0.1 -0.1)">
       <defs>
        <path d="M 10.796875 72.90625 
L 49.515625 72.90625 
L 49.515625 64.59375 
L 19.828125 64.59375 
L 19.828125 46.734375 
Q 21.96875 47.46875 24.109375 47.828125 
Q 26.265625 48.1875 28.421875 48.1875 
Q 40.625 48.1875 47.75 41.5 
Q 54.890625 34.8125 54.890625 23.390625 
Q 54.890625 11.625 47.5625 5.09375 
Q 40.234375 -1.421875 26.90625 -1.421875 
Q 22.3125 -1.421875 17.546875 -0.640625 
Q 12.796875 0.140625 7.71875 1.703125 
L 7.71875 11.625 
Q 12.109375 9.234375 16.796875 8.0625 
Q 21.484375 6.890625 26.703125 6.890625 
Q 35.15625 6.890625 40.078125 11.328125 
Q 45.015625 15.765625 45.015625 23.390625 
Q 45.015625 31 40.078125 35.4375 
Q 35.15625 39.890625 26.703125 39.890625 
Q 22.75 39.890625 18.8125 39.015625 
Q 14.890625 38.140625 10.796875 36.28125 
z
" id="DejaVuSans-53"/>
        <path id="DejaVuSans-32"/>
       </defs>
       <use xlink:href="#DejaVuSans-53"/>
       <use x="63.623047" xlink:href="#DejaVuSans-48"/>
       <use x="127.246094" xlink:href="#DejaVuSans-48"/>
       <use x="190.869141" xlink:href="#DejaVuSans-32"/>
      </g>
     </g>
    </g>
    <g id="xtick_3">
     <g id="line2d_3">
      <g>
       <use style="stroke:#000000;stroke-width:0.8;" x="149.006503" xlink:href="#m6928ff0619" y="288.430125"/>
      </g>
     </g>
     <g id="text_3">
      <!-- 1 k -->
      <g transform="translate(141.340878 303.028562)scale(0.1 -0.1)">
       <defs>
        <path d="M 12.40625 8.296875 
L 28.515625 8.296875 
L 28.515625 63.921875 
L 10.984375 60.40625 
L 10.984375 69.390625 
L 28.421875 72.90625 
L 38.28125 72.90625 
L 38.28125 8.296875 
L 54.390625 8.296875 
L 54.390625 0 
L 12.40625 0 
z
" id="DejaVuSans-49"/>
        <path d="M 9.078125 75.984375 
L 18.109375 75.984375 
L 18.109375 31.109375 
L 44.921875 54.6875 
L 56.390625 54.6875 
L 27.390625 29.109375 
L 57.625 0 
L 45.90625 0 
L 18.109375 26.703125 
L 18.109375 0 
L 9.078125 0 
z
" id="DejaVuSans-107"/>
       </defs>
       <use xlink:href="#DejaVuSans-49"/>
       <use x="63.623047" xlink:href="#DejaVuSans-32"/>
       <use x="95.410156" xlink:href="#DejaVuSans-107"/>
      </g>
     </g>
    </g>
    <g id="xtick_4">
     <g id="line2d_4">
      <g>
       <use style="stroke:#000000;stroke-width:0.8;" x="192.555067" xlink:href="#m6928ff0619" y="288.430125"/>
      </g>
     </g>
     <g id="text_4">
      <!-- 1.5 k -->
      <g transform="translate(180.11913 303.028562)scale(0.1 -0.1)">
       <defs>
        <path d="M 10.6875 12.40625 
L 21 12.40625 
L 21 0 
L 10.6875 0 
z
" id="DejaVuSans-46"/>
       </defs>
       <use xlink:href="#DejaVuSans-49"/>
       <use x="63.623047" xlink:href="#DejaVuSans-46"/>
       <use x="95.410156" xlink:href="#DejaVuSans-53"/>
       <use x="159.033203" xlink:href="#DejaVuSans-32"/>
       <use x="190.820312" xlink:href="#DejaVuSans-107"/>
      </g>
     </g>
    </g>
    <g id="xtick_5">
     <g id="line2d_5">
      <g>
       <use style="stroke:#000000;stroke-width:0.8;" x="236.103631" xlink:href="#m6928ff0619" y="288.430125"/>
      </g>
     </g>
     <g id="text_5">
      <!-- 2 k -->
      <g transform="translate(228.438006 303.028562)scale(0.1 -0.1)">
       <defs>
        <path d="M 19.1875 8.296875 
L 53.609375 8.296875 
L 53.609375 0 
L 7.328125 0 
L 7.328125 8.296875 
Q 12.9375 14.109375 22.625 23.890625 
Q 32.328125 33.6875 34.8125 36.53125 
Q 39.546875 41.84375 41.421875 45.53125 
Q 43.3125 49.21875 43.3125 52.78125 
Q 43.3125 58.59375 39.234375 62.25 
Q 35.15625 65.921875 28.609375 65.921875 
Q 23.96875 65.921875 18.8125 64.3125 
Q 13.671875 62.703125 7.8125 59.421875 
L 7.8125 69.390625 
Q 13.765625 71.78125 18.9375 73 
Q 24.125 74.21875 28.421875 74.21875 
Q 39.75 74.21875 46.484375 68.546875 
Q 53.21875 62.890625 53.21875 53.421875 
Q 53.21875 48.921875 51.53125 44.890625 
Q 49.859375 40.875 45.40625 35.40625 
Q 44.1875 33.984375 37.640625 27.21875 
Q 31.109375 20.453125 19.1875 8.296875 
z
" id="DejaVuSans-50"/>
       </defs>
       <use xlink:href="#DejaVuSans-50"/>
       <use x="63.623047" xlink:href="#DejaVuSans-32"/>
       <use x="95.410156" xlink:href="#DejaVuSans-107"/>
      </g>
     </g>
    </g>
    <g id="xtick_6">
     <g id="line2d_6">
      <g>
       <use style="stroke:#000000;stroke-width:0.8;" x="279.652196" xlink:href="#m6928ff0619" y="288.430125"/>
      </g>
     </g>
     <g id="text_6">
      <!-- 2.5 k -->
      <g transform="translate(267.216258 303.028562)scale(0.1 -0.1)">
       <use xlink:href="#DejaVuSans-50"/>
       <use x="63.623047" xlink:href="#DejaVuSans-46"/>
       <use x="95.410156" xlink:href="#DejaVuSans-53"/>
       <use x="159.033203" xlink:href="#DejaVuSans-32"/>
       <use x="190.820312" xlink:href="#DejaVuSans-107"/>
      </g>
     </g>
    </g>
    <g id="xtick_7">
     <g id="line2d_7">
      <g>
       <use style="stroke:#000000;stroke-width:0.8;" x="323.20076" xlink:href="#m6928ff0619" y="288.430125"/>
      </g>
     </g>
     <g id="text_7">
      <!-- 3 k -->
      <g transform="translate(315.535135 303.028562)scale(0.1 -0.1)">
       <defs>
        <path d="M 40.578125 39.3125 
Q 47.65625 37.796875 51.625 33 
Q 55.609375 28.21875 55.609375 21.1875 
Q 55.609375 10.40625 48.1875 4.484375 
Q 40.765625 -1.421875 27.09375 -1.421875 
Q 22.515625 -1.421875 17.65625 -0.515625 
Q 12.796875 0.390625 7.625 2.203125 
L 7.625 11.71875 
Q 11.71875 9.328125 16.59375 8.109375 
Q 21.484375 6.890625 26.8125 6.890625 
Q 36.078125 6.890625 40.9375 10.546875 
Q 45.796875 14.203125 45.796875 21.1875 
Q 45.796875 27.640625 41.28125 31.265625 
Q 36.765625 34.90625 28.71875 34.90625 
L 20.21875 34.90625 
L 20.21875 43.015625 
L 29.109375 43.015625 
Q 36.375 43.015625 40.234375 45.921875 
Q 44.09375 48.828125 44.09375 54.296875 
Q 44.09375 59.90625 40.109375 62.90625 
Q 36.140625 65.921875 28.71875 65.921875 
Q 24.65625 65.921875 20.015625 65.03125 
Q 15.375 64.15625 9.8125 62.3125 
L 9.8125 71.09375 
Q 15.4375 72.65625 20.34375 73.4375 
Q 25.25 74.21875 29.59375 74.21875 
Q 40.828125 74.21875 47.359375 69.109375 
Q 53.90625 64.015625 53.90625 55.328125 
Q 53.90625 49.265625 50.4375 45.09375 
Q 46.96875 40.921875 40.578125 39.3125 
z
" id="DejaVuSans-51"/>
       </defs>
       <use xlink:href="#DejaVuSans-51"/>
       <use x="63.623047" xlink:href="#DejaVuSans-32"/>
       <use x="95.410156" xlink:href="#DejaVuSans-107"/>
      </g>
     </g>
    </g>
    <g id="xtick_8">
     <g id="line2d_8">
      <g>
       <use style="stroke:#000000;stroke-width:0.8;" x="366.749324" xlink:href="#m6928ff0619" y="288.430125"/>
      </g>
     </g>
     <g id="text_8">
      <!-- 3.5 k -->
      <g transform="translate(354.313386 303.028562)scale(0.1 -0.1)">
       <use xlink:href="#DejaVuSans-51"/>
       <use x="63.623047" xlink:href="#DejaVuSans-46"/>
       <use x="95.410156" xlink:href="#DejaVuSans-53"/>
       <use x="159.033203" xlink:href="#DejaVuSans-32"/>
       <use x="190.820312" xlink:href="#DejaVuSans-107"/>
      </g>
     </g>
    </g>
    <g id="xtick_9">
     <g id="line2d_9">
      <g>
       <use style="stroke:#000000;stroke-width:0.8;" x="410.297888" xlink:href="#m6928ff0619" y="288.430125"/>
      </g>
     </g>
     <g id="text_9">
      <!-- 4 k -->
      <g transform="translate(402.632263 303.028562)scale(0.1 -0.1)">
       <defs>
        <path d="M 37.796875 64.3125 
L 12.890625 25.390625 
L 37.796875 25.390625 
z
M 35.203125 72.90625 
L 47.609375 72.90625 
L 47.609375 25.390625 
L 58.015625 25.390625 
L 58.015625 17.1875 
L 47.609375 17.1875 
L 47.609375 0 
L 37.796875 0 
L 37.796875 17.1875 
L 4.890625 17.1875 
L 4.890625 26.703125 
z
" id="DejaVuSans-52"/>
       </defs>
       <use xlink:href="#DejaVuSans-52"/>
       <use x="63.623047" xlink:href="#DejaVuSans-32"/>
       <use x="95.410156" xlink:href="#DejaVuSans-107"/>
      </g>
     </g>
    </g>
    <g id="text_10">
     <!-- Amount of objects in table -->
     <g transform="translate(174.410781 316.706687)scale(0.1 -0.1)">
      <defs>
       <path d="M 34.1875 63.1875 
L 20.796875 26.90625 
L 47.609375 26.90625 
z
M 28.609375 72.90625 
L 39.796875 72.90625 
L 67.578125 0 
L 57.328125 0 
L 50.6875 18.703125 
L 17.828125 18.703125 
L 11.1875 0 
L 0.78125 0 
z
" id="DejaVuSans-65"/>
       <path d="M 52 44.1875 
Q 55.375 50.25 60.0625 53.125 
Q 64.75 56 71.09375 56 
Q 79.640625 56 84.28125 50.015625 
Q 88.921875 44.046875 88.921875 33.015625 
L 88.921875 0 
L 79.890625 0 
L 79.890625 32.71875 
Q 79.890625 40.578125 77.09375 44.375 
Q 74.3125 48.1875 68.609375 48.1875 
Q 61.625 48.1875 57.5625 43.546875 
Q 53.515625 38.921875 53.515625 30.90625 
L 53.515625 0 
L 44.484375 0 
L 44.484375 32.71875 
Q 44.484375 40.625 41.703125 44.40625 
Q 38.921875 48.1875 33.109375 48.1875 
Q 26.21875 48.1875 22.15625 43.53125 
Q 18.109375 38.875 18.109375 30.90625 
L 18.109375 0 
L 9.078125 0 
L 9.078125 54.6875 
L 18.109375 54.6875 
L 18.109375 46.1875 
Q 21.1875 51.21875 25.484375 53.609375 
Q 29.78125 56 35.6875 56 
Q 41.65625 56 45.828125 52.96875 
Q 50 49.953125 52 44.1875 
z
" id="DejaVuSans-109"/>
       <path d="M 30.609375 48.390625 
Q 23.390625 48.390625 19.1875 42.75 
Q 14.984375 37.109375 14.984375 27.296875 
Q 14.984375 17.484375 19.15625 11.84375 
Q 23.34375 6.203125 30.609375 6.203125 
Q 37.796875 6.203125 41.984375 11.859375 
Q 46.1875 17.53125 46.1875 27.296875 
Q 46.1875 37.015625 41.984375 42.703125 
Q 37.796875 48.390625 30.609375 48.390625 
z
M 30.609375 56 
Q 42.328125 56 49.015625 48.375 
Q 55.71875 40.765625 55.71875 27.296875 
Q 55.71875 13.875 49.015625 6.21875 
Q 42.328125 -1.421875 30.609375 -1.421875 
Q 18.84375 -1.421875 12.171875 6.21875 
Q 5.515625 13.875 5.515625 27.296875 
Q 5.515625 40.765625 12.171875 48.375 
Q 18.84375 56 30.609375 56 
z
" id="DejaVuSans-111"/>
       <path d="M 8.5 21.578125 
L 8.5 54.6875 
L 17.484375 54.6875 
L 17.484375 21.921875 
Q 17.484375 14.15625 20.5 10.265625 
Q 23.53125 6.390625 29.59375 6.390625 
Q 36.859375 6.390625 41.078125 11.03125 
Q 45.3125 15.671875 45.3125 23.6875 
L 45.3125 54.6875 
L 54.296875 54.6875 
L 54.296875 0 
L 45.3125 0 
L 45.3125 8.40625 
Q 42.046875 3.421875 37.71875 1 
Q 33.40625 -1.421875 27.6875 -1.421875 
Q 18.265625 -1.421875 13.375 4.4375 
Q 8.5 10.296875 8.5 21.578125 
z
M 31.109375 56 
z
" id="DejaVuSans-117"/>
       <path d="M 54.890625 33.015625 
L 54.890625 0 
L 45.90625 0 
L 45.90625 32.71875 
Q 45.90625 40.484375 42.875 44.328125 
Q 39.84375 48.1875 33.796875 48.1875 
Q 26.515625 48.1875 22.3125 43.546875 
Q 18.109375 38.921875 18.109375 30.90625 
L 18.109375 0 
L 9.078125 0 
L 9.078125 54.6875 
L 18.109375 54.6875 
L 18.109375 46.1875 
Q 21.34375 51.125 25.703125 53.5625 
Q 30.078125 56 35.796875 56 
Q 45.21875 56 50.046875 50.171875 
Q 54.890625 44.34375 54.890625 33.015625 
z
" id="DejaVuSans-110"/>
       <path d="M 18.3125 70.21875 
L 18.3125 54.6875 
L 36.8125 54.6875 
L 36.8125 47.703125 
L 18.3125 47.703125 
L 18.3125 18.015625 
Q 18.3125 11.328125 20.140625 9.421875 
Q 21.96875 7.515625 27.59375 7.515625 
L 36.8125 7.515625 
L 36.8125 0 
L 27.59375 0 
Q 17.1875 0 13.234375 3.875 
Q 9.28125 7.765625 9.28125 18.015625 
L 9.28125 47.703125 
L 2.6875 47.703125 
L 2.6875 54.6875 
L 9.28125 54.6875 
L 9.28125 70.21875 
z
" id="DejaVuSans-116"/>
       <path d="M 37.109375 75.984375 
L 37.109375 68.5 
L 28.515625 68.5 
Q 23.6875 68.5 21.796875 66.546875 
Q 19.921875 64.59375 19.921875 59.515625 
L 19.921875 54.6875 
L 34.71875 54.6875 
L 34.71875 47.703125 
L 19.921875 47.703125 
L 19.921875 0 
L 10.890625 0 
L 10.890625 47.703125 
L 2.296875 47.703125 
L 2.296875 54.6875 
L 10.890625 54.6875 
L 10.890625 58.5 
Q 10.890625 67.625 15.140625 71.796875 
Q 19.390625 75.984375 28.609375 75.984375 
z
" id="DejaVuSans-102"/>
       <path d="M 48.6875 27.296875 
Q 48.6875 37.203125 44.609375 42.84375 
Q 40.53125 48.484375 33.40625 48.484375 
Q 26.265625 48.484375 22.1875 42.84375 
Q 18.109375 37.203125 18.109375 27.296875 
Q 18.109375 17.390625 22.1875 11.75 
Q 26.265625 6.109375 33.40625 6.109375 
Q 40.53125 6.109375 44.609375 11.75 
Q 48.6875 17.390625 48.6875 27.296875 
z
M 18.109375 46.390625 
Q 20.953125 51.265625 25.265625 53.625 
Q 29.59375 56 35.59375 56 
Q 45.5625 56 51.78125 48.09375 
Q 58.015625 40.1875 58.015625 27.296875 
Q 58.015625 14.40625 51.78125 6.484375 
Q 45.5625 -1.421875 35.59375 -1.421875 
Q 29.59375 -1.421875 25.265625 0.953125 
Q 20.953125 3.328125 18.109375 8.203125 
L 18.109375 0 
L 9.078125 0 
L 9.078125 75.984375 
L 18.109375 75.984375 
z
" id="DejaVuSans-98"/>
       <path d="M 9.421875 54.6875 
L 18.40625 54.6875 
L 18.40625 -0.984375 
Q 18.40625 -11.421875 14.421875 -16.109375 
Q 10.453125 -20.796875 1.609375 -20.796875 
L -1.8125 -20.796875 
L -1.8125 -13.1875 
L 0.59375 -13.1875 
Q 5.71875 -13.1875 7.5625 -10.8125 
Q 9.421875 -8.453125 9.421875 -0.984375 
z
M 9.421875 75.984375 
L 18.40625 75.984375 
L 18.40625 64.59375 
L 9.421875 64.59375 
z
" id="DejaVuSans-106"/>
       <path d="M 56.203125 29.59375 
L 56.203125 25.203125 
L 14.890625 25.203125 
Q 15.484375 15.921875 20.484375 11.0625 
Q 25.484375 6.203125 34.421875 6.203125 
Q 39.59375 6.203125 44.453125 7.46875 
Q 49.3125 8.734375 54.109375 11.28125 
L 54.109375 2.78125 
Q 49.265625 0.734375 44.1875 -0.34375 
Q 39.109375 -1.421875 33.890625 -1.421875 
Q 20.796875 -1.421875 13.15625 6.1875 
Q 5.515625 13.8125 5.515625 26.8125 
Q 5.515625 40.234375 12.765625 48.109375 
Q 20.015625 56 32.328125 56 
Q 43.359375 56 49.78125 48.890625 
Q 56.203125 41.796875 56.203125 29.59375 
z
M 47.21875 32.234375 
Q 47.125 39.59375 43.09375 43.984375 
Q 39.0625 48.390625 32.421875 48.390625 
Q 24.90625 48.390625 20.390625 44.140625 
Q 15.875 39.890625 15.1875 32.171875 
z
" id="DejaVuSans-101"/>
       <path d="M 48.78125 52.59375 
L 48.78125 44.1875 
Q 44.96875 46.296875 41.140625 47.34375 
Q 37.3125 48.390625 33.40625 48.390625 
Q 24.65625 48.390625 19.8125 42.84375 
Q 14.984375 37.3125 14.984375 27.296875 
Q 14.984375 17.28125 19.8125 11.734375 
Q 24.65625 6.203125 33.40625 6.203125 
Q 37.3125 6.203125 41.140625 7.25 
Q 44.96875 8.296875 48.78125 10.40625 
L 48.78125 2.09375 
Q 45.015625 0.34375 40.984375 -0.53125 
Q 36.96875 -1.421875 32.421875 -1.421875 
Q 20.0625 -1.421875 12.78125 6.34375 
Q 5.515625 14.109375 5.515625 27.296875 
Q 5.515625 40.671875 12.859375 48.328125 
Q 20.21875 56 33.015625 56 
Q 37.15625 56 41.109375 55.140625 
Q 45.0625 54.296875 48.78125 52.59375 
z
" id="DejaVuSans-99"/>
       <path d="M 44.28125 53.078125 
L 44.28125 44.578125 
Q 40.484375 46.53125 36.375 47.5 
Q 32.28125 48.484375 27.875 48.484375 
Q 21.1875 48.484375 17.84375 46.4375 
Q 14.5 44.390625 14.5 40.28125 
Q 14.5 37.15625 16.890625 35.375 
Q 19.28125 33.59375 26.515625 31.984375 
L 29.59375 31.296875 
Q 39.15625 29.25 43.1875 25.515625 
Q 47.21875 21.78125 47.21875 15.09375 
Q 47.21875 7.46875 41.1875 3.015625 
Q 35.15625 -1.421875 24.609375 -1.421875 
Q 20.21875 -1.421875 15.453125 -0.5625 
Q 10.6875 0.296875 5.421875 2 
L 5.421875 11.28125 
Q 10.40625 8.6875 15.234375 7.390625 
Q 20.0625 6.109375 24.8125 6.109375 
Q 31.15625 6.109375 34.5625 8.28125 
Q 37.984375 10.453125 37.984375 14.40625 
Q 37.984375 18.0625 35.515625 20.015625 
Q 33.0625 21.96875 24.703125 23.78125 
L 21.578125 24.515625 
Q 13.234375 26.265625 9.515625 29.90625 
Q 5.8125 33.546875 5.8125 39.890625 
Q 5.8125 47.609375 11.28125 51.796875 
Q 16.75 56 26.8125 56 
Q 31.78125 56 36.171875 55.265625 
Q 40.578125 54.546875 44.28125 53.078125 
z
" id="DejaVuSans-115"/>
       <path d="M 9.421875 54.6875 
L 18.40625 54.6875 
L 18.40625 0 
L 9.421875 0 
z
M 9.421875 75.984375 
L 18.40625 75.984375 
L 18.40625 64.59375 
L 9.421875 64.59375 
z
" id="DejaVuSans-105"/>
       <path d="M 34.28125 27.484375 
Q 23.390625 27.484375 19.1875 25 
Q 14.984375 22.515625 14.984375 16.5 
Q 14.984375 11.71875 18.140625 8.90625 
Q 21.296875 6.109375 26.703125 6.109375 
Q 34.1875 6.109375 38.703125 11.40625 
Q 43.21875 16.703125 43.21875 25.484375 
L 43.21875 27.484375 
z
M 52.203125 31.203125 
L 52.203125 0 
L 43.21875 0 
L 43.21875 8.296875 
Q 40.140625 3.328125 35.546875 0.953125 
Q 30.953125 -1.421875 24.3125 -1.421875 
Q 15.921875 -1.421875 10.953125 3.296875 
Q 6 8.015625 6 15.921875 
Q 6 25.140625 12.171875 29.828125 
Q 18.359375 34.515625 30.609375 34.515625 
L 43.21875 34.515625 
L 43.21875 35.40625 
Q 43.21875 41.609375 39.140625 45 
Q 35.0625 48.390625 27.6875 48.390625 
Q 23 48.390625 18.546875 47.265625 
Q 14.109375 46.140625 10.015625 43.890625 
L 10.015625 52.203125 
Q 14.9375 54.109375 19.578125 55.046875 
Q 24.21875 56 28.609375 56 
Q 40.484375 56 46.34375 49.84375 
Q 52.203125 43.703125 52.203125 31.203125 
z
" id="DejaVuSans-97"/>
       <path d="M 9.421875 75.984375 
L 18.40625 75.984375 
L 18.40625 0 
L 9.421875 0 
z
" id="DejaVuSans-108"/>
      </defs>
      <use xlink:href="#DejaVuSans-65"/>
      <use x="68.408203" xlink:href="#DejaVuSans-109"/>
      <use x="165.820312" xlink:href="#DejaVuSans-111"/>
      <use x="227.001953" xlink:href="#DejaVuSans-117"/>
      <use x="290.380859" xlink:href="#DejaVuSans-110"/>
      <use x="353.759766" xlink:href="#DejaVuSans-116"/>
      <use x="392.96875" xlink:href="#DejaVuSans-32"/>
      <use x="424.755859" xlink:href="#DejaVuSans-111"/>
      <use x="485.9375" xlink:href="#DejaVuSans-102"/>
      <use x="521.142578" xlink:href="#DejaVuSans-32"/>
      <use x="552.929688" xlink:href="#DejaVuSans-111"/>
      <use x="614.111328" xlink:href="#DejaVuSans-98"/>
      <use x="677.587891" xlink:href="#DejaVuSans-106"/>
      <use x="705.371094" xlink:href="#DejaVuSans-101"/>
      <use x="766.894531" xlink:href="#DejaVuSans-99"/>
      <use x="821.875" xlink:href="#DejaVuSans-116"/>
      <use x="861.083984" xlink:href="#DejaVuSans-115"/>
      <use x="913.183594" xlink:href="#DejaVuSans-32"/>
      <use x="944.970703" xlink:href="#DejaVuSans-105"/>
      <use x="972.753906" xlink:href="#DejaVuSans-110"/>
      <use x="1036.132812" xlink:href="#DejaVuSans-32"/>
      <use x="1067.919922" xlink:href="#DejaVuSans-116"/>
      <use x="1107.128906" xlink:href="#DejaVuSans-97"/>
      <use x="1168.408203" xlink:href="#DejaVuSans-98"/>
      <use x="1231.884766" xlink:href="#DejaVuSans-108"/>
      <use x="1259.667969" xlink:href="#DejaVuSans-101"/>
     </g>
    </g>
   </g>
   <g id="matplotlib.axis_2">
    <g id="ytick_1">
     <g id="line2d_10">
      <defs>
       <path d="M 0 0 
L -3.5 0 
" id="ma2584b7785" style="stroke:#000000;stroke-width:0.8;"/>
      </defs>
      <g>
       <use style="stroke:#000000;stroke-width:0.8;" x="61.909375" xlink:href="#ma2584b7785" y="288.430125"/>
      </g>
     </g>
     <g id="text_11">
      <!-- 0 -->
      <g transform="translate(48.546875 292.229344)scale(0.1 -0.1)">
       <use xlink:href="#DejaVuSans-48"/>
      </g>
     </g>
    </g>
    <g id="ytick_2">
     <g id="line2d_11">
      <g>
       <use style="stroke:#000000;stroke-width:0.8;" x="61.909375" xlink:href="#ma2584b7785" y="252.952434"/>
      </g>
     </g>
     <g id="text_12">
      <!-- 200 µs -->
      <g transform="translate(21.071875 256.751653)scale(0.1 -0.1)">
       <defs>
        <path d="M 8.5 -20.796875 
L 8.5 54.6875 
L 17.484375 54.6875 
L 17.484375 20.703125 
Q 17.484375 13.625 20.84375 10 
Q 24.21875 6.390625 30.8125 6.390625 
Q 38.03125 6.390625 41.671875 10.484375 
Q 45.3125 14.59375 45.3125 22.796875 
L 45.3125 54.6875 
L 54.296875 54.6875 
L 54.296875 12.59375 
Q 54.296875 9.671875 55.140625 8.28125 
Q 56 6.890625 57.8125 6.890625 
Q 58.25 6.890625 59.03125 7.15625 
Q 59.8125 7.421875 61.1875 8.015625 
L 61.1875 0.78125 
Q 59.1875 -0.34375 57.390625 -0.875 
Q 55.609375 -1.421875 53.90625 -1.421875 
Q 50.53125 -1.421875 48.53125 0.484375 
Q 46.53125 2.390625 45.796875 6.296875 
Q 43.359375 2.4375 39.8125 0.5 
Q 36.28125 -1.421875 31.5 -1.421875 
Q 26.515625 -1.421875 23.015625 0.484375 
Q 19.53125 2.390625 17.484375 6.203125 
L 17.484375 -20.796875 
z
" id="DejaVuSans-181"/>
       </defs>
       <use xlink:href="#DejaVuSans-50"/>
       <use x="63.623047" xlink:href="#DejaVuSans-48"/>
       <use x="127.246094" xlink:href="#DejaVuSans-48"/>
       <use x="190.869141" xlink:href="#DejaVuSans-32"/>
       <use x="222.65625" xlink:href="#DejaVuSans-181"/>
       <use x="286.279297" xlink:href="#DejaVuSans-115"/>
      </g>
     </g>
    </g>
    <g id="ytick_3">
     <g id="line2d_12">
      <g>
       <use style="stroke:#000000;stroke-width:0.8;" x="61.909375" xlink:href="#ma2584b7785" y="217.474743"/>
      </g>
     </g>
     <g id="text_13">
      <!-- 400 µs -->
      <g transform="translate(21.071875 221.273962)scale(0.1 -0.1)">
       <use xlink:href="#DejaVuSans-52"/>
       <use x="63.623047" xlink:href="#DejaVuSans-48"/>
       <use x="127.246094" xlink:href="#DejaVuSans-48"/>
       <use x="190.869141" xlink:href="#DejaVuSans-32"/>
       <use x="222.65625" xlink:href="#DejaVuSans-181"/>
       <use x="286.279297" xlink:href="#DejaVuSans-115"/>
      </g>
     </g>
    </g>
    <g id="ytick_4">
     <g id="line2d_13">
      <g>
       <use style="stroke:#000000;stroke-width:0.8;" x="61.909375" xlink:href="#ma2584b7785" y="181.997052"/>
      </g>
     </g>
     <g id="text_14">
      <!-- 600 µs -->
      <g transform="translate(21.071875 185.796271)scale(0.1 -0.1)">
       <defs>
        <path d="M 33.015625 40.375 
Q 26.375 40.375 22.484375 35.828125 
Q 18.609375 31.296875 18.609375 23.390625 
Q 18.609375 15.53125 22.484375 10.953125 
Q 26.375 6.390625 33.015625 6.390625 
Q 39.65625 6.390625 43.53125 10.953125 
Q 47.40625 15.53125 47.40625 23.390625 
Q 47.40625 31.296875 43.53125 35.828125 
Q 39.65625 40.375 33.015625 40.375 
z
M 52.59375 71.296875 
L 52.59375 62.3125 
Q 48.875 64.0625 45.09375 64.984375 
Q 41.3125 65.921875 37.59375 65.921875 
Q 27.828125 65.921875 22.671875 59.328125 
Q 17.53125 52.734375 16.796875 39.40625 
Q 19.671875 43.65625 24.015625 45.921875 
Q 28.375 48.1875 33.59375 48.1875 
Q 44.578125 48.1875 50.953125 41.515625 
Q 57.328125 34.859375 57.328125 23.390625 
Q 57.328125 12.15625 50.6875 5.359375 
Q 44.046875 -1.421875 33.015625 -1.421875 
Q 20.359375 -1.421875 13.671875 8.265625 
Q 6.984375 17.96875 6.984375 36.375 
Q 6.984375 53.65625 15.1875 63.9375 
Q 23.390625 74.21875 37.203125 74.21875 
Q 40.921875 74.21875 44.703125 73.484375 
Q 48.484375 72.75 52.59375 71.296875 
z
" id="DejaVuSans-54"/>
       </defs>
       <use xlink:href="#DejaVuSans-54"/>
       <use x="63.623047" xlink:href="#DejaVuSans-48"/>
       <use x="127.246094" xlink:href="#DejaVuSans-48"/>
       <use x="190.869141" xlink:href="#DejaVuSans-32"/>
       <use x="222.65625" xlink:href="#DejaVuSans-181"/>
       <use x="286.279297" xlink:href="#DejaVuSans-115"/>
      </g>
     </g>
    </g>
    <g id="ytick_5">
     <g id="line2d_14">
      <g>
       <use style="stroke:#000000;stroke-width:0.8;" x="61.909375" xlink:href="#ma2584b7785" y="146.519362"/>
      </g>
     </g>
     <g id="text_15">
      <!-- 800 µs -->
      <g transform="translate(21.071875 150.31858)scale(0.1 -0.1)">
       <defs>
        <path d="M 31.78125 34.625 
Q 24.75 34.625 20.71875 30.859375 
Q 16.703125 27.09375 16.703125 20.515625 
Q 16.703125 13.921875 20.71875 10.15625 
Q 24.75 6.390625 31.78125 6.390625 
Q 38.8125 6.390625 42.859375 10.171875 
Q 46.921875 13.96875 46.921875 20.515625 
Q 46.921875 27.09375 42.890625 30.859375 
Q 38.875 34.625 31.78125 34.625 
z
M 21.921875 38.8125 
Q 15.578125 40.375 12.03125 44.71875 
Q 8.5 49.078125 8.5 55.328125 
Q 8.5 64.0625 14.71875 69.140625 
Q 20.953125 74.21875 31.78125 74.21875 
Q 42.671875 74.21875 48.875 69.140625 
Q 55.078125 64.0625 55.078125 55.328125 
Q 55.078125 49.078125 51.53125 44.71875 
Q 48 40.375 41.703125 38.8125 
Q 48.828125 37.15625 52.796875 32.3125 
Q 56.78125 27.484375 56.78125 20.515625 
Q 56.78125 9.90625 50.3125 4.234375 
Q 43.84375 -1.421875 31.78125 -1.421875 
Q 19.734375 -1.421875 13.25 4.234375 
Q 6.78125 9.90625 6.78125 20.515625 
Q 6.78125 27.484375 10.78125 32.3125 
Q 14.796875 37.15625 21.921875 38.8125 
z
M 18.3125 54.390625 
Q 18.3125 48.734375 21.84375 45.5625 
Q 25.390625 42.390625 31.78125 42.390625 
Q 38.140625 42.390625 41.71875 45.5625 
Q 45.3125 48.734375 45.3125 54.390625 
Q 45.3125 60.0625 41.71875 63.234375 
Q 38.140625 66.40625 31.78125 66.40625 
Q 25.390625 66.40625 21.84375 63.234375 
Q 18.3125 60.0625 18.3125 54.390625 
z
" id="DejaVuSans-56"/>
       </defs>
       <use xlink:href="#DejaVuSans-56"/>
       <use x="63.623047" xlink:href="#DejaVuSans-48"/>
       <use x="127.246094" xlink:href="#DejaVuSans-48"/>
       <use x="190.869141" xlink:href="#DejaVuSans-32"/>
       <use x="222.65625" xlink:href="#DejaVuSans-181"/>
       <use x="286.279297" xlink:href="#DejaVuSans-115"/>
      </g>
     </g>
    </g>
    <g id="ytick_6">
     <g id="line2d_15">
      <g>
       <use style="stroke:#000000;stroke-width:0.8;" x="61.909375" xlink:href="#ma2584b7785" y="111.041671"/>
      </g>
     </g>
     <g id="text_16">
      <!-- 1 ms -->
      <g transform="translate(30.41875 114.840889)scale(0.1 -0.1)">
       <use xlink:href="#DejaVuSans-49"/>
       <use x="63.623047" xlink:href="#DejaVuSans-32"/>
       <use x="95.410156" xlink:href="#DejaVuSans-109"/>
       <use x="192.822266" xlink:href="#DejaVuSans-115"/>
      </g>
     </g>
    </g>
    <g id="ytick_7">
     <g id="line2d_16">
      <g>
       <use style="stroke:#000000;stroke-width:0.8;" x="61.909375" xlink:href="#ma2584b7785" y="75.56398"/>
      </g>
     </g>
     <g id="text_17">
      <!-- 1.2 ms -->
      <g transform="translate(20.878125 79.363199)scale(0.1 -0.1)">
       <use xlink:href="#DejaVuSans-49"/>
       <use x="63.623047" xlink:href="#DejaVuSans-46"/>
       <use x="95.410156" xlink:href="#DejaVuSans-50"/>
       <use x="159.033203" xlink:href="#DejaVuSans-32"/>
       <use x="190.820312" xlink:href="#DejaVuSans-109"/>
       <use x="288.232422" xlink:href="#DejaVuSans-115"/>
      </g>
     </g>
    </g>
    <g id="ytick_8">
     <g id="line2d_17">
      <g>
       <use style="stroke:#000000;stroke-width:0.8;" x="61.909375" xlink:href="#ma2584b7785" y="40.086289"/>
      </g>
     </g>
     <g id="text_18">
      <!-- 1.4 ms -->
      <g transform="translate(20.878125 43.885508)scale(0.1 -0.1)">
       <use xlink:href="#DejaVuSans-49"/>
       <use x="63.623047" xlink:href="#DejaVuSans-46"/>
       <use x="95.410156" xlink:href="#DejaVuSans-52"/>
       <use x="159.033203" xlink:href="#DejaVuSans-32"/>
       <use x="190.820312" xlink:href="#DejaVuSans-109"/>
       <use x="288.232422" xlink:href="#DejaVuSans-115"/>
      </g>
     </g>
    </g>
    <g id="text_19">
     <!-- Read latency (s) -->
     <g transform="translate(14.798438 195.98975)rotate(-90)scale(0.1 -0.1)">
      <defs>
       <path d="M 44.390625 34.1875 
Q 47.5625 33.109375 50.5625 29.59375 
Q 53.5625 26.078125 56.59375 19.921875 
L 66.609375 0 
L 56 0 
L 46.6875 18.703125 
Q 43.0625 26.03125 39.671875 28.421875 
Q 36.28125 30.8125 30.421875 30.8125 
L 19.671875 30.8125 
L 19.671875 0 
L 9.8125 0 
L 9.8125 72.90625 
L 32.078125 72.90625 
Q 44.578125 72.90625 50.734375 67.671875 
Q 56.890625 62.453125 56.890625 51.90625 
Q 56.890625 45.015625 53.6875 40.46875 
Q 50.484375 35.9375 44.390625 34.1875 
z
M 19.671875 64.796875 
L 19.671875 38.921875 
L 32.078125 38.921875 
Q 39.203125 38.921875 42.84375 42.21875 
Q 46.484375 45.515625 46.484375 51.90625 
Q 46.484375 58.296875 42.84375 61.546875 
Q 39.203125 64.796875 32.078125 64.796875 
z
" id="DejaVuSans-82"/>
       <path d="M 45.40625 46.390625 
L 45.40625 75.984375 
L 54.390625 75.984375 
L 54.390625 0 
L 45.40625 0 
L 45.40625 8.203125 
Q 42.578125 3.328125 38.25 0.953125 
Q 33.9375 -1.421875 27.875 -1.421875 
Q 17.96875 -1.421875 11.734375 6.484375 
Q 5.515625 14.40625 5.515625 27.296875 
Q 5.515625 40.1875 11.734375 48.09375 
Q 17.96875 56 27.875 56 
Q 33.9375 56 38.25 53.625 
Q 42.578125 51.265625 45.40625 46.390625 
z
M 14.796875 27.296875 
Q 14.796875 17.390625 18.875 11.75 
Q 22.953125 6.109375 30.078125 6.109375 
Q 37.203125 6.109375 41.296875 11.75 
Q 45.40625 17.390625 45.40625 27.296875 
Q 45.40625 37.203125 41.296875 42.84375 
Q 37.203125 48.484375 30.078125 48.484375 
Q 22.953125 48.484375 18.875 42.84375 
Q 14.796875 37.203125 14.796875 27.296875 
z
" id="DejaVuSans-100"/>
       <path d="M 32.171875 -5.078125 
Q 28.375 -14.84375 24.75 -17.8125 
Q 21.140625 -20.796875 15.09375 -20.796875 
L 7.90625 -20.796875 
L 7.90625 -13.28125 
L 13.1875 -13.28125 
Q 16.890625 -13.28125 18.9375 -11.515625 
Q 21 -9.765625 23.484375 -3.21875 
L 25.09375 0.875 
L 2.984375 54.6875 
L 12.5 54.6875 
L 29.59375 11.921875 
L 46.6875 54.6875 
L 56.203125 54.6875 
z
" id="DejaVuSans-121"/>
       <path d="M 31 75.875 
Q 24.46875 64.65625 21.28125 53.65625 
Q 18.109375 42.671875 18.109375 31.390625 
Q 18.109375 20.125 21.3125 9.0625 
Q 24.515625 -2 31 -13.1875 
L 23.1875 -13.1875 
Q 15.875 -1.703125 12.234375 9.375 
Q 8.59375 20.453125 8.59375 31.390625 
Q 8.59375 42.28125 12.203125 53.3125 
Q 15.828125 64.359375 23.1875 75.875 
z
" id="DejaVuSans-40"/>
       <path d="M 8.015625 75.875 
L 15.828125 75.875 
Q 23.140625 64.359375 26.78125 53.3125 
Q 30.421875 42.28125 30.421875 31.390625 
Q 30.421875 20.453125 26.78125 9.375 
Q 23.140625 -1.703125 15.828125 -13.1875 
L 8.015625 -13.1875 
Q 14.5 -2 17.703125 9.0625 
Q 20.90625 20.125 20.90625 31.390625 
Q 20.90625 42.671875 17.703125 53.65625 
Q 14.5 64.65625 8.015625 75.875 
z
" id="DejaVuSans-41"/>
      </defs>
      <use xlink:href="#DejaVuSans-82"/>
      <use x="64.982422" xlink:href="#DejaVuSans-101"/>
      <use x="126.505859" xlink:href="#DejaVuSans-97"/>
      <use x="187.785156" xlink:href="#DejaVuSans-100"/>
      <use x="251.261719" xlink:href="#DejaVuSans-32"/>
      <use x="283.048828" xlink:href="#DejaVuSans-108"/>
      <use x="310.832031" xlink:href="#DejaVuSans-97"/>
      <use x="372.111328" xlink:href="#DejaVuSans-116"/>
      <use x="411.320312" xlink:href="#DejaVuSans-101"/>
      <use x="472.84375" xlink:href="#DejaVuSans-110"/>
      <use x="536.222656" xlink:href="#DejaVuSans-99"/>
      <use x="591.203125" xlink:href="#DejaVuSans-121"/>
      <use x="650.382812" xlink:href="#DejaVuSans-32"/>
      <use x="682.169922" xlink:href="#DejaVuSans-40"/>
      <use x="721.183594" xlink:href="#DejaVuSans-115"/>
      <use x="773.283203" xlink:href="#DejaVuSans-41"/>
     </g>
    </g>
   </g>
   <g id="line2d_18">
    <path clip-path="url(#pffe4cbb3c4)" d="M 147.264561 176.725987 
L 147.700046 175.5008 
L 149.441989 173.400045 
L 149.877475 172.366585 
L 150.31296 171.64197 
L 151.183931 169.465305 
L 152.054903 166.843375 
L 152.490388 166.454065 
L 153.796845 164.638732 
L 154.232331 163.554087 
L 154.667817 163.222902 
L 155.103302 162.661819 
L 155.974273 162.037839 
L 156.845245 160.128595 
L 157.716216 159.217892 
L 158.151702 158.880852 
L 159.458159 156.687487 
L 159.893644 156.224219 
L 160.32913 156.140718 
L 160.764616 155.724732 
L 161.200101 154.056013 
L 161.635587 153.639376 
L 162.506558 152.402911 
L 163.377529 151.357956 
L 167.2969 145.477101 
L 169.038843 143.519708 
L 169.474328 142.527456 
L 170.3453 141.474476 
L 170.780785 141.027041 
L 171.216271 139.789925 
L 172.087242 138.497721 
L 172.522728 137.875042 
L 172.958213 137.511758 
L 173.829185 136.267702 
L 175.135642 134.149597 
L 178.619527 129.445347 
L 179.055012 129.15754 
L 180.796955 126.731023 
L 181.232441 125.653535 
L 182.538898 123.854035 
L 183.845355 122.144108 
L 184.716326 120.64673 
L 186.893754 117.718773 
L 187.764725 116.653865 
L 189.942153 112.808048 
L 192.990553 108.85162 
L 193.426039 107.871948 
L 195.167981 105.398584 
L 195.603467 104.642303 
L 196.038952 104.124597 
L 196.474438 103.20652 
L 197.345409 102.040109 
L 197.780895 101.190351 
L 198.216381 100.789546 
L 198.651866 100.192026 
L 199.087352 100.101802 
L 199.522838 99.267877 
L 200.393809 98.47234 
L 201.26478 97.138927 
L 201.700266 96.57394 
L 203.006723 96.451833 
L 203.442208 96.912715 
L 203.877694 96.899919 
L 204.31318 96.394792 
L 204.748665 96.809478 
L 205.184151 96.73899 
L 205.619637 96.392623 
L 208.23255 96.406721 
L 208.668036 95.823949 
L 209.103522 95.796405 
L 209.539007 96.10178 
L 209.974493 96.22714 
L 210.845464 96.13171 
L 211.716436 95.87405 
L 212.151921 95.306677 
L 212.587407 95.929356 
L 214.329349 96.070331 
L 217.377749 96.113275 
L 218.24872 96.113058 
L 219.119691 96.714916 
L 219.555177 96.528177 
L 219.990663 96.5182 
L 220.426148 96.690408 
L 220.861634 97.028532 
L 221.29712 96.71947 
L 222.603577 96.537937 
L 223.039062 96.851337 
L 223.474548 96.771306 
L 223.910033 96.840275 
L 224.345519 97.542985 
L 224.781005 97.434325 
L 225.21649 97.462954 
L 225.651976 98.079126 
L 226.087462 98.1854 
L 226.522947 97.587013 
L 226.958433 97.62757 
L 227.393919 97.244117 
L 228.26489 97.143265 
L 228.700376 97.238478 
L 230.442318 96.904691 
L 230.877804 97.179485 
L 231.748775 97.122878 
L 232.184261 96.948285 
L 232.619746 96.917704 
L 233.055232 96.710144 
L 234.361689 96.717301 
L 234.797175 97.192498 
L 235.23266 97.38249 
L 236.974603 99.186545 
L 237.410088 99.20151 
L 237.845574 98.441109 
L 238.28106 98.42636 
L 239.152031 99.261153 
L 239.587517 99.316676 
L 240.023002 99.131239 
L 240.893974 99.16876 
L 241.764945 100.113297 
L 242.20043 100.127178 
L 243.071402 99.880796 
L 244.813344 100.417154 
L 245.684316 100.193111 
L 246.119801 100.495233 
L 246.555287 100.499353 
L 246.990772 100.623412 
L 247.426258 100.602374 
L 247.861744 100.261864 
L 248.297229 100.166868 
L 248.732715 99.665862 
L 249.603686 99.58171 
L 250.039172 99.381959 
L 250.474658 99.022362 
L 250.910143 98.851239 
L 251.345629 99.012602 
L 251.781115 98.108406 
L 253.523057 97.811273 
L 253.958543 97.913209 
L 254.394028 98.199715 
L 255.700485 98.082813 
L 256.135971 98.56777 
L 256.571457 98.551503 
L 257.006942 98.658862 
L 258.748885 98.224874 
L 259.18437 98.399466 
L 259.619856 98.375392 
L 260.055342 98.190389 
L 260.490827 98.275625 
L 261.797284 98.030544 
L 262.23277 97.711939 
L 262.668256 97.642536 
L 263.103741 96.879966 
L 264.845684 96.62404 
L 265.281169 96.555071 
L 265.716655 96.665683 
L 266.152141 96.601268 
L 266.587626 96.722723 
L 267.458598 96.614714 
L 268.329569 96.352717 
L 268.765055 96.411493 
L 269.20054 96.081826 
L 269.636026 96.149712 
L 271.377968 95.841734 
L 271.813454 95.743485 
L 272.24894 95.838698 
L 272.684425 95.757365 
L 273.119911 95.040558 
L 273.555397 95.122758 
L 273.990882 95.698806 
L 274.861854 95.989216 
L 275.732825 95.782524 
L 276.603796 95.551975 
L 277.039282 94.837987 
L 277.474767 94.970287 
L 277.910253 94.916933 
L 278.345739 95.23337 
L 279.21671 95.207126 
L 279.652196 94.687252 
L 280.087681 94.469065 
L 280.523167 94.657104 
L 280.958652 94.655152 
L 281.394138 94.779645 
L 281.829624 94.188848 
L 282.265109 94.191234 
L 282.700595 94.074333 
L 283.136081 94.215525 
L 283.571566 94.168678 
L 284.007052 93.870894 
L 284.442538 94.020762 
L 285.313509 93.99235 
L 286.619966 94.108167 
L 287.055451 93.878919 
L 287.490937 93.824697 
L 287.926423 93.458811 
L 288.797394 93.332584 
L 289.23288 93.721677 
L 290.103851 93.474644 
L 290.539337 93.958299 
L 290.974822 93.649887 
L 291.410308 93.934008 
L 291.845794 93.941165 
L 292.281279 93.803226 
L 293.15225 93.727749 
L 293.587736 94.153496 
L 294.023222 93.324342 
L 295.329679 93.115915 
L 295.765164 92.299124 
L 296.20065 92.436412 
L 296.636136 92.238829 
L 297.071621 92.696675 
L 297.507107 92.728774 
L 297.942592 92.543554 
L 298.378078 92.604065 
L 298.813564 91.994399 
L 300.120021 91.610078 
L 300.555506 91.632417 
L 300.990992 91.53612 
L 301.426478 91.557592 
L 301.861963 91.206237 
L 303.603906 90.897825 
L 304.039391 90.207912 
L 304.474877 89.74985 
L 305.345848 89.427774 
L 305.781334 89.921406 
L 307.087791 89.768068 
L 307.523277 89.786937 
L 308.394248 89.552267 
L 308.829734 89.647696 
L 309.700705 88.999642 
L 310.13619 88.834809 
L 310.571676 88.795336 
L 311.007162 88.616839 
L 311.442647 89.108736 
L 311.878133 89.042802 
L 312.313619 89.358154 
L 312.749104 89.488069 
L 313.18459 89.074685 
L 313.620076 88.870378 
L 314.055561 88.79295 
L 314.491047 88.940432 
L 315.362018 88.931974 
L 315.797504 88.301921 
L 317.103961 88.184369 
L 317.539446 88.76931 
L 317.974932 88.660433 
L 318.845903 88.67735 
L 319.281389 88.235337 
L 319.716875 88.11258 
L 320.15236 87.828243 
L 321.023331 87.737151 
L 321.458817 88.111278 
L 321.894303 88.336406 
L 322.329788 88.07289 
L 322.765274 88.600789 
L 324.071731 88.548954 
L 324.507217 88.400387 
L 324.942702 88.474562 
L 325.378188 88.37653 
L 326.249159 88.413834 
L 327.12013 88.061829 
L 328.426587 88.165066 
L 329.297559 88.018885 
L 329.733044 88.02409 
L 330.16853 88.149017 
L 330.604016 88.028428 
L 331.039501 88.737861 
L 331.474987 88.750224 
L 332.345958 88.127545 
L 332.781444 88.419256 
L 333.652415 88.656746 
L 334.523386 88.659132 
L 334.958872 89.340369 
L 335.394358 89.618851 
L 335.829843 89.491105 
L 336.265329 89.489804 
L 336.700815 90.217889 
L 338.007271 90.243698 
L 338.878243 90.001871 
L 339.313728 90.163884 
L 341.926642 90.271026 
L 342.797614 90.395301 
L 343.233099 90.311367 
L 343.668585 90.559267 
L 344.10407 89.635768 
L 344.539556 89.24147 
L 344.975042 89.573522 
L 345.410527 89.431245 
L 345.846013 89.436884 
L 346.281499 89.060153 
L 346.716984 89.134328 
L 347.15247 89.41975 
L 347.587956 89.552701 
L 348.023441 90.164752 
L 348.894412 90.124194 
L 349.765384 90.19555 
L 350.636355 88.564569 
L 351.071841 88.597319 
L 351.507326 88.070504 
L 351.942812 88.079613 
L 352.378298 87.250242 
L 352.813783 87.296873 
L 353.249269 86.947253 
L 353.684755 86.822544 
L 354.12024 87.356516 
L 354.991211 87.286245 
L 355.426697 86.812133 
L 355.862183 86.787842 
L 356.733154 87.057214 
L 357.16864 86.938578 
L 357.604125 86.447982 
L 358.039611 87.359987 
L 358.475097 87.337864 
L 358.910582 87.173248 
L 359.346068 87.14874 
L 359.781554 87.007764 
L 361.523496 87.226385 
L 361.958982 87.999582 
L 362.394467 87.369096 
L 363.265439 87.272148 
L 364.13641 87.332225 
L 364.571896 87.793324 
L 365.007381 88.068986 
L 365.878353 87.787468 
L 366.313838 87.66406 
L 366.749324 88.216251 
L 367.184809 88.215167 
L 367.620295 88.437691 
L 368.055781 88.203021 
L 368.491266 88.11952 
L 368.926752 88.15292 
L 369.362238 87.61461 
L 370.233209 87.364541 
L 371.539666 87.270413 
L 371.975151 87.027067 
L 372.410637 87.15915 
L 372.846123 87.449343 
L 374.15258 87.553882 
L 374.588065 87.225951 
L 375.459037 87.290366 
L 376.330008 87.438933 
L 376.765494 86.992582 
L 377.636465 87.094518 
L 378.07195 87.126401 
L 378.507436 86.339973 
L 378.942922 87.12228 
L 379.378407 87.224433 
L 379.813893 87.017741 
L 380.249379 86.971978 
L 380.684864 87.696593 
L 381.12035 87.60138 
L 381.555836 87.743874 
L 381.991321 87.719149 
L 382.426807 87.395122 
L 383.297778 86.329129 
L 384.168749 87.093217 
L 384.604235 86.232398 
L 385.039721 85.776287 
L 385.475206 85.733344 
L 385.910692 85.860656 
L 386.346178 85.830943 
L 386.781663 86.166899 
L 387.652635 86.128293 
L 388.523606 86.357324 
L 388.959091 86.86462 
L 389.394577 87.565377 
L 389.830063 87.766647 
L 390.265548 87.335695 
L 390.701034 87.329623 
L 391.13652 87.566679 
L 392.007491 87.668181 
L 392.442977 87.434595 
L 392.878462 87.390351 
L 393.313948 86.83534 
L 393.749434 86.796084 
L 394.620405 87.338732 
L 397.233319 87.32702 
L 397.668804 87.117508 
L 398.10429 87.436981 
L 398.539776 87.14527 
L 398.975261 87.259785 
L 399.410747 87.02685 
L 401.588175 87.022729 
L 402.023661 87.376904 
L 402.023661 87.376904 
" style="fill:none;stroke:#1f77b4;stroke-linecap:square;stroke-opacity:0.8;stroke-width:1.5;"/>
   </g>
   <g id="line2d_19">
    <path clip-path="url(#pffe4cbb3c4)" d="M 147.264561 37.362637 
L 148.135532 37.146836 
L 148.571018 36.926046 
L 149.006503 36.95923 
L 149.441989 37.796625 
L 149.877475 38.185068 
L 150.31296 38.844834 
L 150.748446 37.969483 
L 151.183931 38.066431 
L 151.619417 38.535121 
L 152.054903 38.389808 
L 152.490388 38.450753 
L 152.925874 37.530507 
L 153.36136 37.462405 
L 153.796845 38.265966 
L 154.232331 38.129111 
L 154.667817 37.150306 
L 155.103302 37.198672 
L 155.538788 38.19049 
L 155.974273 38.52059 
L 156.409759 38.465935 
L 156.845245 38.291992 
L 157.28073 38.257291 
L 157.716216 38.491961 
L 158.151702 38.865004 
L 158.587187 37.826122 
L 159.022673 37.473466 
L 159.893644 37.445271 
L 160.764616 37.264822 
L 162.071072 37.343768 
L 162.942044 36.91672 
L 163.377529 37.118858 
L 163.813015 38.033031 
L 164.248501 38.280714 
L 165.554958 38.393278 
L 165.990443 36.644529 
L 166.861415 36.381446 
L 167.2969 35.241279 
L 167.732386 35.327382 
L 168.167871 36.266931 
L 168.603357 36.297295 
L 169.038843 36.467116 
L 169.474328 36.507674 
L 170.3453 36.762731 
L 170.780785 37.360902 
L 171.216271 37.179586 
L 171.651757 36.108171 
L 172.087242 37.547207 
L 172.522728 37.417943 
L 172.958213 37.164404 
L 173.393699 37.097386 
L 173.829185 37.237928 
L 174.26467 36.961833 
L 176.442099 36.872259 
L 176.877584 35.901695 
L 177.31307 35.473563 
L 177.748556 35.552943 
L 178.184041 35.261232 
L 178.619527 36.070866 
L 179.490498 36.004065 
L 179.925984 35.535592 
L 181.232441 35.433006 
L 181.667926 35.978256 
L 182.103412 35.82405 
L 183.409869 38.134533 
L 184.28084 38.455958 
L 184.716326 38.839412 
L 185.151811 38.958048 
L 185.587297 39.446691 
L 186.022783 39.675506 
L 186.458268 40.3793 
L 186.893754 40.581003 
L 187.32924 41.616632 
L 187.764725 41.825927 
L 188.200211 41.811179 
L 188.635697 41.185247 
L 189.071182 41.181994 
L 189.506668 40.440678 
L 190.377639 40.758199 
L 191.24861 42.16557 
L 191.684096 42.337994 
L 192.119582 41.575207 
L 192.555067 41.558724 
L 192.990553 40.755163 
L 195.167981 41.039283 
L 195.603467 41.243589 
L 196.474438 40.381252 
L 196.909924 40.646503 
L 197.345409 40.373878 
L 198.216381 40.392096 
L 198.651866 39.933383 
L 199.522838 39.719751 
L 199.958323 40.149618 
L 200.393809 39.846846 
L 200.829295 40.604861 
L 201.26478 40.384722 
L 201.700266 39.376637 
L 202.135751 40.051586 
L 202.571237 39.102928 
L 203.442208 40.996773 
L 203.877694 41.462644 
L 204.31318 40.630887 
L 204.748665 40.728052 
L 205.619637 41.776694 
L 206.490608 41.774525 
L 206.926093 41.196959 
L 207.361579 41.917887 
L 207.797065 42.113951 
L 208.23255 42.491983 
L 208.668036 42.185957 
L 209.103522 42.225214 
L 209.539007 42.065369 
L 209.974493 41.200212 
L 210.409979 40.83194 
L 210.845464 41.413411 
L 211.28095 41.601884 
L 212.151921 41.381528 
L 212.587407 42.013316 
L 213.458378 41.955625 
L 213.893864 42.503478 
L 214.329349 42.756584 
L 214.764835 41.802937 
L 215.200321 41.841977 
L 215.635806 41.726377 
L 216.071292 41.780815 
L 216.506778 41.570219 
L 216.942263 41.501032 
L 217.377749 41.904223 
L 217.813235 41.942829 
L 218.24872 41.0395 
L 218.684206 40.885294 
L 219.119691 40.315319 
L 219.555177 40.267604 
L 219.990663 40.090625 
L 220.426148 41.140135 
L 220.861634 40.209695 
L 221.29712 39.947697 
L 221.732605 40.223576 
L 222.168091 40.255024 
L 222.603577 40.602909 
L 223.474548 40.474296 
L 223.910033 41.036463 
L 224.345519 40.883125 
L 224.781005 40.994604 
L 225.21649 41.260072 
L 226.522947 41.123001 
L 226.958433 39.934467 
L 227.393919 39.681579 
L 228.26489 39.673771 
L 228.700376 39.78807 
L 229.571347 39.664445 
L 230.006832 39.100108 
L 230.877804 39.302463 
L 231.313289 39.077769 
L 231.748775 39.154763 
L 232.619746 37.791203 
L 233.055232 38.233867 
L 233.490718 38.171187 
L 233.926203 37.310585 
L 234.797175 37.486479 
L 235.23266 37.469779 
L 235.668146 38.296764 
L 236.103631 38.658963 
L 236.539117 38.802107 
L 236.974603 38.445114 
L 237.410088 38.280064 
L 237.845574 38.577631 
L 238.28106 38.66612 
L 238.716545 38.87715 
L 239.152031 38.933106 
L 239.587517 39.629526 
L 240.458488 39.578558 
L 241.329459 38.303487 
L 241.764945 38.126725 
L 242.20043 37.714209 
L 242.635916 37.548725 
L 243.071402 38.173573 
L 243.506887 39.153679 
L 244.377859 39.05261 
L 244.813344 38.924431 
L 245.24883 37.87991 
L 245.684316 37.879042 
L 246.119801 37.576486 
L 246.555287 37.51077 
L 246.990772 36.845365 
L 247.426258 37.604465 
L 247.861744 37.728957 
L 248.732715 37.673868 
L 249.168201 37.287161 
L 249.603686 36.116846 
L 250.039172 35.726669 
L 250.474658 34.990125 
L 250.910143 36.656891 
L 251.781115 36.715884 
L 252.2166 37.84716 
L 252.652086 37.453946 
L 253.087571 37.861257 
L 253.523057 37.940854 
L 254.394028 37.771033 
L 254.829514 38.15427 
L 255.700485 37.97252 
L 256.135971 38.073588 
L 256.571457 39.070829 
L 257.877914 39.109651 
L 258.313399 39.055864 
L 258.748885 38.845701 
L 259.18437 39.076034 
L 259.619856 39.046321 
L 260.055342 38.804927 
L 260.926313 38.932672 
L 261.361799 39.167126 
L 261.797284 40.164366 
L 262.23277 40.339176 
L 262.668256 39.925141 
L 263.539227 39.889789 
L 263.974712 38.849172 
L 264.410198 38.529916 
L 264.845684 39.026801 
L 266.587626 38.935492 
L 267.023112 39.1578 
L 267.458598 38.896886 
L 267.894083 38.858714 
L 268.329569 39.070178 
L 268.765055 39.120929 
L 269.20054 38.424726 
L 269.636026 37.506649 
L 270.071511 37.605549 
L 270.506997 37.08112 
L 270.942483 37.054443 
L 271.377968 36.679664 
L 272.24894 36.547798 
L 273.119911 36.621105 
L 273.555397 37.344202 
L 273.990882 37.46067 
L 274.426368 38.271388 
L 274.861854 38.182465 
L 275.297339 37.788384 
L 275.732825 37.688399 
L 276.16831 37.378253 
L 276.603796 36.221385 
L 277.039282 37.261568 
L 277.474767 37.626804 
L 278.345739 37.711606 
L 278.781224 37.519229 
L 279.652196 37.402327 
L 280.087681 37.441367 
L 280.958652 38.241458 
L 281.394138 37.738066 
L 281.829624 37.605983 
L 282.265109 37.830676 
L 282.700595 37.774286 
L 284.442538 38.479598 
L 284.878023 38.36942 
L 285.313509 38.558111 
L 285.748995 38.085083 
L 286.18448 38.59021 
L 286.619966 39.705219 
L 287.055451 39.602849 
L 287.490937 40.686193 
L 288.361908 40.840399 
L 288.797394 41.601017 
L 289.23288 41.976446 
L 290.974822 41.778863 
L 291.410308 41.645478 
L 291.845794 41.984471 
L 292.281279 42.048235 
L 292.716765 42.273145 
L 293.15225 42.979542 
L 293.587736 43.149797 
L 294.023222 43.037017 
L 294.458707 42.619295 
L 294.894193 43.505707 
L 295.329679 43.735388 
L 296.636136 43.749052 
L 297.071621 43.77009 
L 297.507107 43.587472 
L 297.942592 44.167208 
L 298.378078 43.307256 
L 299.249049 43.228527 
L 299.684535 43.526528 
L 300.120021 43.506791 
L 300.555506 43.218984 
L 300.990992 43.22484 
L 301.426478 42.77003 
L 302.297449 42.825553 
L 302.732935 42.362068 
L 303.16842 43.130928 
L 303.603906 42.62103 
L 304.039391 43.072803 
L 304.474877 43.022919 
L 304.910363 43.32374 
L 305.345848 42.905584 
L 305.781334 42.953516 
L 306.21682 43.176474 
L 307.087791 43.210742 
L 307.523277 43.032245 
L 307.958762 42.34667 
L 308.829734 42.4267 
L 309.265219 42.641417 
L 309.700705 42.100721 
L 310.13619 41.954323 
L 310.571676 41.272435 
L 311.007162 41.225805 
L 311.442647 40.295582 
L 311.878133 41.539855 
L 312.749104 41.892728 
L 313.620076 41.570219 
L 314.055561 40.834326 
L 315.797504 40.938865 
L 316.232989 40.625031 
L 316.668475 40.579702 
L 317.539446 41.949552 
L 317.974932 41.49214 
L 318.410418 41.529661 
L 318.845903 42.311534 
L 321.458817 42.246685 
L 321.894303 42.698892 
L 322.329788 42.115036 
L 322.765274 42.768729 
L 323.20076 42.097034 
L 323.636245 41.12864 
L 324.071731 41.179174 
L 324.942702 40.08542 
L 325.378188 39.918201 
L 326.249159 41.333163 
L 327.12013 41.392806 
L 328.426587 41.55829 
L 328.862073 41.835036 
L 329.733044 41.862798 
L 330.16853 42.684144 
L 330.604016 42.173595 
L 331.474987 42.528854 
L 331.910472 43.2025 
L 332.345958 42.275531 
L 333.216929 42.398939 
L 333.652415 42.027631 
L 334.087901 42.413904 
L 334.523386 42.307196 
L 334.958872 42.603679 
L 335.394358 43.378828 
L 335.829843 43.389239 
L 336.265329 43.616318 
L 336.700815 43.090804 
L 337.1363 42.906235 
L 337.571786 42.95742 
L 338.007271 42.095299 
L 338.442757 41.86822 
L 338.878243 41.892511 
L 340.1847 42.376166 
L 341.055671 41.925478 
L 342.362128 42.066887 
L 343.668585 42.301124 
L 344.10407 42.197235 
L 344.539556 41.945648 
L 344.975042 42.179668 
L 346.281499 42.287243 
L 346.716984 42.047584 
L 347.15247 42.181403 
L 347.587956 42.599341 
L 348.023441 42.830108 
L 348.458927 42.674601 
L 348.894412 43.587256 
L 349.329898 44.009315 
L 350.200869 43.797418 
L 351.942812 43.453654 
L 352.378298 43.69418 
L 353.249269 43.633452 
L 354.12024 43.635404 
L 354.555726 44.463257 
L 354.991211 44.164171 
L 355.426697 44.647826 
L 355.862183 44.301677 
L 357.16864 44.669732 
L 357.604125 44.587966 
L 358.910582 44.659104 
L 359.346068 44.610739 
L 359.781554 44.071778 
L 360.217039 44.422265 
L 360.652525 44.402312 
L 361.08801 44.756269 
L 361.523496 46.132626 
L 361.958982 44.944743 
L 362.394467 45.046679 
L 362.829953 45.756763 
L 363.265439 45.682371 
L 364.13641 46.141084 
L 365.878353 45.99512 
L 366.313838 46.959394 
L 366.749324 47.052438 
L 367.184809 46.840324 
L 368.055781 46.991927 
L 368.491266 46.474871 
L 368.926752 46.34821 
L 369.362238 45.895787 
L 370.233209 45.506694 
L 370.668695 46.035461 
L 371.539666 46.03763 
L 372.410637 46.243237 
L 373.281608 46.09749 
L 374.15258 46.039365 
L 374.588065 46.286831 
L 375.023551 46.319581 
L 375.459037 46.087947 
L 375.894522 46.40113 
L 376.330008 46.455352 
L 376.765494 46.664863 
L 377.200979 46.646211 
L 377.636465 45.807948 
L 378.07195 45.486306 
L 378.507436 45.590412 
L 378.942922 45.4798 
L 379.378407 45.990349 
L 379.813893 45.979721 
L 381.991321 46.467497 
L 382.426807 47.010362 
L 382.862293 46.567698 
L 383.297778 47.254792 
L 384.168749 47.1804 
L 384.604235 47.819996 
L 385.039721 47.708951 
L 385.475206 47.98895 
L 385.910692 48.039267 
L 386.346178 48.538321 
L 387.217149 48.594929 
L 387.652635 48.389972 
L 388.08812 48.416865 
L 388.523606 49.055811 
L 388.959091 48.890544 
L 389.394577 48.899002 
L 390.265548 48.083078 
L 390.701034 48.040569 
L 391.572005 48.241622 
L 392.007491 48.262443 
L 392.442977 47.905449 
L 392.878462 48.600351 
L 393.313948 48.047075 
L 393.749434 48.16376 
L 394.184919 48.033628 
L 394.620405 48.585819 
L 395.05589 48.114527 
L 395.491376 48.848034 
L 395.926862 48.828731 
L 396.362347 49.171627 
L 396.797833 49.284408 
L 397.233319 48.244008 
L 397.668804 47.930391 
L 398.10429 47.873133 
L 398.539776 48.061824 
L 398.975261 48.509042 
L 400.717204 46.815382 
L 401.152689 47.254575 
L 401.588175 47.284505 
L 402.023661 46.897581 
L 402.023661 46.897581 
" style="fill:none;stroke:#ff7f0e;stroke-linecap:square;stroke-opacity:0.8;stroke-width:1.5;"/>
   </g>
   <g id="line2d_20">
    <path clip-path="url(#pffe4cbb3c4)" d="M 0 0 
" style="fill:none;stroke:#2ca02c;stroke-linecap:square;stroke-opacity:0.8;stroke-width:1.5;"/>
   </g>
   <g id="line2d_21">
    <path clip-path="url(#pffe4cbb3c4)" d="M 147.264561 82.357953 
L 147.700046 82.393522 
L 148.135532 82.629277 
L 148.571018 82.611492 
L 149.006503 81.282634 
L 149.441989 81.337939 
L 149.877475 80.960558 
L 150.31296 80.779676 
L 150.748446 80.886167 
L 151.619417 80.760373 
L 152.054903 80.140731 
L 152.490388 78.884529 
L 152.925874 78.822283 
L 153.36136 79.212243 
L 153.796845 79.266681 
L 154.232331 79.692862 
L 154.667817 79.601553 
L 155.103302 78.336459 
L 155.538788 77.55849 
L 156.409759 76.643666 
L 156.845245 76.657764 
L 157.28073 76.306192 
L 157.716216 77.044471 
L 158.151702 77.364377 
L 158.587187 79.432165 
L 159.022673 79.341941 
L 159.893644 78.88236 
L 160.32913 78.405211 
L 160.764616 78.175746 
L 161.200101 78.417574 
L 162.506558 78.082703 
L 162.942044 77.8656 
L 163.377529 78.098969 
L 163.813015 77.975778 
L 164.248501 78.585227 
L 165.119472 78.420177 
L 165.554958 77.146841 
L 165.990443 75.39614 
L 166.425929 74.512981 
L 167.2969 73.289529 
L 167.732386 73.101923 
L 168.167871 73.083705 
L 168.603357 72.639089 
L 169.038843 71.864591 
L 169.909814 71.965876 
L 170.3453 71.149736 
L 170.780785 70.879713 
L 171.651757 69.420289 
L 172.522728 69.186704 
L 172.958213 69.610932 
L 173.393699 70.201511 
L 173.829185 69.147664 
L 174.26467 69.681853 
L 175.135642 69.021654 
L 175.571127 68.009231 
L 176.442099 67.982771 
L 176.877584 67.200465 
L 177.748556 66.676252 
L 178.184041 65.839073 
L 178.619527 65.362576 
L 179.055012 64.713654 
L 179.490498 64.695652 
L 179.925984 64.523879 
L 180.361469 63.841123 
L 180.796955 63.553099 
L 181.232441 62.923913 
L 182.103412 61.043731 
L 182.974383 61.404629 
L 183.409869 61.236326 
L 183.845355 59.891201 
L 184.716326 59.607081 
L 185.151811 59.728971 
L 186.458268 59.147066 
L 186.893754 59.080483 
L 188.200211 58.215326 
L 188.635697 57.756396 
L 189.942153 57.558596 
L 190.377639 60.306971 
L 190.813125 59.811821 
L 191.684096 59.649157 
L 192.119582 59.452441 
L 192.555067 59.098918 
L 194.29701 59.616407 
L 196.038952 59.421644 
L 196.474438 59.10781 
L 196.909924 58.050493 
L 197.345409 57.907782 
L 197.780895 57.617589 
L 198.651866 57.566621 
L 199.087352 56.965197 
L 199.958323 57.302888 
L 200.393809 57.427597 
L 201.26478 56.077267 
L 201.700266 56.268126 
L 202.571237 55.915687 
L 203.006723 57.15302 
L 203.442208 57.274476 
L 203.877694 57.214181 
L 204.31318 57.350169 
L 205.184151 58.050926 
L 205.619637 58.006682 
L 206.055122 58.079989 
L 206.926093 58.541088 
L 207.361579 58.683365 
L 207.797065 58.617649 
L 208.668036 60.128691 
L 209.539007 60.711896 
L 209.974493 61.546256 
L 210.845464 62.503372 
L 211.28095 62.85798 
L 211.716436 62.846919 
L 212.151921 63.308235 
L 212.587407 64.397001 
L 213.022892 64.45556 
L 213.893864 65.086697 
L 214.329349 66.303426 
L 215.200321 66.554579 
L 215.635806 67.296111 
L 216.071292 67.606475 
L 216.506778 67.509093 
L 216.942263 67.699519 
L 217.377749 68.97177 
L 217.813235 69.057223 
L 218.684206 69.042041 
L 219.119691 69.70853 
L 219.990663 69.325727 
L 220.426148 69.794417 
L 220.861634 70.681263 
L 221.29712 70.632463 
L 221.732605 72.60699 
L 222.168091 72.279493 
L 222.603577 72.253033 
L 223.039062 72.656874 
L 223.474548 73.877507 
L 223.910033 73.547623 
L 224.345519 73.535261 
L 224.781005 74.315616 
L 225.21649 74.631618 
L 225.651976 74.629666 
L 226.087462 75.053677 
L 226.958433 75.321748 
L 227.393919 76.827368 
L 227.829404 76.82867 
L 228.26489 77.658908 
L 228.700376 77.614663 
L 229.135861 77.98814 
L 229.571347 78.11285 
L 230.006832 79.325674 
L 230.442318 79.335651 
L 230.877804 81.034733 
L 231.313289 81.042107 
L 232.184261 82.619517 
L 233.055232 82.658339 
L 233.490718 82.636 
L 233.926203 83.992403 
L 234.361689 84.034479 
L 234.797175 84.472588 
L 235.23266 84.595779 
L 236.103631 84.476275 
L 236.539117 84.184347 
L 236.974603 85.029333 
L 237.410088 86.316767 
L 239.587517 86.304404 
L 240.023002 87.414208 
L 240.458488 88.111712 
L 240.893974 87.987003 
L 241.329459 88.230999 
L 242.635916 87.197539 
L 243.942373 87.026199 
L 244.813344 87.198407 
L 245.24883 87.792457 
L 246.555287 87.814579 
L 248.297229 87.611357 
L 250.039172 87.818266 
L 251.345629 89.850051 
L 252.2166 90.659468 
L 252.652086 90.664456 
L 253.087571 90.788081 
L 253.523057 91.036198 
L 253.958543 91.492092 
L 254.394028 91.136833 
L 254.829514 91.184114 
L 255.265 91.769706 
L 255.700485 91.732835 
L 256.135971 92.142315 
L 256.571457 92.753933 
L 258.313399 93.260795 
L 258.748885 94.13788 
L 259.18437 94.056765 
L 259.619856 94.089948 
L 260.055342 94.245022 
L 260.490827 94.987421 
L 260.926313 94.978095 
L 261.797284 95.846289 
L 262.668256 96.007868 
L 263.103741 96.639006 
L 263.539227 97.069741 
L 263.974712 97.718446 
L 264.410198 97.648825 
L 264.845684 97.811923 
L 265.281169 97.544286 
L 265.716655 97.49462 
L 266.152141 97.871567 
L 266.587626 99.190448 
L 267.023112 99.837635 
L 267.458598 99.755653 
L 268.329569 99.826574 
L 268.765055 100.455759 
L 269.636026 100.8095 
L 270.071511 100.707781 
L 270.506997 100.788028 
L 270.942483 100.328014 
L 271.813454 100.437975 
L 272.24894 100.336255 
L 272.684425 100.353389 
L 273.119911 100.129997 
L 273.555397 100.432553 
L 273.990882 101.082559 
L 274.426368 101.333496 
L 274.861854 101.421551 
L 275.297339 101.249778 
L 275.732825 101.927979 
L 276.16831 101.813247 
L 276.603796 101.878746 
L 277.039282 102.142045 
L 277.474767 103.099812 
L 278.781224 103.270285 
L 279.21671 103.161842 
L 280.523167 103.327976 
L 280.958652 103.465048 
L 281.394138 103.886674 
L 281.829624 105.016214 
L 282.265109 104.97262 
L 282.700595 105.387956 
L 284.442538 105.273224 
L 285.313509 104.883046 
L 286.18448 106.453515 
L 286.619966 106.491253 
L 287.055451 106.347025 
L 287.490937 106.448961 
L 288.361908 106.195638 
L 288.797394 106.225135 
L 290.103851 105.779652 
L 290.539337 105.93993 
L 291.845794 105.475795 
L 292.281279 105.329614 
L 292.716765 105.413982 
L 293.15225 104.671366 
L 293.587736 104.622567 
L 294.458707 104.228702 
L 295.329679 103.91964 
L 295.765164 103.66198 
L 297.507107 103.220618 
L 297.942592 102.817644 
L 298.813564 102.59924 
L 300.555506 101.930799 
L 300.990992 102.02124 
L 301.426478 101.913231 
L 301.861963 101.930148 
L 302.297449 101.824308 
L 302.732935 101.484231 
L 304.474877 100.966959 
L 304.910363 100.103537 
L 306.21682 99.82267 
L 307.087791 100.021337 
L 307.958762 99.51556 
L 308.394248 99.5058 
L 308.829734 99.75934 
L 309.265219 99.620316 
L 310.13619 98.963369 
L 310.571676 98.900255 
L 311.007162 99.047738 
L 311.878133 98.496197 
L 312.313619 98.832587 
L 314.491047 98.411178 
L 314.926532 97.979576 
L 315.362018 97.754449 
L 315.797504 98.267166 
L 316.232989 98.140071 
L 316.668475 97.77592 
L 317.103961 97.204643 
L 317.974932 96.952405 
L 320.587846 95.779705 
L 321.458817 96.039967 
L 321.894303 96.054282 
L 322.329788 95.586893 
L 323.636245 94.964215 
L 324.071731 94.593774 
L 324.507217 94.439785 
L 325.378188 94.591822 
L 325.813674 95.007592 
L 326.684645 95.103238 
L 327.12013 95.429434 
L 328.426587 95.690131 
L 328.862073 95.580604 
L 329.297559 95.651525 
L 329.733044 95.496669 
L 330.604016 95.556096 
L 331.039501 95.397769 
L 332.781444 95.434856 
L 333.216929 95.404709 
L 333.652415 95.105841 
L 334.087901 95.064416 
L 334.523386 94.641922 
L 334.958872 94.610257 
L 335.394358 95.007592 
L 335.829843 95.955165 
L 336.700815 96.108286 
L 337.571786 96.068596 
L 338.007271 95.914824 
L 338.442757 95.253757 
L 338.878243 95.373912 
L 339.313728 95.739581 
L 339.749214 95.370441 
L 340.1847 95.370658 
L 340.620185 95.551975 
L 341.491157 95.284988 
L 341.926642 95.199319 
L 342.362128 94.903487 
L 342.797614 94.798731 
L 344.10407 94.96595 
L 344.975042 95.21385 
L 345.410527 95.246383 
L 345.846013 94.683998 
L 346.716984 95.091743 
L 347.15247 94.809792 
L 347.587956 94.817166 
L 348.023441 94.617414 
L 348.458927 93.791514 
L 348.894412 93.871762 
L 349.765384 93.770693 
L 350.200869 94.297942 
L 351.071841 94.505068 
L 351.507326 94.329607 
L 351.942812 94.278422 
L 352.378298 93.353839 
L 352.813783 93.1337 
L 353.249269 92.330138 
L 353.684755 92.696024 
L 355.426697 92.526637 
L 355.862183 92.434243 
L 356.297668 92.492586 
L 356.733154 92.410603 
L 357.16864 92.630742 
L 357.604125 92.595389 
L 358.039611 92.990555 
L 358.910582 93.0682 
L 359.346068 92.797961 
L 359.781554 92.69494 
L 360.217039 92.911609 
L 360.652525 92.637682 
L 361.958982 92.53683 
L 362.829953 92.537915 
L 363.265439 92.29522 
L 363.700924 92.266808 
L 364.13641 92.409518 
L 367.620295 91.964686 
L 368.491266 92.019124 
L 368.926752 92.485428 
L 369.362238 92.331223 
L 371.10418 92.327969 
L 371.539666 92.035824 
L 371.975151 92.32233 
L 372.410637 91.94278 
L 375.459037 91.462162 
L 375.894522 91.130544 
L 376.765494 91.047476 
L 377.200979 90.976772 
L 377.636465 91.035331 
L 378.07195 91.530264 
L 378.507436 91.448932 
L 378.942922 91.618103 
L 380.249379 91.686855 
L 380.684864 90.752729 
L 381.555836 90.442149 
L 381.991321 90.040693 
L 382.426807 90.092529 
L 382.862293 90.409399 
L 383.733264 90.102939 
L 385.475206 90.028981 
L 385.910692 89.926828 
L 386.346178 89.948951 
L 386.781663 89.674807 
L 387.217149 89.539037 
L 388.08812 89.747247 
L 389.394577 89.493925 
L 389.830063 90.456897 
L 392.007491 89.843544 
L 396.797833 90.10641 
L 397.233319 89.93854 
L 398.975261 89.835953 
L 399.410747 89.902537 
L 399.846233 90.282738 
L 400.717204 90.282087 
L 401.152689 90.141111 
L 401.588175 90.33414 
L 402.023661 90.984363 
L 402.023661 90.984363 
" style="fill:none;stroke:#d62728;stroke-linecap:square;stroke-opacity:0.8;stroke-width:1.5;"/>
   </g>
   <g id="line2d_22">
    <path clip-path="url(#pffe4cbb3c4)" d="M 147.264561 111.206781 
L 147.700046 110.837425 
L 149.006503 108.568151 
L 149.877475 107.14126 
L 150.31296 106.587768 
L 150.748446 104.974138 
L 152.054903 102.937799 
L 153.36136 100.923799 
L 153.796845 100.514752 
L 155.538788 97.246069 
L 155.974273 95.905932 
L 157.28073 93.996905 
L 157.716216 93.124807 
L 158.587187 92.380456 
L 160.32913 90.005992 
L 161.200101 87.614393 
L 161.635587 87.840822 
L 162.071072 87.936902 
L 162.506558 87.695292 
L 162.942044 87.61396 
L 163.377529 87.654083 
L 163.813015 87.557569 
L 164.683986 87.558437 
L 165.119472 87.562991 
L 165.554958 86.643179 
L 165.990443 86.706076 
L 166.425929 86.345829 
L 166.861415 86.403087 
L 167.2969 87.084325 
L 169.474328 86.598935 
L 169.909814 86.289873 
L 170.3453 86.459043 
L 172.958213 86.326093 
L 173.393699 86.824496 
L 173.829185 86.803024 
L 174.26467 86.645782 
L 175.135642 87.297523 
L 175.571127 86.736223 
L 176.442099 87.851233 
L 176.877584 87.95729 
L 177.31307 87.692689 
L 178.619527 87.307283 
L 179.925984 86.853559 
L 180.796955 87.343286 
L 181.667926 87.102109 
L 182.538898 86.729066 
L 182.974383 86.449067 
L 183.409869 86.309176 
L 183.845355 86.863535 
L 184.28084 86.301151 
L 184.716326 86.263196 
L 185.587297 86.588958 
L 186.022783 86.614551 
L 186.458268 86.507192 
L 186.893754 86.517603 
L 188.635697 85.858921 
L 189.071182 86.10552 
L 189.506668 86.035683 
L 191.24861 86.260376 
L 191.684096 85.572632 
L 192.555067 85.485444 
L 192.990553 85.853499 
L 193.426039 85.843305 
L 193.861524 86.166682 
L 194.29701 86.166465 
L 194.732496 86.42304 
L 195.603467 86.305272 
L 196.038952 86.386821 
L 196.474438 86.103785 
L 196.909924 86.071252 
L 197.345409 85.602128 
L 197.780895 86.103351 
L 198.651866 86.047611 
L 199.087352 85.370711 
L 199.522838 86.123305 
L 199.958323 86.300066 
L 200.393809 86.236085 
L 200.829295 85.664591 
L 201.700266 85.213469 
L 202.135751 85.940904 
L 202.571237 86.01356 
L 203.006723 85.928324 
L 203.442208 86.438006 
L 203.877694 86.431933 
L 204.748665 86.954193 
L 205.184151 86.981087 
L 205.619637 87.35695 
L 206.055122 86.78524 
L 206.926093 86.942265 
L 207.797065 86.831002 
L 208.23255 86.711498 
L 209.539007 86.8117 
L 209.974493 87.142233 
L 210.409979 86.747935 
L 210.845464 85.316924 
L 211.28095 85.297621 
L 211.716436 84.49753 
L 212.151921 84.869922 
L 212.587407 84.848451 
L 213.022892 84.153549 
L 213.458378 84.006284 
L 213.893864 84.188468 
L 214.329349 83.639964 
L 214.764835 83.695053 
L 216.071292 83.537377 
L 216.942263 83.506579 
L 217.377749 83.74537 
L 217.813235 83.719344 
L 218.24872 83.823666 
L 218.684206 83.551257 
L 219.119691 83.559716 
L 219.555177 83.344565 
L 219.990663 82.759191 
L 220.861634 82.581779 
L 221.29712 82.793025 
L 222.168091 82.645543 
L 222.603577 83.044613 
L 223.910033 83.229833 
L 224.345519 82.775891 
L 224.781005 82.852452 
L 225.21649 82.803219 
L 225.651976 83.133969 
L 227.393919 83.311816 
L 228.26489 83.614588 
L 229.135861 83.568608 
L 230.442318 83.279934 
L 231.748775 83.339143 
L 232.619746 83.108811 
L 233.490718 83.357145 
L 233.926203 83.120306 
L 234.361689 82.744226 
L 235.23266 82.419982 
L 235.668146 83.189058 
L 236.103631 82.924892 
L 236.539117 82.888021 
L 237.410088 82.43755 
L 238.28106 82.399812 
L 238.716545 82.470299 
L 239.152031 82.727743 
L 239.587517 82.617131 
L 240.023002 82.646411 
L 240.458488 82.9327 
L 240.893974 83.579236 
L 242.20043 83.252172 
L 242.635916 82.889322 
L 243.071402 82.815148 
L 243.506887 82.499145 
L 243.942373 82.342554 
L 244.377859 82.355567 
L 244.813344 81.930905 
L 245.24883 81.974282 
L 245.684316 82.293754 
L 246.119801 82.859392 
L 246.555287 82.693041 
L 246.990772 82.31284 
L 247.426258 82.21676 
L 248.297229 81.111944 
L 249.603686 80.947111 
L 250.039172 80.713959 
L 250.474658 81.442261 
L 250.910143 81.137971 
L 251.345629 81.572176 
L 252.2166 81.209109 
L 252.652086 81.324059 
L 253.087571 81.301069 
L 253.958543 80.893974 
L 254.394028 80.307732 
L 254.829514 80.606167 
L 255.700485 80.023395 
L 256.135971 79.442792 
L 256.571457 79.338037 
L 257.006942 78.365305 
L 257.442428 78.407163 
L 258.313399 77.954089 
L 259.619856 77.956258 
L 260.055342 77.777111 
L 260.490827 78.197218 
L 261.361799 78.22216 
L 261.797284 78.02718 
L 262.23277 78.137575 
L 262.668256 77.770604 
L 263.539227 77.47976 
L 263.974712 76.193845 
L 264.410198 76.406827 
L 265.281169 76.127045 
L 265.716655 75.913846 
L 266.152141 76.291661 
L 267.458598 76.466254 
L 267.894083 76.197966 
L 268.329569 76.172591 
L 268.765055 75.96785 
L 269.20054 76.427431 
L 270.506997 76.191893 
L 270.942483 76.052002 
L 271.377968 76.136154 
L 271.813454 76.024024 
L 272.24894 75.017241 
L 272.684425 74.850239 
L 273.119911 75.086427 
L 273.555397 75.164072 
L 273.990882 75.100742 
L 274.426368 74.512114 
L 275.297339 74.564817 
L 276.16831 73.871651 
L 276.603796 74.467435 
L 277.474767 73.916112 
L 278.345739 73.871867 
L 279.21671 73.707685 
L 279.652196 73.548708 
L 280.087681 73.553479 
L 280.958652 72.956176 
L 282.265109 73.363487 
L 283.571566 73.436578 
L 284.007052 73.908521 
L 284.878023 73.579072 
L 285.313509 73.39884 
L 285.748995 73.661922 
L 286.18448 73.610954 
L 286.619966 73.799645 
L 287.055451 73.654765 
L 287.490937 72.610894 
L 287.926423 72.178641 
L 289.23288 71.748123 
L 289.668365 72.076922 
L 290.103851 71.901678 
L 290.539337 71.858301 
L 290.974822 72.190787 
L 291.410308 72.153049 
L 291.845794 71.866326 
L 292.281279 71.93638 
L 292.716765 71.631439 
L 293.587736 71.469642 
L 294.023222 71.765474 
L 294.894193 71.454677 
L 295.329679 71.063415 
L 295.765164 71.760486 
L 296.20065 71.090743 
L 296.636136 71.667659 
L 297.071621 71.495885 
L 297.507107 70.667165 
L 297.942592 70.214091 
L 298.813564 70.124517 
L 299.249049 70.220814 
L 299.684535 69.580785 
L 301.426478 69.096696 
L 302.297449 68.741003 
L 302.732935 68.865062 
L 303.16842 68.860507 
L 303.603906 69.195596 
L 304.039391 68.257782 
L 304.474877 68.290532 
L 304.910363 68.837951 
L 305.781334 68.59222 
L 306.21682 68.105095 
L 306.652305 65.870956 
L 307.087791 65.92496 
L 307.523277 66.093914 
L 307.958762 65.645178 
L 308.829734 65.543675 
L 309.265219 65.659492 
L 309.700705 65.135496 
L 310.13619 65.241987 
L 310.571676 64.292028 
L 311.878133 63.495841 
L 312.313619 63.086144 
L 313.18459 62.718523 
L 314.491047 62.391242 
L 314.926532 61.730608 
L 315.362018 61.649059 
L 315.797504 61.737115 
L 316.232989 61.56404 
L 316.668475 61.18796 
L 317.103961 61.482491 
L 317.539446 61.159765 
L 317.974932 61.108797 
L 318.410418 60.915986 
L 318.845903 60.998619 
L 319.281389 59.423596 
L 319.716875 59.213433 
L 320.15236 58.538051 
L 320.587846 58.438284 
L 321.023331 58.632614 
L 321.458817 58.544341 
L 321.894303 58.907625 
L 323.20076 59.136439 
L 323.636245 59.080266 
L 324.071731 58.159586 
L 324.507217 58.0583 
L 324.942702 57.398968 
L 325.378188 57.261029 
L 325.813674 57.30202 
L 326.249159 56.250558 
L 326.684645 55.872744 
L 327.12013 55.76647 
L 327.555616 56.111101 
L 327.991102 55.41967 
L 328.426587 54.49617 
L 329.297559 53.705405 
L 329.733044 53.657474 
L 330.16853 51.999383 
L 330.604016 52.174843 
L 331.039501 51.680778 
L 331.474987 51.896579 
L 331.910472 52.273743 
L 332.345958 52.151636 
L 332.781444 52.545284 
L 333.216929 52.736143 
L 333.652415 52.309963 
L 334.087901 52.093945 
L 334.523386 51.66039 
L 335.394358 51.562792 
L 336.265329 50.968091 
L 336.700815 51.461506 
L 337.571786 51.453698 
L 338.007271 51.476905 
L 338.442757 51.78228 
L 338.878243 51.656053 
L 339.313728 52.215835 
L 340.1847 52.527933 
L 340.620185 52.213232 
L 341.055671 52.39997 
L 341.491157 52.236222 
L 341.926642 53.282261 
L 342.362128 53.08598 
L 342.797614 53.220232 
L 343.233099 52.649389 
L 343.668585 52.64375 
L 344.10407 52.400838 
L 344.539556 52.339676 
L 344.975042 52.488677 
L 345.846013 51.449361 
L 346.281499 51.553249 
L 346.716984 51.302746 
L 347.15247 51.378005 
L 347.587956 51.749097 
L 348.023441 51.42225 
L 348.458927 51.63393 
L 348.894412 53.014191 
L 349.765384 53.044338 
L 350.200869 53.208086 
L 350.636355 52.55461 
L 351.071841 52.199785 
L 352.378298 52.372209 
L 352.813783 52.748506 
L 353.684755 52.687344 
L 354.12024 52.894036 
L 354.555726 52.672162 
L 354.991211 52.704261 
L 355.426697 51.506618 
L 355.862183 51.579926 
L 356.733154 51.248741 
L 357.16864 52.145564 
L 357.604125 52.447468 
L 358.039611 51.862094 
L 358.910582 51.634364 
L 359.346068 52.275044 
L 359.781554 51.922605 
L 360.217039 51.862745 
L 361.08801 51.530042 
L 361.958982 51.627641 
L 362.394467 51.795076 
L 363.265439 51.559322 
L 364.13641 51.763411 
L 364.571896 51.939305 
L 365.007381 51.957741 
L 365.878353 52.427732 
L 367.184809 52.594083 
L 367.620295 51.696177 
L 368.055781 51.519632 
L 369.362238 51.661909 
L 369.797723 51.447409 
L 370.233209 51.698562 
L 370.668695 51.609639 
L 371.10418 51.841056 
L 371.975151 51.766447 
L 372.410637 52.909218 
L 372.846123 53.252548 
L 373.281608 53.273586 
L 373.717094 52.652642 
L 374.15258 52.795136 
L 374.588065 52.775183 
L 375.459037 51.774255 
L 375.894522 51.996129 
L 376.330008 51.857973 
L 376.765494 52.082884 
L 377.200979 51.990057 
L 377.636465 52.325145 
L 378.07195 51.92369 
L 378.507436 49.586096 
L 378.942922 49.565275 
L 379.813893 49.757653 
L 380.684864 51.150058 
L 381.12035 51.728493 
L 381.555836 51.366727 
L 381.991321 51.510739 
L 382.862293 53.106584 
L 383.297778 53.444275 
L 383.733264 53.373353 
L 384.168749 53.783484 
L 384.604235 54.385776 
L 385.475206 54.838416 
L 386.781663 55.260042 
L 388.08812 55.006069 
L 388.523606 54.883962 
L 388.959091 55.965354 
L 390.265548 56.270946 
L 390.701034 56.020009 
L 391.13652 56.450093 
L 391.572005 58.217061 
L 392.442977 57.793266 
L 393.313948 57.928603 
L 394.184919 57.531485 
L 394.620405 57.668123 
L 395.05589 57.116149 
L 395.491376 57.589394 
L 395.926862 57.55903 
L 396.362347 57.337806 
L 396.797833 57.790447 
L 397.233319 57.454708 
L 397.668804 56.722719 
L 398.10429 56.77694 
L 398.539776 56.558102 
L 398.975261 55.841729 
L 399.410747 55.973162 
L 399.846233 56.252077 
L 400.281718 55.704007 
L 401.152689 55.335518 
L 401.588175 54.819113 
L 402.023661 54.76641 
L 402.023661 54.76641 
" style="fill:none;stroke:#9467bd;stroke-linecap:square;stroke-opacity:0.8;stroke-width:1.5;"/>
   </g>
   <g id="patch_3">
    <path d="M 61.909375 288.430125 
L 61.909375 22.318125 
" style="fill:none;stroke:#000000;stroke-linecap:square;stroke-linejoin:miter;stroke-width:0.8;"/>
   </g>
   <g id="patch_4">
    <path d="M 419.029375 288.430125 
L 419.029375 22.318125 
" style="fill:none;stroke:#000000;stroke-linecap:square;stroke-linejoin:miter;stroke-width:0.8;"/>
   </g>
   <g id="patch_5">
    <path d="M 61.909375 288.430125 
L 419.029375 288.430125 
" style="fill:none;stroke:#000000;stroke-linecap:square;stroke-linejoin:miter;stroke-width:0.8;"/>
   </g>
   <g id="patch_6">
    <path d="M 61.909375 22.318125 
L 419.029375 22.318125 
" style="fill:none;stroke:#000000;stroke-linecap:square;stroke-linejoin:miter;stroke-width:0.8;"/>
   </g>
   <g id="text_20">
    <!-- Get filtered descendants count [branch] -->
    <g transform="translate(120.174063 16.318125)scale(0.12 -0.12)">
     <defs>
      <path d="M 59.515625 10.40625 
L 59.515625 29.984375 
L 43.40625 29.984375 
L 43.40625 38.09375 
L 69.28125 38.09375 
L 69.28125 6.78125 
Q 63.578125 2.734375 56.6875 0.65625 
Q 49.8125 -1.421875 42 -1.421875 
Q 24.90625 -1.421875 15.25 8.5625 
Q 5.609375 18.5625 5.609375 36.375 
Q 5.609375 54.25 15.25 64.234375 
Q 24.90625 74.21875 42 74.21875 
Q 49.125 74.21875 55.546875 72.453125 
Q 61.96875 70.703125 67.390625 67.28125 
L 67.390625 56.78125 
Q 61.921875 61.421875 55.765625 63.765625 
Q 49.609375 66.109375 42.828125 66.109375 
Q 29.4375 66.109375 22.71875 58.640625 
Q 16.015625 51.171875 16.015625 36.375 
Q 16.015625 21.625 22.71875 14.15625 
Q 29.4375 6.6875 42.828125 6.6875 
Q 48.046875 6.6875 52.140625 7.59375 
Q 56.25 8.5 59.515625 10.40625 
z
" id="DejaVuSans-71"/>
      <path d="M 41.109375 46.296875 
Q 39.59375 47.171875 37.8125 47.578125 
Q 36.03125 48 33.890625 48 
Q 26.265625 48 22.1875 43.046875 
Q 18.109375 38.09375 18.109375 28.8125 
L 18.109375 0 
L 9.078125 0 
L 9.078125 54.6875 
L 18.109375 54.6875 
L 18.109375 46.1875 
Q 20.953125 51.171875 25.484375 53.578125 
Q 30.03125 56 36.53125 56 
Q 37.453125 56 38.578125 55.875 
Q 39.703125 55.765625 41.0625 55.515625 
z
" id="DejaVuSans-114"/>
      <path d="M 8.59375 75.984375 
L 29.296875 75.984375 
L 29.296875 69 
L 17.578125 69 
L 17.578125 -6.203125 
L 29.296875 -6.203125 
L 29.296875 -13.1875 
L 8.59375 -13.1875 
z
" id="DejaVuSans-91"/>
      <path d="M 54.890625 33.015625 
L 54.890625 0 
L 45.90625 0 
L 45.90625 32.71875 
Q 45.90625 40.484375 42.875 44.328125 
Q 39.84375 48.1875 33.796875 48.1875 
Q 26.515625 48.1875 22.3125 43.546875 
Q 18.109375 38.921875 18.109375 30.90625 
L 18.109375 0 
L 9.078125 0 
L 9.078125 75.984375 
L 18.109375 75.984375 
L 18.109375 46.1875 
Q 21.34375 51.125 25.703125 53.5625 
Q 30.078125 56 35.796875 56 
Q 45.21875 56 50.046875 50.171875 
Q 54.890625 44.34375 54.890625 33.015625 
z
" id="DejaVuSans-104"/>
      <path d="M 30.421875 75.984375 
L 30.421875 -13.1875 
L 9.71875 -13.1875 
L 9.71875 -6.203125 
L 21.390625 -6.203125 
L 21.390625 69 
L 9.71875 69 
L 9.71875 75.984375 
z
" id="DejaVuSans-93"/>
     </defs>
     <use xlink:href="#DejaVuSans-71"/>
     <use x="77.490234" xlink:href="#DejaVuSans-101"/>
     <use x="139.013672" xlink:href="#DejaVuSans-116"/>
     <use x="178.222656" xlink:href="#DejaVuSans-32"/>
     <use x="210.009766" xlink:href="#DejaVuSans-102"/>
     <use x="245.214844" xlink:href="#DejaVuSans-105"/>
     <use x="272.998047" xlink:href="#DejaVuSans-108"/>
     <use x="300.78125" xlink:href="#DejaVuSans-116"/>
     <use x="339.990234" xlink:href="#DejaVuSans-101"/>
     <use x="401.513672" xlink:href="#DejaVuSans-114"/>
     <use x="440.376953" xlink:href="#DejaVuSans-101"/>
     <use x="501.900391" xlink:href="#DejaVuSans-100"/>
     <use x="565.376953" xlink:href="#DejaVuSans-32"/>
     <use x="597.164062" xlink:href="#DejaVuSans-100"/>
     <use x="660.640625" xlink:href="#DejaVuSans-101"/>
     <use x="722.164062" xlink:href="#DejaVuSans-115"/>
     <use x="774.263672" xlink:href="#DejaVuSans-99"/>
     <use x="829.244141" xlink:href="#DejaVuSans-101"/>
     <use x="890.767578" xlink:href="#DejaVuSans-110"/>
     <use x="954.146484" xlink:href="#DejaVuSans-100"/>
     <use x="1017.623047" xlink:href="#DejaVuSans-97"/>
     <use x="1078.902344" xlink:href="#DejaVuSans-110"/>
     <use x="1142.28125" xlink:href="#DejaVuSans-116"/>
     <use x="1181.490234" xlink:href="#DejaVuSans-115"/>
     <use x="1233.589844" xlink:href="#DejaVuSans-32"/>
     <use x="1265.376953" xlink:href="#DejaVuSans-99"/>
     <use x="1320.357422" xlink:href="#DejaVuSans-111"/>
     <use x="1381.539062" xlink:href="#DejaVuSans-117"/>
     <use x="1444.917969" xlink:href="#DejaVuSans-110"/>
     <use x="1508.296875" xlink:href="#DejaVuSans-116"/>
     <use x="1547.505859" xlink:href="#DejaVuSans-32"/>
     <use x="1579.292969" xlink:href="#DejaVuSans-91"/>
     <use x="1618.306641" xlink:href="#DejaVuSans-98"/>
     <use x="1681.783203" xlink:href="#DejaVuSans-114"/>
     <use x="1722.896484" xlink:href="#DejaVuSans-97"/>
     <use x="1784.175781" xlink:href="#DejaVuSans-110"/>
     <use x="1847.554688" xlink:href="#DejaVuSans-99"/>
     <use x="1902.535156" xlink:href="#DejaVuSans-104"/>
     <use x="1965.914062" xlink:href="#DejaVuSans-93"/>
    </g>
   </g>
   <g id="legend_1">
    <g id="patch_7">
     <path d="M 92.911719 365.802375 
L 380.507031 365.802375 
Q 382.507031 365.802375 382.507031 363.802375 
L 382.507031 335.446125 
Q 382.507031 333.446125 380.507031 333.446125 
L 92.911719 333.446125 
Q 90.911719 333.446125 90.911719 335.446125 
L 90.911719 363.802375 
Q 90.911719 365.802375 92.911719 365.802375 
z
" style="fill:#4c4c4c;opacity:0.5;stroke:#4c4c4c;stroke-linejoin:miter;"/>
    </g>
    <g id="patch_8">
     <path d="M 90.911719 363.802375 
L 378.507031 363.802375 
Q 380.507031 363.802375 380.507031 361.802375 
L 380.507031 333.446125 
Q 380.507031 331.446125 378.507031 331.446125 
L 90.911719 331.446125 
Q 88.911719 331.446125 88.911719 333.446125 
L 88.911719 361.802375 
Q 88.911719 363.802375 90.911719 363.802375 
z
" style="fill:#ffffff;stroke:#cccccc;stroke-linejoin:miter;"/>
    </g>
    <g id="line2d_23">
     <path d="M 92.911719 339.544562 
L 112.911719 339.544562 
" style="fill:none;stroke:#1f77b4;stroke-linecap:square;stroke-opacity:0.8;stroke-width:1.5;"/>
    </g>
    <g id="line2d_24"/>
    <g id="text_21">
     <!-- MPTT -->
     <g transform="translate(120.911719 343.044562)scale(0.1 -0.1)">
      <defs>
       <path d="M 9.8125 72.90625 
L 24.515625 72.90625 
L 43.109375 23.296875 
L 61.8125 72.90625 
L 76.515625 72.90625 
L 76.515625 0 
L 66.890625 0 
L 66.890625 64.015625 
L 48.09375 14.015625 
L 38.1875 14.015625 
L 19.390625 64.015625 
L 19.390625 0 
L 9.8125 0 
z
" id="DejaVuSans-77"/>
       <path d="M 19.671875 64.796875 
L 19.671875 37.40625 
L 32.078125 37.40625 
Q 38.96875 37.40625 42.71875 40.96875 
Q 46.484375 44.53125 46.484375 51.125 
Q 46.484375 57.671875 42.71875 61.234375 
Q 38.96875 64.796875 32.078125 64.796875 
z
M 9.8125 72.90625 
L 32.078125 72.90625 
Q 44.34375 72.90625 50.609375 67.359375 
Q 56.890625 61.8125 56.890625 51.125 
Q 56.890625 40.328125 50.609375 34.8125 
Q 44.34375 29.296875 32.078125 29.296875 
L 19.671875 29.296875 
L 19.671875 0 
L 9.8125 0 
z
" id="DejaVuSans-80"/>
       <path d="M -0.296875 72.90625 
L 61.375 72.90625 
L 61.375 64.59375 
L 35.5 64.59375 
L 35.5 0 
L 25.59375 0 
L 25.59375 64.59375 
L -0.296875 64.59375 
z
" id="DejaVuSans-84"/>
      </defs>
      <use xlink:href="#DejaVuSans-77"/>
      <use x="86.279297" xlink:href="#DejaVuSans-80"/>
      <use x="146.582031" xlink:href="#DejaVuSans-84"/>
      <use x="205.916016" xlink:href="#DejaVuSans-84"/>
     </g>
    </g>
    <g id="line2d_25">
     <path d="M 92.911719 354.222687 
L 112.911719 354.222687 
" style="fill:none;stroke:#ff7f0e;stroke-linecap:square;stroke-opacity:0.8;stroke-width:1.5;"/>
    </g>
    <g id="line2d_26"/>
    <g id="text_22">
     <!-- tree -->
     <g transform="translate(120.911719 357.722687)scale(0.1 -0.1)">
      <use xlink:href="#DejaVuSans-116"/>
      <use x="39.208984" xlink:href="#DejaVuSans-114"/>
      <use x="78.072266" xlink:href="#DejaVuSans-101"/>
      <use x="139.595703" xlink:href="#DejaVuSans-101"/>
     </g>
    </g>
    <g id="line2d_27">
     <path d="M 167.610156 339.544562 
L 187.610156 339.544562 
" style="fill:none;stroke:#2ca02c;stroke-linecap:square;stroke-opacity:0.8;stroke-width:1.5;"/>
    </g>
    <g id="line2d_28"/>
    <g id="text_23">
     <!-- treebeard AL -->
     <g transform="translate(195.610156 343.044562)scale(0.1 -0.1)">
      <defs>
       <path d="M 9.8125 72.90625 
L 19.671875 72.90625 
L 19.671875 8.296875 
L 55.171875 8.296875 
L 55.171875 0 
L 9.8125 0 
z
" id="DejaVuSans-76"/>
      </defs>
      <use xlink:href="#DejaVuSans-116"/>
      <use x="39.208984" xlink:href="#DejaVuSans-114"/>
      <use x="78.072266" xlink:href="#DejaVuSans-101"/>
      <use x="139.595703" xlink:href="#DejaVuSans-101"/>
      <use x="201.119141" xlink:href="#DejaVuSans-98"/>
      <use x="264.595703" xlink:href="#DejaVuSans-101"/>
      <use x="326.119141" xlink:href="#DejaVuSans-97"/>
      <use x="387.398438" xlink:href="#DejaVuSans-114"/>
      <use x="426.761719" xlink:href="#DejaVuSans-100"/>
      <use x="490.238281" xlink:href="#DejaVuSans-32"/>
      <use x="522.025391" xlink:href="#DejaVuSans-65"/>
      <use x="590.433594" xlink:href="#DejaVuSans-76"/>
     </g>
    </g>
    <g id="line2d_29">
     <path d="M 167.610156 354.222687 
L 187.610156 354.222687 
" style="fill:none;stroke:#d62728;stroke-linecap:square;stroke-opacity:0.8;stroke-width:1.5;"/>
    </g>
    <g id="line2d_30"/>
    <g id="text_24">
     <!-- treebeard MP -->
     <g transform="translate(195.610156 357.722687)scale(0.1 -0.1)">
      <use xlink:href="#DejaVuSans-116"/>
      <use x="39.208984" xlink:href="#DejaVuSans-114"/>
      <use x="78.072266" xlink:href="#DejaVuSans-101"/>
      <use x="139.595703" xlink:href="#DejaVuSans-101"/>
      <use x="201.119141" xlink:href="#DejaVuSans-98"/>
      <use x="264.595703" xlink:href="#DejaVuSans-101"/>
      <use x="326.119141" xlink:href="#DejaVuSans-97"/>
      <use x="387.398438" xlink:href="#DejaVuSans-114"/>
      <use x="426.761719" xlink:href="#DejaVuSans-100"/>
      <use x="490.238281" xlink:href="#DejaVuSans-32"/>
      <use x="522.025391" xlink:href="#DejaVuSans-77"/>
      <use x="608.304688" xlink:href="#DejaVuSans-80"/>
     </g>
    </g>
    <g id="line2d_31">
     <path d="M 282.472656 339.544562 
L 302.472656 339.544562 
" style="fill:none;stroke:#9467bd;stroke-linecap:square;stroke-opacity:0.8;stroke-width:1.5;"/>
    </g>
    <g id="line2d_32"/>
    <g id="text_25">
     <!-- treebeard NS -->
     <g transform="translate(310.472656 343.044562)scale(0.1 -0.1)">
      <defs>
       <path d="M 9.8125 72.90625 
L 23.09375 72.90625 
L 55.421875 11.921875 
L 55.421875 72.90625 
L 64.984375 72.90625 
L 64.984375 0 
L 51.703125 0 
L 19.390625 60.984375 
L 19.390625 0 
L 9.8125 0 
z
" id="DejaVuSans-78"/>
       <path d="M 53.515625 70.515625 
L 53.515625 60.890625 
Q 47.90625 63.578125 42.921875 64.890625 
Q 37.9375 66.21875 33.296875 66.21875 
Q 25.25 66.21875 20.875 63.09375 
Q 16.5 59.96875 16.5 54.203125 
Q 16.5 49.359375 19.40625 46.890625 
Q 22.3125 44.4375 30.421875 42.921875 
L 36.375 41.703125 
Q 47.40625 39.59375 52.65625 34.296875 
Q 57.90625 29 57.90625 20.125 
Q 57.90625 9.515625 50.796875 4.046875 
Q 43.703125 -1.421875 29.984375 -1.421875 
Q 24.8125 -1.421875 18.96875 -0.25 
Q 13.140625 0.921875 6.890625 3.21875 
L 6.890625 13.375 
Q 12.890625 10.015625 18.65625 8.296875 
Q 24.421875 6.59375 29.984375 6.59375 
Q 38.421875 6.59375 43.015625 9.90625 
Q 47.609375 13.234375 47.609375 19.390625 
Q 47.609375 24.75 44.3125 27.78125 
Q 41.015625 30.8125 33.5 32.328125 
L 27.484375 33.5 
Q 16.453125 35.6875 11.515625 40.375 
Q 6.59375 45.0625 6.59375 53.421875 
Q 6.59375 63.09375 13.40625 68.65625 
Q 20.21875 74.21875 32.171875 74.21875 
Q 37.3125 74.21875 42.625 73.28125 
Q 47.953125 72.359375 53.515625 70.515625 
z
" id="DejaVuSans-83"/>
      </defs>
      <use xlink:href="#DejaVuSans-116"/>
      <use x="39.208984" xlink:href="#DejaVuSans-114"/>
      <use x="78.072266" xlink:href="#DejaVuSans-101"/>
      <use x="139.595703" xlink:href="#DejaVuSans-101"/>
      <use x="201.119141" xlink:href="#DejaVuSans-98"/>
      <use x="264.595703" xlink:href="#DejaVuSans-101"/>
      <use x="326.119141" xlink:href="#DejaVuSans-97"/>
      <use x="387.398438" xlink:href="#DejaVuSans-114"/>
      <use x="426.761719" xlink:href="#DejaVuSans-100"/>
      <use x="490.238281" xlink:href="#DejaVuSans-32"/>
      <use x="522.025391" xlink:href="#DejaVuSans-78"/>
      <use x="596.830078" xlink:href="#DejaVuSans-83"/>
     </g>
    </g>
   </g>
  </g>
 </g>
 <defs>
  <clipPath id="pffe4cbb3c4">
   <rect height="266.112" width="357.12" x="61.909375" y="22.318125"/>
  </clipPath>
 </defs>
</svg>
