<?xml version="1.0" encoding="utf-8" standalone="no"?>
<!DOCTYPE svg PUBLIC "-//W3C//DTD SVG 1.1//EN"
  "http://www.w3.org/Graphics/SVG/1.1/DTD/svg11.dtd">
<svg xmlns:xlink="http://www.w3.org/1999/xlink" width="432.591875pt" height="371.002375pt" viewBox="0 0 432.591875 371.002375" xmlns="http://www.w3.org/2000/svg" version="1.1">
 <metadata>
  <rdf:RDF xmlns:dc="http://purl.org/dc/elements/1.1/" xmlns:cc="http://creativecommons.org/ns#" xmlns:rdf="http://www.w3.org/1999/02/22-rdf-syntax-ns#">
   <cc:Work>
    <dc:type rdf:resource="http://purl.org/dc/dcmitype/StillImage"/>
    <dc:date>2026-06-28T18:00:25.371305</dc:date>
    <dc:format>image/svg+xml</dc:format>
    <dc:creator>
     <cc:Agent>
      <dc:title>Matplotlib v3.10.6, https://matplotlib.org/</dc:title>
     </cc:Agent>
    </dc:creator>
   </cc:Work>
  </rdf:RDF>
 </metadata>
 <defs>
  <style type="text/css">*{stroke-linejoin: round; stroke-linecap: butt}</style>
 </defs>
 <g id="figure_1">
  <g id="patch_1">
   <path d="M 0 371.002375 
L 432.591875 371.002375 
L 432.591875 0 
L 0 0 
z
" style="fill: #ffffff"/>
  </g>
  <g id="axes_1">
   <g id="patch_2">
    <path d="M 68.271875 288.430125 
L 425.391875 288.430125 
L 425.391875 22.318125 
L 68.271875 22.318125 
z
" style="fill: #ffffff"/>
   </g>
   <g id="matplotlib.axis_1">
    <g id="xtick_1">
     <g id="line2d_1">
      <defs>
       <path id="mc93ebdd9fe" d="M 0 0 
L 0 3.5 
" style="stroke: #000000; stroke-width: 0.8"/>
      </defs>
      <g>
       <use xlink:href="#mc93ebdd9fe" x="68.271875" y="288.430125" style="stroke: #000000; stroke-width: 0.8"/>
      </g>
     </g>
     <g id="text_1">
      <!-- 0 -->
      <g transform="translate(65.090625 303.028562) scale(0.1 -0.1)">
       <defs>
        <path id="DejaVuSans-30" d="M 2034 4250 
Q 1547 4250 1301 3770 
Q 1056 3291 1056 2328 
Q 1056 1369 1301 889 
Q 1547 409 2034 409 
Q 2525 409 2770 889 
Q 3016 1369 3016 2328 
Q 3016 3291 2770 3770 
Q 2525 4250 2034 4250 
z
M 2034 4750 
Q 2819 4750 3233 4129 
Q 3647 3509 3647 2328 
Q 3647 1150 3233 529 
Q 2819 -91 2034 -91 
Q 1250 -91 836 529 
Q 422 1150 422 2328 
Q 422 3509 836 4129 
Q 1250 4750 2034 4750 
z
" transform="scale(0.015625)"/>
       </defs>
       <use xlink:href="#DejaVuSans-30"/>
      </g>
     </g>
    </g>
    <g id="xtick_2">
     <g id="line2d_2">
      <g>
       <use xlink:href="#mc93ebdd9fe" x="111.820439" y="288.430125" style="stroke: #000000; stroke-width: 0.8"/>
      </g>
     </g>
     <g id="text_2">
      <!-- 500  -->
      <g transform="translate(100.687627 303.028562) scale(0.1 -0.1)">
       <defs>
        <path id="DejaVuSans-35" d="M 691 4666 
L 3169 4666 
L 3169 4134 
L 1269 4134 
L 1269 2991 
Q 1406 3038 1543 3061 
Q 1681 3084 1819 3084 
Q 2600 3084 3056 2656 
Q 3513 2228 3513 1497 
Q 3513 744 3044 326 
Q 2575 -91 1722 -91 
Q 1428 -91 1123 -41 
Q 819 9 494 109 
L 494 744 
Q 775 591 1075 516 
Q 1375 441 1709 441 
Q 2250 441 2565 725 
Q 2881 1009 2881 1497 
Q 2881 1984 2565 2268 
Q 2250 2553 1709 2553 
Q 1456 2553 1204 2497 
Q 953 2441 691 2322 
L 691 4666 
z
" transform="scale(0.015625)"/>
        <path id="DejaVuSans-20" transform="scale(0.015625)"/>
       </defs>
       <use xlink:href="#DejaVuSans-35"/>
       <use xlink:href="#DejaVuSans-30" transform="translate(63.623047 0)"/>
       <use xlink:href="#DejaVuSans-30" transform="translate(127.246094 0)"/>
       <use xlink:href="#DejaVuSans-20" transform="translate(190.869141 0)"/>
      </g>
     </g>
    </g>
    <g id="xtick_3">
     <g id="line2d_3">
      <g>
       <use xlink:href="#mc93ebdd9fe" x="155.369003" y="288.430125" style="stroke: #000000; stroke-width: 0.8"/>
      </g>
     </g>
     <g id="text_3">
      <!-- 1 k -->
      <g transform="translate(147.703378 303.028562) scale(0.1 -0.1)">
       <defs>
        <path id="DejaVuSans-31" d="M 794 531 
L 1825 531 
L 1825 4091 
L 703 3866 
L 703 4441 
L 1819 4666 
L 2450 4666 
L 2450 531 
L 3481 531 
L 3481 0 
L 794 0 
L 794 531 
z
" transform="scale(0.015625)"/>
        <path id="DejaVuSans-6b" d="M 581 4863 
L 1159 4863 
L 1159 1991 
L 2875 3500 
L 3609 3500 
L 1753 1863 
L 3688 0 
L 2938 0 
L 1159 1709 
L 1159 0 
L 581 0 
L 581 4863 
z
" transform="scale(0.015625)"/>
       </defs>
       <use xlink:href="#DejaVuSans-31"/>
       <use xlink:href="#DejaVuSans-20" transform="translate(63.623047 0)"/>
       <use xlink:href="#DejaVuSans-6b" transform="translate(95.410156 0)"/>
      </g>
     </g>
    </g>
    <g id="xtick_4">
     <g id="line2d_4">
      <g>
       <use xlink:href="#mc93ebdd9fe" x="198.917567" y="288.430125" style="stroke: #000000; stroke-width: 0.8"/>
      </g>
     </g>
     <g id="text_4">
      <!-- 1.5 k -->
      <g transform="translate(186.48163 303.028562) scale(0.1 -0.1)">
       <defs>
        <path id="DejaVuSans-2e" d="M 684 794 
L 1344 794 
L 1344 0 
L 684 0 
L 684 794 
z
" transform="scale(0.015625)"/>
       </defs>
       <use xlink:href="#DejaVuSans-31"/>
       <use xlink:href="#DejaVuSans-2e" transform="translate(63.623047 0)"/>
       <use xlink:href="#DejaVuSans-35" transform="translate(95.410156 0)"/>
       <use xlink:href="#DejaVuSans-20" transform="translate(159.033203 0)"/>
       <use xlink:href="#DejaVuSans-6b" transform="translate(190.820312 0)"/>
      </g>
     </g>
    </g>
    <g id="xtick_5">
     <g id="line2d_5">
      <g>
       <use xlink:href="#mc93ebdd9fe" x="242.466131" y="288.430125" style="stroke: #000000; stroke-width: 0.8"/>
      </g>
     </g>
     <g id="text_5">
      <!-- 2 k -->
      <g transform="translate(234.800506 303.028562) scale(0.1 -0.1)">
       <defs>
        <path id="DejaVuSans-32" d="M 1228 531 
L 3431 531 
L 3431 0 
L 469 0 
L 469 531 
Q 828 903 1448 1529 
Q 2069 2156 2228 2338 
Q 2531 2678 2651 2914 
Q 2772 3150 2772 3378 
Q 2772 3750 2511 3984 
Q 2250 4219 1831 4219 
Q 1534 4219 1204 4116 
Q 875 4013 500 3803 
L 500 4441 
Q 881 4594 1212 4672 
Q 1544 4750 1819 4750 
Q 2544 4750 2975 4387 
Q 3406 4025 3406 3419 
Q 3406 3131 3298 2873 
Q 3191 2616 2906 2266 
Q 2828 2175 2409 1742 
Q 1991 1309 1228 531 
z
" transform="scale(0.015625)"/>
       </defs>
       <use xlink:href="#DejaVuSans-32"/>
       <use xlink:href="#DejaVuSans-20" transform="translate(63.623047 0)"/>
       <use xlink:href="#DejaVuSans-6b" transform="translate(95.410156 0)"/>
      </g>
     </g>
    </g>
    <g id="xtick_6">
     <g id="line2d_6">
      <g>
       <use xlink:href="#mc93ebdd9fe" x="286.014696" y="288.430125" style="stroke: #000000; stroke-width: 0.8"/>
      </g>
     </g>
     <g id="text_6">
      <!-- 2.5 k -->
      <g transform="translate(273.578758 303.028562) scale(0.1 -0.1)">
       <use xlink:href="#DejaVuSans-32"/>
       <use xlink:href="#DejaVuSans-2e" transform="translate(63.623047 0)"/>
       <use xlink:href="#DejaVuSans-35" transform="translate(95.410156 0)"/>
       <use xlink:href="#DejaVuSans-20" transform="translate(159.033203 0)"/>
       <use xlink:href="#DejaVuSans-6b" transform="translate(190.820312 0)"/>
      </g>
     </g>
    </g>
    <g id="xtick_7">
     <g id="line2d_7">
      <g>
       <use xlink:href="#mc93ebdd9fe" x="329.56326" y="288.430125" style="stroke: #000000; stroke-width: 0.8"/>
      </g>
     </g>
     <g id="text_7">
      <!-- 3 k -->
      <g transform="translate(321.897635 303.028562) scale(0.1 -0.1)">
       <defs>
        <path id="DejaVuSans-33" d="M 2597 2516 
Q 3050 2419 3304 2112 
Q 3559 1806 3559 1356 
Q 3559 666 3084 287 
Q 2609 -91 1734 -91 
Q 1441 -91 1130 -33 
Q 819 25 488 141 
L 488 750 
Q 750 597 1062 519 
Q 1375 441 1716 441 
Q 2309 441 2620 675 
Q 2931 909 2931 1356 
Q 2931 1769 2642 2001 
Q 2353 2234 1838 2234 
L 1294 2234 
L 1294 2753 
L 1863 2753 
Q 2328 2753 2575 2939 
Q 2822 3125 2822 3475 
Q 2822 3834 2567 4026 
Q 2313 4219 1838 4219 
Q 1578 4219 1281 4162 
Q 984 4106 628 3988 
L 628 4550 
Q 988 4650 1302 4700 
Q 1616 4750 1894 4750 
Q 2613 4750 3031 4423 
Q 3450 4097 3450 3541 
Q 3450 3153 3228 2886 
Q 3006 2619 2597 2516 
z
" transform="scale(0.015625)"/>
       </defs>
       <use xlink:href="#DejaVuSans-33"/>
       <use xlink:href="#DejaVuSans-20" transform="translate(63.623047 0)"/>
       <use xlink:href="#DejaVuSans-6b" transform="translate(95.410156 0)"/>
      </g>
     </g>
    </g>
    <g id="xtick_8">
     <g id="line2d_8">
      <g>
       <use xlink:href="#mc93ebdd9fe" x="373.111824" y="288.430125" style="stroke: #000000; stroke-width: 0.8"/>
      </g>
     </g>
     <g id="text_8">
      <!-- 3.5 k -->
      <g transform="translate(360.675886 303.028562) scale(0.1 -0.1)">
       <use xlink:href="#DejaVuSans-33"/>
       <use xlink:href="#DejaVuSans-2e" transform="translate(63.623047 0)"/>
       <use xlink:href="#DejaVuSans-35" transform="translate(95.410156 0)"/>
       <use xlink:href="#DejaVuSans-20" transform="translate(159.033203 0)"/>
       <use xlink:href="#DejaVuSans-6b" transform="translate(190.820312 0)"/>
      </g>
     </g>
    </g>
    <g id="xtick_9">
     <g id="line2d_9">
      <g>
       <use xlink:href="#mc93ebdd9fe" x="416.660388" y="288.430125" style="stroke: #000000; stroke-width: 0.8"/>
      </g>
     </g>
     <g id="text_9">
      <!-- 4 k -->
      <g transform="translate(408.994763 303.028562) scale(0.1 -0.1)">
       <defs>
        <path id="DejaVuSans-34" d="M 2419 4116 
L 825 1625 
L 2419 1625 
L 2419 4116 
z
M 2253 4666 
L 3047 4666 
L 3047 1625 
L 3713 1625 
L 3713 1100 
L 3047 1100 
L 3047 0 
L 2419 0 
L 2419 1100 
L 313 1100 
L 313 1709 
L 2253 4666 
z
" transform="scale(0.015625)"/>
       </defs>
       <use xlink:href="#DejaVuSans-34"/>
       <use xlink:href="#DejaVuSans-20" transform="translate(63.623047 0)"/>
       <use xlink:href="#DejaVuSans-6b" transform="translate(95.410156 0)"/>
      </g>
     </g>
    </g>
    <g id="text_10">
     <!-- Amount of objects in table -->
     <g transform="translate(180.773281 316.706687) scale(0.1 -0.1)">
      <defs>
       <path id="DejaVuSans-41" d="M 2188 4044 
L 1331 1722 
L 3047 1722 
L 2188 4044 
z
M 1831 4666 
L 2547 4666 
L 4325 0 
L 3669 0 
L 3244 1197 
L 1141 1197 
L 716 0 
L 50 0 
L 1831 4666 
z
" transform="scale(0.015625)"/>
       <path id="DejaVuSans-6d" d="M 3328 2828 
Q 3544 3216 3844 3400 
Q 4144 3584 4550 3584 
Q 5097 3584 5394 3201 
Q 5691 2819 5691 2113 
L 5691 0 
L 5113 0 
L 5113 2094 
Q 5113 2597 4934 2840 
Q 4756 3084 4391 3084 
Q 3944 3084 3684 2787 
Q 3425 2491 3425 1978 
L 3425 0 
L 2847 0 
L 2847 2094 
Q 2847 2600 2669 2842 
Q 2491 3084 2119 3084 
Q 1678 3084 1418 2786 
Q 1159 2488 1159 1978 
L 1159 0 
L 581 0 
L 581 3500 
L 1159 3500 
L 1159 2956 
Q 1356 3278 1631 3431 
Q 1906 3584 2284 3584 
Q 2666 3584 2933 3390 
Q 3200 3197 3328 2828 
z
" transform="scale(0.015625)"/>
       <path id="DejaVuSans-6f" d="M 1959 3097 
Q 1497 3097 1228 2736 
Q 959 2375 959 1747 
Q 959 1119 1226 758 
Q 1494 397 1959 397 
Q 2419 397 2687 759 
Q 2956 1122 2956 1747 
Q 2956 2369 2687 2733 
Q 2419 3097 1959 3097 
z
M 1959 3584 
Q 2709 3584 3137 3096 
Q 3566 2609 3566 1747 
Q 3566 888 3137 398 
Q 2709 -91 1959 -91 
Q 1206 -91 779 398 
Q 353 888 353 1747 
Q 353 2609 779 3096 
Q 1206 3584 1959 3584 
z
" transform="scale(0.015625)"/>
       <path id="DejaVuSans-75" d="M 544 1381 
L 544 3500 
L 1119 3500 
L 1119 1403 
Q 1119 906 1312 657 
Q 1506 409 1894 409 
Q 2359 409 2629 706 
Q 2900 1003 2900 1516 
L 2900 3500 
L 3475 3500 
L 3475 0 
L 2900 0 
L 2900 538 
Q 2691 219 2414 64 
Q 2138 -91 1772 -91 
Q 1169 -91 856 284 
Q 544 659 544 1381 
z
M 1991 3584 
L 1991 3584 
z
" transform="scale(0.015625)"/>
       <path id="DejaVuSans-6e" d="M 3513 2113 
L 3513 0 
L 2938 0 
L 2938 2094 
Q 2938 2591 2744 2837 
Q 2550 3084 2163 3084 
Q 1697 3084 1428 2787 
Q 1159 2491 1159 1978 
L 1159 0 
L 581 0 
L 581 3500 
L 1159 3500 
L 1159 2956 
Q 1366 3272 1645 3428 
Q 1925 3584 2291 3584 
Q 2894 3584 3203 3211 
Q 3513 2838 3513 2113 
z
" transform="scale(0.015625)"/>
       <path id="DejaVuSans-74" d="M 1172 4494 
L 1172 3500 
L 2356 3500 
L 2356 3053 
L 1172 3053 
L 1172 1153 
Q 1172 725 1289 603 
Q 1406 481 1766 481 
L 2356 481 
L 2356 0 
L 1766 0 
Q 1100 0 847 248 
Q 594 497 594 1153 
L 594 3053 
L 172 3053 
L 172 3500 
L 594 3500 
L 594 4494 
L 1172 4494 
z
" transform="scale(0.015625)"/>
       <path id="DejaVuSans-66" d="M 2375 4863 
L 2375 4384 
L 1825 4384 
Q 1516 4384 1395 4259 
Q 1275 4134 1275 3809 
L 1275 3500 
L 2222 3500 
L 2222 3053 
L 1275 3053 
L 1275 0 
L 697 0 
L 697 3053 
L 147 3053 
L 147 3500 
L 697 3500 
L 697 3744 
Q 697 4328 969 4595 
Q 1241 4863 1831 4863 
L 2375 4863 
z
" transform="scale(0.015625)"/>
       <path id="DejaVuSans-62" d="M 3116 1747 
Q 3116 2381 2855 2742 
Q 2594 3103 2138 3103 
Q 1681 3103 1420 2742 
Q 1159 2381 1159 1747 
Q 1159 1113 1420 752 
Q 1681 391 2138 391 
Q 2594 391 2855 752 
Q 3116 1113 3116 1747 
z
M 1159 2969 
Q 1341 3281 1617 3432 
Q 1894 3584 2278 3584 
Q 2916 3584 3314 3078 
Q 3713 2572 3713 1747 
Q 3713 922 3314 415 
Q 2916 -91 2278 -91 
Q 1894 -91 1617 61 
Q 1341 213 1159 525 
L 1159 0 
L 581 0 
L 581 4863 
L 1159 4863 
L 1159 2969 
z
" transform="scale(0.015625)"/>
       <path id="DejaVuSans-6a" d="M 603 3500 
L 1178 3500 
L 1178 -63 
Q 1178 -731 923 -1031 
Q 669 -1331 103 -1331 
L -116 -1331 
L -116 -844 
L 38 -844 
Q 366 -844 484 -692 
Q 603 -541 603 -63 
L 603 3500 
z
M 603 4863 
L 1178 4863 
L 1178 4134 
L 603 4134 
L 603 4863 
z
" transform="scale(0.015625)"/>
       <path id="DejaVuSans-65" d="M 3597 1894 
L 3597 1613 
L 953 1613 
Q 991 1019 1311 708 
Q 1631 397 2203 397 
Q 2534 397 2845 478 
Q 3156 559 3463 722 
L 3463 178 
Q 3153 47 2828 -22 
Q 2503 -91 2169 -91 
Q 1331 -91 842 396 
Q 353 884 353 1716 
Q 353 2575 817 3079 
Q 1281 3584 2069 3584 
Q 2775 3584 3186 3129 
Q 3597 2675 3597 1894 
z
M 3022 2063 
Q 3016 2534 2758 2815 
Q 2500 3097 2075 3097 
Q 1594 3097 1305 2825 
Q 1016 2553 972 2059 
L 3022 2063 
z
" transform="scale(0.015625)"/>
       <path id="DejaVuSans-63" d="M 3122 3366 
L 3122 2828 
Q 2878 2963 2633 3030 
Q 2388 3097 2138 3097 
Q 1578 3097 1268 2742 
Q 959 2388 959 1747 
Q 959 1106 1268 751 
Q 1578 397 2138 397 
Q 2388 397 2633 464 
Q 2878 531 3122 666 
L 3122 134 
Q 2881 22 2623 -34 
Q 2366 -91 2075 -91 
Q 1284 -91 818 406 
Q 353 903 353 1747 
Q 353 2603 823 3093 
Q 1294 3584 2113 3584 
Q 2378 3584 2631 3529 
Q 2884 3475 3122 3366 
z
" transform="scale(0.015625)"/>
       <path id="DejaVuSans-73" d="M 2834 3397 
L 2834 2853 
Q 2591 2978 2328 3040 
Q 2066 3103 1784 3103 
Q 1356 3103 1142 2972 
Q 928 2841 928 2578 
Q 928 2378 1081 2264 
Q 1234 2150 1697 2047 
L 1894 2003 
Q 2506 1872 2764 1633 
Q 3022 1394 3022 966 
Q 3022 478 2636 193 
Q 2250 -91 1575 -91 
Q 1294 -91 989 -36 
Q 684 19 347 128 
L 347 722 
Q 666 556 975 473 
Q 1284 391 1588 391 
Q 1994 391 2212 530 
Q 2431 669 2431 922 
Q 2431 1156 2273 1281 
Q 2116 1406 1581 1522 
L 1381 1569 
Q 847 1681 609 1914 
Q 372 2147 372 2553 
Q 372 3047 722 3315 
Q 1072 3584 1716 3584 
Q 2034 3584 2315 3537 
Q 2597 3491 2834 3397 
z
" transform="scale(0.015625)"/>
       <path id="DejaVuSans-69" d="M 603 3500 
L 1178 3500 
L 1178 0 
L 603 0 
L 603 3500 
z
M 603 4863 
L 1178 4863 
L 1178 4134 
L 603 4134 
L 603 4863 
z
" transform="scale(0.015625)"/>
       <path id="DejaVuSans-61" d="M 2194 1759 
Q 1497 1759 1228 1600 
Q 959 1441 959 1056 
Q 959 750 1161 570 
Q 1363 391 1709 391 
Q 2188 391 2477 730 
Q 2766 1069 2766 1631 
L 2766 1759 
L 2194 1759 
z
M 3341 1997 
L 3341 0 
L 2766 0 
L 2766 531 
Q 2569 213 2275 61 
Q 1981 -91 1556 -91 
Q 1019 -91 701 211 
Q 384 513 384 1019 
Q 384 1609 779 1909 
Q 1175 2209 1959 2209 
L 2766 2209 
L 2766 2266 
Q 2766 2663 2505 2880 
Q 2244 3097 1772 3097 
Q 1472 3097 1187 3025 
Q 903 2953 641 2809 
L 641 3341 
Q 956 3463 1253 3523 
Q 1550 3584 1831 3584 
Q 2591 3584 2966 3190 
Q 3341 2797 3341 1997 
z
" transform="scale(0.015625)"/>
       <path id="DejaVuSans-6c" d="M 603 4863 
L 1178 4863 
L 1178 0 
L 603 0 
L 603 4863 
z
" transform="scale(0.015625)"/>
      </defs>
      <use xlink:href="#DejaVuSans-41"/>
      <use xlink:href="#DejaVuSans-6d" transform="translate(68.408203 0)"/>
      <use xlink:href="#DejaVuSans-6f" transform="translate(165.820312 0)"/>
      <use xlink:href="#DejaVuSans-75" transform="translate(227.001953 0)"/>
      <use xlink:href="#DejaVuSans-6e" transform="translate(290.380859 0)"/>
      <use xlink:href="#DejaVuSans-74" transform="translate(353.759766 0)"/>
      <use xlink:href="#DejaVuSans-20" transform="translate(392.96875 0)"/>
      <use xlink:href="#DejaVuSans-6f" transform="translate(424.755859 0)"/>
      <use xlink:href="#DejaVuSans-66" transform="translate(485.9375 0)"/>
      <use xlink:href="#DejaVuSans-20" transform="translate(521.142578 0)"/>
      <use xlink:href="#DejaVuSans-6f" transform="translate(552.929688 0)"/>
      <use xlink:href="#DejaVuSans-62" transform="translate(614.111328 0)"/>
      <use xlink:href="#DejaVuSans-6a" transform="translate(677.587891 0)"/>
      <use xlink:href="#DejaVuSans-65" transform="translate(705.371094 0)"/>
      <use xlink:href="#DejaVuSans-63" transform="translate(766.894531 0)"/>
      <use xlink:href="#DejaVuSans-74" transform="translate(821.875 0)"/>
      <use xlink:href="#DejaVuSans-73" transform="translate(861.083984 0)"/>
      <use xlink:href="#DejaVuSans-20" transform="translate(913.183594 0)"/>
      <use xlink:href="#DejaVuSans-69" transform="translate(944.970703 0)"/>
      <use xlink:href="#DejaVuSans-6e" transform="translate(972.753906 0)"/>
      <use xlink:href="#DejaVuSans-20" transform="translate(1036.132812 0)"/>
      <use xlink:href="#DejaVuSans-74" transform="translate(1067.919922 0)"/>
      <use xlink:href="#DejaVuSans-61" transform="translate(1107.128906 0)"/>
      <use xlink:href="#DejaVuSans-62" transform="translate(1168.408203 0)"/>
      <use xlink:href="#DejaVuSans-6c" transform="translate(1231.884766 0)"/>
      <use xlink:href="#DejaVuSans-65" transform="translate(1259.667969 0)"/>
     </g>
    </g>
   </g>
   <g id="matplotlib.axis_2">
    <g id="ytick_1">
     <g id="line2d_10">
      <defs>
       <path id="m89bbdfb2d3" d="M 0 0 
L -3.5 0 
" style="stroke: #000000; stroke-width: 0.8"/>
      </defs>
      <g>
       <use xlink:href="#m89bbdfb2d3" x="68.271875" y="288.430125" style="stroke: #000000; stroke-width: 0.8"/>
      </g>
     </g>
     <g id="text_11">
      <!-- 0 -->
      <g transform="translate(54.909375 292.229344) scale(0.1 -0.1)">
       <use xlink:href="#DejaVuSans-30"/>
      </g>
     </g>
    </g>
    <g id="ytick_2">
     <g id="line2d_11">
      <g>
       <use xlink:href="#m89bbdfb2d3" x="68.271875" y="257.105165" style="stroke: #000000; stroke-width: 0.8"/>
      </g>
     </g>
     <g id="text_12">
      <!-- 2.5 ms -->
      <g transform="translate(27.240625 260.904383) scale(0.1 -0.1)">
       <use xlink:href="#DejaVuSans-32"/>
       <use xlink:href="#DejaVuSans-2e" transform="translate(63.623047 0)"/>
       <use xlink:href="#DejaVuSans-35" transform="translate(95.410156 0)"/>
       <use xlink:href="#DejaVuSans-20" transform="translate(159.033203 0)"/>
       <use xlink:href="#DejaVuSans-6d" transform="translate(190.820312 0)"/>
       <use xlink:href="#DejaVuSans-73" transform="translate(288.232422 0)"/>
      </g>
     </g>
    </g>
    <g id="ytick_3">
     <g id="line2d_12">
      <g>
       <use xlink:href="#m89bbdfb2d3" x="68.271875" y="225.780204" style="stroke: #000000; stroke-width: 0.8"/>
      </g>
     </g>
     <g id="text_13">
      <!-- 5 ms -->
      <g transform="translate(36.78125 229.579423) scale(0.1 -0.1)">
       <use xlink:href="#DejaVuSans-35"/>
       <use xlink:href="#DejaVuSans-20" transform="translate(63.623047 0)"/>
       <use xlink:href="#DejaVuSans-6d" transform="translate(95.410156 0)"/>
       <use xlink:href="#DejaVuSans-73" transform="translate(192.822266 0)"/>
      </g>
     </g>
    </g>
    <g id="ytick_4">
     <g id="line2d_13">
      <g>
       <use xlink:href="#m89bbdfb2d3" x="68.271875" y="194.455244" style="stroke: #000000; stroke-width: 0.8"/>
      </g>
     </g>
     <g id="text_14">
      <!-- 7.5 ms -->
      <g transform="translate(27.240625 198.254462) scale(0.1 -0.1)">
       <defs>
        <path id="DejaVuSans-37" d="M 525 4666 
L 3525 4666 
L 3525 4397 
L 1831 0 
L 1172 0 
L 2766 4134 
L 525 4134 
L 525 4666 
z
" transform="scale(0.015625)"/>
       </defs>
       <use xlink:href="#DejaVuSans-37"/>
       <use xlink:href="#DejaVuSans-2e" transform="translate(63.623047 0)"/>
       <use xlink:href="#DejaVuSans-35" transform="translate(95.410156 0)"/>
       <use xlink:href="#DejaVuSans-20" transform="translate(159.033203 0)"/>
       <use xlink:href="#DejaVuSans-6d" transform="translate(190.820312 0)"/>
       <use xlink:href="#DejaVuSans-73" transform="translate(288.232422 0)"/>
      </g>
     </g>
    </g>
    <g id="ytick_5">
     <g id="line2d_14">
      <g>
       <use xlink:href="#m89bbdfb2d3" x="68.271875" y="163.130283" style="stroke: #000000; stroke-width: 0.8"/>
      </g>
     </g>
     <g id="text_15">
      <!-- 10 ms -->
      <g transform="translate(30.41875 166.929502) scale(0.1 -0.1)">
       <use xlink:href="#DejaVuSans-31"/>
       <use xlink:href="#DejaVuSans-30" transform="translate(63.623047 0)"/>
       <use xlink:href="#DejaVuSans-20" transform="translate(127.246094 0)"/>
       <use xlink:href="#DejaVuSans-6d" transform="translate(159.033203 0)"/>
       <use xlink:href="#DejaVuSans-73" transform="translate(256.445312 0)"/>
      </g>
     </g>
    </g>
    <g id="ytick_6">
     <g id="line2d_15">
      <g>
       <use xlink:href="#m89bbdfb2d3" x="68.271875" y="131.805323" style="stroke: #000000; stroke-width: 0.8"/>
      </g>
     </g>
     <g id="text_16">
      <!-- 12.5 ms -->
      <g transform="translate(20.878125 135.604541) scale(0.1 -0.1)">
       <use xlink:href="#DejaVuSans-31"/>
       <use xlink:href="#DejaVuSans-32" transform="translate(63.623047 0)"/>
       <use xlink:href="#DejaVuSans-2e" transform="translate(127.246094 0)"/>
       <use xlink:href="#DejaVuSans-35" transform="translate(159.033203 0)"/>
       <use xlink:href="#DejaVuSans-20" transform="translate(222.65625 0)"/>
       <use xlink:href="#DejaVuSans-6d" transform="translate(254.443359 0)"/>
       <use xlink:href="#DejaVuSans-73" transform="translate(351.855469 0)"/>
      </g>
     </g>
    </g>
    <g id="ytick_7">
     <g id="line2d_16">
      <g>
       <use xlink:href="#m89bbdfb2d3" x="68.271875" y="100.480362" style="stroke: #000000; stroke-width: 0.8"/>
      </g>
     </g>
     <g id="text_17">
      <!-- 15 ms -->
      <g transform="translate(30.41875 104.279581) scale(0.1 -0.1)">
       <use xlink:href="#DejaVuSans-31"/>
       <use xlink:href="#DejaVuSans-35" transform="translate(63.623047 0)"/>
       <use xlink:href="#DejaVuSans-20" transform="translate(127.246094 0)"/>
       <use xlink:href="#DejaVuSans-6d" transform="translate(159.033203 0)"/>
       <use xlink:href="#DejaVuSans-73" transform="translate(256.445312 0)"/>
      </g>
     </g>
    </g>
    <g id="ytick_8">
     <g id="line2d_17">
      <g>
       <use xlink:href="#m89bbdfb2d3" x="68.271875" y="69.155402" style="stroke: #000000; stroke-width: 0.8"/>
      </g>
     </g>
     <g id="text_18">
      <!-- 17.5 ms -->
      <g transform="translate(20.878125 72.95462) scale(0.1 -0.1)">
       <use xlink:href="#DejaVuSans-31"/>
       <use xlink:href="#DejaVuSans-37" transform="translate(63.623047 0)"/>
       <use xlink:href="#DejaVuSans-2e" transform="translate(127.246094 0)"/>
       <use xlink:href="#DejaVuSans-35" transform="translate(159.033203 0)"/>
       <use xlink:href="#DejaVuSans-20" transform="translate(222.65625 0)"/>
       <use xlink:href="#DejaVuSans-6d" transform="translate(254.443359 0)"/>
       <use xlink:href="#DejaVuSans-73" transform="translate(351.855469 0)"/>
      </g>
     </g>
    </g>
    <g id="ytick_9">
     <g id="line2d_18">
      <g>
       <use xlink:href="#m89bbdfb2d3" x="68.271875" y="37.830441" style="stroke: #000000; stroke-width: 0.8"/>
      </g>
     </g>
     <g id="text_19">
      <!-- 20 ms -->
      <g transform="translate(30.41875 41.62966) scale(0.1 -0.1)">
       <use xlink:href="#DejaVuSans-32"/>
       <use xlink:href="#DejaVuSans-30" transform="translate(63.623047 0)"/>
       <use xlink:href="#DejaVuSans-20" transform="translate(127.246094 0)"/>
       <use xlink:href="#DejaVuSans-6d" transform="translate(159.033203 0)"/>
       <use xlink:href="#DejaVuSans-73" transform="translate(256.445312 0)"/>
      </g>
     </g>
    </g>
    <g id="text_20">
     <!-- Write latency (s) -->
     <g transform="translate(14.798438 196.625687) rotate(-90) scale(0.1 -0.1)">
      <defs>
       <path id="DejaVuSans-57" d="M 213 4666 
L 850 4666 
L 1831 722 
L 2809 4666 
L 3519 4666 
L 4500 722 
L 5478 4666 
L 6119 4666 
L 4947 0 
L 4153 0 
L 3169 4050 
L 2175 0 
L 1381 0 
L 213 4666 
z
" transform="scale(0.015625)"/>
       <path id="DejaVuSans-72" d="M 2631 2963 
Q 2534 3019 2420 3045 
Q 2306 3072 2169 3072 
Q 1681 3072 1420 2755 
Q 1159 2438 1159 1844 
L 1159 0 
L 581 0 
L 581 3500 
L 1159 3500 
L 1159 2956 
Q 1341 3275 1631 3429 
Q 1922 3584 2338 3584 
Q 2397 3584 2469 3576 
Q 2541 3569 2628 3553 
L 2631 2963 
z
" transform="scale(0.015625)"/>
       <path id="DejaVuSans-79" d="M 2059 -325 
Q 1816 -950 1584 -1140 
Q 1353 -1331 966 -1331 
L 506 -1331 
L 506 -850 
L 844 -850 
Q 1081 -850 1212 -737 
Q 1344 -625 1503 -206 
L 1606 56 
L 191 3500 
L 800 3500 
L 1894 763 
L 2988 3500 
L 3597 3500 
L 2059 -325 
z
" transform="scale(0.015625)"/>
       <path id="DejaVuSans-28" d="M 1984 4856 
Q 1566 4138 1362 3434 
Q 1159 2731 1159 2009 
Q 1159 1288 1364 580 
Q 1569 -128 1984 -844 
L 1484 -844 
Q 1016 -109 783 600 
Q 550 1309 550 2009 
Q 550 2706 781 3412 
Q 1013 4119 1484 4856 
L 1984 4856 
z
" transform="scale(0.015625)"/>
       <path id="DejaVuSans-29" d="M 513 4856 
L 1013 4856 
Q 1481 4119 1714 3412 
Q 1947 2706 1947 2009 
Q 1947 1309 1714 600 
Q 1481 -109 1013 -844 
L 513 -844 
Q 928 -128 1133 580 
Q 1338 1288 1338 2009 
Q 1338 2731 1133 3434 
Q 928 4138 513 4856 
z
" transform="scale(0.015625)"/>
      </defs>
      <use xlink:href="#DejaVuSans-57"/>
      <use xlink:href="#DejaVuSans-72" transform="translate(94.376953 0)"/>
      <use xlink:href="#DejaVuSans-69" transform="translate(135.490234 0)"/>
      <use xlink:href="#DejaVuSans-74" transform="translate(163.273438 0)"/>
      <use xlink:href="#DejaVuSans-65" transform="translate(202.482422 0)"/>
      <use xlink:href="#DejaVuSans-20" transform="translate(264.005859 0)"/>
      <use xlink:href="#DejaVuSans-6c" transform="translate(295.792969 0)"/>
      <use xlink:href="#DejaVuSans-61" transform="translate(323.576172 0)"/>
      <use xlink:href="#DejaVuSans-74" transform="translate(384.855469 0)"/>
      <use xlink:href="#DejaVuSans-65" transform="translate(424.064453 0)"/>
      <use xlink:href="#DejaVuSans-6e" transform="translate(485.587891 0)"/>
      <use xlink:href="#DejaVuSans-63" transform="translate(548.966797 0)"/>
      <use xlink:href="#DejaVuSans-79" transform="translate(603.947266 0)"/>
      <use xlink:href="#DejaVuSans-20" transform="translate(663.126953 0)"/>
      <use xlink:href="#DejaVuSans-28" transform="translate(694.914062 0)"/>
      <use xlink:href="#DejaVuSans-73" transform="translate(733.927734 0)"/>
      <use xlink:href="#DejaVuSans-29" transform="translate(786.027344 0)"/>
     </g>
    </g>
   </g>
   <g id="line2d_19">
    <path d="M 153.627061 218.097601 
L 155.369003 216.239388 
L 157.546431 213.939948 
L 158.417403 211.113824 
L 159.288374 210.085077 
L 161.465802 207.746632 
L 162.336773 206.661171 
L 165.820659 203.215204 
L 167.562601 201.346742 
L 168.433572 200.598901 
L 170.175515 198.895604 
L 171.481972 198.000064 
L 172.352943 197.107327 
L 173.223915 196.364909 
L 173.6594 196.090331 
L 174.094886 195.566267 
L 175.836828 194.355428 
L 176.7078 193.804111 
L 180.191685 190.935398 
L 180.62717 190.396857 
L 182.369113 189.364541 
L 182.804599 188.29247 
L 186.723969 185.775624 
L 188.030426 185.292005 
L 188.465912 184.95866 
L 189.336883 184.464424 
L 192.385283 182.79195 
L 192.820768 182.816738 
L 195.433682 181.563417 
L 195.869168 181.064984 
L 196.304653 181.017492 
L 197.175625 180.571943 
L 197.61111 180.567225 
L 200.224024 178.752628 
L 200.65951 177.379429 
L 201.965967 176.693771 
L 202.401452 176.257031 
L 202.836938 176.127149 
L 203.707909 175.259338 
L 204.143395 174.195355 
L 204.578881 173.946606 
L 206.756309 170.84215 
L 207.191795 170.685811 
L 207.62728 168.699218 
L 208.062766 168.584732 
L 208.498251 168.169593 
L 208.933737 166.909593 
L 209.804708 166.172384 
L 211.111165 165.516539 
L 211.546651 165.016191 
L 212.417622 164.283532 
L 213.724079 163.229446 
L 215.030536 162.067952 
L 215.466022 161.909468 
L 216.772479 160.805699 
L 217.207964 160.525743 
L 217.64345 160.113316 
L 218.514421 159.592685 
L 218.949907 159.278611 
L 219.385392 157.890996 
L 220.691849 156.617498 
L 221.127335 156.389998 
L 222.433792 155.02167 
L 223.740249 153.280946 
L 224.175735 152.96171 
L 225.917677 150.83877 
L 226.353163 150.560131 
L 226.788648 148.138055 
L 227.224134 147.543351 
L 227.65962 147.2095 
L 230.708019 143.446105 
L 232.014476 141.542576 
L 232.449962 139.965913 
L 232.885447 139.831726 
L 234.62739 137.24781 
L 235.062876 136.934901 
L 235.933847 135.811401 
L 239.417732 130.916661 
L 240.724189 129.334253 
L 242.466131 126.905236 
L 242.901617 127.46406 
L 243.337103 127.81697 
L 243.772588 127.51385 
L 246.385502 124.141633 
L 246.820988 123.681285 
L 247.691959 122.112282 
L 248.998416 119.871501 
L 249.433902 119.009328 
L 250.304873 117.728324 
L 250.740359 116.852454 
L 252.046816 114.81218 
L 253.353272 112.641809 
L 254.224244 110.857378 
L 256.837158 106.773398 
L 257.708129 105.160396 
L 258.5791 103.745695 
L 259.014586 103.342353 
L 260.321043 100.895443 
L 261.192014 99.324034 
L 262.062985 97.962539 
L 265.111385 92.680175 
L 265.54687 92.192436 
L 265.982356 91.183084 
L 267.288813 88.867603 
L 267.724299 88.935547 
L 269.030756 86.357223 
L 271.208184 82.012406 
L 272.950126 79.127439 
L 273.385612 78.858207 
L 274.256583 77.89768 
L 275.127555 76.408861 
L 275.56304 76.076986 
L 275.998526 75.362619 
L 276.434011 75.23194 
L 278.61144 72.732743 
L 279.046925 71.869574 
L 279.917897 70.791144 
L 280.353382 69.98616 
L 280.788868 69.588333 
L 281.659839 68.280228 
L 282.966296 66.697574 
L 283.401782 65.832214 
L 284.708239 64.287401 
L 285.143724 63.711925 
L 285.57921 64.02874 
L 286.014696 61.120303 
L 286.450181 60.696003 
L 287.321152 59.357671 
L 287.756638 58.150876 
L 288.192124 57.826738 
L 288.627609 57.81151 
L 289.063095 57.941545 
L 289.498581 57.421496 
L 289.934066 57.335551 
L 290.369552 56.946885 
L 290.805038 56.875188 
L 291.676009 56.442983 
L 292.111495 55.730975 
L 292.54698 54.411166 
L 292.982466 53.689905 
L 293.417951 53.515947 
L 293.853437 54.032488 
L 294.724408 52.956204 
L 295.159894 52.830841 
L 296.030865 51.62567 
L 296.466351 50.034285 
L 297.337322 49.472152 
L 298.208294 49.272518 
L 298.643779 47.146881 
L 299.079265 46.869453 
L 300.821207 45.030115 
L 301.256693 44.760929 
L 301.692179 44.721343 
L 302.127664 44.540399 
L 302.56315 44.578668 
L 303.434121 43.766269 
L 303.869607 43.744224 
L 304.305092 44.44131 
L 304.740578 44.271137 
L 305.176064 43.93966 
L 306.047035 43.766514 
L 306.482521 43.119585 
L 306.918006 42.809557 
L 307.788978 42.038659 
L 308.224463 42.082275 
L 308.659949 40.282416 
L 309.095435 39.670355 
L 310.401891 39.850471 
L 310.837377 39.862957 
L 311.272863 39.544318 
L 311.708348 41.470643 
L 313.014805 40.936407 
L 313.885777 40.511816 
L 314.321262 40.469441 
L 314.756748 40.652591 
L 315.192234 40.391126 
L 315.627719 40.480763 
L 316.063205 40.158417 
L 316.49869 40.000055 
L 317.369662 36.545662 
L 317.805147 36.672909 
L 318.676119 36.10739 
L 319.111604 36.176728 
L 319.54709 36.040917 
L 319.982576 36.026547 
L 320.853547 35.836197 
L 321.289032 36.298782 
L 322.160004 36.579121 
L 322.595489 36.763358 
L 323.030975 36.602146 
L 324.337432 37.02038 
L 325.208403 36.777621 
L 326.079375 36.930942 
L 326.51486 35.518386 
L 326.950346 35.436777 
L 327.385831 35.175174 
L 327.821317 35.422591 
L 328.256803 35.327668 
L 328.692288 35.017011 
L 329.56326 34.990125 
L 330.434231 35.556869 
L 330.869717 35.537321 
L 331.305202 35.367623 
L 331.740688 35.039424 
L 333.047145 35.803673 
L 333.48263 35.593239 
L 333.918116 35.078643 
L 334.353602 35.570811 
L 335.224573 35.666422 
L 335.660059 36.033518 
L 336.095544 36.056513 
L 336.53103 36.636126 
L 336.966516 36.535367 
L 337.402001 37.099461 
L 337.837487 37.266678 
L 338.272972 37.095202 
L 338.708458 37.929922 
L 339.143944 38.305597 
L 339.579429 38.327198 
L 340.014915 38.085894 
L 340.885886 38.026147 
L 341.321372 38.246646 
L 342.627829 39.188376 
L 343.063315 39.222172 
L 343.4988 39.488079 
L 344.369771 40.25026 
L 345.676228 41.408659 
L 346.111714 41.802043 
L 346.5472 42.027751 
L 346.982685 42.643719 
L 347.418171 42.824876 
L 349.160114 44.415634 
L 349.595599 42.740219 
L 350.46657 43.636234 
L 350.902056 43.728429 
L 351.337542 43.979124 
L 351.773027 44.038443 
L 353.51497 45.329405 
L 354.385941 46.021895 
L 355.256912 47.01035 
L 355.692398 47.337139 
L 356.127884 47.943072 
L 356.563369 48.194196 
L 357.434341 49.368834 
L 357.869826 49.540586 
L 358.305312 49.306467 
L 358.740798 49.367854 
L 359.176283 49.568958 
L 360.047255 50.460638 
L 360.48274 50.561504 
L 360.918226 50.885566 
L 361.789197 50.721673 
L 362.224683 51.130746 
L 362.660168 51.04526 
L 363.095654 51.250317 
L 363.966625 52.092345 
L 364.402111 52.352385 
L 364.837597 51.820371 
L 365.273082 52.354361 
L 365.708568 52.653666 
L 366.144054 52.65264 
L 366.579539 53.054067 
L 367.015025 52.886897 
L 367.885996 52.902339 
L 368.321482 52.909846 
L 368.756967 53.362089 
L 369.192453 53.277952 
L 369.627939 53.387474 
L 370.063424 53.659142 
L 370.49891 52.173081 
L 370.934396 54.801057 
L 371.369881 54.783286 
L 371.805367 55.136134 
L 372.240853 55.861011 
L 373.111824 56.71269 
L 373.547309 56.60709 
L 374.418281 57.508253 
L 374.853766 57.447341 
L 375.289252 57.864532 
L 375.724738 57.82372 
L 376.595709 58.477328 
L 377.031195 58.503066 
L 377.46668 61.305122 
L 378.337651 61.53489 
L 379.644108 62.846227 
L 380.079594 62.430675 
L 380.950565 63.488131 
L 381.386051 65.043668 
L 382.257022 65.372525 
L 383.127994 65.437926 
L 383.563479 67.50527 
L 384.43445 67.944461 
L 384.869936 68.470256 
L 385.305422 68.775367 
L 385.740907 69.326546 
L 386.176393 68.717213 
L 386.611879 68.300281 
L 387.047364 68.434851 
L 387.48285 68.445468 
L 387.918336 68.860867 
L 388.353821 68.831024 
L 388.789307 66.501281 
L 389.224793 66.744882 
L 389.660278 65.329829 
L 390.095764 65.726967 
L 390.531249 65.834911 
L 390.966735 65.558203 
L 391.837706 65.895455 
L 392.273192 64.781238 
L 393.144163 64.723636 
L 393.579649 66.54626 
L 394.015135 67.152882 
L 394.45062 67.022586 
L 394.886106 67.059584 
L 395.321591 66.780685 
L 395.757077 66.803941 
L 396.192563 66.99691 
L 396.628048 66.977653 
L 397.063534 67.281247 
L 397.49902 67.286303 
L 397.934505 67.771163 
L 398.369991 68.086523 
L 398.805477 67.92404 
L 399.676448 67.836793 
L 400.111934 68.442802 
L 400.547419 68.631253 
L 401.41839 69.251938 
L 401.853876 71.158975 
L 402.289362 73.997753 
L 402.724847 74.031135 
L 403.160333 74.598385 
L 403.595819 74.784874 
L 404.031304 74.606137 
L 405.337761 75.513566 
L 405.773247 76.014955 
L 406.208733 75.680078 
L 406.644218 75.627147 
L 407.079704 75.752434 
L 407.950675 75.366173 
L 408.386161 75.076964 
L 408.386161 75.076964 
" clip-path="url(#pd28682652d)" style="fill: none; stroke: #1f77b4; stroke-opacity: 0.8; stroke-width: 1.5; stroke-linecap: square"/>
   </g>
   <g id="line2d_20">
    <path d="M 153.627061 279.156605 
L 155.804489 279.124111 
L 158.417403 278.935094 
L 164.078716 278.681826 
L 168.433572 278.57883 
L 174.965857 278.210953 
L 178.014257 278.160551 
L 178.449742 278.034391 
L 181.933627 277.934643 
L 190.64334 277.610643 
L 191.514311 277.476364 
L 197.61111 277.302636 
L 199.788539 277.251452 
L 201.530481 277.156408 
L 206.320823 277.067721 
L 214.59505 277.009689 
L 218.949907 276.948318 
L 238.111275 276.693747 
L 239.417732 276.727941 
L 242.030646 276.771357 
L 245.079045 276.804663 
L 252.917787 276.846884 
L 255.966186 276.831626 
L 262.498471 276.835103 
L 262.933957 276.803897 
L 263.369442 276.914246 
L 269.030756 276.676022 
L 271.208184 276.652506 
L 272.514641 276.615125 
L 293.853437 276.747121 
L 299.51475 276.501896 
L 303.434121 276.49399 
L 305.176064 276.437062 
L 312.143834 276.272587 
L 313.450291 276.02966 
L 316.063205 275.997534 
L 316.49869 275.86183 
L 317.369662 275.789106 
L 317.805147 275.603705 
L 318.676119 275.592154 
L 320.418061 275.22584 
L 327.385831 275.056922 
L 329.998745 274.975574 
L 332.611659 274.878078 
L 334.353602 274.78147 
L 336.966516 274.704656 
L 337.837487 274.548439 
L 339.143944 274.556957 
L 340.014915 274.45027 
L 341.756858 274.423827 
L 351.337542 274.323222 
L 352.643999 274.368706 
L 355.256912 274.308116 
L 358.740798 274.284631 
L 391.837706 273.391894 
L 395.321591 273.317026 
L 397.49902 273.401806 
L 398.369991 273.502488 
L 398.805477 273.50402 
L 399.240962 273.37469 
L 402.289362 273.545706 
L 402.724847 273.700437 
L 404.031304 273.62229 
L 404.46679 273.771904 
L 408.386161 273.740759 
L 408.386161 273.740759 
" clip-path="url(#pd28682652d)" style="fill: none; stroke: #ff7f0e; stroke-opacity: 0.8; stroke-width: 1.5; stroke-linecap: square"/>
   </g>
   <g id="line2d_21">
    <path d="M 153.627061 284.857968 
L 159.72386 284.840365 
L 163.207745 284.837945 
L 164.514202 284.780909 
L 219.385392 284.67943 
L 220.691849 284.637928 
L 225.917677 284.625963 
L 291.240523 284.612313 
L 299.950236 284.588077 
L 313.885777 284.628491 
L 320.418061 284.603428 
L 325.208403 284.627051 
L 331.740688 284.646998 
L 338.272972 284.643397 
L 346.982685 284.691287 
L 401.41839 284.808837 
L 403.595819 284.854245 
L 408.386161 284.831051 
L 408.386161 284.831051 
" clip-path="url(#pd28682652d)" style="fill: none; stroke: #2ca02c; stroke-opacity: 0.8; stroke-width: 1.5; stroke-linecap: square"/>
   </g>
   <g id="line2d_22">
    <path d="M 153.627061 282.155614 
L 159.288374 282.107142 
L 162.336773 282.047317 
L 164.078716 282.024644 
L 171.481972 281.741838 
L 177.143285 281.690241 
L 180.191685 281.554108 
L 184.982027 281.515717 
L 187.594941 281.432668 
L 195.869168 281.168323 
L 196.740139 281.126101 
L 199.353053 281.110873 
L 204.578881 280.845502 
L 206.756309 279.335097 
L 210.240194 276.953434 
L 211.111165 276.181694 
L 211.546651 275.897219 
L 212.417622 275.069944 
L 213.288593 274.31858 
L 218.078936 270.352226 
L 224.175735 264.252346 
L 226.353163 261.664095 
L 227.224134 260.918843 
L 228.530591 259.257721 
L 229.837048 257.912511 
L 230.272533 257.529268 
L 232.885447 254.094056 
L 233.320933 253.192235 
L 234.191904 252.231952 
L 235.498361 250.84616 
L 238.111275 248.064127 
L 240.288703 245.279704 
L 242.030646 243.38955 
L 243.337103 241.734525 
L 245.950017 238.698626 
L 246.820988 237.618833 
L 247.256474 236.103557 
L 248.127445 235.042317 
L 250.304873 232.456287 
L 252.917787 228.853444 
L 253.353272 228.386907 
L 254.224244 227.172468 
L 259.885557 219.412416 
L 261.192014 217.617322 
L 263.369442 214.62873 
L 264.240414 213.479263 
L 268.159784 208.038629 
L 272.950126 200.664608 
L 275.56304 197.418857 
L 275.998526 197.145412 
L 276.434011 196.564788 
L 276.869497 196.406273 
L 277.304983 195.863657 
L 278.175954 195.412256 
L 278.61144 194.853417 
L 279.482411 194.559474 
L 279.917897 194.029114 
L 280.353382 193.905651 
L 280.788868 193.328229 
L 281.224354 193.028127 
L 282.53081 191.425267 
L 282.966296 191.114564 
L 284.708239 189.033187 
L 285.143724 188.919804 
L 286.014696 187.777031 
L 286.450181 187.471798 
L 287.321152 186.27254 
L 288.192124 185.852239 
L 289.063095 184.81741 
L 289.498581 184.316403 
L 290.369552 184.394473 
L 290.805038 184.333546 
L 291.240523 184.143273 
L 292.54698 183.179054 
L 293.417951 183.025119 
L 294.288923 182.775007 
L 294.724408 182.451174 
L 295.159894 182.45525 
L 295.59538 181.018733 
L 296.030865 180.602185 
L 296.466351 179.236063 
L 296.901837 179.073013 
L 297.337322 179.115725 
L 297.772808 178.795708 
L 298.208294 178.674221 
L 298.643779 178.728055 
L 299.079265 178.277206 
L 299.51475 178.045722 
L 299.950236 178.206458 
L 300.385722 178.177764 
L 300.821207 178.282568 
L 301.692179 177.918031 
L 302.127664 178.183892 
L 302.998636 177.763024 
L 303.434121 177.795058 
L 303.869607 177.583949 
L 304.305092 177.826433 
L 304.740578 177.858222 
L 305.176064 178.185348 
L 306.047035 177.576657 
L 306.482521 177.590384 
L 307.353492 177.227225 
L 307.788978 177.277352 
L 308.224463 177.129178 
L 309.095435 177.157535 
L 309.53092 177.619277 
L 309.966406 177.880022 
L 310.401891 177.792331 
L 310.837377 177.991137 
L 311.272863 177.916545 
L 311.708348 178.244743 
L 312.143834 177.119573 
L 313.014805 177.176884 
L 313.885777 177.642226 
L 314.756748 177.523696 
L 315.192234 177.830554 
L 315.627719 177.804449 
L 316.063205 178.08468 
L 316.49869 178.05879 
L 316.934176 178.460769 
L 317.369662 179.019991 
L 317.805147 179.161593 
L 318.240633 179.664974 
L 318.676119 179.481794 
L 319.111604 179.481427 
L 319.982576 179.177449 
L 320.418061 179.373483 
L 320.853547 179.199816 
L 321.289032 178.902273 
L 322.160004 179.274332 
L 322.595489 179.406788 
L 323.030975 178.679445 
L 325.208403 178.461029 
L 325.643889 178.055894 
L 326.51486 178.543236 
L 326.950346 178.737431 
L 327.821317 179.360568 
L 328.256803 179.230962 
L 328.692288 178.946241 
L 329.127774 179.258966 
L 329.998745 179.128824 
L 330.434231 179.29149 
L 330.869717 178.710483 
L 331.740688 179.07427 
L 332.176174 180.404941 
L 332.611659 180.478814 
L 333.047145 180.383554 
L 333.48263 180.565647 
L 334.353602 180.609232 
L 335.224573 180.489246 
L 336.095544 180.866024 
L 336.53103 181.443033 
L 336.966516 181.761457 
L 337.837487 182.053608 
L 338.272972 181.996694 
L 338.708458 182.586817 
L 339.579429 182.454591 
L 340.014915 182.846673 
L 340.450401 182.811499 
L 340.885886 183.241191 
L 341.321372 183.473288 
L 341.756858 183.473395 
L 342.192343 183.625261 
L 342.627829 183.394513 
L 343.934286 183.392628 
L 344.369771 183.613649 
L 344.805257 183.538397 
L 346.5472 184.795702 
L 346.982685 184.851298 
L 347.418171 185.379819 
L 347.853657 185.147876 
L 348.724628 184.992899 
L 349.160114 185.072594 
L 350.031085 185.67943 
L 350.46657 185.858474 
L 351.337542 185.805513 
L 351.773027 186.100651 
L 352.208513 186.146641 
L 353.51497 186.807588 
L 353.950456 186.728936 
L 354.385941 187.050684 
L 356.127884 187.641236 
L 357.434341 188.518882 
L 357.869826 188.593475 
L 358.305312 188.909249 
L 358.740798 189.047373 
L 359.176283 189.062999 
L 360.48274 189.725095 
L 360.918226 189.5127 
L 361.353711 189.550188 
L 361.789197 189.332262 
L 363.095654 189.291388 
L 363.53114 189.447881 
L 364.402111 188.60472 
L 364.837597 188.838348 
L 365.273082 188.747547 
L 366.144054 189.042609 
L 366.579539 189.306172 
L 367.015025 189.703187 
L 367.45051 189.876149 
L 368.756967 189.776846 
L 369.192453 190.026269 
L 369.627939 190.102776 
L 370.063424 189.191533 
L 370.49891 189.440129 
L 370.934396 189.383553 
L 371.805367 189.694225 
L 372.240853 190.114665 
L 373.111824 189.3961 
L 373.547309 189.826819 
L 373.982795 189.729155 
L 374.418281 189.782882 
L 375.289252 189.39011 
L 375.724738 189.65496 
L 376.160223 189.658178 
L 376.595709 190.217216 
L 377.031195 190.521194 
L 377.46668 190.393901 
L 377.902166 190.481576 
L 378.337651 190.102256 
L 378.773137 190.052696 
L 379.208623 189.887501 
L 379.644108 189.923549 
L 380.079594 189.671016 
L 380.51508 190.944069 
L 380.950565 191.113568 
L 381.386051 192.581322 
L 381.821537 192.881225 
L 382.257022 192.765421 
L 382.692508 192.830133 
L 383.127994 192.545397 
L 383.563479 192.563015 
L 383.998965 193.089882 
L 384.43445 192.909153 
L 384.869936 192.404347 
L 385.305422 191.708501 
L 386.176393 191.56215 
L 386.611879 191.928725 
L 387.047364 191.631335 
L 387.48285 191.648018 
L 387.918336 191.919257 
L 388.353821 191.912409 
L 388.789307 192.236318 
L 389.224793 192.157068 
L 389.660278 191.687789 
L 390.095764 191.423873 
L 390.531249 191.493502 
L 390.966735 191.953926 
L 391.402221 191.77188 
L 392.708678 192.060338 
L 393.144163 192.468951 
L 394.015135 192.383833 
L 394.45062 191.987998 
L 394.886106 191.394198 
L 395.321591 191.722151 
L 395.757077 191.478473 
L 396.192563 191.738222 
L 396.628048 191.594292 
L 397.063534 192.698152 
L 397.49902 193.145171 
L 398.369991 193.44731 
L 398.805477 193.356494 
L 399.240962 193.419949 
L 399.676448 193.672421 
L 400.111934 193.150227 
L 400.547419 193.544975 
L 401.41839 192.856621 
L 401.853876 192.861722 
L 402.289362 192.148964 
L 403.160333 192.384936 
L 403.595819 192.268597 
L 404.031304 192.495393 
L 405.337761 192.218011 
L 405.773247 192.224506 
L 406.208733 192.58025 
L 406.644218 192.162139 
L 407.515189 191.760727 
L 407.950675 192.353163 
L 408.386161 192.2168 
L 408.386161 192.2168 
" clip-path="url(#pd28682652d)" style="fill: none; stroke: #d62728; stroke-opacity: 0.8; stroke-width: 1.5; stroke-linecap: square"/>
   </g>
   <g id="line2d_23">
    <path d="M 153.627061 248.755606 
L 157.110946 246.141801 
L 157.981917 245.489954 
L 159.288374 244.571235 
L 161.901288 242.209825 
L 170.175515 236.126951 
L 170.611001 236.079566 
L 171.481972 235.404035 
L 178.014257 231.251346 
L 182.804599 227.875575 
L 184.546541 226.66518 
L 184.982027 226.297762 
L 185.417512 226.112621 
L 188.030426 224.159548 
L 189.772369 222.889773 
L 191.078826 222.028228 
L 191.514311 221.549129 
L 194.127225 219.652586 
L 195.869168 218.196138 
L 198.917567 216.183409 
L 199.353053 216.209223 
L 202.401452 214.166284 
L 204.143395 212.723118 
L 204.578881 212.399148 
L 205.885338 212.802843 
L 208.498251 213.778338 
L 209.369223 214.08541 
L 209.804708 214.201811 
L 210.67568 214.577041 
L 212.417622 215.34823 
L 213.288593 215.621736 
L 217.207964 217.324819 
L 221.562821 219.062417 
L 222.433792 219.38677 
L 223.740249 219.970627 
L 225.917677 220.666963 
L 228.530591 221.572446 
L 229.837048 222.144521 
L 231.143505 222.599385 
L 234.191904 223.821116 
L 235.062876 224.002014 
L 235.933847 224.459834 
L 239.417732 225.693484 
L 240.724189 225.970805 
L 242.030646 226.396744 
L 243.772588 226.70351 
L 247.256474 228.16391 
L 248.56293 228.447589 
L 250.740359 228.994326 
L 251.175844 229.207901 
L 253.353272 229.621002 
L 254.224244 229.879694 
L 256.401672 230.52748 
L 259.450071 231.28698 
L 260.321043 231.508153 
L 263.369442 232.19067 
L 264.675899 232.506613 
L 270.337212 233.874848 
L 270.772698 233.911815 
L 271.643669 234.178259 
L 272.079155 234.233319 
L 272.514641 234.408303 
L 272.950126 234.413496 
L 273.385612 234.286693 
L 273.821098 234.376774 
L 274.692069 234.296682 
L 275.127555 233.922355 
L 277.304983 233.803856 
L 277.740468 233.618531 
L 278.61144 233.552793 
L 279.046925 233.38671 
L 279.917897 233.248402 
L 283.837267 232.21506 
L 284.708239 231.830116 
L 286.014696 231.542255 
L 286.885667 231.009582 
L 288.627609 230.876468 
L 289.063095 230.759546 
L 289.498581 230.456427 
L 291.240523 227.900944 
L 292.54698 225.837185 
L 292.982466 224.850353 
L 294.724408 222.390927 
L 295.59538 220.953261 
L 296.030865 220.285099 
L 296.901837 218.51565 
L 297.772808 217.059892 
L 300.385722 212.385146 
L 302.56315 208.671556 
L 302.998636 208.052218 
L 303.869607 206.516168 
L 304.740578 204.948743 
L 305.176064 204.442389 
L 306.047035 203.088769 
L 308.224463 199.292374 
L 309.095435 197.72239 
L 313.885777 189.79552 
L 314.321262 188.989801 
L 315.627719 187.13024 
L 318.676119 182.123482 
L 319.54709 180.90725 
L 323.901946 173.688527 
L 324.772918 172.385309 
L 326.950346 168.244814 
L 327.821317 166.409796 
L 328.692288 164.672427 
L 329.56326 162.963936 
L 330.434231 161.235882 
L 331.305202 159.820492 
L 333.48263 154.721737 
L 334.353602 152.885294 
L 335.224573 150.77579 
L 335.660059 150.038014 
L 336.53103 147.735095 
L 337.402001 145.819587 
L 338.272972 144.223835 
L 338.708458 143.38628 
L 340.450401 138.854332 
L 340.885886 138.348897 
L 341.756858 136.865486 
L 343.4988 134.2983 
L 344.369771 132.654796 
L 345.240743 131.628163 
L 346.111714 130.58762 
L 346.982685 129.366731 
L 347.418171 129.134711 
L 348.724628 127.11469 
L 349.595599 125.733815 
L 350.46657 124.620717 
L 350.902056 123.736146 
L 353.079484 120.7605 
L 355.692398 116.50074 
L 356.127884 115.544763 
L 356.563369 115.041488 
L 357.434341 113.550142 
L 357.869826 112.936718 
L 358.305312 112.63032 
L 359.611769 111.129628 
L 360.48274 110.872054 
L 361.353711 109.294349 
L 361.789197 108.901225 
L 362.224683 107.891353 
L 362.660168 107.743071 
L 363.53114 106.467781 
L 363.966625 106.039774 
L 364.402111 105.393458 
L 364.837597 105.02552 
L 365.273082 104.335266 
L 366.144054 103.536211 
L 366.579539 103.025108 
L 367.015025 102.761545 
L 367.45051 102.02432 
L 369.192453 100.544402 
L 369.627939 99.920607 
L 370.49891 99.255922 
L 371.369881 97.851163 
L 372.240853 96.972337 
L 372.676338 96.372456 
L 373.547309 95.559046 
L 373.982795 94.947337 
L 374.418281 94.609625 
L 374.853766 93.566462 
L 375.289252 93.108826 
L 375.724738 92.861732 
L 376.160223 92.119666 
L 376.595709 91.943426 
L 377.46668 90.944553 
L 377.902166 91.461232 
L 378.337651 90.589009 
L 379.208623 89.82931 
L 379.644108 89.254722 
L 380.51508 88.692359 
L 380.950565 87.808385 
L 381.386051 87.671793 
L 381.821537 87.156385 
L 382.692508 86.808715 
L 383.563479 85.470292 
L 383.998965 85.419721 
L 384.43445 85.555655 
L 384.869936 85.398947 
L 385.740907 84.637855 
L 386.176393 84.125205 
L 386.611879 83.877129 
L 387.047364 83.860906 
L 387.918336 82.578278 
L 388.789307 81.853033 
L 389.224793 81.073603 
L 390.095764 80.160429 
L 390.531249 80.106794 
L 390.966735 79.748707 
L 391.402221 79.183678 
L 391.837706 78.870876 
L 392.273192 78.857732 
L 393.144163 78.49655 
L 394.45062 77.814952 
L 394.886106 77.335041 
L 395.321591 77.579669 
L 396.192563 75.892917 
L 396.628048 75.486878 
L 397.063534 72.958604 
L 397.49902 72.733999 
L 397.934505 71.959639 
L 398.369991 71.778374 
L 398.805477 71.717661 
L 399.240962 71.041257 
L 399.676448 70.756046 
L 400.111934 69.948917 
L 400.547419 69.672255 
L 400.982905 69.094189 
L 401.41839 68.864452 
L 401.853876 68.253265 
L 402.289362 67.946621 
L 402.724847 67.318904 
L 404.031304 66.158436 
L 404.46679 65.885099 
L 404.902276 65.768024 
L 405.773247 64.638089 
L 406.644218 63.713886 
L 407.079704 63.086903 
L 407.950675 62.621913 
L 408.386161 62.169103 
L 408.386161 62.169103 
" clip-path="url(#pd28682652d)" style="fill: none; stroke: #9467bd; stroke-opacity: 0.8; stroke-width: 1.5; stroke-linecap: square"/>
   </g>
   <g id="patch_3">
    <path d="M 68.271875 288.430125 
L 68.271875 22.318125 
" style="fill: none; stroke: #000000; stroke-width: 0.8; stroke-linejoin: miter; stroke-linecap: square"/>
   </g>
   <g id="patch_4">
    <path d="M 425.391875 288.430125 
L 425.391875 22.318125 
" style="fill: none; stroke: #000000; stroke-width: 0.8; stroke-linejoin: miter; stroke-linecap: square"/>
   </g>
   <g id="patch_5">
    <path d="M 68.271875 288.430125 
L 425.391875 288.430125 
" style="fill: none; stroke: #000000; stroke-width: 0.8; stroke-linejoin: miter; stroke-linecap: square"/>
   </g>
   <g id="patch_6">
    <path d="M 68.271875 22.318125 
L 425.391875 22.318125 
" style="fill: none; stroke: #000000; stroke-width: 0.8; stroke-linejoin: miter; stroke-linecap: square"/>
   </g>
   <g id="text_21">
    <!-- Move [leaf to branch] -->
    <g transform="translate(182.310313 16.318125) scale(0.12 -0.12)">
     <defs>
      <path id="DejaVuSans-4d" d="M 628 4666 
L 1569 4666 
L 2759 1491 
L 3956 4666 
L 4897 4666 
L 4897 0 
L 4281 0 
L 4281 4097 
L 3078 897 
L 2444 897 
L 1241 4097 
L 1241 0 
L 628 0 
L 628 4666 
z
" transform="scale(0.015625)"/>
      <path id="DejaVuSans-76" d="M 191 3500 
L 800 3500 
L 1894 563 
L 2988 3500 
L 3597 3500 
L 2284 0 
L 1503 0 
L 191 3500 
z
" transform="scale(0.015625)"/>
      <path id="DejaVuSans-5b" d="M 550 4863 
L 1875 4863 
L 1875 4416 
L 1125 4416 
L 1125 -397 
L 1875 -397 
L 1875 -844 
L 550 -844 
L 550 4863 
z
" transform="scale(0.015625)"/>
      <path id="DejaVuSans-68" d="M 3513 2113 
L 3513 0 
L 2938 0 
L 2938 2094 
Q 2938 2591 2744 2837 
Q 2550 3084 2163 3084 
Q 1697 3084 1428 2787 
Q 1159 2491 1159 1978 
L 1159 0 
L 581 0 
L 581 4863 
L 1159 4863 
L 1159 2956 
Q 1366 3272 1645 3428 
Q 1925 3584 2291 3584 
Q 2894 3584 3203 3211 
Q 3513 2838 3513 2113 
z
" transform="scale(0.015625)"/>
      <path id="DejaVuSans-5d" d="M 1947 4863 
L 1947 -844 
L 622 -844 
L 622 -397 
L 1369 -397 
L 1369 4416 
L 622 4416 
L 622 4863 
L 1947 4863 
z
" transform="scale(0.015625)"/>
     </defs>
     <use xlink:href="#DejaVuSans-4d"/>
     <use xlink:href="#DejaVuSans-6f" transform="translate(86.279297 0)"/>
     <use xlink:href="#DejaVuSans-76" transform="translate(147.460938 0)"/>
     <use xlink:href="#DejaVuSans-65" transform="translate(206.640625 0)"/>
     <use xlink:href="#DejaVuSans-20" transform="translate(268.164062 0)"/>
     <use xlink:href="#DejaVuSans-5b" transform="translate(299.951172 0)"/>
     <use xlink:href="#DejaVuSans-6c" transform="translate(338.964844 0)"/>
     <use xlink:href="#DejaVuSans-65" transform="translate(366.748047 0)"/>
     <use xlink:href="#DejaVuSans-61" transform="translate(428.271484 0)"/>
     <use xlink:href="#DejaVuSans-66" transform="translate(489.550781 0)"/>
     <use xlink:href="#DejaVuSans-20" transform="translate(524.755859 0)"/>
     <use xlink:href="#DejaVuSans-74" transform="translate(556.542969 0)"/>
     <use xlink:href="#DejaVuSans-6f" transform="translate(595.751953 0)"/>
     <use xlink:href="#DejaVuSans-20" transform="translate(656.933594 0)"/>
     <use xlink:href="#DejaVuSans-62" transform="translate(688.720703 0)"/>
     <use xlink:href="#DejaVuSans-72" transform="translate(752.197266 0)"/>
     <use xlink:href="#DejaVuSans-61" transform="translate(793.310547 0)"/>
     <use xlink:href="#DejaVuSans-6e" transform="translate(854.589844 0)"/>
     <use xlink:href="#DejaVuSans-63" transform="translate(917.96875 0)"/>
     <use xlink:href="#DejaVuSans-68" transform="translate(972.949219 0)"/>
     <use xlink:href="#DejaVuSans-5d" transform="translate(1036.328125 0)"/>
    </g>
   </g>
   <g id="legend_1">
    <g id="patch_7">
     <path d="M 99.274219 365.802375 
L 386.869531 365.802375 
Q 388.869531 365.802375 388.869531 363.802375 
L 388.869531 335.446125 
Q 388.869531 333.446125 386.869531 333.446125 
L 99.274219 333.446125 
Q 97.274219 333.446125 97.274219 335.446125 
L 97.274219 363.802375 
Q 97.274219 365.802375 99.274219 365.802375 
z
" style="fill: #4d4d4d; opacity: 0.5; stroke: #4d4d4d; stroke-linejoin: miter"/>
    </g>
    <g id="patch_8">
     <path d="M 97.274219 363.802375 
L 384.869531 363.802375 
Q 386.869531 363.802375 386.869531 361.802375 
L 386.869531 333.446125 
Q 386.869531 331.446125 384.869531 331.446125 
L 97.274219 331.446125 
Q 95.274219 331.446125 95.274219 333.446125 
L 95.274219 361.802375 
Q 95.274219 363.802375 97.274219 363.802375 
z
" style="fill: #ffffff; stroke: #cccccc; stroke-linejoin: miter"/>
    </g>
    <g id="line2d_24">
     <path d="M 99.274219 339.544562 
L 109.274219 339.544562 
L 119.274219 339.544562 
" style="fill: none; stroke: #1f77b4; stroke-opacity: 0.8; stroke-width: 1.5; stroke-linecap: square"/>
    </g>
    <g id="text_22">
     <!-- MPTT -->
     <g transform="translate(127.274219 343.044562) scale(0.1 -0.1)">
      <defs>
       <path id="DejaVuSans-50" d="M 1259 4147 
L 1259 2394 
L 2053 2394 
Q 2494 2394 2734 2622 
Q 2975 2850 2975 3272 
Q 2975 3691 2734 3919 
Q 2494 4147 2053 4147 
L 1259 4147 
z
M 628 4666 
L 2053 4666 
Q 2838 4666 3239 4311 
Q 3641 3956 3641 3272 
Q 3641 2581 3239 2228 
Q 2838 1875 2053 1875 
L 1259 1875 
L 1259 0 
L 628 0 
L 628 4666 
z
" transform="scale(0.015625)"/>
       <path id="DejaVuSans-54" d="M -19 4666 
L 3928 4666 
L 3928 4134 
L 2272 4134 
L 2272 0 
L 1638 0 
L 1638 4134 
L -19 4134 
L -19 4666 
z
" transform="scale(0.015625)"/>
      </defs>
      <use xlink:href="#DejaVuSans-4d"/>
      <use xlink:href="#DejaVuSans-50" transform="translate(86.279297 0)"/>
      <use xlink:href="#DejaVuSans-54" transform="translate(146.582031 0)"/>
      <use xlink:href="#DejaVuSans-54" transform="translate(205.916016 0)"/>
     </g>
    </g>
    <g id="line2d_25">
     <path d="M 99.274219 354.222687 
L 109.274219 354.222687 
L 119.274219 354.222687 
" style="fill: none; stroke: #ff7f0e; stroke-opacity: 0.8; stroke-width: 1.5; stroke-linecap: square"/>
    </g>
    <g id="text_23">
     <!-- tree -->
     <g transform="translate(127.274219 357.722687) scale(0.1 -0.1)">
      <use xlink:href="#DejaVuSans-74"/>
      <use xlink:href="#DejaVuSans-72" transform="translate(39.208984 0)"/>
      <use xlink:href="#DejaVuSans-65" transform="translate(78.072266 0)"/>
      <use xlink:href="#DejaVuSans-65" transform="translate(139.595703 0)"/>
     </g>
    </g>
    <g id="line2d_26">
     <path d="M 173.972656 339.544562 
L 183.972656 339.544562 
L 193.972656 339.544562 
" style="fill: none; stroke: #2ca02c; stroke-opacity: 0.8; stroke-width: 1.5; stroke-linecap: square"/>
    </g>
    <g id="text_24">
     <!-- treebeard AL -->
     <g transform="translate(201.972656 343.044562) scale(0.1 -0.1)">
      <defs>
       <path id="DejaVuSans-64" d="M 2906 2969 
L 2906 4863 
L 3481 4863 
L 3481 0 
L 2906 0 
L 2906 525 
Q 2725 213 2448 61 
Q 2172 -91 1784 -91 
Q 1150 -91 751 415 
Q 353 922 353 1747 
Q 353 2572 751 3078 
Q 1150 3584 1784 3584 
Q 2172 3584 2448 3432 
Q 2725 3281 2906 2969 
z
M 947 1747 
Q 947 1113 1208 752 
Q 1469 391 1925 391 
Q 2381 391 2643 752 
Q 2906 1113 2906 1747 
Q 2906 2381 2643 2742 
Q 2381 3103 1925 3103 
Q 1469 3103 1208 2742 
Q 947 2381 947 1747 
z
" transform="scale(0.015625)"/>
       <path id="DejaVuSans-4c" d="M 628 4666 
L 1259 4666 
L 1259 531 
L 3531 531 
L 3531 0 
L 628 0 
L 628 4666 
z
" transform="scale(0.015625)"/>
      </defs>
      <use xlink:href="#DejaVuSans-74"/>
      <use xlink:href="#DejaVuSans-72" transform="translate(39.208984 0)"/>
      <use xlink:href="#DejaVuSans-65" transform="translate(78.072266 0)"/>
      <use xlink:href="#DejaVuSans-65" transform="translate(139.595703 0)"/>
      <use xlink:href="#DejaVuSans-62" transform="translate(201.119141 0)"/>
      <use xlink:href="#DejaVuSans-65" transform="translate(264.595703 0)"/>
      <use xlink:href="#DejaVuSans-61" transform="translate(326.119141 0)"/>
      <use xlink:href="#DejaVuSans-72" transform="translate(387.398438 0)"/>
      <use xlink:href="#DejaVuSans-64" transform="translate(426.761719 0)"/>
      <use xlink:href="#DejaVuSans-20" transform="translate(490.238281 0)"/>
      <use xlink:href="#DejaVuSans-41" transform="translate(522.025391 0)"/>
      <use xlink:href="#DejaVuSans-4c" transform="translate(590.433594 0)"/>
     </g>
    </g>
    <g id="line2d_27">
     <path d="M 173.972656 354.222687 
L 183.972656 354.222687 
L 193.972656 354.222687 
" style="fill: none; stroke: #d62728; stroke-opacity: 0.8; stroke-width: 1.5; stroke-linecap: square"/>
    </g>
    <g id="text_25">
     <!-- treebeard MP -->
     <g transform="translate(201.972656 357.722687) scale(0.1 -0.1)">
      <use xlink:href="#DejaVuSans-74"/>
      <use xlink:href="#DejaVuSans-72" transform="translate(39.208984 0)"/>
      <use xlink:href="#DejaVuSans-65" transform="translate(78.072266 0)"/>
      <use xlink:href="#DejaVuSans-65" transform="translate(139.595703 0)"/>
      <use xlink:href="#DejaVuSans-62" transform="translate(201.119141 0)"/>
      <use xlink:href="#DejaVuSans-65" transform="translate(264.595703 0)"/>
      <use xlink:href="#DejaVuSans-61" transform="translate(326.119141 0)"/>
      <use xlink:href="#DejaVuSans-72" transform="translate(387.398438 0)"/>
      <use xlink:href="#DejaVuSans-64" transform="translate(426.761719 0)"/>
      <use xlink:href="#DejaVuSans-20" transform="translate(490.238281 0)"/>
      <use xlink:href="#DejaVuSans-4d" transform="translate(522.025391 0)"/>
      <use xlink:href="#DejaVuSans-50" transform="translate(608.304688 0)"/>
     </g>
    </g>
    <g id="line2d_28">
     <path d="M 288.835156 339.544562 
L 298.835156 339.544562 
L 308.835156 339.544562 
" style="fill: none; stroke: #9467bd; stroke-opacity: 0.8; stroke-width: 1.5; stroke-linecap: square"/>
    </g>
    <g id="text_26">
     <!-- treebeard NS -->
     <g transform="translate(316.835156 343.044562) scale(0.1 -0.1)">
      <defs>
       <path id="DejaVuSans-4e" d="M 628 4666 
L 1478 4666 
L 3547 763 
L 3547 4666 
L 4159 4666 
L 4159 0 
L 3309 0 
L 1241 3903 
L 1241 0 
L 628 0 
L 628 4666 
z
" transform="scale(0.015625)"/>
       <path id="DejaVuSans-53" d="M 3425 4513 
L 3425 3897 
Q 3066 4069 2747 4153 
Q 2428 4238 2131 4238 
Q 1616 4238 1336 4038 
Q 1056 3838 1056 3469 
Q 1056 3159 1242 3001 
Q 1428 2844 1947 2747 
L 2328 2669 
Q 3034 2534 3370 2195 
Q 3706 1856 3706 1288 
Q 3706 609 3251 259 
Q 2797 -91 1919 -91 
Q 1588 -91 1214 -16 
Q 841 59 441 206 
L 441 856 
Q 825 641 1194 531 
Q 1563 422 1919 422 
Q 2459 422 2753 634 
Q 3047 847 3047 1241 
Q 3047 1584 2836 1778 
Q 2625 1972 2144 2069 
L 1759 2144 
Q 1053 2284 737 2584 
Q 422 2884 422 3419 
Q 422 4038 858 4394 
Q 1294 4750 2059 4750 
Q 2388 4750 2728 4690 
Q 3069 4631 3425 4513 
z
" transform="scale(0.015625)"/>
      </defs>
      <use xlink:href="#DejaVuSans-74"/>
      <use xlink:href="#DejaVuSans-72" transform="translate(39.208984 0)"/>
      <use xlink:href="#DejaVuSans-65" transform="translate(78.072266 0)"/>
      <use xlink:href="#DejaVuSans-65" transform="translate(139.595703 0)"/>
      <use xlink:href="#DejaVuSans-62" transform="translate(201.119141 0)"/>
      <use xlink:href="#DejaVuSans-65" transform="translate(264.595703 0)"/>
      <use xlink:href="#DejaVuSans-61" transform="translate(326.119141 0)"/>
      <use xlink:href="#DejaVuSans-72" transform="translate(387.398438 0)"/>
      <use xlink:href="#DejaVuSans-64" transform="translate(426.761719 0)"/>
      <use xlink:href="#DejaVuSans-20" transform="translate(490.238281 0)"/>
      <use xlink:href="#DejaVuSans-4e" transform="translate(522.025391 0)"/>
      <use xlink:href="#DejaVuSans-53" transform="translate(596.830078 0)"/>
     </g>
    </g>
   </g>
  </g>
 </g>
 <defs>
  <clipPath id="pd28682652d">
   <rect x="68.271875" y="22.318125" width="357.12" height="266.112"/>
  </clipPath>
 </defs>
</svg>
