<?xml version="1.0" encoding="utf-8" standalone="no"?>
<!DOCTYPE svg PUBLIC "-//W3C//DTD SVG 1.1//EN"
  "http://www.w3.org/Graphics/SVG/1.1/DTD/svg11.dtd">
<svg xmlns:xlink="http://www.w3.org/1999/xlink" width="432.591875pt" height="371.002375pt" viewBox="0 0 432.591875 371.002375" xmlns="http://www.w3.org/2000/svg" version="1.1">
 <metadata>
  <rdf:RDF xmlns:dc="http://purl.org/dc/elements/1.1/" xmlns:cc="http://creativecommons.org/ns#" xmlns:rdf="http://www.w3.org/1999/02/22-rdf-syntax-ns#">
   <cc:Work>
    <dc:type rdf:resource="http://purl.org/dc/dcmitype/StillImage"/>
    <dc:date>2026-06-29T07:21:56.907845</dc:date>
    <dc:format>image/svg+xml</dc:format>
    <dc:creator>
     <cc:Agent>
      <dc:title>Matplotlib v3.10.6, https://matplotlib.org/</dc:title>
     </cc:Agent>
    </dc:creator>
   </cc:Work>
  </rdf:RDF>
 </metadata>
 <defs>
  <style type="text/css">*{stroke-linejoin: round; stroke-linecap: butt}</style>
 </defs>
 <g id="figure_1">
  <g id="patch_1">
   <path d="M 0 371.002375 
L 432.591875 371.002375 
L 432.591875 0 
L 0 0 
z
" style="fill: #ffffff"/>
  </g>
  <g id="axes_1">
   <g id="patch_2">
    <path d="M 68.271875 288.430125 
L 425.391875 288.430125 
L 425.391875 22.318125 
L 68.271875 22.318125 
z
" style="fill: #ffffff"/>
   </g>
   <g id="matplotlib.axis_1">
    <g id="xtick_1">
     <g id="line2d_1">
      <defs>
       <path id="m1c5feb15fb" d="M 0 0 
L 0 3.5 
" style="stroke: #000000; stroke-width: 0.8"/>
      </defs>
      <g>
       <use xlink:href="#m1c5feb15fb" x="68.271875" y="288.430125" style="stroke: #000000; stroke-width: 0.8"/>
      </g>
     </g>
     <g id="text_1">
      <!-- 0 -->
      <g transform="translate(65.090625 303.028562) scale(0.1 -0.1)">
       <defs>
        <path id="DejaVuSans-30" d="M 2034 4250 
Q 1547 4250 1301 3770 
Q 1056 3291 1056 2328 
Q 1056 1369 1301 889 
Q 1547 409 2034 409 
Q 2525 409 2770 889 
Q 3016 1369 3016 2328 
Q 3016 3291 2770 3770 
Q 2525 4250 2034 4250 
z
M 2034 4750 
Q 2819 4750 3233 4129 
Q 3647 3509 3647 2328 
Q 3647 1150 3233 529 
Q 2819 -91 2034 -91 
Q 1250 -91 836 529 
Q 422 1150 422 2328 
Q 422 3509 836 4129 
Q 1250 4750 2034 4750 
z
" transform="scale(0.015625)"/>
       </defs>
       <use xlink:href="#DejaVuSans-30"/>
      </g>
     </g>
    </g>
    <g id="xtick_2">
     <g id="line2d_2">
      <g>
       <use xlink:href="#m1c5feb15fb" x="111.820439" y="288.430125" style="stroke: #000000; stroke-width: 0.8"/>
      </g>
     </g>
     <g id="text_2">
      <!-- 500  -->
      <g transform="translate(100.687627 303.028562) scale(0.1 -0.1)">
       <defs>
        <path id="DejaVuSans-35" d="M 691 4666 
L 3169 4666 
L 3169 4134 
L 1269 4134 
L 1269 2991 
Q 1406 3038 1543 3061 
Q 1681 3084 1819 3084 
Q 2600 3084 3056 2656 
Q 3513 2228 3513 1497 
Q 3513 744 3044 326 
Q 2575 -91 1722 -91 
Q 1428 -91 1123 -41 
Q 819 9 494 109 
L 494 744 
Q 775 591 1075 516 
Q 1375 441 1709 441 
Q 2250 441 2565 725 
Q 2881 1009 2881 1497 
Q 2881 1984 2565 2268 
Q 2250 2553 1709 2553 
Q 1456 2553 1204 2497 
Q 953 2441 691 2322 
L 691 4666 
z
" transform="scale(0.015625)"/>
        <path id="DejaVuSans-20" transform="scale(0.015625)"/>
       </defs>
       <use xlink:href="#DejaVuSans-35"/>
       <use xlink:href="#DejaVuSans-30" transform="translate(63.623047 0)"/>
       <use xlink:href="#DejaVuSans-30" transform="translate(127.246094 0)"/>
       <use xlink:href="#DejaVuSans-20" transform="translate(190.869141 0)"/>
      </g>
     </g>
    </g>
    <g id="xtick_3">
     <g id="line2d_3">
      <g>
       <use xlink:href="#m1c5feb15fb" x="155.369003" y="288.430125" style="stroke: #000000; stroke-width: 0.8"/>
      </g>
     </g>
     <g id="text_3">
      <!-- 1 k -->
      <g transform="translate(147.703378 303.028562) scale(0.1 -0.1)">
       <defs>
        <path id="DejaVuSans-31" d="M 794 531 
L 1825 531 
L 1825 4091 
L 703 3866 
L 703 4441 
L 1819 4666 
L 2450 4666 
L 2450 531 
L 3481 531 
L 3481 0 
L 794 0 
L 794 531 
z
" transform="scale(0.015625)"/>
        <path id="DejaVuSans-6b" d="M 581 4863 
L 1159 4863 
L 1159 1991 
L 2875 3500 
L 3609 3500 
L 1753 1863 
L 3688 0 
L 2938 0 
L 1159 1709 
L 1159 0 
L 581 0 
L 581 4863 
z
" transform="scale(0.015625)"/>
       </defs>
       <use xlink:href="#DejaVuSans-31"/>
       <use xlink:href="#DejaVuSans-20" transform="translate(63.623047 0)"/>
       <use xlink:href="#DejaVuSans-6b" transform="translate(95.410156 0)"/>
      </g>
     </g>
    </g>
    <g id="xtick_4">
     <g id="line2d_4">
      <g>
       <use xlink:href="#m1c5feb15fb" x="198.917567" y="288.430125" style="stroke: #000000; stroke-width: 0.8"/>
      </g>
     </g>
     <g id="text_4">
      <!-- 1.5 k -->
      <g transform="translate(186.48163 303.028562) scale(0.1 -0.1)">
       <defs>
        <path id="DejaVuSans-2e" d="M 684 794 
L 1344 794 
L 1344 0 
L 684 0 
L 684 794 
z
" transform="scale(0.015625)"/>
       </defs>
       <use xlink:href="#DejaVuSans-31"/>
       <use xlink:href="#DejaVuSans-2e" transform="translate(63.623047 0)"/>
       <use xlink:href="#DejaVuSans-35" transform="translate(95.410156 0)"/>
       <use xlink:href="#DejaVuSans-20" transform="translate(159.033203 0)"/>
       <use xlink:href="#DejaVuSans-6b" transform="translate(190.820312 0)"/>
      </g>
     </g>
    </g>
    <g id="xtick_5">
     <g id="line2d_5">
      <g>
       <use xlink:href="#m1c5feb15fb" x="242.466131" y="288.430125" style="stroke: #000000; stroke-width: 0.8"/>
      </g>
     </g>
     <g id="text_5">
      <!-- 2 k -->
      <g transform="translate(234.800506 303.028562) scale(0.1 -0.1)">
       <defs>
        <path id="DejaVuSans-32" d="M 1228 531 
L 3431 531 
L 3431 0 
L 469 0 
L 469 531 
Q 828 903 1448 1529 
Q 2069 2156 2228 2338 
Q 2531 2678 2651 2914 
Q 2772 3150 2772 3378 
Q 2772 3750 2511 3984 
Q 2250 4219 1831 4219 
Q 1534 4219 1204 4116 
Q 875 4013 500 3803 
L 500 4441 
Q 881 4594 1212 4672 
Q 1544 4750 1819 4750 
Q 2544 4750 2975 4387 
Q 3406 4025 3406 3419 
Q 3406 3131 3298 2873 
Q 3191 2616 2906 2266 
Q 2828 2175 2409 1742 
Q 1991 1309 1228 531 
z
" transform="scale(0.015625)"/>
       </defs>
       <use xlink:href="#DejaVuSans-32"/>
       <use xlink:href="#DejaVuSans-20" transform="translate(63.623047 0)"/>
       <use xlink:href="#DejaVuSans-6b" transform="translate(95.410156 0)"/>
      </g>
     </g>
    </g>
    <g id="xtick_6">
     <g id="line2d_6">
      <g>
       <use xlink:href="#m1c5feb15fb" x="286.014696" y="288.430125" style="stroke: #000000; stroke-width: 0.8"/>
      </g>
     </g>
     <g id="text_6">
      <!-- 2.5 k -->
      <g transform="translate(273.578758 303.028562) scale(0.1 -0.1)">
       <use xlink:href="#DejaVuSans-32"/>
       <use xlink:href="#DejaVuSans-2e" transform="translate(63.623047 0)"/>
       <use xlink:href="#DejaVuSans-35" transform="translate(95.410156 0)"/>
       <use xlink:href="#DejaVuSans-20" transform="translate(159.033203 0)"/>
       <use xlink:href="#DejaVuSans-6b" transform="translate(190.820312 0)"/>
      </g>
     </g>
    </g>
    <g id="xtick_7">
     <g id="line2d_7">
      <g>
       <use xlink:href="#m1c5feb15fb" x="329.56326" y="288.430125" style="stroke: #000000; stroke-width: 0.8"/>
      </g>
     </g>
     <g id="text_7">
      <!-- 3 k -->
      <g transform="translate(321.897635 303.028562) scale(0.1 -0.1)">
       <defs>
        <path id="DejaVuSans-33" d="M 2597 2516 
Q 3050 2419 3304 2112 
Q 3559 1806 3559 1356 
Q 3559 666 3084 287 
Q 2609 -91 1734 -91 
Q 1441 -91 1130 -33 
Q 819 25 488 141 
L 488 750 
Q 750 597 1062 519 
Q 1375 441 1716 441 
Q 2309 441 2620 675 
Q 2931 909 2931 1356 
Q 2931 1769 2642 2001 
Q 2353 2234 1838 2234 
L 1294 2234 
L 1294 2753 
L 1863 2753 
Q 2328 2753 2575 2939 
Q 2822 3125 2822 3475 
Q 2822 3834 2567 4026 
Q 2313 4219 1838 4219 
Q 1578 4219 1281 4162 
Q 984 4106 628 3988 
L 628 4550 
Q 988 4650 1302 4700 
Q 1616 4750 1894 4750 
Q 2613 4750 3031 4423 
Q 3450 4097 3450 3541 
Q 3450 3153 3228 2886 
Q 3006 2619 2597 2516 
z
" transform="scale(0.015625)"/>
       </defs>
       <use xlink:href="#DejaVuSans-33"/>
       <use xlink:href="#DejaVuSans-20" transform="translate(63.623047 0)"/>
       <use xlink:href="#DejaVuSans-6b" transform="translate(95.410156 0)"/>
      </g>
     </g>
    </g>
    <g id="xtick_8">
     <g id="line2d_8">
      <g>
       <use xlink:href="#m1c5feb15fb" x="373.111824" y="288.430125" style="stroke: #000000; stroke-width: 0.8"/>
      </g>
     </g>
     <g id="text_8">
      <!-- 3.5 k -->
      <g transform="translate(360.675886 303.028562) scale(0.1 -0.1)">
       <use xlink:href="#DejaVuSans-33"/>
       <use xlink:href="#DejaVuSans-2e" transform="translate(63.623047 0)"/>
       <use xlink:href="#DejaVuSans-35" transform="translate(95.410156 0)"/>
       <use xlink:href="#DejaVuSans-20" transform="translate(159.033203 0)"/>
       <use xlink:href="#DejaVuSans-6b" transform="translate(190.820312 0)"/>
      </g>
     </g>
    </g>
    <g id="xtick_9">
     <g id="line2d_9">
      <g>
       <use xlink:href="#m1c5feb15fb" x="416.660388" y="288.430125" style="stroke: #000000; stroke-width: 0.8"/>
      </g>
     </g>
     <g id="text_9">
      <!-- 4 k -->
      <g transform="translate(408.994763 303.028562) scale(0.1 -0.1)">
       <defs>
        <path id="DejaVuSans-34" d="M 2419 4116 
L 825 1625 
L 2419 1625 
L 2419 4116 
z
M 2253 4666 
L 3047 4666 
L 3047 1625 
L 3713 1625 
L 3713 1100 
L 3047 1100 
L 3047 0 
L 2419 0 
L 2419 1100 
L 313 1100 
L 313 1709 
L 2253 4666 
z
" transform="scale(0.015625)"/>
       </defs>
       <use xlink:href="#DejaVuSans-34"/>
       <use xlink:href="#DejaVuSans-20" transform="translate(63.623047 0)"/>
       <use xlink:href="#DejaVuSans-6b" transform="translate(95.410156 0)"/>
      </g>
     </g>
    </g>
    <g id="text_10">
     <!-- Amount of objects in table -->
     <g transform="translate(180.773281 316.706687) scale(0.1 -0.1)">
      <defs>
       <path id="DejaVuSans-41" d="M 2188 4044 
L 1331 1722 
L 3047 1722 
L 2188 4044 
z
M 1831 4666 
L 2547 4666 
L 4325 0 
L 3669 0 
L 3244 1197 
L 1141 1197 
L 716 0 
L 50 0 
L 1831 4666 
z
" transform="scale(0.015625)"/>
       <path id="DejaVuSans-6d" d="M 3328 2828 
Q 3544 3216 3844 3400 
Q 4144 3584 4550 3584 
Q 5097 3584 5394 3201 
Q 5691 2819 5691 2113 
L 5691 0 
L 5113 0 
L 5113 2094 
Q 5113 2597 4934 2840 
Q 4756 3084 4391 3084 
Q 3944 3084 3684 2787 
Q 3425 2491 3425 1978 
L 3425 0 
L 2847 0 
L 2847 2094 
Q 2847 2600 2669 2842 
Q 2491 3084 2119 3084 
Q 1678 3084 1418 2786 
Q 1159 2488 1159 1978 
L 1159 0 
L 581 0 
L 581 3500 
L 1159 3500 
L 1159 2956 
Q 1356 3278 1631 3431 
Q 1906 3584 2284 3584 
Q 2666 3584 2933 3390 
Q 3200 3197 3328 2828 
z
" transform="scale(0.015625)"/>
       <path id="DejaVuSans-6f" d="M 1959 3097 
Q 1497 3097 1228 2736 
Q 959 2375 959 1747 
Q 959 1119 1226 758 
Q 1494 397 1959 397 
Q 2419 397 2687 759 
Q 2956 1122 2956 1747 
Q 2956 2369 2687 2733 
Q 2419 3097 1959 3097 
z
M 1959 3584 
Q 2709 3584 3137 3096 
Q 3566 2609 3566 1747 
Q 3566 888 3137 398 
Q 2709 -91 1959 -91 
Q 1206 -91 779 398 
Q 353 888 353 1747 
Q 353 2609 779 3096 
Q 1206 3584 1959 3584 
z
" transform="scale(0.015625)"/>
       <path id="DejaVuSans-75" d="M 544 1381 
L 544 3500 
L 1119 3500 
L 1119 1403 
Q 1119 906 1312 657 
Q 1506 409 1894 409 
Q 2359 409 2629 706 
Q 2900 1003 2900 1516 
L 2900 3500 
L 3475 3500 
L 3475 0 
L 2900 0 
L 2900 538 
Q 2691 219 2414 64 
Q 2138 -91 1772 -91 
Q 1169 -91 856 284 
Q 544 659 544 1381 
z
M 1991 3584 
L 1991 3584 
z
" transform="scale(0.015625)"/>
       <path id="DejaVuSans-6e" d="M 3513 2113 
L 3513 0 
L 2938 0 
L 2938 2094 
Q 2938 2591 2744 2837 
Q 2550 3084 2163 3084 
Q 1697 3084 1428 2787 
Q 1159 2491 1159 1978 
L 1159 0 
L 581 0 
L 581 3500 
L 1159 3500 
L 1159 2956 
Q 1366 3272 1645 3428 
Q 1925 3584 2291 3584 
Q 2894 3584 3203 3211 
Q 3513 2838 3513 2113 
z
" transform="scale(0.015625)"/>
       <path id="DejaVuSans-74" d="M 1172 4494 
L 1172 3500 
L 2356 3500 
L 2356 3053 
L 1172 3053 
L 1172 1153 
Q 1172 725 1289 603 
Q 1406 481 1766 481 
L 2356 481 
L 2356 0 
L 1766 0 
Q 1100 0 847 248 
Q 594 497 594 1153 
L 594 3053 
L 172 3053 
L 172 3500 
L 594 3500 
L 594 4494 
L 1172 4494 
z
" transform="scale(0.015625)"/>
       <path id="DejaVuSans-66" d="M 2375 4863 
L 2375 4384 
L 1825 4384 
Q 1516 4384 1395 4259 
Q 1275 4134 1275 3809 
L 1275 3500 
L 2222 3500 
L 2222 3053 
L 1275 3053 
L 1275 0 
L 697 0 
L 697 3053 
L 147 3053 
L 147 3500 
L 697 3500 
L 697 3744 
Q 697 4328 969 4595 
Q 1241 4863 1831 4863 
L 2375 4863 
z
" transform="scale(0.015625)"/>
       <path id="DejaVuSans-62" d="M 3116 1747 
Q 3116 2381 2855 2742 
Q 2594 3103 2138 3103 
Q 1681 3103 1420 2742 
Q 1159 2381 1159 1747 
Q 1159 1113 1420 752 
Q 1681 391 2138 391 
Q 2594 391 2855 752 
Q 3116 1113 3116 1747 
z
M 1159 2969 
Q 1341 3281 1617 3432 
Q 1894 3584 2278 3584 
Q 2916 3584 3314 3078 
Q 3713 2572 3713 1747 
Q 3713 922 3314 415 
Q 2916 -91 2278 -91 
Q 1894 -91 1617 61 
Q 1341 213 1159 525 
L 1159 0 
L 581 0 
L 581 4863 
L 1159 4863 
L 1159 2969 
z
" transform="scale(0.015625)"/>
       <path id="DejaVuSans-6a" d="M 603 3500 
L 1178 3500 
L 1178 -63 
Q 1178 -731 923 -1031 
Q 669 -1331 103 -1331 
L -116 -1331 
L -116 -844 
L 38 -844 
Q 366 -844 484 -692 
Q 603 -541 603 -63 
L 603 3500 
z
M 603 4863 
L 1178 4863 
L 1178 4134 
L 603 4134 
L 603 4863 
z
" transform="scale(0.015625)"/>
       <path id="DejaVuSans-65" d="M 3597 1894 
L 3597 1613 
L 953 1613 
Q 991 1019 1311 708 
Q 1631 397 2203 397 
Q 2534 397 2845 478 
Q 3156 559 3463 722 
L 3463 178 
Q 3153 47 2828 -22 
Q 2503 -91 2169 -91 
Q 1331 -91 842 396 
Q 353 884 353 1716 
Q 353 2575 817 3079 
Q 1281 3584 2069 3584 
Q 2775 3584 3186 3129 
Q 3597 2675 3597 1894 
z
M 3022 2063 
Q 3016 2534 2758 2815 
Q 2500 3097 2075 3097 
Q 1594 3097 1305 2825 
Q 1016 2553 972 2059 
L 3022 2063 
z
" transform="scale(0.015625)"/>
       <path id="DejaVuSans-63" d="M 3122 3366 
L 3122 2828 
Q 2878 2963 2633 3030 
Q 2388 3097 2138 3097 
Q 1578 3097 1268 2742 
Q 959 2388 959 1747 
Q 959 1106 1268 751 
Q 1578 397 2138 397 
Q 2388 397 2633 464 
Q 2878 531 3122 666 
L 3122 134 
Q 2881 22 2623 -34 
Q 2366 -91 2075 -91 
Q 1284 -91 818 406 
Q 353 903 353 1747 
Q 353 2603 823 3093 
Q 1294 3584 2113 3584 
Q 2378 3584 2631 3529 
Q 2884 3475 3122 3366 
z
" transform="scale(0.015625)"/>
       <path id="DejaVuSans-73" d="M 2834 3397 
L 2834 2853 
Q 2591 2978 2328 3040 
Q 2066 3103 1784 3103 
Q 1356 3103 1142 2972 
Q 928 2841 928 2578 
Q 928 2378 1081 2264 
Q 1234 2150 1697 2047 
L 1894 2003 
Q 2506 1872 2764 1633 
Q 3022 1394 3022 966 
Q 3022 478 2636 193 
Q 2250 -91 1575 -91 
Q 1294 -91 989 -36 
Q 684 19 347 128 
L 347 722 
Q 666 556 975 473 
Q 1284 391 1588 391 
Q 1994 391 2212 530 
Q 2431 669 2431 922 
Q 2431 1156 2273 1281 
Q 2116 1406 1581 1522 
L 1381 1569 
Q 847 1681 609 1914 
Q 372 2147 372 2553 
Q 372 3047 722 3315 
Q 1072 3584 1716 3584 
Q 2034 3584 2315 3537 
Q 2597 3491 2834 3397 
z
" transform="scale(0.015625)"/>
       <path id="DejaVuSans-69" d="M 603 3500 
L 1178 3500 
L 1178 0 
L 603 0 
L 603 3500 
z
M 603 4863 
L 1178 4863 
L 1178 4134 
L 603 4134 
L 603 4863 
z
" transform="scale(0.015625)"/>
       <path id="DejaVuSans-61" d="M 2194 1759 
Q 1497 1759 1228 1600 
Q 959 1441 959 1056 
Q 959 750 1161 570 
Q 1363 391 1709 391 
Q 2188 391 2477 730 
Q 2766 1069 2766 1631 
L 2766 1759 
L 2194 1759 
z
M 3341 1997 
L 3341 0 
L 2766 0 
L 2766 531 
Q 2569 213 2275 61 
Q 1981 -91 1556 -91 
Q 1019 -91 701 211 
Q 384 513 384 1019 
Q 384 1609 779 1909 
Q 1175 2209 1959 2209 
L 2766 2209 
L 2766 2266 
Q 2766 2663 2505 2880 
Q 2244 3097 1772 3097 
Q 1472 3097 1187 3025 
Q 903 2953 641 2809 
L 641 3341 
Q 956 3463 1253 3523 
Q 1550 3584 1831 3584 
Q 2591 3584 2966 3190 
Q 3341 2797 3341 1997 
z
" transform="scale(0.015625)"/>
       <path id="DejaVuSans-6c" d="M 603 4863 
L 1178 4863 
L 1178 0 
L 603 0 
L 603 4863 
z
" transform="scale(0.015625)"/>
      </defs>
      <use xlink:href="#DejaVuSans-41"/>
      <use xlink:href="#DejaVuSans-6d" transform="translate(68.408203 0)"/>
      <use xlink:href="#DejaVuSans-6f" transform="translate(165.820312 0)"/>
      <use xlink:href="#DejaVuSans-75" transform="translate(227.001953 0)"/>
      <use xlink:href="#DejaVuSans-6e" transform="translate(290.380859 0)"/>
      <use xlink:href="#DejaVuSans-74" transform="translate(353.759766 0)"/>
      <use xlink:href="#DejaVuSans-20" transform="translate(392.96875 0)"/>
      <use xlink:href="#DejaVuSans-6f" transform="translate(424.755859 0)"/>
      <use xlink:href="#DejaVuSans-66" transform="translate(485.9375 0)"/>
      <use xlink:href="#DejaVuSans-20" transform="translate(521.142578 0)"/>
      <use xlink:href="#DejaVuSans-6f" transform="translate(552.929688 0)"/>
      <use xlink:href="#DejaVuSans-62" transform="translate(614.111328 0)"/>
      <use xlink:href="#DejaVuSans-6a" transform="translate(677.587891 0)"/>
      <use xlink:href="#DejaVuSans-65" transform="translate(705.371094 0)"/>
      <use xlink:href="#DejaVuSans-63" transform="translate(766.894531 0)"/>
      <use xlink:href="#DejaVuSans-74" transform="translate(821.875 0)"/>
      <use xlink:href="#DejaVuSans-73" transform="translate(861.083984 0)"/>
      <use xlink:href="#DejaVuSans-20" transform="translate(913.183594 0)"/>
      <use xlink:href="#DejaVuSans-69" transform="translate(944.970703 0)"/>
      <use xlink:href="#DejaVuSans-6e" transform="translate(972.753906 0)"/>
      <use xlink:href="#DejaVuSans-20" transform="translate(1036.132812 0)"/>
      <use xlink:href="#DejaVuSans-74" transform="translate(1067.919922 0)"/>
      <use xlink:href="#DejaVuSans-61" transform="translate(1107.128906 0)"/>
      <use xlink:href="#DejaVuSans-62" transform="translate(1168.408203 0)"/>
      <use xlink:href="#DejaVuSans-6c" transform="translate(1231.884766 0)"/>
      <use xlink:href="#DejaVuSans-65" transform="translate(1259.667969 0)"/>
     </g>
    </g>
   </g>
   <g id="matplotlib.axis_2">
    <g id="ytick_1">
     <g id="line2d_10">
      <defs>
       <path id="m37eaae757f" d="M 0 0 
L -3.5 0 
" style="stroke: #000000; stroke-width: 0.8"/>
      </defs>
      <g>
       <use xlink:href="#m37eaae757f" x="68.271875" y="288.430125" style="stroke: #000000; stroke-width: 0.8"/>
      </g>
     </g>
     <g id="text_11">
      <!-- 0 -->
      <g transform="translate(54.909375 292.229344) scale(0.1 -0.1)">
       <use xlink:href="#DejaVuSans-30"/>
      </g>
     </g>
    </g>
    <g id="ytick_2">
     <g id="line2d_11">
      <g>
       <use xlink:href="#m37eaae757f" x="68.271875" y="258.178727" style="stroke: #000000; stroke-width: 0.8"/>
      </g>
     </g>
     <g id="text_12">
      <!-- 2.5 ms -->
      <g transform="translate(27.240625 261.977946) scale(0.1 -0.1)">
       <use xlink:href="#DejaVuSans-32"/>
       <use xlink:href="#DejaVuSans-2e" transform="translate(63.623047 0)"/>
       <use xlink:href="#DejaVuSans-35" transform="translate(95.410156 0)"/>
       <use xlink:href="#DejaVuSans-20" transform="translate(159.033203 0)"/>
       <use xlink:href="#DejaVuSans-6d" transform="translate(190.820312 0)"/>
       <use xlink:href="#DejaVuSans-73" transform="translate(288.232422 0)"/>
      </g>
     </g>
    </g>
    <g id="ytick_3">
     <g id="line2d_12">
      <g>
       <use xlink:href="#m37eaae757f" x="68.271875" y="227.927329" style="stroke: #000000; stroke-width: 0.8"/>
      </g>
     </g>
     <g id="text_13">
      <!-- 5 ms -->
      <g transform="translate(36.78125 231.726548) scale(0.1 -0.1)">
       <use xlink:href="#DejaVuSans-35"/>
       <use xlink:href="#DejaVuSans-20" transform="translate(63.623047 0)"/>
       <use xlink:href="#DejaVuSans-6d" transform="translate(95.410156 0)"/>
       <use xlink:href="#DejaVuSans-73" transform="translate(192.822266 0)"/>
      </g>
     </g>
    </g>
    <g id="ytick_4">
     <g id="line2d_13">
      <g>
       <use xlink:href="#m37eaae757f" x="68.271875" y="197.675931" style="stroke: #000000; stroke-width: 0.8"/>
      </g>
     </g>
     <g id="text_14">
      <!-- 7.5 ms -->
      <g transform="translate(27.240625 201.475149) scale(0.1 -0.1)">
       <defs>
        <path id="DejaVuSans-37" d="M 525 4666 
L 3525 4666 
L 3525 4397 
L 1831 0 
L 1172 0 
L 2766 4134 
L 525 4134 
L 525 4666 
z
" transform="scale(0.015625)"/>
       </defs>
       <use xlink:href="#DejaVuSans-37"/>
       <use xlink:href="#DejaVuSans-2e" transform="translate(63.623047 0)"/>
       <use xlink:href="#DejaVuSans-35" transform="translate(95.410156 0)"/>
       <use xlink:href="#DejaVuSans-20" transform="translate(159.033203 0)"/>
       <use xlink:href="#DejaVuSans-6d" transform="translate(190.820312 0)"/>
       <use xlink:href="#DejaVuSans-73" transform="translate(288.232422 0)"/>
      </g>
     </g>
    </g>
    <g id="ytick_5">
     <g id="line2d_14">
      <g>
       <use xlink:href="#m37eaae757f" x="68.271875" y="167.424533" style="stroke: #000000; stroke-width: 0.8"/>
      </g>
     </g>
     <g id="text_15">
      <!-- 10 ms -->
      <g transform="translate(30.41875 171.223751) scale(0.1 -0.1)">
       <use xlink:href="#DejaVuSans-31"/>
       <use xlink:href="#DejaVuSans-30" transform="translate(63.623047 0)"/>
       <use xlink:href="#DejaVuSans-20" transform="translate(127.246094 0)"/>
       <use xlink:href="#DejaVuSans-6d" transform="translate(159.033203 0)"/>
       <use xlink:href="#DejaVuSans-73" transform="translate(256.445312 0)"/>
      </g>
     </g>
    </g>
    <g id="ytick_6">
     <g id="line2d_15">
      <g>
       <use xlink:href="#m37eaae757f" x="68.271875" y="137.173134" style="stroke: #000000; stroke-width: 0.8"/>
      </g>
     </g>
     <g id="text_16">
      <!-- 12.5 ms -->
      <g transform="translate(20.878125 140.972353) scale(0.1 -0.1)">
       <use xlink:href="#DejaVuSans-31"/>
       <use xlink:href="#DejaVuSans-32" transform="translate(63.623047 0)"/>
       <use xlink:href="#DejaVuSans-2e" transform="translate(127.246094 0)"/>
       <use xlink:href="#DejaVuSans-35" transform="translate(159.033203 0)"/>
       <use xlink:href="#DejaVuSans-20" transform="translate(222.65625 0)"/>
       <use xlink:href="#DejaVuSans-6d" transform="translate(254.443359 0)"/>
       <use xlink:href="#DejaVuSans-73" transform="translate(351.855469 0)"/>
      </g>
     </g>
    </g>
    <g id="ytick_7">
     <g id="line2d_16">
      <g>
       <use xlink:href="#m37eaae757f" x="68.271875" y="106.921736" style="stroke: #000000; stroke-width: 0.8"/>
      </g>
     </g>
     <g id="text_17">
      <!-- 15 ms -->
      <g transform="translate(30.41875 110.720955) scale(0.1 -0.1)">
       <use xlink:href="#DejaVuSans-31"/>
       <use xlink:href="#DejaVuSans-35" transform="translate(63.623047 0)"/>
       <use xlink:href="#DejaVuSans-20" transform="translate(127.246094 0)"/>
       <use xlink:href="#DejaVuSans-6d" transform="translate(159.033203 0)"/>
       <use xlink:href="#DejaVuSans-73" transform="translate(256.445312 0)"/>
      </g>
     </g>
    </g>
    <g id="ytick_8">
     <g id="line2d_17">
      <g>
       <use xlink:href="#m37eaae757f" x="68.271875" y="76.670338" style="stroke: #000000; stroke-width: 0.8"/>
      </g>
     </g>
     <g id="text_18">
      <!-- 17.5 ms -->
      <g transform="translate(20.878125 80.469557) scale(0.1 -0.1)">
       <use xlink:href="#DejaVuSans-31"/>
       <use xlink:href="#DejaVuSans-37" transform="translate(63.623047 0)"/>
       <use xlink:href="#DejaVuSans-2e" transform="translate(127.246094 0)"/>
       <use xlink:href="#DejaVuSans-35" transform="translate(159.033203 0)"/>
       <use xlink:href="#DejaVuSans-20" transform="translate(222.65625 0)"/>
       <use xlink:href="#DejaVuSans-6d" transform="translate(254.443359 0)"/>
       <use xlink:href="#DejaVuSans-73" transform="translate(351.855469 0)"/>
      </g>
     </g>
    </g>
    <g id="ytick_9">
     <g id="line2d_18">
      <g>
       <use xlink:href="#m37eaae757f" x="68.271875" y="46.41894" style="stroke: #000000; stroke-width: 0.8"/>
      </g>
     </g>
     <g id="text_19">
      <!-- 20 ms -->
      <g transform="translate(30.41875 50.218159) scale(0.1 -0.1)">
       <use xlink:href="#DejaVuSans-32"/>
       <use xlink:href="#DejaVuSans-30" transform="translate(63.623047 0)"/>
       <use xlink:href="#DejaVuSans-20" transform="translate(127.246094 0)"/>
       <use xlink:href="#DejaVuSans-6d" transform="translate(159.033203 0)"/>
       <use xlink:href="#DejaVuSans-73" transform="translate(256.445312 0)"/>
      </g>
     </g>
    </g>
    <g id="text_20">
     <!-- Write latency (s) -->
     <g transform="translate(14.798438 196.625687) rotate(-90) scale(0.1 -0.1)">
      <defs>
       <path id="DejaVuSans-57" d="M 213 4666 
L 850 4666 
L 1831 722 
L 2809 4666 
L 3519 4666 
L 4500 722 
L 5478 4666 
L 6119 4666 
L 4947 0 
L 4153 0 
L 3169 4050 
L 2175 0 
L 1381 0 
L 213 4666 
z
" transform="scale(0.015625)"/>
       <path id="DejaVuSans-72" d="M 2631 2963 
Q 2534 3019 2420 3045 
Q 2306 3072 2169 3072 
Q 1681 3072 1420 2755 
Q 1159 2438 1159 1844 
L 1159 0 
L 581 0 
L 581 3500 
L 1159 3500 
L 1159 2956 
Q 1341 3275 1631 3429 
Q 1922 3584 2338 3584 
Q 2397 3584 2469 3576 
Q 2541 3569 2628 3553 
L 2631 2963 
z
" transform="scale(0.015625)"/>
       <path id="DejaVuSans-79" d="M 2059 -325 
Q 1816 -950 1584 -1140 
Q 1353 -1331 966 -1331 
L 506 -1331 
L 506 -850 
L 844 -850 
Q 1081 -850 1212 -737 
Q 1344 -625 1503 -206 
L 1606 56 
L 191 3500 
L 800 3500 
L 1894 763 
L 2988 3500 
L 3597 3500 
L 2059 -325 
z
" transform="scale(0.015625)"/>
       <path id="DejaVuSans-28" d="M 1984 4856 
Q 1566 4138 1362 3434 
Q 1159 2731 1159 2009 
Q 1159 1288 1364 580 
Q 1569 -128 1984 -844 
L 1484 -844 
Q 1016 -109 783 600 
Q 550 1309 550 2009 
Q 550 2706 781 3412 
Q 1013 4119 1484 4856 
L 1984 4856 
z
" transform="scale(0.015625)"/>
       <path id="DejaVuSans-29" d="M 513 4856 
L 1013 4856 
Q 1481 4119 1714 3412 
Q 1947 2706 1947 2009 
Q 1947 1309 1714 600 
Q 1481 -109 1013 -844 
L 513 -844 
Q 928 -128 1133 580 
Q 1338 1288 1338 2009 
Q 1338 2731 1133 3434 
Q 928 4138 513 4856 
z
" transform="scale(0.015625)"/>
      </defs>
      <use xlink:href="#DejaVuSans-57"/>
      <use xlink:href="#DejaVuSans-72" transform="translate(94.376953 0)"/>
      <use xlink:href="#DejaVuSans-69" transform="translate(135.490234 0)"/>
      <use xlink:href="#DejaVuSans-74" transform="translate(163.273438 0)"/>
      <use xlink:href="#DejaVuSans-65" transform="translate(202.482422 0)"/>
      <use xlink:href="#DejaVuSans-20" transform="translate(264.005859 0)"/>
      <use xlink:href="#DejaVuSans-6c" transform="translate(295.792969 0)"/>
      <use xlink:href="#DejaVuSans-61" transform="translate(323.576172 0)"/>
      <use xlink:href="#DejaVuSans-74" transform="translate(384.855469 0)"/>
      <use xlink:href="#DejaVuSans-65" transform="translate(424.064453 0)"/>
      <use xlink:href="#DejaVuSans-6e" transform="translate(485.587891 0)"/>
      <use xlink:href="#DejaVuSans-63" transform="translate(548.966797 0)"/>
      <use xlink:href="#DejaVuSans-79" transform="translate(603.947266 0)"/>
      <use xlink:href="#DejaVuSans-20" transform="translate(663.126953 0)"/>
      <use xlink:href="#DejaVuSans-28" transform="translate(694.914062 0)"/>
      <use xlink:href="#DejaVuSans-73" transform="translate(733.927734 0)"/>
      <use xlink:href="#DejaVuSans-29" transform="translate(786.027344 0)"/>
     </g>
    </g>
   </g>
   <g id="line2d_19">
    <path d="M 221.562821 111.892709 
L 221.998306 110.912861 
L 225.046706 106.019194 
L 226.353163 103.517323 
L 226.788648 99.769459 
L 229.401562 95.369082 
L 230.708019 92.864416 
L 231.143505 92.258699 
L 232.014476 90.672276 
L 232.885447 89.226877 
L 234.62739 86.385805 
L 235.062876 85.957878 
L 235.498361 84.955837 
L 236.369332 83.836221 
L 236.804818 83.389978 
L 239.417732 79.458421 
L 240.288703 78.158663 
L 240.724189 77.274152 
L 241.159675 76.645015 
L 241.59516 73.905954 
L 242.466131 72.794786 
L 242.901617 72.054066 
L 244.64356 69.992106 
L 245.079045 69.042853 
L 245.950017 67.69976 
L 246.820988 66.454758 
L 248.998416 63.959989 
L 249.433902 63.154187 
L 249.869387 62.608523 
L 250.304873 61.828331 
L 251.175844 60.95718 
L 251.61133 60.458489 
L 252.482301 59.105469 
L 253.788758 57.145964 
L 254.224244 56.626102 
L 254.659729 56.284651 
L 255.530701 55.11926 
L 259.014586 51.455372 
L 259.885557 50.430946 
L 260.756528 49.513857 
L 261.192014 49.304909 
L 262.062985 48.254681 
L 262.498471 47.907993 
L 265.111385 44.820941 
L 265.982356 43.837734 
L 266.417842 43.236145 
L 266.853327 42.917419 
L 267.724299 42.031044 
L 268.59527 41.238868 
L 269.466241 40.363441 
L 269.901727 39.983169 
L 270.337212 39.22508 
L 270.772698 38.905748 
L 271.643669 37.936507 
L 272.514641 37.109829 
L 272.950126 37.134714 
L 274.256583 36.707054 
L 274.692069 36.470055 
L 275.127555 36.407769 
L 275.56304 36.486063 
L 275.998526 36.347938 
L 276.434011 36.339135 
L 276.869497 36.033207 
L 277.304983 36.006517 
L 278.175954 35.783825 
L 278.61144 35.848257 
L 279.482411 35.537609 
L 279.917897 35.474509 
L 281.224354 35.555496 
L 282.095325 35.384541 
L 283.401782 35.24797 
L 283.837267 35.345764 
L 285.57921 34.990125 
L 286.014696 35.15602 
L 289.498581 35.049689 
L 290.369552 35.704273 
L 290.805038 35.782952 
L 291.240523 35.664327 
L 292.111495 36.110939 
L 292.982466 36.963982 
L 293.417951 36.994148 
L 294.288923 37.693087 
L 294.724408 37.988866 
L 295.59538 38.286657 
L 297.772808 40.402677 
L 298.208294 41.049479 
L 298.643779 41.348128 
L 299.079265 41.347137 
L 299.51475 41.771572 
L 299.950236 41.945293 
L 301.692179 43.364653 
L 302.56315 44.054138 
L 303.434121 44.756953 
L 304.305092 44.957572 
L 304.740578 45.486266 
L 305.611549 45.951017 
L 306.047035 46.226113 
L 307.353492 47.461661 
L 307.788978 47.560269 
L 309.966406 48.932729 
L 310.837377 49.69317 
L 311.272863 50.099201 
L 311.708348 53.187598 
L 312.57932 53.837463 
L 313.014805 54.305365 
L 314.756748 55.567796 
L 315.192234 56.213532 
L 315.627719 56.521561 
L 316.49869 57.391292 
L 317.805147 58.459304 
L 318.240633 58.789096 
L 319.111604 59.639164 
L 319.982576 60.008489 
L 320.418061 60.672674 
L 321.289032 61.077403 
L 322.160004 61.790678 
L 322.595489 62.243534 
L 323.030975 62.457763 
L 323.901946 63.104965 
L 324.772918 63.228516 
L 325.208403 63.676993 
L 325.643889 63.840461 
L 326.079375 64.129168 
L 326.51486 66.55486 
L 327.385831 67.038978 
L 328.256803 67.69655 
L 329.127774 67.955283 
L 329.56326 68.317564 
L 329.998745 69.066184 
L 330.434231 69.294765 
L 331.305202 70.152763 
L 331.740688 70.405696 
L 332.176174 70.455378 
L 332.611659 70.631037 
L 333.48263 71.225805 
L 333.918116 71.413966 
L 334.353602 72.023589 
L 334.789087 72.287307 
L 335.224573 72.725516 
L 335.660059 72.898246 
L 336.53103 72.959512 
L 336.966516 73.394658 
L 337.837487 73.696311 
L 338.272972 73.876734 
L 338.708458 74.244164 
L 339.579429 74.797167 
L 340.450401 75.39769 
L 340.885886 75.43342 
L 341.321372 75.628712 
L 341.756858 75.638166 
L 342.192343 75.799652 
L 342.627829 75.663569 
L 343.063315 75.662326 
L 343.4988 75.274035 
L 344.369771 75.340967 
L 344.805257 75.172645 
L 345.240743 75.245185 
L 346.111714 74.919076 
L 346.5472 75.040808 
L 347.418171 74.600898 
L 348.724628 74.944094 
L 349.160114 75.174362 
L 350.46657 75.39121 
L 350.902056 75.435876 
L 351.337542 75.820098 
L 352.208513 75.930054 
L 352.643999 73.818694 
L 353.079484 73.780271 
L 353.51497 74.010124 
L 353.950456 74.391728 
L 354.385941 73.671485 
L 354.821427 73.722275 
L 355.256912 72.677536 
L 355.692398 72.623609 
L 356.563369 73.003822 
L 356.998855 73.406302 
L 357.434341 73.529824 
L 358.305312 73.093893 
L 358.740798 72.823857 
L 359.176283 72.731626 
L 360.918226 71.774369 
L 361.353711 71.638597 
L 361.789197 71.275442 
L 363.53114 70.674904 
L 364.402111 70.08919 
L 366.144054 69.413568 
L 367.015025 68.961673 
L 367.885996 68.358206 
L 368.321482 67.94173 
L 368.756967 67.808917 
L 369.192453 67.418377 
L 369.627939 67.321545 
L 370.063424 66.953079 
L 371.805367 66.046287 
L 372.240853 65.578769 
L 373.547309 64.807276 
L 373.982795 64.25633 
L 374.418281 63.895809 
L 376.595709 63.103367 
L 377.031195 62.691063 
L 377.902166 62.264394 
L 378.337651 62.259379 
L 378.773137 62.059707 
L 379.644108 61.941985 
L 380.079594 61.718242 
L 380.51508 61.656281 
L 381.386051 60.979964 
L 382.692508 60.333931 
L 383.563479 59.696761 
L 383.998965 59.719501 
L 384.43445 59.51724 
L 385.305422 59.39786 
L 385.740907 59.1923 
L 386.176393 58.861339 
L 387.047364 57.948482 
L 387.918336 57.200897 
L 388.789307 56.767556 
L 389.660278 56.403143 
L 390.966735 55.676997 
L 391.402221 55.223549 
L 391.837706 55.002085 
L 392.273192 54.40884 
L 393.144163 53.765219 
L 395.757077 52.68188 
L 396.628048 52.430782 
L 397.063534 51.957065 
L 398.369991 51.225711 
L 398.805477 50.893596 
L 400.111934 50.434585 
L 400.547419 50.140508 
L 400.982905 49.665889 
L 401.853876 49.30016 
L 402.289362 48.979659 
L 402.724847 48.846135 
L 403.160333 48.412054 
L 403.595819 48.213285 
L 404.031304 47.764453 
L 404.902276 47.293399 
L 405.773247 47.117622 
L 406.644218 46.584903 
L 407.079704 46.346203 
L 407.950675 45.175367 
L 408.386161 45.144105 
L 408.386161 45.144105 
" clip-path="url(#p73aa3b09a5)" style="fill: none; stroke: #1f77b4; stroke-opacity: 0.8; stroke-width: 1.5; stroke-linecap: square"/>
   </g>
   <g id="line2d_20">
    <path d="M 153.627061 279.980661 
L 160.159345 280.318324 
L 162.772259 280.533574 
L 169.304544 280.94496 
L 175.836828 281.472649 
L 179.320713 281.424033 
L 188.901398 281.227646 
L 190.207855 281.143123 
L 209.804708 280.824116 
L 211.546651 280.904526 
L 214.59505 280.828924 
L 216.336993 280.562572 
L 219.385392 280.000871 
L 221.562821 279.488939 
L 225.482191 278.492594 
L 228.530591 277.440235 
L 230.272533 276.721308 
L 235.933847 274.075558 
L 238.546761 272.820332 
L 246.385502 268.940409 
L 247.691959 268.142004 
L 248.56293 267.463349 
L 251.61133 265.485705 
L 255.966186 262.649752 
L 259.450071 260.035944 
L 267.724299 253.138505 
L 269.901727 251.076826 
L 270.772698 250.203692 
L 279.046925 242.381383 
L 286.014696 235.508592 
L 289.063095 232.512677 
L 294.724408 226.737192 
L 297.337322 224.362513 
L 301.692179 220.487679 
L 303.869607 218.85949 
L 304.740578 218.205512 
L 305.176064 217.880736 
L 305.611549 216.413529 
L 310.837377 212.625956 
L 311.272863 212.018626 
L 313.885777 210.224483 
L 314.321262 209.775533 
L 317.369662 208.290869 
L 318.240633 207.895816 
L 322.595489 205.705067 
L 325.643889 204.139504 
L 326.950346 203.430238 
L 330.869717 201.673363 
L 332.611659 201.035054 
L 333.047145 200.999531 
L 337.837487 199.464772 
L 340.885886 198.573988 
L 341.321372 198.202533 
L 343.4988 197.600397 
L 344.805257 197.266758 
L 350.46657 196.27383 
L 353.079484 195.983466 
L 353.51497 195.949601 
L 354.385941 196.031742 
L 355.256912 195.926847 
L 356.998855 195.79316 
L 357.434341 195.768497 
L 357.869826 195.601863 
L 358.305312 195.588414 
L 358.740798 194.472985 
L 359.611769 194.329815 
L 364.402111 194.346888 
L 365.708568 194.495503 
L 367.45051 194.54872 
L 367.885996 194.308037 
L 368.756967 194.396939 
L 373.111824 194.370264 
L 373.547309 194.440836 
L 373.982795 193.396126 
L 376.160223 193.551457 
L 378.337651 193.75721 
L 380.950565 194.00813 
L 383.127994 194.199961 
L 386.611879 194.604644 
L 390.095764 194.653512 
L 390.531249 195.812186 
L 395.757077 195.989754 
L 396.192563 196.3377 
L 397.49902 196.362481 
L 400.111934 196.818207 
L 405.337761 196.955726 
L 406.208733 196.916845 
L 408.386161 196.674401 
L 408.386161 196.674401 
" clip-path="url(#p73aa3b09a5)" style="fill: none; stroke: #ff7f0e; stroke-opacity: 0.8; stroke-width: 1.5; stroke-linecap: square"/>
   </g>
   <g id="line2d_21">
    <path d="M 153.627061 285.022632 
L 158.417403 285.024451 
L 168.433572 284.997643 
L 187.159455 284.837 
L 193.256254 284.837104 
L 202.836938 284.831482 
L 235.062876 284.719026 
L 264.240414 284.259882 
L 267.288813 284.245872 
L 274.256583 284.090629 
L 296.030865 283.714647 
L 303.869607 283.602443 
L 322.160004 283.399887 
L 339.579429 283.273198 
L 358.740798 283.136686 
L 360.918226 283.166794 
L 365.708568 283.117897 
L 370.934396 283.105055 
L 372.676338 283.064428 
L 386.176393 283.040919 
L 390.966735 283.023772 
L 399.240962 283.035682 
L 408.386161 282.981547 
L 408.386161 282.981547 
" clip-path="url(#p73aa3b09a5)" style="fill: none; stroke: #2ca02c; stroke-opacity: 0.8; stroke-width: 1.5; stroke-linecap: square"/>
   </g>
   <g id="line2d_22">
    <path d="M 221.562821 188.215794 
L 225.046706 186.66658 
L 225.482191 186.482413 
L 225.917677 186.436963 
L 226.788648 186.137767 
L 228.530591 185.51545 
L 228.966077 185.432363 
L 229.401562 185.169162 
L 229.837048 185.055079 
L 230.272533 184.763028 
L 230.708019 184.687959 
L 232.449962 183.791124 
L 233.320933 183.562987 
L 234.191904 183.18705 
L 234.62739 183.065954 
L 235.062876 183.109214 
L 235.933847 182.906894 
L 238.111275 182.914321 
L 240.288703 183.178439 
L 240.724189 183.139647 
L 241.59516 182.891996 
L 242.466131 182.822031 
L 246.385502 182.528397 
L 247.256474 182.754404 
L 248.56293 182.744891 
L 249.433902 182.939916 
L 252.482301 182.435648 
L 253.353272 182.54587 
L 254.659729 182.416297 
L 255.095215 182.201357 
L 256.401672 182.025845 
L 256.837158 182.208325 
L 257.708129 182.176191 
L 258.143615 182.349823 
L 258.5791 182.162313 
L 259.885557 182.165243 
L 260.756528 181.980425 
L 261.192014 182.082673 
L 262.498471 181.898388 
L 263.369442 182.045286 
L 264.675899 182.255565 
L 267.288813 182.247561 
L 267.724299 182.375271 
L 268.59527 182.254411 
L 269.466241 182.162328 
L 269.901727 182.042357 
L 270.337212 182.154309 
L 272.514641 181.904025 
L 274.256583 182.318473 
L 275.56304 182.295896 
L 275.998526 182.19427 
L 277.304983 182.278557 
L 277.740468 182.200055 
L 279.046925 182.285377 
L 279.917897 182.166796 
L 281.224354 182.258761 
L 282.095325 182.098252 
L 282.53081 182.059622 
L 282.966296 182.301873 
L 283.401782 182.410024 
L 284.272753 182.293662 
L 285.143724 182.516177 
L 285.57921 182.550604 
L 286.450181 182.297464 
L 287.321152 182.353996 
L 289.934066 181.914011 
L 290.805038 181.980544 
L 291.240523 181.933348 
L 292.111495 182.116494 
L 293.853437 181.682841 
L 294.288923 181.721323 
L 296.030865 181.466171 
L 296.901837 181.59999 
L 297.337322 181.662277 
L 298.208294 181.47453 
L 298.643779 181.544983 
L 299.079265 181.462132 
L 299.51475 181.54991 
L 299.950236 181.504889 
L 300.385722 181.679202 
L 300.821207 181.683478 
L 301.256693 181.461643 
L 302.127664 181.54374 
L 302.998636 181.294639 
L 303.434121 181.827284 
L 304.305092 181.876388 
L 304.740578 181.961236 
L 306.047035 181.799114 
L 308.659949 182.062433 
L 309.53092 182.053527 
L 310.837377 182.198797 
L 311.272863 182.28588 
L 312.143834 182.141171 
L 312.57932 182.322438 
L 313.014805 182.285007 
L 313.450291 182.362591 
L 313.885777 182.277432 
L 314.321262 182.384503 
L 314.756748 182.30103 
L 315.192234 182.426165 
L 315.627719 182.360002 
L 316.49869 182.6306 
L 318.240633 182.738381 
L 319.982576 182.434317 
L 321.289032 182.545042 
L 321.724518 182.428192 
L 323.030975 182.608674 
L 323.901946 182.579839 
L 324.337432 182.377741 
L 326.51486 182.631074 
L 335.660059 183.110915 
L 337.402001 183.230488 
L 337.837487 183.105989 
L 339.143944 183.202422 
L 339.579429 183.124571 
L 340.014915 183.343106 
L 340.885886 183.508409 
L 341.321372 183.663977 
L 342.192343 183.58151 
L 342.627829 183.434982 
L 348.289142 183.590402 
L 348.724628 183.519771 
L 349.595599 183.05107 
L 350.46657 182.941263 
L 351.337542 182.732211 
L 352.208513 182.655337 
L 352.643999 182.347752 
L 355.256912 182.153762 
L 355.692398 182.296014 
L 356.127884 180.931277 
L 356.563369 180.740956 
L 357.434341 180.789631 
L 357.869826 180.77673 
L 358.305312 180.585906 
L 360.48274 180.479353 
L 360.918226 180.51603 
L 361.789197 180.412525 
L 362.660168 180.215946 
L 363.095654 179.949549 
L 364.402111 180.045006 
L 364.837597 180.081445 
L 365.273082 179.839801 
L 367.45051 179.936397 
L 367.885996 179.612641 
L 368.321482 179.503262 
L 370.063424 179.634818 
L 370.934396 179.658682 
L 371.805367 179.232398 
L 372.676338 179.182036 
L 373.111824 179.268838 
L 373.547309 179.074729 
L 375.289252 179.193783 
L 375.724738 179.173011 
L 376.595709 178.993017 
L 377.031195 178.913746 
L 377.902166 179.109586 
L 378.337651 178.992381 
L 378.773137 179.135063 
L 379.208623 179.011304 
L 380.51508 179.209022 
L 382.257022 178.936693 
L 385.740907 179.100369 
L 386.176393 179.379991 
L 387.047364 178.984702 
L 387.918336 179.113462 
L 388.353821 178.83196 
L 389.224793 178.952168 
L 389.660278 178.907444 
L 390.531249 179.047403 
L 390.966735 178.985279 
L 391.402221 178.732953 
L 391.837706 178.82116 
L 392.273192 178.538608 
L 393.144163 178.467873 
L 393.579649 178.545206 
L 394.015135 178.320798 
L 394.45062 178.358303 
L 395.321591 177.902473 
L 395.757077 177.611177 
L 396.192563 177.561629 
L 396.628048 177.38341 
L 397.934505 177.304539 
L 398.805477 176.875088 
L 399.676448 176.920952 
L 400.111934 176.635086 
L 400.547419 176.793258 
L 401.41839 176.718751 
L 402.724847 176.759792 
L 403.160333 176.72239 
L 404.031304 176.881184 
L 404.902276 176.920138 
L 407.515189 176.473156 
L 408.386161 176.455565 
L 408.386161 176.455565 
" clip-path="url(#p73aa3b09a5)" style="fill: none; stroke: #d62728; stroke-opacity: 0.8; stroke-width: 1.5; stroke-linecap: square"/>
   </g>
   <g id="line2d_23">
    <path d="M 221.562821 155.594987 
L 226.788648 149.837241 
L 232.449962 143.896911 
L 232.885447 143.304347 
L 233.756419 142.428965 
L 234.191904 141.975917 
L 234.62739 141.186418 
L 235.062876 140.914311 
L 235.933847 140.771644 
L 236.804818 140.184096 
L 238.111275 139.332119 
L 238.982246 138.949184 
L 239.417732 138.676958 
L 241.159675 137.18534 
L 241.59516 137.01193 
L 242.030646 136.662209 
L 242.901617 136.363352 
L 244.64356 134.868184 
L 245.514531 134.251682 
L 248.127445 132.484613 
L 248.56293 131.986026 
L 248.998416 131.734188 
L 249.433902 131.289632 
L 249.869387 131.168773 
L 255.966186 127.466137 
L 256.401672 127.356521 
L 256.837158 127.005868 
L 259.450071 125.914318 
L 259.885557 125.832976 
L 260.321043 125.912484 
L 260.756528 125.631529 
L 262.062985 125.087345 
L 262.933957 124.439537 
L 263.804928 124.025147 
L 264.240414 123.761118 
L 265.111385 123.494796 
L 265.54687 123.138713 
L 265.982356 122.955361 
L 266.417842 122.902217 
L 266.853327 122.663828 
L 267.288813 122.576035 
L 267.724299 122.237928 
L 268.159784 122.085112 
L 268.59527 122.053421 
L 269.030756 121.635452 
L 269.466241 121.665456 
L 270.337212 121.030889 
L 271.643669 120.783105 
L 272.079155 120.69802 
L 272.514641 120.499192 
L 275.127555 120.925136 
L 275.56304 120.855644 
L 276.434011 121.001048 
L 277.304983 121.010768 
L 277.740468 121.171574 
L 278.175954 121.034011 
L 278.61144 121.037355 
L 279.046925 121.22596 
L 279.482411 121.27641 
L 279.917897 121.187123 
L 280.353382 121.285095 
L 280.788868 120.931527 
L 283.401782 121.049191 
L 283.837267 120.891462 
L 284.708239 120.972168 
L 285.143724 121.014704 
L 286.014696 121.363596 
L 288.192124 120.948334 
L 289.498581 120.845095 
L 290.805038 121.420675 
L 291.240523 121.503186 
L 292.54698 122.255179 
L 293.417951 122.863203 
L 294.724408 123.514118 
L 295.159894 123.539624 
L 296.466351 123.953688 
L 296.901837 124.000618 
L 299.079265 124.800176 
L 299.950236 125.399723 
L 303.869607 127.839618 
L 304.305092 129.035206 
L 306.482521 130.558677 
L 306.918006 130.629811 
L 308.224463 131.287605 
L 309.53092 131.803369 
L 309.966406 132.105228 
L 311.272863 132.531661 
L 311.708348 132.53351 
L 312.57932 132.883734 
L 313.014805 133.2302 
L 313.450291 133.398891 
L 313.885777 133.421557 
L 314.321262 133.752252 
L 315.627719 134.12381 
L 316.934176 134.240941 
L 317.369662 134.152941 
L 318.240633 134.741762 
L 318.676119 135.034152 
L 319.111604 135.091764 
L 319.54709 135.705528 
L 320.418061 135.896515 
L 321.289032 136.005406 
L 321.724518 136.23409 
L 322.160004 136.312473 
L 323.030975 136.702776 
L 323.466461 136.652326 
L 323.901946 136.892476 
L 324.337432 136.919107 
L 325.643889 137.424899 
L 326.079375 137.687848 
L 326.51486 137.669162 
L 326.950346 138.108791 
L 327.821317 138.5005 
L 328.692288 138.819655 
L 329.56326 139.530977 
L 331.305202 140.360451 
L 331.740688 140.769396 
L 333.047145 141.348925 
L 333.48263 141.809134 
L 334.353602 142.04782 
L 337.402001 143.807091 
L 339.579429 144.539067 
L 340.450401 145.020803 
L 341.321372 144.680284 
L 342.192343 144.747364 
L 343.934286 144.850958 
L 344.369771 144.658033 
L 345.240743 144.552856 
L 345.676228 144.656435 
L 346.5472 144.481648 
L 347.853657 144.580049 
L 348.289142 144.398383 
L 349.160114 144.435193 
L 350.46657 144.736031 
L 351.337542 144.547545 
L 351.773027 144.665948 
L 353.079484 144.545074 
L 355.692398 145.022711 
L 356.127884 145.105252 
L 356.563369 144.84248 
L 356.998855 144.741639 
L 357.434341 144.812536 
L 360.047255 143.13968 
L 360.48274 143.081729 
L 360.918226 142.77299 
L 361.353711 142.301359 
L 362.660168 141.826962 
L 363.095654 141.88586 
L 363.53114 141.784131 
L 364.402111 141.391061 
L 364.837597 141.372848 
L 365.273082 141.06945 
L 365.708568 141.237757 
L 367.45051 140.917137 
L 367.885996 140.78058 
L 368.321482 140.430371 
L 368.756967 140.314276 
L 369.192453 140.024933 
L 369.627939 139.888421 
L 370.49891 139.268664 
L 370.934396 138.893037 
L 371.369881 138.669694 
L 372.676338 138.541585 
L 373.111824 138.239592 
L 373.547309 138.117535 
L 373.982795 137.691043 
L 374.418281 137.538538 
L 375.289252 136.971643 
L 376.160223 136.869026 
L 376.595709 136.298832 
L 378.773137 135.670124 
L 380.079594 134.793618 
L 380.51508 134.774872 
L 381.386051 134.286035 
L 381.821537 134.248678 
L 385.740907 132.664282 
L 386.176393 132.340082 
L 386.611879 132.193642 
L 387.48285 131.63129 
L 387.918336 131.531794 
L 388.353821 131.120142 
L 390.966735 129.833137 
L 391.402221 129.497871 
L 392.273192 129.191632 
L 392.708678 128.927972 
L 393.579649 128.696315 
L 394.015135 128.385889 
L 394.45062 128.253253 
L 394.886106 127.841482 
L 395.321591 127.732962 
L 395.757077 127.754237 
L 397.49902 127.015115 
L 397.934505 126.591982 
L 398.369991 126.564996 
L 398.805477 126.335439 
L 399.240962 125.862803 
L 400.547419 125.26435 
L 401.853876 125.080879 
L 402.289362 125.304533 
L 402.724847 125.203647 
L 403.160333 124.827251 
L 403.595819 124.625271 
L 404.031304 124.548397 
L 404.902276 124.093973 
L 405.773247 123.654211 
L 408.386161 122.648412 
L 408.386161 122.648412 
" clip-path="url(#p73aa3b09a5)" style="fill: none; stroke: #9467bd; stroke-opacity: 0.8; stroke-width: 1.5; stroke-linecap: square"/>
   </g>
   <g id="patch_3">
    <path d="M 68.271875 288.430125 
L 68.271875 22.318125 
" style="fill: none; stroke: #000000; stroke-width: 0.8; stroke-linejoin: miter; stroke-linecap: square"/>
   </g>
   <g id="patch_4">
    <path d="M 425.391875 288.430125 
L 425.391875 22.318125 
" style="fill: none; stroke: #000000; stroke-width: 0.8; stroke-linejoin: miter; stroke-linecap: square"/>
   </g>
   <g id="patch_5">
    <path d="M 68.271875 288.430125 
L 425.391875 288.430125 
" style="fill: none; stroke: #000000; stroke-width: 0.8; stroke-linejoin: miter; stroke-linecap: square"/>
   </g>
   <g id="patch_6">
    <path d="M 68.271875 22.318125 
L 425.391875 22.318125 
" style="fill: none; stroke: #000000; stroke-width: 0.8; stroke-linejoin: miter; stroke-linecap: square"/>
   </g>
   <g id="text_21">
    <!-- Move [root to branch] -->
    <g transform="translate(181.431875 16.318125) scale(0.12 -0.12)">
     <defs>
      <path id="DejaVuSans-4d" d="M 628 4666 
L 1569 4666 
L 2759 1491 
L 3956 4666 
L 4897 4666 
L 4897 0 
L 4281 0 
L 4281 4097 
L 3078 897 
L 2444 897 
L 1241 4097 
L 1241 0 
L 628 0 
L 628 4666 
z
" transform="scale(0.015625)"/>
      <path id="DejaVuSans-76" d="M 191 3500 
L 800 3500 
L 1894 563 
L 2988 3500 
L 3597 3500 
L 2284 0 
L 1503 0 
L 191 3500 
z
" transform="scale(0.015625)"/>
      <path id="DejaVuSans-5b" d="M 550 4863 
L 1875 4863 
L 1875 4416 
L 1125 4416 
L 1125 -397 
L 1875 -397 
L 1875 -844 
L 550 -844 
L 550 4863 
z
" transform="scale(0.015625)"/>
      <path id="DejaVuSans-68" d="M 3513 2113 
L 3513 0 
L 2938 0 
L 2938 2094 
Q 2938 2591 2744 2837 
Q 2550 3084 2163 3084 
Q 1697 3084 1428 2787 
Q 1159 2491 1159 1978 
L 1159 0 
L 581 0 
L 581 4863 
L 1159 4863 
L 1159 2956 
Q 1366 3272 1645 3428 
Q 1925 3584 2291 3584 
Q 2894 3584 3203 3211 
Q 3513 2838 3513 2113 
z
" transform="scale(0.015625)"/>
      <path id="DejaVuSans-5d" d="M 1947 4863 
L 1947 -844 
L 622 -844 
L 622 -397 
L 1369 -397 
L 1369 4416 
L 622 4416 
L 622 4863 
L 1947 4863 
z
" transform="scale(0.015625)"/>
     </defs>
     <use xlink:href="#DejaVuSans-4d"/>
     <use xlink:href="#DejaVuSans-6f" transform="translate(86.279297 0)"/>
     <use xlink:href="#DejaVuSans-76" transform="translate(147.460938 0)"/>
     <use xlink:href="#DejaVuSans-65" transform="translate(206.640625 0)"/>
     <use xlink:href="#DejaVuSans-20" transform="translate(268.164062 0)"/>
     <use xlink:href="#DejaVuSans-5b" transform="translate(299.951172 0)"/>
     <use xlink:href="#DejaVuSans-72" transform="translate(338.964844 0)"/>
     <use xlink:href="#DejaVuSans-6f" transform="translate(377.828125 0)"/>
     <use xlink:href="#DejaVuSans-6f" transform="translate(439.009766 0)"/>
     <use xlink:href="#DejaVuSans-74" transform="translate(500.191406 0)"/>
     <use xlink:href="#DejaVuSans-20" transform="translate(539.400391 0)"/>
     <use xlink:href="#DejaVuSans-74" transform="translate(571.1875 0)"/>
     <use xlink:href="#DejaVuSans-6f" transform="translate(610.396484 0)"/>
     <use xlink:href="#DejaVuSans-20" transform="translate(671.578125 0)"/>
     <use xlink:href="#DejaVuSans-62" transform="translate(703.365234 0)"/>
     <use xlink:href="#DejaVuSans-72" transform="translate(766.841797 0)"/>
     <use xlink:href="#DejaVuSans-61" transform="translate(807.955078 0)"/>
     <use xlink:href="#DejaVuSans-6e" transform="translate(869.234375 0)"/>
     <use xlink:href="#DejaVuSans-63" transform="translate(932.613281 0)"/>
     <use xlink:href="#DejaVuSans-68" transform="translate(987.59375 0)"/>
     <use xlink:href="#DejaVuSans-5d" transform="translate(1050.972656 0)"/>
    </g>
   </g>
   <g id="legend_1">
    <g id="patch_7">
     <path d="M 99.274219 365.802375 
L 386.869531 365.802375 
Q 388.869531 365.802375 388.869531 363.802375 
L 388.869531 335.446125 
Q 388.869531 333.446125 386.869531 333.446125 
L 99.274219 333.446125 
Q 97.274219 333.446125 97.274219 335.446125 
L 97.274219 363.802375 
Q 97.274219 365.802375 99.274219 365.802375 
z
" style="fill: #4d4d4d; opacity: 0.5; stroke: #4d4d4d; stroke-linejoin: miter"/>
    </g>
    <g id="patch_8">
     <path d="M 97.274219 363.802375 
L 384.869531 363.802375 
Q 386.869531 363.802375 386.869531 361.802375 
L 386.869531 333.446125 
Q 386.869531 331.446125 384.869531 331.446125 
L 97.274219 331.446125 
Q 95.274219 331.446125 95.274219 333.446125 
L 95.274219 361.802375 
Q 95.274219 363.802375 97.274219 363.802375 
z
" style="fill: #ffffff; stroke: #cccccc; stroke-linejoin: miter"/>
    </g>
    <g id="line2d_24">
     <path d="M 99.274219 339.544562 
L 109.274219 339.544562 
L 119.274219 339.544562 
" style="fill: none; stroke: #1f77b4; stroke-opacity: 0.8; stroke-width: 1.5; stroke-linecap: square"/>
    </g>
    <g id="text_22">
     <!-- MPTT -->
     <g transform="translate(127.274219 343.044562) scale(0.1 -0.1)">
      <defs>
       <path id="DejaVuSans-50" d="M 1259 4147 
L 1259 2394 
L 2053 2394 
Q 2494 2394 2734 2622 
Q 2975 2850 2975 3272 
Q 2975 3691 2734 3919 
Q 2494 4147 2053 4147 
L 1259 4147 
z
M 628 4666 
L 2053 4666 
Q 2838 4666 3239 4311 
Q 3641 3956 3641 3272 
Q 3641 2581 3239 2228 
Q 2838 1875 2053 1875 
L 1259 1875 
L 1259 0 
L 628 0 
L 628 4666 
z
" transform="scale(0.015625)"/>
       <path id="DejaVuSans-54" d="M -19 4666 
L 3928 4666 
L 3928 4134 
L 2272 4134 
L 2272 0 
L 1638 0 
L 1638 4134 
L -19 4134 
L -19 4666 
z
" transform="scale(0.015625)"/>
      </defs>
      <use xlink:href="#DejaVuSans-4d"/>
      <use xlink:href="#DejaVuSans-50" transform="translate(86.279297 0)"/>
      <use xlink:href="#DejaVuSans-54" transform="translate(146.582031 0)"/>
      <use xlink:href="#DejaVuSans-54" transform="translate(205.916016 0)"/>
     </g>
    </g>
    <g id="line2d_25">
     <path d="M 99.274219 354.222687 
L 109.274219 354.222687 
L 119.274219 354.222687 
" style="fill: none; stroke: #ff7f0e; stroke-opacity: 0.8; stroke-width: 1.5; stroke-linecap: square"/>
    </g>
    <g id="text_23">
     <!-- tree -->
     <g transform="translate(127.274219 357.722687) scale(0.1 -0.1)">
      <use xlink:href="#DejaVuSans-74"/>
      <use xlink:href="#DejaVuSans-72" transform="translate(39.208984 0)"/>
      <use xlink:href="#DejaVuSans-65" transform="translate(78.072266 0)"/>
      <use xlink:href="#DejaVuSans-65" transform="translate(139.595703 0)"/>
     </g>
    </g>
    <g id="line2d_26">
     <path d="M 173.972656 339.544562 
L 183.972656 339.544562 
L 193.972656 339.544562 
" style="fill: none; stroke: #2ca02c; stroke-opacity: 0.8; stroke-width: 1.5; stroke-linecap: square"/>
    </g>
    <g id="text_24">
     <!-- treebeard AL -->
     <g transform="translate(201.972656 343.044562) scale(0.1 -0.1)">
      <defs>
       <path id="DejaVuSans-64" d="M 2906 2969 
L 2906 4863 
L 3481 4863 
L 3481 0 
L 2906 0 
L 2906 525 
Q 2725 213 2448 61 
Q 2172 -91 1784 -91 
Q 1150 -91 751 415 
Q 353 922 353 1747 
Q 353 2572 751 3078 
Q 1150 3584 1784 3584 
Q 2172 3584 2448 3432 
Q 2725 3281 2906 2969 
z
M 947 1747 
Q 947 1113 1208 752 
Q 1469 391 1925 391 
Q 2381 391 2643 752 
Q 2906 1113 2906 1747 
Q 2906 2381 2643 2742 
Q 2381 3103 1925 3103 
Q 1469 3103 1208 2742 
Q 947 2381 947 1747 
z
" transform="scale(0.015625)"/>
       <path id="DejaVuSans-4c" d="M 628 4666 
L 1259 4666 
L 1259 531 
L 3531 531 
L 3531 0 
L 628 0 
L 628 4666 
z
" transform="scale(0.015625)"/>
      </defs>
      <use xlink:href="#DejaVuSans-74"/>
      <use xlink:href="#DejaVuSans-72" transform="translate(39.208984 0)"/>
      <use xlink:href="#DejaVuSans-65" transform="translate(78.072266 0)"/>
      <use xlink:href="#DejaVuSans-65" transform="translate(139.595703 0)"/>
      <use xlink:href="#DejaVuSans-62" transform="translate(201.119141 0)"/>
      <use xlink:href="#DejaVuSans-65" transform="translate(264.595703 0)"/>
      <use xlink:href="#DejaVuSans-61" transform="translate(326.119141 0)"/>
      <use xlink:href="#DejaVuSans-72" transform="translate(387.398438 0)"/>
      <use xlink:href="#DejaVuSans-64" transform="translate(426.761719 0)"/>
      <use xlink:href="#DejaVuSans-20" transform="translate(490.238281 0)"/>
      <use xlink:href="#DejaVuSans-41" transform="translate(522.025391 0)"/>
      <use xlink:href="#DejaVuSans-4c" transform="translate(590.433594 0)"/>
     </g>
    </g>
    <g id="line2d_27">
     <path d="M 173.972656 354.222687 
L 183.972656 354.222687 
L 193.972656 354.222687 
" style="fill: none; stroke: #d62728; stroke-opacity: 0.8; stroke-width: 1.5; stroke-linecap: square"/>
    </g>
    <g id="text_25">
     <!-- treebeard MP -->
     <g transform="translate(201.972656 357.722687) scale(0.1 -0.1)">
      <use xlink:href="#DejaVuSans-74"/>
      <use xlink:href="#DejaVuSans-72" transform="translate(39.208984 0)"/>
      <use xlink:href="#DejaVuSans-65" transform="translate(78.072266 0)"/>
      <use xlink:href="#DejaVuSans-65" transform="translate(139.595703 0)"/>
      <use xlink:href="#DejaVuSans-62" transform="translate(201.119141 0)"/>
      <use xlink:href="#DejaVuSans-65" transform="translate(264.595703 0)"/>
      <use xlink:href="#DejaVuSans-61" transform="translate(326.119141 0)"/>
      <use xlink:href="#DejaVuSans-72" transform="translate(387.398438 0)"/>
      <use xlink:href="#DejaVuSans-64" transform="translate(426.761719 0)"/>
      <use xlink:href="#DejaVuSans-20" transform="translate(490.238281 0)"/>
      <use xlink:href="#DejaVuSans-4d" transform="translate(522.025391 0)"/>
      <use xlink:href="#DejaVuSans-50" transform="translate(608.304688 0)"/>
     </g>
    </g>
    <g id="line2d_28">
     <path d="M 288.835156 339.544562 
L 298.835156 339.544562 
L 308.835156 339.544562 
" style="fill: none; stroke: #9467bd; stroke-opacity: 0.8; stroke-width: 1.5; stroke-linecap: square"/>
    </g>
    <g id="text_26">
     <!-- treebeard NS -->
     <g transform="translate(316.835156 343.044562) scale(0.1 -0.1)">
      <defs>
       <path id="DejaVuSans-4e" d="M 628 4666 
L 1478 4666 
L 3547 763 
L 3547 4666 
L 4159 4666 
L 4159 0 
L 3309 0 
L 1241 3903 
L 1241 0 
L 628 0 
L 628 4666 
z
" transform="scale(0.015625)"/>
       <path id="DejaVuSans-53" d="M 3425 4513 
L 3425 3897 
Q 3066 4069 2747 4153 
Q 2428 4238 2131 4238 
Q 1616 4238 1336 4038 
Q 1056 3838 1056 3469 
Q 1056 3159 1242 3001 
Q 1428 2844 1947 2747 
L 2328 2669 
Q 3034 2534 3370 2195 
Q 3706 1856 3706 1288 
Q 3706 609 3251 259 
Q 2797 -91 1919 -91 
Q 1588 -91 1214 -16 
Q 841 59 441 206 
L 441 856 
Q 825 641 1194 531 
Q 1563 422 1919 422 
Q 2459 422 2753 634 
Q 3047 847 3047 1241 
Q 3047 1584 2836 1778 
Q 2625 1972 2144 2069 
L 1759 2144 
Q 1053 2284 737 2584 
Q 422 2884 422 3419 
Q 422 4038 858 4394 
Q 1294 4750 2059 4750 
Q 2388 4750 2728 4690 
Q 3069 4631 3425 4513 
z
" transform="scale(0.015625)"/>
      </defs>
      <use xlink:href="#DejaVuSans-74"/>
      <use xlink:href="#DejaVuSans-72" transform="translate(39.208984 0)"/>
      <use xlink:href="#DejaVuSans-65" transform="translate(78.072266 0)"/>
      <use xlink:href="#DejaVuSans-65" transform="translate(139.595703 0)"/>
      <use xlink:href="#DejaVuSans-62" transform="translate(201.119141 0)"/>
      <use xlink:href="#DejaVuSans-65" transform="translate(264.595703 0)"/>
      <use xlink:href="#DejaVuSans-61" transform="translate(326.119141 0)"/>
      <use xlink:href="#DejaVuSans-72" transform="translate(387.398438 0)"/>
      <use xlink:href="#DejaVuSans-64" transform="translate(426.761719 0)"/>
      <use xlink:href="#DejaVuSans-20" transform="translate(490.238281 0)"/>
      <use xlink:href="#DejaVuSans-4e" transform="translate(522.025391 0)"/>
      <use xlink:href="#DejaVuSans-53" transform="translate(596.830078 0)"/>
     </g>
    </g>
   </g>
  </g>
 </g>
 <defs>
  <clipPath id="p73aa3b09a5">
   <rect x="68.271875" y="22.318125" width="357.12" height="266.112"/>
  </clipPath>
 </defs>
</svg>
