<?xml version="1.0" encoding="utf-8" standalone="no"?>
<!DOCTYPE svg PUBLIC "-//W3C//DTD SVG 1.1//EN"
  "http://www.w3.org/Graphics/SVG/1.1/DTD/svg11.dtd">
<svg xmlns:xlink="http://www.w3.org/1999/xlink" width="426.358281pt" height="371.647687pt" viewBox="0 0 426.358281 371.647687" xmlns="http://www.w3.org/2000/svg" version="1.1">
 <metadata>
  <rdf:RDF xmlns:dc="http://purl.org/dc/elements/1.1/" xmlns:cc="http://creativecommons.org/ns#" xmlns:rdf="http://www.w3.org/1999/02/22-rdf-syntax-ns#">
   <cc:Work>
    <dc:type rdf:resource="http://purl.org/dc/dcmitype/StillImage"/>
    <dc:date>2026-06-29T09:13:54.340425</dc:date>
    <dc:format>image/svg+xml</dc:format>
    <dc:creator>
     <cc:Agent>
      <dc:title>Matplotlib v3.11.0, https://matplotlib.org/</dc:title>
     </cc:Agent>
    </dc:creator>
   </cc:Work>
  </rdf:RDF>
 </metadata>
 <defs>
  <style type="text/css">*{stroke-linejoin: round; stroke-linecap: butt}</style>
 </defs>
 <g id="figure_1">
  <g id="patch_1">
   <path d="M 0 371.647687 
L 426.358281 371.647687 
L 426.358281 0 
L 0 0 
z
" style="fill: #ffffff"/>
  </g>
  <g id="axes_1">
   <g id="patch_2">
    <path d="M 62.038281 288.430125 
L 419.158281 288.430125 
L 419.158281 22.318125 
L 62.038281 22.318125 
z
" style="fill: #ffffff"/>
   </g>
   <g id="matplotlib.axis_1">
    <g id="xtick_1">
     <g id="line2d_1">
      <defs>
       <path id="mb41a0818d3" d="M 0 0 
L 0 3.5 
" style="stroke: #000000; stroke-width: 0.8"/>
      </defs>
      <g>
       <use xlink:href="#mb41a0818d3" x="62.038281" y="288.430125" style="stroke: #000000; stroke-width: 0.8"/>
      </g>
     </g>
     <g id="text_1">
      <!-- 0 -->
      <g transform="translate(58.857031 303.027781) scale(0.1 -0.1)">
       <defs>
        <path id="DejaVuSans-13" d="M 2034 4250 
Q 1547 4250 1301 3770 
Q 1056 3291 1056 2328 
Q 1056 1369 1301 889 
Q 1547 409 2034 409 
Q 2525 409 2770 889 
Q 3016 1369 3016 2328 
Q 3016 3291 2770 3770 
Q 2525 4250 2034 4250 
z
M 2034 4750 
Q 2819 4750 3233 4129 
Q 3647 3509 3647 2328 
Q 3647 1150 3233 529 
Q 2819 -91 2034 -91 
Q 1250 -91 836 529 
Q 422 1150 422 2328 
Q 422 3509 836 4129 
Q 1250 4750 2034 4750 
z
" transform="scale(0.015625)"/>
       </defs>
       <use xlink:href="#DejaVuSans-13"/>
      </g>
     </g>
    </g>
    <g id="xtick_2">
     <g id="line2d_2">
      <g>
       <use xlink:href="#mb41a0818d3" x="105.586845" y="288.430125" style="stroke: #000000; stroke-width: 0.8"/>
      </g>
     </g>
     <g id="text_2">
      <!-- 500  -->
      <g transform="translate(94.454033 303.027781) scale(0.1 -0.1)">
       <defs>
        <path id="DejaVuSans-18" d="M 691 4666 
L 3169 4666 
L 3169 4134 
L 1269 4134 
L 1269 2991 
Q 1406 3038 1543 3061 
Q 1681 3084 1819 3084 
Q 2600 3084 3056 2656 
Q 3513 2228 3513 1497 
Q 3513 744 3044 326 
Q 2575 -91 1722 -91 
Q 1428 -91 1123 -41 
Q 819 9 494 109 
L 494 744 
Q 775 591 1075 516 
Q 1375 441 1709 441 
Q 2250 441 2565 725 
Q 2881 1009 2881 1497 
Q 2881 1984 2565 2268 
Q 2250 2553 1709 2553 
Q 1456 2553 1204 2497 
Q 953 2441 691 2322 
L 691 4666 
z
" transform="scale(0.015625)"/>
        <path id="DejaVuSans-3" transform="scale(0.015625)"/>
       </defs>
       <use xlink:href="#DejaVuSans-18"/>
       <use xlink:href="#DejaVuSans-13" transform="translate(63.625 0)"/>
       <use xlink:href="#DejaVuSans-13" transform="translate(127.25 0)"/>
       <use xlink:href="#DejaVuSans-3" transform="translate(190.875 0)"/>
      </g>
     </g>
    </g>
    <g id="xtick_3">
     <g id="line2d_3">
      <g>
       <use xlink:href="#mb41a0818d3" x="149.135409" y="288.430125" style="stroke: #000000; stroke-width: 0.8"/>
      </g>
     </g>
     <g id="text_3">
      <!-- 1 k -->
      <g transform="translate(141.469784 303.028562) scale(0.1 -0.1)">
       <defs>
        <path id="DejaVuSans-14" d="M 794 531 
L 1825 531 
L 1825 4091 
L 703 3866 
L 703 4441 
L 1819 4666 
L 2450 4666 
L 2450 531 
L 3481 531 
L 3481 0 
L 794 0 
L 794 531 
z
" transform="scale(0.015625)"/>
        <path id="DejaVuSans-4e" d="M 581 4863 
L 1159 4863 
L 1159 1991 
L 2875 3500 
L 3609 3500 
L 1753 1863 
L 3688 0 
L 2938 0 
L 1159 1709 
L 1159 0 
L 581 0 
L 581 4863 
z
" transform="scale(0.015625)"/>
       </defs>
       <use xlink:href="#DejaVuSans-14"/>
       <use xlink:href="#DejaVuSans-3" transform="translate(63.625 0)"/>
       <use xlink:href="#DejaVuSans-4e" transform="translate(95.40625 0)"/>
      </g>
     </g>
    </g>
    <g id="xtick_4">
     <g id="line2d_4">
      <g>
       <use xlink:href="#mb41a0818d3" x="192.683974" y="288.430125" style="stroke: #000000; stroke-width: 0.8"/>
      </g>
     </g>
     <g id="text_4">
      <!-- 1.5 k -->
      <g transform="translate(180.248036 303.028562) scale(0.1 -0.1)">
       <defs>
        <path id="DejaVuSans-11" d="M 684 794 
L 1344 794 
L 1344 0 
L 684 0 
L 684 794 
z
" transform="scale(0.015625)"/>
       </defs>
       <use xlink:href="#DejaVuSans-14"/>
       <use xlink:href="#DejaVuSans-11" transform="translate(63.625 0)"/>
       <use xlink:href="#DejaVuSans-18" transform="translate(95.40625 0)"/>
       <use xlink:href="#DejaVuSans-3" transform="translate(159.03125 0)"/>
       <use xlink:href="#DejaVuSans-4e" transform="translate(190.8125 0)"/>
      </g>
     </g>
    </g>
    <g id="xtick_5">
     <g id="line2d_5">
      <g>
       <use xlink:href="#mb41a0818d3" x="236.232538" y="288.430125" style="stroke: #000000; stroke-width: 0.8"/>
      </g>
     </g>
     <g id="text_5">
      <!-- 2 k -->
      <g transform="translate(228.566913 303.028562) scale(0.1 -0.1)">
       <defs>
        <path id="DejaVuSans-15" d="M 1228 531 
L 3431 531 
L 3431 0 
L 469 0 
L 469 531 
Q 828 903 1448 1529 
Q 2069 2156 2228 2338 
Q 2531 2678 2651 2914 
Q 2772 3150 2772 3378 
Q 2772 3750 2511 3984 
Q 2250 4219 1831 4219 
Q 1534 4219 1204 4116 
Q 875 4013 500 3803 
L 500 4441 
Q 881 4594 1212 4672 
Q 1544 4750 1819 4750 
Q 2544 4750 2975 4387 
Q 3406 4025 3406 3419 
Q 3406 3131 3298 2873 
Q 3191 2616 2906 2266 
Q 2828 2175 2409 1742 
Q 1991 1309 1228 531 
z
" transform="scale(0.015625)"/>
       </defs>
       <use xlink:href="#DejaVuSans-15"/>
       <use xlink:href="#DejaVuSans-3" transform="translate(63.625 0)"/>
       <use xlink:href="#DejaVuSans-4e" transform="translate(95.40625 0)"/>
      </g>
     </g>
    </g>
    <g id="xtick_6">
     <g id="line2d_6">
      <g>
       <use xlink:href="#mb41a0818d3" x="279.781102" y="288.430125" style="stroke: #000000; stroke-width: 0.8"/>
      </g>
     </g>
     <g id="text_6">
      <!-- 2.5 k -->
      <g transform="translate(267.345164 303.028562) scale(0.1 -0.1)">
       <use xlink:href="#DejaVuSans-15"/>
       <use xlink:href="#DejaVuSans-11" transform="translate(63.625 0)"/>
       <use xlink:href="#DejaVuSans-18" transform="translate(95.40625 0)"/>
       <use xlink:href="#DejaVuSans-3" transform="translate(159.03125 0)"/>
       <use xlink:href="#DejaVuSans-4e" transform="translate(190.8125 0)"/>
      </g>
     </g>
    </g>
    <g id="xtick_7">
     <g id="line2d_7">
      <g>
       <use xlink:href="#mb41a0818d3" x="323.329666" y="288.430125" style="stroke: #000000; stroke-width: 0.8"/>
      </g>
     </g>
     <g id="text_7">
      <!-- 3 k -->
      <g transform="translate(315.664041 303.028562) scale(0.1 -0.1)">
       <defs>
        <path id="DejaVuSans-16" d="M 2597 2516 
Q 3050 2419 3304 2112 
Q 3559 1806 3559 1356 
Q 3559 666 3084 287 
Q 2609 -91 1734 -91 
Q 1441 -91 1130 -33 
Q 819 25 488 141 
L 488 750 
Q 750 597 1062 519 
Q 1375 441 1716 441 
Q 2309 441 2620 675 
Q 2931 909 2931 1356 
Q 2931 1769 2642 2001 
Q 2353 2234 1838 2234 
L 1294 2234 
L 1294 2753 
L 1863 2753 
Q 2328 2753 2575 2939 
Q 2822 3125 2822 3475 
Q 2822 3834 2567 4026 
Q 2313 4219 1838 4219 
Q 1578 4219 1281 4162 
Q 984 4106 628 3988 
L 628 4550 
Q 988 4650 1302 4700 
Q 1616 4750 1894 4750 
Q 2613 4750 3031 4423 
Q 3450 4097 3450 3541 
Q 3450 3153 3228 2886 
Q 3006 2619 2597 2516 
z
" transform="scale(0.015625)"/>
       </defs>
       <use xlink:href="#DejaVuSans-16"/>
       <use xlink:href="#DejaVuSans-3" transform="translate(63.625 0)"/>
       <use xlink:href="#DejaVuSans-4e" transform="translate(95.40625 0)"/>
      </g>
     </g>
    </g>
    <g id="xtick_8">
     <g id="line2d_8">
      <g>
       <use xlink:href="#mb41a0818d3" x="366.87823" y="288.430125" style="stroke: #000000; stroke-width: 0.8"/>
      </g>
     </g>
     <g id="text_8">
      <!-- 3.5 k -->
      <g transform="translate(354.442293 303.028562) scale(0.1 -0.1)">
       <use xlink:href="#DejaVuSans-16"/>
       <use xlink:href="#DejaVuSans-11" transform="translate(63.625 0)"/>
       <use xlink:href="#DejaVuSans-18" transform="translate(95.40625 0)"/>
       <use xlink:href="#DejaVuSans-3" transform="translate(159.03125 0)"/>
       <use xlink:href="#DejaVuSans-4e" transform="translate(190.8125 0)"/>
      </g>
     </g>
    </g>
    <g id="xtick_9">
     <g id="line2d_9">
      <g>
       <use xlink:href="#mb41a0818d3" x="410.426794" y="288.430125" style="stroke: #000000; stroke-width: 0.8"/>
      </g>
     </g>
     <g id="text_9">
      <!-- 4 k -->
      <g transform="translate(402.761169 303.028562) scale(0.1 -0.1)">
       <defs>
        <path id="DejaVuSans-17" d="M 2419 4116 
L 825 1625 
L 2419 1625 
L 2419 4116 
z
M 2253 4666 
L 3047 4666 
L 3047 1625 
L 3713 1625 
L 3713 1100 
L 3047 1100 
L 3047 0 
L 2419 0 
L 2419 1100 
L 313 1100 
L 313 1709 
L 2253 4666 
z
" transform="scale(0.015625)"/>
       </defs>
       <use xlink:href="#DejaVuSans-17"/>
       <use xlink:href="#DejaVuSans-3" transform="translate(63.625 0)"/>
       <use xlink:href="#DejaVuSans-4e" transform="translate(95.40625 0)"/>
      </g>
     </g>
    </g>
    <g id="text_10">
     <!-- Amount of objects in table -->
     <g transform="translate(174.539688 317.029344) scale(0.1 -0.1)">
      <defs>
       <path id="DejaVuSans-24" d="M 2188 4044 
L 1331 1722 
L 3047 1722 
L 2188 4044 
z
M 1831 4666 
L 2547 4666 
L 4325 0 
L 3669 0 
L 3244 1197 
L 1141 1197 
L 716 0 
L 50 0 
L 1831 4666 
z
" transform="scale(0.015625)"/>
       <path id="DejaVuSans-50" d="M 3328 2828 
Q 3544 3216 3844 3400 
Q 4144 3584 4550 3584 
Q 5097 3584 5394 3201 
Q 5691 2819 5691 2113 
L 5691 0 
L 5113 0 
L 5113 2094 
Q 5113 2597 4934 2840 
Q 4756 3084 4391 3084 
Q 3944 3084 3684 2787 
Q 3425 2491 3425 1978 
L 3425 0 
L 2847 0 
L 2847 2094 
Q 2847 2600 2669 2842 
Q 2491 3084 2119 3084 
Q 1678 3084 1418 2786 
Q 1159 2488 1159 1978 
L 1159 0 
L 581 0 
L 581 3500 
L 1159 3500 
L 1159 2956 
Q 1356 3278 1631 3431 
Q 1906 3584 2284 3584 
Q 2666 3584 2933 3390 
Q 3200 3197 3328 2828 
z
" transform="scale(0.015625)"/>
       <path id="DejaVuSans-52" d="M 1959 3097 
Q 1497 3097 1228 2736 
Q 959 2375 959 1747 
Q 959 1119 1226 758 
Q 1494 397 1959 397 
Q 2419 397 2687 759 
Q 2956 1122 2956 1747 
Q 2956 2369 2687 2733 
Q 2419 3097 1959 3097 
z
M 1959 3584 
Q 2709 3584 3137 3096 
Q 3566 2609 3566 1747 
Q 3566 888 3137 398 
Q 2709 -91 1959 -91 
Q 1206 -91 779 398 
Q 353 888 353 1747 
Q 353 2609 779 3096 
Q 1206 3584 1959 3584 
z
" transform="scale(0.015625)"/>
       <path id="DejaVuSans-58" d="M 544 1381 
L 544 3500 
L 1119 3500 
L 1119 1403 
Q 1119 906 1312 657 
Q 1506 409 1894 409 
Q 2359 409 2629 706 
Q 2900 1003 2900 1516 
L 2900 3500 
L 3475 3500 
L 3475 0 
L 2900 0 
L 2900 538 
Q 2691 219 2414 64 
Q 2138 -91 1772 -91 
Q 1169 -91 856 284 
Q 544 659 544 1381 
z
M 1991 3584 
L 1991 3584 
z
" transform="scale(0.015625)"/>
       <path id="DejaVuSans-51" d="M 3513 2113 
L 3513 0 
L 2938 0 
L 2938 2094 
Q 2938 2591 2744 2837 
Q 2550 3084 2163 3084 
Q 1697 3084 1428 2787 
Q 1159 2491 1159 1978 
L 1159 0 
L 581 0 
L 581 3500 
L 1159 3500 
L 1159 2956 
Q 1366 3272 1645 3428 
Q 1925 3584 2291 3584 
Q 2894 3584 3203 3211 
Q 3513 2838 3513 2113 
z
" transform="scale(0.015625)"/>
       <path id="DejaVuSans-57" d="M 1172 4494 
L 1172 3500 
L 2356 3500 
L 2356 3053 
L 1172 3053 
L 1172 1153 
Q 1172 725 1289 603 
Q 1406 481 1766 481 
L 2356 481 
L 2356 0 
L 1766 0 
Q 1100 0 847 248 
Q 594 497 594 1153 
L 594 3053 
L 172 3053 
L 172 3500 
L 594 3500 
L 594 4494 
L 1172 4494 
z
" transform="scale(0.015625)"/>
       <path id="DejaVuSans-49" d="M 2375 4863 
L 2375 4384 
L 1825 4384 
Q 1516 4384 1395 4259 
Q 1275 4134 1275 3809 
L 1275 3500 
L 2222 3500 
L 2222 3053 
L 1275 3053 
L 1275 0 
L 697 0 
L 697 3053 
L 147 3053 
L 147 3500 
L 697 3500 
L 697 3744 
Q 697 4328 969 4595 
Q 1241 4863 1831 4863 
L 2375 4863 
z
" transform="scale(0.015625)"/>
       <path id="DejaVuSans-45" d="M 3116 1747 
Q 3116 2381 2855 2742 
Q 2594 3103 2138 3103 
Q 1681 3103 1420 2742 
Q 1159 2381 1159 1747 
Q 1159 1113 1420 752 
Q 1681 391 2138 391 
Q 2594 391 2855 752 
Q 3116 1113 3116 1747 
z
M 1159 2969 
Q 1341 3281 1617 3432 
Q 1894 3584 2278 3584 
Q 2916 3584 3314 3078 
Q 3713 2572 3713 1747 
Q 3713 922 3314 415 
Q 2916 -91 2278 -91 
Q 1894 -91 1617 61 
Q 1341 213 1159 525 
L 1159 0 
L 581 0 
L 581 4863 
L 1159 4863 
L 1159 2969 
z
" transform="scale(0.015625)"/>
       <path id="DejaVuSans-4d" d="M 603 3500 
L 1178 3500 
L 1178 -63 
Q 1178 -731 923 -1031 
Q 669 -1331 103 -1331 
L -116 -1331 
L -116 -844 
L 38 -844 
Q 366 -844 484 -692 
Q 603 -541 603 -63 
L 603 3500 
z
M 603 4863 
L 1178 4863 
L 1178 4134 
L 603 4134 
L 603 4863 
z
" transform="scale(0.015625)"/>
       <path id="DejaVuSans-48" d="M 3597 1894 
L 3597 1613 
L 953 1613 
Q 991 1019 1311 708 
Q 1631 397 2203 397 
Q 2534 397 2845 478 
Q 3156 559 3463 722 
L 3463 178 
Q 3153 47 2828 -22 
Q 2503 -91 2169 -91 
Q 1331 -91 842 396 
Q 353 884 353 1716 
Q 353 2575 817 3079 
Q 1281 3584 2069 3584 
Q 2775 3584 3186 3129 
Q 3597 2675 3597 1894 
z
M 3022 2063 
Q 3016 2534 2758 2815 
Q 2500 3097 2075 3097 
Q 1594 3097 1305 2825 
Q 1016 2553 972 2059 
L 3022 2063 
z
" transform="scale(0.015625)"/>
       <path id="DejaVuSans-46" d="M 3122 3366 
L 3122 2828 
Q 2878 2963 2633 3030 
Q 2388 3097 2138 3097 
Q 1578 3097 1268 2742 
Q 959 2388 959 1747 
Q 959 1106 1268 751 
Q 1578 397 2138 397 
Q 2388 397 2633 464 
Q 2878 531 3122 666 
L 3122 134 
Q 2881 22 2623 -34 
Q 2366 -91 2075 -91 
Q 1284 -91 818 406 
Q 353 903 353 1747 
Q 353 2603 823 3093 
Q 1294 3584 2113 3584 
Q 2378 3584 2631 3529 
Q 2884 3475 3122 3366 
z
" transform="scale(0.015625)"/>
       <path id="DejaVuSans-56" d="M 2834 3397 
L 2834 2853 
Q 2591 2978 2328 3040 
Q 2066 3103 1784 3103 
Q 1356 3103 1142 2972 
Q 928 2841 928 2578 
Q 928 2378 1081 2264 
Q 1234 2150 1697 2047 
L 1894 2003 
Q 2506 1872 2764 1633 
Q 3022 1394 3022 966 
Q 3022 478 2636 193 
Q 2250 -91 1575 -91 
Q 1294 -91 989 -36 
Q 684 19 347 128 
L 347 722 
Q 666 556 975 473 
Q 1284 391 1588 391 
Q 1994 391 2212 530 
Q 2431 669 2431 922 
Q 2431 1156 2273 1281 
Q 2116 1406 1581 1522 
L 1381 1569 
Q 847 1681 609 1914 
Q 372 2147 372 2553 
Q 372 3047 722 3315 
Q 1072 3584 1716 3584 
Q 2034 3584 2315 3537 
Q 2597 3491 2834 3397 
z
" transform="scale(0.015625)"/>
       <path id="DejaVuSans-4c" d="M 603 3500 
L 1178 3500 
L 1178 0 
L 603 0 
L 603 3500 
z
M 603 4863 
L 1178 4863 
L 1178 4134 
L 603 4134 
L 603 4863 
z
" transform="scale(0.015625)"/>
       <path id="DejaVuSans-44" d="M 2194 1759 
Q 1497 1759 1228 1600 
Q 959 1441 959 1056 
Q 959 750 1161 570 
Q 1363 391 1709 391 
Q 2188 391 2477 730 
Q 2766 1069 2766 1631 
L 2766 1759 
L 2194 1759 
z
M 3341 1997 
L 3341 0 
L 2766 0 
L 2766 531 
Q 2569 213 2275 61 
Q 1981 -91 1556 -91 
Q 1019 -91 701 211 
Q 384 513 384 1019 
Q 384 1609 779 1909 
Q 1175 2209 1959 2209 
L 2766 2209 
L 2766 2266 
Q 2766 2663 2505 2880 
Q 2244 3097 1772 3097 
Q 1472 3097 1187 3025 
Q 903 2953 641 2809 
L 641 3341 
Q 956 3463 1253 3523 
Q 1550 3584 1831 3584 
Q 2591 3584 2966 3190 
Q 3341 2797 3341 1997 
z
" transform="scale(0.015625)"/>
       <path id="DejaVuSans-4f" d="M 603 4863 
L 1178 4863 
L 1178 0 
L 603 0 
L 603 4863 
z
" transform="scale(0.015625)"/>
      </defs>
      <use xlink:href="#DejaVuSans-24"/>
      <use xlink:href="#DejaVuSans-50" transform="translate(68.40625 0)"/>
      <use xlink:href="#DejaVuSans-52" transform="translate(165.8125 0)"/>
      <use xlink:href="#DejaVuSans-58" transform="translate(227 0)"/>
      <use xlink:href="#DejaVuSans-51" transform="translate(290.375 0)"/>
      <use xlink:href="#DejaVuSans-57" transform="translate(353.75 0)"/>
      <use xlink:href="#DejaVuSans-3" transform="translate(392.953125 0)"/>
      <use xlink:href="#DejaVuSans-52" transform="translate(424.734375 0)"/>
      <use xlink:href="#DejaVuSans-49" transform="translate(485.921875 0)"/>
      <use xlink:href="#DejaVuSans-3" transform="translate(521.125 0)"/>
      <use xlink:href="#DejaVuSans-52" transform="translate(552.90625 0)"/>
      <use xlink:href="#DejaVuSans-45" transform="translate(614.09375 0)"/>
      <use xlink:href="#DejaVuSans-4d" transform="translate(677.578125 0)"/>
      <use xlink:href="#DejaVuSans-48" transform="translate(705.359375 0)"/>
      <use xlink:href="#DejaVuSans-46" transform="translate(766.890625 0)"/>
      <use xlink:href="#DejaVuSans-57" transform="translate(821.875 0)"/>
      <use xlink:href="#DejaVuSans-56" transform="translate(861.078125 0)"/>
      <use xlink:href="#DejaVuSans-3" transform="translate(913.171875 0)"/>
      <use xlink:href="#DejaVuSans-4c" transform="translate(944.953125 0)"/>
      <use xlink:href="#DejaVuSans-51" transform="translate(972.734375 0)"/>
      <use xlink:href="#DejaVuSans-3" transform="translate(1036.109375 0)"/>
      <use xlink:href="#DejaVuSans-57" transform="translate(1067.890625 0)"/>
      <use xlink:href="#DejaVuSans-44" transform="translate(1107.09375 0)"/>
      <use xlink:href="#DejaVuSans-45" transform="translate(1168.375 0)"/>
      <use xlink:href="#DejaVuSans-4f" transform="translate(1231.859375 0)"/>
      <use xlink:href="#DejaVuSans-48" transform="translate(1259.640625 0)"/>
     </g>
    </g>
   </g>
   <g id="matplotlib.axis_2">
    <g id="ytick_1">
     <g id="line2d_10">
      <defs>
       <path id="m39a2d7d0f7" d="M 0 0 
L -3.5 0 
" style="stroke: #000000; stroke-width: 0.8"/>
      </defs>
      <g>
       <use xlink:href="#m39a2d7d0f7" x="62.038281" y="288.430125" style="stroke: #000000; stroke-width: 0.8"/>
      </g>
     </g>
     <g id="text_11">
      <!-- 0 -->
      <g transform="translate(48.675781 292.228953) scale(0.1 -0.1)">
       <use xlink:href="#DejaVuSans-13"/>
      </g>
     </g>
    </g>
    <g id="ytick_2">
     <g id="line2d_11">
      <g>
       <use xlink:href="#m39a2d7d0f7" x="62.038281" y="256.475494" style="stroke: #000000; stroke-width: 0.8"/>
      </g>
     </g>
     <g id="text_12">
      <!-- 100 µs -->
      <g transform="translate(21.200781 260.274322) scale(0.1 -0.1)">
       <defs>
        <path id="DejaVuSans-77" d="M 544 -1331 
L 544 3500 
L 1119 3500 
L 1119 1325 
Q 1119 872 1334 640 
Q 1550 409 1972 409 
Q 2434 409 2667 671 
Q 2900 934 2900 1459 
L 2900 3500 
L 3475 3500 
L 3475 806 
Q 3475 619 3529 530 
Q 3584 441 3700 441 
Q 3728 441 3778 458 
Q 3828 475 3916 513 
L 3916 50 
Q 3788 -22 3673 -56 
Q 3559 -91 3450 -91 
Q 3234 -91 3106 31 
Q 2978 153 2931 403 
Q 2775 156 2548 32 
Q 2322 -91 2016 -91 
Q 1697 -91 1473 31 
Q 1250 153 1119 397 
L 1119 -1331 
L 544 -1331 
z
" transform="scale(0.015625)"/>
       </defs>
       <use xlink:href="#DejaVuSans-14"/>
       <use xlink:href="#DejaVuSans-13" transform="translate(63.625 0)"/>
       <use xlink:href="#DejaVuSans-13" transform="translate(127.25 0)"/>
       <use xlink:href="#DejaVuSans-3" transform="translate(190.875 0)"/>
       <use xlink:href="#DejaVuSans-77" transform="translate(222.65625 0)"/>
       <use xlink:href="#DejaVuSans-56" transform="translate(286.28125 0)"/>
      </g>
     </g>
    </g>
    <g id="ytick_3">
     <g id="line2d_12">
      <g>
       <use xlink:href="#m39a2d7d0f7" x="62.038281" y="224.520862" style="stroke: #000000; stroke-width: 0.8"/>
      </g>
     </g>
     <g id="text_13">
      <!-- 200 µs -->
      <g transform="translate(21.200781 228.31969) scale(0.1 -0.1)">
       <use xlink:href="#DejaVuSans-15"/>
       <use xlink:href="#DejaVuSans-13" transform="translate(63.625 0)"/>
       <use xlink:href="#DejaVuSans-13" transform="translate(127.25 0)"/>
       <use xlink:href="#DejaVuSans-3" transform="translate(190.875 0)"/>
       <use xlink:href="#DejaVuSans-77" transform="translate(222.65625 0)"/>
       <use xlink:href="#DejaVuSans-56" transform="translate(286.28125 0)"/>
      </g>
     </g>
    </g>
    <g id="ytick_4">
     <g id="line2d_13">
      <g>
       <use xlink:href="#m39a2d7d0f7" x="62.038281" y="192.566231" style="stroke: #000000; stroke-width: 0.8"/>
      </g>
     </g>
     <g id="text_14">
      <!-- 300 µs -->
      <g transform="translate(21.200781 196.365059) scale(0.1 -0.1)">
       <use xlink:href="#DejaVuSans-16"/>
       <use xlink:href="#DejaVuSans-13" transform="translate(63.625 0)"/>
       <use xlink:href="#DejaVuSans-13" transform="translate(127.25 0)"/>
       <use xlink:href="#DejaVuSans-3" transform="translate(190.875 0)"/>
       <use xlink:href="#DejaVuSans-77" transform="translate(222.65625 0)"/>
       <use xlink:href="#DejaVuSans-56" transform="translate(286.28125 0)"/>
      </g>
     </g>
    </g>
    <g id="ytick_5">
     <g id="line2d_14">
      <g>
       <use xlink:href="#m39a2d7d0f7" x="62.038281" y="160.6116" style="stroke: #000000; stroke-width: 0.8"/>
      </g>
     </g>
     <g id="text_15">
      <!-- 400 µs -->
      <g transform="translate(21.200781 164.410428) scale(0.1 -0.1)">
       <use xlink:href="#DejaVuSans-17"/>
       <use xlink:href="#DejaVuSans-13" transform="translate(63.625 0)"/>
       <use xlink:href="#DejaVuSans-13" transform="translate(127.25 0)"/>
       <use xlink:href="#DejaVuSans-3" transform="translate(190.875 0)"/>
       <use xlink:href="#DejaVuSans-77" transform="translate(222.65625 0)"/>
       <use xlink:href="#DejaVuSans-56" transform="translate(286.28125 0)"/>
      </g>
     </g>
    </g>
    <g id="ytick_6">
     <g id="line2d_15">
      <g>
       <use xlink:href="#m39a2d7d0f7" x="62.038281" y="128.656968" style="stroke: #000000; stroke-width: 0.8"/>
      </g>
     </g>
     <g id="text_16">
      <!-- 500 µs -->
      <g transform="translate(21.200781 132.455796) scale(0.1 -0.1)">
       <use xlink:href="#DejaVuSans-18"/>
       <use xlink:href="#DejaVuSans-13" transform="translate(63.625 0)"/>
       <use xlink:href="#DejaVuSans-13" transform="translate(127.25 0)"/>
       <use xlink:href="#DejaVuSans-3" transform="translate(190.875 0)"/>
       <use xlink:href="#DejaVuSans-77" transform="translate(222.65625 0)"/>
       <use xlink:href="#DejaVuSans-56" transform="translate(286.28125 0)"/>
      </g>
     </g>
    </g>
    <g id="ytick_7">
     <g id="line2d_16">
      <g>
       <use xlink:href="#m39a2d7d0f7" x="62.038281" y="96.702337" style="stroke: #000000; stroke-width: 0.8"/>
      </g>
     </g>
     <g id="text_17">
      <!-- 600 µs -->
      <g transform="translate(21.200781 100.501165) scale(0.1 -0.1)">
       <defs>
        <path id="DejaVuSans-19" d="M 2113 2584 
Q 1688 2584 1439 2293 
Q 1191 2003 1191 1497 
Q 1191 994 1439 701 
Q 1688 409 2113 409 
Q 2538 409 2786 701 
Q 3034 994 3034 1497 
Q 3034 2003 2786 2293 
Q 2538 2584 2113 2584 
z
M 3366 4563 
L 3366 3988 
Q 3128 4100 2886 4159 
Q 2644 4219 2406 4219 
Q 1781 4219 1451 3797 
Q 1122 3375 1075 2522 
Q 1259 2794 1537 2939 
Q 1816 3084 2150 3084 
Q 2853 3084 3261 2657 
Q 3669 2231 3669 1497 
Q 3669 778 3244 343 
Q 2819 -91 2113 -91 
Q 1303 -91 875 529 
Q 447 1150 447 2328 
Q 447 3434 972 4092 
Q 1497 4750 2381 4750 
Q 2619 4750 2861 4703 
Q 3103 4656 3366 4563 
z
" transform="scale(0.015625)"/>
       </defs>
       <use xlink:href="#DejaVuSans-19"/>
       <use xlink:href="#DejaVuSans-13" transform="translate(63.625 0)"/>
       <use xlink:href="#DejaVuSans-13" transform="translate(127.25 0)"/>
       <use xlink:href="#DejaVuSans-3" transform="translate(190.875 0)"/>
       <use xlink:href="#DejaVuSans-77" transform="translate(222.65625 0)"/>
       <use xlink:href="#DejaVuSans-56" transform="translate(286.28125 0)"/>
      </g>
     </g>
    </g>
    <g id="ytick_8">
     <g id="line2d_17">
      <g>
       <use xlink:href="#m39a2d7d0f7" x="62.038281" y="64.747705" style="stroke: #000000; stroke-width: 0.8"/>
      </g>
     </g>
     <g id="text_18">
      <!-- 700 µs -->
      <g transform="translate(21.200781 68.546534) scale(0.1 -0.1)">
       <defs>
        <path id="DejaVuSans-1a" d="M 525 4666 
L 3525 4666 
L 3525 4397 
L 1831 0 
L 1172 0 
L 2766 4134 
L 525 4134 
L 525 4666 
z
" transform="scale(0.015625)"/>
       </defs>
       <use xlink:href="#DejaVuSans-1a"/>
       <use xlink:href="#DejaVuSans-13" transform="translate(63.625 0)"/>
       <use xlink:href="#DejaVuSans-13" transform="translate(127.25 0)"/>
       <use xlink:href="#DejaVuSans-3" transform="translate(190.875 0)"/>
       <use xlink:href="#DejaVuSans-77" transform="translate(222.65625 0)"/>
       <use xlink:href="#DejaVuSans-56" transform="translate(286.28125 0)"/>
      </g>
     </g>
    </g>
    <g id="ytick_9">
     <g id="line2d_18">
      <g>
       <use xlink:href="#m39a2d7d0f7" x="62.038281" y="32.793074" style="stroke: #000000; stroke-width: 0.8"/>
      </g>
     </g>
     <g id="text_19">
      <!-- 800 µs -->
      <g transform="translate(21.200781 36.591902) scale(0.1 -0.1)">
       <defs>
        <path id="DejaVuSans-1b" d="M 2034 2216 
Q 1584 2216 1326 1975 
Q 1069 1734 1069 1313 
Q 1069 891 1326 650 
Q 1584 409 2034 409 
Q 2484 409 2743 651 
Q 3003 894 3003 1313 
Q 3003 1734 2745 1975 
Q 2488 2216 2034 2216 
z
M 1403 2484 
Q 997 2584 770 2862 
Q 544 3141 544 3541 
Q 544 4100 942 4425 
Q 1341 4750 2034 4750 
Q 2731 4750 3128 4425 
Q 3525 4100 3525 3541 
Q 3525 3141 3298 2862 
Q 3072 2584 2669 2484 
Q 3125 2378 3379 2068 
Q 3634 1759 3634 1313 
Q 3634 634 3220 271 
Q 2806 -91 2034 -91 
Q 1263 -91 848 271 
Q 434 634 434 1313 
Q 434 1759 690 2068 
Q 947 2378 1403 2484 
z
M 1172 3481 
Q 1172 3119 1398 2916 
Q 1625 2713 2034 2713 
Q 2441 2713 2670 2916 
Q 2900 3119 2900 3481 
Q 2900 3844 2670 4047 
Q 2441 4250 2034 4250 
Q 1625 4250 1398 4047 
Q 1172 3844 1172 3481 
z
" transform="scale(0.015625)"/>
       </defs>
       <use xlink:href="#DejaVuSans-1b"/>
       <use xlink:href="#DejaVuSans-13" transform="translate(63.625 0)"/>
       <use xlink:href="#DejaVuSans-13" transform="translate(127.25 0)"/>
       <use xlink:href="#DejaVuSans-3" transform="translate(190.875 0)"/>
       <use xlink:href="#DejaVuSans-77" transform="translate(222.65625 0)"/>
       <use xlink:href="#DejaVuSans-56" transform="translate(286.28125 0)"/>
      </g>
     </g>
    </g>
    <g id="text_20">
     <!-- Read latency (s) -->
     <g transform="translate(14.798438 195.990531) rotate(-90) scale(0.1 -0.1)">
      <defs>
       <path id="DejaVuSans-35" d="M 2841 2188 
Q 3044 2119 3236 1894 
Q 3428 1669 3622 1275 
L 4263 0 
L 3584 0 
L 2988 1197 
Q 2756 1666 2539 1819 
Q 2322 1972 1947 1972 
L 1259 1972 
L 1259 0 
L 628 0 
L 628 4666 
L 2053 4666 
Q 2853 4666 3247 4331 
Q 3641 3997 3641 3322 
Q 3641 2881 3436 2590 
Q 3231 2300 2841 2188 
z
M 1259 4147 
L 1259 2491 
L 2053 2491 
Q 2509 2491 2742 2702 
Q 2975 2913 2975 3322 
Q 2975 3731 2742 3939 
Q 2509 4147 2053 4147 
L 1259 4147 
z
" transform="scale(0.015625)"/>
       <path id="DejaVuSans-47" d="M 2906 2969 
L 2906 4863 
L 3481 4863 
L 3481 0 
L 2906 0 
L 2906 525 
Q 2725 213 2448 61 
Q 2172 -91 1784 -91 
Q 1150 -91 751 415 
Q 353 922 353 1747 
Q 353 2572 751 3078 
Q 1150 3584 1784 3584 
Q 2172 3584 2448 3432 
Q 2725 3281 2906 2969 
z
M 947 1747 
Q 947 1113 1208 752 
Q 1469 391 1925 391 
Q 2381 391 2643 752 
Q 2906 1113 2906 1747 
Q 2906 2381 2643 2742 
Q 2381 3103 1925 3103 
Q 1469 3103 1208 2742 
Q 947 2381 947 1747 
z
" transform="scale(0.015625)"/>
       <path id="DejaVuSans-5c" d="M 2059 -325 
Q 1816 -950 1584 -1140 
Q 1353 -1331 966 -1331 
L 506 -1331 
L 506 -850 
L 844 -850 
Q 1081 -850 1212 -737 
Q 1344 -625 1503 -206 
L 1606 56 
L 191 3500 
L 800 3500 
L 1894 763 
L 2988 3500 
L 3597 3500 
L 2059 -325 
z
" transform="scale(0.015625)"/>
       <path id="DejaVuSans-b" d="M 1984 4856 
Q 1566 4138 1362 3434 
Q 1159 2731 1159 2009 
Q 1159 1288 1364 580 
Q 1569 -128 1984 -844 
L 1484 -844 
Q 1016 -109 783 600 
Q 550 1309 550 2009 
Q 550 2706 781 3412 
Q 1013 4119 1484 4856 
L 1984 4856 
z
" transform="scale(0.015625)"/>
       <path id="DejaVuSans-c" d="M 513 4856 
L 1013 4856 
Q 1481 4119 1714 3412 
Q 1947 2706 1947 2009 
Q 1947 1309 1714 600 
Q 1481 -109 1013 -844 
L 513 -844 
Q 928 -128 1133 580 
Q 1338 1288 1338 2009 
Q 1338 2731 1133 3434 
Q 928 4138 513 4856 
z
" transform="scale(0.015625)"/>
      </defs>
      <use xlink:href="#DejaVuSans-35"/>
      <use xlink:href="#DejaVuSans-48" transform="translate(65 0)"/>
      <use xlink:href="#DejaVuSans-44" transform="translate(126.53125 0)"/>
      <use xlink:href="#DejaVuSans-47" transform="translate(187.8125 0)"/>
      <use xlink:href="#DejaVuSans-3" transform="translate(251.296875 0)"/>
      <use xlink:href="#DejaVuSans-4f" transform="translate(283.078125 0)"/>
      <use xlink:href="#DejaVuSans-44" transform="translate(310.859375 0)"/>
      <use xlink:href="#DejaVuSans-57" transform="translate(372.140625 0)"/>
      <use xlink:href="#DejaVuSans-48" transform="translate(411.34375 0)"/>
      <use xlink:href="#DejaVuSans-51" transform="translate(472.875 0)"/>
      <use xlink:href="#DejaVuSans-46" transform="translate(536.25 0)"/>
      <use xlink:href="#DejaVuSans-5c" transform="translate(591.234375 0)"/>
      <use xlink:href="#DejaVuSans-3" transform="translate(650.421875 0)"/>
      <use xlink:href="#DejaVuSans-b" transform="translate(682.203125 0)"/>
      <use xlink:href="#DejaVuSans-56" transform="translate(721.21875 0)"/>
      <use xlink:href="#DejaVuSans-c" transform="translate(773.3125 0)"/>
     </g>
    </g>
   </g>
   <g id="line2d_19">
    <path d="M 147.393467 173.129787 
L 147.828953 173.081341 
L 148.264438 173.3392 
L 148.699924 173.757245 
L 150.006381 174.523791 
L 150.441866 175.007473 
L 151.312838 175.689239 
L 152.183809 176.341311 
L 152.619295 176.587449 
L 153.490266 177.36767 
L 156.538665 179.532518 
L 157.409637 180.106451 
L 157.845122 180.744849 
L 158.280608 181.035917 
L 161.764493 184.789727 
L 162.635464 185.738729 
L 163.506436 186.398615 
L 164.377407 187.48436 
L 166.119349 189.194047 
L 166.554835 188.936969 
L 166.990321 189.271795 
L 167.425806 189.847682 
L 170.474206 192.554816 
L 170.909692 193.098275 
L 171.345177 193.451464 
L 172.216148 193.020526 
L 173.958091 191.566745 
L 174.829062 190.158676 
L 175.700034 189.553097 
L 176.135519 188.790848 
L 176.571005 188.338031 
L 177.006491 188.717007 
L 177.441976 188.158702 
L 177.877462 185.620348 
L 179.183919 184.28065 
L 179.619404 184.029042 
L 180.05489 183.513713 
L 180.925861 182.208397 
L 181.361347 181.794259 
L 181.796833 181.597739 
L 182.232318 181.008959 
L 183.103289 180.703826 
L 183.538775 179.949782 
L 184.409746 179.367644 
L 184.845232 178.872632 
L 185.716203 178.240095 
L 186.151689 178.106477 
L 187.893632 176.518296 
L 188.329117 176.342483 
L 189.200088 175.391919 
L 189.635574 174.967622 
L 190.07106 175.027008 
L 190.506545 175.626727 
L 190.942031 175.121166 
L 191.377517 174.142081 
L 192.248488 173.270438 
L 192.683974 173.476725 
L 193.990431 172.338236 
L 194.861402 171.145441 
L 196.167859 170.048365 
L 196.603344 169.561948 
L 197.03883 169.317763 
L 198.345287 167.990959 
L 199.216258 168.812593 
L 200.522715 170.657852 
L 200.958201 171.384156 
L 201.393686 171.877215 
L 202.264658 172.523036 
L 203.135629 173.618157 
L 204.442086 175.077408 
L 204.877572 175.777536 
L 207.925971 179.144166 
L 208.361457 179.473914 
L 209.667914 181.336363 
L 210.974371 182.531503 
L 211.845342 183.948558 
L 212.716313 185.462506 
L 214.02277 187.494127 
L 214.458256 189.778528 
L 215.329227 190.747846 
L 218.377626 190.11023 
L 222.296997 189.394474 
L 225.345397 188.891257 
L 227.958311 188.331389 
L 228.829282 188.129009 
L 231.442196 187.670331 
L 232.313167 187.435913 
L 234.490595 187.059282 
L 237.103509 186.378689 
L 239.280937 186.037611 
L 240.151908 184.497877 
L 240.587394 182.931185 
L 241.893851 180.735863 
L 243.200308 178.642121 
L 244.071279 177.181308 
L 247.555164 171.088008 
L 248.426136 169.274787 
L 248.861621 168.308595 
L 249.297107 166.847391 
L 250.168078 165.515898 
L 251.039049 163.812071 
L 251.474535 163.538584 
L 251.910021 162.643498 
L 252.345506 162.075035 
L 252.780992 161.124862 
L 253.651963 159.798839 
L 255.393906 156.14661 
L 255.829392 155.492584 
L 256.264877 154.592811 
L 257.135848 154.274393 
L 257.571334 150.136138 
L 258.00682 148.357688 
L 258.877791 148.290098 
L 259.313277 148.774952 
L 259.748762 148.959361 
L 260.619734 148.621799 
L 261.055219 149.172681 
L 261.490705 149.344196 
L 261.926191 148.524125 
L 262.361676 148.894896 
L 262.797162 150.244361 
L 263.668133 150.667876 
L 264.103619 150.617866 
L 264.539104 150.444788 
L 264.97459 150.657717 
L 265.410076 150.538164 
L 265.845561 150.787819 
L 266.281047 149.870464 
L 266.716533 150.497141 
L 267.152018 150.872991 
L 268.022989 150.111133 
L 268.458475 150.431504 
L 268.893961 150.01385 
L 269.329446 149.881795 
L 270.635903 150.107226 
L 271.071389 150.40103 
L 271.94236 150.362742 
L 272.377846 150.588564 
L 272.813332 150.459634 
L 273.248817 150.081831 
L 273.684303 150.331095 
L 274.99076 150.097068 
L 275.426245 150.191617 
L 275.861731 149.788809 
L 276.297217 149.773572 
L 276.732702 149.59893 
L 277.168188 149.714967 
L 277.603674 149.445387 
L 278.474645 149.456326 
L 279.345616 149.782167 
L 279.781102 149.462968 
L 280.216587 149.394206 
L 280.652073 148.965612 
L 281.087559 149.036718 
L 281.523044 148.962486 
L 281.95853 148.172889 
L 282.829501 148.468646 
L 283.264987 148.277986 
L 284.571444 145.858013 
L 285.442415 144.456195 
L 285.877901 143.00593 
L 286.313386 142.155385 
L 286.748872 141.65334 
L 287.184358 140.380061 
L 287.619843 138.526988 
L 288.055329 137.651047 
L 288.490815 137.14236 
L 288.9263 136.230475 
L 289.361786 135.74484 
L 290.232757 133.885516 
L 291.103728 132.390321 
L 292.845671 129.524173 
L 293.281157 128.187601 
L 293.716642 127.657036 
L 294.587614 126.128632 
L 295.023099 125.130403 
L 295.458585 124.498647 
L 295.894071 123.518781 
L 296.329556 122.903043 
L 296.765042 121.955995 
L 297.200527 115.197731 
L 298.506984 112.671488 
L 299.377956 111.555269 
L 299.813441 110.149153 
L 300.248927 109.333379 
L 300.684413 108.759446 
L 301.555384 107.242373 
L 303.297326 104.427406 
L 306.345726 98.500934 
L 307.216697 97.266724 
L 307.652183 96.745535 
L 308.523154 94.970993 
L 309.394125 93.385938 
L 310.700582 90.956979 
L 311.571554 89.467254 
L 312.007039 88.686252 
L 312.442525 87.036342 
L 313.313496 82.104582 
L 313.748982 80.441779 
L 314.184467 79.362285 
L 314.619953 78.816482 
L 315.055439 77.948746 
L 315.490924 77.466236 
L 316.361896 75.415471 
L 316.797381 72.653639 
L 317.232867 71.75113 
L 317.668353 70.482149 
L 318.97481 68.332147 
L 319.410295 67.644131 
L 319.845781 66.606051 
L 320.281266 64.026674 
L 320.716752 63.596908 
L 322.89418 59.532885 
L 323.329666 57.612222 
L 323.765152 55.135989 
L 324.200637 51.167296 
L 324.636123 51.248561 
L 325.071608 51.065324 
L 325.507094 51.581434 
L 326.813551 50.642591 
L 327.249037 50.654312 
L 327.684522 50.262053 
L 328.555494 49.752975 
L 329.861951 48.90282 
L 330.297436 49.09934 
L 330.732922 49.125908 
L 331.168407 48.456645 
L 331.603893 48.664105 
L 332.039379 48.494152 
L 332.474864 48.499231 
L 332.91035 47.918265 
L 333.781321 47.723699 
L 334.216807 47.336519 
L 335.523264 46.730939 
L 335.95875 46.761804 
L 336.394235 46.660614 
L 336.829721 46.814939 
L 337.265206 46.407834 
L 337.700692 46.628577 
L 338.136178 46.422289 
L 339.007149 46.490661 
L 339.442635 46.367201 
L 340.313606 46.582475 
L 340.749092 46.404708 
L 341.184577 46.357824 
L 342.055548 45.944858 
L 342.491034 47.460369 
L 342.92652 46.370717 
L 343.797491 46.244913 
L 344.232977 46.084728 
L 344.668462 46.14216 
L 345.103948 45.413121 
L 346.410405 44.806369 
L 346.845891 45.459614 
L 347.281376 44.994294 
L 347.716862 45.692469 
L 348.587833 46.019481 
L 349.023319 43.217408 
L 349.89429 43.289296 
L 350.329776 43.827285 
L 350.765261 43.79095 
L 351.200747 44.790742 
L 351.636233 44.832937 
L 352.071718 43.990596 
L 352.507204 44.225013 
L 352.94269 43.346728 
L 354.249146 43.741722 
L 354.684632 43.546374 
L 356.426575 43.831973 
L 356.86206 43.40416 
L 357.297546 41.557339 
L 358.604003 38.524754 
L 359.039488 38.634149 
L 359.474974 38.324327 
L 359.91046 38.509517 
L 360.345945 38.484513 
L 360.781431 38.916623 
L 361.216917 39.660118 
L 361.652402 39.802722 
L 362.087888 39.81288 
L 362.958859 39.590574 
L 363.829831 39.421793 
L 364.265316 39.099469 
L 365.136287 37.010025 
L 365.571773 37.288982 
L 366.007259 37.036202 
L 366.442744 37.190136 
L 366.87823 38.192663 
L 367.313716 37.372591 
L 368.184687 37.20928 
L 368.620173 36.775216 
L 369.055658 36.960016 
L 369.92663 36.814677 
L 370.362115 34.990125 
L 370.797601 35.516002 
L 371.233086 35.544523 
L 371.668572 35.303073 
L 372.104058 35.984056 
L 372.539543 37.099104 
L 372.975029 37.12489 
L 373.410515 36.667775 
L 373.846 36.914695 
L 374.281486 36.722863 
L 374.716972 37.242489 
L 375.587943 37.373372 
L 376.023428 36.8557 
L 376.458914 36.860388 
L 376.8944 35.859815 
L 377.765371 35.474588 
L 378.200857 36.191516 
L 378.636342 35.87974 
L 379.507314 36.310678 
L 379.942799 36.537282 
L 380.378285 36.373581 
L 380.813771 36.479069 
L 381.249256 36.352874 
L 381.684742 36.414994 
L 382.120227 42.310602 
L 383.426684 42.447736 
L 384.297656 41.876929 
L 384.733141 42.683716 
L 385.168627 42.913837 
L 387.781541 43.061911 
L 388.217026 42.893911 
L 388.652512 42.911102 
L 389.087998 43.092385 
L 390.394455 42.956423 
L 390.82994 43.274449 
L 391.265426 42.919697 
L 391.700912 41.958975 
L 392.136397 40.664598 
L 392.571883 40.506366 
L 393.007369 40.786495 
L 393.442854 40.653268 
L 393.87834 39.612453 
L 394.313825 39.584323 
L 394.749311 39.742945 
L 395.184797 40.04847 
L 395.620282 39.934387 
L 396.055768 38.978353 
L 396.491254 39.115487 
L 396.926739 39.090483 
L 397.362225 39.96408 
L 397.797711 42.034379 
L 398.233196 43.510821 
L 398.668682 44.069907 
L 399.104167 44.270334 
L 400.410624 43.996847 
L 400.84611 44.27346 
L 401.281596 43.740941 
L 401.717081 45.975724 
L 402.152567 45.971035 
L 402.152567 45.971035 
" clip-path="url(#p7da8967ea3)" style="fill: none; stroke: #1f77b4; stroke-opacity: 0.8; stroke-width: 1.5; stroke-linecap: square"/>
   </g>
   <g id="line2d_20">
    <path d="M 147.393467 201.498636 
L 148.699924 201.090358 
L 149.135409 200.746936 
L 150.006381 200.691067 
L 150.877352 200.913764 
L 151.312838 200.65903 
L 151.748323 200.566044 
L 152.183809 200.885243 
L 153.925752 200.680127 
L 154.361237 199.963981 
L 154.796723 199.624466 
L 155.232208 199.66588 
L 156.10318 199.434587 
L 157.409637 198.489884 
L 158.280608 198.28555 
L 158.716094 197.981979 
L 159.151579 197.91009 
L 161.329007 196.913034 
L 161.764493 197.448287 
L 162.635464 196.97828 
L 163.941921 196.111715 
L 165.683864 195.340872 
L 166.119349 195.479569 
L 166.554835 195.41276 
L 166.990321 194.826325 
L 167.425806 194.918529 
L 167.861292 194.792725 
L 168.296778 194.798585 
L 169.167749 194.170736 
L 169.603235 193.568283 
L 170.03872 193.311986 
L 170.474206 193.211967 
L 170.909692 192.981066 
L 171.345177 193.031466 
L 171.780663 192.958406 
L 172.651634 192.150446 
L 173.08712 192.076604 
L 174.393577 192.284845 
L 174.829062 191.940251 
L 175.264548 191.888679 
L 175.700034 192.079339 
L 177.877462 190.590395 
L 179.183919 190.446619 
L 179.619404 190.552107 
L 180.05489 190.433726 
L 180.925861 189.940667 
L 181.361347 189.934807 
L 183.103289 189.153805 
L 183.974261 188.670123 
L 184.409746 188.513454 
L 184.845232 188.080172 
L 185.280718 187.90553 
L 185.716203 187.859428 
L 186.587175 187.253849 
L 187.02266 187.182742 
L 188.764603 186.282187 
L 189.200088 186.283359 
L 190.506545 185.600813 
L 190.942031 185.560962 
L 191.377517 185.687157 
L 191.813002 185.280833 
L 192.248488 185.191363 
L 192.683974 184.867476 
L 195.732373 184.476389 
L 196.167859 184.571328 
L 197.474316 183.685229 
L 199.216258 183.559034 
L 199.651744 183.67468 
L 200.087229 183.409007 
L 200.958201 183.628969 
L 201.393686 183.787982 
L 201.829172 183.227724 
L 202.700143 182.636209 
L 203.135629 182.426405 
L 203.571115 181.948975 
L 204.442086 181.411377 
L 204.877572 181.372698 
L 205.313057 181.037089 
L 205.748543 180.956997 
L 206.184028 180.660849 
L 206.619514 180.665537 
L 207.055 180.504961 
L 207.490485 180.179511 
L 207.925971 180.289687 
L 209.667914 179.265672 
L 210.103399 179.328575 
L 210.538885 178.493657 
L 212.280827 179.171124 
L 212.716313 179.110957 
L 213.587284 178.294401 
L 214.02277 178.236188 
L 214.458256 178.33269 
L 214.893741 177.903314 
L 215.329227 177.01995 
L 215.764713 176.883597 
L 216.200198 176.601514 
L 216.635684 176.546426 
L 217.942141 175.787303 
L 218.377626 175.417314 
L 218.813112 175.365742 
L 219.684083 174.715623 
L 220.119569 173.575962 
L 220.99054 173.034848 
L 221.426026 172.188209 
L 222.732483 171.686946 
L 223.603454 171.502146 
L 224.474425 171.639281 
L 224.909911 170.812567 
L 225.345397 170.556661 
L 225.780882 170.522671 
L 226.216368 169.997575 
L 226.651854 168.763365 
L 227.087339 168.590677 
L 227.522825 168.595757 
L 227.958311 168.360557 
L 228.829282 167.574867 
L 229.264767 167.390068 
L 229.700253 167.078683 
L 230.135739 167.07712 
L 230.571224 165.266633 
L 231.442196 164.154321 
L 231.877681 164.022266 
L 232.313167 163.630007 
L 232.748653 163.652667 
L 233.184138 163.516314 
L 234.490595 162.63334 
L 236.232538 161.179169 
L 236.668023 160.586873 
L 238.409966 160.002391 
L 238.845452 159.904717 
L 239.280937 160.202428 
L 239.716423 160.15281 
L 240.151908 159.708979 
L 240.587394 159.482375 
L 241.02288 159.062767 
L 241.458365 158.922898 
L 241.893851 158.577131 
L 242.329337 158.47555 
L 243.635794 157.676967 
L 244.506765 157.13429 
L 245.813222 156.57325 
L 246.248707 156.171614 
L 246.684193 156.182163 
L 247.99065 155.589867 
L 248.426136 155.693402 
L 248.861621 155.567989 
L 250.168078 155.527356 
L 250.603564 155.386315 
L 251.474535 154.783861 
L 251.910021 155.217534 
L 252.345506 155.09212 
L 252.780992 154.649462 
L 253.651963 154.403714 
L 254.087449 153.466433 
L 254.522935 153.936831 
L 255.829392 153.413689 
L 256.264877 152.543999 
L 256.700363 152.220112 
L 257.135848 152.088447 
L 257.571334 152.184559 
L 258.00682 152.079852 
L 258.442305 151.675481 
L 258.877791 150.618257 
L 259.313277 150.229905 
L 260.619734 149.679414 
L 261.055219 149.857962 
L 261.490705 149.815767 
L 261.926191 149.589163 
L 262.797162 149.412178 
L 263.232647 149.255118 
L 263.668133 149.249648 
L 264.103619 147.400092 
L 264.97459 146.899219 
L 265.845561 146.609713 
L 266.281047 145.945139 
L 266.716533 145.841213 
L 267.152018 145.490368 
L 267.587504 145.48021 
L 268.458475 145.132881 
L 268.893961 144.388995 
L 269.329446 144.020178 
L 269.764932 144.04362 
L 270.200418 142.089748 
L 270.635903 141.264206 
L 271.506875 141.561526 
L 271.94236 141.601377 
L 272.377846 141.414624 
L 273.248817 141.302885 
L 275.426245 140.617213 
L 275.861731 140.611744 
L 276.297217 140.288247 
L 276.732702 140.413661 
L 278.039159 140.373809 
L 278.474645 140.532823 
L 279.345616 140.441791 
L 280.216587 140.364042 
L 280.652073 140.171819 
L 281.087559 140.134703 
L 281.523044 140.240973 
L 281.95853 139.701812 
L 282.394016 139.692435 
L 282.829501 139.448641 
L 283.700473 139.648286 
L 284.135958 139.416213 
L 284.571444 139.359171 
L 285.442415 138.924717 
L 285.877901 138.671936 
L 286.313386 138.648495 
L 286.748872 139.037237 
L 287.184358 138.238654 
L 289.361786 138.512532 
L 289.797272 138.310542 
L 290.232757 138.299212 
L 290.668243 138.119883 
L 292.410185 138.086673 
L 292.845671 138.005799 
L 293.281157 138.158561 
L 293.716642 138.056199 
L 294.152128 137.763568 
L 294.587614 137.055235 
L 295.023099 136.914975 
L 295.458585 137.343569 
L 295.894071 136.943496 
L 297.636013 136.292596 
L 298.506984 137.023589 
L 299.377956 136.556707 
L 299.813441 137.163458 
L 300.248927 138.133557 
L 300.684413 137.384592 
L 301.119898 137.349039 
L 302.426355 137.815139 
L 302.861841 138.167547 
L 303.297326 137.527196 
L 303.732812 137.614322 
L 304.603783 137.564703 
L 305.039269 138.442598 
L 305.474755 138.58403 
L 305.91024 138.553165 
L 306.345726 139.121628 
L 306.781212 138.315621 
L 307.216697 138.312887 
L 308.087668 137.590098 
L 308.523154 136.786827 
L 308.95864 136.720799 
L 309.394125 136.836445 
L 309.829611 137.427178 
L 310.265097 137.167365 
L 310.700582 136.740334 
L 311.136068 136.673916 
L 311.571554 137.733484 
L 312.007039 137.86007 
L 312.442525 137.65847 
L 313.313496 137.729186 
L 314.184467 137.124779 
L 314.619953 137.225579 
L 315.055439 136.977096 
L 315.490924 138.585593 
L 317.232867 138.98254 
L 317.668353 138.882131 
L 318.539324 139.266576 
L 318.97481 139.66704 
L 319.410295 139.761198 
L 320.281266 139.720956 
L 320.716752 140.141345 
L 321.152238 140.348414 
L 322.458695 140.514069 
L 324.636123 139.882704 
L 325.94258 139.859653 
L 326.378065 138.994261 
L 326.813551 139.102874 
L 328.120008 138.814541 
L 328.555494 139.02747 
L 329.426465 138.871582 
L 329.861951 138.839154 
L 330.297436 138.979805 
L 330.732922 139.359171 
L 331.168407 138.878615 
L 332.039379 138.76922 
L 332.474864 138.691862 
L 332.91035 137.809279 
L 333.781321 137.828423 
L 334.216807 137.606508 
L 334.652293 137.143923 
L 336.394235 136.544986 
L 336.829721 136.174215 
L 337.265206 135.994495 
L 337.700692 136.112876 
L 338.571663 135.777658 
L 339.007149 136.57546 
L 339.442635 136.248057 
L 340.313606 136.997803 
L 340.749092 136.977096 
L 341.184577 137.561578 
L 343.362005 138.256236 
L 343.797491 139.116158 
L 344.668462 138.019083 
L 345.103948 138.224589 
L 345.539434 138.271082 
L 346.410405 137.831549 
L 346.845891 137.027105 
L 347.281376 136.71572 
L 348.587833 136.424651 
L 349.023319 138.013222 
L 349.458804 138.206226 
L 350.765261 138.260924 
L 351.200747 138.814541 
L 351.636233 138.903229 
L 352.071718 138.575044 
L 352.94269 138.27577 
L 353.378175 138.476979 
L 353.813661 139.113814 
L 354.249146 139.114205 
L 354.684632 138.989963 
L 355.120118 140.386702 
L 355.555603 140.552358 
L 355.991089 140.36873 
L 356.426575 140.483595 
L 357.733032 140.341772 
L 358.168517 139.697123 
L 359.039488 139.49904 
L 359.91046 139.666258 
L 360.345945 139.500994 
L 360.781431 139.52678 
L 361.652402 139.870983 
L 362.087888 139.586947 
L 362.523374 138.102692 
L 363.394345 137.578377 
L 363.829831 137.876479 
L 364.700802 137.892888 
L 365.136287 138.012832 
L 366.007259 137.926879 
L 366.442744 137.634638 
L 367.313716 138.391026 
L 367.749201 138.467602 
L 368.184687 138.124962 
L 368.620173 137.972981 
L 369.055658 138.150748 
L 370.362115 136.850901 
L 370.797601 136.888799 
L 371.233086 136.73838 
L 371.668572 136.72158 
L 372.104058 137.559233 
L 372.975029 137.277541 
L 373.846 137.291216 
L 375.152457 137.358415 
L 375.587943 137.073989 
L 376.8944 137.100947 
L 377.329885 137.33849 
L 377.765371 136.399256 
L 378.200857 136.229694 
L 378.636342 135.665138 
L 379.071828 133.159212 
L 379.507314 133.8484 
L 379.942799 133.538187 
L 380.813771 133.349871 
L 381.249256 132.731399 
L 382.555713 132.394619 
L 382.991199 132.416889 
L 383.426684 132.639976 
L 384.297656 132.76578 
L 384.733141 132.547772 
L 385.168627 132.617316 
L 385.604113 133.099435 
L 386.039598 133.022859 
L 386.91057 132.604423 
L 387.346055 132.657558 
L 387.781541 132.295773 
L 388.217026 133.018952 
L 389.087998 133.237351 
L 389.523483 132.838059 
L 389.958969 133.019733 
L 390.394455 132.91151 
L 390.82994 132.240685 
L 391.265426 132.158248 
L 391.700912 132.653651 
L 392.571883 132.867362 
L 393.007369 132.780236 
L 393.442854 133.40496 
L 393.87834 133.347918 
L 394.313825 133.046691 
L 395.184797 133.392457 
L 396.055768 133.910911 
L 396.491254 133.692512 
L 396.926739 132.926357 
L 397.797711 133.006449 
L 398.233196 132.829073 
L 399.104167 133.549908 
L 399.975139 133.527248 
L 400.410624 133.744475 
L 400.84611 133.378783 
L 401.281596 133.839414 
L 401.717081 133.544048 
L 402.152567 133.50615 
L 402.152567 133.50615 
" clip-path="url(#p7da8967ea3)" style="fill: none; stroke: #ff7f0e; stroke-opacity: 0.8; stroke-width: 1.5; stroke-linecap: square"/>
   </g>
   <g id="line2d_21">
    <path d="M 0 0 
" clip-path="url(#p7da8967ea3)" style="fill: none; stroke: #2ca02c; stroke-opacity: 0.8; stroke-width: 1.5; stroke-linecap: square"/>
   </g>
   <g id="line2d_22">
    <path d="M 147.393467 229.858108 
L 149.135409 228.392606 
L 149.570895 228.166784 
L 150.006381 228.105054 
L 150.877352 227.41274 
L 151.312838 226.910305 
L 151.748323 226.593841 
L 152.619295 225.72376 
L 153.490266 225.081455 
L 153.925752 224.509085 
L 155.667694 223.171341 
L 156.538665 222.002378 
L 160.022551 218.202465 
L 162.199979 216.567011 
L 163.07095 215.850864 
L 163.941921 214.721361 
L 165.683864 213.160139 
L 166.119349 212.367807 
L 167.861292 210.135759 
L 168.296778 209.807183 
L 169.603235 208.292845 
L 170.474206 207.415341 
L 170.909692 206.47806 
L 171.345177 204.533956 
L 171.780663 203.884618 
L 172.216148 202.795357 
L 173.08712 201.910039 
L 173.522605 201.567789 
L 174.393577 200.534788 
L 175.700034 198.078871 
L 176.135519 197.458055 
L 176.571005 197.0908 
L 177.006491 196.489909 
L 177.441976 196.135157 
L 178.748433 194.545805 
L 179.183919 194.170736 
L 179.619404 193.523352 
L 180.490376 192.659914 
L 181.796833 190.915845 
L 182.232318 190.341912 
L 183.103289 189.663273 
L 184.845232 187.539839 
L 185.280718 186.948324 
L 186.587175 185.719194 
L 187.458146 184.380278 
L 188.329117 183.2539 
L 188.764603 182.671372 
L 189.200088 182.325215 
L 190.07106 181.206261 
L 191.377517 180.130674 
L 191.813002 179.478602 
L 193.119459 178.20962 
L 193.990431 177.393846 
L 195.296887 176.410073 
L 195.732373 175.552886 
L 196.167859 175.062952 
L 196.603344 173.883831 
L 197.474316 172.707444 
L 199.216258 170.203081 
L 200.958201 168.745393 
L 201.829172 167.671369 
L 202.700143 167.17245 
L 203.571115 166.594219 
L 204.442086 166.536396 
L 205.313057 166.554368 
L 205.748543 166.423485 
L 206.619514 165.87651 
L 207.490485 165.735469 
L 209.232428 165.230689 
L 209.667914 165.179899 
L 210.103399 166.411374 
L 210.974371 166.339095 
L 211.409856 166.290648 
L 211.845342 165.156066 
L 213.587284 165.280698 
L 214.02277 165.041592 
L 214.458256 165.154113 
L 214.893741 165.465107 
L 215.329227 165.509256 
L 215.764713 165.242801 
L 216.635684 165.167397 
L 218.377626 165.459247 
L 218.813112 165.172476 
L 219.248598 165.37681 
L 219.684083 164.669259 
L 220.555055 164.586822 
L 220.99054 164.802877 
L 221.426026 164.756775 
L 221.861512 164.240665 
L 222.296997 164.196907 
L 223.603454 164.676291 
L 224.03894 163.406528 
L 224.474425 163.378007 
L 224.909911 163.521393 
L 225.345397 163.483886 
L 225.780882 163.871066 
L 226.216368 163.83395 
L 226.651854 163.533505 
L 227.087339 163.520221 
L 227.958311 162.91347 
L 228.393796 162.154347 
L 229.264767 161.832804 
L 229.700253 161.268247 
L 230.135739 160.900212 
L 230.571224 160.771672 
L 231.00671 159.604272 
L 231.442196 159.24405 
L 231.877681 159.173334 
L 232.748653 159.259678 
L 233.184138 159.215529 
L 235.361566 157.971552 
L 236.232538 157.822697 
L 236.668023 157.628521 
L 237.103509 156.263819 
L 237.97448 156.338832 
L 238.409966 156.277102 
L 238.845452 156.491985 
L 240.587394 156.299372 
L 241.02288 156.598645 
L 241.893851 156.514255 
L 242.329337 156.70218 
L 243.200308 156.396655 
L 243.635794 156.454088 
L 244.071279 156.328283 
L 244.942251 156.45526 
L 245.377736 156.138014 
L 245.813222 156.11848 
L 246.248707 155.851634 
L 246.684193 155.82702 
L 247.119679 154.473257 
L 247.555164 154.309946 
L 247.99065 154.27244 
L 248.426136 154.515843 
L 249.297107 154.469741 
L 249.732593 154.45216 
L 250.603564 154.001687 
L 251.039049 154.003641 
L 251.474535 154.220868 
L 251.910021 154.293146 
L 252.345506 154.677982 
L 253.216478 154.613908 
L 253.651963 154.518188 
L 254.95842 154.603359 
L 255.393906 154.60961 
L 255.829392 155.110092 
L 256.264877 156.661938 
L 256.700363 156.766254 
L 257.135848 157.475759 
L 257.571334 156.089959 
L 258.00682 155.91688 
L 258.877791 155.856713 
L 259.313277 155.964936 
L 261.055219 157.045211 
L 261.490705 156.831891 
L 261.926191 156.96043 
L 262.361676 156.633027 
L 263.232647 156.570906 
L 263.668133 154.880754 
L 264.103619 154.642038 
L 264.539104 154.684233 
L 264.97459 154.477164 
L 265.845561 154.360346 
L 267.152018 154.979209 
L 268.458475 154.780735 
L 268.893961 154.820977 
L 269.329446 154.708847 
L 269.764932 154.769796 
L 270.200418 154.958112 
L 271.506875 154.715489 
L 271.94236 155.083134 
L 272.377846 155.278483 
L 272.813332 155.160883 
L 273.684303 155.283562 
L 274.119788 154.911228 
L 274.99076 155.233943 
L 275.861731 154.779563 
L 276.297217 154.796363 
L 276.732702 155.111655 
L 277.603674 155.094855 
L 278.039159 154.854968 
L 278.474645 154.903414 
L 278.910131 154.604531 
L 280.652073 154.486541 
L 281.087559 154.602187 
L 281.523044 155.432026 
L 281.95853 155.214408 
L 282.394016 155.144864 
L 283.264987 155.24918 
L 283.700473 155.657067 
L 284.135958 155.734425 
L 284.571444 155.469142 
L 285.00693 155.505086 
L 285.442415 155.069851 
L 285.877901 154.905758 
L 286.313386 154.952642 
L 286.748872 154.42989 
L 287.184358 154.625238 
L 287.619843 154.656103 
L 288.055329 154.493183 
L 288.9263 154.500606 
L 290.232757 154.854577 
L 291.539214 155.654332 
L 291.9747 155.223785 
L 292.845671 155.120251 
L 294.152128 154.59789 
L 294.587614 154.687359 
L 295.458585 154.643992 
L 295.894071 154.282207 
L 296.329556 154.399025 
L 296.765042 155.432417 
L 297.200527 155.508212 
L 297.636013 155.267152 
L 298.071499 155.387878 
L 298.506984 155.113609 
L 299.813441 154.949516 
L 300.248927 154.642429 
L 301.555384 155.163618 
L 301.99087 155.19839 
L 302.426355 153.950897 
L 303.297326 153.834469 
L 303.732812 154.061073 
L 304.168298 154.050915 
L 304.603783 154.977256 
L 305.474755 155.001088 
L 306.345726 154.858875 
L 306.781212 154.944047 
L 307.216697 154.638522 
L 307.652183 154.681108 
L 308.523154 154.277128 
L 308.95864 155.520324 
L 309.394125 155.466407 
L 309.829611 154.615862 
L 310.265097 154.60375 
L 311.136068 154.106003 
L 311.571554 154.436141 
L 312.007039 154.118505 
L 313.313496 154.977256 
L 314.184467 155.003042 
L 315.055439 155.431245 
L 315.490924 155.597291 
L 315.92641 156.911593 
L 316.361896 157.039351 
L 316.797381 156.82017 
L 317.232867 156.912374 
L 317.668353 156.70218 
L 318.103838 156.715073 
L 318.539324 156.996374 
L 318.97481 157.088578 
L 319.410295 157.063965 
L 319.845781 157.342922 
L 320.716752 157.098737 
L 321.152238 157.362847 
L 321.587723 157.272206 
L 322.458695 156.447055 
L 324.200637 156.315391 
L 325.071608 156.234516 
L 325.94258 155.867262 
L 326.378065 155.96181 
L 327.249037 155.687151 
L 328.120008 155.908676 
L 328.555494 155.814518 
L 328.990979 155.880546 
L 329.426465 155.812955 
L 329.861951 155.588695 
L 330.297436 155.794592 
L 330.732922 155.596119 
L 331.168407 155.708639 
L 331.603893 155.575021 
L 332.039379 156.722105 
L 332.474864 156.883072 
L 332.91035 156.916672 
L 333.345836 156.704524 
L 333.781321 156.864319 
L 334.652293 156.329065 
L 335.95875 157.037397 
L 336.394235 156.481827 
L 336.829721 156.476748 
L 337.700692 155.843429 
L 339.007149 155.780918 
L 339.87812 155.399208 
L 340.313606 155.455468 
L 341.184577 155.128455 
L 341.620063 155.262855 
L 342.055548 155.243711 
L 342.491034 156.729919 
L 342.92652 156.625603 
L 343.362005 156.165754 
L 343.797491 156.118089 
L 344.232977 155.864136 
L 344.668462 155.970406 
L 345.103948 156.220842 
L 346.845891 156.082926 
L 348.152347 156.508785 
L 348.587833 157.96491 
L 349.458804 157.961785 
L 350.329776 158.349746 
L 350.765261 158.163384 
L 351.200747 158.220426 
L 351.636233 158.108296 
L 352.071718 157.672669 
L 352.507204 157.673842 
L 352.94269 157.826604 
L 353.378175 157.599609 
L 353.813661 157.197192 
L 354.249146 157.117099 
L 354.684632 157.244857 
L 355.120118 156.80337 
L 355.555603 156.720152 
L 355.991089 154.186096 
L 356.426575 154.209147 
L 356.86206 154.086859 
L 357.733032 154.249388 
L 358.168517 154.465053 
L 359.039488 154.688922 
L 359.474974 154.456458 
L 359.91046 154.370504 
L 360.345945 154.516234 
L 360.781431 154.797535 
L 361.216917 153.093318 
L 362.087888 152.837021 
L 362.523374 152.907737 
L 362.958859 153.15583 
L 363.394345 152.818659 
L 363.829831 152.650269 
L 364.700802 152.660036 
L 365.136287 152.386158 
L 365.571773 152.599869 
L 366.442744 151.88802 
L 366.87823 152.074773 
L 368.184687 152.277544 
L 368.620173 151.714551 
L 369.491144 151.700486 
L 369.92663 151.447705 
L 370.362115 151.632114 
L 370.797601 151.509826 
L 371.668572 149.083993 
L 372.539543 145.447001 
L 373.846 141.467368 
L 374.281486 141.337267 
L 374.716972 138.79188 
L 375.152457 138.754764 
L 376.023428 138.536755 
L 376.458914 137.895623 
L 376.8944 138.322263 
L 377.765371 138.587937 
L 378.636342 138.462523 
L 379.071828 138.703974 
L 379.507314 138.44416 
L 379.942799 138.419547 
L 380.378285 138.215603 
L 380.813771 138.751638 
L 381.249256 138.617239 
L 381.684742 138.654355 
L 382.120227 136.842696 
L 382.555713 136.900129 
L 382.991199 136.671962 
L 383.86217 133.935525 
L 384.297656 133.7476 
L 384.733141 133.293611 
L 385.168627 133.342839 
L 386.039598 131.96876 
L 386.91057 131.794119 
L 387.346055 133.225239 
L 389.087998 133.460438 
L 389.523483 133.369797 
L 389.958969 133.600308 
L 390.394455 133.68548 
L 390.82994 133.598354 
L 391.265426 133.844493 
L 392.136397 134.58369 
L 393.007369 134.051171 
L 393.442854 134.173069 
L 393.87834 134.030074 
L 394.313825 134.100008 
L 394.749311 134.722388 
L 395.184797 134.453979 
L 395.620282 134.639169 
L 396.055768 135.247874 
L 396.491254 135.013847 
L 396.926739 135.427985 
L 397.362225 135.195911 
L 397.797711 135.129884 
L 398.233196 135.333437 
L 398.668682 134.941568 
L 399.539653 135.337734 
L 400.410624 132.576293 
L 400.84611 132.432907 
L 401.281596 132.149652 
L 401.717081 132.384461 
L 402.152567 132.194192 
L 402.152567 132.194192 
" clip-path="url(#p7da8967ea3)" style="fill: none; stroke: #d62728; stroke-opacity: 0.8; stroke-width: 1.5; stroke-linecap: square"/>
   </g>
   <g id="line2d_23">
    <path d="M 147.393467 199.68307 
L 147.828953 199.286904 
L 150.006381 196.280496 
L 150.441866 195.942153 
L 152.183809 193.755426 
L 153.490266 192.609123 
L 153.925752 191.826949 
L 155.232208 190.55914 
L 156.10318 189.387832 
L 156.538665 188.57323 
L 157.409637 187.4113 
L 158.280608 186.203267 
L 160.022551 184.747142 
L 161.329007 183.632094 
L 162.199979 183.31524 
L 163.07095 182.592061 
L 163.941921 181.475841 
L 164.377407 181.105071 
L 167.425806 177.452842 
L 168.296778 176.417496 
L 169.167749 175.262207 
L 169.603235 174.894172 
L 170.474206 173.550567 
L 171.345177 171.541607 
L 172.651634 170.358969 
L 173.08712 170.278486 
L 174.393577 169.092332 
L 174.829062 168.575831 
L 176.135519 167.87375 
L 177.441976 167.361156 
L 178.312947 167.648709 
L 179.183919 167.560802 
L 179.619404 167.302552 
L 180.925861 167.046646 
L 181.361347 167.191594 
L 181.796833 166.74581 
L 182.667804 166.496936 
L 183.974261 166.040212 
L 184.409746 166.178128 
L 184.845232 166.00544 
L 185.280718 166.108193 
L 187.458146 165.880417 
L 187.893632 165.894482 
L 188.329117 165.746799 
L 189.200088 165.792901 
L 189.635574 165.723748 
L 190.506545 166.13984 
L 190.942031 165.920268 
L 191.813002 165.878464 
L 192.248488 165.660455 
L 193.119459 166.040603 
L 193.554945 166.078891 
L 193.990431 166.321123 
L 195.296887 166.067952 
L 195.732373 165.924957 
L 196.167859 165.993719 
L 197.03883 165.924175 
L 197.474316 165.479954 
L 198.345287 165.85385 
L 198.780773 165.535042 
L 200.522715 166.006612 
L 201.829172 166.019114 
L 202.264658 165.849552 
L 202.700143 165.830017 
L 203.135629 165.967543 
L 204.442086 165.563563 
L 204.877572 165.450651 
L 205.313057 165.184978 
L 206.184028 165.122466 
L 206.619514 165.289294 
L 207.490485 164.986113 
L 207.925971 165.190838 
L 208.361457 164.970486 
L 208.796942 164.917742 
L 209.232428 164.639175 
L 209.667914 164.863435 
L 210.103399 164.599715 
L 210.974371 164.543455 
L 211.409856 164.519231 
L 211.845342 164.360218 
L 213.151799 164.317241 
L 213.587284 162.726326 
L 214.02277 162.689991 
L 214.458256 162.489173 
L 215.329227 162.512615 
L 215.764713 162.637247 
L 216.200198 163.823401 
L 217.942141 163.20571 
L 218.813112 163.131478 
L 219.248598 163.317059 
L 220.119569 163.306901 
L 220.555055 163.090064 
L 221.426026 163.166641 
L 222.296997 163.048651 
L 222.732483 163.218213 
L 223.603454 163.103739 
L 224.03894 163.091236 
L 224.474425 161.453828 
L 224.909911 161.124862 
L 225.345397 161.382331 
L 225.780882 161.375689 
L 226.651854 160.900212 
L 229.264767 160.957644 
L 229.700253 160.720101 
L 230.135739 160.664231 
L 230.571224 160.441143 
L 231.00671 160.422781 
L 231.877681 160.055135 
L 232.313167 160.090689 
L 232.748653 159.904327 
L 233.184138 160.076624 
L 233.619624 160.055135 
L 234.926081 160.542724 
L 236.232538 160.334483 
L 236.668023 160.319637 
L 237.97448 159.594505 
L 238.409966 159.369854 
L 238.845452 159.554263 
L 240.151908 159.076832 
L 240.587394 159.229204 
L 241.02288 159.242487 
L 241.458365 159.639825 
L 241.893851 159.539807 
L 243.200308 159.551919 
L 244.071279 159.157315 
L 244.506765 159.213576 
L 245.377736 158.860386 
L 246.248707 158.50329 
L 247.119679 158.53728 
L 247.99065 158.089152 
L 248.861621 158.04305 
L 249.297107 157.795739 
L 250.168078 157.648056 
L 250.603564 157.725023 
L 251.039049 157.688688 
L 251.474535 157.193285 
L 251.910021 157.131946 
L 252.345506 156.936988 
L 252.780992 156.991295 
L 254.087449 157.520298 
L 254.522935 157.029974 
L 254.95842 155.666444 
L 255.393906 155.797718 
L 255.829392 156.244284 
L 256.264877 154.272049 
L 257.571334 153.425019 
L 258.442305 152.851086 
L 258.877791 152.825691 
L 259.313277 152.635813 
L 260.619734 152.750287 
L 261.055219 152.898361 
L 261.926191 152.886249 
L 262.361676 152.868668 
L 262.797162 152.627217 
L 263.232647 152.654957 
L 264.103619 152.211126 
L 265.410076 152.249023 
L 265.845561 152.10095 
L 266.281047 152.085712 
L 266.716533 152.843663 
L 267.152018 153.170285 
L 271.506875 157.991868 
L 271.94236 158.431011 
L 272.377846 158.703326 
L 272.813332 159.351101 
L 275.426245 161.420228 
L 275.861731 162.075426 
L 276.732702 162.768521 
L 277.168188 163.31784 
L 277.603674 163.546398 
L 279.345616 165.048234 
L 279.781102 165.564735 
L 280.652073 166.113272 
L 281.087559 165.906985 
L 281.95853 165.985124 
L 282.394016 166.400825 
L 284.135958 166.260955 
L 285.442415 166.337532 
L 285.877901 166.469587 
L 286.313386 166.444583 
L 286.748872 166.246109 
L 287.184358 166.466462 
L 288.055329 166.43716 
L 288.490815 165.852287 
L 289.361786 166.004268 
L 290.668243 166.76847 
L 291.539214 166.523894 
L 291.9747 166.585233 
L 292.410185 166.84153 
L 292.845671 166.512955 
L 293.716642 166.620787 
L 294.152128 166.916935 
L 294.587614 166.669624 
L 295.894071 166.651652 
L 298.071499 167.013046 
L 298.506984 168.453152 
L 298.94247 168.621543 
L 299.377956 167.854215 
L 299.813441 168.011666 
L 300.684413 167.597528 
L 301.555384 167.218161 
L 301.99087 167.205268 
L 302.426355 167.376393 
L 302.861841 167.416635 
L 303.732812 167.771387 
L 304.168298 167.421323 
L 305.039269 166.092565 
L 306.345726 165.823766 
L 307.652183 165.608102 
L 308.087668 165.855413 
L 308.95864 165.83705 
L 309.394125 167.037269 
L 309.829611 167.200189 
L 312.007039 166.831763 
L 314.619953 166.171095 
L 315.490924 166.413327 
L 315.92641 166.210165 
L 316.361896 166.364099 
L 316.797381 166.257439 
L 317.668353 166.523113 
L 318.103838 166.185942 
L 318.539324 166.234388 
L 318.97481 166.079282 
L 319.410295 164.563771 
L 319.845781 164.450469 
L 322.023209 164.620422 
L 322.458695 164.325055 
L 322.89418 164.536813 
L 323.329666 164.356702 
L 324.200637 164.573538 
L 324.636123 164.462971 
L 325.071608 164.595417 
L 325.507094 164.107828 
L 325.94258 164.131661 
L 326.378065 163.889429 
L 326.813551 163.848797 
L 328.120008 164.365297 
L 328.555494 163.143199 
L 328.990979 163.332296 
L 329.426465 163.184613 
L 329.861951 163.315887 
L 330.732922 163.240092 
L 331.168407 163.422938 
L 332.91035 163.026381 
L 333.345836 163.113115 
L 334.216807 163.012316 
L 334.652293 163.185004 
L 335.087778 161.83632 
L 335.523264 161.636674 
L 335.95875 161.740209 
L 336.394235 162.24577 
L 336.829721 162.292653 
L 337.700692 162.181305 
L 338.571663 161.631986 
L 339.007149 161.684339 
L 339.442635 161.850385 
L 339.87812 163.19399 
L 340.749092 163.158045 
L 341.184577 165.830017 
L 342.055548 165.905422 
L 342.92652 166.32542 
L 343.797491 166.200398 
L 344.232977 166.419187 
L 345.103948 166.247281 
L 345.539434 166.320341 
L 346.410405 165.695227 
L 346.845891 165.706948 
L 347.281376 165.571767 
L 347.716862 165.632716 
L 348.152347 163.901931 
L 348.587833 163.970303 
L 349.023319 163.674937 
L 349.458804 163.687439 
L 350.329776 163.565542 
L 350.765261 163.851531 
L 351.636233 163.13226 
L 352.507204 161.955482 
L 354.249146 160.071935 
L 355.555603 158.389597 
L 356.426575 157.487479 
L 357.733032 156.173568 
L 358.604003 155.37811 
L 362.087888 150.951521 
L 363.394345 149.456717 
L 364.265316 148.216256 
L 364.700802 147.192632 
L 365.136287 146.668708 
L 365.571773 146.43976 
L 366.007259 146.410067 
L 366.442744 145.996711 
L 368.184687 145.48568 
L 368.620173 145.697437 
L 369.055658 145.764637 
L 369.92663 145.291894 
L 372.104058 144.724603 
L 372.539543 144.373367 
L 372.975029 144.265535 
L 373.410515 144.970351 
L 373.846 144.348363 
L 374.281486 144.344456 
L 375.152457 143.995955 
L 375.587943 143.946336 
L 376.023428 144.057294 
L 376.458914 143.87562 
L 376.8944 143.979546 
L 377.329885 143.36498 
L 378.200857 143.692384 
L 378.636342 143.470468 
L 379.071828 143.386469 
L 379.507314 143.540403 
L 379.942799 143.56111 
L 380.378285 143.16846 
L 380.813771 142.968814 
L 381.684742 142.884424 
L 382.555713 142.315961 
L 382.991199 142.202659 
L 383.426684 142.205003 
L 383.86217 142.038566 
L 384.297656 142.779327 
L 384.733141 142.481225 
L 385.168627 142.655085 
L 385.604113 142.529672 
L 386.91057 142.625392 
L 387.346055 142.30971 
L 387.781541 142.299161 
L 388.217026 141.806493 
L 388.652512 141.562698 
L 389.087998 141.741637 
L 389.958969 142.477709 
L 390.394455 142.414416 
L 390.82994 140.14408 
L 391.265426 140.050313 
L 392.136397 140.06555 
L 392.571883 139.893253 
L 393.007369 139.86356 
L 393.442854 139.685793 
L 393.87834 139.360734 
L 394.313825 139.580305 
L 394.749311 139.585775 
L 395.184797 139.241572 
L 395.620282 139.278688 
L 396.055768 139.001293 
L 396.491254 139.225944 
L 396.926739 139.045833 
L 398.668682 139.202502 
L 399.104167 139.232195 
L 399.539653 139.701812 
L 399.975139 139.480678 
L 400.84611 139.440436 
L 401.281596 139.118893 
L 402.152567 139.33612 
L 402.152567 139.33612 
" clip-path="url(#p7da8967ea3)" style="fill: none; stroke: #9467bd; stroke-opacity: 0.8; stroke-width: 1.5; stroke-linecap: square"/>
   </g>
   <g id="patch_3">
    <path d="M 62.038281 288.430125 
L 62.038281 22.318125 
" style="fill: none; stroke: #000000; stroke-width: 0.8; stroke-linejoin: miter; stroke-linecap: square"/>
   </g>
   <g id="patch_4">
    <path d="M 419.158281 288.430125 
L 419.158281 22.318125 
" style="fill: none; stroke: #000000; stroke-width: 0.8; stroke-linejoin: miter; stroke-linecap: square"/>
   </g>
   <g id="patch_5">
    <path d="M 62.038281 288.430125 
L 419.158281 288.430125 
" style="fill: none; stroke: #000000; stroke-width: 0.8; stroke-linejoin: miter; stroke-linecap: square"/>
   </g>
   <g id="patch_6">
    <path d="M 62.038281 22.318125 
L 419.158281 22.318125 
" style="fill: none; stroke: #000000; stroke-width: 0.8; stroke-linejoin: miter; stroke-linecap: square"/>
   </g>
   <g id="text_21">
    <!-- Get filtered descendants count [branch] -->
    <g transform="translate(120.300156 16.318125) scale(0.12 -0.12)">
     <defs>
      <path id="DejaVuSans-2a" d="M 3809 666 
L 3809 1919 
L 2778 1919 
L 2778 2438 
L 4434 2438 
L 4434 434 
Q 4069 175 3628 42 
Q 3188 -91 2688 -91 
Q 1594 -91 976 548 
Q 359 1188 359 2328 
Q 359 3472 976 4111 
Q 1594 4750 2688 4750 
Q 3144 4750 3555 4637 
Q 3966 4525 4313 4306 
L 4313 3634 
Q 3963 3931 3569 4081 
Q 3175 4231 2741 4231 
Q 1884 4231 1454 3753 
Q 1025 3275 1025 2328 
Q 1025 1384 1454 906 
Q 1884 428 2741 428 
Q 3075 428 3337 486 
Q 3600 544 3809 666 
z
" transform="scale(0.015625)"/>
      <path id="DejaVuSans-13af" d="M 3431 3500 
L 3431 0 
L 2853 0 
L 2853 3053 
L 1275 3053 
L 1275 0 
L 697 0 
L 697 3053 
L 147 3053 
L 147 3500 
L 697 3500 
L 697 3744 
Q 697 4316 967 4589 
Q 1238 4863 1797 4863 
L 2375 4863 
L 2375 4384 
L 1825 4384 
Q 1516 4384 1395 4259 
Q 1275 4134 1275 3809 
L 1275 3500 
L 3431 3500 
z
M 2853 4856 
L 3431 4856 
L 3431 4128 
L 2853 4128 
L 2853 4856 
z
" transform="scale(0.015625)"/>
      <path id="DejaVuSans-55" d="M 2631 2963 
Q 2534 3019 2420 3045 
Q 2306 3072 2169 3072 
Q 1681 3072 1420 2755 
Q 1159 2438 1159 1844 
L 1159 0 
L 581 0 
L 581 3500 
L 1159 3500 
L 1159 2956 
Q 1341 3275 1631 3429 
Q 1922 3584 2338 3584 
Q 2397 3584 2469 3576 
Q 2541 3569 2628 3553 
L 2631 2963 
z
" transform="scale(0.015625)"/>
      <path id="DejaVuSans-3e" d="M 550 4863 
L 1875 4863 
L 1875 4416 
L 1125 4416 
L 1125 -397 
L 1875 -397 
L 1875 -844 
L 550 -844 
L 550 4863 
z
" transform="scale(0.015625)"/>
      <path id="DejaVuSans-4b" d="M 3513 2113 
L 3513 0 
L 2938 0 
L 2938 2094 
Q 2938 2591 2744 2837 
Q 2550 3084 2163 3084 
Q 1697 3084 1428 2787 
Q 1159 2491 1159 1978 
L 1159 0 
L 581 0 
L 581 4863 
L 1159 4863 
L 1159 2956 
Q 1366 3272 1645 3428 
Q 1925 3584 2291 3584 
Q 2894 3584 3203 3211 
Q 3513 2838 3513 2113 
z
" transform="scale(0.015625)"/>
      <path id="DejaVuSans-40" d="M 1947 4863 
L 1947 -844 
L 622 -844 
L 622 -397 
L 1369 -397 
L 1369 4416 
L 622 4416 
L 622 4863 
L 1947 4863 
z
" transform="scale(0.015625)"/>
     </defs>
     <use xlink:href="#DejaVuSans-2a"/>
     <use xlink:href="#DejaVuSans-48" transform="translate(77.484375 0)"/>
     <use xlink:href="#DejaVuSans-57" transform="translate(139.015625 0)"/>
     <use xlink:href="#DejaVuSans-3" transform="translate(178.21875 0)"/>
     <use xlink:href="#DejaVuSans-13af" transform="translate(210 0)"/>
     <use xlink:href="#DejaVuSans-4f" transform="translate(272.984375 0)"/>
     <use xlink:href="#DejaVuSans-57" transform="translate(300.765625 0)"/>
     <use xlink:href="#DejaVuSans-48" transform="translate(339.96875 0)"/>
     <use xlink:href="#DejaVuSans-55" transform="translate(401.5 0)"/>
     <use xlink:href="#DejaVuSans-48" transform="translate(440.40625 0)"/>
     <use xlink:href="#DejaVuSans-47" transform="translate(501.9375 0)"/>
     <use xlink:href="#DejaVuSans-3" transform="translate(565.421875 0)"/>
     <use xlink:href="#DejaVuSans-47" transform="translate(597.203125 0)"/>
     <use xlink:href="#DejaVuSans-48" transform="translate(660.6875 0)"/>
     <use xlink:href="#DejaVuSans-56" transform="translate(722.21875 0)"/>
     <use xlink:href="#DejaVuSans-46" transform="translate(774.3125 0)"/>
     <use xlink:href="#DejaVuSans-48" transform="translate(829.296875 0)"/>
     <use xlink:href="#DejaVuSans-51" transform="translate(890.828125 0)"/>
     <use xlink:href="#DejaVuSans-47" transform="translate(954.203125 0)"/>
     <use xlink:href="#DejaVuSans-44" transform="translate(1017.6875 0)"/>
     <use xlink:href="#DejaVuSans-51" transform="translate(1078.96875 0)"/>
     <use xlink:href="#DejaVuSans-57" transform="translate(1142.34375 0)"/>
     <use xlink:href="#DejaVuSans-56" transform="translate(1181.546875 0)"/>
     <use xlink:href="#DejaVuSans-3" transform="translate(1233.640625 0)"/>
     <use xlink:href="#DejaVuSans-46" transform="translate(1265.421875 0)"/>
     <use xlink:href="#DejaVuSans-52" transform="translate(1320.40625 0)"/>
     <use xlink:href="#DejaVuSans-58" transform="translate(1381.59375 0)"/>
     <use xlink:href="#DejaVuSans-51" transform="translate(1444.96875 0)"/>
     <use xlink:href="#DejaVuSans-57" transform="translate(1508.34375 0)"/>
     <use xlink:href="#DejaVuSans-3" transform="translate(1547.546875 0)"/>
     <use xlink:href="#DejaVuSans-3e" transform="translate(1579.328125 0)"/>
     <use xlink:href="#DejaVuSans-45" transform="translate(1618.34375 0)"/>
     <use xlink:href="#DejaVuSans-55" transform="translate(1681.828125 0)"/>
     <use xlink:href="#DejaVuSans-44" transform="translate(1722.9375 0)"/>
     <use xlink:href="#DejaVuSans-51" transform="translate(1784.21875 0)"/>
     <use xlink:href="#DejaVuSans-46" transform="translate(1847.59375 0)"/>
     <use xlink:href="#DejaVuSans-4b" transform="translate(1902.578125 0)"/>
     <use xlink:href="#DejaVuSans-40" transform="translate(1965.953125 0)"/>
    </g>
   </g>
   <g id="legend_1">
    <g id="patch_7">
     <path d="M 93.035937 366.447687 
L 380.640625 366.447687 
Q 382.640625 366.447687 382.640625 364.447687 
L 382.640625 335.446125 
Q 382.640625 333.446125 380.640625 333.446125 
L 93.035937 333.446125 
Q 91.035937 333.446125 91.035937 335.446125 
L 91.035937 364.447687 
Q 91.035937 366.447687 93.035937 366.447687 
z
" style="fill: #4d4d4d; opacity: 0.5; stroke: #4d4d4d; stroke-linejoin: miter"/>
    </g>
    <g id="patch_8">
     <path d="M 91.035937 364.447687 
L 378.640625 364.447687 
Q 380.640625 364.447687 380.640625 362.447687 
L 380.640625 333.446125 
Q 380.640625 331.446125 378.640625 331.446125 
L 91.035937 331.446125 
Q 89.035937 331.446125 89.035937 333.446125 
L 89.035937 362.447687 
Q 89.035937 364.447687 91.035937 364.447687 
z
" style="fill: #ffffff; stroke: #cccccc; stroke-linejoin: miter"/>
    </g>
    <g id="line2d_24">
     <path d="M 93.035937 339.544562 
L 103.035937 339.544562 
L 113.035937 339.544562 
" style="fill: none; stroke: #1f77b4; stroke-opacity: 0.8; stroke-width: 1.5; stroke-linecap: square"/>
    </g>
    <g id="text_22">
     <!-- MPTT -->
     <g transform="translate(121.035937 343.044562) scale(0.1 -0.1)">
      <defs>
       <path id="DejaVuSans-30" d="M 628 4666 
L 1569 4666 
L 2759 1491 
L 3956 4666 
L 4897 4666 
L 4897 0 
L 4281 0 
L 4281 4097 
L 3078 897 
L 2444 897 
L 1241 4097 
L 1241 0 
L 628 0 
L 628 4666 
z
" transform="scale(0.015625)"/>
       <path id="DejaVuSans-33" d="M 1259 4147 
L 1259 2394 
L 2053 2394 
Q 2494 2394 2734 2622 
Q 2975 2850 2975 3272 
Q 2975 3691 2734 3919 
Q 2494 4147 2053 4147 
L 1259 4147 
z
M 628 4666 
L 2053 4666 
Q 2838 4666 3239 4311 
Q 3641 3956 3641 3272 
Q 3641 2581 3239 2228 
Q 2838 1875 2053 1875 
L 1259 1875 
L 1259 0 
L 628 0 
L 628 4666 
z
" transform="scale(0.015625)"/>
       <path id="DejaVuSans-37" d="M -19 4666 
L 3928 4666 
L 3928 4134 
L 2272 4134 
L 2272 0 
L 1638 0 
L 1638 4134 
L -19 4134 
L -19 4666 
z
" transform="scale(0.015625)"/>
      </defs>
      <use xlink:href="#DejaVuSans-30"/>
      <use xlink:href="#DejaVuSans-33" transform="translate(86.28125 0)"/>
      <use xlink:href="#DejaVuSans-37" transform="translate(146.578125 0)"/>
      <use xlink:href="#DejaVuSans-37" transform="translate(205.90625 0)"/>
     </g>
    </g>
    <g id="line2d_25">
     <path d="M 93.035937 354.545344 
L 103.035937 354.545344 
L 113.035937 354.545344 
" style="fill: none; stroke: #ff7f0e; stroke-opacity: 0.8; stroke-width: 1.5; stroke-linecap: square"/>
    </g>
    <g id="text_23">
     <!-- tree -->
     <g transform="translate(121.035937 358.045344) scale(0.1 -0.1)">
      <use xlink:href="#DejaVuSans-57"/>
      <use xlink:href="#DejaVuSans-55" transform="translate(39.203125 0)"/>
      <use xlink:href="#DejaVuSans-48" transform="translate(78.109375 0)"/>
      <use xlink:href="#DejaVuSans-48" transform="translate(139.640625 0)"/>
     </g>
    </g>
    <g id="line2d_26">
     <path d="M 167.734375 339.544562 
L 177.734375 339.544562 
L 187.734375 339.544562 
" style="fill: none; stroke: #2ca02c; stroke-opacity: 0.8; stroke-width: 1.5; stroke-linecap: square"/>
    </g>
    <g id="text_24">
     <!-- treebeard AL -->
     <g transform="translate(195.734375 343.044562) scale(0.1 -0.1)">
      <defs>
       <path id="DejaVuSans-2f" d="M 628 4666 
L 1259 4666 
L 1259 531 
L 3531 531 
L 3531 0 
L 628 0 
L 628 4666 
z
" transform="scale(0.015625)"/>
      </defs>
      <use xlink:href="#DejaVuSans-57"/>
      <use xlink:href="#DejaVuSans-55" transform="translate(39.203125 0)"/>
      <use xlink:href="#DejaVuSans-48" transform="translate(78.109375 0)"/>
      <use xlink:href="#DejaVuSans-48" transform="translate(139.640625 0)"/>
      <use xlink:href="#DejaVuSans-45" transform="translate(201.171875 0)"/>
      <use xlink:href="#DejaVuSans-48" transform="translate(264.65625 0)"/>
      <use xlink:href="#DejaVuSans-44" transform="translate(326.1875 0)"/>
      <use xlink:href="#DejaVuSans-55" transform="translate(387.46875 0)"/>
      <use xlink:href="#DejaVuSans-47" transform="translate(426.828125 0)"/>
      <use xlink:href="#DejaVuSans-3" transform="translate(490.3125 0)"/>
      <use xlink:href="#DejaVuSans-24" transform="translate(522.09375 0)"/>
      <use xlink:href="#DejaVuSans-2f" transform="translate(590.5 0)"/>
     </g>
    </g>
    <g id="line2d_27">
     <path d="M 167.734375 354.545344 
L 177.734375 354.545344 
L 187.734375 354.545344 
" style="fill: none; stroke: #d62728; stroke-opacity: 0.8; stroke-width: 1.5; stroke-linecap: square"/>
    </g>
    <g id="text_25">
     <!-- treebeard MP -->
     <g transform="translate(195.734375 358.045344) scale(0.1 -0.1)">
      <use xlink:href="#DejaVuSans-57"/>
      <use xlink:href="#DejaVuSans-55" transform="translate(39.203125 0)"/>
      <use xlink:href="#DejaVuSans-48" transform="translate(78.109375 0)"/>
      <use xlink:href="#DejaVuSans-48" transform="translate(139.640625 0)"/>
      <use xlink:href="#DejaVuSans-45" transform="translate(201.171875 0)"/>
      <use xlink:href="#DejaVuSans-48" transform="translate(264.65625 0)"/>
      <use xlink:href="#DejaVuSans-44" transform="translate(326.1875 0)"/>
      <use xlink:href="#DejaVuSans-55" transform="translate(387.46875 0)"/>
      <use xlink:href="#DejaVuSans-47" transform="translate(426.828125 0)"/>
      <use xlink:href="#DejaVuSans-3" transform="translate(490.3125 0)"/>
      <use xlink:href="#DejaVuSans-30" transform="translate(522.09375 0)"/>
      <use xlink:href="#DejaVuSans-33" transform="translate(608.375 0)"/>
     </g>
    </g>
    <g id="line2d_28">
     <path d="M 282.601562 339.544562 
L 292.601562 339.544562 
L 302.601562 339.544562 
" style="fill: none; stroke: #9467bd; stroke-opacity: 0.8; stroke-width: 1.5; stroke-linecap: square"/>
    </g>
    <g id="text_26">
     <!-- treebeard NS -->
     <g transform="translate(310.601562 343.044562) scale(0.1 -0.1)">
      <defs>
       <path id="DejaVuSans-31" d="M 628 4666 
L 1478 4666 
L 3547 763 
L 3547 4666 
L 4159 4666 
L 4159 0 
L 3309 0 
L 1241 3903 
L 1241 0 
L 628 0 
L 628 4666 
z
" transform="scale(0.015625)"/>
       <path id="DejaVuSans-36" d="M 3425 4513 
L 3425 3897 
Q 3066 4069 2747 4153 
Q 2428 4238 2131 4238 
Q 1616 4238 1336 4038 
Q 1056 3838 1056 3469 
Q 1056 3159 1242 3001 
Q 1428 2844 1947 2747 
L 2328 2669 
Q 3034 2534 3370 2195 
Q 3706 1856 3706 1288 
Q 3706 609 3251 259 
Q 2797 -91 1919 -91 
Q 1588 -91 1214 -16 
Q 841 59 441 206 
L 441 856 
Q 825 641 1194 531 
Q 1563 422 1919 422 
Q 2459 422 2753 634 
Q 3047 847 3047 1241 
Q 3047 1584 2836 1778 
Q 2625 1972 2144 2069 
L 1759 2144 
Q 1053 2284 737 2584 
Q 422 2884 422 3419 
Q 422 4038 858 4394 
Q 1294 4750 2059 4750 
Q 2388 4750 2728 4690 
Q 3069 4631 3425 4513 
z
" transform="scale(0.015625)"/>
      </defs>
      <use xlink:href="#DejaVuSans-57"/>
      <use xlink:href="#DejaVuSans-55" transform="translate(39.203125 0)"/>
      <use xlink:href="#DejaVuSans-48" transform="translate(78.109375 0)"/>
      <use xlink:href="#DejaVuSans-48" transform="translate(139.640625 0)"/>
      <use xlink:href="#DejaVuSans-45" transform="translate(201.171875 0)"/>
      <use xlink:href="#DejaVuSans-48" transform="translate(264.65625 0)"/>
      <use xlink:href="#DejaVuSans-44" transform="translate(326.1875 0)"/>
      <use xlink:href="#DejaVuSans-55" transform="translate(387.46875 0)"/>
      <use xlink:href="#DejaVuSans-47" transform="translate(426.828125 0)"/>
      <use xlink:href="#DejaVuSans-3" transform="translate(490.3125 0)"/>
      <use xlink:href="#DejaVuSans-31" transform="translate(522.09375 0)"/>
      <use xlink:href="#DejaVuSans-36" transform="translate(596.90625 0)"/>
     </g>
    </g>
   </g>
  </g>
 </g>
 <defs>
  <clipPath id="p7da8967ea3">
   <rect x="62.038281" y="22.318125" width="357.12" height="266.112"/>
  </clipPath>
 </defs>
</svg>
