<?xml version="1.0" encoding="utf-8" standalone="no"?>
<!DOCTYPE svg PUBLIC "-//W3C//DTD SVG 1.1//EN"
  "http://www.w3.org/Graphics/SVG/1.1/DTD/svg11.dtd">
<svg xmlns:xlink="http://www.w3.org/1999/xlink" width="432.591875pt" height="371.002375pt" viewBox="0 0 432.591875 371.002375" xmlns="http://www.w3.org/2000/svg" version="1.1">
 <metadata>
  <rdf:RDF xmlns:dc="http://purl.org/dc/elements/1.1/" xmlns:cc="http://creativecommons.org/ns#" xmlns:rdf="http://www.w3.org/1999/02/22-rdf-syntax-ns#">
   <cc:Work>
    <dc:type rdf:resource="http://purl.org/dc/dcmitype/StillImage"/>
    <dc:date>2026-06-28T20:25:08.960569</dc:date>
    <dc:format>image/svg+xml</dc:format>
    <dc:creator>
     <cc:Agent>
      <dc:title>Matplotlib v3.10.6, https://matplotlib.org/</dc:title>
     </cc:Agent>
    </dc:creator>
   </cc:Work>
  </rdf:RDF>
 </metadata>
 <defs>
  <style type="text/css">*{stroke-linejoin: round; stroke-linecap: butt}</style>
 </defs>
 <g id="figure_1">
  <g id="patch_1">
   <path d="M 0 371.002375 
L 432.591875 371.002375 
L 432.591875 0 
L 0 0 
z
" style="fill: #ffffff"/>
  </g>
  <g id="axes_1">
   <g id="patch_2">
    <path d="M 68.271875 288.430125 
L 425.391875 288.430125 
L 425.391875 22.318125 
L 68.271875 22.318125 
z
" style="fill: #ffffff"/>
   </g>
   <g id="matplotlib.axis_1">
    <g id="xtick_1">
     <g id="line2d_1">
      <defs>
       <path id="mdf71e94a2d" d="M 0 0 
L 0 3.5 
" style="stroke: #000000; stroke-width: 0.8"/>
      </defs>
      <g>
       <use xlink:href="#mdf71e94a2d" x="68.271875" y="288.430125" style="stroke: #000000; stroke-width: 0.8"/>
      </g>
     </g>
     <g id="text_1">
      <!-- 0 -->
      <g transform="translate(65.090625 303.028562) scale(0.1 -0.1)">
       <defs>
        <path id="DejaVuSans-30" d="M 2034 4250 
Q 1547 4250 1301 3770 
Q 1056 3291 1056 2328 
Q 1056 1369 1301 889 
Q 1547 409 2034 409 
Q 2525 409 2770 889 
Q 3016 1369 3016 2328 
Q 3016 3291 2770 3770 
Q 2525 4250 2034 4250 
z
M 2034 4750 
Q 2819 4750 3233 4129 
Q 3647 3509 3647 2328 
Q 3647 1150 3233 529 
Q 2819 -91 2034 -91 
Q 1250 -91 836 529 
Q 422 1150 422 2328 
Q 422 3509 836 4129 
Q 1250 4750 2034 4750 
z
" transform="scale(0.015625)"/>
       </defs>
       <use xlink:href="#DejaVuSans-30"/>
      </g>
     </g>
    </g>
    <g id="xtick_2">
     <g id="line2d_2">
      <g>
       <use xlink:href="#mdf71e94a2d" x="111.820439" y="288.430125" style="stroke: #000000; stroke-width: 0.8"/>
      </g>
     </g>
     <g id="text_2">
      <!-- 500  -->
      <g transform="translate(100.687627 303.028562) scale(0.1 -0.1)">
       <defs>
        <path id="DejaVuSans-35" d="M 691 4666 
L 3169 4666 
L 3169 4134 
L 1269 4134 
L 1269 2991 
Q 1406 3038 1543 3061 
Q 1681 3084 1819 3084 
Q 2600 3084 3056 2656 
Q 3513 2228 3513 1497 
Q 3513 744 3044 326 
Q 2575 -91 1722 -91 
Q 1428 -91 1123 -41 
Q 819 9 494 109 
L 494 744 
Q 775 591 1075 516 
Q 1375 441 1709 441 
Q 2250 441 2565 725 
Q 2881 1009 2881 1497 
Q 2881 1984 2565 2268 
Q 2250 2553 1709 2553 
Q 1456 2553 1204 2497 
Q 953 2441 691 2322 
L 691 4666 
z
" transform="scale(0.015625)"/>
        <path id="DejaVuSans-20" transform="scale(0.015625)"/>
       </defs>
       <use xlink:href="#DejaVuSans-35"/>
       <use xlink:href="#DejaVuSans-30" transform="translate(63.623047 0)"/>
       <use xlink:href="#DejaVuSans-30" transform="translate(127.246094 0)"/>
       <use xlink:href="#DejaVuSans-20" transform="translate(190.869141 0)"/>
      </g>
     </g>
    </g>
    <g id="xtick_3">
     <g id="line2d_3">
      <g>
       <use xlink:href="#mdf71e94a2d" x="155.369003" y="288.430125" style="stroke: #000000; stroke-width: 0.8"/>
      </g>
     </g>
     <g id="text_3">
      <!-- 1 k -->
      <g transform="translate(147.703378 303.028562) scale(0.1 -0.1)">
       <defs>
        <path id="DejaVuSans-31" d="M 794 531 
L 1825 531 
L 1825 4091 
L 703 3866 
L 703 4441 
L 1819 4666 
L 2450 4666 
L 2450 531 
L 3481 531 
L 3481 0 
L 794 0 
L 794 531 
z
" transform="scale(0.015625)"/>
        <path id="DejaVuSans-6b" d="M 581 4863 
L 1159 4863 
L 1159 1991 
L 2875 3500 
L 3609 3500 
L 1753 1863 
L 3688 0 
L 2938 0 
L 1159 1709 
L 1159 0 
L 581 0 
L 581 4863 
z
" transform="scale(0.015625)"/>
       </defs>
       <use xlink:href="#DejaVuSans-31"/>
       <use xlink:href="#DejaVuSans-20" transform="translate(63.623047 0)"/>
       <use xlink:href="#DejaVuSans-6b" transform="translate(95.410156 0)"/>
      </g>
     </g>
    </g>
    <g id="xtick_4">
     <g id="line2d_4">
      <g>
       <use xlink:href="#mdf71e94a2d" x="198.917567" y="288.430125" style="stroke: #000000; stroke-width: 0.8"/>
      </g>
     </g>
     <g id="text_4">
      <!-- 1.5 k -->
      <g transform="translate(186.48163 303.028562) scale(0.1 -0.1)">
       <defs>
        <path id="DejaVuSans-2e" d="M 684 794 
L 1344 794 
L 1344 0 
L 684 0 
L 684 794 
z
" transform="scale(0.015625)"/>
       </defs>
       <use xlink:href="#DejaVuSans-31"/>
       <use xlink:href="#DejaVuSans-2e" transform="translate(63.623047 0)"/>
       <use xlink:href="#DejaVuSans-35" transform="translate(95.410156 0)"/>
       <use xlink:href="#DejaVuSans-20" transform="translate(159.033203 0)"/>
       <use xlink:href="#DejaVuSans-6b" transform="translate(190.820312 0)"/>
      </g>
     </g>
    </g>
    <g id="xtick_5">
     <g id="line2d_5">
      <g>
       <use xlink:href="#mdf71e94a2d" x="242.466131" y="288.430125" style="stroke: #000000; stroke-width: 0.8"/>
      </g>
     </g>
     <g id="text_5">
      <!-- 2 k -->
      <g transform="translate(234.800506 303.028562) scale(0.1 -0.1)">
       <defs>
        <path id="DejaVuSans-32" d="M 1228 531 
L 3431 531 
L 3431 0 
L 469 0 
L 469 531 
Q 828 903 1448 1529 
Q 2069 2156 2228 2338 
Q 2531 2678 2651 2914 
Q 2772 3150 2772 3378 
Q 2772 3750 2511 3984 
Q 2250 4219 1831 4219 
Q 1534 4219 1204 4116 
Q 875 4013 500 3803 
L 500 4441 
Q 881 4594 1212 4672 
Q 1544 4750 1819 4750 
Q 2544 4750 2975 4387 
Q 3406 4025 3406 3419 
Q 3406 3131 3298 2873 
Q 3191 2616 2906 2266 
Q 2828 2175 2409 1742 
Q 1991 1309 1228 531 
z
" transform="scale(0.015625)"/>
       </defs>
       <use xlink:href="#DejaVuSans-32"/>
       <use xlink:href="#DejaVuSans-20" transform="translate(63.623047 0)"/>
       <use xlink:href="#DejaVuSans-6b" transform="translate(95.410156 0)"/>
      </g>
     </g>
    </g>
    <g id="xtick_6">
     <g id="line2d_6">
      <g>
       <use xlink:href="#mdf71e94a2d" x="286.014696" y="288.430125" style="stroke: #000000; stroke-width: 0.8"/>
      </g>
     </g>
     <g id="text_6">
      <!-- 2.5 k -->
      <g transform="translate(273.578758 303.028562) scale(0.1 -0.1)">
       <use xlink:href="#DejaVuSans-32"/>
       <use xlink:href="#DejaVuSans-2e" transform="translate(63.623047 0)"/>
       <use xlink:href="#DejaVuSans-35" transform="translate(95.410156 0)"/>
       <use xlink:href="#DejaVuSans-20" transform="translate(159.033203 0)"/>
       <use xlink:href="#DejaVuSans-6b" transform="translate(190.820312 0)"/>
      </g>
     </g>
    </g>
    <g id="xtick_7">
     <g id="line2d_7">
      <g>
       <use xlink:href="#mdf71e94a2d" x="329.56326" y="288.430125" style="stroke: #000000; stroke-width: 0.8"/>
      </g>
     </g>
     <g id="text_7">
      <!-- 3 k -->
      <g transform="translate(321.897635 303.028562) scale(0.1 -0.1)">
       <defs>
        <path id="DejaVuSans-33" d="M 2597 2516 
Q 3050 2419 3304 2112 
Q 3559 1806 3559 1356 
Q 3559 666 3084 287 
Q 2609 -91 1734 -91 
Q 1441 -91 1130 -33 
Q 819 25 488 141 
L 488 750 
Q 750 597 1062 519 
Q 1375 441 1716 441 
Q 2309 441 2620 675 
Q 2931 909 2931 1356 
Q 2931 1769 2642 2001 
Q 2353 2234 1838 2234 
L 1294 2234 
L 1294 2753 
L 1863 2753 
Q 2328 2753 2575 2939 
Q 2822 3125 2822 3475 
Q 2822 3834 2567 4026 
Q 2313 4219 1838 4219 
Q 1578 4219 1281 4162 
Q 984 4106 628 3988 
L 628 4550 
Q 988 4650 1302 4700 
Q 1616 4750 1894 4750 
Q 2613 4750 3031 4423 
Q 3450 4097 3450 3541 
Q 3450 3153 3228 2886 
Q 3006 2619 2597 2516 
z
" transform="scale(0.015625)"/>
       </defs>
       <use xlink:href="#DejaVuSans-33"/>
       <use xlink:href="#DejaVuSans-20" transform="translate(63.623047 0)"/>
       <use xlink:href="#DejaVuSans-6b" transform="translate(95.410156 0)"/>
      </g>
     </g>
    </g>
    <g id="xtick_8">
     <g id="line2d_8">
      <g>
       <use xlink:href="#mdf71e94a2d" x="373.111824" y="288.430125" style="stroke: #000000; stroke-width: 0.8"/>
      </g>
     </g>
     <g id="text_8">
      <!-- 3.5 k -->
      <g transform="translate(360.675886 303.028562) scale(0.1 -0.1)">
       <use xlink:href="#DejaVuSans-33"/>
       <use xlink:href="#DejaVuSans-2e" transform="translate(63.623047 0)"/>
       <use xlink:href="#DejaVuSans-35" transform="translate(95.410156 0)"/>
       <use xlink:href="#DejaVuSans-20" transform="translate(159.033203 0)"/>
       <use xlink:href="#DejaVuSans-6b" transform="translate(190.820312 0)"/>
      </g>
     </g>
    </g>
    <g id="xtick_9">
     <g id="line2d_9">
      <g>
       <use xlink:href="#mdf71e94a2d" x="416.660388" y="288.430125" style="stroke: #000000; stroke-width: 0.8"/>
      </g>
     </g>
     <g id="text_9">
      <!-- 4 k -->
      <g transform="translate(408.994763 303.028562) scale(0.1 -0.1)">
       <defs>
        <path id="DejaVuSans-34" d="M 2419 4116 
L 825 1625 
L 2419 1625 
L 2419 4116 
z
M 2253 4666 
L 3047 4666 
L 3047 1625 
L 3713 1625 
L 3713 1100 
L 3047 1100 
L 3047 0 
L 2419 0 
L 2419 1100 
L 313 1100 
L 313 1709 
L 2253 4666 
z
" transform="scale(0.015625)"/>
       </defs>
       <use xlink:href="#DejaVuSans-34"/>
       <use xlink:href="#DejaVuSans-20" transform="translate(63.623047 0)"/>
       <use xlink:href="#DejaVuSans-6b" transform="translate(95.410156 0)"/>
      </g>
     </g>
    </g>
    <g id="text_10">
     <!-- Amount of objects in table -->
     <g transform="translate(180.773281 316.706687) scale(0.1 -0.1)">
      <defs>
       <path id="DejaVuSans-41" d="M 2188 4044 
L 1331 1722 
L 3047 1722 
L 2188 4044 
z
M 1831 4666 
L 2547 4666 
L 4325 0 
L 3669 0 
L 3244 1197 
L 1141 1197 
L 716 0 
L 50 0 
L 1831 4666 
z
" transform="scale(0.015625)"/>
       <path id="DejaVuSans-6d" d="M 3328 2828 
Q 3544 3216 3844 3400 
Q 4144 3584 4550 3584 
Q 5097 3584 5394 3201 
Q 5691 2819 5691 2113 
L 5691 0 
L 5113 0 
L 5113 2094 
Q 5113 2597 4934 2840 
Q 4756 3084 4391 3084 
Q 3944 3084 3684 2787 
Q 3425 2491 3425 1978 
L 3425 0 
L 2847 0 
L 2847 2094 
Q 2847 2600 2669 2842 
Q 2491 3084 2119 3084 
Q 1678 3084 1418 2786 
Q 1159 2488 1159 1978 
L 1159 0 
L 581 0 
L 581 3500 
L 1159 3500 
L 1159 2956 
Q 1356 3278 1631 3431 
Q 1906 3584 2284 3584 
Q 2666 3584 2933 3390 
Q 3200 3197 3328 2828 
z
" transform="scale(0.015625)"/>
       <path id="DejaVuSans-6f" d="M 1959 3097 
Q 1497 3097 1228 2736 
Q 959 2375 959 1747 
Q 959 1119 1226 758 
Q 1494 397 1959 397 
Q 2419 397 2687 759 
Q 2956 1122 2956 1747 
Q 2956 2369 2687 2733 
Q 2419 3097 1959 3097 
z
M 1959 3584 
Q 2709 3584 3137 3096 
Q 3566 2609 3566 1747 
Q 3566 888 3137 398 
Q 2709 -91 1959 -91 
Q 1206 -91 779 398 
Q 353 888 353 1747 
Q 353 2609 779 3096 
Q 1206 3584 1959 3584 
z
" transform="scale(0.015625)"/>
       <path id="DejaVuSans-75" d="M 544 1381 
L 544 3500 
L 1119 3500 
L 1119 1403 
Q 1119 906 1312 657 
Q 1506 409 1894 409 
Q 2359 409 2629 706 
Q 2900 1003 2900 1516 
L 2900 3500 
L 3475 3500 
L 3475 0 
L 2900 0 
L 2900 538 
Q 2691 219 2414 64 
Q 2138 -91 1772 -91 
Q 1169 -91 856 284 
Q 544 659 544 1381 
z
M 1991 3584 
L 1991 3584 
z
" transform="scale(0.015625)"/>
       <path id="DejaVuSans-6e" d="M 3513 2113 
L 3513 0 
L 2938 0 
L 2938 2094 
Q 2938 2591 2744 2837 
Q 2550 3084 2163 3084 
Q 1697 3084 1428 2787 
Q 1159 2491 1159 1978 
L 1159 0 
L 581 0 
L 581 3500 
L 1159 3500 
L 1159 2956 
Q 1366 3272 1645 3428 
Q 1925 3584 2291 3584 
Q 2894 3584 3203 3211 
Q 3513 2838 3513 2113 
z
" transform="scale(0.015625)"/>
       <path id="DejaVuSans-74" d="M 1172 4494 
L 1172 3500 
L 2356 3500 
L 2356 3053 
L 1172 3053 
L 1172 1153 
Q 1172 725 1289 603 
Q 1406 481 1766 481 
L 2356 481 
L 2356 0 
L 1766 0 
Q 1100 0 847 248 
Q 594 497 594 1153 
L 594 3053 
L 172 3053 
L 172 3500 
L 594 3500 
L 594 4494 
L 1172 4494 
z
" transform="scale(0.015625)"/>
       <path id="DejaVuSans-66" d="M 2375 4863 
L 2375 4384 
L 1825 4384 
Q 1516 4384 1395 4259 
Q 1275 4134 1275 3809 
L 1275 3500 
L 2222 3500 
L 2222 3053 
L 1275 3053 
L 1275 0 
L 697 0 
L 697 3053 
L 147 3053 
L 147 3500 
L 697 3500 
L 697 3744 
Q 697 4328 969 4595 
Q 1241 4863 1831 4863 
L 2375 4863 
z
" transform="scale(0.015625)"/>
       <path id="DejaVuSans-62" d="M 3116 1747 
Q 3116 2381 2855 2742 
Q 2594 3103 2138 3103 
Q 1681 3103 1420 2742 
Q 1159 2381 1159 1747 
Q 1159 1113 1420 752 
Q 1681 391 2138 391 
Q 2594 391 2855 752 
Q 3116 1113 3116 1747 
z
M 1159 2969 
Q 1341 3281 1617 3432 
Q 1894 3584 2278 3584 
Q 2916 3584 3314 3078 
Q 3713 2572 3713 1747 
Q 3713 922 3314 415 
Q 2916 -91 2278 -91 
Q 1894 -91 1617 61 
Q 1341 213 1159 525 
L 1159 0 
L 581 0 
L 581 4863 
L 1159 4863 
L 1159 2969 
z
" transform="scale(0.015625)"/>
       <path id="DejaVuSans-6a" d="M 603 3500 
L 1178 3500 
L 1178 -63 
Q 1178 -731 923 -1031 
Q 669 -1331 103 -1331 
L -116 -1331 
L -116 -844 
L 38 -844 
Q 366 -844 484 -692 
Q 603 -541 603 -63 
L 603 3500 
z
M 603 4863 
L 1178 4863 
L 1178 4134 
L 603 4134 
L 603 4863 
z
" transform="scale(0.015625)"/>
       <path id="DejaVuSans-65" d="M 3597 1894 
L 3597 1613 
L 953 1613 
Q 991 1019 1311 708 
Q 1631 397 2203 397 
Q 2534 397 2845 478 
Q 3156 559 3463 722 
L 3463 178 
Q 3153 47 2828 -22 
Q 2503 -91 2169 -91 
Q 1331 -91 842 396 
Q 353 884 353 1716 
Q 353 2575 817 3079 
Q 1281 3584 2069 3584 
Q 2775 3584 3186 3129 
Q 3597 2675 3597 1894 
z
M 3022 2063 
Q 3016 2534 2758 2815 
Q 2500 3097 2075 3097 
Q 1594 3097 1305 2825 
Q 1016 2553 972 2059 
L 3022 2063 
z
" transform="scale(0.015625)"/>
       <path id="DejaVuSans-63" d="M 3122 3366 
L 3122 2828 
Q 2878 2963 2633 3030 
Q 2388 3097 2138 3097 
Q 1578 3097 1268 2742 
Q 959 2388 959 1747 
Q 959 1106 1268 751 
Q 1578 397 2138 397 
Q 2388 397 2633 464 
Q 2878 531 3122 666 
L 3122 134 
Q 2881 22 2623 -34 
Q 2366 -91 2075 -91 
Q 1284 -91 818 406 
Q 353 903 353 1747 
Q 353 2603 823 3093 
Q 1294 3584 2113 3584 
Q 2378 3584 2631 3529 
Q 2884 3475 3122 3366 
z
" transform="scale(0.015625)"/>
       <path id="DejaVuSans-73" d="M 2834 3397 
L 2834 2853 
Q 2591 2978 2328 3040 
Q 2066 3103 1784 3103 
Q 1356 3103 1142 2972 
Q 928 2841 928 2578 
Q 928 2378 1081 2264 
Q 1234 2150 1697 2047 
L 1894 2003 
Q 2506 1872 2764 1633 
Q 3022 1394 3022 966 
Q 3022 478 2636 193 
Q 2250 -91 1575 -91 
Q 1294 -91 989 -36 
Q 684 19 347 128 
L 347 722 
Q 666 556 975 473 
Q 1284 391 1588 391 
Q 1994 391 2212 530 
Q 2431 669 2431 922 
Q 2431 1156 2273 1281 
Q 2116 1406 1581 1522 
L 1381 1569 
Q 847 1681 609 1914 
Q 372 2147 372 2553 
Q 372 3047 722 3315 
Q 1072 3584 1716 3584 
Q 2034 3584 2315 3537 
Q 2597 3491 2834 3397 
z
" transform="scale(0.015625)"/>
       <path id="DejaVuSans-69" d="M 603 3500 
L 1178 3500 
L 1178 0 
L 603 0 
L 603 3500 
z
M 603 4863 
L 1178 4863 
L 1178 4134 
L 603 4134 
L 603 4863 
z
" transform="scale(0.015625)"/>
       <path id="DejaVuSans-61" d="M 2194 1759 
Q 1497 1759 1228 1600 
Q 959 1441 959 1056 
Q 959 750 1161 570 
Q 1363 391 1709 391 
Q 2188 391 2477 730 
Q 2766 1069 2766 1631 
L 2766 1759 
L 2194 1759 
z
M 3341 1997 
L 3341 0 
L 2766 0 
L 2766 531 
Q 2569 213 2275 61 
Q 1981 -91 1556 -91 
Q 1019 -91 701 211 
Q 384 513 384 1019 
Q 384 1609 779 1909 
Q 1175 2209 1959 2209 
L 2766 2209 
L 2766 2266 
Q 2766 2663 2505 2880 
Q 2244 3097 1772 3097 
Q 1472 3097 1187 3025 
Q 903 2953 641 2809 
L 641 3341 
Q 956 3463 1253 3523 
Q 1550 3584 1831 3584 
Q 2591 3584 2966 3190 
Q 3341 2797 3341 1997 
z
" transform="scale(0.015625)"/>
       <path id="DejaVuSans-6c" d="M 603 4863 
L 1178 4863 
L 1178 0 
L 603 0 
L 603 4863 
z
" transform="scale(0.015625)"/>
      </defs>
      <use xlink:href="#DejaVuSans-41"/>
      <use xlink:href="#DejaVuSans-6d" transform="translate(68.408203 0)"/>
      <use xlink:href="#DejaVuSans-6f" transform="translate(165.820312 0)"/>
      <use xlink:href="#DejaVuSans-75" transform="translate(227.001953 0)"/>
      <use xlink:href="#DejaVuSans-6e" transform="translate(290.380859 0)"/>
      <use xlink:href="#DejaVuSans-74" transform="translate(353.759766 0)"/>
      <use xlink:href="#DejaVuSans-20" transform="translate(392.96875 0)"/>
      <use xlink:href="#DejaVuSans-6f" transform="translate(424.755859 0)"/>
      <use xlink:href="#DejaVuSans-66" transform="translate(485.9375 0)"/>
      <use xlink:href="#DejaVuSans-20" transform="translate(521.142578 0)"/>
      <use xlink:href="#DejaVuSans-6f" transform="translate(552.929688 0)"/>
      <use xlink:href="#DejaVuSans-62" transform="translate(614.111328 0)"/>
      <use xlink:href="#DejaVuSans-6a" transform="translate(677.587891 0)"/>
      <use xlink:href="#DejaVuSans-65" transform="translate(705.371094 0)"/>
      <use xlink:href="#DejaVuSans-63" transform="translate(766.894531 0)"/>
      <use xlink:href="#DejaVuSans-74" transform="translate(821.875 0)"/>
      <use xlink:href="#DejaVuSans-73" transform="translate(861.083984 0)"/>
      <use xlink:href="#DejaVuSans-20" transform="translate(913.183594 0)"/>
      <use xlink:href="#DejaVuSans-69" transform="translate(944.970703 0)"/>
      <use xlink:href="#DejaVuSans-6e" transform="translate(972.753906 0)"/>
      <use xlink:href="#DejaVuSans-20" transform="translate(1036.132812 0)"/>
      <use xlink:href="#DejaVuSans-74" transform="translate(1067.919922 0)"/>
      <use xlink:href="#DejaVuSans-61" transform="translate(1107.128906 0)"/>
      <use xlink:href="#DejaVuSans-62" transform="translate(1168.408203 0)"/>
      <use xlink:href="#DejaVuSans-6c" transform="translate(1231.884766 0)"/>
      <use xlink:href="#DejaVuSans-65" transform="translate(1259.667969 0)"/>
     </g>
    </g>
   </g>
   <g id="matplotlib.axis_2">
    <g id="ytick_1">
     <g id="line2d_10">
      <defs>
       <path id="m1f45815f87" d="M 0 0 
L -3.5 0 
" style="stroke: #000000; stroke-width: 0.8"/>
      </defs>
      <g>
       <use xlink:href="#m1f45815f87" x="68.271875" y="288.430125" style="stroke: #000000; stroke-width: 0.8"/>
      </g>
     </g>
     <g id="text_11">
      <!-- 0 -->
      <g transform="translate(54.909375 292.229344) scale(0.1 -0.1)">
       <use xlink:href="#DejaVuSans-30"/>
      </g>
     </g>
    </g>
    <g id="ytick_2">
     <g id="line2d_11">
      <g>
       <use xlink:href="#m1f45815f87" x="68.271875" y="255.1569" style="stroke: #000000; stroke-width: 0.8"/>
      </g>
     </g>
     <g id="text_12">
      <!-- 2.5 ms -->
      <g transform="translate(27.240625 258.956118) scale(0.1 -0.1)">
       <use xlink:href="#DejaVuSans-32"/>
       <use xlink:href="#DejaVuSans-2e" transform="translate(63.623047 0)"/>
       <use xlink:href="#DejaVuSans-35" transform="translate(95.410156 0)"/>
       <use xlink:href="#DejaVuSans-20" transform="translate(159.033203 0)"/>
       <use xlink:href="#DejaVuSans-6d" transform="translate(190.820312 0)"/>
       <use xlink:href="#DejaVuSans-73" transform="translate(288.232422 0)"/>
      </g>
     </g>
    </g>
    <g id="ytick_3">
     <g id="line2d_12">
      <g>
       <use xlink:href="#m1f45815f87" x="68.271875" y="221.883674" style="stroke: #000000; stroke-width: 0.8"/>
      </g>
     </g>
     <g id="text_13">
      <!-- 5 ms -->
      <g transform="translate(36.78125 225.682893) scale(0.1 -0.1)">
       <use xlink:href="#DejaVuSans-35"/>
       <use xlink:href="#DejaVuSans-20" transform="translate(63.623047 0)"/>
       <use xlink:href="#DejaVuSans-6d" transform="translate(95.410156 0)"/>
       <use xlink:href="#DejaVuSans-73" transform="translate(192.822266 0)"/>
      </g>
     </g>
    </g>
    <g id="ytick_4">
     <g id="line2d_13">
      <g>
       <use xlink:href="#m1f45815f87" x="68.271875" y="188.610449" style="stroke: #000000; stroke-width: 0.8"/>
      </g>
     </g>
     <g id="text_14">
      <!-- 7.5 ms -->
      <g transform="translate(27.240625 192.409668) scale(0.1 -0.1)">
       <defs>
        <path id="DejaVuSans-37" d="M 525 4666 
L 3525 4666 
L 3525 4397 
L 1831 0 
L 1172 0 
L 2766 4134 
L 525 4134 
L 525 4666 
z
" transform="scale(0.015625)"/>
       </defs>
       <use xlink:href="#DejaVuSans-37"/>
       <use xlink:href="#DejaVuSans-2e" transform="translate(63.623047 0)"/>
       <use xlink:href="#DejaVuSans-35" transform="translate(95.410156 0)"/>
       <use xlink:href="#DejaVuSans-20" transform="translate(159.033203 0)"/>
       <use xlink:href="#DejaVuSans-6d" transform="translate(190.820312 0)"/>
       <use xlink:href="#DejaVuSans-73" transform="translate(288.232422 0)"/>
      </g>
     </g>
    </g>
    <g id="ytick_5">
     <g id="line2d_14">
      <g>
       <use xlink:href="#m1f45815f87" x="68.271875" y="155.337223" style="stroke: #000000; stroke-width: 0.8"/>
      </g>
     </g>
     <g id="text_15">
      <!-- 10 ms -->
      <g transform="translate(30.41875 159.136442) scale(0.1 -0.1)">
       <use xlink:href="#DejaVuSans-31"/>
       <use xlink:href="#DejaVuSans-30" transform="translate(63.623047 0)"/>
       <use xlink:href="#DejaVuSans-20" transform="translate(127.246094 0)"/>
       <use xlink:href="#DejaVuSans-6d" transform="translate(159.033203 0)"/>
       <use xlink:href="#DejaVuSans-73" transform="translate(256.445312 0)"/>
      </g>
     </g>
    </g>
    <g id="ytick_6">
     <g id="line2d_15">
      <g>
       <use xlink:href="#m1f45815f87" x="68.271875" y="122.063998" style="stroke: #000000; stroke-width: 0.8"/>
      </g>
     </g>
     <g id="text_16">
      <!-- 12.5 ms -->
      <g transform="translate(20.878125 125.863217) scale(0.1 -0.1)">
       <use xlink:href="#DejaVuSans-31"/>
       <use xlink:href="#DejaVuSans-32" transform="translate(63.623047 0)"/>
       <use xlink:href="#DejaVuSans-2e" transform="translate(127.246094 0)"/>
       <use xlink:href="#DejaVuSans-35" transform="translate(159.033203 0)"/>
       <use xlink:href="#DejaVuSans-20" transform="translate(222.65625 0)"/>
       <use xlink:href="#DejaVuSans-6d" transform="translate(254.443359 0)"/>
       <use xlink:href="#DejaVuSans-73" transform="translate(351.855469 0)"/>
      </g>
     </g>
    </g>
    <g id="ytick_7">
     <g id="line2d_16">
      <g>
       <use xlink:href="#m1f45815f87" x="68.271875" y="88.790773" style="stroke: #000000; stroke-width: 0.8"/>
      </g>
     </g>
     <g id="text_17">
      <!-- 15 ms -->
      <g transform="translate(30.41875 92.589991) scale(0.1 -0.1)">
       <use xlink:href="#DejaVuSans-31"/>
       <use xlink:href="#DejaVuSans-35" transform="translate(63.623047 0)"/>
       <use xlink:href="#DejaVuSans-20" transform="translate(127.246094 0)"/>
       <use xlink:href="#DejaVuSans-6d" transform="translate(159.033203 0)"/>
       <use xlink:href="#DejaVuSans-73" transform="translate(256.445312 0)"/>
      </g>
     </g>
    </g>
    <g id="ytick_8">
     <g id="line2d_17">
      <g>
       <use xlink:href="#m1f45815f87" x="68.271875" y="55.517547" style="stroke: #000000; stroke-width: 0.8"/>
      </g>
     </g>
     <g id="text_18">
      <!-- 17.5 ms -->
      <g transform="translate(20.878125 59.316766) scale(0.1 -0.1)">
       <use xlink:href="#DejaVuSans-31"/>
       <use xlink:href="#DejaVuSans-37" transform="translate(63.623047 0)"/>
       <use xlink:href="#DejaVuSans-2e" transform="translate(127.246094 0)"/>
       <use xlink:href="#DejaVuSans-35" transform="translate(159.033203 0)"/>
       <use xlink:href="#DejaVuSans-20" transform="translate(222.65625 0)"/>
       <use xlink:href="#DejaVuSans-6d" transform="translate(254.443359 0)"/>
       <use xlink:href="#DejaVuSans-73" transform="translate(351.855469 0)"/>
      </g>
     </g>
    </g>
    <g id="text_19">
     <!-- Write latency (s) -->
     <g transform="translate(14.798438 196.625687) rotate(-90) scale(0.1 -0.1)">
      <defs>
       <path id="DejaVuSans-57" d="M 213 4666 
L 850 4666 
L 1831 722 
L 2809 4666 
L 3519 4666 
L 4500 722 
L 5478 4666 
L 6119 4666 
L 4947 0 
L 4153 0 
L 3169 4050 
L 2175 0 
L 1381 0 
L 213 4666 
z
" transform="scale(0.015625)"/>
       <path id="DejaVuSans-72" d="M 2631 2963 
Q 2534 3019 2420 3045 
Q 2306 3072 2169 3072 
Q 1681 3072 1420 2755 
Q 1159 2438 1159 1844 
L 1159 0 
L 581 0 
L 581 3500 
L 1159 3500 
L 1159 2956 
Q 1341 3275 1631 3429 
Q 1922 3584 2338 3584 
Q 2397 3584 2469 3576 
Q 2541 3569 2628 3553 
L 2631 2963 
z
" transform="scale(0.015625)"/>
       <path id="DejaVuSans-79" d="M 2059 -325 
Q 1816 -950 1584 -1140 
Q 1353 -1331 966 -1331 
L 506 -1331 
L 506 -850 
L 844 -850 
Q 1081 -850 1212 -737 
Q 1344 -625 1503 -206 
L 1606 56 
L 191 3500 
L 800 3500 
L 1894 763 
L 2988 3500 
L 3597 3500 
L 2059 -325 
z
" transform="scale(0.015625)"/>
       <path id="DejaVuSans-28" d="M 1984 4856 
Q 1566 4138 1362 3434 
Q 1159 2731 1159 2009 
Q 1159 1288 1364 580 
Q 1569 -128 1984 -844 
L 1484 -844 
Q 1016 -109 783 600 
Q 550 1309 550 2009 
Q 550 2706 781 3412 
Q 1013 4119 1484 4856 
L 1984 4856 
z
" transform="scale(0.015625)"/>
       <path id="DejaVuSans-29" d="M 513 4856 
L 1013 4856 
Q 1481 4119 1714 3412 
Q 1947 2706 1947 2009 
Q 1947 1309 1714 600 
Q 1481 -109 1013 -844 
L 513 -844 
Q 928 -128 1133 580 
Q 1338 1288 1338 2009 
Q 1338 2731 1133 3434 
Q 928 4138 513 4856 
z
" transform="scale(0.015625)"/>
      </defs>
      <use xlink:href="#DejaVuSans-57"/>
      <use xlink:href="#DejaVuSans-72" transform="translate(94.376953 0)"/>
      <use xlink:href="#DejaVuSans-69" transform="translate(135.490234 0)"/>
      <use xlink:href="#DejaVuSans-74" transform="translate(163.273438 0)"/>
      <use xlink:href="#DejaVuSans-65" transform="translate(202.482422 0)"/>
      <use xlink:href="#DejaVuSans-20" transform="translate(264.005859 0)"/>
      <use xlink:href="#DejaVuSans-6c" transform="translate(295.792969 0)"/>
      <use xlink:href="#DejaVuSans-61" transform="translate(323.576172 0)"/>
      <use xlink:href="#DejaVuSans-74" transform="translate(384.855469 0)"/>
      <use xlink:href="#DejaVuSans-65" transform="translate(424.064453 0)"/>
      <use xlink:href="#DejaVuSans-6e" transform="translate(485.587891 0)"/>
      <use xlink:href="#DejaVuSans-63" transform="translate(548.966797 0)"/>
      <use xlink:href="#DejaVuSans-79" transform="translate(603.947266 0)"/>
      <use xlink:href="#DejaVuSans-20" transform="translate(663.126953 0)"/>
      <use xlink:href="#DejaVuSans-28" transform="translate(694.914062 0)"/>
      <use xlink:href="#DejaVuSans-73" transform="translate(733.927734 0)"/>
      <use xlink:href="#DejaVuSans-29" transform="translate(786.027344 0)"/>
     </g>
    </g>
   </g>
   <g id="line2d_18">
    <path d="M 153.627061 243.949289 
L 160.594831 242.00338 
L 161.465802 241.595797 
L 164.078716 240.260034 
L 164.949687 239.690456 
L 165.820659 239.225039 
L 166.256144 238.936296 
L 166.69163 238.824323 
L 167.998087 238.179565 
L 170.611001 237.152447 
L 171.917458 236.546223 
L 172.352943 236.432948 
L 173.6594 235.794032 
L 179.320713 233.675307 
L 181.498142 232.505021 
L 181.933627 232.347663 
L 183.240084 231.38492 
L 184.546541 230.818955 
L 188.465912 228.995221 
L 189.772369 228.143116 
L 190.64334 227.579835 
L 194.127225 225.678513 
L 195.869168 224.579632 
L 197.175625 223.924736 
L 198.482082 223.234691 
L 199.353053 222.464552 
L 200.224024 221.974987 
L 201.965967 220.519928 
L 202.836938 219.973864 
L 204.143395 218.965183 
L 204.578881 218.691541 
L 205.449852 219.416605 
L 209.804708 222.220917 
L 210.240194 222.28936 
L 212.853108 223.633324 
L 217.207964 225.792146 
L 218.514421 226.517226 
L 219.385392 226.788395 
L 219.820878 226.811876 
L 221.562821 227.560992 
L 225.046706 226.534866 
L 230.272533 225.886333 
L 231.57899 225.843356 
L 235.062876 225.34694 
L 235.498361 225.560194 
L 236.804818 225.626034 
L 245.514531 226.834121 
L 245.950017 227.010973 
L 247.691959 227.232608 
L 249.433902 227.752343 
L 251.175844 228.287048 
L 256.837158 229.236725 
L 257.272643 229.222925 
L 258.5791 229.552692 
L 259.885557 229.646049 
L 260.756528 229.68027 
L 262.933957 229.56698 
L 263.369442 229.608264 
L 263.804928 229.815188 
L 264.240414 229.814488 
L 265.111385 230.035911 
L 265.54687 230.01723 
L 266.417842 230.157973 
L 266.853327 230.091824 
L 268.159784 230.462289 
L 269.466241 230.427791 
L 269.901727 230.503166 
L 270.337212 229.838718 
L 270.772698 229.797499 
L 271.643669 229.894468 
L 272.079155 229.85281 
L 272.514641 229.952155 
L 273.821098 229.785929 
L 274.692069 229.888724 
L 275.127555 229.926265 
L 276.434011 229.706225 
L 277.304983 229.754686 
L 277.740468 229.81273 
L 278.175954 229.63513 
L 279.046925 229.673696 
L 279.917897 229.88036 
L 280.353382 229.790551 
L 282.095325 230.034576 
L 283.837267 230.43386 
L 284.272753 230.585831 
L 285.143724 230.599761 
L 286.450181 231.023519 
L 286.885667 231.009996 
L 287.321152 230.882418 
L 289.498581 231.661166 
L 291.240523 229.535931 
L 297.337322 222.149268 
L 298.208294 220.776614 
L 299.079265 218.731425 
L 302.127664 214.812546 
L 304.305092 212.09142 
L 304.740578 211.761718 
L 305.176064 211.238241 
L 305.611549 210.337887 
L 306.482521 209.343233 
L 306.918006 208.469371 
L 307.788978 207.448631 
L 312.143834 200.808317 
L 313.014805 199.264279 
L 313.885777 198.052075 
L 315.192234 196.124977 
L 316.49869 193.657169 
L 318.676119 190.228407 
L 319.982576 188.050546 
L 320.853547 186.764724 
L 321.724518 185.25935 
L 322.595489 183.710057 
L 323.466461 182.1 
L 324.337432 180.641671 
L 325.208403 179.018466 
L 329.56326 170.665089 
L 329.998745 170.000787 
L 330.869717 168.102704 
L 333.047145 164.452275 
L 333.918116 162.890874 
L 334.789087 161.470835 
L 335.660059 160.005654 
L 337.402001 156.96599 
L 337.837487 154.073854 
L 339.143944 151.474139 
L 340.014915 149.858436 
L 341.756858 145.639178 
L 342.627829 143.463563 
L 344.369771 139.423712 
L 345.240743 137.157377 
L 346.982685 133.419352 
L 348.289142 130.342228 
L 351.337542 123.001877 
L 352.643999 120.332986 
L 354.821427 115.769121 
L 355.256912 115.437906 
L 359.176283 106.613547 
L 359.611769 105.533949 
L 360.047255 104.92888 
L 360.48274 104.011033 
L 360.918226 103.532175 
L 361.353711 102.882324 
L 362.660168 99.438331 
L 363.095654 98.693805 
L 363.53114 97.721575 
L 363.966625 97.052847 
L 364.402111 96.099558 
L 364.837597 95.53343 
L 366.579539 92.38176 
L 367.015025 91.389677 
L 367.45051 90.682236 
L 367.885996 89.663889 
L 369.627939 86.76998 
L 370.063424 86.372079 
L 371.369881 83.651344 
L 371.805367 82.880846 
L 373.111824 79.92733 
L 373.547309 79.002681 
L 374.418281 77.592372 
L 375.289252 75.881051 
L 377.031195 72.868253 
L 377.902166 71.609704 
L 379.644108 68.765003 
L 381.386051 66.108431 
L 383.127994 64.157363 
L 383.563479 64.03828 
L 383.998965 63.690239 
L 384.869936 62.142084 
L 385.305422 61.777949 
L 387.047364 58.978909 
L 387.48285 58.349025 
L 389.224793 56.595931 
L 389.660278 56.167893 
L 390.095764 55.521264 
L 390.531249 55.32866 
L 390.966735 54.759928 
L 391.402221 53.983068 
L 391.837706 53.594052 
L 392.273192 52.633505 
L 393.144163 51.55573 
L 393.579649 50.948741 
L 394.015135 50.694203 
L 394.45062 49.732729 
L 394.886106 49.317433 
L 395.757077 48.20913 
L 396.192563 47.867207 
L 397.063534 46.485571 
L 397.934505 46.092275 
L 400.547419 43.056207 
L 403.160333 41.049796 
L 404.031304 39.973892 
L 404.902276 38.9918 
L 405.773247 37.42734 
L 406.208733 37.113195 
L 407.079704 35.874092 
L 407.950675 35.198953 
L 408.386161 34.990125 
L 408.386161 34.990125 
" clip-path="url(#p5509c60ff0)" style="fill: none; stroke: #1f77b4; stroke-opacity: 0.8; stroke-width: 1.5; stroke-linecap: square"/>
   </g>
   <g id="line2d_19">
    <path d="M 153.627061 280.861142 
L 156.67546 280.808581 
L 180.191685 280.684257 
L 182.804599 280.664974 
L 205.014366 280.473591 
L 209.369223 280.237669 
L 211.546651 280.053754 
L 214.59505 279.626009 
L 220.256364 278.494225 
L 225.046706 277.200982 
L 228.966077 275.821022 
L 240.288703 270.055009 
L 245.514531 267.000699 
L 246.820988 265.98681 
L 252.917787 261.652813 
L 258.5791 257.11544 
L 266.417842 249.781321 
L 270.337212 245.825616 
L 279.046925 236.465038 
L 284.708239 230.366068 
L 288.627609 226.121067 
L 298.208294 215.194108 
L 301.256693 212.037248 
L 304.305092 209.416997 
L 313.014805 202.478387 
L 314.756748 201.282374 
L 317.369662 199.339768 
L 318.240633 198.88226 
L 319.111604 198.002134 
L 324.337432 195.101715 
L 326.079375 194.108005 
L 329.56326 192.169662 
L 330.869717 191.531153 
L 331.740688 191.232516 
L 333.918116 190.287347 
L 338.272972 188.738671 
L 338.708458 187.992599 
L 340.014915 186.972413 
L 340.450401 186.671921 
L 342.192343 186.146442 
L 343.063315 185.907444 
L 347.853657 185.236259 
L 350.031085 185.082531 
L 353.079484 184.809686 
L 354.385941 184.779875 
L 355.256912 184.799044 
L 363.53114 184.875119 
L 364.837597 184.932383 
L 365.273082 184.878194 
L 366.579539 184.999817 
L 370.49891 185.132391 
L 371.369881 185.063476 
L 374.418281 185.229799 
L 376.595709 185.504515 
L 379.208623 186.04407 
L 383.127994 186.61744 
L 385.740907 187.073825 
L 389.660278 187.312155 
L 391.402221 187.445396 
L 392.708678 187.534522 
L 394.015135 187.485899 
L 395.321591 187.587734 
L 397.934505 187.823786 
L 398.805477 187.870684 
L 400.111934 188.115914 
L 400.982905 188.268389 
L 403.160333 188.310243 
L 404.031304 188.762576 
L 405.773247 188.780346 
L 407.079704 188.593421 
L 408.386161 188.568833 
L 408.386161 188.568833 
" clip-path="url(#p5509c60ff0)" style="fill: none; stroke: #ff7f0e; stroke-opacity: 0.8; stroke-width: 1.5; stroke-linecap: square"/>
   </g>
   <g id="line2d_20">
    <path d="M 153.627061 284.556093 
L 195.433682 284.563058 
L 204.143395 284.55388 
L 217.207964 284.500961 
L 224.175735 284.349055 
L 233.756419 284.234609 
L 325.643889 282.631257 
L 330.869717 282.61557 
L 346.111714 282.633356 
L 359.176283 282.504492 
L 367.45051 282.399126 
L 370.49891 282.352245 
L 379.208623 282.377825 
L 408.386161 282.481076 
L 408.386161 282.481076 
" clip-path="url(#p5509c60ff0)" style="fill: none; stroke: #2ca02c; stroke-opacity: 0.8; stroke-width: 1.5; stroke-linecap: square"/>
   </g>
   <g id="line2d_21">
    <path d="M 153.627061 279.789908 
L 191.949797 279.479018 
L 196.304653 278.721197 
L 197.175625 278.468856 
L 206.320823 276.230672 
L 209.804708 275.662835 
L 215.901507 275.446034 
L 218.949907 275.521686 
L 221.562821 275.31704 
L 225.046706 274.427198 
L 226.788648 274.00165 
L 230.272533 273.202724 
L 234.191904 272.364386 
L 239.853218 271.20414 
L 241.59516 270.810242 
L 243.337103 270.334233 
L 244.64356 270.021585 
L 248.127445 269.148699 
L 252.482301 268.1077 
L 253.353272 267.825612 
L 255.530701 267.328757 
L 256.401672 267.023806 
L 258.5791 266.54822 
L 259.885557 266.258451 
L 262.933957 265.625719 
L 265.54687 265.042927 
L 267.288813 264.640861 
L 268.59527 264.311647 
L 274.692069 263.007209 
L 277.304983 262.515545 
L 279.046925 262.324763 
L 281.659839 262.066482 
L 282.53081 261.935666 
L 283.837267 261.800195 
L 285.57921 261.542273 
L 287.321152 261.280949 
L 289.934066 260.574013 
L 290.369552 260.275278 
L 292.982466 259.399756 
L 293.853437 259.266743 
L 294.288923 258.94949 
L 296.901837 258.20018 
L 299.51475 257.337253 
L 301.256693 256.635101 
L 303.434121 255.70627 
L 310.401891 252.469641 
L 311.708348 251.778294 
L 312.57932 251.223101 
L 313.014805 250.289079 
L 313.450291 249.629985 
L 314.756748 248.744471 
L 315.627719 248.230725 
L 316.063205 247.333593 
L 317.369662 246.487281 
L 317.805147 245.496516 
L 319.982576 244.085719 
L 320.853547 243.414225 
L 321.289032 242.923879 
L 321.724518 242.666087 
L 322.595489 241.914921 
L 323.901946 240.902432 
L 325.208403 239.783894 
L 326.079375 239.017936 
L 327.821317 237.704971 
L 329.56326 236.407172 
L 333.48263 233.292393 
L 334.353602 232.535142 
L 341.321372 226.542351 
L 342.192343 225.584717 
L 343.4988 224.298293 
L 345.676228 221.770032 
L 346.982685 220.492346 
L 347.853657 219.447751 
L 349.160114 217.952678 
L 350.46657 216.409795 
L 352.208513 214.452495 
L 352.643999 213.790651 
L 355.256912 211.012766 
L 356.563369 209.395436 
L 358.305312 207.529133 
L 360.047255 205.619837 
L 361.789197 204.030626 
L 367.45051 198.197357 
L 370.934396 194.875134 
L 371.805367 194.190703 
L 372.676338 193.552031 
L 373.982795 191.417569 
L 374.853766 190.335059 
L 375.289252 189.774544 
L 378.337651 187.787937 
L 378.773137 187.387807 
L 379.208623 187.225649 
L 383.998965 183.534571 
L 385.305422 182.741943 
L 386.176393 182.289333 
L 387.48285 181.452557 
L 388.353821 181.021916 
L 389.224793 180.133441 
L 390.531249 179.528877 
L 390.966735 179.310757 
L 392.273192 178.346891 
L 394.45062 177.072785 
L 394.886106 176.996498 
L 395.321591 176.657 
L 395.757077 176.015887 
L 396.628048 175.14668 
L 397.063534 174.73275 
L 397.49902 174.595831 
L 397.934505 175.071825 
L 398.369991 175.305778 
L 400.547419 174.545484 
L 400.982905 175.02068 
L 401.41839 174.803911 
L 401.853876 174.764287 
L 402.289362 174.522718 
L 402.724847 175.004456 
L 404.031304 174.469929 
L 404.902276 173.833243 
L 405.337761 173.698244 
L 405.773247 173.386703 
L 407.515189 173.127722 
L 408.386161 172.811722 
L 408.386161 172.811722 
" clip-path="url(#p5509c60ff0)" style="fill: none; stroke: #d62728; stroke-opacity: 0.8; stroke-width: 1.5; stroke-linecap: square"/>
   </g>
   <g id="line2d_22">
    <path d="M 153.627061 230.19291 
L 154.498032 229.088317 
L 159.288374 223.172839 
L 161.901288 220.284869 
L 167.562601 214.064732 
L 168.869058 212.971547 
L 171.481972 210.645458 
L 173.6594 209.180912 
L 175.836828 207.624507 
L 177.578771 206.475164 
L 178.449742 205.820464 
L 181.062656 204.277451 
L 185.852998 200.567074 
L 186.288484 200.09409 
L 187.159455 199.421425 
L 189.772369 197.176114 
L 191.514311 195.78818 
L 192.385283 195.077892 
L 192.820768 194.859772 
L 196.740139 191.877616 
L 203.707909 187.713099 
L 211.111165 183.248009 
L 215.466022 180.20714 
L 216.336993 179.613511 
L 217.64345 178.917103 
L 218.514421 178.367476 
L 219.820878 177.57763 
L 220.691849 177.069221 
L 221.562821 176.472533 
L 222.433792 176.278204 
L 222.869278 176.020786 
L 223.304763 175.926306 
L 223.740249 175.655577 
L 224.61122 175.55135 
L 225.917677 175.462175 
L 230.708019 174.098879 
L 231.143505 174.089245 
L 232.014476 173.74576 
L 232.885447 173.751179 
L 236.369332 172.653291 
L 236.804818 172.850288 
L 237.675789 172.826498 
L 239.417732 172.257034 
L 239.853218 172.234138 
L 240.288703 172.093981 
L 240.724189 171.802764 
L 241.59516 171.564824 
L 242.466131 171.253202 
L 242.901617 171.224041 
L 243.337103 170.861745 
L 244.208074 170.501076 
L 245.079045 170.002594 
L 245.950017 169.620835 
L 247.691959 168.724712 
L 248.56293 168.133785 
L 248.998416 167.84343 
L 249.869387 166.852144 
L 251.175844 165.930685 
L 254.224244 163.784784 
L 254.659729 163.611252 
L 255.530701 163.013701 
L 256.401672 162.503892 
L 258.5791 160.843033 
L 259.014586 160.627468 
L 259.450071 160.110386 
L 259.885557 160.012326 
L 260.756528 159.298865 
L 262.933957 157.700362 
L 263.804928 157.174867 
L 264.675899 156.430048 
L 267.288813 154.125406 
L 267.724299 153.532314 
L 269.030756 152.508402 
L 272.514641 150.635427 
L 277.304983 149.447371 
L 278.175954 149.022995 
L 278.61144 148.961939 
L 279.917897 148.4238 
L 280.353382 148.410652 
L 281.659839 147.932217 
L 282.53081 147.512853 
L 282.966296 147.25314 
L 283.837267 147.137457 
L 285.143724 146.708736 
L 285.57921 146.626624 
L 286.014696 146.364389 
L 288.192124 145.754812 
L 288.627609 145.280641 
L 289.498581 145.029602 
L 289.934066 144.830635 
L 291.240523 144.613899 
L 292.54698 144.073563 
L 293.417951 143.838617 
L 294.288923 143.414713 
L 295.59538 143.034077 
L 296.466351 142.774462 
L 296.901837 142.535774 
L 300.821207 141.817658 
L 301.692179 141.606097 
L 302.127664 141.44018 
L 302.998636 141.35496 
L 303.869607 141.224143 
L 304.305092 141.301081 
L 305.176064 141.158238 
L 306.918006 140.921373 
L 308.224463 141.031669 
L 308.659949 141.151078 
L 309.095435 140.997171 
L 309.966406 141.08174 
L 311.272863 140.986561 
L 312.143834 141.188717 
L 312.57932 141.17884 
L 313.450291 140.864337 
L 314.321262 140.832361 
L 314.756748 140.561273 
L 315.627719 140.2318 
L 316.49869 139.950102 
L 316.934176 139.901805 
L 319.982576 138.658292 
L 322.160004 138.259854 
L 323.030975 137.865533 
L 324.772918 137.68445 
L 325.208403 137.780931 
L 327.821317 137.564179 
L 328.692288 137.45603 
L 329.127774 137.567954 
L 329.56326 137.379825 
L 330.434231 137.504897 
L 331.305202 136.976912 
L 331.740688 137.128623 
L 333.48263 137.049602 
L 335.224573 137.770419 
L 335.660059 137.735644 
L 337.837487 138.337198 
L 338.272972 138.222199 
L 338.708458 138.411353 
L 339.143944 138.285028 
L 340.014915 138.46393 
L 340.450401 138.585569 
L 340.885886 138.831092 
L 342.627829 140.573006 
L 343.4988 141.32396 
L 343.934286 141.687086 
L 344.369771 142.354024 
L 345.240743 143.113325 
L 345.676228 143.574641 
L 346.5472 144.187244 
L 348.289142 145.70217 
L 350.46657 147.389017 
L 353.950456 151.38324 
L 356.563369 153.826541 
L 357.434341 154.507164 
L 360.48274 156.040609 
L 362.224683 156.732183 
L 365.708568 158.357341 
L 366.144054 158.487783 
L 366.579539 158.742777 
L 367.015025 158.788243 
L 367.885996 159.220365 
L 368.321482 158.508287 
L 368.756967 158.491347 
L 369.627939 158.795614 
L 370.934396 158.985322 
L 372.240853 158.882315 
L 372.676338 159.008999 
L 373.111824 158.914275 
L 373.547309 159.12338 
L 374.418281 159.119035 
L 374.853766 159.229836 
L 375.724738 159.105984 
L 376.160223 159.039087 
L 376.595709 159.124079 
L 377.46668 159.066165 
L 381.386051 159.023872 
L 381.821537 159.172702 
L 385.740907 158.698824 
L 386.611879 158.478296 
L 387.047364 158.481843 
L 387.48285 158.254155 
L 388.353821 158.018559 
L 389.660278 157.661584 
L 391.402221 157.775656 
L 392.273192 157.480924 
L 395.757077 156.372735 
L 396.628048 156.132094 
L 397.063534 155.979098 
L 397.49902 155.640365 
L 398.369991 155.738375 
L 399.240962 155.369912 
L 400.111934 155.217518 
L 401.41839 154.679314 
L 401.853876 154.617786 
L 402.289362 154.275929 
L 402.724847 154.185697 
L 403.160333 153.891112 
L 404.031304 154.084611 
L 404.46679 153.909972 
L 404.902276 153.856776 
L 405.337761 153.567024 
L 406.208733 153.420504 
L 406.644218 152.977642 
L 407.079704 152.704504 
L 407.515189 152.590465 
L 408.386161 151.975502 
L 408.386161 151.975502 
" clip-path="url(#p5509c60ff0)" style="fill: none; stroke: #9467bd; stroke-opacity: 0.8; stroke-width: 1.5; stroke-linecap: square"/>
   </g>
   <g id="patch_3">
    <path d="M 68.271875 288.430125 
L 68.271875 22.318125 
" style="fill: none; stroke: #000000; stroke-width: 0.8; stroke-linejoin: miter; stroke-linecap: square"/>
   </g>
   <g id="patch_4">
    <path d="M 425.391875 288.430125 
L 425.391875 22.318125 
" style="fill: none; stroke: #000000; stroke-width: 0.8; stroke-linejoin: miter; stroke-linecap: square"/>
   </g>
   <g id="patch_5">
    <path d="M 68.271875 288.430125 
L 425.391875 288.430125 
" style="fill: none; stroke: #000000; stroke-width: 0.8; stroke-linejoin: miter; stroke-linecap: square"/>
   </g>
   <g id="patch_6">
    <path d="M 68.271875 22.318125 
L 425.391875 22.318125 
" style="fill: none; stroke: #000000; stroke-width: 0.8; stroke-linejoin: miter; stroke-linecap: square"/>
   </g>
   <g id="text_20">
    <!-- Move [root to branch] -->
    <g transform="translate(181.431875 16.318125) scale(0.12 -0.12)">
     <defs>
      <path id="DejaVuSans-4d" d="M 628 4666 
L 1569 4666 
L 2759 1491 
L 3956 4666 
L 4897 4666 
L 4897 0 
L 4281 0 
L 4281 4097 
L 3078 897 
L 2444 897 
L 1241 4097 
L 1241 0 
L 628 0 
L 628 4666 
z
" transform="scale(0.015625)"/>
      <path id="DejaVuSans-76" d="M 191 3500 
L 800 3500 
L 1894 563 
L 2988 3500 
L 3597 3500 
L 2284 0 
L 1503 0 
L 191 3500 
z
" transform="scale(0.015625)"/>
      <path id="DejaVuSans-5b" d="M 550 4863 
L 1875 4863 
L 1875 4416 
L 1125 4416 
L 1125 -397 
L 1875 -397 
L 1875 -844 
L 550 -844 
L 550 4863 
z
" transform="scale(0.015625)"/>
      <path id="DejaVuSans-68" d="M 3513 2113 
L 3513 0 
L 2938 0 
L 2938 2094 
Q 2938 2591 2744 2837 
Q 2550 3084 2163 3084 
Q 1697 3084 1428 2787 
Q 1159 2491 1159 1978 
L 1159 0 
L 581 0 
L 581 4863 
L 1159 4863 
L 1159 2956 
Q 1366 3272 1645 3428 
Q 1925 3584 2291 3584 
Q 2894 3584 3203 3211 
Q 3513 2838 3513 2113 
z
" transform="scale(0.015625)"/>
      <path id="DejaVuSans-5d" d="M 1947 4863 
L 1947 -844 
L 622 -844 
L 622 -397 
L 1369 -397 
L 1369 4416 
L 622 4416 
L 622 4863 
L 1947 4863 
z
" transform="scale(0.015625)"/>
     </defs>
     <use xlink:href="#DejaVuSans-4d"/>
     <use xlink:href="#DejaVuSans-6f" transform="translate(86.279297 0)"/>
     <use xlink:href="#DejaVuSans-76" transform="translate(147.460938 0)"/>
     <use xlink:href="#DejaVuSans-65" transform="translate(206.640625 0)"/>
     <use xlink:href="#DejaVuSans-20" transform="translate(268.164062 0)"/>
     <use xlink:href="#DejaVuSans-5b" transform="translate(299.951172 0)"/>
     <use xlink:href="#DejaVuSans-72" transform="translate(338.964844 0)"/>
     <use xlink:href="#DejaVuSans-6f" transform="translate(377.828125 0)"/>
     <use xlink:href="#DejaVuSans-6f" transform="translate(439.009766 0)"/>
     <use xlink:href="#DejaVuSans-74" transform="translate(500.191406 0)"/>
     <use xlink:href="#DejaVuSans-20" transform="translate(539.400391 0)"/>
     <use xlink:href="#DejaVuSans-74" transform="translate(571.1875 0)"/>
     <use xlink:href="#DejaVuSans-6f" transform="translate(610.396484 0)"/>
     <use xlink:href="#DejaVuSans-20" transform="translate(671.578125 0)"/>
     <use xlink:href="#DejaVuSans-62" transform="translate(703.365234 0)"/>
     <use xlink:href="#DejaVuSans-72" transform="translate(766.841797 0)"/>
     <use xlink:href="#DejaVuSans-61" transform="translate(807.955078 0)"/>
     <use xlink:href="#DejaVuSans-6e" transform="translate(869.234375 0)"/>
     <use xlink:href="#DejaVuSans-63" transform="translate(932.613281 0)"/>
     <use xlink:href="#DejaVuSans-68" transform="translate(987.59375 0)"/>
     <use xlink:href="#DejaVuSans-5d" transform="translate(1050.972656 0)"/>
    </g>
   </g>
   <g id="legend_1">
    <g id="patch_7">
     <path d="M 99.274219 365.802375 
L 386.869531 365.802375 
Q 388.869531 365.802375 388.869531 363.802375 
L 388.869531 335.446125 
Q 388.869531 333.446125 386.869531 333.446125 
L 99.274219 333.446125 
Q 97.274219 333.446125 97.274219 335.446125 
L 97.274219 363.802375 
Q 97.274219 365.802375 99.274219 365.802375 
z
" style="fill: #4d4d4d; opacity: 0.5; stroke: #4d4d4d; stroke-linejoin: miter"/>
    </g>
    <g id="patch_8">
     <path d="M 97.274219 363.802375 
L 384.869531 363.802375 
Q 386.869531 363.802375 386.869531 361.802375 
L 386.869531 333.446125 
Q 386.869531 331.446125 384.869531 331.446125 
L 97.274219 331.446125 
Q 95.274219 331.446125 95.274219 333.446125 
L 95.274219 361.802375 
Q 95.274219 363.802375 97.274219 363.802375 
z
" style="fill: #ffffff; stroke: #cccccc; stroke-linejoin: miter"/>
    </g>
    <g id="line2d_23">
     <path d="M 99.274219 339.544562 
L 109.274219 339.544562 
L 119.274219 339.544562 
" style="fill: none; stroke: #1f77b4; stroke-opacity: 0.8; stroke-width: 1.5; stroke-linecap: square"/>
    </g>
    <g id="text_21">
     <!-- MPTT -->
     <g transform="translate(127.274219 343.044562) scale(0.1 -0.1)">
      <defs>
       <path id="DejaVuSans-50" d="M 1259 4147 
L 1259 2394 
L 2053 2394 
Q 2494 2394 2734 2622 
Q 2975 2850 2975 3272 
Q 2975 3691 2734 3919 
Q 2494 4147 2053 4147 
L 1259 4147 
z
M 628 4666 
L 2053 4666 
Q 2838 4666 3239 4311 
Q 3641 3956 3641 3272 
Q 3641 2581 3239 2228 
Q 2838 1875 2053 1875 
L 1259 1875 
L 1259 0 
L 628 0 
L 628 4666 
z
" transform="scale(0.015625)"/>
       <path id="DejaVuSans-54" d="M -19 4666 
L 3928 4666 
L 3928 4134 
L 2272 4134 
L 2272 0 
L 1638 0 
L 1638 4134 
L -19 4134 
L -19 4666 
z
" transform="scale(0.015625)"/>
      </defs>
      <use xlink:href="#DejaVuSans-4d"/>
      <use xlink:href="#DejaVuSans-50" transform="translate(86.279297 0)"/>
      <use xlink:href="#DejaVuSans-54" transform="translate(146.582031 0)"/>
      <use xlink:href="#DejaVuSans-54" transform="translate(205.916016 0)"/>
     </g>
    </g>
    <g id="line2d_24">
     <path d="M 99.274219 354.222687 
L 109.274219 354.222687 
L 119.274219 354.222687 
" style="fill: none; stroke: #ff7f0e; stroke-opacity: 0.8; stroke-width: 1.5; stroke-linecap: square"/>
    </g>
    <g id="text_22">
     <!-- tree -->
     <g transform="translate(127.274219 357.722687) scale(0.1 -0.1)">
      <use xlink:href="#DejaVuSans-74"/>
      <use xlink:href="#DejaVuSans-72" transform="translate(39.208984 0)"/>
      <use xlink:href="#DejaVuSans-65" transform="translate(78.072266 0)"/>
      <use xlink:href="#DejaVuSans-65" transform="translate(139.595703 0)"/>
     </g>
    </g>
    <g id="line2d_25">
     <path d="M 173.972656 339.544562 
L 183.972656 339.544562 
L 193.972656 339.544562 
" style="fill: none; stroke: #2ca02c; stroke-opacity: 0.8; stroke-width: 1.5; stroke-linecap: square"/>
    </g>
    <g id="text_23">
     <!-- treebeard AL -->
     <g transform="translate(201.972656 343.044562) scale(0.1 -0.1)">
      <defs>
       <path id="DejaVuSans-64" d="M 2906 2969 
L 2906 4863 
L 3481 4863 
L 3481 0 
L 2906 0 
L 2906 525 
Q 2725 213 2448 61 
Q 2172 -91 1784 -91 
Q 1150 -91 751 415 
Q 353 922 353 1747 
Q 353 2572 751 3078 
Q 1150 3584 1784 3584 
Q 2172 3584 2448 3432 
Q 2725 3281 2906 2969 
z
M 947 1747 
Q 947 1113 1208 752 
Q 1469 391 1925 391 
Q 2381 391 2643 752 
Q 2906 1113 2906 1747 
Q 2906 2381 2643 2742 
Q 2381 3103 1925 3103 
Q 1469 3103 1208 2742 
Q 947 2381 947 1747 
z
" transform="scale(0.015625)"/>
       <path id="DejaVuSans-4c" d="M 628 4666 
L 1259 4666 
L 1259 531 
L 3531 531 
L 3531 0 
L 628 0 
L 628 4666 
z
" transform="scale(0.015625)"/>
      </defs>
      <use xlink:href="#DejaVuSans-74"/>
      <use xlink:href="#DejaVuSans-72" transform="translate(39.208984 0)"/>
      <use xlink:href="#DejaVuSans-65" transform="translate(78.072266 0)"/>
      <use xlink:href="#DejaVuSans-65" transform="translate(139.595703 0)"/>
      <use xlink:href="#DejaVuSans-62" transform="translate(201.119141 0)"/>
      <use xlink:href="#DejaVuSans-65" transform="translate(264.595703 0)"/>
      <use xlink:href="#DejaVuSans-61" transform="translate(326.119141 0)"/>
      <use xlink:href="#DejaVuSans-72" transform="translate(387.398438 0)"/>
      <use xlink:href="#DejaVuSans-64" transform="translate(426.761719 0)"/>
      <use xlink:href="#DejaVuSans-20" transform="translate(490.238281 0)"/>
      <use xlink:href="#DejaVuSans-41" transform="translate(522.025391 0)"/>
      <use xlink:href="#DejaVuSans-4c" transform="translate(590.433594 0)"/>
     </g>
    </g>
    <g id="line2d_26">
     <path d="M 173.972656 354.222687 
L 183.972656 354.222687 
L 193.972656 354.222687 
" style="fill: none; stroke: #d62728; stroke-opacity: 0.8; stroke-width: 1.5; stroke-linecap: square"/>
    </g>
    <g id="text_24">
     <!-- treebeard MP -->
     <g transform="translate(201.972656 357.722687) scale(0.1 -0.1)">
      <use xlink:href="#DejaVuSans-74"/>
      <use xlink:href="#DejaVuSans-72" transform="translate(39.208984 0)"/>
      <use xlink:href="#DejaVuSans-65" transform="translate(78.072266 0)"/>
      <use xlink:href="#DejaVuSans-65" transform="translate(139.595703 0)"/>
      <use xlink:href="#DejaVuSans-62" transform="translate(201.119141 0)"/>
      <use xlink:href="#DejaVuSans-65" transform="translate(264.595703 0)"/>
      <use xlink:href="#DejaVuSans-61" transform="translate(326.119141 0)"/>
      <use xlink:href="#DejaVuSans-72" transform="translate(387.398438 0)"/>
      <use xlink:href="#DejaVuSans-64" transform="translate(426.761719 0)"/>
      <use xlink:href="#DejaVuSans-20" transform="translate(490.238281 0)"/>
      <use xlink:href="#DejaVuSans-4d" transform="translate(522.025391 0)"/>
      <use xlink:href="#DejaVuSans-50" transform="translate(608.304688 0)"/>
     </g>
    </g>
    <g id="line2d_27">
     <path d="M 288.835156 339.544562 
L 298.835156 339.544562 
L 308.835156 339.544562 
" style="fill: none; stroke: #9467bd; stroke-opacity: 0.8; stroke-width: 1.5; stroke-linecap: square"/>
    </g>
    <g id="text_25">
     <!-- treebeard NS -->
     <g transform="translate(316.835156 343.044562) scale(0.1 -0.1)">
      <defs>
       <path id="DejaVuSans-4e" d="M 628 4666 
L 1478 4666 
L 3547 763 
L 3547 4666 
L 4159 4666 
L 4159 0 
L 3309 0 
L 1241 3903 
L 1241 0 
L 628 0 
L 628 4666 
z
" transform="scale(0.015625)"/>
       <path id="DejaVuSans-53" d="M 3425 4513 
L 3425 3897 
Q 3066 4069 2747 4153 
Q 2428 4238 2131 4238 
Q 1616 4238 1336 4038 
Q 1056 3838 1056 3469 
Q 1056 3159 1242 3001 
Q 1428 2844 1947 2747 
L 2328 2669 
Q 3034 2534 3370 2195 
Q 3706 1856 3706 1288 
Q 3706 609 3251 259 
Q 2797 -91 1919 -91 
Q 1588 -91 1214 -16 
Q 841 59 441 206 
L 441 856 
Q 825 641 1194 531 
Q 1563 422 1919 422 
Q 2459 422 2753 634 
Q 3047 847 3047 1241 
Q 3047 1584 2836 1778 
Q 2625 1972 2144 2069 
L 1759 2144 
Q 1053 2284 737 2584 
Q 422 2884 422 3419 
Q 422 4038 858 4394 
Q 1294 4750 2059 4750 
Q 2388 4750 2728 4690 
Q 3069 4631 3425 4513 
z
" transform="scale(0.015625)"/>
      </defs>
      <use xlink:href="#DejaVuSans-74"/>
      <use xlink:href="#DejaVuSans-72" transform="translate(39.208984 0)"/>
      <use xlink:href="#DejaVuSans-65" transform="translate(78.072266 0)"/>
      <use xlink:href="#DejaVuSans-65" transform="translate(139.595703 0)"/>
      <use xlink:href="#DejaVuSans-62" transform="translate(201.119141 0)"/>
      <use xlink:href="#DejaVuSans-65" transform="translate(264.595703 0)"/>
      <use xlink:href="#DejaVuSans-61" transform="translate(326.119141 0)"/>
      <use xlink:href="#DejaVuSans-72" transform="translate(387.398438 0)"/>
      <use xlink:href="#DejaVuSans-64" transform="translate(426.761719 0)"/>
      <use xlink:href="#DejaVuSans-20" transform="translate(490.238281 0)"/>
      <use xlink:href="#DejaVuSans-4e" transform="translate(522.025391 0)"/>
      <use xlink:href="#DejaVuSans-53" transform="translate(596.830078 0)"/>
     </g>
    </g>
   </g>
  </g>
 </g>
 <defs>
  <clipPath id="p5509c60ff0">
   <rect x="68.271875" y="22.318125" width="357.12" height="266.112"/>
  </clipPath>
 </defs>
</svg>
