<?xml version="1.0" encoding="utf-8" standalone="no"?>
<!DOCTYPE svg PUBLIC "-//W3C//DTD SVG 1.1//EN"
  "http://www.w3.org/Graphics/SVG/1.1/DTD/svg11.dtd">
<svg xmlns:xlink="http://www.w3.org/1999/xlink" width="426.035625pt" height="371.002375pt" viewBox="0 0 426.035625 371.002375" xmlns="http://www.w3.org/2000/svg" version="1.1">
 <metadata>
  <rdf:RDF xmlns:dc="http://purl.org/dc/elements/1.1/" xmlns:cc="http://creativecommons.org/ns#" xmlns:rdf="http://www.w3.org/1999/02/22-rdf-syntax-ns#">
   <cc:Work>
    <dc:type rdf:resource="http://purl.org/dc/dcmitype/StillImage"/>
    <dc:date>2026-06-28T18:00:24.280252</dc:date>
    <dc:format>image/svg+xml</dc:format>
    <dc:creator>
     <cc:Agent>
      <dc:title>Matplotlib v3.10.6, https://matplotlib.org/</dc:title>
     </cc:Agent>
    </dc:creator>
   </cc:Work>
  </rdf:RDF>
 </metadata>
 <defs>
  <style type="text/css">*{stroke-linejoin: round; stroke-linecap: butt}</style>
 </defs>
 <g id="figure_1">
  <g id="patch_1">
   <path d="M 0 371.002375 
L 426.035625 371.002375 
L 426.035625 0 
L 0 0 
z
" style="fill: #ffffff"/>
  </g>
  <g id="axes_1">
   <g id="patch_2">
    <path d="M 61.715625 288.430125 
L 418.835625 288.430125 
L 418.835625 22.318125 
L 61.715625 22.318125 
z
" style="fill: #ffffff"/>
   </g>
   <g id="matplotlib.axis_1">
    <g id="xtick_1">
     <g id="line2d_1">
      <defs>
       <path id="m231faac5a8" d="M 0 0 
L 0 3.5 
" style="stroke: #000000; stroke-width: 0.8"/>
      </defs>
      <g>
       <use xlink:href="#m231faac5a8" x="61.715625" y="288.430125" style="stroke: #000000; stroke-width: 0.8"/>
      </g>
     </g>
     <g id="text_1">
      <!-- 0 -->
      <g transform="translate(58.534375 303.028562) scale(0.1 -0.1)">
       <defs>
        <path id="DejaVuSans-30" d="M 2034 4250 
Q 1547 4250 1301 3770 
Q 1056 3291 1056 2328 
Q 1056 1369 1301 889 
Q 1547 409 2034 409 
Q 2525 409 2770 889 
Q 3016 1369 3016 2328 
Q 3016 3291 2770 3770 
Q 2525 4250 2034 4250 
z
M 2034 4750 
Q 2819 4750 3233 4129 
Q 3647 3509 3647 2328 
Q 3647 1150 3233 529 
Q 2819 -91 2034 -91 
Q 1250 -91 836 529 
Q 422 1150 422 2328 
Q 422 3509 836 4129 
Q 1250 4750 2034 4750 
z
" transform="scale(0.015625)"/>
       </defs>
       <use xlink:href="#DejaVuSans-30"/>
      </g>
     </g>
    </g>
    <g id="xtick_2">
     <g id="line2d_2">
      <g>
       <use xlink:href="#m231faac5a8" x="105.264189" y="288.430125" style="stroke: #000000; stroke-width: 0.8"/>
      </g>
     </g>
     <g id="text_2">
      <!-- 500  -->
      <g transform="translate(94.131377 303.028562) scale(0.1 -0.1)">
       <defs>
        <path id="DejaVuSans-35" d="M 691 4666 
L 3169 4666 
L 3169 4134 
L 1269 4134 
L 1269 2991 
Q 1406 3038 1543 3061 
Q 1681 3084 1819 3084 
Q 2600 3084 3056 2656 
Q 3513 2228 3513 1497 
Q 3513 744 3044 326 
Q 2575 -91 1722 -91 
Q 1428 -91 1123 -41 
Q 819 9 494 109 
L 494 744 
Q 775 591 1075 516 
Q 1375 441 1709 441 
Q 2250 441 2565 725 
Q 2881 1009 2881 1497 
Q 2881 1984 2565 2268 
Q 2250 2553 1709 2553 
Q 1456 2553 1204 2497 
Q 953 2441 691 2322 
L 691 4666 
z
" transform="scale(0.015625)"/>
        <path id="DejaVuSans-20" transform="scale(0.015625)"/>
       </defs>
       <use xlink:href="#DejaVuSans-35"/>
       <use xlink:href="#DejaVuSans-30" transform="translate(63.623047 0)"/>
       <use xlink:href="#DejaVuSans-30" transform="translate(127.246094 0)"/>
       <use xlink:href="#DejaVuSans-20" transform="translate(190.869141 0)"/>
      </g>
     </g>
    </g>
    <g id="xtick_3">
     <g id="line2d_3">
      <g>
       <use xlink:href="#m231faac5a8" x="148.812753" y="288.430125" style="stroke: #000000; stroke-width: 0.8"/>
      </g>
     </g>
     <g id="text_3">
      <!-- 1 k -->
      <g transform="translate(141.147128 303.028562) scale(0.1 -0.1)">
       <defs>
        <path id="DejaVuSans-31" d="M 794 531 
L 1825 531 
L 1825 4091 
L 703 3866 
L 703 4441 
L 1819 4666 
L 2450 4666 
L 2450 531 
L 3481 531 
L 3481 0 
L 794 0 
L 794 531 
z
" transform="scale(0.015625)"/>
        <path id="DejaVuSans-6b" d="M 581 4863 
L 1159 4863 
L 1159 1991 
L 2875 3500 
L 3609 3500 
L 1753 1863 
L 3688 0 
L 2938 0 
L 1159 1709 
L 1159 0 
L 581 0 
L 581 4863 
z
" transform="scale(0.015625)"/>
       </defs>
       <use xlink:href="#DejaVuSans-31"/>
       <use xlink:href="#DejaVuSans-20" transform="translate(63.623047 0)"/>
       <use xlink:href="#DejaVuSans-6b" transform="translate(95.410156 0)"/>
      </g>
     </g>
    </g>
    <g id="xtick_4">
     <g id="line2d_4">
      <g>
       <use xlink:href="#m231faac5a8" x="192.361317" y="288.430125" style="stroke: #000000; stroke-width: 0.8"/>
      </g>
     </g>
     <g id="text_4">
      <!-- 1.5 k -->
      <g transform="translate(179.92538 303.028562) scale(0.1 -0.1)">
       <defs>
        <path id="DejaVuSans-2e" d="M 684 794 
L 1344 794 
L 1344 0 
L 684 0 
L 684 794 
z
" transform="scale(0.015625)"/>
       </defs>
       <use xlink:href="#DejaVuSans-31"/>
       <use xlink:href="#DejaVuSans-2e" transform="translate(63.623047 0)"/>
       <use xlink:href="#DejaVuSans-35" transform="translate(95.410156 0)"/>
       <use xlink:href="#DejaVuSans-20" transform="translate(159.033203 0)"/>
       <use xlink:href="#DejaVuSans-6b" transform="translate(190.820312 0)"/>
      </g>
     </g>
    </g>
    <g id="xtick_5">
     <g id="line2d_5">
      <g>
       <use xlink:href="#m231faac5a8" x="235.909881" y="288.430125" style="stroke: #000000; stroke-width: 0.8"/>
      </g>
     </g>
     <g id="text_5">
      <!-- 2 k -->
      <g transform="translate(228.244256 303.028562) scale(0.1 -0.1)">
       <defs>
        <path id="DejaVuSans-32" d="M 1228 531 
L 3431 531 
L 3431 0 
L 469 0 
L 469 531 
Q 828 903 1448 1529 
Q 2069 2156 2228 2338 
Q 2531 2678 2651 2914 
Q 2772 3150 2772 3378 
Q 2772 3750 2511 3984 
Q 2250 4219 1831 4219 
Q 1534 4219 1204 4116 
Q 875 4013 500 3803 
L 500 4441 
Q 881 4594 1212 4672 
Q 1544 4750 1819 4750 
Q 2544 4750 2975 4387 
Q 3406 4025 3406 3419 
Q 3406 3131 3298 2873 
Q 3191 2616 2906 2266 
Q 2828 2175 2409 1742 
Q 1991 1309 1228 531 
z
" transform="scale(0.015625)"/>
       </defs>
       <use xlink:href="#DejaVuSans-32"/>
       <use xlink:href="#DejaVuSans-20" transform="translate(63.623047 0)"/>
       <use xlink:href="#DejaVuSans-6b" transform="translate(95.410156 0)"/>
      </g>
     </g>
    </g>
    <g id="xtick_6">
     <g id="line2d_6">
      <g>
       <use xlink:href="#m231faac5a8" x="279.458446" y="288.430125" style="stroke: #000000; stroke-width: 0.8"/>
      </g>
     </g>
     <g id="text_6">
      <!-- 2.5 k -->
      <g transform="translate(267.022508 303.028562) scale(0.1 -0.1)">
       <use xlink:href="#DejaVuSans-32"/>
       <use xlink:href="#DejaVuSans-2e" transform="translate(63.623047 0)"/>
       <use xlink:href="#DejaVuSans-35" transform="translate(95.410156 0)"/>
       <use xlink:href="#DejaVuSans-20" transform="translate(159.033203 0)"/>
       <use xlink:href="#DejaVuSans-6b" transform="translate(190.820312 0)"/>
      </g>
     </g>
    </g>
    <g id="xtick_7">
     <g id="line2d_7">
      <g>
       <use xlink:href="#m231faac5a8" x="323.00701" y="288.430125" style="stroke: #000000; stroke-width: 0.8"/>
      </g>
     </g>
     <g id="text_7">
      <!-- 3 k -->
      <g transform="translate(315.341385 303.028562) scale(0.1 -0.1)">
       <defs>
        <path id="DejaVuSans-33" d="M 2597 2516 
Q 3050 2419 3304 2112 
Q 3559 1806 3559 1356 
Q 3559 666 3084 287 
Q 2609 -91 1734 -91 
Q 1441 -91 1130 -33 
Q 819 25 488 141 
L 488 750 
Q 750 597 1062 519 
Q 1375 441 1716 441 
Q 2309 441 2620 675 
Q 2931 909 2931 1356 
Q 2931 1769 2642 2001 
Q 2353 2234 1838 2234 
L 1294 2234 
L 1294 2753 
L 1863 2753 
Q 2328 2753 2575 2939 
Q 2822 3125 2822 3475 
Q 2822 3834 2567 4026 
Q 2313 4219 1838 4219 
Q 1578 4219 1281 4162 
Q 984 4106 628 3988 
L 628 4550 
Q 988 4650 1302 4700 
Q 1616 4750 1894 4750 
Q 2613 4750 3031 4423 
Q 3450 4097 3450 3541 
Q 3450 3153 3228 2886 
Q 3006 2619 2597 2516 
z
" transform="scale(0.015625)"/>
       </defs>
       <use xlink:href="#DejaVuSans-33"/>
       <use xlink:href="#DejaVuSans-20" transform="translate(63.623047 0)"/>
       <use xlink:href="#DejaVuSans-6b" transform="translate(95.410156 0)"/>
      </g>
     </g>
    </g>
    <g id="xtick_8">
     <g id="line2d_8">
      <g>
       <use xlink:href="#m231faac5a8" x="366.555574" y="288.430125" style="stroke: #000000; stroke-width: 0.8"/>
      </g>
     </g>
     <g id="text_8">
      <!-- 3.5 k -->
      <g transform="translate(354.119636 303.028562) scale(0.1 -0.1)">
       <use xlink:href="#DejaVuSans-33"/>
       <use xlink:href="#DejaVuSans-2e" transform="translate(63.623047 0)"/>
       <use xlink:href="#DejaVuSans-35" transform="translate(95.410156 0)"/>
       <use xlink:href="#DejaVuSans-20" transform="translate(159.033203 0)"/>
       <use xlink:href="#DejaVuSans-6b" transform="translate(190.820312 0)"/>
      </g>
     </g>
    </g>
    <g id="xtick_9">
     <g id="line2d_9">
      <g>
       <use xlink:href="#m231faac5a8" x="410.104138" y="288.430125" style="stroke: #000000; stroke-width: 0.8"/>
      </g>
     </g>
     <g id="text_9">
      <!-- 4 k -->
      <g transform="translate(402.438513 303.028562) scale(0.1 -0.1)">
       <defs>
        <path id="DejaVuSans-34" d="M 2419 4116 
L 825 1625 
L 2419 1625 
L 2419 4116 
z
M 2253 4666 
L 3047 4666 
L 3047 1625 
L 3713 1625 
L 3713 1100 
L 3047 1100 
L 3047 0 
L 2419 0 
L 2419 1100 
L 313 1100 
L 313 1709 
L 2253 4666 
z
" transform="scale(0.015625)"/>
       </defs>
       <use xlink:href="#DejaVuSans-34"/>
       <use xlink:href="#DejaVuSans-20" transform="translate(63.623047 0)"/>
       <use xlink:href="#DejaVuSans-6b" transform="translate(95.410156 0)"/>
      </g>
     </g>
    </g>
    <g id="text_10">
     <!-- Amount of objects in table -->
     <g transform="translate(174.217031 316.706687) scale(0.1 -0.1)">
      <defs>
       <path id="DejaVuSans-41" d="M 2188 4044 
L 1331 1722 
L 3047 1722 
L 2188 4044 
z
M 1831 4666 
L 2547 4666 
L 4325 0 
L 3669 0 
L 3244 1197 
L 1141 1197 
L 716 0 
L 50 0 
L 1831 4666 
z
" transform="scale(0.015625)"/>
       <path id="DejaVuSans-6d" d="M 3328 2828 
Q 3544 3216 3844 3400 
Q 4144 3584 4550 3584 
Q 5097 3584 5394 3201 
Q 5691 2819 5691 2113 
L 5691 0 
L 5113 0 
L 5113 2094 
Q 5113 2597 4934 2840 
Q 4756 3084 4391 3084 
Q 3944 3084 3684 2787 
Q 3425 2491 3425 1978 
L 3425 0 
L 2847 0 
L 2847 2094 
Q 2847 2600 2669 2842 
Q 2491 3084 2119 3084 
Q 1678 3084 1418 2786 
Q 1159 2488 1159 1978 
L 1159 0 
L 581 0 
L 581 3500 
L 1159 3500 
L 1159 2956 
Q 1356 3278 1631 3431 
Q 1906 3584 2284 3584 
Q 2666 3584 2933 3390 
Q 3200 3197 3328 2828 
z
" transform="scale(0.015625)"/>
       <path id="DejaVuSans-6f" d="M 1959 3097 
Q 1497 3097 1228 2736 
Q 959 2375 959 1747 
Q 959 1119 1226 758 
Q 1494 397 1959 397 
Q 2419 397 2687 759 
Q 2956 1122 2956 1747 
Q 2956 2369 2687 2733 
Q 2419 3097 1959 3097 
z
M 1959 3584 
Q 2709 3584 3137 3096 
Q 3566 2609 3566 1747 
Q 3566 888 3137 398 
Q 2709 -91 1959 -91 
Q 1206 -91 779 398 
Q 353 888 353 1747 
Q 353 2609 779 3096 
Q 1206 3584 1959 3584 
z
" transform="scale(0.015625)"/>
       <path id="DejaVuSans-75" d="M 544 1381 
L 544 3500 
L 1119 3500 
L 1119 1403 
Q 1119 906 1312 657 
Q 1506 409 1894 409 
Q 2359 409 2629 706 
Q 2900 1003 2900 1516 
L 2900 3500 
L 3475 3500 
L 3475 0 
L 2900 0 
L 2900 538 
Q 2691 219 2414 64 
Q 2138 -91 1772 -91 
Q 1169 -91 856 284 
Q 544 659 544 1381 
z
M 1991 3584 
L 1991 3584 
z
" transform="scale(0.015625)"/>
       <path id="DejaVuSans-6e" d="M 3513 2113 
L 3513 0 
L 2938 0 
L 2938 2094 
Q 2938 2591 2744 2837 
Q 2550 3084 2163 3084 
Q 1697 3084 1428 2787 
Q 1159 2491 1159 1978 
L 1159 0 
L 581 0 
L 581 3500 
L 1159 3500 
L 1159 2956 
Q 1366 3272 1645 3428 
Q 1925 3584 2291 3584 
Q 2894 3584 3203 3211 
Q 3513 2838 3513 2113 
z
" transform="scale(0.015625)"/>
       <path id="DejaVuSans-74" d="M 1172 4494 
L 1172 3500 
L 2356 3500 
L 2356 3053 
L 1172 3053 
L 1172 1153 
Q 1172 725 1289 603 
Q 1406 481 1766 481 
L 2356 481 
L 2356 0 
L 1766 0 
Q 1100 0 847 248 
Q 594 497 594 1153 
L 594 3053 
L 172 3053 
L 172 3500 
L 594 3500 
L 594 4494 
L 1172 4494 
z
" transform="scale(0.015625)"/>
       <path id="DejaVuSans-66" d="M 2375 4863 
L 2375 4384 
L 1825 4384 
Q 1516 4384 1395 4259 
Q 1275 4134 1275 3809 
L 1275 3500 
L 2222 3500 
L 2222 3053 
L 1275 3053 
L 1275 0 
L 697 0 
L 697 3053 
L 147 3053 
L 147 3500 
L 697 3500 
L 697 3744 
Q 697 4328 969 4595 
Q 1241 4863 1831 4863 
L 2375 4863 
z
" transform="scale(0.015625)"/>
       <path id="DejaVuSans-62" d="M 3116 1747 
Q 3116 2381 2855 2742 
Q 2594 3103 2138 3103 
Q 1681 3103 1420 2742 
Q 1159 2381 1159 1747 
Q 1159 1113 1420 752 
Q 1681 391 2138 391 
Q 2594 391 2855 752 
Q 3116 1113 3116 1747 
z
M 1159 2969 
Q 1341 3281 1617 3432 
Q 1894 3584 2278 3584 
Q 2916 3584 3314 3078 
Q 3713 2572 3713 1747 
Q 3713 922 3314 415 
Q 2916 -91 2278 -91 
Q 1894 -91 1617 61 
Q 1341 213 1159 525 
L 1159 0 
L 581 0 
L 581 4863 
L 1159 4863 
L 1159 2969 
z
" transform="scale(0.015625)"/>
       <path id="DejaVuSans-6a" d="M 603 3500 
L 1178 3500 
L 1178 -63 
Q 1178 -731 923 -1031 
Q 669 -1331 103 -1331 
L -116 -1331 
L -116 -844 
L 38 -844 
Q 366 -844 484 -692 
Q 603 -541 603 -63 
L 603 3500 
z
M 603 4863 
L 1178 4863 
L 1178 4134 
L 603 4134 
L 603 4863 
z
" transform="scale(0.015625)"/>
       <path id="DejaVuSans-65" d="M 3597 1894 
L 3597 1613 
L 953 1613 
Q 991 1019 1311 708 
Q 1631 397 2203 397 
Q 2534 397 2845 478 
Q 3156 559 3463 722 
L 3463 178 
Q 3153 47 2828 -22 
Q 2503 -91 2169 -91 
Q 1331 -91 842 396 
Q 353 884 353 1716 
Q 353 2575 817 3079 
Q 1281 3584 2069 3584 
Q 2775 3584 3186 3129 
Q 3597 2675 3597 1894 
z
M 3022 2063 
Q 3016 2534 2758 2815 
Q 2500 3097 2075 3097 
Q 1594 3097 1305 2825 
Q 1016 2553 972 2059 
L 3022 2063 
z
" transform="scale(0.015625)"/>
       <path id="DejaVuSans-63" d="M 3122 3366 
L 3122 2828 
Q 2878 2963 2633 3030 
Q 2388 3097 2138 3097 
Q 1578 3097 1268 2742 
Q 959 2388 959 1747 
Q 959 1106 1268 751 
Q 1578 397 2138 397 
Q 2388 397 2633 464 
Q 2878 531 3122 666 
L 3122 134 
Q 2881 22 2623 -34 
Q 2366 -91 2075 -91 
Q 1284 -91 818 406 
Q 353 903 353 1747 
Q 353 2603 823 3093 
Q 1294 3584 2113 3584 
Q 2378 3584 2631 3529 
Q 2884 3475 3122 3366 
z
" transform="scale(0.015625)"/>
       <path id="DejaVuSans-73" d="M 2834 3397 
L 2834 2853 
Q 2591 2978 2328 3040 
Q 2066 3103 1784 3103 
Q 1356 3103 1142 2972 
Q 928 2841 928 2578 
Q 928 2378 1081 2264 
Q 1234 2150 1697 2047 
L 1894 2003 
Q 2506 1872 2764 1633 
Q 3022 1394 3022 966 
Q 3022 478 2636 193 
Q 2250 -91 1575 -91 
Q 1294 -91 989 -36 
Q 684 19 347 128 
L 347 722 
Q 666 556 975 473 
Q 1284 391 1588 391 
Q 1994 391 2212 530 
Q 2431 669 2431 922 
Q 2431 1156 2273 1281 
Q 2116 1406 1581 1522 
L 1381 1569 
Q 847 1681 609 1914 
Q 372 2147 372 2553 
Q 372 3047 722 3315 
Q 1072 3584 1716 3584 
Q 2034 3584 2315 3537 
Q 2597 3491 2834 3397 
z
" transform="scale(0.015625)"/>
       <path id="DejaVuSans-69" d="M 603 3500 
L 1178 3500 
L 1178 0 
L 603 0 
L 603 3500 
z
M 603 4863 
L 1178 4863 
L 1178 4134 
L 603 4134 
L 603 4863 
z
" transform="scale(0.015625)"/>
       <path id="DejaVuSans-61" d="M 2194 1759 
Q 1497 1759 1228 1600 
Q 959 1441 959 1056 
Q 959 750 1161 570 
Q 1363 391 1709 391 
Q 2188 391 2477 730 
Q 2766 1069 2766 1631 
L 2766 1759 
L 2194 1759 
z
M 3341 1997 
L 3341 0 
L 2766 0 
L 2766 531 
Q 2569 213 2275 61 
Q 1981 -91 1556 -91 
Q 1019 -91 701 211 
Q 384 513 384 1019 
Q 384 1609 779 1909 
Q 1175 2209 1959 2209 
L 2766 2209 
L 2766 2266 
Q 2766 2663 2505 2880 
Q 2244 3097 1772 3097 
Q 1472 3097 1187 3025 
Q 903 2953 641 2809 
L 641 3341 
Q 956 3463 1253 3523 
Q 1550 3584 1831 3584 
Q 2591 3584 2966 3190 
Q 3341 2797 3341 1997 
z
" transform="scale(0.015625)"/>
       <path id="DejaVuSans-6c" d="M 603 4863 
L 1178 4863 
L 1178 0 
L 603 0 
L 603 4863 
z
" transform="scale(0.015625)"/>
      </defs>
      <use xlink:href="#DejaVuSans-41"/>
      <use xlink:href="#DejaVuSans-6d" transform="translate(68.408203 0)"/>
      <use xlink:href="#DejaVuSans-6f" transform="translate(165.820312 0)"/>
      <use xlink:href="#DejaVuSans-75" transform="translate(227.001953 0)"/>
      <use xlink:href="#DejaVuSans-6e" transform="translate(290.380859 0)"/>
      <use xlink:href="#DejaVuSans-74" transform="translate(353.759766 0)"/>
      <use xlink:href="#DejaVuSans-20" transform="translate(392.96875 0)"/>
      <use xlink:href="#DejaVuSans-6f" transform="translate(424.755859 0)"/>
      <use xlink:href="#DejaVuSans-66" transform="translate(485.9375 0)"/>
      <use xlink:href="#DejaVuSans-20" transform="translate(521.142578 0)"/>
      <use xlink:href="#DejaVuSans-6f" transform="translate(552.929688 0)"/>
      <use xlink:href="#DejaVuSans-62" transform="translate(614.111328 0)"/>
      <use xlink:href="#DejaVuSans-6a" transform="translate(677.587891 0)"/>
      <use xlink:href="#DejaVuSans-65" transform="translate(705.371094 0)"/>
      <use xlink:href="#DejaVuSans-63" transform="translate(766.894531 0)"/>
      <use xlink:href="#DejaVuSans-74" transform="translate(821.875 0)"/>
      <use xlink:href="#DejaVuSans-73" transform="translate(861.083984 0)"/>
      <use xlink:href="#DejaVuSans-20" transform="translate(913.183594 0)"/>
      <use xlink:href="#DejaVuSans-69" transform="translate(944.970703 0)"/>
      <use xlink:href="#DejaVuSans-6e" transform="translate(972.753906 0)"/>
      <use xlink:href="#DejaVuSans-20" transform="translate(1036.132812 0)"/>
      <use xlink:href="#DejaVuSans-74" transform="translate(1067.919922 0)"/>
      <use xlink:href="#DejaVuSans-61" transform="translate(1107.128906 0)"/>
      <use xlink:href="#DejaVuSans-62" transform="translate(1168.408203 0)"/>
      <use xlink:href="#DejaVuSans-6c" transform="translate(1231.884766 0)"/>
      <use xlink:href="#DejaVuSans-65" transform="translate(1259.667969 0)"/>
     </g>
    </g>
   </g>
   <g id="matplotlib.axis_2">
    <g id="ytick_1">
     <g id="line2d_10">
      <defs>
       <path id="m814c32701f" d="M 0 0 
L -3.5 0 
" style="stroke: #000000; stroke-width: 0.8"/>
      </defs>
      <g>
       <use xlink:href="#m814c32701f" x="61.715625" y="288.430125" style="stroke: #000000; stroke-width: 0.8"/>
      </g>
     </g>
     <g id="text_11">
      <!-- 0 -->
      <g transform="translate(48.353125 292.229344) scale(0.1 -0.1)">
       <use xlink:href="#DejaVuSans-30"/>
      </g>
     </g>
    </g>
    <g id="ytick_2">
     <g id="line2d_11">
      <g>
       <use xlink:href="#m814c32701f" x="61.715625" y="229.442052" style="stroke: #000000; stroke-width: 0.8"/>
      </g>
     </g>
     <g id="text_12">
      <!-- 100 µs -->
      <g transform="translate(20.878125 233.24127) scale(0.1 -0.1)">
       <defs>
        <path id="DejaVuSans-b5" d="M 544 -1331 
L 544 3500 
L 1119 3500 
L 1119 1325 
Q 1119 872 1334 640 
Q 1550 409 1972 409 
Q 2434 409 2667 671 
Q 2900 934 2900 1459 
L 2900 3500 
L 3475 3500 
L 3475 806 
Q 3475 619 3529 530 
Q 3584 441 3700 441 
Q 3728 441 3778 458 
Q 3828 475 3916 513 
L 3916 50 
Q 3788 -22 3673 -56 
Q 3559 -91 3450 -91 
Q 3234 -91 3106 31 
Q 2978 153 2931 403 
Q 2775 156 2548 32 
Q 2322 -91 2016 -91 
Q 1697 -91 1473 31 
Q 1250 153 1119 397 
L 1119 -1331 
L 544 -1331 
z
" transform="scale(0.015625)"/>
       </defs>
       <use xlink:href="#DejaVuSans-31"/>
       <use xlink:href="#DejaVuSans-30" transform="translate(63.623047 0)"/>
       <use xlink:href="#DejaVuSans-30" transform="translate(127.246094 0)"/>
       <use xlink:href="#DejaVuSans-20" transform="translate(190.869141 0)"/>
       <use xlink:href="#DejaVuSans-b5" transform="translate(222.65625 0)"/>
       <use xlink:href="#DejaVuSans-73" transform="translate(286.279297 0)"/>
      </g>
     </g>
    </g>
    <g id="ytick_3">
     <g id="line2d_12">
      <g>
       <use xlink:href="#m814c32701f" x="61.715625" y="170.453978" style="stroke: #000000; stroke-width: 0.8"/>
      </g>
     </g>
     <g id="text_13">
      <!-- 200 µs -->
      <g transform="translate(20.878125 174.253197) scale(0.1 -0.1)">
       <use xlink:href="#DejaVuSans-32"/>
       <use xlink:href="#DejaVuSans-30" transform="translate(63.623047 0)"/>
       <use xlink:href="#DejaVuSans-30" transform="translate(127.246094 0)"/>
       <use xlink:href="#DejaVuSans-20" transform="translate(190.869141 0)"/>
       <use xlink:href="#DejaVuSans-b5" transform="translate(222.65625 0)"/>
       <use xlink:href="#DejaVuSans-73" transform="translate(286.279297 0)"/>
      </g>
     </g>
    </g>
    <g id="ytick_4">
     <g id="line2d_13">
      <g>
       <use xlink:href="#m814c32701f" x="61.715625" y="111.465905" style="stroke: #000000; stroke-width: 0.8"/>
      </g>
     </g>
     <g id="text_14">
      <!-- 300 µs -->
      <g transform="translate(20.878125 115.265124) scale(0.1 -0.1)">
       <use xlink:href="#DejaVuSans-33"/>
       <use xlink:href="#DejaVuSans-30" transform="translate(63.623047 0)"/>
       <use xlink:href="#DejaVuSans-30" transform="translate(127.246094 0)"/>
       <use xlink:href="#DejaVuSans-20" transform="translate(190.869141 0)"/>
       <use xlink:href="#DejaVuSans-b5" transform="translate(222.65625 0)"/>
       <use xlink:href="#DejaVuSans-73" transform="translate(286.279297 0)"/>
      </g>
     </g>
    </g>
    <g id="ytick_5">
     <g id="line2d_14">
      <g>
       <use xlink:href="#m814c32701f" x="61.715625" y="52.477832" style="stroke: #000000; stroke-width: 0.8"/>
      </g>
     </g>
     <g id="text_15">
      <!-- 400 µs -->
      <g transform="translate(20.878125 56.277051) scale(0.1 -0.1)">
       <use xlink:href="#DejaVuSans-34"/>
       <use xlink:href="#DejaVuSans-30" transform="translate(63.623047 0)"/>
       <use xlink:href="#DejaVuSans-30" transform="translate(127.246094 0)"/>
       <use xlink:href="#DejaVuSans-20" transform="translate(190.869141 0)"/>
       <use xlink:href="#DejaVuSans-b5" transform="translate(222.65625 0)"/>
       <use xlink:href="#DejaVuSans-73" transform="translate(286.279297 0)"/>
      </g>
     </g>
    </g>
    <g id="text_16">
     <!-- Read latency (s) -->
     <g transform="translate(14.798438 195.98975) rotate(-90) scale(0.1 -0.1)">
      <defs>
       <path id="DejaVuSans-52" d="M 2841 2188 
Q 3044 2119 3236 1894 
Q 3428 1669 3622 1275 
L 4263 0 
L 3584 0 
L 2988 1197 
Q 2756 1666 2539 1819 
Q 2322 1972 1947 1972 
L 1259 1972 
L 1259 0 
L 628 0 
L 628 4666 
L 2053 4666 
Q 2853 4666 3247 4331 
Q 3641 3997 3641 3322 
Q 3641 2881 3436 2590 
Q 3231 2300 2841 2188 
z
M 1259 4147 
L 1259 2491 
L 2053 2491 
Q 2509 2491 2742 2702 
Q 2975 2913 2975 3322 
Q 2975 3731 2742 3939 
Q 2509 4147 2053 4147 
L 1259 4147 
z
" transform="scale(0.015625)"/>
       <path id="DejaVuSans-64" d="M 2906 2969 
L 2906 4863 
L 3481 4863 
L 3481 0 
L 2906 0 
L 2906 525 
Q 2725 213 2448 61 
Q 2172 -91 1784 -91 
Q 1150 -91 751 415 
Q 353 922 353 1747 
Q 353 2572 751 3078 
Q 1150 3584 1784 3584 
Q 2172 3584 2448 3432 
Q 2725 3281 2906 2969 
z
M 947 1747 
Q 947 1113 1208 752 
Q 1469 391 1925 391 
Q 2381 391 2643 752 
Q 2906 1113 2906 1747 
Q 2906 2381 2643 2742 
Q 2381 3103 1925 3103 
Q 1469 3103 1208 2742 
Q 947 2381 947 1747 
z
" transform="scale(0.015625)"/>
       <path id="DejaVuSans-79" d="M 2059 -325 
Q 1816 -950 1584 -1140 
Q 1353 -1331 966 -1331 
L 506 -1331 
L 506 -850 
L 844 -850 
Q 1081 -850 1212 -737 
Q 1344 -625 1503 -206 
L 1606 56 
L 191 3500 
L 800 3500 
L 1894 763 
L 2988 3500 
L 3597 3500 
L 2059 -325 
z
" transform="scale(0.015625)"/>
       <path id="DejaVuSans-28" d="M 1984 4856 
Q 1566 4138 1362 3434 
Q 1159 2731 1159 2009 
Q 1159 1288 1364 580 
Q 1569 -128 1984 -844 
L 1484 -844 
Q 1016 -109 783 600 
Q 550 1309 550 2009 
Q 550 2706 781 3412 
Q 1013 4119 1484 4856 
L 1984 4856 
z
" transform="scale(0.015625)"/>
       <path id="DejaVuSans-29" d="M 513 4856 
L 1013 4856 
Q 1481 4119 1714 3412 
Q 1947 2706 1947 2009 
Q 1947 1309 1714 600 
Q 1481 -109 1013 -844 
L 513 -844 
Q 928 -128 1133 580 
Q 1338 1288 1338 2009 
Q 1338 2731 1133 3434 
Q 928 4138 513 4856 
z
" transform="scale(0.015625)"/>
      </defs>
      <use xlink:href="#DejaVuSans-52"/>
      <use xlink:href="#DejaVuSans-65" transform="translate(64.982422 0)"/>
      <use xlink:href="#DejaVuSans-61" transform="translate(126.505859 0)"/>
      <use xlink:href="#DejaVuSans-64" transform="translate(187.785156 0)"/>
      <use xlink:href="#DejaVuSans-20" transform="translate(251.261719 0)"/>
      <use xlink:href="#DejaVuSans-6c" transform="translate(283.048828 0)"/>
      <use xlink:href="#DejaVuSans-61" transform="translate(310.832031 0)"/>
      <use xlink:href="#DejaVuSans-74" transform="translate(372.111328 0)"/>
      <use xlink:href="#DejaVuSans-65" transform="translate(411.320312 0)"/>
      <use xlink:href="#DejaVuSans-6e" transform="translate(472.84375 0)"/>
      <use xlink:href="#DejaVuSans-63" transform="translate(536.222656 0)"/>
      <use xlink:href="#DejaVuSans-79" transform="translate(591.203125 0)"/>
      <use xlink:href="#DejaVuSans-20" transform="translate(650.382812 0)"/>
      <use xlink:href="#DejaVuSans-28" transform="translate(682.169922 0)"/>
      <use xlink:href="#DejaVuSans-73" transform="translate(721.183594 0)"/>
      <use xlink:href="#DejaVuSans-29" transform="translate(773.283203 0)"/>
     </g>
    </g>
   </g>
   <g id="line2d_15">
    <path d="M 146.635325 63.834726 
L 147.070811 64.63889 
L 147.506296 65.130764 
L 148.812753 69.956469 
L 149.248239 71.645573 
L 150.11921 72.804579 
L 150.554696 72.183606 
L 150.990181 72.72813 
L 151.425667 73.487578 
L 152.296638 69.802127 
L 152.732124 71.378721 
L 153.16761 70.209618 
L 153.603095 71.790539 
L 154.038581 71.954257 
L 154.474067 72.635092 
L 154.909552 72.717311 
L 155.345038 72.591818 
L 155.780523 71.051286 
L 156.216009 71.125572 
L 156.651495 70.991424 
L 157.08698 71.059219 
L 157.522466 70.708705 
L 157.957952 70.803906 
L 158.828923 70.568066 
L 159.264409 70.698607 
L 161.006351 70.317802 
L 163.183779 71.740775 
L 164.490236 71.781163 
L 164.925722 71.789097 
L 165.796693 72.341554 
L 166.232179 71.754478 
L 166.667665 71.659277 
L 167.10315 72.249959 
L 167.538636 72.054507 
L 167.974121 71.634034 
L 168.409607 71.429928 
L 168.845093 70.765681 
L 169.716064 70.449785 
L 170.15155 72.786549 
L 171.022521 72.503108 
L 171.458007 72.027822 
L 172.328978 71.689568 
L 172.764463 71.066431 
L 174.07092 69.890837 
L 174.506406 69.934111 
L 174.941892 70.167066 
L 175.377377 70.195915 
L 176.248349 69.893001 
L 176.683834 70.036524 
L 177.554806 70.038688 
L 177.990291 69.696828 
L 178.425777 69.965845 
L 178.861262 69.770393 
L 179.296748 70.484404 
L 179.732234 72.076144 
L 180.603205 71.370066 
L 181.038691 71.754478 
L 181.474176 68.71885 
L 181.909662 68.555132 
L 182.780633 63.272893 
L 183.216119 63.372422 
L 183.651605 64.090039 
L 184.08709 61.352276 
L 184.522576 61.33136 
L 185.393547 61.514551 
L 185.829033 61.228225 
L 186.700004 66.629466 
L 187.13549 65.117782 
L 188.006461 65.852709 
L 188.441947 65.963056 
L 189.312918 65.121388 
L 190.183889 64.576144 
L 190.619375 64.837226 
L 191.05486 64.596338 
L 191.490346 64.00205 
L 191.925832 63.844823 
L 192.796803 63.739525 
L 193.232289 63.435168 
L 194.10326 63.894588 
L 194.538746 66.777317 
L 194.974231 66.567441 
L 195.409717 66.660479 
L 195.845202 66.895597 
L 196.280688 66.521283 
L 197.151659 66.182308 
L 197.587145 65.795011 
L 198.022631 62.668508 
L 198.458116 62.092972 
L 198.893602 61.801598 
L 199.764573 55.566623 
L 200.635545 55.146871 
L 201.506516 55.39353 
L 201.942001 55.218272 
L 202.377487 55.171393 
L 202.812973 54.836024 
L 203.248458 54.820878 
L 203.683944 55.301213 
L 204.11943 54.944208 
L 204.990401 54.956468 
L 205.425887 54.938438 
L 205.861372 53.520513 
L 206.296858 51.238563 
L 207.167829 51.132543 
L 208.474286 50.929158 
L 210.651714 49.118888 
L 211.0872 49.023686 
L 211.958171 48.239717 
L 212.393657 48.521715 
L 212.829142 49.807656 
L 213.264628 46.320542 
L 213.700114 45.593549 
L 214.135599 45.767363 
L 214.571085 44.487192 
L 215.006571 44.399924 
L 215.442056 44.507386 
L 215.877542 44.219618 
L 216.313028 43.532293 
L 217.619485 42.511041 
L 218.05497 42.512483 
L 218.925941 41.582105 
L 219.796913 41.65567 
L 220.232398 41.229427 
L 220.667884 41.935505 
L 221.10337 41.900165 
L 221.538855 41.629706 
L 222.409827 41.515031 
L 222.845312 41.789817 
L 223.280798 41.675864 
L 223.716283 40.921465 
L 224.151769 40.901992 
L 224.587255 41.162353 
L 225.02274 41.202742 
L 225.893712 41.05417 
L 226.764683 39.731446 
L 227.200169 39.494164 
L 227.635654 39.003011 
L 228.07114 39.186202 
L 228.506626 38.830639 
L 229.377597 38.590471 
L 229.813082 38.103646 
L 230.248568 38.186586 
L 230.684054 38.08273 
L 231.119539 38.117349 
L 231.555025 36.695818 
L 231.990511 36.377037 
L 232.425996 36.235677 
L 232.861482 35.972431 
L 233.296968 35.847659 
L 233.732453 35.241832 
L 234.167939 34.990125 
L 234.603425 35.404107 
L 235.03891 35.487769 
L 235.474396 36.982865 
L 235.909881 37.673075 
L 236.345367 37.359343 
L 237.216338 43.036812 
L 237.651824 42.759141 
L 238.08731 45.645477 
L 238.522795 45.403146 
L 238.958281 45.690914 
L 239.393767 45.007915 
L 239.829252 45.127638 
L 240.264738 45.499068 
L 240.700224 47.219907 
L 241.135709 47.151391 
L 241.571195 46.686202 
L 242.00668 46.786452 
L 242.442166 46.485702 
L 243.313137 46.539794 
L 243.748623 46.821792 
L 245.05508 45.843092 
L 245.926051 45.94839 
L 246.361537 45.381509 
L 246.797022 45.301453 
L 247.232508 45.072825 
L 248.103479 45.1875 
L 248.538965 45.42911 
L 248.974451 44.943727 
L 249.845422 44.780009 
L 250.716393 44.164084 
L 251.587365 44.281644 
L 252.02285 44.200867 
L 252.458336 43.932572 
L 252.893821 44.007579 
L 253.329307 43.709714 
L 254.200278 44.063113 
L 254.635764 44.520369 
L 255.07125 44.216734 
L 255.506735 45.005752 
L 255.942221 44.803088 
L 257.248678 45.12259 
L 257.684164 46.19 
L 258.119649 46.33713 
L 258.555135 46.911945 
L 258.99062 47.278326 
L 259.426106 47.419686 
L 259.861592 45.364921 
L 260.297077 45.781067 
L 260.732563 45.418291 
L 261.603534 45.568306 
L 262.03902 44.811743 
L 262.474506 44.623503 
L 263.345477 44.790827 
L 263.780962 45.147833 
L 264.651934 44.596097 
L 265.958391 44.55066 
L 266.393876 47.318715 
L 266.829362 47.357661 
L 267.700333 52.885837 
L 268.135819 52.976711 
L 268.571305 52.792078 
L 269.00679 55.166344 
L 269.442276 54.841794 
L 269.877761 54.692501 
L 270.313247 54.299434 
L 270.748733 54.204954 
L 271.184218 53.43036 
L 271.619704 53.643121 
L 272.05519 55.294722 
L 272.490675 55.584654 
L 273.361647 55.390645 
L 273.797132 55.984933 
L 275.103589 56.020273 
L 275.539075 55.781548 
L 275.97456 54.917522 
L 276.410046 55.594751 
L 276.845532 55.657497 
L 277.281017 55.44113 
L 277.716503 54.81583 
L 278.587474 54.569893 
L 279.02296 54.897328 
L 279.458446 55.752699 
L 280.329417 56.582827 
L 280.764902 56.616724 
L 281.200388 57.288904 
L 282.071359 57.443967 
L 282.506845 57.381221 
L 282.942331 60.905839 
L 283.377816 61.427283 
L 283.813302 61.711445 
L 284.684273 67.939207 
L 285.555245 68.908531 
L 286.426216 69.0196 
L 286.861701 66.387135 
L 287.297187 66.262363 
L 287.732673 66.3078 
L 288.168158 65.981808 
L 288.603644 65.852709 
L 289.03913 64.965604 
L 289.474615 65.068018 
L 289.910101 64.938198 
L 290.345587 65.166104 
L 290.781072 66.483779 
L 291.216558 68.165671 
L 291.652044 67.665143 
L 294.264957 67.691828 
L 294.700443 64.954786 
L 295.571414 64.995174 
L 296.0069 64.71534 
L 296.442386 64.745631 
L 296.877871 65.119225 
L 297.313357 64.784577 
L 297.748842 64.88627 
L 298.184328 68.330832 
L 298.619814 68.668364 
L 299.055299 68.859488 
L 299.490785 70.156969 
L 299.926271 69.994694 
L 300.361756 70.345929 
L 301.232728 71.58427 
L 302.103699 71.673701 
L 302.539185 72.018446 
L 302.97467 71.841025 
L 303.410156 72.283856 
L 303.845641 72.091289 
L 304.716613 71.121965 
L 305.152098 70.97123 
L 306.02307 71.196973 
L 306.458555 71.018109 
L 306.894041 71.014503 
L 308.200498 70.167066 
L 308.635984 70.982769 
L 309.071469 70.524071 
L 309.94244 70.266595 
L 311.248897 63.366652 
L 311.684383 63.531091 
L 312.119869 63.485654 
L 312.555354 63.926321 
L 312.99084 63.598165 
L 313.426326 64.074172 
L 313.861811 64.244381 
L 314.297297 63.831841 
L 314.732782 64.051093 
L 315.168268 63.947237 
L 315.603754 64.072009 
L 316.039239 63.818859 
L 316.474725 64.821359 
L 316.910211 62.538688 
L 317.345696 62.402377 
L 318.652153 63.5484 
L 319.087639 63.551285 
L 319.523125 63.319773 
L 319.95861 63.363767 
L 320.394096 63.856363 
L 320.829581 63.673172 
L 321.700553 63.903964 
L 322.571524 63.750343 
L 323.00701 63.385404 
L 323.442495 63.515945 
L 323.877981 63.220244 
L 324.313467 63.546237 
L 325.619924 62.867566 
L 326.055409 62.349006 
L 326.490895 62.48676 
L 326.92638 62.27472 
L 327.361866 62.334582 
L 327.797352 62.07999 
L 328.232837 62.100905 
L 328.668323 61.653026 
L 329.103809 61.937188 
L 329.97478 61.911224 
L 330.410266 61.202261 
L 330.845751 60.870499 
L 331.281237 61.234716 
L 331.716722 61.339294 
L 332.152208 61.300348 
L 332.587694 60.955603 
L 333.023179 60.959209 
L 333.458665 60.426225 
L 333.894151 60.716878 
L 334.765122 60.934688 
L 336.071579 60.886366 
L 336.507065 60.29352 
L 336.94255 60.244477 
L 337.378036 59.736015 
L 337.813521 59.930024 
L 338.249007 57.935841 
L 338.684493 57.924302 
L 339.555464 57.277365 
L 339.99095 57.55792 
L 340.861921 57.731735 
L 341.297407 58.033207 
L 341.732892 57.798809 
L 342.168378 58.032485 
L 342.603864 57.757699 
L 343.039349 57.957478 
L 343.474835 57.51609 
L 343.91032 56.328956 
L 344.345806 56.111868 
L 344.781292 57.801694 
L 345.216777 57.420888 
L 345.652263 58.170239 
L 346.523234 58.010127 
L 346.95872 58.166633 
L 347.829691 58.074316 
L 348.265177 57.924302 
L 348.700662 58.250295 
L 349.136148 56.399636 
L 350.007119 56.562632 
L 350.442605 56.812897 
L 350.878091 56.592203 
L 351.749062 55.898386 
L 353.491005 54.714137 
L 353.92649 54.240294 
L 354.361976 54.546092 
L 354.797461 54.339101 
L 355.232947 54.578547 
L 355.668433 54.134274 
L 356.103918 54.346314 
L 356.539404 54.78626 
L 357.410375 54.361459 
L 357.845861 54.393193 
L 358.716832 53.572441 
L 359.152318 53.521234 
L 359.587804 52.999069 
L 360.023289 52.684615 
L 360.458775 52.679567 
L 360.89426 53.252939 
L 361.329746 53.154853 
L 361.765232 51.888385 
L 362.200717 52.158844 
L 362.636203 52.613935 
L 363.071689 52.401175 
L 363.507174 52.919013 
L 363.94266 53.177211 
L 364.378146 53.147641 
L 365.684603 52.542534 
L 366.120088 52.23313 
L 366.555574 52.253324 
L 366.991059 52.673797 
L 367.426545 53.30631 
L 367.862031 52.943534 
L 368.297516 51.665527 
L 369.603973 51.630187 
L 370.474945 50.90103 
L 370.91043 50.507964 
L 371.345916 50.518782 
L 371.781401 52.952189 
L 373.087858 53.79602 
L 373.523344 53.415936 
L 373.95883 54.388866 
L 374.394315 54.094607 
L 374.829801 54.347035 
L 375.265287 54.083067 
L 376.136258 54.874249 
L 376.571744 55.319244 
L 377.007229 55.143265 
L 377.442715 55.521186 
L 377.8782 55.622879 
L 378.313686 55.007675 
L 378.749172 55.01633 
L 379.184657 55.454112 
L 379.620143 58.367133 
L 380.491114 58.826552 
L 381.362086 59.141727 
L 381.797571 58.882086 
L 382.233057 58.209185 
L 382.668543 55.721686 
L 383.104028 55.596915 
L 383.539514 55.896943 
L 383.974999 55.943102 
L 384.410485 55.736832 
L 384.845971 56.053449 
L 385.281456 53.345256 
L 386.152428 49.915118 
L 386.587913 49.79251 
L 387.023399 49.914397 
L 388.329856 48.906127 
L 389.636313 49.342467 
L 390.071798 49.92233 
L 390.507284 49.481663 
L 390.94277 49.31506 
L 391.378255 49.734812 
L 391.813741 49.884827 
L 392.249227 49.829293 
L 392.684712 50.239669 
L 393.120198 50.297366 
L 393.555684 50.118503 
L 393.991169 50.256978 
L 394.86214 50.156728 
L 396.168597 57.626437 
L 396.604083 57.739669 
L 397.039569 58.175288 
L 397.91054 57.596145 
L 398.781511 57.956757 
L 399.216997 56.648458 
L 399.652483 56.153699 
L 400.523454 56.356363 
L 400.958939 56.342659 
L 401.394425 56.852564 
L 401.829911 58.817897 
L 401.829911 58.817897 
" clip-path="url(#pee044d642e)" style="fill: none; stroke: #1f77b4; stroke-opacity: 0.8; stroke-width: 1.5; stroke-linecap: square"/>
   </g>
   <g id="line2d_16">
    <path d="M 146.635325 108.849152 
L 147.070811 108.85997 
L 147.506296 108.629179 
L 147.941782 108.745295 
L 148.377268 108.713562 
L 149.248239 109.228515 
L 149.683725 109.334535 
L 150.990181 107.719716 
L 151.425667 107.781741 
L 152.296638 107.212696 
L 152.732124 107.224236 
L 154.038581 106.032775 
L 154.474067 103.711879 
L 154.909552 103.830159 
L 155.345038 103.354873 
L 155.780523 102.695675 
L 156.216009 102.772846 
L 156.651495 101.996089 
L 157.08698 101.608792 
L 157.522466 101.657835 
L 157.957952 101.569124 
L 158.393437 101.743661 
L 158.828923 101.404686 
L 159.264409 101.422716 
L 159.699894 100.002628 
L 160.13538 99.724236 
L 160.570866 99.686732 
L 161.006351 99.308811 
L 161.441837 99.189088 
L 161.877322 98.816216 
L 162.312808 98.283232 
L 162.748294 98.045949 
L 163.183779 97.982481 
L 164.490236 96.974211 
L 164.925722 96.714571 
L 165.796693 95.871461 
L 167.10315 95.306743 
L 167.974121 95.244718 
L 168.409607 95.029072 
L 170.15155 95.237506 
L 170.587035 94.983635 
L 171.458007 92.372807 
L 172.764463 92.58052 
L 173.199949 92.361268 
L 173.635435 92.608647 
L 174.07092 92.579798 
L 174.506406 92.81059 
L 175.377377 92.209811 
L 175.812863 90.945507 
L 176.248349 90.636823 
L 176.683834 91.027726 
L 177.554806 90.649084 
L 177.990291 89.722312 
L 178.425777 89.423726 
L 178.861262 87.750488 
L 179.296748 88.059893 
L 180.167719 87.69279 
L 181.474176 86.457335 
L 182.345148 86.286405 
L 185.393547 83.769336 
L 186.264518 83.684953 
L 186.700004 83.335881 
L 187.13549 83.307753 
L 187.570975 82.637736 
L 188.006461 82.778375 
L 188.877432 82.61033 
L 189.312918 80.909686 
L 190.619375 80.18702 
L 191.05486 80.465412 
L 191.925832 80.200002 
L 192.361317 80.032678 
L 192.796803 79.23212 
L 193.667774 78.307512 
L 194.10326 78.372422 
L 194.974231 78.019023 
L 195.409717 77.897136 
L 197.587145 76.351555 
L 198.022631 76.12437 
L 198.458116 76.186395 
L 199.764573 76.746785 
L 200.200059 76.381125 
L 200.635545 76.314773 
L 202.377487 74.293905 
L 202.812973 74.138121 
L 203.683944 74.353767 
L 204.11943 74.19654 
L 204.554915 75.950555 
L 204.990401 75.879875 
L 206.296858 75.246641 
L 206.732343 75.259623 
L 207.167829 75.047583 
L 207.603315 75.118984 
L 208.474286 74.46195 
L 208.909772 74.342227 
L 209.345257 73.908051 
L 209.780743 73.846025 
L 210.216229 74.268662 
L 210.651714 73.951324 
L 211.0872 74.005416 
L 211.522686 73.480365 
L 211.958171 73.650574 
L 213.264628 72.583164 
L 213.700114 72.672595 
L 215.006571 72.637255 
L 215.442056 70.746929 
L 215.877542 70.040852 
L 216.748513 69.548256 
L 217.183999 69.885068 
L 218.05497 69.292943 
L 218.490456 68.596242 
L 218.925941 66.773711 
L 220.667884 66.066191 
L 221.10337 65.364441 
L 221.538855 65.263469 
L 221.974341 67.447333 
L 222.409827 67.578596 
L 222.845312 67.440842 
L 223.280798 67.443727 
L 223.716283 67.231687 
L 224.151769 67.306695 
L 225.02274 66.806887 
L 225.458226 66.594126 
L 225.893712 66.90281 
L 226.329197 66.398675 
L 226.764683 66.196011 
L 227.200169 64.448487 
L 228.506626 63.944352 
L 229.377597 63.261354 
L 230.248568 63.083933 
L 230.684054 62.96421 
L 231.119539 62.488924 
L 231.990511 62.258132 
L 232.425996 62.361267 
L 233.732453 61.955218 
L 234.167939 61.583067 
L 235.03891 61.495799 
L 235.474396 61.779961 
L 235.909881 61.931418 
L 236.345367 61.754718 
L 237.216338 61.179903 
L 238.522795 61.319821 
L 238.958281 61.037101 
L 239.393767 62.964931 
L 239.829252 63.174807 
L 240.264738 63.255584 
L 240.700224 63.773422 
L 241.135709 63.827514 
L 241.571195 62.940409 
L 242.00668 62.440602 
L 242.877652 62.116051 
L 244.184109 62.434832 
L 244.619594 64.059748 
L 245.05508 64.51484 
L 245.490566 63.872951 
L 245.926051 64.420359 
L 246.361537 64.505464 
L 246.797022 64.761498 
L 248.538965 64.537919 
L 248.974451 64.217696 
L 249.409936 64.075615 
L 249.845422 63.795059 
L 250.280908 63.738803 
L 250.716393 63.876557 
L 251.151879 62.542294 
L 251.587365 62.55744 
L 252.458336 62.248035 
L 252.893821 62.643265 
L 253.329307 62.865402 
L 253.764793 63.264239 
L 254.200278 63.24765 
L 254.635764 62.85819 
L 255.07125 62.756497 
L 255.506735 62.84665 
L 255.942221 64.511233 
L 256.377707 65.708464 
L 256.813192 65.618311 
L 257.248678 65.17548 
L 257.684164 64.943967 
L 258.119649 64.925937 
L 258.555135 64.658363 
L 258.99062 64.604992 
L 259.426106 64.257363 
L 259.861592 64.607156 
L 260.297077 62.107397 
L 260.732563 62.822129 
L 261.168049 62.712503 
L 261.603534 62.947622 
L 262.03902 62.568258 
L 262.474506 62.677884 
L 262.909991 63.361604 
L 263.345477 63.577971 
L 263.780962 64.866075 
L 265.087419 64.749237 
L 265.522905 64.889154 
L 265.958391 64.705964 
L 266.829362 64.96921 
L 267.264848 64.739861 
L 267.700333 64.754286 
L 268.135819 63.534697 
L 268.571305 63.803714 
L 269.00679 63.914782 
L 269.442276 64.356892 
L 269.877761 64.455699 
L 270.313247 64.345352 
L 271.184218 63.703463 
L 272.05519 63.97825 
L 272.490675 64.582635 
L 273.361647 63.834726 
L 273.797132 63.873672 
L 274.232618 65.112012 
L 275.103589 64.876172 
L 275.539075 65.006714 
L 275.97456 64.96921 
L 276.410046 65.212984 
L 276.845532 65.071624 
L 277.281017 65.192068 
L 277.716503 66.172211 
L 278.587474 66.75568 
L 279.02296 66.551574 
L 279.458446 66.669855 
L 279.893931 66.955459 
L 281.200388 66.812657 
L 281.635874 67.102588 
L 282.506845 67.249718 
L 282.942331 66.775153 
L 283.377816 66.582587 
L 283.813302 66.069076 
L 284.248788 65.82963 
L 284.684273 65.991183 
L 285.119759 65.983971 
L 285.555245 65.574316 
L 285.99073 65.780586 
L 286.861701 65.94791 
L 287.297187 66.280394 
L 288.168158 65.931322 
L 288.603644 65.510849 
L 289.03913 65.277894 
L 289.474615 65.507964 
L 289.910101 65.091097 
L 290.345587 65.082442 
L 291.216558 65.321888 
L 291.652044 64.895645 
L 292.087529 62.450699 
L 292.523015 62.618023 
L 292.9585 62.623792 
L 293.393986 62.850978 
L 293.829472 62.183125 
L 294.264957 62.420407 
L 295.135929 61.804483 
L 295.571414 61.806646 
L 296.442386 62.382904 
L 296.877871 62.421129 
L 298.184328 61.999213 
L 298.619814 61.019792 
L 299.055299 60.864729 
L 299.926271 60.81208 
L 300.361756 62.383625 
L 300.797242 62.77597 
L 301.232728 62.506954 
L 301.668213 62.674278 
L 302.103699 62.365594 
L 302.539185 62.403819 
L 303.410156 63.070229 
L 303.845641 64.848766 
L 304.281127 64.944689 
L 304.716613 64.778086 
L 305.152098 64.738419 
L 306.02307 65.184135 
L 306.458555 65.009599 
L 306.894041 65.06946 
L 307.329527 63.205819 
L 307.765012 63.249093 
L 308.200498 63.030562 
L 308.635984 63.251257 
L 309.071469 63.041381 
L 309.94244 63.893145 
L 310.377926 63.815253 
L 310.813412 63.555613 
L 311.248897 62.545179 
L 311.684383 62.15644 
L 312.119869 63.875115 
L 312.555354 63.145958 
L 312.99084 62.683654 
L 313.426326 62.453584 
L 313.861811 62.021571 
L 314.297297 62.112445 
L 314.732782 62.55744 
L 315.603754 62.968537 
L 316.039239 63.558498 
L 316.474725 63.503685 
L 316.910211 63.107012 
L 317.781182 62.685818 
L 318.216668 62.3216 
L 318.652153 61.698463 
L 319.087639 62.025898 
L 319.523125 61.82035 
L 319.95861 62.190337 
L 320.394096 61.828283 
L 321.700553 62.1449 
L 322.136038 62.423292 
L 322.571524 60.721927 
L 323.00701 60.97147 
L 323.442495 60.631774 
L 323.877981 61.257796 
L 324.313467 61.650862 
L 324.748952 61.452526 
L 325.184438 61.684038 
L 325.619924 61.417186 
L 326.055409 61.354439 
L 326.490895 62.474499 
L 326.92638 62.673557 
L 327.797352 62.729812 
L 328.232837 62.307897 
L 328.668323 62.566094 
L 329.103809 62.413916 
L 329.97478 61.381125 
L 330.410266 61.762652 
L 330.845751 58.827995 
L 331.281237 58.653459 
L 331.716722 58.67798 
L 332.152208 57.906993 
L 332.587694 58.03537 
L 333.023179 58.45945 
L 333.458665 58.639755 
L 333.894151 59.179951 
L 334.765122 59.613407 
L 335.200608 59.705002 
L 336.071579 59.399925 
L 337.378036 59.829052 
L 338.249007 59.249189 
L 338.684493 59.082586 
L 339.119978 58.720532 
L 339.555464 58.767412 
L 339.99095 58.517147 
L 340.426435 55.835639 
L 340.861921 54.119128 
L 341.297407 54.235966 
L 342.603864 53.994357 
L 343.039349 53.855882 
L 343.474835 53.853718 
L 343.91032 53.524119 
L 344.781292 53.478682 
L 345.216777 55.995751 
L 346.523234 55.676249 
L 346.95872 55.79453 
L 347.829691 55.637303 
L 348.265177 55.324292 
L 348.700662 55.481519 
L 350.442605 54.700434 
L 350.878091 54.917522 
L 351.749062 55.045179 
L 352.184548 54.399684 
L 352.620033 54.489837 
L 353.055519 55.82987 
L 353.491005 55.465652 
L 355.232947 54.897328 
L 355.668433 55.243515 
L 356.103918 53.308473 
L 356.539404 53.149083 
L 356.97489 53.181538 
L 357.845861 53.470027 
L 358.716832 53.402954 
L 359.587804 54.010945 
L 360.458775 53.640236 
L 360.89426 53.212551 
L 361.329746 53.072633 
L 361.765232 53.35391 
L 362.200717 52.974547 
L 362.636203 51.558786 
L 363.507174 51.058978 
L 364.378146 50.993347 
L 364.813631 50.142303 
L 365.249117 50.246881 
L 365.684603 50.53537 
L 366.120088 50.448823 
L 366.555574 49.987962 
L 367.426545 49.968489 
L 367.862031 50.448102 
L 368.297516 50.050708 
L 368.733002 50.493539 
L 369.603973 49.820638 
L 370.039459 50.011041 
L 370.474945 50.336312 
L 370.91043 50.318282 
L 372.216887 50.683221 
L 372.652373 51.019311 
L 373.087858 50.838284 
L 373.95883 50.739476 
L 374.394315 50.532485 
L 375.265287 51.379201 
L 375.700772 51.069796 
L 376.571744 51.141198 
L 377.007229 53.535659 
L 377.8782 53.232745 
L 378.313686 53.289 
L 378.749172 52.409108 
L 379.184657 52.176153 
L 379.620143 52.31607 
L 380.055629 52.219426 
L 380.491114 52.446612 
L 381.797571 51.862421 
L 383.104028 53.034409 
L 383.539514 54.176105 
L 383.974999 54.152304 
L 384.410485 53.939544 
L 384.845971 53.995799 
L 385.281456 54.199184 
L 385.716942 54.015993 
L 386.152428 54.427812 
L 386.587913 54.342707 
L 387.023399 54.483346 
L 387.458885 54.266258 
L 387.89437 53.357517 
L 388.329856 52.032629 
L 388.765341 51.711685 
L 390.071798 52.153074 
L 390.507284 52.382423 
L 391.378255 52.347804 
L 391.813741 51.10153 
L 392.249227 52.877903 
L 392.684712 52.759622 
L 393.120198 53.160623 
L 394.426655 53.798905 
L 394.86214 53.788808 
L 395.733112 54.413387 
L 396.168597 55.603406 
L 396.604083 55.838524 
L 397.039569 55.732505 
L 397.475054 56.390981 
L 397.91054 56.805685 
L 398.346026 56.746544 
L 398.781511 57.39853 
L 399.652483 56.846794 
L 401.394425 56.647737 
L 401.829911 55.226206 
L 401.829911 55.226206 
" clip-path="url(#pee044d642e)" style="fill: none; stroke: #ff7f0e; stroke-opacity: 0.8; stroke-width: 1.5; stroke-linecap: square"/>
   </g>
   <g id="line2d_17">
    <path d="M 146.635325 131.620332 
L 147.506296 130.930121 
L 147.941782 130.942382 
L 148.377268 130.614226 
L 149.248239 131.044075 
L 150.554696 130.782992 
L 151.425667 130.638026 
L 151.861153 130.857999 
L 152.296638 130.912812 
L 152.732124 131.230871 
L 153.16761 131.284242 
L 153.603095 131.650623 
L 154.038581 131.704715 
L 154.474067 131.449402 
L 154.909552 131.637641 
L 155.345038 131.399638 
L 155.780523 130.730343 
L 156.216009 130.66976 
L 156.651495 130.365404 
L 157.08698 130.27453 
L 157.957952 129.700436 
L 158.393437 129.769673 
L 158.828923 129.341267 
L 159.264409 129.238853 
L 160.13538 129.250393 
L 160.570866 129.01888 
L 161.441837 127.99907 
L 162.312808 127.404782 
L 163.183779 126.484502 
L 163.619265 126.348912 
L 164.054751 126.04744 
L 164.490236 127.488444 
L 165.361208 128.030083 
L 165.796693 127.671635 
L 166.232179 127.577155 
L 166.667665 127.900263 
L 167.10315 127.889444 
L 167.974121 128.463538 
L 169.716064 129.468923 
L 170.15155 129.409062 
L 171.893492 130.51037 
L 173.199949 131.687406 
L 173.635435 131.605186 
L 174.506406 132.084079 
L 175.377377 132.747604 
L 175.812863 132.754095 
L 176.248349 132.617784 
L 177.554806 132.537728 
L 177.990291 132.239142 
L 178.425777 132.731737 
L 178.861262 133.60009 
L 179.296748 133.985944 
L 180.167719 133.951325 
L 181.038691 133.959259 
L 181.909662 134.417236 
L 182.780633 134.483588 
L 183.216119 134.195099 
L 183.651605 134.345113 
L 185.829033 132.781501 
L 186.264518 132.889685 
L 186.700004 133.952768 
L 187.13549 134.238372 
L 188.441947 134.283088 
L 188.877432 132.493012 
L 189.748403 131.500609 
L 190.619375 131.942719 
L 191.925832 132.003302 
L 192.361317 132.097782 
L 192.796803 131.99032 
L 193.232289 132.051624 
L 193.667774 131.821553 
L 194.10326 131.437141 
L 194.538746 131.759528 
L 194.974231 131.727794 
L 195.409717 131.896561 
L 195.845202 132.208129 
L 196.280688 132.269433 
L 196.716174 132.215341 
L 197.151659 132.511043 
L 197.587145 132.518255 
L 198.893602 133.354153 
L 199.329088 134.053739 
L 200.200059 133.860451 
L 200.635545 133.988829 
L 201.07103 134.468442 
L 201.506516 134.59682 
L 201.942001 134.933631 
L 202.812973 134.895407 
L 203.683944 135.346892 
L 204.554915 135.364202 
L 204.990401 135.67577 
L 205.425887 135.78179 
L 205.861372 135.732747 
L 206.732343 134.887473 
L 207.167829 135.245921 
L 207.603315 134.87954 
L 208.474286 134.696349 
L 208.909772 134.415072 
L 209.345257 134.467 
L 209.780743 134.710052 
L 211.0872 133.696734 
L 211.522686 133.87127 
L 211.958171 133.891464 
L 212.393657 133.62389 
L 213.700114 133.569798 
L 214.571085 133.962144 
L 215.006571 133.857566 
L 215.877542 133.942671 
L 217.183999 134.687694 
L 217.619485 134.735295 
L 218.05497 135.053355 
L 218.925941 135.077876 
L 219.361427 134.898292 
L 220.667884 135.062009 
L 221.538855 134.964644 
L 221.974341 135.222842 
L 222.845312 134.824727 
L 223.280798 134.764144 
L 223.716283 136.037103 
L 224.587255 135.535132 
L 225.02274 135.382954 
L 225.893712 135.307225 
L 227.200169 135.909446 
L 227.635654 135.931804 
L 228.07114 135.728419 
L 228.506626 135.880598 
L 228.942111 136.186396 
L 229.813082 136.366702 
L 230.248568 136.239767 
L 230.684054 136.64293 
L 231.555025 136.737411 
L 232.425996 137.286983 
L 232.861482 136.947287 
L 233.732453 136.837661 
L 234.603425 136.174857 
L 235.474396 136.615524 
L 236.345367 136.246979 
L 236.780853 136.301071 
L 237.216338 136.22967 
L 237.651824 136.275107 
L 238.08731 136.446758 
L 238.958281 136.299628 
L 239.393767 136.299628 
L 239.829252 135.968587 
L 240.264738 136.151777 
L 240.700224 136.745344 
L 242.00668 136.818188 
L 242.877652 137.458634 
L 243.313137 137.073501 
L 243.748623 137.49181 
L 244.184109 137.224236 
L 245.05508 137.252364 
L 245.490566 136.271501 
L 245.926051 136.569366 
L 246.361537 137.159326 
L 246.797022 137.535805 
L 247.232508 137.381463 
L 247.667994 137.462961 
L 248.103479 137.989454 
L 249.409936 138.415697 
L 250.280908 137.897138 
L 250.716393 138.020467 
L 251.587365 137.861076 
L 252.02285 137.524986 
L 252.458336 136.822515 
L 253.329307 136.268616 
L 254.200278 136.390502 
L 254.635764 136.037103 
L 255.07125 136.346508 
L 255.942221 135.801984 
L 256.377707 135.763038 
L 256.813192 135.376463 
L 257.248678 135.301455 
L 257.684164 134.96825 
L 258.119649 134.945892 
L 258.555135 134.63216 
L 258.99062 134.739622 
L 259.426106 134.567971 
L 259.861592 134.559317 
L 260.297077 134.045806 
L 260.732563 134.129468 
L 261.603534 133.58278 
L 262.03902 133.674376 
L 262.474506 133.553931 
L 262.909991 133.859009 
L 263.345477 133.884252 
L 263.780962 134.316264 
L 264.216448 134.022005 
L 265.087419 133.961423 
L 265.522905 133.93618 
L 265.958391 133.571241 
L 266.393876 133.584223 
L 266.829362 133.939065 
L 267.264848 134.018399 
L 267.700333 133.75948 
L 268.135819 134.049412 
L 268.571305 133.871991 
L 269.00679 133.860451 
L 270.313247 134.761259 
L 270.748733 134.844921 
L 271.184218 134.795878 
L 272.490675 135.020899 
L 273.361647 135.555326 
L 273.797132 137.144902 
L 274.232618 137.569702 
L 274.668104 138.407042 
L 275.103589 138.280107 
L 275.539075 138.373866 
L 275.97456 138.03417 
L 276.845532 138.041382 
L 277.716503 137.589897 
L 278.151989 137.045373 
L 279.02296 137.602157 
L 282.071359 137.594224 
L 282.506845 137.354057 
L 283.377816 137.230727 
L 283.813302 137.358384 
L 284.248788 137.069895 
L 285.119759 136.98479 
L 285.99073 136.287367 
L 286.426216 136.237603 
L 286.861701 136.372472 
L 287.297187 136.210918 
L 287.732673 135.921707 
L 289.03913 135.726977 
L 289.474615 135.382954 
L 289.910101 135.365644 
L 290.345587 134.917765 
L 290.781072 134.8442 
L 292.087529 135.606533 
L 292.523015 135.571193 
L 293.393986 135.714716 
L 295.135929 135.767365 
L 296.0069 136.406369 
L 296.877871 136.48931 
L 297.313357 136.907619 
L 299.055299 136.916274 
L 299.926271 137.151393 
L 300.361756 136.68981 
L 300.797242 136.650864 
L 301.232728 136.420794 
L 302.103699 136.414303 
L 302.539185 136.081098 
L 302.97467 136.042152 
L 303.410156 136.387617 
L 304.281127 136.360211 
L 304.716613 136.303956 
L 305.587584 135.759432 
L 306.02307 136.190002 
L 307.329527 136.214524 
L 307.765012 135.477434 
L 308.200498 135.512052 
L 309.94244 136.603984 
L 310.377926 136.381126 
L 311.684383 136.567202 
L 312.119869 136.343623 
L 312.555354 136.433776 
L 312.99084 136.731641 
L 313.861811 136.792224 
L 314.297297 136.45974 
L 315.168268 136.893916 
L 315.603754 136.473443 
L 316.474725 136.527535 
L 317.345696 136.519601 
L 317.781182 136.314053 
L 318.216668 136.468394 
L 318.652153 136.172693 
L 319.087639 136.191445 
L 319.523125 136.531862 
L 319.95861 136.472722 
L 320.394096 136.545565 
L 320.829581 136.888868 
L 321.265067 136.700628 
L 322.136038 136.756884 
L 322.571524 136.378242 
L 323.00701 136.238324 
L 323.442495 136.231833 
L 323.877981 135.975078 
L 324.748952 136.679713 
L 325.184438 136.466952 
L 325.619924 136.460461 
L 326.055409 136.096964 
L 326.490895 136.182069 
L 326.92638 135.800542 
L 327.361866 135.949835 
L 328.232837 136.37752 
L 328.668323 136.371751 
L 329.103809 136.702792 
L 329.539294 136.456855 
L 329.97478 136.396272 
L 330.410266 137.690868 
L 330.845751 137.887041 
L 331.281237 137.737026 
L 331.716722 137.801936 
L 332.587694 138.585906 
L 333.023179 138.297417 
L 333.458665 138.350787 
L 333.894151 138.233949 
L 334.329636 137.913726 
L 334.765122 138.09908 
L 335.200608 137.817803 
L 335.636093 137.746402 
L 336.071579 138.038497 
L 336.507065 138.020467 
L 336.94255 138.413533 
L 337.378036 139.105187 
L 337.813521 139.39007 
L 338.249007 139.396561 
L 339.119978 138.93642 
L 339.555464 139.351845 
L 339.99095 139.180194 
L 340.426435 139.214812 
L 340.861921 139.575424 
L 341.297407 139.558115 
L 341.732892 139.848768 
L 342.168378 139.646825 
L 343.039349 139.616534 
L 343.474835 139.821361 
L 343.91032 139.659086 
L 344.781292 139.629516 
L 345.216777 140.05648 
L 345.652263 140.291599 
L 346.087749 141.074126 
L 346.523234 141.309966 
L 346.95872 141.260201 
L 347.394206 141.027246 
L 347.829691 141.014986 
L 348.700662 140.529602 
L 349.136148 140.777703 
L 350.007119 140.893099 
L 351.313576 140.71712 
L 352.184548 139.987964 
L 352.620033 140.201446 
L 353.055519 140.205052 
L 353.92649 140.766885 
L 355.232947 140.745969 
L 355.668433 140.963779 
L 356.539404 140.743084 
L 356.97489 140.360115 
L 357.845861 140.410601 
L 358.716832 140.349297 
L 359.152318 140.399782 
L 359.587804 140.114178 
L 360.023289 140.28078 
L 360.458775 140.285108 
L 360.89426 140.575039 
L 361.765232 139.902138 
L 362.200717 139.973539 
L 363.071689 140.833959 
L 363.94266 140.885887 
L 364.378146 140.873626 
L 364.813631 140.287993 
L 365.249117 140.238949 
L 365.684603 140.370212 
L 366.991059 140.340642 
L 367.862031 140.916899 
L 368.297516 140.951518 
L 368.733002 140.774097 
L 369.603973 141.04095 
L 370.039459 140.815207 
L 370.474945 141.1412 
L 370.91043 141.05321 
L 371.345916 141.184473 
L 372.652373 141.048162 
L 373.523344 140.745248 
L 374.394315 140.856316 
L 374.829801 140.560615 
L 375.700772 141.392907 
L 376.571744 141.60134 
L 378.313686 141.496763 
L 378.749172 141.551576 
L 379.620143 140.779146 
L 380.491114 141.155624 
L 380.9266 140.912572 
L 381.362086 140.948633 
L 381.797571 140.75246 
L 382.668543 140.839728 
L 383.104028 140.690435 
L 383.539514 140.935651 
L 384.410485 140.892378 
L 384.845971 141.107302 
L 385.281456 141.587637 
L 385.716942 141.527054 
L 386.152428 141.80184 
L 387.023399 141.361173 
L 387.458885 141.641007 
L 387.89437 141.667693 
L 388.765341 141.20034 
L 389.200827 141.452768 
L 389.636313 141.172212 
L 390.507284 141.690772 
L 390.94277 141.434016 
L 391.378255 141.420313 
L 391.813741 141.175097 
L 392.249227 141.423198 
L 392.684712 142.381704 
L 393.120198 142.224477 
L 393.555684 141.891272 
L 394.426655 141.806889 
L 395.297626 142.340594 
L 395.733112 142.339151 
L 396.168597 142.623313 
L 396.604083 142.673799 
L 397.475054 143.15197 
L 397.91054 142.885839 
L 398.346026 142.91036 
L 398.781511 142.740151 
L 399.652483 143.285396 
L 400.087968 143.207504 
L 400.523454 143.292608 
L 401.829911 143.022871 
L 401.829911 143.022871 
" clip-path="url(#pee044d642e)" style="fill: none; stroke: #2ca02c; stroke-opacity: 0.8; stroke-width: 1.5; stroke-linecap: square"/>
   </g>
   <g id="line2d_18">
    <path d="M 146.635325 156.620813 
L 147.506296 156.435459 
L 149.683725 157.158125 
L 151.861153 158.009168 
L 153.16761 157.775492 
L 153.603095 157.910361 
L 154.038581 156.014986 
L 154.909552 157.145864 
L 156.216009 157.722121 
L 157.08698 157.47979 
L 157.522466 156.760731 
L 158.393437 156.555182 
L 158.828923 156.404446 
L 159.264409 155.987579 
L 159.699894 154.807658 
L 161.006351 154.310735 
L 161.441837 154.504745 
L 161.877322 154.447047 
L 162.748294 153.713563 
L 163.183779 153.628458 
L 163.619265 153.733036 
L 164.054751 153.546239 
L 164.490236 153.730151 
L 165.361208 153.697696 
L 165.796693 153.091147 
L 166.667665 153.663798 
L 167.10315 153.332757 
L 167.538636 153.791455 
L 168.409607 153.583021 
L 169.280578 154.138363 
L 171.458007 153.849874 
L 172.328978 153.009649 
L 172.764463 152.972145 
L 173.199949 152.557442 
L 173.635435 152.596388 
L 174.07092 152.881992 
L 174.941892 152.30862 
L 175.377377 152.608649 
L 175.812863 152.649037 
L 176.248349 153.003879 
L 176.683834 152.996667 
L 177.11932 152.587733 
L 177.554806 152.499023 
L 177.990291 152.186012 
L 178.425777 152.536526 
L 178.861262 153.042825 
L 179.296748 153.088262 
L 179.732234 152.73342 
L 180.603205 152.587733 
L 181.474176 151.828285 
L 181.909662 151.741017 
L 182.345148 151.34146 
L 182.780633 150.757269 
L 183.216119 150.700292 
L 183.651605 150.895744 
L 184.08709 151.244094 
L 184.522576 151.112832 
L 184.958061 150.61663 
L 185.393547 150.607254 
L 185.829033 150.458682 
L 186.264518 150.157211 
L 186.700004 150.129083 
L 187.570975 150.562538 
L 188.006461 150.15649 
L 189.312918 149.875934 
L 189.748403 149.511716 
L 190.619375 149.371799 
L 191.05486 149.789387 
L 191.925832 149.711495 
L 192.796803 149.350883 
L 194.10326 148.137065 
L 194.974231 147.282415 
L 195.409717 147.65673 
L 197.151659 147.394205 
L 198.893602 145.658221 
L 199.329088 145.495945 
L 199.764573 145.570231 
L 200.200059 145.481521 
L 200.635545 145.579607 
L 201.942001 145.326458 
L 202.377487 144.985319 
L 202.812973 144.919688 
L 203.683944 144.361461 
L 204.11943 144.296551 
L 204.990401 144.814389 
L 205.861372 144.63192 
L 206.296858 144.817996 
L 206.732343 144.754528 
L 207.167829 144.559798 
L 207.603315 144.241738 
L 209.345257 143.96551 
L 210.216229 143.821265 
L 211.522686 144.246066 
L 211.958171 144.153749 
L 212.829142 143.353912 
L 214.135599 143.115188 
L 215.442056 143.063259 
L 216.313028 143.654663 
L 217.183999 143.216159 
L 217.619485 142.903148 
L 218.05497 142.86925 
L 218.490456 143.14043 
L 219.796913 142.912524 
L 220.232398 143.191637 
L 221.538855 142.981761 
L 221.974341 143.224813 
L 222.845312 143.053162 
L 223.280798 143.304148 
L 223.716283 143.704427 
L 224.151769 143.695051 
L 224.587255 143.869587 
L 225.02274 143.82415 
L 225.893712 143.605619 
L 228.942111 143.185867 
L 229.377597 142.936324 
L 229.813082 142.979598 
L 231.555025 141.585473 
L 231.990511 141.521284 
L 232.861482 141.217649 
L 234.603425 141.000561 
L 235.03891 140.277174 
L 237.651824 138.130814 
L 238.08731 137.773808 
L 238.522795 137.724765 
L 238.958281 139.746354 
L 241.135709 139.487435 
L 242.442166 140.455316 
L 242.877652 140.360115 
L 243.748623 139.674232 
L 244.184109 139.556672 
L 244.619594 140.89959 
L 245.05508 140.875068 
L 245.490566 140.718563 
L 245.926051 140.863529 
L 246.361537 140.510851 
L 246.797022 140.456759 
L 247.667994 140.859201 
L 248.103479 140.800061 
L 248.538965 140.966664 
L 248.974451 140.323333 
L 249.409936 140.165385 
L 249.845422 139.783136 
L 250.280908 139.698032 
L 250.716393 139.933151 
L 251.587365 139.268904 
L 252.02285 139.21337 
L 253.764793 137.85747 
L 254.200278 137.844488 
L 255.506735 136.992724 
L 256.377707 136.715053 
L 257.248678 137.154999 
L 257.684164 137.073501 
L 258.119649 137.315111 
L 258.555135 137.405263 
L 258.99062 137.351893 
L 259.426106 137.457913 
L 259.861592 137.77453 
L 260.297077 137.598551 
L 260.732563 137.738469 
L 261.168049 137.372087 
L 261.603534 137.595666 
L 262.03902 137.620188 
L 262.474506 137.454307 
L 262.909991 137.628843 
L 264.216448 137.209812 
L 264.651934 137.460076 
L 265.522905 137.324486 
L 266.393876 137.746402 
L 266.829362 136.777799 
L 267.700333 137.341796 
L 268.571305 137.100907 
L 269.00679 137.052585 
L 269.442276 136.834055 
L 270.748733 136.854249 
L 271.184218 137.103071 
L 271.619704 137.053306 
L 272.490675 136.293858 
L 272.926161 136.526814 
L 273.797132 136.340017 
L 274.232618 135.936132 
L 274.668104 135.937574 
L 276.410046 135.556047 
L 276.845532 135.523592 
L 277.281017 135.237266 
L 278.151989 135.237988 
L 278.587474 135.234382 
L 279.893931 136.057297 
L 280.329417 135.938295 
L 280.764902 135.533689 
L 281.635874 135.362759 
L 282.071359 134.87954 
L 282.506845 134.787223 
L 282.942331 134.981953 
L 283.813302 134.862952 
L 284.684273 133.88353 
L 285.99073 132.537007 
L 286.426216 132.23842 
L 286.861701 131.802801 
L 287.732673 132.161971 
L 288.168158 132.168462 
L 289.03913 126.53643 
L 289.474615 123.73592 
L 289.910101 123.303907 
L 291.216558 115.206734 
L 291.652044 114.796358 
L 292.087529 114.75597 
L 292.523015 114.493444 
L 292.9585 112.400455 
L 293.393986 112.445171 
L 293.829472 112.285059 
L 296.0069 110.928438 
L 296.877871 110.72938 
L 297.748842 111.172212 
L 298.184328 111.101532 
L 299.490785 110.293762 
L 299.926271 110.234621 
L 300.361756 109.713177 
L 301.232728 109.504743 
L 301.668213 109.195339 
L 302.539185 107.583405 
L 302.97467 107.443488 
L 303.410156 107.0497 
L 303.845641 107.322322 
L 304.716613 107.018687 
L 305.152098 106.935746 
L 305.587584 105.895743 
L 306.02307 105.727698 
L 306.458555 105.061287 
L 306.894041 105.010802 
L 308.200498 104.394877 
L 308.635984 104.016235 
L 309.071469 103.8893 
L 309.94244 103.162307 
L 310.377926 103.122639 
L 310.813412 102.721639 
L 312.99084 102.214619 
L 313.426326 101.720581 
L 313.861811 101.401079 
L 316.039239 101.912427 
L 316.474725 101.657114 
L 316.910211 99.003012 
L 317.781182 98.917187 
L 319.087639 97.441564 
L 319.523125 94.930986 
L 319.95861 95.199281 
L 320.394096 95.148074 
L 321.265067 95.626966 
L 321.700553 95.680337 
L 322.136038 95.919062 
L 322.571524 95.700531 
L 323.00701 95.171875 
L 323.442495 94.846603 
L 324.313467 94.707407 
L 325.184438 93.98979 
L 327.797352 93.358719 
L 328.668323 93.808042 
L 329.539294 93.632063 
L 329.97478 91.774192 
L 330.410266 91.70784 
L 330.845751 91.521764 
L 331.716722 89.59754 
L 332.152208 88.725582 
L 332.587694 88.691684 
L 333.023179 88.419062 
L 333.458665 88.323139 
L 333.894151 89.141727 
L 334.329636 89.12586 
L 334.765122 89.346555 
L 335.200608 88.981616 
L 335.636093 89.276596 
L 336.94255 81.677788 
L 337.378036 81.541477 
L 337.813521 81.642448 
L 338.684493 81.57826 
L 339.119978 81.299867 
L 339.555464 80.34641 
L 339.99095 80.530322 
L 340.426435 80.253372 
L 340.861921 80.223802 
L 341.297407 80.073788 
L 341.732892 79.718225 
L 342.168378 79.074173 
L 342.603864 79.004935 
L 343.039349 78.206541 
L 343.474835 78.316888 
L 343.91032 77.840881 
L 344.345806 77.550949 
L 344.781292 77.466566 
L 345.652263 77.434832 
L 346.087749 76.759046 
L 346.523234 76.561431 
L 346.95872 76.726591 
L 347.394206 76.593886 
L 347.829691 76.135188 
L 348.700662 76.000319 
L 350.442605 75.680817 
L 351.313576 75.597877 
L 351.749062 76.615523 
L 352.184548 76.2953 
L 353.055519 76.287366 
L 353.491005 75.963537 
L 353.92649 75.453632 
L 354.361976 75.233659 
L 354.797461 75.512772 
L 356.103918 74.504502 
L 356.539404 72.371845 
L 356.97489 72.369682 
L 357.410375 72.019167 
L 358.716832 71.711205 
L 359.152318 71.850401 
L 360.023289 71.674422 
L 361.329746 71.245295 
L 363.071689 70.676971 
L 363.507174 70.775057 
L 363.94266 70.320686 
L 365.249117 70.186539 
L 365.684603 70.414445 
L 366.555574 70.333668 
L 366.991059 70.478634 
L 367.426545 70.792366 
L 367.862031 69.703319 
L 368.733002 69.887231 
L 369.603973 70.578163 
L 370.474945 70.71808 
L 370.91043 70.637303 
L 371.345916 70.065373 
L 371.781401 70.054555 
L 372.652373 69.410503 
L 373.087858 69.275634 
L 373.523344 71.539554 
L 374.394315 76.782846 
L 374.829801 76.821071 
L 375.700772 82.6399 
L 376.136258 84.801406 
L 377.442715 84.895886 
L 377.8782 86.827322 
L 379.184657 80.647882 
L 379.620143 80.505801 
L 380.491114 80.437284 
L 381.362086 80.083164 
L 381.797571 78.924158 
L 382.233057 78.611868 
L 383.104028 78.527485 
L 383.539514 78.110618 
L 383.974999 78.057969 
L 384.410485 78.36521 
L 384.845971 78.318331 
L 385.281456 78.737361 
L 386.152428 78.163989 
L 386.587913 78.403435 
L 387.023399 79.310734 
L 387.458885 79.874009 
L 387.89437 79.271788 
L 388.329856 79.188847 
L 388.765341 77.522821 
L 389.200827 77.243708 
L 389.636313 76.003204 
L 390.071798 75.864729 
L 390.507284 76.339294 
L 390.94277 75.976519 
L 391.378255 76.572249 
L 391.813741 76.105618 
L 392.249227 76.432332 
L 393.120198 76.265729 
L 393.991169 76.216686 
L 394.426655 74.813907 
L 394.86214 75.020898 
L 396.168597 74.83915 
L 397.039569 74.739621 
L 397.475054 74.341506 
L 397.91054 74.265777 
L 398.346026 74.514599 
L 398.781511 74.400646 
L 400.087968 73.416176 
L 400.523454 73.587106 
L 400.958939 73.554651 
L 401.394425 73.9607 
L 401.829911 76.457575 
L 401.829911 76.457575 
" clip-path="url(#pee044d642e)" style="fill: none; stroke: #d62728; stroke-opacity: 0.8; stroke-width: 1.5; stroke-linecap: square"/>
   </g>
   <g id="line2d_19">
    <path d="M 146.635325 152.172309 
L 147.506296 152.223515 
L 148.377268 152.735584 
L 148.812753 152.3793 
L 149.683725 152.905071 
L 150.11921 152.843046 
L 150.554696 152.442046 
L 151.425667 152.329535 
L 151.861153 152.160048 
L 152.296638 151.854249 
L 152.732124 151.909062 
L 153.16761 151.749672 
L 153.603095 150.908004 
L 154.038581 150.678655 
L 154.909552 150.667116 
L 155.780523 151.077492 
L 156.216009 151.060904 
L 156.651495 150.701013 
L 157.08698 150.721929 
L 157.522466 150.366366 
L 157.957952 150.332468 
L 158.828923 150.641873 
L 159.264409 150.558211 
L 159.699894 150.832997 
L 160.570866 150.91161 
L 161.441837 150.376463 
L 161.877322 150.403869 
L 162.312808 150.137738 
L 162.748294 150.108889 
L 163.183779 150.353384 
L 163.619265 150.342565 
L 164.054751 150.726256 
L 164.490236 150.373578 
L 164.925722 150.67577 
L 165.361208 150.337517 
L 166.232179 150.469501 
L 167.10315 149.829776 
L 167.538636 149.73818 
L 168.409607 149.14822 
L 168.845093 149.487916 
L 169.280578 149.591772 
L 169.716064 149.41363 
L 170.15155 149.815351 
L 171.022521 150.39233 
L 171.458007 150.388002 
L 172.764463 151.433776 
L 173.635435 151.510226 
L 174.941892 150.589945 
L 176.248349 150.479598 
L 176.683834 150.826506 
L 177.11932 150.836603 
L 177.990291 151.448922 
L 178.425777 151.438825 
L 178.861262 151.834776 
L 179.296748 151.724429 
L 179.732234 151.282319 
L 180.603205 151.267895 
L 181.909662 150.379348 
L 182.345148 150.354105 
L 182.780633 150.036045 
L 183.216119 150.409639 
L 183.651605 150.101677 
L 184.08709 150.170914 
L 184.522576 150.064173 
L 185.393547 150.159375 
L 186.264518 150.675049 
L 188.006461 150.288474 
L 188.877432 149.824006 
L 189.748403 150.435603 
L 190.183889 150.274049 
L 190.619375 151.094801 
L 191.05486 150.772414 
L 191.490346 150.673607 
L 192.361317 151.046479 
L 192.796803 151.434497 
L 194.538746 151.620573 
L 194.974231 151.95522 
L 195.845202 152.088647 
L 196.280688 151.44171 
L 196.716174 151.612639 
L 198.022631 151.688368 
L 198.458116 151.792224 
L 199.329088 151.642931 
L 199.764573 151.366702 
L 200.200059 151.411418 
L 201.07103 150.913053 
L 201.506516 151.164039 
L 201.942001 151.120765 
L 202.377487 150.7991 
L 202.812973 150.67577 
L 203.248458 150.275492 
L 203.683944 150.481761 
L 204.990401 150.136296 
L 205.861372 150.78756 
L 206.296858 150.639709 
L 206.732343 150.765202 
L 207.603315 150.15072 
L 208.0388 150.447143 
L 208.474286 150.253855 
L 208.909772 149.916322 
L 209.780743 150.644758 
L 210.216229 150.845979 
L 210.651714 150.83444 
L 211.0872 150.682983 
L 211.522686 150.892137 
L 211.958171 150.494022 
L 212.393657 150.383675 
L 212.829142 150.098792 
L 214.135599 150.197599 
L 214.571085 149.867279 
L 215.006571 149.855018 
L 215.442056 150.195436 
L 215.877542 150.196878 
L 216.313028 150.532247 
L 217.183999 150.61663 
L 217.619485 150.926035 
L 218.05497 151.091916 
L 218.490456 150.88781 
L 218.925941 151.201542 
L 219.361427 151.211639 
L 220.232398 150.311553 
L 221.10337 150.334632 
L 221.538855 150.058403 
L 221.974341 150.476713 
L 222.845312 150.004312 
L 223.280798 150.038209 
L 223.716283 149.906225 
L 224.151769 150.201927 
L 224.587255 150.014409 
L 226.764683 150.05047 
L 227.635654 150.013688 
L 228.506626 149.316986 
L 228.942111 149.197984 
L 231.990511 146.974453 
L 232.425996 146.994647 
L 233.296968 146.260442 
L 233.732453 146.159471 
L 234.167939 145.711591 
L 235.474396 145.596195 
L 236.345367 144.859827 
L 237.216338 145.389204 
L 237.651824 145.340882 
L 238.08731 145.540661 
L 238.522795 146.31237 
L 239.393767 146.232314 
L 239.829252 146.245296 
L 240.264738 146.056336 
L 240.700224 146.144325 
L 241.135709 145.922188 
L 241.571195 146.178944 
L 242.00668 146.21789 
L 242.877652 146.582108 
L 243.313137 146.882858 
L 243.748623 146.762413 
L 244.184109 146.993205 
L 244.619594 147.024939 
L 245.05508 147.27953 
L 245.490566 146.991762 
L 247.232508 146.859778 
L 248.974451 145.69933 
L 249.409936 145.757749 
L 249.845422 145.678415 
L 250.280908 146.028208 
L 250.716393 145.51037 
L 251.151879 145.221881 
L 251.587365 145.573116 
L 252.458336 145.638748 
L 255.07125 145.367568 
L 255.506735 145.588983 
L 255.942221 145.269481 
L 256.377707 145.337276 
L 258.555135 143.661875 
L 259.426106 143.700821 
L 260.297077 144.400407 
L 260.732563 144.347758 
L 261.168049 144.646344 
L 261.603534 144.204235 
L 262.03902 144.476857 
L 263.780962 142.938488 
L 264.651934 143.104369 
L 265.522905 143.141152 
L 266.393876 143.677742 
L 267.264848 143.345979 
L 267.700333 143.555134 
L 268.135819 143.539988 
L 269.00679 144.067202 
L 269.442276 143.979934 
L 270.313247 144.455942 
L 271.184218 144.502821 
L 272.05519 144.01888 
L 272.490675 144.188368 
L 272.926161 144.480463 
L 273.361647 145.005514 
L 273.797132 144.942767 
L 274.668104 144.339103 
L 275.103589 144.511476 
L 275.539075 144.432141 
L 276.410046 145.154807 
L 277.716503 145.128843 
L 278.587474 144.16024 
L 279.02296 144.310976 
L 279.893931 143.599128 
L 280.329417 143.851556 
L 280.764902 143.578213 
L 281.200388 143.951085 
L 282.071359 143.331555 
L 282.942331 143.404398 
L 283.377816 143.089224 
L 283.813302 143.162788 
L 284.684273 143.079848 
L 285.119759 143.065423 
L 287.297187 144.367952 
L 287.732673 144.316024 
L 288.168158 144.666539 
L 288.603644 144.414111 
L 289.03913 144.682406 
L 289.474615 144.597301 
L 289.910101 144.833141 
L 290.781072 144.874251 
L 291.216558 144.733612 
L 291.652044 144.906706 
L 292.087529 144.878578 
L 292.523015 145.195917 
L 292.9585 145.154086 
L 293.393986 145.508206 
L 293.829472 145.563019 
L 295.135929 144.706927 
L 295.571414 144.74371 
L 296.0069 145.123073 
L 296.442386 145.213947 
L 296.877871 145.62865 
L 297.313357 145.757749 
L 297.748842 145.720246 
L 299.055299 144.911033 
L 299.926271 144.957192 
L 300.797242 144.261211 
L 301.232728 144.257605 
L 301.668213 143.950364 
L 302.539185 143.984262 
L 302.97467 143.872472 
L 303.410156 144.285733 
L 303.845641 144.153028 
L 304.281127 143.780155 
L 304.716613 143.940267 
L 305.587584 144.763904 
L 306.02307 144.634084 
L 306.458555 144.948537 
L 306.894041 144.912476 
L 307.765012 145.507485 
L 308.200498 145.499551 
L 308.635984 145.653893 
L 309.071469 145.554364 
L 309.506955 145.97051 
L 310.377926 145.981329 
L 310.813412 145.708706 
L 311.684383 145.744046 
L 312.119869 145.873866 
L 312.555354 146.171732 
L 313.426326 146.155143 
L 315.168268 147.160529 
L 315.603754 147.48003 
L 316.474725 147.494455 
L 316.910211 147.912764 
L 317.345696 147.614899 
L 317.781182 148.044748 
L 318.216668 148.317371 
L 319.087639 149.165529 
L 319.523125 148.879925 
L 319.95861 149.019121 
L 320.394096 148.972241 
L 321.265067 149.731689 
L 322.571524 149.683367 
L 323.442495 149.780732 
L 323.877981 150.14495 
L 326.055409 149.857182 
L 326.490895 149.599705 
L 326.92638 149.610524 
L 327.361866 149.871607 
L 328.668323 150.05047 
L 329.539294 150.12115 
L 329.97478 150.126198 
L 334.329636 152.994503 
L 334.765122 153.031285 
L 335.200608 152.692311 
L 335.636093 152.913726 
L 336.94255 152.814197 
L 337.378036 152.620909 
L 338.249007 153.235392 
L 338.684493 153.176973 
L 339.119978 152.832949 
L 339.555464 153.226016 
L 339.99095 153.24621 
L 340.426435 153.003879 
L 341.297407 153.512341 
L 341.732892 153.728708 
L 342.168378 153.701302 
L 343.039349 154.358336 
L 343.91032 154.258807 
L 344.345806 154.535757 
L 344.781292 154.524939 
L 345.216777 154.215534 
L 345.652263 154.565327 
L 346.087749 154.26025 
L 346.523234 154.713178 
L 346.95872 154.717505 
L 347.394206 154.241498 
L 348.700662 154.430459 
L 349.571634 155.085329 
L 350.007119 155.018977 
L 351.313576 154.180194 
L 351.749062 154.443441 
L 352.184548 154.264577 
L 352.620033 153.902523 
L 353.92649 153.394782 
L 354.361976 153.683992 
L 354.797461 153.673174 
L 355.232947 153.473395 
L 357.410375 153.200052 
L 358.281347 152.653365 
L 359.152318 152.657692 
L 359.587804 152.464404 
L 361.329746 152.349008 
L 362.636203 151.373915 
L 363.507174 152.324487 
L 363.94266 152.488926 
L 364.813631 153.143075 
L 365.249117 153.171203 
L 366.120088 153.679665 
L 366.555574 153.562827 
L 367.426545 153.5585 
L 369.603973 155.088214 
L 370.474945 155.178367 
L 370.91043 154.845883 
L 372.652373 154.794676 
L 373.087858 154.633122 
L 373.523344 154.602831 
L 373.95883 154.232122 
L 374.829801 154.041719 
L 375.265287 154.028737 
L 375.700772 153.748181 
L 376.136258 153.781358 
L 376.571744 153.412091 
L 377.007229 153.715005 
L 377.442715 153.332757 
L 377.8782 153.361606 
L 378.313686 152.957721 
L 379.184657 153.534699 
L 380.055629 154.062635 
L 380.491114 153.754672 
L 380.9266 153.774145 
L 381.797571 153.161106 
L 382.668543 153.078886 
L 383.104028 152.965654 
L 385.716942 154.568212 
L 387.458885 154.444883 
L 387.89437 154.553788 
L 388.765341 154.11889 
L 389.200827 154.154951 
L 389.636313 154.498975 
L 390.071798 154.134036 
L 390.507284 154.035228 
L 390.94277 154.114563 
L 391.813741 154.091484 
L 394.86214 151.743902 
L 395.733112 151.706398 
L 397.475054 150.406754 
L 397.91054 150.383675 
L 398.346026 150.764481 
L 398.781511 150.827227 
L 399.216997 150.382233 
L 400.087968 150.525035 
L 400.523454 150.490416 
L 400.958939 150.336796 
L 401.394425 150.343287 
L 401.829911 150.000706 
L 401.829911 150.000706 
" clip-path="url(#pee044d642e)" style="fill: none; stroke: #9467bd; stroke-opacity: 0.8; stroke-width: 1.5; stroke-linecap: square"/>
   </g>
   <g id="patch_3">
    <path d="M 61.715625 288.430125 
L 61.715625 22.318125 
" style="fill: none; stroke: #000000; stroke-width: 0.8; stroke-linejoin: miter; stroke-linecap: square"/>
   </g>
   <g id="patch_4">
    <path d="M 418.835625 288.430125 
L 418.835625 22.318125 
" style="fill: none; stroke: #000000; stroke-width: 0.8; stroke-linejoin: miter; stroke-linecap: square"/>
   </g>
   <g id="patch_5">
    <path d="M 61.715625 288.430125 
L 418.835625 288.430125 
" style="fill: none; stroke: #000000; stroke-width: 0.8; stroke-linejoin: miter; stroke-linecap: square"/>
   </g>
   <g id="patch_6">
    <path d="M 61.715625 22.318125 
L 418.835625 22.318125 
" style="fill: none; stroke: #000000; stroke-width: 0.8; stroke-linejoin: miter; stroke-linecap: square"/>
   </g>
   <g id="text_17">
    <!-- Get roots -->
    <g transform="translate(212.52375 16.318125) scale(0.12 -0.12)">
     <defs>
      <path id="DejaVuSans-47" d="M 3809 666 
L 3809 1919 
L 2778 1919 
L 2778 2438 
L 4434 2438 
L 4434 434 
Q 4069 175 3628 42 
Q 3188 -91 2688 -91 
Q 1594 -91 976 548 
Q 359 1188 359 2328 
Q 359 3472 976 4111 
Q 1594 4750 2688 4750 
Q 3144 4750 3555 4637 
Q 3966 4525 4313 4306 
L 4313 3634 
Q 3963 3931 3569 4081 
Q 3175 4231 2741 4231 
Q 1884 4231 1454 3753 
Q 1025 3275 1025 2328 
Q 1025 1384 1454 906 
Q 1884 428 2741 428 
Q 3075 428 3337 486 
Q 3600 544 3809 666 
z
" transform="scale(0.015625)"/>
      <path id="DejaVuSans-72" d="M 2631 2963 
Q 2534 3019 2420 3045 
Q 2306 3072 2169 3072 
Q 1681 3072 1420 2755 
Q 1159 2438 1159 1844 
L 1159 0 
L 581 0 
L 581 3500 
L 1159 3500 
L 1159 2956 
Q 1341 3275 1631 3429 
Q 1922 3584 2338 3584 
Q 2397 3584 2469 3576 
Q 2541 3569 2628 3553 
L 2631 2963 
z
" transform="scale(0.015625)"/>
     </defs>
     <use xlink:href="#DejaVuSans-47"/>
     <use xlink:href="#DejaVuSans-65" transform="translate(77.490234 0)"/>
     <use xlink:href="#DejaVuSans-74" transform="translate(139.013672 0)"/>
     <use xlink:href="#DejaVuSans-20" transform="translate(178.222656 0)"/>
     <use xlink:href="#DejaVuSans-72" transform="translate(210.009766 0)"/>
     <use xlink:href="#DejaVuSans-6f" transform="translate(248.873047 0)"/>
     <use xlink:href="#DejaVuSans-6f" transform="translate(310.054688 0)"/>
     <use xlink:href="#DejaVuSans-74" transform="translate(371.236328 0)"/>
     <use xlink:href="#DejaVuSans-73" transform="translate(410.445312 0)"/>
    </g>
   </g>
   <g id="legend_1">
    <g id="patch_7">
     <path d="M 92.717969 365.802375 
L 380.313281 365.802375 
Q 382.313281 365.802375 382.313281 363.802375 
L 382.313281 335.446125 
Q 382.313281 333.446125 380.313281 333.446125 
L 92.717969 333.446125 
Q 90.717969 333.446125 90.717969 335.446125 
L 90.717969 363.802375 
Q 90.717969 365.802375 92.717969 365.802375 
z
" style="fill: #4d4d4d; opacity: 0.5; stroke: #4d4d4d; stroke-linejoin: miter"/>
    </g>
    <g id="patch_8">
     <path d="M 90.717969 363.802375 
L 378.313281 363.802375 
Q 380.313281 363.802375 380.313281 361.802375 
L 380.313281 333.446125 
Q 380.313281 331.446125 378.313281 331.446125 
L 90.717969 331.446125 
Q 88.717969 331.446125 88.717969 333.446125 
L 88.717969 361.802375 
Q 88.717969 363.802375 90.717969 363.802375 
z
" style="fill: #ffffff; stroke: #cccccc; stroke-linejoin: miter"/>
    </g>
    <g id="line2d_20">
     <path d="M 92.717969 339.544562 
L 102.717969 339.544562 
L 112.717969 339.544562 
" style="fill: none; stroke: #1f77b4; stroke-opacity: 0.8; stroke-width: 1.5; stroke-linecap: square"/>
    </g>
    <g id="text_18">
     <!-- MPTT -->
     <g transform="translate(120.717969 343.044562) scale(0.1 -0.1)">
      <defs>
       <path id="DejaVuSans-4d" d="M 628 4666 
L 1569 4666 
L 2759 1491 
L 3956 4666 
L 4897 4666 
L 4897 0 
L 4281 0 
L 4281 4097 
L 3078 897 
L 2444 897 
L 1241 4097 
L 1241 0 
L 628 0 
L 628 4666 
z
" transform="scale(0.015625)"/>
       <path id="DejaVuSans-50" d="M 1259 4147 
L 1259 2394 
L 2053 2394 
Q 2494 2394 2734 2622 
Q 2975 2850 2975 3272 
Q 2975 3691 2734 3919 
Q 2494 4147 2053 4147 
L 1259 4147 
z
M 628 4666 
L 2053 4666 
Q 2838 4666 3239 4311 
Q 3641 3956 3641 3272 
Q 3641 2581 3239 2228 
Q 2838 1875 2053 1875 
L 1259 1875 
L 1259 0 
L 628 0 
L 628 4666 
z
" transform="scale(0.015625)"/>
       <path id="DejaVuSans-54" d="M -19 4666 
L 3928 4666 
L 3928 4134 
L 2272 4134 
L 2272 0 
L 1638 0 
L 1638 4134 
L -19 4134 
L -19 4666 
z
" transform="scale(0.015625)"/>
      </defs>
      <use xlink:href="#DejaVuSans-4d"/>
      <use xlink:href="#DejaVuSans-50" transform="translate(86.279297 0)"/>
      <use xlink:href="#DejaVuSans-54" transform="translate(146.582031 0)"/>
      <use xlink:href="#DejaVuSans-54" transform="translate(205.916016 0)"/>
     </g>
    </g>
    <g id="line2d_21">
     <path d="M 92.717969 354.222687 
L 102.717969 354.222687 
L 112.717969 354.222687 
" style="fill: none; stroke: #ff7f0e; stroke-opacity: 0.8; stroke-width: 1.5; stroke-linecap: square"/>
    </g>
    <g id="text_19">
     <!-- tree -->
     <g transform="translate(120.717969 357.722687) scale(0.1 -0.1)">
      <use xlink:href="#DejaVuSans-74"/>
      <use xlink:href="#DejaVuSans-72" transform="translate(39.208984 0)"/>
      <use xlink:href="#DejaVuSans-65" transform="translate(78.072266 0)"/>
      <use xlink:href="#DejaVuSans-65" transform="translate(139.595703 0)"/>
     </g>
    </g>
    <g id="line2d_22">
     <path d="M 167.416406 339.544562 
L 177.416406 339.544562 
L 187.416406 339.544562 
" style="fill: none; stroke: #2ca02c; stroke-opacity: 0.8; stroke-width: 1.5; stroke-linecap: square"/>
    </g>
    <g id="text_20">
     <!-- treebeard AL -->
     <g transform="translate(195.416406 343.044562) scale(0.1 -0.1)">
      <defs>
       <path id="DejaVuSans-4c" d="M 628 4666 
L 1259 4666 
L 1259 531 
L 3531 531 
L 3531 0 
L 628 0 
L 628 4666 
z
" transform="scale(0.015625)"/>
      </defs>
      <use xlink:href="#DejaVuSans-74"/>
      <use xlink:href="#DejaVuSans-72" transform="translate(39.208984 0)"/>
      <use xlink:href="#DejaVuSans-65" transform="translate(78.072266 0)"/>
      <use xlink:href="#DejaVuSans-65" transform="translate(139.595703 0)"/>
      <use xlink:href="#DejaVuSans-62" transform="translate(201.119141 0)"/>
      <use xlink:href="#DejaVuSans-65" transform="translate(264.595703 0)"/>
      <use xlink:href="#DejaVuSans-61" transform="translate(326.119141 0)"/>
      <use xlink:href="#DejaVuSans-72" transform="translate(387.398438 0)"/>
      <use xlink:href="#DejaVuSans-64" transform="translate(426.761719 0)"/>
      <use xlink:href="#DejaVuSans-20" transform="translate(490.238281 0)"/>
      <use xlink:href="#DejaVuSans-41" transform="translate(522.025391 0)"/>
      <use xlink:href="#DejaVuSans-4c" transform="translate(590.433594 0)"/>
     </g>
    </g>
    <g id="line2d_23">
     <path d="M 167.416406 354.222687 
L 177.416406 354.222687 
L 187.416406 354.222687 
" style="fill: none; stroke: #d62728; stroke-opacity: 0.8; stroke-width: 1.5; stroke-linecap: square"/>
    </g>
    <g id="text_21">
     <!-- treebeard MP -->
     <g transform="translate(195.416406 357.722687) scale(0.1 -0.1)">
      <use xlink:href="#DejaVuSans-74"/>
      <use xlink:href="#DejaVuSans-72" transform="translate(39.208984 0)"/>
      <use xlink:href="#DejaVuSans-65" transform="translate(78.072266 0)"/>
      <use xlink:href="#DejaVuSans-65" transform="translate(139.595703 0)"/>
      <use xlink:href="#DejaVuSans-62" transform="translate(201.119141 0)"/>
      <use xlink:href="#DejaVuSans-65" transform="translate(264.595703 0)"/>
      <use xlink:href="#DejaVuSans-61" transform="translate(326.119141 0)"/>
      <use xlink:href="#DejaVuSans-72" transform="translate(387.398438 0)"/>
      <use xlink:href="#DejaVuSans-64" transform="translate(426.761719 0)"/>
      <use xlink:href="#DejaVuSans-20" transform="translate(490.238281 0)"/>
      <use xlink:href="#DejaVuSans-4d" transform="translate(522.025391 0)"/>
      <use xlink:href="#DejaVuSans-50" transform="translate(608.304688 0)"/>
     </g>
    </g>
    <g id="line2d_24">
     <path d="M 282.278906 339.544562 
L 292.278906 339.544562 
L 302.278906 339.544562 
" style="fill: none; stroke: #9467bd; stroke-opacity: 0.8; stroke-width: 1.5; stroke-linecap: square"/>
    </g>
    <g id="text_22">
     <!-- treebeard NS -->
     <g transform="translate(310.278906 343.044562) scale(0.1 -0.1)">
      <defs>
       <path id="DejaVuSans-4e" d="M 628 4666 
L 1478 4666 
L 3547 763 
L 3547 4666 
L 4159 4666 
L 4159 0 
L 3309 0 
L 1241 3903 
L 1241 0 
L 628 0 
L 628 4666 
z
" transform="scale(0.015625)"/>
       <path id="DejaVuSans-53" d="M 3425 4513 
L 3425 3897 
Q 3066 4069 2747 4153 
Q 2428 4238 2131 4238 
Q 1616 4238 1336 4038 
Q 1056 3838 1056 3469 
Q 1056 3159 1242 3001 
Q 1428 2844 1947 2747 
L 2328 2669 
Q 3034 2534 3370 2195 
Q 3706 1856 3706 1288 
Q 3706 609 3251 259 
Q 2797 -91 1919 -91 
Q 1588 -91 1214 -16 
Q 841 59 441 206 
L 441 856 
Q 825 641 1194 531 
Q 1563 422 1919 422 
Q 2459 422 2753 634 
Q 3047 847 3047 1241 
Q 3047 1584 2836 1778 
Q 2625 1972 2144 2069 
L 1759 2144 
Q 1053 2284 737 2584 
Q 422 2884 422 3419 
Q 422 4038 858 4394 
Q 1294 4750 2059 4750 
Q 2388 4750 2728 4690 
Q 3069 4631 3425 4513 
z
" transform="scale(0.015625)"/>
      </defs>
      <use xlink:href="#DejaVuSans-74"/>
      <use xlink:href="#DejaVuSans-72" transform="translate(39.208984 0)"/>
      <use xlink:href="#DejaVuSans-65" transform="translate(78.072266 0)"/>
      <use xlink:href="#DejaVuSans-65" transform="translate(139.595703 0)"/>
      <use xlink:href="#DejaVuSans-62" transform="translate(201.119141 0)"/>
      <use xlink:href="#DejaVuSans-65" transform="translate(264.595703 0)"/>
      <use xlink:href="#DejaVuSans-61" transform="translate(326.119141 0)"/>
      <use xlink:href="#DejaVuSans-72" transform="translate(387.398438 0)"/>
      <use xlink:href="#DejaVuSans-64" transform="translate(426.761719 0)"/>
      <use xlink:href="#DejaVuSans-20" transform="translate(490.238281 0)"/>
      <use xlink:href="#DejaVuSans-4e" transform="translate(522.025391 0)"/>
      <use xlink:href="#DejaVuSans-53" transform="translate(596.830078 0)"/>
     </g>
    </g>
   </g>
  </g>
 </g>
 <defs>
  <clipPath id="pee044d642e">
   <rect x="61.715625" y="22.318125" width="357.12" height="266.112"/>
  </clipPath>
 </defs>
</svg>
