<?xml version="1.0" encoding="utf-8" standalone="no"?>
<!DOCTYPE svg PUBLIC "-//W3C//DTD SVG 1.1//EN"
  "http://www.w3.org/Graphics/SVG/1.1/DTD/svg11.dtd">
<!-- Created with matplotlib (https://matplotlib.org/) -->
<svg height="371.002375pt" version="1.1" viewBox="0 0 423.05125 371.002375" width="423.05125pt" xmlns="http://www.w3.org/2000/svg" xmlns:xlink="http://www.w3.org/1999/xlink">
 <metadata>
  <rdf:RDF xmlns:cc="http://creativecommons.org/ns#" xmlns:dc="http://purl.org/dc/elements/1.1/" xmlns:rdf="http://www.w3.org/1999/02/22-rdf-syntax-ns#">
   <cc:Work>
    <dc:type rdf:resource="http://purl.org/dc/dcmitype/StillImage"/>
    <dc:date>2023-07-04T16:29:36.580680</dc:date>
    <dc:format>image/svg+xml</dc:format>
    <dc:creator>
     <cc:Agent>
      <dc:title>Matplotlib v3.3.4, https://matplotlib.org/</dc:title>
     </cc:Agent>
    </dc:creator>
   </cc:Work>
  </rdf:RDF>
 </metadata>
 <defs>
  <style type="text/css">*{stroke-linecap:butt;stroke-linejoin:round;}</style>
 </defs>
 <g id="figure_1">
  <g id="patch_1">
   <path d="M 0 371.002375 
L 423.05125 371.002375 
L 423.05125 0 
L 0 0 
z
" style="fill:#ffffff;"/>
  </g>
  <g id="axes_1">
   <g id="patch_2">
    <path d="M 58.73125 288.430125 
L 415.85125 288.430125 
L 415.85125 22.318125 
L 58.73125 22.318125 
z
" style="fill:#ffffff;"/>
   </g>
   <g id="matplotlib.axis_1">
    <g id="xtick_1">
     <g id="line2d_1">
      <defs>
       <path d="M 0 0 
L 0 3.5 
" id="mb0abc67df3" style="stroke:#000000;stroke-width:0.8;"/>
      </defs>
      <g>
       <use style="stroke:#000000;stroke-width:0.8;" x="58.73125" xlink:href="#mb0abc67df3" y="288.430125"/>
      </g>
     </g>
     <g id="text_1">
      <!-- 0 -->
      <g transform="translate(55.55 303.028562)scale(0.1 -0.1)">
       <defs>
        <path d="M 31.78125 66.40625 
Q 24.171875 66.40625 20.328125 58.90625 
Q 16.5 51.421875 16.5 36.375 
Q 16.5 21.390625 20.328125 13.890625 
Q 24.171875 6.390625 31.78125 6.390625 
Q 39.453125 6.390625 43.28125 13.890625 
Q 47.125 21.390625 47.125 36.375 
Q 47.125 51.421875 43.28125 58.90625 
Q 39.453125 66.40625 31.78125 66.40625 
z
M 31.78125 74.21875 
Q 44.046875 74.21875 50.515625 64.515625 
Q 56.984375 54.828125 56.984375 36.375 
Q 56.984375 17.96875 50.515625 8.265625 
Q 44.046875 -1.421875 31.78125 -1.421875 
Q 19.53125 -1.421875 13.0625 8.265625 
Q 6.59375 17.96875 6.59375 36.375 
Q 6.59375 54.828125 13.0625 64.515625 
Q 19.53125 74.21875 31.78125 74.21875 
z
" id="DejaVuSans-48"/>
       </defs>
       <use xlink:href="#DejaVuSans-48"/>
      </g>
     </g>
    </g>
    <g id="xtick_2">
     <g id="line2d_2">
      <g>
       <use style="stroke:#000000;stroke-width:0.8;" x="102.279814" xlink:href="#mb0abc67df3" y="288.430125"/>
      </g>
     </g>
     <g id="text_2">
      <!-- 500  -->
      <g transform="translate(91.147002 303.028562)scale(0.1 -0.1)">
       <defs>
        <path d="M 10.796875 72.90625 
L 49.515625 72.90625 
L 49.515625 64.59375 
L 19.828125 64.59375 
L 19.828125 46.734375 
Q 21.96875 47.46875 24.109375 47.828125 
Q 26.265625 48.1875 28.421875 48.1875 
Q 40.625 48.1875 47.75 41.5 
Q 54.890625 34.8125 54.890625 23.390625 
Q 54.890625 11.625 47.5625 5.09375 
Q 40.234375 -1.421875 26.90625 -1.421875 
Q 22.3125 -1.421875 17.546875 -0.640625 
Q 12.796875 0.140625 7.71875 1.703125 
L 7.71875 11.625 
Q 12.109375 9.234375 16.796875 8.0625 
Q 21.484375 6.890625 26.703125 6.890625 
Q 35.15625 6.890625 40.078125 11.328125 
Q 45.015625 15.765625 45.015625 23.390625 
Q 45.015625 31 40.078125 35.4375 
Q 35.15625 39.890625 26.703125 39.890625 
Q 22.75 39.890625 18.8125 39.015625 
Q 14.890625 38.140625 10.796875 36.28125 
z
" id="DejaVuSans-53"/>
        <path id="DejaVuSans-32"/>
       </defs>
       <use xlink:href="#DejaVuSans-53"/>
       <use x="63.623047" xlink:href="#DejaVuSans-48"/>
       <use x="127.246094" xlink:href="#DejaVuSans-48"/>
       <use x="190.869141" xlink:href="#DejaVuSans-32"/>
      </g>
     </g>
    </g>
    <g id="xtick_3">
     <g id="line2d_3">
      <g>
       <use style="stroke:#000000;stroke-width:0.8;" x="145.828378" xlink:href="#mb0abc67df3" y="288.430125"/>
      </g>
     </g>
     <g id="text_3">
      <!-- 1 k -->
      <g transform="translate(138.162753 303.028562)scale(0.1 -0.1)">
       <defs>
        <path d="M 12.40625 8.296875 
L 28.515625 8.296875 
L 28.515625 63.921875 
L 10.984375 60.40625 
L 10.984375 69.390625 
L 28.421875 72.90625 
L 38.28125 72.90625 
L 38.28125 8.296875 
L 54.390625 8.296875 
L 54.390625 0 
L 12.40625 0 
z
" id="DejaVuSans-49"/>
        <path d="M 9.078125 75.984375 
L 18.109375 75.984375 
L 18.109375 31.109375 
L 44.921875 54.6875 
L 56.390625 54.6875 
L 27.390625 29.109375 
L 57.625 0 
L 45.90625 0 
L 18.109375 26.703125 
L 18.109375 0 
L 9.078125 0 
z
" id="DejaVuSans-107"/>
       </defs>
       <use xlink:href="#DejaVuSans-49"/>
       <use x="63.623047" xlink:href="#DejaVuSans-32"/>
       <use x="95.410156" xlink:href="#DejaVuSans-107"/>
      </g>
     </g>
    </g>
    <g id="xtick_4">
     <g id="line2d_4">
      <g>
       <use style="stroke:#000000;stroke-width:0.8;" x="189.376942" xlink:href="#mb0abc67df3" y="288.430125"/>
      </g>
     </g>
     <g id="text_4">
      <!-- 1.5 k -->
      <g transform="translate(176.941005 303.028562)scale(0.1 -0.1)">
       <defs>
        <path d="M 10.6875 12.40625 
L 21 12.40625 
L 21 0 
L 10.6875 0 
z
" id="DejaVuSans-46"/>
       </defs>
       <use xlink:href="#DejaVuSans-49"/>
       <use x="63.623047" xlink:href="#DejaVuSans-46"/>
       <use x="95.410156" xlink:href="#DejaVuSans-53"/>
       <use x="159.033203" xlink:href="#DejaVuSans-32"/>
       <use x="190.820312" xlink:href="#DejaVuSans-107"/>
      </g>
     </g>
    </g>
    <g id="xtick_5">
     <g id="line2d_5">
      <g>
       <use style="stroke:#000000;stroke-width:0.8;" x="232.925506" xlink:href="#mb0abc67df3" y="288.430125"/>
      </g>
     </g>
     <g id="text_5">
      <!-- 2 k -->
      <g transform="translate(225.259881 303.028562)scale(0.1 -0.1)">
       <defs>
        <path d="M 19.1875 8.296875 
L 53.609375 8.296875 
L 53.609375 0 
L 7.328125 0 
L 7.328125 8.296875 
Q 12.9375 14.109375 22.625 23.890625 
Q 32.328125 33.6875 34.8125 36.53125 
Q 39.546875 41.84375 41.421875 45.53125 
Q 43.3125 49.21875 43.3125 52.78125 
Q 43.3125 58.59375 39.234375 62.25 
Q 35.15625 65.921875 28.609375 65.921875 
Q 23.96875 65.921875 18.8125 64.3125 
Q 13.671875 62.703125 7.8125 59.421875 
L 7.8125 69.390625 
Q 13.765625 71.78125 18.9375 73 
Q 24.125 74.21875 28.421875 74.21875 
Q 39.75 74.21875 46.484375 68.546875 
Q 53.21875 62.890625 53.21875 53.421875 
Q 53.21875 48.921875 51.53125 44.890625 
Q 49.859375 40.875 45.40625 35.40625 
Q 44.1875 33.984375 37.640625 27.21875 
Q 31.109375 20.453125 19.1875 8.296875 
z
" id="DejaVuSans-50"/>
       </defs>
       <use xlink:href="#DejaVuSans-50"/>
       <use x="63.623047" xlink:href="#DejaVuSans-32"/>
       <use x="95.410156" xlink:href="#DejaVuSans-107"/>
      </g>
     </g>
    </g>
    <g id="xtick_6">
     <g id="line2d_6">
      <g>
       <use style="stroke:#000000;stroke-width:0.8;" x="276.474071" xlink:href="#mb0abc67df3" y="288.430125"/>
      </g>
     </g>
     <g id="text_6">
      <!-- 2.5 k -->
      <g transform="translate(264.038133 303.028562)scale(0.1 -0.1)">
       <use xlink:href="#DejaVuSans-50"/>
       <use x="63.623047" xlink:href="#DejaVuSans-46"/>
       <use x="95.410156" xlink:href="#DejaVuSans-53"/>
       <use x="159.033203" xlink:href="#DejaVuSans-32"/>
       <use x="190.820312" xlink:href="#DejaVuSans-107"/>
      </g>
     </g>
    </g>
    <g id="xtick_7">
     <g id="line2d_7">
      <g>
       <use style="stroke:#000000;stroke-width:0.8;" x="320.022635" xlink:href="#mb0abc67df3" y="288.430125"/>
      </g>
     </g>
     <g id="text_7">
      <!-- 3 k -->
      <g transform="translate(312.35701 303.028562)scale(0.1 -0.1)">
       <defs>
        <path d="M 40.578125 39.3125 
Q 47.65625 37.796875 51.625 33 
Q 55.609375 28.21875 55.609375 21.1875 
Q 55.609375 10.40625 48.1875 4.484375 
Q 40.765625 -1.421875 27.09375 -1.421875 
Q 22.515625 -1.421875 17.65625 -0.515625 
Q 12.796875 0.390625 7.625 2.203125 
L 7.625 11.71875 
Q 11.71875 9.328125 16.59375 8.109375 
Q 21.484375 6.890625 26.8125 6.890625 
Q 36.078125 6.890625 40.9375 10.546875 
Q 45.796875 14.203125 45.796875 21.1875 
Q 45.796875 27.640625 41.28125 31.265625 
Q 36.765625 34.90625 28.71875 34.90625 
L 20.21875 34.90625 
L 20.21875 43.015625 
L 29.109375 43.015625 
Q 36.375 43.015625 40.234375 45.921875 
Q 44.09375 48.828125 44.09375 54.296875 
Q 44.09375 59.90625 40.109375 62.90625 
Q 36.140625 65.921875 28.71875 65.921875 
Q 24.65625 65.921875 20.015625 65.03125 
Q 15.375 64.15625 9.8125 62.3125 
L 9.8125 71.09375 
Q 15.4375 72.65625 20.34375 73.4375 
Q 25.25 74.21875 29.59375 74.21875 
Q 40.828125 74.21875 47.359375 69.109375 
Q 53.90625 64.015625 53.90625 55.328125 
Q 53.90625 49.265625 50.4375 45.09375 
Q 46.96875 40.921875 40.578125 39.3125 
z
" id="DejaVuSans-51"/>
       </defs>
       <use xlink:href="#DejaVuSans-51"/>
       <use x="63.623047" xlink:href="#DejaVuSans-32"/>
       <use x="95.410156" xlink:href="#DejaVuSans-107"/>
      </g>
     </g>
    </g>
    <g id="xtick_8">
     <g id="line2d_8">
      <g>
       <use style="stroke:#000000;stroke-width:0.8;" x="363.571199" xlink:href="#mb0abc67df3" y="288.430125"/>
      </g>
     </g>
     <g id="text_8">
      <!-- 3.5 k -->
      <g transform="translate(351.135261 303.028562)scale(0.1 -0.1)">
       <use xlink:href="#DejaVuSans-51"/>
       <use x="63.623047" xlink:href="#DejaVuSans-46"/>
       <use x="95.410156" xlink:href="#DejaVuSans-53"/>
       <use x="159.033203" xlink:href="#DejaVuSans-32"/>
       <use x="190.820312" xlink:href="#DejaVuSans-107"/>
      </g>
     </g>
    </g>
    <g id="xtick_9">
     <g id="line2d_9">
      <g>
       <use style="stroke:#000000;stroke-width:0.8;" x="407.119763" xlink:href="#mb0abc67df3" y="288.430125"/>
      </g>
     </g>
     <g id="text_9">
      <!-- 4 k -->
      <g transform="translate(399.454138 303.028562)scale(0.1 -0.1)">
       <defs>
        <path d="M 37.796875 64.3125 
L 12.890625 25.390625 
L 37.796875 25.390625 
z
M 35.203125 72.90625 
L 47.609375 72.90625 
L 47.609375 25.390625 
L 58.015625 25.390625 
L 58.015625 17.1875 
L 47.609375 17.1875 
L 47.609375 0 
L 37.796875 0 
L 37.796875 17.1875 
L 4.890625 17.1875 
L 4.890625 26.703125 
z
" id="DejaVuSans-52"/>
       </defs>
       <use xlink:href="#DejaVuSans-52"/>
       <use x="63.623047" xlink:href="#DejaVuSans-32"/>
       <use x="95.410156" xlink:href="#DejaVuSans-107"/>
      </g>
     </g>
    </g>
    <g id="text_10">
     <!-- Amount of objects in table -->
     <g transform="translate(171.232656 316.706687)scale(0.1 -0.1)">
      <defs>
       <path d="M 34.1875 63.1875 
L 20.796875 26.90625 
L 47.609375 26.90625 
z
M 28.609375 72.90625 
L 39.796875 72.90625 
L 67.578125 0 
L 57.328125 0 
L 50.6875 18.703125 
L 17.828125 18.703125 
L 11.1875 0 
L 0.78125 0 
z
" id="DejaVuSans-65"/>
       <path d="M 52 44.1875 
Q 55.375 50.25 60.0625 53.125 
Q 64.75 56 71.09375 56 
Q 79.640625 56 84.28125 50.015625 
Q 88.921875 44.046875 88.921875 33.015625 
L 88.921875 0 
L 79.890625 0 
L 79.890625 32.71875 
Q 79.890625 40.578125 77.09375 44.375 
Q 74.3125 48.1875 68.609375 48.1875 
Q 61.625 48.1875 57.5625 43.546875 
Q 53.515625 38.921875 53.515625 30.90625 
L 53.515625 0 
L 44.484375 0 
L 44.484375 32.71875 
Q 44.484375 40.625 41.703125 44.40625 
Q 38.921875 48.1875 33.109375 48.1875 
Q 26.21875 48.1875 22.15625 43.53125 
Q 18.109375 38.875 18.109375 30.90625 
L 18.109375 0 
L 9.078125 0 
L 9.078125 54.6875 
L 18.109375 54.6875 
L 18.109375 46.1875 
Q 21.1875 51.21875 25.484375 53.609375 
Q 29.78125 56 35.6875 56 
Q 41.65625 56 45.828125 52.96875 
Q 50 49.953125 52 44.1875 
z
" id="DejaVuSans-109"/>
       <path d="M 30.609375 48.390625 
Q 23.390625 48.390625 19.1875 42.75 
Q 14.984375 37.109375 14.984375 27.296875 
Q 14.984375 17.484375 19.15625 11.84375 
Q 23.34375 6.203125 30.609375 6.203125 
Q 37.796875 6.203125 41.984375 11.859375 
Q 46.1875 17.53125 46.1875 27.296875 
Q 46.1875 37.015625 41.984375 42.703125 
Q 37.796875 48.390625 30.609375 48.390625 
z
M 30.609375 56 
Q 42.328125 56 49.015625 48.375 
Q 55.71875 40.765625 55.71875 27.296875 
Q 55.71875 13.875 49.015625 6.21875 
Q 42.328125 -1.421875 30.609375 -1.421875 
Q 18.84375 -1.421875 12.171875 6.21875 
Q 5.515625 13.875 5.515625 27.296875 
Q 5.515625 40.765625 12.171875 48.375 
Q 18.84375 56 30.609375 56 
z
" id="DejaVuSans-111"/>
       <path d="M 8.5 21.578125 
L 8.5 54.6875 
L 17.484375 54.6875 
L 17.484375 21.921875 
Q 17.484375 14.15625 20.5 10.265625 
Q 23.53125 6.390625 29.59375 6.390625 
Q 36.859375 6.390625 41.078125 11.03125 
Q 45.3125 15.671875 45.3125 23.6875 
L 45.3125 54.6875 
L 54.296875 54.6875 
L 54.296875 0 
L 45.3125 0 
L 45.3125 8.40625 
Q 42.046875 3.421875 37.71875 1 
Q 33.40625 -1.421875 27.6875 -1.421875 
Q 18.265625 -1.421875 13.375 4.4375 
Q 8.5 10.296875 8.5 21.578125 
z
M 31.109375 56 
z
" id="DejaVuSans-117"/>
       <path d="M 54.890625 33.015625 
L 54.890625 0 
L 45.90625 0 
L 45.90625 32.71875 
Q 45.90625 40.484375 42.875 44.328125 
Q 39.84375 48.1875 33.796875 48.1875 
Q 26.515625 48.1875 22.3125 43.546875 
Q 18.109375 38.921875 18.109375 30.90625 
L 18.109375 0 
L 9.078125 0 
L 9.078125 54.6875 
L 18.109375 54.6875 
L 18.109375 46.1875 
Q 21.34375 51.125 25.703125 53.5625 
Q 30.078125 56 35.796875 56 
Q 45.21875 56 50.046875 50.171875 
Q 54.890625 44.34375 54.890625 33.015625 
z
" id="DejaVuSans-110"/>
       <path d="M 18.3125 70.21875 
L 18.3125 54.6875 
L 36.8125 54.6875 
L 36.8125 47.703125 
L 18.3125 47.703125 
L 18.3125 18.015625 
Q 18.3125 11.328125 20.140625 9.421875 
Q 21.96875 7.515625 27.59375 7.515625 
L 36.8125 7.515625 
L 36.8125 0 
L 27.59375 0 
Q 17.1875 0 13.234375 3.875 
Q 9.28125 7.765625 9.28125 18.015625 
L 9.28125 47.703125 
L 2.6875 47.703125 
L 2.6875 54.6875 
L 9.28125 54.6875 
L 9.28125 70.21875 
z
" id="DejaVuSans-116"/>
       <path d="M 37.109375 75.984375 
L 37.109375 68.5 
L 28.515625 68.5 
Q 23.6875 68.5 21.796875 66.546875 
Q 19.921875 64.59375 19.921875 59.515625 
L 19.921875 54.6875 
L 34.71875 54.6875 
L 34.71875 47.703125 
L 19.921875 47.703125 
L 19.921875 0 
L 10.890625 0 
L 10.890625 47.703125 
L 2.296875 47.703125 
L 2.296875 54.6875 
L 10.890625 54.6875 
L 10.890625 58.5 
Q 10.890625 67.625 15.140625 71.796875 
Q 19.390625 75.984375 28.609375 75.984375 
z
" id="DejaVuSans-102"/>
       <path d="M 48.6875 27.296875 
Q 48.6875 37.203125 44.609375 42.84375 
Q 40.53125 48.484375 33.40625 48.484375 
Q 26.265625 48.484375 22.1875 42.84375 
Q 18.109375 37.203125 18.109375 27.296875 
Q 18.109375 17.390625 22.1875 11.75 
Q 26.265625 6.109375 33.40625 6.109375 
Q 40.53125 6.109375 44.609375 11.75 
Q 48.6875 17.390625 48.6875 27.296875 
z
M 18.109375 46.390625 
Q 20.953125 51.265625 25.265625 53.625 
Q 29.59375 56 35.59375 56 
Q 45.5625 56 51.78125 48.09375 
Q 58.015625 40.1875 58.015625 27.296875 
Q 58.015625 14.40625 51.78125 6.484375 
Q 45.5625 -1.421875 35.59375 -1.421875 
Q 29.59375 -1.421875 25.265625 0.953125 
Q 20.953125 3.328125 18.109375 8.203125 
L 18.109375 0 
L 9.078125 0 
L 9.078125 75.984375 
L 18.109375 75.984375 
z
" id="DejaVuSans-98"/>
       <path d="M 9.421875 54.6875 
L 18.40625 54.6875 
L 18.40625 -0.984375 
Q 18.40625 -11.421875 14.421875 -16.109375 
Q 10.453125 -20.796875 1.609375 -20.796875 
L -1.8125 -20.796875 
L -1.8125 -13.1875 
L 0.59375 -13.1875 
Q 5.71875 -13.1875 7.5625 -10.8125 
Q 9.421875 -8.453125 9.421875 -0.984375 
z
M 9.421875 75.984375 
L 18.40625 75.984375 
L 18.40625 64.59375 
L 9.421875 64.59375 
z
" id="DejaVuSans-106"/>
       <path d="M 56.203125 29.59375 
L 56.203125 25.203125 
L 14.890625 25.203125 
Q 15.484375 15.921875 20.484375 11.0625 
Q 25.484375 6.203125 34.421875 6.203125 
Q 39.59375 6.203125 44.453125 7.46875 
Q 49.3125 8.734375 54.109375 11.28125 
L 54.109375 2.78125 
Q 49.265625 0.734375 44.1875 -0.34375 
Q 39.109375 -1.421875 33.890625 -1.421875 
Q 20.796875 -1.421875 13.15625 6.1875 
Q 5.515625 13.8125 5.515625 26.8125 
Q 5.515625 40.234375 12.765625 48.109375 
Q 20.015625 56 32.328125 56 
Q 43.359375 56 49.78125 48.890625 
Q 56.203125 41.796875 56.203125 29.59375 
z
M 47.21875 32.234375 
Q 47.125 39.59375 43.09375 43.984375 
Q 39.0625 48.390625 32.421875 48.390625 
Q 24.90625 48.390625 20.390625 44.140625 
Q 15.875 39.890625 15.1875 32.171875 
z
" id="DejaVuSans-101"/>
       <path d="M 48.78125 52.59375 
L 48.78125 44.1875 
Q 44.96875 46.296875 41.140625 47.34375 
Q 37.3125 48.390625 33.40625 48.390625 
Q 24.65625 48.390625 19.8125 42.84375 
Q 14.984375 37.3125 14.984375 27.296875 
Q 14.984375 17.28125 19.8125 11.734375 
Q 24.65625 6.203125 33.40625 6.203125 
Q 37.3125 6.203125 41.140625 7.25 
Q 44.96875 8.296875 48.78125 10.40625 
L 48.78125 2.09375 
Q 45.015625 0.34375 40.984375 -0.53125 
Q 36.96875 -1.421875 32.421875 -1.421875 
Q 20.0625 -1.421875 12.78125 6.34375 
Q 5.515625 14.109375 5.515625 27.296875 
Q 5.515625 40.671875 12.859375 48.328125 
Q 20.21875 56 33.015625 56 
Q 37.15625 56 41.109375 55.140625 
Q 45.0625 54.296875 48.78125 52.59375 
z
" id="DejaVuSans-99"/>
       <path d="M 44.28125 53.078125 
L 44.28125 44.578125 
Q 40.484375 46.53125 36.375 47.5 
Q 32.28125 48.484375 27.875 48.484375 
Q 21.1875 48.484375 17.84375 46.4375 
Q 14.5 44.390625 14.5 40.28125 
Q 14.5 37.15625 16.890625 35.375 
Q 19.28125 33.59375 26.515625 31.984375 
L 29.59375 31.296875 
Q 39.15625 29.25 43.1875 25.515625 
Q 47.21875 21.78125 47.21875 15.09375 
Q 47.21875 7.46875 41.1875 3.015625 
Q 35.15625 -1.421875 24.609375 -1.421875 
Q 20.21875 -1.421875 15.453125 -0.5625 
Q 10.6875 0.296875 5.421875 2 
L 5.421875 11.28125 
Q 10.40625 8.6875 15.234375 7.390625 
Q 20.0625 6.109375 24.8125 6.109375 
Q 31.15625 6.109375 34.5625 8.28125 
Q 37.984375 10.453125 37.984375 14.40625 
Q 37.984375 18.0625 35.515625 20.015625 
Q 33.0625 21.96875 24.703125 23.78125 
L 21.578125 24.515625 
Q 13.234375 26.265625 9.515625 29.90625 
Q 5.8125 33.546875 5.8125 39.890625 
Q 5.8125 47.609375 11.28125 51.796875 
Q 16.75 56 26.8125 56 
Q 31.78125 56 36.171875 55.265625 
Q 40.578125 54.546875 44.28125 53.078125 
z
" id="DejaVuSans-115"/>
       <path d="M 9.421875 54.6875 
L 18.40625 54.6875 
L 18.40625 0 
L 9.421875 0 
z
M 9.421875 75.984375 
L 18.40625 75.984375 
L 18.40625 64.59375 
L 9.421875 64.59375 
z
" id="DejaVuSans-105"/>
       <path d="M 34.28125 27.484375 
Q 23.390625 27.484375 19.1875 25 
Q 14.984375 22.515625 14.984375 16.5 
Q 14.984375 11.71875 18.140625 8.90625 
Q 21.296875 6.109375 26.703125 6.109375 
Q 34.1875 6.109375 38.703125 11.40625 
Q 43.21875 16.703125 43.21875 25.484375 
L 43.21875 27.484375 
z
M 52.203125 31.203125 
L 52.203125 0 
L 43.21875 0 
L 43.21875 8.296875 
Q 40.140625 3.328125 35.546875 0.953125 
Q 30.953125 -1.421875 24.3125 -1.421875 
Q 15.921875 -1.421875 10.953125 3.296875 
Q 6 8.015625 6 15.921875 
Q 6 25.140625 12.171875 29.828125 
Q 18.359375 34.515625 30.609375 34.515625 
L 43.21875 34.515625 
L 43.21875 35.40625 
Q 43.21875 41.609375 39.140625 45 
Q 35.0625 48.390625 27.6875 48.390625 
Q 23 48.390625 18.546875 47.265625 
Q 14.109375 46.140625 10.015625 43.890625 
L 10.015625 52.203125 
Q 14.9375 54.109375 19.578125 55.046875 
Q 24.21875 56 28.609375 56 
Q 40.484375 56 46.34375 49.84375 
Q 52.203125 43.703125 52.203125 31.203125 
z
" id="DejaVuSans-97"/>
       <path d="M 9.421875 75.984375 
L 18.40625 75.984375 
L 18.40625 0 
L 9.421875 0 
z
" id="DejaVuSans-108"/>
      </defs>
      <use xlink:href="#DejaVuSans-65"/>
      <use x="68.408203" xlink:href="#DejaVuSans-109"/>
      <use x="165.820312" xlink:href="#DejaVuSans-111"/>
      <use x="227.001953" xlink:href="#DejaVuSans-117"/>
      <use x="290.380859" xlink:href="#DejaVuSans-110"/>
      <use x="353.759766" xlink:href="#DejaVuSans-116"/>
      <use x="392.96875" xlink:href="#DejaVuSans-32"/>
      <use x="424.755859" xlink:href="#DejaVuSans-111"/>
      <use x="485.9375" xlink:href="#DejaVuSans-102"/>
      <use x="521.142578" xlink:href="#DejaVuSans-32"/>
      <use x="552.929688" xlink:href="#DejaVuSans-111"/>
      <use x="614.111328" xlink:href="#DejaVuSans-98"/>
      <use x="677.587891" xlink:href="#DejaVuSans-106"/>
      <use x="705.371094" xlink:href="#DejaVuSans-101"/>
      <use x="766.894531" xlink:href="#DejaVuSans-99"/>
      <use x="821.875" xlink:href="#DejaVuSans-116"/>
      <use x="861.083984" xlink:href="#DejaVuSans-115"/>
      <use x="913.183594" xlink:href="#DejaVuSans-32"/>
      <use x="944.970703" xlink:href="#DejaVuSans-105"/>
      <use x="972.753906" xlink:href="#DejaVuSans-110"/>
      <use x="1036.132812" xlink:href="#DejaVuSans-32"/>
      <use x="1067.919922" xlink:href="#DejaVuSans-116"/>
      <use x="1107.128906" xlink:href="#DejaVuSans-97"/>
      <use x="1168.408203" xlink:href="#DejaVuSans-98"/>
      <use x="1231.884766" xlink:href="#DejaVuSans-108"/>
      <use x="1259.667969" xlink:href="#DejaVuSans-101"/>
     </g>
    </g>
   </g>
   <g id="matplotlib.axis_2">
    <g id="ytick_1">
     <g id="line2d_10">
      <defs>
       <path d="M 0 0 
L -3.5 0 
" id="m06c216ab37" style="stroke:#000000;stroke-width:0.8;"/>
      </defs>
      <g>
       <use style="stroke:#000000;stroke-width:0.8;" x="58.73125" xlink:href="#m06c216ab37" y="288.430125"/>
      </g>
     </g>
     <g id="text_11">
      <!-- 0 -->
      <g transform="translate(45.36875 292.229344)scale(0.1 -0.1)">
       <use xlink:href="#DejaVuSans-48"/>
      </g>
     </g>
    </g>
    <g id="ytick_2">
     <g id="line2d_11">
      <g>
       <use style="stroke:#000000;stroke-width:0.8;" x="58.73125" xlink:href="#m06c216ab37" y="254.715144"/>
      </g>
     </g>
     <g id="text_12">
      <!-- 10 ms -->
      <g transform="translate(20.878125 258.514362)scale(0.1 -0.1)">
       <use xlink:href="#DejaVuSans-49"/>
       <use x="63.623047" xlink:href="#DejaVuSans-48"/>
       <use x="127.246094" xlink:href="#DejaVuSans-32"/>
       <use x="159.033203" xlink:href="#DejaVuSans-109"/>
       <use x="256.445312" xlink:href="#DejaVuSans-115"/>
      </g>
     </g>
    </g>
    <g id="ytick_3">
     <g id="line2d_12">
      <g>
       <use style="stroke:#000000;stroke-width:0.8;" x="58.73125" xlink:href="#m06c216ab37" y="221.000162"/>
      </g>
     </g>
     <g id="text_13">
      <!-- 20 ms -->
      <g transform="translate(20.878125 224.799381)scale(0.1 -0.1)">
       <use xlink:href="#DejaVuSans-50"/>
       <use x="63.623047" xlink:href="#DejaVuSans-48"/>
       <use x="127.246094" xlink:href="#DejaVuSans-32"/>
       <use x="159.033203" xlink:href="#DejaVuSans-109"/>
       <use x="256.445312" xlink:href="#DejaVuSans-115"/>
      </g>
     </g>
    </g>
    <g id="ytick_4">
     <g id="line2d_13">
      <g>
       <use style="stroke:#000000;stroke-width:0.8;" x="58.73125" xlink:href="#m06c216ab37" y="187.285181"/>
      </g>
     </g>
     <g id="text_14">
      <!-- 30 ms -->
      <g transform="translate(20.878125 191.084399)scale(0.1 -0.1)">
       <use xlink:href="#DejaVuSans-51"/>
       <use x="63.623047" xlink:href="#DejaVuSans-48"/>
       <use x="127.246094" xlink:href="#DejaVuSans-32"/>
       <use x="159.033203" xlink:href="#DejaVuSans-109"/>
       <use x="256.445312" xlink:href="#DejaVuSans-115"/>
      </g>
     </g>
    </g>
    <g id="ytick_5">
     <g id="line2d_14">
      <g>
       <use style="stroke:#000000;stroke-width:0.8;" x="58.73125" xlink:href="#m06c216ab37" y="153.570199"/>
      </g>
     </g>
     <g id="text_15">
      <!-- 40 ms -->
      <g transform="translate(20.878125 157.369418)scale(0.1 -0.1)">
       <use xlink:href="#DejaVuSans-52"/>
       <use x="63.623047" xlink:href="#DejaVuSans-48"/>
       <use x="127.246094" xlink:href="#DejaVuSans-32"/>
       <use x="159.033203" xlink:href="#DejaVuSans-109"/>
       <use x="256.445312" xlink:href="#DejaVuSans-115"/>
      </g>
     </g>
    </g>
    <g id="ytick_6">
     <g id="line2d_15">
      <g>
       <use style="stroke:#000000;stroke-width:0.8;" x="58.73125" xlink:href="#m06c216ab37" y="119.855218"/>
      </g>
     </g>
     <g id="text_16">
      <!-- 50 ms -->
      <g transform="translate(20.878125 123.654436)scale(0.1 -0.1)">
       <use xlink:href="#DejaVuSans-53"/>
       <use x="63.623047" xlink:href="#DejaVuSans-48"/>
       <use x="127.246094" xlink:href="#DejaVuSans-32"/>
       <use x="159.033203" xlink:href="#DejaVuSans-109"/>
       <use x="256.445312" xlink:href="#DejaVuSans-115"/>
      </g>
     </g>
    </g>
    <g id="ytick_7">
     <g id="line2d_16">
      <g>
       <use style="stroke:#000000;stroke-width:0.8;" x="58.73125" xlink:href="#m06c216ab37" y="86.140236"/>
      </g>
     </g>
     <g id="text_17">
      <!-- 60 ms -->
      <g transform="translate(20.878125 89.939455)scale(0.1 -0.1)">
       <defs>
        <path d="M 33.015625 40.375 
Q 26.375 40.375 22.484375 35.828125 
Q 18.609375 31.296875 18.609375 23.390625 
Q 18.609375 15.53125 22.484375 10.953125 
Q 26.375 6.390625 33.015625 6.390625 
Q 39.65625 6.390625 43.53125 10.953125 
Q 47.40625 15.53125 47.40625 23.390625 
Q 47.40625 31.296875 43.53125 35.828125 
Q 39.65625 40.375 33.015625 40.375 
z
M 52.59375 71.296875 
L 52.59375 62.3125 
Q 48.875 64.0625 45.09375 64.984375 
Q 41.3125 65.921875 37.59375 65.921875 
Q 27.828125 65.921875 22.671875 59.328125 
Q 17.53125 52.734375 16.796875 39.40625 
Q 19.671875 43.65625 24.015625 45.921875 
Q 28.375 48.1875 33.59375 48.1875 
Q 44.578125 48.1875 50.953125 41.515625 
Q 57.328125 34.859375 57.328125 23.390625 
Q 57.328125 12.15625 50.6875 5.359375 
Q 44.046875 -1.421875 33.015625 -1.421875 
Q 20.359375 -1.421875 13.671875 8.265625 
Q 6.984375 17.96875 6.984375 36.375 
Q 6.984375 53.65625 15.1875 63.9375 
Q 23.390625 74.21875 37.203125 74.21875 
Q 40.921875 74.21875 44.703125 73.484375 
Q 48.484375 72.75 52.59375 71.296875 
z
" id="DejaVuSans-54"/>
       </defs>
       <use xlink:href="#DejaVuSans-54"/>
       <use x="63.623047" xlink:href="#DejaVuSans-48"/>
       <use x="127.246094" xlink:href="#DejaVuSans-32"/>
       <use x="159.033203" xlink:href="#DejaVuSans-109"/>
       <use x="256.445312" xlink:href="#DejaVuSans-115"/>
      </g>
     </g>
    </g>
    <g id="ytick_8">
     <g id="line2d_17">
      <g>
       <use style="stroke:#000000;stroke-width:0.8;" x="58.73125" xlink:href="#m06c216ab37" y="52.425255"/>
      </g>
     </g>
     <g id="text_18">
      <!-- 70 ms -->
      <g transform="translate(20.878125 56.224473)scale(0.1 -0.1)">
       <defs>
        <path d="M 8.203125 72.90625 
L 55.078125 72.90625 
L 55.078125 68.703125 
L 28.609375 0 
L 18.3125 0 
L 43.21875 64.59375 
L 8.203125 64.59375 
z
" id="DejaVuSans-55"/>
       </defs>
       <use xlink:href="#DejaVuSans-55"/>
       <use x="63.623047" xlink:href="#DejaVuSans-48"/>
       <use x="127.246094" xlink:href="#DejaVuSans-32"/>
       <use x="159.033203" xlink:href="#DejaVuSans-109"/>
       <use x="256.445312" xlink:href="#DejaVuSans-115"/>
      </g>
     </g>
    </g>
    <g id="text_19">
     <!-- Write latency (s) -->
     <g transform="translate(14.798437 196.625687)rotate(-90)scale(0.1 -0.1)">
      <defs>
       <path d="M 3.328125 72.90625 
L 13.28125 72.90625 
L 28.609375 11.28125 
L 43.890625 72.90625 
L 54.984375 72.90625 
L 70.3125 11.28125 
L 85.59375 72.90625 
L 95.609375 72.90625 
L 77.296875 0 
L 64.890625 0 
L 49.515625 63.28125 
L 33.984375 0 
L 21.578125 0 
z
" id="DejaVuSans-87"/>
       <path d="M 41.109375 46.296875 
Q 39.59375 47.171875 37.8125 47.578125 
Q 36.03125 48 33.890625 48 
Q 26.265625 48 22.1875 43.046875 
Q 18.109375 38.09375 18.109375 28.8125 
L 18.109375 0 
L 9.078125 0 
L 9.078125 54.6875 
L 18.109375 54.6875 
L 18.109375 46.1875 
Q 20.953125 51.171875 25.484375 53.578125 
Q 30.03125 56 36.53125 56 
Q 37.453125 56 38.578125 55.875 
Q 39.703125 55.765625 41.0625 55.515625 
z
" id="DejaVuSans-114"/>
       <path d="M 32.171875 -5.078125 
Q 28.375 -14.84375 24.75 -17.8125 
Q 21.140625 -20.796875 15.09375 -20.796875 
L 7.90625 -20.796875 
L 7.90625 -13.28125 
L 13.1875 -13.28125 
Q 16.890625 -13.28125 18.9375 -11.515625 
Q 21 -9.765625 23.484375 -3.21875 
L 25.09375 0.875 
L 2.984375 54.6875 
L 12.5 54.6875 
L 29.59375 11.921875 
L 46.6875 54.6875 
L 56.203125 54.6875 
z
" id="DejaVuSans-121"/>
       <path d="M 31 75.875 
Q 24.46875 64.65625 21.28125 53.65625 
Q 18.109375 42.671875 18.109375 31.390625 
Q 18.109375 20.125 21.3125 9.0625 
Q 24.515625 -2 31 -13.1875 
L 23.1875 -13.1875 
Q 15.875 -1.703125 12.234375 9.375 
Q 8.59375 20.453125 8.59375 31.390625 
Q 8.59375 42.28125 12.203125 53.3125 
Q 15.828125 64.359375 23.1875 75.875 
z
" id="DejaVuSans-40"/>
       <path d="M 8.015625 75.875 
L 15.828125 75.875 
Q 23.140625 64.359375 26.78125 53.3125 
Q 30.421875 42.28125 30.421875 31.390625 
Q 30.421875 20.453125 26.78125 9.375 
Q 23.140625 -1.703125 15.828125 -13.1875 
L 8.015625 -13.1875 
Q 14.5 -2 17.703125 9.0625 
Q 20.90625 20.125 20.90625 31.390625 
Q 20.90625 42.671875 17.703125 53.65625 
Q 14.5 64.65625 8.015625 75.875 
z
" id="DejaVuSans-41"/>
      </defs>
      <use xlink:href="#DejaVuSans-87"/>
      <use x="94.376953" xlink:href="#DejaVuSans-114"/>
      <use x="135.490234" xlink:href="#DejaVuSans-105"/>
      <use x="163.273438" xlink:href="#DejaVuSans-116"/>
      <use x="202.482422" xlink:href="#DejaVuSans-101"/>
      <use x="264.005859" xlink:href="#DejaVuSans-32"/>
      <use x="295.792969" xlink:href="#DejaVuSans-108"/>
      <use x="323.576172" xlink:href="#DejaVuSans-97"/>
      <use x="384.855469" xlink:href="#DejaVuSans-116"/>
      <use x="424.064453" xlink:href="#DejaVuSans-101"/>
      <use x="485.587891" xlink:href="#DejaVuSans-110"/>
      <use x="548.966797" xlink:href="#DejaVuSans-99"/>
      <use x="603.947266" xlink:href="#DejaVuSans-121"/>
      <use x="663.126953" xlink:href="#DejaVuSans-32"/>
      <use x="694.914062" xlink:href="#DejaVuSans-40"/>
      <use x="733.927734" xlink:href="#DejaVuSans-115"/>
      <use x="786.027344" xlink:href="#DejaVuSans-41"/>
     </g>
    </g>
   </g>
   <g id="line2d_18">
    <path clip-path="url(#pb6c5128ab9)" d="M 212.022196 121.911508 
L 212.457681 121.550874 
L 212.893167 121.394915 
L 213.328653 121.096909 
L 213.764138 121.421717 
L 215.506081 120.815755 
L 215.941566 120.258838 
L 216.812538 119.577481 
L 217.248023 119.385947 
L 217.683509 119.598129 
L 218.989966 119.25062 
L 219.425452 119.442355 
L 220.296423 119.319942 
L 221.167394 118.864733 
L 221.60288 119.424502 
L 224.215794 119.264194 
L 224.651279 119.040891 
L 225.086765 118.999755 
L 225.957736 119.39683 
L 226.393222 119.357533 
L 226.828707 119.100988 
L 227.264193 119.087245 
L 229.006136 119.930221 
L 229.441621 120.342622 
L 230.312593 120.108188 
L 230.748078 120.43587 
L 231.61905 120.346241 
L 232.925506 119.9994 
L 233.360992 120.074024 
L 233.796478 120.308527 
L 234.231963 120.286082 
L 234.667449 120.499162 
L 235.53842 120.40645 
L 236.409392 120.463732 
L 237.280363 120.275261 
L 237.715849 120.223457 
L 238.58682 119.871562 
L 239.457791 119.172422 
L 239.893277 119.493664 
L 240.764248 119.437499 
L 241.199734 119.408924 
L 241.635219 119.54588 
L 242.070705 119.196421 
L 242.506191 118.357365 
L 242.941676 117.839399 
L 243.812647 118.109559 
L 244.248133 118.499816 
L 244.683619 118.724442 
L 245.119104 118.605373 
L 245.55459 118.674452 
L 246.425561 118.19385 
L 247.296533 118.6275 
L 248.167504 118.210734 
L 249.038475 118.269022 
L 249.473961 118.352171 
L 249.909446 118.681184 
L 250.344932 118.788398 
L 251.215903 118.594239 
L 251.651389 118.125236 
L 252.086875 118.069145 
L 252.52236 117.723301 
L 252.957846 117.219174 
L 254.264303 116.89636 
L 254.699789 117.068767 
L 255.135274 116.893763 
L 255.57076 116.886212 
L 256.006245 116.507971 
L 256.441731 116.955897 
L 256.877217 116.563728 
L 257.312702 115.994429 
L 257.748188 115.823613 
L 258.183674 115.784155 
L 258.619159 115.89569 
L 259.054645 115.594081 
L 259.490131 115.585511 
L 259.925616 115.451668 
L 260.361102 115.042556 
L 260.796587 115.048233 
L 261.232073 114.68846 
L 261.667559 114.756612 
L 262.53853 114.398191 
L 263.409501 114.442245 
L 263.844987 114.262229 
L 264.280473 113.939531 
L 264.715958 113.857623 
L 265.151444 113.639366 
L 265.58693 113.606215 
L 266.022415 113.986203 
L 266.457901 114.048836 
L 266.893386 113.928694 
L 267.764358 114.696601 
L 268.199843 114.205001 
L 268.635329 114.039387 
L 269.070815 114.173536 
L 271.248243 113.998726 
L 271.683729 114.130855 
L 272.5547 114.795451 
L 272.990185 114.899693 
L 274.296642 114.802649 
L 274.732128 114.563496 
L 275.167614 114.469938 
L 275.603099 114.586258 
L 276.474071 114.271022 
L 276.909556 114.644064 
L 277.345042 114.329932 
L 277.780527 114.24412 
L 278.216013 114.357794 
L 278.651499 113.991533 
L 279.52247 114.336375 
L 280.393441 113.396263 
L 280.828927 113.481218 
L 281.264413 113.292421 
L 281.699898 112.927665 
L 282.135384 112.788767 
L 282.57087 112.283654 
L 283.441841 112.015188 
L 283.877326 112.03314 
L 285.619269 111.343551 
L 286.925726 110.089732 
L 288.232183 109.399483 
L 288.667669 109.389866 
L 289.103154 109.216441 
L 289.974125 109.175339 
L 290.409611 108.62759 
L 290.845097 108.33118 
L 291.280582 108.288556 
L 292.151554 108.017703 
L 293.022525 107.999714 
L 293.458011 107.88078 
L 293.893496 107.510467 
L 294.328982 106.894789 
L 294.764467 106.495319 
L 295.199953 106.480492 
L 295.635439 106.676885 
L 296.070924 106.614747 
L 296.50641 106.210459 
L 296.941896 105.995969 
L 298.248353 106.048432 
L 298.683838 105.526406 
L 299.990295 105.107826 
L 300.425781 104.75166 
L 300.861266 104.873327 
L 301.296752 104.780281 
L 301.732238 104.852336 
L 302.167723 104.771912 
L 302.603209 104.442809 
L 303.038695 104.491739 
L 303.909666 104.061419 
L 304.345152 103.532328 
L 305.216123 103.311221 
L 305.651609 103.623968 
L 306.087094 103.558215 
L 306.958065 103.104287 
L 309.135494 102.771861 
L 309.570979 103.216605 
L 310.006465 103.406695 
L 311.312922 102.97901 
L 311.748407 103.321993 
L 313.054864 103.354389 
L 313.49035 103.557823 
L 314.361321 103.254578 
L 314.796807 102.960179 
L 316.103264 102.643636 
L 316.53875 102.844391 
L 317.845206 102.989212 
L 318.280692 103.33757 
L 319.151663 102.948394 
L 319.587149 103.031906 
L 320.022635 102.931349 
L 320.45812 102.558319 
L 320.893606 101.858226 
L 321.329092 101.60155 
L 321.764577 101.699159 
L 322.200063 101.356572 
L 322.635549 101.273905 
L 323.50652 101.431287 
L 323.942005 101.994687 
L 324.377491 102.174992 
L 324.812977 102.012504 
L 325.248462 101.972308 
L 326.119434 102.397537 
L 326.554919 102.515457 
L 326.990405 102.402298 
L 327.861376 103.430427 
L 328.296862 103.266759 
L 328.732347 103.226164 
L 329.167833 102.324475 
L 329.603319 102.323894 
L 330.038804 102.69499 
L 330.47429 102.812436 
L 330.909776 103.2093 
L 331.345261 103.007379 
L 331.780747 102.279886 
L 332.216233 102.092062 
L 332.651718 102.046409 
L 333.52269 101.587093 
L 333.958175 100.823626 
L 334.393661 100.756261 
L 335.264632 100.10387 
L 336.135603 100.328855 
L 336.571089 100.406979 
L 337.877546 99.384321 
L 338.313032 99.539484 
L 338.748517 99.439859 
L 340.054974 98.55623 
L 340.925945 99.046202 
L 341.361431 98.657743 
L 341.796917 98.700585 
L 342.667888 99.13534 
L 343.103374 98.86316 
L 343.974345 98.714979 
L 344.409831 98.379973 
L 344.845316 98.451064 
L 345.280802 98.947014 
L 345.716287 99.106571 
L 346.151773 99.086117 
L 346.587259 98.719374 
L 347.022744 98.836559 
L 347.45823 99.146989 
L 347.893716 99.230901 
L 348.329201 99.092506 
L 348.764687 98.719736 
L 349.635658 98.446575 
L 350.071144 98.515445 
L 351.377601 97.655411 
L 351.813086 97.581322 
L 352.684058 97.635909 
L 353.119543 97.488544 
L 353.555029 97.547273 
L 353.990515 97.041196 
L 354.426 96.868171 
L 354.861486 96.523856 
L 356.167943 96.184538 
L 357.038914 95.842107 
L 357.4744 95.540865 
L 357.909885 94.857991 
L 358.345371 94.987205 
L 359.216342 94.562908 
L 359.651828 94.571239 
L 360.087314 94.187327 
L 361.829256 93.8654 
L 362.700228 93.843564 
L 363.135713 93.622631 
L 363.571199 93.72973 
L 364.006684 92.622447 
L 364.44217 92.777598 
L 364.877656 93.051613 
L 365.313141 92.874478 
L 366.184113 91.936567 
L 367.055084 91.558888 
L 367.49057 91.485018 
L 368.361541 90.639115 
L 369.232512 90.455438 
L 370.103483 89.870413 
L 370.538969 89.924957 
L 370.974455 89.836738 
L 371.40994 89.905925 
L 371.845426 89.585202 
L 372.280912 89.512087 
L 373.151883 88.900807 
L 373.587369 88.523008 
L 374.022854 87.884323 
L 374.45834 87.890898 
L 374.893825 87.282982 
L 375.329311 87.110542 
L 376.200282 87.127596 
L 376.635768 86.95009 
L 377.506739 86.316208 
L 378.377711 86.10121 
L 379.684168 85.889779 
L 380.119653 85.440159 
L 380.555139 85.268853 
L 380.990624 84.717394 
L 381.42611 84.408069 
L 381.861596 84.617377 
L 382.297081 84.650524 
L 382.732567 84.107445 
L 383.168053 83.871545 
L 383.603538 83.950864 
L 384.47451 83.317435 
L 384.909995 83.381424 
L 385.345481 83.654305 
L 386.651938 82.695029 
L 387.087423 82.750844 
L 388.39388 81.645271 
L 389.700337 81.6183 
L 390.135823 81.223023 
L 391.006794 81.129791 
L 391.44228 80.998932 
L 392.748737 80.253532 
L 393.184222 79.547112 
L 393.619708 79.529663 
L 395.797136 78.039626 
L 396.232622 78.232421 
L 396.668108 77.816949 
L 397.103593 77.829827 
L 397.539079 77.181814 
L 397.974564 77.064034 
L 398.41005 76.678642 
L 398.845536 75.824157 
L 398.845536 75.824157 
" style="fill:none;stroke:#1f77b4;stroke-linecap:square;stroke-opacity:0.8;stroke-width:1.5;"/>
   </g>
   <g id="line2d_19">
    <path clip-path="url(#pb6c5128ab9)" d="M 144.086436 276.190272 
L 149.747749 275.869314 
L 150.183235 276.080634 
L 152.360663 275.955991 
L 161.505861 275.583052 
L 163.247804 275.46275 
L 164.554261 275.432139 
L 165.425232 275.306474 
L 185.457572 274.555146 
L 186.328543 274.486413 
L 187.199514 274.538241 
L 189.376942 274.326921 
L 195.909227 274.131987 
L 196.344713 274.08729 
L 197.215684 274.214554 
L 198.522141 274.172508 
L 201.135055 273.855729 
L 204.61894 272.896462 
L 205.489911 272.593089 
L 206.360882 272.217256 
L 210.280253 270.95251 
L 210.715739 270.724453 
L 211.58671 270.031203 
L 212.457681 269.550873 
L 213.328653 269.142059 
L 214.199624 268.496544 
L 215.941566 267.379697 
L 217.248023 266.651755 
L 219.425452 264.803816 
L 219.860937 264.3326 
L 220.731908 263.714659 
L 221.60288 263.044163 
L 222.473851 262.289117 
L 225.086765 260.183006 
L 226.828707 258.880657 
L 227.264193 258.184995 
L 228.135164 257.405237 
L 229.877107 255.735369 
L 230.748078 254.982784 
L 231.183564 254.498188 
L 231.61905 253.830124 
L 232.054535 252.637879 
L 232.490021 252.305955 
L 232.925506 251.35999 
L 233.360992 250.76909 
L 234.667449 249.779962 
L 236.409392 247.537801 
L 238.58682 245.204598 
L 239.022305 244.640027 
L 239.893277 243.255394 
L 240.328762 242.573151 
L 241.635219 241.372966 
L 242.506191 240.037705 
L 243.377162 239.063688 
L 244.683619 237.405626 
L 245.55459 236.491814 
L 246.425561 235.010912 
L 246.861047 234.257907 
L 248.167504 232.691679 
L 248.60299 231.903639 
L 249.038475 231.373896 
L 250.344932 229.167368 
L 252.086875 226.72177 
L 252.957846 224.963357 
L 253.393332 224.338301 
L 256.441731 218.519997 
L 257.312702 217.025335 
L 259.054645 213.466591 
L 261.232073 209.467598 
L 262.103044 207.7657 
L 264.715958 203.21768 
L 266.893386 198.824357 
L 268.199843 196.493236 
L 269.070815 194.508074 
L 269.5063 193.873553 
L 270.377272 192.086066 
L 271.248243 190.552182 
L 272.990185 187.229895 
L 274.296642 184.444014 
L 275.167614 182.770931 
L 275.603099 181.707879 
L 278.651499 176.259287 
L 279.957956 173.526944 
L 282.135384 168.983507 
L 283.006355 166.956126 
L 284.312812 164.818884 
L 284.748298 163.873487 
L 285.619269 162.743883 
L 286.49024 161.258182 
L 287.361212 159.572423 
L 288.232183 157.932042 
L 289.53864 155.969288 
L 290.845097 154.252777 
L 291.716068 152.800933 
L 292.151554 152.23167 
L 293.022525 150.713833 
L 293.893496 149.495856 
L 295.199953 147.325579 
L 296.070924 146.300014 
L 296.941896 145.334597 
L 299.55481 141.916832 
L 300.861266 140.004076 
L 301.296752 139.466237 
L 301.732238 139.188393 
L 302.167723 138.685197 
L 302.603209 138.429831 
L 303.909666 136.756307 
L 304.345152 136.499049 
L 304.780637 136.110825 
L 305.216123 135.31908 
L 306.087094 134.190155 
L 306.52258 133.553239 
L 306.958065 133.274871 
L 307.393551 132.586016 
L 307.829037 132.12428 
L 308.700008 130.699889 
L 309.135494 129.934216 
L 310.877436 128.101221 
L 311.312922 127.941944 
L 312.619379 126.858355 
L 313.054864 126.42747 
L 313.49035 126.292625 
L 315.232293 124.861412 
L 315.667778 124.274902 
L 316.53875 123.799984 
L 316.974235 124.069806 
L 317.409721 123.438146 
L 317.845206 123.531415 
L 318.280692 123.239617 
L 320.022635 121.30609 
L 320.893606 120.699694 
L 321.764577 120.260664 
L 322.635549 119.195885 
L 323.071034 118.803967 
L 323.50652 118.583603 
L 323.942005 118.208752 
L 325.248462 118.191904 
L 325.683948 117.80056 
L 326.119434 117.572091 
L 326.554919 117.056701 
L 327.861376 116.294454 
L 328.296862 115.878113 
L 328.732347 115.789288 
L 331.345261 113.580958 
L 331.780747 113.616228 
L 332.216233 113.194301 
L 332.651718 112.927125 
L 333.087204 112.099504 
L 333.52269 112.041504 
L 334.829146 111.337017 
L 335.264632 110.997856 
L 337.006575 110.365157 
L 337.44206 110.638594 
L 338.748517 110.272646 
L 339.619489 110.505249 
L 340.054974 109.971302 
L 340.49046 109.872839 
L 341.361431 109.990231 
L 342.232402 109.580142 
L 342.667888 109.589104 
L 343.103374 109.479429 
L 343.538859 109.502715 
L 343.974345 109.095352 
L 344.409831 108.896732 
L 346.587259 109.210118 
L 347.022744 108.652665 
L 347.45823 107.910337 
L 347.893716 107.678682 
L 348.329201 107.65955 
L 348.764687 107.066507 
L 349.200173 107.148534 
L 349.635658 106.788444 
L 350.50663 106.829918 
L 350.942115 106.986207 
L 351.377601 107.019436 
L 352.248572 106.560755 
L 352.684058 106.259691 
L 353.555029 106.214491 
L 353.990515 106.240172 
L 354.426 105.959306 
L 355.296972 106.097734 
L 355.732457 106.085586 
L 356.167943 106.244179 
L 356.603429 106.123209 
L 357.038914 106.294371 
L 357.4744 106.13938 
L 358.345371 106.390249 
L 358.780857 106.725169 
L 359.651828 106.494396 
L 360.522799 106.687005 
L 360.958285 106.364522 
L 361.829256 106.165857 
L 363.135713 105.495436 
L 363.571199 105.824684 
L 364.006684 105.825063 
L 364.44217 106.123514 
L 364.877656 106.565623 
L 366.619598 106.891911 
L 367.055084 106.540148 
L 367.49057 106.951415 
L 367.926055 106.968931 
L 368.361541 106.62664 
L 368.797026 106.596292 
L 369.232512 106.064826 
L 369.667998 105.931432 
L 370.974455 104.962997 
L 371.40994 104.937443 
L 372.280912 105.522886 
L 373.587369 105.898821 
L 374.45834 105.701418 
L 374.893825 105.613351 
L 375.764797 105.179618 
L 376.200282 105.205159 
L 376.635768 105.118655 
L 377.071254 104.735604 
L 378.813196 104.388252 
L 380.119653 104.661598 
L 380.555139 104.542545 
L 380.990624 104.882878 
L 381.42611 104.95218 
L 381.861596 104.79578 
L 382.297081 104.83262 
L 382.732567 104.595891 
L 383.168053 104.782997 
L 383.603538 104.427639 
L 384.039024 104.36687 
L 384.47451 104.675531 
L 385.780966 104.826507 
L 386.216452 104.636202 
L 386.651938 104.293639 
L 387.958395 103.899409 
L 388.829366 104.19518 
L 389.264852 103.899759 
L 389.700337 104.140446 
L 391.006794 104.408051 
L 391.44228 104.19051 
L 392.748737 103.8736 
L 393.184222 104.050055 
L 394.055194 104.720999 
L 394.926165 104.469583 
L 395.797136 104.82337 
L 396.668108 104.641185 
L 397.103593 104.788109 
L 397.539079 104.295292 
L 398.41005 104.111999 
L 398.845536 103.884342 
L 398.845536 103.884342 
" style="fill:none;stroke:#ff7f0e;stroke-linecap:square;stroke-opacity:0.8;stroke-width:1.5;"/>
   </g>
   <g id="line2d_20">
    <path clip-path="url(#pb6c5128ab9)" d="M 144.086436 283.686127 
L 161.505861 283.629418 
L 165.860718 283.682203 
L 171.522031 283.613041 
L 172.393002 283.519516 
L 207.231854 283.500694 
L 211.151224 283.520238 
L 218.118995 283.503048 
L 222.038365 283.473632 
L 238.58682 283.364501 
L 245.55459 283.40428 
L 247.296533 283.352955 
L 252.52236 283.331247 
L 256.441731 283.372601 
L 257.312702 283.459266 
L 260.361102 283.433672 
L 269.5063 283.44192 
L 282.135384 283.239318 
L 289.103154 283.244343 
L 306.087094 283.083359 
L 309.135494 283.056594 
L 310.006465 282.99613 
L 313.054864 282.942487 
L 315.232293 282.92174 
L 315.667778 283.048964 
L 326.119434 283.013294 
L 329.603319 282.987374 
L 330.038804 282.701516 
L 337.006575 282.713693 
L 339.184003 282.695848 
L 341.361431 282.703223 
L 346.587259 282.698548 
L 350.071144 282.66722 
L 350.942115 282.621533 
L 356.603429 282.627498 
L 360.087314 282.695688 
L 360.522799 282.5478 
L 386.651938 282.620334 
L 398.845536 282.8034 
L 398.845536 282.8034 
" style="fill:none;stroke:#2ca02c;stroke-linecap:square;stroke-opacity:0.8;stroke-width:1.5;"/>
   </g>
   <g id="line2d_21">
    <path clip-path="url(#pb6c5128ab9)" d="M 144.086436 261.396019 
L 144.521921 261.251112 
L 144.957407 260.84318 
L 147.134835 260.128028 
L 149.747749 259.368246 
L 152.796148 258.290528 
L 153.231634 257.952083 
L 155.409062 257.230353 
L 158.892947 256.128301 
L 159.328433 255.620603 
L 164.989746 253.861449 
L 165.860718 253.68842 
L 171.522031 252.019145 
L 176.312373 251.686085 
L 176.747859 251.55652 
L 177.61883 251.558181 
L 179.360773 251.4371 
L 188.070485 251.969782 
L 188.505971 252.184965 
L 189.812428 252.316735 
L 190.683399 252.249061 
L 191.118885 252.09863 
L 193.296313 252.270101 
L 195.038256 252.306137 
L 203.747968 256.136467 
L 208.538311 257.916863 
L 209.409282 258.556017 
L 211.58671 259.389537 
L 212.893167 259.816353 
L 219.425452 261.957718 
L 219.860937 262.360823 
L 221.167394 262.765701 
L 229.441621 265.250637 
L 229.877107 265.669708 
L 232.925506 266.615953 
L 234.667449 267.102545 
L 235.973906 267.552392 
L 236.844877 267.607114 
L 237.715849 267.72254 
L 238.151334 267.975865 
L 239.457791 268.099271 
L 241.199734 268.207508 
L 241.635219 267.951367 
L 243.812647 268.076344 
L 244.248133 268.39372 
L 246.861047 268.386201 
L 247.732018 268.323968 
L 252.52236 267.750356 
L 254.699789 267.739478 
L 255.57076 267.671829 
L 257.748188 267.552417 
L 259.054645 267.462706 
L 260.361102 267.356835 
L 261.232073 267.276918 
L 261.667559 267.356192 
L 262.53853 267.180092 
L 264.280473 267.008258 
L 268.199843 266.465139 
L 269.070815 266.374273 
L 270.377272 266.246547 
L 275.603099 265.69968 
L 276.038585 265.879927 
L 279.957956 265.523296 
L 283.006355 264.152778 
L 285.619269 263.143492 
L 292.151554 260.753633 
L 292.587039 260.26362 
L 295.635439 259.044201 
L 299.55481 257.370112 
L 300.425781 256.756643 
L 301.296752 256.384916 
L 302.603209 255.87575 
L 306.52258 254.476134 
L 307.829037 253.869248 
L 310.006465 253.238387 
L 311.748407 252.539828 
L 315.667778 251.044263 
L 317.845206 250.251569 
L 321.329092 249.091662 
L 323.50652 248.885408 
L 324.812977 248.728027 
L 326.119434 248.472562 
L 326.554919 248.682506 
L 328.732347 248.374615 
L 329.603319 248.39718 
L 333.52269 248.107975 
L 334.393661 248.041418 
L 335.700118 247.865611 
L 337.44206 247.798328 
L 338.748517 247.536107 
L 339.619489 247.423443 
L 340.49046 247.323691 
L 346.587259 245.680873 
L 347.45823 245.589607 
L 349.200173 245.035304 
L 350.50663 244.553552 
L 353.119543 243.836244 
L 354.426 243.278421 
L 355.732457 242.871593 
L 356.603429 242.436162 
L 357.4744 242.029821 
L 358.780857 241.329885 
L 359.651828 241.131471 
L 360.087314 240.957951 
L 361.829256 239.868596 
L 362.264742 239.693638 
L 362.700228 239.307512 
L 363.571199 239.002164 
L 364.44217 238.412802 
L 366.619598 237.17691 
L 367.49057 236.948772 
L 368.361541 236.557852 
L 370.103483 235.847297 
L 370.538969 235.579981 
L 370.974455 235.118126 
L 371.40994 234.880696 
L 371.845426 234.454923 
L 372.716397 233.986217 
L 373.587369 233.173815 
L 374.45834 232.602034 
L 376.635768 230.518215 
L 377.071254 230.346654 
L 377.506739 230.330099 
L 380.990624 227.675159 
L 381.861596 227.036441 
L 382.297081 226.357603 
L 383.603538 225.066008 
L 384.039024 224.87351 
L 384.47451 224.443816 
L 385.345481 223.99021 
L 385.780966 223.638562 
L 386.216452 223.446245 
L 386.651938 223.065652 
L 387.087423 222.52994 
L 388.39388 221.625802 
L 389.700337 220.458974 
L 390.571309 219.830047 
L 391.006794 219.054242 
L 391.877765 218.545159 
L 392.748737 217.975126 
L 394.926165 215.812289 
L 395.361651 214.774291 
L 396.668108 213.127537 
L 397.103593 211.860185 
L 397.974564 211.148183 
L 398.41005 210.897319 
L 398.845536 210.205483 
L 398.845536 210.205483 
" style="fill:none;stroke:#d62728;stroke-linecap:square;stroke-opacity:0.8;stroke-width:1.5;"/>
   </g>
   <g id="line2d_22">
    <path clip-path="url(#pb6c5128ab9)" d="M 144.086436 245.062519 
L 144.521921 244.463564 
L 145.828378 243.422714 
L 147.570321 242.274687 
L 148.876778 241.396108 
L 149.312263 240.951092 
L 150.183235 240.2984 
L 151.489692 239.080486 
L 153.66712 237.259713 
L 154.102605 236.860602 
L 154.538091 236.628007 
L 155.844548 235.599071 
L 156.280034 235.288702 
L 157.151005 234.422881 
L 157.586491 234.077367 
L 158.457462 233.166238 
L 159.763919 231.992872 
L 162.376833 228.78339 
L 162.812318 228.558199 
L 164.554261 227.122678 
L 169.344603 221.164248 
L 171.522031 218.33968 
L 171.957517 217.989417 
L 173.699459 216.105472 
L 174.134945 215.652595 
L 175.005916 214.451829 
L 175.876887 213.505723 
L 178.054316 210.734422 
L 178.925287 209.501573 
L 179.360773 208.95013 
L 180.231744 206.09305 
L 182.844658 203.267014 
L 183.280143 202.634682 
L 183.715629 201.622358 
L 184.151115 201.096226 
L 184.5866 199.975228 
L 185.022086 199.298541 
L 185.893057 198.446397 
L 186.328543 198.278467 
L 187.635 196.900764 
L 188.941457 195.154636 
L 189.376942 195.0819 
L 189.812428 194.769833 
L 190.247914 194.650792 
L 191.118885 193.939805 
L 192.425342 192.177934 
L 193.296313 191.243156 
L 193.731799 190.173125 
L 194.167284 189.860717 
L 194.60277 189.267578 
L 195.473741 188.438823 
L 195.909227 187.881087 
L 196.344713 187.621413 
L 196.780198 186.917495 
L 197.65117 186.021841 
L 198.086655 185.932678 
L 198.522141 186.020926 
L 199.828598 185.630084 
L 201.135055 185.098915 
L 203.312483 184.438226 
L 203.747968 183.297768 
L 204.61894 182.867324 
L 205.054425 182.523958 
L 205.489911 182.017789 
L 206.796368 181.507569 
L 207.231854 181.626548 
L 210.280253 181.041881 
L 210.715739 180.70654 
L 212.022196 180.425629 
L 212.893167 179.313634 
L 213.328653 179.01816 
L 214.63511 177.512396 
L 215.070595 176.970707 
L 215.506081 176.878114 
L 217.248023 175.862455 
L 217.683509 175.347049 
L 218.989966 174.240941 
L 219.425452 173.425439 
L 219.860937 172.994196 
L 220.731908 172.417381 
L 221.167394 172.047369 
L 222.038365 170.891073 
L 222.473851 170.640081 
L 222.909337 170.056036 
L 223.780308 169.526631 
L 225.086765 169.047917 
L 225.522251 168.629629 
L 225.957736 168.646551 
L 226.828707 168.434777 
L 228.135164 168.312509 
L 229.006136 168.123721 
L 229.441621 168.291267 
L 229.877107 168.22347 
L 230.748078 167.856903 
L 231.183564 167.366061 
L 232.054535 166.637336 
L 232.490021 165.949399 
L 233.796478 165.469024 
L 234.231963 165.434908 
L 234.667449 165.152072 
L 236.844877 164.312736 
L 239.457791 162.156367 
L 240.328762 161.716731 
L 241.199734 160.829915 
L 241.635219 160.991204 
L 242.070705 161.020352 
L 242.506191 160.863437 
L 243.377162 160.813612 
L 244.683619 160.377129 
L 245.119104 160.37663 
L 245.55459 159.989293 
L 245.990076 160.073212 
L 246.425561 159.932579 
L 246.861047 159.988155 
L 247.732018 159.784395 
L 248.167504 159.444371 
L 249.909446 158.888766 
L 250.344932 159.136048 
L 250.780418 158.498769 
L 251.215903 158.746698 
L 251.651389 158.202573 
L 253.828817 158.743384 
L 254.264303 159.047664 
L 254.699789 158.594058 
L 255.135274 158.541784 
L 255.57076 158.260564 
L 256.441731 158.369192 
L 256.877217 158.149953 
L 257.312702 158.191266 
L 258.183674 157.871618 
L 258.619159 157.742462 
L 259.054645 157.805973 
L 259.490131 158.097189 
L 260.796587 158.047974 
L 261.667559 158.061582 
L 262.53853 158.289436 
L 263.409501 158.32994 
L 263.844987 158.284687 
L 264.280473 158.119342 
L 264.715958 159.055879 
L 265.151444 159.1571 
L 266.457901 158.991309 
L 266.893386 158.302565 
L 267.328872 158.049978 
L 267.764358 158.016955 
L 268.199843 158.132694 
L 268.635329 158.673447 
L 269.070815 158.707352 
L 269.5063 159.304184 
L 269.941786 159.604453 
L 270.812757 159.624503 
L 271.248243 159.229712 
L 272.5547 159.263547 
L 272.990185 158.737559 
L 273.861157 158.999793 
L 274.296642 158.718144 
L 274.732128 158.843088 
L 275.167614 158.790398 
L 276.038585 159.131926 
L 276.909556 160.156109 
L 278.216013 160.552533 
L 278.651499 161.240115 
L 279.52247 161.639897 
L 280.393441 161.567957 
L 280.828927 161.450697 
L 281.264413 160.52991 
L 281.699898 160.777967 
L 282.135384 160.380044 
L 282.57087 160.243302 
L 283.006355 159.272361 
L 284.748298 156.701571 
L 285.183783 156.664826 
L 286.054755 156.245104 
L 286.49024 155.901639 
L 286.925726 155.790038 
L 287.361212 155.19864 
L 288.232183 154.692851 
L 288.667669 154.535923 
L 289.53864 153.557471 
L 289.974125 153.071971 
L 290.409611 152.936516 
L 291.280582 151.764741 
L 291.716068 151.436779 
L 292.151554 150.890106 
L 293.022525 150.108489 
L 293.458011 150.090899 
L 293.893496 150.195001 
L 294.328982 150.035563 
L 295.199953 149.114558 
L 295.635439 149.161658 
L 296.070924 148.797944 
L 296.50641 146.65092 
L 296.941896 146.48677 
L 299.119324 145.001016 
L 299.55481 144.800051 
L 299.990295 144.455992 
L 300.425781 143.37268 
L 300.861266 141.752789 
L 301.296752 141.090308 
L 301.732238 139.025682 
L 302.167723 138.489228 
L 302.603209 138.517568 
L 303.038695 138.189953 
L 303.47418 138.065475 
L 303.909666 137.822372 
L 304.345152 138.082417 
L 304.780637 137.892318 
L 305.651609 137.175415 
L 306.087094 136.598959 
L 306.958065 135.942199 
L 307.393551 135.331355 
L 307.829037 135.19231 
L 308.264522 134.575036 
L 308.700008 134.194355 
L 309.570979 132.825779 
L 310.006465 132.029594 
L 310.441951 131.768329 
L 311.312922 131.454754 
L 313.925836 127.761144 
L 315.232293 126.019336 
L 315.667778 124.440157 
L 316.103264 124.242798 
L 316.974235 122.762457 
L 317.409721 122.667098 
L 318.280692 121.025785 
L 319.151663 119.221026 
L 319.587149 118.38951 
L 320.022635 117.810663 
L 320.893606 117.271983 
L 321.329092 116.796715 
L 321.764577 116.498391 
L 322.200063 116.420725 
L 323.942005 114.870319 
L 325.248462 112.934145 
L 326.119434 112.069634 
L 327.425891 109.583972 
L 328.296862 108.675164 
L 329.167833 108.28856 
L 330.038804 107.371916 
L 330.47429 107.349207 
L 331.345261 105.942657 
L 332.216233 104.444952 
L 333.958175 101.690972 
L 335.264632 98.798738 
L 335.700118 98.719955 
L 336.135603 97.899346 
L 336.571089 97.470955 
L 337.44206 95.90509 
L 339.184003 92.979186 
L 339.619489 92.877211 
L 340.49046 91.994657 
L 341.361431 90.545356 
L 341.796917 89.857457 
L 342.232402 88.942169 
L 343.103374 87.633232 
L 343.974345 86.0454 
L 344.409831 85.11101 
L 344.845316 84.641529 
L 345.280802 83.535512 
L 345.716287 83.173921 
L 346.151773 82.96298 
L 346.587259 82.482844 
L 347.022744 81.679177 
L 347.45823 81.203859 
L 348.329201 79.851404 
L 348.764687 79.42608 
L 349.200173 79.25423 
L 349.635658 78.872173 
L 350.071144 78.89604 
L 350.50663 77.77503 
L 351.377601 76.304054 
L 351.813086 76.097112 
L 352.248572 75.63198 
L 352.684058 74.345052 
L 353.555029 72.961664 
L 354.426 71.295267 
L 355.296972 70.666649 
L 355.732457 69.847895 
L 356.603429 69.293579 
L 357.038914 68.569128 
L 357.4744 68.084321 
L 357.909885 68.44846 
L 358.345371 68.083406 
L 358.780857 67.456243 
L 361.829256 60.864109 
L 363.571199 59.73673 
L 364.006684 59.305994 
L 364.44217 58.231895 
L 364.877656 57.804106 
L 365.748627 56.606559 
L 366.184113 56.957098 
L 367.055084 56.109637 
L 367.49057 55.672577 
L 367.926055 55.474197 
L 368.797026 54.384161 
L 370.103483 52.487008 
L 370.538969 51.471926 
L 371.845426 49.692057 
L 372.280912 49.529704 
L 372.716397 49.102501 
L 373.151883 48.331692 
L 373.587369 48.691621 
L 374.022854 48.678088 
L 374.45834 47.939576 
L 374.893825 47.79168 
L 375.329311 47.412228 
L 375.764797 46.668762 
L 376.200282 46.614316 
L 376.635768 45.612965 
L 377.071254 45.304522 
L 378.377711 43.543005 
L 378.813196 43.162898 
L 379.248682 42.940448 
L 380.119653 43.070115 
L 380.555139 42.572591 
L 380.990624 42.58232 
L 381.42611 43.935009 
L 382.732567 42.297072 
L 383.168053 41.504366 
L 384.909995 40.957314 
L 385.345481 40.978844 
L 385.780966 41.71546 
L 386.216452 40.937288 
L 386.651938 42.168583 
L 387.087423 41.788987 
L 389.264852 38.629729 
L 389.700337 38.59392 
L 390.571309 37.567902 
L 391.006794 37.19904 
L 391.44228 37.27697 
L 391.877765 36.870864 
L 392.313251 36.762891 
L 393.184222 36.373645 
L 393.619708 35.732557 
L 394.055194 36.013497 
L 394.490679 36.144323 
L 394.926165 36.403732 
L 395.361651 36.337377 
L 396.232622 35.480781 
L 397.974564 34.990125 
L 398.845536 35.313161 
L 398.845536 35.313161 
" style="fill:none;stroke:#9467bd;stroke-linecap:square;stroke-opacity:0.8;stroke-width:1.5;"/>
   </g>
   <g id="patch_3">
    <path d="M 58.73125 288.430125 
L 58.73125 22.318125 
" style="fill:none;stroke:#000000;stroke-linecap:square;stroke-linejoin:miter;stroke-width:0.8;"/>
   </g>
   <g id="patch_4">
    <path d="M 415.85125 288.430125 
L 415.85125 22.318125 
" style="fill:none;stroke:#000000;stroke-linecap:square;stroke-linejoin:miter;stroke-width:0.8;"/>
   </g>
   <g id="patch_5">
    <path d="M 58.73125 288.430125 
L 415.85125 288.430125 
" style="fill:none;stroke:#000000;stroke-linecap:square;stroke-linejoin:miter;stroke-width:0.8;"/>
   </g>
   <g id="patch_6">
    <path d="M 58.73125 22.318125 
L 415.85125 22.318125 
" style="fill:none;stroke:#000000;stroke-linecap:square;stroke-linejoin:miter;stroke-width:0.8;"/>
   </g>
   <g id="text_20">
    <!-- Move [root to branch] -->
    <g transform="translate(171.89125 16.318125)scale(0.12 -0.12)">
     <defs>
      <path d="M 9.8125 72.90625 
L 24.515625 72.90625 
L 43.109375 23.296875 
L 61.8125 72.90625 
L 76.515625 72.90625 
L 76.515625 0 
L 66.890625 0 
L 66.890625 64.015625 
L 48.09375 14.015625 
L 38.1875 14.015625 
L 19.390625 64.015625 
L 19.390625 0 
L 9.8125 0 
z
" id="DejaVuSans-77"/>
      <path d="M 2.984375 54.6875 
L 12.5 54.6875 
L 29.59375 8.796875 
L 46.6875 54.6875 
L 56.203125 54.6875 
L 35.6875 0 
L 23.484375 0 
z
" id="DejaVuSans-118"/>
      <path d="M 8.59375 75.984375 
L 29.296875 75.984375 
L 29.296875 69 
L 17.578125 69 
L 17.578125 -6.203125 
L 29.296875 -6.203125 
L 29.296875 -13.1875 
L 8.59375 -13.1875 
z
" id="DejaVuSans-91"/>
      <path d="M 54.890625 33.015625 
L 54.890625 0 
L 45.90625 0 
L 45.90625 32.71875 
Q 45.90625 40.484375 42.875 44.328125 
Q 39.84375 48.1875 33.796875 48.1875 
Q 26.515625 48.1875 22.3125 43.546875 
Q 18.109375 38.921875 18.109375 30.90625 
L 18.109375 0 
L 9.078125 0 
L 9.078125 75.984375 
L 18.109375 75.984375 
L 18.109375 46.1875 
Q 21.34375 51.125 25.703125 53.5625 
Q 30.078125 56 35.796875 56 
Q 45.21875 56 50.046875 50.171875 
Q 54.890625 44.34375 54.890625 33.015625 
z
" id="DejaVuSans-104"/>
      <path d="M 30.421875 75.984375 
L 30.421875 -13.1875 
L 9.71875 -13.1875 
L 9.71875 -6.203125 
L 21.390625 -6.203125 
L 21.390625 69 
L 9.71875 69 
L 9.71875 75.984375 
z
" id="DejaVuSans-93"/>
     </defs>
     <use xlink:href="#DejaVuSans-77"/>
     <use x="86.279297" xlink:href="#DejaVuSans-111"/>
     <use x="147.460938" xlink:href="#DejaVuSans-118"/>
     <use x="206.640625" xlink:href="#DejaVuSans-101"/>
     <use x="268.164062" xlink:href="#DejaVuSans-32"/>
     <use x="299.951172" xlink:href="#DejaVuSans-91"/>
     <use x="338.964844" xlink:href="#DejaVuSans-114"/>
     <use x="377.828125" xlink:href="#DejaVuSans-111"/>
     <use x="439.009766" xlink:href="#DejaVuSans-111"/>
     <use x="500.191406" xlink:href="#DejaVuSans-116"/>
     <use x="539.400391" xlink:href="#DejaVuSans-32"/>
     <use x="571.1875" xlink:href="#DejaVuSans-116"/>
     <use x="610.396484" xlink:href="#DejaVuSans-111"/>
     <use x="671.578125" xlink:href="#DejaVuSans-32"/>
     <use x="703.365234" xlink:href="#DejaVuSans-98"/>
     <use x="766.841797" xlink:href="#DejaVuSans-114"/>
     <use x="807.955078" xlink:href="#DejaVuSans-97"/>
     <use x="869.234375" xlink:href="#DejaVuSans-110"/>
     <use x="932.613281" xlink:href="#DejaVuSans-99"/>
     <use x="987.59375" xlink:href="#DejaVuSans-104"/>
     <use x="1050.972656" xlink:href="#DejaVuSans-93"/>
    </g>
   </g>
   <g id="legend_1">
    <g id="patch_7">
     <path d="M 89.733594 365.802375 
L 377.328906 365.802375 
Q 379.328906 365.802375 379.328906 363.802375 
L 379.328906 335.446125 
Q 379.328906 333.446125 377.328906 333.446125 
L 89.733594 333.446125 
Q 87.733594 333.446125 87.733594 335.446125 
L 87.733594 363.802375 
Q 87.733594 365.802375 89.733594 365.802375 
z
" style="fill:#4c4c4c;opacity:0.5;stroke:#4c4c4c;stroke-linejoin:miter;"/>
    </g>
    <g id="patch_8">
     <path d="M 87.733594 363.802375 
L 375.328906 363.802375 
Q 377.328906 363.802375 377.328906 361.802375 
L 377.328906 333.446125 
Q 377.328906 331.446125 375.328906 331.446125 
L 87.733594 331.446125 
Q 85.733594 331.446125 85.733594 333.446125 
L 85.733594 361.802375 
Q 85.733594 363.802375 87.733594 363.802375 
z
" style="fill:#ffffff;stroke:#cccccc;stroke-linejoin:miter;"/>
    </g>
    <g id="line2d_23">
     <path d="M 89.733594 339.544562 
L 109.733594 339.544562 
" style="fill:none;stroke:#1f77b4;stroke-linecap:square;stroke-opacity:0.8;stroke-width:1.5;"/>
    </g>
    <g id="line2d_24"/>
    <g id="text_21">
     <!-- MPTT -->
     <g transform="translate(117.733594 343.044562)scale(0.1 -0.1)">
      <defs>
       <path d="M 19.671875 64.796875 
L 19.671875 37.40625 
L 32.078125 37.40625 
Q 38.96875 37.40625 42.71875 40.96875 
Q 46.484375 44.53125 46.484375 51.125 
Q 46.484375 57.671875 42.71875 61.234375 
Q 38.96875 64.796875 32.078125 64.796875 
z
M 9.8125 72.90625 
L 32.078125 72.90625 
Q 44.34375 72.90625 50.609375 67.359375 
Q 56.890625 61.8125 56.890625 51.125 
Q 56.890625 40.328125 50.609375 34.8125 
Q 44.34375 29.296875 32.078125 29.296875 
L 19.671875 29.296875 
L 19.671875 0 
L 9.8125 0 
z
" id="DejaVuSans-80"/>
       <path d="M -0.296875 72.90625 
L 61.375 72.90625 
L 61.375 64.59375 
L 35.5 64.59375 
L 35.5 0 
L 25.59375 0 
L 25.59375 64.59375 
L -0.296875 64.59375 
z
" id="DejaVuSans-84"/>
      </defs>
      <use xlink:href="#DejaVuSans-77"/>
      <use x="86.279297" xlink:href="#DejaVuSans-80"/>
      <use x="146.582031" xlink:href="#DejaVuSans-84"/>
      <use x="205.916016" xlink:href="#DejaVuSans-84"/>
     </g>
    </g>
    <g id="line2d_25">
     <path d="M 89.733594 354.222687 
L 109.733594 354.222687 
" style="fill:none;stroke:#ff7f0e;stroke-linecap:square;stroke-opacity:0.8;stroke-width:1.5;"/>
    </g>
    <g id="line2d_26"/>
    <g id="text_22">
     <!-- tree -->
     <g transform="translate(117.733594 357.722687)scale(0.1 -0.1)">
      <use xlink:href="#DejaVuSans-116"/>
      <use x="39.208984" xlink:href="#DejaVuSans-114"/>
      <use x="78.072266" xlink:href="#DejaVuSans-101"/>
      <use x="139.595703" xlink:href="#DejaVuSans-101"/>
     </g>
    </g>
    <g id="line2d_27">
     <path d="M 164.432031 339.544562 
L 184.432031 339.544562 
" style="fill:none;stroke:#2ca02c;stroke-linecap:square;stroke-opacity:0.8;stroke-width:1.5;"/>
    </g>
    <g id="line2d_28"/>
    <g id="text_23">
     <!-- treebeard AL -->
     <g transform="translate(192.432031 343.044562)scale(0.1 -0.1)">
      <defs>
       <path d="M 45.40625 46.390625 
L 45.40625 75.984375 
L 54.390625 75.984375 
L 54.390625 0 
L 45.40625 0 
L 45.40625 8.203125 
Q 42.578125 3.328125 38.25 0.953125 
Q 33.9375 -1.421875 27.875 -1.421875 
Q 17.96875 -1.421875 11.734375 6.484375 
Q 5.515625 14.40625 5.515625 27.296875 
Q 5.515625 40.1875 11.734375 48.09375 
Q 17.96875 56 27.875 56 
Q 33.9375 56 38.25 53.625 
Q 42.578125 51.265625 45.40625 46.390625 
z
M 14.796875 27.296875 
Q 14.796875 17.390625 18.875 11.75 
Q 22.953125 6.109375 30.078125 6.109375 
Q 37.203125 6.109375 41.296875 11.75 
Q 45.40625 17.390625 45.40625 27.296875 
Q 45.40625 37.203125 41.296875 42.84375 
Q 37.203125 48.484375 30.078125 48.484375 
Q 22.953125 48.484375 18.875 42.84375 
Q 14.796875 37.203125 14.796875 27.296875 
z
" id="DejaVuSans-100"/>
       <path d="M 9.8125 72.90625 
L 19.671875 72.90625 
L 19.671875 8.296875 
L 55.171875 8.296875 
L 55.171875 0 
L 9.8125 0 
z
" id="DejaVuSans-76"/>
      </defs>
      <use xlink:href="#DejaVuSans-116"/>
      <use x="39.208984" xlink:href="#DejaVuSans-114"/>
      <use x="78.072266" xlink:href="#DejaVuSans-101"/>
      <use x="139.595703" xlink:href="#DejaVuSans-101"/>
      <use x="201.119141" xlink:href="#DejaVuSans-98"/>
      <use x="264.595703" xlink:href="#DejaVuSans-101"/>
      <use x="326.119141" xlink:href="#DejaVuSans-97"/>
      <use x="387.398438" xlink:href="#DejaVuSans-114"/>
      <use x="426.761719" xlink:href="#DejaVuSans-100"/>
      <use x="490.238281" xlink:href="#DejaVuSans-32"/>
      <use x="522.025391" xlink:href="#DejaVuSans-65"/>
      <use x="590.433594" xlink:href="#DejaVuSans-76"/>
     </g>
    </g>
    <g id="line2d_29">
     <path d="M 164.432031 354.222687 
L 184.432031 354.222687 
" style="fill:none;stroke:#d62728;stroke-linecap:square;stroke-opacity:0.8;stroke-width:1.5;"/>
    </g>
    <g id="line2d_30"/>
    <g id="text_24">
     <!-- treebeard MP -->
     <g transform="translate(192.432031 357.722687)scale(0.1 -0.1)">
      <use xlink:href="#DejaVuSans-116"/>
      <use x="39.208984" xlink:href="#DejaVuSans-114"/>
      <use x="78.072266" xlink:href="#DejaVuSans-101"/>
      <use x="139.595703" xlink:href="#DejaVuSans-101"/>
      <use x="201.119141" xlink:href="#DejaVuSans-98"/>
      <use x="264.595703" xlink:href="#DejaVuSans-101"/>
      <use x="326.119141" xlink:href="#DejaVuSans-97"/>
      <use x="387.398438" xlink:href="#DejaVuSans-114"/>
      <use x="426.761719" xlink:href="#DejaVuSans-100"/>
      <use x="490.238281" xlink:href="#DejaVuSans-32"/>
      <use x="522.025391" xlink:href="#DejaVuSans-77"/>
      <use x="608.304688" xlink:href="#DejaVuSans-80"/>
     </g>
    </g>
    <g id="line2d_31">
     <path d="M 279.294531 339.544562 
L 299.294531 339.544562 
" style="fill:none;stroke:#9467bd;stroke-linecap:square;stroke-opacity:0.8;stroke-width:1.5;"/>
    </g>
    <g id="line2d_32"/>
    <g id="text_25">
     <!-- treebeard NS -->
     <g transform="translate(307.294531 343.044562)scale(0.1 -0.1)">
      <defs>
       <path d="M 9.8125 72.90625 
L 23.09375 72.90625 
L 55.421875 11.921875 
L 55.421875 72.90625 
L 64.984375 72.90625 
L 64.984375 0 
L 51.703125 0 
L 19.390625 60.984375 
L 19.390625 0 
L 9.8125 0 
z
" id="DejaVuSans-78"/>
       <path d="M 53.515625 70.515625 
L 53.515625 60.890625 
Q 47.90625 63.578125 42.921875 64.890625 
Q 37.9375 66.21875 33.296875 66.21875 
Q 25.25 66.21875 20.875 63.09375 
Q 16.5 59.96875 16.5 54.203125 
Q 16.5 49.359375 19.40625 46.890625 
Q 22.3125 44.4375 30.421875 42.921875 
L 36.375 41.703125 
Q 47.40625 39.59375 52.65625 34.296875 
Q 57.90625 29 57.90625 20.125 
Q 57.90625 9.515625 50.796875 4.046875 
Q 43.703125 -1.421875 29.984375 -1.421875 
Q 24.8125 -1.421875 18.96875 -0.25 
Q 13.140625 0.921875 6.890625 3.21875 
L 6.890625 13.375 
Q 12.890625 10.015625 18.65625 8.296875 
Q 24.421875 6.59375 29.984375 6.59375 
Q 38.421875 6.59375 43.015625 9.90625 
Q 47.609375 13.234375 47.609375 19.390625 
Q 47.609375 24.75 44.3125 27.78125 
Q 41.015625 30.8125 33.5 32.328125 
L 27.484375 33.5 
Q 16.453125 35.6875 11.515625 40.375 
Q 6.59375 45.0625 6.59375 53.421875 
Q 6.59375 63.09375 13.40625 68.65625 
Q 20.21875 74.21875 32.171875 74.21875 
Q 37.3125 74.21875 42.625 73.28125 
Q 47.953125 72.359375 53.515625 70.515625 
z
" id="DejaVuSans-83"/>
      </defs>
      <use xlink:href="#DejaVuSans-116"/>
      <use x="39.208984" xlink:href="#DejaVuSans-114"/>
      <use x="78.072266" xlink:href="#DejaVuSans-101"/>
      <use x="139.595703" xlink:href="#DejaVuSans-101"/>
      <use x="201.119141" xlink:href="#DejaVuSans-98"/>
      <use x="264.595703" xlink:href="#DejaVuSans-101"/>
      <use x="326.119141" xlink:href="#DejaVuSans-97"/>
      <use x="387.398438" xlink:href="#DejaVuSans-114"/>
      <use x="426.761719" xlink:href="#DejaVuSans-100"/>
      <use x="490.238281" xlink:href="#DejaVuSans-32"/>
      <use x="522.025391" xlink:href="#DejaVuSans-78"/>
      <use x="596.830078" xlink:href="#DejaVuSans-83"/>
     </g>
    </g>
   </g>
  </g>
 </g>
 <defs>
  <clipPath id="pb6c5128ab9">
   <rect height="266.112" width="357.12" x="58.73125" y="22.318125"/>
  </clipPath>
 </defs>
</svg>
