<?xml version="1.0" encoding="utf-8" standalone="no"?>
<!DOCTYPE svg PUBLIC "-//W3C//DTD SVG 1.1//EN"
  "http://www.w3.org/Graphics/SVG/1.1/DTD/svg11.dtd">
<svg xmlns:xlink="http://www.w3.org/1999/xlink" width="426.035625pt" height="371.002375pt" viewBox="0 0 426.035625 371.002375" xmlns="http://www.w3.org/2000/svg" version="1.1">
 <metadata>
  <rdf:RDF xmlns:dc="http://purl.org/dc/elements/1.1/" xmlns:cc="http://creativecommons.org/ns#" xmlns:rdf="http://www.w3.org/1999/02/22-rdf-syntax-ns#">
   <cc:Work>
    <dc:type rdf:resource="http://purl.org/dc/dcmitype/StillImage"/>
    <dc:date>2026-06-29T05:26:30.354320</dc:date>
    <dc:format>image/svg+xml</dc:format>
    <dc:creator>
     <cc:Agent>
      <dc:title>Matplotlib v3.10.6, https://matplotlib.org/</dc:title>
     </cc:Agent>
    </dc:creator>
   </cc:Work>
  </rdf:RDF>
 </metadata>
 <defs>
  <style type="text/css">*{stroke-linejoin: round; stroke-linecap: butt}</style>
 </defs>
 <g id="figure_1">
  <g id="patch_1">
   <path d="M 0 371.002375 
L 426.035625 371.002375 
L 426.035625 0 
L 0 0 
z
" style="fill: #ffffff"/>
  </g>
  <g id="axes_1">
   <g id="patch_2">
    <path d="M 61.715625 288.430125 
L 418.835625 288.430125 
L 418.835625 22.318125 
L 61.715625 22.318125 
z
" style="fill: #ffffff"/>
   </g>
   <g id="matplotlib.axis_1">
    <g id="xtick_1">
     <g id="line2d_1">
      <defs>
       <path id="mb5688f9a32" d="M 0 0 
L 0 3.5 
" style="stroke: #000000; stroke-width: 0.8"/>
      </defs>
      <g>
       <use xlink:href="#mb5688f9a32" x="61.715625" y="288.430125" style="stroke: #000000; stroke-width: 0.8"/>
      </g>
     </g>
     <g id="text_1">
      <!-- 0 -->
      <g transform="translate(58.534375 303.028562) scale(0.1 -0.1)">
       <defs>
        <path id="DejaVuSans-30" d="M 2034 4250 
Q 1547 4250 1301 3770 
Q 1056 3291 1056 2328 
Q 1056 1369 1301 889 
Q 1547 409 2034 409 
Q 2525 409 2770 889 
Q 3016 1369 3016 2328 
Q 3016 3291 2770 3770 
Q 2525 4250 2034 4250 
z
M 2034 4750 
Q 2819 4750 3233 4129 
Q 3647 3509 3647 2328 
Q 3647 1150 3233 529 
Q 2819 -91 2034 -91 
Q 1250 -91 836 529 
Q 422 1150 422 2328 
Q 422 3509 836 4129 
Q 1250 4750 2034 4750 
z
" transform="scale(0.015625)"/>
       </defs>
       <use xlink:href="#DejaVuSans-30"/>
      </g>
     </g>
    </g>
    <g id="xtick_2">
     <g id="line2d_2">
      <g>
       <use xlink:href="#mb5688f9a32" x="105.264189" y="288.430125" style="stroke: #000000; stroke-width: 0.8"/>
      </g>
     </g>
     <g id="text_2">
      <!-- 500  -->
      <g transform="translate(94.131377 303.028562) scale(0.1 -0.1)">
       <defs>
        <path id="DejaVuSans-35" d="M 691 4666 
L 3169 4666 
L 3169 4134 
L 1269 4134 
L 1269 2991 
Q 1406 3038 1543 3061 
Q 1681 3084 1819 3084 
Q 2600 3084 3056 2656 
Q 3513 2228 3513 1497 
Q 3513 744 3044 326 
Q 2575 -91 1722 -91 
Q 1428 -91 1123 -41 
Q 819 9 494 109 
L 494 744 
Q 775 591 1075 516 
Q 1375 441 1709 441 
Q 2250 441 2565 725 
Q 2881 1009 2881 1497 
Q 2881 1984 2565 2268 
Q 2250 2553 1709 2553 
Q 1456 2553 1204 2497 
Q 953 2441 691 2322 
L 691 4666 
z
" transform="scale(0.015625)"/>
        <path id="DejaVuSans-20" transform="scale(0.015625)"/>
       </defs>
       <use xlink:href="#DejaVuSans-35"/>
       <use xlink:href="#DejaVuSans-30" transform="translate(63.623047 0)"/>
       <use xlink:href="#DejaVuSans-30" transform="translate(127.246094 0)"/>
       <use xlink:href="#DejaVuSans-20" transform="translate(190.869141 0)"/>
      </g>
     </g>
    </g>
    <g id="xtick_3">
     <g id="line2d_3">
      <g>
       <use xlink:href="#mb5688f9a32" x="148.812753" y="288.430125" style="stroke: #000000; stroke-width: 0.8"/>
      </g>
     </g>
     <g id="text_3">
      <!-- 1 k -->
      <g transform="translate(141.147128 303.028562) scale(0.1 -0.1)">
       <defs>
        <path id="DejaVuSans-31" d="M 794 531 
L 1825 531 
L 1825 4091 
L 703 3866 
L 703 4441 
L 1819 4666 
L 2450 4666 
L 2450 531 
L 3481 531 
L 3481 0 
L 794 0 
L 794 531 
z
" transform="scale(0.015625)"/>
        <path id="DejaVuSans-6b" d="M 581 4863 
L 1159 4863 
L 1159 1991 
L 2875 3500 
L 3609 3500 
L 1753 1863 
L 3688 0 
L 2938 0 
L 1159 1709 
L 1159 0 
L 581 0 
L 581 4863 
z
" transform="scale(0.015625)"/>
       </defs>
       <use xlink:href="#DejaVuSans-31"/>
       <use xlink:href="#DejaVuSans-20" transform="translate(63.623047 0)"/>
       <use xlink:href="#DejaVuSans-6b" transform="translate(95.410156 0)"/>
      </g>
     </g>
    </g>
    <g id="xtick_4">
     <g id="line2d_4">
      <g>
       <use xlink:href="#mb5688f9a32" x="192.361317" y="288.430125" style="stroke: #000000; stroke-width: 0.8"/>
      </g>
     </g>
     <g id="text_4">
      <!-- 1.5 k -->
      <g transform="translate(179.92538 303.028562) scale(0.1 -0.1)">
       <defs>
        <path id="DejaVuSans-2e" d="M 684 794 
L 1344 794 
L 1344 0 
L 684 0 
L 684 794 
z
" transform="scale(0.015625)"/>
       </defs>
       <use xlink:href="#DejaVuSans-31"/>
       <use xlink:href="#DejaVuSans-2e" transform="translate(63.623047 0)"/>
       <use xlink:href="#DejaVuSans-35" transform="translate(95.410156 0)"/>
       <use xlink:href="#DejaVuSans-20" transform="translate(159.033203 0)"/>
       <use xlink:href="#DejaVuSans-6b" transform="translate(190.820312 0)"/>
      </g>
     </g>
    </g>
    <g id="xtick_5">
     <g id="line2d_5">
      <g>
       <use xlink:href="#mb5688f9a32" x="235.909881" y="288.430125" style="stroke: #000000; stroke-width: 0.8"/>
      </g>
     </g>
     <g id="text_5">
      <!-- 2 k -->
      <g transform="translate(228.244256 303.028562) scale(0.1 -0.1)">
       <defs>
        <path id="DejaVuSans-32" d="M 1228 531 
L 3431 531 
L 3431 0 
L 469 0 
L 469 531 
Q 828 903 1448 1529 
Q 2069 2156 2228 2338 
Q 2531 2678 2651 2914 
Q 2772 3150 2772 3378 
Q 2772 3750 2511 3984 
Q 2250 4219 1831 4219 
Q 1534 4219 1204 4116 
Q 875 4013 500 3803 
L 500 4441 
Q 881 4594 1212 4672 
Q 1544 4750 1819 4750 
Q 2544 4750 2975 4387 
Q 3406 4025 3406 3419 
Q 3406 3131 3298 2873 
Q 3191 2616 2906 2266 
Q 2828 2175 2409 1742 
Q 1991 1309 1228 531 
z
" transform="scale(0.015625)"/>
       </defs>
       <use xlink:href="#DejaVuSans-32"/>
       <use xlink:href="#DejaVuSans-20" transform="translate(63.623047 0)"/>
       <use xlink:href="#DejaVuSans-6b" transform="translate(95.410156 0)"/>
      </g>
     </g>
    </g>
    <g id="xtick_6">
     <g id="line2d_6">
      <g>
       <use xlink:href="#mb5688f9a32" x="279.458446" y="288.430125" style="stroke: #000000; stroke-width: 0.8"/>
      </g>
     </g>
     <g id="text_6">
      <!-- 2.5 k -->
      <g transform="translate(267.022508 303.028562) scale(0.1 -0.1)">
       <use xlink:href="#DejaVuSans-32"/>
       <use xlink:href="#DejaVuSans-2e" transform="translate(63.623047 0)"/>
       <use xlink:href="#DejaVuSans-35" transform="translate(95.410156 0)"/>
       <use xlink:href="#DejaVuSans-20" transform="translate(159.033203 0)"/>
       <use xlink:href="#DejaVuSans-6b" transform="translate(190.820312 0)"/>
      </g>
     </g>
    </g>
    <g id="xtick_7">
     <g id="line2d_7">
      <g>
       <use xlink:href="#mb5688f9a32" x="323.00701" y="288.430125" style="stroke: #000000; stroke-width: 0.8"/>
      </g>
     </g>
     <g id="text_7">
      <!-- 3 k -->
      <g transform="translate(315.341385 303.028562) scale(0.1 -0.1)">
       <defs>
        <path id="DejaVuSans-33" d="M 2597 2516 
Q 3050 2419 3304 2112 
Q 3559 1806 3559 1356 
Q 3559 666 3084 287 
Q 2609 -91 1734 -91 
Q 1441 -91 1130 -33 
Q 819 25 488 141 
L 488 750 
Q 750 597 1062 519 
Q 1375 441 1716 441 
Q 2309 441 2620 675 
Q 2931 909 2931 1356 
Q 2931 1769 2642 2001 
Q 2353 2234 1838 2234 
L 1294 2234 
L 1294 2753 
L 1863 2753 
Q 2328 2753 2575 2939 
Q 2822 3125 2822 3475 
Q 2822 3834 2567 4026 
Q 2313 4219 1838 4219 
Q 1578 4219 1281 4162 
Q 984 4106 628 3988 
L 628 4550 
Q 988 4650 1302 4700 
Q 1616 4750 1894 4750 
Q 2613 4750 3031 4423 
Q 3450 4097 3450 3541 
Q 3450 3153 3228 2886 
Q 3006 2619 2597 2516 
z
" transform="scale(0.015625)"/>
       </defs>
       <use xlink:href="#DejaVuSans-33"/>
       <use xlink:href="#DejaVuSans-20" transform="translate(63.623047 0)"/>
       <use xlink:href="#DejaVuSans-6b" transform="translate(95.410156 0)"/>
      </g>
     </g>
    </g>
    <g id="xtick_8">
     <g id="line2d_8">
      <g>
       <use xlink:href="#mb5688f9a32" x="366.555574" y="288.430125" style="stroke: #000000; stroke-width: 0.8"/>
      </g>
     </g>
     <g id="text_8">
      <!-- 3.5 k -->
      <g transform="translate(354.119636 303.028562) scale(0.1 -0.1)">
       <use xlink:href="#DejaVuSans-33"/>
       <use xlink:href="#DejaVuSans-2e" transform="translate(63.623047 0)"/>
       <use xlink:href="#DejaVuSans-35" transform="translate(95.410156 0)"/>
       <use xlink:href="#DejaVuSans-20" transform="translate(159.033203 0)"/>
       <use xlink:href="#DejaVuSans-6b" transform="translate(190.820312 0)"/>
      </g>
     </g>
    </g>
    <g id="xtick_9">
     <g id="line2d_9">
      <g>
       <use xlink:href="#mb5688f9a32" x="410.104138" y="288.430125" style="stroke: #000000; stroke-width: 0.8"/>
      </g>
     </g>
     <g id="text_9">
      <!-- 4 k -->
      <g transform="translate(402.438513 303.028562) scale(0.1 -0.1)">
       <defs>
        <path id="DejaVuSans-34" d="M 2419 4116 
L 825 1625 
L 2419 1625 
L 2419 4116 
z
M 2253 4666 
L 3047 4666 
L 3047 1625 
L 3713 1625 
L 3713 1100 
L 3047 1100 
L 3047 0 
L 2419 0 
L 2419 1100 
L 313 1100 
L 313 1709 
L 2253 4666 
z
" transform="scale(0.015625)"/>
       </defs>
       <use xlink:href="#DejaVuSans-34"/>
       <use xlink:href="#DejaVuSans-20" transform="translate(63.623047 0)"/>
       <use xlink:href="#DejaVuSans-6b" transform="translate(95.410156 0)"/>
      </g>
     </g>
    </g>
    <g id="text_10">
     <!-- Amount of objects in table -->
     <g transform="translate(174.217031 316.706687) scale(0.1 -0.1)">
      <defs>
       <path id="DejaVuSans-41" d="M 2188 4044 
L 1331 1722 
L 3047 1722 
L 2188 4044 
z
M 1831 4666 
L 2547 4666 
L 4325 0 
L 3669 0 
L 3244 1197 
L 1141 1197 
L 716 0 
L 50 0 
L 1831 4666 
z
" transform="scale(0.015625)"/>
       <path id="DejaVuSans-6d" d="M 3328 2828 
Q 3544 3216 3844 3400 
Q 4144 3584 4550 3584 
Q 5097 3584 5394 3201 
Q 5691 2819 5691 2113 
L 5691 0 
L 5113 0 
L 5113 2094 
Q 5113 2597 4934 2840 
Q 4756 3084 4391 3084 
Q 3944 3084 3684 2787 
Q 3425 2491 3425 1978 
L 3425 0 
L 2847 0 
L 2847 2094 
Q 2847 2600 2669 2842 
Q 2491 3084 2119 3084 
Q 1678 3084 1418 2786 
Q 1159 2488 1159 1978 
L 1159 0 
L 581 0 
L 581 3500 
L 1159 3500 
L 1159 2956 
Q 1356 3278 1631 3431 
Q 1906 3584 2284 3584 
Q 2666 3584 2933 3390 
Q 3200 3197 3328 2828 
z
" transform="scale(0.015625)"/>
       <path id="DejaVuSans-6f" d="M 1959 3097 
Q 1497 3097 1228 2736 
Q 959 2375 959 1747 
Q 959 1119 1226 758 
Q 1494 397 1959 397 
Q 2419 397 2687 759 
Q 2956 1122 2956 1747 
Q 2956 2369 2687 2733 
Q 2419 3097 1959 3097 
z
M 1959 3584 
Q 2709 3584 3137 3096 
Q 3566 2609 3566 1747 
Q 3566 888 3137 398 
Q 2709 -91 1959 -91 
Q 1206 -91 779 398 
Q 353 888 353 1747 
Q 353 2609 779 3096 
Q 1206 3584 1959 3584 
z
" transform="scale(0.015625)"/>
       <path id="DejaVuSans-75" d="M 544 1381 
L 544 3500 
L 1119 3500 
L 1119 1403 
Q 1119 906 1312 657 
Q 1506 409 1894 409 
Q 2359 409 2629 706 
Q 2900 1003 2900 1516 
L 2900 3500 
L 3475 3500 
L 3475 0 
L 2900 0 
L 2900 538 
Q 2691 219 2414 64 
Q 2138 -91 1772 -91 
Q 1169 -91 856 284 
Q 544 659 544 1381 
z
M 1991 3584 
L 1991 3584 
z
" transform="scale(0.015625)"/>
       <path id="DejaVuSans-6e" d="M 3513 2113 
L 3513 0 
L 2938 0 
L 2938 2094 
Q 2938 2591 2744 2837 
Q 2550 3084 2163 3084 
Q 1697 3084 1428 2787 
Q 1159 2491 1159 1978 
L 1159 0 
L 581 0 
L 581 3500 
L 1159 3500 
L 1159 2956 
Q 1366 3272 1645 3428 
Q 1925 3584 2291 3584 
Q 2894 3584 3203 3211 
Q 3513 2838 3513 2113 
z
" transform="scale(0.015625)"/>
       <path id="DejaVuSans-74" d="M 1172 4494 
L 1172 3500 
L 2356 3500 
L 2356 3053 
L 1172 3053 
L 1172 1153 
Q 1172 725 1289 603 
Q 1406 481 1766 481 
L 2356 481 
L 2356 0 
L 1766 0 
Q 1100 0 847 248 
Q 594 497 594 1153 
L 594 3053 
L 172 3053 
L 172 3500 
L 594 3500 
L 594 4494 
L 1172 4494 
z
" transform="scale(0.015625)"/>
       <path id="DejaVuSans-66" d="M 2375 4863 
L 2375 4384 
L 1825 4384 
Q 1516 4384 1395 4259 
Q 1275 4134 1275 3809 
L 1275 3500 
L 2222 3500 
L 2222 3053 
L 1275 3053 
L 1275 0 
L 697 0 
L 697 3053 
L 147 3053 
L 147 3500 
L 697 3500 
L 697 3744 
Q 697 4328 969 4595 
Q 1241 4863 1831 4863 
L 2375 4863 
z
" transform="scale(0.015625)"/>
       <path id="DejaVuSans-62" d="M 3116 1747 
Q 3116 2381 2855 2742 
Q 2594 3103 2138 3103 
Q 1681 3103 1420 2742 
Q 1159 2381 1159 1747 
Q 1159 1113 1420 752 
Q 1681 391 2138 391 
Q 2594 391 2855 752 
Q 3116 1113 3116 1747 
z
M 1159 2969 
Q 1341 3281 1617 3432 
Q 1894 3584 2278 3584 
Q 2916 3584 3314 3078 
Q 3713 2572 3713 1747 
Q 3713 922 3314 415 
Q 2916 -91 2278 -91 
Q 1894 -91 1617 61 
Q 1341 213 1159 525 
L 1159 0 
L 581 0 
L 581 4863 
L 1159 4863 
L 1159 2969 
z
" transform="scale(0.015625)"/>
       <path id="DejaVuSans-6a" d="M 603 3500 
L 1178 3500 
L 1178 -63 
Q 1178 -731 923 -1031 
Q 669 -1331 103 -1331 
L -116 -1331 
L -116 -844 
L 38 -844 
Q 366 -844 484 -692 
Q 603 -541 603 -63 
L 603 3500 
z
M 603 4863 
L 1178 4863 
L 1178 4134 
L 603 4134 
L 603 4863 
z
" transform="scale(0.015625)"/>
       <path id="DejaVuSans-65" d="M 3597 1894 
L 3597 1613 
L 953 1613 
Q 991 1019 1311 708 
Q 1631 397 2203 397 
Q 2534 397 2845 478 
Q 3156 559 3463 722 
L 3463 178 
Q 3153 47 2828 -22 
Q 2503 -91 2169 -91 
Q 1331 -91 842 396 
Q 353 884 353 1716 
Q 353 2575 817 3079 
Q 1281 3584 2069 3584 
Q 2775 3584 3186 3129 
Q 3597 2675 3597 1894 
z
M 3022 2063 
Q 3016 2534 2758 2815 
Q 2500 3097 2075 3097 
Q 1594 3097 1305 2825 
Q 1016 2553 972 2059 
L 3022 2063 
z
" transform="scale(0.015625)"/>
       <path id="DejaVuSans-63" d="M 3122 3366 
L 3122 2828 
Q 2878 2963 2633 3030 
Q 2388 3097 2138 3097 
Q 1578 3097 1268 2742 
Q 959 2388 959 1747 
Q 959 1106 1268 751 
Q 1578 397 2138 397 
Q 2388 397 2633 464 
Q 2878 531 3122 666 
L 3122 134 
Q 2881 22 2623 -34 
Q 2366 -91 2075 -91 
Q 1284 -91 818 406 
Q 353 903 353 1747 
Q 353 2603 823 3093 
Q 1294 3584 2113 3584 
Q 2378 3584 2631 3529 
Q 2884 3475 3122 3366 
z
" transform="scale(0.015625)"/>
       <path id="DejaVuSans-73" d="M 2834 3397 
L 2834 2853 
Q 2591 2978 2328 3040 
Q 2066 3103 1784 3103 
Q 1356 3103 1142 2972 
Q 928 2841 928 2578 
Q 928 2378 1081 2264 
Q 1234 2150 1697 2047 
L 1894 2003 
Q 2506 1872 2764 1633 
Q 3022 1394 3022 966 
Q 3022 478 2636 193 
Q 2250 -91 1575 -91 
Q 1294 -91 989 -36 
Q 684 19 347 128 
L 347 722 
Q 666 556 975 473 
Q 1284 391 1588 391 
Q 1994 391 2212 530 
Q 2431 669 2431 922 
Q 2431 1156 2273 1281 
Q 2116 1406 1581 1522 
L 1381 1569 
Q 847 1681 609 1914 
Q 372 2147 372 2553 
Q 372 3047 722 3315 
Q 1072 3584 1716 3584 
Q 2034 3584 2315 3537 
Q 2597 3491 2834 3397 
z
" transform="scale(0.015625)"/>
       <path id="DejaVuSans-69" d="M 603 3500 
L 1178 3500 
L 1178 0 
L 603 0 
L 603 3500 
z
M 603 4863 
L 1178 4863 
L 1178 4134 
L 603 4134 
L 603 4863 
z
" transform="scale(0.015625)"/>
       <path id="DejaVuSans-61" d="M 2194 1759 
Q 1497 1759 1228 1600 
Q 959 1441 959 1056 
Q 959 750 1161 570 
Q 1363 391 1709 391 
Q 2188 391 2477 730 
Q 2766 1069 2766 1631 
L 2766 1759 
L 2194 1759 
z
M 3341 1997 
L 3341 0 
L 2766 0 
L 2766 531 
Q 2569 213 2275 61 
Q 1981 -91 1556 -91 
Q 1019 -91 701 211 
Q 384 513 384 1019 
Q 384 1609 779 1909 
Q 1175 2209 1959 2209 
L 2766 2209 
L 2766 2266 
Q 2766 2663 2505 2880 
Q 2244 3097 1772 3097 
Q 1472 3097 1187 3025 
Q 903 2953 641 2809 
L 641 3341 
Q 956 3463 1253 3523 
Q 1550 3584 1831 3584 
Q 2591 3584 2966 3190 
Q 3341 2797 3341 1997 
z
" transform="scale(0.015625)"/>
       <path id="DejaVuSans-6c" d="M 603 4863 
L 1178 4863 
L 1178 0 
L 603 0 
L 603 4863 
z
" transform="scale(0.015625)"/>
      </defs>
      <use xlink:href="#DejaVuSans-41"/>
      <use xlink:href="#DejaVuSans-6d" transform="translate(68.408203 0)"/>
      <use xlink:href="#DejaVuSans-6f" transform="translate(165.820312 0)"/>
      <use xlink:href="#DejaVuSans-75" transform="translate(227.001953 0)"/>
      <use xlink:href="#DejaVuSans-6e" transform="translate(290.380859 0)"/>
      <use xlink:href="#DejaVuSans-74" transform="translate(353.759766 0)"/>
      <use xlink:href="#DejaVuSans-20" transform="translate(392.96875 0)"/>
      <use xlink:href="#DejaVuSans-6f" transform="translate(424.755859 0)"/>
      <use xlink:href="#DejaVuSans-66" transform="translate(485.9375 0)"/>
      <use xlink:href="#DejaVuSans-20" transform="translate(521.142578 0)"/>
      <use xlink:href="#DejaVuSans-6f" transform="translate(552.929688 0)"/>
      <use xlink:href="#DejaVuSans-62" transform="translate(614.111328 0)"/>
      <use xlink:href="#DejaVuSans-6a" transform="translate(677.587891 0)"/>
      <use xlink:href="#DejaVuSans-65" transform="translate(705.371094 0)"/>
      <use xlink:href="#DejaVuSans-63" transform="translate(766.894531 0)"/>
      <use xlink:href="#DejaVuSans-74" transform="translate(821.875 0)"/>
      <use xlink:href="#DejaVuSans-73" transform="translate(861.083984 0)"/>
      <use xlink:href="#DejaVuSans-20" transform="translate(913.183594 0)"/>
      <use xlink:href="#DejaVuSans-69" transform="translate(944.970703 0)"/>
      <use xlink:href="#DejaVuSans-6e" transform="translate(972.753906 0)"/>
      <use xlink:href="#DejaVuSans-20" transform="translate(1036.132812 0)"/>
      <use xlink:href="#DejaVuSans-74" transform="translate(1067.919922 0)"/>
      <use xlink:href="#DejaVuSans-61" transform="translate(1107.128906 0)"/>
      <use xlink:href="#DejaVuSans-62" transform="translate(1168.408203 0)"/>
      <use xlink:href="#DejaVuSans-6c" transform="translate(1231.884766 0)"/>
      <use xlink:href="#DejaVuSans-65" transform="translate(1259.667969 0)"/>
     </g>
    </g>
   </g>
   <g id="matplotlib.axis_2">
    <g id="ytick_1">
     <g id="line2d_10">
      <defs>
       <path id="m7839a2434b" d="M 0 0 
L -3.5 0 
" style="stroke: #000000; stroke-width: 0.8"/>
      </defs>
      <g>
       <use xlink:href="#m7839a2434b" x="61.715625" y="288.430125" style="stroke: #000000; stroke-width: 0.8"/>
      </g>
     </g>
     <g id="text_11">
      <!-- 0 -->
      <g transform="translate(48.353125 292.229344) scale(0.1 -0.1)">
       <use xlink:href="#DejaVuSans-30"/>
      </g>
     </g>
    </g>
    <g id="ytick_2">
     <g id="line2d_11">
      <g>
       <use xlink:href="#m7839a2434b" x="61.715625" y="253.933652" style="stroke: #000000; stroke-width: 0.8"/>
      </g>
     </g>
     <g id="text_12">
      <!-- 100 µs -->
      <g transform="translate(20.878125 257.73287) scale(0.1 -0.1)">
       <defs>
        <path id="DejaVuSans-b5" d="M 544 -1331 
L 544 3500 
L 1119 3500 
L 1119 1325 
Q 1119 872 1334 640 
Q 1550 409 1972 409 
Q 2434 409 2667 671 
Q 2900 934 2900 1459 
L 2900 3500 
L 3475 3500 
L 3475 806 
Q 3475 619 3529 530 
Q 3584 441 3700 441 
Q 3728 441 3778 458 
Q 3828 475 3916 513 
L 3916 50 
Q 3788 -22 3673 -56 
Q 3559 -91 3450 -91 
Q 3234 -91 3106 31 
Q 2978 153 2931 403 
Q 2775 156 2548 32 
Q 2322 -91 2016 -91 
Q 1697 -91 1473 31 
Q 1250 153 1119 397 
L 1119 -1331 
L 544 -1331 
z
" transform="scale(0.015625)"/>
       </defs>
       <use xlink:href="#DejaVuSans-31"/>
       <use xlink:href="#DejaVuSans-30" transform="translate(63.623047 0)"/>
       <use xlink:href="#DejaVuSans-30" transform="translate(127.246094 0)"/>
       <use xlink:href="#DejaVuSans-20" transform="translate(190.869141 0)"/>
       <use xlink:href="#DejaVuSans-b5" transform="translate(222.65625 0)"/>
       <use xlink:href="#DejaVuSans-73" transform="translate(286.279297 0)"/>
      </g>
     </g>
    </g>
    <g id="ytick_3">
     <g id="line2d_12">
      <g>
       <use xlink:href="#m7839a2434b" x="61.715625" y="219.437178" style="stroke: #000000; stroke-width: 0.8"/>
      </g>
     </g>
     <g id="text_13">
      <!-- 200 µs -->
      <g transform="translate(20.878125 223.236397) scale(0.1 -0.1)">
       <use xlink:href="#DejaVuSans-32"/>
       <use xlink:href="#DejaVuSans-30" transform="translate(63.623047 0)"/>
       <use xlink:href="#DejaVuSans-30" transform="translate(127.246094 0)"/>
       <use xlink:href="#DejaVuSans-20" transform="translate(190.869141 0)"/>
       <use xlink:href="#DejaVuSans-b5" transform="translate(222.65625 0)"/>
       <use xlink:href="#DejaVuSans-73" transform="translate(286.279297 0)"/>
      </g>
     </g>
    </g>
    <g id="ytick_4">
     <g id="line2d_13">
      <g>
       <use xlink:href="#m7839a2434b" x="61.715625" y="184.940705" style="stroke: #000000; stroke-width: 0.8"/>
      </g>
     </g>
     <g id="text_14">
      <!-- 300 µs -->
      <g transform="translate(20.878125 188.739923) scale(0.1 -0.1)">
       <use xlink:href="#DejaVuSans-33"/>
       <use xlink:href="#DejaVuSans-30" transform="translate(63.623047 0)"/>
       <use xlink:href="#DejaVuSans-30" transform="translate(127.246094 0)"/>
       <use xlink:href="#DejaVuSans-20" transform="translate(190.869141 0)"/>
       <use xlink:href="#DejaVuSans-b5" transform="translate(222.65625 0)"/>
       <use xlink:href="#DejaVuSans-73" transform="translate(286.279297 0)"/>
      </g>
     </g>
    </g>
    <g id="ytick_5">
     <g id="line2d_14">
      <g>
       <use xlink:href="#m7839a2434b" x="61.715625" y="150.444231" style="stroke: #000000; stroke-width: 0.8"/>
      </g>
     </g>
     <g id="text_15">
      <!-- 400 µs -->
      <g transform="translate(20.878125 154.24345) scale(0.1 -0.1)">
       <use xlink:href="#DejaVuSans-34"/>
       <use xlink:href="#DejaVuSans-30" transform="translate(63.623047 0)"/>
       <use xlink:href="#DejaVuSans-30" transform="translate(127.246094 0)"/>
       <use xlink:href="#DejaVuSans-20" transform="translate(190.869141 0)"/>
       <use xlink:href="#DejaVuSans-b5" transform="translate(222.65625 0)"/>
       <use xlink:href="#DejaVuSans-73" transform="translate(286.279297 0)"/>
      </g>
     </g>
    </g>
    <g id="ytick_6">
     <g id="line2d_15">
      <g>
       <use xlink:href="#m7839a2434b" x="61.715625" y="115.947758" style="stroke: #000000; stroke-width: 0.8"/>
      </g>
     </g>
     <g id="text_16">
      <!-- 500 µs -->
      <g transform="translate(20.878125 119.746977) scale(0.1 -0.1)">
       <use xlink:href="#DejaVuSans-35"/>
       <use xlink:href="#DejaVuSans-30" transform="translate(63.623047 0)"/>
       <use xlink:href="#DejaVuSans-30" transform="translate(127.246094 0)"/>
       <use xlink:href="#DejaVuSans-20" transform="translate(190.869141 0)"/>
       <use xlink:href="#DejaVuSans-b5" transform="translate(222.65625 0)"/>
       <use xlink:href="#DejaVuSans-73" transform="translate(286.279297 0)"/>
      </g>
     </g>
    </g>
    <g id="ytick_7">
     <g id="line2d_16">
      <g>
       <use xlink:href="#m7839a2434b" x="61.715625" y="81.451284" style="stroke: #000000; stroke-width: 0.8"/>
      </g>
     </g>
     <g id="text_17">
      <!-- 600 µs -->
      <g transform="translate(20.878125 85.250503) scale(0.1 -0.1)">
       <defs>
        <path id="DejaVuSans-36" d="M 2113 2584 
Q 1688 2584 1439 2293 
Q 1191 2003 1191 1497 
Q 1191 994 1439 701 
Q 1688 409 2113 409 
Q 2538 409 2786 701 
Q 3034 994 3034 1497 
Q 3034 2003 2786 2293 
Q 2538 2584 2113 2584 
z
M 3366 4563 
L 3366 3988 
Q 3128 4100 2886 4159 
Q 2644 4219 2406 4219 
Q 1781 4219 1451 3797 
Q 1122 3375 1075 2522 
Q 1259 2794 1537 2939 
Q 1816 3084 2150 3084 
Q 2853 3084 3261 2657 
Q 3669 2231 3669 1497 
Q 3669 778 3244 343 
Q 2819 -91 2113 -91 
Q 1303 -91 875 529 
Q 447 1150 447 2328 
Q 447 3434 972 4092 
Q 1497 4750 2381 4750 
Q 2619 4750 2861 4703 
Q 3103 4656 3366 4563 
z
" transform="scale(0.015625)"/>
       </defs>
       <use xlink:href="#DejaVuSans-36"/>
       <use xlink:href="#DejaVuSans-30" transform="translate(63.623047 0)"/>
       <use xlink:href="#DejaVuSans-30" transform="translate(127.246094 0)"/>
       <use xlink:href="#DejaVuSans-20" transform="translate(190.869141 0)"/>
       <use xlink:href="#DejaVuSans-b5" transform="translate(222.65625 0)"/>
       <use xlink:href="#DejaVuSans-73" transform="translate(286.279297 0)"/>
      </g>
     </g>
    </g>
    <g id="ytick_8">
     <g id="line2d_17">
      <g>
       <use xlink:href="#m7839a2434b" x="61.715625" y="46.954811" style="stroke: #000000; stroke-width: 0.8"/>
      </g>
     </g>
     <g id="text_18">
      <!-- 700 µs -->
      <g transform="translate(20.878125 50.75403) scale(0.1 -0.1)">
       <defs>
        <path id="DejaVuSans-37" d="M 525 4666 
L 3525 4666 
L 3525 4397 
L 1831 0 
L 1172 0 
L 2766 4134 
L 525 4134 
L 525 4666 
z
" transform="scale(0.015625)"/>
       </defs>
       <use xlink:href="#DejaVuSans-37"/>
       <use xlink:href="#DejaVuSans-30" transform="translate(63.623047 0)"/>
       <use xlink:href="#DejaVuSans-30" transform="translate(127.246094 0)"/>
       <use xlink:href="#DejaVuSans-20" transform="translate(190.869141 0)"/>
       <use xlink:href="#DejaVuSans-b5" transform="translate(222.65625 0)"/>
       <use xlink:href="#DejaVuSans-73" transform="translate(286.279297 0)"/>
      </g>
     </g>
    </g>
    <g id="text_19">
     <!-- Read latency (s) -->
     <g transform="translate(14.798438 195.98975) rotate(-90) scale(0.1 -0.1)">
      <defs>
       <path id="DejaVuSans-52" d="M 2841 2188 
Q 3044 2119 3236 1894 
Q 3428 1669 3622 1275 
L 4263 0 
L 3584 0 
L 2988 1197 
Q 2756 1666 2539 1819 
Q 2322 1972 1947 1972 
L 1259 1972 
L 1259 0 
L 628 0 
L 628 4666 
L 2053 4666 
Q 2853 4666 3247 4331 
Q 3641 3997 3641 3322 
Q 3641 2881 3436 2590 
Q 3231 2300 2841 2188 
z
M 1259 4147 
L 1259 2491 
L 2053 2491 
Q 2509 2491 2742 2702 
Q 2975 2913 2975 3322 
Q 2975 3731 2742 3939 
Q 2509 4147 2053 4147 
L 1259 4147 
z
" transform="scale(0.015625)"/>
       <path id="DejaVuSans-64" d="M 2906 2969 
L 2906 4863 
L 3481 4863 
L 3481 0 
L 2906 0 
L 2906 525 
Q 2725 213 2448 61 
Q 2172 -91 1784 -91 
Q 1150 -91 751 415 
Q 353 922 353 1747 
Q 353 2572 751 3078 
Q 1150 3584 1784 3584 
Q 2172 3584 2448 3432 
Q 2725 3281 2906 2969 
z
M 947 1747 
Q 947 1113 1208 752 
Q 1469 391 1925 391 
Q 2381 391 2643 752 
Q 2906 1113 2906 1747 
Q 2906 2381 2643 2742 
Q 2381 3103 1925 3103 
Q 1469 3103 1208 2742 
Q 947 2381 947 1747 
z
" transform="scale(0.015625)"/>
       <path id="DejaVuSans-79" d="M 2059 -325 
Q 1816 -950 1584 -1140 
Q 1353 -1331 966 -1331 
L 506 -1331 
L 506 -850 
L 844 -850 
Q 1081 -850 1212 -737 
Q 1344 -625 1503 -206 
L 1606 56 
L 191 3500 
L 800 3500 
L 1894 763 
L 2988 3500 
L 3597 3500 
L 2059 -325 
z
" transform="scale(0.015625)"/>
       <path id="DejaVuSans-28" d="M 1984 4856 
Q 1566 4138 1362 3434 
Q 1159 2731 1159 2009 
Q 1159 1288 1364 580 
Q 1569 -128 1984 -844 
L 1484 -844 
Q 1016 -109 783 600 
Q 550 1309 550 2009 
Q 550 2706 781 3412 
Q 1013 4119 1484 4856 
L 1984 4856 
z
" transform="scale(0.015625)"/>
       <path id="DejaVuSans-29" d="M 513 4856 
L 1013 4856 
Q 1481 4119 1714 3412 
Q 1947 2706 1947 2009 
Q 1947 1309 1714 600 
Q 1481 -109 1013 -844 
L 513 -844 
Q 928 -128 1133 580 
Q 1338 1288 1338 2009 
Q 1338 2731 1133 3434 
Q 928 4138 513 4856 
z
" transform="scale(0.015625)"/>
      </defs>
      <use xlink:href="#DejaVuSans-52"/>
      <use xlink:href="#DejaVuSans-65" transform="translate(64.982422 0)"/>
      <use xlink:href="#DejaVuSans-61" transform="translate(126.505859 0)"/>
      <use xlink:href="#DejaVuSans-64" transform="translate(187.785156 0)"/>
      <use xlink:href="#DejaVuSans-20" transform="translate(251.261719 0)"/>
      <use xlink:href="#DejaVuSans-6c" transform="translate(283.048828 0)"/>
      <use xlink:href="#DejaVuSans-61" transform="translate(310.832031 0)"/>
      <use xlink:href="#DejaVuSans-74" transform="translate(372.111328 0)"/>
      <use xlink:href="#DejaVuSans-65" transform="translate(411.320312 0)"/>
      <use xlink:href="#DejaVuSans-6e" transform="translate(472.84375 0)"/>
      <use xlink:href="#DejaVuSans-63" transform="translate(536.222656 0)"/>
      <use xlink:href="#DejaVuSans-79" transform="translate(591.203125 0)"/>
      <use xlink:href="#DejaVuSans-20" transform="translate(650.382812 0)"/>
      <use xlink:href="#DejaVuSans-28" transform="translate(682.169922 0)"/>
      <use xlink:href="#DejaVuSans-73" transform="translate(721.183594 0)"/>
      <use xlink:href="#DejaVuSans-29" transform="translate(773.283203 0)"/>
     </g>
    </g>
   </g>
   <g id="line2d_18">
    <path d="M 147.070811 159.549797 
L 147.506296 160.087137 
L 147.941782 160.329657 
L 148.377268 161.774235 
L 148.812753 162.174077 
L 149.248239 162.744738 
L 150.11921 163.530503 
L 151.425667 165.314187 
L 151.861153 165.463495 
L 152.296638 166.067898 
L 152.732124 166.45593 
L 154.038581 168.853296 
L 154.474067 168.757131 
L 154.909552 168.521359 
L 155.345038 168.675307 
L 156.651495 168.059095 
L 157.08698 168.248893 
L 157.957952 168.166225 
L 159.699894 167.317193 
L 160.13538 167.318881 
L 160.570866 167.19277 
L 161.006351 165.970046 
L 161.877322 165.55966 
L 162.748294 165.139572 
L 163.183779 164.607293 
L 163.619265 164.329766 
L 164.054751 164.331874 
L 164.490236 164.111286 
L 164.925722 164.092307 
L 165.361208 162.976713 
L 167.10315 162.886875 
L 167.538636 162.6123 
L 168.409607 162.446543 
L 169.280578 162.127682 
L 169.716064 161.876304 
L 170.15155 162.101532 
L 171.022521 162.094783 
L 171.458007 161.686084 
L 174.506406 161.351617 
L 174.941892 160.214935 
L 175.377377 160.166009 
L 176.248349 159.744235 
L 176.683834 159.597035 
L 177.554806 159.577212 
L 177.990291 159.459537 
L 179.296748 158.644669 
L 180.167719 158.468789 
L 180.603205 158.532055 
L 181.038691 158.172703 
L 181.909662 158.142757 
L 182.780633 157.208949 
L 183.216119 157.281072 
L 183.651605 156.831039 
L 184.08709 156.928047 
L 184.522576 156.851284 
L 185.393547 156.407156 
L 185.829033 155.434122 
L 187.570975 155.068444 
L 188.006461 154.862618 
L 188.441947 154.431987 
L 188.877432 154.504532 
L 189.312918 154.078961 
L 189.748403 154.177657 
L 190.183889 153.80776 
L 191.05486 153.794264 
L 191.490346 153.733528 
L 191.925832 153.507457 
L 192.361317 153.686289 
L 192.796803 153.617118 
L 193.232289 155.172201 
L 193.667774 154.737773 
L 194.10326 154.733133 
L 195.845202 155.168826 
L 196.716174 155.225766 
L 197.151659 154.765188 
L 197.587145 154.56358 
L 198.022631 155.03175 
L 198.893602 154.811583 
L 199.329088 155.078988 
L 199.764573 155.002225 
L 200.635545 154.65637 
L 201.506516 153.911095 
L 201.942001 153.930497 
L 202.377487 153.632302 
L 202.812973 153.660983 
L 203.248458 152.689215 
L 204.11943 152.199113 
L 204.990401 151.97009 
L 205.425887 151.620017 
L 205.861372 151.548737 
L 206.732343 151.73727 
L 207.167829 151.774386 
L 208.0388 151.3117 
L 208.474286 151.289767 
L 208.909772 151.02405 
L 209.345257 151.231984 
L 211.958171 151.049356 
L 212.829142 150.708141 
L 213.264628 150.948552 
L 214.135599 150.54871 
L 214.571085 150.525091 
L 215.006571 150.274557 
L 215.442056 149.226447 
L 215.877542 149.448301 
L 217.183999 149.342857 
L 218.05497 149.727093 
L 218.925941 149.494274 
L 219.796913 149.485417 
L 220.232398 149.523376 
L 220.667884 149.673528 
L 221.10337 149.66931 
L 221.538855 149.553322 
L 222.409827 149.620806 
L 222.845312 149.524642 
L 223.280798 149.544887 
L 223.716283 149.428899 
L 224.151769 149.442818 
L 224.587255 149.67395 
L 225.458226 149.554588 
L 225.893712 149.213794 
L 226.329197 149.057316 
L 227.200169 149.514097 
L 227.635654 149.510723 
L 228.07114 149.685338 
L 228.942111 149.705583 
L 229.377597 149.418776 
L 230.248568 149.219699 
L 231.555025 149.31038 
L 231.990511 148.584928 
L 233.296968 148.664222 
L 234.167939 148.959042 
L 234.603425 149.497226 
L 235.474396 149.875136 
L 235.909881 149.563445 
L 236.345367 149.421307 
L 236.780853 149.681542 
L 238.522795 149.689977 
L 238.958281 149.948947 
L 239.393767 149.610262 
L 239.829252 149.592126 
L 240.264738 149.411606 
L 241.571195 149.530125 
L 242.442166 148.679406 
L 242.877652 148.48539 
L 243.313137 146.843 
L 244.184109 146.882647 
L 244.619594 146.889817 
L 245.490566 146.586561 
L 245.926051 147.739271 
L 246.361537 146.828238 
L 247.232508 146.750632 
L 247.667994 146.711407 
L 248.103479 147.216271 
L 248.538965 146.1631 
L 248.974451 145.735421 
L 249.845422 145.686917 
L 250.280908 146.91892 
L 251.587365 146.76202 
L 252.02285 146.537214 
L 252.458336 146.841735 
L 255.07125 145.936185 
L 255.942221 146.319578 
L 256.377707 146.65995 
L 256.813192 146.842579 
L 257.248678 146.847218 
L 257.684164 146.542275 
L 258.555135 146.722795 
L 259.426106 146.805041 
L 259.861592 147.90545 
L 260.732563 147.536819 
L 261.603534 147.615691 
L 262.03902 147.398055 
L 262.909991 147.42294 
L 264.216448 147.298517 
L 265.087419 147.044187 
L 265.522905 147.068228 
L 265.958391 147.495063 
L 266.393876 147.464696 
L 266.829362 147.216692 
L 267.264848 147.426736 
L 267.700333 147.793258 
L 268.135819 147.610208 
L 268.571305 147.744754 
L 269.00679 147.378654 
L 269.877761 147.205304 
L 270.313247 146.820646 
L 270.748733 147.725774 
L 271.619704 147.739693 
L 272.05519 147.976308 
L 272.490675 148.013002 
L 272.926161 147.752768 
L 273.361647 146.872103 
L 273.797132 146.729121 
L 274.232618 146.917654 
L 274.668104 146.773408 
L 275.103589 147.124746 
L 277.716503 147.060214 
L 278.151989 146.968267 
L 278.587474 147.415348 
L 279.458446 147.333524 
L 279.893931 146.668807 
L 280.329417 146.645188 
L 282.942331 147.687814 
L 283.813302 147.660821 
L 284.248788 147.457526 
L 285.99073 147.485363 
L 286.426216 147.605147 
L 287.732673 147.573514 
L 288.168158 148.377415 
L 289.474615 149.140827 
L 290.781072 149.273264 
L 291.216558 149.07503 
L 291.652044 148.587459 
L 292.523015 148.441947 
L 292.9585 148.508166 
L 293.393986 148.358436 
L 293.829472 148.630902 
L 294.264957 148.487499 
L 294.700443 148.532207 
L 295.135929 147.004962 
L 297.313357 146.958988 
L 298.184328 146.543541 
L 299.055299 146.405199 
L 299.926271 146.849327 
L 300.361756 147.861164 
L 300.797242 147.607677 
L 301.232728 147.665882 
L 302.103699 147.347021 
L 302.97467 147.355878 
L 303.845641 147.1994 
L 304.716613 147.261822 
L 305.152098 147.540193 
L 305.587584 146.331388 
L 306.458555 146.270652 
L 306.894041 146.333497 
L 307.329527 146.204434 
L 308.635984 146.505581 
L 309.506955 146.920607 
L 309.94244 146.770455 
L 311.684383 147.394259 
L 312.119869 147.034908 
L 312.555354 147.055575 
L 313.426326 146.840048 
L 315.603754 146.65278 
L 316.474725 146.568847 
L 316.910211 147.546098 
L 317.345696 147.457947 
L 318.216668 147.899967 
L 318.652153 147.680644 
L 319.087639 147.658712 
L 319.523125 147.174093 
L 320.394096 147.154692 
L 321.265067 147.470179 
L 321.700553 147.423784 
L 322.136038 147.066962 
L 323.877981 146.842157 
L 324.313467 147.409865 
L 324.748952 147.614004 
L 325.184438 147.414926 
L 326.490895 147.327197 
L 326.92638 147.692454 
L 327.361866 147.650698 
L 327.797352 147.46807 
L 328.232837 148.878062 
L 328.668323 148.344517 
L 329.103809 148.12182 
L 330.845751 147.991914 
L 331.281237 148.703869 
L 331.716722 148.70893 
L 332.587694 148.993206 
L 333.023179 148.746468 
L 333.458665 149.878932 
L 334.329636 149.306163 
L 334.765122 149.527172 
L 335.200608 149.352558 
L 336.94255 149.242475 
L 337.378036 148.692903 
L 337.813521 148.643977 
L 338.249007 148.818591 
L 339.99095 148.854442 
L 340.426435 148.714835 
L 340.861921 148.428872 
L 341.297407 148.514492 
L 342.168378 148.007519 
L 342.603864 148.42592 
L 343.039349 148.207019 
L 344.345806 148.157249 
L 344.781292 147.872973 
L 345.216777 147.788197 
L 345.652263 148.011737 
L 346.087749 147.845558 
L 346.523234 147.840918 
L 346.95872 148.180869 
L 347.394206 147.886892 
L 348.265177 147.854837 
L 348.700662 147.842606 
L 349.571634 148.445321 
L 350.007119 147.61063 
L 350.442605 147.473131 
L 350.878091 147.719447 
L 351.749062 147.7747 
L 352.184548 147.996975 
L 353.055519 148.079221 
L 353.491005 148.135317 
L 354.361976 148.534737 
L 354.797461 148.744359 
L 355.232947 149.255971 
L 356.103918 149.444926 
L 356.539404 149.399375 
L 357.410375 149.044663 
L 357.845861 149.349605 
L 358.281347 150.444532 
L 359.587804 150.769298 
L 360.023289 150.520029 
L 360.458775 150.525934 
L 360.89426 150.745257 
L 362.200717 150.911858 
L 362.636203 150.845217 
L 363.071689 150.93379 
L 363.94266 150.790387 
L 364.813631 150.965845 
L 365.249117 151.180106 
L 366.555574 150.072105 
L 366.991059 150.214243 
L 367.426545 149.9616 
L 368.297516 149.952321 
L 368.733002 148.696277 
L 370.474945 148.686576 
L 370.91043 149.115099 
L 371.345916 149.197767 
L 371.781401 149.429321 
L 372.216887 149.441974 
L 372.652373 149.626711 
L 373.087858 149.363102 
L 373.523344 149.455893 
L 374.829801 149.278747 
L 375.265287 149.510301 
L 375.700772 149.376177 
L 376.571744 149.652439 
L 377.007229 149.500601 
L 377.442715 148.461349 
L 377.8782 147.722822 
L 378.313686 147.892375 
L 379.184657 147.493376 
L 379.620143 147.454995 
L 380.055629 149.083044 
L 380.491114 149.077561 
L 380.9266 148.843898 
L 381.797571 148.909273 
L 382.668543 149.037071 
L 383.104028 148.873422 
L 383.974999 149.330626 
L 386.152428 149.366898 
L 386.587913 149.58833 
L 387.023399 149.552057 
L 387.458885 149.400218 
L 388.329856 149.727093 
L 389.636313 149.716127 
L 390.071798 148.552452 
L 390.507284 149.512832 
L 390.94277 149.20578 
L 391.378255 149.336109 
L 391.813741 149.160229 
L 392.249227 148.789067 
L 392.684712 148.570588 
L 393.120198 148.599691 
L 393.991169 148.270707 
L 394.426655 148.123086 
L 395.297626 148.213767 
L 395.733112 148.237808 
L 396.168597 147.959437 
L 396.604083 147.878035 
L 397.039569 148.190569 
L 398.346026 148.270285 
L 398.781511 148.537268 
L 400.087968 148.740563 
L 400.523454 147.720713 
L 401.394425 147.633827 
L 401.829911 147.394259 
L 401.829911 147.394259 
" clip-path="url(#p6c4ec83ce2)" style="fill: none; stroke: #1f77b4; stroke-opacity: 0.8; stroke-width: 1.5; stroke-linecap: square"/>
   </g>
   <g id="line2d_19">
    <path d="M 147.070811 193.877591 
L 147.941782 193.342781 
L 148.377268 193.289215 
L 149.248239 193.680622 
L 149.683725 193.551559 
L 151.425667 194.264358 
L 154.909552 193.833304 
L 158.393437 195.055185 
L 160.13538 195.870896 
L 160.570866 195.727915 
L 161.441837 196.100763 
L 161.877322 195.851073 
L 162.748294 196.29478 
L 163.619265 196.230248 
L 164.490236 196.667628 
L 164.925722 196.347501 
L 167.538636 196.246276 
L 167.974121 195.925305 
L 168.845093 195.895781 
L 169.280578 195.655791 
L 170.15155 196.022313 
L 170.587035 195.455027 
L 172.328978 195.369828 
L 172.764463 195.166111 
L 173.635435 195.095253 
L 174.941892 194.09143 
L 177.11932 192.732473 
L 177.554806 192.737535 
L 178.861262 191.822706 
L 179.296748 191.819332 
L 179.732234 191.518185 
L 180.167719 191.385326 
L 180.603205 191.392496 
L 181.038691 191.678459 
L 181.474176 191.691956 
L 182.345148 192.122166 
L 183.216119 192.025158 
L 184.08709 191.975388 
L 184.522576 192.182901 
L 185.829033 192.007021 
L 186.264518 192.009552 
L 186.700004 191.727385 
L 187.13549 191.669602 
L 188.006461 192.240684 
L 188.441947 192.232671 
L 188.877432 192.07324 
L 191.05486 191.93068 
L 192.361317 191.117077 
L 193.232289 191.113703 
L 194.10326 191.354115 
L 194.538746 191.238127 
L 195.409717 191.701657 
L 195.845202 192.076192 
L 196.280688 192.066913 
L 197.151659 191.519028 
L 198.022631 191.84506 
L 198.893602 191.791495 
L 199.764573 191.34357 
L 200.200059 191.546022 
L 201.07103 191.382374 
L 201.506516 191.176969 
L 201.942001 191.148711 
L 202.377487 190.985062 
L 203.248458 190.29293 
L 204.554915 189.885496 
L 204.990401 189.618513 
L 205.425887 189.038995 
L 205.861372 188.97826 
L 206.296858 189.087921 
L 207.167829 189.57507 
L 207.603315 189.04954 
L 208.0388 189.005675 
L 208.474286 188.08452 
L 209.780743 187.985403 
L 211.0872 187.08871 
L 211.522686 186.060425 
L 211.958171 185.839837 
L 213.264628 185.63148 
L 213.700114 185.419328 
L 214.135599 184.443342 
L 215.006571 184.024941 
L 215.877542 184.503655 
L 216.748513 182.806014 
L 217.183999 182.595126 
L 218.490456 181.572324 
L 219.361427 181.507792 
L 219.796913 181.251353 
L 220.232398 180.725822 
L 220.667884 180.447451 
L 221.10337 180.496377 
L 221.538855 180.687019 
L 221.974341 180.623331 
L 222.845312 179.979704 
L 223.280798 179.193516 
L 224.151769 179.562569 
L 224.587255 179.547385 
L 225.02274 178.420825 
L 225.458226 178.329722 
L 225.893712 177.80377 
L 226.764683 177.181231 
L 228.506626 177.221299 
L 229.377597 176.750599 
L 230.684054 176.705047 
L 231.119539 176.922683 
L 231.990511 176.433846 
L 232.861482 176.725293 
L 233.296968 176.970343 
L 233.732453 176.751864 
L 234.603425 176.601713 
L 235.03891 175.791906 
L 235.474396 175.668748 
L 236.345367 175.163884 
L 236.780853 175.170632 
L 237.216338 174.855567 
L 237.651824 174.722286 
L 238.08731 174.440119 
L 238.522795 174.465004 
L 238.958281 174.273096 
L 239.393767 173.954657 
L 240.700224 173.520229 
L 241.571195 173.045733 
L 242.00668 173.053747 
L 243.313137 171.058332 
L 243.748623 170.859676 
L 244.184109 170.006849 
L 245.05508 169.965936 
L 245.926051 170.068428 
L 246.361537 169.820003 
L 246.797022 170.04987 
L 247.232508 169.918276 
L 247.667994 169.53404 
L 248.538965 169.987025 
L 249.409936 169.467399 
L 249.845422 169.538679 
L 250.280908 169.342132 
L 250.716393 168.996277 
L 251.151879 168.903909 
L 251.587365 168.690913 
L 252.02285 168.687538 
L 252.458336 168.491413 
L 253.329307 168.403262 
L 253.764793 168.023244 
L 254.200278 167.994141 
L 254.635764 167.737281 
L 255.07125 166.667661 
L 255.506735 166.834684 
L 255.942221 166.102061 
L 256.813192 165.810194 
L 257.248678 165.800071 
L 258.555135 165.311235 
L 258.99062 165.457168 
L 259.426106 165.304486 
L 259.861592 165.399385 
L 260.297077 165.713186 
L 260.732563 165.667634 
L 261.168049 165.48838 
L 262.03902 165.579905 
L 262.474506 165.29352 
L 262.909991 165.590027 
L 263.345477 165.547006 
L 263.780962 165.831704 
L 264.216448 165.700532 
L 264.651934 165.763377 
L 265.522905 165.35299 
L 266.829362 164.560054 
L 267.264848 164.020605 
L 268.135819 163.6486 
L 269.442276 163.014251 
L 269.877761 162.610192 
L 270.313247 162.360923 
L 270.748733 162.405209 
L 271.184218 162.152988 
L 271.619704 162.105749 
L 272.05519 161.787731 
L 272.926161 161.489537 
L 273.361647 161.000701 
L 274.232618 161.155913 
L 275.103589 160.982564 
L 275.539075 159.875406 
L 275.97456 159.632464 
L 276.845532 159.537987 
L 277.716503 159.321195 
L 279.458446 158.823079 
L 280.764902 157.845406 
L 282.506845 157.480993 
L 282.942331 157.23299 
L 283.377816 156.760181 
L 283.813302 156.564056 
L 284.684273 156.914129 
L 285.119759 156.691432 
L 285.555245 156.737405 
L 285.99073 156.53411 
L 286.426216 156.710833 
L 286.861701 156.401673 
L 287.297187 156.52947 
L 287.732673 156.868155 
L 288.603644 157.036021 
L 289.03913 157.192922 
L 289.474615 157.213167 
L 289.910101 157.491538 
L 290.345587 158.059246 
L 290.781072 157.746711 
L 291.216558 157.855529 
L 291.652044 157.509674 
L 292.087529 157.456952 
L 292.523015 158.169751 
L 292.9585 158.177765 
L 293.393986 159.1179 
L 294.700443 159.194241 
L 295.135929 159.24401 
L 295.571414 159.023422 
L 296.442386 158.868631 
L 296.877871 158.579716 
L 297.313357 157.631989 
L 297.748842 157.365849 
L 298.184328 157.482681 
L 298.619814 157.456109 
L 299.055299 158.165955 
L 299.490785 158.021708 
L 299.926271 158.154989 
L 300.797242 157.818413 
L 301.232728 158.233439 
L 301.668213 158.189996 
L 302.103699 157.818835 
L 302.539185 157.95085 
L 302.97467 157.78214 
L 303.410156 158.06979 
L 304.281127 158.155832 
L 306.02307 159.042402 
L 306.458555 158.845012 
L 306.894041 159.128022 
L 307.329527 159.732425 
L 307.765012 159.694044 
L 308.200498 160.553198 
L 308.635984 160.527048 
L 309.071469 160.357073 
L 309.506955 160.378583 
L 309.94244 161.557021 
L 310.377926 161.315344 
L 310.813412 161.824848 
L 313.426326 161.933665 
L 313.861811 161.832861 
L 314.297297 162.070742 
L 315.168268 162.037 
L 315.603754 162.31748 
L 316.039239 162.310732 
L 316.474725 161.60426 
L 316.910211 161.87293 
L 319.087639 161.594559 
L 319.523125 161.880944 
L 319.95861 161.33348 
L 321.265067 161.88474 
L 322.136038 161.875882 
L 322.571524 162.181247 
L 323.00701 162.167328 
L 323.877981 161.767065 
L 324.313467 161.955176 
L 326.490895 161.724887 
L 326.92638 161.593294 
L 327.361866 162.328868 
L 327.797352 162.732928 
L 328.232837 163.304854 
L 328.668323 163.276173 
L 329.103809 163.938359 
L 329.97478 163.687403 
L 330.410266 163.854004 
L 330.845751 163.491278 
L 331.281237 163.481577 
L 332.152208 163.166512 
L 332.587694 163.362215 
L 333.458665 162.907121 
L 333.894151 162.928631 
L 334.765122 163.220077 
L 335.200608 163.159342 
L 335.636093 163.341548 
L 336.507065 163.216703 
L 336.94255 162.950563 
L 337.378036 162.891515 
L 337.813521 163.048415 
L 338.249007 162.763717 
L 338.684493 163.033653 
L 339.119978 162.965747 
L 339.555464 163.15892 
L 339.99095 163.894494 
L 340.426435 164.208295 
L 340.861921 164.672668 
L 341.297407 164.369412 
L 342.168378 164.130266 
L 342.603864 164.457563 
L 343.039349 164.636817 
L 343.474835 164.603075 
L 343.91032 164.685321 
L 344.345806 164.889038 
L 344.781292 164.955679 
L 345.216777 164.69924 
L 345.652263 164.761241 
L 346.087749 164.983938 
L 347.394206 165.104143 
L 347.829691 164.88693 
L 348.265177 165.135776 
L 349.136148 165.077572 
L 350.007119 165.003339 
L 350.878091 164.993638 
L 351.749062 165.002917 
L 352.184548 165.342024 
L 353.491005 165.460964 
L 353.92649 165.33401 
L 354.797461 165.93293 
L 355.232947 166.012224 
L 355.668433 165.777717 
L 356.103918 165.952753 
L 356.539404 165.754941 
L 356.97489 165.896236 
L 357.410375 165.756207 
L 357.845861 165.858276 
L 358.281347 166.097422 
L 360.023289 165.404447 
L 360.458775 166.488407 
L 360.89426 166.781118 
L 362.200717 167.221029 
L 362.636203 167.12866 
L 365.249117 167.488856 
L 366.120088 167.679498 
L 366.555574 167.990345 
L 366.991059 167.864235 
L 367.862031 167.915691 
L 368.297516 168.169599 
L 369.168488 168.006795 
L 369.603973 167.581224 
L 370.039459 166.497264 
L 370.474945 166.315058 
L 370.91043 165.528448 
L 371.345916 165.287193 
L 371.781401 165.406134 
L 372.216887 165.24122 
L 372.652373 164.660015 
L 373.087858 164.487087 
L 373.523344 164.029884 
L 373.95883 164.053925 
L 374.394315 163.630885 
L 374.829801 163.390896 
L 375.265287 162.936645 
L 375.700772 163.043776 
L 376.136258 162.837528 
L 376.571744 163.155124 
L 377.442715 162.735037 
L 378.313686 162.732928 
L 378.749172 162.563375 
L 379.184657 161.734588 
L 380.055629 161.993136 
L 380.491114 162.394243 
L 380.9266 162.553674 
L 381.362086 163.558762 
L 381.797571 163.483264 
L 382.233057 164.229383 
L 382.668543 164.338201 
L 383.104028 163.881841 
L 383.539514 163.676859 
L 383.974999 163.939203 
L 384.410485 163.77218 
L 385.716942 163.924862 
L 386.152428 163.581538 
L 386.587913 164.476965 
L 387.023399 164.769676 
L 387.458885 164.739309 
L 387.89437 164.987734 
L 388.329856 164.532639 
L 388.765341 164.751962 
L 389.636313 164.2239 
L 390.507284 164.16907 
L 390.94277 164.338201 
L 391.378255 164.362664 
L 392.249227 163.829119 
L 392.684712 164.024401 
L 393.991169 163.776819 
L 394.426655 164.015965 
L 395.297626 164.20239 
L 396.604083 164.584939 
L 397.039569 164.843487 
L 398.346026 165.052265 
L 398.781511 165.12945 
L 399.216997 164.914345 
L 400.087968 165.092334 
L 400.523454 164.944713 
L 400.958939 165.251764 
L 401.394425 166.491781 
L 401.829911 166.425984 
L 401.829911 166.425984 
" clip-path="url(#p6c4ec83ce2)" style="fill: none; stroke: #ff7f0e; stroke-opacity: 0.8; stroke-width: 1.5; stroke-linecap: square"/>
   </g>
   <g id="line2d_20">
    <path d="M 147.070811 202.565299 
L 148.377268 202.02121 
L 149.248239 202.058748 
L 150.11921 202.001809 
L 152.296638 202.591871 
L 152.732124 202.56783 
L 153.16761 202.030911 
L 153.603095 201.979455 
L 154.474067 202.054952 
L 156.216009 202.081524 
L 156.651495 202.061701 
L 157.08698 202.164614 
L 157.957952 202.04019 
L 158.393437 202.203417 
L 159.264409 202.260778 
L 160.13538 202.419365 
L 160.570866 202.366222 
L 161.006351 202.476305 
L 163.619265 201.352698 
L 164.490236 200.949482 
L 165.361208 200.969305 
L 165.796693 200.803969 
L 168.409607 200.836446 
L 169.280578 200.824636 
L 169.716064 200.825058 
L 170.15155 200.612484 
L 170.587035 200.589286 
L 171.022521 199.894202 
L 171.893492 199.625954 
L 173.635435 199.669396 
L 176.248349 198.7242 
L 177.11932 198.331528 
L 177.554806 198.174628 
L 177.990291 198.213009 
L 179.296748 197.676512 
L 180.167719 197.852392 
L 180.603205 197.694227 
L 181.909662 198.099552 
L 182.780633 198.209635 
L 183.216119 198.031646 
L 184.08709 198.12992 
L 184.522576 197.864624 
L 185.829033 197.738935 
L 186.264518 197.558837 
L 186.700004 197.576974 
L 187.13549 197.443693 
L 187.570975 197.620838 
L 188.441947 197.622947 
L 188.877432 197.78533 
L 189.748403 197.787017 
L 190.619375 197.541966 
L 191.05486 197.552089 
L 191.490346 197.732608 
L 192.361317 197.746527 
L 192.796803 197.763398 
L 193.667774 197.457612 
L 194.974231 197.361025 
L 195.409717 197.556729 
L 195.845202 198.120641 
L 200.200059 198.585014 
L 201.07103 198.214275 
L 201.506516 198.211744 
L 201.942001 198.076355 
L 203.683944 198.851154 
L 205.425887 199.420549 
L 207.167829 199.593055 
L 208.909772 199.007632 
L 209.345257 199.152723 
L 210.216229 199.102532 
L 211.522686 199.415066 
L 214.135599 199.559313 
L 214.571085 199.755017 
L 215.006571 199.748268 
L 215.442056 199.999646 
L 216.748513 199.938067 
L 217.183999 200.111838 
L 217.619485 199.922039 
L 218.925941 200.764323 
L 220.232398 200.794269 
L 221.974341 201.358181 
L 223.716283 200.60447 
L 224.151769 200.841929 
L 224.587255 200.89676 
L 225.02274 200.749982 
L 226.329197 201.111865 
L 226.764683 201.129579 
L 227.200169 201.321065 
L 228.07114 201.078545 
L 230.248568 200.972679 
L 230.684054 200.829698 
L 231.119539 200.86344 
L 231.555025 200.757574 
L 231.990511 200.802704 
L 233.296968 201.445066 
L 233.732453 201.440849 
L 234.167939 201.251894 
L 235.03891 201.271717 
L 235.474396 201.018231 
L 236.345367 200.717084 
L 237.216338 200.345922 
L 237.651824 200.368276 
L 238.08731 200.711601 
L 238.522795 200.534034 
L 239.393767 200.505353 
L 241.135709 199.707356 
L 241.571195 199.470741 
L 242.442166 199.544551 
L 242.877652 199.698499 
L 245.490566 199.227799 
L 245.926051 199.227799 
L 246.797022 199.526837 
L 247.232508 199.539912 
L 248.538965 200.071769 
L 249.409936 200.424794 
L 249.845422 200.243431 
L 250.280908 200.243853 
L 250.716393 200.417202 
L 251.151879 200.216016 
L 251.587365 200.228669 
L 252.02285 200.058694 
L 253.764793 199.965482 
L 254.635764 199.707356 
L 255.07125 199.948189 
L 255.506735 199.840637 
L 255.942221 200.389365 
L 256.377707 200.323147 
L 256.813192 200.455584 
L 257.684164 200.457693 
L 258.119649 200.304589 
L 258.555135 200.298684 
L 258.99062 200.477094 
L 259.426106 200.377556 
L 260.732563 200.952856 
L 261.168049 200.624294 
L 262.03902 201.007265 
L 262.909991 200.885794 
L 263.345477 200.911522 
L 263.780962 201.06547 
L 265.087419 201.25569 
L 265.522905 201.396141 
L 265.958391 201.202124 
L 269.00679 201.139702 
L 270.313247 201.805262 
L 271.184218 201.729342 
L 271.619704 201.706988 
L 272.05519 201.862623 
L 272.926161 201.588891 
L 273.797132 201.294071 
L 274.232618 201.472482 
L 275.103589 201.58847 
L 275.97456 201.965536 
L 276.410046 201.941073 
L 278.151989 202.697315 
L 278.587474 202.825956 
L 279.893931 202.725152 
L 280.329417 202.524809 
L 280.764902 202.526074 
L 281.200388 202.311813 
L 282.942331 202.385202 
L 283.377816 202.422318 
L 284.248788 202.170518 
L 284.684273 202.350616 
L 285.555245 202.318139 
L 285.99073 202.488114 
L 286.426216 202.513421 
L 286.861701 202.677491 
L 288.603644 202.685083 
L 289.474615 202.461121 
L 289.910101 202.63194 
L 290.781072 202.559816 
L 292.087529 202.860541 
L 292.9585 203.034312 
L 295.135929 203.212723 
L 295.571414 203.051605 
L 296.0069 202.368752 
L 296.877871 202.494019 
L 297.313357 202.613381 
L 297.748842 202.426957 
L 298.619814 202.660198 
L 299.055299 202.858432 
L 301.232728 202.154491 
L 304.281127 202.121171 
L 304.716613 201.913236 
L 305.587584 201.983251 
L 306.02307 201.93559 
L 306.458555 201.773207 
L 306.894041 201.930529 
L 307.765012 201.880338 
L 309.071469 202.17094 
L 309.94244 201.956679 
L 310.377926 201.951196 
L 311.248897 201.634443 
L 311.684383 201.781642 
L 312.119869 201.798935 
L 312.99084 202.107674 
L 313.426326 202.131715 
L 313.861811 201.949087 
L 314.297297 201.96638 
L 315.168268 202.197512 
L 315.603754 202.359895 
L 316.474725 202.138042 
L 316.910211 202.102191 
L 317.781182 201.761819 
L 318.216668 201.828881 
L 318.652153 201.771942 
L 319.087639 201.941917 
L 319.523125 201.795983 
L 320.394096 201.858405 
L 320.829581 201.973128 
L 321.700553 201.996747 
L 322.136038 202.049047 
L 323.00701 202.296629 
L 324.313467 201.897209 
L 324.748952 202.057061 
L 325.184438 202.07351 
L 326.490895 202.643749 
L 326.92638 202.457747 
L 327.361866 202.595667 
L 327.797352 202.467026 
L 328.232837 202.526496 
L 328.668323 202.315187 
L 329.103809 202.561503 
L 329.539294 202.515952 
L 329.97478 202.677069 
L 331.281237 202.694784 
L 331.716722 202.682974 
L 332.152208 202.847888 
L 332.587694 202.687192 
L 333.894151 202.482631 
L 334.329636 202.291568 
L 335.200608 202.293676 
L 335.636093 202.057061 
L 336.071579 202.101769 
L 336.507065 201.907331 
L 337.378036 202.238424 
L 337.813521 202.235893 
L 338.249007 201.968488 
L 339.119978 202.209322 
L 339.555464 202.244751 
L 339.99095 202.089538 
L 340.426435 202.217757 
L 340.861921 202.143525 
L 341.297407 202.376766 
L 341.732892 202.380562 
L 342.168378 202.030911 
L 342.603864 201.85714 
L 343.039349 202.055796 
L 345.652263 201.920828 
L 346.087749 202.421052 
L 346.523234 202.43961 
L 346.95872 202.272588 
L 347.394206 202.502877 
L 348.265177 202.362847 
L 348.700662 202.065075 
L 349.136148 202.199199 
L 351.313576 202.084476 
L 351.749062 202.228301 
L 352.184548 202.186968 
L 352.620033 202.367487 
L 353.491005 202.135089 
L 354.797461 202.167566 
L 355.232947 201.909018 
L 356.103918 201.77869 
L 356.539404 201.946556 
L 356.97489 201.92842 
L 358.716832 202.346398 
L 359.152318 202.32784 
L 359.587804 202.448468 
L 361.329746 201.943604 
L 363.071689 201.809479 
L 363.507174 201.584252 
L 363.94266 201.631912 
L 364.378146 201.982829 
L 365.249117 201.904379 
L 365.684603 201.717533 
L 366.120088 201.774472 
L 368.297516 201.219839 
L 369.168488 201.462359 
L 369.603973 201.226587 
L 370.474945 201.591422 
L 372.652373 201.464468 
L 373.087858 201.275091 
L 373.523344 201.264969 
L 374.394315 201.369147 
L 374.829801 201.340888 
L 375.700772 201.706988 
L 377.007229 201.358181 
L 377.442715 201.391079 
L 377.8782 201.560633 
L 378.313686 201.579612 
L 378.749172 201.762663 
L 379.620143 201.488509 
L 380.491114 201.556415 
L 380.9266 202.246438 
L 381.797571 202.310969 
L 382.233057 202.38478 
L 382.668543 202.590606 
L 384.410485 202.414726 
L 385.716942 202.98623 
L 387.458885 202.484318 
L 387.89437 202.618021 
L 388.765341 202.306751 
L 389.200827 202.317718 
L 389.636313 202.526918 
L 390.071798 202.364956 
L 390.94277 202.359051 
L 391.378255 202.528605 
L 392.249227 202.500768 
L 392.684712 202.477992 
L 393.555684 202.119484 
L 394.426655 202.227458 
L 394.86214 202.497393 
L 395.297626 202.293255 
L 395.733112 202.266261 
L 396.168597 202.366222 
L 396.604083 202.2089 
L 397.475054 202.206369 
L 398.346026 201.844065 
L 398.781511 202.033863 
L 399.216997 202.052843 
L 399.652483 201.882446 
L 400.523454 201.717954 
L 400.958939 201.634865 
L 401.394425 201.850392 
L 401.829911 201.86431 
L 401.829911 201.86431 
" clip-path="url(#p6c4ec83ce2)" style="fill: none; stroke: #2ca02c; stroke-opacity: 0.8; stroke-width: 1.5; stroke-linecap: square"/>
   </g>
   <g id="line2d_21">
    <path d="M 147.070811 181.070412 
L 147.506296 181.013473 
L 147.941782 180.689128 
L 148.812753 180.679427 
L 149.683725 181.072521 
L 150.11921 181.296905 
L 150.554696 181.050167 
L 151.425667 181.074208 
L 151.861153 181.368185 
L 152.296638 181.518758 
L 153.603095 181.420485 
L 155.345038 181.957404 
L 156.216009 182.056099 
L 157.08698 182.111773 
L 158.393437 182.135392 
L 162.312808 183.814476 
L 162.748294 183.885334 
L 163.183779 183.805197 
L 164.054751 183.992465 
L 164.490236 184.13165 
L 164.925722 183.495193 
L 165.361208 181.777306 
L 165.796693 181.532677 
L 166.232179 179.824912 
L 166.667665 178.763728 
L 167.10315 178.736313 
L 167.538636 178.587005 
L 169.280578 178.684013 
L 169.716064 178.961118 
L 171.458007 179.217557 
L 171.893492 179.020589 
L 172.764463 178.97335 
L 173.199949 178.724503 
L 173.635435 178.742218 
L 174.506406 178.245789 
L 175.377377 178.32213 
L 175.812863 178.538501 
L 176.248349 178.533439 
L 176.683834 178.699197 
L 177.11932 178.738422 
L 177.990291 178.274892 
L 178.425777 178.295137 
L 178.861262 178.165652 
L 179.296748 178.220061 
L 180.167719 177.707183 
L 181.038691 177.637169 
L 181.474176 176.711374 
L 181.909662 176.681428 
L 182.345148 176.429629 
L 182.780633 176.661183 
L 183.651605 176.556161 
L 184.522576 177.022643 
L 185.393547 176.987214 
L 186.700004 177.028548 
L 187.13549 177.17406 
L 187.570975 176.994385 
L 188.006461 177.225939 
L 188.441947 176.986371 
L 188.877432 176.95769 
L 189.312918 176.775484 
L 191.05486 177.517807 
L 191.490346 176.295504 
L 192.361317 172.630285 
L 192.796803 172.868166 
L 193.667774 169.529822 
L 194.538746 169.647919 
L 194.974231 169.592666 
L 195.409717 169.402446 
L 196.280688 169.533196 
L 197.151659 169.523495 
L 197.587145 169.751675 
L 198.022631 169.488488 
L 199.764573 170.310526 
L 200.635545 170.695184 
L 201.07103 170.616734 
L 201.506516 170.242199 
L 201.942001 170.131272 
L 202.812973 170.145612 
L 203.683944 170.041434 
L 204.554915 173.243123 
L 204.990401 173.281505 
L 205.425887 173.588557 
L 205.861372 173.737021 
L 206.296858 174.009487 
L 207.167829 174.066849 
L 210.216229 172.605822 
L 210.651714 172.304254 
L 211.0872 172.324077 
L 211.522686 172.511767 
L 211.958171 172.522311 
L 212.829142 172.103911 
L 213.264628 172.07987 
L 214.571085 171.549277 
L 215.006571 171.533672 
L 215.442056 171.845363 
L 215.877542 171.823431 
L 216.313028 171.297478 
L 217.183999 171.37171 
L 218.05497 171.359901 
L 219.796913 170.440854 
L 220.232398 170.442542 
L 220.667884 170.210144 
L 221.10337 170.442542 
L 221.974341 170.384758 
L 222.409827 170.112292 
L 224.151769 171.026277 
L 224.587255 171.025855 
L 225.458226 170.523522 
L 226.329197 170.592693 
L 226.764683 170.804846 
L 229.377597 170.479236 
L 229.813082 170.612938 
L 230.248568 169.290254 
L 230.684054 169.345506 
L 231.119539 169.702749 
L 231.555025 169.760111 
L 232.861482 170.493576 
L 233.296968 170.529427 
L 233.732453 170.742423 
L 234.167939 170.643306 
L 234.603425 169.751253 
L 235.03891 169.602367 
L 235.474396 169.631048 
L 237.216338 168.736464 
L 237.651824 168.671933 
L 238.08731 168.845704 
L 238.522795 168.876915 
L 238.958281 168.331561 
L 239.829252 168.259016 
L 241.135709 168.897582 
L 241.571195 168.168334 
L 242.00668 168.257329 
L 242.442166 167.429807 
L 243.313137 167.408718 
L 245.926051 165.890331 
L 246.797022 165.949801 
L 247.232508 165.582435 
L 247.667994 165.575687 
L 248.103479 165.748193 
L 249.409936 165.804289 
L 249.845422 166.429358 
L 250.280908 167.966726 
L 250.716393 168.006795 
L 251.151879 169.524339 
L 251.587365 170.409221 
L 252.02285 170.249791 
L 252.458336 170.237137 
L 252.893821 169.987025 
L 253.329307 169.992086 
L 254.635764 169.392745 
L 255.07125 169.472882 
L 255.942221 169.431127 
L 256.377707 169.442936 
L 258.119649 170.39235 
L 258.555135 170.387711 
L 259.426106 170.68464 
L 260.297077 170.740314 
L 260.732563 169.154864 
L 261.168049 169.153177 
L 261.603534 168.996699 
L 262.474506 168.972658 
L 262.909991 169.213913 
L 263.345477 168.933433 
L 263.780962 169.156973 
L 264.216448 169.138415 
L 265.087419 169.549645 
L 265.522905 169.493549 
L 265.958391 169.31556 
L 266.829362 169.834343 
L 267.264848 169.865976 
L 268.135819 169.467821 
L 269.00679 169.563564 
L 269.442276 169.185654 
L 270.748733 169.445467 
L 271.184218 166.906385 
L 271.619704 166.960794 
L 272.05519 166.326445 
L 272.490675 166.502747 
L 272.926161 164.97972 
L 273.361647 165.234472 
L 273.797132 165.220975 
L 274.232618 165.387576 
L 275.539075 165.028646 
L 275.97456 164.407372 
L 276.410046 165.650763 
L 276.845532 167.943528 
L 277.281017 169.51506 
L 277.716503 168.039693 
L 278.151989 167.993298 
L 278.587474 169.672803 
L 279.458446 169.724682 
L 282.071359 169.872303 
L 282.506845 169.602367 
L 282.942331 169.845731 
L 284.684273 169.746192 
L 285.555245 169.342554 
L 285.99073 169.316826 
L 286.426216 169.650871 
L 286.861701 169.750832 
L 287.732673 169.322731 
L 288.603644 169.437031 
L 289.03913 169.463603 
L 289.474615 169.646232 
L 289.910101 169.629361 
L 290.345587 169.884534 
L 290.781072 169.898453 
L 291.216558 169.63864 
L 291.652044 169.512107 
L 292.9585 169.884956 
L 294.264957 170.542924 
L 294.700443 170.70615 
L 295.135929 170.476283 
L 295.571414 170.560638 
L 296.442386 170.029203 
L 297.748842 170.065897 
L 298.184328 169.891704 
L 299.055299 170.358187 
L 299.490785 170.203395 
L 299.926271 170.189055 
L 300.361756 169.943582 
L 300.797242 169.857119 
L 301.232728 170.379697 
L 302.103699 170.298716 
L 302.539185 170.429045 
L 302.97467 170.417657 
L 303.410156 170.614625 
L 303.845641 170.685905 
L 304.281127 169.818315 
L 304.716613 169.998835 
L 305.587584 170.051557 
L 306.02307 170.232076 
L 306.458555 168.260703 
L 306.894041 166.983148 
L 307.329527 167.157763 
L 308.200498 167.153123 
L 309.506955 166.5154 
L 310.377926 166.644885 
L 310.813412 166.613252 
L 311.248897 166.801785 
L 311.684383 165.867555 
L 312.119869 165.586653 
L 312.99084 165.556707 
L 313.426326 165.798806 
L 313.861811 165.579905 
L 314.297297 165.778561 
L 314.732782 165.345398 
L 315.168268 166.674831 
L 315.603754 166.652055 
L 316.039239 166.455087 
L 316.910211 166.376215 
L 317.781182 165.935882 
L 318.216668 165.921542 
L 319.087639 165.677756 
L 319.523125 166.289329 
L 321.265067 166.100374 
L 322.571524 166.832153 
L 323.00701 166.869691 
L 323.442495 166.787023 
L 323.877981 167.327316 
L 324.313467 166.795037 
L 325.184438 166.871378 
L 326.055409 166.733036 
L 326.490895 167.648286 
L 326.92638 167.764696 
L 327.361866 168.671511 
L 327.797352 168.927528 
L 328.232837 168.809431 
L 328.668323 167.850316 
L 329.103809 168.082292 
L 329.539294 168.037162 
L 329.97478 168.321438 
L 330.410266 168.030414 
L 330.845751 168.2839 
L 333.023179 168.341262 
L 333.458665 167.935515 
L 334.765122 167.944794 
L 335.200608 168.227383 
L 336.071579 168.092415 
L 336.507065 168.086932 
L 336.94255 168.250158 
L 337.813521 168.229913 
L 338.249007 167.327316 
L 338.684493 167.490964 
L 339.119978 167.318037 
L 339.555464 167.534829 
L 339.99095 167.247601 
L 340.426435 167.105041 
L 341.297407 167.091544 
L 342.603864 166.459304 
L 343.474835 166.457617 
L 344.345806 166.267397 
L 345.216777 166.223533 
L 345.652263 166.985679 
L 346.087749 166.947719 
L 346.95872 167.402814 
L 347.394206 167.225247 
L 347.829691 167.21175 
L 348.265177 167.486325 
L 348.700662 167.250131 
L 349.136148 167.494339 
L 349.571634 167.203314 
L 350.878091 166.981039 
L 351.313576 167.504883 
L 351.749062 167.051897 
L 352.184548 166.415862 
L 352.620033 166.393508 
L 353.055519 166.181777 
L 353.491005 166.368623 
L 353.92649 166.140021 
L 354.361976 166.33699 
L 355.668433 165.956549 
L 356.103918 168.240036 
L 356.539404 168.254376 
L 356.97489 168.769784 
L 357.410375 168.333248 
L 357.845861 169.706123 
L 358.281347 169.634 
L 359.152318 169.229097 
L 360.023289 169.257356 
L 360.458775 168.031679 
L 360.89426 168.306676 
L 361.329746 168.30035 
L 361.765232 168.124048 
L 362.200717 168.15062 
L 362.636203 169.393167 
L 363.071689 171.207218 
L 364.378146 171.058332 
L 364.813631 170.825934 
L 365.249117 171.051584 
L 365.684603 170.811594 
L 366.991059 170.851241 
L 367.426545 170.891731 
L 368.297516 170.523522 
L 369.168488 170.471222 
L 369.603973 170.160374 
L 371.345916 170.405425 
L 371.781401 170.34005 
L 372.216887 170.467848 
L 373.087858 170.397833 
L 373.523344 170.098795 
L 373.95883 170.27805 
L 374.394315 170.030046 
L 375.700772 169.885799 
L 376.136258 169.005134 
L 377.442715 169.455589 
L 379.184657 169.384731 
L 379.620143 169.108469 
L 380.055629 169.063339 
L 380.9266 168.240879 
L 381.362086 168.472012 
L 381.797571 168.226961 
L 382.233057 168.436161 
L 382.668543 168.333248 
L 383.104028 168.524733 
L 383.539514 168.50491 
L 383.974999 168.329874 
L 384.845971 168.539917 
L 385.716942 168.745321 
L 386.152428 168.558475 
L 386.587913 168.543292 
L 388.765341 167.938889 
L 389.200827 168.829676 
L 389.636313 168.558054 
L 390.071798 168.539074 
L 390.507284 168.701879 
L 390.94277 168.510815 
L 391.378255 170.281845 
L 391.813741 171.551808 
L 392.249227 171.415575 
L 393.991169 171.476732 
L 395.297626 171.785893 
L 395.733112 171.542951 
L 396.168597 171.44046 
L 396.604083 171.760586 
L 397.039569 172.284852 
L 397.475054 172.377642 
L 398.346026 172.079026 
L 398.781511 172.084509 
L 399.216997 171.909895 
L 400.087968 172.511345 
L 400.958939 172.903595 
L 401.829911 172.736994 
L 401.829911 172.736994 
" clip-path="url(#p6c4ec83ce2)" style="fill: none; stroke: #d62728; stroke-opacity: 0.8; stroke-width: 1.5; stroke-linecap: square"/>
   </g>
   <g id="line2d_22">
    <path d="M 147.070811 86.23318 
L 147.506296 86.015966 
L 147.941782 86.217996 
L 148.377268 86.210826 
L 149.248239 86.900849 
L 150.11921 87.518327 
L 150.554696 87.898767 
L 150.990181 87.847311 
L 151.425667 87.36691 
L 152.296638 87.938836 
L 152.732124 87.724152 
L 155.345038 89.469877 
L 156.216009 89.432339 
L 156.651495 89.428121 
L 157.08698 89.291888 
L 157.957952 89.971366 
L 158.828923 90.128688 
L 160.13538 89.833024 
L 160.570866 90.018183 
L 161.877322 88.992428 
L 162.312808 89.151859 
L 163.619265 88.971339 
L 164.490236 88.102484 
L 164.925722 88.438638 
L 165.361208 88.076334 
L 165.796693 88.184308 
L 166.232179 87.817365 
L 166.667665 88.751595 
L 167.974121 87.451686 
L 168.409607 85.179166 
L 168.845093 82.007001 
L 169.716064 81.917585 
L 170.587035 81.973681 
L 171.022521 82.738358 
L 171.458007 83.21918 
L 172.764463 83.239847 
L 173.199949 81.427905 
L 173.635435 77.755937 
L 174.506406 77.668208 
L 174.941892 77.263726 
L 175.377377 77.240529 
L 176.248349 77.388993 
L 176.683834 77.421892 
L 177.11932 77.318135 
L 177.554806 77.644589 
L 178.425777 77.492328 
L 179.732234 77.379293 
L 180.167719 76.897626 
L 180.603205 76.87485 
L 181.474176 75.918688 
L 182.345148 75.004703 
L 182.780633 74.943967 
L 183.651605 74.094092 
L 184.08709 73.96756 
L 184.522576 73.556751 
L 184.958061 73.544098 
L 185.393547 73.878144 
L 186.264518 73.177998 
L 187.13549 73.32815 
L 187.570975 72.937587 
L 188.441947 72.865041 
L 188.877432 72.514125 
L 189.312918 73.080146 
L 189.748403 73.179685 
L 191.05486 73.131603 
L 191.490346 72.700128 
L 193.232289 72.78153 
L 193.667774 73.226924 
L 194.10326 72.600589 
L 195.845202 72.660059 
L 196.280688 72.693801 
L 196.716174 72.304925 
L 197.587145 73.273319 
L 198.022631 73.417988 
L 198.458116 73.765108 
L 201.07103 73.609051 
L 201.506516 73.188121 
L 201.942001 72.95741 
L 202.377487 72.400668 
L 203.248458 72.210026 
L 203.683944 72.5795 
L 204.11943 72.582453 
L 204.554915 70.819436 
L 204.990401 70.316259 
L 205.425887 70.511541 
L 205.861372 70.425499 
L 206.296858 68.922295 
L 206.732343 68.716469 
L 208.0388 67.346124 
L 208.909772 67.257129 
L 209.345257 66.794865 
L 209.780743 66.86741 
L 211.522686 66.654414 
L 211.958171 67.049616 
L 214.571085 66.179496 
L 215.006571 66.234327 
L 216.748513 65.958486 
L 218.05497 64.709191 
L 218.490456 64.296695 
L 218.925941 64.355744 
L 220.232398 65.204354 
L 220.667884 65.076134 
L 221.10337 65.0774 
L 221.538855 64.613026 
L 222.409827 64.435459 
L 222.845312 64.461187 
L 223.280798 64.912908 
L 223.716283 64.890553 
L 224.587255 64.072733 
L 225.458226 65.043236 
L 225.893712 64.909955 
L 226.329197 64.62357 
L 226.764683 64.080747 
L 227.635654 63.884622 
L 228.07114 59.226124 
L 228.942111 60.188613 
L 229.813082 60.94865 
L 230.684054 60.090761 
L 231.119539 60.393173 
L 231.555025 59.964651 
L 232.425996 59.953685 
L 234.167939 58.684144 
L 234.603425 58.753315 
L 235.909881 58.467352 
L 236.345367 58.83767 
L 237.651824 57.745274 
L 238.522795 57.792934 
L 239.393767 57.014761 
L 239.829252 56.379147 
L 240.264738 56.039618 
L 240.700224 56.400657 
L 242.877652 54.07415 
L 243.748623 53.709315 
L 244.184109 53.613994 
L 244.619594 54.077946 
L 245.05508 54.251717 
L 245.490566 54.270697 
L 245.926051 54.66843 
L 246.361537 54.678552 
L 246.797022 54.889861 
L 247.232508 55.391351 
L 247.667994 55.711478 
L 248.103479 55.721601 
L 249.409936 57.042598 
L 249.845422 57.104599 
L 250.280908 57.564754 
L 250.716393 57.137919 
L 251.151879 57.560115 
L 251.587365 57.584578 
L 252.02285 57.91314 
L 252.458336 57.82752 
L 252.893821 56.838881 
L 253.329307 58.528087 
L 253.764793 61.195388 
L 254.200278 61.690551 
L 255.07125 62.472521 
L 255.506735 62.405881 
L 255.942221 62.898935 
L 256.377707 62.906527 
L 257.684164 61.453092 
L 258.119649 62.733599 
L 258.555135 66.098094 
L 259.426106 66.102733 
L 259.861592 66.510167 
L 262.474506 66.392492 
L 263.345477 65.678428 
L 263.780962 65.542195 
L 264.216448 65.79526 
L 265.087419 66.745939 
L 266.829362 66.745517 
L 267.264848 67.153373 
L 267.700333 66.808783 
L 268.571305 67.500493 
L 269.00679 67.411921 
L 269.442276 67.870389 
L 269.877761 67.863641 
L 270.313247 67.33811 
L 270.748733 67.76115 
L 271.619704 67.739218 
L 272.05519 67.248694 
L 272.490675 66.518603 
L 272.926161 66.949656 
L 273.361647 67.165604 
L 273.797132 67.098964 
L 274.232618 66.797395 
L 274.668104 67.070283 
L 275.97456 67.091794 
L 276.410046 67.54731 
L 278.587474 67.496697 
L 279.02296 68.168162 
L 279.458446 67.930703 
L 279.893931 67.469282 
L 280.329417 67.440601 
L 281.200388 66.772511 
L 282.071359 66.784742 
L 282.506845 66.346519 
L 282.942331 66.275661 
L 283.813302 65.517732 
L 284.248788 65.174408 
L 285.119759 64.162571 
L 285.555245 63.720973 
L 286.426216 64.729436 
L 286.861701 64.429132 
L 287.297187 64.443894 
L 287.732673 64.894349 
L 288.603644 64.947071 
L 289.03913 64.929357 
L 289.474615 66.116652 
L 290.345587 66.480643 
L 290.781072 66.094298 
L 291.216558 67.870811 
L 291.652044 68.066936 
L 292.087529 68.092664 
L 292.523015 68.522031 
L 292.9585 68.476479 
L 293.829472 67.656972 
L 294.264957 68.122189 
L 295.571414 67.013766 
L 296.442386 67.153373 
L 296.877871 67.173196 
L 297.748842 68.272762 
L 298.619814 68.217088 
L 299.055299 68.733762 
L 299.490785 68.903737 
L 300.797242 69.037017 
L 301.668213 69.108719 
L 302.103699 69.060637 
L 302.539185 69.449091 
L 302.97467 69.524588 
L 303.845641 70.306136 
L 304.281127 70.365185 
L 304.716613 70.272816 
L 305.152098 70.304028 
L 305.587584 68.16521 
L 306.02307 67.826525 
L 306.458555 68.301021 
L 307.329527 68.409839 
L 308.200498 68.336028 
L 308.635984 67.53297 
L 309.071469 64.126298 
L 310.377926 51.09347 
L 310.813412 47.114873 
L 311.684383 47.393666 
L 312.119869 46.910312 
L 312.555354 47.41855 
L 312.99084 52.559558 
L 313.426326 52.492496 
L 314.297297 51.556157 
L 315.168268 51.242357 
L 315.603754 51.15041 
L 316.039239 50.703751 
L 316.474725 50.602525 
L 316.910211 50.222506 
L 317.345696 50.149539 
L 318.216668 50.674227 
L 318.652153 50.201839 
L 319.087639 50.027647 
L 319.523125 49.376427 
L 320.829581 49.53881 
L 321.265067 49.47217 
L 321.700553 44.973946 
L 322.136038 44.956653 
L 322.571524 45.220262 
L 323.00701 44.182276 
L 323.877981 43.940599 
L 324.313467 43.662228 
L 324.748952 42.930449 
L 325.184438 43.364455 
L 325.619924 42.938041 
L 326.055409 43.404102 
L 326.490895 43.38934 
L 327.361866 44.38051 
L 328.232837 45.237977 
L 328.668323 45.082764 
L 329.103809 45.558525 
L 330.845751 45.358183 
L 331.716722 46.261623 
L 332.152208 46.204684 
L 332.587694 45.884557 
L 333.023179 46.265419 
L 333.894151 46.26331 
L 334.765122 45.341733 
L 335.636093 45.29112 
L 336.071579 45.26961 
L 336.507065 45.534484 
L 336.94255 45.041008 
L 337.378036 45.068845 
L 337.813521 46.505831 
L 338.249007 46.627723 
L 338.684493 47.157894 
L 339.119978 46.882475 
L 339.99095 45.839849 
L 340.426435 45.751698 
L 340.861921 45.824243 
L 341.297407 45.259909 
L 342.603864 46.556022 
L 343.039349 47.051607 
L 343.91032 46.70069 
L 344.781292 45.83057 
L 345.216777 45.840692 
L 345.652263 45.394455 
L 346.95872 45.444646 
L 347.394206 45.558104 
L 347.829691 45.1532 
L 348.265177 45.488089 
L 348.700662 45.622213 
L 349.136148 45.501164 
L 349.571634 45.185677 
L 350.007119 45.038899 
L 350.878091 46.067607 
L 351.749062 46.172207 
L 352.184548 45.612091 
L 352.620033 45.534906 
L 353.055519 45.121989 
L 353.92649 45.384754 
L 354.361976 44.878203 
L 354.797461 44.699793 
L 355.232947 44.799753 
L 355.668433 44.663942 
L 356.97489 45.880339 
L 357.410375 46.965143 
L 359.152318 46.761848 
L 359.587804 46.48896 
L 360.023289 46.081104 
L 360.89426 46.129608 
L 361.765232 45.227854 
L 362.200717 45.261596 
L 362.636203 45.004736 
L 363.071689 44.238372 
L 363.94266 44.104669 
L 364.378146 44.226562 
L 364.813631 44.685452 
L 365.249117 44.65171 
L 365.684603 44.470347 
L 366.120088 44.447572 
L 366.555574 44.866394 
L 366.991059 43.499423 
L 367.426545 43.962109 
L 367.862031 42.510362 
L 369.168488 43.733086 
L 369.603973 44.046886 
L 370.039459 41.061567 
L 370.474945 41.406578 
L 371.345916 41.433994 
L 372.216887 42.362741 
L 372.652373 42.4433 
L 373.087858 42.377503 
L 373.523344 40.86966 
L 373.95883 41.15984 
L 374.394315 41.700133 
L 374.829801 42.056955 
L 375.265287 42.099554 
L 375.700772 42.51711 
L 376.136258 41.971756 
L 377.007229 42.330264 
L 377.442715 42.256454 
L 377.8782 42.732637 
L 378.313686 41.53775 
L 378.749172 41.776475 
L 379.184657 41.79672 
L 380.491114 42.599356 
L 380.9266 41.682841 
L 381.797571 41.40447 
L 382.233057 40.847306 
L 382.668543 39.145024 
L 383.104028 39.128153 
L 383.539514 38.660406 
L 384.410485 38.676011 
L 386.152428 36.962342 
L 386.587913 37.017173 
L 387.023399 37.489982 
L 387.458885 37.015907 
L 387.89437 36.815986 
L 388.329856 35.928995 
L 389.636313 34.990125 
L 390.071798 35.001935 
L 390.507284 37.082126 
L 390.94277 36.280333 
L 392.249227 36.261775 
L 393.120198 36.322088 
L 393.555684 36.713495 
L 393.991169 40.338224 
L 394.426655 45.361978 
L 394.86214 48.384414 
L 395.733112 57.312955 
L 396.168597 57.722076 
L 396.604083 57.640674 
L 397.039569 57.805588 
L 397.91054 57.839751 
L 398.346026 57.327296 
L 399.652483 58.128667 
L 400.087968 58.654619 
L 400.523454 58.832608 
L 401.829911 60.423119 
L 401.829911 60.423119 
" clip-path="url(#p6c4ec83ce2)" style="fill: none; stroke: #9467bd; stroke-opacity: 0.8; stroke-width: 1.5; stroke-linecap: square"/>
   </g>
   <g id="patch_3">
    <path d="M 61.715625 288.430125 
L 61.715625 22.318125 
" style="fill: none; stroke: #000000; stroke-width: 0.8; stroke-linejoin: miter; stroke-linecap: square"/>
   </g>
   <g id="patch_4">
    <path d="M 418.835625 288.430125 
L 418.835625 22.318125 
" style="fill: none; stroke: #000000; stroke-width: 0.8; stroke-linejoin: miter; stroke-linecap: square"/>
   </g>
   <g id="patch_5">
    <path d="M 61.715625 288.430125 
L 418.835625 288.430125 
" style="fill: none; stroke: #000000; stroke-width: 0.8; stroke-linejoin: miter; stroke-linecap: square"/>
   </g>
   <g id="patch_6">
    <path d="M 61.715625 22.318125 
L 418.835625 22.318125 
" style="fill: none; stroke: #000000; stroke-width: 0.8; stroke-linejoin: miter; stroke-linecap: square"/>
   </g>
   <g id="text_20">
    <!-- Get next sibling [leaf] -->
    <g transform="translate(175.1925 16.318125) scale(0.12 -0.12)">
     <defs>
      <path id="DejaVuSans-47" d="M 3809 666 
L 3809 1919 
L 2778 1919 
L 2778 2438 
L 4434 2438 
L 4434 434 
Q 4069 175 3628 42 
Q 3188 -91 2688 -91 
Q 1594 -91 976 548 
Q 359 1188 359 2328 
Q 359 3472 976 4111 
Q 1594 4750 2688 4750 
Q 3144 4750 3555 4637 
Q 3966 4525 4313 4306 
L 4313 3634 
Q 3963 3931 3569 4081 
Q 3175 4231 2741 4231 
Q 1884 4231 1454 3753 
Q 1025 3275 1025 2328 
Q 1025 1384 1454 906 
Q 1884 428 2741 428 
Q 3075 428 3337 486 
Q 3600 544 3809 666 
z
" transform="scale(0.015625)"/>
      <path id="DejaVuSans-78" d="M 3513 3500 
L 2247 1797 
L 3578 0 
L 2900 0 
L 1881 1375 
L 863 0 
L 184 0 
L 1544 1831 
L 300 3500 
L 978 3500 
L 1906 2253 
L 2834 3500 
L 3513 3500 
z
" transform="scale(0.015625)"/>
      <path id="DejaVuSans-67" d="M 2906 1791 
Q 2906 2416 2648 2759 
Q 2391 3103 1925 3103 
Q 1463 3103 1205 2759 
Q 947 2416 947 1791 
Q 947 1169 1205 825 
Q 1463 481 1925 481 
Q 2391 481 2648 825 
Q 2906 1169 2906 1791 
z
M 3481 434 
Q 3481 -459 3084 -895 
Q 2688 -1331 1869 -1331 
Q 1566 -1331 1297 -1286 
Q 1028 -1241 775 -1147 
L 775 -588 
Q 1028 -725 1275 -790 
Q 1522 -856 1778 -856 
Q 2344 -856 2625 -561 
Q 2906 -266 2906 331 
L 2906 616 
Q 2728 306 2450 153 
Q 2172 0 1784 0 
Q 1141 0 747 490 
Q 353 981 353 1791 
Q 353 2603 747 3093 
Q 1141 3584 1784 3584 
Q 2172 3584 2450 3431 
Q 2728 3278 2906 2969 
L 2906 3500 
L 3481 3500 
L 3481 434 
z
" transform="scale(0.015625)"/>
      <path id="DejaVuSans-5b" d="M 550 4863 
L 1875 4863 
L 1875 4416 
L 1125 4416 
L 1125 -397 
L 1875 -397 
L 1875 -844 
L 550 -844 
L 550 4863 
z
" transform="scale(0.015625)"/>
      <path id="DejaVuSans-5d" d="M 1947 4863 
L 1947 -844 
L 622 -844 
L 622 -397 
L 1369 -397 
L 1369 4416 
L 622 4416 
L 622 4863 
L 1947 4863 
z
" transform="scale(0.015625)"/>
     </defs>
     <use xlink:href="#DejaVuSans-47"/>
     <use xlink:href="#DejaVuSans-65" transform="translate(77.490234 0)"/>
     <use xlink:href="#DejaVuSans-74" transform="translate(139.013672 0)"/>
     <use xlink:href="#DejaVuSans-20" transform="translate(178.222656 0)"/>
     <use xlink:href="#DejaVuSans-6e" transform="translate(210.009766 0)"/>
     <use xlink:href="#DejaVuSans-65" transform="translate(273.388672 0)"/>
     <use xlink:href="#DejaVuSans-78" transform="translate(333.162109 0)"/>
     <use xlink:href="#DejaVuSans-74" transform="translate(392.341797 0)"/>
     <use xlink:href="#DejaVuSans-20" transform="translate(431.550781 0)"/>
     <use xlink:href="#DejaVuSans-73" transform="translate(463.337891 0)"/>
     <use xlink:href="#DejaVuSans-69" transform="translate(515.4375 0)"/>
     <use xlink:href="#DejaVuSans-62" transform="translate(543.220703 0)"/>
     <use xlink:href="#DejaVuSans-6c" transform="translate(606.697266 0)"/>
     <use xlink:href="#DejaVuSans-69" transform="translate(634.480469 0)"/>
     <use xlink:href="#DejaVuSans-6e" transform="translate(662.263672 0)"/>
     <use xlink:href="#DejaVuSans-67" transform="translate(725.642578 0)"/>
     <use xlink:href="#DejaVuSans-20" transform="translate(789.119141 0)"/>
     <use xlink:href="#DejaVuSans-5b" transform="translate(820.90625 0)"/>
     <use xlink:href="#DejaVuSans-6c" transform="translate(859.919922 0)"/>
     <use xlink:href="#DejaVuSans-65" transform="translate(887.703125 0)"/>
     <use xlink:href="#DejaVuSans-61" transform="translate(949.226562 0)"/>
     <use xlink:href="#DejaVuSans-66" transform="translate(1010.505859 0)"/>
     <use xlink:href="#DejaVuSans-5d" transform="translate(1045.710938 0)"/>
    </g>
   </g>
   <g id="legend_1">
    <g id="patch_7">
     <path d="M 92.717969 365.802375 
L 380.313281 365.802375 
Q 382.313281 365.802375 382.313281 363.802375 
L 382.313281 335.446125 
Q 382.313281 333.446125 380.313281 333.446125 
L 92.717969 333.446125 
Q 90.717969 333.446125 90.717969 335.446125 
L 90.717969 363.802375 
Q 90.717969 365.802375 92.717969 365.802375 
z
" style="fill: #4d4d4d; opacity: 0.5; stroke: #4d4d4d; stroke-linejoin: miter"/>
    </g>
    <g id="patch_8">
     <path d="M 90.717969 363.802375 
L 378.313281 363.802375 
Q 380.313281 363.802375 380.313281 361.802375 
L 380.313281 333.446125 
Q 380.313281 331.446125 378.313281 331.446125 
L 90.717969 331.446125 
Q 88.717969 331.446125 88.717969 333.446125 
L 88.717969 361.802375 
Q 88.717969 363.802375 90.717969 363.802375 
z
" style="fill: #ffffff; stroke: #cccccc; stroke-linejoin: miter"/>
    </g>
    <g id="line2d_23">
     <path d="M 92.717969 339.544562 
L 102.717969 339.544562 
L 112.717969 339.544562 
" style="fill: none; stroke: #1f77b4; stroke-opacity: 0.8; stroke-width: 1.5; stroke-linecap: square"/>
    </g>
    <g id="text_21">
     <!-- MPTT -->
     <g transform="translate(120.717969 343.044562) scale(0.1 -0.1)">
      <defs>
       <path id="DejaVuSans-4d" d="M 628 4666 
L 1569 4666 
L 2759 1491 
L 3956 4666 
L 4897 4666 
L 4897 0 
L 4281 0 
L 4281 4097 
L 3078 897 
L 2444 897 
L 1241 4097 
L 1241 0 
L 628 0 
L 628 4666 
z
" transform="scale(0.015625)"/>
       <path id="DejaVuSans-50" d="M 1259 4147 
L 1259 2394 
L 2053 2394 
Q 2494 2394 2734 2622 
Q 2975 2850 2975 3272 
Q 2975 3691 2734 3919 
Q 2494 4147 2053 4147 
L 1259 4147 
z
M 628 4666 
L 2053 4666 
Q 2838 4666 3239 4311 
Q 3641 3956 3641 3272 
Q 3641 2581 3239 2228 
Q 2838 1875 2053 1875 
L 1259 1875 
L 1259 0 
L 628 0 
L 628 4666 
z
" transform="scale(0.015625)"/>
       <path id="DejaVuSans-54" d="M -19 4666 
L 3928 4666 
L 3928 4134 
L 2272 4134 
L 2272 0 
L 1638 0 
L 1638 4134 
L -19 4134 
L -19 4666 
z
" transform="scale(0.015625)"/>
      </defs>
      <use xlink:href="#DejaVuSans-4d"/>
      <use xlink:href="#DejaVuSans-50" transform="translate(86.279297 0)"/>
      <use xlink:href="#DejaVuSans-54" transform="translate(146.582031 0)"/>
      <use xlink:href="#DejaVuSans-54" transform="translate(205.916016 0)"/>
     </g>
    </g>
    <g id="line2d_24">
     <path d="M 92.717969 354.222687 
L 102.717969 354.222687 
L 112.717969 354.222687 
" style="fill: none; stroke: #ff7f0e; stroke-opacity: 0.8; stroke-width: 1.5; stroke-linecap: square"/>
    </g>
    <g id="text_22">
     <!-- tree -->
     <g transform="translate(120.717969 357.722687) scale(0.1 -0.1)">
      <defs>
       <path id="DejaVuSans-72" d="M 2631 2963 
Q 2534 3019 2420 3045 
Q 2306 3072 2169 3072 
Q 1681 3072 1420 2755 
Q 1159 2438 1159 1844 
L 1159 0 
L 581 0 
L 581 3500 
L 1159 3500 
L 1159 2956 
Q 1341 3275 1631 3429 
Q 1922 3584 2338 3584 
Q 2397 3584 2469 3576 
Q 2541 3569 2628 3553 
L 2631 2963 
z
" transform="scale(0.015625)"/>
      </defs>
      <use xlink:href="#DejaVuSans-74"/>
      <use xlink:href="#DejaVuSans-72" transform="translate(39.208984 0)"/>
      <use xlink:href="#DejaVuSans-65" transform="translate(78.072266 0)"/>
      <use xlink:href="#DejaVuSans-65" transform="translate(139.595703 0)"/>
     </g>
    </g>
    <g id="line2d_25">
     <path d="M 167.416406 339.544562 
L 177.416406 339.544562 
L 187.416406 339.544562 
" style="fill: none; stroke: #2ca02c; stroke-opacity: 0.8; stroke-width: 1.5; stroke-linecap: square"/>
    </g>
    <g id="text_23">
     <!-- treebeard AL -->
     <g transform="translate(195.416406 343.044562) scale(0.1 -0.1)">
      <defs>
       <path id="DejaVuSans-4c" d="M 628 4666 
L 1259 4666 
L 1259 531 
L 3531 531 
L 3531 0 
L 628 0 
L 628 4666 
z
" transform="scale(0.015625)"/>
      </defs>
      <use xlink:href="#DejaVuSans-74"/>
      <use xlink:href="#DejaVuSans-72" transform="translate(39.208984 0)"/>
      <use xlink:href="#DejaVuSans-65" transform="translate(78.072266 0)"/>
      <use xlink:href="#DejaVuSans-65" transform="translate(139.595703 0)"/>
      <use xlink:href="#DejaVuSans-62" transform="translate(201.119141 0)"/>
      <use xlink:href="#DejaVuSans-65" transform="translate(264.595703 0)"/>
      <use xlink:href="#DejaVuSans-61" transform="translate(326.119141 0)"/>
      <use xlink:href="#DejaVuSans-72" transform="translate(387.398438 0)"/>
      <use xlink:href="#DejaVuSans-64" transform="translate(426.761719 0)"/>
      <use xlink:href="#DejaVuSans-20" transform="translate(490.238281 0)"/>
      <use xlink:href="#DejaVuSans-41" transform="translate(522.025391 0)"/>
      <use xlink:href="#DejaVuSans-4c" transform="translate(590.433594 0)"/>
     </g>
    </g>
    <g id="line2d_26">
     <path d="M 167.416406 354.222687 
L 177.416406 354.222687 
L 187.416406 354.222687 
" style="fill: none; stroke: #d62728; stroke-opacity: 0.8; stroke-width: 1.5; stroke-linecap: square"/>
    </g>
    <g id="text_24">
     <!-- treebeard MP -->
     <g transform="translate(195.416406 357.722687) scale(0.1 -0.1)">
      <use xlink:href="#DejaVuSans-74"/>
      <use xlink:href="#DejaVuSans-72" transform="translate(39.208984 0)"/>
      <use xlink:href="#DejaVuSans-65" transform="translate(78.072266 0)"/>
      <use xlink:href="#DejaVuSans-65" transform="translate(139.595703 0)"/>
      <use xlink:href="#DejaVuSans-62" transform="translate(201.119141 0)"/>
      <use xlink:href="#DejaVuSans-65" transform="translate(264.595703 0)"/>
      <use xlink:href="#DejaVuSans-61" transform="translate(326.119141 0)"/>
      <use xlink:href="#DejaVuSans-72" transform="translate(387.398438 0)"/>
      <use xlink:href="#DejaVuSans-64" transform="translate(426.761719 0)"/>
      <use xlink:href="#DejaVuSans-20" transform="translate(490.238281 0)"/>
      <use xlink:href="#DejaVuSans-4d" transform="translate(522.025391 0)"/>
      <use xlink:href="#DejaVuSans-50" transform="translate(608.304688 0)"/>
     </g>
    </g>
    <g id="line2d_27">
     <path d="M 282.278906 339.544562 
L 292.278906 339.544562 
L 302.278906 339.544562 
" style="fill: none; stroke: #9467bd; stroke-opacity: 0.8; stroke-width: 1.5; stroke-linecap: square"/>
    </g>
    <g id="text_25">
     <!-- treebeard NS -->
     <g transform="translate(310.278906 343.044562) scale(0.1 -0.1)">
      <defs>
       <path id="DejaVuSans-4e" d="M 628 4666 
L 1478 4666 
L 3547 763 
L 3547 4666 
L 4159 4666 
L 4159 0 
L 3309 0 
L 1241 3903 
L 1241 0 
L 628 0 
L 628 4666 
z
" transform="scale(0.015625)"/>
       <path id="DejaVuSans-53" d="M 3425 4513 
L 3425 3897 
Q 3066 4069 2747 4153 
Q 2428 4238 2131 4238 
Q 1616 4238 1336 4038 
Q 1056 3838 1056 3469 
Q 1056 3159 1242 3001 
Q 1428 2844 1947 2747 
L 2328 2669 
Q 3034 2534 3370 2195 
Q 3706 1856 3706 1288 
Q 3706 609 3251 259 
Q 2797 -91 1919 -91 
Q 1588 -91 1214 -16 
Q 841 59 441 206 
L 441 856 
Q 825 641 1194 531 
Q 1563 422 1919 422 
Q 2459 422 2753 634 
Q 3047 847 3047 1241 
Q 3047 1584 2836 1778 
Q 2625 1972 2144 2069 
L 1759 2144 
Q 1053 2284 737 2584 
Q 422 2884 422 3419 
Q 422 4038 858 4394 
Q 1294 4750 2059 4750 
Q 2388 4750 2728 4690 
Q 3069 4631 3425 4513 
z
" transform="scale(0.015625)"/>
      </defs>
      <use xlink:href="#DejaVuSans-74"/>
      <use xlink:href="#DejaVuSans-72" transform="translate(39.208984 0)"/>
      <use xlink:href="#DejaVuSans-65" transform="translate(78.072266 0)"/>
      <use xlink:href="#DejaVuSans-65" transform="translate(139.595703 0)"/>
      <use xlink:href="#DejaVuSans-62" transform="translate(201.119141 0)"/>
      <use xlink:href="#DejaVuSans-65" transform="translate(264.595703 0)"/>
      <use xlink:href="#DejaVuSans-61" transform="translate(326.119141 0)"/>
      <use xlink:href="#DejaVuSans-72" transform="translate(387.398438 0)"/>
      <use xlink:href="#DejaVuSans-64" transform="translate(426.761719 0)"/>
      <use xlink:href="#DejaVuSans-20" transform="translate(490.238281 0)"/>
      <use xlink:href="#DejaVuSans-4e" transform="translate(522.025391 0)"/>
      <use xlink:href="#DejaVuSans-53" transform="translate(596.830078 0)"/>
     </g>
    </g>
   </g>
  </g>
 </g>
 <defs>
  <clipPath id="p6c4ec83ce2">
   <rect x="61.715625" y="22.318125" width="357.12" height="266.112"/>
  </clipPath>
 </defs>
</svg>
