<?xml version="1.0" encoding="utf-8" standalone="no"?>
<!DOCTYPE svg PUBLIC "-//W3C//DTD SVG 1.1//EN"
  "http://www.w3.org/Graphics/SVG/1.1/DTD/svg11.dtd">
<svg xmlns:xlink="http://www.w3.org/1999/xlink" width="426.229375pt" height="371.002375pt" viewBox="0 0 426.229375 371.002375" xmlns="http://www.w3.org/2000/svg" version="1.1">
 <metadata>
  <rdf:RDF xmlns:dc="http://purl.org/dc/elements/1.1/" xmlns:cc="http://creativecommons.org/ns#" xmlns:rdf="http://www.w3.org/1999/02/22-rdf-syntax-ns#">
   <cc:Work>
    <dc:type rdf:resource="http://purl.org/dc/dcmitype/StillImage"/>
    <dc:date>2026-06-28T06:53:54.015085</dc:date>
    <dc:format>image/svg+xml</dc:format>
    <dc:creator>
     <cc:Agent>
      <dc:title>Matplotlib v3.10.6, https://matplotlib.org/</dc:title>
     </cc:Agent>
    </dc:creator>
   </cc:Work>
  </rdf:RDF>
 </metadata>
 <defs>
  <style type="text/css">*{stroke-linejoin: round; stroke-linecap: butt}</style>
 </defs>
 <g id="figure_1">
  <g id="patch_1">
   <path d="M 0 371.002375 
L 426.229375 371.002375 
L 426.229375 0 
L 0 0 
z
" style="fill: #ffffff"/>
  </g>
  <g id="axes_1">
   <g id="patch_2">
    <path d="M 61.909375 288.430125 
L 419.029375 288.430125 
L 419.029375 22.318125 
L 61.909375 22.318125 
z
" style="fill: #ffffff"/>
   </g>
   <g id="matplotlib.axis_1">
    <g id="xtick_1">
     <g id="line2d_1">
      <defs>
       <path id="mf0c8399767" d="M 0 0 
L 0 3.5 
" style="stroke: #000000; stroke-width: 0.8"/>
      </defs>
      <g>
       <use xlink:href="#mf0c8399767" x="61.909375" y="288.430125" style="stroke: #000000; stroke-width: 0.8"/>
      </g>
     </g>
     <g id="text_1">
      <!-- 0 -->
      <g transform="translate(58.728125 303.028562) scale(0.1 -0.1)">
       <defs>
        <path id="DejaVuSans-30" d="M 2034 4250 
Q 1547 4250 1301 3770 
Q 1056 3291 1056 2328 
Q 1056 1369 1301 889 
Q 1547 409 2034 409 
Q 2525 409 2770 889 
Q 3016 1369 3016 2328 
Q 3016 3291 2770 3770 
Q 2525 4250 2034 4250 
z
M 2034 4750 
Q 2819 4750 3233 4129 
Q 3647 3509 3647 2328 
Q 3647 1150 3233 529 
Q 2819 -91 2034 -91 
Q 1250 -91 836 529 
Q 422 1150 422 2328 
Q 422 3509 836 4129 
Q 1250 4750 2034 4750 
z
" transform="scale(0.015625)"/>
       </defs>
       <use xlink:href="#DejaVuSans-30"/>
      </g>
     </g>
    </g>
    <g id="xtick_2">
     <g id="line2d_2">
      <g>
       <use xlink:href="#mf0c8399767" x="105.457939" y="288.430125" style="stroke: #000000; stroke-width: 0.8"/>
      </g>
     </g>
     <g id="text_2">
      <!-- 500  -->
      <g transform="translate(94.325127 303.028562) scale(0.1 -0.1)">
       <defs>
        <path id="DejaVuSans-35" d="M 691 4666 
L 3169 4666 
L 3169 4134 
L 1269 4134 
L 1269 2991 
Q 1406 3038 1543 3061 
Q 1681 3084 1819 3084 
Q 2600 3084 3056 2656 
Q 3513 2228 3513 1497 
Q 3513 744 3044 326 
Q 2575 -91 1722 -91 
Q 1428 -91 1123 -41 
Q 819 9 494 109 
L 494 744 
Q 775 591 1075 516 
Q 1375 441 1709 441 
Q 2250 441 2565 725 
Q 2881 1009 2881 1497 
Q 2881 1984 2565 2268 
Q 2250 2553 1709 2553 
Q 1456 2553 1204 2497 
Q 953 2441 691 2322 
L 691 4666 
z
" transform="scale(0.015625)"/>
        <path id="DejaVuSans-20" transform="scale(0.015625)"/>
       </defs>
       <use xlink:href="#DejaVuSans-35"/>
       <use xlink:href="#DejaVuSans-30" transform="translate(63.623047 0)"/>
       <use xlink:href="#DejaVuSans-30" transform="translate(127.246094 0)"/>
       <use xlink:href="#DejaVuSans-20" transform="translate(190.869141 0)"/>
      </g>
     </g>
    </g>
    <g id="xtick_3">
     <g id="line2d_3">
      <g>
       <use xlink:href="#mf0c8399767" x="149.006503" y="288.430125" style="stroke: #000000; stroke-width: 0.8"/>
      </g>
     </g>
     <g id="text_3">
      <!-- 1 k -->
      <g transform="translate(141.340878 303.028562) scale(0.1 -0.1)">
       <defs>
        <path id="DejaVuSans-31" d="M 794 531 
L 1825 531 
L 1825 4091 
L 703 3866 
L 703 4441 
L 1819 4666 
L 2450 4666 
L 2450 531 
L 3481 531 
L 3481 0 
L 794 0 
L 794 531 
z
" transform="scale(0.015625)"/>
        <path id="DejaVuSans-6b" d="M 581 4863 
L 1159 4863 
L 1159 1991 
L 2875 3500 
L 3609 3500 
L 1753 1863 
L 3688 0 
L 2938 0 
L 1159 1709 
L 1159 0 
L 581 0 
L 581 4863 
z
" transform="scale(0.015625)"/>
       </defs>
       <use xlink:href="#DejaVuSans-31"/>
       <use xlink:href="#DejaVuSans-20" transform="translate(63.623047 0)"/>
       <use xlink:href="#DejaVuSans-6b" transform="translate(95.410156 0)"/>
      </g>
     </g>
    </g>
    <g id="xtick_4">
     <g id="line2d_4">
      <g>
       <use xlink:href="#mf0c8399767" x="192.555067" y="288.430125" style="stroke: #000000; stroke-width: 0.8"/>
      </g>
     </g>
     <g id="text_4">
      <!-- 1.5 k -->
      <g transform="translate(180.11913 303.028562) scale(0.1 -0.1)">
       <defs>
        <path id="DejaVuSans-2e" d="M 684 794 
L 1344 794 
L 1344 0 
L 684 0 
L 684 794 
z
" transform="scale(0.015625)"/>
       </defs>
       <use xlink:href="#DejaVuSans-31"/>
       <use xlink:href="#DejaVuSans-2e" transform="translate(63.623047 0)"/>
       <use xlink:href="#DejaVuSans-35" transform="translate(95.410156 0)"/>
       <use xlink:href="#DejaVuSans-20" transform="translate(159.033203 0)"/>
       <use xlink:href="#DejaVuSans-6b" transform="translate(190.820312 0)"/>
      </g>
     </g>
    </g>
    <g id="xtick_5">
     <g id="line2d_5">
      <g>
       <use xlink:href="#mf0c8399767" x="236.103631" y="288.430125" style="stroke: #000000; stroke-width: 0.8"/>
      </g>
     </g>
     <g id="text_5">
      <!-- 2 k -->
      <g transform="translate(228.438006 303.028562) scale(0.1 -0.1)">
       <defs>
        <path id="DejaVuSans-32" d="M 1228 531 
L 3431 531 
L 3431 0 
L 469 0 
L 469 531 
Q 828 903 1448 1529 
Q 2069 2156 2228 2338 
Q 2531 2678 2651 2914 
Q 2772 3150 2772 3378 
Q 2772 3750 2511 3984 
Q 2250 4219 1831 4219 
Q 1534 4219 1204 4116 
Q 875 4013 500 3803 
L 500 4441 
Q 881 4594 1212 4672 
Q 1544 4750 1819 4750 
Q 2544 4750 2975 4387 
Q 3406 4025 3406 3419 
Q 3406 3131 3298 2873 
Q 3191 2616 2906 2266 
Q 2828 2175 2409 1742 
Q 1991 1309 1228 531 
z
" transform="scale(0.015625)"/>
       </defs>
       <use xlink:href="#DejaVuSans-32"/>
       <use xlink:href="#DejaVuSans-20" transform="translate(63.623047 0)"/>
       <use xlink:href="#DejaVuSans-6b" transform="translate(95.410156 0)"/>
      </g>
     </g>
    </g>
    <g id="xtick_6">
     <g id="line2d_6">
      <g>
       <use xlink:href="#mf0c8399767" x="279.652196" y="288.430125" style="stroke: #000000; stroke-width: 0.8"/>
      </g>
     </g>
     <g id="text_6">
      <!-- 2.5 k -->
      <g transform="translate(267.216258 303.028562) scale(0.1 -0.1)">
       <use xlink:href="#DejaVuSans-32"/>
       <use xlink:href="#DejaVuSans-2e" transform="translate(63.623047 0)"/>
       <use xlink:href="#DejaVuSans-35" transform="translate(95.410156 0)"/>
       <use xlink:href="#DejaVuSans-20" transform="translate(159.033203 0)"/>
       <use xlink:href="#DejaVuSans-6b" transform="translate(190.820312 0)"/>
      </g>
     </g>
    </g>
    <g id="xtick_7">
     <g id="line2d_7">
      <g>
       <use xlink:href="#mf0c8399767" x="323.20076" y="288.430125" style="stroke: #000000; stroke-width: 0.8"/>
      </g>
     </g>
     <g id="text_7">
      <!-- 3 k -->
      <g transform="translate(315.535135 303.028562) scale(0.1 -0.1)">
       <defs>
        <path id="DejaVuSans-33" d="M 2597 2516 
Q 3050 2419 3304 2112 
Q 3559 1806 3559 1356 
Q 3559 666 3084 287 
Q 2609 -91 1734 -91 
Q 1441 -91 1130 -33 
Q 819 25 488 141 
L 488 750 
Q 750 597 1062 519 
Q 1375 441 1716 441 
Q 2309 441 2620 675 
Q 2931 909 2931 1356 
Q 2931 1769 2642 2001 
Q 2353 2234 1838 2234 
L 1294 2234 
L 1294 2753 
L 1863 2753 
Q 2328 2753 2575 2939 
Q 2822 3125 2822 3475 
Q 2822 3834 2567 4026 
Q 2313 4219 1838 4219 
Q 1578 4219 1281 4162 
Q 984 4106 628 3988 
L 628 4550 
Q 988 4650 1302 4700 
Q 1616 4750 1894 4750 
Q 2613 4750 3031 4423 
Q 3450 4097 3450 3541 
Q 3450 3153 3228 2886 
Q 3006 2619 2597 2516 
z
" transform="scale(0.015625)"/>
       </defs>
       <use xlink:href="#DejaVuSans-33"/>
       <use xlink:href="#DejaVuSans-20" transform="translate(63.623047 0)"/>
       <use xlink:href="#DejaVuSans-6b" transform="translate(95.410156 0)"/>
      </g>
     </g>
    </g>
    <g id="xtick_8">
     <g id="line2d_8">
      <g>
       <use xlink:href="#mf0c8399767" x="366.749324" y="288.430125" style="stroke: #000000; stroke-width: 0.8"/>
      </g>
     </g>
     <g id="text_8">
      <!-- 3.5 k -->
      <g transform="translate(354.313386 303.028562) scale(0.1 -0.1)">
       <use xlink:href="#DejaVuSans-33"/>
       <use xlink:href="#DejaVuSans-2e" transform="translate(63.623047 0)"/>
       <use xlink:href="#DejaVuSans-35" transform="translate(95.410156 0)"/>
       <use xlink:href="#DejaVuSans-20" transform="translate(159.033203 0)"/>
       <use xlink:href="#DejaVuSans-6b" transform="translate(190.820312 0)"/>
      </g>
     </g>
    </g>
    <g id="xtick_9">
     <g id="line2d_9">
      <g>
       <use xlink:href="#mf0c8399767" x="410.297888" y="288.430125" style="stroke: #000000; stroke-width: 0.8"/>
      </g>
     </g>
     <g id="text_9">
      <!-- 4 k -->
      <g transform="translate(402.632263 303.028562) scale(0.1 -0.1)">
       <defs>
        <path id="DejaVuSans-34" d="M 2419 4116 
L 825 1625 
L 2419 1625 
L 2419 4116 
z
M 2253 4666 
L 3047 4666 
L 3047 1625 
L 3713 1625 
L 3713 1100 
L 3047 1100 
L 3047 0 
L 2419 0 
L 2419 1100 
L 313 1100 
L 313 1709 
L 2253 4666 
z
" transform="scale(0.015625)"/>
       </defs>
       <use xlink:href="#DejaVuSans-34"/>
       <use xlink:href="#DejaVuSans-20" transform="translate(63.623047 0)"/>
       <use xlink:href="#DejaVuSans-6b" transform="translate(95.410156 0)"/>
      </g>
     </g>
    </g>
    <g id="text_10">
     <!-- Amount of objects in table -->
     <g transform="translate(174.410781 316.706687) scale(0.1 -0.1)">
      <defs>
       <path id="DejaVuSans-41" d="M 2188 4044 
L 1331 1722 
L 3047 1722 
L 2188 4044 
z
M 1831 4666 
L 2547 4666 
L 4325 0 
L 3669 0 
L 3244 1197 
L 1141 1197 
L 716 0 
L 50 0 
L 1831 4666 
z
" transform="scale(0.015625)"/>
       <path id="DejaVuSans-6d" d="M 3328 2828 
Q 3544 3216 3844 3400 
Q 4144 3584 4550 3584 
Q 5097 3584 5394 3201 
Q 5691 2819 5691 2113 
L 5691 0 
L 5113 0 
L 5113 2094 
Q 5113 2597 4934 2840 
Q 4756 3084 4391 3084 
Q 3944 3084 3684 2787 
Q 3425 2491 3425 1978 
L 3425 0 
L 2847 0 
L 2847 2094 
Q 2847 2600 2669 2842 
Q 2491 3084 2119 3084 
Q 1678 3084 1418 2786 
Q 1159 2488 1159 1978 
L 1159 0 
L 581 0 
L 581 3500 
L 1159 3500 
L 1159 2956 
Q 1356 3278 1631 3431 
Q 1906 3584 2284 3584 
Q 2666 3584 2933 3390 
Q 3200 3197 3328 2828 
z
" transform="scale(0.015625)"/>
       <path id="DejaVuSans-6f" d="M 1959 3097 
Q 1497 3097 1228 2736 
Q 959 2375 959 1747 
Q 959 1119 1226 758 
Q 1494 397 1959 397 
Q 2419 397 2687 759 
Q 2956 1122 2956 1747 
Q 2956 2369 2687 2733 
Q 2419 3097 1959 3097 
z
M 1959 3584 
Q 2709 3584 3137 3096 
Q 3566 2609 3566 1747 
Q 3566 888 3137 398 
Q 2709 -91 1959 -91 
Q 1206 -91 779 398 
Q 353 888 353 1747 
Q 353 2609 779 3096 
Q 1206 3584 1959 3584 
z
" transform="scale(0.015625)"/>
       <path id="DejaVuSans-75" d="M 544 1381 
L 544 3500 
L 1119 3500 
L 1119 1403 
Q 1119 906 1312 657 
Q 1506 409 1894 409 
Q 2359 409 2629 706 
Q 2900 1003 2900 1516 
L 2900 3500 
L 3475 3500 
L 3475 0 
L 2900 0 
L 2900 538 
Q 2691 219 2414 64 
Q 2138 -91 1772 -91 
Q 1169 -91 856 284 
Q 544 659 544 1381 
z
M 1991 3584 
L 1991 3584 
z
" transform="scale(0.015625)"/>
       <path id="DejaVuSans-6e" d="M 3513 2113 
L 3513 0 
L 2938 0 
L 2938 2094 
Q 2938 2591 2744 2837 
Q 2550 3084 2163 3084 
Q 1697 3084 1428 2787 
Q 1159 2491 1159 1978 
L 1159 0 
L 581 0 
L 581 3500 
L 1159 3500 
L 1159 2956 
Q 1366 3272 1645 3428 
Q 1925 3584 2291 3584 
Q 2894 3584 3203 3211 
Q 3513 2838 3513 2113 
z
" transform="scale(0.015625)"/>
       <path id="DejaVuSans-74" d="M 1172 4494 
L 1172 3500 
L 2356 3500 
L 2356 3053 
L 1172 3053 
L 1172 1153 
Q 1172 725 1289 603 
Q 1406 481 1766 481 
L 2356 481 
L 2356 0 
L 1766 0 
Q 1100 0 847 248 
Q 594 497 594 1153 
L 594 3053 
L 172 3053 
L 172 3500 
L 594 3500 
L 594 4494 
L 1172 4494 
z
" transform="scale(0.015625)"/>
       <path id="DejaVuSans-66" d="M 2375 4863 
L 2375 4384 
L 1825 4384 
Q 1516 4384 1395 4259 
Q 1275 4134 1275 3809 
L 1275 3500 
L 2222 3500 
L 2222 3053 
L 1275 3053 
L 1275 0 
L 697 0 
L 697 3053 
L 147 3053 
L 147 3500 
L 697 3500 
L 697 3744 
Q 697 4328 969 4595 
Q 1241 4863 1831 4863 
L 2375 4863 
z
" transform="scale(0.015625)"/>
       <path id="DejaVuSans-62" d="M 3116 1747 
Q 3116 2381 2855 2742 
Q 2594 3103 2138 3103 
Q 1681 3103 1420 2742 
Q 1159 2381 1159 1747 
Q 1159 1113 1420 752 
Q 1681 391 2138 391 
Q 2594 391 2855 752 
Q 3116 1113 3116 1747 
z
M 1159 2969 
Q 1341 3281 1617 3432 
Q 1894 3584 2278 3584 
Q 2916 3584 3314 3078 
Q 3713 2572 3713 1747 
Q 3713 922 3314 415 
Q 2916 -91 2278 -91 
Q 1894 -91 1617 61 
Q 1341 213 1159 525 
L 1159 0 
L 581 0 
L 581 4863 
L 1159 4863 
L 1159 2969 
z
" transform="scale(0.015625)"/>
       <path id="DejaVuSans-6a" d="M 603 3500 
L 1178 3500 
L 1178 -63 
Q 1178 -731 923 -1031 
Q 669 -1331 103 -1331 
L -116 -1331 
L -116 -844 
L 38 -844 
Q 366 -844 484 -692 
Q 603 -541 603 -63 
L 603 3500 
z
M 603 4863 
L 1178 4863 
L 1178 4134 
L 603 4134 
L 603 4863 
z
" transform="scale(0.015625)"/>
       <path id="DejaVuSans-65" d="M 3597 1894 
L 3597 1613 
L 953 1613 
Q 991 1019 1311 708 
Q 1631 397 2203 397 
Q 2534 397 2845 478 
Q 3156 559 3463 722 
L 3463 178 
Q 3153 47 2828 -22 
Q 2503 -91 2169 -91 
Q 1331 -91 842 396 
Q 353 884 353 1716 
Q 353 2575 817 3079 
Q 1281 3584 2069 3584 
Q 2775 3584 3186 3129 
Q 3597 2675 3597 1894 
z
M 3022 2063 
Q 3016 2534 2758 2815 
Q 2500 3097 2075 3097 
Q 1594 3097 1305 2825 
Q 1016 2553 972 2059 
L 3022 2063 
z
" transform="scale(0.015625)"/>
       <path id="DejaVuSans-63" d="M 3122 3366 
L 3122 2828 
Q 2878 2963 2633 3030 
Q 2388 3097 2138 3097 
Q 1578 3097 1268 2742 
Q 959 2388 959 1747 
Q 959 1106 1268 751 
Q 1578 397 2138 397 
Q 2388 397 2633 464 
Q 2878 531 3122 666 
L 3122 134 
Q 2881 22 2623 -34 
Q 2366 -91 2075 -91 
Q 1284 -91 818 406 
Q 353 903 353 1747 
Q 353 2603 823 3093 
Q 1294 3584 2113 3584 
Q 2378 3584 2631 3529 
Q 2884 3475 3122 3366 
z
" transform="scale(0.015625)"/>
       <path id="DejaVuSans-73" d="M 2834 3397 
L 2834 2853 
Q 2591 2978 2328 3040 
Q 2066 3103 1784 3103 
Q 1356 3103 1142 2972 
Q 928 2841 928 2578 
Q 928 2378 1081 2264 
Q 1234 2150 1697 2047 
L 1894 2003 
Q 2506 1872 2764 1633 
Q 3022 1394 3022 966 
Q 3022 478 2636 193 
Q 2250 -91 1575 -91 
Q 1294 -91 989 -36 
Q 684 19 347 128 
L 347 722 
Q 666 556 975 473 
Q 1284 391 1588 391 
Q 1994 391 2212 530 
Q 2431 669 2431 922 
Q 2431 1156 2273 1281 
Q 2116 1406 1581 1522 
L 1381 1569 
Q 847 1681 609 1914 
Q 372 2147 372 2553 
Q 372 3047 722 3315 
Q 1072 3584 1716 3584 
Q 2034 3584 2315 3537 
Q 2597 3491 2834 3397 
z
" transform="scale(0.015625)"/>
       <path id="DejaVuSans-69" d="M 603 3500 
L 1178 3500 
L 1178 0 
L 603 0 
L 603 3500 
z
M 603 4863 
L 1178 4863 
L 1178 4134 
L 603 4134 
L 603 4863 
z
" transform="scale(0.015625)"/>
       <path id="DejaVuSans-61" d="M 2194 1759 
Q 1497 1759 1228 1600 
Q 959 1441 959 1056 
Q 959 750 1161 570 
Q 1363 391 1709 391 
Q 2188 391 2477 730 
Q 2766 1069 2766 1631 
L 2766 1759 
L 2194 1759 
z
M 3341 1997 
L 3341 0 
L 2766 0 
L 2766 531 
Q 2569 213 2275 61 
Q 1981 -91 1556 -91 
Q 1019 -91 701 211 
Q 384 513 384 1019 
Q 384 1609 779 1909 
Q 1175 2209 1959 2209 
L 2766 2209 
L 2766 2266 
Q 2766 2663 2505 2880 
Q 2244 3097 1772 3097 
Q 1472 3097 1187 3025 
Q 903 2953 641 2809 
L 641 3341 
Q 956 3463 1253 3523 
Q 1550 3584 1831 3584 
Q 2591 3584 2966 3190 
Q 3341 2797 3341 1997 
z
" transform="scale(0.015625)"/>
       <path id="DejaVuSans-6c" d="M 603 4863 
L 1178 4863 
L 1178 0 
L 603 0 
L 603 4863 
z
" transform="scale(0.015625)"/>
      </defs>
      <use xlink:href="#DejaVuSans-41"/>
      <use xlink:href="#DejaVuSans-6d" transform="translate(68.408203 0)"/>
      <use xlink:href="#DejaVuSans-6f" transform="translate(165.820312 0)"/>
      <use xlink:href="#DejaVuSans-75" transform="translate(227.001953 0)"/>
      <use xlink:href="#DejaVuSans-6e" transform="translate(290.380859 0)"/>
      <use xlink:href="#DejaVuSans-74" transform="translate(353.759766 0)"/>
      <use xlink:href="#DejaVuSans-20" transform="translate(392.96875 0)"/>
      <use xlink:href="#DejaVuSans-6f" transform="translate(424.755859 0)"/>
      <use xlink:href="#DejaVuSans-66" transform="translate(485.9375 0)"/>
      <use xlink:href="#DejaVuSans-20" transform="translate(521.142578 0)"/>
      <use xlink:href="#DejaVuSans-6f" transform="translate(552.929688 0)"/>
      <use xlink:href="#DejaVuSans-62" transform="translate(614.111328 0)"/>
      <use xlink:href="#DejaVuSans-6a" transform="translate(677.587891 0)"/>
      <use xlink:href="#DejaVuSans-65" transform="translate(705.371094 0)"/>
      <use xlink:href="#DejaVuSans-63" transform="translate(766.894531 0)"/>
      <use xlink:href="#DejaVuSans-74" transform="translate(821.875 0)"/>
      <use xlink:href="#DejaVuSans-73" transform="translate(861.083984 0)"/>
      <use xlink:href="#DejaVuSans-20" transform="translate(913.183594 0)"/>
      <use xlink:href="#DejaVuSans-69" transform="translate(944.970703 0)"/>
      <use xlink:href="#DejaVuSans-6e" transform="translate(972.753906 0)"/>
      <use xlink:href="#DejaVuSans-20" transform="translate(1036.132812 0)"/>
      <use xlink:href="#DejaVuSans-74" transform="translate(1067.919922 0)"/>
      <use xlink:href="#DejaVuSans-61" transform="translate(1107.128906 0)"/>
      <use xlink:href="#DejaVuSans-62" transform="translate(1168.408203 0)"/>
      <use xlink:href="#DejaVuSans-6c" transform="translate(1231.884766 0)"/>
      <use xlink:href="#DejaVuSans-65" transform="translate(1259.667969 0)"/>
     </g>
    </g>
   </g>
   <g id="matplotlib.axis_2">
    <g id="ytick_1">
     <g id="line2d_10">
      <defs>
       <path id="m7d71d13dd2" d="M 0 0 
L -3.5 0 
" style="stroke: #000000; stroke-width: 0.8"/>
      </defs>
      <g>
       <use xlink:href="#m7d71d13dd2" x="61.909375" y="288.430125" style="stroke: #000000; stroke-width: 0.8"/>
      </g>
     </g>
     <g id="text_11">
      <!-- 0 -->
      <g transform="translate(48.546875 292.229344) scale(0.1 -0.1)">
       <use xlink:href="#DejaVuSans-30"/>
      </g>
     </g>
    </g>
    <g id="ytick_2">
     <g id="line2d_11">
      <g>
       <use xlink:href="#m7d71d13dd2" x="61.909375" y="257.524388" style="stroke: #000000; stroke-width: 0.8"/>
      </g>
     </g>
     <g id="text_12">
      <!-- 200 µs -->
      <g transform="translate(21.071875 261.323607) scale(0.1 -0.1)">
       <defs>
        <path id="DejaVuSans-b5" d="M 544 -1331 
L 544 3500 
L 1119 3500 
L 1119 1325 
Q 1119 872 1334 640 
Q 1550 409 1972 409 
Q 2434 409 2667 671 
Q 2900 934 2900 1459 
L 2900 3500 
L 3475 3500 
L 3475 806 
Q 3475 619 3529 530 
Q 3584 441 3700 441 
Q 3728 441 3778 458 
Q 3828 475 3916 513 
L 3916 50 
Q 3788 -22 3673 -56 
Q 3559 -91 3450 -91 
Q 3234 -91 3106 31 
Q 2978 153 2931 403 
Q 2775 156 2548 32 
Q 2322 -91 2016 -91 
Q 1697 -91 1473 31 
Q 1250 153 1119 397 
L 1119 -1331 
L 544 -1331 
z
" transform="scale(0.015625)"/>
       </defs>
       <use xlink:href="#DejaVuSans-32"/>
       <use xlink:href="#DejaVuSans-30" transform="translate(63.623047 0)"/>
       <use xlink:href="#DejaVuSans-30" transform="translate(127.246094 0)"/>
       <use xlink:href="#DejaVuSans-20" transform="translate(190.869141 0)"/>
       <use xlink:href="#DejaVuSans-b5" transform="translate(222.65625 0)"/>
       <use xlink:href="#DejaVuSans-73" transform="translate(286.279297 0)"/>
      </g>
     </g>
    </g>
    <g id="ytick_3">
     <g id="line2d_12">
      <g>
       <use xlink:href="#m7d71d13dd2" x="61.909375" y="226.618651" style="stroke: #000000; stroke-width: 0.8"/>
      </g>
     </g>
     <g id="text_13">
      <!-- 400 µs -->
      <g transform="translate(21.071875 230.41787) scale(0.1 -0.1)">
       <use xlink:href="#DejaVuSans-34"/>
       <use xlink:href="#DejaVuSans-30" transform="translate(63.623047 0)"/>
       <use xlink:href="#DejaVuSans-30" transform="translate(127.246094 0)"/>
       <use xlink:href="#DejaVuSans-20" transform="translate(190.869141 0)"/>
       <use xlink:href="#DejaVuSans-b5" transform="translate(222.65625 0)"/>
       <use xlink:href="#DejaVuSans-73" transform="translate(286.279297 0)"/>
      </g>
     </g>
    </g>
    <g id="ytick_4">
     <g id="line2d_13">
      <g>
       <use xlink:href="#m7d71d13dd2" x="61.909375" y="195.712914" style="stroke: #000000; stroke-width: 0.8"/>
      </g>
     </g>
     <g id="text_14">
      <!-- 600 µs -->
      <g transform="translate(21.071875 199.512133) scale(0.1 -0.1)">
       <defs>
        <path id="DejaVuSans-36" d="M 2113 2584 
Q 1688 2584 1439 2293 
Q 1191 2003 1191 1497 
Q 1191 994 1439 701 
Q 1688 409 2113 409 
Q 2538 409 2786 701 
Q 3034 994 3034 1497 
Q 3034 2003 2786 2293 
Q 2538 2584 2113 2584 
z
M 3366 4563 
L 3366 3988 
Q 3128 4100 2886 4159 
Q 2644 4219 2406 4219 
Q 1781 4219 1451 3797 
Q 1122 3375 1075 2522 
Q 1259 2794 1537 2939 
Q 1816 3084 2150 3084 
Q 2853 3084 3261 2657 
Q 3669 2231 3669 1497 
Q 3669 778 3244 343 
Q 2819 -91 2113 -91 
Q 1303 -91 875 529 
Q 447 1150 447 2328 
Q 447 3434 972 4092 
Q 1497 4750 2381 4750 
Q 2619 4750 2861 4703 
Q 3103 4656 3366 4563 
z
" transform="scale(0.015625)"/>
       </defs>
       <use xlink:href="#DejaVuSans-36"/>
       <use xlink:href="#DejaVuSans-30" transform="translate(63.623047 0)"/>
       <use xlink:href="#DejaVuSans-30" transform="translate(127.246094 0)"/>
       <use xlink:href="#DejaVuSans-20" transform="translate(190.869141 0)"/>
       <use xlink:href="#DejaVuSans-b5" transform="translate(222.65625 0)"/>
       <use xlink:href="#DejaVuSans-73" transform="translate(286.279297 0)"/>
      </g>
     </g>
    </g>
    <g id="ytick_5">
     <g id="line2d_14">
      <g>
       <use xlink:href="#m7d71d13dd2" x="61.909375" y="164.807177" style="stroke: #000000; stroke-width: 0.8"/>
      </g>
     </g>
     <g id="text_15">
      <!-- 800 µs -->
      <g transform="translate(21.071875 168.606396) scale(0.1 -0.1)">
       <defs>
        <path id="DejaVuSans-38" d="M 2034 2216 
Q 1584 2216 1326 1975 
Q 1069 1734 1069 1313 
Q 1069 891 1326 650 
Q 1584 409 2034 409 
Q 2484 409 2743 651 
Q 3003 894 3003 1313 
Q 3003 1734 2745 1975 
Q 2488 2216 2034 2216 
z
M 1403 2484 
Q 997 2584 770 2862 
Q 544 3141 544 3541 
Q 544 4100 942 4425 
Q 1341 4750 2034 4750 
Q 2731 4750 3128 4425 
Q 3525 4100 3525 3541 
Q 3525 3141 3298 2862 
Q 3072 2584 2669 2484 
Q 3125 2378 3379 2068 
Q 3634 1759 3634 1313 
Q 3634 634 3220 271 
Q 2806 -91 2034 -91 
Q 1263 -91 848 271 
Q 434 634 434 1313 
Q 434 1759 690 2068 
Q 947 2378 1403 2484 
z
M 1172 3481 
Q 1172 3119 1398 2916 
Q 1625 2713 2034 2713 
Q 2441 2713 2670 2916 
Q 2900 3119 2900 3481 
Q 2900 3844 2670 4047 
Q 2441 4250 2034 4250 
Q 1625 4250 1398 4047 
Q 1172 3844 1172 3481 
z
" transform="scale(0.015625)"/>
       </defs>
       <use xlink:href="#DejaVuSans-38"/>
       <use xlink:href="#DejaVuSans-30" transform="translate(63.623047 0)"/>
       <use xlink:href="#DejaVuSans-30" transform="translate(127.246094 0)"/>
       <use xlink:href="#DejaVuSans-20" transform="translate(190.869141 0)"/>
       <use xlink:href="#DejaVuSans-b5" transform="translate(222.65625 0)"/>
       <use xlink:href="#DejaVuSans-73" transform="translate(286.279297 0)"/>
      </g>
     </g>
    </g>
    <g id="ytick_6">
     <g id="line2d_15">
      <g>
       <use xlink:href="#m7d71d13dd2" x="61.909375" y="133.90144" style="stroke: #000000; stroke-width: 0.8"/>
      </g>
     </g>
     <g id="text_16">
      <!-- 1 ms -->
      <g transform="translate(30.41875 137.700659) scale(0.1 -0.1)">
       <use xlink:href="#DejaVuSans-31"/>
       <use xlink:href="#DejaVuSans-20" transform="translate(63.623047 0)"/>
       <use xlink:href="#DejaVuSans-6d" transform="translate(95.410156 0)"/>
       <use xlink:href="#DejaVuSans-73" transform="translate(192.822266 0)"/>
      </g>
     </g>
    </g>
    <g id="ytick_7">
     <g id="line2d_16">
      <g>
       <use xlink:href="#m7d71d13dd2" x="61.909375" y="102.995704" style="stroke: #000000; stroke-width: 0.8"/>
      </g>
     </g>
     <g id="text_17">
      <!-- 1.2 ms -->
      <g transform="translate(20.878125 106.794922) scale(0.1 -0.1)">
       <use xlink:href="#DejaVuSans-31"/>
       <use xlink:href="#DejaVuSans-2e" transform="translate(63.623047 0)"/>
       <use xlink:href="#DejaVuSans-32" transform="translate(95.410156 0)"/>
       <use xlink:href="#DejaVuSans-20" transform="translate(159.033203 0)"/>
       <use xlink:href="#DejaVuSans-6d" transform="translate(190.820312 0)"/>
       <use xlink:href="#DejaVuSans-73" transform="translate(288.232422 0)"/>
      </g>
     </g>
    </g>
    <g id="ytick_8">
     <g id="line2d_17">
      <g>
       <use xlink:href="#m7d71d13dd2" x="61.909375" y="72.089967" style="stroke: #000000; stroke-width: 0.8"/>
      </g>
     </g>
     <g id="text_18">
      <!-- 1.4 ms -->
      <g transform="translate(20.878125 75.889185) scale(0.1 -0.1)">
       <use xlink:href="#DejaVuSans-31"/>
       <use xlink:href="#DejaVuSans-2e" transform="translate(63.623047 0)"/>
       <use xlink:href="#DejaVuSans-34" transform="translate(95.410156 0)"/>
       <use xlink:href="#DejaVuSans-20" transform="translate(159.033203 0)"/>
       <use xlink:href="#DejaVuSans-6d" transform="translate(190.820312 0)"/>
       <use xlink:href="#DejaVuSans-73" transform="translate(288.232422 0)"/>
      </g>
     </g>
    </g>
    <g id="ytick_9">
     <g id="line2d_18">
      <g>
       <use xlink:href="#m7d71d13dd2" x="61.909375" y="41.18423" style="stroke: #000000; stroke-width: 0.8"/>
      </g>
     </g>
     <g id="text_19">
      <!-- 1.6 ms -->
      <g transform="translate(20.878125 44.983449) scale(0.1 -0.1)">
       <use xlink:href="#DejaVuSans-31"/>
       <use xlink:href="#DejaVuSans-2e" transform="translate(63.623047 0)"/>
       <use xlink:href="#DejaVuSans-36" transform="translate(95.410156 0)"/>
       <use xlink:href="#DejaVuSans-20" transform="translate(159.033203 0)"/>
       <use xlink:href="#DejaVuSans-6d" transform="translate(190.820312 0)"/>
       <use xlink:href="#DejaVuSans-73" transform="translate(288.232422 0)"/>
      </g>
     </g>
    </g>
    <g id="text_20">
     <!-- Read latency (s) -->
     <g transform="translate(14.798438 195.98975) rotate(-90) scale(0.1 -0.1)">
      <defs>
       <path id="DejaVuSans-52" d="M 2841 2188 
Q 3044 2119 3236 1894 
Q 3428 1669 3622 1275 
L 4263 0 
L 3584 0 
L 2988 1197 
Q 2756 1666 2539 1819 
Q 2322 1972 1947 1972 
L 1259 1972 
L 1259 0 
L 628 0 
L 628 4666 
L 2053 4666 
Q 2853 4666 3247 4331 
Q 3641 3997 3641 3322 
Q 3641 2881 3436 2590 
Q 3231 2300 2841 2188 
z
M 1259 4147 
L 1259 2491 
L 2053 2491 
Q 2509 2491 2742 2702 
Q 2975 2913 2975 3322 
Q 2975 3731 2742 3939 
Q 2509 4147 2053 4147 
L 1259 4147 
z
" transform="scale(0.015625)"/>
       <path id="DejaVuSans-64" d="M 2906 2969 
L 2906 4863 
L 3481 4863 
L 3481 0 
L 2906 0 
L 2906 525 
Q 2725 213 2448 61 
Q 2172 -91 1784 -91 
Q 1150 -91 751 415 
Q 353 922 353 1747 
Q 353 2572 751 3078 
Q 1150 3584 1784 3584 
Q 2172 3584 2448 3432 
Q 2725 3281 2906 2969 
z
M 947 1747 
Q 947 1113 1208 752 
Q 1469 391 1925 391 
Q 2381 391 2643 752 
Q 2906 1113 2906 1747 
Q 2906 2381 2643 2742 
Q 2381 3103 1925 3103 
Q 1469 3103 1208 2742 
Q 947 2381 947 1747 
z
" transform="scale(0.015625)"/>
       <path id="DejaVuSans-79" d="M 2059 -325 
Q 1816 -950 1584 -1140 
Q 1353 -1331 966 -1331 
L 506 -1331 
L 506 -850 
L 844 -850 
Q 1081 -850 1212 -737 
Q 1344 -625 1503 -206 
L 1606 56 
L 191 3500 
L 800 3500 
L 1894 763 
L 2988 3500 
L 3597 3500 
L 2059 -325 
z
" transform="scale(0.015625)"/>
       <path id="DejaVuSans-28" d="M 1984 4856 
Q 1566 4138 1362 3434 
Q 1159 2731 1159 2009 
Q 1159 1288 1364 580 
Q 1569 -128 1984 -844 
L 1484 -844 
Q 1016 -109 783 600 
Q 550 1309 550 2009 
Q 550 2706 781 3412 
Q 1013 4119 1484 4856 
L 1984 4856 
z
" transform="scale(0.015625)"/>
       <path id="DejaVuSans-29" d="M 513 4856 
L 1013 4856 
Q 1481 4119 1714 3412 
Q 1947 2706 1947 2009 
Q 1947 1309 1714 600 
Q 1481 -109 1013 -844 
L 513 -844 
Q 928 -128 1133 580 
Q 1338 1288 1338 2009 
Q 1338 2731 1133 3434 
Q 928 4138 513 4856 
z
" transform="scale(0.015625)"/>
      </defs>
      <use xlink:href="#DejaVuSans-52"/>
      <use xlink:href="#DejaVuSans-65" transform="translate(64.982422 0)"/>
      <use xlink:href="#DejaVuSans-61" transform="translate(126.505859 0)"/>
      <use xlink:href="#DejaVuSans-64" transform="translate(187.785156 0)"/>
      <use xlink:href="#DejaVuSans-20" transform="translate(251.261719 0)"/>
      <use xlink:href="#DejaVuSans-6c" transform="translate(283.048828 0)"/>
      <use xlink:href="#DejaVuSans-61" transform="translate(310.832031 0)"/>
      <use xlink:href="#DejaVuSans-74" transform="translate(372.111328 0)"/>
      <use xlink:href="#DejaVuSans-65" transform="translate(411.320312 0)"/>
      <use xlink:href="#DejaVuSans-6e" transform="translate(472.84375 0)"/>
      <use xlink:href="#DejaVuSans-63" transform="translate(536.222656 0)"/>
      <use xlink:href="#DejaVuSans-79" transform="translate(591.203125 0)"/>
      <use xlink:href="#DejaVuSans-20" transform="translate(650.382812 0)"/>
      <use xlink:href="#DejaVuSans-28" transform="translate(682.169922 0)"/>
      <use xlink:href="#DejaVuSans-73" transform="translate(721.183594 0)"/>
      <use xlink:href="#DejaVuSans-29" transform="translate(773.283203 0)"/>
     </g>
    </g>
   </g>
   <g id="line2d_19">
    <path d="M 146.829075 225.771975 
L 147.700046 226.23449 
L 148.135532 226.042153 
L 150.31296 227.201842 
L 150.748446 227.530402 
L 151.183931 227.051449 
L 152.054903 228.049409 
L 152.925874 228.608281 
L 153.36136 228.27292 
L 154.232331 228.823857 
L 154.667817 228.506067 
L 155.538788 228.671764 
L 157.28073 228.391761 
L 157.716216 228.168627 
L 158.587187 228.219073 
L 159.022673 227.555152 
L 160.32913 227.426865 
L 161.200101 227.24832 
L 161.635587 227.191262 
L 162.506558 226.88783 
L 164.683986 226.348229 
L 167.2969 226.267743 
L 168.603357 225.801827 
L 169.038843 225.585117 
L 171.216271 225.348758 
L 171.651757 225.258258 
L 172.522728 225.376721 
L 172.958213 225.264682 
L 173.393699 224.972965 
L 174.26467 224.819549 
L 174.700156 224.212498 
L 175.571127 224.132011 
L 179.925984 223.032026 
L 180.796955 222.907895 
L 181.667926 222.943604 
L 182.974383 222.430076 
L 183.845355 222.431776 
L 185.151811 222.344866 
L 186.022783 222.157063 
L 186.458268 221.598947 
L 187.764725 221.35692 
L 188.200211 221.482751 
L 189.071182 221.538298 
L 190.813125 221.618407 
L 191.24861 221.433439 
L 191.684096 221.37638 
L 192.119582 221.480295 
L 192.555067 221.376191 
L 193.426039 221.42966 
L 194.29701 221.305907 
L 196.474438 220.718316 
L 196.909924 220.599098 
L 197.345409 220.010373 
L 197.780895 220.063842 
L 199.522838 219.617197 
L 199.958323 219.602649 
L 201.700266 219.092333 
L 202.135751 219.063237 
L 202.571237 219.866026 
L 204.31318 219.427884 
L 205.619637 219.146936 
L 207.797065 218.981617 
L 208.23255 219.309232 
L 208.668036 219.207395 
L 209.103522 218.736189 
L 209.539007 218.631708 
L 211.28095 218.647767 
L 211.716436 218.068112 
L 212.151921 218.090406 
L 212.587407 217.831564 
L 213.458378 217.560819 
L 213.893864 217.298387 
L 214.764835 217.144971 
L 215.200321 216.793928 
L 216.071292 216.486151 
L 216.506778 215.931246 
L 218.684206 215.965443 
L 219.119691 216.546044 
L 219.990663 216.840784 
L 220.426148 216.863078 
L 220.861634 216.424936 
L 221.29712 216.307418 
L 221.732605 216.820945 
L 222.168091 217.006292 
L 222.603577 216.817734 
L 223.474548 217.009504 
L 225.651976 216.950744 
L 226.087462 217.643761 
L 226.958433 217.206564 
L 230.442318 216.674709 
L 231.313289 216.620107 
L 231.748775 217.411748 
L 232.619746 217.438199 
L 233.055232 217.857259 
L 233.926203 217.829486 
L 234.797175 217.990459 
L 235.23266 217.446134 
L 235.668146 217.410048 
L 236.103631 218.267817 
L 237.410088 218.00633 
L 237.845574 217.925843 
L 238.28106 218.405362 
L 239.152031 218.294646 
L 240.023002 218.596565 
L 240.458488 218.487172 
L 241.329459 218.635108 
L 242.20043 218.475458 
L 242.635916 218.717107 
L 243.071402 218.272351 
L 243.506887 218.199422 
L 243.942373 218.760184 
L 244.377859 218.661748 
L 245.684316 218.738456 
L 246.119801 218.667228 
L 246.990772 218.766986 
L 247.861744 218.646822 
L 249.168201 218.628874 
L 249.603686 218.141041 
L 252.2166 217.55874 
L 252.652086 217.358657 
L 253.958543 217.586136 
L 254.829514 217.485433 
L 256.135971 217.592938 
L 257.877914 216.842295 
L 258.313399 217.073931 
L 259.18437 217.065429 
L 259.619856 217.595772 
L 260.490827 217.563653 
L 260.926313 217.571399 
L 261.361799 217.735773 
L 261.797284 217.682871 
L 262.23277 217.839121 
L 264.845684 217.713857 
L 265.716655 217.573855 
L 266.152141 217.370182 
L 267.458598 217.273069 
L 267.894083 217.691562 
L 268.765055 217.575745 
L 270.942483 217.548538 
L 271.377968 218.092106 
L 271.813454 217.824195 
L 273.119911 217.813426 
L 273.555397 217.769971 
L 273.990882 216.897653 
L 274.426368 216.892174 
L 274.861854 216.741781 
L 276.603796 216.627097 
L 277.039282 215.897427 
L 277.910253 215.866819 
L 278.345739 215.734564 
L 278.781224 215.337798 
L 281.829624 215.288864 
L 282.265109 215.79918 
L 282.700595 215.664091 
L 285.748995 215.927467 
L 288.797394 216.164204 
L 289.23288 216.015512 
L 290.103851 216.171762 
L 290.974822 216.251115 
L 291.410308 216.271709 
L 291.845794 216.118482 
L 293.587736 216.278888 
L 294.023222 216.613116 
L 294.458707 216.716464 
L 294.894193 216.596678 
L 295.765164 216.853631 
L 296.20065 216.86988 
L 296.636136 217.328805 
L 297.507107 217.482788 
L 299.249049 217.909783 
L 299.684535 217.932645 
L 300.120021 218.290678 
L 300.555506 218.266872 
L 300.990992 218.408763 
L 301.426478 218.737323 
L 301.861963 218.670817 
L 302.297449 218.763018 
L 302.732935 218.73241 
L 303.16842 218.834058 
L 304.039391 218.62415 
L 305.345848 218.713139 
L 305.781334 219.145047 
L 306.21682 219.099891 
L 307.087791 219.266154 
L 309.700705 218.864855 
L 310.13619 218.456753 
L 311.007162 218.476969 
L 311.442647 218.740157 
L 314.055561 218.778889 
L 314.491047 218.72183 
L 315.362018 218.746203 
L 317.539446 218.619994 
L 318.845903 218.556889 
L 319.716875 218.520424 
L 320.15236 219.009202 
L 322.329788 218.99522 
L 323.20076 219.122752 
L 324.071731 219.015814 
L 324.507217 219.411446 
L 327.555616 219.448667 
L 327.991102 219.833718 
L 328.426587 219.847699 
L 329.733044 219.452256 
L 330.604016 219.434874 
L 331.039501 219.308098 
L 331.474987 218.836703 
L 332.781444 219.080619 
L 334.087901 218.989552 
L 334.523386 219.500057 
L 334.958872 219.520084 
L 335.394358 219.680491 
L 335.829843 219.694283 
L 336.265329 219.372336 
L 336.700815 219.340028 
L 337.1363 218.525148 
L 338.007271 218.700669 
L 338.878243 218.83727 
L 340.620185 218.610547 
L 343.233099 219.033007 
L 345.410527 219.056624 
L 346.281499 219.12842 
L 348.458927 219.320379 
L 348.894412 219.021105 
L 352.813783 219.147314 
L 354.12024 219.314711 
L 354.555726 218.4218 
L 356.297668 218.04714 
L 356.733154 218.309383 
L 358.475097 218.346981 
L 358.910582 219.099135 
L 359.781554 219.238759 
L 360.217039 218.755461 
L 361.523496 218.693867 
L 361.958982 219.430151 
L 362.394467 219.099324 
L 362.829953 219.005801 
L 363.265439 219.064749 
L 363.700924 219.386696 
L 364.13641 219.413147 
L 364.571896 219.161673 
L 368.055781 219.466238 
L 369.362238 219.510449 
L 369.797723 219.277113 
L 370.233209 219.3166 
L 370.668695 219.022616 
L 371.539666 218.860887 
L 373.281608 218.839348 
L 374.588065 219.1373 
L 378.507436 218.848228 
L 379.813893 218.489061 
L 381.991321 218.278019 
L 382.426807 217.617122 
L 382.862293 217.670779 
L 383.297778 217.583113 
L 384.168749 217.698364 
L 385.039721 217.605974 
L 385.475206 217.702898 
L 385.910692 217.640927 
L 386.346178 217.724059 
L 386.781663 217.366026 
L 387.217149 217.303866 
L 387.652635 217.432342 
L 388.08812 217.167454 
L 388.959091 215.764794 
L 391.13652 215.848492 
L 392.442977 215.863418 
L 393.749434 215.920099 
L 394.184919 215.74949 
L 394.620405 215.702256 
L 395.05589 215.934458 
L 396.797833 215.931624 
L 397.233319 215.142627 
L 397.668804 214.689937 
L 398.10429 214.752475 
L 398.539776 214.129742 
L 400.717204 213.752059 
L 401.152689 213.643043 
L 402.023661 213.778699 
L 402.023661 213.778699 
" clip-path="url(#paeca6a0f56)" style="fill: none; stroke: #1f77b4; stroke-opacity: 0.8; stroke-width: 1.5; stroke-linecap: square"/>
   </g>
   <g id="line2d_20">
    <path d="M 146.829075 155.832989 
L 147.264561 155.871343 
L 149.441989 155.220837 
L 149.877475 155.285264 
L 150.31296 155.132415 
L 151.183931 154.992791 
L 151.619417 154.90777 
L 152.054903 154.629845 
L 154.232331 154.077963 
L 154.667817 153.785112 
L 155.103302 153.79796 
L 155.538788 153.580495 
L 155.974273 153.50492 
L 156.845245 153.084916 
L 157.28073 152.918652 
L 157.716216 152.927154 
L 159.022673 152.242639 
L 159.458159 152.066929 
L 161.635587 151.751217 
L 164.248501 150.840546 
L 165.990443 150.454361 
L 167.2969 149.686903 
L 167.732386 149.650627 
L 168.603357 149.346251 
L 169.474328 149.214374 
L 170.3453 149.100634 
L 170.780785 149.155615 
L 171.216271 148.856907 
L 171.651757 148.184295 
L 172.087242 148.011608 
L 172.522728 147.457836 
L 172.958213 147.463127 
L 173.393699 147.298186 
L 173.829185 147.364124 
L 174.700156 146.91389 
L 175.135642 180.221408 
L 175.571127 180.094254 
L 176.006613 179.678217 
L 177.31307 179.236674 
L 177.748556 178.761877 
L 178.184041 178.711432 
L 178.619527 178.497556 
L 179.490498 178.436719 
L 180.361469 178.216419 
L 180.796955 178.286515 
L 181.232441 178.214152 
L 181.667926 177.710827 
L 183.845355 177.156678 
L 184.716326 177.196354 
L 186.893754 177.059376 
L 187.32924 177.228851 
L 187.764725 177.045394 
L 188.200211 176.421339 
L 189.071182 176.159285 
L 189.506668 176.188948 
L 191.24861 175.79785 
L 191.684096 175.532962 
L 193.426039 175.398062 
L 193.861524 175.494041 
L 194.732496 175.249369 
L 198.651866 175.181541 
L 199.522838 175.006776 
L 200.393809 175.094253 
L 200.829295 174.857705 
L 201.700266 174.915708 
L 202.135751 175.003375 
L 202.571237 174.798379 
L 203.877694 174.65611 
L 204.31318 174.829365 
L 205.184151 174.893792 
L 206.926093 174.337564 
L 209.103522 174.1662 
L 209.974493 174.314703 
L 212.151921 173.844442 
L 213.458378 174.020719 
L 214.329349 173.647193 
L 215.200321 173.595046 
L 215.635806 173.45051 
L 216.071292 173.447676 
L 216.506778 173.296716 
L 216.942263 172.626183 
L 219.119691 172.557977 
L 219.555177 172.696656 
L 219.990663 172.480702 
L 220.861634 172.634496 
L 221.29712 172.502052 
L 221.732605 172.489204 
L 222.168091 172.648666 
L 222.603577 172.399648 
L 223.474548 172.318217 
L 223.910033 209.623053 
L 224.345519 209.422025 
L 225.21649 209.25425 
L 226.522947 208.810817 
L 228.700376 209.273332 
L 229.135861 209.012412 
L 230.006832 208.962155 
L 230.877804 209.013734 
L 231.748775 208.84407 
L 232.619746 208.770385 
L 233.055232 208.886391 
L 233.490718 208.845015 
L 233.926203 208.68593 
L 234.361689 208.858996 
L 235.23266 208.5652 
L 235.668146 208.429544 
L 236.103631 208.54574 
L 236.539117 208.493594 
L 236.974603 208.083981 
L 239.152031 207.882575 
L 239.587517 208.040147 
L 240.023002 207.908081 
L 240.458488 207.937177 
L 240.893974 207.325403 
L 243.071402 207.270989 
L 244.377859 207.562706 
L 244.813344 207.576499 
L 245.684316 207.442543 
L 246.119801 206.796382 
L 246.555287 206.717785 
L 246.990772 206.781834 
L 247.426258 206.998732 
L 248.297229 206.867233 
L 248.732715 206.821511 
L 249.603686 206.978327 
L 250.039172 206.891984 
L 250.474658 206.617082 
L 252.652086 206.888205 
L 253.087571 206.987396 
L 256.135971 206.937895 
L 256.571457 207.498846 
L 257.006942 207.632613 
L 257.442428 208.12498 
L 258.748885 208.236452 
L 259.18437 207.886542 
L 260.055342 207.930942 
L 260.490827 208.006706 
L 260.926313 208.517777 
L 261.361799 208.662313 
L 261.797284 208.65759 
L 262.23277 208.28652 
L 262.668256 208.795891 
L 264.845684 208.854461 
L 265.281169 209.068526 
L 266.152141 209.054356 
L 266.587626 209.470204 
L 267.458598 209.391984 
L 267.894083 209.398597 
L 268.329569 209.29147 
L 268.765055 208.747524 
L 269.20054 208.855217 
L 270.071511 208.629628 
L 270.506997 208.762261 
L 271.813454 208.40366 
L 272.24894 208.361716 
L 272.684425 208.517777 
L 273.119911 208.995219 
L 273.555397 209.173007 
L 277.039282 209.427126 
L 277.474767 209.377814 
L 277.910253 208.861074 
L 278.781224 208.71616 
L 279.652196 208.786633 
L 280.523167 208.70029 
L 281.394138 208.635862 
L 281.829624 208.049405 
L 282.265109 208.006328 
L 282.700595 207.841576 
L 283.571566 207.841387 
L 284.007052 207.976098 
L 284.878023 207.874073 
L 285.313509 207.786595 
L 286.18448 207.998204 
L 287.055451 207.727647 
L 287.490937 207.951914 
L 288.361908 208.00425 
L 288.797394 207.876718 
L 290.103851 207.950592 
L 291.410308 208.139339 
L 292.716765 208.069999 
L 293.15225 206.501642 
L 293.587736 206.4238 
L 297.071621 206.826612 
L 297.507107 172.053896 
L 297.942592 172.028578 
L 298.378078 171.871195 
L 298.813564 171.530921 
L 299.684535 171.702853 
L 300.555506 170.873613 
L 301.426478 170.836392 
L 301.861963 171.439665 
L 302.732935 171.596671 
L 303.603906 171.543958 
L 304.474877 171.609896 
L 304.910363 171.86855 
L 305.345848 171.923341 
L 305.781334 171.68906 
L 306.21682 171.945258 
L 306.652305 171.858347 
L 307.087791 171.420016 
L 307.523277 171.42285 
L 308.394248 170.586052 
L 308.829734 170.505188 
L 309.265219 170.729266 
L 311.007162 170.986219 
L 311.878133 171.06047 
L 313.18459 170.653502 
L 313.620076 170.702437 
L 314.055561 170.908566 
L 314.491047 170.74797 
L 315.362018 170.959768 
L 315.797504 135.657464 
L 317.539446 135.963351 
L 317.974932 135.825428 
L 318.845903 136.001139 
L 319.281389 135.914228 
L 320.15236 136.296445 
L 321.458817 136.405273 
L 321.894303 136.887626 
L 322.765274 137.028005 
L 323.20076 136.911999 
L 325.378188 136.978693 
L 325.813674 137.484475 
L 326.249159 137.682857 
L 326.684645 137.499212 
L 327.12013 137.541344 
L 327.555616 137.717433 
L 328.426587 137.796786 
L 328.862073 137.930741 
L 329.733044 137.401721 
L 330.604016 137.482774 
L 331.039501 138.118922 
L 331.910472 138.082079 
L 332.781444 138.073388 
L 334.958872 138.298789 
L 335.394358 138.627537 
L 336.265329 138.722572 
L 338.442757 138.724839 
L 339.749214 138.918876 
L 340.1847 138.788511 
L 340.620185 138.928701 
L 342.797614 138.872398 
L 343.233099 139.01769 
L 343.668585 139.042252 
L 344.10407 139.508168 
L 344.539556 139.610004 
L 344.975042 139.553512 
L 345.410527 138.691775 
L 345.846013 138.132903 
L 346.281499 137.998003 
L 346.716984 137.997436 
L 347.15247 138.593151 
L 347.587956 138.488669 
L 349.765384 138.517387 
L 350.636355 138.327129 
L 351.942812 138.640574 
L 352.378298 138.198464 
L 353.249269 138.366806 
L 353.684755 138.920388 
L 354.12024 138.823086 
L 354.555726 138.39628 
L 354.991211 138.511153 
L 355.426697 138.441624 
L 355.862183 104.070397 
L 356.297668 104.086834 
L 356.733154 104.279549 
L 357.16864 103.75903 
L 357.604125 103.723888 
L 358.039611 103.80702 
L 362.394467 103.462212 
L 362.829953 69.869779 
L 363.700924 70.067784 
L 364.571896 70.253508 
L 365.007381 70.269001 
L 365.878353 70.473429 
L 366.749324 70.46965 
L 368.926752 70.176233 
L 369.797723 69.933072 
L 371.10418 69.772099 
L 371.539666 69.925893 
L 371.975151 69.935151 
L 372.410637 69.679898 
L 372.846123 69.682921 
L 373.281608 69.23741 
L 373.717094 35.110477 
L 375.894522 35.029235 
L 376.765494 35.105376 
L 377.200979 35.146186 
L 377.636465 34.990125 
L 378.07195 36.582288 
L 380.249379 36.600237 
L 380.684864 36.401288 
L 381.12035 36.612707 
L 381.991321 36.371436 
L 382.426807 71.255813 
L 382.862293 71.321941 
L 383.297778 71.214436 
L 383.733264 71.613469 
L 384.168749 71.763295 
L 385.039721 71.605911 
L 385.475206 71.990585 
L 386.346178 71.978871 
L 386.781663 71.59193 
L 389.394577 71.420754 
L 391.572005 71.790691 
L 392.442977 72.376014 
L 392.878462 38.800585 
L 393.313948 39.222668 
L 394.184919 39.342453 
L 395.926862 39.265557 
L 396.362347 39.408959 
L 396.797833 39.316002 
L 400.281718 39.523454 
L 400.717204 74.770966 
L 401.588175 74.789671 
L 402.023661 74.626619 
L 402.023661 74.626619 
" clip-path="url(#paeca6a0f56)" style="fill: none; stroke: #ff7f0e; stroke-opacity: 0.8; stroke-width: 1.5; stroke-linecap: square"/>
   </g>
   <g id="line2d_21">
    <path d="M 146.829075 251.339921 
L 148.135532 251.333119 
L 152.054903 250.851332 
L 153.796845 250.731169 
L 155.103302 250.659184 
L 158.151702 250.590412 
L 158.587187 250.893654 
L 159.022673 250.800508 
L 159.458159 251.42173 
L 160.764616 251.14475 
L 161.200101 251.213333 
L 162.071072 251.109419 
L 163.377529 251.262835 
L 164.683986 251.016273 
L 165.554958 251.018918 
L 166.425929 250.968661 
L 166.861415 251.046125 
L 167.732386 250.938243 
L 170.3453 250.778592 
L 171.651757 250.715676 
L 172.522728 250.696216 
L 173.393699 250.86777 
L 174.26467 250.816757 
L 175.571127 250.879862 
L 176.006613 250.668253 
L 177.748556 250.837729 
L 178.619527 250.95109 
L 179.055012 251.138893 
L 186.893754 250.850388 
L 189.071182 250.570762 
L 192.990553 250.501045 
L 193.861524 250.519561 
L 195.167981 250.7238 
L 196.909924 250.660129 
L 197.780895 250.607227 
L 198.216381 250.710386 
L 203.006723 250.633678 
L 205.184151 251.024209 
L 206.055122 251.058217 
L 208.23255 251.101861 
L 209.103522 251.162888 
L 210.845464 251.048581 
L 221.29712 250.82507 
L 222.168091 250.932764 
L 222.603577 250.860779 
L 223.039062 250.934842 
L 223.910033 250.744772 
L 224.781005 250.809766 
L 225.21649 250.727957 
L 226.522947 250.776891 
L 227.393919 250.674488 
L 230.006832 250.68658 
L 230.877804 250.582476 
L 231.313289 250.674488 
L 232.184261 250.505579 
L 233.490718 250.582287 
L 236.974603 250.92275 
L 237.410088 250.737026 
L 243.506887 250.654839 
L 244.377859 250.740994 
L 253.087571 251.365616 
L 253.958543 251.418707 
L 254.829514 251.353146 
L 260.490827 251.44308 
L 260.926313 251.704378 
L 261.797284 251.648264 
L 262.668256 251.564565 
L 263.974712 251.328584 
L 265.716655 251.355413 
L 270.506997 250.981509 
L 272.24894 251.248665 
L 273.119911 251.165155 
L 273.990882 251.29571 
L 276.603796 251.156086 
L 277.039282 251.231093 
L 277.910253 251.106774 
L 280.087681 251.129824 
L 282.265109 251.18915 
L 284.007052 251.220324 
L 284.878023 251.152118 
L 285.313509 251.25471 
L 286.619966 251.143805 
L 291.845794 251.074466 
L 293.15225 250.91916 
L 294.894193 250.880617 
L 295.329679 250.79673 
L 295.765164 250.875894 
L 296.20065 250.777836 
L 297.071621 250.916515 
L 297.942592 250.87835 
L 299.249049 250.942399 
L 300.120021 250.86947 
L 300.990992 251.003237 
L 303.16842 251.019674 
L 304.039391 250.91217 
L 304.910363 250.95109 
L 305.781334 250.889497 
L 306.652305 250.846609 
L 308.829734 251.042346 
L 310.13619 251.042913 
L 311.007162 250.984532 
L 311.878133 250.955058 
L 312.313619 250.97962 
L 313.18459 250.901967 
L 314.926532 250.921616 
L 315.362018 250.69376 
L 317.974932 250.813356 
L 320.15236 250.573596 
L 321.894303 250.636323 
L 322.329788 250.817891 
L 323.636245 250.715109 
L 324.071731 250.789739 
L 325.378188 250.688847 
L 326.684645 250.762532 
L 328.426587 250.904234 
L 329.297559 250.872493 
L 335.394358 250.897622 
L 337.1363 250.950524 
L 337.571786 251.055383 
L 338.442757 250.972251 
L 339.749214 250.957703 
L 347.15247 250.595135 
L 348.894412 250.826393 
L 352.813783 250.852277 
L 353.684755 250.861724 
L 354.12024 251.079189 
L 356.297668 250.722667 
L 358.475097 250.829794 
L 360.217039 250.931441 
L 361.08801 250.983021 
L 364.571896 250.922561 
L 365.878353 250.753463 
L 366.749324 250.822992 
L 369.362238 250.621775 
L 369.797723 250.685635 
L 370.233209 250.630466 
L 370.668695 250.716621 
L 371.10418 250.62801 
L 372.410637 250.757431 
L 375.459037 250.664852 
L 377.636465 250.850199 
L 380.684864 250.833005 
L 381.555836 250.940132 
L 382.862293 250.879484 
L 384.604235 250.843964 
L 385.910692 250.832628 
L 386.346178 250.489142 
L 386.781663 250.548657 
L 387.652635 250.520505 
L 389.830063 250.632922 
L 391.13652 250.830927 
L 393.313948 250.89441 
L 394.184919 250.828282 
L 398.975261 251.159109 
L 399.846233 251.174413 
L 400.281718 251.46783 
L 400.717204 251.295332 
L 401.152689 251.361837 
L 401.588175 251.279083 
L 402.023661 251.346722 
L 402.023661 251.346722 
" clip-path="url(#paeca6a0f56)" style="fill: none; stroke: #2ca02c; stroke-opacity: 0.8; stroke-width: 1.5; stroke-linecap: square"/>
   </g>
   <g id="line2d_22">
    <path d="M 146.829075 247.755617 
L 150.31296 247.71424 
L 152.054903 247.481093 
L 152.490388 247.507922 
L 153.36136 247.357151 
L 153.796845 247.428002 
L 156.845245 246.795633 
L 157.716216 247.012532 
L 158.587187 247.166703 
L 159.022673 247.08735 
L 160.32913 247.178795 
L 163.813015 246.959819 
L 164.248501 247.161791 
L 168.167871 247.337313 
L 170.3453 247.101143 
L 170.780785 247.13175 
L 171.216271 247.032937 
L 171.651757 247.220739 
L 172.522728 246.989293 
L 172.958213 247.049941 
L 173.829185 246.960196 
L 175.135642 246.965487 
L 175.571127 246.173656 
L 176.006613 246.13927 
L 176.442099 246.236194 
L 178.619527 246.097704 
L 179.490498 246.178379 
L 180.796955 246.025719 
L 181.232441 245.772923 
L 182.974383 245.547144 
L 188.635697 245.535997 
L 193.426039 245.243524 
L 195.167981 245.527684 
L 195.603467 245.456644 
L 196.474438 245.548467 
L 196.909924 245.602125 
L 197.345409 245.529573 
L 197.780895 245.758942 
L 199.522838 245.71303 
L 199.958323 245.431705 
L 205.619637 245.597968 
L 206.055122 245.47516 
L 208.23255 245.548656 
L 209.103522 245.613272 
L 209.539007 245.95638 
L 211.716436 245.657861 
L 212.587407 245.61894 
L 213.458378 245.44323 
L 213.893864 245.486496 
L 214.329349 245.33837 
L 215.200321 245.26733 
L 216.942263 245.04004 
L 217.813235 245.146411 
L 219.990663 244.922522 
L 221.732605 244.548618 
L 222.603577 244.599631 
L 226.522947 244.48797 
L 228.700376 244.752102 
L 230.006832 244.781009 
L 230.877804 244.719605 
L 232.184261 245.013212 
L 232.619746 244.876611 
L 233.490718 244.880578 
L 234.361689 244.751535 
L 234.797175 244.836556 
L 235.23266 244.74001 
L 240.458488 245.225953 
L 240.893974 245.33308 
L 246.119801 244.814073 
L 247.426258 244.551263 
L 247.861744 244.560332 
L 248.732715 244.420142 
L 249.603686 244.259924 
L 250.910143 244.032256 
L 252.652086 243.961405 
L 254.829514 244.168668 
L 255.700485 244.142217 
L 256.135971 243.985778 
L 256.571457 243.611118 
L 257.442428 243.701618 
L 257.877914 243.594491 
L 259.18437 243.556515 
L 260.055342 243.439186 
L 260.490827 243.960083 
L 261.361799 243.71371 
L 262.668256 243.867504 
L 263.103741 243.745829 
L 264.410198 243.708987 
L 265.281169 243.694061 
L 267.023112 243.786828 
L 268.765055 243.713143 
L 269.20054 243.764912 
L 269.636026 243.634546 
L 271.813454 243.719756 
L 272.684425 243.684047 
L 273.555397 243.580132 
L 274.426368 243.602238 
L 278.345739 243.317889 
L 278.781224 243.06925 
L 281.394138 242.871434 
L 281.829624 242.770731 
L 282.700595 242.792269 
L 284.442538 242.736911 
L 284.878023 243.016159 
L 285.748995 242.828356 
L 286.619966 242.72822 
L 289.23288 242.303492 
L 292.716765 241.864972 
L 293.587736 241.635037 
L 297.507107 241.730261 
L 299.249049 242.037281 
L 299.684535 241.877253 
L 300.990992 241.944514 
L 301.426478 241.855903 
L 302.297449 241.915796 
L 306.21682 241.710233 
L 306.652305 240.963936 
L 307.087791 240.871736 
L 307.523277 240.911412 
L 307.958762 240.584175 
L 308.829734 240.443796 
L 309.700705 240.304172 
L 310.571676 240.393539 
L 311.007162 240.16606 
L 313.18459 240.202713 
L 313.620076 239.944249 
L 315.797504 239.555797 
L 316.232989 238.919838 
L 316.668475 238.800431 
L 317.539446 237.324274 
L 317.974932 236.960384 
L 318.410418 236.903325 
L 318.845903 236.967752 
L 319.716875 236.899735 
L 322.765274 236.741029 
L 323.20076 236.645805 
L 323.636245 236.33425 
L 325.813674 235.937673 
L 326.684645 236.075597 
L 327.555616 235.981506 
L 328.862073 235.795027 
L 330.604016 235.720019 
L 333.216929 236.060482 
L 334.523386 235.907821 
L 334.958872 235.968659 
L 335.829843 235.805985 
L 337.571786 234.992994 
L 339.749214 234.821251 
L 340.620185 234.824652 
L 341.055671 234.574689 
L 341.491157 234.920064 
L 341.926642 234.905138 
L 342.362128 234.57809 
L 342.797614 234.478521 
L 343.668585 234.566754 
L 344.539556 234.468507 
L 344.975042 234.543704 
L 345.410527 234.744543 
L 346.716984 234.815583 
L 348.023441 234.730184 
L 349.329898 234.479466 
L 350.636355 234.528778 
L 351.507326 234.629481 
L 353.249269 234.843356 
L 354.12024 234.665379 
L 354.555726 234.776284 
L 357.604125 234.253876 
L 358.039611 234.392366 
L 358.475097 234.154118 
L 358.910582 234.066452 
L 359.781554 234.145994 
L 361.08801 234.304322 
L 361.523496 233.470926 
L 362.829953 233.365499 
L 365.007381 233.516837 
L 365.878353 233.561048 
L 367.184809 233.742804 
L 368.055781 233.644936 
L 369.362238 233.754896 
L 370.668695 234.041701 
L 371.10418 233.5448 
L 377.636465 233.82877 
L 378.942922 233.99579 
L 379.378407 233.746205 
L 380.249379 233.640779 
L 381.991321 233.659106 
L 382.862293 233.52156 
L 384.168749 233.517593 
L 384.604235 233.656083 
L 385.039721 233.646447 
L 385.475206 233.01559 
L 385.910692 232.906952 
L 386.346178 232.401737 
L 388.08812 232.349402 
L 388.523606 232.268915 
L 389.394577 232.328619 
L 390.265548 232.378687 
L 390.701034 232.100006 
L 391.13652 232.178037 
L 391.572005 232.998019 
L 392.442977 233.052433 
L 392.878462 233.432005 
L 393.313948 233.227387 
L 395.491376 233.319021 
L 395.926862 233.477727 
L 397.668804 233.173729 
L 398.10429 233.179209 
L 398.539776 233.330546 
L 400.717204 233.12215 
L 401.152689 233.71522 
L 401.588175 233.731846 
L 402.023661 234.549561 
L 402.023661 234.549561 
" clip-path="url(#paeca6a0f56)" style="fill: none; stroke: #d62728; stroke-opacity: 0.8; stroke-width: 1.5; stroke-linecap: square"/>
   </g>
   <g id="line2d_23">
    <path d="M 146.829075 249.928569 
L 149.006503 249.84317 
L 150.31296 249.729808 
L 151.183931 249.420898 
L 152.054903 249.293555 
L 153.36136 249.043782 
L 161.200101 248.627367 
L 161.635587 248.670822 
L 162.071072 248.583156 
L 163.377529 248.679702 
L 165.990443 248.595437 
L 166.861415 248.699352 
L 167.2969 248.66232 
L 168.167871 248.720702 
L 169.909814 248.757733 
L 170.3453 249.002972 
L 171.216271 249.026211 
L 173.829185 248.975198 
L 176.006613 248.872417 
L 176.442099 248.777571 
L 178.619527 248.966318 
L 179.490498 248.957249 
L 179.925984 249.006373 
L 180.361469 249.38689 
L 182.103412 249.157899 
L 183.845355 248.967263 
L 185.151811 249.069288 
L 185.587297 249.013552 
L 187.764725 249.508753 
L 188.200211 249.400493 
L 189.506668 249.558255 
L 191.24861 249.47909 
L 192.119582 249.527269 
L 194.29701 249.603599 
L 194.732496 249.723385 
L 195.167981 249.653856 
L 196.038952 249.742089 
L 196.474438 249.261625 
L 197.345409 249.405405 
L 199.087352 249.488348 
L 199.958323 249.622682 
L 200.393809 249.723196 
L 201.26478 249.611912 
L 202.135751 249.666515 
L 203.006723 249.4721 
L 204.31318 249.66387 
L 206.490608 249.70638 
L 207.361579 249.778932 
L 208.668036 249.872266 
L 209.539007 249.927058 
L 210.845464 249.997909 
L 211.28095 250.139422 
L 212.151921 250.100879 
L 214.764835 250.383149 
L 215.635806 250.455889 
L 217.377749 250.667498 
L 218.684206 250.441152 
L 219.990663 250.655595 
L 221.732605 250.752141 
L 223.039062 250.923884 
L 224.345519 251.072387 
L 226.958433 251.588371 
L 227.829404 251.696443 
L 229.135861 251.927322 
L 232.619746 251.501461 
L 233.055232 251.631638 
L 234.797175 251.738198 
L 236.539117 252.118715 
L 237.845574 252.166326 
L 239.152031 252.375667 
L 239.587517 252.44973 
L 240.458488 252.404197 
L 240.893974 252.557613 
L 241.764945 252.49243 
L 243.071402 252.631109 
L 245.684316 252.815132 
L 246.119801 252.902988 
L 248.732715 252.751461 
L 251.345629 252.611648 
L 251.781115 252.537208 
L 252.2166 252.62733 
L 253.523057 252.421012 
L 255.265 252.428947 
L 256.571457 252.218473 
L 257.442428 252.303683 
L 260.055342 252.649436 
L 260.490827 252.800962 
L 262.23277 252.731056 
L 263.539227 252.487706 
L 263.974712 252.568571 
L 265.281169 252.380202 
L 266.587626 252.492808 
L 267.894083 252.751839 
L 268.329569 252.73748 
L 268.765055 252.837994 
L 269.636026 252.705172 
L 271.813454 252.651892 
L 272.684425 252.676265 
L 273.119911 252.797939 
L 273.990882 252.720476 
L 274.861854 252.712162 
L 275.297339 252.913946 
L 276.16831 252.653403 
L 278.345739 252.564981 
L 280.958652 252.530784 
L 281.394138 253.000479 
L 285.748995 252.96477 
L 287.055451 253.174111 
L 287.490937 253.148982 
L 287.926423 253.250252 
L 289.668365 252.85821 
L 290.539337 252.729356 
L 291.410308 252.606736 
L 292.281279 252.692135 
L 293.15225 252.785092 
L 294.894193 252.496964 
L 297.942592 252.38417 
L 298.813564 252.264384 
L 299.249049 252.16576 
L 299.684535 252.182953 
L 300.990992 251.85855 
L 302.297449 251.829076 
L 302.732935 251.895959 
L 304.474877 251.777118 
L 309.265219 251.635794 
L 310.13619 251.544349 
L 311.007162 251.439868 
L 312.313619 251.234872 
L 314.491047 250.95109 
L 315.362018 251.087502 
L 320.15236 251.296843 
L 321.023331 251.124911 
L 322.329788 251.412094 
L 325.378188 251.506184 
L 325.813674 250.99549 
L 326.249159 251.062185 
L 327.991102 250.777647 
L 329.733044 250.53921 
L 330.16853 250.545067 
L 331.039501 250.329302 
L 331.474987 250.392218 
L 332.345958 250.657862 
L 335.394358 250.614218 
L 336.265329 250.541288 
L 336.700815 250.612517 
L 338.007271 250.583043 
L 339.313728 250.823748 
L 340.1847 250.604204 
L 341.055671 250.716432 
L 341.491157 250.88723 
L 341.926642 250.643692 
L 343.233099 250.566417 
L 345.846013 250.103713 
L 347.15247 250.284147 
L 348.023441 250.327035 
L 348.894412 250.234834 
L 352.378298 250.228221 
L 353.249269 250.152836 
L 354.12024 250.205171 
L 354.991211 250.268843 
L 360.652525 250.486497 
L 361.523496 250.526173 
L 363.700924 250.529763 
L 365.007381 250.525229 
L 365.442867 250.650493 
L 370.233209 250.654083 
L 372.846123 250.713787 
L 374.588065 250.842641 
L 375.459037 250.847554 
L 377.200979 250.90329 
L 378.07195 250.698672 
L 381.12035 251.229015 
L 381.991321 251.226937 
L 382.426807 251.129446 
L 383.297778 251.24583 
L 385.039721 251.281728 
L 385.910692 251.454227 
L 386.781663 251.324428 
L 387.652635 251.165722 
L 388.523606 251.15004 
L 391.572005 250.875705 
L 392.442977 250.771223 
L 393.313948 250.70264 
L 393.749434 250.795218 
L 394.184919 250.69017 
L 394.620405 250.777458 
L 398.539776 250.413001 
L 399.846233 250.570762 
L 401.588175 250.281124 
L 402.023661 250.285469 
L 402.023661 250.285469 
" clip-path="url(#paeca6a0f56)" style="fill: none; stroke: #9467bd; stroke-opacity: 0.8; stroke-width: 1.5; stroke-linecap: square"/>
   </g>
   <g id="patch_3">
    <path d="M 61.909375 288.430125 
L 61.909375 22.318125 
" style="fill: none; stroke: #000000; stroke-width: 0.8; stroke-linejoin: miter; stroke-linecap: square"/>
   </g>
   <g id="patch_4">
    <path d="M 419.029375 288.430125 
L 419.029375 22.318125 
" style="fill: none; stroke: #000000; stroke-width: 0.8; stroke-linejoin: miter; stroke-linecap: square"/>
   </g>
   <g id="patch_5">
    <path d="M 61.909375 288.430125 
L 419.029375 288.430125 
" style="fill: none; stroke: #000000; stroke-width: 0.8; stroke-linejoin: miter; stroke-linecap: square"/>
   </g>
   <g id="patch_6">
    <path d="M 61.909375 22.318125 
L 419.029375 22.318125 
" style="fill: none; stroke: #000000; stroke-width: 0.8; stroke-linejoin: miter; stroke-linecap: square"/>
   </g>
   <g id="text_21">
    <!-- Get next sibling [root] -->
    <g transform="translate(174.507812 16.318125) scale(0.12 -0.12)">
     <defs>
      <path id="DejaVuSans-47" d="M 3809 666 
L 3809 1919 
L 2778 1919 
L 2778 2438 
L 4434 2438 
L 4434 434 
Q 4069 175 3628 42 
Q 3188 -91 2688 -91 
Q 1594 -91 976 548 
Q 359 1188 359 2328 
Q 359 3472 976 4111 
Q 1594 4750 2688 4750 
Q 3144 4750 3555 4637 
Q 3966 4525 4313 4306 
L 4313 3634 
Q 3963 3931 3569 4081 
Q 3175 4231 2741 4231 
Q 1884 4231 1454 3753 
Q 1025 3275 1025 2328 
Q 1025 1384 1454 906 
Q 1884 428 2741 428 
Q 3075 428 3337 486 
Q 3600 544 3809 666 
z
" transform="scale(0.015625)"/>
      <path id="DejaVuSans-78" d="M 3513 3500 
L 2247 1797 
L 3578 0 
L 2900 0 
L 1881 1375 
L 863 0 
L 184 0 
L 1544 1831 
L 300 3500 
L 978 3500 
L 1906 2253 
L 2834 3500 
L 3513 3500 
z
" transform="scale(0.015625)"/>
      <path id="DejaVuSans-67" d="M 2906 1791 
Q 2906 2416 2648 2759 
Q 2391 3103 1925 3103 
Q 1463 3103 1205 2759 
Q 947 2416 947 1791 
Q 947 1169 1205 825 
Q 1463 481 1925 481 
Q 2391 481 2648 825 
Q 2906 1169 2906 1791 
z
M 3481 434 
Q 3481 -459 3084 -895 
Q 2688 -1331 1869 -1331 
Q 1566 -1331 1297 -1286 
Q 1028 -1241 775 -1147 
L 775 -588 
Q 1028 -725 1275 -790 
Q 1522 -856 1778 -856 
Q 2344 -856 2625 -561 
Q 2906 -266 2906 331 
L 2906 616 
Q 2728 306 2450 153 
Q 2172 0 1784 0 
Q 1141 0 747 490 
Q 353 981 353 1791 
Q 353 2603 747 3093 
Q 1141 3584 1784 3584 
Q 2172 3584 2450 3431 
Q 2728 3278 2906 2969 
L 2906 3500 
L 3481 3500 
L 3481 434 
z
" transform="scale(0.015625)"/>
      <path id="DejaVuSans-5b" d="M 550 4863 
L 1875 4863 
L 1875 4416 
L 1125 4416 
L 1125 -397 
L 1875 -397 
L 1875 -844 
L 550 -844 
L 550 4863 
z
" transform="scale(0.015625)"/>
      <path id="DejaVuSans-72" d="M 2631 2963 
Q 2534 3019 2420 3045 
Q 2306 3072 2169 3072 
Q 1681 3072 1420 2755 
Q 1159 2438 1159 1844 
L 1159 0 
L 581 0 
L 581 3500 
L 1159 3500 
L 1159 2956 
Q 1341 3275 1631 3429 
Q 1922 3584 2338 3584 
Q 2397 3584 2469 3576 
Q 2541 3569 2628 3553 
L 2631 2963 
z
" transform="scale(0.015625)"/>
      <path id="DejaVuSans-5d" d="M 1947 4863 
L 1947 -844 
L 622 -844 
L 622 -397 
L 1369 -397 
L 1369 4416 
L 622 4416 
L 622 4863 
L 1947 4863 
z
" transform="scale(0.015625)"/>
     </defs>
     <use xlink:href="#DejaVuSans-47"/>
     <use xlink:href="#DejaVuSans-65" transform="translate(77.490234 0)"/>
     <use xlink:href="#DejaVuSans-74" transform="translate(139.013672 0)"/>
     <use xlink:href="#DejaVuSans-20" transform="translate(178.222656 0)"/>
     <use xlink:href="#DejaVuSans-6e" transform="translate(210.009766 0)"/>
     <use xlink:href="#DejaVuSans-65" transform="translate(273.388672 0)"/>
     <use xlink:href="#DejaVuSans-78" transform="translate(333.162109 0)"/>
     <use xlink:href="#DejaVuSans-74" transform="translate(392.341797 0)"/>
     <use xlink:href="#DejaVuSans-20" transform="translate(431.550781 0)"/>
     <use xlink:href="#DejaVuSans-73" transform="translate(463.337891 0)"/>
     <use xlink:href="#DejaVuSans-69" transform="translate(515.4375 0)"/>
     <use xlink:href="#DejaVuSans-62" transform="translate(543.220703 0)"/>
     <use xlink:href="#DejaVuSans-6c" transform="translate(606.697266 0)"/>
     <use xlink:href="#DejaVuSans-69" transform="translate(634.480469 0)"/>
     <use xlink:href="#DejaVuSans-6e" transform="translate(662.263672 0)"/>
     <use xlink:href="#DejaVuSans-67" transform="translate(725.642578 0)"/>
     <use xlink:href="#DejaVuSans-20" transform="translate(789.119141 0)"/>
     <use xlink:href="#DejaVuSans-5b" transform="translate(820.90625 0)"/>
     <use xlink:href="#DejaVuSans-72" transform="translate(859.919922 0)"/>
     <use xlink:href="#DejaVuSans-6f" transform="translate(898.783203 0)"/>
     <use xlink:href="#DejaVuSans-6f" transform="translate(959.964844 0)"/>
     <use xlink:href="#DejaVuSans-74" transform="translate(1021.146484 0)"/>
     <use xlink:href="#DejaVuSans-5d" transform="translate(1060.355469 0)"/>
    </g>
   </g>
   <g id="legend_1">
    <g id="patch_7">
     <path d="M 92.911719 365.802375 
L 380.507031 365.802375 
Q 382.507031 365.802375 382.507031 363.802375 
L 382.507031 335.446125 
Q 382.507031 333.446125 380.507031 333.446125 
L 92.911719 333.446125 
Q 90.911719 333.446125 90.911719 335.446125 
L 90.911719 363.802375 
Q 90.911719 365.802375 92.911719 365.802375 
z
" style="fill: #4d4d4d; opacity: 0.5; stroke: #4d4d4d; stroke-linejoin: miter"/>
    </g>
    <g id="patch_8">
     <path d="M 90.911719 363.802375 
L 378.507031 363.802375 
Q 380.507031 363.802375 380.507031 361.802375 
L 380.507031 333.446125 
Q 380.507031 331.446125 378.507031 331.446125 
L 90.911719 331.446125 
Q 88.911719 331.446125 88.911719 333.446125 
L 88.911719 361.802375 
Q 88.911719 363.802375 90.911719 363.802375 
z
" style="fill: #ffffff; stroke: #cccccc; stroke-linejoin: miter"/>
    </g>
    <g id="line2d_24">
     <path d="M 92.911719 339.544562 
L 102.911719 339.544562 
L 112.911719 339.544562 
" style="fill: none; stroke: #1f77b4; stroke-opacity: 0.8; stroke-width: 1.5; stroke-linecap: square"/>
    </g>
    <g id="text_22">
     <!-- MPTT -->
     <g transform="translate(120.911719 343.044562) scale(0.1 -0.1)">
      <defs>
       <path id="DejaVuSans-4d" d="M 628 4666 
L 1569 4666 
L 2759 1491 
L 3956 4666 
L 4897 4666 
L 4897 0 
L 4281 0 
L 4281 4097 
L 3078 897 
L 2444 897 
L 1241 4097 
L 1241 0 
L 628 0 
L 628 4666 
z
" transform="scale(0.015625)"/>
       <path id="DejaVuSans-50" d="M 1259 4147 
L 1259 2394 
L 2053 2394 
Q 2494 2394 2734 2622 
Q 2975 2850 2975 3272 
Q 2975 3691 2734 3919 
Q 2494 4147 2053 4147 
L 1259 4147 
z
M 628 4666 
L 2053 4666 
Q 2838 4666 3239 4311 
Q 3641 3956 3641 3272 
Q 3641 2581 3239 2228 
Q 2838 1875 2053 1875 
L 1259 1875 
L 1259 0 
L 628 0 
L 628 4666 
z
" transform="scale(0.015625)"/>
       <path id="DejaVuSans-54" d="M -19 4666 
L 3928 4666 
L 3928 4134 
L 2272 4134 
L 2272 0 
L 1638 0 
L 1638 4134 
L -19 4134 
L -19 4666 
z
" transform="scale(0.015625)"/>
      </defs>
      <use xlink:href="#DejaVuSans-4d"/>
      <use xlink:href="#DejaVuSans-50" transform="translate(86.279297 0)"/>
      <use xlink:href="#DejaVuSans-54" transform="translate(146.582031 0)"/>
      <use xlink:href="#DejaVuSans-54" transform="translate(205.916016 0)"/>
     </g>
    </g>
    <g id="line2d_25">
     <path d="M 92.911719 354.222687 
L 102.911719 354.222687 
L 112.911719 354.222687 
" style="fill: none; stroke: #ff7f0e; stroke-opacity: 0.8; stroke-width: 1.5; stroke-linecap: square"/>
    </g>
    <g id="text_23">
     <!-- tree -->
     <g transform="translate(120.911719 357.722687) scale(0.1 -0.1)">
      <use xlink:href="#DejaVuSans-74"/>
      <use xlink:href="#DejaVuSans-72" transform="translate(39.208984 0)"/>
      <use xlink:href="#DejaVuSans-65" transform="translate(78.072266 0)"/>
      <use xlink:href="#DejaVuSans-65" transform="translate(139.595703 0)"/>
     </g>
    </g>
    <g id="line2d_26">
     <path d="M 167.610156 339.544562 
L 177.610156 339.544562 
L 187.610156 339.544562 
" style="fill: none; stroke: #2ca02c; stroke-opacity: 0.8; stroke-width: 1.5; stroke-linecap: square"/>
    </g>
    <g id="text_24">
     <!-- treebeard AL -->
     <g transform="translate(195.610156 343.044562) scale(0.1 -0.1)">
      <defs>
       <path id="DejaVuSans-4c" d="M 628 4666 
L 1259 4666 
L 1259 531 
L 3531 531 
L 3531 0 
L 628 0 
L 628 4666 
z
" transform="scale(0.015625)"/>
      </defs>
      <use xlink:href="#DejaVuSans-74"/>
      <use xlink:href="#DejaVuSans-72" transform="translate(39.208984 0)"/>
      <use xlink:href="#DejaVuSans-65" transform="translate(78.072266 0)"/>
      <use xlink:href="#DejaVuSans-65" transform="translate(139.595703 0)"/>
      <use xlink:href="#DejaVuSans-62" transform="translate(201.119141 0)"/>
      <use xlink:href="#DejaVuSans-65" transform="translate(264.595703 0)"/>
      <use xlink:href="#DejaVuSans-61" transform="translate(326.119141 0)"/>
      <use xlink:href="#DejaVuSans-72" transform="translate(387.398438 0)"/>
      <use xlink:href="#DejaVuSans-64" transform="translate(426.761719 0)"/>
      <use xlink:href="#DejaVuSans-20" transform="translate(490.238281 0)"/>
      <use xlink:href="#DejaVuSans-41" transform="translate(522.025391 0)"/>
      <use xlink:href="#DejaVuSans-4c" transform="translate(590.433594 0)"/>
     </g>
    </g>
    <g id="line2d_27">
     <path d="M 167.610156 354.222687 
L 177.610156 354.222687 
L 187.610156 354.222687 
" style="fill: none; stroke: #d62728; stroke-opacity: 0.8; stroke-width: 1.5; stroke-linecap: square"/>
    </g>
    <g id="text_25">
     <!-- treebeard MP -->
     <g transform="translate(195.610156 357.722687) scale(0.1 -0.1)">
      <use xlink:href="#DejaVuSans-74"/>
      <use xlink:href="#DejaVuSans-72" transform="translate(39.208984 0)"/>
      <use xlink:href="#DejaVuSans-65" transform="translate(78.072266 0)"/>
      <use xlink:href="#DejaVuSans-65" transform="translate(139.595703 0)"/>
      <use xlink:href="#DejaVuSans-62" transform="translate(201.119141 0)"/>
      <use xlink:href="#DejaVuSans-65" transform="translate(264.595703 0)"/>
      <use xlink:href="#DejaVuSans-61" transform="translate(326.119141 0)"/>
      <use xlink:href="#DejaVuSans-72" transform="translate(387.398438 0)"/>
      <use xlink:href="#DejaVuSans-64" transform="translate(426.761719 0)"/>
      <use xlink:href="#DejaVuSans-20" transform="translate(490.238281 0)"/>
      <use xlink:href="#DejaVuSans-4d" transform="translate(522.025391 0)"/>
      <use xlink:href="#DejaVuSans-50" transform="translate(608.304688 0)"/>
     </g>
    </g>
    <g id="line2d_28">
     <path d="M 282.472656 339.544562 
L 292.472656 339.544562 
L 302.472656 339.544562 
" style="fill: none; stroke: #9467bd; stroke-opacity: 0.8; stroke-width: 1.5; stroke-linecap: square"/>
    </g>
    <g id="text_26">
     <!-- treebeard NS -->
     <g transform="translate(310.472656 343.044562) scale(0.1 -0.1)">
      <defs>
       <path id="DejaVuSans-4e" d="M 628 4666 
L 1478 4666 
L 3547 763 
L 3547 4666 
L 4159 4666 
L 4159 0 
L 3309 0 
L 1241 3903 
L 1241 0 
L 628 0 
L 628 4666 
z
" transform="scale(0.015625)"/>
       <path id="DejaVuSans-53" d="M 3425 4513 
L 3425 3897 
Q 3066 4069 2747 4153 
Q 2428 4238 2131 4238 
Q 1616 4238 1336 4038 
Q 1056 3838 1056 3469 
Q 1056 3159 1242 3001 
Q 1428 2844 1947 2747 
L 2328 2669 
Q 3034 2534 3370 2195 
Q 3706 1856 3706 1288 
Q 3706 609 3251 259 
Q 2797 -91 1919 -91 
Q 1588 -91 1214 -16 
Q 841 59 441 206 
L 441 856 
Q 825 641 1194 531 
Q 1563 422 1919 422 
Q 2459 422 2753 634 
Q 3047 847 3047 1241 
Q 3047 1584 2836 1778 
Q 2625 1972 2144 2069 
L 1759 2144 
Q 1053 2284 737 2584 
Q 422 2884 422 3419 
Q 422 4038 858 4394 
Q 1294 4750 2059 4750 
Q 2388 4750 2728 4690 
Q 3069 4631 3425 4513 
z
" transform="scale(0.015625)"/>
      </defs>
      <use xlink:href="#DejaVuSans-74"/>
      <use xlink:href="#DejaVuSans-72" transform="translate(39.208984 0)"/>
      <use xlink:href="#DejaVuSans-65" transform="translate(78.072266 0)"/>
      <use xlink:href="#DejaVuSans-65" transform="translate(139.595703 0)"/>
      <use xlink:href="#DejaVuSans-62" transform="translate(201.119141 0)"/>
      <use xlink:href="#DejaVuSans-65" transform="translate(264.595703 0)"/>
      <use xlink:href="#DejaVuSans-61" transform="translate(326.119141 0)"/>
      <use xlink:href="#DejaVuSans-72" transform="translate(387.398438 0)"/>
      <use xlink:href="#DejaVuSans-64" transform="translate(426.761719 0)"/>
      <use xlink:href="#DejaVuSans-20" transform="translate(490.238281 0)"/>
      <use xlink:href="#DejaVuSans-4e" transform="translate(522.025391 0)"/>
      <use xlink:href="#DejaVuSans-53" transform="translate(596.830078 0)"/>
     </g>
    </g>
   </g>
  </g>
 </g>
 <defs>
  <clipPath id="paeca6a0f56">
   <rect x="61.909375" y="22.318125" width="357.12" height="266.112"/>
  </clipPath>
 </defs>
</svg>
