<?xml version="1.0" encoding="utf-8" standalone="no"?>
<!DOCTYPE svg PUBLIC "-//W3C//DTD SVG 1.1//EN"
  "http://www.w3.org/Graphics/SVG/1.1/DTD/svg11.dtd">
<!-- Created with matplotlib (https://matplotlib.org/) -->
<svg height="371.002375pt" version="1.1" viewBox="0 0 426.229375 371.002375" width="426.229375pt" xmlns="http://www.w3.org/2000/svg" xmlns:xlink="http://www.w3.org/1999/xlink">
 <metadata>
  <rdf:RDF xmlns:cc="http://creativecommons.org/ns#" xmlns:dc="http://purl.org/dc/elements/1.1/" xmlns:rdf="http://www.w3.org/1999/02/22-rdf-syntax-ns#">
   <cc:Work>
    <dc:type rdf:resource="http://purl.org/dc/dcmitype/StillImage"/>
    <dc:date>2023-07-05T17:39:02.658895</dc:date>
    <dc:format>image/svg+xml</dc:format>
    <dc:creator>
     <cc:Agent>
      <dc:title>Matplotlib v3.3.4, https://matplotlib.org/</dc:title>
     </cc:Agent>
    </dc:creator>
   </cc:Work>
  </rdf:RDF>
 </metadata>
 <defs>
  <style type="text/css">*{stroke-linecap:butt;stroke-linejoin:round;}</style>
 </defs>
 <g id="figure_1">
  <g id="patch_1">
   <path d="M 0 371.002375 
L 426.229375 371.002375 
L 426.229375 0 
L 0 0 
z
" style="fill:#ffffff;"/>
  </g>
  <g id="axes_1">
   <g id="patch_2">
    <path d="M 61.909375 288.430125 
L 419.029375 288.430125 
L 419.029375 22.318125 
L 61.909375 22.318125 
z
" style="fill:#ffffff;"/>
   </g>
   <g id="matplotlib.axis_1">
    <g id="xtick_1">
     <g id="line2d_1">
      <defs>
       <path d="M 0 0 
L 0 3.5 
" id="m1b5534db9c" style="stroke:#000000;stroke-width:0.8;"/>
      </defs>
      <g>
       <use style="stroke:#000000;stroke-width:0.8;" x="61.909375" xlink:href="#m1b5534db9c" y="288.430125"/>
      </g>
     </g>
     <g id="text_1">
      <!-- 0 -->
      <g transform="translate(58.728125 303.028562)scale(0.1 -0.1)">
       <defs>
        <path d="M 31.78125 66.40625 
Q 24.171875 66.40625 20.328125 58.90625 
Q 16.5 51.421875 16.5 36.375 
Q 16.5 21.390625 20.328125 13.890625 
Q 24.171875 6.390625 31.78125 6.390625 
Q 39.453125 6.390625 43.28125 13.890625 
Q 47.125 21.390625 47.125 36.375 
Q 47.125 51.421875 43.28125 58.90625 
Q 39.453125 66.40625 31.78125 66.40625 
z
M 31.78125 74.21875 
Q 44.046875 74.21875 50.515625 64.515625 
Q 56.984375 54.828125 56.984375 36.375 
Q 56.984375 17.96875 50.515625 8.265625 
Q 44.046875 -1.421875 31.78125 -1.421875 
Q 19.53125 -1.421875 13.0625 8.265625 
Q 6.59375 17.96875 6.59375 36.375 
Q 6.59375 54.828125 13.0625 64.515625 
Q 19.53125 74.21875 31.78125 74.21875 
z
" id="DejaVuSans-48"/>
       </defs>
       <use xlink:href="#DejaVuSans-48"/>
      </g>
     </g>
    </g>
    <g id="xtick_2">
     <g id="line2d_2">
      <g>
       <use style="stroke:#000000;stroke-width:0.8;" x="105.457939" xlink:href="#m1b5534db9c" y="288.430125"/>
      </g>
     </g>
     <g id="text_2">
      <!-- 500  -->
      <g transform="translate(94.325127 303.028562)scale(0.1 -0.1)">
       <defs>
        <path d="M 10.796875 72.90625 
L 49.515625 72.90625 
L 49.515625 64.59375 
L 19.828125 64.59375 
L 19.828125 46.734375 
Q 21.96875 47.46875 24.109375 47.828125 
Q 26.265625 48.1875 28.421875 48.1875 
Q 40.625 48.1875 47.75 41.5 
Q 54.890625 34.8125 54.890625 23.390625 
Q 54.890625 11.625 47.5625 5.09375 
Q 40.234375 -1.421875 26.90625 -1.421875 
Q 22.3125 -1.421875 17.546875 -0.640625 
Q 12.796875 0.140625 7.71875 1.703125 
L 7.71875 11.625 
Q 12.109375 9.234375 16.796875 8.0625 
Q 21.484375 6.890625 26.703125 6.890625 
Q 35.15625 6.890625 40.078125 11.328125 
Q 45.015625 15.765625 45.015625 23.390625 
Q 45.015625 31 40.078125 35.4375 
Q 35.15625 39.890625 26.703125 39.890625 
Q 22.75 39.890625 18.8125 39.015625 
Q 14.890625 38.140625 10.796875 36.28125 
z
" id="DejaVuSans-53"/>
        <path id="DejaVuSans-32"/>
       </defs>
       <use xlink:href="#DejaVuSans-53"/>
       <use x="63.623047" xlink:href="#DejaVuSans-48"/>
       <use x="127.246094" xlink:href="#DejaVuSans-48"/>
       <use x="190.869141" xlink:href="#DejaVuSans-32"/>
      </g>
     </g>
    </g>
    <g id="xtick_3">
     <g id="line2d_3">
      <g>
       <use style="stroke:#000000;stroke-width:0.8;" x="149.006503" xlink:href="#m1b5534db9c" y="288.430125"/>
      </g>
     </g>
     <g id="text_3">
      <!-- 1 k -->
      <g transform="translate(141.340878 303.028562)scale(0.1 -0.1)">
       <defs>
        <path d="M 12.40625 8.296875 
L 28.515625 8.296875 
L 28.515625 63.921875 
L 10.984375 60.40625 
L 10.984375 69.390625 
L 28.421875 72.90625 
L 38.28125 72.90625 
L 38.28125 8.296875 
L 54.390625 8.296875 
L 54.390625 0 
L 12.40625 0 
z
" id="DejaVuSans-49"/>
        <path d="M 9.078125 75.984375 
L 18.109375 75.984375 
L 18.109375 31.109375 
L 44.921875 54.6875 
L 56.390625 54.6875 
L 27.390625 29.109375 
L 57.625 0 
L 45.90625 0 
L 18.109375 26.703125 
L 18.109375 0 
L 9.078125 0 
z
" id="DejaVuSans-107"/>
       </defs>
       <use xlink:href="#DejaVuSans-49"/>
       <use x="63.623047" xlink:href="#DejaVuSans-32"/>
       <use x="95.410156" xlink:href="#DejaVuSans-107"/>
      </g>
     </g>
    </g>
    <g id="xtick_4">
     <g id="line2d_4">
      <g>
       <use style="stroke:#000000;stroke-width:0.8;" x="192.555067" xlink:href="#m1b5534db9c" y="288.430125"/>
      </g>
     </g>
     <g id="text_4">
      <!-- 1.5 k -->
      <g transform="translate(180.11913 303.028562)scale(0.1 -0.1)">
       <defs>
        <path d="M 10.6875 12.40625 
L 21 12.40625 
L 21 0 
L 10.6875 0 
z
" id="DejaVuSans-46"/>
       </defs>
       <use xlink:href="#DejaVuSans-49"/>
       <use x="63.623047" xlink:href="#DejaVuSans-46"/>
       <use x="95.410156" xlink:href="#DejaVuSans-53"/>
       <use x="159.033203" xlink:href="#DejaVuSans-32"/>
       <use x="190.820312" xlink:href="#DejaVuSans-107"/>
      </g>
     </g>
    </g>
    <g id="xtick_5">
     <g id="line2d_5">
      <g>
       <use style="stroke:#000000;stroke-width:0.8;" x="236.103631" xlink:href="#m1b5534db9c" y="288.430125"/>
      </g>
     </g>
     <g id="text_5">
      <!-- 2 k -->
      <g transform="translate(228.438006 303.028562)scale(0.1 -0.1)">
       <defs>
        <path d="M 19.1875 8.296875 
L 53.609375 8.296875 
L 53.609375 0 
L 7.328125 0 
L 7.328125 8.296875 
Q 12.9375 14.109375 22.625 23.890625 
Q 32.328125 33.6875 34.8125 36.53125 
Q 39.546875 41.84375 41.421875 45.53125 
Q 43.3125 49.21875 43.3125 52.78125 
Q 43.3125 58.59375 39.234375 62.25 
Q 35.15625 65.921875 28.609375 65.921875 
Q 23.96875 65.921875 18.8125 64.3125 
Q 13.671875 62.703125 7.8125 59.421875 
L 7.8125 69.390625 
Q 13.765625 71.78125 18.9375 73 
Q 24.125 74.21875 28.421875 74.21875 
Q 39.75 74.21875 46.484375 68.546875 
Q 53.21875 62.890625 53.21875 53.421875 
Q 53.21875 48.921875 51.53125 44.890625 
Q 49.859375 40.875 45.40625 35.40625 
Q 44.1875 33.984375 37.640625 27.21875 
Q 31.109375 20.453125 19.1875 8.296875 
z
" id="DejaVuSans-50"/>
       </defs>
       <use xlink:href="#DejaVuSans-50"/>
       <use x="63.623047" xlink:href="#DejaVuSans-32"/>
       <use x="95.410156" xlink:href="#DejaVuSans-107"/>
      </g>
     </g>
    </g>
    <g id="xtick_6">
     <g id="line2d_6">
      <g>
       <use style="stroke:#000000;stroke-width:0.8;" x="279.652196" xlink:href="#m1b5534db9c" y="288.430125"/>
      </g>
     </g>
     <g id="text_6">
      <!-- 2.5 k -->
      <g transform="translate(267.216258 303.028562)scale(0.1 -0.1)">
       <use xlink:href="#DejaVuSans-50"/>
       <use x="63.623047" xlink:href="#DejaVuSans-46"/>
       <use x="95.410156" xlink:href="#DejaVuSans-53"/>
       <use x="159.033203" xlink:href="#DejaVuSans-32"/>
       <use x="190.820312" xlink:href="#DejaVuSans-107"/>
      </g>
     </g>
    </g>
    <g id="xtick_7">
     <g id="line2d_7">
      <g>
       <use style="stroke:#000000;stroke-width:0.8;" x="323.20076" xlink:href="#m1b5534db9c" y="288.430125"/>
      </g>
     </g>
     <g id="text_7">
      <!-- 3 k -->
      <g transform="translate(315.535135 303.028562)scale(0.1 -0.1)">
       <defs>
        <path d="M 40.578125 39.3125 
Q 47.65625 37.796875 51.625 33 
Q 55.609375 28.21875 55.609375 21.1875 
Q 55.609375 10.40625 48.1875 4.484375 
Q 40.765625 -1.421875 27.09375 -1.421875 
Q 22.515625 -1.421875 17.65625 -0.515625 
Q 12.796875 0.390625 7.625 2.203125 
L 7.625 11.71875 
Q 11.71875 9.328125 16.59375 8.109375 
Q 21.484375 6.890625 26.8125 6.890625 
Q 36.078125 6.890625 40.9375 10.546875 
Q 45.796875 14.203125 45.796875 21.1875 
Q 45.796875 27.640625 41.28125 31.265625 
Q 36.765625 34.90625 28.71875 34.90625 
L 20.21875 34.90625 
L 20.21875 43.015625 
L 29.109375 43.015625 
Q 36.375 43.015625 40.234375 45.921875 
Q 44.09375 48.828125 44.09375 54.296875 
Q 44.09375 59.90625 40.109375 62.90625 
Q 36.140625 65.921875 28.71875 65.921875 
Q 24.65625 65.921875 20.015625 65.03125 
Q 15.375 64.15625 9.8125 62.3125 
L 9.8125 71.09375 
Q 15.4375 72.65625 20.34375 73.4375 
Q 25.25 74.21875 29.59375 74.21875 
Q 40.828125 74.21875 47.359375 69.109375 
Q 53.90625 64.015625 53.90625 55.328125 
Q 53.90625 49.265625 50.4375 45.09375 
Q 46.96875 40.921875 40.578125 39.3125 
z
" id="DejaVuSans-51"/>
       </defs>
       <use xlink:href="#DejaVuSans-51"/>
       <use x="63.623047" xlink:href="#DejaVuSans-32"/>
       <use x="95.410156" xlink:href="#DejaVuSans-107"/>
      </g>
     </g>
    </g>
    <g id="xtick_8">
     <g id="line2d_8">
      <g>
       <use style="stroke:#000000;stroke-width:0.8;" x="366.749324" xlink:href="#m1b5534db9c" y="288.430125"/>
      </g>
     </g>
     <g id="text_8">
      <!-- 3.5 k -->
      <g transform="translate(354.313386 303.028562)scale(0.1 -0.1)">
       <use xlink:href="#DejaVuSans-51"/>
       <use x="63.623047" xlink:href="#DejaVuSans-46"/>
       <use x="95.410156" xlink:href="#DejaVuSans-53"/>
       <use x="159.033203" xlink:href="#DejaVuSans-32"/>
       <use x="190.820312" xlink:href="#DejaVuSans-107"/>
      </g>
     </g>
    </g>
    <g id="xtick_9">
     <g id="line2d_9">
      <g>
       <use style="stroke:#000000;stroke-width:0.8;" x="410.297888" xlink:href="#m1b5534db9c" y="288.430125"/>
      </g>
     </g>
     <g id="text_9">
      <!-- 4 k -->
      <g transform="translate(402.632263 303.028562)scale(0.1 -0.1)">
       <defs>
        <path d="M 37.796875 64.3125 
L 12.890625 25.390625 
L 37.796875 25.390625 
z
M 35.203125 72.90625 
L 47.609375 72.90625 
L 47.609375 25.390625 
L 58.015625 25.390625 
L 58.015625 17.1875 
L 47.609375 17.1875 
L 47.609375 0 
L 37.796875 0 
L 37.796875 17.1875 
L 4.890625 17.1875 
L 4.890625 26.703125 
z
" id="DejaVuSans-52"/>
       </defs>
       <use xlink:href="#DejaVuSans-52"/>
       <use x="63.623047" xlink:href="#DejaVuSans-32"/>
       <use x="95.410156" xlink:href="#DejaVuSans-107"/>
      </g>
     </g>
    </g>
    <g id="text_10">
     <!-- Amount of objects in table -->
     <g transform="translate(174.410781 316.706687)scale(0.1 -0.1)">
      <defs>
       <path d="M 34.1875 63.1875 
L 20.796875 26.90625 
L 47.609375 26.90625 
z
M 28.609375 72.90625 
L 39.796875 72.90625 
L 67.578125 0 
L 57.328125 0 
L 50.6875 18.703125 
L 17.828125 18.703125 
L 11.1875 0 
L 0.78125 0 
z
" id="DejaVuSans-65"/>
       <path d="M 52 44.1875 
Q 55.375 50.25 60.0625 53.125 
Q 64.75 56 71.09375 56 
Q 79.640625 56 84.28125 50.015625 
Q 88.921875 44.046875 88.921875 33.015625 
L 88.921875 0 
L 79.890625 0 
L 79.890625 32.71875 
Q 79.890625 40.578125 77.09375 44.375 
Q 74.3125 48.1875 68.609375 48.1875 
Q 61.625 48.1875 57.5625 43.546875 
Q 53.515625 38.921875 53.515625 30.90625 
L 53.515625 0 
L 44.484375 0 
L 44.484375 32.71875 
Q 44.484375 40.625 41.703125 44.40625 
Q 38.921875 48.1875 33.109375 48.1875 
Q 26.21875 48.1875 22.15625 43.53125 
Q 18.109375 38.875 18.109375 30.90625 
L 18.109375 0 
L 9.078125 0 
L 9.078125 54.6875 
L 18.109375 54.6875 
L 18.109375 46.1875 
Q 21.1875 51.21875 25.484375 53.609375 
Q 29.78125 56 35.6875 56 
Q 41.65625 56 45.828125 52.96875 
Q 50 49.953125 52 44.1875 
z
" id="DejaVuSans-109"/>
       <path d="M 30.609375 48.390625 
Q 23.390625 48.390625 19.1875 42.75 
Q 14.984375 37.109375 14.984375 27.296875 
Q 14.984375 17.484375 19.15625 11.84375 
Q 23.34375 6.203125 30.609375 6.203125 
Q 37.796875 6.203125 41.984375 11.859375 
Q 46.1875 17.53125 46.1875 27.296875 
Q 46.1875 37.015625 41.984375 42.703125 
Q 37.796875 48.390625 30.609375 48.390625 
z
M 30.609375 56 
Q 42.328125 56 49.015625 48.375 
Q 55.71875 40.765625 55.71875 27.296875 
Q 55.71875 13.875 49.015625 6.21875 
Q 42.328125 -1.421875 30.609375 -1.421875 
Q 18.84375 -1.421875 12.171875 6.21875 
Q 5.515625 13.875 5.515625 27.296875 
Q 5.515625 40.765625 12.171875 48.375 
Q 18.84375 56 30.609375 56 
z
" id="DejaVuSans-111"/>
       <path d="M 8.5 21.578125 
L 8.5 54.6875 
L 17.484375 54.6875 
L 17.484375 21.921875 
Q 17.484375 14.15625 20.5 10.265625 
Q 23.53125 6.390625 29.59375 6.390625 
Q 36.859375 6.390625 41.078125 11.03125 
Q 45.3125 15.671875 45.3125 23.6875 
L 45.3125 54.6875 
L 54.296875 54.6875 
L 54.296875 0 
L 45.3125 0 
L 45.3125 8.40625 
Q 42.046875 3.421875 37.71875 1 
Q 33.40625 -1.421875 27.6875 -1.421875 
Q 18.265625 -1.421875 13.375 4.4375 
Q 8.5 10.296875 8.5 21.578125 
z
M 31.109375 56 
z
" id="DejaVuSans-117"/>
       <path d="M 54.890625 33.015625 
L 54.890625 0 
L 45.90625 0 
L 45.90625 32.71875 
Q 45.90625 40.484375 42.875 44.328125 
Q 39.84375 48.1875 33.796875 48.1875 
Q 26.515625 48.1875 22.3125 43.546875 
Q 18.109375 38.921875 18.109375 30.90625 
L 18.109375 0 
L 9.078125 0 
L 9.078125 54.6875 
L 18.109375 54.6875 
L 18.109375 46.1875 
Q 21.34375 51.125 25.703125 53.5625 
Q 30.078125 56 35.796875 56 
Q 45.21875 56 50.046875 50.171875 
Q 54.890625 44.34375 54.890625 33.015625 
z
" id="DejaVuSans-110"/>
       <path d="M 18.3125 70.21875 
L 18.3125 54.6875 
L 36.8125 54.6875 
L 36.8125 47.703125 
L 18.3125 47.703125 
L 18.3125 18.015625 
Q 18.3125 11.328125 20.140625 9.421875 
Q 21.96875 7.515625 27.59375 7.515625 
L 36.8125 7.515625 
L 36.8125 0 
L 27.59375 0 
Q 17.1875 0 13.234375 3.875 
Q 9.28125 7.765625 9.28125 18.015625 
L 9.28125 47.703125 
L 2.6875 47.703125 
L 2.6875 54.6875 
L 9.28125 54.6875 
L 9.28125 70.21875 
z
" id="DejaVuSans-116"/>
       <path d="M 37.109375 75.984375 
L 37.109375 68.5 
L 28.515625 68.5 
Q 23.6875 68.5 21.796875 66.546875 
Q 19.921875 64.59375 19.921875 59.515625 
L 19.921875 54.6875 
L 34.71875 54.6875 
L 34.71875 47.703125 
L 19.921875 47.703125 
L 19.921875 0 
L 10.890625 0 
L 10.890625 47.703125 
L 2.296875 47.703125 
L 2.296875 54.6875 
L 10.890625 54.6875 
L 10.890625 58.5 
Q 10.890625 67.625 15.140625 71.796875 
Q 19.390625 75.984375 28.609375 75.984375 
z
" id="DejaVuSans-102"/>
       <path d="M 48.6875 27.296875 
Q 48.6875 37.203125 44.609375 42.84375 
Q 40.53125 48.484375 33.40625 48.484375 
Q 26.265625 48.484375 22.1875 42.84375 
Q 18.109375 37.203125 18.109375 27.296875 
Q 18.109375 17.390625 22.1875 11.75 
Q 26.265625 6.109375 33.40625 6.109375 
Q 40.53125 6.109375 44.609375 11.75 
Q 48.6875 17.390625 48.6875 27.296875 
z
M 18.109375 46.390625 
Q 20.953125 51.265625 25.265625 53.625 
Q 29.59375 56 35.59375 56 
Q 45.5625 56 51.78125 48.09375 
Q 58.015625 40.1875 58.015625 27.296875 
Q 58.015625 14.40625 51.78125 6.484375 
Q 45.5625 -1.421875 35.59375 -1.421875 
Q 29.59375 -1.421875 25.265625 0.953125 
Q 20.953125 3.328125 18.109375 8.203125 
L 18.109375 0 
L 9.078125 0 
L 9.078125 75.984375 
L 18.109375 75.984375 
z
" id="DejaVuSans-98"/>
       <path d="M 9.421875 54.6875 
L 18.40625 54.6875 
L 18.40625 -0.984375 
Q 18.40625 -11.421875 14.421875 -16.109375 
Q 10.453125 -20.796875 1.609375 -20.796875 
L -1.8125 -20.796875 
L -1.8125 -13.1875 
L 0.59375 -13.1875 
Q 5.71875 -13.1875 7.5625 -10.8125 
Q 9.421875 -8.453125 9.421875 -0.984375 
z
M 9.421875 75.984375 
L 18.40625 75.984375 
L 18.40625 64.59375 
L 9.421875 64.59375 
z
" id="DejaVuSans-106"/>
       <path d="M 56.203125 29.59375 
L 56.203125 25.203125 
L 14.890625 25.203125 
Q 15.484375 15.921875 20.484375 11.0625 
Q 25.484375 6.203125 34.421875 6.203125 
Q 39.59375 6.203125 44.453125 7.46875 
Q 49.3125 8.734375 54.109375 11.28125 
L 54.109375 2.78125 
Q 49.265625 0.734375 44.1875 -0.34375 
Q 39.109375 -1.421875 33.890625 -1.421875 
Q 20.796875 -1.421875 13.15625 6.1875 
Q 5.515625 13.8125 5.515625 26.8125 
Q 5.515625 40.234375 12.765625 48.109375 
Q 20.015625 56 32.328125 56 
Q 43.359375 56 49.78125 48.890625 
Q 56.203125 41.796875 56.203125 29.59375 
z
M 47.21875 32.234375 
Q 47.125 39.59375 43.09375 43.984375 
Q 39.0625 48.390625 32.421875 48.390625 
Q 24.90625 48.390625 20.390625 44.140625 
Q 15.875 39.890625 15.1875 32.171875 
z
" id="DejaVuSans-101"/>
       <path d="M 48.78125 52.59375 
L 48.78125 44.1875 
Q 44.96875 46.296875 41.140625 47.34375 
Q 37.3125 48.390625 33.40625 48.390625 
Q 24.65625 48.390625 19.8125 42.84375 
Q 14.984375 37.3125 14.984375 27.296875 
Q 14.984375 17.28125 19.8125 11.734375 
Q 24.65625 6.203125 33.40625 6.203125 
Q 37.3125 6.203125 41.140625 7.25 
Q 44.96875 8.296875 48.78125 10.40625 
L 48.78125 2.09375 
Q 45.015625 0.34375 40.984375 -0.53125 
Q 36.96875 -1.421875 32.421875 -1.421875 
Q 20.0625 -1.421875 12.78125 6.34375 
Q 5.515625 14.109375 5.515625 27.296875 
Q 5.515625 40.671875 12.859375 48.328125 
Q 20.21875 56 33.015625 56 
Q 37.15625 56 41.109375 55.140625 
Q 45.0625 54.296875 48.78125 52.59375 
z
" id="DejaVuSans-99"/>
       <path d="M 44.28125 53.078125 
L 44.28125 44.578125 
Q 40.484375 46.53125 36.375 47.5 
Q 32.28125 48.484375 27.875 48.484375 
Q 21.1875 48.484375 17.84375 46.4375 
Q 14.5 44.390625 14.5 40.28125 
Q 14.5 37.15625 16.890625 35.375 
Q 19.28125 33.59375 26.515625 31.984375 
L 29.59375 31.296875 
Q 39.15625 29.25 43.1875 25.515625 
Q 47.21875 21.78125 47.21875 15.09375 
Q 47.21875 7.46875 41.1875 3.015625 
Q 35.15625 -1.421875 24.609375 -1.421875 
Q 20.21875 -1.421875 15.453125 -0.5625 
Q 10.6875 0.296875 5.421875 2 
L 5.421875 11.28125 
Q 10.40625 8.6875 15.234375 7.390625 
Q 20.0625 6.109375 24.8125 6.109375 
Q 31.15625 6.109375 34.5625 8.28125 
Q 37.984375 10.453125 37.984375 14.40625 
Q 37.984375 18.0625 35.515625 20.015625 
Q 33.0625 21.96875 24.703125 23.78125 
L 21.578125 24.515625 
Q 13.234375 26.265625 9.515625 29.90625 
Q 5.8125 33.546875 5.8125 39.890625 
Q 5.8125 47.609375 11.28125 51.796875 
Q 16.75 56 26.8125 56 
Q 31.78125 56 36.171875 55.265625 
Q 40.578125 54.546875 44.28125 53.078125 
z
" id="DejaVuSans-115"/>
       <path d="M 9.421875 54.6875 
L 18.40625 54.6875 
L 18.40625 0 
L 9.421875 0 
z
M 9.421875 75.984375 
L 18.40625 75.984375 
L 18.40625 64.59375 
L 9.421875 64.59375 
z
" id="DejaVuSans-105"/>
       <path d="M 34.28125 27.484375 
Q 23.390625 27.484375 19.1875 25 
Q 14.984375 22.515625 14.984375 16.5 
Q 14.984375 11.71875 18.140625 8.90625 
Q 21.296875 6.109375 26.703125 6.109375 
Q 34.1875 6.109375 38.703125 11.40625 
Q 43.21875 16.703125 43.21875 25.484375 
L 43.21875 27.484375 
z
M 52.203125 31.203125 
L 52.203125 0 
L 43.21875 0 
L 43.21875 8.296875 
Q 40.140625 3.328125 35.546875 0.953125 
Q 30.953125 -1.421875 24.3125 -1.421875 
Q 15.921875 -1.421875 10.953125 3.296875 
Q 6 8.015625 6 15.921875 
Q 6 25.140625 12.171875 29.828125 
Q 18.359375 34.515625 30.609375 34.515625 
L 43.21875 34.515625 
L 43.21875 35.40625 
Q 43.21875 41.609375 39.140625 45 
Q 35.0625 48.390625 27.6875 48.390625 
Q 23 48.390625 18.546875 47.265625 
Q 14.109375 46.140625 10.015625 43.890625 
L 10.015625 52.203125 
Q 14.9375 54.109375 19.578125 55.046875 
Q 24.21875 56 28.609375 56 
Q 40.484375 56 46.34375 49.84375 
Q 52.203125 43.703125 52.203125 31.203125 
z
" id="DejaVuSans-97"/>
       <path d="M 9.421875 75.984375 
L 18.40625 75.984375 
L 18.40625 0 
L 9.421875 0 
z
" id="DejaVuSans-108"/>
      </defs>
      <use xlink:href="#DejaVuSans-65"/>
      <use x="68.408203" xlink:href="#DejaVuSans-109"/>
      <use x="165.820312" xlink:href="#DejaVuSans-111"/>
      <use x="227.001953" xlink:href="#DejaVuSans-117"/>
      <use x="290.380859" xlink:href="#DejaVuSans-110"/>
      <use x="353.759766" xlink:href="#DejaVuSans-116"/>
      <use x="392.96875" xlink:href="#DejaVuSans-32"/>
      <use x="424.755859" xlink:href="#DejaVuSans-111"/>
      <use x="485.9375" xlink:href="#DejaVuSans-102"/>
      <use x="521.142578" xlink:href="#DejaVuSans-32"/>
      <use x="552.929688" xlink:href="#DejaVuSans-111"/>
      <use x="614.111328" xlink:href="#DejaVuSans-98"/>
      <use x="677.587891" xlink:href="#DejaVuSans-106"/>
      <use x="705.371094" xlink:href="#DejaVuSans-101"/>
      <use x="766.894531" xlink:href="#DejaVuSans-99"/>
      <use x="821.875" xlink:href="#DejaVuSans-116"/>
      <use x="861.083984" xlink:href="#DejaVuSans-115"/>
      <use x="913.183594" xlink:href="#DejaVuSans-32"/>
      <use x="944.970703" xlink:href="#DejaVuSans-105"/>
      <use x="972.753906" xlink:href="#DejaVuSans-110"/>
      <use x="1036.132812" xlink:href="#DejaVuSans-32"/>
      <use x="1067.919922" xlink:href="#DejaVuSans-116"/>
      <use x="1107.128906" xlink:href="#DejaVuSans-97"/>
      <use x="1168.408203" xlink:href="#DejaVuSans-98"/>
      <use x="1231.884766" xlink:href="#DejaVuSans-108"/>
      <use x="1259.667969" xlink:href="#DejaVuSans-101"/>
     </g>
    </g>
   </g>
   <g id="matplotlib.axis_2">
    <g id="ytick_1">
     <g id="line2d_10">
      <defs>
       <path d="M 0 0 
L -3.5 0 
" id="m4fd6e940fc" style="stroke:#000000;stroke-width:0.8;"/>
      </defs>
      <g>
       <use style="stroke:#000000;stroke-width:0.8;" x="61.909375" xlink:href="#m4fd6e940fc" y="288.430125"/>
      </g>
     </g>
     <g id="text_11">
      <!-- 0 -->
      <g transform="translate(48.546875 292.229344)scale(0.1 -0.1)">
       <use xlink:href="#DejaVuSans-48"/>
      </g>
     </g>
    </g>
    <g id="ytick_2">
     <g id="line2d_11">
      <g>
       <use style="stroke:#000000;stroke-width:0.8;" x="61.909375" xlink:href="#m4fd6e940fc" y="246.080563"/>
      </g>
     </g>
     <g id="text_12">
      <!-- 500 µs -->
      <g transform="translate(21.071875 249.879782)scale(0.1 -0.1)">
       <defs>
        <path d="M 8.5 -20.796875 
L 8.5 54.6875 
L 17.484375 54.6875 
L 17.484375 20.703125 
Q 17.484375 13.625 20.84375 10 
Q 24.21875 6.390625 30.8125 6.390625 
Q 38.03125 6.390625 41.671875 10.484375 
Q 45.3125 14.59375 45.3125 22.796875 
L 45.3125 54.6875 
L 54.296875 54.6875 
L 54.296875 12.59375 
Q 54.296875 9.671875 55.140625 8.28125 
Q 56 6.890625 57.8125 6.890625 
Q 58.25 6.890625 59.03125 7.15625 
Q 59.8125 7.421875 61.1875 8.015625 
L 61.1875 0.78125 
Q 59.1875 -0.34375 57.390625 -0.875 
Q 55.609375 -1.421875 53.90625 -1.421875 
Q 50.53125 -1.421875 48.53125 0.484375 
Q 46.53125 2.390625 45.796875 6.296875 
Q 43.359375 2.4375 39.8125 0.5 
Q 36.28125 -1.421875 31.5 -1.421875 
Q 26.515625 -1.421875 23.015625 0.484375 
Q 19.53125 2.390625 17.484375 6.203125 
L 17.484375 -20.796875 
z
" id="DejaVuSans-181"/>
       </defs>
       <use xlink:href="#DejaVuSans-53"/>
       <use x="63.623047" xlink:href="#DejaVuSans-48"/>
       <use x="127.246094" xlink:href="#DejaVuSans-48"/>
       <use x="190.869141" xlink:href="#DejaVuSans-32"/>
       <use x="222.65625" xlink:href="#DejaVuSans-181"/>
       <use x="286.279297" xlink:href="#DejaVuSans-115"/>
      </g>
     </g>
    </g>
    <g id="ytick_3">
     <g id="line2d_12">
      <g>
       <use style="stroke:#000000;stroke-width:0.8;" x="61.909375" xlink:href="#m4fd6e940fc" y="203.731001"/>
      </g>
     </g>
     <g id="text_13">
      <!-- 1 ms -->
      <g transform="translate(30.41875 207.53022)scale(0.1 -0.1)">
       <use xlink:href="#DejaVuSans-49"/>
       <use x="63.623047" xlink:href="#DejaVuSans-32"/>
       <use x="95.410156" xlink:href="#DejaVuSans-109"/>
       <use x="192.822266" xlink:href="#DejaVuSans-115"/>
      </g>
     </g>
    </g>
    <g id="ytick_4">
     <g id="line2d_13">
      <g>
       <use style="stroke:#000000;stroke-width:0.8;" x="61.909375" xlink:href="#m4fd6e940fc" y="161.38144"/>
      </g>
     </g>
     <g id="text_14">
      <!-- 1.5 ms -->
      <g transform="translate(20.878125 165.180658)scale(0.1 -0.1)">
       <use xlink:href="#DejaVuSans-49"/>
       <use x="63.623047" xlink:href="#DejaVuSans-46"/>
       <use x="95.410156" xlink:href="#DejaVuSans-53"/>
       <use x="159.033203" xlink:href="#DejaVuSans-32"/>
       <use x="190.820312" xlink:href="#DejaVuSans-109"/>
       <use x="288.232422" xlink:href="#DejaVuSans-115"/>
      </g>
     </g>
    </g>
    <g id="ytick_5">
     <g id="line2d_14">
      <g>
       <use style="stroke:#000000;stroke-width:0.8;" x="61.909375" xlink:href="#m4fd6e940fc" y="119.031878"/>
      </g>
     </g>
     <g id="text_15">
      <!-- 2 ms -->
      <g transform="translate(30.41875 122.831097)scale(0.1 -0.1)">
       <use xlink:href="#DejaVuSans-50"/>
       <use x="63.623047" xlink:href="#DejaVuSans-32"/>
       <use x="95.410156" xlink:href="#DejaVuSans-109"/>
       <use x="192.822266" xlink:href="#DejaVuSans-115"/>
      </g>
     </g>
    </g>
    <g id="ytick_6">
     <g id="line2d_15">
      <g>
       <use style="stroke:#000000;stroke-width:0.8;" x="61.909375" xlink:href="#m4fd6e940fc" y="76.682316"/>
      </g>
     </g>
     <g id="text_16">
      <!-- 2.5 ms -->
      <g transform="translate(20.878125 80.481535)scale(0.1 -0.1)">
       <use xlink:href="#DejaVuSans-50"/>
       <use x="63.623047" xlink:href="#DejaVuSans-46"/>
       <use x="95.410156" xlink:href="#DejaVuSans-53"/>
       <use x="159.033203" xlink:href="#DejaVuSans-32"/>
       <use x="190.820312" xlink:href="#DejaVuSans-109"/>
       <use x="288.232422" xlink:href="#DejaVuSans-115"/>
      </g>
     </g>
    </g>
    <g id="ytick_7">
     <g id="line2d_16">
      <g>
       <use style="stroke:#000000;stroke-width:0.8;" x="61.909375" xlink:href="#m4fd6e940fc" y="34.332754"/>
      </g>
     </g>
     <g id="text_17">
      <!-- 3 ms -->
      <g transform="translate(30.41875 38.131973)scale(0.1 -0.1)">
       <use xlink:href="#DejaVuSans-51"/>
       <use x="63.623047" xlink:href="#DejaVuSans-32"/>
       <use x="95.410156" xlink:href="#DejaVuSans-109"/>
       <use x="192.822266" xlink:href="#DejaVuSans-115"/>
      </g>
     </g>
    </g>
    <g id="text_18">
     <!-- Read latency (s) -->
     <g transform="translate(14.798438 195.98975)rotate(-90)scale(0.1 -0.1)">
      <defs>
       <path d="M 44.390625 34.1875 
Q 47.5625 33.109375 50.5625 29.59375 
Q 53.5625 26.078125 56.59375 19.921875 
L 66.609375 0 
L 56 0 
L 46.6875 18.703125 
Q 43.0625 26.03125 39.671875 28.421875 
Q 36.28125 30.8125 30.421875 30.8125 
L 19.671875 30.8125 
L 19.671875 0 
L 9.8125 0 
L 9.8125 72.90625 
L 32.078125 72.90625 
Q 44.578125 72.90625 50.734375 67.671875 
Q 56.890625 62.453125 56.890625 51.90625 
Q 56.890625 45.015625 53.6875 40.46875 
Q 50.484375 35.9375 44.390625 34.1875 
z
M 19.671875 64.796875 
L 19.671875 38.921875 
L 32.078125 38.921875 
Q 39.203125 38.921875 42.84375 42.21875 
Q 46.484375 45.515625 46.484375 51.90625 
Q 46.484375 58.296875 42.84375 61.546875 
Q 39.203125 64.796875 32.078125 64.796875 
z
" id="DejaVuSans-82"/>
       <path d="M 45.40625 46.390625 
L 45.40625 75.984375 
L 54.390625 75.984375 
L 54.390625 0 
L 45.40625 0 
L 45.40625 8.203125 
Q 42.578125 3.328125 38.25 0.953125 
Q 33.9375 -1.421875 27.875 -1.421875 
Q 17.96875 -1.421875 11.734375 6.484375 
Q 5.515625 14.40625 5.515625 27.296875 
Q 5.515625 40.1875 11.734375 48.09375 
Q 17.96875 56 27.875 56 
Q 33.9375 56 38.25 53.625 
Q 42.578125 51.265625 45.40625 46.390625 
z
M 14.796875 27.296875 
Q 14.796875 17.390625 18.875 11.75 
Q 22.953125 6.109375 30.078125 6.109375 
Q 37.203125 6.109375 41.296875 11.75 
Q 45.40625 17.390625 45.40625 27.296875 
Q 45.40625 37.203125 41.296875 42.84375 
Q 37.203125 48.484375 30.078125 48.484375 
Q 22.953125 48.484375 18.875 42.84375 
Q 14.796875 37.203125 14.796875 27.296875 
z
" id="DejaVuSans-100"/>
       <path d="M 32.171875 -5.078125 
Q 28.375 -14.84375 24.75 -17.8125 
Q 21.140625 -20.796875 15.09375 -20.796875 
L 7.90625 -20.796875 
L 7.90625 -13.28125 
L 13.1875 -13.28125 
Q 16.890625 -13.28125 18.9375 -11.515625 
Q 21 -9.765625 23.484375 -3.21875 
L 25.09375 0.875 
L 2.984375 54.6875 
L 12.5 54.6875 
L 29.59375 11.921875 
L 46.6875 54.6875 
L 56.203125 54.6875 
z
" id="DejaVuSans-121"/>
       <path d="M 31 75.875 
Q 24.46875 64.65625 21.28125 53.65625 
Q 18.109375 42.671875 18.109375 31.390625 
Q 18.109375 20.125 21.3125 9.0625 
Q 24.515625 -2 31 -13.1875 
L 23.1875 -13.1875 
Q 15.875 -1.703125 12.234375 9.375 
Q 8.59375 20.453125 8.59375 31.390625 
Q 8.59375 42.28125 12.203125 53.3125 
Q 15.828125 64.359375 23.1875 75.875 
z
" id="DejaVuSans-40"/>
       <path d="M 8.015625 75.875 
L 15.828125 75.875 
Q 23.140625 64.359375 26.78125 53.3125 
Q 30.421875 42.28125 30.421875 31.390625 
Q 30.421875 20.453125 26.78125 9.375 
Q 23.140625 -1.703125 15.828125 -13.1875 
L 8.015625 -13.1875 
Q 14.5 -2 17.703125 9.0625 
Q 20.90625 20.125 20.90625 31.390625 
Q 20.90625 42.671875 17.703125 53.65625 
Q 14.5 64.65625 8.015625 75.875 
z
" id="DejaVuSans-41"/>
      </defs>
      <use xlink:href="#DejaVuSans-82"/>
      <use x="64.982422" xlink:href="#DejaVuSans-101"/>
      <use x="126.505859" xlink:href="#DejaVuSans-97"/>
      <use x="187.785156" xlink:href="#DejaVuSans-100"/>
      <use x="251.261719" xlink:href="#DejaVuSans-32"/>
      <use x="283.048828" xlink:href="#DejaVuSans-108"/>
      <use x="310.832031" xlink:href="#DejaVuSans-97"/>
      <use x="372.111328" xlink:href="#DejaVuSans-116"/>
      <use x="411.320312" xlink:href="#DejaVuSans-101"/>
      <use x="472.84375" xlink:href="#DejaVuSans-110"/>
      <use x="536.222656" xlink:href="#DejaVuSans-99"/>
      <use x="591.203125" xlink:href="#DejaVuSans-121"/>
      <use x="650.382812" xlink:href="#DejaVuSans-32"/>
      <use x="682.169922" xlink:href="#DejaVuSans-40"/>
      <use x="721.183594" xlink:href="#DejaVuSans-115"/>
      <use x="773.283203" xlink:href="#DejaVuSans-41"/>
     </g>
    </g>
   </g>
   <g id="line2d_17">
    <path clip-path="url(#pe14ba1420d)" d="M 147.264561 206.914305 
L 147.700046 206.694037 
L 148.571018 206.745609 
L 149.877475 207.192048 
L 150.31296 207.30182 
L 150.748446 207.044167 
L 152.054903 207.168437 
L 152.925874 207.320875 
L 153.36136 207.322739 
L 154.232331 207.538036 
L 155.974273 207.487293 
L 157.716216 207.606074 
L 158.151702 207.757372 
L 161.200101 207.615808 
L 162.506558 207.440381 
L 162.942044 207.421015 
L 163.377529 207.163259 
L 165.554958 206.619372 
L 165.990443 206.889555 
L 166.425929 206.844921 
L 167.732386 206.990628 
L 168.167871 206.986071 
L 169.038843 206.66939 
L 169.909814 206.81665 
L 170.3453 206.886241 
L 170.780785 206.562932 
L 171.216271 206.582712 
L 171.651757 206.745816 
L 172.958213 206.713506 
L 173.829185 206.66939 
L 174.26467 206.54978 
L 174.700156 206.634284 
L 175.135642 206.566868 
L 176.442099 207.027701 
L 176.877584 206.999741 
L 177.31307 207.522917 
L 177.748556 207.405689 
L 179.055012 207.487914 
L 179.490498 207.674215 
L 182.103412 207.711082 
L 182.538898 207.909603 
L 185.151811 207.708286 
L 185.587297 207.976294 
L 187.764725 207.947919 
L 189.506668 208.146751 
L 189.942153 207.836491 
L 190.813125 207.743806 
L 191.24861 208.062144 
L 192.990553 207.932696 
L 193.861524 208.043193 
L 197.345409 207.858342 
L 197.780895 208.074571 
L 199.522838 207.876775 
L 200.393809 207.69793 
L 200.829295 207.712325 
L 201.26478 207.539279 
L 201.700266 208.015336 
L 202.571237 208.229287 
L 203.442208 208.513451 
L 204.31318 208.527742 
L 206.055122 208.576207 
L 206.926093 208.267086 
L 209.539007 208.283759 
L 209.974493 208.404404 
L 211.716436 208.312341 
L 212.151921 208.463846 
L 212.587407 208.473684 
L 213.022892 208.68836 
L 213.893864 208.690432 
L 214.329349 208.718289 
L 214.764835 208.350864 
L 216.071292 208.55622 
L 217.377749 208.397051 
L 217.813235 207.984268 
L 218.24872 208.395084 
L 219.555177 208.45494 
L 219.990663 208.384106 
L 220.426148 208.565851 
L 220.861634 208.483419 
L 221.29712 208.199152 
L 222.603577 208.311305 
L 223.474548 208.352211 
L 224.781005 208.328703 
L 225.21649 208.528674 
L 225.651976 208.526292 
L 226.087462 208.236122 
L 226.958433 208.2122 
L 227.393919 207.918095 
L 229.135861 207.754576 
L 229.571347 207.540936 
L 230.877804 207.624611 
L 231.748775 207.541971 
L 233.055232 207.693581 
L 234.361689 207.488639 
L 234.797175 207.264021 
L 235.23266 207.240306 
L 235.668146 206.862526 
L 236.103631 206.775641 
L 238.28106 206.850721 
L 240.458488 206.649403 
L 241.764945 206.776366 
L 242.20043 206.842643 
L 243.071402 206.681403 
L 243.942373 206.646918 
L 244.377859 206.674982 
L 245.24883 206.595657 
L 246.119801 206.578259 
L 246.990772 206.654478 
L 247.861744 206.42665 
L 248.297229 206.667733 
L 250.474658 206.884688 
L 250.910143 206.729868 
L 251.781115 206.770981 
L 252.652086 206.571113 
L 253.087571 206.591307 
L 253.523057 206.788586 
L 254.394028 206.361822 
L 255.265 206.395789 
L 255.700485 206.490131 
L 256.135971 206.46507 
L 256.571457 206.031679 
L 257.006942 205.94179 
L 257.442428 205.999887 
L 258.313399 205.168418 
L 258.748885 205.26628 
L 259.18437 204.924849 
L 259.619856 204.757913 
L 260.490827 204.841588 
L 260.926313 204.409026 
L 261.361799 204.532778 
L 261.797284 204.188654 
L 262.23277 204.229145 
L 263.103741 203.71239 
L 263.974712 202.861867 
L 264.845684 202.655786 
L 265.281169 202.602143 
L 265.716655 202.68675 
L 266.152141 202.342626 
L 267.023112 202.116558 
L 267.458598 201.735982 
L 268.329569 201.434835 
L 268.765055 201.574224 
L 269.636026 201.239938 
L 270.071511 201.183706 
L 270.942483 201.216741 
L 271.377968 201.170037 
L 271.813454 201.274941 
L 273.990882 201.270074 
L 274.426368 201.288818 
L 274.861854 201.656449 
L 276.16831 201.71817 
L 276.603796 201.735879 
L 277.039282 201.415159 
L 277.910253 201.527934 
L 279.652196 201.601356 
L 280.087681 201.417955 
L 280.958652 200.733332 
L 281.394138 200.555833 
L 281.829624 200.111776 
L 282.265109 200.035764 
L 282.700595 199.762474 
L 283.136081 199.74694 
L 283.571566 199.394635 
L 284.442538 199.460602 
L 285.313509 199.514659 
L 285.748995 199.455631 
L 286.18448 199.275233 
L 286.619966 199.286313 
L 287.055451 199.009917 
L 288.361908 198.912986 
L 288.797394 198.660511 
L 289.23288 198.278071 
L 290.539337 198.173581 
L 290.974822 198.025493 
L 292.281279 198.122527 
L 292.716765 197.94741 
L 293.587736 198.03792 
L 296.20065 198.318044 
L 296.636136 198.454431 
L 297.071621 198.162293 
L 297.942592 198.084831 
L 298.378078 198.206616 
L 298.813564 197.927941 
L 299.249049 197.925973 
L 299.684535 198.295365 
L 300.555506 198.109168 
L 302.297449 198.110825 
L 302.732935 198.548151 
L 304.910363 198.278382 
L 305.781334 198.3313 
L 306.21682 198.604176 
L 307.087791 198.595684 
L 308.829734 198.489847 
L 310.571676 198.264298 
L 311.007162 198.519983 
L 311.878133 198.528992 
L 312.313619 198.822373 
L 314.055561 199.032389 
L 314.491047 199.55805 
L 316.232989 199.309303 
L 318.410418 199.368953 
L 318.845903 199.064492 
L 319.281389 199.088 
L 319.716875 199.343167 
L 320.15236 199.249654 
L 320.587846 199.865825 
L 321.023331 199.978082 
L 322.329788 199.891093 
L 322.765274 199.379619 
L 323.20076 199.191143 
L 324.507217 199.255453 
L 324.942702 199.142575 
L 325.378188 198.734245 
L 326.249159 198.565341 
L 326.684645 198.387325 
L 327.12013 198.059149 
L 327.991102 198.215729 
L 330.16853 196.978934 
L 331.039501 196.979969 
L 331.910472 196.898055 
L 332.345958 197.125676 
L 333.652415 197.204794 
L 334.087901 197.171552 
L 335.829843 197.527792 
L 336.265329 197.503767 
L 336.700815 197.183668 
L 337.1363 197.338695 
L 337.571786 197.275006 
L 338.007271 196.877654 
L 338.442757 196.798432 
L 338.878243 197.152704 
L 339.313728 197.180044 
L 340.1847 196.995607 
L 340.620185 197.197441 
L 341.491157 197.071204 
L 341.926642 197.153015 
L 342.362128 196.785073 
L 343.233099 197.616748 
L 343.668585 197.368312 
L 344.10407 197.748164 
L 344.975042 197.849547 
L 345.410527 197.724345 
L 345.846013 197.914582 
L 346.716984 197.570976 
L 347.15247 197.492479 
L 348.023441 197.899048 
L 348.894412 198.659269 
L 350.200869 198.896313 
L 350.636355 198.842981 
L 351.071841 199.024208 
L 353.684755 199.040777 
L 354.555726 199.396292 
L 354.991211 199.105604 
L 355.426697 199.109747 
L 356.297668 198.555296 
L 356.733154 198.544319 
L 359.346068 197.864356 
L 361.523496 197.842609 
L 361.958982 198.111549 
L 362.394467 198.173063 
L 363.700924 197.612399 
L 364.571896 197.092123 
L 365.007381 197.175798 
L 365.442867 197.142038 
L 365.878353 197.47446 
L 366.313838 197.373697 
L 366.749324 197.766908 
L 367.620295 197.980859 
L 368.055781 197.915514 
L 368.491266 198.16105 
L 369.362238 198.097155 
L 369.797723 197.76173 
L 371.539666 197.951552 
L 371.975151 198.163639 
L 373.281608 198.108857 
L 373.717094 198.35139 
L 375.894522 198.275275 
L 376.765494 198.397991 
L 377.200979 198.410211 
L 377.636465 198.551154 
L 378.07195 198.545148 
L 378.507436 198.170578 
L 379.813893 197.935811 
L 380.684864 197.219396 
L 381.555836 197.21194 
L 381.991321 197.509876 
L 382.426807 197.285673 
L 383.297778 197.087048 
L 383.733264 197.376079 
L 384.168749 197.22592 
L 385.039721 197.295511 
L 385.475206 197.135203 
L 385.910692 196.695806 
L 387.217149 196.823907 
L 388.523606 196.590383 
L 389.830063 196.755455 
L 390.265548 196.728116 
L 391.13652 196.844101 
L 392.007491 196.82981 
L 392.442977 196.647237 
L 393.313948 196.656039 
L 395.05589 196.535601 
L 395.926862 196.58272 
L 396.362347 196.490035 
L 396.797833 196.55828 
L 397.668804 195.717802 
L 398.539776 195.761607 
L 400.717204 195.614037 
L 402.023661 195.58328 
L 402.023661 195.58328 
" style="fill:none;stroke:#1f77b4;stroke-linecap:square;stroke-opacity:0.8;stroke-width:1.5;"/>
   </g>
   <g id="line2d_18">
    <path clip-path="url(#pe14ba1420d)" d="M 147.264561 215.473906 
L 148.571018 215.518436 
L 149.006503 215.34653 
L 151.619417 215.193885 
L 152.490388 215.204345 
L 152.925874 215.178973 
L 153.796845 215.310181 
L 155.103302 215.310388 
L 155.974273 215.314945 
L 157.28073 215.276628 
L 160.32913 215.34042 
L 160.764616 215.495861 
L 161.200101 215.474321 
L 161.635587 215.287812 
L 162.071072 215.457958 
L 163.377529 215.313184 
L 163.813015 215.392717 
L 164.683986 215.942611 
L 165.990443 215.968397 
L 166.861415 216.286113 
L 167.2969 216.315524 
L 168.167871 216.622884 
L 169.474328 216.668243 
L 170.780785 216.541073 
L 171.216271 216.680773 
L 171.651757 216.975189 
L 172.958213 217.232221 
L 173.393699 217.172364 
L 173.829185 219.694938 
L 174.700156 220.028188 
L 175.135642 219.990803 
L 176.006613 220.127397 
L 177.748556 220.01048 
L 178.184041 220.132264 
L 179.055012 220.168613 
L 179.490498 219.8481 
L 181.232441 219.957354 
L 181.667926 220.002609 
L 182.538898 219.809887 
L 182.974383 220.025392 
L 184.716326 220.082452 
L 185.587297 220.138995 
L 186.458268 220.168924 
L 186.893754 220.2934 
L 187.32924 220.54484 
L 188.200211 220.70929 
L 188.635697 220.534898 
L 190.813125 220.499792 
L 191.24861 220.41446 
L 191.684096 220.496167 
L 192.119582 220.695724 
L 192.555067 220.682676 
L 192.990553 220.810156 
L 193.861524 220.703387 
L 194.29701 220.476388 
L 196.038952 220.521539 
L 196.474438 220.305724 
L 199.087352 220.43279 
L 199.958323 220.561616 
L 202.135751 220.369619 
L 202.571237 220.234269 
L 206.055122 220.126465 
L 206.490608 219.980448 
L 207.361579 220.095708 
L 208.23255 220.108756 
L 208.668036 219.882689 
L 210.845464 219.754069 
L 211.28095 223.424793 
L 212.151921 223.564286 
L 212.587407 223.439498 
L 213.022892 223.465802 
L 213.458378 223.640815 
L 213.893864 223.373842 
L 214.764835 223.768192 
L 216.071292 223.789007 
L 217.377749 224.137169 
L 217.813235 223.996952 
L 218.24872 223.990635 
L 219.119691 223.800191 
L 219.990663 223.864397 
L 220.426148 223.970026 
L 223.474548 223.782793 
L 224.345519 223.866468 
L 226.522947 223.730289 
L 227.829404 223.349609 
L 228.700376 223.364418 
L 229.135861 223.490138 
L 229.571347 223.113704 
L 230.006832 223.173353 
L 231.313289 223.111011 
L 231.748775 223.216641 
L 232.184261 223.200486 
L 233.055232 222.963337 
L 233.490718 222.648417 
L 235.23266 222.691704 
L 235.668146 222.79578 
L 236.974603 222.565363 
L 237.410088 222.244954 
L 240.023002 222.130315 
L 240.458488 222.023133 
L 240.893974 221.778218 
L 243.942373 221.849673 
L 244.377859 221.434094 
L 244.813344 221.619877 
L 246.119801 221.468682 
L 246.555287 221.641314 
L 250.474658 222.133215 
L 250.910143 221.895031 
L 252.652086 221.799136 
L 253.087571 221.631372 
L 254.394028 221.598441 
L 255.265 221.834968 
L 255.700485 222.066109 
L 256.571457 222.04954 
L 257.877914 221.718154 
L 258.313399 221.700549 
L 258.748885 221.85133 
L 260.926313 221.854954 
L 261.797284 221.599994 
L 262.23277 221.36036 
L 263.539227 221.280724 
L 263.974712 221.199224 
L 264.410198 221.560953 
L 265.281169 221.556292 
L 265.716655 221.671863 
L 266.587626 221.646492 
L 267.458598 221.684187 
L 269.636026 221.652912 
L 270.071511 221.708834 
L 270.942483 221.543348 
L 271.813454 221.606725 
L 273.119911 221.614699 
L 273.555397 221.732756 
L 274.861854 221.367195 
L 275.297339 221.106022 
L 275.732825 220.987033 
L 276.603796 221.051239 
L 278.781224 221.064495 
L 279.21671 221.308996 
L 280.523167 221.251728 
L 280.958652 221.140713 
L 281.829624 221.196014 
L 282.700595 220.743464 
L 285.313509 220.845987 
L 286.18448 220.606043 
L 286.619966 220.594341 
L 287.490937 220.996561 
L 288.361908 221.015305 
L 289.23288 221.139989 
L 289.668365 221.016547 
L 290.103851 221.046061 
L 290.974822 220.950684 
L 291.410308 221.193735 
L 292.716765 221.117413 
L 293.15225 220.779813 
L 293.587736 220.949752 
L 295.765164 221.04834 
L 297.071621 221.03146 
L 297.507107 221.163703 
L 298.378078 221.100326 
L 298.813564 221.324943 
L 299.249049 221.139989 
L 300.120021 221.216207 
L 301.861963 221.240026 
L 304.474877 221.286731 
L 304.910363 221.278135 
L 305.781334 221.107057 
L 306.21682 221.116688 
L 307.087791 220.699245 
L 308.394248 220.146762 
L 309.700705 220.168095 
L 310.13619 219.966467 
L 310.571676 220.168406 
L 312.313619 220.285219 
L 313.18459 219.84634 
L 314.055561 219.603703 
L 314.491047 219.825835 
L 314.926532 219.633321 
L 315.362018 219.763493 
L 317.974932 219.710886 
L 318.410418 219.980862 
L 318.845903 220.104096 
L 319.716875 219.661696 
L 320.15236 219.548921 
L 323.20076 219.720206 
L 324.071731 219.697837 
L 324.507217 219.394826 
L 324.942702 219.33673 
L 325.378188 219.090262 
L 326.249159 218.952115 
L 326.684645 218.650346 
L 327.12013 218.605609 
L 327.991102 218.100038 
L 328.862073 217.99793 
L 329.297559 218.451825 
L 330.16853 218.399218 
L 331.039501 218.458453 
L 331.474987 218.1775 
L 332.781444 218.147675 
L 333.652415 218.170044 
L 335.829843 218.020506 
L 337.1363 217.979911 
L 338.007271 218.30498 
L 339.313728 218.266146 
L 339.749214 217.972972 
L 340.620185 217.930203 
L 341.491157 217.690362 
L 341.926642 211.602384 
L 342.362128 211.7862 
L 343.668585 211.579394 
L 344.975042 210.755589 
L 347.587956 210.813788 
L 348.023441 210.555721 
L 348.894412 210.515748 
L 349.329898 210.115599 
L 349.765384 209.895745 
L 350.636355 209.816109 
L 352.378298 209.718039 
L 354.12024 209.144638 
L 354.555726 209.042322 
L 355.426697 208.546071 
L 355.862183 208.359667 
L 356.297668 208.044436 
L 357.16864 207.96511 
L 360.217039 207.850471 
L 360.652525 207.94647 
L 361.08801 207.882885 
L 362.394467 207.173201 
L 362.829953 206.886241 
L 364.13641 206.733907 
L 364.571896 206.69383 
L 365.007381 206.491684 
L 365.878353 206.497898 
L 366.313838 206.211352 
L 368.926752 206.217669 
L 369.797723 206.110694 
L 370.668695 206.122707 
L 371.10418 206.18712 
L 372.846123 206.027329 
L 373.717094 205.520205 
L 374.15258 205.42752 
L 375.023551 205.060407 
L 376.765494 204.664918 
L 377.200979 204.447342 
L 379.378407 204.255242 
L 379.813893 204.110882 
L 380.249379 204.324833 
L 381.991321 204.407162 
L 383.297778 204.32939 
L 384.168749 204.575858 
L 384.604235 204.413479 
L 386.781663 204.399084 
L 387.652635 204.018715 
L 388.523606 203.97781 
L 389.394577 203.896516 
L 389.830063 203.643834 
L 390.265548 203.710837 
L 390.701034 203.483423 
L 391.13652 203.51449 
L 392.007491 203.958237 
L 393.313948 204.551936 
L 394.184919 204.427252 
L 395.491376 204.562188 
L 395.926862 204.492287 
L 396.362347 204.300186 
L 396.797833 204.468882 
L 397.233319 204.516001 
L 398.10429 205.017534 
L 398.539776 205.147396 
L 398.975261 204.973418 
L 399.410747 205.06631 
L 401.588175 204.895439 
L 402.023661 204.976939 
L 402.023661 204.976939 
" style="fill:none;stroke:#ff7f0e;stroke-linecap:square;stroke-opacity:0.8;stroke-width:1.5;"/>
   </g>
   <g id="line2d_19">
    <path clip-path="url(#pe14ba1420d)" d="M 147.264561 143.520856 
L 148.135532 143.367797 
L 148.571018 143.260511 
L 153.796845 143.507083 
L 154.232331 143.886313 
L 155.103302 145.142888 
L 155.974273 145.489393 
L 156.409759 145.196842 
L 156.845245 145.085827 
L 157.28073 145.529263 
L 158.151702 145.732755 
L 159.022673 145.499128 
L 159.458159 145.838281 
L 160.32913 145.691746 
L 160.764616 146.045604 
L 161.635587 145.99134 
L 162.071072 146.107221 
L 162.942044 146.111882 
L 163.377529 145.931587 
L 163.813015 145.928376 
L 164.248501 145.53848 
L 165.119472 145.101775 
L 165.554958 145.143716 
L 165.990443 145.051342 
L 166.425929 144.515532 
L 167.2969 144.660721 
L 167.732386 145.170227 
L 168.167871 145.042229 
L 168.603357 145.63044 
L 169.474328 146.357522 
L 170.3453 145.980156 
L 170.780785 146.527771 
L 171.651757 148.022944 
L 172.087242 148.028847 
L 172.522728 148.553058 
L 172.958213 148.195265 
L 173.393699 148.534418 
L 173.829185 148.557511 
L 174.26467 148.179731 
L 174.700156 148.026879 
L 175.135642 147.482474 
L 176.006613 147.418475 
L 176.877584 147.527004 
L 177.748556 147.281157 
L 178.184041 147.133483 
L 178.619527 146.678552 
L 180.796955 146.605958 
L 181.667926 146.817216 
L 182.103412 146.812038 
L 182.974383 147.356754 
L 183.409869 147.137418 
L 183.845355 147.112564 
L 184.28084 147.485167 
L 184.716326 147.687001 
L 185.151811 147.665565 
L 185.587297 147.094131 
L 186.022783 146.940347 
L 186.458268 147.359654 
L 186.893754 147.459691 
L 188.200211 147.364625 
L 188.635697 147.456067 
L 189.071182 147.673953 
L 189.506668 147.697668 
L 189.942153 148.349152 
L 190.377639 148.431378 
L 190.813125 148.768356 
L 191.24861 148.84996 
L 191.684096 149.33192 
L 192.119582 149.323324 
L 192.555067 149.669105 
L 193.426039 149.755369 
L 193.861524 149.546492 
L 194.29701 149.115172 
L 194.732496 148.985207 
L 195.167981 149.284904 
L 195.603467 149.347868 
L 196.474438 149.200918 
L 196.909924 148.796006 
L 197.345409 148.942334 
L 198.216381 148.941816 
L 199.087352 147.492312 
L 199.522838 147.522137 
L 199.958323 147.360793 
L 200.393809 146.900995 
L 200.829295 146.934962 
L 201.26478 147.263449 
L 201.700266 147.373531 
L 202.135751 147.615339 
L 204.31318 147.368249 
L 204.748665 147.055504 
L 205.184151 147.036863 
L 205.619637 146.76523 
L 206.490608 146.784803 
L 206.926093 146.485416 
L 207.797065 146.493597 
L 208.668036 147.513852 
L 209.539007 147.811168 
L 209.974493 147.211669 
L 210.409979 147.159269 
L 211.28095 146.35835 
L 211.716436 146.258416 
L 212.151921 146.298804 
L 212.587407 146.822808 
L 213.022892 146.976385 
L 213.458378 146.443993 
L 214.329349 146.749386 
L 214.764835 146.799197 
L 215.200321 146.412511 
L 216.071292 146.398841 
L 216.942263 146.396563 
L 217.813235 145.859614 
L 218.684206 145.511658 
L 219.119691 144.941571 
L 219.555177 145.035912 
L 219.990663 144.471209 
L 220.426148 144.299821 
L 220.861634 144.496685 
L 221.29712 144.339587 
L 221.732605 143.759661 
L 223.039062 143.795285 
L 223.474548 143.470112 
L 223.910033 143.566525 
L 224.781005 143.479018 
L 225.21649 143.386852 
L 226.522947 143.378256 
L 227.393919 143.320989 
L 227.829404 143.412845 
L 228.700376 143.403214 
L 230.006832 143.511639 
L 230.877804 143.41678 
L 231.313289 142.737231 
L 232.184261 142.919079 
L 233.055232 142.705957 
L 233.490718 142.893086 
L 233.926203 142.429974 
L 234.797175 142.401288 
L 235.23266 142.207945 
L 235.668146 141.739966 
L 236.539117 141.642207 
L 236.974603 141.710659 
L 237.410088 141.618492 
L 238.28106 141.709623 
L 238.716545 141.42256 
L 239.152031 141.569716 
L 239.587517 141.364464 
L 240.893974 141.186862 
L 241.329459 141.573548 
L 241.764945 141.801997 
L 242.635916 141.795784 
L 243.506887 142.532497 
L 245.24883 143.131063 
L 246.119801 143.053912 
L 246.555287 143.162027 
L 247.426258 143.055466 
L 247.861744 143.182428 
L 248.297229 143.461931 
L 248.732715 143.489581 
L 249.168201 143.895633 
L 249.603686 143.77737 
L 250.039172 144.052627 
L 250.474658 144.045378 
L 250.910143 144.429579 
L 251.345629 144.962386 
L 252.2166 144.798867 
L 253.523057 144.90429 
L 254.394028 144.911435 
L 255.700485 145.645041 
L 256.135971 145.432126 
L 257.442428 145.30682 
L 257.877914 145.770968 
L 258.748885 146.008427 
L 259.18437 146.512341 
L 259.619856 146.576236 
L 260.055342 147.156369 
L 260.490827 147.042662 
L 260.926313 147.068966 
L 261.361799 146.770201 
L 261.797284 146.757774 
L 262.23277 146.905034 
L 262.668256 146.842588 
L 263.103741 146.506542 
L 263.539227 146.684144 
L 264.410198 146.832336 
L 264.845684 146.144399 
L 265.281169 145.760612 
L 265.716655 145.654569 
L 266.587626 144.808498 
L 267.023112 144.769975 
L 267.458598 144.499274 
L 267.894083 144.48374 
L 268.765055 144.855514 
L 269.20054 144.862866 
L 269.636026 145.227598 
L 270.071511 145.040054 
L 270.942483 145.313966 
L 271.377968 144.952858 
L 271.813454 144.891034 
L 272.684425 145.098254 
L 273.555397 144.470588 
L 274.426368 144.29661 
L 274.861854 144.360402 
L 275.297339 144.192845 
L 275.732825 143.647093 
L 276.16831 143.492274 
L 276.603796 143.595625 
L 277.039282 143.214945 
L 277.474767 142.546063 
L 277.910253 142.451307 
L 278.345739 142.689491 
L 279.21671 142.693115 
L 279.652196 142.178121 
L 280.087681 142.334493 
L 280.523167 141.311753 
L 281.394138 140.899591 
L 281.829624 141.111989 
L 282.265109 140.682223 
L 282.700595 140.651052 
L 283.136081 140.025043 
L 284.007052 141.329668 
L 284.878023 141.651631 
L 285.313509 142.151299 
L 286.18448 141.776418 
L 287.055451 141.759124 
L 287.490937 141.540927 
L 287.926423 141.49298 
L 288.797394 141.113543 
L 289.23288 141.055654 
L 289.668365 141.448967 
L 290.103851 141.399881 
L 290.539337 141.631333 
L 290.974822 141.6158 
L 292.716765 142.23601 
L 294.458707 142.171804 
L 295.329679 142.633569 
L 295.765164 143.155917 
L 296.20065 143.489996 
L 296.636136 143.569218 
L 297.071621 143.819621 
L 297.942592 143.820864 
L 298.378078 144.385567 
L 299.249049 144.354914 
L 299.684535 144.303756 
L 300.120021 144.653679 
L 300.555506 144.655439 
L 300.990992 144.387327 
L 301.426478 144.396544 
L 302.297449 144.742325 
L 302.732935 144.979473 
L 303.16842 145.018721 
L 303.603906 145.269436 
L 304.039391 145.788884 
L 304.474877 144.610909 
L 304.910363 145.243132 
L 305.345848 145.412864 
L 306.21682 145.366677 
L 306.652305 145.072468 
L 307.087791 144.539661 
L 307.523277 143.793525 
L 307.958762 143.832152 
L 308.394248 144.172237 
L 308.829734 144.245867 
L 309.265219 143.912409 
L 309.700705 143.82511 
L 310.13619 144.081002 
L 311.878133 144.327885 
L 313.620076 144.2905 
L 315.362018 144.286462 
L 315.797504 143.995877 
L 316.232989 144.777845 
L 316.668475 144.83822 
L 317.103961 144.731762 
L 317.539446 144.994903 
L 318.410418 145.115134 
L 318.845903 145.489393 
L 319.281389 145.573483 
L 319.716875 144.620022 
L 320.15236 144.237271 
L 320.587846 144.728034 
L 321.458817 144.873429 
L 322.329788 144.304584 
L 322.765274 144.376039 
L 323.20076 144.273724 
L 324.942702 144.376247 
L 325.378188 144.141998 
L 325.813674 144.225259 
L 326.684645 143.75935 
L 328.426587 144.032123 
L 328.862073 144.055527 
L 329.733044 143.546331 
L 330.604016 143.592725 
L 331.039501 143.023673 
L 331.474987 142.724183 
L 332.781444 142.820492 
L 333.216929 142.711031 
L 334.958872 142.803301 
L 335.394358 142.484446 
L 335.829843 142.422 
L 336.265329 142.199868 
L 337.571786 142.388965 
L 338.007271 142.42811 
L 338.442757 142.321756 
L 340.1847 142.391036 
L 340.620185 142.178535 
L 341.491157 142.470258 
L 342.797614 142.496666 
L 344.10407 142.303426 
L 345.846013 142.632016 
L 347.15247 142.806926 
L 347.587956 143.102067 
L 348.023441 143.622136 
L 348.458927 143.916552 
L 349.329898 143.782237 
L 349.765384 144.669005 
L 350.200869 145.213514 
L 350.636355 145.359428 
L 351.507326 146.169771 
L 351.942812 146.15403 
L 352.813783 146.414168 
L 354.555726 146.621491 
L 355.426697 147.388547 
L 355.862183 147.345674 
L 356.297668 147.560868 
L 357.16864 147.392275 
L 357.604125 147.390411 
L 358.039611 147.892564 
L 358.475097 148.177764 
L 359.346068 148.357023 
L 359.781554 148.038996 
L 360.217039 148.158605 
L 360.652525 148.789585 
L 361.08801 148.93146 
L 361.523496 148.737496 
L 362.394467 149.591851 
L 362.829953 149.340101 
L 363.265439 149.394883 
L 363.700924 149.565547 
L 364.571896 150.725191 
L 365.007381 150.777799 
L 365.442867 151.831296 
L 365.878353 152.1661 
L 367.620295 152.763527 
L 368.055781 153.460681 
L 368.926752 153.627823 
L 369.362238 153.369964 
L 370.233209 153.400513 
L 371.10418 153.630723 
L 371.539666 153.729621 
L 371.975151 153.630723 
L 372.410637 153.76918 
L 372.846123 153.789478 
L 373.717094 154.216655 
L 374.15258 154.195012 
L 374.588065 153.4176 
L 375.459037 153.379387 
L 375.894522 153.287013 
L 377.636465 152.303211 
L 378.07195 152.274111 
L 378.942922 151.763673 
L 379.378407 151.132382 
L 379.813893 151.310295 
L 380.249379 151.08982 
L 382.426807 151.322722 
L 382.862293 151.517826 
L 384.604235 151.481166 
L 385.475206 151.153404 
L 385.910692 151.294554 
L 386.781663 151.310606 
L 387.652635 151.580789 
L 388.08812 151.63961 
L 388.959091 151.522382 
L 389.394577 152.53021 
L 389.830063 152.210733 
L 390.265548 152.17542 
L 391.13652 152.349501 
L 391.572005 153.128466 
L 392.007491 153.667693 
L 392.442977 154.386905 
L 393.749434 154.402956 
L 394.184919 154.841525 
L 394.620405 154.72409 
L 395.491376 154.666926 
L 395.926862 154.492741 
L 396.362347 154.049202 
L 397.233319 153.925553 
L 397.668804 154.116722 
L 398.10429 153.591267 
L 399.410747 153.542906 
L 400.281718 153.350909 
L 400.717204 153.597481 
L 401.152689 153.094188 
L 402.023661 153.212244 
L 402.023661 153.212244 
" style="fill:none;stroke:#2ca02c;stroke-linecap:square;stroke-opacity:0.8;stroke-width:1.5;"/>
   </g>
   <g id="line2d_20">
    <path clip-path="url(#pe14ba1420d)" d="M 147.264561 180.76048 
L 148.135532 180.45343 
L 149.006503 179.755138 
L 151.183931 179.035305 
L 152.054903 178.32386 
L 155.538788 177.20916 
L 156.409759 176.698825 
L 156.845245 176.652638 
L 157.716216 176.256114 
L 158.151702 175.615814 
L 159.893644 175.129194 
L 160.32913 174.775957 
L 160.764616 174.956459 
L 161.200101 174.978102 
L 161.635587 174.785795 
L 162.506558 174.781238 
L 162.942044 175.145245 
L 163.377529 175.13955 
L 163.813015 175.252014 
L 164.683986 175.151769 
L 165.554958 174.13721 
L 167.2969 173.621801 
L 167.732386 173.543097 
L 168.167871 173.290932 
L 168.603357 173.192863 
L 169.038843 172.916466 
L 169.474328 172.821814 
L 169.909814 171.728343 
L 170.3453 171.293502 
L 170.780785 171.246073 
L 172.087242 170.743816 
L 172.522728 170.249222 
L 173.393699 170.297169 
L 173.829185 170.183462 
L 174.26467 169.674992 
L 174.700156 169.447578 
L 175.135642 169.353651 
L 175.571127 169.112671 
L 176.442099 168.908972 
L 176.877584 168.272917 
L 177.31307 167.837662 
L 177.748556 167.577731 
L 178.184041 167.031773 
L 178.619527 166.934221 
L 179.055012 166.643015 
L 179.490498 166.788411 
L 180.361469 165.851313 
L 181.667926 165.52293 
L 182.103412 165.067274 
L 182.974383 165.017048 
L 183.409869 164.616899 
L 185.151811 164.14602 
L 186.022783 164.645585 
L 186.893754 164.393007 
L 187.764725 164.077569 
L 188.200211 163.475792 
L 188.635697 163.490187 
L 189.071182 163.253349 
L 189.506668 162.692685 
L 190.377639 162.368134 
L 190.813125 161.745956 
L 192.119582 161.685271 
L 192.555067 161.60812 
L 192.990553 161.388784 
L 193.426039 160.966784 
L 193.861524 160.755629 
L 195.167981 159.02569 
L 196.474438 158.787299 
L 196.909924 158.155387 
L 197.780895 158.182933 
L 198.216381 157.88655 
L 199.087352 158.074612 
L 199.522838 157.508666 
L 199.958323 157.242315 
L 200.393809 157.303932 
L 201.700266 157.115042 
L 202.135751 156.773817 
L 202.571237 156.798154 
L 203.006723 157.165164 
L 203.442208 157.254224 
L 204.31318 157.190018 
L 208.668036 157.423438 
L 210.409979 157.108621 
L 210.845464 157.559927 
L 211.28095 157.688443 
L 213.022892 156.692006 
L 213.458378 157.373316 
L 213.893864 157.302896 
L 215.200321 156.585859 
L 215.635806 156.25613 
L 216.071292 156.099239 
L 216.506778 156.419441 
L 216.942263 156.190371 
L 217.377749 156.226823 
L 217.813235 156.617962 
L 219.555177 156.458276 
L 220.426148 156.776199 
L 221.732605 156.429072 
L 223.039062 156.499077 
L 223.474548 156.394277 
L 224.781005 156.363313 
L 225.21649 156.700395 
L 225.651976 156.8228 
L 226.087462 157.138756 
L 226.522947 157.093087 
L 227.393919 157.292747 
L 227.829404 157.171377 
L 228.26489 157.224917 
L 228.700376 157.525546 
L 229.135861 157.416603 
L 230.006832 157.499967 
L 230.442318 157.308488 
L 231.313289 157.282806 
L 232.184261 157.117423 
L 232.619746 157.31377 
L 233.055232 157.117216 
L 233.490718 157.366791 
L 234.361689 157.504317 
L 234.797175 157.426855 
L 235.23266 156.996571 
L 235.668146 156.834813 
L 236.103631 156.801571 
L 236.539117 156.957322 
L 237.845574 156.768225 
L 240.458488 156.336077 
L 240.893974 156.445331 
L 241.764945 156.209736 
L 242.20043 156.016703 
L 242.635916 156.0428 
L 243.071402 156.209632 
L 243.942373 156.061234 
L 244.377859 155.786597 
L 245.24883 156.09779 
L 245.684316 155.973106 
L 246.119801 156.113427 
L 246.555287 156.486236 
L 246.990772 156.362898 
L 248.297229 155.653111 
L 249.603686 155.04481 
L 250.039172 155.030519 
L 250.474658 155.336948 
L 250.910143 155.220652 
L 251.345629 154.904799 
L 251.781115 154.733928 
L 252.2166 154.705761 
L 252.652086 154.435163 
L 253.087571 154.451318 
L 253.523057 154.345067 
L 253.958543 154.459292 
L 254.394028 154.360498 
L 254.829514 155.2599 
L 255.265 155.495599 
L 257.006942 155.269428 
L 257.442428 155.63913 
L 257.877914 155.400015 
L 258.748885 155.153235 
L 259.18437 155.436881 
L 260.490827 155.742481 
L 261.361799 155.306916 
L 262.668256 155.905171 
L 263.539227 155.659221 
L 263.974712 155.749109 
L 264.410198 155.50554 
L 264.845684 155.766403 
L 265.281169 155.801924 
L 265.716655 155.114815 
L 266.587626 154.845357 
L 267.023112 155.005872 
L 267.894083 154.766963 
L 268.329569 154.984539 
L 268.765055 154.284072 
L 269.20054 154.295359 
L 270.942483 152.825662 
L 272.684425 152.373941 
L 273.119911 152.901674 
L 273.990882 152.818413 
L 274.426368 153.202303 
L 274.861854 153.326469 
L 275.297339 153.119974 
L 276.16831 153.40652 
L 276.603796 153.244348 
L 277.039282 153.275311 
L 277.474767 152.928599 
L 277.910253 153.131262 
L 278.345739 153.479839 
L 278.781224 153.605144 
L 279.652196 154.536029 
L 280.087681 155.19352 
L 280.523167 155.212678 
L 280.958652 155.415859 
L 281.394138 155.469295 
L 281.829624 155.828228 
L 282.265109 155.929508 
L 283.136081 156.301385 
L 284.007052 156.265347 
L 284.878023 156.922113 
L 285.313509 156.572914 
L 285.748995 156.613509 
L 286.619966 156.338148 
L 287.055451 156.504877 
L 287.926423 156.413331 
L 288.361908 156.200209 
L 288.797394 156.141077 
L 289.23288 155.883631 
L 289.668365 155.911385 
L 290.103851 155.786079 
L 290.974822 155.868305 
L 291.410308 155.554938 
L 292.716765 155.702094 
L 293.15225 155.460596 
L 294.458707 155.489592 
L 294.894193 155.211953 
L 296.20065 155.226451 
L 296.636136 155.471573 
L 297.071621 155.353828 
L 297.507107 155.613344 
L 297.942592 156.012458 
L 298.378078 156.061441 
L 298.813564 155.722805 
L 299.249049 155.726741 
L 299.684535 156.031305 
L 300.120021 155.980044 
L 300.555506 156.228687 
L 300.990992 156.21947 
L 301.426478 155.823153 
L 301.861963 156.126682 
L 304.474877 156.741507 
L 304.910363 156.076457 
L 305.345848 155.913456 
L 305.781334 156.080081 
L 306.21682 155.93686 
L 307.523277 156.237075 
L 310.571676 155.931268 
L 311.007162 155.679829 
L 311.878133 155.798196 
L 312.313619 155.410163 
L 313.18459 155.188445 
L 313.620076 155.275952 
L 314.055561 155.86147 
L 317.974932 156.107938 
L 318.410418 156.011215 
L 318.845903 155.719492 
L 319.716875 155.7925 
L 320.15236 156.129996 
L 320.587846 156.289165 
L 321.023331 155.79105 
L 323.20076 156.080599 
L 324.071731 155.630846 
L 324.507217 155.819943 
L 325.378188 155.763193 
L 325.813674 155.368844 
L 326.249159 155.483068 
L 327.555616 155.274709 
L 328.862073 155.647519 
L 330.16853 155.6848 
L 330.604016 155.667609 
L 331.039501 155.428286 
L 331.474987 155.478201 
L 331.910472 155.368119 
L 332.345958 155.803477 
L 332.781444 155.755426 
L 333.216929 155.560426 
L 333.652415 155.634988 
L 334.087901 155.842829 
L 334.523386 155.801406 
L 334.958872 156.129893 
L 335.394358 156.125025 
L 336.700815 156.574779 
L 337.1363 156.502081 
L 337.571786 156.624383 
L 338.007271 156.514818 
L 338.878243 156.664771 
L 339.749214 156.750206 
L 340.1847 156.755798 
L 341.055671 156.546404 
L 341.926642 156.889906 
L 342.362128 156.928637 
L 342.797614 157.18484 
L 343.668585 157.400862 
L 344.975042 157.684612 
L 345.410527 157.672806 
L 346.281499 157.994147 
L 346.716984 158.351423 
L 347.587956 158.58215 
L 348.023441 159.147371 
L 349.329898 159.594017 
L 349.765384 159.123345 
L 350.200869 159.442615 
L 350.636355 160.216609 
L 351.507326 160.078773 
L 351.942812 160.136973 
L 352.378298 160.312607 
L 352.813783 160.354652 
L 353.249269 160.524591 
L 353.684755 161.244217 
L 354.12024 161.421923 
L 355.426697 162.588609 
L 355.862183 163.076679 
L 356.297668 163.229531 
L 356.733154 163.036395 
L 357.16864 163.354732 
L 357.604125 163.493707 
L 358.039611 163.50396 
L 358.910582 163.842802 
L 359.781554 163.85264 
L 360.652525 164.661844 
L 361.08801 164.585107 
L 362.394467 165.088607 
L 362.829953 165.057022 
L 363.700924 164.804858 
L 365.442867 164.770994 
L 365.878353 164.573819 
L 366.313838 164.557664 
L 366.749324 164.7537 
L 367.620295 164.893296 
L 368.491266 164.760742 
L 368.926752 164.767059 
L 369.362238 164.938033 
L 370.233209 165.602773 
L 370.668695 165.468458 
L 371.539666 165.813411 
L 371.975151 165.65942 
L 372.410637 165.351127 
L 373.281608 165.430038 
L 374.15258 165.727872 
L 374.588065 165.674125 
L 375.459037 166.070235 
L 375.894522 165.978379 
L 376.330008 166.336069 
L 376.765494 166.286775 
L 377.200979 166.363822 
L 377.636465 166.267617 
L 378.07195 166.520299 
L 378.507436 166.64053 
L 378.942922 166.480118 
L 379.378407 166.165301 
L 379.813893 166.420262 
L 380.684864 166.574667 
L 381.12035 166.32737 
L 381.555836 166.267617 
L 381.991321 166.631935 
L 382.426807 166.19523 
L 383.297778 166.130092 
L 383.733264 166.547845 
L 384.168749 166.78199 
L 384.604235 166.642083 
L 385.910692 166.998013 
L 386.346178 167.407067 
L 389.394577 167.189181 
L 389.830063 167.70749 
L 390.265548 167.849261 
L 390.701034 167.308169 
L 391.13652 167.494263 
L 392.007491 167.55091 
L 392.442977 167.59254 
L 392.878462 167.455326 
L 393.313948 167.566858 
L 394.184919 166.677811 
L 395.05589 166.899322 
L 395.926862 167.485772 
L 396.797833 167.528023 
L 397.233319 167.941221 
L 398.10429 168.299843 
L 399.846233 168.24796 
L 400.717204 168.364981 
L 401.588175 168.295907 
L 402.023661 168.416553 
L 402.023661 168.416553 
" style="fill:none;stroke:#d62728;stroke-linecap:square;stroke-opacity:0.8;stroke-width:1.5;"/>
   </g>
   <g id="line2d_21">
    <path clip-path="url(#pe14ba1420d)" d="M 147.264561 72.625859 
L 148.135532 72.620371 
L 148.571018 72.351741 
L 149.006503 72.909816 
L 150.31296 72.743605 
L 150.748446 72.639425 
L 151.183931 71.990116 
L 152.054903 72.085493 
L 152.490388 71.739608 
L 153.36136 71.76322 
L 154.232331 71.540259 
L 154.667817 71.080771 
L 155.103302 71.396624 
L 155.538788 71.003724 
L 155.974273 70.944592 
L 156.409759 71.101069 
L 156.845245 71.121573 
L 157.716216 70.994611 
L 158.151702 71.046286 
L 158.587187 70.805099 
L 159.022673 71.054053 
L 159.458159 71.092681 
L 159.893644 70.926159 
L 161.200101 69.694852 
L 161.635587 69.852986 
L 162.942044 69.750774 
L 163.377529 69.586013 
L 163.813015 69.651151 
L 164.248501 70.087027 
L 164.683986 70.077293 
L 165.119472 69.620601 
L 167.732386 70.260383 
L 169.909814 70.29694 
L 170.3453 71.092991 
L 170.780785 71.20618 
L 171.216271 71.496868 
L 171.651757 71.526693 
L 172.522728 70.977006 
L 172.958213 71.494693 
L 173.829185 71.740644 
L 174.26467 71.356547 
L 175.135642 70.992333 
L 175.571127 71.006209 
L 176.006613 72.061157 
L 176.442099 72.095434 
L 177.31307 73.325498 
L 177.748556 73.240581 
L 178.184041 73.354495 
L 178.619527 73.335854 
L 179.055012 72.4786 
L 179.490498 72.490302 
L 179.925984 73.20185 
L 180.796955 72.537731 
L 181.232441 72.080004 
L 181.667926 72.421643 
L 182.103412 72.446704 
L 182.538898 71.55134 
L 182.974383 72.66925 
L 183.409869 72.229024 
L 183.845355 72.743294 
L 184.28084 72.828316 
L 184.716326 72.631141 
L 186.022783 73.017413 
L 186.458268 72.952378 
L 186.893754 73.973876 
L 187.32924 74.235982 
L 187.764725 74.244474 
L 188.200211 73.669415 
L 188.635697 74.394529 
L 189.071182 74.178196 
L 189.506668 74.197976 
L 190.813125 75.366734 
L 191.24861 74.174986 
L 191.684096 74.505751 
L 192.119582 74.092657 
L 192.990553 73.730204 
L 193.426039 73.549391 
L 193.861524 74.065214 
L 194.29701 74.784012 
L 194.732496 74.916152 
L 195.167981 74.835687 
L 195.603467 74.530605 
L 196.474438 74.708829 
L 196.909924 74.784322 
L 197.345409 75.264522 
L 198.651866 75.706819 
L 199.087352 75.626458 
L 199.958323 75.876654 
L 200.393809 75.931126 
L 201.26478 76.243871 
L 201.700266 76.067098 
L 202.571237 76.245425 
L 203.006723 76.376944 
L 203.442208 75.82239 
L 203.877694 76.009416 
L 204.748665 75.997092 
L 205.184151 76.59483 
L 205.619637 76.773572 
L 206.055122 76.699735 
L 206.490608 76.067201 
L 206.926093 76.036859 
L 207.361579 76.332517 
L 207.797065 76.287677 
L 208.23255 76.024328 
L 208.668036 75.095515 
L 209.103522 74.488353 
L 209.539007 74.125278 
L 210.409979 74.140501 
L 210.845464 74.672065 
L 211.28095 74.867273 
L 211.716436 75.757976 
L 212.151921 75.987772 
L 213.022892 76.104275 
L 213.458378 83.504128 
L 213.893864 84.476954 
L 214.329349 84.463491 
L 215.200321 85.393754 
L 215.635806 85.240695 
L 216.071292 84.864779 
L 216.942263 84.706646 
L 217.377749 84.806579 
L 219.119691 84.486895 
L 219.555177 84.160583 
L 219.990663 84.072248 
L 220.426148 83.582004 
L 220.861634 83.824951 
L 221.29712 84.480371 
L 221.732605 84.768781 
L 222.168091 85.666941 
L 222.603577 85.885759 
L 223.474548 84.614168 
L 223.910033 84.790321 
L 224.345519 84.413887 
L 224.781005 84.341189 
L 225.21649 83.667232 
L 225.651976 83.988573 
L 226.522947 83.875384 
L 227.393919 82.29695 
L 228.26489 82.332264 
L 229.571347 81.312319 
L 230.006832 80.715514 
L 230.877804 80.614959 
L 231.313289 80.810891 
L 231.748775 80.833777 
L 232.619746 80.654932 
L 233.055232 80.342393 
L 233.490718 80.498041 
L 233.926203 80.03524 
L 235.23266 79.712967 
L 235.668146 79.176018 
L 236.103631 79.670612 
L 236.539117 79.579895 
L 236.974603 78.702032 
L 237.410088 78.927789 
L 239.152031 78.560779 
L 239.587517 78.912462 
L 240.023002 78.886469 
L 240.458488 79.077016 
L 240.893974 78.328808 
L 242.20043 78.402956 
L 242.635916 77.914265 
L 243.071402 77.834214 
L 243.506887 78.023726 
L 243.942373 77.35764 
L 244.377859 77.08321 
L 244.813344 77.207687 
L 245.24883 77.623784 
L 245.684316 78.198014 
L 247.426258 77.614257 
L 248.297229 77.797037 
L 249.603686 77.452395 
L 250.039172 77.791238 
L 250.910143 76.870916 
L 251.345629 76.518301 
L 253.087571 76.040897 
L 253.958543 76.018943 
L 254.829514 75.822804 
L 256.135971 75.565876 
L 256.571457 75.36342 
L 257.006942 75.553656 
L 258.313399 75.205494 
L 258.748885 75.055645 
L 259.18437 75.154336 
L 259.619856 74.502126 
L 260.055342 74.567161 
L 260.490827 74.474891 
L 260.926313 74.198908 
L 261.361799 74.160074 
L 262.23277 73.592782 
L 262.668256 72.371417 
L 263.539227 71.837264 
L 263.974712 72.38053 
L 264.410198 72.238655 
L 264.845684 71.469943 
L 265.281169 71.461658 
L 265.716655 71.155333 
L 266.152141 71.399627 
L 266.587626 71.019361 
L 267.023112 70.90524 
L 267.458598 71.651895 
L 268.329569 71.450267 
L 268.765055 71.673538 
L 269.20054 71.383679 
L 270.942483 71.195514 
L 271.813454 71.077147 
L 272.24894 69.212789 
L 272.684425 69.24541 
L 273.119911 69.944635 
L 273.555397 69.776353 
L 273.990882 70.00563 
L 274.861854 70.104839 
L 275.732825 70.082781 
L 276.16831 71.232795 
L 276.603796 71.246361 
L 277.039282 72.039824 
L 277.474767 72.275315 
L 277.910253 72.363547 
L 278.345739 72.71523 
L 278.781224 72.924003 
L 279.652196 72.591271 
L 280.087681 72.59676 
L 280.523167 72.981892 
L 280.958652 72.902774 
L 281.394138 72.370485 
L 281.829624 72.172999 
L 282.265109 72.168339 
L 282.700595 71.657073 
L 283.136081 71.457102 
L 285.748995 71.090092 
L 286.18448 71.146324 
L 286.619966 71.466836 
L 287.055451 71.49604 
L 287.926423 71.144356 
L 288.361908 71.684412 
L 289.23288 71.598252 
L 290.103851 71.623416 
L 290.539337 70.964476 
L 291.410308 72.126398 
L 292.281279 70.13922 
L 293.15225 70.682176 
L 294.023222 72.312182 
L 294.458707 72.55865 
L 294.894193 71.297622 
L 295.329679 71.336767 
L 295.765164 71.6142 
L 296.20065 71.546265 
L 297.071621 71.262412 
L 297.507107 71.459276 
L 297.942592 72.440801 
L 299.249049 72.53566 
L 299.684535 72.718233 
L 300.120021 72.747437 
L 300.990992 72.520851 
L 301.426478 72.987899 
L 302.732935 72.920172 
L 303.603906 72.651024 
L 304.039391 72.853377 
L 304.910363 72.906398 
L 305.345848 73.320528 
L 306.21682 72.763592 
L 306.652305 72.977439 
L 307.523277 72.290849 
L 308.394248 73.3692 
L 308.829734 73.373239 
L 309.265219 73.673557 
L 309.700705 72.872949 
L 310.13619 72.943369 
L 310.571676 72.875745 
L 311.442647 72.951757 
L 311.878133 73.798863 
L 312.313619 74.318932 
L 312.749104 74.321728 
L 313.18459 73.899729 
L 313.620076 74.20305 
L 314.055561 74.751391 
L 314.491047 74.872968 
L 314.926532 75.758908 
L 315.362018 75.757769 
L 316.668475 75.312987 
L 317.103961 75.531288 
L 317.539446 75.486343 
L 317.974932 75.667674 
L 318.410418 75.643027 
L 318.845903 76.064819 
L 319.281389 76.254434 
L 319.716875 76.079007 
L 320.15236 76.180908 
L 320.587846 76.73453 
L 321.023331 76.674673 
L 321.458817 76.812509 
L 321.894303 77.735627 
L 324.507217 77.840221 
L 324.942702 77.716262 
L 325.378188 77.86901 
L 325.813674 78.576519 
L 326.249159 78.465505 
L 327.12013 78.603548 
L 327.555616 78.871867 
L 328.426587 78.895996 
L 328.862073 79.323174 
L 329.297559 79.198593 
L 329.733044 79.260003 
L 330.16853 78.295048 
L 330.604016 78.208888 
L 331.039501 78.629645 
L 332.781444 78.501233 
L 333.216929 78.689605 
L 333.652415 78.688776 
L 334.523386 78.259942 
L 334.958872 77.183973 
L 335.394358 76.924663 
L 335.829843 77.200956 
L 336.265329 77.058564 
L 336.700815 76.726245 
L 337.1363 76.577536 
L 337.571786 76.62859 
L 338.878243 76.004134 
L 339.749214 75.651312 
L 340.1847 74.951465 
L 340.620185 74.575963 
L 341.055671 74.027002 
L 343.233099 73.863276 
L 343.668585 73.58284 
L 344.10407 73.702657 
L 344.539556 74.372161 
L 344.975042 74.014264 
L 345.410527 74.002976 
L 345.846013 73.634102 
L 346.281499 73.52433 
L 346.716984 73.596821 
L 347.15247 73.808804 
L 347.587956 74.850289 
L 348.023441 74.69257 
L 348.458927 74.854638 
L 349.329898 74.723534 
L 350.200869 75.279848 
L 350.636355 75.751763 
L 351.071841 74.785565 
L 351.507326 74.498295 
L 351.942812 74.368019 
L 352.378298 73.818021 
L 352.813783 73.525676 
L 353.249269 73.420979 
L 353.684755 72.411908 
L 354.555726 71.547094 
L 355.426697 71.257545 
L 355.862183 70.873966 
L 356.297668 70.642306 
L 356.733154 70.121719 
L 357.16864 71.119088 
L 357.604125 70.839481 
L 358.039611 70.402983 
L 358.475097 69.148479 
L 358.910582 68.759825 
L 359.346068 67.864565 
L 359.781554 67.31581 
L 360.217039 67.118014 
L 360.652525 66.205874 
L 361.08801 65.884015 
L 361.523496 65.266497 
L 361.958982 64.961415 
L 362.394467 64.819437 
L 363.265439 63.144694 
L 364.13641 62.522102 
L 364.571896 62.440291 
L 365.007381 62.238663 
L 365.442867 61.595153 
L 365.878353 60.643557 
L 366.313838 60.905559 
L 366.749324 60.864136 
L 367.184809 60.388389 
L 367.620295 60.785432 
L 368.055781 60.670689 
L 368.926752 60.611557 
L 369.362238 59.347733 
L 369.797723 58.533352 
L 370.233209 58.42182 
L 370.668695 57.77572 
L 371.539666 57.269217 
L 371.975151 56.88512 
L 372.410637 55.93808 
L 373.717094 55.434891 
L 374.15258 54.323919 
L 374.588065 54.090706 
L 375.023551 53.42317 
L 375.459037 53.829118 
L 375.894522 53.290408 
L 376.330008 52.95343 
L 376.765494 53.560385 
L 377.200979 53.724628 
L 377.636465 53.585963 
L 378.07195 53.03462 
L 378.507436 52.936964 
L 378.942922 52.618419 
L 379.378407 51.465506 
L 379.813893 51.184242 
L 380.249379 50.751473 
L 380.684864 49.913273 
L 381.12035 47.994857 
L 382.426807 46.692924 
L 382.862293 46.004883 
L 384.168749 44.846378 
L 384.604235 43.929888 
L 385.039721 43.493494 
L 385.475206 43.432498 
L 385.910692 43.631848 
L 386.346178 42.460398 
L 386.781663 41.854686 
L 387.217149 41.754338 
L 387.652635 41.528374 
L 388.08812 41.431444 
L 388.523606 41.483844 
L 388.959091 41.241932 
L 389.394577 41.39903 
L 389.830063 41.239136 
L 390.701034 40.380225 
L 391.13652 40.544364 
L 391.572005 40.3213 
L 392.007491 39.360384 
L 392.442977 38.732821 
L 392.878462 38.602027 
L 394.184919 37.542834 
L 395.05589 38.764199 
L 395.491376 38.575309 
L 395.926862 37.985752 
L 396.362347 36.727313 
L 397.233319 36.519783 
L 397.668804 36.141795 
L 398.10429 36.32644 
L 398.539776 36.250946 
L 399.846233 35.54354 
L 400.281718 35.093683 
L 400.717204 35.172077 
L 402.023661 34.990125 
L 402.023661 34.990125 
" style="fill:none;stroke:#9467bd;stroke-linecap:square;stroke-opacity:0.8;stroke-width:1.5;"/>
   </g>
   <g id="patch_3">
    <path d="M 61.909375 288.430125 
L 61.909375 22.318125 
" style="fill:none;stroke:#000000;stroke-linecap:square;stroke-linejoin:miter;stroke-width:0.8;"/>
   </g>
   <g id="patch_4">
    <path d="M 419.029375 288.430125 
L 419.029375 22.318125 
" style="fill:none;stroke:#000000;stroke-linecap:square;stroke-linejoin:miter;stroke-width:0.8;"/>
   </g>
   <g id="patch_5">
    <path d="M 61.909375 288.430125 
L 419.029375 288.430125 
" style="fill:none;stroke:#000000;stroke-linecap:square;stroke-linejoin:miter;stroke-width:0.8;"/>
   </g>
   <g id="patch_6">
    <path d="M 61.909375 22.318125 
L 419.029375 22.318125 
" style="fill:none;stroke:#000000;stroke-linecap:square;stroke-linejoin:miter;stroke-width:0.8;"/>
   </g>
   <g id="text_19">
    <!-- Get siblings [branch] -->
    <g transform="translate(177.751563 16.318125)scale(0.12 -0.12)">
     <defs>
      <path d="M 59.515625 10.40625 
L 59.515625 29.984375 
L 43.40625 29.984375 
L 43.40625 38.09375 
L 69.28125 38.09375 
L 69.28125 6.78125 
Q 63.578125 2.734375 56.6875 0.65625 
Q 49.8125 -1.421875 42 -1.421875 
Q 24.90625 -1.421875 15.25 8.5625 
Q 5.609375 18.5625 5.609375 36.375 
Q 5.609375 54.25 15.25 64.234375 
Q 24.90625 74.21875 42 74.21875 
Q 49.125 74.21875 55.546875 72.453125 
Q 61.96875 70.703125 67.390625 67.28125 
L 67.390625 56.78125 
Q 61.921875 61.421875 55.765625 63.765625 
Q 49.609375 66.109375 42.828125 66.109375 
Q 29.4375 66.109375 22.71875 58.640625 
Q 16.015625 51.171875 16.015625 36.375 
Q 16.015625 21.625 22.71875 14.15625 
Q 29.4375 6.6875 42.828125 6.6875 
Q 48.046875 6.6875 52.140625 7.59375 
Q 56.25 8.5 59.515625 10.40625 
z
" id="DejaVuSans-71"/>
      <path d="M 45.40625 27.984375 
Q 45.40625 37.75 41.375 43.109375 
Q 37.359375 48.484375 30.078125 48.484375 
Q 22.859375 48.484375 18.828125 43.109375 
Q 14.796875 37.75 14.796875 27.984375 
Q 14.796875 18.265625 18.828125 12.890625 
Q 22.859375 7.515625 30.078125 7.515625 
Q 37.359375 7.515625 41.375 12.890625 
Q 45.40625 18.265625 45.40625 27.984375 
z
M 54.390625 6.78125 
Q 54.390625 -7.171875 48.1875 -13.984375 
Q 42 -20.796875 29.203125 -20.796875 
Q 24.46875 -20.796875 20.265625 -20.09375 
Q 16.0625 -19.390625 12.109375 -17.921875 
L 12.109375 -9.1875 
Q 16.0625 -11.328125 19.921875 -12.34375 
Q 23.78125 -13.375 27.78125 -13.375 
Q 36.625 -13.375 41.015625 -8.765625 
Q 45.40625 -4.15625 45.40625 5.171875 
L 45.40625 9.625 
Q 42.625 4.78125 38.28125 2.390625 
Q 33.9375 0 27.875 0 
Q 17.828125 0 11.671875 7.65625 
Q 5.515625 15.328125 5.515625 27.984375 
Q 5.515625 40.671875 11.671875 48.328125 
Q 17.828125 56 27.875 56 
Q 33.9375 56 38.28125 53.609375 
Q 42.625 51.21875 45.40625 46.390625 
L 45.40625 54.6875 
L 54.390625 54.6875 
z
" id="DejaVuSans-103"/>
      <path d="M 8.59375 75.984375 
L 29.296875 75.984375 
L 29.296875 69 
L 17.578125 69 
L 17.578125 -6.203125 
L 29.296875 -6.203125 
L 29.296875 -13.1875 
L 8.59375 -13.1875 
z
" id="DejaVuSans-91"/>
      <path d="M 41.109375 46.296875 
Q 39.59375 47.171875 37.8125 47.578125 
Q 36.03125 48 33.890625 48 
Q 26.265625 48 22.1875 43.046875 
Q 18.109375 38.09375 18.109375 28.8125 
L 18.109375 0 
L 9.078125 0 
L 9.078125 54.6875 
L 18.109375 54.6875 
L 18.109375 46.1875 
Q 20.953125 51.171875 25.484375 53.578125 
Q 30.03125 56 36.53125 56 
Q 37.453125 56 38.578125 55.875 
Q 39.703125 55.765625 41.0625 55.515625 
z
" id="DejaVuSans-114"/>
      <path d="M 54.890625 33.015625 
L 54.890625 0 
L 45.90625 0 
L 45.90625 32.71875 
Q 45.90625 40.484375 42.875 44.328125 
Q 39.84375 48.1875 33.796875 48.1875 
Q 26.515625 48.1875 22.3125 43.546875 
Q 18.109375 38.921875 18.109375 30.90625 
L 18.109375 0 
L 9.078125 0 
L 9.078125 75.984375 
L 18.109375 75.984375 
L 18.109375 46.1875 
Q 21.34375 51.125 25.703125 53.5625 
Q 30.078125 56 35.796875 56 
Q 45.21875 56 50.046875 50.171875 
Q 54.890625 44.34375 54.890625 33.015625 
z
" id="DejaVuSans-104"/>
      <path d="M 30.421875 75.984375 
L 30.421875 -13.1875 
L 9.71875 -13.1875 
L 9.71875 -6.203125 
L 21.390625 -6.203125 
L 21.390625 69 
L 9.71875 69 
L 9.71875 75.984375 
z
" id="DejaVuSans-93"/>
     </defs>
     <use xlink:href="#DejaVuSans-71"/>
     <use x="77.490234" xlink:href="#DejaVuSans-101"/>
     <use x="139.013672" xlink:href="#DejaVuSans-116"/>
     <use x="178.222656" xlink:href="#DejaVuSans-32"/>
     <use x="210.009766" xlink:href="#DejaVuSans-115"/>
     <use x="262.109375" xlink:href="#DejaVuSans-105"/>
     <use x="289.892578" xlink:href="#DejaVuSans-98"/>
     <use x="353.369141" xlink:href="#DejaVuSans-108"/>
     <use x="381.152344" xlink:href="#DejaVuSans-105"/>
     <use x="408.935547" xlink:href="#DejaVuSans-110"/>
     <use x="472.314453" xlink:href="#DejaVuSans-103"/>
     <use x="535.791016" xlink:href="#DejaVuSans-115"/>
     <use x="587.890625" xlink:href="#DejaVuSans-32"/>
     <use x="619.677734" xlink:href="#DejaVuSans-91"/>
     <use x="658.691406" xlink:href="#DejaVuSans-98"/>
     <use x="722.167969" xlink:href="#DejaVuSans-114"/>
     <use x="763.28125" xlink:href="#DejaVuSans-97"/>
     <use x="824.560547" xlink:href="#DejaVuSans-110"/>
     <use x="887.939453" xlink:href="#DejaVuSans-99"/>
     <use x="942.919922" xlink:href="#DejaVuSans-104"/>
     <use x="1006.298828" xlink:href="#DejaVuSans-93"/>
    </g>
   </g>
   <g id="legend_1">
    <g id="patch_7">
     <path d="M 92.911719 365.802375 
L 380.507031 365.802375 
Q 382.507031 365.802375 382.507031 363.802375 
L 382.507031 335.446125 
Q 382.507031 333.446125 380.507031 333.446125 
L 92.911719 333.446125 
Q 90.911719 333.446125 90.911719 335.446125 
L 90.911719 363.802375 
Q 90.911719 365.802375 92.911719 365.802375 
z
" style="fill:#4c4c4c;opacity:0.5;stroke:#4c4c4c;stroke-linejoin:miter;"/>
    </g>
    <g id="patch_8">
     <path d="M 90.911719 363.802375 
L 378.507031 363.802375 
Q 380.507031 363.802375 380.507031 361.802375 
L 380.507031 333.446125 
Q 380.507031 331.446125 378.507031 331.446125 
L 90.911719 331.446125 
Q 88.911719 331.446125 88.911719 333.446125 
L 88.911719 361.802375 
Q 88.911719 363.802375 90.911719 363.802375 
z
" style="fill:#ffffff;stroke:#cccccc;stroke-linejoin:miter;"/>
    </g>
    <g id="line2d_22">
     <path d="M 92.911719 339.544562 
L 112.911719 339.544562 
" style="fill:none;stroke:#1f77b4;stroke-linecap:square;stroke-opacity:0.8;stroke-width:1.5;"/>
    </g>
    <g id="line2d_23"/>
    <g id="text_20">
     <!-- MPTT -->
     <g transform="translate(120.911719 343.044562)scale(0.1 -0.1)">
      <defs>
       <path d="M 9.8125 72.90625 
L 24.515625 72.90625 
L 43.109375 23.296875 
L 61.8125 72.90625 
L 76.515625 72.90625 
L 76.515625 0 
L 66.890625 0 
L 66.890625 64.015625 
L 48.09375 14.015625 
L 38.1875 14.015625 
L 19.390625 64.015625 
L 19.390625 0 
L 9.8125 0 
z
" id="DejaVuSans-77"/>
       <path d="M 19.671875 64.796875 
L 19.671875 37.40625 
L 32.078125 37.40625 
Q 38.96875 37.40625 42.71875 40.96875 
Q 46.484375 44.53125 46.484375 51.125 
Q 46.484375 57.671875 42.71875 61.234375 
Q 38.96875 64.796875 32.078125 64.796875 
z
M 9.8125 72.90625 
L 32.078125 72.90625 
Q 44.34375 72.90625 50.609375 67.359375 
Q 56.890625 61.8125 56.890625 51.125 
Q 56.890625 40.328125 50.609375 34.8125 
Q 44.34375 29.296875 32.078125 29.296875 
L 19.671875 29.296875 
L 19.671875 0 
L 9.8125 0 
z
" id="DejaVuSans-80"/>
       <path d="M -0.296875 72.90625 
L 61.375 72.90625 
L 61.375 64.59375 
L 35.5 64.59375 
L 35.5 0 
L 25.59375 0 
L 25.59375 64.59375 
L -0.296875 64.59375 
z
" id="DejaVuSans-84"/>
      </defs>
      <use xlink:href="#DejaVuSans-77"/>
      <use x="86.279297" xlink:href="#DejaVuSans-80"/>
      <use x="146.582031" xlink:href="#DejaVuSans-84"/>
      <use x="205.916016" xlink:href="#DejaVuSans-84"/>
     </g>
    </g>
    <g id="line2d_24">
     <path d="M 92.911719 354.222687 
L 112.911719 354.222687 
" style="fill:none;stroke:#ff7f0e;stroke-linecap:square;stroke-opacity:0.8;stroke-width:1.5;"/>
    </g>
    <g id="line2d_25"/>
    <g id="text_21">
     <!-- tree -->
     <g transform="translate(120.911719 357.722687)scale(0.1 -0.1)">
      <use xlink:href="#DejaVuSans-116"/>
      <use x="39.208984" xlink:href="#DejaVuSans-114"/>
      <use x="78.072266" xlink:href="#DejaVuSans-101"/>
      <use x="139.595703" xlink:href="#DejaVuSans-101"/>
     </g>
    </g>
    <g id="line2d_26">
     <path d="M 167.610156 339.544562 
L 187.610156 339.544562 
" style="fill:none;stroke:#2ca02c;stroke-linecap:square;stroke-opacity:0.8;stroke-width:1.5;"/>
    </g>
    <g id="line2d_27"/>
    <g id="text_22">
     <!-- treebeard AL -->
     <g transform="translate(195.610156 343.044562)scale(0.1 -0.1)">
      <defs>
       <path d="M 9.8125 72.90625 
L 19.671875 72.90625 
L 19.671875 8.296875 
L 55.171875 8.296875 
L 55.171875 0 
L 9.8125 0 
z
" id="DejaVuSans-76"/>
      </defs>
      <use xlink:href="#DejaVuSans-116"/>
      <use x="39.208984" xlink:href="#DejaVuSans-114"/>
      <use x="78.072266" xlink:href="#DejaVuSans-101"/>
      <use x="139.595703" xlink:href="#DejaVuSans-101"/>
      <use x="201.119141" xlink:href="#DejaVuSans-98"/>
      <use x="264.595703" xlink:href="#DejaVuSans-101"/>
      <use x="326.119141" xlink:href="#DejaVuSans-97"/>
      <use x="387.398438" xlink:href="#DejaVuSans-114"/>
      <use x="426.761719" xlink:href="#DejaVuSans-100"/>
      <use x="490.238281" xlink:href="#DejaVuSans-32"/>
      <use x="522.025391" xlink:href="#DejaVuSans-65"/>
      <use x="590.433594" xlink:href="#DejaVuSans-76"/>
     </g>
    </g>
    <g id="line2d_28">
     <path d="M 167.610156 354.222687 
L 187.610156 354.222687 
" style="fill:none;stroke:#d62728;stroke-linecap:square;stroke-opacity:0.8;stroke-width:1.5;"/>
    </g>
    <g id="line2d_29"/>
    <g id="text_23">
     <!-- treebeard MP -->
     <g transform="translate(195.610156 357.722687)scale(0.1 -0.1)">
      <use xlink:href="#DejaVuSans-116"/>
      <use x="39.208984" xlink:href="#DejaVuSans-114"/>
      <use x="78.072266" xlink:href="#DejaVuSans-101"/>
      <use x="139.595703" xlink:href="#DejaVuSans-101"/>
      <use x="201.119141" xlink:href="#DejaVuSans-98"/>
      <use x="264.595703" xlink:href="#DejaVuSans-101"/>
      <use x="326.119141" xlink:href="#DejaVuSans-97"/>
      <use x="387.398438" xlink:href="#DejaVuSans-114"/>
      <use x="426.761719" xlink:href="#DejaVuSans-100"/>
      <use x="490.238281" xlink:href="#DejaVuSans-32"/>
      <use x="522.025391" xlink:href="#DejaVuSans-77"/>
      <use x="608.304688" xlink:href="#DejaVuSans-80"/>
     </g>
    </g>
    <g id="line2d_30">
     <path d="M 282.472656 339.544562 
L 302.472656 339.544562 
" style="fill:none;stroke:#9467bd;stroke-linecap:square;stroke-opacity:0.8;stroke-width:1.5;"/>
    </g>
    <g id="line2d_31"/>
    <g id="text_24">
     <!-- treebeard NS -->
     <g transform="translate(310.472656 343.044562)scale(0.1 -0.1)">
      <defs>
       <path d="M 9.8125 72.90625 
L 23.09375 72.90625 
L 55.421875 11.921875 
L 55.421875 72.90625 
L 64.984375 72.90625 
L 64.984375 0 
L 51.703125 0 
L 19.390625 60.984375 
L 19.390625 0 
L 9.8125 0 
z
" id="DejaVuSans-78"/>
       <path d="M 53.515625 70.515625 
L 53.515625 60.890625 
Q 47.90625 63.578125 42.921875 64.890625 
Q 37.9375 66.21875 33.296875 66.21875 
Q 25.25 66.21875 20.875 63.09375 
Q 16.5 59.96875 16.5 54.203125 
Q 16.5 49.359375 19.40625 46.890625 
Q 22.3125 44.4375 30.421875 42.921875 
L 36.375 41.703125 
Q 47.40625 39.59375 52.65625 34.296875 
Q 57.90625 29 57.90625 20.125 
Q 57.90625 9.515625 50.796875 4.046875 
Q 43.703125 -1.421875 29.984375 -1.421875 
Q 24.8125 -1.421875 18.96875 -0.25 
Q 13.140625 0.921875 6.890625 3.21875 
L 6.890625 13.375 
Q 12.890625 10.015625 18.65625 8.296875 
Q 24.421875 6.59375 29.984375 6.59375 
Q 38.421875 6.59375 43.015625 9.90625 
Q 47.609375 13.234375 47.609375 19.390625 
Q 47.609375 24.75 44.3125 27.78125 
Q 41.015625 30.8125 33.5 32.328125 
L 27.484375 33.5 
Q 16.453125 35.6875 11.515625 40.375 
Q 6.59375 45.0625 6.59375 53.421875 
Q 6.59375 63.09375 13.40625 68.65625 
Q 20.21875 74.21875 32.171875 74.21875 
Q 37.3125 74.21875 42.625 73.28125 
Q 47.953125 72.359375 53.515625 70.515625 
z
" id="DejaVuSans-83"/>
      </defs>
      <use xlink:href="#DejaVuSans-116"/>
      <use x="39.208984" xlink:href="#DejaVuSans-114"/>
      <use x="78.072266" xlink:href="#DejaVuSans-101"/>
      <use x="139.595703" xlink:href="#DejaVuSans-101"/>
      <use x="201.119141" xlink:href="#DejaVuSans-98"/>
      <use x="264.595703" xlink:href="#DejaVuSans-101"/>
      <use x="326.119141" xlink:href="#DejaVuSans-97"/>
      <use x="387.398438" xlink:href="#DejaVuSans-114"/>
      <use x="426.761719" xlink:href="#DejaVuSans-100"/>
      <use x="490.238281" xlink:href="#DejaVuSans-32"/>
      <use x="522.025391" xlink:href="#DejaVuSans-78"/>
      <use x="596.830078" xlink:href="#DejaVuSans-83"/>
     </g>
    </g>
   </g>
  </g>
 </g>
 <defs>
  <clipPath id="pe14ba1420d">
   <rect height="266.112" width="357.12" x="61.909375" y="22.318125"/>
  </clipPath>
 </defs>
</svg>
