<?xml version="1.0" encoding="utf-8" standalone="no"?>
<!DOCTYPE svg PUBLIC "-//W3C//DTD SVG 1.1//EN"
  "http://www.w3.org/Graphics/SVG/1.1/DTD/svg11.dtd">
<svg xmlns:xlink="http://www.w3.org/1999/xlink" width="426.358281pt" height="371.647687pt" viewBox="0 0 426.358281 371.647687" xmlns="http://www.w3.org/2000/svg" version="1.1">
 <metadata>
  <rdf:RDF xmlns:dc="http://purl.org/dc/elements/1.1/" xmlns:cc="http://creativecommons.org/ns#" xmlns:rdf="http://www.w3.org/1999/02/22-rdf-syntax-ns#">
   <cc:Work>
    <dc:type rdf:resource="http://purl.org/dc/dcmitype/StillImage"/>
    <dc:date>2026-06-29T09:13:53.146929</dc:date>
    <dc:format>image/svg+xml</dc:format>
    <dc:creator>
     <cc:Agent>
      <dc:title>Matplotlib v3.11.0, https://matplotlib.org/</dc:title>
     </cc:Agent>
    </dc:creator>
   </cc:Work>
  </rdf:RDF>
 </metadata>
 <defs>
  <style type="text/css">*{stroke-linejoin: round; stroke-linecap: butt}</style>
 </defs>
 <g id="figure_1">
  <g id="patch_1">
   <path d="M 0 371.647687 
L 426.358281 371.647687 
L 426.358281 0 
L 0 0 
z
" style="fill: #ffffff"/>
  </g>
  <g id="axes_1">
   <g id="patch_2">
    <path d="M 62.038281 288.430125 
L 419.158281 288.430125 
L 419.158281 22.318125 
L 62.038281 22.318125 
z
" style="fill: #ffffff"/>
   </g>
   <g id="matplotlib.axis_1">
    <g id="xtick_1">
     <g id="line2d_1">
      <defs>
       <path id="m975fa1c947" d="M 0 0 
L 0 3.5 
" style="stroke: #000000; stroke-width: 0.8"/>
      </defs>
      <g>
       <use xlink:href="#m975fa1c947" x="62.038281" y="288.430125" style="stroke: #000000; stroke-width: 0.8"/>
      </g>
     </g>
     <g id="text_1">
      <!-- 0 -->
      <g transform="translate(58.857031 303.027781) scale(0.1 -0.1)">
       <defs>
        <path id="DejaVuSans-13" d="M 2034 4250 
Q 1547 4250 1301 3770 
Q 1056 3291 1056 2328 
Q 1056 1369 1301 889 
Q 1547 409 2034 409 
Q 2525 409 2770 889 
Q 3016 1369 3016 2328 
Q 3016 3291 2770 3770 
Q 2525 4250 2034 4250 
z
M 2034 4750 
Q 2819 4750 3233 4129 
Q 3647 3509 3647 2328 
Q 3647 1150 3233 529 
Q 2819 -91 2034 -91 
Q 1250 -91 836 529 
Q 422 1150 422 2328 
Q 422 3509 836 4129 
Q 1250 4750 2034 4750 
z
" transform="scale(0.015625)"/>
       </defs>
       <use xlink:href="#DejaVuSans-13"/>
      </g>
     </g>
    </g>
    <g id="xtick_2">
     <g id="line2d_2">
      <g>
       <use xlink:href="#m975fa1c947" x="105.586845" y="288.430125" style="stroke: #000000; stroke-width: 0.8"/>
      </g>
     </g>
     <g id="text_2">
      <!-- 500  -->
      <g transform="translate(94.454033 303.027781) scale(0.1 -0.1)">
       <defs>
        <path id="DejaVuSans-18" d="M 691 4666 
L 3169 4666 
L 3169 4134 
L 1269 4134 
L 1269 2991 
Q 1406 3038 1543 3061 
Q 1681 3084 1819 3084 
Q 2600 3084 3056 2656 
Q 3513 2228 3513 1497 
Q 3513 744 3044 326 
Q 2575 -91 1722 -91 
Q 1428 -91 1123 -41 
Q 819 9 494 109 
L 494 744 
Q 775 591 1075 516 
Q 1375 441 1709 441 
Q 2250 441 2565 725 
Q 2881 1009 2881 1497 
Q 2881 1984 2565 2268 
Q 2250 2553 1709 2553 
Q 1456 2553 1204 2497 
Q 953 2441 691 2322 
L 691 4666 
z
" transform="scale(0.015625)"/>
        <path id="DejaVuSans-3" transform="scale(0.015625)"/>
       </defs>
       <use xlink:href="#DejaVuSans-18"/>
       <use xlink:href="#DejaVuSans-13" transform="translate(63.625 0)"/>
       <use xlink:href="#DejaVuSans-13" transform="translate(127.25 0)"/>
       <use xlink:href="#DejaVuSans-3" transform="translate(190.875 0)"/>
      </g>
     </g>
    </g>
    <g id="xtick_3">
     <g id="line2d_3">
      <g>
       <use xlink:href="#m975fa1c947" x="149.135409" y="288.430125" style="stroke: #000000; stroke-width: 0.8"/>
      </g>
     </g>
     <g id="text_3">
      <!-- 1 k -->
      <g transform="translate(141.469784 303.028562) scale(0.1 -0.1)">
       <defs>
        <path id="DejaVuSans-14" d="M 794 531 
L 1825 531 
L 1825 4091 
L 703 3866 
L 703 4441 
L 1819 4666 
L 2450 4666 
L 2450 531 
L 3481 531 
L 3481 0 
L 794 0 
L 794 531 
z
" transform="scale(0.015625)"/>
        <path id="DejaVuSans-4e" d="M 581 4863 
L 1159 4863 
L 1159 1991 
L 2875 3500 
L 3609 3500 
L 1753 1863 
L 3688 0 
L 2938 0 
L 1159 1709 
L 1159 0 
L 581 0 
L 581 4863 
z
" transform="scale(0.015625)"/>
       </defs>
       <use xlink:href="#DejaVuSans-14"/>
       <use xlink:href="#DejaVuSans-3" transform="translate(63.625 0)"/>
       <use xlink:href="#DejaVuSans-4e" transform="translate(95.40625 0)"/>
      </g>
     </g>
    </g>
    <g id="xtick_4">
     <g id="line2d_4">
      <g>
       <use xlink:href="#m975fa1c947" x="192.683974" y="288.430125" style="stroke: #000000; stroke-width: 0.8"/>
      </g>
     </g>
     <g id="text_4">
      <!-- 1.5 k -->
      <g transform="translate(180.248036 303.028562) scale(0.1 -0.1)">
       <defs>
        <path id="DejaVuSans-11" d="M 684 794 
L 1344 794 
L 1344 0 
L 684 0 
L 684 794 
z
" transform="scale(0.015625)"/>
       </defs>
       <use xlink:href="#DejaVuSans-14"/>
       <use xlink:href="#DejaVuSans-11" transform="translate(63.625 0)"/>
       <use xlink:href="#DejaVuSans-18" transform="translate(95.40625 0)"/>
       <use xlink:href="#DejaVuSans-3" transform="translate(159.03125 0)"/>
       <use xlink:href="#DejaVuSans-4e" transform="translate(190.8125 0)"/>
      </g>
     </g>
    </g>
    <g id="xtick_5">
     <g id="line2d_5">
      <g>
       <use xlink:href="#m975fa1c947" x="236.232538" y="288.430125" style="stroke: #000000; stroke-width: 0.8"/>
      </g>
     </g>
     <g id="text_5">
      <!-- 2 k -->
      <g transform="translate(228.566913 303.028562) scale(0.1 -0.1)">
       <defs>
        <path id="DejaVuSans-15" d="M 1228 531 
L 3431 531 
L 3431 0 
L 469 0 
L 469 531 
Q 828 903 1448 1529 
Q 2069 2156 2228 2338 
Q 2531 2678 2651 2914 
Q 2772 3150 2772 3378 
Q 2772 3750 2511 3984 
Q 2250 4219 1831 4219 
Q 1534 4219 1204 4116 
Q 875 4013 500 3803 
L 500 4441 
Q 881 4594 1212 4672 
Q 1544 4750 1819 4750 
Q 2544 4750 2975 4387 
Q 3406 4025 3406 3419 
Q 3406 3131 3298 2873 
Q 3191 2616 2906 2266 
Q 2828 2175 2409 1742 
Q 1991 1309 1228 531 
z
" transform="scale(0.015625)"/>
       </defs>
       <use xlink:href="#DejaVuSans-15"/>
       <use xlink:href="#DejaVuSans-3" transform="translate(63.625 0)"/>
       <use xlink:href="#DejaVuSans-4e" transform="translate(95.40625 0)"/>
      </g>
     </g>
    </g>
    <g id="xtick_6">
     <g id="line2d_6">
      <g>
       <use xlink:href="#m975fa1c947" x="279.781102" y="288.430125" style="stroke: #000000; stroke-width: 0.8"/>
      </g>
     </g>
     <g id="text_6">
      <!-- 2.5 k -->
      <g transform="translate(267.345164 303.028562) scale(0.1 -0.1)">
       <use xlink:href="#DejaVuSans-15"/>
       <use xlink:href="#DejaVuSans-11" transform="translate(63.625 0)"/>
       <use xlink:href="#DejaVuSans-18" transform="translate(95.40625 0)"/>
       <use xlink:href="#DejaVuSans-3" transform="translate(159.03125 0)"/>
       <use xlink:href="#DejaVuSans-4e" transform="translate(190.8125 0)"/>
      </g>
     </g>
    </g>
    <g id="xtick_7">
     <g id="line2d_7">
      <g>
       <use xlink:href="#m975fa1c947" x="323.329666" y="288.430125" style="stroke: #000000; stroke-width: 0.8"/>
      </g>
     </g>
     <g id="text_7">
      <!-- 3 k -->
      <g transform="translate(315.664041 303.028562) scale(0.1 -0.1)">
       <defs>
        <path id="DejaVuSans-16" d="M 2597 2516 
Q 3050 2419 3304 2112 
Q 3559 1806 3559 1356 
Q 3559 666 3084 287 
Q 2609 -91 1734 -91 
Q 1441 -91 1130 -33 
Q 819 25 488 141 
L 488 750 
Q 750 597 1062 519 
Q 1375 441 1716 441 
Q 2309 441 2620 675 
Q 2931 909 2931 1356 
Q 2931 1769 2642 2001 
Q 2353 2234 1838 2234 
L 1294 2234 
L 1294 2753 
L 1863 2753 
Q 2328 2753 2575 2939 
Q 2822 3125 2822 3475 
Q 2822 3834 2567 4026 
Q 2313 4219 1838 4219 
Q 1578 4219 1281 4162 
Q 984 4106 628 3988 
L 628 4550 
Q 988 4650 1302 4700 
Q 1616 4750 1894 4750 
Q 2613 4750 3031 4423 
Q 3450 4097 3450 3541 
Q 3450 3153 3228 2886 
Q 3006 2619 2597 2516 
z
" transform="scale(0.015625)"/>
       </defs>
       <use xlink:href="#DejaVuSans-16"/>
       <use xlink:href="#DejaVuSans-3" transform="translate(63.625 0)"/>
       <use xlink:href="#DejaVuSans-4e" transform="translate(95.40625 0)"/>
      </g>
     </g>
    </g>
    <g id="xtick_8">
     <g id="line2d_8">
      <g>
       <use xlink:href="#m975fa1c947" x="366.87823" y="288.430125" style="stroke: #000000; stroke-width: 0.8"/>
      </g>
     </g>
     <g id="text_8">
      <!-- 3.5 k -->
      <g transform="translate(354.442293 303.028562) scale(0.1 -0.1)">
       <use xlink:href="#DejaVuSans-16"/>
       <use xlink:href="#DejaVuSans-11" transform="translate(63.625 0)"/>
       <use xlink:href="#DejaVuSans-18" transform="translate(95.40625 0)"/>
       <use xlink:href="#DejaVuSans-3" transform="translate(159.03125 0)"/>
       <use xlink:href="#DejaVuSans-4e" transform="translate(190.8125 0)"/>
      </g>
     </g>
    </g>
    <g id="xtick_9">
     <g id="line2d_9">
      <g>
       <use xlink:href="#m975fa1c947" x="410.426794" y="288.430125" style="stroke: #000000; stroke-width: 0.8"/>
      </g>
     </g>
     <g id="text_9">
      <!-- 4 k -->
      <g transform="translate(402.761169 303.028562) scale(0.1 -0.1)">
       <defs>
        <path id="DejaVuSans-17" d="M 2419 4116 
L 825 1625 
L 2419 1625 
L 2419 4116 
z
M 2253 4666 
L 3047 4666 
L 3047 1625 
L 3713 1625 
L 3713 1100 
L 3047 1100 
L 3047 0 
L 2419 0 
L 2419 1100 
L 313 1100 
L 313 1709 
L 2253 4666 
z
" transform="scale(0.015625)"/>
       </defs>
       <use xlink:href="#DejaVuSans-17"/>
       <use xlink:href="#DejaVuSans-3" transform="translate(63.625 0)"/>
       <use xlink:href="#DejaVuSans-4e" transform="translate(95.40625 0)"/>
      </g>
     </g>
    </g>
    <g id="text_10">
     <!-- Amount of objects in table -->
     <g transform="translate(174.539688 317.029344) scale(0.1 -0.1)">
      <defs>
       <path id="DejaVuSans-24" d="M 2188 4044 
L 1331 1722 
L 3047 1722 
L 2188 4044 
z
M 1831 4666 
L 2547 4666 
L 4325 0 
L 3669 0 
L 3244 1197 
L 1141 1197 
L 716 0 
L 50 0 
L 1831 4666 
z
" transform="scale(0.015625)"/>
       <path id="DejaVuSans-50" d="M 3328 2828 
Q 3544 3216 3844 3400 
Q 4144 3584 4550 3584 
Q 5097 3584 5394 3201 
Q 5691 2819 5691 2113 
L 5691 0 
L 5113 0 
L 5113 2094 
Q 5113 2597 4934 2840 
Q 4756 3084 4391 3084 
Q 3944 3084 3684 2787 
Q 3425 2491 3425 1978 
L 3425 0 
L 2847 0 
L 2847 2094 
Q 2847 2600 2669 2842 
Q 2491 3084 2119 3084 
Q 1678 3084 1418 2786 
Q 1159 2488 1159 1978 
L 1159 0 
L 581 0 
L 581 3500 
L 1159 3500 
L 1159 2956 
Q 1356 3278 1631 3431 
Q 1906 3584 2284 3584 
Q 2666 3584 2933 3390 
Q 3200 3197 3328 2828 
z
" transform="scale(0.015625)"/>
       <path id="DejaVuSans-52" d="M 1959 3097 
Q 1497 3097 1228 2736 
Q 959 2375 959 1747 
Q 959 1119 1226 758 
Q 1494 397 1959 397 
Q 2419 397 2687 759 
Q 2956 1122 2956 1747 
Q 2956 2369 2687 2733 
Q 2419 3097 1959 3097 
z
M 1959 3584 
Q 2709 3584 3137 3096 
Q 3566 2609 3566 1747 
Q 3566 888 3137 398 
Q 2709 -91 1959 -91 
Q 1206 -91 779 398 
Q 353 888 353 1747 
Q 353 2609 779 3096 
Q 1206 3584 1959 3584 
z
" transform="scale(0.015625)"/>
       <path id="DejaVuSans-58" d="M 544 1381 
L 544 3500 
L 1119 3500 
L 1119 1403 
Q 1119 906 1312 657 
Q 1506 409 1894 409 
Q 2359 409 2629 706 
Q 2900 1003 2900 1516 
L 2900 3500 
L 3475 3500 
L 3475 0 
L 2900 0 
L 2900 538 
Q 2691 219 2414 64 
Q 2138 -91 1772 -91 
Q 1169 -91 856 284 
Q 544 659 544 1381 
z
M 1991 3584 
L 1991 3584 
z
" transform="scale(0.015625)"/>
       <path id="DejaVuSans-51" d="M 3513 2113 
L 3513 0 
L 2938 0 
L 2938 2094 
Q 2938 2591 2744 2837 
Q 2550 3084 2163 3084 
Q 1697 3084 1428 2787 
Q 1159 2491 1159 1978 
L 1159 0 
L 581 0 
L 581 3500 
L 1159 3500 
L 1159 2956 
Q 1366 3272 1645 3428 
Q 1925 3584 2291 3584 
Q 2894 3584 3203 3211 
Q 3513 2838 3513 2113 
z
" transform="scale(0.015625)"/>
       <path id="DejaVuSans-57" d="M 1172 4494 
L 1172 3500 
L 2356 3500 
L 2356 3053 
L 1172 3053 
L 1172 1153 
Q 1172 725 1289 603 
Q 1406 481 1766 481 
L 2356 481 
L 2356 0 
L 1766 0 
Q 1100 0 847 248 
Q 594 497 594 1153 
L 594 3053 
L 172 3053 
L 172 3500 
L 594 3500 
L 594 4494 
L 1172 4494 
z
" transform="scale(0.015625)"/>
       <path id="DejaVuSans-49" d="M 2375 4863 
L 2375 4384 
L 1825 4384 
Q 1516 4384 1395 4259 
Q 1275 4134 1275 3809 
L 1275 3500 
L 2222 3500 
L 2222 3053 
L 1275 3053 
L 1275 0 
L 697 0 
L 697 3053 
L 147 3053 
L 147 3500 
L 697 3500 
L 697 3744 
Q 697 4328 969 4595 
Q 1241 4863 1831 4863 
L 2375 4863 
z
" transform="scale(0.015625)"/>
       <path id="DejaVuSans-45" d="M 3116 1747 
Q 3116 2381 2855 2742 
Q 2594 3103 2138 3103 
Q 1681 3103 1420 2742 
Q 1159 2381 1159 1747 
Q 1159 1113 1420 752 
Q 1681 391 2138 391 
Q 2594 391 2855 752 
Q 3116 1113 3116 1747 
z
M 1159 2969 
Q 1341 3281 1617 3432 
Q 1894 3584 2278 3584 
Q 2916 3584 3314 3078 
Q 3713 2572 3713 1747 
Q 3713 922 3314 415 
Q 2916 -91 2278 -91 
Q 1894 -91 1617 61 
Q 1341 213 1159 525 
L 1159 0 
L 581 0 
L 581 4863 
L 1159 4863 
L 1159 2969 
z
" transform="scale(0.015625)"/>
       <path id="DejaVuSans-4d" d="M 603 3500 
L 1178 3500 
L 1178 -63 
Q 1178 -731 923 -1031 
Q 669 -1331 103 -1331 
L -116 -1331 
L -116 -844 
L 38 -844 
Q 366 -844 484 -692 
Q 603 -541 603 -63 
L 603 3500 
z
M 603 4863 
L 1178 4863 
L 1178 4134 
L 603 4134 
L 603 4863 
z
" transform="scale(0.015625)"/>
       <path id="DejaVuSans-48" d="M 3597 1894 
L 3597 1613 
L 953 1613 
Q 991 1019 1311 708 
Q 1631 397 2203 397 
Q 2534 397 2845 478 
Q 3156 559 3463 722 
L 3463 178 
Q 3153 47 2828 -22 
Q 2503 -91 2169 -91 
Q 1331 -91 842 396 
Q 353 884 353 1716 
Q 353 2575 817 3079 
Q 1281 3584 2069 3584 
Q 2775 3584 3186 3129 
Q 3597 2675 3597 1894 
z
M 3022 2063 
Q 3016 2534 2758 2815 
Q 2500 3097 2075 3097 
Q 1594 3097 1305 2825 
Q 1016 2553 972 2059 
L 3022 2063 
z
" transform="scale(0.015625)"/>
       <path id="DejaVuSans-46" d="M 3122 3366 
L 3122 2828 
Q 2878 2963 2633 3030 
Q 2388 3097 2138 3097 
Q 1578 3097 1268 2742 
Q 959 2388 959 1747 
Q 959 1106 1268 751 
Q 1578 397 2138 397 
Q 2388 397 2633 464 
Q 2878 531 3122 666 
L 3122 134 
Q 2881 22 2623 -34 
Q 2366 -91 2075 -91 
Q 1284 -91 818 406 
Q 353 903 353 1747 
Q 353 2603 823 3093 
Q 1294 3584 2113 3584 
Q 2378 3584 2631 3529 
Q 2884 3475 3122 3366 
z
" transform="scale(0.015625)"/>
       <path id="DejaVuSans-56" d="M 2834 3397 
L 2834 2853 
Q 2591 2978 2328 3040 
Q 2066 3103 1784 3103 
Q 1356 3103 1142 2972 
Q 928 2841 928 2578 
Q 928 2378 1081 2264 
Q 1234 2150 1697 2047 
L 1894 2003 
Q 2506 1872 2764 1633 
Q 3022 1394 3022 966 
Q 3022 478 2636 193 
Q 2250 -91 1575 -91 
Q 1294 -91 989 -36 
Q 684 19 347 128 
L 347 722 
Q 666 556 975 473 
Q 1284 391 1588 391 
Q 1994 391 2212 530 
Q 2431 669 2431 922 
Q 2431 1156 2273 1281 
Q 2116 1406 1581 1522 
L 1381 1569 
Q 847 1681 609 1914 
Q 372 2147 372 2553 
Q 372 3047 722 3315 
Q 1072 3584 1716 3584 
Q 2034 3584 2315 3537 
Q 2597 3491 2834 3397 
z
" transform="scale(0.015625)"/>
       <path id="DejaVuSans-4c" d="M 603 3500 
L 1178 3500 
L 1178 0 
L 603 0 
L 603 3500 
z
M 603 4863 
L 1178 4863 
L 1178 4134 
L 603 4134 
L 603 4863 
z
" transform="scale(0.015625)"/>
       <path id="DejaVuSans-44" d="M 2194 1759 
Q 1497 1759 1228 1600 
Q 959 1441 959 1056 
Q 959 750 1161 570 
Q 1363 391 1709 391 
Q 2188 391 2477 730 
Q 2766 1069 2766 1631 
L 2766 1759 
L 2194 1759 
z
M 3341 1997 
L 3341 0 
L 2766 0 
L 2766 531 
Q 2569 213 2275 61 
Q 1981 -91 1556 -91 
Q 1019 -91 701 211 
Q 384 513 384 1019 
Q 384 1609 779 1909 
Q 1175 2209 1959 2209 
L 2766 2209 
L 2766 2266 
Q 2766 2663 2505 2880 
Q 2244 3097 1772 3097 
Q 1472 3097 1187 3025 
Q 903 2953 641 2809 
L 641 3341 
Q 956 3463 1253 3523 
Q 1550 3584 1831 3584 
Q 2591 3584 2966 3190 
Q 3341 2797 3341 1997 
z
" transform="scale(0.015625)"/>
       <path id="DejaVuSans-4f" d="M 603 4863 
L 1178 4863 
L 1178 0 
L 603 0 
L 603 4863 
z
" transform="scale(0.015625)"/>
      </defs>
      <use xlink:href="#DejaVuSans-24"/>
      <use xlink:href="#DejaVuSans-50" transform="translate(68.40625 0)"/>
      <use xlink:href="#DejaVuSans-52" transform="translate(165.8125 0)"/>
      <use xlink:href="#DejaVuSans-58" transform="translate(227 0)"/>
      <use xlink:href="#DejaVuSans-51" transform="translate(290.375 0)"/>
      <use xlink:href="#DejaVuSans-57" transform="translate(353.75 0)"/>
      <use xlink:href="#DejaVuSans-3" transform="translate(392.953125 0)"/>
      <use xlink:href="#DejaVuSans-52" transform="translate(424.734375 0)"/>
      <use xlink:href="#DejaVuSans-49" transform="translate(485.921875 0)"/>
      <use xlink:href="#DejaVuSans-3" transform="translate(521.125 0)"/>
      <use xlink:href="#DejaVuSans-52" transform="translate(552.90625 0)"/>
      <use xlink:href="#DejaVuSans-45" transform="translate(614.09375 0)"/>
      <use xlink:href="#DejaVuSans-4d" transform="translate(677.578125 0)"/>
      <use xlink:href="#DejaVuSans-48" transform="translate(705.359375 0)"/>
      <use xlink:href="#DejaVuSans-46" transform="translate(766.890625 0)"/>
      <use xlink:href="#DejaVuSans-57" transform="translate(821.875 0)"/>
      <use xlink:href="#DejaVuSans-56" transform="translate(861.078125 0)"/>
      <use xlink:href="#DejaVuSans-3" transform="translate(913.171875 0)"/>
      <use xlink:href="#DejaVuSans-4c" transform="translate(944.953125 0)"/>
      <use xlink:href="#DejaVuSans-51" transform="translate(972.734375 0)"/>
      <use xlink:href="#DejaVuSans-3" transform="translate(1036.109375 0)"/>
      <use xlink:href="#DejaVuSans-57" transform="translate(1067.890625 0)"/>
      <use xlink:href="#DejaVuSans-44" transform="translate(1107.09375 0)"/>
      <use xlink:href="#DejaVuSans-45" transform="translate(1168.375 0)"/>
      <use xlink:href="#DejaVuSans-4f" transform="translate(1231.859375 0)"/>
      <use xlink:href="#DejaVuSans-48" transform="translate(1259.640625 0)"/>
     </g>
    </g>
   </g>
   <g id="matplotlib.axis_2">
    <g id="ytick_1">
     <g id="line2d_10">
      <defs>
       <path id="ma2b5c5ecf9" d="M 0 0 
L -3.5 0 
" style="stroke: #000000; stroke-width: 0.8"/>
      </defs>
      <g>
       <use xlink:href="#ma2b5c5ecf9" x="62.038281" y="288.430125" style="stroke: #000000; stroke-width: 0.8"/>
      </g>
     </g>
     <g id="text_11">
      <!-- 0 -->
      <g transform="translate(48.675781 292.228953) scale(0.1 -0.1)">
       <use xlink:href="#DejaVuSans-13"/>
      </g>
     </g>
    </g>
    <g id="ytick_2">
     <g id="line2d_11">
      <g>
       <use xlink:href="#ma2b5c5ecf9" x="62.038281" y="231.53426" style="stroke: #000000; stroke-width: 0.8"/>
      </g>
     </g>
     <g id="text_12">
      <!-- 100 µs -->
      <g transform="translate(21.200781 235.333088) scale(0.1 -0.1)">
       <defs>
        <path id="DejaVuSans-77" d="M 544 -1331 
L 544 3500 
L 1119 3500 
L 1119 1325 
Q 1119 872 1334 640 
Q 1550 409 1972 409 
Q 2434 409 2667 671 
Q 2900 934 2900 1459 
L 2900 3500 
L 3475 3500 
L 3475 806 
Q 3475 619 3529 530 
Q 3584 441 3700 441 
Q 3728 441 3778 458 
Q 3828 475 3916 513 
L 3916 50 
Q 3788 -22 3673 -56 
Q 3559 -91 3450 -91 
Q 3234 -91 3106 31 
Q 2978 153 2931 403 
Q 2775 156 2548 32 
Q 2322 -91 2016 -91 
Q 1697 -91 1473 31 
Q 1250 153 1119 397 
L 1119 -1331 
L 544 -1331 
z
" transform="scale(0.015625)"/>
       </defs>
       <use xlink:href="#DejaVuSans-14"/>
       <use xlink:href="#DejaVuSans-13" transform="translate(63.625 0)"/>
       <use xlink:href="#DejaVuSans-13" transform="translate(127.25 0)"/>
       <use xlink:href="#DejaVuSans-3" transform="translate(190.875 0)"/>
       <use xlink:href="#DejaVuSans-77" transform="translate(222.65625 0)"/>
       <use xlink:href="#DejaVuSans-56" transform="translate(286.28125 0)"/>
      </g>
     </g>
    </g>
    <g id="ytick_3">
     <g id="line2d_12">
      <g>
       <use xlink:href="#ma2b5c5ecf9" x="62.038281" y="174.638396" style="stroke: #000000; stroke-width: 0.8"/>
      </g>
     </g>
     <g id="text_13">
      <!-- 200 µs -->
      <g transform="translate(21.200781 178.437224) scale(0.1 -0.1)">
       <use xlink:href="#DejaVuSans-15"/>
       <use xlink:href="#DejaVuSans-13" transform="translate(63.625 0)"/>
       <use xlink:href="#DejaVuSans-13" transform="translate(127.25 0)"/>
       <use xlink:href="#DejaVuSans-3" transform="translate(190.875 0)"/>
       <use xlink:href="#DejaVuSans-77" transform="translate(222.65625 0)"/>
       <use xlink:href="#DejaVuSans-56" transform="translate(286.28125 0)"/>
      </g>
     </g>
    </g>
    <g id="ytick_4">
     <g id="line2d_13">
      <g>
       <use xlink:href="#ma2b5c5ecf9" x="62.038281" y="117.742531" style="stroke: #000000; stroke-width: 0.8"/>
      </g>
     </g>
     <g id="text_14">
      <!-- 300 µs -->
      <g transform="translate(21.200781 121.541359) scale(0.1 -0.1)">
       <use xlink:href="#DejaVuSans-16"/>
       <use xlink:href="#DejaVuSans-13" transform="translate(63.625 0)"/>
       <use xlink:href="#DejaVuSans-13" transform="translate(127.25 0)"/>
       <use xlink:href="#DejaVuSans-3" transform="translate(190.875 0)"/>
       <use xlink:href="#DejaVuSans-77" transform="translate(222.65625 0)"/>
       <use xlink:href="#DejaVuSans-56" transform="translate(286.28125 0)"/>
      </g>
     </g>
    </g>
    <g id="ytick_5">
     <g id="line2d_14">
      <g>
       <use xlink:href="#ma2b5c5ecf9" x="62.038281" y="60.846666" style="stroke: #000000; stroke-width: 0.8"/>
      </g>
     </g>
     <g id="text_15">
      <!-- 400 µs -->
      <g transform="translate(21.200781 64.645494) scale(0.1 -0.1)">
       <use xlink:href="#DejaVuSans-17"/>
       <use xlink:href="#DejaVuSans-13" transform="translate(63.625 0)"/>
       <use xlink:href="#DejaVuSans-13" transform="translate(127.25 0)"/>
       <use xlink:href="#DejaVuSans-3" transform="translate(190.875 0)"/>
       <use xlink:href="#DejaVuSans-77" transform="translate(222.65625 0)"/>
       <use xlink:href="#DejaVuSans-56" transform="translate(286.28125 0)"/>
      </g>
     </g>
    </g>
    <g id="text_16">
     <!-- Read latency (s) -->
     <g transform="translate(14.798438 195.990531) rotate(-90) scale(0.1 -0.1)">
      <defs>
       <path id="DejaVuSans-35" d="M 2841 2188 
Q 3044 2119 3236 1894 
Q 3428 1669 3622 1275 
L 4263 0 
L 3584 0 
L 2988 1197 
Q 2756 1666 2539 1819 
Q 2322 1972 1947 1972 
L 1259 1972 
L 1259 0 
L 628 0 
L 628 4666 
L 2053 4666 
Q 2853 4666 3247 4331 
Q 3641 3997 3641 3322 
Q 3641 2881 3436 2590 
Q 3231 2300 2841 2188 
z
M 1259 4147 
L 1259 2491 
L 2053 2491 
Q 2509 2491 2742 2702 
Q 2975 2913 2975 3322 
Q 2975 3731 2742 3939 
Q 2509 4147 2053 4147 
L 1259 4147 
z
" transform="scale(0.015625)"/>
       <path id="DejaVuSans-47" d="M 2906 2969 
L 2906 4863 
L 3481 4863 
L 3481 0 
L 2906 0 
L 2906 525 
Q 2725 213 2448 61 
Q 2172 -91 1784 -91 
Q 1150 -91 751 415 
Q 353 922 353 1747 
Q 353 2572 751 3078 
Q 1150 3584 1784 3584 
Q 2172 3584 2448 3432 
Q 2725 3281 2906 2969 
z
M 947 1747 
Q 947 1113 1208 752 
Q 1469 391 1925 391 
Q 2381 391 2643 752 
Q 2906 1113 2906 1747 
Q 2906 2381 2643 2742 
Q 2381 3103 1925 3103 
Q 1469 3103 1208 2742 
Q 947 2381 947 1747 
z
" transform="scale(0.015625)"/>
       <path id="DejaVuSans-5c" d="M 2059 -325 
Q 1816 -950 1584 -1140 
Q 1353 -1331 966 -1331 
L 506 -1331 
L 506 -850 
L 844 -850 
Q 1081 -850 1212 -737 
Q 1344 -625 1503 -206 
L 1606 56 
L 191 3500 
L 800 3500 
L 1894 763 
L 2988 3500 
L 3597 3500 
L 2059 -325 
z
" transform="scale(0.015625)"/>
       <path id="DejaVuSans-b" d="M 1984 4856 
Q 1566 4138 1362 3434 
Q 1159 2731 1159 2009 
Q 1159 1288 1364 580 
Q 1569 -128 1984 -844 
L 1484 -844 
Q 1016 -109 783 600 
Q 550 1309 550 2009 
Q 550 2706 781 3412 
Q 1013 4119 1484 4856 
L 1984 4856 
z
" transform="scale(0.015625)"/>
       <path id="DejaVuSans-c" d="M 513 4856 
L 1013 4856 
Q 1481 4119 1714 3412 
Q 1947 2706 1947 2009 
Q 1947 1309 1714 600 
Q 1481 -109 1013 -844 
L 513 -844 
Q 928 -128 1133 580 
Q 1338 1288 1338 2009 
Q 1338 2731 1133 3434 
Q 928 4138 513 4856 
z
" transform="scale(0.015625)"/>
      </defs>
      <use xlink:href="#DejaVuSans-35"/>
      <use xlink:href="#DejaVuSans-48" transform="translate(65 0)"/>
      <use xlink:href="#DejaVuSans-44" transform="translate(126.53125 0)"/>
      <use xlink:href="#DejaVuSans-47" transform="translate(187.8125 0)"/>
      <use xlink:href="#DejaVuSans-3" transform="translate(251.296875 0)"/>
      <use xlink:href="#DejaVuSans-4f" transform="translate(283.078125 0)"/>
      <use xlink:href="#DejaVuSans-44" transform="translate(310.859375 0)"/>
      <use xlink:href="#DejaVuSans-57" transform="translate(372.140625 0)"/>
      <use xlink:href="#DejaVuSans-48" transform="translate(411.34375 0)"/>
      <use xlink:href="#DejaVuSans-51" transform="translate(472.875 0)"/>
      <use xlink:href="#DejaVuSans-46" transform="translate(536.25 0)"/>
      <use xlink:href="#DejaVuSans-5c" transform="translate(591.234375 0)"/>
      <use xlink:href="#DejaVuSans-3" transform="translate(650.421875 0)"/>
      <use xlink:href="#DejaVuSans-b" transform="translate(682.203125 0)"/>
      <use xlink:href="#DejaVuSans-56" transform="translate(721.21875 0)"/>
      <use xlink:href="#DejaVuSans-c" transform="translate(773.3125 0)"/>
     </g>
    </g>
   </g>
   <g id="line2d_15">
    <path d="M 147.393467 208.466701 
L 148.264438 208.40131 
L 148.699924 208.47157 
L 149.570895 208.37418 
L 150.006381 208.390876 
L 150.441866 207.462193 
L 151.312838 207.528279 
L 152.183809 207.394715 
L 153.490266 207.139415 
L 154.361237 207.141501 
L 154.796723 207.209674 
L 155.232208 206.581509 
L 159.587065 206.32273 
L 160.022551 206.174558 
L 163.07095 205.974213 
L 163.941921 205.769694 
L 164.377407 205.77039 
L 165.248378 205.580479 
L 165.683864 205.654913 
L 166.119349 205.517872 
L 166.554835 204.599623 
L 166.990321 204.582928 
L 167.425806 204.696318 
L 168.296778 204.615623 
L 169.167749 204.362409 
L 171.345177 204.253889 
L 172.216148 204.005545 
L 172.651634 204.104326 
L 174.393577 204.043805 
L 174.829062 204.115456 
L 176.135519 203.764852 
L 177.006491 203.846242 
L 177.877462 203.735635 
L 178.312947 202.820169 
L 180.05489 202.713736 
L 180.490376 201.933921 
L 182.232318 201.871313 
L 182.667804 201.941573 
L 183.103289 201.459493 
L 187.02266 200.77985 
L 188.764603 200.735329 
L 190.07106 200.512723 
L 190.942031 200.269248 
L 191.813002 200.138467 
L 192.683974 200.043164 
L 193.554945 200.111337 
L 194.861402 200.294291 
L 195.296887 200.188553 
L 195.732373 199.625083 
L 196.167859 199.61604 
L 197.909801 199.175002 
L 198.345287 199.066482 
L 198.780773 199.843515 
L 199.651744 199.718299 
L 200.522715 199.640387 
L 200.958201 199.630648 
L 201.393686 199.908905 
L 202.264658 199.94647 
L 204.442086 199.945774 
L 205.313057 199.87621 
L 206.184028 199.842123 
L 206.619514 199.850471 
L 207.490485 199.726647 
L 208.361457 199.578475 
L 208.796942 199.490824 
L 209.232428 199.542301 
L 209.667914 199.446303 
L 210.538885 199.542301 
L 210.974371 199.56804 
L 211.409856 200.45568 
L 211.845342 200.577418 
L 212.716313 200.668547 
L 213.151799 200.759676 
L 213.587284 200.707503 
L 214.02277 200.810458 
L 214.458256 203.877546 
L 214.893741 203.963806 
L 215.329227 203.524855 
L 215.764713 203.61042 
L 216.200198 203.565203 
L 216.635684 203.660506 
L 217.506655 203.534594 
L 220.119569 203.327989 
L 220.555055 202.498087 
L 220.99054 202.580173 
L 223.603454 202.321394 
L 224.474425 202.493913 
L 225.345397 202.427827 
L 226.216368 202.552347 
L 227.087339 202.313742 
L 227.522825 202.476522 
L 228.393796 202.186439 
L 228.829282 201.362103 
L 229.264767 200.826458 
L 229.700253 200.673416 
L 230.135739 200.772893 
L 230.571224 200.715851 
L 231.442196 200.824371 
L 231.877681 200.668547 
L 232.313167 201.438623 
L 233.619624 201.244539 
L 234.055109 201.310625 
L 235.361566 201.029585 
L 235.797052 200.073772 
L 236.232538 200.032034 
L 237.538995 200.225422 
L 237.97448 200.125946 
L 238.845452 200.259509 
L 239.280937 199.366304 
L 239.716423 199.327348 
L 240.151908 199.93534 
L 241.02288 199.74056 
L 241.893851 199.467868 
L 242.329337 199.515867 
L 242.764822 199.361434 
L 243.200308 199.438651 
L 244.506765 199.296044 
L 245.377736 199.386477 
L 246.684193 199.268914 
L 247.555164 199.340565 
L 247.99065 198.519011 
L 248.426136 198.621966 
L 249.297107 197.037292 
L 249.732593 196.205999 
L 251.039049 196.039741 
L 251.474535 196.793817 
L 251.910021 195.818526 
L 252.345506 195.693311 
L 252.780992 194.681151 
L 254.087449 194.5775 
L 254.95842 192.690222 
L 255.393906 192.549006 
L 257.135848 192.777873 
L 258.00682 190.645032 
L 258.442305 190.564338 
L 259.313277 190.686075 
L 259.748762 190.609554 
L 260.184248 189.785914 
L 260.619734 189.877738 
L 261.490705 189.685741 
L 261.926191 188.64019 
L 262.361676 188.637408 
L 262.797162 187.786637 
L 263.232647 187.54664 
L 264.103619 187.566814 
L 264.539104 186.731347 
L 264.97459 186.706304 
L 265.410076 187.510467 
L 265.845561 187.489597 
L 266.281047 186.687521 
L 267.152018 186.79952 
L 267.587504 185.849272 
L 268.022989 186.259701 
L 268.458475 186.211702 
L 268.893961 184.123383 
L 269.329446 182.728619 
L 271.506875 182.471927 
L 272.377846 180.638909 
L 273.248817 180.620822 
L 275.426245 180.562388 
L 276.732702 180.790559 
L 277.603674 180.863601 
L 278.039159 180.951948 
L 279.781102 180.521345 
L 280.216587 180.564475 
L 280.652073 181.171771 
L 281.523044 181.107772 
L 282.394016 179.344318 
L 284.571444 179.727617 
L 287.184358 179.523794 
L 287.619843 178.364853 
L 288.055329 178.197203 
L 289.797272 178.521373 
L 291.103728 178.537372 
L 291.539214 177.843121 
L 292.410185 177.693558 
L 293.281157 177.59895 
L 295.023099 177.406257 
L 295.894071 177.422953 
L 296.329556 177.424344 
L 296.765042 177.289389 
L 297.200527 177.375649 
L 297.636013 176.429575 
L 298.071499 176.347489 
L 298.506984 176.465749 
L 299.377956 176.300186 
L 299.813441 175.272026 
L 300.248927 175.71515 
L 300.684413 175.603152 
L 301.119898 175.615673 
L 301.555384 175.266461 
L 302.426355 175.278287 
L 302.861841 175.123854 
L 303.297326 175.299852 
L 303.732812 175.037594 
L 304.168298 175.130115 
L 304.603783 174.380908 
L 305.039269 174.268909 
L 305.474755 174.938117 
L 306.345726 174.656382 
L 307.216697 174.601426 
L 307.652183 174.473428 
L 308.523154 173.672743 
L 308.95864 173.53918 
L 309.394125 172.522151 
L 310.265097 172.396239 
L 312.442525 172.307197 
L 313.313496 170.511048 
L 314.184467 172.252241 
L 314.619953 172.346849 
L 315.055439 171.425818 
L 315.92641 171.391036 
L 316.361896 170.703741 
L 316.797381 169.648451 
L 317.232867 169.534365 
L 318.103838 169.60393 
L 318.97481 169.469671 
L 319.845781 169.382715 
L 320.281266 168.52151 
L 320.716752 168.259253 
L 321.152238 168.268296 
L 322.023209 168.027604 
L 323.329666 167.810563 
L 323.765152 166.671796 
L 324.200637 166.121543 
L 325.507094 165.846068 
L 325.94258 165.012688 
L 326.378065 165.048166 
L 326.813551 163.987311 
L 327.249037 163.892008 
L 327.684522 163.107323 
L 328.120008 162.982108 
L 330.297436 162.998803 
L 330.732922 162.889587 
L 331.168407 162.964021 
L 332.474864 162.686459 
L 332.91035 162.861761 
L 333.345836 162.836718 
L 333.781321 163.625577 
L 334.216807 163.46697 
L 334.652293 164.351132 
L 335.087778 164.401914 
L 335.523264 163.712532 
L 336.394235 163.846096 
L 336.829721 163.652707 
L 337.265206 163.766792 
L 337.700692 164.771996 
L 338.136178 164.872864 
L 338.571663 163.055846 
L 339.007149 162.684372 
L 339.442635 162.551505 
L 339.87812 163.439145 
L 340.749092 163.544187 
L 341.620063 163.446797 
L 342.055548 163.445406 
L 342.92652 165.434248 
L 343.362005 165.530246 
L 343.797491 165.400161 
L 344.232977 164.465913 
L 344.668462 164.518782 
L 345.103948 165.43077 
L 345.539434 165.425204 
L 345.974919 164.367132 
L 346.410405 164.504174 
L 346.845891 165.569898 
L 347.281376 164.659302 
L 348.152347 166.568145 
L 348.587833 166.65997 
L 349.023319 165.614419 
L 349.458804 166.413017 
L 350.765261 166.316323 
L 351.200747 167.069008 
L 351.636233 166.970922 
L 352.071718 166.095108 
L 352.507204 166.925706 
L 353.378175 167.064834 
L 353.813661 169.219935 
L 354.249146 170.773305 
L 356.426575 170.885999 
L 357.297546 172.555541 
L 358.168517 170.736436 
L 358.604003 170.299572 
L 359.474974 170.378876 
L 359.91046 170.391397 
L 360.781431 168.570205 
L 361.652402 168.440815 
L 362.087888 168.293339 
L 362.523374 167.33057 
L 362.958859 166.759447 
L 363.394345 166.679448 
L 363.829831 166.035979 
L 364.265316 166.029718 
L 364.700802 165.261033 
L 365.136287 165.20399 
L 365.571773 164.317046 
L 366.442744 164.429044 
L 367.313716 166.219628 
L 367.749201 165.331293 
L 368.184687 165.36677 
L 369.055658 165.075992 
L 369.92663 164.934081 
L 370.362115 164.049919 
L 370.797601 164.214091 
L 371.668572 162.55707 
L 372.104058 162.54107 
L 372.539543 163.549056 
L 372.975029 163.678446 
L 373.410515 163.662446 
L 373.846 161.90734 
L 374.281486 162.002643 
L 374.716972 161.105959 
L 375.152457 161.140742 
L 375.587943 161.010656 
L 376.023428 160.139712 
L 376.458914 160.894484 
L 377.329885 160.694835 
L 377.765371 160.660748 
L 379.071828 160.834659 
L 379.507314 159.988062 
L 380.378285 160.070148 
L 380.813771 159.172073 
L 381.249256 159.020423 
L 381.684742 158.993988 
L 382.120227 157.981828 
L 382.555713 158.905642 
L 382.991199 158.050001 
L 383.426684 157.90809 
L 384.297656 157.926873 
L 384.733141 158.826338 
L 385.168627 158.781817 
L 385.604113 158.888251 
L 386.039598 158.870164 
L 386.475084 159.062857 
L 388.217026 158.981467 
L 388.652512 158.347736 
L 389.523483 158.142522 
L 389.958969 158.20513 
L 390.394455 158.404083 
L 390.82994 157.585312 
L 391.700912 157.532443 
L 392.571883 155.750902 
L 393.442854 156.577326 
L 393.87834 156.5815 
L 394.313825 157.463575 
L 394.749311 157.521313 
L 396.055768 157.237491 
L 396.491254 157.208274 
L 397.362225 155.631252 
L 398.233196 157.393315 
L 398.668682 157.368272 
L 399.539653 155.519949 
L 399.975139 155.477515 
L 400.410624 154.562049 
L 400.84611 154.35753 
L 401.281596 154.90361 
L 401.717081 155.886553 
L 402.152567 155.056651 
L 402.152567 155.056651 
" clip-path="url(#pd19ff8dd8d)" style="fill: none; stroke: #1f77b4; stroke-opacity: 0.8; stroke-width: 1.5; stroke-linecap: square"/>
   </g>
   <g id="line2d_16">
    <path d="M 147.393467 145.901994 
L 148.699924 145.539564 
L 149.135409 145.186178 
L 149.570895 145.284959 
L 150.006381 145.038006 
L 150.877352 145.544434 
L 151.312838 145.12357 
L 151.748323 144.898182 
L 152.183809 144.347233 
L 152.619295 144.414015 
L 153.05478 144.286016 
L 153.490266 144.55523 
L 153.925752 144.514187 
L 154.361237 144.179583 
L 155.232208 143.9215 
L 155.667694 144.002194 
L 156.538665 143.272465 
L 156.974151 143.209857 
L 157.409637 142.856471 
L 158.716094 142.619952 
L 159.587065 142.609518 
L 160.458036 141.981352 
L 160.893522 141.925005 
L 161.329007 142.295087 
L 161.764493 141.949353 
L 162.199979 141.867963 
L 162.635464 141.415099 
L 163.941921 141.186233 
L 164.812893 140.46833 
L 165.248378 140.480155 
L 165.683864 140.844672 
L 166.119349 140.884324 
L 166.554835 140.601197 
L 166.990321 140.561546 
L 167.425806 140.802238 
L 167.861292 140.77163 
L 168.296778 140.930932 
L 169.167749 140.192159 
L 169.603235 140.38207 
L 170.03872 140.343114 
L 170.474206 140.564328 
L 170.909692 140.542763 
L 171.345177 140.78763 
L 171.780663 141.678748 
L 172.651634 141.540315 
L 173.522605 141.922918 
L 173.958091 141.595966 
L 174.393577 141.75666 
L 174.829062 141.790746 
L 175.264548 141.279449 
L 175.700034 141.287797 
L 176.135519 140.955975 
L 177.441976 140.536503 
L 177.877462 140.67424 
L 178.312947 141.0318 
L 179.183919 141.213363 
L 179.619404 141.415099 
L 180.490376 141.326057 
L 180.925861 142.293 
L 181.361347 142.133002 
L 181.796833 142.44465 
L 182.667804 142.20674 
L 183.538775 142.188654 
L 183.974261 141.72466 
L 184.409746 141.895093 
L 184.845232 142.427955 
L 185.280718 142.494737 
L 185.716203 142.699951 
L 186.587175 142.04396 
L 187.02266 142.133698 
L 187.893632 141.390752 
L 188.764603 140.923975 
L 189.200088 141.026235 
L 190.07106 140.942062 
L 190.506545 140.638066 
L 190.942031 140.925367 
L 191.377517 140.358418 
L 191.813002 140.551111 
L 192.683974 140.491286 
L 193.554945 140.389026 
L 195.296887 140.301375 
L 195.732373 139.968858 
L 196.167859 139.901381 
L 196.603344 140.360505 
L 197.03883 140.038422 
L 197.474316 140.089204 
L 197.909801 140.022423 
L 198.345287 140.251289 
L 198.780773 140.237376 
L 199.651744 140.761195 
L 200.087229 140.615806 
L 200.522715 140.606067 
L 201.393686 141.122929 
L 201.829172 141.075626 
L 202.264658 140.773717 
L 202.700143 140.726413 
L 204.0066 139.568168 
L 205.748543 139.278781 
L 206.184028 138.95322 
L 206.619514 139.252346 
L 207.055 138.631137 
L 207.490485 138.428705 
L 207.925971 137.788019 
L 208.361457 137.735845 
L 208.796942 137.312895 
L 209.232428 137.266287 
L 209.667914 136.906639 
L 210.103399 136.840553 
L 211.409856 137.447849 
L 212.280827 137.882626 
L 212.716313 137.953581 
L 213.151799 137.866626 
L 213.587284 137.378981 
L 214.458256 137.806801 
L 214.893741 135.940392 
L 215.329227 135.383878 
L 215.764713 135.268401 
L 216.200198 134.940058 
L 216.635684 135.061099 
L 217.071169 134.140764 
L 218.377626 132.448961 
L 218.813112 132.289659 
L 219.248598 131.539061 
L 219.684083 131.198892 
L 220.119569 128.606927 
L 220.555055 128.209715 
L 220.99054 128.158238 
L 221.426026 128.367626 
L 222.296997 128.169368 
L 222.732483 128.359278 
L 223.167968 128.174933 
L 223.603454 127.796503 
L 224.03894 128.030935 
L 224.909911 127.976675 
L 225.780882 126.996514 
L 226.216368 126.512347 
L 227.087339 125.347841 
L 227.958311 125.354102 
L 228.829282 124.205596 
L 229.264767 124.022642 
L 230.135739 124.075511 
L 231.442196 123.00283 
L 232.748653 123.733951 
L 233.184138 123.549605 
L 233.619624 123.772211 
L 234.926081 123.675517 
L 235.361566 123.432042 
L 235.797052 123.340217 
L 236.232538 123.692908 
L 236.668023 122.798311 
L 237.103509 123.026482 
L 237.538995 122.818485 
L 238.409966 122.769094 
L 238.845452 122.530489 
L 239.280937 122.723877 
L 239.716423 122.745442 
L 241.02288 123.140567 
L 242.329337 123.114829 
L 242.764822 121.850846 
L 243.200308 121.60598 
L 243.635794 121.506503 
L 244.071279 121.136421 
L 244.506765 121.130856 
L 244.942251 120.611906 
L 245.377736 120.687036 
L 245.813222 120.639036 
L 246.248707 120.735731 
L 247.119679 120.152782 
L 247.555164 120.190347 
L 247.99065 120.380257 
L 248.861621 119.880786 
L 249.732593 120.407387 
L 251.039049 120.099913 
L 251.474535 120.238346 
L 252.780992 120.124261 
L 253.216478 119.887047 
L 253.651963 120.183391 
L 254.087449 119.277664 
L 254.522935 119.158013 
L 254.95842 118.8728 
L 255.829392 118.009507 
L 256.264877 116.783785 
L 257.135848 116.532658 
L 257.571334 116.185532 
L 258.00682 115.992839 
L 258.442305 115.128156 
L 258.877791 115.542063 
L 259.313277 115.581019 
L 259.748762 115.3925 
L 260.184248 115.876667 
L 261.490705 116.433181 
L 261.926191 116.048491 
L 262.797162 116.298922 
L 263.232647 116.10136 
L 263.668133 116.090229 
L 264.103619 115.953883 
L 264.539104 114.902072 
L 264.97459 114.844333 
L 265.410076 114.474252 
L 265.845561 114.486077 
L 266.281047 114.84016 
L 266.716533 114.756682 
L 267.152018 113.764696 
L 267.587504 113.517743 
L 268.022989 113.622785 
L 268.458475 113.409918 
L 268.893961 112.916708 
L 269.764932 112.37828 
L 270.200418 112.017242 
L 270.635903 111.965764 
L 271.071389 111.750115 
L 271.506875 112.020024 
L 271.94236 112.092371 
L 272.813332 112.715667 
L 273.684303 112.650972 
L 274.555274 110.839519 
L 274.99076 110.45622 
L 275.426245 110.452046 
L 275.861731 110.138311 
L 276.297217 111.076037 
L 276.732702 110.820736 
L 278.039159 110.797085 
L 278.474645 111.091341 
L 278.910131 111.236731 
L 279.781102 109.283366 
L 280.216587 108.159208 
L 280.652073 108.618332 
L 281.087559 107.620085 
L 281.523044 107.519217 
L 281.95853 107.691736 
L 282.394016 107.595042 
L 282.829501 106.584969 
L 283.264987 106.351233 
L 283.700473 106.676793 
L 284.135958 106.653837 
L 284.571444 105.48794 
L 285.00693 105.556113 
L 285.442415 104.928643 
L 286.313386 102.286593 
L 286.748872 102.075813 
L 287.184358 101.020523 
L 287.619843 100.951655 
L 288.9263 101.807991 
L 289.361786 101.721731 
L 289.797272 101.409387 
L 290.232757 101.389909 
L 290.668243 101.14713 
L 291.103728 101.322432 
L 291.539214 101.32591 
L 291.9747 100.346445 
L 292.410185 100.512008 
L 292.845671 100.965567 
L 293.281157 100.985045 
L 293.716642 100.272707 
L 294.152128 99.99932 
L 294.587614 100.082101 
L 295.023099 99.48037 
L 295.894071 99.176375 
L 296.765042 98.537079 
L 297.200527 97.695351 
L 297.636013 97.559701 
L 298.071499 96.320762 
L 298.506984 96.729104 
L 299.377956 96.713104 
L 299.813441 98.822292 
L 300.248927 99.522805 
L 300.684413 99.100549 
L 301.119898 99.110288 
L 301.555384 98.756206 
L 301.99087 99.725237 
L 302.861841 100.886264 
L 303.297326 101.291824 
L 303.732812 101.293215 
L 304.168298 101.923467 
L 304.603783 100.932872 
L 305.039269 103.455272 
L 305.474755 103.711964 
L 306.345726 103.81492 
L 307.652183 103.026756 
L 308.95864 102.948844 
L 309.394125 102.903628 
L 309.829611 102.595458 
L 310.265097 103.301535 
L 310.700582 102.93841 
L 311.136068 103.12832 
L 311.571554 102.58711 
L 312.007039 102.838237 
L 312.442525 102.724848 
L 312.878011 102.978061 
L 313.313496 103.558923 
L 313.748982 103.62014 
L 314.619953 103.009365 
L 315.055439 102.952323 
L 315.490924 102.77076 
L 316.361896 102.695631 
L 316.797381 102.355461 
L 317.668353 102.372157 
L 318.103838 102.480677 
L 318.539324 102.236506 
L 319.410295 102.173203 
L 319.845781 101.91512 
L 320.716752 100.217752 
L 321.587723 99.763497 
L 322.023209 99.708541 
L 322.458695 99.849061 
L 322.89418 99.852539 
L 323.329666 99.05742 
L 323.765152 99.223678 
L 324.200637 98.984377 
L 325.507094 98.670642 
L 326.378065 96.433456 
L 326.813551 95.732944 
L 327.249037 95.281471 
L 327.684522 96.466151 
L 328.120008 96.628236 
L 328.555494 95.777465 
L 329.426465 95.654336 
L 329.861951 96.119025 
L 331.168407 95.655727 
L 331.603893 96.146155 
L 332.474864 96.207372 
L 332.91035 95.920071 
L 333.345836 95.769117 
L 333.781321 95.924941 
L 334.652293 95.835899 
L 335.087778 95.963201 
L 336.394235 95.711379 
L 336.829721 95.549294 
L 337.265206 95.209125 
L 337.700692 95.290515 
L 338.136178 95.16669 
L 338.571663 94.829999 
L 339.007149 95.512425 
L 339.442635 95.049127 
L 339.87812 95.115909 
L 340.313606 95.614684 
L 340.749092 95.17156 
L 341.184577 96.04807 
L 341.620063 95.793464 
L 342.055548 95.83242 
L 342.491034 96.201807 
L 342.92652 96.309631 
L 343.362005 96.882841 
L 344.232977 96.368065 
L 344.668462 95.428252 
L 345.103948 95.373992 
L 345.539434 94.33818 
L 347.281376 91.944474 
L 348.587833 90.757707 
L 349.023319 91.046399 
L 349.458804 90.101021 
L 349.89429 89.976501 
L 350.329776 90.336148 
L 350.765261 90.060674 
L 351.636233 89.749026 
L 352.071718 90.605362 
L 352.507204 90.44606 
L 352.94269 90.126064 
L 353.378175 90.08363 
L 353.813661 90.946922 
L 354.249146 91.300309 
L 355.555603 91.350395 
L 355.991089 91.704477 
L 356.86206 91.621 
L 357.297546 90.799446 
L 357.733032 90.57684 
L 358.604003 90.52258 
L 359.039488 91.217527 
L 359.474974 92.174036 
L 360.345945 91.910387 
L 360.781431 90.905184 
L 361.216917 90.523972 
L 362.087888 90.339626 
L 362.523374 89.787982 
L 362.958859 87.168887 
L 363.829831 86.835674 
L 364.700802 88.569216 
L 365.571773 88.300698 
L 366.007259 88.988688 
L 366.442744 88.750778 
L 366.87823 88.786256 
L 367.313716 89.092339 
L 367.749201 90.210932 
L 368.184687 90.235975 
L 368.620173 89.93198 
L 369.055658 90.031457 
L 369.491144 91.200136 
L 369.92663 90.72223 
L 370.362115 90.034935 
L 370.797601 91.248831 
L 371.233086 91.211266 
L 371.668572 91.013008 
L 372.104058 91.965343 
L 372.975029 91.467263 
L 373.846 91.109703 
L 374.281486 90.843967 
L 374.716972 91.225179 
L 376.458914 89.713548 
L 376.8944 90.981704 
L 377.329885 90.276323 
L 377.765371 90.18102 
L 378.200857 89.869372 
L 378.636342 90.939966 
L 379.071828 90.887097 
L 379.507314 91.044312 
L 380.378285 90.997009 
L 380.813771 89.663462 
L 381.684742 89.964675 
L 382.120227 90.579623 
L 382.555713 90.523972 
L 382.991199 91.798389 
L 383.426684 91.814389 
L 384.733141 91.310743 
L 385.168627 89.787982 
L 386.475084 90.274931 
L 387.346055 89.894415 
L 388.217026 90.28954 
L 388.652512 89.734417 
L 389.087998 89.827633 
L 389.523483 90.679795 
L 389.958969 90.781359 
L 390.394455 90.472494 
L 390.82994 90.592145 
L 391.700912 90.221367 
L 393.007369 91.016487 
L 393.442854 91.127094 
L 393.87834 91.011617 
L 394.313825 91.054747 
L 394.749311 91.283613 
L 395.184797 90.118412 
L 395.620282 90.743795 
L 396.055768 89.661375 
L 396.491254 90.40293 
L 397.362225 90.590753 
L 397.797711 89.964675 
L 398.233196 89.662766 
L 398.668682 89.970936 
L 399.539653 89.996674 
L 399.975139 89.657896 
L 400.410624 89.831807 
L 401.281596 90.434234 
L 401.717081 90.465538 
L 402.152567 90.155977 
L 402.152567 90.155977 
" clip-path="url(#pd19ff8dd8d)" style="fill: none; stroke: #ff7f0e; stroke-opacity: 0.8; stroke-width: 1.5; stroke-linecap: square"/>
   </g>
   <g id="line2d_17">
    <path d="M 147.393467 99.152027 
L 147.828953 99.033072 
L 148.264438 99.15481 
L 148.699924 98.965595 
L 149.570895 96.099547 
L 150.006381 96.204589 
L 150.441866 95.905463 
L 150.877352 93.883925 
L 151.748323 93.668276 
L 152.183809 93.837317 
L 153.05478 93.470018 
L 153.490266 92.774375 
L 153.925752 92.471075 
L 154.361237 92.471075 
L 154.796723 94.061314 
L 155.232208 93.870013 
L 155.667694 93.819926 
L 156.10318 93.360107 
L 156.538665 93.286368 
L 157.409637 93.395584 
L 157.845122 93.22863 
L 158.280608 92.775767 
L 158.716094 92.491249 
L 159.151579 92.641508 
L 160.022551 93.601495 
L 160.458036 93.888795 
L 160.893522 93.241152 
L 161.329007 93.127762 
L 161.764493 90.79875 
L 162.635464 90.221367 
L 163.506436 90.645013 
L 164.377407 90.26241 
L 164.812893 90.217889 
L 165.248378 90.034239 
L 165.683864 90.25128 
L 166.119349 89.890241 
L 166.554835 89.846416 
L 166.990321 89.967457 
L 168.732263 91.331613 
L 169.167749 91.324656 
L 169.603235 91.617522 
L 170.03872 91.584131 
L 170.474206 91.752476 
L 171.345177 92.382033 
L 171.780663 92.052994 
L 172.216148 92.452293 
L 172.651634 92.180992 
L 173.08712 92.90933 
L 173.958091 93.186892 
L 174.393577 93.272456 
L 174.829062 93.172979 
L 175.264548 93.924968 
L 175.700034 93.780275 
L 176.135519 93.425497 
L 176.571005 93.609147 
L 177.441976 93.239065 
L 177.877462 93.371932 
L 178.312947 92.724289 
L 178.748433 92.343773 
L 179.183919 92.258209 
L 179.619404 90.759099 
L 180.490376 90.19702 
L 180.925861 90.443277 
L 181.796833 90.27354 
L 182.232318 90.066239 
L 182.667804 90.459972 
L 183.103289 90.503798 
L 183.538775 88.495478 
L 185.280718 88.91982 
L 185.716203 88.843995 
L 186.151689 88.513564 
L 186.587175 88.623476 
L 187.02266 86.910804 
L 187.458146 86.239509 
L 188.764603 85.713603 
L 189.200088 85.88334 
L 189.635574 85.920209 
L 190.07106 85.416563 
L 190.506545 85.414476 
L 190.942031 85.53691 
L 192.683974 85.27187 
L 193.119459 85.305956 
L 193.554945 83.906323 
L 193.990431 84.061452 
L 194.861402 84.014843 
L 195.296887 83.927888 
L 195.732373 84.046843 
L 196.167859 83.993974 
L 197.03883 83.278854 
L 197.474316 84.59014 
L 197.909801 84.529619 
L 198.345287 84.990134 
L 199.216258 84.378665 
L 199.651744 84.022496 
L 200.958201 84.051017 
L 201.829172 83.296245 
L 202.264658 83.371374 
L 202.700143 83.595371 
L 203.135629 83.484764 
L 203.571115 83.806151 
L 204.0066 83.50772 
L 204.442086 83.357461 
L 204.877572 83.067378 
L 205.313057 82.978336 
L 205.748543 83.346331 
L 206.184028 82.945641 
L 206.619514 83.109117 
L 207.055 83.152942 
L 207.490485 83.511894 
L 207.925971 85.662125 
L 208.361457 85.695516 
L 208.796942 86.838457 
L 209.232428 85.955686 
L 211.409856 85.842297 
L 211.845342 86.144901 
L 212.716313 85.187001 
L 213.151799 85.235001 
L 213.587284 85.565431 
L 214.02277 85.422129 
L 214.458256 84.982482 
L 214.893741 85.328912 
L 215.329227 85.289956 
L 216.200198 85.751167 
L 216.635684 85.379694 
L 217.071169 85.231522 
L 217.506655 84.828745 
L 217.942141 84.837093 
L 218.813112 84.553271 
L 219.248598 84.161624 
L 219.684083 84.018322 
L 220.119569 83.626675 
L 220.555055 83.501459 
L 220.99054 83.19329 
L 221.426026 83.182159 
L 221.861512 84.453794 
L 222.296997 84.420403 
L 222.732483 84.691704 
L 223.167968 86.098293 
L 223.603454 85.836732 
L 224.03894 85.900731 
L 224.474425 85.494475 
L 224.909911 85.596039 
L 225.345397 85.481954 
L 225.780882 85.726124 
L 226.651854 84.864919 
L 227.087339 85.130654 
L 227.522825 84.642313 
L 227.958311 84.649965 
L 228.393796 84.498315 
L 228.829282 85.074307 
L 229.264767 82.93451 
L 230.135739 83.111204 
L 230.571224 82.86912 
L 231.442196 82.109478 
L 231.877681 79.569687 
L 232.748653 77.214241 
L 233.619624 74.686971 
L 234.055109 75.430613 
L 234.490595 77.19685 
L 235.361566 77.510585 
L 235.797052 79.123085 
L 236.668023 78.911609 
L 237.103509 79.063955 
L 237.538995 79.569687 
L 237.97448 79.632991 
L 238.409966 79.946725 
L 239.280937 80.020464 
L 239.716423 79.601687 
L 240.151908 79.660816 
L 240.587394 79.519601 
L 241.02288 79.981508 
L 241.893851 79.759598 
L 242.329337 79.918204 
L 242.764822 80.261852 
L 243.635794 80.56863 
L 244.071279 80.484457 
L 244.942251 80.725845 
L 245.377736 79.400646 
L 245.813222 79.552992 
L 246.248707 79.5836 
L 246.684193 82.180434 
L 247.119679 82.316084 
L 247.555164 82.902511 
L 248.426136 82.410692 
L 249.297107 82.662514 
L 249.732593 82.229824 
L 250.603564 81.714353 
L 251.039049 81.807569 
L 251.474535 81.430531 
L 251.910021 81.255925 
L 252.345506 81.203056 
L 252.780992 80.793322 
L 253.216478 80.781497 
L 253.651963 80.578369 
L 254.087449 78.357182 
L 254.522935 78.110229 
L 254.95842 78.245879 
L 255.393906 77.752669 
L 255.829392 77.679626 
L 256.264877 77.211459 
L 256.700363 77.282414 
L 257.135848 77.006244 
L 258.00682 77.788842 
L 258.877791 77.148851 
L 259.313277 77.075808 
L 259.748762 76.869898 
L 260.184248 76.890072 
L 260.619734 77.068852 
L 261.055219 77.413195 
L 261.926191 76.637553 
L 262.361676 76.93668 
L 262.797162 76.721726 
L 263.232647 77.860493 
L 263.668133 78.172141 
L 264.103619 78.059447 
L 264.539104 77.510585 
L 264.97459 77.893884 
L 266.716533 78.261879 
L 267.152018 78.108838 
L 267.587504 77.723452 
L 268.022989 77.596149 
L 268.458475 79.68099 
L 268.893961 79.589861 
L 269.329446 79.646208 
L 270.200418 79.174562 
L 270.635903 79.141867 
L 271.506875 79.543948 
L 272.377846 79.849335 
L 272.813332 78.948478 
L 273.248817 78.837871 
L 273.684303 79.31856 
L 274.119788 78.85874 
L 274.555274 78.646569 
L 275.426245 78.440659 
L 275.861731 78.146402 
L 276.732702 77.947448 
L 277.168188 78.275096 
L 277.603674 77.865363 
L 278.039159 78.04136 
L 278.474645 79.804119 
L 279.345616 80.09768 
L 279.781102 79.78951 
L 280.216587 79.865335 
L 280.652073 79.708816 
L 281.087559 79.685164 
L 282.829501 80.538022 
L 283.264987 80.364807 
L 283.700473 80.5095 
L 284.135958 79.008303 
L 285.442415 78.958913 
L 285.877901 78.595092 
L 286.313386 78.993695 
L 286.748872 79.237866 
L 287.184358 78.530397 
L 287.619843 78.427442 
L 288.055329 76.657031 
L 288.490815 76.31408 
L 289.361786 76.540163 
L 289.797272 76.296689 
L 290.668243 76.282776 
L 291.103728 76.636162 
L 291.9747 76.808682 
L 292.410185 75.461222 
L 293.281157 75.515482 
L 293.716642 75.252529 
L 294.152128 76.142952 
L 294.587614 75.828521 
L 295.023099 75.717914 
L 295.458585 76.110952 
L 296.329556 73.472379 
L 296.765042 73.468901 
L 297.200527 73.991329 
L 298.506984 73.898113 
L 298.94247 74.032372 
L 299.377956 74.392019 
L 300.248927 74.361411 
L 300.684413 74.513061 
L 301.119898 74.009416 
L 301.99087 73.988546 
L 302.426355 74.552712 
L 302.861841 74.22576 
L 303.297326 74.149935 
L 303.732812 73.694289 
L 304.603783 74.383671 
L 305.039269 74.35028 
L 305.91024 75.195486 
L 306.345726 74.85323 
L 306.781212 74.890099 
L 307.216697 74.779492 
L 307.652183 74.405932 
L 308.087668 74.313411 
L 308.523154 74.100545 
L 308.95864 73.718637 
L 309.394125 74.05185 
L 309.829611 74.155501 
L 310.265097 74.138109 
L 310.700582 73.742289 
L 311.136068 71.87101 
L 311.571554 72.087355 
L 312.007039 72.131876 
L 312.442525 72.470654 
L 313.748982 71.635187 
L 314.184467 73.795853 
L 315.055439 73.009081 
L 315.92641 72.918648 
L 316.361896 73.525944 
L 316.797381 76.494251 
L 317.232867 77.468846 
L 318.103838 75.784696 
L 318.539324 77.16972 
L 318.97481 75.77913 
L 319.845781 75.486961 
L 320.716752 73.438989 
L 321.587723 73.281773 
L 322.023209 72.863692 
L 322.458695 71.299192 
L 322.89418 71.301279 
L 323.329666 71.612927 
L 323.765152 71.579536 
L 324.200637 70.139556 
L 324.636123 70.483899 
L 325.507094 70.445638 
L 325.94258 69.946167 
L 326.813551 69.876603 
L 327.249037 69.432783 
L 327.684522 69.263742 
L 328.555494 69.25122 
L 328.990979 68.926355 
L 329.426465 69.151047 
L 329.861951 68.94305 
L 330.297436 70.229989 
L 331.168407 70.390683 
L 331.603893 70.138164 
L 332.039379 68.718358 
L 332.474864 68.616794 
L 332.91035 66.593865 
L 333.345836 66.572996 
L 333.781321 66.399085 
L 334.216807 66.785863 
L 335.087778 66.582039 
L 335.523264 66.959078 
L 335.95875 67.045337 
L 336.394235 67.402202 
L 336.829721 67.364637 
L 337.265206 67.011251 
L 337.700692 67.381333 
L 338.136178 67.296464 
L 338.571663 65.158059 
L 339.007149 67.331246 
L 339.442635 67.00012 
L 339.87812 67.159423 
L 340.313606 67.836283 
L 341.620063 67.912804 
L 342.055548 68.285668 
L 342.491034 68.481144 
L 343.362005 68.390014 
L 344.232977 68.918703 
L 344.668462 68.828269 
L 345.103948 69.22409 
L 345.974919 69.080092 
L 346.410405 69.244264 
L 346.845891 69.653997 
L 347.281376 69.482869 
L 347.716862 69.60878 
L 348.152347 67.692285 
L 348.587833 67.398028 
L 349.023319 67.855065 
L 349.458804 69.518347 
L 349.89429 69.077309 
L 350.765261 69.077309 
L 351.200747 68.847052 
L 351.636233 68.965311 
L 352.507204 70.053296 
L 352.94269 70.094339 
L 353.378175 69.947558 
L 353.813661 67.61159 
L 354.684632 67.269334 
L 355.120118 67.429332 
L 355.991089 66.865861 
L 356.426575 64.61824 
L 356.86206 65.738225 
L 357.297546 65.75492 
L 357.733032 66.554214 
L 358.168517 66.650908 
L 358.604003 66.367086 
L 359.039488 66.650908 
L 359.91046 66.872818 
L 360.345945 66.561866 
L 360.781431 66.910383 
L 361.216917 66.687777 
L 361.652402 66.804645 
L 362.958859 60.596034 
L 364.700802 53.084485 
L 365.136287 50.603128 
L 366.007259 50.000702 
L 366.442744 50.097396 
L 366.87823 49.392014 
L 367.313716 49.211147 
L 367.749201 49.428188 
L 368.184687 49.289755 
L 368.620173 49.39271 
L 369.055658 50.96208 
L 369.491144 51.298771 
L 369.92663 51.298075 
L 370.362115 49.000368 
L 370.797601 49.085932 
L 371.233086 48.882804 
L 371.668572 48.925238 
L 372.539543 46.877962 
L 372.975029 48.982281 
L 373.410515 47.302304 
L 374.281486 46.738138 
L 374.716972 46.010495 
L 375.152457 46.087712 
L 375.587943 46.007713 
L 376.023428 45.666152 
L 376.458914 46.112059 
L 376.8944 46.2811 
L 377.329885 47.378825 
L 377.765371 47.362825 
L 378.200857 46.807006 
L 378.636342 46.804224 
L 379.071828 47.019873 
L 379.507314 46.9357 
L 379.942799 47.280739 
L 380.378285 47.066481 
L 381.249256 50.122439 
L 382.120227 49.426101 
L 382.555713 49.769748 
L 382.991199 49.803835 
L 383.86217 48.78124 
L 384.733141 48.096032 
L 385.168627 48.457071 
L 385.604113 48.082119 
L 386.475084 48.009772 
L 386.91057 48.06125 
L 387.346055 47.525605 
L 387.781541 48.155857 
L 388.217026 47.956904 
L 389.087998 47.874818 
L 389.523483 47.557605 
L 389.958969 47.947165 
L 390.82994 47.107524 
L 391.700912 46.82231 
L 392.136397 46.855006 
L 392.571883 47.201436 
L 393.007369 47.263348 
L 393.87834 44.814686 
L 394.749311 44.265824 
L 395.184797 44.331214 
L 395.620282 43.170882 
L 396.055768 45.481807 
L 396.491254 44.002871 
L 397.797711 43.412966 
L 398.233196 41.951421 
L 398.668682 41.060998 
L 399.104167 40.64083 
L 399.539653 40.895435 
L 400.410624 40.560136 
L 400.84611 40.603961 
L 401.281596 39.181372 
L 401.717081 36.061415 
L 402.152567 34.990125 
L 402.152567 34.990125 
" clip-path="url(#pd19ff8dd8d)" style="fill: none; stroke: #2ca02c; stroke-opacity: 0.8; stroke-width: 1.5; stroke-linecap: square"/>
   </g>
   <g id="line2d_18">
    <path d="M 147.393467 198.224059 
L 149.135409 198.007018 
L 150.006381 199.063004 
L 150.441866 198.548924 
L 150.877352 197.728065 
L 151.312838 197.163204 
L 152.183809 197.20842 
L 152.619295 198.203885 
L 153.05478 198.215015 
L 153.490266 197.34894 
L 154.361237 197.309289 
L 154.796723 196.278346 
L 155.232208 197.17016 
L 156.10318 197.072074 
L 156.538665 196.4933 
L 157.409637 196.371562 
L 157.845122 195.401837 
L 158.280608 195.96322 
L 158.716094 195.894352 
L 159.151579 196.512082 
L 159.587065 196.457822 
L 160.022551 194.234548 
L 160.893522 194.247765 
L 161.764493 194.261678 
L 162.199979 195.463053 
L 163.07095 195.5354 
L 163.941921 195.450532 
L 164.377407 194.65889 
L 165.248378 194.572631 
L 166.119349 194.368112 
L 167.425806 194.391068 
L 167.861292 194.237331 
L 168.296778 193.794902 
L 169.603235 193.71699 
L 170.03872 193.524993 
L 170.474206 193.462385 
L 170.909692 192.940653 
L 171.345177 192.126751 
L 171.780663 191.986231 
L 172.216148 190.594946 
L 172.651634 190.316689 
L 173.08712 190.990071 
L 173.522605 190.967115 
L 174.393577 190.549034 
L 174.829062 191.029723 
L 175.264548 189.40818 
L 175.700034 189.220356 
L 176.135519 189.185574 
L 176.571005 188.793927 
L 177.441976 188.610278 
L 178.312947 188.577582 
L 178.748433 189.048532 
L 179.183919 188.875317 
L 179.619404 187.945243 
L 180.05489 187.901418 
L 180.925861 188.999837 
L 181.361347 189.765044 
L 181.796833 188.841231 
L 182.667804 188.119154 
L 183.103289 188.245065 
L 183.538775 187.988373 
L 183.974261 186.874649 
L 184.845232 186.967865 
L 185.280718 187.425598 
L 185.716203 187.47638 
L 186.151689 185.996053 
L 187.02266 185.570319 
L 187.458146 185.987705 
L 187.893632 185.306671 
L 188.329117 184.30425 
L 190.07106 184.080253 
L 190.506545 184.503899 
L 190.942031 184.487899 
L 191.377517 184.090687 
L 191.813002 185.719187 
L 192.248488 185.593971 
L 192.683974 184.434335 
L 193.119459 184.472595 
L 193.554945 183.770692 
L 193.990431 183.628085 
L 194.425916 183.246873 
L 194.861402 182.595751 
L 195.732373 182.242365 
L 196.167859 183.050006 
L 197.474316 182.966529 
L 198.345287 181.260118 
L 198.780773 181.113337 
L 199.216258 181.599591 
L 199.651744 181.539766 
L 200.522715 180.361347 
L 202.264658 180.330739 
L 202.700143 180.275088 
L 203.135629 180.462911 
L 203.571115 179.328318 
L 204.877572 179.258754 
L 205.748543 178.117204 
L 206.619514 177.854251 
L 207.055 177.254607 
L 207.490485 178.09077 
L 207.925971 177.066088 
L 208.796942 176.702963 
L 209.232428 176.636877 
L 209.667914 176.138797 
L 210.103399 175.857061 
L 211.845342 175.624717 
L 212.280827 175.159332 
L 212.716313 175.132202 
L 213.151799 175.670629 
L 213.587284 175.594108 
L 214.02277 176.048363 
L 214.458256 173.841785 
L 214.893741 173.712395 
L 215.329227 173.257445 
L 216.200198 173.004231 
L 216.635684 173.043882 
L 217.071169 172.670322 
L 217.506655 171.824421 
L 217.942141 172.228589 
L 218.813112 172.138851 
L 219.684083 170.198009 
L 220.555055 170.141661 
L 220.99054 169.271413 
L 221.426026 169.233848 
L 222.296997 168.874896 
L 222.732483 168.323947 
L 223.167968 169.13298 
L 223.603454 168.623074 
L 224.03894 165.423118 
L 224.474425 165.391814 
L 225.345397 162.69272 
L 225.780882 163.231148 
L 226.651854 162.928543 
L 227.087339 162.600895 
L 227.522825 161.9456 
L 227.958311 161.871862 
L 228.393796 161.666647 
L 228.829282 162.392203 
L 229.264767 162.342116 
L 229.700253 160.689269 
L 230.571224 160.338666 
L 231.00671 160.366491 
L 231.442196 159.905976 
L 231.877681 157.958872 
L 232.313167 157.894873 
L 232.748653 157.180448 
L 234.926081 156.540457 
L 235.797052 157.298012 
L 236.232538 156.720628 
L 236.668023 156.571065 
L 237.103509 155.949161 
L 237.538995 155.839249 
L 237.97448 155.312648 
L 238.409966 155.540818 
L 239.716423 155.725164 
L 240.151908 155.091433 
L 240.587394 155.019086 
L 241.458365 154.147446 
L 242.764822 154.045882 
L 244.071279 153.602062 
L 244.506765 153.582584 
L 244.942251 155.206214 
L 245.377736 154.591266 
L 245.813222 153.563106 
L 246.248707 153.453195 
L 247.555164 151.860869 
L 247.99065 151.177052 
L 248.426136 151.218095 
L 248.861621 149.869244 
L 249.297107 150.928012 
L 249.732593 150.848709 
L 250.168078 149.543683 
L 251.039049 149.503336 
L 251.474535 149.949939 
L 251.910021 149.878983 
L 252.345506 148.505089 
L 252.780992 148.603174 
L 253.216478 148.989256 
L 254.087449 148.394482 
L 254.522935 148.516915 
L 255.829392 146.569115 
L 256.264877 146.744417 
L 256.700363 146.24912 
L 257.135848 147.090847 
L 257.571334 146.508594 
L 258.00682 145.593129 
L 258.442305 145.540956 
L 259.313277 144.673489 
L 259.748762 144.729141 
L 260.184248 145.430348 
L 261.055219 144.041846 
L 261.490705 144.907225 
L 261.926191 144.34932 
L 262.361676 144.327755 
L 262.797162 143.5382 
L 263.232647 142.456476 
L 264.103619 140.969888 
L 264.97459 140.878063 
L 265.845561 140.757717 
L 266.281047 140.03564 
L 266.716533 140.248507 
L 267.152018 140.64711 
L 267.587504 139.64608 
L 268.458475 139.041567 
L 268.893961 138.922612 
L 269.764932 137.986972 
L 270.200418 137.58976 
L 270.635903 137.025594 
L 271.071389 138.345924 
L 271.506875 137.707324 
L 271.94236 135.974478 
L 272.377846 136.101085 
L 272.813332 136.656904 
L 273.248817 137.520196 
L 273.684303 136.845423 
L 274.119788 135.83048 
L 274.99076 134.891363 
L 275.426245 135.385269 
L 275.861731 134.79119 
L 276.297217 133.320602 
L 276.732702 133.201647 
L 277.168188 133.332428 
L 277.603674 134.430847 
L 278.039159 134.332762 
L 278.910131 134.420413 
L 279.345616 134.76406 
L 279.781102 135.786655 
L 280.216587 135.888219 
L 280.652073 136.13865 
L 281.523044 136.11152 
L 282.394016 135.009622 
L 283.264987 136.605426 
L 284.571444 135.767177 
L 285.442415 134.033635 
L 285.877901 133.616945 
L 286.313386 132.111575 
L 287.184358 130.87194 
L 288.055329 130.83507 
L 288.490815 131.838883 
L 288.9263 131.187066 
L 289.361786 128.688317 
L 289.797272 128.650753 
L 290.232757 129.249701 
L 290.668243 128.594406 
L 291.539214 127.770765 
L 292.410185 127.655288 
L 292.845671 128.63684 
L 293.281157 128.547798 
L 293.716642 127.57042 
L 294.587614 127.438248 
L 295.023099 128.519276 
L 295.458585 128.526928 
L 295.894071 126.979123 
L 296.329556 126.932515 
L 296.765042 127.098774 
L 297.200527 128.081021 
L 297.636013 128.098412 
L 298.071499 125.902269 
L 298.94247 125.8174 
L 299.377956 127.765895 
L 299.813441 127.739461 
L 300.248927 127.05147 
L 300.684413 126.996514 
L 301.119898 127.093209 
L 301.555384 128.097021 
L 301.99087 127.959979 
L 302.426355 124.602808 
L 302.861841 124.990977 
L 303.297326 124.917934 
L 303.732812 124.986803 
L 304.168298 125.920355 
L 304.603783 125.770792 
L 305.474755 125.646272 
L 305.91024 127.213555 
L 306.345726 127.155121 
L 306.781212 126.049049 
L 307.216697 126.094266 
L 307.652183 126.602781 
L 308.087668 125.62262 
L 308.523154 126.08244 
L 308.95864 129.239962 
L 309.394125 129.226745 
L 309.829611 130.663247 
L 310.265097 131.692798 
L 310.700582 131.694885 
L 311.136068 130.803767 
L 311.571554 130.833679 
L 312.007039 130.458728 
L 312.442525 130.61316 
L 312.878011 130.560987 
L 313.748982 129.274744 
L 314.184467 129.272657 
L 314.619953 130.881679 
L 315.055439 130.188123 
L 315.490924 129.278918 
L 316.361896 129.909866 
L 316.797381 131.723406 
L 317.232867 131.238543 
L 317.668353 130.997851 
L 318.103838 130.375251 
L 318.539324 129.97943 
L 318.97481 131.027763 
L 319.410295 130.631247 
L 319.845781 129.658739 
L 320.281266 129.706042 
L 320.716752 130.067081 
L 321.152238 131.187761 
L 321.587723 131.12098 
L 322.023209 126.106788 
L 322.458695 125.696358 
L 323.329666 126.469913 
L 324.200637 124.734285 
L 324.636123 124.965934 
L 325.071608 125.547491 
L 325.507094 125.528013 
L 325.94258 125.933573 
L 326.378065 125.429927 
L 327.249037 125.384015 
L 328.120008 125.648359 
L 328.555494 124.733589 
L 328.990979 124.254291 
L 329.426465 124.237596 
L 329.861951 124.762806 
L 330.297436 124.341247 
L 331.168407 124.280726 
L 331.603893 123.868905 
L 332.039379 124.661938 
L 332.474864 125.028541 
L 332.91035 125.149583 
L 333.345836 124.670981 
L 333.781321 124.948543 
L 334.216807 124.330812 
L 334.652293 123.199697 
L 335.087778 124.478288 
L 335.95875 124.502636 
L 336.394235 124.227857 
L 336.829721 123.632387 
L 337.265206 124.883152 
L 337.700692 123.717951 
L 338.136178 123.714473 
L 338.571663 124.860196 
L 339.007149 125.08141 
L 339.442635 124.975673 
L 339.87812 124.283508 
L 340.313606 124.769762 
L 340.749092 126.771126 
L 341.184577 126.794778 
L 341.620063 127.170425 
L 342.055548 126.085918 
L 342.92652 127.673375 
L 343.362005 127.530072 
L 343.797491 128.09563 
L 344.232977 125.804879 
L 344.668462 125.441753 
L 345.539434 127.047296 
L 345.974919 126.929733 
L 346.410405 126.138091 
L 346.845891 126.610433 
L 347.281376 126.531825 
L 347.716862 127.243468 
L 348.152347 128.183976 
L 348.587833 127.915458 
L 349.023319 128.656318 
L 349.458804 129.619783 
L 349.89429 128.951966 
L 350.329776 128.999965 
L 350.765261 127.704679 
L 351.200747 128.428147 
L 351.636233 128.828141 
L 352.071718 127.424335 
L 352.507204 128.717534 
L 352.94269 127.847981 
L 353.378175 128.130412 
L 353.813661 127.964153 
L 354.684632 128.791272 
L 355.120118 128.583971 
L 355.555603 129.03266 
L 355.991089 125.861921 
L 356.426575 125.599664 
L 356.86206 127.308162 
L 357.733032 125.651142 
L 358.168517 125.69288 
L 359.91046 127.843807 
L 360.345945 125.619142 
L 360.781431 126.192352 
L 361.216917 127.266424 
L 361.652402 124.812197 
L 362.087888 124.2849 
L 363.394345 124.243857 
L 363.829831 123.284565 
L 364.265316 122.886658 
L 364.700802 122.748921 
L 365.136287 122.136755 
L 365.571773 122.013626 
L 366.007259 119.432792 
L 366.442744 119.353489 
L 367.313716 120.408083 
L 367.749201 120.353127 
L 368.184687 118.975755 
L 369.055658 118.401154 
L 369.491144 118.247417 
L 369.92663 119.08984 
L 370.797601 119.780613 
L 371.233086 121.435547 
L 371.668572 121.221289 
L 372.104058 120.618167 
L 372.539543 117.107955 
L 373.410515 115.509368 
L 373.846 115.424499 
L 374.281486 117.40082 
L 374.716972 113.894086 
L 375.152457 112.834622 
L 375.587943 113.778609 
L 376.8944 113.544177 
L 377.329885 113.668002 
L 377.765371 111.814114 
L 378.200857 111.404381 
L 378.636342 112.213413 
L 379.071828 110.05066 
L 379.507314 109.846141 
L 380.378285 109.819011 
L 380.813771 111.303512 
L 381.684742 109.76962 
L 382.120227 104.619778 
L 382.555713 104.841688 
L 382.991199 107.035049 
L 383.426684 102.365896 
L 383.86217 101.652167 
L 384.733141 101.850425 
L 385.168627 102.893193 
L 386.039598 101.676514 
L 386.475084 99.533935 
L 386.91057 100.099492 
L 387.346055 104.146741 
L 387.781541 104.118915 
L 388.217026 104.277522 
L 388.652512 103.064321 
L 389.087998 102.999626 
L 389.523483 104.033351 
L 389.958969 103.058756 
L 390.394455 103.132494 
L 390.82994 102.601719 
L 391.265426 102.454243 
L 391.700912 103.535271 
L 392.136397 102.324157 
L 392.571883 102.145377 
L 393.007369 103.03093 
L 393.442854 102.566937 
L 393.87834 102.640675 
L 394.313825 101.159652 
L 394.749311 100.986437 
L 395.184797 101.59095 
L 395.620282 101.583994 
L 396.055768 101.70434 
L 396.491254 99.302981 
L 396.926739 99.907495 
L 397.362225 100.829221 
L 397.797711 100.695658 
L 398.233196 101.395475 
L 398.668682 101.305041 
L 399.104167 100.587833 
L 399.539653 98.026477 
L 399.975139 97.496398 
L 400.410624 97.710656 
L 400.84611 95.504077 
L 401.717081 93.959055 
L 402.152567 94.453657 
L 402.152567 94.453657 
" clip-path="url(#pd19ff8dd8d)" style="fill: none; stroke: #d62728; stroke-opacity: 0.8; stroke-width: 1.5; stroke-linecap: square"/>
   </g>
   <g id="line2d_19">
    <path d="M 147.393467 176.378793 
L 148.264438 176.300881 
L 148.699924 176.13671 
L 149.135409 174.976378 
L 150.006381 174.821945 
L 150.441866 174.288387 
L 151.748323 174.010826 
L 152.619295 174.070651 
L 153.05478 174.942291 
L 153.925752 173.872393 
L 154.361237 173.879349 
L 154.796723 173.190663 
L 156.10318 172.922145 
L 156.538665 173.389617 
L 157.409637 173.175359 
L 157.845122 171.944072 
L 158.280608 171.777117 
L 158.716094 172.396239 
L 159.151579 172.385805 
L 159.587065 172.214676 
L 160.022551 171.581642 
L 160.458036 171.602511 
L 160.893522 172.181286 
L 161.764493 172.197285 
L 162.199979 172.508933 
L 163.506436 172.620932 
L 163.941921 173.224054 
L 164.377407 172.537455 
L 164.812893 172.4025 
L 165.248378 173.253271 
L 166.119349 173.093273 
L 166.554835 172.012244 
L 167.861292 172.113113 
L 168.296778 172.583367 
L 168.732263 171.548946 
L 169.167749 171.517643 
L 169.603235 172.133286 
L 170.03872 171.864073 
L 170.474206 171.969115 
L 170.909692 171.411905 
L 171.780663 171.567729 
L 172.216148 171.010519 
L 172.651634 171.66651 
L 173.08712 172.933275 
L 173.522605 173.087012 
L 174.829062 172.990318 
L 175.264548 171.88842 
L 176.135519 171.619902 
L 176.571005 170.662698 
L 177.006491 170.515222 
L 177.441976 171.362514 
L 177.877462 171.482165 
L 178.312947 172.576411 
L 179.183919 172.576411 
L 179.619404 171.525295 
L 180.05489 171.523208 
L 180.490376 172.394152 
L 180.925861 172.357979 
L 181.361347 172.454673 
L 181.796833 171.792421 
L 182.232318 171.714509 
L 182.667804 172.474151 
L 183.538775 172.54302 
L 183.974261 171.63938 
L 184.845232 171.614337 
L 185.280718 171.499556 
L 185.716203 172.403891 
L 186.151689 171.310341 
L 186.587175 171.332602 
L 187.02266 171.832073 
L 187.458146 171.924594 
L 187.893632 171.779204 
L 188.329117 171.132257 
L 188.764603 171.248429 
L 189.635574 171.334689 
L 190.07106 172.033809 
L 190.506545 171.532251 
L 190.942031 171.55312 
L 191.377517 172.252241 
L 191.813002 172.225111 
L 192.248488 172.01781 
L 192.683974 171.472426 
L 193.990431 171.701292 
L 194.425916 172.355196 
L 194.861402 171.356949 
L 195.732373 171.321471 
L 196.167859 171.47173 
L 196.603344 172.05607 
L 197.474316 171.96981 
L 198.345287 170.88113 
L 198.780773 171.49886 
L 200.522715 171.734683 
L 200.958201 172.629975 
L 201.393686 172.011549 
L 201.829172 172.003897 
L 202.264658 171.816769 
L 202.700143 172.474151 
L 203.135629 172.588237 
L 203.571115 171.992071 
L 204.442086 171.909289 
L 204.877572 172.774669 
L 205.313057 172.646671 
L 205.748543 171.568424 
L 206.619514 171.855725 
L 207.055 172.686322 
L 207.490485 172.659192 
L 207.925971 172.097809 
L 208.796942 172.035896 
L 209.232428 172.571541 
L 209.667914 172.630671 
L 210.103399 171.424426 
L 211.409856 171.275559 
L 211.845342 171.153126 
L 212.280827 171.157995 
L 212.716313 170.984085 
L 214.02277 170.86026 
L 214.458256 169.814709 
L 214.893741 169.785492 
L 215.329227 169.912795 
L 215.764713 169.867578 
L 216.200198 170.863739 
L 216.635684 170.495048 
L 217.506655 170.254356 
L 217.942141 170.729479 
L 219.248598 170.687045 
L 219.684083 170.031054 
L 220.119569 170.059576 
L 220.555055 169.910012 
L 220.99054 169.889143 
L 221.426026 169.711754 
L 222.296997 169.592799 
L 222.732483 169.702711 
L 223.167968 170.559047 
L 223.603454 170.550699 
L 224.03894 169.768101 
L 224.474425 168.54377 
L 224.909911 168.355251 
L 225.345397 168.799767 
L 225.780882 168.757333 
L 226.216368 167.247788 
L 226.651854 167.06553 
L 227.522825 167.0064 
L 228.393796 167.151789 
L 228.829282 167.768824 
L 229.264767 167.578218 
L 229.700253 166.303105 
L 230.571224 166.166759 
L 231.00671 167.402221 
L 231.442196 167.246397 
L 231.877681 166.216846 
L 232.313167 166.188324 
L 232.748653 166.045718 
L 233.619624 166.02624 
L 234.055109 166.284323 
L 234.926081 166.507624 
L 235.361566 167.059965 
L 235.797052 167.032139 
L 236.232538 166.271802 
L 236.668023 166.262063 
L 237.97448 165.71807 
L 238.409966 165.289554 
L 238.845452 165.673549 
L 239.280937 165.528855 
L 239.716423 166.093717 
L 240.587394 166.143803 
L 241.02288 166.20502 
L 241.458365 165.549029 
L 242.329337 165.544855 
L 243.200308 165.617897 
L 244.071279 165.332684 
L 244.506765 165.367466 
L 244.942251 165.92885 
L 245.377736 165.781373 
L 245.813222 164.698954 
L 246.248707 164.629389 
L 246.684193 164.703823 
L 247.555164 164.533391 
L 248.426136 164.404697 
L 248.861621 164.399827 
L 249.297107 164.917385 
L 249.732593 164.90069 
L 250.603564 163.006455 
L 251.474535 163.086454 
L 252.345506 160.986309 
L 252.780992 160.350491 
L 253.216478 160.460403 
L 253.651963 160.831181 
L 254.087449 159.588067 
L 254.522935 159.512242 
L 254.95842 157.760614 
L 255.393906 157.75644 
L 256.264877 154.610049 
L 256.700363 154.499441 
L 257.135848 154.991261 
L 257.571334 154.859089 
L 258.00682 153.564498 
L 258.442305 153.424673 
L 258.877791 153.430934 
L 259.748762 153.273719 
L 260.184248 151.531134 
L 261.055219 151.619481 
L 261.490705 152.454252 
L 262.361676 152.482773 
L 262.797162 152.382601 
L 263.232647 151.730088 
L 264.97459 151.343311 
L 266.281047 151.337746 
L 266.716533 151.634089 
L 267.587504 151.473396 
L 268.022989 150.788884 
L 268.458475 150.900882 
L 268.893961 151.992345 
L 269.329446 151.341919 
L 270.200418 151.588177 
L 270.635903 151.580525 
L 271.071389 152.725553 
L 271.506875 152.591989 
L 271.94236 152.671988 
L 272.377846 150.914099 
L 272.813332 151.062967 
L 273.248817 151.579829 
L 273.684303 151.538786 
L 274.119788 151.361397 
L 274.555274 150.618451 
L 274.99076 150.326977 
L 275.426245 150.967664 
L 276.297217 150.911317 
L 276.732702 150.133588 
L 277.168188 150.283847 
L 277.603674 150.779145 
L 278.474645 150.768014 
L 278.910131 149.903331 
L 279.345616 149.860896 
L 279.781102 150.767319 
L 280.216587 149.594465 
L 280.652073 149.615334 
L 281.087559 149.451858 
L 281.523044 149.428207 
L 281.95853 149.254992 
L 282.394016 148.497437 
L 282.829501 147.993792 
L 283.264987 148.587175 
L 284.135958 148.215702 
L 285.00693 148.157963 
L 285.442415 147.493624 
L 285.877901 147.470668 
L 286.313386 148.053617 
L 286.748872 147.335714 
L 287.184358 147.534667 
L 288.055329 147.469973 
L 288.490815 148.077269 
L 288.9263 148.086312 
L 289.361786 147.917271 
L 289.797272 147.011544 
L 290.232757 147.108934 
L 290.668243 148.256049 
L 291.103728 147.111021 
L 291.539214 146.973979 
L 291.9747 146.971892 
L 292.410185 146.089122 
L 292.845671 146.58442 
L 293.281157 146.698505 
L 293.716642 146.626854 
L 294.152128 146.155208 
L 294.587614 146.014688 
L 295.023099 147.091543 
L 295.894071 147.056065 
L 296.329556 146.273467 
L 296.765042 146.384074 
L 297.200527 147.015022 
L 297.636013 147.172238 
L 298.071499 147.181281 
L 298.506984 146.749982 
L 298.94247 146.763895 
L 299.377956 147.0505 
L 300.248927 146.839025 
L 300.684413 145.68078 
L 301.119898 145.581999 
L 301.555384 146.532942 
L 301.99087 146.502334 
L 302.426355 145.63278 
L 302.861841 144.450188 
L 303.297326 144.352798 
L 304.603783 144.417493 
L 305.039269 139.874251 
L 305.474755 139.955641 
L 305.91024 140.855107 
L 306.345726 140.919106 
L 306.781212 140.838411 
L 307.216697 139.876338 
L 307.652183 139.780339 
L 308.087668 139.844338 
L 308.523154 139.129218 
L 308.95864 139.85686 
L 309.394125 140.874585 
L 309.829611 140.825194 
L 310.265097 141.458229 
L 310.700582 141.298231 
L 311.136068 142.738211 
L 312.007039 140.694413 
L 312.442525 141.365013 
L 312.878011 140.315984 
L 313.313496 140.146247 
L 314.184467 140.132334 
L 314.619953 140.366766 
L 315.490924 140.498242 
L 315.92641 139.42417 
L 316.361896 139.545907 
L 316.797381 140.446069 
L 317.232867 139.550081 
L 317.668353 139.506951 
L 318.103838 138.559486 
L 318.539324 138.510791 
L 318.97481 139.300346 
L 319.845781 139.103479 
L 320.281266 137.544544 
L 320.716752 137.528544 
L 321.152238 138.156709 
L 322.023209 138.24923 
L 322.458695 136.949074 
L 322.89418 137.170288 
L 323.329666 138.23323 
L 324.200637 138.348706 
L 324.636123 137.289938 
L 325.071608 137.280199 
L 325.507094 136.533079 
L 325.94258 136.509427 
L 326.378065 137.191853 
L 326.813551 136.272909 
L 327.249037 136.256213 
L 327.684522 137.37272 
L 328.120008 136.338299 
L 328.555494 134.92684 
L 328.990979 132.645133 
L 329.426465 132.613829 
L 329.861951 132.179052 
L 330.732922 132.16653 
L 331.168407 129.635783 
L 331.603893 129.521697 
L 332.039379 130.400294 
L 333.345836 130.617334 
L 333.781321 130.610378 
L 334.652293 129.31857 
L 335.087778 128.396147 
L 335.523264 129.260136 
L 335.95875 129.334569 
L 337.265206 132.156096 
L 337.700692 132.204791 
L 338.136178 132.064271 
L 338.571663 132.550525 
L 339.007149 133.904246 
L 339.442635 133.776943 
L 339.87812 134.667366 
L 340.313606 134.631888 
L 340.749092 136.925422 
L 341.184577 138.399488 
L 341.620063 138.410619 
L 342.055548 137.478458 
L 342.491034 137.552891 
L 342.92652 138.807135 
L 343.362005 137.953581 
L 343.797491 136.800206 
L 344.232977 135.176576 
L 344.668462 135.18075 
L 345.103948 137.502805 
L 345.539434 136.444733 
L 345.974919 136.34943 
L 346.410405 135.383182 
L 347.716862 135.235706 
L 348.152347 134.648583 
L 348.587833 133.558511 
L 349.89429 133.488947 
L 350.329776 132.4587 
L 350.765261 131.773492 
L 351.200747 131.626712 
L 351.636233 131.774884 
L 352.071718 131.763753 
L 352.507204 130.811419 
L 352.94269 130.524118 
L 353.813661 130.443424 
L 354.249146 131.06185 
L 355.555603 130.666725 
L 355.991089 129.9363 
L 356.86206 129.726216 
L 357.297546 130.333512 
L 358.604003 130.275774 
L 359.039488 130.29873 
L 359.474974 130.943591 
L 359.91046 131.035416 
L 360.345945 129.84378 
L 360.781431 129.831954 
L 361.216917 129.662217 
L 361.652402 129.220484 
L 362.087888 129.160659 
L 362.958859 129.210745 
L 363.394345 129.004835 
L 363.829831 129.121007 
L 364.700802 128.755795 
L 365.136287 129.686564 
L 365.571773 129.566218 
L 366.007259 128.632666 
L 366.442744 128.45806 
L 366.87823 128.513015 
L 367.313716 129.198223 
L 367.749201 130.177688 
L 368.184687 128.985357 
L 369.491144 129.009704 
L 369.92663 128.151977 
L 370.362115 128.002414 
L 371.233086 127.879981 
L 371.668572 128.17215 
L 372.104058 128.087978 
L 372.539543 126.774604 
L 373.410515 126.614607 
L 373.846 125.497405 
L 374.716972 125.88766 
L 375.152457 124.705763 
L 375.587943 124.694633 
L 376.023428 125.690793 
L 376.458914 125.802096 
L 376.8944 124.673764 
L 377.329885 125.550969 
L 377.765371 124.888717 
L 378.200857 124.842805 
L 378.636342 123.910644 
L 379.507314 123.542649 
L 379.942799 123.454998 
L 380.378285 123.221958 
L 380.813771 122.75866 
L 381.249256 123.594126 
L 381.684742 123.576735 
L 382.120227 122.527011 
L 382.555713 122.347535 
L 382.991199 122.299535 
L 383.426684 122.379534 
L 383.86217 121.63311 
L 384.297656 122.277275 
L 385.168627 122.238319 
L 385.604113 123.20874 
L 386.039598 123.179523 
L 386.475084 122.419186 
L 386.91057 122.261275 
L 387.346055 123.04109 
L 387.781541 124.204901 
L 388.217026 124.340551 
L 388.652512 123.272044 
L 389.087998 123.260914 
L 389.523483 123.670647 
L 389.958969 127.0946 
L 390.394455 125.928007 
L 390.82994 125.152366 
L 391.265426 125.105758 
L 392.136397 125.174626 
L 393.442854 125.280364 
L 393.87834 125.142627 
L 394.313825 124.091511 
L 394.749311 124.130467 
L 395.184797 123.964208 
L 395.620282 123.129437 
L 396.055768 122.955526 
L 396.491254 121.914845 
L 396.926739 122.738486 
L 397.362225 121.717283 
L 397.797711 122.86231 
L 398.668682 120.921467 
L 399.104167 120.91312 
L 399.539653 121.15729 
L 399.975139 121.013292 
L 400.410624 119.949655 
L 401.281596 119.592094 
L 401.717081 118.561152 
L 402.152567 119.487748 
L 402.152567 119.487748 
" clip-path="url(#pd19ff8dd8d)" style="fill: none; stroke: #9467bd; stroke-opacity: 0.8; stroke-width: 1.5; stroke-linecap: square"/>
   </g>
   <g id="patch_3">
    <path d="M 62.038281 288.430125 
L 62.038281 22.318125 
" style="fill: none; stroke: #000000; stroke-width: 0.8; stroke-linejoin: miter; stroke-linecap: square"/>
   </g>
   <g id="patch_4">
    <path d="M 419.158281 288.430125 
L 419.158281 22.318125 
" style="fill: none; stroke: #000000; stroke-width: 0.8; stroke-linejoin: miter; stroke-linecap: square"/>
   </g>
   <g id="patch_5">
    <path d="M 62.038281 288.430125 
L 419.158281 288.430125 
" style="fill: none; stroke: #000000; stroke-width: 0.8; stroke-linejoin: miter; stroke-linecap: square"/>
   </g>
   <g id="patch_6">
    <path d="M 62.038281 22.318125 
L 419.158281 22.318125 
" style="fill: none; stroke: #000000; stroke-width: 0.8; stroke-linejoin: miter; stroke-linecap: square"/>
   </g>
   <g id="text_17">
    <!-- Get children [leaf] -->
    <g transform="translate(186.188594 16.318125) scale(0.12 -0.12)">
     <defs>
      <path id="DejaVuSans-2a" d="M 3809 666 
L 3809 1919 
L 2778 1919 
L 2778 2438 
L 4434 2438 
L 4434 434 
Q 4069 175 3628 42 
Q 3188 -91 2688 -91 
Q 1594 -91 976 548 
Q 359 1188 359 2328 
Q 359 3472 976 4111 
Q 1594 4750 2688 4750 
Q 3144 4750 3555 4637 
Q 3966 4525 4313 4306 
L 4313 3634 
Q 3963 3931 3569 4081 
Q 3175 4231 2741 4231 
Q 1884 4231 1454 3753 
Q 1025 3275 1025 2328 
Q 1025 1384 1454 906 
Q 1884 428 2741 428 
Q 3075 428 3337 486 
Q 3600 544 3809 666 
z
" transform="scale(0.015625)"/>
      <path id="DejaVuSans-4b" d="M 3513 2113 
L 3513 0 
L 2938 0 
L 2938 2094 
Q 2938 2591 2744 2837 
Q 2550 3084 2163 3084 
Q 1697 3084 1428 2787 
Q 1159 2491 1159 1978 
L 1159 0 
L 581 0 
L 581 4863 
L 1159 4863 
L 1159 2956 
Q 1366 3272 1645 3428 
Q 1925 3584 2291 3584 
Q 2894 3584 3203 3211 
Q 3513 2838 3513 2113 
z
" transform="scale(0.015625)"/>
      <path id="DejaVuSans-55" d="M 2631 2963 
Q 2534 3019 2420 3045 
Q 2306 3072 2169 3072 
Q 1681 3072 1420 2755 
Q 1159 2438 1159 1844 
L 1159 0 
L 581 0 
L 581 3500 
L 1159 3500 
L 1159 2956 
Q 1341 3275 1631 3429 
Q 1922 3584 2338 3584 
Q 2397 3584 2469 3576 
Q 2541 3569 2628 3553 
L 2631 2963 
z
" transform="scale(0.015625)"/>
      <path id="DejaVuSans-3e" d="M 550 4863 
L 1875 4863 
L 1875 4416 
L 1125 4416 
L 1125 -397 
L 1875 -397 
L 1875 -844 
L 550 -844 
L 550 4863 
z
" transform="scale(0.015625)"/>
      <path id="DejaVuSans-40" d="M 1947 4863 
L 1947 -844 
L 622 -844 
L 622 -397 
L 1369 -397 
L 1369 4416 
L 622 4416 
L 622 4863 
L 1947 4863 
z
" transform="scale(0.015625)"/>
     </defs>
     <use xlink:href="#DejaVuSans-2a"/>
     <use xlink:href="#DejaVuSans-48" transform="translate(77.484375 0)"/>
     <use xlink:href="#DejaVuSans-57" transform="translate(139.015625 0)"/>
     <use xlink:href="#DejaVuSans-3" transform="translate(178.21875 0)"/>
     <use xlink:href="#DejaVuSans-46" transform="translate(210 0)"/>
     <use xlink:href="#DejaVuSans-4b" transform="translate(264.984375 0)"/>
     <use xlink:href="#DejaVuSans-4c" transform="translate(328.359375 0)"/>
     <use xlink:href="#DejaVuSans-4f" transform="translate(356.140625 0)"/>
     <use xlink:href="#DejaVuSans-47" transform="translate(383.921875 0)"/>
     <use xlink:href="#DejaVuSans-55" transform="translate(447.40625 0)"/>
     <use xlink:href="#DejaVuSans-48" transform="translate(486.3125 0)"/>
     <use xlink:href="#DejaVuSans-51" transform="translate(547.84375 0)"/>
     <use xlink:href="#DejaVuSans-3" transform="translate(611.21875 0)"/>
     <use xlink:href="#DejaVuSans-3e" transform="translate(643 0)"/>
     <use xlink:href="#DejaVuSans-4f" transform="translate(682.015625 0)"/>
     <use xlink:href="#DejaVuSans-48" transform="translate(709.796875 0)"/>
     <use xlink:href="#DejaVuSans-44" transform="translate(771.328125 0)"/>
     <use xlink:href="#DejaVuSans-49" transform="translate(832.609375 0)"/>
     <use xlink:href="#DejaVuSans-40" transform="translate(867.8125 0)"/>
    </g>
   </g>
   <g id="legend_1">
    <g id="patch_7">
     <path d="M 93.035937 366.447687 
L 380.640625 366.447687 
Q 382.640625 366.447687 382.640625 364.447687 
L 382.640625 335.446125 
Q 382.640625 333.446125 380.640625 333.446125 
L 93.035937 333.446125 
Q 91.035937 333.446125 91.035937 335.446125 
L 91.035937 364.447687 
Q 91.035937 366.447687 93.035937 366.447687 
z
" style="fill: #4d4d4d; opacity: 0.5; stroke: #4d4d4d; stroke-linejoin: miter"/>
    </g>
    <g id="patch_8">
     <path d="M 91.035937 364.447687 
L 378.640625 364.447687 
Q 380.640625 364.447687 380.640625 362.447687 
L 380.640625 333.446125 
Q 380.640625 331.446125 378.640625 331.446125 
L 91.035937 331.446125 
Q 89.035937 331.446125 89.035937 333.446125 
L 89.035937 362.447687 
Q 89.035937 364.447687 91.035937 364.447687 
z
" style="fill: #ffffff; stroke: #cccccc; stroke-linejoin: miter"/>
    </g>
    <g id="line2d_20">
     <path d="M 93.035937 339.544562 
L 103.035937 339.544562 
L 113.035937 339.544562 
" style="fill: none; stroke: #1f77b4; stroke-opacity: 0.8; stroke-width: 1.5; stroke-linecap: square"/>
    </g>
    <g id="text_18">
     <!-- MPTT -->
     <g transform="translate(121.035937 343.044562) scale(0.1 -0.1)">
      <defs>
       <path id="DejaVuSans-30" d="M 628 4666 
L 1569 4666 
L 2759 1491 
L 3956 4666 
L 4897 4666 
L 4897 0 
L 4281 0 
L 4281 4097 
L 3078 897 
L 2444 897 
L 1241 4097 
L 1241 0 
L 628 0 
L 628 4666 
z
" transform="scale(0.015625)"/>
       <path id="DejaVuSans-33" d="M 1259 4147 
L 1259 2394 
L 2053 2394 
Q 2494 2394 2734 2622 
Q 2975 2850 2975 3272 
Q 2975 3691 2734 3919 
Q 2494 4147 2053 4147 
L 1259 4147 
z
M 628 4666 
L 2053 4666 
Q 2838 4666 3239 4311 
Q 3641 3956 3641 3272 
Q 3641 2581 3239 2228 
Q 2838 1875 2053 1875 
L 1259 1875 
L 1259 0 
L 628 0 
L 628 4666 
z
" transform="scale(0.015625)"/>
       <path id="DejaVuSans-37" d="M -19 4666 
L 3928 4666 
L 3928 4134 
L 2272 4134 
L 2272 0 
L 1638 0 
L 1638 4134 
L -19 4134 
L -19 4666 
z
" transform="scale(0.015625)"/>
      </defs>
      <use xlink:href="#DejaVuSans-30"/>
      <use xlink:href="#DejaVuSans-33" transform="translate(86.28125 0)"/>
      <use xlink:href="#DejaVuSans-37" transform="translate(146.578125 0)"/>
      <use xlink:href="#DejaVuSans-37" transform="translate(205.90625 0)"/>
     </g>
    </g>
    <g id="line2d_21">
     <path d="M 93.035937 354.545344 
L 103.035937 354.545344 
L 113.035937 354.545344 
" style="fill: none; stroke: #ff7f0e; stroke-opacity: 0.8; stroke-width: 1.5; stroke-linecap: square"/>
    </g>
    <g id="text_19">
     <!-- tree -->
     <g transform="translate(121.035937 358.045344) scale(0.1 -0.1)">
      <use xlink:href="#DejaVuSans-57"/>
      <use xlink:href="#DejaVuSans-55" transform="translate(39.203125 0)"/>
      <use xlink:href="#DejaVuSans-48" transform="translate(78.109375 0)"/>
      <use xlink:href="#DejaVuSans-48" transform="translate(139.640625 0)"/>
     </g>
    </g>
    <g id="line2d_22">
     <path d="M 167.734375 339.544562 
L 177.734375 339.544562 
L 187.734375 339.544562 
" style="fill: none; stroke: #2ca02c; stroke-opacity: 0.8; stroke-width: 1.5; stroke-linecap: square"/>
    </g>
    <g id="text_20">
     <!-- treebeard AL -->
     <g transform="translate(195.734375 343.044562) scale(0.1 -0.1)">
      <defs>
       <path id="DejaVuSans-2f" d="M 628 4666 
L 1259 4666 
L 1259 531 
L 3531 531 
L 3531 0 
L 628 0 
L 628 4666 
z
" transform="scale(0.015625)"/>
      </defs>
      <use xlink:href="#DejaVuSans-57"/>
      <use xlink:href="#DejaVuSans-55" transform="translate(39.203125 0)"/>
      <use xlink:href="#DejaVuSans-48" transform="translate(78.109375 0)"/>
      <use xlink:href="#DejaVuSans-48" transform="translate(139.640625 0)"/>
      <use xlink:href="#DejaVuSans-45" transform="translate(201.171875 0)"/>
      <use xlink:href="#DejaVuSans-48" transform="translate(264.65625 0)"/>
      <use xlink:href="#DejaVuSans-44" transform="translate(326.1875 0)"/>
      <use xlink:href="#DejaVuSans-55" transform="translate(387.46875 0)"/>
      <use xlink:href="#DejaVuSans-47" transform="translate(426.828125 0)"/>
      <use xlink:href="#DejaVuSans-3" transform="translate(490.3125 0)"/>
      <use xlink:href="#DejaVuSans-24" transform="translate(522.09375 0)"/>
      <use xlink:href="#DejaVuSans-2f" transform="translate(590.5 0)"/>
     </g>
    </g>
    <g id="line2d_23">
     <path d="M 167.734375 354.545344 
L 177.734375 354.545344 
L 187.734375 354.545344 
" style="fill: none; stroke: #d62728; stroke-opacity: 0.8; stroke-width: 1.5; stroke-linecap: square"/>
    </g>
    <g id="text_21">
     <!-- treebeard MP -->
     <g transform="translate(195.734375 358.045344) scale(0.1 -0.1)">
      <use xlink:href="#DejaVuSans-57"/>
      <use xlink:href="#DejaVuSans-55" transform="translate(39.203125 0)"/>
      <use xlink:href="#DejaVuSans-48" transform="translate(78.109375 0)"/>
      <use xlink:href="#DejaVuSans-48" transform="translate(139.640625 0)"/>
      <use xlink:href="#DejaVuSans-45" transform="translate(201.171875 0)"/>
      <use xlink:href="#DejaVuSans-48" transform="translate(264.65625 0)"/>
      <use xlink:href="#DejaVuSans-44" transform="translate(326.1875 0)"/>
      <use xlink:href="#DejaVuSans-55" transform="translate(387.46875 0)"/>
      <use xlink:href="#DejaVuSans-47" transform="translate(426.828125 0)"/>
      <use xlink:href="#DejaVuSans-3" transform="translate(490.3125 0)"/>
      <use xlink:href="#DejaVuSans-30" transform="translate(522.09375 0)"/>
      <use xlink:href="#DejaVuSans-33" transform="translate(608.375 0)"/>
     </g>
    </g>
    <g id="line2d_24">
     <path d="M 282.601562 339.544562 
L 292.601562 339.544562 
L 302.601562 339.544562 
" style="fill: none; stroke: #9467bd; stroke-opacity: 0.8; stroke-width: 1.5; stroke-linecap: square"/>
    </g>
    <g id="text_22">
     <!-- treebeard NS -->
     <g transform="translate(310.601562 343.044562) scale(0.1 -0.1)">
      <defs>
       <path id="DejaVuSans-31" d="M 628 4666 
L 1478 4666 
L 3547 763 
L 3547 4666 
L 4159 4666 
L 4159 0 
L 3309 0 
L 1241 3903 
L 1241 0 
L 628 0 
L 628 4666 
z
" transform="scale(0.015625)"/>
       <path id="DejaVuSans-36" d="M 3425 4513 
L 3425 3897 
Q 3066 4069 2747 4153 
Q 2428 4238 2131 4238 
Q 1616 4238 1336 4038 
Q 1056 3838 1056 3469 
Q 1056 3159 1242 3001 
Q 1428 2844 1947 2747 
L 2328 2669 
Q 3034 2534 3370 2195 
Q 3706 1856 3706 1288 
Q 3706 609 3251 259 
Q 2797 -91 1919 -91 
Q 1588 -91 1214 -16 
Q 841 59 441 206 
L 441 856 
Q 825 641 1194 531 
Q 1563 422 1919 422 
Q 2459 422 2753 634 
Q 3047 847 3047 1241 
Q 3047 1584 2836 1778 
Q 2625 1972 2144 2069 
L 1759 2144 
Q 1053 2284 737 2584 
Q 422 2884 422 3419 
Q 422 4038 858 4394 
Q 1294 4750 2059 4750 
Q 2388 4750 2728 4690 
Q 3069 4631 3425 4513 
z
" transform="scale(0.015625)"/>
      </defs>
      <use xlink:href="#DejaVuSans-57"/>
      <use xlink:href="#DejaVuSans-55" transform="translate(39.203125 0)"/>
      <use xlink:href="#DejaVuSans-48" transform="translate(78.109375 0)"/>
      <use xlink:href="#DejaVuSans-48" transform="translate(139.640625 0)"/>
      <use xlink:href="#DejaVuSans-45" transform="translate(201.171875 0)"/>
      <use xlink:href="#DejaVuSans-48" transform="translate(264.65625 0)"/>
      <use xlink:href="#DejaVuSans-44" transform="translate(326.1875 0)"/>
      <use xlink:href="#DejaVuSans-55" transform="translate(387.46875 0)"/>
      <use xlink:href="#DejaVuSans-47" transform="translate(426.828125 0)"/>
      <use xlink:href="#DejaVuSans-3" transform="translate(490.3125 0)"/>
      <use xlink:href="#DejaVuSans-31" transform="translate(522.09375 0)"/>
      <use xlink:href="#DejaVuSans-36" transform="translate(596.90625 0)"/>
     </g>
    </g>
   </g>
  </g>
 </g>
 <defs>
  <clipPath id="pd19ff8dd8d">
   <rect x="62.038281" y="22.318125" width="357.12" height="266.112"/>
  </clipPath>
 </defs>
</svg>
