<?xml version="1.0" encoding="utf-8" standalone="no"?>
<!DOCTYPE svg PUBLIC "-//W3C//DTD SVG 1.1//EN"
  "http://www.w3.org/Graphics/SVG/1.1/DTD/svg11.dtd">
<svg xmlns:xlink="http://www.w3.org/1999/xlink" width="423.05125pt" height="371.002375pt" viewBox="0 0 423.05125 371.002375" xmlns="http://www.w3.org/2000/svg" version="1.1">
 <metadata>
  <rdf:RDF xmlns:dc="http://purl.org/dc/elements/1.1/" xmlns:cc="http://creativecommons.org/ns#" xmlns:rdf="http://www.w3.org/1999/02/22-rdf-syntax-ns#">
   <cc:Work>
    <dc:type rdf:resource="http://purl.org/dc/dcmitype/StillImage"/>
    <dc:date>2026-06-28T06:53:52.866864</dc:date>
    <dc:format>image/svg+xml</dc:format>
    <dc:creator>
     <cc:Agent>
      <dc:title>Matplotlib v3.10.6, https://matplotlib.org/</dc:title>
     </cc:Agent>
    </dc:creator>
   </cc:Work>
  </rdf:RDF>
 </metadata>
 <defs>
  <style type="text/css">*{stroke-linejoin: round; stroke-linecap: butt}</style>
 </defs>
 <g id="figure_1">
  <g id="patch_1">
   <path d="M 0 371.002375 
L 423.05125 371.002375 
L 423.05125 0 
L 0 0 
z
" style="fill: #ffffff"/>
  </g>
  <g id="axes_1">
   <g id="patch_2">
    <path d="M 58.73125 288.430125 
L 415.85125 288.430125 
L 415.85125 22.318125 
L 58.73125 22.318125 
z
" style="fill: #ffffff"/>
   </g>
   <g id="matplotlib.axis_1">
    <g id="xtick_1">
     <g id="line2d_1">
      <defs>
       <path id="mf4319c5ba8" d="M 0 0 
L 0 3.5 
" style="stroke: #000000; stroke-width: 0.8"/>
      </defs>
      <g>
       <use xlink:href="#mf4319c5ba8" x="58.73125" y="288.430125" style="stroke: #000000; stroke-width: 0.8"/>
      </g>
     </g>
     <g id="text_1">
      <!-- 0 -->
      <g transform="translate(55.55 303.028562) scale(0.1 -0.1)">
       <defs>
        <path id="DejaVuSans-30" d="M 2034 4250 
Q 1547 4250 1301 3770 
Q 1056 3291 1056 2328 
Q 1056 1369 1301 889 
Q 1547 409 2034 409 
Q 2525 409 2770 889 
Q 3016 1369 3016 2328 
Q 3016 3291 2770 3770 
Q 2525 4250 2034 4250 
z
M 2034 4750 
Q 2819 4750 3233 4129 
Q 3647 3509 3647 2328 
Q 3647 1150 3233 529 
Q 2819 -91 2034 -91 
Q 1250 -91 836 529 
Q 422 1150 422 2328 
Q 422 3509 836 4129 
Q 1250 4750 2034 4750 
z
" transform="scale(0.015625)"/>
       </defs>
       <use xlink:href="#DejaVuSans-30"/>
      </g>
     </g>
    </g>
    <g id="xtick_2">
     <g id="line2d_2">
      <g>
       <use xlink:href="#mf4319c5ba8" x="102.279814" y="288.430125" style="stroke: #000000; stroke-width: 0.8"/>
      </g>
     </g>
     <g id="text_2">
      <!-- 500  -->
      <g transform="translate(91.147002 303.028562) scale(0.1 -0.1)">
       <defs>
        <path id="DejaVuSans-35" d="M 691 4666 
L 3169 4666 
L 3169 4134 
L 1269 4134 
L 1269 2991 
Q 1406 3038 1543 3061 
Q 1681 3084 1819 3084 
Q 2600 3084 3056 2656 
Q 3513 2228 3513 1497 
Q 3513 744 3044 326 
Q 2575 -91 1722 -91 
Q 1428 -91 1123 -41 
Q 819 9 494 109 
L 494 744 
Q 775 591 1075 516 
Q 1375 441 1709 441 
Q 2250 441 2565 725 
Q 2881 1009 2881 1497 
Q 2881 1984 2565 2268 
Q 2250 2553 1709 2553 
Q 1456 2553 1204 2497 
Q 953 2441 691 2322 
L 691 4666 
z
" transform="scale(0.015625)"/>
        <path id="DejaVuSans-20" transform="scale(0.015625)"/>
       </defs>
       <use xlink:href="#DejaVuSans-35"/>
       <use xlink:href="#DejaVuSans-30" transform="translate(63.623047 0)"/>
       <use xlink:href="#DejaVuSans-30" transform="translate(127.246094 0)"/>
       <use xlink:href="#DejaVuSans-20" transform="translate(190.869141 0)"/>
      </g>
     </g>
    </g>
    <g id="xtick_3">
     <g id="line2d_3">
      <g>
       <use xlink:href="#mf4319c5ba8" x="145.828378" y="288.430125" style="stroke: #000000; stroke-width: 0.8"/>
      </g>
     </g>
     <g id="text_3">
      <!-- 1 k -->
      <g transform="translate(138.162753 303.028562) scale(0.1 -0.1)">
       <defs>
        <path id="DejaVuSans-31" d="M 794 531 
L 1825 531 
L 1825 4091 
L 703 3866 
L 703 4441 
L 1819 4666 
L 2450 4666 
L 2450 531 
L 3481 531 
L 3481 0 
L 794 0 
L 794 531 
z
" transform="scale(0.015625)"/>
        <path id="DejaVuSans-6b" d="M 581 4863 
L 1159 4863 
L 1159 1991 
L 2875 3500 
L 3609 3500 
L 1753 1863 
L 3688 0 
L 2938 0 
L 1159 1709 
L 1159 0 
L 581 0 
L 581 4863 
z
" transform="scale(0.015625)"/>
       </defs>
       <use xlink:href="#DejaVuSans-31"/>
       <use xlink:href="#DejaVuSans-20" transform="translate(63.623047 0)"/>
       <use xlink:href="#DejaVuSans-6b" transform="translate(95.410156 0)"/>
      </g>
     </g>
    </g>
    <g id="xtick_4">
     <g id="line2d_4">
      <g>
       <use xlink:href="#mf4319c5ba8" x="189.376942" y="288.430125" style="stroke: #000000; stroke-width: 0.8"/>
      </g>
     </g>
     <g id="text_4">
      <!-- 1.5 k -->
      <g transform="translate(176.941005 303.028562) scale(0.1 -0.1)">
       <defs>
        <path id="DejaVuSans-2e" d="M 684 794 
L 1344 794 
L 1344 0 
L 684 0 
L 684 794 
z
" transform="scale(0.015625)"/>
       </defs>
       <use xlink:href="#DejaVuSans-31"/>
       <use xlink:href="#DejaVuSans-2e" transform="translate(63.623047 0)"/>
       <use xlink:href="#DejaVuSans-35" transform="translate(95.410156 0)"/>
       <use xlink:href="#DejaVuSans-20" transform="translate(159.033203 0)"/>
       <use xlink:href="#DejaVuSans-6b" transform="translate(190.820312 0)"/>
      </g>
     </g>
    </g>
    <g id="xtick_5">
     <g id="line2d_5">
      <g>
       <use xlink:href="#mf4319c5ba8" x="232.925506" y="288.430125" style="stroke: #000000; stroke-width: 0.8"/>
      </g>
     </g>
     <g id="text_5">
      <!-- 2 k -->
      <g transform="translate(225.259881 303.028562) scale(0.1 -0.1)">
       <defs>
        <path id="DejaVuSans-32" d="M 1228 531 
L 3431 531 
L 3431 0 
L 469 0 
L 469 531 
Q 828 903 1448 1529 
Q 2069 2156 2228 2338 
Q 2531 2678 2651 2914 
Q 2772 3150 2772 3378 
Q 2772 3750 2511 3984 
Q 2250 4219 1831 4219 
Q 1534 4219 1204 4116 
Q 875 4013 500 3803 
L 500 4441 
Q 881 4594 1212 4672 
Q 1544 4750 1819 4750 
Q 2544 4750 2975 4387 
Q 3406 4025 3406 3419 
Q 3406 3131 3298 2873 
Q 3191 2616 2906 2266 
Q 2828 2175 2409 1742 
Q 1991 1309 1228 531 
z
" transform="scale(0.015625)"/>
       </defs>
       <use xlink:href="#DejaVuSans-32"/>
       <use xlink:href="#DejaVuSans-20" transform="translate(63.623047 0)"/>
       <use xlink:href="#DejaVuSans-6b" transform="translate(95.410156 0)"/>
      </g>
     </g>
    </g>
    <g id="xtick_6">
     <g id="line2d_6">
      <g>
       <use xlink:href="#mf4319c5ba8" x="276.474071" y="288.430125" style="stroke: #000000; stroke-width: 0.8"/>
      </g>
     </g>
     <g id="text_6">
      <!-- 2.5 k -->
      <g transform="translate(264.038133 303.028562) scale(0.1 -0.1)">
       <use xlink:href="#DejaVuSans-32"/>
       <use xlink:href="#DejaVuSans-2e" transform="translate(63.623047 0)"/>
       <use xlink:href="#DejaVuSans-35" transform="translate(95.410156 0)"/>
       <use xlink:href="#DejaVuSans-20" transform="translate(159.033203 0)"/>
       <use xlink:href="#DejaVuSans-6b" transform="translate(190.820312 0)"/>
      </g>
     </g>
    </g>
    <g id="xtick_7">
     <g id="line2d_7">
      <g>
       <use xlink:href="#mf4319c5ba8" x="320.022635" y="288.430125" style="stroke: #000000; stroke-width: 0.8"/>
      </g>
     </g>
     <g id="text_7">
      <!-- 3 k -->
      <g transform="translate(312.35701 303.028562) scale(0.1 -0.1)">
       <defs>
        <path id="DejaVuSans-33" d="M 2597 2516 
Q 3050 2419 3304 2112 
Q 3559 1806 3559 1356 
Q 3559 666 3084 287 
Q 2609 -91 1734 -91 
Q 1441 -91 1130 -33 
Q 819 25 488 141 
L 488 750 
Q 750 597 1062 519 
Q 1375 441 1716 441 
Q 2309 441 2620 675 
Q 2931 909 2931 1356 
Q 2931 1769 2642 2001 
Q 2353 2234 1838 2234 
L 1294 2234 
L 1294 2753 
L 1863 2753 
Q 2328 2753 2575 2939 
Q 2822 3125 2822 3475 
Q 2822 3834 2567 4026 
Q 2313 4219 1838 4219 
Q 1578 4219 1281 4162 
Q 984 4106 628 3988 
L 628 4550 
Q 988 4650 1302 4700 
Q 1616 4750 1894 4750 
Q 2613 4750 3031 4423 
Q 3450 4097 3450 3541 
Q 3450 3153 3228 2886 
Q 3006 2619 2597 2516 
z
" transform="scale(0.015625)"/>
       </defs>
       <use xlink:href="#DejaVuSans-33"/>
       <use xlink:href="#DejaVuSans-20" transform="translate(63.623047 0)"/>
       <use xlink:href="#DejaVuSans-6b" transform="translate(95.410156 0)"/>
      </g>
     </g>
    </g>
    <g id="xtick_8">
     <g id="line2d_8">
      <g>
       <use xlink:href="#mf4319c5ba8" x="363.571199" y="288.430125" style="stroke: #000000; stroke-width: 0.8"/>
      </g>
     </g>
     <g id="text_8">
      <!-- 3.5 k -->
      <g transform="translate(351.135261 303.028562) scale(0.1 -0.1)">
       <use xlink:href="#DejaVuSans-33"/>
       <use xlink:href="#DejaVuSans-2e" transform="translate(63.623047 0)"/>
       <use xlink:href="#DejaVuSans-35" transform="translate(95.410156 0)"/>
       <use xlink:href="#DejaVuSans-20" transform="translate(159.033203 0)"/>
       <use xlink:href="#DejaVuSans-6b" transform="translate(190.820312 0)"/>
      </g>
     </g>
    </g>
    <g id="xtick_9">
     <g id="line2d_9">
      <g>
       <use xlink:href="#mf4319c5ba8" x="407.119763" y="288.430125" style="stroke: #000000; stroke-width: 0.8"/>
      </g>
     </g>
     <g id="text_9">
      <!-- 4 k -->
      <g transform="translate(399.454138 303.028562) scale(0.1 -0.1)">
       <defs>
        <path id="DejaVuSans-34" d="M 2419 4116 
L 825 1625 
L 2419 1625 
L 2419 4116 
z
M 2253 4666 
L 3047 4666 
L 3047 1625 
L 3713 1625 
L 3713 1100 
L 3047 1100 
L 3047 0 
L 2419 0 
L 2419 1100 
L 313 1100 
L 313 1709 
L 2253 4666 
z
" transform="scale(0.015625)"/>
       </defs>
       <use xlink:href="#DejaVuSans-34"/>
       <use xlink:href="#DejaVuSans-20" transform="translate(63.623047 0)"/>
       <use xlink:href="#DejaVuSans-6b" transform="translate(95.410156 0)"/>
      </g>
     </g>
    </g>
    <g id="text_10">
     <!-- Amount of objects in table -->
     <g transform="translate(171.232656 316.706687) scale(0.1 -0.1)">
      <defs>
       <path id="DejaVuSans-41" d="M 2188 4044 
L 1331 1722 
L 3047 1722 
L 2188 4044 
z
M 1831 4666 
L 2547 4666 
L 4325 0 
L 3669 0 
L 3244 1197 
L 1141 1197 
L 716 0 
L 50 0 
L 1831 4666 
z
" transform="scale(0.015625)"/>
       <path id="DejaVuSans-6d" d="M 3328 2828 
Q 3544 3216 3844 3400 
Q 4144 3584 4550 3584 
Q 5097 3584 5394 3201 
Q 5691 2819 5691 2113 
L 5691 0 
L 5113 0 
L 5113 2094 
Q 5113 2597 4934 2840 
Q 4756 3084 4391 3084 
Q 3944 3084 3684 2787 
Q 3425 2491 3425 1978 
L 3425 0 
L 2847 0 
L 2847 2094 
Q 2847 2600 2669 2842 
Q 2491 3084 2119 3084 
Q 1678 3084 1418 2786 
Q 1159 2488 1159 1978 
L 1159 0 
L 581 0 
L 581 3500 
L 1159 3500 
L 1159 2956 
Q 1356 3278 1631 3431 
Q 1906 3584 2284 3584 
Q 2666 3584 2933 3390 
Q 3200 3197 3328 2828 
z
" transform="scale(0.015625)"/>
       <path id="DejaVuSans-6f" d="M 1959 3097 
Q 1497 3097 1228 2736 
Q 959 2375 959 1747 
Q 959 1119 1226 758 
Q 1494 397 1959 397 
Q 2419 397 2687 759 
Q 2956 1122 2956 1747 
Q 2956 2369 2687 2733 
Q 2419 3097 1959 3097 
z
M 1959 3584 
Q 2709 3584 3137 3096 
Q 3566 2609 3566 1747 
Q 3566 888 3137 398 
Q 2709 -91 1959 -91 
Q 1206 -91 779 398 
Q 353 888 353 1747 
Q 353 2609 779 3096 
Q 1206 3584 1959 3584 
z
" transform="scale(0.015625)"/>
       <path id="DejaVuSans-75" d="M 544 1381 
L 544 3500 
L 1119 3500 
L 1119 1403 
Q 1119 906 1312 657 
Q 1506 409 1894 409 
Q 2359 409 2629 706 
Q 2900 1003 2900 1516 
L 2900 3500 
L 3475 3500 
L 3475 0 
L 2900 0 
L 2900 538 
Q 2691 219 2414 64 
Q 2138 -91 1772 -91 
Q 1169 -91 856 284 
Q 544 659 544 1381 
z
M 1991 3584 
L 1991 3584 
z
" transform="scale(0.015625)"/>
       <path id="DejaVuSans-6e" d="M 3513 2113 
L 3513 0 
L 2938 0 
L 2938 2094 
Q 2938 2591 2744 2837 
Q 2550 3084 2163 3084 
Q 1697 3084 1428 2787 
Q 1159 2491 1159 1978 
L 1159 0 
L 581 0 
L 581 3500 
L 1159 3500 
L 1159 2956 
Q 1366 3272 1645 3428 
Q 1925 3584 2291 3584 
Q 2894 3584 3203 3211 
Q 3513 2838 3513 2113 
z
" transform="scale(0.015625)"/>
       <path id="DejaVuSans-74" d="M 1172 4494 
L 1172 3500 
L 2356 3500 
L 2356 3053 
L 1172 3053 
L 1172 1153 
Q 1172 725 1289 603 
Q 1406 481 1766 481 
L 2356 481 
L 2356 0 
L 1766 0 
Q 1100 0 847 248 
Q 594 497 594 1153 
L 594 3053 
L 172 3053 
L 172 3500 
L 594 3500 
L 594 4494 
L 1172 4494 
z
" transform="scale(0.015625)"/>
       <path id="DejaVuSans-66" d="M 2375 4863 
L 2375 4384 
L 1825 4384 
Q 1516 4384 1395 4259 
Q 1275 4134 1275 3809 
L 1275 3500 
L 2222 3500 
L 2222 3053 
L 1275 3053 
L 1275 0 
L 697 0 
L 697 3053 
L 147 3053 
L 147 3500 
L 697 3500 
L 697 3744 
Q 697 4328 969 4595 
Q 1241 4863 1831 4863 
L 2375 4863 
z
" transform="scale(0.015625)"/>
       <path id="DejaVuSans-62" d="M 3116 1747 
Q 3116 2381 2855 2742 
Q 2594 3103 2138 3103 
Q 1681 3103 1420 2742 
Q 1159 2381 1159 1747 
Q 1159 1113 1420 752 
Q 1681 391 2138 391 
Q 2594 391 2855 752 
Q 3116 1113 3116 1747 
z
M 1159 2969 
Q 1341 3281 1617 3432 
Q 1894 3584 2278 3584 
Q 2916 3584 3314 3078 
Q 3713 2572 3713 1747 
Q 3713 922 3314 415 
Q 2916 -91 2278 -91 
Q 1894 -91 1617 61 
Q 1341 213 1159 525 
L 1159 0 
L 581 0 
L 581 4863 
L 1159 4863 
L 1159 2969 
z
" transform="scale(0.015625)"/>
       <path id="DejaVuSans-6a" d="M 603 3500 
L 1178 3500 
L 1178 -63 
Q 1178 -731 923 -1031 
Q 669 -1331 103 -1331 
L -116 -1331 
L -116 -844 
L 38 -844 
Q 366 -844 484 -692 
Q 603 -541 603 -63 
L 603 3500 
z
M 603 4863 
L 1178 4863 
L 1178 4134 
L 603 4134 
L 603 4863 
z
" transform="scale(0.015625)"/>
       <path id="DejaVuSans-65" d="M 3597 1894 
L 3597 1613 
L 953 1613 
Q 991 1019 1311 708 
Q 1631 397 2203 397 
Q 2534 397 2845 478 
Q 3156 559 3463 722 
L 3463 178 
Q 3153 47 2828 -22 
Q 2503 -91 2169 -91 
Q 1331 -91 842 396 
Q 353 884 353 1716 
Q 353 2575 817 3079 
Q 1281 3584 2069 3584 
Q 2775 3584 3186 3129 
Q 3597 2675 3597 1894 
z
M 3022 2063 
Q 3016 2534 2758 2815 
Q 2500 3097 2075 3097 
Q 1594 3097 1305 2825 
Q 1016 2553 972 2059 
L 3022 2063 
z
" transform="scale(0.015625)"/>
       <path id="DejaVuSans-63" d="M 3122 3366 
L 3122 2828 
Q 2878 2963 2633 3030 
Q 2388 3097 2138 3097 
Q 1578 3097 1268 2742 
Q 959 2388 959 1747 
Q 959 1106 1268 751 
Q 1578 397 2138 397 
Q 2388 397 2633 464 
Q 2878 531 3122 666 
L 3122 134 
Q 2881 22 2623 -34 
Q 2366 -91 2075 -91 
Q 1284 -91 818 406 
Q 353 903 353 1747 
Q 353 2603 823 3093 
Q 1294 3584 2113 3584 
Q 2378 3584 2631 3529 
Q 2884 3475 3122 3366 
z
" transform="scale(0.015625)"/>
       <path id="DejaVuSans-73" d="M 2834 3397 
L 2834 2853 
Q 2591 2978 2328 3040 
Q 2066 3103 1784 3103 
Q 1356 3103 1142 2972 
Q 928 2841 928 2578 
Q 928 2378 1081 2264 
Q 1234 2150 1697 2047 
L 1894 2003 
Q 2506 1872 2764 1633 
Q 3022 1394 3022 966 
Q 3022 478 2636 193 
Q 2250 -91 1575 -91 
Q 1294 -91 989 -36 
Q 684 19 347 128 
L 347 722 
Q 666 556 975 473 
Q 1284 391 1588 391 
Q 1994 391 2212 530 
Q 2431 669 2431 922 
Q 2431 1156 2273 1281 
Q 2116 1406 1581 1522 
L 1381 1569 
Q 847 1681 609 1914 
Q 372 2147 372 2553 
Q 372 3047 722 3315 
Q 1072 3584 1716 3584 
Q 2034 3584 2315 3537 
Q 2597 3491 2834 3397 
z
" transform="scale(0.015625)"/>
       <path id="DejaVuSans-69" d="M 603 3500 
L 1178 3500 
L 1178 0 
L 603 0 
L 603 3500 
z
M 603 4863 
L 1178 4863 
L 1178 4134 
L 603 4134 
L 603 4863 
z
" transform="scale(0.015625)"/>
       <path id="DejaVuSans-61" d="M 2194 1759 
Q 1497 1759 1228 1600 
Q 959 1441 959 1056 
Q 959 750 1161 570 
Q 1363 391 1709 391 
Q 2188 391 2477 730 
Q 2766 1069 2766 1631 
L 2766 1759 
L 2194 1759 
z
M 3341 1997 
L 3341 0 
L 2766 0 
L 2766 531 
Q 2569 213 2275 61 
Q 1981 -91 1556 -91 
Q 1019 -91 701 211 
Q 384 513 384 1019 
Q 384 1609 779 1909 
Q 1175 2209 1959 2209 
L 2766 2209 
L 2766 2266 
Q 2766 2663 2505 2880 
Q 2244 3097 1772 3097 
Q 1472 3097 1187 3025 
Q 903 2953 641 2809 
L 641 3341 
Q 956 3463 1253 3523 
Q 1550 3584 1831 3584 
Q 2591 3584 2966 3190 
Q 3341 2797 3341 1997 
z
" transform="scale(0.015625)"/>
       <path id="DejaVuSans-6c" d="M 603 4863 
L 1178 4863 
L 1178 0 
L 603 0 
L 603 4863 
z
" transform="scale(0.015625)"/>
      </defs>
      <use xlink:href="#DejaVuSans-41"/>
      <use xlink:href="#DejaVuSans-6d" transform="translate(68.408203 0)"/>
      <use xlink:href="#DejaVuSans-6f" transform="translate(165.820312 0)"/>
      <use xlink:href="#DejaVuSans-75" transform="translate(227.001953 0)"/>
      <use xlink:href="#DejaVuSans-6e" transform="translate(290.380859 0)"/>
      <use xlink:href="#DejaVuSans-74" transform="translate(353.759766 0)"/>
      <use xlink:href="#DejaVuSans-20" transform="translate(392.96875 0)"/>
      <use xlink:href="#DejaVuSans-6f" transform="translate(424.755859 0)"/>
      <use xlink:href="#DejaVuSans-66" transform="translate(485.9375 0)"/>
      <use xlink:href="#DejaVuSans-20" transform="translate(521.142578 0)"/>
      <use xlink:href="#DejaVuSans-6f" transform="translate(552.929688 0)"/>
      <use xlink:href="#DejaVuSans-62" transform="translate(614.111328 0)"/>
      <use xlink:href="#DejaVuSans-6a" transform="translate(677.587891 0)"/>
      <use xlink:href="#DejaVuSans-65" transform="translate(705.371094 0)"/>
      <use xlink:href="#DejaVuSans-63" transform="translate(766.894531 0)"/>
      <use xlink:href="#DejaVuSans-74" transform="translate(821.875 0)"/>
      <use xlink:href="#DejaVuSans-73" transform="translate(861.083984 0)"/>
      <use xlink:href="#DejaVuSans-20" transform="translate(913.183594 0)"/>
      <use xlink:href="#DejaVuSans-69" transform="translate(944.970703 0)"/>
      <use xlink:href="#DejaVuSans-6e" transform="translate(972.753906 0)"/>
      <use xlink:href="#DejaVuSans-20" transform="translate(1036.132812 0)"/>
      <use xlink:href="#DejaVuSans-74" transform="translate(1067.919922 0)"/>
      <use xlink:href="#DejaVuSans-61" transform="translate(1107.128906 0)"/>
      <use xlink:href="#DejaVuSans-62" transform="translate(1168.408203 0)"/>
      <use xlink:href="#DejaVuSans-6c" transform="translate(1231.884766 0)"/>
      <use xlink:href="#DejaVuSans-65" transform="translate(1259.667969 0)"/>
     </g>
    </g>
   </g>
   <g id="matplotlib.axis_2">
    <g id="ytick_1">
     <g id="line2d_10">
      <defs>
       <path id="mc96a4feeda" d="M 0 0 
L -3.5 0 
" style="stroke: #000000; stroke-width: 0.8"/>
      </defs>
      <g>
       <use xlink:href="#mc96a4feeda" x="58.73125" y="288.430125" style="stroke: #000000; stroke-width: 0.8"/>
      </g>
     </g>
     <g id="text_11">
      <!-- 0 -->
      <g transform="translate(45.36875 292.229344) scale(0.1 -0.1)">
       <use xlink:href="#DejaVuSans-30"/>
      </g>
     </g>
    </g>
    <g id="ytick_2">
     <g id="line2d_11">
      <g>
       <use xlink:href="#mc96a4feeda" x="58.73125" y="252.581608" style="stroke: #000000; stroke-width: 0.8"/>
      </g>
     </g>
     <g id="text_12">
      <!-- 5 ms -->
      <g transform="translate(27.240625 256.380827) scale(0.1 -0.1)">
       <use xlink:href="#DejaVuSans-35"/>
       <use xlink:href="#DejaVuSans-20" transform="translate(63.623047 0)"/>
       <use xlink:href="#DejaVuSans-6d" transform="translate(95.410156 0)"/>
       <use xlink:href="#DejaVuSans-73" transform="translate(192.822266 0)"/>
      </g>
     </g>
    </g>
    <g id="ytick_3">
     <g id="line2d_12">
      <g>
       <use xlink:href="#mc96a4feeda" x="58.73125" y="216.733092" style="stroke: #000000; stroke-width: 0.8"/>
      </g>
     </g>
     <g id="text_13">
      <!-- 10 ms -->
      <g transform="translate(20.878125 220.532311) scale(0.1 -0.1)">
       <use xlink:href="#DejaVuSans-31"/>
       <use xlink:href="#DejaVuSans-30" transform="translate(63.623047 0)"/>
       <use xlink:href="#DejaVuSans-20" transform="translate(127.246094 0)"/>
       <use xlink:href="#DejaVuSans-6d" transform="translate(159.033203 0)"/>
       <use xlink:href="#DejaVuSans-73" transform="translate(256.445312 0)"/>
      </g>
     </g>
    </g>
    <g id="ytick_4">
     <g id="line2d_13">
      <g>
       <use xlink:href="#mc96a4feeda" x="58.73125" y="180.884575" style="stroke: #000000; stroke-width: 0.8"/>
      </g>
     </g>
     <g id="text_14">
      <!-- 15 ms -->
      <g transform="translate(20.878125 184.683794) scale(0.1 -0.1)">
       <use xlink:href="#DejaVuSans-31"/>
       <use xlink:href="#DejaVuSans-35" transform="translate(63.623047 0)"/>
       <use xlink:href="#DejaVuSans-20" transform="translate(127.246094 0)"/>
       <use xlink:href="#DejaVuSans-6d" transform="translate(159.033203 0)"/>
       <use xlink:href="#DejaVuSans-73" transform="translate(256.445312 0)"/>
      </g>
     </g>
    </g>
    <g id="ytick_5">
     <g id="line2d_14">
      <g>
       <use xlink:href="#mc96a4feeda" x="58.73125" y="145.036059" style="stroke: #000000; stroke-width: 0.8"/>
      </g>
     </g>
     <g id="text_15">
      <!-- 20 ms -->
      <g transform="translate(20.878125 148.835278) scale(0.1 -0.1)">
       <use xlink:href="#DejaVuSans-32"/>
       <use xlink:href="#DejaVuSans-30" transform="translate(63.623047 0)"/>
       <use xlink:href="#DejaVuSans-20" transform="translate(127.246094 0)"/>
       <use xlink:href="#DejaVuSans-6d" transform="translate(159.033203 0)"/>
       <use xlink:href="#DejaVuSans-73" transform="translate(256.445312 0)"/>
      </g>
     </g>
    </g>
    <g id="ytick_6">
     <g id="line2d_15">
      <g>
       <use xlink:href="#mc96a4feeda" x="58.73125" y="109.187542" style="stroke: #000000; stroke-width: 0.8"/>
      </g>
     </g>
     <g id="text_16">
      <!-- 25 ms -->
      <g transform="translate(20.878125 112.986761) scale(0.1 -0.1)">
       <use xlink:href="#DejaVuSans-32"/>
       <use xlink:href="#DejaVuSans-35" transform="translate(63.623047 0)"/>
       <use xlink:href="#DejaVuSans-20" transform="translate(127.246094 0)"/>
       <use xlink:href="#DejaVuSans-6d" transform="translate(159.033203 0)"/>
       <use xlink:href="#DejaVuSans-73" transform="translate(256.445312 0)"/>
      </g>
     </g>
    </g>
    <g id="ytick_7">
     <g id="line2d_16">
      <g>
       <use xlink:href="#mc96a4feeda" x="58.73125" y="73.339026" style="stroke: #000000; stroke-width: 0.8"/>
      </g>
     </g>
     <g id="text_17">
      <!-- 30 ms -->
      <g transform="translate(20.878125 77.138244) scale(0.1 -0.1)">
       <use xlink:href="#DejaVuSans-33"/>
       <use xlink:href="#DejaVuSans-30" transform="translate(63.623047 0)"/>
       <use xlink:href="#DejaVuSans-20" transform="translate(127.246094 0)"/>
       <use xlink:href="#DejaVuSans-6d" transform="translate(159.033203 0)"/>
       <use xlink:href="#DejaVuSans-73" transform="translate(256.445312 0)"/>
      </g>
     </g>
    </g>
    <g id="ytick_8">
     <g id="line2d_17">
      <g>
       <use xlink:href="#mc96a4feeda" x="58.73125" y="37.490509" style="stroke: #000000; stroke-width: 0.8"/>
      </g>
     </g>
     <g id="text_18">
      <!-- 35 ms -->
      <g transform="translate(20.878125 41.289728) scale(0.1 -0.1)">
       <use xlink:href="#DejaVuSans-33"/>
       <use xlink:href="#DejaVuSans-35" transform="translate(63.623047 0)"/>
       <use xlink:href="#DejaVuSans-20" transform="translate(127.246094 0)"/>
       <use xlink:href="#DejaVuSans-6d" transform="translate(159.033203 0)"/>
       <use xlink:href="#DejaVuSans-73" transform="translate(256.445312 0)"/>
      </g>
     </g>
    </g>
    <g id="text_19">
     <!-- Read latency (s) -->
     <g transform="translate(14.798437 195.98975) rotate(-90) scale(0.1 -0.1)">
      <defs>
       <path id="DejaVuSans-52" d="M 2841 2188 
Q 3044 2119 3236 1894 
Q 3428 1669 3622 1275 
L 4263 0 
L 3584 0 
L 2988 1197 
Q 2756 1666 2539 1819 
Q 2322 1972 1947 1972 
L 1259 1972 
L 1259 0 
L 628 0 
L 628 4666 
L 2053 4666 
Q 2853 4666 3247 4331 
Q 3641 3997 3641 3322 
Q 3641 2881 3436 2590 
Q 3231 2300 2841 2188 
z
M 1259 4147 
L 1259 2491 
L 2053 2491 
Q 2509 2491 2742 2702 
Q 2975 2913 2975 3322 
Q 2975 3731 2742 3939 
Q 2509 4147 2053 4147 
L 1259 4147 
z
" transform="scale(0.015625)"/>
       <path id="DejaVuSans-64" d="M 2906 2969 
L 2906 4863 
L 3481 4863 
L 3481 0 
L 2906 0 
L 2906 525 
Q 2725 213 2448 61 
Q 2172 -91 1784 -91 
Q 1150 -91 751 415 
Q 353 922 353 1747 
Q 353 2572 751 3078 
Q 1150 3584 1784 3584 
Q 2172 3584 2448 3432 
Q 2725 3281 2906 2969 
z
M 947 1747 
Q 947 1113 1208 752 
Q 1469 391 1925 391 
Q 2381 391 2643 752 
Q 2906 1113 2906 1747 
Q 2906 2381 2643 2742 
Q 2381 3103 1925 3103 
Q 1469 3103 1208 2742 
Q 947 2381 947 1747 
z
" transform="scale(0.015625)"/>
       <path id="DejaVuSans-79" d="M 2059 -325 
Q 1816 -950 1584 -1140 
Q 1353 -1331 966 -1331 
L 506 -1331 
L 506 -850 
L 844 -850 
Q 1081 -850 1212 -737 
Q 1344 -625 1503 -206 
L 1606 56 
L 191 3500 
L 800 3500 
L 1894 763 
L 2988 3500 
L 3597 3500 
L 2059 -325 
z
" transform="scale(0.015625)"/>
       <path id="DejaVuSans-28" d="M 1984 4856 
Q 1566 4138 1362 3434 
Q 1159 2731 1159 2009 
Q 1159 1288 1364 580 
Q 1569 -128 1984 -844 
L 1484 -844 
Q 1016 -109 783 600 
Q 550 1309 550 2009 
Q 550 2706 781 3412 
Q 1013 4119 1484 4856 
L 1984 4856 
z
" transform="scale(0.015625)"/>
       <path id="DejaVuSans-29" d="M 513 4856 
L 1013 4856 
Q 1481 4119 1714 3412 
Q 1947 2706 1947 2009 
Q 1947 1309 1714 600 
Q 1481 -109 1013 -844 
L 513 -844 
Q 928 -128 1133 580 
Q 1338 1288 1338 2009 
Q 1338 2731 1133 3434 
Q 928 4138 513 4856 
z
" transform="scale(0.015625)"/>
      </defs>
      <use xlink:href="#DejaVuSans-52"/>
      <use xlink:href="#DejaVuSans-65" transform="translate(64.982422 0)"/>
      <use xlink:href="#DejaVuSans-61" transform="translate(126.505859 0)"/>
      <use xlink:href="#DejaVuSans-64" transform="translate(187.785156 0)"/>
      <use xlink:href="#DejaVuSans-20" transform="translate(251.261719 0)"/>
      <use xlink:href="#DejaVuSans-6c" transform="translate(283.048828 0)"/>
      <use xlink:href="#DejaVuSans-61" transform="translate(310.832031 0)"/>
      <use xlink:href="#DejaVuSans-74" transform="translate(372.111328 0)"/>
      <use xlink:href="#DejaVuSans-65" transform="translate(411.320312 0)"/>
      <use xlink:href="#DejaVuSans-6e" transform="translate(472.84375 0)"/>
      <use xlink:href="#DejaVuSans-63" transform="translate(536.222656 0)"/>
      <use xlink:href="#DejaVuSans-79" transform="translate(591.203125 0)"/>
      <use xlink:href="#DejaVuSans-20" transform="translate(650.382812 0)"/>
      <use xlink:href="#DejaVuSans-28" transform="translate(682.169922 0)"/>
      <use xlink:href="#DejaVuSans-73" transform="translate(721.183594 0)"/>
      <use xlink:href="#DejaVuSans-29" transform="translate(773.283203 0)"/>
     </g>
    </g>
   </g>
   <g id="line2d_18">
    <path d="M 144.086436 284.153738 
L 154.538091 284.168562 
L 171.522031 283.782397 
L 176.312373 283.724646 
L 177.61883 283.798562 
L 179.360773 283.786456 
L 183.715629 283.704984 
L 187.635 283.663143 
L 194.60277 283.498805 
L 195.473741 283.42133 
L 197.215684 283.373608 
L 202.441512 283.320643 
L 204.183454 283.309606 
L 206.796368 283.262392 
L 207.667339 283.321511 
L 212.893167 283.205842 
L 229.441621 282.006446 
L 234.231963 281.562715 
L 235.53842 281.414348 
L 237.715849 281.212737 
L 238.151334 279.658252 
L 242.070705 279.450197 
L 249.909446 279.142174 
L 265.151444 279.043634 
L 266.022415 279.039821 
L 280.393441 278.989021 
L 282.135384 279.010787 
L 288.667669 279.017117 
L 289.103154 277.497074 
L 292.151554 277.479147 
L 300.425781 277.404565 
L 315.232293 277.240359 
L 320.022635 277.385841 
L 322.635549 277.437561 
L 323.071034 278.958629 
L 341.796917 278.896311 
L 353.119543 278.952423 
L 353.990515 279.034053 
L 358.345371 279.068626 
L 358.780857 279.147127 
L 360.522799 279.084028 
L 373.587369 279.097125 
L 374.022854 280.631649 
L 381.861596 280.744337 
L 385.345481 280.7284 
L 385.780966 280.597663 
L 397.103593 280.649681 
L 397.974564 280.737324 
L 398.845536 280.747852 
L 398.845536 280.747852 
" clip-path="url(#p8742ffcf96)" style="fill: none; stroke: #1f77b4; stroke-opacity: 0.8; stroke-width: 1.5; stroke-linecap: square"/>
   </g>
   <g id="line2d_19">
    <path d="M 144.086436 284.759012 
L 156.715519 284.226445 
L 159.328433 284.126914 
L 180.231744 283.25857 
L 185.022086 283.253933 
L 186.764028 283.268379 
L 187.199514 281.68764 
L 194.167284 281.680899 
L 207.667339 281.673492 
L 208.102825 280.125976 
L 213.328653 280.127125 
L 220.731908 279.974244 
L 262.103044 279.965986 
L 263.409501 279.98365 
L 267.764358 279.989435 
L 271.683729 279.956019 
L 272.119214 281.543841 
L 283.441841 281.554299 
L 289.974125 281.507199 
L 290.409611 279.904273 
L 292.587039 279.89278 
L 293.022525 281.440094 
L 308.700008 281.182493 
L 309.135494 279.591314 
L 310.441951 279.575386 
L 310.877436 277.97892 
L 318.280692 277.922142 
L 341.796917 277.686343 
L 343.103374 277.630214 
L 355.296972 277.627838 
L 374.893825 277.627189 
L 375.329311 279.230405 
L 393.619708 279.376693 
L 394.055194 280.962938 
L 398.845536 280.94033 
L 398.845536 280.94033 
" clip-path="url(#p8742ffcf96)" style="fill: none; stroke: #ff7f0e; stroke-opacity: 0.8; stroke-width: 1.5; stroke-linecap: square"/>
   </g>
   <g id="line2d_20">
    <path d="M 144.086436 136.819918 
L 145.828378 132.135671 
L 147.134835 127.933954 
L 151.489692 117.035442 
L 153.231634 112.559363 
L 154.538091 108.168526 
L 154.973577 107.100157 
L 157.151005 100.108207 
L 158.892947 95.456911 
L 159.763919 92.858673 
L 160.63489 90.099357 
L 161.941347 85.365143 
L 163.247804 80.950761 
L 164.554261 76.709649 
L 166.296203 71.865833 
L 166.731689 69.894493 
L 167.60266 67.240091 
L 168.473632 64.898717 
L 168.909117 62.786488 
L 173.263974 51.6356 
L 173.699459 50.81674 
L 174.134945 51.269054 
L 175.005916 49.804615 
L 175.441402 49.193941 
L 175.876887 48.377878 
L 176.312373 47.088209 
L 177.183344 45.737466 
L 177.61883 44.879729 
L 179.796258 42.239589 
L 180.231744 41.560478 
L 181.538201 40.538237 
L 181.973686 40.318348 
L 183.715629 38.360377 
L 184.5866 37.861796 
L 185.022086 37.923001 
L 185.457572 37.522986 
L 185.893057 36.951953 
L 186.764028 36.284046 
L 187.199514 36.336134 
L 188.505971 37.449096 
L 189.376942 36.622207 
L 189.812428 36.519468 
L 190.247914 35.916615 
L 190.683399 35.943316 
L 191.118885 35.62579 
L 191.989856 35.691308 
L 193.296313 35.361974 
L 193.731799 34.990125 
L 194.167284 35.123387 
L 195.473741 36.710929 
L 195.909227 36.756004 
L 196.344713 37.149918 
L 196.780198 37.379274 
L 197.215684 37.424788 
L 197.65117 37.649025 
L 198.086655 38.110289 
L 198.522141 38.077074 
L 198.957626 38.16491 
L 199.393112 37.763221 
L 200.264083 38.194662 
L 200.699569 38.380127 
L 201.135055 39.115629 
L 201.57054 38.954438 
L 202.441512 40.078937 
L 202.876997 40.398803 
L 203.312483 40.239549 
L 203.747968 40.500735 
L 204.183454 40.588992 
L 204.61894 40.546591 
L 205.054425 40.665801 
L 205.489911 40.657736 
L 205.925397 40.254504 
L 206.360882 40.284616 
L 206.796368 39.932736 
L 207.231854 39.907366 
L 208.102825 41.006189 
L 208.538311 41.317219 
L 209.409282 40.584732 
L 209.844767 40.443414 
L 210.280253 39.998367 
L 210.715739 39.960524 
L 211.151224 40.07145 
L 211.58671 39.630901 
L 212.022196 39.89825 
L 212.457681 39.97192 
L 212.893167 39.534377 
L 213.328653 39.542793 
L 213.764138 39.730011 
L 214.199624 39.328006 
L 214.63511 39.667824 
L 215.070595 39.816339 
L 215.506081 39.814393 
L 216.377052 39.005466 
L 217.248023 39.764251 
L 218.118995 39.502548 
L 218.55448 40.05199 
L 218.989966 40.064481 
L 219.425452 40.419842 
L 219.860937 40.259816 
L 221.167394 38.709548 
L 221.60288 38.961521 
L 222.038365 38.851892 
L 222.473851 38.27936 
L 222.909337 37.991306 
L 223.344822 38.071034 
L 223.780308 37.703971 
L 224.215794 37.77779 
L 224.651279 37.388707 
L 225.086765 37.481426 
L 225.522251 37.69375 
L 226.393222 37.496363 
L 226.828707 36.846129 
L 227.264193 37.109392 
L 227.699679 38.912861 
L 228.57065 39.297009 
L 229.006136 39.190062 
L 229.877107 39.292249 
L 230.312593 39.582591 
L 230.748078 39.647013 
L 232.054535 40.416344 
L 232.925506 39.656945 
L 233.360992 39.465344 
L 234.231963 39.594224 
L 234.667449 39.303908 
L 235.102935 39.280476 
L 237.280363 38.611403 
L 237.715849 38.136061 
L 238.151334 37.926647 
L 238.58682 38.352277 
L 239.022305 38.392706 
L 239.457791 38.834597 
L 239.893277 38.818327 
L 240.328762 39.21864 
L 241.199734 39.58906 
L 241.635219 39.950101 
L 242.070705 40.487761 
L 242.941676 40.73692 
L 243.377162 40.878169 
L 243.812647 40.453144 
L 244.248133 40.710333 
L 245.55459 40.919369 
L 245.990076 41.229558 
L 246.425561 41.026859 
L 246.861047 41.427365 
L 247.296533 41.606807 
L 247.732018 42.045227 
L 248.167504 41.640233 
L 249.038475 42.525092 
L 249.909446 41.851049 
L 250.344932 42.124989 
L 250.780418 42.141215 
L 251.215903 42.369853 
L 251.651389 43.060613 
L 252.086875 42.644609 
L 252.52236 42.684784 
L 252.957846 42.510496 
L 253.393332 42.04208 
L 253.828817 42.826646 
L 254.264303 42.906935 
L 254.699789 42.564452 
L 255.135274 41.957855 
L 255.57076 41.633597 
L 256.877217 41.75136 
L 257.312702 42.025889 
L 257.748188 41.741288 
L 258.183674 42.087418 
L 258.619159 41.9711 
L 259.054645 42.352961 
L 260.361102 42.402445 
L 261.667559 43.150063 
L 262.103044 42.76168 
L 262.53853 42.603119 
L 262.974016 42.236336 
L 263.409501 42.375314 
L 263.844987 42.396756 
L 264.280473 42.665691 
L 264.715958 42.793352 
L 265.151444 43.038619 
L 266.022415 42.427402 
L 266.457901 42.520832 
L 267.764358 42.242236 
L 268.199843 42.676123 
L 269.070815 42.621133 
L 269.5063 42.269034 
L 269.941786 42.373929 
L 270.812757 43.334063 
L 271.248243 43.406489 
L 272.119214 43.330048 
L 272.5547 42.950695 
L 272.990185 42.928754 
L 273.425671 42.587217 
L 273.861157 42.79323 
L 275.167614 44.163082 
L 276.038585 43.87473 
L 276.909556 43.832732 
L 277.345042 43.960857 
L 277.780527 43.936566 
L 278.216013 44.15358 
L 278.651499 44.518478 
L 279.086984 44.58816 
L 279.52247 44.166957 
L 280.828927 43.963803 
L 281.264413 43.666754 
L 281.699898 43.577244 
L 282.135384 43.292696 
L 282.57087 42.856381 
L 283.006355 42.90043 
L 283.441841 42.558798 
L 283.877326 42.007033 
L 284.748298 42.304616 
L 285.183783 42.009592 
L 285.619269 42.190472 
L 286.054755 42.160676 
L 286.49024 42.346982 
L 286.925726 42.410142 
L 287.361212 42.004718 
L 288.232183 41.694635 
L 288.667669 41.626514 
L 289.103154 41.067806 
L 289.53864 40.742014 
L 290.409611 41.513098 
L 290.845097 41.561189 
L 291.280582 41.459738 
L 291.716068 41.792 
L 293.458011 39.977609 
L 293.893496 40.067883 
L 294.764467 39.609424 
L 295.199953 40.109381 
L 295.635439 39.703449 
L 296.50641 39.720499 
L 296.941896 39.363324 
L 297.377381 38.730271 
L 297.812867 39.360204 
L 298.248353 39.384985 
L 298.683838 39.521579 
L 299.119324 39.882436 
L 299.55481 39.840832 
L 300.425781 39.994125 
L 301.296752 40.726445 
L 301.732238 40.37886 
L 302.603209 40.122864 
L 303.038695 39.680579 
L 303.47418 39.706202 
L 303.909666 40.299325 
L 304.345152 39.888861 
L 304.780637 39.973366 
L 305.216123 40.263402 
L 305.651609 40.386986 
L 306.087094 40.966987 
L 306.958065 41.212736 
L 307.393551 41.804869 
L 307.829037 42.141014 
L 308.264522 42.068807 
L 308.700008 42.438158 
L 309.135494 42.026038 
L 309.570979 42.499206 
L 310.441951 42.373956 
L 310.877436 42.705963 
L 311.312922 42.358273 
L 311.748407 43.068994 
L 312.183893 42.724275 
L 312.619379 42.685363 
L 313.054864 42.892059 
L 313.49035 42.686984 
L 313.925836 43.108432 
L 314.796807 43.239188 
L 315.667778 41.95618 
L 316.53875 41.082428 
L 316.974235 40.472754 
L 317.845206 41.008626 
L 318.716178 40.848346 
L 319.151663 40.458789 
L 319.587149 40.665284 
L 320.022635 40.663224 
L 320.45812 40.91539 
L 320.893606 40.602282 
L 321.329092 40.968977 
L 321.764577 40.647085 
L 322.200063 40.711017 
L 322.635549 41.121691 
L 323.071034 40.955249 
L 323.50652 40.436909 
L 323.942005 40.80541 
L 324.812977 40.778822 
L 325.683948 40.039112 
L 326.554919 40.094891 
L 327.425891 40.15827 
L 327.861376 40.08985 
L 328.296862 39.600597 
L 329.167833 40.119769 
L 330.47429 40.249604 
L 330.909776 40.580595 
L 331.345261 40.550886 
L 331.780747 40.710271 
L 332.651718 41.161095 
L 333.087204 41.726982 
L 333.52269 41.644616 
L 333.958175 41.707206 
L 334.393661 41.560417 
L 334.829146 41.797093 
L 335.264632 41.221712 
L 335.700118 41.179311 
L 336.135603 40.693668 
L 336.571089 40.476935 
L 337.006575 40.992891 
L 337.44206 41.26862 
L 338.313032 41.248896 
L 338.748517 40.998852 
L 339.184003 40.958054 
L 340.054974 41.836926 
L 340.925945 41.723265 
L 341.361431 41.328501 
L 341.796917 40.625985 
L 342.232402 40.630281 
L 342.667888 41.053684 
L 343.103374 40.640712 
L 344.409831 40.681273 
L 344.845316 40.249788 
L 345.716287 39.951285 
L 346.151773 40.092287 
L 346.587259 39.958832 
L 347.022744 40.134514 
L 347.45823 40.593761 
L 347.893716 40.846856 
L 348.329201 40.397707 
L 348.764687 40.767619 
L 349.635658 40.874487 
L 350.071144 40.506012 
L 350.50663 40.823354 
L 350.942115 41.002945 
L 351.377601 41.010616 
L 351.813086 40.611188 
L 352.684058 40.689391 
L 353.119543 40.118007 
L 353.990515 40.207229 
L 354.426 40.223928 
L 354.861486 40.018801 
L 355.296972 40.084976 
L 356.167943 40.428336 
L 356.603429 40.968574 
L 357.038914 40.979891 
L 357.4744 41.371622 
L 357.909885 41.36048 
L 358.780857 41.843545 
L 359.651828 41.891118 
L 360.087314 41.219214 
L 360.522799 41.001236 
L 360.958285 41.456749 
L 361.829256 41.507356 
L 362.264742 41.164312 
L 363.135713 41.322715 
L 363.571199 40.777052 
L 364.006684 41.103896 
L 364.44217 41.018523 
L 364.877656 40.776841 
L 365.313141 40.397462 
L 365.748627 40.450497 
L 366.184113 40.743293 
L 366.619598 40.383769 
L 367.055084 40.265471 
L 367.49057 40.767199 
L 367.926055 40.498982 
L 368.797026 40.533196 
L 369.232512 40.3346 
L 370.103483 40.320723 
L 370.538969 40.155894 
L 370.974455 39.696498 
L 371.845426 39.459979 
L 372.716397 40.34682 
L 373.151883 40.693265 
L 374.45834 40.754532 
L 374.893825 40.907456 
L 375.329311 40.484202 
L 375.764797 40.861461 
L 376.200282 41.037221 
L 376.635768 41.009958 
L 377.071254 41.360173 
L 378.377711 42.697118 
L 379.248682 43.145127 
L 379.684168 43.472892 
L 380.119653 43.147599 
L 380.555139 43.376535 
L 380.990624 43.367935 
L 381.42611 43.666649 
L 382.297081 44.768549 
L 382.732567 44.782951 
L 383.603538 44.321784 
L 384.039024 44.449918 
L 384.47451 43.063226 
L 386.216452 42.92594 
L 386.651938 43.356794 
L 387.087423 43.564577 
L 387.958395 44.241259 
L 388.39388 44.14015 
L 388.829366 44.173426 
L 389.700337 45.009915 
L 390.135823 45.230242 
L 390.571309 45.151733 
L 391.006794 44.686813 
L 392.313251 44.6116 
L 392.748737 44.038542 
L 393.184222 44.037718 
L 394.055194 44.442143 
L 394.490679 43.935576 
L 394.926165 44.051902 
L 395.797136 44.059844 
L 396.232622 44.295293 
L 396.668108 43.845039 
L 397.103593 44.201601 
L 397.539079 43.822651 
L 397.974564 43.9408 
L 398.41005 44.310563 
L 398.845536 44.032476 
L 398.845536 44.032476 
" clip-path="url(#p8742ffcf96)" style="fill: none; stroke: #2ca02c; stroke-opacity: 0.8; stroke-width: 1.5; stroke-linecap: square"/>
   </g>
   <g id="line2d_21">
    <path d="M 144.086436 282.959269 
L 147.134835 282.81533 
L 157.586491 282.586823 
L 163.68329 282.5747 
L 195.038256 282.396108 
L 216.812538 283.781039 
L 228.57065 284.442161 
L 230.748078 284.616615 
L 243.377162 285.363838 
L 252.957846 285.811304 
L 254.264303 285.812145 
L 258.183674 285.87484 
L 266.022415 285.958189 
L 269.070815 285.998662 
L 271.248243 286.02624 
L 273.861157 286.011679 
L 280.393441 285.966981 
L 286.054755 285.588916 
L 310.006465 284.125915 
L 311.312922 284.008887 
L 313.49035 283.822722 
L 315.232293 283.551998 
L 320.893606 283.158707 
L 336.135603 282.17195 
L 366.619598 281.759216 
L 367.49057 281.805948 
L 368.361541 281.681592 
L 374.022854 281.62008 
L 387.522909 281.214604 
L 389.700337 281.293183 
L 392.313251 281.20078 
L 394.055194 281.203462 
L 394.926165 281.1838 
L 396.232622 281.212254 
L 398.41005 281.235046 
L 398.845536 281.295971 
L 398.845536 281.295971 
" clip-path="url(#p8742ffcf96)" style="fill: none; stroke: #d62728; stroke-opacity: 0.8; stroke-width: 1.5; stroke-linecap: square"/>
   </g>
   <g id="line2d_22">
    <path d="M 144.086436 284.697193 
L 149.312263 284.800107 
L 163.247804 285.352109 
L 185.022086 286.356652 
L 192.860827 286.429051 
L 195.473741 286.428639 
L 208.102825 286.473338 
L 215.070595 286.303196 
L 229.006136 285.613803 
L 270.377272 283.597371 
L 297.812867 283.506554 
L 327.425891 283.523228 
L 331.780747 283.584468 
L 340.49046 284.020537 
L 353.555029 284.628563 
L 362.264742 285.016744 
L 376.200282 285.584446 
L 398.845536 285.67571 
L 398.845536 285.67571 
" clip-path="url(#p8742ffcf96)" style="fill: none; stroke: #9467bd; stroke-opacity: 0.8; stroke-width: 1.5; stroke-linecap: square"/>
   </g>
   <g id="patch_3">
    <path d="M 58.73125 288.430125 
L 58.73125 22.318125 
" style="fill: none; stroke: #000000; stroke-width: 0.8; stroke-linejoin: miter; stroke-linecap: square"/>
   </g>
   <g id="patch_4">
    <path d="M 415.85125 288.430125 
L 415.85125 22.318125 
" style="fill: none; stroke: #000000; stroke-width: 0.8; stroke-linejoin: miter; stroke-linecap: square"/>
   </g>
   <g id="patch_5">
    <path d="M 58.73125 288.430125 
L 415.85125 288.430125 
" style="fill: none; stroke: #000000; stroke-width: 0.8; stroke-linejoin: miter; stroke-linecap: square"/>
   </g>
   <g id="patch_6">
    <path d="M 58.73125 22.318125 
L 415.85125 22.318125 
" style="fill: none; stroke: #000000; stroke-width: 0.8; stroke-linejoin: miter; stroke-linecap: square"/>
   </g>
   <g id="text_20">
    <!-- Get descendants [branch] -->
    <g transform="translate(159.059688 16.318125) scale(0.12 -0.12)">
     <defs>
      <path id="DejaVuSans-47" d="M 3809 666 
L 3809 1919 
L 2778 1919 
L 2778 2438 
L 4434 2438 
L 4434 434 
Q 4069 175 3628 42 
Q 3188 -91 2688 -91 
Q 1594 -91 976 548 
Q 359 1188 359 2328 
Q 359 3472 976 4111 
Q 1594 4750 2688 4750 
Q 3144 4750 3555 4637 
Q 3966 4525 4313 4306 
L 4313 3634 
Q 3963 3931 3569 4081 
Q 3175 4231 2741 4231 
Q 1884 4231 1454 3753 
Q 1025 3275 1025 2328 
Q 1025 1384 1454 906 
Q 1884 428 2741 428 
Q 3075 428 3337 486 
Q 3600 544 3809 666 
z
" transform="scale(0.015625)"/>
      <path id="DejaVuSans-5b" d="M 550 4863 
L 1875 4863 
L 1875 4416 
L 1125 4416 
L 1125 -397 
L 1875 -397 
L 1875 -844 
L 550 -844 
L 550 4863 
z
" transform="scale(0.015625)"/>
      <path id="DejaVuSans-72" d="M 2631 2963 
Q 2534 3019 2420 3045 
Q 2306 3072 2169 3072 
Q 1681 3072 1420 2755 
Q 1159 2438 1159 1844 
L 1159 0 
L 581 0 
L 581 3500 
L 1159 3500 
L 1159 2956 
Q 1341 3275 1631 3429 
Q 1922 3584 2338 3584 
Q 2397 3584 2469 3576 
Q 2541 3569 2628 3553 
L 2631 2963 
z
" transform="scale(0.015625)"/>
      <path id="DejaVuSans-68" d="M 3513 2113 
L 3513 0 
L 2938 0 
L 2938 2094 
Q 2938 2591 2744 2837 
Q 2550 3084 2163 3084 
Q 1697 3084 1428 2787 
Q 1159 2491 1159 1978 
L 1159 0 
L 581 0 
L 581 4863 
L 1159 4863 
L 1159 2956 
Q 1366 3272 1645 3428 
Q 1925 3584 2291 3584 
Q 2894 3584 3203 3211 
Q 3513 2838 3513 2113 
z
" transform="scale(0.015625)"/>
      <path id="DejaVuSans-5d" d="M 1947 4863 
L 1947 -844 
L 622 -844 
L 622 -397 
L 1369 -397 
L 1369 4416 
L 622 4416 
L 622 4863 
L 1947 4863 
z
" transform="scale(0.015625)"/>
     </defs>
     <use xlink:href="#DejaVuSans-47"/>
     <use xlink:href="#DejaVuSans-65" transform="translate(77.490234 0)"/>
     <use xlink:href="#DejaVuSans-74" transform="translate(139.013672 0)"/>
     <use xlink:href="#DejaVuSans-20" transform="translate(178.222656 0)"/>
     <use xlink:href="#DejaVuSans-64" transform="translate(210.009766 0)"/>
     <use xlink:href="#DejaVuSans-65" transform="translate(273.486328 0)"/>
     <use xlink:href="#DejaVuSans-73" transform="translate(335.009766 0)"/>
     <use xlink:href="#DejaVuSans-63" transform="translate(387.109375 0)"/>
     <use xlink:href="#DejaVuSans-65" transform="translate(442.089844 0)"/>
     <use xlink:href="#DejaVuSans-6e" transform="translate(503.613281 0)"/>
     <use xlink:href="#DejaVuSans-64" transform="translate(566.992188 0)"/>
     <use xlink:href="#DejaVuSans-61" transform="translate(630.46875 0)"/>
     <use xlink:href="#DejaVuSans-6e" transform="translate(691.748047 0)"/>
     <use xlink:href="#DejaVuSans-74" transform="translate(755.126953 0)"/>
     <use xlink:href="#DejaVuSans-73" transform="translate(794.335938 0)"/>
     <use xlink:href="#DejaVuSans-20" transform="translate(846.435547 0)"/>
     <use xlink:href="#DejaVuSans-5b" transform="translate(878.222656 0)"/>
     <use xlink:href="#DejaVuSans-62" transform="translate(917.236328 0)"/>
     <use xlink:href="#DejaVuSans-72" transform="translate(980.712891 0)"/>
     <use xlink:href="#DejaVuSans-61" transform="translate(1021.826172 0)"/>
     <use xlink:href="#DejaVuSans-6e" transform="translate(1083.105469 0)"/>
     <use xlink:href="#DejaVuSans-63" transform="translate(1146.484375 0)"/>
     <use xlink:href="#DejaVuSans-68" transform="translate(1201.464844 0)"/>
     <use xlink:href="#DejaVuSans-5d" transform="translate(1264.84375 0)"/>
    </g>
   </g>
   <g id="legend_1">
    <g id="patch_7">
     <path d="M 89.733594 365.802375 
L 377.328906 365.802375 
Q 379.328906 365.802375 379.328906 363.802375 
L 379.328906 335.446125 
Q 379.328906 333.446125 377.328906 333.446125 
L 89.733594 333.446125 
Q 87.733594 333.446125 87.733594 335.446125 
L 87.733594 363.802375 
Q 87.733594 365.802375 89.733594 365.802375 
z
" style="fill: #4d4d4d; opacity: 0.5; stroke: #4d4d4d; stroke-linejoin: miter"/>
    </g>
    <g id="patch_8">
     <path d="M 87.733594 363.802375 
L 375.328906 363.802375 
Q 377.328906 363.802375 377.328906 361.802375 
L 377.328906 333.446125 
Q 377.328906 331.446125 375.328906 331.446125 
L 87.733594 331.446125 
Q 85.733594 331.446125 85.733594 333.446125 
L 85.733594 361.802375 
Q 85.733594 363.802375 87.733594 363.802375 
z
" style="fill: #ffffff; stroke: #cccccc; stroke-linejoin: miter"/>
    </g>
    <g id="line2d_23">
     <path d="M 89.733594 339.544562 
L 99.733594 339.544562 
L 109.733594 339.544562 
" style="fill: none; stroke: #1f77b4; stroke-opacity: 0.8; stroke-width: 1.5; stroke-linecap: square"/>
    </g>
    <g id="text_21">
     <!-- MPTT -->
     <g transform="translate(117.733594 343.044562) scale(0.1 -0.1)">
      <defs>
       <path id="DejaVuSans-4d" d="M 628 4666 
L 1569 4666 
L 2759 1491 
L 3956 4666 
L 4897 4666 
L 4897 0 
L 4281 0 
L 4281 4097 
L 3078 897 
L 2444 897 
L 1241 4097 
L 1241 0 
L 628 0 
L 628 4666 
z
" transform="scale(0.015625)"/>
       <path id="DejaVuSans-50" d="M 1259 4147 
L 1259 2394 
L 2053 2394 
Q 2494 2394 2734 2622 
Q 2975 2850 2975 3272 
Q 2975 3691 2734 3919 
Q 2494 4147 2053 4147 
L 1259 4147 
z
M 628 4666 
L 2053 4666 
Q 2838 4666 3239 4311 
Q 3641 3956 3641 3272 
Q 3641 2581 3239 2228 
Q 2838 1875 2053 1875 
L 1259 1875 
L 1259 0 
L 628 0 
L 628 4666 
z
" transform="scale(0.015625)"/>
       <path id="DejaVuSans-54" d="M -19 4666 
L 3928 4666 
L 3928 4134 
L 2272 4134 
L 2272 0 
L 1638 0 
L 1638 4134 
L -19 4134 
L -19 4666 
z
" transform="scale(0.015625)"/>
      </defs>
      <use xlink:href="#DejaVuSans-4d"/>
      <use xlink:href="#DejaVuSans-50" transform="translate(86.279297 0)"/>
      <use xlink:href="#DejaVuSans-54" transform="translate(146.582031 0)"/>
      <use xlink:href="#DejaVuSans-54" transform="translate(205.916016 0)"/>
     </g>
    </g>
    <g id="line2d_24">
     <path d="M 89.733594 354.222687 
L 99.733594 354.222687 
L 109.733594 354.222687 
" style="fill: none; stroke: #ff7f0e; stroke-opacity: 0.8; stroke-width: 1.5; stroke-linecap: square"/>
    </g>
    <g id="text_22">
     <!-- tree -->
     <g transform="translate(117.733594 357.722687) scale(0.1 -0.1)">
      <use xlink:href="#DejaVuSans-74"/>
      <use xlink:href="#DejaVuSans-72" transform="translate(39.208984 0)"/>
      <use xlink:href="#DejaVuSans-65" transform="translate(78.072266 0)"/>
      <use xlink:href="#DejaVuSans-65" transform="translate(139.595703 0)"/>
     </g>
    </g>
    <g id="line2d_25">
     <path d="M 164.432031 339.544562 
L 174.432031 339.544562 
L 184.432031 339.544562 
" style="fill: none; stroke: #2ca02c; stroke-opacity: 0.8; stroke-width: 1.5; stroke-linecap: square"/>
    </g>
    <g id="text_23">
     <!-- treebeard AL -->
     <g transform="translate(192.432031 343.044562) scale(0.1 -0.1)">
      <defs>
       <path id="DejaVuSans-4c" d="M 628 4666 
L 1259 4666 
L 1259 531 
L 3531 531 
L 3531 0 
L 628 0 
L 628 4666 
z
" transform="scale(0.015625)"/>
      </defs>
      <use xlink:href="#DejaVuSans-74"/>
      <use xlink:href="#DejaVuSans-72" transform="translate(39.208984 0)"/>
      <use xlink:href="#DejaVuSans-65" transform="translate(78.072266 0)"/>
      <use xlink:href="#DejaVuSans-65" transform="translate(139.595703 0)"/>
      <use xlink:href="#DejaVuSans-62" transform="translate(201.119141 0)"/>
      <use xlink:href="#DejaVuSans-65" transform="translate(264.595703 0)"/>
      <use xlink:href="#DejaVuSans-61" transform="translate(326.119141 0)"/>
      <use xlink:href="#DejaVuSans-72" transform="translate(387.398438 0)"/>
      <use xlink:href="#DejaVuSans-64" transform="translate(426.761719 0)"/>
      <use xlink:href="#DejaVuSans-20" transform="translate(490.238281 0)"/>
      <use xlink:href="#DejaVuSans-41" transform="translate(522.025391 0)"/>
      <use xlink:href="#DejaVuSans-4c" transform="translate(590.433594 0)"/>
     </g>
    </g>
    <g id="line2d_26">
     <path d="M 164.432031 354.222687 
L 174.432031 354.222687 
L 184.432031 354.222687 
" style="fill: none; stroke: #d62728; stroke-opacity: 0.8; stroke-width: 1.5; stroke-linecap: square"/>
    </g>
    <g id="text_24">
     <!-- treebeard MP -->
     <g transform="translate(192.432031 357.722687) scale(0.1 -0.1)">
      <use xlink:href="#DejaVuSans-74"/>
      <use xlink:href="#DejaVuSans-72" transform="translate(39.208984 0)"/>
      <use xlink:href="#DejaVuSans-65" transform="translate(78.072266 0)"/>
      <use xlink:href="#DejaVuSans-65" transform="translate(139.595703 0)"/>
      <use xlink:href="#DejaVuSans-62" transform="translate(201.119141 0)"/>
      <use xlink:href="#DejaVuSans-65" transform="translate(264.595703 0)"/>
      <use xlink:href="#DejaVuSans-61" transform="translate(326.119141 0)"/>
      <use xlink:href="#DejaVuSans-72" transform="translate(387.398438 0)"/>
      <use xlink:href="#DejaVuSans-64" transform="translate(426.761719 0)"/>
      <use xlink:href="#DejaVuSans-20" transform="translate(490.238281 0)"/>
      <use xlink:href="#DejaVuSans-4d" transform="translate(522.025391 0)"/>
      <use xlink:href="#DejaVuSans-50" transform="translate(608.304688 0)"/>
     </g>
    </g>
    <g id="line2d_27">
     <path d="M 279.294531 339.544562 
L 289.294531 339.544562 
L 299.294531 339.544562 
" style="fill: none; stroke: #9467bd; stroke-opacity: 0.8; stroke-width: 1.5; stroke-linecap: square"/>
    </g>
    <g id="text_25">
     <!-- treebeard NS -->
     <g transform="translate(307.294531 343.044562) scale(0.1 -0.1)">
      <defs>
       <path id="DejaVuSans-4e" d="M 628 4666 
L 1478 4666 
L 3547 763 
L 3547 4666 
L 4159 4666 
L 4159 0 
L 3309 0 
L 1241 3903 
L 1241 0 
L 628 0 
L 628 4666 
z
" transform="scale(0.015625)"/>
       <path id="DejaVuSans-53" d="M 3425 4513 
L 3425 3897 
Q 3066 4069 2747 4153 
Q 2428 4238 2131 4238 
Q 1616 4238 1336 4038 
Q 1056 3838 1056 3469 
Q 1056 3159 1242 3001 
Q 1428 2844 1947 2747 
L 2328 2669 
Q 3034 2534 3370 2195 
Q 3706 1856 3706 1288 
Q 3706 609 3251 259 
Q 2797 -91 1919 -91 
Q 1588 -91 1214 -16 
Q 841 59 441 206 
L 441 856 
Q 825 641 1194 531 
Q 1563 422 1919 422 
Q 2459 422 2753 634 
Q 3047 847 3047 1241 
Q 3047 1584 2836 1778 
Q 2625 1972 2144 2069 
L 1759 2144 
Q 1053 2284 737 2584 
Q 422 2884 422 3419 
Q 422 4038 858 4394 
Q 1294 4750 2059 4750 
Q 2388 4750 2728 4690 
Q 3069 4631 3425 4513 
z
" transform="scale(0.015625)"/>
      </defs>
      <use xlink:href="#DejaVuSans-74"/>
      <use xlink:href="#DejaVuSans-72" transform="translate(39.208984 0)"/>
      <use xlink:href="#DejaVuSans-65" transform="translate(78.072266 0)"/>
      <use xlink:href="#DejaVuSans-65" transform="translate(139.595703 0)"/>
      <use xlink:href="#DejaVuSans-62" transform="translate(201.119141 0)"/>
      <use xlink:href="#DejaVuSans-65" transform="translate(264.595703 0)"/>
      <use xlink:href="#DejaVuSans-61" transform="translate(326.119141 0)"/>
      <use xlink:href="#DejaVuSans-72" transform="translate(387.398438 0)"/>
      <use xlink:href="#DejaVuSans-64" transform="translate(426.761719 0)"/>
      <use xlink:href="#DejaVuSans-20" transform="translate(490.238281 0)"/>
      <use xlink:href="#DejaVuSans-4e" transform="translate(522.025391 0)"/>
      <use xlink:href="#DejaVuSans-53" transform="translate(596.830078 0)"/>
     </g>
    </g>
   </g>
  </g>
 </g>
 <defs>
  <clipPath id="p8742ffcf96">
   <rect x="58.73125" y="22.318125" width="357.12" height="266.112"/>
  </clipPath>
 </defs>
</svg>
