<?xml version="1.0" encoding="utf-8" standalone="no"?>
<!DOCTYPE svg PUBLIC "-//W3C//DTD SVG 1.1//EN"
  "http://www.w3.org/Graphics/SVG/1.1/DTD/svg11.dtd">
<svg xmlns:xlink="http://www.w3.org/1999/xlink" width="426.035625pt" height="371.002375pt" viewBox="0 0 426.035625 371.002375" xmlns="http://www.w3.org/2000/svg" version="1.1">
 <metadata>
  <rdf:RDF xmlns:dc="http://purl.org/dc/elements/1.1/" xmlns:cc="http://creativecommons.org/ns#" xmlns:rdf="http://www.w3.org/1999/02/22-rdf-syntax-ns#">
   <cc:Work>
    <dc:type rdf:resource="http://purl.org/dc/dcmitype/StillImage"/>
    <dc:date>2026-06-28T18:00:24.208269</dc:date>
    <dc:format>image/svg+xml</dc:format>
    <dc:creator>
     <cc:Agent>
      <dc:title>Matplotlib v3.10.6, https://matplotlib.org/</dc:title>
     </cc:Agent>
    </dc:creator>
   </cc:Work>
  </rdf:RDF>
 </metadata>
 <defs>
  <style type="text/css">*{stroke-linejoin: round; stroke-linecap: butt}</style>
 </defs>
 <g id="figure_1">
  <g id="patch_1">
   <path d="M 0 371.002375 
L 426.035625 371.002375 
L 426.035625 0 
L 0 0 
z
" style="fill: #ffffff"/>
  </g>
  <g id="axes_1">
   <g id="patch_2">
    <path d="M 61.715625 288.430125 
L 418.835625 288.430125 
L 418.835625 22.318125 
L 61.715625 22.318125 
z
" style="fill: #ffffff"/>
   </g>
   <g id="matplotlib.axis_1">
    <g id="xtick_1">
     <g id="line2d_1">
      <defs>
       <path id="mb1bdea60e8" d="M 0 0 
L 0 3.5 
" style="stroke: #000000; stroke-width: 0.8"/>
      </defs>
      <g>
       <use xlink:href="#mb1bdea60e8" x="61.715625" y="288.430125" style="stroke: #000000; stroke-width: 0.8"/>
      </g>
     </g>
     <g id="text_1">
      <!-- 0 -->
      <g transform="translate(58.534375 303.028562) scale(0.1 -0.1)">
       <defs>
        <path id="DejaVuSans-30" d="M 2034 4250 
Q 1547 4250 1301 3770 
Q 1056 3291 1056 2328 
Q 1056 1369 1301 889 
Q 1547 409 2034 409 
Q 2525 409 2770 889 
Q 3016 1369 3016 2328 
Q 3016 3291 2770 3770 
Q 2525 4250 2034 4250 
z
M 2034 4750 
Q 2819 4750 3233 4129 
Q 3647 3509 3647 2328 
Q 3647 1150 3233 529 
Q 2819 -91 2034 -91 
Q 1250 -91 836 529 
Q 422 1150 422 2328 
Q 422 3509 836 4129 
Q 1250 4750 2034 4750 
z
" transform="scale(0.015625)"/>
       </defs>
       <use xlink:href="#DejaVuSans-30"/>
      </g>
     </g>
    </g>
    <g id="xtick_2">
     <g id="line2d_2">
      <g>
       <use xlink:href="#mb1bdea60e8" x="105.264189" y="288.430125" style="stroke: #000000; stroke-width: 0.8"/>
      </g>
     </g>
     <g id="text_2">
      <!-- 500  -->
      <g transform="translate(94.131377 303.028562) scale(0.1 -0.1)">
       <defs>
        <path id="DejaVuSans-35" d="M 691 4666 
L 3169 4666 
L 3169 4134 
L 1269 4134 
L 1269 2991 
Q 1406 3038 1543 3061 
Q 1681 3084 1819 3084 
Q 2600 3084 3056 2656 
Q 3513 2228 3513 1497 
Q 3513 744 3044 326 
Q 2575 -91 1722 -91 
Q 1428 -91 1123 -41 
Q 819 9 494 109 
L 494 744 
Q 775 591 1075 516 
Q 1375 441 1709 441 
Q 2250 441 2565 725 
Q 2881 1009 2881 1497 
Q 2881 1984 2565 2268 
Q 2250 2553 1709 2553 
Q 1456 2553 1204 2497 
Q 953 2441 691 2322 
L 691 4666 
z
" transform="scale(0.015625)"/>
        <path id="DejaVuSans-20" transform="scale(0.015625)"/>
       </defs>
       <use xlink:href="#DejaVuSans-35"/>
       <use xlink:href="#DejaVuSans-30" transform="translate(63.623047 0)"/>
       <use xlink:href="#DejaVuSans-30" transform="translate(127.246094 0)"/>
       <use xlink:href="#DejaVuSans-20" transform="translate(190.869141 0)"/>
      </g>
     </g>
    </g>
    <g id="xtick_3">
     <g id="line2d_3">
      <g>
       <use xlink:href="#mb1bdea60e8" x="148.812753" y="288.430125" style="stroke: #000000; stroke-width: 0.8"/>
      </g>
     </g>
     <g id="text_3">
      <!-- 1 k -->
      <g transform="translate(141.147128 303.028562) scale(0.1 -0.1)">
       <defs>
        <path id="DejaVuSans-31" d="M 794 531 
L 1825 531 
L 1825 4091 
L 703 3866 
L 703 4441 
L 1819 4666 
L 2450 4666 
L 2450 531 
L 3481 531 
L 3481 0 
L 794 0 
L 794 531 
z
" transform="scale(0.015625)"/>
        <path id="DejaVuSans-6b" d="M 581 4863 
L 1159 4863 
L 1159 1991 
L 2875 3500 
L 3609 3500 
L 1753 1863 
L 3688 0 
L 2938 0 
L 1159 1709 
L 1159 0 
L 581 0 
L 581 4863 
z
" transform="scale(0.015625)"/>
       </defs>
       <use xlink:href="#DejaVuSans-31"/>
       <use xlink:href="#DejaVuSans-20" transform="translate(63.623047 0)"/>
       <use xlink:href="#DejaVuSans-6b" transform="translate(95.410156 0)"/>
      </g>
     </g>
    </g>
    <g id="xtick_4">
     <g id="line2d_4">
      <g>
       <use xlink:href="#mb1bdea60e8" x="192.361317" y="288.430125" style="stroke: #000000; stroke-width: 0.8"/>
      </g>
     </g>
     <g id="text_4">
      <!-- 1.5 k -->
      <g transform="translate(179.92538 303.028562) scale(0.1 -0.1)">
       <defs>
        <path id="DejaVuSans-2e" d="M 684 794 
L 1344 794 
L 1344 0 
L 684 0 
L 684 794 
z
" transform="scale(0.015625)"/>
       </defs>
       <use xlink:href="#DejaVuSans-31"/>
       <use xlink:href="#DejaVuSans-2e" transform="translate(63.623047 0)"/>
       <use xlink:href="#DejaVuSans-35" transform="translate(95.410156 0)"/>
       <use xlink:href="#DejaVuSans-20" transform="translate(159.033203 0)"/>
       <use xlink:href="#DejaVuSans-6b" transform="translate(190.820312 0)"/>
      </g>
     </g>
    </g>
    <g id="xtick_5">
     <g id="line2d_5">
      <g>
       <use xlink:href="#mb1bdea60e8" x="235.909881" y="288.430125" style="stroke: #000000; stroke-width: 0.8"/>
      </g>
     </g>
     <g id="text_5">
      <!-- 2 k -->
      <g transform="translate(228.244256 303.028562) scale(0.1 -0.1)">
       <defs>
        <path id="DejaVuSans-32" d="M 1228 531 
L 3431 531 
L 3431 0 
L 469 0 
L 469 531 
Q 828 903 1448 1529 
Q 2069 2156 2228 2338 
Q 2531 2678 2651 2914 
Q 2772 3150 2772 3378 
Q 2772 3750 2511 3984 
Q 2250 4219 1831 4219 
Q 1534 4219 1204 4116 
Q 875 4013 500 3803 
L 500 4441 
Q 881 4594 1212 4672 
Q 1544 4750 1819 4750 
Q 2544 4750 2975 4387 
Q 3406 4025 3406 3419 
Q 3406 3131 3298 2873 
Q 3191 2616 2906 2266 
Q 2828 2175 2409 1742 
Q 1991 1309 1228 531 
z
" transform="scale(0.015625)"/>
       </defs>
       <use xlink:href="#DejaVuSans-32"/>
       <use xlink:href="#DejaVuSans-20" transform="translate(63.623047 0)"/>
       <use xlink:href="#DejaVuSans-6b" transform="translate(95.410156 0)"/>
      </g>
     </g>
    </g>
    <g id="xtick_6">
     <g id="line2d_6">
      <g>
       <use xlink:href="#mb1bdea60e8" x="279.458446" y="288.430125" style="stroke: #000000; stroke-width: 0.8"/>
      </g>
     </g>
     <g id="text_6">
      <!-- 2.5 k -->
      <g transform="translate(267.022508 303.028562) scale(0.1 -0.1)">
       <use xlink:href="#DejaVuSans-32"/>
       <use xlink:href="#DejaVuSans-2e" transform="translate(63.623047 0)"/>
       <use xlink:href="#DejaVuSans-35" transform="translate(95.410156 0)"/>
       <use xlink:href="#DejaVuSans-20" transform="translate(159.033203 0)"/>
       <use xlink:href="#DejaVuSans-6b" transform="translate(190.820312 0)"/>
      </g>
     </g>
    </g>
    <g id="xtick_7">
     <g id="line2d_7">
      <g>
       <use xlink:href="#mb1bdea60e8" x="323.00701" y="288.430125" style="stroke: #000000; stroke-width: 0.8"/>
      </g>
     </g>
     <g id="text_7">
      <!-- 3 k -->
      <g transform="translate(315.341385 303.028562) scale(0.1 -0.1)">
       <defs>
        <path id="DejaVuSans-33" d="M 2597 2516 
Q 3050 2419 3304 2112 
Q 3559 1806 3559 1356 
Q 3559 666 3084 287 
Q 2609 -91 1734 -91 
Q 1441 -91 1130 -33 
Q 819 25 488 141 
L 488 750 
Q 750 597 1062 519 
Q 1375 441 1716 441 
Q 2309 441 2620 675 
Q 2931 909 2931 1356 
Q 2931 1769 2642 2001 
Q 2353 2234 1838 2234 
L 1294 2234 
L 1294 2753 
L 1863 2753 
Q 2328 2753 2575 2939 
Q 2822 3125 2822 3475 
Q 2822 3834 2567 4026 
Q 2313 4219 1838 4219 
Q 1578 4219 1281 4162 
Q 984 4106 628 3988 
L 628 4550 
Q 988 4650 1302 4700 
Q 1616 4750 1894 4750 
Q 2613 4750 3031 4423 
Q 3450 4097 3450 3541 
Q 3450 3153 3228 2886 
Q 3006 2619 2597 2516 
z
" transform="scale(0.015625)"/>
       </defs>
       <use xlink:href="#DejaVuSans-33"/>
       <use xlink:href="#DejaVuSans-20" transform="translate(63.623047 0)"/>
       <use xlink:href="#DejaVuSans-6b" transform="translate(95.410156 0)"/>
      </g>
     </g>
    </g>
    <g id="xtick_8">
     <g id="line2d_8">
      <g>
       <use xlink:href="#mb1bdea60e8" x="366.555574" y="288.430125" style="stroke: #000000; stroke-width: 0.8"/>
      </g>
     </g>
     <g id="text_8">
      <!-- 3.5 k -->
      <g transform="translate(354.119636 303.028562) scale(0.1 -0.1)">
       <use xlink:href="#DejaVuSans-33"/>
       <use xlink:href="#DejaVuSans-2e" transform="translate(63.623047 0)"/>
       <use xlink:href="#DejaVuSans-35" transform="translate(95.410156 0)"/>
       <use xlink:href="#DejaVuSans-20" transform="translate(159.033203 0)"/>
       <use xlink:href="#DejaVuSans-6b" transform="translate(190.820312 0)"/>
      </g>
     </g>
    </g>
    <g id="xtick_9">
     <g id="line2d_9">
      <g>
       <use xlink:href="#mb1bdea60e8" x="410.104138" y="288.430125" style="stroke: #000000; stroke-width: 0.8"/>
      </g>
     </g>
     <g id="text_9">
      <!-- 4 k -->
      <g transform="translate(402.438513 303.028562) scale(0.1 -0.1)">
       <defs>
        <path id="DejaVuSans-34" d="M 2419 4116 
L 825 1625 
L 2419 1625 
L 2419 4116 
z
M 2253 4666 
L 3047 4666 
L 3047 1625 
L 3713 1625 
L 3713 1100 
L 3047 1100 
L 3047 0 
L 2419 0 
L 2419 1100 
L 313 1100 
L 313 1709 
L 2253 4666 
z
" transform="scale(0.015625)"/>
       </defs>
       <use xlink:href="#DejaVuSans-34"/>
       <use xlink:href="#DejaVuSans-20" transform="translate(63.623047 0)"/>
       <use xlink:href="#DejaVuSans-6b" transform="translate(95.410156 0)"/>
      </g>
     </g>
    </g>
    <g id="text_10">
     <!-- Amount of objects in table -->
     <g transform="translate(174.217031 316.706687) scale(0.1 -0.1)">
      <defs>
       <path id="DejaVuSans-41" d="M 2188 4044 
L 1331 1722 
L 3047 1722 
L 2188 4044 
z
M 1831 4666 
L 2547 4666 
L 4325 0 
L 3669 0 
L 3244 1197 
L 1141 1197 
L 716 0 
L 50 0 
L 1831 4666 
z
" transform="scale(0.015625)"/>
       <path id="DejaVuSans-6d" d="M 3328 2828 
Q 3544 3216 3844 3400 
Q 4144 3584 4550 3584 
Q 5097 3584 5394 3201 
Q 5691 2819 5691 2113 
L 5691 0 
L 5113 0 
L 5113 2094 
Q 5113 2597 4934 2840 
Q 4756 3084 4391 3084 
Q 3944 3084 3684 2787 
Q 3425 2491 3425 1978 
L 3425 0 
L 2847 0 
L 2847 2094 
Q 2847 2600 2669 2842 
Q 2491 3084 2119 3084 
Q 1678 3084 1418 2786 
Q 1159 2488 1159 1978 
L 1159 0 
L 581 0 
L 581 3500 
L 1159 3500 
L 1159 2956 
Q 1356 3278 1631 3431 
Q 1906 3584 2284 3584 
Q 2666 3584 2933 3390 
Q 3200 3197 3328 2828 
z
" transform="scale(0.015625)"/>
       <path id="DejaVuSans-6f" d="M 1959 3097 
Q 1497 3097 1228 2736 
Q 959 2375 959 1747 
Q 959 1119 1226 758 
Q 1494 397 1959 397 
Q 2419 397 2687 759 
Q 2956 1122 2956 1747 
Q 2956 2369 2687 2733 
Q 2419 3097 1959 3097 
z
M 1959 3584 
Q 2709 3584 3137 3096 
Q 3566 2609 3566 1747 
Q 3566 888 3137 398 
Q 2709 -91 1959 -91 
Q 1206 -91 779 398 
Q 353 888 353 1747 
Q 353 2609 779 3096 
Q 1206 3584 1959 3584 
z
" transform="scale(0.015625)"/>
       <path id="DejaVuSans-75" d="M 544 1381 
L 544 3500 
L 1119 3500 
L 1119 1403 
Q 1119 906 1312 657 
Q 1506 409 1894 409 
Q 2359 409 2629 706 
Q 2900 1003 2900 1516 
L 2900 3500 
L 3475 3500 
L 3475 0 
L 2900 0 
L 2900 538 
Q 2691 219 2414 64 
Q 2138 -91 1772 -91 
Q 1169 -91 856 284 
Q 544 659 544 1381 
z
M 1991 3584 
L 1991 3584 
z
" transform="scale(0.015625)"/>
       <path id="DejaVuSans-6e" d="M 3513 2113 
L 3513 0 
L 2938 0 
L 2938 2094 
Q 2938 2591 2744 2837 
Q 2550 3084 2163 3084 
Q 1697 3084 1428 2787 
Q 1159 2491 1159 1978 
L 1159 0 
L 581 0 
L 581 3500 
L 1159 3500 
L 1159 2956 
Q 1366 3272 1645 3428 
Q 1925 3584 2291 3584 
Q 2894 3584 3203 3211 
Q 3513 2838 3513 2113 
z
" transform="scale(0.015625)"/>
       <path id="DejaVuSans-74" d="M 1172 4494 
L 1172 3500 
L 2356 3500 
L 2356 3053 
L 1172 3053 
L 1172 1153 
Q 1172 725 1289 603 
Q 1406 481 1766 481 
L 2356 481 
L 2356 0 
L 1766 0 
Q 1100 0 847 248 
Q 594 497 594 1153 
L 594 3053 
L 172 3053 
L 172 3500 
L 594 3500 
L 594 4494 
L 1172 4494 
z
" transform="scale(0.015625)"/>
       <path id="DejaVuSans-66" d="M 2375 4863 
L 2375 4384 
L 1825 4384 
Q 1516 4384 1395 4259 
Q 1275 4134 1275 3809 
L 1275 3500 
L 2222 3500 
L 2222 3053 
L 1275 3053 
L 1275 0 
L 697 0 
L 697 3053 
L 147 3053 
L 147 3500 
L 697 3500 
L 697 3744 
Q 697 4328 969 4595 
Q 1241 4863 1831 4863 
L 2375 4863 
z
" transform="scale(0.015625)"/>
       <path id="DejaVuSans-62" d="M 3116 1747 
Q 3116 2381 2855 2742 
Q 2594 3103 2138 3103 
Q 1681 3103 1420 2742 
Q 1159 2381 1159 1747 
Q 1159 1113 1420 752 
Q 1681 391 2138 391 
Q 2594 391 2855 752 
Q 3116 1113 3116 1747 
z
M 1159 2969 
Q 1341 3281 1617 3432 
Q 1894 3584 2278 3584 
Q 2916 3584 3314 3078 
Q 3713 2572 3713 1747 
Q 3713 922 3314 415 
Q 2916 -91 2278 -91 
Q 1894 -91 1617 61 
Q 1341 213 1159 525 
L 1159 0 
L 581 0 
L 581 4863 
L 1159 4863 
L 1159 2969 
z
" transform="scale(0.015625)"/>
       <path id="DejaVuSans-6a" d="M 603 3500 
L 1178 3500 
L 1178 -63 
Q 1178 -731 923 -1031 
Q 669 -1331 103 -1331 
L -116 -1331 
L -116 -844 
L 38 -844 
Q 366 -844 484 -692 
Q 603 -541 603 -63 
L 603 3500 
z
M 603 4863 
L 1178 4863 
L 1178 4134 
L 603 4134 
L 603 4863 
z
" transform="scale(0.015625)"/>
       <path id="DejaVuSans-65" d="M 3597 1894 
L 3597 1613 
L 953 1613 
Q 991 1019 1311 708 
Q 1631 397 2203 397 
Q 2534 397 2845 478 
Q 3156 559 3463 722 
L 3463 178 
Q 3153 47 2828 -22 
Q 2503 -91 2169 -91 
Q 1331 -91 842 396 
Q 353 884 353 1716 
Q 353 2575 817 3079 
Q 1281 3584 2069 3584 
Q 2775 3584 3186 3129 
Q 3597 2675 3597 1894 
z
M 3022 2063 
Q 3016 2534 2758 2815 
Q 2500 3097 2075 3097 
Q 1594 3097 1305 2825 
Q 1016 2553 972 2059 
L 3022 2063 
z
" transform="scale(0.015625)"/>
       <path id="DejaVuSans-63" d="M 3122 3366 
L 3122 2828 
Q 2878 2963 2633 3030 
Q 2388 3097 2138 3097 
Q 1578 3097 1268 2742 
Q 959 2388 959 1747 
Q 959 1106 1268 751 
Q 1578 397 2138 397 
Q 2388 397 2633 464 
Q 2878 531 3122 666 
L 3122 134 
Q 2881 22 2623 -34 
Q 2366 -91 2075 -91 
Q 1284 -91 818 406 
Q 353 903 353 1747 
Q 353 2603 823 3093 
Q 1294 3584 2113 3584 
Q 2378 3584 2631 3529 
Q 2884 3475 3122 3366 
z
" transform="scale(0.015625)"/>
       <path id="DejaVuSans-73" d="M 2834 3397 
L 2834 2853 
Q 2591 2978 2328 3040 
Q 2066 3103 1784 3103 
Q 1356 3103 1142 2972 
Q 928 2841 928 2578 
Q 928 2378 1081 2264 
Q 1234 2150 1697 2047 
L 1894 2003 
Q 2506 1872 2764 1633 
Q 3022 1394 3022 966 
Q 3022 478 2636 193 
Q 2250 -91 1575 -91 
Q 1294 -91 989 -36 
Q 684 19 347 128 
L 347 722 
Q 666 556 975 473 
Q 1284 391 1588 391 
Q 1994 391 2212 530 
Q 2431 669 2431 922 
Q 2431 1156 2273 1281 
Q 2116 1406 1581 1522 
L 1381 1569 
Q 847 1681 609 1914 
Q 372 2147 372 2553 
Q 372 3047 722 3315 
Q 1072 3584 1716 3584 
Q 2034 3584 2315 3537 
Q 2597 3491 2834 3397 
z
" transform="scale(0.015625)"/>
       <path id="DejaVuSans-69" d="M 603 3500 
L 1178 3500 
L 1178 0 
L 603 0 
L 603 3500 
z
M 603 4863 
L 1178 4863 
L 1178 4134 
L 603 4134 
L 603 4863 
z
" transform="scale(0.015625)"/>
       <path id="DejaVuSans-61" d="M 2194 1759 
Q 1497 1759 1228 1600 
Q 959 1441 959 1056 
Q 959 750 1161 570 
Q 1363 391 1709 391 
Q 2188 391 2477 730 
Q 2766 1069 2766 1631 
L 2766 1759 
L 2194 1759 
z
M 3341 1997 
L 3341 0 
L 2766 0 
L 2766 531 
Q 2569 213 2275 61 
Q 1981 -91 1556 -91 
Q 1019 -91 701 211 
Q 384 513 384 1019 
Q 384 1609 779 1909 
Q 1175 2209 1959 2209 
L 2766 2209 
L 2766 2266 
Q 2766 2663 2505 2880 
Q 2244 3097 1772 3097 
Q 1472 3097 1187 3025 
Q 903 2953 641 2809 
L 641 3341 
Q 956 3463 1253 3523 
Q 1550 3584 1831 3584 
Q 2591 3584 2966 3190 
Q 3341 2797 3341 1997 
z
" transform="scale(0.015625)"/>
       <path id="DejaVuSans-6c" d="M 603 4863 
L 1178 4863 
L 1178 0 
L 603 0 
L 603 4863 
z
" transform="scale(0.015625)"/>
      </defs>
      <use xlink:href="#DejaVuSans-41"/>
      <use xlink:href="#DejaVuSans-6d" transform="translate(68.408203 0)"/>
      <use xlink:href="#DejaVuSans-6f" transform="translate(165.820312 0)"/>
      <use xlink:href="#DejaVuSans-75" transform="translate(227.001953 0)"/>
      <use xlink:href="#DejaVuSans-6e" transform="translate(290.380859 0)"/>
      <use xlink:href="#DejaVuSans-74" transform="translate(353.759766 0)"/>
      <use xlink:href="#DejaVuSans-20" transform="translate(392.96875 0)"/>
      <use xlink:href="#DejaVuSans-6f" transform="translate(424.755859 0)"/>
      <use xlink:href="#DejaVuSans-66" transform="translate(485.9375 0)"/>
      <use xlink:href="#DejaVuSans-20" transform="translate(521.142578 0)"/>
      <use xlink:href="#DejaVuSans-6f" transform="translate(552.929688 0)"/>
      <use xlink:href="#DejaVuSans-62" transform="translate(614.111328 0)"/>
      <use xlink:href="#DejaVuSans-6a" transform="translate(677.587891 0)"/>
      <use xlink:href="#DejaVuSans-65" transform="translate(705.371094 0)"/>
      <use xlink:href="#DejaVuSans-63" transform="translate(766.894531 0)"/>
      <use xlink:href="#DejaVuSans-74" transform="translate(821.875 0)"/>
      <use xlink:href="#DejaVuSans-73" transform="translate(861.083984 0)"/>
      <use xlink:href="#DejaVuSans-20" transform="translate(913.183594 0)"/>
      <use xlink:href="#DejaVuSans-69" transform="translate(944.970703 0)"/>
      <use xlink:href="#DejaVuSans-6e" transform="translate(972.753906 0)"/>
      <use xlink:href="#DejaVuSans-20" transform="translate(1036.132812 0)"/>
      <use xlink:href="#DejaVuSans-74" transform="translate(1067.919922 0)"/>
      <use xlink:href="#DejaVuSans-61" transform="translate(1107.128906 0)"/>
      <use xlink:href="#DejaVuSans-62" transform="translate(1168.408203 0)"/>
      <use xlink:href="#DejaVuSans-6c" transform="translate(1231.884766 0)"/>
      <use xlink:href="#DejaVuSans-65" transform="translate(1259.667969 0)"/>
     </g>
    </g>
   </g>
   <g id="matplotlib.axis_2">
    <g id="ytick_1">
     <g id="line2d_10">
      <defs>
       <path id="md83dfa0799" d="M 0 0 
L -3.5 0 
" style="stroke: #000000; stroke-width: 0.8"/>
      </defs>
      <g>
       <use xlink:href="#md83dfa0799" x="61.715625" y="288.430125" style="stroke: #000000; stroke-width: 0.8"/>
      </g>
     </g>
     <g id="text_11">
      <!-- 0 -->
      <g transform="translate(48.353125 292.229344) scale(0.1 -0.1)">
       <use xlink:href="#DejaVuSans-30"/>
      </g>
     </g>
    </g>
    <g id="ytick_2">
     <g id="line2d_11">
      <g>
       <use xlink:href="#md83dfa0799" x="61.715625" y="247.42402" style="stroke: #000000; stroke-width: 0.8"/>
      </g>
     </g>
     <g id="text_12">
      <!-- 100 µs -->
      <g transform="translate(20.878125 251.223239) scale(0.1 -0.1)">
       <defs>
        <path id="DejaVuSans-b5" d="M 544 -1331 
L 544 3500 
L 1119 3500 
L 1119 1325 
Q 1119 872 1334 640 
Q 1550 409 1972 409 
Q 2434 409 2667 671 
Q 2900 934 2900 1459 
L 2900 3500 
L 3475 3500 
L 3475 806 
Q 3475 619 3529 530 
Q 3584 441 3700 441 
Q 3728 441 3778 458 
Q 3828 475 3916 513 
L 3916 50 
Q 3788 -22 3673 -56 
Q 3559 -91 3450 -91 
Q 3234 -91 3106 31 
Q 2978 153 2931 403 
Q 2775 156 2548 32 
Q 2322 -91 2016 -91 
Q 1697 -91 1473 31 
Q 1250 153 1119 397 
L 1119 -1331 
L 544 -1331 
z
" transform="scale(0.015625)"/>
       </defs>
       <use xlink:href="#DejaVuSans-31"/>
       <use xlink:href="#DejaVuSans-30" transform="translate(63.623047 0)"/>
       <use xlink:href="#DejaVuSans-30" transform="translate(127.246094 0)"/>
       <use xlink:href="#DejaVuSans-20" transform="translate(190.869141 0)"/>
       <use xlink:href="#DejaVuSans-b5" transform="translate(222.65625 0)"/>
       <use xlink:href="#DejaVuSans-73" transform="translate(286.279297 0)"/>
      </g>
     </g>
    </g>
    <g id="ytick_3">
     <g id="line2d_12">
      <g>
       <use xlink:href="#md83dfa0799" x="61.715625" y="206.417916" style="stroke: #000000; stroke-width: 0.8"/>
      </g>
     </g>
     <g id="text_13">
      <!-- 200 µs -->
      <g transform="translate(20.878125 210.217134) scale(0.1 -0.1)">
       <use xlink:href="#DejaVuSans-32"/>
       <use xlink:href="#DejaVuSans-30" transform="translate(63.623047 0)"/>
       <use xlink:href="#DejaVuSans-30" transform="translate(127.246094 0)"/>
       <use xlink:href="#DejaVuSans-20" transform="translate(190.869141 0)"/>
       <use xlink:href="#DejaVuSans-b5" transform="translate(222.65625 0)"/>
       <use xlink:href="#DejaVuSans-73" transform="translate(286.279297 0)"/>
      </g>
     </g>
    </g>
    <g id="ytick_4">
     <g id="line2d_13">
      <g>
       <use xlink:href="#md83dfa0799" x="61.715625" y="165.411811" style="stroke: #000000; stroke-width: 0.8"/>
      </g>
     </g>
     <g id="text_14">
      <!-- 300 µs -->
      <g transform="translate(20.878125 169.21103) scale(0.1 -0.1)">
       <use xlink:href="#DejaVuSans-33"/>
       <use xlink:href="#DejaVuSans-30" transform="translate(63.623047 0)"/>
       <use xlink:href="#DejaVuSans-30" transform="translate(127.246094 0)"/>
       <use xlink:href="#DejaVuSans-20" transform="translate(190.869141 0)"/>
       <use xlink:href="#DejaVuSans-b5" transform="translate(222.65625 0)"/>
       <use xlink:href="#DejaVuSans-73" transform="translate(286.279297 0)"/>
      </g>
     </g>
    </g>
    <g id="ytick_5">
     <g id="line2d_14">
      <g>
       <use xlink:href="#md83dfa0799" x="61.715625" y="124.405706" style="stroke: #000000; stroke-width: 0.8"/>
      </g>
     </g>
     <g id="text_15">
      <!-- 400 µs -->
      <g transform="translate(20.878125 128.204925) scale(0.1 -0.1)">
       <use xlink:href="#DejaVuSans-34"/>
       <use xlink:href="#DejaVuSans-30" transform="translate(63.623047 0)"/>
       <use xlink:href="#DejaVuSans-30" transform="translate(127.246094 0)"/>
       <use xlink:href="#DejaVuSans-20" transform="translate(190.869141 0)"/>
       <use xlink:href="#DejaVuSans-b5" transform="translate(222.65625 0)"/>
       <use xlink:href="#DejaVuSans-73" transform="translate(286.279297 0)"/>
      </g>
     </g>
    </g>
    <g id="ytick_6">
     <g id="line2d_15">
      <g>
       <use xlink:href="#md83dfa0799" x="61.715625" y="83.399602" style="stroke: #000000; stroke-width: 0.8"/>
      </g>
     </g>
     <g id="text_16">
      <!-- 500 µs -->
      <g transform="translate(20.878125 87.19882) scale(0.1 -0.1)">
       <use xlink:href="#DejaVuSans-35"/>
       <use xlink:href="#DejaVuSans-30" transform="translate(63.623047 0)"/>
       <use xlink:href="#DejaVuSans-30" transform="translate(127.246094 0)"/>
       <use xlink:href="#DejaVuSans-20" transform="translate(190.869141 0)"/>
       <use xlink:href="#DejaVuSans-b5" transform="translate(222.65625 0)"/>
       <use xlink:href="#DejaVuSans-73" transform="translate(286.279297 0)"/>
      </g>
     </g>
    </g>
    <g id="ytick_7">
     <g id="line2d_16">
      <g>
       <use xlink:href="#md83dfa0799" x="61.715625" y="42.393497" style="stroke: #000000; stroke-width: 0.8"/>
      </g>
     </g>
     <g id="text_17">
      <!-- 600 µs -->
      <g transform="translate(20.878125 46.192716) scale(0.1 -0.1)">
       <defs>
        <path id="DejaVuSans-36" d="M 2113 2584 
Q 1688 2584 1439 2293 
Q 1191 2003 1191 1497 
Q 1191 994 1439 701 
Q 1688 409 2113 409 
Q 2538 409 2786 701 
Q 3034 994 3034 1497 
Q 3034 2003 2786 2293 
Q 2538 2584 2113 2584 
z
M 3366 4563 
L 3366 3988 
Q 3128 4100 2886 4159 
Q 2644 4219 2406 4219 
Q 1781 4219 1451 3797 
Q 1122 3375 1075 2522 
Q 1259 2794 1537 2939 
Q 1816 3084 2150 3084 
Q 2853 3084 3261 2657 
Q 3669 2231 3669 1497 
Q 3669 778 3244 343 
Q 2819 -91 2113 -91 
Q 1303 -91 875 529 
Q 447 1150 447 2328 
Q 447 3434 972 4092 
Q 1497 4750 2381 4750 
Q 2619 4750 2861 4703 
Q 3103 4656 3366 4563 
z
" transform="scale(0.015625)"/>
       </defs>
       <use xlink:href="#DejaVuSans-36"/>
       <use xlink:href="#DejaVuSans-30" transform="translate(63.623047 0)"/>
       <use xlink:href="#DejaVuSans-30" transform="translate(127.246094 0)"/>
       <use xlink:href="#DejaVuSans-20" transform="translate(190.869141 0)"/>
       <use xlink:href="#DejaVuSans-b5" transform="translate(222.65625 0)"/>
       <use xlink:href="#DejaVuSans-73" transform="translate(286.279297 0)"/>
      </g>
     </g>
    </g>
    <g id="text_18">
     <!-- Read latency (s) -->
     <g transform="translate(14.798438 195.98975) rotate(-90) scale(0.1 -0.1)">
      <defs>
       <path id="DejaVuSans-52" d="M 2841 2188 
Q 3044 2119 3236 1894 
Q 3428 1669 3622 1275 
L 4263 0 
L 3584 0 
L 2988 1197 
Q 2756 1666 2539 1819 
Q 2322 1972 1947 1972 
L 1259 1972 
L 1259 0 
L 628 0 
L 628 4666 
L 2053 4666 
Q 2853 4666 3247 4331 
Q 3641 3997 3641 3322 
Q 3641 2881 3436 2590 
Q 3231 2300 2841 2188 
z
M 1259 4147 
L 1259 2491 
L 2053 2491 
Q 2509 2491 2742 2702 
Q 2975 2913 2975 3322 
Q 2975 3731 2742 3939 
Q 2509 4147 2053 4147 
L 1259 4147 
z
" transform="scale(0.015625)"/>
       <path id="DejaVuSans-64" d="M 2906 2969 
L 2906 4863 
L 3481 4863 
L 3481 0 
L 2906 0 
L 2906 525 
Q 2725 213 2448 61 
Q 2172 -91 1784 -91 
Q 1150 -91 751 415 
Q 353 922 353 1747 
Q 353 2572 751 3078 
Q 1150 3584 1784 3584 
Q 2172 3584 2448 3432 
Q 2725 3281 2906 2969 
z
M 947 1747 
Q 947 1113 1208 752 
Q 1469 391 1925 391 
Q 2381 391 2643 752 
Q 2906 1113 2906 1747 
Q 2906 2381 2643 2742 
Q 2381 3103 1925 3103 
Q 1469 3103 1208 2742 
Q 947 2381 947 1747 
z
" transform="scale(0.015625)"/>
       <path id="DejaVuSans-79" d="M 2059 -325 
Q 1816 -950 1584 -1140 
Q 1353 -1331 966 -1331 
L 506 -1331 
L 506 -850 
L 844 -850 
Q 1081 -850 1212 -737 
Q 1344 -625 1503 -206 
L 1606 56 
L 191 3500 
L 800 3500 
L 1894 763 
L 2988 3500 
L 3597 3500 
L 2059 -325 
z
" transform="scale(0.015625)"/>
       <path id="DejaVuSans-28" d="M 1984 4856 
Q 1566 4138 1362 3434 
Q 1159 2731 1159 2009 
Q 1159 1288 1364 580 
Q 1569 -128 1984 -844 
L 1484 -844 
Q 1016 -109 783 600 
Q 550 1309 550 2009 
Q 550 2706 781 3412 
Q 1013 4119 1484 4856 
L 1984 4856 
z
" transform="scale(0.015625)"/>
       <path id="DejaVuSans-29" d="M 513 4856 
L 1013 4856 
Q 1481 4119 1714 3412 
Q 1947 2706 1947 2009 
Q 1947 1309 1714 600 
Q 1481 -109 1013 -844 
L 513 -844 
Q 928 -128 1133 580 
Q 1338 1288 1338 2009 
Q 1338 2731 1133 3434 
Q 928 4138 513 4856 
z
" transform="scale(0.015625)"/>
      </defs>
      <use xlink:href="#DejaVuSans-52"/>
      <use xlink:href="#DejaVuSans-65" transform="translate(64.982422 0)"/>
      <use xlink:href="#DejaVuSans-61" transform="translate(126.505859 0)"/>
      <use xlink:href="#DejaVuSans-64" transform="translate(187.785156 0)"/>
      <use xlink:href="#DejaVuSans-20" transform="translate(251.261719 0)"/>
      <use xlink:href="#DejaVuSans-6c" transform="translate(283.048828 0)"/>
      <use xlink:href="#DejaVuSans-61" transform="translate(310.832031 0)"/>
      <use xlink:href="#DejaVuSans-74" transform="translate(372.111328 0)"/>
      <use xlink:href="#DejaVuSans-65" transform="translate(411.320312 0)"/>
      <use xlink:href="#DejaVuSans-6e" transform="translate(472.84375 0)"/>
      <use xlink:href="#DejaVuSans-63" transform="translate(536.222656 0)"/>
      <use xlink:href="#DejaVuSans-79" transform="translate(591.203125 0)"/>
      <use xlink:href="#DejaVuSans-20" transform="translate(650.382812 0)"/>
      <use xlink:href="#DejaVuSans-28" transform="translate(682.169922 0)"/>
      <use xlink:href="#DejaVuSans-73" transform="translate(721.183594 0)"/>
      <use xlink:href="#DejaVuSans-29" transform="translate(773.283203 0)"/>
     </g>
    </g>
   </g>
   <g id="line2d_17">
    <path d="M 146.635325 85.957887 
L 147.506296 87.076432 
L 147.941782 87.034819 
L 149.248239 90.72687 
L 149.683725 91.612281 
L 150.11921 91.895552 
L 151.425667 94.448001 
L 151.861153 92.95995 
L 152.296638 90.529834 
L 152.732124 91.621306 
L 153.16761 90.095652 
L 153.603095 90.823132 
L 154.909552 92.030419 
L 155.345038 91.988806 
L 155.780523 91.354078 
L 156.216009 91.132976 
L 157.522466 89.707595 
L 157.957952 89.541644 
L 158.393437 89.600805 
L 158.828923 89.490504 
L 159.264409 89.040279 
L 160.570866 88.104732 
L 161.006351 87.565263 
L 161.441837 87.266951 
L 161.877322 86.80018 
L 163.183779 86.089746 
L 163.619265 86.016045 
L 164.925722 85.241937 
L 165.361208 85.050416 
L 166.667665 83.614005 
L 167.10315 83.432511 
L 167.974121 82.356081 
L 168.409607 81.321263 
L 168.845093 81.22099 
L 169.716064 80.610829 
L 170.15155 82.429781 
L 170.587035 82.720072 
L 171.022521 82.816835 
L 171.458007 82.399699 
L 171.893492 82.489444 
L 172.328978 82.299928 
L 172.764463 81.871762 
L 173.199949 81.145786 
L 173.635435 80.906634 
L 174.07092 80.854492 
L 174.506406 80.537128 
L 174.941892 80.910144 
L 175.377377 80.957272 
L 175.812863 81.12924 
L 176.248349 80.143056 
L 177.554806 79.235585 
L 177.990291 79.220544 
L 178.861262 78.562753 
L 179.296748 79.48727 
L 179.732234 81.40449 
L 180.603205 80.819898 
L 181.038691 80.998886 
L 181.474176 78.393292 
L 181.909662 78.188233 
L 182.345148 75.984233 
L 182.780633 74.431506 
L 183.216119 74.353293 
L 183.651605 74.868195 
L 184.08709 72.457632 
L 184.522576 72.303713 
L 184.958061 71.881563 
L 185.829033 71.64141 
L 186.264518 73.81984 
L 186.700004 76.57434 
L 187.13549 74.952925 
L 187.570975 75.093809 
L 188.441947 74.988021 
L 189.312918 73.858445 
L 189.748403 73.994315 
L 190.183889 73.252797 
L 190.619375 72.918887 
L 191.05486 72.735388 
L 191.490346 72.167341 
L 192.796803 71.283936 
L 193.232289 70.31179 
L 193.667774 70.096704 
L 194.10326 70.115254 
L 194.538746 69.985902 
L 194.974231 69.675557 
L 195.409717 69.532668 
L 195.845202 69.62141 
L 196.716174 68.143386 
L 197.151659 66.6794 
L 197.587145 66.309894 
L 198.022631 63.264603 
L 198.458116 63.346827 
L 198.893602 63.21196 
L 199.764573 58.014811 
L 200.200059 56.889748 
L 202.812973 55.405206 
L 203.248458 54.952975 
L 203.683944 55.257805 
L 204.554915 54.574444 
L 205.425887 54.50325 
L 205.861372 53.986844 
L 206.296858 53.721622 
L 206.732343 53.751203 
L 207.603315 53.311506 
L 208.474286 53.299473 
L 209.345257 52.426596 
L 209.780743 52.140818 
L 210.216229 51.657503 
L 210.651714 51.387267 
L 211.0872 51.255909 
L 211.522686 50.763067 
L 211.958171 49.133631 
L 212.393657 49.653547 
L 212.829142 50.848299 
L 213.264628 48.563579 
L 214.135599 45.885287 
L 214.571085 45.484697 
L 215.006571 44.895092 
L 215.442056 45.083605 
L 215.877542 44.769249 
L 216.313028 43.784568 
L 217.183999 43.289721 
L 217.619485 42.826961 
L 218.05497 42.89264 
L 218.490456 42.50709 
L 218.925941 41.961104 
L 219.796913 42.123546 
L 220.232398 41.942553 
L 220.667884 41.495336 
L 221.10337 41.40158 
L 221.974341 40.717719 
L 222.409827 40.881665 
L 222.845312 41.183988 
L 223.280798 40.689141 
L 224.151769 40.359243 
L 224.587255 40.41339 
L 225.02274 40.341695 
L 225.458226 39.83682 
L 225.893712 39.717495 
L 226.329197 39.145438 
L 226.764683 37.758662 
L 228.07114 37.641844 
L 228.506626 37.182594 
L 228.942111 35.890075 
L 229.377597 35.843448 
L 229.813082 35.503523 
L 230.248568 35.491991 
L 230.684054 36.917372 
L 231.119539 37.941159 
L 231.990511 36.784009 
L 232.425996 35.321026 
L 232.861482 36.323254 
L 233.296968 36.026948 
L 233.732453 35.484972 
L 234.167939 35.574717 
L 234.603425 34.990125 
L 235.474396 35.356121 
L 235.909881 35.466422 
L 236.345367 35.320525 
L 236.780853 37.502966 
L 237.216338 40.698165 
L 237.651824 40.72173 
L 238.08731 42.996924 
L 238.522795 42.853533 
L 238.958281 43.360413 
L 239.393767 43.243595 
L 239.829252 42.871081 
L 240.264738 42.930744 
L 240.700224 43.453667 
L 241.571195 43.471716 
L 242.00668 43.735434 
L 242.442166 43.705353 
L 242.877652 42.751756 
L 243.313137 42.741228 
L 243.748623 43.108728 
L 244.184109 43.295737 
L 245.05508 43.007452 
L 245.490566 43.309274 
L 245.926051 42.822449 
L 246.361537 43.008455 
L 247.232508 42.896149 
L 248.103479 43.292228 
L 248.538965 43.343367 
L 248.974451 43.54642 
L 249.409936 44.156581 
L 250.280908 43.980101 
L 250.716393 44.036755 
L 251.151879 44.226271 
L 251.587365 44.213235 
L 252.02285 44.367154 
L 252.458336 44.950242 
L 252.893821 45.235017 
L 253.329307 46.040711 
L 253.764793 45.996591 
L 254.200278 46.122934 
L 254.635764 46.629814 
L 255.07125 46.562632 
L 255.506735 46.885009 
L 255.942221 46.347045 
L 256.377707 46.261311 
L 256.813192 45.101654 
L 257.248678 45.15881 
L 258.119649 46.195131 
L 259.426106 46.486925 
L 259.861592 45.51879 
L 260.297077 45.807075 
L 260.732563 45.765963 
L 261.168049 46.699003 
L 261.603534 46.951189 
L 262.03902 46.428266 
L 262.474506 46.624299 
L 262.909991 46.663406 
L 263.345477 46.819832 
L 263.780962 47.277578 
L 264.216448 46.953195 
L 265.958391 46.98077 
L 266.393876 48.717498 
L 266.829362 48.802229 
L 267.264848 51.108007 
L 267.700333 52.396013 
L 268.571305 52.173909 
L 269.00679 54.556395 
L 269.442276 54.299195 
L 269.877761 54.684243 
L 270.748733 54.141265 
L 271.184218 53.67299 
L 271.619704 54.17636 
L 272.05519 55.9542 
L 272.490675 55.779725 
L 273.361647 55.754156 
L 273.797132 56.308164 
L 274.668104 56.278584 
L 275.103589 56.80251 
L 275.539075 56.876211 
L 275.97456 56.436012 
L 276.410046 56.943394 
L 277.281017 57.328442 
L 277.716503 57.491887 
L 278.151989 58.434954 
L 278.587474 58.355739 
L 279.02296 58.810978 
L 279.458446 60.609374 
L 279.893931 60.871087 
L 280.764902 60.939774 
L 281.200388 61.935986 
L 282.071359 63.073583 
L 282.506845 63.485705 
L 282.942331 66.434734 
L 283.377816 67.562805 
L 283.813302 67.213855 
L 284.248788 68.536958 
L 284.684273 69.136089 
L 285.555245 72.100158 
L 285.99073 72.223996 
L 286.426216 72.105673 
L 286.861701 70.299255 
L 287.732673 70.315299 
L 288.168158 70.430613 
L 288.603644 70.211015 
L 289.03913 69.130574 
L 290.345587 69.476516 
L 290.781072 69.919722 
L 291.216558 69.899668 
L 291.652044 67.583361 
L 292.523015 67.728256 
L 293.393986 67.704692 
L 293.829472 68.011527 
L 294.264957 68.050132 
L 294.700443 66.393121 
L 295.135929 66.550549 
L 295.571414 65.298641 
L 296.0069 65.090073 
L 296.442386 65.143719 
L 296.877871 66.661852 
L 297.748842 66.252237 
L 298.184328 68.002001 
L 299.055299 70.179931 
L 299.490785 69.392788 
L 299.926271 69.885629 
L 300.361756 69.861062 
L 300.797242 70.37446 
L 301.232728 71.30349 
L 302.103699 71.424318 
L 302.539185 71.776778 
L 302.97467 71.753214 
L 303.845641 72.136758 
L 305.152098 71.540635 
L 305.587584 72.077597 
L 306.02307 72.222492 
L 306.894041 72.224497 
L 307.329527 71.777279 
L 307.765012 71.675001 
L 308.635984 72.032976 
L 309.071469 71.628875 
L 309.94244 71.544145 
L 310.377926 68.788643 
L 310.813412 66.908524 
L 311.248897 66.741068 
L 311.684383 68.100269 
L 312.555354 67.90624 
L 312.99084 68.084225 
L 313.426326 68.867858 
L 313.861811 69.914709 
L 314.297297 69.714664 
L 314.732782 69.892648 
L 315.603754 69.740233 
L 316.039239 69.355185 
L 316.910211 69.67656 
L 317.345696 70.6096 
L 318.216668 71.049799 
L 318.652153 71.336078 
L 319.087639 71.201712 
L 319.523125 71.742184 
L 320.394096 71.63439 
L 320.829581 70.608598 
L 321.700553 70.473229 
L 322.136038 70.427104 
L 322.571524 70.194972 
L 323.00701 70.151353 
L 323.442495 70.306275 
L 323.877981 70.012475 
L 324.313467 70.112246 
L 325.184438 69.7648 
L 325.619924 69.947297 
L 326.055409 69.504091 
L 326.92638 69.348667 
L 327.361866 69.675557 
L 327.797352 70.485262 
L 328.232837 70.256639 
L 328.668323 69.822959 
L 329.103809 68.764076 
L 329.97478 68.803182 
L 330.410266 68.281763 
L 330.845751 68.841787 
L 331.281237 61.728421 
L 332.152208 61.74998 
L 332.587694 61.366937 
L 333.458665 61.042554 
L 333.894151 60.994924 
L 334.329636 60.803904 
L 334.765122 60.740732 
L 335.200608 60.439913 
L 335.636093 60.689091 
L 336.071579 60.706639 
L 336.507065 60.574279 
L 336.94255 60.706639 
L 337.378036 59.561522 
L 337.813521 59.591603 
L 338.249007 54.126725 
L 339.119978 53.83092 
L 339.555464 53.398743 
L 340.861921 54.237527 
L 341.297407 54.38192 
L 341.732892 55.460857 
L 342.168378 55.527539 
L 342.603864 55.26332 
L 343.039349 55.5501 
L 343.474835 55.1826 
L 343.91032 46.693989 
L 344.345806 46.872977 
L 344.781292 47.608479 
L 345.216777 47.463584 
L 345.652263 47.64207 
L 346.523234 47.352783 
L 346.95872 47.9469 
L 347.394206 47.91732 
L 347.829691 47.772927 
L 348.265177 47.838104 
L 348.700662 47.419464 
L 349.136148 45.811085 
L 350.007119 45.518288 
L 350.442605 44.941719 
L 350.878091 44.925174 
L 351.749062 44.167611 
L 352.184548 44.086891 
L 352.620033 44.474948 
L 353.491005 44.048286 
L 353.92649 43.460185 
L 354.361976 43.145328 
L 354.797461 43.037534 
L 355.668433 43.188947 
L 356.103918 43.044052 
L 356.539404 43.047562 
L 357.410375 42.272953 
L 357.845861 42.556725 
L 358.281347 42.52163 
L 358.716832 42.273454 
L 359.152318 42.432888 
L 359.587804 42.354174 
L 360.023289 42.495559 
L 360.458775 42.449935 
L 360.89426 43.177415 
L 361.329746 43.176412 
L 361.765232 42.743734 
L 362.200717 42.680563 
L 363.071689 42.906177 
L 363.94266 43.170897 
L 364.378146 43.528872 
L 364.813631 42.652486 
L 365.249117 42.691091 
L 366.120088 42.09547 
L 366.555574 42.105998 
L 366.991059 43.199977 
L 367.426545 42.664017 
L 368.297516 42.634938 
L 368.733002 42.957316 
L 369.603973 45.549373 
L 370.91043 44.617335 
L 371.345916 44.918656 
L 371.781401 46.838884 
L 372.216887 47.059484 
L 372.652373 47.151735 
L 373.087858 46.387655 
L 373.523344 46.421247 
L 373.95883 46.288385 
L 374.394315 45.196913 
L 375.265287 44.726132 
L 375.700772 43.757996 
L 376.136258 43.698333 
L 376.571744 45.836655 
L 377.007229 45.703793 
L 377.442715 45.936427 
L 379.184657 45.28766 
L 379.620143 47.079539 
L 380.055629 47.127169 
L 380.491114 48.426707 
L 380.9266 48.305878 
L 381.362086 48.488876 
L 381.797571 48.323425 
L 382.233057 47.785461 
L 382.668543 45.871751 
L 383.104028 46.322979 
L 383.539514 46.479906 
L 383.974999 46.363088 
L 384.410485 47.909298 
L 384.845971 47.966454 
L 385.716942 45.027452 
L 386.152428 43.420577 
L 386.587913 42.581794 
L 387.458885 42.248887 
L 387.89437 41.890411 
L 388.329856 41.861332 
L 389.636313 42.195241 
L 390.071798 42.574273 
L 390.507284 41.679838 
L 390.94277 41.358964 
L 391.378255 41.782116 
L 391.813741 41.268719 
L 392.249227 40.507647 
L 392.684712 40.635996 
L 393.120198 40.524693 
L 393.555684 39.048675 
L 394.86214 39.290332 
L 395.297626 42.349662 
L 395.733112 44.389214 
L 396.168597 44.939212 
L 396.604083 44.762731 
L 397.475054 45.18839 
L 397.91054 44.617837 
L 398.346026 44.452386 
L 398.781511 44.471438 
L 399.216997 44.292952 
L 400.523454 44.169617 
L 400.958939 44.223263 
L 401.394425 44.865511 
L 401.829911 44.693042 
L 401.829911 44.693042 
" clip-path="url(#p3f7c5fd558)" style="fill: none; stroke: #1f77b4; stroke-opacity: 0.8; stroke-width: 1.5; stroke-linecap: square"/>
   </g>
   <g id="line2d_18">
    <path d="M 146.635325 121.750333 
L 147.506296 121.757352 
L 147.941782 121.196826 
L 148.812753 121.045915 
L 149.248239 121.208357 
L 149.683725 121.246963 
L 150.11921 120.766655 
L 150.990181 119.604992 
L 151.425667 119.658638 
L 152.296638 118.930656 
L 152.732124 118.953218 
L 153.16761 118.683483 
L 154.038581 117.891828 
L 154.474067 115.999175 
L 156.216009 112.924304 
L 156.651495 112.793447 
L 157.08698 112.455026 
L 157.522466 112.663594 
L 157.957952 112.150698 
L 159.264409 111.784701 
L 159.699894 111.433746 
L 160.570866 111.241221 
L 161.006351 110.865198 
L 161.441837 110.692728 
L 162.312808 109.520537 
L 166.232179 106.005467 
L 167.974121 105.126073 
L 170.587035 104.208575 
L 171.458007 102.764644 
L 171.893492 102.384609 
L 172.764463 102.334974 
L 173.199949 102.035158 
L 173.635435 101.90029 
L 174.506406 101.976999 
L 175.812863 100.810824 
L 176.248349 99.687767 
L 176.683834 99.20044 
L 177.11932 98.932711 
L 177.554806 97.865806 
L 178.425777 97.139329 
L 178.861262 95.442208 
L 179.296748 95.63022 
L 179.732234 94.884189 
L 180.167719 94.633005 
L 180.603205 94.091531 
L 181.474176 93.559583 
L 181.909662 93.507441 
L 182.345148 93.296366 
L 183.651605 92.080054 
L 184.08709 91.551616 
L 184.522576 91.444825 
L 185.393547 90.610052 
L 185.829033 90.300209 
L 186.264518 89.541142 
L 186.700004 89.33107 
L 187.13549 87.905188 
L 187.570975 87.371235 
L 188.006461 87.483039 
L 188.877432 86.850818 
L 189.312918 85.835052 
L 190.619375 85.179768 
L 191.05486 84.625259 
L 191.490346 84.848366 
L 191.925832 84.733052 
L 192.361317 84.10785 
L 193.667774 83.051975 
L 194.538746 82.990809 
L 194.974231 82.619297 
L 195.845202 82.113921 
L 196.280688 81.799565 
L 196.716174 81.645145 
L 197.587145 81.09966 
L 198.022631 80.482981 
L 198.458116 80.318533 
L 199.329088 80.664475 
L 199.764573 80.744192 
L 200.200059 80.20723 
L 200.635545 80.007687 
L 202.377487 77.91499 
L 203.248458 77.73901 
L 203.683944 78.07693 
L 204.11943 77.522421 
L 204.554915 78.963344 
L 204.990401 78.310567 
L 205.425887 78.029802 
L 206.296858 77.834771 
L 207.167829 77.754553 
L 207.603315 77.774106 
L 208.0388 77.204054 
L 208.474286 76.968412 
L 209.345257 76.832041 
L 209.780743 76.278534 
L 210.216229 76.583364 
L 210.651714 76.328671 
L 211.0872 75.899001 
L 211.522686 75.691436 
L 211.958171 75.342987 
L 212.393657 75.167008 
L 212.829142 74.742853 
L 213.264628 74.62052 
L 213.700114 73.854936 
L 214.135599 73.924626 
L 214.571085 74.696728 
L 215.006571 75.11988 
L 215.442056 73.40471 
L 215.877542 72.968523 
L 217.183999 72.349838 
L 217.619485 72.106676 
L 218.05497 72.190404 
L 218.925941 71.908637 
L 219.361427 70.844239 
L 219.796913 70.887858 
L 220.232398 71.054812 
L 221.10337 70.754495 
L 221.538855 70.978104 
L 221.974341 72.839672 
L 222.409827 72.313239 
L 222.845312 72.240541 
L 223.280798 71.875046 
L 223.716283 71.747198 
L 224.151769 71.964289 
L 224.587255 71.301484 
L 225.458226 71.246835 
L 225.893712 71.576232 
L 226.329197 71.193691 
L 226.764683 70.960054 
L 227.200169 70.396019 
L 227.635654 70.219037 
L 228.07114 69.554227 
L 229.377597 68.682855 
L 230.248568 68.785133 
L 230.684054 68.658789 
L 231.119539 68.961614 
L 231.990511 68.782125 
L 232.425996 67.947854 
L 232.861482 68.310842 
L 233.296968 68.10077 
L 233.732453 68.229119 
L 234.167939 67.903734 
L 234.603425 67.754327 
L 235.03891 67.393344 
L 235.474396 67.794436 
L 235.909881 68.042612 
L 236.345367 67.818 
L 236.780853 67.311621 
L 237.216338 67.198814 
L 237.651824 67.32566 
L 238.08731 67.150182 
L 238.522795 67.183773 
L 238.958281 67.09453 
L 239.393767 68.601132 
L 240.264738 68.970638 
L 240.700224 69.627928 
L 241.135709 70.719399 
L 242.00668 70.715388 
L 242.442166 70.12077 
L 242.877652 70.343376 
L 243.313137 70.44064 
L 243.748623 70.239092 
L 244.184109 70.520859 
L 245.05508 71.248841 
L 245.490566 71.073363 
L 245.926051 71.076371 
L 246.361537 71.338084 
L 246.797022 72.011417 
L 247.232508 72.003395 
L 247.667994 72.262099 
L 248.538965 72.245554 
L 250.716393 70.714386 
L 251.151879 69.527655 
L 251.587365 69.469998 
L 252.02285 69.187729 
L 252.458336 69.156645 
L 252.893821 69.579797 
L 253.329307 69.750261 
L 253.764793 70.259146 
L 255.506735 69.921226 
L 255.942221 70.599072 
L 256.377707 70.887858 
L 256.813192 71.423817 
L 257.248678 71.120993 
L 258.119649 70.210012 
L 258.99062 70.138317 
L 259.426106 69.883123 
L 259.861592 69.864071 
L 260.297077 68.533448 
L 260.732563 68.507377 
L 261.168049 69.189233 
L 261.603534 69.314575 
L 262.03902 69.188732 
L 262.474506 70.10623 
L 262.909991 69.178705 
L 263.345477 69.416853 
L 263.780962 71.433844 
L 264.651934 71.501027 
L 265.522905 71.572723 
L 266.393876 71.381201 
L 266.829362 71.539632 
L 267.264848 71.359642 
L 267.700333 71.4544 
L 268.135819 71.174639 
L 269.00679 71.813378 
L 269.442276 71.782794 
L 269.877761 71.569213 
L 270.748733 71.476962 
L 271.184218 71.790315 
L 271.619704 71.712603 
L 272.05519 73.161047 
L 272.490675 73.542586 
L 272.926161 73.227728 
L 273.797132 73.255303 
L 274.232618 72.871258 
L 275.539075 72.958997 
L 275.97456 73.353571 
L 276.410046 72.908359 
L 276.845532 72.813601 
L 277.716503 74.122665 
L 278.151989 74.29363 
L 278.587474 74.251516 
L 279.458446 74.027405 
L 279.893931 74.261543 
L 281.200388 74.162774 
L 281.635874 74.305162 
L 282.071359 74.300649 
L 282.506845 74.607986 
L 282.942331 74.003841 
L 283.377816 73.713551 
L 284.684273 73.839895 
L 285.119759 74.087068 
L 285.555245 73.853933 
L 285.99073 73.055259 
L 286.426216 73.041722 
L 286.861701 73.231238 
L 287.297187 73.638848 
L 287.732673 73.617289 
L 288.603644 73.020665 
L 289.474615 73.475403 
L 289.910101 73.550106 
L 290.345587 73.294911 
L 290.781072 73.519523 
L 291.652044 72.865743 
L 292.087529 70.483256 
L 293.393986 70.775051 
L 293.829472 70.417578 
L 294.264957 70.46972 
L 294.700443 70.686811 
L 295.135929 70.56899 
L 295.571414 70.645197 
L 296.0069 71.139543 
L 296.442386 71.237309 
L 296.877871 71.750206 
L 297.748842 71.847471 
L 298.184328 71.742685 
L 298.619814 72.651159 
L 299.055299 72.063559 
L 299.490785 72.084115 
L 299.926271 71.826915 
L 300.361756 73.325494 
L 302.539185 73.729093 
L 303.845641 73.623807 
L 304.281127 74.938887 
L 305.152098 74.887748 
L 305.587584 75.100828 
L 306.02307 75.081776 
L 306.458555 74.432508 
L 306.894041 74.465097 
L 307.329527 73.684472 
L 307.765012 73.690488 
L 308.635984 74.379364 
L 309.071469 74.127177 
L 309.506955 74.825579 
L 309.94244 75.088795 
L 310.377926 74.697229 
L 310.813412 73.712047 
L 311.684383 72.996599 
L 312.119869 73.33853 
L 312.555354 72.652663 
L 312.99084 72.54888 
L 313.426326 72.224998 
L 313.861811 71.55718 
L 314.732782 72.089128 
L 315.168268 71.637399 
L 316.039239 71.861007 
L 316.474725 71.766751 
L 316.910211 71.435349 
L 317.345696 72.406994 
L 318.216668 71.550161 
L 318.652153 70.516346 
L 319.087639 70.852261 
L 319.523125 70.69032 
L 319.95861 71.336078 
L 320.394096 70.750985 
L 320.829581 70.71589 
L 321.265067 70.866801 
L 322.136038 71.386215 
L 322.571524 70.283713 
L 323.00701 70.406046 
L 323.442495 70.281708 
L 324.748952 71.110464 
L 325.184438 71.308503 
L 325.619924 71.243827 
L 326.055409 70.812152 
L 326.92638 70.419583 
L 327.797352 71.223271 
L 328.232837 70.997156 
L 328.668323 69.27246 
L 329.103809 68.713438 
L 329.539294 68.420641 
L 329.97478 67.953369 
L 330.410266 68.374014 
L 330.845751 67.578348 
L 331.716722 67.147174 
L 332.152208 67.459524 
L 332.587694 67.126116 
L 333.458665 67.348723 
L 334.329636 68.674833 
L 334.765122 68.816719 
L 335.200608 69.188732 
L 335.636093 69.381256 
L 336.071579 69.296024 
L 337.378036 69.813433 
L 337.813521 69.476516 
L 338.249007 69.400809 
L 339.119978 68.983172 
L 339.555464 69.218814 
L 339.99095 68.68486 
L 340.426435 66.700959 
L 340.861921 66.123888 
L 341.297407 65.986514 
L 342.168378 65.402424 
L 342.603864 65.345268 
L 343.039349 65.615504 
L 343.474835 65.626032 
L 343.91032 65.184831 
L 344.345806 65.228951 
L 344.781292 65.591438 
L 345.216777 66.838834 
L 346.087749 66.885461 
L 346.523234 67.102552 
L 346.95872 67.073974 
L 347.394206 67.163719 
L 347.829691 68.394069 
L 348.265177 68.090241 
L 348.700662 68.207561 
L 349.136148 68.077707 
L 349.571634 68.308335 
L 350.007119 68.163942 
L 350.442605 68.248673 
L 350.878091 68.500859 
L 352.184548 68.653776 
L 352.620033 68.744523 
L 353.055519 68.476794 
L 353.491005 67.54626 
L 354.361976 67.30009 
L 354.797461 67.636005 
L 355.232947 67.546762 
L 355.668433 67.694664 
L 356.539404 67.632996 
L 356.97489 67.295578 
L 357.845861 67.746305 
L 358.281347 67.477072 
L 358.716832 67.521192 
L 359.152318 68.761068 
L 359.587804 69.043838 
L 360.023289 69.018769 
L 360.458775 69.165669 
L 360.89426 68.849308 
L 361.765232 69.456461 
L 362.200717 69.154639 
L 362.636203 68.525927 
L 363.071689 68.420139 
L 364.378146 68.735498 
L 364.813631 68.518407 
L 365.249117 68.506876 
L 365.684603 68.190514 
L 366.555574 67.874654 
L 366.991059 68.002001 
L 367.426545 67.76285 
L 367.862031 68.460249 
L 368.297516 68.431671 
L 368.733002 67.839057 
L 369.168488 67.989467 
L 369.603973 67.776387 
L 370.474945 68.290787 
L 370.91043 69.29803 
L 372.652373 69.792375 
L 373.087858 69.523142 
L 373.523344 69.503589 
L 374.394315 68.698898 
L 374.829801 69.113527 
L 375.265287 69.696615 
L 375.700772 69.423371 
L 376.136258 69.770817 
L 376.571744 69.845019 
L 377.007229 72.180377 
L 377.442715 72.047014 
L 377.8782 72.352846 
L 378.313686 72.162829 
L 378.749172 72.105172 
L 379.184657 71.918163 
L 379.620143 72.040496 
L 380.491114 71.93922 
L 381.362086 71.578238 
L 381.797571 71.43234 
L 382.668543 71.716113 
L 383.104028 71.609824 
L 383.539514 71.760233 
L 384.410485 71.460417 
L 385.716942 71.75171 
L 386.152428 71.456907 
L 386.587913 71.392231 
L 387.023399 70.841231 
L 387.89437 70.388498 
L 388.329856 70.058099 
L 388.765341 69.31658 
L 389.636313 69.192743 
L 390.071798 69.008241 
L 390.94277 69.026791 
L 391.813741 69.683078 
L 392.249227 71.104448 
L 392.684712 71.059826 
L 393.120198 71.331566 
L 393.555684 71.327555 
L 394.426655 71.576733 
L 394.86214 71.508548 
L 395.297626 71.872037 
L 395.733112 72.901841 
L 396.168597 73.407718 
L 396.604083 73.647872 
L 397.475054 73.675949 
L 397.91054 74.228954 
L 398.346026 74.327723 
L 398.781511 75.209123 
L 399.216997 74.78196 
L 399.652483 74.530275 
L 400.087968 75.138932 
L 401.394425 75.048686 
L 401.829911 75.219651 
L 401.829911 75.219651 
" clip-path="url(#p3f7c5fd558)" style="fill: none; stroke: #ff7f0e; stroke-opacity: 0.8; stroke-width: 1.5; stroke-linecap: square"/>
   </g>
   <g id="line2d_19">
    <path d="M 146.635325 172.616819 
L 147.506296 172.131999 
L 148.377268 171.934461 
L 149.248239 172.08086 
L 150.554696 171.832684 
L 150.990181 171.571974 
L 151.425667 171.802101 
L 152.732124 172.09941 
L 153.16761 172.02972 
L 153.603095 172.244305 
L 154.038581 172.246812 
L 154.474067 172.070331 
L 154.909552 172.154059 
L 155.345038 171.96705 
L 155.780523 171.468693 
L 157.522466 171.192942 
L 157.957952 169.897917 
L 158.393437 170.567239 
L 158.828923 170.668013 
L 159.264409 170.644449 
L 160.13538 170.879088 
L 160.570866 170.695588 
L 161.006351 170.111999 
L 161.441837 170.021754 
L 162.312808 169.511364 
L 162.748294 169.279734 
L 163.183779 169.255167 
L 164.054751 168.884157 
L 164.490236 170.735697 
L 165.361208 171.097182 
L 165.796693 170.861039 
L 166.232179 171.334327 
L 166.667665 171.520835 
L 167.10315 171.586012 
L 167.974121 172.011671 
L 168.845093 172.256839 
L 169.716064 172.735141 
L 170.15155 172.645898 
L 172.328978 173.654644 
L 173.199949 174.16353 
L 173.635435 174.220184 
L 174.07092 174.502954 
L 174.506406 174.411204 
L 175.377377 174.842378 
L 175.812863 174.928613 
L 176.248349 175.186816 
L 176.683834 175.159742 
L 177.11932 175.333716 
L 177.990291 175.263525 
L 178.425777 175.582393 
L 178.861262 176.298843 
L 179.296748 176.574594 
L 180.167719 176.530975 
L 181.474176 176.664338 
L 181.909662 176.516937 
L 183.651605 176.453765 
L 184.522576 176.005545 
L 184.958061 176.186538 
L 185.829033 175.788955 
L 186.264518 176.096292 
L 186.700004 176.779151 
L 187.13549 176.862378 
L 187.570975 176.773135 
L 188.006461 177.011283 
L 188.441947 176.99925 
L 188.877432 176.108325 
L 189.312918 175.889228 
L 189.748403 176.019583 
L 190.619375 176.485852 
L 191.490346 176.415661 
L 191.925832 176.476327 
L 192.796803 176.306865 
L 193.232289 176.369034 
L 194.10326 175.864661 
L 194.538746 176.070221 
L 194.974231 175.810012 
L 195.845202 176.316892 
L 198.022631 176.421176 
L 198.458116 176.666344 
L 198.893602 177.084482 
L 200.635545 177.127098 
L 201.07103 177.442457 
L 202.377487 177.744279 
L 202.812973 177.742273 
L 204.11943 178.088716 
L 204.554915 177.853576 
L 205.425887 178.101752 
L 205.861372 178.110776 
L 206.732343 177.686622 
L 207.167829 177.927778 
L 208.909772 177.307088 
L 209.345257 177.324135 
L 209.780743 177.497106 
L 210.216229 177.27099 
L 210.651714 177.26347 
L 211.0872 177.008275 
L 212.393657 177.217344 
L 212.829142 177.25244 
L 213.700114 177.131611 
L 214.571085 177.367252 
L 215.877542 177.398337 
L 216.313028 177.530196 
L 216.748513 177.491591 
L 217.183999 177.674087 
L 218.490456 177.6786 
L 218.925941 177.408364 
L 221.538855 177.525683 
L 221.974341 177.82199 
L 222.409827 177.778371 
L 222.845312 177.549248 
L 223.280798 177.527689 
L 223.716283 178.509362 
L 224.587255 178.217066 
L 225.02274 178.333382 
L 225.893712 178.250156 
L 227.200169 178.676316 
L 227.635654 177.94683 
L 228.07114 177.721717 
L 229.377597 177.979419 
L 230.248568 177.834023 
L 230.684054 178.17094 
L 231.119539 178.211551 
L 232.425996 178.782104 
L 232.861482 178.646736 
L 233.296968 178.837756 
L 233.732453 178.829734 
L 234.603425 178.421623 
L 235.474396 178.68133 
L 235.909881 178.9641 
L 236.345367 178.837254 
L 236.780853 178.972121 
L 237.216338 178.907445 
L 238.522795 179.056852 
L 238.958281 178.99719 
L 239.393767 179.16615 
L 239.829252 178.985157 
L 240.264738 179.088939 
L 240.700224 179.495546 
L 242.442166 179.733695 
L 242.877652 180.824164 
L 243.313137 180.542397 
L 243.748623 180.53638 
L 244.184109 180.316782 
L 245.05508 180.302744 
L 245.490566 179.54468 
L 246.361537 180.188433 
L 246.797022 180.395497 
L 247.667994 180.272161 
L 248.538965 180.331322 
L 248.974451 180.56947 
L 249.409936 180.581002 
L 249.845422 180.414047 
L 250.280908 180.111223 
L 251.151879 180.221022 
L 253.329307 179.44892 
L 253.764793 179.554206 
L 254.200278 179.512092 
L 254.635764 179.299513 
L 255.07125 179.506075 
L 255.942221 179.145594 
L 256.377707 179.104983 
L 256.813192 178.874355 
L 257.248678 178.796644 
L 257.684164 178.553983 
L 258.119649 178.539945 
L 258.555135 178.10827 
L 259.426106 178.018525 
L 259.861592 177.989446 
L 260.297077 177.670578 
L 260.732563 177.698654 
L 261.168049 176.80823 
L 261.603534 176.665341 
L 262.909991 176.902988 
L 263.345477 176.916024 
L 263.780962 177.215339 
L 264.216448 177.00276 
L 265.522905 176.962149 
L 265.958391 176.73453 
L 266.393876 176.646791 
L 267.264848 176.826279 
L 267.700333 176.784165 
L 268.571305 176.399618 
L 269.00679 176.37104 
L 270.313247 176.954629 
L 272.926161 177.093005 
L 273.361647 177.317617 
L 273.797132 178.090722 
L 274.668104 178.50886 
L 275.103589 178.160913 
L 275.539075 178.211551 
L 275.97456 177.999473 
L 276.845532 177.96889 
L 278.151989 177.569804 
L 279.02296 177.917751 
L 279.458446 177.937805 
L 279.893931 178.222079 
L 282.071359 178.239126 
L 282.506845 178.031059 
L 284.684273 177.854579 
L 285.119759 177.769347 
L 286.426216 177.163197 
L 286.861701 177.24542 
L 287.297187 176.557548 
L 287.732673 176.349481 
L 288.603644 176.250211 
L 289.03913 176.045153 
L 289.474615 176.350484 
L 289.910101 176.33795 
L 290.345587 176.054177 
L 290.781072 176.00003 
L 292.087529 176.296838 
L 292.523015 176.202581 
L 292.9585 176.416163 
L 295.571414 176.55103 
L 296.0069 176.804721 
L 296.877871 176.904492 
L 297.313357 176.9075 
L 297.748842 176.575095 
L 298.619814 176.456272 
L 299.490785 176.544512 
L 299.926271 176.710965 
L 302.97467 176.381067 
L 303.845641 176.883936 
L 304.281127 176.699935 
L 304.716613 176.699434 
L 305.152098 176.540501 
L 305.587584 176.120357 
L 306.02307 176.391596 
L 306.894041 176.310876 
L 308.200498 176.226647 
L 309.506955 176.827783 
L 310.377926 176.465798 
L 311.248897 176.572589 
L 312.119869 176.402626 
L 312.555354 177.229377 
L 312.99084 177.584845 
L 313.861811 177.676093 
L 314.297297 177.449476 
L 314.732782 177.466021 
L 315.168268 177.620441 
L 315.603754 177.310598 
L 316.910211 177.350707 
L 317.781182 177.304581 
L 318.216668 177.244919 
L 319.087639 176.808732 
L 319.523125 177.008275 
L 322.571524 176.80071 
L 324.313467 176.478332 
L 324.748952 176.783663 
L 326.490895 176.278789 
L 326.92638 176.213611 
L 329.103809 176.800208 
L 329.97478 176.631248 
L 330.410266 177.627461 
L 330.845751 177.797423 
L 331.281237 177.589858 
L 331.716722 177.638992 
L 332.587694 178.140858 
L 333.023179 177.924269 
L 333.458665 178.064149 
L 334.329636 177.703167 
L 335.200608 177.989446 
L 335.636093 177.938808 
L 336.94255 178.44619 
L 338.249007 178.826726 
L 339.119978 178.517885 
L 339.555464 178.805167 
L 339.99095 178.724447 
L 340.861921 179.306031 
L 341.297407 179.306031 
L 341.732892 179.564735 
L 342.168378 179.434881 
L 343.039349 179.51159 
L 343.474835 179.773303 
L 343.91032 179.619384 
L 344.781292 179.647961 
L 345.216777 179.943767 
L 345.652263 180.103201 
L 346.087749 180.983096 
L 346.523234 181.153059 
L 348.265177 180.856752 
L 348.700662 180.539388 
L 349.571634 180.787564 
L 350.007119 180.802104 
L 350.442605 180.572478 
L 351.749062 180.474712 
L 352.184548 180.220019 
L 352.620033 180.234057 
L 353.491005 180.948001 
L 353.92649 181.17161 
L 354.797461 181.012677 
L 355.668433 181.101419 
L 356.97489 180.756981 
L 357.845861 180.787063 
L 359.587804 180.561448 
L 360.023289 180.86678 
L 360.458775 180.849232 
L 360.89426 181.082868 
L 361.329746 181.046268 
L 361.765232 180.879314 
L 362.200717 180.946497 
L 362.636203 181.202694 
L 363.507174 181.219741 
L 364.378146 181.285419 
L 364.813631 180.967053 
L 365.249117 180.856251 
L 366.120088 180.931456 
L 366.991059 180.889843 
L 368.297516 181.335055 
L 368.733002 181.186651 
L 369.168488 181.187653 
L 369.603973 181.30397 
L 370.039459 181.173114 
L 370.91043 181.633868 
L 371.781401 181.704059 
L 372.216887 182.197904 
L 373.087858 182.100639 
L 373.523344 182.018415 
L 373.95883 182.188378 
L 374.829801 181.821379 
L 376.136258 182.463126 
L 377.442715 182.478668 
L 379.184657 182.164814 
L 379.620143 181.922654 
L 380.055629 181.933684 
L 380.491114 182.072061 
L 380.9266 181.85848 
L 382.233057 181.97981 
L 382.668543 182.14877 
L 383.104028 182.113173 
L 383.539514 182.356335 
L 384.845971 182.302689 
L 386.152428 182.508249 
L 387.023399 182.172334 
L 387.458885 182.1964 
L 388.765341 181.646402 
L 389.200827 181.836921 
L 389.636313 181.650915 
L 390.071798 181.801324 
L 390.507284 182.20392 
L 390.94277 182.024431 
L 391.378255 182.048497 
L 391.813741 181.865499 
L 392.684712 182.283136 
L 393.991169 181.842937 
L 394.426655 181.787286 
L 395.297626 182.149773 
L 395.733112 182.012399 
L 397.039569 182.592979 
L 397.475054 182.725841 
L 397.91054 182.575432 
L 398.346026 182.591977 
L 398.781511 182.482679 
L 399.652483 182.878757 
L 400.087968 182.865221 
L 400.523454 182.970006 
L 401.829911 182.810572 
L 401.829911 182.810572 
" clip-path="url(#p3f7c5fd558)" style="fill: none; stroke: #2ca02c; stroke-opacity: 0.8; stroke-width: 1.5; stroke-linecap: square"/>
   </g>
   <g id="line2d_20">
    <path d="M 146.635325 164.49972 
L 147.070811 164.471142 
L 147.941782 164.22447 
L 149.683725 164.376885 
L 151.425667 164.57693 
L 151.861153 164.656647 
L 153.16761 164.323741 
L 153.603095 164.377888 
L 154.038581 162.239065 
L 154.474067 162.217506 
L 154.909552 162.446129 
L 156.216009 162.642163 
L 157.522466 162.30324 
L 158.393437 162.045538 
L 158.828923 161.698594 
L 159.264409 161.205752 
L 160.13538 160.953064 
L 160.570866 160.31633 
L 161.006351 159.988939 
L 161.441837 160.087708 
L 161.877322 160.025037 
L 162.748294 159.306581 
L 163.619265 159.128095 
L 164.054751 158.810731 
L 164.490236 158.985708 
L 166.232179 158.833293 
L 166.667665 159.016291 
L 167.10315 158.742546 
L 167.538636 159.17372 
L 168.845093 158.864879 
L 169.280578 158.553531 
L 171.458007 158.190543 
L 171.893492 157.776415 
L 172.328978 157.195333 
L 172.764463 157.271541 
L 173.199949 156.920585 
L 174.07092 156.717031 
L 174.506406 156.36758 
L 174.941892 156.340506 
L 176.248349 157.079518 
L 176.683834 157.035398 
L 177.11932 156.711015 
L 177.554806 156.645837 
L 177.990291 156.340506 
L 178.861262 156.349029 
L 179.732234 156.73859 
L 181.038691 156.376604 
L 181.474176 156.077289 
L 181.909662 156.131938 
L 182.780633 155.334768 
L 183.651605 155.068543 
L 184.522576 155.354822 
L 184.958061 154.966766 
L 185.393547 155.142745 
L 186.264518 154.613304 
L 186.700004 154.679985 
L 187.13549 154.603778 
L 187.570975 154.752683 
L 188.006461 153.903872 
L 188.441947 153.784547 
L 188.877432 154.18965 
L 189.312918 154.104418 
L 189.748403 154.410251 
L 191.490346 154.554143 
L 191.925832 154.650405 
L 193.232289 153.945485 
L 194.974231 152.729174 
L 195.409717 153.02147 
L 196.280688 152.927715 
L 197.587145 152.512584 
L 198.022631 152.143078 
L 198.893602 151.632689 
L 199.329088 151.074168 
L 201.942001 150.961862 
L 202.377487 150.707169 
L 202.812973 150.68912 
L 203.248458 150.315102 
L 203.683944 150.164692 
L 204.990401 150.393816 
L 205.425887 150.315603 
L 206.296858 150.68912 
L 206.732343 150.571299 
L 207.167829 150.738254 
L 208.474286 150.595866 
L 210.216229 150.432922 
L 211.0872 150.956347 
L 211.958171 150.855072 
L 212.393657 150.5718 
L 212.829142 150.462503 
L 213.264628 150.501609 
L 213.700114 150.209815 
L 215.442056 150.486067 
L 216.313028 151.101242 
L 216.748513 150.550242 
L 217.619485 150.045869 
L 218.05497 150.036844 
L 218.490456 150.289031 
L 219.796913 150.245913 
L 220.232398 150.494089 
L 222.845312 150.631964 
L 223.280798 150.378274 
L 223.716283 150.623942 
L 225.893712 150.88014 
L 227.635654 150.874124 
L 228.07114 150.745273 
L 228.942111 150.730232 
L 229.377597 150.623441 
L 229.813082 150.655528 
L 231.555025 149.721987 
L 231.990511 149.706445 
L 232.425996 149.521942 
L 233.296968 149.625223 
L 234.167939 149.659818 
L 234.603425 149.710455 
L 235.474396 149.256219 
L 237.651824 147.878969 
L 238.08731 147.549572 
L 238.522795 147.564613 
L 238.958281 149.556035 
L 241.135709 149.60918 
L 242.00668 150.108038 
L 242.442166 149.556035 
L 242.877652 149.221123 
L 243.313137 149.090267 
L 244.184109 149.166474 
L 244.619594 149.383565 
L 245.05508 148.643551 
L 245.926051 149.229145 
L 246.361537 149.069711 
L 246.797022 149.046147 
L 247.667994 149.519435 
L 248.103479 149.439217 
L 248.538965 149.615196 
L 248.974451 149.467795 
L 249.409936 149.485343 
L 249.845422 149.19806 
L 250.280908 149.173995 
L 251.587365 148.419942 
L 252.02285 148.428967 
L 253.329307 147.811786 
L 253.764793 147.480384 
L 254.200278 147.477376 
L 255.07125 146.922866 
L 256.377707 146.904817 
L 257.248678 147.481888 
L 257.684164 147.46434 
L 258.119649 147.72505 
L 258.555135 147.768669 
L 259.426106 148.310644 
L 259.861592 148.489632 
L 260.297077 147.98225 
L 260.732563 147.987264 
L 261.168049 147.825824 
L 261.603534 148.069488 
L 262.03902 147.209647 
L 262.474506 147.037679 
L 262.909991 147.272318 
L 263.345477 146.247026 
L 264.216448 146.131712 
L 264.651934 146.363844 
L 265.522905 146.352313 
L 266.393876 146.741873 
L 266.829362 146.072551 
L 267.264848 146.058012 
L 267.700333 146.35131 
L 268.135819 145.493475 
L 269.00679 145.575698 
L 269.442276 145.294934 
L 270.313247 145.305964 
L 271.619704 145.692015 
L 272.05519 144.456652 
L 272.490675 144.289196 
L 272.926161 144.99211 
L 273.797132 144.995619 
L 277.281017 144.848218 
L 277.716503 145.184634 
L 278.587474 145.28992 
L 279.893931 146.183854 
L 280.329417 146.158786 
L 280.764902 145.878523 
L 281.635874 145.970273 
L 282.071359 145.546118 
L 282.506845 145.534085 
L 282.942331 145.045756 
L 284.248788 145.141516 
L 285.555245 144.11071 
L 285.99073 143.247359 
L 286.861701 142.77758 
L 288.168158 143.296493 
L 288.603644 141.529683 
L 289.474615 137.070041 
L 289.910101 136.746661 
L 291.216558 130.346236 
L 292.087529 129.850887 
L 292.523015 129.56912 
L 292.9585 127.490962 
L 293.393986 127.726102 
L 293.829472 127.594745 
L 294.264957 127.076835 
L 294.700443 126.758468 
L 295.135929 126.697301 
L 296.0069 126.14229 
L 296.442386 125.944752 
L 296.877871 125.878572 
L 297.313357 125.289468 
L 297.748842 124.344395 
L 298.184328 124.229583 
L 298.619814 124.289747 
L 299.926271 123.768828 
L 300.361756 123.940797 
L 301.232728 123.902693 
L 301.668213 124.132318 
L 302.539185 123.195267 
L 302.97467 122.624212 
L 303.410156 122.337933 
L 303.845641 122.595634 
L 304.281127 122.248188 
L 305.152098 122.144406 
L 305.587584 121.409405 
L 306.02307 121.34172 
L 306.458555 120.990765 
L 306.894041 121.060455 
L 307.765012 120.912051 
L 308.200498 121.146188 
L 308.635984 120.823309 
L 309.506955 120.602207 
L 310.813412 119.80253 
L 311.684383 119.708273 
L 312.119869 119.196881 
L 312.555354 118.990319 
L 312.99084 118.999845 
L 313.861811 118.499482 
L 314.297297 118.65641 
L 314.732782 118.666437 
L 315.168268 118.805315 
L 316.039239 118.840912 
L 316.474725 118.376147 
L 316.910211 116.219274 
L 317.781182 116.246348 
L 318.216668 116.138555 
L 319.087639 115.391019 
L 319.523125 111.866424 
L 319.95861 111.518978 
L 320.394096 111.585158 
L 321.265067 112.130643 
L 321.700553 111.662368 
L 322.571524 112.188801 
L 323.877981 111.417201 
L 324.313467 111.417702 
L 325.184438 110.984523 
L 326.055409 110.865699 
L 326.490895 110.722309 
L 326.92638 110.719301 
L 327.361866 110.889765 
L 328.232837 111.43174 
L 329.103809 111.642313 
L 329.539294 111.419707 
L 329.97478 110.225456 
L 330.845751 110.251527 
L 331.716722 108.640641 
L 332.152208 108.494744 
L 332.587694 108.501763 
L 333.458665 108.299713 
L 333.894151 108.644652 
L 334.329636 108.556412 
L 334.765122 108.755955 
L 335.200608 108.48221 
L 335.636093 108.678745 
L 336.94255 103.100057 
L 337.813521 102.828317 
L 338.249007 102.4548 
L 338.684493 102.609722 
L 339.119978 102.539029 
L 339.99095 102.92859 
L 340.861921 102.504937 
L 341.297407 101.445552 
L 341.732892 101.150248 
L 342.168378 100.014657 
L 343.039349 99.852716 
L 343.474835 99.704813 
L 344.345806 99.061061 
L 344.781292 99.082118 
L 345.216777 99.56042 
L 345.652263 99.468169 
L 346.087749 99.068581 
L 346.523234 98.880068 
L 346.95872 99.899844 
L 347.394206 99.793053 
L 347.829691 99.474185 
L 348.265177 100.234255 
L 348.700662 100.220718 
L 349.571634 100.054265 
L 351.313576 100.028194 
L 351.749062 100.268347 
L 352.184548 100.229742 
L 352.620033 100.312468 
L 353.055519 101.144232 
L 353.491005 101.382882 
L 353.92649 101.058499 
L 354.361976 100.971763 
L 354.797461 101.21342 
L 355.232947 101.089082 
L 356.539404 100.100892 
L 356.97489 101.099611 
L 357.410375 101.296647 
L 357.845861 101.114652 
L 358.281347 100.649886 
L 358.716832 99.455133 
L 359.152318 97.863801 
L 359.587804 97.371461 
L 360.458775 96.707152 
L 362.200717 95.14891 
L 362.636203 94.633005 
L 363.071689 94.362769 
L 363.507174 93.303886 
L 364.378146 92.011367 
L 365.249117 91.389675 
L 365.684603 91.293413 
L 366.120088 90.982065 
L 366.555574 90.523818 
L 366.991059 89.367169 
L 368.297516 88.950534 
L 368.733002 87.557742 
L 370.039459 87.115037 
L 370.474945 86.853325 
L 370.91043 87.118045 
L 371.345916 85.729766 
L 371.781401 85.44499 
L 373.087858 83.914824 
L 373.523344 85.32366 
L 374.394315 88.886861 
L 374.829801 87.860065 
L 375.700772 91.868478 
L 376.136258 93.268791 
L 377.442715 92.376863 
L 377.8782 94.114594 
L 378.313686 91.051254 
L 378.749172 88.891373 
L 379.184657 86.114313 
L 380.491114 85.274526 
L 380.9266 84.875941 
L 381.362086 84.795723 
L 381.797571 82.861457 
L 382.233057 83.121164 
L 382.668543 83.970476 
L 383.104028 83.715281 
L 383.539514 82.196145 
L 383.974999 81.828143 
L 384.410485 81.865244 
L 384.845971 81.745418 
L 386.152428 80.203721 
L 386.587913 80.124505 
L 387.023399 80.507548 
L 387.458885 80.519581 
L 387.89437 79.584535 
L 388.329856 79.281209 
L 388.765341 78.487548 
L 389.636313 75.614226 
L 390.071798 74.155755 
L 390.507284 74.170796 
L 390.94277 73.53306 
L 392.249227 70.58754 
L 392.684712 69.561748 
L 393.120198 69.261931 
L 393.555684 69.26143 
L 393.991169 68.977156 
L 394.426655 67.301594 
L 394.86214 67.183773 
L 395.297626 66.270788 
L 396.168597 65.592441 
L 396.604083 65.105616 
L 397.039569 65.093583 
L 397.91054 64.110406 
L 398.346026 62.925179 
L 398.781511 62.575226 
L 399.652483 61.466709 
L 400.087968 60.948297 
L 400.958939 60.557232 
L 401.394425 60.889136 
L 401.829911 62.182156 
L 401.829911 62.182156 
" clip-path="url(#p3f7c5fd558)" style="fill: none; stroke: #d62728; stroke-opacity: 0.8; stroke-width: 1.5; stroke-linecap: square"/>
   </g>
   <g id="line2d_21">
    <path d="M 146.635325 185.669355 
L 147.070811 185.848342 
L 147.506296 185.811743 
L 147.941782 186.025825 
L 148.377268 185.978697 
L 148.812753 185.695927 
L 149.248239 185.829792 
L 150.554696 185.664341 
L 150.990181 185.504907 
L 151.861153 185.643785 
L 152.732124 185.655317 
L 154.038581 185.905498 
L 154.909552 185.901988 
L 155.345038 186.00928 
L 156.216009 185.632755 
L 157.957952 184.894245 
L 158.393437 185.062202 
L 159.264409 184.914801 
L 159.699894 185.119358 
L 160.570866 185.138911 
L 162.312808 184.332214 
L 164.054751 184.232443 
L 164.490236 183.998807 
L 164.925722 183.976747 
L 165.361208 183.736092 
L 166.232179 183.721552 
L 168.409607 182.762441 
L 169.280578 183.021646 
L 169.716064 182.89079 
L 170.15155 183.136459 
L 171.022521 183.091336 
L 171.458007 183.087827 
L 171.893492 183.254781 
L 172.328978 183.541562 
L 173.199949 184.311157 
L 173.635435 184.418449 
L 174.506406 183.981259 
L 176.248349 184.033902 
L 176.683834 184.25701 
L 177.11932 184.270547 
L 177.554806 184.475605 
L 180.167719 184.551812 
L 181.474176 184.041924 
L 182.780633 183.397169 
L 183.216119 183.775198 
L 184.08709 183.384133 
L 184.522576 183.286367 
L 184.958061 183.615263 
L 186.700004 183.820822 
L 187.570975 183.292384 
L 188.441947 183.173059 
L 188.877432 182.980033 
L 189.312918 183.174563 
L 190.183889 183.198127 
L 190.619375 183.443796 
L 191.05486 183.225201 
L 191.925832 183.216176 
L 192.361317 184.04042 
L 192.796803 184.289097 
L 193.667774 184.287593 
L 194.10326 184.1066 
L 195.845202 184.901264 
L 196.280688 184.876196 
L 196.716174 185.015575 
L 197.151659 185.273778 
L 198.022631 185.340961 
L 198.458116 185.63075 
L 200.200059 185.584123 
L 200.635545 185.272274 
L 201.942001 184.864163 
L 202.377487 185.248208 
L 203.248458 185.118355 
L 203.683944 185.290323 
L 204.990401 185.094791 
L 205.861372 185.419675 
L 206.296858 185.317898 
L 206.732343 185.335446 
L 207.167829 185.221636 
L 207.603315 184.959923 
L 208.0388 185.108829 
L 208.474286 184.978975 
L 208.909772 184.985493 
L 210.216229 185.810238 
L 210.651714 185.838315 
L 211.0872 185.991231 
L 211.522686 185.936081 
L 211.958171 185.673366 
L 212.393657 185.634761 
L 212.829142 185.415163 
L 213.264628 185.437223 
L 213.700114 185.677377 
L 214.135599 185.782162 
L 214.571085 185.573093 
L 215.006571 185.503904 
L 215.877542 185.84032 
L 216.313028 186.00176 
L 217.183999 186.007776 
L 217.619485 186.24793 
L 218.05497 186.21484 
L 218.490456 185.997749 
L 218.925941 186.205815 
L 219.796913 186.199799 
L 220.232398 185.992234 
L 221.10337 186.003765 
L 221.538855 185.803721 
L 221.974341 186.053902 
L 223.280798 186.095014 
L 223.716283 185.895471 
L 224.151769 186.097521 
L 224.587255 185.959645 
L 225.458226 185.528973 
L 226.329197 185.73353 
L 227.635654 185.756091 
L 230.248568 184.474602 
L 230.684054 184.423463 
L 231.990511 183.747122 
L 232.425996 183.767176 
L 233.296968 183.208656 
L 233.732453 183.137963 
L 234.167939 182.816087 
L 234.603425 183.002595 
L 236.345367 182.705285 
L 236.780853 182.836141 
L 237.216338 182.613535 
L 237.651824 182.560391 
L 238.08731 182.642113 
L 240.264738 181.724114 
L 240.700224 182.052508 
L 242.442166 182.343801 
L 242.877652 182.65214 
L 243.313137 182.660664 
L 243.748623 182.554374 
L 244.184109 182.710299 
L 244.619594 182.682222 
L 245.05508 182.808566 
L 245.490566 182.643116 
L 246.361537 182.598996 
L 248.974451 181.684506 
L 250.280908 181.950731 
L 251.151879 181.529083 
L 252.02285 181.651917 
L 254.200278 181.683503 
L 255.07125 181.603285 
L 255.506735 181.833411 
L 255.942221 181.614315 
L 256.377707 181.678991 
L 257.248678 181.308482 
L 258.555135 180.762997 
L 259.426106 180.812632 
L 261.168049 181.821379 
L 261.603534 181.842937 
L 262.03902 182.030448 
L 263.780962 180.977581 
L 265.958391 181.32603 
L 267.264848 181.902098 
L 268.135819 181.837422 
L 270.313247 182.724337 
L 271.184218 182.749405 
L 271.619704 182.5639 
L 272.05519 182.590473 
L 273.361647 183.417223 
L 273.797132 183.380624 
L 274.668104 182.962987 
L 275.539075 182.897809 
L 276.410046 183.396667 
L 277.281017 183.351545 
L 277.716503 183.580167 
L 278.587474 182.965995 
L 279.02296 182.909842 
L 279.893931 182.378395 
L 280.329417 182.562897 
L 280.764902 182.362351 
L 281.200388 181.856976 
L 282.071359 181.424298 
L 283.377816 181.415774 
L 283.813302 181.238793 
L 284.248788 181.250324 
L 284.684273 181.079358 
L 285.119759 181.051282 
L 287.297187 182.403463 
L 287.732673 182.243528 
L 288.168158 182.456107 
L 288.603644 182.254558 
L 289.03913 182.427028 
L 289.474615 182.424521 
L 289.910101 182.597993 
L 290.781072 182.617546 
L 292.523015 183.184089 
L 292.9585 183.209157 
L 293.393986 183.418226 
L 293.829472 183.464853 
L 295.135929 182.587966 
L 296.0069 182.599998 
L 296.442386 182.805057 
L 297.748842 182.924382 
L 299.055299 182.352826 
L 300.361756 182.222972 
L 301.232728 181.856976 
L 301.668213 181.861989 
L 302.103699 180.883325 
L 302.539185 180.538386 
L 302.97467 180.371431 
L 303.845641 179.21779 
L 304.281127 178.977135 
L 304.716613 179.017244 
L 305.587584 179.543678 
L 306.02307 179.421846 
L 306.458555 179.63643 
L 306.894041 179.6254 
L 307.765012 180.051059 
L 308.200498 180.059582 
L 308.635984 180.267147 
L 309.071469 180.263136 
L 309.94244 180.834692 
L 310.377926 180.952513 
L 311.684383 180.790572 
L 312.119869 180.769014 
L 312.555354 180.970562 
L 313.426326 180.961036 
L 315.603754 181.807842 
L 316.474725 181.781771 
L 316.910211 182.056519 
L 317.345696 181.832409 
L 319.087639 182.987554 
L 319.523125 182.788512 
L 320.394096 182.995074 
L 321.265067 183.50045 
L 321.700553 183.542565 
L 322.136038 183.802272 
L 322.571524 183.643339 
L 323.00701 182.77698 
L 323.877981 182.901319 
L 324.313467 182.64462 
L 324.748952 182.783999 
L 325.619924 182.893297 
L 326.490895 182.53432 
L 327.361866 182.926888 
L 328.232837 182.693252 
L 328.668323 183.040698 
L 329.103809 183.097353 
L 329.539294 183.008611 
L 329.97478 183.046213 
L 331.281237 183.668407 
L 332.152208 184.267037 
L 334.329636 185.242693 
L 334.765122 185.250715 
L 335.636093 184.778931 
L 336.071579 184.765895 
L 336.94255 185.075237 
L 337.813521 185.590641 
L 338.249007 185.777148 
L 339.119978 185.339457 
L 339.99095 185.405637 
L 340.426435 185.299849 
L 341.732892 185.823274 
L 342.168378 185.807732 
L 343.474835 186.274001 
L 343.91032 186.274001 
L 344.345806 186.422405 
L 344.781292 186.424411 
L 345.216777 186.198796 
L 345.652263 186.180747 
L 346.523234 185.787176 
L 346.95872 185.68941 
L 347.394206 185.379065 
L 348.700662 185.485354 
L 349.571634 185.945607 
L 350.007119 185.890457 
L 353.92649 184.144704 
L 354.797461 184.088551 
L 355.668433 183.962207 
L 356.97489 183.914577 
L 358.281347 183.260798 
L 358.716832 183.252776 
L 359.152318 183.093843 
L 361.329746 183.002595 
L 362.636203 182.266591 
L 363.071689 182.632587 
L 363.507174 182.653645 
L 364.813631 183.362575 
L 365.249117 183.333495 
L 365.684603 183.505464 
L 366.120088 184.02939 
L 366.991059 183.964714 
L 367.426545 183.964714 
L 367.862031 184.187821 
L 368.297516 184.210884 
L 369.168488 184.641055 
L 369.603973 185.004044 
L 370.474945 185.046158 
L 370.91043 184.786451 
L 372.652373 184.768903 
L 373.087858 184.560336 
L 373.523344 184.551812 
L 374.394315 184.102088 
L 375.700772 184.071505 
L 376.136258 183.825836 
L 376.571744 183.709519 
L 377.007229 183.732081 
L 377.442715 183.311435 
L 377.8782 183.335501 
L 378.313686 183.060252 
L 379.184657 183.396166 
L 379.620143 183.569638 
L 380.055629 183.949673 
L 380.491114 183.736092 
L 380.9266 183.723056 
L 381.362086 183.552091 
L 382.668543 183.480395 
L 384.845971 184.160748 
L 385.716942 184.516717 
L 386.152428 184.482123 
L 386.587913 184.258012 
L 387.023399 185.195565 
L 387.89437 185.666848 
L 388.329856 186.318623 
L 388.765341 186.671584 
L 389.200827 186.694646 
L 389.636313 186.895694 
L 390.507284 186.45349 
L 390.94277 186.602897 
L 391.813741 186.565796 
L 393.120198 185.705453 
L 393.555684 185.705955 
L 394.426655 185.301854 
L 394.86214 185.03563 
L 396.168597 184.811018 
L 397.475054 184.160246 
L 397.91054 184.158742 
L 398.346026 184.351768 
L 398.781511 184.39288 
L 399.216997 183.825334 
L 401.394425 183.82383 
L 401.829911 183.583677 
L 401.829911 183.583677 
" clip-path="url(#p3f7c5fd558)" style="fill: none; stroke: #9467bd; stroke-opacity: 0.8; stroke-width: 1.5; stroke-linecap: square"/>
   </g>
   <g id="patch_3">
    <path d="M 61.715625 288.430125 
L 61.715625 22.318125 
" style="fill: none; stroke: #000000; stroke-width: 0.8; stroke-linejoin: miter; stroke-linecap: square"/>
   </g>
   <g id="patch_4">
    <path d="M 418.835625 288.430125 
L 418.835625 22.318125 
" style="fill: none; stroke: #000000; stroke-width: 0.8; stroke-linejoin: miter; stroke-linecap: square"/>
   </g>
   <g id="patch_5">
    <path d="M 61.715625 288.430125 
L 418.835625 288.430125 
" style="fill: none; stroke: #000000; stroke-width: 0.8; stroke-linejoin: miter; stroke-linecap: square"/>
   </g>
   <g id="patch_6">
    <path d="M 61.715625 22.318125 
L 418.835625 22.318125 
" style="fill: none; stroke: #000000; stroke-width: 0.8; stroke-linejoin: miter; stroke-linecap: square"/>
   </g>
   <g id="text_19">
    <!-- Get previous sibling [root] -->
    <g transform="translate(161.956875 16.318125) scale(0.12 -0.12)">
     <defs>
      <path id="DejaVuSans-47" d="M 3809 666 
L 3809 1919 
L 2778 1919 
L 2778 2438 
L 4434 2438 
L 4434 434 
Q 4069 175 3628 42 
Q 3188 -91 2688 -91 
Q 1594 -91 976 548 
Q 359 1188 359 2328 
Q 359 3472 976 4111 
Q 1594 4750 2688 4750 
Q 3144 4750 3555 4637 
Q 3966 4525 4313 4306 
L 4313 3634 
Q 3963 3931 3569 4081 
Q 3175 4231 2741 4231 
Q 1884 4231 1454 3753 
Q 1025 3275 1025 2328 
Q 1025 1384 1454 906 
Q 1884 428 2741 428 
Q 3075 428 3337 486 
Q 3600 544 3809 666 
z
" transform="scale(0.015625)"/>
      <path id="DejaVuSans-70" d="M 1159 525 
L 1159 -1331 
L 581 -1331 
L 581 3500 
L 1159 3500 
L 1159 2969 
Q 1341 3281 1617 3432 
Q 1894 3584 2278 3584 
Q 2916 3584 3314 3078 
Q 3713 2572 3713 1747 
Q 3713 922 3314 415 
Q 2916 -91 2278 -91 
Q 1894 -91 1617 61 
Q 1341 213 1159 525 
z
M 3116 1747 
Q 3116 2381 2855 2742 
Q 2594 3103 2138 3103 
Q 1681 3103 1420 2742 
Q 1159 2381 1159 1747 
Q 1159 1113 1420 752 
Q 1681 391 2138 391 
Q 2594 391 2855 752 
Q 3116 1113 3116 1747 
z
" transform="scale(0.015625)"/>
      <path id="DejaVuSans-72" d="M 2631 2963 
Q 2534 3019 2420 3045 
Q 2306 3072 2169 3072 
Q 1681 3072 1420 2755 
Q 1159 2438 1159 1844 
L 1159 0 
L 581 0 
L 581 3500 
L 1159 3500 
L 1159 2956 
Q 1341 3275 1631 3429 
Q 1922 3584 2338 3584 
Q 2397 3584 2469 3576 
Q 2541 3569 2628 3553 
L 2631 2963 
z
" transform="scale(0.015625)"/>
      <path id="DejaVuSans-76" d="M 191 3500 
L 800 3500 
L 1894 563 
L 2988 3500 
L 3597 3500 
L 2284 0 
L 1503 0 
L 191 3500 
z
" transform="scale(0.015625)"/>
      <path id="DejaVuSans-67" d="M 2906 1791 
Q 2906 2416 2648 2759 
Q 2391 3103 1925 3103 
Q 1463 3103 1205 2759 
Q 947 2416 947 1791 
Q 947 1169 1205 825 
Q 1463 481 1925 481 
Q 2391 481 2648 825 
Q 2906 1169 2906 1791 
z
M 3481 434 
Q 3481 -459 3084 -895 
Q 2688 -1331 1869 -1331 
Q 1566 -1331 1297 -1286 
Q 1028 -1241 775 -1147 
L 775 -588 
Q 1028 -725 1275 -790 
Q 1522 -856 1778 -856 
Q 2344 -856 2625 -561 
Q 2906 -266 2906 331 
L 2906 616 
Q 2728 306 2450 153 
Q 2172 0 1784 0 
Q 1141 0 747 490 
Q 353 981 353 1791 
Q 353 2603 747 3093 
Q 1141 3584 1784 3584 
Q 2172 3584 2450 3431 
Q 2728 3278 2906 2969 
L 2906 3500 
L 3481 3500 
L 3481 434 
z
" transform="scale(0.015625)"/>
      <path id="DejaVuSans-5b" d="M 550 4863 
L 1875 4863 
L 1875 4416 
L 1125 4416 
L 1125 -397 
L 1875 -397 
L 1875 -844 
L 550 -844 
L 550 4863 
z
" transform="scale(0.015625)"/>
      <path id="DejaVuSans-5d" d="M 1947 4863 
L 1947 -844 
L 622 -844 
L 622 -397 
L 1369 -397 
L 1369 4416 
L 622 4416 
L 622 4863 
L 1947 4863 
z
" transform="scale(0.015625)"/>
     </defs>
     <use xlink:href="#DejaVuSans-47"/>
     <use xlink:href="#DejaVuSans-65" transform="translate(77.490234 0)"/>
     <use xlink:href="#DejaVuSans-74" transform="translate(139.013672 0)"/>
     <use xlink:href="#DejaVuSans-20" transform="translate(178.222656 0)"/>
     <use xlink:href="#DejaVuSans-70" transform="translate(210.009766 0)"/>
     <use xlink:href="#DejaVuSans-72" transform="translate(273.486328 0)"/>
     <use xlink:href="#DejaVuSans-65" transform="translate(312.349609 0)"/>
     <use xlink:href="#DejaVuSans-76" transform="translate(373.873047 0)"/>
     <use xlink:href="#DejaVuSans-69" transform="translate(433.052734 0)"/>
     <use xlink:href="#DejaVuSans-6f" transform="translate(460.835938 0)"/>
     <use xlink:href="#DejaVuSans-75" transform="translate(522.017578 0)"/>
     <use xlink:href="#DejaVuSans-73" transform="translate(585.396484 0)"/>
     <use xlink:href="#DejaVuSans-20" transform="translate(637.496094 0)"/>
     <use xlink:href="#DejaVuSans-73" transform="translate(669.283203 0)"/>
     <use xlink:href="#DejaVuSans-69" transform="translate(721.382812 0)"/>
     <use xlink:href="#DejaVuSans-62" transform="translate(749.166016 0)"/>
     <use xlink:href="#DejaVuSans-6c" transform="translate(812.642578 0)"/>
     <use xlink:href="#DejaVuSans-69" transform="translate(840.425781 0)"/>
     <use xlink:href="#DejaVuSans-6e" transform="translate(868.208984 0)"/>
     <use xlink:href="#DejaVuSans-67" transform="translate(931.587891 0)"/>
     <use xlink:href="#DejaVuSans-20" transform="translate(995.064453 0)"/>
     <use xlink:href="#DejaVuSans-5b" transform="translate(1026.851562 0)"/>
     <use xlink:href="#DejaVuSans-72" transform="translate(1065.865234 0)"/>
     <use xlink:href="#DejaVuSans-6f" transform="translate(1104.728516 0)"/>
     <use xlink:href="#DejaVuSans-6f" transform="translate(1165.910156 0)"/>
     <use xlink:href="#DejaVuSans-74" transform="translate(1227.091797 0)"/>
     <use xlink:href="#DejaVuSans-5d" transform="translate(1266.300781 0)"/>
    </g>
   </g>
   <g id="legend_1">
    <g id="patch_7">
     <path d="M 92.717969 365.802375 
L 380.313281 365.802375 
Q 382.313281 365.802375 382.313281 363.802375 
L 382.313281 335.446125 
Q 382.313281 333.446125 380.313281 333.446125 
L 92.717969 333.446125 
Q 90.717969 333.446125 90.717969 335.446125 
L 90.717969 363.802375 
Q 90.717969 365.802375 92.717969 365.802375 
z
" style="fill: #4d4d4d; opacity: 0.5; stroke: #4d4d4d; stroke-linejoin: miter"/>
    </g>
    <g id="patch_8">
     <path d="M 90.717969 363.802375 
L 378.313281 363.802375 
Q 380.313281 363.802375 380.313281 361.802375 
L 380.313281 333.446125 
Q 380.313281 331.446125 378.313281 331.446125 
L 90.717969 331.446125 
Q 88.717969 331.446125 88.717969 333.446125 
L 88.717969 361.802375 
Q 88.717969 363.802375 90.717969 363.802375 
z
" style="fill: #ffffff; stroke: #cccccc; stroke-linejoin: miter"/>
    </g>
    <g id="line2d_22">
     <path d="M 92.717969 339.544562 
L 102.717969 339.544562 
L 112.717969 339.544562 
" style="fill: none; stroke: #1f77b4; stroke-opacity: 0.8; stroke-width: 1.5; stroke-linecap: square"/>
    </g>
    <g id="text_20">
     <!-- MPTT -->
     <g transform="translate(120.717969 343.044562) scale(0.1 -0.1)">
      <defs>
       <path id="DejaVuSans-4d" d="M 628 4666 
L 1569 4666 
L 2759 1491 
L 3956 4666 
L 4897 4666 
L 4897 0 
L 4281 0 
L 4281 4097 
L 3078 897 
L 2444 897 
L 1241 4097 
L 1241 0 
L 628 0 
L 628 4666 
z
" transform="scale(0.015625)"/>
       <path id="DejaVuSans-50" d="M 1259 4147 
L 1259 2394 
L 2053 2394 
Q 2494 2394 2734 2622 
Q 2975 2850 2975 3272 
Q 2975 3691 2734 3919 
Q 2494 4147 2053 4147 
L 1259 4147 
z
M 628 4666 
L 2053 4666 
Q 2838 4666 3239 4311 
Q 3641 3956 3641 3272 
Q 3641 2581 3239 2228 
Q 2838 1875 2053 1875 
L 1259 1875 
L 1259 0 
L 628 0 
L 628 4666 
z
" transform="scale(0.015625)"/>
       <path id="DejaVuSans-54" d="M -19 4666 
L 3928 4666 
L 3928 4134 
L 2272 4134 
L 2272 0 
L 1638 0 
L 1638 4134 
L -19 4134 
L -19 4666 
z
" transform="scale(0.015625)"/>
      </defs>
      <use xlink:href="#DejaVuSans-4d"/>
      <use xlink:href="#DejaVuSans-50" transform="translate(86.279297 0)"/>
      <use xlink:href="#DejaVuSans-54" transform="translate(146.582031 0)"/>
      <use xlink:href="#DejaVuSans-54" transform="translate(205.916016 0)"/>
     </g>
    </g>
    <g id="line2d_23">
     <path d="M 92.717969 354.222687 
L 102.717969 354.222687 
L 112.717969 354.222687 
" style="fill: none; stroke: #ff7f0e; stroke-opacity: 0.8; stroke-width: 1.5; stroke-linecap: square"/>
    </g>
    <g id="text_21">
     <!-- tree -->
     <g transform="translate(120.717969 357.722687) scale(0.1 -0.1)">
      <use xlink:href="#DejaVuSans-74"/>
      <use xlink:href="#DejaVuSans-72" transform="translate(39.208984 0)"/>
      <use xlink:href="#DejaVuSans-65" transform="translate(78.072266 0)"/>
      <use xlink:href="#DejaVuSans-65" transform="translate(139.595703 0)"/>
     </g>
    </g>
    <g id="line2d_24">
     <path d="M 167.416406 339.544562 
L 177.416406 339.544562 
L 187.416406 339.544562 
" style="fill: none; stroke: #2ca02c; stroke-opacity: 0.8; stroke-width: 1.5; stroke-linecap: square"/>
    </g>
    <g id="text_22">
     <!-- treebeard AL -->
     <g transform="translate(195.416406 343.044562) scale(0.1 -0.1)">
      <defs>
       <path id="DejaVuSans-4c" d="M 628 4666 
L 1259 4666 
L 1259 531 
L 3531 531 
L 3531 0 
L 628 0 
L 628 4666 
z
" transform="scale(0.015625)"/>
      </defs>
      <use xlink:href="#DejaVuSans-74"/>
      <use xlink:href="#DejaVuSans-72" transform="translate(39.208984 0)"/>
      <use xlink:href="#DejaVuSans-65" transform="translate(78.072266 0)"/>
      <use xlink:href="#DejaVuSans-65" transform="translate(139.595703 0)"/>
      <use xlink:href="#DejaVuSans-62" transform="translate(201.119141 0)"/>
      <use xlink:href="#DejaVuSans-65" transform="translate(264.595703 0)"/>
      <use xlink:href="#DejaVuSans-61" transform="translate(326.119141 0)"/>
      <use xlink:href="#DejaVuSans-72" transform="translate(387.398438 0)"/>
      <use xlink:href="#DejaVuSans-64" transform="translate(426.761719 0)"/>
      <use xlink:href="#DejaVuSans-20" transform="translate(490.238281 0)"/>
      <use xlink:href="#DejaVuSans-41" transform="translate(522.025391 0)"/>
      <use xlink:href="#DejaVuSans-4c" transform="translate(590.433594 0)"/>
     </g>
    </g>
    <g id="line2d_25">
     <path d="M 167.416406 354.222687 
L 177.416406 354.222687 
L 187.416406 354.222687 
" style="fill: none; stroke: #d62728; stroke-opacity: 0.8; stroke-width: 1.5; stroke-linecap: square"/>
    </g>
    <g id="text_23">
     <!-- treebeard MP -->
     <g transform="translate(195.416406 357.722687) scale(0.1 -0.1)">
      <use xlink:href="#DejaVuSans-74"/>
      <use xlink:href="#DejaVuSans-72" transform="translate(39.208984 0)"/>
      <use xlink:href="#DejaVuSans-65" transform="translate(78.072266 0)"/>
      <use xlink:href="#DejaVuSans-65" transform="translate(139.595703 0)"/>
      <use xlink:href="#DejaVuSans-62" transform="translate(201.119141 0)"/>
      <use xlink:href="#DejaVuSans-65" transform="translate(264.595703 0)"/>
      <use xlink:href="#DejaVuSans-61" transform="translate(326.119141 0)"/>
      <use xlink:href="#DejaVuSans-72" transform="translate(387.398438 0)"/>
      <use xlink:href="#DejaVuSans-64" transform="translate(426.761719 0)"/>
      <use xlink:href="#DejaVuSans-20" transform="translate(490.238281 0)"/>
      <use xlink:href="#DejaVuSans-4d" transform="translate(522.025391 0)"/>
      <use xlink:href="#DejaVuSans-50" transform="translate(608.304688 0)"/>
     </g>
    </g>
    <g id="line2d_26">
     <path d="M 282.278906 339.544562 
L 292.278906 339.544562 
L 302.278906 339.544562 
" style="fill: none; stroke: #9467bd; stroke-opacity: 0.8; stroke-width: 1.5; stroke-linecap: square"/>
    </g>
    <g id="text_24">
     <!-- treebeard NS -->
     <g transform="translate(310.278906 343.044562) scale(0.1 -0.1)">
      <defs>
       <path id="DejaVuSans-4e" d="M 628 4666 
L 1478 4666 
L 3547 763 
L 3547 4666 
L 4159 4666 
L 4159 0 
L 3309 0 
L 1241 3903 
L 1241 0 
L 628 0 
L 628 4666 
z
" transform="scale(0.015625)"/>
       <path id="DejaVuSans-53" d="M 3425 4513 
L 3425 3897 
Q 3066 4069 2747 4153 
Q 2428 4238 2131 4238 
Q 1616 4238 1336 4038 
Q 1056 3838 1056 3469 
Q 1056 3159 1242 3001 
Q 1428 2844 1947 2747 
L 2328 2669 
Q 3034 2534 3370 2195 
Q 3706 1856 3706 1288 
Q 3706 609 3251 259 
Q 2797 -91 1919 -91 
Q 1588 -91 1214 -16 
Q 841 59 441 206 
L 441 856 
Q 825 641 1194 531 
Q 1563 422 1919 422 
Q 2459 422 2753 634 
Q 3047 847 3047 1241 
Q 3047 1584 2836 1778 
Q 2625 1972 2144 2069 
L 1759 2144 
Q 1053 2284 737 2584 
Q 422 2884 422 3419 
Q 422 4038 858 4394 
Q 1294 4750 2059 4750 
Q 2388 4750 2728 4690 
Q 3069 4631 3425 4513 
z
" transform="scale(0.015625)"/>
      </defs>
      <use xlink:href="#DejaVuSans-74"/>
      <use xlink:href="#DejaVuSans-72" transform="translate(39.208984 0)"/>
      <use xlink:href="#DejaVuSans-65" transform="translate(78.072266 0)"/>
      <use xlink:href="#DejaVuSans-65" transform="translate(139.595703 0)"/>
      <use xlink:href="#DejaVuSans-62" transform="translate(201.119141 0)"/>
      <use xlink:href="#DejaVuSans-65" transform="translate(264.595703 0)"/>
      <use xlink:href="#DejaVuSans-61" transform="translate(326.119141 0)"/>
      <use xlink:href="#DejaVuSans-72" transform="translate(387.398438 0)"/>
      <use xlink:href="#DejaVuSans-64" transform="translate(426.761719 0)"/>
      <use xlink:href="#DejaVuSans-20" transform="translate(490.238281 0)"/>
      <use xlink:href="#DejaVuSans-4e" transform="translate(522.025391 0)"/>
      <use xlink:href="#DejaVuSans-53" transform="translate(596.830078 0)"/>
     </g>
    </g>
   </g>
  </g>
 </g>
 <defs>
  <clipPath id="p3f7c5fd558">
   <rect x="61.715625" y="22.318125" width="357.12" height="266.112"/>
  </clipPath>
 </defs>
</svg>
