<?xml version="1.0" encoding="utf-8" standalone="no"?>
<!DOCTYPE svg PUBLIC "-//W3C//DTD SVG 1.1//EN"
  "http://www.w3.org/Graphics/SVG/1.1/DTD/svg11.dtd">
<svg xmlns:xlink="http://www.w3.org/1999/xlink" width="423.590312pt" height="371.002375pt" viewBox="0 0 423.590312 371.002375" xmlns="http://www.w3.org/2000/svg" version="1.1">
 <metadata>
  <rdf:RDF xmlns:dc="http://purl.org/dc/elements/1.1/" xmlns:cc="http://creativecommons.org/ns#" xmlns:rdf="http://www.w3.org/1999/02/22-rdf-syntax-ns#">
   <cc:Work>
    <dc:type rdf:resource="http://purl.org/dc/dcmitype/StillImage"/>
    <dc:date>2025-09-29T14:54:22.163194</dc:date>
    <dc:format>image/svg+xml</dc:format>
    <dc:creator>
     <cc:Agent>
      <dc:title>Matplotlib v3.10.6, https://matplotlib.org/</dc:title>
     </cc:Agent>
    </dc:creator>
   </cc:Work>
  </rdf:RDF>
 </metadata>
 <defs>
  <style type="text/css">*{stroke-linejoin: round; stroke-linecap: butt}</style>
 </defs>
 <g id="figure_1">
  <g id="patch_1">
   <path d="M 0 371.002375 
L 423.590312 371.002375 
L 423.590312 0 
L 0 0 
z
" style="fill: #ffffff"/>
  </g>
  <g id="axes_1">
   <g id="patch_2">
    <path d="M 59.270313 288.430125 
L 416.390313 288.430125 
L 416.390313 22.318125 
L 59.270313 22.318125 
z
" style="fill: #ffffff"/>
   </g>
   <g id="matplotlib.axis_1">
    <g id="xtick_1">
     <g id="line2d_1">
      <defs>
       <path id="m77853d245a" d="M 0 0 
L 0 3.5 
" style="stroke: #000000; stroke-width: 0.8"/>
      </defs>
      <g>
       <use xlink:href="#m77853d245a" x="59.270313" y="288.430125" style="stroke: #000000; stroke-width: 0.8"/>
      </g>
     </g>
     <g id="text_1">
      <!-- 0 -->
      <g transform="translate(56.089063 303.028562) scale(0.1 -0.1)">
       <defs>
        <path id="DejaVuSans-30" d="M 2034 4250 
Q 1547 4250 1301 3770 
Q 1056 3291 1056 2328 
Q 1056 1369 1301 889 
Q 1547 409 2034 409 
Q 2525 409 2770 889 
Q 3016 1369 3016 2328 
Q 3016 3291 2770 3770 
Q 2525 4250 2034 4250 
z
M 2034 4750 
Q 2819 4750 3233 4129 
Q 3647 3509 3647 2328 
Q 3647 1150 3233 529 
Q 2819 -91 2034 -91 
Q 1250 -91 836 529 
Q 422 1150 422 2328 
Q 422 3509 836 4129 
Q 1250 4750 2034 4750 
z
" transform="scale(0.015625)"/>
       </defs>
       <use xlink:href="#DejaVuSans-30"/>
      </g>
     </g>
    </g>
    <g id="xtick_2">
     <g id="line2d_2">
      <g>
       <use xlink:href="#m77853d245a" x="102.818877" y="288.430125" style="stroke: #000000; stroke-width: 0.8"/>
      </g>
     </g>
     <g id="text_2">
      <!-- 500  -->
      <g transform="translate(91.686064 303.028562) scale(0.1 -0.1)">
       <defs>
        <path id="DejaVuSans-35" d="M 691 4666 
L 3169 4666 
L 3169 4134 
L 1269 4134 
L 1269 2991 
Q 1406 3038 1543 3061 
Q 1681 3084 1819 3084 
Q 2600 3084 3056 2656 
Q 3513 2228 3513 1497 
Q 3513 744 3044 326 
Q 2575 -91 1722 -91 
Q 1428 -91 1123 -41 
Q 819 9 494 109 
L 494 744 
Q 775 591 1075 516 
Q 1375 441 1709 441 
Q 2250 441 2565 725 
Q 2881 1009 2881 1497 
Q 2881 1984 2565 2268 
Q 2250 2553 1709 2553 
Q 1456 2553 1204 2497 
Q 953 2441 691 2322 
L 691 4666 
z
" transform="scale(0.015625)"/>
        <path id="DejaVuSans-20" transform="scale(0.015625)"/>
       </defs>
       <use xlink:href="#DejaVuSans-35"/>
       <use xlink:href="#DejaVuSans-30" transform="translate(63.623047 0)"/>
       <use xlink:href="#DejaVuSans-30" transform="translate(127.246094 0)"/>
       <use xlink:href="#DejaVuSans-20" transform="translate(190.869141 0)"/>
      </g>
     </g>
    </g>
    <g id="xtick_3">
     <g id="line2d_3">
      <g>
       <use xlink:href="#m77853d245a" x="146.367441" y="288.430125" style="stroke: #000000; stroke-width: 0.8"/>
      </g>
     </g>
     <g id="text_3">
      <!-- 1 k -->
      <g transform="translate(138.701816 303.028562) scale(0.1 -0.1)">
       <defs>
        <path id="DejaVuSans-31" d="M 794 531 
L 1825 531 
L 1825 4091 
L 703 3866 
L 703 4441 
L 1819 4666 
L 2450 4666 
L 2450 531 
L 3481 531 
L 3481 0 
L 794 0 
L 794 531 
z
" transform="scale(0.015625)"/>
        <path id="DejaVuSans-6b" d="M 581 4863 
L 1159 4863 
L 1159 1991 
L 2875 3500 
L 3609 3500 
L 1753 1863 
L 3688 0 
L 2938 0 
L 1159 1709 
L 1159 0 
L 581 0 
L 581 4863 
z
" transform="scale(0.015625)"/>
       </defs>
       <use xlink:href="#DejaVuSans-31"/>
       <use xlink:href="#DejaVuSans-20" transform="translate(63.623047 0)"/>
       <use xlink:href="#DejaVuSans-6b" transform="translate(95.410156 0)"/>
      </g>
     </g>
    </g>
    <g id="xtick_4">
     <g id="line2d_4">
      <g>
       <use xlink:href="#m77853d245a" x="189.916005" y="288.430125" style="stroke: #000000; stroke-width: 0.8"/>
      </g>
     </g>
     <g id="text_4">
      <!-- 1.5 k -->
      <g transform="translate(177.480067 303.028562) scale(0.1 -0.1)">
       <defs>
        <path id="DejaVuSans-2e" d="M 684 794 
L 1344 794 
L 1344 0 
L 684 0 
L 684 794 
z
" transform="scale(0.015625)"/>
       </defs>
       <use xlink:href="#DejaVuSans-31"/>
       <use xlink:href="#DejaVuSans-2e" transform="translate(63.623047 0)"/>
       <use xlink:href="#DejaVuSans-35" transform="translate(95.410156 0)"/>
       <use xlink:href="#DejaVuSans-20" transform="translate(159.033203 0)"/>
       <use xlink:href="#DejaVuSans-6b" transform="translate(190.820312 0)"/>
      </g>
     </g>
    </g>
    <g id="xtick_5">
     <g id="line2d_5">
      <g>
       <use xlink:href="#m77853d245a" x="233.464569" y="288.430125" style="stroke: #000000; stroke-width: 0.8"/>
      </g>
     </g>
     <g id="text_5">
      <!-- 2 k -->
      <g transform="translate(225.798944 303.028562) scale(0.1 -0.1)">
       <defs>
        <path id="DejaVuSans-32" d="M 1228 531 
L 3431 531 
L 3431 0 
L 469 0 
L 469 531 
Q 828 903 1448 1529 
Q 2069 2156 2228 2338 
Q 2531 2678 2651 2914 
Q 2772 3150 2772 3378 
Q 2772 3750 2511 3984 
Q 2250 4219 1831 4219 
Q 1534 4219 1204 4116 
Q 875 4013 500 3803 
L 500 4441 
Q 881 4594 1212 4672 
Q 1544 4750 1819 4750 
Q 2544 4750 2975 4387 
Q 3406 4025 3406 3419 
Q 3406 3131 3298 2873 
Q 3191 2616 2906 2266 
Q 2828 2175 2409 1742 
Q 1991 1309 1228 531 
z
" transform="scale(0.015625)"/>
       </defs>
       <use xlink:href="#DejaVuSans-32"/>
       <use xlink:href="#DejaVuSans-20" transform="translate(63.623047 0)"/>
       <use xlink:href="#DejaVuSans-6b" transform="translate(95.410156 0)"/>
      </g>
     </g>
    </g>
    <g id="xtick_6">
     <g id="line2d_6">
      <g>
       <use xlink:href="#m77853d245a" x="277.013133" y="288.430125" style="stroke: #000000; stroke-width: 0.8"/>
      </g>
     </g>
     <g id="text_6">
      <!-- 2.5 k -->
      <g transform="translate(264.577196 303.028562) scale(0.1 -0.1)">
       <use xlink:href="#DejaVuSans-32"/>
       <use xlink:href="#DejaVuSans-2e" transform="translate(63.623047 0)"/>
       <use xlink:href="#DejaVuSans-35" transform="translate(95.410156 0)"/>
       <use xlink:href="#DejaVuSans-20" transform="translate(159.033203 0)"/>
       <use xlink:href="#DejaVuSans-6b" transform="translate(190.820312 0)"/>
      </g>
     </g>
    </g>
    <g id="xtick_7">
     <g id="line2d_7">
      <g>
       <use xlink:href="#m77853d245a" x="320.561697" y="288.430125" style="stroke: #000000; stroke-width: 0.8"/>
      </g>
     </g>
     <g id="text_7">
      <!-- 3 k -->
      <g transform="translate(312.896072 303.028562) scale(0.1 -0.1)">
       <defs>
        <path id="DejaVuSans-33" d="M 2597 2516 
Q 3050 2419 3304 2112 
Q 3559 1806 3559 1356 
Q 3559 666 3084 287 
Q 2609 -91 1734 -91 
Q 1441 -91 1130 -33 
Q 819 25 488 141 
L 488 750 
Q 750 597 1062 519 
Q 1375 441 1716 441 
Q 2309 441 2620 675 
Q 2931 909 2931 1356 
Q 2931 1769 2642 2001 
Q 2353 2234 1838 2234 
L 1294 2234 
L 1294 2753 
L 1863 2753 
Q 2328 2753 2575 2939 
Q 2822 3125 2822 3475 
Q 2822 3834 2567 4026 
Q 2313 4219 1838 4219 
Q 1578 4219 1281 4162 
Q 984 4106 628 3988 
L 628 4550 
Q 988 4650 1302 4700 
Q 1616 4750 1894 4750 
Q 2613 4750 3031 4423 
Q 3450 4097 3450 3541 
Q 3450 3153 3228 2886 
Q 3006 2619 2597 2516 
z
" transform="scale(0.015625)"/>
       </defs>
       <use xlink:href="#DejaVuSans-33"/>
       <use xlink:href="#DejaVuSans-20" transform="translate(63.623047 0)"/>
       <use xlink:href="#DejaVuSans-6b" transform="translate(95.410156 0)"/>
      </g>
     </g>
    </g>
    <g id="xtick_8">
     <g id="line2d_8">
      <g>
       <use xlink:href="#m77853d245a" x="364.110261" y="288.430125" style="stroke: #000000; stroke-width: 0.8"/>
      </g>
     </g>
     <g id="text_8">
      <!-- 3.5 k -->
      <g transform="translate(351.674324 303.028562) scale(0.1 -0.1)">
       <use xlink:href="#DejaVuSans-33"/>
       <use xlink:href="#DejaVuSans-2e" transform="translate(63.623047 0)"/>
       <use xlink:href="#DejaVuSans-35" transform="translate(95.410156 0)"/>
       <use xlink:href="#DejaVuSans-20" transform="translate(159.033203 0)"/>
       <use xlink:href="#DejaVuSans-6b" transform="translate(190.820312 0)"/>
      </g>
     </g>
    </g>
    <g id="xtick_9">
     <g id="line2d_9">
      <g>
       <use xlink:href="#m77853d245a" x="407.658825" y="288.430125" style="stroke: #000000; stroke-width: 0.8"/>
      </g>
     </g>
     <g id="text_9">
      <!-- 4 k -->
      <g transform="translate(399.9932 303.028562) scale(0.1 -0.1)">
       <defs>
        <path id="DejaVuSans-34" d="M 2419 4116 
L 825 1625 
L 2419 1625 
L 2419 4116 
z
M 2253 4666 
L 3047 4666 
L 3047 1625 
L 3713 1625 
L 3713 1100 
L 3047 1100 
L 3047 0 
L 2419 0 
L 2419 1100 
L 313 1100 
L 313 1709 
L 2253 4666 
z
" transform="scale(0.015625)"/>
       </defs>
       <use xlink:href="#DejaVuSans-34"/>
       <use xlink:href="#DejaVuSans-20" transform="translate(63.623047 0)"/>
       <use xlink:href="#DejaVuSans-6b" transform="translate(95.410156 0)"/>
      </g>
     </g>
    </g>
    <g id="text_10">
     <!-- Amount of objects in table -->
     <g transform="translate(171.771719 316.706687) scale(0.1 -0.1)">
      <defs>
       <path id="DejaVuSans-41" d="M 2188 4044 
L 1331 1722 
L 3047 1722 
L 2188 4044 
z
M 1831 4666 
L 2547 4666 
L 4325 0 
L 3669 0 
L 3244 1197 
L 1141 1197 
L 716 0 
L 50 0 
L 1831 4666 
z
" transform="scale(0.015625)"/>
       <path id="DejaVuSans-6d" d="M 3328 2828 
Q 3544 3216 3844 3400 
Q 4144 3584 4550 3584 
Q 5097 3584 5394 3201 
Q 5691 2819 5691 2113 
L 5691 0 
L 5113 0 
L 5113 2094 
Q 5113 2597 4934 2840 
Q 4756 3084 4391 3084 
Q 3944 3084 3684 2787 
Q 3425 2491 3425 1978 
L 3425 0 
L 2847 0 
L 2847 2094 
Q 2847 2600 2669 2842 
Q 2491 3084 2119 3084 
Q 1678 3084 1418 2786 
Q 1159 2488 1159 1978 
L 1159 0 
L 581 0 
L 581 3500 
L 1159 3500 
L 1159 2956 
Q 1356 3278 1631 3431 
Q 1906 3584 2284 3584 
Q 2666 3584 2933 3390 
Q 3200 3197 3328 2828 
z
" transform="scale(0.015625)"/>
       <path id="DejaVuSans-6f" d="M 1959 3097 
Q 1497 3097 1228 2736 
Q 959 2375 959 1747 
Q 959 1119 1226 758 
Q 1494 397 1959 397 
Q 2419 397 2687 759 
Q 2956 1122 2956 1747 
Q 2956 2369 2687 2733 
Q 2419 3097 1959 3097 
z
M 1959 3584 
Q 2709 3584 3137 3096 
Q 3566 2609 3566 1747 
Q 3566 888 3137 398 
Q 2709 -91 1959 -91 
Q 1206 -91 779 398 
Q 353 888 353 1747 
Q 353 2609 779 3096 
Q 1206 3584 1959 3584 
z
" transform="scale(0.015625)"/>
       <path id="DejaVuSans-75" d="M 544 1381 
L 544 3500 
L 1119 3500 
L 1119 1403 
Q 1119 906 1312 657 
Q 1506 409 1894 409 
Q 2359 409 2629 706 
Q 2900 1003 2900 1516 
L 2900 3500 
L 3475 3500 
L 3475 0 
L 2900 0 
L 2900 538 
Q 2691 219 2414 64 
Q 2138 -91 1772 -91 
Q 1169 -91 856 284 
Q 544 659 544 1381 
z
M 1991 3584 
L 1991 3584 
z
" transform="scale(0.015625)"/>
       <path id="DejaVuSans-6e" d="M 3513 2113 
L 3513 0 
L 2938 0 
L 2938 2094 
Q 2938 2591 2744 2837 
Q 2550 3084 2163 3084 
Q 1697 3084 1428 2787 
Q 1159 2491 1159 1978 
L 1159 0 
L 581 0 
L 581 3500 
L 1159 3500 
L 1159 2956 
Q 1366 3272 1645 3428 
Q 1925 3584 2291 3584 
Q 2894 3584 3203 3211 
Q 3513 2838 3513 2113 
z
" transform="scale(0.015625)"/>
       <path id="DejaVuSans-74" d="M 1172 4494 
L 1172 3500 
L 2356 3500 
L 2356 3053 
L 1172 3053 
L 1172 1153 
Q 1172 725 1289 603 
Q 1406 481 1766 481 
L 2356 481 
L 2356 0 
L 1766 0 
Q 1100 0 847 248 
Q 594 497 594 1153 
L 594 3053 
L 172 3053 
L 172 3500 
L 594 3500 
L 594 4494 
L 1172 4494 
z
" transform="scale(0.015625)"/>
       <path id="DejaVuSans-66" d="M 2375 4863 
L 2375 4384 
L 1825 4384 
Q 1516 4384 1395 4259 
Q 1275 4134 1275 3809 
L 1275 3500 
L 2222 3500 
L 2222 3053 
L 1275 3053 
L 1275 0 
L 697 0 
L 697 3053 
L 147 3053 
L 147 3500 
L 697 3500 
L 697 3744 
Q 697 4328 969 4595 
Q 1241 4863 1831 4863 
L 2375 4863 
z
" transform="scale(0.015625)"/>
       <path id="DejaVuSans-62" d="M 3116 1747 
Q 3116 2381 2855 2742 
Q 2594 3103 2138 3103 
Q 1681 3103 1420 2742 
Q 1159 2381 1159 1747 
Q 1159 1113 1420 752 
Q 1681 391 2138 391 
Q 2594 391 2855 752 
Q 3116 1113 3116 1747 
z
M 1159 2969 
Q 1341 3281 1617 3432 
Q 1894 3584 2278 3584 
Q 2916 3584 3314 3078 
Q 3713 2572 3713 1747 
Q 3713 922 3314 415 
Q 2916 -91 2278 -91 
Q 1894 -91 1617 61 
Q 1341 213 1159 525 
L 1159 0 
L 581 0 
L 581 4863 
L 1159 4863 
L 1159 2969 
z
" transform="scale(0.015625)"/>
       <path id="DejaVuSans-6a" d="M 603 3500 
L 1178 3500 
L 1178 -63 
Q 1178 -731 923 -1031 
Q 669 -1331 103 -1331 
L -116 -1331 
L -116 -844 
L 38 -844 
Q 366 -844 484 -692 
Q 603 -541 603 -63 
L 603 3500 
z
M 603 4863 
L 1178 4863 
L 1178 4134 
L 603 4134 
L 603 4863 
z
" transform="scale(0.015625)"/>
       <path id="DejaVuSans-65" d="M 3597 1894 
L 3597 1613 
L 953 1613 
Q 991 1019 1311 708 
Q 1631 397 2203 397 
Q 2534 397 2845 478 
Q 3156 559 3463 722 
L 3463 178 
Q 3153 47 2828 -22 
Q 2503 -91 2169 -91 
Q 1331 -91 842 396 
Q 353 884 353 1716 
Q 353 2575 817 3079 
Q 1281 3584 2069 3584 
Q 2775 3584 3186 3129 
Q 3597 2675 3597 1894 
z
M 3022 2063 
Q 3016 2534 2758 2815 
Q 2500 3097 2075 3097 
Q 1594 3097 1305 2825 
Q 1016 2553 972 2059 
L 3022 2063 
z
" transform="scale(0.015625)"/>
       <path id="DejaVuSans-63" d="M 3122 3366 
L 3122 2828 
Q 2878 2963 2633 3030 
Q 2388 3097 2138 3097 
Q 1578 3097 1268 2742 
Q 959 2388 959 1747 
Q 959 1106 1268 751 
Q 1578 397 2138 397 
Q 2388 397 2633 464 
Q 2878 531 3122 666 
L 3122 134 
Q 2881 22 2623 -34 
Q 2366 -91 2075 -91 
Q 1284 -91 818 406 
Q 353 903 353 1747 
Q 353 2603 823 3093 
Q 1294 3584 2113 3584 
Q 2378 3584 2631 3529 
Q 2884 3475 3122 3366 
z
" transform="scale(0.015625)"/>
       <path id="DejaVuSans-73" d="M 2834 3397 
L 2834 2853 
Q 2591 2978 2328 3040 
Q 2066 3103 1784 3103 
Q 1356 3103 1142 2972 
Q 928 2841 928 2578 
Q 928 2378 1081 2264 
Q 1234 2150 1697 2047 
L 1894 2003 
Q 2506 1872 2764 1633 
Q 3022 1394 3022 966 
Q 3022 478 2636 193 
Q 2250 -91 1575 -91 
Q 1294 -91 989 -36 
Q 684 19 347 128 
L 347 722 
Q 666 556 975 473 
Q 1284 391 1588 391 
Q 1994 391 2212 530 
Q 2431 669 2431 922 
Q 2431 1156 2273 1281 
Q 2116 1406 1581 1522 
L 1381 1569 
Q 847 1681 609 1914 
Q 372 2147 372 2553 
Q 372 3047 722 3315 
Q 1072 3584 1716 3584 
Q 2034 3584 2315 3537 
Q 2597 3491 2834 3397 
z
" transform="scale(0.015625)"/>
       <path id="DejaVuSans-69" d="M 603 3500 
L 1178 3500 
L 1178 0 
L 603 0 
L 603 3500 
z
M 603 4863 
L 1178 4863 
L 1178 4134 
L 603 4134 
L 603 4863 
z
" transform="scale(0.015625)"/>
       <path id="DejaVuSans-61" d="M 2194 1759 
Q 1497 1759 1228 1600 
Q 959 1441 959 1056 
Q 959 750 1161 570 
Q 1363 391 1709 391 
Q 2188 391 2477 730 
Q 2766 1069 2766 1631 
L 2766 1759 
L 2194 1759 
z
M 3341 1997 
L 3341 0 
L 2766 0 
L 2766 531 
Q 2569 213 2275 61 
Q 1981 -91 1556 -91 
Q 1019 -91 701 211 
Q 384 513 384 1019 
Q 384 1609 779 1909 
Q 1175 2209 1959 2209 
L 2766 2209 
L 2766 2266 
Q 2766 2663 2505 2880 
Q 2244 3097 1772 3097 
Q 1472 3097 1187 3025 
Q 903 2953 641 2809 
L 641 3341 
Q 956 3463 1253 3523 
Q 1550 3584 1831 3584 
Q 2591 3584 2966 3190 
Q 3341 2797 3341 1997 
z
" transform="scale(0.015625)"/>
       <path id="DejaVuSans-6c" d="M 603 4863 
L 1178 4863 
L 1178 0 
L 603 0 
L 603 4863 
z
" transform="scale(0.015625)"/>
      </defs>
      <use xlink:href="#DejaVuSans-41"/>
      <use xlink:href="#DejaVuSans-6d" transform="translate(68.408203 0)"/>
      <use xlink:href="#DejaVuSans-6f" transform="translate(165.820312 0)"/>
      <use xlink:href="#DejaVuSans-75" transform="translate(227.001953 0)"/>
      <use xlink:href="#DejaVuSans-6e" transform="translate(290.380859 0)"/>
      <use xlink:href="#DejaVuSans-74" transform="translate(353.759766 0)"/>
      <use xlink:href="#DejaVuSans-20" transform="translate(392.96875 0)"/>
      <use xlink:href="#DejaVuSans-6f" transform="translate(424.755859 0)"/>
      <use xlink:href="#DejaVuSans-66" transform="translate(485.9375 0)"/>
      <use xlink:href="#DejaVuSans-20" transform="translate(521.142578 0)"/>
      <use xlink:href="#DejaVuSans-6f" transform="translate(552.929688 0)"/>
      <use xlink:href="#DejaVuSans-62" transform="translate(614.111328 0)"/>
      <use xlink:href="#DejaVuSans-6a" transform="translate(677.587891 0)"/>
      <use xlink:href="#DejaVuSans-65" transform="translate(705.371094 0)"/>
      <use xlink:href="#DejaVuSans-63" transform="translate(766.894531 0)"/>
      <use xlink:href="#DejaVuSans-74" transform="translate(821.875 0)"/>
      <use xlink:href="#DejaVuSans-73" transform="translate(861.083984 0)"/>
      <use xlink:href="#DejaVuSans-20" transform="translate(913.183594 0)"/>
      <use xlink:href="#DejaVuSans-69" transform="translate(944.970703 0)"/>
      <use xlink:href="#DejaVuSans-6e" transform="translate(972.753906 0)"/>
      <use xlink:href="#DejaVuSans-20" transform="translate(1036.132812 0)"/>
      <use xlink:href="#DejaVuSans-74" transform="translate(1067.919922 0)"/>
      <use xlink:href="#DejaVuSans-61" transform="translate(1107.128906 0)"/>
      <use xlink:href="#DejaVuSans-62" transform="translate(1168.408203 0)"/>
      <use xlink:href="#DejaVuSans-6c" transform="translate(1231.884766 0)"/>
      <use xlink:href="#DejaVuSans-65" transform="translate(1259.667969 0)"/>
     </g>
    </g>
   </g>
   <g id="matplotlib.axis_2">
    <g id="ytick_1">
     <g id="line2d_10">
      <defs>
       <path id="mb25bea6e1b" d="M 0 0 
L -3.5 0 
" style="stroke: #000000; stroke-width: 0.8"/>
      </defs>
      <g>
       <use xlink:href="#mb25bea6e1b" x="59.270313" y="288.430125" style="stroke: #000000; stroke-width: 0.8"/>
      </g>
     </g>
     <g id="text_11">
      <!-- 0 -->
      <g transform="translate(45.907813 292.229344) scale(0.1 -0.1)">
       <use xlink:href="#DejaVuSans-30"/>
      </g>
     </g>
    </g>
    <g id="ytick_2">
     <g id="line2d_11">
      <g>
       <use xlink:href="#mb25bea6e1b" x="59.270313" y="230.4435" style="stroke: #000000; stroke-width: 0.8"/>
      </g>
     </g>
     <g id="text_12">
      <!-- 10 MB -->
      <g transform="translate(20.878125 234.242719) scale(0.1 -0.1)">
       <defs>
        <path id="DejaVuSans-4d" d="M 628 4666 
L 1569 4666 
L 2759 1491 
L 3956 4666 
L 4897 4666 
L 4897 0 
L 4281 0 
L 4281 4097 
L 3078 897 
L 2444 897 
L 1241 4097 
L 1241 0 
L 628 0 
L 628 4666 
z
" transform="scale(0.015625)"/>
        <path id="DejaVuSans-42" d="M 1259 2228 
L 1259 519 
L 2272 519 
Q 2781 519 3026 730 
Q 3272 941 3272 1375 
Q 3272 1813 3026 2020 
Q 2781 2228 2272 2228 
L 1259 2228 
z
M 1259 4147 
L 1259 2741 
L 2194 2741 
Q 2656 2741 2882 2914 
Q 3109 3088 3109 3444 
Q 3109 3797 2882 3972 
Q 2656 4147 2194 4147 
L 1259 4147 
z
M 628 4666 
L 2241 4666 
Q 2963 4666 3353 4366 
Q 3744 4066 3744 3513 
Q 3744 3084 3544 2831 
Q 3344 2578 2956 2516 
Q 3422 2416 3680 2098 
Q 3938 1781 3938 1306 
Q 3938 681 3513 340 
Q 3088 0 2303 0 
L 628 0 
L 628 4666 
z
" transform="scale(0.015625)"/>
       </defs>
       <use xlink:href="#DejaVuSans-31"/>
       <use xlink:href="#DejaVuSans-30" transform="translate(63.623047 0)"/>
       <use xlink:href="#DejaVuSans-20" transform="translate(127.246094 0)"/>
       <use xlink:href="#DejaVuSans-4d" transform="translate(159.033203 0)"/>
       <use xlink:href="#DejaVuSans-42" transform="translate(245.3125 0)"/>
      </g>
     </g>
    </g>
    <g id="ytick_3">
     <g id="line2d_12">
      <g>
       <use xlink:href="#mb25bea6e1b" x="59.270313" y="172.456875" style="stroke: #000000; stroke-width: 0.8"/>
      </g>
     </g>
     <g id="text_13">
      <!-- 20 MB -->
      <g transform="translate(20.878125 176.256094) scale(0.1 -0.1)">
       <use xlink:href="#DejaVuSans-32"/>
       <use xlink:href="#DejaVuSans-30" transform="translate(63.623047 0)"/>
       <use xlink:href="#DejaVuSans-20" transform="translate(127.246094 0)"/>
       <use xlink:href="#DejaVuSans-4d" transform="translate(159.033203 0)"/>
       <use xlink:href="#DejaVuSans-42" transform="translate(245.3125 0)"/>
      </g>
     </g>
    </g>
    <g id="ytick_4">
     <g id="line2d_13">
      <g>
       <use xlink:href="#mb25bea6e1b" x="59.270313" y="114.47025" style="stroke: #000000; stroke-width: 0.8"/>
      </g>
     </g>
     <g id="text_14">
      <!-- 30 MB -->
      <g transform="translate(20.878125 118.269469) scale(0.1 -0.1)">
       <use xlink:href="#DejaVuSans-33"/>
       <use xlink:href="#DejaVuSans-30" transform="translate(63.623047 0)"/>
       <use xlink:href="#DejaVuSans-20" transform="translate(127.246094 0)"/>
       <use xlink:href="#DejaVuSans-4d" transform="translate(159.033203 0)"/>
       <use xlink:href="#DejaVuSans-42" transform="translate(245.3125 0)"/>
      </g>
     </g>
    </g>
    <g id="ytick_5">
     <g id="line2d_14">
      <g>
       <use xlink:href="#mb25bea6e1b" x="59.270313" y="56.483625" style="stroke: #000000; stroke-width: 0.8"/>
      </g>
     </g>
     <g id="text_15">
      <!-- 40 MB -->
      <g transform="translate(20.878125 60.282843) scale(0.1 -0.1)">
       <use xlink:href="#DejaVuSans-34"/>
       <use xlink:href="#DejaVuSans-30" transform="translate(63.623047 0)"/>
       <use xlink:href="#DejaVuSans-20" transform="translate(127.246094 0)"/>
       <use xlink:href="#DejaVuSans-4d" transform="translate(159.033203 0)"/>
       <use xlink:href="#DejaVuSans-42" transform="translate(245.3125 0)"/>
      </g>
     </g>
    </g>
    <g id="text_16">
     <!-- Disk usage (bytes) -->
     <g transform="translate(14.798438 202.056156) rotate(-90) scale(0.1 -0.1)">
      <defs>
       <path id="DejaVuSans-44" d="M 1259 4147 
L 1259 519 
L 2022 519 
Q 2988 519 3436 956 
Q 3884 1394 3884 2338 
Q 3884 3275 3436 3711 
Q 2988 4147 2022 4147 
L 1259 4147 
z
M 628 4666 
L 1925 4666 
Q 3281 4666 3915 4102 
Q 4550 3538 4550 2338 
Q 4550 1131 3912 565 
Q 3275 0 1925 0 
L 628 0 
L 628 4666 
z
" transform="scale(0.015625)"/>
       <path id="DejaVuSans-67" d="M 2906 1791 
Q 2906 2416 2648 2759 
Q 2391 3103 1925 3103 
Q 1463 3103 1205 2759 
Q 947 2416 947 1791 
Q 947 1169 1205 825 
Q 1463 481 1925 481 
Q 2391 481 2648 825 
Q 2906 1169 2906 1791 
z
M 3481 434 
Q 3481 -459 3084 -895 
Q 2688 -1331 1869 -1331 
Q 1566 -1331 1297 -1286 
Q 1028 -1241 775 -1147 
L 775 -588 
Q 1028 -725 1275 -790 
Q 1522 -856 1778 -856 
Q 2344 -856 2625 -561 
Q 2906 -266 2906 331 
L 2906 616 
Q 2728 306 2450 153 
Q 2172 0 1784 0 
Q 1141 0 747 490 
Q 353 981 353 1791 
Q 353 2603 747 3093 
Q 1141 3584 1784 3584 
Q 2172 3584 2450 3431 
Q 2728 3278 2906 2969 
L 2906 3500 
L 3481 3500 
L 3481 434 
z
" transform="scale(0.015625)"/>
       <path id="DejaVuSans-28" d="M 1984 4856 
Q 1566 4138 1362 3434 
Q 1159 2731 1159 2009 
Q 1159 1288 1364 580 
Q 1569 -128 1984 -844 
L 1484 -844 
Q 1016 -109 783 600 
Q 550 1309 550 2009 
Q 550 2706 781 3412 
Q 1013 4119 1484 4856 
L 1984 4856 
z
" transform="scale(0.015625)"/>
       <path id="DejaVuSans-79" d="M 2059 -325 
Q 1816 -950 1584 -1140 
Q 1353 -1331 966 -1331 
L 506 -1331 
L 506 -850 
L 844 -850 
Q 1081 -850 1212 -737 
Q 1344 -625 1503 -206 
L 1606 56 
L 191 3500 
L 800 3500 
L 1894 763 
L 2988 3500 
L 3597 3500 
L 2059 -325 
z
" transform="scale(0.015625)"/>
       <path id="DejaVuSans-29" d="M 513 4856 
L 1013 4856 
Q 1481 4119 1714 3412 
Q 1947 2706 1947 2009 
Q 1947 1309 1714 600 
Q 1481 -109 1013 -844 
L 513 -844 
Q 928 -128 1133 580 
Q 1338 1288 1338 2009 
Q 1338 2731 1133 3434 
Q 928 4138 513 4856 
z
" transform="scale(0.015625)"/>
      </defs>
      <use xlink:href="#DejaVuSans-44"/>
      <use xlink:href="#DejaVuSans-69" transform="translate(77.001953 0)"/>
      <use xlink:href="#DejaVuSans-73" transform="translate(104.785156 0)"/>
      <use xlink:href="#DejaVuSans-6b" transform="translate(156.884766 0)"/>
      <use xlink:href="#DejaVuSans-20" transform="translate(214.794922 0)"/>
      <use xlink:href="#DejaVuSans-75" transform="translate(246.582031 0)"/>
      <use xlink:href="#DejaVuSans-73" transform="translate(309.960938 0)"/>
      <use xlink:href="#DejaVuSans-61" transform="translate(362.060547 0)"/>
      <use xlink:href="#DejaVuSans-67" transform="translate(423.339844 0)"/>
      <use xlink:href="#DejaVuSans-65" transform="translate(486.816406 0)"/>
      <use xlink:href="#DejaVuSans-20" transform="translate(548.339844 0)"/>
      <use xlink:href="#DejaVuSans-28" transform="translate(580.126953 0)"/>
      <use xlink:href="#DejaVuSans-62" transform="translate(619.140625 0)"/>
      <use xlink:href="#DejaVuSans-79" transform="translate(682.617188 0)"/>
      <use xlink:href="#DejaVuSans-74" transform="translate(741.796875 0)"/>
      <use xlink:href="#DejaVuSans-65" transform="translate(781.005859 0)"/>
      <use xlink:href="#DejaVuSans-73" transform="translate(842.529297 0)"/>
      <use xlink:href="#DejaVuSans-29" transform="translate(894.628906 0)"/>
     </g>
    </g>
   </g>
   <g id="line2d_15">
    <path d="M 144.190013 265.280747 
L 145.931955 263.835936 
L 147.238412 263.741661 
L 148.544869 263.444953 
L 149.851326 262.960913 
L 151.157783 262.279311 
L 152.46424 261.412327 
L 154.206182 259.895165 
L 154.641668 259.457654 
L 155.948125 259.386278 
L 158.125553 258.942433 
L 159.43201 258.604799 
L 160.738467 258.073013 
L 161.609438 257.555356 
L 163.351381 256.203114 
L 164.657838 256.168766 
L 165.964295 255.922726 
L 167.270751 255.507139 
L 168.577208 254.894233 
L 169.883665 254.12469 
L 171.625608 252.371234 
L 172.061094 251.88013 
L 173.36755 251.92885 
L 175.109493 251.705466 
L 176.41595 251.339818 
L 178.157893 250.578801 
L 178.593378 250.344454 
L 180.335321 248.400987 
L 180.770806 247.868227 
L 182.077263 247.972246 
L 184.254692 247.972002 
L 185.561148 247.761529 
L 186.867605 247.346916 
L 187.303091 247.167867 
L 189.045034 245.244619 
L 189.480519 244.705282 
L 190.786976 244.824404 
L 192.093433 244.747669 
L 193.39989 244.506989 
L 195.141833 243.88848 
L 196.012804 243.496035 
L 198.190232 240.73674 
L 199.496689 240.804218 
L 200.803146 240.680955 
L 202.545088 240.309704 
L 204.722517 239.586689 
L 206.464459 237.785486 
L 206.899945 237.379643 
L 208.206402 237.623977 
L 209.948344 237.708995 
L 211.254801 237.582321 
L 212.996744 237.256624 
L 213.432229 237.130681 
L 215.609658 234.059574 
L 216.916115 234.23984 
L 218.222572 234.197697 
L 219.529028 233.947273 
L 221.270971 233.31293 
L 222.141942 232.891253 
L 224.31937 229.915395 
L 225.625827 230.127086 
L 226.932284 230.110277 
L 228.238741 229.897612 
L 229.980684 229.342683 
L 230.851655 228.952918 
L 233.029083 225.638939 
L 234.33554 225.88985 
L 235.641997 225.946366 
L 236.948454 225.820667 
L 239.561368 225.24284 
L 241.30331 223.310335 
L 241.738796 222.880862 
L 242.609767 223.046269 
L 243.916224 223.030922 
L 245.658167 222.764907 
L 246.964624 222.377091 
L 248.271081 221.838971 
L 250.448509 218.611471 
L 251.754966 218.971273 
L 253.932394 219.473583 
L 255.674337 219.926198 
L 256.980794 220.155672 
L 259.158222 217.617082 
L 260.900164 218.137906 
L 263.077593 218.548621 
L 265.255021 218.71013 
L 265.690506 218.728644 
L 267.867935 215.563506 
L 269.609877 215.893345 
L 272.222791 216.130371 
L 274.400219 216.113806 
L 276.577647 212.748183 
L 277.884104 213.215901 
L 280.061533 213.775945 
L 282.238961 213.997624 
L 283.109932 213.971559 
L 285.28736 210.533585 
L 286.593817 211.021766 
L 288.771245 211.482177 
L 290.077702 211.547706 
L 290.948674 211.408121 
L 291.819645 211.102643 
L 293.997073 207.673195 
L 295.30353 208.190365 
L 297.045473 208.666122 
L 299.222901 208.883417 
L 300.529358 208.825195 
L 301.835815 206.545799 
L 302.706786 205.194532 
L 304.013243 205.726561 
L 306.190671 206.33557 
L 308.368099 206.641048 
L 309.239071 206.533863 
L 310.545527 204.459581 
L 311.416499 203.262027 
L 313.158441 204.020608 
L 314.464898 204.424989 
L 317.077812 204.987956 
L 317.948783 205.073705 
L 319.25524 203.001615 
L 320.126212 201.796022 
L 321.432668 202.378478 
L 323.174611 202.952163 
L 324.045582 203.109288 
L 324.916554 203.101249 
L 326.223011 202.743639 
L 326.658496 202.605272 
L 327.964953 200.686166 
L 328.835924 199.562424 
L 330.142381 200.079593 
L 331.884324 200.560223 
L 335.368209 201.208451 
L 336.674666 199.359258 
L 337.545637 198.302507 
L 338.416608 198.582651 
L 339.723065 198.647693 
L 341.900494 198.488377 
L 343.206951 198.38655 
L 344.077922 198.482043 
L 345.384379 196.811899 
L 346.25535 195.864526 
L 347.561807 196.376336 
L 349.739235 196.937354 
L 352.352149 197.417984 
L 352.787635 197.567069 
L 354.094092 195.872808 
L 354.965063 194.929576 
L 356.27152 195.499851 
L 358.013462 196.040407 
L 359.319919 196.381208 
L 360.626376 197.043322 
L 361.497347 197.653305 
L 363.674776 195.14687 
L 364.981233 195.776098 
L 367.158661 196.547589 
L 368.029632 196.880351 
L 369.336089 197.641124 
L 370.20706 198.204822 
L 371.949003 196.263304 
L 372.384488 195.765866 
L 374.126431 196.63285 
L 375.868374 197.266219 
L 376.739345 197.567313 
L 378.045802 198.285942 
L 378.916773 198.80165 
L 380.22323 197.291554 
L 381.094201 196.344911 
L 383.271629 197.544901 
L 385.449058 198.700068 
L 387.626486 200.268873 
L 389.803914 197.331748 
L 391.110371 198.051596 
L 394.158771 199.569975 
L 395.900713 200.660831 
L 396.336199 200.851329 
L 398.513627 197.596058 
L 399.384598 198.139537 
L 399.384598 198.139537 
" clip-path="url(#p955383f640)" style="fill: none; stroke: #1f77b4; stroke-opacity: 0.8; stroke-width: 1.5; stroke-linecap: square"/>
   </g>
   <g id="line2d_16">
    <path d="M 144.190013 257.91394 
L 145.931955 255.769744 
L 146.802926 255.67961 
L 148.109383 255.300076 
L 149.41584 254.642347 
L 150.722297 253.695218 
L 152.028754 252.494741 
L 153.335211 251.03239 
L 154.641668 249.312307 
L 155.512639 249.253112 
L 156.819096 248.922542 
L 158.125553 248.30379 
L 158.996524 247.731565 
L 160.738467 246.185415 
L 161.609438 245.2244 
L 163.351381 242.798842 
L 164.222352 242.768879 
L 165.528809 242.474119 
L 166.835266 241.905062 
L 167.706237 241.371327 
L 169.44818 239.913361 
L 170.319151 238.947474 
L 172.061094 236.430808 
L 172.932065 236.427398 
L 174.238522 236.181359 
L 175.544979 235.669061 
L 176.851436 234.875401 
L 178.157893 233.844472 
L 178.593378 233.459335 
L 180.335321 230.967517 
L 180.770806 230.297365 
L 181.641778 230.367035 
L 182.948235 230.268132 
L 184.690177 229.80553 
L 185.996634 229.194816 
L 187.303091 228.426978 
L 189.045034 225.858669 
L 189.480519 225.174387 
L 190.786976 225.335653 
L 192.093433 225.283521 
L 193.39989 225.036508 
L 194.706347 224.519338 
L 196.012804 223.854545 
L 197.754746 221.142265 
L 198.190232 220.406583 
L 199.061203 220.561759 
L 200.36766 220.573695 
L 201.674117 220.34617 
L 202.545088 220.03387 
L 204.722517 218.784916 
L 206.464459 215.662896 
L 206.899945 214.812234 
L 207.770916 214.984461 
L 209.077373 214.952062 
L 210.38383 214.64025 
L 211.254801 214.258036 
L 212.996744 213.061213 
L 213.432229 212.702629 
L 214.738686 210.006915 
L 215.609658 208.019843 
L 216.480629 208.103642 
L 217.3516 207.983546 
L 218.222572 207.695851 
L 219.529028 206.971862 
L 220.4 206.207678 
L 221.706457 204.769688 
L 222.141942 204.219144 
L 223.883885 200.155354 
L 224.31937 199.039164 
L 225.190342 199.233316 
L 226.496799 199.183133 
L 227.803256 198.76511 
L 228.674227 198.269621 
L 229.980684 197.179253 
L 230.851655 196.263061 
L 232.593598 191.741783 
L 233.029083 190.507933 
L 233.900055 190.740087 
L 234.771026 190.745446 
L 235.641997 190.585886 
L 236.512968 190.265791 
L 237.38394 189.708183 
L 238.690397 188.472627 
L 239.561368 187.462891 
L 240.867825 183.81006 
L 241.738796 181.139437 
L 242.609767 181.389374 
L 243.916224 181.322627 
L 245.658167 180.78743 
L 246.964624 180.158203 
L 247.835595 179.487563 
L 248.271081 179.039089 
L 250.013023 174.228411 
L 250.448509 172.950225 
L 251.31948 173.223304 
L 252.190452 173.216727 
L 253.061423 173.016241 
L 253.932394 172.607475 
L 254.803365 171.929771 
L 256.109822 170.451829 
L 256.980794 169.238198 
L 258.722736 163.376859 
L 259.158222 161.778578 
L 260.029193 162.061888 
L 260.900164 162.043618 
L 261.771136 161.795143 
L 262.642107 161.329617 
L 263.513078 160.576882 
L 264.819535 158.917213 
L 265.690506 157.51284 
L 266.996963 152.760627 
L 267.867935 149.296588 
L 268.738906 149.600361 
L 269.609877 149.597682 
L 270.480848 149.336783 
L 271.35182 148.846409 
L 272.222791 148.064443 
L 273.529248 146.396734 
L 274.400219 145.024273 
L 276.142162 138.496436 
L 276.577647 136.718619 
L 277.448619 137.049432 
L 278.31959 137.063805 
L 279.190561 136.850408 
L 280.061533 136.398281 
L 280.932504 135.650662 
L 282.238961 134.011212 
L 283.109932 132.676997 
L 284.851875 126.116516 
L 285.28736 124.355995 
L 286.158332 124.744542 
L 287.029303 124.833701 
L 287.900274 124.721157 
L 288.771245 124.376214 
L 289.642217 123.741384 
L 291.384159 121.7224 
L 291.819645 121.120213 
L 293.561587 114.363388 
L 293.997073 112.56925 
L 294.868044 113.055482 
L 296.174501 113.303957 
L 297.045473 113.22235 
L 297.916444 112.925398 
L 298.787415 112.293978 
L 299.658386 111.511524 
L 300.529358 110.538816 
L 302.2713 103.664331 
L 302.706786 101.838281 
L 303.577757 102.395401 
L 304.884214 102.791988 
L 306.190671 102.795885 
L 307.061642 102.534255 
L 308.368099 101.711607 
L 309.239071 100.994195 
L 311.416499 92.348471 
L 312.28747 92.98525 
L 313.593927 93.54237 
L 314.900384 93.733112 
L 315.771355 93.614964 
L 317.948783 92.801085 
L 320.126212 85.245486 
L 320.997183 85.959487 
L 322.30364 86.651564 
L 323.610097 87.037919 
L 324.481068 87.063497 
L 326.658496 86.404794 
L 328.835924 77.497439 
L 329.706896 78.266007 
L 330.577867 78.674043 
L 331.448838 78.804371 
L 332.755295 78.769048 
L 333.626266 78.552485 
L 334.932723 77.983184 
L 335.368209 77.716438 
L 337.545637 68.702142 
L 338.416608 69.564254 
L 340.158551 70.844146 
L 341.465008 71.546698 
L 342.771465 71.830495 
L 344.077922 71.961798 
L 346.25535 62.913884 
L 347.126321 63.868809 
L 349.303749 65.749426 
L 350.610206 66.580844 
L 352.787635 67.487049 
L 354.965063 58.202596 
L 355.836034 59.214768 
L 357.577977 60.858847 
L 358.884434 61.845927 
L 360.190891 62.438127 
L 361.497347 62.939949 
L 363.674776 53.498373 
L 364.545747 54.528084 
L 366.723175 56.615277 
L 368.029632 57.549739 
L 370.20706 58.438648 
L 372.384488 49.002674 
L 373.25546 50.053091 
L 375.432888 52.190954 
L 376.739345 53.144417 
L 378.916773 54.121997 
L 381.094201 44.362518 
L 381.965173 45.436078 
L 383.707115 47.205369 
L 385.013572 48.327406 
L 386.320029 49.051638 
L 387.626486 49.687686 
L 389.803914 39.852934 
L 390.674885 40.938187 
L 392.416828 42.70699 
L 393.723285 43.808077 
L 395.029742 44.501859 
L 396.336199 45.012939 
L 398.513627 34.990125 
L 399.384598 36.116059 
L 399.384598 36.116059 
" clip-path="url(#p955383f640)" style="fill: none; stroke: #ff7f0e; stroke-opacity: 0.8; stroke-width: 1.5; stroke-linecap: square"/>
   </g>
   <g id="line2d_17">
    <path d="M 144.190013 287.538293 
L 211.690287 286.855717 
L 399.384598 285.328811 
L 399.384598 285.328811 
" clip-path="url(#p955383f640)" style="fill: none; stroke: #2ca02c; stroke-opacity: 0.8; stroke-width: 1.5; stroke-linecap: square"/>
   </g>
   <g id="line2d_18">
    <path d="M 144.190013 282.957577 
L 146.367441 282.579748 
L 149.41584 282.349299 
L 152.46424 281.896928 
L 155.512639 281.413619 
L 158.125553 281.209236 
L 161.173953 280.751993 
L 163.786866 280.268684 
L 167.706237 280.036286 
L 170.319151 279.709614 
L 172.496579 279.350786 
L 177.286921 279.149327 
L 179.464349 278.975394 
L 181.641778 278.780755 
L 185.125663 278.645068 
L 187.738577 278.408529 
L 189.916005 278.082344 
L 193.835376 277.943734 
L 196.448289 277.714016 
L 198.625718 277.410243 
L 206.028974 277.519864 
L 208.206402 277.540083 
L 223.448399 278.165413 
L 225.190342 278.131308 
L 229.545198 278.365898 
L 231.287141 278.421683 
L 233.464569 278.286727 
L 238.690397 278.666261 
L 239.996854 278.721316 
L 242.174282 278.619733 
L 246.964624 279.037756 
L 248.706566 279.123505 
L 250.883995 278.98733 
L 257.851765 279.210715 
L 259.593707 279.111324 
L 262.206621 279.180264 
L 266.125992 279.038 
L 268.30342 278.685506 
L 270.916334 278.669672 
L 274.400219 278.456762 
L 276.577647 277.7927 
L 278.755076 277.843613 
L 282.674446 277.67577 
L 283.545418 277.479426 
L 285.28736 276.874803 
L 287.029303 276.829249 
L 289.206731 276.577606 
L 291.384159 276.152519 
L 293.561587 275.517201 
L 293.997073 275.382732 
L 295.739016 275.276765 
L 297.916444 274.882858 
L 300.093872 274.234874 
L 302.2713 273.351812 
L 302.706786 273.156929 
L 304.448728 273.150108 
L 307.061642 272.874593 
L 309.239071 272.448531 
L 311.416499 271.621985 
L 313.158441 271.607125 
L 315.335869 271.384228 
L 317.948783 270.82394 
L 320.126212 269.884362 
L 321.868154 269.847578 
L 323.610097 269.61445 
L 325.787525 269.069996 
L 327.093982 268.594726 
L 328.835924 267.70192 
L 330.577867 267.646135 
L 332.755295 267.377928 
L 334.497238 266.914594 
L 335.803695 266.37818 
L 337.545637 265.351148 
L 338.852094 265.331173 
L 340.594037 265.125815 
L 342.335979 264.663213 
L 344.513407 263.78283 
L 346.25535 262.943373 
L 347.561807 262.947515 
L 349.303749 262.719502 
L 351.045692 262.288811 
L 352.787635 261.668354 
L 354.965063 260.045956 
L 356.27152 260.119768 
L 358.013462 259.993338 
L 359.755405 259.639626 
L 361.497347 259.107596 
L 363.674776 257.792869 
L 364.981233 257.851577 
L 366.723175 257.697376 
L 368.465118 257.333433 
L 369.771575 256.888126 
L 370.20706 256.701283 
L 372.384488 254.775111 
L 373.690945 254.836499 
L 375.432888 254.670118 
L 378.916773 253.987055 
L 381.094201 252.905212 
L 382.400658 253.008013 
L 384.142601 252.930303 
L 385.884543 252.616542 
L 387.626486 251.989751 
L 389.803914 249.821438 
L 391.110371 249.900366 
L 392.416828 249.771743 
L 394.158771 249.357617 
L 395.465227 248.816575 
L 396.336199 248.370537 
L 398.513627 245.989071 
L 399.384598 246.07214 
L 399.384598 246.07214 
" clip-path="url(#p955383f640)" style="fill: none; stroke: #d62728; stroke-opacity: 0.8; stroke-width: 1.5; stroke-linecap: square"/>
   </g>
   <g id="line2d_19">
    <path d="M 144.190013 272.647554 
L 145.931955 271.620036 
L 147.238412 271.544275 
L 148.980355 271.228322 
L 150.722297 270.682894 
L 152.46424 269.899222 
L 155.077154 268.53139 
L 156.819096 268.348443 
L 158.561039 267.941626 
L 160.302981 267.304116 
L 161.609438 266.62763 
L 163.351381 265.440551 
L 164.657838 265.413024 
L 166.39978 265.156509 
L 168.141723 264.659072 
L 169.883665 263.922415 
L 171.625608 262.637895 
L 172.061094 262.277362 
L 173.36755 262.291735 
L 175.109493 262.09539 
L 176.851436 261.682483 
L 178.593378 261.043511 
L 180.770806 259.261553 
L 182.077263 259.324159 
L 183.819206 259.142675 
L 185.561148 258.697124 
L 187.303091 257.955109 
L 189.480519 255.737588 
L 190.786976 255.808964 
L 192.093433 255.695201 
L 193.835376 255.293012 
L 195.577318 254.592652 
L 196.012804 254.375845 
L 198.190232 252.108386 
L 199.932175 252.254061 
L 201.674117 252.200468 
L 203.851545 251.848461 
L 204.722517 251.625808 
L 206.899945 249.855055 
L 208.641887 249.965895 
L 210.819316 249.832644 
L 212.996744 249.407069 
L 213.432229 249.279421 
L 215.609658 247.403188 
L 216.916115 247.486988 
L 218.658057 247.37493 
L 220.4 247.047284 
L 222.141942 246.522562 
L 224.31937 244.458512 
L 226.061313 244.621239 
L 227.803256 244.57398 
L 229.980684 244.250962 
L 230.851655 244.036103 
L 233.029083 241.947205 
L 234.33554 242.115291 
L 236.512968 242.137216 
L 238.254911 241.954757 
L 239.561368 241.672421 
L 241.738796 239.494364 
L 243.045253 239.678528 
L 244.787196 239.705568 
L 246.964624 239.474875 
L 248.271081 239.174025 
L 250.448509 236.745544 
L 251.754966 236.96503 
L 253.932394 237.129706 
L 256.545308 237.016918 
L 256.980794 236.972582 
L 259.158222 234.72997 
L 260.464679 234.9821 
L 263.513078 235.246409 
L 265.255021 235.146045 
L 265.690506 235.098298 
L 267.867935 232.630353 
L 269.609877 233.106354 
L 273.529248 233.90854 
L 274.400219 234.02888 
L 276.577647 231.655697 
L 278.31959 232.181636 
L 283.109932 233.357753 
L 284.851875 231.954841 
L 285.28736 231.649606 
L 286.593817 231.891261 
L 288.771245 232.069579 
L 291.384159 232.064219 
L 291.819645 232.014524 
L 293.997073 229.488114 
L 295.739016 229.826967 
L 297.916444 230.033055 
L 300.093872 230.04621 
L 300.529358 230.016977 
L 302.706786 227.509568 
L 304.448728 227.971197 
L 306.626157 228.334409 
L 308.368099 228.500059 
L 309.239071 228.496405 
L 311.416499 225.888145 
L 313.593927 226.452817 
L 315.771355 226.835031 
L 317.948783 226.946358 
L 320.126212 224.32007 
L 322.30364 224.922258 
L 325.352039 225.52006 
L 326.658496 225.744906 
L 328.835924 223.327631 
L 330.577867 223.895226 
L 335.368209 225.217505 
L 337.545637 222.540792 
L 339.28758 223.054064 
L 341.029522 223.385852 
L 343.642436 223.593402 
L 344.077922 223.58853 
L 346.25535 220.676983 
L 347.997293 221.2095 
L 352.787635 222.115217 
L 354.965063 219.144231 
L 356.27152 219.569319 
L 358.448948 220.019741 
L 361.061862 220.27114 
L 361.497347 220.257255 
L 363.674776 217.0166 
L 365.852204 217.745217 
L 367.158661 218.023656 
L 368.465118 217.981513 
L 369.771575 217.668239 
L 370.20706 217.487485 
L 372.384488 214.371799 
L 374.126431 214.966922 
L 375.868374 215.301389 
L 378.481287 215.528184 
L 378.916773 215.52185 
L 381.094201 212.173279 
L 382.400658 212.604213 
L 384.142601 212.928449 
L 386.755515 213.085817 
L 387.626486 213.006159 
L 389.803914 209.44005 
L 391.110371 209.895345 
L 392.852314 210.292662 
L 395.900713 210.624693 
L 396.336199 210.620552 
L 398.513627 207.171129 
L 399.384598 207.473928 
L 399.384598 207.473928 
" clip-path="url(#p955383f640)" style="fill: none; stroke: #9467bd; stroke-opacity: 0.8; stroke-width: 1.5; stroke-linecap: square"/>
   </g>
   <g id="patch_3">
    <path d="M 59.270313 288.430125 
L 59.270313 22.318125 
" style="fill: none; stroke: #000000; stroke-width: 0.8; stroke-linejoin: miter; stroke-linecap: square"/>
   </g>
   <g id="patch_4">
    <path d="M 416.390313 288.430125 
L 416.390313 22.318125 
" style="fill: none; stroke: #000000; stroke-width: 0.8; stroke-linejoin: miter; stroke-linecap: square"/>
   </g>
   <g id="patch_5">
    <path d="M 59.270313 288.430125 
L 416.390313 288.430125 
" style="fill: none; stroke: #000000; stroke-width: 0.8; stroke-linejoin: miter; stroke-linecap: square"/>
   </g>
   <g id="patch_6">
    <path d="M 59.270313 22.318125 
L 416.390313 22.318125 
" style="fill: none; stroke: #000000; stroke-width: 0.8; stroke-linejoin: miter; stroke-linecap: square"/>
   </g>
   <g id="text_17">
    <!-- Table disk usage (including indexes) -->
    <g transform="translate(129.447813 16.318125) scale(0.12 -0.12)">
     <defs>
      <path id="DejaVuSans-54" d="M -19 4666 
L 3928 4666 
L 3928 4134 
L 2272 4134 
L 2272 0 
L 1638 0 
L 1638 4134 
L -19 4134 
L -19 4666 
z
" transform="scale(0.015625)"/>
      <path id="DejaVuSans-64" d="M 2906 2969 
L 2906 4863 
L 3481 4863 
L 3481 0 
L 2906 0 
L 2906 525 
Q 2725 213 2448 61 
Q 2172 -91 1784 -91 
Q 1150 -91 751 415 
Q 353 922 353 1747 
Q 353 2572 751 3078 
Q 1150 3584 1784 3584 
Q 2172 3584 2448 3432 
Q 2725 3281 2906 2969 
z
M 947 1747 
Q 947 1113 1208 752 
Q 1469 391 1925 391 
Q 2381 391 2643 752 
Q 2906 1113 2906 1747 
Q 2906 2381 2643 2742 
Q 2381 3103 1925 3103 
Q 1469 3103 1208 2742 
Q 947 2381 947 1747 
z
" transform="scale(0.015625)"/>
      <path id="DejaVuSans-78" d="M 3513 3500 
L 2247 1797 
L 3578 0 
L 2900 0 
L 1881 1375 
L 863 0 
L 184 0 
L 1544 1831 
L 300 3500 
L 978 3500 
L 1906 2253 
L 2834 3500 
L 3513 3500 
z
" transform="scale(0.015625)"/>
     </defs>
     <use xlink:href="#DejaVuSans-54"/>
     <use xlink:href="#DejaVuSans-61" transform="translate(44.583984 0)"/>
     <use xlink:href="#DejaVuSans-62" transform="translate(105.863281 0)"/>
     <use xlink:href="#DejaVuSans-6c" transform="translate(169.339844 0)"/>
     <use xlink:href="#DejaVuSans-65" transform="translate(197.123047 0)"/>
     <use xlink:href="#DejaVuSans-20" transform="translate(258.646484 0)"/>
     <use xlink:href="#DejaVuSans-64" transform="translate(290.433594 0)"/>
     <use xlink:href="#DejaVuSans-69" transform="translate(353.910156 0)"/>
     <use xlink:href="#DejaVuSans-73" transform="translate(381.693359 0)"/>
     <use xlink:href="#DejaVuSans-6b" transform="translate(433.792969 0)"/>
     <use xlink:href="#DejaVuSans-20" transform="translate(491.703125 0)"/>
     <use xlink:href="#DejaVuSans-75" transform="translate(523.490234 0)"/>
     <use xlink:href="#DejaVuSans-73" transform="translate(586.869141 0)"/>
     <use xlink:href="#DejaVuSans-61" transform="translate(638.96875 0)"/>
     <use xlink:href="#DejaVuSans-67" transform="translate(700.248047 0)"/>
     <use xlink:href="#DejaVuSans-65" transform="translate(763.724609 0)"/>
     <use xlink:href="#DejaVuSans-20" transform="translate(825.248047 0)"/>
     <use xlink:href="#DejaVuSans-28" transform="translate(857.035156 0)"/>
     <use xlink:href="#DejaVuSans-69" transform="translate(896.048828 0)"/>
     <use xlink:href="#DejaVuSans-6e" transform="translate(923.832031 0)"/>
     <use xlink:href="#DejaVuSans-63" transform="translate(987.210938 0)"/>
     <use xlink:href="#DejaVuSans-6c" transform="translate(1042.191406 0)"/>
     <use xlink:href="#DejaVuSans-75" transform="translate(1069.974609 0)"/>
     <use xlink:href="#DejaVuSans-64" transform="translate(1133.353516 0)"/>
     <use xlink:href="#DejaVuSans-69" transform="translate(1196.830078 0)"/>
     <use xlink:href="#DejaVuSans-6e" transform="translate(1224.613281 0)"/>
     <use xlink:href="#DejaVuSans-67" transform="translate(1287.992188 0)"/>
     <use xlink:href="#DejaVuSans-20" transform="translate(1351.46875 0)"/>
     <use xlink:href="#DejaVuSans-69" transform="translate(1383.255859 0)"/>
     <use xlink:href="#DejaVuSans-6e" transform="translate(1411.039062 0)"/>
     <use xlink:href="#DejaVuSans-64" transform="translate(1474.417969 0)"/>
     <use xlink:href="#DejaVuSans-65" transform="translate(1537.894531 0)"/>
     <use xlink:href="#DejaVuSans-78" transform="translate(1597.667969 0)"/>
     <use xlink:href="#DejaVuSans-65" transform="translate(1653.722656 0)"/>
     <use xlink:href="#DejaVuSans-73" transform="translate(1715.246094 0)"/>
     <use xlink:href="#DejaVuSans-29" transform="translate(1767.345703 0)"/>
    </g>
   </g>
   <g id="legend_1">
    <g id="patch_7">
     <path d="M 90.272656 365.802375 
L 377.867969 365.802375 
Q 379.867969 365.802375 379.867969 363.802375 
L 379.867969 335.446125 
Q 379.867969 333.446125 377.867969 333.446125 
L 90.272656 333.446125 
Q 88.272656 333.446125 88.272656 335.446125 
L 88.272656 363.802375 
Q 88.272656 365.802375 90.272656 365.802375 
z
" style="fill: #4d4d4d; opacity: 0.5; stroke: #4d4d4d; stroke-linejoin: miter"/>
    </g>
    <g id="patch_8">
     <path d="M 88.272656 363.802375 
L 375.867969 363.802375 
Q 377.867969 363.802375 377.867969 361.802375 
L 377.867969 333.446125 
Q 377.867969 331.446125 375.867969 331.446125 
L 88.272656 331.446125 
Q 86.272656 331.446125 86.272656 333.446125 
L 86.272656 361.802375 
Q 86.272656 363.802375 88.272656 363.802375 
z
" style="fill: #ffffff; stroke: #cccccc; stroke-linejoin: miter"/>
    </g>
    <g id="line2d_20">
     <path d="M 90.272656 339.544562 
L 100.272656 339.544562 
L 110.272656 339.544562 
" style="fill: none; stroke: #1f77b4; stroke-opacity: 0.8; stroke-width: 1.5; stroke-linecap: square"/>
    </g>
    <g id="text_18">
     <!-- MPTT -->
     <g transform="translate(118.272656 343.044562) scale(0.1 -0.1)">
      <defs>
       <path id="DejaVuSans-50" d="M 1259 4147 
L 1259 2394 
L 2053 2394 
Q 2494 2394 2734 2622 
Q 2975 2850 2975 3272 
Q 2975 3691 2734 3919 
Q 2494 4147 2053 4147 
L 1259 4147 
z
M 628 4666 
L 2053 4666 
Q 2838 4666 3239 4311 
Q 3641 3956 3641 3272 
Q 3641 2581 3239 2228 
Q 2838 1875 2053 1875 
L 1259 1875 
L 1259 0 
L 628 0 
L 628 4666 
z
" transform="scale(0.015625)"/>
      </defs>
      <use xlink:href="#DejaVuSans-4d"/>
      <use xlink:href="#DejaVuSans-50" transform="translate(86.279297 0)"/>
      <use xlink:href="#DejaVuSans-54" transform="translate(146.582031 0)"/>
      <use xlink:href="#DejaVuSans-54" transform="translate(205.916016 0)"/>
     </g>
    </g>
    <g id="line2d_21">
     <path d="M 90.272656 354.222687 
L 100.272656 354.222687 
L 110.272656 354.222687 
" style="fill: none; stroke: #ff7f0e; stroke-opacity: 0.8; stroke-width: 1.5; stroke-linecap: square"/>
    </g>
    <g id="text_19">
     <!-- tree -->
     <g transform="translate(118.272656 357.722687) scale(0.1 -0.1)">
      <defs>
       <path id="DejaVuSans-72" d="M 2631 2963 
Q 2534 3019 2420 3045 
Q 2306 3072 2169 3072 
Q 1681 3072 1420 2755 
Q 1159 2438 1159 1844 
L 1159 0 
L 581 0 
L 581 3500 
L 1159 3500 
L 1159 2956 
Q 1341 3275 1631 3429 
Q 1922 3584 2338 3584 
Q 2397 3584 2469 3576 
Q 2541 3569 2628 3553 
L 2631 2963 
z
" transform="scale(0.015625)"/>
      </defs>
      <use xlink:href="#DejaVuSans-74"/>
      <use xlink:href="#DejaVuSans-72" transform="translate(39.208984 0)"/>
      <use xlink:href="#DejaVuSans-65" transform="translate(78.072266 0)"/>
      <use xlink:href="#DejaVuSans-65" transform="translate(139.595703 0)"/>
     </g>
    </g>
    <g id="line2d_22">
     <path d="M 164.971094 339.544562 
L 174.971094 339.544562 
L 184.971094 339.544562 
" style="fill: none; stroke: #2ca02c; stroke-opacity: 0.8; stroke-width: 1.5; stroke-linecap: square"/>
    </g>
    <g id="text_20">
     <!-- treebeard AL -->
     <g transform="translate(192.971094 343.044562) scale(0.1 -0.1)">
      <defs>
       <path id="DejaVuSans-4c" d="M 628 4666 
L 1259 4666 
L 1259 531 
L 3531 531 
L 3531 0 
L 628 0 
L 628 4666 
z
" transform="scale(0.015625)"/>
      </defs>
      <use xlink:href="#DejaVuSans-74"/>
      <use xlink:href="#DejaVuSans-72" transform="translate(39.208984 0)"/>
      <use xlink:href="#DejaVuSans-65" transform="translate(78.072266 0)"/>
      <use xlink:href="#DejaVuSans-65" transform="translate(139.595703 0)"/>
      <use xlink:href="#DejaVuSans-62" transform="translate(201.119141 0)"/>
      <use xlink:href="#DejaVuSans-65" transform="translate(264.595703 0)"/>
      <use xlink:href="#DejaVuSans-61" transform="translate(326.119141 0)"/>
      <use xlink:href="#DejaVuSans-72" transform="translate(387.398438 0)"/>
      <use xlink:href="#DejaVuSans-64" transform="translate(426.761719 0)"/>
      <use xlink:href="#DejaVuSans-20" transform="translate(490.238281 0)"/>
      <use xlink:href="#DejaVuSans-41" transform="translate(522.025391 0)"/>
      <use xlink:href="#DejaVuSans-4c" transform="translate(590.433594 0)"/>
     </g>
    </g>
    <g id="line2d_23">
     <path d="M 164.971094 354.222687 
L 174.971094 354.222687 
L 184.971094 354.222687 
" style="fill: none; stroke: #d62728; stroke-opacity: 0.8; stroke-width: 1.5; stroke-linecap: square"/>
    </g>
    <g id="text_21">
     <!-- treebeard MP -->
     <g transform="translate(192.971094 357.722687) scale(0.1 -0.1)">
      <use xlink:href="#DejaVuSans-74"/>
      <use xlink:href="#DejaVuSans-72" transform="translate(39.208984 0)"/>
      <use xlink:href="#DejaVuSans-65" transform="translate(78.072266 0)"/>
      <use xlink:href="#DejaVuSans-65" transform="translate(139.595703 0)"/>
      <use xlink:href="#DejaVuSans-62" transform="translate(201.119141 0)"/>
      <use xlink:href="#DejaVuSans-65" transform="translate(264.595703 0)"/>
      <use xlink:href="#DejaVuSans-61" transform="translate(326.119141 0)"/>
      <use xlink:href="#DejaVuSans-72" transform="translate(387.398438 0)"/>
      <use xlink:href="#DejaVuSans-64" transform="translate(426.761719 0)"/>
      <use xlink:href="#DejaVuSans-20" transform="translate(490.238281 0)"/>
      <use xlink:href="#DejaVuSans-4d" transform="translate(522.025391 0)"/>
      <use xlink:href="#DejaVuSans-50" transform="translate(608.304688 0)"/>
     </g>
    </g>
    <g id="line2d_24">
     <path d="M 279.833594 339.544562 
L 289.833594 339.544562 
L 299.833594 339.544562 
" style="fill: none; stroke: #9467bd; stroke-opacity: 0.8; stroke-width: 1.5; stroke-linecap: square"/>
    </g>
    <g id="text_22">
     <!-- treebeard NS -->
     <g transform="translate(307.833594 343.044562) scale(0.1 -0.1)">
      <defs>
       <path id="DejaVuSans-4e" d="M 628 4666 
L 1478 4666 
L 3547 763 
L 3547 4666 
L 4159 4666 
L 4159 0 
L 3309 0 
L 1241 3903 
L 1241 0 
L 628 0 
L 628 4666 
z
" transform="scale(0.015625)"/>
       <path id="DejaVuSans-53" d="M 3425 4513 
L 3425 3897 
Q 3066 4069 2747 4153 
Q 2428 4238 2131 4238 
Q 1616 4238 1336 4038 
Q 1056 3838 1056 3469 
Q 1056 3159 1242 3001 
Q 1428 2844 1947 2747 
L 2328 2669 
Q 3034 2534 3370 2195 
Q 3706 1856 3706 1288 
Q 3706 609 3251 259 
Q 2797 -91 1919 -91 
Q 1588 -91 1214 -16 
Q 841 59 441 206 
L 441 856 
Q 825 641 1194 531 
Q 1563 422 1919 422 
Q 2459 422 2753 634 
Q 3047 847 3047 1241 
Q 3047 1584 2836 1778 
Q 2625 1972 2144 2069 
L 1759 2144 
Q 1053 2284 737 2584 
Q 422 2884 422 3419 
Q 422 4038 858 4394 
Q 1294 4750 2059 4750 
Q 2388 4750 2728 4690 
Q 3069 4631 3425 4513 
z
" transform="scale(0.015625)"/>
      </defs>
      <use xlink:href="#DejaVuSans-74"/>
      <use xlink:href="#DejaVuSans-72" transform="translate(39.208984 0)"/>
      <use xlink:href="#DejaVuSans-65" transform="translate(78.072266 0)"/>
      <use xlink:href="#DejaVuSans-65" transform="translate(139.595703 0)"/>
      <use xlink:href="#DejaVuSans-62" transform="translate(201.119141 0)"/>
      <use xlink:href="#DejaVuSans-65" transform="translate(264.595703 0)"/>
      <use xlink:href="#DejaVuSans-61" transform="translate(326.119141 0)"/>
      <use xlink:href="#DejaVuSans-72" transform="translate(387.398438 0)"/>
      <use xlink:href="#DejaVuSans-64" transform="translate(426.761719 0)"/>
      <use xlink:href="#DejaVuSans-20" transform="translate(490.238281 0)"/>
      <use xlink:href="#DejaVuSans-4e" transform="translate(522.025391 0)"/>
      <use xlink:href="#DejaVuSans-53" transform="translate(596.830078 0)"/>
     </g>
    </g>
   </g>
  </g>
 </g>
 <defs>
  <clipPath id="p955383f640">
   <rect x="59.270313" y="22.318125" width="357.12" height="266.112"/>
  </clipPath>
 </defs>
</svg>
