<?xml version="1.0" encoding="utf-8" standalone="no"?>
<!DOCTYPE svg PUBLIC "-//W3C//DTD SVG 1.1//EN"
  "http://www.w3.org/Graphics/SVG/1.1/DTD/svg11.dtd">
<!-- Created with matplotlib (https://matplotlib.org/) -->
<svg height="371.002375pt" version="1.1" viewBox="0 0 423.05125 371.002375" width="423.05125pt" xmlns="http://www.w3.org/2000/svg" xmlns:xlink="http://www.w3.org/1999/xlink">
 <metadata>
  <rdf:RDF xmlns:cc="http://creativecommons.org/ns#" xmlns:dc="http://purl.org/dc/elements/1.1/" xmlns:rdf="http://www.w3.org/1999/02/22-rdf-syntax-ns#">
   <cc:Work>
    <dc:type rdf:resource="http://purl.org/dc/dcmitype/StillImage"/>
    <dc:date>2023-07-03T20:37:48.395115</dc:date>
    <dc:format>image/svg+xml</dc:format>
    <dc:creator>
     <cc:Agent>
      <dc:title>Matplotlib v3.3.4, https://matplotlib.org/</dc:title>
     </cc:Agent>
    </dc:creator>
   </cc:Work>
  </rdf:RDF>
 </metadata>
 <defs>
  <style type="text/css">*{stroke-linecap:butt;stroke-linejoin:round;}</style>
 </defs>
 <g id="figure_1">
  <g id="patch_1">
   <path d="M 0 371.002375 
L 423.05125 371.002375 
L 423.05125 0 
L 0 0 
z
" style="fill:#ffffff;"/>
  </g>
  <g id="axes_1">
   <g id="patch_2">
    <path d="M 58.73125 288.430125 
L 415.85125 288.430125 
L 415.85125 22.318125 
L 58.73125 22.318125 
z
" style="fill:#ffffff;"/>
   </g>
   <g id="matplotlib.axis_1">
    <g id="xtick_1">
     <g id="line2d_1">
      <defs>
       <path d="M 0 0 
L 0 3.5 
" id="m8b216d6280" style="stroke:#000000;stroke-width:0.8;"/>
      </defs>
      <g>
       <use style="stroke:#000000;stroke-width:0.8;" x="58.73125" xlink:href="#m8b216d6280" y="288.430125"/>
      </g>
     </g>
     <g id="text_1">
      <!-- 0 -->
      <g transform="translate(55.55 303.028562)scale(0.1 -0.1)">
       <defs>
        <path d="M 31.78125 66.40625 
Q 24.171875 66.40625 20.328125 58.90625 
Q 16.5 51.421875 16.5 36.375 
Q 16.5 21.390625 20.328125 13.890625 
Q 24.171875 6.390625 31.78125 6.390625 
Q 39.453125 6.390625 43.28125 13.890625 
Q 47.125 21.390625 47.125 36.375 
Q 47.125 51.421875 43.28125 58.90625 
Q 39.453125 66.40625 31.78125 66.40625 
z
M 31.78125 74.21875 
Q 44.046875 74.21875 50.515625 64.515625 
Q 56.984375 54.828125 56.984375 36.375 
Q 56.984375 17.96875 50.515625 8.265625 
Q 44.046875 -1.421875 31.78125 -1.421875 
Q 19.53125 -1.421875 13.0625 8.265625 
Q 6.59375 17.96875 6.59375 36.375 
Q 6.59375 54.828125 13.0625 64.515625 
Q 19.53125 74.21875 31.78125 74.21875 
z
" id="DejaVuSans-48"/>
       </defs>
       <use xlink:href="#DejaVuSans-48"/>
      </g>
     </g>
    </g>
    <g id="xtick_2">
     <g id="line2d_2">
      <g>
       <use style="stroke:#000000;stroke-width:0.8;" x="102.279814" xlink:href="#m8b216d6280" y="288.430125"/>
      </g>
     </g>
     <g id="text_2">
      <!-- 500  -->
      <g transform="translate(91.147002 303.028562)scale(0.1 -0.1)">
       <defs>
        <path d="M 10.796875 72.90625 
L 49.515625 72.90625 
L 49.515625 64.59375 
L 19.828125 64.59375 
L 19.828125 46.734375 
Q 21.96875 47.46875 24.109375 47.828125 
Q 26.265625 48.1875 28.421875 48.1875 
Q 40.625 48.1875 47.75 41.5 
Q 54.890625 34.8125 54.890625 23.390625 
Q 54.890625 11.625 47.5625 5.09375 
Q 40.234375 -1.421875 26.90625 -1.421875 
Q 22.3125 -1.421875 17.546875 -0.640625 
Q 12.796875 0.140625 7.71875 1.703125 
L 7.71875 11.625 
Q 12.109375 9.234375 16.796875 8.0625 
Q 21.484375 6.890625 26.703125 6.890625 
Q 35.15625 6.890625 40.078125 11.328125 
Q 45.015625 15.765625 45.015625 23.390625 
Q 45.015625 31 40.078125 35.4375 
Q 35.15625 39.890625 26.703125 39.890625 
Q 22.75 39.890625 18.8125 39.015625 
Q 14.890625 38.140625 10.796875 36.28125 
z
" id="DejaVuSans-53"/>
        <path id="DejaVuSans-32"/>
       </defs>
       <use xlink:href="#DejaVuSans-53"/>
       <use x="63.623047" xlink:href="#DejaVuSans-48"/>
       <use x="127.246094" xlink:href="#DejaVuSans-48"/>
       <use x="190.869141" xlink:href="#DejaVuSans-32"/>
      </g>
     </g>
    </g>
    <g id="xtick_3">
     <g id="line2d_3">
      <g>
       <use style="stroke:#000000;stroke-width:0.8;" x="145.828378" xlink:href="#m8b216d6280" y="288.430125"/>
      </g>
     </g>
     <g id="text_3">
      <!-- 1 k -->
      <g transform="translate(138.162753 303.028562)scale(0.1 -0.1)">
       <defs>
        <path d="M 12.40625 8.296875 
L 28.515625 8.296875 
L 28.515625 63.921875 
L 10.984375 60.40625 
L 10.984375 69.390625 
L 28.421875 72.90625 
L 38.28125 72.90625 
L 38.28125 8.296875 
L 54.390625 8.296875 
L 54.390625 0 
L 12.40625 0 
z
" id="DejaVuSans-49"/>
        <path d="M 9.078125 75.984375 
L 18.109375 75.984375 
L 18.109375 31.109375 
L 44.921875 54.6875 
L 56.390625 54.6875 
L 27.390625 29.109375 
L 57.625 0 
L 45.90625 0 
L 18.109375 26.703125 
L 18.109375 0 
L 9.078125 0 
z
" id="DejaVuSans-107"/>
       </defs>
       <use xlink:href="#DejaVuSans-49"/>
       <use x="63.623047" xlink:href="#DejaVuSans-32"/>
       <use x="95.410156" xlink:href="#DejaVuSans-107"/>
      </g>
     </g>
    </g>
    <g id="xtick_4">
     <g id="line2d_4">
      <g>
       <use style="stroke:#000000;stroke-width:0.8;" x="189.376942" xlink:href="#m8b216d6280" y="288.430125"/>
      </g>
     </g>
     <g id="text_4">
      <!-- 1.5 k -->
      <g transform="translate(176.941005 303.028562)scale(0.1 -0.1)">
       <defs>
        <path d="M 10.6875 12.40625 
L 21 12.40625 
L 21 0 
L 10.6875 0 
z
" id="DejaVuSans-46"/>
       </defs>
       <use xlink:href="#DejaVuSans-49"/>
       <use x="63.623047" xlink:href="#DejaVuSans-46"/>
       <use x="95.410156" xlink:href="#DejaVuSans-53"/>
       <use x="159.033203" xlink:href="#DejaVuSans-32"/>
       <use x="190.820312" xlink:href="#DejaVuSans-107"/>
      </g>
     </g>
    </g>
    <g id="xtick_5">
     <g id="line2d_5">
      <g>
       <use style="stroke:#000000;stroke-width:0.8;" x="232.925506" xlink:href="#m8b216d6280" y="288.430125"/>
      </g>
     </g>
     <g id="text_5">
      <!-- 2 k -->
      <g transform="translate(225.259881 303.028562)scale(0.1 -0.1)">
       <defs>
        <path d="M 19.1875 8.296875 
L 53.609375 8.296875 
L 53.609375 0 
L 7.328125 0 
L 7.328125 8.296875 
Q 12.9375 14.109375 22.625 23.890625 
Q 32.328125 33.6875 34.8125 36.53125 
Q 39.546875 41.84375 41.421875 45.53125 
Q 43.3125 49.21875 43.3125 52.78125 
Q 43.3125 58.59375 39.234375 62.25 
Q 35.15625 65.921875 28.609375 65.921875 
Q 23.96875 65.921875 18.8125 64.3125 
Q 13.671875 62.703125 7.8125 59.421875 
L 7.8125 69.390625 
Q 13.765625 71.78125 18.9375 73 
Q 24.125 74.21875 28.421875 74.21875 
Q 39.75 74.21875 46.484375 68.546875 
Q 53.21875 62.890625 53.21875 53.421875 
Q 53.21875 48.921875 51.53125 44.890625 
Q 49.859375 40.875 45.40625 35.40625 
Q 44.1875 33.984375 37.640625 27.21875 
Q 31.109375 20.453125 19.1875 8.296875 
z
" id="DejaVuSans-50"/>
       </defs>
       <use xlink:href="#DejaVuSans-50"/>
       <use x="63.623047" xlink:href="#DejaVuSans-32"/>
       <use x="95.410156" xlink:href="#DejaVuSans-107"/>
      </g>
     </g>
    </g>
    <g id="xtick_6">
     <g id="line2d_6">
      <g>
       <use style="stroke:#000000;stroke-width:0.8;" x="276.474071" xlink:href="#m8b216d6280" y="288.430125"/>
      </g>
     </g>
     <g id="text_6">
      <!-- 2.5 k -->
      <g transform="translate(264.038133 303.028562)scale(0.1 -0.1)">
       <use xlink:href="#DejaVuSans-50"/>
       <use x="63.623047" xlink:href="#DejaVuSans-46"/>
       <use x="95.410156" xlink:href="#DejaVuSans-53"/>
       <use x="159.033203" xlink:href="#DejaVuSans-32"/>
       <use x="190.820312" xlink:href="#DejaVuSans-107"/>
      </g>
     </g>
    </g>
    <g id="xtick_7">
     <g id="line2d_7">
      <g>
       <use style="stroke:#000000;stroke-width:0.8;" x="320.022635" xlink:href="#m8b216d6280" y="288.430125"/>
      </g>
     </g>
     <g id="text_7">
      <!-- 3 k -->
      <g transform="translate(312.35701 303.028562)scale(0.1 -0.1)">
       <defs>
        <path d="M 40.578125 39.3125 
Q 47.65625 37.796875 51.625 33 
Q 55.609375 28.21875 55.609375 21.1875 
Q 55.609375 10.40625 48.1875 4.484375 
Q 40.765625 -1.421875 27.09375 -1.421875 
Q 22.515625 -1.421875 17.65625 -0.515625 
Q 12.796875 0.390625 7.625 2.203125 
L 7.625 11.71875 
Q 11.71875 9.328125 16.59375 8.109375 
Q 21.484375 6.890625 26.8125 6.890625 
Q 36.078125 6.890625 40.9375 10.546875 
Q 45.796875 14.203125 45.796875 21.1875 
Q 45.796875 27.640625 41.28125 31.265625 
Q 36.765625 34.90625 28.71875 34.90625 
L 20.21875 34.90625 
L 20.21875 43.015625 
L 29.109375 43.015625 
Q 36.375 43.015625 40.234375 45.921875 
Q 44.09375 48.828125 44.09375 54.296875 
Q 44.09375 59.90625 40.109375 62.90625 
Q 36.140625 65.921875 28.71875 65.921875 
Q 24.65625 65.921875 20.015625 65.03125 
Q 15.375 64.15625 9.8125 62.3125 
L 9.8125 71.09375 
Q 15.4375 72.65625 20.34375 73.4375 
Q 25.25 74.21875 29.59375 74.21875 
Q 40.828125 74.21875 47.359375 69.109375 
Q 53.90625 64.015625 53.90625 55.328125 
Q 53.90625 49.265625 50.4375 45.09375 
Q 46.96875 40.921875 40.578125 39.3125 
z
" id="DejaVuSans-51"/>
       </defs>
       <use xlink:href="#DejaVuSans-51"/>
       <use x="63.623047" xlink:href="#DejaVuSans-32"/>
       <use x="95.410156" xlink:href="#DejaVuSans-107"/>
      </g>
     </g>
    </g>
    <g id="xtick_8">
     <g id="line2d_8">
      <g>
       <use style="stroke:#000000;stroke-width:0.8;" x="363.571199" xlink:href="#m8b216d6280" y="288.430125"/>
      </g>
     </g>
     <g id="text_8">
      <!-- 3.5 k -->
      <g transform="translate(351.135261 303.028562)scale(0.1 -0.1)">
       <use xlink:href="#DejaVuSans-51"/>
       <use x="63.623047" xlink:href="#DejaVuSans-46"/>
       <use x="95.410156" xlink:href="#DejaVuSans-53"/>
       <use x="159.033203" xlink:href="#DejaVuSans-32"/>
       <use x="190.820312" xlink:href="#DejaVuSans-107"/>
      </g>
     </g>
    </g>
    <g id="xtick_9">
     <g id="line2d_9">
      <g>
       <use style="stroke:#000000;stroke-width:0.8;" x="407.119763" xlink:href="#m8b216d6280" y="288.430125"/>
      </g>
     </g>
     <g id="text_9">
      <!-- 4 k -->
      <g transform="translate(399.454138 303.028562)scale(0.1 -0.1)">
       <defs>
        <path d="M 37.796875 64.3125 
L 12.890625 25.390625 
L 37.796875 25.390625 
z
M 35.203125 72.90625 
L 47.609375 72.90625 
L 47.609375 25.390625 
L 58.015625 25.390625 
L 58.015625 17.1875 
L 47.609375 17.1875 
L 47.609375 0 
L 37.796875 0 
L 37.796875 17.1875 
L 4.890625 17.1875 
L 4.890625 26.703125 
z
" id="DejaVuSans-52"/>
       </defs>
       <use xlink:href="#DejaVuSans-52"/>
       <use x="63.623047" xlink:href="#DejaVuSans-32"/>
       <use x="95.410156" xlink:href="#DejaVuSans-107"/>
      </g>
     </g>
    </g>
    <g id="text_10">
     <!-- Amount of objects in table -->
     <g transform="translate(171.232656 316.706687)scale(0.1 -0.1)">
      <defs>
       <path d="M 34.1875 63.1875 
L 20.796875 26.90625 
L 47.609375 26.90625 
z
M 28.609375 72.90625 
L 39.796875 72.90625 
L 67.578125 0 
L 57.328125 0 
L 50.6875 18.703125 
L 17.828125 18.703125 
L 11.1875 0 
L 0.78125 0 
z
" id="DejaVuSans-65"/>
       <path d="M 52 44.1875 
Q 55.375 50.25 60.0625 53.125 
Q 64.75 56 71.09375 56 
Q 79.640625 56 84.28125 50.015625 
Q 88.921875 44.046875 88.921875 33.015625 
L 88.921875 0 
L 79.890625 0 
L 79.890625 32.71875 
Q 79.890625 40.578125 77.09375 44.375 
Q 74.3125 48.1875 68.609375 48.1875 
Q 61.625 48.1875 57.5625 43.546875 
Q 53.515625 38.921875 53.515625 30.90625 
L 53.515625 0 
L 44.484375 0 
L 44.484375 32.71875 
Q 44.484375 40.625 41.703125 44.40625 
Q 38.921875 48.1875 33.109375 48.1875 
Q 26.21875 48.1875 22.15625 43.53125 
Q 18.109375 38.875 18.109375 30.90625 
L 18.109375 0 
L 9.078125 0 
L 9.078125 54.6875 
L 18.109375 54.6875 
L 18.109375 46.1875 
Q 21.1875 51.21875 25.484375 53.609375 
Q 29.78125 56 35.6875 56 
Q 41.65625 56 45.828125 52.96875 
Q 50 49.953125 52 44.1875 
z
" id="DejaVuSans-109"/>
       <path d="M 30.609375 48.390625 
Q 23.390625 48.390625 19.1875 42.75 
Q 14.984375 37.109375 14.984375 27.296875 
Q 14.984375 17.484375 19.15625 11.84375 
Q 23.34375 6.203125 30.609375 6.203125 
Q 37.796875 6.203125 41.984375 11.859375 
Q 46.1875 17.53125 46.1875 27.296875 
Q 46.1875 37.015625 41.984375 42.703125 
Q 37.796875 48.390625 30.609375 48.390625 
z
M 30.609375 56 
Q 42.328125 56 49.015625 48.375 
Q 55.71875 40.765625 55.71875 27.296875 
Q 55.71875 13.875 49.015625 6.21875 
Q 42.328125 -1.421875 30.609375 -1.421875 
Q 18.84375 -1.421875 12.171875 6.21875 
Q 5.515625 13.875 5.515625 27.296875 
Q 5.515625 40.765625 12.171875 48.375 
Q 18.84375 56 30.609375 56 
z
" id="DejaVuSans-111"/>
       <path d="M 8.5 21.578125 
L 8.5 54.6875 
L 17.484375 54.6875 
L 17.484375 21.921875 
Q 17.484375 14.15625 20.5 10.265625 
Q 23.53125 6.390625 29.59375 6.390625 
Q 36.859375 6.390625 41.078125 11.03125 
Q 45.3125 15.671875 45.3125 23.6875 
L 45.3125 54.6875 
L 54.296875 54.6875 
L 54.296875 0 
L 45.3125 0 
L 45.3125 8.40625 
Q 42.046875 3.421875 37.71875 1 
Q 33.40625 -1.421875 27.6875 -1.421875 
Q 18.265625 -1.421875 13.375 4.4375 
Q 8.5 10.296875 8.5 21.578125 
z
M 31.109375 56 
z
" id="DejaVuSans-117"/>
       <path d="M 54.890625 33.015625 
L 54.890625 0 
L 45.90625 0 
L 45.90625 32.71875 
Q 45.90625 40.484375 42.875 44.328125 
Q 39.84375 48.1875 33.796875 48.1875 
Q 26.515625 48.1875 22.3125 43.546875 
Q 18.109375 38.921875 18.109375 30.90625 
L 18.109375 0 
L 9.078125 0 
L 9.078125 54.6875 
L 18.109375 54.6875 
L 18.109375 46.1875 
Q 21.34375 51.125 25.703125 53.5625 
Q 30.078125 56 35.796875 56 
Q 45.21875 56 50.046875 50.171875 
Q 54.890625 44.34375 54.890625 33.015625 
z
" id="DejaVuSans-110"/>
       <path d="M 18.3125 70.21875 
L 18.3125 54.6875 
L 36.8125 54.6875 
L 36.8125 47.703125 
L 18.3125 47.703125 
L 18.3125 18.015625 
Q 18.3125 11.328125 20.140625 9.421875 
Q 21.96875 7.515625 27.59375 7.515625 
L 36.8125 7.515625 
L 36.8125 0 
L 27.59375 0 
Q 17.1875 0 13.234375 3.875 
Q 9.28125 7.765625 9.28125 18.015625 
L 9.28125 47.703125 
L 2.6875 47.703125 
L 2.6875 54.6875 
L 9.28125 54.6875 
L 9.28125 70.21875 
z
" id="DejaVuSans-116"/>
       <path d="M 37.109375 75.984375 
L 37.109375 68.5 
L 28.515625 68.5 
Q 23.6875 68.5 21.796875 66.546875 
Q 19.921875 64.59375 19.921875 59.515625 
L 19.921875 54.6875 
L 34.71875 54.6875 
L 34.71875 47.703125 
L 19.921875 47.703125 
L 19.921875 0 
L 10.890625 0 
L 10.890625 47.703125 
L 2.296875 47.703125 
L 2.296875 54.6875 
L 10.890625 54.6875 
L 10.890625 58.5 
Q 10.890625 67.625 15.140625 71.796875 
Q 19.390625 75.984375 28.609375 75.984375 
z
" id="DejaVuSans-102"/>
       <path d="M 48.6875 27.296875 
Q 48.6875 37.203125 44.609375 42.84375 
Q 40.53125 48.484375 33.40625 48.484375 
Q 26.265625 48.484375 22.1875 42.84375 
Q 18.109375 37.203125 18.109375 27.296875 
Q 18.109375 17.390625 22.1875 11.75 
Q 26.265625 6.109375 33.40625 6.109375 
Q 40.53125 6.109375 44.609375 11.75 
Q 48.6875 17.390625 48.6875 27.296875 
z
M 18.109375 46.390625 
Q 20.953125 51.265625 25.265625 53.625 
Q 29.59375 56 35.59375 56 
Q 45.5625 56 51.78125 48.09375 
Q 58.015625 40.1875 58.015625 27.296875 
Q 58.015625 14.40625 51.78125 6.484375 
Q 45.5625 -1.421875 35.59375 -1.421875 
Q 29.59375 -1.421875 25.265625 0.953125 
Q 20.953125 3.328125 18.109375 8.203125 
L 18.109375 0 
L 9.078125 0 
L 9.078125 75.984375 
L 18.109375 75.984375 
z
" id="DejaVuSans-98"/>
       <path d="M 9.421875 54.6875 
L 18.40625 54.6875 
L 18.40625 -0.984375 
Q 18.40625 -11.421875 14.421875 -16.109375 
Q 10.453125 -20.796875 1.609375 -20.796875 
L -1.8125 -20.796875 
L -1.8125 -13.1875 
L 0.59375 -13.1875 
Q 5.71875 -13.1875 7.5625 -10.8125 
Q 9.421875 -8.453125 9.421875 -0.984375 
z
M 9.421875 75.984375 
L 18.40625 75.984375 
L 18.40625 64.59375 
L 9.421875 64.59375 
z
" id="DejaVuSans-106"/>
       <path d="M 56.203125 29.59375 
L 56.203125 25.203125 
L 14.890625 25.203125 
Q 15.484375 15.921875 20.484375 11.0625 
Q 25.484375 6.203125 34.421875 6.203125 
Q 39.59375 6.203125 44.453125 7.46875 
Q 49.3125 8.734375 54.109375 11.28125 
L 54.109375 2.78125 
Q 49.265625 0.734375 44.1875 -0.34375 
Q 39.109375 -1.421875 33.890625 -1.421875 
Q 20.796875 -1.421875 13.15625 6.1875 
Q 5.515625 13.8125 5.515625 26.8125 
Q 5.515625 40.234375 12.765625 48.109375 
Q 20.015625 56 32.328125 56 
Q 43.359375 56 49.78125 48.890625 
Q 56.203125 41.796875 56.203125 29.59375 
z
M 47.21875 32.234375 
Q 47.125 39.59375 43.09375 43.984375 
Q 39.0625 48.390625 32.421875 48.390625 
Q 24.90625 48.390625 20.390625 44.140625 
Q 15.875 39.890625 15.1875 32.171875 
z
" id="DejaVuSans-101"/>
       <path d="M 48.78125 52.59375 
L 48.78125 44.1875 
Q 44.96875 46.296875 41.140625 47.34375 
Q 37.3125 48.390625 33.40625 48.390625 
Q 24.65625 48.390625 19.8125 42.84375 
Q 14.984375 37.3125 14.984375 27.296875 
Q 14.984375 17.28125 19.8125 11.734375 
Q 24.65625 6.203125 33.40625 6.203125 
Q 37.3125 6.203125 41.140625 7.25 
Q 44.96875 8.296875 48.78125 10.40625 
L 48.78125 2.09375 
Q 45.015625 0.34375 40.984375 -0.53125 
Q 36.96875 -1.421875 32.421875 -1.421875 
Q 20.0625 -1.421875 12.78125 6.34375 
Q 5.515625 14.109375 5.515625 27.296875 
Q 5.515625 40.671875 12.859375 48.328125 
Q 20.21875 56 33.015625 56 
Q 37.15625 56 41.109375 55.140625 
Q 45.0625 54.296875 48.78125 52.59375 
z
" id="DejaVuSans-99"/>
       <path d="M 44.28125 53.078125 
L 44.28125 44.578125 
Q 40.484375 46.53125 36.375 47.5 
Q 32.28125 48.484375 27.875 48.484375 
Q 21.1875 48.484375 17.84375 46.4375 
Q 14.5 44.390625 14.5 40.28125 
Q 14.5 37.15625 16.890625 35.375 
Q 19.28125 33.59375 26.515625 31.984375 
L 29.59375 31.296875 
Q 39.15625 29.25 43.1875 25.515625 
Q 47.21875 21.78125 47.21875 15.09375 
Q 47.21875 7.46875 41.1875 3.015625 
Q 35.15625 -1.421875 24.609375 -1.421875 
Q 20.21875 -1.421875 15.453125 -0.5625 
Q 10.6875 0.296875 5.421875 2 
L 5.421875 11.28125 
Q 10.40625 8.6875 15.234375 7.390625 
Q 20.0625 6.109375 24.8125 6.109375 
Q 31.15625 6.109375 34.5625 8.28125 
Q 37.984375 10.453125 37.984375 14.40625 
Q 37.984375 18.0625 35.515625 20.015625 
Q 33.0625 21.96875 24.703125 23.78125 
L 21.578125 24.515625 
Q 13.234375 26.265625 9.515625 29.90625 
Q 5.8125 33.546875 5.8125 39.890625 
Q 5.8125 47.609375 11.28125 51.796875 
Q 16.75 56 26.8125 56 
Q 31.78125 56 36.171875 55.265625 
Q 40.578125 54.546875 44.28125 53.078125 
z
" id="DejaVuSans-115"/>
       <path d="M 9.421875 54.6875 
L 18.40625 54.6875 
L 18.40625 0 
L 9.421875 0 
z
M 9.421875 75.984375 
L 18.40625 75.984375 
L 18.40625 64.59375 
L 9.421875 64.59375 
z
" id="DejaVuSans-105"/>
       <path d="M 34.28125 27.484375 
Q 23.390625 27.484375 19.1875 25 
Q 14.984375 22.515625 14.984375 16.5 
Q 14.984375 11.71875 18.140625 8.90625 
Q 21.296875 6.109375 26.703125 6.109375 
Q 34.1875 6.109375 38.703125 11.40625 
Q 43.21875 16.703125 43.21875 25.484375 
L 43.21875 27.484375 
z
M 52.203125 31.203125 
L 52.203125 0 
L 43.21875 0 
L 43.21875 8.296875 
Q 40.140625 3.328125 35.546875 0.953125 
Q 30.953125 -1.421875 24.3125 -1.421875 
Q 15.921875 -1.421875 10.953125 3.296875 
Q 6 8.015625 6 15.921875 
Q 6 25.140625 12.171875 29.828125 
Q 18.359375 34.515625 30.609375 34.515625 
L 43.21875 34.515625 
L 43.21875 35.40625 
Q 43.21875 41.609375 39.140625 45 
Q 35.0625 48.390625 27.6875 48.390625 
Q 23 48.390625 18.546875 47.265625 
Q 14.109375 46.140625 10.015625 43.890625 
L 10.015625 52.203125 
Q 14.9375 54.109375 19.578125 55.046875 
Q 24.21875 56 28.609375 56 
Q 40.484375 56 46.34375 49.84375 
Q 52.203125 43.703125 52.203125 31.203125 
z
" id="DejaVuSans-97"/>
       <path d="M 9.421875 75.984375 
L 18.40625 75.984375 
L 18.40625 0 
L 9.421875 0 
z
" id="DejaVuSans-108"/>
      </defs>
      <use xlink:href="#DejaVuSans-65"/>
      <use x="68.408203" xlink:href="#DejaVuSans-109"/>
      <use x="165.820312" xlink:href="#DejaVuSans-111"/>
      <use x="227.001953" xlink:href="#DejaVuSans-117"/>
      <use x="290.380859" xlink:href="#DejaVuSans-110"/>
      <use x="353.759766" xlink:href="#DejaVuSans-116"/>
      <use x="392.96875" xlink:href="#DejaVuSans-32"/>
      <use x="424.755859" xlink:href="#DejaVuSans-111"/>
      <use x="485.9375" xlink:href="#DejaVuSans-102"/>
      <use x="521.142578" xlink:href="#DejaVuSans-32"/>
      <use x="552.929688" xlink:href="#DejaVuSans-111"/>
      <use x="614.111328" xlink:href="#DejaVuSans-98"/>
      <use x="677.587891" xlink:href="#DejaVuSans-106"/>
      <use x="705.371094" xlink:href="#DejaVuSans-101"/>
      <use x="766.894531" xlink:href="#DejaVuSans-99"/>
      <use x="821.875" xlink:href="#DejaVuSans-116"/>
      <use x="861.083984" xlink:href="#DejaVuSans-115"/>
      <use x="913.183594" xlink:href="#DejaVuSans-32"/>
      <use x="944.970703" xlink:href="#DejaVuSans-105"/>
      <use x="972.753906" xlink:href="#DejaVuSans-110"/>
      <use x="1036.132812" xlink:href="#DejaVuSans-32"/>
      <use x="1067.919922" xlink:href="#DejaVuSans-116"/>
      <use x="1107.128906" xlink:href="#DejaVuSans-97"/>
      <use x="1168.408203" xlink:href="#DejaVuSans-98"/>
      <use x="1231.884766" xlink:href="#DejaVuSans-108"/>
      <use x="1259.667969" xlink:href="#DejaVuSans-101"/>
     </g>
    </g>
   </g>
   <g id="matplotlib.axis_2">
    <g id="ytick_1">
     <g id="line2d_10">
      <defs>
       <path d="M 0 0 
L -3.5 0 
" id="me52830c9c9" style="stroke:#000000;stroke-width:0.8;"/>
      </defs>
      <g>
       <use style="stroke:#000000;stroke-width:0.8;" x="58.73125" xlink:href="#me52830c9c9" y="288.430125"/>
      </g>
     </g>
     <g id="text_11">
      <!-- 0 -->
      <g transform="translate(45.36875 292.229344)scale(0.1 -0.1)">
       <use xlink:href="#DejaVuSans-48"/>
      </g>
     </g>
    </g>
    <g id="ytick_2">
     <g id="line2d_11">
      <g>
       <use style="stroke:#000000;stroke-width:0.8;" x="58.73125" xlink:href="#me52830c9c9" y="252.930261"/>
      </g>
     </g>
     <g id="text_12">
      <!-- 10 ms -->
      <g transform="translate(20.878125 256.729479)scale(0.1 -0.1)">
       <use xlink:href="#DejaVuSans-49"/>
       <use x="63.623047" xlink:href="#DejaVuSans-48"/>
       <use x="127.246094" xlink:href="#DejaVuSans-32"/>
       <use x="159.033203" xlink:href="#DejaVuSans-109"/>
       <use x="256.445312" xlink:href="#DejaVuSans-115"/>
      </g>
     </g>
    </g>
    <g id="ytick_3">
     <g id="line2d_12">
      <g>
       <use style="stroke:#000000;stroke-width:0.8;" x="58.73125" xlink:href="#me52830c9c9" y="217.430396"/>
      </g>
     </g>
     <g id="text_13">
      <!-- 20 ms -->
      <g transform="translate(20.878125 221.229615)scale(0.1 -0.1)">
       <use xlink:href="#DejaVuSans-50"/>
       <use x="63.623047" xlink:href="#DejaVuSans-48"/>
       <use x="127.246094" xlink:href="#DejaVuSans-32"/>
       <use x="159.033203" xlink:href="#DejaVuSans-109"/>
       <use x="256.445312" xlink:href="#DejaVuSans-115"/>
      </g>
     </g>
    </g>
    <g id="ytick_4">
     <g id="line2d_13">
      <g>
       <use style="stroke:#000000;stroke-width:0.8;" x="58.73125" xlink:href="#me52830c9c9" y="181.930532"/>
      </g>
     </g>
     <g id="text_14">
      <!-- 30 ms -->
      <g transform="translate(20.878125 185.729751)scale(0.1 -0.1)">
       <use xlink:href="#DejaVuSans-51"/>
       <use x="63.623047" xlink:href="#DejaVuSans-48"/>
       <use x="127.246094" xlink:href="#DejaVuSans-32"/>
       <use x="159.033203" xlink:href="#DejaVuSans-109"/>
       <use x="256.445312" xlink:href="#DejaVuSans-115"/>
      </g>
     </g>
    </g>
    <g id="ytick_5">
     <g id="line2d_14">
      <g>
       <use style="stroke:#000000;stroke-width:0.8;" x="58.73125" xlink:href="#me52830c9c9" y="146.430668"/>
      </g>
     </g>
     <g id="text_15">
      <!-- 40 ms -->
      <g transform="translate(20.878125 150.229886)scale(0.1 -0.1)">
       <use xlink:href="#DejaVuSans-52"/>
       <use x="63.623047" xlink:href="#DejaVuSans-48"/>
       <use x="127.246094" xlink:href="#DejaVuSans-32"/>
       <use x="159.033203" xlink:href="#DejaVuSans-109"/>
       <use x="256.445312" xlink:href="#DejaVuSans-115"/>
      </g>
     </g>
    </g>
    <g id="ytick_6">
     <g id="line2d_15">
      <g>
       <use style="stroke:#000000;stroke-width:0.8;" x="58.73125" xlink:href="#me52830c9c9" y="110.930803"/>
      </g>
     </g>
     <g id="text_16">
      <!-- 50 ms -->
      <g transform="translate(20.878125 114.730022)scale(0.1 -0.1)">
       <use xlink:href="#DejaVuSans-53"/>
       <use x="63.623047" xlink:href="#DejaVuSans-48"/>
       <use x="127.246094" xlink:href="#DejaVuSans-32"/>
       <use x="159.033203" xlink:href="#DejaVuSans-109"/>
       <use x="256.445312" xlink:href="#DejaVuSans-115"/>
      </g>
     </g>
    </g>
    <g id="ytick_7">
     <g id="line2d_16">
      <g>
       <use style="stroke:#000000;stroke-width:0.8;" x="58.73125" xlink:href="#me52830c9c9" y="75.430939"/>
      </g>
     </g>
     <g id="text_17">
      <!-- 60 ms -->
      <g transform="translate(20.878125 79.230158)scale(0.1 -0.1)">
       <defs>
        <path d="M 33.015625 40.375 
Q 26.375 40.375 22.484375 35.828125 
Q 18.609375 31.296875 18.609375 23.390625 
Q 18.609375 15.53125 22.484375 10.953125 
Q 26.375 6.390625 33.015625 6.390625 
Q 39.65625 6.390625 43.53125 10.953125 
Q 47.40625 15.53125 47.40625 23.390625 
Q 47.40625 31.296875 43.53125 35.828125 
Q 39.65625 40.375 33.015625 40.375 
z
M 52.59375 71.296875 
L 52.59375 62.3125 
Q 48.875 64.0625 45.09375 64.984375 
Q 41.3125 65.921875 37.59375 65.921875 
Q 27.828125 65.921875 22.671875 59.328125 
Q 17.53125 52.734375 16.796875 39.40625 
Q 19.671875 43.65625 24.015625 45.921875 
Q 28.375 48.1875 33.59375 48.1875 
Q 44.578125 48.1875 50.953125 41.515625 
Q 57.328125 34.859375 57.328125 23.390625 
Q 57.328125 12.15625 50.6875 5.359375 
Q 44.046875 -1.421875 33.015625 -1.421875 
Q 20.359375 -1.421875 13.671875 8.265625 
Q 6.984375 17.96875 6.984375 36.375 
Q 6.984375 53.65625 15.1875 63.9375 
Q 23.390625 74.21875 37.203125 74.21875 
Q 40.921875 74.21875 44.703125 73.484375 
Q 48.484375 72.75 52.59375 71.296875 
z
" id="DejaVuSans-54"/>
       </defs>
       <use xlink:href="#DejaVuSans-54"/>
       <use x="63.623047" xlink:href="#DejaVuSans-48"/>
       <use x="127.246094" xlink:href="#DejaVuSans-32"/>
       <use x="159.033203" xlink:href="#DejaVuSans-109"/>
       <use x="256.445312" xlink:href="#DejaVuSans-115"/>
      </g>
     </g>
    </g>
    <g id="ytick_8">
     <g id="line2d_17">
      <g>
       <use style="stroke:#000000;stroke-width:0.8;" x="58.73125" xlink:href="#me52830c9c9" y="39.931075"/>
      </g>
     </g>
     <g id="text_18">
      <!-- 70 ms -->
      <g transform="translate(20.878125 43.730293)scale(0.1 -0.1)">
       <defs>
        <path d="M 8.203125 72.90625 
L 55.078125 72.90625 
L 55.078125 68.703125 
L 28.609375 0 
L 18.3125 0 
L 43.21875 64.59375 
L 8.203125 64.59375 
z
" id="DejaVuSans-55"/>
       </defs>
       <use xlink:href="#DejaVuSans-55"/>
       <use x="63.623047" xlink:href="#DejaVuSans-48"/>
       <use x="127.246094" xlink:href="#DejaVuSans-32"/>
       <use x="159.033203" xlink:href="#DejaVuSans-109"/>
       <use x="256.445312" xlink:href="#DejaVuSans-115"/>
      </g>
     </g>
    </g>
    <g id="text_19">
     <!-- Write latency (s) -->
     <g transform="translate(14.798437 196.625687)rotate(-90)scale(0.1 -0.1)">
      <defs>
       <path d="M 3.328125 72.90625 
L 13.28125 72.90625 
L 28.609375 11.28125 
L 43.890625 72.90625 
L 54.984375 72.90625 
L 70.3125 11.28125 
L 85.59375 72.90625 
L 95.609375 72.90625 
L 77.296875 0 
L 64.890625 0 
L 49.515625 63.28125 
L 33.984375 0 
L 21.578125 0 
z
" id="DejaVuSans-87"/>
       <path d="M 41.109375 46.296875 
Q 39.59375 47.171875 37.8125 47.578125 
Q 36.03125 48 33.890625 48 
Q 26.265625 48 22.1875 43.046875 
Q 18.109375 38.09375 18.109375 28.8125 
L 18.109375 0 
L 9.078125 0 
L 9.078125 54.6875 
L 18.109375 54.6875 
L 18.109375 46.1875 
Q 20.953125 51.171875 25.484375 53.578125 
Q 30.03125 56 36.53125 56 
Q 37.453125 56 38.578125 55.875 
Q 39.703125 55.765625 41.0625 55.515625 
z
" id="DejaVuSans-114"/>
       <path d="M 32.171875 -5.078125 
Q 28.375 -14.84375 24.75 -17.8125 
Q 21.140625 -20.796875 15.09375 -20.796875 
L 7.90625 -20.796875 
L 7.90625 -13.28125 
L 13.1875 -13.28125 
Q 16.890625 -13.28125 18.9375 -11.515625 
Q 21 -9.765625 23.484375 -3.21875 
L 25.09375 0.875 
L 2.984375 54.6875 
L 12.5 54.6875 
L 29.59375 11.921875 
L 46.6875 54.6875 
L 56.203125 54.6875 
z
" id="DejaVuSans-121"/>
       <path d="M 31 75.875 
Q 24.46875 64.65625 21.28125 53.65625 
Q 18.109375 42.671875 18.109375 31.390625 
Q 18.109375 20.125 21.3125 9.0625 
Q 24.515625 -2 31 -13.1875 
L 23.1875 -13.1875 
Q 15.875 -1.703125 12.234375 9.375 
Q 8.59375 20.453125 8.59375 31.390625 
Q 8.59375 42.28125 12.203125 53.3125 
Q 15.828125 64.359375 23.1875 75.875 
z
" id="DejaVuSans-40"/>
       <path d="M 8.015625 75.875 
L 15.828125 75.875 
Q 23.140625 64.359375 26.78125 53.3125 
Q 30.421875 42.28125 30.421875 31.390625 
Q 30.421875 20.453125 26.78125 9.375 
Q 23.140625 -1.703125 15.828125 -13.1875 
L 8.015625 -13.1875 
Q 14.5 -2 17.703125 9.0625 
Q 20.90625 20.125 20.90625 31.390625 
Q 20.90625 42.671875 17.703125 53.65625 
Q 14.5 64.65625 8.015625 75.875 
z
" id="DejaVuSans-41"/>
      </defs>
      <use xlink:href="#DejaVuSans-87"/>
      <use x="94.376953" xlink:href="#DejaVuSans-114"/>
      <use x="135.490234" xlink:href="#DejaVuSans-105"/>
      <use x="163.273438" xlink:href="#DejaVuSans-116"/>
      <use x="202.482422" xlink:href="#DejaVuSans-101"/>
      <use x="264.005859" xlink:href="#DejaVuSans-32"/>
      <use x="295.792969" xlink:href="#DejaVuSans-108"/>
      <use x="323.576172" xlink:href="#DejaVuSans-97"/>
      <use x="384.855469" xlink:href="#DejaVuSans-116"/>
      <use x="424.064453" xlink:href="#DejaVuSans-101"/>
      <use x="485.587891" xlink:href="#DejaVuSans-110"/>
      <use x="548.966797" xlink:href="#DejaVuSans-99"/>
      <use x="603.947266" xlink:href="#DejaVuSans-121"/>
      <use x="663.126953" xlink:href="#DejaVuSans-32"/>
      <use x="694.914062" xlink:href="#DejaVuSans-40"/>
      <use x="733.927734" xlink:href="#DejaVuSans-115"/>
      <use x="786.027344" xlink:href="#DejaVuSans-41"/>
     </g>
    </g>
   </g>
   <g id="line2d_18">
    <path clip-path="url(#pcac49bc4e3)" d="M 143.65095 273.731261 
L 145.392893 272.936399 
L 149.312263 271.140562 
L 154.973577 267.786811 
L 157.586491 266.328199 
L 159.763919 264.909349 
L 162.812318 262.829457 
L 163.68329 262.188571 
L 164.554261 261.205248 
L 168.909117 257.591923 
L 169.344603 256.883713 
L 172.393002 254.212148 
L 172.828488 253.606936 
L 174.134945 252.512194 
L 175.876887 250.487135 
L 176.747859 249.71957 
L 177.61883 248.447682 
L 178.489801 247.578521 
L 181.538201 244.613899 
L 181.973686 243.928532 
L 182.409172 243.511062 
L 182.844658 242.776762 
L 184.151115 241.322642 
L 184.5866 240.63771 
L 185.022086 240.206671 
L 185.457572 239.451285 
L 185.893057 238.998544 
L 186.764028 237.869908 
L 187.199514 237.431664 
L 187.635 236.597547 
L 190.247914 233.657418 
L 191.118885 232.104679 
L 191.989856 230.984415 
L 193.731799 228.97726 
L 194.167284 228.189147 
L 195.909227 226.117463 
L 196.344713 224.872186 
L 196.780198 224.370924 
L 197.65117 222.983768 
L 198.957626 221.345427 
L 199.393112 220.289814 
L 201.135055 218.161891 
L 202.441512 216.605532 
L 203.312483 215.299702 
L 204.183454 214.005739 
L 204.61894 213.465764 
L 205.054425 212.332371 
L 206.360882 210.57584 
L 207.231854 209.556869 
L 207.667339 208.643757 
L 208.102825 208.087844 
L 208.538311 206.910482 
L 209.409282 205.25738 
L 209.844767 204.350539 
L 210.715739 203.267595 
L 211.151224 202.43639 
L 211.58671 201.345768 
L 212.457681 200.105483 
L 214.199624 198.15217 
L 216.377052 196.045428 
L 219.425452 193.046282 
L 219.860937 192.282016 
L 220.731908 191.571393 
L 221.167394 191.205881 
L 221.60288 190.283862 
L 222.038365 189.708474 
L 222.473851 189.590002 
L 223.344822 188.633889 
L 225.522251 186.809995 
L 225.957736 185.832215 
L 226.828707 185.018008 
L 227.264193 184.428092 
L 228.135164 183.770856 
L 231.183564 180.384501 
L 231.61905 179.65672 
L 232.054535 179.35161 
L 232.490021 178.836167 
L 234.231963 177.437053 
L 235.973906 176.023012 
L 236.409392 175.359878 
L 237.715849 174.47184 
L 238.151334 173.851207 
L 238.58682 173.514443 
L 239.457791 173.048281 
L 241.199734 171.23934 
L 242.506191 170.491016 
L 242.941676 169.813758 
L 243.812647 169.220565 
L 245.119104 168.156792 
L 245.55459 167.90319 
L 245.990076 167.423417 
L 246.861047 167.043122 
L 248.60299 166.189126 
L 249.038475 165.778934 
L 249.473961 165.720942 
L 251.651389 164.617892 
L 252.086875 163.926098 
L 252.52236 163.771241 
L 252.957846 163.42833 
L 253.828817 163.099911 
L 254.264303 163.278893 
L 255.135274 162.034073 
L 255.57076 161.99915 
L 256.006245 161.544364 
L 256.877217 161.050133 
L 257.312702 160.615435 
L 257.748188 160.688133 
L 258.183674 160.027095 
L 259.054645 159.691875 
L 259.490131 159.054619 
L 259.925616 158.801845 
L 260.361102 158.866244 
L 260.796587 158.793651 
L 261.232073 158.56373 
L 261.667559 158.185423 
L 262.53853 158.382743 
L 262.974016 157.969626 
L 263.844987 157.812424 
L 265.151444 157.507201 
L 265.58693 157.197264 
L 266.457901 156.960047 
L 266.893386 157.11698 
L 267.328872 157.017245 
L 267.764358 157.177064 
L 268.199843 157.082174 
L 268.635329 157.150427 
L 269.070815 156.801604 
L 269.5063 156.922364 
L 269.941786 156.825585 
L 270.377272 157.055649 
L 270.812757 156.564105 
L 271.248243 156.609914 
L 272.119214 156.489558 
L 272.5547 156.58941 
L 275.167614 156.304174 
L 276.038585 156.636395 
L 277.345042 156.583272 
L 278.216013 156.006929 
L 278.651499 155.686797 
L 279.086984 155.593829 
L 279.957956 155.064098 
L 280.393441 154.538481 
L 280.828927 153.717325 
L 281.699898 153.763043 
L 282.57087 154.075631 
L 283.441841 153.927493 
L 283.877326 154.001723 
L 284.312812 154.272925 
L 284.748298 154.071569 
L 287.361212 154.044945 
L 287.796697 154.19501 
L 288.232183 153.594521 
L 288.667669 153.696699 
L 289.103154 153.380174 
L 289.53864 153.363507 
L 289.974125 153.964347 
L 290.409611 153.670778 
L 290.845097 153.776207 
L 291.280582 153.624214 
L 292.151554 153.585333 
L 292.587039 153.274823 
L 293.022525 153.278986 
L 293.458011 153.92152 
L 293.893496 153.773568 
L 294.764467 154.496592 
L 295.199953 154.50934 
L 295.635439 154.185917 
L 296.070924 154.468205 
L 296.50641 155.024036 
L 296.941896 154.963539 
L 297.377381 154.770069 
L 298.248353 154.685995 
L 298.683838 154.50779 
L 299.119324 154.090089 
L 299.990295 154.14194 
L 300.425781 153.495898 
L 301.296752 153.514844 
L 301.732238 153.027158 
L 302.603209 152.878334 
L 303.47418 152.653734 
L 304.345152 152.664959 
L 304.780637 153.003204 
L 306.087094 152.903391 
L 306.52258 153.269055 
L 307.829037 153.748928 
L 308.700008 153.568253 
L 309.135494 153.480529 
L 309.570979 153.106653 
L 310.441951 152.984232 
L 310.877436 153.578952 
L 311.312922 153.422037 
L 311.748407 153.384974 
L 312.183893 153.076066 
L 313.054864 153.009532 
L 313.49035 152.216862 
L 314.361321 152.201354 
L 314.796807 151.886365 
L 315.232293 152.088511 
L 315.667778 152.099241 
L 316.103264 152.285302 
L 316.53875 152.620192 
L 316.974235 152.428662 
L 317.409721 152.65314 
L 317.845206 152.389737 
L 319.587149 152.374281 
L 320.022635 152.453571 
L 320.45812 152.314673 
L 320.893606 152.295098 
L 321.329092 152.776838 
L 322.635549 152.671877 
L 323.071034 153.013273 
L 323.50652 152.706453 
L 324.812977 152.658118 
L 325.248462 152.125179 
L 325.683948 152.387501 
L 326.119434 152.044052 
L 327.425891 151.790554 
L 327.861376 152.027945 
L 328.732347 152.023726 
L 330.47429 152.185303 
L 330.909776 152.386711 
L 331.345261 152.38932 
L 331.780747 152.28028 
L 332.216233 151.693771 
L 333.52269 151.614685 
L 333.958175 152.048723 
L 334.829146 152.056531 
L 335.700118 152.056674 
L 339.184003 152.072873 
L 340.054974 152.787762 
L 340.49046 152.759003 
L 340.925945 153.085767 
L 341.796917 153.108012 
L 342.232402 153.355117 
L 342.667888 153.344348 
L 343.103374 153.724469 
L 343.974345 153.6629 
L 344.409831 153.928847 
L 345.280802 154.0381 
L 346.151773 152.997618 
L 346.587259 153.213792 
L 347.022744 152.666591 
L 347.45823 152.646425 
L 347.893716 152.906256 
L 348.329201 152.865886 
L 348.764687 152.441818 
L 349.635658 152.313653 
L 350.071144 152.241806 
L 350.50663 152.404108 
L 350.942115 152.188845 
L 351.377601 152.162867 
L 352.248572 151.849215 
L 352.684058 151.908909 
L 353.990515 151.744971 
L 354.426 151.065586 
L 355.296972 150.79539 
L 356.167943 150.774452 
L 356.603429 150.283793 
L 357.038914 150.146441 
L 357.909885 149.570757 
L 360.522799 149.20617 
L 360.958285 148.927059 
L 361.393771 148.968384 
L 362.700228 148.603441 
L 363.135713 148.764233 
L 363.571199 148.665939 
L 364.44217 149.272648 
L 364.877656 149.488563 
L 365.313141 149.193809 
L 366.184113 150.402986 
L 367.055084 150.32985 
L 367.926055 149.436786 
L 368.361541 149.168 
L 368.797026 149.14323 
L 369.232512 149.388954 
L 369.667998 149.479287 
L 370.538969 149.345016 
L 371.40994 149.214057 
L 371.845426 148.762865 
L 372.716397 148.739644 
L 373.151883 149.214677 
L 373.587369 149.258993 
L 374.022854 149.604434 
L 374.45834 149.475342 
L 374.893825 149.025092 
L 375.329311 149.370516 
L 375.764797 148.693579 
L 376.200282 148.795397 
L 376.635768 148.442664 
L 377.071254 148.385574 
L 377.506739 149.042332 
L 377.942225 148.685211 
L 378.377711 148.526768 
L 378.813196 148.853246 
L 379.248682 148.38524 
L 380.119653 148.36375 
L 380.555139 148.6326 
L 380.990624 148.184196 
L 381.42611 148.085286 
L 383.168053 148.395765 
L 383.603538 148.102452 
L 384.039024 148.535392 
L 384.909995 148.480924 
L 385.345481 149.075085 
L 385.780966 148.777762 
L 386.216452 148.714543 
L 386.651938 149.175253 
L 387.087423 148.761047 
L 387.522909 148.838063 
L 387.958395 148.66804 
L 393.619708 148.239493 
L 394.055194 148.261051 
L 394.490679 148.090942 
L 394.926165 147.731333 
L 395.361651 147.776491 
L 395.797136 147.64018 
L 396.668108 147.825377 
L 397.103593 148.350894 
L 397.974564 148.296942 
L 398.41005 149.133472 
L 398.845536 149.111427 
L 398.845536 149.111427 
" style="fill:none;stroke:#1f77b4;stroke-linecap:square;stroke-opacity:0.8;stroke-width:1.5;"/>
   </g>
   <g id="line2d_19">
    <path clip-path="url(#pcac49bc4e3)" d="M 143.65095 280.404841 
L 146.69935 280.382744 
L 163.68329 280.181153 
L 166.296203 280.201952 
L 176.312373 280.184534 
L 182.409172 280.182954 
L 196.780198 279.971658 
L 201.135055 279.218169 
L 202.006026 278.967544 
L 203.747968 278.304228 
L 206.360882 277.347234 
L 206.796368 276.54133 
L 208.973796 275.611789 
L 212.022196 274.091134 
L 212.893167 273.463236 
L 214.63511 272.312728 
L 215.070595 271.786751 
L 216.377052 270.806566 
L 217.248023 270.167148 
L 217.683509 269.04681 
L 218.989966 267.940523 
L 221.167394 265.995879 
L 221.60288 265.05754 
L 224.215794 262.617075 
L 227.699679 259.149228 
L 228.135164 258.243586 
L 229.441621 256.748136 
L 232.054535 253.331311 
L 232.490021 252.286301 
L 232.925506 251.635034 
L 233.360992 250.666099 
L 234.231963 249.492231 
L 234.667449 247.911093 
L 235.973906 246.256167 
L 236.844877 244.946939 
L 237.280363 244.366442 
L 238.58682 241.568197 
L 239.457791 240.333407 
L 240.328762 238.306694 
L 240.764248 237.264757 
L 242.070705 235.350548 
L 242.941676 233.286099 
L 243.812647 231.976207 
L 244.248133 230.890363 
L 244.683619 230.203391 
L 245.119104 229.202636 
L 245.990076 227.816873 
L 246.425561 226.6769 
L 247.296533 225.169032 
L 249.038475 220.65079 
L 250.780418 217.563507 
L 251.215903 216.251015 
L 252.086875 214.584057 
L 252.52236 213.348352 
L 253.828817 210.753854 
L 255.135274 207.205848 
L 256.441731 204.570603 
L 257.312702 202.718219 
L 259.490131 195.87932 
L 262.103044 190.288563 
L 263.409501 187.056288 
L 265.58693 180.256454 
L 266.022415 178.666127 
L 266.457901 177.722458 
L 266.893386 176.219147 
L 267.764358 174.229367 
L 271.683729 165.810789 
L 272.5547 163.531024 
L 276.474071 154.984386 
L 276.909556 153.954529 
L 282.135384 137.352385 
L 286.054755 124.916384 
L 287.361212 120.900267 
L 291.280582 108.993963 
L 291.716068 108.351445 
L 293.893496 101.985315 
L 297.377381 92.457372 
L 300.861266 83.700427 
L 302.167723 80.271861 
L 302.603209 80.45606 
L 305.651609 76.084237 
L 306.087094 75.518836 
L 306.52258 75.540091 
L 308.264522 73.508243 
L 308.700008 72.569544 
L 311.312922 69.287984 
L 311.748407 68.595052 
L 312.183893 67.549913 
L 312.619379 65.955649 
L 313.054864 65.484062 
L 313.925836 63.4579 
L 314.361321 62.501552 
L 314.796807 62.150794 
L 315.232293 61.589334 
L 316.974235 58.628093 
L 317.409721 58.755271 
L 317.845206 58.305369 
L 318.280692 58.338769 
L 318.716178 57.84742 
L 319.151663 57.551125 
L 319.587149 57.091713 
L 320.45812 55.088355 
L 320.893606 54.710751 
L 321.329092 54.491577 
L 322.635549 53.026398 
L 323.071034 53.07126 
L 323.50652 52.965111 
L 323.942005 52.647583 
L 324.377491 51.954751 
L 325.248462 51.985855 
L 325.683948 51.55107 
L 326.119434 49.897021 
L 326.554919 49.182835 
L 326.990405 48.905243 
L 327.861376 48.934003 
L 328.296862 48.424671 
L 328.732347 48.147756 
L 329.167833 48.068709 
L 329.603319 47.74056 
L 330.038804 47.800965 
L 330.47429 47.564182 
L 330.909776 46.845516 
L 331.780747 45.979272 
L 332.216233 45.788558 
L 332.651718 46.015393 
L 333.087204 45.980179 
L 333.958175 46.50448 
L 334.829146 46.032412 
L 335.700118 44.785438 
L 336.135603 44.742481 
L 336.571089 43.708978 
L 337.006575 43.683231 
L 337.44206 43.994682 
L 338.313032 43.786225 
L 338.748517 43.129071 
L 339.184003 43.392379 
L 339.619489 43.334608 
L 340.925945 41.76663 
L 342.232402 41.694461 
L 342.667888 42.116971 
L 343.103374 41.907294 
L 343.538859 41.208807 
L 343.974345 41.819457 
L 344.409831 41.967761 
L 344.845316 41.792112 
L 345.716287 41.769746 
L 346.151773 41.480791 
L 346.587259 40.876535 
L 347.022744 39.996557 
L 347.45823 40.090931 
L 347.893716 40.374074 
L 348.329201 40.376739 
L 349.200173 41.087596 
L 349.635658 40.829658 
L 350.071144 40.730978 
L 350.50663 41.183021 
L 350.942115 40.988917 
L 351.377601 41.027143 
L 351.813086 41.512619 
L 352.248572 41.104615 
L 352.684058 40.157743 
L 353.555029 40.122668 
L 353.990515 39.10134 
L 354.426 39.112729 
L 354.861486 38.986961 
L 355.296972 38.329443 
L 356.603429 38.330107 
L 357.038914 38.577564 
L 357.909885 37.638921 
L 358.780857 37.558988 
L 359.216342 36.764903 
L 359.651828 36.789075 
L 360.087314 36.66032 
L 360.522799 35.338939 
L 360.958285 35.237672 
L 361.393771 35.279119 
L 361.829256 34.990125 
L 362.264742 35.060653 
L 362.700228 35.003276 
L 363.135713 35.414154 
L 363.571199 35.403572 
L 364.006684 36.047014 
L 364.44217 36.467284 
L 365.313141 35.829077 
L 366.184113 36.816042 
L 366.619598 37.073108 
L 367.055084 36.902351 
L 367.49057 37.007758 
L 368.361541 37.801452 
L 368.797026 37.824717 
L 369.232512 37.990005 
L 369.667998 38.484453 
L 370.103483 38.622643 
L 370.538969 39.223493 
L 370.974455 39.232182 
L 371.40994 39.615077 
L 371.845426 40.2822 
L 372.280912 40.554076 
L 372.716397 41.018848 
L 373.151883 40.276788 
L 373.587369 40.455309 
L 374.45834 41.337145 
L 374.893825 40.621318 
L 375.764797 41.699106 
L 376.200282 41.920433 
L 376.635768 41.984627 
L 377.071254 42.553783 
L 377.942225 42.574179 
L 378.377711 43.138942 
L 378.813196 43.074699 
L 379.248682 43.548665 
L 379.684168 43.52208 
L 380.119653 43.199287 
L 380.990624 44.07574 
L 381.42611 44.04405 
L 384.039024 46.82414 
L 384.47451 46.797411 
L 385.345481 47.818223 
L 385.780966 48.110707 
L 386.216452 48.191929 
L 386.651938 48.834012 
L 387.087423 49.068838 
L 387.522909 48.615433 
L 389.264852 48.71446 
L 390.135823 48.742017 
L 390.571309 48.348132 
L 391.44228 48.323926 
L 391.877765 47.856562 
L 392.748737 47.824924 
L 393.184222 47.498173 
L 393.619708 47.892205 
L 394.055194 47.899949 
L 394.490679 47.274723 
L 394.926165 46.897888 
L 395.361651 47.079921 
L 396.232622 46.076098 
L 396.668108 46.279395 
L 398.41005 48.318661 
L 398.845536 48.182445 
L 398.845536 48.182445 
" style="fill:none;stroke:#ff7f0e;stroke-linecap:square;stroke-opacity:0.8;stroke-width:1.5;"/>
   </g>
   <g id="line2d_20">
    <path clip-path="url(#pcac49bc4e3)" d="M 143.65095 281.451535 
L 159.763919 281.43995 
L 165.425232 281.493515 
L 196.780198 281.2676 
L 202.006026 280.329787 
L 208.973796 278.450287 
L 213.764138 276.74964 
L 214.199624 276.091488 
L 215.941566 275.347153 
L 217.683509 274.535056 
L 218.118995 274.068777 
L 218.989966 273.631917 
L 220.296423 273.013338 
L 222.909337 271.767002 
L 223.780308 271.301188 
L 224.215794 270.859346 
L 226.828707 269.40319 
L 227.264193 269.031966 
L 229.006136 268.092685 
L 229.441621 267.596783 
L 230.748078 266.785775 
L 232.054535 265.658858 
L 233.360992 264.731196 
L 233.796478 264.243866 
L 235.53842 263.079929 
L 235.973906 262.456228 
L 237.715849 261.068616 
L 238.151334 260.792673 
L 239.022305 260.025425 
L 239.893277 259.294689 
L 240.328762 258.9822 
L 241.635219 257.66045 
L 245.119104 254.531503 
L 247.296533 252.705777 
L 249.038475 251.203895 
L 251.215903 249.257701 
L 252.52236 248.061341 
L 252.957846 247.45425 
L 256.006245 244.662733 
L 256.877217 243.845383 
L 257.312702 243.187991 
L 258.183674 242.257434 
L 258.619159 241.602764 
L 259.490131 240.679117 
L 260.796587 239.348908 
L 261.232073 238.48354 
L 264.280473 235.352488 
L 265.151444 234.41095 
L 265.58693 233.536003 
L 267.328872 231.740148 
L 268.199843 230.850522 
L 268.635329 230.016939 
L 271.248243 227.389889 
L 272.119214 226.451719 
L 272.5547 226.014031 
L 272.990185 225.325574 
L 275.603099 222.631764 
L 276.038585 221.970808 
L 277.780527 220.180535 
L 279.086984 218.315867 
L 281.264413 215.967715 
L 281.699898 215.168105 
L 284.748298 212.516939 
L 285.183783 211.993314 
L 286.925726 210.520804 
L 287.796697 209.824257 
L 288.232183 209.265241 
L 290.845097 207.232863 
L 291.716068 206.358576 
L 293.893496 203.809627 
L 296.50641 202.013481 
L 297.812867 201.05443 
L 298.683838 200.41538 
L 299.119324 200.430611 
L 300.425781 199.440825 
L 300.861266 199.102255 
L 301.296752 198.453535 
L 302.167723 197.729409 
L 302.603209 197.512223 
L 303.038695 197.483537 
L 303.909666 196.996971 
L 304.345152 196.256837 
L 308.700008 193.817797 
L 309.135494 193.810487 
L 313.925836 191.34089 
L 314.361321 191.370878 
L 314.796807 191.192018 
L 315.232293 190.780945 
L 315.667778 190.635832 
L 316.53875 190.624299 
L 318.280692 189.895625 
L 318.716178 189.941715 
L 320.45812 189.200341 
L 320.893606 189.381848 
L 322.635549 188.947906 
L 323.071034 188.76958 
L 323.50652 188.740091 
L 323.942005 188.58927 
L 324.377491 188.576565 
L 325.248462 188.28626 
L 326.119434 188.273925 
L 326.554919 187.974301 
L 328.296862 187.56348 
L 328.732347 187.725998 
L 329.603319 187.488291 
L 330.47429 187.460443 
L 333.087204 186.802825 
L 333.52269 186.787629 
L 333.958175 186.399382 
L 335.264632 185.944753 
L 336.135603 185.856269 
L 337.44206 185.660156 
L 337.877546 185.804701 
L 338.748517 185.413103 
L 339.184003 185.347129 
L 339.619489 185.001887 
L 341.796917 184.766402 
L 342.232402 184.968184 
L 343.103374 185.008728 
L 343.538859 185.211204 
L 343.974345 185.054103 
L 344.409831 185.133441 
L 344.845316 184.989908 
L 345.716287 184.972394 
L 346.151773 185.382148 
L 347.45823 185.31307 
L 348.764687 184.519497 
L 350.071144 184.535439 
L 350.50663 184.924228 
L 351.377601 184.821317 
L 351.813086 184.357677 
L 353.119543 184.349357 
L 353.555029 184.751645 
L 354.426 184.722334 
L 354.861486 184.47733 
L 357.4744 184.469435 
L 357.909885 184.701682 
L 360.522799 184.637457 
L 360.958285 184.855489 
L 362.264742 184.826651 
L 362.700228 184.501206 
L 363.135713 184.680483 
L 363.571199 184.995186 
L 365.313141 184.975532 
L 365.748627 185.183391 
L 366.184113 184.842008 
L 366.619598 185.245407 
L 367.926055 185.152904 
L 368.361541 184.960254 
L 369.667998 184.939954 
L 370.103483 185.082363 
L 371.40994 185.147144 
L 371.845426 184.581279 
L 372.716397 184.544888 
L 373.151883 184.165726 
L 375.764797 184.132053 
L 376.200282 184.183071 
L 377.506739 184.806694 
L 377.942225 184.731075 
L 378.377711 185.077936 
L 378.813196 184.98558 
L 379.248682 184.755373 
L 379.684168 184.302736 
L 380.990624 184.289685 
L 381.42611 184.273499 
L 381.861596 184.128325 
L 383.603538 184.198553 
L 384.039024 184.396433 
L 384.47451 184.463197 
L 385.780966 184.251541 
L 386.216452 184.565992 
L 387.522909 184.511046 
L 387.958395 184.476492 
L 388.39388 184.289103 
L 388.829366 184.31021 
L 389.264852 184.828539 
L 391.877765 184.699069 
L 394.926165 184.53672 
L 395.361651 184.099049 
L 395.797136 184.105399 
L 396.232622 183.657358 
L 396.668108 183.799425 
L 398.845536 183.818132 
L 398.845536 183.818132 
" style="fill:none;stroke:#2ca02c;stroke-linecap:square;stroke-opacity:0.8;stroke-width:1.5;"/>
   </g>
   <g id="line2d_21">
    <path clip-path="url(#pcac49bc4e3)" d="M 143.65095 283.24528 
L 185.022086 283.212327 
L 185.457572 283.527694 
L 195.038256 283.498539 
L 195.473741 283.381821 
L 219.425452 283.18536 
L 223.344822 283.157417 
L 229.006136 283.105488 
L 231.183564 283.028467 
L 249.473961 282.764213 
L 279.957956 281.949464 
L 280.828927 282.047088 
L 289.103154 281.854508 
L 289.53864 281.696716 
L 293.022525 281.65714 
L 296.50641 281.590667 
L 333.087204 281.063557 
L 372.280912 280.931864 
L 374.022854 280.919841 
L 374.45834 281.055384 
L 398.845536 280.915774 
L 398.845536 280.915774 
" style="fill:none;stroke:#d62728;stroke-linecap:square;stroke-opacity:0.8;stroke-width:1.5;"/>
   </g>
   <g id="line2d_22">
    <path clip-path="url(#pcac49bc4e3)" d="M 143.65095 280.760856 
L 157.151005 280.463663 
L 158.021976 280.515487 
L 171.522031 280.133074 
L 175.876887 279.994962 
L 201.57054 279.390111 
L 202.441512 279.329649 
L 211.151224 279.216038 
L 229.441621 278.918975 
L 232.925506 278.835665 
L 238.151334 278.723439 
L 242.506191 278.641014 
L 252.957846 278.561324 
L 254.264303 278.597311 
L 255.57076 278.55556 
L 273.425671 278.534878 
L 314.361321 278.361565 
L 317.409721 278.372403 
L 320.45812 278.413698 
L 333.087204 278.450457 
L 333.958175 278.382251 
L 338.748517 278.407877 
L 340.49046 278.427739 
L 355.296972 278.381778 
L 357.038914 278.346768 
L 360.522799 278.354776 
L 367.055084 278.347107 
L 372.280912 278.364338 
L 373.587369 278.316338 
L 378.377711 278.283242 
L 379.684168 278.298099 
L 398.845536 278.258493 
L 398.845536 278.258493 
" style="fill:none;stroke:#9467bd;stroke-linecap:square;stroke-opacity:0.8;stroke-width:1.5;"/>
   </g>
   <g id="patch_3">
    <path d="M 58.73125 288.430125 
L 58.73125 22.318125 
" style="fill:none;stroke:#000000;stroke-linecap:square;stroke-linejoin:miter;stroke-width:0.8;"/>
   </g>
   <g id="patch_4">
    <path d="M 415.85125 288.430125 
L 415.85125 22.318125 
" style="fill:none;stroke:#000000;stroke-linecap:square;stroke-linejoin:miter;stroke-width:0.8;"/>
   </g>
   <g id="patch_5">
    <path d="M 58.73125 288.430125 
L 415.85125 288.430125 
" style="fill:none;stroke:#000000;stroke-linecap:square;stroke-linejoin:miter;stroke-width:0.8;"/>
   </g>
   <g id="patch_6">
    <path d="M 58.73125 22.318125 
L 415.85125 22.318125 
" style="fill:none;stroke:#000000;stroke-linecap:square;stroke-linejoin:miter;stroke-width:0.8;"/>
   </g>
   <g id="text_20">
    <!-- Delete [root] -->
    <g transform="translate(198.961563 16.318125)scale(0.12 -0.12)">
     <defs>
      <path d="M 19.671875 64.796875 
L 19.671875 8.109375 
L 31.59375 8.109375 
Q 46.6875 8.109375 53.6875 14.9375 
Q 60.6875 21.78125 60.6875 36.53125 
Q 60.6875 51.171875 53.6875 57.984375 
Q 46.6875 64.796875 31.59375 64.796875 
z
M 9.8125 72.90625 
L 30.078125 72.90625 
Q 51.265625 72.90625 61.171875 64.09375 
Q 71.09375 55.28125 71.09375 36.53125 
Q 71.09375 17.671875 61.125 8.828125 
Q 51.171875 0 30.078125 0 
L 9.8125 0 
z
" id="DejaVuSans-68"/>
      <path d="M 8.59375 75.984375 
L 29.296875 75.984375 
L 29.296875 69 
L 17.578125 69 
L 17.578125 -6.203125 
L 29.296875 -6.203125 
L 29.296875 -13.1875 
L 8.59375 -13.1875 
z
" id="DejaVuSans-91"/>
      <path d="M 30.421875 75.984375 
L 30.421875 -13.1875 
L 9.71875 -13.1875 
L 9.71875 -6.203125 
L 21.390625 -6.203125 
L 21.390625 69 
L 9.71875 69 
L 9.71875 75.984375 
z
" id="DejaVuSans-93"/>
     </defs>
     <use xlink:href="#DejaVuSans-68"/>
     <use x="77.001953" xlink:href="#DejaVuSans-101"/>
     <use x="138.525391" xlink:href="#DejaVuSans-108"/>
     <use x="166.308594" xlink:href="#DejaVuSans-101"/>
     <use x="227.832031" xlink:href="#DejaVuSans-116"/>
     <use x="267.041016" xlink:href="#DejaVuSans-101"/>
     <use x="328.564453" xlink:href="#DejaVuSans-32"/>
     <use x="360.351562" xlink:href="#DejaVuSans-91"/>
     <use x="399.365234" xlink:href="#DejaVuSans-114"/>
     <use x="438.228516" xlink:href="#DejaVuSans-111"/>
     <use x="499.410156" xlink:href="#DejaVuSans-111"/>
     <use x="560.591797" xlink:href="#DejaVuSans-116"/>
     <use x="599.800781" xlink:href="#DejaVuSans-93"/>
    </g>
   </g>
   <g id="legend_1">
    <g id="patch_7">
     <path d="M 89.733594 365.802375 
L 377.328906 365.802375 
Q 379.328906 365.802375 379.328906 363.802375 
L 379.328906 335.446125 
Q 379.328906 333.446125 377.328906 333.446125 
L 89.733594 333.446125 
Q 87.733594 333.446125 87.733594 335.446125 
L 87.733594 363.802375 
Q 87.733594 365.802375 89.733594 365.802375 
z
" style="fill:#4c4c4c;opacity:0.5;stroke:#4c4c4c;stroke-linejoin:miter;"/>
    </g>
    <g id="patch_8">
     <path d="M 87.733594 363.802375 
L 375.328906 363.802375 
Q 377.328906 363.802375 377.328906 361.802375 
L 377.328906 333.446125 
Q 377.328906 331.446125 375.328906 331.446125 
L 87.733594 331.446125 
Q 85.733594 331.446125 85.733594 333.446125 
L 85.733594 361.802375 
Q 85.733594 363.802375 87.733594 363.802375 
z
" style="fill:#ffffff;stroke:#cccccc;stroke-linejoin:miter;"/>
    </g>
    <g id="line2d_23">
     <path d="M 89.733594 339.544562 
L 109.733594 339.544562 
" style="fill:none;stroke:#1f77b4;stroke-linecap:square;stroke-opacity:0.8;stroke-width:1.5;"/>
    </g>
    <g id="line2d_24"/>
    <g id="text_21">
     <!-- MPTT -->
     <g transform="translate(117.733594 343.044562)scale(0.1 -0.1)">
      <defs>
       <path d="M 9.8125 72.90625 
L 24.515625 72.90625 
L 43.109375 23.296875 
L 61.8125 72.90625 
L 76.515625 72.90625 
L 76.515625 0 
L 66.890625 0 
L 66.890625 64.015625 
L 48.09375 14.015625 
L 38.1875 14.015625 
L 19.390625 64.015625 
L 19.390625 0 
L 9.8125 0 
z
" id="DejaVuSans-77"/>
       <path d="M 19.671875 64.796875 
L 19.671875 37.40625 
L 32.078125 37.40625 
Q 38.96875 37.40625 42.71875 40.96875 
Q 46.484375 44.53125 46.484375 51.125 
Q 46.484375 57.671875 42.71875 61.234375 
Q 38.96875 64.796875 32.078125 64.796875 
z
M 9.8125 72.90625 
L 32.078125 72.90625 
Q 44.34375 72.90625 50.609375 67.359375 
Q 56.890625 61.8125 56.890625 51.125 
Q 56.890625 40.328125 50.609375 34.8125 
Q 44.34375 29.296875 32.078125 29.296875 
L 19.671875 29.296875 
L 19.671875 0 
L 9.8125 0 
z
" id="DejaVuSans-80"/>
       <path d="M -0.296875 72.90625 
L 61.375 72.90625 
L 61.375 64.59375 
L 35.5 64.59375 
L 35.5 0 
L 25.59375 0 
L 25.59375 64.59375 
L -0.296875 64.59375 
z
" id="DejaVuSans-84"/>
      </defs>
      <use xlink:href="#DejaVuSans-77"/>
      <use x="86.279297" xlink:href="#DejaVuSans-80"/>
      <use x="146.582031" xlink:href="#DejaVuSans-84"/>
      <use x="205.916016" xlink:href="#DejaVuSans-84"/>
     </g>
    </g>
    <g id="line2d_25">
     <path d="M 89.733594 354.222687 
L 109.733594 354.222687 
" style="fill:none;stroke:#ff7f0e;stroke-linecap:square;stroke-opacity:0.8;stroke-width:1.5;"/>
    </g>
    <g id="line2d_26"/>
    <g id="text_22">
     <!-- tree -->
     <g transform="translate(117.733594 357.722687)scale(0.1 -0.1)">
      <use xlink:href="#DejaVuSans-116"/>
      <use x="39.208984" xlink:href="#DejaVuSans-114"/>
      <use x="78.072266" xlink:href="#DejaVuSans-101"/>
      <use x="139.595703" xlink:href="#DejaVuSans-101"/>
     </g>
    </g>
    <g id="line2d_27">
     <path d="M 164.432031 339.544562 
L 184.432031 339.544562 
" style="fill:none;stroke:#2ca02c;stroke-linecap:square;stroke-opacity:0.8;stroke-width:1.5;"/>
    </g>
    <g id="line2d_28"/>
    <g id="text_23">
     <!-- treebeard AL -->
     <g transform="translate(192.432031 343.044562)scale(0.1 -0.1)">
      <defs>
       <path d="M 45.40625 46.390625 
L 45.40625 75.984375 
L 54.390625 75.984375 
L 54.390625 0 
L 45.40625 0 
L 45.40625 8.203125 
Q 42.578125 3.328125 38.25 0.953125 
Q 33.9375 -1.421875 27.875 -1.421875 
Q 17.96875 -1.421875 11.734375 6.484375 
Q 5.515625 14.40625 5.515625 27.296875 
Q 5.515625 40.1875 11.734375 48.09375 
Q 17.96875 56 27.875 56 
Q 33.9375 56 38.25 53.625 
Q 42.578125 51.265625 45.40625 46.390625 
z
M 14.796875 27.296875 
Q 14.796875 17.390625 18.875 11.75 
Q 22.953125 6.109375 30.078125 6.109375 
Q 37.203125 6.109375 41.296875 11.75 
Q 45.40625 17.390625 45.40625 27.296875 
Q 45.40625 37.203125 41.296875 42.84375 
Q 37.203125 48.484375 30.078125 48.484375 
Q 22.953125 48.484375 18.875 42.84375 
Q 14.796875 37.203125 14.796875 27.296875 
z
" id="DejaVuSans-100"/>
       <path d="M 9.8125 72.90625 
L 19.671875 72.90625 
L 19.671875 8.296875 
L 55.171875 8.296875 
L 55.171875 0 
L 9.8125 0 
z
" id="DejaVuSans-76"/>
      </defs>
      <use xlink:href="#DejaVuSans-116"/>
      <use x="39.208984" xlink:href="#DejaVuSans-114"/>
      <use x="78.072266" xlink:href="#DejaVuSans-101"/>
      <use x="139.595703" xlink:href="#DejaVuSans-101"/>
      <use x="201.119141" xlink:href="#DejaVuSans-98"/>
      <use x="264.595703" xlink:href="#DejaVuSans-101"/>
      <use x="326.119141" xlink:href="#DejaVuSans-97"/>
      <use x="387.398438" xlink:href="#DejaVuSans-114"/>
      <use x="426.761719" xlink:href="#DejaVuSans-100"/>
      <use x="490.238281" xlink:href="#DejaVuSans-32"/>
      <use x="522.025391" xlink:href="#DejaVuSans-65"/>
      <use x="590.433594" xlink:href="#DejaVuSans-76"/>
     </g>
    </g>
    <g id="line2d_29">
     <path d="M 164.432031 354.222687 
L 184.432031 354.222687 
" style="fill:none;stroke:#d62728;stroke-linecap:square;stroke-opacity:0.8;stroke-width:1.5;"/>
    </g>
    <g id="line2d_30"/>
    <g id="text_24">
     <!-- treebeard MP -->
     <g transform="translate(192.432031 357.722687)scale(0.1 -0.1)">
      <use xlink:href="#DejaVuSans-116"/>
      <use x="39.208984" xlink:href="#DejaVuSans-114"/>
      <use x="78.072266" xlink:href="#DejaVuSans-101"/>
      <use x="139.595703" xlink:href="#DejaVuSans-101"/>
      <use x="201.119141" xlink:href="#DejaVuSans-98"/>
      <use x="264.595703" xlink:href="#DejaVuSans-101"/>
      <use x="326.119141" xlink:href="#DejaVuSans-97"/>
      <use x="387.398438" xlink:href="#DejaVuSans-114"/>
      <use x="426.761719" xlink:href="#DejaVuSans-100"/>
      <use x="490.238281" xlink:href="#DejaVuSans-32"/>
      <use x="522.025391" xlink:href="#DejaVuSans-77"/>
      <use x="608.304688" xlink:href="#DejaVuSans-80"/>
     </g>
    </g>
    <g id="line2d_31">
     <path d="M 279.294531 339.544562 
L 299.294531 339.544562 
" style="fill:none;stroke:#9467bd;stroke-linecap:square;stroke-opacity:0.8;stroke-width:1.5;"/>
    </g>
    <g id="line2d_32"/>
    <g id="text_25">
     <!-- treebeard NS -->
     <g transform="translate(307.294531 343.044562)scale(0.1 -0.1)">
      <defs>
       <path d="M 9.8125 72.90625 
L 23.09375 72.90625 
L 55.421875 11.921875 
L 55.421875 72.90625 
L 64.984375 72.90625 
L 64.984375 0 
L 51.703125 0 
L 19.390625 60.984375 
L 19.390625 0 
L 9.8125 0 
z
" id="DejaVuSans-78"/>
       <path d="M 53.515625 70.515625 
L 53.515625 60.890625 
Q 47.90625 63.578125 42.921875 64.890625 
Q 37.9375 66.21875 33.296875 66.21875 
Q 25.25 66.21875 20.875 63.09375 
Q 16.5 59.96875 16.5 54.203125 
Q 16.5 49.359375 19.40625 46.890625 
Q 22.3125 44.4375 30.421875 42.921875 
L 36.375 41.703125 
Q 47.40625 39.59375 52.65625 34.296875 
Q 57.90625 29 57.90625 20.125 
Q 57.90625 9.515625 50.796875 4.046875 
Q 43.703125 -1.421875 29.984375 -1.421875 
Q 24.8125 -1.421875 18.96875 -0.25 
Q 13.140625 0.921875 6.890625 3.21875 
L 6.890625 13.375 
Q 12.890625 10.015625 18.65625 8.296875 
Q 24.421875 6.59375 29.984375 6.59375 
Q 38.421875 6.59375 43.015625 9.90625 
Q 47.609375 13.234375 47.609375 19.390625 
Q 47.609375 24.75 44.3125 27.78125 
Q 41.015625 30.8125 33.5 32.328125 
L 27.484375 33.5 
Q 16.453125 35.6875 11.515625 40.375 
Q 6.59375 45.0625 6.59375 53.421875 
Q 6.59375 63.09375 13.40625 68.65625 
Q 20.21875 74.21875 32.171875 74.21875 
Q 37.3125 74.21875 42.625 73.28125 
Q 47.953125 72.359375 53.515625 70.515625 
z
" id="DejaVuSans-83"/>
      </defs>
      <use xlink:href="#DejaVuSans-116"/>
      <use x="39.208984" xlink:href="#DejaVuSans-114"/>
      <use x="78.072266" xlink:href="#DejaVuSans-101"/>
      <use x="139.595703" xlink:href="#DejaVuSans-101"/>
      <use x="201.119141" xlink:href="#DejaVuSans-98"/>
      <use x="264.595703" xlink:href="#DejaVuSans-101"/>
      <use x="326.119141" xlink:href="#DejaVuSans-97"/>
      <use x="387.398438" xlink:href="#DejaVuSans-114"/>
      <use x="426.761719" xlink:href="#DejaVuSans-100"/>
      <use x="490.238281" xlink:href="#DejaVuSans-32"/>
      <use x="522.025391" xlink:href="#DejaVuSans-78"/>
      <use x="596.830078" xlink:href="#DejaVuSans-83"/>
     </g>
    </g>
   </g>
  </g>
 </g>
 <defs>
  <clipPath id="pcac49bc4e3">
   <rect height="266.112" width="357.12" x="58.73125" y="22.318125"/>
  </clipPath>
 </defs>
</svg>
