<?xml version="1.0" encoding="utf-8" standalone="no"?>
<!DOCTYPE svg PUBLIC "-//W3C//DTD SVG 1.1//EN"
  "http://www.w3.org/Graphics/SVG/1.1/DTD/svg11.dtd">
<svg xmlns:xlink="http://www.w3.org/1999/xlink" width="426.035625pt" height="371.002375pt" viewBox="0 0 426.035625 371.002375" xmlns="http://www.w3.org/2000/svg" version="1.1">
 <metadata>
  <rdf:RDF xmlns:dc="http://purl.org/dc/elements/1.1/" xmlns:cc="http://creativecommons.org/ns#" xmlns:rdf="http://www.w3.org/1999/02/22-rdf-syntax-ns#">
   <cc:Work>
    <dc:type rdf:resource="http://purl.org/dc/dcmitype/StillImage"/>
    <dc:date>2026-06-28T13:20:17.247352</dc:date>
    <dc:format>image/svg+xml</dc:format>
    <dc:creator>
     <cc:Agent>
      <dc:title>Matplotlib v3.10.6, https://matplotlib.org/</dc:title>
     </cc:Agent>
    </dc:creator>
   </cc:Work>
  </rdf:RDF>
 </metadata>
 <defs>
  <style type="text/css">*{stroke-linejoin: round; stroke-linecap: butt}</style>
 </defs>
 <g id="figure_1">
  <g id="patch_1">
   <path d="M 0 371.002375 
L 426.035625 371.002375 
L 426.035625 0 
L 0 0 
z
" style="fill: #ffffff"/>
  </g>
  <g id="axes_1">
   <g id="patch_2">
    <path d="M 61.715625 288.430125 
L 418.835625 288.430125 
L 418.835625 22.318125 
L 61.715625 22.318125 
z
" style="fill: #ffffff"/>
   </g>
   <g id="matplotlib.axis_1">
    <g id="xtick_1">
     <g id="line2d_1">
      <defs>
       <path id="m45f5775719" d="M 0 0 
L 0 3.5 
" style="stroke: #000000; stroke-width: 0.8"/>
      </defs>
      <g>
       <use xlink:href="#m45f5775719" x="61.715625" y="288.430125" style="stroke: #000000; stroke-width: 0.8"/>
      </g>
     </g>
     <g id="text_1">
      <!-- 0 -->
      <g transform="translate(58.534375 303.028562) scale(0.1 -0.1)">
       <defs>
        <path id="DejaVuSans-30" d="M 2034 4250 
Q 1547 4250 1301 3770 
Q 1056 3291 1056 2328 
Q 1056 1369 1301 889 
Q 1547 409 2034 409 
Q 2525 409 2770 889 
Q 3016 1369 3016 2328 
Q 3016 3291 2770 3770 
Q 2525 4250 2034 4250 
z
M 2034 4750 
Q 2819 4750 3233 4129 
Q 3647 3509 3647 2328 
Q 3647 1150 3233 529 
Q 2819 -91 2034 -91 
Q 1250 -91 836 529 
Q 422 1150 422 2328 
Q 422 3509 836 4129 
Q 1250 4750 2034 4750 
z
" transform="scale(0.015625)"/>
       </defs>
       <use xlink:href="#DejaVuSans-30"/>
      </g>
     </g>
    </g>
    <g id="xtick_2">
     <g id="line2d_2">
      <g>
       <use xlink:href="#m45f5775719" x="105.264189" y="288.430125" style="stroke: #000000; stroke-width: 0.8"/>
      </g>
     </g>
     <g id="text_2">
      <!-- 500  -->
      <g transform="translate(94.131377 303.028562) scale(0.1 -0.1)">
       <defs>
        <path id="DejaVuSans-35" d="M 691 4666 
L 3169 4666 
L 3169 4134 
L 1269 4134 
L 1269 2991 
Q 1406 3038 1543 3061 
Q 1681 3084 1819 3084 
Q 2600 3084 3056 2656 
Q 3513 2228 3513 1497 
Q 3513 744 3044 326 
Q 2575 -91 1722 -91 
Q 1428 -91 1123 -41 
Q 819 9 494 109 
L 494 744 
Q 775 591 1075 516 
Q 1375 441 1709 441 
Q 2250 441 2565 725 
Q 2881 1009 2881 1497 
Q 2881 1984 2565 2268 
Q 2250 2553 1709 2553 
Q 1456 2553 1204 2497 
Q 953 2441 691 2322 
L 691 4666 
z
" transform="scale(0.015625)"/>
        <path id="DejaVuSans-20" transform="scale(0.015625)"/>
       </defs>
       <use xlink:href="#DejaVuSans-35"/>
       <use xlink:href="#DejaVuSans-30" transform="translate(63.623047 0)"/>
       <use xlink:href="#DejaVuSans-30" transform="translate(127.246094 0)"/>
       <use xlink:href="#DejaVuSans-20" transform="translate(190.869141 0)"/>
      </g>
     </g>
    </g>
    <g id="xtick_3">
     <g id="line2d_3">
      <g>
       <use xlink:href="#m45f5775719" x="148.812753" y="288.430125" style="stroke: #000000; stroke-width: 0.8"/>
      </g>
     </g>
     <g id="text_3">
      <!-- 1 k -->
      <g transform="translate(141.147128 303.028562) scale(0.1 -0.1)">
       <defs>
        <path id="DejaVuSans-31" d="M 794 531 
L 1825 531 
L 1825 4091 
L 703 3866 
L 703 4441 
L 1819 4666 
L 2450 4666 
L 2450 531 
L 3481 531 
L 3481 0 
L 794 0 
L 794 531 
z
" transform="scale(0.015625)"/>
        <path id="DejaVuSans-6b" d="M 581 4863 
L 1159 4863 
L 1159 1991 
L 2875 3500 
L 3609 3500 
L 1753 1863 
L 3688 0 
L 2938 0 
L 1159 1709 
L 1159 0 
L 581 0 
L 581 4863 
z
" transform="scale(0.015625)"/>
       </defs>
       <use xlink:href="#DejaVuSans-31"/>
       <use xlink:href="#DejaVuSans-20" transform="translate(63.623047 0)"/>
       <use xlink:href="#DejaVuSans-6b" transform="translate(95.410156 0)"/>
      </g>
     </g>
    </g>
    <g id="xtick_4">
     <g id="line2d_4">
      <g>
       <use xlink:href="#m45f5775719" x="192.361317" y="288.430125" style="stroke: #000000; stroke-width: 0.8"/>
      </g>
     </g>
     <g id="text_4">
      <!-- 1.5 k -->
      <g transform="translate(179.92538 303.028562) scale(0.1 -0.1)">
       <defs>
        <path id="DejaVuSans-2e" d="M 684 794 
L 1344 794 
L 1344 0 
L 684 0 
L 684 794 
z
" transform="scale(0.015625)"/>
       </defs>
       <use xlink:href="#DejaVuSans-31"/>
       <use xlink:href="#DejaVuSans-2e" transform="translate(63.623047 0)"/>
       <use xlink:href="#DejaVuSans-35" transform="translate(95.410156 0)"/>
       <use xlink:href="#DejaVuSans-20" transform="translate(159.033203 0)"/>
       <use xlink:href="#DejaVuSans-6b" transform="translate(190.820312 0)"/>
      </g>
     </g>
    </g>
    <g id="xtick_5">
     <g id="line2d_5">
      <g>
       <use xlink:href="#m45f5775719" x="235.909881" y="288.430125" style="stroke: #000000; stroke-width: 0.8"/>
      </g>
     </g>
     <g id="text_5">
      <!-- 2 k -->
      <g transform="translate(228.244256 303.028562) scale(0.1 -0.1)">
       <defs>
        <path id="DejaVuSans-32" d="M 1228 531 
L 3431 531 
L 3431 0 
L 469 0 
L 469 531 
Q 828 903 1448 1529 
Q 2069 2156 2228 2338 
Q 2531 2678 2651 2914 
Q 2772 3150 2772 3378 
Q 2772 3750 2511 3984 
Q 2250 4219 1831 4219 
Q 1534 4219 1204 4116 
Q 875 4013 500 3803 
L 500 4441 
Q 881 4594 1212 4672 
Q 1544 4750 1819 4750 
Q 2544 4750 2975 4387 
Q 3406 4025 3406 3419 
Q 3406 3131 3298 2873 
Q 3191 2616 2906 2266 
Q 2828 2175 2409 1742 
Q 1991 1309 1228 531 
z
" transform="scale(0.015625)"/>
       </defs>
       <use xlink:href="#DejaVuSans-32"/>
       <use xlink:href="#DejaVuSans-20" transform="translate(63.623047 0)"/>
       <use xlink:href="#DejaVuSans-6b" transform="translate(95.410156 0)"/>
      </g>
     </g>
    </g>
    <g id="xtick_6">
     <g id="line2d_6">
      <g>
       <use xlink:href="#m45f5775719" x="279.458446" y="288.430125" style="stroke: #000000; stroke-width: 0.8"/>
      </g>
     </g>
     <g id="text_6">
      <!-- 2.5 k -->
      <g transform="translate(267.022508 303.028562) scale(0.1 -0.1)">
       <use xlink:href="#DejaVuSans-32"/>
       <use xlink:href="#DejaVuSans-2e" transform="translate(63.623047 0)"/>
       <use xlink:href="#DejaVuSans-35" transform="translate(95.410156 0)"/>
       <use xlink:href="#DejaVuSans-20" transform="translate(159.033203 0)"/>
       <use xlink:href="#DejaVuSans-6b" transform="translate(190.820312 0)"/>
      </g>
     </g>
    </g>
    <g id="xtick_7">
     <g id="line2d_7">
      <g>
       <use xlink:href="#m45f5775719" x="323.00701" y="288.430125" style="stroke: #000000; stroke-width: 0.8"/>
      </g>
     </g>
     <g id="text_7">
      <!-- 3 k -->
      <g transform="translate(315.341385 303.028562) scale(0.1 -0.1)">
       <defs>
        <path id="DejaVuSans-33" d="M 2597 2516 
Q 3050 2419 3304 2112 
Q 3559 1806 3559 1356 
Q 3559 666 3084 287 
Q 2609 -91 1734 -91 
Q 1441 -91 1130 -33 
Q 819 25 488 141 
L 488 750 
Q 750 597 1062 519 
Q 1375 441 1716 441 
Q 2309 441 2620 675 
Q 2931 909 2931 1356 
Q 2931 1769 2642 2001 
Q 2353 2234 1838 2234 
L 1294 2234 
L 1294 2753 
L 1863 2753 
Q 2328 2753 2575 2939 
Q 2822 3125 2822 3475 
Q 2822 3834 2567 4026 
Q 2313 4219 1838 4219 
Q 1578 4219 1281 4162 
Q 984 4106 628 3988 
L 628 4550 
Q 988 4650 1302 4700 
Q 1616 4750 1894 4750 
Q 2613 4750 3031 4423 
Q 3450 4097 3450 3541 
Q 3450 3153 3228 2886 
Q 3006 2619 2597 2516 
z
" transform="scale(0.015625)"/>
       </defs>
       <use xlink:href="#DejaVuSans-33"/>
       <use xlink:href="#DejaVuSans-20" transform="translate(63.623047 0)"/>
       <use xlink:href="#DejaVuSans-6b" transform="translate(95.410156 0)"/>
      </g>
     </g>
    </g>
    <g id="xtick_8">
     <g id="line2d_8">
      <g>
       <use xlink:href="#m45f5775719" x="366.555574" y="288.430125" style="stroke: #000000; stroke-width: 0.8"/>
      </g>
     </g>
     <g id="text_8">
      <!-- 3.5 k -->
      <g transform="translate(354.119636 303.028562) scale(0.1 -0.1)">
       <use xlink:href="#DejaVuSans-33"/>
       <use xlink:href="#DejaVuSans-2e" transform="translate(63.623047 0)"/>
       <use xlink:href="#DejaVuSans-35" transform="translate(95.410156 0)"/>
       <use xlink:href="#DejaVuSans-20" transform="translate(159.033203 0)"/>
       <use xlink:href="#DejaVuSans-6b" transform="translate(190.820312 0)"/>
      </g>
     </g>
    </g>
    <g id="xtick_9">
     <g id="line2d_9">
      <g>
       <use xlink:href="#m45f5775719" x="410.104138" y="288.430125" style="stroke: #000000; stroke-width: 0.8"/>
      </g>
     </g>
     <g id="text_9">
      <!-- 4 k -->
      <g transform="translate(402.438513 303.028562) scale(0.1 -0.1)">
       <defs>
        <path id="DejaVuSans-34" d="M 2419 4116 
L 825 1625 
L 2419 1625 
L 2419 4116 
z
M 2253 4666 
L 3047 4666 
L 3047 1625 
L 3713 1625 
L 3713 1100 
L 3047 1100 
L 3047 0 
L 2419 0 
L 2419 1100 
L 313 1100 
L 313 1709 
L 2253 4666 
z
" transform="scale(0.015625)"/>
       </defs>
       <use xlink:href="#DejaVuSans-34"/>
       <use xlink:href="#DejaVuSans-20" transform="translate(63.623047 0)"/>
       <use xlink:href="#DejaVuSans-6b" transform="translate(95.410156 0)"/>
      </g>
     </g>
    </g>
    <g id="text_10">
     <!-- Amount of objects in table -->
     <g transform="translate(174.217031 316.706687) scale(0.1 -0.1)">
      <defs>
       <path id="DejaVuSans-41" d="M 2188 4044 
L 1331 1722 
L 3047 1722 
L 2188 4044 
z
M 1831 4666 
L 2547 4666 
L 4325 0 
L 3669 0 
L 3244 1197 
L 1141 1197 
L 716 0 
L 50 0 
L 1831 4666 
z
" transform="scale(0.015625)"/>
       <path id="DejaVuSans-6d" d="M 3328 2828 
Q 3544 3216 3844 3400 
Q 4144 3584 4550 3584 
Q 5097 3584 5394 3201 
Q 5691 2819 5691 2113 
L 5691 0 
L 5113 0 
L 5113 2094 
Q 5113 2597 4934 2840 
Q 4756 3084 4391 3084 
Q 3944 3084 3684 2787 
Q 3425 2491 3425 1978 
L 3425 0 
L 2847 0 
L 2847 2094 
Q 2847 2600 2669 2842 
Q 2491 3084 2119 3084 
Q 1678 3084 1418 2786 
Q 1159 2488 1159 1978 
L 1159 0 
L 581 0 
L 581 3500 
L 1159 3500 
L 1159 2956 
Q 1356 3278 1631 3431 
Q 1906 3584 2284 3584 
Q 2666 3584 2933 3390 
Q 3200 3197 3328 2828 
z
" transform="scale(0.015625)"/>
       <path id="DejaVuSans-6f" d="M 1959 3097 
Q 1497 3097 1228 2736 
Q 959 2375 959 1747 
Q 959 1119 1226 758 
Q 1494 397 1959 397 
Q 2419 397 2687 759 
Q 2956 1122 2956 1747 
Q 2956 2369 2687 2733 
Q 2419 3097 1959 3097 
z
M 1959 3584 
Q 2709 3584 3137 3096 
Q 3566 2609 3566 1747 
Q 3566 888 3137 398 
Q 2709 -91 1959 -91 
Q 1206 -91 779 398 
Q 353 888 353 1747 
Q 353 2609 779 3096 
Q 1206 3584 1959 3584 
z
" transform="scale(0.015625)"/>
       <path id="DejaVuSans-75" d="M 544 1381 
L 544 3500 
L 1119 3500 
L 1119 1403 
Q 1119 906 1312 657 
Q 1506 409 1894 409 
Q 2359 409 2629 706 
Q 2900 1003 2900 1516 
L 2900 3500 
L 3475 3500 
L 3475 0 
L 2900 0 
L 2900 538 
Q 2691 219 2414 64 
Q 2138 -91 1772 -91 
Q 1169 -91 856 284 
Q 544 659 544 1381 
z
M 1991 3584 
L 1991 3584 
z
" transform="scale(0.015625)"/>
       <path id="DejaVuSans-6e" d="M 3513 2113 
L 3513 0 
L 2938 0 
L 2938 2094 
Q 2938 2591 2744 2837 
Q 2550 3084 2163 3084 
Q 1697 3084 1428 2787 
Q 1159 2491 1159 1978 
L 1159 0 
L 581 0 
L 581 3500 
L 1159 3500 
L 1159 2956 
Q 1366 3272 1645 3428 
Q 1925 3584 2291 3584 
Q 2894 3584 3203 3211 
Q 3513 2838 3513 2113 
z
" transform="scale(0.015625)"/>
       <path id="DejaVuSans-74" d="M 1172 4494 
L 1172 3500 
L 2356 3500 
L 2356 3053 
L 1172 3053 
L 1172 1153 
Q 1172 725 1289 603 
Q 1406 481 1766 481 
L 2356 481 
L 2356 0 
L 1766 0 
Q 1100 0 847 248 
Q 594 497 594 1153 
L 594 3053 
L 172 3053 
L 172 3500 
L 594 3500 
L 594 4494 
L 1172 4494 
z
" transform="scale(0.015625)"/>
       <path id="DejaVuSans-66" d="M 2375 4863 
L 2375 4384 
L 1825 4384 
Q 1516 4384 1395 4259 
Q 1275 4134 1275 3809 
L 1275 3500 
L 2222 3500 
L 2222 3053 
L 1275 3053 
L 1275 0 
L 697 0 
L 697 3053 
L 147 3053 
L 147 3500 
L 697 3500 
L 697 3744 
Q 697 4328 969 4595 
Q 1241 4863 1831 4863 
L 2375 4863 
z
" transform="scale(0.015625)"/>
       <path id="DejaVuSans-62" d="M 3116 1747 
Q 3116 2381 2855 2742 
Q 2594 3103 2138 3103 
Q 1681 3103 1420 2742 
Q 1159 2381 1159 1747 
Q 1159 1113 1420 752 
Q 1681 391 2138 391 
Q 2594 391 2855 752 
Q 3116 1113 3116 1747 
z
M 1159 2969 
Q 1341 3281 1617 3432 
Q 1894 3584 2278 3584 
Q 2916 3584 3314 3078 
Q 3713 2572 3713 1747 
Q 3713 922 3314 415 
Q 2916 -91 2278 -91 
Q 1894 -91 1617 61 
Q 1341 213 1159 525 
L 1159 0 
L 581 0 
L 581 4863 
L 1159 4863 
L 1159 2969 
z
" transform="scale(0.015625)"/>
       <path id="DejaVuSans-6a" d="M 603 3500 
L 1178 3500 
L 1178 -63 
Q 1178 -731 923 -1031 
Q 669 -1331 103 -1331 
L -116 -1331 
L -116 -844 
L 38 -844 
Q 366 -844 484 -692 
Q 603 -541 603 -63 
L 603 3500 
z
M 603 4863 
L 1178 4863 
L 1178 4134 
L 603 4134 
L 603 4863 
z
" transform="scale(0.015625)"/>
       <path id="DejaVuSans-65" d="M 3597 1894 
L 3597 1613 
L 953 1613 
Q 991 1019 1311 708 
Q 1631 397 2203 397 
Q 2534 397 2845 478 
Q 3156 559 3463 722 
L 3463 178 
Q 3153 47 2828 -22 
Q 2503 -91 2169 -91 
Q 1331 -91 842 396 
Q 353 884 353 1716 
Q 353 2575 817 3079 
Q 1281 3584 2069 3584 
Q 2775 3584 3186 3129 
Q 3597 2675 3597 1894 
z
M 3022 2063 
Q 3016 2534 2758 2815 
Q 2500 3097 2075 3097 
Q 1594 3097 1305 2825 
Q 1016 2553 972 2059 
L 3022 2063 
z
" transform="scale(0.015625)"/>
       <path id="DejaVuSans-63" d="M 3122 3366 
L 3122 2828 
Q 2878 2963 2633 3030 
Q 2388 3097 2138 3097 
Q 1578 3097 1268 2742 
Q 959 2388 959 1747 
Q 959 1106 1268 751 
Q 1578 397 2138 397 
Q 2388 397 2633 464 
Q 2878 531 3122 666 
L 3122 134 
Q 2881 22 2623 -34 
Q 2366 -91 2075 -91 
Q 1284 -91 818 406 
Q 353 903 353 1747 
Q 353 2603 823 3093 
Q 1294 3584 2113 3584 
Q 2378 3584 2631 3529 
Q 2884 3475 3122 3366 
z
" transform="scale(0.015625)"/>
       <path id="DejaVuSans-73" d="M 2834 3397 
L 2834 2853 
Q 2591 2978 2328 3040 
Q 2066 3103 1784 3103 
Q 1356 3103 1142 2972 
Q 928 2841 928 2578 
Q 928 2378 1081 2264 
Q 1234 2150 1697 2047 
L 1894 2003 
Q 2506 1872 2764 1633 
Q 3022 1394 3022 966 
Q 3022 478 2636 193 
Q 2250 -91 1575 -91 
Q 1294 -91 989 -36 
Q 684 19 347 128 
L 347 722 
Q 666 556 975 473 
Q 1284 391 1588 391 
Q 1994 391 2212 530 
Q 2431 669 2431 922 
Q 2431 1156 2273 1281 
Q 2116 1406 1581 1522 
L 1381 1569 
Q 847 1681 609 1914 
Q 372 2147 372 2553 
Q 372 3047 722 3315 
Q 1072 3584 1716 3584 
Q 2034 3584 2315 3537 
Q 2597 3491 2834 3397 
z
" transform="scale(0.015625)"/>
       <path id="DejaVuSans-69" d="M 603 3500 
L 1178 3500 
L 1178 0 
L 603 0 
L 603 3500 
z
M 603 4863 
L 1178 4863 
L 1178 4134 
L 603 4134 
L 603 4863 
z
" transform="scale(0.015625)"/>
       <path id="DejaVuSans-61" d="M 2194 1759 
Q 1497 1759 1228 1600 
Q 959 1441 959 1056 
Q 959 750 1161 570 
Q 1363 391 1709 391 
Q 2188 391 2477 730 
Q 2766 1069 2766 1631 
L 2766 1759 
L 2194 1759 
z
M 3341 1997 
L 3341 0 
L 2766 0 
L 2766 531 
Q 2569 213 2275 61 
Q 1981 -91 1556 -91 
Q 1019 -91 701 211 
Q 384 513 384 1019 
Q 384 1609 779 1909 
Q 1175 2209 1959 2209 
L 2766 2209 
L 2766 2266 
Q 2766 2663 2505 2880 
Q 2244 3097 1772 3097 
Q 1472 3097 1187 3025 
Q 903 2953 641 2809 
L 641 3341 
Q 956 3463 1253 3523 
Q 1550 3584 1831 3584 
Q 2591 3584 2966 3190 
Q 3341 2797 3341 1997 
z
" transform="scale(0.015625)"/>
       <path id="DejaVuSans-6c" d="M 603 4863 
L 1178 4863 
L 1178 0 
L 603 0 
L 603 4863 
z
" transform="scale(0.015625)"/>
      </defs>
      <use xlink:href="#DejaVuSans-41"/>
      <use xlink:href="#DejaVuSans-6d" transform="translate(68.408203 0)"/>
      <use xlink:href="#DejaVuSans-6f" transform="translate(165.820312 0)"/>
      <use xlink:href="#DejaVuSans-75" transform="translate(227.001953 0)"/>
      <use xlink:href="#DejaVuSans-6e" transform="translate(290.380859 0)"/>
      <use xlink:href="#DejaVuSans-74" transform="translate(353.759766 0)"/>
      <use xlink:href="#DejaVuSans-20" transform="translate(392.96875 0)"/>
      <use xlink:href="#DejaVuSans-6f" transform="translate(424.755859 0)"/>
      <use xlink:href="#DejaVuSans-66" transform="translate(485.9375 0)"/>
      <use xlink:href="#DejaVuSans-20" transform="translate(521.142578 0)"/>
      <use xlink:href="#DejaVuSans-6f" transform="translate(552.929688 0)"/>
      <use xlink:href="#DejaVuSans-62" transform="translate(614.111328 0)"/>
      <use xlink:href="#DejaVuSans-6a" transform="translate(677.587891 0)"/>
      <use xlink:href="#DejaVuSans-65" transform="translate(705.371094 0)"/>
      <use xlink:href="#DejaVuSans-63" transform="translate(766.894531 0)"/>
      <use xlink:href="#DejaVuSans-74" transform="translate(821.875 0)"/>
      <use xlink:href="#DejaVuSans-73" transform="translate(861.083984 0)"/>
      <use xlink:href="#DejaVuSans-20" transform="translate(913.183594 0)"/>
      <use xlink:href="#DejaVuSans-69" transform="translate(944.970703 0)"/>
      <use xlink:href="#DejaVuSans-6e" transform="translate(972.753906 0)"/>
      <use xlink:href="#DejaVuSans-20" transform="translate(1036.132812 0)"/>
      <use xlink:href="#DejaVuSans-74" transform="translate(1067.919922 0)"/>
      <use xlink:href="#DejaVuSans-61" transform="translate(1107.128906 0)"/>
      <use xlink:href="#DejaVuSans-62" transform="translate(1168.408203 0)"/>
      <use xlink:href="#DejaVuSans-6c" transform="translate(1231.884766 0)"/>
      <use xlink:href="#DejaVuSans-65" transform="translate(1259.667969 0)"/>
     </g>
    </g>
   </g>
   <g id="matplotlib.axis_2">
    <g id="ytick_1">
     <g id="line2d_10">
      <defs>
       <path id="mad66df910f" d="M 0 0 
L -3.5 0 
" style="stroke: #000000; stroke-width: 0.8"/>
      </defs>
      <g>
       <use xlink:href="#mad66df910f" x="61.715625" y="288.430125" style="stroke: #000000; stroke-width: 0.8"/>
      </g>
     </g>
     <g id="text_11">
      <!-- 0 -->
      <g transform="translate(48.353125 292.229344) scale(0.1 -0.1)">
       <use xlink:href="#DejaVuSans-30"/>
      </g>
     </g>
    </g>
    <g id="ytick_2">
     <g id="line2d_11">
      <g>
       <use xlink:href="#mad66df910f" x="61.715625" y="250.249535" style="stroke: #000000; stroke-width: 0.8"/>
      </g>
     </g>
     <g id="text_12">
      <!-- 100 µs -->
      <g transform="translate(20.878125 254.048754) scale(0.1 -0.1)">
       <defs>
        <path id="DejaVuSans-b5" d="M 544 -1331 
L 544 3500 
L 1119 3500 
L 1119 1325 
Q 1119 872 1334 640 
Q 1550 409 1972 409 
Q 2434 409 2667 671 
Q 2900 934 2900 1459 
L 2900 3500 
L 3475 3500 
L 3475 806 
Q 3475 619 3529 530 
Q 3584 441 3700 441 
Q 3728 441 3778 458 
Q 3828 475 3916 513 
L 3916 50 
Q 3788 -22 3673 -56 
Q 3559 -91 3450 -91 
Q 3234 -91 3106 31 
Q 2978 153 2931 403 
Q 2775 156 2548 32 
Q 2322 -91 2016 -91 
Q 1697 -91 1473 31 
Q 1250 153 1119 397 
L 1119 -1331 
L 544 -1331 
z
" transform="scale(0.015625)"/>
       </defs>
       <use xlink:href="#DejaVuSans-31"/>
       <use xlink:href="#DejaVuSans-30" transform="translate(63.623047 0)"/>
       <use xlink:href="#DejaVuSans-30" transform="translate(127.246094 0)"/>
       <use xlink:href="#DejaVuSans-20" transform="translate(190.869141 0)"/>
       <use xlink:href="#DejaVuSans-b5" transform="translate(222.65625 0)"/>
       <use xlink:href="#DejaVuSans-73" transform="translate(286.279297 0)"/>
      </g>
     </g>
    </g>
    <g id="ytick_3">
     <g id="line2d_12">
      <g>
       <use xlink:href="#mad66df910f" x="61.715625" y="212.068945" style="stroke: #000000; stroke-width: 0.8"/>
      </g>
     </g>
     <g id="text_13">
      <!-- 200 µs -->
      <g transform="translate(20.878125 215.868164) scale(0.1 -0.1)">
       <use xlink:href="#DejaVuSans-32"/>
       <use xlink:href="#DejaVuSans-30" transform="translate(63.623047 0)"/>
       <use xlink:href="#DejaVuSans-30" transform="translate(127.246094 0)"/>
       <use xlink:href="#DejaVuSans-20" transform="translate(190.869141 0)"/>
       <use xlink:href="#DejaVuSans-b5" transform="translate(222.65625 0)"/>
       <use xlink:href="#DejaVuSans-73" transform="translate(286.279297 0)"/>
      </g>
     </g>
    </g>
    <g id="ytick_4">
     <g id="line2d_13">
      <g>
       <use xlink:href="#mad66df910f" x="61.715625" y="173.888355" style="stroke: #000000; stroke-width: 0.8"/>
      </g>
     </g>
     <g id="text_14">
      <!-- 300 µs -->
      <g transform="translate(20.878125 177.687574) scale(0.1 -0.1)">
       <use xlink:href="#DejaVuSans-33"/>
       <use xlink:href="#DejaVuSans-30" transform="translate(63.623047 0)"/>
       <use xlink:href="#DejaVuSans-30" transform="translate(127.246094 0)"/>
       <use xlink:href="#DejaVuSans-20" transform="translate(190.869141 0)"/>
       <use xlink:href="#DejaVuSans-b5" transform="translate(222.65625 0)"/>
       <use xlink:href="#DejaVuSans-73" transform="translate(286.279297 0)"/>
      </g>
     </g>
    </g>
    <g id="ytick_5">
     <g id="line2d_14">
      <g>
       <use xlink:href="#mad66df910f" x="61.715625" y="135.707765" style="stroke: #000000; stroke-width: 0.8"/>
      </g>
     </g>
     <g id="text_15">
      <!-- 400 µs -->
      <g transform="translate(20.878125 139.506984) scale(0.1 -0.1)">
       <use xlink:href="#DejaVuSans-34"/>
       <use xlink:href="#DejaVuSans-30" transform="translate(63.623047 0)"/>
       <use xlink:href="#DejaVuSans-30" transform="translate(127.246094 0)"/>
       <use xlink:href="#DejaVuSans-20" transform="translate(190.869141 0)"/>
       <use xlink:href="#DejaVuSans-b5" transform="translate(222.65625 0)"/>
       <use xlink:href="#DejaVuSans-73" transform="translate(286.279297 0)"/>
      </g>
     </g>
    </g>
    <g id="ytick_6">
     <g id="line2d_15">
      <g>
       <use xlink:href="#mad66df910f" x="61.715625" y="97.527175" style="stroke: #000000; stroke-width: 0.8"/>
      </g>
     </g>
     <g id="text_16">
      <!-- 500 µs -->
      <g transform="translate(20.878125 101.326394) scale(0.1 -0.1)">
       <use xlink:href="#DejaVuSans-35"/>
       <use xlink:href="#DejaVuSans-30" transform="translate(63.623047 0)"/>
       <use xlink:href="#DejaVuSans-30" transform="translate(127.246094 0)"/>
       <use xlink:href="#DejaVuSans-20" transform="translate(190.869141 0)"/>
       <use xlink:href="#DejaVuSans-b5" transform="translate(222.65625 0)"/>
       <use xlink:href="#DejaVuSans-73" transform="translate(286.279297 0)"/>
      </g>
     </g>
    </g>
    <g id="ytick_7">
     <g id="line2d_16">
      <g>
       <use xlink:href="#mad66df910f" x="61.715625" y="59.346585" style="stroke: #000000; stroke-width: 0.8"/>
      </g>
     </g>
     <g id="text_17">
      <!-- 600 µs -->
      <g transform="translate(20.878125 63.145804) scale(0.1 -0.1)">
       <defs>
        <path id="DejaVuSans-36" d="M 2113 2584 
Q 1688 2584 1439 2293 
Q 1191 2003 1191 1497 
Q 1191 994 1439 701 
Q 1688 409 2113 409 
Q 2538 409 2786 701 
Q 3034 994 3034 1497 
Q 3034 2003 2786 2293 
Q 2538 2584 2113 2584 
z
M 3366 4563 
L 3366 3988 
Q 3128 4100 2886 4159 
Q 2644 4219 2406 4219 
Q 1781 4219 1451 3797 
Q 1122 3375 1075 2522 
Q 1259 2794 1537 2939 
Q 1816 3084 2150 3084 
Q 2853 3084 3261 2657 
Q 3669 2231 3669 1497 
Q 3669 778 3244 343 
Q 2819 -91 2113 -91 
Q 1303 -91 875 529 
Q 447 1150 447 2328 
Q 447 3434 972 4092 
Q 1497 4750 2381 4750 
Q 2619 4750 2861 4703 
Q 3103 4656 3366 4563 
z
" transform="scale(0.015625)"/>
       </defs>
       <use xlink:href="#DejaVuSans-36"/>
       <use xlink:href="#DejaVuSans-30" transform="translate(63.623047 0)"/>
       <use xlink:href="#DejaVuSans-30" transform="translate(127.246094 0)"/>
       <use xlink:href="#DejaVuSans-20" transform="translate(190.869141 0)"/>
       <use xlink:href="#DejaVuSans-b5" transform="translate(222.65625 0)"/>
       <use xlink:href="#DejaVuSans-73" transform="translate(286.279297 0)"/>
      </g>
     </g>
    </g>
    <g id="text_18">
     <!-- Read latency (s) -->
     <g transform="translate(14.798438 195.98975) rotate(-90) scale(0.1 -0.1)">
      <defs>
       <path id="DejaVuSans-52" d="M 2841 2188 
Q 3044 2119 3236 1894 
Q 3428 1669 3622 1275 
L 4263 0 
L 3584 0 
L 2988 1197 
Q 2756 1666 2539 1819 
Q 2322 1972 1947 1972 
L 1259 1972 
L 1259 0 
L 628 0 
L 628 4666 
L 2053 4666 
Q 2853 4666 3247 4331 
Q 3641 3997 3641 3322 
Q 3641 2881 3436 2590 
Q 3231 2300 2841 2188 
z
M 1259 4147 
L 1259 2491 
L 2053 2491 
Q 2509 2491 2742 2702 
Q 2975 2913 2975 3322 
Q 2975 3731 2742 3939 
Q 2509 4147 2053 4147 
L 1259 4147 
z
" transform="scale(0.015625)"/>
       <path id="DejaVuSans-64" d="M 2906 2969 
L 2906 4863 
L 3481 4863 
L 3481 0 
L 2906 0 
L 2906 525 
Q 2725 213 2448 61 
Q 2172 -91 1784 -91 
Q 1150 -91 751 415 
Q 353 922 353 1747 
Q 353 2572 751 3078 
Q 1150 3584 1784 3584 
Q 2172 3584 2448 3432 
Q 2725 3281 2906 2969 
z
M 947 1747 
Q 947 1113 1208 752 
Q 1469 391 1925 391 
Q 2381 391 2643 752 
Q 2906 1113 2906 1747 
Q 2906 2381 2643 2742 
Q 2381 3103 1925 3103 
Q 1469 3103 1208 2742 
Q 947 2381 947 1747 
z
" transform="scale(0.015625)"/>
       <path id="DejaVuSans-79" d="M 2059 -325 
Q 1816 -950 1584 -1140 
Q 1353 -1331 966 -1331 
L 506 -1331 
L 506 -850 
L 844 -850 
Q 1081 -850 1212 -737 
Q 1344 -625 1503 -206 
L 1606 56 
L 191 3500 
L 800 3500 
L 1894 763 
L 2988 3500 
L 3597 3500 
L 2059 -325 
z
" transform="scale(0.015625)"/>
       <path id="DejaVuSans-28" d="M 1984 4856 
Q 1566 4138 1362 3434 
Q 1159 2731 1159 2009 
Q 1159 1288 1364 580 
Q 1569 -128 1984 -844 
L 1484 -844 
Q 1016 -109 783 600 
Q 550 1309 550 2009 
Q 550 2706 781 3412 
Q 1013 4119 1484 4856 
L 1984 4856 
z
" transform="scale(0.015625)"/>
       <path id="DejaVuSans-29" d="M 513 4856 
L 1013 4856 
Q 1481 4119 1714 3412 
Q 1947 2706 1947 2009 
Q 1947 1309 1714 600 
Q 1481 -109 1013 -844 
L 513 -844 
Q 928 -128 1133 580 
Q 1338 1288 1338 2009 
Q 1338 2731 1133 3434 
Q 928 4138 513 4856 
z
" transform="scale(0.015625)"/>
      </defs>
      <use xlink:href="#DejaVuSans-52"/>
      <use xlink:href="#DejaVuSans-65" transform="translate(64.982422 0)"/>
      <use xlink:href="#DejaVuSans-61" transform="translate(126.505859 0)"/>
      <use xlink:href="#DejaVuSans-64" transform="translate(187.785156 0)"/>
      <use xlink:href="#DejaVuSans-20" transform="translate(251.261719 0)"/>
      <use xlink:href="#DejaVuSans-6c" transform="translate(283.048828 0)"/>
      <use xlink:href="#DejaVuSans-61" transform="translate(310.832031 0)"/>
      <use xlink:href="#DejaVuSans-74" transform="translate(372.111328 0)"/>
      <use xlink:href="#DejaVuSans-65" transform="translate(411.320312 0)"/>
      <use xlink:href="#DejaVuSans-6e" transform="translate(472.84375 0)"/>
      <use xlink:href="#DejaVuSans-63" transform="translate(536.222656 0)"/>
      <use xlink:href="#DejaVuSans-79" transform="translate(591.203125 0)"/>
      <use xlink:href="#DejaVuSans-20" transform="translate(650.382812 0)"/>
      <use xlink:href="#DejaVuSans-28" transform="translate(682.169922 0)"/>
      <use xlink:href="#DejaVuSans-73" transform="translate(721.183594 0)"/>
      <use xlink:href="#DejaVuSans-29" transform="translate(773.283203 0)"/>
     </g>
    </g>
   </g>
   <g id="line2d_17">
    <path d="M 146.635325 223.981154 
L 147.070811 224.033904 
L 147.506296 223.967149 
L 148.377268 223.530207 
L 148.812753 223.475589 
L 149.248239 222.180635 
L 150.11921 222.204909 
L 150.554696 222.020983 
L 150.990181 220.319896 
L 151.425667 220.004327 
L 151.861153 219.982386 
L 152.296638 219.669618 
L 153.603095 219.174323 
L 154.038581 218.918973 
L 154.474067 217.460165 
L 155.345038 216.632496 
L 155.780523 216.015829 
L 157.522466 214.253122 
L 158.393437 213.137892 
L 158.828923 211.110499 
L 160.13538 210.117109 
L 161.006351 209.173202 
L 161.441837 208.863235 
L 161.877322 207.837168 
L 162.748294 206.973086 
L 164.054751 205.378434 
L 164.490236 205.050261 
L 165.361208 204.017658 
L 166.232179 203.028936 
L 167.10315 201.826879 
L 167.538636 201.52298 
L 167.974121 200.962331 
L 170.587035 198.873784 
L 171.458007 198.116138 
L 172.328978 197.516276 
L 172.764463 196.329156 
L 173.635435 195.578979 
L 175.377377 193.905901 
L 175.812863 193.109976 
L 176.683834 192.261766 
L 177.11932 191.822957 
L 177.990291 191.262774 
L 178.861262 190.348744 
L 180.167719 189.109807 
L 180.603205 189.086933 
L 181.474176 188.366632 
L 182.780633 187.004922 
L 183.216119 186.695422 
L 184.08709 185.662819 
L 184.522576 185.547982 
L 185.393547 184.534518 
L 185.829033 184.238556 
L 187.13549 182.865642 
L 187.570975 182.549139 
L 188.006461 182.023968 
L 188.441947 181.718202 
L 190.183889 179.584374 
L 190.619375 177.791324 
L 191.05486 177.13311 
L 194.538746 173.746808 
L 195.845202 172.069996 
L 196.280688 171.736221 
L 196.716174 171.237192 
L 197.151659 170.527627 
L 197.587145 170.067344 
L 198.022631 169.432938 
L 198.458116 169.179922 
L 199.764573 167.873297 
L 200.200059 167.486305 
L 200.635545 165.998554 
L 201.506516 165.075187 
L 202.377487 164.312872 
L 203.248458 163.308745 
L 203.683944 162.984306 
L 204.554915 162.157571 
L 206.296858 160.484493 
L 207.167829 159.334252 
L 209.345257 157.450172 
L 209.780743 157.051976 
L 210.216229 157.057111 
L 211.0872 156.382558 
L 212.393657 155.088537 
L 213.264628 153.912621 
L 214.571085 152.284825 
L 215.006571 151.850217 
L 215.442056 152.03461 
L 216.313028 151.874491 
L 216.748513 151.254089 
L 217.183999 151.231215 
L 217.619485 151.073897 
L 218.05497 151.282098 
L 218.490456 151.311975 
L 218.925941 151.176598 
L 219.361427 151.258758 
L 220.667884 150.983801 
L 221.10337 150.820882 
L 221.538855 150.842822 
L 221.974341 151.878693 
L 222.845312 152.104633 
L 223.280798 152.12704 
L 223.716283 152.39266 
L 225.458226 152.727369 
L 226.329197 152.797858 
L 227.200169 153.10129 
L 228.506626 153.005126 
L 228.942111 152.866948 
L 229.377597 152.515433 
L 230.684054 152.539241 
L 231.119539 152.830069 
L 231.555025 153.590983 
L 232.425996 153.256274 
L 232.861482 153.374379 
L 233.296968 153.331899 
L 233.732453 152.987854 
L 234.167939 154.06247 
L 234.603425 153.919623 
L 235.474396 154.096081 
L 235.909881 155.68093 
L 236.345367 155.665992 
L 236.780853 155.49607 
L 237.216338 155.480665 
L 237.651824 155.280866 
L 238.522795 155.505873 
L 238.958281 155.779895 
L 239.393767 157.13647 
L 240.700224 157.343738 
L 241.571195 157.575746 
L 242.00668 157.395088 
L 242.442166 156.949743 
L 243.748623 157.227033 
L 244.184109 156.803628 
L 246.361537 156.791024 
L 246.797022 157.337202 
L 248.103479 157.211161 
L 248.974451 157.05291 
L 249.409936 156.691125 
L 250.280908 156.625304 
L 250.716393 156.776086 
L 251.151879 156.792892 
L 251.587365 156.282659 
L 252.02285 156.471254 
L 252.893821 156.069323 
L 255.506735 155.92881 
L 256.813192 155.744884 
L 257.248678 155.435383 
L 257.684164 156.265387 
L 259.426106 156.067922 
L 259.861592 155.85692 
L 260.297077 155.786431 
L 260.732563 155.945149 
L 264.216448 154.690808 
L 265.087419 154.827119 
L 265.958391 154.629188 
L 266.829362 154.503147 
L 269.442276 154.281875 
L 269.877761 154.47187 
L 270.748733 154.229591 
L 271.184218 153.872008 
L 271.619704 152.142912 
L 272.05519 152.379589 
L 272.490675 152.230207 
L 272.926161 151.94218 
L 273.361647 151.890363 
L 273.797132 152.016404 
L 274.232618 152.02434 
L 275.103589 152.511232 
L 275.539075 153.625061 
L 275.97456 153.927559 
L 276.845532 151.65462 
L 277.716503 151.848349 
L 278.587474 151.609805 
L 279.02296 151.719041 
L 279.458446 151.601869 
L 280.329417 151.673759 
L 280.764902 151.646684 
L 281.200388 151.354455 
L 282.506845 151.724176 
L 282.942331 152.039745 
L 283.813302 152.063086 
L 284.684273 152.288559 
L 285.119759 152.1065 
L 285.555245 153.00746 
L 286.861701 152.669483 
L 287.297187 152.738106 
L 288.603644 152.494893 
L 289.03913 151.787196 
L 290.781072 151.765256 
L 291.216558 151.542116 
L 292.523015 151.689164 
L 292.9585 151.399737 
L 293.393986 151.507105 
L 294.264957 151.476762 
L 294.700443 151.002007 
L 295.135929 151.177064 
L 295.571414 150.398411 
L 297.313357 150.599143 
L 298.184328 151.037486 
L 298.619814 151.248021 
L 299.055299 151.241485 
L 299.926271 151.619142 
L 301.232728 151.813338 
L 301.668213 152.246079 
L 302.103699 152.412733 
L 302.97467 152.006601 
L 303.845641 152.020605 
L 304.716613 152.263351 
L 305.152098 152.268019 
L 306.894041 152.769849 
L 308.635984 152.40433 
L 309.071469 152.430939 
L 309.506955 152.623735 
L 310.377926 152.560248 
L 310.813412 152.692357 
L 313.426326 152.193328 
L 313.861811 152.120505 
L 314.297297 152.456614 
L 314.732782 152.242811 
L 315.168268 152.350646 
L 315.603754 151.479563 
L 317.345696 151.587398 
L 318.216668 151.313842 
L 318.652153 151.712972 
L 319.523125 151.995864 
L 319.95861 152.050482 
L 320.394096 151.804468 
L 321.265067 152.113969 
L 321.700553 151.749851 
L 322.571524 151.918839 
L 323.00701 151.682162 
L 323.442495 151.677961 
L 324.313467 151.389467 
L 325.184438 151.304039 
L 325.619924 151.446885 
L 326.490895 151.084634 
L 326.92638 150.479637 
L 327.361866 150.98847 
L 328.232837 151.294703 
L 328.668323 152.477621 
L 329.539294 152.837538 
L 329.97478 152.671817 
L 330.410266 152.354381 
L 331.281237 152.484156 
L 331.716722 152.339443 
L 332.587694 152.404797 
L 333.023179 152.824467 
L 333.458665 152.905227 
L 334.765122 153.585848 
L 335.200608 153.600786 
L 335.636093 152.971048 
L 336.071579 152.990188 
L 336.507065 153.834662 
L 337.378036 153.627395 
L 337.813521 154.028859 
L 339.99095 153.909353 
L 341.297407 153.614791 
L 342.168378 154.06247 
L 343.039349 153.828594 
L 343.91032 154.143696 
L 344.781292 153.860804 
L 345.216777 153.872942 
L 345.652263 154.127358 
L 346.087749 153.863138 
L 346.523234 154.237994 
L 347.829691 154.721151 
L 348.265177 154.68754 
L 348.700662 154.899009 
L 349.571634 154.630588 
L 350.007119 154.481206 
L 350.442605 154.716949 
L 350.878091 153.862672 
L 351.313576 153.945765 
L 352.184548 154.314552 
L 353.055519 153.999449 
L 353.491005 154.055934 
L 354.361976 152.980384 
L 354.797461 153.034069 
L 355.668433 153.340302 
L 356.103918 153.850534 
L 356.539404 155.608573 
L 356.97489 155.418578 
L 357.410375 155.595969 
L 357.845861 156.101067 
L 358.281347 156.153817 
L 359.152318 156.012838 
L 360.023289 156.063721 
L 360.458775 155.963355 
L 360.89426 155.74255 
L 361.329746 156.786823 
L 361.765232 157.389019 
L 362.200717 155.729012 
L 363.071689 155.851785 
L 363.507174 155.93628 
L 363.94266 155.229516 
L 365.684603 155.037187 
L 366.555574 155.164162 
L 366.991059 155.24072 
L 367.426545 155.163228 
L 367.862031 154.929352 
L 370.039459 154.693609 
L 370.474945 153.676411 
L 370.91043 152.98832 
L 371.345916 152.522902 
L 371.781401 152.656879 
L 372.216887 151.904834 
L 372.652373 152.000999 
L 373.087858 151.813805 
L 373.523344 151.997265 
L 373.95883 152.790389 
L 374.394315 151.50057 
L 375.265287 151.349787 
L 375.700772 151.423545 
L 376.136258 151.371261 
L 377.007229 151.639682 
L 377.442715 151.435215 
L 377.8782 151.672826 
L 378.313686 151.667691 
L 379.184657 151.301238 
L 379.620143 151.782061 
L 380.055629 151.536048 
L 380.491114 152.031809 
L 381.362086 151.656954 
L 382.233057 151.610272 
L 382.668543 151.71624 
L 383.104028 151.56219 
L 383.974999 151.591599 
L 385.281456 151.459023 
L 385.716942 151.562656 
L 386.152428 151.448286 
L 386.587913 151.653219 
L 387.023399 151.682162 
L 387.458885 152.052349 
L 387.89437 151.979992 
L 388.329856 151.536981 
L 388.765341 148.525068 
L 390.507284 148.370084 
L 390.94277 147.738479 
L 391.378255 147.470525 
L 392.249227 147.810836 
L 392.684712 147.947147 
L 393.120198 147.757618 
L 393.555684 147.819705 
L 393.991169 147.501802 
L 395.733112 147.31274 
L 396.168597 147.236649 
L 396.604083 147.273994 
L 397.039569 145.904815 
L 397.91054 146.38984 
L 399.216997 146.217117 
L 399.652483 146.457529 
L 400.087968 146.44119 
L 400.523454 147.420575 
L 401.394425 146.974764 
L 401.829911 147.11621 
L 401.829911 147.11621 
" clip-path="url(#pb57a985d6a)" style="fill: none; stroke: #1f77b4; stroke-opacity: 0.8; stroke-width: 1.5; stroke-linecap: square"/>
   </g>
   <g id="line2d_18">
    <path d="M 146.635325 173.330873 
L 147.070811 173.441509 
L 147.941782 173.029308 
L 149.248239 173.336008 
L 149.683725 173.220237 
L 150.990181 173.226306 
L 151.425667 173.032109 
L 153.16761 172.821574 
L 153.603095 173.172155 
L 154.474067 172.639981 
L 154.909552 172.64465 
L 155.780523 173.049381 
L 156.216009 173.440108 
L 156.651495 171.947223 
L 157.08698 172.13395 
L 157.522466 172.116211 
L 157.957952 171.91828 
L 159.264409 171.867864 
L 159.699894 172.04152 
L 160.13538 172.039186 
L 160.570866 172.326279 
L 161.006351 172.144687 
L 161.877322 172.198838 
L 163.183779 172.108742 
L 163.619265 172.087735 
L 164.054751 171.951424 
L 164.925722 171.471068 
L 165.361208 171.648926 
L 165.796693 171.615315 
L 166.667665 171.958893 
L 167.538636 171.910811 
L 167.974121 172.065328 
L 168.409607 172.02238 
L 169.280578 171.787104 
L 169.716064 170.678877 
L 170.587035 170.615856 
L 171.022521 170.83386 
L 172.764463 170.867471 
L 173.199949 170.88381 
L 173.635435 169.794255 
L 174.506406 169.938036 
L 175.377377 169.543107 
L 176.248349 169.55151 
L 176.683834 169.861944 
L 177.990291 169.181323 
L 178.425777 169.038943 
L 178.861262 169.08189 
L 179.732234 168.866687 
L 180.603205 168.794797 
L 181.038691 168.699566 
L 181.474176 168.975456 
L 182.780633 168.305571 
L 183.216119 168.575859 
L 184.08709 168.582861 
L 184.522576 168.512839 
L 185.393547 168.543182 
L 185.829033 168.435347 
L 186.700004 168.897964 
L 188.441947 168.511905 
L 189.312918 168.942312 
L 189.748403 169.147712 
L 190.183889 168.899364 
L 191.05486 168.992261 
L 191.490346 168.743447 
L 191.925832 169.144911 
L 193.232289 169.195794 
L 193.667774 169.377853 
L 194.10326 169.239208 
L 194.538746 168.924573 
L 194.974231 168.899364 
L 195.409717 169.168252 
L 195.845202 169.043144 
L 196.280688 169.091227 
L 196.716174 168.768655 
L 197.151659 168.760719 
L 197.587145 168.944646 
L 199.329088 168.973122 
L 199.764573 168.69023 
L 200.635545 168.550651 
L 201.506516 168.699566 
L 201.942001 168.46569 
L 202.377487 168.474559 
L 202.812973 168.200537 
L 204.11943 168.222944 
L 204.554915 168.081498 
L 204.990401 168.32331 
L 205.425887 167.303312 
L 205.861372 167.054031 
L 206.732343 166.832292 
L 207.603315 166.379945 
L 208.0388 166.400018 
L 208.909772 165.907991 
L 209.345257 165.983616 
L 209.780743 165.765611 
L 210.651714 165.638637 
L 211.0872 165.404294 
L 211.958171 165.341273 
L 212.829142 164.924404 
L 213.264628 165.170418 
L 213.700114 165.746005 
L 214.571085 165.687186 
L 215.877542 166.308054 
L 216.748513 166.287981 
L 217.183999 166.480777 
L 217.619485 166.42896 
L 218.05497 166.134865 
L 219.796913 165.654508 
L 220.232398 165.407095 
L 220.667884 165.344074 
L 221.10337 165.02337 
L 222.845312 164.670455 
L 223.716283 164.626107 
L 224.151769 165.007498 
L 224.587255 164.768954 
L 225.02274 164.774555 
L 225.893712 165.282454 
L 227.635654 165.171818 
L 228.07114 164.964551 
L 228.942111 165.279186 
L 229.813082 165.060715 
L 230.248568 164.717604 
L 231.119539 164.577558 
L 231.555025 164.564487 
L 231.990511 164.288597 
L 232.425996 164.256854 
L 232.861482 164.384762 
L 233.296968 164.127545 
L 234.167939 164.042584 
L 235.474396 163.808708 
L 235.909881 164.017376 
L 238.522795 163.019784 
L 238.958281 162.455868 
L 239.393767 162.710751 
L 239.829252 162.309753 
L 240.264738 162.221525 
L 240.700224 161.961974 
L 241.135709 161.963841 
L 241.571195 163.472132 
L 242.00668 163.191574 
L 242.442166 163.317615 
L 242.877652 163.690603 
L 243.313137 163.687802 
L 243.748623 163.859591 
L 244.184109 163.848854 
L 245.05508 163.450191 
L 245.490566 163.262063 
L 245.926051 163.342823 
L 246.361537 163.163565 
L 246.797022 162.826988 
L 247.232508 162.711217 
L 247.667994 162.876004 
L 248.103479 162.587044 
L 248.974451 162.528225 
L 249.409936 162.51282 
L 249.845422 162.652865 
L 252.458336 160.857948 
L 253.764793 160.848145 
L 254.200278 161.124501 
L 254.635764 162.137497 
L 255.506735 162.684142 
L 256.813192 162.665002 
L 257.684164 162.715419 
L 258.119649 162.573039 
L 258.555135 163.566429 
L 258.99062 163.716745 
L 259.426106 163.626182 
L 259.861592 163.667729 
L 260.297077 163.459528 
L 260.732563 163.427317 
L 261.168049 162.702348 
L 261.603534 162.562769 
L 262.03902 162.555767 
L 262.909991 162.890009 
L 263.345477 162.991309 
L 263.780962 162.969368 
L 264.216448 163.109414 
L 264.651934 162.911483 
L 266.829362 163.132288 
L 267.264848 163.593971 
L 268.571305 163.248526 
L 269.00679 163.432919 
L 269.442276 163.362429 
L 270.748733 163.994502 
L 271.184218 163.787701 
L 271.619704 163.75409 
L 272.05519 164.042117 
L 272.490675 164.17236 
L 273.361647 164.035582 
L 273.797132 163.728882 
L 274.232618 163.66166 
L 275.103589 164.089733 
L 275.97456 163.562694 
L 276.410046 163.552424 
L 276.845532 163.343757 
L 277.281017 163.29334 
L 277.716503 162.860133 
L 279.02296 162.879739 
L 279.458446 163.13929 
L 279.893931 162.357369 
L 281.200388 162.257937 
L 282.071359 162.415721 
L 282.506845 162.162706 
L 282.942331 162.161772 
L 283.377816 162.447465 
L 283.813302 162.313955 
L 284.248788 162.348499 
L 284.684273 162.595913 
L 285.119759 162.416188 
L 285.555245 162.393781 
L 286.426216 162.169708 
L 286.861701 162.116491 
L 288.168158 162.300417 
L 289.910101 161.496089 
L 290.345587 162.317689 
L 291.216558 162.810183 
L 293.393986 162.82092 
L 293.829472 163.048727 
L 295.135929 162.959565 
L 295.571414 163.217716 
L 296.0069 163.244324 
L 296.442386 163.482402 
L 296.877871 163.482868 
L 297.748842 163.917943 
L 298.184328 163.861925 
L 298.619814 164.084598 
L 299.490785 163.584635 
L 300.361756 163.593038 
L 301.668213 162.88394 
L 302.539185 162.936691 
L 302.97467 163.180837 
L 303.410156 163.258796 
L 304.281127 163.760159 
L 304.716613 163.614978 
L 306.02307 163.676598 
L 306.458555 163.448324 
L 306.894041 163.674264 
L 308.635984 163.324617 
L 309.071469 163.077203 
L 309.506955 163.325084 
L 309.94244 163.320416 
L 311.684383 162.422257 
L 313.426326 162.643062 
L 313.861811 162.399849 
L 314.297297 162.584243 
L 316.039239 162.692545 
L 316.910211 160.874753 
L 317.345696 161.092757 
L 317.781182 161.122634 
L 318.216668 161.373782 
L 319.087639 161.33737 
L 319.523125 161.493755 
L 319.95861 160.28096 
L 320.829581 160.239413 
L 321.265067 158.444029 
L 322.136038 156.226641 
L 323.00701 156.287327 
L 323.442495 156.341945 
L 323.877981 156.742475 
L 324.313467 156.457249 
L 324.748952 156.732205 
L 325.619924 156.838173 
L 326.055409 156.601029 
L 326.490895 156.548746 
L 326.92638 156.831171 
L 327.797352 156.820434 
L 329.103809 156.023108 
L 329.97478 156.545945 
L 330.410266 156.586091 
L 330.845751 156.334943 
L 331.281237 156.231776 
L 331.716722 156.415235 
L 332.152208 156.195364 
L 333.894151 155.816307 
L 334.329636 156.014705 
L 335.200608 155.442852 
L 336.507065 156.127675 
L 336.94255 156.101533 
L 337.378036 156.35735 
L 338.249007 156.310201 
L 338.684493 154.930286 
L 339.555464 153.932694 
L 339.99095 153.901417 
L 340.861921 153.281949 
L 341.732892 153.110627 
L 342.168378 152.748376 
L 343.039349 152.684421 
L 343.91032 152.159251 
L 344.345806 152.373053 
L 345.652263 152.422069 
L 346.087749 153.146105 
L 346.523234 153.093821 
L 346.95872 153.280082 
L 347.829691 153.176448 
L 348.265177 153.207725 
L 348.700662 153.384649 
L 349.136148 153.076549 
L 349.571634 153.250672 
L 350.007119 153.196055 
L 350.442605 152.872083 
L 350.878091 152.774051 
L 351.313576 152.794124 
L 351.749062 152.564916 
L 352.184548 152.472953 
L 353.055519 152.824467 
L 353.491005 152.946773 
L 353.92649 152.792257 
L 354.361976 152.905693 
L 355.232947 152.196129 
L 355.668433 152.202665 
L 356.103918 152.354381 
L 356.539404 152.275488 
L 356.97489 151.980926 
L 357.410375 152.303964 
L 357.845861 152.303031 
L 358.716832 152.887021 
L 359.152318 152.934636 
L 360.023289 152.356248 
L 360.89426 152.783854 
L 361.765232 152.768916 
L 362.200717 152.73017 
L 363.507174 152.030409 
L 364.378146 151.973457 
L 364.813631 152.684421 
L 365.249117 152.379589 
L 365.684603 152.482289 
L 366.120088 152.718032 
L 366.555574 151.460423 
L 366.991059 151.158392 
L 367.862031 151.093504 
L 368.297516 149.297653 
L 369.168488 149.267776 
L 369.603973 148.922797 
L 370.91043 148.656711 
L 371.345916 148.769214 
L 372.216887 148.841571 
L 372.652373 148.995621 
L 373.087858 148.821031 
L 373.523344 148.79769 
L 373.95883 148.058716 
L 375.265287 148.124071 
L 376.136258 147.625509 
L 376.571744 147.657719 
L 377.442715 148.097462 
L 378.313686 147.81317 
L 378.749172 147.825307 
L 379.620143 148.206231 
L 380.055629 148.529736 
L 380.9266 148.471851 
L 381.797571 147.979824 
L 382.668543 147.743614 
L 383.104028 147.777692 
L 383.539514 147.460722 
L 383.974999 147.727275 
L 384.410485 147.657252 
L 384.845971 147.25999 
L 385.281456 147.118544 
L 385.716942 145.861868 
L 386.587913 146.070069 
L 387.89437 145.262473 
L 389.200827 145.298418 
L 389.636313 145.207855 
L 390.507284 145.572907 
L 390.94277 145.034199 
L 392.684712 145.237265 
L 393.120198 145.433329 
L 393.555684 145.371709 
L 393.991169 145.557036 
L 394.426655 145.498216 
L 394.86214 145.083682 
L 395.297626 143.857349 
L 395.733112 143.851747 
L 396.168597 143.362055 
L 396.604083 143.410604 
L 397.91054 142.835017 
L 398.781511 142.753323 
L 400.087968 143.085698 
L 400.523454 142.949854 
L 400.958939 142.102578 
L 401.829911 144.045477 
L 401.829911 144.045477 
" clip-path="url(#pb57a985d6a)" style="fill: none; stroke: #ff7f0e; stroke-opacity: 0.8; stroke-width: 1.5; stroke-linecap: square"/>
   </g>
   <g id="line2d_19">
    <path d="M 146.635325 169.225204 
L 147.070811 169.670082 
L 147.941782 169.963711 
L 148.812753 169.713963 
L 149.683725 169.551043 
L 150.554696 169.405396 
L 150.990181 169.344709 
L 151.425667 169.076289 
L 151.861153 169.242943 
L 152.732124 169.161716 
L 153.603095 168.776591 
L 154.038581 169.02027 
L 155.345038 168.301837 
L 156.216009 168.457287 
L 156.651495 168.286432 
L 157.08698 169.707894 
L 157.522466 169.318101 
L 157.957952 169.424068 
L 158.393437 170.360973 
L 158.828923 170.308223 
L 159.264409 171.092011 
L 159.699894 171.198913 
L 160.13538 170.983709 
L 160.570866 171.030391 
L 161.006351 170.783911 
L 161.441837 170.810053 
L 161.877322 170.692414 
L 162.748294 170.836661 
L 163.619265 170.754968 
L 164.054751 170.520158 
L 165.361208 170.401586 
L 165.796693 170.941696 
L 166.232179 171.194711 
L 167.538636 170.691948 
L 169.280578 169.880617 
L 169.716064 168.95725 
L 170.15155 168.930641 
L 170.587035 169.037543 
L 171.022521 168.709369 
L 171.893492 168.64168 
L 172.328978 168.419475 
L 173.199949 168.454953 
L 174.07092 168.179063 
L 174.941892 168.200537 
L 175.377377 167.851823 
L 176.248349 167.636153 
L 176.683834 167.755192 
L 177.11932 167.530185 
L 177.554806 167.651558 
L 177.990291 167.18474 
L 178.425777 167.345792 
L 178.861262 167.284172 
L 179.296748 167.495641 
L 180.167719 167.335522 
L 181.038691 166.966735 
L 181.474176 167.0629 
L 181.909662 167.28744 
L 182.345148 167.180072 
L 182.780633 167.352328 
L 183.216119 167.373801 
L 183.651605 167.218351 
L 184.522576 167.269701 
L 184.958061 167.104447 
L 185.393547 167.383138 
L 186.700004 166.77534 
L 187.13549 167.147394 
L 189.312918 166.755267 
L 189.748403 166.514388 
L 191.925832 167.269234 
L 192.796803 167.000813 
L 193.232289 167.14506 
L 194.10326 167.113783 
L 194.538746 167.3696 
L 194.974231 166.624557 
L 195.845202 167.024621 
L 196.280688 167.213216 
L 197.151659 167.108648 
L 197.587145 168.123979 
L 198.458116 168.280363 
L 199.329088 168.10764 
L 199.764573 168.363457 
L 200.200059 168.22061 
L 200.635545 168.416674 
L 201.506516 167.860693 
L 201.942001 168.197736 
L 202.377487 168.001205 
L 202.812973 168.030615 
L 203.248458 168.172061 
L 204.11943 167.990469 
L 204.990401 167.608611 
L 205.425887 167.827549 
L 205.861372 167.785535 
L 206.732343 167.493774 
L 208.909772 167.331321 
L 210.216229 167.089976 
L 210.651714 167.280904 
L 211.0872 167.244492 
L 211.522686 167.38127 
L 211.958171 167.224419 
L 212.829142 167.289307 
L 213.264628 167.085307 
L 213.700114 166.625024 
L 214.135599 166.790278 
L 214.571085 166.570406 
L 215.006571 166.557802 
L 215.442056 166.316457 
L 215.877542 166.281446 
L 216.313028 166.415423 
L 217.183999 166.025162 
L 218.05497 166.054105 
L 218.490456 165.806224 
L 219.796913 165.47385 
L 220.667884 165.148477 
L 221.10337 164.924404 
L 221.538855 164.95288 
L 221.974341 164.763819 
L 222.409827 164.777356 
L 222.845312 164.644313 
L 223.280798 164.748414 
L 223.716283 164.505201 
L 224.587255 164.721338 
L 225.02274 165.062116 
L 226.764683 164.222776 
L 227.635654 163.748488 
L 228.07114 163.523482 
L 228.506626 163.173368 
L 229.813082 162.773771 
L 230.248568 163.028187 
L 231.119539 162.886274 
L 231.990511 162.430659 
L 232.425996 162.446531 
L 232.861482 161.38592 
L 234.167939 161.483018 
L 234.603425 161.386386 
L 235.474396 161.558642 
L 236.345367 161.533901 
L 236.780853 161.612327 
L 237.216338 161.389187 
L 237.651824 161.413462 
L 238.08731 161.652006 
L 238.522795 161.737901 
L 238.958281 161.693086 
L 239.393767 161.88028 
L 239.829252 161.89055 
L 240.264738 162.19585 
L 242.00668 162.076811 
L 242.442166 162.299483 
L 242.877652 162.044134 
L 243.313137 162.184179 
L 245.05508 162.243465 
L 245.490566 162.439996 
L 245.926051 162.486211 
L 248.538965 161.930697 
L 248.974451 161.744903 
L 249.409936 161.892418 
L 249.845422 161.90082 
L 250.716393 161.51056 
L 251.587365 161.374249 
L 252.02285 161.330368 
L 252.458336 161.156245 
L 253.764793 160.966716 
L 254.200278 160.738442 
L 254.635764 161.546972 
L 255.506735 161.068483 
L 255.942221 161.242606 
L 257.248678 160.66095 
L 258.555135 160.570854 
L 258.99062 160.611934 
L 259.861592 160.135779 
L 260.297077 160.325775 
L 260.732563 160.152118 
L 261.168049 160.357985 
L 261.603534 159.819276 
L 262.474506 159.628348 
L 262.909991 160.3015 
L 263.345477 160.073693 
L 263.780962 160.304768 
L 264.216448 160.218873 
L 264.651934 160.335111 
L 265.087419 160.264621 
L 265.958391 160.493829 
L 266.393876 160.025143 
L 266.829362 159.775395 
L 267.264848 159.829546 
L 267.700333 159.375332 
L 268.135819 159.281035 
L 268.571305 159.446288 
L 269.442276 159.20401 
L 270.313247 158.978536 
L 270.748733 159.086371 
L 271.184218 159.536851 
L 271.619704 159.738984 
L 272.05519 159.691368 
L 272.926161 160.197399 
L 273.361647 160.135779 
L 273.797132 160.292164 
L 274.232618 159.948585 
L 274.668104 160.231944 
L 275.103589 160.273491 
L 275.539075 160.081628 
L 275.97456 158.0491 
L 276.410046 158.038364 
L 276.845532 157.894583 
L 277.281017 157.879645 
L 277.716503 158.020158 
L 278.151989 158.030428 
L 278.587474 157.871709 
L 279.02296 158.136862 
L 279.458446 157.916991 
L 279.893931 158.723653 
L 280.764902 158.298382 
L 281.200388 158.252166 
L 281.635874 157.923526 
L 282.071359 157.779746 
L 282.506845 157.951535 
L 284.684273 157.993082 
L 285.119759 158.194748 
L 287.732673 158.607882 
L 288.168158 157.756405 
L 289.474615 157.464644 
L 289.910101 157.838098 
L 290.345587 157.600488 
L 290.781072 157.861439 
L 292.523015 157.746135 
L 292.9585 157.90392 
L 293.393986 157.929595 
L 293.829472 157.522996 
L 294.700443 157.972542 
L 295.135929 157.740533 
L 296.0069 157.72933 
L 296.442386 157.439902 
L 296.877871 157.583215 
L 297.313357 157.303591 
L 298.184328 157.677513 
L 299.055299 158.203617 
L 299.490785 158.247031 
L 299.926271 158.10932 
L 300.361756 158.316587 
L 300.797242 158.373072 
L 301.232728 158.128926 
L 302.103699 158.322189 
L 302.97467 158.289512 
L 303.410156 158.542528 
L 303.845641 158.562601 
L 306.458555 159.56486 
L 306.894041 159.917308 
L 307.329527 159.869693 
L 307.765012 159.957455 
L 308.635984 159.74972 
L 309.071469 159.188138 
L 309.506955 159.22455 
L 310.377926 159.559258 
L 310.813412 159.552723 
L 312.119869 160.151184 
L 312.99084 160.217473 
L 313.426326 160.604465 
L 313.861811 160.778122 
L 314.297297 160.738442 
L 314.732782 160.923769 
L 315.168268 160.795861 
L 316.039239 160.899961 
L 316.474725 161.259878 
L 316.910211 161.323366 
L 317.345696 161.052611 
L 317.781182 162.081946 
L 318.652153 161.729965 
L 320.394096 161.843869 
L 320.829581 161.598789 
L 321.265067 161.773846 
L 321.700553 161.564244 
L 322.136038 161.764043 
L 323.00701 161.677681 
L 323.442495 161.813525 
L 324.313467 161.679082 
L 325.619924 161.299091 
L 326.055409 161.345306 
L 326.490895 161.181453 
L 328.232837 161.354643 
L 328.668323 161.281352 
L 329.103809 161.375183 
L 329.539294 161.227201 
L 329.97478 161.253343 
L 330.845751 161.00733 
L 331.281237 161.095092 
L 332.587694 160.93684 
L 333.023179 160.676355 
L 334.329636 160.952712 
L 336.071579 160.763184 
L 336.507065 160.940108 
L 337.378036 160.972785 
L 338.249007 161.261279 
L 338.684493 161.324766 
L 339.119978 161.66321 
L 339.555464 161.685617 
L 340.426435 162.130495 
L 341.297407 161.924161 
L 341.732892 162.017525 
L 342.168378 162.26774 
L 342.603864 161.702889 
L 343.039349 160.840675 
L 343.474835 161.107229 
L 343.91032 161.027403 
L 345.652263 161.62213 
L 346.087749 161.624931 
L 346.95872 162.329827 
L 347.829691 162.194916 
L 348.700662 162.254202 
L 349.571634 162.295749 
L 350.007119 162.147767 
L 350.442605 162.26914 
L 350.878091 162.124893 
L 351.749062 162.555767 
L 352.184548 162.440463 
L 352.620033 162.507218 
L 353.055519 162.144033 
L 353.92649 162.010523 
L 354.797461 161.978779 
L 355.232947 162.269607 
L 356.97489 162.377909 
L 358.716832 162.377442 
L 359.152318 162.964233 
L 360.458775 162.839593 
L 360.89426 164.883324 
L 361.765232 164.617238 
L 362.200717 164.67699 
L 362.636203 164.472991 
L 363.071689 164.670922 
L 363.507174 164.631242 
L 363.94266 164.394098 
L 364.813631 164.380094 
L 365.684603 164.85905 
L 366.120088 164.895461 
L 366.555574 165.281054 
L 366.991059 165.503726 
L 367.862031 165.375351 
L 368.297516 165.531268 
L 368.733002 165.378152 
L 369.168488 165.497191 
L 370.91043 164.794162 
L 371.345916 164.797896 
L 372.652373 164.292332 
L 373.087858 164.999095 
L 375.265287 165.612962 
L 376.136258 165.483653 
L 376.571744 165.553676 
L 377.442715 165.82443 
L 377.8782 165.577017 
L 378.313686 165.585886 
L 378.749172 166.175945 
L 379.620143 165.973812 
L 380.055629 166.23383 
L 380.491114 165.990151 
L 380.9266 165.47385 
L 381.362086 165.743671 
L 381.797571 165.621364 
L 382.668543 165.811359 
L 383.104028 165.572348 
L 383.539514 165.611094 
L 383.974999 165.472916 
L 384.410485 165.670847 
L 384.845971 165.677383 
L 385.281456 165.513062 
L 386.152428 165.553676 
L 386.587913 165.269383 
L 387.458885 165.301594 
L 387.89437 165.454243 
L 389.636313 165.271717 
L 390.071798 165.06585 
L 390.94277 164.938409 
L 391.378255 164.518739 
L 391.813741 164.527142 
L 392.249227 164.653183 
L 392.684712 164.573357 
L 393.555684 164.791828 
L 393.991169 165.19796 
L 394.86214 164.977155 
L 395.297626 164.981823 
L 395.733112 165.163415 
L 398.346026 164.805832 
L 398.781511 164.984157 
L 399.652483 164.972487 
L 400.523454 165.250244 
L 400.958939 164.912734 
L 401.394425 164.773622 
L 401.829911 164.981823 
L 401.829911 164.981823 
" clip-path="url(#pb57a985d6a)" style="fill: none; stroke: #2ca02c; stroke-opacity: 0.8; stroke-width: 1.5; stroke-linecap: square"/>
   </g>
   <g id="line2d_20">
    <path d="M 146.635325 240.403364 
L 147.506296 240.363685 
L 147.941782 240.170889 
L 148.377268 239.65132 
L 148.812753 239.499137 
L 150.990181 239.424446 
L 151.861153 239.324547 
L 153.16761 239.167229 
L 157.522466 238.725618 
L 160.570866 238.667266 
L 161.006351 238.413784 
L 161.441837 238.540758 
L 162.748294 238.375038 
L 163.183779 238.16637 
L 164.490236 238.093546 
L 165.361208 238.112686 
L 167.538636 237.927359 
L 169.716064 237.729894 
L 171.022521 237.545968 
L 171.893492 237.395652 
L 172.764463 237.27568 
L 173.635435 237.332632 
L 174.07092 236.881685 
L 175.377377 236.814463 
L 175.812863 236.273887 
L 177.11932 236.202931 
L 177.990291 235.899966 
L 178.425777 235.918172 
L 178.861262 235.4929 
L 179.732234 235.450419 
L 180.167719 235.475161 
L 180.603205 235.962052 
L 182.780633 235.618007 
L 187.570975 235.139051 
L 188.006461 234.695574 
L 189.312918 234.579336 
L 189.748403 234.623684 
L 191.05486 234.414082 
L 191.490346 234.378137 
L 191.925832 233.956133 
L 194.10326 233.86417 
L 194.538746 233.358605 
L 196.716174 233.059841 
L 197.151659 232.929132 
L 197.587145 232.934734 
L 198.022631 232.743338 
L 199.764573 230.367699 
L 200.200059 229.229128 
L 203.248458 225.151935 
L 204.11943 223.980687 
L 205.425887 222.211445 
L 205.861372 219.703229 
L 206.732343 218.55112 
L 207.603315 217.194546 
L 208.0388 216.474711 
L 208.474286 216.056909 
L 208.909772 215.396827 
L 209.345257 214.986494 
L 214.571085 207.349342 
L 215.006571 205.793903 
L 216.748513 203.25581 
L 217.183999 202.077093 
L 218.05497 201.02115 
L 218.925941 199.705655 
L 219.796913 197.378564 
L 221.10337 195.343236 
L 223.280798 191.694582 
L 223.716283 191.259507 
L 224.151769 191.140001 
L 224.587255 190.44911 
L 225.458226 188.507611 
L 225.893712 187.837727 
L 226.329197 187.380711 
L 226.764683 186.740236 
L 227.200169 186.378452 
L 228.07114 184.824413 
L 228.506626 184.34359 
L 230.684054 180.82191 
L 231.119539 180.203376 
L 231.555025 179.031661 
L 232.861482 177.015939 
L 233.296968 176.770392 
L 233.732453 175.130458 
L 234.167939 174.313526 
L 235.03891 172.999432 
L 235.909881 171.066336 
L 236.345367 170.33203 
L 236.780853 169.848406 
L 237.216338 168.340582 
L 238.522795 166.362672 
L 238.958281 164.410437 
L 239.829252 162.558568 
L 240.700224 161.710825 
L 242.00668 159.535451 
L 243.748623 155.899868 
L 244.184109 155.329415 
L 245.490566 153.145171 
L 245.926051 152.691424 
L 246.361537 151.641549 
L 247.667994 149.543666 
L 248.103479 148.98255 
L 248.974451 146.812778 
L 250.280908 144.817128 
L 250.716393 143.602466 
L 251.151879 142.818211 
L 251.587365 142.286505 
L 252.02285 140.906122 
L 252.458336 140.233904 
L 252.893821 139.788092 
L 253.329307 139.181228 
L 253.764793 137.200983 
L 254.635764 135.962047 
L 255.942221 131.343344 
L 256.377707 128.773508 
L 258.555135 125.277504 
L 258.99062 125.031957 
L 259.861592 122.103604 
L 260.297077 121.432319 
L 260.732563 121.042059 
L 261.168049 119.796587 
L 262.03902 118.427875 
L 262.474506 117.109112 
L 263.345477 116.058771 
L 263.780962 115.749737 
L 264.216448 114.311935 
L 267.700333 109.055092 
L 268.571305 107.702718 
L 269.00679 106.349411 
L 269.877761 104.924681 
L 270.313247 103.578843 
L 271.619704 101.329711 
L 272.05519 100.604742 
L 272.490675 99.528258 
L 273.361647 98.209496 
L 274.232618 96.635851 
L 275.539075 94.583249 
L 275.97456 94.096824 
L 276.410046 92.607206 
L 276.845532 91.744059 
L 277.281017 91.159135 
L 277.716503 90.387951 
L 278.151989 89.971549 
L 278.587474 88.926342 
L 279.02296 88.210242 
L 279.458446 88.012311 
L 279.893931 86.627727 
L 280.329417 84.844947 
L 281.200388 83.452894 
L 281.635874 82.29145 
L 282.071359 81.551542 
L 282.506845 80.563287 
L 282.942331 78.548498 
L 283.377816 77.588253 
L 283.813302 77.240006 
L 284.684273 77.47715 
L 285.119759 77.693287 
L 285.555245 77.489754 
L 286.426216 77.525699 
L 286.861701 77.465479 
L 287.297187 77.062615 
L 289.474615 76.187797 
L 289.910101 75.485702 
L 290.345587 75.126718 
L 290.781072 76.918835 
L 291.216558 75.918909 
L 291.652044 75.448823 
L 292.9585 75.123451 
L 293.393986 74.827488 
L 293.829472 74.787341 
L 294.264957 74.532458 
L 294.700443 74.025493 
L 295.135929 73.300991 
L 296.0069 73.022767 
L 296.442386 72.183894 
L 296.877871 71.662458 
L 297.313357 71.448655 
L 297.748842 71.570961 
L 298.184328 70.930019 
L 299.490785 70.64526 
L 299.926271 70.120556 
L 300.361756 69.32323 
L 300.797242 69.247605 
L 301.232728 68.9241 
L 301.668213 68.756979 
L 302.103699 69.136503 
L 302.539185 68.303231 
L 302.97467 67.994664 
L 303.410156 67.481631 
L 303.845641 67.516642 
L 304.716613 68.999258 
L 305.152098 68.848009 
L 305.587584 68.158518 
L 306.02307 66.951325 
L 306.458555 64.979016 
L 306.894041 65.003758 
L 307.329527 64.271786 
L 307.765012 64.139677 
L 308.635984 63.567357 
L 309.071469 62.411514 
L 309.506955 62.2654 
L 309.94244 62.269135 
L 310.377926 61.283681 
L 312.119869 60.651608 
L 312.99084 60.738437 
L 313.426326 60.490556 
L 313.861811 60.68802 
L 314.297297 60.547508 
L 314.732782 60.251078 
L 315.603754 60.230071 
L 316.039239 58.484637 
L 316.474725 58.873963 
L 317.345696 55.701464 
L 317.781182 54.120817 
L 318.216668 54.179169 
L 318.652153 54.669328 
L 319.087639 54.70574 
L 319.523125 54.4784 
L 319.95861 54.505942 
L 320.829581 55.032046 
L 321.700553 53.725421 
L 322.136038 54.304743 
L 323.00701 54.185704 
L 323.442495 53.317889 
L 323.877981 54.480734 
L 324.748952 54.815909 
L 325.184438 53.810849 
L 325.619924 53.379509 
L 326.055409 53.564369 
L 326.92638 53.575573 
L 327.361866 53.771636 
L 327.797352 53.591444 
L 328.232837 54.04846 
L 328.668323 52.988782 
L 329.103809 52.668544 
L 329.97478 52.522897 
L 331.716722 52.822594 
L 332.587694 52.747903 
L 333.023179 51.974852 
L 333.458665 52.603656 
L 333.894151 52.991116 
L 334.329636 52.175117 
L 334.765122 51.615401 
L 335.200608 51.451081 
L 335.636093 51.923035 
L 336.071579 51.312903 
L 336.507065 50.273765 
L 336.94255 49.898909 
L 338.249007 49.488109 
L 338.684493 50.676162 
L 339.119978 50.659357 
L 339.555464 50.845151 
L 339.99095 51.9193 
L 340.426435 52.243739 
L 340.861921 52.971509 
L 341.297407 54.913475 
L 341.732892 54.758024 
L 342.168378 54.252459 
L 342.603864 54.276734 
L 343.039349 53.156369 
L 343.91032 52.990649 
L 344.781292 54.883598 
L 345.216777 54.967625 
L 345.652263 52.78058 
L 346.087749 53.353367 
L 346.95872 53.192781 
L 347.394206 53.805247 
L 348.265177 53.360836 
L 348.700662 53.021926 
L 349.571634 52.961706 
L 350.442605 52.479949 
L 350.878091 52.365579 
L 351.313576 52.112096 
L 351.749062 51.641076 
L 352.184548 51.557983 
L 352.620033 50.948784 
L 353.055519 51.13878 
L 353.491005 50.927311 
L 353.92649 50.49457 
L 354.361976 50.701371 
L 354.797461 50.69857 
L 355.232947 50.808739 
L 355.668433 51.050084 
L 356.97489 51.063155 
L 357.410375 50.35079 
L 357.845861 49.954928 
L 358.716832 49.887706 
L 359.152318 48.781346 
L 359.587804 48.863039 
L 360.023289 48.709456 
L 360.458775 47.685723 
L 360.89426 47.455581 
L 361.329746 45.569167 
L 361.765232 45.21812 
L 362.200717 45.092546 
L 362.636203 44.574844 
L 363.071689 44.239201 
L 363.507174 44.520693 
L 363.94266 43.757444 
L 364.378146 42.166994 
L 364.813631 42.833611 
L 365.249117 43.905426 
L 365.684603 43.241143 
L 366.120088 43.194928 
L 366.555574 42.348119 
L 366.991059 42.331781 
L 367.426545 42.519908 
L 367.862031 43.996922 
L 368.297516 45.006184 
L 368.733002 45.095346 
L 369.603973 43.38399 
L 370.039459 43.832602 
L 370.474945 44.030533 
L 371.781401 43.60993 
L 372.216887 43.883019 
L 372.652373 43.613198 
L 373.523344 43.540374 
L 373.95883 42.773391 
L 374.829801 42.900832 
L 375.265287 42.348119 
L 375.700772 42.322911 
L 376.136258 43.16972 
L 376.571744 43.438141 
L 377.007229 43.367184 
L 377.442715 43.570717 
L 378.313686 42.066161 
L 378.749172 42.155323 
L 379.184657 41.477969 
L 380.055629 42.345785 
L 380.491114 40.123729 
L 380.9266 39.699857 
L 381.362086 39.704993 
L 381.797571 40.401019 
L 382.233057 40.579344 
L 382.668543 39.515931 
L 383.104028 40.247436 
L 383.539514 40.184882 
L 383.974999 39.95474 
L 384.410485 40.024763 
L 384.845971 41.30618 
L 385.281456 40.007491 
L 386.152428 35.552175 
L 386.587913 35.447607 
L 387.023399 34.990125 
L 387.458885 35.690353 
L 387.89437 35.782783 
L 388.329856 36.194517 
L 388.765341 36.361638 
L 389.636313 35.808458 
L 390.071798 35.926096 
L 390.507284 36.565171 
L 390.94277 37.715412 
L 391.378255 38.472591 
L 391.813741 38.868454 
L 392.249227 39.517798 
L 392.684712 38.51834 
L 393.120198 38.479127 
L 393.555684 37.87413 
L 393.991169 38.878724 
L 394.426655 38.904399 
L 394.86214 38.567356 
L 395.297626 39.431437 
L 395.733112 38.537012 
L 396.168597 38.440381 
L 396.604083 38.490797 
L 397.039569 38.231713 
L 397.475054 37.424584 
L 397.91054 37.507211 
L 398.346026 37.475467 
L 398.781511 37.062333 
L 399.216997 37.218717 
L 399.652483 36.618388 
L 400.087968 36.569372 
L 400.523454 36.66367 
L 400.958939 38.316674 
L 401.394425 38.249919 
L 401.829911 39.98415 
L 401.829911 39.98415 
" clip-path="url(#pb57a985d6a)" style="fill: none; stroke: #d62728; stroke-opacity: 0.8; stroke-width: 1.5; stroke-linecap: square"/>
   </g>
   <g id="line2d_21">
    <path d="M 146.635325 242.437293 
L 149.683725 242.561466 
L 150.11921 242.559132 
L 150.990181 242.407416 
L 152.296638 242.408817 
L 153.16761 242.490977 
L 153.603095 242.379874 
L 154.474067 242.448963 
L 154.909552 242.269238 
L 155.345038 242.324789 
L 155.780523 242.190346 
L 157.08698 242.307517 
L 157.522466 242.335993 
L 157.957952 241.624562 
L 159.699894 241.654438 
L 160.13538 241.406557 
L 161.877322 241.429431 
L 163.619265 241.541001 
L 166.232179 241.653038 
L 167.538636 241.81269 
L 167.974121 241.957403 
L 170.15155 241.997083 
L 171.893492 242.097449 
L 172.764463 241.970007 
L 173.635435 242.104451 
L 174.07092 242.118922 
L 174.506406 241.807555 
L 177.554806 241.867307 
L 177.990291 241.499921 
L 179.296748 241.625028 
L 179.732234 241.491985 
L 180.603205 241.62036 
L 185.829033 241.693184 
L 186.700004 241.648369 
L 187.13549 241.109194 
L 188.441947 241.064379 
L 190.183889 241.115729 
L 190.619375 241.021432 
L 192.796803 241.085386 
L 194.10326 241.205359 
L 194.974231 241.38275 
L 195.409717 241.388818 
L 195.845202 241.541468 
L 196.280688 241.498521 
L 196.716174 241.10686 
L 197.587145 241.062512 
L 198.893602 241.216095 
L 200.635545 241.352873 
L 211.958171 241.231034 
L 213.264628 241.252507 
L 213.700114 241.341203 
L 214.135599 241.203958 
L 220.232398 241.049441 
L 221.538855 241.151674 
L 225.02274 241.195555 
L 225.458226 241.369679 
L 227.635654 241.039171 
L 228.07114 241.033569 
L 228.942111 241.156343 
L 229.377597 241.117597 
L 229.813082 240.946741 
L 234.167939 240.659181 
L 236.780853 240.7194 
L 238.08731 240.654513 
L 238.958281 240.758146 
L 239.393767 240.741341 
L 239.829252 240.879986 
L 240.264738 240.852911 
L 240.700224 240.478055 
L 242.442166 240.374422 
L 242.877652 241.104993 
L 244.619594 241.112928 
L 245.05508 241.317862 
L 246.797022 241.320663 
L 247.667994 241.211427 
L 248.538965 241.196022 
L 249.409936 241.05691 
L 251.587365 240.915931 
L 252.02285 241.012096 
L 252.893821 240.907062 
L 253.764793 240.923867 
L 254.200278 240.450046 
L 255.506735 240.363218 
L 256.377707 240.239044 
L 256.813192 239.6924 
L 257.248678 239.576162 
L 258.119649 239.569626 
L 258.99062 239.543484 
L 259.426106 239.887997 
L 261.603534 239.901534 
L 262.474506 239.857653 
L 262.909991 240.206367 
L 263.780962 240.098999 
L 264.216448 240.078459 
L 264.651934 240.182092 
L 266.393876 240.028042 
L 266.829362 240.149882 
L 269.00679 240.053717 
L 271.619704 239.988363 
L 272.05519 240.511199 
L 272.926161 240.598028 
L 273.361647 240.334275 
L 275.103589 240.386092 
L 276.410046 240.211035 
L 277.716503 240.122806 
L 278.151989 239.983228 
L 279.458446 239.973424 
L 280.329417 240.097131 
L 281.200388 240.162019 
L 281.635874 240.561149 
L 283.377816 240.69746 
L 284.248788 240.651712 
L 284.684273 240.443511 
L 285.99073 240.466852 
L 286.426216 240.598494 
L 289.03913 240.546678 
L 291.216558 240.339877 
L 292.087529 240.372087 
L 295.571414 240.302531 
L 296.0069 240.440243 
L 296.877871 240.461717 
L 297.313357 240.210568 
L 298.184328 240.146614 
L 298.619814 239.447787 
L 299.490785 239.544885 
L 300.361756 239.402505 
L 305.152098 239.44872 
L 306.458555 239.395503 
L 307.329527 239.35629 
L 308.200498 239.183567 
L 310.377926 238.995906 
L 311.248897 238.953893 
L 311.684383 239.166295 
L 312.119869 239.074799 
L 312.99084 239.157892 
L 314.297297 239.12895 
L 314.732782 239.282066 
L 315.603754 239.374029 
L 316.910211 239.472995 
L 318.216668 239.248455 
L 319.95861 239.334817 
L 325.184438 239.336217 
L 325.619924 239.843182 
L 329.539294 239.606972 
L 331.281237 239.491668 
L 331.716722 239.15089 
L 332.152208 239.258725 
L 333.023179 239.13035 
L 333.894151 239.050524 
L 334.765122 238.251798 
L 336.507065 235.863087 
L 336.94255 235.342584 
L 337.813521 234.015419 
L 338.684493 233.041636 
L 339.119978 233.051439 
L 339.555464 232.57295 
L 339.99095 231.474526 
L 341.297407 230.247726 
L 341.732892 229.697347 
L 342.168378 229.472341 
L 343.039349 228.360379 
L 344.345806 226.506176 
L 344.781292 224.031104 
L 346.523234 222.169898 
L 346.95872 221.50935 
L 347.394206 221.10135 
L 348.265177 219.874551 
L 348.700662 219.448813 
L 350.442605 217.154399 
L 351.313576 216.122263 
L 356.103918 209.293642 
L 357.410375 207.412363 
L 357.845861 206.731274 
L 358.281347 206.549215 
L 359.152318 205.671129 
L 359.587804 205.299542 
L 360.023289 204.590911 
L 360.458775 204.352834 
L 361.329746 203.532167 
L 361.765232 202.827271 
L 363.071689 201.56406 
L 365.684603 198.419103 
L 366.120088 197.614308 
L 366.555574 197.20024 
L 366.991059 196.395911 
L 369.603973 193.571192 
L 371.345916 191.735195 
L 373.087858 189.113075 
L 373.95883 188.316682 
L 374.394315 187.641663 
L 374.829801 186.687019 
L 377.442715 183.177477 
L 377.8782 182.47118 
L 378.313686 182.150009 
L 378.749172 181.471722 
L 380.491114 179.675404 
L 381.797571 177.767983 
L 382.233057 177.66435 
L 383.104028 176.418411 
L 383.539514 176.432415 
L 384.410485 174.806953 
L 385.281456 173.912529 
L 387.023399 171.914545 
L 388.765341 169.130439 
L 389.636313 167.620748 
L 390.071798 167.199211 
L 390.94277 165.771213 
L 392.249227 163.880598 
L 394.86214 160.70203 
L 397.039569 157.540268 
L 400.523454 152.462683 
L 401.829911 150.50718 
L 401.829911 150.50718 
" clip-path="url(#pb57a985d6a)" style="fill: none; stroke: #9467bd; stroke-opacity: 0.8; stroke-width: 1.5; stroke-linecap: square"/>
   </g>
   <g id="patch_3">
    <path d="M 61.715625 288.430125 
L 61.715625 22.318125 
" style="fill: none; stroke: #000000; stroke-width: 0.8; stroke-linejoin: miter; stroke-linecap: square"/>
   </g>
   <g id="patch_4">
    <path d="M 418.835625 288.430125 
L 418.835625 22.318125 
" style="fill: none; stroke: #000000; stroke-width: 0.8; stroke-linejoin: miter; stroke-linecap: square"/>
   </g>
   <g id="patch_5">
    <path d="M 61.715625 288.430125 
L 418.835625 288.430125 
" style="fill: none; stroke: #000000; stroke-width: 0.8; stroke-linejoin: miter; stroke-linecap: square"/>
   </g>
   <g id="patch_6">
    <path d="M 61.715625 22.318125 
L 418.835625 22.318125 
" style="fill: none; stroke: #000000; stroke-width: 0.8; stroke-linejoin: miter; stroke-linecap: square"/>
   </g>
   <g id="text_19">
    <!-- Get filtered children count [root] -->
    <g transform="translate(142.926563 16.318125) scale(0.12 -0.12)">
     <defs>
      <path id="DejaVuSans-47" d="M 3809 666 
L 3809 1919 
L 2778 1919 
L 2778 2438 
L 4434 2438 
L 4434 434 
Q 4069 175 3628 42 
Q 3188 -91 2688 -91 
Q 1594 -91 976 548 
Q 359 1188 359 2328 
Q 359 3472 976 4111 
Q 1594 4750 2688 4750 
Q 3144 4750 3555 4637 
Q 3966 4525 4313 4306 
L 4313 3634 
Q 3963 3931 3569 4081 
Q 3175 4231 2741 4231 
Q 1884 4231 1454 3753 
Q 1025 3275 1025 2328 
Q 1025 1384 1454 906 
Q 1884 428 2741 428 
Q 3075 428 3337 486 
Q 3600 544 3809 666 
z
" transform="scale(0.015625)"/>
      <path id="DejaVuSans-72" d="M 2631 2963 
Q 2534 3019 2420 3045 
Q 2306 3072 2169 3072 
Q 1681 3072 1420 2755 
Q 1159 2438 1159 1844 
L 1159 0 
L 581 0 
L 581 3500 
L 1159 3500 
L 1159 2956 
Q 1341 3275 1631 3429 
Q 1922 3584 2338 3584 
Q 2397 3584 2469 3576 
Q 2541 3569 2628 3553 
L 2631 2963 
z
" transform="scale(0.015625)"/>
      <path id="DejaVuSans-68" d="M 3513 2113 
L 3513 0 
L 2938 0 
L 2938 2094 
Q 2938 2591 2744 2837 
Q 2550 3084 2163 3084 
Q 1697 3084 1428 2787 
Q 1159 2491 1159 1978 
L 1159 0 
L 581 0 
L 581 4863 
L 1159 4863 
L 1159 2956 
Q 1366 3272 1645 3428 
Q 1925 3584 2291 3584 
Q 2894 3584 3203 3211 
Q 3513 2838 3513 2113 
z
" transform="scale(0.015625)"/>
      <path id="DejaVuSans-5b" d="M 550 4863 
L 1875 4863 
L 1875 4416 
L 1125 4416 
L 1125 -397 
L 1875 -397 
L 1875 -844 
L 550 -844 
L 550 4863 
z
" transform="scale(0.015625)"/>
      <path id="DejaVuSans-5d" d="M 1947 4863 
L 1947 -844 
L 622 -844 
L 622 -397 
L 1369 -397 
L 1369 4416 
L 622 4416 
L 622 4863 
L 1947 4863 
z
" transform="scale(0.015625)"/>
     </defs>
     <use xlink:href="#DejaVuSans-47"/>
     <use xlink:href="#DejaVuSans-65" transform="translate(77.490234 0)"/>
     <use xlink:href="#DejaVuSans-74" transform="translate(139.013672 0)"/>
     <use xlink:href="#DejaVuSans-20" transform="translate(178.222656 0)"/>
     <use xlink:href="#DejaVuSans-66" transform="translate(210.009766 0)"/>
     <use xlink:href="#DejaVuSans-69" transform="translate(245.214844 0)"/>
     <use xlink:href="#DejaVuSans-6c" transform="translate(272.998047 0)"/>
     <use xlink:href="#DejaVuSans-74" transform="translate(300.78125 0)"/>
     <use xlink:href="#DejaVuSans-65" transform="translate(339.990234 0)"/>
     <use xlink:href="#DejaVuSans-72" transform="translate(401.513672 0)"/>
     <use xlink:href="#DejaVuSans-65" transform="translate(440.376953 0)"/>
     <use xlink:href="#DejaVuSans-64" transform="translate(501.900391 0)"/>
     <use xlink:href="#DejaVuSans-20" transform="translate(565.376953 0)"/>
     <use xlink:href="#DejaVuSans-63" transform="translate(597.164062 0)"/>
     <use xlink:href="#DejaVuSans-68" transform="translate(652.144531 0)"/>
     <use xlink:href="#DejaVuSans-69" transform="translate(715.523438 0)"/>
     <use xlink:href="#DejaVuSans-6c" transform="translate(743.306641 0)"/>
     <use xlink:href="#DejaVuSans-64" transform="translate(771.089844 0)"/>
     <use xlink:href="#DejaVuSans-72" transform="translate(834.566406 0)"/>
     <use xlink:href="#DejaVuSans-65" transform="translate(873.429688 0)"/>
     <use xlink:href="#DejaVuSans-6e" transform="translate(934.953125 0)"/>
     <use xlink:href="#DejaVuSans-20" transform="translate(998.332031 0)"/>
     <use xlink:href="#DejaVuSans-63" transform="translate(1030.119141 0)"/>
     <use xlink:href="#DejaVuSans-6f" transform="translate(1085.099609 0)"/>
     <use xlink:href="#DejaVuSans-75" transform="translate(1146.28125 0)"/>
     <use xlink:href="#DejaVuSans-6e" transform="translate(1209.660156 0)"/>
     <use xlink:href="#DejaVuSans-74" transform="translate(1273.039062 0)"/>
     <use xlink:href="#DejaVuSans-20" transform="translate(1312.248047 0)"/>
     <use xlink:href="#DejaVuSans-5b" transform="translate(1344.035156 0)"/>
     <use xlink:href="#DejaVuSans-72" transform="translate(1383.048828 0)"/>
     <use xlink:href="#DejaVuSans-6f" transform="translate(1421.912109 0)"/>
     <use xlink:href="#DejaVuSans-6f" transform="translate(1483.09375 0)"/>
     <use xlink:href="#DejaVuSans-74" transform="translate(1544.275391 0)"/>
     <use xlink:href="#DejaVuSans-5d" transform="translate(1583.484375 0)"/>
    </g>
   </g>
   <g id="legend_1">
    <g id="patch_7">
     <path d="M 92.717969 365.802375 
L 380.313281 365.802375 
Q 382.313281 365.802375 382.313281 363.802375 
L 382.313281 335.446125 
Q 382.313281 333.446125 380.313281 333.446125 
L 92.717969 333.446125 
Q 90.717969 333.446125 90.717969 335.446125 
L 90.717969 363.802375 
Q 90.717969 365.802375 92.717969 365.802375 
z
" style="fill: #4d4d4d; opacity: 0.5; stroke: #4d4d4d; stroke-linejoin: miter"/>
    </g>
    <g id="patch_8">
     <path d="M 90.717969 363.802375 
L 378.313281 363.802375 
Q 380.313281 363.802375 380.313281 361.802375 
L 380.313281 333.446125 
Q 380.313281 331.446125 378.313281 331.446125 
L 90.717969 331.446125 
Q 88.717969 331.446125 88.717969 333.446125 
L 88.717969 361.802375 
Q 88.717969 363.802375 90.717969 363.802375 
z
" style="fill: #ffffff; stroke: #cccccc; stroke-linejoin: miter"/>
    </g>
    <g id="line2d_22">
     <path d="M 92.717969 339.544562 
L 102.717969 339.544562 
L 112.717969 339.544562 
" style="fill: none; stroke: #1f77b4; stroke-opacity: 0.8; stroke-width: 1.5; stroke-linecap: square"/>
    </g>
    <g id="text_20">
     <!-- MPTT -->
     <g transform="translate(120.717969 343.044562) scale(0.1 -0.1)">
      <defs>
       <path id="DejaVuSans-4d" d="M 628 4666 
L 1569 4666 
L 2759 1491 
L 3956 4666 
L 4897 4666 
L 4897 0 
L 4281 0 
L 4281 4097 
L 3078 897 
L 2444 897 
L 1241 4097 
L 1241 0 
L 628 0 
L 628 4666 
z
" transform="scale(0.015625)"/>
       <path id="DejaVuSans-50" d="M 1259 4147 
L 1259 2394 
L 2053 2394 
Q 2494 2394 2734 2622 
Q 2975 2850 2975 3272 
Q 2975 3691 2734 3919 
Q 2494 4147 2053 4147 
L 1259 4147 
z
M 628 4666 
L 2053 4666 
Q 2838 4666 3239 4311 
Q 3641 3956 3641 3272 
Q 3641 2581 3239 2228 
Q 2838 1875 2053 1875 
L 1259 1875 
L 1259 0 
L 628 0 
L 628 4666 
z
" transform="scale(0.015625)"/>
       <path id="DejaVuSans-54" d="M -19 4666 
L 3928 4666 
L 3928 4134 
L 2272 4134 
L 2272 0 
L 1638 0 
L 1638 4134 
L -19 4134 
L -19 4666 
z
" transform="scale(0.015625)"/>
      </defs>
      <use xlink:href="#DejaVuSans-4d"/>
      <use xlink:href="#DejaVuSans-50" transform="translate(86.279297 0)"/>
      <use xlink:href="#DejaVuSans-54" transform="translate(146.582031 0)"/>
      <use xlink:href="#DejaVuSans-54" transform="translate(205.916016 0)"/>
     </g>
    </g>
    <g id="line2d_23">
     <path d="M 92.717969 354.222687 
L 102.717969 354.222687 
L 112.717969 354.222687 
" style="fill: none; stroke: #ff7f0e; stroke-opacity: 0.8; stroke-width: 1.5; stroke-linecap: square"/>
    </g>
    <g id="text_21">
     <!-- tree -->
     <g transform="translate(120.717969 357.722687) scale(0.1 -0.1)">
      <use xlink:href="#DejaVuSans-74"/>
      <use xlink:href="#DejaVuSans-72" transform="translate(39.208984 0)"/>
      <use xlink:href="#DejaVuSans-65" transform="translate(78.072266 0)"/>
      <use xlink:href="#DejaVuSans-65" transform="translate(139.595703 0)"/>
     </g>
    </g>
    <g id="line2d_24">
     <path d="M 167.416406 339.544562 
L 177.416406 339.544562 
L 187.416406 339.544562 
" style="fill: none; stroke: #2ca02c; stroke-opacity: 0.8; stroke-width: 1.5; stroke-linecap: square"/>
    </g>
    <g id="text_22">
     <!-- treebeard AL -->
     <g transform="translate(195.416406 343.044562) scale(0.1 -0.1)">
      <defs>
       <path id="DejaVuSans-4c" d="M 628 4666 
L 1259 4666 
L 1259 531 
L 3531 531 
L 3531 0 
L 628 0 
L 628 4666 
z
" transform="scale(0.015625)"/>
      </defs>
      <use xlink:href="#DejaVuSans-74"/>
      <use xlink:href="#DejaVuSans-72" transform="translate(39.208984 0)"/>
      <use xlink:href="#DejaVuSans-65" transform="translate(78.072266 0)"/>
      <use xlink:href="#DejaVuSans-65" transform="translate(139.595703 0)"/>
      <use xlink:href="#DejaVuSans-62" transform="translate(201.119141 0)"/>
      <use xlink:href="#DejaVuSans-65" transform="translate(264.595703 0)"/>
      <use xlink:href="#DejaVuSans-61" transform="translate(326.119141 0)"/>
      <use xlink:href="#DejaVuSans-72" transform="translate(387.398438 0)"/>
      <use xlink:href="#DejaVuSans-64" transform="translate(426.761719 0)"/>
      <use xlink:href="#DejaVuSans-20" transform="translate(490.238281 0)"/>
      <use xlink:href="#DejaVuSans-41" transform="translate(522.025391 0)"/>
      <use xlink:href="#DejaVuSans-4c" transform="translate(590.433594 0)"/>
     </g>
    </g>
    <g id="line2d_25">
     <path d="M 167.416406 354.222687 
L 177.416406 354.222687 
L 187.416406 354.222687 
" style="fill: none; stroke: #d62728; stroke-opacity: 0.8; stroke-width: 1.5; stroke-linecap: square"/>
    </g>
    <g id="text_23">
     <!-- treebeard MP -->
     <g transform="translate(195.416406 357.722687) scale(0.1 -0.1)">
      <use xlink:href="#DejaVuSans-74"/>
      <use xlink:href="#DejaVuSans-72" transform="translate(39.208984 0)"/>
      <use xlink:href="#DejaVuSans-65" transform="translate(78.072266 0)"/>
      <use xlink:href="#DejaVuSans-65" transform="translate(139.595703 0)"/>
      <use xlink:href="#DejaVuSans-62" transform="translate(201.119141 0)"/>
      <use xlink:href="#DejaVuSans-65" transform="translate(264.595703 0)"/>
      <use xlink:href="#DejaVuSans-61" transform="translate(326.119141 0)"/>
      <use xlink:href="#DejaVuSans-72" transform="translate(387.398438 0)"/>
      <use xlink:href="#DejaVuSans-64" transform="translate(426.761719 0)"/>
      <use xlink:href="#DejaVuSans-20" transform="translate(490.238281 0)"/>
      <use xlink:href="#DejaVuSans-4d" transform="translate(522.025391 0)"/>
      <use xlink:href="#DejaVuSans-50" transform="translate(608.304688 0)"/>
     </g>
    </g>
    <g id="line2d_26">
     <path d="M 282.278906 339.544562 
L 292.278906 339.544562 
L 302.278906 339.544562 
" style="fill: none; stroke: #9467bd; stroke-opacity: 0.8; stroke-width: 1.5; stroke-linecap: square"/>
    </g>
    <g id="text_24">
     <!-- treebeard NS -->
     <g transform="translate(310.278906 343.044562) scale(0.1 -0.1)">
      <defs>
       <path id="DejaVuSans-4e" d="M 628 4666 
L 1478 4666 
L 3547 763 
L 3547 4666 
L 4159 4666 
L 4159 0 
L 3309 0 
L 1241 3903 
L 1241 0 
L 628 0 
L 628 4666 
z
" transform="scale(0.015625)"/>
       <path id="DejaVuSans-53" d="M 3425 4513 
L 3425 3897 
Q 3066 4069 2747 4153 
Q 2428 4238 2131 4238 
Q 1616 4238 1336 4038 
Q 1056 3838 1056 3469 
Q 1056 3159 1242 3001 
Q 1428 2844 1947 2747 
L 2328 2669 
Q 3034 2534 3370 2195 
Q 3706 1856 3706 1288 
Q 3706 609 3251 259 
Q 2797 -91 1919 -91 
Q 1588 -91 1214 -16 
Q 841 59 441 206 
L 441 856 
Q 825 641 1194 531 
Q 1563 422 1919 422 
Q 2459 422 2753 634 
Q 3047 847 3047 1241 
Q 3047 1584 2836 1778 
Q 2625 1972 2144 2069 
L 1759 2144 
Q 1053 2284 737 2584 
Q 422 2884 422 3419 
Q 422 4038 858 4394 
Q 1294 4750 2059 4750 
Q 2388 4750 2728 4690 
Q 3069 4631 3425 4513 
z
" transform="scale(0.015625)"/>
      </defs>
      <use xlink:href="#DejaVuSans-74"/>
      <use xlink:href="#DejaVuSans-72" transform="translate(39.208984 0)"/>
      <use xlink:href="#DejaVuSans-65" transform="translate(78.072266 0)"/>
      <use xlink:href="#DejaVuSans-65" transform="translate(139.595703 0)"/>
      <use xlink:href="#DejaVuSans-62" transform="translate(201.119141 0)"/>
      <use xlink:href="#DejaVuSans-65" transform="translate(264.595703 0)"/>
      <use xlink:href="#DejaVuSans-61" transform="translate(326.119141 0)"/>
      <use xlink:href="#DejaVuSans-72" transform="translate(387.398438 0)"/>
      <use xlink:href="#DejaVuSans-64" transform="translate(426.761719 0)"/>
      <use xlink:href="#DejaVuSans-20" transform="translate(490.238281 0)"/>
      <use xlink:href="#DejaVuSans-4e" transform="translate(522.025391 0)"/>
      <use xlink:href="#DejaVuSans-53" transform="translate(596.830078 0)"/>
     </g>
    </g>
   </g>
  </g>
 </g>
 <defs>
  <clipPath id="pb57a985d6a">
   <rect x="61.715625" y="22.318125" width="357.12" height="266.112"/>
  </clipPath>
 </defs>
</svg>
