<?xml version="1.0" encoding="utf-8" standalone="no"?>
<!DOCTYPE svg PUBLIC "-//W3C//DTD SVG 1.1//EN"
  "http://www.w3.org/Graphics/SVG/1.1/DTD/svg11.dtd">
<svg xmlns:xlink="http://www.w3.org/1999/xlink" width="423.05125pt" height="371.002375pt" viewBox="0 0 423.05125 371.002375" xmlns="http://www.w3.org/2000/svg" version="1.1">
 <metadata>
  <rdf:RDF xmlns:dc="http://purl.org/dc/elements/1.1/" xmlns:cc="http://creativecommons.org/ns#" xmlns:rdf="http://www.w3.org/1999/02/22-rdf-syntax-ns#">
   <cc:Work>
    <dc:type rdf:resource="http://purl.org/dc/dcmitype/StillImage"/>
    <dc:date>2025-09-29T14:54:27.302219</dc:date>
    <dc:format>image/svg+xml</dc:format>
    <dc:creator>
     <cc:Agent>
      <dc:title>Matplotlib v3.10.6, https://matplotlib.org/</dc:title>
     </cc:Agent>
    </dc:creator>
   </cc:Work>
  </rdf:RDF>
 </metadata>
 <defs>
  <style type="text/css">*{stroke-linejoin: round; stroke-linecap: butt}</style>
 </defs>
 <g id="figure_1">
  <g id="patch_1">
   <path d="M 0 371.002375 
L 423.05125 371.002375 
L 423.05125 0 
L 0 0 
z
" style="fill: #ffffff"/>
  </g>
  <g id="axes_1">
   <g id="patch_2">
    <path d="M 58.73125 288.430125 
L 415.85125 288.430125 
L 415.85125 22.318125 
L 58.73125 22.318125 
z
" style="fill: #ffffff"/>
   </g>
   <g id="matplotlib.axis_1">
    <g id="xtick_1">
     <g id="line2d_1">
      <defs>
       <path id="m666ce35fda" d="M 0 0 
L 0 3.5 
" style="stroke: #000000; stroke-width: 0.8"/>
      </defs>
      <g>
       <use xlink:href="#m666ce35fda" x="58.73125" y="288.430125" style="stroke: #000000; stroke-width: 0.8"/>
      </g>
     </g>
     <g id="text_1">
      <!-- 0 -->
      <g transform="translate(55.55 303.028562) scale(0.1 -0.1)">
       <defs>
        <path id="DejaVuSans-30" d="M 2034 4250 
Q 1547 4250 1301 3770 
Q 1056 3291 1056 2328 
Q 1056 1369 1301 889 
Q 1547 409 2034 409 
Q 2525 409 2770 889 
Q 3016 1369 3016 2328 
Q 3016 3291 2770 3770 
Q 2525 4250 2034 4250 
z
M 2034 4750 
Q 2819 4750 3233 4129 
Q 3647 3509 3647 2328 
Q 3647 1150 3233 529 
Q 2819 -91 2034 -91 
Q 1250 -91 836 529 
Q 422 1150 422 2328 
Q 422 3509 836 4129 
Q 1250 4750 2034 4750 
z
" transform="scale(0.015625)"/>
       </defs>
       <use xlink:href="#DejaVuSans-30"/>
      </g>
     </g>
    </g>
    <g id="xtick_2">
     <g id="line2d_2">
      <g>
       <use xlink:href="#m666ce35fda" x="102.279814" y="288.430125" style="stroke: #000000; stroke-width: 0.8"/>
      </g>
     </g>
     <g id="text_2">
      <!-- 500  -->
      <g transform="translate(91.147002 303.028562) scale(0.1 -0.1)">
       <defs>
        <path id="DejaVuSans-35" d="M 691 4666 
L 3169 4666 
L 3169 4134 
L 1269 4134 
L 1269 2991 
Q 1406 3038 1543 3061 
Q 1681 3084 1819 3084 
Q 2600 3084 3056 2656 
Q 3513 2228 3513 1497 
Q 3513 744 3044 326 
Q 2575 -91 1722 -91 
Q 1428 -91 1123 -41 
Q 819 9 494 109 
L 494 744 
Q 775 591 1075 516 
Q 1375 441 1709 441 
Q 2250 441 2565 725 
Q 2881 1009 2881 1497 
Q 2881 1984 2565 2268 
Q 2250 2553 1709 2553 
Q 1456 2553 1204 2497 
Q 953 2441 691 2322 
L 691 4666 
z
" transform="scale(0.015625)"/>
        <path id="DejaVuSans-20" transform="scale(0.015625)"/>
       </defs>
       <use xlink:href="#DejaVuSans-35"/>
       <use xlink:href="#DejaVuSans-30" transform="translate(63.623047 0)"/>
       <use xlink:href="#DejaVuSans-30" transform="translate(127.246094 0)"/>
       <use xlink:href="#DejaVuSans-20" transform="translate(190.869141 0)"/>
      </g>
     </g>
    </g>
    <g id="xtick_3">
     <g id="line2d_3">
      <g>
       <use xlink:href="#m666ce35fda" x="145.828378" y="288.430125" style="stroke: #000000; stroke-width: 0.8"/>
      </g>
     </g>
     <g id="text_3">
      <!-- 1 k -->
      <g transform="translate(138.162753 303.028562) scale(0.1 -0.1)">
       <defs>
        <path id="DejaVuSans-31" d="M 794 531 
L 1825 531 
L 1825 4091 
L 703 3866 
L 703 4441 
L 1819 4666 
L 2450 4666 
L 2450 531 
L 3481 531 
L 3481 0 
L 794 0 
L 794 531 
z
" transform="scale(0.015625)"/>
        <path id="DejaVuSans-6b" d="M 581 4863 
L 1159 4863 
L 1159 1991 
L 2875 3500 
L 3609 3500 
L 1753 1863 
L 3688 0 
L 2938 0 
L 1159 1709 
L 1159 0 
L 581 0 
L 581 4863 
z
" transform="scale(0.015625)"/>
       </defs>
       <use xlink:href="#DejaVuSans-31"/>
       <use xlink:href="#DejaVuSans-20" transform="translate(63.623047 0)"/>
       <use xlink:href="#DejaVuSans-6b" transform="translate(95.410156 0)"/>
      </g>
     </g>
    </g>
    <g id="xtick_4">
     <g id="line2d_4">
      <g>
       <use xlink:href="#m666ce35fda" x="189.376942" y="288.430125" style="stroke: #000000; stroke-width: 0.8"/>
      </g>
     </g>
     <g id="text_4">
      <!-- 1.5 k -->
      <g transform="translate(176.941005 303.028562) scale(0.1 -0.1)">
       <defs>
        <path id="DejaVuSans-2e" d="M 684 794 
L 1344 794 
L 1344 0 
L 684 0 
L 684 794 
z
" transform="scale(0.015625)"/>
       </defs>
       <use xlink:href="#DejaVuSans-31"/>
       <use xlink:href="#DejaVuSans-2e" transform="translate(63.623047 0)"/>
       <use xlink:href="#DejaVuSans-35" transform="translate(95.410156 0)"/>
       <use xlink:href="#DejaVuSans-20" transform="translate(159.033203 0)"/>
       <use xlink:href="#DejaVuSans-6b" transform="translate(190.820312 0)"/>
      </g>
     </g>
    </g>
    <g id="xtick_5">
     <g id="line2d_5">
      <g>
       <use xlink:href="#m666ce35fda" x="232.925506" y="288.430125" style="stroke: #000000; stroke-width: 0.8"/>
      </g>
     </g>
     <g id="text_5">
      <!-- 2 k -->
      <g transform="translate(225.259881 303.028562) scale(0.1 -0.1)">
       <defs>
        <path id="DejaVuSans-32" d="M 1228 531 
L 3431 531 
L 3431 0 
L 469 0 
L 469 531 
Q 828 903 1448 1529 
Q 2069 2156 2228 2338 
Q 2531 2678 2651 2914 
Q 2772 3150 2772 3378 
Q 2772 3750 2511 3984 
Q 2250 4219 1831 4219 
Q 1534 4219 1204 4116 
Q 875 4013 500 3803 
L 500 4441 
Q 881 4594 1212 4672 
Q 1544 4750 1819 4750 
Q 2544 4750 2975 4387 
Q 3406 4025 3406 3419 
Q 3406 3131 3298 2873 
Q 3191 2616 2906 2266 
Q 2828 2175 2409 1742 
Q 1991 1309 1228 531 
z
" transform="scale(0.015625)"/>
       </defs>
       <use xlink:href="#DejaVuSans-32"/>
       <use xlink:href="#DejaVuSans-20" transform="translate(63.623047 0)"/>
       <use xlink:href="#DejaVuSans-6b" transform="translate(95.410156 0)"/>
      </g>
     </g>
    </g>
    <g id="xtick_6">
     <g id="line2d_6">
      <g>
       <use xlink:href="#m666ce35fda" x="276.474071" y="288.430125" style="stroke: #000000; stroke-width: 0.8"/>
      </g>
     </g>
     <g id="text_6">
      <!-- 2.5 k -->
      <g transform="translate(264.038133 303.028562) scale(0.1 -0.1)">
       <use xlink:href="#DejaVuSans-32"/>
       <use xlink:href="#DejaVuSans-2e" transform="translate(63.623047 0)"/>
       <use xlink:href="#DejaVuSans-35" transform="translate(95.410156 0)"/>
       <use xlink:href="#DejaVuSans-20" transform="translate(159.033203 0)"/>
       <use xlink:href="#DejaVuSans-6b" transform="translate(190.820312 0)"/>
      </g>
     </g>
    </g>
    <g id="xtick_7">
     <g id="line2d_7">
      <g>
       <use xlink:href="#m666ce35fda" x="320.022635" y="288.430125" style="stroke: #000000; stroke-width: 0.8"/>
      </g>
     </g>
     <g id="text_7">
      <!-- 3 k -->
      <g transform="translate(312.35701 303.028562) scale(0.1 -0.1)">
       <defs>
        <path id="DejaVuSans-33" d="M 2597 2516 
Q 3050 2419 3304 2112 
Q 3559 1806 3559 1356 
Q 3559 666 3084 287 
Q 2609 -91 1734 -91 
Q 1441 -91 1130 -33 
Q 819 25 488 141 
L 488 750 
Q 750 597 1062 519 
Q 1375 441 1716 441 
Q 2309 441 2620 675 
Q 2931 909 2931 1356 
Q 2931 1769 2642 2001 
Q 2353 2234 1838 2234 
L 1294 2234 
L 1294 2753 
L 1863 2753 
Q 2328 2753 2575 2939 
Q 2822 3125 2822 3475 
Q 2822 3834 2567 4026 
Q 2313 4219 1838 4219 
Q 1578 4219 1281 4162 
Q 984 4106 628 3988 
L 628 4550 
Q 988 4650 1302 4700 
Q 1616 4750 1894 4750 
Q 2613 4750 3031 4423 
Q 3450 4097 3450 3541 
Q 3450 3153 3228 2886 
Q 3006 2619 2597 2516 
z
" transform="scale(0.015625)"/>
       </defs>
       <use xlink:href="#DejaVuSans-33"/>
       <use xlink:href="#DejaVuSans-20" transform="translate(63.623047 0)"/>
       <use xlink:href="#DejaVuSans-6b" transform="translate(95.410156 0)"/>
      </g>
     </g>
    </g>
    <g id="xtick_8">
     <g id="line2d_8">
      <g>
       <use xlink:href="#m666ce35fda" x="363.571199" y="288.430125" style="stroke: #000000; stroke-width: 0.8"/>
      </g>
     </g>
     <g id="text_8">
      <!-- 3.5 k -->
      <g transform="translate(351.135261 303.028562) scale(0.1 -0.1)">
       <use xlink:href="#DejaVuSans-33"/>
       <use xlink:href="#DejaVuSans-2e" transform="translate(63.623047 0)"/>
       <use xlink:href="#DejaVuSans-35" transform="translate(95.410156 0)"/>
       <use xlink:href="#DejaVuSans-20" transform="translate(159.033203 0)"/>
       <use xlink:href="#DejaVuSans-6b" transform="translate(190.820312 0)"/>
      </g>
     </g>
    </g>
    <g id="xtick_9">
     <g id="line2d_9">
      <g>
       <use xlink:href="#m666ce35fda" x="407.119763" y="288.430125" style="stroke: #000000; stroke-width: 0.8"/>
      </g>
     </g>
     <g id="text_9">
      <!-- 4 k -->
      <g transform="translate(399.454138 303.028562) scale(0.1 -0.1)">
       <defs>
        <path id="DejaVuSans-34" d="M 2419 4116 
L 825 1625 
L 2419 1625 
L 2419 4116 
z
M 2253 4666 
L 3047 4666 
L 3047 1625 
L 3713 1625 
L 3713 1100 
L 3047 1100 
L 3047 0 
L 2419 0 
L 2419 1100 
L 313 1100 
L 313 1709 
L 2253 4666 
z
" transform="scale(0.015625)"/>
       </defs>
       <use xlink:href="#DejaVuSans-34"/>
       <use xlink:href="#DejaVuSans-20" transform="translate(63.623047 0)"/>
       <use xlink:href="#DejaVuSans-6b" transform="translate(95.410156 0)"/>
      </g>
     </g>
    </g>
    <g id="text_10">
     <!-- Amount of objects in table -->
     <g transform="translate(171.232656 316.706687) scale(0.1 -0.1)">
      <defs>
       <path id="DejaVuSans-41" d="M 2188 4044 
L 1331 1722 
L 3047 1722 
L 2188 4044 
z
M 1831 4666 
L 2547 4666 
L 4325 0 
L 3669 0 
L 3244 1197 
L 1141 1197 
L 716 0 
L 50 0 
L 1831 4666 
z
" transform="scale(0.015625)"/>
       <path id="DejaVuSans-6d" d="M 3328 2828 
Q 3544 3216 3844 3400 
Q 4144 3584 4550 3584 
Q 5097 3584 5394 3201 
Q 5691 2819 5691 2113 
L 5691 0 
L 5113 0 
L 5113 2094 
Q 5113 2597 4934 2840 
Q 4756 3084 4391 3084 
Q 3944 3084 3684 2787 
Q 3425 2491 3425 1978 
L 3425 0 
L 2847 0 
L 2847 2094 
Q 2847 2600 2669 2842 
Q 2491 3084 2119 3084 
Q 1678 3084 1418 2786 
Q 1159 2488 1159 1978 
L 1159 0 
L 581 0 
L 581 3500 
L 1159 3500 
L 1159 2956 
Q 1356 3278 1631 3431 
Q 1906 3584 2284 3584 
Q 2666 3584 2933 3390 
Q 3200 3197 3328 2828 
z
" transform="scale(0.015625)"/>
       <path id="DejaVuSans-6f" d="M 1959 3097 
Q 1497 3097 1228 2736 
Q 959 2375 959 1747 
Q 959 1119 1226 758 
Q 1494 397 1959 397 
Q 2419 397 2687 759 
Q 2956 1122 2956 1747 
Q 2956 2369 2687 2733 
Q 2419 3097 1959 3097 
z
M 1959 3584 
Q 2709 3584 3137 3096 
Q 3566 2609 3566 1747 
Q 3566 888 3137 398 
Q 2709 -91 1959 -91 
Q 1206 -91 779 398 
Q 353 888 353 1747 
Q 353 2609 779 3096 
Q 1206 3584 1959 3584 
z
" transform="scale(0.015625)"/>
       <path id="DejaVuSans-75" d="M 544 1381 
L 544 3500 
L 1119 3500 
L 1119 1403 
Q 1119 906 1312 657 
Q 1506 409 1894 409 
Q 2359 409 2629 706 
Q 2900 1003 2900 1516 
L 2900 3500 
L 3475 3500 
L 3475 0 
L 2900 0 
L 2900 538 
Q 2691 219 2414 64 
Q 2138 -91 1772 -91 
Q 1169 -91 856 284 
Q 544 659 544 1381 
z
M 1991 3584 
L 1991 3584 
z
" transform="scale(0.015625)"/>
       <path id="DejaVuSans-6e" d="M 3513 2113 
L 3513 0 
L 2938 0 
L 2938 2094 
Q 2938 2591 2744 2837 
Q 2550 3084 2163 3084 
Q 1697 3084 1428 2787 
Q 1159 2491 1159 1978 
L 1159 0 
L 581 0 
L 581 3500 
L 1159 3500 
L 1159 2956 
Q 1366 3272 1645 3428 
Q 1925 3584 2291 3584 
Q 2894 3584 3203 3211 
Q 3513 2838 3513 2113 
z
" transform="scale(0.015625)"/>
       <path id="DejaVuSans-74" d="M 1172 4494 
L 1172 3500 
L 2356 3500 
L 2356 3053 
L 1172 3053 
L 1172 1153 
Q 1172 725 1289 603 
Q 1406 481 1766 481 
L 2356 481 
L 2356 0 
L 1766 0 
Q 1100 0 847 248 
Q 594 497 594 1153 
L 594 3053 
L 172 3053 
L 172 3500 
L 594 3500 
L 594 4494 
L 1172 4494 
z
" transform="scale(0.015625)"/>
       <path id="DejaVuSans-66" d="M 2375 4863 
L 2375 4384 
L 1825 4384 
Q 1516 4384 1395 4259 
Q 1275 4134 1275 3809 
L 1275 3500 
L 2222 3500 
L 2222 3053 
L 1275 3053 
L 1275 0 
L 697 0 
L 697 3053 
L 147 3053 
L 147 3500 
L 697 3500 
L 697 3744 
Q 697 4328 969 4595 
Q 1241 4863 1831 4863 
L 2375 4863 
z
" transform="scale(0.015625)"/>
       <path id="DejaVuSans-62" d="M 3116 1747 
Q 3116 2381 2855 2742 
Q 2594 3103 2138 3103 
Q 1681 3103 1420 2742 
Q 1159 2381 1159 1747 
Q 1159 1113 1420 752 
Q 1681 391 2138 391 
Q 2594 391 2855 752 
Q 3116 1113 3116 1747 
z
M 1159 2969 
Q 1341 3281 1617 3432 
Q 1894 3584 2278 3584 
Q 2916 3584 3314 3078 
Q 3713 2572 3713 1747 
Q 3713 922 3314 415 
Q 2916 -91 2278 -91 
Q 1894 -91 1617 61 
Q 1341 213 1159 525 
L 1159 0 
L 581 0 
L 581 4863 
L 1159 4863 
L 1159 2969 
z
" transform="scale(0.015625)"/>
       <path id="DejaVuSans-6a" d="M 603 3500 
L 1178 3500 
L 1178 -63 
Q 1178 -731 923 -1031 
Q 669 -1331 103 -1331 
L -116 -1331 
L -116 -844 
L 38 -844 
Q 366 -844 484 -692 
Q 603 -541 603 -63 
L 603 3500 
z
M 603 4863 
L 1178 4863 
L 1178 4134 
L 603 4134 
L 603 4863 
z
" transform="scale(0.015625)"/>
       <path id="DejaVuSans-65" d="M 3597 1894 
L 3597 1613 
L 953 1613 
Q 991 1019 1311 708 
Q 1631 397 2203 397 
Q 2534 397 2845 478 
Q 3156 559 3463 722 
L 3463 178 
Q 3153 47 2828 -22 
Q 2503 -91 2169 -91 
Q 1331 -91 842 396 
Q 353 884 353 1716 
Q 353 2575 817 3079 
Q 1281 3584 2069 3584 
Q 2775 3584 3186 3129 
Q 3597 2675 3597 1894 
z
M 3022 2063 
Q 3016 2534 2758 2815 
Q 2500 3097 2075 3097 
Q 1594 3097 1305 2825 
Q 1016 2553 972 2059 
L 3022 2063 
z
" transform="scale(0.015625)"/>
       <path id="DejaVuSans-63" d="M 3122 3366 
L 3122 2828 
Q 2878 2963 2633 3030 
Q 2388 3097 2138 3097 
Q 1578 3097 1268 2742 
Q 959 2388 959 1747 
Q 959 1106 1268 751 
Q 1578 397 2138 397 
Q 2388 397 2633 464 
Q 2878 531 3122 666 
L 3122 134 
Q 2881 22 2623 -34 
Q 2366 -91 2075 -91 
Q 1284 -91 818 406 
Q 353 903 353 1747 
Q 353 2603 823 3093 
Q 1294 3584 2113 3584 
Q 2378 3584 2631 3529 
Q 2884 3475 3122 3366 
z
" transform="scale(0.015625)"/>
       <path id="DejaVuSans-73" d="M 2834 3397 
L 2834 2853 
Q 2591 2978 2328 3040 
Q 2066 3103 1784 3103 
Q 1356 3103 1142 2972 
Q 928 2841 928 2578 
Q 928 2378 1081 2264 
Q 1234 2150 1697 2047 
L 1894 2003 
Q 2506 1872 2764 1633 
Q 3022 1394 3022 966 
Q 3022 478 2636 193 
Q 2250 -91 1575 -91 
Q 1294 -91 989 -36 
Q 684 19 347 128 
L 347 722 
Q 666 556 975 473 
Q 1284 391 1588 391 
Q 1994 391 2212 530 
Q 2431 669 2431 922 
Q 2431 1156 2273 1281 
Q 2116 1406 1581 1522 
L 1381 1569 
Q 847 1681 609 1914 
Q 372 2147 372 2553 
Q 372 3047 722 3315 
Q 1072 3584 1716 3584 
Q 2034 3584 2315 3537 
Q 2597 3491 2834 3397 
z
" transform="scale(0.015625)"/>
       <path id="DejaVuSans-69" d="M 603 3500 
L 1178 3500 
L 1178 0 
L 603 0 
L 603 3500 
z
M 603 4863 
L 1178 4863 
L 1178 4134 
L 603 4134 
L 603 4863 
z
" transform="scale(0.015625)"/>
       <path id="DejaVuSans-61" d="M 2194 1759 
Q 1497 1759 1228 1600 
Q 959 1441 959 1056 
Q 959 750 1161 570 
Q 1363 391 1709 391 
Q 2188 391 2477 730 
Q 2766 1069 2766 1631 
L 2766 1759 
L 2194 1759 
z
M 3341 1997 
L 3341 0 
L 2766 0 
L 2766 531 
Q 2569 213 2275 61 
Q 1981 -91 1556 -91 
Q 1019 -91 701 211 
Q 384 513 384 1019 
Q 384 1609 779 1909 
Q 1175 2209 1959 2209 
L 2766 2209 
L 2766 2266 
Q 2766 2663 2505 2880 
Q 2244 3097 1772 3097 
Q 1472 3097 1187 3025 
Q 903 2953 641 2809 
L 641 3341 
Q 956 3463 1253 3523 
Q 1550 3584 1831 3584 
Q 2591 3584 2966 3190 
Q 3341 2797 3341 1997 
z
" transform="scale(0.015625)"/>
       <path id="DejaVuSans-6c" d="M 603 4863 
L 1178 4863 
L 1178 0 
L 603 0 
L 603 4863 
z
" transform="scale(0.015625)"/>
      </defs>
      <use xlink:href="#DejaVuSans-41"/>
      <use xlink:href="#DejaVuSans-6d" transform="translate(68.408203 0)"/>
      <use xlink:href="#DejaVuSans-6f" transform="translate(165.820312 0)"/>
      <use xlink:href="#DejaVuSans-75" transform="translate(227.001953 0)"/>
      <use xlink:href="#DejaVuSans-6e" transform="translate(290.380859 0)"/>
      <use xlink:href="#DejaVuSans-74" transform="translate(353.759766 0)"/>
      <use xlink:href="#DejaVuSans-20" transform="translate(392.96875 0)"/>
      <use xlink:href="#DejaVuSans-6f" transform="translate(424.755859 0)"/>
      <use xlink:href="#DejaVuSans-66" transform="translate(485.9375 0)"/>
      <use xlink:href="#DejaVuSans-20" transform="translate(521.142578 0)"/>
      <use xlink:href="#DejaVuSans-6f" transform="translate(552.929688 0)"/>
      <use xlink:href="#DejaVuSans-62" transform="translate(614.111328 0)"/>
      <use xlink:href="#DejaVuSans-6a" transform="translate(677.587891 0)"/>
      <use xlink:href="#DejaVuSans-65" transform="translate(705.371094 0)"/>
      <use xlink:href="#DejaVuSans-63" transform="translate(766.894531 0)"/>
      <use xlink:href="#DejaVuSans-74" transform="translate(821.875 0)"/>
      <use xlink:href="#DejaVuSans-73" transform="translate(861.083984 0)"/>
      <use xlink:href="#DejaVuSans-20" transform="translate(913.183594 0)"/>
      <use xlink:href="#DejaVuSans-69" transform="translate(944.970703 0)"/>
      <use xlink:href="#DejaVuSans-6e" transform="translate(972.753906 0)"/>
      <use xlink:href="#DejaVuSans-20" transform="translate(1036.132812 0)"/>
      <use xlink:href="#DejaVuSans-74" transform="translate(1067.919922 0)"/>
      <use xlink:href="#DejaVuSans-61" transform="translate(1107.128906 0)"/>
      <use xlink:href="#DejaVuSans-62" transform="translate(1168.408203 0)"/>
      <use xlink:href="#DejaVuSans-6c" transform="translate(1231.884766 0)"/>
      <use xlink:href="#DejaVuSans-65" transform="translate(1259.667969 0)"/>
     </g>
    </g>
   </g>
   <g id="matplotlib.axis_2">
    <g id="ytick_1">
     <g id="line2d_10">
      <defs>
       <path id="mfe0b8e0fde" d="M 0 0 
L -3.5 0 
" style="stroke: #000000; stroke-width: 0.8"/>
      </defs>
      <g>
       <use xlink:href="#mfe0b8e0fde" x="58.73125" y="288.430125" style="stroke: #000000; stroke-width: 0.8"/>
      </g>
     </g>
     <g id="text_11">
      <!-- 0 -->
      <g transform="translate(45.36875 292.229344) scale(0.1 -0.1)">
       <use xlink:href="#DejaVuSans-30"/>
      </g>
     </g>
    </g>
    <g id="ytick_2">
     <g id="line2d_11">
      <g>
       <use xlink:href="#mfe0b8e0fde" x="58.73125" y="245.288861" style="stroke: #000000; stroke-width: 0.8"/>
      </g>
     </g>
     <g id="text_12">
      <!-- 2 ms -->
      <g transform="translate(27.240625 249.088079) scale(0.1 -0.1)">
       <use xlink:href="#DejaVuSans-32"/>
       <use xlink:href="#DejaVuSans-20" transform="translate(63.623047 0)"/>
       <use xlink:href="#DejaVuSans-6d" transform="translate(95.410156 0)"/>
       <use xlink:href="#DejaVuSans-73" transform="translate(192.822266 0)"/>
      </g>
     </g>
    </g>
    <g id="ytick_3">
     <g id="line2d_12">
      <g>
       <use xlink:href="#mfe0b8e0fde" x="58.73125" y="202.147596" style="stroke: #000000; stroke-width: 0.8"/>
      </g>
     </g>
     <g id="text_13">
      <!-- 4 ms -->
      <g transform="translate(27.240625 205.946815) scale(0.1 -0.1)">
       <use xlink:href="#DejaVuSans-34"/>
       <use xlink:href="#DejaVuSans-20" transform="translate(63.623047 0)"/>
       <use xlink:href="#DejaVuSans-6d" transform="translate(95.410156 0)"/>
       <use xlink:href="#DejaVuSans-73" transform="translate(192.822266 0)"/>
      </g>
     </g>
    </g>
    <g id="ytick_4">
     <g id="line2d_13">
      <g>
       <use xlink:href="#mfe0b8e0fde" x="58.73125" y="159.006332" style="stroke: #000000; stroke-width: 0.8"/>
      </g>
     </g>
     <g id="text_14">
      <!-- 6 ms -->
      <g transform="translate(27.240625 162.80555) scale(0.1 -0.1)">
       <defs>
        <path id="DejaVuSans-36" d="M 2113 2584 
Q 1688 2584 1439 2293 
Q 1191 2003 1191 1497 
Q 1191 994 1439 701 
Q 1688 409 2113 409 
Q 2538 409 2786 701 
Q 3034 994 3034 1497 
Q 3034 2003 2786 2293 
Q 2538 2584 2113 2584 
z
M 3366 4563 
L 3366 3988 
Q 3128 4100 2886 4159 
Q 2644 4219 2406 4219 
Q 1781 4219 1451 3797 
Q 1122 3375 1075 2522 
Q 1259 2794 1537 2939 
Q 1816 3084 2150 3084 
Q 2853 3084 3261 2657 
Q 3669 2231 3669 1497 
Q 3669 778 3244 343 
Q 2819 -91 2113 -91 
Q 1303 -91 875 529 
Q 447 1150 447 2328 
Q 447 3434 972 4092 
Q 1497 4750 2381 4750 
Q 2619 4750 2861 4703 
Q 3103 4656 3366 4563 
z
" transform="scale(0.015625)"/>
       </defs>
       <use xlink:href="#DejaVuSans-36"/>
       <use xlink:href="#DejaVuSans-20" transform="translate(63.623047 0)"/>
       <use xlink:href="#DejaVuSans-6d" transform="translate(95.410156 0)"/>
       <use xlink:href="#DejaVuSans-73" transform="translate(192.822266 0)"/>
      </g>
     </g>
    </g>
    <g id="ytick_5">
     <g id="line2d_14">
      <g>
       <use xlink:href="#mfe0b8e0fde" x="58.73125" y="115.865067" style="stroke: #000000; stroke-width: 0.8"/>
      </g>
     </g>
     <g id="text_15">
      <!-- 8 ms -->
      <g transform="translate(27.240625 119.664286) scale(0.1 -0.1)">
       <defs>
        <path id="DejaVuSans-38" d="M 2034 2216 
Q 1584 2216 1326 1975 
Q 1069 1734 1069 1313 
Q 1069 891 1326 650 
Q 1584 409 2034 409 
Q 2484 409 2743 651 
Q 3003 894 3003 1313 
Q 3003 1734 2745 1975 
Q 2488 2216 2034 2216 
z
M 1403 2484 
Q 997 2584 770 2862 
Q 544 3141 544 3541 
Q 544 4100 942 4425 
Q 1341 4750 2034 4750 
Q 2731 4750 3128 4425 
Q 3525 4100 3525 3541 
Q 3525 3141 3298 2862 
Q 3072 2584 2669 2484 
Q 3125 2378 3379 2068 
Q 3634 1759 3634 1313 
Q 3634 634 3220 271 
Q 2806 -91 2034 -91 
Q 1263 -91 848 271 
Q 434 634 434 1313 
Q 434 1759 690 2068 
Q 947 2378 1403 2484 
z
M 1172 3481 
Q 1172 3119 1398 2916 
Q 1625 2713 2034 2713 
Q 2441 2713 2670 2916 
Q 2900 3119 2900 3481 
Q 2900 3844 2670 4047 
Q 2441 4250 2034 4250 
Q 1625 4250 1398 4047 
Q 1172 3844 1172 3481 
z
" transform="scale(0.015625)"/>
       </defs>
       <use xlink:href="#DejaVuSans-38"/>
       <use xlink:href="#DejaVuSans-20" transform="translate(63.623047 0)"/>
       <use xlink:href="#DejaVuSans-6d" transform="translate(95.410156 0)"/>
       <use xlink:href="#DejaVuSans-73" transform="translate(192.822266 0)"/>
      </g>
     </g>
    </g>
    <g id="ytick_6">
     <g id="line2d_15">
      <g>
       <use xlink:href="#mfe0b8e0fde" x="58.73125" y="72.723803" style="stroke: #000000; stroke-width: 0.8"/>
      </g>
     </g>
     <g id="text_16">
      <!-- 10 ms -->
      <g transform="translate(20.878125 76.523022) scale(0.1 -0.1)">
       <use xlink:href="#DejaVuSans-31"/>
       <use xlink:href="#DejaVuSans-30" transform="translate(63.623047 0)"/>
       <use xlink:href="#DejaVuSans-20" transform="translate(127.246094 0)"/>
       <use xlink:href="#DejaVuSans-6d" transform="translate(159.033203 0)"/>
       <use xlink:href="#DejaVuSans-73" transform="translate(256.445312 0)"/>
      </g>
     </g>
    </g>
    <g id="ytick_7">
     <g id="line2d_16">
      <g>
       <use xlink:href="#mfe0b8e0fde" x="58.73125" y="29.582538" style="stroke: #000000; stroke-width: 0.8"/>
      </g>
     </g>
     <g id="text_17">
      <!-- 12 ms -->
      <g transform="translate(20.878125 33.381757) scale(0.1 -0.1)">
       <use xlink:href="#DejaVuSans-31"/>
       <use xlink:href="#DejaVuSans-32" transform="translate(63.623047 0)"/>
       <use xlink:href="#DejaVuSans-20" transform="translate(127.246094 0)"/>
       <use xlink:href="#DejaVuSans-6d" transform="translate(159.033203 0)"/>
       <use xlink:href="#DejaVuSans-73" transform="translate(256.445312 0)"/>
      </g>
     </g>
    </g>
    <g id="text_18">
     <!-- Write latency (s) -->
     <g transform="translate(14.798437 196.625687) rotate(-90) scale(0.1 -0.1)">
      <defs>
       <path id="DejaVuSans-57" d="M 213 4666 
L 850 4666 
L 1831 722 
L 2809 4666 
L 3519 4666 
L 4500 722 
L 5478 4666 
L 6119 4666 
L 4947 0 
L 4153 0 
L 3169 4050 
L 2175 0 
L 1381 0 
L 213 4666 
z
" transform="scale(0.015625)"/>
       <path id="DejaVuSans-72" d="M 2631 2963 
Q 2534 3019 2420 3045 
Q 2306 3072 2169 3072 
Q 1681 3072 1420 2755 
Q 1159 2438 1159 1844 
L 1159 0 
L 581 0 
L 581 3500 
L 1159 3500 
L 1159 2956 
Q 1341 3275 1631 3429 
Q 1922 3584 2338 3584 
Q 2397 3584 2469 3576 
Q 2541 3569 2628 3553 
L 2631 2963 
z
" transform="scale(0.015625)"/>
       <path id="DejaVuSans-79" d="M 2059 -325 
Q 1816 -950 1584 -1140 
Q 1353 -1331 966 -1331 
L 506 -1331 
L 506 -850 
L 844 -850 
Q 1081 -850 1212 -737 
Q 1344 -625 1503 -206 
L 1606 56 
L 191 3500 
L 800 3500 
L 1894 763 
L 2988 3500 
L 3597 3500 
L 2059 -325 
z
" transform="scale(0.015625)"/>
       <path id="DejaVuSans-28" d="M 1984 4856 
Q 1566 4138 1362 3434 
Q 1159 2731 1159 2009 
Q 1159 1288 1364 580 
Q 1569 -128 1984 -844 
L 1484 -844 
Q 1016 -109 783 600 
Q 550 1309 550 2009 
Q 550 2706 781 3412 
Q 1013 4119 1484 4856 
L 1984 4856 
z
" transform="scale(0.015625)"/>
       <path id="DejaVuSans-29" d="M 513 4856 
L 1013 4856 
Q 1481 4119 1714 3412 
Q 1947 2706 1947 2009 
Q 1947 1309 1714 600 
Q 1481 -109 1013 -844 
L 513 -844 
Q 928 -128 1133 580 
Q 1338 1288 1338 2009 
Q 1338 2731 1133 3434 
Q 928 4138 513 4856 
z
" transform="scale(0.015625)"/>
      </defs>
      <use xlink:href="#DejaVuSans-57"/>
      <use xlink:href="#DejaVuSans-72" transform="translate(94.376953 0)"/>
      <use xlink:href="#DejaVuSans-69" transform="translate(135.490234 0)"/>
      <use xlink:href="#DejaVuSans-74" transform="translate(163.273438 0)"/>
      <use xlink:href="#DejaVuSans-65" transform="translate(202.482422 0)"/>
      <use xlink:href="#DejaVuSans-20" transform="translate(264.005859 0)"/>
      <use xlink:href="#DejaVuSans-6c" transform="translate(295.792969 0)"/>
      <use xlink:href="#DejaVuSans-61" transform="translate(323.576172 0)"/>
      <use xlink:href="#DejaVuSans-74" transform="translate(384.855469 0)"/>
      <use xlink:href="#DejaVuSans-65" transform="translate(424.064453 0)"/>
      <use xlink:href="#DejaVuSans-6e" transform="translate(485.587891 0)"/>
      <use xlink:href="#DejaVuSans-63" transform="translate(548.966797 0)"/>
      <use xlink:href="#DejaVuSans-79" transform="translate(603.947266 0)"/>
      <use xlink:href="#DejaVuSans-20" transform="translate(663.126953 0)"/>
      <use xlink:href="#DejaVuSans-28" transform="translate(694.914062 0)"/>
      <use xlink:href="#DejaVuSans-73" transform="translate(733.927734 0)"/>
      <use xlink:href="#DejaVuSans-29" transform="translate(786.027344 0)"/>
     </g>
    </g>
   </g>
   <g id="line2d_17">
    <path d="M 144.086436 196.224341 
L 144.521921 195.792289 
L 145.392893 194.542949 
L 147.134835 193.063789 
L 148.876778 191.078864 
L 150.61872 189.057227 
L 152.360663 186.603512 
L 154.973577 181.861656 
L 157.151005 180.46581 
L 158.457462 179.801487 
L 158.892947 179.63718 
L 159.328433 178.365817 
L 160.199404 178.090161 
L 161.070376 177.749257 
L 161.941347 177.130349 
L 163.247804 176.132137 
L 163.68329 175.814257 
L 164.118775 175.7138 
L 164.554261 174.329295 
L 165.425232 173.874114 
L 167.60266 172.810628 
L 168.909117 172.154586 
L 169.344603 171.716442 
L 169.780088 170.096606 
L 170.215574 169.679087 
L 171.086545 167.596395 
L 171.522031 167.145091 
L 172.828488 167.463736 
L 174.570431 167.49665 
L 176.747859 167.632738 
L 178.489801 166.288795 
L 178.925287 165.109634 
L 179.796258 164.56241 
L 180.231744 163.277254 
L 180.66723 162.771014 
L 181.102715 162.856991 
L 185.893057 165.210117 
L 186.328543 165.690854 
L 187.199514 165.800252 
L 187.635 165.822775 
L 188.070485 165.503417 
L 189.376942 166.117947 
L 190.683399 167.326145 
L 191.118885 167.310348 
L 191.989856 168.077369 
L 193.296313 168.972751 
L 193.731799 169.391483 
L 194.60277 169.913389 
L 195.038256 169.307167 
L 195.473741 168.314045 
L 196.780198 160.988716 
L 197.215684 161.001903 
L 197.65117 160.183532 
L 198.086655 159.78334 
L 199.828598 157.33134 
L 200.264083 156.942805 
L 200.699569 156.31973 
L 201.135055 155.490494 
L 202.441512 153.790139 
L 202.876997 153.346088 
L 203.312483 151.214447 
L 203.747968 150.648101 
L 205.054425 150.023866 
L 205.489911 150.769182 
L 205.925397 150.603003 
L 207.231854 149.452589 
L 207.667339 149.315394 
L 208.102825 148.498052 
L 209.409282 147.012351 
L 209.844767 146.47507 
L 210.715739 146.180873 
L 211.151224 145.681991 
L 211.58671 145.492181 
L 212.022196 145.499724 
L 212.457681 144.028265 
L 212.893167 143.85681 
L 213.328653 140.961787 
L 213.764138 140.086977 
L 215.070595 138.366368 
L 216.812538 137.134961 
L 217.683509 136.768343 
L 218.118995 136.37361 
L 218.55448 135.701797 
L 220.731908 133.300275 
L 222.473851 131.303113 
L 222.909337 131.071421 
L 223.344822 129.516095 
L 224.651279 128.71099 
L 225.086765 128.192143 
L 225.522251 127.475627 
L 226.393222 126.841027 
L 226.828707 126.464703 
L 227.699679 125.278501 
L 229.006136 124.202223 
L 229.441621 123.302121 
L 229.877107 121.51745 
L 230.312593 118.988386 
L 231.61905 116.650557 
L 232.490021 115.629426 
L 232.925506 115.326763 
L 233.796478 114.947644 
L 234.231963 114.338626 
L 235.102935 114.036887 
L 236.844877 112.60512 
L 237.715849 108.752237 
L 238.151334 109.100578 
L 239.022305 109.523029 
L 239.457791 109.937015 
L 239.893277 109.995511 
L 240.764248 109.575038 
L 241.635219 108.815612 
L 242.070705 108.324853 
L 242.506191 108.083878 
L 242.941676 107.618254 
L 243.377162 106.962502 
L 243.812647 106.708208 
L 244.248133 107.315116 
L 244.683619 106.612077 
L 245.119104 106.189124 
L 246.861047 97.989988 
L 247.296533 96.232139 
L 248.167504 95.078798 
L 248.60299 94.310748 
L 249.038475 92.341963 
L 249.473961 93.014066 
L 249.909446 92.127599 
L 250.344932 90.727745 
L 250.780418 90.39462 
L 251.215903 89.528303 
L 251.651389 89.327468 
L 252.086875 89.298906 
L 252.52236 89.03095 
L 252.957846 89.038599 
L 253.393332 88.681026 
L 253.828817 88.649536 
L 254.264303 88.83336 
L 254.699789 90.07769 
L 255.135274 89.969558 
L 255.57076 90.382726 
L 256.006245 91.038214 
L 256.441731 91.21613 
L 257.748188 90.170656 
L 258.183674 89.805541 
L 258.619159 89.273007 
L 259.054645 89.07866 
L 259.490131 88.696349 
L 260.361102 88.237239 
L 260.796587 87.705153 
L 261.667559 87.187388 
L 262.53853 87.029436 
L 263.409501 86.822589 
L 263.844987 87.673874 
L 264.715958 87.457215 
L 265.151444 88.341757 
L 265.58693 88.43781 
L 266.022415 86.038741 
L 266.457901 85.212194 
L 266.893386 84.842701 
L 267.328872 83.990308 
L 268.199843 83.018206 
L 268.635329 81.980302 
L 269.070815 81.600708 
L 269.941786 80.436976 
L 270.377272 79.848687 
L 270.812757 77.632044 
L 271.683729 75.951655 
L 272.5547 75.092009 
L 272.990185 75.248615 
L 273.425671 73.143823 
L 273.861157 72.650189 
L 274.732128 70.955215 
L 275.603099 68.98316 
L 276.038585 68.915617 
L 276.474071 68.281386 
L 277.345042 66.645753 
L 279.52247 63.432427 
L 279.957956 63.635609 
L 280.393441 64.196258 
L 281.699898 69.671931 
L 282.135384 68.982052 
L 282.57087 68.527557 
L 283.006355 68.664515 
L 283.441841 68.332578 
L 283.877326 68.697455 
L 284.312812 69.46358 
L 284.748298 69.530279 
L 285.619269 69.246869 
L 286.054755 69.602173 
L 286.49024 69.511501 
L 287.796697 70.157362 
L 288.232183 71.708364 
L 288.667669 71.648891 
L 289.103154 71.318062 
L 289.53864 71.274651 
L 290.409611 70.984885 
L 290.845097 70.301758 
L 291.280582 69.21224 
L 292.151554 69.156038 
L 292.587039 69.271739 
L 293.022525 69.976018 
L 293.458011 70.182918 
L 293.893496 70.096677 
L 294.764467 70.782072 
L 295.199953 70.634908 
L 295.635439 70.71933 
L 296.070924 71.07168 
L 296.50641 71.04565 
L 296.941896 70.815013 
L 297.377381 72.021338 
L 297.812867 72.040644 
L 298.248353 74.350834 
L 298.683838 73.99698 
L 300.861266 73.966097 
L 301.732238 74.18985 
L 302.167723 74.149234 
L 302.603209 73.725043 
L 303.038695 73.507355 
L 303.47418 73.700621 
L 303.909666 73.567302 
L 304.345152 73.680023 
L 304.780637 71.933304 
L 305.216123 72.158217 
L 305.651609 72.189628 
L 306.087094 71.735924 
L 306.52258 71.490386 
L 306.958065 71.690878 
L 307.393551 69.11152 
L 307.829037 67.575209 
L 308.264522 68.707082 
L 308.700008 68.80142 
L 309.570979 68.721007 
L 310.441951 68.931811 
L 310.877436 68.769693 
L 311.312922 68.433799 
L 312.183893 68.553271 
L 313.49035 68.339725 
L 313.925836 68.280147 
L 314.361321 68.479953 
L 314.796807 69.37842 
L 315.232293 71.338264 
L 316.103264 71.178097 
L 316.53875 69.585742 
L 317.845206 69.293814 
L 318.716178 68.662009 
L 319.151663 68.856382 
L 320.022635 67.712931 
L 320.45812 67.252687 
L 320.893606 67.253979 
L 321.329092 66.842473 
L 321.764577 65.908428 
L 322.635549 68.96003 
L 323.071034 68.34769 
L 324.377491 65.576701 
L 325.248462 65.101556 
L 326.119434 64.464055 
L 326.990405 63.666466 
L 327.425891 63.106793 
L 327.861376 62.834249 
L 328.296862 62.698267 
L 329.167833 61.465515 
L 329.603319 61.291028 
L 330.038804 60.822054 
L 332.216233 65.63918 
L 332.651718 65.04385 
L 333.087204 64.878884 
L 333.52269 65.128668 
L 333.958175 66.461402 
L 334.393661 66.474351 
L 334.829146 66.791361 
L 335.264632 67.403306 
L 335.700118 66.984283 
L 336.135603 67.000002 
L 336.571089 66.466676 
L 337.44206 64.306156 
L 337.877546 63.578036 
L 338.313032 62.139016 
L 338.748517 59.260292 
L 339.184003 58.497517 
L 340.054974 57.68901 
L 340.49046 57.317723 
L 341.361431 55.589122 
L 343.103374 53.973427 
L 344.845316 51.931588 
L 347.022744 48.058871 
L 348.764687 46.465514 
L 349.200173 46.199563 
L 350.071144 44.885476 
L 350.50663 44.887137 
L 350.942115 46.068592 
L 351.377601 46.034412 
L 351.813086 45.563302 
L 352.248572 45.668321 
L 353.119543 44.928596 
L 353.555029 45.13671 
L 353.990515 44.022771 
L 354.861486 42.856718 
L 355.296972 42.368122 
L 355.732457 43.905593 
L 356.603429 44.115843 
L 357.4744 43.580539 
L 357.909885 43.263582 
L 358.345371 44.865827 
L 358.780857 44.688333 
L 359.651828 44.691314 
L 360.522799 44.969001 
L 360.958285 44.248238 
L 361.393771 43.953672 
L 361.829256 41.384151 
L 362.700228 40.658062 
L 363.135713 40.503592 
L 363.571199 39.877932 
L 364.44217 39.652702 
L 364.877656 39.911189 
L 365.313141 36.837591 
L 365.748627 36.728695 
L 366.184113 37.041169 
L 366.619598 35.191619 
L 367.49057 37.332965 
L 367.926055 36.024152 
L 368.361541 36.620168 
L 369.232512 36.157048 
L 370.538969 35.868021 
L 370.974455 35.685753 
L 371.40994 35.779327 
L 371.845426 35.519231 
L 372.716397 35.670641 
L 373.587369 36.302261 
L 374.45834 36.076345 
L 375.329311 35.998675 
L 375.764797 36.796501 
L 376.200282 38.048875 
L 376.635768 38.041912 
L 377.506739 38.156505 
L 379.248682 38.179134 
L 379.684168 37.943381 
L 380.119653 36.856316 
L 380.555139 34.990125 
L 380.990624 35.102582 
L 381.42611 35.064947 
L 382.297081 36.130464 
L 383.168053 36.910356 
L 383.603538 38.483801 
L 384.039024 39.052625 
L 384.47451 39.124414 
L 384.909995 39.60312 
L 386.651938 39.786152 
L 387.087423 39.622927 
L 387.522909 39.697907 
L 387.958395 38.413041 
L 389.264852 38.128945 
L 389.700337 40.06376 
L 390.135823 40.228463 
L 390.571309 40.572875 
L 391.006794 41.281664 
L 391.877765 41.793838 
L 392.313251 44.450022 
L 392.748737 46.265023 
L 393.184222 46.614155 
L 393.619708 46.368407 
L 395.797136 46.95651 
L 396.668108 47.111639 
L 397.103593 47.525783 
L 397.974564 47.924314 
L 398.845536 48.545252 
L 398.845536 48.545252 
" clip-path="url(#p21cd7b92e0)" style="fill: none; stroke: #1f77b4; stroke-opacity: 0.8; stroke-width: 1.5; stroke-linecap: square"/>
   </g>
   <g id="line2d_18">
    <path d="M 144.086436 268.207346 
L 146.69935 268.109606 
L 147.570321 267.839092 
L 151.054206 267.892815 
L 151.925177 267.888411 
L 152.360663 267.726583 
L 168.038146 267.248563 
L 174.134945 267.206866 
L 174.570431 267.16815 
L 175.005916 267.284114 
L 176.312373 267.199297 
L 180.231744 267.090664 
L 181.973686 266.967368 
L 182.409172 266.743219 
L 186.328543 266.674358 
L 188.505971 266.663518 
L 190.247914 266.692793 
L 191.118885 266.570341 
L 192.860827 266.550956 
L 195.038256 266.503484 
L 197.65117 266.628811 
L 198.086655 266.858129 
L 199.393112 266.962805 
L 204.61894 266.789136 
L 205.925397 266.744063 
L 215.506081 266.736389 
L 215.941566 266.597848 
L 218.989966 266.688837 
L 220.731908 266.734964 
L 225.957736 266.486948 
L 226.828707 266.557233 
L 227.264193 266.78481 
L 229.877107 266.840986 
L 231.183564 266.819228 
L 231.61905 266.848291 
L 232.490021 267.082699 
L 235.53842 266.792749 
L 236.844877 266.777584 
L 237.715849 266.912696 
L 238.58682 266.923219 
L 239.893277 266.989627 
L 240.764248 266.960458 
L 241.199734 266.862428 
L 242.506191 266.874533 
L 243.377162 266.689022 
L 244.683619 266.704872 
L 248.60299 266.707826 
L 249.038475 266.79478 
L 249.909446 266.753004 
L 250.344932 266.895579 
L 252.52236 266.790428 
L 254.699789 266.637488 
L 255.135274 266.431695 
L 256.441731 266.409093 
L 256.877217 266.133542 
L 257.748188 266.043002 
L 258.183674 265.659847 
L 258.619159 265.438969 
L 260.361102 265.396745 
L 261.232073 265.412516 
L 265.58693 264.956676 
L 268.199843 264.422955 
L 273.861157 264.016275 
L 274.296642 263.870587 
L 274.732128 263.496162 
L 275.167614 263.287363 
L 277.780527 263.257271 
L 279.52247 263.272409 
L 282.57087 262.917553 
L 283.006355 262.713554 
L 283.441841 262.204861 
L 283.877326 262.065477 
L 284.312812 261.726472 
L 290.409611 261.375493 
L 292.151554 260.910026 
L 293.022525 260.358002 
L 293.458011 260.172306 
L 295.199953 260.014882 
L 296.070924 259.943594 
L 296.941896 260.033844 
L 298.248353 259.944596 
L 299.55481 259.738171 
L 301.296752 259.167105 
L 302.167723 258.911466 
L 302.603209 258.573595 
L 304.780637 258.243662 
L 305.651609 258.31371 
L 306.087094 258.14906 
L 306.958065 258.062555 
L 307.829037 257.885878 
L 308.264522 257.969008 
L 309.135494 257.361678 
L 310.006465 257.047806 
L 311.312922 256.649461 
L 312.183893 256.642261 
L 313.054864 256.517224 
L 314.361321 256.350833 
L 314.796807 256.179801 
L 316.53875 256.135836 
L 317.409721 256.066737 
L 317.845206 255.768083 
L 318.716178 255.869437 
L 319.151663 255.570546 
L 320.022635 255.493377 
L 322.635549 255.53299 
L 323.50652 255.422326 
L 324.377491 255.40492 
L 325.248462 255.382951 
L 326.119434 255.369078 
L 326.990405 255.153606 
L 327.425891 254.689379 
L 327.861376 254.701142 
L 328.732347 254.572914 
L 333.087204 254.525415 
L 334.393661 254.247201 
L 335.264632 253.815914 
L 337.44206 253.354509 
L 339.619489 253.52504 
L 340.054974 253.755018 
L 340.925945 253.675475 
L 341.361431 253.66693 
L 341.796917 253.84089 
L 343.103374 253.933065 
L 343.538859 254.112801 
L 343.974345 254.005461 
L 344.845316 253.633409 
L 347.022744 253.652029 
L 350.50663 253.813857 
L 351.377601 254.024951 
L 351.813086 253.868055 
L 352.248572 254.18844 
L 353.555029 253.777725 
L 356.167943 253.216576 
L 357.038914 253.297912 
L 357.4744 253.221982 
L 358.345371 253.279529 
L 359.216342 253.336338 
L 359.651828 253.682728 
L 360.087314 253.872855 
L 361.393771 253.538834 
L 362.264742 253.131969 
L 364.44217 252.654582 
L 364.877656 252.335251 
L 366.184113 252.228148 
L 366.619598 252.234056 
L 367.055084 252.378003 
L 367.49057 252.241731 
L 367.926055 252.316737 
L 368.361541 252.801377 
L 369.667998 252.8863 
L 370.538969 252.544868 
L 372.716397 252.626547 
L 373.587369 252.730037 
L 374.45834 252.710388 
L 375.764797 252.876805 
L 376.200282 252.608639 
L 377.071254 252.877992 
L 377.506739 252.870476 
L 378.377711 253.057068 
L 379.248682 252.814406 
L 379.684168 252.661676 
L 380.990624 252.615655 
L 381.42611 252.363075 
L 384.909995 252.299515 
L 385.345481 252.44689 
L 387.522909 252.60194 
L 388.39388 252.416297 
L 389.264852 252.105063 
L 389.700337 252.233423 
L 390.571309 252.220447 
L 391.006794 252.421941 
L 393.184222 252.439242 
L 393.619708 252.808366 
L 394.490679 253.137112 
L 395.361651 253.183556 
L 396.232622 253.332672 
L 397.103593 253.284751 
L 397.974564 253.360338 
L 398.845536 253.438667 
L 398.845536 253.438667 
" clip-path="url(#p21cd7b92e0)" style="fill: none; stroke: #ff7f0e; stroke-opacity: 0.8; stroke-width: 1.5; stroke-linecap: square"/>
   </g>
   <g id="line2d_19">
    <path d="M 144.086436 272.023544 
L 148.441292 272.026656 
L 148.876778 271.898032 
L 149.747749 271.896661 
L 151.925177 271.773998 
L 152.796148 271.670745 
L 166.731689 271.753373 
L 168.909117 271.867624 
L 169.344603 271.778006 
L 171.086545 271.861558 
L 171.522031 272.096388 
L 175.876887 271.976995 
L 178.489801 271.951887 
L 178.925287 271.816512 
L 185.022086 271.665576 
L 185.893057 271.625857 
L 191.989856 271.617049 
L 194.167284 271.26752 
L 198.522141 271.406298 
L 199.393112 271.293208 
L 206.796368 271.075996 
L 211.151224 270.967996 
L 212.022196 270.905913 
L 219.860937 270.740762 
L 221.60288 270.610107 
L 222.473851 270.543989 
L 225.086765 270.599083 
L 231.183564 270.363488 
L 235.102935 270.435857 
L 235.973906 270.353176 
L 236.409392 270.318363 
L 237.715849 270.462415 
L 240.328762 270.401651 
L 242.941676 270.437255 
L 245.119104 270.409141 
L 246.425561 270.446802 
L 247.296533 270.385721 
L 250.780418 270.232412 
L 251.651389 270.150891 
L 253.828817 270.252429 
L 254.699789 270.366574 
L 258.183674 270.251981 
L 259.490131 270.234574 
L 261.232073 270.239374 
L 262.53853 270.181985 
L 263.409501 270.119137 
L 263.844987 270.247234 
L 265.58693 270.25657 
L 266.893386 270.289088 
L 267.328872 270.396139 
L 276.909556 270.315488 
L 279.086984 270.542828 
L 280.828927 270.510151 
L 283.441841 270.423936 
L 288.232183 270.65299 
L 290.409611 270.706977 
L 294.328982 270.631865 
L 295.199953 270.737333 
L 301.732238 270.684982 
L 303.038695 270.679047 
L 304.345152 270.516771 
L 306.958065 270.571391 
L 312.619379 270.560076 
L 313.49035 270.618942 
L 317.845206 270.452182 
L 318.716178 270.483514 
L 319.151663 270.580964 
L 321.329092 270.434064 
L 321.764577 270.470222 
L 322.200063 270.374117 
L 325.248462 270.447541 
L 327.425891 270.421088 
L 330.038804 270.524419 
L 333.958175 270.550107 
L 335.700118 270.56369 
L 351.813086 270.764841 
L 353.555029 270.608604 
L 354.426 270.363066 
L 355.296972 270.420481 
L 355.732457 270.404525 
L 356.167943 270.205933 
L 357.038914 270.203585 
L 357.4744 270.327488 
L 359.216342 270.25177 
L 360.958285 270.227427 
L 362.264742 270.192746 
L 382.297081 270.395163 
L 382.732567 270.151392 
L 385.345481 270.222469 
L 387.522909 270.250504 
L 388.39388 270.300772 
L 389.264852 270.385747 
L 390.135823 270.293361 
L 391.44228 270.324534 
L 391.877765 270.464894 
L 393.619708 270.430741 
L 398.845536 270.382925 
L 398.845536 270.382925 
" clip-path="url(#p21cd7b92e0)" style="fill: none; stroke: #2ca02c; stroke-opacity: 0.8; stroke-width: 1.5; stroke-linecap: square"/>
   </g>
   <g id="line2d_20">
    <path d="M 144.086436 268.096656 
L 147.134835 268.038529 
L 148.005806 267.872323 
L 152.360663 267.478935 
L 153.66712 267.289257 
L 168.473632 266.713575 
L 169.344603 266.562455 
L 171.086545 266.511554 
L 172.393002 266.404293 
L 175.005916 266.2249 
L 176.312373 266.156593 
L 177.183344 266.05909 
L 178.489801 265.988066 
L 179.796258 265.896972 
L 181.538201 266.024224 
L 183.715629 265.780506 
L 186.328543 265.64761 
L 187.199514 265.281255 
L 187.635 264.374085 
L 188.070485 264.15492 
L 188.505971 263.680012 
L 189.376942 263.445736 
L 191.554371 262.766486 
L 194.60277 262.373151 
L 195.473741 262.287041 
L 196.780198 262.201907 
L 199.828598 261.868836 
L 200.699569 261.725232 
L 202.876997 261.607659 
L 204.183454 261.633215 
L 205.054425 261.306262 
L 209.844767 261.090105 
L 210.280253 261.002175 
L 211.58671 261.00054 
L 217.683509 260.577324 
L 218.55448 260.512841 
L 219.860937 260.570915 
L 225.086765 260.073669 
L 225.522251 259.871093 
L 230.312593 259.469609 
L 231.61905 259.398137 
L 236.844877 259.406497 
L 240.764248 259.416862 
L 243.377162 259.268616 
L 245.119104 259.110903 
L 246.861047 259.209355 
L 256.006245 259.06045 
L 257.748188 258.802438 
L 258.183674 258.641638 
L 260.361102 258.63879 
L 264.715958 258.682755 
L 265.58693 258.526122 
L 269.941786 258.659018 
L 270.812757 258.723212 
L 271.248243 258.67384 
L 271.683729 258.883009 
L 272.119214 258.957725 
L 272.5547 259.817107 
L 272.990185 259.999084 
L 273.425671 260.424727 
L 276.474071 260.934052 
L 276.909556 260.647398 
L 278.651499 260.712225 
L 279.086984 260.55343 
L 287.361212 260.707187 
L 288.667669 260.607706 
L 289.103154 260.562054 
L 289.974125 260.801209 
L 292.151554 260.808066 
L 300.425781 260.624849 
L 301.732238 260.495803 
L 306.52258 260.216666 
L 306.958065 260.324876 
L 310.006465 260.149941 
L 310.441951 260.254064 
L 312.183893 260.271496 
L 322.635549 260.249791 
L 324.377491 260.304068 
L 327.425891 260.022662 
L 328.732347 260.150996 
L 334.829146 260.116657 
L 335.264632 259.912025 
L 335.700118 259.882065 
L 336.135603 259.729072 
L 337.877546 259.739674 
L 340.49046 259.865027 
L 341.361431 259.902768 
L 341.796917 260.020658 
L 342.667888 260.014196 
L 343.103374 260.174521 
L 346.151773 260.004174 
L 347.893716 260.033686 
L 350.071144 260.089836 
L 350.942115 260.045818 
L 351.813086 259.962821 
L 352.684058 259.49775 
L 353.990515 259.34502 
L 354.861486 259.395025 
L 356.167943 259.40771 
L 357.909885 259.329935 
L 360.087314 258.980459 
L 360.958285 259.066437 
L 361.393771 258.78788 
L 361.829256 259.052802 
L 362.700228 259.028037 
L 363.571199 258.993145 
L 364.006684 259.145795 
L 364.877656 259.16605 
L 365.748627 259.175887 
L 367.49057 259.137883 
L 368.361541 259.139465 
L 368.797026 259.090727 
L 369.232512 258.789831 
L 370.103483 258.774271 
L 371.845426 258.530105 
L 372.716397 258.63966 
L 374.022854 258.583854 
L 374.893825 258.406254 
L 378.377711 258.424136 
L 378.813196 258.216497 
L 381.42611 258.012498 
L 381.861596 258.052111 
L 382.732567 257.916366 
L 386.651938 257.853755 
L 387.087423 257.776059 
L 387.958395 257.837008 
L 388.39388 257.695514 
L 389.700337 257.626679 
L 390.135823 257.378742 
L 391.006794 257.367691 
L 391.44228 257.173977 
L 392.748737 257.155173 
L 393.184222 257.358645 
L 394.055194 257.264333 
L 394.490679 257.030215 
L 394.926165 256.95331 
L 395.361651 256.582867 
L 396.232622 256.440345 
L 397.103593 256.411439 
L 397.539079 256.020241 
L 398.41005 255.750598 
L 398.845536 255.599187 
L 398.845536 255.599187 
" clip-path="url(#p21cd7b92e0)" style="fill: none; stroke: #d62728; stroke-opacity: 0.8; stroke-width: 1.5; stroke-linecap: square"/>
   </g>
   <g id="line2d_21">
    <path d="M 144.086436 215.014403 
L 145.828378 213.524536 
L 146.69935 212.950674 
L 148.876778 211.259339 
L 149.747749 210.406287 
L 152.796148 207.259793 
L 153.66712 206.174838 
L 154.102605 205.699904 
L 157.151005 204.022547 
L 158.021976 203.576834 
L 158.457462 203.611304 
L 159.328433 202.941706 
L 160.63489 201.975169 
L 162.812318 200.198648 
L 164.118775 199.684285 
L 165.425232 199.223434 
L 166.296203 198.957588 
L 167.60266 198.295613 
L 169.344603 197.682982 
L 170.215574 197.363704 
L 171.957517 196.582229 
L 172.828488 196.730027 
L 173.263974 196.832778 
L 174.134945 196.679601 
L 174.570431 196.738466 
L 175.441402 196.530511 
L 176.312373 196.378889 
L 176.747859 196.355153 
L 178.054316 196.508225 
L 178.489801 196.360006 
L 178.925287 196.372955 
L 179.360773 196.225448 
L 179.796258 196.240771 
L 180.231744 196.12035 
L 180.66723 196.255435 
L 181.102715 196.131558 
L 181.973686 196.244226 
L 182.409172 196.132007 
L 182.844658 196.198099 
L 183.715629 196.735486 
L 185.022086 197.124232 
L 185.893057 197.238034 
L 186.328543 197.243783 
L 186.764028 197.424758 
L 188.941457 197.245919 
L 191.118885 198.35316 
L 191.989856 198.889439 
L 193.296313 199.408576 
L 194.60277 200.169083 
L 195.038256 199.771476 
L 195.473741 199.132023 
L 196.344713 197.28722 
L 197.65117 195.414251 
L 198.086655 194.950156 
L 198.957626 193.731013 
L 199.828598 192.838822 
L 200.264083 192.274482 
L 200.699569 192.094878 
L 202.441512 190.206295 
L 202.876997 189.299178 
L 203.747968 188.468227 
L 205.054425 186.764786 
L 205.925397 185.937106 
L 206.360882 185.403411 
L 207.231854 184.694912 
L 207.667339 184.629347 
L 208.102825 184.389164 
L 208.538311 184.289524 
L 208.973796 183.578309 
L 209.409282 183.270767 
L 209.844767 183.17221 
L 210.280253 184.351001 
L 210.715739 184.300417 
L 212.022196 182.34379 
L 213.764138 181.041254 
L 214.199624 180.844587 
L 214.63511 180.324501 
L 215.070595 179.414983 
L 215.506081 178.884479 
L 216.377052 178.254653 
L 216.812538 177.912272 
L 217.683509 176.981391 
L 218.118995 176.924187 
L 218.989966 176.534254 
L 219.425452 175.971206 
L 219.860937 175.012554 
L 220.296423 172.635244 
L 221.167394 171.798833 
L 221.60288 172.444115 
L 222.038365 172.171069 
L 222.473851 171.110062 
L 223.344822 170.494372 
L 224.215794 169.656669 
L 225.957736 168.516304 
L 226.393222 167.504351 
L 227.264193 167.40909 
L 227.699679 167.043843 
L 228.135164 166.852318 
L 228.57065 166.443212 
L 229.006136 166.576926 
L 231.183564 165.296992 
L 231.61905 164.964474 
L 232.490021 164.080381 
L 232.925506 163.799107 
L 233.360992 163.281922 
L 235.973906 161.625743 
L 236.409392 161.443897 
L 237.280363 160.651847 
L 237.715849 160.459452 
L 238.151334 160.535276 
L 239.457791 160.090777 
L 240.328762 159.3707 
L 240.764248 158.165034 
L 241.199734 157.603383 
L 243.377162 156.10919 
L 243.812647 156.060083 
L 244.683619 155.646071 
L 245.119104 155.452832 
L 245.55459 154.230392 
L 245.990076 153.858684 
L 246.861047 153.556918 
L 247.296533 153.454114 
L 248.60299 152.596394 
L 249.038475 152.076545 
L 251.215903 150.722026 
L 251.651389 150.629323 
L 252.957846 149.749634 
L 254.264303 149.022463 
L 255.135274 148.089895 
L 255.57076 147.770089 
L 256.877217 147.337906 
L 257.312702 146.978646 
L 257.748188 146.406129 
L 258.619159 145.723872 
L 259.490131 144.733282 
L 259.925616 144.602047 
L 260.796587 144.162612 
L 262.53853 143.142061 
L 263.844987 141.976641 
L 265.151444 141.325268 
L 265.58693 140.912469 
L 266.022415 140.848118 
L 266.893386 140.138142 
L 269.5063 138.506359 
L 269.941786 137.854141 
L 270.812757 137.27838 
L 271.248243 136.841344 
L 271.683729 136.623868 
L 272.990185 135.34069 
L 273.861157 135.02848 
L 275.603099 133.506886 
L 276.474071 132.843143 
L 276.909556 132.535917 
L 277.780527 132.128104 
L 278.216013 131.926847 
L 278.651499 131.448668 
L 279.52247 130.848802 
L 279.957956 131.157742 
L 280.393441 131.706312 
L 281.699898 134.064554 
L 282.57087 135.364664 
L 284.748298 137.617148 
L 285.183783 138.458517 
L 285.619269 138.743298 
L 286.054755 139.469968 
L 287.361212 140.767889 
L 287.796697 141.704598 
L 289.53864 143.563352 
L 289.974125 143.752846 
L 290.845097 144.616447 
L 291.716068 145.566106 
L 293.022525 146.561601 
L 293.458011 146.955806 
L 293.893496 147.937667 
L 295.635439 149.786715 
L 296.941896 152.362909 
L 297.812867 153.472048 
L 298.683838 154.245293 
L 299.119324 154.509108 
L 299.55481 155.173352 
L 299.990295 156.077911 
L 302.603209 159.674734 
L 303.038695 159.879155 
L 303.909666 160.946281 
L 304.780637 162.868622 
L 305.216123 165.226944 
L 306.52258 166.850947 
L 306.958065 167.296106 
L 307.393551 168.410968 
L 308.264522 169.333989 
L 309.135494 170.452807 
L 310.441951 171.975958 
L 310.877436 172.378814 
L 311.312922 173.587777 
L 312.183893 174.446393 
L 313.925836 177.009163 
L 314.361321 177.130903 
L 316.53875 179.425981 
L 316.974235 180.098638 
L 317.845206 181.017914 
L 318.280692 181.78926 
L 319.587149 183.469624 
L 320.45812 184.858639 
L 323.071034 188.379902 
L 325.248462 190.954143 
L 325.683948 192.254543 
L 326.554919 193.651391 
L 327.861376 195.078384 
L 328.732347 196.266116 
L 330.038804 197.661804 
L 330.47429 199.351503 
L 330.909776 199.364769 
L 332.216233 201.183225 
L 333.087204 202.444433 
L 334.829146 204.780364 
L 335.700118 205.684792 
L 337.006575 206.860735 
L 337.877546 207.902516 
L 339.184003 209.136692 
L 340.49046 210.842638 
L 340.925945 211.203164 
L 343.103374 212.292312 
L 344.409831 213.550778 
L 345.716287 214.253843 
L 347.893716 216.212632 
L 348.329201 216.860788 
L 348.764687 217.162633 
L 349.635658 217.578729 
L 350.942115 218.522453 
L 353.119543 219.503918 
L 353.555029 219.76855 
L 353.990515 219.826835 
L 354.426 220.084689 
L 354.861486 220.715755 
L 355.296972 220.928748 
L 356.167943 221.758354 
L 356.603429 221.919285 
L 357.038914 222.275644 
L 357.4744 222.917444 
L 358.345371 223.381882 
L 359.216342 223.6256 
L 359.651828 223.418621 
L 361.393771 223.718488 
L 363.135713 223.57106 
L 363.571199 223.955243 
L 364.006684 223.947621 
L 364.877656 224.291611 
L 365.313141 224.397633 
L 366.184113 224.129124 
L 366.619598 224.161062 
L 367.926055 223.782707 
L 368.361541 223.832395 
L 369.232512 223.667218 
L 369.667998 223.711209 
L 371.845426 223.188538 
L 372.716397 223.496423 
L 373.587369 223.481944 
L 374.022854 223.686919 
L 374.45834 223.515095 
L 374.893825 223.833529 
L 375.764797 223.696492 
L 377.071254 223.382753 
L 377.942225 222.731854 
L 378.377711 222.575274 
L 380.119653 221.523208 
L 383.168053 220.144399 
L 383.603538 220.12214 
L 384.039024 219.959046 
L 384.47451 219.639715 
L 384.909995 219.48899 
L 388.39388 217.010537 
L 388.829366 216.397537 
L 389.264852 214.419944 
L 390.571309 214.058996 
L 391.44228 213.519973 
L 392.313251 212.775238 
L 393.619708 211.953596 
L 394.490679 210.896255 
L 395.361651 209.898597 
L 396.668108 208.683014 
L 397.103593 207.990973 
L 398.845536 206.180245 
L 398.845536 206.180245 
" clip-path="url(#p21cd7b92e0)" style="fill: none; stroke: #9467bd; stroke-opacity: 0.8; stroke-width: 1.5; stroke-linecap: square"/>
   </g>
   <g id="patch_3">
    <path d="M 58.73125 288.430125 
L 58.73125 22.318125 
" style="fill: none; stroke: #000000; stroke-width: 0.8; stroke-linejoin: miter; stroke-linecap: square"/>
   </g>
   <g id="patch_4">
    <path d="M 415.85125 288.430125 
L 415.85125 22.318125 
" style="fill: none; stroke: #000000; stroke-width: 0.8; stroke-linejoin: miter; stroke-linecap: square"/>
   </g>
   <g id="patch_5">
    <path d="M 58.73125 288.430125 
L 415.85125 288.430125 
" style="fill: none; stroke: #000000; stroke-width: 0.8; stroke-linejoin: miter; stroke-linecap: square"/>
   </g>
   <g id="patch_6">
    <path d="M 58.73125 22.318125 
L 415.85125 22.318125 
" style="fill: none; stroke: #000000; stroke-width: 0.8; stroke-linejoin: miter; stroke-linecap: square"/>
   </g>
   <g id="text_19">
    <!-- Delete [leaf] -->
    <g transform="translate(199.84 16.318125) scale(0.12 -0.12)">
     <defs>
      <path id="DejaVuSans-44" d="M 1259 4147 
L 1259 519 
L 2022 519 
Q 2988 519 3436 956 
Q 3884 1394 3884 2338 
Q 3884 3275 3436 3711 
Q 2988 4147 2022 4147 
L 1259 4147 
z
M 628 4666 
L 1925 4666 
Q 3281 4666 3915 4102 
Q 4550 3538 4550 2338 
Q 4550 1131 3912 565 
Q 3275 0 1925 0 
L 628 0 
L 628 4666 
z
" transform="scale(0.015625)"/>
      <path id="DejaVuSans-5b" d="M 550 4863 
L 1875 4863 
L 1875 4416 
L 1125 4416 
L 1125 -397 
L 1875 -397 
L 1875 -844 
L 550 -844 
L 550 4863 
z
" transform="scale(0.015625)"/>
      <path id="DejaVuSans-5d" d="M 1947 4863 
L 1947 -844 
L 622 -844 
L 622 -397 
L 1369 -397 
L 1369 4416 
L 622 4416 
L 622 4863 
L 1947 4863 
z
" transform="scale(0.015625)"/>
     </defs>
     <use xlink:href="#DejaVuSans-44"/>
     <use xlink:href="#DejaVuSans-65" transform="translate(77.001953 0)"/>
     <use xlink:href="#DejaVuSans-6c" transform="translate(138.525391 0)"/>
     <use xlink:href="#DejaVuSans-65" transform="translate(166.308594 0)"/>
     <use xlink:href="#DejaVuSans-74" transform="translate(227.832031 0)"/>
     <use xlink:href="#DejaVuSans-65" transform="translate(267.041016 0)"/>
     <use xlink:href="#DejaVuSans-20" transform="translate(328.564453 0)"/>
     <use xlink:href="#DejaVuSans-5b" transform="translate(360.351562 0)"/>
     <use xlink:href="#DejaVuSans-6c" transform="translate(399.365234 0)"/>
     <use xlink:href="#DejaVuSans-65" transform="translate(427.148438 0)"/>
     <use xlink:href="#DejaVuSans-61" transform="translate(488.671875 0)"/>
     <use xlink:href="#DejaVuSans-66" transform="translate(549.951172 0)"/>
     <use xlink:href="#DejaVuSans-5d" transform="translate(585.15625 0)"/>
    </g>
   </g>
   <g id="legend_1">
    <g id="patch_7">
     <path d="M 89.733594 365.802375 
L 377.328906 365.802375 
Q 379.328906 365.802375 379.328906 363.802375 
L 379.328906 335.446125 
Q 379.328906 333.446125 377.328906 333.446125 
L 89.733594 333.446125 
Q 87.733594 333.446125 87.733594 335.446125 
L 87.733594 363.802375 
Q 87.733594 365.802375 89.733594 365.802375 
z
" style="fill: #4d4d4d; opacity: 0.5; stroke: #4d4d4d; stroke-linejoin: miter"/>
    </g>
    <g id="patch_8">
     <path d="M 87.733594 363.802375 
L 375.328906 363.802375 
Q 377.328906 363.802375 377.328906 361.802375 
L 377.328906 333.446125 
Q 377.328906 331.446125 375.328906 331.446125 
L 87.733594 331.446125 
Q 85.733594 331.446125 85.733594 333.446125 
L 85.733594 361.802375 
Q 85.733594 363.802375 87.733594 363.802375 
z
" style="fill: #ffffff; stroke: #cccccc; stroke-linejoin: miter"/>
    </g>
    <g id="line2d_22">
     <path d="M 89.733594 339.544562 
L 99.733594 339.544562 
L 109.733594 339.544562 
" style="fill: none; stroke: #1f77b4; stroke-opacity: 0.8; stroke-width: 1.5; stroke-linecap: square"/>
    </g>
    <g id="text_20">
     <!-- MPTT -->
     <g transform="translate(117.733594 343.044562) scale(0.1 -0.1)">
      <defs>
       <path id="DejaVuSans-4d" d="M 628 4666 
L 1569 4666 
L 2759 1491 
L 3956 4666 
L 4897 4666 
L 4897 0 
L 4281 0 
L 4281 4097 
L 3078 897 
L 2444 897 
L 1241 4097 
L 1241 0 
L 628 0 
L 628 4666 
z
" transform="scale(0.015625)"/>
       <path id="DejaVuSans-50" d="M 1259 4147 
L 1259 2394 
L 2053 2394 
Q 2494 2394 2734 2622 
Q 2975 2850 2975 3272 
Q 2975 3691 2734 3919 
Q 2494 4147 2053 4147 
L 1259 4147 
z
M 628 4666 
L 2053 4666 
Q 2838 4666 3239 4311 
Q 3641 3956 3641 3272 
Q 3641 2581 3239 2228 
Q 2838 1875 2053 1875 
L 1259 1875 
L 1259 0 
L 628 0 
L 628 4666 
z
" transform="scale(0.015625)"/>
       <path id="DejaVuSans-54" d="M -19 4666 
L 3928 4666 
L 3928 4134 
L 2272 4134 
L 2272 0 
L 1638 0 
L 1638 4134 
L -19 4134 
L -19 4666 
z
" transform="scale(0.015625)"/>
      </defs>
      <use xlink:href="#DejaVuSans-4d"/>
      <use xlink:href="#DejaVuSans-50" transform="translate(86.279297 0)"/>
      <use xlink:href="#DejaVuSans-54" transform="translate(146.582031 0)"/>
      <use xlink:href="#DejaVuSans-54" transform="translate(205.916016 0)"/>
     </g>
    </g>
    <g id="line2d_23">
     <path d="M 89.733594 354.222687 
L 99.733594 354.222687 
L 109.733594 354.222687 
" style="fill: none; stroke: #ff7f0e; stroke-opacity: 0.8; stroke-width: 1.5; stroke-linecap: square"/>
    </g>
    <g id="text_21">
     <!-- tree -->
     <g transform="translate(117.733594 357.722687) scale(0.1 -0.1)">
      <use xlink:href="#DejaVuSans-74"/>
      <use xlink:href="#DejaVuSans-72" transform="translate(39.208984 0)"/>
      <use xlink:href="#DejaVuSans-65" transform="translate(78.072266 0)"/>
      <use xlink:href="#DejaVuSans-65" transform="translate(139.595703 0)"/>
     </g>
    </g>
    <g id="line2d_24">
     <path d="M 164.432031 339.544562 
L 174.432031 339.544562 
L 184.432031 339.544562 
" style="fill: none; stroke: #2ca02c; stroke-opacity: 0.8; stroke-width: 1.5; stroke-linecap: square"/>
    </g>
    <g id="text_22">
     <!-- treebeard AL -->
     <g transform="translate(192.432031 343.044562) scale(0.1 -0.1)">
      <defs>
       <path id="DejaVuSans-64" d="M 2906 2969 
L 2906 4863 
L 3481 4863 
L 3481 0 
L 2906 0 
L 2906 525 
Q 2725 213 2448 61 
Q 2172 -91 1784 -91 
Q 1150 -91 751 415 
Q 353 922 353 1747 
Q 353 2572 751 3078 
Q 1150 3584 1784 3584 
Q 2172 3584 2448 3432 
Q 2725 3281 2906 2969 
z
M 947 1747 
Q 947 1113 1208 752 
Q 1469 391 1925 391 
Q 2381 391 2643 752 
Q 2906 1113 2906 1747 
Q 2906 2381 2643 2742 
Q 2381 3103 1925 3103 
Q 1469 3103 1208 2742 
Q 947 2381 947 1747 
z
" transform="scale(0.015625)"/>
       <path id="DejaVuSans-4c" d="M 628 4666 
L 1259 4666 
L 1259 531 
L 3531 531 
L 3531 0 
L 628 0 
L 628 4666 
z
" transform="scale(0.015625)"/>
      </defs>
      <use xlink:href="#DejaVuSans-74"/>
      <use xlink:href="#DejaVuSans-72" transform="translate(39.208984 0)"/>
      <use xlink:href="#DejaVuSans-65" transform="translate(78.072266 0)"/>
      <use xlink:href="#DejaVuSans-65" transform="translate(139.595703 0)"/>
      <use xlink:href="#DejaVuSans-62" transform="translate(201.119141 0)"/>
      <use xlink:href="#DejaVuSans-65" transform="translate(264.595703 0)"/>
      <use xlink:href="#DejaVuSans-61" transform="translate(326.119141 0)"/>
      <use xlink:href="#DejaVuSans-72" transform="translate(387.398438 0)"/>
      <use xlink:href="#DejaVuSans-64" transform="translate(426.761719 0)"/>
      <use xlink:href="#DejaVuSans-20" transform="translate(490.238281 0)"/>
      <use xlink:href="#DejaVuSans-41" transform="translate(522.025391 0)"/>
      <use xlink:href="#DejaVuSans-4c" transform="translate(590.433594 0)"/>
     </g>
    </g>
    <g id="line2d_25">
     <path d="M 164.432031 354.222687 
L 174.432031 354.222687 
L 184.432031 354.222687 
" style="fill: none; stroke: #d62728; stroke-opacity: 0.8; stroke-width: 1.5; stroke-linecap: square"/>
    </g>
    <g id="text_23">
     <!-- treebeard MP -->
     <g transform="translate(192.432031 357.722687) scale(0.1 -0.1)">
      <use xlink:href="#DejaVuSans-74"/>
      <use xlink:href="#DejaVuSans-72" transform="translate(39.208984 0)"/>
      <use xlink:href="#DejaVuSans-65" transform="translate(78.072266 0)"/>
      <use xlink:href="#DejaVuSans-65" transform="translate(139.595703 0)"/>
      <use xlink:href="#DejaVuSans-62" transform="translate(201.119141 0)"/>
      <use xlink:href="#DejaVuSans-65" transform="translate(264.595703 0)"/>
      <use xlink:href="#DejaVuSans-61" transform="translate(326.119141 0)"/>
      <use xlink:href="#DejaVuSans-72" transform="translate(387.398438 0)"/>
      <use xlink:href="#DejaVuSans-64" transform="translate(426.761719 0)"/>
      <use xlink:href="#DejaVuSans-20" transform="translate(490.238281 0)"/>
      <use xlink:href="#DejaVuSans-4d" transform="translate(522.025391 0)"/>
      <use xlink:href="#DejaVuSans-50" transform="translate(608.304688 0)"/>
     </g>
    </g>
    <g id="line2d_26">
     <path d="M 279.294531 339.544562 
L 289.294531 339.544562 
L 299.294531 339.544562 
" style="fill: none; stroke: #9467bd; stroke-opacity: 0.8; stroke-width: 1.5; stroke-linecap: square"/>
    </g>
    <g id="text_24">
     <!-- treebeard NS -->
     <g transform="translate(307.294531 343.044562) scale(0.1 -0.1)">
      <defs>
       <path id="DejaVuSans-4e" d="M 628 4666 
L 1478 4666 
L 3547 763 
L 3547 4666 
L 4159 4666 
L 4159 0 
L 3309 0 
L 1241 3903 
L 1241 0 
L 628 0 
L 628 4666 
z
" transform="scale(0.015625)"/>
       <path id="DejaVuSans-53" d="M 3425 4513 
L 3425 3897 
Q 3066 4069 2747 4153 
Q 2428 4238 2131 4238 
Q 1616 4238 1336 4038 
Q 1056 3838 1056 3469 
Q 1056 3159 1242 3001 
Q 1428 2844 1947 2747 
L 2328 2669 
Q 3034 2534 3370 2195 
Q 3706 1856 3706 1288 
Q 3706 609 3251 259 
Q 2797 -91 1919 -91 
Q 1588 -91 1214 -16 
Q 841 59 441 206 
L 441 856 
Q 825 641 1194 531 
Q 1563 422 1919 422 
Q 2459 422 2753 634 
Q 3047 847 3047 1241 
Q 3047 1584 2836 1778 
Q 2625 1972 2144 2069 
L 1759 2144 
Q 1053 2284 737 2584 
Q 422 2884 422 3419 
Q 422 4038 858 4394 
Q 1294 4750 2059 4750 
Q 2388 4750 2728 4690 
Q 3069 4631 3425 4513 
z
" transform="scale(0.015625)"/>
      </defs>
      <use xlink:href="#DejaVuSans-74"/>
      <use xlink:href="#DejaVuSans-72" transform="translate(39.208984 0)"/>
      <use xlink:href="#DejaVuSans-65" transform="translate(78.072266 0)"/>
      <use xlink:href="#DejaVuSans-65" transform="translate(139.595703 0)"/>
      <use xlink:href="#DejaVuSans-62" transform="translate(201.119141 0)"/>
      <use xlink:href="#DejaVuSans-65" transform="translate(264.595703 0)"/>
      <use xlink:href="#DejaVuSans-61" transform="translate(326.119141 0)"/>
      <use xlink:href="#DejaVuSans-72" transform="translate(387.398438 0)"/>
      <use xlink:href="#DejaVuSans-64" transform="translate(426.761719 0)"/>
      <use xlink:href="#DejaVuSans-20" transform="translate(490.238281 0)"/>
      <use xlink:href="#DejaVuSans-4e" transform="translate(522.025391 0)"/>
      <use xlink:href="#DejaVuSans-53" transform="translate(596.830078 0)"/>
     </g>
    </g>
   </g>
  </g>
 </g>
 <defs>
  <clipPath id="p21cd7b92e0">
   <rect x="58.73125" y="22.318125" width="357.12" height="266.112"/>
  </clipPath>
 </defs>
</svg>
