<?xml version="1.0" encoding="utf-8" standalone="no"?>
<!DOCTYPE svg PUBLIC "-//W3C//DTD SVG 1.1//EN"
  "http://www.w3.org/Graphics/SVG/1.1/DTD/svg11.dtd">
<svg xmlns:xlink="http://www.w3.org/1999/xlink" width="416.68875pt" height="371.002375pt" viewBox="0 0 416.68875 371.002375" xmlns="http://www.w3.org/2000/svg" version="1.1">
 <metadata>
  <rdf:RDF xmlns:dc="http://purl.org/dc/elements/1.1/" xmlns:cc="http://creativecommons.org/ns#" xmlns:rdf="http://www.w3.org/1999/02/22-rdf-syntax-ns#">
   <cc:Work>
    <dc:type rdf:resource="http://purl.org/dc/dcmitype/StillImage"/>
    <dc:date>2026-06-28T18:00:25.071696</dc:date>
    <dc:format>image/svg+xml</dc:format>
    <dc:creator>
     <cc:Agent>
      <dc:title>Matplotlib v3.10.6, https://matplotlib.org/</dc:title>
     </cc:Agent>
    </dc:creator>
   </cc:Work>
  </rdf:RDF>
 </metadata>
 <defs>
  <style type="text/css">*{stroke-linejoin: round; stroke-linecap: butt}</style>
 </defs>
 <g id="figure_1">
  <g id="patch_1">
   <path d="M 0 371.002375 
L 416.68875 371.002375 
L 416.68875 0 
L 0 0 
z
" style="fill: #ffffff"/>
  </g>
  <g id="axes_1">
   <g id="patch_2">
    <path d="M 52.36875 288.430125 
L 409.48875 288.430125 
L 409.48875 22.318125 
L 52.36875 22.318125 
z
" style="fill: #ffffff"/>
   </g>
   <g id="matplotlib.axis_1">
    <g id="xtick_1">
     <g id="line2d_1">
      <defs>
       <path id="m312f526331" d="M 0 0 
L 0 3.5 
" style="stroke: #000000; stroke-width: 0.8"/>
      </defs>
      <g>
       <use xlink:href="#m312f526331" x="52.36875" y="288.430125" style="stroke: #000000; stroke-width: 0.8"/>
      </g>
     </g>
     <g id="text_1">
      <!-- 0 -->
      <g transform="translate(49.1875 303.028562) scale(0.1 -0.1)">
       <defs>
        <path id="DejaVuSans-30" d="M 2034 4250 
Q 1547 4250 1301 3770 
Q 1056 3291 1056 2328 
Q 1056 1369 1301 889 
Q 1547 409 2034 409 
Q 2525 409 2770 889 
Q 3016 1369 3016 2328 
Q 3016 3291 2770 3770 
Q 2525 4250 2034 4250 
z
M 2034 4750 
Q 2819 4750 3233 4129 
Q 3647 3509 3647 2328 
Q 3647 1150 3233 529 
Q 2819 -91 2034 -91 
Q 1250 -91 836 529 
Q 422 1150 422 2328 
Q 422 3509 836 4129 
Q 1250 4750 2034 4750 
z
" transform="scale(0.015625)"/>
       </defs>
       <use xlink:href="#DejaVuSans-30"/>
      </g>
     </g>
    </g>
    <g id="xtick_2">
     <g id="line2d_2">
      <g>
       <use xlink:href="#m312f526331" x="95.917314" y="288.430125" style="stroke: #000000; stroke-width: 0.8"/>
      </g>
     </g>
     <g id="text_2">
      <!-- 500  -->
      <g transform="translate(84.784502 303.028562) scale(0.1 -0.1)">
       <defs>
        <path id="DejaVuSans-35" d="M 691 4666 
L 3169 4666 
L 3169 4134 
L 1269 4134 
L 1269 2991 
Q 1406 3038 1543 3061 
Q 1681 3084 1819 3084 
Q 2600 3084 3056 2656 
Q 3513 2228 3513 1497 
Q 3513 744 3044 326 
Q 2575 -91 1722 -91 
Q 1428 -91 1123 -41 
Q 819 9 494 109 
L 494 744 
Q 775 591 1075 516 
Q 1375 441 1709 441 
Q 2250 441 2565 725 
Q 2881 1009 2881 1497 
Q 2881 1984 2565 2268 
Q 2250 2553 1709 2553 
Q 1456 2553 1204 2497 
Q 953 2441 691 2322 
L 691 4666 
z
" transform="scale(0.015625)"/>
        <path id="DejaVuSans-20" transform="scale(0.015625)"/>
       </defs>
       <use xlink:href="#DejaVuSans-35"/>
       <use xlink:href="#DejaVuSans-30" transform="translate(63.623047 0)"/>
       <use xlink:href="#DejaVuSans-30" transform="translate(127.246094 0)"/>
       <use xlink:href="#DejaVuSans-20" transform="translate(190.869141 0)"/>
      </g>
     </g>
    </g>
    <g id="xtick_3">
     <g id="line2d_3">
      <g>
       <use xlink:href="#m312f526331" x="139.465878" y="288.430125" style="stroke: #000000; stroke-width: 0.8"/>
      </g>
     </g>
     <g id="text_3">
      <!-- 1 k -->
      <g transform="translate(131.800253 303.028562) scale(0.1 -0.1)">
       <defs>
        <path id="DejaVuSans-31" d="M 794 531 
L 1825 531 
L 1825 4091 
L 703 3866 
L 703 4441 
L 1819 4666 
L 2450 4666 
L 2450 531 
L 3481 531 
L 3481 0 
L 794 0 
L 794 531 
z
" transform="scale(0.015625)"/>
        <path id="DejaVuSans-6b" d="M 581 4863 
L 1159 4863 
L 1159 1991 
L 2875 3500 
L 3609 3500 
L 1753 1863 
L 3688 0 
L 2938 0 
L 1159 1709 
L 1159 0 
L 581 0 
L 581 4863 
z
" transform="scale(0.015625)"/>
       </defs>
       <use xlink:href="#DejaVuSans-31"/>
       <use xlink:href="#DejaVuSans-20" transform="translate(63.623047 0)"/>
       <use xlink:href="#DejaVuSans-6b" transform="translate(95.410156 0)"/>
      </g>
     </g>
    </g>
    <g id="xtick_4">
     <g id="line2d_4">
      <g>
       <use xlink:href="#m312f526331" x="183.014442" y="288.430125" style="stroke: #000000; stroke-width: 0.8"/>
      </g>
     </g>
     <g id="text_4">
      <!-- 1.5 k -->
      <g transform="translate(170.578505 303.028562) scale(0.1 -0.1)">
       <defs>
        <path id="DejaVuSans-2e" d="M 684 794 
L 1344 794 
L 1344 0 
L 684 0 
L 684 794 
z
" transform="scale(0.015625)"/>
       </defs>
       <use xlink:href="#DejaVuSans-31"/>
       <use xlink:href="#DejaVuSans-2e" transform="translate(63.623047 0)"/>
       <use xlink:href="#DejaVuSans-35" transform="translate(95.410156 0)"/>
       <use xlink:href="#DejaVuSans-20" transform="translate(159.033203 0)"/>
       <use xlink:href="#DejaVuSans-6b" transform="translate(190.820312 0)"/>
      </g>
     </g>
    </g>
    <g id="xtick_5">
     <g id="line2d_5">
      <g>
       <use xlink:href="#m312f526331" x="226.563006" y="288.430125" style="stroke: #000000; stroke-width: 0.8"/>
      </g>
     </g>
     <g id="text_5">
      <!-- 2 k -->
      <g transform="translate(218.897381 303.028562) scale(0.1 -0.1)">
       <defs>
        <path id="DejaVuSans-32" d="M 1228 531 
L 3431 531 
L 3431 0 
L 469 0 
L 469 531 
Q 828 903 1448 1529 
Q 2069 2156 2228 2338 
Q 2531 2678 2651 2914 
Q 2772 3150 2772 3378 
Q 2772 3750 2511 3984 
Q 2250 4219 1831 4219 
Q 1534 4219 1204 4116 
Q 875 4013 500 3803 
L 500 4441 
Q 881 4594 1212 4672 
Q 1544 4750 1819 4750 
Q 2544 4750 2975 4387 
Q 3406 4025 3406 3419 
Q 3406 3131 3298 2873 
Q 3191 2616 2906 2266 
Q 2828 2175 2409 1742 
Q 1991 1309 1228 531 
z
" transform="scale(0.015625)"/>
       </defs>
       <use xlink:href="#DejaVuSans-32"/>
       <use xlink:href="#DejaVuSans-20" transform="translate(63.623047 0)"/>
       <use xlink:href="#DejaVuSans-6b" transform="translate(95.410156 0)"/>
      </g>
     </g>
    </g>
    <g id="xtick_6">
     <g id="line2d_6">
      <g>
       <use xlink:href="#m312f526331" x="270.111571" y="288.430125" style="stroke: #000000; stroke-width: 0.8"/>
      </g>
     </g>
     <g id="text_6">
      <!-- 2.5 k -->
      <g transform="translate(257.675633 303.028562) scale(0.1 -0.1)">
       <use xlink:href="#DejaVuSans-32"/>
       <use xlink:href="#DejaVuSans-2e" transform="translate(63.623047 0)"/>
       <use xlink:href="#DejaVuSans-35" transform="translate(95.410156 0)"/>
       <use xlink:href="#DejaVuSans-20" transform="translate(159.033203 0)"/>
       <use xlink:href="#DejaVuSans-6b" transform="translate(190.820312 0)"/>
      </g>
     </g>
    </g>
    <g id="xtick_7">
     <g id="line2d_7">
      <g>
       <use xlink:href="#m312f526331" x="313.660135" y="288.430125" style="stroke: #000000; stroke-width: 0.8"/>
      </g>
     </g>
     <g id="text_7">
      <!-- 3 k -->
      <g transform="translate(305.99451 303.028562) scale(0.1 -0.1)">
       <defs>
        <path id="DejaVuSans-33" d="M 2597 2516 
Q 3050 2419 3304 2112 
Q 3559 1806 3559 1356 
Q 3559 666 3084 287 
Q 2609 -91 1734 -91 
Q 1441 -91 1130 -33 
Q 819 25 488 141 
L 488 750 
Q 750 597 1062 519 
Q 1375 441 1716 441 
Q 2309 441 2620 675 
Q 2931 909 2931 1356 
Q 2931 1769 2642 2001 
Q 2353 2234 1838 2234 
L 1294 2234 
L 1294 2753 
L 1863 2753 
Q 2328 2753 2575 2939 
Q 2822 3125 2822 3475 
Q 2822 3834 2567 4026 
Q 2313 4219 1838 4219 
Q 1578 4219 1281 4162 
Q 984 4106 628 3988 
L 628 4550 
Q 988 4650 1302 4700 
Q 1616 4750 1894 4750 
Q 2613 4750 3031 4423 
Q 3450 4097 3450 3541 
Q 3450 3153 3228 2886 
Q 3006 2619 2597 2516 
z
" transform="scale(0.015625)"/>
       </defs>
       <use xlink:href="#DejaVuSans-33"/>
       <use xlink:href="#DejaVuSans-20" transform="translate(63.623047 0)"/>
       <use xlink:href="#DejaVuSans-6b" transform="translate(95.410156 0)"/>
      </g>
     </g>
    </g>
    <g id="xtick_8">
     <g id="line2d_8">
      <g>
       <use xlink:href="#m312f526331" x="357.208699" y="288.430125" style="stroke: #000000; stroke-width: 0.8"/>
      </g>
     </g>
     <g id="text_8">
      <!-- 3.5 k -->
      <g transform="translate(344.772761 303.028562) scale(0.1 -0.1)">
       <use xlink:href="#DejaVuSans-33"/>
       <use xlink:href="#DejaVuSans-2e" transform="translate(63.623047 0)"/>
       <use xlink:href="#DejaVuSans-35" transform="translate(95.410156 0)"/>
       <use xlink:href="#DejaVuSans-20" transform="translate(159.033203 0)"/>
       <use xlink:href="#DejaVuSans-6b" transform="translate(190.820312 0)"/>
      </g>
     </g>
    </g>
    <g id="xtick_9">
     <g id="line2d_9">
      <g>
       <use xlink:href="#m312f526331" x="400.757263" y="288.430125" style="stroke: #000000; stroke-width: 0.8"/>
      </g>
     </g>
     <g id="text_9">
      <!-- 4 k -->
      <g transform="translate(393.091638 303.028562) scale(0.1 -0.1)">
       <defs>
        <path id="DejaVuSans-34" d="M 2419 4116 
L 825 1625 
L 2419 1625 
L 2419 4116 
z
M 2253 4666 
L 3047 4666 
L 3047 1625 
L 3713 1625 
L 3713 1100 
L 3047 1100 
L 3047 0 
L 2419 0 
L 2419 1100 
L 313 1100 
L 313 1709 
L 2253 4666 
z
" transform="scale(0.015625)"/>
       </defs>
       <use xlink:href="#DejaVuSans-34"/>
       <use xlink:href="#DejaVuSans-20" transform="translate(63.623047 0)"/>
       <use xlink:href="#DejaVuSans-6b" transform="translate(95.410156 0)"/>
      </g>
     </g>
    </g>
    <g id="text_10">
     <!-- Amount of objects in table -->
     <g transform="translate(164.870156 316.706687) scale(0.1 -0.1)">
      <defs>
       <path id="DejaVuSans-41" d="M 2188 4044 
L 1331 1722 
L 3047 1722 
L 2188 4044 
z
M 1831 4666 
L 2547 4666 
L 4325 0 
L 3669 0 
L 3244 1197 
L 1141 1197 
L 716 0 
L 50 0 
L 1831 4666 
z
" transform="scale(0.015625)"/>
       <path id="DejaVuSans-6d" d="M 3328 2828 
Q 3544 3216 3844 3400 
Q 4144 3584 4550 3584 
Q 5097 3584 5394 3201 
Q 5691 2819 5691 2113 
L 5691 0 
L 5113 0 
L 5113 2094 
Q 5113 2597 4934 2840 
Q 4756 3084 4391 3084 
Q 3944 3084 3684 2787 
Q 3425 2491 3425 1978 
L 3425 0 
L 2847 0 
L 2847 2094 
Q 2847 2600 2669 2842 
Q 2491 3084 2119 3084 
Q 1678 3084 1418 2786 
Q 1159 2488 1159 1978 
L 1159 0 
L 581 0 
L 581 3500 
L 1159 3500 
L 1159 2956 
Q 1356 3278 1631 3431 
Q 1906 3584 2284 3584 
Q 2666 3584 2933 3390 
Q 3200 3197 3328 2828 
z
" transform="scale(0.015625)"/>
       <path id="DejaVuSans-6f" d="M 1959 3097 
Q 1497 3097 1228 2736 
Q 959 2375 959 1747 
Q 959 1119 1226 758 
Q 1494 397 1959 397 
Q 2419 397 2687 759 
Q 2956 1122 2956 1747 
Q 2956 2369 2687 2733 
Q 2419 3097 1959 3097 
z
M 1959 3584 
Q 2709 3584 3137 3096 
Q 3566 2609 3566 1747 
Q 3566 888 3137 398 
Q 2709 -91 1959 -91 
Q 1206 -91 779 398 
Q 353 888 353 1747 
Q 353 2609 779 3096 
Q 1206 3584 1959 3584 
z
" transform="scale(0.015625)"/>
       <path id="DejaVuSans-75" d="M 544 1381 
L 544 3500 
L 1119 3500 
L 1119 1403 
Q 1119 906 1312 657 
Q 1506 409 1894 409 
Q 2359 409 2629 706 
Q 2900 1003 2900 1516 
L 2900 3500 
L 3475 3500 
L 3475 0 
L 2900 0 
L 2900 538 
Q 2691 219 2414 64 
Q 2138 -91 1772 -91 
Q 1169 -91 856 284 
Q 544 659 544 1381 
z
M 1991 3584 
L 1991 3584 
z
" transform="scale(0.015625)"/>
       <path id="DejaVuSans-6e" d="M 3513 2113 
L 3513 0 
L 2938 0 
L 2938 2094 
Q 2938 2591 2744 2837 
Q 2550 3084 2163 3084 
Q 1697 3084 1428 2787 
Q 1159 2491 1159 1978 
L 1159 0 
L 581 0 
L 581 3500 
L 1159 3500 
L 1159 2956 
Q 1366 3272 1645 3428 
Q 1925 3584 2291 3584 
Q 2894 3584 3203 3211 
Q 3513 2838 3513 2113 
z
" transform="scale(0.015625)"/>
       <path id="DejaVuSans-74" d="M 1172 4494 
L 1172 3500 
L 2356 3500 
L 2356 3053 
L 1172 3053 
L 1172 1153 
Q 1172 725 1289 603 
Q 1406 481 1766 481 
L 2356 481 
L 2356 0 
L 1766 0 
Q 1100 0 847 248 
Q 594 497 594 1153 
L 594 3053 
L 172 3053 
L 172 3500 
L 594 3500 
L 594 4494 
L 1172 4494 
z
" transform="scale(0.015625)"/>
       <path id="DejaVuSans-66" d="M 2375 4863 
L 2375 4384 
L 1825 4384 
Q 1516 4384 1395 4259 
Q 1275 4134 1275 3809 
L 1275 3500 
L 2222 3500 
L 2222 3053 
L 1275 3053 
L 1275 0 
L 697 0 
L 697 3053 
L 147 3053 
L 147 3500 
L 697 3500 
L 697 3744 
Q 697 4328 969 4595 
Q 1241 4863 1831 4863 
L 2375 4863 
z
" transform="scale(0.015625)"/>
       <path id="DejaVuSans-62" d="M 3116 1747 
Q 3116 2381 2855 2742 
Q 2594 3103 2138 3103 
Q 1681 3103 1420 2742 
Q 1159 2381 1159 1747 
Q 1159 1113 1420 752 
Q 1681 391 2138 391 
Q 2594 391 2855 752 
Q 3116 1113 3116 1747 
z
M 1159 2969 
Q 1341 3281 1617 3432 
Q 1894 3584 2278 3584 
Q 2916 3584 3314 3078 
Q 3713 2572 3713 1747 
Q 3713 922 3314 415 
Q 2916 -91 2278 -91 
Q 1894 -91 1617 61 
Q 1341 213 1159 525 
L 1159 0 
L 581 0 
L 581 4863 
L 1159 4863 
L 1159 2969 
z
" transform="scale(0.015625)"/>
       <path id="DejaVuSans-6a" d="M 603 3500 
L 1178 3500 
L 1178 -63 
Q 1178 -731 923 -1031 
Q 669 -1331 103 -1331 
L -116 -1331 
L -116 -844 
L 38 -844 
Q 366 -844 484 -692 
Q 603 -541 603 -63 
L 603 3500 
z
M 603 4863 
L 1178 4863 
L 1178 4134 
L 603 4134 
L 603 4863 
z
" transform="scale(0.015625)"/>
       <path id="DejaVuSans-65" d="M 3597 1894 
L 3597 1613 
L 953 1613 
Q 991 1019 1311 708 
Q 1631 397 2203 397 
Q 2534 397 2845 478 
Q 3156 559 3463 722 
L 3463 178 
Q 3153 47 2828 -22 
Q 2503 -91 2169 -91 
Q 1331 -91 842 396 
Q 353 884 353 1716 
Q 353 2575 817 3079 
Q 1281 3584 2069 3584 
Q 2775 3584 3186 3129 
Q 3597 2675 3597 1894 
z
M 3022 2063 
Q 3016 2534 2758 2815 
Q 2500 3097 2075 3097 
Q 1594 3097 1305 2825 
Q 1016 2553 972 2059 
L 3022 2063 
z
" transform="scale(0.015625)"/>
       <path id="DejaVuSans-63" d="M 3122 3366 
L 3122 2828 
Q 2878 2963 2633 3030 
Q 2388 3097 2138 3097 
Q 1578 3097 1268 2742 
Q 959 2388 959 1747 
Q 959 1106 1268 751 
Q 1578 397 2138 397 
Q 2388 397 2633 464 
Q 2878 531 3122 666 
L 3122 134 
Q 2881 22 2623 -34 
Q 2366 -91 2075 -91 
Q 1284 -91 818 406 
Q 353 903 353 1747 
Q 353 2603 823 3093 
Q 1294 3584 2113 3584 
Q 2378 3584 2631 3529 
Q 2884 3475 3122 3366 
z
" transform="scale(0.015625)"/>
       <path id="DejaVuSans-73" d="M 2834 3397 
L 2834 2853 
Q 2591 2978 2328 3040 
Q 2066 3103 1784 3103 
Q 1356 3103 1142 2972 
Q 928 2841 928 2578 
Q 928 2378 1081 2264 
Q 1234 2150 1697 2047 
L 1894 2003 
Q 2506 1872 2764 1633 
Q 3022 1394 3022 966 
Q 3022 478 2636 193 
Q 2250 -91 1575 -91 
Q 1294 -91 989 -36 
Q 684 19 347 128 
L 347 722 
Q 666 556 975 473 
Q 1284 391 1588 391 
Q 1994 391 2212 530 
Q 2431 669 2431 922 
Q 2431 1156 2273 1281 
Q 2116 1406 1581 1522 
L 1381 1569 
Q 847 1681 609 1914 
Q 372 2147 372 2553 
Q 372 3047 722 3315 
Q 1072 3584 1716 3584 
Q 2034 3584 2315 3537 
Q 2597 3491 2834 3397 
z
" transform="scale(0.015625)"/>
       <path id="DejaVuSans-69" d="M 603 3500 
L 1178 3500 
L 1178 0 
L 603 0 
L 603 3500 
z
M 603 4863 
L 1178 4863 
L 1178 4134 
L 603 4134 
L 603 4863 
z
" transform="scale(0.015625)"/>
       <path id="DejaVuSans-61" d="M 2194 1759 
Q 1497 1759 1228 1600 
Q 959 1441 959 1056 
Q 959 750 1161 570 
Q 1363 391 1709 391 
Q 2188 391 2477 730 
Q 2766 1069 2766 1631 
L 2766 1759 
L 2194 1759 
z
M 3341 1997 
L 3341 0 
L 2766 0 
L 2766 531 
Q 2569 213 2275 61 
Q 1981 -91 1556 -91 
Q 1019 -91 701 211 
Q 384 513 384 1019 
Q 384 1609 779 1909 
Q 1175 2209 1959 2209 
L 2766 2209 
L 2766 2266 
Q 2766 2663 2505 2880 
Q 2244 3097 1772 3097 
Q 1472 3097 1187 3025 
Q 903 2953 641 2809 
L 641 3341 
Q 956 3463 1253 3523 
Q 1550 3584 1831 3584 
Q 2591 3584 2966 3190 
Q 3341 2797 3341 1997 
z
" transform="scale(0.015625)"/>
       <path id="DejaVuSans-6c" d="M 603 4863 
L 1178 4863 
L 1178 0 
L 603 0 
L 603 4863 
z
" transform="scale(0.015625)"/>
      </defs>
      <use xlink:href="#DejaVuSans-41"/>
      <use xlink:href="#DejaVuSans-6d" transform="translate(68.408203 0)"/>
      <use xlink:href="#DejaVuSans-6f" transform="translate(165.820312 0)"/>
      <use xlink:href="#DejaVuSans-75" transform="translate(227.001953 0)"/>
      <use xlink:href="#DejaVuSans-6e" transform="translate(290.380859 0)"/>
      <use xlink:href="#DejaVuSans-74" transform="translate(353.759766 0)"/>
      <use xlink:href="#DejaVuSans-20" transform="translate(392.96875 0)"/>
      <use xlink:href="#DejaVuSans-6f" transform="translate(424.755859 0)"/>
      <use xlink:href="#DejaVuSans-66" transform="translate(485.9375 0)"/>
      <use xlink:href="#DejaVuSans-20" transform="translate(521.142578 0)"/>
      <use xlink:href="#DejaVuSans-6f" transform="translate(552.929688 0)"/>
      <use xlink:href="#DejaVuSans-62" transform="translate(614.111328 0)"/>
      <use xlink:href="#DejaVuSans-6a" transform="translate(677.587891 0)"/>
      <use xlink:href="#DejaVuSans-65" transform="translate(705.371094 0)"/>
      <use xlink:href="#DejaVuSans-63" transform="translate(766.894531 0)"/>
      <use xlink:href="#DejaVuSans-74" transform="translate(821.875 0)"/>
      <use xlink:href="#DejaVuSans-73" transform="translate(861.083984 0)"/>
      <use xlink:href="#DejaVuSans-20" transform="translate(913.183594 0)"/>
      <use xlink:href="#DejaVuSans-69" transform="translate(944.970703 0)"/>
      <use xlink:href="#DejaVuSans-6e" transform="translate(972.753906 0)"/>
      <use xlink:href="#DejaVuSans-20" transform="translate(1036.132812 0)"/>
      <use xlink:href="#DejaVuSans-74" transform="translate(1067.919922 0)"/>
      <use xlink:href="#DejaVuSans-61" transform="translate(1107.128906 0)"/>
      <use xlink:href="#DejaVuSans-62" transform="translate(1168.408203 0)"/>
      <use xlink:href="#DejaVuSans-6c" transform="translate(1231.884766 0)"/>
      <use xlink:href="#DejaVuSans-65" transform="translate(1259.667969 0)"/>
     </g>
    </g>
   </g>
   <g id="matplotlib.axis_2">
    <g id="ytick_1">
     <g id="line2d_10">
      <defs>
       <path id="ma74cc4a2a2" d="M 0 0 
L -3.5 0 
" style="stroke: #000000; stroke-width: 0.8"/>
      </defs>
      <g>
       <use xlink:href="#ma74cc4a2a2" x="52.36875" y="288.430125" style="stroke: #000000; stroke-width: 0.8"/>
      </g>
     </g>
     <g id="text_11">
      <!-- 0 -->
      <g transform="translate(39.00625 292.229344) scale(0.1 -0.1)">
       <use xlink:href="#DejaVuSans-30"/>
      </g>
     </g>
    </g>
    <g id="ytick_2">
     <g id="line2d_11">
      <g>
       <use xlink:href="#ma74cc4a2a2" x="52.36875" y="230.626949" style="stroke: #000000; stroke-width: 0.8"/>
      </g>
     </g>
     <g id="text_12">
      <!-- 2 ms -->
      <g transform="translate(20.878125 234.426168) scale(0.1 -0.1)">
       <use xlink:href="#DejaVuSans-32"/>
       <use xlink:href="#DejaVuSans-20" transform="translate(63.623047 0)"/>
       <use xlink:href="#DejaVuSans-6d" transform="translate(95.410156 0)"/>
       <use xlink:href="#DejaVuSans-73" transform="translate(192.822266 0)"/>
      </g>
     </g>
    </g>
    <g id="ytick_3">
     <g id="line2d_12">
      <g>
       <use xlink:href="#ma74cc4a2a2" x="52.36875" y="172.823773" style="stroke: #000000; stroke-width: 0.8"/>
      </g>
     </g>
     <g id="text_13">
      <!-- 4 ms -->
      <g transform="translate(20.878125 176.622992) scale(0.1 -0.1)">
       <use xlink:href="#DejaVuSans-34"/>
       <use xlink:href="#DejaVuSans-20" transform="translate(63.623047 0)"/>
       <use xlink:href="#DejaVuSans-6d" transform="translate(95.410156 0)"/>
       <use xlink:href="#DejaVuSans-73" transform="translate(192.822266 0)"/>
      </g>
     </g>
    </g>
    <g id="ytick_4">
     <g id="line2d_13">
      <g>
       <use xlink:href="#ma74cc4a2a2" x="52.36875" y="115.020597" style="stroke: #000000; stroke-width: 0.8"/>
      </g>
     </g>
     <g id="text_14">
      <!-- 6 ms -->
      <g transform="translate(20.878125 118.819816) scale(0.1 -0.1)">
       <defs>
        <path id="DejaVuSans-36" d="M 2113 2584 
Q 1688 2584 1439 2293 
Q 1191 2003 1191 1497 
Q 1191 994 1439 701 
Q 1688 409 2113 409 
Q 2538 409 2786 701 
Q 3034 994 3034 1497 
Q 3034 2003 2786 2293 
Q 2538 2584 2113 2584 
z
M 3366 4563 
L 3366 3988 
Q 3128 4100 2886 4159 
Q 2644 4219 2406 4219 
Q 1781 4219 1451 3797 
Q 1122 3375 1075 2522 
Q 1259 2794 1537 2939 
Q 1816 3084 2150 3084 
Q 2853 3084 3261 2657 
Q 3669 2231 3669 1497 
Q 3669 778 3244 343 
Q 2819 -91 2113 -91 
Q 1303 -91 875 529 
Q 447 1150 447 2328 
Q 447 3434 972 4092 
Q 1497 4750 2381 4750 
Q 2619 4750 2861 4703 
Q 3103 4656 3366 4563 
z
" transform="scale(0.015625)"/>
       </defs>
       <use xlink:href="#DejaVuSans-36"/>
       <use xlink:href="#DejaVuSans-20" transform="translate(63.623047 0)"/>
       <use xlink:href="#DejaVuSans-6d" transform="translate(95.410156 0)"/>
       <use xlink:href="#DejaVuSans-73" transform="translate(192.822266 0)"/>
      </g>
     </g>
    </g>
    <g id="ytick_5">
     <g id="line2d_14">
      <g>
       <use xlink:href="#ma74cc4a2a2" x="52.36875" y="57.217422" style="stroke: #000000; stroke-width: 0.8"/>
      </g>
     </g>
     <g id="text_15">
      <!-- 8 ms -->
      <g transform="translate(20.878125 61.01664) scale(0.1 -0.1)">
       <defs>
        <path id="DejaVuSans-38" d="M 2034 2216 
Q 1584 2216 1326 1975 
Q 1069 1734 1069 1313 
Q 1069 891 1326 650 
Q 1584 409 2034 409 
Q 2484 409 2743 651 
Q 3003 894 3003 1313 
Q 3003 1734 2745 1975 
Q 2488 2216 2034 2216 
z
M 1403 2484 
Q 997 2584 770 2862 
Q 544 3141 544 3541 
Q 544 4100 942 4425 
Q 1341 4750 2034 4750 
Q 2731 4750 3128 4425 
Q 3525 4100 3525 3541 
Q 3525 3141 3298 2862 
Q 3072 2584 2669 2484 
Q 3125 2378 3379 2068 
Q 3634 1759 3634 1313 
Q 3634 634 3220 271 
Q 2806 -91 2034 -91 
Q 1263 -91 848 271 
Q 434 634 434 1313 
Q 434 1759 690 2068 
Q 947 2378 1403 2484 
z
M 1172 3481 
Q 1172 3119 1398 2916 
Q 1625 2713 2034 2713 
Q 2441 2713 2670 2916 
Q 2900 3119 2900 3481 
Q 2900 3844 2670 4047 
Q 2441 4250 2034 4250 
Q 1625 4250 1398 4047 
Q 1172 3844 1172 3481 
z
" transform="scale(0.015625)"/>
       </defs>
       <use xlink:href="#DejaVuSans-38"/>
       <use xlink:href="#DejaVuSans-20" transform="translate(63.623047 0)"/>
       <use xlink:href="#DejaVuSans-6d" transform="translate(95.410156 0)"/>
       <use xlink:href="#DejaVuSans-73" transform="translate(192.822266 0)"/>
      </g>
     </g>
    </g>
    <g id="text_16">
     <!-- Write latency (s) -->
     <g transform="translate(14.798438 196.625687) rotate(-90) scale(0.1 -0.1)">
      <defs>
       <path id="DejaVuSans-57" d="M 213 4666 
L 850 4666 
L 1831 722 
L 2809 4666 
L 3519 4666 
L 4500 722 
L 5478 4666 
L 6119 4666 
L 4947 0 
L 4153 0 
L 3169 4050 
L 2175 0 
L 1381 0 
L 213 4666 
z
" transform="scale(0.015625)"/>
       <path id="DejaVuSans-72" d="M 2631 2963 
Q 2534 3019 2420 3045 
Q 2306 3072 2169 3072 
Q 1681 3072 1420 2755 
Q 1159 2438 1159 1844 
L 1159 0 
L 581 0 
L 581 3500 
L 1159 3500 
L 1159 2956 
Q 1341 3275 1631 3429 
Q 1922 3584 2338 3584 
Q 2397 3584 2469 3576 
Q 2541 3569 2628 3553 
L 2631 2963 
z
" transform="scale(0.015625)"/>
       <path id="DejaVuSans-79" d="M 2059 -325 
Q 1816 -950 1584 -1140 
Q 1353 -1331 966 -1331 
L 506 -1331 
L 506 -850 
L 844 -850 
Q 1081 -850 1212 -737 
Q 1344 -625 1503 -206 
L 1606 56 
L 191 3500 
L 800 3500 
L 1894 763 
L 2988 3500 
L 3597 3500 
L 2059 -325 
z
" transform="scale(0.015625)"/>
       <path id="DejaVuSans-28" d="M 1984 4856 
Q 1566 4138 1362 3434 
Q 1159 2731 1159 2009 
Q 1159 1288 1364 580 
Q 1569 -128 1984 -844 
L 1484 -844 
Q 1016 -109 783 600 
Q 550 1309 550 2009 
Q 550 2706 781 3412 
Q 1013 4119 1484 4856 
L 1984 4856 
z
" transform="scale(0.015625)"/>
       <path id="DejaVuSans-29" d="M 513 4856 
L 1013 4856 
Q 1481 4119 1714 3412 
Q 1947 2706 1947 2009 
Q 1947 1309 1714 600 
Q 1481 -109 1013 -844 
L 513 -844 
Q 928 -128 1133 580 
Q 1338 1288 1338 2009 
Q 1338 2731 1133 3434 
Q 928 4138 513 4856 
z
" transform="scale(0.015625)"/>
      </defs>
      <use xlink:href="#DejaVuSans-57"/>
      <use xlink:href="#DejaVuSans-72" transform="translate(94.376953 0)"/>
      <use xlink:href="#DejaVuSans-69" transform="translate(135.490234 0)"/>
      <use xlink:href="#DejaVuSans-74" transform="translate(163.273438 0)"/>
      <use xlink:href="#DejaVuSans-65" transform="translate(202.482422 0)"/>
      <use xlink:href="#DejaVuSans-20" transform="translate(264.005859 0)"/>
      <use xlink:href="#DejaVuSans-6c" transform="translate(295.792969 0)"/>
      <use xlink:href="#DejaVuSans-61" transform="translate(323.576172 0)"/>
      <use xlink:href="#DejaVuSans-74" transform="translate(384.855469 0)"/>
      <use xlink:href="#DejaVuSans-65" transform="translate(424.064453 0)"/>
      <use xlink:href="#DejaVuSans-6e" transform="translate(485.587891 0)"/>
      <use xlink:href="#DejaVuSans-63" transform="translate(548.966797 0)"/>
      <use xlink:href="#DejaVuSans-79" transform="translate(603.947266 0)"/>
      <use xlink:href="#DejaVuSans-20" transform="translate(663.126953 0)"/>
      <use xlink:href="#DejaVuSans-28" transform="translate(694.914062 0)"/>
      <use xlink:href="#DejaVuSans-73" transform="translate(733.927734 0)"/>
      <use xlink:href="#DejaVuSans-29" transform="translate(786.027344 0)"/>
     </g>
    </g>
   </g>
   <g id="line2d_15">
    <path d="M 137.723936 184.253853 
L 138.594907 183.591783 
L 139.465878 183.195976 
L 139.901364 183.00657 
L 140.33685 182.65239 
L 140.772335 182.499063 
L 141.207821 182.014949 
L 141.643306 181.8477 
L 142.078792 179.953224 
L 142.514278 179.047895 
L 142.949763 178.416603 
L 143.820735 177.626861 
L 145.127192 176.761534 
L 145.998163 176.02667 
L 148.175591 174.353013 
L 148.611077 174.142193 
L 149.917534 172.926113 
L 150.353019 172.654479 
L 150.788505 171.936895 
L 151.659476 171.336982 
L 152.965933 170.456353 
L 154.707876 169.654738 
L 155.578847 169.368899 
L 156.449818 168.942702 
L 157.756275 168.358408 
L 158.191761 167.980551 
L 159.062732 167.664181 
L 160.369189 167.383748 
L 160.804675 167.565945 
L 162.111132 167.214697 
L 162.546617 167.112503 
L 162.982103 167.302438 
L 163.417588 167.170031 
L 163.853074 167.202541 
L 164.724045 166.929352 
L 165.159531 166.9155 
L 166.030502 167.181763 
L 166.465988 167.176569 
L 167.336959 167.28954 
L 168.207931 167.366857 
L 168.643416 167.37555 
L 169.078902 167.669305 
L 169.514387 167.725667 
L 169.949873 168.127941 
L 170.820844 168.337559 
L 171.25633 168.34763 
L 172.127301 168.693895 
L 172.998273 168.89217 
L 173.869244 169.491624 
L 174.30473 169.425685 
L 176.046672 170.061959 
L 176.482158 170.43766 
L 176.917643 171.187578 
L 177.353129 171.645472 
L 179.530557 172.80936 
L 180.401528 173.635817 
L 181.2725 174.022296 
L 181.707985 174.291385 
L 183.014442 175.50425 
L 183.885414 175.998223 
L 184.320899 176.43481 
L 184.756385 176.627536 
L 185.191871 176.466754 
L 186.933813 177.759197 
L 187.369299 177.89217 
L 187.804784 177.876198 
L 188.24027 177.710256 
L 189.111241 175.105015 
L 190.417698 170.667279 
L 190.853184 168.742801 
L 191.28867 167.405021 
L 192.159641 165.503018 
L 192.595126 164.952718 
L 193.030612 162.930852 
L 194.337069 160.412222 
L 196.079012 156.276015 
L 196.514497 155.71628 
L 196.949983 154.530836 
L 198.691925 151.171614 
L 199.562897 149.62729 
L 199.998382 149.058226 
L 201.304839 146.883883 
L 201.740325 146.322734 
L 202.175811 145.146231 
L 203.046782 143.571658 
L 203.482267 139.257672 
L 204.353239 137.699601 
L 204.788724 136.751586 
L 206.530667 134.388119 
L 207.837124 131.347317 
L 210.450038 126.767068 
L 210.885523 124.774249 
L 213.062952 121.334636 
L 214.369408 118.022624 
L 216.111351 115.120519 
L 216.546837 113.795954 
L 216.982322 113.197137 
L 218.288779 110.761089 
L 218.724265 109.179272 
L 219.159751 108.66809 
L 220.030722 107.170693 
L 220.466207 106.699159 
L 222.20815 103.945327 
L 222.643636 102.946568 
L 223.950093 101.226337 
L 225.25655 99.131642 
L 226.563006 97.298334 
L 226.998492 98.070973 
L 227.433978 97.991324 
L 227.869463 97.752977 
L 229.17592 96.081759 
L 230.046892 94.800553 
L 231.788834 91.988132 
L 232.659805 90.203977 
L 233.966262 88.283917 
L 234.401748 87.956804 
L 235.272719 86.848324 
L 235.708205 86.758887 
L 236.579176 85.292516 
L 237.450147 83.916536 
L 238.321119 82.701445 
L 239.627576 80.852836 
L 240.498547 79.875208 
L 240.934033 79.283317 
L 241.805004 78.409049 
L 242.675975 77.223994 
L 243.111461 76.910203 
L 243.982432 75.600692 
L 244.417918 72.766292 
L 245.288889 71.59456 
L 246.595346 69.856448 
L 247.466317 68.407816 
L 248.337289 67.271032 
L 248.772774 66.739566 
L 249.643745 66.090429 
L 252.256659 62.473602 
L 254.434087 59.930731 
L 255.740544 58.0935 
L 256.611516 57.451607 
L 257.047001 56.519705 
L 257.482487 56.137043 
L 258.788944 54.174932 
L 259.22443 53.765626 
L 260.966372 51.180598 
L 261.401858 50.658956 
L 263.1438 47.638013 
L 264.885743 44.944289 
L 265.321229 43.997828 
L 267.934142 40.182196 
L 268.369628 39.765257 
L 269.240599 38.428325 
L 269.676085 38.136619 
L 270.111571 38.21906 
L 270.547056 37.816079 
L 271.418027 36.642827 
L 272.288999 35.495618 
L 273.15997 34.990125 
L 274.030941 37.004181 
L 275.337398 40.821757 
L 275.772884 42.838816 
L 276.20837 43.888955 
L 276.643855 43.767467 
L 277.079341 44.741385 
L 277.514826 45.298576 
L 277.950312 47.58734 
L 280.12774 51.709907 
L 280.563226 52.292753 
L 280.998712 53.54675 
L 281.869683 55.342177 
L 282.740654 56.968836 
L 283.17614 57.757694 
L 284.047111 59.853626 
L 284.482597 60.704607 
L 284.918082 61.077304 
L 285.789054 62.437735 
L 286.660025 63.745161 
L 287.530996 65.92841 
L 287.966482 66.763595 
L 288.401967 71.094296 
L 289.272939 72.866331 
L 289.708424 73.934244 
L 291.450367 77.044978 
L 291.885853 78.272649 
L 292.321338 79.145503 
L 292.756824 78.868463 
L 294.063281 81.417483 
L 294.498766 82.090472 
L 294.934252 83.235667 
L 295.369738 84.031628 
L 295.805223 86.196749 
L 296.240709 87.384277 
L 297.982652 90.432147 
L 298.853623 92.813282 
L 299.724594 95.008368 
L 300.595565 96.839132 
L 301.031051 96.857401 
L 301.902022 98.240201 
L 304.950422 105.44177 
L 305.385907 106.150767 
L 307.998821 112.244775 
L 309.305278 114.672872 
L 310.17625 116.455507 
L 311.482706 119.039935 
L 312.353678 120.992646 
L 315.402077 127.071706 
L 316.273049 128.950952 
L 319.321448 135.635791 
L 321.498876 139.875995 
L 322.369847 141.765347 
L 324.11179 145.464333 
L 324.982761 144.509603 
L 325.418247 144.442923 
L 326.289218 143.506144 
L 326.724704 143.219527 
L 327.16019 143.087438 
L 328.031161 142.352892 
L 328.466646 142.338828 
L 328.902132 142.022458 
L 329.337618 144.283766 
L 329.773103 144.262493 
L 330.208589 144.051886 
L 330.644075 143.999022 
L 331.07956 143.552577 
L 331.515046 143.337906 
L 332.386017 142.657849 
L 333.256989 142.07359 
L 333.692474 139.429868 
L 336.740874 136.755685 
L 337.176359 136.614691 
L 337.611845 136.09312 
L 338.047331 135.981632 
L 338.482816 135.557803 
L 339.353787 135.19348 
L 339.789273 134.816048 
L 341.09573 134.198361 
L 341.531216 133.939448 
L 341.966701 134.101503 
L 342.837673 133.756969 
L 343.273158 133.261441 
L 343.708644 133.196527 
L 344.14413 132.693402 
L 345.015101 132.261304 
L 345.450586 132.31438 
L 346.321558 131.549267 
L 347.192529 131.527676 
L 348.0635 131.0842 
L 348.498986 130.762493 
L 348.934472 130.231699 
L 349.805443 129.798188 
L 350.240929 129.819496 
L 351.547385 129.451604 
L 351.982871 129.058518 
L 352.418357 128.900527 
L 353.289328 127.91304 
L 354.160299 127.610875 
L 354.595785 125.444235 
L 355.031271 124.906091 
L 356.773213 123.365442 
L 358.07967 123.307807 
L 360.257098 122.195688 
L 360.692584 121.820693 
L 361.12807 121.715531 
L 361.563555 121.904724 
L 362.434526 121.571428 
L 363.740983 120.400048 
L 364.611955 120.153468 
L 365.04744 119.962508 
L 365.482926 120.263719 
L 366.353897 119.56928 
L 366.789383 119.485603 
L 367.224869 118.845017 
L 367.660354 118.869717 
L 368.09584 118.550838 
L 368.966811 117.352461 
L 369.402297 117.01655 
L 369.837782 117.045067 
L 370.273268 116.929021 
L 370.708754 116.612297 
L 371.144239 114.84998 
L 371.579725 114.442476 
L 372.015211 114.239926 
L 373.321668 112.164666 
L 373.757153 111.764018 
L 374.192639 111.748434 
L 374.628124 111.289409 
L 375.499096 110.64741 
L 375.934581 109.928448 
L 376.370067 108.562186 
L 376.805553 108.084149 
L 377.241038 107.953651 
L 377.676524 109.217153 
L 378.11201 108.744948 
L 379.418466 108.114504 
L 379.853952 107.884673 
L 381.160409 106.574667 
L 381.595895 106.40339 
L 382.466866 105.897932 
L 382.902352 105.72821 
L 383.337837 105.423571 
L 384.208809 105.049213 
L 384.644294 104.657293 
L 385.515265 104.367884 
L 386.386237 105.589902 
L 388.128179 104.447498 
L 388.563665 104.522978 
L 389.870122 103.359832 
L 390.305608 102.821582 
L 390.741093 102.481111 
L 392.04755 101.176159 
L 392.483036 100.839541 
L 392.483036 100.839541 
" clip-path="url(#p689e82156e)" style="fill: none; stroke: #1f77b4; stroke-opacity: 0.8; stroke-width: 1.5; stroke-linecap: square"/>
   </g>
   <g id="line2d_16">
    <path d="M 137.723936 266.505303 
L 138.594907 266.441626 
L 140.772335 266.516187 
L 142.514278 266.351765 
L 144.25622 266.216142 
L 146.433648 265.981788 
L 147.740105 265.929101 
L 150.353019 266.079459 
L 152.530447 266.024122 
L 156.449818 265.438167 
L 164.724045 265.128299 
L 165.595017 265.187382 
L 168.207931 264.936915 
L 169.078902 264.858325 
L 171.25633 265.040805 
L 173.869244 264.791468 
L 176.046672 264.57814 
L 176.917643 264.605455 
L 178.659586 264.664432 
L 180.401528 264.539305 
L 182.578957 264.609908 
L 183.449928 264.614996 
L 185.191871 264.492342 
L 188.24027 264.288873 
L 189.982213 264.435344 
L 190.853184 264.470151 
L 195.20804 264.315976 
L 197.385468 264.392021 
L 204.788724 263.880592 
L 206.530667 263.771295 
L 207.401638 263.71306 
L 207.837124 263.976955 
L 209.143581 263.906458 
L 210.450038 263.881157 
L 210.885523 263.826208 
L 211.321009 263.51581 
L 212.19198 263.553232 
L 212.627466 263.801048 
L 214.369408 263.899073 
L 215.24038 263.983952 
L 216.546837 264.02943 
L 220.030722 263.927696 
L 222.20815 263.953421 
L 222.643636 264.137844 
L 223.514607 264.133992 
L 229.17592 264.03678 
L 230.482377 264.193958 
L 230.917863 263.989252 
L 233.530777 264.008122 
L 234.401748 263.863983 
L 240.498547 263.831968 
L 241.805004 263.916529 
L 244.417918 263.985754 
L 245.288889 263.878295 
L 249.20826 263.660903 
L 256.17603 263.17216 
L 267.063171 263.508919 
L 268.369628 263.454395 
L 270.547056 263.581642 
L 271.418027 263.602067 
L 272.724484 263.652917 
L 274.030941 263.63645 
L 275.337398 263.522842 
L 277.514826 263.444854 
L 278.385798 263.270891 
L 280.12774 263.232939 
L 281.869683 263.100885 
L 282.305169 262.874023 
L 289.708424 263.439906 
L 292.321338 263.378385 
L 294.498766 263.373579 
L 294.934252 263.16647 
L 295.805223 263.223115 
L 296.240709 263.511605 
L 300.595565 263.042862 
L 301.466537 263.103359 
L 301.902022 262.946181 
L 303.208479 263.004486 
L 303.643965 262.808756 
L 306.256879 262.790628 
L 307.563336 262.683911 
L 308.869793 262.614121 
L 315.402077 262.49076 
L 315.837563 262.713417 
L 317.14402 262.645853 
L 318.885962 262.551716 
L 320.627905 262.564614 
L 321.063391 262.524047 
L 321.498876 262.214921 
L 322.805333 262.280188 
L 324.11179 262.423337 
L 330.644075 262.421853 
L 331.515046 262.313122 
L 332.821503 262.334854 
L 334.998931 262.40051 
L 336.305388 262.611965 
L 338.047331 262.675642 
L 338.918302 262.660377 
L 352.853842 262.453197 
L 353.289328 262.268174 
L 362.434526 262.296337 
L 362.870012 262.159584 
L 366.789383 262.236582 
L 367.224869 262.453974 
L 367.660354 262.338706 
L 369.837782 262.294217 
L 372.450696 262.149018 
L 374.192639 262.195521 
L 375.934581 262.242166 
L 378.547495 262.434398 
L 379.418466 262.304888 
L 379.853952 262.528076 
L 380.724923 262.465176 
L 382.902352 262.67748 
L 383.337837 262.471713 
L 384.644294 262.443974 
L 385.950751 262.570798 
L 386.386237 262.522528 
L 386.821722 262.698364 
L 388.128179 262.614757 
L 388.563665 262.816565 
L 390.305608 262.800381 
L 391.612064 262.797059 
L 392.483036 262.827555 
L 392.483036 262.827555 
" clip-path="url(#p689e82156e)" style="fill: none; stroke: #ff7f0e; stroke-opacity: 0.8; stroke-width: 1.5; stroke-linecap: square"/>
   </g>
   <g id="line2d_17">
    <path d="M 137.723936 267.801457 
L 139.465878 267.71156 
L 147.30462 267.356284 
L 147.740105 267.169953 
L 149.482048 267.089067 
L 150.788505 267.049702 
L 151.659476 267.025107 
L 152.965933 266.90581 
L 158.191761 266.820825 
L 164.28856 267.101117 
L 167.336959 267.090198 
L 168.643416 266.969805 
L 169.949873 267.074296 
L 172.562787 267.022634 
L 176.482158 266.951854 
L 177.353129 266.994046 
L 178.2241 266.888955 
L 179.530557 266.956837 
L 181.707985 266.93355 
L 182.143471 266.986767 
L 182.578957 266.918814 
L 183.449928 266.96977 
L 185.627356 266.887152 
L 186.933813 266.967897 
L 189.546727 266.925033 
L 192.595126 267.0244 
L 195.20804 267.03691 
L 202.175811 266.969169 
L 203.482267 266.960512 
L 204.788724 267.025779 
L 210.014552 266.901322 
L 214.369408 266.857363 
L 215.675865 266.876516 
L 216.982322 266.901852 
L 218.288779 266.855561 
L 220.030722 266.892418 
L 221.772664 266.977438 
L 222.643636 266.998039 
L 224.385578 267.061787 
L 227.433978 266.878495 
L 230.482377 266.945705 
L 231.353349 266.988392 
L 232.22432 267.109491 
L 232.659805 267.299851 
L 238.756604 267.32236 
L 239.627576 267.270345 
L 241.369518 267.306777 
L 246.595346 267.053306 
L 248.772774 266.785241 
L 249.643745 266.794676 
L 251.821174 266.858141 
L 254.434087 266.92786 
L 255.740544 266.868495 
L 258.353458 266.946271 
L 262.272829 267.107265 
L 263.1438 267.145146 
L 264.014772 267.128821 
L 264.885743 267.111612 
L 266.1922 267.143733 
L 273.15997 267.305116 
L 274.466427 267.279815 
L 276.20837 267.238647 
L 287.095511 267.26568 
L 289.272939 267.362397 
L 290.579396 267.299639 
L 292.756824 267.322643 
L 296.240709 267.331937 
L 298.418137 267.341266 
L 300.16008 267.482153 
L 301.466537 267.506394 
L 302.772994 267.540848 
L 311.047221 267.612546 
L 314.531106 267.665233 
L 316.273049 267.564665 
L 322.369847 267.520352 
L 326.289218 267.653007 
L 328.466646 267.746826 
L 332.386017 267.901389 
L 332.821503 268.028778 
L 338.482816 268.064645 
L 339.353787 268.068214 
L 341.09573 268.001604 
L 342.402187 267.974536 
L 344.579615 268.075494 
L 353.289328 267.821599 
L 354.595785 267.79704 
L 356.337728 267.875629 
L 369.402297 267.822447 
L 370.708754 267.750607 
L 376.370067 267.836581 
L 392.04755 267.968741 
L 392.483036 267.948281 
L 392.483036 267.948281 
" clip-path="url(#p689e82156e)" style="fill: none; stroke: #2ca02c; stroke-opacity: 0.8; stroke-width: 1.5; stroke-linecap: square"/>
   </g>
   <g id="line2d_18">
    <path d="M 137.723936 262.850135 
L 142.078792 263.042968 
L 143.820735 262.947347 
L 144.25622 262.601682 
L 148.611077 262.728365 
L 153.401419 262.06163 
L 156.885304 262.144177 
L 158.191761 262.235628 
L 159.498218 262.16029 
L 159.933703 262.01813 
L 162.111132 261.929506 
L 163.853074 261.730666 
L 164.724045 261.687519 
L 165.159531 261.621369 
L 165.595017 261.681335 
L 166.465988 261.923781 
L 171.691816 261.778653 
L 172.998273 261.667801 
L 173.433758 261.801622 
L 174.30473 261.85604 
L 175.175701 261.93834 
L 176.482158 261.720665 
L 177.353129 261.808901 
L 178.2241 261.719958 
L 179.095072 261.642288 
L 184.320899 261.569636 
L 185.191871 261.437688 
L 186.933813 261.566173 
L 190.853184 261.475286 
L 192.595126 261.488361 
L 194.337069 261.428289 
L 194.772555 261.336166 
L 196.949983 261.480728 
L 197.820954 261.462177 
L 199.127411 261.511436 
L 200.869354 261.551049 
L 202.175811 261.710559 
L 203.917753 261.525641 
L 204.353239 261.823248 
L 213.062952 261.907173 
L 214.804894 262.043962 
L 226.127521 261.712608 
L 228.304949 261.45942 
L 228.740435 261.45207 
L 229.17592 261.789749 
L 231.788834 261.892084 
L 232.659805 261.798972 
L 233.530777 261.728687 
L 237.885633 262.120112 
L 241.369518 261.998589 
L 243.982432 261.707591 
L 244.417918 261.690876 
L 244.853403 261.820492 
L 245.724375 261.631864 
L 247.901803 261.653949 
L 250.950202 261.913781 
L 251.821174 261.838443 
L 253.998602 261.709004 
L 254.869573 261.665222 
L 257.917973 261.786286 
L 260.530886 261.695223 
L 261.401858 261.835156 
L 266.1922 261.900848 
L 266.627685 261.576844 
L 267.498657 261.639956 
L 267.934142 261.70547 
L 268.805114 261.621333 
L 270.111571 261.70752 
L 272.288999 261.688791 
L 272.724484 261.61787 
L 274.030941 261.729287 
L 274.901913 261.675151 
L 275.337398 261.602746 
L 276.20837 261.672006 
L 278.385798 261.538504 
L 278.821283 261.404472 
L 281.434197 259.257902 
L 281.869683 258.97012 
L 282.740654 258.967328 
L 283.17614 258.660958 
L 284.482597 258.61608 
L 285.789054 258.383882 
L 286.660025 258.30024 
L 287.530996 258.219354 
L 287.966482 258.283137 
L 289.708424 258.14808 
L 290.14391 258.13603 
L 290.579396 257.92256 
L 291.450367 257.858318 
L 291.885853 257.867081 
L 292.321338 257.756725 
L 293.627795 257.697818 
L 295.805223 257.60255 
L 297.11168 257.394063 
L 300.16008 257.305968 
L 301.031051 257.267557 
L 306.692364 257.34028 
L 307.563336 256.673475 
L 307.998821 256.673228 
L 308.869793 256.157805 
L 309.305278 256.159007 
L 309.740764 255.737227 
L 310.611735 255.775214 
L 311.482706 255.843484 
L 313.224649 256.042006 
L 319.756934 256.475236 
L 320.192419 256.2359 
L 321.934362 256.169254 
L 322.369847 255.993383 
L 325.853733 255.781645 
L 327.595675 254.941901 
L 328.466646 255.006638 
L 330.644075 255.247317 
L 331.515046 255.163216 
L 336.740874 255.174488 
L 337.611845 255.23926 
L 338.482816 255.188375 
L 339.789273 255.352409 
L 349.805443 255.307496 
L 350.240929 255.373258 
L 351.1119 255.296365 
L 351.547385 255.567363 
L 353.724814 255.460858 
L 357.208699 255.411669 
L 357.644184 255.484074 
L 358.515156 255.376332 
L 359.821613 255.423082 
L 363.740983 255.56549 
L 364.176469 255.867973 
L 364.611955 256.348377 
L 365.04744 256.497427 
L 365.918412 257.377031 
L 366.353897 257.510568 
L 366.789383 257.803652 
L 367.660354 257.760506 
L 368.09584 258.082707 
L 369.402297 257.396113 
L 370.708754 257.561135 
L 371.144239 257.505091 
L 372.450696 257.684673 
L 374.192639 257.750682 
L 375.499096 258.077512 
L 376.370067 258.127867 
L 378.982981 258.36526 
L 379.853952 258.452294 
L 381.595895 258.618377 
L 383.773323 258.601274 
L 385.950751 258.720854 
L 387.257208 258.637848 
L 391.612064 258.521943 
L 392.483036 259.3049 
L 392.483036 259.3049 
" clip-path="url(#p689e82156e)" style="fill: none; stroke: #d62728; stroke-opacity: 0.8; stroke-width: 1.5; stroke-linecap: square"/>
   </g>
   <g id="line2d_19">
    <path d="M 137.723936 196.071715 
L 138.594907 194.568912 
L 139.465878 192.8249 
L 139.901364 192.001058 
L 140.33685 190.875969 
L 140.772335 190.15153 
L 141.643306 188.333699 
L 143.820735 184.375165 
L 146.433648 179.263732 
L 149.917534 173.012723 
L 150.788505 170.907216 
L 151.659476 169.421233 
L 153.836904 165.176046 
L 155.578847 161.846967 
L 156.449818 160.175501 
L 156.885304 159.581489 
L 159.933703 153.905304 
L 161.675646 150.956943 
L 162.982103 148.534111 
L 163.853074 147.067669 
L 165.159531 144.500628 
L 166.465988 142.26501 
L 168.207931 139.006144 
L 169.949873 135.642399 
L 170.385359 132.137802 
L 171.25633 130.486937 
L 172.127301 129.026856 
L 174.740215 123.541631 
L 176.046672 121.258556 
L 179.530557 114.535306 
L 180.837014 112.30354 
L 181.2725 111.578499 
L 182.143471 109.689111 
L 185.191871 103.757653 
L 186.062842 102.414184 
L 186.933813 100.719501 
L 188.675756 97.567247 
L 192.159641 100.335532 
L 193.466098 101.508466 
L 196.079012 103.809316 
L 197.385468 105.099285 
L 197.820954 105.254485 
L 199.127411 106.497245 
L 199.562897 107.162389 
L 200.433868 107.878701 
L 203.917753 110.947172 
L 204.788724 112.071271 
L 206.095181 113.296857 
L 207.401638 114.739093 
L 208.27261 115.676543 
L 212.627466 120.091629 
L 213.498437 120.75225 
L 214.369408 121.791647 
L 216.111351 123.534775 
L 216.982322 124.531627 
L 218.724265 126.402145 
L 219.159751 126.56851 
L 220.030722 127.396663 
L 221.772664 129.216261 
L 222.20815 129.725394 
L 222.643636 130.524959 
L 223.514607 131.28834 
L 224.385578 132.23261 
L 224.821064 132.56778 
L 225.25655 133.210768 
L 225.692035 133.425651 
L 226.127521 134.100372 
L 228.304949 136.05015 
L 228.740435 136.188388 
L 230.046892 137.572601 
L 231.353349 138.749705 
L 232.22432 139.453402 
L 233.095291 140.222613 
L 234.837234 141.576614 
L 235.708205 142.910436 
L 237.450147 144.474196 
L 237.885633 144.818093 
L 238.321119 145.391998 
L 239.19209 146.083539 
L 240.063061 146.991589 
L 240.498547 147.16693 
L 241.805004 148.255198 
L 243.982432 150.292965 
L 244.853403 150.884149 
L 248.337289 153.807916 
L 249.20826 154.473909 
L 249.643745 155.014279 
L 250.514717 155.570162 
L 251.821174 156.839283 
L 252.256659 157.038971 
L 254.869573 159.241055 
L 255.305059 161.931068 
L 256.17603 162.711517 
L 256.611516 162.838517 
L 258.353458 164.285029 
L 261.401858 166.821752 
L 262.708315 168.78623 
L 264.014772 170.261506 
L 265.321229 171.357371 
L 266.1922 171.918696 
L 267.063171 173.167499 
L 268.369628 174.573479 
L 268.805114 175.378981 
L 269.676085 176.363818 
L 270.111571 177.109919 
L 271.418027 178.29872 
L 273.595456 180.008915 
L 274.901913 177.964292 
L 276.20837 175.89868 
L 279.692255 170.854776 
L 280.12774 169.897997 
L 280.563226 169.320381 
L 281.434197 167.751887 
L 281.869683 164.995016 
L 282.305169 164.292202 
L 283.611625 162.883572 
L 285.353568 159.859908 
L 285.789054 159.255613 
L 286.660025 157.72136 
L 287.095511 157.067064 
L 287.966482 155.41786 
L 290.14391 152.117757 
L 290.579396 151.576821 
L 292.321338 148.026215 
L 293.627795 145.914135 
L 294.934252 143.865943 
L 295.369738 142.837819 
L 296.676195 141.069212 
L 299.289109 137.39574 
L 300.16008 136.404472 
L 301.902022 133.830045 
L 302.337508 133.058784 
L 304.079451 130.767193 
L 304.514936 129.741083 
L 306.256879 127.659605 
L 306.692364 126.592398 
L 307.563336 125.307093 
L 311.918192 119.854519 
L 312.789163 118.559955 
L 314.531106 116.39699 
L 315.402077 115.299252 
L 316.708534 113.471527 
L 318.450477 110.674372 
L 319.756934 109.228461 
L 321.063391 106.867397 
L 321.498876 106.199673 
L 321.934362 105.27756 
L 322.805333 104.12141 
L 323.676304 102.661895 
L 324.11179 102.124952 
L 324.547276 101.791938 
L 324.982761 102.238277 
L 325.853733 103.435947 
L 328.466646 105.970903 
L 329.337618 107.087934 
L 330.208589 107.87856 
L 331.515046 109.428114 
L 331.950532 109.780386 
L 333.692474 111.924305 
L 334.12796 112.56641 
L 334.998931 113.517253 
L 337.176359 115.985987 
L 342.837673 123.657253 
L 343.273158 124.527881 
L 344.14413 125.623286 
L 344.579615 125.882482 
L 345.015101 126.366419 
L 345.450586 126.681023 
L 346.321558 127.746003 
L 347.192529 128.361817 
L 350.240929 131.638811 
L 351.1119 132.761001 
L 351.982871 133.401445 
L 354.160299 135.575648 
L 354.595785 135.765477 
L 355.031271 135.81092 
L 355.466756 136.189801 
L 356.337728 137.203685 
L 356.773213 137.571188 
L 358.515156 139.554748 
L 358.950641 139.635175 
L 359.386127 140.142293 
L 360.692584 141.096917 
L 362.434526 142.544488 
L 364.611955 144.289667 
L 365.04744 144.859826 
L 365.482926 145.130859 
L 366.353897 146.025198 
L 366.789383 148.349441 
L 368.09584 149.429157 
L 368.531325 149.64245 
L 369.402297 150.753085 
L 369.837782 151.057547 
L 371.579725 152.818945 
L 372.015211 153.047079 
L 372.886182 154.215031 
L 373.757153 154.706389 
L 374.192639 154.818478 
L 375.499096 155.919396 
L 375.934581 156.661468 
L 378.11201 158.917405 
L 378.547495 159.15296 
L 380.724923 161.392995 
L 381.595895 161.888806 
L 383.337837 162.597273 
L 384.208809 162.852475 
L 385.07978 163.275245 
L 386.386237 164.275241 
L 388.128179 164.912505 
L 388.563665 165.212231 
L 389.870122 166.516937 
L 390.305608 166.589978 
L 390.741093 166.510929 
L 391.176579 166.676588 
L 391.612064 167.486543 
L 392.483036 168.326534 
L 392.483036 168.326534 
" clip-path="url(#p689e82156e)" style="fill: none; stroke: #9467bd; stroke-opacity: 0.8; stroke-width: 1.5; stroke-linecap: square"/>
   </g>
   <g id="patch_3">
    <path d="M 52.36875 288.430125 
L 52.36875 22.318125 
" style="fill: none; stroke: #000000; stroke-width: 0.8; stroke-linejoin: miter; stroke-linecap: square"/>
   </g>
   <g id="patch_4">
    <path d="M 409.48875 288.430125 
L 409.48875 22.318125 
" style="fill: none; stroke: #000000; stroke-width: 0.8; stroke-linejoin: miter; stroke-linecap: square"/>
   </g>
   <g id="patch_5">
    <path d="M 52.36875 288.430125 
L 409.48875 288.430125 
" style="fill: none; stroke: #000000; stroke-width: 0.8; stroke-linejoin: miter; stroke-linecap: square"/>
   </g>
   <g id="patch_6">
    <path d="M 52.36875 22.318125 
L 409.48875 22.318125 
" style="fill: none; stroke: #000000; stroke-width: 0.8; stroke-linejoin: miter; stroke-linecap: square"/>
   </g>
   <g id="text_17">
    <!-- Delete [leaf] -->
    <g transform="translate(193.4775 16.318125) scale(0.12 -0.12)">
     <defs>
      <path id="DejaVuSans-44" d="M 1259 4147 
L 1259 519 
L 2022 519 
Q 2988 519 3436 956 
Q 3884 1394 3884 2338 
Q 3884 3275 3436 3711 
Q 2988 4147 2022 4147 
L 1259 4147 
z
M 628 4666 
L 1925 4666 
Q 3281 4666 3915 4102 
Q 4550 3538 4550 2338 
Q 4550 1131 3912 565 
Q 3275 0 1925 0 
L 628 0 
L 628 4666 
z
" transform="scale(0.015625)"/>
      <path id="DejaVuSans-5b" d="M 550 4863 
L 1875 4863 
L 1875 4416 
L 1125 4416 
L 1125 -397 
L 1875 -397 
L 1875 -844 
L 550 -844 
L 550 4863 
z
" transform="scale(0.015625)"/>
      <path id="DejaVuSans-5d" d="M 1947 4863 
L 1947 -844 
L 622 -844 
L 622 -397 
L 1369 -397 
L 1369 4416 
L 622 4416 
L 622 4863 
L 1947 4863 
z
" transform="scale(0.015625)"/>
     </defs>
     <use xlink:href="#DejaVuSans-44"/>
     <use xlink:href="#DejaVuSans-65" transform="translate(77.001953 0)"/>
     <use xlink:href="#DejaVuSans-6c" transform="translate(138.525391 0)"/>
     <use xlink:href="#DejaVuSans-65" transform="translate(166.308594 0)"/>
     <use xlink:href="#DejaVuSans-74" transform="translate(227.832031 0)"/>
     <use xlink:href="#DejaVuSans-65" transform="translate(267.041016 0)"/>
     <use xlink:href="#DejaVuSans-20" transform="translate(328.564453 0)"/>
     <use xlink:href="#DejaVuSans-5b" transform="translate(360.351562 0)"/>
     <use xlink:href="#DejaVuSans-6c" transform="translate(399.365234 0)"/>
     <use xlink:href="#DejaVuSans-65" transform="translate(427.148438 0)"/>
     <use xlink:href="#DejaVuSans-61" transform="translate(488.671875 0)"/>
     <use xlink:href="#DejaVuSans-66" transform="translate(549.951172 0)"/>
     <use xlink:href="#DejaVuSans-5d" transform="translate(585.15625 0)"/>
    </g>
   </g>
   <g id="legend_1">
    <g id="patch_7">
     <path d="M 83.371094 365.802375 
L 370.966406 365.802375 
Q 372.966406 365.802375 372.966406 363.802375 
L 372.966406 335.446125 
Q 372.966406 333.446125 370.966406 333.446125 
L 83.371094 333.446125 
Q 81.371094 333.446125 81.371094 335.446125 
L 81.371094 363.802375 
Q 81.371094 365.802375 83.371094 365.802375 
z
" style="fill: #4d4d4d; opacity: 0.5; stroke: #4d4d4d; stroke-linejoin: miter"/>
    </g>
    <g id="patch_8">
     <path d="M 81.371094 363.802375 
L 368.966406 363.802375 
Q 370.966406 363.802375 370.966406 361.802375 
L 370.966406 333.446125 
Q 370.966406 331.446125 368.966406 331.446125 
L 81.371094 331.446125 
Q 79.371094 331.446125 79.371094 333.446125 
L 79.371094 361.802375 
Q 79.371094 363.802375 81.371094 363.802375 
z
" style="fill: #ffffff; stroke: #cccccc; stroke-linejoin: miter"/>
    </g>
    <g id="line2d_20">
     <path d="M 83.371094 339.544562 
L 93.371094 339.544562 
L 103.371094 339.544562 
" style="fill: none; stroke: #1f77b4; stroke-opacity: 0.8; stroke-width: 1.5; stroke-linecap: square"/>
    </g>
    <g id="text_18">
     <!-- MPTT -->
     <g transform="translate(111.371094 343.044562) scale(0.1 -0.1)">
      <defs>
       <path id="DejaVuSans-4d" d="M 628 4666 
L 1569 4666 
L 2759 1491 
L 3956 4666 
L 4897 4666 
L 4897 0 
L 4281 0 
L 4281 4097 
L 3078 897 
L 2444 897 
L 1241 4097 
L 1241 0 
L 628 0 
L 628 4666 
z
" transform="scale(0.015625)"/>
       <path id="DejaVuSans-50" d="M 1259 4147 
L 1259 2394 
L 2053 2394 
Q 2494 2394 2734 2622 
Q 2975 2850 2975 3272 
Q 2975 3691 2734 3919 
Q 2494 4147 2053 4147 
L 1259 4147 
z
M 628 4666 
L 2053 4666 
Q 2838 4666 3239 4311 
Q 3641 3956 3641 3272 
Q 3641 2581 3239 2228 
Q 2838 1875 2053 1875 
L 1259 1875 
L 1259 0 
L 628 0 
L 628 4666 
z
" transform="scale(0.015625)"/>
       <path id="DejaVuSans-54" d="M -19 4666 
L 3928 4666 
L 3928 4134 
L 2272 4134 
L 2272 0 
L 1638 0 
L 1638 4134 
L -19 4134 
L -19 4666 
z
" transform="scale(0.015625)"/>
      </defs>
      <use xlink:href="#DejaVuSans-4d"/>
      <use xlink:href="#DejaVuSans-50" transform="translate(86.279297 0)"/>
      <use xlink:href="#DejaVuSans-54" transform="translate(146.582031 0)"/>
      <use xlink:href="#DejaVuSans-54" transform="translate(205.916016 0)"/>
     </g>
    </g>
    <g id="line2d_21">
     <path d="M 83.371094 354.222687 
L 93.371094 354.222687 
L 103.371094 354.222687 
" style="fill: none; stroke: #ff7f0e; stroke-opacity: 0.8; stroke-width: 1.5; stroke-linecap: square"/>
    </g>
    <g id="text_19">
     <!-- tree -->
     <g transform="translate(111.371094 357.722687) scale(0.1 -0.1)">
      <use xlink:href="#DejaVuSans-74"/>
      <use xlink:href="#DejaVuSans-72" transform="translate(39.208984 0)"/>
      <use xlink:href="#DejaVuSans-65" transform="translate(78.072266 0)"/>
      <use xlink:href="#DejaVuSans-65" transform="translate(139.595703 0)"/>
     </g>
    </g>
    <g id="line2d_22">
     <path d="M 158.069531 339.544562 
L 168.069531 339.544562 
L 178.069531 339.544562 
" style="fill: none; stroke: #2ca02c; stroke-opacity: 0.8; stroke-width: 1.5; stroke-linecap: square"/>
    </g>
    <g id="text_20">
     <!-- treebeard AL -->
     <g transform="translate(186.069531 343.044562) scale(0.1 -0.1)">
      <defs>
       <path id="DejaVuSans-64" d="M 2906 2969 
L 2906 4863 
L 3481 4863 
L 3481 0 
L 2906 0 
L 2906 525 
Q 2725 213 2448 61 
Q 2172 -91 1784 -91 
Q 1150 -91 751 415 
Q 353 922 353 1747 
Q 353 2572 751 3078 
Q 1150 3584 1784 3584 
Q 2172 3584 2448 3432 
Q 2725 3281 2906 2969 
z
M 947 1747 
Q 947 1113 1208 752 
Q 1469 391 1925 391 
Q 2381 391 2643 752 
Q 2906 1113 2906 1747 
Q 2906 2381 2643 2742 
Q 2381 3103 1925 3103 
Q 1469 3103 1208 2742 
Q 947 2381 947 1747 
z
" transform="scale(0.015625)"/>
       <path id="DejaVuSans-4c" d="M 628 4666 
L 1259 4666 
L 1259 531 
L 3531 531 
L 3531 0 
L 628 0 
L 628 4666 
z
" transform="scale(0.015625)"/>
      </defs>
      <use xlink:href="#DejaVuSans-74"/>
      <use xlink:href="#DejaVuSans-72" transform="translate(39.208984 0)"/>
      <use xlink:href="#DejaVuSans-65" transform="translate(78.072266 0)"/>
      <use xlink:href="#DejaVuSans-65" transform="translate(139.595703 0)"/>
      <use xlink:href="#DejaVuSans-62" transform="translate(201.119141 0)"/>
      <use xlink:href="#DejaVuSans-65" transform="translate(264.595703 0)"/>
      <use xlink:href="#DejaVuSans-61" transform="translate(326.119141 0)"/>
      <use xlink:href="#DejaVuSans-72" transform="translate(387.398438 0)"/>
      <use xlink:href="#DejaVuSans-64" transform="translate(426.761719 0)"/>
      <use xlink:href="#DejaVuSans-20" transform="translate(490.238281 0)"/>
      <use xlink:href="#DejaVuSans-41" transform="translate(522.025391 0)"/>
      <use xlink:href="#DejaVuSans-4c" transform="translate(590.433594 0)"/>
     </g>
    </g>
    <g id="line2d_23">
     <path d="M 158.069531 354.222687 
L 168.069531 354.222687 
L 178.069531 354.222687 
" style="fill: none; stroke: #d62728; stroke-opacity: 0.8; stroke-width: 1.5; stroke-linecap: square"/>
    </g>
    <g id="text_21">
     <!-- treebeard MP -->
     <g transform="translate(186.069531 357.722687) scale(0.1 -0.1)">
      <use xlink:href="#DejaVuSans-74"/>
      <use xlink:href="#DejaVuSans-72" transform="translate(39.208984 0)"/>
      <use xlink:href="#DejaVuSans-65" transform="translate(78.072266 0)"/>
      <use xlink:href="#DejaVuSans-65" transform="translate(139.595703 0)"/>
      <use xlink:href="#DejaVuSans-62" transform="translate(201.119141 0)"/>
      <use xlink:href="#DejaVuSans-65" transform="translate(264.595703 0)"/>
      <use xlink:href="#DejaVuSans-61" transform="translate(326.119141 0)"/>
      <use xlink:href="#DejaVuSans-72" transform="translate(387.398438 0)"/>
      <use xlink:href="#DejaVuSans-64" transform="translate(426.761719 0)"/>
      <use xlink:href="#DejaVuSans-20" transform="translate(490.238281 0)"/>
      <use xlink:href="#DejaVuSans-4d" transform="translate(522.025391 0)"/>
      <use xlink:href="#DejaVuSans-50" transform="translate(608.304688 0)"/>
     </g>
    </g>
    <g id="line2d_24">
     <path d="M 272.932031 339.544562 
L 282.932031 339.544562 
L 292.932031 339.544562 
" style="fill: none; stroke: #9467bd; stroke-opacity: 0.8; stroke-width: 1.5; stroke-linecap: square"/>
    </g>
    <g id="text_22">
     <!-- treebeard NS -->
     <g transform="translate(300.932031 343.044562) scale(0.1 -0.1)">
      <defs>
       <path id="DejaVuSans-4e" d="M 628 4666 
L 1478 4666 
L 3547 763 
L 3547 4666 
L 4159 4666 
L 4159 0 
L 3309 0 
L 1241 3903 
L 1241 0 
L 628 0 
L 628 4666 
z
" transform="scale(0.015625)"/>
       <path id="DejaVuSans-53" d="M 3425 4513 
L 3425 3897 
Q 3066 4069 2747 4153 
Q 2428 4238 2131 4238 
Q 1616 4238 1336 4038 
Q 1056 3838 1056 3469 
Q 1056 3159 1242 3001 
Q 1428 2844 1947 2747 
L 2328 2669 
Q 3034 2534 3370 2195 
Q 3706 1856 3706 1288 
Q 3706 609 3251 259 
Q 2797 -91 1919 -91 
Q 1588 -91 1214 -16 
Q 841 59 441 206 
L 441 856 
Q 825 641 1194 531 
Q 1563 422 1919 422 
Q 2459 422 2753 634 
Q 3047 847 3047 1241 
Q 3047 1584 2836 1778 
Q 2625 1972 2144 2069 
L 1759 2144 
Q 1053 2284 737 2584 
Q 422 2884 422 3419 
Q 422 4038 858 4394 
Q 1294 4750 2059 4750 
Q 2388 4750 2728 4690 
Q 3069 4631 3425 4513 
z
" transform="scale(0.015625)"/>
      </defs>
      <use xlink:href="#DejaVuSans-74"/>
      <use xlink:href="#DejaVuSans-72" transform="translate(39.208984 0)"/>
      <use xlink:href="#DejaVuSans-65" transform="translate(78.072266 0)"/>
      <use xlink:href="#DejaVuSans-65" transform="translate(139.595703 0)"/>
      <use xlink:href="#DejaVuSans-62" transform="translate(201.119141 0)"/>
      <use xlink:href="#DejaVuSans-65" transform="translate(264.595703 0)"/>
      <use xlink:href="#DejaVuSans-61" transform="translate(326.119141 0)"/>
      <use xlink:href="#DejaVuSans-72" transform="translate(387.398438 0)"/>
      <use xlink:href="#DejaVuSans-64" transform="translate(426.761719 0)"/>
      <use xlink:href="#DejaVuSans-20" transform="translate(490.238281 0)"/>
      <use xlink:href="#DejaVuSans-4e" transform="translate(522.025391 0)"/>
      <use xlink:href="#DejaVuSans-53" transform="translate(596.830078 0)"/>
     </g>
    </g>
   </g>
  </g>
 </g>
 <defs>
  <clipPath id="p689e82156e">
   <rect x="52.36875" y="22.318125" width="357.12" height="266.112"/>
  </clipPath>
 </defs>
</svg>
