<?xml version="1.0" encoding="utf-8" standalone="no"?>
<!DOCTYPE svg PUBLIC "-//W3C//DTD SVG 1.1//EN"
  "http://www.w3.org/Graphics/SVG/1.1/DTD/svg11.dtd">
<!-- Created with matplotlib (https://matplotlib.org/) -->
<svg height="371.002375pt" version="1.1" viewBox="0 0 426.229375 371.002375" width="426.229375pt" xmlns="http://www.w3.org/2000/svg" xmlns:xlink="http://www.w3.org/1999/xlink">
 <metadata>
  <rdf:RDF xmlns:cc="http://creativecommons.org/ns#" xmlns:dc="http://purl.org/dc/elements/1.1/" xmlns:rdf="http://www.w3.org/1999/02/22-rdf-syntax-ns#">
   <cc:Work>
    <dc:type rdf:resource="http://purl.org/dc/dcmitype/StillImage"/>
    <dc:date>2023-07-03T20:37:42.203863</dc:date>
    <dc:format>image/svg+xml</dc:format>
    <dc:creator>
     <cc:Agent>
      <dc:title>Matplotlib v3.3.4, https://matplotlib.org/</dc:title>
     </cc:Agent>
    </dc:creator>
   </cc:Work>
  </rdf:RDF>
 </metadata>
 <defs>
  <style type="text/css">*{stroke-linecap:butt;stroke-linejoin:round;}</style>
 </defs>
 <g id="figure_1">
  <g id="patch_1">
   <path d="M 0 371.002375 
L 426.229375 371.002375 
L 426.229375 0 
L 0 0 
z
" style="fill:#ffffff;"/>
  </g>
  <g id="axes_1">
   <g id="patch_2">
    <path d="M 61.909375 288.430125 
L 419.029375 288.430125 
L 419.029375 22.318125 
L 61.909375 22.318125 
z
" style="fill:#ffffff;"/>
   </g>
   <g id="matplotlib.axis_1">
    <g id="xtick_1">
     <g id="line2d_1">
      <defs>
       <path d="M 0 0 
L 0 3.5 
" id="m914d929b03" style="stroke:#000000;stroke-width:0.8;"/>
      </defs>
      <g>
       <use style="stroke:#000000;stroke-width:0.8;" x="61.909375" xlink:href="#m914d929b03" y="288.430125"/>
      </g>
     </g>
     <g id="text_1">
      <!-- 0 -->
      <g transform="translate(58.728125 303.028562)scale(0.1 -0.1)">
       <defs>
        <path d="M 31.78125 66.40625 
Q 24.171875 66.40625 20.328125 58.90625 
Q 16.5 51.421875 16.5 36.375 
Q 16.5 21.390625 20.328125 13.890625 
Q 24.171875 6.390625 31.78125 6.390625 
Q 39.453125 6.390625 43.28125 13.890625 
Q 47.125 21.390625 47.125 36.375 
Q 47.125 51.421875 43.28125 58.90625 
Q 39.453125 66.40625 31.78125 66.40625 
z
M 31.78125 74.21875 
Q 44.046875 74.21875 50.515625 64.515625 
Q 56.984375 54.828125 56.984375 36.375 
Q 56.984375 17.96875 50.515625 8.265625 
Q 44.046875 -1.421875 31.78125 -1.421875 
Q 19.53125 -1.421875 13.0625 8.265625 
Q 6.59375 17.96875 6.59375 36.375 
Q 6.59375 54.828125 13.0625 64.515625 
Q 19.53125 74.21875 31.78125 74.21875 
z
" id="DejaVuSans-48"/>
       </defs>
       <use xlink:href="#DejaVuSans-48"/>
      </g>
     </g>
    </g>
    <g id="xtick_2">
     <g id="line2d_2">
      <g>
       <use style="stroke:#000000;stroke-width:0.8;" x="105.457939" xlink:href="#m914d929b03" y="288.430125"/>
      </g>
     </g>
     <g id="text_2">
      <!-- 500  -->
      <g transform="translate(94.325127 303.028562)scale(0.1 -0.1)">
       <defs>
        <path d="M 10.796875 72.90625 
L 49.515625 72.90625 
L 49.515625 64.59375 
L 19.828125 64.59375 
L 19.828125 46.734375 
Q 21.96875 47.46875 24.109375 47.828125 
Q 26.265625 48.1875 28.421875 48.1875 
Q 40.625 48.1875 47.75 41.5 
Q 54.890625 34.8125 54.890625 23.390625 
Q 54.890625 11.625 47.5625 5.09375 
Q 40.234375 -1.421875 26.90625 -1.421875 
Q 22.3125 -1.421875 17.546875 -0.640625 
Q 12.796875 0.140625 7.71875 1.703125 
L 7.71875 11.625 
Q 12.109375 9.234375 16.796875 8.0625 
Q 21.484375 6.890625 26.703125 6.890625 
Q 35.15625 6.890625 40.078125 11.328125 
Q 45.015625 15.765625 45.015625 23.390625 
Q 45.015625 31 40.078125 35.4375 
Q 35.15625 39.890625 26.703125 39.890625 
Q 22.75 39.890625 18.8125 39.015625 
Q 14.890625 38.140625 10.796875 36.28125 
z
" id="DejaVuSans-53"/>
        <path id="DejaVuSans-32"/>
       </defs>
       <use xlink:href="#DejaVuSans-53"/>
       <use x="63.623047" xlink:href="#DejaVuSans-48"/>
       <use x="127.246094" xlink:href="#DejaVuSans-48"/>
       <use x="190.869141" xlink:href="#DejaVuSans-32"/>
      </g>
     </g>
    </g>
    <g id="xtick_3">
     <g id="line2d_3">
      <g>
       <use style="stroke:#000000;stroke-width:0.8;" x="149.006503" xlink:href="#m914d929b03" y="288.430125"/>
      </g>
     </g>
     <g id="text_3">
      <!-- 1 k -->
      <g transform="translate(141.340878 303.028562)scale(0.1 -0.1)">
       <defs>
        <path d="M 12.40625 8.296875 
L 28.515625 8.296875 
L 28.515625 63.921875 
L 10.984375 60.40625 
L 10.984375 69.390625 
L 28.421875 72.90625 
L 38.28125 72.90625 
L 38.28125 8.296875 
L 54.390625 8.296875 
L 54.390625 0 
L 12.40625 0 
z
" id="DejaVuSans-49"/>
        <path d="M 9.078125 75.984375 
L 18.109375 75.984375 
L 18.109375 31.109375 
L 44.921875 54.6875 
L 56.390625 54.6875 
L 27.390625 29.109375 
L 57.625 0 
L 45.90625 0 
L 18.109375 26.703125 
L 18.109375 0 
L 9.078125 0 
z
" id="DejaVuSans-107"/>
       </defs>
       <use xlink:href="#DejaVuSans-49"/>
       <use x="63.623047" xlink:href="#DejaVuSans-32"/>
       <use x="95.410156" xlink:href="#DejaVuSans-107"/>
      </g>
     </g>
    </g>
    <g id="xtick_4">
     <g id="line2d_4">
      <g>
       <use style="stroke:#000000;stroke-width:0.8;" x="192.555067" xlink:href="#m914d929b03" y="288.430125"/>
      </g>
     </g>
     <g id="text_4">
      <!-- 1.5 k -->
      <g transform="translate(180.11913 303.028562)scale(0.1 -0.1)">
       <defs>
        <path d="M 10.6875 12.40625 
L 21 12.40625 
L 21 0 
L 10.6875 0 
z
" id="DejaVuSans-46"/>
       </defs>
       <use xlink:href="#DejaVuSans-49"/>
       <use x="63.623047" xlink:href="#DejaVuSans-46"/>
       <use x="95.410156" xlink:href="#DejaVuSans-53"/>
       <use x="159.033203" xlink:href="#DejaVuSans-32"/>
       <use x="190.820312" xlink:href="#DejaVuSans-107"/>
      </g>
     </g>
    </g>
    <g id="xtick_5">
     <g id="line2d_5">
      <g>
       <use style="stroke:#000000;stroke-width:0.8;" x="236.103631" xlink:href="#m914d929b03" y="288.430125"/>
      </g>
     </g>
     <g id="text_5">
      <!-- 2 k -->
      <g transform="translate(228.438006 303.028562)scale(0.1 -0.1)">
       <defs>
        <path d="M 19.1875 8.296875 
L 53.609375 8.296875 
L 53.609375 0 
L 7.328125 0 
L 7.328125 8.296875 
Q 12.9375 14.109375 22.625 23.890625 
Q 32.328125 33.6875 34.8125 36.53125 
Q 39.546875 41.84375 41.421875 45.53125 
Q 43.3125 49.21875 43.3125 52.78125 
Q 43.3125 58.59375 39.234375 62.25 
Q 35.15625 65.921875 28.609375 65.921875 
Q 23.96875 65.921875 18.8125 64.3125 
Q 13.671875 62.703125 7.8125 59.421875 
L 7.8125 69.390625 
Q 13.765625 71.78125 18.9375 73 
Q 24.125 74.21875 28.421875 74.21875 
Q 39.75 74.21875 46.484375 68.546875 
Q 53.21875 62.890625 53.21875 53.421875 
Q 53.21875 48.921875 51.53125 44.890625 
Q 49.859375 40.875 45.40625 35.40625 
Q 44.1875 33.984375 37.640625 27.21875 
Q 31.109375 20.453125 19.1875 8.296875 
z
" id="DejaVuSans-50"/>
       </defs>
       <use xlink:href="#DejaVuSans-50"/>
       <use x="63.623047" xlink:href="#DejaVuSans-32"/>
       <use x="95.410156" xlink:href="#DejaVuSans-107"/>
      </g>
     </g>
    </g>
    <g id="xtick_6">
     <g id="line2d_6">
      <g>
       <use style="stroke:#000000;stroke-width:0.8;" x="279.652196" xlink:href="#m914d929b03" y="288.430125"/>
      </g>
     </g>
     <g id="text_6">
      <!-- 2.5 k -->
      <g transform="translate(267.216258 303.028562)scale(0.1 -0.1)">
       <use xlink:href="#DejaVuSans-50"/>
       <use x="63.623047" xlink:href="#DejaVuSans-46"/>
       <use x="95.410156" xlink:href="#DejaVuSans-53"/>
       <use x="159.033203" xlink:href="#DejaVuSans-32"/>
       <use x="190.820312" xlink:href="#DejaVuSans-107"/>
      </g>
     </g>
    </g>
    <g id="xtick_7">
     <g id="line2d_7">
      <g>
       <use style="stroke:#000000;stroke-width:0.8;" x="323.20076" xlink:href="#m914d929b03" y="288.430125"/>
      </g>
     </g>
     <g id="text_7">
      <!-- 3 k -->
      <g transform="translate(315.535135 303.028562)scale(0.1 -0.1)">
       <defs>
        <path d="M 40.578125 39.3125 
Q 47.65625 37.796875 51.625 33 
Q 55.609375 28.21875 55.609375 21.1875 
Q 55.609375 10.40625 48.1875 4.484375 
Q 40.765625 -1.421875 27.09375 -1.421875 
Q 22.515625 -1.421875 17.65625 -0.515625 
Q 12.796875 0.390625 7.625 2.203125 
L 7.625 11.71875 
Q 11.71875 9.328125 16.59375 8.109375 
Q 21.484375 6.890625 26.8125 6.890625 
Q 36.078125 6.890625 40.9375 10.546875 
Q 45.796875 14.203125 45.796875 21.1875 
Q 45.796875 27.640625 41.28125 31.265625 
Q 36.765625 34.90625 28.71875 34.90625 
L 20.21875 34.90625 
L 20.21875 43.015625 
L 29.109375 43.015625 
Q 36.375 43.015625 40.234375 45.921875 
Q 44.09375 48.828125 44.09375 54.296875 
Q 44.09375 59.90625 40.109375 62.90625 
Q 36.140625 65.921875 28.71875 65.921875 
Q 24.65625 65.921875 20.015625 65.03125 
Q 15.375 64.15625 9.8125 62.3125 
L 9.8125 71.09375 
Q 15.4375 72.65625 20.34375 73.4375 
Q 25.25 74.21875 29.59375 74.21875 
Q 40.828125 74.21875 47.359375 69.109375 
Q 53.90625 64.015625 53.90625 55.328125 
Q 53.90625 49.265625 50.4375 45.09375 
Q 46.96875 40.921875 40.578125 39.3125 
z
" id="DejaVuSans-51"/>
       </defs>
       <use xlink:href="#DejaVuSans-51"/>
       <use x="63.623047" xlink:href="#DejaVuSans-32"/>
       <use x="95.410156" xlink:href="#DejaVuSans-107"/>
      </g>
     </g>
    </g>
    <g id="xtick_8">
     <g id="line2d_8">
      <g>
       <use style="stroke:#000000;stroke-width:0.8;" x="366.749324" xlink:href="#m914d929b03" y="288.430125"/>
      </g>
     </g>
     <g id="text_8">
      <!-- 3.5 k -->
      <g transform="translate(354.313386 303.028562)scale(0.1 -0.1)">
       <use xlink:href="#DejaVuSans-51"/>
       <use x="63.623047" xlink:href="#DejaVuSans-46"/>
       <use x="95.410156" xlink:href="#DejaVuSans-53"/>
       <use x="159.033203" xlink:href="#DejaVuSans-32"/>
       <use x="190.820312" xlink:href="#DejaVuSans-107"/>
      </g>
     </g>
    </g>
    <g id="xtick_9">
     <g id="line2d_9">
      <g>
       <use style="stroke:#000000;stroke-width:0.8;" x="410.297888" xlink:href="#m914d929b03" y="288.430125"/>
      </g>
     </g>
     <g id="text_9">
      <!-- 4 k -->
      <g transform="translate(402.632263 303.028562)scale(0.1 -0.1)">
       <defs>
        <path d="M 37.796875 64.3125 
L 12.890625 25.390625 
L 37.796875 25.390625 
z
M 35.203125 72.90625 
L 47.609375 72.90625 
L 47.609375 25.390625 
L 58.015625 25.390625 
L 58.015625 17.1875 
L 47.609375 17.1875 
L 47.609375 0 
L 37.796875 0 
L 37.796875 17.1875 
L 4.890625 17.1875 
L 4.890625 26.703125 
z
" id="DejaVuSans-52"/>
       </defs>
       <use xlink:href="#DejaVuSans-52"/>
       <use x="63.623047" xlink:href="#DejaVuSans-32"/>
       <use x="95.410156" xlink:href="#DejaVuSans-107"/>
      </g>
     </g>
    </g>
    <g id="text_10">
     <!-- Amount of objects in table -->
     <g transform="translate(174.410781 316.706687)scale(0.1 -0.1)">
      <defs>
       <path d="M 34.1875 63.1875 
L 20.796875 26.90625 
L 47.609375 26.90625 
z
M 28.609375 72.90625 
L 39.796875 72.90625 
L 67.578125 0 
L 57.328125 0 
L 50.6875 18.703125 
L 17.828125 18.703125 
L 11.1875 0 
L 0.78125 0 
z
" id="DejaVuSans-65"/>
       <path d="M 52 44.1875 
Q 55.375 50.25 60.0625 53.125 
Q 64.75 56 71.09375 56 
Q 79.640625 56 84.28125 50.015625 
Q 88.921875 44.046875 88.921875 33.015625 
L 88.921875 0 
L 79.890625 0 
L 79.890625 32.71875 
Q 79.890625 40.578125 77.09375 44.375 
Q 74.3125 48.1875 68.609375 48.1875 
Q 61.625 48.1875 57.5625 43.546875 
Q 53.515625 38.921875 53.515625 30.90625 
L 53.515625 0 
L 44.484375 0 
L 44.484375 32.71875 
Q 44.484375 40.625 41.703125 44.40625 
Q 38.921875 48.1875 33.109375 48.1875 
Q 26.21875 48.1875 22.15625 43.53125 
Q 18.109375 38.875 18.109375 30.90625 
L 18.109375 0 
L 9.078125 0 
L 9.078125 54.6875 
L 18.109375 54.6875 
L 18.109375 46.1875 
Q 21.1875 51.21875 25.484375 53.609375 
Q 29.78125 56 35.6875 56 
Q 41.65625 56 45.828125 52.96875 
Q 50 49.953125 52 44.1875 
z
" id="DejaVuSans-109"/>
       <path d="M 30.609375 48.390625 
Q 23.390625 48.390625 19.1875 42.75 
Q 14.984375 37.109375 14.984375 27.296875 
Q 14.984375 17.484375 19.15625 11.84375 
Q 23.34375 6.203125 30.609375 6.203125 
Q 37.796875 6.203125 41.984375 11.859375 
Q 46.1875 17.53125 46.1875 27.296875 
Q 46.1875 37.015625 41.984375 42.703125 
Q 37.796875 48.390625 30.609375 48.390625 
z
M 30.609375 56 
Q 42.328125 56 49.015625 48.375 
Q 55.71875 40.765625 55.71875 27.296875 
Q 55.71875 13.875 49.015625 6.21875 
Q 42.328125 -1.421875 30.609375 -1.421875 
Q 18.84375 -1.421875 12.171875 6.21875 
Q 5.515625 13.875 5.515625 27.296875 
Q 5.515625 40.765625 12.171875 48.375 
Q 18.84375 56 30.609375 56 
z
" id="DejaVuSans-111"/>
       <path d="M 8.5 21.578125 
L 8.5 54.6875 
L 17.484375 54.6875 
L 17.484375 21.921875 
Q 17.484375 14.15625 20.5 10.265625 
Q 23.53125 6.390625 29.59375 6.390625 
Q 36.859375 6.390625 41.078125 11.03125 
Q 45.3125 15.671875 45.3125 23.6875 
L 45.3125 54.6875 
L 54.296875 54.6875 
L 54.296875 0 
L 45.3125 0 
L 45.3125 8.40625 
Q 42.046875 3.421875 37.71875 1 
Q 33.40625 -1.421875 27.6875 -1.421875 
Q 18.265625 -1.421875 13.375 4.4375 
Q 8.5 10.296875 8.5 21.578125 
z
M 31.109375 56 
z
" id="DejaVuSans-117"/>
       <path d="M 54.890625 33.015625 
L 54.890625 0 
L 45.90625 0 
L 45.90625 32.71875 
Q 45.90625 40.484375 42.875 44.328125 
Q 39.84375 48.1875 33.796875 48.1875 
Q 26.515625 48.1875 22.3125 43.546875 
Q 18.109375 38.921875 18.109375 30.90625 
L 18.109375 0 
L 9.078125 0 
L 9.078125 54.6875 
L 18.109375 54.6875 
L 18.109375 46.1875 
Q 21.34375 51.125 25.703125 53.5625 
Q 30.078125 56 35.796875 56 
Q 45.21875 56 50.046875 50.171875 
Q 54.890625 44.34375 54.890625 33.015625 
z
" id="DejaVuSans-110"/>
       <path d="M 18.3125 70.21875 
L 18.3125 54.6875 
L 36.8125 54.6875 
L 36.8125 47.703125 
L 18.3125 47.703125 
L 18.3125 18.015625 
Q 18.3125 11.328125 20.140625 9.421875 
Q 21.96875 7.515625 27.59375 7.515625 
L 36.8125 7.515625 
L 36.8125 0 
L 27.59375 0 
Q 17.1875 0 13.234375 3.875 
Q 9.28125 7.765625 9.28125 18.015625 
L 9.28125 47.703125 
L 2.6875 47.703125 
L 2.6875 54.6875 
L 9.28125 54.6875 
L 9.28125 70.21875 
z
" id="DejaVuSans-116"/>
       <path d="M 37.109375 75.984375 
L 37.109375 68.5 
L 28.515625 68.5 
Q 23.6875 68.5 21.796875 66.546875 
Q 19.921875 64.59375 19.921875 59.515625 
L 19.921875 54.6875 
L 34.71875 54.6875 
L 34.71875 47.703125 
L 19.921875 47.703125 
L 19.921875 0 
L 10.890625 0 
L 10.890625 47.703125 
L 2.296875 47.703125 
L 2.296875 54.6875 
L 10.890625 54.6875 
L 10.890625 58.5 
Q 10.890625 67.625 15.140625 71.796875 
Q 19.390625 75.984375 28.609375 75.984375 
z
" id="DejaVuSans-102"/>
       <path d="M 48.6875 27.296875 
Q 48.6875 37.203125 44.609375 42.84375 
Q 40.53125 48.484375 33.40625 48.484375 
Q 26.265625 48.484375 22.1875 42.84375 
Q 18.109375 37.203125 18.109375 27.296875 
Q 18.109375 17.390625 22.1875 11.75 
Q 26.265625 6.109375 33.40625 6.109375 
Q 40.53125 6.109375 44.609375 11.75 
Q 48.6875 17.390625 48.6875 27.296875 
z
M 18.109375 46.390625 
Q 20.953125 51.265625 25.265625 53.625 
Q 29.59375 56 35.59375 56 
Q 45.5625 56 51.78125 48.09375 
Q 58.015625 40.1875 58.015625 27.296875 
Q 58.015625 14.40625 51.78125 6.484375 
Q 45.5625 -1.421875 35.59375 -1.421875 
Q 29.59375 -1.421875 25.265625 0.953125 
Q 20.953125 3.328125 18.109375 8.203125 
L 18.109375 0 
L 9.078125 0 
L 9.078125 75.984375 
L 18.109375 75.984375 
z
" id="DejaVuSans-98"/>
       <path d="M 9.421875 54.6875 
L 18.40625 54.6875 
L 18.40625 -0.984375 
Q 18.40625 -11.421875 14.421875 -16.109375 
Q 10.453125 -20.796875 1.609375 -20.796875 
L -1.8125 -20.796875 
L -1.8125 -13.1875 
L 0.59375 -13.1875 
Q 5.71875 -13.1875 7.5625 -10.8125 
Q 9.421875 -8.453125 9.421875 -0.984375 
z
M 9.421875 75.984375 
L 18.40625 75.984375 
L 18.40625 64.59375 
L 9.421875 64.59375 
z
" id="DejaVuSans-106"/>
       <path d="M 56.203125 29.59375 
L 56.203125 25.203125 
L 14.890625 25.203125 
Q 15.484375 15.921875 20.484375 11.0625 
Q 25.484375 6.203125 34.421875 6.203125 
Q 39.59375 6.203125 44.453125 7.46875 
Q 49.3125 8.734375 54.109375 11.28125 
L 54.109375 2.78125 
Q 49.265625 0.734375 44.1875 -0.34375 
Q 39.109375 -1.421875 33.890625 -1.421875 
Q 20.796875 -1.421875 13.15625 6.1875 
Q 5.515625 13.8125 5.515625 26.8125 
Q 5.515625 40.234375 12.765625 48.109375 
Q 20.015625 56 32.328125 56 
Q 43.359375 56 49.78125 48.890625 
Q 56.203125 41.796875 56.203125 29.59375 
z
M 47.21875 32.234375 
Q 47.125 39.59375 43.09375 43.984375 
Q 39.0625 48.390625 32.421875 48.390625 
Q 24.90625 48.390625 20.390625 44.140625 
Q 15.875 39.890625 15.1875 32.171875 
z
" id="DejaVuSans-101"/>
       <path d="M 48.78125 52.59375 
L 48.78125 44.1875 
Q 44.96875 46.296875 41.140625 47.34375 
Q 37.3125 48.390625 33.40625 48.390625 
Q 24.65625 48.390625 19.8125 42.84375 
Q 14.984375 37.3125 14.984375 27.296875 
Q 14.984375 17.28125 19.8125 11.734375 
Q 24.65625 6.203125 33.40625 6.203125 
Q 37.3125 6.203125 41.140625 7.25 
Q 44.96875 8.296875 48.78125 10.40625 
L 48.78125 2.09375 
Q 45.015625 0.34375 40.984375 -0.53125 
Q 36.96875 -1.421875 32.421875 -1.421875 
Q 20.0625 -1.421875 12.78125 6.34375 
Q 5.515625 14.109375 5.515625 27.296875 
Q 5.515625 40.671875 12.859375 48.328125 
Q 20.21875 56 33.015625 56 
Q 37.15625 56 41.109375 55.140625 
Q 45.0625 54.296875 48.78125 52.59375 
z
" id="DejaVuSans-99"/>
       <path d="M 44.28125 53.078125 
L 44.28125 44.578125 
Q 40.484375 46.53125 36.375 47.5 
Q 32.28125 48.484375 27.875 48.484375 
Q 21.1875 48.484375 17.84375 46.4375 
Q 14.5 44.390625 14.5 40.28125 
Q 14.5 37.15625 16.890625 35.375 
Q 19.28125 33.59375 26.515625 31.984375 
L 29.59375 31.296875 
Q 39.15625 29.25 43.1875 25.515625 
Q 47.21875 21.78125 47.21875 15.09375 
Q 47.21875 7.46875 41.1875 3.015625 
Q 35.15625 -1.421875 24.609375 -1.421875 
Q 20.21875 -1.421875 15.453125 -0.5625 
Q 10.6875 0.296875 5.421875 2 
L 5.421875 11.28125 
Q 10.40625 8.6875 15.234375 7.390625 
Q 20.0625 6.109375 24.8125 6.109375 
Q 31.15625 6.109375 34.5625 8.28125 
Q 37.984375 10.453125 37.984375 14.40625 
Q 37.984375 18.0625 35.515625 20.015625 
Q 33.0625 21.96875 24.703125 23.78125 
L 21.578125 24.515625 
Q 13.234375 26.265625 9.515625 29.90625 
Q 5.8125 33.546875 5.8125 39.890625 
Q 5.8125 47.609375 11.28125 51.796875 
Q 16.75 56 26.8125 56 
Q 31.78125 56 36.171875 55.265625 
Q 40.578125 54.546875 44.28125 53.078125 
z
" id="DejaVuSans-115"/>
       <path d="M 9.421875 54.6875 
L 18.40625 54.6875 
L 18.40625 0 
L 9.421875 0 
z
M 9.421875 75.984375 
L 18.40625 75.984375 
L 18.40625 64.59375 
L 9.421875 64.59375 
z
" id="DejaVuSans-105"/>
       <path d="M 34.28125 27.484375 
Q 23.390625 27.484375 19.1875 25 
Q 14.984375 22.515625 14.984375 16.5 
Q 14.984375 11.71875 18.140625 8.90625 
Q 21.296875 6.109375 26.703125 6.109375 
Q 34.1875 6.109375 38.703125 11.40625 
Q 43.21875 16.703125 43.21875 25.484375 
L 43.21875 27.484375 
z
M 52.203125 31.203125 
L 52.203125 0 
L 43.21875 0 
L 43.21875 8.296875 
Q 40.140625 3.328125 35.546875 0.953125 
Q 30.953125 -1.421875 24.3125 -1.421875 
Q 15.921875 -1.421875 10.953125 3.296875 
Q 6 8.015625 6 15.921875 
Q 6 25.140625 12.171875 29.828125 
Q 18.359375 34.515625 30.609375 34.515625 
L 43.21875 34.515625 
L 43.21875 35.40625 
Q 43.21875 41.609375 39.140625 45 
Q 35.0625 48.390625 27.6875 48.390625 
Q 23 48.390625 18.546875 47.265625 
Q 14.109375 46.140625 10.015625 43.890625 
L 10.015625 52.203125 
Q 14.9375 54.109375 19.578125 55.046875 
Q 24.21875 56 28.609375 56 
Q 40.484375 56 46.34375 49.84375 
Q 52.203125 43.703125 52.203125 31.203125 
z
" id="DejaVuSans-97"/>
       <path d="M 9.421875 75.984375 
L 18.40625 75.984375 
L 18.40625 0 
L 9.421875 0 
z
" id="DejaVuSans-108"/>
      </defs>
      <use xlink:href="#DejaVuSans-65"/>
      <use x="68.408203" xlink:href="#DejaVuSans-109"/>
      <use x="165.820312" xlink:href="#DejaVuSans-111"/>
      <use x="227.001953" xlink:href="#DejaVuSans-117"/>
      <use x="290.380859" xlink:href="#DejaVuSans-110"/>
      <use x="353.759766" xlink:href="#DejaVuSans-116"/>
      <use x="392.96875" xlink:href="#DejaVuSans-32"/>
      <use x="424.755859" xlink:href="#DejaVuSans-111"/>
      <use x="485.9375" xlink:href="#DejaVuSans-102"/>
      <use x="521.142578" xlink:href="#DejaVuSans-32"/>
      <use x="552.929688" xlink:href="#DejaVuSans-111"/>
      <use x="614.111328" xlink:href="#DejaVuSans-98"/>
      <use x="677.587891" xlink:href="#DejaVuSans-106"/>
      <use x="705.371094" xlink:href="#DejaVuSans-101"/>
      <use x="766.894531" xlink:href="#DejaVuSans-99"/>
      <use x="821.875" xlink:href="#DejaVuSans-116"/>
      <use x="861.083984" xlink:href="#DejaVuSans-115"/>
      <use x="913.183594" xlink:href="#DejaVuSans-32"/>
      <use x="944.970703" xlink:href="#DejaVuSans-105"/>
      <use x="972.753906" xlink:href="#DejaVuSans-110"/>
      <use x="1036.132812" xlink:href="#DejaVuSans-32"/>
      <use x="1067.919922" xlink:href="#DejaVuSans-116"/>
      <use x="1107.128906" xlink:href="#DejaVuSans-97"/>
      <use x="1168.408203" xlink:href="#DejaVuSans-98"/>
      <use x="1231.884766" xlink:href="#DejaVuSans-108"/>
      <use x="1259.667969" xlink:href="#DejaVuSans-101"/>
     </g>
    </g>
   </g>
   <g id="matplotlib.axis_2">
    <g id="ytick_1">
     <g id="line2d_10">
      <defs>
       <path d="M 0 0 
L -3.5 0 
" id="mb434c63000" style="stroke:#000000;stroke-width:0.8;"/>
      </defs>
      <g>
       <use style="stroke:#000000;stroke-width:0.8;" x="61.909375" xlink:href="#mb434c63000" y="288.430125"/>
      </g>
     </g>
     <g id="text_11">
      <!-- 0 -->
      <g transform="translate(48.546875 292.229344)scale(0.1 -0.1)">
       <use xlink:href="#DejaVuSans-48"/>
      </g>
     </g>
    </g>
    <g id="ytick_2">
     <g id="line2d_11">
      <g>
       <use style="stroke:#000000;stroke-width:0.8;" x="61.909375" xlink:href="#mb434c63000" y="241.920355"/>
      </g>
     </g>
     <g id="text_12">
      <!-- 500 µs -->
      <g transform="translate(21.071875 245.719574)scale(0.1 -0.1)">
       <defs>
        <path d="M 8.5 -20.796875 
L 8.5 54.6875 
L 17.484375 54.6875 
L 17.484375 20.703125 
Q 17.484375 13.625 20.84375 10 
Q 24.21875 6.390625 30.8125 6.390625 
Q 38.03125 6.390625 41.671875 10.484375 
Q 45.3125 14.59375 45.3125 22.796875 
L 45.3125 54.6875 
L 54.296875 54.6875 
L 54.296875 12.59375 
Q 54.296875 9.671875 55.140625 8.28125 
Q 56 6.890625 57.8125 6.890625 
Q 58.25 6.890625 59.03125 7.15625 
Q 59.8125 7.421875 61.1875 8.015625 
L 61.1875 0.78125 
Q 59.1875 -0.34375 57.390625 -0.875 
Q 55.609375 -1.421875 53.90625 -1.421875 
Q 50.53125 -1.421875 48.53125 0.484375 
Q 46.53125 2.390625 45.796875 6.296875 
Q 43.359375 2.4375 39.8125 0.5 
Q 36.28125 -1.421875 31.5 -1.421875 
Q 26.515625 -1.421875 23.015625 0.484375 
Q 19.53125 2.390625 17.484375 6.203125 
L 17.484375 -20.796875 
z
" id="DejaVuSans-181"/>
       </defs>
       <use xlink:href="#DejaVuSans-53"/>
       <use x="63.623047" xlink:href="#DejaVuSans-48"/>
       <use x="127.246094" xlink:href="#DejaVuSans-48"/>
       <use x="190.869141" xlink:href="#DejaVuSans-32"/>
       <use x="222.65625" xlink:href="#DejaVuSans-181"/>
       <use x="286.279297" xlink:href="#DejaVuSans-115"/>
      </g>
     </g>
    </g>
    <g id="ytick_3">
     <g id="line2d_12">
      <g>
       <use style="stroke:#000000;stroke-width:0.8;" x="61.909375" xlink:href="#mb434c63000" y="195.410585"/>
      </g>
     </g>
     <g id="text_13">
      <!-- 1 ms -->
      <g transform="translate(30.41875 199.209804)scale(0.1 -0.1)">
       <use xlink:href="#DejaVuSans-49"/>
       <use x="63.623047" xlink:href="#DejaVuSans-32"/>
       <use x="95.410156" xlink:href="#DejaVuSans-109"/>
       <use x="192.822266" xlink:href="#DejaVuSans-115"/>
      </g>
     </g>
    </g>
    <g id="ytick_4">
     <g id="line2d_13">
      <g>
       <use style="stroke:#000000;stroke-width:0.8;" x="61.909375" xlink:href="#mb434c63000" y="148.900815"/>
      </g>
     </g>
     <g id="text_14">
      <!-- 1.5 ms -->
      <g transform="translate(20.878125 152.700034)scale(0.1 -0.1)">
       <use xlink:href="#DejaVuSans-49"/>
       <use x="63.623047" xlink:href="#DejaVuSans-46"/>
       <use x="95.410156" xlink:href="#DejaVuSans-53"/>
       <use x="159.033203" xlink:href="#DejaVuSans-32"/>
       <use x="190.820312" xlink:href="#DejaVuSans-109"/>
       <use x="288.232422" xlink:href="#DejaVuSans-115"/>
      </g>
     </g>
    </g>
    <g id="ytick_5">
     <g id="line2d_14">
      <g>
       <use style="stroke:#000000;stroke-width:0.8;" x="61.909375" xlink:href="#mb434c63000" y="102.391045"/>
      </g>
     </g>
     <g id="text_15">
      <!-- 2 ms -->
      <g transform="translate(30.41875 106.190264)scale(0.1 -0.1)">
       <use xlink:href="#DejaVuSans-50"/>
       <use x="63.623047" xlink:href="#DejaVuSans-32"/>
       <use x="95.410156" xlink:href="#DejaVuSans-109"/>
       <use x="192.822266" xlink:href="#DejaVuSans-115"/>
      </g>
     </g>
    </g>
    <g id="ytick_6">
     <g id="line2d_15">
      <g>
       <use style="stroke:#000000;stroke-width:0.8;" x="61.909375" xlink:href="#mb434c63000" y="55.881275"/>
      </g>
     </g>
     <g id="text_16">
      <!-- 2.5 ms -->
      <g transform="translate(20.878125 59.680494)scale(0.1 -0.1)">
       <use xlink:href="#DejaVuSans-50"/>
       <use x="63.623047" xlink:href="#DejaVuSans-46"/>
       <use x="95.410156" xlink:href="#DejaVuSans-53"/>
       <use x="159.033203" xlink:href="#DejaVuSans-32"/>
       <use x="190.820312" xlink:href="#DejaVuSans-109"/>
       <use x="288.232422" xlink:href="#DejaVuSans-115"/>
      </g>
     </g>
    </g>
    <g id="text_17">
     <!-- Read latency (s) -->
     <g transform="translate(14.798438 195.98975)rotate(-90)scale(0.1 -0.1)">
      <defs>
       <path d="M 44.390625 34.1875 
Q 47.5625 33.109375 50.5625 29.59375 
Q 53.5625 26.078125 56.59375 19.921875 
L 66.609375 0 
L 56 0 
L 46.6875 18.703125 
Q 43.0625 26.03125 39.671875 28.421875 
Q 36.28125 30.8125 30.421875 30.8125 
L 19.671875 30.8125 
L 19.671875 0 
L 9.8125 0 
L 9.8125 72.90625 
L 32.078125 72.90625 
Q 44.578125 72.90625 50.734375 67.671875 
Q 56.890625 62.453125 56.890625 51.90625 
Q 56.890625 45.015625 53.6875 40.46875 
Q 50.484375 35.9375 44.390625 34.1875 
z
M 19.671875 64.796875 
L 19.671875 38.921875 
L 32.078125 38.921875 
Q 39.203125 38.921875 42.84375 42.21875 
Q 46.484375 45.515625 46.484375 51.90625 
Q 46.484375 58.296875 42.84375 61.546875 
Q 39.203125 64.796875 32.078125 64.796875 
z
" id="DejaVuSans-82"/>
       <path d="M 45.40625 46.390625 
L 45.40625 75.984375 
L 54.390625 75.984375 
L 54.390625 0 
L 45.40625 0 
L 45.40625 8.203125 
Q 42.578125 3.328125 38.25 0.953125 
Q 33.9375 -1.421875 27.875 -1.421875 
Q 17.96875 -1.421875 11.734375 6.484375 
Q 5.515625 14.40625 5.515625 27.296875 
Q 5.515625 40.1875 11.734375 48.09375 
Q 17.96875 56 27.875 56 
Q 33.9375 56 38.25 53.625 
Q 42.578125 51.265625 45.40625 46.390625 
z
M 14.796875 27.296875 
Q 14.796875 17.390625 18.875 11.75 
Q 22.953125 6.109375 30.078125 6.109375 
Q 37.203125 6.109375 41.296875 11.75 
Q 45.40625 17.390625 45.40625 27.296875 
Q 45.40625 37.203125 41.296875 42.84375 
Q 37.203125 48.484375 30.078125 48.484375 
Q 22.953125 48.484375 18.875 42.84375 
Q 14.796875 37.203125 14.796875 27.296875 
z
" id="DejaVuSans-100"/>
       <path d="M 32.171875 -5.078125 
Q 28.375 -14.84375 24.75 -17.8125 
Q 21.140625 -20.796875 15.09375 -20.796875 
L 7.90625 -20.796875 
L 7.90625 -13.28125 
L 13.1875 -13.28125 
Q 16.890625 -13.28125 18.9375 -11.515625 
Q 21 -9.765625 23.484375 -3.21875 
L 25.09375 0.875 
L 2.984375 54.6875 
L 12.5 54.6875 
L 29.59375 11.921875 
L 46.6875 54.6875 
L 56.203125 54.6875 
z
" id="DejaVuSans-121"/>
       <path d="M 31 75.875 
Q 24.46875 64.65625 21.28125 53.65625 
Q 18.109375 42.671875 18.109375 31.390625 
Q 18.109375 20.125 21.3125 9.0625 
Q 24.515625 -2 31 -13.1875 
L 23.1875 -13.1875 
Q 15.875 -1.703125 12.234375 9.375 
Q 8.59375 20.453125 8.59375 31.390625 
Q 8.59375 42.28125 12.203125 53.3125 
Q 15.828125 64.359375 23.1875 75.875 
z
" id="DejaVuSans-40"/>
       <path d="M 8.015625 75.875 
L 15.828125 75.875 
Q 23.140625 64.359375 26.78125 53.3125 
Q 30.421875 42.28125 30.421875 31.390625 
Q 30.421875 20.453125 26.78125 9.375 
Q 23.140625 -1.703125 15.828125 -13.1875 
L 8.015625 -13.1875 
Q 14.5 -2 17.703125 9.0625 
Q 20.90625 20.125 20.90625 31.390625 
Q 20.90625 42.671875 17.703125 53.65625 
Q 14.5 64.65625 8.015625 75.875 
z
" id="DejaVuSans-41"/>
      </defs>
      <use xlink:href="#DejaVuSans-82"/>
      <use x="64.982422" xlink:href="#DejaVuSans-101"/>
      <use x="126.505859" xlink:href="#DejaVuSans-97"/>
      <use x="187.785156" xlink:href="#DejaVuSans-100"/>
      <use x="251.261719" xlink:href="#DejaVuSans-32"/>
      <use x="283.048828" xlink:href="#DejaVuSans-108"/>
      <use x="310.832031" xlink:href="#DejaVuSans-97"/>
      <use x="372.111328" xlink:href="#DejaVuSans-116"/>
      <use x="411.320312" xlink:href="#DejaVuSans-101"/>
      <use x="472.84375" xlink:href="#DejaVuSans-110"/>
      <use x="536.222656" xlink:href="#DejaVuSans-99"/>
      <use x="591.203125" xlink:href="#DejaVuSans-121"/>
      <use x="650.382812" xlink:href="#DejaVuSans-32"/>
      <use x="682.169922" xlink:href="#DejaVuSans-40"/>
      <use x="721.183594" xlink:href="#DejaVuSans-115"/>
      <use x="773.283203" xlink:href="#DejaVuSans-41"/>
     </g>
    </g>
   </g>
   <g id="line2d_16">
    <path clip-path="url(#pd9bb61a150)" d="M 147.264561 252.513922 
L 149.006503 252.384496 
L 151.183931 252.257571 
L 152.925874 252.365957 
L 153.36136 252.218334 
L 154.232331 252.284071 
L 154.667817 252.470818 
L 155.103302 252.463652 
L 155.974273 252.697711 
L 156.409759 252.752871 
L 157.28073 252.574768 
L 159.893644 252.511761 
L 161.200101 252.658929 
L 162.071072 252.71261 
L 162.506558 252.80132 
L 163.813015 252.617531 
L 164.248501 252.656996 
L 164.683986 252.985792 
L 167.732386 253.026849 
L 168.603357 253.245327 
L 169.038843 253.195627 
L 169.474328 253.275125 
L 171.216271 253.153773 
L 174.26467 253.262728 
L 176.877584 253.173335 
L 178.619527 253.121019 
L 181.667926 253.163099 
L 182.538898 253.059718 
L 183.409869 253.145016 
L 186.893754 252.957815 
L 187.32924 252.9842 
L 188.200211 253.209957 
L 189.071182 253.232475 
L 190.377639 253.201995 
L 191.684096 253.519419 
L 192.990553 253.534659 
L 193.426039 253.678529 
L 193.861524 253.669317 
L 194.29701 253.842757 
L 201.26478 253.823537 
L 201.700266 253.934879 
L 202.571237 253.812732 
L 204.31318 253.811026 
L 204.748665 253.813301 
L 205.184151 253.582085 
L 206.490608 253.675686 
L 206.926093 253.786119 
L 211.716436 253.804657 
L 214.764835 253.746882 
L 216.506778 253.658399 
L 216.942263 253.927601 
L 218.684206 253.848671 
L 220.426148 253.921345 
L 221.732605 253.632582 
L 222.168091 253.708895 
L 223.039062 253.513619 
L 226.087462 253.572191 
L 226.958433 253.696613 
L 230.442318 253.641339 
L 233.926203 254.024272 
L 234.361689 253.840369 
L 235.23266 253.728912 
L 235.668146 253.66056 
L 236.974603 253.741081 
L 240.458488 253.693883 
L 241.329459 253.666133 
L 242.20043 253.8456 
L 244.377859 254.080569 
L 246.990772 254.094899 
L 247.861744 254.166436 
L 249.603686 254.35796 
L 250.474658 254.183155 
L 251.345629 254.20647 
L 252.652086 253.956943 
L 254.394028 253.974344 
L 255.700485 254.009373 
L 257.006942 253.87881 
L 257.442428 253.851173 
L 257.877914 253.650324 
L 259.619856 253.587999 
L 260.926313 253.458118 
L 262.668256 253.617114 
L 263.539227 253.722543 
L 267.894083 253.615181 
L 268.765055 253.41183 
L 270.071511 253.511231 
L 270.506997 253.380212 
L 271.813454 253.363608 
L 272.24894 253.231452 
L 273.555397 253.248512 
L 276.16831 253.082805 
L 276.603796 252.838965 
L 277.474767 252.822361 
L 278.345739 252.565783 
L 279.652196 252.538488 
L 280.087681 252.347192 
L 280.523167 252.544174 
L 283.136081 252.580909 
L 284.878023 252.567603 
L 285.748995 252.409403 
L 286.619966 252.361294 
L 287.490937 252.395641 
L 287.926423 252.158739 
L 289.668365 252.108584 
L 290.103851 252.317508 
L 292.281279 252.274063 
L 293.15225 252.066389 
L 296.20065 252.077194 
L 297.942592 251.898067 
L 299.684535 251.999857 
L 300.120021 252.013845 
L 300.990992 251.861332 
L 302.732935 251.923998 
L 303.16842 251.827668 
L 303.603906 251.87987 
L 304.910363 251.755789 
L 305.781334 251.75795 
L 306.21682 251.753401 
L 306.652305 251.895338 
L 308.829734 251.742369 
L 310.13619 251.385594 
L 311.007162 251.298135 
L 315.362018 251.145053 
L 315.797504 251.01176 
L 317.539446 251.056456 
L 317.974932 250.875396 
L 318.845903 250.885859 
L 319.281389 250.998226 
L 319.716875 250.993108 
L 320.587846 251.209993 
L 322.765274 251.05475 
L 323.636245 251.231261 
L 324.942702 251.276299 
L 325.378188 251.08796 
L 326.249159 251.015172 
L 326.684645 251.034847 
L 327.555616 250.812389 
L 329.733044 250.774289 
L 331.039501 250.495079 
L 334.523386 250.485412 
L 334.958872 250.710145 
L 336.265329 250.658738 
L 337.571786 250.884836 
L 340.1847 250.867321 
L 340.620185 250.697179 
L 341.491157 250.786117 
L 342.362128 250.734369 
L 342.797614 250.934764 
L 343.668585 250.922936 
L 346.281499 250.989355 
L 347.587956 250.923846 
L 349.765384 250.819895 
L 350.200869 250.671476 
L 352.813783 250.585836 
L 353.249269 250.788847 
L 358.475097 250.774744 
L 358.910582 250.817621 
L 359.346068 250.6783 
L 359.781554 250.680574 
L 360.217039 250.820805 
L 360.652525 250.705482 
L 361.08801 250.736303 
L 361.523496 250.991629 
L 362.394467 250.98037 
L 363.265439 251.213633 
L 364.571896 251.146304 
L 365.007381 251.322587 
L 369.362238 251.224778 
L 370.233209 251.266518 
L 371.10418 251.392191 
L 371.539666 251.254235 
L 372.410637 251.327591 
L 372.846123 251.564607 
L 373.717094 251.605778 
L 374.15258 251.421988 
L 375.023551 251.345675 
L 375.894522 251.179513 
L 377.200979 251.174054 
L 378.07195 251.398105 
L 380.249379 251.341808 
L 381.12035 251.33305 
L 384.168749 251.404701 
L 385.039721 251.391508 
L 386.346178 251.541634 
L 391.13652 251.478171 
L 391.572005 251.395489 
L 394.620405 251.781493 
L 395.491376 251.984958 
L 397.668804 252.027607 
L 398.539776 252.087316 
L 402.023661 252.079013 
L 402.023661 252.079013 
" style="fill:none;stroke:#1f77b4;stroke-linecap:square;stroke-opacity:0.8;stroke-width:1.5;"/>
   </g>
   <g id="line2d_17">
    <path clip-path="url(#pd9bb61a150)" d="M 147.264561 152.527808 
L 147.700046 152.313766 
L 148.135532 152.337763 
L 148.571018 151.936861 
L 149.006503 151.697798 
L 149.441989 151.612613 
L 149.877475 151.995432 
L 150.748446 151.322257 
L 151.183931 151.59362 
L 152.054903 151.011885 
L 152.490388 150.850955 
L 152.925874 150.818087 
L 153.36136 150.476893 
L 153.796845 149.643584 
L 154.667817 149.271683 
L 155.103302 147.695028 
L 156.845245 146.917106 
L 157.28073 146.793935 
L 157.716216 147.039367 
L 158.587187 146.706931 
L 159.022673 146.124968 
L 159.458159 145.765919 
L 159.893644 144.991637 
L 162.071072 144.183576 
L 162.506558 143.922563 
L 162.942044 143.912669 
L 165.119472 143.155219 
L 165.554958 143.006686 
L 166.425929 142.548008 
L 166.861415 141.840486 
L 167.2969 141.893144 
L 167.732386 141.686835 
L 168.603357 141.43947 
L 169.038843 141.739265 
L 169.474328 141.615412 
L 169.909814 140.928248 
L 170.3453 140.868766 
L 171.651757 139.735549 
L 172.522728 139.545959 
L 173.393699 139.167689 
L 173.829185 139.459296 
L 174.26467 139.339537 
L 174.700156 138.711513 
L 175.135642 138.5648 
L 175.571127 137.977605 
L 176.877584 137.535532 
L 177.31307 137.751166 
L 178.619527 137.119276 
L 181.232441 135.987991 
L 181.667926 136.549824 
L 182.103412 136.253326 
L 182.538898 136.174397 
L 182.974383 136.464866 
L 183.409869 136.466004 
L 183.845355 135.976846 
L 184.28084 136.24855 
L 185.151811 135.863115 
L 185.587297 136.176672 
L 186.022783 136.170644 
L 186.458268 135.795786 
L 186.893754 135.795558 
L 187.32924 134.585231 
L 188.200211 134.196611 
L 190.813125 133.132428 
L 191.24861 132.822511 
L 191.684096 132.728227 
L 192.119582 132.311857 
L 192.555067 132.198922 
L 192.990553 131.140085 
L 193.426039 131.08538 
L 193.861524 130.846658 
L 194.732496 130.628977 
L 196.474438 129.692514 
L 196.909924 129.618475 
L 197.780895 129.231789 
L 198.216381 129.11874 
L 199.958323 128.225836 
L 200.393809 128.091406 
L 200.829295 127.70381 
L 201.700266 127.318147 
L 202.135751 127.440067 
L 202.571237 126.710254 
L 203.006723 126.820687 
L 204.31318 126.313901 
L 205.184151 126.06881 
L 205.619637 125.600579 
L 206.055122 125.459779 
L 206.490608 125.561455 
L 206.926093 125.323416 
L 207.361579 125.26075 
L 207.797065 124.800707 
L 209.103522 124.339527 
L 209.974493 123.927934 
L 210.845464 123.748693 
L 213.022892 122.827243 
L 213.893864 122.613542 
L 214.329349 121.830389 
L 215.200321 121.30097 
L 217.377749 121.34669 
L 217.813235 121.420502 
L 219.119691 120.830805 
L 219.555177 120.573431 
L 220.861634 120.968875 
L 221.732605 120.464022 
L 222.168091 119.855219 
L 222.603577 119.468533 
L 223.474548 119.182499 
L 223.910033 119.328757 
L 224.781005 118.970276 
L 226.087462 118.449615 
L 226.522947 118.254338 
L 226.958433 118.594963 
L 227.393919 118.58177 
L 230.006832 117.86424 
L 230.442318 117.86515 
L 231.748775 117.393962 
L 232.184261 117.655316 
L 233.926203 117.065278 
L 234.361689 116.230036 
L 234.797175 116.037944 
L 235.668146 115.972776 
L 236.103631 115.833001 
L 236.539117 115.812302 
L 237.410088 114.510421 
L 237.845574 114.349832 
L 238.28106 114.378492 
L 238.716545 114.812491 
L 239.152031 114.155238 
L 239.587517 114.012733 
L 240.023002 115.217146 
L 243.071402 113.555533 
L 243.506887 113.218548 
L 243.942373 113.75388 
L 244.377859 113.737731 
L 244.813344 114.196864 
L 245.24883 113.37834 
L 246.555287 112.903285 
L 246.990772 112.60474 
L 247.426258 111.890053 
L 249.603686 111.052878 
L 250.039172 110.055569 
L 250.910143 109.667177 
L 251.345629 109.539229 
L 251.781115 109.905671 
L 254.394028 108.638933 
L 254.829514 108.820675 
L 255.265 108.620167 
L 255.700485 108.85434 
L 256.135971 107.963028 
L 256.571457 108.167858 
L 257.442428 107.605571 
L 257.877914 107.190225 
L 259.18437 106.690831 
L 259.619856 106.848917 
L 260.055342 106.678889 
L 260.490827 106.88008 
L 260.926313 106.682529 
L 261.361799 106.07782 
L 262.23277 105.547832 
L 262.668256 105.465263 
L 263.974712 104.732152 
L 264.410198 104.203302 
L 264.845684 103.893498 
L 265.281169 102.955102 
L 267.023112 102.334926 
L 267.894083 101.694846 
L 268.329569 101.189311 
L 268.765055 101.07376 
L 269.20054 100.240565 
L 269.636026 100.47144 
L 270.071511 100.546275 
L 270.942483 100.065988 
L 271.377968 100.042559 
L 271.813454 99.875715 
L 272.24894 100.712095 
L 273.119911 100.461318 
L 273.990882 99.493692 
L 274.861854 98.243445 
L 275.297339 97.967988 
L 275.732825 97.975608 
L 276.603796 96.923708 
L 277.039282 96.988421 
L 277.474767 96.783023 
L 277.910253 97.476783 
L 278.345739 97.127856 
L 278.781224 96.589225 
L 280.087681 96.036491 
L 280.523167 95.913434 
L 281.394138 95.274037 
L 281.829624 93.995812 
L 282.265109 93.540432 
L 282.700595 91.923515 
L 283.136081 90.82146 
L 283.571566 90.638353 
L 284.007052 90.62425 
L 284.442538 89.6705 
L 284.878023 89.099114 
L 285.313509 87.847161 
L 285.748995 87.760498 
L 286.18448 86.630123 
L 286.619966 86.455432 
L 287.055451 86.145174 
L 287.490937 86.680506 
L 288.361908 84.359139 
L 288.797394 83.434504 
L 289.23288 83.114464 
L 289.668365 82.588344 
L 290.539337 82.025374 
L 291.410308 81.214812 
L 291.845794 81.099261 
L 292.716765 80.391853 
L 293.15225 79.801133 
L 293.587736 78.209464 
L 294.023222 78.329565 
L 294.458707 78.028404 
L 294.894193 77.309737 
L 295.329679 77.057822 
L 295.765164 76.223604 
L 296.20065 76.025143 
L 296.636136 76.001828 
L 298.813564 75.053082 
L 299.249049 75.384836 
L 300.555506 74.68755 
L 301.861963 74.102744 
L 303.16842 73.424565 
L 303.603906 73.521009 
L 305.345848 72.770042 
L 305.781334 72.308179 
L 306.652305 72.062292 
L 307.087791 72.287594 
L 308.394248 71.894198 
L 308.829734 70.645998 
L 309.265219 70.464938 
L 309.700705 69.953261 
L 310.571676 69.624009 
L 311.007162 69.520627 
L 311.442647 69.24517 
L 312.313619 68.946967 
L 312.749104 68.465884 
L 313.18459 68.270266 
L 313.620076 68.270835 
L 314.055561 68.108768 
L 314.491047 67.660781 
L 315.362018 67.218935 
L 315.797504 67.173329 
L 317.103961 66.462167 
L 317.539446 66.32842 
L 317.974932 65.971417 
L 318.845903 65.667186 
L 319.281389 66.254722 
L 319.716875 66.035448 
L 320.15236 64.540451 
L 320.587846 63.958261 
L 321.023331 63.792327 
L 321.458817 62.670824 
L 321.894303 63.039085 
L 322.329788 63.090833 
L 323.636245 62.638524 
L 324.071731 62.939343 
L 324.507217 62.567215 
L 325.378188 62.249222 
L 325.813674 62.087496 
L 326.249159 60.870572 
L 326.684645 60.787776 
L 327.12013 60.536658 
L 328.862073 60.017247 
L 329.733044 59.052238 
L 330.16853 59.49977 
L 331.474987 58.967963 
L 331.910472 58.934753 
L 332.345958 59.236482 
L 333.652415 58.853208 
L 334.523386 58.372807 
L 336.265329 57.410414 
L 337.1363 57.1262 
L 337.571786 56.337246 
L 339.749214 55.252705 
L 340.1847 54.789819 
L 340.620185 54.626388 
L 341.055671 55.164564 
L 341.491157 54.790047 
L 342.797614 54.503899 
L 343.233099 54.084458 
L 343.668585 53.980281 
L 344.10407 53.69129 
L 344.539556 52.371325 
L 344.975042 52.03252 
L 345.410527 51.86397 
L 345.846013 51.254257 
L 346.281499 51.446804 
L 348.458927 50.541504 
L 348.894412 49.719454 
L 349.329898 49.95158 
L 349.765384 49.226088 
L 350.200869 49.883455 
L 350.636355 49.442746 
L 351.507326 49.060837 
L 351.942812 48.343762 
L 352.813783 48.208308 
L 353.684755 48.651291 
L 354.12024 48.416322 
L 354.555726 47.418445 
L 357.16864 46.041387 
L 357.604125 45.003931 
L 358.039611 44.959234 
L 358.475097 45.104924 
L 358.910582 44.998017 
L 359.781554 45.182944 
L 360.652525 44.941606 
L 361.08801 44.946497 
L 361.523496 44.575619 
L 362.394467 44.159135 
L 362.829953 43.791784 
L 363.265439 43.756754 
L 363.700924 43.945776 
L 364.13641 42.79038 
L 364.571896 42.592715 
L 365.442867 41.888833 
L 365.878353 41.739163 
L 366.313838 41.849709 
L 366.749324 42.709859 
L 367.184809 42.766497 
L 367.620295 44.032439 
L 368.055781 44.680252 
L 368.491266 44.525464 
L 368.926752 43.005332 
L 369.362238 43.559999 
L 369.797723 43.687378 
L 370.233209 44.377841 
L 370.668695 44.261835 
L 371.10418 45.01519 
L 371.975151 44.81218 
L 372.410637 44.272867 
L 373.717094 46.428187 
L 374.15258 46.367909 
L 374.588065 46.501657 
L 375.023551 46.305243 
L 375.459037 45.250045 
L 376.765494 44.832197 
L 377.200979 44.316653 
L 378.07195 44.714712 
L 378.507436 45.824388 
L 378.942922 45.608526 
L 379.378407 45.609663 
L 379.813893 45.994985 
L 380.249379 46.059357 
L 380.684864 46.555907 
L 381.12035 46.377918 
L 381.555836 46.059243 
L 381.991321 45.882618 
L 382.426807 44.263086 
L 382.862293 44.216797 
L 383.297778 44.056436 
L 383.733264 43.47834 
L 385.039721 43.196628 
L 385.475206 43.160689 
L 386.346178 42.838943 
L 386.781663 42.688022 
L 387.217149 42.347738 
L 387.652635 42.332953 
L 389.830063 41.429018 
L 392.442977 40.758913 
L 393.313948 40.07755 
L 393.749434 40.923482 
L 394.184919 40.692039 
L 394.620405 40.971022 
L 395.926862 40.366996 
L 396.362347 39.02565 
L 397.233319 38.35873 
L 397.668804 38.354635 
L 398.10429 37.902895 
L 398.975261 37.495851 
L 399.410747 36.482392 
L 400.281718 35.857667 
L 400.717204 35.303568 
L 401.152689 35.258076 
L 401.588175 35.025837 
L 402.023661 34.990125 
L 402.023661 34.990125 
" style="fill:none;stroke:#ff7f0e;stroke-linecap:square;stroke-opacity:0.8;stroke-width:1.5;"/>
   </g>
   <g id="line2d_18">
    <path clip-path="url(#pd9bb61a150)" d="M 0 0 
" style="fill:none;stroke:#2ca02c;stroke-linecap:square;stroke-opacity:0.8;stroke-width:1.5;"/>
   </g>
   <g id="line2d_19">
    <path clip-path="url(#pd9bb61a150)" d="M 147.264561 184.408032 
L 147.700046 184.010314 
L 148.135532 184.07207 
L 149.441989 183.736108 
L 149.877475 183.952425 
L 150.748446 183.859734 
L 151.183931 183.90352 
L 151.619417 183.793542 
L 153.796845 184.002239 
L 154.232331 183.523317 
L 154.667817 183.457466 
L 155.103302 183.132195 
L 155.538788 182.946472 
L 155.974273 183.131626 
L 156.409759 182.901321 
L 157.28073 182.927706 
L 157.716216 182.390326 
L 158.151702 182.524643 
L 158.587187 182.145236 
L 159.458159 182.011488 
L 159.893644 181.433165 
L 160.32913 181.211957 
L 160.764616 180.821518 
L 161.635587 180.638752 
L 163.377529 180.819016 
L 164.248501 181.038176 
L 164.683986 181.008947 
L 165.119472 180.590416 
L 165.554958 179.932367 
L 166.425929 179.9989 
L 166.861415 180.247972 
L 167.2969 180.223064 
L 168.167871 179.706725 
L 168.603357 179.105883 
L 169.038843 179.531124 
L 169.474328 179.769732 
L 170.780785 179.798165 
L 172.522728 179.322654 
L 172.958213 179.832284 
L 173.393699 179.752445 
L 173.829185 179.888695 
L 175.571127 179.967397 
L 176.006613 179.273295 
L 176.442099 179.179239 
L 177.31307 179.448327 
L 179.055012 178.551443 
L 179.490498 178.123472 
L 179.925984 178.11699 
L 180.361469 178.783796 
L 180.796955 178.667335 
L 181.232441 178.762073 
L 181.667926 178.699862 
L 182.974383 178.117104 
L 183.409869 178.536089 
L 184.28084 178.387898 
L 185.587297 178.496511 
L 186.022783 178.146901 
L 186.458268 178.177154 
L 186.893754 177.912501 
L 187.764725 177.892939 
L 188.200211 177.642503 
L 189.071182 177.894986 
L 189.942153 178.045567 
L 190.377639 177.937522 
L 190.813125 177.637385 
L 191.24861 178.128135 
L 191.684096 178.071839 
L 192.119582 178.257675 
L 192.990553 177.877358 
L 194.732496 177.663316 
L 195.167981 177.51194 
L 196.038952 177.607247 
L 196.474438 177.477138 
L 196.909924 177.775569 
L 197.345409 177.653876 
L 198.216381 177.230341 
L 200.393809 177.543443 
L 201.26478 177.823336 
L 202.135751 177.572104 
L 202.571237 177.852565 
L 203.006723 177.73963 
L 204.31318 177.911591 
L 204.748665 177.726096 
L 205.184151 177.904881 
L 205.619637 177.645574 
L 206.055122 177.834936 
L 206.926093 177.883272 
L 208.668036 178.198421 
L 209.974493 177.89419 
L 210.845464 178.214571 
L 211.28095 178.090604 
L 211.716436 178.166577 
L 212.151921 178.913449 
L 212.587407 179.398854 
L 213.458378 179.741185 
L 214.329349 180.090568 
L 214.764835 179.758586 
L 215.200321 179.6825 
L 215.635806 180.387861 
L 216.071292 180.233983 
L 216.942263 180.642278 
L 217.377749 180.918758 
L 218.684206 181.10994 
L 219.119691 181.420995 
L 219.990663 181.277125 
L 220.861634 181.528471 
L 221.732605 181.216052 
L 222.168091 181.364016 
L 222.603577 181.287589 
L 223.474548 181.324437 
L 223.910033 181.705664 
L 224.345519 181.893776 
L 224.781005 181.494124 
L 225.21649 181.902874 
L 225.651976 181.798355 
L 226.087462 181.557132 
L 226.522947 181.863182 
L 226.958433 181.812231 
L 227.829404 182.28558 
L 228.700376 182.345061 
L 229.135861 182.504285 
L 230.006832 182.38862 
L 230.442318 182.189591 
L 230.877804 182.338351 
L 231.313289 182.252257 
L 231.748775 182.443894 
L 232.184261 182.464024 
L 232.619746 182.873457 
L 233.055232 182.786793 
L 234.361689 183.05736 
L 234.797175 182.917357 
L 235.23266 182.587878 
L 236.103631 182.465389 
L 236.539117 182.274093 
L 236.974603 182.219957 
L 238.716545 181.566799 
L 239.152031 182.025135 
L 239.587517 181.73967 
L 240.458488 182.161954 
L 240.893974 182.029798 
L 241.764945 182.163888 
L 242.20043 182.080864 
L 242.635916 182.623248 
L 243.071402 182.542385 
L 243.506887 182.79521 
L 243.942373 182.849118 
L 244.377859 182.696946 
L 244.813344 177.932063 
L 246.119801 178.275076 
L 246.555287 178.296116 
L 247.426258 178.183409 
L 248.297229 178.222191 
L 248.732715 178.258358 
L 249.168201 178.408938 
L 249.603686 178.399953 
L 250.039172 178.698384 
L 250.474658 179.303434 
L 251.781115 179.334824 
L 252.2166 179.47187 
L 253.087571 179.589582 
L 253.523057 179.609257 
L 253.958543 179.283303 
L 254.394028 179.257031 
L 254.829514 178.858404 
L 255.265 178.707027 
L 255.700485 178.302599 
L 256.135971 178.204563 
L 257.006942 178.583856 
L 257.877914 178.259836 
L 258.313399 178.415193 
L 258.748885 178.262225 
L 259.18437 178.243573 
L 259.619856 178.050685 
L 260.055342 178.118127 
L 260.490827 178.319659 
L 260.926313 178.877055 
L 261.361799 178.933011 
L 261.797284 178.858517 
L 262.23277 178.947569 
L 262.668256 179.282166 
L 263.103741 179.090074 
L 263.974712 179.679884 
L 264.410198 179.449578 
L 264.845684 179.403062 
L 265.716655 180.090795 
L 266.152141 179.99492 
L 267.023112 180.436538 
L 267.458598 180.440291 
L 267.894083 180.699712 
L 268.765055 180.852453 
L 269.20054 180.584616 
L 269.636026 180.618394 
L 270.071511 180.236712 
L 270.506997 180.213738 
L 270.942483 180.738381 
L 271.377968 180.545379 
L 271.813454 180.643984 
L 272.684425 180.543673 
L 273.119911 180.724392 
L 274.861854 180.876678 
L 275.297339 181.073091 
L 275.732825 181.446699 
L 276.16831 181.231292 
L 276.603796 181.418948 
L 277.039282 181.432596 
L 277.474767 181.569415 
L 277.910253 181.528812 
L 278.345739 181.035219 
L 278.781224 181.158731 
L 279.21671 181.649026 
L 279.652196 181.465464 
L 280.958652 181.668474 
L 281.394138 181.81405 
L 282.265109 181.614338 
L 283.136081 182.185951 
L 284.007052 182.080523 
L 284.442538 182.090872 
L 284.878023 181.911063 
L 285.313509 182.287741 
L 286.18448 181.791077 
L 286.619966 182.073244 
L 287.490937 182.203011 
L 287.926423 182.651226 
L 289.23288 182.374518 
L 290.103851 182.568202 
L 292.716765 182.491888 
L 294.023222 181.955418 
L 295.329679 182.170711 
L 295.765164 182.09781 
L 296.636136 182.185838 
L 297.507107 181.802109 
L 297.942592 181.455456 
L 298.378078 181.654485 
L 299.249049 181.616954 
L 299.684535 181.802336 
L 300.990992 181.846464 
L 302.732935 181.441353 
L 303.16842 181.462166 
L 303.603906 181.282812 
L 304.910363 181.318296 
L 305.781334 181.220601 
L 306.21682 181.42998 
L 307.523277 181.441239 
L 307.958762 180.82675 
L 308.394248 180.875199 
L 308.829734 180.617598 
L 309.265219 180.629426 
L 309.700705 181.004853 
L 311.007162 181.507658 
L 311.878133 181.565548 
L 312.313619 181.428047 
L 314.491047 181.538935 
L 314.926532 181.699864 
L 315.797504 181.443059 
L 316.232989 181.49947 
L 316.668475 181.279172 
L 317.103961 181.386535 
L 317.539446 180.911138 
L 318.845903 180.844833 
L 319.281389 180.705285 
L 319.716875 180.737471 
L 320.15236 181.140193 
L 320.587846 181.13735 
L 321.023331 181.264501 
L 321.458817 181.540641 
L 321.894303 181.502654 
L 323.20076 182.088143 
L 324.071731 182.075063 
L 324.507217 182.358823 
L 324.942702 182.465048 
L 325.378188 182.417053 
L 326.249159 182.557056 
L 327.991102 182.608463 
L 328.426587 182.130906 
L 329.297559 182.260332 
L 329.733044 187.562595 
L 331.910472 187.83373 
L 332.345958 187.69475 
L 332.781444 187.727391 
L 334.523386 187.165673 
L 334.958872 187.227429 
L 335.394358 187.127118 
L 337.571786 187.29726 
L 338.007271 187.390747 
L 338.878243 188.200513 
L 339.313728 187.65176 
L 340.1847 187.992157 
L 340.620185 188.493371 
L 341.055671 188.697746 
L 341.926642 188.230424 
L 343.233099 188.525329 
L 343.668585 188.559221 
L 344.10407 187.88616 
L 344.975042 188.156271 
L 345.410527 187.974756 
L 345.846013 188.098041 
L 346.716984 187.942684 
L 347.15247 187.850448 
L 348.023441 188.293545 
L 348.894412 188.243503 
L 349.329898 188.993447 
L 349.765384 189.17644 
L 352.378298 188.791688 
L 352.813783 188.621432 
L 353.249269 188.169123 
L 353.684755 188.065969 
L 354.12024 188.344838 
L 354.555726 188.384416 
L 354.991211 188.731751 
L 355.862183 188.629393 
L 356.297668 188.909741 
L 356.733154 188.917929 
L 357.16864 188.483135 
L 358.475097 188.366333 
L 358.910582 188.560358 
L 359.781554 188.463914 
L 360.652525 188.210749 
L 361.08801 188.403637 
L 361.523496 188.200513 
L 361.958982 188.153542 
L 362.394467 188.235087 
L 362.829953 188.488367 
L 363.265439 188.949888 
L 363.700924 188.825921 
L 364.13641 188.821599 
L 365.007381 188.989921 
L 365.442867 189.010279 
L 365.878353 188.865954 
L 367.184809 189.106609 
L 367.620295 188.957963 
L 368.055781 188.931918 
L 368.926752 189.131972 
L 369.362238 189.057819 
L 370.233209 189.146302 
L 370.668695 189.206693 
L 371.10418 189.514905 
L 371.975151 189.463384 
L 372.410637 189.250707 
L 374.15258 189.231031 
L 375.023551 188.608694 
L 376.765494 188.291725 
L 377.200979 188.037877 
L 377.636465 187.480481 
L 378.07195 187.561685 
L 378.507436 187.870351 
L 381.12035 187.972254 
L 381.991321 187.916867 
L 382.426807 188.031622 
L 382.862293 188.347909 
L 385.475206 188.335967 
L 386.346178 188.368835 
L 386.781663 188.231107 
L 387.217149 188.389762 
L 387.652635 188.409892 
L 388.08812 188.283309 
L 388.523606 188.38362 
L 388.959091 188.250441 
L 389.394577 187.988859 
L 390.265548 187.943025 
L 391.13652 188.00626 
L 392.442977 187.847605 
L 392.878462 188.389762 
L 393.313948 188.378161 
L 393.749434 188.55126 
L 394.620405 188.395676 
L 397.668804 188.365878 
L 398.10429 188.115556 
L 398.539776 188.133525 
L 399.410747 187.870579 
L 399.846233 187.921871 
L 400.281718 188.151154 
L 400.717204 188.192211 
L 401.152689 188.117717 
L 401.588175 188.276599 
L 402.023661 188.212 
L 402.023661 188.212 
" style="fill:none;stroke:#d62728;stroke-linecap:square;stroke-opacity:0.8;stroke-width:1.5;"/>
   </g>
   <g id="line2d_20">
    <path clip-path="url(#pd9bb61a150)" d="M 147.264561 238.537265 
L 148.135532 238.222457 
L 148.571018 238.051747 
L 149.006503 238.009439 
L 149.441989 237.340131 
L 150.31296 237.22947 
L 150.748446 236.884637 
L 151.619417 236.65001 
L 152.054903 236.736104 
L 152.490388 237.23891 
L 153.36136 237.212183 
L 153.796845 236.89965 
L 154.232331 237.127681 
L 154.667817 237.127794 
L 155.103302 236.918415 
L 155.974273 236.898285 
L 156.409759 237.161004 
L 157.716216 237.147129 
L 158.151702 236.45007 
L 158.587187 236.735422 
L 159.022673 236.655128 
L 159.458159 236.777844 
L 159.893644 236.762831 
L 160.32913 236.439493 
L 160.764616 236.691749 
L 161.200101 236.679125 
L 161.635587 236.88259 
L 162.071072 236.905791 
L 162.506558 236.647508 
L 162.942044 236.723366 
L 164.248501 237.21423 
L 164.683986 236.986882 
L 165.554958 237.006898 
L 165.990443 237.219689 
L 166.425929 237.224693 
L 166.861415 236.842784 
L 167.2969 236.725527 
L 167.732386 236.796723 
L 168.167871 237.068541 
L 168.603357 237.044088 
L 169.038843 236.712334 
L 169.909814 236.583136 
L 170.3453 236.891006 
L 170.780785 236.940593 
L 171.216271 236.601901 
L 171.651757 236.581885 
L 172.087242 236.762035 
L 172.522728 236.27754 
L 174.26467 236.097845 
L 174.700156 236.40526 
L 175.135642 236.431305 
L 175.571127 236.121842 
L 176.442099 236.156757 
L 176.877584 235.867994 
L 178.619527 235.74198 
L 179.055012 235.999126 
L 179.490498 235.940554 
L 179.925984 235.509968 
L 180.361469 235.509513 
L 180.796955 235.317194 
L 181.232441 235.615397 
L 181.667926 235.645194 
L 182.103412 235.275682 
L 182.974383 235.251912 
L 183.409869 235.573544 
L 183.845355 235.592651 
L 184.28084 235.230189 
L 185.151811 235.201529 
L 185.587297 235.51247 
L 186.022783 235.49996 
L 186.458268 235.200619 
L 187.32924 235.201984 
L 187.764725 235.661685 
L 188.200211 235.615056 
L 188.635697 235.341077 
L 189.506668 235.329249 
L 189.942153 235.478578 
L 191.684096 235.481194 
L 192.119582 235.825686 
L 192.555067 235.995373 
L 192.990553 235.492795 
L 195.603467 235.501211 
L 196.038952 235.440251 
L 196.474438 235.771777 
L 196.909924 235.771322 
L 197.345409 235.94317 
L 197.780895 235.929295 
L 198.216381 235.230985 
L 199.087352 235.201643 
L 199.522838 236.039842 
L 201.26478 235.569108 
L 201.700266 236.049168 
L 202.571237 235.981953 
L 203.006723 236.16597 
L 203.442208 235.937484 
L 203.877694 236.076236 
L 204.31318 236.053944 
L 204.748665 236.207823 
L 205.184151 236.537643 
L 205.619637 236.198383 
L 206.055122 236.25957 
L 206.490608 236.125026 
L 206.926093 236.133784 
L 207.361579 236.419135 
L 207.797065 236.093523 
L 209.103522 235.982294 
L 209.539007 236.283113 
L 209.974493 235.634504 
L 210.409979 235.440137 
L 210.845464 235.539538 
L 211.28095 235.488928 
L 212.151921 235.046741 
L 212.587407 235.443208 
L 213.458378 235.505305 
L 213.893864 235.951814 
L 214.329349 235.133631 
L 216.071292 235.0199 
L 216.506778 234.660623 
L 216.942263 235.336983 
L 217.813235 235.377585 
L 218.24872 235.662254 
L 218.684206 235.577183 
L 219.119691 235.619832 
L 219.555177 235.260669 
L 220.426148 235.202325 
L 220.861634 234.89127 
L 221.29712 235.203121 
L 223.039062 235.231213 
L 223.474548 235.601522 
L 223.910033 235.402037 
L 224.781005 235.445141 
L 225.21649 235.163088 
L 225.651976 236.114791 
L 226.958433 236.06691 
L 227.393919 235.750282 
L 227.829404 236.059062 
L 228.700376 236.033473 
L 229.135861 236.296647 
L 229.571347 236.018346 
L 230.442318 236.077259 
L 230.877804 236.067137 
L 231.313289 236.70153 
L 231.748775 235.999922 
L 232.184261 236.00595 
L 233.055232 236.294827 
L 233.490718 236.404691 
L 233.926203 236.088291 
L 234.361689 236.848243 
L 234.797175 236.886116 
L 235.23266 236.697777 
L 235.668146 237.142466 
L 236.103631 236.889073 
L 236.539117 236.972665 
L 236.974603 236.841647 
L 237.845574 237.011106 
L 238.28106 236.67014 
L 238.716545 237.025891 
L 239.587517 237.009741 
L 240.023002 237.209226 
L 240.893974 237.128818 
L 241.329459 236.275265 
L 242.20043 236.266849 
L 242.635916 235.869927 
L 243.071402 236.432897 
L 243.506887 236.294372 
L 244.813344 236.17177 
L 245.24883 236.445635 
L 246.119801 236.110583 
L 246.555287 236.16995 
L 246.990772 235.787586 
L 247.426258 236.050987 
L 248.732715 235.572179 
L 249.168201 235.582187 
L 249.603686 235.973536 
L 250.039172 235.051063 
L 250.474658 235.033775 
L 250.910143 235.171618 
L 251.345629 235.167864 
L 251.781115 235.505987 
L 252.2166 235.104402 
L 253.087571 235.098602 
L 253.523057 234.772535 
L 253.958543 235.072558 
L 254.829514 235.168888 
L 255.265 235.149099 
L 255.700485 234.226398 
L 256.135971 234.622523 
L 257.006942 234.546096 
L 257.442428 235.209263 
L 257.877914 234.728293 
L 258.748885 234.691558 
L 259.18437 234.780041 
L 259.619856 234.686781 
L 260.055342 234.230947 
L 260.490827 234.523577 
L 261.361799 234.486728 
L 261.797284 235.200278 
L 262.23277 235.275454 
L 263.539227 234.977251 
L 263.974712 234.96747 
L 264.410198 234.715101 
L 264.845684 235.011939 
L 265.281169 234.962125 
L 265.716655 235.112022 
L 266.587626 235.000225 
L 267.023112 235.381111 
L 267.458598 234.955415 
L 268.329569 234.850896 
L 268.765055 234.206949 
L 269.20054 234.579533 
L 269.636026 234.587494 
L 270.506997 234.277577 
L 270.942483 234.239477 
L 271.377968 234.526534 
L 271.813454 234.169418 
L 273.555397 234.239135 
L 273.990882 233.930924 
L 274.426368 233.916252 
L 274.861854 233.783301 
L 275.297339 233.769653 
L 275.732825 234.020089 
L 276.16831 233.675142 
L 277.039282 233.473269 
L 277.474767 233.323599 
L 277.910253 233.77352 
L 278.345739 233.443131 
L 279.21671 233.371025 
L 279.652196 232.899495 
L 280.087681 233.216237 
L 280.523167 232.931795 
L 281.394138 232.919171 
L 281.829624 232.557733 
L 282.700595 232.510876 
L 283.136081 233.19895 
L 284.007052 233.149818 
L 284.442538 233.003105 
L 284.878023 232.666688 
L 285.748995 232.566377 
L 287.490937 232.54636 
L 288.361908 232.864921 
L 288.797394 232.837853 
L 289.23288 232.625289 
L 290.103851 232.459469 
L 290.974822 232.292398 
L 291.410308 232.371441 
L 291.845794 232.174914 
L 292.281279 232.121233 
L 292.716765 232.419209 
L 293.15225 232.381563 
L 293.587736 232.003862 
L 294.458707 231.967468 
L 294.894193 232.68841 
L 295.329679 232.85207 
L 295.765164 232.499389 
L 296.20065 232.499616 
L 296.636136 232.67499 
L 297.071621 233.066453 
L 297.507107 233.000148 
L 297.942592 232.593217 
L 298.813564 232.491883 
L 299.249049 233.183823 
L 299.684535 233.176886 
L 300.120021 232.587986 
L 300.990992 232.593217 
L 301.426478 232.958522 
L 301.861963 233.075096 
L 302.297449 232.46925 
L 303.16842 232.473117 
L 304.039391 232.482557 
L 305.345848 232.331181 
L 305.781334 232.62745 
L 306.21682 232.625972 
L 306.652305 232.153077 
L 307.523277 232.190268 
L 307.958762 231.388349 
L 308.394248 231.362873 
L 308.829734 231.596818 
L 309.265219 231.370834 
L 309.700705 231.322498 
L 310.13619 231.596591 
L 310.571676 231.465345 
L 311.007162 230.988925 
L 311.442647 231.126881 
L 311.878133 230.947413 
L 312.313619 230.581426 
L 314.055561 230.624189 
L 314.926532 230.752705 
L 315.362018 230.277422 
L 316.232989 230.171197 
L 316.668475 230.893845 
L 317.103961 230.84642 
L 317.539446 230.4139 
L 318.410418 230.442788 
L 318.845903 230.77022 
L 319.281389 230.791829 
L 319.716875 230.310404 
L 320.15236 230.497606 
L 320.587846 230.495331 
L 321.023331 230.806727 
L 321.458817 230.794217 
L 321.894303 230.612702 
L 322.329788 230.626463 
L 322.765274 230.456094 
L 323.20076 230.707554 
L 323.636245 230.70562 
L 324.071731 230.385126 
L 324.942702 230.455867 
L 325.813674 230.459279 
L 326.249159 230.748042 
L 326.684645 230.613498 
L 327.12013 230.601101 
L 327.555616 231.005075 
L 327.991102 231.090146 
L 328.426587 230.770333 
L 329.297559 230.868825 
L 330.604016 230.467012 
L 333.216929 231.068992 
L 333.652415 230.894414 
L 334.087901 230.231475 
L 334.523386 229.854456 
L 334.958872 230.743152 
L 335.829843 230.686741 
L 336.700815 230.620777 
L 337.1363 231.038853 
L 337.571786 230.646821 
L 338.007271 230.631809 
L 338.442757 230.891798 
L 339.313728 230.787166 
L 339.749214 230.546283 
L 340.1847 230.531043 
L 340.620185 231.455564 
L 341.491157 231.445442 
L 341.926642 230.903513 
L 342.362128 230.983011 
L 342.797614 231.322044 
L 343.668585 231.384368 
L 344.10407 231.084686 
L 344.539556 231.041127 
L 344.975042 231.442712 
L 345.410527 231.41155 
L 345.846013 231.260401 
L 346.281499 230.725751 
L 348.023441 230.984717 
L 348.458927 230.637609 
L 348.894412 230.642727 
L 349.329898 230.912384 
L 349.765384 231.02077 
L 350.200869 230.884974 
L 350.636355 230.334515 
L 351.071841 230.390699 
L 351.942812 230.134235 
L 352.378298 230.468036 
L 352.813783 230.073616 
L 353.249269 230.05485 
L 353.684755 230.639088 
L 354.555726 230.58154 
L 355.426697 230.7361 
L 355.862183 230.34441 
L 356.297668 230.362493 
L 356.733154 230.716311 
L 357.16864 229.902905 
L 358.039611 229.777574 
L 358.475097 229.935887 
L 358.910582 230.226471 
L 359.781554 230.288227 
L 360.217039 229.768361 
L 360.652525 229.764495 
L 361.08801 230.135713 
L 361.523496 229.338116 
L 363.265439 229.866057 
L 363.700924 229.567398 
L 364.13641 229.565351 
L 364.571896 230.034606 
L 365.007381 230.022551 
L 365.442867 230.232271 
L 365.878353 229.557959 
L 366.313838 229.528957 
L 366.749324 229.860597 
L 367.620295 229.938845 
L 368.055781 229.616985 
L 369.362238 229.665662 
L 369.797723 230.021527 
L 370.233209 229.517698 
L 370.668695 229.536691 
L 371.10418 229.827729 
L 371.975151 229.761083 
L 372.410637 229.299903 
L 372.846123 229.242013 
L 373.281608 229.35529 
L 373.717094 229.269764 
L 374.15258 229.481418 
L 374.588065 229.242127 
L 375.023551 229.335273 
L 375.459037 229.635296 
L 376.330008 229.629496 
L 376.765494 229.766428 
L 377.200979 229.70797 
L 377.636465 229.319806 
L 378.07195 229.344826 
L 378.507436 229.571038 
L 378.942922 228.852143 
L 380.249379 228.711798 
L 380.684864 229.051514 
L 381.555836 229.130557 
L 381.991321 228.504239 
L 382.426807 228.522663 
L 382.862293 228.921064 
L 383.297778 228.347972 
L 384.168749 228.347176 
L 384.604235 228.295201 
L 385.039721 228.857943 
L 385.910692 228.785496 
L 386.346178 228.369013 
L 386.781663 228.276663 
L 387.217149 228.790842 
L 388.08812 228.736023 
L 388.523606 228.267451 
L 388.959091 228.263356 
L 389.394577 228.62741 
L 389.830063 227.96231 
L 390.701034 227.762598 
L 391.13652 227.76692 
L 391.572005 228.150194 
L 392.007491 227.568913 
L 392.442977 227.566753 
L 392.878462 228.199098 
L 393.313948 228.12233 
L 393.749434 228.203306 
L 394.184919 227.812753 
L 395.05589 227.635105 
L 395.491376 227.75168 
L 395.926862 228.113686 
L 396.362347 227.622595 
L 396.797833 227.725635 
L 397.233319 228.364918 
L 397.668804 228.203989 
L 398.539776 228.135522 
L 399.846233 227.885655 
L 400.281718 228.392441 
L 400.717204 228.032596 
L 402.023661 228.260627 
L 402.023661 228.260627 
" style="fill:none;stroke:#9467bd;stroke-linecap:square;stroke-opacity:0.8;stroke-width:1.5;"/>
   </g>
   <g id="patch_3">
    <path d="M 61.909375 288.430125 
L 61.909375 22.318125 
" style="fill:none;stroke:#000000;stroke-linecap:square;stroke-linejoin:miter;stroke-width:0.8;"/>
   </g>
   <g id="patch_4">
    <path d="M 419.029375 288.430125 
L 419.029375 22.318125 
" style="fill:none;stroke:#000000;stroke-linecap:square;stroke-linejoin:miter;stroke-width:0.8;"/>
   </g>
   <g id="patch_5">
    <path d="M 61.909375 288.430125 
L 419.029375 288.430125 
" style="fill:none;stroke:#000000;stroke-linecap:square;stroke-linejoin:miter;stroke-width:0.8;"/>
   </g>
   <g id="patch_6">
    <path d="M 61.909375 22.318125 
L 419.029375 22.318125 
" style="fill:none;stroke:#000000;stroke-linecap:square;stroke-linejoin:miter;stroke-width:0.8;"/>
   </g>
   <g id="text_18">
    <!-- Get filtered descendants count [leaf] -->
    <g transform="translate(129.882812 16.318125)scale(0.12 -0.12)">
     <defs>
      <path d="M 59.515625 10.40625 
L 59.515625 29.984375 
L 43.40625 29.984375 
L 43.40625 38.09375 
L 69.28125 38.09375 
L 69.28125 6.78125 
Q 63.578125 2.734375 56.6875 0.65625 
Q 49.8125 -1.421875 42 -1.421875 
Q 24.90625 -1.421875 15.25 8.5625 
Q 5.609375 18.5625 5.609375 36.375 
Q 5.609375 54.25 15.25 64.234375 
Q 24.90625 74.21875 42 74.21875 
Q 49.125 74.21875 55.546875 72.453125 
Q 61.96875 70.703125 67.390625 67.28125 
L 67.390625 56.78125 
Q 61.921875 61.421875 55.765625 63.765625 
Q 49.609375 66.109375 42.828125 66.109375 
Q 29.4375 66.109375 22.71875 58.640625 
Q 16.015625 51.171875 16.015625 36.375 
Q 16.015625 21.625 22.71875 14.15625 
Q 29.4375 6.6875 42.828125 6.6875 
Q 48.046875 6.6875 52.140625 7.59375 
Q 56.25 8.5 59.515625 10.40625 
z
" id="DejaVuSans-71"/>
      <path d="M 41.109375 46.296875 
Q 39.59375 47.171875 37.8125 47.578125 
Q 36.03125 48 33.890625 48 
Q 26.265625 48 22.1875 43.046875 
Q 18.109375 38.09375 18.109375 28.8125 
L 18.109375 0 
L 9.078125 0 
L 9.078125 54.6875 
L 18.109375 54.6875 
L 18.109375 46.1875 
Q 20.953125 51.171875 25.484375 53.578125 
Q 30.03125 56 36.53125 56 
Q 37.453125 56 38.578125 55.875 
Q 39.703125 55.765625 41.0625 55.515625 
z
" id="DejaVuSans-114"/>
      <path d="M 8.59375 75.984375 
L 29.296875 75.984375 
L 29.296875 69 
L 17.578125 69 
L 17.578125 -6.203125 
L 29.296875 -6.203125 
L 29.296875 -13.1875 
L 8.59375 -13.1875 
z
" id="DejaVuSans-91"/>
      <path d="M 30.421875 75.984375 
L 30.421875 -13.1875 
L 9.71875 -13.1875 
L 9.71875 -6.203125 
L 21.390625 -6.203125 
L 21.390625 69 
L 9.71875 69 
L 9.71875 75.984375 
z
" id="DejaVuSans-93"/>
     </defs>
     <use xlink:href="#DejaVuSans-71"/>
     <use x="77.490234" xlink:href="#DejaVuSans-101"/>
     <use x="139.013672" xlink:href="#DejaVuSans-116"/>
     <use x="178.222656" xlink:href="#DejaVuSans-32"/>
     <use x="210.009766" xlink:href="#DejaVuSans-102"/>
     <use x="245.214844" xlink:href="#DejaVuSans-105"/>
     <use x="272.998047" xlink:href="#DejaVuSans-108"/>
     <use x="300.78125" xlink:href="#DejaVuSans-116"/>
     <use x="339.990234" xlink:href="#DejaVuSans-101"/>
     <use x="401.513672" xlink:href="#DejaVuSans-114"/>
     <use x="440.376953" xlink:href="#DejaVuSans-101"/>
     <use x="501.900391" xlink:href="#DejaVuSans-100"/>
     <use x="565.376953" xlink:href="#DejaVuSans-32"/>
     <use x="597.164062" xlink:href="#DejaVuSans-100"/>
     <use x="660.640625" xlink:href="#DejaVuSans-101"/>
     <use x="722.164062" xlink:href="#DejaVuSans-115"/>
     <use x="774.263672" xlink:href="#DejaVuSans-99"/>
     <use x="829.244141" xlink:href="#DejaVuSans-101"/>
     <use x="890.767578" xlink:href="#DejaVuSans-110"/>
     <use x="954.146484" xlink:href="#DejaVuSans-100"/>
     <use x="1017.623047" xlink:href="#DejaVuSans-97"/>
     <use x="1078.902344" xlink:href="#DejaVuSans-110"/>
     <use x="1142.28125" xlink:href="#DejaVuSans-116"/>
     <use x="1181.490234" xlink:href="#DejaVuSans-115"/>
     <use x="1233.589844" xlink:href="#DejaVuSans-32"/>
     <use x="1265.376953" xlink:href="#DejaVuSans-99"/>
     <use x="1320.357422" xlink:href="#DejaVuSans-111"/>
     <use x="1381.539062" xlink:href="#DejaVuSans-117"/>
     <use x="1444.917969" xlink:href="#DejaVuSans-110"/>
     <use x="1508.296875" xlink:href="#DejaVuSans-116"/>
     <use x="1547.505859" xlink:href="#DejaVuSans-32"/>
     <use x="1579.292969" xlink:href="#DejaVuSans-91"/>
     <use x="1618.306641" xlink:href="#DejaVuSans-108"/>
     <use x="1646.089844" xlink:href="#DejaVuSans-101"/>
     <use x="1707.613281" xlink:href="#DejaVuSans-97"/>
     <use x="1768.892578" xlink:href="#DejaVuSans-102"/>
     <use x="1804.097656" xlink:href="#DejaVuSans-93"/>
    </g>
   </g>
   <g id="legend_1">
    <g id="patch_7">
     <path d="M 92.911719 365.802375 
L 380.507031 365.802375 
Q 382.507031 365.802375 382.507031 363.802375 
L 382.507031 335.446125 
Q 382.507031 333.446125 380.507031 333.446125 
L 92.911719 333.446125 
Q 90.911719 333.446125 90.911719 335.446125 
L 90.911719 363.802375 
Q 90.911719 365.802375 92.911719 365.802375 
z
" style="fill:#4c4c4c;opacity:0.5;stroke:#4c4c4c;stroke-linejoin:miter;"/>
    </g>
    <g id="patch_8">
     <path d="M 90.911719 363.802375 
L 378.507031 363.802375 
Q 380.507031 363.802375 380.507031 361.802375 
L 380.507031 333.446125 
Q 380.507031 331.446125 378.507031 331.446125 
L 90.911719 331.446125 
Q 88.911719 331.446125 88.911719 333.446125 
L 88.911719 361.802375 
Q 88.911719 363.802375 90.911719 363.802375 
z
" style="fill:#ffffff;stroke:#cccccc;stroke-linejoin:miter;"/>
    </g>
    <g id="line2d_21">
     <path d="M 92.911719 339.544562 
L 112.911719 339.544562 
" style="fill:none;stroke:#1f77b4;stroke-linecap:square;stroke-opacity:0.8;stroke-width:1.5;"/>
    </g>
    <g id="line2d_22"/>
    <g id="text_19">
     <!-- MPTT -->
     <g transform="translate(120.911719 343.044562)scale(0.1 -0.1)">
      <defs>
       <path d="M 9.8125 72.90625 
L 24.515625 72.90625 
L 43.109375 23.296875 
L 61.8125 72.90625 
L 76.515625 72.90625 
L 76.515625 0 
L 66.890625 0 
L 66.890625 64.015625 
L 48.09375 14.015625 
L 38.1875 14.015625 
L 19.390625 64.015625 
L 19.390625 0 
L 9.8125 0 
z
" id="DejaVuSans-77"/>
       <path d="M 19.671875 64.796875 
L 19.671875 37.40625 
L 32.078125 37.40625 
Q 38.96875 37.40625 42.71875 40.96875 
Q 46.484375 44.53125 46.484375 51.125 
Q 46.484375 57.671875 42.71875 61.234375 
Q 38.96875 64.796875 32.078125 64.796875 
z
M 9.8125 72.90625 
L 32.078125 72.90625 
Q 44.34375 72.90625 50.609375 67.359375 
Q 56.890625 61.8125 56.890625 51.125 
Q 56.890625 40.328125 50.609375 34.8125 
Q 44.34375 29.296875 32.078125 29.296875 
L 19.671875 29.296875 
L 19.671875 0 
L 9.8125 0 
z
" id="DejaVuSans-80"/>
       <path d="M -0.296875 72.90625 
L 61.375 72.90625 
L 61.375 64.59375 
L 35.5 64.59375 
L 35.5 0 
L 25.59375 0 
L 25.59375 64.59375 
L -0.296875 64.59375 
z
" id="DejaVuSans-84"/>
      </defs>
      <use xlink:href="#DejaVuSans-77"/>
      <use x="86.279297" xlink:href="#DejaVuSans-80"/>
      <use x="146.582031" xlink:href="#DejaVuSans-84"/>
      <use x="205.916016" xlink:href="#DejaVuSans-84"/>
     </g>
    </g>
    <g id="line2d_23">
     <path d="M 92.911719 354.222687 
L 112.911719 354.222687 
" style="fill:none;stroke:#ff7f0e;stroke-linecap:square;stroke-opacity:0.8;stroke-width:1.5;"/>
    </g>
    <g id="line2d_24"/>
    <g id="text_20">
     <!-- tree -->
     <g transform="translate(120.911719 357.722687)scale(0.1 -0.1)">
      <use xlink:href="#DejaVuSans-116"/>
      <use x="39.208984" xlink:href="#DejaVuSans-114"/>
      <use x="78.072266" xlink:href="#DejaVuSans-101"/>
      <use x="139.595703" xlink:href="#DejaVuSans-101"/>
     </g>
    </g>
    <g id="line2d_25">
     <path d="M 167.610156 339.544562 
L 187.610156 339.544562 
" style="fill:none;stroke:#2ca02c;stroke-linecap:square;stroke-opacity:0.8;stroke-width:1.5;"/>
    </g>
    <g id="line2d_26"/>
    <g id="text_21">
     <!-- treebeard AL -->
     <g transform="translate(195.610156 343.044562)scale(0.1 -0.1)">
      <defs>
       <path d="M 9.8125 72.90625 
L 19.671875 72.90625 
L 19.671875 8.296875 
L 55.171875 8.296875 
L 55.171875 0 
L 9.8125 0 
z
" id="DejaVuSans-76"/>
      </defs>
      <use xlink:href="#DejaVuSans-116"/>
      <use x="39.208984" xlink:href="#DejaVuSans-114"/>
      <use x="78.072266" xlink:href="#DejaVuSans-101"/>
      <use x="139.595703" xlink:href="#DejaVuSans-101"/>
      <use x="201.119141" xlink:href="#DejaVuSans-98"/>
      <use x="264.595703" xlink:href="#DejaVuSans-101"/>
      <use x="326.119141" xlink:href="#DejaVuSans-97"/>
      <use x="387.398438" xlink:href="#DejaVuSans-114"/>
      <use x="426.761719" xlink:href="#DejaVuSans-100"/>
      <use x="490.238281" xlink:href="#DejaVuSans-32"/>
      <use x="522.025391" xlink:href="#DejaVuSans-65"/>
      <use x="590.433594" xlink:href="#DejaVuSans-76"/>
     </g>
    </g>
    <g id="line2d_27">
     <path d="M 167.610156 354.222687 
L 187.610156 354.222687 
" style="fill:none;stroke:#d62728;stroke-linecap:square;stroke-opacity:0.8;stroke-width:1.5;"/>
    </g>
    <g id="line2d_28"/>
    <g id="text_22">
     <!-- treebeard MP -->
     <g transform="translate(195.610156 357.722687)scale(0.1 -0.1)">
      <use xlink:href="#DejaVuSans-116"/>
      <use x="39.208984" xlink:href="#DejaVuSans-114"/>
      <use x="78.072266" xlink:href="#DejaVuSans-101"/>
      <use x="139.595703" xlink:href="#DejaVuSans-101"/>
      <use x="201.119141" xlink:href="#DejaVuSans-98"/>
      <use x="264.595703" xlink:href="#DejaVuSans-101"/>
      <use x="326.119141" xlink:href="#DejaVuSans-97"/>
      <use x="387.398438" xlink:href="#DejaVuSans-114"/>
      <use x="426.761719" xlink:href="#DejaVuSans-100"/>
      <use x="490.238281" xlink:href="#DejaVuSans-32"/>
      <use x="522.025391" xlink:href="#DejaVuSans-77"/>
      <use x="608.304688" xlink:href="#DejaVuSans-80"/>
     </g>
    </g>
    <g id="line2d_29">
     <path d="M 282.472656 339.544562 
L 302.472656 339.544562 
" style="fill:none;stroke:#9467bd;stroke-linecap:square;stroke-opacity:0.8;stroke-width:1.5;"/>
    </g>
    <g id="line2d_30"/>
    <g id="text_23">
     <!-- treebeard NS -->
     <g transform="translate(310.472656 343.044562)scale(0.1 -0.1)">
      <defs>
       <path d="M 9.8125 72.90625 
L 23.09375 72.90625 
L 55.421875 11.921875 
L 55.421875 72.90625 
L 64.984375 72.90625 
L 64.984375 0 
L 51.703125 0 
L 19.390625 60.984375 
L 19.390625 0 
L 9.8125 0 
z
" id="DejaVuSans-78"/>
       <path d="M 53.515625 70.515625 
L 53.515625 60.890625 
Q 47.90625 63.578125 42.921875 64.890625 
Q 37.9375 66.21875 33.296875 66.21875 
Q 25.25 66.21875 20.875 63.09375 
Q 16.5 59.96875 16.5 54.203125 
Q 16.5 49.359375 19.40625 46.890625 
Q 22.3125 44.4375 30.421875 42.921875 
L 36.375 41.703125 
Q 47.40625 39.59375 52.65625 34.296875 
Q 57.90625 29 57.90625 20.125 
Q 57.90625 9.515625 50.796875 4.046875 
Q 43.703125 -1.421875 29.984375 -1.421875 
Q 24.8125 -1.421875 18.96875 -0.25 
Q 13.140625 0.921875 6.890625 3.21875 
L 6.890625 13.375 
Q 12.890625 10.015625 18.65625 8.296875 
Q 24.421875 6.59375 29.984375 6.59375 
Q 38.421875 6.59375 43.015625 9.90625 
Q 47.609375 13.234375 47.609375 19.390625 
Q 47.609375 24.75 44.3125 27.78125 
Q 41.015625 30.8125 33.5 32.328125 
L 27.484375 33.5 
Q 16.453125 35.6875 11.515625 40.375 
Q 6.59375 45.0625 6.59375 53.421875 
Q 6.59375 63.09375 13.40625 68.65625 
Q 20.21875 74.21875 32.171875 74.21875 
Q 37.3125 74.21875 42.625 73.28125 
Q 47.953125 72.359375 53.515625 70.515625 
z
" id="DejaVuSans-83"/>
      </defs>
      <use xlink:href="#DejaVuSans-116"/>
      <use x="39.208984" xlink:href="#DejaVuSans-114"/>
      <use x="78.072266" xlink:href="#DejaVuSans-101"/>
      <use x="139.595703" xlink:href="#DejaVuSans-101"/>
      <use x="201.119141" xlink:href="#DejaVuSans-98"/>
      <use x="264.595703" xlink:href="#DejaVuSans-101"/>
      <use x="326.119141" xlink:href="#DejaVuSans-97"/>
      <use x="387.398438" xlink:href="#DejaVuSans-114"/>
      <use x="426.761719" xlink:href="#DejaVuSans-100"/>
      <use x="490.238281" xlink:href="#DejaVuSans-32"/>
      <use x="522.025391" xlink:href="#DejaVuSans-78"/>
      <use x="596.830078" xlink:href="#DejaVuSans-83"/>
     </g>
    </g>
   </g>
  </g>
 </g>
 <defs>
  <clipPath id="pd9bb61a150">
   <rect height="266.112" width="357.12" x="61.909375" y="22.318125"/>
  </clipPath>
 </defs>
</svg>
