<?xml version="1.0" encoding="utf-8" standalone="no"?>
<!DOCTYPE svg PUBLIC "-//W3C//DTD SVG 1.1//EN"
  "http://www.w3.org/Graphics/SVG/1.1/DTD/svg11.dtd">
<!-- Created with matplotlib (https://matplotlib.org/) -->
<svg height="371.002375pt" version="1.1" viewBox="0 0 426.229375 371.002375" width="426.229375pt" xmlns="http://www.w3.org/2000/svg" xmlns:xlink="http://www.w3.org/1999/xlink">
 <metadata>
  <rdf:RDF xmlns:cc="http://creativecommons.org/ns#" xmlns:dc="http://purl.org/dc/elements/1.1/" xmlns:rdf="http://www.w3.org/1999/02/22-rdf-syntax-ns#">
   <cc:Work>
    <dc:type rdf:resource="http://purl.org/dc/dcmitype/StillImage"/>
    <dc:date>2023-07-06T07:46:30.428562</dc:date>
    <dc:format>image/svg+xml</dc:format>
    <dc:creator>
     <cc:Agent>
      <dc:title>Matplotlib v3.3.4, https://matplotlib.org/</dc:title>
     </cc:Agent>
    </dc:creator>
   </cc:Work>
  </rdf:RDF>
 </metadata>
 <defs>
  <style type="text/css">*{stroke-linecap:butt;stroke-linejoin:round;}</style>
 </defs>
 <g id="figure_1">
  <g id="patch_1">
   <path d="M 0 371.002375 
L 426.229375 371.002375 
L 426.229375 0 
L 0 0 
z
" style="fill:#ffffff;"/>
  </g>
  <g id="axes_1">
   <g id="patch_2">
    <path d="M 61.909375 288.430125 
L 419.029375 288.430125 
L 419.029375 22.318125 
L 61.909375 22.318125 
z
" style="fill:#ffffff;"/>
   </g>
   <g id="matplotlib.axis_1">
    <g id="xtick_1">
     <g id="line2d_1">
      <defs>
       <path d="M 0 0 
L 0 3.5 
" id="m27b7bfc534" style="stroke:#000000;stroke-width:0.8;"/>
      </defs>
      <g>
       <use style="stroke:#000000;stroke-width:0.8;" x="61.909375" xlink:href="#m27b7bfc534" y="288.430125"/>
      </g>
     </g>
     <g id="text_1">
      <!-- 0 -->
      <g transform="translate(58.728125 303.028562)scale(0.1 -0.1)">
       <defs>
        <path d="M 31.78125 66.40625 
Q 24.171875 66.40625 20.328125 58.90625 
Q 16.5 51.421875 16.5 36.375 
Q 16.5 21.390625 20.328125 13.890625 
Q 24.171875 6.390625 31.78125 6.390625 
Q 39.453125 6.390625 43.28125 13.890625 
Q 47.125 21.390625 47.125 36.375 
Q 47.125 51.421875 43.28125 58.90625 
Q 39.453125 66.40625 31.78125 66.40625 
z
M 31.78125 74.21875 
Q 44.046875 74.21875 50.515625 64.515625 
Q 56.984375 54.828125 56.984375 36.375 
Q 56.984375 17.96875 50.515625 8.265625 
Q 44.046875 -1.421875 31.78125 -1.421875 
Q 19.53125 -1.421875 13.0625 8.265625 
Q 6.59375 17.96875 6.59375 36.375 
Q 6.59375 54.828125 13.0625 64.515625 
Q 19.53125 74.21875 31.78125 74.21875 
z
" id="DejaVuSans-48"/>
       </defs>
       <use xlink:href="#DejaVuSans-48"/>
      </g>
     </g>
    </g>
    <g id="xtick_2">
     <g id="line2d_2">
      <g>
       <use style="stroke:#000000;stroke-width:0.8;" x="105.457939" xlink:href="#m27b7bfc534" y="288.430125"/>
      </g>
     </g>
     <g id="text_2">
      <!-- 500  -->
      <g transform="translate(94.325127 303.028562)scale(0.1 -0.1)">
       <defs>
        <path d="M 10.796875 72.90625 
L 49.515625 72.90625 
L 49.515625 64.59375 
L 19.828125 64.59375 
L 19.828125 46.734375 
Q 21.96875 47.46875 24.109375 47.828125 
Q 26.265625 48.1875 28.421875 48.1875 
Q 40.625 48.1875 47.75 41.5 
Q 54.890625 34.8125 54.890625 23.390625 
Q 54.890625 11.625 47.5625 5.09375 
Q 40.234375 -1.421875 26.90625 -1.421875 
Q 22.3125 -1.421875 17.546875 -0.640625 
Q 12.796875 0.140625 7.71875 1.703125 
L 7.71875 11.625 
Q 12.109375 9.234375 16.796875 8.0625 
Q 21.484375 6.890625 26.703125 6.890625 
Q 35.15625 6.890625 40.078125 11.328125 
Q 45.015625 15.765625 45.015625 23.390625 
Q 45.015625 31 40.078125 35.4375 
Q 35.15625 39.890625 26.703125 39.890625 
Q 22.75 39.890625 18.8125 39.015625 
Q 14.890625 38.140625 10.796875 36.28125 
z
" id="DejaVuSans-53"/>
        <path id="DejaVuSans-32"/>
       </defs>
       <use xlink:href="#DejaVuSans-53"/>
       <use x="63.623047" xlink:href="#DejaVuSans-48"/>
       <use x="127.246094" xlink:href="#DejaVuSans-48"/>
       <use x="190.869141" xlink:href="#DejaVuSans-32"/>
      </g>
     </g>
    </g>
    <g id="xtick_3">
     <g id="line2d_3">
      <g>
       <use style="stroke:#000000;stroke-width:0.8;" x="149.006503" xlink:href="#m27b7bfc534" y="288.430125"/>
      </g>
     </g>
     <g id="text_3">
      <!-- 1 k -->
      <g transform="translate(141.340878 303.028562)scale(0.1 -0.1)">
       <defs>
        <path d="M 12.40625 8.296875 
L 28.515625 8.296875 
L 28.515625 63.921875 
L 10.984375 60.40625 
L 10.984375 69.390625 
L 28.421875 72.90625 
L 38.28125 72.90625 
L 38.28125 8.296875 
L 54.390625 8.296875 
L 54.390625 0 
L 12.40625 0 
z
" id="DejaVuSans-49"/>
        <path d="M 9.078125 75.984375 
L 18.109375 75.984375 
L 18.109375 31.109375 
L 44.921875 54.6875 
L 56.390625 54.6875 
L 27.390625 29.109375 
L 57.625 0 
L 45.90625 0 
L 18.109375 26.703125 
L 18.109375 0 
L 9.078125 0 
z
" id="DejaVuSans-107"/>
       </defs>
       <use xlink:href="#DejaVuSans-49"/>
       <use x="63.623047" xlink:href="#DejaVuSans-32"/>
       <use x="95.410156" xlink:href="#DejaVuSans-107"/>
      </g>
     </g>
    </g>
    <g id="xtick_4">
     <g id="line2d_4">
      <g>
       <use style="stroke:#000000;stroke-width:0.8;" x="192.555067" xlink:href="#m27b7bfc534" y="288.430125"/>
      </g>
     </g>
     <g id="text_4">
      <!-- 1.5 k -->
      <g transform="translate(180.11913 303.028562)scale(0.1 -0.1)">
       <defs>
        <path d="M 10.6875 12.40625 
L 21 12.40625 
L 21 0 
L 10.6875 0 
z
" id="DejaVuSans-46"/>
       </defs>
       <use xlink:href="#DejaVuSans-49"/>
       <use x="63.623047" xlink:href="#DejaVuSans-46"/>
       <use x="95.410156" xlink:href="#DejaVuSans-53"/>
       <use x="159.033203" xlink:href="#DejaVuSans-32"/>
       <use x="190.820312" xlink:href="#DejaVuSans-107"/>
      </g>
     </g>
    </g>
    <g id="xtick_5">
     <g id="line2d_5">
      <g>
       <use style="stroke:#000000;stroke-width:0.8;" x="236.103631" xlink:href="#m27b7bfc534" y="288.430125"/>
      </g>
     </g>
     <g id="text_5">
      <!-- 2 k -->
      <g transform="translate(228.438006 303.028562)scale(0.1 -0.1)">
       <defs>
        <path d="M 19.1875 8.296875 
L 53.609375 8.296875 
L 53.609375 0 
L 7.328125 0 
L 7.328125 8.296875 
Q 12.9375 14.109375 22.625 23.890625 
Q 32.328125 33.6875 34.8125 36.53125 
Q 39.546875 41.84375 41.421875 45.53125 
Q 43.3125 49.21875 43.3125 52.78125 
Q 43.3125 58.59375 39.234375 62.25 
Q 35.15625 65.921875 28.609375 65.921875 
Q 23.96875 65.921875 18.8125 64.3125 
Q 13.671875 62.703125 7.8125 59.421875 
L 7.8125 69.390625 
Q 13.765625 71.78125 18.9375 73 
Q 24.125 74.21875 28.421875 74.21875 
Q 39.75 74.21875 46.484375 68.546875 
Q 53.21875 62.890625 53.21875 53.421875 
Q 53.21875 48.921875 51.53125 44.890625 
Q 49.859375 40.875 45.40625 35.40625 
Q 44.1875 33.984375 37.640625 27.21875 
Q 31.109375 20.453125 19.1875 8.296875 
z
" id="DejaVuSans-50"/>
       </defs>
       <use xlink:href="#DejaVuSans-50"/>
       <use x="63.623047" xlink:href="#DejaVuSans-32"/>
       <use x="95.410156" xlink:href="#DejaVuSans-107"/>
      </g>
     </g>
    </g>
    <g id="xtick_6">
     <g id="line2d_6">
      <g>
       <use style="stroke:#000000;stroke-width:0.8;" x="279.652196" xlink:href="#m27b7bfc534" y="288.430125"/>
      </g>
     </g>
     <g id="text_6">
      <!-- 2.5 k -->
      <g transform="translate(267.216258 303.028562)scale(0.1 -0.1)">
       <use xlink:href="#DejaVuSans-50"/>
       <use x="63.623047" xlink:href="#DejaVuSans-46"/>
       <use x="95.410156" xlink:href="#DejaVuSans-53"/>
       <use x="159.033203" xlink:href="#DejaVuSans-32"/>
       <use x="190.820312" xlink:href="#DejaVuSans-107"/>
      </g>
     </g>
    </g>
    <g id="xtick_7">
     <g id="line2d_7">
      <g>
       <use style="stroke:#000000;stroke-width:0.8;" x="323.20076" xlink:href="#m27b7bfc534" y="288.430125"/>
      </g>
     </g>
     <g id="text_7">
      <!-- 3 k -->
      <g transform="translate(315.535135 303.028562)scale(0.1 -0.1)">
       <defs>
        <path d="M 40.578125 39.3125 
Q 47.65625 37.796875 51.625 33 
Q 55.609375 28.21875 55.609375 21.1875 
Q 55.609375 10.40625 48.1875 4.484375 
Q 40.765625 -1.421875 27.09375 -1.421875 
Q 22.515625 -1.421875 17.65625 -0.515625 
Q 12.796875 0.390625 7.625 2.203125 
L 7.625 11.71875 
Q 11.71875 9.328125 16.59375 8.109375 
Q 21.484375 6.890625 26.8125 6.890625 
Q 36.078125 6.890625 40.9375 10.546875 
Q 45.796875 14.203125 45.796875 21.1875 
Q 45.796875 27.640625 41.28125 31.265625 
Q 36.765625 34.90625 28.71875 34.90625 
L 20.21875 34.90625 
L 20.21875 43.015625 
L 29.109375 43.015625 
Q 36.375 43.015625 40.234375 45.921875 
Q 44.09375 48.828125 44.09375 54.296875 
Q 44.09375 59.90625 40.109375 62.90625 
Q 36.140625 65.921875 28.71875 65.921875 
Q 24.65625 65.921875 20.015625 65.03125 
Q 15.375 64.15625 9.8125 62.3125 
L 9.8125 71.09375 
Q 15.4375 72.65625 20.34375 73.4375 
Q 25.25 74.21875 29.59375 74.21875 
Q 40.828125 74.21875 47.359375 69.109375 
Q 53.90625 64.015625 53.90625 55.328125 
Q 53.90625 49.265625 50.4375 45.09375 
Q 46.96875 40.921875 40.578125 39.3125 
z
" id="DejaVuSans-51"/>
       </defs>
       <use xlink:href="#DejaVuSans-51"/>
       <use x="63.623047" xlink:href="#DejaVuSans-32"/>
       <use x="95.410156" xlink:href="#DejaVuSans-107"/>
      </g>
     </g>
    </g>
    <g id="xtick_8">
     <g id="line2d_8">
      <g>
       <use style="stroke:#000000;stroke-width:0.8;" x="366.749324" xlink:href="#m27b7bfc534" y="288.430125"/>
      </g>
     </g>
     <g id="text_8">
      <!-- 3.5 k -->
      <g transform="translate(354.313386 303.028562)scale(0.1 -0.1)">
       <use xlink:href="#DejaVuSans-51"/>
       <use x="63.623047" xlink:href="#DejaVuSans-46"/>
       <use x="95.410156" xlink:href="#DejaVuSans-53"/>
       <use x="159.033203" xlink:href="#DejaVuSans-32"/>
       <use x="190.820312" xlink:href="#DejaVuSans-107"/>
      </g>
     </g>
    </g>
    <g id="xtick_9">
     <g id="line2d_9">
      <g>
       <use style="stroke:#000000;stroke-width:0.8;" x="410.297888" xlink:href="#m27b7bfc534" y="288.430125"/>
      </g>
     </g>
     <g id="text_9">
      <!-- 4 k -->
      <g transform="translate(402.632263 303.028562)scale(0.1 -0.1)">
       <defs>
        <path d="M 37.796875 64.3125 
L 12.890625 25.390625 
L 37.796875 25.390625 
z
M 35.203125 72.90625 
L 47.609375 72.90625 
L 47.609375 25.390625 
L 58.015625 25.390625 
L 58.015625 17.1875 
L 47.609375 17.1875 
L 47.609375 0 
L 37.796875 0 
L 37.796875 17.1875 
L 4.890625 17.1875 
L 4.890625 26.703125 
z
" id="DejaVuSans-52"/>
       </defs>
       <use xlink:href="#DejaVuSans-52"/>
       <use x="63.623047" xlink:href="#DejaVuSans-32"/>
       <use x="95.410156" xlink:href="#DejaVuSans-107"/>
      </g>
     </g>
    </g>
    <g id="text_10">
     <!-- Amount of objects in table -->
     <g transform="translate(174.410781 316.706687)scale(0.1 -0.1)">
      <defs>
       <path d="M 34.1875 63.1875 
L 20.796875 26.90625 
L 47.609375 26.90625 
z
M 28.609375 72.90625 
L 39.796875 72.90625 
L 67.578125 0 
L 57.328125 0 
L 50.6875 18.703125 
L 17.828125 18.703125 
L 11.1875 0 
L 0.78125 0 
z
" id="DejaVuSans-65"/>
       <path d="M 52 44.1875 
Q 55.375 50.25 60.0625 53.125 
Q 64.75 56 71.09375 56 
Q 79.640625 56 84.28125 50.015625 
Q 88.921875 44.046875 88.921875 33.015625 
L 88.921875 0 
L 79.890625 0 
L 79.890625 32.71875 
Q 79.890625 40.578125 77.09375 44.375 
Q 74.3125 48.1875 68.609375 48.1875 
Q 61.625 48.1875 57.5625 43.546875 
Q 53.515625 38.921875 53.515625 30.90625 
L 53.515625 0 
L 44.484375 0 
L 44.484375 32.71875 
Q 44.484375 40.625 41.703125 44.40625 
Q 38.921875 48.1875 33.109375 48.1875 
Q 26.21875 48.1875 22.15625 43.53125 
Q 18.109375 38.875 18.109375 30.90625 
L 18.109375 0 
L 9.078125 0 
L 9.078125 54.6875 
L 18.109375 54.6875 
L 18.109375 46.1875 
Q 21.1875 51.21875 25.484375 53.609375 
Q 29.78125 56 35.6875 56 
Q 41.65625 56 45.828125 52.96875 
Q 50 49.953125 52 44.1875 
z
" id="DejaVuSans-109"/>
       <path d="M 30.609375 48.390625 
Q 23.390625 48.390625 19.1875 42.75 
Q 14.984375 37.109375 14.984375 27.296875 
Q 14.984375 17.484375 19.15625 11.84375 
Q 23.34375 6.203125 30.609375 6.203125 
Q 37.796875 6.203125 41.984375 11.859375 
Q 46.1875 17.53125 46.1875 27.296875 
Q 46.1875 37.015625 41.984375 42.703125 
Q 37.796875 48.390625 30.609375 48.390625 
z
M 30.609375 56 
Q 42.328125 56 49.015625 48.375 
Q 55.71875 40.765625 55.71875 27.296875 
Q 55.71875 13.875 49.015625 6.21875 
Q 42.328125 -1.421875 30.609375 -1.421875 
Q 18.84375 -1.421875 12.171875 6.21875 
Q 5.515625 13.875 5.515625 27.296875 
Q 5.515625 40.765625 12.171875 48.375 
Q 18.84375 56 30.609375 56 
z
" id="DejaVuSans-111"/>
       <path d="M 8.5 21.578125 
L 8.5 54.6875 
L 17.484375 54.6875 
L 17.484375 21.921875 
Q 17.484375 14.15625 20.5 10.265625 
Q 23.53125 6.390625 29.59375 6.390625 
Q 36.859375 6.390625 41.078125 11.03125 
Q 45.3125 15.671875 45.3125 23.6875 
L 45.3125 54.6875 
L 54.296875 54.6875 
L 54.296875 0 
L 45.3125 0 
L 45.3125 8.40625 
Q 42.046875 3.421875 37.71875 1 
Q 33.40625 -1.421875 27.6875 -1.421875 
Q 18.265625 -1.421875 13.375 4.4375 
Q 8.5 10.296875 8.5 21.578125 
z
M 31.109375 56 
z
" id="DejaVuSans-117"/>
       <path d="M 54.890625 33.015625 
L 54.890625 0 
L 45.90625 0 
L 45.90625 32.71875 
Q 45.90625 40.484375 42.875 44.328125 
Q 39.84375 48.1875 33.796875 48.1875 
Q 26.515625 48.1875 22.3125 43.546875 
Q 18.109375 38.921875 18.109375 30.90625 
L 18.109375 0 
L 9.078125 0 
L 9.078125 54.6875 
L 18.109375 54.6875 
L 18.109375 46.1875 
Q 21.34375 51.125 25.703125 53.5625 
Q 30.078125 56 35.796875 56 
Q 45.21875 56 50.046875 50.171875 
Q 54.890625 44.34375 54.890625 33.015625 
z
" id="DejaVuSans-110"/>
       <path d="M 18.3125 70.21875 
L 18.3125 54.6875 
L 36.8125 54.6875 
L 36.8125 47.703125 
L 18.3125 47.703125 
L 18.3125 18.015625 
Q 18.3125 11.328125 20.140625 9.421875 
Q 21.96875 7.515625 27.59375 7.515625 
L 36.8125 7.515625 
L 36.8125 0 
L 27.59375 0 
Q 17.1875 0 13.234375 3.875 
Q 9.28125 7.765625 9.28125 18.015625 
L 9.28125 47.703125 
L 2.6875 47.703125 
L 2.6875 54.6875 
L 9.28125 54.6875 
L 9.28125 70.21875 
z
" id="DejaVuSans-116"/>
       <path d="M 37.109375 75.984375 
L 37.109375 68.5 
L 28.515625 68.5 
Q 23.6875 68.5 21.796875 66.546875 
Q 19.921875 64.59375 19.921875 59.515625 
L 19.921875 54.6875 
L 34.71875 54.6875 
L 34.71875 47.703125 
L 19.921875 47.703125 
L 19.921875 0 
L 10.890625 0 
L 10.890625 47.703125 
L 2.296875 47.703125 
L 2.296875 54.6875 
L 10.890625 54.6875 
L 10.890625 58.5 
Q 10.890625 67.625 15.140625 71.796875 
Q 19.390625 75.984375 28.609375 75.984375 
z
" id="DejaVuSans-102"/>
       <path d="M 48.6875 27.296875 
Q 48.6875 37.203125 44.609375 42.84375 
Q 40.53125 48.484375 33.40625 48.484375 
Q 26.265625 48.484375 22.1875 42.84375 
Q 18.109375 37.203125 18.109375 27.296875 
Q 18.109375 17.390625 22.1875 11.75 
Q 26.265625 6.109375 33.40625 6.109375 
Q 40.53125 6.109375 44.609375 11.75 
Q 48.6875 17.390625 48.6875 27.296875 
z
M 18.109375 46.390625 
Q 20.953125 51.265625 25.265625 53.625 
Q 29.59375 56 35.59375 56 
Q 45.5625 56 51.78125 48.09375 
Q 58.015625 40.1875 58.015625 27.296875 
Q 58.015625 14.40625 51.78125 6.484375 
Q 45.5625 -1.421875 35.59375 -1.421875 
Q 29.59375 -1.421875 25.265625 0.953125 
Q 20.953125 3.328125 18.109375 8.203125 
L 18.109375 0 
L 9.078125 0 
L 9.078125 75.984375 
L 18.109375 75.984375 
z
" id="DejaVuSans-98"/>
       <path d="M 9.421875 54.6875 
L 18.40625 54.6875 
L 18.40625 -0.984375 
Q 18.40625 -11.421875 14.421875 -16.109375 
Q 10.453125 -20.796875 1.609375 -20.796875 
L -1.8125 -20.796875 
L -1.8125 -13.1875 
L 0.59375 -13.1875 
Q 5.71875 -13.1875 7.5625 -10.8125 
Q 9.421875 -8.453125 9.421875 -0.984375 
z
M 9.421875 75.984375 
L 18.40625 75.984375 
L 18.40625 64.59375 
L 9.421875 64.59375 
z
" id="DejaVuSans-106"/>
       <path d="M 56.203125 29.59375 
L 56.203125 25.203125 
L 14.890625 25.203125 
Q 15.484375 15.921875 20.484375 11.0625 
Q 25.484375 6.203125 34.421875 6.203125 
Q 39.59375 6.203125 44.453125 7.46875 
Q 49.3125 8.734375 54.109375 11.28125 
L 54.109375 2.78125 
Q 49.265625 0.734375 44.1875 -0.34375 
Q 39.109375 -1.421875 33.890625 -1.421875 
Q 20.796875 -1.421875 13.15625 6.1875 
Q 5.515625 13.8125 5.515625 26.8125 
Q 5.515625 40.234375 12.765625 48.109375 
Q 20.015625 56 32.328125 56 
Q 43.359375 56 49.78125 48.890625 
Q 56.203125 41.796875 56.203125 29.59375 
z
M 47.21875 32.234375 
Q 47.125 39.59375 43.09375 43.984375 
Q 39.0625 48.390625 32.421875 48.390625 
Q 24.90625 48.390625 20.390625 44.140625 
Q 15.875 39.890625 15.1875 32.171875 
z
" id="DejaVuSans-101"/>
       <path d="M 48.78125 52.59375 
L 48.78125 44.1875 
Q 44.96875 46.296875 41.140625 47.34375 
Q 37.3125 48.390625 33.40625 48.390625 
Q 24.65625 48.390625 19.8125 42.84375 
Q 14.984375 37.3125 14.984375 27.296875 
Q 14.984375 17.28125 19.8125 11.734375 
Q 24.65625 6.203125 33.40625 6.203125 
Q 37.3125 6.203125 41.140625 7.25 
Q 44.96875 8.296875 48.78125 10.40625 
L 48.78125 2.09375 
Q 45.015625 0.34375 40.984375 -0.53125 
Q 36.96875 -1.421875 32.421875 -1.421875 
Q 20.0625 -1.421875 12.78125 6.34375 
Q 5.515625 14.109375 5.515625 27.296875 
Q 5.515625 40.671875 12.859375 48.328125 
Q 20.21875 56 33.015625 56 
Q 37.15625 56 41.109375 55.140625 
Q 45.0625 54.296875 48.78125 52.59375 
z
" id="DejaVuSans-99"/>
       <path d="M 44.28125 53.078125 
L 44.28125 44.578125 
Q 40.484375 46.53125 36.375 47.5 
Q 32.28125 48.484375 27.875 48.484375 
Q 21.1875 48.484375 17.84375 46.4375 
Q 14.5 44.390625 14.5 40.28125 
Q 14.5 37.15625 16.890625 35.375 
Q 19.28125 33.59375 26.515625 31.984375 
L 29.59375 31.296875 
Q 39.15625 29.25 43.1875 25.515625 
Q 47.21875 21.78125 47.21875 15.09375 
Q 47.21875 7.46875 41.1875 3.015625 
Q 35.15625 -1.421875 24.609375 -1.421875 
Q 20.21875 -1.421875 15.453125 -0.5625 
Q 10.6875 0.296875 5.421875 2 
L 5.421875 11.28125 
Q 10.40625 8.6875 15.234375 7.390625 
Q 20.0625 6.109375 24.8125 6.109375 
Q 31.15625 6.109375 34.5625 8.28125 
Q 37.984375 10.453125 37.984375 14.40625 
Q 37.984375 18.0625 35.515625 20.015625 
Q 33.0625 21.96875 24.703125 23.78125 
L 21.578125 24.515625 
Q 13.234375 26.265625 9.515625 29.90625 
Q 5.8125 33.546875 5.8125 39.890625 
Q 5.8125 47.609375 11.28125 51.796875 
Q 16.75 56 26.8125 56 
Q 31.78125 56 36.171875 55.265625 
Q 40.578125 54.546875 44.28125 53.078125 
z
" id="DejaVuSans-115"/>
       <path d="M 9.421875 54.6875 
L 18.40625 54.6875 
L 18.40625 0 
L 9.421875 0 
z
M 9.421875 75.984375 
L 18.40625 75.984375 
L 18.40625 64.59375 
L 9.421875 64.59375 
z
" id="DejaVuSans-105"/>
       <path d="M 34.28125 27.484375 
Q 23.390625 27.484375 19.1875 25 
Q 14.984375 22.515625 14.984375 16.5 
Q 14.984375 11.71875 18.140625 8.90625 
Q 21.296875 6.109375 26.703125 6.109375 
Q 34.1875 6.109375 38.703125 11.40625 
Q 43.21875 16.703125 43.21875 25.484375 
L 43.21875 27.484375 
z
M 52.203125 31.203125 
L 52.203125 0 
L 43.21875 0 
L 43.21875 8.296875 
Q 40.140625 3.328125 35.546875 0.953125 
Q 30.953125 -1.421875 24.3125 -1.421875 
Q 15.921875 -1.421875 10.953125 3.296875 
Q 6 8.015625 6 15.921875 
Q 6 25.140625 12.171875 29.828125 
Q 18.359375 34.515625 30.609375 34.515625 
L 43.21875 34.515625 
L 43.21875 35.40625 
Q 43.21875 41.609375 39.140625 45 
Q 35.0625 48.390625 27.6875 48.390625 
Q 23 48.390625 18.546875 47.265625 
Q 14.109375 46.140625 10.015625 43.890625 
L 10.015625 52.203125 
Q 14.9375 54.109375 19.578125 55.046875 
Q 24.21875 56 28.609375 56 
Q 40.484375 56 46.34375 49.84375 
Q 52.203125 43.703125 52.203125 31.203125 
z
" id="DejaVuSans-97"/>
       <path d="M 9.421875 75.984375 
L 18.40625 75.984375 
L 18.40625 0 
L 9.421875 0 
z
" id="DejaVuSans-108"/>
      </defs>
      <use xlink:href="#DejaVuSans-65"/>
      <use x="68.408203" xlink:href="#DejaVuSans-109"/>
      <use x="165.820312" xlink:href="#DejaVuSans-111"/>
      <use x="227.001953" xlink:href="#DejaVuSans-117"/>
      <use x="290.380859" xlink:href="#DejaVuSans-110"/>
      <use x="353.759766" xlink:href="#DejaVuSans-116"/>
      <use x="392.96875" xlink:href="#DejaVuSans-32"/>
      <use x="424.755859" xlink:href="#DejaVuSans-111"/>
      <use x="485.9375" xlink:href="#DejaVuSans-102"/>
      <use x="521.142578" xlink:href="#DejaVuSans-32"/>
      <use x="552.929688" xlink:href="#DejaVuSans-111"/>
      <use x="614.111328" xlink:href="#DejaVuSans-98"/>
      <use x="677.587891" xlink:href="#DejaVuSans-106"/>
      <use x="705.371094" xlink:href="#DejaVuSans-101"/>
      <use x="766.894531" xlink:href="#DejaVuSans-99"/>
      <use x="821.875" xlink:href="#DejaVuSans-116"/>
      <use x="861.083984" xlink:href="#DejaVuSans-115"/>
      <use x="913.183594" xlink:href="#DejaVuSans-32"/>
      <use x="944.970703" xlink:href="#DejaVuSans-105"/>
      <use x="972.753906" xlink:href="#DejaVuSans-110"/>
      <use x="1036.132812" xlink:href="#DejaVuSans-32"/>
      <use x="1067.919922" xlink:href="#DejaVuSans-116"/>
      <use x="1107.128906" xlink:href="#DejaVuSans-97"/>
      <use x="1168.408203" xlink:href="#DejaVuSans-98"/>
      <use x="1231.884766" xlink:href="#DejaVuSans-108"/>
      <use x="1259.667969" xlink:href="#DejaVuSans-101"/>
     </g>
    </g>
   </g>
   <g id="matplotlib.axis_2">
    <g id="ytick_1">
     <g id="line2d_10">
      <defs>
       <path d="M 0 0 
L -3.5 0 
" id="m41cfb50d65" style="stroke:#000000;stroke-width:0.8;"/>
      </defs>
      <g>
       <use style="stroke:#000000;stroke-width:0.8;" x="61.909375" xlink:href="#m41cfb50d65" y="288.430125"/>
      </g>
     </g>
     <g id="text_11">
      <!-- 0 -->
      <g transform="translate(48.546875 292.229344)scale(0.1 -0.1)">
       <use xlink:href="#DejaVuSans-48"/>
      </g>
     </g>
    </g>
    <g id="ytick_2">
     <g id="line2d_11">
      <g>
       <use style="stroke:#000000;stroke-width:0.8;" x="61.909375" xlink:href="#m41cfb50d65" y="251.212823"/>
      </g>
     </g>
     <g id="text_12">
      <!-- 200 µs -->
      <g transform="translate(21.071875 255.012041)scale(0.1 -0.1)">
       <defs>
        <path d="M 8.5 -20.796875 
L 8.5 54.6875 
L 17.484375 54.6875 
L 17.484375 20.703125 
Q 17.484375 13.625 20.84375 10 
Q 24.21875 6.390625 30.8125 6.390625 
Q 38.03125 6.390625 41.671875 10.484375 
Q 45.3125 14.59375 45.3125 22.796875 
L 45.3125 54.6875 
L 54.296875 54.6875 
L 54.296875 12.59375 
Q 54.296875 9.671875 55.140625 8.28125 
Q 56 6.890625 57.8125 6.890625 
Q 58.25 6.890625 59.03125 7.15625 
Q 59.8125 7.421875 61.1875 8.015625 
L 61.1875 0.78125 
Q 59.1875 -0.34375 57.390625 -0.875 
Q 55.609375 -1.421875 53.90625 -1.421875 
Q 50.53125 -1.421875 48.53125 0.484375 
Q 46.53125 2.390625 45.796875 6.296875 
Q 43.359375 2.4375 39.8125 0.5 
Q 36.28125 -1.421875 31.5 -1.421875 
Q 26.515625 -1.421875 23.015625 0.484375 
Q 19.53125 2.390625 17.484375 6.203125 
L 17.484375 -20.796875 
z
" id="DejaVuSans-181"/>
       </defs>
       <use xlink:href="#DejaVuSans-50"/>
       <use x="63.623047" xlink:href="#DejaVuSans-48"/>
       <use x="127.246094" xlink:href="#DejaVuSans-48"/>
       <use x="190.869141" xlink:href="#DejaVuSans-32"/>
       <use x="222.65625" xlink:href="#DejaVuSans-181"/>
       <use x="286.279297" xlink:href="#DejaVuSans-115"/>
      </g>
     </g>
    </g>
    <g id="ytick_3">
     <g id="line2d_12">
      <g>
       <use style="stroke:#000000;stroke-width:0.8;" x="61.909375" xlink:href="#m41cfb50d65" y="213.99552"/>
      </g>
     </g>
     <g id="text_13">
      <!-- 400 µs -->
      <g transform="translate(21.071875 217.794739)scale(0.1 -0.1)">
       <use xlink:href="#DejaVuSans-52"/>
       <use x="63.623047" xlink:href="#DejaVuSans-48"/>
       <use x="127.246094" xlink:href="#DejaVuSans-48"/>
       <use x="190.869141" xlink:href="#DejaVuSans-32"/>
       <use x="222.65625" xlink:href="#DejaVuSans-181"/>
       <use x="286.279297" xlink:href="#DejaVuSans-115"/>
      </g>
     </g>
    </g>
    <g id="ytick_4">
     <g id="line2d_13">
      <g>
       <use style="stroke:#000000;stroke-width:0.8;" x="61.909375" xlink:href="#m41cfb50d65" y="176.778218"/>
      </g>
     </g>
     <g id="text_14">
      <!-- 600 µs -->
      <g transform="translate(21.071875 180.577437)scale(0.1 -0.1)">
       <defs>
        <path d="M 33.015625 40.375 
Q 26.375 40.375 22.484375 35.828125 
Q 18.609375 31.296875 18.609375 23.390625 
Q 18.609375 15.53125 22.484375 10.953125 
Q 26.375 6.390625 33.015625 6.390625 
Q 39.65625 6.390625 43.53125 10.953125 
Q 47.40625 15.53125 47.40625 23.390625 
Q 47.40625 31.296875 43.53125 35.828125 
Q 39.65625 40.375 33.015625 40.375 
z
M 52.59375 71.296875 
L 52.59375 62.3125 
Q 48.875 64.0625 45.09375 64.984375 
Q 41.3125 65.921875 37.59375 65.921875 
Q 27.828125 65.921875 22.671875 59.328125 
Q 17.53125 52.734375 16.796875 39.40625 
Q 19.671875 43.65625 24.015625 45.921875 
Q 28.375 48.1875 33.59375 48.1875 
Q 44.578125 48.1875 50.953125 41.515625 
Q 57.328125 34.859375 57.328125 23.390625 
Q 57.328125 12.15625 50.6875 5.359375 
Q 44.046875 -1.421875 33.015625 -1.421875 
Q 20.359375 -1.421875 13.671875 8.265625 
Q 6.984375 17.96875 6.984375 36.375 
Q 6.984375 53.65625 15.1875 63.9375 
Q 23.390625 74.21875 37.203125 74.21875 
Q 40.921875 74.21875 44.703125 73.484375 
Q 48.484375 72.75 52.59375 71.296875 
z
" id="DejaVuSans-54"/>
       </defs>
       <use xlink:href="#DejaVuSans-54"/>
       <use x="63.623047" xlink:href="#DejaVuSans-48"/>
       <use x="127.246094" xlink:href="#DejaVuSans-48"/>
       <use x="190.869141" xlink:href="#DejaVuSans-32"/>
       <use x="222.65625" xlink:href="#DejaVuSans-181"/>
       <use x="286.279297" xlink:href="#DejaVuSans-115"/>
      </g>
     </g>
    </g>
    <g id="ytick_5">
     <g id="line2d_14">
      <g>
       <use style="stroke:#000000;stroke-width:0.8;" x="61.909375" xlink:href="#m41cfb50d65" y="139.560916"/>
      </g>
     </g>
     <g id="text_15">
      <!-- 800 µs -->
      <g transform="translate(21.071875 143.360135)scale(0.1 -0.1)">
       <defs>
        <path d="M 31.78125 34.625 
Q 24.75 34.625 20.71875 30.859375 
Q 16.703125 27.09375 16.703125 20.515625 
Q 16.703125 13.921875 20.71875 10.15625 
Q 24.75 6.390625 31.78125 6.390625 
Q 38.8125 6.390625 42.859375 10.171875 
Q 46.921875 13.96875 46.921875 20.515625 
Q 46.921875 27.09375 42.890625 30.859375 
Q 38.875 34.625 31.78125 34.625 
z
M 21.921875 38.8125 
Q 15.578125 40.375 12.03125 44.71875 
Q 8.5 49.078125 8.5 55.328125 
Q 8.5 64.0625 14.71875 69.140625 
Q 20.953125 74.21875 31.78125 74.21875 
Q 42.671875 74.21875 48.875 69.140625 
Q 55.078125 64.0625 55.078125 55.328125 
Q 55.078125 49.078125 51.53125 44.71875 
Q 48 40.375 41.703125 38.8125 
Q 48.828125 37.15625 52.796875 32.3125 
Q 56.78125 27.484375 56.78125 20.515625 
Q 56.78125 9.90625 50.3125 4.234375 
Q 43.84375 -1.421875 31.78125 -1.421875 
Q 19.734375 -1.421875 13.25 4.234375 
Q 6.78125 9.90625 6.78125 20.515625 
Q 6.78125 27.484375 10.78125 32.3125 
Q 14.796875 37.15625 21.921875 38.8125 
z
M 18.3125 54.390625 
Q 18.3125 48.734375 21.84375 45.5625 
Q 25.390625 42.390625 31.78125 42.390625 
Q 38.140625 42.390625 41.71875 45.5625 
Q 45.3125 48.734375 45.3125 54.390625 
Q 45.3125 60.0625 41.71875 63.234375 
Q 38.140625 66.40625 31.78125 66.40625 
Q 25.390625 66.40625 21.84375 63.234375 
Q 18.3125 60.0625 18.3125 54.390625 
z
" id="DejaVuSans-56"/>
       </defs>
       <use xlink:href="#DejaVuSans-56"/>
       <use x="63.623047" xlink:href="#DejaVuSans-48"/>
       <use x="127.246094" xlink:href="#DejaVuSans-48"/>
       <use x="190.869141" xlink:href="#DejaVuSans-32"/>
       <use x="222.65625" xlink:href="#DejaVuSans-181"/>
       <use x="286.279297" xlink:href="#DejaVuSans-115"/>
      </g>
     </g>
    </g>
    <g id="ytick_6">
     <g id="line2d_15">
      <g>
       <use style="stroke:#000000;stroke-width:0.8;" x="61.909375" xlink:href="#m41cfb50d65" y="102.343613"/>
      </g>
     </g>
     <g id="text_16">
      <!-- 1 ms -->
      <g transform="translate(30.41875 106.142832)scale(0.1 -0.1)">
       <use xlink:href="#DejaVuSans-49"/>
       <use x="63.623047" xlink:href="#DejaVuSans-32"/>
       <use x="95.410156" xlink:href="#DejaVuSans-109"/>
       <use x="192.822266" xlink:href="#DejaVuSans-115"/>
      </g>
     </g>
    </g>
    <g id="ytick_7">
     <g id="line2d_16">
      <g>
       <use style="stroke:#000000;stroke-width:0.8;" x="61.909375" xlink:href="#m41cfb50d65" y="65.126311"/>
      </g>
     </g>
     <g id="text_17">
      <!-- 1.2 ms -->
      <g transform="translate(20.878125 68.92553)scale(0.1 -0.1)">
       <use xlink:href="#DejaVuSans-49"/>
       <use x="63.623047" xlink:href="#DejaVuSans-46"/>
       <use x="95.410156" xlink:href="#DejaVuSans-50"/>
       <use x="159.033203" xlink:href="#DejaVuSans-32"/>
       <use x="190.820312" xlink:href="#DejaVuSans-109"/>
       <use x="288.232422" xlink:href="#DejaVuSans-115"/>
      </g>
     </g>
    </g>
    <g id="ytick_8">
     <g id="line2d_17">
      <g>
       <use style="stroke:#000000;stroke-width:0.8;" x="61.909375" xlink:href="#m41cfb50d65" y="27.909009"/>
      </g>
     </g>
     <g id="text_18">
      <!-- 1.4 ms -->
      <g transform="translate(20.878125 31.708228)scale(0.1 -0.1)">
       <use xlink:href="#DejaVuSans-49"/>
       <use x="63.623047" xlink:href="#DejaVuSans-46"/>
       <use x="95.410156" xlink:href="#DejaVuSans-52"/>
       <use x="159.033203" xlink:href="#DejaVuSans-32"/>
       <use x="190.820312" xlink:href="#DejaVuSans-109"/>
       <use x="288.232422" xlink:href="#DejaVuSans-115"/>
      </g>
     </g>
    </g>
    <g id="text_19">
     <!-- Read latency (s) -->
     <g transform="translate(14.798438 195.98975)rotate(-90)scale(0.1 -0.1)">
      <defs>
       <path d="M 44.390625 34.1875 
Q 47.5625 33.109375 50.5625 29.59375 
Q 53.5625 26.078125 56.59375 19.921875 
L 66.609375 0 
L 56 0 
L 46.6875 18.703125 
Q 43.0625 26.03125 39.671875 28.421875 
Q 36.28125 30.8125 30.421875 30.8125 
L 19.671875 30.8125 
L 19.671875 0 
L 9.8125 0 
L 9.8125 72.90625 
L 32.078125 72.90625 
Q 44.578125 72.90625 50.734375 67.671875 
Q 56.890625 62.453125 56.890625 51.90625 
Q 56.890625 45.015625 53.6875 40.46875 
Q 50.484375 35.9375 44.390625 34.1875 
z
M 19.671875 64.796875 
L 19.671875 38.921875 
L 32.078125 38.921875 
Q 39.203125 38.921875 42.84375 42.21875 
Q 46.484375 45.515625 46.484375 51.90625 
Q 46.484375 58.296875 42.84375 61.546875 
Q 39.203125 64.796875 32.078125 64.796875 
z
" id="DejaVuSans-82"/>
       <path d="M 45.40625 46.390625 
L 45.40625 75.984375 
L 54.390625 75.984375 
L 54.390625 0 
L 45.40625 0 
L 45.40625 8.203125 
Q 42.578125 3.328125 38.25 0.953125 
Q 33.9375 -1.421875 27.875 -1.421875 
Q 17.96875 -1.421875 11.734375 6.484375 
Q 5.515625 14.40625 5.515625 27.296875 
Q 5.515625 40.1875 11.734375 48.09375 
Q 17.96875 56 27.875 56 
Q 33.9375 56 38.25 53.625 
Q 42.578125 51.265625 45.40625 46.390625 
z
M 14.796875 27.296875 
Q 14.796875 17.390625 18.875 11.75 
Q 22.953125 6.109375 30.078125 6.109375 
Q 37.203125 6.109375 41.296875 11.75 
Q 45.40625 17.390625 45.40625 27.296875 
Q 45.40625 37.203125 41.296875 42.84375 
Q 37.203125 48.484375 30.078125 48.484375 
Q 22.953125 48.484375 18.875 42.84375 
Q 14.796875 37.203125 14.796875 27.296875 
z
" id="DejaVuSans-100"/>
       <path d="M 32.171875 -5.078125 
Q 28.375 -14.84375 24.75 -17.8125 
Q 21.140625 -20.796875 15.09375 -20.796875 
L 7.90625 -20.796875 
L 7.90625 -13.28125 
L 13.1875 -13.28125 
Q 16.890625 -13.28125 18.9375 -11.515625 
Q 21 -9.765625 23.484375 -3.21875 
L 25.09375 0.875 
L 2.984375 54.6875 
L 12.5 54.6875 
L 29.59375 11.921875 
L 46.6875 54.6875 
L 56.203125 54.6875 
z
" id="DejaVuSans-121"/>
       <path d="M 31 75.875 
Q 24.46875 64.65625 21.28125 53.65625 
Q 18.109375 42.671875 18.109375 31.390625 
Q 18.109375 20.125 21.3125 9.0625 
Q 24.515625 -2 31 -13.1875 
L 23.1875 -13.1875 
Q 15.875 -1.703125 12.234375 9.375 
Q 8.59375 20.453125 8.59375 31.390625 
Q 8.59375 42.28125 12.203125 53.3125 
Q 15.828125 64.359375 23.1875 75.875 
z
" id="DejaVuSans-40"/>
       <path d="M 8.015625 75.875 
L 15.828125 75.875 
Q 23.140625 64.359375 26.78125 53.3125 
Q 30.421875 42.28125 30.421875 31.390625 
Q 30.421875 20.453125 26.78125 9.375 
Q 23.140625 -1.703125 15.828125 -13.1875 
L 8.015625 -13.1875 
Q 14.5 -2 17.703125 9.0625 
Q 20.90625 20.125 20.90625 31.390625 
Q 20.90625 42.671875 17.703125 53.65625 
Q 14.5 64.65625 8.015625 75.875 
z
" id="DejaVuSans-41"/>
      </defs>
      <use xlink:href="#DejaVuSans-82"/>
      <use x="64.982422" xlink:href="#DejaVuSans-101"/>
      <use x="126.505859" xlink:href="#DejaVuSans-97"/>
      <use x="187.785156" xlink:href="#DejaVuSans-100"/>
      <use x="251.261719" xlink:href="#DejaVuSans-32"/>
      <use x="283.048828" xlink:href="#DejaVuSans-108"/>
      <use x="310.832031" xlink:href="#DejaVuSans-97"/>
      <use x="372.111328" xlink:href="#DejaVuSans-116"/>
      <use x="411.320312" xlink:href="#DejaVuSans-101"/>
      <use x="472.84375" xlink:href="#DejaVuSans-110"/>
      <use x="536.222656" xlink:href="#DejaVuSans-99"/>
      <use x="591.203125" xlink:href="#DejaVuSans-121"/>
      <use x="650.382812" xlink:href="#DejaVuSans-32"/>
      <use x="682.169922" xlink:href="#DejaVuSans-40"/>
      <use x="721.183594" xlink:href="#DejaVuSans-115"/>
      <use x="773.283203" xlink:href="#DejaVuSans-41"/>
     </g>
    </g>
   </g>
   <g id="line2d_18">
    <path clip-path="url(#p4fec0aeb95)" d="M 147.264561 219.079854 
L 148.135532 219.149247 
L 148.571018 219.480517 
L 149.441989 219.595415 
L 149.877475 219.9822 
L 150.31296 220.186513 
L 151.183931 220.135776 
L 152.490388 220.028386 
L 152.925874 220.213815 
L 153.36136 220.224281 
L 153.796845 220.348508 
L 154.667817 220.317565 
L 155.103302 220.487295 
L 155.974273 220.637913 
L 156.845245 220.888641 
L 157.716216 220.889324 
L 158.151702 221.112066 
L 158.587187 221.471093 
L 159.022673 221.57052 
L 159.458159 221.820337 
L 160.32913 221.927727 
L 160.764616 221.831486 
L 162.506558 222.427589 
L 162.942044 222.761817 
L 163.377529 222.806183 
L 164.683986 223.472363 
L 165.119472 223.352915 
L 165.554958 223.438007 
L 165.990443 223.834348 
L 166.425929 223.781563 
L 166.861415 223.574747 
L 167.2969 223.650966 
L 168.603357 223.575657 
L 169.909814 223.648009 
L 170.3453 223.539709 
L 171.651757 223.672353 
L 172.087242 223.847544 
L 172.958213 223.681454 
L 175.135642 223.526285 
L 176.877584 223.735376 
L 177.748556 223.692375 
L 178.619527 223.696015 
L 179.490498 223.642548 
L 180.361469 223.731054 
L 182.103412 223.609558 
L 182.538898 223.414118 
L 182.974383 223.393868 
L 183.409869 223.243477 
L 184.28084 223.379079 
L 185.151811 223.630035 
L 185.587297 223.513544 
L 186.022783 223.522872 
L 186.458268 223.722635 
L 188.635697 223.642321 
L 189.506668 223.873936 
L 190.813125 223.844359 
L 191.24861 223.948563 
L 192.119582 223.988834 
L 195.167981 223.865973 
L 196.474438 223.730143 
L 199.087352 223.75153 
L 199.522838 223.319242 
L 203.006723 223.059868 
L 203.442208 223.319697 
L 206.926093 223.293987 
L 207.361579 223.422308 
L 207.797065 223.429361 
L 208.23255 223.114701 
L 210.409979 223.178862 
L 211.28095 223.126759 
L 212.151921 223.147236 
L 214.764835 222.965675 
L 215.635806 222.736562 
L 216.942263 223.040074 
L 217.377749 222.699476 
L 219.555177 222.454892 
L 219.990663 222.68628 
L 220.426148 222.629627 
L 221.29712 222.814374 
L 221.732605 222.894233 
L 222.168091 222.813236 
L 223.039062 222.877624 
L 226.087462 222.803453 
L 226.522947 222.988427 
L 226.958433 222.948611 
L 227.393919 223.056456 
L 234.797175 222.512909 
L 239.587517 222.560006 
L 241.329459 222.395736 
L 242.20043 222.360698 
L 243.071402 222.18528 
L 243.942373 221.993708 
L 244.377859 221.930685 
L 244.813344 221.644009 
L 246.119801 221.777108 
L 247.861744 221.712947 
L 248.297229 221.574388 
L 249.168201 221.558689 
L 249.603686 221.493845 
L 250.039172 221.68155 
L 251.345629 221.651517 
L 251.781115 221.85401 
L 253.523057 221.835808 
L 255.265 221.835126 
L 257.006942 221.856968 
L 257.442428 221.653565 
L 257.877914 221.74571 
L 260.490827 221.609426 
L 267.023112 221.608743 
L 267.458598 221.759362 
L 268.329569 221.750943 
L 270.071511 221.571657 
L 270.942483 221.645146 
L 271.813454 221.62558 
L 272.24894 221.505676 
L 272.684425 221.52365 
L 273.119911 221.6861 
L 273.990882 221.57234 
L 275.732825 221.515687 
L 276.603796 221.570065 
L 277.910253 221.509317 
L 279.652196 221.560964 
L 280.087681 221.474279 
L 281.829624 221.553228 
L 284.007052 221.503856 
L 284.442538 221.924996 
L 285.748995 222.029428 
L 286.18448 222.059006 
L 286.619966 221.805548 
L 288.797394 221.973003 
L 289.668365 221.940013 
L 290.103851 221.845137 
L 290.539337 221.867889 
L 290.974822 221.499988 
L 291.845794 221.433097 
L 292.716765 221.203757 
L 293.15225 221.370757 
L 294.023222 221.173042 
L 297.507107 220.700027 
L 297.942592 220.62449 
L 298.378078 220.730287 
L 298.813564 220.615161 
L 300.990992 220.555096 
L 301.861963 220.446114 
L 302.297449 220.707307 
L 302.732935 220.772606 
L 304.039391 220.653157 
L 304.910363 220.889551 
L 305.345848 220.509137 
L 307.087791 220.001766 
L 308.394248 219.935785 
L 309.700705 219.625448 
L 311.442647 219.518968 
L 311.878133 219.307602 
L 316.232989 219.125358 
L 316.668475 219.01683 
L 317.103961 219.117622 
L 317.539446 218.98657 
L 318.845903 219.022519 
L 319.281389 218.527662 
L 320.15236 218.432786 
L 321.023331 218.241668 
L 323.636245 217.814613 
L 327.991102 217.720419 
L 328.426587 217.817343 
L 328.862073 217.683106 
L 329.297559 217.729065 
L 329.733044 217.928145 
L 331.474987 217.869445 
L 331.910472 217.682196 
L 332.781444 217.618945 
L 333.216929 217.70199 
L 333.652415 217.557287 
L 334.958872 217.545001 
L 336.265329 217.432833 
L 337.1363 217.280622 
L 341.055671 217.111802 
L 341.491157 216.81466 
L 341.926642 216.781442 
L 342.362128 216.997814 
L 343.233099 216.917727 
L 343.668585 216.734118 
L 344.539556 216.719329 
L 345.410527 216.764378 
L 347.587956 216.671322 
L 348.458927 216.747314 
L 350.636355 216.738669 
L 351.507326 216.654941 
L 354.12024 216.735483 
L 354.555726 216.340963 
L 356.733154 215.926193 
L 357.604125 215.870678 
L 358.475097 215.86408 
L 361.523496 215.652031 
L 363.265439 215.561705 
L 364.13641 215.598109 
L 365.878353 215.329407 
L 367.620295 214.967195 
L 368.926752 214.937844 
L 370.233209 214.820216 
L 371.10418 214.726933 
L 371.539666 214.935114 
L 375.459037 214.860715 
L 375.894522 215.152169 
L 376.765494 215.106437 
L 377.200979 215.267066 
L 378.07195 215.325994 
L 379.813893 215.38606 
L 380.249379 215.323264 
L 381.555836 215.52553 
L 382.426807 215.63929 
L 383.297778 215.66955 
L 383.733264 215.371953 
L 386.781663 215.692302 
L 387.652635 215.591738 
L 388.523606 215.714372 
L 389.394577 215.567166 
L 389.830063 215.526212 
L 390.265548 215.796962 
L 390.701034 215.868858 
L 391.13652 216.05679 
L 392.007491 216.093193 
L 392.442977 215.847016 
L 392.878462 215.790591 
L 395.05589 216.078632 
L 395.491376 215.822899 
L 396.362347 215.689344 
L 396.797833 215.801284 
L 398.10429 215.742129 
L 398.975261 215.813798 
L 399.846233 215.687069 
L 400.281718 215.820624 
L 400.717204 215.71915 
L 402.023661 215.795369 
L 402.023661 215.795369 
" style="fill:none;stroke:#1f77b4;stroke-linecap:square;stroke-opacity:0.8;stroke-width:1.5;"/>
   </g>
   <g id="line2d_19">
    <path clip-path="url(#p4fec0aeb95)" d="M 147.264561 43.195876 
L 149.006503 42.43027 
L 149.441989 42.970859 
L 150.31296 43.005669 
L 150.748446 43.080524 
L 151.183931 43.291663 
L 151.619417 43.010902 
L 152.054903 43.642271 
L 152.490388 43.370385 
L 152.925874 43.502346 
L 153.796845 43.388814 
L 154.232331 45.057904 
L 154.667817 45.369607 
L 155.103302 45.442641 
L 155.974273 45.368696 
L 156.409759 46.133848 
L 156.845245 46.203696 
L 157.28073 46.663743 
L 157.716216 46.895358 
L 158.151702 46.836203 
L 158.587187 47.015034 
L 159.022673 47.619556 
L 159.458159 47.675298 
L 159.893644 47.950371 
L 160.32913 48.002018 
L 161.200101 47.670065 
L 162.071072 48.599486 
L 162.506558 48.507796 
L 162.942044 48.956466 
L 163.813015 49.100031 
L 165.990443 48.977625 
L 166.425929 49.117323 
L 166.861415 48.812445 
L 167.732386 48.660917 
L 168.167871 48.358315 
L 168.603357 48.662282 
L 169.038843 47.827737 
L 169.909814 47.918063 
L 170.780785 47.542882 
L 171.216271 48.230676 
L 172.087242 48.109635 
L 172.522728 47.794064 
L 173.393699 47.870966 
L 173.829185 47.906687 
L 174.26467 48.383114 
L 174.700156 48.280958 
L 176.442099 48.440905 
L 176.877584 48.630657 
L 177.31307 48.594708 
L 178.619527 48.797884 
L 179.490498 48.190177 
L 179.925984 48.751925 
L 180.361469 48.594481 
L 181.232441 48.979901 
L 182.538898 48.851124 
L 182.974383 48.448185 
L 183.409869 48.872511 
L 183.845355 48.984678 
L 184.28084 48.768989 
L 184.716326 47.874834 
L 185.587297 48.064586 
L 186.022783 47.819091 
L 186.458268 47.753338 
L 186.893754 47.963112 
L 187.32924 47.97426 
L 187.764725 47.762894 
L 188.200211 47.766762 
L 188.635697 47.932397 
L 189.071182 47.897131 
L 189.506668 47.344256 
L 189.942153 47.1677 
L 190.377639 47.115143 
L 190.813125 46.387078 
L 192.990553 46.638715 
L 193.426039 47.228448 
L 193.861524 47.234136 
L 194.732496 47.88712 
L 195.603467 47.681669 
L 196.038952 47.687129 
L 196.474438 47.452783 
L 197.345409 47.365871 
L 197.780895 47.054623 
L 198.651866 47.189087 
L 200.393809 47.191818 
L 201.26478 47.215025 
L 201.700266 47.131752 
L 202.135751 47.275773 
L 203.006723 47.387713 
L 203.442208 47.440042 
L 204.31318 47.205924 
L 204.748665 47.324234 
L 206.055122 47.298752 
L 206.490608 48.154001 
L 206.926093 48.188812 
L 207.361579 48.44864 
L 208.23255 48.456831 
L 208.668036 48.2193 
L 209.103522 48.191542 
L 209.539007 47.99724 
L 209.974493 47.524452 
L 210.409979 47.721713 
L 210.845464 47.659372 
L 211.28095 47.001383 
L 212.151921 46.576375 
L 212.587407 46.616418 
L 213.458378 46.495605 
L 213.893864 46.017585 
L 214.329349 46.267402 
L 215.200321 46.058766 
L 215.635806 46.147726 
L 216.071292 45.917248 
L 216.506778 46.197098 
L 216.942263 46.657372 
L 217.377749 46.49788 
L 217.813235 46.177987 
L 218.24872 46.856907 
L 218.684206 46.781598 
L 219.119691 47.653456 
L 219.555177 47.566089 
L 219.990663 47.221395 
L 222.168091 47.348124 
L 223.910033 46.734502 
L 224.345519 46.24192 
L 225.651976 46.425529 
L 226.087462 46.087433 
L 226.522947 46.315864 
L 227.829404 46.63553 
L 228.26489 46.452376 
L 229.571347 46.474673 
L 230.006832 46.346579 
L 231.748775 46.898316 
L 232.184261 46.684902 
L 232.619746 46.859865 
L 233.490718 46.735867 
L 233.926203 47.120604 
L 235.23266 46.997288 
L 235.668146 46.746333 
L 236.539117 46.992965 
L 236.974603 47.480541 
L 237.410088 47.607042 
L 237.845574 47.533553 
L 238.28106 47.625927 
L 238.716545 47.601354 
L 239.587517 46.835293 
L 240.458488 46.656234 
L 240.893974 46.625292 
L 241.329459 46.83006 
L 242.20043 46.805488 
L 242.635916 46.755888 
L 243.071402 46.478086 
L 243.506887 46.360913 
L 245.24883 46.649864 
L 245.684316 47.152457 
L 246.119801 47.349717 
L 246.555287 47.132207 
L 246.990772 47.089206 
L 247.861744 47.478266 
L 250.039172 47.240279 
L 250.910143 47.188405 
L 251.345629 45.754799 
L 251.781115 45.84922 
L 252.652086 45.722491 
L 253.087571 45.971398 
L 253.523057 45.750931 
L 253.958543 46.534511 
L 254.394028 46.595487 
L 254.829514 46.969303 
L 255.265 47.029368 
L 255.700485 47.258254 
L 256.135971 47.061903 
L 257.006942 46.993192 
L 257.442428 47.55312 
L 258.313399 47.551982 
L 259.18437 47.425936 
L 259.619856 47.475536 
L 260.055342 47.303985 
L 261.361799 47.275773 
L 261.797284 46.994102 
L 262.23277 46.908327 
L 262.668256 47.024363 
L 263.539227 46.632572 
L 264.410198 47.022315 
L 265.281169 47.254613 
L 265.716655 47.492144 
L 266.152141 47.47326 
L 266.587626 47.078057 
L 267.023112 47.143811 
L 267.458598 46.93654 
L 267.894083 47.391353 
L 268.765055 47.222305 
L 269.20054 47.253021 
L 269.636026 48.084153 
L 270.506997 48.480493 
L 270.942483 48.570136 
L 271.377968 48.499832 
L 271.813454 48.661144 
L 272.24894 48.623148 
L 272.684425 48.711199 
L 273.119911 48.331012 
L 273.555397 48.30826 
L 273.990882 48.410189 
L 274.426368 48.704601 
L 274.861854 48.821774 
L 275.297339 48.621101 
L 275.732825 49.213336 
L 276.16831 49.203326 
L 277.474767 48.655229 
L 277.910253 48.519399 
L 278.345739 48.175843 
L 279.652196 47.99906 
L 280.523167 48.052072 
L 281.394138 47.452328 
L 281.829624 46.973398 
L 282.265109 46.706289 
L 283.136081 47.159965 
L 283.571566 47.151546 
L 284.007052 47.322414 
L 284.442538 47.348352 
L 284.878023 47.258481 
L 285.748995 46.85941 
L 286.18448 46.767719 
L 286.619966 46.927211 
L 287.055451 45.898364 
L 287.490937 45.904052 
L 287.926423 45.499976 
L 288.797394 45.607593 
L 289.23288 44.454292 
L 289.668365 44.574195 
L 290.103851 44.281376 
L 290.974822 44.234052 
L 291.845794 43.622022 
L 292.281279 43.494156 
L 293.15225 43.918936 
L 293.587736 44.276371 
L 294.023222 44.232914 
L 294.458707 43.868427 
L 294.894193 44.26545 
L 295.329679 44.118927 
L 295.765164 43.727364 
L 296.20065 43.522823 
L 297.071621 43.54421 
L 297.507107 43.583799 
L 297.942592 43.460028 
L 299.249049 44.252254 
L 300.120021 44.352135 
L 300.555506 44.113466 
L 300.990992 44.097085 
L 301.426478 44.192643 
L 301.861963 43.818145 
L 303.16842 44.000844 
L 303.603906 44.026098 
L 304.039391 43.852045 
L 304.474877 43.082344 
L 304.910363 43.468901 
L 305.345848 42.96153 
L 306.21682 43.017955 
L 306.652305 42.855733 
L 307.087791 41.911296 
L 307.958762 41.813007 
L 308.394248 42.077386 
L 311.007162 42.03848 
L 312.313619 41.509723 
L 315.797504 41.317013 
L 316.232989 41.080164 
L 316.668475 40.997119 
L 317.103961 41.184141 
L 317.539446 40.449022 
L 317.974932 40.56028 
L 319.281389 39.898423 
L 319.716875 39.990796 
L 320.15236 39.707306 
L 320.587846 39.922085 
L 321.023331 39.636319 
L 321.458817 39.769646 
L 321.894303 39.552819 
L 322.765274 39.613112 
L 323.20076 38.843866 
L 323.636245 38.743074 
L 324.507217 39.294129 
L 325.378188 39.033618 
L 326.684645 39.211766 
L 327.12013 39.114615 
L 327.555616 39.216772 
L 328.426587 39.736883 
L 329.733044 39.492527 
L 330.604016 39.259773 
L 331.039501 38.946023 
L 331.910472 38.905524 
L 332.345958 38.614525 
L 334.523386 38.783118 
L 334.958872 38.738524 
L 335.394358 38.83522 
L 335.829843 38.492574 
L 336.265329 39.985108 
L 338.007271 40.213539 
L 338.878243 40.805547 
L 339.749214 40.627398 
L 340.1847 40.428091 
L 341.055671 40.350734 
L 341.491157 39.959854 
L 342.362128 39.911619 
L 343.233099 39.415397 
L 343.668585 39.382862 
L 344.10407 39.037486 
L 344.539556 38.949208 
L 344.975042 38.347871 
L 345.410527 38.317839 
L 345.846013 38.097826 
L 346.716984 38.211359 
L 347.15247 38.430916 
L 348.023441 38.324664 
L 348.894412 38.208401 
L 349.329898 38.373354 
L 349.765384 38.032073 
L 351.071841 37.849829 
L 351.507326 37.260324 
L 351.942812 37.226196 
L 352.378298 37.35884 
L 352.813783 37.335861 
L 353.249269 37.464637 
L 353.684755 37.313564 
L 354.12024 37.447346 
L 354.555726 37.440975 
L 354.991211 36.88264 
L 355.426697 36.735889 
L 355.862183 36.879455 
L 356.297668 36.119309 
L 356.733154 35.82922 
L 357.16864 35.77507 
L 357.604125 35.978701 
L 358.039611 36.334771 
L 358.475097 36.297685 
L 359.346068 36.087456 
L 359.781554 36.102017 
L 360.217039 36.294955 
L 360.652525 36.333406 
L 361.08801 36.086318 
L 361.523496 36.312929 
L 361.958982 36.32476 
L 362.394467 35.462002 
L 363.265439 36.013967 
L 363.700924 35.953219 
L 364.13641 35.750043 
L 364.571896 35.740487 
L 365.007381 35.353703 
L 365.878353 35.553693 
L 366.749324 36.813246 
L 367.184809 36.755911 
L 367.620295 35.803966 
L 368.926752 35.798278 
L 369.362238 35.982569 
L 369.797723 35.772568 
L 370.233209 34.990125 
L 370.668695 35.23744 
L 371.10418 35.350972 
L 371.539666 35.279303 
L 371.975151 36.328628 
L 372.410637 36.224423 
L 372.846123 36.466505 
L 373.717094 36.196666 
L 374.15258 37.351559 
L 374.588065 37.38637 
L 375.023551 37.626632 
L 376.330008 37.923773 
L 377.200979 38.153569 
L 379.813893 36.850559 
L 380.249379 37.007776 
L 380.684864 37.363163 
L 381.12035 37.955399 
L 382.426807 38.243895 
L 383.297778 38.000675 
L 383.733264 38.340136 
L 384.604235 37.805235 
L 385.039721 38.013416 
L 385.475206 38.004998 
L 386.346178 38.30851 
L 386.781663 38.699618 
L 387.217149 38.33331 
L 387.652635 38.523517 
L 388.959091 38.230471 
L 389.394577 38.880724 
L 389.830063 38.609747 
L 390.265548 38.94625 
L 391.572005 38.880042 
L 392.007491 39.685236 
L 393.313948 39.287303 
L 393.749434 39.273652 
L 394.184919 39.384909 
L 394.620405 39.342818 
L 395.05589 39.416535 
L 395.491376 39.193565 
L 396.362347 39.320749 
L 397.233319 39.270694 
L 397.668804 38.992209 
L 398.10429 39.159209 
L 399.410747 39.136685 
L 401.588175 39.387185 
L 402.023661 39.274562 
L 402.023661 39.274562 
" style="fill:none;stroke:#ff7f0e;stroke-linecap:square;stroke-opacity:0.8;stroke-width:1.5;"/>
   </g>
   <g id="line2d_20">
    <path clip-path="url(#p4fec0aeb95)" d="M 0 0 
" style="fill:none;stroke:#2ca02c;stroke-linecap:square;stroke-opacity:0.8;stroke-width:1.5;"/>
   </g>
   <g id="line2d_21">
    <path clip-path="url(#p4fec0aeb95)" d="M 147.264561 78.188517 
L 147.700046 78.069069 
L 148.135532 76.309198 
L 148.571018 76.186565 
L 149.006503 76.354702 
L 149.441989 76.899614 
L 149.877475 77.08345 
L 151.183931 76.668453 
L 151.619417 76.803145 
L 152.054903 76.589276 
L 152.490388 76.614076 
L 152.925874 76.966505 
L 153.36136 76.986754 
L 154.232331 76.307833 
L 154.667817 76.38792 
L 155.103302 75.253503 
L 155.538788 75.348379 
L 155.974273 75.098107 
L 156.409759 74.145479 
L 157.28073 73.952087 
L 158.151702 73.555974 
L 158.587187 73.717513 
L 159.458159 72.424287 
L 159.893644 72.173104 
L 160.32913 72.076636 
L 161.200101 71.489633 
L 161.635587 70.141575 
L 163.377529 69.747737 
L 163.813015 69.750695 
L 164.248501 70.342703 
L 164.683986 69.919287 
L 165.554958 68.188994 
L 165.990443 67.830195 
L 166.861415 67.52327 
L 167.2969 67.458426 
L 167.732386 66.793157 
L 168.167871 67.534873 
L 168.603357 67.379477 
L 169.038843 66.700556 
L 169.909814 65.703789 
L 170.3453 64.934087 
L 171.651757 64.028556 
L 172.087242 63.268183 
L 172.522728 62.98583 
L 172.958213 64.481094 
L 173.829185 64.578928 
L 174.26467 64.107961 
L 175.135642 64.101818 
L 175.571127 63.411293 
L 176.442099 63.218128 
L 176.877584 63.772823 
L 177.31307 64.090897 
L 177.748556 63.788977 
L 178.184041 63.73824 
L 178.619527 63.01427 
L 179.055012 61.680773 
L 179.490498 61.947654 
L 179.925984 60.797539 
L 180.361469 60.712218 
L 180.796955 60.772739 
L 181.232441 60.648058 
L 181.667926 60.772511 
L 182.103412 60.231468 
L 182.538898 60.502672 
L 182.974383 60.312238 
L 183.409869 60.843043 
L 183.845355 60.942242 
L 185.151811 59.986201 
L 186.022783 60.063785 
L 186.458268 59.520466 
L 186.893754 60.681731 
L 187.32924 61.337672 
L 187.764725 61.174767 
L 189.071182 59.940924 
L 189.506668 59.87153 
L 189.942153 59.583945 
L 190.377639 59.47974 
L 190.813125 58.730061 
L 191.24861 58.966682 
L 192.555067 59.105697 
L 192.990553 59.433781 
L 193.426039 59.567108 
L 193.861524 59.106834 
L 194.29701 59.28612 
L 194.732496 59.328894 
L 195.603467 58.895468 
L 196.038952 59.085447 
L 196.474438 59.044039 
L 196.909924 59.312058 
L 197.780895 59.184419 
L 198.216381 59.03471 
L 198.651866 58.707536 
L 199.958323 58.898653 
L 200.393809 59.080214 
L 200.829295 59.479285 
L 201.26478 59.550044 
L 201.700266 59.788486 
L 203.006723 59.649243 
L 203.442208 59.803957 
L 204.31318 59.766871 
L 205.184151 59.885637 
L 205.619637 69.482903 
L 207.361579 70.106992 
L 207.797065 69.836697 
L 208.23255 69.269716 
L 208.668036 69.214429 
L 209.103522 69.600759 
L 209.539007 70.865772 
L 209.974493 71.104669 
L 210.409979 72.004512 
L 210.845464 72.199269 
L 211.28095 71.994501 
L 211.716436 72.140797 
L 212.587407 72.089832 
L 213.458378 72.416324 
L 213.893864 72.251599 
L 214.329349 72.264568 
L 214.764835 71.625008 
L 215.200321 71.418419 
L 215.635806 72.079366 
L 216.071292 72.348523 
L 217.377749 72.068445 
L 217.813235 72.29005 
L 218.24872 72.34875 
L 218.684206 73.357803 
L 219.119691 73.445626 
L 219.555177 73.321855 
L 220.861634 73.537999 
L 221.29712 73.469743 
L 221.732605 73.909313 
L 222.168091 73.763927 
L 222.603577 73.348247 
L 223.039062 73.281129 
L 223.474548 73.455182 
L 225.21649 73.606711 
L 226.522947 72.896619 
L 226.958433 72.994681 
L 227.393919 72.721201 
L 227.829404 73.523211 
L 228.26489 73.494998 
L 228.700376 73.079318 
L 229.135861 73.222656 
L 229.571347 73.489993 
L 230.006832 73.556201 
L 230.442318 74.688798 
L 230.877804 74.597107 
L 231.313289 75.632325 
L 231.748775 75.346787 
L 232.619746 75.294002 
L 233.055232 76.882777 
L 233.490718 77.00268 
L 233.926203 76.757641 
L 234.361689 76.826352 
L 234.797175 76.69439 
L 235.23266 76.29623 
L 236.103631 76.392016 
L 237.410088 76.198851 
L 237.845574 75.871904 
L 238.28106 75.83095 
L 238.716545 76.073942 
L 239.152031 76.167908 
L 239.587517 76.097604 
L 240.023002 77.450668 
L 240.893974 77.608795 
L 241.329459 78.245852 
L 242.20043 77.713454 
L 243.071402 77.868396 
L 243.506887 77.768287 
L 244.377859 79.20303 
L 245.24883 79.662622 
L 245.684316 79.523607 
L 246.119801 79.697432 
L 246.555287 81.053681 
L 246.990772 81.115112 
L 247.861744 81.431365 
L 248.297229 81.31897 
L 248.732715 81.546718 
L 249.168201 81.406338 
L 249.603686 81.650012 
L 250.039172 82.209713 
L 250.474658 83.058591 
L 250.910143 83.405333 
L 251.345629 83.272233 
L 251.781115 83.37712 
L 252.2166 83.000801 
L 252.652086 83.620112 
L 253.523057 82.881808 
L 253.958543 83.810091 
L 254.394028 84.105413 
L 254.829514 84.652144 
L 255.265 85.554718 
L 256.135971 85.788154 
L 256.571457 86.070052 
L 257.006942 87.05021 
L 257.442428 87.164425 
L 258.313399 86.892538 
L 258.748885 87.102539 
L 259.18437 87.551892 
L 259.619856 87.41083 
L 260.055342 87.513896 
L 260.490827 88.322049 
L 261.361799 88.22558 
L 261.797284 88.360727 
L 262.23277 87.92184 
L 262.668256 88.018081 
L 263.103741 87.683626 
L 263.539227 88.513621 
L 263.974712 89.610497 
L 264.410198 89.443724 
L 264.845684 90.577459 
L 265.281169 90.741046 
L 266.152141 90.764253 
L 266.587626 91.09302 
L 267.023112 91.574453 
L 267.458598 91.576273 
L 267.894083 91.730987 
L 268.765055 91.771258 
L 269.20054 91.957598 
L 269.636026 92.374415 
L 270.071511 92.507287 
L 270.942483 92.269301 
L 271.377968 92.867679 
L 271.813454 92.814439 
L 272.24894 92.529584 
L 272.684425 92.584644 
L 273.555397 93.243315 
L 273.990882 93.423512 
L 274.861854 93.579136 
L 275.297339 93.752734 
L 275.732825 94.678059 
L 277.039282 94.26784 
L 278.345739 94.159313 
L 278.781224 94.532901 
L 280.087681 94.653032 
L 280.523167 94.423691 
L 281.394138 94.418913 
L 281.829624 94.284221 
L 282.265109 94.012107 
L 282.700595 94.120179 
L 284.007052 94.721061 
L 284.442538 94.786814 
L 284.878023 94.690573 
L 285.313509 94.444623 
L 285.748995 94.389336 
L 286.18448 94.660995 
L 287.055451 94.450539 
L 287.490937 94.504461 
L 287.926423 94.35498 
L 288.361908 93.877415 
L 290.103851 93.828725 
L 290.539337 93.741358 
L 290.974822 93.443306 
L 291.410308 93.532039 
L 292.281279 93.272211 
L 292.716765 93.515202 
L 293.15225 94.049875 
L 293.587736 93.648074 
L 294.458707 93.368224 
L 294.894193 93.646709 
L 295.765164 93.419644 
L 296.20065 93.29519 
L 296.636136 93.439666 
L 297.071621 93.803243 
L 297.507107 93.780264 
L 297.942592 93.516112 
L 299.249049 93.317487 
L 299.684535 94.050103 
L 301.426478 93.897892 
L 301.861963 93.987307 
L 302.297449 93.807111 
L 302.732935 93.375277 
L 303.16842 93.470153 
L 303.603906 93.307704 
L 304.039391 92.814667 
L 304.474877 93.032859 
L 304.910363 92.62355 
L 305.345848 92.940941 
L 305.781334 92.783497 
L 306.652305 93.080866 
L 307.087791 92.705002 
L 307.523277 92.998048 
L 307.958762 93.097247 
L 308.394248 92.866314 
L 309.265219 93.062209 
L 310.13619 93.001916 
L 310.571676 93.216696 
L 311.878133 93.532039 
L 312.313619 93.760924 
L 312.749104 93.657175 
L 313.18459 93.722018 
L 313.620076 93.442396 
L 314.055561 93.567305 
L 314.491047 93.863991 
L 314.926532 93.344107 
L 315.362018 93.392114 
L 315.797504 93.053791 
L 316.232989 93.024441 
L 316.668475 93.165048 
L 317.539446 93.116587 
L 317.974932 92.536865 
L 318.410418 92.336647 
L 319.281389 92.436528 
L 319.716875 92.343245 
L 320.15236 92.581686 
L 321.023331 92.636518 
L 321.458817 92.495683 
L 321.894303 92.589877 
L 322.329788 91.715516 
L 322.765274 91.59948 
L 324.071731 91.596295 
L 324.507217 91.148307 
L 325.378188 91.110994 
L 326.249159 91.311667 
L 326.684645 91.172425 
L 327.12013 91.437486 
L 328.426587 91.330324 
L 329.297559 91.408591 
L 329.733044 91.129651 
L 330.16853 90.983583 
L 330.604016 91.159001 
L 331.039501 90.891209 
L 331.474987 90.870505 
L 331.910472 91.029314 
L 332.345958 90.922152 
L 332.781444 90.98654 
L 333.216929 90.900083 
L 334.523386 89.943359 
L 334.958872 90.186124 
L 335.394358 89.989773 
L 336.265329 90.091703 
L 337.1363 90.382246 
L 337.571786 90.209331 
L 338.442757 90.581099 
L 338.878243 90.345615 
L 339.313728 90.236861 
L 339.749214 90.312397 
L 340.1847 90.212516 
L 340.620185 90.429798 
L 341.055671 90.483948 
L 341.491157 90.283502 
L 341.926642 89.113365 
L 342.362128 89.031002 
L 343.668585 89.235316 
L 345.410527 89.121783 
L 345.846013 88.851489 
L 346.281499 89.096073 
L 346.716984 88.774587 
L 347.15247 89.055347 
L 347.587956 88.939994 
L 348.894412 89.050797 
L 349.329898 89.223712 
L 349.765384 88.442862 
L 350.636355 87.960291 
L 351.071841 87.872241 
L 351.507326 87.503658 
L 351.942812 87.346441 
L 352.378298 87.051575 
L 352.813783 87.234729 
L 354.12024 87.453831 
L 354.555726 87.645176 
L 354.991211 87.579195 
L 355.426697 87.371013 
L 356.297668 87.329832 
L 356.733154 87.115508 
L 357.16864 87.203103 
L 357.604125 87.134392 
L 358.039611 87.203331 
L 358.475097 87.395813 
L 358.910582 87.347579 
L 359.346068 87.436539 
L 359.781554 87.36396 
L 360.652525 86.922116 
L 361.08801 86.894813 
L 361.523496 87.175573 
L 361.958982 87.30708 
L 363.265439 86.839071 
L 363.700924 87.062723 
L 364.13641 86.902321 
L 365.442867 86.947825 
L 366.313838 86.599492 
L 366.749324 86.606545 
L 367.184809 86.785603 
L 367.620295 86.487552 
L 368.491266 86.572189 
L 368.926752 86.628159 
L 369.797723 86.136715 
L 370.233209 86.02887 
L 370.668695 86.091666 
L 371.10418 85.917613 
L 371.539666 86.129662 
L 371.975151 85.142678 
L 372.846123 85.174759 
L 373.281608 85.673256 
L 373.717094 85.513992 
L 374.15258 85.129027 
L 374.588065 85.384078 
L 375.459037 85.447328 
L 376.330008 84.966805 
L 377.636465 84.676034 
L 378.07195 84.421211 
L 378.507436 84.526326 
L 379.813893 83.885401 
L 380.684864 83.893591 
L 381.12035 84.059909 
L 381.555836 83.744793 
L 382.426807 83.714533 
L 382.862293 83.413978 
L 383.733264 83.422852 
L 384.604235 83.058819 
L 385.039721 83.099318 
L 386.346178 82.911841 
L 386.781663 82.679542 
L 387.217149 82.726867 
L 387.652635 83.034929 
L 388.08812 82.686823 
L 388.523606 82.828568 
L 388.959091 83.269275 
L 389.394577 83.039025 
L 389.830063 83.402602 
L 390.265548 83.153695 
L 390.701034 83.363014 
L 391.13652 83.313642 
L 391.572005 82.916391 
L 392.007491 83.183728 
L 392.878462 83.051311 
L 393.313948 82.996023 
L 394.620405 82.423582 
L 395.05589 82.374438 
L 395.491376 81.9806 
L 395.926862 81.849775 
L 396.362347 81.882993 
L 397.233319 81.613837 
L 397.668804 81.585624 
L 398.10429 81.367205 
L 398.539776 81.93373 
L 398.975261 81.638864 
L 399.410747 81.529654 
L 399.846233 81.659796 
L 400.281718 81.20339 
L 400.717204 81.572883 
L 401.152689 81.533977 
L 401.588175 80.860972 
L 402.023661 80.937191 
L 402.023661 80.937191 
" style="fill:none;stroke:#d62728;stroke-linecap:square;stroke-opacity:0.8;stroke-width:1.5;"/>
   </g>
   <g id="line2d_22">
    <path clip-path="url(#p4fec0aeb95)" d="M 147.264561 192.933435 
L 148.135532 192.946176 
L 148.571018 193.133198 
L 149.006503 192.48704 
L 149.877475 192.449726 
L 150.31296 191.861813 
L 152.054903 191.917328 
L 152.490388 192.60444 
L 152.925874 192.975526 
L 153.36136 192.37601 
L 154.232331 192.392164 
L 154.667817 192.457234 
L 155.103302 192.108901 
L 155.974273 192.230624 
L 156.409759 192.105715 
L 156.845245 192.816717 
L 157.28073 192.926154 
L 157.716216 192.138933 
L 158.151702 192.037687 
L 158.587187 192.1246 
L 159.022673 192.739132 
L 159.458159 192.71183 
L 159.893644 192.203549 
L 160.764616 192.191263 
L 161.200101 193.567989 
L 161.635587 193.638065 
L 162.071072 192.735947 
L 162.942044 192.882698 
L 163.377529 193.63579 
L 163.813015 193.613493 
L 164.248501 192.721841 
L 165.119472 192.605123 
L 165.554958 193.333871 
L 165.990443 193.359125 
L 166.425929 192.669738 
L 166.861415 192.875417 
L 168.167871 192.822405 
L 168.603357 192.990997 
L 169.474328 192.686575 
L 169.909814 193.253556 
L 170.3453 193.162548 
L 170.780785 192.645394 
L 171.216271 192.54938 
L 171.651757 192.609218 
L 172.087242 191.813352 
L 172.522728 191.986267 
L 172.958213 192.676564 
L 173.393699 192.803065 
L 173.829185 192.733217 
L 174.26467 193.407815 
L 174.700156 193.032861 
L 175.135642 192.300245 
L 176.877584 192.114589 
L 177.31307 191.897989 
L 178.184041 191.776721 
L 178.619527 192.396486 
L 179.055012 192.401719 
L 179.490498 191.459785 
L 180.361469 191.423609 
L 180.796955 192.049518 
L 181.232441 192.036549 
L 181.667926 191.303933 
L 182.538898 191.172199 
L 182.974383 192.339151 
L 183.409869 192.367819 
L 183.845355 191.918011 
L 184.716326 191.914371 
L 185.151811 192.728666 
L 185.587297 192.679067 
L 186.022783 191.852258 
L 186.893754 191.863861 
L 187.32924 192.329595 
L 187.764725 192.360538 
L 188.200211 191.500056 
L 190.377639 191.629515 
L 191.24861 191.461833 
L 191.684096 192.334373 
L 192.119582 192.2668 
L 192.555067 191.457965 
L 192.990553 191.430207 
L 193.426039 191.515527 
L 193.861524 191.73918 
L 194.29701 191.779451 
L 194.732496 191.308711 
L 195.167981 191.292785 
L 196.038952 192.04656 
L 196.474438 192.069767 
L 196.909924 192.572132 
L 197.345409 192.63197 
L 197.780895 191.975346 
L 198.216381 191.099165 
L 198.651866 191.093249 
L 199.087352 191.917783 
L 200.829295 192.018803 
L 201.26478 193.68721 
L 201.700266 193.861718 
L 202.135751 193.436255 
L 203.006723 193.181432 
L 203.442208 192.266117 
L 203.877694 192.456779 
L 205.619637 192.376465 
L 206.055122 191.482309 
L 206.490608 191.629743 
L 207.361579 191.509612 
L 208.23255 191.538507 
L 209.103522 191.475484 
L 210.409979 191.285732 
L 210.845464 190.947409 
L 211.28095 189.764758 
L 211.716436 189.543608 
L 212.151921 190.515575 
L 212.587407 190.475077 
L 213.022892 190.06918 
L 213.458378 190.892804 
L 213.893864 190.774948 
L 214.329349 190.180893 
L 215.200321 190.176342 
L 215.635806 189.461473 
L 216.071292 189.436218 
L 216.506778 190.06918 
L 217.377749 189.920609 
L 217.813235 190.310124 
L 218.24872 190.500331 
L 218.684206 189.98022 
L 219.119691 189.833014 
L 219.555177 189.840977 
L 219.990663 189.122923 
L 220.426148 189.109044 
L 220.861634 189.492188 
L 221.29712 189.473304 
L 221.732605 189.324961 
L 222.603577 189.29197 
L 223.039062 189.736318 
L 223.474548 189.428028 
L 224.345519 189.372513 
L 224.781005 188.949097 
L 225.21649 189.327464 
L 225.651976 189.320638 
L 226.087462 188.696549 
L 226.522947 188.674025 
L 226.958433 188.905413 
L 227.393919 189.608906 
L 227.829404 189.445547 
L 228.26489 188.831469 
L 228.700376 189.383434 
L 230.006832 189.370237 
L 230.442318 189.50948 
L 230.877804 190.225032 
L 231.313289 189.630748 
L 232.184261 189.556122 
L 232.619746 188.948187 
L 233.055232 188.900863 
L 233.490718 188.981405 
L 233.926203 189.34612 
L 234.361689 189.373195 
L 234.797175 189.262848 
L 235.23266 189.840295 
L 235.668146 189.238276 
L 236.539117 189.276726 
L 236.974603 188.64331 
L 237.410088 188.386439 
L 237.845574 188.323416 
L 238.28106 188.889487 
L 238.716545 189.126108 
L 239.152031 189.127928 
L 239.587517 189.724032 
L 240.023002 189.995691 
L 240.458488 189.444864 
L 240.893974 189.442361 
L 241.329459 188.177803 
L 242.20043 188.190544 
L 242.635916 187.764171 
L 243.071402 187.76053 
L 244.377859 187.401048 
L 244.813344 188.056534 
L 245.24883 187.941637 
L 245.684316 187.267494 
L 246.119801 187.279325 
L 246.990772 187.029735 
L 247.861744 186.964891 
L 248.732715 186.881164 
L 249.168201 187.785785 
L 249.603686 187.866327 
L 250.039172 186.806765 
L 250.910143 186.677533 
L 251.345629 187.412197 
L 251.781115 187.396498 
L 252.2166 186.842713 
L 253.087571 186.861142 
L 255.265 187.014946 
L 255.700485 186.873656 
L 256.135971 186.976495 
L 256.571457 186.841575 
L 257.006942 187.567366 
L 257.442428 187.527094 
L 257.877914 186.569916 
L 259.18437 186.400413 
L 259.619856 186.738509 
L 260.055342 186.596991 
L 260.490827 186.040476 
L 260.926313 185.823649 
L 261.361799 186.410879 
L 262.23277 186.420435 
L 262.668256 186.389492 
L 263.103741 185.677808 
L 264.410198 185.847766 
L 264.845684 185.631622 
L 266.152141 185.559043 
L 266.587626 186.22363 
L 267.458598 186.220445 
L 267.894083 185.331067 
L 268.329569 185.322422 
L 268.765055 185.853454 
L 269.20054 185.228683 
L 269.636026 185.103774 
L 270.071511 185.10514 
L 270.506997 184.944283 
L 270.942483 185.72718 
L 271.813454 185.64095 
L 272.24894 185.026873 
L 272.684425 185.003438 
L 273.119911 185.852317 
L 274.861854 184.543847 
L 275.297339 185.21981 
L 276.16831 185.358142 
L 276.603796 183.551175 
L 277.039282 183.527285 
L 277.474767 184.32611 
L 277.910253 184.116791 
L 278.345739 184.253303 
L 278.781224 183.57279 
L 279.21671 183.608283 
L 279.652196 184.96658 
L 280.087681 183.558456 
L 280.523167 183.403514 
L 280.958652 183.543667 
L 281.394138 183.358238 
L 281.829624 183.346862 
L 282.265109 182.446791 
L 282.700595 183.090446 
L 283.136081 183.937505 
L 283.571566 183.816236 
L 284.007052 183.814189 
L 284.878023 184.039661 
L 285.313509 182.478416 
L 285.748995 182.479781 
L 286.18448 182.314147 
L 286.619966 181.66048 
L 287.055451 182.014957 
L 287.490937 181.994253 
L 287.926423 181.859561 
L 288.361908 182.608786 
L 289.23288 182.416531 
L 289.668365 180.889641 
L 290.103851 180.802273 
L 290.539337 180.836174 
L 290.974822 181.160391 
L 291.845794 181.019783 
L 292.281279 181.025926 
L 292.716765 181.65138 
L 293.15225 181.553091 
L 293.587736 181.56879 
L 294.023222 180.903975 
L 294.894193 180.734472 
L 295.329679 180.876673 
L 295.765164 181.2109 
L 296.20065 181.837946 
L 296.636136 182.261134 
L 297.507107 182.243615 
L 297.942592 182.570107 
L 298.378078 181.992205 
L 298.813564 181.993798 
L 299.249049 182.628352 
L 299.684535 182.221773 
L 300.555506 182.231557 
L 301.426478 182.095727 
L 301.861963 182.252261 
L 302.297449 182.270463 
L 302.732935 181.125125 
L 304.474877 181.707577 
L 304.910363 181.336719 
L 305.345848 181.280749 
L 305.781334 181.549906 
L 306.652305 181.522831 
L 307.087791 180.867117 
L 307.523277 180.833216 
L 307.958762 181.541032 
L 308.394248 181.068017 
L 308.829734 180.907388 
L 309.700705 181.091224 
L 310.13619 181.736017 
L 310.571676 181.650925 
L 311.007162 182.169444 
L 311.442647 181.336264 
L 311.878133 181.167671 
L 312.313619 180.766325 
L 312.749104 179.987523 
L 313.18459 180.62276 
L 314.055561 180.225054 
L 314.926532 180.117664 
L 315.362018 179.950892 
L 315.797504 179.205763 
L 316.232989 179.699937 
L 316.668475 179.674682 
L 317.103961 179.405298 
L 317.539446 179.804141 
L 317.974932 178.293633 
L 318.410418 178.299094 
L 319.281389 178.490438 
L 319.716875 178.486116 
L 320.15236 177.847466 
L 320.587846 178.263828 
L 321.023331 177.81038 
L 321.458817 177.748949 
L 321.894303 178.33982 
L 322.329788 177.903208 
L 322.765274 177.693889 
L 323.636245 177.611072 
L 324.071731 177.555557 
L 324.507217 176.909627 
L 324.942702 176.960591 
L 325.378188 177.410627 
L 325.813674 177.14693 
L 326.249159 178.483613 
L 326.684645 177.802872 
L 327.12013 177.808787 
L 327.555616 178.806919 
L 328.426587 179.084722 
L 328.862073 178.660396 
L 329.733044 178.655846 
L 330.16853 178.64265 
L 330.604016 179.360249 
L 331.039501 178.613982 
L 331.474987 178.743896 
L 331.910472 179.687878 
L 332.781444 179.639417 
L 333.216929 179.360021 
L 333.652415 179.403023 
L 334.087901 178.438336 
L 334.523386 178.427643 
L 334.958872 179.210541 
L 335.394358 179.03626 
L 336.265329 179.113844 
L 336.700815 179.092685 
L 338.007271 178.730472 
L 338.442757 179.26378 
L 338.878243 179.252632 
L 339.313728 178.45267 
L 339.749214 178.550276 
L 340.1847 178.484523 
L 340.620185 179.083812 
L 341.055671 179.03626 
L 341.491157 178.45267 
L 342.362128 178.532302 
L 342.797614 179.489026 
L 343.233099 179.53817 
L 343.668585 179.000084 
L 344.539556 178.58577 
L 344.975042 179.382318 
L 345.410527 179.942019 
L 345.846013 179.241711 
L 346.281499 179.192339 
L 346.716984 178.636052 
L 347.15247 178.836042 
L 348.458927 178.798046 
L 348.894412 178.697937 
L 349.329898 179.017831 
L 349.765384 179.187106 
L 350.200869 178.693159 
L 351.942812 178.603516 
L 352.378298 177.891832 
L 352.813783 178.747081 
L 353.249269 178.746399 
L 353.684755 178.62149 
L 354.12024 179.225784 
L 354.555726 179.29313 
L 354.991211 179.126813 
L 355.426697 178.596235 
L 355.862183 178.359614 
L 356.297668 178.341185 
L 356.733154 177.522794 
L 357.16864 178.036763 
L 358.039611 177.406986 
L 359.346068 178.064748 
L 359.781554 177.416542 
L 360.652525 177.334635 
L 361.08801 176.271659 
L 361.523496 177.737346 
L 362.394467 177.521201 
L 362.829953 177.711409 
L 363.265439 176.903256 
L 363.700924 177.411537 
L 364.13641 177.097558 
L 364.571896 177.004048 
L 365.007381 178.400113 
L 365.442867 177.81493 
L 365.878353 177.776252 
L 366.313838 177.851106 
L 366.749324 177.660444 
L 367.184809 178.489528 
L 367.620295 177.672958 
L 368.926752 177.553964 
L 369.362238 177.383552 
L 369.797723 176.745357 
L 370.233209 177.980793 
L 370.668695 177.789676 
L 371.10418 178.013101 
L 371.539666 178.557784 
L 371.975151 177.503455 
L 373.281608 177.862482 
L 373.717094 177.848831 
L 374.15258 177.133507 
L 374.588065 178.576441 
L 375.459037 178.675185 
L 375.894522 179.31338 
L 376.330008 179.331809 
L 376.765494 178.986888 
L 377.200979 178.220372 
L 378.07195 178.31684 
L 378.507436 177.209043 
L 378.942922 177.819708 
L 379.378407 177.877953 
L 379.813893 177.61676 
L 380.684864 177.547821 
L 381.12035 178.131411 
L 381.555836 177.065933 
L 381.991321 176.974697 
L 382.426807 176.653666 
L 382.862293 175.745632 
L 383.297778 176.301465 
L 383.733264 176.172005 
L 384.168749 175.9165 
L 384.604235 176.271659 
L 385.039721 176.155396 
L 385.475206 177.031122 
L 385.910692 176.495084 
L 386.346178 176.596331 
L 386.781663 176.426373 
L 387.217149 176.468237 
L 387.652635 177.78649 
L 388.08812 177.001545 
L 388.523606 177.361937 
L 388.959091 177.310745 
L 389.394577 176.574261 
L 389.830063 177.685926 
L 391.13652 177.582177 
L 391.572005 176.845693 
L 392.007491 177.442934 
L 392.442977 177.304147 
L 392.878462 177.347376 
L 393.313948 178.052689 
L 393.749434 176.929193 
L 394.184919 176.685746 
L 394.620405 176.787448 
L 395.491376 176.543091 
L 395.926862 175.793184 
L 396.362347 176.610665 
L 396.797833 176.734436 
L 397.233319 177.126681 
L 397.668804 178.006958 
L 398.539776 178.015376 
L 398.975261 177.250452 
L 399.410747 177.029302 
L 399.846233 177.023614 
L 400.281718 176.36699 
L 400.717204 176.952855 
L 401.152689 176.991989 
L 401.588175 176.745357 
L 402.023661 176.974015 
L 402.023661 176.974015 
" style="fill:none;stroke:#9467bd;stroke-linecap:square;stroke-opacity:0.8;stroke-width:1.5;"/>
   </g>
   <g id="patch_3">
    <path d="M 61.909375 288.430125 
L 61.909375 22.318125 
" style="fill:none;stroke:#000000;stroke-linecap:square;stroke-linejoin:miter;stroke-width:0.8;"/>
   </g>
   <g id="patch_4">
    <path d="M 419.029375 288.430125 
L 419.029375 22.318125 
" style="fill:none;stroke:#000000;stroke-linecap:square;stroke-linejoin:miter;stroke-width:0.8;"/>
   </g>
   <g id="patch_5">
    <path d="M 61.909375 288.430125 
L 419.029375 288.430125 
" style="fill:none;stroke:#000000;stroke-linecap:square;stroke-linejoin:miter;stroke-width:0.8;"/>
   </g>
   <g id="patch_6">
    <path d="M 61.909375 22.318125 
L 419.029375 22.318125 
" style="fill:none;stroke:#000000;stroke-linecap:square;stroke-linejoin:miter;stroke-width:0.8;"/>
   </g>
   <g id="text_20">
    <!-- Get filtered descendants count [leaf] -->
    <g transform="translate(129.882812 16.318125)scale(0.12 -0.12)">
     <defs>
      <path d="M 59.515625 10.40625 
L 59.515625 29.984375 
L 43.40625 29.984375 
L 43.40625 38.09375 
L 69.28125 38.09375 
L 69.28125 6.78125 
Q 63.578125 2.734375 56.6875 0.65625 
Q 49.8125 -1.421875 42 -1.421875 
Q 24.90625 -1.421875 15.25 8.5625 
Q 5.609375 18.5625 5.609375 36.375 
Q 5.609375 54.25 15.25 64.234375 
Q 24.90625 74.21875 42 74.21875 
Q 49.125 74.21875 55.546875 72.453125 
Q 61.96875 70.703125 67.390625 67.28125 
L 67.390625 56.78125 
Q 61.921875 61.421875 55.765625 63.765625 
Q 49.609375 66.109375 42.828125 66.109375 
Q 29.4375 66.109375 22.71875 58.640625 
Q 16.015625 51.171875 16.015625 36.375 
Q 16.015625 21.625 22.71875 14.15625 
Q 29.4375 6.6875 42.828125 6.6875 
Q 48.046875 6.6875 52.140625 7.59375 
Q 56.25 8.5 59.515625 10.40625 
z
" id="DejaVuSans-71"/>
      <path d="M 41.109375 46.296875 
Q 39.59375 47.171875 37.8125 47.578125 
Q 36.03125 48 33.890625 48 
Q 26.265625 48 22.1875 43.046875 
Q 18.109375 38.09375 18.109375 28.8125 
L 18.109375 0 
L 9.078125 0 
L 9.078125 54.6875 
L 18.109375 54.6875 
L 18.109375 46.1875 
Q 20.953125 51.171875 25.484375 53.578125 
Q 30.03125 56 36.53125 56 
Q 37.453125 56 38.578125 55.875 
Q 39.703125 55.765625 41.0625 55.515625 
z
" id="DejaVuSans-114"/>
      <path d="M 8.59375 75.984375 
L 29.296875 75.984375 
L 29.296875 69 
L 17.578125 69 
L 17.578125 -6.203125 
L 29.296875 -6.203125 
L 29.296875 -13.1875 
L 8.59375 -13.1875 
z
" id="DejaVuSans-91"/>
      <path d="M 30.421875 75.984375 
L 30.421875 -13.1875 
L 9.71875 -13.1875 
L 9.71875 -6.203125 
L 21.390625 -6.203125 
L 21.390625 69 
L 9.71875 69 
L 9.71875 75.984375 
z
" id="DejaVuSans-93"/>
     </defs>
     <use xlink:href="#DejaVuSans-71"/>
     <use x="77.490234" xlink:href="#DejaVuSans-101"/>
     <use x="139.013672" xlink:href="#DejaVuSans-116"/>
     <use x="178.222656" xlink:href="#DejaVuSans-32"/>
     <use x="210.009766" xlink:href="#DejaVuSans-102"/>
     <use x="245.214844" xlink:href="#DejaVuSans-105"/>
     <use x="272.998047" xlink:href="#DejaVuSans-108"/>
     <use x="300.78125" xlink:href="#DejaVuSans-116"/>
     <use x="339.990234" xlink:href="#DejaVuSans-101"/>
     <use x="401.513672" xlink:href="#DejaVuSans-114"/>
     <use x="440.376953" xlink:href="#DejaVuSans-101"/>
     <use x="501.900391" xlink:href="#DejaVuSans-100"/>
     <use x="565.376953" xlink:href="#DejaVuSans-32"/>
     <use x="597.164062" xlink:href="#DejaVuSans-100"/>
     <use x="660.640625" xlink:href="#DejaVuSans-101"/>
     <use x="722.164062" xlink:href="#DejaVuSans-115"/>
     <use x="774.263672" xlink:href="#DejaVuSans-99"/>
     <use x="829.244141" xlink:href="#DejaVuSans-101"/>
     <use x="890.767578" xlink:href="#DejaVuSans-110"/>
     <use x="954.146484" xlink:href="#DejaVuSans-100"/>
     <use x="1017.623047" xlink:href="#DejaVuSans-97"/>
     <use x="1078.902344" xlink:href="#DejaVuSans-110"/>
     <use x="1142.28125" xlink:href="#DejaVuSans-116"/>
     <use x="1181.490234" xlink:href="#DejaVuSans-115"/>
     <use x="1233.589844" xlink:href="#DejaVuSans-32"/>
     <use x="1265.376953" xlink:href="#DejaVuSans-99"/>
     <use x="1320.357422" xlink:href="#DejaVuSans-111"/>
     <use x="1381.539062" xlink:href="#DejaVuSans-117"/>
     <use x="1444.917969" xlink:href="#DejaVuSans-110"/>
     <use x="1508.296875" xlink:href="#DejaVuSans-116"/>
     <use x="1547.505859" xlink:href="#DejaVuSans-32"/>
     <use x="1579.292969" xlink:href="#DejaVuSans-91"/>
     <use x="1618.306641" xlink:href="#DejaVuSans-108"/>
     <use x="1646.089844" xlink:href="#DejaVuSans-101"/>
     <use x="1707.613281" xlink:href="#DejaVuSans-97"/>
     <use x="1768.892578" xlink:href="#DejaVuSans-102"/>
     <use x="1804.097656" xlink:href="#DejaVuSans-93"/>
    </g>
   </g>
   <g id="legend_1">
    <g id="patch_7">
     <path d="M 92.911719 365.802375 
L 380.507031 365.802375 
Q 382.507031 365.802375 382.507031 363.802375 
L 382.507031 335.446125 
Q 382.507031 333.446125 380.507031 333.446125 
L 92.911719 333.446125 
Q 90.911719 333.446125 90.911719 335.446125 
L 90.911719 363.802375 
Q 90.911719 365.802375 92.911719 365.802375 
z
" style="fill:#4c4c4c;opacity:0.5;stroke:#4c4c4c;stroke-linejoin:miter;"/>
    </g>
    <g id="patch_8">
     <path d="M 90.911719 363.802375 
L 378.507031 363.802375 
Q 380.507031 363.802375 380.507031 361.802375 
L 380.507031 333.446125 
Q 380.507031 331.446125 378.507031 331.446125 
L 90.911719 331.446125 
Q 88.911719 331.446125 88.911719 333.446125 
L 88.911719 361.802375 
Q 88.911719 363.802375 90.911719 363.802375 
z
" style="fill:#ffffff;stroke:#cccccc;stroke-linejoin:miter;"/>
    </g>
    <g id="line2d_23">
     <path d="M 92.911719 339.544562 
L 112.911719 339.544562 
" style="fill:none;stroke:#1f77b4;stroke-linecap:square;stroke-opacity:0.8;stroke-width:1.5;"/>
    </g>
    <g id="line2d_24"/>
    <g id="text_21">
     <!-- MPTT -->
     <g transform="translate(120.911719 343.044562)scale(0.1 -0.1)">
      <defs>
       <path d="M 9.8125 72.90625 
L 24.515625 72.90625 
L 43.109375 23.296875 
L 61.8125 72.90625 
L 76.515625 72.90625 
L 76.515625 0 
L 66.890625 0 
L 66.890625 64.015625 
L 48.09375 14.015625 
L 38.1875 14.015625 
L 19.390625 64.015625 
L 19.390625 0 
L 9.8125 0 
z
" id="DejaVuSans-77"/>
       <path d="M 19.671875 64.796875 
L 19.671875 37.40625 
L 32.078125 37.40625 
Q 38.96875 37.40625 42.71875 40.96875 
Q 46.484375 44.53125 46.484375 51.125 
Q 46.484375 57.671875 42.71875 61.234375 
Q 38.96875 64.796875 32.078125 64.796875 
z
M 9.8125 72.90625 
L 32.078125 72.90625 
Q 44.34375 72.90625 50.609375 67.359375 
Q 56.890625 61.8125 56.890625 51.125 
Q 56.890625 40.328125 50.609375 34.8125 
Q 44.34375 29.296875 32.078125 29.296875 
L 19.671875 29.296875 
L 19.671875 0 
L 9.8125 0 
z
" id="DejaVuSans-80"/>
       <path d="M -0.296875 72.90625 
L 61.375 72.90625 
L 61.375 64.59375 
L 35.5 64.59375 
L 35.5 0 
L 25.59375 0 
L 25.59375 64.59375 
L -0.296875 64.59375 
z
" id="DejaVuSans-84"/>
      </defs>
      <use xlink:href="#DejaVuSans-77"/>
      <use x="86.279297" xlink:href="#DejaVuSans-80"/>
      <use x="146.582031" xlink:href="#DejaVuSans-84"/>
      <use x="205.916016" xlink:href="#DejaVuSans-84"/>
     </g>
    </g>
    <g id="line2d_25">
     <path d="M 92.911719 354.222687 
L 112.911719 354.222687 
" style="fill:none;stroke:#ff7f0e;stroke-linecap:square;stroke-opacity:0.8;stroke-width:1.5;"/>
    </g>
    <g id="line2d_26"/>
    <g id="text_22">
     <!-- tree -->
     <g transform="translate(120.911719 357.722687)scale(0.1 -0.1)">
      <use xlink:href="#DejaVuSans-116"/>
      <use x="39.208984" xlink:href="#DejaVuSans-114"/>
      <use x="78.072266" xlink:href="#DejaVuSans-101"/>
      <use x="139.595703" xlink:href="#DejaVuSans-101"/>
     </g>
    </g>
    <g id="line2d_27">
     <path d="M 167.610156 339.544562 
L 187.610156 339.544562 
" style="fill:none;stroke:#2ca02c;stroke-linecap:square;stroke-opacity:0.8;stroke-width:1.5;"/>
    </g>
    <g id="line2d_28"/>
    <g id="text_23">
     <!-- treebeard AL -->
     <g transform="translate(195.610156 343.044562)scale(0.1 -0.1)">
      <defs>
       <path d="M 9.8125 72.90625 
L 19.671875 72.90625 
L 19.671875 8.296875 
L 55.171875 8.296875 
L 55.171875 0 
L 9.8125 0 
z
" id="DejaVuSans-76"/>
      </defs>
      <use xlink:href="#DejaVuSans-116"/>
      <use x="39.208984" xlink:href="#DejaVuSans-114"/>
      <use x="78.072266" xlink:href="#DejaVuSans-101"/>
      <use x="139.595703" xlink:href="#DejaVuSans-101"/>
      <use x="201.119141" xlink:href="#DejaVuSans-98"/>
      <use x="264.595703" xlink:href="#DejaVuSans-101"/>
      <use x="326.119141" xlink:href="#DejaVuSans-97"/>
      <use x="387.398438" xlink:href="#DejaVuSans-114"/>
      <use x="426.761719" xlink:href="#DejaVuSans-100"/>
      <use x="490.238281" xlink:href="#DejaVuSans-32"/>
      <use x="522.025391" xlink:href="#DejaVuSans-65"/>
      <use x="590.433594" xlink:href="#DejaVuSans-76"/>
     </g>
    </g>
    <g id="line2d_29">
     <path d="M 167.610156 354.222687 
L 187.610156 354.222687 
" style="fill:none;stroke:#d62728;stroke-linecap:square;stroke-opacity:0.8;stroke-width:1.5;"/>
    </g>
    <g id="line2d_30"/>
    <g id="text_24">
     <!-- treebeard MP -->
     <g transform="translate(195.610156 357.722687)scale(0.1 -0.1)">
      <use xlink:href="#DejaVuSans-116"/>
      <use x="39.208984" xlink:href="#DejaVuSans-114"/>
      <use x="78.072266" xlink:href="#DejaVuSans-101"/>
      <use x="139.595703" xlink:href="#DejaVuSans-101"/>
      <use x="201.119141" xlink:href="#DejaVuSans-98"/>
      <use x="264.595703" xlink:href="#DejaVuSans-101"/>
      <use x="326.119141" xlink:href="#DejaVuSans-97"/>
      <use x="387.398438" xlink:href="#DejaVuSans-114"/>
      <use x="426.761719" xlink:href="#DejaVuSans-100"/>
      <use x="490.238281" xlink:href="#DejaVuSans-32"/>
      <use x="522.025391" xlink:href="#DejaVuSans-77"/>
      <use x="608.304688" xlink:href="#DejaVuSans-80"/>
     </g>
    </g>
    <g id="line2d_31">
     <path d="M 282.472656 339.544562 
L 302.472656 339.544562 
" style="fill:none;stroke:#9467bd;stroke-linecap:square;stroke-opacity:0.8;stroke-width:1.5;"/>
    </g>
    <g id="line2d_32"/>
    <g id="text_25">
     <!-- treebeard NS -->
     <g transform="translate(310.472656 343.044562)scale(0.1 -0.1)">
      <defs>
       <path d="M 9.8125 72.90625 
L 23.09375 72.90625 
L 55.421875 11.921875 
L 55.421875 72.90625 
L 64.984375 72.90625 
L 64.984375 0 
L 51.703125 0 
L 19.390625 60.984375 
L 19.390625 0 
L 9.8125 0 
z
" id="DejaVuSans-78"/>
       <path d="M 53.515625 70.515625 
L 53.515625 60.890625 
Q 47.90625 63.578125 42.921875 64.890625 
Q 37.9375 66.21875 33.296875 66.21875 
Q 25.25 66.21875 20.875 63.09375 
Q 16.5 59.96875 16.5 54.203125 
Q 16.5 49.359375 19.40625 46.890625 
Q 22.3125 44.4375 30.421875 42.921875 
L 36.375 41.703125 
Q 47.40625 39.59375 52.65625 34.296875 
Q 57.90625 29 57.90625 20.125 
Q 57.90625 9.515625 50.796875 4.046875 
Q 43.703125 -1.421875 29.984375 -1.421875 
Q 24.8125 -1.421875 18.96875 -0.25 
Q 13.140625 0.921875 6.890625 3.21875 
L 6.890625 13.375 
Q 12.890625 10.015625 18.65625 8.296875 
Q 24.421875 6.59375 29.984375 6.59375 
Q 38.421875 6.59375 43.015625 9.90625 
Q 47.609375 13.234375 47.609375 19.390625 
Q 47.609375 24.75 44.3125 27.78125 
Q 41.015625 30.8125 33.5 32.328125 
L 27.484375 33.5 
Q 16.453125 35.6875 11.515625 40.375 
Q 6.59375 45.0625 6.59375 53.421875 
Q 6.59375 63.09375 13.40625 68.65625 
Q 20.21875 74.21875 32.171875 74.21875 
Q 37.3125 74.21875 42.625 73.28125 
Q 47.953125 72.359375 53.515625 70.515625 
z
" id="DejaVuSans-83"/>
      </defs>
      <use xlink:href="#DejaVuSans-116"/>
      <use x="39.208984" xlink:href="#DejaVuSans-114"/>
      <use x="78.072266" xlink:href="#DejaVuSans-101"/>
      <use x="139.595703" xlink:href="#DejaVuSans-101"/>
      <use x="201.119141" xlink:href="#DejaVuSans-98"/>
      <use x="264.595703" xlink:href="#DejaVuSans-101"/>
      <use x="326.119141" xlink:href="#DejaVuSans-97"/>
      <use x="387.398438" xlink:href="#DejaVuSans-114"/>
      <use x="426.761719" xlink:href="#DejaVuSans-100"/>
      <use x="490.238281" xlink:href="#DejaVuSans-32"/>
      <use x="522.025391" xlink:href="#DejaVuSans-78"/>
      <use x="596.830078" xlink:href="#DejaVuSans-83"/>
     </g>
    </g>
   </g>
  </g>
 </g>
 <defs>
  <clipPath id="p4fec0aeb95">
   <rect height="266.112" width="357.12" x="61.909375" y="22.318125"/>
  </clipPath>
 </defs>
</svg>
