<?xml version="1.0" encoding="utf-8" standalone="no"?>
<!DOCTYPE svg PUBLIC "-//W3C//DTD SVG 1.1//EN"
  "http://www.w3.org/Graphics/SVG/1.1/DTD/svg11.dtd">
<svg xmlns:xlink="http://www.w3.org/1999/xlink" width="416.68875pt" height="371.002375pt" viewBox="0 0 416.68875 371.002375" xmlns="http://www.w3.org/2000/svg" version="1.1">
 <metadata>
  <rdf:RDF xmlns:dc="http://purl.org/dc/elements/1.1/" xmlns:cc="http://creativecommons.org/ns#" xmlns:rdf="http://www.w3.org/1999/02/22-rdf-syntax-ns#">
   <cc:Work>
    <dc:type rdf:resource="http://purl.org/dc/dcmitype/StillImage"/>
    <dc:date>2026-06-28T20:25:08.158594</dc:date>
    <dc:format>image/svg+xml</dc:format>
    <dc:creator>
     <cc:Agent>
      <dc:title>Matplotlib v3.10.6, https://matplotlib.org/</dc:title>
     </cc:Agent>
    </dc:creator>
   </cc:Work>
  </rdf:RDF>
 </metadata>
 <defs>
  <style type="text/css">*{stroke-linejoin: round; stroke-linecap: butt}</style>
 </defs>
 <g id="figure_1">
  <g id="patch_1">
   <path d="M 0 371.002375 
L 416.68875 371.002375 
L 416.68875 0 
L 0 0 
z
" style="fill: #ffffff"/>
  </g>
  <g id="axes_1">
   <g id="patch_2">
    <path d="M 52.36875 288.430125 
L 409.48875 288.430125 
L 409.48875 22.318125 
L 52.36875 22.318125 
z
" style="fill: #ffffff"/>
   </g>
   <g id="matplotlib.axis_1">
    <g id="xtick_1">
     <g id="line2d_1">
      <defs>
       <path id="mfe928ab048" d="M 0 0 
L 0 3.5 
" style="stroke: #000000; stroke-width: 0.8"/>
      </defs>
      <g>
       <use xlink:href="#mfe928ab048" x="52.36875" y="288.430125" style="stroke: #000000; stroke-width: 0.8"/>
      </g>
     </g>
     <g id="text_1">
      <!-- 0 -->
      <g transform="translate(49.1875 303.028562) scale(0.1 -0.1)">
       <defs>
        <path id="DejaVuSans-30" d="M 2034 4250 
Q 1547 4250 1301 3770 
Q 1056 3291 1056 2328 
Q 1056 1369 1301 889 
Q 1547 409 2034 409 
Q 2525 409 2770 889 
Q 3016 1369 3016 2328 
Q 3016 3291 2770 3770 
Q 2525 4250 2034 4250 
z
M 2034 4750 
Q 2819 4750 3233 4129 
Q 3647 3509 3647 2328 
Q 3647 1150 3233 529 
Q 2819 -91 2034 -91 
Q 1250 -91 836 529 
Q 422 1150 422 2328 
Q 422 3509 836 4129 
Q 1250 4750 2034 4750 
z
" transform="scale(0.015625)"/>
       </defs>
       <use xlink:href="#DejaVuSans-30"/>
      </g>
     </g>
    </g>
    <g id="xtick_2">
     <g id="line2d_2">
      <g>
       <use xlink:href="#mfe928ab048" x="95.917314" y="288.430125" style="stroke: #000000; stroke-width: 0.8"/>
      </g>
     </g>
     <g id="text_2">
      <!-- 500  -->
      <g transform="translate(84.784502 303.028562) scale(0.1 -0.1)">
       <defs>
        <path id="DejaVuSans-35" d="M 691 4666 
L 3169 4666 
L 3169 4134 
L 1269 4134 
L 1269 2991 
Q 1406 3038 1543 3061 
Q 1681 3084 1819 3084 
Q 2600 3084 3056 2656 
Q 3513 2228 3513 1497 
Q 3513 744 3044 326 
Q 2575 -91 1722 -91 
Q 1428 -91 1123 -41 
Q 819 9 494 109 
L 494 744 
Q 775 591 1075 516 
Q 1375 441 1709 441 
Q 2250 441 2565 725 
Q 2881 1009 2881 1497 
Q 2881 1984 2565 2268 
Q 2250 2553 1709 2553 
Q 1456 2553 1204 2497 
Q 953 2441 691 2322 
L 691 4666 
z
" transform="scale(0.015625)"/>
        <path id="DejaVuSans-20" transform="scale(0.015625)"/>
       </defs>
       <use xlink:href="#DejaVuSans-35"/>
       <use xlink:href="#DejaVuSans-30" transform="translate(63.623047 0)"/>
       <use xlink:href="#DejaVuSans-30" transform="translate(127.246094 0)"/>
       <use xlink:href="#DejaVuSans-20" transform="translate(190.869141 0)"/>
      </g>
     </g>
    </g>
    <g id="xtick_3">
     <g id="line2d_3">
      <g>
       <use xlink:href="#mfe928ab048" x="139.465878" y="288.430125" style="stroke: #000000; stroke-width: 0.8"/>
      </g>
     </g>
     <g id="text_3">
      <!-- 1 k -->
      <g transform="translate(131.800253 303.028562) scale(0.1 -0.1)">
       <defs>
        <path id="DejaVuSans-31" d="M 794 531 
L 1825 531 
L 1825 4091 
L 703 3866 
L 703 4441 
L 1819 4666 
L 2450 4666 
L 2450 531 
L 3481 531 
L 3481 0 
L 794 0 
L 794 531 
z
" transform="scale(0.015625)"/>
        <path id="DejaVuSans-6b" d="M 581 4863 
L 1159 4863 
L 1159 1991 
L 2875 3500 
L 3609 3500 
L 1753 1863 
L 3688 0 
L 2938 0 
L 1159 1709 
L 1159 0 
L 581 0 
L 581 4863 
z
" transform="scale(0.015625)"/>
       </defs>
       <use xlink:href="#DejaVuSans-31"/>
       <use xlink:href="#DejaVuSans-20" transform="translate(63.623047 0)"/>
       <use xlink:href="#DejaVuSans-6b" transform="translate(95.410156 0)"/>
      </g>
     </g>
    </g>
    <g id="xtick_4">
     <g id="line2d_4">
      <g>
       <use xlink:href="#mfe928ab048" x="183.014442" y="288.430125" style="stroke: #000000; stroke-width: 0.8"/>
      </g>
     </g>
     <g id="text_4">
      <!-- 1.5 k -->
      <g transform="translate(170.578505 303.028562) scale(0.1 -0.1)">
       <defs>
        <path id="DejaVuSans-2e" d="M 684 794 
L 1344 794 
L 1344 0 
L 684 0 
L 684 794 
z
" transform="scale(0.015625)"/>
       </defs>
       <use xlink:href="#DejaVuSans-31"/>
       <use xlink:href="#DejaVuSans-2e" transform="translate(63.623047 0)"/>
       <use xlink:href="#DejaVuSans-35" transform="translate(95.410156 0)"/>
       <use xlink:href="#DejaVuSans-20" transform="translate(159.033203 0)"/>
       <use xlink:href="#DejaVuSans-6b" transform="translate(190.820312 0)"/>
      </g>
     </g>
    </g>
    <g id="xtick_5">
     <g id="line2d_5">
      <g>
       <use xlink:href="#mfe928ab048" x="226.563006" y="288.430125" style="stroke: #000000; stroke-width: 0.8"/>
      </g>
     </g>
     <g id="text_5">
      <!-- 2 k -->
      <g transform="translate(218.897381 303.028562) scale(0.1 -0.1)">
       <defs>
        <path id="DejaVuSans-32" d="M 1228 531 
L 3431 531 
L 3431 0 
L 469 0 
L 469 531 
Q 828 903 1448 1529 
Q 2069 2156 2228 2338 
Q 2531 2678 2651 2914 
Q 2772 3150 2772 3378 
Q 2772 3750 2511 3984 
Q 2250 4219 1831 4219 
Q 1534 4219 1204 4116 
Q 875 4013 500 3803 
L 500 4441 
Q 881 4594 1212 4672 
Q 1544 4750 1819 4750 
Q 2544 4750 2975 4387 
Q 3406 4025 3406 3419 
Q 3406 3131 3298 2873 
Q 3191 2616 2906 2266 
Q 2828 2175 2409 1742 
Q 1991 1309 1228 531 
z
" transform="scale(0.015625)"/>
       </defs>
       <use xlink:href="#DejaVuSans-32"/>
       <use xlink:href="#DejaVuSans-20" transform="translate(63.623047 0)"/>
       <use xlink:href="#DejaVuSans-6b" transform="translate(95.410156 0)"/>
      </g>
     </g>
    </g>
    <g id="xtick_6">
     <g id="line2d_6">
      <g>
       <use xlink:href="#mfe928ab048" x="270.111571" y="288.430125" style="stroke: #000000; stroke-width: 0.8"/>
      </g>
     </g>
     <g id="text_6">
      <!-- 2.5 k -->
      <g transform="translate(257.675633 303.028562) scale(0.1 -0.1)">
       <use xlink:href="#DejaVuSans-32"/>
       <use xlink:href="#DejaVuSans-2e" transform="translate(63.623047 0)"/>
       <use xlink:href="#DejaVuSans-35" transform="translate(95.410156 0)"/>
       <use xlink:href="#DejaVuSans-20" transform="translate(159.033203 0)"/>
       <use xlink:href="#DejaVuSans-6b" transform="translate(190.820312 0)"/>
      </g>
     </g>
    </g>
    <g id="xtick_7">
     <g id="line2d_7">
      <g>
       <use xlink:href="#mfe928ab048" x="313.660135" y="288.430125" style="stroke: #000000; stroke-width: 0.8"/>
      </g>
     </g>
     <g id="text_7">
      <!-- 3 k -->
      <g transform="translate(305.99451 303.028562) scale(0.1 -0.1)">
       <defs>
        <path id="DejaVuSans-33" d="M 2597 2516 
Q 3050 2419 3304 2112 
Q 3559 1806 3559 1356 
Q 3559 666 3084 287 
Q 2609 -91 1734 -91 
Q 1441 -91 1130 -33 
Q 819 25 488 141 
L 488 750 
Q 750 597 1062 519 
Q 1375 441 1716 441 
Q 2309 441 2620 675 
Q 2931 909 2931 1356 
Q 2931 1769 2642 2001 
Q 2353 2234 1838 2234 
L 1294 2234 
L 1294 2753 
L 1863 2753 
Q 2328 2753 2575 2939 
Q 2822 3125 2822 3475 
Q 2822 3834 2567 4026 
Q 2313 4219 1838 4219 
Q 1578 4219 1281 4162 
Q 984 4106 628 3988 
L 628 4550 
Q 988 4650 1302 4700 
Q 1616 4750 1894 4750 
Q 2613 4750 3031 4423 
Q 3450 4097 3450 3541 
Q 3450 3153 3228 2886 
Q 3006 2619 2597 2516 
z
" transform="scale(0.015625)"/>
       </defs>
       <use xlink:href="#DejaVuSans-33"/>
       <use xlink:href="#DejaVuSans-20" transform="translate(63.623047 0)"/>
       <use xlink:href="#DejaVuSans-6b" transform="translate(95.410156 0)"/>
      </g>
     </g>
    </g>
    <g id="xtick_8">
     <g id="line2d_8">
      <g>
       <use xlink:href="#mfe928ab048" x="357.208699" y="288.430125" style="stroke: #000000; stroke-width: 0.8"/>
      </g>
     </g>
     <g id="text_8">
      <!-- 3.5 k -->
      <g transform="translate(344.772761 303.028562) scale(0.1 -0.1)">
       <use xlink:href="#DejaVuSans-33"/>
       <use xlink:href="#DejaVuSans-2e" transform="translate(63.623047 0)"/>
       <use xlink:href="#DejaVuSans-35" transform="translate(95.410156 0)"/>
       <use xlink:href="#DejaVuSans-20" transform="translate(159.033203 0)"/>
       <use xlink:href="#DejaVuSans-6b" transform="translate(190.820312 0)"/>
      </g>
     </g>
    </g>
    <g id="xtick_9">
     <g id="line2d_9">
      <g>
       <use xlink:href="#mfe928ab048" x="400.757263" y="288.430125" style="stroke: #000000; stroke-width: 0.8"/>
      </g>
     </g>
     <g id="text_9">
      <!-- 4 k -->
      <g transform="translate(393.091638 303.028562) scale(0.1 -0.1)">
       <defs>
        <path id="DejaVuSans-34" d="M 2419 4116 
L 825 1625 
L 2419 1625 
L 2419 4116 
z
M 2253 4666 
L 3047 4666 
L 3047 1625 
L 3713 1625 
L 3713 1100 
L 3047 1100 
L 3047 0 
L 2419 0 
L 2419 1100 
L 313 1100 
L 313 1709 
L 2253 4666 
z
" transform="scale(0.015625)"/>
       </defs>
       <use xlink:href="#DejaVuSans-34"/>
       <use xlink:href="#DejaVuSans-20" transform="translate(63.623047 0)"/>
       <use xlink:href="#DejaVuSans-6b" transform="translate(95.410156 0)"/>
      </g>
     </g>
    </g>
    <g id="text_10">
     <!-- Amount of objects in table -->
     <g transform="translate(164.870156 316.706687) scale(0.1 -0.1)">
      <defs>
       <path id="DejaVuSans-41" d="M 2188 4044 
L 1331 1722 
L 3047 1722 
L 2188 4044 
z
M 1831 4666 
L 2547 4666 
L 4325 0 
L 3669 0 
L 3244 1197 
L 1141 1197 
L 716 0 
L 50 0 
L 1831 4666 
z
" transform="scale(0.015625)"/>
       <path id="DejaVuSans-6d" d="M 3328 2828 
Q 3544 3216 3844 3400 
Q 4144 3584 4550 3584 
Q 5097 3584 5394 3201 
Q 5691 2819 5691 2113 
L 5691 0 
L 5113 0 
L 5113 2094 
Q 5113 2597 4934 2840 
Q 4756 3084 4391 3084 
Q 3944 3084 3684 2787 
Q 3425 2491 3425 1978 
L 3425 0 
L 2847 0 
L 2847 2094 
Q 2847 2600 2669 2842 
Q 2491 3084 2119 3084 
Q 1678 3084 1418 2786 
Q 1159 2488 1159 1978 
L 1159 0 
L 581 0 
L 581 3500 
L 1159 3500 
L 1159 2956 
Q 1356 3278 1631 3431 
Q 1906 3584 2284 3584 
Q 2666 3584 2933 3390 
Q 3200 3197 3328 2828 
z
" transform="scale(0.015625)"/>
       <path id="DejaVuSans-6f" d="M 1959 3097 
Q 1497 3097 1228 2736 
Q 959 2375 959 1747 
Q 959 1119 1226 758 
Q 1494 397 1959 397 
Q 2419 397 2687 759 
Q 2956 1122 2956 1747 
Q 2956 2369 2687 2733 
Q 2419 3097 1959 3097 
z
M 1959 3584 
Q 2709 3584 3137 3096 
Q 3566 2609 3566 1747 
Q 3566 888 3137 398 
Q 2709 -91 1959 -91 
Q 1206 -91 779 398 
Q 353 888 353 1747 
Q 353 2609 779 3096 
Q 1206 3584 1959 3584 
z
" transform="scale(0.015625)"/>
       <path id="DejaVuSans-75" d="M 544 1381 
L 544 3500 
L 1119 3500 
L 1119 1403 
Q 1119 906 1312 657 
Q 1506 409 1894 409 
Q 2359 409 2629 706 
Q 2900 1003 2900 1516 
L 2900 3500 
L 3475 3500 
L 3475 0 
L 2900 0 
L 2900 538 
Q 2691 219 2414 64 
Q 2138 -91 1772 -91 
Q 1169 -91 856 284 
Q 544 659 544 1381 
z
M 1991 3584 
L 1991 3584 
z
" transform="scale(0.015625)"/>
       <path id="DejaVuSans-6e" d="M 3513 2113 
L 3513 0 
L 2938 0 
L 2938 2094 
Q 2938 2591 2744 2837 
Q 2550 3084 2163 3084 
Q 1697 3084 1428 2787 
Q 1159 2491 1159 1978 
L 1159 0 
L 581 0 
L 581 3500 
L 1159 3500 
L 1159 2956 
Q 1366 3272 1645 3428 
Q 1925 3584 2291 3584 
Q 2894 3584 3203 3211 
Q 3513 2838 3513 2113 
z
" transform="scale(0.015625)"/>
       <path id="DejaVuSans-74" d="M 1172 4494 
L 1172 3500 
L 2356 3500 
L 2356 3053 
L 1172 3053 
L 1172 1153 
Q 1172 725 1289 603 
Q 1406 481 1766 481 
L 2356 481 
L 2356 0 
L 1766 0 
Q 1100 0 847 248 
Q 594 497 594 1153 
L 594 3053 
L 172 3053 
L 172 3500 
L 594 3500 
L 594 4494 
L 1172 4494 
z
" transform="scale(0.015625)"/>
       <path id="DejaVuSans-66" d="M 2375 4863 
L 2375 4384 
L 1825 4384 
Q 1516 4384 1395 4259 
Q 1275 4134 1275 3809 
L 1275 3500 
L 2222 3500 
L 2222 3053 
L 1275 3053 
L 1275 0 
L 697 0 
L 697 3053 
L 147 3053 
L 147 3500 
L 697 3500 
L 697 3744 
Q 697 4328 969 4595 
Q 1241 4863 1831 4863 
L 2375 4863 
z
" transform="scale(0.015625)"/>
       <path id="DejaVuSans-62" d="M 3116 1747 
Q 3116 2381 2855 2742 
Q 2594 3103 2138 3103 
Q 1681 3103 1420 2742 
Q 1159 2381 1159 1747 
Q 1159 1113 1420 752 
Q 1681 391 2138 391 
Q 2594 391 2855 752 
Q 3116 1113 3116 1747 
z
M 1159 2969 
Q 1341 3281 1617 3432 
Q 1894 3584 2278 3584 
Q 2916 3584 3314 3078 
Q 3713 2572 3713 1747 
Q 3713 922 3314 415 
Q 2916 -91 2278 -91 
Q 1894 -91 1617 61 
Q 1341 213 1159 525 
L 1159 0 
L 581 0 
L 581 4863 
L 1159 4863 
L 1159 2969 
z
" transform="scale(0.015625)"/>
       <path id="DejaVuSans-6a" d="M 603 3500 
L 1178 3500 
L 1178 -63 
Q 1178 -731 923 -1031 
Q 669 -1331 103 -1331 
L -116 -1331 
L -116 -844 
L 38 -844 
Q 366 -844 484 -692 
Q 603 -541 603 -63 
L 603 3500 
z
M 603 4863 
L 1178 4863 
L 1178 4134 
L 603 4134 
L 603 4863 
z
" transform="scale(0.015625)"/>
       <path id="DejaVuSans-65" d="M 3597 1894 
L 3597 1613 
L 953 1613 
Q 991 1019 1311 708 
Q 1631 397 2203 397 
Q 2534 397 2845 478 
Q 3156 559 3463 722 
L 3463 178 
Q 3153 47 2828 -22 
Q 2503 -91 2169 -91 
Q 1331 -91 842 396 
Q 353 884 353 1716 
Q 353 2575 817 3079 
Q 1281 3584 2069 3584 
Q 2775 3584 3186 3129 
Q 3597 2675 3597 1894 
z
M 3022 2063 
Q 3016 2534 2758 2815 
Q 2500 3097 2075 3097 
Q 1594 3097 1305 2825 
Q 1016 2553 972 2059 
L 3022 2063 
z
" transform="scale(0.015625)"/>
       <path id="DejaVuSans-63" d="M 3122 3366 
L 3122 2828 
Q 2878 2963 2633 3030 
Q 2388 3097 2138 3097 
Q 1578 3097 1268 2742 
Q 959 2388 959 1747 
Q 959 1106 1268 751 
Q 1578 397 2138 397 
Q 2388 397 2633 464 
Q 2878 531 3122 666 
L 3122 134 
Q 2881 22 2623 -34 
Q 2366 -91 2075 -91 
Q 1284 -91 818 406 
Q 353 903 353 1747 
Q 353 2603 823 3093 
Q 1294 3584 2113 3584 
Q 2378 3584 2631 3529 
Q 2884 3475 3122 3366 
z
" transform="scale(0.015625)"/>
       <path id="DejaVuSans-73" d="M 2834 3397 
L 2834 2853 
Q 2591 2978 2328 3040 
Q 2066 3103 1784 3103 
Q 1356 3103 1142 2972 
Q 928 2841 928 2578 
Q 928 2378 1081 2264 
Q 1234 2150 1697 2047 
L 1894 2003 
Q 2506 1872 2764 1633 
Q 3022 1394 3022 966 
Q 3022 478 2636 193 
Q 2250 -91 1575 -91 
Q 1294 -91 989 -36 
Q 684 19 347 128 
L 347 722 
Q 666 556 975 473 
Q 1284 391 1588 391 
Q 1994 391 2212 530 
Q 2431 669 2431 922 
Q 2431 1156 2273 1281 
Q 2116 1406 1581 1522 
L 1381 1569 
Q 847 1681 609 1914 
Q 372 2147 372 2553 
Q 372 3047 722 3315 
Q 1072 3584 1716 3584 
Q 2034 3584 2315 3537 
Q 2597 3491 2834 3397 
z
" transform="scale(0.015625)"/>
       <path id="DejaVuSans-69" d="M 603 3500 
L 1178 3500 
L 1178 0 
L 603 0 
L 603 3500 
z
M 603 4863 
L 1178 4863 
L 1178 4134 
L 603 4134 
L 603 4863 
z
" transform="scale(0.015625)"/>
       <path id="DejaVuSans-61" d="M 2194 1759 
Q 1497 1759 1228 1600 
Q 959 1441 959 1056 
Q 959 750 1161 570 
Q 1363 391 1709 391 
Q 2188 391 2477 730 
Q 2766 1069 2766 1631 
L 2766 1759 
L 2194 1759 
z
M 3341 1997 
L 3341 0 
L 2766 0 
L 2766 531 
Q 2569 213 2275 61 
Q 1981 -91 1556 -91 
Q 1019 -91 701 211 
Q 384 513 384 1019 
Q 384 1609 779 1909 
Q 1175 2209 1959 2209 
L 2766 2209 
L 2766 2266 
Q 2766 2663 2505 2880 
Q 2244 3097 1772 3097 
Q 1472 3097 1187 3025 
Q 903 2953 641 2809 
L 641 3341 
Q 956 3463 1253 3523 
Q 1550 3584 1831 3584 
Q 2591 3584 2966 3190 
Q 3341 2797 3341 1997 
z
" transform="scale(0.015625)"/>
       <path id="DejaVuSans-6c" d="M 603 4863 
L 1178 4863 
L 1178 0 
L 603 0 
L 603 4863 
z
" transform="scale(0.015625)"/>
      </defs>
      <use xlink:href="#DejaVuSans-41"/>
      <use xlink:href="#DejaVuSans-6d" transform="translate(68.408203 0)"/>
      <use xlink:href="#DejaVuSans-6f" transform="translate(165.820312 0)"/>
      <use xlink:href="#DejaVuSans-75" transform="translate(227.001953 0)"/>
      <use xlink:href="#DejaVuSans-6e" transform="translate(290.380859 0)"/>
      <use xlink:href="#DejaVuSans-74" transform="translate(353.759766 0)"/>
      <use xlink:href="#DejaVuSans-20" transform="translate(392.96875 0)"/>
      <use xlink:href="#DejaVuSans-6f" transform="translate(424.755859 0)"/>
      <use xlink:href="#DejaVuSans-66" transform="translate(485.9375 0)"/>
      <use xlink:href="#DejaVuSans-20" transform="translate(521.142578 0)"/>
      <use xlink:href="#DejaVuSans-6f" transform="translate(552.929688 0)"/>
      <use xlink:href="#DejaVuSans-62" transform="translate(614.111328 0)"/>
      <use xlink:href="#DejaVuSans-6a" transform="translate(677.587891 0)"/>
      <use xlink:href="#DejaVuSans-65" transform="translate(705.371094 0)"/>
      <use xlink:href="#DejaVuSans-63" transform="translate(766.894531 0)"/>
      <use xlink:href="#DejaVuSans-74" transform="translate(821.875 0)"/>
      <use xlink:href="#DejaVuSans-73" transform="translate(861.083984 0)"/>
      <use xlink:href="#DejaVuSans-20" transform="translate(913.183594 0)"/>
      <use xlink:href="#DejaVuSans-69" transform="translate(944.970703 0)"/>
      <use xlink:href="#DejaVuSans-6e" transform="translate(972.753906 0)"/>
      <use xlink:href="#DejaVuSans-20" transform="translate(1036.132812 0)"/>
      <use xlink:href="#DejaVuSans-74" transform="translate(1067.919922 0)"/>
      <use xlink:href="#DejaVuSans-61" transform="translate(1107.128906 0)"/>
      <use xlink:href="#DejaVuSans-62" transform="translate(1168.408203 0)"/>
      <use xlink:href="#DejaVuSans-6c" transform="translate(1231.884766 0)"/>
      <use xlink:href="#DejaVuSans-65" transform="translate(1259.667969 0)"/>
     </g>
    </g>
   </g>
   <g id="matplotlib.axis_2">
    <g id="ytick_1">
     <g id="line2d_10">
      <defs>
       <path id="mace2c52093" d="M 0 0 
L -3.5 0 
" style="stroke: #000000; stroke-width: 0.8"/>
      </defs>
      <g>
       <use xlink:href="#mace2c52093" x="52.36875" y="288.430125" style="stroke: #000000; stroke-width: 0.8"/>
      </g>
     </g>
     <g id="text_11">
      <!-- 0 -->
      <g transform="translate(39.00625 292.229344) scale(0.1 -0.1)">
       <use xlink:href="#DejaVuSans-30"/>
      </g>
     </g>
    </g>
    <g id="ytick_2">
     <g id="line2d_11">
      <g>
       <use xlink:href="#mace2c52093" x="52.36875" y="253.016646" style="stroke: #000000; stroke-width: 0.8"/>
      </g>
     </g>
     <g id="text_12">
      <!-- 1 ms -->
      <g transform="translate(20.878125 256.815865) scale(0.1 -0.1)">
       <use xlink:href="#DejaVuSans-31"/>
       <use xlink:href="#DejaVuSans-20" transform="translate(63.623047 0)"/>
       <use xlink:href="#DejaVuSans-6d" transform="translate(95.410156 0)"/>
       <use xlink:href="#DejaVuSans-73" transform="translate(192.822266 0)"/>
      </g>
     </g>
    </g>
    <g id="ytick_3">
     <g id="line2d_12">
      <g>
       <use xlink:href="#mace2c52093" x="52.36875" y="217.603167" style="stroke: #000000; stroke-width: 0.8"/>
      </g>
     </g>
     <g id="text_13">
      <!-- 2 ms -->
      <g transform="translate(20.878125 221.402385) scale(0.1 -0.1)">
       <use xlink:href="#DejaVuSans-32"/>
       <use xlink:href="#DejaVuSans-20" transform="translate(63.623047 0)"/>
       <use xlink:href="#DejaVuSans-6d" transform="translate(95.410156 0)"/>
       <use xlink:href="#DejaVuSans-73" transform="translate(192.822266 0)"/>
      </g>
     </g>
    </g>
    <g id="ytick_4">
     <g id="line2d_13">
      <g>
       <use xlink:href="#mace2c52093" x="52.36875" y="182.189688" style="stroke: #000000; stroke-width: 0.8"/>
      </g>
     </g>
     <g id="text_14">
      <!-- 3 ms -->
      <g transform="translate(20.878125 185.988906) scale(0.1 -0.1)">
       <use xlink:href="#DejaVuSans-33"/>
       <use xlink:href="#DejaVuSans-20" transform="translate(63.623047 0)"/>
       <use xlink:href="#DejaVuSans-6d" transform="translate(95.410156 0)"/>
       <use xlink:href="#DejaVuSans-73" transform="translate(192.822266 0)"/>
      </g>
     </g>
    </g>
    <g id="ytick_5">
     <g id="line2d_14">
      <g>
       <use xlink:href="#mace2c52093" x="52.36875" y="146.776208" style="stroke: #000000; stroke-width: 0.8"/>
      </g>
     </g>
     <g id="text_15">
      <!-- 4 ms -->
      <g transform="translate(20.878125 150.575427) scale(0.1 -0.1)">
       <use xlink:href="#DejaVuSans-34"/>
       <use xlink:href="#DejaVuSans-20" transform="translate(63.623047 0)"/>
       <use xlink:href="#DejaVuSans-6d" transform="translate(95.410156 0)"/>
       <use xlink:href="#DejaVuSans-73" transform="translate(192.822266 0)"/>
      </g>
     </g>
    </g>
    <g id="ytick_6">
     <g id="line2d_15">
      <g>
       <use xlink:href="#mace2c52093" x="52.36875" y="111.362729" style="stroke: #000000; stroke-width: 0.8"/>
      </g>
     </g>
     <g id="text_16">
      <!-- 5 ms -->
      <g transform="translate(20.878125 115.161948) scale(0.1 -0.1)">
       <use xlink:href="#DejaVuSans-35"/>
       <use xlink:href="#DejaVuSans-20" transform="translate(63.623047 0)"/>
       <use xlink:href="#DejaVuSans-6d" transform="translate(95.410156 0)"/>
       <use xlink:href="#DejaVuSans-73" transform="translate(192.822266 0)"/>
      </g>
     </g>
    </g>
    <g id="ytick_7">
     <g id="line2d_16">
      <g>
       <use xlink:href="#mace2c52093" x="52.36875" y="75.94925" style="stroke: #000000; stroke-width: 0.8"/>
      </g>
     </g>
     <g id="text_17">
      <!-- 6 ms -->
      <g transform="translate(20.878125 79.748469) scale(0.1 -0.1)">
       <defs>
        <path id="DejaVuSans-36" d="M 2113 2584 
Q 1688 2584 1439 2293 
Q 1191 2003 1191 1497 
Q 1191 994 1439 701 
Q 1688 409 2113 409 
Q 2538 409 2786 701 
Q 3034 994 3034 1497 
Q 3034 2003 2786 2293 
Q 2538 2584 2113 2584 
z
M 3366 4563 
L 3366 3988 
Q 3128 4100 2886 4159 
Q 2644 4219 2406 4219 
Q 1781 4219 1451 3797 
Q 1122 3375 1075 2522 
Q 1259 2794 1537 2939 
Q 1816 3084 2150 3084 
Q 2853 3084 3261 2657 
Q 3669 2231 3669 1497 
Q 3669 778 3244 343 
Q 2819 -91 2113 -91 
Q 1303 -91 875 529 
Q 447 1150 447 2328 
Q 447 3434 972 4092 
Q 1497 4750 2381 4750 
Q 2619 4750 2861 4703 
Q 3103 4656 3366 4563 
z
" transform="scale(0.015625)"/>
       </defs>
       <use xlink:href="#DejaVuSans-36"/>
       <use xlink:href="#DejaVuSans-20" transform="translate(63.623047 0)"/>
       <use xlink:href="#DejaVuSans-6d" transform="translate(95.410156 0)"/>
       <use xlink:href="#DejaVuSans-73" transform="translate(192.822266 0)"/>
      </g>
     </g>
    </g>
    <g id="ytick_8">
     <g id="line2d_17">
      <g>
       <use xlink:href="#mace2c52093" x="52.36875" y="40.535771" style="stroke: #000000; stroke-width: 0.8"/>
      </g>
     </g>
     <g id="text_18">
      <!-- 7 ms -->
      <g transform="translate(20.878125 44.33499) scale(0.1 -0.1)">
       <defs>
        <path id="DejaVuSans-37" d="M 525 4666 
L 3525 4666 
L 3525 4397 
L 1831 0 
L 1172 0 
L 2766 4134 
L 525 4134 
L 525 4666 
z
" transform="scale(0.015625)"/>
       </defs>
       <use xlink:href="#DejaVuSans-37"/>
       <use xlink:href="#DejaVuSans-20" transform="translate(63.623047 0)"/>
       <use xlink:href="#DejaVuSans-6d" transform="translate(95.410156 0)"/>
       <use xlink:href="#DejaVuSans-73" transform="translate(192.822266 0)"/>
      </g>
     </g>
    </g>
    <g id="text_19">
     <!-- Write latency (s) -->
     <g transform="translate(14.798438 196.625687) rotate(-90) scale(0.1 -0.1)">
      <defs>
       <path id="DejaVuSans-57" d="M 213 4666 
L 850 4666 
L 1831 722 
L 2809 4666 
L 3519 4666 
L 4500 722 
L 5478 4666 
L 6119 4666 
L 4947 0 
L 4153 0 
L 3169 4050 
L 2175 0 
L 1381 0 
L 213 4666 
z
" transform="scale(0.015625)"/>
       <path id="DejaVuSans-72" d="M 2631 2963 
Q 2534 3019 2420 3045 
Q 2306 3072 2169 3072 
Q 1681 3072 1420 2755 
Q 1159 2438 1159 1844 
L 1159 0 
L 581 0 
L 581 3500 
L 1159 3500 
L 1159 2956 
Q 1341 3275 1631 3429 
Q 1922 3584 2338 3584 
Q 2397 3584 2469 3576 
Q 2541 3569 2628 3553 
L 2631 2963 
z
" transform="scale(0.015625)"/>
       <path id="DejaVuSans-79" d="M 2059 -325 
Q 1816 -950 1584 -1140 
Q 1353 -1331 966 -1331 
L 506 -1331 
L 506 -850 
L 844 -850 
Q 1081 -850 1212 -737 
Q 1344 -625 1503 -206 
L 1606 56 
L 191 3500 
L 800 3500 
L 1894 763 
L 2988 3500 
L 3597 3500 
L 2059 -325 
z
" transform="scale(0.015625)"/>
       <path id="DejaVuSans-28" d="M 1984 4856 
Q 1566 4138 1362 3434 
Q 1159 2731 1159 2009 
Q 1159 1288 1364 580 
Q 1569 -128 1984 -844 
L 1484 -844 
Q 1016 -109 783 600 
Q 550 1309 550 2009 
Q 550 2706 781 3412 
Q 1013 4119 1484 4856 
L 1984 4856 
z
" transform="scale(0.015625)"/>
       <path id="DejaVuSans-29" d="M 513 4856 
L 1013 4856 
Q 1481 4119 1714 3412 
Q 1947 2706 1947 2009 
Q 1947 1309 1714 600 
Q 1481 -109 1013 -844 
L 513 -844 
Q 928 -128 1133 580 
Q 1338 1288 1338 2009 
Q 1338 2731 1133 3434 
Q 928 4138 513 4856 
z
" transform="scale(0.015625)"/>
      </defs>
      <use xlink:href="#DejaVuSans-57"/>
      <use xlink:href="#DejaVuSans-72" transform="translate(94.376953 0)"/>
      <use xlink:href="#DejaVuSans-69" transform="translate(135.490234 0)"/>
      <use xlink:href="#DejaVuSans-74" transform="translate(163.273438 0)"/>
      <use xlink:href="#DejaVuSans-65" transform="translate(202.482422 0)"/>
      <use xlink:href="#DejaVuSans-20" transform="translate(264.005859 0)"/>
      <use xlink:href="#DejaVuSans-6c" transform="translate(295.792969 0)"/>
      <use xlink:href="#DejaVuSans-61" transform="translate(323.576172 0)"/>
      <use xlink:href="#DejaVuSans-74" transform="translate(384.855469 0)"/>
      <use xlink:href="#DejaVuSans-65" transform="translate(424.064453 0)"/>
      <use xlink:href="#DejaVuSans-6e" transform="translate(485.587891 0)"/>
      <use xlink:href="#DejaVuSans-63" transform="translate(548.966797 0)"/>
      <use xlink:href="#DejaVuSans-79" transform="translate(603.947266 0)"/>
      <use xlink:href="#DejaVuSans-20" transform="translate(663.126953 0)"/>
      <use xlink:href="#DejaVuSans-28" transform="translate(694.914062 0)"/>
      <use xlink:href="#DejaVuSans-73" transform="translate(733.927734 0)"/>
      <use xlink:href="#DejaVuSans-29" transform="translate(786.027344 0)"/>
     </g>
    </g>
   </g>
   <g id="line2d_18">
    <path d="M 137.28845 246.733508 
L 138.159421 246.970915 
L 138.594907 247.098559 
L 139.030393 247.105097 
L 140.33685 247.879753 
L 140.772335 247.934699 
L 141.643306 248.1786 
L 143.385249 248.657569 
L 144.691706 249.116145 
L 145.127192 249.16806 
L 146.869134 248.837475 
L 147.30462 248.967154 
L 148.611077 248.803789 
L 149.046562 248.919829 
L 149.482048 248.644493 
L 150.353019 248.50308 
L 150.788505 248.601411 
L 151.659476 248.508795 
L 152.530447 248.627044 
L 152.965933 248.392971 
L 153.401419 248.334648 
L 153.836904 248.462076 
L 156.014333 248.331098 
L 159.062732 248.012983 
L 162.111132 248.309925 
L 162.546617 248.162493 
L 165.595017 248.087456 
L 166.030502 248.239954 
L 166.465988 248.06585 
L 167.336959 247.935565 
L 167.772445 247.874773 
L 168.643416 247.923528 
L 170.385359 247.965354 
L 170.820844 248.121749 
L 172.127301 248.193018 
L 172.998273 247.973234 
L 174.30473 248.016706 
L 174.740215 247.849097 
L 175.175701 247.962496 
L 176.046672 247.853124 
L 176.482158 247.678198 
L 178.659586 247.669711 
L 179.095072 247.554147 
L 179.966043 247.071887 
L 180.837014 247.003605 
L 181.2725 247.005121 
L 183.449928 246.438645 
L 183.885414 246.608375 
L 190.417698 246.719436 
L 192.159641 246.9148 
L 193.466098 246.936622 
L 194.337069 246.910253 
L 195.20804 247.079464 
L 196.514497 246.957968 
L 197.385468 246.800924 
L 199.127411 246.730304 
L 199.562897 246.646608 
L 199.998382 246.41587 
L 202.175811 246.33581 
L 202.611296 246.376987 
L 203.046782 246.211803 
L 203.482267 246.295716 
L 203.917753 246.053807 
L 204.788724 246.040644 
L 205.659696 245.811031 
L 206.530667 245.749417 
L 207.401638 245.589385 
L 207.837124 245.68343 
L 208.27261 245.524264 
L 209.143581 245.536215 
L 211.321009 245.360855 
L 212.19198 245.36393 
L 213.498437 245.150381 
L 213.933923 245.191081 
L 214.804894 245.064433 
L 215.24038 245.056769 
L 215.675865 244.903492 
L 218.724265 244.8062 
L 219.159751 244.717395 
L 219.595236 244.750821 
L 220.466207 244.571911 
L 221.772664 244.704102 
L 222.643636 244.561779 
L 223.950093 244.827849 
L 225.25655 244.732419 
L 225.692035 244.850278 
L 227.433978 244.655001 
L 227.869463 244.756666 
L 228.740435 244.6857 
L 229.611406 244.748266 
L 231.353349 244.903189 
L 231.788834 245.040792 
L 232.22432 244.925574 
L 233.530777 245.017757 
L 233.966262 244.994289 
L 234.401748 245.314526 
L 235.708205 245.352802 
L 236.143691 245.329594 
L 237.014662 245.140682 
L 237.450147 245.135486 
L 237.885633 245.281965 
L 240.498547 245.299025 
L 240.934033 245.109117 
L 242.675975 244.974372 
L 243.546946 244.936442 
L 246.15986 244.665696 
L 246.595346 244.508652 
L 247.466317 244.33628 
L 248.772774 244.060728 
L 249.643745 244.064278 
L 250.079231 243.925852 
L 250.514717 243.910698 
L 250.950202 243.771017 
L 252.692145 243.969584 
L 254.869573 243.754866 
L 255.305059 243.766037 
L 255.740544 243.633414 
L 256.611516 243.623931 
L 257.047001 243.483384 
L 257.482487 243.488623 
L 259.22443 242.812342 
L 261.401858 242.334671 
L 261.837343 242.106661 
L 262.272829 241.638256 
L 262.708315 241.454194 
L 263.1438 241.46281 
L 263.579286 241.08083 
L 265.321229 240.859357 
L 266.1922 240.605714 
L 266.627685 240.630914 
L 267.063171 240.522278 
L 267.934142 240.584108 
L 268.805114 240.372464 
L 269.240599 239.889468 
L 269.676085 239.811487 
L 270.111571 239.565551 
L 271.853513 239.222626 
L 272.288999 238.715296 
L 272.724484 238.673383 
L 273.595456 238.244337 
L 274.030941 238.06967 
L 274.466427 237.564375 
L 274.901913 237.445218 
L 275.337398 236.646921 
L 276.20837 235.672918 
L 276.643855 235.322026 
L 277.514826 235.018936 
L 277.950312 234.691988 
L 278.821283 234.524466 
L 281.434197 233.886201 
L 281.869683 233.584886 
L 282.305169 232.968963 
L 282.740654 231.182375 
L 283.17614 229.89593 
L 284.047111 229.67069 
L 284.482597 229.547116 
L 284.918082 229.564609 
L 285.789054 229.181589 
L 286.660025 228.739986 
L 287.966482 228.4653 
L 288.401967 227.815907 
L 288.837453 227.906185 
L 289.272939 227.3178 
L 289.708424 227.090222 
L 290.14391 226.63117 
L 290.579396 226.385147 
L 291.014881 225.913885 
L 291.885853 225.380836 
L 292.321338 224.951833 
L 293.19231 224.574356 
L 293.627795 224.009655 
L 294.934252 223.793725 
L 295.369738 223.06332 
L 297.11168 222.677573 
L 298.853623 221.140992 
L 299.724594 219.967989 
L 300.16008 219.832854 
L 300.595565 219.18805 
L 301.031051 218.172871 
L 301.902022 217.767206 
L 302.337508 217.543785 
L 303.208479 216.347358 
L 303.643965 215.410852 
L 304.079451 214.759641 
L 304.950422 212.55652 
L 305.385907 212.22364 
L 305.821393 211.120435 
L 306.256879 210.478489 
L 306.692364 210.121968 
L 307.998821 208.34863 
L 309.305278 206.86851 
L 309.740764 206.619889 
L 310.17625 205.595097 
L 310.611735 205.197789 
L 311.482706 203.868089 
L 311.918192 202.714916 
L 313.224649 200.555917 
L 313.660135 199.564509 
L 314.09562 198.940879 
L 314.966592 197.041151 
L 315.402077 196.659864 
L 315.837563 195.723964 
L 316.273049 195.127049 
L 316.708534 193.178698 
L 317.579505 191.179211 
L 318.450477 188.807962 
L 318.885962 187.762863 
L 319.756934 186.770675 
L 320.192419 185.481588 
L 321.063391 183.724833 
L 321.498876 182.021336 
L 321.934362 178.171655 
L 322.805333 177.161585 
L 323.676304 174.44031 
L 324.11179 174.275255 
L 324.547276 172.66918 
L 324.982761 171.543762 
L 325.418247 170.05719 
L 325.853733 170.099406 
L 326.289218 168.451244 
L 327.16019 166.547361 
L 328.031161 163.5039 
L 328.902132 161.108014 
L 329.337618 161.087837 
L 329.773103 159.542293 
L 330.208589 159.236734 
L 330.644075 158.582059 
L 331.950532 154.63946 
L 332.386017 154.820708 
L 333.692474 151.395484 
L 334.563445 148.187922 
L 335.869902 144.304988 
L 336.305388 143.422086 
L 336.740874 142.882369 
L 337.176359 141.23806 
L 337.611845 140.11091 
L 338.047331 139.484726 
L 338.482816 137.750746 
L 338.918302 137.357854 
L 339.353787 136.042572 
L 340.224759 134.971883 
L 340.660244 133.815117 
L 341.531216 132.881902 
L 341.966701 131.705176 
L 342.402187 129.997435 
L 342.837673 129.611601 
L 343.708644 127.13033 
L 345.450586 123.822185 
L 345.886072 123.921339 
L 346.321558 123.588849 
L 346.757043 122.623852 
L 348.0635 119.004953 
L 348.498986 118.841111 
L 348.934472 118.241209 
L 349.369957 117.403337 
L 350.240929 114.735969 
L 350.676414 114.09844 
L 351.547385 111.583829 
L 352.418357 110.948292 
L 352.853842 109.814561 
L 353.289328 109.226652 
L 353.724814 107.419108 
L 354.160299 107.250114 
L 354.595785 107.236258 
L 355.466756 104.739616 
L 356.773213 99.705588 
L 357.208699 99.181762 
L 358.07967 96.99609 
L 358.515156 96.729241 
L 358.950641 96.079026 
L 359.386127 95.193136 
L 359.821613 93.991296 
L 360.257098 93.431185 
L 360.692584 92.359977 
L 361.12807 92.674195 
L 362.870012 88.643093 
L 363.740983 85.303514 
L 364.176469 85.368592 
L 364.611955 84.214337 
L 365.04744 84.271838 
L 365.918412 82.537122 
L 366.789383 82.063695 
L 367.224869 81.227598 
L 367.660354 82.864676 
L 368.09584 83.462673 
L 368.531325 79.193429 
L 368.966811 77.503657 
L 369.402297 76.829541 
L 369.837782 72.037162 
L 370.273268 71.523597 
L 370.708754 70.284088 
L 371.144239 69.558316 
L 371.579725 67.810524 
L 372.015211 67.331338 
L 372.450696 67.049681 
L 372.886182 66.23151 
L 373.321668 66.813227 
L 373.757153 66.641894 
L 374.192639 65.400133 
L 374.628124 64.725194 
L 375.499096 62.463924 
L 375.934581 62.378712 
L 376.370067 61.249614 
L 376.805553 60.505527 
L 377.241038 60.576883 
L 377.676524 58.544186 
L 378.547495 56.979201 
L 378.982981 56.879008 
L 379.853952 55.723454 
L 380.289438 55.502761 
L 380.724923 55.024484 
L 381.595895 52.300611 
L 382.03138 52.055411 
L 382.902352 52.639639 
L 383.337837 52.05723 
L 383.773323 50.361006 
L 384.208809 49.372758 
L 384.644294 48.720768 
L 385.515265 46.091545 
L 386.386237 44.794578 
L 386.821722 43.259079 
L 387.257208 43.09225 
L 387.692694 41.748347 
L 388.563665 40.600674 
L 388.999151 39.464908 
L 389.434636 39.627278 
L 389.870122 39.366836 
L 390.741093 37.692479 
L 391.612064 35.50395 
L 392.04755 35.576345 
L 392.483036 34.990125 
L 392.483036 34.990125 
" clip-path="url(#p894f0562ad)" style="fill: none; stroke: #1f77b4; stroke-opacity: 0.8; stroke-width: 1.5; stroke-linecap: square"/>
   </g>
   <g id="line2d_19">
    <path d="M 137.28845 268.141776 
L 138.594907 268.004173 
L 140.33685 267.850593 
L 141.207821 267.635485 
L 142.514278 267.557937 
L 143.820735 267.43787 
L 150.788505 266.664687 
L 151.659476 266.612036 
L 152.530447 266.451961 
L 154.27239 266.201738 
L 157.756275 265.461158 
L 159.933703 265.255923 
L 164.28856 264.755997 
L 167.336959 264.506424 
L 168.207931 264.293395 
L 168.643416 264.241393 
L 169.514387 264.600468 
L 170.385359 264.540283 
L 170.820844 264.328899 
L 173.433758 264.318551 
L 174.740215 264.227494 
L 176.046672 264.117905 
L 176.482158 263.982164 
L 176.917643 264.151938 
L 179.095072 263.97896 
L 184.756385 263.972985 
L 185.627356 263.730989 
L 192.595126 263.11775 
L 193.901583 262.862808 
L 194.337069 262.857352 
L 195.20804 262.705504 
L 197.820954 262.64809 
L 202.175811 262.766252 
L 203.482267 262.940356 
L 209.143581 262.790802 
L 213.933923 262.401764 
L 216.982322 262.356734 
L 219.159751 262.267798 
L 222.643636 262.215147 
L 225.692035 262.197828 
L 226.563006 262.180855 
L 227.433978 262.193281 
L 228.740435 262.206055 
L 232.659805 262.159855 
L 233.095291 262.274466 
L 236.579176 262.118332 
L 237.014662 262.216186 
L 238.756604 262.197481 
L 241.369518 262.47403 
L 242.675975 262.666579 
L 245.724375 262.67316 
L 246.595346 262.790066 
L 247.901803 262.596305 
L 250.514717 262.492994 
L 253.998602 262.56907 
L 254.869573 262.47719 
L 255.305059 262.496588 
L 255.740544 262.69429 
L 261.837343 262.593707 
L 262.708315 262.594963 
L 267.498657 262.109932 
L 269.676085 262.103307 
L 270.547056 262.295769 
L 275.772884 261.960768 
L 276.643855 261.804763 
L 279.256769 261.921236 
L 280.563226 262.056761 
L 292.321338 261.624597 
L 295.805223 261.784456 
L 296.676195 261.827581 
L 297.547166 261.718296 
L 302.772994 261.147793 
L 304.950422 260.88549 
L 307.12785 260.969056 
L 307.998821 260.967021 
L 308.434307 260.834527 
L 309.305278 260.861156 
L 311.047221 260.852063 
L 314.09562 260.795342 
L 315.837563 260.783262 
L 317.579505 260.775511 
L 318.014991 260.609418 
L 321.063391 260.653453 
L 322.369847 260.675362 
L 322.805333 260.447827 
L 323.676304 260.317975 
L 324.982761 260.31135 
L 325.853733 260.186174 
L 326.724704 260.027138 
L 327.595675 259.924953 
L 328.466646 259.782544 
L 329.773103 259.48452 
L 331.950532 259.470101 
L 332.386017 259.527602 
L 334.12796 259.346743 
L 337.611845 259.354234 
L 338.047331 259.198143 
L 338.918302 259.268286 
L 339.789273 259.23919 
L 341.966701 258.853615 
L 348.0635 258.71047 
L 348.498986 258.705664 
L 348.934472 258.824302 
L 350.240929 258.895658 
L 353.289328 259.02261 
L 354.160299 258.91051 
L 354.595785 258.888168 
L 356.337728 258.287659 
L 358.515156 258.26129 
L 358.950641 258.126935 
L 359.386127 258.256874 
L 365.04744 258.295496 
L 366.353897 258.178373 
L 373.321668 257.838089 
L 375.06361 257.789898 
L 375.499096 257.589642 
L 376.370067 257.576652 
L 377.676524 257.423722 
L 382.466866 257.331972 
L 383.773323 257.274861 
L 384.644294 257.270012 
L 386.386237 257.394538 
L 388.128179 257.3473 
L 391.176579 257.405839 
L 392.483036 257.299844 
L 392.483036 257.299844 
" clip-path="url(#p894f0562ad)" style="fill: none; stroke: #ff7f0e; stroke-opacity: 0.8; stroke-width: 1.5; stroke-linecap: square"/>
   </g>
   <g id="line2d_20">
    <path d="M 137.28845 279.084767 
L 140.33685 279.11776 
L 144.691706 279.127589 
L 151.223991 279.008172 
L 156.449818 278.945389 
L 159.498218 279.026227 
L 166.901474 278.892434 
L 171.25633 278.898713 
L 175.175701 278.967947 
L 178.659586 278.97717 
L 181.707985 279.017351 
L 184.320899 279.01891 
L 201.740325 278.840649 
L 207.401638 278.689191 
L 210.014552 278.672434 
L 220.901693 278.717941 
L 222.643636 278.72738 
L 243.111461 278.522231 
L 246.595346 278.562889 
L 250.514717 278.593371 
L 251.385688 278.619307 
L 254.434087 278.68603 
L 256.611516 278.698024 
L 258.353458 278.667758 
L 262.272829 278.693867 
L 265.756714 278.633509 
L 267.063171 278.696854 
L 270.982542 278.682826 
L 281.869683 278.715343 
L 282.740654 278.768514 
L 284.918082 278.76046 
L 288.401967 278.821122 
L 290.579396 278.842078 
L 309.740764 278.700405 
L 310.611735 278.751324 
L 315.837563 278.628702 
L 321.498876 278.711273 
L 323.676304 278.741149 
L 328.466646 278.769553 
L 331.07956 278.767128 
L 349.805443 278.72305 
L 353.289328 278.760936 
L 362.434526 278.820212 
L 364.176469 278.783755 
L 365.918412 278.780464 
L 392.483036 278.786613 
L 392.483036 278.786613 
" clip-path="url(#p894f0562ad)" style="fill: none; stroke: #2ca02c; stroke-opacity: 0.8; stroke-width: 1.5; stroke-linecap: square"/>
   </g>
   <g id="line2d_21">
    <path d="M 137.28845 265.6011 
L 142.078792 265.160666 
L 142.514278 265.163957 
L 142.949763 264.811159 
L 145.562677 264.499583 
L 147.740105 264.379039 
L 149.046562 263.712673 
L 151.223991 263.634043 
L 153.836904 263.361911 
L 162.111132 262.984174 
L 162.982103 263.054404 
L 169.078902 262.823623 
L 175.175701 262.402544 
L 175.611186 262.526941 
L 179.966043 262.322571 
L 189.111241 261.931065 
L 189.982213 262.002941 
L 193.901583 261.814029 
L 195.643526 261.466168 
L 201.304839 261.190399 
L 202.611296 261.153768 
L 203.046782 261.10181 
L 203.482267 261.197889 
L 208.27261 260.825218 
L 209.579066 260.780664 
L 213.933923 260.349366 
L 214.369408 260.520136 
L 216.982322 260.391366 
L 217.853294 260.319187 
L 218.724265 260.331008 
L 219.159751 260.195873 
L 222.20815 260.038439 
L 223.514607 259.935648 
L 223.950093 259.948854 
L 224.821064 259.784016 
L 227.433978 259.749507 
L 227.869463 260.011247 
L 229.17592 260.109882 
L 230.482377 259.936124 
L 230.917863 259.973058 
L 231.788834 259.89932 
L 232.659805 259.907287 
L 233.966262 260.528276 
L 234.401748 260.373137 
L 244.417918 260.186823 
L 245.724375 260.069614 
L 247.030832 260.048787 
L 254.434087 259.684949 
L 255.305059 259.637537 
L 256.17603 259.714219 
L 256.611516 259.65832 
L 258.353458 257.883553 
L 258.788944 257.590854 
L 259.22443 256.914963 
L 260.530886 255.992442 
L 260.966372 255.385309 
L 262.272829 254.762112 
L 264.450257 252.379692 
L 264.885743 252.114098 
L 265.321229 251.673318 
L 266.1922 251.204524 
L 266.627685 250.668747 
L 267.063171 250.483082 
L 267.498657 249.9496 
L 267.934142 249.785152 
L 269.240599 248.50624 
L 270.111571 248.043248 
L 270.547056 247.901878 
L 271.853513 246.378243 
L 272.288999 246.345553 
L 272.724484 246.159585 
L 273.15997 245.523875 
L 274.030941 243.888442 
L 274.901913 242.648543 
L 275.772884 242.192955 
L 276.20837 241.640638 
L 277.079341 240.196066 
L 277.514826 239.618895 
L 277.950312 239.442107 
L 278.385798 238.841771 
L 278.821283 238.494776 
L 279.256769 238.301924 
L 279.692255 237.755669 
L 280.563226 237.512027 
L 280.998712 236.696498 
L 281.434197 236.268448 
L 282.305169 235.020971 
L 283.17614 234.623317 
L 284.047111 233.395801 
L 284.482597 233.18918 
L 284.918082 232.428379 
L 285.353568 232.226651 
L 286.224539 230.741465 
L 286.660025 230.449459 
L 287.530996 228.857412 
L 288.401967 226.759334 
L 289.708424 226.170733 
L 290.14391 225.8579 
L 290.579396 224.821548 
L 291.014881 224.171938 
L 291.450367 223.899503 
L 292.321338 222.565386 
L 293.19231 222.130668 
L 293.627795 221.49158 
L 294.498766 219.65403 
L 294.934252 219.5628 
L 296.240709 218.61482 
L 296.676195 218.256264 
L 297.11168 217.366477 
L 297.547166 216.928685 
L 297.982652 216.817148 
L 298.418137 215.341487 
L 298.853623 212.458146 
L 299.289109 211.530949 
L 299.724594 211.368189 
L 300.595565 209.444561 
L 301.031051 209.292064 
L 301.466537 208.340663 
L 301.902022 206.482936 
L 302.337508 206.375079 
L 303.208479 205.808213 
L 303.643965 205.57964 
L 304.514936 203.669045 
L 305.821393 198.098071 
L 306.256879 197.64573 
L 306.692364 196.7517 
L 307.12785 195.50483 
L 307.563336 195.280673 
L 307.998821 194.042592 
L 309.305278 193.147653 
L 309.740764 191.863589 
L 310.611735 190.250239 
L 311.047221 189.831411 
L 311.482706 188.621258 
L 312.353678 188.074353 
L 313.224649 185.319435 
L 313.660135 185.000021 
L 314.09562 184.888873 
L 314.531106 183.790647 
L 314.966592 183.584156 
L 315.837563 181.81177 
L 316.273049 180.570918 
L 316.708534 179.719884 
L 317.579505 178.784547 
L 318.450477 178.092722 
L 318.885962 177.793572 
L 319.756934 176.496951 
L 320.627905 174.077121 
L 321.063391 173.657211 
L 321.934362 172.319803 
L 325.853733 160.218271 
L 326.289218 159.760994 
L 327.595675 156.237136 
L 328.031161 156.006874 
L 328.466646 155.429184 
L 328.902132 154.121392 
L 329.337618 153.607524 
L 329.773103 152.243054 
L 331.07956 150.548433 
L 331.950532 148.309418 
L 332.386017 147.798408 
L 333.692474 144.389464 
L 334.12796 142.83028 
L 334.563445 140.813301 
L 334.998931 140.53489 
L 335.869902 137.078361 
L 336.305388 136.159824 
L 336.740874 135.644701 
L 337.176359 134.194716 
L 338.047331 133.712759 
L 338.482816 132.832152 
L 338.918302 131.336141 
L 339.353787 130.635007 
L 340.660244 127.39601 
L 341.966701 125.982093 
L 342.402187 126.129525 
L 342.837673 125.313606 
L 343.273158 125.061954 
L 343.708644 124.01179 
L 344.14413 124.50639 
L 344.579615 124.263138 
L 345.015101 123.483979 
L 345.450586 123.588892 
L 346.321558 121.824127 
L 346.757043 121.494451 
L 347.192529 120.316122 
L 347.628015 120.599382 
L 348.0635 120.31478 
L 348.498986 120.613974 
L 348.934472 120.605097 
L 350.676414 116.525934 
L 351.982871 114.859024 
L 352.418357 114.870585 
L 352.853842 113.540104 
L 353.289328 112.924961 
L 353.724814 113.0591 
L 354.160299 113.065119 
L 354.595785 112.842304 
L 355.031271 111.781444 
L 355.466756 111.488962 
L 355.902242 110.351551 
L 356.773213 108.956945 
L 357.208699 107.379836 
L 357.644184 104.70528 
L 358.07967 104.125209 
L 358.515156 104.059784 
L 359.386127 103.10544 
L 359.821613 103.22568 
L 360.257098 102.316582 
L 360.692584 102.094157 
L 361.12807 101.596309 
L 361.563555 100.682882 
L 361.999041 100.730467 
L 362.870012 99.742868 
L 363.305498 99.381671 
L 363.740983 99.494464 
L 364.176469 98.563284 
L 365.482926 94.409214 
L 365.918412 94.879481 
L 366.353897 94.781453 
L 366.789383 94.882815 
L 367.224869 94.435886 
L 368.09584 91.994104 
L 368.966811 90.417947 
L 369.402297 90.387335 
L 369.837782 89.766649 
L 370.273268 88.329308 
L 371.144239 86.827106 
L 371.579725 85.73282 
L 372.015211 84.97215 
L 372.450696 83.833526 
L 372.886182 84.796963 
L 373.321668 84.732622 
L 373.757153 84.179785 
L 374.628124 82.255031 
L 375.06361 82.34401 
L 375.499096 83.072985 
L 375.934581 82.398653 
L 376.370067 81.188889 
L 376.805553 80.570671 
L 377.676524 78.565209 
L 378.11201 78.221894 
L 378.547495 77.582374 
L 378.982981 77.973404 
L 379.418466 74.538264 
L 380.289438 73.251689 
L 380.724923 72.061843 
L 381.160409 71.622405 
L 381.595895 70.826187 
L 382.03138 71.272509 
L 382.466866 71.511647 
L 382.902352 70.156097 
L 383.337837 70.214204 
L 383.773323 72.683264 
L 384.208809 72.521241 
L 384.644294 71.941213 
L 385.07978 71.155689 
L 385.950751 70.428619 
L 386.821722 71.86596 
L 387.257208 70.708111 
L 387.692694 70.794622 
L 388.999151 69.784292 
L 389.434636 69.389019 
L 389.870122 70.957598 
L 390.305608 71.979878 
L 390.741093 72.41503 
L 391.176579 72.351684 
L 392.04755 73.621546 
L 392.483036 73.465974 
L 392.483036 73.465974 
" clip-path="url(#p894f0562ad)" style="fill: none; stroke: #d62728; stroke-opacity: 0.8; stroke-width: 1.5; stroke-linecap: square"/>
   </g>
   <g id="line2d_22">
    <path d="M 137.28845 274.33703 
L 139.030393 274.284465 
L 151.659476 273.64685 
L 152.965933 273.585798 
L 154.707876 273.535832 
L 156.014333 273.520937 
L 162.982103 273.466641 
L 163.417588 273.571207 
L 166.030502 273.489805 
L 168.207931 273.507211 
L 170.385359 273.439752 
L 171.691816 273.477985 
L 172.998273 273.387751 
L 174.740215 273.419748 
L 176.482158 273.280327 
L 178.2241 273.244216 
L 179.966043 273.061799 
L 183.885414 273.093493 
L 186.062842 273.260409 
L 186.933813 273.23036 
L 188.675756 273.242527 
L 189.546727 272.793174 
L 192.159641 270.257563 
L 193.030612 269.844711 
L 193.466098 269.410339 
L 195.643526 268.197804 
L 196.514497 267.257272 
L 196.949983 267.095378 
L 198.25644 265.14785 
L 199.127411 264.765523 
L 199.562897 264.073394 
L 201.740325 262.593967 
L 202.175811 262.144181 
L 202.611296 261.912014 
L 203.482267 261.199838 
L 204.353239 260.56547 
L 205.22421 259.693609 
L 206.095181 259.263004 
L 206.966153 257.884895 
L 207.401638 257.744608 
L 207.837124 257.460785 
L 208.27261 256.980604 
L 208.708095 256.853349 
L 209.143581 256.254789 
L 210.014552 255.557205 
L 210.450038 254.897247 
L 210.885523 254.011141 
L 211.321009 253.599024 
L 211.756495 253.511908 
L 212.19198 252.995355 
L 212.627466 252.738638 
L 213.062952 252.202687 
L 214.369408 251.347496 
L 215.675865 250.605488 
L 216.111351 250.030828 
L 217.853294 249.005257 
L 218.288779 247.998781 
L 219.595236 247.012092 
L 220.030722 246.339837 
L 220.466207 246.103383 
L 221.337179 245.487894 
L 221.772664 245.341761 
L 222.643636 244.684488 
L 223.079121 244.36555 
L 223.514607 243.865321 
L 223.950093 243.755992 
L 224.385578 242.982982 
L 224.821064 241.866743 
L 225.692035 240.926557 
L 226.127521 240.61433 
L 226.563006 239.983903 
L 226.998492 239.729999 
L 227.433978 239.212364 
L 228.740435 238.619433 
L 229.17592 237.796976 
L 230.046892 237.37607 
L 230.917863 234.969576 
L 231.788834 234.228866 
L 232.22432 232.703586 
L 232.659805 232.552084 
L 233.966262 229.205663 
L 234.401748 228.886985 
L 234.837234 227.667609 
L 235.272719 227.327758 
L 235.708205 226.618787 
L 236.143691 226.361333 
L 236.579176 224.898359 
L 237.450147 224.116733 
L 237.885633 223.101856 
L 238.321119 222.712125 
L 238.756604 220.487572 
L 240.063061 216.827496 
L 240.934033 215.960788 
L 241.805004 213.280343 
L 242.24049 212.867361 
L 242.675975 212.237972 
L 243.111461 210.46905 
L 243.546946 209.216594 
L 243.982432 208.647694 
L 244.417918 208.306977 
L 244.853403 207.162724 
L 245.288889 206.776024 
L 246.15986 204.04977 
L 246.595346 203.532048 
L 247.466317 200.617185 
L 247.901803 199.679163 
L 248.337289 199.392007 
L 250.079231 195.798091 
L 251.385688 194.610973 
L 251.821174 193.966516 
L 252.256659 193.106562 
L 252.692145 191.463336 
L 253.127631 190.30224 
L 253.563116 189.785298 
L 253.998602 189.588246 
L 254.434087 187.793172 
L 254.869573 187.253584 
L 255.305059 186.184065 
L 255.740544 185.988442 
L 256.17603 184.794266 
L 256.611516 184.275029 
L 257.047001 184.168774 
L 257.482487 183.178361 
L 257.917973 183.015602 
L 258.353458 181.781461 
L 258.788944 181.609999 
L 259.22443 180.216692 
L 259.659915 179.261958 
L 260.095401 177.560452 
L 260.966372 176.206634 
L 261.837343 175.620197 
L 262.708315 174.653988 
L 263.1438 174.398916 
L 263.579286 173.904359 
L 264.014772 173.665957 
L 264.450257 172.621378 
L 266.1922 171.57143 
L 266.627685 171.31731 
L 267.934142 169.556831 
L 268.369628 167.793062 
L 268.805114 166.840362 
L 269.240599 166.6773 
L 269.676085 164.885256 
L 270.111571 164.6934 
L 270.547056 163.785082 
L 270.982542 162.078986 
L 271.418027 160.83545 
L 271.853513 160.501141 
L 272.288999 158.987811 
L 272.724484 158.765342 
L 274.030941 157.273791 
L 274.466427 156.368807 
L 274.901913 155.049238 
L 275.337398 155.339988 
L 275.772884 155.484909 
L 276.20837 155.439662 
L 276.643855 155.676375 
L 277.079341 155.232824 
L 277.950312 155.147223 
L 278.385798 155.210179 
L 278.821283 155.105267 
L 279.692255 152.059685 
L 280.12774 152.026085 
L 280.563226 150.830653 
L 280.998712 151.046367 
L 281.434197 150.30661 
L 281.869683 149.852061 
L 282.305169 148.675724 
L 282.740654 148.725518 
L 283.17614 148.966864 
L 283.611625 147.4712 
L 284.047111 147.052372 
L 284.482597 147.514152 
L 284.918082 146.603149 
L 285.353568 146.828908 
L 285.789054 146.781669 
L 286.660025 144.301827 
L 287.095511 144.587295 
L 287.530996 143.86187 
L 287.966482 142.624092 
L 288.401967 142.458172 
L 288.837453 142.579668 
L 289.708424 140.711679 
L 290.14391 140.74307 
L 290.579396 139.808946 
L 291.450367 139.796822 
L 291.885853 140.212662 
L 292.321338 138.892704 
L 292.756824 138.15299 
L 293.19231 138.410097 
L 293.627795 137.900039 
L 294.934252 134.543876 
L 295.369738 134.479838 
L 295.805223 135.092773 
L 296.240709 134.235893 
L 296.676195 133.726009 
L 297.11168 134.046202 
L 297.547166 133.688123 
L 297.982652 133.506398 
L 298.418137 132.593836 
L 298.853623 132.740922 
L 300.16008 132.325558 
L 300.595565 132.066632 
L 301.031051 132.362102 
L 301.466537 131.753453 
L 301.902022 131.719984 
L 302.337508 131.230753 
L 302.772994 129.779772 
L 303.208479 130.267055 
L 303.643965 130.357766 
L 304.950422 128.303073 
L 305.385907 126.866078 
L 306.256879 126.881666 
L 306.692364 125.486844 
L 307.563336 125.270567 
L 307.998821 124.679931 
L 308.434307 124.75592 
L 308.869793 123.846476 
L 309.305278 123.546286 
L 309.740764 122.831166 
L 310.17625 121.802997 
L 310.611735 121.390881 
L 311.047221 121.325933 
L 311.482706 121.617376 
L 311.918192 121.422359 
L 312.353678 120.18129 
L 312.789163 119.789611 
L 314.09562 119.555669 
L 314.531106 119.212527 
L 314.966592 119.13039 
L 315.837563 120.913513 
L 316.273049 119.783722 
L 316.708534 119.712929 
L 317.14402 120.707239 
L 317.579505 120.733045 
L 318.014991 121.666996 
L 318.450477 121.330003 
L 318.885962 122.155145 
L 319.321448 121.852357 
L 319.756934 122.906895 
L 320.192419 122.284564 
L 320.627905 122.658145 
L 321.063391 122.634634 
L 321.498876 123.962646 
L 321.934362 123.437693 
L 322.369847 123.588935 
L 322.805333 123.023282 
L 323.240819 123.262291 
L 323.676304 125.118459 
L 324.11179 125.992312 
L 324.982761 126.383385 
L 325.418247 126.123896 
L 325.853733 125.403061 
L 326.724704 126.596717 
L 327.16019 126.734364 
L 327.595675 127.234203 
L 328.031161 128.657602 
L 328.466646 129.047506 
L 328.902132 128.812438 
L 329.337618 128.782735 
L 330.208589 128.42695 
L 330.644075 128.239857 
L 331.07956 128.824302 
L 331.515046 128.699861 
L 332.386017 131.038074 
L 332.821503 130.856566 
L 333.256989 130.807292 
L 333.692474 131.04301 
L 334.12796 130.225748 
L 334.563445 131.112894 
L 335.434417 128.092901 
L 335.869902 128.021156 
L 336.740874 125.683463 
L 337.176359 125.896535 
L 337.611845 126.742461 
L 338.047331 127.313569 
L 338.918302 126.78524 
L 339.353787 128.163478 
L 339.789273 128.416299 
L 340.224759 129.17147 
L 340.660244 128.81746 
L 341.09573 129.846712 
L 341.531216 129.104011 
L 341.966701 129.119122 
L 342.402187 128.467824 
L 342.837673 127.463383 
L 343.273158 127.912476 
L 343.708644 126.819965 
L 344.14413 127.949843 
L 344.579615 128.517358 
L 345.015101 129.783323 
L 345.450586 130.008432 
L 345.886072 128.67687 
L 346.321558 128.696571 
L 346.757043 128.461849 
L 347.628015 128.752469 
L 348.0635 128.242238 
L 348.498986 128.341868 
L 348.934472 128.202144 
L 349.369957 128.797673 
L 349.805443 128.705534 
L 350.240929 127.266634 
L 350.676414 127.219308 
L 351.547385 124.820954 
L 351.982871 121.876951 
L 352.418357 121.503544 
L 352.853842 120.89312 
L 353.289328 121.775069 
L 353.724814 122.104182 
L 354.160299 121.862403 
L 354.595785 123.506408 
L 355.031271 123.335855 
L 355.466756 123.419854 
L 355.902242 123.664621 
L 356.337728 123.694974 
L 356.773213 122.385493 
L 357.208699 122.776567 
L 357.644184 122.615496 
L 358.07967 123.007781 
L 358.515156 123.211631 
L 358.950641 122.48941 
L 359.386127 123.203707 
L 359.821613 123.022546 
L 360.257098 121.396683 
L 360.692584 121.331865 
L 361.12807 121.472932 
L 361.563555 120.40614 
L 361.999041 120.794356 
L 362.434526 120.364141 
L 362.870012 120.296941 
L 363.740983 117.443389 
L 364.176469 118.412845 
L 364.611955 119.793465 
L 365.04744 119.75415 
L 365.482926 119.443569 
L 365.918412 119.389099 
L 366.353897 119.940117 
L 366.789383 118.681123 
L 367.224869 119.822908 
L 367.660354 119.501978 
L 368.09584 119.489422 
L 368.531325 120.360763 
L 368.966811 120.678748 
L 369.402297 120.564527 
L 369.837782 121.432967 
L 370.273268 121.250853 
L 370.708754 119.949037 
L 371.144239 120.571974 
L 371.579725 121.648767 
L 372.015211 121.541603 
L 372.450696 122.075215 
L 372.886182 123.135815 
L 373.321668 122.401774 
L 373.757153 122.047634 
L 374.192639 122.249925 
L 374.628124 123.456831 
L 375.06361 122.051012 
L 375.499096 122.612725 
L 375.934581 121.473148 
L 376.370067 121.76182 
L 376.805553 121.763379 
L 377.241038 122.944955 
L 377.676524 123.636564 
L 378.11201 123.738532 
L 378.547495 122.66044 
L 378.982981 123.596556 
L 379.418466 123.152096 
L 379.853952 124.201524 
L 380.289438 124.307259 
L 380.724923 123.430029 
L 381.160409 123.305806 
L 381.595895 123.712293 
L 382.03138 123.522775 
L 382.902352 120.890912 
L 383.337837 120.920744 
L 383.773323 120.737938 
L 384.208809 120.070576 
L 384.644294 119.972591 
L 385.07978 120.244939 
L 385.515265 120.291009 
L 385.950751 120.197224 
L 386.386237 120.931569 
L 386.821722 119.708513 
L 387.257208 120.220909 
L 388.128179 119.638369 
L 388.563665 118.241729 
L 388.999151 117.275693 
L 389.434636 117.511541 
L 389.870122 118.041992 
L 390.305608 117.872088 
L 390.741093 118.18583 
L 391.176579 117.307994 
L 391.612064 118.371798 
L 392.483036 118.73083 
L 392.483036 118.73083 
" clip-path="url(#p894f0562ad)" style="fill: none; stroke: #9467bd; stroke-opacity: 0.8; stroke-width: 1.5; stroke-linecap: square"/>
   </g>
   <g id="patch_3">
    <path d="M 52.36875 288.430125 
L 52.36875 22.318125 
" style="fill: none; stroke: #000000; stroke-width: 0.8; stroke-linejoin: miter; stroke-linecap: square"/>
   </g>
   <g id="patch_4">
    <path d="M 409.48875 288.430125 
L 409.48875 22.318125 
" style="fill: none; stroke: #000000; stroke-width: 0.8; stroke-linejoin: miter; stroke-linecap: square"/>
   </g>
   <g id="patch_5">
    <path d="M 52.36875 288.430125 
L 409.48875 288.430125 
" style="fill: none; stroke: #000000; stroke-width: 0.8; stroke-linejoin: miter; stroke-linecap: square"/>
   </g>
   <g id="patch_6">
    <path d="M 52.36875 22.318125 
L 409.48875 22.318125 
" style="fill: none; stroke: #000000; stroke-width: 0.8; stroke-linejoin: miter; stroke-linecap: square"/>
   </g>
   <g id="text_20">
    <!-- Create [branch] -->
    <g transform="translate(183.549375 16.318125) scale(0.12 -0.12)">
     <defs>
      <path id="DejaVuSans-43" d="M 4122 4306 
L 4122 3641 
Q 3803 3938 3442 4084 
Q 3081 4231 2675 4231 
Q 1875 4231 1450 3742 
Q 1025 3253 1025 2328 
Q 1025 1406 1450 917 
Q 1875 428 2675 428 
Q 3081 428 3442 575 
Q 3803 722 4122 1019 
L 4122 359 
Q 3791 134 3420 21 
Q 3050 -91 2638 -91 
Q 1578 -91 968 557 
Q 359 1206 359 2328 
Q 359 3453 968 4101 
Q 1578 4750 2638 4750 
Q 3056 4750 3426 4639 
Q 3797 4528 4122 4306 
z
" transform="scale(0.015625)"/>
      <path id="DejaVuSans-5b" d="M 550 4863 
L 1875 4863 
L 1875 4416 
L 1125 4416 
L 1125 -397 
L 1875 -397 
L 1875 -844 
L 550 -844 
L 550 4863 
z
" transform="scale(0.015625)"/>
      <path id="DejaVuSans-68" d="M 3513 2113 
L 3513 0 
L 2938 0 
L 2938 2094 
Q 2938 2591 2744 2837 
Q 2550 3084 2163 3084 
Q 1697 3084 1428 2787 
Q 1159 2491 1159 1978 
L 1159 0 
L 581 0 
L 581 4863 
L 1159 4863 
L 1159 2956 
Q 1366 3272 1645 3428 
Q 1925 3584 2291 3584 
Q 2894 3584 3203 3211 
Q 3513 2838 3513 2113 
z
" transform="scale(0.015625)"/>
      <path id="DejaVuSans-5d" d="M 1947 4863 
L 1947 -844 
L 622 -844 
L 622 -397 
L 1369 -397 
L 1369 4416 
L 622 4416 
L 622 4863 
L 1947 4863 
z
" transform="scale(0.015625)"/>
     </defs>
     <use xlink:href="#DejaVuSans-43"/>
     <use xlink:href="#DejaVuSans-72" transform="translate(69.824219 0)"/>
     <use xlink:href="#DejaVuSans-65" transform="translate(108.6875 0)"/>
     <use xlink:href="#DejaVuSans-61" transform="translate(170.210938 0)"/>
     <use xlink:href="#DejaVuSans-74" transform="translate(231.490234 0)"/>
     <use xlink:href="#DejaVuSans-65" transform="translate(270.699219 0)"/>
     <use xlink:href="#DejaVuSans-20" transform="translate(332.222656 0)"/>
     <use xlink:href="#DejaVuSans-5b" transform="translate(364.009766 0)"/>
     <use xlink:href="#DejaVuSans-62" transform="translate(403.023438 0)"/>
     <use xlink:href="#DejaVuSans-72" transform="translate(466.5 0)"/>
     <use xlink:href="#DejaVuSans-61" transform="translate(507.613281 0)"/>
     <use xlink:href="#DejaVuSans-6e" transform="translate(568.892578 0)"/>
     <use xlink:href="#DejaVuSans-63" transform="translate(632.271484 0)"/>
     <use xlink:href="#DejaVuSans-68" transform="translate(687.251953 0)"/>
     <use xlink:href="#DejaVuSans-5d" transform="translate(750.630859 0)"/>
    </g>
   </g>
   <g id="legend_1">
    <g id="patch_7">
     <path d="M 83.371094 365.802375 
L 370.966406 365.802375 
Q 372.966406 365.802375 372.966406 363.802375 
L 372.966406 335.446125 
Q 372.966406 333.446125 370.966406 333.446125 
L 83.371094 333.446125 
Q 81.371094 333.446125 81.371094 335.446125 
L 81.371094 363.802375 
Q 81.371094 365.802375 83.371094 365.802375 
z
" style="fill: #4d4d4d; opacity: 0.5; stroke: #4d4d4d; stroke-linejoin: miter"/>
    </g>
    <g id="patch_8">
     <path d="M 81.371094 363.802375 
L 368.966406 363.802375 
Q 370.966406 363.802375 370.966406 361.802375 
L 370.966406 333.446125 
Q 370.966406 331.446125 368.966406 331.446125 
L 81.371094 331.446125 
Q 79.371094 331.446125 79.371094 333.446125 
L 79.371094 361.802375 
Q 79.371094 363.802375 81.371094 363.802375 
z
" style="fill: #ffffff; stroke: #cccccc; stroke-linejoin: miter"/>
    </g>
    <g id="line2d_23">
     <path d="M 83.371094 339.544562 
L 93.371094 339.544562 
L 103.371094 339.544562 
" style="fill: none; stroke: #1f77b4; stroke-opacity: 0.8; stroke-width: 1.5; stroke-linecap: square"/>
    </g>
    <g id="text_21">
     <!-- MPTT -->
     <g transform="translate(111.371094 343.044562) scale(0.1 -0.1)">
      <defs>
       <path id="DejaVuSans-4d" d="M 628 4666 
L 1569 4666 
L 2759 1491 
L 3956 4666 
L 4897 4666 
L 4897 0 
L 4281 0 
L 4281 4097 
L 3078 897 
L 2444 897 
L 1241 4097 
L 1241 0 
L 628 0 
L 628 4666 
z
" transform="scale(0.015625)"/>
       <path id="DejaVuSans-50" d="M 1259 4147 
L 1259 2394 
L 2053 2394 
Q 2494 2394 2734 2622 
Q 2975 2850 2975 3272 
Q 2975 3691 2734 3919 
Q 2494 4147 2053 4147 
L 1259 4147 
z
M 628 4666 
L 2053 4666 
Q 2838 4666 3239 4311 
Q 3641 3956 3641 3272 
Q 3641 2581 3239 2228 
Q 2838 1875 2053 1875 
L 1259 1875 
L 1259 0 
L 628 0 
L 628 4666 
z
" transform="scale(0.015625)"/>
       <path id="DejaVuSans-54" d="M -19 4666 
L 3928 4666 
L 3928 4134 
L 2272 4134 
L 2272 0 
L 1638 0 
L 1638 4134 
L -19 4134 
L -19 4666 
z
" transform="scale(0.015625)"/>
      </defs>
      <use xlink:href="#DejaVuSans-4d"/>
      <use xlink:href="#DejaVuSans-50" transform="translate(86.279297 0)"/>
      <use xlink:href="#DejaVuSans-54" transform="translate(146.582031 0)"/>
      <use xlink:href="#DejaVuSans-54" transform="translate(205.916016 0)"/>
     </g>
    </g>
    <g id="line2d_24">
     <path d="M 83.371094 354.222687 
L 93.371094 354.222687 
L 103.371094 354.222687 
" style="fill: none; stroke: #ff7f0e; stroke-opacity: 0.8; stroke-width: 1.5; stroke-linecap: square"/>
    </g>
    <g id="text_22">
     <!-- tree -->
     <g transform="translate(111.371094 357.722687) scale(0.1 -0.1)">
      <use xlink:href="#DejaVuSans-74"/>
      <use xlink:href="#DejaVuSans-72" transform="translate(39.208984 0)"/>
      <use xlink:href="#DejaVuSans-65" transform="translate(78.072266 0)"/>
      <use xlink:href="#DejaVuSans-65" transform="translate(139.595703 0)"/>
     </g>
    </g>
    <g id="line2d_25">
     <path d="M 158.069531 339.544562 
L 168.069531 339.544562 
L 178.069531 339.544562 
" style="fill: none; stroke: #2ca02c; stroke-opacity: 0.8; stroke-width: 1.5; stroke-linecap: square"/>
    </g>
    <g id="text_23">
     <!-- treebeard AL -->
     <g transform="translate(186.069531 343.044562) scale(0.1 -0.1)">
      <defs>
       <path id="DejaVuSans-64" d="M 2906 2969 
L 2906 4863 
L 3481 4863 
L 3481 0 
L 2906 0 
L 2906 525 
Q 2725 213 2448 61 
Q 2172 -91 1784 -91 
Q 1150 -91 751 415 
Q 353 922 353 1747 
Q 353 2572 751 3078 
Q 1150 3584 1784 3584 
Q 2172 3584 2448 3432 
Q 2725 3281 2906 2969 
z
M 947 1747 
Q 947 1113 1208 752 
Q 1469 391 1925 391 
Q 2381 391 2643 752 
Q 2906 1113 2906 1747 
Q 2906 2381 2643 2742 
Q 2381 3103 1925 3103 
Q 1469 3103 1208 2742 
Q 947 2381 947 1747 
z
" transform="scale(0.015625)"/>
       <path id="DejaVuSans-4c" d="M 628 4666 
L 1259 4666 
L 1259 531 
L 3531 531 
L 3531 0 
L 628 0 
L 628 4666 
z
" transform="scale(0.015625)"/>
      </defs>
      <use xlink:href="#DejaVuSans-74"/>
      <use xlink:href="#DejaVuSans-72" transform="translate(39.208984 0)"/>
      <use xlink:href="#DejaVuSans-65" transform="translate(78.072266 0)"/>
      <use xlink:href="#DejaVuSans-65" transform="translate(139.595703 0)"/>
      <use xlink:href="#DejaVuSans-62" transform="translate(201.119141 0)"/>
      <use xlink:href="#DejaVuSans-65" transform="translate(264.595703 0)"/>
      <use xlink:href="#DejaVuSans-61" transform="translate(326.119141 0)"/>
      <use xlink:href="#DejaVuSans-72" transform="translate(387.398438 0)"/>
      <use xlink:href="#DejaVuSans-64" transform="translate(426.761719 0)"/>
      <use xlink:href="#DejaVuSans-20" transform="translate(490.238281 0)"/>
      <use xlink:href="#DejaVuSans-41" transform="translate(522.025391 0)"/>
      <use xlink:href="#DejaVuSans-4c" transform="translate(590.433594 0)"/>
     </g>
    </g>
    <g id="line2d_26">
     <path d="M 158.069531 354.222687 
L 168.069531 354.222687 
L 178.069531 354.222687 
" style="fill: none; stroke: #d62728; stroke-opacity: 0.8; stroke-width: 1.5; stroke-linecap: square"/>
    </g>
    <g id="text_24">
     <!-- treebeard MP -->
     <g transform="translate(186.069531 357.722687) scale(0.1 -0.1)">
      <use xlink:href="#DejaVuSans-74"/>
      <use xlink:href="#DejaVuSans-72" transform="translate(39.208984 0)"/>
      <use xlink:href="#DejaVuSans-65" transform="translate(78.072266 0)"/>
      <use xlink:href="#DejaVuSans-65" transform="translate(139.595703 0)"/>
      <use xlink:href="#DejaVuSans-62" transform="translate(201.119141 0)"/>
      <use xlink:href="#DejaVuSans-65" transform="translate(264.595703 0)"/>
      <use xlink:href="#DejaVuSans-61" transform="translate(326.119141 0)"/>
      <use xlink:href="#DejaVuSans-72" transform="translate(387.398438 0)"/>
      <use xlink:href="#DejaVuSans-64" transform="translate(426.761719 0)"/>
      <use xlink:href="#DejaVuSans-20" transform="translate(490.238281 0)"/>
      <use xlink:href="#DejaVuSans-4d" transform="translate(522.025391 0)"/>
      <use xlink:href="#DejaVuSans-50" transform="translate(608.304688 0)"/>
     </g>
    </g>
    <g id="line2d_27">
     <path d="M 272.932031 339.544562 
L 282.932031 339.544562 
L 292.932031 339.544562 
" style="fill: none; stroke: #9467bd; stroke-opacity: 0.8; stroke-width: 1.5; stroke-linecap: square"/>
    </g>
    <g id="text_25">
     <!-- treebeard NS -->
     <g transform="translate(300.932031 343.044562) scale(0.1 -0.1)">
      <defs>
       <path id="DejaVuSans-4e" d="M 628 4666 
L 1478 4666 
L 3547 763 
L 3547 4666 
L 4159 4666 
L 4159 0 
L 3309 0 
L 1241 3903 
L 1241 0 
L 628 0 
L 628 4666 
z
" transform="scale(0.015625)"/>
       <path id="DejaVuSans-53" d="M 3425 4513 
L 3425 3897 
Q 3066 4069 2747 4153 
Q 2428 4238 2131 4238 
Q 1616 4238 1336 4038 
Q 1056 3838 1056 3469 
Q 1056 3159 1242 3001 
Q 1428 2844 1947 2747 
L 2328 2669 
Q 3034 2534 3370 2195 
Q 3706 1856 3706 1288 
Q 3706 609 3251 259 
Q 2797 -91 1919 -91 
Q 1588 -91 1214 -16 
Q 841 59 441 206 
L 441 856 
Q 825 641 1194 531 
Q 1563 422 1919 422 
Q 2459 422 2753 634 
Q 3047 847 3047 1241 
Q 3047 1584 2836 1778 
Q 2625 1972 2144 2069 
L 1759 2144 
Q 1053 2284 737 2584 
Q 422 2884 422 3419 
Q 422 4038 858 4394 
Q 1294 4750 2059 4750 
Q 2388 4750 2728 4690 
Q 3069 4631 3425 4513 
z
" transform="scale(0.015625)"/>
      </defs>
      <use xlink:href="#DejaVuSans-74"/>
      <use xlink:href="#DejaVuSans-72" transform="translate(39.208984 0)"/>
      <use xlink:href="#DejaVuSans-65" transform="translate(78.072266 0)"/>
      <use xlink:href="#DejaVuSans-65" transform="translate(139.595703 0)"/>
      <use xlink:href="#DejaVuSans-62" transform="translate(201.119141 0)"/>
      <use xlink:href="#DejaVuSans-65" transform="translate(264.595703 0)"/>
      <use xlink:href="#DejaVuSans-61" transform="translate(326.119141 0)"/>
      <use xlink:href="#DejaVuSans-72" transform="translate(387.398438 0)"/>
      <use xlink:href="#DejaVuSans-64" transform="translate(426.761719 0)"/>
      <use xlink:href="#DejaVuSans-20" transform="translate(490.238281 0)"/>
      <use xlink:href="#DejaVuSans-4e" transform="translate(522.025391 0)"/>
      <use xlink:href="#DejaVuSans-53" transform="translate(596.830078 0)"/>
     </g>
    </g>
   </g>
  </g>
 </g>
 <defs>
  <clipPath id="p894f0562ad">
   <rect x="52.36875" y="22.318125" width="357.12" height="266.112"/>
  </clipPath>
 </defs>
</svg>
