<?xml version="1.0" encoding="utf-8" standalone="no"?>
<!DOCTYPE svg PUBLIC "-//W3C//DTD SVG 1.1//EN"
  "http://www.w3.org/Graphics/SVG/1.1/DTD/svg11.dtd">
<svg xmlns:xlink="http://www.w3.org/1999/xlink" width="426.035625pt" height="371.002375pt" viewBox="0 0 426.035625 371.002375" xmlns="http://www.w3.org/2000/svg" version="1.1">
 <metadata>
  <rdf:RDF xmlns:dc="http://purl.org/dc/elements/1.1/" xmlns:cc="http://creativecommons.org/ns#" xmlns:rdf="http://www.w3.org/1999/02/22-rdf-syntax-ns#">
   <cc:Work>
    <dc:type rdf:resource="http://purl.org/dc/dcmitype/StillImage"/>
    <dc:date>2026-06-29T07:21:54.386740</dc:date>
    <dc:format>image/svg+xml</dc:format>
    <dc:creator>
     <cc:Agent>
      <dc:title>Matplotlib v3.10.6, https://matplotlib.org/</dc:title>
     </cc:Agent>
    </dc:creator>
   </cc:Work>
  </rdf:RDF>
 </metadata>
 <defs>
  <style type="text/css">*{stroke-linejoin: round; stroke-linecap: butt}</style>
 </defs>
 <g id="figure_1">
  <g id="patch_1">
   <path d="M 0 371.002375 
L 426.035625 371.002375 
L 426.035625 0 
L 0 0 
z
" style="fill: #ffffff"/>
  </g>
  <g id="axes_1">
   <g id="patch_2">
    <path d="M 61.715625 288.430125 
L 418.835625 288.430125 
L 418.835625 22.318125 
L 61.715625 22.318125 
z
" style="fill: #ffffff"/>
   </g>
   <g id="matplotlib.axis_1">
    <g id="xtick_1">
     <g id="line2d_1">
      <defs>
       <path id="mf563cac653" d="M 0 0 
L 0 3.5 
" style="stroke: #000000; stroke-width: 0.8"/>
      </defs>
      <g>
       <use xlink:href="#mf563cac653" x="61.715625" y="288.430125" style="stroke: #000000; stroke-width: 0.8"/>
      </g>
     </g>
     <g id="text_1">
      <!-- 0 -->
      <g transform="translate(58.534375 303.028562) scale(0.1 -0.1)">
       <defs>
        <path id="DejaVuSans-30" d="M 2034 4250 
Q 1547 4250 1301 3770 
Q 1056 3291 1056 2328 
Q 1056 1369 1301 889 
Q 1547 409 2034 409 
Q 2525 409 2770 889 
Q 3016 1369 3016 2328 
Q 3016 3291 2770 3770 
Q 2525 4250 2034 4250 
z
M 2034 4750 
Q 2819 4750 3233 4129 
Q 3647 3509 3647 2328 
Q 3647 1150 3233 529 
Q 2819 -91 2034 -91 
Q 1250 -91 836 529 
Q 422 1150 422 2328 
Q 422 3509 836 4129 
Q 1250 4750 2034 4750 
z
" transform="scale(0.015625)"/>
       </defs>
       <use xlink:href="#DejaVuSans-30"/>
      </g>
     </g>
    </g>
    <g id="xtick_2">
     <g id="line2d_2">
      <g>
       <use xlink:href="#mf563cac653" x="105.264189" y="288.430125" style="stroke: #000000; stroke-width: 0.8"/>
      </g>
     </g>
     <g id="text_2">
      <!-- 500  -->
      <g transform="translate(94.131377 303.028562) scale(0.1 -0.1)">
       <defs>
        <path id="DejaVuSans-35" d="M 691 4666 
L 3169 4666 
L 3169 4134 
L 1269 4134 
L 1269 2991 
Q 1406 3038 1543 3061 
Q 1681 3084 1819 3084 
Q 2600 3084 3056 2656 
Q 3513 2228 3513 1497 
Q 3513 744 3044 326 
Q 2575 -91 1722 -91 
Q 1428 -91 1123 -41 
Q 819 9 494 109 
L 494 744 
Q 775 591 1075 516 
Q 1375 441 1709 441 
Q 2250 441 2565 725 
Q 2881 1009 2881 1497 
Q 2881 1984 2565 2268 
Q 2250 2553 1709 2553 
Q 1456 2553 1204 2497 
Q 953 2441 691 2322 
L 691 4666 
z
" transform="scale(0.015625)"/>
        <path id="DejaVuSans-20" transform="scale(0.015625)"/>
       </defs>
       <use xlink:href="#DejaVuSans-35"/>
       <use xlink:href="#DejaVuSans-30" transform="translate(63.623047 0)"/>
       <use xlink:href="#DejaVuSans-30" transform="translate(127.246094 0)"/>
       <use xlink:href="#DejaVuSans-20" transform="translate(190.869141 0)"/>
      </g>
     </g>
    </g>
    <g id="xtick_3">
     <g id="line2d_3">
      <g>
       <use xlink:href="#mf563cac653" x="148.812753" y="288.430125" style="stroke: #000000; stroke-width: 0.8"/>
      </g>
     </g>
     <g id="text_3">
      <!-- 1 k -->
      <g transform="translate(141.147128 303.028562) scale(0.1 -0.1)">
       <defs>
        <path id="DejaVuSans-31" d="M 794 531 
L 1825 531 
L 1825 4091 
L 703 3866 
L 703 4441 
L 1819 4666 
L 2450 4666 
L 2450 531 
L 3481 531 
L 3481 0 
L 794 0 
L 794 531 
z
" transform="scale(0.015625)"/>
        <path id="DejaVuSans-6b" d="M 581 4863 
L 1159 4863 
L 1159 1991 
L 2875 3500 
L 3609 3500 
L 1753 1863 
L 3688 0 
L 2938 0 
L 1159 1709 
L 1159 0 
L 581 0 
L 581 4863 
z
" transform="scale(0.015625)"/>
       </defs>
       <use xlink:href="#DejaVuSans-31"/>
       <use xlink:href="#DejaVuSans-20" transform="translate(63.623047 0)"/>
       <use xlink:href="#DejaVuSans-6b" transform="translate(95.410156 0)"/>
      </g>
     </g>
    </g>
    <g id="xtick_4">
     <g id="line2d_4">
      <g>
       <use xlink:href="#mf563cac653" x="192.361317" y="288.430125" style="stroke: #000000; stroke-width: 0.8"/>
      </g>
     </g>
     <g id="text_4">
      <!-- 1.5 k -->
      <g transform="translate(179.92538 303.028562) scale(0.1 -0.1)">
       <defs>
        <path id="DejaVuSans-2e" d="M 684 794 
L 1344 794 
L 1344 0 
L 684 0 
L 684 794 
z
" transform="scale(0.015625)"/>
       </defs>
       <use xlink:href="#DejaVuSans-31"/>
       <use xlink:href="#DejaVuSans-2e" transform="translate(63.623047 0)"/>
       <use xlink:href="#DejaVuSans-35" transform="translate(95.410156 0)"/>
       <use xlink:href="#DejaVuSans-20" transform="translate(159.033203 0)"/>
       <use xlink:href="#DejaVuSans-6b" transform="translate(190.820312 0)"/>
      </g>
     </g>
    </g>
    <g id="xtick_5">
     <g id="line2d_5">
      <g>
       <use xlink:href="#mf563cac653" x="235.909881" y="288.430125" style="stroke: #000000; stroke-width: 0.8"/>
      </g>
     </g>
     <g id="text_5">
      <!-- 2 k -->
      <g transform="translate(228.244256 303.028562) scale(0.1 -0.1)">
       <defs>
        <path id="DejaVuSans-32" d="M 1228 531 
L 3431 531 
L 3431 0 
L 469 0 
L 469 531 
Q 828 903 1448 1529 
Q 2069 2156 2228 2338 
Q 2531 2678 2651 2914 
Q 2772 3150 2772 3378 
Q 2772 3750 2511 3984 
Q 2250 4219 1831 4219 
Q 1534 4219 1204 4116 
Q 875 4013 500 3803 
L 500 4441 
Q 881 4594 1212 4672 
Q 1544 4750 1819 4750 
Q 2544 4750 2975 4387 
Q 3406 4025 3406 3419 
Q 3406 3131 3298 2873 
Q 3191 2616 2906 2266 
Q 2828 2175 2409 1742 
Q 1991 1309 1228 531 
z
" transform="scale(0.015625)"/>
       </defs>
       <use xlink:href="#DejaVuSans-32"/>
       <use xlink:href="#DejaVuSans-20" transform="translate(63.623047 0)"/>
       <use xlink:href="#DejaVuSans-6b" transform="translate(95.410156 0)"/>
      </g>
     </g>
    </g>
    <g id="xtick_6">
     <g id="line2d_6">
      <g>
       <use xlink:href="#mf563cac653" x="279.458446" y="288.430125" style="stroke: #000000; stroke-width: 0.8"/>
      </g>
     </g>
     <g id="text_6">
      <!-- 2.5 k -->
      <g transform="translate(267.022508 303.028562) scale(0.1 -0.1)">
       <use xlink:href="#DejaVuSans-32"/>
       <use xlink:href="#DejaVuSans-2e" transform="translate(63.623047 0)"/>
       <use xlink:href="#DejaVuSans-35" transform="translate(95.410156 0)"/>
       <use xlink:href="#DejaVuSans-20" transform="translate(159.033203 0)"/>
       <use xlink:href="#DejaVuSans-6b" transform="translate(190.820312 0)"/>
      </g>
     </g>
    </g>
    <g id="xtick_7">
     <g id="line2d_7">
      <g>
       <use xlink:href="#mf563cac653" x="323.00701" y="288.430125" style="stroke: #000000; stroke-width: 0.8"/>
      </g>
     </g>
     <g id="text_7">
      <!-- 3 k -->
      <g transform="translate(315.341385 303.028562) scale(0.1 -0.1)">
       <defs>
        <path id="DejaVuSans-33" d="M 2597 2516 
Q 3050 2419 3304 2112 
Q 3559 1806 3559 1356 
Q 3559 666 3084 287 
Q 2609 -91 1734 -91 
Q 1441 -91 1130 -33 
Q 819 25 488 141 
L 488 750 
Q 750 597 1062 519 
Q 1375 441 1716 441 
Q 2309 441 2620 675 
Q 2931 909 2931 1356 
Q 2931 1769 2642 2001 
Q 2353 2234 1838 2234 
L 1294 2234 
L 1294 2753 
L 1863 2753 
Q 2328 2753 2575 2939 
Q 2822 3125 2822 3475 
Q 2822 3834 2567 4026 
Q 2313 4219 1838 4219 
Q 1578 4219 1281 4162 
Q 984 4106 628 3988 
L 628 4550 
Q 988 4650 1302 4700 
Q 1616 4750 1894 4750 
Q 2613 4750 3031 4423 
Q 3450 4097 3450 3541 
Q 3450 3153 3228 2886 
Q 3006 2619 2597 2516 
z
" transform="scale(0.015625)"/>
       </defs>
       <use xlink:href="#DejaVuSans-33"/>
       <use xlink:href="#DejaVuSans-20" transform="translate(63.623047 0)"/>
       <use xlink:href="#DejaVuSans-6b" transform="translate(95.410156 0)"/>
      </g>
     </g>
    </g>
    <g id="xtick_8">
     <g id="line2d_8">
      <g>
       <use xlink:href="#mf563cac653" x="366.555574" y="288.430125" style="stroke: #000000; stroke-width: 0.8"/>
      </g>
     </g>
     <g id="text_8">
      <!-- 3.5 k -->
      <g transform="translate(354.119636 303.028562) scale(0.1 -0.1)">
       <use xlink:href="#DejaVuSans-33"/>
       <use xlink:href="#DejaVuSans-2e" transform="translate(63.623047 0)"/>
       <use xlink:href="#DejaVuSans-35" transform="translate(95.410156 0)"/>
       <use xlink:href="#DejaVuSans-20" transform="translate(159.033203 0)"/>
       <use xlink:href="#DejaVuSans-6b" transform="translate(190.820312 0)"/>
      </g>
     </g>
    </g>
    <g id="xtick_9">
     <g id="line2d_9">
      <g>
       <use xlink:href="#mf563cac653" x="410.104138" y="288.430125" style="stroke: #000000; stroke-width: 0.8"/>
      </g>
     </g>
     <g id="text_9">
      <!-- 4 k -->
      <g transform="translate(402.438513 303.028562) scale(0.1 -0.1)">
       <defs>
        <path id="DejaVuSans-34" d="M 2419 4116 
L 825 1625 
L 2419 1625 
L 2419 4116 
z
M 2253 4666 
L 3047 4666 
L 3047 1625 
L 3713 1625 
L 3713 1100 
L 3047 1100 
L 3047 0 
L 2419 0 
L 2419 1100 
L 313 1100 
L 313 1709 
L 2253 4666 
z
" transform="scale(0.015625)"/>
       </defs>
       <use xlink:href="#DejaVuSans-34"/>
       <use xlink:href="#DejaVuSans-20" transform="translate(63.623047 0)"/>
       <use xlink:href="#DejaVuSans-6b" transform="translate(95.410156 0)"/>
      </g>
     </g>
    </g>
    <g id="text_10">
     <!-- Amount of objects in table -->
     <g transform="translate(174.217031 316.706687) scale(0.1 -0.1)">
      <defs>
       <path id="DejaVuSans-41" d="M 2188 4044 
L 1331 1722 
L 3047 1722 
L 2188 4044 
z
M 1831 4666 
L 2547 4666 
L 4325 0 
L 3669 0 
L 3244 1197 
L 1141 1197 
L 716 0 
L 50 0 
L 1831 4666 
z
" transform="scale(0.015625)"/>
       <path id="DejaVuSans-6d" d="M 3328 2828 
Q 3544 3216 3844 3400 
Q 4144 3584 4550 3584 
Q 5097 3584 5394 3201 
Q 5691 2819 5691 2113 
L 5691 0 
L 5113 0 
L 5113 2094 
Q 5113 2597 4934 2840 
Q 4756 3084 4391 3084 
Q 3944 3084 3684 2787 
Q 3425 2491 3425 1978 
L 3425 0 
L 2847 0 
L 2847 2094 
Q 2847 2600 2669 2842 
Q 2491 3084 2119 3084 
Q 1678 3084 1418 2786 
Q 1159 2488 1159 1978 
L 1159 0 
L 581 0 
L 581 3500 
L 1159 3500 
L 1159 2956 
Q 1356 3278 1631 3431 
Q 1906 3584 2284 3584 
Q 2666 3584 2933 3390 
Q 3200 3197 3328 2828 
z
" transform="scale(0.015625)"/>
       <path id="DejaVuSans-6f" d="M 1959 3097 
Q 1497 3097 1228 2736 
Q 959 2375 959 1747 
Q 959 1119 1226 758 
Q 1494 397 1959 397 
Q 2419 397 2687 759 
Q 2956 1122 2956 1747 
Q 2956 2369 2687 2733 
Q 2419 3097 1959 3097 
z
M 1959 3584 
Q 2709 3584 3137 3096 
Q 3566 2609 3566 1747 
Q 3566 888 3137 398 
Q 2709 -91 1959 -91 
Q 1206 -91 779 398 
Q 353 888 353 1747 
Q 353 2609 779 3096 
Q 1206 3584 1959 3584 
z
" transform="scale(0.015625)"/>
       <path id="DejaVuSans-75" d="M 544 1381 
L 544 3500 
L 1119 3500 
L 1119 1403 
Q 1119 906 1312 657 
Q 1506 409 1894 409 
Q 2359 409 2629 706 
Q 2900 1003 2900 1516 
L 2900 3500 
L 3475 3500 
L 3475 0 
L 2900 0 
L 2900 538 
Q 2691 219 2414 64 
Q 2138 -91 1772 -91 
Q 1169 -91 856 284 
Q 544 659 544 1381 
z
M 1991 3584 
L 1991 3584 
z
" transform="scale(0.015625)"/>
       <path id="DejaVuSans-6e" d="M 3513 2113 
L 3513 0 
L 2938 0 
L 2938 2094 
Q 2938 2591 2744 2837 
Q 2550 3084 2163 3084 
Q 1697 3084 1428 2787 
Q 1159 2491 1159 1978 
L 1159 0 
L 581 0 
L 581 3500 
L 1159 3500 
L 1159 2956 
Q 1366 3272 1645 3428 
Q 1925 3584 2291 3584 
Q 2894 3584 3203 3211 
Q 3513 2838 3513 2113 
z
" transform="scale(0.015625)"/>
       <path id="DejaVuSans-74" d="M 1172 4494 
L 1172 3500 
L 2356 3500 
L 2356 3053 
L 1172 3053 
L 1172 1153 
Q 1172 725 1289 603 
Q 1406 481 1766 481 
L 2356 481 
L 2356 0 
L 1766 0 
Q 1100 0 847 248 
Q 594 497 594 1153 
L 594 3053 
L 172 3053 
L 172 3500 
L 594 3500 
L 594 4494 
L 1172 4494 
z
" transform="scale(0.015625)"/>
       <path id="DejaVuSans-66" d="M 2375 4863 
L 2375 4384 
L 1825 4384 
Q 1516 4384 1395 4259 
Q 1275 4134 1275 3809 
L 1275 3500 
L 2222 3500 
L 2222 3053 
L 1275 3053 
L 1275 0 
L 697 0 
L 697 3053 
L 147 3053 
L 147 3500 
L 697 3500 
L 697 3744 
Q 697 4328 969 4595 
Q 1241 4863 1831 4863 
L 2375 4863 
z
" transform="scale(0.015625)"/>
       <path id="DejaVuSans-62" d="M 3116 1747 
Q 3116 2381 2855 2742 
Q 2594 3103 2138 3103 
Q 1681 3103 1420 2742 
Q 1159 2381 1159 1747 
Q 1159 1113 1420 752 
Q 1681 391 2138 391 
Q 2594 391 2855 752 
Q 3116 1113 3116 1747 
z
M 1159 2969 
Q 1341 3281 1617 3432 
Q 1894 3584 2278 3584 
Q 2916 3584 3314 3078 
Q 3713 2572 3713 1747 
Q 3713 922 3314 415 
Q 2916 -91 2278 -91 
Q 1894 -91 1617 61 
Q 1341 213 1159 525 
L 1159 0 
L 581 0 
L 581 4863 
L 1159 4863 
L 1159 2969 
z
" transform="scale(0.015625)"/>
       <path id="DejaVuSans-6a" d="M 603 3500 
L 1178 3500 
L 1178 -63 
Q 1178 -731 923 -1031 
Q 669 -1331 103 -1331 
L -116 -1331 
L -116 -844 
L 38 -844 
Q 366 -844 484 -692 
Q 603 -541 603 -63 
L 603 3500 
z
M 603 4863 
L 1178 4863 
L 1178 4134 
L 603 4134 
L 603 4863 
z
" transform="scale(0.015625)"/>
       <path id="DejaVuSans-65" d="M 3597 1894 
L 3597 1613 
L 953 1613 
Q 991 1019 1311 708 
Q 1631 397 2203 397 
Q 2534 397 2845 478 
Q 3156 559 3463 722 
L 3463 178 
Q 3153 47 2828 -22 
Q 2503 -91 2169 -91 
Q 1331 -91 842 396 
Q 353 884 353 1716 
Q 353 2575 817 3079 
Q 1281 3584 2069 3584 
Q 2775 3584 3186 3129 
Q 3597 2675 3597 1894 
z
M 3022 2063 
Q 3016 2534 2758 2815 
Q 2500 3097 2075 3097 
Q 1594 3097 1305 2825 
Q 1016 2553 972 2059 
L 3022 2063 
z
" transform="scale(0.015625)"/>
       <path id="DejaVuSans-63" d="M 3122 3366 
L 3122 2828 
Q 2878 2963 2633 3030 
Q 2388 3097 2138 3097 
Q 1578 3097 1268 2742 
Q 959 2388 959 1747 
Q 959 1106 1268 751 
Q 1578 397 2138 397 
Q 2388 397 2633 464 
Q 2878 531 3122 666 
L 3122 134 
Q 2881 22 2623 -34 
Q 2366 -91 2075 -91 
Q 1284 -91 818 406 
Q 353 903 353 1747 
Q 353 2603 823 3093 
Q 1294 3584 2113 3584 
Q 2378 3584 2631 3529 
Q 2884 3475 3122 3366 
z
" transform="scale(0.015625)"/>
       <path id="DejaVuSans-73" d="M 2834 3397 
L 2834 2853 
Q 2591 2978 2328 3040 
Q 2066 3103 1784 3103 
Q 1356 3103 1142 2972 
Q 928 2841 928 2578 
Q 928 2378 1081 2264 
Q 1234 2150 1697 2047 
L 1894 2003 
Q 2506 1872 2764 1633 
Q 3022 1394 3022 966 
Q 3022 478 2636 193 
Q 2250 -91 1575 -91 
Q 1294 -91 989 -36 
Q 684 19 347 128 
L 347 722 
Q 666 556 975 473 
Q 1284 391 1588 391 
Q 1994 391 2212 530 
Q 2431 669 2431 922 
Q 2431 1156 2273 1281 
Q 2116 1406 1581 1522 
L 1381 1569 
Q 847 1681 609 1914 
Q 372 2147 372 2553 
Q 372 3047 722 3315 
Q 1072 3584 1716 3584 
Q 2034 3584 2315 3537 
Q 2597 3491 2834 3397 
z
" transform="scale(0.015625)"/>
       <path id="DejaVuSans-69" d="M 603 3500 
L 1178 3500 
L 1178 0 
L 603 0 
L 603 3500 
z
M 603 4863 
L 1178 4863 
L 1178 4134 
L 603 4134 
L 603 4863 
z
" transform="scale(0.015625)"/>
       <path id="DejaVuSans-61" d="M 2194 1759 
Q 1497 1759 1228 1600 
Q 959 1441 959 1056 
Q 959 750 1161 570 
Q 1363 391 1709 391 
Q 2188 391 2477 730 
Q 2766 1069 2766 1631 
L 2766 1759 
L 2194 1759 
z
M 3341 1997 
L 3341 0 
L 2766 0 
L 2766 531 
Q 2569 213 2275 61 
Q 1981 -91 1556 -91 
Q 1019 -91 701 211 
Q 384 513 384 1019 
Q 384 1609 779 1909 
Q 1175 2209 1959 2209 
L 2766 2209 
L 2766 2266 
Q 2766 2663 2505 2880 
Q 2244 3097 1772 3097 
Q 1472 3097 1187 3025 
Q 903 2953 641 2809 
L 641 3341 
Q 956 3463 1253 3523 
Q 1550 3584 1831 3584 
Q 2591 3584 2966 3190 
Q 3341 2797 3341 1997 
z
" transform="scale(0.015625)"/>
       <path id="DejaVuSans-6c" d="M 603 4863 
L 1178 4863 
L 1178 0 
L 603 0 
L 603 4863 
z
" transform="scale(0.015625)"/>
      </defs>
      <use xlink:href="#DejaVuSans-41"/>
      <use xlink:href="#DejaVuSans-6d" transform="translate(68.408203 0)"/>
      <use xlink:href="#DejaVuSans-6f" transform="translate(165.820312 0)"/>
      <use xlink:href="#DejaVuSans-75" transform="translate(227.001953 0)"/>
      <use xlink:href="#DejaVuSans-6e" transform="translate(290.380859 0)"/>
      <use xlink:href="#DejaVuSans-74" transform="translate(353.759766 0)"/>
      <use xlink:href="#DejaVuSans-20" transform="translate(392.96875 0)"/>
      <use xlink:href="#DejaVuSans-6f" transform="translate(424.755859 0)"/>
      <use xlink:href="#DejaVuSans-66" transform="translate(485.9375 0)"/>
      <use xlink:href="#DejaVuSans-20" transform="translate(521.142578 0)"/>
      <use xlink:href="#DejaVuSans-6f" transform="translate(552.929688 0)"/>
      <use xlink:href="#DejaVuSans-62" transform="translate(614.111328 0)"/>
      <use xlink:href="#DejaVuSans-6a" transform="translate(677.587891 0)"/>
      <use xlink:href="#DejaVuSans-65" transform="translate(705.371094 0)"/>
      <use xlink:href="#DejaVuSans-63" transform="translate(766.894531 0)"/>
      <use xlink:href="#DejaVuSans-74" transform="translate(821.875 0)"/>
      <use xlink:href="#DejaVuSans-73" transform="translate(861.083984 0)"/>
      <use xlink:href="#DejaVuSans-20" transform="translate(913.183594 0)"/>
      <use xlink:href="#DejaVuSans-69" transform="translate(944.970703 0)"/>
      <use xlink:href="#DejaVuSans-6e" transform="translate(972.753906 0)"/>
      <use xlink:href="#DejaVuSans-20" transform="translate(1036.132812 0)"/>
      <use xlink:href="#DejaVuSans-74" transform="translate(1067.919922 0)"/>
      <use xlink:href="#DejaVuSans-61" transform="translate(1107.128906 0)"/>
      <use xlink:href="#DejaVuSans-62" transform="translate(1168.408203 0)"/>
      <use xlink:href="#DejaVuSans-6c" transform="translate(1231.884766 0)"/>
      <use xlink:href="#DejaVuSans-65" transform="translate(1259.667969 0)"/>
     </g>
    </g>
   </g>
   <g id="matplotlib.axis_2">
    <g id="ytick_1">
     <g id="line2d_10">
      <defs>
       <path id="m6c2b129478" d="M 0 0 
L -3.5 0 
" style="stroke: #000000; stroke-width: 0.8"/>
      </defs>
      <g>
       <use xlink:href="#m6c2b129478" x="61.715625" y="288.430125" style="stroke: #000000; stroke-width: 0.8"/>
      </g>
     </g>
     <g id="text_11">
      <!-- 0 -->
      <g transform="translate(48.353125 292.229344) scale(0.1 -0.1)">
       <use xlink:href="#DejaVuSans-30"/>
      </g>
     </g>
    </g>
    <g id="ytick_2">
     <g id="line2d_11">
      <g>
       <use xlink:href="#m6c2b129478" x="61.715625" y="248.429612" style="stroke: #000000; stroke-width: 0.8"/>
      </g>
     </g>
     <g id="text_12">
      <!-- 50 µs -->
      <g transform="translate(27.240625 252.228831) scale(0.1 -0.1)">
       <defs>
        <path id="DejaVuSans-b5" d="M 544 -1331 
L 544 3500 
L 1119 3500 
L 1119 1325 
Q 1119 872 1334 640 
Q 1550 409 1972 409 
Q 2434 409 2667 671 
Q 2900 934 2900 1459 
L 2900 3500 
L 3475 3500 
L 3475 806 
Q 3475 619 3529 530 
Q 3584 441 3700 441 
Q 3728 441 3778 458 
Q 3828 475 3916 513 
L 3916 50 
Q 3788 -22 3673 -56 
Q 3559 -91 3450 -91 
Q 3234 -91 3106 31 
Q 2978 153 2931 403 
Q 2775 156 2548 32 
Q 2322 -91 2016 -91 
Q 1697 -91 1473 31 
Q 1250 153 1119 397 
L 1119 -1331 
L 544 -1331 
z
" transform="scale(0.015625)"/>
       </defs>
       <use xlink:href="#DejaVuSans-35"/>
       <use xlink:href="#DejaVuSans-30" transform="translate(63.623047 0)"/>
       <use xlink:href="#DejaVuSans-20" transform="translate(127.246094 0)"/>
       <use xlink:href="#DejaVuSans-b5" transform="translate(159.033203 0)"/>
       <use xlink:href="#DejaVuSans-73" transform="translate(222.65625 0)"/>
      </g>
     </g>
    </g>
    <g id="ytick_3">
     <g id="line2d_12">
      <g>
       <use xlink:href="#m6c2b129478" x="61.715625" y="208.429099" style="stroke: #000000; stroke-width: 0.8"/>
      </g>
     </g>
     <g id="text_13">
      <!-- 100 µs -->
      <g transform="translate(20.878125 212.228317) scale(0.1 -0.1)">
       <use xlink:href="#DejaVuSans-31"/>
       <use xlink:href="#DejaVuSans-30" transform="translate(63.623047 0)"/>
       <use xlink:href="#DejaVuSans-30" transform="translate(127.246094 0)"/>
       <use xlink:href="#DejaVuSans-20" transform="translate(190.869141 0)"/>
       <use xlink:href="#DejaVuSans-b5" transform="translate(222.65625 0)"/>
       <use xlink:href="#DejaVuSans-73" transform="translate(286.279297 0)"/>
      </g>
     </g>
    </g>
    <g id="ytick_4">
     <g id="line2d_13">
      <g>
       <use xlink:href="#m6c2b129478" x="61.715625" y="168.428586" style="stroke: #000000; stroke-width: 0.8"/>
      </g>
     </g>
     <g id="text_14">
      <!-- 150 µs -->
      <g transform="translate(20.878125 172.227804) scale(0.1 -0.1)">
       <use xlink:href="#DejaVuSans-31"/>
       <use xlink:href="#DejaVuSans-35" transform="translate(63.623047 0)"/>
       <use xlink:href="#DejaVuSans-30" transform="translate(127.246094 0)"/>
       <use xlink:href="#DejaVuSans-20" transform="translate(190.869141 0)"/>
       <use xlink:href="#DejaVuSans-b5" transform="translate(222.65625 0)"/>
       <use xlink:href="#DejaVuSans-73" transform="translate(286.279297 0)"/>
      </g>
     </g>
    </g>
    <g id="ytick_5">
     <g id="line2d_14">
      <g>
       <use xlink:href="#m6c2b129478" x="61.715625" y="128.428072" style="stroke: #000000; stroke-width: 0.8"/>
      </g>
     </g>
     <g id="text_15">
      <!-- 200 µs -->
      <g transform="translate(20.878125 132.227291) scale(0.1 -0.1)">
       <use xlink:href="#DejaVuSans-32"/>
       <use xlink:href="#DejaVuSans-30" transform="translate(63.623047 0)"/>
       <use xlink:href="#DejaVuSans-30" transform="translate(127.246094 0)"/>
       <use xlink:href="#DejaVuSans-20" transform="translate(190.869141 0)"/>
       <use xlink:href="#DejaVuSans-b5" transform="translate(222.65625 0)"/>
       <use xlink:href="#DejaVuSans-73" transform="translate(286.279297 0)"/>
      </g>
     </g>
    </g>
    <g id="ytick_6">
     <g id="line2d_15">
      <g>
       <use xlink:href="#m6c2b129478" x="61.715625" y="88.427559" style="stroke: #000000; stroke-width: 0.8"/>
      </g>
     </g>
     <g id="text_16">
      <!-- 250 µs -->
      <g transform="translate(20.878125 92.226778) scale(0.1 -0.1)">
       <use xlink:href="#DejaVuSans-32"/>
       <use xlink:href="#DejaVuSans-35" transform="translate(63.623047 0)"/>
       <use xlink:href="#DejaVuSans-30" transform="translate(127.246094 0)"/>
       <use xlink:href="#DejaVuSans-20" transform="translate(190.869141 0)"/>
       <use xlink:href="#DejaVuSans-b5" transform="translate(222.65625 0)"/>
       <use xlink:href="#DejaVuSans-73" transform="translate(286.279297 0)"/>
      </g>
     </g>
    </g>
    <g id="ytick_7">
     <g id="line2d_16">
      <g>
       <use xlink:href="#m6c2b129478" x="61.715625" y="48.427046" style="stroke: #000000; stroke-width: 0.8"/>
      </g>
     </g>
     <g id="text_17">
      <!-- 300 µs -->
      <g transform="translate(20.878125 52.226265) scale(0.1 -0.1)">
       <use xlink:href="#DejaVuSans-33"/>
       <use xlink:href="#DejaVuSans-30" transform="translate(63.623047 0)"/>
       <use xlink:href="#DejaVuSans-30" transform="translate(127.246094 0)"/>
       <use xlink:href="#DejaVuSans-20" transform="translate(190.869141 0)"/>
       <use xlink:href="#DejaVuSans-b5" transform="translate(222.65625 0)"/>
       <use xlink:href="#DejaVuSans-73" transform="translate(286.279297 0)"/>
      </g>
     </g>
    </g>
    <g id="text_18">
     <!-- Read latency (s) -->
     <g transform="translate(14.798438 195.98975) rotate(-90) scale(0.1 -0.1)">
      <defs>
       <path id="DejaVuSans-52" d="M 2841 2188 
Q 3044 2119 3236 1894 
Q 3428 1669 3622 1275 
L 4263 0 
L 3584 0 
L 2988 1197 
Q 2756 1666 2539 1819 
Q 2322 1972 1947 1972 
L 1259 1972 
L 1259 0 
L 628 0 
L 628 4666 
L 2053 4666 
Q 2853 4666 3247 4331 
Q 3641 3997 3641 3322 
Q 3641 2881 3436 2590 
Q 3231 2300 2841 2188 
z
M 1259 4147 
L 1259 2491 
L 2053 2491 
Q 2509 2491 2742 2702 
Q 2975 2913 2975 3322 
Q 2975 3731 2742 3939 
Q 2509 4147 2053 4147 
L 1259 4147 
z
" transform="scale(0.015625)"/>
       <path id="DejaVuSans-64" d="M 2906 2969 
L 2906 4863 
L 3481 4863 
L 3481 0 
L 2906 0 
L 2906 525 
Q 2725 213 2448 61 
Q 2172 -91 1784 -91 
Q 1150 -91 751 415 
Q 353 922 353 1747 
Q 353 2572 751 3078 
Q 1150 3584 1784 3584 
Q 2172 3584 2448 3432 
Q 2725 3281 2906 2969 
z
M 947 1747 
Q 947 1113 1208 752 
Q 1469 391 1925 391 
Q 2381 391 2643 752 
Q 2906 1113 2906 1747 
Q 2906 2381 2643 2742 
Q 2381 3103 1925 3103 
Q 1469 3103 1208 2742 
Q 947 2381 947 1747 
z
" transform="scale(0.015625)"/>
       <path id="DejaVuSans-79" d="M 2059 -325 
Q 1816 -950 1584 -1140 
Q 1353 -1331 966 -1331 
L 506 -1331 
L 506 -850 
L 844 -850 
Q 1081 -850 1212 -737 
Q 1344 -625 1503 -206 
L 1606 56 
L 191 3500 
L 800 3500 
L 1894 763 
L 2988 3500 
L 3597 3500 
L 2059 -325 
z
" transform="scale(0.015625)"/>
       <path id="DejaVuSans-28" d="M 1984 4856 
Q 1566 4138 1362 3434 
Q 1159 2731 1159 2009 
Q 1159 1288 1364 580 
Q 1569 -128 1984 -844 
L 1484 -844 
Q 1016 -109 783 600 
Q 550 1309 550 2009 
Q 550 2706 781 3412 
Q 1013 4119 1484 4856 
L 1984 4856 
z
" transform="scale(0.015625)"/>
       <path id="DejaVuSans-29" d="M 513 4856 
L 1013 4856 
Q 1481 4119 1714 3412 
Q 1947 2706 1947 2009 
Q 1947 1309 1714 600 
Q 1481 -109 1013 -844 
L 513 -844 
Q 928 -128 1133 580 
Q 1338 1288 1338 2009 
Q 1338 2731 1133 3434 
Q 928 4138 513 4856 
z
" transform="scale(0.015625)"/>
      </defs>
      <use xlink:href="#DejaVuSans-52"/>
      <use xlink:href="#DejaVuSans-65" transform="translate(64.982422 0)"/>
      <use xlink:href="#DejaVuSans-61" transform="translate(126.505859 0)"/>
      <use xlink:href="#DejaVuSans-64" transform="translate(187.785156 0)"/>
      <use xlink:href="#DejaVuSans-20" transform="translate(251.261719 0)"/>
      <use xlink:href="#DejaVuSans-6c" transform="translate(283.048828 0)"/>
      <use xlink:href="#DejaVuSans-61" transform="translate(310.832031 0)"/>
      <use xlink:href="#DejaVuSans-74" transform="translate(372.111328 0)"/>
      <use xlink:href="#DejaVuSans-65" transform="translate(411.320312 0)"/>
      <use xlink:href="#DejaVuSans-6e" transform="translate(472.84375 0)"/>
      <use xlink:href="#DejaVuSans-63" transform="translate(536.222656 0)"/>
      <use xlink:href="#DejaVuSans-79" transform="translate(591.203125 0)"/>
      <use xlink:href="#DejaVuSans-20" transform="translate(650.382812 0)"/>
      <use xlink:href="#DejaVuSans-28" transform="translate(682.169922 0)"/>
      <use xlink:href="#DejaVuSans-73" transform="translate(721.183594 0)"/>
      <use xlink:href="#DejaVuSans-29" transform="translate(773.283203 0)"/>
     </g>
    </g>
   </g>
   <g id="line2d_17">
    <path d="M 147.070811 190.508524 
L 148.377268 191.732178 
L 148.812753 192.412963 
L 150.11921 193.591622 
L 150.554696 194.312511 
L 152.296638 196.062404 
L 152.732124 196.426272 
L 153.16761 195.716142 
L 153.603095 196.119136 
L 154.038581 196.195431 
L 155.780523 196.005671 
L 157.08698 195.982196 
L 161.441837 195.439328 
L 163.183779 195.206531 
L 163.619265 194.745827 
L 164.925722 194.625516 
L 165.361208 197.001418 
L 166.667665 196.967183 
L 169.716064 196.712867 
L 171.893492 196.678632 
L 172.328978 196.51137 
L 174.07092 196.454638 
L 177.554806 196.225753 
L 177.990291 194.827991 
L 181.474176 194.383915 
L 181.909662 194.491511 
L 182.345148 194.396631 
L 182.780633 193.399906 
L 183.651605 193.288398 
L 184.522576 193.248295 
L 187.13549 192.498061 
L 188.006461 192.160603 
L 189.312918 192.065723 
L 189.748403 193.032126 
L 190.619375 192.923552 
L 191.05486 193.013541 
L 192.796803 192.615438 
L 193.232289 193.746168 
L 193.667774 195.202619 
L 195.409717 195.435416 
L 195.845202 195.420744 
L 196.280688 196.48496 
L 197.151659 196.535823 
L 198.022631 196.254119 
L 204.11943 195.693645 
L 205.425887 195.811022 
L 205.861372 195.730814 
L 207.167829 195.873623 
L 207.603315 195.702448 
L 209.345257 195.693645 
L 210.216229 195.901989 
L 210.651714 195.956764 
L 211.522686 195.840366 
L 212.393657 195.758202 
L 213.700114 195.57529 
L 214.135599 194.262626 
L 215.006571 194.160899 
L 215.442056 193.886042 
L 215.877542 193.758884 
L 216.313028 192.74064 
L 216.748513 192.627176 
L 217.183999 192.101915 
L 218.490456 191.539484 
L 220.232398 190.804901 
L 223.280798 189.870777 
L 224.587255 189.276068 
L 226.329197 188.752763 
L 226.764683 188.559091 
L 227.200169 187.227843 
L 228.07114 186.980373 
L 229.377597 186.458046 
L 229.813082 185.15712 
L 230.248568 185.037787 
L 230.684054 184.707176 
L 231.119539 184.527198 
L 231.555025 183.251703 
L 232.861482 182.749918 
L 233.296968 182.522989 
L 233.732453 180.909058 
L 234.603425 180.075683 
L 235.03891 179.981781 
L 235.909881 179.612044 
L 237.651824 178.837357 
L 238.08731 179.854623 
L 238.958281 179.668776 
L 239.393767 179.615957 
L 240.264738 179.236438 
L 241.135709 179.029073 
L 242.00668 178.656401 
L 242.442166 178.49403 
L 242.877652 178.03137 
L 243.313137 176.631651 
L 243.748623 176.624805 
L 245.490566 175.742522 
L 246.797022 175.161507 
L 247.667994 174.810355 
L 248.103479 174.652874 
L 248.538965 174.876868 
L 249.845422 174.503219 
L 250.280908 174.451377 
L 252.02285 173.839062 
L 253.764793 173.376401 
L 256.377707 172.196764 
L 258.119649 171.767361 
L 260.732563 170.893882 
L 261.168049 169.577305 
L 262.474506 169.239847 
L 262.909991 170.384271 
L 263.345477 170.157342 
L 263.780962 170.089851 
L 265.522905 169.274082 
L 267.264848 168.816312 
L 267.700333 169.683923 
L 269.442276 169.039328 
L 269.877761 168.953252 
L 270.748733 168.989443 
L 271.184218 168.748821 
L 272.490675 168.596231 
L 274.232618 168.542433 
L 275.539075 168.793815 
L 275.97456 168.661766 
L 276.410046 168.837832 
L 282.071359 168.271488 
L 282.942331 166.193919 
L 283.813302 166.054045 
L 284.684273 165.955253 
L 285.119759 165.241211 
L 285.555245 165.306746 
L 286.861701 165.009391 
L 287.297187 165.089599 
L 288.603644 164.919403 
L 289.03913 165.040692 
L 291.652044 164.943856 
L 292.087529 164.806916 
L 292.523015 164.828435 
L 293.393986 164.626939 
L 294.700443 164.520321 
L 295.135929 163.006161 
L 295.571414 162.909325 
L 296.0069 162.929866 
L 296.442386 161.779573 
L 297.748842 161.857824 
L 298.619814 161.41277 
L 299.055299 162.757713 
L 299.490785 162.79586 
L 299.926271 162.719566 
L 300.361756 162.873134 
L 300.797242 162.873134 
L 301.232728 163.671296 
L 301.668213 163.591088 
L 302.103699 163.909962 
L 302.97467 163.80041 
L 303.845641 163.528487 
L 304.716613 163.66934 
L 305.152098 163.637061 
L 305.587584 162.403626 
L 306.02307 162.385042 
L 306.458555 162.240277 
L 307.765012 162.268643 
L 308.200498 162.135616 
L 309.506955 162.37037 
L 311.248897 162.322441 
L 311.684383 162.342003 
L 312.119869 163.535334 
L 312.555354 163.248739 
L 312.99084 163.308406 
L 313.861811 163.196898 
L 314.297297 163.237002 
L 314.732782 164.318825 
L 315.168268 164.297305 
L 315.603754 164.446961 
L 316.039239 164.458699 
L 316.474725 165.507265 
L 317.345696 162.964101 
L 317.781182 162.773363 
L 318.216668 162.865308 
L 318.652153 164.334475 
L 319.087639 164.670955 
L 319.523125 163.831711 
L 319.95861 163.660536 
L 321.265067 163.757372 
L 321.700553 163.719225 
L 322.571524 163.888443 
L 324.313467 163.557832 
L 324.748952 163.582285 
L 326.055409 163.307428 
L 326.490895 162.194304 
L 327.361866 162.115075 
L 327.797352 162.449599 
L 328.232837 163.608695 
L 328.668323 163.426761 
L 329.97478 163.735853 
L 331.716722 163.791607 
L 332.152208 163.838558 
L 333.023179 163.683033 
L 333.894151 163.687924 
L 336.507065 163.323078 
L 337.813521 163.16951 
L 339.555464 162.97486 
L 339.99095 163.060936 
L 340.861921 162.910303 
L 341.297407 163.013986 
L 342.168378 162.824227 
L 343.474835 162.707828 
L 343.91032 162.577735 
L 344.345806 162.657943 
L 345.216777 162.473074 
L 345.652263 160.194008 
L 346.95872 160.060003 
L 347.394206 159.526916 
L 348.265177 159.717654 
L 348.700662 159.617883 
L 350.442605 160.143145 
L 351.749062 159.826227 
L 352.184548 159.935779 
L 355.232947 159.76167 
L 355.668433 159.642337 
L 356.103918 159.825249 
L 357.410375 159.992511 
L 357.845861 160.051199 
L 358.281347 159.953385 
L 358.716832 160.034571 
L 359.587804 159.753845 
L 360.89426 159.667769 
L 361.329746 158.491066 
L 361.765232 158.350214 
L 362.200717 158.521388 
L 363.94266 158.299351 
L 364.378146 158.359995 
L 365.249117 158.315979 
L 366.120088 158.363908 
L 366.555574 157.237091 
L 366.991059 157.272304 
L 367.862031 159.508332 
L 369.603973 159.58267 
L 370.039459 160.211614 
L 370.474945 160.13532 
L 371.781401 160.478647 
L 372.216887 160.18227 
L 373.523344 160.444412 
L 374.394315 160.285953 
L 375.265287 160.026746 
L 375.700772 160.121626 
L 376.136258 160.093259 
L 376.571744 157.560855 
L 377.442715 157.701707 
L 378.313686 157.6528 
L 378.749172 157.53738 
L 379.184657 157.623456 
L 379.620143 157.565746 
L 380.055629 159.069147 
L 380.9266 159.128813 
L 381.362086 160.153904 
L 381.797571 160.216505 
L 382.233057 160.131407 
L 383.104028 160.358335 
L 383.539514 160.695794 
L 384.410485 160.601892 
L 385.281456 160.688947 
L 387.458885 160.819039 
L 388.765341 161.267028 
L 389.636313 161.038143 
L 390.071798 161.088028 
L 390.507284 162.308747 
L 391.378255 162.394823 
L 391.813741 161.182908 
L 392.249227 161.192689 
L 392.684712 159.969036 
L 394.86214 160.041418 
L 397.039569 160.05609 
L 397.475054 160.324101 
L 397.91054 160.179336 
L 398.346026 159.169895 
L 398.781511 159.32542 
L 399.652483 159.305857 
L 400.087968 159.21489 
L 400.958939 159.335201 
L 401.394425 159.070125 
L 401.829911 160.402352 
L 401.829911 160.402352 
" clip-path="url(#pba6db7ff34)" style="fill: none; stroke: #1f77b4; stroke-opacity: 0.8; stroke-width: 1.5; stroke-linecap: square"/>
   </g>
   <g id="line2d_18">
    <path d="M 147.070811 34.990125 
L 147.506296 36.582537 
L 147.941782 37.478513 
L 148.377268 40.112644 
L 149.683725 43.759151 
L 150.11921 44.417439 
L 150.554696 44.448739 
L 151.425667 45.757491 
L 152.296638 47.990584 
L 153.16761 48.796572 
L 154.038581 52.298313 
L 154.474067 53.040722 
L 155.780523 57.559729 
L 156.216009 58.396038 
L 156.651495 60.338624 
L 157.08698 61.085923 
L 157.522466 62.286101 
L 157.957952 64.639506 
L 158.393437 65.543308 
L 158.828923 66.973348 
L 159.264409 67.570014 
L 159.699894 69.821692 
L 160.13538 71.155875 
L 160.570866 72.034245 
L 161.006351 72.137928 
L 161.441837 71.041433 
L 162.312808 73.865323 
L 162.748294 75.787368 
L 163.183779 76.862344 
L 163.619265 77.450207 
L 164.054751 78.515401 
L 164.490236 80.634052 
L 164.925722 81.200395 
L 165.361208 83.220255 
L 165.796693 84.268821 
L 167.974121 92.11546 
L 168.409607 92.567361 
L 168.845093 93.455512 
L 169.280578 93.681463 
L 169.716064 94.270303 
L 170.587035 94.25074 
L 171.022521 94.181292 
L 171.458007 93.832096 
L 171.893492 93.826227 
L 173.199949 93.41443 
L 174.07092 93.822315 
L 174.506406 93.702003 
L 174.941892 93.323463 
L 175.377377 93.381174 
L 177.990291 92.92047 
L 178.425777 92.597683 
L 179.296748 92.333586 
L 179.732234 92.312066 
L 180.167719 92.040144 
L 180.603205 92.302285 
L 181.038691 92.203493 
L 181.474176 92.371733 
L 181.909662 92.691585 
L 182.345148 91.244916 
L 182.780633 90.261885 
L 184.08709 89.153652 
L 184.522576 89.018669 
L 185.393547 88.993237 
L 185.829033 88.834779 
L 186.700004 91.261544 
L 187.13549 91.078632 
L 187.570975 90.457513 
L 188.441947 90.22765 
L 188.877432 90.432081 
L 189.748403 90.510332 
L 190.183889 90.129836 
L 190.619375 90.028109 
L 191.05486 89.660329 
L 191.490346 89.717061 
L 191.925832 89.624138 
L 192.361317 89.996809 
L 193.232289 89.949858 
L 194.10326 90.303945 
L 194.974231 90.386109 
L 195.845202 91.017009 
L 196.716174 90.346005 
L 197.151659 90.669769 
L 197.587145 90.82725 
L 198.022631 91.321211 
L 198.458116 91.411199 
L 198.893602 91.273282 
L 199.329088 90.657053 
L 199.764573 87.791103 
L 200.635545 88.00336 
L 201.07103 93.193371 
L 201.506516 96.518069 
L 202.377487 100.875683 
L 203.248458 107.147517 
L 203.683944 108.283137 
L 204.11943 110.230614 
L 204.554915 112.859855 
L 205.425887 117.028687 
L 205.861372 119.118973 
L 206.296858 120.413052 
L 207.167829 125.06313 
L 208.0388 130.102507 
L 208.474286 131.53157 
L 208.909772 131.38974 
L 209.345257 131.712526 
L 210.651714 132.012815 
L 211.522686 132.920529 
L 212.393657 133.38808 
L 213.264628 134.122663 
L 215.006571 135.195683 
L 215.442056 135.078306 
L 215.877542 135.292518 
L 216.313028 135.278825 
L 216.748513 135.465649 
L 218.05497 135.144819 
L 218.490456 135.308169 
L 218.925941 135.229918 
L 219.361427 134.799536 
L 219.796913 134.757476 
L 220.232398 134.974623 
L 221.538855 134.529569 
L 221.974341 134.148095 
L 222.409827 134.053215 
L 222.845312 133.704019 
L 223.280798 133.831177 
L 223.716283 135.980151 
L 224.151769 134.101144 
L 224.587255 134.054193 
L 225.458226 134.578476 
L 225.893712 134.235149 
L 226.329197 134.126576 
L 226.764683 133.531866 
L 227.200169 133.477091 
L 228.506626 134.379914 
L 228.942111 134.680203 
L 229.377597 135.366857 
L 229.813082 135.621174 
L 230.684054 135.48619 
L 231.119539 137.016979 
L 231.990511 136.049599 
L 232.425996 135.97526 
L 232.861482 136.366516 
L 234.167939 136.089703 
L 234.603425 135.73855 
L 235.03891 135.625086 
L 235.474396 136.181648 
L 236.345367 135.38642 
L 236.780853 135.513578 
L 237.216338 135.893096 
L 238.08731 135.835386 
L 238.522795 136.081878 
L 238.958281 135.732682 
L 239.393767 135.643671 
L 239.829252 135.325775 
L 240.264738 135.478365 
L 240.700224 134.918869 
L 241.135709 134.838661 
L 241.571195 134.567717 
L 242.00668 134.123641 
L 242.442166 134.108969 
L 243.748623 132.847168 
L 244.619594 132.715119 
L 245.05508 132.429503 
L 245.926051 132.38353 
L 246.361537 133.770533 
L 247.232508 133.290266 
L 247.667994 133.37243 
L 248.538965 132.780655 
L 248.974451 132.331689 
L 249.845422 132.247568 
L 250.716393 132.143886 
L 251.151879 131.552111 
L 251.587365 131.705679 
L 252.02285 131.538417 
L 252.893821 130.872304 
L 253.329307 130.415512 
L 253.764793 129.633978 
L 254.200278 129.565508 
L 255.07125 128.953193 
L 255.506735 128.996231 
L 255.942221 128.09732 
L 256.377707 128.216653 
L 256.813192 127.901692 
L 257.248678 127.390125 
L 257.684164 127.083967 
L 258.555135 125.528724 
L 258.99062 125.313534 
L 259.426106 124.714912 
L 259.861592 124.593623 
L 260.297077 124.08988 
L 261.168049 123.83752 
L 261.603534 123.825783 
L 262.474506 123.415942 
L 262.909991 123.063812 
L 263.345477 122.98067 
L 264.651934 122.006442 
L 265.087419 121.863634 
L 265.522905 121.543782 
L 265.958391 121.668984 
L 266.393876 121.321744 
L 266.829362 121.209258 
L 267.264848 122.769391 
L 267.700333 123.64287 
L 268.135819 122.027961 
L 269.00679 121.925257 
L 269.442276 122.153163 
L 269.877761 121.850918 
L 270.313247 121.789295 
L 271.184218 121.304138 
L 271.619704 121.215127 
L 272.05519 120.636068 
L 272.490675 120.973526 
L 272.926161 118.271903 
L 273.797132 117.828806 
L 274.668104 117.195949 
L 275.539075 117.149977 
L 275.97456 117.428747 
L 276.410046 117.047272 
L 276.845532 117.053141 
L 277.281017 116.1914 
L 277.716503 115.671029 
L 278.151989 115.668095 
L 278.587474 115.823619 
L 279.458446 115.611362 
L 279.893931 115.605494 
L 280.764902 115.214238 
L 282.071359 114.530518 
L 282.506845 114.329021 
L 282.942331 113.329362 
L 283.377816 113.233504 
L 284.248788 113.747028 
L 284.684273 116.376268 
L 285.119759 116.015334 
L 285.555245 115.915564 
L 286.426216 115.27097 
L 286.861701 115.2025 
L 287.297187 113.978847 
L 287.732673 113.603241 
L 288.603644 114.179365 
L 289.03913 114.01406 
L 289.474615 114.0033 
L 289.910101 114.583337 
L 290.345587 114.685064 
L 290.781072 114.549102 
L 291.216558 115.393237 
L 291.652044 115.303248 
L 292.087529 115.006872 
L 292.523015 114.415097 
L 292.9585 113.387072 
L 293.393986 114.646916 
L 293.829472 114.701692 
L 294.700443 114.012104 
L 295.135929 114.235119 
L 295.571414 114.147087 
L 296.877871 113.332296 
L 297.313357 113.254045 
L 298.184328 112.553697 
L 299.055299 111.832807 
L 299.490785 111.293852 
L 299.926271 111.493393 
L 301.232728 111.569688 
L 301.668213 111.194082 
L 302.97467 111.300699 
L 303.410156 111.104093 
L 304.281127 111.231251 
L 305.152098 111.040514 
L 306.02307 110.607198 
L 306.458555 110.712837 
L 306.894041 110.96911 
L 307.765012 110.581766 
L 308.200498 110.03792 
L 308.635984 109.790451 
L 309.071469 111.331022 
L 310.377926 110.568072 
L 311.248897 110.592526 
L 311.684383 110.833148 
L 312.555354 110.393963 
L 312.99084 107.851777 
L 315.168268 105.792793 
L 316.039239 105.241122 
L 316.474725 105.423056 
L 316.910211 105.805508 
L 317.345696 105.600099 
L 317.781182 105.072882 
L 318.216668 105.10516 
L 319.087639 104.107457 
L 319.523125 104.081048 
L 320.394096 103.437431 
L 321.700553 103.48536 
L 322.136038 103.358202 
L 322.571524 103.467754 
L 323.00701 103.446235 
L 323.442495 103.172355 
L 323.877981 103.160618 
L 324.313467 102.826094 
L 324.748952 102.845657 
L 325.184438 102.627531 
L 325.619924 102.787946 
L 326.490895 102.300833 
L 326.92638 102.370281 
L 327.361866 102.125746 
L 328.668323 102.090533 
L 329.539294 101.332474 
L 330.410266 101.479195 
L 330.845751 101.229769 
L 331.281237 101.243463 
L 332.152208 101.669932 
L 333.023179 100.874704 
L 333.894151 101.361818 
L 334.765122 101.3716 
L 335.200608 100.718202 
L 335.636093 100.401285 
L 336.071579 100.507902 
L 336.94255 100.043285 
L 337.813521 99.947428 
L 338.249007 100.505946 
L 339.119978 101.070332 
L 339.555464 101.38725 
L 339.99095 101.235638 
L 340.426435 100.94024 
L 340.861921 101.790244 
L 341.297407 101.619069 
L 342.603864 102.271488 
L 343.039349 102.906301 
L 343.474835 102.150199 
L 343.91032 102.363434 
L 344.345806 102.971837 
L 344.781292 103.271148 
L 345.216777 103.73772 
L 345.652263 103.168443 
L 346.523234 102.512111 
L 347.394206 102.206931 
L 348.700662 102.43875 
L 349.571634 101.942833 
L 350.007119 101.86556 
L 350.442605 102.167806 
L 350.878091 101.866538 
L 351.313576 101.842085 
L 351.749062 101.671889 
L 352.184548 101.357906 
L 352.620033 101.341277 
L 353.055519 102.916083 
L 353.491005 100.305427 
L 355.232947 99.895586 
L 355.668433 100.233045 
L 356.97489 100.579306 
L 357.410375 100.830688 
L 357.845861 103.052044 
L 358.281347 103.132252 
L 358.716832 102.908258 
L 359.152318 103.404175 
L 359.587804 103.630125 
L 360.023289 103.614475 
L 360.458775 103.721092 
L 360.89426 103.992037 
L 361.329746 103.95878 
L 361.765232 104.123108 
L 362.200717 104.560336 
L 362.636203 104.800959 
L 363.071689 104.491866 
L 364.378146 104.452741 
L 365.684603 103.621322 
L 366.120088 103.887376 
L 366.991059 103.931392 
L 367.426545 103.990081 
L 367.862031 104.560336 
L 368.297516 104.721729 
L 368.733002 104.033119 
L 369.603973 103.90596 
L 370.474945 104.101589 
L 371.781401 103.965627 
L 372.216887 104.911488 
L 372.652373 105.048428 
L 373.523344 105.039625 
L 373.95883 105.251881 
L 376.136258 104.450785 
L 377.007229 104.413615 
L 378.313686 105.698891 
L 379.184657 105.868109 
L 379.620143 105.827028 
L 380.055629 105.369258 
L 381.362086 105.154067 
L 381.797571 105.054297 
L 382.233057 104.354927 
L 382.668543 104.145605 
L 383.539514 104.206249 
L 383.974999 104.2219 
L 384.410485 104.401878 
L 384.845971 104.130933 
L 385.281456 103.347443 
L 386.152428 102.683285 
L 386.587913 102.695023 
L 388.329856 102.07097 
L 388.765341 102.104227 
L 389.636313 101.153474 
L 390.071798 101.317802 
L 390.94277 101.155431 
L 391.813741 100.559743 
L 392.249227 100.469754 
L 392.684712 100.584197 
L 393.555684 101.159343 
L 393.991169 101.373556 
L 394.426655 101.396053 
L 394.86214 100.780803 
L 395.297626 100.916764 
L 395.733112 100.878617 
L 396.168597 100.436498 
L 397.039569 100.558765 
L 397.475054 100.295646 
L 397.91054 102.792837 
L 398.346026 102.513089 
L 398.781511 102.67546 
L 399.216997 103.03835 
L 400.087968 103.318098 
L 400.523454 103.348421 
L 400.958939 103.519595 
L 401.394425 103.531333 
L 401.829911 103.277995 
L 401.829911 103.277995 
" clip-path="url(#pba6db7ff34)" style="fill: none; stroke: #ff7f0e; stroke-opacity: 0.8; stroke-width: 1.5; stroke-linecap: square"/>
   </g>
   <g id="line2d_19">
    <path d="M 147.070811 100.457039 
L 147.506296 100.32499 
L 147.941782 99.85157 
L 148.377268 99.595297 
L 148.812753 99.776253 
L 149.248239 99.742996 
L 149.683725 99.42021 
L 150.11921 99.328265 
L 151.425667 100.297602 
L 151.861153 100.363137 
L 152.732124 100.947087 
L 153.603095 100.772 
L 154.038581 100.686902 
L 154.909552 100.682989 
L 156.651495 100.767109 
L 157.522466 101.4029 
L 158.393437 101.37649 
L 158.828923 101.021425 
L 159.264409 101.26596 
L 159.699894 100.333793 
L 160.570866 100.841448 
L 161.006351 101.123152 
L 161.441837 101.06642 
L 161.877322 100.707443 
L 162.312808 100.716246 
L 163.183779 100.169465 
L 164.054751 99.717565 
L 164.490236 99.176653 
L 165.361208 99.340981 
L 165.796693 99.135571 
L 166.667665 99.234364 
L 168.409607 99.872111 
L 168.845093 99.470095 
L 169.280578 99.22556 
L 170.15155 99.326309 
L 171.022521 98.508584 
L 171.458007 98.190688 
L 171.893492 98.020492 
L 172.328978 98.067443 
L 172.764463 97.775957 
L 173.199949 97.779869 
L 174.07092 97.957891 
L 174.506406 98.375557 
L 176.248349 97.084412 
L 177.11932 96.408517 
L 177.554806 96.238321 
L 177.990291 95.843152 
L 178.425777 95.818699 
L 179.296748 95.191711 
L 179.732234 95.147694 
L 180.167719 95.253334 
L 180.603205 95.169214 
L 181.474176 95.834349 
L 181.909662 96.000633 
L 182.345148 96.033889 
L 182.780633 96.567954 
L 183.216119 96.201151 
L 183.651605 96.3019 
L 184.08709 96.588495 
L 184.522576 96.143441 
L 184.958061 96.139528 
L 185.393547 95.951726 
L 185.829033 96.364501 
L 186.264518 95.936075 
L 186.700004 96.004545 
L 187.13549 96.278424 
L 187.570975 96.398736 
L 188.441947 96.360588 
L 189.312918 97.086368 
L 189.748403 97.08539 
L 190.183889 96.653052 
L 190.619375 96.434927 
L 191.490346 96.950407 
L 191.925832 97.326991 
L 192.361317 97.294712 
L 193.232289 96.760647 
L 193.667774 96.793904 
L 194.10326 96.975838 
L 194.974231 97.002248 
L 195.409717 97.089302 
L 195.845202 97.517728 
L 196.280688 97.639017 
L 196.716174 97.561744 
L 197.587145 97.562722 
L 198.458116 97.415023 
L 199.764573 97.469799 
L 200.200059 97.61652 
L 201.07103 97.092237 
L 201.506516 97.114734 
L 201.942001 96.869221 
L 202.377487 96.877046 
L 203.248458 97.541203 
L 204.11943 98.181885 
L 204.554915 98.507606 
L 205.425887 98.562381 
L 205.861372 98.696387 
L 206.296858 99.333156 
L 206.732343 99.523893 
L 208.909772 99.684308 
L 209.345257 99.680395 
L 209.780743 99.547368 
L 210.216229 99.647139 
L 210.651714 99.482811 
L 211.0872 99.762559 
L 211.522686 99.703871 
L 211.958171 99.772341 
L 212.393657 100.082411 
L 212.829142 100.105886 
L 213.264628 99.983619 
L 213.700114 100.286842 
L 214.135599 100.320099 
L 214.571085 100.530399 
L 215.006571 100.181203 
L 215.877542 100.122515 
L 216.313028 100.3827 
L 216.748513 100.049154 
L 217.183999 100.453126 
L 217.619485 100.464864 
L 218.05497 100.663426 
L 218.925941 101.646457 
L 219.361427 101.358884 
L 219.796913 101.704167 
L 220.232398 101.753074 
L 220.667884 101.445938 
L 221.10337 101.396053 
L 221.538855 101.888058 
L 221.974341 102.064123 
L 223.280798 101.042945 
L 223.716283 100.880573 
L 224.151769 100.960781 
L 225.458226 100.895245 
L 225.893712 101.157387 
L 226.764683 101.251288 
L 227.200169 101.488976 
L 227.635654 101.422463 
L 228.07114 101.216075 
L 228.506626 101.65037 
L 228.942111 101.381381 
L 229.377597 101.550599 
L 230.248568 101.550599 
L 231.119539 100.907961 
L 231.555025 100.933393 
L 231.990511 100.595935 
L 232.861482 100.855142 
L 233.296968 100.834601 
L 234.167939 100.264345 
L 234.603425 100.610607 
L 235.03891 100.672229 
L 235.909881 99.84081 
L 236.345367 99.858417 
L 237.216338 99.706805 
L 237.651824 99.442707 
L 238.08731 99.326309 
L 239.393767 99.466183 
L 241.135709 98.040055 
L 242.00668 97.694771 
L 242.442166 97.47958 
L 242.877652 97.398395 
L 243.748623 98.150584 
L 244.184109 97.903115 
L 244.619594 98.846042 
L 245.490566 98.176994 
L 245.926051 98.201448 
L 246.361537 97.833667 
L 246.797022 98.252311 
L 247.232508 97.793563 
L 247.667994 98.235683 
L 248.103479 98.465546 
L 248.538965 98.474349 
L 249.409936 99.032867 
L 250.280908 98.149606 
L 250.716393 98.380447 
L 251.151879 97.947131 
L 252.02285 97.770088 
L 252.893821 97.467843 
L 253.329307 97.006161 
L 253.764793 97.569569 
L 254.200278 97.844427 
L 255.07125 97.102996 
L 255.506735 97.560766 
L 255.942221 97.613586 
L 256.377707 98.011689 
L 256.813192 98.222967 
L 257.248678 98.162322 
L 258.119649 96.828139 
L 258.555135 96.79097 
L 258.99062 96.243211 
L 259.426106 96.032911 
L 260.297077 96.714675 
L 260.732563 96.564041 
L 261.168049 96.598276 
L 262.03902 97.3221 
L 262.909991 97.681077 
L 263.780962 97.705531 
L 264.216448 97.614564 
L 264.651934 97.39057 
L 265.087419 97.777913 
L 265.958391 97.946153 
L 266.393876 97.757372 
L 266.829362 98.162322 
L 267.264848 98.386316 
L 268.571305 98.313934 
L 269.00679 97.914853 
L 269.442276 98.252311 
L 270.313247 98.071355 
L 271.184218 98.176016 
L 272.490675 98.80496 
L 273.361647 98.871474 
L 273.797132 98.668021 
L 274.668104 98.550644 
L 275.539075 99.161981 
L 275.97456 99.018195 
L 276.410046 99.06808 
L 276.845532 98.974178 
L 277.716503 99.595297 
L 278.151989 99.942537 
L 278.587474 99.910258 
L 279.02296 99.653986 
L 279.458446 99.210888 
L 279.893931 99.115031 
L 280.329417 99.480855 
L 280.764902 99.069058 
L 281.200388 99.116987 
L 282.071359 98.230792 
L 282.506845 98.256224 
L 282.942331 98.696387 
L 283.377816 98.294371 
L 283.813302 98.1633 
L 284.248788 97.908006 
L 284.684273 98.20047 
L 285.119759 98.213185 
L 285.555245 98.114393 
L 286.426216 98.153519 
L 286.861701 98.553578 
L 287.732673 98.013645 
L 288.603644 97.309384 
L 289.03913 97.472733 
L 289.474615 97.033548 
L 289.910101 97.083434 
L 290.781072 97.550985 
L 291.216558 97.265368 
L 292.087529 97.191029 
L 292.523015 96.911281 
L 293.829472 96.647183 
L 294.264957 96.975838 
L 294.700443 96.850636 
L 296.0069 97.163641 
L 296.442386 97.584241 
L 296.877871 97.529465 
L 297.313357 96.607079 
L 297.748842 96.689243 
L 298.184328 97.104953 
L 299.055299 97.077565 
L 299.490785 96.900521 
L 299.926271 96.927909 
L 300.361756 97.512837 
L 301.232728 96.770429 
L 301.668213 96.868243 
L 302.103699 96.662833 
L 302.539185 96.642292 
L 302.97467 96.887806 
L 303.410156 96.480899 
L 303.845641 96.322441 
L 305.152098 96.255927 
L 305.587584 96.126813 
L 306.02307 96.196261 
L 306.458555 95.894015 
L 307.765012 96.759669 
L 308.200498 96.420255 
L 308.635984 96.723478 
L 309.071469 96.58556 
L 309.506955 96.651096 
L 309.94244 96.18061 
L 310.377926 95.894015 
L 310.813412 95.845108 
L 311.248897 95.56536 
L 311.684383 95.486131 
L 312.119869 95.178995 
L 312.99084 95.206383 
L 313.426326 94.985323 
L 313.861811 95.300284 
L 314.297297 95.159432 
L 314.732782 94.811214 
L 316.039239 95.383426 
L 316.910211 96.167895 
L 317.781182 96.115075 
L 318.216668 96.533719 
L 319.087639 96.471118 
L 319.523125 96.063234 
L 319.95861 96.019217 
L 320.829581 96.655008 
L 321.265067 96.628599 
L 321.700553 96.916172 
L 322.136038 96.743041 
L 322.571524 97.026702 
L 323.00701 97.00127 
L 323.442495 96.676527 
L 323.877981 96.675549 
L 324.313467 96.369391 
L 324.748952 96.251036 
L 325.184438 96.5122 
L 325.619924 95.501781 
L 326.490895 95.734579 
L 326.92638 95.615245 
L 327.361866 95.917491 
L 328.232837 95.089984 
L 328.668323 95.009777 
L 329.103809 94.731985 
L 329.539294 94.788717 
L 329.97478 95.080203 
L 330.410266 95.230836 
L 330.845751 95.135957 
L 331.281237 95.475371 
L 331.716722 95.441136 
L 332.152208 95.558513 
L 332.587694 95.068465 
L 333.023179 94.820996 
L 333.458665 95.11835 
L 333.894151 94.721225 
L 334.329636 94.631237 
L 334.765122 94.423871 
L 335.200608 94.080544 
L 335.636093 94.020877 
L 336.071579 94.359314 
L 336.507065 94.125538 
L 337.378036 94.318232 
L 337.813521 94.375942 
L 338.249007 94.731985 
L 338.684493 94.649821 
L 339.555464 94.057068 
L 339.99095 94.377898 
L 340.426435 94.390614 
L 340.861921 94.698728 
L 341.297407 94.592111 
L 341.732892 94.649821 
L 342.168378 94.528532 
L 342.603864 95.287568 
L 343.474835 94.727094 
L 343.91032 95.175082 
L 344.345806 95.352126 
L 344.781292 95.265071 
L 345.216777 94.955979 
L 345.652263 94.946198 
L 346.087749 95.212252 
L 346.523234 94.828821 
L 346.95872 94.734919 
L 347.394206 94.386702 
L 347.829691 94.62439 
L 348.265177 94.557876 
L 348.700662 94.761329 
L 350.442605 94.335838 
L 350.878091 93.925998 
L 351.313576 93.818402 
L 351.749062 93.354764 
L 352.620033 93.17772 
L 353.055519 92.966442 
L 353.491005 93.212933 
L 353.92649 93.615927 
L 354.361976 93.696135 
L 354.797461 94.179336 
L 355.232947 94.170533 
L 355.668433 93.787102 
L 356.103918 93.707872 
L 356.539404 93.753845 
L 356.97489 93.954364 
L 358.716832 93.673637 
L 359.152318 93.557239 
L 359.587804 93.645271 
L 360.023289 94.198899 
L 360.458775 94.010118 
L 361.329746 94.054134 
L 363.071689 92.881344 
L 363.94266 92.892104 
L 364.378146 93.371392 
L 365.249117 92.884278 
L 365.684603 93.25695 
L 366.120088 92.913623 
L 366.991059 93.595386 
L 367.426545 93.368458 
L 369.168488 93.336179 
L 369.603973 92.858847 
L 370.91043 93.768517 
L 371.345916 93.336179 
L 371.781401 93.292163 
L 372.216887 93.784167 
L 372.652373 93.797861 
L 373.087858 94.069784 
L 373.523344 94.507013 
L 373.95883 93.67755 
L 374.394315 94.125538 
L 374.829801 94.394527 
L 375.700772 94.393548 
L 376.571744 94.961848 
L 377.007229 94.825886 
L 377.442715 95.190733 
L 377.8782 95.212252 
L 378.749172 95.708169 
L 379.184657 95.363863 
L 379.620143 95.587857 
L 380.055629 95.168235 
L 380.491114 95.238661 
L 380.9266 94.829799 
L 381.797571 94.804367 
L 382.668543 95.322782 
L 383.539514 94.595045 
L 383.974999 94.322144 
L 384.845971 94.97652 
L 385.716942 95.104656 
L 386.152428 95.420596 
L 386.587913 95.429399 
L 387.023399 95.742404 
L 387.89437 95.74436 
L 388.329856 95.862715 
L 389.636313 95.810873 
L 390.071798 95.495912 
L 390.94277 95.456787 
L 391.378255 95.670999 
L 391.813741 95.141826 
L 392.684712 95.154541 
L 393.120198 93.296075 
L 393.991169 92.563448 
L 394.426655 92.442159 
L 394.86214 92.577142 
L 395.297626 92.460744 
L 395.733112 92.565405 
L 396.168597 92.830481 
L 396.604083 93.252059 
L 397.039569 93.364545 
L 397.475054 93.034912 
L 398.781511 92.983071 
L 400.523454 93.478988 
L 400.958939 93.26184 
L 401.829911 93.271622 
L 401.829911 93.271622 
" clip-path="url(#pba6db7ff34)" style="fill: none; stroke: #2ca02c; stroke-opacity: 0.8; stroke-width: 1.5; stroke-linecap: square"/>
   </g>
   <g id="line2d_20">
    <path d="M 147.070811 174.261618 
L 148.812753 173.933941 
L 149.248239 172.448146 
L 150.11921 172.519551 
L 150.554696 171.129614 
L 151.861153 171.102226 
L 152.296638 172.035371 
L 153.16761 171.917016 
L 153.603095 170.554467 
L 154.474067 170.537839 
L 154.909552 170.740314 
L 156.216009 170.537839 
L 156.651495 171.725301 
L 157.522466 171.654875 
L 157.957952 170.294282 
L 159.699894 170.199403 
L 160.13538 169.84825 
L 160.570866 169.851185 
L 161.006351 170.559358 
L 161.441837 170.560336 
L 161.877322 171.690088 
L 162.312808 170.723686 
L 162.748294 170.778461 
L 163.619265 170.625872 
L 164.054751 171.586405 
L 164.490236 170.094742 
L 165.361208 168.631444 
L 166.232179 168.584493 
L 166.667665 165.384997 
L 167.538636 165.402604 
L 167.974121 165.374238 
L 168.409607 166.414979 
L 168.845093 165.400647 
L 169.716064 165.414341 
L 170.15155 165.32044 
L 170.587035 166.593 
L 171.022521 165.460314 
L 171.893492 165.332178 
L 172.328978 163.88453 
L 172.764463 164.72084 
L 174.506406 164.500759 
L 174.941892 164.515431 
L 175.377377 163.621411 
L 175.812863 163.780847 
L 176.248349 164.531081 
L 176.683834 162.85944 
L 177.11932 162.984641 
L 177.990291 162.980729 
L 178.425777 163.732919 
L 179.296748 163.915831 
L 179.732234 162.507309 
L 180.167719 162.510244 
L 180.603205 163.261455 
L 181.038691 163.244827 
L 181.474176 162.632511 
L 181.909662 160.507991 
L 182.345148 160.646887 
L 182.780633 161.956616 
L 183.651605 162.098447 
L 184.08709 161.347235 
L 184.522576 161.490043 
L 184.958061 162.907368 
L 185.829033 162.829117 
L 186.264518 162.04954 
L 186.700004 162.106272 
L 187.13549 163.376876 
L 187.570975 163.281018 
L 188.006461 163.365138 
L 188.441947 161.862715 
L 189.748403 161.779573 
L 190.183889 163.267324 
L 190.619375 162.178654 
L 191.05486 162.167895 
L 191.490346 163.424805 
L 192.796803 160.443434 
L 193.667774 158.270006 
L 194.10326 158.345323 
L 194.538746 159.089688 
L 194.974231 158.049925 
L 195.409717 157.982433 
L 195.845202 159.344982 
L 197.587145 159.277491 
L 198.022631 156.560218 
L 198.458116 156.627709 
L 198.893602 158.092963 
L 200.200059 158.235772 
L 200.635545 158.259247 
L 201.07103 158.644634 
L 201.942001 158.494001 
L 202.377487 159.715697 
L 202.812973 159.713741 
L 203.248458 158.15752 
L 203.683944 158.214252 
L 204.11943 159.243256 
L 204.554915 163.953978 
L 204.990401 163.928547 
L 205.425887 162.625664 
L 206.296858 162.645227 
L 206.732343 164.708124 
L 207.167829 164.758988 
L 207.603315 163.475668 
L 208.0388 164.046902 
L 208.474286 163.941262 
L 208.909772 165.16785 
L 209.345257 165.043626 
L 209.780743 163.830733 
L 210.216229 164.769747 
L 211.522686 164.868539 
L 211.958171 165.139484 
L 212.829142 164.95755 
L 213.264628 165.771362 
L 213.700114 165.623663 
L 214.135599 163.734875 
L 215.442056 163.728028 
L 216.313028 161.267028 
L 216.748513 162.21778 
L 217.619485 162.074971 
L 218.05497 163.304493 
L 218.490456 162.231474 
L 218.925941 162.03878 
L 219.361427 160.469843 
L 219.796913 160.431696 
L 220.232398 160.226287 
L 220.667884 158.896016 
L 221.10337 160.618521 
L 222.845312 160.238024 
L 223.280798 162.099425 
L 223.716283 160.791651 
L 224.587255 160.623411 
L 225.02274 158.862759 
L 225.458226 159.565064 
L 225.893712 159.397802 
L 226.329197 158.93612 
L 226.764683 158.743426 
L 227.200169 157.665516 
L 227.635654 159.185546 
L 228.506626 158.879388 
L 228.942111 159.725479 
L 229.377597 158.311088 
L 229.813082 158.259247 
L 230.248568 157.185249 
L 230.684054 157.028747 
L 231.119539 157.732029 
L 231.555025 156.725523 
L 232.425996 156.519136 
L 232.861482 156.488813 
L 233.296968 156.303945 
L 233.732453 155.006931 
L 234.167939 156.377305 
L 235.03891 156.057454 
L 235.474396 157.220462 
L 235.909881 155.903886 
L 237.216338 155.396231 
L 237.651824 154.613719 
L 238.08731 153.091733 
L 238.522795 154.286042 
L 239.393767 153.888917 
L 239.829252 154.737943 
L 240.700224 154.631325 
L 241.135709 153.378328 
L 242.00668 153.131837 
L 242.442166 152.063708 
L 242.877652 153.246279 
L 243.748623 152.98805 
L 244.619594 152.617335 
L 245.05508 153.244323 
L 245.490566 151.911118 
L 246.361537 151.597135 
L 246.797022 149.755297 
L 247.232508 150.555416 
L 248.103479 150.373482 
L 248.974451 150.211111 
L 249.409936 151.526709 
L 249.845422 150.441952 
L 250.280908 150.924175 
L 250.716393 150.754956 
L 251.151879 151.330103 
L 251.587365 154.300714 
L 252.02285 153.343115 
L 252.458336 153.166072 
L 252.893821 152.169347 
L 253.329307 150.822448 
L 253.764793 151.596157 
L 254.635764 151.20001 
L 255.07125 151.158928 
L 255.506735 147.622952 
L 255.942221 148.618699 
L 256.813192 148.512081 
L 257.248678 149.867783 
L 257.684164 148.697928 
L 258.99062 148.464152 
L 259.426106 148.158973 
L 259.861592 147.120188 
L 260.297077 148.125716 
L 260.732563 146.146939 
L 261.168049 144.938936 
L 261.603534 146.605686 
L 262.474506 146.227146 
L 262.909991 145.087613 
L 263.780962 144.83134 
L 264.216448 143.277076 
L 264.651934 144.609302 
L 265.087419 143.651703 
L 265.958391 143.393474 
L 266.393876 143.931451 
L 266.829362 146.031518 
L 267.264848 145.8623 
L 267.700333 144.169139 
L 268.571305 142.2021 
L 269.00679 142.176668 
L 269.442276 141.509577 
L 270.748733 141.632822 
L 271.184218 140.822922 
L 271.619704 140.765212 
L 272.05519 138.209332 
L 272.490675 138.193682 
L 272.926161 137.069799 
L 273.361647 138.622107 
L 273.797132 138.611348 
L 275.103589 135.673015 
L 275.539075 136.813526 
L 275.97456 135.728769 
L 276.410046 133.564145 
L 277.281017 135.671059 
L 277.716503 135.289584 
L 278.151989 134.290903 
L 279.02296 134.084516 
L 279.458446 133.675653 
L 279.893931 133.826287 
L 280.764902 133.825308 
L 281.635874 133.911385 
L 282.071359 132.23094 
L 282.506845 131.364308 
L 282.942331 134.088428 
L 284.684273 133.963226 
L 285.119759 132.524382 
L 285.555245 132.510688 
L 285.99073 133.64044 
L 286.426216 132.320929 
L 286.861701 132.428524 
L 287.732673 132.243656 
L 288.168158 133.683478 
L 289.03913 133.621855 
L 289.474615 132.882381 
L 289.910101 132.865753 
L 290.345587 134.291881 
L 290.781072 133.107354 
L 291.216558 132.982152 
L 292.087529 133.008561 
L 292.523015 133.560232 
L 293.393986 133.79792 
L 293.829472 132.513623 
L 294.264957 132.62024 
L 294.700443 133.914319 
L 295.135929 133.111266 
L 295.571414 133.128873 
L 296.0069 131.50516 
L 296.442386 131.449406 
L 296.877871 132.316038 
L 297.748842 132.294519 
L 298.184328 129.277935 
L 298.619814 129.40705 
L 299.055299 131.242041 
L 299.490785 130.972074 
L 299.926271 130.941752 
L 300.361756 129.405094 
L 301.232728 131.580477 
L 302.103699 131.290948 
L 302.539185 130.480069 
L 302.97467 130.483004 
L 303.410156 131.474838 
L 303.845641 131.568739 
L 304.281127 133.042796 
L 304.716613 131.553089 
L 305.152098 131.669488 
L 305.587584 132.765983 
L 306.02307 132.193771 
L 306.894041 130.083923 
L 307.765012 130.104464 
L 308.200498 128.898417 
L 308.635984 130.054579 
L 309.506955 129.884382 
L 309.94244 131.469947 
L 310.813412 131.456253 
L 311.248897 130.956424 
L 311.684383 131.0425 
L 312.119869 130.986746 
L 312.555354 129.630066 
L 313.861811 129.609525 
L 314.297297 130.90556 
L 314.732782 129.963611 
L 315.168268 130.91632 
L 315.603754 129.674082 
L 316.039239 129.712229 
L 316.474725 130.572993 
L 317.345696 130.597446 
L 317.781182 128.953193 
L 318.216668 128.970799 
L 318.652153 130.10642 
L 319.087639 129.251526 
L 319.523125 129.337602 
L 319.95861 128.083626 
L 320.394096 128.075801 
L 320.829581 129.20164 
L 321.700553 129.237832 
L 322.136038 128.394675 
L 322.571524 129.096001 
L 323.00701 130.520173 
L 323.442495 130.465397 
L 323.877981 130.533867 
L 324.313467 128.400544 
L 325.619924 128.313489 
L 326.055409 129.528339 
L 326.490895 128.032763 
L 326.92638 128.078736 
L 327.361866 128.993297 
L 327.797352 129.055898 
L 328.232837 128.968843 
L 328.668323 126.296564 
L 329.539294 126.390466 
L 329.97478 127.116246 
L 330.410266 128.282189 
L 330.845751 126.844323 
L 331.281237 126.873667 
L 331.716722 128.532593 
L 333.458665 128.54433 
L 333.894151 124.9526 
L 334.329636 124.946731 
L 334.765122 126.616416 
L 336.507065 126.832585 
L 336.94255 125.293971 
L 337.378036 125.344834 
L 337.813521 126.158647 
L 338.249007 127.384256 
L 338.684493 127.410666 
L 339.119978 126.619351 
L 339.99095 126.685864 
L 340.426435 130.007628 
L 340.861921 129.901011 
L 341.297407 128.693986 
L 342.168378 128.567806 
L 342.603864 129.630066 
L 343.039349 129.615394 
L 343.474835 127.615097 
L 343.91032 127.074186 
L 344.345806 127.226776 
L 344.781292 128.116883 
L 345.216777 128.03961 
L 346.087749 130.096639 
L 346.95872 130.287376 
L 347.394206 130.413556 
L 347.829691 130.360736 
L 348.265177 130.505501 
L 348.700662 130.383234 
L 349.136148 131.806427 
L 349.571634 131.843597 
L 350.007119 130.940773 
L 351.749062 131.032719 
L 352.184548 129.959699 
L 352.620033 131.462122 
L 353.055519 132.217246 
L 353.92649 134.023871 
L 354.361976 134.594126 
L 354.797461 134.55011 
L 355.232947 133.246249 
L 355.668433 133.259943 
L 356.103918 134.751607 
L 356.539404 133.511325 
L 356.97489 135.993845 
L 357.410375 135.997757 
L 357.845861 137.03263 
L 358.716832 136.890799 
L 359.152318 137.846442 
L 359.587804 137.699721 
L 360.023289 138.507665 
L 360.458775 138.468539 
L 360.89426 137.9736 
L 361.329746 140.049214 
L 362.200717 139.946509 
L 362.636203 141.27091 
L 363.071689 141.580981 
L 363.507174 142.716601 
L 363.94266 142.842782 
L 364.378146 143.28001 
L 364.813631 144.038069 
L 365.249117 142.557165 
L 365.684603 141.726724 
L 366.120088 141.67097 
L 366.555574 141.749221 
L 366.991059 143.233059 
L 367.426545 142.667694 
L 367.862031 141.705205 
L 368.733002 141.683686 
L 369.168488 141.347205 
L 369.603973 140.397431 
L 370.039459 141.849969 
L 370.91043 141.798128 
L 371.345916 143.089273 
L 371.781401 141.650429 
L 373.523344 141.695423 
L 373.95883 140.552956 
L 374.394315 141.258195 
L 374.829801 141.275801 
L 375.265287 141.067457 
L 375.700772 142.269591 
L 376.571744 142.344908 
L 377.007229 140.742715 
L 377.442715 141.535008 
L 377.8782 141.479254 
L 378.313686 140.493289 
L 378.749172 141.837254 
L 379.620143 141.809866 
L 380.055629 142.658891 
L 380.491114 142.61194 
L 380.9266 144.271844 
L 381.362086 143.109814 
L 381.797571 143.084382 
L 382.233057 143.184152 
L 382.668543 141.661188 
L 383.104028 144.650384 
L 383.539514 144.638647 
L 383.974999 143.819943 
L 384.410485 144.112407 
L 384.845971 144.150555 
L 385.281456 145.580596 
L 385.716942 144.25815 
L 386.152428 144.161314 
L 386.587913 144.235653 
L 387.023399 143.615512 
L 387.458885 144.405849 
L 387.89437 141.37655 
L 388.329856 140.25071 
L 388.765341 140.16659 
L 389.200827 138.25237 
L 389.636313 139.63057 
L 390.071798 139.545471 
L 390.507284 139.61981 
L 390.94277 140.069754 
L 391.378255 139.889777 
L 391.813741 140.810207 
L 392.684712 140.749562 
L 393.120198 141.966368 
L 393.555684 140.491333 
L 395.297626 140.740759 
L 395.733112 139.369406 
L 396.168597 140.160722 
L 396.604083 139.254964 
L 397.039569 140.285923 
L 397.475054 141.706183 
L 398.346026 141.575112 
L 398.781511 139.876083 
L 399.216997 139.930859 
L 399.652483 139.860433 
L 400.087968 138.665145 
L 400.523454 139.922055 
L 400.958939 140.00911 
L 401.829911 139.851629 
L 401.829911 139.851629 
" clip-path="url(#pba6db7ff34)" style="fill: none; stroke: #d62728; stroke-opacity: 0.8; stroke-width: 1.5; stroke-linecap: square"/>
   </g>
   <g id="line2d_21">
    <path d="M 147.070811 185.496535 
L 147.941782 185.249065 
L 148.812753 185.200158 
L 149.248239 184.145723 
L 150.11921 184.111488 
L 150.554696 182.913267 
L 152.296638 182.779262 
L 152.732124 183.986287 
L 153.16761 183.958899 
L 153.603095 182.96413 
L 154.474067 182.934786 
L 154.909552 181.704286 
L 156.216009 181.477357 
L 157.522466 181.371718 
L 157.957952 180.522693 
L 158.393437 181.269992 
L 159.699894 180.738862 
L 160.13538 179.287302 
L 161.006351 178.940062 
L 161.441837 179.646279 
L 161.877322 179.441848 
L 162.312808 178.151681 
L 163.183779 177.793682 
L 163.619265 178.659336 
L 164.054751 178.43632 
L 164.490236 177.046383 
L 165.361208 176.677624 
L 165.796693 178.569347 
L 166.232179 178.3835 
L 166.667665 177.00041 
L 167.538636 176.661974 
L 167.974121 177.21071 
L 168.409607 175.749369 
L 168.845093 171.316438 
L 169.716064 170.929095 
L 170.15155 171.891585 
L 170.587035 171.721388 
L 171.022521 170.162233 
L 171.458007 170.128976 
L 171.893492 169.922589 
L 172.328978 169.493185 
L 172.764463 169.365049 
L 173.635435 166.42476 
L 174.07092 166.311296 
L 174.506406 167.104567 
L 174.941892 166.873726 
L 175.377377 165.955253 
L 178.425777 165.048517 
L 178.861262 166.494208 
L 179.296748 166.296624 
L 180.167719 163.755416 
L 180.603205 163.589132 
L 181.038691 164.293393 
L 181.474176 163.994082 
L 181.909662 162.439817 
L 182.780633 162.05443 
L 183.216119 162.703915 
L 183.651605 162.515134 
L 184.08709 161.570251 
L 184.958061 161.356038 
L 185.393547 162.09649 
L 185.829033 161.874453 
L 186.264518 160.439521 
L 187.13549 160.194986 
L 187.570975 160.861099 
L 188.006461 160.765242 
L 188.441947 158.505738 
L 188.877432 158.246531 
L 189.748403 158.12622 
L 190.183889 157.990258 
L 190.619375 158.234793 
L 191.490346 157.91592 
L 191.925832 158.571274 
L 192.361317 158.437268 
L 192.796803 157.562811 
L 195.845202 156.882026 
L 196.280688 157.617587 
L 196.716174 157.444456 
L 197.587145 157.397506 
L 198.022631 155.566427 
L 198.893602 155.4334 
L 199.329088 156.461425 
L 200.635545 156.165049 
L 201.07103 154.487539 
L 202.377487 154.058135 
L 202.812973 154.038573 
L 203.248458 154.330058 
L 203.683944 154.449391 
L 204.990401 154.404397 
L 205.425887 153.723611 
L 205.861372 154.447435 
L 206.732343 154.354512 
L 207.167829 155.164412 
L 207.603315 153.979884 
L 208.0388 153.841966 
L 209.345257 153.889895 
L 209.780743 152.731777 
L 211.522686 152.712215 
L 211.958171 151.958069 
L 212.393657 153.1514 
L 213.264628 153.075105 
L 213.700114 153.829251 
L 214.135599 152.266183 
L 215.006571 152.203582 
L 215.442056 151.796676 
L 215.877542 151.675386 
L 216.313028 150.41652 
L 216.748513 151.178491 
L 217.619485 150.72659 
L 218.05497 151.409332 
L 218.925941 151.041551 
L 219.361427 149.398276 
L 219.796913 149.415883 
L 220.232398 149.3122 
L 220.667884 148.127672 
L 221.10337 148.947354 
L 221.974341 148.516972 
L 222.845312 148.268524 
L 223.280798 149.862893 
L 223.716283 148.738032 
L 224.587255 148.302759 
L 225.02274 147.284516 
L 225.458226 148.589354 
L 225.893712 148.44459 
L 226.329197 148.007361 
L 226.764683 147.80782 
L 227.200169 146.176283 
L 227.635654 146.965642 
L 228.07114 145.601136 
L 228.506626 145.559076 
L 228.942111 146.312244 
L 229.377597 144.735483 
L 229.813082 144.695379 
L 230.684054 144.259128 
L 231.119539 145.297913 
L 231.555025 143.847331 
L 231.990511 144.571155 
L 232.861482 144.38433 
L 233.296968 144.181855 
L 233.732453 143.277076 
L 234.167939 144.137839 
L 234.603425 144.052741 
L 235.03891 143.83755 
L 235.474396 144.925242 
L 235.909881 143.373912 
L 236.345367 143.281966 
L 237.651824 142.658891 
L 238.08731 141.774653 
L 238.522795 142.642263 
L 239.393767 142.230466 
L 239.829252 143.238928 
L 240.264738 143.083404 
L 240.700224 143.056016 
L 241.571195 140.810207 
L 242.00668 140.587191 
L 242.442166 139.180625 
L 242.877652 139.84576 
L 243.313137 140.15094 
L 243.748623 139.88782 
L 244.619594 139.935749 
L 245.05508 141.233741 
L 245.490566 140.218432 
L 246.361537 140.299617 
L 246.797022 138.983041 
L 247.232508 140.184197 
L 248.974451 140.409169 
L 249.409936 141.678795 
L 249.845422 140.545131 
L 251.151879 140.66642 
L 251.587365 141.820625 
L 252.02285 140.782819 
L 253.329307 140.602841 
L 253.764793 144.778521 
L 255.07125 144.977083 
L 255.506735 143.790599 
L 255.942221 145.313563 
L 256.813192 145.397683 
L 257.248678 146.516676 
L 257.684164 145.108154 
L 258.119649 146.374845 
L 258.99062 146.11466 
L 259.426106 146.123463 
L 259.861592 145.375186 
L 260.297077 146.134223 
L 260.732563 145.979677 
L 261.168049 145.947398 
L 261.603534 146.753385 
L 262.474506 146.717194 
L 262.909991 145.433875 
L 263.780962 145.283241 
L 264.216448 144.25815 
L 265.087419 146.501025 
L 266.393876 146.515697 
L 266.829362 147.879225 
L 267.264848 147.055631 
L 268.135819 147.200395 
L 268.571305 146.230081 
L 269.00679 147.043893 
L 269.877761 147.135838 
L 270.313247 146.978358 
L 270.748733 147.087909 
L 271.184218 148.30765 
L 271.619704 146.99792 
L 272.490675 146.886413 
L 272.926161 146.958795 
L 273.361647 149.051036 
L 273.797132 147.86064 
L 274.668104 147.653274 
L 275.103589 147.649362 
L 275.539075 148.414267 
L 275.97456 147.074215 
L 277.281017 147.257128 
L 277.716503 148.023989 
L 278.151989 147.136816 
L 279.02296 147.205286 
L 279.458446 145.544404 
L 279.893931 146.206605 
L 281.200388 146.025649 
L 281.635874 144.892963 
L 282.506845 144.86851 
L 282.942331 146.608621 
L 284.248788 146.283878 
L 284.684273 144.872422 
L 285.555245 144.67386 
L 285.99073 145.51506 
L 286.426216 145.650043 
L 286.861701 145.622656 
L 287.732673 145.854475 
L 288.168158 146.778817 
L 288.603644 146.777839 
L 289.03913 145.338995 
L 290.781072 144.905679 
L 292.087529 144.984908 
L 292.523015 146.215408 
L 292.9585 146.228124 
L 293.393986 144.802974 
L 294.264957 144.697335 
L 294.700443 145.824152 
L 295.135929 145.732207 
L 295.571414 144.482144 
L 296.442386 144.455734 
L 296.877871 145.274438 
L 297.313357 145.416268 
L 297.748842 144.727657 
L 298.619814 144.70516 
L 299.055299 146.279966 
L 299.490785 146.325938 
L 299.926271 145.540492 
L 300.361756 145.823174 
L 300.797242 145.814371 
L 301.232728 146.889347 
L 301.668213 146.860003 
L 302.103699 145.740032 
L 305.152098 146.281922 
L 305.587584 145.669606 
L 306.02307 145.587443 
L 306.458555 143.434556 
L 307.329527 143.354349 
L 307.765012 141.930177 
L 308.200498 141.888117 
L 308.635984 142.795831 
L 309.506955 140.336787 
L 309.94244 139.976831 
L 310.377926 138.67297 
L 310.813412 133.530888 
L 311.248897 133.773467 
L 312.119869 133.800855 
L 312.555354 134.299706 
L 312.99084 135.516513 
L 313.426326 135.482278 
L 313.861811 136.144478 
L 314.297297 137.481596 
L 314.732782 137.344656 
L 315.168268 135.989932 
L 316.039239 135.936135 
L 316.474725 137.131422 
L 316.910211 137.089362 
L 317.345696 135.709206 
L 318.216668 135.871577 
L 318.652153 136.529866 
L 319.087639 136.458461 
L 319.523125 134.971689 
L 320.394096 134.867028 
L 320.829581 136.293156 
L 321.265067 136.284352 
L 321.700553 127.618032 
L 322.571524 127.613141 
L 323.00701 128.285123 
L 323.442495 128.246976 
L 323.877981 127.104508 
L 326.055409 127.052667 
L 326.490895 128.043523 
L 326.92638 128.158943 
L 327.361866 129.456935 
L 327.797352 129.435416 
L 328.232837 128.241107 
L 329.103809 128.530636 
L 329.539294 128.583456 
L 329.97478 128.021025 
L 330.845751 127.894845 
L 331.281237 127.965271 
L 331.716722 129.403137 
L 332.152208 129.40705 
L 332.587694 129.299454 
L 333.023179 129.403137 
L 333.458665 128.58639 
L 334.329636 125.47297 
L 334.765122 126.68782 
L 335.636093 126.707383 
L 336.071579 126.601744 
L 336.507065 126.660433 
L 336.94255 127.632704 
L 337.378036 126.479477 
L 337.813521 126.604679 
L 338.249007 127.934949 
L 338.684493 128.022003 
L 339.119978 127.928102 
L 339.555464 126.30439 
L 339.99095 126.173319 
L 340.426435 127.314808 
L 341.297407 127.117224 
L 341.732892 126.19386 
L 342.168378 126.230051 
L 342.603864 127.632704 
L 343.039349 127.700195 
L 343.474835 129.091111 
L 343.91032 127.359803 
L 344.345806 127.234601 
L 344.781292 127.960381 
L 345.652263 128.042544 
L 346.087749 127.238513 
L 347.394206 127.237535 
L 347.829691 127.805835 
L 348.265177 126.90888 
L 348.700662 126.972459 
L 349.136148 127.988747 
L 349.571634 128.068954 
L 350.007119 127.989725 
L 350.442605 127.159284 
L 351.313576 127.390125 
L 351.749062 127.358825 
L 352.184548 128.166768 
L 352.620033 127.012563 
L 353.055519 126.802263 
L 353.491005 127.852785 
L 354.361976 127.744212 
L 354.797461 127.736387 
L 355.232947 127.903649 
L 355.668433 126.944093 
L 356.103918 126.986153 
L 356.539404 128.393697 
L 356.97489 127.216016 
L 357.410375 127.290355 
L 357.845861 127.223841 
L 358.281347 127.277639 
L 358.716832 128.507161 
L 359.587804 128.558024 
L 360.023289 127.605316 
L 360.458775 127.557387 
L 360.89426 128.835816 
L 361.329746 127.244382 
L 362.636203 127.233623 
L 363.071689 128.101233 
L 363.507174 127.215038 
L 363.94266 127.190584 
L 364.378146 128.767346 
L 365.249117 128.84951 
L 365.684603 127.660092 
L 366.120088 127.616075 
L 366.555574 128.824078 
L 367.426545 128.702789 
L 367.862031 126.710318 
L 369.168488 126.97735 
L 369.603973 128.138402 
L 370.039459 123.685909 
L 370.474945 123.738728 
L 370.91043 124.531022 
L 371.781401 124.609273 
L 372.216887 123.734816 
L 373.523344 123.550925 
L 373.95883 125.076824 
L 374.394315 123.804264 
L 374.829801 123.909903 
L 375.265287 124.82642 
L 376.571744 125.038676 
L 377.007229 125.075846 
L 377.442715 124.105531 
L 377.8782 124.215082 
L 378.313686 125.631429 
L 378.749172 124.710999 
L 379.620143 124.781425 
L 380.055629 124.85283 
L 380.491114 126.037357 
L 381.362086 125.878899 
L 381.797571 124.640573 
L 382.233057 124.490918 
L 382.668543 125.053348 
L 383.104028 123.694712 
L 383.539514 123.581248 
L 384.410485 123.673193 
L 384.845971 124.383322 
L 385.716942 124.271815 
L 386.152428 123.249658 
L 386.587913 123.324975 
L 387.023399 124.596557 
L 387.458885 124.352022 
L 387.89437 124.391148 
L 388.329856 122.147294 
L 388.765341 122.065131 
L 389.200827 123.255527 
L 389.636313 121.962426 
L 390.071798 121.992748 
L 390.507284 123.62722 
L 390.94277 123.581248 
L 391.378255 125.802604 
L 391.813741 125.1316 
L 392.249227 125.112037 
L 392.684712 126.529362 
L 393.120198 126.432526 
L 393.555684 126.456001 
L 393.991169 126.187991 
L 395.297626 129.799284 
L 395.733112 134.979514 
L 396.168597 134.273297 
L 396.604083 134.2821 
L 397.039569 135.723878 
L 398.781511 135.797239 
L 399.216997 134.705634 
L 399.652483 134.861159 
L 400.087968 136.232511 
L 400.523454 135.198617 
L 401.829911 135.472496 
L 401.829911 135.472496 
" clip-path="url(#pba6db7ff34)" style="fill: none; stroke: #9467bd; stroke-opacity: 0.8; stroke-width: 1.5; stroke-linecap: square"/>
   </g>
   <g id="patch_3">
    <path d="M 61.715625 288.430125 
L 61.715625 22.318125 
" style="fill: none; stroke: #000000; stroke-width: 0.8; stroke-linejoin: miter; stroke-linecap: square"/>
   </g>
   <g id="patch_4">
    <path d="M 418.835625 288.430125 
L 418.835625 22.318125 
" style="fill: none; stroke: #000000; stroke-width: 0.8; stroke-linejoin: miter; stroke-linecap: square"/>
   </g>
   <g id="patch_5">
    <path d="M 61.715625 288.430125 
L 418.835625 288.430125 
" style="fill: none; stroke: #000000; stroke-width: 0.8; stroke-linejoin: miter; stroke-linecap: square"/>
   </g>
   <g id="patch_6">
    <path d="M 61.715625 22.318125 
L 418.835625 22.318125 
" style="fill: none; stroke: #000000; stroke-width: 0.8; stroke-linejoin: miter; stroke-linecap: square"/>
   </g>
   <g id="text_19">
    <!-- Get descendants [leaf] -->
    <g transform="translate(171.752813 16.318125) scale(0.12 -0.12)">
     <defs>
      <path id="DejaVuSans-47" d="M 3809 666 
L 3809 1919 
L 2778 1919 
L 2778 2438 
L 4434 2438 
L 4434 434 
Q 4069 175 3628 42 
Q 3188 -91 2688 -91 
Q 1594 -91 976 548 
Q 359 1188 359 2328 
Q 359 3472 976 4111 
Q 1594 4750 2688 4750 
Q 3144 4750 3555 4637 
Q 3966 4525 4313 4306 
L 4313 3634 
Q 3963 3931 3569 4081 
Q 3175 4231 2741 4231 
Q 1884 4231 1454 3753 
Q 1025 3275 1025 2328 
Q 1025 1384 1454 906 
Q 1884 428 2741 428 
Q 3075 428 3337 486 
Q 3600 544 3809 666 
z
" transform="scale(0.015625)"/>
      <path id="DejaVuSans-5b" d="M 550 4863 
L 1875 4863 
L 1875 4416 
L 1125 4416 
L 1125 -397 
L 1875 -397 
L 1875 -844 
L 550 -844 
L 550 4863 
z
" transform="scale(0.015625)"/>
      <path id="DejaVuSans-5d" d="M 1947 4863 
L 1947 -844 
L 622 -844 
L 622 -397 
L 1369 -397 
L 1369 4416 
L 622 4416 
L 622 4863 
L 1947 4863 
z
" transform="scale(0.015625)"/>
     </defs>
     <use xlink:href="#DejaVuSans-47"/>
     <use xlink:href="#DejaVuSans-65" transform="translate(77.490234 0)"/>
     <use xlink:href="#DejaVuSans-74" transform="translate(139.013672 0)"/>
     <use xlink:href="#DejaVuSans-20" transform="translate(178.222656 0)"/>
     <use xlink:href="#DejaVuSans-64" transform="translate(210.009766 0)"/>
     <use xlink:href="#DejaVuSans-65" transform="translate(273.486328 0)"/>
     <use xlink:href="#DejaVuSans-73" transform="translate(335.009766 0)"/>
     <use xlink:href="#DejaVuSans-63" transform="translate(387.109375 0)"/>
     <use xlink:href="#DejaVuSans-65" transform="translate(442.089844 0)"/>
     <use xlink:href="#DejaVuSans-6e" transform="translate(503.613281 0)"/>
     <use xlink:href="#DejaVuSans-64" transform="translate(566.992188 0)"/>
     <use xlink:href="#DejaVuSans-61" transform="translate(630.46875 0)"/>
     <use xlink:href="#DejaVuSans-6e" transform="translate(691.748047 0)"/>
     <use xlink:href="#DejaVuSans-74" transform="translate(755.126953 0)"/>
     <use xlink:href="#DejaVuSans-73" transform="translate(794.335938 0)"/>
     <use xlink:href="#DejaVuSans-20" transform="translate(846.435547 0)"/>
     <use xlink:href="#DejaVuSans-5b" transform="translate(878.222656 0)"/>
     <use xlink:href="#DejaVuSans-6c" transform="translate(917.236328 0)"/>
     <use xlink:href="#DejaVuSans-65" transform="translate(945.019531 0)"/>
     <use xlink:href="#DejaVuSans-61" transform="translate(1006.542969 0)"/>
     <use xlink:href="#DejaVuSans-66" transform="translate(1067.822266 0)"/>
     <use xlink:href="#DejaVuSans-5d" transform="translate(1103.027344 0)"/>
    </g>
   </g>
   <g id="legend_1">
    <g id="patch_7">
     <path d="M 92.717969 365.802375 
L 380.313281 365.802375 
Q 382.313281 365.802375 382.313281 363.802375 
L 382.313281 335.446125 
Q 382.313281 333.446125 380.313281 333.446125 
L 92.717969 333.446125 
Q 90.717969 333.446125 90.717969 335.446125 
L 90.717969 363.802375 
Q 90.717969 365.802375 92.717969 365.802375 
z
" style="fill: #4d4d4d; opacity: 0.5; stroke: #4d4d4d; stroke-linejoin: miter"/>
    </g>
    <g id="patch_8">
     <path d="M 90.717969 363.802375 
L 378.313281 363.802375 
Q 380.313281 363.802375 380.313281 361.802375 
L 380.313281 333.446125 
Q 380.313281 331.446125 378.313281 331.446125 
L 90.717969 331.446125 
Q 88.717969 331.446125 88.717969 333.446125 
L 88.717969 361.802375 
Q 88.717969 363.802375 90.717969 363.802375 
z
" style="fill: #ffffff; stroke: #cccccc; stroke-linejoin: miter"/>
    </g>
    <g id="line2d_22">
     <path d="M 92.717969 339.544562 
L 102.717969 339.544562 
L 112.717969 339.544562 
" style="fill: none; stroke: #1f77b4; stroke-opacity: 0.8; stroke-width: 1.5; stroke-linecap: square"/>
    </g>
    <g id="text_20">
     <!-- MPTT -->
     <g transform="translate(120.717969 343.044562) scale(0.1 -0.1)">
      <defs>
       <path id="DejaVuSans-4d" d="M 628 4666 
L 1569 4666 
L 2759 1491 
L 3956 4666 
L 4897 4666 
L 4897 0 
L 4281 0 
L 4281 4097 
L 3078 897 
L 2444 897 
L 1241 4097 
L 1241 0 
L 628 0 
L 628 4666 
z
" transform="scale(0.015625)"/>
       <path id="DejaVuSans-50" d="M 1259 4147 
L 1259 2394 
L 2053 2394 
Q 2494 2394 2734 2622 
Q 2975 2850 2975 3272 
Q 2975 3691 2734 3919 
Q 2494 4147 2053 4147 
L 1259 4147 
z
M 628 4666 
L 2053 4666 
Q 2838 4666 3239 4311 
Q 3641 3956 3641 3272 
Q 3641 2581 3239 2228 
Q 2838 1875 2053 1875 
L 1259 1875 
L 1259 0 
L 628 0 
L 628 4666 
z
" transform="scale(0.015625)"/>
       <path id="DejaVuSans-54" d="M -19 4666 
L 3928 4666 
L 3928 4134 
L 2272 4134 
L 2272 0 
L 1638 0 
L 1638 4134 
L -19 4134 
L -19 4666 
z
" transform="scale(0.015625)"/>
      </defs>
      <use xlink:href="#DejaVuSans-4d"/>
      <use xlink:href="#DejaVuSans-50" transform="translate(86.279297 0)"/>
      <use xlink:href="#DejaVuSans-54" transform="translate(146.582031 0)"/>
      <use xlink:href="#DejaVuSans-54" transform="translate(205.916016 0)"/>
     </g>
    </g>
    <g id="line2d_23">
     <path d="M 92.717969 354.222687 
L 102.717969 354.222687 
L 112.717969 354.222687 
" style="fill: none; stroke: #ff7f0e; stroke-opacity: 0.8; stroke-width: 1.5; stroke-linecap: square"/>
    </g>
    <g id="text_21">
     <!-- tree -->
     <g transform="translate(120.717969 357.722687) scale(0.1 -0.1)">
      <defs>
       <path id="DejaVuSans-72" d="M 2631 2963 
Q 2534 3019 2420 3045 
Q 2306 3072 2169 3072 
Q 1681 3072 1420 2755 
Q 1159 2438 1159 1844 
L 1159 0 
L 581 0 
L 581 3500 
L 1159 3500 
L 1159 2956 
Q 1341 3275 1631 3429 
Q 1922 3584 2338 3584 
Q 2397 3584 2469 3576 
Q 2541 3569 2628 3553 
L 2631 2963 
z
" transform="scale(0.015625)"/>
      </defs>
      <use xlink:href="#DejaVuSans-74"/>
      <use xlink:href="#DejaVuSans-72" transform="translate(39.208984 0)"/>
      <use xlink:href="#DejaVuSans-65" transform="translate(78.072266 0)"/>
      <use xlink:href="#DejaVuSans-65" transform="translate(139.595703 0)"/>
     </g>
    </g>
    <g id="line2d_24">
     <path d="M 167.416406 339.544562 
L 177.416406 339.544562 
L 187.416406 339.544562 
" style="fill: none; stroke: #2ca02c; stroke-opacity: 0.8; stroke-width: 1.5; stroke-linecap: square"/>
    </g>
    <g id="text_22">
     <!-- treebeard AL -->
     <g transform="translate(195.416406 343.044562) scale(0.1 -0.1)">
      <defs>
       <path id="DejaVuSans-4c" d="M 628 4666 
L 1259 4666 
L 1259 531 
L 3531 531 
L 3531 0 
L 628 0 
L 628 4666 
z
" transform="scale(0.015625)"/>
      </defs>
      <use xlink:href="#DejaVuSans-74"/>
      <use xlink:href="#DejaVuSans-72" transform="translate(39.208984 0)"/>
      <use xlink:href="#DejaVuSans-65" transform="translate(78.072266 0)"/>
      <use xlink:href="#DejaVuSans-65" transform="translate(139.595703 0)"/>
      <use xlink:href="#DejaVuSans-62" transform="translate(201.119141 0)"/>
      <use xlink:href="#DejaVuSans-65" transform="translate(264.595703 0)"/>
      <use xlink:href="#DejaVuSans-61" transform="translate(326.119141 0)"/>
      <use xlink:href="#DejaVuSans-72" transform="translate(387.398438 0)"/>
      <use xlink:href="#DejaVuSans-64" transform="translate(426.761719 0)"/>
      <use xlink:href="#DejaVuSans-20" transform="translate(490.238281 0)"/>
      <use xlink:href="#DejaVuSans-41" transform="translate(522.025391 0)"/>
      <use xlink:href="#DejaVuSans-4c" transform="translate(590.433594 0)"/>
     </g>
    </g>
    <g id="line2d_25">
     <path d="M 167.416406 354.222687 
L 177.416406 354.222687 
L 187.416406 354.222687 
" style="fill: none; stroke: #d62728; stroke-opacity: 0.8; stroke-width: 1.5; stroke-linecap: square"/>
    </g>
    <g id="text_23">
     <!-- treebeard MP -->
     <g transform="translate(195.416406 357.722687) scale(0.1 -0.1)">
      <use xlink:href="#DejaVuSans-74"/>
      <use xlink:href="#DejaVuSans-72" transform="translate(39.208984 0)"/>
      <use xlink:href="#DejaVuSans-65" transform="translate(78.072266 0)"/>
      <use xlink:href="#DejaVuSans-65" transform="translate(139.595703 0)"/>
      <use xlink:href="#DejaVuSans-62" transform="translate(201.119141 0)"/>
      <use xlink:href="#DejaVuSans-65" transform="translate(264.595703 0)"/>
      <use xlink:href="#DejaVuSans-61" transform="translate(326.119141 0)"/>
      <use xlink:href="#DejaVuSans-72" transform="translate(387.398438 0)"/>
      <use xlink:href="#DejaVuSans-64" transform="translate(426.761719 0)"/>
      <use xlink:href="#DejaVuSans-20" transform="translate(490.238281 0)"/>
      <use xlink:href="#DejaVuSans-4d" transform="translate(522.025391 0)"/>
      <use xlink:href="#DejaVuSans-50" transform="translate(608.304688 0)"/>
     </g>
    </g>
    <g id="line2d_26">
     <path d="M 282.278906 339.544562 
L 292.278906 339.544562 
L 302.278906 339.544562 
" style="fill: none; stroke: #9467bd; stroke-opacity: 0.8; stroke-width: 1.5; stroke-linecap: square"/>
    </g>
    <g id="text_24">
     <!-- treebeard NS -->
     <g transform="translate(310.278906 343.044562) scale(0.1 -0.1)">
      <defs>
       <path id="DejaVuSans-4e" d="M 628 4666 
L 1478 4666 
L 3547 763 
L 3547 4666 
L 4159 4666 
L 4159 0 
L 3309 0 
L 1241 3903 
L 1241 0 
L 628 0 
L 628 4666 
z
" transform="scale(0.015625)"/>
       <path id="DejaVuSans-53" d="M 3425 4513 
L 3425 3897 
Q 3066 4069 2747 4153 
Q 2428 4238 2131 4238 
Q 1616 4238 1336 4038 
Q 1056 3838 1056 3469 
Q 1056 3159 1242 3001 
Q 1428 2844 1947 2747 
L 2328 2669 
Q 3034 2534 3370 2195 
Q 3706 1856 3706 1288 
Q 3706 609 3251 259 
Q 2797 -91 1919 -91 
Q 1588 -91 1214 -16 
Q 841 59 441 206 
L 441 856 
Q 825 641 1194 531 
Q 1563 422 1919 422 
Q 2459 422 2753 634 
Q 3047 847 3047 1241 
Q 3047 1584 2836 1778 
Q 2625 1972 2144 2069 
L 1759 2144 
Q 1053 2284 737 2584 
Q 422 2884 422 3419 
Q 422 4038 858 4394 
Q 1294 4750 2059 4750 
Q 2388 4750 2728 4690 
Q 3069 4631 3425 4513 
z
" transform="scale(0.015625)"/>
      </defs>
      <use xlink:href="#DejaVuSans-74"/>
      <use xlink:href="#DejaVuSans-72" transform="translate(39.208984 0)"/>
      <use xlink:href="#DejaVuSans-65" transform="translate(78.072266 0)"/>
      <use xlink:href="#DejaVuSans-65" transform="translate(139.595703 0)"/>
      <use xlink:href="#DejaVuSans-62" transform="translate(201.119141 0)"/>
      <use xlink:href="#DejaVuSans-65" transform="translate(264.595703 0)"/>
      <use xlink:href="#DejaVuSans-61" transform="translate(326.119141 0)"/>
      <use xlink:href="#DejaVuSans-72" transform="translate(387.398438 0)"/>
      <use xlink:href="#DejaVuSans-64" transform="translate(426.761719 0)"/>
      <use xlink:href="#DejaVuSans-20" transform="translate(490.238281 0)"/>
      <use xlink:href="#DejaVuSans-4e" transform="translate(522.025391 0)"/>
      <use xlink:href="#DejaVuSans-53" transform="translate(596.830078 0)"/>
     </g>
    </g>
   </g>
  </g>
 </g>
 <defs>
  <clipPath id="pba6db7ff34">
   <rect x="61.715625" y="22.318125" width="357.12" height="266.112"/>
  </clipPath>
 </defs>
</svg>
