<?xml version="1.0" encoding="utf-8" standalone="no"?>
<!DOCTYPE svg PUBLIC "-//W3C//DTD SVG 1.1//EN"
  "http://www.w3.org/Graphics/SVG/1.1/DTD/svg11.dtd">
<svg xmlns:xlink="http://www.w3.org/1999/xlink" width="426.229375pt" height="371.002375pt" viewBox="0 0 426.229375 371.002375" xmlns="http://www.w3.org/2000/svg" version="1.1">
 <metadata>
  <rdf:RDF xmlns:dc="http://purl.org/dc/elements/1.1/" xmlns:cc="http://creativecommons.org/ns#" xmlns:rdf="http://www.w3.org/1999/02/22-rdf-syntax-ns#">
   <cc:Work>
    <dc:type rdf:resource="http://purl.org/dc/dcmitype/StillImage"/>
    <dc:date>2025-09-29T14:54:23.944419</dc:date>
    <dc:format>image/svg+xml</dc:format>
    <dc:creator>
     <cc:Agent>
      <dc:title>Matplotlib v3.10.6, https://matplotlib.org/</dc:title>
     </cc:Agent>
    </dc:creator>
   </cc:Work>
  </rdf:RDF>
 </metadata>
 <defs>
  <style type="text/css">*{stroke-linejoin: round; stroke-linecap: butt}</style>
 </defs>
 <g id="figure_1">
  <g id="patch_1">
   <path d="M 0 371.002375 
L 426.229375 371.002375 
L 426.229375 0 
L 0 0 
z
" style="fill: #ffffff"/>
  </g>
  <g id="axes_1">
   <g id="patch_2">
    <path d="M 61.909375 288.430125 
L 419.029375 288.430125 
L 419.029375 22.318125 
L 61.909375 22.318125 
z
" style="fill: #ffffff"/>
   </g>
   <g id="matplotlib.axis_1">
    <g id="xtick_1">
     <g id="line2d_1">
      <defs>
       <path id="mac961a802b" d="M 0 0 
L 0 3.5 
" style="stroke: #000000; stroke-width: 0.8"/>
      </defs>
      <g>
       <use xlink:href="#mac961a802b" x="61.909375" y="288.430125" style="stroke: #000000; stroke-width: 0.8"/>
      </g>
     </g>
     <g id="text_1">
      <!-- 0 -->
      <g transform="translate(58.728125 303.028562) scale(0.1 -0.1)">
       <defs>
        <path id="DejaVuSans-30" d="M 2034 4250 
Q 1547 4250 1301 3770 
Q 1056 3291 1056 2328 
Q 1056 1369 1301 889 
Q 1547 409 2034 409 
Q 2525 409 2770 889 
Q 3016 1369 3016 2328 
Q 3016 3291 2770 3770 
Q 2525 4250 2034 4250 
z
M 2034 4750 
Q 2819 4750 3233 4129 
Q 3647 3509 3647 2328 
Q 3647 1150 3233 529 
Q 2819 -91 2034 -91 
Q 1250 -91 836 529 
Q 422 1150 422 2328 
Q 422 3509 836 4129 
Q 1250 4750 2034 4750 
z
" transform="scale(0.015625)"/>
       </defs>
       <use xlink:href="#DejaVuSans-30"/>
      </g>
     </g>
    </g>
    <g id="xtick_2">
     <g id="line2d_2">
      <g>
       <use xlink:href="#mac961a802b" x="105.457939" y="288.430125" style="stroke: #000000; stroke-width: 0.8"/>
      </g>
     </g>
     <g id="text_2">
      <!-- 500  -->
      <g transform="translate(94.325127 303.028562) scale(0.1 -0.1)">
       <defs>
        <path id="DejaVuSans-35" d="M 691 4666 
L 3169 4666 
L 3169 4134 
L 1269 4134 
L 1269 2991 
Q 1406 3038 1543 3061 
Q 1681 3084 1819 3084 
Q 2600 3084 3056 2656 
Q 3513 2228 3513 1497 
Q 3513 744 3044 326 
Q 2575 -91 1722 -91 
Q 1428 -91 1123 -41 
Q 819 9 494 109 
L 494 744 
Q 775 591 1075 516 
Q 1375 441 1709 441 
Q 2250 441 2565 725 
Q 2881 1009 2881 1497 
Q 2881 1984 2565 2268 
Q 2250 2553 1709 2553 
Q 1456 2553 1204 2497 
Q 953 2441 691 2322 
L 691 4666 
z
" transform="scale(0.015625)"/>
        <path id="DejaVuSans-20" transform="scale(0.015625)"/>
       </defs>
       <use xlink:href="#DejaVuSans-35"/>
       <use xlink:href="#DejaVuSans-30" transform="translate(63.623047 0)"/>
       <use xlink:href="#DejaVuSans-30" transform="translate(127.246094 0)"/>
       <use xlink:href="#DejaVuSans-20" transform="translate(190.869141 0)"/>
      </g>
     </g>
    </g>
    <g id="xtick_3">
     <g id="line2d_3">
      <g>
       <use xlink:href="#mac961a802b" x="149.006503" y="288.430125" style="stroke: #000000; stroke-width: 0.8"/>
      </g>
     </g>
     <g id="text_3">
      <!-- 1 k -->
      <g transform="translate(141.340878 303.028562) scale(0.1 -0.1)">
       <defs>
        <path id="DejaVuSans-31" d="M 794 531 
L 1825 531 
L 1825 4091 
L 703 3866 
L 703 4441 
L 1819 4666 
L 2450 4666 
L 2450 531 
L 3481 531 
L 3481 0 
L 794 0 
L 794 531 
z
" transform="scale(0.015625)"/>
        <path id="DejaVuSans-6b" d="M 581 4863 
L 1159 4863 
L 1159 1991 
L 2875 3500 
L 3609 3500 
L 1753 1863 
L 3688 0 
L 2938 0 
L 1159 1709 
L 1159 0 
L 581 0 
L 581 4863 
z
" transform="scale(0.015625)"/>
       </defs>
       <use xlink:href="#DejaVuSans-31"/>
       <use xlink:href="#DejaVuSans-20" transform="translate(63.623047 0)"/>
       <use xlink:href="#DejaVuSans-6b" transform="translate(95.410156 0)"/>
      </g>
     </g>
    </g>
    <g id="xtick_4">
     <g id="line2d_4">
      <g>
       <use xlink:href="#mac961a802b" x="192.555067" y="288.430125" style="stroke: #000000; stroke-width: 0.8"/>
      </g>
     </g>
     <g id="text_4">
      <!-- 1.5 k -->
      <g transform="translate(180.11913 303.028562) scale(0.1 -0.1)">
       <defs>
        <path id="DejaVuSans-2e" d="M 684 794 
L 1344 794 
L 1344 0 
L 684 0 
L 684 794 
z
" transform="scale(0.015625)"/>
       </defs>
       <use xlink:href="#DejaVuSans-31"/>
       <use xlink:href="#DejaVuSans-2e" transform="translate(63.623047 0)"/>
       <use xlink:href="#DejaVuSans-35" transform="translate(95.410156 0)"/>
       <use xlink:href="#DejaVuSans-20" transform="translate(159.033203 0)"/>
       <use xlink:href="#DejaVuSans-6b" transform="translate(190.820312 0)"/>
      </g>
     </g>
    </g>
    <g id="xtick_5">
     <g id="line2d_5">
      <g>
       <use xlink:href="#mac961a802b" x="236.103631" y="288.430125" style="stroke: #000000; stroke-width: 0.8"/>
      </g>
     </g>
     <g id="text_5">
      <!-- 2 k -->
      <g transform="translate(228.438006 303.028562) scale(0.1 -0.1)">
       <defs>
        <path id="DejaVuSans-32" d="M 1228 531 
L 3431 531 
L 3431 0 
L 469 0 
L 469 531 
Q 828 903 1448 1529 
Q 2069 2156 2228 2338 
Q 2531 2678 2651 2914 
Q 2772 3150 2772 3378 
Q 2772 3750 2511 3984 
Q 2250 4219 1831 4219 
Q 1534 4219 1204 4116 
Q 875 4013 500 3803 
L 500 4441 
Q 881 4594 1212 4672 
Q 1544 4750 1819 4750 
Q 2544 4750 2975 4387 
Q 3406 4025 3406 3419 
Q 3406 3131 3298 2873 
Q 3191 2616 2906 2266 
Q 2828 2175 2409 1742 
Q 1991 1309 1228 531 
z
" transform="scale(0.015625)"/>
       </defs>
       <use xlink:href="#DejaVuSans-32"/>
       <use xlink:href="#DejaVuSans-20" transform="translate(63.623047 0)"/>
       <use xlink:href="#DejaVuSans-6b" transform="translate(95.410156 0)"/>
      </g>
     </g>
    </g>
    <g id="xtick_6">
     <g id="line2d_6">
      <g>
       <use xlink:href="#mac961a802b" x="279.652196" y="288.430125" style="stroke: #000000; stroke-width: 0.8"/>
      </g>
     </g>
     <g id="text_6">
      <!-- 2.5 k -->
      <g transform="translate(267.216258 303.028562) scale(0.1 -0.1)">
       <use xlink:href="#DejaVuSans-32"/>
       <use xlink:href="#DejaVuSans-2e" transform="translate(63.623047 0)"/>
       <use xlink:href="#DejaVuSans-35" transform="translate(95.410156 0)"/>
       <use xlink:href="#DejaVuSans-20" transform="translate(159.033203 0)"/>
       <use xlink:href="#DejaVuSans-6b" transform="translate(190.820312 0)"/>
      </g>
     </g>
    </g>
    <g id="xtick_7">
     <g id="line2d_7">
      <g>
       <use xlink:href="#mac961a802b" x="323.20076" y="288.430125" style="stroke: #000000; stroke-width: 0.8"/>
      </g>
     </g>
     <g id="text_7">
      <!-- 3 k -->
      <g transform="translate(315.535135 303.028562) scale(0.1 -0.1)">
       <defs>
        <path id="DejaVuSans-33" d="M 2597 2516 
Q 3050 2419 3304 2112 
Q 3559 1806 3559 1356 
Q 3559 666 3084 287 
Q 2609 -91 1734 -91 
Q 1441 -91 1130 -33 
Q 819 25 488 141 
L 488 750 
Q 750 597 1062 519 
Q 1375 441 1716 441 
Q 2309 441 2620 675 
Q 2931 909 2931 1356 
Q 2931 1769 2642 2001 
Q 2353 2234 1838 2234 
L 1294 2234 
L 1294 2753 
L 1863 2753 
Q 2328 2753 2575 2939 
Q 2822 3125 2822 3475 
Q 2822 3834 2567 4026 
Q 2313 4219 1838 4219 
Q 1578 4219 1281 4162 
Q 984 4106 628 3988 
L 628 4550 
Q 988 4650 1302 4700 
Q 1616 4750 1894 4750 
Q 2613 4750 3031 4423 
Q 3450 4097 3450 3541 
Q 3450 3153 3228 2886 
Q 3006 2619 2597 2516 
z
" transform="scale(0.015625)"/>
       </defs>
       <use xlink:href="#DejaVuSans-33"/>
       <use xlink:href="#DejaVuSans-20" transform="translate(63.623047 0)"/>
       <use xlink:href="#DejaVuSans-6b" transform="translate(95.410156 0)"/>
      </g>
     </g>
    </g>
    <g id="xtick_8">
     <g id="line2d_8">
      <g>
       <use xlink:href="#mac961a802b" x="366.749324" y="288.430125" style="stroke: #000000; stroke-width: 0.8"/>
      </g>
     </g>
     <g id="text_8">
      <!-- 3.5 k -->
      <g transform="translate(354.313386 303.028562) scale(0.1 -0.1)">
       <use xlink:href="#DejaVuSans-33"/>
       <use xlink:href="#DejaVuSans-2e" transform="translate(63.623047 0)"/>
       <use xlink:href="#DejaVuSans-35" transform="translate(95.410156 0)"/>
       <use xlink:href="#DejaVuSans-20" transform="translate(159.033203 0)"/>
       <use xlink:href="#DejaVuSans-6b" transform="translate(190.820312 0)"/>
      </g>
     </g>
    </g>
    <g id="xtick_9">
     <g id="line2d_9">
      <g>
       <use xlink:href="#mac961a802b" x="410.297888" y="288.430125" style="stroke: #000000; stroke-width: 0.8"/>
      </g>
     </g>
     <g id="text_9">
      <!-- 4 k -->
      <g transform="translate(402.632263 303.028562) scale(0.1 -0.1)">
       <defs>
        <path id="DejaVuSans-34" d="M 2419 4116 
L 825 1625 
L 2419 1625 
L 2419 4116 
z
M 2253 4666 
L 3047 4666 
L 3047 1625 
L 3713 1625 
L 3713 1100 
L 3047 1100 
L 3047 0 
L 2419 0 
L 2419 1100 
L 313 1100 
L 313 1709 
L 2253 4666 
z
" transform="scale(0.015625)"/>
       </defs>
       <use xlink:href="#DejaVuSans-34"/>
       <use xlink:href="#DejaVuSans-20" transform="translate(63.623047 0)"/>
       <use xlink:href="#DejaVuSans-6b" transform="translate(95.410156 0)"/>
      </g>
     </g>
    </g>
    <g id="text_10">
     <!-- Amount of objects in table -->
     <g transform="translate(174.410781 316.706687) scale(0.1 -0.1)">
      <defs>
       <path id="DejaVuSans-41" d="M 2188 4044 
L 1331 1722 
L 3047 1722 
L 2188 4044 
z
M 1831 4666 
L 2547 4666 
L 4325 0 
L 3669 0 
L 3244 1197 
L 1141 1197 
L 716 0 
L 50 0 
L 1831 4666 
z
" transform="scale(0.015625)"/>
       <path id="DejaVuSans-6d" d="M 3328 2828 
Q 3544 3216 3844 3400 
Q 4144 3584 4550 3584 
Q 5097 3584 5394 3201 
Q 5691 2819 5691 2113 
L 5691 0 
L 5113 0 
L 5113 2094 
Q 5113 2597 4934 2840 
Q 4756 3084 4391 3084 
Q 3944 3084 3684 2787 
Q 3425 2491 3425 1978 
L 3425 0 
L 2847 0 
L 2847 2094 
Q 2847 2600 2669 2842 
Q 2491 3084 2119 3084 
Q 1678 3084 1418 2786 
Q 1159 2488 1159 1978 
L 1159 0 
L 581 0 
L 581 3500 
L 1159 3500 
L 1159 2956 
Q 1356 3278 1631 3431 
Q 1906 3584 2284 3584 
Q 2666 3584 2933 3390 
Q 3200 3197 3328 2828 
z
" transform="scale(0.015625)"/>
       <path id="DejaVuSans-6f" d="M 1959 3097 
Q 1497 3097 1228 2736 
Q 959 2375 959 1747 
Q 959 1119 1226 758 
Q 1494 397 1959 397 
Q 2419 397 2687 759 
Q 2956 1122 2956 1747 
Q 2956 2369 2687 2733 
Q 2419 3097 1959 3097 
z
M 1959 3584 
Q 2709 3584 3137 3096 
Q 3566 2609 3566 1747 
Q 3566 888 3137 398 
Q 2709 -91 1959 -91 
Q 1206 -91 779 398 
Q 353 888 353 1747 
Q 353 2609 779 3096 
Q 1206 3584 1959 3584 
z
" transform="scale(0.015625)"/>
       <path id="DejaVuSans-75" d="M 544 1381 
L 544 3500 
L 1119 3500 
L 1119 1403 
Q 1119 906 1312 657 
Q 1506 409 1894 409 
Q 2359 409 2629 706 
Q 2900 1003 2900 1516 
L 2900 3500 
L 3475 3500 
L 3475 0 
L 2900 0 
L 2900 538 
Q 2691 219 2414 64 
Q 2138 -91 1772 -91 
Q 1169 -91 856 284 
Q 544 659 544 1381 
z
M 1991 3584 
L 1991 3584 
z
" transform="scale(0.015625)"/>
       <path id="DejaVuSans-6e" d="M 3513 2113 
L 3513 0 
L 2938 0 
L 2938 2094 
Q 2938 2591 2744 2837 
Q 2550 3084 2163 3084 
Q 1697 3084 1428 2787 
Q 1159 2491 1159 1978 
L 1159 0 
L 581 0 
L 581 3500 
L 1159 3500 
L 1159 2956 
Q 1366 3272 1645 3428 
Q 1925 3584 2291 3584 
Q 2894 3584 3203 3211 
Q 3513 2838 3513 2113 
z
" transform="scale(0.015625)"/>
       <path id="DejaVuSans-74" d="M 1172 4494 
L 1172 3500 
L 2356 3500 
L 2356 3053 
L 1172 3053 
L 1172 1153 
Q 1172 725 1289 603 
Q 1406 481 1766 481 
L 2356 481 
L 2356 0 
L 1766 0 
Q 1100 0 847 248 
Q 594 497 594 1153 
L 594 3053 
L 172 3053 
L 172 3500 
L 594 3500 
L 594 4494 
L 1172 4494 
z
" transform="scale(0.015625)"/>
       <path id="DejaVuSans-66" d="M 2375 4863 
L 2375 4384 
L 1825 4384 
Q 1516 4384 1395 4259 
Q 1275 4134 1275 3809 
L 1275 3500 
L 2222 3500 
L 2222 3053 
L 1275 3053 
L 1275 0 
L 697 0 
L 697 3053 
L 147 3053 
L 147 3500 
L 697 3500 
L 697 3744 
Q 697 4328 969 4595 
Q 1241 4863 1831 4863 
L 2375 4863 
z
" transform="scale(0.015625)"/>
       <path id="DejaVuSans-62" d="M 3116 1747 
Q 3116 2381 2855 2742 
Q 2594 3103 2138 3103 
Q 1681 3103 1420 2742 
Q 1159 2381 1159 1747 
Q 1159 1113 1420 752 
Q 1681 391 2138 391 
Q 2594 391 2855 752 
Q 3116 1113 3116 1747 
z
M 1159 2969 
Q 1341 3281 1617 3432 
Q 1894 3584 2278 3584 
Q 2916 3584 3314 3078 
Q 3713 2572 3713 1747 
Q 3713 922 3314 415 
Q 2916 -91 2278 -91 
Q 1894 -91 1617 61 
Q 1341 213 1159 525 
L 1159 0 
L 581 0 
L 581 4863 
L 1159 4863 
L 1159 2969 
z
" transform="scale(0.015625)"/>
       <path id="DejaVuSans-6a" d="M 603 3500 
L 1178 3500 
L 1178 -63 
Q 1178 -731 923 -1031 
Q 669 -1331 103 -1331 
L -116 -1331 
L -116 -844 
L 38 -844 
Q 366 -844 484 -692 
Q 603 -541 603 -63 
L 603 3500 
z
M 603 4863 
L 1178 4863 
L 1178 4134 
L 603 4134 
L 603 4863 
z
" transform="scale(0.015625)"/>
       <path id="DejaVuSans-65" d="M 3597 1894 
L 3597 1613 
L 953 1613 
Q 991 1019 1311 708 
Q 1631 397 2203 397 
Q 2534 397 2845 478 
Q 3156 559 3463 722 
L 3463 178 
Q 3153 47 2828 -22 
Q 2503 -91 2169 -91 
Q 1331 -91 842 396 
Q 353 884 353 1716 
Q 353 2575 817 3079 
Q 1281 3584 2069 3584 
Q 2775 3584 3186 3129 
Q 3597 2675 3597 1894 
z
M 3022 2063 
Q 3016 2534 2758 2815 
Q 2500 3097 2075 3097 
Q 1594 3097 1305 2825 
Q 1016 2553 972 2059 
L 3022 2063 
z
" transform="scale(0.015625)"/>
       <path id="DejaVuSans-63" d="M 3122 3366 
L 3122 2828 
Q 2878 2963 2633 3030 
Q 2388 3097 2138 3097 
Q 1578 3097 1268 2742 
Q 959 2388 959 1747 
Q 959 1106 1268 751 
Q 1578 397 2138 397 
Q 2388 397 2633 464 
Q 2878 531 3122 666 
L 3122 134 
Q 2881 22 2623 -34 
Q 2366 -91 2075 -91 
Q 1284 -91 818 406 
Q 353 903 353 1747 
Q 353 2603 823 3093 
Q 1294 3584 2113 3584 
Q 2378 3584 2631 3529 
Q 2884 3475 3122 3366 
z
" transform="scale(0.015625)"/>
       <path id="DejaVuSans-73" d="M 2834 3397 
L 2834 2853 
Q 2591 2978 2328 3040 
Q 2066 3103 1784 3103 
Q 1356 3103 1142 2972 
Q 928 2841 928 2578 
Q 928 2378 1081 2264 
Q 1234 2150 1697 2047 
L 1894 2003 
Q 2506 1872 2764 1633 
Q 3022 1394 3022 966 
Q 3022 478 2636 193 
Q 2250 -91 1575 -91 
Q 1294 -91 989 -36 
Q 684 19 347 128 
L 347 722 
Q 666 556 975 473 
Q 1284 391 1588 391 
Q 1994 391 2212 530 
Q 2431 669 2431 922 
Q 2431 1156 2273 1281 
Q 2116 1406 1581 1522 
L 1381 1569 
Q 847 1681 609 1914 
Q 372 2147 372 2553 
Q 372 3047 722 3315 
Q 1072 3584 1716 3584 
Q 2034 3584 2315 3537 
Q 2597 3491 2834 3397 
z
" transform="scale(0.015625)"/>
       <path id="DejaVuSans-69" d="M 603 3500 
L 1178 3500 
L 1178 0 
L 603 0 
L 603 3500 
z
M 603 4863 
L 1178 4863 
L 1178 4134 
L 603 4134 
L 603 4863 
z
" transform="scale(0.015625)"/>
       <path id="DejaVuSans-61" d="M 2194 1759 
Q 1497 1759 1228 1600 
Q 959 1441 959 1056 
Q 959 750 1161 570 
Q 1363 391 1709 391 
Q 2188 391 2477 730 
Q 2766 1069 2766 1631 
L 2766 1759 
L 2194 1759 
z
M 3341 1997 
L 3341 0 
L 2766 0 
L 2766 531 
Q 2569 213 2275 61 
Q 1981 -91 1556 -91 
Q 1019 -91 701 211 
Q 384 513 384 1019 
Q 384 1609 779 1909 
Q 1175 2209 1959 2209 
L 2766 2209 
L 2766 2266 
Q 2766 2663 2505 2880 
Q 2244 3097 1772 3097 
Q 1472 3097 1187 3025 
Q 903 2953 641 2809 
L 641 3341 
Q 956 3463 1253 3523 
Q 1550 3584 1831 3584 
Q 2591 3584 2966 3190 
Q 3341 2797 3341 1997 
z
" transform="scale(0.015625)"/>
       <path id="DejaVuSans-6c" d="M 603 4863 
L 1178 4863 
L 1178 0 
L 603 0 
L 603 4863 
z
" transform="scale(0.015625)"/>
      </defs>
      <use xlink:href="#DejaVuSans-41"/>
      <use xlink:href="#DejaVuSans-6d" transform="translate(68.408203 0)"/>
      <use xlink:href="#DejaVuSans-6f" transform="translate(165.820312 0)"/>
      <use xlink:href="#DejaVuSans-75" transform="translate(227.001953 0)"/>
      <use xlink:href="#DejaVuSans-6e" transform="translate(290.380859 0)"/>
      <use xlink:href="#DejaVuSans-74" transform="translate(353.759766 0)"/>
      <use xlink:href="#DejaVuSans-20" transform="translate(392.96875 0)"/>
      <use xlink:href="#DejaVuSans-6f" transform="translate(424.755859 0)"/>
      <use xlink:href="#DejaVuSans-66" transform="translate(485.9375 0)"/>
      <use xlink:href="#DejaVuSans-20" transform="translate(521.142578 0)"/>
      <use xlink:href="#DejaVuSans-6f" transform="translate(552.929688 0)"/>
      <use xlink:href="#DejaVuSans-62" transform="translate(614.111328 0)"/>
      <use xlink:href="#DejaVuSans-6a" transform="translate(677.587891 0)"/>
      <use xlink:href="#DejaVuSans-65" transform="translate(705.371094 0)"/>
      <use xlink:href="#DejaVuSans-63" transform="translate(766.894531 0)"/>
      <use xlink:href="#DejaVuSans-74" transform="translate(821.875 0)"/>
      <use xlink:href="#DejaVuSans-73" transform="translate(861.083984 0)"/>
      <use xlink:href="#DejaVuSans-20" transform="translate(913.183594 0)"/>
      <use xlink:href="#DejaVuSans-69" transform="translate(944.970703 0)"/>
      <use xlink:href="#DejaVuSans-6e" transform="translate(972.753906 0)"/>
      <use xlink:href="#DejaVuSans-20" transform="translate(1036.132812 0)"/>
      <use xlink:href="#DejaVuSans-74" transform="translate(1067.919922 0)"/>
      <use xlink:href="#DejaVuSans-61" transform="translate(1107.128906 0)"/>
      <use xlink:href="#DejaVuSans-62" transform="translate(1168.408203 0)"/>
      <use xlink:href="#DejaVuSans-6c" transform="translate(1231.884766 0)"/>
      <use xlink:href="#DejaVuSans-65" transform="translate(1259.667969 0)"/>
     </g>
    </g>
   </g>
   <g id="matplotlib.axis_2">
    <g id="ytick_1">
     <g id="line2d_10">
      <defs>
       <path id="m97b1f83ca1" d="M 0 0 
L -3.5 0 
" style="stroke: #000000; stroke-width: 0.8"/>
      </defs>
      <g>
       <use xlink:href="#m97b1f83ca1" x="61.909375" y="288.430125" style="stroke: #000000; stroke-width: 0.8"/>
      </g>
     </g>
     <g id="text_11">
      <!-- 0 -->
      <g transform="translate(48.546875 292.229344) scale(0.1 -0.1)">
       <use xlink:href="#DejaVuSans-30"/>
      </g>
     </g>
    </g>
    <g id="ytick_2">
     <g id="line2d_11">
      <g>
       <use xlink:href="#m97b1f83ca1" x="61.909375" y="248.002523" style="stroke: #000000; stroke-width: 0.8"/>
      </g>
     </g>
     <g id="text_12">
      <!-- 200 µs -->
      <g transform="translate(21.071875 251.801742) scale(0.1 -0.1)">
       <defs>
        <path id="DejaVuSans-b5" d="M 544 -1331 
L 544 3500 
L 1119 3500 
L 1119 1325 
Q 1119 872 1334 640 
Q 1550 409 1972 409 
Q 2434 409 2667 671 
Q 2900 934 2900 1459 
L 2900 3500 
L 3475 3500 
L 3475 806 
Q 3475 619 3529 530 
Q 3584 441 3700 441 
Q 3728 441 3778 458 
Q 3828 475 3916 513 
L 3916 50 
Q 3788 -22 3673 -56 
Q 3559 -91 3450 -91 
Q 3234 -91 3106 31 
Q 2978 153 2931 403 
Q 2775 156 2548 32 
Q 2322 -91 2016 -91 
Q 1697 -91 1473 31 
Q 1250 153 1119 397 
L 1119 -1331 
L 544 -1331 
z
" transform="scale(0.015625)"/>
       </defs>
       <use xlink:href="#DejaVuSans-32"/>
       <use xlink:href="#DejaVuSans-30" transform="translate(63.623047 0)"/>
       <use xlink:href="#DejaVuSans-30" transform="translate(127.246094 0)"/>
       <use xlink:href="#DejaVuSans-20" transform="translate(190.869141 0)"/>
       <use xlink:href="#DejaVuSans-b5" transform="translate(222.65625 0)"/>
       <use xlink:href="#DejaVuSans-73" transform="translate(286.279297 0)"/>
      </g>
     </g>
    </g>
    <g id="ytick_3">
     <g id="line2d_12">
      <g>
       <use xlink:href="#m97b1f83ca1" x="61.909375" y="207.574921" style="stroke: #000000; stroke-width: 0.8"/>
      </g>
     </g>
     <g id="text_13">
      <!-- 400 µs -->
      <g transform="translate(21.071875 211.37414) scale(0.1 -0.1)">
       <use xlink:href="#DejaVuSans-34"/>
       <use xlink:href="#DejaVuSans-30" transform="translate(63.623047 0)"/>
       <use xlink:href="#DejaVuSans-30" transform="translate(127.246094 0)"/>
       <use xlink:href="#DejaVuSans-20" transform="translate(190.869141 0)"/>
       <use xlink:href="#DejaVuSans-b5" transform="translate(222.65625 0)"/>
       <use xlink:href="#DejaVuSans-73" transform="translate(286.279297 0)"/>
      </g>
     </g>
    </g>
    <g id="ytick_4">
     <g id="line2d_13">
      <g>
       <use xlink:href="#m97b1f83ca1" x="61.909375" y="167.147319" style="stroke: #000000; stroke-width: 0.8"/>
      </g>
     </g>
     <g id="text_14">
      <!-- 600 µs -->
      <g transform="translate(21.071875 170.946538) scale(0.1 -0.1)">
       <defs>
        <path id="DejaVuSans-36" d="M 2113 2584 
Q 1688 2584 1439 2293 
Q 1191 2003 1191 1497 
Q 1191 994 1439 701 
Q 1688 409 2113 409 
Q 2538 409 2786 701 
Q 3034 994 3034 1497 
Q 3034 2003 2786 2293 
Q 2538 2584 2113 2584 
z
M 3366 4563 
L 3366 3988 
Q 3128 4100 2886 4159 
Q 2644 4219 2406 4219 
Q 1781 4219 1451 3797 
Q 1122 3375 1075 2522 
Q 1259 2794 1537 2939 
Q 1816 3084 2150 3084 
Q 2853 3084 3261 2657 
Q 3669 2231 3669 1497 
Q 3669 778 3244 343 
Q 2819 -91 2113 -91 
Q 1303 -91 875 529 
Q 447 1150 447 2328 
Q 447 3434 972 4092 
Q 1497 4750 2381 4750 
Q 2619 4750 2861 4703 
Q 3103 4656 3366 4563 
z
" transform="scale(0.015625)"/>
       </defs>
       <use xlink:href="#DejaVuSans-36"/>
       <use xlink:href="#DejaVuSans-30" transform="translate(63.623047 0)"/>
       <use xlink:href="#DejaVuSans-30" transform="translate(127.246094 0)"/>
       <use xlink:href="#DejaVuSans-20" transform="translate(190.869141 0)"/>
       <use xlink:href="#DejaVuSans-b5" transform="translate(222.65625 0)"/>
       <use xlink:href="#DejaVuSans-73" transform="translate(286.279297 0)"/>
      </g>
     </g>
    </g>
    <g id="ytick_5">
     <g id="line2d_14">
      <g>
       <use xlink:href="#m97b1f83ca1" x="61.909375" y="126.719717" style="stroke: #000000; stroke-width: 0.8"/>
      </g>
     </g>
     <g id="text_15">
      <!-- 800 µs -->
      <g transform="translate(21.071875 130.518935) scale(0.1 -0.1)">
       <defs>
        <path id="DejaVuSans-38" d="M 2034 2216 
Q 1584 2216 1326 1975 
Q 1069 1734 1069 1313 
Q 1069 891 1326 650 
Q 1584 409 2034 409 
Q 2484 409 2743 651 
Q 3003 894 3003 1313 
Q 3003 1734 2745 1975 
Q 2488 2216 2034 2216 
z
M 1403 2484 
Q 997 2584 770 2862 
Q 544 3141 544 3541 
Q 544 4100 942 4425 
Q 1341 4750 2034 4750 
Q 2731 4750 3128 4425 
Q 3525 4100 3525 3541 
Q 3525 3141 3298 2862 
Q 3072 2584 2669 2484 
Q 3125 2378 3379 2068 
Q 3634 1759 3634 1313 
Q 3634 634 3220 271 
Q 2806 -91 2034 -91 
Q 1263 -91 848 271 
Q 434 634 434 1313 
Q 434 1759 690 2068 
Q 947 2378 1403 2484 
z
M 1172 3481 
Q 1172 3119 1398 2916 
Q 1625 2713 2034 2713 
Q 2441 2713 2670 2916 
Q 2900 3119 2900 3481 
Q 2900 3844 2670 4047 
Q 2441 4250 2034 4250 
Q 1625 4250 1398 4047 
Q 1172 3844 1172 3481 
z
" transform="scale(0.015625)"/>
       </defs>
       <use xlink:href="#DejaVuSans-38"/>
       <use xlink:href="#DejaVuSans-30" transform="translate(63.623047 0)"/>
       <use xlink:href="#DejaVuSans-30" transform="translate(127.246094 0)"/>
       <use xlink:href="#DejaVuSans-20" transform="translate(190.869141 0)"/>
       <use xlink:href="#DejaVuSans-b5" transform="translate(222.65625 0)"/>
       <use xlink:href="#DejaVuSans-73" transform="translate(286.279297 0)"/>
      </g>
     </g>
    </g>
    <g id="ytick_6">
     <g id="line2d_15">
      <g>
       <use xlink:href="#m97b1f83ca1" x="61.909375" y="86.292115" style="stroke: #000000; stroke-width: 0.8"/>
      </g>
     </g>
     <g id="text_16">
      <!-- 1 ms -->
      <g transform="translate(30.41875 90.091333) scale(0.1 -0.1)">
       <use xlink:href="#DejaVuSans-31"/>
       <use xlink:href="#DejaVuSans-20" transform="translate(63.623047 0)"/>
       <use xlink:href="#DejaVuSans-6d" transform="translate(95.410156 0)"/>
       <use xlink:href="#DejaVuSans-73" transform="translate(192.822266 0)"/>
      </g>
     </g>
    </g>
    <g id="ytick_7">
     <g id="line2d_16">
      <g>
       <use xlink:href="#m97b1f83ca1" x="61.909375" y="45.864513" style="stroke: #000000; stroke-width: 0.8"/>
      </g>
     </g>
     <g id="text_17">
      <!-- 1.2 ms -->
      <g transform="translate(20.878125 49.663731) scale(0.1 -0.1)">
       <use xlink:href="#DejaVuSans-31"/>
       <use xlink:href="#DejaVuSans-2e" transform="translate(63.623047 0)"/>
       <use xlink:href="#DejaVuSans-32" transform="translate(95.410156 0)"/>
       <use xlink:href="#DejaVuSans-20" transform="translate(159.033203 0)"/>
       <use xlink:href="#DejaVuSans-6d" transform="translate(190.820312 0)"/>
       <use xlink:href="#DejaVuSans-73" transform="translate(288.232422 0)"/>
      </g>
     </g>
    </g>
    <g id="text_18">
     <!-- Read latency (s) -->
     <g transform="translate(14.798438 195.98975) rotate(-90) scale(0.1 -0.1)">
      <defs>
       <path id="DejaVuSans-52" d="M 2841 2188 
Q 3044 2119 3236 1894 
Q 3428 1669 3622 1275 
L 4263 0 
L 3584 0 
L 2988 1197 
Q 2756 1666 2539 1819 
Q 2322 1972 1947 1972 
L 1259 1972 
L 1259 0 
L 628 0 
L 628 4666 
L 2053 4666 
Q 2853 4666 3247 4331 
Q 3641 3997 3641 3322 
Q 3641 2881 3436 2590 
Q 3231 2300 2841 2188 
z
M 1259 4147 
L 1259 2491 
L 2053 2491 
Q 2509 2491 2742 2702 
Q 2975 2913 2975 3322 
Q 2975 3731 2742 3939 
Q 2509 4147 2053 4147 
L 1259 4147 
z
" transform="scale(0.015625)"/>
       <path id="DejaVuSans-64" d="M 2906 2969 
L 2906 4863 
L 3481 4863 
L 3481 0 
L 2906 0 
L 2906 525 
Q 2725 213 2448 61 
Q 2172 -91 1784 -91 
Q 1150 -91 751 415 
Q 353 922 353 1747 
Q 353 2572 751 3078 
Q 1150 3584 1784 3584 
Q 2172 3584 2448 3432 
Q 2725 3281 2906 2969 
z
M 947 1747 
Q 947 1113 1208 752 
Q 1469 391 1925 391 
Q 2381 391 2643 752 
Q 2906 1113 2906 1747 
Q 2906 2381 2643 2742 
Q 2381 3103 1925 3103 
Q 1469 3103 1208 2742 
Q 947 2381 947 1747 
z
" transform="scale(0.015625)"/>
       <path id="DejaVuSans-79" d="M 2059 -325 
Q 1816 -950 1584 -1140 
Q 1353 -1331 966 -1331 
L 506 -1331 
L 506 -850 
L 844 -850 
Q 1081 -850 1212 -737 
Q 1344 -625 1503 -206 
L 1606 56 
L 191 3500 
L 800 3500 
L 1894 763 
L 2988 3500 
L 3597 3500 
L 2059 -325 
z
" transform="scale(0.015625)"/>
       <path id="DejaVuSans-28" d="M 1984 4856 
Q 1566 4138 1362 3434 
Q 1159 2731 1159 2009 
Q 1159 1288 1364 580 
Q 1569 -128 1984 -844 
L 1484 -844 
Q 1016 -109 783 600 
Q 550 1309 550 2009 
Q 550 2706 781 3412 
Q 1013 4119 1484 4856 
L 1984 4856 
z
" transform="scale(0.015625)"/>
       <path id="DejaVuSans-29" d="M 513 4856 
L 1013 4856 
Q 1481 4119 1714 3412 
Q 1947 2706 1947 2009 
Q 1947 1309 1714 600 
Q 1481 -109 1013 -844 
L 513 -844 
Q 928 -128 1133 580 
Q 1338 1288 1338 2009 
Q 1338 2731 1133 3434 
Q 928 4138 513 4856 
z
" transform="scale(0.015625)"/>
      </defs>
      <use xlink:href="#DejaVuSans-52"/>
      <use xlink:href="#DejaVuSans-65" transform="translate(64.982422 0)"/>
      <use xlink:href="#DejaVuSans-61" transform="translate(126.505859 0)"/>
      <use xlink:href="#DejaVuSans-64" transform="translate(187.785156 0)"/>
      <use xlink:href="#DejaVuSans-20" transform="translate(251.261719 0)"/>
      <use xlink:href="#DejaVuSans-6c" transform="translate(283.048828 0)"/>
      <use xlink:href="#DejaVuSans-61" transform="translate(310.832031 0)"/>
      <use xlink:href="#DejaVuSans-74" transform="translate(372.111328 0)"/>
      <use xlink:href="#DejaVuSans-65" transform="translate(411.320312 0)"/>
      <use xlink:href="#DejaVuSans-6e" transform="translate(472.84375 0)"/>
      <use xlink:href="#DejaVuSans-63" transform="translate(536.222656 0)"/>
      <use xlink:href="#DejaVuSans-79" transform="translate(591.203125 0)"/>
      <use xlink:href="#DejaVuSans-20" transform="translate(650.382812 0)"/>
      <use xlink:href="#DejaVuSans-28" transform="translate(682.169922 0)"/>
      <use xlink:href="#DejaVuSans-73" transform="translate(721.183594 0)"/>
      <use xlink:href="#DejaVuSans-29" transform="translate(773.283203 0)"/>
     </g>
    </g>
   </g>
   <g id="line2d_17">
    <path d="M 147.264561 287.878742 
L 280.958652 287.30487 
L 312.313619 287.247779 
L 319.716875 287.249015 
L 327.991102 287.2243 
L 345.410527 287.204775 
L 390.701034 287.249756 
L 402.023661 287.266809 
L 402.023661 287.266809 
" clip-path="url(#pc21c3d512e)" style="fill: none; stroke: #1f77b4; stroke-opacity: 0.8; stroke-width: 1.5; stroke-linecap: square"/>
   </g>
   <g id="line2d_18">
    <path d="M 147.264561 184.731398 
L 148.135532 184.766987 
L 148.571018 184.519841 
L 149.006503 184.755371 
L 149.441989 184.727444 
L 150.31296 183.793479 
L 151.619417 183.241602 
L 152.054903 183.217629 
L 152.925874 183.42622 
L 153.36136 183.271754 
L 153.796845 184.025055 
L 154.232331 183.518159 
L 154.667817 183.425726 
L 155.103302 182.503872 
L 155.974273 182.500165 
L 156.845245 182.542674 
L 158.587187 181.765894 
L 159.022673 181.720419 
L 160.32913 181.190044 
L 160.764616 180.452808 
L 161.635587 180.232353 
L 162.506558 179.957527 
L 162.942044 179.789221 
L 163.377529 179.768461 
L 163.813015 179.550231 
L 164.248501 179.542816 
L 164.683986 178.924457 
L 165.119472 178.826587 
L 165.554958 178.190187 
L 166.425929 177.793517 
L 167.2969 176.709535 
L 167.732386 176.811854 
L 168.167871 176.75328 
L 169.909814 177.279948 
L 170.780785 177.089399 
L 171.216271 176.475982 
L 172.087242 176.365261 
L 172.522728 177.356563 
L 173.393699 177.194436 
L 174.26467 177.170463 
L 174.700156 176.023211 
L 175.571127 175.958706 
L 176.442099 175.94363 
L 176.877584 176.056329 
L 177.31307 175.624565 
L 178.619527 175.419434 
L 179.925984 175.047479 
L 180.361469 175.2751 
L 181.667926 174.975807 
L 182.103412 174.997555 
L 182.538898 175.150539 
L 185.587297 174.252905 
L 186.022783 173.422742 
L 187.32924 173.51295 
L 187.764725 173.2878 
L 188.200211 172.487541 
L 189.506668 172.392637 
L 191.24861 171.881292 
L 191.684096 171.790837 
L 192.119582 171.470536 
L 193.426039 171.531334 
L 193.861524 171.60177 
L 194.29701 171.036795 
L 194.732496 171.006396 
L 196.038952 170.542256 
L 198.216381 170.384824 
L 198.651866 169.967889 
L 199.522838 168.770219 
L 201.26478 169.457285 
L 201.700266 170.857367 
L 202.135751 171.546904 
L 202.571237 171.029133 
L 203.442208 171.11341 
L 203.877694 171.042973 
L 204.31318 171.14801 
L 204.748665 170.975008 
L 206.055122 170.842785 
L 206.926093 170.619365 
L 207.361579 170.656437 
L 207.797065 170.060815 
L 208.23255 170.56697 
L 209.103522 169.380176 
L 209.539007 168.825333 
L 211.28095 168.518872 
L 211.716436 168.546799 
L 212.151921 167.801407 
L 212.587407 167.641998 
L 213.022892 167.870361 
L 213.458378 167.116072 
L 213.893864 166.934914 
L 214.329349 166.995464 
L 214.764835 167.182801 
L 215.200321 166.533796 
L 216.506778 166.370927 
L 216.942263 165.972775 
L 217.377749 165.893688 
L 218.24872 166.115872 
L 218.684206 165.987109 
L 219.119691 166.316307 
L 219.555177 166.457922 
L 219.990663 166.139598 
L 220.861634 166.274293 
L 221.732605 166.230795 
L 222.603577 166.136138 
L 223.039062 165.389263 
L 223.474548 165.23109 
L 223.910033 165.297078 
L 224.345519 165.224911 
L 224.781005 165.302268 
L 225.21649 166.070397 
L 225.651976 166.120321 
L 226.087462 165.467608 
L 226.522947 165.07687 
L 226.958433 165.109494 
L 227.393919 165.021263 
L 228.26489 165.270139 
L 228.700376 165.282249 
L 229.135861 164.901891 
L 230.006832 165.00594 
L 230.442318 163.904657 
L 231.313289 163.616238 
L 231.748775 163.791464 
L 232.184261 163.16841 
L 233.490718 163.134056 
L 234.361689 161.826901 
L 235.23266 162.526819 
L 235.668146 162.468987 
L 236.539117 162.810542 
L 236.974603 162.293266 
L 237.845574 162.121994 
L 238.716545 161.863479 
L 239.152031 161.49795 
L 239.587517 161.489547 
L 240.023002 162.339235 
L 240.458488 162.350851 
L 240.893974 161.153182 
L 241.329459 161.062479 
L 241.764945 160.41817 
L 242.20043 160.344767 
L 242.635916 159.879639 
L 243.071402 159.203942 
L 244.377859 158.999799 
L 244.813344 159.271165 
L 245.24883 159.221983 
L 245.684316 159.902129 
L 246.119801 159.966634 
L 246.555287 159.74272 
L 247.426258 159.801788 
L 248.297229 159.837377 
L 249.168201 159.949087 
L 249.603686 160.486876 
L 250.039172 160.6537 
L 250.474658 161.429738 
L 250.910143 161.470023 
L 251.345629 161.259702 
L 251.781115 161.880779 
L 252.2166 162.235434 
L 253.087571 162.012508 
L 253.523057 162.015721 
L 254.394028 161.893631 
L 254.829514 161.853099 
L 255.265 161.940836 
L 255.700485 161.146014 
L 256.135971 161.655382 
L 256.571457 161.513026 
L 257.006942 161.108448 
L 257.442428 161.130939 
L 257.877914 161.292572 
L 258.748885 161.166033 
L 259.18437 160.211308 
L 259.619856 160.966834 
L 260.055342 160.268399 
L 260.490827 160.091196 
L 260.926313 159.288713 
L 261.361799 159.303789 
L 261.797284 158.25935 
L 262.23277 156.104732 
L 262.668256 156.064941 
L 263.103741 156.166765 
L 263.974712 156.122032 
L 265.716655 155.952984 
L 266.152141 155.499966 
L 266.587626 155.452019 
L 267.023112 155.271108 
L 267.458598 154.757539 
L 268.329569 154.689821 
L 268.765055 153.862129 
L 269.20054 153.92268 
L 270.071511 152.348608 
L 270.506997 151.221128 
L 270.942483 151.936863 
L 271.377968 151.904239 
L 271.813454 151.412419 
L 272.684425 151.375841 
L 273.119911 152.096766 
L 273.555397 151.812548 
L 273.990882 151.020693 
L 274.426368 148.979514 
L 274.861854 148.374995 
L 275.732825 148.349292 
L 276.16831 148.140207 
L 276.603796 147.715116 
L 277.039282 147.848575 
L 277.474767 147.198334 
L 278.345739 144.196499 
L 278.781224 143.749659 
L 279.21671 141.349378 
L 279.652196 140.987803 
L 281.829624 141.359511 
L 282.700595 141.398313 
L 283.136081 141.508787 
L 284.007052 142.503055 
L 284.442538 142.399501 
L 285.313509 141.829335 
L 285.748995 141.756674 
L 286.18448 141.518179 
L 287.055451 138.678966 
L 287.490937 138.216556 
L 287.926423 137.336222 
L 288.361908 137.202269 
L 288.797394 137.191889 
L 289.23288 136.425737 
L 289.668365 136.49296 
L 290.103851 135.873613 
L 290.539337 134.953241 
L 290.974822 134.975484 
L 291.410308 134.61045 
L 291.845794 134.580792 
L 292.281279 133.852947 
L 292.716765 133.986653 
L 293.15225 133.794868 
L 294.023222 133.773861 
L 294.458707 134.302506 
L 295.765164 132.157279 
L 296.20065 130.730011 
L 296.636136 130.238438 
L 297.071621 130.951454 
L 297.507107 131.087632 
L 297.942592 131.018925 
L 298.378078 131.807815 
L 298.813564 131.928916 
L 299.684535 130.427505 
L 300.120021 131.040921 
L 300.555506 130.371155 
L 300.990992 130.444805 
L 301.426478 130.053326 
L 301.861963 130.602978 
L 302.732935 128.662141 
L 303.16842 128.411783 
L 303.603906 126.625412 
L 305.345848 123.627779 
L 306.21682 123.988859 
L 306.652305 123.854659 
L 307.087791 123.347021 
L 307.523277 123.023754 
L 307.958762 123.119399 
L 308.394248 123.095921 
L 308.829734 122.7383 
L 309.265219 122.076938 
L 309.700705 121.866864 
L 310.13619 121.129628 
L 310.571676 120.77176 
L 311.007162 120.67043 
L 311.442647 120.845904 
L 311.878133 121.398522 
L 313.18459 119.244646 
L 314.055561 117.552684 
L 314.491047 117.41972 
L 314.926532 116.637503 
L 315.362018 117.803785 
L 315.797504 117.889792 
L 316.232989 117.862111 
L 316.668475 118.026958 
L 317.103961 118.338609 
L 317.539446 117.960722 
L 317.974932 116.153344 
L 318.410418 116.140987 
L 318.845903 116.826817 
L 319.716875 117.267972 
L 320.15236 116.109599 
L 320.587846 116.18745 
L 321.023331 116.151614 
L 321.458817 114.899326 
L 321.894303 114.671951 
L 322.329788 114.006882 
L 322.765274 113.990323 
L 323.20076 114.205587 
L 323.636245 114.089428 
L 324.071731 115.010541 
L 324.942702 115.151415 
L 325.378188 114.464843 
L 325.813674 114.464102 
L 326.249159 114.048402 
L 327.12013 114.393665 
L 327.991102 115.611106 
L 328.426587 115.81772 
L 328.862073 115.13016 
L 329.297559 115.179589 
L 329.733044 113.493312 
L 330.16853 112.633245 
L 330.604016 111.302117 
L 331.474987 110.093079 
L 331.910472 109.448275 
L 332.345958 109.245862 
L 332.781444 109.279474 
L 333.216929 108.522961 
L 334.523386 108.57412 
L 334.958872 108.38703 
L 335.394358 108.379616 
L 335.829843 107.817112 
L 336.265329 108.013099 
L 336.700815 107.572684 
L 337.571786 107.447629 
L 338.007271 106.946911 
L 338.878243 104.437638 
L 339.749214 102.150056 
L 340.1847 101.565803 
L 340.620185 102.466897 
L 341.055671 102.467638 
L 341.491157 102.660165 
L 342.797614 102.131025 
L 343.668585 101.095484 
L 344.10407 101.958023 
L 344.539556 101.730402 
L 344.975042 102.221481 
L 345.410527 102.25361 
L 345.846013 102.85714 
L 346.716984 101.600403 
L 347.15247 103.602779 
L 347.587956 102.497296 
L 348.023441 100.54509 
L 348.458927 100.54682 
L 348.894412 100.032756 
L 349.765384 100.202051 
L 350.200869 99.549339 
L 350.636355 99.594567 
L 351.071841 100.058212 
L 351.507326 100.08787 
L 351.942812 99.650174 
L 352.378298 99.401298 
L 352.813783 99.476925 
L 353.249269 98.727826 
L 353.684755 99.055294 
L 354.555726 99.119305 
L 354.991211 99.806123 
L 355.426697 100.188705 
L 356.297668 97.671524 
L 356.733154 97.587247 
L 357.604125 95.631829 
L 358.039611 95.586354 
L 358.475097 95.868347 
L 358.910582 95.914316 
L 359.346068 97.846009 
L 359.781554 98.501193 
L 360.217039 98.619082 
L 360.652525 98.371194 
L 361.08801 97.955989 
L 361.523496 97.742949 
L 361.958982 97.83983 
L 362.394467 98.223648 
L 362.829953 99.177631 
L 363.265439 100.440794 
L 363.700924 100.229979 
L 364.13641 102.432296 
L 365.007381 100.664214 
L 365.878353 98.763662 
L 366.313838 97.916693 
L 367.184809 97.84329 
L 367.620295 97.227897 
L 368.055781 96.122908 
L 368.491266 95.776656 
L 368.926752 95.784318 
L 369.362238 96.514634 
L 370.233209 96.872501 
L 370.668695 96.689366 
L 371.10418 96.297887 
L 371.539666 96.589766 
L 371.975151 97.794356 
L 372.846123 97.637912 
L 373.281608 95.722778 
L 373.717094 94.784118 
L 374.15258 95.161263 
L 374.588065 95.233429 
L 375.023551 95.743539 
L 375.459037 96.757084 
L 375.894522 96.750905 
L 376.330008 97.262745 
L 376.765494 97.333181 
L 377.200979 97.955248 
L 378.507436 98.813833 
L 378.942922 99.302687 
L 379.378407 99.369417 
L 379.813893 100.033251 
L 380.249379 100.012737 
L 381.12035 99.267592 
L 381.555836 99.220635 
L 381.991321 98.421118 
L 382.426807 97.370995 
L 382.862293 96.731628 
L 383.297778 95.846846 
L 383.733264 94.459121 
L 384.168749 94.606173 
L 384.604235 95.117271 
L 385.039721 95.223049 
L 385.475206 95.845116 
L 385.910692 95.201795 
L 386.346178 95.532476 
L 386.781663 95.689908 
L 387.217149 96.759061 
L 388.08812 97.087271 
L 388.523606 98.872159 
L 388.959091 99.396356 
L 389.394577 99.318257 
L 389.830063 97.546715 
L 390.265548 97.993555 
L 390.701034 96.783034 
L 392.007491 94.67834 
L 392.442977 94.364711 
L 392.878462 94.301442 
L 393.313948 94.471726 
L 393.749434 94.936113 
L 394.184919 95.703254 
L 394.620405 95.916046 
L 395.05589 96.54355 
L 395.491376 96.727427 
L 395.926862 97.19651 
L 396.362347 96.457296 
L 396.797833 96.129828 
L 397.233319 96.819118 
L 397.668804 96.717294 
L 398.10429 97.130522 
L 398.975261 98.486117 
L 399.410747 97.697969 
L 399.846233 98.452258 
L 400.717204 98.27975 
L 401.588175 98.251823 
L 402.023661 98.650963 
L 402.023661 98.650963 
" clip-path="url(#pc21c3d512e)" style="fill: none; stroke: #ff7f0e; stroke-opacity: 0.8; stroke-width: 1.5; stroke-linecap: square"/>
   </g>
   <g id="line2d_19">
    <path d="M 147.264561 62.34053 
L 147.700046 62.026407 
L 148.135532 61.900857 
L 148.571018 61.370235 
L 149.006503 61.23381 
L 149.877475 60.850734 
L 150.31296 61.167575 
L 150.748446 61.07193 
L 151.619417 60.579121 
L 152.054903 60.024278 
L 153.796845 59.24132 
L 154.232331 59.519853 
L 154.667817 59.402706 
L 155.103302 59.747722 
L 155.538788 59.475367 
L 155.974273 59.337954 
L 156.409759 58.929669 
L 156.845245 58.905943 
L 157.28073 58.433647 
L 158.151702 58.240873 
L 158.587187 58.320454 
L 159.458159 57.453466 
L 159.893644 57.345711 
L 160.764616 55.956009 
L 161.635587 56.013347 
L 162.506558 55.245711 
L 162.942044 55.243487 
L 163.377529 55.002767 
L 164.248501 54.11749 
L 164.683986 53.452668 
L 165.119472 53.61529 
L 165.990443 54.255892 
L 166.425929 54.187927 
L 166.861415 54.445206 
L 167.2969 54.368343 
L 167.732386 53.946218 
L 168.167871 53.929165 
L 168.603357 54.478323 
L 169.038843 53.93831 
L 170.780785 55.582077 
L 171.216271 55.758045 
L 172.087242 54.348572 
L 172.522728 54.417278 
L 172.958213 53.988974 
L 173.393699 54.116255 
L 173.829185 54.524045 
L 174.26467 54.440263 
L 175.571127 54.670109 
L 176.006613 54.539368 
L 176.442099 54.898224 
L 176.877584 55.408334 
L 177.31307 55.205921 
L 177.748556 55.408086 
L 178.184041 55.098907 
L 178.619527 55.586526 
L 179.055012 55.197271 
L 179.490498 55.155998 
L 179.925984 54.77564 
L 180.796955 54.831495 
L 181.232441 55.227176 
L 181.667926 54.875487 
L 182.103412 54.307051 
L 182.538898 54.508969 
L 182.974383 54.477582 
L 183.409869 54.294941 
L 183.845355 54.523304 
L 184.28084 54.417278 
L 184.716326 53.862436 
L 185.151811 53.76679 
L 185.587297 54.28209 
L 186.022783 53.742817 
L 186.458268 54.151349 
L 186.893754 54.073498 
L 187.32924 54.314466 
L 188.200211 54.155798 
L 188.635697 53.83006 
L 189.071182 53.962283 
L 189.506668 53.85947 
L 189.942153 53.3763 
L 190.813125 53.285844 
L 191.24861 52.233003 
L 191.684096 52.547619 
L 192.119582 52.264143 
L 192.555067 52.133403 
L 192.990553 51.667038 
L 193.426039 51.719928 
L 193.861524 51.391471 
L 194.29701 51.303734 
L 195.167981 52.991493 
L 195.603467 53.425482 
L 196.038952 54.135038 
L 196.474438 54.564083 
L 196.909924 54.712865 
L 197.780895 55.714053 
L 198.651866 56.88157 
L 199.522838 57.035542 
L 201.700266 59.664681 
L 202.135751 59.655784 
L 202.571237 60.328268 
L 203.442208 60.691325 
L 203.877694 60.406613 
L 204.31318 59.984241 
L 204.748665 60.202223 
L 205.184151 60.086559 
L 205.619637 60.400434 
L 206.055122 60.194067 
L 206.490608 60.480015 
L 207.361579 60.199257 
L 207.797065 59.173849 
L 208.23255 58.837236 
L 208.668036 58.888643 
L 209.103522 62.732998 
L 209.539007 62.772047 
L 209.974493 62.192984 
L 210.845464 62.568893 
L 211.28095 62.937634 
L 211.716436 62.58125 
L 212.151921 62.791077 
L 212.587407 62.478437 
L 213.022892 62.479426 
L 213.458378 62.292089 
L 214.329349 61.453276 
L 214.764835 61.251852 
L 215.635806 61.236282 
L 216.071292 60.751381 
L 216.506778 60.700469 
L 217.813235 60.945391 
L 218.24872 60.682922 
L 218.684206 60.596421 
L 219.555177 59.92196 
L 220.861634 58.843168 
L 221.29712 59.346357 
L 221.732605 59.541849 
L 222.603577 59.406908 
L 223.039062 58.596269 
L 223.474548 58.769765 
L 223.910033 58.351842 
L 224.781005 58.749747 
L 225.21649 59.118983 
L 225.651976 58.504578 
L 226.087462 58.372602 
L 226.522947 58.55203 
L 226.958433 58.471955 
L 227.829404 58.989478 
L 228.26489 59.059668 
L 229.135861 58.222584 
L 229.571347 58.051806 
L 230.006832 57.695175 
L 230.442318 57.147005 
L 230.877804 57.213735 
L 231.313289 56.795069 
L 231.748775 56.850677 
L 232.184261 55.757056 
L 233.055232 54.692352 
L 233.926203 55.38436 
L 235.23266 55.451584 
L 235.668146 55.837379 
L 236.103631 55.665612 
L 236.974603 56.444122 
L 237.410088 56.446346 
L 238.28106 56.000495 
L 238.716545 56.001978 
L 239.152031 55.616925 
L 239.587517 54.787503 
L 240.893974 54.556669 
L 241.329459 54.93233 
L 243.071402 55.013889 
L 243.506887 54.951114 
L 244.813344 56.073898 
L 245.684316 57.478428 
L 246.119801 57.56394 
L 246.555287 56.849936 
L 246.990772 57.15788 
L 247.426258 57.856067 
L 247.861744 58.155113 
L 248.297229 56.644557 
L 248.732715 56.658892 
L 249.168201 56.952501 
L 249.603686 57.079287 
L 250.910143 56.812617 
L 251.345629 56.35342 
L 251.781115 56.070685 
L 252.2166 56.316595 
L 252.652086 56.183136 
L 253.087571 55.379665 
L 253.523057 54.977311 
L 253.958543 55.348277 
L 254.394028 55.030447 
L 255.265 55.130789 
L 255.700485 55.150807 
L 256.135971 54.74969 
L 256.571457 55.744699 
L 258.313399 56.113194 
L 259.18437 55.993575 
L 260.055342 56.196235 
L 260.490827 55.900401 
L 261.797284 54.236615 
L 262.23277 54.422963 
L 262.668256 53.182537 
L 263.103741 53.120998 
L 263.539227 52.541688 
L 263.974712 52.539464 
L 264.410198 52.788587 
L 264.845684 52.808853 
L 265.716655 53.538675 
L 266.152141 50.542277 
L 266.587626 51.000239 
L 267.023112 51.092177 
L 267.458598 50.598379 
L 267.894083 50.596649 
L 268.765055 50.197261 
L 269.20054 48.768017 
L 269.636026 48.655812 
L 270.071511 48.756648 
L 270.506997 48.089354 
L 270.942483 48.389389 
L 271.813454 48.411385 
L 272.24894 48.499616 
L 273.119911 49.351528 
L 273.555397 49.643655 
L 274.426368 49.042596 
L 274.861854 49.413809 
L 275.297339 49.171853 
L 275.732825 49.234381 
L 276.16831 49.577172 
L 276.603796 49.118964 
L 277.039282 49.183963 
L 277.474767 48.801134 
L 277.910253 48.730945 
L 278.345739 49.063109 
L 279.21671 49.196815 
L 279.652196 48.32785 
L 280.087681 47.925002 
L 280.958652 47.736429 
L 281.394138 47.282669 
L 282.700595 46.960885 
L 283.136081 46.187813 
L 283.571566 45.799794 
L 284.007052 46.215493 
L 284.442538 46.074373 
L 284.878023 45.326509 
L 285.313509 45.327745 
L 285.748995 44.734842 
L 286.18448 43.85352 
L 286.619966 43.947929 
L 287.055451 44.198041 
L 287.490937 43.779376 
L 287.926423 44.273421 
L 289.23288 45.035866 
L 289.668365 44.951836 
L 290.103851 44.643645 
L 290.974822 44.741268 
L 291.410308 44.277622 
L 292.281279 44.406879 
L 292.716765 44.942939 
L 293.15225 45.099382 
L 293.587736 45.021037 
L 294.023222 45.068242 
L 294.458707 45.301053 
L 294.894193 45.905325 
L 295.329679 45.815117 
L 295.765164 46.067453 
L 296.20065 45.734053 
L 297.071621 45.783977 
L 297.942592 45.723673 
L 298.378078 45.374209 
L 298.813564 45.716011 
L 299.249049 45.624073 
L 299.684535 45.155484 
L 300.120021 44.966418 
L 300.555506 44.956779 
L 300.990992 45.432535 
L 301.426478 45.437478 
L 302.297449 44.602372 
L 302.732935 44.796381 
L 303.16842 44.683189 
L 303.603906 44.377469 
L 304.039391 44.323838 
L 304.910363 45.063052 
L 305.781334 44.915753 
L 306.21682 44.627334 
L 306.652305 44.748435 
L 307.087791 44.450871 
L 307.523277 44.394769 
L 307.958762 45.16364 
L 308.394248 45.255331 
L 308.829734 45.689073 
L 309.265219 45.663864 
L 310.13619 45.897911 
L 310.571676 46.551365 
L 311.007162 46.61414 
L 311.442647 46.128745 
L 311.878133 45.968842 
L 312.313619 45.983423 
L 313.18459 44.77315 
L 313.620076 44.699747 
L 314.055561 44.754861 
L 314.491047 44.430358 
L 314.926532 44.786743 
L 315.797504 45.690308 
L 316.232989 46.166806 
L 316.668475 45.677457 
L 317.539446 46.886742 
L 318.410418 46.826191 
L 318.845903 46.179163 
L 319.281389 46.106749 
L 319.716875 45.520025 
L 320.587846 45.519778 
L 321.023331 44.830488 
L 321.894303 43.996864 
L 322.765274 43.973138 
L 323.636245 43.881694 
L 324.071731 43.935325 
L 324.507217 44.706667 
L 324.942702 44.395264 
L 325.378188 44.746952 
L 325.813674 44.358192 
L 326.249159 43.072538 
L 326.684645 43.195617 
L 327.12013 42.997159 
L 327.555616 43.350083 
L 327.991102 43.304361 
L 328.426587 42.789804 
L 328.862073 41.878329 
L 329.297559 41.527629 
L 329.733044 41.502668 
L 330.16853 41.92677 
L 331.039501 41.052862 
L 331.474987 41.662324 
L 331.910472 41.781201 
L 332.345958 41.777494 
L 332.781444 41.34919 
L 333.216929 43.333772 
L 333.652415 43.644187 
L 334.087901 43.235408 
L 334.958872 43.240351 
L 335.394358 42.987026 
L 335.829843 43.234666 
L 336.265329 43.737114 
L 336.700815 42.994688 
L 337.1363 42.697371 
L 337.571786 42.726781 
L 338.007271 43.8466 
L 338.442757 44.156521 
L 338.878243 43.74873 
L 339.313728 44.153555 
L 340.1847 44.083613 
L 341.055671 44.092757 
L 341.491157 43.595499 
L 341.926642 44.171102 
L 342.362128 43.594511 
L 342.797614 43.989203 
L 343.668585 44.025286 
L 344.539556 44.061617 
L 344.975042 43.885154 
L 345.410527 44.088308 
L 345.846013 43.923956 
L 346.281499 44.336196 
L 346.716984 44.574691 
L 347.15247 44.442468 
L 347.587956 45.199724 
L 348.023441 45.587248 
L 348.458927 45.681411 
L 348.894412 45.62778 
L 349.329898 45.690555 
L 350.200869 45.326262 
L 350.636355 44.79218 
L 351.071841 47.607419 
L 351.507326 47.558731 
L 351.942812 47.698616 
L 352.378298 48.238383 
L 352.813783 47.922036 
L 353.249269 48.21095 
L 353.684755 47.909926 
L 354.12024 49.253658 
L 354.555726 49.466698 
L 354.991211 49.178032 
L 355.426697 49.347079 
L 355.862183 48.894802 
L 356.297668 47.873101 
L 356.733154 48.081692 
L 357.16864 48.064639 
L 358.039611 46.907996 
L 358.475097 46.849176 
L 358.910582 44.916247 
L 359.346068 44.625109 
L 359.781554 44.690109 
L 360.217039 45.073679 
L 360.652525 44.974574 
L 361.08801 45.657438 
L 361.523496 45.675232 
L 361.958982 45.254343 
L 362.829953 45.893709 
L 363.265439 45.015847 
L 363.700924 45.164135 
L 364.13641 44.208174 
L 364.571896 45.006703 
L 365.007381 44.807503 
L 365.878353 43.961522 
L 366.313838 43.245294 
L 366.749324 42.820944 
L 367.184809 42.191216 
L 367.620295 41.766125 
L 368.055781 42.19171 
L 368.926752 42.385473 
L 369.362238 42.134867 
L 369.797723 42.592828 
L 370.233209 42.109905 
L 370.668695 42.369408 
L 371.10418 42.862464 
L 371.539666 42.341975 
L 371.975151 42.543646 
L 372.410637 42.949213 
L 372.846123 42.625452 
L 373.281608 42.090875 
L 374.15258 40.536574 
L 375.023551 41.036056 
L 375.459037 40.666079 
L 375.894522 40.97946 
L 376.765494 41.745118 
L 377.200979 41.760688 
L 378.507436 42.666725 
L 378.942922 43.028299 
L 379.378407 43.16596 
L 379.813893 42.667219 
L 380.249379 42.731477 
L 380.684864 42.239162 
L 381.12035 42.229277 
L 381.555836 42.48186 
L 381.991321 41.285921 
L 382.862293 41.057558 
L 383.297778 41.55531 
L 384.168749 40.834385 
L 384.604235 41.061265 
L 385.039721 40.815602 
L 385.475206 41.325217 
L 385.910692 40.967844 
L 386.346178 40.985885 
L 386.781663 41.437174 
L 387.217149 41.525652 
L 387.652635 41.264419 
L 388.08812 41.707304 
L 388.523606 41.608199 
L 388.959091 42.004621 
L 389.394577 41.260959 
L 389.830063 40.853909 
L 390.265548 41.056816 
L 390.701034 40.701668 
L 391.13652 39.491147 
L 392.007491 39.915496 
L 392.442977 39.100656 
L 392.878462 38.685945 
L 393.749434 38.329314 
L 394.184919 38.341177 
L 394.620405 38.009754 
L 395.491376 37.002387 
L 395.926862 37.359513 
L 396.362347 37.367669 
L 396.797833 37.034269 
L 397.233319 37.07925 
L 397.668804 37.451204 
L 398.10429 37.335293 
L 398.539776 37.864432 
L 399.410747 37.828596 
L 399.846233 36.757466 
L 401.152689 34.990125 
L 402.023661 35.794091 
L 402.023661 35.794091 
" clip-path="url(#pc21c3d512e)" style="fill: none; stroke: #2ca02c; stroke-opacity: 0.8; stroke-width: 1.5; stroke-linecap: square"/>
   </g>
   <g id="line2d_20">
    <path d="M 147.264561 258.328244 
L 149.441989 258.157714 
L 149.877475 258.294138 
L 150.31296 257.520077 
L 151.183931 257.478062 
L 151.619417 257.643897 
L 152.925874 257.585077 
L 153.36136 257.344604 
L 153.796845 257.51464 
L 154.232331 257.479298 
L 154.667817 257.128104 
L 155.538788 257.035177 
L 155.974273 257.247475 
L 157.28073 257.129834 
L 157.716216 256.93187 
L 158.151702 257.073237 
L 158.587187 257.027268 
L 159.022673 257.348064 
L 159.458159 257.342132 
L 159.893644 257.150347 
L 160.764616 257.16048 
L 161.200101 257.514146 
L 161.635587 257.498081 
L 162.071072 256.955843 
L 162.942044 256.805578 
L 163.377529 256.951642 
L 163.813015 256.908144 
L 164.248501 256.62442 
L 165.119472 256.576474 
L 165.554958 256.878734 
L 165.990443 256.883676 
L 166.425929 256.556455 
L 167.732386 256.157315 
L 169.474328 256.140756 
L 169.909814 256.379252 
L 170.3453 256.250736 
L 170.780785 255.90918 
L 171.651757 255.86939 
L 172.087242 255.545628 
L 172.522728 255.441086 
L 172.958213 256.295716 
L 173.829185 256.281382 
L 174.26467 256.605143 
L 174.700156 256.570295 
L 175.571127 256.211192 
L 176.006613 256.199082 
L 176.442099 255.875815 
L 176.877584 255.891633 
L 177.31307 256.104425 
L 178.184041 256.075509 
L 178.619527 256.265565 
L 179.055012 256.27026 
L 179.490498 255.838002 
L 181.232441 256.004331 
L 181.667926 255.681064 
L 182.103412 255.921043 
L 182.538898 255.889161 
L 182.974383 256.146193 
L 183.409869 256.140262 
L 183.845355 255.826633 
L 185.151811 255.781653 
L 185.587297 255.964788 
L 186.022783 255.53945 
L 186.458268 255.522397 
L 186.893754 255.213711 
L 187.32924 255.337779 
L 187.764725 255.327151 
L 188.200211 254.984854 
L 189.071182 254.992516 
L 189.942153 254.820502 
L 190.377639 253.967107 
L 191.24861 253.46639 
L 191.684096 253.235061 
L 192.119582 252.842099 
L 192.555067 251.392094 
L 193.426039 251.140746 
L 193.861524 250.914608 
L 194.29701 250.557729 
L 194.732496 249.929484 
L 195.603467 249.853858 
L 196.038952 250.063684 
L 197.345409 249.888705 
L 197.780895 249.300745 
L 198.216381 248.969817 
L 198.651866 248.931756 
L 199.087352 249.204852 
L 199.522838 249.168275 
L 199.958323 248.754552 
L 200.393809 248.721188 
L 200.829295 248.304994 
L 201.26478 248.568204 
L 202.135751 248.510125 
L 202.571237 248.349727 
L 204.31318 248.215033 
L 204.748665 248.54522 
L 206.490608 248.405335 
L 206.926093 248.713279 
L 207.361579 248.698203 
L 208.668036 248.291648 
L 209.103522 248.416951 
L 209.539007 248.261249 
L 209.974493 247.845055 
L 210.845464 247.870264 
L 211.716436 247.72865 
L 212.151921 248.044502 
L 212.587407 247.922659 
L 213.022892 247.924884 
L 213.893864 248.060319 
L 214.329349 247.718517 
L 215.200321 247.715057 
L 215.635806 247.195309 
L 216.071292 247.187647 
L 216.506778 247.498062 
L 218.24872 247.521541 
L 218.684206 246.948657 
L 219.119691 246.942726 
L 219.555177 246.821871 
L 219.990663 246.132334 
L 220.426148 246.132334 
L 220.861634 246.314481 
L 223.910033 246.180033 
L 224.345519 246.173607 
L 225.21649 245.811539 
L 225.651976 245.56983 
L 226.087462 245.541408 
L 226.522947 244.334842 
L 228.26489 244.28739 
L 228.700376 244.079046 
L 229.135861 244.056308 
L 230.877804 243.584259 
L 232.619746 243.485401 
L 233.055232 243.106774 
L 234.797175 243.044246 
L 235.23266 243.790132 
L 235.668146 243.717718 
L 236.103631 243.425839 
L 236.974603 243.418919 
L 237.410088 243.081812 
L 237.845574 243.039303 
L 238.716545 243.129511 
L 239.152031 243.008657 
L 239.587517 243.170537 
L 240.458488 242.828981 
L 240.893974 242.439232 
L 241.764945 242.409081 
L 242.20043 242.072962 
L 242.635916 242.2299 
L 243.506887 242.269937 
L 243.942373 242.005738 
L 244.377859 241.963229 
L 244.813344 242.146612 
L 245.24883 241.820873 
L 246.119801 241.854732 
L 246.555287 241.619696 
L 246.990772 241.99091 
L 247.426258 241.782071 
L 248.732715 241.80901 
L 249.168201 242.057886 
L 249.603686 241.856957 
L 250.910143 241.843611 
L 251.345629 242.007468 
L 251.781115 241.398995 
L 252.2166 241.398501 
L 252.652086 241.57694 
L 253.958543 241.08339 
L 256.135971 241.22278 
L 256.571457 241.035443 
L 257.006942 241.244282 
L 257.442428 241.276411 
L 257.877914 240.640999 
L 258.313399 240.505315 
L 259.619856 240.392617 
L 260.055342 239.983343 
L 260.490827 240.157581 
L 260.926313 240.118779 
L 261.361799 240.42178 
L 261.797284 240.431172 
L 262.23277 240.169444 
L 262.668256 240.203303 
L 263.539227 239.708764 
L 263.974712 239.667244 
L 264.410198 239.902032 
L 264.845684 239.860512 
L 265.281169 239.594088 
L 265.716655 239.709753 
L 266.152141 239.540705 
L 266.587626 239.85112 
L 267.458598 239.802927 
L 267.894083 239.473234 
L 268.329569 239.360288 
L 268.765055 239.668232 
L 269.20054 238.956946 
L 269.636026 238.828183 
L 270.071511 239.017744 
L 270.506997 238.984874 
L 270.942483 239.403539 
L 271.377968 239.411447 
L 271.813454 239.680589 
L 272.24894 238.764914 
L 272.684425 238.765902 
L 273.119911 238.935444 
L 273.990882 238.683108 
L 274.426368 238.235774 
L 274.861854 238.277789 
L 275.297339 239.321981 
L 276.603796 239.363748 
L 277.039282 239.71173 
L 277.474767 241.137762 
L 278.345739 241.204738 
L 278.781224 240.544859 
L 279.21671 240.74653 
L 279.652196 241.554697 
L 280.087681 240.613565 
L 280.958652 240.508281 
L 281.394138 240.515696 
L 281.829624 240.386191 
L 282.265109 239.796748 
L 282.700595 240.370621 
L 283.136081 240.75864 
L 284.007052 240.37853 
L 284.442538 240.40621 
L 284.878023 240.809058 
L 285.313509 240.492958 
L 285.748995 240.897289 
L 286.18448 240.950425 
L 286.619966 240.343435 
L 287.055451 240.351838 
L 287.490937 240.756169 
L 287.926423 240.62617 
L 288.361908 240.734914 
L 288.797394 240.613812 
L 289.668365 239.999408 
L 290.539337 240.052544 
L 290.974822 239.653156 
L 291.410308 239.408482 
L 292.716765 239.543423 
L 293.15225 239.605951 
L 293.587736 239.85458 
L 294.023222 238.931737 
L 294.458707 239.036774 
L 294.894193 239.401809 
L 295.765164 239.072858 
L 296.20065 238.806681 
L 297.942592 238.46389 
L 298.378078 238.093418 
L 298.813564 238.057829 
L 299.249049 238.478966 
L 300.120021 238.438928 
L 300.555506 238.726359 
L 301.426478 238.712272 
L 301.861963 238.495525 
L 302.297449 238.589687 
L 302.732935 237.825265 
L 303.16842 237.610989 
L 303.603906 237.933762 
L 304.474877 237.826995 
L 304.910363 238.11146 
L 305.345848 238.047943 
L 305.781334 237.846519 
L 306.652305 237.941423 
L 307.087791 237.533633 
L 307.523277 237.495819 
L 307.958762 237.614944 
L 308.394248 236.648356 
L 309.265219 236.262561 
L 310.13619 236.678755 
L 310.571676 236.883145 
L 311.007162 236.895255 
L 311.442647 237.713061 
L 311.878133 237.709353 
L 312.313619 237.837375 
L 313.18459 237.506694 
L 313.620076 237.923135 
L 314.055561 237.913002 
L 315.362018 238.169539 
L 315.797504 237.75211 
L 317.103961 237.744448 
L 317.974932 237.287228 
L 318.410418 237.223217 
L 318.845903 237.373976 
L 319.716875 237.026489 
L 320.15236 236.844343 
L 321.023331 236.936528 
L 321.458817 236.757347 
L 321.894303 236.76402 
L 322.765274 236.522559 
L 323.636245 236.674059 
L 324.071731 236.494878 
L 324.507217 236.077943 
L 324.942702 236.027773 
L 325.813674 236.608318 
L 326.249159 236.568034 
L 326.684645 235.871329 
L 327.12013 236.198303 
L 327.991102 236.170129 
L 328.426587 235.957336 
L 328.862073 235.400269 
L 329.297559 235.400516 
L 329.733044 235.150404 
L 330.16853 235.473177 
L 330.604016 235.409413 
L 331.039501 234.920064 
L 331.474987 235.14126 
L 331.910472 235.016204 
L 332.781444 235.054265 
L 334.087901 234.189995 
L 334.523386 234.380298 
L 335.394358 234.379309 
L 336.265329 234.179121 
L 336.700815 234.632139 
L 338.007271 234.739895 
L 338.442757 233.625514 
L 338.878243 233.386524 
L 339.313728 232.932517 
L 339.749214 232.967859 
L 340.1847 232.73999 
L 340.620185 232.332694 
L 341.055671 232.207638 
L 342.362128 232.514099 
L 342.797614 232.38583 
L 343.668585 232.405107 
L 344.10407 232.282276 
L 344.539556 232.371743 
L 344.975042 232.013875 
L 345.410527 231.955796 
L 345.846013 231.249453 
L 348.023441 230.684725 
L 348.458927 230.831282 
L 348.894412 230.583889 
L 349.329898 230.750465 
L 349.765384 230.739838 
L 350.200869 230.605638 
L 351.071841 230.758868 
L 351.507326 230.531 
L 351.942812 230.631588 
L 352.378298 230.367636 
L 352.813783 230.697082 
L 353.684755 230.747747 
L 354.12024 231.397493 
L 354.991211 231.263787 
L 355.426697 230.719819 
L 356.733154 229.979617 
L 357.16864 230.903696 
L 358.475097 230.856244 
L 358.910582 230.990938 
L 359.346068 231.56234 
L 359.781554 230.825351 
L 360.217039 230.761093 
L 360.652525 230.893563 
L 361.08801 230.624421 
L 361.523496 231.121679 
L 361.958982 230.819913 
L 362.394467 230.789762 
L 363.265439 230.446476 
L 363.700924 231.286278 
L 364.13641 230.947441 
L 364.571896 230.881453 
L 365.442867 231.032212 
L 367.184809 230.157809 
L 367.620295 230.015948 
L 368.055781 230.042887 
L 368.491266 230.24258 
L 368.926752 230.264082 
L 369.362238 229.415877 
L 369.797723 229.40352 
L 370.233209 228.783678 
L 371.10418 228.68482 
L 371.539666 229.261905 
L 371.975151 229.244605 
L 372.410637 228.777252 
L 372.846123 228.884266 
L 373.281608 228.718184 
L 374.15258 228.862765 
L 374.588065 228.779724 
L 375.023551 228.820008 
L 375.459037 228.679135 
L 375.894522 228.851149 
L 376.330008 229.14896 
L 376.765494 229.145994 
L 377.636465 228.578794 
L 378.07195 228.533566 
L 378.507436 228.282713 
L 378.942922 228.811358 
L 379.813893 228.8294 
L 380.249379 228.701873 
L 380.684864 228.905027 
L 381.12035 229.280194 
L 381.555836 229.376087 
L 381.991321 229.166013 
L 382.426807 229.152173 
L 383.297778 229.36719 
L 383.733264 229.329871 
L 384.168749 229.439109 
L 384.604235 229.17664 
L 385.039721 229.218655 
L 385.475206 229.423786 
L 385.910692 229.429717 
L 386.346178 228.823469 
L 387.217149 228.84324 
L 387.652635 229.557492 
L 388.08812 229.752737 
L 388.523606 229.226069 
L 388.959091 228.988068 
L 389.394577 229.186773 
L 390.265548 229.044417 
L 391.13652 228.989056 
L 391.572005 228.773298 
L 392.007491 228.218208 
L 392.442977 228.125034 
L 392.878462 228.285432 
L 393.313948 229.190233 
L 393.749434 229.218161 
L 394.620405 228.863259 
L 395.05589 228.984113 
L 395.491376 228.766872 
L 395.926862 228.679382 
L 396.362347 228.137144 
L 397.668804 227.847489 
L 398.10429 227.910264 
L 398.975261 227.563271 
L 399.410747 226.983467 
L 399.846233 226.854457 
L 400.281718 226.982973 
L 402.023661 226.944171 
L 402.023661 226.944171 
" clip-path="url(#pc21c3d512e)" style="fill: none; stroke: #d62728; stroke-opacity: 0.8; stroke-width: 1.5; stroke-linecap: square"/>
   </g>
   <g id="line2d_21">
    <path d="M 147.264561 288.156534 
L 402.023661 288.04606 
L 402.023661 288.04606 
" clip-path="url(#pc21c3d512e)" style="fill: none; stroke: #9467bd; stroke-opacity: 0.8; stroke-width: 1.5; stroke-linecap: square"/>
   </g>
   <g id="patch_3">
    <path d="M 61.909375 288.430125 
L 61.909375 22.318125 
" style="fill: none; stroke: #000000; stroke-width: 0.8; stroke-linejoin: miter; stroke-linecap: square"/>
   </g>
   <g id="patch_4">
    <path d="M 419.029375 288.430125 
L 419.029375 22.318125 
" style="fill: none; stroke: #000000; stroke-width: 0.8; stroke-linejoin: miter; stroke-linecap: square"/>
   </g>
   <g id="patch_5">
    <path d="M 61.909375 288.430125 
L 419.029375 288.430125 
" style="fill: none; stroke: #000000; stroke-width: 0.8; stroke-linejoin: miter; stroke-linecap: square"/>
   </g>
   <g id="patch_6">
    <path d="M 61.909375 22.318125 
L 419.029375 22.318125 
" style="fill: none; stroke: #000000; stroke-width: 0.8; stroke-linejoin: miter; stroke-linecap: square"/>
   </g>
   <g id="text_19">
    <!-- Get descendants count [leaf] -->
    <g transform="translate(153.112188 16.318125) scale(0.12 -0.12)">
     <defs>
      <path id="DejaVuSans-47" d="M 3809 666 
L 3809 1919 
L 2778 1919 
L 2778 2438 
L 4434 2438 
L 4434 434 
Q 4069 175 3628 42 
Q 3188 -91 2688 -91 
Q 1594 -91 976 548 
Q 359 1188 359 2328 
Q 359 3472 976 4111 
Q 1594 4750 2688 4750 
Q 3144 4750 3555 4637 
Q 3966 4525 4313 4306 
L 4313 3634 
Q 3963 3931 3569 4081 
Q 3175 4231 2741 4231 
Q 1884 4231 1454 3753 
Q 1025 3275 1025 2328 
Q 1025 1384 1454 906 
Q 1884 428 2741 428 
Q 3075 428 3337 486 
Q 3600 544 3809 666 
z
" transform="scale(0.015625)"/>
      <path id="DejaVuSans-5b" d="M 550 4863 
L 1875 4863 
L 1875 4416 
L 1125 4416 
L 1125 -397 
L 1875 -397 
L 1875 -844 
L 550 -844 
L 550 4863 
z
" transform="scale(0.015625)"/>
      <path id="DejaVuSans-5d" d="M 1947 4863 
L 1947 -844 
L 622 -844 
L 622 -397 
L 1369 -397 
L 1369 4416 
L 622 4416 
L 622 4863 
L 1947 4863 
z
" transform="scale(0.015625)"/>
     </defs>
     <use xlink:href="#DejaVuSans-47"/>
     <use xlink:href="#DejaVuSans-65" transform="translate(77.490234 0)"/>
     <use xlink:href="#DejaVuSans-74" transform="translate(139.013672 0)"/>
     <use xlink:href="#DejaVuSans-20" transform="translate(178.222656 0)"/>
     <use xlink:href="#DejaVuSans-64" transform="translate(210.009766 0)"/>
     <use xlink:href="#DejaVuSans-65" transform="translate(273.486328 0)"/>
     <use xlink:href="#DejaVuSans-73" transform="translate(335.009766 0)"/>
     <use xlink:href="#DejaVuSans-63" transform="translate(387.109375 0)"/>
     <use xlink:href="#DejaVuSans-65" transform="translate(442.089844 0)"/>
     <use xlink:href="#DejaVuSans-6e" transform="translate(503.613281 0)"/>
     <use xlink:href="#DejaVuSans-64" transform="translate(566.992188 0)"/>
     <use xlink:href="#DejaVuSans-61" transform="translate(630.46875 0)"/>
     <use xlink:href="#DejaVuSans-6e" transform="translate(691.748047 0)"/>
     <use xlink:href="#DejaVuSans-74" transform="translate(755.126953 0)"/>
     <use xlink:href="#DejaVuSans-73" transform="translate(794.335938 0)"/>
     <use xlink:href="#DejaVuSans-20" transform="translate(846.435547 0)"/>
     <use xlink:href="#DejaVuSans-63" transform="translate(878.222656 0)"/>
     <use xlink:href="#DejaVuSans-6f" transform="translate(933.203125 0)"/>
     <use xlink:href="#DejaVuSans-75" transform="translate(994.384766 0)"/>
     <use xlink:href="#DejaVuSans-6e" transform="translate(1057.763672 0)"/>
     <use xlink:href="#DejaVuSans-74" transform="translate(1121.142578 0)"/>
     <use xlink:href="#DejaVuSans-20" transform="translate(1160.351562 0)"/>
     <use xlink:href="#DejaVuSans-5b" transform="translate(1192.138672 0)"/>
     <use xlink:href="#DejaVuSans-6c" transform="translate(1231.152344 0)"/>
     <use xlink:href="#DejaVuSans-65" transform="translate(1258.935547 0)"/>
     <use xlink:href="#DejaVuSans-61" transform="translate(1320.458984 0)"/>
     <use xlink:href="#DejaVuSans-66" transform="translate(1381.738281 0)"/>
     <use xlink:href="#DejaVuSans-5d" transform="translate(1416.943359 0)"/>
    </g>
   </g>
   <g id="legend_1">
    <g id="patch_7">
     <path d="M 92.911719 365.802375 
L 380.507031 365.802375 
Q 382.507031 365.802375 382.507031 363.802375 
L 382.507031 335.446125 
Q 382.507031 333.446125 380.507031 333.446125 
L 92.911719 333.446125 
Q 90.911719 333.446125 90.911719 335.446125 
L 90.911719 363.802375 
Q 90.911719 365.802375 92.911719 365.802375 
z
" style="fill: #4d4d4d; opacity: 0.5; stroke: #4d4d4d; stroke-linejoin: miter"/>
    </g>
    <g id="patch_8">
     <path d="M 90.911719 363.802375 
L 378.507031 363.802375 
Q 380.507031 363.802375 380.507031 361.802375 
L 380.507031 333.446125 
Q 380.507031 331.446125 378.507031 331.446125 
L 90.911719 331.446125 
Q 88.911719 331.446125 88.911719 333.446125 
L 88.911719 361.802375 
Q 88.911719 363.802375 90.911719 363.802375 
z
" style="fill: #ffffff; stroke: #cccccc; stroke-linejoin: miter"/>
    </g>
    <g id="line2d_22">
     <path d="M 92.911719 339.544562 
L 102.911719 339.544562 
L 112.911719 339.544562 
" style="fill: none; stroke: #1f77b4; stroke-opacity: 0.8; stroke-width: 1.5; stroke-linecap: square"/>
    </g>
    <g id="text_20">
     <!-- MPTT -->
     <g transform="translate(120.911719 343.044562) scale(0.1 -0.1)">
      <defs>
       <path id="DejaVuSans-4d" d="M 628 4666 
L 1569 4666 
L 2759 1491 
L 3956 4666 
L 4897 4666 
L 4897 0 
L 4281 0 
L 4281 4097 
L 3078 897 
L 2444 897 
L 1241 4097 
L 1241 0 
L 628 0 
L 628 4666 
z
" transform="scale(0.015625)"/>
       <path id="DejaVuSans-50" d="M 1259 4147 
L 1259 2394 
L 2053 2394 
Q 2494 2394 2734 2622 
Q 2975 2850 2975 3272 
Q 2975 3691 2734 3919 
Q 2494 4147 2053 4147 
L 1259 4147 
z
M 628 4666 
L 2053 4666 
Q 2838 4666 3239 4311 
Q 3641 3956 3641 3272 
Q 3641 2581 3239 2228 
Q 2838 1875 2053 1875 
L 1259 1875 
L 1259 0 
L 628 0 
L 628 4666 
z
" transform="scale(0.015625)"/>
       <path id="DejaVuSans-54" d="M -19 4666 
L 3928 4666 
L 3928 4134 
L 2272 4134 
L 2272 0 
L 1638 0 
L 1638 4134 
L -19 4134 
L -19 4666 
z
" transform="scale(0.015625)"/>
      </defs>
      <use xlink:href="#DejaVuSans-4d"/>
      <use xlink:href="#DejaVuSans-50" transform="translate(86.279297 0)"/>
      <use xlink:href="#DejaVuSans-54" transform="translate(146.582031 0)"/>
      <use xlink:href="#DejaVuSans-54" transform="translate(205.916016 0)"/>
     </g>
    </g>
    <g id="line2d_23">
     <path d="M 92.911719 354.222687 
L 102.911719 354.222687 
L 112.911719 354.222687 
" style="fill: none; stroke: #ff7f0e; stroke-opacity: 0.8; stroke-width: 1.5; stroke-linecap: square"/>
    </g>
    <g id="text_21">
     <!-- tree -->
     <g transform="translate(120.911719 357.722687) scale(0.1 -0.1)">
      <defs>
       <path id="DejaVuSans-72" d="M 2631 2963 
Q 2534 3019 2420 3045 
Q 2306 3072 2169 3072 
Q 1681 3072 1420 2755 
Q 1159 2438 1159 1844 
L 1159 0 
L 581 0 
L 581 3500 
L 1159 3500 
L 1159 2956 
Q 1341 3275 1631 3429 
Q 1922 3584 2338 3584 
Q 2397 3584 2469 3576 
Q 2541 3569 2628 3553 
L 2631 2963 
z
" transform="scale(0.015625)"/>
      </defs>
      <use xlink:href="#DejaVuSans-74"/>
      <use xlink:href="#DejaVuSans-72" transform="translate(39.208984 0)"/>
      <use xlink:href="#DejaVuSans-65" transform="translate(78.072266 0)"/>
      <use xlink:href="#DejaVuSans-65" transform="translate(139.595703 0)"/>
     </g>
    </g>
    <g id="line2d_24">
     <path d="M 167.610156 339.544562 
L 177.610156 339.544562 
L 187.610156 339.544562 
" style="fill: none; stroke: #2ca02c; stroke-opacity: 0.8; stroke-width: 1.5; stroke-linecap: square"/>
    </g>
    <g id="text_22">
     <!-- treebeard AL -->
     <g transform="translate(195.610156 343.044562) scale(0.1 -0.1)">
      <defs>
       <path id="DejaVuSans-4c" d="M 628 4666 
L 1259 4666 
L 1259 531 
L 3531 531 
L 3531 0 
L 628 0 
L 628 4666 
z
" transform="scale(0.015625)"/>
      </defs>
      <use xlink:href="#DejaVuSans-74"/>
      <use xlink:href="#DejaVuSans-72" transform="translate(39.208984 0)"/>
      <use xlink:href="#DejaVuSans-65" transform="translate(78.072266 0)"/>
      <use xlink:href="#DejaVuSans-65" transform="translate(139.595703 0)"/>
      <use xlink:href="#DejaVuSans-62" transform="translate(201.119141 0)"/>
      <use xlink:href="#DejaVuSans-65" transform="translate(264.595703 0)"/>
      <use xlink:href="#DejaVuSans-61" transform="translate(326.119141 0)"/>
      <use xlink:href="#DejaVuSans-72" transform="translate(387.398438 0)"/>
      <use xlink:href="#DejaVuSans-64" transform="translate(426.761719 0)"/>
      <use xlink:href="#DejaVuSans-20" transform="translate(490.238281 0)"/>
      <use xlink:href="#DejaVuSans-41" transform="translate(522.025391 0)"/>
      <use xlink:href="#DejaVuSans-4c" transform="translate(590.433594 0)"/>
     </g>
    </g>
    <g id="line2d_25">
     <path d="M 167.610156 354.222687 
L 177.610156 354.222687 
L 187.610156 354.222687 
" style="fill: none; stroke: #d62728; stroke-opacity: 0.8; stroke-width: 1.5; stroke-linecap: square"/>
    </g>
    <g id="text_23">
     <!-- treebeard MP -->
     <g transform="translate(195.610156 357.722687) scale(0.1 -0.1)">
      <use xlink:href="#DejaVuSans-74"/>
      <use xlink:href="#DejaVuSans-72" transform="translate(39.208984 0)"/>
      <use xlink:href="#DejaVuSans-65" transform="translate(78.072266 0)"/>
      <use xlink:href="#DejaVuSans-65" transform="translate(139.595703 0)"/>
      <use xlink:href="#DejaVuSans-62" transform="translate(201.119141 0)"/>
      <use xlink:href="#DejaVuSans-65" transform="translate(264.595703 0)"/>
      <use xlink:href="#DejaVuSans-61" transform="translate(326.119141 0)"/>
      <use xlink:href="#DejaVuSans-72" transform="translate(387.398438 0)"/>
      <use xlink:href="#DejaVuSans-64" transform="translate(426.761719 0)"/>
      <use xlink:href="#DejaVuSans-20" transform="translate(490.238281 0)"/>
      <use xlink:href="#DejaVuSans-4d" transform="translate(522.025391 0)"/>
      <use xlink:href="#DejaVuSans-50" transform="translate(608.304688 0)"/>
     </g>
    </g>
    <g id="line2d_26">
     <path d="M 282.472656 339.544562 
L 292.472656 339.544562 
L 302.472656 339.544562 
" style="fill: none; stroke: #9467bd; stroke-opacity: 0.8; stroke-width: 1.5; stroke-linecap: square"/>
    </g>
    <g id="text_24">
     <!-- treebeard NS -->
     <g transform="translate(310.472656 343.044562) scale(0.1 -0.1)">
      <defs>
       <path id="DejaVuSans-4e" d="M 628 4666 
L 1478 4666 
L 3547 763 
L 3547 4666 
L 4159 4666 
L 4159 0 
L 3309 0 
L 1241 3903 
L 1241 0 
L 628 0 
L 628 4666 
z
" transform="scale(0.015625)"/>
       <path id="DejaVuSans-53" d="M 3425 4513 
L 3425 3897 
Q 3066 4069 2747 4153 
Q 2428 4238 2131 4238 
Q 1616 4238 1336 4038 
Q 1056 3838 1056 3469 
Q 1056 3159 1242 3001 
Q 1428 2844 1947 2747 
L 2328 2669 
Q 3034 2534 3370 2195 
Q 3706 1856 3706 1288 
Q 3706 609 3251 259 
Q 2797 -91 1919 -91 
Q 1588 -91 1214 -16 
Q 841 59 441 206 
L 441 856 
Q 825 641 1194 531 
Q 1563 422 1919 422 
Q 2459 422 2753 634 
Q 3047 847 3047 1241 
Q 3047 1584 2836 1778 
Q 2625 1972 2144 2069 
L 1759 2144 
Q 1053 2284 737 2584 
Q 422 2884 422 3419 
Q 422 4038 858 4394 
Q 1294 4750 2059 4750 
Q 2388 4750 2728 4690 
Q 3069 4631 3425 4513 
z
" transform="scale(0.015625)"/>
      </defs>
      <use xlink:href="#DejaVuSans-74"/>
      <use xlink:href="#DejaVuSans-72" transform="translate(39.208984 0)"/>
      <use xlink:href="#DejaVuSans-65" transform="translate(78.072266 0)"/>
      <use xlink:href="#DejaVuSans-65" transform="translate(139.595703 0)"/>
      <use xlink:href="#DejaVuSans-62" transform="translate(201.119141 0)"/>
      <use xlink:href="#DejaVuSans-65" transform="translate(264.595703 0)"/>
      <use xlink:href="#DejaVuSans-61" transform="translate(326.119141 0)"/>
      <use xlink:href="#DejaVuSans-72" transform="translate(387.398438 0)"/>
      <use xlink:href="#DejaVuSans-64" transform="translate(426.761719 0)"/>
      <use xlink:href="#DejaVuSans-20" transform="translate(490.238281 0)"/>
      <use xlink:href="#DejaVuSans-4e" transform="translate(522.025391 0)"/>
      <use xlink:href="#DejaVuSans-53" transform="translate(596.830078 0)"/>
     </g>
    </g>
   </g>
  </g>
 </g>
 <defs>
  <clipPath id="pc21c3d512e">
   <rect x="61.909375" y="22.318125" width="357.12" height="266.112"/>
  </clipPath>
 </defs>
</svg>
