<?xml version="1.0" encoding="utf-8" standalone="no"?>
<!DOCTYPE svg PUBLIC "-//W3C//DTD SVG 1.1//EN"
  "http://www.w3.org/Graphics/SVG/1.1/DTD/svg11.dtd">
<svg xmlns:xlink="http://www.w3.org/1999/xlink" width="426.035625pt" height="371.002375pt" viewBox="0 0 426.035625 371.002375" xmlns="http://www.w3.org/2000/svg" version="1.1">
 <metadata>
  <rdf:RDF xmlns:dc="http://purl.org/dc/elements/1.1/" xmlns:cc="http://creativecommons.org/ns#" xmlns:rdf="http://www.w3.org/1999/02/22-rdf-syntax-ns#">
   <cc:Work>
    <dc:type rdf:resource="http://purl.org/dc/dcmitype/StillImage"/>
    <dc:date>2026-06-28T14:41:53.517067</dc:date>
    <dc:format>image/svg+xml</dc:format>
    <dc:creator>
     <cc:Agent>
      <dc:title>Matplotlib v3.10.6, https://matplotlib.org/</dc:title>
     </cc:Agent>
    </dc:creator>
   </cc:Work>
  </rdf:RDF>
 </metadata>
 <defs>
  <style type="text/css">*{stroke-linejoin: round; stroke-linecap: butt}</style>
 </defs>
 <g id="figure_1">
  <g id="patch_1">
   <path d="M 0 371.002375 
L 426.035625 371.002375 
L 426.035625 0 
L 0 0 
z
" style="fill: #ffffff"/>
  </g>
  <g id="axes_1">
   <g id="patch_2">
    <path d="M 61.715625 288.430125 
L 418.835625 288.430125 
L 418.835625 22.318125 
L 61.715625 22.318125 
z
" style="fill: #ffffff"/>
   </g>
   <g id="matplotlib.axis_1">
    <g id="xtick_1">
     <g id="line2d_1">
      <defs>
       <path id="me3803ac47c" d="M 0 0 
L 0 3.5 
" style="stroke: #000000; stroke-width: 0.8"/>
      </defs>
      <g>
       <use xlink:href="#me3803ac47c" x="61.715625" y="288.430125" style="stroke: #000000; stroke-width: 0.8"/>
      </g>
     </g>
     <g id="text_1">
      <!-- 0 -->
      <g transform="translate(58.534375 303.028562) scale(0.1 -0.1)">
       <defs>
        <path id="DejaVuSans-30" d="M 2034 4250 
Q 1547 4250 1301 3770 
Q 1056 3291 1056 2328 
Q 1056 1369 1301 889 
Q 1547 409 2034 409 
Q 2525 409 2770 889 
Q 3016 1369 3016 2328 
Q 3016 3291 2770 3770 
Q 2525 4250 2034 4250 
z
M 2034 4750 
Q 2819 4750 3233 4129 
Q 3647 3509 3647 2328 
Q 3647 1150 3233 529 
Q 2819 -91 2034 -91 
Q 1250 -91 836 529 
Q 422 1150 422 2328 
Q 422 3509 836 4129 
Q 1250 4750 2034 4750 
z
" transform="scale(0.015625)"/>
       </defs>
       <use xlink:href="#DejaVuSans-30"/>
      </g>
     </g>
    </g>
    <g id="xtick_2">
     <g id="line2d_2">
      <g>
       <use xlink:href="#me3803ac47c" x="105.264189" y="288.430125" style="stroke: #000000; stroke-width: 0.8"/>
      </g>
     </g>
     <g id="text_2">
      <!-- 500  -->
      <g transform="translate(94.131377 303.028562) scale(0.1 -0.1)">
       <defs>
        <path id="DejaVuSans-35" d="M 691 4666 
L 3169 4666 
L 3169 4134 
L 1269 4134 
L 1269 2991 
Q 1406 3038 1543 3061 
Q 1681 3084 1819 3084 
Q 2600 3084 3056 2656 
Q 3513 2228 3513 1497 
Q 3513 744 3044 326 
Q 2575 -91 1722 -91 
Q 1428 -91 1123 -41 
Q 819 9 494 109 
L 494 744 
Q 775 591 1075 516 
Q 1375 441 1709 441 
Q 2250 441 2565 725 
Q 2881 1009 2881 1497 
Q 2881 1984 2565 2268 
Q 2250 2553 1709 2553 
Q 1456 2553 1204 2497 
Q 953 2441 691 2322 
L 691 4666 
z
" transform="scale(0.015625)"/>
        <path id="DejaVuSans-20" transform="scale(0.015625)"/>
       </defs>
       <use xlink:href="#DejaVuSans-35"/>
       <use xlink:href="#DejaVuSans-30" transform="translate(63.623047 0)"/>
       <use xlink:href="#DejaVuSans-30" transform="translate(127.246094 0)"/>
       <use xlink:href="#DejaVuSans-20" transform="translate(190.869141 0)"/>
      </g>
     </g>
    </g>
    <g id="xtick_3">
     <g id="line2d_3">
      <g>
       <use xlink:href="#me3803ac47c" x="148.812753" y="288.430125" style="stroke: #000000; stroke-width: 0.8"/>
      </g>
     </g>
     <g id="text_3">
      <!-- 1 k -->
      <g transform="translate(141.147128 303.028562) scale(0.1 -0.1)">
       <defs>
        <path id="DejaVuSans-31" d="M 794 531 
L 1825 531 
L 1825 4091 
L 703 3866 
L 703 4441 
L 1819 4666 
L 2450 4666 
L 2450 531 
L 3481 531 
L 3481 0 
L 794 0 
L 794 531 
z
" transform="scale(0.015625)"/>
        <path id="DejaVuSans-6b" d="M 581 4863 
L 1159 4863 
L 1159 1991 
L 2875 3500 
L 3609 3500 
L 1753 1863 
L 3688 0 
L 2938 0 
L 1159 1709 
L 1159 0 
L 581 0 
L 581 4863 
z
" transform="scale(0.015625)"/>
       </defs>
       <use xlink:href="#DejaVuSans-31"/>
       <use xlink:href="#DejaVuSans-20" transform="translate(63.623047 0)"/>
       <use xlink:href="#DejaVuSans-6b" transform="translate(95.410156 0)"/>
      </g>
     </g>
    </g>
    <g id="xtick_4">
     <g id="line2d_4">
      <g>
       <use xlink:href="#me3803ac47c" x="192.361317" y="288.430125" style="stroke: #000000; stroke-width: 0.8"/>
      </g>
     </g>
     <g id="text_4">
      <!-- 1.5 k -->
      <g transform="translate(179.92538 303.028562) scale(0.1 -0.1)">
       <defs>
        <path id="DejaVuSans-2e" d="M 684 794 
L 1344 794 
L 1344 0 
L 684 0 
L 684 794 
z
" transform="scale(0.015625)"/>
       </defs>
       <use xlink:href="#DejaVuSans-31"/>
       <use xlink:href="#DejaVuSans-2e" transform="translate(63.623047 0)"/>
       <use xlink:href="#DejaVuSans-35" transform="translate(95.410156 0)"/>
       <use xlink:href="#DejaVuSans-20" transform="translate(159.033203 0)"/>
       <use xlink:href="#DejaVuSans-6b" transform="translate(190.820312 0)"/>
      </g>
     </g>
    </g>
    <g id="xtick_5">
     <g id="line2d_5">
      <g>
       <use xlink:href="#me3803ac47c" x="235.909881" y="288.430125" style="stroke: #000000; stroke-width: 0.8"/>
      </g>
     </g>
     <g id="text_5">
      <!-- 2 k -->
      <g transform="translate(228.244256 303.028562) scale(0.1 -0.1)">
       <defs>
        <path id="DejaVuSans-32" d="M 1228 531 
L 3431 531 
L 3431 0 
L 469 0 
L 469 531 
Q 828 903 1448 1529 
Q 2069 2156 2228 2338 
Q 2531 2678 2651 2914 
Q 2772 3150 2772 3378 
Q 2772 3750 2511 3984 
Q 2250 4219 1831 4219 
Q 1534 4219 1204 4116 
Q 875 4013 500 3803 
L 500 4441 
Q 881 4594 1212 4672 
Q 1544 4750 1819 4750 
Q 2544 4750 2975 4387 
Q 3406 4025 3406 3419 
Q 3406 3131 3298 2873 
Q 3191 2616 2906 2266 
Q 2828 2175 2409 1742 
Q 1991 1309 1228 531 
z
" transform="scale(0.015625)"/>
       </defs>
       <use xlink:href="#DejaVuSans-32"/>
       <use xlink:href="#DejaVuSans-20" transform="translate(63.623047 0)"/>
       <use xlink:href="#DejaVuSans-6b" transform="translate(95.410156 0)"/>
      </g>
     </g>
    </g>
    <g id="xtick_6">
     <g id="line2d_6">
      <g>
       <use xlink:href="#me3803ac47c" x="279.458446" y="288.430125" style="stroke: #000000; stroke-width: 0.8"/>
      </g>
     </g>
     <g id="text_6">
      <!-- 2.5 k -->
      <g transform="translate(267.022508 303.028562) scale(0.1 -0.1)">
       <use xlink:href="#DejaVuSans-32"/>
       <use xlink:href="#DejaVuSans-2e" transform="translate(63.623047 0)"/>
       <use xlink:href="#DejaVuSans-35" transform="translate(95.410156 0)"/>
       <use xlink:href="#DejaVuSans-20" transform="translate(159.033203 0)"/>
       <use xlink:href="#DejaVuSans-6b" transform="translate(190.820312 0)"/>
      </g>
     </g>
    </g>
    <g id="xtick_7">
     <g id="line2d_7">
      <g>
       <use xlink:href="#me3803ac47c" x="323.00701" y="288.430125" style="stroke: #000000; stroke-width: 0.8"/>
      </g>
     </g>
     <g id="text_7">
      <!-- 3 k -->
      <g transform="translate(315.341385 303.028562) scale(0.1 -0.1)">
       <defs>
        <path id="DejaVuSans-33" d="M 2597 2516 
Q 3050 2419 3304 2112 
Q 3559 1806 3559 1356 
Q 3559 666 3084 287 
Q 2609 -91 1734 -91 
Q 1441 -91 1130 -33 
Q 819 25 488 141 
L 488 750 
Q 750 597 1062 519 
Q 1375 441 1716 441 
Q 2309 441 2620 675 
Q 2931 909 2931 1356 
Q 2931 1769 2642 2001 
Q 2353 2234 1838 2234 
L 1294 2234 
L 1294 2753 
L 1863 2753 
Q 2328 2753 2575 2939 
Q 2822 3125 2822 3475 
Q 2822 3834 2567 4026 
Q 2313 4219 1838 4219 
Q 1578 4219 1281 4162 
Q 984 4106 628 3988 
L 628 4550 
Q 988 4650 1302 4700 
Q 1616 4750 1894 4750 
Q 2613 4750 3031 4423 
Q 3450 4097 3450 3541 
Q 3450 3153 3228 2886 
Q 3006 2619 2597 2516 
z
" transform="scale(0.015625)"/>
       </defs>
       <use xlink:href="#DejaVuSans-33"/>
       <use xlink:href="#DejaVuSans-20" transform="translate(63.623047 0)"/>
       <use xlink:href="#DejaVuSans-6b" transform="translate(95.410156 0)"/>
      </g>
     </g>
    </g>
    <g id="xtick_8">
     <g id="line2d_8">
      <g>
       <use xlink:href="#me3803ac47c" x="366.555574" y="288.430125" style="stroke: #000000; stroke-width: 0.8"/>
      </g>
     </g>
     <g id="text_8">
      <!-- 3.5 k -->
      <g transform="translate(354.119636 303.028562) scale(0.1 -0.1)">
       <use xlink:href="#DejaVuSans-33"/>
       <use xlink:href="#DejaVuSans-2e" transform="translate(63.623047 0)"/>
       <use xlink:href="#DejaVuSans-35" transform="translate(95.410156 0)"/>
       <use xlink:href="#DejaVuSans-20" transform="translate(159.033203 0)"/>
       <use xlink:href="#DejaVuSans-6b" transform="translate(190.820312 0)"/>
      </g>
     </g>
    </g>
    <g id="xtick_9">
     <g id="line2d_9">
      <g>
       <use xlink:href="#me3803ac47c" x="410.104138" y="288.430125" style="stroke: #000000; stroke-width: 0.8"/>
      </g>
     </g>
     <g id="text_9">
      <!-- 4 k -->
      <g transform="translate(402.438513 303.028562) scale(0.1 -0.1)">
       <defs>
        <path id="DejaVuSans-34" d="M 2419 4116 
L 825 1625 
L 2419 1625 
L 2419 4116 
z
M 2253 4666 
L 3047 4666 
L 3047 1625 
L 3713 1625 
L 3713 1100 
L 3047 1100 
L 3047 0 
L 2419 0 
L 2419 1100 
L 313 1100 
L 313 1709 
L 2253 4666 
z
" transform="scale(0.015625)"/>
       </defs>
       <use xlink:href="#DejaVuSans-34"/>
       <use xlink:href="#DejaVuSans-20" transform="translate(63.623047 0)"/>
       <use xlink:href="#DejaVuSans-6b" transform="translate(95.410156 0)"/>
      </g>
     </g>
    </g>
    <g id="text_10">
     <!-- Amount of objects in table -->
     <g transform="translate(174.217031 316.706687) scale(0.1 -0.1)">
      <defs>
       <path id="DejaVuSans-41" d="M 2188 4044 
L 1331 1722 
L 3047 1722 
L 2188 4044 
z
M 1831 4666 
L 2547 4666 
L 4325 0 
L 3669 0 
L 3244 1197 
L 1141 1197 
L 716 0 
L 50 0 
L 1831 4666 
z
" transform="scale(0.015625)"/>
       <path id="DejaVuSans-6d" d="M 3328 2828 
Q 3544 3216 3844 3400 
Q 4144 3584 4550 3584 
Q 5097 3584 5394 3201 
Q 5691 2819 5691 2113 
L 5691 0 
L 5113 0 
L 5113 2094 
Q 5113 2597 4934 2840 
Q 4756 3084 4391 3084 
Q 3944 3084 3684 2787 
Q 3425 2491 3425 1978 
L 3425 0 
L 2847 0 
L 2847 2094 
Q 2847 2600 2669 2842 
Q 2491 3084 2119 3084 
Q 1678 3084 1418 2786 
Q 1159 2488 1159 1978 
L 1159 0 
L 581 0 
L 581 3500 
L 1159 3500 
L 1159 2956 
Q 1356 3278 1631 3431 
Q 1906 3584 2284 3584 
Q 2666 3584 2933 3390 
Q 3200 3197 3328 2828 
z
" transform="scale(0.015625)"/>
       <path id="DejaVuSans-6f" d="M 1959 3097 
Q 1497 3097 1228 2736 
Q 959 2375 959 1747 
Q 959 1119 1226 758 
Q 1494 397 1959 397 
Q 2419 397 2687 759 
Q 2956 1122 2956 1747 
Q 2956 2369 2687 2733 
Q 2419 3097 1959 3097 
z
M 1959 3584 
Q 2709 3584 3137 3096 
Q 3566 2609 3566 1747 
Q 3566 888 3137 398 
Q 2709 -91 1959 -91 
Q 1206 -91 779 398 
Q 353 888 353 1747 
Q 353 2609 779 3096 
Q 1206 3584 1959 3584 
z
" transform="scale(0.015625)"/>
       <path id="DejaVuSans-75" d="M 544 1381 
L 544 3500 
L 1119 3500 
L 1119 1403 
Q 1119 906 1312 657 
Q 1506 409 1894 409 
Q 2359 409 2629 706 
Q 2900 1003 2900 1516 
L 2900 3500 
L 3475 3500 
L 3475 0 
L 2900 0 
L 2900 538 
Q 2691 219 2414 64 
Q 2138 -91 1772 -91 
Q 1169 -91 856 284 
Q 544 659 544 1381 
z
M 1991 3584 
L 1991 3584 
z
" transform="scale(0.015625)"/>
       <path id="DejaVuSans-6e" d="M 3513 2113 
L 3513 0 
L 2938 0 
L 2938 2094 
Q 2938 2591 2744 2837 
Q 2550 3084 2163 3084 
Q 1697 3084 1428 2787 
Q 1159 2491 1159 1978 
L 1159 0 
L 581 0 
L 581 3500 
L 1159 3500 
L 1159 2956 
Q 1366 3272 1645 3428 
Q 1925 3584 2291 3584 
Q 2894 3584 3203 3211 
Q 3513 2838 3513 2113 
z
" transform="scale(0.015625)"/>
       <path id="DejaVuSans-74" d="M 1172 4494 
L 1172 3500 
L 2356 3500 
L 2356 3053 
L 1172 3053 
L 1172 1153 
Q 1172 725 1289 603 
Q 1406 481 1766 481 
L 2356 481 
L 2356 0 
L 1766 0 
Q 1100 0 847 248 
Q 594 497 594 1153 
L 594 3053 
L 172 3053 
L 172 3500 
L 594 3500 
L 594 4494 
L 1172 4494 
z
" transform="scale(0.015625)"/>
       <path id="DejaVuSans-66" d="M 2375 4863 
L 2375 4384 
L 1825 4384 
Q 1516 4384 1395 4259 
Q 1275 4134 1275 3809 
L 1275 3500 
L 2222 3500 
L 2222 3053 
L 1275 3053 
L 1275 0 
L 697 0 
L 697 3053 
L 147 3053 
L 147 3500 
L 697 3500 
L 697 3744 
Q 697 4328 969 4595 
Q 1241 4863 1831 4863 
L 2375 4863 
z
" transform="scale(0.015625)"/>
       <path id="DejaVuSans-62" d="M 3116 1747 
Q 3116 2381 2855 2742 
Q 2594 3103 2138 3103 
Q 1681 3103 1420 2742 
Q 1159 2381 1159 1747 
Q 1159 1113 1420 752 
Q 1681 391 2138 391 
Q 2594 391 2855 752 
Q 3116 1113 3116 1747 
z
M 1159 2969 
Q 1341 3281 1617 3432 
Q 1894 3584 2278 3584 
Q 2916 3584 3314 3078 
Q 3713 2572 3713 1747 
Q 3713 922 3314 415 
Q 2916 -91 2278 -91 
Q 1894 -91 1617 61 
Q 1341 213 1159 525 
L 1159 0 
L 581 0 
L 581 4863 
L 1159 4863 
L 1159 2969 
z
" transform="scale(0.015625)"/>
       <path id="DejaVuSans-6a" d="M 603 3500 
L 1178 3500 
L 1178 -63 
Q 1178 -731 923 -1031 
Q 669 -1331 103 -1331 
L -116 -1331 
L -116 -844 
L 38 -844 
Q 366 -844 484 -692 
Q 603 -541 603 -63 
L 603 3500 
z
M 603 4863 
L 1178 4863 
L 1178 4134 
L 603 4134 
L 603 4863 
z
" transform="scale(0.015625)"/>
       <path id="DejaVuSans-65" d="M 3597 1894 
L 3597 1613 
L 953 1613 
Q 991 1019 1311 708 
Q 1631 397 2203 397 
Q 2534 397 2845 478 
Q 3156 559 3463 722 
L 3463 178 
Q 3153 47 2828 -22 
Q 2503 -91 2169 -91 
Q 1331 -91 842 396 
Q 353 884 353 1716 
Q 353 2575 817 3079 
Q 1281 3584 2069 3584 
Q 2775 3584 3186 3129 
Q 3597 2675 3597 1894 
z
M 3022 2063 
Q 3016 2534 2758 2815 
Q 2500 3097 2075 3097 
Q 1594 3097 1305 2825 
Q 1016 2553 972 2059 
L 3022 2063 
z
" transform="scale(0.015625)"/>
       <path id="DejaVuSans-63" d="M 3122 3366 
L 3122 2828 
Q 2878 2963 2633 3030 
Q 2388 3097 2138 3097 
Q 1578 3097 1268 2742 
Q 959 2388 959 1747 
Q 959 1106 1268 751 
Q 1578 397 2138 397 
Q 2388 397 2633 464 
Q 2878 531 3122 666 
L 3122 134 
Q 2881 22 2623 -34 
Q 2366 -91 2075 -91 
Q 1284 -91 818 406 
Q 353 903 353 1747 
Q 353 2603 823 3093 
Q 1294 3584 2113 3584 
Q 2378 3584 2631 3529 
Q 2884 3475 3122 3366 
z
" transform="scale(0.015625)"/>
       <path id="DejaVuSans-73" d="M 2834 3397 
L 2834 2853 
Q 2591 2978 2328 3040 
Q 2066 3103 1784 3103 
Q 1356 3103 1142 2972 
Q 928 2841 928 2578 
Q 928 2378 1081 2264 
Q 1234 2150 1697 2047 
L 1894 2003 
Q 2506 1872 2764 1633 
Q 3022 1394 3022 966 
Q 3022 478 2636 193 
Q 2250 -91 1575 -91 
Q 1294 -91 989 -36 
Q 684 19 347 128 
L 347 722 
Q 666 556 975 473 
Q 1284 391 1588 391 
Q 1994 391 2212 530 
Q 2431 669 2431 922 
Q 2431 1156 2273 1281 
Q 2116 1406 1581 1522 
L 1381 1569 
Q 847 1681 609 1914 
Q 372 2147 372 2553 
Q 372 3047 722 3315 
Q 1072 3584 1716 3584 
Q 2034 3584 2315 3537 
Q 2597 3491 2834 3397 
z
" transform="scale(0.015625)"/>
       <path id="DejaVuSans-69" d="M 603 3500 
L 1178 3500 
L 1178 0 
L 603 0 
L 603 3500 
z
M 603 4863 
L 1178 4863 
L 1178 4134 
L 603 4134 
L 603 4863 
z
" transform="scale(0.015625)"/>
       <path id="DejaVuSans-61" d="M 2194 1759 
Q 1497 1759 1228 1600 
Q 959 1441 959 1056 
Q 959 750 1161 570 
Q 1363 391 1709 391 
Q 2188 391 2477 730 
Q 2766 1069 2766 1631 
L 2766 1759 
L 2194 1759 
z
M 3341 1997 
L 3341 0 
L 2766 0 
L 2766 531 
Q 2569 213 2275 61 
Q 1981 -91 1556 -91 
Q 1019 -91 701 211 
Q 384 513 384 1019 
Q 384 1609 779 1909 
Q 1175 2209 1959 2209 
L 2766 2209 
L 2766 2266 
Q 2766 2663 2505 2880 
Q 2244 3097 1772 3097 
Q 1472 3097 1187 3025 
Q 903 2953 641 2809 
L 641 3341 
Q 956 3463 1253 3523 
Q 1550 3584 1831 3584 
Q 2591 3584 2966 3190 
Q 3341 2797 3341 1997 
z
" transform="scale(0.015625)"/>
       <path id="DejaVuSans-6c" d="M 603 4863 
L 1178 4863 
L 1178 0 
L 603 0 
L 603 4863 
z
" transform="scale(0.015625)"/>
      </defs>
      <use xlink:href="#DejaVuSans-41"/>
      <use xlink:href="#DejaVuSans-6d" transform="translate(68.408203 0)"/>
      <use xlink:href="#DejaVuSans-6f" transform="translate(165.820312 0)"/>
      <use xlink:href="#DejaVuSans-75" transform="translate(227.001953 0)"/>
      <use xlink:href="#DejaVuSans-6e" transform="translate(290.380859 0)"/>
      <use xlink:href="#DejaVuSans-74" transform="translate(353.759766 0)"/>
      <use xlink:href="#DejaVuSans-20" transform="translate(392.96875 0)"/>
      <use xlink:href="#DejaVuSans-6f" transform="translate(424.755859 0)"/>
      <use xlink:href="#DejaVuSans-66" transform="translate(485.9375 0)"/>
      <use xlink:href="#DejaVuSans-20" transform="translate(521.142578 0)"/>
      <use xlink:href="#DejaVuSans-6f" transform="translate(552.929688 0)"/>
      <use xlink:href="#DejaVuSans-62" transform="translate(614.111328 0)"/>
      <use xlink:href="#DejaVuSans-6a" transform="translate(677.587891 0)"/>
      <use xlink:href="#DejaVuSans-65" transform="translate(705.371094 0)"/>
      <use xlink:href="#DejaVuSans-63" transform="translate(766.894531 0)"/>
      <use xlink:href="#DejaVuSans-74" transform="translate(821.875 0)"/>
      <use xlink:href="#DejaVuSans-73" transform="translate(861.083984 0)"/>
      <use xlink:href="#DejaVuSans-20" transform="translate(913.183594 0)"/>
      <use xlink:href="#DejaVuSans-69" transform="translate(944.970703 0)"/>
      <use xlink:href="#DejaVuSans-6e" transform="translate(972.753906 0)"/>
      <use xlink:href="#DejaVuSans-20" transform="translate(1036.132812 0)"/>
      <use xlink:href="#DejaVuSans-74" transform="translate(1067.919922 0)"/>
      <use xlink:href="#DejaVuSans-61" transform="translate(1107.128906 0)"/>
      <use xlink:href="#DejaVuSans-62" transform="translate(1168.408203 0)"/>
      <use xlink:href="#DejaVuSans-6c" transform="translate(1231.884766 0)"/>
      <use xlink:href="#DejaVuSans-65" transform="translate(1259.667969 0)"/>
     </g>
    </g>
   </g>
   <g id="matplotlib.axis_2">
    <g id="ytick_1">
     <g id="line2d_10">
      <defs>
       <path id="m1103935293" d="M 0 0 
L -3.5 0 
" style="stroke: #000000; stroke-width: 0.8"/>
      </defs>
      <g>
       <use xlink:href="#m1103935293" x="61.715625" y="288.430125" style="stroke: #000000; stroke-width: 0.8"/>
      </g>
     </g>
     <g id="text_11">
      <!-- 0 -->
      <g transform="translate(48.353125 292.229344) scale(0.1 -0.1)">
       <use xlink:href="#DejaVuSans-30"/>
      </g>
     </g>
    </g>
    <g id="ytick_2">
     <g id="line2d_11">
      <g>
       <use xlink:href="#m1103935293" x="61.715625" y="257.703811" style="stroke: #000000; stroke-width: 0.8"/>
      </g>
     </g>
     <g id="text_12">
      <!-- 50 µs -->
      <g transform="translate(27.240625 261.50303) scale(0.1 -0.1)">
       <defs>
        <path id="DejaVuSans-b5" d="M 544 -1331 
L 544 3500 
L 1119 3500 
L 1119 1325 
Q 1119 872 1334 640 
Q 1550 409 1972 409 
Q 2434 409 2667 671 
Q 2900 934 2900 1459 
L 2900 3500 
L 3475 3500 
L 3475 806 
Q 3475 619 3529 530 
Q 3584 441 3700 441 
Q 3728 441 3778 458 
Q 3828 475 3916 513 
L 3916 50 
Q 3788 -22 3673 -56 
Q 3559 -91 3450 -91 
Q 3234 -91 3106 31 
Q 2978 153 2931 403 
Q 2775 156 2548 32 
Q 2322 -91 2016 -91 
Q 1697 -91 1473 31 
Q 1250 153 1119 397 
L 1119 -1331 
L 544 -1331 
z
" transform="scale(0.015625)"/>
       </defs>
       <use xlink:href="#DejaVuSans-35"/>
       <use xlink:href="#DejaVuSans-30" transform="translate(63.623047 0)"/>
       <use xlink:href="#DejaVuSans-20" transform="translate(127.246094 0)"/>
       <use xlink:href="#DejaVuSans-b5" transform="translate(159.033203 0)"/>
       <use xlink:href="#DejaVuSans-73" transform="translate(222.65625 0)"/>
      </g>
     </g>
    </g>
    <g id="ytick_3">
     <g id="line2d_12">
      <g>
       <use xlink:href="#m1103935293" x="61.715625" y="226.977497" style="stroke: #000000; stroke-width: 0.8"/>
      </g>
     </g>
     <g id="text_13">
      <!-- 100 µs -->
      <g transform="translate(20.878125 230.776716) scale(0.1 -0.1)">
       <use xlink:href="#DejaVuSans-31"/>
       <use xlink:href="#DejaVuSans-30" transform="translate(63.623047 0)"/>
       <use xlink:href="#DejaVuSans-30" transform="translate(127.246094 0)"/>
       <use xlink:href="#DejaVuSans-20" transform="translate(190.869141 0)"/>
       <use xlink:href="#DejaVuSans-b5" transform="translate(222.65625 0)"/>
       <use xlink:href="#DejaVuSans-73" transform="translate(286.279297 0)"/>
      </g>
     </g>
    </g>
    <g id="ytick_4">
     <g id="line2d_13">
      <g>
       <use xlink:href="#m1103935293" x="61.715625" y="196.251183" style="stroke: #000000; stroke-width: 0.8"/>
      </g>
     </g>
     <g id="text_14">
      <!-- 150 µs -->
      <g transform="translate(20.878125 200.050402) scale(0.1 -0.1)">
       <use xlink:href="#DejaVuSans-31"/>
       <use xlink:href="#DejaVuSans-35" transform="translate(63.623047 0)"/>
       <use xlink:href="#DejaVuSans-30" transform="translate(127.246094 0)"/>
       <use xlink:href="#DejaVuSans-20" transform="translate(190.869141 0)"/>
       <use xlink:href="#DejaVuSans-b5" transform="translate(222.65625 0)"/>
       <use xlink:href="#DejaVuSans-73" transform="translate(286.279297 0)"/>
      </g>
     </g>
    </g>
    <g id="ytick_5">
     <g id="line2d_14">
      <g>
       <use xlink:href="#m1103935293" x="61.715625" y="165.524869" style="stroke: #000000; stroke-width: 0.8"/>
      </g>
     </g>
     <g id="text_15">
      <!-- 200 µs -->
      <g transform="translate(20.878125 169.324088) scale(0.1 -0.1)">
       <use xlink:href="#DejaVuSans-32"/>
       <use xlink:href="#DejaVuSans-30" transform="translate(63.623047 0)"/>
       <use xlink:href="#DejaVuSans-30" transform="translate(127.246094 0)"/>
       <use xlink:href="#DejaVuSans-20" transform="translate(190.869141 0)"/>
       <use xlink:href="#DejaVuSans-b5" transform="translate(222.65625 0)"/>
       <use xlink:href="#DejaVuSans-73" transform="translate(286.279297 0)"/>
      </g>
     </g>
    </g>
    <g id="ytick_6">
     <g id="line2d_15">
      <g>
       <use xlink:href="#m1103935293" x="61.715625" y="134.798555" style="stroke: #000000; stroke-width: 0.8"/>
      </g>
     </g>
     <g id="text_16">
      <!-- 250 µs -->
      <g transform="translate(20.878125 138.597774) scale(0.1 -0.1)">
       <use xlink:href="#DejaVuSans-32"/>
       <use xlink:href="#DejaVuSans-35" transform="translate(63.623047 0)"/>
       <use xlink:href="#DejaVuSans-30" transform="translate(127.246094 0)"/>
       <use xlink:href="#DejaVuSans-20" transform="translate(190.869141 0)"/>
       <use xlink:href="#DejaVuSans-b5" transform="translate(222.65625 0)"/>
       <use xlink:href="#DejaVuSans-73" transform="translate(286.279297 0)"/>
      </g>
     </g>
    </g>
    <g id="ytick_7">
     <g id="line2d_16">
      <g>
       <use xlink:href="#m1103935293" x="61.715625" y="104.072241" style="stroke: #000000; stroke-width: 0.8"/>
      </g>
     </g>
     <g id="text_17">
      <!-- 300 µs -->
      <g transform="translate(20.878125 107.87146) scale(0.1 -0.1)">
       <use xlink:href="#DejaVuSans-33"/>
       <use xlink:href="#DejaVuSans-30" transform="translate(63.623047 0)"/>
       <use xlink:href="#DejaVuSans-30" transform="translate(127.246094 0)"/>
       <use xlink:href="#DejaVuSans-20" transform="translate(190.869141 0)"/>
       <use xlink:href="#DejaVuSans-b5" transform="translate(222.65625 0)"/>
       <use xlink:href="#DejaVuSans-73" transform="translate(286.279297 0)"/>
      </g>
     </g>
    </g>
    <g id="ytick_8">
     <g id="line2d_17">
      <g>
       <use xlink:href="#m1103935293" x="61.715625" y="73.345927" style="stroke: #000000; stroke-width: 0.8"/>
      </g>
     </g>
     <g id="text_18">
      <!-- 350 µs -->
      <g transform="translate(20.878125 77.145146) scale(0.1 -0.1)">
       <use xlink:href="#DejaVuSans-33"/>
       <use xlink:href="#DejaVuSans-35" transform="translate(63.623047 0)"/>
       <use xlink:href="#DejaVuSans-30" transform="translate(127.246094 0)"/>
       <use xlink:href="#DejaVuSans-20" transform="translate(190.869141 0)"/>
       <use xlink:href="#DejaVuSans-b5" transform="translate(222.65625 0)"/>
       <use xlink:href="#DejaVuSans-73" transform="translate(286.279297 0)"/>
      </g>
     </g>
    </g>
    <g id="ytick_9">
     <g id="line2d_18">
      <g>
       <use xlink:href="#m1103935293" x="61.715625" y="42.619613" style="stroke: #000000; stroke-width: 0.8"/>
      </g>
     </g>
     <g id="text_19">
      <!-- 400 µs -->
      <g transform="translate(20.878125 46.418832) scale(0.1 -0.1)">
       <use xlink:href="#DejaVuSans-34"/>
       <use xlink:href="#DejaVuSans-30" transform="translate(63.623047 0)"/>
       <use xlink:href="#DejaVuSans-30" transform="translate(127.246094 0)"/>
       <use xlink:href="#DejaVuSans-20" transform="translate(190.869141 0)"/>
       <use xlink:href="#DejaVuSans-b5" transform="translate(222.65625 0)"/>
       <use xlink:href="#DejaVuSans-73" transform="translate(286.279297 0)"/>
      </g>
     </g>
    </g>
    <g id="text_20">
     <!-- Read latency (s) -->
     <g transform="translate(14.798438 195.98975) rotate(-90) scale(0.1 -0.1)">
      <defs>
       <path id="DejaVuSans-52" d="M 2841 2188 
Q 3044 2119 3236 1894 
Q 3428 1669 3622 1275 
L 4263 0 
L 3584 0 
L 2988 1197 
Q 2756 1666 2539 1819 
Q 2322 1972 1947 1972 
L 1259 1972 
L 1259 0 
L 628 0 
L 628 4666 
L 2053 4666 
Q 2853 4666 3247 4331 
Q 3641 3997 3641 3322 
Q 3641 2881 3436 2590 
Q 3231 2300 2841 2188 
z
M 1259 4147 
L 1259 2491 
L 2053 2491 
Q 2509 2491 2742 2702 
Q 2975 2913 2975 3322 
Q 2975 3731 2742 3939 
Q 2509 4147 2053 4147 
L 1259 4147 
z
" transform="scale(0.015625)"/>
       <path id="DejaVuSans-64" d="M 2906 2969 
L 2906 4863 
L 3481 4863 
L 3481 0 
L 2906 0 
L 2906 525 
Q 2725 213 2448 61 
Q 2172 -91 1784 -91 
Q 1150 -91 751 415 
Q 353 922 353 1747 
Q 353 2572 751 3078 
Q 1150 3584 1784 3584 
Q 2172 3584 2448 3432 
Q 2725 3281 2906 2969 
z
M 947 1747 
Q 947 1113 1208 752 
Q 1469 391 1925 391 
Q 2381 391 2643 752 
Q 2906 1113 2906 1747 
Q 2906 2381 2643 2742 
Q 2381 3103 1925 3103 
Q 1469 3103 1208 2742 
Q 947 2381 947 1747 
z
" transform="scale(0.015625)"/>
       <path id="DejaVuSans-79" d="M 2059 -325 
Q 1816 -950 1584 -1140 
Q 1353 -1331 966 -1331 
L 506 -1331 
L 506 -850 
L 844 -850 
Q 1081 -850 1212 -737 
Q 1344 -625 1503 -206 
L 1606 56 
L 191 3500 
L 800 3500 
L 1894 763 
L 2988 3500 
L 3597 3500 
L 2059 -325 
z
" transform="scale(0.015625)"/>
       <path id="DejaVuSans-28" d="M 1984 4856 
Q 1566 4138 1362 3434 
Q 1159 2731 1159 2009 
Q 1159 1288 1364 580 
Q 1569 -128 1984 -844 
L 1484 -844 
Q 1016 -109 783 600 
Q 550 1309 550 2009 
Q 550 2706 781 3412 
Q 1013 4119 1484 4856 
L 1984 4856 
z
" transform="scale(0.015625)"/>
       <path id="DejaVuSans-29" d="M 513 4856 
L 1013 4856 
Q 1481 4119 1714 3412 
Q 1947 2706 1947 2009 
Q 1947 1309 1714 600 
Q 1481 -109 1013 -844 
L 513 -844 
Q 928 -128 1133 580 
Q 1338 1288 1338 2009 
Q 1338 2731 1133 3434 
Q 928 4138 513 4856 
z
" transform="scale(0.015625)"/>
      </defs>
      <use xlink:href="#DejaVuSans-52"/>
      <use xlink:href="#DejaVuSans-65" transform="translate(64.982422 0)"/>
      <use xlink:href="#DejaVuSans-61" transform="translate(126.505859 0)"/>
      <use xlink:href="#DejaVuSans-64" transform="translate(187.785156 0)"/>
      <use xlink:href="#DejaVuSans-20" transform="translate(251.261719 0)"/>
      <use xlink:href="#DejaVuSans-6c" transform="translate(283.048828 0)"/>
      <use xlink:href="#DejaVuSans-61" transform="translate(310.832031 0)"/>
      <use xlink:href="#DejaVuSans-74" transform="translate(372.111328 0)"/>
      <use xlink:href="#DejaVuSans-65" transform="translate(411.320312 0)"/>
      <use xlink:href="#DejaVuSans-6e" transform="translate(472.84375 0)"/>
      <use xlink:href="#DejaVuSans-63" transform="translate(536.222656 0)"/>
      <use xlink:href="#DejaVuSans-79" transform="translate(591.203125 0)"/>
      <use xlink:href="#DejaVuSans-20" transform="translate(650.382812 0)"/>
      <use xlink:href="#DejaVuSans-28" transform="translate(682.169922 0)"/>
      <use xlink:href="#DejaVuSans-73" transform="translate(721.183594 0)"/>
      <use xlink:href="#DejaVuSans-29" transform="translate(773.283203 0)"/>
     </g>
    </g>
   </g>
   <g id="line2d_19">
    <path d="M 146.635325 193.22276 
L 147.070811 193.186695 
L 147.506296 193.42187 
L 147.941782 193.004116 
L 148.377268 192.889158 
L 148.812753 193.068732 
L 149.248239 192.124277 
L 149.683725 192.067926 
L 150.11921 192.296338 
L 150.554696 191.886097 
L 150.990181 189.723694 
L 151.425667 189.461471 
L 151.861153 189.368302 
L 152.296638 188.87391 
L 152.732124 188.572616 
L 153.16761 188.439626 
L 153.603095 188.024877 
L 154.038581 187.836287 
L 154.474067 185.685905 
L 155.780523 183.74966 
L 157.957952 180.158177 
L 158.393437 179.596162 
L 158.828923 175.735693 
L 159.264409 175.220263 
L 160.13538 173.995552 
L 160.570866 173.434289 
L 161.877322 170.745936 
L 162.748294 169.3131 
L 163.619265 167.471525 
L 164.925722 165.223467 
L 165.796693 163.878539 
L 166.232179 162.75977 
L 167.538636 161.254052 
L 167.974121 160.365949 
L 169.280578 158.883523 
L 170.587035 157.17569 
L 171.458007 156.124542 
L 172.328978 154.984735 
L 172.764463 152.86591 
L 173.635435 151.640448 
L 175.377377 148.541854 
L 176.248349 147.023363 
L 177.11932 145.461293 
L 177.990291 144.515336 
L 179.732234 141.582041 
L 180.167719 140.967431 
L 180.603205 141.430267 
L 181.909662 139.779537 
L 182.345148 138.980845 
L 182.780633 138.619443 
L 183.216119 138.016855 
L 184.08709 136.371384 
L 186.264518 132.603333 
L 187.570975 131.034501 
L 188.441947 129.827822 
L 190.619375 125.653287 
L 191.490346 124.122774 
L 191.925832 123.604338 
L 192.796803 122.246637 
L 193.667774 121.231555 
L 194.10326 120.491469 
L 194.538746 118.856517 
L 194.974231 117.857965 
L 195.409717 117.474773 
L 195.845202 115.682788 
L 196.280688 115.128287 
L 197.151659 113.328038 
L 197.587145 112.709671 
L 198.893602 110.331629 
L 199.764573 109.018258 
L 200.200059 108.188009 
L 200.635545 105.005264 
L 203.248458 100.36113 
L 203.683944 99.695428 
L 204.554915 98.066488 
L 205.425887 96.556262 
L 205.861372 95.461536 
L 206.296858 94.76052 
L 207.167829 92.579333 
L 208.0388 91.310292 
L 208.474286 90.0683 
L 209.345257 88.762443 
L 209.780743 87.838274 
L 210.216229 87.760885 
L 210.651714 87.119978 
L 211.522686 85.41515 
L 215.006571 78.825755 
L 215.442056 78.550759 
L 215.877542 78.143524 
L 216.313028 78.123989 
L 216.748513 77.928636 
L 217.619485 77.871533 
L 218.05497 78.253973 
L 218.925941 77.874538 
L 219.361427 77.939155 
L 219.796913 77.779867 
L 220.232398 77.81443 
L 221.10337 76.942856 
L 221.538855 76.919564 
L 221.974341 79.738653 
L 222.845312 80.026423 
L 223.280798 80.039196 
L 224.151769 80.448685 
L 225.02274 80.476485 
L 225.458226 80.783039 
L 225.893712 80.729692 
L 226.764683 81.284193 
L 227.635654 81.33754 
L 228.07114 81.097106 
L 228.942111 79.951287 
L 229.377597 80.061737 
L 230.684054 79.956547 
L 231.119539 80.575664 
L 231.990511 79.890427 
L 232.425996 79.695826 
L 232.861482 79.749924 
L 233.732453 79.203688 
L 234.167939 79.696577 
L 234.603425 79.410311 
L 235.03891 77.864019 
L 235.474396 78.160054 
L 235.909881 80.625254 
L 236.345367 80.414123 
L 238.08731 80.188716 
L 238.522795 80.419382 
L 238.958281 80.463712 
L 239.393767 81.256393 
L 241.135709 81.249631 
L 241.571195 81.42094 
L 242.00668 81.153457 
L 242.442166 80.743968 
L 242.877652 80.813844 
L 243.313137 80.10231 
L 243.748623 82.372157 
L 244.184109 81.892792 
L 245.05508 81.62606 
L 245.490566 81.554682 
L 245.926051 81.734256 
L 246.797022 82.34586 
L 247.667994 82.062598 
L 248.103479 79.117282 
L 248.538965 79.312634 
L 248.974451 78.946724 
L 250.280908 78.329109 
L 250.716393 78.53498 
L 251.151879 78.575554 
L 251.587365 78.06388 
L 252.02285 77.960944 
L 252.458336 77.623585 
L 252.893821 77.936149 
L 253.764793 77.634856 
L 254.200278 77.048798 
L 254.635764 76.972911 
L 255.07125 76.709185 
L 255.506735 76.733979 
L 255.942221 76.497302 
L 256.813192 76.387604 
L 257.248678 75.99765 
L 257.684164 77.238139 
L 258.119649 76.927078 
L 258.555135 75.441647 
L 258.99062 75.253807 
L 259.426106 74.934481 
L 259.861592 74.977308 
L 260.297077 75.375527 
L 260.732563 75.304148 
L 261.168049 74.8894 
L 262.03902 75.212483 
L 262.474506 74.935232 
L 262.909991 74.470143 
L 263.780962 74.114 
L 264.216448 74.631684 
L 264.651934 74.361947 
L 265.087419 74.380731 
L 265.522905 74.76242 
L 265.958391 74.714334 
L 266.829362 74.190638 
L 267.264848 74.086951 
L 267.700333 73.374665 
L 268.135819 73.250691 
L 268.571305 73.283 
L 269.00679 72.856229 
L 269.442276 72.732256 
L 270.313247 72.998987 
L 270.748733 72.525633 
L 271.184218 72.829181 
L 271.619704 70.089735 
L 272.05519 69.888372 
L 272.490675 69.341385 
L 273.361647 69.253476 
L 274.232618 69.535986 
L 275.103589 69.707295 
L 275.539075 68.295497 
L 275.97456 68.395427 
L 276.410046 67.07304 
L 276.845532 65.073681 
L 277.281017 64.920404 
L 277.716503 65.032356 
L 278.151989 64.709273 
L 278.587474 64.021782 
L 279.02296 64.154772 
L 279.458446 64.888096 
L 279.893931 65.00681 
L 280.329417 65.340412 
L 280.764902 64.926415 
L 281.200388 64.787414 
L 282.071359 65.241984 
L 282.506845 64.947453 
L 283.377816 65.428321 
L 284.684273 65.719847 
L 285.119759 65.270536 
L 285.555245 67.502064 
L 285.99073 67.441956 
L 286.426216 67.625287 
L 286.861701 67.46074 
L 287.297187 67.554659 
L 287.732673 67.390864 
L 288.168158 67.398377 
L 288.603644 67.290933 
L 289.474615 67.661352 
L 290.345587 67.574946 
L 290.781072 67.811623 
L 291.216558 67.752266 
L 292.087529 68.306016 
L 292.523015 68.306767 
L 292.9585 68.03703 
L 293.393986 68.777116 
L 294.264957 68.655396 
L 295.135929 69.391725 
L 295.571414 69.327109 
L 296.0069 69.82075 
L 296.442386 69.855312 
L 296.877871 70.13632 
L 297.313357 70.164871 
L 298.184328 70.595398 
L 299.055299 70.582625 
L 299.490785 70.865887 
L 299.926271 71.010898 
L 300.797242 71.895245 
L 301.232728 71.548118 
L 301.668213 71.496274 
L 302.103699 71.572913 
L 302.539185 71.214516 
L 303.410156 70.903454 
L 303.845641 70.898195 
L 304.716613 71.472982 
L 305.152098 71.462463 
L 305.587584 70.694577 
L 306.458555 71.309187 
L 307.329527 70.539798 
L 307.765012 70.227234 
L 308.200498 70.246018 
L 308.635984 69.478883 
L 309.071469 69.363174 
L 309.506955 69.529224 
L 309.94244 69.560029 
L 310.377926 69.418023 
L 310.813412 69.642678 
L 311.684383 69.127248 
L 312.119869 69.297055 
L 312.555354 69.32786 
L 312.99084 69.173832 
L 313.861811 69.82075 
L 314.297297 69.502926 
L 314.732782 68.965706 
L 315.168268 69.00628 
L 315.603754 67.840175 
L 316.039239 67.879997 
L 316.474725 70.11453 
L 317.345696 70.05893 
L 317.781182 70.199433 
L 318.216668 69.977783 
L 318.652153 70.388024 
L 319.087639 70.638977 
L 319.523125 70.71261 
L 319.95861 72.145446 
L 320.394096 71.720179 
L 321.265067 71.936569 
L 321.700553 71.684114 
L 322.136038 71.784044 
L 322.571524 71.72093 
L 323.00701 71.349009 
L 323.442495 71.325717 
L 323.877981 71.061991 
L 324.313467 72.098862 
L 324.748952 71.777282 
L 325.184438 71.708908 
L 325.619924 71.908769 
L 326.055409 71.863688 
L 326.490895 71.442177 
L 326.92638 71.433912 
L 327.361866 71.785547 
L 327.797352 71.920039 
L 328.232837 72.448994 
L 328.668323 73.285254 
L 329.103809 73.394952 
L 329.539294 73.740576 
L 329.97478 73.534704 
L 330.410266 72.9231 
L 330.845751 72.812651 
L 331.281237 72.231101 
L 331.716722 71.143888 
L 332.152208 71.435415 
L 332.587694 71.41062 
L 333.023179 74.909686 
L 333.458665 74.708323 
L 333.894151 75.143358 
L 334.329636 75.026898 
L 335.200608 75.198958 
L 335.636093 74.975806 
L 336.071579 75.216991 
L 336.507065 75.769238 
L 336.94255 75.448409 
L 338.684493 75.740686 
L 339.555464 76.230571 
L 339.99095 76.307209 
L 340.426435 76.082553 
L 340.861921 75.135093 
L 341.297407 74.963784 
L 342.603864 75.735427 
L 343.039349 75.824838 
L 343.474835 77.150231 
L 343.91032 77.51539 
L 344.781292 77.614569 
L 345.652263 77.344832 
L 346.087749 77.962447 
L 346.523234 77.873036 
L 346.95872 78.046599 
L 347.394206 77.343329 
L 347.829691 77.782873 
L 348.265177 77.806916 
L 348.700662 78.028566 
L 349.571634 77.865522 
L 350.007119 77.993253 
L 351.313576 77.972215 
L 351.749062 77.291486 
L 352.184548 77.623585 
L 353.055519 77.652888 
L 353.491005 77.63185 
L 353.92649 78.275011 
L 354.361976 78.664965 
L 355.232947 78.993308 
L 355.668433 79.419327 
L 356.103918 79.33818 
L 356.539404 80.973132 
L 356.97489 81.021219 
L 357.410375 81.58699 
L 357.845861 81.64259 
L 358.281347 81.863489 
L 358.716832 81.748531 
L 359.152318 81.789105 
L 360.023289 82.257951 
L 360.458775 83.743382 
L 360.89426 83.868859 
L 361.329746 85.07704 
L 361.765232 87.261984 
L 362.200717 84.88845 
L 362.636203 84.926769 
L 363.071689 84.234018 
L 363.507174 84.915498 
L 363.94266 84.954569 
L 364.378146 84.37377 
L 364.813631 84.443647 
L 365.249117 84.089758 
L 365.684603 85.351285 
L 366.120088 85.191246 
L 366.991059 85.266382 
L 367.426545 85.419658 
L 367.862031 85.17697 
L 369.168488 85.066521 
L 369.603973 84.802795 
L 370.039459 85.06051 
L 370.474945 82.400709 
L 371.345916 80.126353 
L 371.781401 79.52076 
L 372.216887 79.536538 
L 373.523344 80.083526 
L 373.95883 79.679296 
L 374.829801 79.377251 
L 375.700772 79.634215 
L 376.136258 79.631209 
L 376.571744 79.834827 
L 377.007229 78.862572 
L 377.442715 78.452331 
L 377.8782 78.758133 
L 378.749172 78.619884 
L 379.184657 78.725074 
L 379.620143 78.500418 
L 380.055629 78.067637 
L 380.491114 77.974469 
L 380.9266 77.643121 
L 381.362086 76.550648 
L 381.797571 76.294436 
L 382.233057 75.186185 
L 382.668543 75.550593 
L 383.104028 75.307154 
L 383.539514 75.709881 
L 383.974999 75.665551 
L 384.410485 75.734675 
L 384.845971 74.441591 
L 385.281456 74.208671 
L 385.716942 73.567012 
L 386.152428 73.911885 
L 386.587913 73.654921 
L 387.023399 73.744333 
L 387.458885 74.257509 
L 387.89437 74.207168 
L 388.329856 73.678213 
L 388.765341 69.986048 
L 389.200827 69.223422 
L 390.071798 69.124243 
L 390.507284 70.006335 
L 391.378255 69.532229 
L 391.813741 69.607365 
L 392.249227 69.415017 
L 392.684712 68.484838 
L 393.120198 68.312026 
L 393.991169 66.600437 
L 394.426655 66.565123 
L 394.86214 66.706378 
L 395.297626 65.346423 
L 395.733112 64.965485 
L 396.168597 64.858041 
L 396.604083 64.992534 
L 397.039569 60.280779 
L 397.475054 59.887068 
L 397.91054 60.25373 
L 398.346026 60.112475 
L 399.216997 60.27026 
L 399.652483 60.852561 
L 400.087968 60.691019 
L 400.523454 60.887123 
L 400.958939 60.736852 
L 401.394425 60.748874 
L 401.829911 61.057681 
L 401.829911 61.057681 
" clip-path="url(#p07ca51f6bf)" style="fill: none; stroke: #1f77b4; stroke-opacity: 0.8; stroke-width: 1.5; stroke-linecap: square"/>
   </g>
   <g id="line2d_20">
    <path d="M 146.635325 72.946392 
L 147.070811 73.696997 
L 147.506296 74.063659 
L 147.941782 74.605387 
L 148.812753 75.191445 
L 149.683725 76.304204 
L 150.11921 77.039781 
L 150.554696 78.578559 
L 150.990181 79.021859 
L 151.425667 80.520815 
L 152.296638 82.750841 
L 153.16761 85.9967 
L 153.603095 87.84128 
L 154.038581 88.850351 
L 155.345038 94.160938 
L 155.780523 95.429227 
L 156.651495 99.031981 
L 157.522466 100.271719 
L 158.393437 102.03966 
L 158.828923 102.708367 
L 159.264409 103.898516 
L 159.699894 105.897875 
L 160.570866 108.001673 
L 161.441837 110.429305 
L 161.877322 110.885378 
L 162.312808 111.753195 
L 162.748294 112.217533 
L 163.619265 112.324977 
L 164.054751 112.644303 
L 164.490236 112.647309 
L 164.925722 114.986281 
L 165.361208 114.96374 
L 166.232179 114.560262 
L 166.667665 114.301795 
L 167.538636 114.262725 
L 168.409607 114.157535 
L 168.845093 113.609045 
L 169.280578 113.61731 
L 169.716064 113.25741 
L 171.022521 113.315264 
L 171.893492 112.699152 
L 172.328978 112.173203 
L 172.764463 112.019175 
L 173.199949 111.705859 
L 173.635435 112.019175 
L 174.07092 112.016921 
L 174.506406 112.382831 
L 174.941892 112.248339 
L 175.377377 112.634536 
L 176.683834 111.636734 
L 178.425777 111.339197 
L 178.861262 112.850175 
L 179.296748 112.242328 
L 179.732234 112.210019 
L 180.167719 111.751692 
L 180.603205 112.146154 
L 181.038691 112.240825 
L 181.909662 111.56235 
L 182.345148 111.119801 
L 183.216119 111.043163 
L 183.651605 111.317408 
L 184.08709 111.271575 
L 184.522576 110.719328 
L 184.958061 110.630668 
L 185.393547 110.261752 
L 185.829033 110.636679 
L 186.264518 110.693031 
L 186.700004 111.224991 
L 187.570975 110.534495 
L 188.006461 110.535997 
L 188.441947 110.28279 
L 188.877432 110.231698 
L 189.312918 109.711008 
L 189.748403 108.952138 
L 190.183889 108.62079 
L 191.05486 108.332269 
L 191.490346 108.671131 
L 192.361317 108.564438 
L 193.232289 107.843136 
L 193.667774 107.907002 
L 194.974231 106.873887 
L 195.845202 106.89793 
L 197.151659 105.820485 
L 197.587145 106.123282 
L 198.022631 105.980524 
L 198.893602 106.267542 
L 199.329088 106.828805 
L 199.764573 107.123337 
L 201.07103 107.100796 
L 201.506516 107.486242 
L 202.377487 106.810021 
L 202.812973 106.796497 
L 203.248458 106.394521 
L 203.683944 106.356954 
L 204.11943 105.646171 
L 204.554915 106.185644 
L 204.990401 106.228472 
L 205.425887 106.546295 
L 206.296858 106.672523 
L 207.167829 107.205986 
L 207.603315 109.917631 
L 208.0388 110.229444 
L 208.909772 110.029583 
L 209.345257 110.316601 
L 209.780743 110.172341 
L 211.0872 109.048312 
L 211.522686 109.51265 
L 212.393657 109.535191 
L 212.829142 109.203091 
L 213.264628 109.353363 
L 213.700114 109.326314 
L 214.135599 109.747073 
L 214.571085 109.633619 
L 215.006571 110.774177 
L 215.442056 110.490165 
L 215.877542 110.41578 
L 216.748513 110.937222 
L 217.183999 110.493922 
L 217.619485 110.312093 
L 218.05497 109.983751 
L 218.490456 109.499126 
L 218.925941 109.565245 
L 219.361427 109.356368 
L 219.796913 109.539699 
L 220.232398 109.178297 
L 221.10337 109.179799 
L 221.538855 109.144486 
L 221.974341 109.278227 
L 222.409827 109.865036 
L 222.845312 109.787647 
L 223.716283 110.362434 
L 224.151769 109.231643 
L 224.587255 108.859722 
L 225.458226 108.768056 
L 225.893712 109.055074 
L 226.764683 109.002479 
L 227.200169 109.095647 
L 227.635654 109.410466 
L 228.506626 109.077615 
L 228.942111 109.277476 
L 229.377597 109.292503 
L 229.813082 109.471326 
L 230.684054 109.467569 
L 231.119539 109.051317 
L 233.732453 108.802618 
L 234.167939 108.788343 
L 235.03891 109.375903 
L 235.474396 109.404455 
L 235.909881 109.596051 
L 237.216338 109.663673 
L 237.651824 110.031837 
L 239.393767 110.045362 
L 239.829252 109.934912 
L 240.264738 109.696732 
L 240.700224 109.277476 
L 241.135709 108.67038 
L 241.571195 108.500573 
L 242.442166 108.536638 
L 242.877652 108.157955 
L 243.748623 108.087327 
L 244.184109 107.937807 
L 244.619594 106.900184 
L 245.05508 106.682291 
L 245.490566 106.933995 
L 245.926051 106.401284 
L 246.361537 106.405792 
L 246.797022 106.770951 
L 247.667994 106.396775 
L 248.538965 106.695815 
L 249.845422 105.442553 
L 250.280908 105.456077 
L 251.151879 105.108199 
L 251.587365 105.151027 
L 252.458336 104.579996 
L 253.329307 103.715936 
L 253.764793 103.85644 
L 254.200278 103.582195 
L 254.635764 103.555146 
L 255.07125 103.30269 
L 255.506735 103.303442 
L 256.377707 103.016423 
L 256.813192 103.292171 
L 257.248678 103.42441 
L 258.119649 103.179468 
L 258.555135 103.171203 
L 258.99062 103.039715 
L 259.426106 101.709815 
L 259.861592 102.065958 
L 260.297077 101.47464 
L 260.732563 100.071107 
L 261.603534 100.258194 
L 262.03902 100.197335 
L 262.474506 99.623298 
L 262.909991 99.282183 
L 263.345477 99.257388 
L 263.780962 98.996667 
L 264.216448 99.289696 
L 264.651934 98.853158 
L 265.087419 99.288193 
L 265.522905 98.941818 
L 265.958391 99.08683 
L 266.829362 99.127403 
L 267.264848 99.523368 
L 269.00679 98.273862 
L 269.442276 98.42188 
L 269.877761 98.03418 
L 270.313247 97.855357 
L 270.748733 97.529268 
L 271.619704 97.431592 
L 272.05519 97.626945 
L 272.926161 97.660756 
L 273.361647 97.484938 
L 273.797132 97.046146 
L 274.232618 97.219709 
L 275.103589 97.949276 
L 275.539075 98.2115 
L 275.97456 98.308425 
L 276.410046 97.753172 
L 277.281017 97.626193 
L 277.716503 97.806519 
L 278.151989 98.173932 
L 278.587474 97.760686 
L 279.893931 97.757681 
L 280.329417 96.195611 
L 280.764902 96.036323 
L 281.635874 96.630646 
L 282.071359 96.844783 
L 282.506845 96.76589 
L 282.942331 94.913797 
L 283.377816 95.301497 
L 283.813302 95.470552 
L 285.119759 95.043782 
L 285.99073 94.828894 
L 286.426216 94.448707 
L 286.861701 94.591465 
L 287.297187 93.516274 
L 287.732673 93.420101 
L 288.168158 93.444144 
L 288.603644 93.052687 
L 289.03913 93.60794 
L 289.474615 93.302138 
L 289.910101 92.396753 
L 290.345587 91.99628 
L 290.781072 91.906118 
L 291.216558 91.260702 
L 292.087529 91.349362 
L 292.9585 91.199091 
L 294.264957 91.406466 
L 294.700443 91.876063 
L 295.135929 92.120254 
L 295.571414 92.094708 
L 296.0069 92.236714 
L 296.442386 92.05714 
L 297.313357 91.371903 
L 297.748842 91.46432 
L 298.184328 91.12621 
L 298.619814 91.158518 
L 299.055299 89.289143 
L 299.490785 89.377804 
L 299.926271 89.090785 
L 300.361756 88.264293 
L 301.668213 88.24025 
L 302.103699 88.104255 
L 302.539185 86.841976 
L 302.97467 87.089172 
L 303.410156 87.992302 
L 303.845641 87.159048 
L 304.716613 87.30406 
L 305.587584 87.286028 
L 306.458555 87.089172 
L 306.894041 87.055361 
L 307.329527 86.240891 
L 308.200498 85.609 
L 308.635984 85.461734 
L 309.071469 86.258172 
L 309.506955 86.350589 
L 309.94244 85.929078 
L 310.377926 85.958381 
L 311.248897 85.558659 
L 311.684383 84.403825 
L 312.119869 84.386543 
L 312.555354 83.916194 
L 312.99084 84.073228 
L 313.426326 82.874815 
L 314.297297 83.04387 
L 314.732782 82.694489 
L 316.474725 83.420299 
L 316.910211 81.548671 
L 317.781182 81.130917 
L 318.216668 80.26836 
L 318.652153 80.276624 
L 319.087639 80.398344 
L 319.523125 80.215765 
L 320.394096 79.398289 
L 320.829581 78.610116 
L 321.265067 78.668722 
L 322.136038 77.686699 
L 323.00701 76.969905 
L 324.313467 76.146419 
L 325.619924 76.24109 
L 326.055409 76.823391 
L 326.490895 76.86171 
L 326.92638 77.152485 
L 327.361866 76.540881 
L 327.797352 76.835412 
L 328.232837 76.769293 
L 328.668323 77.014987 
L 329.103809 76.9669 
L 329.539294 78.332866 
L 330.410266 77.951177 
L 330.845751 78.376444 
L 331.716722 77.732532 
L 332.152208 77.951177 
L 332.587694 78.03082 
L 333.458665 77.63711 
L 333.894151 77.695715 
L 334.329636 78.076653 
L 334.765122 77.289983 
L 335.200608 76.921818 
L 335.636093 75.543831 
L 336.507065 71.536848 
L 337.378036 69.13927 
L 338.249007 69.65996 
L 338.684493 68.399935 
L 339.99095 68.392422 
L 340.426435 67.242095 
L 340.861921 67.15644 
L 341.297407 67.453977 
L 343.039349 67.138408 
L 343.474835 66.760476 
L 343.91032 66.583907 
L 344.345806 67.604249 
L 344.781292 67.462242 
L 345.216777 67.970159 
L 345.652263 69.585575 
L 346.087749 69.631408 
L 346.523234 69.83202 
L 346.95872 69.487148 
L 347.394206 69.442066 
L 347.829691 69.677241 
L 348.265177 69.755382 
L 349.136148 69.61037 
L 350.442605 69.700533 
L 350.878091 68.198572 
L 351.749062 68.340578 
L 352.184548 68.260934 
L 353.055519 68.811678 
L 353.491005 67.662855 
L 353.92649 67.708687 
L 354.797461 65.550792 
L 355.232947 65.860351 
L 355.668433 65.814518 
L 356.103918 65.578592 
L 356.97489 64.811457 
L 357.410375 64.423757 
L 358.281347 64.471844 
L 358.716832 63.355329 
L 359.587804 63.891046 
L 360.023289 62.647551 
L 360.458775 62.608481 
L 360.89426 62.398101 
L 361.329746 62.603972 
L 361.765232 61.024621 
L 363.071689 60.150794 
L 364.378146 60.766155 
L 364.813631 60.748874 
L 365.249117 62.289905 
L 365.684603 62.372555 
L 366.555574 61.499479 
L 366.991059 61.654258 
L 367.426545 61.686566 
L 367.862031 63.216328 
L 368.297516 63.191533 
L 368.733002 61.566349 
L 370.039459 62.114839 
L 370.474945 61.316148 
L 370.91043 61.440122 
L 371.345916 60.394985 
L 371.781401 59.734543 
L 372.216887 60.919432 
L 372.652373 59.295751 
L 373.087858 59.549709 
L 373.523344 59.67218 
L 374.394315 59.502374 
L 374.829801 60.360422 
L 375.265287 58.554162 
L 375.700772 57.666059 
L 376.136258 58.189003 
L 377.007229 55.796684 
L 377.442715 55.479612 
L 377.8782 52.125557 
L 378.313686 51.592846 
L 378.749172 49.709195 
L 379.620143 48.682091 
L 380.055629 48.618977 
L 380.491114 48.237288 
L 380.9266 45.607541 
L 381.362086 44.699151 
L 381.797571 43.15286 
L 382.668543 39.029417 
L 383.104028 38.9648 
L 383.539514 38.734885 
L 383.974999 38.012831 
L 384.410485 36.662644 
L 384.845971 36.093867 
L 385.281456 37.066123 
L 385.716942 36.917354 
L 386.152428 36.585254 
L 386.587913 36.514627 
L 387.023399 36.79338 
L 387.458885 37.926425 
L 388.329856 37.283264 
L 388.765341 37.821236 
L 389.200827 37.937696 
L 389.636313 37.067625 
L 390.507284 37.042079 
L 391.378255 36.982722 
L 391.813741 36.66565 
L 392.249227 37.067625 
L 393.120198 37.057106 
L 393.991169 35.743735 
L 394.426655 35.277894 
L 394.86214 35.603983 
L 395.297626 35.256856 
L 396.168597 34.990125 
L 396.604083 35.803844 
L 397.475054 35.991683 
L 397.91054 35.848174 
L 398.346026 37.140507 
L 400.087968 36.679925 
L 400.958939 36.196803 
L 401.394425 35.6686 
L 401.829911 37.583056 
L 401.829911 37.583056 
" clip-path="url(#p07ca51f6bf)" style="fill: none; stroke: #ff7f0e; stroke-opacity: 0.8; stroke-width: 1.5; stroke-linecap: square"/>
   </g>
   <g id="line2d_21">
    <path d="M 146.635325 105.867821 
L 147.070811 106.003065 
L 147.506296 105.944459 
L 147.941782 106.123282 
L 148.812753 105.512429 
L 149.248239 105.613862 
L 150.11921 105.527456 
L 150.990181 105.226914 
L 151.425667 103.498043 
L 151.861153 103.319971 
L 152.296638 102.005098 
L 152.732124 101.863091 
L 153.16761 101.935222 
L 153.603095 101.799226 
L 154.038581 102.271829 
L 154.474067 102.173402 
L 154.909552 102.241024 
L 155.345038 101.479148 
L 155.780523 101.775934 
L 156.216009 102.360489 
L 156.651495 102.119304 
L 157.08698 102.373262 
L 157.522466 101.83454 
L 157.957952 102.040412 
L 158.393437 105.239687 
L 158.828923 105.11421 
L 159.264409 106.59889 
L 159.699894 106.703329 
L 160.13538 106.332159 
L 160.570866 106.447868 
L 161.877322 105.531213 
L 162.748294 105.900129 
L 163.619265 105.705528 
L 164.490236 105.127735 
L 165.361208 105.168308 
L 165.796693 104.751305 
L 166.232179 105.257719 
L 166.667665 105.48538 
L 167.10315 105.111205 
L 167.538636 105.096929 
L 167.974121 104.746797 
L 168.409607 104.613056 
L 168.845093 104.269686 
L 169.280578 105.276503 
L 169.716064 103.843667 
L 170.15155 103.818872 
L 170.587035 103.933078 
L 171.022521 104.817425 
L 171.893492 105.017285 
L 172.328978 104.344821 
L 172.764463 104.664899 
L 173.199949 103.650568 
L 173.635435 101.67375 
L 174.07092 101.752642 
L 174.506406 102.311651 
L 174.941892 102.256051 
L 175.377377 101.922449 
L 175.812863 101.748134 
L 176.248349 101.694036 
L 176.683834 101.790961 
L 177.11932 101.621906 
L 177.554806 101.72935 
L 177.990291 100.754841 
L 178.861262 101.21993 
L 179.296748 101.549025 
L 179.732234 101.521224 
L 180.603205 100.822463 
L 181.038691 102.102023 
L 181.474176 101.364191 
L 181.909662 101.455105 
L 182.345148 101.428056 
L 182.780633 101.904416 
L 183.651605 101.899908 
L 184.08709 101.982557 
L 184.958061 101.469381 
L 185.393547 101.417537 
L 185.829033 101.066654 
L 186.264518 101.185368 
L 186.700004 101.015562 
L 187.13549 101.387483 
L 187.570975 101.271023 
L 188.006461 101.448343 
L 188.441947 101.423548 
L 188.877432 101.089946 
L 189.312918 101.096708 
L 189.748403 100.830728 
L 190.183889 101.097459 
L 190.619375 101.567057 
L 191.05486 101.742874 
L 191.490346 102.047174 
L 191.925832 102.036655 
L 193.232289 101.266515 
L 194.538746 101.799226 
L 195.409717 102.979607 
L 195.845202 102.862395 
L 196.280688 103.096819 
L 197.151659 103.094564 
L 198.022631 103.489778 
L 198.458116 101.976546 
L 198.893602 101.218428 
L 199.329088 99.616536 
L 200.200059 99.626304 
L 201.07103 99.331021 
L 201.506516 98.735946 
L 201.942001 100.004236 
L 202.377487 99.724731 
L 203.248458 99.66312 
L 203.683944 98.228781 
L 204.554915 97.799756 
L 204.990401 97.929741 
L 205.425887 98.273862 
L 205.861372 98.289641 
L 206.296858 96.895123 
L 206.732343 96.435293 
L 207.167829 96.501413 
L 207.603315 96.286525 
L 208.0388 96.405991 
L 208.909772 96.390212 
L 209.780743 96.018291 
L 211.522686 96.622381 
L 211.958171 96.406742 
L 212.393657 96.501413 
L 213.264628 95.897322 
L 213.700114 95.656888 
L 214.135599 95.66891 
L 214.571085 95.436741 
L 215.006571 95.391659 
L 215.442056 95.069328 
L 215.877542 95.266934 
L 216.313028 95.106144 
L 217.183999 94.319474 
L 217.619485 94.463734 
L 218.490456 93.859644 
L 218.925941 93.289365 
L 219.796913 92.718334 
L 220.232398 91.558991 
L 220.667884 91.305784 
L 221.10337 91.307287 
L 221.538855 90.763305 
L 221.974341 90.922592 
L 224.151769 89.797812 
L 224.587255 89.912018 
L 225.02274 89.773017 
L 225.458226 89.08778 
L 225.893712 88.643728 
L 226.764683 87.561775 
L 227.200169 87.023804 
L 228.07114 86.446763 
L 228.942111 86.571488 
L 229.813082 85.997451 
L 230.684054 85.962889 
L 231.119539 85.816375 
L 231.555025 86.538428 
L 231.990511 86.332556 
L 232.425996 85.935089 
L 232.861482 84.082996 
L 233.296968 84.140099 
L 233.732453 84.073979 
L 234.167939 83.853081 
L 235.474396 84.136342 
L 235.909881 83.831291 
L 236.345367 85.258117 
L 236.780853 85.330998 
L 237.216338 86.402432 
L 237.651824 86.397173 
L 238.522795 86.644369 
L 238.958281 86.230372 
L 239.393767 86.304756 
L 239.829252 86.111658 
L 240.264738 86.808165 
L 240.700224 86.751813 
L 241.135709 86.407692 
L 242.00668 85.995197 
L 242.442166 86.442254 
L 242.877652 86.040279 
L 243.313137 86.154485 
L 243.748623 86.150728 
L 244.619594 86.355097 
L 245.05508 86.095879 
L 245.490566 86.065074 
L 245.926051 86.280713 
L 246.361537 86.65038 
L 247.232508 86.365616 
L 247.667994 84.635994 
L 248.103479 84.381284 
L 248.974451 84.12958 
L 249.409936 84.442895 
L 250.280908 84.27384 
L 250.716393 85.554903 
L 251.151879 85.514329 
L 251.587365 84.880936 
L 252.02285 84.718643 
L 252.458336 84.193445 
L 252.893821 84.154374 
L 253.764793 83.882383 
L 254.200278 84.136342 
L 254.635764 86.482076 
L 255.07125 86.154485 
L 255.506735 86.313772 
L 255.942221 86.035771 
L 256.377707 85.457226 
L 256.813192 85.173214 
L 257.248678 86.398676 
L 257.684164 85.997451 
L 258.119649 86.890063 
L 258.555135 88.827059 
L 258.99062 88.784232 
L 260.297077 87.935951 
L 261.168049 88.235742 
L 262.03902 87.933697 
L 262.474506 87.996811 
L 262.909991 89.607719 
L 263.345477 89.025417 
L 264.216448 88.808275 
L 265.087419 88.606912 
L 265.958391 88.217709 
L 266.393876 88.751172 
L 267.264848 88.674534 
L 267.700333 87.990048 
L 268.135819 87.637662 
L 268.571305 87.660954 
L 269.00679 87.428034 
L 269.442276 87.725571 
L 269.877761 87.277763 
L 271.619704 88.246261 
L 272.05519 88.216207 
L 272.926161 88.737648 
L 273.361647 88.704588 
L 273.797132 87.901388 
L 274.232618 87.336368 
L 274.668104 87.748112 
L 276.410046 87.87434 
L 276.845532 87.642922 
L 277.281017 87.697019 
L 277.716503 87.934448 
L 278.151989 88.008832 
L 278.587474 87.746609 
L 279.02296 87.916415 
L 279.458446 87.379947 
L 279.893931 87.556516 
L 280.329417 87.148529 
L 280.764902 87.246206 
L 281.635874 87.168065 
L 282.071359 87.016291 
L 282.506845 85.986932 
L 282.942331 85.971154 
L 283.377816 87.213146 
L 283.813302 88.080963 
L 284.248788 89.500275 
L 284.684273 89.655805 
L 285.119759 89.94658 
L 285.555245 90.011948 
L 285.99073 89.961607 
L 286.426216 89.260592 
L 286.861701 89.145634 
L 287.297187 89.449934 
L 287.732673 89.50854 
L 288.168158 87.835269 
L 288.603644 89.041196 
L 289.910101 88.91046 
L 290.345587 88.53929 
L 290.781072 88.851103 
L 291.216558 90.077316 
L 291.652044 90.531887 
L 292.523015 90.501833 
L 292.9585 90.758045 
L 293.393986 90.734753 
L 293.829472 88.8496 
L 294.264957 89.189964 
L 294.700443 89.385317 
L 295.135929 89.02692 
L 295.571414 89.075758 
L 296.0069 88.929995 
L 296.442386 88.451381 
L 296.877871 88.591133 
L 297.313357 87.781923 
L 297.748842 88.108763 
L 298.184328 88.277067 
L 298.619814 88.24551 
L 299.055299 88.515998 
L 299.490785 88.458143 
L 299.926271 88.247012 
L 300.361756 88.573101 
L 301.232728 88.274812 
L 302.103699 88.796254 
L 302.539185 88.673783 
L 302.97467 89.207246 
L 303.845641 89.852661 
L 304.281127 89.280127 
L 304.716613 89.633265 
L 305.152098 90.994722 
L 305.587584 91.207356 
L 306.02307 91.257697 
L 306.458555 91.695738 
L 306.894041 91.676954 
L 307.329527 91.900107 
L 307.765012 91.477844 
L 309.94244 92.872362 
L 310.377926 93.321673 
L 310.813412 93.515523 
L 311.684383 94.609498 
L 312.555354 94.706423 
L 313.861811 94.907786 
L 314.297297 95.053549 
L 314.732782 95.387903 
L 315.168268 95.577245 
L 315.603754 95.638856 
L 316.039239 95.029506 
L 316.474725 95.420211 
L 316.910211 95.52465 
L 317.345696 95.112155 
L 317.781182 96.91541 
L 318.652153 96.977021 
L 319.087639 95.859754 
L 319.523125 95.57499 
L 320.394096 95.66365 
L 320.829581 94.658336 
L 321.265067 94.861953 
L 321.700553 94.883743 
L 322.136038 95.108398 
L 323.00701 94.873975 
L 323.442495 94.949862 
L 323.877981 95.245896 
L 324.313467 94.739482 
L 325.619924 94.118111 
L 326.055409 94.231565 
L 326.490895 94.124121 
L 326.92638 94.206019 
L 327.361866 94.172208 
L 327.797352 93.919001 
L 328.232837 94.007661 
L 328.668323 93.411836 
L 329.539294 93.226251 
L 329.97478 93.606437 
L 330.410266 93.647761 
L 330.845751 93.337451 
L 331.281237 93.345716 
L 332.152208 92.909178 
L 332.587694 94.275144 
L 333.023179 94.200008 
L 333.458665 93.967088 
L 333.894151 94.284912 
L 334.329636 94.081294 
L 335.200608 94.423913 
L 336.071579 93.899466 
L 336.94255 94.830396 
L 337.378036 94.953619 
L 338.249007 94.879234 
L 338.684493 94.775547 
L 339.119978 94.420156 
L 339.555464 94.236073 
L 339.99095 94.51107 
L 340.426435 94.373572 
L 340.861921 94.693649 
L 341.297407 94.858197 
L 341.732892 94.71619 
L 342.168378 94.91004 
L 342.603864 95.275199 
L 343.474835 95.352589 
L 344.345806 95.835711 
L 344.781292 95.970955 
L 345.216777 96.397726 
L 346.523234 96.420266 
L 346.95872 96.868075 
L 347.829691 96.553256 
L 348.265177 96.979275 
L 348.700662 96.801955 
L 349.136148 96.844783 
L 349.571634 97.073946 
L 350.007119 97.024357 
L 350.442605 97.530771 
L 351.313576 97.883908 
L 351.749062 97.92899 
L 352.184548 97.780221 
L 352.620033 98.091283 
L 353.055519 98.038688 
L 353.491005 97.8516 
L 353.92649 98.022158 
L 354.361976 97.894427 
L 354.797461 98.273111 
L 356.97489 98.309927 
L 357.845861 98.10105 
L 358.281347 97.998866 
L 359.152318 99.734499 
L 360.023289 99.527125 
L 360.458775 99.170982 
L 360.89426 99.111625 
L 361.765232 98.813336 
L 362.200717 98.819347 
L 362.636203 98.526318 
L 363.071689 98.736698 
L 363.507174 98.723925 
L 363.94266 98.374544 
L 364.813631 98.314436 
L 365.249117 98.269354 
L 366.120088 98.425636 
L 366.555574 97.756929 
L 366.991059 98.028169 
L 367.426545 98.445172 
L 367.862031 98.342987 
L 368.297516 98.611221 
L 368.733002 98.594691 
L 369.168488 98.690865 
L 370.039459 98.043196 
L 370.474945 97.900438 
L 370.91043 97.906449 
L 371.345916 99.055273 
L 371.781401 99.162717 
L 372.216887 98.886969 
L 372.652373 98.80432 
L 373.087858 100.534693 
L 373.95883 100.980999 
L 374.394315 100.832982 
L 374.829801 101.000534 
L 375.265287 100.922393 
L 375.700772 100.662424 
L 376.136258 100.601564 
L 376.571744 100.425747 
L 377.007229 100.674446 
L 377.8782 100.00649 
L 378.313686 99.231842 
L 378.749172 101.366445 
L 379.620143 101.08694 
L 380.055629 101.352921 
L 380.491114 101.107227 
L 380.9266 101.107227 
L 381.362086 101.527235 
L 381.797571 101.132022 
L 382.668543 101.879621 
L 383.539514 102.059947 
L 383.974999 101.846562 
L 384.410485 102.146353 
L 384.845971 102.138839 
L 385.281456 101.732355 
L 385.716942 101.662479 
L 386.152428 101.838297 
L 387.023399 101.5911 
L 387.458885 101.58509 
L 388.329856 101.322115 
L 388.765341 101.345407 
L 389.200827 102.419847 
L 390.071798 101.833789 
L 390.507284 101.017064 
L 390.94277 100.824717 
L 391.378255 100.132718 
L 391.813741 100.17254 
L 392.249227 98.73219 
L 392.684712 99.243863 
L 393.120198 99.314491 
L 393.555684 99.267907 
L 394.426655 98.657805 
L 394.86214 98.518804 
L 395.733112 98.965862 
L 396.604083 98.898991 
L 397.475054 99.130409 
L 397.91054 99.027473 
L 398.346026 99.089835 
L 398.781511 99.29721 
L 399.652483 99.252128 
L 400.523454 99.621796 
L 400.958939 100.171037 
L 401.394425 100.108674 
L 401.829911 100.362633 
L 401.829911 100.362633 
" clip-path="url(#p07ca51f6bf)" style="fill: none; stroke: #2ca02c; stroke-opacity: 0.8; stroke-width: 1.5; stroke-linecap: square"/>
   </g>
   <g id="line2d_22">
    <path d="M 146.635325 287.771186 
L 210.651714 287.771186 
L 248.538965 287.815516 
L 294.700443 287.786213 
L 324.313467 287.741883 
L 335.636093 287.730612 
L 374.829801 287.705818 
L 401.829911 287.704315 
L 401.829911 287.704315 
" clip-path="url(#p07ca51f6bf)" style="fill: none; stroke: #d62728; stroke-opacity: 0.8; stroke-width: 1.5; stroke-linecap: square"/>
   </g>
   <g id="line2d_23">
    <path d="M 146.635325 215.332171 
L 147.506296 215.371993 
L 150.11921 215.199933 
L 150.990181 214.951985 
L 151.861153 214.806222 
L 152.732124 214.985796 
L 153.16761 214.939963 
L 153.603095 214.782179 
L 154.474067 214.754378 
L 155.345038 214.404998 
L 156.216009 212.94361 
L 156.651495 212.851944 
L 157.522466 212.92708 
L 159.699894 212.493547 
L 160.13538 212.229821 
L 160.570866 212.132145 
L 161.006351 212.190751 
L 161.441837 211.990139 
L 161.877322 211.295885 
L 162.748294 211.304902 
L 163.183779 211.244042 
L 163.619265 211.393562 
L 165.796693 211.222252 
L 166.232179 210.508464 
L 166.667665 210.62267 
L 167.10315 210.476156 
L 169.280578 210.467139 
L 169.716064 210.626427 
L 171.458007 210.845071 
L 171.893492 210.927721 
L 172.328978 209.996039 
L 172.764463 209.860795 
L 173.199949 210.004304 
L 174.941892 210.070423 
L 175.377377 210.004304 
L 176.248349 210.047131 
L 177.554806 209.996039 
L 177.990291 209.616604 
L 178.861262 209.662437 
L 179.296748 209.678966 
L 179.732234 209.539214 
L 180.167719 209.826984 
L 182.345148 209.726302 
L 182.780633 209.854784 
L 184.958061 209.585798 
L 185.829033 209.549733 
L 186.264518 209.422754 
L 187.13549 209.378424 
L 188.006461 209.251445 
L 189.312918 209.385938 
L 189.748403 210.189889 
L 192.796803 210.086202 
L 193.232289 209.378424 
L 193.667774 209.49789 
L 195.845202 209.582793 
L 196.280688 210.174862 
L 197.151659 210.062158 
L 198.893602 209.864551 
L 201.07103 210.102731 
L 201.506516 208.96067 
L 202.812973 208.962173 
L 203.248458 209.052335 
L 204.11943 208.959167 
L 204.554915 208.953908 
L 204.990401 209.107184 
L 205.861372 208.989221 
L 206.732343 209.020778 
L 207.603315 209.124466 
L 208.0388 209.140244 
L 208.474286 209.295023 
L 208.909772 209.289764 
L 209.345257 208.639841 
L 210.651714 208.524132 
L 211.958171 208.376115 
L 213.700114 208.533899 
L 214.571085 208.363342 
L 215.877542 208.217578 
L 216.313028 208.227346 
L 216.748513 207.352767 
L 217.183999 207.383573 
L 217.619485 207.279886 
L 218.05497 207.424898 
L 218.490456 207.35953 
L 219.361427 207.424146 
L 221.10337 207.485006 
L 225.893712 207.86369 
L 227.635654 207.776532 
L 228.942111 207.777284 
L 229.377597 207.735959 
L 229.813082 207.52032 
L 230.248568 207.552628 
L 230.684054 207.373054 
L 231.119539 206.720877 
L 233.296968 206.485702 
L 234.603425 206.646492 
L 236.780853 206.807283 
L 237.651824 206.765207 
L 238.522795 206.919235 
L 238.958281 207.092798 
L 239.829252 207.161923 
L 240.264738 207.40987 
L 241.135709 208.790112 
L 242.442166 208.566959 
L 244.184109 208.936626 
L 244.619594 208.93287 
L 245.05508 209.140244 
L 246.361537 209.337851 
L 246.797022 210.006558 
L 247.667994 209.91339 
L 248.538965 210.02459 
L 249.409936 209.854784 
L 250.716393 209.771383 
L 251.151879 210.479912 
L 251.587365 210.472399 
L 252.02285 210.606892 
L 253.329307 210.452863 
L 255.942221 210.319873 
L 256.377707 209.633885 
L 256.813192 209.567014 
L 257.248678 210.392755 
L 257.684164 210.505458 
L 258.555135 210.414544 
L 259.426106 210.48968 
L 259.861592 210.268781 
L 261.603534 210.289819 
L 262.474506 210.328138 
L 262.909991 210.660989 
L 263.780962 210.500199 
L 264.216448 210.436334 
L 264.651934 210.52875 
L 266.393876 210.304095 
L 266.829362 210.457372 
L 268.571305 210.278549 
L 269.00679 210.47315 
L 272.05519 210.509967 
L 273.797132 210.773693 
L 275.539075 210.902926 
L 275.97456 210.762422 
L 276.845532 210.80525 
L 277.716503 210.73913 
L 278.151989 211.258317 
L 279.458446 211.303399 
L 279.893931 211.465692 
L 282.071359 211.587412 
L 283.377816 211.784267 
L 284.248788 211.650525 
L 284.684273 211.330448 
L 285.99073 211.269588 
L 286.426216 212.500309 
L 287.732673 212.488288 
L 289.474615 212.218551 
L 290.345587 211.996149 
L 293.829472 211.684336 
L 294.264957 212.376336 
L 295.571414 212.320735 
L 296.442386 212.338768 
L 296.877871 211.921014 
L 297.748842 212.047993 
L 299.926271 211.812818 
L 301.232728 211.803051 
L 301.668213 212.79409 
L 302.103699 212.731727 
L 302.97467 212.796344 
L 303.845641 212.789582 
L 304.716613 212.6889 
L 305.587584 212.597986 
L 306.02307 212.671619 
L 307.765012 212.380844 
L 308.635984 212.218551 
L 309.506955 212.224562 
L 309.94244 212.07429 
L 312.119869 211.953322 
L 312.555354 211.742942 
L 313.861811 211.694855 
L 314.297297 211.724158 
L 314.732782 211.936041 
L 315.168268 211.898473 
L 315.603754 212.06302 
L 316.039239 212.824144 
L 316.910211 212.891766 
L 317.345696 212.643067 
L 318.216668 212.652835 
L 319.95861 212.755771 
L 320.829581 212.692657 
L 321.700553 212.727219 
L 322.136038 212.121626 
L 326.055409 212.164453 
L 326.92638 212.235081 
L 328.232837 212.004414 
L 328.668323 211.217744 
L 329.539294 211.226009 
L 333.894151 211.050943 
L 334.765122 209.677464 
L 336.507065 205.965012 
L 336.94255 205.209148 
L 337.378036 202.635001 
L 339.555464 197.375507 
L 339.99095 195.312282 
L 340.861921 194.199524 
L 341.732892 190.404423 
L 342.603864 188.881424 
L 343.91032 185.556672 
L 344.345806 184.501016 
L 344.781292 180.950858 
L 347.394206 176.427693 
L 348.265177 174.472663 
L 348.700662 173.79494 
L 350.878091 169.229699 
L 351.313576 166.716412 
L 352.620033 163.833458 
L 353.055519 162.858949 
L 353.491005 160.876871 
L 354.797461 157.597201 
L 355.668433 155.301056 
L 356.103918 154.507623 
L 357.845861 150.336844 
L 359.587804 147.439614 
L 360.023289 146.330613 
L 361.329746 144.248604 
L 361.765232 142.925466 
L 362.200717 140.711219 
L 363.071689 139.36028 
L 363.94266 134.61847 
L 364.378146 133.857346 
L 364.813631 132.821977 
L 365.249117 132.089405 
L 365.684603 129.789503 
L 366.120088 128.957752 
L 366.991059 126.278415 
L 367.426545 123.698257 
L 368.297516 122.021982 
L 368.733002 119.770167 
L 369.168488 118.404201 
L 369.603973 117.917322 
L 370.474945 116.475469 
L 370.91043 115.904438 
L 371.345916 115.106498 
L 372.216887 113.013219 
L 373.087858 111.171645 
L 373.523344 109.076863 
L 373.95883 108.481038 
L 374.829801 105.276503 
L 376.136258 102.328181 
L 376.571744 100.699241 
L 378.749172 96.066377 
L 379.184657 92.862594 
L 379.620143 92.228449 
L 380.055629 91.288503 
L 380.491114 90.614536 
L 380.9266 89.588935 
L 381.797571 86.113912 
L 383.104028 83.257255 
L 384.410485 80.570405 
L 384.845971 79.735648 
L 385.281456 79.146585 
L 385.716942 78.253973 
L 386.152428 77.64838 
L 388.765341 71.18371 
L 389.200827 69.400742 
L 389.636313 68.481833 
L 390.071798 67.828904 
L 390.507284 66.625983 
L 390.94277 65.958027 
L 392.249227 62.862439 
L 394.426655 58.50307 
L 396.168597 54.179765 
L 396.604083 52.968579 
L 398.346026 49.577708 
L 398.781511 47.907443 
L 399.652483 45.838959 
L 401.829911 40.816893 
L 401.829911 40.816893 
" clip-path="url(#p07ca51f6bf)" style="fill: none; stroke: #9467bd; stroke-opacity: 0.8; stroke-width: 1.5; stroke-linecap: square"/>
   </g>
   <g id="patch_3">
    <path d="M 61.715625 288.430125 
L 61.715625 22.318125 
" style="fill: none; stroke: #000000; stroke-width: 0.8; stroke-linejoin: miter; stroke-linecap: square"/>
   </g>
   <g id="patch_4">
    <path d="M 418.835625 288.430125 
L 418.835625 22.318125 
" style="fill: none; stroke: #000000; stroke-width: 0.8; stroke-linejoin: miter; stroke-linecap: square"/>
   </g>
   <g id="patch_5">
    <path d="M 61.715625 288.430125 
L 418.835625 288.430125 
" style="fill: none; stroke: #000000; stroke-width: 0.8; stroke-linejoin: miter; stroke-linecap: square"/>
   </g>
   <g id="patch_6">
    <path d="M 61.715625 22.318125 
L 418.835625 22.318125 
" style="fill: none; stroke: #000000; stroke-width: 0.8; stroke-linejoin: miter; stroke-linecap: square"/>
   </g>
   <g id="text_21">
    <!-- Get children count [root] -->
    <g transform="translate(166.155938 16.318125) scale(0.12 -0.12)">
     <defs>
      <path id="DejaVuSans-47" d="M 3809 666 
L 3809 1919 
L 2778 1919 
L 2778 2438 
L 4434 2438 
L 4434 434 
Q 4069 175 3628 42 
Q 3188 -91 2688 -91 
Q 1594 -91 976 548 
Q 359 1188 359 2328 
Q 359 3472 976 4111 
Q 1594 4750 2688 4750 
Q 3144 4750 3555 4637 
Q 3966 4525 4313 4306 
L 4313 3634 
Q 3963 3931 3569 4081 
Q 3175 4231 2741 4231 
Q 1884 4231 1454 3753 
Q 1025 3275 1025 2328 
Q 1025 1384 1454 906 
Q 1884 428 2741 428 
Q 3075 428 3337 486 
Q 3600 544 3809 666 
z
" transform="scale(0.015625)"/>
      <path id="DejaVuSans-68" d="M 3513 2113 
L 3513 0 
L 2938 0 
L 2938 2094 
Q 2938 2591 2744 2837 
Q 2550 3084 2163 3084 
Q 1697 3084 1428 2787 
Q 1159 2491 1159 1978 
L 1159 0 
L 581 0 
L 581 4863 
L 1159 4863 
L 1159 2956 
Q 1366 3272 1645 3428 
Q 1925 3584 2291 3584 
Q 2894 3584 3203 3211 
Q 3513 2838 3513 2113 
z
" transform="scale(0.015625)"/>
      <path id="DejaVuSans-72" d="M 2631 2963 
Q 2534 3019 2420 3045 
Q 2306 3072 2169 3072 
Q 1681 3072 1420 2755 
Q 1159 2438 1159 1844 
L 1159 0 
L 581 0 
L 581 3500 
L 1159 3500 
L 1159 2956 
Q 1341 3275 1631 3429 
Q 1922 3584 2338 3584 
Q 2397 3584 2469 3576 
Q 2541 3569 2628 3553 
L 2631 2963 
z
" transform="scale(0.015625)"/>
      <path id="DejaVuSans-5b" d="M 550 4863 
L 1875 4863 
L 1875 4416 
L 1125 4416 
L 1125 -397 
L 1875 -397 
L 1875 -844 
L 550 -844 
L 550 4863 
z
" transform="scale(0.015625)"/>
      <path id="DejaVuSans-5d" d="M 1947 4863 
L 1947 -844 
L 622 -844 
L 622 -397 
L 1369 -397 
L 1369 4416 
L 622 4416 
L 622 4863 
L 1947 4863 
z
" transform="scale(0.015625)"/>
     </defs>
     <use xlink:href="#DejaVuSans-47"/>
     <use xlink:href="#DejaVuSans-65" transform="translate(77.490234 0)"/>
     <use xlink:href="#DejaVuSans-74" transform="translate(139.013672 0)"/>
     <use xlink:href="#DejaVuSans-20" transform="translate(178.222656 0)"/>
     <use xlink:href="#DejaVuSans-63" transform="translate(210.009766 0)"/>
     <use xlink:href="#DejaVuSans-68" transform="translate(264.990234 0)"/>
     <use xlink:href="#DejaVuSans-69" transform="translate(328.369141 0)"/>
     <use xlink:href="#DejaVuSans-6c" transform="translate(356.152344 0)"/>
     <use xlink:href="#DejaVuSans-64" transform="translate(383.935547 0)"/>
     <use xlink:href="#DejaVuSans-72" transform="translate(447.412109 0)"/>
     <use xlink:href="#DejaVuSans-65" transform="translate(486.275391 0)"/>
     <use xlink:href="#DejaVuSans-6e" transform="translate(547.798828 0)"/>
     <use xlink:href="#DejaVuSans-20" transform="translate(611.177734 0)"/>
     <use xlink:href="#DejaVuSans-63" transform="translate(642.964844 0)"/>
     <use xlink:href="#DejaVuSans-6f" transform="translate(697.945312 0)"/>
     <use xlink:href="#DejaVuSans-75" transform="translate(759.126953 0)"/>
     <use xlink:href="#DejaVuSans-6e" transform="translate(822.505859 0)"/>
     <use xlink:href="#DejaVuSans-74" transform="translate(885.884766 0)"/>
     <use xlink:href="#DejaVuSans-20" transform="translate(925.09375 0)"/>
     <use xlink:href="#DejaVuSans-5b" transform="translate(956.880859 0)"/>
     <use xlink:href="#DejaVuSans-72" transform="translate(995.894531 0)"/>
     <use xlink:href="#DejaVuSans-6f" transform="translate(1034.757812 0)"/>
     <use xlink:href="#DejaVuSans-6f" transform="translate(1095.939453 0)"/>
     <use xlink:href="#DejaVuSans-74" transform="translate(1157.121094 0)"/>
     <use xlink:href="#DejaVuSans-5d" transform="translate(1196.330078 0)"/>
    </g>
   </g>
   <g id="legend_1">
    <g id="patch_7">
     <path d="M 92.717969 365.802375 
L 380.313281 365.802375 
Q 382.313281 365.802375 382.313281 363.802375 
L 382.313281 335.446125 
Q 382.313281 333.446125 380.313281 333.446125 
L 92.717969 333.446125 
Q 90.717969 333.446125 90.717969 335.446125 
L 90.717969 363.802375 
Q 90.717969 365.802375 92.717969 365.802375 
z
" style="fill: #4d4d4d; opacity: 0.5; stroke: #4d4d4d; stroke-linejoin: miter"/>
    </g>
    <g id="patch_8">
     <path d="M 90.717969 363.802375 
L 378.313281 363.802375 
Q 380.313281 363.802375 380.313281 361.802375 
L 380.313281 333.446125 
Q 380.313281 331.446125 378.313281 331.446125 
L 90.717969 331.446125 
Q 88.717969 331.446125 88.717969 333.446125 
L 88.717969 361.802375 
Q 88.717969 363.802375 90.717969 363.802375 
z
" style="fill: #ffffff; stroke: #cccccc; stroke-linejoin: miter"/>
    </g>
    <g id="line2d_24">
     <path d="M 92.717969 339.544562 
L 102.717969 339.544562 
L 112.717969 339.544562 
" style="fill: none; stroke: #1f77b4; stroke-opacity: 0.8; stroke-width: 1.5; stroke-linecap: square"/>
    </g>
    <g id="text_22">
     <!-- MPTT -->
     <g transform="translate(120.717969 343.044562) scale(0.1 -0.1)">
      <defs>
       <path id="DejaVuSans-4d" d="M 628 4666 
L 1569 4666 
L 2759 1491 
L 3956 4666 
L 4897 4666 
L 4897 0 
L 4281 0 
L 4281 4097 
L 3078 897 
L 2444 897 
L 1241 4097 
L 1241 0 
L 628 0 
L 628 4666 
z
" transform="scale(0.015625)"/>
       <path id="DejaVuSans-50" d="M 1259 4147 
L 1259 2394 
L 2053 2394 
Q 2494 2394 2734 2622 
Q 2975 2850 2975 3272 
Q 2975 3691 2734 3919 
Q 2494 4147 2053 4147 
L 1259 4147 
z
M 628 4666 
L 2053 4666 
Q 2838 4666 3239 4311 
Q 3641 3956 3641 3272 
Q 3641 2581 3239 2228 
Q 2838 1875 2053 1875 
L 1259 1875 
L 1259 0 
L 628 0 
L 628 4666 
z
" transform="scale(0.015625)"/>
       <path id="DejaVuSans-54" d="M -19 4666 
L 3928 4666 
L 3928 4134 
L 2272 4134 
L 2272 0 
L 1638 0 
L 1638 4134 
L -19 4134 
L -19 4666 
z
" transform="scale(0.015625)"/>
      </defs>
      <use xlink:href="#DejaVuSans-4d"/>
      <use xlink:href="#DejaVuSans-50" transform="translate(86.279297 0)"/>
      <use xlink:href="#DejaVuSans-54" transform="translate(146.582031 0)"/>
      <use xlink:href="#DejaVuSans-54" transform="translate(205.916016 0)"/>
     </g>
    </g>
    <g id="line2d_25">
     <path d="M 92.717969 354.222687 
L 102.717969 354.222687 
L 112.717969 354.222687 
" style="fill: none; stroke: #ff7f0e; stroke-opacity: 0.8; stroke-width: 1.5; stroke-linecap: square"/>
    </g>
    <g id="text_23">
     <!-- tree -->
     <g transform="translate(120.717969 357.722687) scale(0.1 -0.1)">
      <use xlink:href="#DejaVuSans-74"/>
      <use xlink:href="#DejaVuSans-72" transform="translate(39.208984 0)"/>
      <use xlink:href="#DejaVuSans-65" transform="translate(78.072266 0)"/>
      <use xlink:href="#DejaVuSans-65" transform="translate(139.595703 0)"/>
     </g>
    </g>
    <g id="line2d_26">
     <path d="M 167.416406 339.544562 
L 177.416406 339.544562 
L 187.416406 339.544562 
" style="fill: none; stroke: #2ca02c; stroke-opacity: 0.8; stroke-width: 1.5; stroke-linecap: square"/>
    </g>
    <g id="text_24">
     <!-- treebeard AL -->
     <g transform="translate(195.416406 343.044562) scale(0.1 -0.1)">
      <defs>
       <path id="DejaVuSans-4c" d="M 628 4666 
L 1259 4666 
L 1259 531 
L 3531 531 
L 3531 0 
L 628 0 
L 628 4666 
z
" transform="scale(0.015625)"/>
      </defs>
      <use xlink:href="#DejaVuSans-74"/>
      <use xlink:href="#DejaVuSans-72" transform="translate(39.208984 0)"/>
      <use xlink:href="#DejaVuSans-65" transform="translate(78.072266 0)"/>
      <use xlink:href="#DejaVuSans-65" transform="translate(139.595703 0)"/>
      <use xlink:href="#DejaVuSans-62" transform="translate(201.119141 0)"/>
      <use xlink:href="#DejaVuSans-65" transform="translate(264.595703 0)"/>
      <use xlink:href="#DejaVuSans-61" transform="translate(326.119141 0)"/>
      <use xlink:href="#DejaVuSans-72" transform="translate(387.398438 0)"/>
      <use xlink:href="#DejaVuSans-64" transform="translate(426.761719 0)"/>
      <use xlink:href="#DejaVuSans-20" transform="translate(490.238281 0)"/>
      <use xlink:href="#DejaVuSans-41" transform="translate(522.025391 0)"/>
      <use xlink:href="#DejaVuSans-4c" transform="translate(590.433594 0)"/>
     </g>
    </g>
    <g id="line2d_27">
     <path d="M 167.416406 354.222687 
L 177.416406 354.222687 
L 187.416406 354.222687 
" style="fill: none; stroke: #d62728; stroke-opacity: 0.8; stroke-width: 1.5; stroke-linecap: square"/>
    </g>
    <g id="text_25">
     <!-- treebeard MP -->
     <g transform="translate(195.416406 357.722687) scale(0.1 -0.1)">
      <use xlink:href="#DejaVuSans-74"/>
      <use xlink:href="#DejaVuSans-72" transform="translate(39.208984 0)"/>
      <use xlink:href="#DejaVuSans-65" transform="translate(78.072266 0)"/>
      <use xlink:href="#DejaVuSans-65" transform="translate(139.595703 0)"/>
      <use xlink:href="#DejaVuSans-62" transform="translate(201.119141 0)"/>
      <use xlink:href="#DejaVuSans-65" transform="translate(264.595703 0)"/>
      <use xlink:href="#DejaVuSans-61" transform="translate(326.119141 0)"/>
      <use xlink:href="#DejaVuSans-72" transform="translate(387.398438 0)"/>
      <use xlink:href="#DejaVuSans-64" transform="translate(426.761719 0)"/>
      <use xlink:href="#DejaVuSans-20" transform="translate(490.238281 0)"/>
      <use xlink:href="#DejaVuSans-4d" transform="translate(522.025391 0)"/>
      <use xlink:href="#DejaVuSans-50" transform="translate(608.304688 0)"/>
     </g>
    </g>
    <g id="line2d_28">
     <path d="M 282.278906 339.544562 
L 292.278906 339.544562 
L 302.278906 339.544562 
" style="fill: none; stroke: #9467bd; stroke-opacity: 0.8; stroke-width: 1.5; stroke-linecap: square"/>
    </g>
    <g id="text_26">
     <!-- treebeard NS -->
     <g transform="translate(310.278906 343.044562) scale(0.1 -0.1)">
      <defs>
       <path id="DejaVuSans-4e" d="M 628 4666 
L 1478 4666 
L 3547 763 
L 3547 4666 
L 4159 4666 
L 4159 0 
L 3309 0 
L 1241 3903 
L 1241 0 
L 628 0 
L 628 4666 
z
" transform="scale(0.015625)"/>
       <path id="DejaVuSans-53" d="M 3425 4513 
L 3425 3897 
Q 3066 4069 2747 4153 
Q 2428 4238 2131 4238 
Q 1616 4238 1336 4038 
Q 1056 3838 1056 3469 
Q 1056 3159 1242 3001 
Q 1428 2844 1947 2747 
L 2328 2669 
Q 3034 2534 3370 2195 
Q 3706 1856 3706 1288 
Q 3706 609 3251 259 
Q 2797 -91 1919 -91 
Q 1588 -91 1214 -16 
Q 841 59 441 206 
L 441 856 
Q 825 641 1194 531 
Q 1563 422 1919 422 
Q 2459 422 2753 634 
Q 3047 847 3047 1241 
Q 3047 1584 2836 1778 
Q 2625 1972 2144 2069 
L 1759 2144 
Q 1053 2284 737 2584 
Q 422 2884 422 3419 
Q 422 4038 858 4394 
Q 1294 4750 2059 4750 
Q 2388 4750 2728 4690 
Q 3069 4631 3425 4513 
z
" transform="scale(0.015625)"/>
      </defs>
      <use xlink:href="#DejaVuSans-74"/>
      <use xlink:href="#DejaVuSans-72" transform="translate(39.208984 0)"/>
      <use xlink:href="#DejaVuSans-65" transform="translate(78.072266 0)"/>
      <use xlink:href="#DejaVuSans-65" transform="translate(139.595703 0)"/>
      <use xlink:href="#DejaVuSans-62" transform="translate(201.119141 0)"/>
      <use xlink:href="#DejaVuSans-65" transform="translate(264.595703 0)"/>
      <use xlink:href="#DejaVuSans-61" transform="translate(326.119141 0)"/>
      <use xlink:href="#DejaVuSans-72" transform="translate(387.398438 0)"/>
      <use xlink:href="#DejaVuSans-64" transform="translate(426.761719 0)"/>
      <use xlink:href="#DejaVuSans-20" transform="translate(490.238281 0)"/>
      <use xlink:href="#DejaVuSans-4e" transform="translate(522.025391 0)"/>
      <use xlink:href="#DejaVuSans-53" transform="translate(596.830078 0)"/>
     </g>
    </g>
   </g>
  </g>
 </g>
 <defs>
  <clipPath id="p07ca51f6bf">
   <rect x="61.715625" y="22.318125" width="357.12" height="266.112"/>
  </clipPath>
 </defs>
</svg>
