<?xml version="1.0" encoding="utf-8" standalone="no"?>
<!DOCTYPE svg PUBLIC "-//W3C//DTD SVG 1.1//EN"
  "http://www.w3.org/Graphics/SVG/1.1/DTD/svg11.dtd">
<svg xmlns:xlink="http://www.w3.org/1999/xlink" width="423.373906pt" height="356.646906pt" viewBox="0 0 423.373906 356.646906" xmlns="http://www.w3.org/2000/svg" version="1.1">
 <metadata>
  <rdf:RDF xmlns:dc="http://purl.org/dc/elements/1.1/" xmlns:cc="http://creativecommons.org/ns#" xmlns:rdf="http://www.w3.org/1999/02/22-rdf-syntax-ns#">
   <cc:Work>
    <dc:type rdf:resource="http://purl.org/dc/dcmitype/StillImage"/>
    <dc:date>2026-06-29T09:13:53.938844</dc:date>
    <dc:format>image/svg+xml</dc:format>
    <dc:creator>
     <cc:Agent>
      <dc:title>Matplotlib v3.11.0, https://matplotlib.org/</dc:title>
     </cc:Agent>
    </dc:creator>
   </cc:Work>
  </rdf:RDF>
 </metadata>
 <defs>
  <style type="text/css">*{stroke-linejoin: round; stroke-linecap: butt}</style>
 </defs>
 <g id="figure_1">
  <g id="patch_1">
   <path d="M 0 356.646906 
L 423.373906 356.646906 
L 423.373906 0 
L 0 0 
z
" style="fill: #ffffff"/>
  </g>
  <g id="axes_1">
   <g id="patch_2">
    <path d="M 59.053906 288.430125 
L 416.173906 288.430125 
L 416.173906 22.318125 
L 59.053906 22.318125 
z
" style="fill: #ffffff"/>
   </g>
   <g id="matplotlib.axis_1">
    <g id="xtick_1">
     <g id="line2d_1">
      <defs>
       <path id="mc6e80cc725" d="M 0 0 
L 0 3.5 
" style="stroke: #000000; stroke-width: 0.8"/>
      </defs>
      <g>
       <use xlink:href="#mc6e80cc725" x="59.053906" y="288.430125" style="stroke: #000000; stroke-width: 0.8"/>
      </g>
     </g>
     <g id="text_1">
      <!-- 0 -->
      <g transform="translate(55.872656 303.027781) scale(0.1 -0.1)">
       <defs>
        <path id="DejaVuSans-13" d="M 2034 4250 
Q 1547 4250 1301 3770 
Q 1056 3291 1056 2328 
Q 1056 1369 1301 889 
Q 1547 409 2034 409 
Q 2525 409 2770 889 
Q 3016 1369 3016 2328 
Q 3016 3291 2770 3770 
Q 2525 4250 2034 4250 
z
M 2034 4750 
Q 2819 4750 3233 4129 
Q 3647 3509 3647 2328 
Q 3647 1150 3233 529 
Q 2819 -91 2034 -91 
Q 1250 -91 836 529 
Q 422 1150 422 2328 
Q 422 3509 836 4129 
Q 1250 4750 2034 4750 
z
" transform="scale(0.015625)"/>
       </defs>
       <use xlink:href="#DejaVuSans-13"/>
      </g>
     </g>
    </g>
    <g id="xtick_2">
     <g id="line2d_2">
      <g>
       <use xlink:href="#mc6e80cc725" x="102.60247" y="288.430125" style="stroke: #000000; stroke-width: 0.8"/>
      </g>
     </g>
     <g id="text_2">
      <!-- 500  -->
      <g transform="translate(91.469658 303.027781) scale(0.1 -0.1)">
       <defs>
        <path id="DejaVuSans-18" d="M 691 4666 
L 3169 4666 
L 3169 4134 
L 1269 4134 
L 1269 2991 
Q 1406 3038 1543 3061 
Q 1681 3084 1819 3084 
Q 2600 3084 3056 2656 
Q 3513 2228 3513 1497 
Q 3513 744 3044 326 
Q 2575 -91 1722 -91 
Q 1428 -91 1123 -41 
Q 819 9 494 109 
L 494 744 
Q 775 591 1075 516 
Q 1375 441 1709 441 
Q 2250 441 2565 725 
Q 2881 1009 2881 1497 
Q 2881 1984 2565 2268 
Q 2250 2553 1709 2553 
Q 1456 2553 1204 2497 
Q 953 2441 691 2322 
L 691 4666 
z
" transform="scale(0.015625)"/>
        <path id="DejaVuSans-3" transform="scale(0.015625)"/>
       </defs>
       <use xlink:href="#DejaVuSans-18"/>
       <use xlink:href="#DejaVuSans-13" transform="translate(63.625 0)"/>
       <use xlink:href="#DejaVuSans-13" transform="translate(127.25 0)"/>
       <use xlink:href="#DejaVuSans-3" transform="translate(190.875 0)"/>
      </g>
     </g>
    </g>
    <g id="xtick_3">
     <g id="line2d_3">
      <g>
       <use xlink:href="#mc6e80cc725" x="146.151034" y="288.430125" style="stroke: #000000; stroke-width: 0.8"/>
      </g>
     </g>
     <g id="text_3">
      <!-- 1 k -->
      <g transform="translate(138.485409 303.028562) scale(0.1 -0.1)">
       <defs>
        <path id="DejaVuSans-14" d="M 794 531 
L 1825 531 
L 1825 4091 
L 703 3866 
L 703 4441 
L 1819 4666 
L 2450 4666 
L 2450 531 
L 3481 531 
L 3481 0 
L 794 0 
L 794 531 
z
" transform="scale(0.015625)"/>
        <path id="DejaVuSans-4e" d="M 581 4863 
L 1159 4863 
L 1159 1991 
L 2875 3500 
L 3609 3500 
L 1753 1863 
L 3688 0 
L 2938 0 
L 1159 1709 
L 1159 0 
L 581 0 
L 581 4863 
z
" transform="scale(0.015625)"/>
       </defs>
       <use xlink:href="#DejaVuSans-14"/>
       <use xlink:href="#DejaVuSans-3" transform="translate(63.625 0)"/>
       <use xlink:href="#DejaVuSans-4e" transform="translate(95.40625 0)"/>
      </g>
     </g>
    </g>
    <g id="xtick_4">
     <g id="line2d_4">
      <g>
       <use xlink:href="#mc6e80cc725" x="189.699599" y="288.430125" style="stroke: #000000; stroke-width: 0.8"/>
      </g>
     </g>
     <g id="text_4">
      <!-- 1.5 k -->
      <g transform="translate(177.263661 303.028562) scale(0.1 -0.1)">
       <defs>
        <path id="DejaVuSans-11" d="M 684 794 
L 1344 794 
L 1344 0 
L 684 0 
L 684 794 
z
" transform="scale(0.015625)"/>
       </defs>
       <use xlink:href="#DejaVuSans-14"/>
       <use xlink:href="#DejaVuSans-11" transform="translate(63.625 0)"/>
       <use xlink:href="#DejaVuSans-18" transform="translate(95.40625 0)"/>
       <use xlink:href="#DejaVuSans-3" transform="translate(159.03125 0)"/>
       <use xlink:href="#DejaVuSans-4e" transform="translate(190.8125 0)"/>
      </g>
     </g>
    </g>
    <g id="xtick_5">
     <g id="line2d_5">
      <g>
       <use xlink:href="#mc6e80cc725" x="233.248163" y="288.430125" style="stroke: #000000; stroke-width: 0.8"/>
      </g>
     </g>
     <g id="text_5">
      <!-- 2 k -->
      <g transform="translate(225.582538 303.028562) scale(0.1 -0.1)">
       <defs>
        <path id="DejaVuSans-15" d="M 1228 531 
L 3431 531 
L 3431 0 
L 469 0 
L 469 531 
Q 828 903 1448 1529 
Q 2069 2156 2228 2338 
Q 2531 2678 2651 2914 
Q 2772 3150 2772 3378 
Q 2772 3750 2511 3984 
Q 2250 4219 1831 4219 
Q 1534 4219 1204 4116 
Q 875 4013 500 3803 
L 500 4441 
Q 881 4594 1212 4672 
Q 1544 4750 1819 4750 
Q 2544 4750 2975 4387 
Q 3406 4025 3406 3419 
Q 3406 3131 3298 2873 
Q 3191 2616 2906 2266 
Q 2828 2175 2409 1742 
Q 1991 1309 1228 531 
z
" transform="scale(0.015625)"/>
       </defs>
       <use xlink:href="#DejaVuSans-15"/>
       <use xlink:href="#DejaVuSans-3" transform="translate(63.625 0)"/>
       <use xlink:href="#DejaVuSans-4e" transform="translate(95.40625 0)"/>
      </g>
     </g>
    </g>
    <g id="xtick_6">
     <g id="line2d_6">
      <g>
       <use xlink:href="#mc6e80cc725" x="276.796727" y="288.430125" style="stroke: #000000; stroke-width: 0.8"/>
      </g>
     </g>
     <g id="text_6">
      <!-- 2.5 k -->
      <g transform="translate(264.360789 303.028562) scale(0.1 -0.1)">
       <use xlink:href="#DejaVuSans-15"/>
       <use xlink:href="#DejaVuSans-11" transform="translate(63.625 0)"/>
       <use xlink:href="#DejaVuSans-18" transform="translate(95.40625 0)"/>
       <use xlink:href="#DejaVuSans-3" transform="translate(159.03125 0)"/>
       <use xlink:href="#DejaVuSans-4e" transform="translate(190.8125 0)"/>
      </g>
     </g>
    </g>
    <g id="xtick_7">
     <g id="line2d_7">
      <g>
       <use xlink:href="#mc6e80cc725" x="320.345291" y="288.430125" style="stroke: #000000; stroke-width: 0.8"/>
      </g>
     </g>
     <g id="text_7">
      <!-- 3 k -->
      <g transform="translate(312.679666 303.028562) scale(0.1 -0.1)">
       <defs>
        <path id="DejaVuSans-16" d="M 2597 2516 
Q 3050 2419 3304 2112 
Q 3559 1806 3559 1356 
Q 3559 666 3084 287 
Q 2609 -91 1734 -91 
Q 1441 -91 1130 -33 
Q 819 25 488 141 
L 488 750 
Q 750 597 1062 519 
Q 1375 441 1716 441 
Q 2309 441 2620 675 
Q 2931 909 2931 1356 
Q 2931 1769 2642 2001 
Q 2353 2234 1838 2234 
L 1294 2234 
L 1294 2753 
L 1863 2753 
Q 2328 2753 2575 2939 
Q 2822 3125 2822 3475 
Q 2822 3834 2567 4026 
Q 2313 4219 1838 4219 
Q 1578 4219 1281 4162 
Q 984 4106 628 3988 
L 628 4550 
Q 988 4650 1302 4700 
Q 1616 4750 1894 4750 
Q 2613 4750 3031 4423 
Q 3450 4097 3450 3541 
Q 3450 3153 3228 2886 
Q 3006 2619 2597 2516 
z
" transform="scale(0.015625)"/>
       </defs>
       <use xlink:href="#DejaVuSans-16"/>
       <use xlink:href="#DejaVuSans-3" transform="translate(63.625 0)"/>
       <use xlink:href="#DejaVuSans-4e" transform="translate(95.40625 0)"/>
      </g>
     </g>
    </g>
    <g id="xtick_8">
     <g id="line2d_8">
      <g>
       <use xlink:href="#mc6e80cc725" x="363.893855" y="288.430125" style="stroke: #000000; stroke-width: 0.8"/>
      </g>
     </g>
     <g id="text_8">
      <!-- 3.5 k -->
      <g transform="translate(351.457918 303.028562) scale(0.1 -0.1)">
       <use xlink:href="#DejaVuSans-16"/>
       <use xlink:href="#DejaVuSans-11" transform="translate(63.625 0)"/>
       <use xlink:href="#DejaVuSans-18" transform="translate(95.40625 0)"/>
       <use xlink:href="#DejaVuSans-3" transform="translate(159.03125 0)"/>
       <use xlink:href="#DejaVuSans-4e" transform="translate(190.8125 0)"/>
      </g>
     </g>
    </g>
    <g id="xtick_9">
     <g id="line2d_9">
      <g>
       <use xlink:href="#mc6e80cc725" x="407.442419" y="288.430125" style="stroke: #000000; stroke-width: 0.8"/>
      </g>
     </g>
     <g id="text_9">
      <!-- 4 k -->
      <g transform="translate(399.776794 303.028562) scale(0.1 -0.1)">
       <defs>
        <path id="DejaVuSans-17" d="M 2419 4116 
L 825 1625 
L 2419 1625 
L 2419 4116 
z
M 2253 4666 
L 3047 4666 
L 3047 1625 
L 3713 1625 
L 3713 1100 
L 3047 1100 
L 3047 0 
L 2419 0 
L 2419 1100 
L 313 1100 
L 313 1709 
L 2253 4666 
z
" transform="scale(0.015625)"/>
       </defs>
       <use xlink:href="#DejaVuSans-17"/>
       <use xlink:href="#DejaVuSans-3" transform="translate(63.625 0)"/>
       <use xlink:href="#DejaVuSans-4e" transform="translate(95.40625 0)"/>
      </g>
     </g>
    </g>
    <g id="text_10">
     <!-- Amount of objects in table -->
     <g transform="translate(171.555313 317.029344) scale(0.1 -0.1)">
      <defs>
       <path id="DejaVuSans-24" d="M 2188 4044 
L 1331 1722 
L 3047 1722 
L 2188 4044 
z
M 1831 4666 
L 2547 4666 
L 4325 0 
L 3669 0 
L 3244 1197 
L 1141 1197 
L 716 0 
L 50 0 
L 1831 4666 
z
" transform="scale(0.015625)"/>
       <path id="DejaVuSans-50" d="M 3328 2828 
Q 3544 3216 3844 3400 
Q 4144 3584 4550 3584 
Q 5097 3584 5394 3201 
Q 5691 2819 5691 2113 
L 5691 0 
L 5113 0 
L 5113 2094 
Q 5113 2597 4934 2840 
Q 4756 3084 4391 3084 
Q 3944 3084 3684 2787 
Q 3425 2491 3425 1978 
L 3425 0 
L 2847 0 
L 2847 2094 
Q 2847 2600 2669 2842 
Q 2491 3084 2119 3084 
Q 1678 3084 1418 2786 
Q 1159 2488 1159 1978 
L 1159 0 
L 581 0 
L 581 3500 
L 1159 3500 
L 1159 2956 
Q 1356 3278 1631 3431 
Q 1906 3584 2284 3584 
Q 2666 3584 2933 3390 
Q 3200 3197 3328 2828 
z
" transform="scale(0.015625)"/>
       <path id="DejaVuSans-52" d="M 1959 3097 
Q 1497 3097 1228 2736 
Q 959 2375 959 1747 
Q 959 1119 1226 758 
Q 1494 397 1959 397 
Q 2419 397 2687 759 
Q 2956 1122 2956 1747 
Q 2956 2369 2687 2733 
Q 2419 3097 1959 3097 
z
M 1959 3584 
Q 2709 3584 3137 3096 
Q 3566 2609 3566 1747 
Q 3566 888 3137 398 
Q 2709 -91 1959 -91 
Q 1206 -91 779 398 
Q 353 888 353 1747 
Q 353 2609 779 3096 
Q 1206 3584 1959 3584 
z
" transform="scale(0.015625)"/>
       <path id="DejaVuSans-58" d="M 544 1381 
L 544 3500 
L 1119 3500 
L 1119 1403 
Q 1119 906 1312 657 
Q 1506 409 1894 409 
Q 2359 409 2629 706 
Q 2900 1003 2900 1516 
L 2900 3500 
L 3475 3500 
L 3475 0 
L 2900 0 
L 2900 538 
Q 2691 219 2414 64 
Q 2138 -91 1772 -91 
Q 1169 -91 856 284 
Q 544 659 544 1381 
z
M 1991 3584 
L 1991 3584 
z
" transform="scale(0.015625)"/>
       <path id="DejaVuSans-51" d="M 3513 2113 
L 3513 0 
L 2938 0 
L 2938 2094 
Q 2938 2591 2744 2837 
Q 2550 3084 2163 3084 
Q 1697 3084 1428 2787 
Q 1159 2491 1159 1978 
L 1159 0 
L 581 0 
L 581 3500 
L 1159 3500 
L 1159 2956 
Q 1366 3272 1645 3428 
Q 1925 3584 2291 3584 
Q 2894 3584 3203 3211 
Q 3513 2838 3513 2113 
z
" transform="scale(0.015625)"/>
       <path id="DejaVuSans-57" d="M 1172 4494 
L 1172 3500 
L 2356 3500 
L 2356 3053 
L 1172 3053 
L 1172 1153 
Q 1172 725 1289 603 
Q 1406 481 1766 481 
L 2356 481 
L 2356 0 
L 1766 0 
Q 1100 0 847 248 
Q 594 497 594 1153 
L 594 3053 
L 172 3053 
L 172 3500 
L 594 3500 
L 594 4494 
L 1172 4494 
z
" transform="scale(0.015625)"/>
       <path id="DejaVuSans-49" d="M 2375 4863 
L 2375 4384 
L 1825 4384 
Q 1516 4384 1395 4259 
Q 1275 4134 1275 3809 
L 1275 3500 
L 2222 3500 
L 2222 3053 
L 1275 3053 
L 1275 0 
L 697 0 
L 697 3053 
L 147 3053 
L 147 3500 
L 697 3500 
L 697 3744 
Q 697 4328 969 4595 
Q 1241 4863 1831 4863 
L 2375 4863 
z
" transform="scale(0.015625)"/>
       <path id="DejaVuSans-45" d="M 3116 1747 
Q 3116 2381 2855 2742 
Q 2594 3103 2138 3103 
Q 1681 3103 1420 2742 
Q 1159 2381 1159 1747 
Q 1159 1113 1420 752 
Q 1681 391 2138 391 
Q 2594 391 2855 752 
Q 3116 1113 3116 1747 
z
M 1159 2969 
Q 1341 3281 1617 3432 
Q 1894 3584 2278 3584 
Q 2916 3584 3314 3078 
Q 3713 2572 3713 1747 
Q 3713 922 3314 415 
Q 2916 -91 2278 -91 
Q 1894 -91 1617 61 
Q 1341 213 1159 525 
L 1159 0 
L 581 0 
L 581 4863 
L 1159 4863 
L 1159 2969 
z
" transform="scale(0.015625)"/>
       <path id="DejaVuSans-4d" d="M 603 3500 
L 1178 3500 
L 1178 -63 
Q 1178 -731 923 -1031 
Q 669 -1331 103 -1331 
L -116 -1331 
L -116 -844 
L 38 -844 
Q 366 -844 484 -692 
Q 603 -541 603 -63 
L 603 3500 
z
M 603 4863 
L 1178 4863 
L 1178 4134 
L 603 4134 
L 603 4863 
z
" transform="scale(0.015625)"/>
       <path id="DejaVuSans-48" d="M 3597 1894 
L 3597 1613 
L 953 1613 
Q 991 1019 1311 708 
Q 1631 397 2203 397 
Q 2534 397 2845 478 
Q 3156 559 3463 722 
L 3463 178 
Q 3153 47 2828 -22 
Q 2503 -91 2169 -91 
Q 1331 -91 842 396 
Q 353 884 353 1716 
Q 353 2575 817 3079 
Q 1281 3584 2069 3584 
Q 2775 3584 3186 3129 
Q 3597 2675 3597 1894 
z
M 3022 2063 
Q 3016 2534 2758 2815 
Q 2500 3097 2075 3097 
Q 1594 3097 1305 2825 
Q 1016 2553 972 2059 
L 3022 2063 
z
" transform="scale(0.015625)"/>
       <path id="DejaVuSans-46" d="M 3122 3366 
L 3122 2828 
Q 2878 2963 2633 3030 
Q 2388 3097 2138 3097 
Q 1578 3097 1268 2742 
Q 959 2388 959 1747 
Q 959 1106 1268 751 
Q 1578 397 2138 397 
Q 2388 397 2633 464 
Q 2878 531 3122 666 
L 3122 134 
Q 2881 22 2623 -34 
Q 2366 -91 2075 -91 
Q 1284 -91 818 406 
Q 353 903 353 1747 
Q 353 2603 823 3093 
Q 1294 3584 2113 3584 
Q 2378 3584 2631 3529 
Q 2884 3475 3122 3366 
z
" transform="scale(0.015625)"/>
       <path id="DejaVuSans-56" d="M 2834 3397 
L 2834 2853 
Q 2591 2978 2328 3040 
Q 2066 3103 1784 3103 
Q 1356 3103 1142 2972 
Q 928 2841 928 2578 
Q 928 2378 1081 2264 
Q 1234 2150 1697 2047 
L 1894 2003 
Q 2506 1872 2764 1633 
Q 3022 1394 3022 966 
Q 3022 478 2636 193 
Q 2250 -91 1575 -91 
Q 1294 -91 989 -36 
Q 684 19 347 128 
L 347 722 
Q 666 556 975 473 
Q 1284 391 1588 391 
Q 1994 391 2212 530 
Q 2431 669 2431 922 
Q 2431 1156 2273 1281 
Q 2116 1406 1581 1522 
L 1381 1569 
Q 847 1681 609 1914 
Q 372 2147 372 2553 
Q 372 3047 722 3315 
Q 1072 3584 1716 3584 
Q 2034 3584 2315 3537 
Q 2597 3491 2834 3397 
z
" transform="scale(0.015625)"/>
       <path id="DejaVuSans-4c" d="M 603 3500 
L 1178 3500 
L 1178 0 
L 603 0 
L 603 3500 
z
M 603 4863 
L 1178 4863 
L 1178 4134 
L 603 4134 
L 603 4863 
z
" transform="scale(0.015625)"/>
       <path id="DejaVuSans-44" d="M 2194 1759 
Q 1497 1759 1228 1600 
Q 959 1441 959 1056 
Q 959 750 1161 570 
Q 1363 391 1709 391 
Q 2188 391 2477 730 
Q 2766 1069 2766 1631 
L 2766 1759 
L 2194 1759 
z
M 3341 1997 
L 3341 0 
L 2766 0 
L 2766 531 
Q 2569 213 2275 61 
Q 1981 -91 1556 -91 
Q 1019 -91 701 211 
Q 384 513 384 1019 
Q 384 1609 779 1909 
Q 1175 2209 1959 2209 
L 2766 2209 
L 2766 2266 
Q 2766 2663 2505 2880 
Q 2244 3097 1772 3097 
Q 1472 3097 1187 3025 
Q 903 2953 641 2809 
L 641 3341 
Q 956 3463 1253 3523 
Q 1550 3584 1831 3584 
Q 2591 3584 2966 3190 
Q 3341 2797 3341 1997 
z
" transform="scale(0.015625)"/>
       <path id="DejaVuSans-4f" d="M 603 4863 
L 1178 4863 
L 1178 0 
L 603 0 
L 603 4863 
z
" transform="scale(0.015625)"/>
      </defs>
      <use xlink:href="#DejaVuSans-24"/>
      <use xlink:href="#DejaVuSans-50" transform="translate(68.40625 0)"/>
      <use xlink:href="#DejaVuSans-52" transform="translate(165.8125 0)"/>
      <use xlink:href="#DejaVuSans-58" transform="translate(227 0)"/>
      <use xlink:href="#DejaVuSans-51" transform="translate(290.375 0)"/>
      <use xlink:href="#DejaVuSans-57" transform="translate(353.75 0)"/>
      <use xlink:href="#DejaVuSans-3" transform="translate(392.953125 0)"/>
      <use xlink:href="#DejaVuSans-52" transform="translate(424.734375 0)"/>
      <use xlink:href="#DejaVuSans-49" transform="translate(485.921875 0)"/>
      <use xlink:href="#DejaVuSans-3" transform="translate(521.125 0)"/>
      <use xlink:href="#DejaVuSans-52" transform="translate(552.90625 0)"/>
      <use xlink:href="#DejaVuSans-45" transform="translate(614.09375 0)"/>
      <use xlink:href="#DejaVuSans-4d" transform="translate(677.578125 0)"/>
      <use xlink:href="#DejaVuSans-48" transform="translate(705.359375 0)"/>
      <use xlink:href="#DejaVuSans-46" transform="translate(766.890625 0)"/>
      <use xlink:href="#DejaVuSans-57" transform="translate(821.875 0)"/>
      <use xlink:href="#DejaVuSans-56" transform="translate(861.078125 0)"/>
      <use xlink:href="#DejaVuSans-3" transform="translate(913.171875 0)"/>
      <use xlink:href="#DejaVuSans-4c" transform="translate(944.953125 0)"/>
      <use xlink:href="#DejaVuSans-51" transform="translate(972.734375 0)"/>
      <use xlink:href="#DejaVuSans-3" transform="translate(1036.109375 0)"/>
      <use xlink:href="#DejaVuSans-57" transform="translate(1067.890625 0)"/>
      <use xlink:href="#DejaVuSans-44" transform="translate(1107.09375 0)"/>
      <use xlink:href="#DejaVuSans-45" transform="translate(1168.375 0)"/>
      <use xlink:href="#DejaVuSans-4f" transform="translate(1231.859375 0)"/>
      <use xlink:href="#DejaVuSans-48" transform="translate(1259.640625 0)"/>
     </g>
    </g>
   </g>
   <g id="matplotlib.axis_2">
    <g id="ytick_1">
     <g id="line2d_10">
      <defs>
       <path id="me331ff4de7" d="M 0 0 
L -3.5 0 
" style="stroke: #000000; stroke-width: 0.8"/>
      </defs>
      <g>
       <use xlink:href="#me331ff4de7" x="59.053906" y="288.430125" style="stroke: #000000; stroke-width: 0.8"/>
      </g>
     </g>
     <g id="text_11">
      <!-- 0 -->
      <g transform="translate(45.691406 292.228953) scale(0.1 -0.1)">
       <use xlink:href="#DejaVuSans-13"/>
      </g>
     </g>
    </g>
    <g id="ytick_2">
     <g id="line2d_11">
      <g>
       <use xlink:href="#me331ff4de7" x="59.053906" y="255.282962" style="stroke: #000000; stroke-width: 0.8"/>
      </g>
     </g>
     <g id="text_12">
      <!-- 10 ms -->
      <g transform="translate(21.200781 259.08179) scale(0.1 -0.1)">
       <use xlink:href="#DejaVuSans-14"/>
       <use xlink:href="#DejaVuSans-13" transform="translate(63.625 0)"/>
       <use xlink:href="#DejaVuSans-3" transform="translate(127.25 0)"/>
       <use xlink:href="#DejaVuSans-50" transform="translate(159.03125 0)"/>
       <use xlink:href="#DejaVuSans-56" transform="translate(256.4375 0)"/>
      </g>
     </g>
    </g>
    <g id="ytick_3">
     <g id="line2d_12">
      <g>
       <use xlink:href="#me331ff4de7" x="59.053906" y="222.135798" style="stroke: #000000; stroke-width: 0.8"/>
      </g>
     </g>
     <g id="text_13">
      <!-- 20 ms -->
      <g transform="translate(21.200781 225.934626) scale(0.1 -0.1)">
       <use xlink:href="#DejaVuSans-15"/>
       <use xlink:href="#DejaVuSans-13" transform="translate(63.625 0)"/>
       <use xlink:href="#DejaVuSans-3" transform="translate(127.25 0)"/>
       <use xlink:href="#DejaVuSans-50" transform="translate(159.03125 0)"/>
       <use xlink:href="#DejaVuSans-56" transform="translate(256.4375 0)"/>
      </g>
     </g>
    </g>
    <g id="ytick_4">
     <g id="line2d_13">
      <g>
       <use xlink:href="#me331ff4de7" x="59.053906" y="188.988635" style="stroke: #000000; stroke-width: 0.8"/>
      </g>
     </g>
     <g id="text_14">
      <!-- 30 ms -->
      <g transform="translate(21.200781 192.787463) scale(0.1 -0.1)">
       <use xlink:href="#DejaVuSans-16"/>
       <use xlink:href="#DejaVuSans-13" transform="translate(63.625 0)"/>
       <use xlink:href="#DejaVuSans-3" transform="translate(127.25 0)"/>
       <use xlink:href="#DejaVuSans-50" transform="translate(159.03125 0)"/>
       <use xlink:href="#DejaVuSans-56" transform="translate(256.4375 0)"/>
      </g>
     </g>
    </g>
    <g id="ytick_5">
     <g id="line2d_14">
      <g>
       <use xlink:href="#me331ff4de7" x="59.053906" y="155.841471" style="stroke: #000000; stroke-width: 0.8"/>
      </g>
     </g>
     <g id="text_15">
      <!-- 40 ms -->
      <g transform="translate(21.200781 159.6403) scale(0.1 -0.1)">
       <use xlink:href="#DejaVuSans-17"/>
       <use xlink:href="#DejaVuSans-13" transform="translate(63.625 0)"/>
       <use xlink:href="#DejaVuSans-3" transform="translate(127.25 0)"/>
       <use xlink:href="#DejaVuSans-50" transform="translate(159.03125 0)"/>
       <use xlink:href="#DejaVuSans-56" transform="translate(256.4375 0)"/>
      </g>
     </g>
    </g>
    <g id="ytick_6">
     <g id="line2d_15">
      <g>
       <use xlink:href="#me331ff4de7" x="59.053906" y="122.694308" style="stroke: #000000; stroke-width: 0.8"/>
      </g>
     </g>
     <g id="text_16">
      <!-- 50 ms -->
      <g transform="translate(21.200781 126.493136) scale(0.1 -0.1)">
       <use xlink:href="#DejaVuSans-18"/>
       <use xlink:href="#DejaVuSans-13" transform="translate(63.625 0)"/>
       <use xlink:href="#DejaVuSans-3" transform="translate(127.25 0)"/>
       <use xlink:href="#DejaVuSans-50" transform="translate(159.03125 0)"/>
       <use xlink:href="#DejaVuSans-56" transform="translate(256.4375 0)"/>
      </g>
     </g>
    </g>
    <g id="ytick_7">
     <g id="line2d_16">
      <g>
       <use xlink:href="#me331ff4de7" x="59.053906" y="89.547145" style="stroke: #000000; stroke-width: 0.8"/>
      </g>
     </g>
     <g id="text_17">
      <!-- 60 ms -->
      <g transform="translate(21.200781 93.345973) scale(0.1 -0.1)">
       <defs>
        <path id="DejaVuSans-19" d="M 2113 2584 
Q 1688 2584 1439 2293 
Q 1191 2003 1191 1497 
Q 1191 994 1439 701 
Q 1688 409 2113 409 
Q 2538 409 2786 701 
Q 3034 994 3034 1497 
Q 3034 2003 2786 2293 
Q 2538 2584 2113 2584 
z
M 3366 4563 
L 3366 3988 
Q 3128 4100 2886 4159 
Q 2644 4219 2406 4219 
Q 1781 4219 1451 3797 
Q 1122 3375 1075 2522 
Q 1259 2794 1537 2939 
Q 1816 3084 2150 3084 
Q 2853 3084 3261 2657 
Q 3669 2231 3669 1497 
Q 3669 778 3244 343 
Q 2819 -91 2113 -91 
Q 1303 -91 875 529 
Q 447 1150 447 2328 
Q 447 3434 972 4092 
Q 1497 4750 2381 4750 
Q 2619 4750 2861 4703 
Q 3103 4656 3366 4563 
z
" transform="scale(0.015625)"/>
       </defs>
       <use xlink:href="#DejaVuSans-19"/>
       <use xlink:href="#DejaVuSans-13" transform="translate(63.625 0)"/>
       <use xlink:href="#DejaVuSans-3" transform="translate(127.25 0)"/>
       <use xlink:href="#DejaVuSans-50" transform="translate(159.03125 0)"/>
       <use xlink:href="#DejaVuSans-56" transform="translate(256.4375 0)"/>
      </g>
     </g>
    </g>
    <g id="ytick_8">
     <g id="line2d_17">
      <g>
       <use xlink:href="#me331ff4de7" x="59.053906" y="56.399981" style="stroke: #000000; stroke-width: 0.8"/>
      </g>
     </g>
     <g id="text_18">
      <!-- 70 ms -->
      <g transform="translate(21.200781 60.198809) scale(0.1 -0.1)">
       <defs>
        <path id="DejaVuSans-1a" d="M 525 4666 
L 3525 4666 
L 3525 4397 
L 1831 0 
L 1172 0 
L 2766 4134 
L 525 4134 
L 525 4666 
z
" transform="scale(0.015625)"/>
       </defs>
       <use xlink:href="#DejaVuSans-1a"/>
       <use xlink:href="#DejaVuSans-13" transform="translate(63.625 0)"/>
       <use xlink:href="#DejaVuSans-3" transform="translate(127.25 0)"/>
       <use xlink:href="#DejaVuSans-50" transform="translate(159.03125 0)"/>
       <use xlink:href="#DejaVuSans-56" transform="translate(256.4375 0)"/>
      </g>
     </g>
    </g>
    <g id="ytick_9">
     <g id="line2d_18">
      <g>
       <use xlink:href="#me331ff4de7" x="59.053906" y="23.252818" style="stroke: #000000; stroke-width: 0.8"/>
      </g>
     </g>
     <g id="text_19">
      <!-- 80 ms -->
      <g transform="translate(21.200781 27.051646) scale(0.1 -0.1)">
       <defs>
        <path id="DejaVuSans-1b" d="M 2034 2216 
Q 1584 2216 1326 1975 
Q 1069 1734 1069 1313 
Q 1069 891 1326 650 
Q 1584 409 2034 409 
Q 2484 409 2743 651 
Q 3003 894 3003 1313 
Q 3003 1734 2745 1975 
Q 2488 2216 2034 2216 
z
M 1403 2484 
Q 997 2584 770 2862 
Q 544 3141 544 3541 
Q 544 4100 942 4425 
Q 1341 4750 2034 4750 
Q 2731 4750 3128 4425 
Q 3525 4100 3525 3541 
Q 3525 3141 3298 2862 
Q 3072 2584 2669 2484 
Q 3125 2378 3379 2068 
Q 3634 1759 3634 1313 
Q 3634 634 3220 271 
Q 2806 -91 2034 -91 
Q 1263 -91 848 271 
Q 434 634 434 1313 
Q 434 1759 690 2068 
Q 947 2378 1403 2484 
z
M 1172 3481 
Q 1172 3119 1398 2916 
Q 1625 2713 2034 2713 
Q 2441 2713 2670 2916 
Q 2900 3119 2900 3481 
Q 2900 3844 2670 4047 
Q 2441 4250 2034 4250 
Q 1625 4250 1398 4047 
Q 1172 3844 1172 3481 
z
" transform="scale(0.015625)"/>
       </defs>
       <use xlink:href="#DejaVuSans-1b"/>
       <use xlink:href="#DejaVuSans-13" transform="translate(63.625 0)"/>
       <use xlink:href="#DejaVuSans-3" transform="translate(127.25 0)"/>
       <use xlink:href="#DejaVuSans-50" transform="translate(159.03125 0)"/>
       <use xlink:href="#DejaVuSans-56" transform="translate(256.4375 0)"/>
      </g>
     </g>
    </g>
    <g id="text_20">
     <!-- Read latency (s) -->
     <g transform="translate(14.798438 195.990531) rotate(-90) scale(0.1 -0.1)">
      <defs>
       <path id="DejaVuSans-35" d="M 2841 2188 
Q 3044 2119 3236 1894 
Q 3428 1669 3622 1275 
L 4263 0 
L 3584 0 
L 2988 1197 
Q 2756 1666 2539 1819 
Q 2322 1972 1947 1972 
L 1259 1972 
L 1259 0 
L 628 0 
L 628 4666 
L 2053 4666 
Q 2853 4666 3247 4331 
Q 3641 3997 3641 3322 
Q 3641 2881 3436 2590 
Q 3231 2300 2841 2188 
z
M 1259 4147 
L 1259 2491 
L 2053 2491 
Q 2509 2491 2742 2702 
Q 2975 2913 2975 3322 
Q 2975 3731 2742 3939 
Q 2509 4147 2053 4147 
L 1259 4147 
z
" transform="scale(0.015625)"/>
       <path id="DejaVuSans-47" d="M 2906 2969 
L 2906 4863 
L 3481 4863 
L 3481 0 
L 2906 0 
L 2906 525 
Q 2725 213 2448 61 
Q 2172 -91 1784 -91 
Q 1150 -91 751 415 
Q 353 922 353 1747 
Q 353 2572 751 3078 
Q 1150 3584 1784 3584 
Q 2172 3584 2448 3432 
Q 2725 3281 2906 2969 
z
M 947 1747 
Q 947 1113 1208 752 
Q 1469 391 1925 391 
Q 2381 391 2643 752 
Q 2906 1113 2906 1747 
Q 2906 2381 2643 2742 
Q 2381 3103 1925 3103 
Q 1469 3103 1208 2742 
Q 947 2381 947 1747 
z
" transform="scale(0.015625)"/>
       <path id="DejaVuSans-5c" d="M 2059 -325 
Q 1816 -950 1584 -1140 
Q 1353 -1331 966 -1331 
L 506 -1331 
L 506 -850 
L 844 -850 
Q 1081 -850 1212 -737 
Q 1344 -625 1503 -206 
L 1606 56 
L 191 3500 
L 800 3500 
L 1894 763 
L 2988 3500 
L 3597 3500 
L 2059 -325 
z
" transform="scale(0.015625)"/>
       <path id="DejaVuSans-b" d="M 1984 4856 
Q 1566 4138 1362 3434 
Q 1159 2731 1159 2009 
Q 1159 1288 1364 580 
Q 1569 -128 1984 -844 
L 1484 -844 
Q 1016 -109 783 600 
Q 550 1309 550 2009 
Q 550 2706 781 3412 
Q 1013 4119 1484 4856 
L 1984 4856 
z
" transform="scale(0.015625)"/>
       <path id="DejaVuSans-c" d="M 513 4856 
L 1013 4856 
Q 1481 4119 1714 3412 
Q 1947 2706 1947 2009 
Q 1947 1309 1714 600 
Q 1481 -109 1013 -844 
L 513 -844 
Q 928 -128 1133 580 
Q 1338 1288 1338 2009 
Q 1338 2731 1133 3434 
Q 928 4138 513 4856 
z
" transform="scale(0.015625)"/>
      </defs>
      <use xlink:href="#DejaVuSans-35"/>
      <use xlink:href="#DejaVuSans-48" transform="translate(65 0)"/>
      <use xlink:href="#DejaVuSans-44" transform="translate(126.53125 0)"/>
      <use xlink:href="#DejaVuSans-47" transform="translate(187.8125 0)"/>
      <use xlink:href="#DejaVuSans-3" transform="translate(251.296875 0)"/>
      <use xlink:href="#DejaVuSans-4f" transform="translate(283.078125 0)"/>
      <use xlink:href="#DejaVuSans-44" transform="translate(310.859375 0)"/>
      <use xlink:href="#DejaVuSans-57" transform="translate(372.140625 0)"/>
      <use xlink:href="#DejaVuSans-48" transform="translate(411.34375 0)"/>
      <use xlink:href="#DejaVuSans-51" transform="translate(472.875 0)"/>
      <use xlink:href="#DejaVuSans-46" transform="translate(536.25 0)"/>
      <use xlink:href="#DejaVuSans-5c" transform="translate(591.234375 0)"/>
      <use xlink:href="#DejaVuSans-3" transform="translate(650.421875 0)"/>
      <use xlink:href="#DejaVuSans-b" transform="translate(682.203125 0)"/>
      <use xlink:href="#DejaVuSans-56" transform="translate(721.21875 0)"/>
      <use xlink:href="#DejaVuSans-c" transform="translate(773.3125 0)"/>
     </g>
    </g>
   </g>
   <g id="line2d_19">
    <path d="M 143.973606 258.402588 
L 151.376862 254.583108 
L 159.215604 250.355685 
L 160.957546 249.472032 
L 161.393032 248.446438 
L 164.005946 247.107744 
L 164.441431 246.028151 
L 166.61886 244.955358 
L 167.054345 243.911892 
L 167.925317 243.452109 
L 168.360802 242.405356 
L 172.715659 240.053741 
L 173.151144 238.981342 
L 174.457601 238.247069 
L 174.893087 237.048191 
L 175.328572 236.809657 
L 175.764058 235.759346 
L 177.506001 234.776014 
L 177.941486 233.686415 
L 178.376972 233.426548 
L 178.812458 233.932694 
L 179.247943 232.89078 
L 180.118914 232.463176 
L 180.5544 231.432966 
L 182.731828 230.253124 
L 183.167314 230.783093 
L 185.344742 229.630319 
L 185.780228 228.563111 
L 186.651199 228.102522 
L 187.086685 228.015878 
L 187.52217 228.585183 
L 187.957656 228.343378 
L 188.393142 227.323045 
L 189.264113 226.836612 
L 189.699599 227.37043 
L 198.409311 222.495614 
L 198.844797 221.429229 
L 203.635139 218.641171 
L 207.989996 216.141658 
L 208.425481 215.126265 
L 210.167424 214.153305 
L 210.602909 213.115318 
L 211.038395 213.646899 
L 211.473881 213.729239 
L 214.086794 212.06623 
L 214.52228 210.992818 
L 218.006165 208.835577 
L 220.183593 207.549277 
L 221.49005 206.710022 
L 221.925536 207.190218 
L 222.361022 206.951769 
L 222.796507 205.906844 
L 223.231993 205.653801 
L 223.667479 206.143773 
L 224.102964 205.055211 
L 228.022335 202.55661 
L 228.457821 203.086157 
L 228.893306 202.783841 
L 229.328792 201.687956 
L 231.50622 200.368001 
L 232.812677 197.027843 
L 234.55462 195.876986 
L 236.732048 194.449471 
L 237.603019 192.258816 
L 239.344962 191.129808 
L 239.780447 190.069668 
L 245.877246 186.329744 
L 246.312732 186.852373 
L 248.925646 185.128974 
L 249.796617 184.654832 
L 250.667588 184.035245 
L 251.103074 182.767932 
L 251.53856 182.440452 
L 251.974045 182.96824 
L 252.845017 182.346606 
L 253.280502 182.85024 
L 254.151473 182.197002 
L 254.586959 180.851933 
L 255.022445 180.046052 
L 255.45793 179.758346 
L 255.893416 178.532107 
L 256.764387 177.970029 
L 257.199873 176.843298 
L 257.635359 176.544682 
L 258.070844 177.080604 
L 258.50633 176.813989 
L 258.941816 176.027358 
L 259.812787 175.481507 
L 260.248272 174.823816 
L 260.683758 175.325933 
L 262.425701 174.120802 
L 262.861186 174.600532 
L 263.732158 173.948709 
L 264.167643 174.423252 
L 265.038614 173.746821 
L 265.4741 174.207041 
L 265.909586 173.595758 
L 267.651528 172.307536 
L 268.087014 171.193122 
L 269.828957 169.896106 
L 270.264442 169.562337 
L 270.699928 170.051465 
L 274.619299 167.126554 
L 275.054784 165.997489 
L 277.232212 164.397646 
L 277.667698 163.323386 
L 279.845126 161.767545 
L 280.280612 160.648656 
L 282.45804 159.169266 
L 283.329011 158.530294 
L 283.764497 159.071205 
L 284.199983 158.792346 
L 284.635468 157.64427 
L 285.941925 156.742415 
L 288.554839 154.718713 
L 289.42581 152.52756 
L 290.732267 151.662537 
L 292.038724 150.690196 
L 292.909696 150.11506 
L 293.345181 150.565723 
L 293.780667 150.284044 
L 294.216152 148.947015 
L 295.087124 148.377601 
L 295.522609 148.870815 
L 298.135523 146.95805 
L 299.006495 146.167967 
L 299.44198 146.60629 
L 301.619408 145.040121 
L 302.054894 143.868985 
L 303.361351 142.847663 
L 303.796837 141.621911 
L 304.667808 140.944186 
L 305.103293 139.869092 
L 306.845236 138.646692 
L 307.280722 137.450209 
L 307.716207 137.908901 
L 308.587179 137.223574 
L 309.022664 137.744383 
L 310.329121 136.733096 
L 310.764607 135.591411 
L 312.506549 134.301317 
L 312.942035 133.025258 
L 313.377521 132.662211 
L 313.813006 131.954395 
L 314.683978 131.247231 
L 315.990435 130.256698 
L 316.42592 129.940509 
L 316.861406 130.355501 
L 317.296891 129.333408 
L 317.732377 129.602407 
L 318.167863 129.278562 
L 318.603348 128.014779 
L 319.47432 127.360476 
L 319.909805 125.548673 
L 320.345291 125.241919 
L 320.780777 124.137584 
L 321.216262 123.492209 
L 321.651748 123.163534 
L 322.522719 124.157617 
L 322.958205 123.84048 
L 323.39369 122.609139 
L 324.264662 121.966824 
L 324.700147 122.409321 
L 326.006604 121.421512 
L 326.44209 120.216664 
L 327.748547 119.14987 
L 329.055004 118.099619 
L 330.361461 117.147429 
L 331.232432 114.709895 
L 332.103403 114.014318 
L 333.40986 110.483039 
L 333.845346 110.027861 
L 334.280831 110.467242 
L 334.716317 108.920275 
L 335.151803 108.590639 
L 335.587288 107.071467 
L 336.022774 107.720911 
L 338.635688 105.740132 
L 339.071173 104.596291 
L 339.506659 105.237301 
L 339.942145 104.538572 
L 340.37763 104.197746 
L 340.813116 104.729664 
L 341.684087 104.032713 
L 342.119573 104.503957 
L 342.555059 104.141797 
L 343.42603 101.513723 
L 343.861516 101.606012 
L 344.297001 101.290014 
L 344.732487 101.751762 
L 345.167972 101.742741 
L 345.603458 100.674123 
L 346.038944 99.944924 
L 348.216372 98.473927 
L 350.3938 96.913809 
L 350.829286 96.897144 
L 351.700257 96.215307 
L 352.135743 94.970016 
L 352.571228 94.696864 
L 353.006714 95.212939 
L 353.877685 94.610366 
L 354.313171 92.809558 
L 355.619628 91.002076 
L 356.055113 89.833821 
L 356.926085 89.119536 
L 357.36157 87.962025 
L 357.797056 87.60988 
L 358.232542 88.134069 
L 358.668027 87.752789 
L 359.103513 86.583581 
L 359.538999 86.241053 
L 359.974484 86.091717 
L 360.40997 85.753785 
L 360.845456 84.589639 
L 363.893855 82.178209 
L 364.329341 80.98879 
L 364.764826 80.554151 
L 365.200312 80.94258 
L 366.942255 79.565449 
L 367.37774 78.959812 
L 367.813226 77.784691 
L 369.119683 76.665499 
L 369.555168 77.193732 
L 370.42614 76.496843 
L 371.297111 75.56552 
L 371.732597 74.351501 
L 372.603568 73.702738 
L 373.039053 72.463122 
L 373.910025 71.628389 
L 375.216482 70.39963 
L 376.522939 69.311303 
L 378.700367 63.045593 
L 379.135852 63.710113 
L 379.571338 63.326932 
L 381.313281 58.526054 
L 381.748766 58.257412 
L 383.055223 57.059098 
L 383.490709 56.823912 
L 386.539108 48.195692 
L 386.974594 48.658992 
L 387.845565 47.864362 
L 388.281051 46.514729 
L 388.716537 47.04184 
L 390.022994 45.714972 
L 391.32945 41.886576 
L 391.764936 41.580134 
L 392.200422 42.092206 
L 393.942364 40.579631 
L 394.37785 39.392429 
L 394.813336 39.122563 
L 395.248821 37.904054 
L 395.684307 38.317213 
L 396.119792 37.125189 
L 396.990764 36.277568 
L 397.426249 34.990125 
L 397.861735 35.505953 
L 398.297221 35.122679 
L 398.732706 35.125828 
L 399.168192 35.572901 
L 399.168192 35.572901 
" clip-path="url(#pe29de0a9af)" style="fill: none; stroke: #1f77b4; stroke-opacity: 0.8; stroke-width: 1.5; stroke-linecap: square"/>
   </g>
   <g id="line2d_20">
    <path d="M 143.973606 280.311411 
L 155.296233 277.721206 
L 159.215604 276.667255 
L 159.651089 275.726473 
L 166.61886 273.670654 
L 176.635029 270.309461 
L 187.52217 266.159997 
L 193.183484 263.795247 
L 194.054455 263.412755 
L 194.489941 262.37108 
L 200.58674 259.642468 
L 201.893197 258.94869 
L 203.635139 258.093118 
L 204.070625 257.675493 
L 204.50611 257.448432 
L 204.941596 257.090609 
L 208.860967 255.103298 
L 209.731938 254.617314 
L 210.167424 254.183076 
L 210.602909 253.364753 
L 211.473881 252.897262 
L 212.344852 251.323645 
L 214.957766 249.681349 
L 216.699708 248.602344 
L 217.135194 247.760353 
L 218.006165 247.253238 
L 218.441651 246.012475 
L 220.619079 244.778532 
L 222.361022 243.853577 
L 223.231993 243.236628 
L 223.667479 242.381773 
L 224.53845 241.860032 
L 224.973936 240.681916 
L 227.151364 239.322759 
L 227.586849 238.675799 
L 230.199763 237.036568 
L 237.603019 232.307979 
L 238.038505 231.713568 
L 241.086904 229.688355 
L 244.135304 227.679851 
L 244.570789 228.201698 
L 246.312732 226.999014 
L 248.49016 225.44224 
L 250.667588 223.861559 
L 252.409531 222.495764 
L 260.248272 216.502046 
L 261.119244 215.628938 
L 261.554729 214.46029 
L 263.732158 212.869059 
L 276.361241 202.69855 
L 278.103184 201.144022 
L 278.538669 199.672291 
L 278.974155 199.31878 
L 279.409641 199.7716 
L 283.329011 196.344757 
L 286.812897 193.215833 
L 288.119353 192.000841 
L 288.554839 191.614985 
L 288.990325 191.454037 
L 290.296782 190.447852 
L 290.732267 189.784187 
L 294.651638 186.110157 
L 295.087124 185.93186 
L 295.522609 186.146195 
L 296.393581 185.325983 
L 297.264552 185.647984 
L 299.006495 183.893333 
L 300.748437 182.473608 
L 301.619408 181.718184 
L 302.054894 181.864031 
L 302.925865 181.104412 
L 303.361351 181.691561 
L 304.667808 180.101263 
L 306.40975 178.305096 
L 306.845236 177.870825 
L 307.280722 176.891433 
L 308.151693 175.813133 
L 308.587179 175.90355 
L 309.022664 174.519453 
L 309.45815 174.09257 
L 309.893636 174.45458 
L 310.764607 173.600605 
L 311.635578 172.536992 
L 312.071064 172.026874 
L 312.506549 171.767456 
L 314.683978 169.447818 
L 316.861406 167.087011 
L 322.087233 161.272142 
L 322.522719 160.715409 
L 322.958205 160.576772 
L 324.700147 158.724134 
L 326.006604 157.255528 
L 326.44209 155.859685 
L 336.022774 144.986394 
L 337.764717 143.143462 
L 338.200202 141.684992 
L 339.506659 140.133462 
L 341.684087 137.945875 
L 343.42603 135.827148 
L 343.861516 135.046151 
L 345.603458 132.920356 
L 347.345401 131.373503 
L 349.958315 128.588396 
L 350.829286 127.426706 
L 352.135743 125.996703 
L 352.571228 125.024727 
L 353.4422 124.095962 
L 353.877685 122.788511 
L 356.490599 119.767374 
L 358.232542 117.559198 
L 359.103513 116.647812 
L 359.974484 114.444593 
L 360.845456 113.527435 
L 363.022884 111.513099 
L 363.458369 112.015521 
L 363.893855 110.683279 
L 364.329341 110.290436 
L 365.200312 109.267987 
L 365.635798 108.865369 
L 366.071283 107.675103 
L 370.861625 103.496058 
L 371.297111 101.518306 
L 372.168082 100.921386 
L 373.039053 100.140114 
L 373.474539 98.868991 
L 373.910025 98.452253 
L 374.34551 97.814537 
L 375.216482 96.855097 
L 375.651967 96.758669 
L 376.087453 95.243834 
L 376.958424 94.480851 
L 377.829396 93.617952 
L 378.264881 93.072972 
L 379.571338 92.051569 
L 380.006824 90.616572 
L 381.748766 88.964899 
L 382.619738 88.134782 
L 383.926195 87.21651 
L 386.103623 85.57926 
L 386.539108 85.121423 
L 386.974594 84.866082 
L 387.845565 84.077045 
L 389.152022 83.137686 
L 390.022994 82.703975 
L 390.893965 82.119225 
L 391.32945 81.002428 
L 391.764936 80.698762 
L 392.200422 80.961191 
L 392.635907 80.958155 
L 393.506879 80.342892 
L 393.942364 81.042546 
L 395.684307 79.935265 
L 396.119792 79.741802 
L 396.990764 79.039449 
L 397.426249 78.858983 
L 397.861735 77.654034 
L 399.168192 76.843131 
L 399.168192 76.843131 
" clip-path="url(#pe29de0a9af)" style="fill: none; stroke: #ff7f0e; stroke-opacity: 0.8; stroke-width: 1.5; stroke-linecap: square"/>
   </g>
   <g id="patch_3">
    <path d="M 59.053906 288.430125 
L 59.053906 22.318125 
" style="fill: none; stroke: #000000; stroke-width: 0.8; stroke-linejoin: miter; stroke-linecap: square"/>
   </g>
   <g id="patch_4">
    <path d="M 416.173906 288.430125 
L 416.173906 22.318125 
" style="fill: none; stroke: #000000; stroke-width: 0.8; stroke-linejoin: miter; stroke-linecap: square"/>
   </g>
   <g id="patch_5">
    <path d="M 59.053906 288.430125 
L 416.173906 288.430125 
" style="fill: none; stroke: #000000; stroke-width: 0.8; stroke-linejoin: miter; stroke-linecap: square"/>
   </g>
   <g id="patch_6">
    <path d="M 59.053906 22.318125 
L 416.173906 22.318125 
" style="fill: none; stroke: #000000; stroke-width: 0.8; stroke-linejoin: miter; stroke-linecap: square"/>
   </g>
   <g id="text_21">
    <!-- Get descendants from queryset -->
    <g transform="translate(142.560781 16.318125) scale(0.12 -0.12)">
     <defs>
      <path id="DejaVuSans-2a" d="M 3809 666 
L 3809 1919 
L 2778 1919 
L 2778 2438 
L 4434 2438 
L 4434 434 
Q 4069 175 3628 42 
Q 3188 -91 2688 -91 
Q 1594 -91 976 548 
Q 359 1188 359 2328 
Q 359 3472 976 4111 
Q 1594 4750 2688 4750 
Q 3144 4750 3555 4637 
Q 3966 4525 4313 4306 
L 4313 3634 
Q 3963 3931 3569 4081 
Q 3175 4231 2741 4231 
Q 1884 4231 1454 3753 
Q 1025 3275 1025 2328 
Q 1025 1384 1454 906 
Q 1884 428 2741 428 
Q 3075 428 3337 486 
Q 3600 544 3809 666 
z
" transform="scale(0.015625)"/>
      <path id="DejaVuSans-55" d="M 2631 2963 
Q 2534 3019 2420 3045 
Q 2306 3072 2169 3072 
Q 1681 3072 1420 2755 
Q 1159 2438 1159 1844 
L 1159 0 
L 581 0 
L 581 3500 
L 1159 3500 
L 1159 2956 
Q 1341 3275 1631 3429 
Q 1922 3584 2338 3584 
Q 2397 3584 2469 3576 
Q 2541 3569 2628 3553 
L 2631 2963 
z
" transform="scale(0.015625)"/>
      <path id="DejaVuSans-54" d="M 947 1747 
Q 947 1113 1208 752 
Q 1469 391 1925 391 
Q 2381 391 2643 752 
Q 2906 1113 2906 1747 
Q 2906 2381 2643 2742 
Q 2381 3103 1925 3103 
Q 1469 3103 1208 2742 
Q 947 2381 947 1747 
z
M 2906 525 
Q 2725 213 2448 61 
Q 2172 -91 1784 -91 
Q 1150 -91 751 415 
Q 353 922 353 1747 
Q 353 2572 751 3078 
Q 1150 3584 1784 3584 
Q 2172 3584 2448 3432 
Q 2725 3281 2906 2969 
L 2906 3500 
L 3481 3500 
L 3481 -1331 
L 2906 -1331 
L 2906 525 
z
" transform="scale(0.015625)"/>
     </defs>
     <use xlink:href="#DejaVuSans-2a"/>
     <use xlink:href="#DejaVuSans-48" transform="translate(77.484375 0)"/>
     <use xlink:href="#DejaVuSans-57" transform="translate(139.015625 0)"/>
     <use xlink:href="#DejaVuSans-3" transform="translate(178.21875 0)"/>
     <use xlink:href="#DejaVuSans-47" transform="translate(210 0)"/>
     <use xlink:href="#DejaVuSans-48" transform="translate(273.484375 0)"/>
     <use xlink:href="#DejaVuSans-56" transform="translate(335.015625 0)"/>
     <use xlink:href="#DejaVuSans-46" transform="translate(387.109375 0)"/>
     <use xlink:href="#DejaVuSans-48" transform="translate(442.09375 0)"/>
     <use xlink:href="#DejaVuSans-51" transform="translate(503.625 0)"/>
     <use xlink:href="#DejaVuSans-47" transform="translate(567 0)"/>
     <use xlink:href="#DejaVuSans-44" transform="translate(630.484375 0)"/>
     <use xlink:href="#DejaVuSans-51" transform="translate(691.765625 0)"/>
     <use xlink:href="#DejaVuSans-57" transform="translate(755.140625 0)"/>
     <use xlink:href="#DejaVuSans-56" transform="translate(794.34375 0)"/>
     <use xlink:href="#DejaVuSans-3" transform="translate(846.4375 0)"/>
     <use xlink:href="#DejaVuSans-49" transform="translate(878.21875 0)"/>
     <use xlink:href="#DejaVuSans-55" transform="translate(913.421875 0)"/>
     <use xlink:href="#DejaVuSans-52" transform="translate(952.328125 0)"/>
     <use xlink:href="#DejaVuSans-50" transform="translate(1013.515625 0)"/>
     <use xlink:href="#DejaVuSans-3" transform="translate(1110.921875 0)"/>
     <use xlink:href="#DejaVuSans-54" transform="translate(1142.703125 0)"/>
     <use xlink:href="#DejaVuSans-58" transform="translate(1206.1875 0)"/>
     <use xlink:href="#DejaVuSans-48" transform="translate(1269.5625 0)"/>
     <use xlink:href="#DejaVuSans-55" transform="translate(1331.09375 0)"/>
     <use xlink:href="#DejaVuSans-5c" transform="translate(1372.203125 0)"/>
     <use xlink:href="#DejaVuSans-56" transform="translate(1431.390625 0)"/>
     <use xlink:href="#DejaVuSans-48" transform="translate(1483.484375 0)"/>
     <use xlink:href="#DejaVuSans-57" transform="translate(1545.015625 0)"/>
    </g>
   </g>
   <g id="legend_1">
    <g id="patch_7">
     <path d="M 170.446094 351.446906 
L 297.261719 351.446906 
Q 299.261719 351.446906 299.261719 349.446906 
L 299.261719 335.446125 
Q 299.261719 333.446125 297.261719 333.446125 
L 170.446094 333.446125 
Q 168.446094 333.446125 168.446094 335.446125 
L 168.446094 349.446906 
Q 168.446094 351.446906 170.446094 351.446906 
z
" style="fill: #4d4d4d; opacity: 0.5; stroke: #4d4d4d; stroke-linejoin: miter"/>
    </g>
    <g id="patch_8">
     <path d="M 168.446094 349.446906 
L 295.261719 349.446906 
Q 297.261719 349.446906 297.261719 347.446906 
L 297.261719 333.446125 
Q 297.261719 331.446125 295.261719 331.446125 
L 168.446094 331.446125 
Q 166.446094 331.446125 166.446094 333.446125 
L 166.446094 347.446906 
Q 166.446094 349.446906 168.446094 349.446906 
z
" style="fill: #ffffff; stroke: #cccccc; stroke-linejoin: miter"/>
    </g>
    <g id="line2d_21">
     <path d="M 170.446094 339.544562 
L 180.446094 339.544562 
L 190.446094 339.544562 
" style="fill: none; stroke: #1f77b4; stroke-opacity: 0.8; stroke-width: 1.5; stroke-linecap: square"/>
    </g>
    <g id="text_22">
     <!-- MPTT -->
     <g transform="translate(198.446094 343.044562) scale(0.1 -0.1)">
      <defs>
       <path id="DejaVuSans-30" d="M 628 4666 
L 1569 4666 
L 2759 1491 
L 3956 4666 
L 4897 4666 
L 4897 0 
L 4281 0 
L 4281 4097 
L 3078 897 
L 2444 897 
L 1241 4097 
L 1241 0 
L 628 0 
L 628 4666 
z
" transform="scale(0.015625)"/>
       <path id="DejaVuSans-33" d="M 1259 4147 
L 1259 2394 
L 2053 2394 
Q 2494 2394 2734 2622 
Q 2975 2850 2975 3272 
Q 2975 3691 2734 3919 
Q 2494 4147 2053 4147 
L 1259 4147 
z
M 628 4666 
L 2053 4666 
Q 2838 4666 3239 4311 
Q 3641 3956 3641 3272 
Q 3641 2581 3239 2228 
Q 2838 1875 2053 1875 
L 1259 1875 
L 1259 0 
L 628 0 
L 628 4666 
z
" transform="scale(0.015625)"/>
       <path id="DejaVuSans-37" d="M -19 4666 
L 3928 4666 
L 3928 4134 
L 2272 4134 
L 2272 0 
L 1638 0 
L 1638 4134 
L -19 4134 
L -19 4666 
z
" transform="scale(0.015625)"/>
      </defs>
      <use xlink:href="#DejaVuSans-30"/>
      <use xlink:href="#DejaVuSans-33" transform="translate(86.28125 0)"/>
      <use xlink:href="#DejaVuSans-37" transform="translate(146.578125 0)"/>
      <use xlink:href="#DejaVuSans-37" transform="translate(205.90625 0)"/>
     </g>
    </g>
    <g id="line2d_22">
     <path d="M 245.144531 339.544562 
L 255.144531 339.544562 
L 265.144531 339.544562 
" style="fill: none; stroke: #ff7f0e; stroke-opacity: 0.8; stroke-width: 1.5; stroke-linecap: square"/>
    </g>
    <g id="text_23">
     <!-- tree -->
     <g transform="translate(273.144531 343.044562) scale(0.1 -0.1)">
      <use xlink:href="#DejaVuSans-57"/>
      <use xlink:href="#DejaVuSans-55" transform="translate(39.203125 0)"/>
      <use xlink:href="#DejaVuSans-48" transform="translate(78.109375 0)"/>
      <use xlink:href="#DejaVuSans-48" transform="translate(139.640625 0)"/>
     </g>
    </g>
   </g>
  </g>
 </g>
 <defs>
  <clipPath id="pe29de0a9af">
   <rect x="59.053906" y="22.318125" width="357.12" height="266.112"/>
  </clipPath>
 </defs>
</svg>
