<?xml version="1.0" encoding="utf-8" standalone="no"?>
<!DOCTYPE svg PUBLIC "-//W3C//DTD SVG 1.1//EN"
  "http://www.w3.org/Graphics/SVG/1.1/DTD/svg11.dtd">
<!-- Created with matplotlib (http://matplotlib.org/) -->
<svg height="371pt" version="1.1" viewBox="0 0 429 371" width="429pt" xmlns="http://www.w3.org/2000/svg" xmlns:xlink="http://www.w3.org/1999/xlink">
 <defs>
  <style type="text/css">
*{stroke-linecap:butt;stroke-linejoin:round;}
  </style>
 </defs>
 <g id="figure_1">
  <g id="patch_1">
   <path d="M 0 371.002375 
L 429.729375 371.002375 
L 429.729375 0 
L 0 0 
z
" style="fill:#ffffff;"/>
  </g>
  <g id="axes_1">
   <g id="patch_2">
    <path d="M 61.909375 288.430125 
L 419.029375 288.430125 
L 419.029375 22.318125 
L 61.909375 22.318125 
z
" style="fill:#ffffff;"/>
   </g>
   <g id="matplotlib.axis_1">
    <g id="xtick_1">
     <g id="line2d_1">
      <defs>
       <path d="M 0 0 
L 0 3.5 
" id="mf8d90d633e" style="stroke:#000000;stroke-width:0.8;"/>
      </defs>
      <g>
       <use style="stroke:#000000;stroke-width:0.8;" x="61.909375" xlink:href="#mf8d90d633e" y="288.430125"/>
      </g>
     </g>
     <g id="text_1">
      <!-- 0 -->
      <defs>
       <path d="M 31.78125 66.40625 
Q 24.171875 66.40625 20.328125 58.90625 
Q 16.5 51.421875 16.5 36.375 
Q 16.5 21.390625 20.328125 13.890625 
Q 24.171875 6.390625 31.78125 6.390625 
Q 39.453125 6.390625 43.28125 13.890625 
Q 47.125 21.390625 47.125 36.375 
Q 47.125 51.421875 43.28125 58.90625 
Q 39.453125 66.40625 31.78125 66.40625 
z
M 31.78125 74.21875 
Q 44.046875 74.21875 50.515625 64.515625 
Q 56.984375 54.828125 56.984375 36.375 
Q 56.984375 17.96875 50.515625 8.265625 
Q 44.046875 -1.421875 31.78125 -1.421875 
Q 19.53125 -1.421875 13.0625 8.265625 
Q 6.59375 17.96875 6.59375 36.375 
Q 6.59375 54.828125 13.0625 64.515625 
Q 19.53125 74.21875 31.78125 74.21875 
z
" id="DejaVuSans-30"/>
      </defs>
      <g transform="translate(58.728125 303.028562)scale(0.1 -0.1)">
       <use xlink:href="#DejaVuSans-30"/>
      </g>
     </g>
    </g>
    <g id="xtick_2">
     <g id="line2d_2">
      <g>
       <use style="stroke:#000000;stroke-width:0.8;" x="105.457939" xlink:href="#mf8d90d633e" y="288.430125"/>
      </g>
     </g>
     <g id="text_2">
      <!-- 500  -->
      <defs>
       <path d="M 10.796875 72.90625 
L 49.515625 72.90625 
L 49.515625 64.59375 
L 19.828125 64.59375 
L 19.828125 46.734375 
Q 21.96875 47.46875 24.109375 47.828125 
Q 26.265625 48.1875 28.421875 48.1875 
Q 40.625 48.1875 47.75 41.5 
Q 54.890625 34.8125 54.890625 23.390625 
Q 54.890625 11.625 47.5625 5.09375 
Q 40.234375 -1.421875 26.90625 -1.421875 
Q 22.3125 -1.421875 17.546875 -0.640625 
Q 12.796875 0.140625 7.71875 1.703125 
L 7.71875 11.625 
Q 12.109375 9.234375 16.796875 8.0625 
Q 21.484375 6.890625 26.703125 6.890625 
Q 35.15625 6.890625 40.078125 11.328125 
Q 45.015625 15.765625 45.015625 23.390625 
Q 45.015625 31 40.078125 35.4375 
Q 35.15625 39.890625 26.703125 39.890625 
Q 22.75 39.890625 18.8125 39.015625 
Q 14.890625 38.140625 10.796875 36.28125 
z
" id="DejaVuSans-35"/>
       <path id="DejaVuSans-20"/>
      </defs>
      <g transform="translate(94.325127 303.028562)scale(0.1 -0.1)">
       <use xlink:href="#DejaVuSans-35"/>
       <use x="63.623047" xlink:href="#DejaVuSans-30"/>
       <use x="127.246094" xlink:href="#DejaVuSans-30"/>
       <use x="190.869141" xlink:href="#DejaVuSans-20"/>
      </g>
     </g>
    </g>
    <g id="xtick_3">
     <g id="line2d_3">
      <g>
       <use style="stroke:#000000;stroke-width:0.8;" x="149.006503" xlink:href="#mf8d90d633e" y="288.430125"/>
      </g>
     </g>
     <g id="text_3">
      <!-- 1 k -->
      <defs>
       <path d="M 12.40625 8.296875 
L 28.515625 8.296875 
L 28.515625 63.921875 
L 10.984375 60.40625 
L 10.984375 69.390625 
L 28.421875 72.90625 
L 38.28125 72.90625 
L 38.28125 8.296875 
L 54.390625 8.296875 
L 54.390625 0 
L 12.40625 0 
z
" id="DejaVuSans-31"/>
       <path d="M 9.078125 75.984375 
L 18.109375 75.984375 
L 18.109375 31.109375 
L 44.921875 54.6875 
L 56.390625 54.6875 
L 27.390625 29.109375 
L 57.625 0 
L 45.90625 0 
L 18.109375 26.703125 
L 18.109375 0 
L 9.078125 0 
z
" id="DejaVuSans-6b"/>
      </defs>
      <g transform="translate(141.340878 303.028562)scale(0.1 -0.1)">
       <use xlink:href="#DejaVuSans-31"/>
       <use x="63.623047" xlink:href="#DejaVuSans-20"/>
       <use x="95.410156" xlink:href="#DejaVuSans-6b"/>
      </g>
     </g>
    </g>
    <g id="xtick_4">
     <g id="line2d_4">
      <g>
       <use style="stroke:#000000;stroke-width:0.8;" x="192.555067" xlink:href="#mf8d90d633e" y="288.430125"/>
      </g>
     </g>
     <g id="text_4">
      <!-- 1.5 k -->
      <defs>
       <path d="M 10.6875 12.40625 
L 21 12.40625 
L 21 0 
L 10.6875 0 
z
" id="DejaVuSans-2e"/>
      </defs>
      <g transform="translate(180.11913 303.028562)scale(0.1 -0.1)">
       <use xlink:href="#DejaVuSans-31"/>
       <use x="63.623047" xlink:href="#DejaVuSans-2e"/>
       <use x="95.410156" xlink:href="#DejaVuSans-35"/>
       <use x="159.033203" xlink:href="#DejaVuSans-20"/>
       <use x="190.820312" xlink:href="#DejaVuSans-6b"/>
      </g>
     </g>
    </g>
    <g id="xtick_5">
     <g id="line2d_5">
      <g>
       <use style="stroke:#000000;stroke-width:0.8;" x="236.103631" xlink:href="#mf8d90d633e" y="288.430125"/>
      </g>
     </g>
     <g id="text_5">
      <!-- 2 k -->
      <defs>
       <path d="M 19.1875 8.296875 
L 53.609375 8.296875 
L 53.609375 0 
L 7.328125 0 
L 7.328125 8.296875 
Q 12.9375 14.109375 22.625 23.890625 
Q 32.328125 33.6875 34.8125 36.53125 
Q 39.546875 41.84375 41.421875 45.53125 
Q 43.3125 49.21875 43.3125 52.78125 
Q 43.3125 58.59375 39.234375 62.25 
Q 35.15625 65.921875 28.609375 65.921875 
Q 23.96875 65.921875 18.8125 64.3125 
Q 13.671875 62.703125 7.8125 59.421875 
L 7.8125 69.390625 
Q 13.765625 71.78125 18.9375 73 
Q 24.125 74.21875 28.421875 74.21875 
Q 39.75 74.21875 46.484375 68.546875 
Q 53.21875 62.890625 53.21875 53.421875 
Q 53.21875 48.921875 51.53125 44.890625 
Q 49.859375 40.875 45.40625 35.40625 
Q 44.1875 33.984375 37.640625 27.21875 
Q 31.109375 20.453125 19.1875 8.296875 
z
" id="DejaVuSans-32"/>
      </defs>
      <g transform="translate(228.438006 303.028562)scale(0.1 -0.1)">
       <use xlink:href="#DejaVuSans-32"/>
       <use x="63.623047" xlink:href="#DejaVuSans-20"/>
       <use x="95.410156" xlink:href="#DejaVuSans-6b"/>
      </g>
     </g>
    </g>
    <g id="xtick_6">
     <g id="line2d_6">
      <g>
       <use style="stroke:#000000;stroke-width:0.8;" x="279.652196" xlink:href="#mf8d90d633e" y="288.430125"/>
      </g>
     </g>
     <g id="text_6">
      <!-- 2.5 k -->
      <g transform="translate(267.216258 303.028562)scale(0.1 -0.1)">
       <use xlink:href="#DejaVuSans-32"/>
       <use x="63.623047" xlink:href="#DejaVuSans-2e"/>
       <use x="95.410156" xlink:href="#DejaVuSans-35"/>
       <use x="159.033203" xlink:href="#DejaVuSans-20"/>
       <use x="190.820312" xlink:href="#DejaVuSans-6b"/>
      </g>
     </g>
    </g>
    <g id="xtick_7">
     <g id="line2d_7">
      <g>
       <use style="stroke:#000000;stroke-width:0.8;" x="323.20076" xlink:href="#mf8d90d633e" y="288.430125"/>
      </g>
     </g>
     <g id="text_7">
      <!-- 3 k -->
      <defs>
       <path d="M 40.578125 39.3125 
Q 47.65625 37.796875 51.625 33 
Q 55.609375 28.21875 55.609375 21.1875 
Q 55.609375 10.40625 48.1875 4.484375 
Q 40.765625 -1.421875 27.09375 -1.421875 
Q 22.515625 -1.421875 17.65625 -0.515625 
Q 12.796875 0.390625 7.625 2.203125 
L 7.625 11.71875 
Q 11.71875 9.328125 16.59375 8.109375 
Q 21.484375 6.890625 26.8125 6.890625 
Q 36.078125 6.890625 40.9375 10.546875 
Q 45.796875 14.203125 45.796875 21.1875 
Q 45.796875 27.640625 41.28125 31.265625 
Q 36.765625 34.90625 28.71875 34.90625 
L 20.21875 34.90625 
L 20.21875 43.015625 
L 29.109375 43.015625 
Q 36.375 43.015625 40.234375 45.921875 
Q 44.09375 48.828125 44.09375 54.296875 
Q 44.09375 59.90625 40.109375 62.90625 
Q 36.140625 65.921875 28.71875 65.921875 
Q 24.65625 65.921875 20.015625 65.03125 
Q 15.375 64.15625 9.8125 62.3125 
L 9.8125 71.09375 
Q 15.4375 72.65625 20.34375 73.4375 
Q 25.25 74.21875 29.59375 74.21875 
Q 40.828125 74.21875 47.359375 69.109375 
Q 53.90625 64.015625 53.90625 55.328125 
Q 53.90625 49.265625 50.4375 45.09375 
Q 46.96875 40.921875 40.578125 39.3125 
z
" id="DejaVuSans-33"/>
      </defs>
      <g transform="translate(315.535135 303.028562)scale(0.1 -0.1)">
       <use xlink:href="#DejaVuSans-33"/>
       <use x="63.623047" xlink:href="#DejaVuSans-20"/>
       <use x="95.410156" xlink:href="#DejaVuSans-6b"/>
      </g>
     </g>
    </g>
    <g id="xtick_8">
     <g id="line2d_8">
      <g>
       <use style="stroke:#000000;stroke-width:0.8;" x="366.749324" xlink:href="#mf8d90d633e" y="288.430125"/>
      </g>
     </g>
     <g id="text_8">
      <!-- 3.5 k -->
      <g transform="translate(354.313386 303.028562)scale(0.1 -0.1)">
       <use xlink:href="#DejaVuSans-33"/>
       <use x="63.623047" xlink:href="#DejaVuSans-2e"/>
       <use x="95.410156" xlink:href="#DejaVuSans-35"/>
       <use x="159.033203" xlink:href="#DejaVuSans-20"/>
       <use x="190.820312" xlink:href="#DejaVuSans-6b"/>
      </g>
     </g>
    </g>
    <g id="xtick_9">
     <g id="line2d_9">
      <g>
       <use style="stroke:#000000;stroke-width:0.8;" x="410.297888" xlink:href="#mf8d90d633e" y="288.430125"/>
      </g>
     </g>
     <g id="text_9">
      <!-- 4 k -->
      <defs>
       <path d="M 37.796875 64.3125 
L 12.890625 25.390625 
L 37.796875 25.390625 
z
M 35.203125 72.90625 
L 47.609375 72.90625 
L 47.609375 25.390625 
L 58.015625 25.390625 
L 58.015625 17.1875 
L 47.609375 17.1875 
L 47.609375 0 
L 37.796875 0 
L 37.796875 17.1875 
L 4.890625 17.1875 
L 4.890625 26.703125 
z
" id="DejaVuSans-34"/>
      </defs>
      <g transform="translate(402.632263 303.028562)scale(0.1 -0.1)">
       <use xlink:href="#DejaVuSans-34"/>
       <use x="63.623047" xlink:href="#DejaVuSans-20"/>
       <use x="95.410156" xlink:href="#DejaVuSans-6b"/>
      </g>
     </g>
    </g>
    <g id="text_10">
     <!-- Amount of objects in table -->
     <defs>
      <path d="M 34.1875 63.1875 
L 20.796875 26.90625 
L 47.609375 26.90625 
z
M 28.609375 72.90625 
L 39.796875 72.90625 
L 67.578125 0 
L 57.328125 0 
L 50.6875 18.703125 
L 17.828125 18.703125 
L 11.1875 0 
L 0.78125 0 
z
" id="DejaVuSans-41"/>
      <path d="M 52 44.1875 
Q 55.375 50.25 60.0625 53.125 
Q 64.75 56 71.09375 56 
Q 79.640625 56 84.28125 50.015625 
Q 88.921875 44.046875 88.921875 33.015625 
L 88.921875 0 
L 79.890625 0 
L 79.890625 32.71875 
Q 79.890625 40.578125 77.09375 44.375 
Q 74.3125 48.1875 68.609375 48.1875 
Q 61.625 48.1875 57.5625 43.546875 
Q 53.515625 38.921875 53.515625 30.90625 
L 53.515625 0 
L 44.484375 0 
L 44.484375 32.71875 
Q 44.484375 40.625 41.703125 44.40625 
Q 38.921875 48.1875 33.109375 48.1875 
Q 26.21875 48.1875 22.15625 43.53125 
Q 18.109375 38.875 18.109375 30.90625 
L 18.109375 0 
L 9.078125 0 
L 9.078125 54.6875 
L 18.109375 54.6875 
L 18.109375 46.1875 
Q 21.1875 51.21875 25.484375 53.609375 
Q 29.78125 56 35.6875 56 
Q 41.65625 56 45.828125 52.96875 
Q 50 49.953125 52 44.1875 
z
" id="DejaVuSans-6d"/>
      <path d="M 30.609375 48.390625 
Q 23.390625 48.390625 19.1875 42.75 
Q 14.984375 37.109375 14.984375 27.296875 
Q 14.984375 17.484375 19.15625 11.84375 
Q 23.34375 6.203125 30.609375 6.203125 
Q 37.796875 6.203125 41.984375 11.859375 
Q 46.1875 17.53125 46.1875 27.296875 
Q 46.1875 37.015625 41.984375 42.703125 
Q 37.796875 48.390625 30.609375 48.390625 
z
M 30.609375 56 
Q 42.328125 56 49.015625 48.375 
Q 55.71875 40.765625 55.71875 27.296875 
Q 55.71875 13.875 49.015625 6.21875 
Q 42.328125 -1.421875 30.609375 -1.421875 
Q 18.84375 -1.421875 12.171875 6.21875 
Q 5.515625 13.875 5.515625 27.296875 
Q 5.515625 40.765625 12.171875 48.375 
Q 18.84375 56 30.609375 56 
z
" id="DejaVuSans-6f"/>
      <path d="M 8.5 21.578125 
L 8.5 54.6875 
L 17.484375 54.6875 
L 17.484375 21.921875 
Q 17.484375 14.15625 20.5 10.265625 
Q 23.53125 6.390625 29.59375 6.390625 
Q 36.859375 6.390625 41.078125 11.03125 
Q 45.3125 15.671875 45.3125 23.6875 
L 45.3125 54.6875 
L 54.296875 54.6875 
L 54.296875 0 
L 45.3125 0 
L 45.3125 8.40625 
Q 42.046875 3.421875 37.71875 1 
Q 33.40625 -1.421875 27.6875 -1.421875 
Q 18.265625 -1.421875 13.375 4.4375 
Q 8.5 10.296875 8.5 21.578125 
z
M 31.109375 56 
z
" id="DejaVuSans-75"/>
      <path d="M 54.890625 33.015625 
L 54.890625 0 
L 45.90625 0 
L 45.90625 32.71875 
Q 45.90625 40.484375 42.875 44.328125 
Q 39.84375 48.1875 33.796875 48.1875 
Q 26.515625 48.1875 22.3125 43.546875 
Q 18.109375 38.921875 18.109375 30.90625 
L 18.109375 0 
L 9.078125 0 
L 9.078125 54.6875 
L 18.109375 54.6875 
L 18.109375 46.1875 
Q 21.34375 51.125 25.703125 53.5625 
Q 30.078125 56 35.796875 56 
Q 45.21875 56 50.046875 50.171875 
Q 54.890625 44.34375 54.890625 33.015625 
z
" id="DejaVuSans-6e"/>
      <path d="M 18.3125 70.21875 
L 18.3125 54.6875 
L 36.8125 54.6875 
L 36.8125 47.703125 
L 18.3125 47.703125 
L 18.3125 18.015625 
Q 18.3125 11.328125 20.140625 9.421875 
Q 21.96875 7.515625 27.59375 7.515625 
L 36.8125 7.515625 
L 36.8125 0 
L 27.59375 0 
Q 17.1875 0 13.234375 3.875 
Q 9.28125 7.765625 9.28125 18.015625 
L 9.28125 47.703125 
L 2.6875 47.703125 
L 2.6875 54.6875 
L 9.28125 54.6875 
L 9.28125 70.21875 
z
" id="DejaVuSans-74"/>
      <path d="M 37.109375 75.984375 
L 37.109375 68.5 
L 28.515625 68.5 
Q 23.6875 68.5 21.796875 66.546875 
Q 19.921875 64.59375 19.921875 59.515625 
L 19.921875 54.6875 
L 34.71875 54.6875 
L 34.71875 47.703125 
L 19.921875 47.703125 
L 19.921875 0 
L 10.890625 0 
L 10.890625 47.703125 
L 2.296875 47.703125 
L 2.296875 54.6875 
L 10.890625 54.6875 
L 10.890625 58.5 
Q 10.890625 67.625 15.140625 71.796875 
Q 19.390625 75.984375 28.609375 75.984375 
z
" id="DejaVuSans-66"/>
      <path d="M 48.6875 27.296875 
Q 48.6875 37.203125 44.609375 42.84375 
Q 40.53125 48.484375 33.40625 48.484375 
Q 26.265625 48.484375 22.1875 42.84375 
Q 18.109375 37.203125 18.109375 27.296875 
Q 18.109375 17.390625 22.1875 11.75 
Q 26.265625 6.109375 33.40625 6.109375 
Q 40.53125 6.109375 44.609375 11.75 
Q 48.6875 17.390625 48.6875 27.296875 
z
M 18.109375 46.390625 
Q 20.953125 51.265625 25.265625 53.625 
Q 29.59375 56 35.59375 56 
Q 45.5625 56 51.78125 48.09375 
Q 58.015625 40.1875 58.015625 27.296875 
Q 58.015625 14.40625 51.78125 6.484375 
Q 45.5625 -1.421875 35.59375 -1.421875 
Q 29.59375 -1.421875 25.265625 0.953125 
Q 20.953125 3.328125 18.109375 8.203125 
L 18.109375 0 
L 9.078125 0 
L 9.078125 75.984375 
L 18.109375 75.984375 
z
" id="DejaVuSans-62"/>
      <path d="M 9.421875 54.6875 
L 18.40625 54.6875 
L 18.40625 -0.984375 
Q 18.40625 -11.421875 14.421875 -16.109375 
Q 10.453125 -20.796875 1.609375 -20.796875 
L -1.8125 -20.796875 
L -1.8125 -13.1875 
L 0.59375 -13.1875 
Q 5.71875 -13.1875 7.5625 -10.8125 
Q 9.421875 -8.453125 9.421875 -0.984375 
z
M 9.421875 75.984375 
L 18.40625 75.984375 
L 18.40625 64.59375 
L 9.421875 64.59375 
z
" id="DejaVuSans-6a"/>
      <path d="M 56.203125 29.59375 
L 56.203125 25.203125 
L 14.890625 25.203125 
Q 15.484375 15.921875 20.484375 11.0625 
Q 25.484375 6.203125 34.421875 6.203125 
Q 39.59375 6.203125 44.453125 7.46875 
Q 49.3125 8.734375 54.109375 11.28125 
L 54.109375 2.78125 
Q 49.265625 0.734375 44.1875 -0.34375 
Q 39.109375 -1.421875 33.890625 -1.421875 
Q 20.796875 -1.421875 13.15625 6.1875 
Q 5.515625 13.8125 5.515625 26.8125 
Q 5.515625 40.234375 12.765625 48.109375 
Q 20.015625 56 32.328125 56 
Q 43.359375 56 49.78125 48.890625 
Q 56.203125 41.796875 56.203125 29.59375 
z
M 47.21875 32.234375 
Q 47.125 39.59375 43.09375 43.984375 
Q 39.0625 48.390625 32.421875 48.390625 
Q 24.90625 48.390625 20.390625 44.140625 
Q 15.875 39.890625 15.1875 32.171875 
z
" id="DejaVuSans-65"/>
      <path d="M 48.78125 52.59375 
L 48.78125 44.1875 
Q 44.96875 46.296875 41.140625 47.34375 
Q 37.3125 48.390625 33.40625 48.390625 
Q 24.65625 48.390625 19.8125 42.84375 
Q 14.984375 37.3125 14.984375 27.296875 
Q 14.984375 17.28125 19.8125 11.734375 
Q 24.65625 6.203125 33.40625 6.203125 
Q 37.3125 6.203125 41.140625 7.25 
Q 44.96875 8.296875 48.78125 10.40625 
L 48.78125 2.09375 
Q 45.015625 0.34375 40.984375 -0.53125 
Q 36.96875 -1.421875 32.421875 -1.421875 
Q 20.0625 -1.421875 12.78125 6.34375 
Q 5.515625 14.109375 5.515625 27.296875 
Q 5.515625 40.671875 12.859375 48.328125 
Q 20.21875 56 33.015625 56 
Q 37.15625 56 41.109375 55.140625 
Q 45.0625 54.296875 48.78125 52.59375 
z
" id="DejaVuSans-63"/>
      <path d="M 44.28125 53.078125 
L 44.28125 44.578125 
Q 40.484375 46.53125 36.375 47.5 
Q 32.28125 48.484375 27.875 48.484375 
Q 21.1875 48.484375 17.84375 46.4375 
Q 14.5 44.390625 14.5 40.28125 
Q 14.5 37.15625 16.890625 35.375 
Q 19.28125 33.59375 26.515625 31.984375 
L 29.59375 31.296875 
Q 39.15625 29.25 43.1875 25.515625 
Q 47.21875 21.78125 47.21875 15.09375 
Q 47.21875 7.46875 41.1875 3.015625 
Q 35.15625 -1.421875 24.609375 -1.421875 
Q 20.21875 -1.421875 15.453125 -0.5625 
Q 10.6875 0.296875 5.421875 2 
L 5.421875 11.28125 
Q 10.40625 8.6875 15.234375 7.390625 
Q 20.0625 6.109375 24.8125 6.109375 
Q 31.15625 6.109375 34.5625 8.28125 
Q 37.984375 10.453125 37.984375 14.40625 
Q 37.984375 18.0625 35.515625 20.015625 
Q 33.0625 21.96875 24.703125 23.78125 
L 21.578125 24.515625 
Q 13.234375 26.265625 9.515625 29.90625 
Q 5.8125 33.546875 5.8125 39.890625 
Q 5.8125 47.609375 11.28125 51.796875 
Q 16.75 56 26.8125 56 
Q 31.78125 56 36.171875 55.265625 
Q 40.578125 54.546875 44.28125 53.078125 
z
" id="DejaVuSans-73"/>
      <path d="M 9.421875 54.6875 
L 18.40625 54.6875 
L 18.40625 0 
L 9.421875 0 
z
M 9.421875 75.984375 
L 18.40625 75.984375 
L 18.40625 64.59375 
L 9.421875 64.59375 
z
" id="DejaVuSans-69"/>
      <path d="M 34.28125 27.484375 
Q 23.390625 27.484375 19.1875 25 
Q 14.984375 22.515625 14.984375 16.5 
Q 14.984375 11.71875 18.140625 8.90625 
Q 21.296875 6.109375 26.703125 6.109375 
Q 34.1875 6.109375 38.703125 11.40625 
Q 43.21875 16.703125 43.21875 25.484375 
L 43.21875 27.484375 
z
M 52.203125 31.203125 
L 52.203125 0 
L 43.21875 0 
L 43.21875 8.296875 
Q 40.140625 3.328125 35.546875 0.953125 
Q 30.953125 -1.421875 24.3125 -1.421875 
Q 15.921875 -1.421875 10.953125 3.296875 
Q 6 8.015625 6 15.921875 
Q 6 25.140625 12.171875 29.828125 
Q 18.359375 34.515625 30.609375 34.515625 
L 43.21875 34.515625 
L 43.21875 35.40625 
Q 43.21875 41.609375 39.140625 45 
Q 35.0625 48.390625 27.6875 48.390625 
Q 23 48.390625 18.546875 47.265625 
Q 14.109375 46.140625 10.015625 43.890625 
L 10.015625 52.203125 
Q 14.9375 54.109375 19.578125 55.046875 
Q 24.21875 56 28.609375 56 
Q 40.484375 56 46.34375 49.84375 
Q 52.203125 43.703125 52.203125 31.203125 
z
" id="DejaVuSans-61"/>
      <path d="M 9.421875 75.984375 
L 18.40625 75.984375 
L 18.40625 0 
L 9.421875 0 
z
" id="DejaVuSans-6c"/>
     </defs>
     <g transform="translate(174.410781 316.706687)scale(0.1 -0.1)">
      <use xlink:href="#DejaVuSans-41"/>
      <use x="68.408203" xlink:href="#DejaVuSans-6d"/>
      <use x="165.820312" xlink:href="#DejaVuSans-6f"/>
      <use x="227.001953" xlink:href="#DejaVuSans-75"/>
      <use x="290.380859" xlink:href="#DejaVuSans-6e"/>
      <use x="353.759766" xlink:href="#DejaVuSans-74"/>
      <use x="392.96875" xlink:href="#DejaVuSans-20"/>
      <use x="424.755859" xlink:href="#DejaVuSans-6f"/>
      <use x="485.9375" xlink:href="#DejaVuSans-66"/>
      <use x="521.142578" xlink:href="#DejaVuSans-20"/>
      <use x="552.929688" xlink:href="#DejaVuSans-6f"/>
      <use x="614.111328" xlink:href="#DejaVuSans-62"/>
      <use x="677.587891" xlink:href="#DejaVuSans-6a"/>
      <use x="705.371094" xlink:href="#DejaVuSans-65"/>
      <use x="766.894531" xlink:href="#DejaVuSans-63"/>
      <use x="821.875" xlink:href="#DejaVuSans-74"/>
      <use x="861.083984" xlink:href="#DejaVuSans-73"/>
      <use x="913.183594" xlink:href="#DejaVuSans-20"/>
      <use x="944.970703" xlink:href="#DejaVuSans-69"/>
      <use x="972.753906" xlink:href="#DejaVuSans-6e"/>
      <use x="1036.132812" xlink:href="#DejaVuSans-20"/>
      <use x="1067.919922" xlink:href="#DejaVuSans-74"/>
      <use x="1107.128906" xlink:href="#DejaVuSans-61"/>
      <use x="1168.408203" xlink:href="#DejaVuSans-62"/>
      <use x="1231.884766" xlink:href="#DejaVuSans-6c"/>
      <use x="1259.667969" xlink:href="#DejaVuSans-65"/>
     </g>
    </g>
   </g>
   <g id="matplotlib.axis_2">
    <g id="ytick_1">
     <g id="line2d_10">
      <defs>
       <path d="M 0 0 
L -3.5 0 
" id="mcee5ed6cd8" style="stroke:#000000;stroke-width:0.8;"/>
      </defs>
      <g>
       <use style="stroke:#000000;stroke-width:0.8;" x="61.909375" xlink:href="#mcee5ed6cd8" y="288.430125"/>
      </g>
     </g>
     <g id="text_11">
      <!-- 0 -->
      <g transform="translate(48.546875 292.229344)scale(0.1 -0.1)">
       <use xlink:href="#DejaVuSans-30"/>
      </g>
     </g>
    </g>
    <g id="ytick_2">
     <g id="line2d_11">
      <g>
       <use style="stroke:#000000;stroke-width:0.8;" x="61.909375" xlink:href="#mcee5ed6cd8" y="248.943374"/>
      </g>
     </g>
     <g id="text_12">
      <!-- 500 µs -->
      <defs>
       <path d="M 8.5 -20.796875 
L 8.5 54.6875 
L 17.484375 54.6875 
L 17.484375 20.703125 
Q 17.484375 13.625 20.84375 10 
Q 24.21875 6.390625 30.8125 6.390625 
Q 38.03125 6.390625 41.671875 10.484375 
Q 45.3125 14.59375 45.3125 22.796875 
L 45.3125 54.6875 
L 54.296875 54.6875 
L 54.296875 12.59375 
Q 54.296875 9.671875 55.140625 8.28125 
Q 56 6.890625 57.8125 6.890625 
Q 58.25 6.890625 59.03125 7.15625 
Q 59.8125 7.421875 61.1875 8.015625 
L 61.1875 0.78125 
Q 59.1875 -0.34375 57.390625 -0.875 
Q 55.609375 -1.421875 53.90625 -1.421875 
Q 50.53125 -1.421875 48.53125 0.484375 
Q 46.53125 2.390625 45.796875 6.296875 
Q 43.359375 2.4375 39.8125 0.5 
Q 36.28125 -1.421875 31.5 -1.421875 
Q 26.515625 -1.421875 23.015625 0.484375 
Q 19.53125 2.390625 17.484375 6.203125 
L 17.484375 -20.796875 
z
" id="DejaVuSans-b5"/>
      </defs>
      <g transform="translate(21.071875 252.742592)scale(0.1 -0.1)">
       <use xlink:href="#DejaVuSans-35"/>
       <use x="63.623047" xlink:href="#DejaVuSans-30"/>
       <use x="127.246094" xlink:href="#DejaVuSans-30"/>
       <use x="190.869141" xlink:href="#DejaVuSans-20"/>
       <use x="222.65625" xlink:href="#DejaVuSans-b5"/>
       <use x="286.279297" xlink:href="#DejaVuSans-73"/>
      </g>
     </g>
    </g>
    <g id="ytick_3">
     <g id="line2d_12">
      <g>
       <use style="stroke:#000000;stroke-width:0.8;" x="61.909375" xlink:href="#mcee5ed6cd8" y="209.456622"/>
      </g>
     </g>
     <g id="text_13">
      <!-- 1 ms -->
      <g transform="translate(30.41875 213.255841)scale(0.1 -0.1)">
       <use xlink:href="#DejaVuSans-31"/>
       <use x="63.623047" xlink:href="#DejaVuSans-20"/>
       <use x="95.410156" xlink:href="#DejaVuSans-6d"/>
       <use x="192.822266" xlink:href="#DejaVuSans-73"/>
      </g>
     </g>
    </g>
    <g id="ytick_4">
     <g id="line2d_13">
      <g>
       <use style="stroke:#000000;stroke-width:0.8;" x="61.909375" xlink:href="#mcee5ed6cd8" y="169.969871"/>
      </g>
     </g>
     <g id="text_14">
      <!-- 1.5 ms -->
      <g transform="translate(20.878125 173.76909)scale(0.1 -0.1)">
       <use xlink:href="#DejaVuSans-31"/>
       <use x="63.623047" xlink:href="#DejaVuSans-2e"/>
       <use x="95.410156" xlink:href="#DejaVuSans-35"/>
       <use x="159.033203" xlink:href="#DejaVuSans-20"/>
       <use x="190.820312" xlink:href="#DejaVuSans-6d"/>
       <use x="288.232422" xlink:href="#DejaVuSans-73"/>
      </g>
     </g>
    </g>
    <g id="ytick_5">
     <g id="line2d_14">
      <g>
       <use style="stroke:#000000;stroke-width:0.8;" x="61.909375" xlink:href="#mcee5ed6cd8" y="130.48312"/>
      </g>
     </g>
     <g id="text_15">
      <!-- 2 ms -->
      <g transform="translate(30.41875 134.282338)scale(0.1 -0.1)">
       <use xlink:href="#DejaVuSans-32"/>
       <use x="63.623047" xlink:href="#DejaVuSans-20"/>
       <use x="95.410156" xlink:href="#DejaVuSans-6d"/>
       <use x="192.822266" xlink:href="#DejaVuSans-73"/>
      </g>
     </g>
    </g>
    <g id="ytick_6">
     <g id="line2d_15">
      <g>
       <use style="stroke:#000000;stroke-width:0.8;" x="61.909375" xlink:href="#mcee5ed6cd8" y="90.996368"/>
      </g>
     </g>
     <g id="text_16">
      <!-- 2.5 ms -->
      <g transform="translate(20.878125 94.795587)scale(0.1 -0.1)">
       <use xlink:href="#DejaVuSans-32"/>
       <use x="63.623047" xlink:href="#DejaVuSans-2e"/>
       <use x="95.410156" xlink:href="#DejaVuSans-35"/>
       <use x="159.033203" xlink:href="#DejaVuSans-20"/>
       <use x="190.820312" xlink:href="#DejaVuSans-6d"/>
       <use x="288.232422" xlink:href="#DejaVuSans-73"/>
      </g>
     </g>
    </g>
    <g id="ytick_7">
     <g id="line2d_16">
      <g>
       <use style="stroke:#000000;stroke-width:0.8;" x="61.909375" xlink:href="#mcee5ed6cd8" y="51.509617"/>
      </g>
     </g>
     <g id="text_17">
      <!-- 3 ms -->
      <g transform="translate(30.41875 55.308836)scale(0.1 -0.1)">
       <use xlink:href="#DejaVuSans-33"/>
       <use x="63.623047" xlink:href="#DejaVuSans-20"/>
       <use x="95.410156" xlink:href="#DejaVuSans-6d"/>
       <use x="192.822266" xlink:href="#DejaVuSans-73"/>
      </g>
     </g>
    </g>
    <g id="text_18">
     <!-- Read latency (s) -->
     <defs>
      <path d="M 44.390625 34.1875 
Q 47.5625 33.109375 50.5625 29.59375 
Q 53.5625 26.078125 56.59375 19.921875 
L 66.609375 0 
L 56 0 
L 46.6875 18.703125 
Q 43.0625 26.03125 39.671875 28.421875 
Q 36.28125 30.8125 30.421875 30.8125 
L 19.671875 30.8125 
L 19.671875 0 
L 9.8125 0 
L 9.8125 72.90625 
L 32.078125 72.90625 
Q 44.578125 72.90625 50.734375 67.671875 
Q 56.890625 62.453125 56.890625 51.90625 
Q 56.890625 45.015625 53.6875 40.46875 
Q 50.484375 35.9375 44.390625 34.1875 
z
M 19.671875 64.796875 
L 19.671875 38.921875 
L 32.078125 38.921875 
Q 39.203125 38.921875 42.84375 42.21875 
Q 46.484375 45.515625 46.484375 51.90625 
Q 46.484375 58.296875 42.84375 61.546875 
Q 39.203125 64.796875 32.078125 64.796875 
z
" id="DejaVuSans-52"/>
      <path d="M 45.40625 46.390625 
L 45.40625 75.984375 
L 54.390625 75.984375 
L 54.390625 0 
L 45.40625 0 
L 45.40625 8.203125 
Q 42.578125 3.328125 38.25 0.953125 
Q 33.9375 -1.421875 27.875 -1.421875 
Q 17.96875 -1.421875 11.734375 6.484375 
Q 5.515625 14.40625 5.515625 27.296875 
Q 5.515625 40.1875 11.734375 48.09375 
Q 17.96875 56 27.875 56 
Q 33.9375 56 38.25 53.625 
Q 42.578125 51.265625 45.40625 46.390625 
z
M 14.796875 27.296875 
Q 14.796875 17.390625 18.875 11.75 
Q 22.953125 6.109375 30.078125 6.109375 
Q 37.203125 6.109375 41.296875 11.75 
Q 45.40625 17.390625 45.40625 27.296875 
Q 45.40625 37.203125 41.296875 42.84375 
Q 37.203125 48.484375 30.078125 48.484375 
Q 22.953125 48.484375 18.875 42.84375 
Q 14.796875 37.203125 14.796875 27.296875 
z
" id="DejaVuSans-64"/>
      <path d="M 32.171875 -5.078125 
Q 28.375 -14.84375 24.75 -17.8125 
Q 21.140625 -20.796875 15.09375 -20.796875 
L 7.90625 -20.796875 
L 7.90625 -13.28125 
L 13.1875 -13.28125 
Q 16.890625 -13.28125 18.9375 -11.515625 
Q 21 -9.765625 23.484375 -3.21875 
L 25.09375 0.875 
L 2.984375 54.6875 
L 12.5 54.6875 
L 29.59375 11.921875 
L 46.6875 54.6875 
L 56.203125 54.6875 
z
" id="DejaVuSans-79"/>
      <path d="M 31 75.875 
Q 24.46875 64.65625 21.28125 53.65625 
Q 18.109375 42.671875 18.109375 31.390625 
Q 18.109375 20.125 21.3125 9.0625 
Q 24.515625 -2 31 -13.1875 
L 23.1875 -13.1875 
Q 15.875 -1.703125 12.234375 9.375 
Q 8.59375 20.453125 8.59375 31.390625 
Q 8.59375 42.28125 12.203125 53.3125 
Q 15.828125 64.359375 23.1875 75.875 
z
" id="DejaVuSans-28"/>
      <path d="M 8.015625 75.875 
L 15.828125 75.875 
Q 23.140625 64.359375 26.78125 53.3125 
Q 30.421875 42.28125 30.421875 31.390625 
Q 30.421875 20.453125 26.78125 9.375 
Q 23.140625 -1.703125 15.828125 -13.1875 
L 8.015625 -13.1875 
Q 14.5 -2 17.703125 9.0625 
Q 20.90625 20.125 20.90625 31.390625 
Q 20.90625 42.671875 17.703125 53.65625 
Q 14.5 64.65625 8.015625 75.875 
z
" id="DejaVuSans-29"/>
     </defs>
     <g transform="translate(14.798438 196.211625)rotate(-90)scale(0.1 -0.1)">
      <use xlink:href="#DejaVuSans-52"/>
      <use x="69.419922" xlink:href="#DejaVuSans-65"/>
      <use x="130.943359" xlink:href="#DejaVuSans-61"/>
      <use x="192.222656" xlink:href="#DejaVuSans-64"/>
      <use x="255.699219" xlink:href="#DejaVuSans-20"/>
      <use x="287.486328" xlink:href="#DejaVuSans-6c"/>
      <use x="315.269531" xlink:href="#DejaVuSans-61"/>
      <use x="376.548828" xlink:href="#DejaVuSans-74"/>
      <use x="415.757812" xlink:href="#DejaVuSans-65"/>
      <use x="477.28125" xlink:href="#DejaVuSans-6e"/>
      <use x="540.660156" xlink:href="#DejaVuSans-63"/>
      <use x="595.640625" xlink:href="#DejaVuSans-79"/>
      <use x="654.820312" xlink:href="#DejaVuSans-20"/>
      <use x="686.607422" xlink:href="#DejaVuSans-28"/>
      <use x="725.621094" xlink:href="#DejaVuSans-73"/>
      <use x="777.720703" xlink:href="#DejaVuSans-29"/>
     </g>
    </g>
   </g>
   <g id="line2d_17">
    <path clip-path="url(#p1b64648953)" d="M 146.829075 229.442161 
L 147.264561 229.418311 
L 148.135532 228.818012 
L 148.571018 229.178848 
L 149.006503 228.559237 
L 149.441989 228.198691 
L 149.877475 228.477356 
L 150.31296 228.963331 
L 151.183931 228.932433 
L 151.619417 229.481556 
L 152.054903 229.095326 
L 152.490388 229.098126 
L 152.925874 228.758822 
L 153.36136 228.637449 
L 153.796845 229.082194 
L 154.232331 228.943344 
L 154.667817 229.370418 
L 155.974273 229.741393 
L 156.845245 230.643532 
L 157.716216 230.385047 
L 158.151702 230.843116 
L 158.587187 230.806714 
L 159.022673 230.479866 
L 159.458159 230.392675 
L 159.893644 230.722999 
L 160.32913 230.578162 
L 161.200101 229.891251 
L 161.635587 229.883429 
L 162.071072 229.563437 
L 162.942044 229.594143 
L 164.248501 230.555471 
L 165.554958 230.793486 
L 168.167871 230.515206 
L 168.603357 230.877105 
L 169.474328 230.714598 
L 170.3453 231.490343 
L 171.216271 231.593273 
L 171.651757 231.20627 
L 172.522728 231.881305 
L 172.958213 231.860931 
L 173.393699 232.218677 
L 173.829185 232.05646 
L 174.26467 232.411117 
L 175.135642 232.095952 
L 176.006613 232.719812 
L 176.442099 232.723384 
L 176.877584 232.428883 
L 177.31307 232.354727 
L 177.748556 232.688237 
L 178.184041 232.688624 
L 179.055012 232.005671 
L 179.490498 231.978345 
L 179.925984 231.522883 
L 181.232441 231.562568 
L 181.667926 231.818349 
L 182.974383 231.854751 
L 183.409869 232.06235 
L 185.151811 231.941943 
L 185.587297 231.715032 
L 186.022783 231.713198 
L 186.458268 231.449885 
L 186.893754 231.5196 
L 187.764725 231.946964 
L 188.635697 231.743324 
L 189.071182 231.377177 
L 189.942153 231.891733 
L 190.377639 231.534276 
L 190.813125 231.898975 
L 191.24861 231.874739 
L 191.684096 232.025079 
L 192.119582 232.018513 
L 192.555067 231.893181 
L 192.990553 231.565271 
L 193.426039 231.893181 
L 193.861524 231.547505 
L 194.29701 231.930839 
L 195.167981 232.007988 
L 195.603467 232.423959 
L 196.038952 232.504585 
L 196.474438 232.37539 
L 196.909924 231.800776 
L 198.216381 231.750952 
L 198.651866 231.551753 
L 199.087352 230.486625 
L 199.522838 230.199463 
L 199.958323 230.180731 
L 200.393809 229.924177 
L 200.829295 229.210229 
L 201.700266 228.739124 
L 202.135751 228.790686 
L 202.571237 227.624173 
L 203.006723 227.470549 
L 203.442208 226.658403 
L 203.877694 226.540795 
L 204.31318 226.661106 
L 205.184151 224.814151 
L 205.619637 224.567639 
L 206.055122 223.954015 
L 206.490608 223.980375 
L 206.926093 223.849539 
L 207.361579 223.85794 
L 208.23255 223.40325 
L 208.668036 223.063366 
L 209.103522 223.346377 
L 210.409979 222.633781 
L 210.845464 222.116618 
L 211.716436 221.935862 
L 212.151921 222.350191 
L 212.587407 222.19734 
L 213.893864 218.782867 
L 214.329349 218.288685 
L 214.764835 218.457758 
L 215.200321 218.397119 
L 215.635806 217.976321 
L 216.071292 216.830664 
L 216.506778 214.637356 
L 216.942263 214.20555 
L 217.377749 214.06332 
L 218.24872 211.811692 
L 218.684206 211.981247 
L 219.555177 211.200095 
L 219.990663 211.287383 
L 220.426148 211.090888 
L 220.861634 209.893187 
L 221.29712 209.532061 
L 221.732605 209.791318 
L 222.168091 209.390025 
L 222.603577 209.478471 
L 223.474548 207.221822 
L 223.910033 207.315869 
L 224.345519 206.875952 
L 224.781005 205.957881 
L 225.21649 205.807734 
L 225.651976 205.914237 
L 226.087462 204.699928 
L 226.522947 204.828736 
L 226.958433 203.22414 
L 227.393919 203.14419 
L 227.829404 202.803535 
L 228.700376 201.223851 
L 229.135861 200.155923 
L 229.571347 199.651022 
L 230.006832 198.908011 
L 230.442318 197.734545 
L 230.877804 197.591157 
L 232.184261 194.21859 
L 233.055232 194.444342 
L 233.490718 193.287677 
L 233.926203 193.631616 
L 234.361689 192.820628 
L 235.23266 190.720208 
L 235.668146 190.503629 
L 236.103631 190.043918 
L 236.539117 188.99675 
L 237.845574 186.664109 
L 238.28106 185.680379 
L 238.716545 185.469015 
L 239.152031 184.777372 
L 240.023002 182.846121 
L 240.458488 182.507107 
L 240.893974 182.337455 
L 241.329459 182.02596 
L 241.764945 181.468243 
L 242.635916 181.660489 
L 243.071402 181.233029 
L 243.506887 180.992503 
L 243.942373 181.149796 
L 244.377859 181.019443 
L 244.813344 179.869827 
L 245.684316 179.774525 
L 246.119801 179.883442 
L 246.555287 178.765979 
L 246.990772 178.90705 
L 248.297229 175.595411 
L 248.732715 175.359907 
L 249.168201 174.278171 
L 249.603686 174.148011 
L 250.039172 173.082883 
L 250.474658 172.974932 
L 250.910143 172.016404 
L 251.781115 171.906231 
L 252.2166 170.741842 
L 253.523057 170.047592 
L 253.958543 169.642243 
L 254.394028 168.687481 
L 254.829514 166.619408 
L 255.265 166.417699 
L 255.700485 165.245392 
L 256.135971 165.013364 
L 256.571457 165.133675 
L 257.006942 163.984831 
L 257.442428 163.778777 
L 258.313399 161.63452 
L 258.748885 161.385981 
L 259.18437 160.2382 
L 259.619856 159.782254 
L 260.055342 159.721133 
L 262.668256 153.362326 
L 263.539227 153.578712 
L 263.974712 153.703754 
L 264.410198 152.386707 
L 264.845684 151.631143 
L 265.281169 149.780518 
L 266.587626 148.975034 
L 267.023112 149.010471 
L 267.458598 148.249693 
L 267.894083 147.057205 
L 268.329569 147.046874 
L 269.20054 146.73953 
L 269.636026 145.411862 
L 270.071511 145.126824 
L 270.506997 143.419877 
L 271.813454 142.479984 
L 273.555397 141.973732 
L 273.990882 142.086512 
L 275.297339 140.240232 
L 275.732825 138.992996 
L 276.16831 138.713752 
L 276.603796 138.055807 
L 277.039282 138.177084 
L 277.474767 137.115239 
L 277.910253 137.536134 
L 278.345739 137.308258 
L 278.781224 136.439818 
L 279.21671 136.065464 
L 279.652196 136.168587 
L 280.087681 135.972865 
L 280.523167 135.966492 
L 280.958652 135.74074 
L 281.394138 135.757155 
L 281.829624 136.047021 
L 282.265109 134.294016 
L 282.700595 134.081589 
L 283.136081 133.283733 
L 283.571566 132.763963 
L 284.442538 132.725243 
L 284.878023 132.059671 
L 285.313509 131.701635 
L 285.748995 132.150242 
L 286.619966 130.255201 
L 288.361908 130.468014 
L 288.797394 129.864239 
L 289.23288 129.028339 
L 289.668365 129.877564 
L 290.539337 129.642832 
L 290.974822 129.09815 
L 291.410308 129.012214 
L 291.845794 128.085356 
L 292.281279 128.012262 
L 293.587736 125.03423 
L 294.458707 123.569643 
L 294.894193 123.244919 
L 295.329679 123.110801 
L 295.765164 123.409454 
L 296.20065 123.279004 
L 297.071621 121.506012 
L 297.507107 121.668036 
L 298.813564 124.429296 
L 299.249049 124.680539 
L 300.120021 124.417612 
L 300.555506 123.427413 
L 300.990992 124.107469 
L 301.426478 125.548882 
L 301.861963 126.005021 
L 302.297449 125.80756 
L 303.16842 125.845701 
L 303.603906 125.889924 
L 304.039391 126.070101 
L 304.474877 125.562014 
L 304.910363 124.755564 
L 305.345848 124.57674 
L 305.781334 125.465746 
L 306.21682 125.613673 
L 306.652305 125.545889 
L 307.523277 123.735915 
L 308.394248 125.474147 
L 308.829734 125.485058 
L 309.265219 125.098248 
L 309.700705 126.131994 
L 310.13619 125.262203 
L 310.571676 125.270796 
L 311.007162 125.469126 
L 311.442647 125.240767 
L 311.878133 126.787621 
L 312.313619 126.86535 
L 312.749104 126.201516 
L 313.18459 126.713272 
L 313.620076 127.399024 
L 314.055561 126.767054 
L 314.491047 119.859896 
L 315.362018 121.692175 
L 315.797504 120.019313 
L 316.668475 121.659828 
L 317.103961 121.666684 
L 317.539446 121.525034 
L 317.974932 121.140058 
L 318.410418 122.043162 
L 318.845903 122.08024 
L 319.716875 123.528606 
L 320.15236 124.387486 
L 320.587846 123.467002 
L 321.023331 123.620432 
L 322.765274 123.697099 
L 323.20076 124.121663 
L 323.636245 124.068943 
L 324.942702 126.0561 
L 326.249159 126.139622 
L 326.684645 126.320958 
L 327.555616 124.660262 
L 327.991102 123.450587 
L 328.426587 122.923575 
L 328.862073 122.881186 
L 329.297559 121.849661 
L 330.16853 121.864048 
L 330.604016 118.842757 
L 331.039501 117.923914 
L 331.474987 117.717957 
L 331.910472 117.707432 
L 332.345958 118.690679 
L 332.781444 118.741951 
L 333.216929 119.378846 
L 333.652415 119.011637 
L 334.523386 118.983249 
L 334.958872 119.529862 
L 335.394358 118.629462 
L 335.829843 119.515958 
L 336.700815 119.464299 
L 337.1363 120.46821 
L 338.007271 120.521896 
L 338.442757 119.487087 
L 338.878243 118.946943 
L 339.313728 119.74702 
L 339.749214 121.512771 
L 341.491157 121.389949 
L 341.926642 121.993532 
L 342.362128 121.07015 
L 343.233099 122.75991 
L 343.668585 122.723894 
L 344.10407 123.419013 
L 344.539556 123.419013 
L 344.975042 123.646696 
L 345.410527 124.508763 
L 346.281499 124.566601 
L 347.587956 127.310867 
L 348.023441 126.922223 
L 348.458927 125.372375 
L 348.894412 125.388597 
L 349.765384 126.70912 
L 350.200869 128.31304 
L 350.636355 127.494906 
L 351.071841 127.490465 
L 351.942812 127.701153 
L 352.378298 127.601892 
L 352.813783 128.51388 
L 353.249269 127.634142 
L 354.12024 127.561241 
L 354.555726 128.597016 
L 354.991211 127.698064 
L 355.426697 129.358083 
L 355.862183 129.324578 
L 356.297668 129.571476 
L 356.733154 128.718002 
L 357.604125 128.761357 
L 358.475097 128.516969 
L 359.346068 128.411239 
L 359.781554 128.695118 
L 360.217039 129.588277 
L 360.652525 129.654419 
L 361.08801 128.818036 
L 361.523496 128.46927 
L 361.958982 128.512141 
L 362.394467 127.967653 
L 363.265439 128.056775 
L 363.700924 129.045719 
L 364.13641 129.116496 
L 364.571896 127.159079 
L 365.442867 125.190557 
L 365.878353 125.163231 
L 366.313838 124.811278 
L 366.749324 122.856178 
L 367.184809 123.705499 
L 367.620295 122.817458 
L 368.055781 122.895477 
L 368.491266 123.362044 
L 369.362238 123.425482 
L 369.797723 124.18655 
L 370.233209 124.522957 
L 371.10418 124.754792 
L 371.539666 125.69285 
L 371.975151 125.673345 
L 372.410637 126.101965 
L 372.846123 124.247381 
L 374.15258 126.862453 
L 375.459037 127.101627 
L 375.894522 127.331917 
L 376.330008 127.296287 
L 376.765494 127.760343 
L 377.636465 127.950948 
L 378.07195 129.00391 
L 378.507436 128.997634 
L 378.942922 129.752522 
L 379.378407 130.074542 
L 380.684864 130.066238 
L 381.12035 129.227055 
L 381.555836 130.021145 
L 382.426807 130.220344 
L 382.862293 130.180755 
L 383.297778 129.199149 
L 383.733264 129.221454 
L 384.168749 128.657944 
L 384.604235 128.716168 
L 385.039721 128.896151 
L 385.475206 129.631052 
L 385.910692 129.881523 
L 386.781663 129.129435 
L 387.217149 129.050258 
L 387.652635 129.308163 
L 388.08812 129.306715 
L 388.523606 128.882247 
L 388.959091 128.028387 
L 389.394577 128.723313 
L 389.830063 129.642929 
L 390.265548 129.755418 
L 391.572005 126.957176 
L 392.007491 126.95428 
L 392.442977 127.983874 
L 393.313948 126.203833 
L 393.749434 126.15652 
L 394.184919 125.865109 
L 394.620405 125.836528 
L 395.05589 126.636412 
L 395.491376 126.629942 
L 395.926862 125.239512 
L 396.362347 125.483513 
L 396.797833 124.660841 
L 397.233319 124.80983 
L 397.668804 125.747984 
L 398.10429 125.703664 
L 398.539776 124.999566 
L 398.975261 126.211461 
L 399.410747 133.438901 
L 399.846233 132.474869 
L 400.281718 131.861631 
L 400.717204 133.502436 
L 401.152689 132.808862 
L 401.588175 132.788778 
L 402.023661 133.67933 
L 402.023661 133.67933 
" style="fill:none;opacity:0.8;stroke:#1f77b4;stroke-linecap:square;stroke-width:1.5;"/>
   </g>
   <g id="line2d_18">
    <path clip-path="url(#p1b64648953)" d="M 146.829075 162.321528 
L 147.264561 162.384001 
L 147.700046 162.109874 
L 148.135532 162.667398 
L 148.571018 162.575572 
L 149.006503 163.042138 
L 149.441989 162.687868 
L 149.877475 163.104708 
L 150.31296 162.820152 
L 150.748446 162.921731 
L 151.183931 162.463372 
L 151.619417 161.721229 
L 152.054903 160.170899 
L 152.490388 159.182341 
L 152.925874 159.049574 
L 153.36136 159.36638 
L 153.796845 159.186397 
L 154.232331 158.85559 
L 154.667817 156.892186 
L 155.103302 156.538688 
L 155.538788 156.5131 
L 155.974273 156.366429 
L 156.409759 156.02925 
L 156.845245 156.536081 
L 157.28073 156.686325 
L 157.716216 155.932306 
L 158.587187 155.594933 
L 159.022673 156.218213 
L 159.458159 155.178866 
L 159.893644 154.720796 
L 160.32913 154.673097 
L 160.764616 155.643695 
L 161.200101 154.579243 
L 161.635587 154.642778 
L 162.071072 154.907635 
L 162.506558 153.944376 
L 162.942044 154.180942 
L 163.377529 154.069997 
L 163.813015 154.581174 
L 164.683986 153.093896 
L 165.119472 153.026112 
L 165.554958 151.999994 
L 165.990443 152.470133 
L 166.425929 152.329255 
L 166.861415 152.75942 
L 167.2969 152.376665 
L 167.732386 152.872682 
L 168.167871 152.547862 
L 168.603357 151.826769 
L 169.038843 151.893201 
L 169.474328 152.340553 
L 170.3453 151.328531 
L 170.780785 151.365223 
L 171.216271 150.802389 
L 171.651757 150.554525 
L 172.087242 151.559691 
L 172.522728 151.152024 
L 172.958213 151.032872 
L 173.393699 151.536613 
L 173.829185 150.624433 
L 174.26467 150.829908 
L 174.700156 151.17877 
L 175.135642 150.087669 
L 175.571127 150.363341 
L 176.006613 150.885814 
L 176.877584 150.42002 
L 177.31307 149.189875 
L 177.748556 149.371017 
L 178.184041 149.882483 
L 178.619527 149.748944 
L 179.055012 148.657939 
L 179.490498 149.343595 
L 179.925984 148.173123 
L 180.361469 148.012837 
L 180.796955 148.086317 
L 181.667926 147.721329 
L 182.538898 146.744745 
L 182.974383 146.712881 
L 183.409869 146.229513 
L 183.845355 146.73982 
L 184.28084 146.643262 
L 184.716326 147.012885 
L 185.587297 144.990967 
L 186.022783 145.523676 
L 186.458268 145.453768 
L 186.893754 145.259687 
L 187.32924 144.925018 
L 187.764725 144.014286 
L 188.200211 144.298745 
L 188.635697 144.010134 
L 189.071182 143.530725 
L 189.506668 144.086801 
L 189.942153 143.917728 
L 190.377639 144.363342 
L 190.813125 143.212471 
L 191.24861 143.089457 
L 191.684096 142.760291 
L 192.119582 142.289476 
L 192.555067 142.124845 
L 192.990553 142.453817 
L 193.426039 142.640753 
L 193.861524 142.52836 
L 194.29701 141.324478 
L 194.732496 141.575432 
L 195.167981 141.395738 
L 195.603467 141.360301 
L 196.038952 141.91937 
L 196.474438 140.834834 
L 196.909924 140.499586 
L 197.345409 140.609179 
L 197.780895 140.980154 
L 198.216381 141.93115 
L 198.651866 140.869595 
L 199.087352 140.882727 
L 199.522838 139.545596 
L 199.958323 139.830538 
L 200.829295 138.465791 
L 201.26478 138.487324 
L 201.700266 137.64872 
L 202.135751 137.428376 
L 202.571237 136.137303 
L 203.442208 135.193644 
L 203.877694 134.894219 
L 204.31318 134.740016 
L 204.748665 133.762176 
L 205.184151 132.312459 
L 205.619637 132.151304 
L 206.490608 129.468256 
L 206.926093 129.468352 
L 207.361579 129.261815 
L 207.797065 128.865543 
L 208.668036 126.130932 
L 209.103522 125.481195 
L 209.539007 125.276493 
L 209.974493 122.915561 
L 210.409979 122.023754 
L 211.28095 119.161301 
L 212.151921 118.768215 
L 212.587407 117.084442 
L 213.458378 114.931688 
L 213.893864 114.536477 
L 214.329349 113.883265 
L 214.764835 112.418195 
L 215.200321 111.893017 
L 216.942263 114.508476 
L 217.377749 114.761553 
L 218.24872 113.406559 
L 218.684206 114.463673 
L 219.990663 113.931157 
L 220.426148 113.475791 
L 220.861634 113.844448 
L 221.29712 113.630959 
L 222.168091 112.902335 
L 222.603577 113.219141 
L 223.474548 114.586687 
L 223.910033 115.057696 
L 224.345519 114.604261 
L 225.21649 115.634338 
L 225.651976 115.743062 
L 226.087462 114.290738 
L 226.522947 113.603054 
L 226.958433 113.516925 
L 227.393919 114.687976 
L 227.829404 113.596006 
L 228.26489 112.843531 
L 228.700376 112.622318 
L 229.135861 113.010673 
L 229.571347 111.82002 
L 230.006832 112.25955 
L 230.442318 112.164538 
L 231.313289 110.774783 
L 232.184261 110.470916 
L 232.619746 109.471833 
L 233.055232 109.251682 
L 233.490718 108.682184 
L 233.926203 107.36031 
L 234.361689 107.446343 
L 234.797175 106.583406 
L 235.23266 106.635161 
L 235.668146 106.031096 
L 236.103631 104.450061 
L 236.539117 104.557143 
L 236.974603 105.793178 
L 237.410088 106.229619 
L 237.845574 106.0366 
L 238.716545 103.413804 
L 239.152031 103.329412 
L 239.587517 104.771694 
L 240.023002 104.079762 
L 240.893974 103.386285 
L 241.329459 103.448468 
L 241.764945 102.06441 
L 242.20043 100.228076 
L 242.635916 100.760591 
L 243.071402 99.38503 
L 243.506887 99.114958 
L 243.942373 97.493272 
L 245.24883 95.661283 
L 246.119801 95.22629 
L 246.555287 94.332263 
L 246.990772 93.96235 
L 247.426258 94.4911 
L 247.861744 94.466671 
L 248.297229 93.024292 
L 248.732715 92.777491 
L 249.603686 91.034431 
L 250.039172 89.099125 
L 250.474658 89.798396 
L 252.2166 89.027287 
L 252.652086 87.356259 
L 253.087571 86.129687 
L 253.523057 86.386241 
L 253.958543 86.041723 
L 254.394028 84.969643 
L 254.829514 85.627394 
L 255.265 85.755719 
L 255.700485 85.02806 
L 256.135971 85.341197 
L 256.571457 85.334824 
L 257.006942 84.719268 
L 257.442428 84.810805 
L 257.877914 84.320002 
L 258.748885 81.524078 
L 259.619856 81.702227 
L 260.055342 82.51476 
L 260.490827 82.508773 
L 260.926313 80.611318 
L 261.361799 79.408788 
L 261.797284 79.212969 
L 262.23277 79.889549 
L 262.668256 80.089617 
L 263.103741 79.525816 
L 263.539227 79.390056 
L 263.974712 80.118391 
L 264.410198 79.669784 
L 264.845684 80.192547 
L 265.281169 79.037428 
L 266.152141 78.6455 
L 266.587626 78.577909 
L 267.023112 79.017247 
L 267.458598 79.817614 
L 267.894083 79.595724 
L 268.329569 79.789129 
L 268.765055 79.483041 
L 269.20054 78.584379 
L 269.636026 77.992094 
L 270.071511 77.792123 
L 270.506997 78.277229 
L 270.942483 77.655301 
L 271.813454 77.306921 
L 272.684425 77.501967 
L 273.119911 77.735637 
L 273.990882 79.111391 
L 274.426368 78.278967 
L 274.861854 76.744182 
L 275.297339 75.9695 
L 275.732825 76.791785 
L 276.16831 76.640672 
L 276.603796 75.622568 
L 277.039282 76.457309 
L 277.474767 76.069437 
L 277.910253 74.961148 
L 278.345739 75.194335 
L 279.21671 75.948064 
L 279.652196 76.144269 
L 280.087681 77.575351 
L 280.523167 77.414196 
L 280.958652 75.950285 
L 281.394138 75.577476 
L 281.829624 76.358434 
L 282.265109 74.797193 
L 282.700595 74.12013 
L 283.136081 73.98495 
L 283.571566 74.449778 
L 284.007052 74.520072 
L 284.442538 75.660129 
L 284.878023 74.452096 
L 285.313509 74.860245 
L 285.748995 75.059444 
L 286.18448 75.028256 
L 286.619966 75.347958 
L 287.055451 75.354138 
L 287.490937 76.302334 
L 287.926423 76.642411 
L 288.361908 76.686634 
L 288.797394 75.668336 
L 289.23288 75.550053 
L 289.668365 74.0761 
L 290.103851 75.241165 
L 290.539337 74.707491 
L 291.410308 75.867052 
L 292.281279 75.538177 
L 292.716765 74.6371 
L 293.587736 76.612091 
L 294.023222 76.974666 
L 294.458707 76.589207 
L 294.894193 78.591041 
L 295.329679 79.160249 
L 295.765164 78.945215 
L 296.20065 79.536438 
L 296.636136 79.039069 
L 297.071621 78.8727 
L 297.507107 79.064657 
L 297.942592 78.88728 
L 298.378078 79.199548 
L 298.813564 79.26009 
L 299.249049 78.802503 
L 300.120021 80.804337 
L 300.555506 80.638258 
L 300.990992 79.993638 
L 301.426478 78.408064 
L 301.861963 78.086624 
L 302.297449 78.343081 
L 303.16842 80.510222 
L 304.039391 77.669398 
L 304.910363 75.242034 
L 305.345848 74.263808 
L 305.781334 74.378326 
L 307.087791 72.498927 
L 307.523277 70.230014 
L 307.958762 69.975391 
L 308.394248 69.375768 
L 308.829734 68.575498 
L 309.265219 69.559904 
L 309.700705 69.234987 
L 310.13619 69.30644 
L 310.571676 70.136643 
L 311.007162 71.281431 
L 311.442647 71.643329 
L 312.313619 71.356553 
L 312.749104 72.381609 
L 313.18459 72.514859 
L 313.620076 72.45731 
L 314.055561 71.837217 
L 314.491047 71.771268 
L 314.926532 71.910794 
L 315.362018 70.333717 
L 316.232989 72.495644 
L 316.668475 72.419556 
L 317.103961 71.997599 
L 317.539446 72.258402 
L 317.974932 70.884482 
L 318.410418 70.937203 
L 319.281389 70.457407 
L 319.716875 70.846631 
L 320.15236 70.615086 
L 320.587846 70.835431 
L 321.023331 72.360753 
L 321.458817 70.094061 
L 321.894303 65.65569 
L 322.329788 65.818486 
L 322.765274 65.052784 
L 323.20076 66.103621 
L 323.636245 65.577671 
L 324.071731 66.114532 
L 324.507217 66.128919 
L 324.942702 67.319862 
L 325.378188 66.085951 
L 325.813674 66.143113 
L 326.249159 64.472665 
L 326.684645 65.300937 
L 327.12013 66.889794 
L 327.555616 67.018409 
L 327.991102 68.03014 
L 328.426587 66.493907 
L 328.862073 66.560339 
L 329.297559 67.769917 
L 329.733044 67.57825 
L 330.16853 66.597224 
L 330.604016 66.540062 
L 331.039501 67.466919 
L 331.474987 67.931458 
L 331.910472 68.175556 
L 332.345958 66.803182 
L 332.781444 66.402757 
L 333.216929 66.766876 
L 333.652415 66.716859 
L 334.087901 66.425737 
L 334.523386 66.374369 
L 334.958872 67.916781 
L 335.394358 67.813947 
L 335.829843 66.990407 
L 336.265329 65.454367 
L 336.700815 65.683981 
L 337.1363 65.623053 
L 338.007271 67.958301 
L 338.442757 67.074412 
L 338.878243 67.381659 
L 339.313728 66.697258 
L 339.749214 66.605818 
L 340.1847 64.847405 
L 340.620185 64.395515 
L 341.055671 62.774215 
L 341.491157 62.643186 
L 341.926642 63.051819 
L 342.362128 61.585783 
L 342.797614 61.738441 
L 343.668585 64.108546 
L 344.10407 63.950964 
L 344.539556 63.644779 
L 344.975042 62.777112 
L 345.410527 61.011458 
L 345.846013 62.502695 
L 346.281499 60.744572 
L 346.716984 60.698418 
L 347.15247 60.482708 
L 347.587956 59.777161 
L 348.023441 60.022031 
L 348.458927 59.415166 
L 348.894412 59.344389 
L 349.329898 59.854021 
L 349.765384 60.033715 
L 350.200869 60.343761 
L 351.507326 56.674955 
L 351.942812 56.834276 
L 353.684755 56.503952 
L 354.12024 57.689584 
L 354.555726 58.159433 
L 354.991211 59.034922 
L 355.426697 58.970132 
L 355.862183 59.22881 
L 356.733154 59.059061 
L 357.16864 57.03386 
L 357.604125 57.605482 
L 358.910582 57.150405 
L 359.781554 58.164165 
L 360.217039 57.951931 
L 360.652525 57.468177 
L 361.08801 52.730574 
L 361.523496 53.612242 
L 361.958982 52.705179 
L 362.394467 52.373889 
L 362.829953 53.005956 
L 363.265439 51.521961 
L 363.700924 51.59071 
L 364.571896 49.830946 
L 365.442867 49.557591 
L 365.878353 50.765142 
L 366.749324 50.363751 
L 367.184809 50.765721 
L 367.620295 51.409761 
L 368.055781 51.026234 
L 368.491266 51.610021 
L 368.926752 51.604131 
L 369.362238 51.385332 
L 369.797723 52.516505 
L 370.233209 51.892839 
L 370.668695 52.692337 
L 371.10418 52.554259 
L 371.539666 52.016529 
L 371.975151 51.890039 
L 372.410637 50.170829 
L 372.846123 50.010447 
L 373.281608 49.635513 
L 373.717094 50.716959 
L 374.15258 50.265745 
L 374.588065 51.58453 
L 375.023551 50.55706 
L 375.459037 50.888639 
L 375.894522 50.82578 
L 377.200979 48.998232 
L 377.636465 50.088079 
L 378.07195 49.937739 
L 378.507436 48.355255 
L 378.942922 48.199797 
L 379.378407 47.549867 
L 380.249379 47.309825 
L 380.684864 46.868459 
L 381.12035 45.60674 
L 381.555836 45.904041 
L 381.991321 44.164361 
L 382.862293 46.326481 
L 383.297778 46.325419 
L 383.733264 44.809173 
L 384.168749 45.438054 
L 384.604235 43.989206 
L 385.039721 43.714402 
L 385.475206 43.630687 
L 385.910692 42.318468 
L 386.346178 43.598823 
L 386.781663 43.595636 
L 387.652635 43.305384 
L 388.08812 42.811202 
L 388.523606 43.967577 
L 388.959091 43.644108 
L 389.394577 44.63759 
L 389.830063 45.197625 
L 390.265548 47.049795 
L 391.13652 46.477111 
L 391.572005 47.823898 
L 392.007491 48.067223 
L 392.442977 50.401216 
L 392.878462 48.814193 
L 393.313948 48.68471 
L 393.749434 48.777888 
L 394.184919 46.333819 
L 394.620405 46.443123 
L 395.05589 44.57869 
L 395.491376 43.218868 
L 395.926862 41.368726 
L 396.362347 40.481071 
L 396.797833 40.370223 
L 397.668804 38.066936 
L 398.10429 38.247499 
L 398.539776 38.112318 
L 398.975261 36.813617 
L 399.410747 38.024354 
L 399.846233 37.401847 
L 400.281718 36.993504 
L 400.717204 35.150121 
L 401.588175 34.990125 
L 402.023661 35.178799 
L 402.023661 35.178799 
" style="fill:none;opacity:0.8;stroke:#ff7f0e;stroke-linecap:square;stroke-width:1.5;"/>
   </g>
   <g id="line2d_19">
    <path clip-path="url(#p1b64648953)" d="M 146.829075 163.306706 
L 147.264561 165.048607 
L 147.700046 164.244185 
L 148.135532 164.279718 
L 148.571018 165.063477 
L 149.006503 164.131985 
L 149.441989 164.055704 
L 150.31296 165.050249 
L 150.748446 165.140241 
L 151.183931 164.931193 
L 151.619417 164.085927 
L 152.490388 163.971796 
L 152.925874 164.845836 
L 153.36136 164.060725 
L 153.796845 164.835118 
L 154.232331 164.828939 
L 154.667817 165.219611 
L 155.103302 164.85443 
L 155.538788 164.878376 
L 155.974273 165.69593 
L 156.409759 164.95205 
L 156.845245 164.429093 
L 157.28073 163.692068 
L 157.716216 163.815952 
L 158.151702 164.634375 
L 159.458159 164.814841 
L 159.893644 165.014136 
L 160.32913 164.131889 
L 160.764616 162.757004 
L 161.200101 162.853561 
L 162.071072 162.837243 
L 162.506558 163.011916 
L 162.942044 162.772646 
L 163.377529 163.562584 
L 164.248501 163.431169 
L 165.554958 163.74701 
L 165.990443 163.769797 
L 166.425929 163.617719 
L 166.861415 165.042524 
L 167.732386 164.11866 
L 168.167871 165.018771 
L 169.038843 164.972616 
L 169.474328 165.005446 
L 169.909814 165.89397 
L 170.780785 165.993135 
L 171.216271 165.831594 
L 171.651757 166.535016 
L 172.087242 166.808564 
L 172.522728 166.060146 
L 172.958213 165.733781 
L 173.393699 165.789494 
L 173.829185 165.032675 
L 174.26467 165.019737 
L 174.700156 165.132612 
L 175.135642 165.122088 
L 175.571127 164.558674 
L 176.006613 165.167663 
L 176.442099 165.006315 
L 177.31307 165.080761 
L 177.748556 164.886583 
L 178.184041 165.605745 
L 179.055012 165.61038 
L 179.490498 165.362806 
L 179.925984 165.532072 
L 180.796955 165.563356 
L 181.232441 165.925061 
L 181.667926 166.08583 
L 182.103412 165.42972 
L 182.538898 165.534679 
L 182.974383 165.434741 
L 183.409869 165.981355 
L 183.845355 166.070574 
L 184.28084 166.799102 
L 184.716326 167.940703 
L 185.587297 167.868188 
L 186.022783 168.625684 
L 186.458268 169.067242 
L 186.893754 168.996658 
L 187.32924 169.076994 
L 187.764725 168.390083 
L 188.200211 169.304291 
L 188.635697 169.439279 
L 189.071182 168.293815 
L 189.506668 167.674011 
L 190.377639 167.699019 
L 191.24861 169.028812 
L 191.684096 168.77612 
L 192.119582 168.707178 
L 192.555067 168.310423 
L 192.990553 168.297967 
L 193.426039 168.938531 
L 194.29701 168.763471 
L 194.732496 168.816675 
L 195.167981 169.253309 
L 196.038952 169.198271 
L 196.474438 169.366088 
L 197.345409 169.499434 
L 197.780895 170.547568 
L 198.216381 170.614193 
L 198.651866 169.822902 
L 199.087352 169.737352 
L 199.522838 169.954414 
L 199.958323 170.685645 
L 200.393809 170.734214 
L 200.829295 169.81286 
L 201.700266 169.802915 
L 202.135751 170.526036 
L 203.442208 167.791618 
L 203.877694 169.678742 
L 204.31318 170.399159 
L 206.055122 167.022343 
L 206.926093 167.020798 
L 207.361579 166.236846 
L 207.797065 166.258958 
L 208.23255 167.291932 
L 208.668036 167.513436 
L 209.103522 167.528788 
L 210.409979 167.256592 
L 210.845464 166.314189 
L 211.28095 166.730449 
L 211.716436 166.534244 
L 213.022892 166.489055 
L 213.893864 165.33268 
L 214.764835 165.176257 
L 215.200321 165.899474 
L 215.635806 166.293815 
L 216.071292 165.492 
L 216.942263 165.282953 
L 217.813235 164.824014 
L 218.24872 163.84994 
L 218.684206 163.969092 
L 219.119691 163.730112 
L 219.555177 163.731078 
L 220.426148 165.284691 
L 221.29712 164.49427 
L 221.732605 164.386801 
L 222.168091 164.420499 
L 223.039062 163.786695 
L 223.474548 164.429383 
L 223.910033 163.547521 
L 224.345519 163.390036 
L 225.21649 161.861624 
L 225.651976 161.803786 
L 226.522947 160.117696 
L 226.958433 157.667061 
L 227.393919 157.580063 
L 227.829404 156.814457 
L 228.700376 158.164333 
L 229.571347 158.137587 
L 230.006832 158.885909 
L 230.442318 159.142559 
L 230.877804 160.094039 
L 231.313289 159.225985 
L 231.748775 159.280154 
L 232.184261 158.445413 
L 232.619746 159.070817 
L 233.055232 158.684393 
L 233.490718 158.599229 
L 233.926203 158.928491 
L 234.361689 159.649873 
L 234.797175 158.790413 
L 235.23266 159.068017 
L 236.103631 157.675076 
L 236.539117 158.541198 
L 237.410088 158.609754 
L 237.845574 157.734652 
L 238.28106 158.340165 
L 238.716545 156.839272 
L 239.152031 156.653495 
L 240.023002 158.134594 
L 240.893974 158.001441 
L 241.329459 157.938099 
L 241.764945 158.386126 
L 242.20043 159.105578 
L 242.635916 158.779792 
L 243.071402 157.930567 
L 243.506887 157.780806 
L 243.942373 157.923132 
L 244.377859 157.928057 
L 244.813344 157.073231 
L 245.24883 157.927767 
L 245.684316 159.282375 
L 246.119801 158.696849 
L 247.861744 158.624334 
L 248.297229 158.398003 
L 248.732715 158.478822 
L 249.168201 158.121076 
L 249.603686 158.876736 
L 250.039172 158.630804 
L 250.474658 158.52739 
L 250.910143 159.294445 
L 251.345629 158.635245 
L 252.2166 158.54844 
L 252.652086 158.985074 
L 253.087571 158.140387 
L 253.958543 158.148981 
L 254.394028 158.107944 
L 254.829514 157.81885 
L 255.265 157.82754 
L 255.700485 157.702208 
L 256.135971 156.983722 
L 256.571457 155.917339 
L 257.442428 155.811319 
L 257.877914 156.642681 
L 258.748885 156.484133 
L 259.18437 155.445365 
L 259.619856 154.912077 
L 260.055342 154.851439 
L 260.490827 155.612507 
L 260.926313 155.252733 
L 261.361799 155.41128 
L 262.23277 155.267603 
L 262.668256 155.92294 
L 263.103741 156.010711 
L 263.539227 155.147099 
L 263.974712 155.595319 
L 264.410198 155.756957 
L 264.845684 155.713699 
L 265.281169 154.917195 
L 265.716655 155.544047 
L 266.152141 155.472788 
L 266.587626 155.601885 
L 267.023112 155.278417 
L 268.329569 154.872585 
L 268.765055 155.641377 
L 269.20054 155.534681 
L 270.071511 153.838452 
L 270.506997 154.199578 
L 270.942483 152.96026 
L 271.377968 152.518508 
L 271.813454 152.463181 
L 272.24894 151.608356 
L 272.684425 151.358947 
L 273.555397 151.334518 
L 273.990882 152.74175 
L 274.426368 153.147485 
L 274.861854 152.856943 
L 275.297339 152.046148 
L 276.603796 152.357257 
L 277.039282 151.701148 
L 277.474767 150.143093 
L 277.910253 150.245637 
L 278.345739 149.47192 
L 278.781224 149.619557 
L 279.21671 148.831549 
L 279.652196 148.823728 
L 280.087681 148.333408 
L 280.523167 149.115429 
L 280.958652 149.067633 
L 281.394138 148.24361 
L 281.829624 148.188186 
L 282.265109 147.337705 
L 282.700595 147.332105 
L 283.136081 147.151446 
L 283.571566 148.014961 
L 284.007052 148.028479 
L 284.442538 147.231975 
L 284.878023 147.309028 
L 285.313509 147.196055 
L 285.748995 148.040452 
L 286.18448 148.053488 
L 286.619966 148.500646 
L 287.055451 147.677106 
L 287.926423 149.372176 
L 288.361908 150.11258 
L 289.668365 150.173701 
L 290.103851 150.758551 
L 290.539337 150.630902 
L 290.974822 151.439187 
L 291.410308 151.343884 
L 291.845794 151.369375 
L 292.716765 152.572098 
L 293.15225 151.702982 
L 293.587736 151.108476 
L 294.023222 151.066088 
L 294.458707 151.196441 
L 294.894193 151.974406 
L 295.329679 151.142561 
L 295.765164 152.054259 
L 296.20065 150.797078 
L 297.071621 151.494997 
L 297.507107 151.342146 
L 297.942592 150.584651 
L 298.813564 151.826673 
L 299.249049 150.991545 
L 299.684535 150.893442 
L 300.120021 150.333311 
L 300.555506 150.465113 
L 300.990992 151.245395 
L 301.426478 151.592134 
L 301.861963 151.466609 
L 302.297449 152.30753 
L 303.16842 152.640075 
L 304.039391 152.711817 
L 304.474877 152.177274 
L 304.910363 152.128995 
L 305.781334 152.359864 
L 306.21682 151.86462 
L 306.652305 152.747447 
L 307.087791 152.683139 
L 307.958762 153.422095 
L 308.394248 152.987199 
L 308.829734 153.645723 
L 309.265219 153.626218 
L 310.13619 155.067632 
L 310.571676 154.974357 
L 311.442647 156.657068 
L 311.878133 158.825947 
L 312.313619 158.877508 
L 312.749104 159.641473 
L 313.18459 159.600243 
L 313.620076 158.862832 
L 314.055561 158.833189 
L 314.491047 157.661171 
L 314.926532 157.704526 
L 315.362018 156.900007 
L 316.668475 157.004386 
L 317.103961 157.040595 
L 317.539446 156.950796 
L 317.974932 156.650309 
L 318.410418 156.708436 
L 318.845903 157.231972 
L 319.281389 157.303908 
L 319.716875 157.999702 
L 320.15236 157.788724 
L 320.587846 157.886537 
L 321.023331 158.820346 
L 321.458817 157.926995 
L 321.894303 157.329206 
L 322.329788 157.020897 
L 322.765274 156.870943 
L 323.20076 157.025532 
L 323.636245 158.504603 
L 324.071731 158.70187 
L 324.507217 158.495623 
L 324.942702 158.565337 
L 325.378188 157.825802 
L 325.813674 157.773082 
L 326.249159 158.548826 
L 327.12013 158.517831 
L 327.555616 158.866887 
L 327.991102 159.708194 
L 328.426587 158.905221 
L 328.862073 158.595657 
L 329.297559 158.579531 
L 329.733044 159.226178 
L 330.16853 159.257173 
L 330.604016 158.523238 
L 331.039501 158.991157 
L 332.345958 159.072845 
L 332.781444 158.767529 
L 333.216929 158.984301 
L 333.652415 158.958134 
L 334.087901 158.009938 
L 334.523386 157.832078 
L 334.958872 158.060244 
L 335.394358 158.104178 
L 335.829843 157.291259 
L 336.265329 157.679421 
L 336.700815 156.81494 
L 337.1363 157.368505 
L 337.571786 157.508707 
L 338.007271 158.09655 
L 338.442757 157.385209 
L 338.878243 158.162499 
L 339.313728 157.521645 
L 339.749214 155.924002 
L 340.1847 155.607099 
L 341.491157 158.15854 
L 341.926642 157.93356 
L 342.362128 158.386223 
L 342.797614 158.177272 
L 343.668585 158.19697 
L 344.10407 158.47158 
L 344.539556 158.920573 
L 345.410527 158.914007 
L 345.846013 158.426777 
L 346.281499 158.168582 
L 346.716984 157.351897 
L 347.15247 156.166748 
L 347.587956 156.2382 
L 348.023441 156.070963 
L 348.458927 156.612362 
L 348.894412 156.89402 
L 349.329898 156.10022 
L 349.765384 156.076466 
L 350.200869 156.812333 
L 350.636355 156.993378 
L 351.071841 156.60174 
L 351.507326 155.775593 
L 352.378298 155.859694 
L 352.813783 156.163561 
L 353.249269 156.147147 
L 353.684755 155.96079 
L 354.12024 155.585084 
L 354.555726 156.426295 
L 354.991211 156.634666 
L 355.426697 156.592084 
L 355.862183 157.82783 
L 356.733154 157.985509 
L 357.604125 159.695642 
L 358.475097 159.37256 
L 358.910582 159.436384 
L 359.346068 159.379705 
L 359.781554 158.724271 
L 360.217039 159.420839 
L 360.652525 158.495526 
L 361.08801 158.269292 
L 361.523496 158.49234 
L 361.958982 159.191707 
L 362.394467 161.114461 
L 362.829953 160.555681 
L 363.265439 161.385498 
L 363.700924 160.612361 
L 364.13641 160.584262 
L 364.571896 159.726251 
L 365.442867 159.545205 
L 365.878353 159.08308 
L 366.313838 159.940512 
L 366.749324 159.952389 
L 367.184809 160.193493 
L 367.620295 160.130055 
L 368.055781 160.27354 
L 368.491266 160.179299 
L 368.926752 159.847044 
L 369.362238 160.630031 
L 369.797723 160.594594 
L 370.233209 160.689607 
L 370.668695 160.076272 
L 371.539666 160.109585 
L 371.975151 160.961513 
L 372.410637 160.102536 
L 372.846123 160.179396 
L 373.281608 159.462938 
L 373.717094 159.124696 
L 374.15258 159.199335 
L 374.588065 159.161195 
L 375.023551 159.4612 
L 375.459037 160.350496 
L 375.894522 160.21686 
L 376.330008 159.847431 
L 376.765494 159.806587 
L 377.200979 159.900441 
L 377.636465 159.447682 
L 378.07195 160.287927 
L 378.507436 160.863797 
L 378.942922 160.871135 
L 379.378407 159.972376 
L 379.813893 159.783799 
L 380.249379 160.557902 
L 380.684864 159.618685 
L 381.12035 160.838981 
L 381.555836 159.938581 
L 381.991321 159.526666 
L 382.426807 158.90242 
L 382.862293 159.653253 
L 383.297778 159.510058 
L 383.733264 159.918207 
L 384.168749 160.783461 
L 384.604235 161.012399 
L 385.039721 160.762701 
L 385.475206 161.080762 
L 385.910692 161.077962 
L 386.346178 161.566737 
L 386.781663 161.860755 
L 387.217149 161.267311 
L 388.08812 161.321963 
L 388.523606 159.850907 
L 388.959091 160.031469 
L 389.394577 160.039484 
L 389.830063 159.743438 
L 390.701034 159.671406 
L 391.13652 159.429915 
L 392.007491 157.855252 
L 392.442977 158.322978 
L 392.878462 158.265333 
L 393.313948 158.77593 
L 393.749434 158.933609 
L 394.184919 158.30888 
L 395.05589 158.456903 
L 395.491376 157.835941 
L 395.926862 157.828988 
L 396.362347 156.967211 
L 396.797833 157.213337 
L 397.668804 155.599858 
L 398.10429 155.864329 
L 398.539776 156.602126 
L 398.975261 156.624817 
L 399.410747 157.716499 
L 399.846233 157.716113 
L 400.281718 158.513003 
L 400.717204 157.661944 
L 401.152689 158.417121 
L 401.588175 158.373091 
L 402.023661 159.08617 
L 402.023661 159.08617 
" style="fill:none;opacity:0.8;stroke:#2ca02c;stroke-linecap:square;stroke-width:1.5;"/>
   </g>
   <g id="line2d_20">
    <path clip-path="url(#p1b64648953)" d="M 146.829075 246.720098 
L 147.264561 246.936484 
L 147.700046 246.651639 
L 148.571018 246.630879 
L 149.441989 247.184444 
L 149.877475 246.90433 
L 150.748446 247.468903 
L 151.183931 247.498739 
L 152.054903 246.962844 
L 152.490388 247.331308 
L 152.925874 247.402471 
L 153.796845 247.27907 
L 154.232331 247.602442 
L 155.974273 247.990218 
L 156.409759 247.725457 
L 156.845245 247.977279 
L 157.28073 247.981238 
L 157.716216 248.228233 
L 158.587187 248.234702 
L 159.022673 248.407926 
L 159.458159 248.178312 
L 159.893644 248.156201 
L 160.32913 248.456302 
L 161.200101 248.094886 
L 161.635587 248.362351 
L 162.071072 248.350378 
L 162.506558 248.549384 
L 162.942044 248.485655 
L 163.377529 248.216066 
L 163.813015 248.487587 
L 164.248501 248.395181 
L 164.683986 248.440466 
L 165.119472 248.690551 
L 165.554958 248.414106 
L 165.990443 248.443363 
L 166.425929 248.619871 
L 166.861415 248.582792 
L 167.2969 248.266469 
L 167.732386 248.575454 
L 168.167871 248.682054 
L 169.474328 248.116419 
L 170.3453 248.654921 
L 172.522728 248.387167 
L 173.393699 248.433707 
L 175.135642 248.48778 
L 175.571127 248.793964 
L 176.442099 248.623926 
L 176.877584 248.891777 
L 177.31307 248.65579 
L 178.619527 248.339371 
L 179.055012 248.125785 
L 179.490498 248.210176 
L 179.925984 248.470689 
L 181.667926 247.866527 
L 182.103412 248.123661 
L 182.538898 248.226398 
L 182.974383 248.043904 
L 183.409869 248.345357 
L 183.845355 248.415458 
L 184.28084 248.133606 
L 184.716326 248.078085 
L 185.151811 247.865562 
L 186.458268 247.9823 
L 186.893754 247.984231 
L 187.32924 248.282112 
L 187.764725 248.091893 
L 188.635697 248.063891 
L 189.071182 248.378863 
L 189.506668 248.084265 
L 189.942153 248.025075 
L 190.377639 247.766204 
L 190.813125 247.76997 
L 191.684096 248.332708 
L 192.555067 248.413913 
L 193.426039 247.87039 
L 193.861524 248.060995 
L 194.29701 247.884101 
L 194.732496 247.874638 
L 195.603467 248.276898 
L 198.216381 248.507574 
L 198.651866 248.240689 
L 199.087352 248.374228 
L 199.522838 248.370269 
L 200.393809 247.738589 
L 200.829295 247.519016 
L 201.26478 247.531955 
L 202.135751 247.293361 
L 202.571237 246.94614 
L 203.006723 246.955023 
L 203.442208 247.180775 
L 204.31318 247.304562 
L 204.748665 247.561309 
L 206.055122 247.501539 
L 206.490608 247.787254 
L 206.926093 247.728257 
L 207.361579 247.786481 
L 207.797065 247.707207 
L 208.23255 247.990894 
L 208.668036 248.474551 
L 209.103522 248.366986 
L 209.539007 248.539921 
L 210.409979 248.303837 
L 212.151921 248.178023 
L 212.587407 248.442011 
L 213.458378 248.531617 
L 213.893864 248.813758 
L 214.329349 248.788364 
L 214.764835 248.90404 
L 215.635806 248.893708 
L 216.071292 248.638313 
L 216.506778 248.642658 
L 216.942263 248.399816 
L 217.377749 248.421734 
L 217.813235 248.56406 
L 219.119691 248.51105 
L 220.426148 247.661536 
L 221.732605 247.698517 
L 222.168091 247.573185 
L 223.039062 247.080548 
L 224.345519 247.056119 
L 224.781005 246.852961 
L 225.651976 246.947588 
L 226.958433 246.824573 
L 227.829404 246.818587 
L 228.700376 246.296886 
L 229.571347 246.85972 
L 230.877804 246.88946 
L 231.313289 246.891778 
L 231.748775 247.181354 
L 232.184261 247.21766 
L 232.619746 247.39494 
L 234.361689 247.387601 
L 234.797175 247.66366 
L 235.23266 247.733085 
L 236.103631 247.692917 
L 236.974603 248.27178 
L 237.845574 248.014261 
L 238.716545 248.087838 
L 239.152031 248.103384 
L 239.587517 248.266759 
L 240.458488 247.85523 
L 241.329459 248.299975 
L 241.764945 248.265118 
L 242.635916 247.807917 
L 243.071402 247.583034 
L 243.506887 247.543445 
L 246.555287 248.178795 
L 247.426258 248.095755 
L 248.297229 248.165277 
L 249.603686 248.163732 
L 250.039172 247.698324 
L 250.474658 247.866527 
L 251.345629 247.867107 
L 251.781115 247.839974 
L 252.2166 248.140462 
L 253.087571 248.016868 
L 253.523057 248.262993 
L 253.958543 248.289643 
L 254.394028 248.574199 
L 255.700485 248.676647 
L 256.135971 248.499174 
L 256.571457 248.49898 
L 257.442428 248.297658 
L 257.877914 248.543493 
L 258.313399 248.385911 
L 259.18437 248.359455 
L 259.619856 248.129744 
L 260.055342 248.127813 
L 260.490827 247.871259 
L 260.926313 247.971968 
L 261.797284 247.911716 
L 262.23277 248.142876 
L 262.668256 247.992632 
L 263.539227 248.116902 
L 263.974712 248.303837 
L 264.845684 247.822208 
L 265.281169 248.082141 
L 265.716655 248.127137 
L 266.152141 248.465668 
L 266.587626 247.658542 
L 267.023112 247.415893 
L 267.458598 246.324211 
L 267.894083 245.552522 
L 268.329569 245.342992 
L 270.071511 245.071182 
L 270.506997 244.785082 
L 270.942483 243.67351 
L 271.377968 243.414349 
L 271.813454 243.475277 
L 272.24894 243.04154 
L 273.119911 241.612099 
L 273.555397 241.441289 
L 273.990882 241.093971 
L 274.426368 241.205785 
L 275.732825 240.465766 
L 276.603796 238.260003 
L 277.910253 237.937693 
L 278.345739 237.007939 
L 278.781224 236.725121 
L 279.21671 236.620936 
L 279.652196 235.812072 
L 280.523167 235.18464 
L 281.394138 234.592645 
L 281.829624 234.287619 
L 282.265109 231.900037 
L 283.136081 231.67863 
L 284.007052 231.53669 
L 284.442538 230.385047 
L 285.313509 230.444623 
L 285.748995 230.444816 
L 287.055451 229.929487 
L 287.490937 230.112175 
L 287.926423 229.723047 
L 288.361908 228.665644 
L 288.797394 227.293366 
L 289.23288 227.377661 
L 290.103851 226.813088 
L 290.974822 226.801018 
L 291.410308 225.681432 
L 291.845794 225.252522 
L 293.15225 224.69606 
L 293.587736 224.368247 
L 294.023222 224.340439 
L 294.894193 223.676508 
L 295.765164 223.213707 
L 296.20065 222.794357 
L 297.071621 222.359075 
L 297.507107 221.692151 
L 297.942592 221.235336 
L 299.249049 220.527375 
L 300.120021 219.90844 
L 300.555506 218.722229 
L 300.990992 217.953533 
L 301.426478 216.72445 
L 301.861963 216.690945 
L 302.297449 214.599602 
L 302.732935 214.271306 
L 303.16842 213.650729 
L 304.039391 211.253009 
L 304.474877 210.935044 
L 304.910363 210.853356 
L 305.345848 210.528729 
L 305.781334 209.153651 
L 307.523277 208.144623 
L 307.958762 208.009346 
L 308.829734 207.459353 
L 309.265219 206.530662 
L 309.700705 206.428021 
L 310.13619 205.964158 
L 310.571676 205.743813 
L 311.878133 204.535586 
L 312.313619 203.33296 
L 312.749104 202.782582 
L 313.620076 202.616599 
L 314.491047 201.577252 
L 314.926532 200.820915 
L 318.845903 197.719193 
L 319.716875 196.632436 
L 320.587846 196.009928 
L 321.023331 194.906274 
L 321.894303 194.181802 
L 322.329788 194.08283 
L 324.507217 192.415085 
L 324.942702 191.084714 
L 325.378188 190.586572 
L 325.813674 189.27136 
L 326.684645 188.363525 
L 328.426587 187.394858 
L 329.297559 186.625776 
L 329.733044 185.339917 
L 330.16853 184.546116 
L 330.604016 184.226317 
L 331.474987 183.078825 
L 331.910472 182.72948 
L 332.345958 182.181032 
L 333.652415 178.888318 
L 334.523386 178.196965 
L 334.958872 177.225112 
L 335.829843 176.626551 
L 336.265329 175.351699 
L 336.700815 174.974835 
L 337.1363 173.349383 
L 337.571786 172.955331 
L 338.007271 172.176689 
L 338.442757 171.817205 
L 339.313728 170.932833 
L 340.620185 167.453859 
L 341.055671 166.361599 
L 341.491157 164.873162 
L 341.926642 164.623657 
L 342.797614 163.895612 
L 343.233099 163.726636 
L 343.668585 163.099783 
L 344.539556 162.827201 
L 344.975042 162.448019 
L 345.410527 162.344219 
L 347.15247 160.73663 
L 347.587956 160.609367 
L 348.023441 160.136524 
L 348.458927 160.117792 
L 348.894412 159.520486 
L 349.329898 159.368311 
L 349.765384 159.075838 
L 350.200869 158.260215 
L 351.071841 155.338669 
L 351.942812 154.980054 
L 352.813783 156.317185 
L 354.555726 155.640798 
L 354.991211 155.135029 
L 355.426697 154.175149 
L 355.862183 154.917484 
L 356.297668 154.764537 
L 356.733154 154.282714 
L 357.16864 154.359381 
L 357.604125 153.755509 
L 358.039611 154.034561 
L 358.475097 153.801084 
L 358.910582 153.737067 
L 359.346068 153.301109 
L 360.652525 153.240374 
L 361.08801 152.920864 
L 361.523496 153.697961 
L 361.958982 152.618832 
L 363.700924 152.088151 
L 364.13641 151.14121 
L 364.571896 151.856219 
L 365.007381 151.933369 
L 365.878353 151.599086 
L 366.313838 150.693761 
L 366.749324 150.670587 
L 367.184809 151.86153 
L 367.620295 151.71959 
L 368.055781 150.587644 
L 368.491266 150.498715 
L 368.926752 149.490459 
L 369.362238 150.226132 
L 369.797723 149.196441 
L 370.233209 149.133196 
L 371.10418 148.764925 
L 371.539666 148.78694 
L 372.410637 148.351754 
L 372.846123 147.978752 
L 373.281608 148.568237 
L 373.717094 149.713701 
L 374.588065 149.468927 
L 375.023551 149.073233 
L 375.459037 148.88398 
L 375.894522 147.258914 
L 376.330008 148.005498 
L 376.765494 148.041901 
L 377.200979 147.37459 
L 378.07195 146.976193 
L 378.507436 145.828605 
L 379.378407 145.722005 
L 379.813893 144.789741 
L 380.249379 144.224396 
L 380.684864 143.899672 
L 381.12035 143.892527 
L 381.555836 143.667741 
L 381.991321 143.269344 
L 382.426807 142.467625 
L 385.039721 142.310139 
L 385.475206 142.208561 
L 386.346178 143.755994 
L 386.781663 143.64447 
L 387.217149 144.126293 
L 387.652635 144.030991 
L 388.08812 144.257515 
L 388.523606 144.789548 
L 388.959091 145.580355 
L 389.394577 144.714619 
L 389.830063 144.700618 
L 390.265548 144.924632 
L 390.701034 145.744503 
L 391.13652 145.738613 
L 391.572005 145.305745 
L 392.442977 145.486984 
L 392.878462 145.493936 
L 393.749434 145.089939 
L 394.184919 145.353155 
L 394.620405 145.193159 
L 395.05589 145.18331 
L 395.491376 144.679665 
L 395.926862 144.535794 
L 396.362347 144.183166 
L 396.797833 144.324043 
L 397.233319 144.702067 
L 397.668804 144.402641 
L 398.10429 144.413263 
L 398.539776 143.332589 
L 398.975261 143.094671 
L 399.410747 143.26635 
L 399.846233 143.5763 
L 400.717204 143.604785 
L 401.152689 143.285179 
L 401.588175 143.134839 
L 402.023661 142.187318 
L 402.023661 142.187318 
" style="fill:none;opacity:0.8;stroke:#d62728;stroke-linecap:square;stroke-width:1.5;"/>
   </g>
   <g id="line2d_21">
    <path clip-path="url(#p1b64648953)" d="M 146.829075 81.136109 
L 147.264561 79.542231 
L 147.700046 80.533975 
L 148.571018 80.535713 
L 149.006503 79.608084 
L 149.441989 77.399906 
L 149.877475 78.409899 
L 150.31296 78.323866 
L 150.748446 77.903068 
L 151.183931 78.558501 
L 151.619417 80.604752 
L 152.054903 79.319086 
L 152.490388 79.419989 
L 152.925874 80.655734 
L 153.36136 80.969064 
L 153.796845 82.166573 
L 154.232331 84.478067 
L 154.667817 84.701502 
L 155.103302 83.667659 
L 155.538788 84.490427 
L 155.974273 84.556955 
L 156.409759 84.258205 
L 156.845245 84.364805 
L 157.28073 84.791494 
L 157.716216 84.72062 
L 158.151702 84.843828 
L 158.587187 83.987071 
L 159.022673 84.372433 
L 159.893644 86.656216 
L 160.32913 86.697446 
L 160.764616 86.281669 
L 161.200101 85.371323 
L 161.635587 85.026129 
L 162.071072 85.247439 
L 162.506558 85.261054 
L 162.942044 86.649843 
L 163.377529 87.382233 
L 163.813015 85.725786 
L 164.248501 87.399807 
L 164.683986 88.567093 
L 165.119472 87.303828 
L 165.554958 87.094298 
L 165.990443 88.188007 
L 166.425929 87.882112 
L 166.861415 86.550099 
L 167.2969 87.693052 
L 167.732386 87.690832 
L 168.167871 86.418684 
L 169.038843 88.256563 
L 169.474328 87.127804 
L 169.909814 87.051426 
L 170.780785 88.904755 
L 172.087242 89.000444 
L 172.522728 88.806169 
L 172.958213 87.675382 
L 173.393699 87.581528 
L 173.829185 87.713812 
L 174.26467 87.26424 
L 175.135642 87.837406 
L 175.571127 87.87825 
L 176.006613 86.583508 
L 176.442099 86.728538 
L 176.877584 88.014783 
L 177.31307 85.829779 
L 177.748556 85.879989 
L 178.184041 84.807136 
L 179.055012 86.720427 
L 179.925984 86.855318 
L 180.361469 86.481446 
L 180.796955 85.593985 
L 181.232441 86.760402 
L 181.667926 86.877526 
L 182.103412 85.81095 
L 182.538898 85.407145 
L 183.409869 87.855849 
L 183.845355 88.286592 
L 184.28084 87.10125 
L 184.716326 87.554589 
L 185.151811 88.74949 
L 185.587297 88.658243 
L 186.022783 89.00614 
L 186.458268 88.137314 
L 186.893754 88.064124 
L 187.32924 88.171785 
L 187.764725 88.018259 
L 188.200211 88.486853 
L 188.635697 89.430029 
L 189.071182 88.256756 
L 189.942153 89.017534 
L 190.377639 89.968145 
L 190.813125 89.968048 
L 191.24861 90.741862 
L 191.684096 90.831274 
L 192.119582 88.516883 
L 192.555067 89.58539 
L 192.990553 90.314401 
L 193.426039 91.686582 
L 193.861524 90.515434 
L 194.29701 90.655056 
L 194.732496 91.769428 
L 195.167981 91.645738 
L 195.603467 92.117905 
L 196.038952 93.22127 
L 196.474438 92.655152 
L 196.909924 93.807375 
L 197.345409 92.988952 
L 197.780895 93.66698 
L 198.216381 93.334436 
L 199.522838 97.02796 
L 199.958323 97.392852 
L 200.393809 98.619811 
L 200.829295 98.477774 
L 201.26478 97.272058 
L 202.571237 100.531556 
L 203.006723 101.222523 
L 203.442208 99.801387 
L 203.877694 100.787434 
L 204.31318 100.737031 
L 204.748665 101.886551 
L 205.184151 101.638108 
L 205.619637 102.83214 
L 206.055122 105.578627 
L 206.490608 105.742679 
L 206.926093 106.545749 
L 207.361579 105.444412 
L 207.797065 106.598952 
L 208.23255 106.465123 
L 208.668036 106.19901 
L 209.539007 108.640858 
L 209.974493 108.476999 
L 210.845464 111.359729 
L 211.28095 111.454646 
L 211.716436 111.234977 
L 212.151921 111.268386 
L 212.587407 111.455225 
L 213.022892 111.895431 
L 213.458378 110.799984 
L 213.893864 111.517987 
L 214.329349 111.493269 
L 215.200321 108.446004 
L 215.635806 108.620001 
L 216.071292 107.494718 
L 216.506778 107.437749 
L 216.942263 107.592434 
L 217.377749 107.478689 
L 217.813235 107.204369 
L 218.24872 107.480524 
L 218.684206 105.655004 
L 219.119691 105.097963 
L 219.555177 105.068513 
L 219.990663 105.217212 
L 220.426148 104.082562 
L 220.861634 104.025303 
L 221.29712 104.236089 
L 221.732605 103.772998 
L 222.168091 102.780868 
L 222.603577 104.204032 
L 223.039062 104.247579 
L 223.474548 103.737562 
L 223.910033 103.751273 
L 224.345519 102.634873 
L 224.781005 102.083914 
L 225.21649 102.358814 
L 225.651976 101.584228 
L 226.087462 101.557385 
L 226.522947 101.213447 
L 226.958433 100.08208 
L 227.393919 99.920443 
L 227.829404 98.869895 
L 228.700376 98.928409 
L 229.135861 98.136539 
L 229.571347 100.028298 
L 230.006832 99.947286 
L 230.442318 100.613437 
L 230.877804 100.642887 
L 231.313289 99.613486 
L 231.748775 100.592677 
L 232.184261 101.909821 
L 232.619746 101.638783 
L 233.055232 100.409314 
L 234.361689 103.554392 
L 234.797175 103.746348 
L 235.23266 103.363304 
L 235.668146 103.52639 
L 236.103631 103.992764 
L 236.539117 103.017048 
L 236.974603 104.213591 
L 237.410088 104.562357 
L 237.845574 103.79482 
L 238.28106 103.439874 
L 238.716545 102.650515 
L 239.587517 102.671661 
L 240.023002 102.600595 
L 240.893974 102.63101 
L 241.329459 102.610057 
L 241.764945 103.715643 
L 242.20043 102.591422 
L 242.635916 102.160292 
L 243.071402 103.238262 
L 244.813344 103.25738 
L 245.24883 102.08237 
L 245.684316 102.544591 
L 246.119801 102.737996 
L 246.555287 101.170768 
L 246.990772 100.985474 
L 247.426258 99.899104 
L 247.861744 99.926236 
L 248.297229 99.398355 
L 248.732715 101.176079 
L 249.168201 100.863811 
L 249.603686 99.651916 
L 250.039172 100.998606 
L 250.474658 100.038147 
L 250.910143 100.04983 
L 251.345629 99.007683 
L 251.781115 100.197081 
L 252.652086 98.059197 
L 253.087571 97.199544 
L 253.523057 97.3859 
L 253.958543 95.99769 
L 254.394028 96.964812 
L 254.829514 97.02574 
L 255.265 98.153823 
L 255.700485 97.176949 
L 256.135971 97.108683 
L 256.571457 97.524557 
L 257.006942 96.995034 
L 257.442428 95.869268 
L 257.877914 97.050941 
L 258.313399 96.011498 
L 258.748885 95.714583 
L 259.18437 96.085751 
L 260.055342 95.961481 
L 260.490827 94.993297 
L 260.926313 95.091689 
L 261.361799 94.38759 
L 261.797284 94.185302 
L 262.23277 95.140547 
L 262.668256 94.849812 
L 263.103741 96.102552 
L 263.539227 94.971282 
L 263.974712 95.106752 
L 264.410198 95.674318 
L 264.845684 95.124036 
L 265.281169 94.365382 
L 265.716655 95.39826 
L 266.152141 95.143347 
L 266.587626 95.705893 
L 267.023112 96.569987 
L 267.458598 95.751661 
L 267.894083 95.714003 
L 268.329569 96.141851 
L 270.071511 96.329269 
L 270.506997 97.491341 
L 270.942483 97.006332 
L 271.377968 96.861881 
L 271.813454 96.869606 
L 272.24894 96.993393 
L 272.684425 98.29528 
L 273.119911 97.201088 
L 273.555397 96.426696 
L 273.990882 97.254678 
L 274.426368 96.208765 
L 274.861854 97.481009 
L 275.297339 97.746929 
L 275.732825 97.37972 
L 276.16831 97.847832 
L 276.603796 96.746688 
L 277.039282 97.110421 
L 277.474767 97.191722 
L 277.910253 98.209054 
L 278.345739 98.110855 
L 278.781224 96.613631 
L 279.21671 96.585147 
L 279.652196 95.361857 
L 280.087681 96.570084 
L 280.523167 95.386576 
L 283.571566 94.939224 
L 284.007052 94.769766 
L 284.878023 94.829342 
L 285.313509 93.943135 
L 285.748995 93.817997 
L 286.18448 94.950232 
L 286.619966 93.778504 
L 287.055451 93.859034 
L 287.490937 94.141754 
L 287.926423 95.301316 
L 288.361908 95.594948 
L 288.797394 95.724818 
L 289.23288 94.625315 
L 289.668365 94.595672 
L 290.103851 92.601949 
L 290.974822 92.639413 
L 291.845794 91.132631 
L 292.281279 92.027913 
L 293.15225 91.748379 
L 293.587736 92.033128 
L 294.458707 91.906444 
L 294.894193 91.301703 
L 295.329679 91.328353 
L 295.765164 90.970703 
L 296.20065 90.952068 
L 296.636136 89.884333 
L 297.071621 89.887616 
L 297.507107 89.709949 
L 297.942592 89.662926 
L 298.813564 89.259701 
L 299.249049 88.105161 
L 299.684535 88.395316 
L 300.120021 90.113754 
L 300.555506 88.918852 
L 301.426478 88.871346 
L 301.861963 87.651243 
L 302.297449 87.846579 
L 302.732935 87.215478 
L 303.16842 87.152909 
L 303.603906 88.995036 
L 304.474877 88.649649 
L 304.910363 87.436595 
L 305.345848 87.233631 
L 305.781334 87.281717 
L 306.21682 87.061662 
L 306.652305 87.75736 
L 307.087791 88.186172 
L 307.523277 86.995037 
L 307.958762 87.026418 
L 308.394248 88.058427 
L 308.829734 88.071076 
L 309.265219 87.940143 
L 309.700705 88.478935 
L 310.13619 87.286738 
L 310.571676 88.142818 
L 311.007162 86.946468 
L 311.442647 87.216444 
L 311.878133 87.179462 
L 312.313619 87.471839 
L 312.749104 88.659595 
L 313.18459 88.125148 
L 313.620076 86.888051 
L 314.055561 88.014879 
L 314.926532 88.051957 
L 315.362018 89.769526 
L 315.797504 88.596736 
L 316.668475 88.507806 
L 317.103961 87.874967 
L 317.539446 88.054468 
L 317.974932 89.239617 
L 318.410418 88.73182 
L 318.845903 88.937584 
L 319.281389 88.816308 
L 319.716875 88.290262 
L 320.15236 88.254922 
L 320.587846 88.50771 
L 321.023331 86.547492 
L 321.458817 87.694597 
L 321.894303 87.454651 
L 322.329788 87.868305 
L 322.765274 88.874822 
L 323.20076 89.227644 
L 324.071731 89.129927 
L 324.507217 87.921218 
L 324.942702 88.9652 
L 325.378188 87.923439 
L 325.813674 87.978863 
L 326.249159 87.79859 
L 326.684645 87.85469 
L 327.12013 87.774064 
L 327.555616 88.127852 
L 327.991102 88.167151 
L 328.426587 88.836682 
L 328.862073 88.670796 
L 329.297559 88.200753 
L 329.733044 88.389909 
L 330.16853 89.538753 
L 330.604016 89.490377 
L 331.039501 90.565451 
L 331.474987 92.463485 
L 331.910472 91.900361 
L 332.345958 93.011836 
L 332.781444 92.796995 
L 333.216929 93.845129 
L 333.652415 92.203745 
L 334.523386 92.893553 
L 334.958872 91.64989 
L 335.394358 92.46223 
L 335.829843 92.429593 
L 336.265329 93.714873 
L 336.700815 92.615177 
L 337.571786 94.94608 
L 338.007271 96.889304 
L 338.442757 96.716272 
L 338.878243 97.602479 
L 339.313728 97.770586 
L 339.749214 97.641392 
L 340.1847 97.311937 
L 340.620185 97.430992 
L 341.055671 96.303585 
L 341.491157 95.910595 
L 341.926642 95.092751 
L 342.797614 95.208524 
L 343.233099 95.862413 
L 343.668585 96.036796 
L 344.10407 96.073874 
L 344.539556 95.986489 
L 344.975042 95.659255 
L 346.281499 97.587899 
L 346.716984 97.299577 
L 347.15247 97.961094 
L 347.587956 98.214848 
L 348.458927 97.47174 
L 348.894412 96.653317 
L 349.329898 96.135188 
L 349.765384 96.039306 
L 350.200869 96.7211 
L 350.636355 96.764841 
L 351.071841 96.94859 
L 351.942812 95.096034 
L 352.378298 95.062818 
L 352.813783 93.83248 
L 353.249269 93.470872 
L 353.684755 93.409654 
L 354.12024 94.533392 
L 354.555726 94.156721 
L 354.991211 93.071026 
L 355.426697 92.771504 
L 355.862183 93.201862 
L 356.297668 94.099559 
L 356.733154 92.243237 
L 357.604125 89.791251 
L 358.475097 91.859613 
L 358.910582 91.46363 
L 359.346068 92.268728 
L 359.781554 91.135044 
L 360.217039 90.656601 
L 360.652525 90.864393 
L 361.08801 90.844695 
L 361.523496 91.948253 
L 361.958982 93.766918 
L 362.394467 92.157784 
L 362.829953 91.047949 
L 363.265439 91.074213 
L 363.700924 92.489363 
L 364.13641 91.439684 
L 364.571896 92.732688 
L 365.007381 91.617929 
L 365.442867 91.604025 
L 365.878353 90.968482 
L 366.749324 91.228995 
L 367.184809 90.993394 
L 367.620295 89.806604 
L 368.055781 90.871635 
L 368.491266 90.95313 
L 368.926752 91.241065 
L 369.362238 91.196841 
L 369.797723 90.997739 
L 370.233209 91.621792 
L 370.668695 91.117374 
L 371.10418 89.905093 
L 371.539666 90.890271 
L 371.975151 89.703963 
L 372.410637 89.785651 
L 372.846123 88.710577 
L 373.281608 88.138859 
L 373.717094 87.115541 
L 374.15258 87.56183 
L 374.588065 87.384937 
L 375.023551 89.311552 
L 375.894522 87.000734 
L 376.330008 87.032598 
L 376.765494 88.106899 
L 378.507436 84.143012 
L 378.942922 85.148564 
L 379.378407 84.994748 
L 379.813893 85.788935 
L 380.249379 85.726076 
L 380.684864 86.111341 
L 381.12035 85.960614 
L 381.555836 87.260667 
L 381.991321 87.250915 
L 382.426807 87.411297 
L 382.862293 87.390441 
L 383.297778 88.135093 
L 384.168749 88.435388 
L 384.604235 88.458369 
L 385.039721 87.298421 
L 385.910692 87.262502 
L 386.346178 86.196408 
L 386.781663 87.458514 
L 387.217149 87.193366 
L 387.652635 87.887616 
L 388.08812 87.956751 
L 388.523606 89.114671 
L 388.959091 89.304311 
L 389.394577 88.926673 
L 390.265548 91.357706 
L 391.13652 89.116506 
L 391.572005 89.080297 
L 392.007491 89.717771 
L 392.442977 90.921169 
L 392.878462 90.887664 
L 393.313948 91.026514 
L 393.749434 90.824129 
L 394.184919 91.136589 
L 394.620405 91.026127 
L 395.05589 92.108829 
L 395.491376 92.132968 
L 395.926862 93.196937 
L 396.362347 93.181488 
L 396.797833 94.34665 
L 397.233319 92.581092 
L 397.668804 91.590314 
L 398.10429 92.02241 
L 398.539776 92.004064 
L 398.975261 90.850103 
L 399.846233 89.220498 
L 400.281718 88.714826 
L 401.152689 90.763008 
L 401.588175 90.90601 
L 402.023661 91.573706 
L 402.023661 91.573706 
" style="fill:none;opacity:0.8;stroke:#9467bd;stroke-linecap:square;stroke-width:1.5;"/>
   </g>
   <g id="patch_3">
    <path d="M 61.909375 288.430125 
L 61.909375 22.318125 
" style="fill:none;stroke:#000000;stroke-linecap:square;stroke-linejoin:miter;stroke-width:0.8;"/>
   </g>
   <g id="patch_4">
    <path d="M 419.029375 288.430125 
L 419.029375 22.318125 
" style="fill:none;stroke:#000000;stroke-linecap:square;stroke-linejoin:miter;stroke-width:0.8;"/>
   </g>
   <g id="patch_5">
    <path d="M 61.909375 288.430125 
L 419.029375 288.430125 
" style="fill:none;stroke:#000000;stroke-linecap:square;stroke-linejoin:miter;stroke-width:0.8;"/>
   </g>
   <g id="patch_6">
    <path d="M 61.909375 22.318125 
L 419.029375 22.318125 
" style="fill:none;stroke:#000000;stroke-linecap:square;stroke-linejoin:miter;stroke-width:0.8;"/>
   </g>
   <g id="text_19">
    <!-- Get children [root] -->
    <defs>
     <path d="M 59.515625 10.40625 
L 59.515625 29.984375 
L 43.40625 29.984375 
L 43.40625 38.09375 
L 69.28125 38.09375 
L 69.28125 6.78125 
Q 63.578125 2.734375 56.6875 0.65625 
Q 49.8125 -1.421875 42 -1.421875 
Q 24.90625 -1.421875 15.25 8.5625 
Q 5.609375 18.5625 5.609375 36.375 
Q 5.609375 54.25 15.25 64.234375 
Q 24.90625 74.21875 42 74.21875 
Q 49.125 74.21875 55.546875 72.453125 
Q 61.96875 70.703125 67.390625 67.28125 
L 67.390625 56.78125 
Q 61.921875 61.421875 55.765625 63.765625 
Q 49.609375 66.109375 42.828125 66.109375 
Q 29.4375 66.109375 22.71875 58.640625 
Q 16.015625 51.171875 16.015625 36.375 
Q 16.015625 21.625 22.71875 14.15625 
Q 29.4375 6.6875 42.828125 6.6875 
Q 48.046875 6.6875 52.140625 7.59375 
Q 56.25 8.5 59.515625 10.40625 
z
" id="DejaVuSans-47"/>
     <path d="M 54.890625 33.015625 
L 54.890625 0 
L 45.90625 0 
L 45.90625 32.71875 
Q 45.90625 40.484375 42.875 44.328125 
Q 39.84375 48.1875 33.796875 48.1875 
Q 26.515625 48.1875 22.3125 43.546875 
Q 18.109375 38.921875 18.109375 30.90625 
L 18.109375 0 
L 9.078125 0 
L 9.078125 75.984375 
L 18.109375 75.984375 
L 18.109375 46.1875 
Q 21.34375 51.125 25.703125 53.5625 
Q 30.078125 56 35.796875 56 
Q 45.21875 56 50.046875 50.171875 
Q 54.890625 44.34375 54.890625 33.015625 
z
" id="DejaVuSans-68"/>
     <path d="M 41.109375 46.296875 
Q 39.59375 47.171875 37.8125 47.578125 
Q 36.03125 48 33.890625 48 
Q 26.265625 48 22.1875 43.046875 
Q 18.109375 38.09375 18.109375 28.8125 
L 18.109375 0 
L 9.078125 0 
L 9.078125 54.6875 
L 18.109375 54.6875 
L 18.109375 46.1875 
Q 20.953125 51.171875 25.484375 53.578125 
Q 30.03125 56 36.53125 56 
Q 37.453125 56 38.578125 55.875 
Q 39.703125 55.765625 41.0625 55.515625 
z
" id="DejaVuSans-72"/>
     <path d="M 8.59375 75.984375 
L 29.296875 75.984375 
L 29.296875 69 
L 17.578125 69 
L 17.578125 -6.203125 
L 29.296875 -6.203125 
L 29.296875 -13.1875 
L 8.59375 -13.1875 
z
" id="DejaVuSans-5b"/>
     <path d="M 30.421875 75.984375 
L 30.421875 -13.1875 
L 9.71875 -13.1875 
L 9.71875 -6.203125 
L 21.390625 -6.203125 
L 21.390625 69 
L 9.71875 69 
L 9.71875 75.984375 
z
" id="DejaVuSans-5d"/>
    </defs>
    <g transform="translate(184.917813 16.318125)scale(0.12 -0.12)">
     <use xlink:href="#DejaVuSans-47"/>
     <use x="77.490234" xlink:href="#DejaVuSans-65"/>
     <use x="139.013672" xlink:href="#DejaVuSans-74"/>
     <use x="178.222656" xlink:href="#DejaVuSans-20"/>
     <use x="210.009766" xlink:href="#DejaVuSans-63"/>
     <use x="264.990234" xlink:href="#DejaVuSans-68"/>
     <use x="328.369141" xlink:href="#DejaVuSans-69"/>
     <use x="356.152344" xlink:href="#DejaVuSans-6c"/>
     <use x="383.935547" xlink:href="#DejaVuSans-64"/>
     <use x="447.412109" xlink:href="#DejaVuSans-72"/>
     <use x="488.494141" xlink:href="#DejaVuSans-65"/>
     <use x="550.017578" xlink:href="#DejaVuSans-6e"/>
     <use x="613.396484" xlink:href="#DejaVuSans-20"/>
     <use x="645.183594" xlink:href="#DejaVuSans-5b"/>
     <use x="684.197266" xlink:href="#DejaVuSans-72"/>
     <use x="725.279297" xlink:href="#DejaVuSans-6f"/>
     <use x="786.460938" xlink:href="#DejaVuSans-6f"/>
     <use x="847.642578" xlink:href="#DejaVuSans-74"/>
     <use x="886.851562" xlink:href="#DejaVuSans-5d"/>
    </g>
   </g>
   <g id="legend_1">
    <g id="patch_7">
     <path d="M 92.429688 365.802375 
L 380.989062 365.802375 
Q 382.989062 365.802375 382.989062 363.802375 
L 382.989062 335.446125 
Q 382.989062 333.446125 380.989062 333.446125 
L 92.429688 333.446125 
Q 90.429688 333.446125 90.429688 335.446125 
L 90.429688 363.802375 
Q 90.429688 365.802375 92.429688 365.802375 
z
" style="fill:#4c4c4c;opacity:0.5;stroke:#4c4c4c;stroke-linejoin:miter;"/>
    </g>
    <g id="patch_8">
     <path d="M 90.429688 363.802375 
L 378.989062 363.802375 
Q 380.989062 363.802375 380.989062 361.802375 
L 380.989062 333.446125 
Q 380.989062 331.446125 378.989062 331.446125 
L 90.429688 331.446125 
Q 88.429688 331.446125 88.429688 333.446125 
L 88.429688 361.802375 
Q 88.429688 363.802375 90.429688 363.802375 
z
" style="fill:#ffffff;stroke:#cccccc;stroke-linejoin:miter;"/>
    </g>
    <g id="line2d_22">
     <path d="M 92.429688 339.544562 
L 112.429688 339.544562 
" style="fill:none;opacity:0.8;stroke:#1f77b4;stroke-linecap:square;stroke-width:1.5;"/>
    </g>
    <g id="line2d_23"/>
    <g id="text_20">
     <!-- MPTT -->
     <defs>
      <path d="M 9.8125 72.90625 
L 24.515625 72.90625 
L 43.109375 23.296875 
L 61.8125 72.90625 
L 76.515625 72.90625 
L 76.515625 0 
L 66.890625 0 
L 66.890625 64.015625 
L 48.09375 14.015625 
L 38.1875 14.015625 
L 19.390625 64.015625 
L 19.390625 0 
L 9.8125 0 
z
" id="DejaVuSans-4d"/>
      <path d="M 19.671875 64.796875 
L 19.671875 37.40625 
L 32.078125 37.40625 
Q 38.96875 37.40625 42.71875 40.96875 
Q 46.484375 44.53125 46.484375 51.125 
Q 46.484375 57.671875 42.71875 61.234375 
Q 38.96875 64.796875 32.078125 64.796875 
z
M 9.8125 72.90625 
L 32.078125 72.90625 
Q 44.34375 72.90625 50.609375 67.359375 
Q 56.890625 61.8125 56.890625 51.125 
Q 56.890625 40.328125 50.609375 34.8125 
Q 44.34375 29.296875 32.078125 29.296875 
L 19.671875 29.296875 
L 19.671875 0 
L 9.8125 0 
z
" id="DejaVuSans-50"/>
      <path d="M -0.296875 72.90625 
L 61.375 72.90625 
L 61.375 64.59375 
L 35.5 64.59375 
L 35.5 0 
L 25.59375 0 
L 25.59375 64.59375 
L -0.296875 64.59375 
z
" id="DejaVuSans-54"/>
     </defs>
     <g transform="translate(120.429688 343.044562)scale(0.1 -0.1)">
      <use xlink:href="#DejaVuSans-4d"/>
      <use x="86.279297" xlink:href="#DejaVuSans-50"/>
      <use x="146.582031" xlink:href="#DejaVuSans-54"/>
      <use x="207.650391" xlink:href="#DejaVuSans-54"/>
     </g>
    </g>
    <g id="line2d_24">
     <path d="M 92.429688 354.222687 
L 112.429688 354.222687 
" style="fill:none;opacity:0.8;stroke:#ff7f0e;stroke-linecap:square;stroke-width:1.5;"/>
    </g>
    <g id="line2d_25"/>
    <g id="text_21">
     <!-- tree -->
     <g transform="translate(120.429688 357.722687)scale(0.1 -0.1)">
      <use xlink:href="#DejaVuSans-74"/>
      <use x="39.208984" xlink:href="#DejaVuSans-72"/>
      <use x="80.291016" xlink:href="#DejaVuSans-65"/>
      <use x="141.814453" xlink:href="#DejaVuSans-65"/>
     </g>
    </g>
    <g id="line2d_26">
     <path d="M 167.301562 339.544562 
L 187.301562 339.544562 
" style="fill:none;opacity:0.8;stroke:#2ca02c;stroke-linecap:square;stroke-width:1.5;"/>
    </g>
    <g id="line2d_27"/>
    <g id="text_22">
     <!-- treebeard AL -->
     <defs>
      <path d="M 9.8125 72.90625 
L 19.671875 72.90625 
L 19.671875 8.296875 
L 55.171875 8.296875 
L 55.171875 0 
L 9.8125 0 
z
" id="DejaVuSans-4c"/>
     </defs>
     <g transform="translate(195.301562 343.044562)scale(0.1 -0.1)">
      <use xlink:href="#DejaVuSans-74"/>
      <use x="39.208984" xlink:href="#DejaVuSans-72"/>
      <use x="80.291016" xlink:href="#DejaVuSans-65"/>
      <use x="141.814453" xlink:href="#DejaVuSans-65"/>
      <use x="203.337891" xlink:href="#DejaVuSans-62"/>
      <use x="266.814453" xlink:href="#DejaVuSans-65"/>
      <use x="328.337891" xlink:href="#DejaVuSans-61"/>
      <use x="389.617188" xlink:href="#DejaVuSans-72"/>
      <use x="430.714844" xlink:href="#DejaVuSans-64"/>
      <use x="494.191406" xlink:href="#DejaVuSans-20"/>
      <use x="525.978516" xlink:href="#DejaVuSans-41"/>
      <use x="594.386719" xlink:href="#DejaVuSans-4c"/>
     </g>
    </g>
    <g id="line2d_28">
     <path d="M 167.301562 354.222687 
L 187.301562 354.222687 
" style="fill:none;opacity:0.8;stroke:#d62728;stroke-linecap:square;stroke-width:1.5;"/>
    </g>
    <g id="line2d_29"/>
    <g id="text_23">
     <!-- treebeard MP -->
     <g transform="translate(195.301562 357.722687)scale(0.1 -0.1)">
      <use xlink:href="#DejaVuSans-74"/>
      <use x="39.208984" xlink:href="#DejaVuSans-72"/>
      <use x="80.291016" xlink:href="#DejaVuSans-65"/>
      <use x="141.814453" xlink:href="#DejaVuSans-65"/>
      <use x="203.337891" xlink:href="#DejaVuSans-62"/>
      <use x="266.814453" xlink:href="#DejaVuSans-65"/>
      <use x="328.337891" xlink:href="#DejaVuSans-61"/>
      <use x="389.617188" xlink:href="#DejaVuSans-72"/>
      <use x="430.714844" xlink:href="#DejaVuSans-64"/>
      <use x="494.191406" xlink:href="#DejaVuSans-20"/>
      <use x="525.978516" xlink:href="#DejaVuSans-4d"/>
      <use x="612.257812" xlink:href="#DejaVuSans-50"/>
     </g>
    </g>
    <g id="line2d_30">
     <path d="M 282.559375 339.544562 
L 302.559375 339.544562 
" style="fill:none;opacity:0.8;stroke:#9467bd;stroke-linecap:square;stroke-width:1.5;"/>
    </g>
    <g id="line2d_31"/>
    <g id="text_24">
     <!-- treebeard NS -->
     <defs>
      <path d="M 9.8125 72.90625 
L 23.09375 72.90625 
L 55.421875 11.921875 
L 55.421875 72.90625 
L 64.984375 72.90625 
L 64.984375 0 
L 51.703125 0 
L 19.390625 60.984375 
L 19.390625 0 
L 9.8125 0 
z
" id="DejaVuSans-4e"/>
      <path d="M 53.515625 70.515625 
L 53.515625 60.890625 
Q 47.90625 63.578125 42.921875 64.890625 
Q 37.9375 66.21875 33.296875 66.21875 
Q 25.25 66.21875 20.875 63.09375 
Q 16.5 59.96875 16.5 54.203125 
Q 16.5 49.359375 19.40625 46.890625 
Q 22.3125 44.4375 30.421875 42.921875 
L 36.375 41.703125 
Q 47.40625 39.59375 52.65625 34.296875 
Q 57.90625 29 57.90625 20.125 
Q 57.90625 9.515625 50.796875 4.046875 
Q 43.703125 -1.421875 29.984375 -1.421875 
Q 24.8125 -1.421875 18.96875 -0.25 
Q 13.140625 0.921875 6.890625 3.21875 
L 6.890625 13.375 
Q 12.890625 10.015625 18.65625 8.296875 
Q 24.421875 6.59375 29.984375 6.59375 
Q 38.421875 6.59375 43.015625 9.90625 
Q 47.609375 13.234375 47.609375 19.390625 
Q 47.609375 24.75 44.3125 27.78125 
Q 41.015625 30.8125 33.5 32.328125 
L 27.484375 33.5 
Q 16.453125 35.6875 11.515625 40.375 
Q 6.59375 45.0625 6.59375 53.421875 
Q 6.59375 63.09375 13.40625 68.65625 
Q 20.21875 74.21875 32.171875 74.21875 
Q 37.3125 74.21875 42.625 73.28125 
Q 47.953125 72.359375 53.515625 70.515625 
z
" id="DejaVuSans-53"/>
     </defs>
     <g transform="translate(310.559375 343.044562)scale(0.1 -0.1)">
      <use xlink:href="#DejaVuSans-74"/>
      <use x="39.208984" xlink:href="#DejaVuSans-72"/>
      <use x="80.291016" xlink:href="#DejaVuSans-65"/>
      <use x="141.814453" xlink:href="#DejaVuSans-65"/>
      <use x="203.337891" xlink:href="#DejaVuSans-62"/>
      <use x="266.814453" xlink:href="#DejaVuSans-65"/>
      <use x="328.337891" xlink:href="#DejaVuSans-61"/>
      <use x="389.617188" xlink:href="#DejaVuSans-72"/>
      <use x="430.714844" xlink:href="#DejaVuSans-64"/>
      <use x="494.191406" xlink:href="#DejaVuSans-20"/>
      <use x="525.978516" xlink:href="#DejaVuSans-4e"/>
      <use x="600.783203" xlink:href="#DejaVuSans-53"/>
     </g>
    </g>
   </g>
  </g>
 </g>
 <defs>
  <clipPath id="p1b64648953">
   <rect height="266.112" width="357.12" x="61.909375" y="22.318125"/>
  </clipPath>
 </defs>
</svg>
