<?xml version="1.0" encoding="utf-8" standalone="no"?>
<!DOCTYPE svg PUBLIC "-//W3C//DTD SVG 1.1//EN"
  "http://www.w3.org/Graphics/SVG/1.1/DTD/svg11.dtd">
<!-- Created with matplotlib (http://matplotlib.org/) -->
<svg height="371pt" version="1.1" viewBox="0 0 436 371" width="436pt" xmlns="http://www.w3.org/2000/svg" xmlns:xlink="http://www.w3.org/1999/xlink">
 <defs>
  <style type="text/css">
*{stroke-linecap:butt;stroke-linejoin:round;}
  </style>
 </defs>
 <g id="figure_1">
  <g id="patch_1">
   <path d="M 0 371.002375 
L 436.091875 371.002375 
L 436.091875 0 
L 0 0 
z
" style="fill:#ffffff;"/>
  </g>
  <g id="axes_1">
   <g id="patch_2">
    <path d="M 68.271875 288.430125 
L 425.391875 288.430125 
L 425.391875 22.318125 
L 68.271875 22.318125 
z
" style="fill:#ffffff;"/>
   </g>
   <g id="matplotlib.axis_1">
    <g id="xtick_1">
     <g id="line2d_1">
      <defs>
       <path d="M 0 0 
L 0 3.5 
" id="mbdfa71be93" style="stroke:#000000;stroke-width:0.8;"/>
      </defs>
      <g>
       <use style="stroke:#000000;stroke-width:0.8;" x="68.271875" xlink:href="#mbdfa71be93" y="288.430125"/>
      </g>
     </g>
     <g id="text_1">
      <!-- 0 -->
      <defs>
       <path d="M 31.78125 66.40625 
Q 24.171875 66.40625 20.328125 58.90625 
Q 16.5 51.421875 16.5 36.375 
Q 16.5 21.390625 20.328125 13.890625 
Q 24.171875 6.390625 31.78125 6.390625 
Q 39.453125 6.390625 43.28125 13.890625 
Q 47.125 21.390625 47.125 36.375 
Q 47.125 51.421875 43.28125 58.90625 
Q 39.453125 66.40625 31.78125 66.40625 
z
M 31.78125 74.21875 
Q 44.046875 74.21875 50.515625 64.515625 
Q 56.984375 54.828125 56.984375 36.375 
Q 56.984375 17.96875 50.515625 8.265625 
Q 44.046875 -1.421875 31.78125 -1.421875 
Q 19.53125 -1.421875 13.0625 8.265625 
Q 6.59375 17.96875 6.59375 36.375 
Q 6.59375 54.828125 13.0625 64.515625 
Q 19.53125 74.21875 31.78125 74.21875 
z
" id="DejaVuSans-30"/>
      </defs>
      <g transform="translate(65.090625 303.028562)scale(0.1 -0.1)">
       <use xlink:href="#DejaVuSans-30"/>
      </g>
     </g>
    </g>
    <g id="xtick_2">
     <g id="line2d_2">
      <g>
       <use style="stroke:#000000;stroke-width:0.8;" x="111.820439" xlink:href="#mbdfa71be93" y="288.430125"/>
      </g>
     </g>
     <g id="text_2">
      <!-- 500  -->
      <defs>
       <path d="M 10.796875 72.90625 
L 49.515625 72.90625 
L 49.515625 64.59375 
L 19.828125 64.59375 
L 19.828125 46.734375 
Q 21.96875 47.46875 24.109375 47.828125 
Q 26.265625 48.1875 28.421875 48.1875 
Q 40.625 48.1875 47.75 41.5 
Q 54.890625 34.8125 54.890625 23.390625 
Q 54.890625 11.625 47.5625 5.09375 
Q 40.234375 -1.421875 26.90625 -1.421875 
Q 22.3125 -1.421875 17.546875 -0.640625 
Q 12.796875 0.140625 7.71875 1.703125 
L 7.71875 11.625 
Q 12.109375 9.234375 16.796875 8.0625 
Q 21.484375 6.890625 26.703125 6.890625 
Q 35.15625 6.890625 40.078125 11.328125 
Q 45.015625 15.765625 45.015625 23.390625 
Q 45.015625 31 40.078125 35.4375 
Q 35.15625 39.890625 26.703125 39.890625 
Q 22.75 39.890625 18.8125 39.015625 
Q 14.890625 38.140625 10.796875 36.28125 
z
" id="DejaVuSans-35"/>
       <path id="DejaVuSans-20"/>
      </defs>
      <g transform="translate(100.687627 303.028562)scale(0.1 -0.1)">
       <use xlink:href="#DejaVuSans-35"/>
       <use x="63.623047" xlink:href="#DejaVuSans-30"/>
       <use x="127.246094" xlink:href="#DejaVuSans-30"/>
       <use x="190.869141" xlink:href="#DejaVuSans-20"/>
      </g>
     </g>
    </g>
    <g id="xtick_3">
     <g id="line2d_3">
      <g>
       <use style="stroke:#000000;stroke-width:0.8;" x="155.369003" xlink:href="#mbdfa71be93" y="288.430125"/>
      </g>
     </g>
     <g id="text_3">
      <!-- 1 k -->
      <defs>
       <path d="M 12.40625 8.296875 
L 28.515625 8.296875 
L 28.515625 63.921875 
L 10.984375 60.40625 
L 10.984375 69.390625 
L 28.421875 72.90625 
L 38.28125 72.90625 
L 38.28125 8.296875 
L 54.390625 8.296875 
L 54.390625 0 
L 12.40625 0 
z
" id="DejaVuSans-31"/>
       <path d="M 9.078125 75.984375 
L 18.109375 75.984375 
L 18.109375 31.109375 
L 44.921875 54.6875 
L 56.390625 54.6875 
L 27.390625 29.109375 
L 57.625 0 
L 45.90625 0 
L 18.109375 26.703125 
L 18.109375 0 
L 9.078125 0 
z
" id="DejaVuSans-6b"/>
      </defs>
      <g transform="translate(147.703378 303.028562)scale(0.1 -0.1)">
       <use xlink:href="#DejaVuSans-31"/>
       <use x="63.623047" xlink:href="#DejaVuSans-20"/>
       <use x="95.410156" xlink:href="#DejaVuSans-6b"/>
      </g>
     </g>
    </g>
    <g id="xtick_4">
     <g id="line2d_4">
      <g>
       <use style="stroke:#000000;stroke-width:0.8;" x="198.917567" xlink:href="#mbdfa71be93" y="288.430125"/>
      </g>
     </g>
     <g id="text_4">
      <!-- 1.5 k -->
      <defs>
       <path d="M 10.6875 12.40625 
L 21 12.40625 
L 21 0 
L 10.6875 0 
z
" id="DejaVuSans-2e"/>
      </defs>
      <g transform="translate(186.48163 303.028562)scale(0.1 -0.1)">
       <use xlink:href="#DejaVuSans-31"/>
       <use x="63.623047" xlink:href="#DejaVuSans-2e"/>
       <use x="95.410156" xlink:href="#DejaVuSans-35"/>
       <use x="159.033203" xlink:href="#DejaVuSans-20"/>
       <use x="190.820312" xlink:href="#DejaVuSans-6b"/>
      </g>
     </g>
    </g>
    <g id="xtick_5">
     <g id="line2d_5">
      <g>
       <use style="stroke:#000000;stroke-width:0.8;" x="242.466131" xlink:href="#mbdfa71be93" y="288.430125"/>
      </g>
     </g>
     <g id="text_5">
      <!-- 2 k -->
      <defs>
       <path d="M 19.1875 8.296875 
L 53.609375 8.296875 
L 53.609375 0 
L 7.328125 0 
L 7.328125 8.296875 
Q 12.9375 14.109375 22.625 23.890625 
Q 32.328125 33.6875 34.8125 36.53125 
Q 39.546875 41.84375 41.421875 45.53125 
Q 43.3125 49.21875 43.3125 52.78125 
Q 43.3125 58.59375 39.234375 62.25 
Q 35.15625 65.921875 28.609375 65.921875 
Q 23.96875 65.921875 18.8125 64.3125 
Q 13.671875 62.703125 7.8125 59.421875 
L 7.8125 69.390625 
Q 13.765625 71.78125 18.9375 73 
Q 24.125 74.21875 28.421875 74.21875 
Q 39.75 74.21875 46.484375 68.546875 
Q 53.21875 62.890625 53.21875 53.421875 
Q 53.21875 48.921875 51.53125 44.890625 
Q 49.859375 40.875 45.40625 35.40625 
Q 44.1875 33.984375 37.640625 27.21875 
Q 31.109375 20.453125 19.1875 8.296875 
z
" id="DejaVuSans-32"/>
      </defs>
      <g transform="translate(234.800506 303.028562)scale(0.1 -0.1)">
       <use xlink:href="#DejaVuSans-32"/>
       <use x="63.623047" xlink:href="#DejaVuSans-20"/>
       <use x="95.410156" xlink:href="#DejaVuSans-6b"/>
      </g>
     </g>
    </g>
    <g id="xtick_6">
     <g id="line2d_6">
      <g>
       <use style="stroke:#000000;stroke-width:0.8;" x="286.014696" xlink:href="#mbdfa71be93" y="288.430125"/>
      </g>
     </g>
     <g id="text_6">
      <!-- 2.5 k -->
      <g transform="translate(273.578758 303.028562)scale(0.1 -0.1)">
       <use xlink:href="#DejaVuSans-32"/>
       <use x="63.623047" xlink:href="#DejaVuSans-2e"/>
       <use x="95.410156" xlink:href="#DejaVuSans-35"/>
       <use x="159.033203" xlink:href="#DejaVuSans-20"/>
       <use x="190.820312" xlink:href="#DejaVuSans-6b"/>
      </g>
     </g>
    </g>
    <g id="xtick_7">
     <g id="line2d_7">
      <g>
       <use style="stroke:#000000;stroke-width:0.8;" x="329.56326" xlink:href="#mbdfa71be93" y="288.430125"/>
      </g>
     </g>
     <g id="text_7">
      <!-- 3 k -->
      <defs>
       <path d="M 40.578125 39.3125 
Q 47.65625 37.796875 51.625 33 
Q 55.609375 28.21875 55.609375 21.1875 
Q 55.609375 10.40625 48.1875 4.484375 
Q 40.765625 -1.421875 27.09375 -1.421875 
Q 22.515625 -1.421875 17.65625 -0.515625 
Q 12.796875 0.390625 7.625 2.203125 
L 7.625 11.71875 
Q 11.71875 9.328125 16.59375 8.109375 
Q 21.484375 6.890625 26.8125 6.890625 
Q 36.078125 6.890625 40.9375 10.546875 
Q 45.796875 14.203125 45.796875 21.1875 
Q 45.796875 27.640625 41.28125 31.265625 
Q 36.765625 34.90625 28.71875 34.90625 
L 20.21875 34.90625 
L 20.21875 43.015625 
L 29.109375 43.015625 
Q 36.375 43.015625 40.234375 45.921875 
Q 44.09375 48.828125 44.09375 54.296875 
Q 44.09375 59.90625 40.109375 62.90625 
Q 36.140625 65.921875 28.71875 65.921875 
Q 24.65625 65.921875 20.015625 65.03125 
Q 15.375 64.15625 9.8125 62.3125 
L 9.8125 71.09375 
Q 15.4375 72.65625 20.34375 73.4375 
Q 25.25 74.21875 29.59375 74.21875 
Q 40.828125 74.21875 47.359375 69.109375 
Q 53.90625 64.015625 53.90625 55.328125 
Q 53.90625 49.265625 50.4375 45.09375 
Q 46.96875 40.921875 40.578125 39.3125 
z
" id="DejaVuSans-33"/>
      </defs>
      <g transform="translate(321.897635 303.028562)scale(0.1 -0.1)">
       <use xlink:href="#DejaVuSans-33"/>
       <use x="63.623047" xlink:href="#DejaVuSans-20"/>
       <use x="95.410156" xlink:href="#DejaVuSans-6b"/>
      </g>
     </g>
    </g>
    <g id="xtick_8">
     <g id="line2d_8">
      <g>
       <use style="stroke:#000000;stroke-width:0.8;" x="373.111824" xlink:href="#mbdfa71be93" y="288.430125"/>
      </g>
     </g>
     <g id="text_8">
      <!-- 3.5 k -->
      <g transform="translate(360.675886 303.028562)scale(0.1 -0.1)">
       <use xlink:href="#DejaVuSans-33"/>
       <use x="63.623047" xlink:href="#DejaVuSans-2e"/>
       <use x="95.410156" xlink:href="#DejaVuSans-35"/>
       <use x="159.033203" xlink:href="#DejaVuSans-20"/>
       <use x="190.820312" xlink:href="#DejaVuSans-6b"/>
      </g>
     </g>
    </g>
    <g id="xtick_9">
     <g id="line2d_9">
      <g>
       <use style="stroke:#000000;stroke-width:0.8;" x="416.660388" xlink:href="#mbdfa71be93" y="288.430125"/>
      </g>
     </g>
     <g id="text_9">
      <!-- 4 k -->
      <defs>
       <path d="M 37.796875 64.3125 
L 12.890625 25.390625 
L 37.796875 25.390625 
z
M 35.203125 72.90625 
L 47.609375 72.90625 
L 47.609375 25.390625 
L 58.015625 25.390625 
L 58.015625 17.1875 
L 47.609375 17.1875 
L 47.609375 0 
L 37.796875 0 
L 37.796875 17.1875 
L 4.890625 17.1875 
L 4.890625 26.703125 
z
" id="DejaVuSans-34"/>
      </defs>
      <g transform="translate(408.994763 303.028562)scale(0.1 -0.1)">
       <use xlink:href="#DejaVuSans-34"/>
       <use x="63.623047" xlink:href="#DejaVuSans-20"/>
       <use x="95.410156" xlink:href="#DejaVuSans-6b"/>
      </g>
     </g>
    </g>
    <g id="text_10">
     <!-- Amount of objects in table -->
     <defs>
      <path d="M 34.1875 63.1875 
L 20.796875 26.90625 
L 47.609375 26.90625 
z
M 28.609375 72.90625 
L 39.796875 72.90625 
L 67.578125 0 
L 57.328125 0 
L 50.6875 18.703125 
L 17.828125 18.703125 
L 11.1875 0 
L 0.78125 0 
z
" id="DejaVuSans-41"/>
      <path d="M 52 44.1875 
Q 55.375 50.25 60.0625 53.125 
Q 64.75 56 71.09375 56 
Q 79.640625 56 84.28125 50.015625 
Q 88.921875 44.046875 88.921875 33.015625 
L 88.921875 0 
L 79.890625 0 
L 79.890625 32.71875 
Q 79.890625 40.578125 77.09375 44.375 
Q 74.3125 48.1875 68.609375 48.1875 
Q 61.625 48.1875 57.5625 43.546875 
Q 53.515625 38.921875 53.515625 30.90625 
L 53.515625 0 
L 44.484375 0 
L 44.484375 32.71875 
Q 44.484375 40.625 41.703125 44.40625 
Q 38.921875 48.1875 33.109375 48.1875 
Q 26.21875 48.1875 22.15625 43.53125 
Q 18.109375 38.875 18.109375 30.90625 
L 18.109375 0 
L 9.078125 0 
L 9.078125 54.6875 
L 18.109375 54.6875 
L 18.109375 46.1875 
Q 21.1875 51.21875 25.484375 53.609375 
Q 29.78125 56 35.6875 56 
Q 41.65625 56 45.828125 52.96875 
Q 50 49.953125 52 44.1875 
z
" id="DejaVuSans-6d"/>
      <path d="M 30.609375 48.390625 
Q 23.390625 48.390625 19.1875 42.75 
Q 14.984375 37.109375 14.984375 27.296875 
Q 14.984375 17.484375 19.15625 11.84375 
Q 23.34375 6.203125 30.609375 6.203125 
Q 37.796875 6.203125 41.984375 11.859375 
Q 46.1875 17.53125 46.1875 27.296875 
Q 46.1875 37.015625 41.984375 42.703125 
Q 37.796875 48.390625 30.609375 48.390625 
z
M 30.609375 56 
Q 42.328125 56 49.015625 48.375 
Q 55.71875 40.765625 55.71875 27.296875 
Q 55.71875 13.875 49.015625 6.21875 
Q 42.328125 -1.421875 30.609375 -1.421875 
Q 18.84375 -1.421875 12.171875 6.21875 
Q 5.515625 13.875 5.515625 27.296875 
Q 5.515625 40.765625 12.171875 48.375 
Q 18.84375 56 30.609375 56 
z
" id="DejaVuSans-6f"/>
      <path d="M 8.5 21.578125 
L 8.5 54.6875 
L 17.484375 54.6875 
L 17.484375 21.921875 
Q 17.484375 14.15625 20.5 10.265625 
Q 23.53125 6.390625 29.59375 6.390625 
Q 36.859375 6.390625 41.078125 11.03125 
Q 45.3125 15.671875 45.3125 23.6875 
L 45.3125 54.6875 
L 54.296875 54.6875 
L 54.296875 0 
L 45.3125 0 
L 45.3125 8.40625 
Q 42.046875 3.421875 37.71875 1 
Q 33.40625 -1.421875 27.6875 -1.421875 
Q 18.265625 -1.421875 13.375 4.4375 
Q 8.5 10.296875 8.5 21.578125 
z
M 31.109375 56 
z
" id="DejaVuSans-75"/>
      <path d="M 54.890625 33.015625 
L 54.890625 0 
L 45.90625 0 
L 45.90625 32.71875 
Q 45.90625 40.484375 42.875 44.328125 
Q 39.84375 48.1875 33.796875 48.1875 
Q 26.515625 48.1875 22.3125 43.546875 
Q 18.109375 38.921875 18.109375 30.90625 
L 18.109375 0 
L 9.078125 0 
L 9.078125 54.6875 
L 18.109375 54.6875 
L 18.109375 46.1875 
Q 21.34375 51.125 25.703125 53.5625 
Q 30.078125 56 35.796875 56 
Q 45.21875 56 50.046875 50.171875 
Q 54.890625 44.34375 54.890625 33.015625 
z
" id="DejaVuSans-6e"/>
      <path d="M 18.3125 70.21875 
L 18.3125 54.6875 
L 36.8125 54.6875 
L 36.8125 47.703125 
L 18.3125 47.703125 
L 18.3125 18.015625 
Q 18.3125 11.328125 20.140625 9.421875 
Q 21.96875 7.515625 27.59375 7.515625 
L 36.8125 7.515625 
L 36.8125 0 
L 27.59375 0 
Q 17.1875 0 13.234375 3.875 
Q 9.28125 7.765625 9.28125 18.015625 
L 9.28125 47.703125 
L 2.6875 47.703125 
L 2.6875 54.6875 
L 9.28125 54.6875 
L 9.28125 70.21875 
z
" id="DejaVuSans-74"/>
      <path d="M 37.109375 75.984375 
L 37.109375 68.5 
L 28.515625 68.5 
Q 23.6875 68.5 21.796875 66.546875 
Q 19.921875 64.59375 19.921875 59.515625 
L 19.921875 54.6875 
L 34.71875 54.6875 
L 34.71875 47.703125 
L 19.921875 47.703125 
L 19.921875 0 
L 10.890625 0 
L 10.890625 47.703125 
L 2.296875 47.703125 
L 2.296875 54.6875 
L 10.890625 54.6875 
L 10.890625 58.5 
Q 10.890625 67.625 15.140625 71.796875 
Q 19.390625 75.984375 28.609375 75.984375 
z
" id="DejaVuSans-66"/>
      <path d="M 48.6875 27.296875 
Q 48.6875 37.203125 44.609375 42.84375 
Q 40.53125 48.484375 33.40625 48.484375 
Q 26.265625 48.484375 22.1875 42.84375 
Q 18.109375 37.203125 18.109375 27.296875 
Q 18.109375 17.390625 22.1875 11.75 
Q 26.265625 6.109375 33.40625 6.109375 
Q 40.53125 6.109375 44.609375 11.75 
Q 48.6875 17.390625 48.6875 27.296875 
z
M 18.109375 46.390625 
Q 20.953125 51.265625 25.265625 53.625 
Q 29.59375 56 35.59375 56 
Q 45.5625 56 51.78125 48.09375 
Q 58.015625 40.1875 58.015625 27.296875 
Q 58.015625 14.40625 51.78125 6.484375 
Q 45.5625 -1.421875 35.59375 -1.421875 
Q 29.59375 -1.421875 25.265625 0.953125 
Q 20.953125 3.328125 18.109375 8.203125 
L 18.109375 0 
L 9.078125 0 
L 9.078125 75.984375 
L 18.109375 75.984375 
z
" id="DejaVuSans-62"/>
      <path d="M 9.421875 54.6875 
L 18.40625 54.6875 
L 18.40625 -0.984375 
Q 18.40625 -11.421875 14.421875 -16.109375 
Q 10.453125 -20.796875 1.609375 -20.796875 
L -1.8125 -20.796875 
L -1.8125 -13.1875 
L 0.59375 -13.1875 
Q 5.71875 -13.1875 7.5625 -10.8125 
Q 9.421875 -8.453125 9.421875 -0.984375 
z
M 9.421875 75.984375 
L 18.40625 75.984375 
L 18.40625 64.59375 
L 9.421875 64.59375 
z
" id="DejaVuSans-6a"/>
      <path d="M 56.203125 29.59375 
L 56.203125 25.203125 
L 14.890625 25.203125 
Q 15.484375 15.921875 20.484375 11.0625 
Q 25.484375 6.203125 34.421875 6.203125 
Q 39.59375 6.203125 44.453125 7.46875 
Q 49.3125 8.734375 54.109375 11.28125 
L 54.109375 2.78125 
Q 49.265625 0.734375 44.1875 -0.34375 
Q 39.109375 -1.421875 33.890625 -1.421875 
Q 20.796875 -1.421875 13.15625 6.1875 
Q 5.515625 13.8125 5.515625 26.8125 
Q 5.515625 40.234375 12.765625 48.109375 
Q 20.015625 56 32.328125 56 
Q 43.359375 56 49.78125 48.890625 
Q 56.203125 41.796875 56.203125 29.59375 
z
M 47.21875 32.234375 
Q 47.125 39.59375 43.09375 43.984375 
Q 39.0625 48.390625 32.421875 48.390625 
Q 24.90625 48.390625 20.390625 44.140625 
Q 15.875 39.890625 15.1875 32.171875 
z
" id="DejaVuSans-65"/>
      <path d="M 48.78125 52.59375 
L 48.78125 44.1875 
Q 44.96875 46.296875 41.140625 47.34375 
Q 37.3125 48.390625 33.40625 48.390625 
Q 24.65625 48.390625 19.8125 42.84375 
Q 14.984375 37.3125 14.984375 27.296875 
Q 14.984375 17.28125 19.8125 11.734375 
Q 24.65625 6.203125 33.40625 6.203125 
Q 37.3125 6.203125 41.140625 7.25 
Q 44.96875 8.296875 48.78125 10.40625 
L 48.78125 2.09375 
Q 45.015625 0.34375 40.984375 -0.53125 
Q 36.96875 -1.421875 32.421875 -1.421875 
Q 20.0625 -1.421875 12.78125 6.34375 
Q 5.515625 14.109375 5.515625 27.296875 
Q 5.515625 40.671875 12.859375 48.328125 
Q 20.21875 56 33.015625 56 
Q 37.15625 56 41.109375 55.140625 
Q 45.0625 54.296875 48.78125 52.59375 
z
" id="DejaVuSans-63"/>
      <path d="M 44.28125 53.078125 
L 44.28125 44.578125 
Q 40.484375 46.53125 36.375 47.5 
Q 32.28125 48.484375 27.875 48.484375 
Q 21.1875 48.484375 17.84375 46.4375 
Q 14.5 44.390625 14.5 40.28125 
Q 14.5 37.15625 16.890625 35.375 
Q 19.28125 33.59375 26.515625 31.984375 
L 29.59375 31.296875 
Q 39.15625 29.25 43.1875 25.515625 
Q 47.21875 21.78125 47.21875 15.09375 
Q 47.21875 7.46875 41.1875 3.015625 
Q 35.15625 -1.421875 24.609375 -1.421875 
Q 20.21875 -1.421875 15.453125 -0.5625 
Q 10.6875 0.296875 5.421875 2 
L 5.421875 11.28125 
Q 10.40625 8.6875 15.234375 7.390625 
Q 20.0625 6.109375 24.8125 6.109375 
Q 31.15625 6.109375 34.5625 8.28125 
Q 37.984375 10.453125 37.984375 14.40625 
Q 37.984375 18.0625 35.515625 20.015625 
Q 33.0625 21.96875 24.703125 23.78125 
L 21.578125 24.515625 
Q 13.234375 26.265625 9.515625 29.90625 
Q 5.8125 33.546875 5.8125 39.890625 
Q 5.8125 47.609375 11.28125 51.796875 
Q 16.75 56 26.8125 56 
Q 31.78125 56 36.171875 55.265625 
Q 40.578125 54.546875 44.28125 53.078125 
z
" id="DejaVuSans-73"/>
      <path d="M 9.421875 54.6875 
L 18.40625 54.6875 
L 18.40625 0 
L 9.421875 0 
z
M 9.421875 75.984375 
L 18.40625 75.984375 
L 18.40625 64.59375 
L 9.421875 64.59375 
z
" id="DejaVuSans-69"/>
      <path d="M 34.28125 27.484375 
Q 23.390625 27.484375 19.1875 25 
Q 14.984375 22.515625 14.984375 16.5 
Q 14.984375 11.71875 18.140625 8.90625 
Q 21.296875 6.109375 26.703125 6.109375 
Q 34.1875 6.109375 38.703125 11.40625 
Q 43.21875 16.703125 43.21875 25.484375 
L 43.21875 27.484375 
z
M 52.203125 31.203125 
L 52.203125 0 
L 43.21875 0 
L 43.21875 8.296875 
Q 40.140625 3.328125 35.546875 0.953125 
Q 30.953125 -1.421875 24.3125 -1.421875 
Q 15.921875 -1.421875 10.953125 3.296875 
Q 6 8.015625 6 15.921875 
Q 6 25.140625 12.171875 29.828125 
Q 18.359375 34.515625 30.609375 34.515625 
L 43.21875 34.515625 
L 43.21875 35.40625 
Q 43.21875 41.609375 39.140625 45 
Q 35.0625 48.390625 27.6875 48.390625 
Q 23 48.390625 18.546875 47.265625 
Q 14.109375 46.140625 10.015625 43.890625 
L 10.015625 52.203125 
Q 14.9375 54.109375 19.578125 55.046875 
Q 24.21875 56 28.609375 56 
Q 40.484375 56 46.34375 49.84375 
Q 52.203125 43.703125 52.203125 31.203125 
z
" id="DejaVuSans-61"/>
      <path d="M 9.421875 75.984375 
L 18.40625 75.984375 
L 18.40625 0 
L 9.421875 0 
z
" id="DejaVuSans-6c"/>
     </defs>
     <g transform="translate(180.773281 316.706687)scale(0.1 -0.1)">
      <use xlink:href="#DejaVuSans-41"/>
      <use x="68.408203" xlink:href="#DejaVuSans-6d"/>
      <use x="165.820312" xlink:href="#DejaVuSans-6f"/>
      <use x="227.001953" xlink:href="#DejaVuSans-75"/>
      <use x="290.380859" xlink:href="#DejaVuSans-6e"/>
      <use x="353.759766" xlink:href="#DejaVuSans-74"/>
      <use x="392.96875" xlink:href="#DejaVuSans-20"/>
      <use x="424.755859" xlink:href="#DejaVuSans-6f"/>
      <use x="485.9375" xlink:href="#DejaVuSans-66"/>
      <use x="521.142578" xlink:href="#DejaVuSans-20"/>
      <use x="552.929688" xlink:href="#DejaVuSans-6f"/>
      <use x="614.111328" xlink:href="#DejaVuSans-62"/>
      <use x="677.587891" xlink:href="#DejaVuSans-6a"/>
      <use x="705.371094" xlink:href="#DejaVuSans-65"/>
      <use x="766.894531" xlink:href="#DejaVuSans-63"/>
      <use x="821.875" xlink:href="#DejaVuSans-74"/>
      <use x="861.083984" xlink:href="#DejaVuSans-73"/>
      <use x="913.183594" xlink:href="#DejaVuSans-20"/>
      <use x="944.970703" xlink:href="#DejaVuSans-69"/>
      <use x="972.753906" xlink:href="#DejaVuSans-6e"/>
      <use x="1036.132812" xlink:href="#DejaVuSans-20"/>
      <use x="1067.919922" xlink:href="#DejaVuSans-74"/>
      <use x="1107.128906" xlink:href="#DejaVuSans-61"/>
      <use x="1168.408203" xlink:href="#DejaVuSans-62"/>
      <use x="1231.884766" xlink:href="#DejaVuSans-6c"/>
      <use x="1259.667969" xlink:href="#DejaVuSans-65"/>
     </g>
    </g>
   </g>
   <g id="matplotlib.axis_2">
    <g id="ytick_1">
     <g id="line2d_10">
      <defs>
       <path d="M 0 0 
L -3.5 0 
" id="mfe113791b2" style="stroke:#000000;stroke-width:0.8;"/>
      </defs>
      <g>
       <use style="stroke:#000000;stroke-width:0.8;" x="68.271875" xlink:href="#mfe113791b2" y="288.430125"/>
      </g>
     </g>
     <g id="text_11">
      <!-- 0 -->
      <g transform="translate(54.909375 292.229344)scale(0.1 -0.1)">
       <use xlink:href="#DejaVuSans-30"/>
      </g>
     </g>
    </g>
    <g id="ytick_2">
     <g id="line2d_11">
      <g>
       <use style="stroke:#000000;stroke-width:0.8;" x="68.271875" xlink:href="#mfe113791b2" y="255.397596"/>
      </g>
     </g>
     <g id="text_12">
      <!-- 250 µs -->
      <defs>
       <path d="M 8.5 -20.796875 
L 8.5 54.6875 
L 17.484375 54.6875 
L 17.484375 20.703125 
Q 17.484375 13.625 20.84375 10 
Q 24.21875 6.390625 30.8125 6.390625 
Q 38.03125 6.390625 41.671875 10.484375 
Q 45.3125 14.59375 45.3125 22.796875 
L 45.3125 54.6875 
L 54.296875 54.6875 
L 54.296875 12.59375 
Q 54.296875 9.671875 55.140625 8.28125 
Q 56 6.890625 57.8125 6.890625 
Q 58.25 6.890625 59.03125 7.15625 
Q 59.8125 7.421875 61.1875 8.015625 
L 61.1875 0.78125 
Q 59.1875 -0.34375 57.390625 -0.875 
Q 55.609375 -1.421875 53.90625 -1.421875 
Q 50.53125 -1.421875 48.53125 0.484375 
Q 46.53125 2.390625 45.796875 6.296875 
Q 43.359375 2.4375 39.8125 0.5 
Q 36.28125 -1.421875 31.5 -1.421875 
Q 26.515625 -1.421875 23.015625 0.484375 
Q 19.53125 2.390625 17.484375 6.203125 
L 17.484375 -20.796875 
z
" id="DejaVuSans-b5"/>
      </defs>
      <g transform="translate(27.434375 259.196815)scale(0.1 -0.1)">
       <use xlink:href="#DejaVuSans-32"/>
       <use x="63.623047" xlink:href="#DejaVuSans-35"/>
       <use x="127.246094" xlink:href="#DejaVuSans-30"/>
       <use x="190.869141" xlink:href="#DejaVuSans-20"/>
       <use x="222.65625" xlink:href="#DejaVuSans-b5"/>
       <use x="286.279297" xlink:href="#DejaVuSans-73"/>
      </g>
     </g>
    </g>
    <g id="ytick_3">
     <g id="line2d_12">
      <g>
       <use style="stroke:#000000;stroke-width:0.8;" x="68.271875" xlink:href="#mfe113791b2" y="222.365067"/>
      </g>
     </g>
     <g id="text_13">
      <!-- 500 µs -->
      <g transform="translate(27.434375 226.164285)scale(0.1 -0.1)">
       <use xlink:href="#DejaVuSans-35"/>
       <use x="63.623047" xlink:href="#DejaVuSans-30"/>
       <use x="127.246094" xlink:href="#DejaVuSans-30"/>
       <use x="190.869141" xlink:href="#DejaVuSans-20"/>
       <use x="222.65625" xlink:href="#DejaVuSans-b5"/>
       <use x="286.279297" xlink:href="#DejaVuSans-73"/>
      </g>
     </g>
    </g>
    <g id="ytick_4">
     <g id="line2d_13">
      <g>
       <use style="stroke:#000000;stroke-width:0.8;" x="68.271875" xlink:href="#mfe113791b2" y="189.332538"/>
      </g>
     </g>
     <g id="text_14">
      <!-- 750 µs -->
      <defs>
       <path d="M 8.203125 72.90625 
L 55.078125 72.90625 
L 55.078125 68.703125 
L 28.609375 0 
L 18.3125 0 
L 43.21875 64.59375 
L 8.203125 64.59375 
z
" id="DejaVuSans-37"/>
      </defs>
      <g transform="translate(27.434375 193.131756)scale(0.1 -0.1)">
       <use xlink:href="#DejaVuSans-37"/>
       <use x="63.623047" xlink:href="#DejaVuSans-35"/>
       <use x="127.246094" xlink:href="#DejaVuSans-30"/>
       <use x="190.869141" xlink:href="#DejaVuSans-20"/>
       <use x="222.65625" xlink:href="#DejaVuSans-b5"/>
       <use x="286.279297" xlink:href="#DejaVuSans-73"/>
      </g>
     </g>
    </g>
    <g id="ytick_5">
     <g id="line2d_14">
      <g>
       <use style="stroke:#000000;stroke-width:0.8;" x="68.271875" xlink:href="#mfe113791b2" y="156.300008"/>
      </g>
     </g>
     <g id="text_15">
      <!-- 1 ms -->
      <g transform="translate(36.78125 160.099227)scale(0.1 -0.1)">
       <use xlink:href="#DejaVuSans-31"/>
       <use x="63.623047" xlink:href="#DejaVuSans-20"/>
       <use x="95.410156" xlink:href="#DejaVuSans-6d"/>
       <use x="192.822266" xlink:href="#DejaVuSans-73"/>
      </g>
     </g>
    </g>
    <g id="ytick_6">
     <g id="line2d_15">
      <g>
       <use style="stroke:#000000;stroke-width:0.8;" x="68.271875" xlink:href="#mfe113791b2" y="123.267479"/>
      </g>
     </g>
     <g id="text_16">
      <!-- 1.25 ms -->
      <g transform="translate(20.878125 127.066698)scale(0.1 -0.1)">
       <use xlink:href="#DejaVuSans-31"/>
       <use x="63.623047" xlink:href="#DejaVuSans-2e"/>
       <use x="95.410156" xlink:href="#DejaVuSans-32"/>
       <use x="159.033203" xlink:href="#DejaVuSans-35"/>
       <use x="222.65625" xlink:href="#DejaVuSans-20"/>
       <use x="254.443359" xlink:href="#DejaVuSans-6d"/>
       <use x="351.855469" xlink:href="#DejaVuSans-73"/>
      </g>
     </g>
    </g>
    <g id="ytick_7">
     <g id="line2d_16">
      <g>
       <use style="stroke:#000000;stroke-width:0.8;" x="68.271875" xlink:href="#mfe113791b2" y="90.23495"/>
      </g>
     </g>
     <g id="text_17">
      <!-- 1.5 ms -->
      <g transform="translate(27.240625 94.034169)scale(0.1 -0.1)">
       <use xlink:href="#DejaVuSans-31"/>
       <use x="63.623047" xlink:href="#DejaVuSans-2e"/>
       <use x="95.410156" xlink:href="#DejaVuSans-35"/>
       <use x="159.033203" xlink:href="#DejaVuSans-20"/>
       <use x="190.820312" xlink:href="#DejaVuSans-6d"/>
       <use x="288.232422" xlink:href="#DejaVuSans-73"/>
      </g>
     </g>
    </g>
    <g id="ytick_8">
     <g id="line2d_17">
      <g>
       <use style="stroke:#000000;stroke-width:0.8;" x="68.271875" xlink:href="#mfe113791b2" y="57.202421"/>
      </g>
     </g>
     <g id="text_18">
      <!-- 1.75 ms -->
      <g transform="translate(20.878125 61.00164)scale(0.1 -0.1)">
       <use xlink:href="#DejaVuSans-31"/>
       <use x="63.623047" xlink:href="#DejaVuSans-2e"/>
       <use x="95.410156" xlink:href="#DejaVuSans-37"/>
       <use x="159.033203" xlink:href="#DejaVuSans-35"/>
       <use x="222.65625" xlink:href="#DejaVuSans-20"/>
       <use x="254.443359" xlink:href="#DejaVuSans-6d"/>
       <use x="351.855469" xlink:href="#DejaVuSans-73"/>
      </g>
     </g>
    </g>
    <g id="ytick_9">
     <g id="line2d_18">
      <g>
       <use style="stroke:#000000;stroke-width:0.8;" x="68.271875" xlink:href="#mfe113791b2" y="24.169892"/>
      </g>
     </g>
     <g id="text_19">
      <!-- 2 ms -->
      <g transform="translate(36.78125 27.96911)scale(0.1 -0.1)">
       <use xlink:href="#DejaVuSans-32"/>
       <use x="63.623047" xlink:href="#DejaVuSans-20"/>
       <use x="95.410156" xlink:href="#DejaVuSans-6d"/>
       <use x="192.822266" xlink:href="#DejaVuSans-73"/>
      </g>
     </g>
    </g>
    <g id="text_20">
     <!-- Read latency (s) -->
     <defs>
      <path d="M 44.390625 34.1875 
Q 47.5625 33.109375 50.5625 29.59375 
Q 53.5625 26.078125 56.59375 19.921875 
L 66.609375 0 
L 56 0 
L 46.6875 18.703125 
Q 43.0625 26.03125 39.671875 28.421875 
Q 36.28125 30.8125 30.421875 30.8125 
L 19.671875 30.8125 
L 19.671875 0 
L 9.8125 0 
L 9.8125 72.90625 
L 32.078125 72.90625 
Q 44.578125 72.90625 50.734375 67.671875 
Q 56.890625 62.453125 56.890625 51.90625 
Q 56.890625 45.015625 53.6875 40.46875 
Q 50.484375 35.9375 44.390625 34.1875 
z
M 19.671875 64.796875 
L 19.671875 38.921875 
L 32.078125 38.921875 
Q 39.203125 38.921875 42.84375 42.21875 
Q 46.484375 45.515625 46.484375 51.90625 
Q 46.484375 58.296875 42.84375 61.546875 
Q 39.203125 64.796875 32.078125 64.796875 
z
" id="DejaVuSans-52"/>
      <path d="M 45.40625 46.390625 
L 45.40625 75.984375 
L 54.390625 75.984375 
L 54.390625 0 
L 45.40625 0 
L 45.40625 8.203125 
Q 42.578125 3.328125 38.25 0.953125 
Q 33.9375 -1.421875 27.875 -1.421875 
Q 17.96875 -1.421875 11.734375 6.484375 
Q 5.515625 14.40625 5.515625 27.296875 
Q 5.515625 40.1875 11.734375 48.09375 
Q 17.96875 56 27.875 56 
Q 33.9375 56 38.25 53.625 
Q 42.578125 51.265625 45.40625 46.390625 
z
M 14.796875 27.296875 
Q 14.796875 17.390625 18.875 11.75 
Q 22.953125 6.109375 30.078125 6.109375 
Q 37.203125 6.109375 41.296875 11.75 
Q 45.40625 17.390625 45.40625 27.296875 
Q 45.40625 37.203125 41.296875 42.84375 
Q 37.203125 48.484375 30.078125 48.484375 
Q 22.953125 48.484375 18.875 42.84375 
Q 14.796875 37.203125 14.796875 27.296875 
z
" id="DejaVuSans-64"/>
      <path d="M 32.171875 -5.078125 
Q 28.375 -14.84375 24.75 -17.8125 
Q 21.140625 -20.796875 15.09375 -20.796875 
L 7.90625 -20.796875 
L 7.90625 -13.28125 
L 13.1875 -13.28125 
Q 16.890625 -13.28125 18.9375 -11.515625 
Q 21 -9.765625 23.484375 -3.21875 
L 25.09375 0.875 
L 2.984375 54.6875 
L 12.5 54.6875 
L 29.59375 11.921875 
L 46.6875 54.6875 
L 56.203125 54.6875 
z
" id="DejaVuSans-79"/>
      <path d="M 31 75.875 
Q 24.46875 64.65625 21.28125 53.65625 
Q 18.109375 42.671875 18.109375 31.390625 
Q 18.109375 20.125 21.3125 9.0625 
Q 24.515625 -2 31 -13.1875 
L 23.1875 -13.1875 
Q 15.875 -1.703125 12.234375 9.375 
Q 8.59375 20.453125 8.59375 31.390625 
Q 8.59375 42.28125 12.203125 53.3125 
Q 15.828125 64.359375 23.1875 75.875 
z
" id="DejaVuSans-28"/>
      <path d="M 8.015625 75.875 
L 15.828125 75.875 
Q 23.140625 64.359375 26.78125 53.3125 
Q 30.421875 42.28125 30.421875 31.390625 
Q 30.421875 20.453125 26.78125 9.375 
Q 23.140625 -1.703125 15.828125 -13.1875 
L 8.015625 -13.1875 
Q 14.5 -2 17.703125 9.0625 
Q 20.90625 20.125 20.90625 31.390625 
Q 20.90625 42.671875 17.703125 53.65625 
Q 14.5 64.65625 8.015625 75.875 
z
" id="DejaVuSans-29"/>
     </defs>
     <g transform="translate(14.798438 196.211625)rotate(-90)scale(0.1 -0.1)">
      <use xlink:href="#DejaVuSans-52"/>
      <use x="69.419922" xlink:href="#DejaVuSans-65"/>
      <use x="130.943359" xlink:href="#DejaVuSans-61"/>
      <use x="192.222656" xlink:href="#DejaVuSans-64"/>
      <use x="255.699219" xlink:href="#DejaVuSans-20"/>
      <use x="287.486328" xlink:href="#DejaVuSans-6c"/>
      <use x="315.269531" xlink:href="#DejaVuSans-61"/>
      <use x="376.548828" xlink:href="#DejaVuSans-74"/>
      <use x="415.757812" xlink:href="#DejaVuSans-65"/>
      <use x="477.28125" xlink:href="#DejaVuSans-6e"/>
      <use x="540.660156" xlink:href="#DejaVuSans-63"/>
      <use x="595.640625" xlink:href="#DejaVuSans-79"/>
      <use x="654.820312" xlink:href="#DejaVuSans-20"/>
      <use x="686.607422" xlink:href="#DejaVuSans-28"/>
      <use x="725.621094" xlink:href="#DejaVuSans-73"/>
      <use x="777.720703" xlink:href="#DejaVuSans-29"/>
     </g>
    </g>
   </g>
   <g id="line2d_19">
    <path clip-path="url(#pfab03f4eb2)" d="M 153.627061 118.75742 
L 154.062546 118.465822 
L 154.498032 118.421072 
L 154.933518 118.854996 
L 155.804489 118.197002 
L 156.239975 117.41413 
L 157.546431 116.877138 
L 159.72386 116.801694 
L 160.594831 116.456461 
L 161.465802 116.534005 
L 161.901288 117.259042 
L 162.336773 116.917202 
L 162.772259 117.170351 
L 163.207745 117.570834 
L 164.078716 115.437726 
L 164.514202 116.292973 
L 164.949687 116.221567 
L 165.385173 115.958241 
L 166.69163 115.787482 
L 167.127116 114.237893 
L 167.562601 114.165034 
L 167.998087 113.857281 
L 168.433572 115.465674 
L 169.304544 115.443057 
L 170.175515 116.189742 
L 170.611001 116.023345 
L 171.917458 116.966637 
L 172.352943 116.744344 
L 172.788429 116.907671 
L 173.223915 117.41413 
L 173.6594 117.416069 
L 174.094886 116.983599 
L 174.530371 116.755167 
L 175.836828 117.133195 
L 176.272314 117.473904 
L 176.7078 117.313 
L 177.578771 117.292322 
L 178.014257 115.568905 
L 178.449742 115.310586 
L 178.885228 115.64241 
L 179.320713 115.551942 
L 179.756199 116.040793 
L 180.191685 116.059533 
L 180.62717 116.797009 
L 181.062656 115.936754 
L 181.498142 115.758565 
L 181.933627 118.31041 
L 182.369113 118.581976 
L 182.804599 118.597808 
L 183.240084 117.504275 
L 183.67557 117.248865 
L 184.111056 117.146765 
L 184.546541 117.659687 
L 184.982027 117.506537 
L 185.417512 117.100562 
L 185.852998 117.223824 
L 186.288484 117.007509 
L 187.159455 117.093776 
L 187.594941 117.130771 
L 188.465912 117.529477 
L 188.901398 118.101365 
L 189.772369 118.077617 
L 190.207855 118.146599 
L 190.64334 118.055484 
L 191.078826 117.808313 
L 191.514311 117.712675 
L 191.949797 117.826568 
L 192.385283 117.058882 
L 192.820768 116.92431 
L 194.127225 118.151607 
L 194.562711 118.077455 
L 194.998197 118.359037 
L 195.433682 118.346921 
L 195.869168 118.939325 
L 196.304653 118.413318 
L 197.175625 118.173578 
L 197.61111 118.229635 
L 198.046596 119.07842 
L 198.482082 119.439646 
L 198.917567 119.443685 
L 199.788539 120.801675 
L 200.224024 120.91896 
L 200.65951 121.685193 
L 201.530481 122.107162 
L 202.401452 122.177274 
L 203.707909 122.715236 
L 204.143395 122.395044 
L 205.014366 122.254818 
L 205.449852 121.791977 
L 206.756309 121.942219 
L 207.191795 122.133171 
L 207.62728 122.0007 
L 208.062766 121.534466 
L 208.498251 121.501672 
L 210.240194 120.539479 
L 210.67568 121.080672 
L 211.111165 121.97259 
L 211.982137 121.819279 
L 212.417622 120.443841 
L 212.853108 121.558699 
L 213.724079 123.360306 
L 214.159565 123.099241 
L 215.030536 123.070808 
L 215.466022 122.719921 
L 215.901507 122.665963 
L 216.336993 122.80005 
L 216.772479 122.752554 
L 217.207964 122.839468 
L 217.64345 122.800212 
L 218.078936 122.881956 
L 218.514421 122.776464 
L 218.949907 123.628156 
L 219.820878 123.706669 
L 220.256364 123.525087 
L 220.691849 123.526218 
L 221.127335 124.282111 
L 221.998306 124.120238 
L 222.433792 124.171772 
L 223.740249 124.923626 
L 224.175735 124.993255 
L 224.61122 125.389375 
L 225.046706 125.417001 
L 225.482191 124.932673 
L 225.917677 124.779685 
L 226.353163 125.059975 
L 226.788648 125.194061 
L 227.224134 123.803761 
L 227.65962 123.661435 
L 228.095105 123.913454 
L 228.530591 123.698915 
L 228.966077 125.31894 
L 229.837048 124.984369 
L 230.272533 124.475486 
L 230.708019 123.484699 
L 231.143505 124.063857 
L 231.57899 124.0183 
L 232.014476 123.699077 
L 232.449962 123.555458 
L 232.885447 124.164502 
L 233.320933 123.580176 
L 233.756419 123.575491 
L 234.191904 122.614752 
L 234.62739 122.548517 
L 235.062876 121.837211 
L 235.498361 121.564192 
L 235.933847 121.451914 
L 236.369332 121.809263 
L 236.804818 120.002002 
L 237.675789 120.281807 
L 238.111275 118.515095 
L 238.546761 117.408638 
L 238.982246 117.593128 
L 239.417732 117.366958 
L 239.853218 115.655173 
L 240.724189 115.97488 
L 241.159675 115.558566 
L 241.59516 115.765027 
L 242.466131 115.666158 
L 242.901617 115.314625 
L 243.337103 114.08749 
L 244.208074 113.336444 
L 245.079045 112.87021 
L 245.950017 112.841131 
L 246.385502 112.258097 
L 246.820988 112.172313 
L 247.256474 112.534186 
L 248.127445 111.813672 
L 248.56293 112.584105 
L 248.998416 114.478603 
L 249.433902 114.349201 
L 250.304873 114.511721 
L 251.61133 113.704616 
L 252.046816 115.068907 
L 252.482301 114.866808 
L 252.917787 114.963092 
L 253.353272 115.187162 
L 253.788758 113.305911 
L 254.224244 113.298802 
L 254.659729 111.940327 
L 255.095215 112.16989 
L 255.530701 110.572644 
L 255.966186 110.166669 
L 256.401672 110.054876 
L 256.837158 110.077493 
L 257.272643 109.288321 
L 258.143615 109.70092 
L 259.014586 109.263603 
L 259.450071 109.315946 
L 260.321043 109.816266 
L 261.192014 108.742927 
L 261.6275 109.25908 
L 262.062985 108.112074 
L 262.498471 108.040669 
L 262.933957 109.299306 
L 263.369442 109.456494 
L 263.804928 109.488481 
L 264.240414 108.481862 
L 265.54687 107.233241 
L 265.982356 108.740989 
L 266.417842 108.715141 
L 267.288813 108.451491 
L 268.159784 107.599799 
L 268.59527 105.160392 
L 269.466241 105.186563 
L 269.901727 105.360714 
L 270.337212 105.943102 
L 271.208184 106.162003 
L 271.643669 105.734056 
L 272.950126 105.238097 
L 273.385612 104.708051 
L 273.821098 104.421623 
L 274.692069 104.474288 
L 275.127555 104.391898 
L 275.56304 104.462011 
L 275.998526 104.699166 
L 276.434011 104.797873 
L 276.869497 104.740846 
L 277.304983 105.571375 
L 278.175954 105.81467 
L 278.61144 106.227269 
L 279.046925 106.330176 
L 279.917897 105.884136 
L 280.353382 105.881067 
L 280.788868 105.225496 
L 281.224354 105.293994 
L 281.659839 103.710964 
L 282.095325 103.847797 
L 282.53081 103.661368 
L 282.966296 103.080111 
L 283.401782 103.316782 
L 284.272753 103.295296 
L 284.708239 103.506926 
L 285.143724 103.260401 
L 285.57921 103.283502 
L 286.014696 103.189803 
L 286.450181 103.363308 
L 287.756638 103.506442 
L 288.192124 103.128253 
L 288.627609 103.013714 
L 289.063095 103.415973 
L 289.498581 103.500303 
L 289.934066 103.432128 
L 290.369552 103.829057 
L 290.805038 103.853774 
L 291.240523 104.570088 
L 291.676009 103.980268 
L 292.111495 103.047962 
L 292.54698 103.070741 
L 292.982466 103.552968 
L 293.417951 103.404342 
L 293.853437 102.294331 
L 294.288923 102.654103 
L 294.724408 101.42196 
L 295.159894 102.210648 
L 295.59538 102.319048 
L 296.030865 102.965895 
L 296.466351 103.090612 
L 296.901837 102.816784 
L 297.337322 104.23164 
L 297.772808 104.371381 
L 298.643779 102.7184 
L 299.079265 102.962179 
L 299.51475 102.967672 
L 299.950236 94.761249 
L 300.385722 94.858017 
L 300.821207 92.050437 
L 301.256693 91.992926 
L 302.56315 90.490671 
L 302.998636 90.483886 
L 304.740578 90.95125 
L 305.176064 91.152703 
L 305.611549 91.110054 
L 306.047035 90.816518 
L 306.482521 90.704725 
L 306.918006 90.233483 
L 307.353492 90.340752 
L 307.788978 90.056424 
L 308.659949 90.404403 
L 309.095435 89.444957 
L 309.53092 89.584859 
L 309.966406 89.467574 
L 310.401891 90.036554 
L 310.837377 88.822504 
L 311.708348 88.809419 
L 312.143834 90.118783 
L 313.014805 90.479362 
L 313.450291 90.824595 
L 313.885777 90.598748 
L 314.321262 90.011513 
L 314.756748 90.014744 
L 315.192234 90.509734 
L 315.627719 91.434447 
L 316.49869 91.593089 
L 316.934176 91.68695 
L 317.369662 90.548506 
L 317.805147 90.399395 
L 318.240633 91.260296 
L 318.676119 91.211831 
L 319.111604 91.532508 
L 319.54709 91.682911 
L 319.982576 93.276764 
L 320.853547 91.88081 
L 321.289032 92.593569 
L 321.724518 94.385483 
L 322.160004 94.086777 
L 322.595489 94.294692 
L 323.030975 96.059627 
L 323.466461 97.140074 
L 323.901946 96.885148 
L 324.337432 97.003241 
L 324.772918 98.607919 
L 325.208403 98.652345 
L 325.643889 98.582717 
L 326.079375 99.766718 
L 326.950346 99.871402 
L 327.385831 99.630369 
L 327.821317 99.627623 
L 328.256803 100.804839 
L 328.692288 100.993368 
L 329.56326 100.963481 
L 329.998745 101.262026 
L 330.869717 101.455401 
L 331.305202 102.040697 
L 332.176174 102.105156 
L 332.611659 102.556688 
L 333.047145 102.581082 
L 333.48263 103.259755 
L 333.918116 103.16654 
L 334.353602 101.084644 
L 334.789087 101.040217 
L 335.660059 101.757015 
L 336.095544 101.792556 
L 336.53103 102.135043 
L 337.402001 101.301605 
L 337.837487 101.069943 
L 338.272972 101.240216 
L 338.708458 103.160724 
L 339.143944 102.414847 
L 339.579429 103.825988 
L 340.014915 103.989315 
L 340.450401 105.845364 
L 341.321372 105.205303 
L 341.756858 105.254737 
L 342.192343 106.058126 
L 342.627829 106.136155 
L 343.063315 106.09609 
L 343.4988 106.176865 
L 344.369771 107.143743 
L 345.240743 107.11111 
L 345.676228 106.91628 
L 346.111714 107.36749 
L 346.5472 107.348265 
L 346.982685 108.204319 
L 347.418171 108.160701 
L 347.853657 108.425643 
L 348.289142 108.494625 
L 348.724628 107.528878 
L 349.160114 108.585093 
L 349.595599 108.788969 
L 350.031085 109.118531 
L 350.902056 109.025963 
L 351.773027 109.248902 
L 352.208513 109.389289 
L 352.643999 109.135333 
L 353.079484 110.896391 
L 353.51497 113.420611 
L 354.385941 113.653405 
L 354.821427 113.208011 
L 356.127884 113.030791 
L 356.563369 113.261646 
L 356.998855 113.061324 
L 357.434341 113.203165 
L 357.869826 112.95987 
L 358.305312 113.680545 
L 358.740798 113.895892 
L 359.611769 113.648882 
L 360.047255 113.66956 
L 360.918226 113.332243 
L 361.789197 113.415603 
L 362.224683 113.112374 
L 362.660168 112.195738 
L 363.53114 111.517389 
L 363.966625 111.306728 
L 364.402111 111.505758 
L 365.273082 111.230961 
L 366.144054 112.346626 
L 366.579539 113.72061 
L 367.015025 113.434666 
L 367.45051 113.490562 
L 367.885996 113.985875 
L 368.321482 113.740319 
L 368.756967 113.20268 
L 369.627939 112.897835 
L 370.063424 112.713668 
L 370.49891 112.760194 
L 370.934396 111.557777 
L 372.240853 111.376518 
L 372.676338 111.068603 
L 373.111824 110.972965 
L 373.547309 109.947284 
L 374.418281 109.808189 
L 374.853766 109.815782 
L 375.289252 108.812555 
L 376.160223 108.637758 
L 377.031195 110.021112 
L 377.46668 109.451163 
L 377.902166 109.39979 
L 378.337651 109.617883 
L 378.773137 111.192997 
L 379.208623 111.190412 
L 379.644108 111.526598 
L 380.079594 110.922077 
L 380.51508 110.813031 
L 380.950565 110.851157 
L 381.386051 110.4888 
L 381.821537 110.674582 
L 382.257022 110.724017 
L 382.692508 110.580722 
L 383.127994 111.531767 
L 383.563479 111.917549 
L 383.998965 111.233869 
L 384.43445 111.107052 
L 384.869936 119.025916 
L 385.305422 119.318645 
L 385.740907 121.922187 
L 386.176393 121.450299 
L 386.611879 121.338991 
L 387.047364 121.82041 
L 387.48285 121.96629 
L 387.918336 121.96322 
L 388.353821 121.401349 
L 389.224793 121.229944 
L 389.660278 120.440287 
L 390.531249 120.11121 
L 391.837706 120.506038 
L 392.273192 119.691826 
L 392.708678 119.729467 
L 393.579649 118.14466 
L 394.015135 118.568083 
L 394.45062 118.44999 
L 394.886106 118.581169 
L 395.321591 118.451767 
L 395.757077 118.997483 
L 397.063534 118.864527 
L 397.49902 118.312672 
L 398.369991 116.930449 
L 398.805477 117.284729 
L 401.853876 117.033841 
L 402.289362 118.148699 
L 402.724847 118.164208 
L 403.160333 118.066793 
L 403.595819 117.844177 
L 404.031304 118.402333 
L 404.46679 117.919136 
L 404.902276 116.887154 
L 405.773247 118.325919 
L 406.208733 118.117681 
L 406.644218 118.036421 
L 407.079704 118.227374 
L 408.386161 118.066793 
L 408.386161 118.066793 
" style="fill:none;opacity:0.8;stroke:#1f77b4;stroke-linecap:square;stroke-width:1.5;"/>
   </g>
   <g id="line2d_20">
    <path clip-path="url(#pfab03f4eb2)" d="M 153.627061 152.022529 
L 154.933518 151.49216 
L 155.369003 151.500399 
L 155.804489 151.335618 
L 156.239975 151.393453 
L 156.67546 150.951937 
L 157.110946 151.167929 
L 157.546431 151.012679 
L 158.417403 150.32076 
L 158.852888 150.219953 
L 159.288374 149.562929 
L 159.72386 149.634172 
L 160.159345 148.99088 
L 160.594831 148.923352 
L 161.030317 148.237248 
L 161.465802 148.621899 
L 162.336773 148.339186 
L 162.772259 148.193468 
L 163.207745 147.832404 
L 163.64323 147.236122 
L 164.078716 145.173773 
L 164.514202 144.961012 
L 165.385173 144.145345 
L 165.820659 142.224837 
L 166.256144 143.110455 
L 166.69163 142.920957 
L 167.127116 142.866837 
L 167.562601 139.914994 
L 167.998087 139.892861 
L 168.433572 139.727595 
L 168.869058 137.816781 
L 169.304544 137.780755 
L 170.175515 137.075104 
L 171.481972 136.514525 
L 171.917458 135.312754 
L 174.094886 134.43909 
L 174.530371 133.999351 
L 174.965857 133.002264 
L 175.401343 133.352827 
L 175.836828 133.228434 
L 176.272314 132.506466 
L 176.7078 132.154287 
L 177.143285 132.063819 
L 177.578771 132.098229 
L 178.014257 131.818101 
L 178.449742 131.684822 
L 178.885228 130.972063 
L 179.320713 130.802759 
L 179.756199 131.878521 
L 180.62717 131.657682 
L 181.062656 131.709216 
L 181.498142 130.042504 
L 181.933627 130.011325 
L 182.369113 130.154458 
L 182.804599 129.912133 
L 183.240084 129.50018 
L 183.67557 129.245415 
L 184.111056 128.145582 
L 184.546541 127.94946 
L 184.982027 128.020381 
L 185.417512 126.24963 
L 185.852998 125.890181 
L 186.288484 125.287922 
L 186.723969 125.11684 
L 187.159455 124.420559 
L 187.594941 124.429606 
L 188.030426 124.08195 
L 188.901398 122.90845 
L 190.207855 122.050296 
L 190.64334 122.041249 
L 191.078826 121.845127 
L 191.514311 121.332529 
L 191.949797 121.169363 
L 192.385283 121.131883 
L 193.69174 120.239965 
L 194.127225 118.782137 
L 194.562711 118.736741 
L 194.998197 119.148533 
L 195.433682 117.813321 
L 195.869168 118.038037 
L 196.740139 117.541109 
L 197.175625 115.430618 
L 197.61111 114.768909 
L 198.482082 114.469395 
L 198.917567 113.788138 
L 199.353053 114.063904 
L 199.788539 114.106715 
L 200.224024 114.329169 
L 200.65951 112.46165 
L 201.094996 113.457606 
L 201.530481 113.023198 
L 201.965967 113.249368 
L 202.401452 113.796538 
L 202.836938 113.263908 
L 203.272424 114.177797 
L 203.707909 114.44387 
L 204.143395 113.97909 
L 204.578881 114.038217 
L 205.449852 113.453567 
L 205.885338 111.57894 
L 206.756309 111.429991 
L 207.191795 111.035162 
L 207.62728 111.083466 
L 208.062766 110.972642 
L 208.498251 111.466501 
L 208.933737 111.312221 
L 209.369223 111.304951 
L 209.804708 111.174741 
L 210.67568 110.391223 
L 211.111165 108.14083 
L 211.546651 107.589459 
L 211.982137 107.470235 
L 212.853108 105.066854 
L 213.288593 105.004657 
L 213.724079 105.077032 
L 214.159565 104.523723 
L 214.59505 104.468634 
L 215.030536 102.625509 
L 215.466022 102.861533 
L 216.336993 102.254751 
L 216.772479 100.9113 
L 217.207964 100.743127 
L 218.078936 99.978348 
L 218.514421 99.807751 
L 218.949907 99.821322 
L 219.385392 99.411146 
L 220.256364 98.917933 
L 220.691849 96.182243 
L 221.127335 95.69097 
L 221.998306 96.484665 
L 222.433792 97.257521 
L 222.869278 98.435706 
L 223.304763 97.834578 
L 223.740249 98.126984 
L 224.175735 94.790489 
L 224.61122 93.702287 
L 225.046706 93.748652 
L 225.482191 93.366748 
L 225.917677 93.267556 
L 226.788648 94.661087 
L 227.224134 93.804387 
L 227.65962 94.591136 
L 228.530591 94.154305 
L 228.966077 95.934749 
L 229.401562 95.573038 
L 229.837048 95.646059 
L 230.272533 96.464633 
L 230.708019 96.506313 
L 231.143505 96.058496 
L 231.57899 95.970451 
L 232.014476 94.581443 
L 232.449962 92.417964 
L 232.885447 92.239613 
L 234.62739 92.082747 
L 235.062876 92.333312 
L 235.498361 93.487103 
L 235.933847 92.922808 
L 236.369332 93.454793 
L 236.804818 93.692594 
L 237.240304 92.173216 
L 238.546761 92.059161 
L 238.982246 91.759163 
L 239.853218 91.417161 
L 240.724189 90.795193 
L 241.159675 89.636717 
L 241.59516 89.99762 
L 242.030646 88.656108 
L 242.466131 87.882283 
L 243.772588 87.803123 
L 244.208074 88.235754 
L 244.64356 88.074689 
L 245.079045 88.175011 
L 245.514531 87.614756 
L 245.950017 87.87372 
L 246.385502 86.799089 
L 246.820988 86.475019 
L 247.256474 86.461611 
L 247.691959 85.971791 
L 248.127445 85.92688 
L 248.56293 85.614603 
L 248.998416 87.363222 
L 249.869387 86.835438 
L 250.304873 87.042222 
L 250.740359 86.982448 
L 251.175844 85.355639 
L 251.61133 84.960002 
L 252.046816 84.746595 
L 252.482301 87.15353 
L 252.917787 87.152561 
L 253.353272 86.49699 
L 253.788758 87.983736 
L 254.224244 87.828002 
L 255.095215 87.917662 
L 255.530701 87.746904 
L 256.401672 86.242549 
L 256.837158 87.00345 
L 257.272643 86.802482 
L 258.143615 86.04885 
L 258.5791 85.756768 
L 259.014586 85.741259 
L 259.450071 84.946432 
L 259.885557 85.72155 
L 260.756528 85.588432 
L 261.192014 87.124936 
L 261.6275 87.11912 
L 262.062985 86.713467 
L 262.498471 86.824129 
L 263.369442 86.093438 
L 263.804928 86.422677 
L 265.111385 85.715734 
L 265.982356 85.012022 
L 266.417842 86.032695 
L 266.853327 85.918479 
L 267.288813 83.968085 
L 267.724299 83.691995 
L 268.159784 83.669702 
L 268.59527 83.762108 
L 269.030756 84.016388 
L 269.901727 83.704112 
L 270.337212 85.105882 
L 271.208184 84.159198 
L 271.643669 82.524473 
L 272.079155 82.984729 
L 272.514641 82.820756 
L 272.950126 82.85662 
L 273.821098 84.054675 
L 274.256583 83.870347 
L 274.692069 83.512352 
L 275.127555 83.530122 
L 275.56304 83.660978 
L 275.998526 83.62996 
L 276.434011 84.007987 
L 276.869497 83.023986 
L 277.304983 82.586993 
L 278.175954 82.086672 
L 278.61144 82.109935 
L 279.046925 83.037879 
L 279.482411 83.051288 
L 279.917897 82.919624 
L 280.353382 84.15209 
L 280.788868 83.377942 
L 281.659839 83.182628 
L 282.095325 83.883594 
L 282.53081 84.216226 
L 282.966296 83.381981 
L 283.401782 83.373903 
L 283.837267 83.76017 
L 284.272753 84.5075 
L 284.708239 84.203786 
L 285.143724 84.557258 
L 285.57921 85.470501 
L 286.014696 84.751118 
L 286.450181 84.865496 
L 286.885667 84.269537 
L 287.321152 84.062268 
L 287.756638 83.27875 
L 288.192124 83.295875 
L 288.627609 83.003953 
L 289.063095 83.102337 
L 289.934066 81.742893 
L 290.369552 81.675688 
L 290.805038 83.160011 
L 291.240523 81.342895 
L 291.676009 81.077468 
L 292.111495 79.713177 
L 292.54698 79.681837 
L 293.417951 78.238871 
L 293.853437 78.104623 
L 294.288923 78.118678 
L 294.724408 77.433867 
L 295.159894 75.933874 
L 295.59538 76.084438 
L 296.030865 77.211735 
L 296.466351 76.657618 
L 296.901837 76.351481 
L 297.337322 77.405434 
L 297.772808 77.925625 
L 298.643779 77.388794 
L 299.079265 75.93872 
L 299.51475 75.752291 
L 299.950236 77.059393 
L 300.385722 76.666827 
L 300.821207 76.643563 
L 301.256693 76.940008 
L 301.692179 77.704625 
L 302.56315 76.311578 
L 302.998636 76.301885 
L 303.434121 76.43581 
L 303.869607 74.286547 
L 304.305092 70.016131 
L 304.740578 70.043271 
L 305.176064 69.946826 
L 305.611549 72.259416 
L 306.918006 71.454089 
L 307.353492 71.575897 
L 308.224463 71.201586 
L 308.659949 71.445042 
L 309.095435 74.639211 
L 309.53092 75.599465 
L 309.966406 75.483149 
L 310.401891 75.168126 
L 310.837377 74.182347 
L 311.272863 72.331467 
L 311.708348 71.840355 
L 312.143834 72.472339 
L 312.57932 71.438257 
L 313.450291 68.664441 
L 313.885777 67.937627 
L 314.321262 67.734074 
L 314.756748 66.601769 
L 315.192234 66.585614 
L 315.627719 66.023743 
L 316.063205 65.763162 
L 316.49869 65.223423 
L 316.934176 66.239251 
L 317.369662 67.961213 
L 317.805147 67.117922 
L 318.240633 66.528264 
L 319.111604 66.071562 
L 319.54709 65.246687 
L 319.982576 65.190629 
L 320.418061 64.19968 
L 320.853547 64.389825 
L 321.289032 65.072374 
L 321.724518 64.418096 
L 322.160004 65.54297 
L 323.030975 65.37205 
L 323.466461 65.080936 
L 324.337432 64.894992 
L 324.772918 64.69677 
L 325.208403 62.851221 
L 325.643889 62.794356 
L 326.079375 63.265274 
L 326.51486 62.903887 
L 326.950346 63.904044 
L 327.385831 63.218102 
L 327.821317 62.266733 
L 328.256803 61.95478 
L 328.692288 61.324896 
L 329.127774 61.232328 
L 329.56326 60.458018 
L 329.998745 60.391944 
L 330.434231 60.586289 
L 330.869717 60.446225 
L 331.305202 61.078532 
L 331.740688 61.483215 
L 332.176174 61.274169 
L 332.611659 61.493069 
L 333.047145 60.998726 
L 333.48263 61.505993 
L 333.918116 61.26383 
L 334.353602 61.335558 
L 334.789087 59.475631 
L 335.224573 58.206817 
L 335.660059 59.009559 
L 336.095544 60.272074 
L 336.53103 60.618922 
L 336.966516 60.518761 
L 337.402001 60.595012 
L 337.837487 60.363349 
L 338.272972 60.77094 
L 338.708458 59.924418 
L 339.143944 56.288409 
L 339.579429 55.924437 
L 340.014915 55.764825 
L 340.450401 55.765633 
L 340.885886 56.261915 
L 341.756858 55.973871 
L 342.192343 55.648509 
L 342.627829 54.044478 
L 343.4988 53.500215 
L 343.934286 53.366452 
L 344.369771 52.564517 
L 345.240743 52.292467 
L 345.676228 52.047395 
L 346.5472 50.986172 
L 346.982685 49.867922 
L 347.418171 49.745306 
L 347.853657 50.042235 
L 350.031085 49.454192 
L 350.46657 49.531898 
L 350.902056 49.445469 
L 351.337542 46.016729 
L 351.773027 45.671819 
L 352.208513 47.164058 
L 352.643999 47.031425 
L 353.079484 46.234822 
L 353.51497 45.792659 
L 353.950456 46.023191 
L 354.385941 45.872465 
L 354.821427 44.626105 
L 355.256912 44.318837 
L 355.692398 44.95906 
L 356.127884 45.345165 
L 356.563369 46.652429 
L 356.998855 45.139673 
L 357.434341 45.118833 
L 357.869826 44.556477 
L 358.305312 44.731436 
L 358.740798 43.800907 
L 359.176283 43.712539 
L 359.611769 43.776029 
L 360.918226 43.431442 
L 361.353711 42.32337 
L 361.789197 42.856647 
L 362.224683 43.037583 
L 363.095654 42.79445 
L 363.53114 42.54954 
L 363.966625 42.727245 
L 364.402111 41.307543 
L 364.837597 41.151808 
L 365.273082 41.40108 
L 365.708568 41.83985 
L 366.144054 40.403185 
L 366.579539 39.611105 
L 367.015025 40.512878 
L 367.45051 40.108033 
L 367.885996 40.582667 
L 368.321482 40.363605 
L 368.756967 39.00513 
L 369.192453 38.713048 
L 369.627939 38.235182 
L 370.063424 38.092211 
L 370.934396 38.494309 
L 371.369881 37.57525 
L 371.805367 36.963298 
L 372.240853 36.74876 
L 372.676338 37.542294 
L 373.111824 37.235833 
L 373.982795 36.915318 
L 374.418281 37.27929 
L 374.853766 36.48511 
L 375.724738 36.232769 
L 376.160223 37.73777 
L 376.595709 37.744393 
L 377.031195 38.751497 
L 377.902166 37.950208 
L 378.337651 38.25683 
L 378.773137 37.501422 
L 379.644108 37.252958 
L 380.079594 38.49027 
L 380.51508 38.33292 
L 381.386051 39.592042 
L 381.821537 39.150525 
L 382.692508 38.99156 
L 383.127994 37.540032 
L 383.563479 37.463942 
L 383.998965 38.771044 
L 384.869936 37.378967 
L 385.305422 37.409984 
L 385.740907 36.48721 
L 386.176393 36.346985 
L 387.047364 35.085924 
L 387.48285 35.491092 
L 387.918336 35.432611 
L 388.353821 34.990125 
L 388.789307 36.653122 
L 389.224793 40.048421 
L 389.660278 39.427422 
L 390.531249 39.181058 
L 390.966735 39.485419 
L 391.402221 38.468461 
L 391.837706 38.3725 
L 392.708678 38.048915 
L 393.144163 38.341644 
L 394.015135 38.262161 
L 394.886106 37.906428 
L 395.321591 36.690763 
L 395.757077 37.028241 
L 396.628048 38.595278 
L 397.063534 37.496898 
L 397.49902 38.356507 
L 397.934505 39.874108 
L 398.369991 39.497212 
L 398.805477 40.227742 
L 399.240962 39.990909 
L 399.676448 41.121599 
L 400.111934 39.833882 
L 400.547419 37.720807 
L 400.982905 37.900774 
L 402.289362 37.809175 
L 402.724847 38.35586 
L 403.160333 38.69867 
L 403.595819 38.534535 
L 404.031304 38.081548 
L 404.46679 38.49237 
L 404.902276 38.252953 
L 405.337761 38.757312 
L 405.773247 38.672822 
L 406.208733 38.265231 
L 406.644218 37.303523 
L 407.079704 37.26992 
L 407.515189 37.036157 
L 407.950675 36.502719 
L 408.386161 36.574609 
L 408.386161 36.574609 
" style="fill:none;opacity:0.8;stroke:#ff7f0e;stroke-linecap:square;stroke-width:1.5;"/>
   </g>
   <g id="line2d_21">
    <path clip-path="url(#pfab03f4eb2)" d="M 153.627061 183.412688 
L 154.062546 183.31495 
L 154.498032 183.349361 
L 154.933518 183.723349 
L 155.369003 183.6786 
L 155.804489 182.798798 
L 156.239975 183.116244 
L 157.110946 182.847263 
L 157.546431 183.212043 
L 158.852888 183.361477 
L 159.288374 183.715433 
L 160.594831 183.707517 
L 161.030317 183.604287 
L 161.465802 183.179087 
L 162.772259 183.134499 
L 163.207745 183.3597 
L 163.64323 183.205743 
L 164.949687 183.29411 
L 165.385173 182.429494 
L 165.820659 182.342419 
L 166.256144 182.603322 
L 166.69163 182.366166 
L 167.127116 181.976831 
L 167.998087 182.014472 
L 168.433572 181.682325 
L 168.869058 181.969722 
L 170.175515 182.171337 
L 170.611001 182.135634 
L 171.046486 181.194767 
L 171.481972 182.241127 
L 171.917458 182.422386 
L 173.223915 182.636278 
L 173.6594 181.914634 
L 174.094886 181.765523 
L 174.530371 182.176507 
L 175.836828 182.387168 
L 176.272314 182.526263 
L 176.7078 185.629318 
L 177.143285 185.463082 
L 177.578771 185.516556 
L 178.449742 185.385861 
L 178.885228 184.992164 
L 179.756199 185.168415 
L 180.191685 184.752262 
L 181.062656 184.857108 
L 181.498142 185.137882 
L 181.933627 184.787641 
L 182.369113 184.596366 
L 183.240084 184.646285 
L 183.67557 184.728999 
L 184.111056 183.844189 
L 184.546541 183.958728 
L 184.982027 184.268742 
L 185.852998 183.910263 
L 186.288484 183.839181 
L 186.723969 183.932072 
L 187.159455 183.0471 
L 188.030426 183.885707 
L 188.465912 182.800898 
L 189.772369 183.182318 
L 191.949797 182.787812 
L 192.385283 182.978926 
L 192.820768 182.90219 
L 193.256254 182.6114 
L 193.69174 182.867618 
L 194.998197 182.708007 
L 195.869168 182.847747 
L 196.304653 182.754533 
L 197.175625 183.072302 
L 197.61111 182.991365 
L 198.046596 183.034338 
L 198.482082 182.327233 
L 199.353053 181.991855 
L 199.788539 182.092016 
L 201.094996 181.972953 
L 201.530481 181.451631 
L 202.401452 181.006722 
L 203.272424 181.332084 
L 203.707909 181.299774 
L 204.578881 181.490242 
L 205.014366 181.369241 
L 205.885338 181.44937 
L 206.320823 181.229015 
L 207.191795 181.194928 
L 207.62728 181.034186 
L 208.062766 181.195897 
L 208.933737 181.015607 
L 209.369223 181.275703 
L 209.804708 180.786852 
L 210.240194 180.776513 
L 210.67568 181.292343 
L 211.546651 181.402035 
L 211.982137 181.918673 
L 212.417622 181.291858 
L 213.288593 181.359063 
L 213.724079 181.322068 
L 214.159565 182.322386 
L 214.59505 182.437733 
L 215.030536 182.239834 
L 215.901507 182.30397 
L 216.336993 182.563258 
L 216.772479 182.545972 
L 217.207964 182.314955 
L 217.64345 182.577959 
L 218.078936 182.639671 
L 218.514421 181.650176 
L 218.949907 181.711727 
L 219.820878 181.621905 
L 220.256364 180.993475 
L 220.691849 181.056641 
L 221.127335 180.977482 
L 221.562821 181.232408 
L 221.998306 180.983944 
L 222.433792 181.361648 
L 223.304763 181.524975 
L 223.740249 180.476838 
L 225.046706 181.28055 
L 225.917677 181.062619 
L 226.353163 181.078774 
L 226.788648 180.74388 
L 227.224134 181.392665 
L 227.65962 181.322553 
L 228.095105 180.99606 
L 228.530591 180.9127 
L 228.966077 180.404463 
L 229.401562 181.267303 
L 229.837048 181.093475 
L 230.272533 180.445012 
L 232.885447 180.336451 
L 233.320933 180.082171 
L 234.191904 179.962462 
L 234.62739 181.016738 
L 235.062876 181.152602 
L 235.498361 181.145655 
L 235.933847 181.436122 
L 236.369332 181.491049 
L 236.804818 181.691856 
L 237.240304 181.705588 
L 237.675789 181.510274 
L 238.546761 181.615282 
L 238.982246 181.781678 
L 239.853218 181.518028 
L 240.288703 181.629013 
L 240.724189 182.432564 
L 241.159675 181.412859 
L 242.030646 181.499773 
L 242.466131 181.318029 
L 242.901617 181.401066 
L 244.64356 180.981197 
L 245.079045 179.694935 
L 245.514531 179.639362 
L 246.385502 180.08524 
L 246.820988 180.011897 
L 247.256474 180.26763 
L 247.691959 180.155353 
L 248.56293 180.220781 
L 248.998416 179.662464 
L 249.869387 179.74857 
L 250.304873 179.289283 
L 250.740359 179.404791 
L 251.175844 178.715457 
L 251.61133 178.908994 
L 252.046816 179.289283 
L 252.482301 178.290903 
L 254.224244 178.705118 
L 254.659729 178.659237 
L 255.095215 178.774584 
L 255.530701 178.312712 
L 255.966186 179.379751 
L 256.837158 179.400106 
L 257.272643 179.722722 
L 257.708129 179.145019 
L 258.143615 179.14518 
L 258.5791 179.845823 
L 259.014586 179.91949 
L 259.450071 179.285406 
L 260.321043 179.344694 
L 261.192014 178.584116 
L 261.6275 178.744697 
L 262.062985 178.686862 
L 262.498471 178.756167 
L 262.933957 178.225798 
L 263.369442 178.174587 
L 263.804928 178.642921 
L 264.240414 178.724665 
L 264.675899 178.677816 
L 265.111385 179.021271 
L 265.54687 178.550353 
L 265.982356 178.612226 
L 266.417842 178.460531 
L 267.288813 179.198492 
L 268.59527 179.106408 
L 269.030756 180.091864 
L 270.337212 180.449374 
L 271.208184 180.670052 
L 271.643669 180.606401 
L 272.079155 181.575056 
L 272.514641 181.881678 
L 272.950126 181.961807 
L 273.385612 182.989265 
L 273.821098 182.90639 
L 274.256583 182.315278 
L 274.692069 182.294115 
L 275.56304 182.555826 
L 275.998526 182.464551 
L 276.869497 182.571335 
L 277.304983 182.535633 
L 277.740468 181.725459 
L 278.175954 181.717543 
L 278.61144 180.648242 
L 279.482411 180.616417 
L 280.353382 180.667305 
L 281.224354 180.777967 
L 281.659839 179.619007 
L 282.966296 179.377328 
L 283.401782 179.472158 
L 283.837267 179.26715 
L 284.272753 179.421431 
L 284.708239 178.937104 
L 285.57921 179.210769 
L 286.014696 179.117717 
L 286.450181 179.484758 
L 287.321152 179.744046 
L 288.192124 179.64954 
L 288.627609 178.683147 
L 289.063095 178.710287 
L 289.498581 178.449545 
L 289.934066 178.624504 
L 290.369552 178.656006 
L 290.805038 178.557784 
L 291.240523 178.973291 
L 292.111495 178.96069 
L 292.982466 178.959882 
L 293.417951 179.308669 
L 294.288923 179.343725 
L 294.724408 179.914643 
L 296.030865 179.77571 
L 296.901837 179.797843 
L 297.337322 180.359391 
L 298.643779 179.899619 
L 299.079265 179.767148 
L 299.51475 178.737266 
L 299.950236 178.941304 
L 301.692179 178.847282 
L 302.127664 179.221432 
L 302.56315 178.905924 
L 302.998636 178.877492 
L 303.434121 179.909151 
L 304.305092 179.888311 
L 305.176064 180.172962 
L 305.611549 180.031929 
L 306.047035 180.165046 
L 306.482521 179.184114 
L 306.918006 179.328055 
L 307.353492 179.282498 
L 307.788978 179.444209 
L 308.224463 179.294775 
L 308.659949 180.117712 
L 309.095435 180.024982 
L 309.53092 180.108019 
L 309.966406 180.060362 
L 310.401891 179.873125 
L 311.272863 179.904466 
L 311.708348 180.257291 
L 312.143834 179.620137 
L 312.57932 179.578781 
L 313.014805 179.897842 
L 313.450291 179.521107 
L 313.885777 180.461491 
L 314.321262 180.487985 
L 314.756748 180.796061 
L 315.192234 181.491696 
L 315.627719 181.400743 
L 317.369662 180.502201 
L 317.805147 180.617871 
L 318.240633 176.756661 
L 319.982576 176.590911 
L 320.853547 176.656016 
L 321.289032 176.535984 
L 321.724518 175.342775 
L 322.160004 175.072986 
L 322.595489 175.449882 
L 323.466461 175.387686 
L 323.901946 175.017897 
L 324.337432 174.446172 
L 325.643889 174.561357 
L 326.079375 175.488816 
L 326.51486 175.530011 
L 326.950346 175.688492 
L 327.385831 175.973305 
L 327.821317 175.840511 
L 328.256803 175.314988 
L 328.692288 175.043745 
L 329.56326 175.361515 
L 329.998745 176.799149 
L 330.434231 176.854076 
L 330.869717 176.780086 
L 331.305202 176.879601 
L 331.740688 175.95925 
L 332.176174 175.802546 
L 332.611659 175.864582 
L 333.047145 174.751178 
L 333.48263 174.851501 
L 333.918116 175.37767 
L 334.353602 175.358122 
L 334.789087 174.932599 
L 335.224573 175.358284 
L 335.660059 175.405618 
L 336.095544 176.004323 
L 336.53103 176.076859 
L 336.966516 175.791238 
L 337.402001 176.594304 
L 337.837487 176.671686 
L 338.272972 176.408359 
L 338.708458 176.361348 
L 339.143944 175.651659 
L 340.014915 175.510787 
L 340.450401 175.708524 
L 340.885886 175.603355 
L 341.321372 175.640512 
L 342.192343 175.454567 
L 343.063315 175.565875 
L 343.4988 175.359091 
L 343.934286 175.299641 
L 344.369771 175.819348 
L 344.805257 175.793823 
L 345.676228 176.236147 
L 346.111714 176.616436 
L 346.5472 176.472656 
L 346.982685 176.548585 
L 347.418171 175.97492 
L 347.853657 176.261672 
L 348.289142 176.054403 
L 348.724628 175.583808 
L 349.595599 175.498186 
L 350.031085 174.638901 
L 350.46657 175.165716 
L 350.902056 174.959578 
L 351.337542 174.921614 
L 351.773027 174.659579 
L 352.208513 174.672826 
L 352.643999 174.352634 
L 353.079484 173.249893 
L 353.51497 172.961041 
L 353.950456 172.85458 
L 354.385941 172.42421 
L 354.821427 172.314679 
L 355.692398 172.434226 
L 356.127884 172.265568 
L 356.998855 172.30951 
L 358.305312 171.903049 
L 358.740798 171.672679 
L 359.176283 172.066054 
L 359.611769 171.999172 
L 360.047255 171.800304 
L 360.918226 171.92082 
L 361.353711 171.953453 
L 362.224683 171.825182 
L 362.660168 172.76702 
L 363.095654 172.834709 
L 363.53114 173.867822 
L 363.966625 173.994316 
L 364.402111 173.56847 
L 366.144054 173.25894 
L 366.579539 174.439225 
L 367.015025 174.24488 
L 367.45051 174.201746 
L 367.885996 174.276867 
L 368.321482 175.067816 
L 368.756967 175.410787 
L 369.192453 175.341482 
L 369.627939 175.679122 
L 370.063424 175.826617 
L 370.49891 175.790269 
L 370.934396 174.935345 
L 371.805367 175.310142 
L 372.240853 175.132113 
L 372.676338 175.160223 
L 373.111824 174.790758 
L 373.547309 174.713375 
L 373.982795 174.216124 
L 374.418281 174.105139 
L 374.853766 173.786562 
L 375.289252 172.917423 
L 375.724738 172.98075 
L 376.595709 172.864596 
L 377.46668 172.931801 
L 377.902166 172.0772 
L 378.337651 172.099494 
L 378.773137 171.140371 
L 379.644108 171.14861 
L 380.079594 170.974782 
L 380.51508 171.052326 
L 380.950565 169.887873 
L 382.257022 169.938277 
L 382.692508 169.48529 
L 383.127994 169.573497 
L 383.998965 170.055724 
L 384.43445 171.077044 
L 385.305422 171.048611 
L 385.740907 170.954427 
L 386.176393 170.668645 
L 387.047364 170.505802 
L 387.48285 170.812909 
L 388.353821 168.52746 
L 389.224793 168.516474 
L 389.660278 167.855088 
L 390.095764 168.277703 
L 390.966735 168.345231 
L 391.402221 169.092562 
L 391.837706 169.385614 
L 392.708678 169.336341 
L 394.015135 169.904028 
L 394.886106 169.901766 
L 395.321591 170.14603 
L 396.628048 170.188033 
L 397.063534 170.666383 
L 397.934505 168.274149 
L 398.369991 167.624233 
L 398.805477 167.796122 
L 399.240962 167.739418 
L 399.676448 167.478515 
L 400.111934 167.485946 
L 400.547419 167.621648 
L 401.41839 168.223745 
L 401.853876 168.688202 
L 402.724847 168.719866 
L 403.160333 172.893352 
L 403.595819 172.906599 
L 404.031304 172.760719 
L 404.46679 172.899006 
L 405.773247 172.836809 
L 406.208733 173.033416 
L 406.644218 174.202392 
L 407.079704 174.217578 
L 407.515189 173.807402 
L 407.950675 173.774446 
L 408.386161 173.565723 
L 408.386161 173.565723 
" style="fill:none;opacity:0.8;stroke:#2ca02c;stroke-linecap:square;stroke-width:1.5;"/>
   </g>
   <g id="line2d_22">
    <path clip-path="url(#pfab03f4eb2)" d="M 153.627061 170.382378 
L 154.062546 169.783673 
L 154.498032 169.717922 
L 154.933518 169.518893 
L 155.369003 169.69579 
L 155.804489 170.324059 
L 156.239975 169.299669 
L 156.67546 169.61243 
L 157.110946 169.519377 
L 157.546431 169.882219 
L 157.981917 169.923253 
L 158.852888 169.86881 
L 159.72386 169.87188 
L 160.159345 169.862025 
L 160.594831 169.968648 
L 161.030317 170.433913 
L 161.465802 170.425512 
L 161.901288 170.665575 
L 162.336773 169.962348 
L 162.772259 170.220505 
L 163.207745 169.942962 
L 163.64323 170.023898 
L 164.078716 170.245545 
L 164.514202 170.008228 
L 164.949687 169.975595 
L 165.385173 170.606125 
L 165.820659 170.950711 
L 166.256144 170.853458 
L 166.69163 171.915004 
L 167.127116 171.685926 
L 167.562601 171.001277 
L 167.998087 171.326477 
L 168.869058 171.386735 
L 169.304544 171.122924 
L 169.740029 171.06412 
L 170.175515 171.480757 
L 170.611001 170.917432 
L 171.046486 170.819694 
L 171.481972 171.187059 
L 171.917458 170.391586 
L 172.352943 170.54312 
L 172.788429 171.236655 
L 173.223915 171.312907 
L 173.6594 171.131486 
L 174.094886 171.786249 
L 174.965857 172.058299 
L 176.272314 171.937944 
L 176.7078 172.15119 
L 177.143285 172.021466 
L 178.014257 172.092225 
L 178.885228 172.278977 
L 179.320713 172.147152 
L 179.756199 172.215487 
L 180.191685 172.032936 
L 180.62717 172.504501 
L 181.498142 172.593353 
L 181.933627 173.8801 
L 182.369113 173.850859 
L 182.804599 173.014676 
L 184.111056 172.807569 
L 184.546541 172.379461 
L 185.417512 172.230673 
L 185.852998 172.115326 
L 186.288484 172.684952 
L 187.159455 171.94683 
L 188.030426 171.818397 
L 188.901398 172.665889 
L 189.336883 172.499331 
L 189.772369 172.463628 
L 190.207855 172.604339 
L 190.64334 172.181077 
L 191.949797 171.982209 
L 192.385283 171.912419 
L 192.820768 172.076231 
L 193.256254 172.072031 
L 193.69174 173.165887 
L 194.562711 173.314351 
L 194.998197 173.03697 
L 195.869168 173.026792 
L 196.740139 172.864434 
L 197.175625 173.135838 
L 198.482082 175.844065 
L 200.224024 175.39964 
L 200.65951 175.572984 
L 201.094996 176.807065 
L 202.401452 177.263767 
L 202.836938 177.60383 
L 203.272424 177.42241 
L 203.707909 177.493007 
L 204.143395 177.163606 
L 204.578881 177.427902 
L 205.014366 177.481375 
L 205.885338 177.428387 
L 206.320823 177.913522 
L 207.62728 178.111905 
L 208.498251 177.892843 
L 209.369223 178.402534 
L 209.804708 178.171679 
L 210.67568 178.111421 
L 211.111165 178.392356 
L 211.546651 177.951809 
L 211.982137 177.786867 
L 212.417622 177.875881 
L 212.853108 178.623373 
L 213.288593 178.619173 
L 213.724079 179.730153 
L 214.59505 179.684434 
L 215.030536 179.907212 
L 215.901507 179.85277 
L 216.336993 179.735969 
L 216.772479 179.392998 
L 218.514421 178.938881 
L 218.949907 178.970867 
L 219.385392 179.2014 
L 220.691849 179.359072 
L 222.433792 179.341302 
L 223.304763 179.46198 
L 223.740249 179.70689 
L 224.61122 179.602852 
L 225.046706 179.852285 
L 225.917677 179.688958 
L 226.353163 180.019005 
L 226.788648 179.869732 
L 227.224134 179.984271 
L 227.65962 179.86634 
L 229.401562 179.925467 
L 230.272533 179.807051 
L 231.143505 180.166823 
L 231.57899 180.042591 
L 232.014476 180.371346 
L 233.320933 180.391701 
L 233.756419 180.361329 
L 234.62739 179.999134 
L 235.062876 178.097043 
L 235.498361 178.091227 
L 235.933847 178.585247 
L 237.240304 178.476686 
L 238.546761 178.26764 
L 238.982246 178.876684 
L 239.417732 178.921918 
L 239.853218 179.13161 
L 240.724189 178.956328 
L 241.159675 180.028859 
L 241.59516 180.062623 
L 242.030646 180.300587 
L 243.772588 180.452121 
L 244.208074 180.569244 
L 246.820988 180.571021 
L 247.256474 181.847914 
L 247.691959 181.808657 
L 248.127445 182.218671 
L 248.56293 181.89654 
L 248.998416 181.8736 
L 249.869387 182.136119 
L 250.740359 182.05809 
L 252.046816 182.456311 
L 252.482301 183.089426 
L 252.917787 182.690236 
L 253.788758 182.63434 
L 254.224244 182.821576 
L 255.095215 182.788782 
L 255.530701 183.338052 
L 255.966186 182.914791 
L 256.401672 182.899767 
L 256.837158 183.658729 
L 257.272643 183.878437 
L 257.708129 183.894915 
L 258.143615 183.423027 
L 259.014586 183.716402 
L 259.450071 183.644836 
L 262.498471 183.886192 
L 262.933957 183.834819 
L 263.369442 183.636435 
L 263.804928 183.266001 
L 264.240414 183.52125 
L 264.675899 183.403157 
L 265.982356 183.880053 
L 266.853327 183.892007 
L 267.288813 183.712364 
L 267.724299 184.453394 
L 269.030756 184.522214 
L 269.466241 184.908642 
L 269.901727 184.884895 
L 271.643669 185.44305 
L 272.079155 185.758073 
L 272.514641 185.787314 
L 272.950126 186.08085 
L 273.385612 185.865988 
L 273.821098 185.886505 
L 275.127555 186.634805 
L 275.998526 186.612996 
L 276.434011 187.291507 
L 276.869497 187.216547 
L 279.046925 187.568242 
L 279.482411 186.99587 
L 279.917897 187.363558 
L 280.353382 187.247888 
L 280.788868 187.318163 
L 281.224354 187.652571 
L 281.659839 187.715091 
L 282.095325 187.658549 
L 282.966296 187.901843 
L 283.401782 187.548695 
L 283.837267 187.839969 
L 284.272753 187.871472 
L 285.143724 188.157739 
L 285.57921 188.283586 
L 286.014696 188.225105 
L 286.450181 188.335767 
L 287.756638 188.221066 
L 288.192124 187.855317 
L 288.627609 187.851924 
L 289.063095 188.184394 
L 289.498581 188.124621 
L 290.369552 188.330759 
L 290.805038 188.383747 
L 291.240523 188.321389 
L 291.676009 188.105396 
L 292.111495 188.174701 
L 292.54698 188.079871 
L 294.724408 188.910885 
L 295.159894 188.71541 
L 295.59538 188.763713 
L 296.030865 188.678253 
L 296.901837 189.292467 
L 297.337322 189.347232 
L 298.643779 189.022355 
L 299.079265 189.154664 
L 299.950236 188.532212 
L 300.385722 188.684553 
L 301.256693 188.544166 
L 301.692179 188.96145 
L 302.127664 188.794892 
L 302.56315 188.417511 
L 303.434121 188.678576 
L 306.047035 188.495378 
L 306.918006 188.642227 
L 307.353492 188.697316 
L 307.788978 188.445136 
L 308.224463 188.410888 
L 308.659949 187.909598 
L 310.401891 188.060001 
L 312.143834 187.69409 
L 312.57932 184.275043 
L 315.192234 184.338047 
L 315.627719 179.161174 
L 316.49869 179.067313 
L 318.676119 179.248088 
L 319.54709 179.258265 
L 319.982576 181.095413 
L 320.418061 181.067303 
L 320.853547 180.893152 
L 324.337432 181.264879 
L 324.772918 180.975705 
L 325.208403 181.04921 
L 325.643889 180.786368 
L 330.434231 180.488308 
L 331.740688 180.333543 
L 332.611659 180.313672 
L 333.047145 180.063593 
L 333.48263 180.400425 
L 333.918116 180.423365 
L 334.789087 180.143721 
L 335.660059 180.12272 
L 336.095544 179.709636 
L 336.966516 179.651317 
L 337.402001 179.720945 
L 337.837487 180.123043 
L 338.272972 180.029829 
L 338.708458 179.661817 
L 339.143944 179.509799 
L 339.579429 179.512545 
L 340.014915 178.961013 
L 340.450401 178.963921 
L 340.885886 179.357942 
L 342.192343 179.890895 
L 342.627829 179.860201 
L 343.063315 180.277485 
L 343.4988 180.282493 
L 343.934286 180.172962 
L 344.805257 180.214965 
L 345.240743 180.177485 
L 345.676228 180.303333 
L 346.5472 180.203818 
L 346.982685 179.98104 
L 347.853657 180.054707 
L 348.289142 180.239844 
L 348.724628 179.681688 
L 349.160114 179.855354 
L 349.595599 179.869248 
L 350.031085 179.525146 
L 350.46657 179.031287 
L 350.902056 179.019817 
L 351.337542 178.884277 
L 351.773027 178.939527 
L 352.643999 178.426605 
L 353.079484 178.458269 
L 353.51497 178.337268 
L 353.950456 178.091873 
L 355.692398 178.114975 
L 356.127884 177.768611 
L 356.563369 178.163763 
L 358.305312 178.364408 
L 358.740798 178.448091 
L 359.611769 178.253262 
L 360.48274 178.304312 
L 360.918226 178.390418 
L 361.789197 178.346961 
L 362.660168 178.461015 
L 363.095654 178.26974 
L 363.966625 178.359077 
L 364.402111 178.75536 
L 365.708568 178.589125 
L 366.579539 178.651321 
L 367.45051 178.891546 
L 367.885996 178.766507 
L 368.321482 179.050673 
L 368.756967 179.012224 
L 369.627939 179.092515 
L 370.934396 179.052935 
L 371.369881 178.891708 
L 371.805367 178.930318 
L 372.240853 178.675231 
L 372.676338 178.830642 
L 373.111824 179.378943 
L 373.982795 179.448248 
L 374.853766 179.308507 
L 376.595709 179.335001 
L 377.031195 179.185083 
L 377.46668 179.501237 
L 377.902166 179.581042 
L 380.079594 179.198815 
L 381.386051 179.264081 
L 382.257022 178.606734 
L 382.692508 178.448899 
L 383.127994 178.410612 
L 383.563479 178.036946 
L 383.998965 177.835493 
L 384.869936 178.378948 
L 385.305422 178.359239 
L 385.740907 178.498333 
L 386.176393 178.363924 
L 386.611879 178.355362 
L 387.48285 179.054389 
L 387.918336 178.867152 
L 389.660278 178.838235 
L 390.095764 178.602049 
L 390.966735 178.559884 
L 392.273192 178.200596 
L 392.708678 178.406734 
L 393.144163 178.368124 
L 393.579649 178.752452 
L 394.45062 178.530159 
L 395.321591 178.586055 
L 395.757077 178.688478 
L 396.192563 178.521435 
L 396.628048 178.809317 
L 397.063534 178.58654 
L 397.49902 182.124649 
L 397.934505 182.193954 
L 398.369991 181.880224 
L 398.805477 182.013018 
L 400.111934 181.873762 
L 400.547419 186.819134 
L 400.982905 186.710734 
L 401.41839 186.837551 
L 402.289362 186.315906 
L 402.724847 186.375518 
L 403.160333 186.316067 
L 403.595819 186.111545 
L 404.031304 186.242723 
L 404.46679 186.541591 
L 404.902276 186.572286 
L 405.337761 186.440945 
L 406.208733 186.436583 
L 406.644218 186.28618 
L 407.079704 183.126906 
L 408.386161 183.17941 
L 408.386161 183.17941 
" style="fill:none;opacity:0.8;stroke:#d62728;stroke-linecap:square;stroke-width:1.5;"/>
   </g>
   <g id="line2d_23">
    <path clip-path="url(#pfab03f4eb2)" d="M 153.627061 142.545999 
L 154.498032 142.712234 
L 154.933518 142.260378 
L 155.369003 142.989292 
L 156.67546 141.966842 
L 157.110946 141.843579 
L 157.546431 141.115634 
L 158.417403 140.465556 
L 158.852888 140.389789 
L 159.288374 140.546331 
L 159.72386 141.018866 
L 160.159345 140.701904 
L 161.030317 141.63938 
L 161.465802 141.760058 
L 161.901288 141.62064 
L 162.336773 141.609816 
L 162.772259 141.475245 
L 163.207745 142.437114 
L 163.64323 142.910294 
L 164.078716 142.770069 
L 164.514202 141.570721 
L 164.949687 142.093982 
L 166.256144 142.341315 
L 166.69163 142.166841 
L 167.127116 141.599638 
L 167.562601 141.805776 
L 167.998087 141.743579 
L 168.433572 141.822901 
L 168.869058 141.752465 
L 169.304544 141.843741 
L 169.740029 142.165064 
L 170.175515 142.061833 
L 170.611001 142.084773 
L 171.046486 141.71757 
L 171.481972 141.540672 
L 171.917458 141.53938 
L 172.352943 141.786552 
L 173.223915 141.275246 
L 173.6594 141.336312 
L 174.094886 140.568302 
L 175.401343 140.512083 
L 175.836828 140.026786 
L 176.7078 139.977675 
L 177.143285 140.181228 
L 177.578771 139.941488 
L 178.014257 139.573315 
L 178.449742 139.024852 
L 178.885228 138.991088 
L 179.320713 138.512415 
L 179.756199 138.477036 
L 180.191685 139.115967 
L 180.62717 138.862333 
L 181.062656 138.908375 
L 181.498142 138.612576 
L 181.933627 138.951024 
L 182.804599 139.254254 
L 183.240084 138.777358 
L 184.111056 138.619685 
L 184.546541 138.282045 
L 184.982027 138.287699 
L 185.417512 138.996258 
L 185.852998 140.494474 
L 186.288484 140.204976 
L 186.723969 140.274766 
L 187.159455 140.717736 
L 188.030426 140.478965 
L 188.465912 140.305945 
L 188.901398 139.977029 
L 189.336883 139.858128 
L 189.772369 139.134706 
L 190.207855 139.220813 
L 190.64334 138.644079 
L 191.514311 139.137614 
L 191.949797 139.103204 
L 192.385283 139.310635 
L 193.256254 138.906113 
L 193.69174 139.073641 
L 194.127225 138.777196 
L 195.869168 139.389471 
L 196.304653 139.000297 
L 196.740139 139.558291 
L 198.046596 139.941003 
L 198.482082 139.731957 
L 198.917567 139.750697 
L 199.353053 139.96152 
L 199.788539 139.958127 
L 200.65951 141.046168 
L 201.094996 141.138736 
L 201.530481 142.155694 
L 202.401452 142.439537 
L 202.836938 142.854398 
L 203.272424 142.850844 
L 203.707909 141.772982 
L 204.143395 142.249231 
L 204.578881 141.769912 
L 205.014366 142.018376 
L 205.885338 142.182834 
L 206.320823 142.708841 
L 206.756309 143.049066 
L 207.62728 142.099959 
L 208.062766 142.101413 
L 208.498251 142.409651 
L 208.933737 142.467324 
L 209.369223 141.656665 
L 209.804708 141.243582 
L 210.67568 140.892049 
L 211.111165 140.876217 
L 211.546651 140.603197 
L 211.982137 140.719029 
L 212.417622 141.09544 
L 212.853108 141.200125 
L 213.288593 140.758285 
L 213.724079 140.787364 
L 214.59505 140.26168 
L 215.030536 139.988176 
L 215.466022 138.999166 
L 215.901507 139.174932 
L 216.336993 139.00062 
L 216.772479 139.15797 
L 218.949907 139.350699 
L 219.385392 139.682038 
L 219.820878 139.731634 
L 220.256364 139.90627 
L 220.691849 140.327754 
L 221.127335 140.956992 
L 222.869278 140.482842 
L 223.304763 140.92969 
L 223.740249 141.181385 
L 224.175735 140.83066 
L 224.61122 142.172495 
L 225.046706 141.949556 
L 225.482191 142.650845 
L 225.917677 142.498019 
L 226.353163 142.519343 
L 226.788648 142.411912 
L 227.224134 142.895916 
L 228.095105 143.395106 
L 228.966077 143.276852 
L 229.401562 143.320793 
L 229.837048 142.242608 
L 230.708019 141.307071 
L 231.143505 141.19964 
L 231.57899 141.231789 
L 232.014476 139.649728 
L 232.449962 139.327436 
L 232.885447 138.804498 
L 233.320933 137.157171 
L 233.756419 137.248932 
L 234.191904 137.14554 
L 234.62739 136.728902 
L 235.062876 136.675106 
L 235.498361 135.899342 
L 235.933847 135.668002 
L 237.240304 135.510491 
L 237.675789 135.490297 
L 238.111275 136.619048 
L 238.982246 136.520018 
L 239.417732 134.870429 
L 240.288703 135.69175 
L 240.724189 134.929557 
L 241.59516 135.173982 
L 242.030646 135.278505 
L 242.466131 136.274138 
L 242.901617 136.156045 
L 243.337103 136.458952 
L 243.772588 135.105808 
L 244.208074 135.004354 
L 244.64356 134.649913 
L 245.950017 134.418412 
L 246.385502 134.316635 
L 246.820988 134.52342 
L 247.256474 134.213243 
L 248.127445 134.23893 
L 248.56293 132.683525 
L 248.998416 132.589826 
L 249.433902 133.85751 
L 249.869387 132.649761 
L 250.740359 132.38595 
L 251.61133 132.531345 
L 252.046816 132.883847 
L 252.482301 132.867369 
L 253.353272 132.581749 
L 253.788758 132.186436 
L 254.224244 132.090636 
L 254.659729 130.385313 
L 255.095215 130.205993 
L 255.530701 129.809064 
L 255.966186 129.646544 
L 256.401672 129.821826 
L 257.272643 129.388226 
L 257.708129 127.506005 
L 258.143615 127.206491 
L 258.5791 124.412482 
L 259.014586 124.794871 
L 259.450071 124.067249 
L 259.885557 124.065149 
L 260.321043 123.273877 
L 260.756528 123.617978 
L 261.192014 123.543827 
L 262.062985 123.05853 
L 262.498471 123.208933 
L 263.369442 124.172095 
L 263.804928 124.142693 
L 264.240414 124.660138 
L 264.675899 124.621366 
L 265.111385 123.944633 
L 265.54687 124.13817 
L 265.982356 124.125407 
L 266.417842 122.567256 
L 267.288813 122.202799 
L 267.724299 120.854502 
L 268.159784 121.146585 
L 268.59527 120.905713 
L 269.030756 120.284876 
L 269.466241 120.484714 
L 270.337212 120.250466 
L 270.772698 118.911377 
L 271.643669 118.609763 
L 272.079155 118.310895 
L 272.514641 118.442235 
L 272.950126 117.839169 
L 273.385612 118.692638 
L 274.256583 119.043848 
L 274.692069 119.808303 
L 275.127555 120.132373 
L 275.998526 120.012826 
L 276.434011 119.965007 
L 276.869497 120.090047 
L 277.304983 118.865335 
L 277.740468 119.303136 
L 278.175954 119.252894 
L 278.61144 119.044817 
L 279.046925 119.383103 
L 279.482411 118.832379 
L 279.917897 117.273582 
L 280.353382 117.189737 
L 281.224354 117.742077 
L 281.659839 117.733838 
L 282.095325 117.545632 
L 282.53081 117.523823 
L 282.966296 116.457592 
L 283.401782 116.447091 
L 283.837267 116.591356 
L 284.272753 116.576816 
L 284.708239 116.447576 
L 285.143724 116.198143 
L 285.57921 115.668904 
L 286.014696 114.169881 
L 286.450181 113.952919 
L 286.885667 113.055185 
L 287.321152 113.0463 
L 287.756638 111.633544 
L 288.192124 111.357939 
L 288.627609 112.506561 
L 289.063095 112.702521 
L 290.369552 112.470212 
L 290.805038 112.107693 
L 291.240523 112.172313 
L 291.676009 111.105598 
L 292.111495 111.610927 
L 292.54698 111.869568 
L 292.982466 111.895417 
L 293.417951 112.082653 
L 293.853437 111.737905 
L 294.288923 112.636932 
L 294.724408 112.189115 
L 295.159894 111.96973 
L 295.59538 112.187661 
L 296.030865 112.240649 
L 296.466351 112.550341 
L 296.901837 112.600583 
L 297.337322 112.345334 
L 297.772808 112.272151 
L 298.208294 111.611411 
L 298.643779 111.687502 
L 299.079265 110.590415 
L 299.950236 111.545337 
L 300.385722 112.628369 
L 300.821207 112.49299 
L 301.256693 112.174252 
L 301.692179 112.090892 
L 302.127664 112.286691 
L 302.998636 112.397514 
L 303.434121 112.615607 
L 303.869607 112.478612 
L 304.305092 112.488629 
L 305.611549 109.892518 
L 306.047035 108.543898 
L 306.482521 108.701086 
L 306.918006 108.498987 
L 307.353492 107.333402 
L 307.788978 107.646002 
L 308.224463 107.051982 
L 308.659949 106.947944 
L 309.095435 105.749565 
L 309.53092 105.733248 
L 309.966406 105.372992 
L 310.837377 105.40934 
L 311.272863 105.147629 
L 312.143834 105.337935 
L 313.014805 105.191409 
L 313.450291 105.496093 
L 313.885777 105.374284 
L 314.321262 105.384946 
L 314.756748 106.495442 
L 315.192234 106.982193 
L 315.627719 105.962165 
L 316.063205 106.004976 
L 316.49869 105.667013 
L 316.934176 107.213855 
L 317.369662 105.999322 
L 317.805147 106.494634 
L 318.240633 107.914983 
L 318.676119 107.968456 
L 319.54709 108.878468 
L 319.982576 107.453596 
L 320.418061 108.346968 
L 322.595489 108.390425 
L 323.030975 108.91207 
L 323.466461 108.904316 
L 323.901946 108.762798 
L 324.337432 110.44712 
L 324.772918 109.89381 
L 325.208403 109.890095 
L 325.643889 109.075721 
L 326.079375 108.926287 
L 326.51486 109.225962 
L 327.385831 109.352779 
L 327.821317 109.703989 
L 328.256803 109.463926 
L 328.692288 110.157137 
L 329.127774 110.271353 
L 329.56326 110.57426 
L 329.998745 110.117234 
L 330.869717 110.029028 
L 331.305202 109.842761 
L 331.740688 109.398498 
L 332.176174 109.667156 
L 332.611659 109.109485 
L 333.047145 109.332424 
L 333.48263 110.943402 
L 333.918116 111.426275 
L 334.353602 111.604949 
L 334.789087 111.495095 
L 335.224573 111.173934 
L 336.095544 111.158586 
L 336.53103 111.08395 
L 336.966516 110.886051 
L 337.402001 110.849703 
L 337.837487 111.141301 
L 338.272972 111.19122 
L 338.708458 111.632251 
L 339.143944 111.547276 
L 339.579429 112.65131 
L 340.014915 112.855832 
L 340.450401 113.35583 
L 341.321372 113.421096 
L 341.756858 113.055023 
L 342.192343 113.070532 
L 342.627829 115.207194 
L 343.063315 115.700245 
L 343.4988 118.453059 
L 344.369771 119.051602 
L 344.805257 118.519456 
L 346.5472 118.873251 
L 346.982685 118.098134 
L 347.853657 114.652593 
L 349.160114 113.696216 
L 349.595599 112.930307 
L 350.031085 113.449529 
L 350.902056 113.12142 
L 351.337542 114.747422 
L 352.208513 115.010103 
L 352.643999 116.302827 
L 353.079484 116.519304 
L 353.51497 116.189096 
L 353.950456 116.85032 
L 354.385941 116.734651 
L 354.821427 116.836589 
L 355.256912 116.709449 
L 355.692398 117.895873 
L 356.563369 117.229317 
L 356.998855 117.389736 
L 357.434341 117.1046 
L 357.869826 117.430932 
L 358.740798 117.065505 
L 360.047255 116.343053 
L 360.48274 117.103954 
L 361.353711 117.112678 
L 361.789197 116.837558 
L 362.224683 117.800235 
L 362.660168 117.697974 
L 363.53114 117.798943 
L 363.966625 117.685858 
L 364.402111 118.265823 
L 364.837597 119.609597 
L 365.708568 119.302167 
L 367.015025 119.70378 
L 367.45051 119.615412 
L 367.885996 120.476959 
L 368.321482 120.58439 
L 368.756967 120.167268 
L 370.063424 120.418963 
L 370.49891 119.898287 
L 370.934396 121.282933 
L 371.369881 121.359184 
L 371.805367 122.084868 
L 372.240853 121.172109 
L 372.676338 122.580019 
L 373.111824 122.792619 
L 373.547309 122.064997 
L 373.982795 121.820895 
L 374.418281 122.11427 
L 374.853766 122.102638 
L 375.724738 122.591489 
L 376.160223 122.369034 
L 376.595709 123.256752 
L 377.031195 123.241405 
L 377.46668 123.653035 
L 378.337651 123.307156 
L 378.773137 123.601016 
L 379.208623 123.54415 
L 380.079594 124.279688 
L 380.950565 122.770325 
L 382.257022 122.794073 
L 382.692508 122.772587 
L 383.127994 124.087928 
L 383.563479 123.356106 
L 383.998965 124.75206 
L 384.43445 124.582756 
L 384.869936 123.706992 
L 385.740907 123.620078 
L 386.176393 123.718947 
L 387.48285 123.512971 
L 388.353821 123.224604 
L 388.789307 123.279208 
L 389.224793 122.922344 
L 390.095764 124.080012 
L 390.966735 126.218612 
L 391.402221 125.794705 
L 391.837706 126.036222 
L 392.273192 127.221031 
L 392.708678 127.002938 
L 393.144163 127.614405 
L 393.579649 127.523291 
L 394.015135 128.5997 
L 394.45062 128.596792 
L 394.886106 129.248485 
L 395.321591 129.170618 
L 395.757077 129.251393 
L 396.192563 129.483379 
L 397.063534 129.30115 
L 397.934505 129.571747 
L 399.240962 129.324413 
L 399.676448 129.356077 
L 400.111934 128.834109 
L 400.547419 130.199854 
L 400.982905 130.146704 
L 401.41839 130.319239 
L 401.853876 130.29323 
L 402.289362 131.737488 
L 402.724847 131.684176 
L 403.160333 131.91907 
L 404.031304 131.583207 
L 404.46679 130.934099 
L 404.902276 131.928117 
L 405.773247 132.065434 
L 406.208733 131.23119 
L 406.644218 131.121012 
L 407.079704 131.135067 
L 407.515189 131.625533 
L 408.386161 131.301141 
L 408.386161 131.301141 
" style="fill:none;opacity:0.8;stroke:#9467bd;stroke-linecap:square;stroke-width:1.5;"/>
   </g>
   <g id="patch_3">
    <path d="M 68.271875 288.430125 
L 68.271875 22.318125 
" style="fill:none;stroke:#000000;stroke-linecap:square;stroke-linejoin:miter;stroke-width:0.8;"/>
   </g>
   <g id="patch_4">
    <path d="M 425.391875 288.430125 
L 425.391875 22.318125 
" style="fill:none;stroke:#000000;stroke-linecap:square;stroke-linejoin:miter;stroke-width:0.8;"/>
   </g>
   <g id="patch_5">
    <path d="M 68.271875 288.430125 
L 425.391875 288.430125 
" style="fill:none;stroke:#000000;stroke-linecap:square;stroke-linejoin:miter;stroke-width:0.8;"/>
   </g>
   <g id="patch_6">
    <path d="M 68.271875 22.318125 
L 425.391875 22.318125 
" style="fill:none;stroke:#000000;stroke-linecap:square;stroke-linejoin:miter;stroke-width:0.8;"/>
   </g>
   <g id="text_21">
    <!-- Get ancestors [branch] -->
    <defs>
     <path d="M 59.515625 10.40625 
L 59.515625 29.984375 
L 43.40625 29.984375 
L 43.40625 38.09375 
L 69.28125 38.09375 
L 69.28125 6.78125 
Q 63.578125 2.734375 56.6875 0.65625 
Q 49.8125 -1.421875 42 -1.421875 
Q 24.90625 -1.421875 15.25 8.5625 
Q 5.609375 18.5625 5.609375 36.375 
Q 5.609375 54.25 15.25 64.234375 
Q 24.90625 74.21875 42 74.21875 
Q 49.125 74.21875 55.546875 72.453125 
Q 61.96875 70.703125 67.390625 67.28125 
L 67.390625 56.78125 
Q 61.921875 61.421875 55.765625 63.765625 
Q 49.609375 66.109375 42.828125 66.109375 
Q 29.4375 66.109375 22.71875 58.640625 
Q 16.015625 51.171875 16.015625 36.375 
Q 16.015625 21.625 22.71875 14.15625 
Q 29.4375 6.6875 42.828125 6.6875 
Q 48.046875 6.6875 52.140625 7.59375 
Q 56.25 8.5 59.515625 10.40625 
z
" id="DejaVuSans-47"/>
     <path d="M 41.109375 46.296875 
Q 39.59375 47.171875 37.8125 47.578125 
Q 36.03125 48 33.890625 48 
Q 26.265625 48 22.1875 43.046875 
Q 18.109375 38.09375 18.109375 28.8125 
L 18.109375 0 
L 9.078125 0 
L 9.078125 54.6875 
L 18.109375 54.6875 
L 18.109375 46.1875 
Q 20.953125 51.171875 25.484375 53.578125 
Q 30.03125 56 36.53125 56 
Q 37.453125 56 38.578125 55.875 
Q 39.703125 55.765625 41.0625 55.515625 
z
" id="DejaVuSans-72"/>
     <path d="M 8.59375 75.984375 
L 29.296875 75.984375 
L 29.296875 69 
L 17.578125 69 
L 17.578125 -6.203125 
L 29.296875 -6.203125 
L 29.296875 -13.1875 
L 8.59375 -13.1875 
z
" id="DejaVuSans-5b"/>
     <path d="M 54.890625 33.015625 
L 54.890625 0 
L 45.90625 0 
L 45.90625 32.71875 
Q 45.90625 40.484375 42.875 44.328125 
Q 39.84375 48.1875 33.796875 48.1875 
Q 26.515625 48.1875 22.3125 43.546875 
Q 18.109375 38.921875 18.109375 30.90625 
L 18.109375 0 
L 9.078125 0 
L 9.078125 75.984375 
L 18.109375 75.984375 
L 18.109375 46.1875 
Q 21.34375 51.125 25.703125 53.5625 
Q 30.078125 56 35.796875 56 
Q 45.21875 56 50.046875 50.171875 
Q 54.890625 44.34375 54.890625 33.015625 
z
" id="DejaVuSans-68"/>
     <path d="M 30.421875 75.984375 
L 30.421875 -13.1875 
L 9.71875 -13.1875 
L 9.71875 -6.203125 
L 21.390625 -6.203125 
L 21.390625 69 
L 9.71875 69 
L 9.71875 75.984375 
z
" id="DejaVuSans-5d"/>
    </defs>
    <g transform="translate(177.575 16.318125)scale(0.12 -0.12)">
     <use xlink:href="#DejaVuSans-47"/>
     <use x="77.490234" xlink:href="#DejaVuSans-65"/>
     <use x="139.013672" xlink:href="#DejaVuSans-74"/>
     <use x="178.222656" xlink:href="#DejaVuSans-20"/>
     <use x="210.009766" xlink:href="#DejaVuSans-61"/>
     <use x="271.289062" xlink:href="#DejaVuSans-6e"/>
     <use x="334.667969" xlink:href="#DejaVuSans-63"/>
     <use x="389.648438" xlink:href="#DejaVuSans-65"/>
     <use x="451.171875" xlink:href="#DejaVuSans-73"/>
     <use x="503.271484" xlink:href="#DejaVuSans-74"/>
     <use x="542.480469" xlink:href="#DejaVuSans-6f"/>
     <use x="603.662109" xlink:href="#DejaVuSans-72"/>
     <use x="644.775391" xlink:href="#DejaVuSans-73"/>
     <use x="696.875" xlink:href="#DejaVuSans-20"/>
     <use x="728.662109" xlink:href="#DejaVuSans-5b"/>
     <use x="767.675781" xlink:href="#DejaVuSans-62"/>
     <use x="831.152344" xlink:href="#DejaVuSans-72"/>
     <use x="872.265625" xlink:href="#DejaVuSans-61"/>
     <use x="933.544922" xlink:href="#DejaVuSans-6e"/>
     <use x="996.923828" xlink:href="#DejaVuSans-63"/>
     <use x="1051.904297" xlink:href="#DejaVuSans-68"/>
     <use x="1115.283203" xlink:href="#DejaVuSans-5d"/>
    </g>
   </g>
   <g id="legend_1">
    <g id="patch_7">
     <path d="M 98.792188 365.802375 
L 387.351562 365.802375 
Q 389.351562 365.802375 389.351562 363.802375 
L 389.351562 335.446125 
Q 389.351562 333.446125 387.351562 333.446125 
L 98.792188 333.446125 
Q 96.792188 333.446125 96.792188 335.446125 
L 96.792188 363.802375 
Q 96.792188 365.802375 98.792188 365.802375 
z
" style="fill:#4c4c4c;opacity:0.5;stroke:#4c4c4c;stroke-linejoin:miter;"/>
    </g>
    <g id="patch_8">
     <path d="M 96.792188 363.802375 
L 385.351562 363.802375 
Q 387.351562 363.802375 387.351562 361.802375 
L 387.351562 333.446125 
Q 387.351562 331.446125 385.351562 331.446125 
L 96.792188 331.446125 
Q 94.792188 331.446125 94.792188 333.446125 
L 94.792188 361.802375 
Q 94.792188 363.802375 96.792188 363.802375 
z
" style="fill:#ffffff;stroke:#cccccc;stroke-linejoin:miter;"/>
    </g>
    <g id="line2d_24">
     <path d="M 98.792188 339.544562 
L 118.792188 339.544562 
" style="fill:none;opacity:0.8;stroke:#1f77b4;stroke-linecap:square;stroke-width:1.5;"/>
    </g>
    <g id="line2d_25"/>
    <g id="text_22">
     <!-- MPTT -->
     <defs>
      <path d="M 9.8125 72.90625 
L 24.515625 72.90625 
L 43.109375 23.296875 
L 61.8125 72.90625 
L 76.515625 72.90625 
L 76.515625 0 
L 66.890625 0 
L 66.890625 64.015625 
L 48.09375 14.015625 
L 38.1875 14.015625 
L 19.390625 64.015625 
L 19.390625 0 
L 9.8125 0 
z
" id="DejaVuSans-4d"/>
      <path d="M 19.671875 64.796875 
L 19.671875 37.40625 
L 32.078125 37.40625 
Q 38.96875 37.40625 42.71875 40.96875 
Q 46.484375 44.53125 46.484375 51.125 
Q 46.484375 57.671875 42.71875 61.234375 
Q 38.96875 64.796875 32.078125 64.796875 
z
M 9.8125 72.90625 
L 32.078125 72.90625 
Q 44.34375 72.90625 50.609375 67.359375 
Q 56.890625 61.8125 56.890625 51.125 
Q 56.890625 40.328125 50.609375 34.8125 
Q 44.34375 29.296875 32.078125 29.296875 
L 19.671875 29.296875 
L 19.671875 0 
L 9.8125 0 
z
" id="DejaVuSans-50"/>
      <path d="M -0.296875 72.90625 
L 61.375 72.90625 
L 61.375 64.59375 
L 35.5 64.59375 
L 35.5 0 
L 25.59375 0 
L 25.59375 64.59375 
L -0.296875 64.59375 
z
" id="DejaVuSans-54"/>
     </defs>
     <g transform="translate(126.792188 343.044562)scale(0.1 -0.1)">
      <use xlink:href="#DejaVuSans-4d"/>
      <use x="86.279297" xlink:href="#DejaVuSans-50"/>
      <use x="146.582031" xlink:href="#DejaVuSans-54"/>
      <use x="207.650391" xlink:href="#DejaVuSans-54"/>
     </g>
    </g>
    <g id="line2d_26">
     <path d="M 98.792188 354.222687 
L 118.792188 354.222687 
" style="fill:none;opacity:0.8;stroke:#ff7f0e;stroke-linecap:square;stroke-width:1.5;"/>
    </g>
    <g id="line2d_27"/>
    <g id="text_23">
     <!-- tree -->
     <g transform="translate(126.792188 357.722687)scale(0.1 -0.1)">
      <use xlink:href="#DejaVuSans-74"/>
      <use x="39.208984" xlink:href="#DejaVuSans-72"/>
      <use x="80.291016" xlink:href="#DejaVuSans-65"/>
      <use x="141.814453" xlink:href="#DejaVuSans-65"/>
     </g>
    </g>
    <g id="line2d_28">
     <path d="M 173.664062 339.544562 
L 193.664062 339.544562 
" style="fill:none;opacity:0.8;stroke:#2ca02c;stroke-linecap:square;stroke-width:1.5;"/>
    </g>
    <g id="line2d_29"/>
    <g id="text_24">
     <!-- treebeard AL -->
     <defs>
      <path d="M 9.8125 72.90625 
L 19.671875 72.90625 
L 19.671875 8.296875 
L 55.171875 8.296875 
L 55.171875 0 
L 9.8125 0 
z
" id="DejaVuSans-4c"/>
     </defs>
     <g transform="translate(201.664062 343.044562)scale(0.1 -0.1)">
      <use xlink:href="#DejaVuSans-74"/>
      <use x="39.208984" xlink:href="#DejaVuSans-72"/>
      <use x="80.291016" xlink:href="#DejaVuSans-65"/>
      <use x="141.814453" xlink:href="#DejaVuSans-65"/>
      <use x="203.337891" xlink:href="#DejaVuSans-62"/>
      <use x="266.814453" xlink:href="#DejaVuSans-65"/>
      <use x="328.337891" xlink:href="#DejaVuSans-61"/>
      <use x="389.617188" xlink:href="#DejaVuSans-72"/>
      <use x="430.714844" xlink:href="#DejaVuSans-64"/>
      <use x="494.191406" xlink:href="#DejaVuSans-20"/>
      <use x="525.978516" xlink:href="#DejaVuSans-41"/>
      <use x="594.386719" xlink:href="#DejaVuSans-4c"/>
     </g>
    </g>
    <g id="line2d_30">
     <path d="M 173.664062 354.222687 
L 193.664062 354.222687 
" style="fill:none;opacity:0.8;stroke:#d62728;stroke-linecap:square;stroke-width:1.5;"/>
    </g>
    <g id="line2d_31"/>
    <g id="text_25">
     <!-- treebeard MP -->
     <g transform="translate(201.664062 357.722687)scale(0.1 -0.1)">
      <use xlink:href="#DejaVuSans-74"/>
      <use x="39.208984" xlink:href="#DejaVuSans-72"/>
      <use x="80.291016" xlink:href="#DejaVuSans-65"/>
      <use x="141.814453" xlink:href="#DejaVuSans-65"/>
      <use x="203.337891" xlink:href="#DejaVuSans-62"/>
      <use x="266.814453" xlink:href="#DejaVuSans-65"/>
      <use x="328.337891" xlink:href="#DejaVuSans-61"/>
      <use x="389.617188" xlink:href="#DejaVuSans-72"/>
      <use x="430.714844" xlink:href="#DejaVuSans-64"/>
      <use x="494.191406" xlink:href="#DejaVuSans-20"/>
      <use x="525.978516" xlink:href="#DejaVuSans-4d"/>
      <use x="612.257812" xlink:href="#DejaVuSans-50"/>
     </g>
    </g>
    <g id="line2d_32">
     <path d="M 288.921875 339.544562 
L 308.921875 339.544562 
" style="fill:none;opacity:0.8;stroke:#9467bd;stroke-linecap:square;stroke-width:1.5;"/>
    </g>
    <g id="line2d_33"/>
    <g id="text_26">
     <!-- treebeard NS -->
     <defs>
      <path d="M 9.8125 72.90625 
L 23.09375 72.90625 
L 55.421875 11.921875 
L 55.421875 72.90625 
L 64.984375 72.90625 
L 64.984375 0 
L 51.703125 0 
L 19.390625 60.984375 
L 19.390625 0 
L 9.8125 0 
z
" id="DejaVuSans-4e"/>
      <path d="M 53.515625 70.515625 
L 53.515625 60.890625 
Q 47.90625 63.578125 42.921875 64.890625 
Q 37.9375 66.21875 33.296875 66.21875 
Q 25.25 66.21875 20.875 63.09375 
Q 16.5 59.96875 16.5 54.203125 
Q 16.5 49.359375 19.40625 46.890625 
Q 22.3125 44.4375 30.421875 42.921875 
L 36.375 41.703125 
Q 47.40625 39.59375 52.65625 34.296875 
Q 57.90625 29 57.90625 20.125 
Q 57.90625 9.515625 50.796875 4.046875 
Q 43.703125 -1.421875 29.984375 -1.421875 
Q 24.8125 -1.421875 18.96875 -0.25 
Q 13.140625 0.921875 6.890625 3.21875 
L 6.890625 13.375 
Q 12.890625 10.015625 18.65625 8.296875 
Q 24.421875 6.59375 29.984375 6.59375 
Q 38.421875 6.59375 43.015625 9.90625 
Q 47.609375 13.234375 47.609375 19.390625 
Q 47.609375 24.75 44.3125 27.78125 
Q 41.015625 30.8125 33.5 32.328125 
L 27.484375 33.5 
Q 16.453125 35.6875 11.515625 40.375 
Q 6.59375 45.0625 6.59375 53.421875 
Q 6.59375 63.09375 13.40625 68.65625 
Q 20.21875 74.21875 32.171875 74.21875 
Q 37.3125 74.21875 42.625 73.28125 
Q 47.953125 72.359375 53.515625 70.515625 
z
" id="DejaVuSans-53"/>
     </defs>
     <g transform="translate(316.921875 343.044562)scale(0.1 -0.1)">
      <use xlink:href="#DejaVuSans-74"/>
      <use x="39.208984" xlink:href="#DejaVuSans-72"/>
      <use x="80.291016" xlink:href="#DejaVuSans-65"/>
      <use x="141.814453" xlink:href="#DejaVuSans-65"/>
      <use x="203.337891" xlink:href="#DejaVuSans-62"/>
      <use x="266.814453" xlink:href="#DejaVuSans-65"/>
      <use x="328.337891" xlink:href="#DejaVuSans-61"/>
      <use x="389.617188" xlink:href="#DejaVuSans-72"/>
      <use x="430.714844" xlink:href="#DejaVuSans-64"/>
      <use x="494.191406" xlink:href="#DejaVuSans-20"/>
      <use x="525.978516" xlink:href="#DejaVuSans-4e"/>
      <use x="600.783203" xlink:href="#DejaVuSans-53"/>
     </g>
    </g>
   </g>
  </g>
 </g>
 <defs>
  <clipPath id="pfab03f4eb2">
   <rect height="266.112" width="357.12" x="68.271875" y="22.318125"/>
  </clipPath>
 </defs>
</svg>
