<?xml version="1.0" encoding="utf-8" standalone="no"?>
<!DOCTYPE svg PUBLIC "-//W3C//DTD SVG 1.1//EN"
  "http://www.w3.org/Graphics/SVG/1.1/DTD/svg11.dtd">
<svg xmlns:xlink="http://www.w3.org/1999/xlink" width="426.035625pt" height="371.002375pt" viewBox="0 0 426.035625 371.002375" xmlns="http://www.w3.org/2000/svg" version="1.1">
 <metadata>
  <rdf:RDF xmlns:dc="http://purl.org/dc/elements/1.1/" xmlns:cc="http://creativecommons.org/ns#" xmlns:rdf="http://www.w3.org/1999/02/22-rdf-syntax-ns#">
   <cc:Work>
    <dc:type rdf:resource="http://purl.org/dc/dcmitype/StillImage"/>
    <dc:date>2026-06-29T06:11:42.665522</dc:date>
    <dc:format>image/svg+xml</dc:format>
    <dc:creator>
     <cc:Agent>
      <dc:title>Matplotlib v3.10.6, https://matplotlib.org/</dc:title>
     </cc:Agent>
    </dc:creator>
   </cc:Work>
  </rdf:RDF>
 </metadata>
 <defs>
  <style type="text/css">*{stroke-linejoin: round; stroke-linecap: butt}</style>
 </defs>
 <g id="figure_1">
  <g id="patch_1">
   <path d="M 0 371.002375 
L 426.035625 371.002375 
L 426.035625 0 
L 0 0 
z
" style="fill: #ffffff"/>
  </g>
  <g id="axes_1">
   <g id="patch_2">
    <path d="M 61.715625 288.430125 
L 418.835625 288.430125 
L 418.835625 22.318125 
L 61.715625 22.318125 
z
" style="fill: #ffffff"/>
   </g>
   <g id="matplotlib.axis_1">
    <g id="xtick_1">
     <g id="line2d_1">
      <defs>
       <path id="m7fa179d139" d="M 0 0 
L 0 3.5 
" style="stroke: #000000; stroke-width: 0.8"/>
      </defs>
      <g>
       <use xlink:href="#m7fa179d139" x="61.715625" y="288.430125" style="stroke: #000000; stroke-width: 0.8"/>
      </g>
     </g>
     <g id="text_1">
      <!-- 0 -->
      <g transform="translate(58.534375 303.028562) scale(0.1 -0.1)">
       <defs>
        <path id="DejaVuSans-30" d="M 2034 4250 
Q 1547 4250 1301 3770 
Q 1056 3291 1056 2328 
Q 1056 1369 1301 889 
Q 1547 409 2034 409 
Q 2525 409 2770 889 
Q 3016 1369 3016 2328 
Q 3016 3291 2770 3770 
Q 2525 4250 2034 4250 
z
M 2034 4750 
Q 2819 4750 3233 4129 
Q 3647 3509 3647 2328 
Q 3647 1150 3233 529 
Q 2819 -91 2034 -91 
Q 1250 -91 836 529 
Q 422 1150 422 2328 
Q 422 3509 836 4129 
Q 1250 4750 2034 4750 
z
" transform="scale(0.015625)"/>
       </defs>
       <use xlink:href="#DejaVuSans-30"/>
      </g>
     </g>
    </g>
    <g id="xtick_2">
     <g id="line2d_2">
      <g>
       <use xlink:href="#m7fa179d139" x="105.264189" y="288.430125" style="stroke: #000000; stroke-width: 0.8"/>
      </g>
     </g>
     <g id="text_2">
      <!-- 500  -->
      <g transform="translate(94.131377 303.028562) scale(0.1 -0.1)">
       <defs>
        <path id="DejaVuSans-35" d="M 691 4666 
L 3169 4666 
L 3169 4134 
L 1269 4134 
L 1269 2991 
Q 1406 3038 1543 3061 
Q 1681 3084 1819 3084 
Q 2600 3084 3056 2656 
Q 3513 2228 3513 1497 
Q 3513 744 3044 326 
Q 2575 -91 1722 -91 
Q 1428 -91 1123 -41 
Q 819 9 494 109 
L 494 744 
Q 775 591 1075 516 
Q 1375 441 1709 441 
Q 2250 441 2565 725 
Q 2881 1009 2881 1497 
Q 2881 1984 2565 2268 
Q 2250 2553 1709 2553 
Q 1456 2553 1204 2497 
Q 953 2441 691 2322 
L 691 4666 
z
" transform="scale(0.015625)"/>
        <path id="DejaVuSans-20" transform="scale(0.015625)"/>
       </defs>
       <use xlink:href="#DejaVuSans-35"/>
       <use xlink:href="#DejaVuSans-30" transform="translate(63.623047 0)"/>
       <use xlink:href="#DejaVuSans-30" transform="translate(127.246094 0)"/>
       <use xlink:href="#DejaVuSans-20" transform="translate(190.869141 0)"/>
      </g>
     </g>
    </g>
    <g id="xtick_3">
     <g id="line2d_3">
      <g>
       <use xlink:href="#m7fa179d139" x="148.812753" y="288.430125" style="stroke: #000000; stroke-width: 0.8"/>
      </g>
     </g>
     <g id="text_3">
      <!-- 1 k -->
      <g transform="translate(141.147128 303.028562) scale(0.1 -0.1)">
       <defs>
        <path id="DejaVuSans-31" d="M 794 531 
L 1825 531 
L 1825 4091 
L 703 3866 
L 703 4441 
L 1819 4666 
L 2450 4666 
L 2450 531 
L 3481 531 
L 3481 0 
L 794 0 
L 794 531 
z
" transform="scale(0.015625)"/>
        <path id="DejaVuSans-6b" d="M 581 4863 
L 1159 4863 
L 1159 1991 
L 2875 3500 
L 3609 3500 
L 1753 1863 
L 3688 0 
L 2938 0 
L 1159 1709 
L 1159 0 
L 581 0 
L 581 4863 
z
" transform="scale(0.015625)"/>
       </defs>
       <use xlink:href="#DejaVuSans-31"/>
       <use xlink:href="#DejaVuSans-20" transform="translate(63.623047 0)"/>
       <use xlink:href="#DejaVuSans-6b" transform="translate(95.410156 0)"/>
      </g>
     </g>
    </g>
    <g id="xtick_4">
     <g id="line2d_4">
      <g>
       <use xlink:href="#m7fa179d139" x="192.361317" y="288.430125" style="stroke: #000000; stroke-width: 0.8"/>
      </g>
     </g>
     <g id="text_4">
      <!-- 1.5 k -->
      <g transform="translate(179.92538 303.028562) scale(0.1 -0.1)">
       <defs>
        <path id="DejaVuSans-2e" d="M 684 794 
L 1344 794 
L 1344 0 
L 684 0 
L 684 794 
z
" transform="scale(0.015625)"/>
       </defs>
       <use xlink:href="#DejaVuSans-31"/>
       <use xlink:href="#DejaVuSans-2e" transform="translate(63.623047 0)"/>
       <use xlink:href="#DejaVuSans-35" transform="translate(95.410156 0)"/>
       <use xlink:href="#DejaVuSans-20" transform="translate(159.033203 0)"/>
       <use xlink:href="#DejaVuSans-6b" transform="translate(190.820312 0)"/>
      </g>
     </g>
    </g>
    <g id="xtick_5">
     <g id="line2d_5">
      <g>
       <use xlink:href="#m7fa179d139" x="235.909881" y="288.430125" style="stroke: #000000; stroke-width: 0.8"/>
      </g>
     </g>
     <g id="text_5">
      <!-- 2 k -->
      <g transform="translate(228.244256 303.028562) scale(0.1 -0.1)">
       <defs>
        <path id="DejaVuSans-32" d="M 1228 531 
L 3431 531 
L 3431 0 
L 469 0 
L 469 531 
Q 828 903 1448 1529 
Q 2069 2156 2228 2338 
Q 2531 2678 2651 2914 
Q 2772 3150 2772 3378 
Q 2772 3750 2511 3984 
Q 2250 4219 1831 4219 
Q 1534 4219 1204 4116 
Q 875 4013 500 3803 
L 500 4441 
Q 881 4594 1212 4672 
Q 1544 4750 1819 4750 
Q 2544 4750 2975 4387 
Q 3406 4025 3406 3419 
Q 3406 3131 3298 2873 
Q 3191 2616 2906 2266 
Q 2828 2175 2409 1742 
Q 1991 1309 1228 531 
z
" transform="scale(0.015625)"/>
       </defs>
       <use xlink:href="#DejaVuSans-32"/>
       <use xlink:href="#DejaVuSans-20" transform="translate(63.623047 0)"/>
       <use xlink:href="#DejaVuSans-6b" transform="translate(95.410156 0)"/>
      </g>
     </g>
    </g>
    <g id="xtick_6">
     <g id="line2d_6">
      <g>
       <use xlink:href="#m7fa179d139" x="279.458446" y="288.430125" style="stroke: #000000; stroke-width: 0.8"/>
      </g>
     </g>
     <g id="text_6">
      <!-- 2.5 k -->
      <g transform="translate(267.022508 303.028562) scale(0.1 -0.1)">
       <use xlink:href="#DejaVuSans-32"/>
       <use xlink:href="#DejaVuSans-2e" transform="translate(63.623047 0)"/>
       <use xlink:href="#DejaVuSans-35" transform="translate(95.410156 0)"/>
       <use xlink:href="#DejaVuSans-20" transform="translate(159.033203 0)"/>
       <use xlink:href="#DejaVuSans-6b" transform="translate(190.820312 0)"/>
      </g>
     </g>
    </g>
    <g id="xtick_7">
     <g id="line2d_7">
      <g>
       <use xlink:href="#m7fa179d139" x="323.00701" y="288.430125" style="stroke: #000000; stroke-width: 0.8"/>
      </g>
     </g>
     <g id="text_7">
      <!-- 3 k -->
      <g transform="translate(315.341385 303.028562) scale(0.1 -0.1)">
       <defs>
        <path id="DejaVuSans-33" d="M 2597 2516 
Q 3050 2419 3304 2112 
Q 3559 1806 3559 1356 
Q 3559 666 3084 287 
Q 2609 -91 1734 -91 
Q 1441 -91 1130 -33 
Q 819 25 488 141 
L 488 750 
Q 750 597 1062 519 
Q 1375 441 1716 441 
Q 2309 441 2620 675 
Q 2931 909 2931 1356 
Q 2931 1769 2642 2001 
Q 2353 2234 1838 2234 
L 1294 2234 
L 1294 2753 
L 1863 2753 
Q 2328 2753 2575 2939 
Q 2822 3125 2822 3475 
Q 2822 3834 2567 4026 
Q 2313 4219 1838 4219 
Q 1578 4219 1281 4162 
Q 984 4106 628 3988 
L 628 4550 
Q 988 4650 1302 4700 
Q 1616 4750 1894 4750 
Q 2613 4750 3031 4423 
Q 3450 4097 3450 3541 
Q 3450 3153 3228 2886 
Q 3006 2619 2597 2516 
z
" transform="scale(0.015625)"/>
       </defs>
       <use xlink:href="#DejaVuSans-33"/>
       <use xlink:href="#DejaVuSans-20" transform="translate(63.623047 0)"/>
       <use xlink:href="#DejaVuSans-6b" transform="translate(95.410156 0)"/>
      </g>
     </g>
    </g>
    <g id="xtick_8">
     <g id="line2d_8">
      <g>
       <use xlink:href="#m7fa179d139" x="366.555574" y="288.430125" style="stroke: #000000; stroke-width: 0.8"/>
      </g>
     </g>
     <g id="text_8">
      <!-- 3.5 k -->
      <g transform="translate(354.119636 303.028562) scale(0.1 -0.1)">
       <use xlink:href="#DejaVuSans-33"/>
       <use xlink:href="#DejaVuSans-2e" transform="translate(63.623047 0)"/>
       <use xlink:href="#DejaVuSans-35" transform="translate(95.410156 0)"/>
       <use xlink:href="#DejaVuSans-20" transform="translate(159.033203 0)"/>
       <use xlink:href="#DejaVuSans-6b" transform="translate(190.820312 0)"/>
      </g>
     </g>
    </g>
    <g id="xtick_9">
     <g id="line2d_9">
      <g>
       <use xlink:href="#m7fa179d139" x="410.104138" y="288.430125" style="stroke: #000000; stroke-width: 0.8"/>
      </g>
     </g>
     <g id="text_9">
      <!-- 4 k -->
      <g transform="translate(402.438513 303.028562) scale(0.1 -0.1)">
       <defs>
        <path id="DejaVuSans-34" d="M 2419 4116 
L 825 1625 
L 2419 1625 
L 2419 4116 
z
M 2253 4666 
L 3047 4666 
L 3047 1625 
L 3713 1625 
L 3713 1100 
L 3047 1100 
L 3047 0 
L 2419 0 
L 2419 1100 
L 313 1100 
L 313 1709 
L 2253 4666 
z
" transform="scale(0.015625)"/>
       </defs>
       <use xlink:href="#DejaVuSans-34"/>
       <use xlink:href="#DejaVuSans-20" transform="translate(63.623047 0)"/>
       <use xlink:href="#DejaVuSans-6b" transform="translate(95.410156 0)"/>
      </g>
     </g>
    </g>
    <g id="text_10">
     <!-- Amount of objects in table -->
     <g transform="translate(174.217031 316.706687) scale(0.1 -0.1)">
      <defs>
       <path id="DejaVuSans-41" d="M 2188 4044 
L 1331 1722 
L 3047 1722 
L 2188 4044 
z
M 1831 4666 
L 2547 4666 
L 4325 0 
L 3669 0 
L 3244 1197 
L 1141 1197 
L 716 0 
L 50 0 
L 1831 4666 
z
" transform="scale(0.015625)"/>
       <path id="DejaVuSans-6d" d="M 3328 2828 
Q 3544 3216 3844 3400 
Q 4144 3584 4550 3584 
Q 5097 3584 5394 3201 
Q 5691 2819 5691 2113 
L 5691 0 
L 5113 0 
L 5113 2094 
Q 5113 2597 4934 2840 
Q 4756 3084 4391 3084 
Q 3944 3084 3684 2787 
Q 3425 2491 3425 1978 
L 3425 0 
L 2847 0 
L 2847 2094 
Q 2847 2600 2669 2842 
Q 2491 3084 2119 3084 
Q 1678 3084 1418 2786 
Q 1159 2488 1159 1978 
L 1159 0 
L 581 0 
L 581 3500 
L 1159 3500 
L 1159 2956 
Q 1356 3278 1631 3431 
Q 1906 3584 2284 3584 
Q 2666 3584 2933 3390 
Q 3200 3197 3328 2828 
z
" transform="scale(0.015625)"/>
       <path id="DejaVuSans-6f" d="M 1959 3097 
Q 1497 3097 1228 2736 
Q 959 2375 959 1747 
Q 959 1119 1226 758 
Q 1494 397 1959 397 
Q 2419 397 2687 759 
Q 2956 1122 2956 1747 
Q 2956 2369 2687 2733 
Q 2419 3097 1959 3097 
z
M 1959 3584 
Q 2709 3584 3137 3096 
Q 3566 2609 3566 1747 
Q 3566 888 3137 398 
Q 2709 -91 1959 -91 
Q 1206 -91 779 398 
Q 353 888 353 1747 
Q 353 2609 779 3096 
Q 1206 3584 1959 3584 
z
" transform="scale(0.015625)"/>
       <path id="DejaVuSans-75" d="M 544 1381 
L 544 3500 
L 1119 3500 
L 1119 1403 
Q 1119 906 1312 657 
Q 1506 409 1894 409 
Q 2359 409 2629 706 
Q 2900 1003 2900 1516 
L 2900 3500 
L 3475 3500 
L 3475 0 
L 2900 0 
L 2900 538 
Q 2691 219 2414 64 
Q 2138 -91 1772 -91 
Q 1169 -91 856 284 
Q 544 659 544 1381 
z
M 1991 3584 
L 1991 3584 
z
" transform="scale(0.015625)"/>
       <path id="DejaVuSans-6e" d="M 3513 2113 
L 3513 0 
L 2938 0 
L 2938 2094 
Q 2938 2591 2744 2837 
Q 2550 3084 2163 3084 
Q 1697 3084 1428 2787 
Q 1159 2491 1159 1978 
L 1159 0 
L 581 0 
L 581 3500 
L 1159 3500 
L 1159 2956 
Q 1366 3272 1645 3428 
Q 1925 3584 2291 3584 
Q 2894 3584 3203 3211 
Q 3513 2838 3513 2113 
z
" transform="scale(0.015625)"/>
       <path id="DejaVuSans-74" d="M 1172 4494 
L 1172 3500 
L 2356 3500 
L 2356 3053 
L 1172 3053 
L 1172 1153 
Q 1172 725 1289 603 
Q 1406 481 1766 481 
L 2356 481 
L 2356 0 
L 1766 0 
Q 1100 0 847 248 
Q 594 497 594 1153 
L 594 3053 
L 172 3053 
L 172 3500 
L 594 3500 
L 594 4494 
L 1172 4494 
z
" transform="scale(0.015625)"/>
       <path id="DejaVuSans-66" d="M 2375 4863 
L 2375 4384 
L 1825 4384 
Q 1516 4384 1395 4259 
Q 1275 4134 1275 3809 
L 1275 3500 
L 2222 3500 
L 2222 3053 
L 1275 3053 
L 1275 0 
L 697 0 
L 697 3053 
L 147 3053 
L 147 3500 
L 697 3500 
L 697 3744 
Q 697 4328 969 4595 
Q 1241 4863 1831 4863 
L 2375 4863 
z
" transform="scale(0.015625)"/>
       <path id="DejaVuSans-62" d="M 3116 1747 
Q 3116 2381 2855 2742 
Q 2594 3103 2138 3103 
Q 1681 3103 1420 2742 
Q 1159 2381 1159 1747 
Q 1159 1113 1420 752 
Q 1681 391 2138 391 
Q 2594 391 2855 752 
Q 3116 1113 3116 1747 
z
M 1159 2969 
Q 1341 3281 1617 3432 
Q 1894 3584 2278 3584 
Q 2916 3584 3314 3078 
Q 3713 2572 3713 1747 
Q 3713 922 3314 415 
Q 2916 -91 2278 -91 
Q 1894 -91 1617 61 
Q 1341 213 1159 525 
L 1159 0 
L 581 0 
L 581 4863 
L 1159 4863 
L 1159 2969 
z
" transform="scale(0.015625)"/>
       <path id="DejaVuSans-6a" d="M 603 3500 
L 1178 3500 
L 1178 -63 
Q 1178 -731 923 -1031 
Q 669 -1331 103 -1331 
L -116 -1331 
L -116 -844 
L 38 -844 
Q 366 -844 484 -692 
Q 603 -541 603 -63 
L 603 3500 
z
M 603 4863 
L 1178 4863 
L 1178 4134 
L 603 4134 
L 603 4863 
z
" transform="scale(0.015625)"/>
       <path id="DejaVuSans-65" d="M 3597 1894 
L 3597 1613 
L 953 1613 
Q 991 1019 1311 708 
Q 1631 397 2203 397 
Q 2534 397 2845 478 
Q 3156 559 3463 722 
L 3463 178 
Q 3153 47 2828 -22 
Q 2503 -91 2169 -91 
Q 1331 -91 842 396 
Q 353 884 353 1716 
Q 353 2575 817 3079 
Q 1281 3584 2069 3584 
Q 2775 3584 3186 3129 
Q 3597 2675 3597 1894 
z
M 3022 2063 
Q 3016 2534 2758 2815 
Q 2500 3097 2075 3097 
Q 1594 3097 1305 2825 
Q 1016 2553 972 2059 
L 3022 2063 
z
" transform="scale(0.015625)"/>
       <path id="DejaVuSans-63" d="M 3122 3366 
L 3122 2828 
Q 2878 2963 2633 3030 
Q 2388 3097 2138 3097 
Q 1578 3097 1268 2742 
Q 959 2388 959 1747 
Q 959 1106 1268 751 
Q 1578 397 2138 397 
Q 2388 397 2633 464 
Q 2878 531 3122 666 
L 3122 134 
Q 2881 22 2623 -34 
Q 2366 -91 2075 -91 
Q 1284 -91 818 406 
Q 353 903 353 1747 
Q 353 2603 823 3093 
Q 1294 3584 2113 3584 
Q 2378 3584 2631 3529 
Q 2884 3475 3122 3366 
z
" transform="scale(0.015625)"/>
       <path id="DejaVuSans-73" d="M 2834 3397 
L 2834 2853 
Q 2591 2978 2328 3040 
Q 2066 3103 1784 3103 
Q 1356 3103 1142 2972 
Q 928 2841 928 2578 
Q 928 2378 1081 2264 
Q 1234 2150 1697 2047 
L 1894 2003 
Q 2506 1872 2764 1633 
Q 3022 1394 3022 966 
Q 3022 478 2636 193 
Q 2250 -91 1575 -91 
Q 1294 -91 989 -36 
Q 684 19 347 128 
L 347 722 
Q 666 556 975 473 
Q 1284 391 1588 391 
Q 1994 391 2212 530 
Q 2431 669 2431 922 
Q 2431 1156 2273 1281 
Q 2116 1406 1581 1522 
L 1381 1569 
Q 847 1681 609 1914 
Q 372 2147 372 2553 
Q 372 3047 722 3315 
Q 1072 3584 1716 3584 
Q 2034 3584 2315 3537 
Q 2597 3491 2834 3397 
z
" transform="scale(0.015625)"/>
       <path id="DejaVuSans-69" d="M 603 3500 
L 1178 3500 
L 1178 0 
L 603 0 
L 603 3500 
z
M 603 4863 
L 1178 4863 
L 1178 4134 
L 603 4134 
L 603 4863 
z
" transform="scale(0.015625)"/>
       <path id="DejaVuSans-61" d="M 2194 1759 
Q 1497 1759 1228 1600 
Q 959 1441 959 1056 
Q 959 750 1161 570 
Q 1363 391 1709 391 
Q 2188 391 2477 730 
Q 2766 1069 2766 1631 
L 2766 1759 
L 2194 1759 
z
M 3341 1997 
L 3341 0 
L 2766 0 
L 2766 531 
Q 2569 213 2275 61 
Q 1981 -91 1556 -91 
Q 1019 -91 701 211 
Q 384 513 384 1019 
Q 384 1609 779 1909 
Q 1175 2209 1959 2209 
L 2766 2209 
L 2766 2266 
Q 2766 2663 2505 2880 
Q 2244 3097 1772 3097 
Q 1472 3097 1187 3025 
Q 903 2953 641 2809 
L 641 3341 
Q 956 3463 1253 3523 
Q 1550 3584 1831 3584 
Q 2591 3584 2966 3190 
Q 3341 2797 3341 1997 
z
" transform="scale(0.015625)"/>
       <path id="DejaVuSans-6c" d="M 603 4863 
L 1178 4863 
L 1178 0 
L 603 0 
L 603 4863 
z
" transform="scale(0.015625)"/>
      </defs>
      <use xlink:href="#DejaVuSans-41"/>
      <use xlink:href="#DejaVuSans-6d" transform="translate(68.408203 0)"/>
      <use xlink:href="#DejaVuSans-6f" transform="translate(165.820312 0)"/>
      <use xlink:href="#DejaVuSans-75" transform="translate(227.001953 0)"/>
      <use xlink:href="#DejaVuSans-6e" transform="translate(290.380859 0)"/>
      <use xlink:href="#DejaVuSans-74" transform="translate(353.759766 0)"/>
      <use xlink:href="#DejaVuSans-20" transform="translate(392.96875 0)"/>
      <use xlink:href="#DejaVuSans-6f" transform="translate(424.755859 0)"/>
      <use xlink:href="#DejaVuSans-66" transform="translate(485.9375 0)"/>
      <use xlink:href="#DejaVuSans-20" transform="translate(521.142578 0)"/>
      <use xlink:href="#DejaVuSans-6f" transform="translate(552.929688 0)"/>
      <use xlink:href="#DejaVuSans-62" transform="translate(614.111328 0)"/>
      <use xlink:href="#DejaVuSans-6a" transform="translate(677.587891 0)"/>
      <use xlink:href="#DejaVuSans-65" transform="translate(705.371094 0)"/>
      <use xlink:href="#DejaVuSans-63" transform="translate(766.894531 0)"/>
      <use xlink:href="#DejaVuSans-74" transform="translate(821.875 0)"/>
      <use xlink:href="#DejaVuSans-73" transform="translate(861.083984 0)"/>
      <use xlink:href="#DejaVuSans-20" transform="translate(913.183594 0)"/>
      <use xlink:href="#DejaVuSans-69" transform="translate(944.970703 0)"/>
      <use xlink:href="#DejaVuSans-6e" transform="translate(972.753906 0)"/>
      <use xlink:href="#DejaVuSans-20" transform="translate(1036.132812 0)"/>
      <use xlink:href="#DejaVuSans-74" transform="translate(1067.919922 0)"/>
      <use xlink:href="#DejaVuSans-61" transform="translate(1107.128906 0)"/>
      <use xlink:href="#DejaVuSans-62" transform="translate(1168.408203 0)"/>
      <use xlink:href="#DejaVuSans-6c" transform="translate(1231.884766 0)"/>
      <use xlink:href="#DejaVuSans-65" transform="translate(1259.667969 0)"/>
     </g>
    </g>
   </g>
   <g id="matplotlib.axis_2">
    <g id="ytick_1">
     <g id="line2d_10">
      <defs>
       <path id="m0e51424183" d="M 0 0 
L -3.5 0 
" style="stroke: #000000; stroke-width: 0.8"/>
      </defs>
      <g>
       <use xlink:href="#m0e51424183" x="61.715625" y="288.430125" style="stroke: #000000; stroke-width: 0.8"/>
      </g>
     </g>
     <g id="text_11">
      <!-- 0 -->
      <g transform="translate(48.353125 292.229344) scale(0.1 -0.1)">
       <use xlink:href="#DejaVuSans-30"/>
      </g>
     </g>
    </g>
    <g id="ytick_2">
     <g id="line2d_11">
      <g>
       <use xlink:href="#m0e51424183" x="61.715625" y="256.922926" style="stroke: #000000; stroke-width: 0.8"/>
      </g>
     </g>
     <g id="text_12">
      <!-- 50 µs -->
      <g transform="translate(27.240625 260.722145) scale(0.1 -0.1)">
       <defs>
        <path id="DejaVuSans-b5" d="M 544 -1331 
L 544 3500 
L 1119 3500 
L 1119 1325 
Q 1119 872 1334 640 
Q 1550 409 1972 409 
Q 2434 409 2667 671 
Q 2900 934 2900 1459 
L 2900 3500 
L 3475 3500 
L 3475 806 
Q 3475 619 3529 530 
Q 3584 441 3700 441 
Q 3728 441 3778 458 
Q 3828 475 3916 513 
L 3916 50 
Q 3788 -22 3673 -56 
Q 3559 -91 3450 -91 
Q 3234 -91 3106 31 
Q 2978 153 2931 403 
Q 2775 156 2548 32 
Q 2322 -91 2016 -91 
Q 1697 -91 1473 31 
Q 1250 153 1119 397 
L 1119 -1331 
L 544 -1331 
z
" transform="scale(0.015625)"/>
       </defs>
       <use xlink:href="#DejaVuSans-35"/>
       <use xlink:href="#DejaVuSans-30" transform="translate(63.623047 0)"/>
       <use xlink:href="#DejaVuSans-20" transform="translate(127.246094 0)"/>
       <use xlink:href="#DejaVuSans-b5" transform="translate(159.033203 0)"/>
       <use xlink:href="#DejaVuSans-73" transform="translate(222.65625 0)"/>
      </g>
     </g>
    </g>
    <g id="ytick_3">
     <g id="line2d_12">
      <g>
       <use xlink:href="#m0e51424183" x="61.715625" y="225.415728" style="stroke: #000000; stroke-width: 0.8"/>
      </g>
     </g>
     <g id="text_13">
      <!-- 100 µs -->
      <g transform="translate(20.878125 229.214947) scale(0.1 -0.1)">
       <use xlink:href="#DejaVuSans-31"/>
       <use xlink:href="#DejaVuSans-30" transform="translate(63.623047 0)"/>
       <use xlink:href="#DejaVuSans-30" transform="translate(127.246094 0)"/>
       <use xlink:href="#DejaVuSans-20" transform="translate(190.869141 0)"/>
       <use xlink:href="#DejaVuSans-b5" transform="translate(222.65625 0)"/>
       <use xlink:href="#DejaVuSans-73" transform="translate(286.279297 0)"/>
      </g>
     </g>
    </g>
    <g id="ytick_4">
     <g id="line2d_13">
      <g>
       <use xlink:href="#m0e51424183" x="61.715625" y="193.908529" style="stroke: #000000; stroke-width: 0.8"/>
      </g>
     </g>
     <g id="text_14">
      <!-- 150 µs -->
      <g transform="translate(20.878125 197.707748) scale(0.1 -0.1)">
       <use xlink:href="#DejaVuSans-31"/>
       <use xlink:href="#DejaVuSans-35" transform="translate(63.623047 0)"/>
       <use xlink:href="#DejaVuSans-30" transform="translate(127.246094 0)"/>
       <use xlink:href="#DejaVuSans-20" transform="translate(190.869141 0)"/>
       <use xlink:href="#DejaVuSans-b5" transform="translate(222.65625 0)"/>
       <use xlink:href="#DejaVuSans-73" transform="translate(286.279297 0)"/>
      </g>
     </g>
    </g>
    <g id="ytick_5">
     <g id="line2d_14">
      <g>
       <use xlink:href="#m0e51424183" x="61.715625" y="162.401331" style="stroke: #000000; stroke-width: 0.8"/>
      </g>
     </g>
     <g id="text_15">
      <!-- 200 µs -->
      <g transform="translate(20.878125 166.20055) scale(0.1 -0.1)">
       <use xlink:href="#DejaVuSans-32"/>
       <use xlink:href="#DejaVuSans-30" transform="translate(63.623047 0)"/>
       <use xlink:href="#DejaVuSans-30" transform="translate(127.246094 0)"/>
       <use xlink:href="#DejaVuSans-20" transform="translate(190.869141 0)"/>
       <use xlink:href="#DejaVuSans-b5" transform="translate(222.65625 0)"/>
       <use xlink:href="#DejaVuSans-73" transform="translate(286.279297 0)"/>
      </g>
     </g>
    </g>
    <g id="ytick_6">
     <g id="line2d_15">
      <g>
       <use xlink:href="#m0e51424183" x="61.715625" y="130.894132" style="stroke: #000000; stroke-width: 0.8"/>
      </g>
     </g>
     <g id="text_16">
      <!-- 250 µs -->
      <g transform="translate(20.878125 134.693351) scale(0.1 -0.1)">
       <use xlink:href="#DejaVuSans-32"/>
       <use xlink:href="#DejaVuSans-35" transform="translate(63.623047 0)"/>
       <use xlink:href="#DejaVuSans-30" transform="translate(127.246094 0)"/>
       <use xlink:href="#DejaVuSans-20" transform="translate(190.869141 0)"/>
       <use xlink:href="#DejaVuSans-b5" transform="translate(222.65625 0)"/>
       <use xlink:href="#DejaVuSans-73" transform="translate(286.279297 0)"/>
      </g>
     </g>
    </g>
    <g id="ytick_7">
     <g id="line2d_16">
      <g>
       <use xlink:href="#m0e51424183" x="61.715625" y="99.386934" style="stroke: #000000; stroke-width: 0.8"/>
      </g>
     </g>
     <g id="text_17">
      <!-- 300 µs -->
      <g transform="translate(20.878125 103.186153) scale(0.1 -0.1)">
       <use xlink:href="#DejaVuSans-33"/>
       <use xlink:href="#DejaVuSans-30" transform="translate(63.623047 0)"/>
       <use xlink:href="#DejaVuSans-30" transform="translate(127.246094 0)"/>
       <use xlink:href="#DejaVuSans-20" transform="translate(190.869141 0)"/>
       <use xlink:href="#DejaVuSans-b5" transform="translate(222.65625 0)"/>
       <use xlink:href="#DejaVuSans-73" transform="translate(286.279297 0)"/>
      </g>
     </g>
    </g>
    <g id="ytick_8">
     <g id="line2d_17">
      <g>
       <use xlink:href="#m0e51424183" x="61.715625" y="67.879735" style="stroke: #000000; stroke-width: 0.8"/>
      </g>
     </g>
     <g id="text_18">
      <!-- 350 µs -->
      <g transform="translate(20.878125 71.678954) scale(0.1 -0.1)">
       <use xlink:href="#DejaVuSans-33"/>
       <use xlink:href="#DejaVuSans-35" transform="translate(63.623047 0)"/>
       <use xlink:href="#DejaVuSans-30" transform="translate(127.246094 0)"/>
       <use xlink:href="#DejaVuSans-20" transform="translate(190.869141 0)"/>
       <use xlink:href="#DejaVuSans-b5" transform="translate(222.65625 0)"/>
       <use xlink:href="#DejaVuSans-73" transform="translate(286.279297 0)"/>
      </g>
     </g>
    </g>
    <g id="ytick_9">
     <g id="line2d_18">
      <g>
       <use xlink:href="#m0e51424183" x="61.715625" y="36.372537" style="stroke: #000000; stroke-width: 0.8"/>
      </g>
     </g>
     <g id="text_19">
      <!-- 400 µs -->
      <g transform="translate(20.878125 40.171756) scale(0.1 -0.1)">
       <use xlink:href="#DejaVuSans-34"/>
       <use xlink:href="#DejaVuSans-30" transform="translate(63.623047 0)"/>
       <use xlink:href="#DejaVuSans-30" transform="translate(127.246094 0)"/>
       <use xlink:href="#DejaVuSans-20" transform="translate(190.869141 0)"/>
       <use xlink:href="#DejaVuSans-b5" transform="translate(222.65625 0)"/>
       <use xlink:href="#DejaVuSans-73" transform="translate(286.279297 0)"/>
      </g>
     </g>
    </g>
    <g id="text_20">
     <!-- Read latency (s) -->
     <g transform="translate(14.798438 195.98975) rotate(-90) scale(0.1 -0.1)">
      <defs>
       <path id="DejaVuSans-52" d="M 2841 2188 
Q 3044 2119 3236 1894 
Q 3428 1669 3622 1275 
L 4263 0 
L 3584 0 
L 2988 1197 
Q 2756 1666 2539 1819 
Q 2322 1972 1947 1972 
L 1259 1972 
L 1259 0 
L 628 0 
L 628 4666 
L 2053 4666 
Q 2853 4666 3247 4331 
Q 3641 3997 3641 3322 
Q 3641 2881 3436 2590 
Q 3231 2300 2841 2188 
z
M 1259 4147 
L 1259 2491 
L 2053 2491 
Q 2509 2491 2742 2702 
Q 2975 2913 2975 3322 
Q 2975 3731 2742 3939 
Q 2509 4147 2053 4147 
L 1259 4147 
z
" transform="scale(0.015625)"/>
       <path id="DejaVuSans-64" d="M 2906 2969 
L 2906 4863 
L 3481 4863 
L 3481 0 
L 2906 0 
L 2906 525 
Q 2725 213 2448 61 
Q 2172 -91 1784 -91 
Q 1150 -91 751 415 
Q 353 922 353 1747 
Q 353 2572 751 3078 
Q 1150 3584 1784 3584 
Q 2172 3584 2448 3432 
Q 2725 3281 2906 2969 
z
M 947 1747 
Q 947 1113 1208 752 
Q 1469 391 1925 391 
Q 2381 391 2643 752 
Q 2906 1113 2906 1747 
Q 2906 2381 2643 2742 
Q 2381 3103 1925 3103 
Q 1469 3103 1208 2742 
Q 947 2381 947 1747 
z
" transform="scale(0.015625)"/>
       <path id="DejaVuSans-79" d="M 2059 -325 
Q 1816 -950 1584 -1140 
Q 1353 -1331 966 -1331 
L 506 -1331 
L 506 -850 
L 844 -850 
Q 1081 -850 1212 -737 
Q 1344 -625 1503 -206 
L 1606 56 
L 191 3500 
L 800 3500 
L 1894 763 
L 2988 3500 
L 3597 3500 
L 2059 -325 
z
" transform="scale(0.015625)"/>
       <path id="DejaVuSans-28" d="M 1984 4856 
Q 1566 4138 1362 3434 
Q 1159 2731 1159 2009 
Q 1159 1288 1364 580 
Q 1569 -128 1984 -844 
L 1484 -844 
Q 1016 -109 783 600 
Q 550 1309 550 2009 
Q 550 2706 781 3412 
Q 1013 4119 1484 4856 
L 1984 4856 
z
" transform="scale(0.015625)"/>
       <path id="DejaVuSans-29" d="M 513 4856 
L 1013 4856 
Q 1481 4119 1714 3412 
Q 1947 2706 1947 2009 
Q 1947 1309 1714 600 
Q 1481 -109 1013 -844 
L 513 -844 
Q 928 -128 1133 580 
Q 1338 1288 1338 2009 
Q 1338 2731 1133 3434 
Q 928 4138 513 4856 
z
" transform="scale(0.015625)"/>
      </defs>
      <use xlink:href="#DejaVuSans-52"/>
      <use xlink:href="#DejaVuSans-65" transform="translate(64.982422 0)"/>
      <use xlink:href="#DejaVuSans-61" transform="translate(126.505859 0)"/>
      <use xlink:href="#DejaVuSans-64" transform="translate(187.785156 0)"/>
      <use xlink:href="#DejaVuSans-20" transform="translate(251.261719 0)"/>
      <use xlink:href="#DejaVuSans-6c" transform="translate(283.048828 0)"/>
      <use xlink:href="#DejaVuSans-61" transform="translate(310.832031 0)"/>
      <use xlink:href="#DejaVuSans-74" transform="translate(372.111328 0)"/>
      <use xlink:href="#DejaVuSans-65" transform="translate(411.320312 0)"/>
      <use xlink:href="#DejaVuSans-6e" transform="translate(472.84375 0)"/>
      <use xlink:href="#DejaVuSans-63" transform="translate(536.222656 0)"/>
      <use xlink:href="#DejaVuSans-79" transform="translate(591.203125 0)"/>
      <use xlink:href="#DejaVuSans-20" transform="translate(650.382812 0)"/>
      <use xlink:href="#DejaVuSans-28" transform="translate(682.169922 0)"/>
      <use xlink:href="#DejaVuSans-73" transform="translate(721.183594 0)"/>
      <use xlink:href="#DejaVuSans-29" transform="translate(773.283203 0)"/>
     </g>
    </g>
   </g>
   <g id="line2d_19">
    <path d="M 147.070811 194.591451 
L 147.941782 195.758685 
L 148.812753 196.710963 
L 149.248239 197.069994 
L 151.861153 200.177995 
L 152.732124 200.910694 
L 153.603095 202.020915 
L 154.474067 202.305211 
L 154.909552 201.412258 
L 155.780523 201.446928 
L 156.216009 200.772013 
L 157.08698 200.860615 
L 159.699894 200.914546 
L 160.570866 201.010853 
L 161.441837 201.037048 
L 162.748294 200.657216 
L 164.054751 200.597891 
L 164.490236 200.456128 
L 164.925722 200.446112 
L 165.361208 201.557873 
L 165.796693 201.661114 
L 166.232179 201.627214 
L 166.667665 201.743552 
L 169.716064 201.604871 
L 170.15155 201.750486 
L 172.328978 201.267413 
L 172.764463 201.241988 
L 173.199949 201.419192 
L 174.941892 201.29669 
L 175.377377 200.244254 
L 175.812863 200.080918 
L 176.248349 200.164127 
L 176.683834 200.120211 
L 177.11932 199.625581 
L 177.554806 198.714137 
L 177.990291 198.811214 
L 180.167719 198.194082 
L 181.474176 198.107792 
L 182.345148 198.269587 
L 182.780633 196.24484 
L 183.216119 196.338065 
L 183.651605 195.428932 
L 184.08709 195.534484 
L 185.393547 195.223222 
L 186.264518 193.339468 
L 188.006461 193.249325 
L 188.877432 193.085989 
L 189.312918 193.054401 
L 189.748403 194.227798 
L 190.619375 194.122246 
L 191.490346 194.184653 
L 192.796803 193.824852 
L 193.667774 195.479782 
L 197.151659 195.466684 
L 198.022631 195.320298 
L 198.893602 195.082229 
L 199.329088 194.951252 
L 199.764573 193.987417 
L 200.200059 193.960452 
L 201.07103 193.7871 
L 201.506516 193.791723 
L 201.942001 193.66691 
L 202.812973 193.593717 
L 203.248458 193.453495 
L 205.425887 193.831786 
L 205.861372 193.778625 
L 207.167829 193.959681 
L 207.603315 193.825623 
L 212.393657 193.646878 
L 213.264628 193.454265 
L 217.183999 193.472756 
L 217.619485 193.278602 
L 218.925941 193.110644 
L 219.361427 192.971192 
L 220.232398 192.937292 
L 221.10337 193.014337 
L 221.974341 193.176132 
L 222.409827 192.18302 
L 224.587255 191.985014 
L 225.02274 191.843251 
L 225.458226 191.911821 
L 225.893712 190.864007 
L 226.329197 190.870941 
L 226.764683 190.739965 
L 227.200169 189.695233 
L 228.942111 189.534979 
L 231.119539 189.270714 
L 231.990511 187.363846 
L 232.425996 187.338422 
L 233.296968 187.052584 
L 233.732453 185.139553 
L 234.167939 185.246646 
L 235.03891 185.047869 
L 235.909881 184.804407 
L 237.216338 184.892238 
L 237.651824 183.995433 
L 238.522795 183.992351 
L 238.958281 183.080136 
L 239.393767 183.084759 
L 239.829252 183.944583 
L 240.700224 184.028562 
L 241.135709 184.333661 
L 241.571195 183.314354 
L 242.442166 183.127904 
L 242.877652 183.008485 
L 243.313137 181.732617 
L 244.184109 181.692553 
L 244.619594 181.523054 
L 245.05508 181.509956 
L 246.361537 181.083126 
L 247.667994 181.107781 
L 248.974451 180.691737 
L 249.409936 179.798013 
L 250.716393 179.942858 
L 254.200278 179.897402 
L 255.942221 179.725591 
L 256.813192 179.959038 
L 257.684164 179.789538 
L 258.119649 179.625432 
L 259.861592 179.576123 
L 260.297077 180.582333 
L 260.732563 180.676328 
L 261.168049 179.630825 
L 261.603534 179.767195 
L 262.03902 180.289561 
L 263.345477 180.041476 
L 263.780962 179.07533 
L 265.522905 178.898897 
L 265.958391 177.985912 
L 266.393876 178.070661 
L 267.264848 177.893457 
L 267.700333 179.678593 
L 268.135819 179.543764 
L 268.571305 180.384327 
L 269.877761 180.419768 
L 270.313247 180.532254 
L 270.748733 180.510681 
L 271.184218 181.217185 
L 271.619704 181.185596 
L 272.05519 180.306511 
L 272.490675 180.275693 
L 273.361647 178.603814 
L 275.539075 178.715529 
L 275.97456 177.708549 
L 276.845532 177.820265 
L 277.716503 177.944307 
L 278.151989 177.039027 
L 281.200388 176.743944 
L 282.071359 176.63454 
L 284.248788 176.68693 
L 284.684273 177.53905 
L 285.119759 176.528217 
L 285.555245 176.639933 
L 285.99073 176.623753 
L 286.426216 176.449631 
L 289.03913 176.245462 
L 289.474615 175.863318 
L 292.087529 175.575169 
L 292.9585 175.414915 
L 293.393986 175.244645 
L 293.829472 175.23617 
L 294.264957 174.218404 
L 294.700443 174.138277 
L 295.135929 173.051941 
L 296.0069 173.078906 
L 297.313357 172.659781 
L 297.748842 172.224476 
L 298.184328 171.449402 
L 299.055299 171.648949 
L 299.490785 170.88389 
L 299.926271 169.784456 
L 300.797242 169.832994 
L 301.232728 169.750556 
L 301.668213 168.711988 
L 305.152098 168.609518 
L 306.458555 168.319828 
L 306.894041 167.731973 
L 307.329527 168.688104 
L 307.765012 168.785951 
L 308.200498 168.678858 
L 309.071469 168.814458 
L 309.94244 169.031725 
L 310.377926 168.927714 
L 310.813412 169.886926 
L 311.248897 169.769817 
L 311.684383 169.785227 
L 312.119869 170.81455 
L 312.555354 170.892365 
L 312.99084 170.024837 
L 314.297297 169.984773 
L 316.039239 169.886156 
L 316.910211 171.593476 
L 317.345696 170.591889 
L 318.216668 170.74675 
L 318.652153 172.699844 
L 319.087639 172.685976 
L 319.523125 172.138185 
L 319.95861 172.390893 
L 322.136038 172.337732 
L 322.571524 173.184458 
L 323.00701 173.192933 
L 323.442495 173.071972 
L 323.877981 173.966466 
L 324.313467 173.881717 
L 324.748952 173.951057 
L 325.619924 173.675236 
L 326.055409 173.259962 
L 326.92638 173.283076 
L 327.361866 172.363927 
L 327.797352 172.455611 
L 328.232837 173.588945 
L 329.103809 171.428599 
L 329.97478 169.587991 
L 330.845751 169.572582 
L 331.281237 168.634172 
L 332.587694 168.547881 
L 333.458665 168.564831 
L 333.894151 168.480852 
L 334.329636 169.453932 
L 334.765122 169.404623 
L 335.200608 169.236665 
L 336.071579 167.359075 
L 336.94255 167.177248 
L 337.378036 166.086289 
L 338.684493 165.748061 
L 339.99095 165.704145 
L 341.732892 165.286561 
L 343.91032 165.295036 
L 344.345806 164.406705 
L 345.652263 164.030725 
L 346.087749 165.003805 
L 346.523234 164.869746 
L 347.394206 164.894401 
L 347.829691 165.011509 
L 348.265177 163.78418 
L 348.700662 164.819667 
L 349.136148 163.976023 
L 350.007119 164.161701 
L 350.442605 163.327303 
L 350.878091 164.207929 
L 351.749062 163.979104 
L 353.055519 164.251844 
L 353.491005 164.252615 
L 354.361976 164.019168 
L 354.797461 163.167819 
L 355.232947 163.045317 
L 355.668433 163.872012 
L 356.103918 163.020663 
L 356.539404 163.106183 
L 356.97489 163.969089 
L 357.410375 164.106229 
L 358.281347 165.7288 
L 358.716832 164.742622 
L 359.587804 164.611645 
L 360.023289 164.697165 
L 360.458775 164.601629 
L 360.89426 165.521548 
L 361.765232 165.341263 
L 362.200717 165.451437 
L 362.636203 165.295036 
L 364.378146 165.123225 
L 365.249117 163.233307 
L 366.120088 163.312664 
L 366.555574 162.461315 
L 366.991059 162.573801 
L 367.426545 162.390434 
L 367.862031 161.486694 
L 368.297516 161.467433 
L 368.733002 160.924265 
L 369.603973 160.854153 
L 370.039459 161.690093 
L 370.474945 161.545248 
L 370.91043 161.555264 
L 371.345916 161.712436 
L 371.781401 161.27482 
L 372.216887 161.088371 
L 373.087858 161.158482 
L 373.95883 161.157711 
L 374.394315 161.36034 
L 375.265287 161.062946 
L 375.700772 161.153859 
L 376.136258 161.044455 
L 377.007229 158.894125 
L 377.442715 158.422609 
L 377.8782 158.323991 
L 378.313686 158.4411 
L 378.749172 158.277764 
L 379.184657 159.280121 
L 379.620143 159.229271 
L 380.055629 159.475045 
L 381.362086 159.564418 
L 381.797571 159.750097 
L 382.233057 159.79093 
L 382.668543 159.29553 
L 383.104028 159.650708 
L 383.974999 159.543616 
L 384.845971 159.70464 
L 385.281456 158.57824 
L 385.716942 157.786986 
L 386.152428 157.784675 
L 386.587913 158.020433 
L 387.023399 157.135184 
L 387.458885 157.112841 
L 387.89437 155.799222 
L 388.329856 155.831581 
L 388.765341 154.923218 
L 389.636313 154.675133 
L 390.071798 154.769898 
L 390.94277 152.948551 
L 391.378255 152.873047 
L 391.813741 152.480887 
L 392.684712 150.633345 
L 393.120198 150.579413 
L 393.555684 150.368309 
L 393.991169 150.312837 
L 394.426655 150.140256 
L 394.86214 149.330511 
L 396.168597 149.265023 
L 396.604083 149.357477 
L 397.475054 147.303454 
L 397.91054 148.30427 
L 398.346026 147.328108 
L 398.781511 147.475264 
L 399.652483 147.423644 
L 400.087968 147.294208 
L 400.523454 146.659356 
L 400.958939 145.313378 
L 401.394425 145.448977 
L 401.829911 145.456681 
L 401.829911 145.456681 
" clip-path="url(#p57401b2b71)" style="fill: none; stroke: #1f77b4; stroke-opacity: 0.8; stroke-width: 1.5; stroke-linecap: square"/>
   </g>
   <g id="line2d_20">
    <path d="M 147.070811 101.680401 
L 147.941782 105.632047 
L 148.812753 108.508142 
L 149.248239 109.006624 
L 150.11921 110.79176 
L 150.990181 113.365068 
L 151.425667 113.355822 
L 153.603095 116.265817 
L 154.038581 117.678055 
L 154.474067 118.628022 
L 155.345038 119.843023 
L 156.651495 124.146765 
L 157.08698 126.196166 
L 157.522466 126.944274 
L 158.393437 129.396621 
L 158.828923 130.723339 
L 159.264409 131.245705 
L 159.699894 132.425266 
L 160.13538 132.56857 
L 160.570866 132.429118 
L 161.006351 132.605552 
L 161.441837 132.612486 
L 161.877322 132.898323 
L 162.312808 132.997711 
L 162.748294 133.491571 
L 163.619265 133.384478 
L 165.361208 134.162634 
L 165.796693 133.873715 
L 166.232179 133.737345 
L 166.667665 133.470769 
L 167.10315 133.352889 
L 167.538636 132.986155 
L 167.974121 133.06397 
L 168.409607 132.896782 
L 168.845093 133.101722 
L 169.280578 133.01312 
L 169.716064 132.706481 
L 170.15155 132.984614 
L 170.587035 131.450645 
L 171.022521 131.583933 
L 171.893492 131.556967 
L 172.328978 133.195717 
L 172.764463 133.369839 
L 176.248349 133.051643 
L 176.683834 133.394494 
L 178.425777 133.099411 
L 178.861262 132.837457 
L 179.296748 131.678698 
L 180.167719 131.486856 
L 180.603205 131.551574 
L 181.038691 133.108656 
L 181.909662 133.101722 
L 182.345148 133.303581 
L 182.780633 133.81516 
L 183.216119 133.807456 
L 183.651605 133.379085 
L 184.958061 133.774326 
L 185.393547 133.721936 
L 186.264518 133.075527 
L 186.700004 133.077068 
L 187.13549 133.436098 
L 187.570975 133.128688 
L 188.877432 133.184161 
L 189.312918 132.107069 
L 189.748403 131.574688 
L 190.619375 131.57854 
L 191.05486 131.557738 
L 191.490346 131.704894 
L 191.925832 131.554656 
L 192.361317 131.773464 
L 192.796803 131.81738 
L 193.232289 132.174869 
L 194.10326 132.546227 
L 194.974231 132.541604 
L 195.845202 131.871311 
L 196.280688 131.86977 
L 197.587145 130.831972 
L 198.458116 130.586198 
L 199.329088 129.97523 
L 199.764573 130.140107 
L 200.200059 129.942101 
L 200.635545 130.153975 
L 201.07103 130.080782 
L 202.812973 131.097008 
L 203.683944 131.110876 
L 204.11943 130.768025 
L 204.554915 131.895195 
L 205.425887 131.534624 
L 206.296858 131.979175 
L 206.732343 132.231112 
L 207.167829 131.900588 
L 208.0388 132.44992 
L 208.474286 132.481509 
L 208.909772 131.550033 
L 209.780743 131.432924 
L 210.651714 131.489938 
L 211.0872 131.2719 
L 211.522686 130.240266 
L 211.958171 130.498367 
L 212.829142 130.455992 
L 213.700114 129.942871 
L 214.135599 129.707884 
L 214.571085 129.071491 
L 215.006571 128.750213 
L 215.442056 129.37813 
L 215.877542 129.281824 
L 216.313028 128.942825 
L 216.748513 129.235597 
L 218.05497 128.552977 
L 218.490456 128.791817 
L 218.925941 128.869633 
L 219.361427 128.702445 
L 219.796913 128.696281 
L 220.232398 128.375003 
L 221.10337 128.304121 
L 221.538855 128.605368 
L 222.409827 128.143097 
L 222.845312 128.167751 
L 223.280798 128.447425 
L 223.716283 128.170063 
L 224.151769 128.714001 
L 224.587255 128.010579 
L 225.02274 127.002829 
L 225.458226 126.813298 
L 225.893712 127.013615 
L 226.329197 126.921161 
L 226.764683 126.079057 
L 227.635654 126.128366 
L 228.07114 126.32252 
L 228.506626 126.232377 
L 228.942111 126.001242 
L 229.377597 126.11835 
L 229.813082 125.726961 
L 231.990511 126.497413 
L 232.861482 126.32175 
L 233.296968 126.030519 
L 234.167939 126.01434 
L 234.603425 125.799384 
L 235.474396 126.171512 
L 235.909881 125.77627 
L 236.345367 126.972011 
L 237.651824 127.00437 
L 238.08731 127.242439 
L 238.958281 127.425807 
L 239.393767 127.395759 
L 239.829252 126.554426 
L 241.135709 126.384156 
L 241.571195 126.204641 
L 242.00668 126.16843 
L 242.442166 125.890297 
L 243.313137 125.79322 
L 243.748623 125.960408 
L 245.05508 125.934983 
L 245.490566 126.286309 
L 245.926051 126.138382 
L 246.361537 126.133759 
L 246.797022 125.792449 
L 247.232508 126.082139 
L 247.667994 125.914951 
L 248.103479 126.011258 
L 248.974451 126.512822 
L 249.409936 126.229295 
L 249.845422 126.606046 
L 250.280908 126.633012 
L 250.716393 126.93734 
L 251.151879 126.687714 
L 251.587365 126.968929 
L 252.02285 126.997436 
L 252.458336 127.549849 
L 253.764793 127.684678 
L 254.200278 126.413433 
L 254.635764 126.430383 
L 255.07125 126.66306 
L 255.506735 128.103804 
L 255.942221 128.032152 
L 257.684164 127.002058 
L 258.119649 126.966617 
L 258.555135 126.600653 
L 258.99062 125.839447 
L 260.732563 124.679918 
L 262.03902 124.179124 
L 263.345477 123.665233 
L 263.780962 123.891746 
L 264.216448 125.016605 
L 265.087419 125.624491 
L 265.522905 125.530496 
L 266.393876 125.052816 
L 267.700333 124.981164 
L 268.135819 123.613613 
L 268.571305 124.017329 
L 269.00679 124.098997 
L 269.442276 123.894828 
L 269.877761 124.083588 
L 270.748733 124.218417 
L 271.184218 123.268451 
L 271.619704 123.19834 
L 272.05519 122.898634 
L 272.490675 122.879373 
L 273.797132 122.093512 
L 274.232618 122.914813 
L 274.668104 123.19834 
L 275.103589 122.917125 
L 275.539075 123.075067 
L 275.97456 122.79 
L 276.845532 122.576585 
L 278.151989 121.88472 
L 279.458446 122.036499 
L 279.893931 122.259159 
L 280.764902 122.444068 
L 281.200388 122.057301 
L 282.506845 122.865504 
L 283.377816 122.51572 
L 284.248788 122.467952 
L 284.684273 121.276063 
L 285.119759 121.062648 
L 286.426216 119.75211 
L 287.297187 119.141913 
L 287.732673 118.584106 
L 289.474615 118.903073 
L 289.910101 118.772096 
L 290.345587 117.46464 
L 290.781072 117.239668 
L 291.216558 116.019273 
L 291.652044 115.718797 
L 292.087529 116.034682 
L 292.9585 115.390585 
L 293.393986 115.332801 
L 293.829472 116.189543 
L 294.264957 116.516985 
L 294.700443 114.71721 
L 295.571414 114.462191 
L 296.0069 114.582381 
L 296.442386 115.427566 
L 296.877871 115.165613 
L 297.313357 113.775718 
L 297.748842 113.784964 
L 298.619814 113.600826 
L 299.055299 113.836584 
L 299.490785 114.385916 
L 299.926271 114.655574 
L 300.797242 113.724098 
L 301.232728 113.695591 
L 301.668213 113.179389 
L 302.103699 111.339551 
L 303.410156 107.723822 
L 303.845641 107.589764 
L 304.281127 107.5836 
L 305.152098 105.200594 
L 305.587584 105.111222 
L 306.02307 104.774534 
L 306.458555 104.634312 
L 306.894041 104.822302 
L 307.329527 104.705194 
L 308.200498 104.06803 
L 308.635984 103.997919 
L 309.071469 103.702836 
L 309.506955 104.113487 
L 309.94244 104.861595 
L 310.377926 103.665084 
L 310.813412 103.460915 
L 311.248897 102.065627 
L 311.684383 101.791346 
L 312.119869 100.936916 
L 313.426326 100.665717 
L 313.861811 99.40757 
L 315.603754 100.067076 
L 316.039239 99.994654 
L 316.474725 99.566283 
L 317.345696 97.20716 
L 317.781182 97.532291 
L 318.216668 97.539225 
L 318.652153 96.222523 
L 319.087639 96.327305 
L 319.523125 96.292634 
L 319.95861 95.207839 
L 320.394096 95.218625 
L 320.829581 94.405028 
L 321.265067 94.470517 
L 321.700553 94.333376 
L 322.136038 94.626918 
L 322.571524 94.653114 
L 323.00701 94.387308 
L 323.442495 94.27097 
L 323.877981 93.984362 
L 324.313467 92.825603 
L 325.184438 93.442735 
L 326.92638 93.279399 
L 327.361866 92.363332 
L 328.668323 92.9743 
L 329.103809 92.78631 
L 329.539294 91.589799 
L 329.97478 91.621387 
L 331.716722 90.874049 
L 332.152208 90.478808 
L 332.587694 90.446449 
L 333.023179 89.394012 
L 333.458665 87.978693 
L 333.894151 86.994056 
L 334.329636 87.039513 
L 334.765122 86.791427 
L 335.200608 85.698927 
L 335.636093 85.643455 
L 336.071579 85.97629 
L 336.507065 85.744384 
L 336.94255 85.778284 
L 337.378036 85.621112 
L 337.813521 85.608014 
L 338.249007 85.322947 
L 338.684493 85.308308 
L 339.119978 86.275225 
L 339.555464 86.158116 
L 339.99095 85.878442 
L 340.426435 84.78132 
L 341.297407 84.513202 
L 341.732892 83.476175 
L 342.168378 83.402982 
L 342.603864 83.691131 
L 343.474835 83.36523 
L 343.91032 83.803617 
L 344.345806 83.72349 
L 344.781292 83.766635 
L 345.216777 81.996908 
L 345.652263 81.942976 
L 346.95872 79.002163 
L 347.394206 78.932823 
L 347.829691 78.735587 
L 348.265177 78.72326 
L 348.700662 77.076035 
L 349.136148 76.048252 
L 350.007119 75.408778 
L 350.442605 75.32711 
L 350.878091 75.437285 
L 351.313576 74.494252 
L 351.749062 74.159876 
L 352.620033 71.77764 
L 353.055519 71.728331 
L 353.491005 70.54877 
L 353.92649 70.296062 
L 354.361976 69.906214 
L 354.797461 69.903902 
L 355.232947 68.675032 
L 355.668433 68.748225 
L 356.103918 69.632703 
L 356.97489 69.672767 
L 357.410375 68.629576 
L 360.023289 68.259759 
L 360.458775 67.981626 
L 360.89426 67.931547 
L 361.765232 67.64648 
L 362.200717 67.659577 
L 362.636203 67.987019 
L 363.071689 68.120307 
L 363.507174 66.939205 
L 364.813631 66.871405 
L 365.684603 64.844348 
L 366.120088 64.371291 
L 366.991059 63.964492 
L 367.426545 63.87589 
L 367.862031 64.030751 
L 368.297516 63.962951 
L 368.733002 64.123976 
L 369.168488 63.667098 
L 369.603973 64.550035 
L 370.91043 65.267326 
L 371.345916 65.375189 
L 371.781401 65.147135 
L 372.216887 65.221869 
L 372.652373 65.668731 
L 373.087858 64.382077 
L 373.523344 64.603196 
L 373.95883 64.068503 
L 374.394315 62.758736 
L 374.829801 62.810356 
L 375.265287 63.87512 
L 375.700772 63.799616 
L 376.136258 64.962997 
L 377.442715 64.727239 
L 377.8782 64.927556 
L 378.313686 64.855904 
L 379.184657 64.258805 
L 379.620143 64.768073 
L 380.055629 63.646296 
L 380.491114 62.982937 
L 381.362086 62.845026 
L 381.797571 62.69787 
L 382.233057 63.811172 
L 382.668543 63.543826 
L 383.104028 63.489124 
L 383.539514 62.768752 
L 383.974999 61.687038 
L 384.410485 61.278698 
L 384.845971 59.974324 
L 385.281456 60.489756 
L 386.152428 61.167753 
L 386.587913 60.620733 
L 387.023399 62.672445 
L 388.329856 65.771971 
L 389.200827 65.423727 
L 390.071798 67.500094 
L 390.507284 67.328283 
L 390.94277 67.389919 
L 391.813741 67.046298 
L 392.684712 67.23814 
L 393.120198 67.198077 
L 393.555684 66.161049 
L 393.991169 66.279699 
L 394.426655 66.57247 
L 394.86214 66.563225 
L 395.297626 67.332906 
L 395.733112 66.11097 
L 396.604083 68.22817 
L 397.039569 67.670364 
L 397.475054 67.724295 
L 397.91054 67.61335 
L 398.346026 66.24811 
L 398.781511 67.439228 
L 399.216997 67.161095 
L 399.652483 67.275122 
L 400.523454 64.778089 
L 400.958939 64.872854 
L 401.394425 65.208001 
L 401.829911 66.288174 
L 401.829911 66.288174 
" clip-path="url(#p57401b2b71)" style="fill: none; stroke: #ff7f0e; stroke-opacity: 0.8; stroke-width: 1.5; stroke-linecap: square"/>
   </g>
   <g id="line2d_21">
    <path d="M 147.070811 92.201537 
L 147.506296 91.909536 
L 148.377268 90.981142 
L 148.812753 90.907949 
L 149.683725 90.108991 
L 150.11921 90.095894 
L 150.554696 88.45175 
L 150.990181 88.436341 
L 151.861153 88.940216 
L 152.296638 88.6043 
L 153.16761 88.471782 
L 154.038581 88.987984 
L 154.474067 88.92866 
L 154.909552 89.062718 
L 155.345038 88.722949 
L 156.216009 85.066387 
L 157.08698 85.026323 
L 157.522466 84.832169 
L 157.957952 84.319819 
L 158.393437 84.209645 
L 158.828923 83.736587 
L 159.264409 83.859089 
L 160.13538 83.664935 
L 160.570866 83.547827 
L 161.006351 83.813633 
L 162.312808 83.028543 
L 162.748294 82.882927 
L 164.925722 80.84046 
L 165.361208 80.806561 
L 165.796693 80.620111 
L 166.232179 80.56618 
L 167.10315 80.08927 
L 167.538636 78.197042 
L 168.409607 77.482063 
L 168.845093 77.448933 
L 169.280578 76.042859 
L 169.716064 75.938848 
L 170.15155 75.526657 
L 170.587035 75.528198 
L 171.458007 74.556659 
L 171.893492 74.238462 
L 172.328978 74.206103 
L 172.764463 73.793912 
L 173.635435 73.695294 
L 174.07092 72.142834 
L 174.941892 71.497966 
L 176.248349 70.303767 
L 177.554806 69.254412 
L 177.990291 69.272132 
L 178.861262 69.636556 
L 179.296748 69.256723 
L 179.732234 69.219741 
L 180.167719 69.346095 
L 180.603205 68.748225 
L 181.474176 69.789875 
L 181.909662 69.725928 
L 182.780633 69.822234 
L 183.651605 69.614213 
L 184.08709 68.100275 
L 185.393547 67.832158 
L 186.264518 68.304445 
L 186.700004 68.362229 
L 187.13549 67.981626 
L 187.570975 67.98933 
L 188.006461 66.472312 
L 188.441947 66.291256 
L 188.877432 66.631025 
L 189.748403 66.574782 
L 190.619375 65.817428 
L 191.05486 65.851328 
L 191.490346 66.305124 
L 192.361317 66.489262 
L 193.232289 65.666419 
L 194.538746 65.635601 
L 194.974231 65.916816 
L 195.409717 65.935307 
L 195.845202 66.335942 
L 196.280688 66.027761 
L 196.716174 65.924521 
L 197.151659 64.174825 
L 197.587145 64.403649 
L 198.022631 64.310425 
L 198.458116 64.590869 
L 198.893602 63.025312 
L 199.329088 60.808723 
L 199.764573 60.817198 
L 200.200059 60.381893 
L 200.635545 60.693155 
L 201.07103 60.395761 
L 201.506516 60.42735 
L 202.377487 59.654587 
L 202.812973 59.657669 
L 203.248458 59.894197 
L 203.683944 59.996667 
L 204.11943 59.850281 
L 204.554915 60.202378 
L 204.990401 60.32642 
L 207.167829 60.156921 
L 207.603315 58.406456 
L 208.0388 58.421865 
L 208.474286 58.040491 
L 208.909772 59.589869 
L 209.345257 59.59141 
L 209.780743 59.467367 
L 210.651714 56.135165 
L 211.0872 56.499588 
L 211.522686 56.510375 
L 211.958171 56.801605 
L 213.264628 56.836275 
L 213.700114 57.214567 
L 214.135599 56.721478 
L 214.571085 57.068952 
L 215.006571 56.979579 
L 215.442056 57.433375 
L 215.877542 58.87566 
L 216.748513 58.195352 
L 217.183999 58.666098 
L 218.05497 58.579037 
L 218.490456 58.867956 
L 219.361427 55.628978 
L 219.796913 56.074299 
L 220.232398 57.312414 
L 220.667884 56.867864 
L 221.974341 57.152931 
L 223.716283 56.795442 
L 224.151769 56.505752 
L 224.587255 56.040399 
L 225.02274 55.745316 
L 225.458226 53.991769 
L 225.893712 54.331538 
L 226.329197 53.990998 
L 226.764683 53.985605 
L 227.635654 54.737566 
L 228.07114 54.822315 
L 228.506626 54.770695 
L 228.942111 54.59041 
L 229.377597 54.624309 
L 229.813082 54.327686 
L 230.248568 53.89161 
L 230.684054 53.723652 
L 231.119539 53.318394 
L 231.555025 53.178943 
L 231.990511 53.241349 
L 232.425996 53.437814 
L 232.861482 53.484812 
L 234.603425 54.240625 
L 235.03891 54.176677 
L 235.474396 56.061972 
L 235.909881 55.887079 
L 236.345367 53.692834 
L 236.780853 53.325328 
L 237.216338 53.860792 
L 238.08731 53.262151 
L 238.522795 52.88463 
L 239.829252 52.882319 
L 240.264738 51.611844 
L 240.700224 53.205138 
L 241.135709 55.249916 
L 241.571195 55.026485 
L 242.442166 55.813886 
L 243.313137 56.423314 
L 243.748623 56.487261 
L 244.184109 54.551887 
L 244.619594 54.588869 
L 245.490566 55.240671 
L 245.926051 53.627345 
L 246.361537 53.824581 
L 247.667994 53.851547 
L 248.103479 54.160498 
L 248.538965 54.052634 
L 248.974451 54.415517 
L 249.409936 53.011755 
L 249.845422 53.031016 
L 250.280908 52.802192 
L 251.587365 53.126552 
L 252.02285 53.250594 
L 252.458336 55.306929 
L 253.329307 55.125103 
L 253.764793 53.197433 
L 254.200278 54.543412 
L 254.635764 52.442391 
L 255.07125 52.366116 
L 255.506735 51.971645 
L 256.377707 52.757506 
L 256.813192 52.771374 
L 257.248678 52.326053 
L 257.684164 50.207311 
L 258.555135 49.473071 
L 258.99062 51.228159 
L 260.297077 52.195846 
L 260.732563 50.75125 
L 261.168049 51.028613 
L 262.03902 50.859113 
L 262.474506 49.307424 
L 262.909991 49.449187 
L 263.345477 47.630922 
L 263.780962 47.326593 
L 264.216448 45.861195 
L 264.651934 45.850408 
L 265.087419 45.97291 
L 266.393876 44.716304 
L 266.829362 44.737877 
L 267.264848 44.630013 
L 268.135819 45.201688 
L 268.571305 45.173952 
L 269.00679 46.498358 
L 269.442276 46.901304 
L 269.877761 47.086213 
L 270.313247 47.04692 
L 270.748733 45.159314 
L 271.184218 45.139282 
L 272.05519 45.695548 
L 272.490675 45.553014 
L 272.926161 46.901304 
L 273.361647 46.772639 
L 273.797132 46.41592 
L 275.103589 47.348166 
L 275.539075 45.982926 
L 275.97456 43.477418 
L 276.410046 42.982788 
L 277.281017 43.579118 
L 278.151989 43.563709 
L 278.587474 43.590674 
L 279.458446 43.450452 
L 279.893931 43.478959 
L 280.329417 43.730126 
L 280.764902 43.693144 
L 281.200388 44.014423 
L 281.635874 43.619181 
L 282.071359 45.177804 
L 282.506845 45.150068 
L 283.377816 41.985824 
L 284.248788 45.374269 
L 284.684273 45.717891 
L 285.99073 45.783379 
L 286.426216 45.707875 
L 287.732673 45.809575 
L 288.168158 45.462871 
L 288.603644 45.298765 
L 289.03913 45.293372 
L 289.474615 44.905065 
L 289.910101 44.736336 
L 290.345587 43.203908 
L 290.781072 43.469714 
L 291.652044 44.183922 
L 292.087529 44.133843 
L 292.523015 45.854261 
L 292.9585 45.808804 
L 293.393986 43.938148 
L 293.829472 44.107647 
L 294.264957 44.127679 
L 294.700443 43.783287 
L 295.571414 46.56924 
L 296.0069 46.140098 
L 296.442386 46.103117 
L 296.877871 45.659336 
L 298.184328 46.616237 
L 299.055299 46.515308 
L 299.490785 46.301123 
L 299.926271 46.410527 
L 300.361756 44.578393 
L 300.797242 44.544493 
L 301.232728 44.875787 
L 302.539185 44.826478 
L 302.97467 45.178575 
L 303.410156 44.91508 
L 304.281127 48.462239 
L 304.716613 48.144042 
L 305.587584 49.024668 
L 306.02307 48.794303 
L 306.458555 48.432191 
L 307.329527 49.087845 
L 307.765012 49.176447 
L 308.200498 47.633233 
L 308.635984 47.298087 
L 309.071469 47.145537 
L 309.94244 47.536927 
L 310.377926 49.462285 
L 310.813412 49.392944 
L 311.248897 49.634866 
L 312.555354 49.548575 
L 312.99084 49.805136 
L 313.861811 50.6665 
L 315.168268 50.779757 
L 315.603754 51.003188 
L 316.039239 51.054808 
L 316.474725 51.588731 
L 316.910211 51.800605 
L 317.345696 49.127909 
L 318.216668 49.655668 
L 318.652153 49.632555 
L 319.087639 49.253492 
L 319.95861 48.852087 
L 320.394096 48.810483 
L 320.829581 49.257345 
L 321.265067 50.923061 
L 321.700553 51.298271 
L 322.136038 49.695732 
L 322.571524 50.268947 
L 323.442495 50.879915 
L 323.877981 50.85295 
L 324.313467 50.386056 
L 324.748952 48.483041 
L 325.184438 50.260472 
L 325.619924 48.026934 
L 326.055409 47.797339 
L 326.490895 48.234956 
L 327.361866 47.766521 
L 327.797352 47.752653 
L 328.232837 45.857343 
L 328.668323 46.119296 
L 329.103809 47.617824 
L 329.539294 47.468356 
L 329.97478 46.99684 
L 330.410266 46.965252 
L 330.845751 48.374407 
L 331.716722 47.879007 
L 332.152208 47.619365 
L 332.587694 47.921382 
L 333.023179 47.394393 
L 333.458665 47.708737 
L 333.894151 45.873522 
L 334.329636 47.536927 
L 335.200608 47.342002 
L 336.507065 46.068446 
L 336.94255 46.187866 
L 337.378036 46.131623 
L 337.813521 46.222536 
L 338.249007 46.505292 
L 338.684493 47.988411 
L 339.119978 47.43985 
L 339.555464 49.06088 
L 340.426435 49.698813 
L 340.861921 44.495955 
L 341.732892 44.370371 
L 342.168378 43.086029 
L 342.603864 45.095366 
L 343.039349 45.417415 
L 343.91032 45.319567 
L 344.781292 44.502118 
L 345.216777 42.579842 
L 345.652263 44.33493 
L 346.087749 44.165431 
L 346.95872 44.881951 
L 347.394206 46.725641 
L 347.829691 46.664005 
L 348.265177 48.058522 
L 348.700662 46.914402 
L 349.136148 48.302755 
L 349.571634 46.56924 
L 350.007119 46.351972 
L 350.442605 46.003728 
L 353.055519 45.747168 
L 353.491005 45.730988 
L 353.92649 44.210888 
L 354.361976 44.022127 
L 354.797461 44.188545 
L 355.232947 43.99285 
L 355.668433 45.880456 
L 356.103918 45.359631 
L 356.539404 45.318027 
L 356.97489 45.059925 
L 357.845861 45.205541 
L 358.716832 44.964389 
L 359.152318 44.950521 
L 360.023289 44.699354 
L 360.458775 45.814968 
L 360.89426 48.624034 
L 361.329746 47.104703 
L 361.765232 47.089294 
L 362.200717 46.754148 
L 362.636203 47.096228 
L 363.507174 47.006856 
L 364.378146 47.146308 
L 364.813631 47.112408 
L 365.249117 45.92052 
L 365.684603 45.927454 
L 366.120088 45.804181 
L 366.555574 46.282632 
L 366.991059 44.774858 
L 367.426545 44.479775 
L 368.297516 47.187142 
L 369.168488 47.622447 
L 369.603973 47.069263 
L 370.039459 47.060788 
L 370.474945 47.381295 
L 370.91043 47.261105 
L 371.345916 46.779573 
L 371.781401 45.666271 
L 372.216887 45.424349 
L 372.652373 45.40894 
L 373.523344 46.090019 
L 373.95883 43.790992 
L 374.829801 43.804089 
L 375.265287 45.661648 
L 375.700772 45.445151 
L 377.007229 45.492919 
L 377.442715 45.502164 
L 377.8782 45.705564 
L 378.313686 47.607038 
L 378.749172 47.809666 
L 379.184657 47.717212 
L 379.620143 47.507649 
L 380.055629 47.8505 
L 380.491114 47.976084 
L 381.362086 48.718029 
L 381.797571 47.083901 
L 382.233057 47.084672 
L 382.668543 46.80962 
L 383.104028 46.858159 
L 383.539514 46.374315 
L 383.974999 46.754148 
L 385.281456 46.67171 
L 385.716942 46.956777 
L 386.152428 44.878869 
L 386.587913 44.81184 
L 387.023399 44.378846 
L 387.458885 44.329537 
L 387.89437 43.965114 
L 389.200827 43.972818 
L 389.636313 44.250181 
L 390.507284 43.582199 
L 390.94277 43.954327 
L 391.378255 43.9081 
L 391.813741 43.601461 
L 392.249227 41.870256 
L 392.684712 42.038215 
L 393.120198 41.737739 
L 393.555684 41.998151 
L 393.991169 40.178345 
L 394.426655 39.269983 
L 395.297626 38.725274 
L 395.733112 38.693685 
L 396.168597 38.448681 
L 396.604083 37.191305 
L 397.039569 36.853077 
L 397.475054 36.85847 
L 398.346026 36.066446 
L 399.216997 35.940862 
L 400.523454 36.618089 
L 400.958939 36.548748 
L 401.394425 36.111902 
L 401.829911 34.990125 
L 401.829911 34.990125 
" clip-path="url(#p57401b2b71)" style="fill: none; stroke: #2ca02c; stroke-opacity: 0.8; stroke-width: 1.5; stroke-linecap: square"/>
   </g>
   <g id="line2d_22">
    <path d="M 147.070811 196.899724 
L 147.506296 196.864283 
L 147.941782 196.707111 
L 148.812753 196.650868 
L 149.248239 195.495191 
L 150.11921 195.592268 
L 150.554696 194.476654 
L 151.861153 194.48667 
L 152.296638 195.346494 
L 153.16761 195.146176 
L 153.603095 194.19621 
L 154.038581 194.136115 
L 154.474067 194.190817 
L 154.909552 194.379577 
L 155.780523 194.38343 
L 156.216009 194.363398 
L 156.651495 195.264056 
L 157.522466 195.242483 
L 157.957952 194.266321 
L 158.393437 194.322564 
L 159.264409 192.931129 
L 159.699894 192.89877 
L 160.13538 192.628341 
L 160.570866 192.685355 
L 161.006351 193.307109 
L 161.441837 193.357188 
L 161.877322 193.545949 
L 162.312808 192.908785 
L 163.619265 192.71155 
L 164.054751 193.307879 
L 164.490236 192.565164 
L 165.361208 192.282408 
L 165.796693 191.552791 
L 166.232179 190.584333 
L 166.667665 187.482496 
L 167.10315 187.055666 
L 167.538636 186.257478 
L 167.974121 186.255937 
L 168.409607 186.543316 
L 168.845093 185.51014 
L 169.280578 185.121062 
L 170.15155 184.956956 
L 170.587035 185.95392 
L 171.022521 185.242023 
L 171.893492 185.074835 
L 172.328978 184.018546 
L 172.764463 184.445376 
L 173.199949 184.325186 
L 173.635435 184.403002 
L 174.941892 184.07556 
L 175.377377 181.954507 
L 175.812863 182.025388 
L 176.248349 182.532346 
L 176.683834 181.555413 
L 177.554806 181.403634 
L 179.296748 181.096994 
L 179.732234 180.036083 
L 180.167719 179.905877 
L 180.603205 180.426702 
L 181.038691 180.307282 
L 181.909662 178.365744 
L 182.345148 178.388858 
L 183.216119 177.991305 
L 183.651605 177.927357 
L 184.08709 176.007392 
L 184.522576 176.074422 
L 184.958061 176.938098 
L 185.393547 176.918836 
L 186.700004 174.766965 
L 187.13549 175.599823 
L 187.570975 174.844011 
L 188.006461 174.374806 
L 188.441947 173.296174 
L 188.877432 172.750694 
L 189.312918 172.648224 
L 189.748403 172.162069 
L 190.183889 173.092775 
L 190.619375 172.571949 
L 191.05486 172.551918 
L 191.490346 172.939455 
L 192.361317 171.147385 
L 192.796803 169.577205 
L 193.667774 167.757398 
L 194.10326 167.817494 
L 194.538746 168.308271 
L 194.974231 165.533875 
L 195.409717 165.427553 
L 195.845202 166.296622 
L 197.151659 166.171809 
L 197.587145 165.457601 
L 198.022631 164.385132 
L 198.458116 164.439064 
L 198.893602 164.742622 
L 199.329088 164.340446 
L 199.764573 163.668613 
L 200.200059 163.324991 
L 200.635545 162.652387 
L 201.07103 161.040603 
L 201.506516 161.022112 
L 201.942001 160.891135 
L 202.377487 161.442778 
L 202.812973 160.878808 
L 203.248458 159.747015 
L 203.683944 159.717738 
L 204.11943 159.894941 
L 204.554915 162.669337 
L 204.990401 162.632355 
L 205.425887 161.481301 
L 206.296858 161.42891 
L 206.732343 161.53061 
L 207.167829 160.856465 
L 207.603315 159.750867 
L 208.474286 159.5675 
L 208.909772 160.010509 
L 209.345257 159.878762 
L 209.780743 159.584449 
L 210.216229 159.546697 
L 210.651714 158.958072 
L 211.0872 158.948057 
L 211.522686 158.445722 
L 211.958171 156.248395 
L 212.829142 156.024964 
L 213.264628 156.124352 
L 213.700114 155.974885 
L 214.135599 154.557254 
L 214.571085 153.984808 
L 215.877542 153.840734 
L 216.313028 152.754398 
L 216.748513 152.950092 
L 217.183999 152.397678 
L 217.619485 152.312158 
L 218.05497 152.564866 
L 218.490456 152.507083 
L 219.796913 150.090176 
L 220.232398 150.043949 
L 220.667884 148.991513 
L 221.10337 149.517731 
L 221.538855 149.469193 
L 221.974341 148.93604 
L 222.409827 148.830488 
L 222.845312 148.889813 
L 223.280798 149.849796 
L 223.716283 149.131735 
L 224.151769 148.660219 
L 224.587255 148.567764 
L 225.02274 147.286504 
L 225.458226 147.901324 
L 226.764683 145.694751 
L 227.200169 142.977369 
L 227.635654 143.941974 
L 228.07114 143.25319 
L 228.506626 143.096789 
L 228.942111 143.193866 
L 229.377597 142.24544 
L 229.813082 142.295519 
L 230.684054 141.039683 
L 231.119539 140.91487 
L 231.555025 138.697511 
L 231.990511 138.175145 
L 232.425996 137.478657 
L 232.861482 137.00637 
L 233.732453 135.701996 
L 234.167939 136.35842 
L 234.603425 136.253639 
L 235.03891 135.376865 
L 235.474396 136.335307 
L 235.909881 135.235873 
L 237.216338 134.854499 
L 237.651824 134.885317 
L 238.08731 132.419102 
L 238.522795 133.315908 
L 239.393767 131.739564 
L 239.829252 132.412939 
L 240.264738 132.388284 
L 240.700224 131.779628 
L 241.135709 130.053046 
L 241.571195 130.022998 
L 242.00668 129.351935 
L 242.442166 128.312596 
L 242.877652 128.515225 
L 243.313137 127.587601 
L 244.184109 128.807226 
L 244.619594 128.78026 
L 245.05508 129.226352 
L 245.490566 128.13077 
L 246.361537 127.908109 
L 246.797022 126.54441 
L 247.667994 126.438088 
L 248.103479 126.01434 
L 248.538965 125.779352 
L 248.974451 125.067455 
L 249.409936 125.828661 
L 249.845422 123.576631 
L 250.280908 123.57432 
L 250.716393 124.186058 
L 251.151879 125.651457 
L 251.587365 128.613072 
L 252.02285 128.106115 
L 252.458336 128.787194 
L 252.893821 128.636956 
L 253.329307 128.243256 
L 253.764793 129.117718 
L 254.200278 129.442078 
L 254.635764 129.331133 
L 255.07125 128.839585 
L 255.506735 127.003599 
L 255.942221 126.938111 
L 256.377707 126.330225 
L 256.813192 126.379533 
L 257.248678 127.475115 
L 257.684164 126.627619 
L 258.555135 125.669177 
L 258.99062 125.629114 
L 259.426106 125.199972 
L 259.861592 123.503438 
L 260.297077 125.618327 
L 260.732563 124.119029 
L 261.168049 123.996527 
L 261.603534 124.949576 
L 262.474506 124.783929 
L 262.909991 122.142051 
L 263.345477 122.568881 
L 263.780962 122.029565 
L 264.216448 120.795301 
L 264.651934 121.223672 
L 265.087419 120.585739 
L 265.958391 120.590361 
L 266.393876 121.413204 
L 266.829362 122.48182 
L 267.700333 120.969423 
L 268.571305 120.974046 
L 269.00679 120.559543 
L 269.442276 119.798337 
L 269.877761 119.834549 
L 270.313247 118.816782 
L 270.748733 119.037131 
L 271.619704 118.69351 
L 272.05519 117.802098 
L 272.490675 117.808261 
L 272.926161 116.428383 
L 273.361647 117.580208 
L 273.797132 118.103344 
L 274.232618 115.777351 
L 274.668104 116.188772 
L 275.103589 116.103252 
L 275.539075 116.743497 
L 275.97456 116.660289 
L 276.410046 115.640981 
L 276.845532 115.75886 
L 277.281017 116.664911 
L 277.716503 116.808986 
L 278.151989 116.818231 
L 278.587474 115.987685 
L 279.02296 115.908328 
L 279.458446 115.250362 
L 279.893931 117.040121 
L 280.329417 117.011614 
L 281.200388 115.653309 
L 281.635874 115.665636 
L 282.071359 114.811976 
L 282.506845 114.867448 
L 282.942331 115.781204 
L 283.377816 114.993032 
L 283.813302 115.769647 
L 284.248788 116.114809 
L 284.684273 116.798199 
L 285.119759 116.0655 
L 285.555245 116.702663 
L 285.99073 119.209712 
L 286.426216 118.551747 
L 286.861701 118.103344 
L 287.297187 118.005497 
L 287.732673 118.400738 
L 288.168158 119.349935 
L 288.603644 118.722017 
L 289.03913 119.353016 
L 289.474615 116.855213 
L 289.910101 116.846738 
L 290.345587 117.543226 
L 290.781072 116.393712 
L 291.216558 116.281227 
L 291.652044 116.741186 
L 292.087529 116.664911 
L 292.523015 117.024712 
L 293.393986 117.14105 
L 293.829472 116.190313 
L 294.264957 115.761942 
L 294.700443 116.131759 
L 295.135929 116.11635 
L 295.571414 116.366747 
L 296.0069 115.184874 
L 296.442386 115.506923 
L 296.877871 117.681907 
L 297.313357 117.673432 
L 298.184328 116.404499 
L 298.619814 116.510051 
L 299.055299 117.151066 
L 299.490785 117.558635 
L 299.926271 117.536292 
L 300.361756 116.558589 
L 300.797242 116.532394 
L 301.232728 117.582519 
L 302.103699 117.504703 
L 302.539185 115.118615 
L 302.97467 115.107059 
L 303.410156 114.522286 
L 303.845641 114.592397 
L 304.281127 115.105518 
L 304.716613 113.944447 
L 305.152098 113.288023 
L 305.587584 114.204089 
L 306.02307 113.945988 
L 306.458555 113.016053 
L 306.894041 111.118431 
L 307.329527 111.076057 
L 307.765012 110.520561 
L 308.200498 108.159898 
L 308.635984 108.861779 
L 309.071469 109.297084 
L 309.506955 109.271659 
L 309.94244 110.430418 
L 310.377926 110.472793 
L 310.813412 111.107645 
L 311.248897 110.91195 
L 311.684383 110.891919 
L 312.119869 112.80495 
L 312.555354 111.575309 
L 312.99084 111.630011 
L 313.426326 111.475921 
L 313.861811 111.892735 
L 314.297297 112.153148 
L 314.732782 111.344174 
L 315.168268 111.885801 
L 315.603754 111.505969 
L 316.039239 112.187048 
L 316.474725 114.377441 
L 316.910211 114.405948 
L 317.345696 115.065454 
L 317.781182 114.526909 
L 318.652153 115.761172 
L 319.087639 115.4684 
L 319.523125 115.410616 
L 319.95861 115.189497 
L 320.394096 115.187185 
L 320.829581 116.144857 
L 321.700553 116.250408 
L 322.136038 114.082358 
L 322.571524 113.485258 
L 323.00701 115.049275 
L 323.442495 115.004588 
L 323.877981 115.716486 
L 324.313467 113.824257 
L 325.184438 113.895909 
L 325.619924 114.337378 
L 326.055409 115.543134 
L 326.490895 113.415147 
L 326.92638 113.542272 
L 327.797352 115.349751 
L 328.232837 116.154872 
L 328.668323 113.657069 
L 329.103809 113.234091 
L 329.539294 113.224846 
L 329.97478 113.862779 
L 330.410266 114.178665 
L 331.281237 113.047642 
L 331.716722 115.037718 
L 332.587694 114.915216 
L 333.023179 115.380569 
L 333.458665 114.467584 
L 333.894151 113.845059 
L 334.329636 113.807307 
L 334.765122 116.03083 
L 335.200608 116.095548 
L 335.636093 115.597066 
L 336.507065 115.573182 
L 336.94255 115.713404 
L 337.813521 115.708781 
L 338.249007 116.705745 
L 338.684493 115.999241 
L 339.119978 114.46142 
L 339.555464 114.037672 
L 339.99095 114.046147 
L 340.426435 115.751926 
L 340.861921 115.75886 
L 341.297407 115.269624 
L 341.732892 114.322739 
L 342.168378 114.207171 
L 342.603864 114.97223 
L 343.039349 115.419862 
L 343.474835 113.687117 
L 343.91032 113.696362 
L 344.345806 114.12011 
L 344.781292 115.694143 
L 345.216777 115.661784 
L 345.652263 114.070031 
L 346.087749 114.046917 
L 346.95872 112.838079 
L 347.394206 113.003726 
L 347.829691 113.611612 
L 348.265177 113.711001 
L 348.700662 114.184058 
L 349.136148 115.465318 
L 349.571634 115.539282 
L 350.007119 110.885755 
L 350.442605 110.758631 
L 350.878091 110.762483 
L 351.313576 110.209299 
L 351.749062 109.438847 
L 352.184548 109.048228 
L 352.620033 110.529036 
L 353.491005 109.46119 
L 353.92649 111.737874 
L 354.361976 111.86654 
L 354.797461 111.054484 
L 355.668433 110.935834 
L 356.103918 111.738645 
L 356.539404 111.839574 
L 356.97489 112.71943 
L 357.410375 112.645466 
L 357.845861 114.531531 
L 358.281347 113.749523 
L 358.716832 113.64166 
L 359.152318 115.939917 
L 359.587804 114.993802 
L 360.023289 114.968377 
L 360.458775 114.124733 
L 360.89426 112.850406 
L 361.329746 114.245694 
L 361.765232 114.903659 
L 362.200717 114.872841 
L 362.636203 116.238852 
L 363.071689 114.507647 
L 363.507174 115.634818 
L 363.94266 115.049275 
L 364.813631 116.539328 
L 365.249117 114.166337 
L 365.684603 114.143994 
L 366.120088 114.714899 
L 366.555574 114.690244 
L 366.991059 114.884398 
L 367.426545 114.385916 
L 367.862031 113.616235 
L 368.297516 114.277282 
L 369.168488 114.210253 
L 369.603973 112.046825 
L 370.039459 112.400463 
L 370.474945 111.749431 
L 371.345916 111.766381 
L 371.781401 109.632231 
L 372.652373 108.119064 
L 373.087858 108.182241 
L 373.523344 108.119834 
L 373.95883 107.004991 
L 374.394315 109.451175 
L 374.829801 109.458879 
L 375.265287 109.173812 
L 375.700772 109.573676 
L 376.136258 108.928808 
L 376.571744 109.201548 
L 377.007229 108.901072 
L 377.442715 109.676917 
L 377.8782 109.625297 
L 378.313686 108.613694 
L 378.749172 109.589856 
L 379.184657 109.464272 
L 379.620143 110.184644 
L 380.055629 110.268623 
L 380.9266 111.035223 
L 381.362086 109.055933 
L 381.797571 109.535924 
L 382.668543 108.739277 
L 383.104028 109.106783 
L 383.539514 108.579794 
L 383.974999 109.172271 
L 384.410485 108.713852 
L 384.845971 108.716934 
L 385.281456 108.170684 
L 385.716942 107.092052 
L 386.152428 106.979566 
L 387.023399 107.877913 
L 387.458885 110.274017 
L 387.89437 109.95582 
L 388.765341 111.181608 
L 389.200827 108.817863 
L 389.636313 110.478186 
L 390.071798 110.371864 
L 390.507284 109.909593 
L 390.94277 109.135289 
L 391.378255 108.955774 
L 391.813741 111.257113 
L 392.684712 111.181608 
L 393.120198 113.673248 
L 393.555684 112.421265 
L 393.991169 111.774856 
L 394.426655 111.647732 
L 394.86214 110.888837 
L 395.297626 110.858789 
L 395.733112 109.907282 
L 396.168597 110.708551 
L 396.604083 110.624572 
L 397.039569 110.720108 
L 397.475054 111.990582 
L 397.91054 112.454394 
L 398.346026 112.633139 
L 398.781511 110.083715 
L 399.216997 110.269394 
L 399.652483 110.975127 
L 400.087968 108.511994 
L 400.523454 109.49509 
L 400.958939 108.968101 
L 401.394425 108.923415 
L 401.829911 109.338689 
L 401.829911 109.338689 
" clip-path="url(#p57401b2b71)" style="fill: none; stroke: #d62728; stroke-opacity: 0.8; stroke-width: 1.5; stroke-linecap: square"/>
   </g>
   <g id="line2d_23">
    <path d="M 147.070811 175.571317 
L 147.941782 175.362524 
L 148.812753 175.444963 
L 149.248239 174.495767 
L 150.11921 174.55355 
L 150.554696 173.918698 
L 151.861153 173.817769 
L 152.296638 173.909453 
L 152.732124 175.166059 
L 153.16761 175.270841 
L 153.603095 174.63753 
L 154.474067 174.846322 
L 154.909552 173.54657 
L 155.345038 173.32314 
L 157.08698 173.196015 
L 157.522466 173.266126 
L 157.957952 172.491052 
L 158.393437 173.419446 
L 159.699894 173.271519 
L 160.13538 172.16361 
L 160.570866 171.991029 
L 161.006351 171.304557 
L 161.441837 172.093499 
L 161.877322 172.015683 
L 162.312808 171.08806 
L 163.183779 171.058783 
L 163.619265 171.922459 
L 164.054751 171.779155 
L 164.490236 170.715161 
L 165.361208 170.653525 
L 165.796693 171.60041 
L 166.232179 171.46404 
L 166.667665 170.368458 
L 167.10315 170.152732 
L 167.538636 170.137323 
L 167.974121 170.625789 
L 168.409607 169.223567 
L 168.845093 165.520778 
L 169.716064 165.503057 
L 170.15155 166.41142 
L 170.587035 166.383683 
L 171.022521 165.405981 
L 171.458007 165.40444 
L 171.893492 165.228777 
L 172.328978 166.061635 
L 172.764463 166.041603 
L 173.199949 165.869022 
L 173.635435 164.452932 
L 174.07092 164.442916 
L 174.506406 165.023066 
L 174.941892 164.877451 
L 175.377377 164.146292 
L 176.683834 163.981416 
L 177.11932 163.816539 
L 177.554806 163.900518 
L 177.990291 163.728708 
L 178.425777 163.838112 
L 178.861262 164.450621 
L 179.296748 164.399771 
L 179.732234 163.469836 
L 180.603205 163.495261 
L 181.038691 164.059231 
L 181.474176 163.916698 
L 181.909662 162.824198 
L 182.780633 162.547606 
L 183.216119 163.053792 
L 183.651605 162.902784 
L 184.08709 162.241736 
L 184.522576 162.23018 
L 184.958061 162.073008 
L 185.393547 162.478265 
L 185.829033 162.341895 
L 186.264518 161.2571 
L 187.13549 161.229363 
L 187.570975 161.745566 
L 188.006461 161.757893 
L 188.441947 160.693129 
L 188.877432 160.498975 
L 189.312918 160.633804 
L 189.748403 159.580597 
L 190.183889 159.401082 
L 191.05486 158.696889 
L 191.490346 158.518145 
L 191.925832 159.014315 
L 192.361317 157.889456 
L 192.796803 157.090498 
L 193.667774 156.917147 
L 194.538746 156.70065 
L 194.974231 156.829315 
L 195.409717 155.664393 
L 195.845202 155.581954 
L 196.280688 156.172891 
L 197.587145 156.388617 
L 198.022631 155.716013 
L 198.458116 155.752994 
L 198.893602 155.651295 
L 199.329088 156.163645 
L 200.635545 156.055782 
L 201.07103 155.028 
L 202.812973 154.454784 
L 203.248458 154.615808 
L 203.683944 154.655101 
L 204.11943 154.811503 
L 204.554915 154.662806 
L 204.990401 154.759883 
L 205.425887 154.186667 
L 205.861372 154.712115 
L 206.296858 154.809962 
L 206.732343 154.749867 
L 207.167829 155.273774 
L 207.603315 154.199764 
L 208.0388 154.037199 
L 208.909772 154.101147 
L 209.345257 154.111933 
L 209.780743 153.478622 
L 211.522686 153.431624 
L 211.958171 152.777511 
L 212.393657 153.638105 
L 212.829142 153.575699 
L 213.264628 153.674317 
L 213.700114 154.808421 
L 214.135599 153.658907 
L 214.571085 153.776787 
L 215.006571 153.753673 
L 215.442056 153.555667 
L 215.877542 153.487097 
L 216.313028 152.721268 
L 216.748513 153.243634 
L 217.619485 152.869195 
L 218.05497 153.37307 
L 218.490456 153.218209 
L 218.925941 153.205112 
L 219.361427 152.168084 
L 219.796913 152.357615 
L 220.232398 152.364549 
L 220.667884 151.252017 
L 221.10337 152.186575 
L 222.409827 151.825233 
L 222.845312 151.770531 
L 223.280798 152.858408 
L 223.716283 152.170395 
L 224.587255 151.844494 
L 225.02274 151.208101 
L 225.458226 152.279799 
L 226.764683 151.80212 
L 227.200169 150.558611 
L 227.635654 151.08637 
L 228.07114 149.814355 
L 228.506626 149.939168 
L 228.942111 151.135679 
L 229.377597 150.396046 
L 230.248568 150.193417 
L 230.684054 150.006968 
L 231.119539 150.917641 
L 231.555025 149.805109 
L 231.990511 151.056323 
L 232.861482 151.124122 
L 233.296968 150.961557 
L 233.732453 150.067063 
L 234.167939 150.990064 
L 234.603425 150.953852 
L 235.03891 150.783583 
L 235.474396 151.469285 
L 235.909881 150.309755 
L 236.780853 150.200351 
L 237.651824 149.893711 
L 238.08731 148.898288 
L 238.522795 148.489949 
L 239.393767 148.166359 
L 239.829252 149.414491 
L 240.700224 149.557794 
L 241.135709 148.395183 
L 242.00668 148.075446 
L 242.442166 146.941341 
L 242.877652 147.660173 
L 243.313137 147.530737 
L 243.748623 147.549998 
L 244.619594 147.380499 
L 245.05508 148.425231 
L 245.926051 147.557703 
L 246.361537 147.545375 
L 246.797022 146.66552 
L 247.232508 147.602389 
L 247.667994 147.716416 
L 248.538965 147.785756 
L 248.974451 147.882063 
L 249.409936 148.899059 
L 249.845422 148.254961 
L 250.280908 147.217933 
L 251.151879 147.316551 
L 251.587365 148.260354 
L 252.02285 147.599307 
L 253.329307 147.645534 
L 253.764793 151.135679 
L 254.635764 151.104091 
L 255.07125 151.198856 
L 255.506735 150.248889 
L 255.942221 151.381453 
L 256.377707 151.446941 
L 256.813192 150.429946 
L 257.248678 151.039373 
L 258.119649 148.762689 
L 258.555135 149.100917 
L 259.426106 149.025413 
L 260.297077 147.919044 
L 260.732563 147.770347 
L 261.168049 147.835836 
L 261.603534 148.415215 
L 262.03902 148.472999 
L 262.474506 148.415985 
L 262.909991 147.456003 
L 263.780962 147.274176 
L 264.216448 146.27336 
L 265.087419 146.151629 
L 266.393876 146.029897 
L 266.829362 146.99065 
L 267.264848 146.333455 
L 268.135819 146.368126 
L 268.571305 145.680112 
L 269.00679 146.288769 
L 270.748733 146.566132 
L 271.184218 147.491444 
L 271.619704 146.464432 
L 272.05519 146.330373 
L 272.490675 146.315735 
L 272.926161 145.294116 
L 273.361647 146.248706 
L 273.797132 145.314148 
L 274.232618 145.153894 
L 274.668104 146.278753 
L 275.103589 146.277983 
L 275.539075 147.271095 
L 275.97456 146.882787 
L 276.845532 147.089268 
L 277.281017 148.13323 
L 277.716503 148.858995 
L 278.151989 148.172523 
L 279.02296 148.351268 
L 279.458446 147.670188 
L 279.893931 148.301188 
L 280.329417 149.368263 
L 280.764902 149.405245 
L 281.200388 149.303546 
L 281.635874 145.601526 
L 282.506845 145.587658 
L 282.942331 146.328062 
L 283.813302 146.298785 
L 284.248788 146.261803 
L 284.684273 145.076849 
L 285.555245 144.794093 
L 285.99073 142.96196 
L 287.732673 143.412674 
L 288.168158 144.080655 
L 289.03913 141.781628 
L 289.474615 141.725385 
L 289.910101 140.749994 
L 290.345587 140.609001 
L 291.216558 140.69298 
L 292.087529 140.682194 
L 292.523015 141.689944 
L 292.9585 141.670683 
L 293.393986 140.602067 
L 293.829472 140.483417 
L 294.264957 140.483417 
L 294.700443 141.120581 
L 295.135929 141.018111 
L 295.571414 139.915595 
L 296.0069 139.853188 
L 296.442386 138.762229 
L 296.877871 139.504944 
L 297.313357 138.570387 
L 297.748842 137.990237 
L 298.184328 137.870046 
L 298.619814 137.941698 
L 299.055299 139.128193 
L 299.490785 139.089671 
L 299.926271 138.403969 
L 300.361756 137.477116 
L 300.797242 137.444757 
L 301.232728 138.052643 
L 301.668213 138.077298 
L 302.103699 137.149674 
L 302.539185 137.247521 
L 302.97467 137.180492 
L 303.410156 137.287585 
L 303.845641 136.282916 
L 304.281127 136.104942 
L 305.152098 133.896058 
L 306.02307 133.503127 
L 306.458555 131.008406 
L 307.329527 128.924335 
L 307.765012 125.915722 
L 308.200498 125.907247 
L 309.071469 125.136795 
L 309.506955 123.659069 
L 309.94244 123.061199 
L 310.377926 121.71445 
L 310.813412 117.405315 
L 312.555354 117.509326 
L 312.99084 118.780571 
L 313.861811 118.688117 
L 314.297297 119.228974 
L 314.732782 119.176583 
L 315.168268 118.091787 
L 316.039239 118.037856 
L 316.474725 118.957004 
L 316.910211 118.91463 
L 317.345696 117.842932 
L 317.781182 117.7551 
L 318.216668 116.720384 
L 318.652153 117.414561 
L 319.087639 117.349843 
L 319.523125 116.124825 
L 320.394096 116.087073 
L 320.829581 117.20808 
L 321.265067 117.228882 
L 321.700553 111.484396 
L 322.571524 111.449726 
L 323.442495 113.202503 
L 323.877981 112.453624 
L 324.748952 112.422035 
L 325.184438 111.45666 
L 325.619924 111.340321 
L 326.055409 111.618454 
L 326.490895 111.613061 
L 326.92638 111.721695 
L 327.361866 112.792622 
L 327.797352 112.871979 
L 328.232837 112.170868 
L 329.103809 112.451312 
L 329.539294 112.6185 
L 329.97478 112.472885 
L 330.410266 110.425796 
L 330.845751 111.476691 
L 331.281237 111.574539 
L 331.716722 112.500621 
L 332.152208 112.603091 
L 332.587694 112.462099 
L 333.023179 112.477508 
L 333.458665 111.189313 
L 333.894151 108.682264 
L 334.329636 107.59978 
L 334.765122 107.362481 
L 336.071579 107.24229 
L 336.507065 107.223799 
L 336.94255 107.845554 
L 337.813521 105.914032 
L 338.249007 107.01963 
L 338.684493 107.0543 
L 339.119978 106.974944 
L 339.555464 105.82543 
L 339.99095 105.665947 
L 340.426435 106.551966 
L 341.297407 106.321601 
L 341.732892 105.267623 
L 342.603864 105.187496 
L 343.474835 106.877096 
L 343.91032 103.806847 
L 344.345806 103.757538 
L 344.781292 104.358491 
L 345.216777 105.481038 
L 345.652263 105.474875 
L 346.523234 103.374624 
L 347.394206 103.449358 
L 347.829691 104.386997 
L 348.265177 101.399957 
L 348.700662 101.315207 
L 349.571634 103.289104 
L 350.442605 101.145708 
L 351.313576 101.423841 
L 351.749062 101.390712 
L 352.184548 102.0194 
L 352.620033 101.432316 
L 353.055519 101.347566 
L 353.491005 102.105691 
L 353.92649 101.003945 
L 354.797461 100.903786 
L 355.232947 101.050172 
L 355.668433 100.270475 
L 356.103918 100.255837 
L 356.539404 101.355271 
L 356.97489 100.417631 
L 358.281347 100.541674 
L 358.716832 101.485477 
L 359.152318 101.498575 
L 359.587804 101.364516 
L 360.023289 100.294359 
L 360.458775 100.201135 
L 360.89426 100.709633 
L 361.329746 99.573987 
L 362.636203 99.518515 
L 363.071689 99.351327 
L 363.507174 96.590029 
L 363.94266 96.454429 
L 364.378146 97.107002 
L 365.249117 97.038431 
L 365.684603 96.30265 
L 366.120088 96.272603 
L 366.555574 100.050126 
L 367.426545 99.966917 
L 368.297516 97.703331 
L 368.733002 96.973714 
L 369.168488 96.958304 
L 369.603973 97.987628 
L 370.039459 91.771625 
L 370.474945 91.888734 
L 370.91043 94.795647 
L 371.781401 94.746338 
L 372.216887 93.995148 
L 372.652373 92.755492 
L 373.087858 92.585993 
L 373.523344 92.545159 
L 373.95883 92.643776 
L 374.394315 91.339402 
L 375.265287 92.999725 
L 375.700772 91.903373 
L 376.136258 91.901061 
L 377.007229 92.126804 
L 377.442715 91.180689 
L 377.8782 91.206885 
L 378.313686 92.290139 
L 378.749172 88.607381 
L 379.184657 88.6043 
L 380.055629 86.384629 
L 380.491114 86.176607 
L 380.9266 85.092582 
L 381.362086 85.101827 
L 381.797571 83.886825 
L 382.233057 84.893035 
L 382.668543 84.460041 
L 383.104028 83.378327 
L 383.974999 83.12716 
L 384.410485 82.048528 
L 384.845971 82.68261 
L 385.281456 83.634888 
L 385.716942 83.548597 
L 386.152428 82.941481 
L 387.023399 82.965365 
L 387.458885 82.807423 
L 387.89437 82.859814 
L 388.329856 81.745741 
L 389.200827 83.915332 
L 389.636313 83.924578 
L 390.071798 82.876764 
L 390.507284 84.072504 
L 390.94277 84.0648 
L 391.378255 86.598814 
L 391.813741 86.965549 
L 392.249227 87.952498 
L 392.684712 90.905638 
L 393.120198 90.771579 
L 393.555684 91.689958 
L 393.991169 90.810872 
L 394.86214 93.401901 
L 395.297626 93.703147 
L 395.733112 98.140947 
L 396.604083 96.429004 
L 397.039569 96.291864 
L 397.475054 96.397416 
L 398.346026 95.795693 
L 398.781511 94.853431 
L 399.216997 92.846405 
L 399.652483 92.942712 
L 400.087968 94.040605 
L 400.523454 92.985086 
L 400.958939 93.005889 
L 401.394425 93.163831 
L 401.829911 93.203124 
L 401.829911 93.203124 
" clip-path="url(#p57401b2b71)" style="fill: none; stroke: #9467bd; stroke-opacity: 0.8; stroke-width: 1.5; stroke-linecap: square"/>
   </g>
   <g id="patch_3">
    <path d="M 61.715625 288.430125 
L 61.715625 22.318125 
" style="fill: none; stroke: #000000; stroke-width: 0.8; stroke-linejoin: miter; stroke-linecap: square"/>
   </g>
   <g id="patch_4">
    <path d="M 418.835625 288.430125 
L 418.835625 22.318125 
" style="fill: none; stroke: #000000; stroke-width: 0.8; stroke-linejoin: miter; stroke-linecap: square"/>
   </g>
   <g id="patch_5">
    <path d="M 61.715625 288.430125 
L 418.835625 288.430125 
" style="fill: none; stroke: #000000; stroke-width: 0.8; stroke-linejoin: miter; stroke-linecap: square"/>
   </g>
   <g id="patch_6">
    <path d="M 61.715625 22.318125 
L 418.835625 22.318125 
" style="fill: none; stroke: #000000; stroke-width: 0.8; stroke-linejoin: miter; stroke-linecap: square"/>
   </g>
   <g id="text_21">
    <!-- Get children [leaf] -->
    <g transform="translate(185.86875 16.318125) scale(0.12 -0.12)">
     <defs>
      <path id="DejaVuSans-47" d="M 3809 666 
L 3809 1919 
L 2778 1919 
L 2778 2438 
L 4434 2438 
L 4434 434 
Q 4069 175 3628 42 
Q 3188 -91 2688 -91 
Q 1594 -91 976 548 
Q 359 1188 359 2328 
Q 359 3472 976 4111 
Q 1594 4750 2688 4750 
Q 3144 4750 3555 4637 
Q 3966 4525 4313 4306 
L 4313 3634 
Q 3963 3931 3569 4081 
Q 3175 4231 2741 4231 
Q 1884 4231 1454 3753 
Q 1025 3275 1025 2328 
Q 1025 1384 1454 906 
Q 1884 428 2741 428 
Q 3075 428 3337 486 
Q 3600 544 3809 666 
z
" transform="scale(0.015625)"/>
      <path id="DejaVuSans-68" d="M 3513 2113 
L 3513 0 
L 2938 0 
L 2938 2094 
Q 2938 2591 2744 2837 
Q 2550 3084 2163 3084 
Q 1697 3084 1428 2787 
Q 1159 2491 1159 1978 
L 1159 0 
L 581 0 
L 581 4863 
L 1159 4863 
L 1159 2956 
Q 1366 3272 1645 3428 
Q 1925 3584 2291 3584 
Q 2894 3584 3203 3211 
Q 3513 2838 3513 2113 
z
" transform="scale(0.015625)"/>
      <path id="DejaVuSans-72" d="M 2631 2963 
Q 2534 3019 2420 3045 
Q 2306 3072 2169 3072 
Q 1681 3072 1420 2755 
Q 1159 2438 1159 1844 
L 1159 0 
L 581 0 
L 581 3500 
L 1159 3500 
L 1159 2956 
Q 1341 3275 1631 3429 
Q 1922 3584 2338 3584 
Q 2397 3584 2469 3576 
Q 2541 3569 2628 3553 
L 2631 2963 
z
" transform="scale(0.015625)"/>
      <path id="DejaVuSans-5b" d="M 550 4863 
L 1875 4863 
L 1875 4416 
L 1125 4416 
L 1125 -397 
L 1875 -397 
L 1875 -844 
L 550 -844 
L 550 4863 
z
" transform="scale(0.015625)"/>
      <path id="DejaVuSans-5d" d="M 1947 4863 
L 1947 -844 
L 622 -844 
L 622 -397 
L 1369 -397 
L 1369 4416 
L 622 4416 
L 622 4863 
L 1947 4863 
z
" transform="scale(0.015625)"/>
     </defs>
     <use xlink:href="#DejaVuSans-47"/>
     <use xlink:href="#DejaVuSans-65" transform="translate(77.490234 0)"/>
     <use xlink:href="#DejaVuSans-74" transform="translate(139.013672 0)"/>
     <use xlink:href="#DejaVuSans-20" transform="translate(178.222656 0)"/>
     <use xlink:href="#DejaVuSans-63" transform="translate(210.009766 0)"/>
     <use xlink:href="#DejaVuSans-68" transform="translate(264.990234 0)"/>
     <use xlink:href="#DejaVuSans-69" transform="translate(328.369141 0)"/>
     <use xlink:href="#DejaVuSans-6c" transform="translate(356.152344 0)"/>
     <use xlink:href="#DejaVuSans-64" transform="translate(383.935547 0)"/>
     <use xlink:href="#DejaVuSans-72" transform="translate(447.412109 0)"/>
     <use xlink:href="#DejaVuSans-65" transform="translate(486.275391 0)"/>
     <use xlink:href="#DejaVuSans-6e" transform="translate(547.798828 0)"/>
     <use xlink:href="#DejaVuSans-20" transform="translate(611.177734 0)"/>
     <use xlink:href="#DejaVuSans-5b" transform="translate(642.964844 0)"/>
     <use xlink:href="#DejaVuSans-6c" transform="translate(681.978516 0)"/>
     <use xlink:href="#DejaVuSans-65" transform="translate(709.761719 0)"/>
     <use xlink:href="#DejaVuSans-61" transform="translate(771.285156 0)"/>
     <use xlink:href="#DejaVuSans-66" transform="translate(832.564453 0)"/>
     <use xlink:href="#DejaVuSans-5d" transform="translate(867.769531 0)"/>
    </g>
   </g>
   <g id="legend_1">
    <g id="patch_7">
     <path d="M 92.717969 365.802375 
L 380.313281 365.802375 
Q 382.313281 365.802375 382.313281 363.802375 
L 382.313281 335.446125 
Q 382.313281 333.446125 380.313281 333.446125 
L 92.717969 333.446125 
Q 90.717969 333.446125 90.717969 335.446125 
L 90.717969 363.802375 
Q 90.717969 365.802375 92.717969 365.802375 
z
" style="fill: #4d4d4d; opacity: 0.5; stroke: #4d4d4d; stroke-linejoin: miter"/>
    </g>
    <g id="patch_8">
     <path d="M 90.717969 363.802375 
L 378.313281 363.802375 
Q 380.313281 363.802375 380.313281 361.802375 
L 380.313281 333.446125 
Q 380.313281 331.446125 378.313281 331.446125 
L 90.717969 331.446125 
Q 88.717969 331.446125 88.717969 333.446125 
L 88.717969 361.802375 
Q 88.717969 363.802375 90.717969 363.802375 
z
" style="fill: #ffffff; stroke: #cccccc; stroke-linejoin: miter"/>
    </g>
    <g id="line2d_24">
     <path d="M 92.717969 339.544562 
L 102.717969 339.544562 
L 112.717969 339.544562 
" style="fill: none; stroke: #1f77b4; stroke-opacity: 0.8; stroke-width: 1.5; stroke-linecap: square"/>
    </g>
    <g id="text_22">
     <!-- MPTT -->
     <g transform="translate(120.717969 343.044562) scale(0.1 -0.1)">
      <defs>
       <path id="DejaVuSans-4d" d="M 628 4666 
L 1569 4666 
L 2759 1491 
L 3956 4666 
L 4897 4666 
L 4897 0 
L 4281 0 
L 4281 4097 
L 3078 897 
L 2444 897 
L 1241 4097 
L 1241 0 
L 628 0 
L 628 4666 
z
" transform="scale(0.015625)"/>
       <path id="DejaVuSans-50" d="M 1259 4147 
L 1259 2394 
L 2053 2394 
Q 2494 2394 2734 2622 
Q 2975 2850 2975 3272 
Q 2975 3691 2734 3919 
Q 2494 4147 2053 4147 
L 1259 4147 
z
M 628 4666 
L 2053 4666 
Q 2838 4666 3239 4311 
Q 3641 3956 3641 3272 
Q 3641 2581 3239 2228 
Q 2838 1875 2053 1875 
L 1259 1875 
L 1259 0 
L 628 0 
L 628 4666 
z
" transform="scale(0.015625)"/>
       <path id="DejaVuSans-54" d="M -19 4666 
L 3928 4666 
L 3928 4134 
L 2272 4134 
L 2272 0 
L 1638 0 
L 1638 4134 
L -19 4134 
L -19 4666 
z
" transform="scale(0.015625)"/>
      </defs>
      <use xlink:href="#DejaVuSans-4d"/>
      <use xlink:href="#DejaVuSans-50" transform="translate(86.279297 0)"/>
      <use xlink:href="#DejaVuSans-54" transform="translate(146.582031 0)"/>
      <use xlink:href="#DejaVuSans-54" transform="translate(205.916016 0)"/>
     </g>
    </g>
    <g id="line2d_25">
     <path d="M 92.717969 354.222687 
L 102.717969 354.222687 
L 112.717969 354.222687 
" style="fill: none; stroke: #ff7f0e; stroke-opacity: 0.8; stroke-width: 1.5; stroke-linecap: square"/>
    </g>
    <g id="text_23">
     <!-- tree -->
     <g transform="translate(120.717969 357.722687) scale(0.1 -0.1)">
      <use xlink:href="#DejaVuSans-74"/>
      <use xlink:href="#DejaVuSans-72" transform="translate(39.208984 0)"/>
      <use xlink:href="#DejaVuSans-65" transform="translate(78.072266 0)"/>
      <use xlink:href="#DejaVuSans-65" transform="translate(139.595703 0)"/>
     </g>
    </g>
    <g id="line2d_26">
     <path d="M 167.416406 339.544562 
L 177.416406 339.544562 
L 187.416406 339.544562 
" style="fill: none; stroke: #2ca02c; stroke-opacity: 0.8; stroke-width: 1.5; stroke-linecap: square"/>
    </g>
    <g id="text_24">
     <!-- treebeard AL -->
     <g transform="translate(195.416406 343.044562) scale(0.1 -0.1)">
      <defs>
       <path id="DejaVuSans-4c" d="M 628 4666 
L 1259 4666 
L 1259 531 
L 3531 531 
L 3531 0 
L 628 0 
L 628 4666 
z
" transform="scale(0.015625)"/>
      </defs>
      <use xlink:href="#DejaVuSans-74"/>
      <use xlink:href="#DejaVuSans-72" transform="translate(39.208984 0)"/>
      <use xlink:href="#DejaVuSans-65" transform="translate(78.072266 0)"/>
      <use xlink:href="#DejaVuSans-65" transform="translate(139.595703 0)"/>
      <use xlink:href="#DejaVuSans-62" transform="translate(201.119141 0)"/>
      <use xlink:href="#DejaVuSans-65" transform="translate(264.595703 0)"/>
      <use xlink:href="#DejaVuSans-61" transform="translate(326.119141 0)"/>
      <use xlink:href="#DejaVuSans-72" transform="translate(387.398438 0)"/>
      <use xlink:href="#DejaVuSans-64" transform="translate(426.761719 0)"/>
      <use xlink:href="#DejaVuSans-20" transform="translate(490.238281 0)"/>
      <use xlink:href="#DejaVuSans-41" transform="translate(522.025391 0)"/>
      <use xlink:href="#DejaVuSans-4c" transform="translate(590.433594 0)"/>
     </g>
    </g>
    <g id="line2d_27">
     <path d="M 167.416406 354.222687 
L 177.416406 354.222687 
L 187.416406 354.222687 
" style="fill: none; stroke: #d62728; stroke-opacity: 0.8; stroke-width: 1.5; stroke-linecap: square"/>
    </g>
    <g id="text_25">
     <!-- treebeard MP -->
     <g transform="translate(195.416406 357.722687) scale(0.1 -0.1)">
      <use xlink:href="#DejaVuSans-74"/>
      <use xlink:href="#DejaVuSans-72" transform="translate(39.208984 0)"/>
      <use xlink:href="#DejaVuSans-65" transform="translate(78.072266 0)"/>
      <use xlink:href="#DejaVuSans-65" transform="translate(139.595703 0)"/>
      <use xlink:href="#DejaVuSans-62" transform="translate(201.119141 0)"/>
      <use xlink:href="#DejaVuSans-65" transform="translate(264.595703 0)"/>
      <use xlink:href="#DejaVuSans-61" transform="translate(326.119141 0)"/>
      <use xlink:href="#DejaVuSans-72" transform="translate(387.398438 0)"/>
      <use xlink:href="#DejaVuSans-64" transform="translate(426.761719 0)"/>
      <use xlink:href="#DejaVuSans-20" transform="translate(490.238281 0)"/>
      <use xlink:href="#DejaVuSans-4d" transform="translate(522.025391 0)"/>
      <use xlink:href="#DejaVuSans-50" transform="translate(608.304688 0)"/>
     </g>
    </g>
    <g id="line2d_28">
     <path d="M 282.278906 339.544562 
L 292.278906 339.544562 
L 302.278906 339.544562 
" style="fill: none; stroke: #9467bd; stroke-opacity: 0.8; stroke-width: 1.5; stroke-linecap: square"/>
    </g>
    <g id="text_26">
     <!-- treebeard NS -->
     <g transform="translate(310.278906 343.044562) scale(0.1 -0.1)">
      <defs>
       <path id="DejaVuSans-4e" d="M 628 4666 
L 1478 4666 
L 3547 763 
L 3547 4666 
L 4159 4666 
L 4159 0 
L 3309 0 
L 1241 3903 
L 1241 0 
L 628 0 
L 628 4666 
z
" transform="scale(0.015625)"/>
       <path id="DejaVuSans-53" d="M 3425 4513 
L 3425 3897 
Q 3066 4069 2747 4153 
Q 2428 4238 2131 4238 
Q 1616 4238 1336 4038 
Q 1056 3838 1056 3469 
Q 1056 3159 1242 3001 
Q 1428 2844 1947 2747 
L 2328 2669 
Q 3034 2534 3370 2195 
Q 3706 1856 3706 1288 
Q 3706 609 3251 259 
Q 2797 -91 1919 -91 
Q 1588 -91 1214 -16 
Q 841 59 441 206 
L 441 856 
Q 825 641 1194 531 
Q 1563 422 1919 422 
Q 2459 422 2753 634 
Q 3047 847 3047 1241 
Q 3047 1584 2836 1778 
Q 2625 1972 2144 2069 
L 1759 2144 
Q 1053 2284 737 2584 
Q 422 2884 422 3419 
Q 422 4038 858 4394 
Q 1294 4750 2059 4750 
Q 2388 4750 2728 4690 
Q 3069 4631 3425 4513 
z
" transform="scale(0.015625)"/>
      </defs>
      <use xlink:href="#DejaVuSans-74"/>
      <use xlink:href="#DejaVuSans-72" transform="translate(39.208984 0)"/>
      <use xlink:href="#DejaVuSans-65" transform="translate(78.072266 0)"/>
      <use xlink:href="#DejaVuSans-65" transform="translate(139.595703 0)"/>
      <use xlink:href="#DejaVuSans-62" transform="translate(201.119141 0)"/>
      <use xlink:href="#DejaVuSans-65" transform="translate(264.595703 0)"/>
      <use xlink:href="#DejaVuSans-61" transform="translate(326.119141 0)"/>
      <use xlink:href="#DejaVuSans-72" transform="translate(387.398438 0)"/>
      <use xlink:href="#DejaVuSans-64" transform="translate(426.761719 0)"/>
      <use xlink:href="#DejaVuSans-20" transform="translate(490.238281 0)"/>
      <use xlink:href="#DejaVuSans-4e" transform="translate(522.025391 0)"/>
      <use xlink:href="#DejaVuSans-53" transform="translate(596.830078 0)"/>
     </g>
    </g>
   </g>
  </g>
 </g>
 <defs>
  <clipPath id="p57401b2b71">
   <rect x="61.715625" y="22.318125" width="357.12" height="266.112"/>
  </clipPath>
 </defs>
</svg>
