<?xml version="1.0" encoding="utf-8" standalone="no"?>
<!DOCTYPE svg PUBLIC "-//W3C//DTD SVG 1.1//EN"
  "http://www.w3.org/Graphics/SVG/1.1/DTD/svg11.dtd">
<svg xmlns:xlink="http://www.w3.org/1999/xlink" width="426.358281pt" height="371.647687pt" viewBox="0 0 426.358281 371.647687" xmlns="http://www.w3.org/2000/svg" version="1.1">
 <metadata>
  <rdf:RDF xmlns:dc="http://purl.org/dc/elements/1.1/" xmlns:cc="http://creativecommons.org/ns#" xmlns:rdf="http://www.w3.org/1999/02/22-rdf-syntax-ns#">
   <cc:Work>
    <dc:type rdf:resource="http://purl.org/dc/dcmitype/StillImage"/>
    <dc:date>2026-06-29T09:13:52.898304</dc:date>
    <dc:format>image/svg+xml</dc:format>
    <dc:creator>
     <cc:Agent>
      <dc:title>Matplotlib v3.11.0, https://matplotlib.org/</dc:title>
     </cc:Agent>
    </dc:creator>
   </cc:Work>
  </rdf:RDF>
 </metadata>
 <defs>
  <style type="text/css">*{stroke-linejoin: round; stroke-linecap: butt}</style>
 </defs>
 <g id="figure_1">
  <g id="patch_1">
   <path d="M 0 371.647687 
L 426.358281 371.647687 
L 426.358281 0 
L 0 0 
z
" style="fill: #ffffff"/>
  </g>
  <g id="axes_1">
   <g id="patch_2">
    <path d="M 62.038281 288.430125 
L 419.158281 288.430125 
L 419.158281 22.318125 
L 62.038281 22.318125 
z
" style="fill: #ffffff"/>
   </g>
   <g id="matplotlib.axis_1">
    <g id="xtick_1">
     <g id="line2d_1">
      <defs>
       <path id="m4a3f764db0" d="M 0 0 
L 0 3.5 
" style="stroke: #000000; stroke-width: 0.8"/>
      </defs>
      <g>
       <use xlink:href="#m4a3f764db0" x="62.038281" y="288.430125" style="stroke: #000000; stroke-width: 0.8"/>
      </g>
     </g>
     <g id="text_1">
      <!-- 0 -->
      <g transform="translate(58.857031 303.027781) scale(0.1 -0.1)">
       <defs>
        <path id="DejaVuSans-13" d="M 2034 4250 
Q 1547 4250 1301 3770 
Q 1056 3291 1056 2328 
Q 1056 1369 1301 889 
Q 1547 409 2034 409 
Q 2525 409 2770 889 
Q 3016 1369 3016 2328 
Q 3016 3291 2770 3770 
Q 2525 4250 2034 4250 
z
M 2034 4750 
Q 2819 4750 3233 4129 
Q 3647 3509 3647 2328 
Q 3647 1150 3233 529 
Q 2819 -91 2034 -91 
Q 1250 -91 836 529 
Q 422 1150 422 2328 
Q 422 3509 836 4129 
Q 1250 4750 2034 4750 
z
" transform="scale(0.015625)"/>
       </defs>
       <use xlink:href="#DejaVuSans-13"/>
      </g>
     </g>
    </g>
    <g id="xtick_2">
     <g id="line2d_2">
      <g>
       <use xlink:href="#m4a3f764db0" x="105.586845" y="288.430125" style="stroke: #000000; stroke-width: 0.8"/>
      </g>
     </g>
     <g id="text_2">
      <!-- 500  -->
      <g transform="translate(94.454033 303.027781) scale(0.1 -0.1)">
       <defs>
        <path id="DejaVuSans-18" d="M 691 4666 
L 3169 4666 
L 3169 4134 
L 1269 4134 
L 1269 2991 
Q 1406 3038 1543 3061 
Q 1681 3084 1819 3084 
Q 2600 3084 3056 2656 
Q 3513 2228 3513 1497 
Q 3513 744 3044 326 
Q 2575 -91 1722 -91 
Q 1428 -91 1123 -41 
Q 819 9 494 109 
L 494 744 
Q 775 591 1075 516 
Q 1375 441 1709 441 
Q 2250 441 2565 725 
Q 2881 1009 2881 1497 
Q 2881 1984 2565 2268 
Q 2250 2553 1709 2553 
Q 1456 2553 1204 2497 
Q 953 2441 691 2322 
L 691 4666 
z
" transform="scale(0.015625)"/>
        <path id="DejaVuSans-3" transform="scale(0.015625)"/>
       </defs>
       <use xlink:href="#DejaVuSans-18"/>
       <use xlink:href="#DejaVuSans-13" transform="translate(63.625 0)"/>
       <use xlink:href="#DejaVuSans-13" transform="translate(127.25 0)"/>
       <use xlink:href="#DejaVuSans-3" transform="translate(190.875 0)"/>
      </g>
     </g>
    </g>
    <g id="xtick_3">
     <g id="line2d_3">
      <g>
       <use xlink:href="#m4a3f764db0" x="149.135409" y="288.430125" style="stroke: #000000; stroke-width: 0.8"/>
      </g>
     </g>
     <g id="text_3">
      <!-- 1 k -->
      <g transform="translate(141.469784 303.028562) scale(0.1 -0.1)">
       <defs>
        <path id="DejaVuSans-14" d="M 794 531 
L 1825 531 
L 1825 4091 
L 703 3866 
L 703 4441 
L 1819 4666 
L 2450 4666 
L 2450 531 
L 3481 531 
L 3481 0 
L 794 0 
L 794 531 
z
" transform="scale(0.015625)"/>
        <path id="DejaVuSans-4e" d="M 581 4863 
L 1159 4863 
L 1159 1991 
L 2875 3500 
L 3609 3500 
L 1753 1863 
L 3688 0 
L 2938 0 
L 1159 1709 
L 1159 0 
L 581 0 
L 581 4863 
z
" transform="scale(0.015625)"/>
       </defs>
       <use xlink:href="#DejaVuSans-14"/>
       <use xlink:href="#DejaVuSans-3" transform="translate(63.625 0)"/>
       <use xlink:href="#DejaVuSans-4e" transform="translate(95.40625 0)"/>
      </g>
     </g>
    </g>
    <g id="xtick_4">
     <g id="line2d_4">
      <g>
       <use xlink:href="#m4a3f764db0" x="192.683974" y="288.430125" style="stroke: #000000; stroke-width: 0.8"/>
      </g>
     </g>
     <g id="text_4">
      <!-- 1.5 k -->
      <g transform="translate(180.248036 303.028562) scale(0.1 -0.1)">
       <defs>
        <path id="DejaVuSans-11" d="M 684 794 
L 1344 794 
L 1344 0 
L 684 0 
L 684 794 
z
" transform="scale(0.015625)"/>
       </defs>
       <use xlink:href="#DejaVuSans-14"/>
       <use xlink:href="#DejaVuSans-11" transform="translate(63.625 0)"/>
       <use xlink:href="#DejaVuSans-18" transform="translate(95.40625 0)"/>
       <use xlink:href="#DejaVuSans-3" transform="translate(159.03125 0)"/>
       <use xlink:href="#DejaVuSans-4e" transform="translate(190.8125 0)"/>
      </g>
     </g>
    </g>
    <g id="xtick_5">
     <g id="line2d_5">
      <g>
       <use xlink:href="#m4a3f764db0" x="236.232538" y="288.430125" style="stroke: #000000; stroke-width: 0.8"/>
      </g>
     </g>
     <g id="text_5">
      <!-- 2 k -->
      <g transform="translate(228.566913 303.028562) scale(0.1 -0.1)">
       <defs>
        <path id="DejaVuSans-15" d="M 1228 531 
L 3431 531 
L 3431 0 
L 469 0 
L 469 531 
Q 828 903 1448 1529 
Q 2069 2156 2228 2338 
Q 2531 2678 2651 2914 
Q 2772 3150 2772 3378 
Q 2772 3750 2511 3984 
Q 2250 4219 1831 4219 
Q 1534 4219 1204 4116 
Q 875 4013 500 3803 
L 500 4441 
Q 881 4594 1212 4672 
Q 1544 4750 1819 4750 
Q 2544 4750 2975 4387 
Q 3406 4025 3406 3419 
Q 3406 3131 3298 2873 
Q 3191 2616 2906 2266 
Q 2828 2175 2409 1742 
Q 1991 1309 1228 531 
z
" transform="scale(0.015625)"/>
       </defs>
       <use xlink:href="#DejaVuSans-15"/>
       <use xlink:href="#DejaVuSans-3" transform="translate(63.625 0)"/>
       <use xlink:href="#DejaVuSans-4e" transform="translate(95.40625 0)"/>
      </g>
     </g>
    </g>
    <g id="xtick_6">
     <g id="line2d_6">
      <g>
       <use xlink:href="#m4a3f764db0" x="279.781102" y="288.430125" style="stroke: #000000; stroke-width: 0.8"/>
      </g>
     </g>
     <g id="text_6">
      <!-- 2.5 k -->
      <g transform="translate(267.345164 303.028562) scale(0.1 -0.1)">
       <use xlink:href="#DejaVuSans-15"/>
       <use xlink:href="#DejaVuSans-11" transform="translate(63.625 0)"/>
       <use xlink:href="#DejaVuSans-18" transform="translate(95.40625 0)"/>
       <use xlink:href="#DejaVuSans-3" transform="translate(159.03125 0)"/>
       <use xlink:href="#DejaVuSans-4e" transform="translate(190.8125 0)"/>
      </g>
     </g>
    </g>
    <g id="xtick_7">
     <g id="line2d_7">
      <g>
       <use xlink:href="#m4a3f764db0" x="323.329666" y="288.430125" style="stroke: #000000; stroke-width: 0.8"/>
      </g>
     </g>
     <g id="text_7">
      <!-- 3 k -->
      <g transform="translate(315.664041 303.028562) scale(0.1 -0.1)">
       <defs>
        <path id="DejaVuSans-16" d="M 2597 2516 
Q 3050 2419 3304 2112 
Q 3559 1806 3559 1356 
Q 3559 666 3084 287 
Q 2609 -91 1734 -91 
Q 1441 -91 1130 -33 
Q 819 25 488 141 
L 488 750 
Q 750 597 1062 519 
Q 1375 441 1716 441 
Q 2309 441 2620 675 
Q 2931 909 2931 1356 
Q 2931 1769 2642 2001 
Q 2353 2234 1838 2234 
L 1294 2234 
L 1294 2753 
L 1863 2753 
Q 2328 2753 2575 2939 
Q 2822 3125 2822 3475 
Q 2822 3834 2567 4026 
Q 2313 4219 1838 4219 
Q 1578 4219 1281 4162 
Q 984 4106 628 3988 
L 628 4550 
Q 988 4650 1302 4700 
Q 1616 4750 1894 4750 
Q 2613 4750 3031 4423 
Q 3450 4097 3450 3541 
Q 3450 3153 3228 2886 
Q 3006 2619 2597 2516 
z
" transform="scale(0.015625)"/>
       </defs>
       <use xlink:href="#DejaVuSans-16"/>
       <use xlink:href="#DejaVuSans-3" transform="translate(63.625 0)"/>
       <use xlink:href="#DejaVuSans-4e" transform="translate(95.40625 0)"/>
      </g>
     </g>
    </g>
    <g id="xtick_8">
     <g id="line2d_8">
      <g>
       <use xlink:href="#m4a3f764db0" x="366.87823" y="288.430125" style="stroke: #000000; stroke-width: 0.8"/>
      </g>
     </g>
     <g id="text_8">
      <!-- 3.5 k -->
      <g transform="translate(354.442293 303.028562) scale(0.1 -0.1)">
       <use xlink:href="#DejaVuSans-16"/>
       <use xlink:href="#DejaVuSans-11" transform="translate(63.625 0)"/>
       <use xlink:href="#DejaVuSans-18" transform="translate(95.40625 0)"/>
       <use xlink:href="#DejaVuSans-3" transform="translate(159.03125 0)"/>
       <use xlink:href="#DejaVuSans-4e" transform="translate(190.8125 0)"/>
      </g>
     </g>
    </g>
    <g id="xtick_9">
     <g id="line2d_9">
      <g>
       <use xlink:href="#m4a3f764db0" x="410.426794" y="288.430125" style="stroke: #000000; stroke-width: 0.8"/>
      </g>
     </g>
     <g id="text_9">
      <!-- 4 k -->
      <g transform="translate(402.761169 303.028562) scale(0.1 -0.1)">
       <defs>
        <path id="DejaVuSans-17" d="M 2419 4116 
L 825 1625 
L 2419 1625 
L 2419 4116 
z
M 2253 4666 
L 3047 4666 
L 3047 1625 
L 3713 1625 
L 3713 1100 
L 3047 1100 
L 3047 0 
L 2419 0 
L 2419 1100 
L 313 1100 
L 313 1709 
L 2253 4666 
z
" transform="scale(0.015625)"/>
       </defs>
       <use xlink:href="#DejaVuSans-17"/>
       <use xlink:href="#DejaVuSans-3" transform="translate(63.625 0)"/>
       <use xlink:href="#DejaVuSans-4e" transform="translate(95.40625 0)"/>
      </g>
     </g>
    </g>
    <g id="text_10">
     <!-- Amount of objects in table -->
     <g transform="translate(174.539688 317.029344) scale(0.1 -0.1)">
      <defs>
       <path id="DejaVuSans-24" d="M 2188 4044 
L 1331 1722 
L 3047 1722 
L 2188 4044 
z
M 1831 4666 
L 2547 4666 
L 4325 0 
L 3669 0 
L 3244 1197 
L 1141 1197 
L 716 0 
L 50 0 
L 1831 4666 
z
" transform="scale(0.015625)"/>
       <path id="DejaVuSans-50" d="M 3328 2828 
Q 3544 3216 3844 3400 
Q 4144 3584 4550 3584 
Q 5097 3584 5394 3201 
Q 5691 2819 5691 2113 
L 5691 0 
L 5113 0 
L 5113 2094 
Q 5113 2597 4934 2840 
Q 4756 3084 4391 3084 
Q 3944 3084 3684 2787 
Q 3425 2491 3425 1978 
L 3425 0 
L 2847 0 
L 2847 2094 
Q 2847 2600 2669 2842 
Q 2491 3084 2119 3084 
Q 1678 3084 1418 2786 
Q 1159 2488 1159 1978 
L 1159 0 
L 581 0 
L 581 3500 
L 1159 3500 
L 1159 2956 
Q 1356 3278 1631 3431 
Q 1906 3584 2284 3584 
Q 2666 3584 2933 3390 
Q 3200 3197 3328 2828 
z
" transform="scale(0.015625)"/>
       <path id="DejaVuSans-52" d="M 1959 3097 
Q 1497 3097 1228 2736 
Q 959 2375 959 1747 
Q 959 1119 1226 758 
Q 1494 397 1959 397 
Q 2419 397 2687 759 
Q 2956 1122 2956 1747 
Q 2956 2369 2687 2733 
Q 2419 3097 1959 3097 
z
M 1959 3584 
Q 2709 3584 3137 3096 
Q 3566 2609 3566 1747 
Q 3566 888 3137 398 
Q 2709 -91 1959 -91 
Q 1206 -91 779 398 
Q 353 888 353 1747 
Q 353 2609 779 3096 
Q 1206 3584 1959 3584 
z
" transform="scale(0.015625)"/>
       <path id="DejaVuSans-58" d="M 544 1381 
L 544 3500 
L 1119 3500 
L 1119 1403 
Q 1119 906 1312 657 
Q 1506 409 1894 409 
Q 2359 409 2629 706 
Q 2900 1003 2900 1516 
L 2900 3500 
L 3475 3500 
L 3475 0 
L 2900 0 
L 2900 538 
Q 2691 219 2414 64 
Q 2138 -91 1772 -91 
Q 1169 -91 856 284 
Q 544 659 544 1381 
z
M 1991 3584 
L 1991 3584 
z
" transform="scale(0.015625)"/>
       <path id="DejaVuSans-51" d="M 3513 2113 
L 3513 0 
L 2938 0 
L 2938 2094 
Q 2938 2591 2744 2837 
Q 2550 3084 2163 3084 
Q 1697 3084 1428 2787 
Q 1159 2491 1159 1978 
L 1159 0 
L 581 0 
L 581 3500 
L 1159 3500 
L 1159 2956 
Q 1366 3272 1645 3428 
Q 1925 3584 2291 3584 
Q 2894 3584 3203 3211 
Q 3513 2838 3513 2113 
z
" transform="scale(0.015625)"/>
       <path id="DejaVuSans-57" d="M 1172 4494 
L 1172 3500 
L 2356 3500 
L 2356 3053 
L 1172 3053 
L 1172 1153 
Q 1172 725 1289 603 
Q 1406 481 1766 481 
L 2356 481 
L 2356 0 
L 1766 0 
Q 1100 0 847 248 
Q 594 497 594 1153 
L 594 3053 
L 172 3053 
L 172 3500 
L 594 3500 
L 594 4494 
L 1172 4494 
z
" transform="scale(0.015625)"/>
       <path id="DejaVuSans-49" d="M 2375 4863 
L 2375 4384 
L 1825 4384 
Q 1516 4384 1395 4259 
Q 1275 4134 1275 3809 
L 1275 3500 
L 2222 3500 
L 2222 3053 
L 1275 3053 
L 1275 0 
L 697 0 
L 697 3053 
L 147 3053 
L 147 3500 
L 697 3500 
L 697 3744 
Q 697 4328 969 4595 
Q 1241 4863 1831 4863 
L 2375 4863 
z
" transform="scale(0.015625)"/>
       <path id="DejaVuSans-45" d="M 3116 1747 
Q 3116 2381 2855 2742 
Q 2594 3103 2138 3103 
Q 1681 3103 1420 2742 
Q 1159 2381 1159 1747 
Q 1159 1113 1420 752 
Q 1681 391 2138 391 
Q 2594 391 2855 752 
Q 3116 1113 3116 1747 
z
M 1159 2969 
Q 1341 3281 1617 3432 
Q 1894 3584 2278 3584 
Q 2916 3584 3314 3078 
Q 3713 2572 3713 1747 
Q 3713 922 3314 415 
Q 2916 -91 2278 -91 
Q 1894 -91 1617 61 
Q 1341 213 1159 525 
L 1159 0 
L 581 0 
L 581 4863 
L 1159 4863 
L 1159 2969 
z
" transform="scale(0.015625)"/>
       <path id="DejaVuSans-4d" d="M 603 3500 
L 1178 3500 
L 1178 -63 
Q 1178 -731 923 -1031 
Q 669 -1331 103 -1331 
L -116 -1331 
L -116 -844 
L 38 -844 
Q 366 -844 484 -692 
Q 603 -541 603 -63 
L 603 3500 
z
M 603 4863 
L 1178 4863 
L 1178 4134 
L 603 4134 
L 603 4863 
z
" transform="scale(0.015625)"/>
       <path id="DejaVuSans-48" d="M 3597 1894 
L 3597 1613 
L 953 1613 
Q 991 1019 1311 708 
Q 1631 397 2203 397 
Q 2534 397 2845 478 
Q 3156 559 3463 722 
L 3463 178 
Q 3153 47 2828 -22 
Q 2503 -91 2169 -91 
Q 1331 -91 842 396 
Q 353 884 353 1716 
Q 353 2575 817 3079 
Q 1281 3584 2069 3584 
Q 2775 3584 3186 3129 
Q 3597 2675 3597 1894 
z
M 3022 2063 
Q 3016 2534 2758 2815 
Q 2500 3097 2075 3097 
Q 1594 3097 1305 2825 
Q 1016 2553 972 2059 
L 3022 2063 
z
" transform="scale(0.015625)"/>
       <path id="DejaVuSans-46" d="M 3122 3366 
L 3122 2828 
Q 2878 2963 2633 3030 
Q 2388 3097 2138 3097 
Q 1578 3097 1268 2742 
Q 959 2388 959 1747 
Q 959 1106 1268 751 
Q 1578 397 2138 397 
Q 2388 397 2633 464 
Q 2878 531 3122 666 
L 3122 134 
Q 2881 22 2623 -34 
Q 2366 -91 2075 -91 
Q 1284 -91 818 406 
Q 353 903 353 1747 
Q 353 2603 823 3093 
Q 1294 3584 2113 3584 
Q 2378 3584 2631 3529 
Q 2884 3475 3122 3366 
z
" transform="scale(0.015625)"/>
       <path id="DejaVuSans-56" d="M 2834 3397 
L 2834 2853 
Q 2591 2978 2328 3040 
Q 2066 3103 1784 3103 
Q 1356 3103 1142 2972 
Q 928 2841 928 2578 
Q 928 2378 1081 2264 
Q 1234 2150 1697 2047 
L 1894 2003 
Q 2506 1872 2764 1633 
Q 3022 1394 3022 966 
Q 3022 478 2636 193 
Q 2250 -91 1575 -91 
Q 1294 -91 989 -36 
Q 684 19 347 128 
L 347 722 
Q 666 556 975 473 
Q 1284 391 1588 391 
Q 1994 391 2212 530 
Q 2431 669 2431 922 
Q 2431 1156 2273 1281 
Q 2116 1406 1581 1522 
L 1381 1569 
Q 847 1681 609 1914 
Q 372 2147 372 2553 
Q 372 3047 722 3315 
Q 1072 3584 1716 3584 
Q 2034 3584 2315 3537 
Q 2597 3491 2834 3397 
z
" transform="scale(0.015625)"/>
       <path id="DejaVuSans-4c" d="M 603 3500 
L 1178 3500 
L 1178 0 
L 603 0 
L 603 3500 
z
M 603 4863 
L 1178 4863 
L 1178 4134 
L 603 4134 
L 603 4863 
z
" transform="scale(0.015625)"/>
       <path id="DejaVuSans-44" d="M 2194 1759 
Q 1497 1759 1228 1600 
Q 959 1441 959 1056 
Q 959 750 1161 570 
Q 1363 391 1709 391 
Q 2188 391 2477 730 
Q 2766 1069 2766 1631 
L 2766 1759 
L 2194 1759 
z
M 3341 1997 
L 3341 0 
L 2766 0 
L 2766 531 
Q 2569 213 2275 61 
Q 1981 -91 1556 -91 
Q 1019 -91 701 211 
Q 384 513 384 1019 
Q 384 1609 779 1909 
Q 1175 2209 1959 2209 
L 2766 2209 
L 2766 2266 
Q 2766 2663 2505 2880 
Q 2244 3097 1772 3097 
Q 1472 3097 1187 3025 
Q 903 2953 641 2809 
L 641 3341 
Q 956 3463 1253 3523 
Q 1550 3584 1831 3584 
Q 2591 3584 2966 3190 
Q 3341 2797 3341 1997 
z
" transform="scale(0.015625)"/>
       <path id="DejaVuSans-4f" d="M 603 4863 
L 1178 4863 
L 1178 0 
L 603 0 
L 603 4863 
z
" transform="scale(0.015625)"/>
      </defs>
      <use xlink:href="#DejaVuSans-24"/>
      <use xlink:href="#DejaVuSans-50" transform="translate(68.40625 0)"/>
      <use xlink:href="#DejaVuSans-52" transform="translate(165.8125 0)"/>
      <use xlink:href="#DejaVuSans-58" transform="translate(227 0)"/>
      <use xlink:href="#DejaVuSans-51" transform="translate(290.375 0)"/>
      <use xlink:href="#DejaVuSans-57" transform="translate(353.75 0)"/>
      <use xlink:href="#DejaVuSans-3" transform="translate(392.953125 0)"/>
      <use xlink:href="#DejaVuSans-52" transform="translate(424.734375 0)"/>
      <use xlink:href="#DejaVuSans-49" transform="translate(485.921875 0)"/>
      <use xlink:href="#DejaVuSans-3" transform="translate(521.125 0)"/>
      <use xlink:href="#DejaVuSans-52" transform="translate(552.90625 0)"/>
      <use xlink:href="#DejaVuSans-45" transform="translate(614.09375 0)"/>
      <use xlink:href="#DejaVuSans-4d" transform="translate(677.578125 0)"/>
      <use xlink:href="#DejaVuSans-48" transform="translate(705.359375 0)"/>
      <use xlink:href="#DejaVuSans-46" transform="translate(766.890625 0)"/>
      <use xlink:href="#DejaVuSans-57" transform="translate(821.875 0)"/>
      <use xlink:href="#DejaVuSans-56" transform="translate(861.078125 0)"/>
      <use xlink:href="#DejaVuSans-3" transform="translate(913.171875 0)"/>
      <use xlink:href="#DejaVuSans-4c" transform="translate(944.953125 0)"/>
      <use xlink:href="#DejaVuSans-51" transform="translate(972.734375 0)"/>
      <use xlink:href="#DejaVuSans-3" transform="translate(1036.109375 0)"/>
      <use xlink:href="#DejaVuSans-57" transform="translate(1067.890625 0)"/>
      <use xlink:href="#DejaVuSans-44" transform="translate(1107.09375 0)"/>
      <use xlink:href="#DejaVuSans-45" transform="translate(1168.375 0)"/>
      <use xlink:href="#DejaVuSans-4f" transform="translate(1231.859375 0)"/>
      <use xlink:href="#DejaVuSans-48" transform="translate(1259.640625 0)"/>
     </g>
    </g>
   </g>
   <g id="matplotlib.axis_2">
    <g id="ytick_1">
     <g id="line2d_10">
      <defs>
       <path id="mcd8df532de" d="M 0 0 
L -3.5 0 
" style="stroke: #000000; stroke-width: 0.8"/>
      </defs>
      <g>
       <use xlink:href="#mcd8df532de" x="62.038281" y="288.430125" style="stroke: #000000; stroke-width: 0.8"/>
      </g>
     </g>
     <g id="text_11">
      <!-- 0 -->
      <g transform="translate(48.675781 292.228953) scale(0.1 -0.1)">
       <use xlink:href="#DejaVuSans-13"/>
      </g>
     </g>
    </g>
    <g id="ytick_2">
     <g id="line2d_11">
      <g>
       <use xlink:href="#mcd8df532de" x="62.038281" y="233.988951" style="stroke: #000000; stroke-width: 0.8"/>
      </g>
     </g>
     <g id="text_12">
      <!-- 200 µs -->
      <g transform="translate(21.200781 237.787779) scale(0.1 -0.1)">
       <defs>
        <path id="DejaVuSans-77" d="M 544 -1331 
L 544 3500 
L 1119 3500 
L 1119 1325 
Q 1119 872 1334 640 
Q 1550 409 1972 409 
Q 2434 409 2667 671 
Q 2900 934 2900 1459 
L 2900 3500 
L 3475 3500 
L 3475 806 
Q 3475 619 3529 530 
Q 3584 441 3700 441 
Q 3728 441 3778 458 
Q 3828 475 3916 513 
L 3916 50 
Q 3788 -22 3673 -56 
Q 3559 -91 3450 -91 
Q 3234 -91 3106 31 
Q 2978 153 2931 403 
Q 2775 156 2548 32 
Q 2322 -91 2016 -91 
Q 1697 -91 1473 31 
Q 1250 153 1119 397 
L 1119 -1331 
L 544 -1331 
z
" transform="scale(0.015625)"/>
       </defs>
       <use xlink:href="#DejaVuSans-15"/>
       <use xlink:href="#DejaVuSans-13" transform="translate(63.625 0)"/>
       <use xlink:href="#DejaVuSans-13" transform="translate(127.25 0)"/>
       <use xlink:href="#DejaVuSans-3" transform="translate(190.875 0)"/>
       <use xlink:href="#DejaVuSans-77" transform="translate(222.65625 0)"/>
       <use xlink:href="#DejaVuSans-56" transform="translate(286.28125 0)"/>
      </g>
     </g>
    </g>
    <g id="ytick_3">
     <g id="line2d_12">
      <g>
       <use xlink:href="#mcd8df532de" x="62.038281" y="179.547777" style="stroke: #000000; stroke-width: 0.8"/>
      </g>
     </g>
     <g id="text_13">
      <!-- 400 µs -->
      <g transform="translate(21.200781 183.346605) scale(0.1 -0.1)">
       <use xlink:href="#DejaVuSans-17"/>
       <use xlink:href="#DejaVuSans-13" transform="translate(63.625 0)"/>
       <use xlink:href="#DejaVuSans-13" transform="translate(127.25 0)"/>
       <use xlink:href="#DejaVuSans-3" transform="translate(190.875 0)"/>
       <use xlink:href="#DejaVuSans-77" transform="translate(222.65625 0)"/>
       <use xlink:href="#DejaVuSans-56" transform="translate(286.28125 0)"/>
      </g>
     </g>
    </g>
    <g id="ytick_4">
     <g id="line2d_13">
      <g>
       <use xlink:href="#mcd8df532de" x="62.038281" y="125.106603" style="stroke: #000000; stroke-width: 0.8"/>
      </g>
     </g>
     <g id="text_14">
      <!-- 600 µs -->
      <g transform="translate(21.200781 128.905431) scale(0.1 -0.1)">
       <defs>
        <path id="DejaVuSans-19" d="M 2113 2584 
Q 1688 2584 1439 2293 
Q 1191 2003 1191 1497 
Q 1191 994 1439 701 
Q 1688 409 2113 409 
Q 2538 409 2786 701 
Q 3034 994 3034 1497 
Q 3034 2003 2786 2293 
Q 2538 2584 2113 2584 
z
M 3366 4563 
L 3366 3988 
Q 3128 4100 2886 4159 
Q 2644 4219 2406 4219 
Q 1781 4219 1451 3797 
Q 1122 3375 1075 2522 
Q 1259 2794 1537 2939 
Q 1816 3084 2150 3084 
Q 2853 3084 3261 2657 
Q 3669 2231 3669 1497 
Q 3669 778 3244 343 
Q 2819 -91 2113 -91 
Q 1303 -91 875 529 
Q 447 1150 447 2328 
Q 447 3434 972 4092 
Q 1497 4750 2381 4750 
Q 2619 4750 2861 4703 
Q 3103 4656 3366 4563 
z
" transform="scale(0.015625)"/>
       </defs>
       <use xlink:href="#DejaVuSans-19"/>
       <use xlink:href="#DejaVuSans-13" transform="translate(63.625 0)"/>
       <use xlink:href="#DejaVuSans-13" transform="translate(127.25 0)"/>
       <use xlink:href="#DejaVuSans-3" transform="translate(190.875 0)"/>
       <use xlink:href="#DejaVuSans-77" transform="translate(222.65625 0)"/>
       <use xlink:href="#DejaVuSans-56" transform="translate(286.28125 0)"/>
      </g>
     </g>
    </g>
    <g id="ytick_5">
     <g id="line2d_14">
      <g>
       <use xlink:href="#mcd8df532de" x="62.038281" y="70.665429" style="stroke: #000000; stroke-width: 0.8"/>
      </g>
     </g>
     <g id="text_15">
      <!-- 800 µs -->
      <g transform="translate(21.200781 74.464257) scale(0.1 -0.1)">
       <defs>
        <path id="DejaVuSans-1b" d="M 2034 2216 
Q 1584 2216 1326 1975 
Q 1069 1734 1069 1313 
Q 1069 891 1326 650 
Q 1584 409 2034 409 
Q 2484 409 2743 651 
Q 3003 894 3003 1313 
Q 3003 1734 2745 1975 
Q 2488 2216 2034 2216 
z
M 1403 2484 
Q 997 2584 770 2862 
Q 544 3141 544 3541 
Q 544 4100 942 4425 
Q 1341 4750 2034 4750 
Q 2731 4750 3128 4425 
Q 3525 4100 3525 3541 
Q 3525 3141 3298 2862 
Q 3072 2584 2669 2484 
Q 3125 2378 3379 2068 
Q 3634 1759 3634 1313 
Q 3634 634 3220 271 
Q 2806 -91 2034 -91 
Q 1263 -91 848 271 
Q 434 634 434 1313 
Q 434 1759 690 2068 
Q 947 2378 1403 2484 
z
M 1172 3481 
Q 1172 3119 1398 2916 
Q 1625 2713 2034 2713 
Q 2441 2713 2670 2916 
Q 2900 3119 2900 3481 
Q 2900 3844 2670 4047 
Q 2441 4250 2034 4250 
Q 1625 4250 1398 4047 
Q 1172 3844 1172 3481 
z
" transform="scale(0.015625)"/>
       </defs>
       <use xlink:href="#DejaVuSans-1b"/>
       <use xlink:href="#DejaVuSans-13" transform="translate(63.625 0)"/>
       <use xlink:href="#DejaVuSans-13" transform="translate(127.25 0)"/>
       <use xlink:href="#DejaVuSans-3" transform="translate(190.875 0)"/>
       <use xlink:href="#DejaVuSans-77" transform="translate(222.65625 0)"/>
       <use xlink:href="#DejaVuSans-56" transform="translate(286.28125 0)"/>
      </g>
     </g>
    </g>
    <g id="text_16">
     <!-- Read latency (s) -->
     <g transform="translate(14.798438 195.990531) rotate(-90) scale(0.1 -0.1)">
      <defs>
       <path id="DejaVuSans-35" d="M 2841 2188 
Q 3044 2119 3236 1894 
Q 3428 1669 3622 1275 
L 4263 0 
L 3584 0 
L 2988 1197 
Q 2756 1666 2539 1819 
Q 2322 1972 1947 1972 
L 1259 1972 
L 1259 0 
L 628 0 
L 628 4666 
L 2053 4666 
Q 2853 4666 3247 4331 
Q 3641 3997 3641 3322 
Q 3641 2881 3436 2590 
Q 3231 2300 2841 2188 
z
M 1259 4147 
L 1259 2491 
L 2053 2491 
Q 2509 2491 2742 2702 
Q 2975 2913 2975 3322 
Q 2975 3731 2742 3939 
Q 2509 4147 2053 4147 
L 1259 4147 
z
" transform="scale(0.015625)"/>
       <path id="DejaVuSans-47" d="M 2906 2969 
L 2906 4863 
L 3481 4863 
L 3481 0 
L 2906 0 
L 2906 525 
Q 2725 213 2448 61 
Q 2172 -91 1784 -91 
Q 1150 -91 751 415 
Q 353 922 353 1747 
Q 353 2572 751 3078 
Q 1150 3584 1784 3584 
Q 2172 3584 2448 3432 
Q 2725 3281 2906 2969 
z
M 947 1747 
Q 947 1113 1208 752 
Q 1469 391 1925 391 
Q 2381 391 2643 752 
Q 2906 1113 2906 1747 
Q 2906 2381 2643 2742 
Q 2381 3103 1925 3103 
Q 1469 3103 1208 2742 
Q 947 2381 947 1747 
z
" transform="scale(0.015625)"/>
       <path id="DejaVuSans-5c" d="M 2059 -325 
Q 1816 -950 1584 -1140 
Q 1353 -1331 966 -1331 
L 506 -1331 
L 506 -850 
L 844 -850 
Q 1081 -850 1212 -737 
Q 1344 -625 1503 -206 
L 1606 56 
L 191 3500 
L 800 3500 
L 1894 763 
L 2988 3500 
L 3597 3500 
L 2059 -325 
z
" transform="scale(0.015625)"/>
       <path id="DejaVuSans-b" d="M 1984 4856 
Q 1566 4138 1362 3434 
Q 1159 2731 1159 2009 
Q 1159 1288 1364 580 
Q 1569 -128 1984 -844 
L 1484 -844 
Q 1016 -109 783 600 
Q 550 1309 550 2009 
Q 550 2706 781 3412 
Q 1013 4119 1484 4856 
L 1984 4856 
z
" transform="scale(0.015625)"/>
       <path id="DejaVuSans-c" d="M 513 4856 
L 1013 4856 
Q 1481 4119 1714 3412 
Q 1947 2706 1947 2009 
Q 1947 1309 1714 600 
Q 1481 -109 1013 -844 
L 513 -844 
Q 928 -128 1133 580 
Q 1338 1288 1338 2009 
Q 1338 2731 1133 3434 
Q 928 4138 513 4856 
z
" transform="scale(0.015625)"/>
      </defs>
      <use xlink:href="#DejaVuSans-35"/>
      <use xlink:href="#DejaVuSans-48" transform="translate(65 0)"/>
      <use xlink:href="#DejaVuSans-44" transform="translate(126.53125 0)"/>
      <use xlink:href="#DejaVuSans-47" transform="translate(187.8125 0)"/>
      <use xlink:href="#DejaVuSans-3" transform="translate(251.296875 0)"/>
      <use xlink:href="#DejaVuSans-4f" transform="translate(283.078125 0)"/>
      <use xlink:href="#DejaVuSans-44" transform="translate(310.859375 0)"/>
      <use xlink:href="#DejaVuSans-57" transform="translate(372.140625 0)"/>
      <use xlink:href="#DejaVuSans-48" transform="translate(411.34375 0)"/>
      <use xlink:href="#DejaVuSans-51" transform="translate(472.875 0)"/>
      <use xlink:href="#DejaVuSans-46" transform="translate(536.25 0)"/>
      <use xlink:href="#DejaVuSans-5c" transform="translate(591.234375 0)"/>
      <use xlink:href="#DejaVuSans-3" transform="translate(650.421875 0)"/>
      <use xlink:href="#DejaVuSans-b" transform="translate(682.203125 0)"/>
      <use xlink:href="#DejaVuSans-56" transform="translate(721.21875 0)"/>
      <use xlink:href="#DejaVuSans-c" transform="translate(773.3125 0)"/>
     </g>
    </g>
   </g>
   <g id="line2d_15">
    <path d="M 147.393467 193.1495 
L 148.264438 192.950809 
L 148.699924 193.002395 
L 149.570895 192.717839 
L 152.183809 192.44726 
L 152.619295 192.182339 
L 153.05478 192.268871 
L 154.361237 191.982983 
L 154.796723 192.124097 
L 155.667694 191.939717 
L 156.538665 191.919748 
L 156.974151 191.842868 
L 157.409637 191.612893 
L 157.845122 191.570625 
L 158.280608 191.364613 
L 158.716094 191.480099 
L 159.587065 191.333661 
L 160.022551 191.059088 
L 160.893522 191.031797 
L 161.329007 191.088376 
L 162.635464 190.860065 
L 163.506436 190.375819 
L 163.941921 190.291284 
L 164.812893 189.73515 
L 165.248378 189.552435 
L 165.683864 189.661598 
L 168.732263 187.978885 
L 169.167749 187.767215 
L 170.474206 187.728608 
L 170.909692 187.75956 
L 172.216148 187.066639 
L 172.651634 187.187118 
L 174.829062 186.818026 
L 175.264548 186.659273 
L 176.571005 186.628987 
L 177.006491 186.747136 
L 177.877462 186.413656 
L 178.312947 186.394685 
L 178.748433 186.700209 
L 181.361347 186.67658 
L 182.232318 186.580729 
L 183.103289 186.659273 
L 183.538775 186.465242 
L 183.974261 186.422642 
L 184.409746 186.248247 
L 184.845232 186.351086 
L 186.587175 185.839217 
L 189.635574 185.584946 
L 191.377517 184.878047 
L 192.248488 184.542569 
L 196.167859 184.445387 
L 197.474316 183.820361 
L 199.216258 183.231611 
L 199.651744 183.262896 
L 200.958201 182.836559 
L 201.829172 182.876164 
L 202.264658 182.859524 
L 202.700143 182.655841 
L 203.135629 182.715748 
L 204.0066 182.550671 
L 205.313057 182.340998 
L 205.748543 182.217523 
L 207.490485 182.188236 
L 207.925971 182.15329 
L 208.796942 181.812155 
L 209.232428 181.811489 
L 209.667914 181.670043 
L 210.103399 181.841442 
L 210.974371 181.745592 
L 211.409856 182.072083 
L 213.151799 182.381601 
L 214.02277 182.225511 
L 214.458256 183.851978 
L 214.893741 183.883263 
L 215.329227 183.638977 
L 215.764713 183.776096 
L 216.200198 183.681244 
L 216.635684 183.81437 
L 217.071169 183.567421 
L 217.506655 183.559101 
L 217.942141 183.357082 
L 218.813112 183.671592 
L 219.684083 183.454264 
L 220.555055 183.520494 
L 221.426026 183.940174 
L 221.861512 183.8167 
L 223.167968 183.817033 
L 223.603454 183.708202 
L 224.474425 183.985104 
L 224.909911 183.741816 
L 225.345397 183.791073 
L 225.780882 183.98111 
L 227.087339 184.012728 
L 227.522825 184.282308 
L 228.393796 183.865956 
L 229.264767 184.185459 
L 229.700253 184.0094 
L 230.135739 184.184128 
L 230.571224 184.185459 
L 231.00671 184.06498 
L 231.442196 184.07796 
L 231.877681 183.84865 
L 232.313167 184.089941 
L 233.619624 183.787412 
L 234.055109 183.819362 
L 234.490595 183.718852 
L 234.926081 183.499527 
L 235.361566 183.746809 
L 236.232538 183.570084 
L 237.538995 183.916877 
L 238.409966 183.017278 
L 239.716423 182.748696 
L 240.151908 182.875832 
L 240.587394 182.876164 
L 241.02288 182.762674 
L 241.893851 182.362631 
L 242.329337 182.521716 
L 242.764822 182.260789 
L 243.200308 182.404233 
L 243.635794 182.379604 
L 244.506765 182.008183 
L 244.942251 182.204544 
L 245.377736 182.196223 
L 246.248707 181.828795 
L 246.684193 181.799508 
L 248.426136 182.239822 
L 248.861621 182.144637 
L 249.297107 182.402569 
L 249.732593 182.471461 
L 251.039049 182.441508 
L 251.474535 182.454155 
L 251.910021 182.340998 
L 252.345506 182.676475 
L 252.780992 180.195006 
L 253.216478 180.00863 
L 254.087449 179.960039 
L 254.522935 179.797625 
L 254.95842 179.451165 
L 255.393906 179.260794 
L 256.700363 179.650521 
L 257.135848 179.798291 
L 257.571334 177.802399 
L 258.00682 176.456828 
L 258.442305 176.257138 
L 259.313277 176.455163 
L 259.748762 176.382943 
L 260.184248 176.485782 
L 260.619734 175.990886 
L 261.490705 175.580193 
L 261.926191 174.086851 
L 262.361676 174.200009 
L 262.797162 174.164397 
L 263.232647 172.492002 
L 263.668133 172.331918 
L 264.103619 172.478023 
L 264.539104 172.195796 
L 265.410076 171.930543 
L 267.152018 172.041703 
L 267.587504 171.109821 
L 268.022989 170.916455 
L 268.458475 171.045255 
L 268.893961 169.741285 
L 269.764932 169.254044 
L 271.94236 168.581425 
L 272.377846 167.800641 
L 272.813332 167.89516 
L 274.555274 167.329042 
L 274.99076 167.269468 
L 275.861731 167.517415 
L 276.297217 167.626578 
L 276.732702 167.002883 
L 277.168188 166.948967 
L 278.039159 167.166295 
L 279.345616 167.014531 
L 279.781102 166.775237 
L 280.652073 166.791213 
L 281.523044 166.564565 
L 282.394016 166.787219 
L 283.700473 167.084755 
L 284.571444 167.26614 
L 286.313386 166.913356 
L 286.748872 166.935654 
L 287.619843 165.583759 
L 288.055329 165.38873 
L 288.9263 165.759153 
L 290.232757 165.924895 
L 290.668243 166.047038 
L 291.103728 165.984136 
L 291.9747 166.069669 
L 292.845671 165.701576 
L 295.023099 165.173399 
L 295.458585 165.074552 
L 295.894071 165.261595 
L 298.506984 165.264923 
L 299.377956 165.339806 
L 299.813441 165.341803 
L 300.248927 165.591081 
L 300.684413 165.380742 
L 301.119898 165.383072 
L 301.555384 165.09319 
L 301.99087 165.278568 
L 303.297326 165.068895 
L 303.732812 164.735081 
L 304.603783 164.910142 
L 305.039269 164.616266 
L 305.474755 164.718108 
L 307.216697 164.464502 
L 307.652183 164.231199 
L 308.087668 164.168963 
L 308.523154 164.276795 
L 308.95864 164.044823 
L 309.829611 163.972602 
L 311.571554 163.852456 
L 312.007039 163.623146 
L 312.442525 163.623812 
L 312.878011 162.152103 
L 313.313496 162.156097 
L 313.748982 162.012654 
L 314.619953 162.269254 
L 315.490924 162.063907 
L 316.361896 161.906486 
L 316.797381 160.455079 
L 317.232867 160.280019 
L 318.103838 160.489027 
L 318.539324 160.526967 
L 319.845781 160.214454 
L 320.281266 157.117943 
L 320.716752 155.616614 
L 321.152238 155.71779 
L 321.587723 155.495802 
L 322.458695 155.249852 
L 323.329666 155.788014 
L 323.765152 154.412822 
L 324.200637 153.966184 
L 324.636123 153.987484 
L 325.071608 153.77415 
L 325.507094 153.745528 
L 326.378065 153.948878 
L 326.813551 153.894962 
L 327.249037 153.712246 
L 327.684522 153.814753 
L 328.120008 153.595761 
L 328.555494 153.596427 
L 328.990979 153.832725 
L 330.297436 153.815419 
L 330.732922 153.852361 
L 331.168407 154.05438 
L 332.474864 153.793453 
L 333.781321 153.844374 
L 334.216807 153.511892 
L 335.95875 153.334168 
L 336.394235 153.562479 
L 336.829721 152.593322 
L 337.265206 152.842268 
L 337.700692 155.442219 
L 338.136178 155.74142 
L 338.571663 154.514663 
L 339.007149 154.689391 
L 339.442635 154.71402 
L 339.87812 155.134698 
L 340.749092 155.269488 
L 341.184577 155.089102 
L 342.055548 155.013886 
L 342.491034 156.801436 
L 342.92652 158.092092 
L 343.362005 158.291116 
L 344.232977 157.933673 
L 344.668462 157.739309 
L 345.103948 157.805872 
L 345.539434 158.239197 
L 345.974919 157.259056 
L 346.410405 157.482708 
L 346.845891 159.041947 
L 347.281376 158.971723 
L 347.716862 159.01632 
L 348.152347 160.61117 
L 348.587833 160.771254 
L 349.023319 159.466951 
L 349.458804 159.66897 
L 350.765261 159.571123 
L 351.636233 159.324174 
L 352.071718 159.236976 
L 352.507204 159.960516 
L 353.378175 159.99646 
L 353.813661 161.393951 
L 354.249146 161.728763 
L 355.120118 161.754389 
L 356.86206 162.019976 
L 357.297546 162.790776 
L 357.733032 161.835929 
L 358.168517 161.252837 
L 358.604003 160.169857 
L 359.039488 160.196815 
L 359.474974 160.335599 
L 360.781431 160.09098 
L 361.216917 159.86167 
L 361.652402 160.383857 
L 362.087888 160.535953 
L 362.523374 160.389182 
L 362.958859 159.993465 
L 363.829831 160.116274 
L 364.700802 159.964177 
L 365.571773 159.698258 
L 366.007259 159.873651 
L 366.87823 159.571788 
L 367.313716 159.596417 
L 368.184687 158.841259 
L 369.491144 158.318074 
L 369.92663 158.3224 
L 370.797601 158.733427 
L 371.668572 158.131032 
L 372.539543 159.471944 
L 372.975029 159.655325 
L 373.410515 159.629698 
L 373.846 157.968618 
L 374.281486 157.745632 
L 375.152457 157.607181 
L 375.587943 157.419806 
L 380.378285 157.639131 
L 380.813771 157.259056 
L 381.249256 157.256727 
L 381.684742 157.111619 
L 382.555713 157.302655 
L 382.991199 156.478605 
L 383.426684 156.309868 
L 384.733141 156.222005 
L 386.039598 156.127152 
L 386.475084 156.20969 
L 387.346055 156.181068 
L 388.652512 156.408714 
L 389.087998 156.211687 
L 389.958969 156.147454 
L 390.394455 155.780359 
L 390.82994 155.785684 
L 391.265426 155.677852 
L 391.700912 155.72012 
L 392.136397 155.002237 
L 392.571883 155.080782 
L 393.007369 154.842819 
L 393.87834 154.819855 
L 394.313825 154.666094 
L 394.749311 154.679407 
L 396.055768 154.131926 
L 396.491254 154.09931 
L 396.926739 154.276035 
L 397.362225 154.103304 
L 397.797711 155.600306 
L 398.668682 155.492807 
L 399.104167 154.628819 
L 400.410624 154.511335 
L 400.84611 154.805211 
L 401.281596 154.623494 
L 401.717081 156.005675 
L 402.152567 156.029305 
L 402.152567 156.029305 
" clip-path="url(#pe9e97006fa)" style="fill: none; stroke: #1f77b4; stroke-opacity: 0.8; stroke-width: 1.5; stroke-linecap: square"/>
   </g>
   <g id="line2d_16">
    <path d="M 147.393467 224.102299 
L 148.699924 223.772479 
L 149.135409 223.57512 
L 149.570895 223.636025 
L 150.006381 223.539509 
L 150.877352 223.717232 
L 151.312838 223.537179 
L 151.748323 223.59875 
L 153.05478 223.466289 
L 153.925752 223.545499 
L 155.667694 223.03363 
L 156.538665 222.612951 
L 156.974151 222.595978 
L 157.409637 222.387636 
L 158.280608 222.323069 
L 158.716094 222.154332 
L 159.587065 222.08544 
L 160.022551 221.893072 
L 161.329007 221.710024 
L 162.199979 221.304655 
L 165.248378 220.667315 
L 165.683864 220.754179 
L 166.119349 221.037072 
L 167.425806 220.943551 
L 168.732263 220.827731 
L 169.167749 220.65733 
L 170.909692 220.684621 
L 171.345177 220.757175 
L 171.780663 220.374104 
L 173.08712 220.461968 
L 173.522605 220.636363 
L 173.958091 220.430017 
L 174.829062 220.472618 
L 175.264548 220.276257 
L 175.700034 220.238649 
L 176.571005 219.884534 
L 177.006491 219.860238 
L 177.441976 219.483491 
L 177.877462 219.359351 
L 179.183919 219.686509 
L 180.05489 219.880207 
L 181.361347 219.736098 
L 181.796833 219.864565 
L 183.103289 219.7564 
L 183.538775 219.549722 
L 185.280718 219.622608 
L 185.716203 219.73044 
L 188.764603 218.883759 
L 189.200088 219.071466 
L 190.506545 218.827513 
L 190.942031 218.761616 
L 191.813002 219.0069 
L 196.167859 218.782583 
L 196.603344 218.802885 
L 197.474316 218.621833 
L 197.909801 218.578234 
L 198.345287 218.651121 
L 199.216258 218.433793 
L 199.651744 218.522321 
L 200.522715 218.300334 
L 201.393686 218.458754 
L 201.829172 218.405836 
L 202.264658 218.223121 
L 202.700143 218.19816 
L 203.571115 217.761173 
L 204.0066 217.472956 
L 205.313057 217.111186 
L 207.055 216.963416 
L 208.361457 216.741095 
L 209.667914 216.252856 
L 210.103399 216.342716 
L 210.974371 216.65889 
L 212.716313 216.972069 
L 214.02277 216.850924 
L 214.458256 216.94145 
L 214.893741 216.442227 
L 215.764713 216.388977 
L 216.200198 216.076131 
L 217.071169 216.330734 
L 218.377626 216.136038 
L 218.813112 216.222569 
L 219.248598 215.905397 
L 219.684083 215.790575 
L 220.119569 215.276376 
L 220.555055 215.178861 
L 220.99054 214.92692 
L 221.426026 215.282034 
L 222.296997 215.281368 
L 222.732483 215.438457 
L 224.474425 215.3679 
L 225.780882 215.388535 
L 227.087339 214.880659 
L 227.958311 214.973515 
L 228.829282 214.595769 
L 230.135739 214.550839 
L 231.442196 214.093551 
L 232.748653 214.565816 
L 233.184138 214.483944 
L 233.619624 214.612743 
L 234.926081 214.593107 
L 235.797052 214.52022 
L 236.232538 214.705598 
L 238.409966 214.620731 
L 238.845452 214.589113 
L 240.151908 214.876 
L 241.02288 215.232112 
L 242.329337 215.295014 
L 243.200308 215.159891 
L 243.635794 215.291686 
L 244.071279 215.126609 
L 244.942251 215.167878 
L 245.813222 215.171872 
L 247.119679 215.386871 
L 247.555164 215.308326 
L 247.99065 215.432134 
L 248.861621 215.21181 
L 249.732593 215.523991 
L 253.216478 215.680081 
L 254.087449 215.966635 
L 254.522935 215.975288 
L 255.829392 215.599872 
L 256.264877 215.602535 
L 256.700363 215.972625 
L 257.135848 215.990597 
L 258.00682 215.730669 
L 258.442305 215.758625 
L 258.877791 215.970296 
L 261.055219 216.335727 
L 261.490705 216.492482 
L 261.926191 216.343381 
L 262.361676 216.725786 
L 262.797162 216.860576 
L 268.022989 216.977061 
L 268.458475 217.13182 
L 268.893961 217.075574 
L 269.329446 217.212029 
L 269.764932 217.077571 
L 271.071389 217.151456 
L 273.248817 217.756847 
L 274.555274 217.892635 
L 274.99076 217.769827 
L 278.910131 217.884648 
L 281.087559 218.392524 
L 281.523044 218.365898 
L 282.829501 218.673087 
L 283.264987 218.679743 
L 284.135958 218.991258 
L 284.571444 218.991924 
L 285.00693 219.139693 
L 285.877901 218.760617 
L 286.748872 218.807877 
L 287.184358 218.944664 
L 288.055329 219.056157 
L 289.361786 219.635921 
L 290.232757 219.694829 
L 290.668243 219.422586 
L 291.103728 219.439227 
L 291.539214 219.316751 
L 294.587614 219.721787 
L 295.023099 219.495806 
L 295.894071 219.402285 
L 296.329556 219.272487 
L 297.200527 218.617839 
L 297.636013 218.560928 
L 298.071499 218.18518 
L 298.94247 218.220458 
L 299.377956 218.2148 
L 299.813441 218.87211 
L 300.248927 218.906723 
L 300.684413 218.551276 
L 301.119898 218.740981 
L 301.99087 218.561594 
L 302.861841 218.379211 
L 303.297326 218.480054 
L 303.732812 218.371223 
L 304.603783 218.756956 
L 305.039269 219.290791 
L 305.474755 219.309762 
L 305.91024 219.521099 
L 306.345726 219.524095 
L 306.781212 219.295118 
L 307.216697 219.193609 
L 307.652183 218.95365 
L 310.265097 218.921367 
L 311.136068 218.152564 
L 313.748982 218.632483 
L 314.619953 218.339939 
L 315.490924 218.393522 
L 316.361896 218.41815 
L 316.797381 218.27038 
L 317.668353 218.295009 
L 318.103838 218.419149 
L 318.539324 218.374884 
L 318.97481 218.472732 
L 325.94258 218.086001 
L 326.378065 218.222788 
L 327.684522 217.897295 
L 328.555494 217.937233 
L 329.861951 217.90262 
L 331.168407 217.689951 
L 331.603893 217.810097 
L 332.474864 217.770159 
L 332.91035 217.660663 
L 333.781321 217.838719 
L 334.652293 217.821746 
L 335.95875 217.829733 
L 339.442635 217.13415 
L 339.87812 217.152788 
L 340.313606 217.309876 
L 340.749092 213.948777 
L 342.055548 213.614298 
L 342.92652 213.879884 
L 344.668462 213.41594 
L 345.103948 213.562046 
L 345.539434 213.545738 
L 346.410405 213.034201 
L 346.845891 212.585234 
L 348.587833 211.753862 
L 349.023319 211.904627 
L 349.458804 211.56216 
L 349.89429 211.471967 
L 350.329776 211.62839 
L 351.200747 211.44867 
L 351.636233 210.893535 
L 352.071718 210.764735 
L 352.507204 210.864247 
L 353.378175 210.677205 
L 354.249146 210.703497 
L 355.555603 210.596331 
L 355.991089 210.327083 
L 357.297546 210.169329 
L 358.168517 209.996265 
L 358.604003 209.954331 
L 359.039488 210.055506 
L 359.91046 209.825531 
L 360.345945 209.779603 
L 360.781431 209.866467 
L 362.087888 209.50736 
L 362.523374 209.4601 
L 362.958859 208.440022 
L 363.394345 208.463652 
L 363.829831 208.619742 
L 364.700802 208.402081 
L 365.136287 207.920498 
L 366.442744 207.528109 
L 366.87823 207.50814 
L 367.313716 207.643263 
L 368.184687 207.590012 
L 368.620173 207.428264 
L 369.055658 207.079807 
L 369.92663 207.080805 
L 370.797601 207.502149 
L 371.668572 207.253869 
L 372.539543 206.981626 
L 373.846 206.800575 
L 374.281486 206.600553 
L 374.716972 206.776612 
L 376.023428 206.668115 
L 378.200857 206.030774 
L 378.636342 206.228799 
L 379.071828 206.122298 
L 381.249256 206.579253 
L 381.684742 206.875791 
L 382.555713 207.073151 
L 382.991199 207.541421 
L 383.86217 207.569045 
L 384.733141 207.433589 
L 385.168627 206.56827 
L 386.039598 206.863144 
L 386.475084 206.911402 
L 386.91057 206.787262 
L 387.346055 206.886441 
L 387.781541 207.100109 
L 388.652512 207.340734 
L 389.087998 207.474193 
L 389.523483 207.260525 
L 389.958969 207.420942 
L 390.394455 207.33674 
L 390.82994 207.422274 
L 391.265426 207.360703 
L 392.136397 207.553736 
L 392.571883 207.821984 
L 393.442854 207.953446 
L 393.87834 207.845947 
L 394.313825 207.863919 
L 394.749311 207.998044 
L 395.184797 207.98939 
L 395.620282 208.287926 
L 396.055768 208.83108 
L 396.491254 208.89964 
L 396.926739 208.777164 
L 397.797711 208.826088 
L 398.233196 208.652358 
L 398.668682 208.788479 
L 399.539653 208.802125 
L 399.975139 208.651027 
L 401.717081 209.048075 
L 402.152567 209.051736 
L 402.152567 209.051736 
" clip-path="url(#pe9e97006fa)" style="fill: none; stroke: #ff7f0e; stroke-opacity: 0.8; stroke-width: 1.5; stroke-linecap: square"/>
   </g>
   <g id="line2d_17">
    <path d="M 147.393467 76.621628 
L 147.828953 75.552293 
L 148.264438 75.157907 
L 148.699924 74.503593 
L 149.135409 72.510697 
L 149.570895 69.795258 
L 150.006381 69.942363 
L 150.441866 69.505377 
L 150.877352 66.864156 
L 151.312838 66.769637 
L 151.748323 66.502053 
L 152.183809 66.682439 
L 152.619295 66.717718 
L 153.05478 66.374252 
L 153.490266 65.832097 
L 153.925752 65.761207 
L 154.361237 65.011375 
L 155.232208 64.726818 
L 155.667694 64.370373 
L 156.10318 63.769975 
L 158.716094 62.222717 
L 159.151579 61.582714 
L 159.587065 60.295053 
L 160.022551 60.27708 
L 160.458036 60.637186 
L 160.893522 60.335656 
L 161.329007 60.509718 
L 161.764493 56.656718 
L 162.199979 54.894795 
L 162.635464 54.56664 
L 163.506436 55.049887 
L 163.941921 54.538018 
L 164.377407 54.230164 
L 165.248378 54.294397 
L 166.119349 54.147293 
L 166.554835 54.230496 
L 167.861292 55.211302 
L 168.296778 55.262889 
L 168.732263 55.137085 
L 169.167749 55.339103 
L 169.603235 55.735819 
L 170.03872 55.51017 
L 170.909692 56.515272 
L 171.345177 56.464684 
L 171.780663 56.093595 
L 172.216148 56.809813 
L 172.651634 57.065082 
L 173.08712 56.965571 
L 173.522605 56.987869 
L 173.958091 57.359291 
L 174.393577 57.518709 
L 174.829062 57.906106 
L 175.264548 57.474112 
L 175.700034 57.988311 
L 176.135519 57.335994 
L 176.571005 57.351303 
L 177.006491 57.493415 
L 177.441976 56.909325 
L 177.877462 57.127984 
L 178.312947 57.195213 
L 179.183919 56.986871 
L 179.619404 54.970677 
L 180.490376 53.816142 
L 180.925861 53.870391 
L 181.361347 54.210195 
L 181.796833 54.329675 
L 182.232318 53.755902 
L 182.667804 53.732605 
L 183.103289 54.062758 
L 183.538775 51.993646 
L 184.409746 52.484216 
L 184.845232 52.481221 
L 185.280718 52.682574 
L 185.716203 52.677581 
L 186.151689 52.353087 
L 186.587175 52.694888 
L 187.458146 52.617675 
L 188.329117 52.31914 
L 189.200088 52.72351 
L 189.635574 53.071967 
L 190.07106 52.564424 
L 190.506545 52.63365 
L 190.942031 52.861961 
L 191.377517 52.750801 
L 191.813002 52.757457 
L 192.248488 52.325463 
L 193.119459 52.377049 
L 193.990431 53.368838 
L 194.425916 53.499967 
L 194.861402 53.78752 
L 195.296887 53.736599 
L 195.732373 53.85142 
L 196.167859 53.768882 
L 197.03883 52.862627 
L 197.474316 53.128213 
L 197.909801 53.147516 
L 198.345287 53.747915 
L 198.780773 53.656723 
L 199.216258 52.73183 
L 199.651744 52.326129 
L 200.087229 52.121115 
L 200.958201 52.172368 
L 201.829172 51.15462 
L 202.264658 51.47146 
L 202.700143 51.410222 
L 203.135629 51.687789 
L 203.571115 51.684128 
L 204.0066 51.372281 
L 204.442086 51.380934 
L 205.313057 51.192561 
L 205.748543 51.70676 
L 206.619514 50.780868 
L 207.055 50.716635 
L 207.490485 51.462806 
L 207.925971 55.477222 
L 208.361457 55.872939 
L 208.796942 58.126762 
L 209.232428 58.093814 
L 210.974371 58.510165 
L 211.845342 59.413425 
L 212.716313 59.081609 
L 213.151799 59.104573 
L 213.587284 59.443046 
L 214.458256 59.293945 
L 214.893741 59.67402 
L 215.329227 59.632751 
L 215.764713 60.080387 
L 216.200198 60.048769 
L 216.635684 59.616443 
L 217.071169 59.027027 
L 217.942141 58.558091 
L 218.377626 58.45392 
L 218.813112 58.121437 
L 219.684083 56.113897 
L 220.555055 55.864286 
L 220.99054 55.57873 
L 221.861512 54.10436 
L 222.732483 54.050444 
L 223.603454 53.139196 
L 224.03894 53.105249 
L 224.474425 52.59704 
L 224.909911 52.930188 
L 225.345397 52.649292 
L 225.780882 52.909221 
L 226.216368 52.967796 
L 226.651854 52.893578 
L 227.087339 53.23904 
L 227.522825 52.711529 
L 228.393796 52.389696 
L 228.829282 52.714524 
L 229.264767 49.045238 
L 230.135739 49.706541 
L 230.571224 49.737493 
L 231.442196 48.57497 
L 231.877681 44.246045 
L 232.313167 42.772672 
L 232.748653 42.00986 
L 233.184138 40.962158 
L 233.619624 39.301411 
L 234.055109 41.084302 
L 234.490595 43.833687 
L 235.361566 44.31527 
L 235.797052 46.43264 
L 236.232538 46.577747 
L 236.668023 46.336789 
L 237.103509 46.587066 
L 237.538995 47.170491 
L 238.409966 47.499312 
L 238.845452 47.190127 
L 239.280937 47.856755 
L 240.151908 47.126559 
L 240.587394 46.817374 
L 241.02288 47.758242 
L 241.893851 47.686687 
L 242.764822 48.326357 
L 243.200308 47.971576 
L 243.635794 47.985555 
L 244.506765 49.302837 
L 245.813222 49.429972 
L 246.248707 49.156398 
L 246.684193 53.371834 
L 247.119679 55.220621 
L 247.555164 55.820354 
L 248.426136 55.128099 
L 249.297107 55.192332 
L 249.732593 54.736375 
L 250.168078 53.983548 
L 250.603564 53.615454 
L 251.039049 53.614123 
L 251.474535 53.383815 
L 251.910021 53.012061 
L 252.345506 52.963137 
L 252.780992 52.698549 
L 253.651963 53.536577 
L 254.087449 52.91155 
L 254.522935 52.546452 
L 254.95842 53.210751 
L 255.829392 52.704207 
L 256.264877 52.706536 
L 256.700363 53.06398 
L 257.571334 52.129435 
L 258.00682 52.20332 
L 258.877791 51.456816 
L 260.184248 51.143637 
L 260.619734 51.552001 
L 261.055219 52.205982 
L 261.490705 51.644856 
L 261.926191 51.631876 
L 262.361676 52.196331 
L 262.797162 52.178359 
L 263.232647 51.730057 
L 263.668133 52.202654 
L 264.103619 52.043902 
L 264.539104 53.77687 
L 264.97459 54.364954 
L 265.410076 54.620889 
L 265.845561 54.615896 
L 266.716533 55.683567 
L 267.152018 55.853636 
L 267.587504 55.466239 
L 268.022989 54.916428 
L 268.458475 57.378594 
L 268.893961 57.246799 
L 269.329446 56.604466 
L 270.200418 56.589157 
L 270.635903 56.614118 
L 271.071389 56.833776 
L 271.506875 56.874047 
L 271.94236 56.094261 
L 272.377846 55.791732 
L 272.813332 55.267548 
L 273.248817 55.200985 
L 273.684303 55.384033 
L 274.119788 54.923417 
L 274.555274 54.221843 
L 275.426245 54.071744 
L 275.861731 53.474341 
L 276.297217 53.360518 
L 276.732702 53.369837 
L 277.168188 54.15994 
L 277.603674 53.720624 
L 278.910131 53.603473 
L 279.345616 53.926636 
L 279.781102 53.586499 
L 280.216587 53.486988 
L 281.087559 52.790406 
L 281.95853 52.815367 
L 282.829501 53.491314 
L 283.264987 52.885258 
L 283.700473 52.978779 
L 284.135958 53.871056 
L 285.877901 53.902008 
L 286.748872 54.902783 
L 287.184358 54.96269 
L 287.619843 54.479109 
L 288.055329 52.454928 
L 288.490815 51.918763 
L 288.9263 52.284194 
L 289.361786 52.348427 
L 290.232757 52.307158 
L 290.668243 52.313149 
L 291.103728 52.912882 
L 291.9747 53.634092 
L 292.410185 53.646406 
L 292.845671 53.489983 
L 293.281157 53.464356 
L 293.716642 52.917208 
L 294.587614 52.95648 
L 295.023099 52.775429 
L 295.458585 53.398792 
L 295.894071 53.811815 
L 296.329556 53.588163 
L 296.765042 53.595153 
L 297.200527 53.746251 
L 297.636013 53.461361 
L 298.071499 53.342213 
L 298.506984 52.93518 
L 299.377956 53.013392 
L 300.684413 53.215411 
L 301.119898 52.69988 
L 301.99087 52.796064 
L 302.426355 53.596484 
L 302.861841 54.133314 
L 303.732812 54.34565 
L 304.603783 55.664929 
L 305.039269 55.133424 
L 305.91024 56.112566 
L 306.345726 56.632423 
L 306.781212 56.859403 
L 307.216697 56.794171 
L 307.652183 56.327897 
L 308.523154 57.244802 
L 308.95864 56.630426 
L 309.394125 57.201204 
L 309.829611 55.868279 
L 310.265097 56.008727 
L 310.700582 55.571741 
L 311.136068 52.570082 
L 312.007039 52.589053 
L 312.442525 53.020381 
L 312.878011 53.119893 
L 313.313496 52.898903 
L 313.748982 52.861295 
L 314.184467 56.50795 
L 314.619953 55.919533 
L 315.055439 55.734155 
L 315.490924 55.328121 
L 315.92641 55.371054 
L 316.361896 56.384143 
L 316.797381 61.382027 
L 317.232867 63.773303 
L 317.668353 63.272416 
L 318.103838 62.557529 
L 318.539324 64.196311 
L 318.97481 63.024802 
L 319.410295 62.992851 
L 320.281266 62.574503 
L 321.152238 61.474549 
L 321.587723 61.361392 
L 322.023209 60.85751 
L 322.458695 60.918748 
L 323.329666 61.581383 
L 323.765152 61.497181 
L 324.200637 60.882471 
L 324.636123 61.450919 
L 325.071608 61.361725 
L 325.507094 61.570067 
L 326.813551 61.508163 
L 327.249037 60.97333 
L 328.555494 60.916751 
L 328.990979 60.481096 
L 329.426465 60.9923 
L 330.297436 60.859507 
L 330.732922 60.49341 
L 331.603893 60.344309 
L 332.039379 60.488085 
L 332.474864 60.132972 
L 332.91035 59.585824 
L 333.345836 59.401444 
L 333.781321 59.442713 
L 334.216807 59.895342 
L 334.652293 59.782517 
L 335.523264 59.908654 
L 335.95875 59.820125 
L 336.394235 60.381252 
L 336.829721 60.304039 
L 337.265206 59.748237 
L 337.700692 60.262769 
L 338.136178 59.755892 
L 338.571663 55.901894 
L 339.007149 56.505953 
L 339.442635 56.365172 
L 339.87812 56.359847 
L 341.620063 56.808149 
L 342.055548 57.294725 
L 342.491034 58.088489 
L 342.92652 58.086492 
L 343.362005 57.934062 
L 344.668462 58.519817 
L 345.103948 59.133195 
L 345.539434 58.781077 
L 345.974919 58.700868 
L 346.410405 59.320237 
L 346.845891 59.455693 
L 347.281376 59.087932 
L 347.716862 59.052987 
L 348.152347 57.278084 
L 348.587833 56.943605 
L 349.023319 57.604908 
L 349.458804 57.44549 
L 349.89429 56.913984 
L 350.765261 56.874047 
L 351.636233 56.109903 
L 352.507204 57.0754 
L 352.94269 57.240143 
L 353.378175 56.83544 
L 354.249146 57.493748 
L 354.684632 56.936616 
L 355.120118 56.793838 
L 355.991089 56.061645 
L 356.426575 54.955368 
L 356.86206 54.929408 
L 357.297546 55.167038 
L 357.733032 55.256565 
L 358.168517 55.105134 
L 358.604003 55.147069 
L 359.91046 56.250351 
L 360.345945 55.703536 
L 360.781431 56.235042 
L 361.216917 55.862622 
L 361.652402 55.892908 
L 362.087888 55.010948 
L 362.523374 52.751134 
L 362.958859 51.35331 
L 363.394345 49.071197 
L 363.829831 47.689682 
L 365.136287 41.140547 
L 365.571773 40.858653 
L 366.007259 40.787098 
L 366.442744 40.912236 
L 366.87823 41.218426 
L 367.313716 40.819714 
L 368.620173 41.182482 
L 369.055658 40.792423 
L 369.491144 41.271344 
L 369.92663 41.441079 
L 370.362115 40.524174 
L 371.668572 40.471256 
L 372.104058 35.959948 
L 372.539543 35.951628 
L 372.975029 38.10594 
L 373.410515 38.697352 
L 373.846 38.060677 
L 374.281486 37.950515 
L 374.716972 38.094291 
L 375.587943 38.00077 
L 376.023428 37.574101 
L 376.458914 38.055352 
L 376.8944 38.12724 
L 377.329885 37.576431 
L 377.765371 37.681933 
L 378.200857 37.177053 
L 378.636342 37.291874 
L 379.071828 37.870307 
L 379.507314 37.413019 
L 379.942799 37.984462 
L 380.813771 37.8743 
L 381.249256 38.275342 
L 381.684742 38.051025 
L 382.120227 37.561454 
L 382.555713 37.950515 
L 383.86217 37.306851 
L 384.297656 36.811955 
L 384.733141 36.711777 
L 385.168627 37.104832 
L 385.604113 36.612266 
L 386.039598 36.485796 
L 386.91057 36.547699 
L 387.346055 36.182934 
L 387.781541 36.21322 
L 388.217026 35.764253 
L 388.652512 35.63745 
L 389.087998 35.991233 
L 389.523483 35.92234 
L 389.958969 36.552359 
L 390.82994 35.849453 
L 391.700912 35.266694 
L 392.136397 35.20945 
L 392.571883 35.641111 
L 393.007369 35.669401 
L 393.442854 35.161525 
L 393.87834 35.368869 
L 394.313825 34.990125 
L 394.749311 35.925335 
L 395.184797 35.979917 
L 395.620282 36.538048 
L 396.055768 39.617586 
L 396.491254 39.533716 
L 396.926739 38.783884 
L 397.797711 37.944524 
L 398.668682 38.780889 
L 399.104167 38.791206 
L 399.539653 39.412904 
L 400.410624 39.191915 
L 400.84611 39.298749 
L 401.281596 38.560232 
L 401.717081 36.067447 
L 402.152567 35.591522 
L 402.152567 35.591522 
" clip-path="url(#pe9e97006fa)" style="fill: none; stroke: #2ca02c; stroke-opacity: 0.8; stroke-width: 1.5; stroke-linecap: square"/>
   </g>
   <g id="line2d_18">
    <path d="M 147.393467 207.164009 
L 147.828953 207.161347 
L 148.264438 207.427599 
L 149.135409 207.37934 
L 150.006381 208.586461 
L 151.312838 208.50958 
L 152.183809 208.737226 
L 154.796723 208.721584 
L 155.667694 208.957549 
L 156.974151 208.540865 
L 160.022551 207.967757 
L 160.458036 208.10987 
L 161.764493 208.156796 
L 163.941921 208.372461 
L 164.812893 208.277941 
L 165.683864 208.003036 
L 166.119349 208.115527 
L 167.425806 208.172772 
L 167.861292 207.985064 
L 168.296778 208.138492 
L 169.167749 208.121518 
L 169.603235 207.915506 
L 170.474206 207.82265 
L 170.909692 207.661235 
L 171.345177 207.227577 
L 172.651634 206.863144 
L 173.08712 206.407188 
L 173.958091 205.901309 
L 175.264548 204.78538 
L 175.700034 204.633949 
L 176.135519 204.664901 
L 177.006491 204.214602 
L 178.312947 204.489507 
L 181.796833 204.102776 
L 182.232318 203.940362 
L 183.103289 203.996275 
L 183.538775 203.928714 
L 183.974261 203.743336 
L 184.845232 203.975641 
L 185.280718 203.803908 
L 185.716203 203.997939 
L 187.02266 203.512362 
L 187.893632 203.212829 
L 189.200088 202.860378 
L 189.635574 202.724589 
L 190.506545 203.070384 
L 191.813002 203.365924 
L 192.683974 203.380235 
L 193.554945 203.635504 
L 193.990431 203.641162 
L 194.861402 204.096786 
L 195.296887 204.128403 
L 195.732373 203.731355 
L 196.167859 203.690085 
L 196.603344 203.84318 
L 197.03883 203.544978 
L 197.909801 203.72137 
L 198.345287 203.889109 
L 198.780773 203.599893 
L 200.087229 203.554297 
L 200.522715 203.580589 
L 200.958201 203.728692 
L 201.829172 203.588244 
L 202.264658 203.512029 
L 203.571115 202.99184 
L 204.877572 202.891662 
L 205.313057 202.515248 
L 205.748543 202.53555 
L 206.619514 202.204732 
L 207.055 201.902203 
L 208.361457 201.817668 
L 208.796942 201.60866 
L 209.667914 201.564396 
L 210.103399 202.401093 
L 211.845342 202.199407 
L 213.151799 201.982744 
L 214.458256 201.427609 
L 215.329227 201.556075 
L 215.764713 201.382013 
L 216.635684 201.376355 
L 217.942141 201.714162 
L 220.555055 201.680215 
L 221.426026 201.917512 
L 221.861512 201.559736 
L 222.296997 201.456564 
L 222.732483 201.551416 
L 223.167968 201.442253 
L 223.603454 201.562732 
L 224.474425 201.443584 
L 224.909911 201.048532 
L 225.345397 201.016915 
L 225.780882 201.297811 
L 226.651854 200.761979 
L 227.522825 200.161913 
L 228.829282 199.5066 
L 229.264767 199.488295 
L 229.700253 199.167462 
L 230.135739 199.216385 
L 230.571224 198.979421 
L 231.00671 198.156702 
L 231.442196 197.99096 
L 231.877681 197.613215 
L 232.313167 197.544655 
L 232.748653 197.684771 
L 234.490595 197.706071 
L 235.361566 197.479091 
L 235.797052 197.619872 
L 236.232538 197.605893 
L 236.668023 197.375585 
L 237.103509 196.836758 
L 237.97448 197.037778 
L 238.409966 197.027794 
L 238.845452 197.175896 
L 239.716423 197.162251 
L 242.329337 196.785504 
L 242.764822 196.765868 
L 243.200308 196.344191 
L 244.071279 196.008714 
L 244.506765 196.195756 
L 244.942251 196.201414 
L 245.377736 195.841641 
L 247.99065 194.931059 
L 248.426136 194.95835 
L 248.861621 194.678119 
L 249.732593 194.729373 
L 250.168078 194.722717 
L 251.474535 194.422185 
L 252.780992 194.574281 
L 253.651963 194.316349 
L 254.087449 194.317015 
L 254.522935 194.655155 
L 254.95842 194.554978 
L 255.393906 194.57894 
L 255.829392 194.837871 
L 256.264877 195.255886 
L 257.135848 195.567734 
L 257.571334 194.610558 
L 258.00682 195.010269 
L 258.442305 195.180337 
L 258.877791 195.010934 
L 259.313277 195.205298 
L 260.184248 195.78007 
L 260.619734 196.015703 
L 261.055219 195.942484 
L 261.926191 196.063296 
L 262.361676 195.8463 
L 262.797162 194.752337 
L 263.232647 194.696757 
L 264.103619 192.487531 
L 264.539104 192.384358 
L 267.587504 192.444597 
L 268.022989 192.220613 
L 270.635903 192.435279 
L 271.506875 192.355403 
L 272.377846 192.741801 
L 273.248817 192.66359 
L 273.684303 192.661593 
L 274.119788 192.507499 
L 274.555274 192.648946 
L 274.99076 192.606678 
L 275.426245 192.315132 
L 276.297217 192.096806 
L 276.732702 191.900445 
L 277.603674 191.826227 
L 278.910131 191.422522 
L 279.345616 191.404218 
L 280.216587 190.861063 
L 281.087559 191.223832 
L 281.523044 191.068074 
L 281.95853 191.285403 
L 282.829501 191.047773 
L 283.264987 190.856737 
L 283.700473 191.062749 
L 285.00693 191.000846 
L 285.442415 190.615779 
L 285.877901 190.39246 
L 286.313386 190.420749 
L 286.748872 189.84032 
L 288.055329 189.905884 
L 288.490815 189.850637 
L 288.9263 189.279193 
L 289.797272 189.260223 
L 290.232757 189.744469 
L 291.539214 190.083607 
L 292.845671 190.051324 
L 293.281157 189.815358 
L 293.716642 189.867943 
L 294.152128 189.728827 
L 294.587614 189.939831 
L 295.023099 189.701203 
L 296.329556 189.821682 
L 297.200527 190.14418 
L 297.636013 190.080945 
L 298.071499 190.235704 
L 299.377956 190.118886 
L 299.813441 190.067632 
L 300.248927 189.88059 
L 300.684413 189.878926 
L 301.119898 190.053654 
L 301.555384 189.60269 
L 301.99087 189.562086 
L 302.426355 188.923747 
L 302.861841 188.873159 
L 303.732812 188.965349 
L 304.168298 188.883143 
L 305.474755 189.173025 
L 305.91024 188.805598 
L 306.345726 188.629871 
L 306.781212 188.692773 
L 307.652183 188.633865 
L 308.087668 188.716736 
L 308.523154 188.590266 
L 309.394125 188.653834 
L 309.829611 189.26821 
L 310.700582 188.92175 
L 313.313496 189.264217 
L 314.184467 189.16171 
L 314.619953 189.320462 
L 315.055439 189.209302 
L 315.490924 189.255231 
L 315.92641 190.152833 
L 316.361896 190.208746 
L 317.232867 190.568186 
L 318.539324 190.348528 
L 318.97481 190.316245 
L 320.281266 190.741583 
L 320.716752 190.503287 
L 321.587723 190.669695 
L 322.458695 189.3604 
L 324.200637 188.681125 
L 324.636123 188.701426 
L 325.071608 188.583943 
L 327.249037 188.582944 
L 327.684522 188.398565 
L 328.120008 188.749019 
L 328.990979 188.951038 
L 329.861951 188.734708 
L 330.297436 188.940055 
L 331.168407 188.956363 
L 331.603893 188.828562 
L 332.474864 189.1038 
L 333.345836 189.073846 
L 333.781321 189.333775 
L 334.652293 189.338102 
L 335.523264 189.64529 
L 336.829721 189.689554 
L 337.700692 189.375044 
L 338.136178 189.298829 
L 338.571663 189.46091 
L 339.87812 189.413983 
L 340.749092 189.099473 
L 342.055548 189.071184 
L 342.491034 189.879259 
L 343.362005 189.851968 
L 343.797491 190.020705 
L 345.103948 189.958469 
L 345.974919 189.719175 
L 347.281376 189.521483 
L 347.716862 190.388799 
L 348.152347 190.432065 
L 349.023319 192.250566 
L 349.458804 192.185667 
L 350.329776 192.452252 
L 350.765261 192.377036 
L 351.200747 192.475216 
L 351.636233 192.404992 
L 352.071718 191.696429 
L 352.94269 192.089484 
L 353.378175 191.74269 
L 353.813661 190.533573 
L 354.684632 190.499293 
L 355.120118 189.991085 
L 355.555603 189.827007 
L 356.426575 187.839103 
L 357.297546 187.759227 
L 358.168517 187.987871 
L 359.91046 187.854745 
L 360.345945 188.0764 
L 360.781431 188.136972 
L 361.216917 186.578732 
L 361.652402 186.26522 
L 362.087888 186.372054 
L 362.523374 186.249578 
L 362.958859 186.390026 
L 363.394345 186.139083 
L 364.265316 186.089161 
L 365.571773 186.512502 
L 366.442744 186.353416 
L 369.055658 186.391357 
L 369.491144 185.957366 
L 369.92663 185.923419 
L 370.362115 186.204315 
L 370.797601 186.253239 
L 371.233086 185.133649 
L 371.668572 184.615789 
L 372.104058 183.186015 
L 372.539543 182.207206 
L 372.975029 181.557218 
L 373.410515 180.543131 
L 373.846 180.161392 
L 374.281486 180.002972 
L 374.716972 179.312048 
L 375.152457 179.07708 
L 375.587943 179.049124 
L 376.458914 178.560219 
L 376.8944 178.854427 
L 377.765371 178.88904 
L 379.071828 178.623121 
L 379.507314 178.472356 
L 379.942799 178.687354 
L 380.813771 178.75658 
L 381.249256 178.80983 
L 381.684742 178.693345 
L 382.120227 177.445954 
L 382.555713 177.540141 
L 382.991199 177.361752 
L 383.426684 176.428205 
L 383.86217 174.713542 
L 384.297656 174.543141 
L 385.168627 174.568435 
L 386.039598 173.932092 
L 386.475084 174.332136 
L 386.91057 174.327144 
L 387.346055 174.779772 
L 387.781541 174.796746 
L 388.217026 174.601716 
L 388.652512 174.633667 
L 389.087998 174.987449 
L 390.394455 175.024059 
L 390.82994 175.286983 
L 391.265426 174.381393 
L 392.136397 174.482236 
L 392.571883 174.268236 
L 394.749311 174.208995 
L 396.055768 174.203337 
L 396.926739 174.645648 
L 398.233196 174.489891 
L 399.539653 174.483234 
L 399.975139 172.757921 
L 400.84611 171.087189 
L 402.152567 171.002321 
L 402.152567 171.002321 
" clip-path="url(#pe9e97006fa)" style="fill: none; stroke: #d62728; stroke-opacity: 0.8; stroke-width: 1.5; stroke-linecap: square"/>
   </g>
   <g id="line2d_19">
    <path d="M 147.393467 199.422731 
L 147.828953 199.526902 
L 148.264438 199.4214 
L 149.135409 198.938818 
L 150.006381 198.689206 
L 150.441866 198.78772 
L 150.877352 198.555415 
L 151.312838 198.45557 
L 151.748323 198.179667 
L 152.619295 198.1151 
L 153.05478 198.828323 
L 153.490266 198.888895 
L 153.925752 198.60567 
L 154.361237 198.772077 
L 155.232208 198.608665 
L 158.716094 197.115657 
L 159.151579 197.038777 
L 159.587065 197.862161 
L 160.022551 198.140727 
L 160.893522 198.111439 
L 161.329007 197.937044 
L 162.199979 199.998168 
L 163.07095 200.233135 
L 163.506436 200.148933 
L 163.941921 200.835864 
L 164.377407 200.821552 
L 165.683864 200.369922 
L 166.554835 200.262756 
L 166.990321 200.160915 
L 167.425806 200.286719 
L 167.861292 200.278398 
L 168.732263 199.851729 
L 169.167749 199.821776 
L 169.603235 199.975537 
L 170.03872 199.747891 
L 170.474206 199.74656 
L 170.909692 199.928942 
L 171.345177 199.775182 
L 171.780663 199.754547 
L 172.216148 199.892666 
L 172.651634 199.6993 
L 173.958091 200.033446 
L 174.393577 200.146271 
L 175.264548 199.770855 
L 175.700034 199.816451 
L 177.006491 199.377801 
L 177.441976 199.314899 
L 178.312947 199.603782 
L 179.183919 199.571832 
L 179.619404 199.408753 
L 180.925861 199.302585 
L 181.361347 199.421067 
L 182.232318 199.344519 
L 183.103289 199.09391 
L 183.974261 198.884569 
L 184.409746 199.099235 
L 184.845232 199.164133 
L 185.280718 198.622311 
L 187.02266 198.542768 
L 187.458146 198.6293 
L 187.893632 198.356059 
L 189.200088 198.328435 
L 190.506545 198.611993 
L 190.942031 198.397993 
L 191.813002 198.374363 
L 192.248488 198.181996 
L 193.990431 198.809353 
L 194.425916 198.789384 
L 194.861402 198.646939 
L 195.732373 198.54776 
L 196.167859 198.778401 
L 197.03883 198.760762 
L 197.474316 198.514146 
L 198.345287 198.867928 
L 198.780773 198.693866 
L 200.522715 199.04432 
L 201.829172 199.091247 
L 202.264658 198.859941 
L 202.700143 198.839972 
L 203.135629 199.028678 
L 203.571115 198.845629 
L 204.877572 198.720824 
L 205.313057 198.513813 
L 206.184028 198.499169 
L 206.619514 198.674895 
L 207.490485 198.481197 
L 207.925971 198.65293 
L 209.232428 198.257545 
L 209.667914 198.378357 
L 210.103399 198.12808 
L 211.409856 198.046873 
L 211.845342 197.454795 
L 213.151799 197.415856 
L 213.587284 196.230702 
L 214.02277 196.206406 
L 214.458256 196.041663 
L 214.893741 196.008714 
L 215.764713 196.249006 
L 216.200198 196.537224 
L 218.377626 195.812686 
L 218.813112 195.782732 
L 219.248598 195.954798 
L 220.119569 195.939821 
L 220.555055 195.730148 
L 221.861512 195.654599 
L 222.296997 195.567401 
L 222.732483 195.677563 
L 223.603454 195.578051 
L 224.03894 195.548431 
L 224.474425 194.222828 
L 224.909911 193.955578 
L 225.345397 194.158262 
L 225.780882 194.149942 
L 226.651854 193.679008 
L 229.264767 193.557198 
L 229.700253 193.289615 
L 230.135739 193.23703 
L 230.571224 193.053982 
L 231.00671 192.996738 
L 231.877681 192.635633 
L 232.313167 192.619325 
L 232.748653 192.418305 
L 233.184138 192.545773 
L 233.619624 192.501842 
L 234.926081 192.850299 
L 236.668023 192.586377 
L 237.538995 192.159708 
L 238.409966 191.74968 
L 238.845452 191.901443 
L 239.716423 191.492081 
L 240.151908 191.457468 
L 241.458365 191.756669 
L 242.329337 191.743689 
L 243.200308 191.769648 
L 244.071279 191.391571 
L 244.506765 191.409543 
L 245.813222 190.837766 
L 246.684193 190.911651 
L 247.119679 190.922967 
L 247.99065 190.543558 
L 248.861621 190.486314 
L 249.297107 190.284628 
L 250.168078 190.254674 
L 254.087449 190.590818 
L 254.522935 189.793725 
L 254.95842 188.662154 
L 255.829392 188.535352 
L 256.264877 187.26899 
L 258.442305 186.125771 
L 258.877791 186.123441 
L 259.313277 185.917428 
L 260.619734 185.83722 
L 261.055219 185.933736 
L 261.490705 185.775316 
L 262.361676 185.733382 
L 262.797162 185.548337 
L 263.232647 185.542346 
L 264.103619 185.098703 
L 264.539104 185.092713 
L 264.97459 184.425086 
L 266.281047 184.304274 
L 266.716533 184.254019 
L 267.152018 184.057325 
L 269.764932 183.941505 
L 270.200418 184.40079 
L 270.635903 184.36884 
L 271.071389 184.531254 
L 272.377846 183.923866 
L 272.813332 184.124887 
L 273.684303 184.098927 
L 274.119788 183.55311 
L 275.426245 183.389365 
L 275.861731 183.581732 
L 276.732702 183.491872 
L 277.168188 183.609356 
L 278.039159 183.004298 
L 278.910131 182.880491 
L 279.345616 182.813595 
L 279.781102 182.945057 
L 280.216587 182.856528 
L 280.652073 183.084507 
L 281.087559 182.8532 
L 281.95853 182.775654 
L 282.394016 182.93241 
L 283.264987 182.667157 
L 283.700473 182.550671 
L 284.135958 182.28209 
L 285.00693 182.237825 
L 286.313386 182.242817 
L 286.748872 182.205542 
L 287.184358 181.409116 
L 288.055329 181.303946 
L 288.490815 181.473682 
L 288.9263 181.449053 
L 289.361786 181.275324 
L 290.668243 181.791187 
L 291.539214 181.352204 
L 291.9747 181.349875 
L 292.410185 181.508627 
L 292.845671 181.209094 
L 293.716642 181.235053 
L 294.152128 181.455044 
L 294.587614 181.198111 
L 296.329556 181.219744 
L 296.765042 181.792851 
L 298.071499 181.63077 
L 298.506984 182.542351 
L 298.94247 182.66283 
L 299.377956 182.217191 
L 299.813441 182.32236 
L 300.248927 182.067757 
L 301.99087 181.792851 
L 302.426355 181.897355 
L 302.861841 181.793184 
L 303.732812 182.020497 
L 304.603783 181.122895 
L 305.039269 180.57375 
L 305.474755 180.70022 
L 305.91024 180.661946 
L 307.216697 180.197003 
L 307.652183 180.140425 
L 308.087668 180.346104 
L 308.95864 180.343442 
L 309.394125 181.416105 
L 309.829611 181.554223 
L 310.265097 181.54091 
L 310.700582 181.314929 
L 311.136068 181.473349 
L 312.007039 181.483333 
L 312.442525 181.260347 
L 312.878011 181.223738 
L 313.313496 181.005411 
L 313.748982 181.000086 
L 314.184467 180.672263 
L 315.055439 180.46259 
L 315.490924 180.626667 
L 315.92641 180.547457 
L 316.361896 180.702216 
L 316.797381 180.630328 
L 317.232867 180.40002 
L 318.97481 180.48389 
L 319.410295 179.506745 
L 319.845781 179.179588 
L 320.281266 179.109364 
L 321.152238 179.162281 
L 321.587723 179.367628 
L 322.023209 179.431196 
L 322.458695 179.379942 
L 324.200637 180.154736 
L 324.636123 180.165719 
L 325.071608 179.729398 
L 326.813551 179.472465 
L 328.120008 180.015286 
L 328.555494 179.09472 
L 328.990979 179.307389 
L 330.732922 179.499756 
L 331.168407 179.67648 
L 332.474864 179.835566 
L 332.91035 180.024605 
L 334.216807 180.126114 
L 334.652293 180.32081 
L 335.087778 179.342334 
L 335.523264 179.226847 
L 335.95875 179.422875 
L 336.829721 179.310717 
L 338.136178 179.313712 
L 338.571663 179.064434 
L 339.007149 179.105703 
L 339.442635 179.684135 
L 339.87812 180.848322 
L 340.749092 180.869622 
L 341.184577 182.411222 
L 342.055548 182.557993 
L 342.92652 183.020939 
L 343.797491 182.769331 
L 344.232977 182.970018 
L 345.103948 183.061875 
L 345.539434 183.183353 
L 345.974919 183.028594 
L 346.410405 183.104143 
L 347.716862 182.929082 
L 348.152347 181.869066 
L 349.458804 181.55855 
L 349.89429 182.12134 
L 350.329776 182.127331 
L 350.765261 182.368289 
L 351.200747 182.16161 
L 352.071718 182.143971 
L 352.507204 182.317701 
L 352.94269 182.341331 
L 353.378175 182.612242 
L 355.120118 182.392251 
L 358.604003 182.126998 
L 359.039488 182.458482 
L 359.91046 182.092052 
L 360.345945 181.909004 
L 360.781431 181.849097 
L 361.216917 181.425091 
L 361.652402 181.167492 
L 362.087888 181.157175 
L 362.958859 181.629772 
L 363.829831 181.200773 
L 364.265316 181.057663 
L 364.700802 180.678587 
L 365.136287 180.569756 
L 365.571773 180.345106 
L 366.007259 180.254913 
L 366.442744 179.998313 
L 367.749201 179.740381 
L 368.184687 179.563323 
L 368.620173 179.634879 
L 369.055658 179.900132 
L 369.92663 179.574972 
L 371.233086 179.389927 
L 371.668572 179.272776 
L 372.104058 180.322142 
L 372.539543 180.084512 
L 373.846 180.006966 
L 374.281486 180.148079 
L 374.716972 180.128776 
L 375.152457 179.901796 
L 376.458914 180.110804 
L 377.765371 180.382381 
L 378.200857 180.60803 
L 379.071828 180.493209 
L 379.507314 180.664608 
L 379.942799 180.685243 
L 380.378285 180.378055 
L 381.249256 180.184689 
L 381.684742 180.214642 
L 382.555713 179.822919 
L 382.991199 179.946393 
L 383.426684 179.941401 
L 383.86217 179.743709 
L 384.297656 180.279208 
L 384.733141 180.298845 
L 385.168627 180.485887 
L 386.039598 180.337451 
L 386.475084 180.608363 
L 387.346055 180.466583 
L 387.781541 180.660947 
L 388.217026 180.314154 
L 388.652512 180.232282 
L 389.523483 180.631992 
L 389.958969 180.990434 
L 390.394455 180.232614 
L 391.265426 180.167383 
L 391.700912 180.51584 
L 393.442854 180.441289 
L 393.87834 180.240269 
L 394.313825 180.278543 
L 394.749311 180.134434 
L 395.184797 179.863855 
L 395.620282 179.939404 
L 396.055768 178.853429 
L 396.491254 178.967584 
L 396.926739 178.780542 
L 398.233196 179.191902 
L 398.668682 179.046462 
L 399.104167 179.305059 
L 399.539653 179.714089 
L 399.975139 179.737386 
L 400.410624 179.600266 
L 400.84611 179.59727 
L 401.281596 179.427868 
L 401.717081 179.482782 
L 402.152567 179.837896 
L 402.152567 179.837896 
" clip-path="url(#pe9e97006fa)" style="fill: none; stroke: #9467bd; stroke-opacity: 0.8; stroke-width: 1.5; stroke-linecap: square"/>
   </g>
   <g id="patch_3">
    <path d="M 62.038281 288.430125 
L 62.038281 22.318125 
" style="fill: none; stroke: #000000; stroke-width: 0.8; stroke-linejoin: miter; stroke-linecap: square"/>
   </g>
   <g id="patch_4">
    <path d="M 419.158281 288.430125 
L 419.158281 22.318125 
" style="fill: none; stroke: #000000; stroke-width: 0.8; stroke-linejoin: miter; stroke-linecap: square"/>
   </g>
   <g id="patch_5">
    <path d="M 62.038281 288.430125 
L 419.158281 288.430125 
" style="fill: none; stroke: #000000; stroke-width: 0.8; stroke-linejoin: miter; stroke-linecap: square"/>
   </g>
   <g id="patch_6">
    <path d="M 62.038281 22.318125 
L 419.158281 22.318125 
" style="fill: none; stroke: #000000; stroke-width: 0.8; stroke-linejoin: miter; stroke-linecap: square"/>
   </g>
   <g id="text_17">
    <!-- Get ancestors [leaf] -->
    <g transform="translate(181.050156 16.318125) scale(0.12 -0.12)">
     <defs>
      <path id="DejaVuSans-2a" d="M 3809 666 
L 3809 1919 
L 2778 1919 
L 2778 2438 
L 4434 2438 
L 4434 434 
Q 4069 175 3628 42 
Q 3188 -91 2688 -91 
Q 1594 -91 976 548 
Q 359 1188 359 2328 
Q 359 3472 976 4111 
Q 1594 4750 2688 4750 
Q 3144 4750 3555 4637 
Q 3966 4525 4313 4306 
L 4313 3634 
Q 3963 3931 3569 4081 
Q 3175 4231 2741 4231 
Q 1884 4231 1454 3753 
Q 1025 3275 1025 2328 
Q 1025 1384 1454 906 
Q 1884 428 2741 428 
Q 3075 428 3337 486 
Q 3600 544 3809 666 
z
" transform="scale(0.015625)"/>
      <path id="DejaVuSans-55" d="M 2631 2963 
Q 2534 3019 2420 3045 
Q 2306 3072 2169 3072 
Q 1681 3072 1420 2755 
Q 1159 2438 1159 1844 
L 1159 0 
L 581 0 
L 581 3500 
L 1159 3500 
L 1159 2956 
Q 1341 3275 1631 3429 
Q 1922 3584 2338 3584 
Q 2397 3584 2469 3576 
Q 2541 3569 2628 3553 
L 2631 2963 
z
" transform="scale(0.015625)"/>
      <path id="DejaVuSans-3e" d="M 550 4863 
L 1875 4863 
L 1875 4416 
L 1125 4416 
L 1125 -397 
L 1875 -397 
L 1875 -844 
L 550 -844 
L 550 4863 
z
" transform="scale(0.015625)"/>
      <path id="DejaVuSans-40" d="M 1947 4863 
L 1947 -844 
L 622 -844 
L 622 -397 
L 1369 -397 
L 1369 4416 
L 622 4416 
L 622 4863 
L 1947 4863 
z
" transform="scale(0.015625)"/>
     </defs>
     <use xlink:href="#DejaVuSans-2a"/>
     <use xlink:href="#DejaVuSans-48" transform="translate(77.484375 0)"/>
     <use xlink:href="#DejaVuSans-57" transform="translate(139.015625 0)"/>
     <use xlink:href="#DejaVuSans-3" transform="translate(178.21875 0)"/>
     <use xlink:href="#DejaVuSans-44" transform="translate(210 0)"/>
     <use xlink:href="#DejaVuSans-51" transform="translate(271.28125 0)"/>
     <use xlink:href="#DejaVuSans-46" transform="translate(334.65625 0)"/>
     <use xlink:href="#DejaVuSans-48" transform="translate(389.640625 0)"/>
     <use xlink:href="#DejaVuSans-56" transform="translate(451.171875 0)"/>
     <use xlink:href="#DejaVuSans-57" transform="translate(503.265625 0)"/>
     <use xlink:href="#DejaVuSans-52" transform="translate(542.46875 0)"/>
     <use xlink:href="#DejaVuSans-55" transform="translate(603.65625 0)"/>
     <use xlink:href="#DejaVuSans-56" transform="translate(644.765625 0)"/>
     <use xlink:href="#DejaVuSans-3" transform="translate(696.859375 0)"/>
     <use xlink:href="#DejaVuSans-3e" transform="translate(728.640625 0)"/>
     <use xlink:href="#DejaVuSans-4f" transform="translate(767.65625 0)"/>
     <use xlink:href="#DejaVuSans-48" transform="translate(795.4375 0)"/>
     <use xlink:href="#DejaVuSans-44" transform="translate(856.96875 0)"/>
     <use xlink:href="#DejaVuSans-49" transform="translate(918.25 0)"/>
     <use xlink:href="#DejaVuSans-40" transform="translate(953.453125 0)"/>
    </g>
   </g>
   <g id="legend_1">
    <g id="patch_7">
     <path d="M 93.035937 366.447687 
L 380.640625 366.447687 
Q 382.640625 366.447687 382.640625 364.447687 
L 382.640625 335.446125 
Q 382.640625 333.446125 380.640625 333.446125 
L 93.035937 333.446125 
Q 91.035937 333.446125 91.035937 335.446125 
L 91.035937 364.447687 
Q 91.035937 366.447687 93.035937 366.447687 
z
" style="fill: #4d4d4d; opacity: 0.5; stroke: #4d4d4d; stroke-linejoin: miter"/>
    </g>
    <g id="patch_8">
     <path d="M 91.035937 364.447687 
L 378.640625 364.447687 
Q 380.640625 364.447687 380.640625 362.447687 
L 380.640625 333.446125 
Q 380.640625 331.446125 378.640625 331.446125 
L 91.035937 331.446125 
Q 89.035937 331.446125 89.035937 333.446125 
L 89.035937 362.447687 
Q 89.035937 364.447687 91.035937 364.447687 
z
" style="fill: #ffffff; stroke: #cccccc; stroke-linejoin: miter"/>
    </g>
    <g id="line2d_20">
     <path d="M 93.035937 339.544562 
L 103.035937 339.544562 
L 113.035937 339.544562 
" style="fill: none; stroke: #1f77b4; stroke-opacity: 0.8; stroke-width: 1.5; stroke-linecap: square"/>
    </g>
    <g id="text_18">
     <!-- MPTT -->
     <g transform="translate(121.035937 343.044562) scale(0.1 -0.1)">
      <defs>
       <path id="DejaVuSans-30" d="M 628 4666 
L 1569 4666 
L 2759 1491 
L 3956 4666 
L 4897 4666 
L 4897 0 
L 4281 0 
L 4281 4097 
L 3078 897 
L 2444 897 
L 1241 4097 
L 1241 0 
L 628 0 
L 628 4666 
z
" transform="scale(0.015625)"/>
       <path id="DejaVuSans-33" d="M 1259 4147 
L 1259 2394 
L 2053 2394 
Q 2494 2394 2734 2622 
Q 2975 2850 2975 3272 
Q 2975 3691 2734 3919 
Q 2494 4147 2053 4147 
L 1259 4147 
z
M 628 4666 
L 2053 4666 
Q 2838 4666 3239 4311 
Q 3641 3956 3641 3272 
Q 3641 2581 3239 2228 
Q 2838 1875 2053 1875 
L 1259 1875 
L 1259 0 
L 628 0 
L 628 4666 
z
" transform="scale(0.015625)"/>
       <path id="DejaVuSans-37" d="M -19 4666 
L 3928 4666 
L 3928 4134 
L 2272 4134 
L 2272 0 
L 1638 0 
L 1638 4134 
L -19 4134 
L -19 4666 
z
" transform="scale(0.015625)"/>
      </defs>
      <use xlink:href="#DejaVuSans-30"/>
      <use xlink:href="#DejaVuSans-33" transform="translate(86.28125 0)"/>
      <use xlink:href="#DejaVuSans-37" transform="translate(146.578125 0)"/>
      <use xlink:href="#DejaVuSans-37" transform="translate(205.90625 0)"/>
     </g>
    </g>
    <g id="line2d_21">
     <path d="M 93.035937 354.545344 
L 103.035937 354.545344 
L 113.035937 354.545344 
" style="fill: none; stroke: #ff7f0e; stroke-opacity: 0.8; stroke-width: 1.5; stroke-linecap: square"/>
    </g>
    <g id="text_19">
     <!-- tree -->
     <g transform="translate(121.035937 358.045344) scale(0.1 -0.1)">
      <use xlink:href="#DejaVuSans-57"/>
      <use xlink:href="#DejaVuSans-55" transform="translate(39.203125 0)"/>
      <use xlink:href="#DejaVuSans-48" transform="translate(78.109375 0)"/>
      <use xlink:href="#DejaVuSans-48" transform="translate(139.640625 0)"/>
     </g>
    </g>
    <g id="line2d_22">
     <path d="M 167.734375 339.544562 
L 177.734375 339.544562 
L 187.734375 339.544562 
" style="fill: none; stroke: #2ca02c; stroke-opacity: 0.8; stroke-width: 1.5; stroke-linecap: square"/>
    </g>
    <g id="text_20">
     <!-- treebeard AL -->
     <g transform="translate(195.734375 343.044562) scale(0.1 -0.1)">
      <defs>
       <path id="DejaVuSans-2f" d="M 628 4666 
L 1259 4666 
L 1259 531 
L 3531 531 
L 3531 0 
L 628 0 
L 628 4666 
z
" transform="scale(0.015625)"/>
      </defs>
      <use xlink:href="#DejaVuSans-57"/>
      <use xlink:href="#DejaVuSans-55" transform="translate(39.203125 0)"/>
      <use xlink:href="#DejaVuSans-48" transform="translate(78.109375 0)"/>
      <use xlink:href="#DejaVuSans-48" transform="translate(139.640625 0)"/>
      <use xlink:href="#DejaVuSans-45" transform="translate(201.171875 0)"/>
      <use xlink:href="#DejaVuSans-48" transform="translate(264.65625 0)"/>
      <use xlink:href="#DejaVuSans-44" transform="translate(326.1875 0)"/>
      <use xlink:href="#DejaVuSans-55" transform="translate(387.46875 0)"/>
      <use xlink:href="#DejaVuSans-47" transform="translate(426.828125 0)"/>
      <use xlink:href="#DejaVuSans-3" transform="translate(490.3125 0)"/>
      <use xlink:href="#DejaVuSans-24" transform="translate(522.09375 0)"/>
      <use xlink:href="#DejaVuSans-2f" transform="translate(590.5 0)"/>
     </g>
    </g>
    <g id="line2d_23">
     <path d="M 167.734375 354.545344 
L 177.734375 354.545344 
L 187.734375 354.545344 
" style="fill: none; stroke: #d62728; stroke-opacity: 0.8; stroke-width: 1.5; stroke-linecap: square"/>
    </g>
    <g id="text_21">
     <!-- treebeard MP -->
     <g transform="translate(195.734375 358.045344) scale(0.1 -0.1)">
      <use xlink:href="#DejaVuSans-57"/>
      <use xlink:href="#DejaVuSans-55" transform="translate(39.203125 0)"/>
      <use xlink:href="#DejaVuSans-48" transform="translate(78.109375 0)"/>
      <use xlink:href="#DejaVuSans-48" transform="translate(139.640625 0)"/>
      <use xlink:href="#DejaVuSans-45" transform="translate(201.171875 0)"/>
      <use xlink:href="#DejaVuSans-48" transform="translate(264.65625 0)"/>
      <use xlink:href="#DejaVuSans-44" transform="translate(326.1875 0)"/>
      <use xlink:href="#DejaVuSans-55" transform="translate(387.46875 0)"/>
      <use xlink:href="#DejaVuSans-47" transform="translate(426.828125 0)"/>
      <use xlink:href="#DejaVuSans-3" transform="translate(490.3125 0)"/>
      <use xlink:href="#DejaVuSans-30" transform="translate(522.09375 0)"/>
      <use xlink:href="#DejaVuSans-33" transform="translate(608.375 0)"/>
     </g>
    </g>
    <g id="line2d_24">
     <path d="M 282.601562 339.544562 
L 292.601562 339.544562 
L 302.601562 339.544562 
" style="fill: none; stroke: #9467bd; stroke-opacity: 0.8; stroke-width: 1.5; stroke-linecap: square"/>
    </g>
    <g id="text_22">
     <!-- treebeard NS -->
     <g transform="translate(310.601562 343.044562) scale(0.1 -0.1)">
      <defs>
       <path id="DejaVuSans-31" d="M 628 4666 
L 1478 4666 
L 3547 763 
L 3547 4666 
L 4159 4666 
L 4159 0 
L 3309 0 
L 1241 3903 
L 1241 0 
L 628 0 
L 628 4666 
z
" transform="scale(0.015625)"/>
       <path id="DejaVuSans-36" d="M 3425 4513 
L 3425 3897 
Q 3066 4069 2747 4153 
Q 2428 4238 2131 4238 
Q 1616 4238 1336 4038 
Q 1056 3838 1056 3469 
Q 1056 3159 1242 3001 
Q 1428 2844 1947 2747 
L 2328 2669 
Q 3034 2534 3370 2195 
Q 3706 1856 3706 1288 
Q 3706 609 3251 259 
Q 2797 -91 1919 -91 
Q 1588 -91 1214 -16 
Q 841 59 441 206 
L 441 856 
Q 825 641 1194 531 
Q 1563 422 1919 422 
Q 2459 422 2753 634 
Q 3047 847 3047 1241 
Q 3047 1584 2836 1778 
Q 2625 1972 2144 2069 
L 1759 2144 
Q 1053 2284 737 2584 
Q 422 2884 422 3419 
Q 422 4038 858 4394 
Q 1294 4750 2059 4750 
Q 2388 4750 2728 4690 
Q 3069 4631 3425 4513 
z
" transform="scale(0.015625)"/>
      </defs>
      <use xlink:href="#DejaVuSans-57"/>
      <use xlink:href="#DejaVuSans-55" transform="translate(39.203125 0)"/>
      <use xlink:href="#DejaVuSans-48" transform="translate(78.109375 0)"/>
      <use xlink:href="#DejaVuSans-48" transform="translate(139.640625 0)"/>
      <use xlink:href="#DejaVuSans-45" transform="translate(201.171875 0)"/>
      <use xlink:href="#DejaVuSans-48" transform="translate(264.65625 0)"/>
      <use xlink:href="#DejaVuSans-44" transform="translate(326.1875 0)"/>
      <use xlink:href="#DejaVuSans-55" transform="translate(387.46875 0)"/>
      <use xlink:href="#DejaVuSans-47" transform="translate(426.828125 0)"/>
      <use xlink:href="#DejaVuSans-3" transform="translate(490.3125 0)"/>
      <use xlink:href="#DejaVuSans-31" transform="translate(522.09375 0)"/>
      <use xlink:href="#DejaVuSans-36" transform="translate(596.90625 0)"/>
     </g>
    </g>
   </g>
  </g>
 </g>
 <defs>
  <clipPath id="pe9e97006fa">
   <rect x="62.038281" y="22.318125" width="357.12" height="266.112"/>
  </clipPath>
 </defs>
</svg>
