<?xml version="1.0" encoding="utf-8" standalone="no"?>
<!DOCTYPE svg PUBLIC "-//W3C//DTD SVG 1.1//EN"
  "http://www.w3.org/Graphics/SVG/1.1/DTD/svg11.dtd">
<svg xmlns:xlink="http://www.w3.org/1999/xlink" width="429.736406pt" height="386.648469pt" viewBox="0 0 429.736406 386.648469" xmlns="http://www.w3.org/2000/svg" version="1.1">
 <metadata>
  <rdf:RDF xmlns:dc="http://purl.org/dc/elements/1.1/" xmlns:cc="http://creativecommons.org/ns#" xmlns:rdf="http://www.w3.org/1999/02/22-rdf-syntax-ns#">
   <cc:Work>
    <dc:type rdf:resource="http://purl.org/dc/dcmitype/StillImage"/>
    <dc:date>2026-06-29T19:53:23.692588</dc:date>
    <dc:format>image/svg+xml</dc:format>
    <dc:creator>
     <cc:Agent>
      <dc:title>Matplotlib v3.11.0, https://matplotlib.org/</dc:title>
     </cc:Agent>
    </dc:creator>
   </cc:Work>
  </rdf:RDF>
 </metadata>
 <defs>
  <style type="text/css">*{stroke-linejoin: round; stroke-linecap: butt}</style>
 </defs>
 <g id="figure_1">
  <g id="patch_1">
   <path d="M 0 386.648469 
L 429.736406 386.648469 
L 429.736406 0 
L 0 0 
z
" style="fill: #ffffff"/>
  </g>
  <g id="axes_1">
   <g id="patch_2">
    <path d="M 65.416406 288.430125 
L 422.536406 288.430125 
L 422.536406 22.318125 
L 65.416406 22.318125 
z
" style="fill: #ffffff"/>
   </g>
   <g id="matplotlib.axis_1">
    <g id="xtick_1">
     <g id="line2d_1">
      <defs>
       <path id="m1de40c38a2" d="M 0 0 
L 0 3.5 
" style="stroke: #000000; stroke-width: 0.8"/>
      </defs>
      <g>
       <use xlink:href="#m1de40c38a2" x="65.416406" y="288.430125" style="stroke: #000000; stroke-width: 0.8"/>
      </g>
     </g>
     <g id="text_1">
      <!-- 0 -->
      <g transform="translate(62.235156 303.027781) scale(0.1 -0.1)">
       <defs>
        <path id="DejaVuSans-13" d="M 2034 4250 
Q 1547 4250 1301 3770 
Q 1056 3291 1056 2328 
Q 1056 1369 1301 889 
Q 1547 409 2034 409 
Q 2525 409 2770 889 
Q 3016 1369 3016 2328 
Q 3016 3291 2770 3770 
Q 2525 4250 2034 4250 
z
M 2034 4750 
Q 2819 4750 3233 4129 
Q 3647 3509 3647 2328 
Q 3647 1150 3233 529 
Q 2819 -91 2034 -91 
Q 1250 -91 836 529 
Q 422 1150 422 2328 
Q 422 3509 836 4129 
Q 1250 4750 2034 4750 
z
" transform="scale(0.015625)"/>
       </defs>
       <use xlink:href="#DejaVuSans-13"/>
      </g>
     </g>
    </g>
    <g id="xtick_2">
     <g id="line2d_2">
      <g>
       <use xlink:href="#m1de40c38a2" x="108.96497" y="288.430125" style="stroke: #000000; stroke-width: 0.8"/>
      </g>
     </g>
     <g id="text_2">
      <!-- 500  -->
      <g transform="translate(97.832158 303.027781) scale(0.1 -0.1)">
       <defs>
        <path id="DejaVuSans-18" d="M 691 4666 
L 3169 4666 
L 3169 4134 
L 1269 4134 
L 1269 2991 
Q 1406 3038 1543 3061 
Q 1681 3084 1819 3084 
Q 2600 3084 3056 2656 
Q 3513 2228 3513 1497 
Q 3513 744 3044 326 
Q 2575 -91 1722 -91 
Q 1428 -91 1123 -41 
Q 819 9 494 109 
L 494 744 
Q 775 591 1075 516 
Q 1375 441 1709 441 
Q 2250 441 2565 725 
Q 2881 1009 2881 1497 
Q 2881 1984 2565 2268 
Q 2250 2553 1709 2553 
Q 1456 2553 1204 2497 
Q 953 2441 691 2322 
L 691 4666 
z
" transform="scale(0.015625)"/>
        <path id="DejaVuSans-3" transform="scale(0.015625)"/>
       </defs>
       <use xlink:href="#DejaVuSans-18"/>
       <use xlink:href="#DejaVuSans-13" transform="translate(63.625 0)"/>
       <use xlink:href="#DejaVuSans-13" transform="translate(127.25 0)"/>
       <use xlink:href="#DejaVuSans-3" transform="translate(190.875 0)"/>
      </g>
     </g>
    </g>
    <g id="xtick_3">
     <g id="line2d_3">
      <g>
       <use xlink:href="#m1de40c38a2" x="152.513534" y="288.430125" style="stroke: #000000; stroke-width: 0.8"/>
      </g>
     </g>
     <g id="text_3">
      <!-- 1 k -->
      <g transform="translate(144.847909 303.028562) scale(0.1 -0.1)">
       <defs>
        <path id="DejaVuSans-14" d="M 794 531 
L 1825 531 
L 1825 4091 
L 703 3866 
L 703 4441 
L 1819 4666 
L 2450 4666 
L 2450 531 
L 3481 531 
L 3481 0 
L 794 0 
L 794 531 
z
" transform="scale(0.015625)"/>
        <path id="DejaVuSans-4e" d="M 581 4863 
L 1159 4863 
L 1159 1991 
L 2875 3500 
L 3609 3500 
L 1753 1863 
L 3688 0 
L 2938 0 
L 1159 1709 
L 1159 0 
L 581 0 
L 581 4863 
z
" transform="scale(0.015625)"/>
       </defs>
       <use xlink:href="#DejaVuSans-14"/>
       <use xlink:href="#DejaVuSans-3" transform="translate(63.625 0)"/>
       <use xlink:href="#DejaVuSans-4e" transform="translate(95.40625 0)"/>
      </g>
     </g>
    </g>
    <g id="xtick_4">
     <g id="line2d_4">
      <g>
       <use xlink:href="#m1de40c38a2" x="196.062099" y="288.430125" style="stroke: #000000; stroke-width: 0.8"/>
      </g>
     </g>
     <g id="text_4">
      <!-- 1.5 k -->
      <g transform="translate(183.626161 303.028562) scale(0.1 -0.1)">
       <defs>
        <path id="DejaVuSans-11" d="M 684 794 
L 1344 794 
L 1344 0 
L 684 0 
L 684 794 
z
" transform="scale(0.015625)"/>
       </defs>
       <use xlink:href="#DejaVuSans-14"/>
       <use xlink:href="#DejaVuSans-11" transform="translate(63.625 0)"/>
       <use xlink:href="#DejaVuSans-18" transform="translate(95.40625 0)"/>
       <use xlink:href="#DejaVuSans-3" transform="translate(159.03125 0)"/>
       <use xlink:href="#DejaVuSans-4e" transform="translate(190.8125 0)"/>
      </g>
     </g>
    </g>
    <g id="xtick_5">
     <g id="line2d_5">
      <g>
       <use xlink:href="#m1de40c38a2" x="239.610663" y="288.430125" style="stroke: #000000; stroke-width: 0.8"/>
      </g>
     </g>
     <g id="text_5">
      <!-- 2 k -->
      <g transform="translate(231.945038 303.028562) scale(0.1 -0.1)">
       <defs>
        <path id="DejaVuSans-15" d="M 1228 531 
L 3431 531 
L 3431 0 
L 469 0 
L 469 531 
Q 828 903 1448 1529 
Q 2069 2156 2228 2338 
Q 2531 2678 2651 2914 
Q 2772 3150 2772 3378 
Q 2772 3750 2511 3984 
Q 2250 4219 1831 4219 
Q 1534 4219 1204 4116 
Q 875 4013 500 3803 
L 500 4441 
Q 881 4594 1212 4672 
Q 1544 4750 1819 4750 
Q 2544 4750 2975 4387 
Q 3406 4025 3406 3419 
Q 3406 3131 3298 2873 
Q 3191 2616 2906 2266 
Q 2828 2175 2409 1742 
Q 1991 1309 1228 531 
z
" transform="scale(0.015625)"/>
       </defs>
       <use xlink:href="#DejaVuSans-15"/>
       <use xlink:href="#DejaVuSans-3" transform="translate(63.625 0)"/>
       <use xlink:href="#DejaVuSans-4e" transform="translate(95.40625 0)"/>
      </g>
     </g>
    </g>
    <g id="xtick_6">
     <g id="line2d_6">
      <g>
       <use xlink:href="#m1de40c38a2" x="283.159227" y="288.430125" style="stroke: #000000; stroke-width: 0.8"/>
      </g>
     </g>
     <g id="text_6">
      <!-- 2.5 k -->
      <g transform="translate(270.723289 303.028562) scale(0.1 -0.1)">
       <use xlink:href="#DejaVuSans-15"/>
       <use xlink:href="#DejaVuSans-11" transform="translate(63.625 0)"/>
       <use xlink:href="#DejaVuSans-18" transform="translate(95.40625 0)"/>
       <use xlink:href="#DejaVuSans-3" transform="translate(159.03125 0)"/>
       <use xlink:href="#DejaVuSans-4e" transform="translate(190.8125 0)"/>
      </g>
     </g>
    </g>
    <g id="xtick_7">
     <g id="line2d_7">
      <g>
       <use xlink:href="#m1de40c38a2" x="326.707791" y="288.430125" style="stroke: #000000; stroke-width: 0.8"/>
      </g>
     </g>
     <g id="text_7">
      <!-- 3 k -->
      <g transform="translate(319.042166 303.028562) scale(0.1 -0.1)">
       <defs>
        <path id="DejaVuSans-16" d="M 2597 2516 
Q 3050 2419 3304 2112 
Q 3559 1806 3559 1356 
Q 3559 666 3084 287 
Q 2609 -91 1734 -91 
Q 1441 -91 1130 -33 
Q 819 25 488 141 
L 488 750 
Q 750 597 1062 519 
Q 1375 441 1716 441 
Q 2309 441 2620 675 
Q 2931 909 2931 1356 
Q 2931 1769 2642 2001 
Q 2353 2234 1838 2234 
L 1294 2234 
L 1294 2753 
L 1863 2753 
Q 2328 2753 2575 2939 
Q 2822 3125 2822 3475 
Q 2822 3834 2567 4026 
Q 2313 4219 1838 4219 
Q 1578 4219 1281 4162 
Q 984 4106 628 3988 
L 628 4550 
Q 988 4650 1302 4700 
Q 1616 4750 1894 4750 
Q 2613 4750 3031 4423 
Q 3450 4097 3450 3541 
Q 3450 3153 3228 2886 
Q 3006 2619 2597 2516 
z
" transform="scale(0.015625)"/>
       </defs>
       <use xlink:href="#DejaVuSans-16"/>
       <use xlink:href="#DejaVuSans-3" transform="translate(63.625 0)"/>
       <use xlink:href="#DejaVuSans-4e" transform="translate(95.40625 0)"/>
      </g>
     </g>
    </g>
    <g id="xtick_8">
     <g id="line2d_8">
      <g>
       <use xlink:href="#m1de40c38a2" x="370.256355" y="288.430125" style="stroke: #000000; stroke-width: 0.8"/>
      </g>
     </g>
     <g id="text_8">
      <!-- 3.5 k -->
      <g transform="translate(357.820418 303.028562) scale(0.1 -0.1)">
       <use xlink:href="#DejaVuSans-16"/>
       <use xlink:href="#DejaVuSans-11" transform="translate(63.625 0)"/>
       <use xlink:href="#DejaVuSans-18" transform="translate(95.40625 0)"/>
       <use xlink:href="#DejaVuSans-3" transform="translate(159.03125 0)"/>
       <use xlink:href="#DejaVuSans-4e" transform="translate(190.8125 0)"/>
      </g>
     </g>
    </g>
    <g id="xtick_9">
     <g id="line2d_9">
      <g>
       <use xlink:href="#m1de40c38a2" x="413.804919" y="288.430125" style="stroke: #000000; stroke-width: 0.8"/>
      </g>
     </g>
     <g id="text_9">
      <!-- 4 k -->
      <g transform="translate(406.139294 303.028562) scale(0.1 -0.1)">
       <defs>
        <path id="DejaVuSans-17" d="M 2419 4116 
L 825 1625 
L 2419 1625 
L 2419 4116 
z
M 2253 4666 
L 3047 4666 
L 3047 1625 
L 3713 1625 
L 3713 1100 
L 3047 1100 
L 3047 0 
L 2419 0 
L 2419 1100 
L 313 1100 
L 313 1709 
L 2253 4666 
z
" transform="scale(0.015625)"/>
       </defs>
       <use xlink:href="#DejaVuSans-17"/>
       <use xlink:href="#DejaVuSans-3" transform="translate(63.625 0)"/>
       <use xlink:href="#DejaVuSans-4e" transform="translate(95.40625 0)"/>
      </g>
     </g>
    </g>
    <g id="text_10">
     <!-- Amount of objects in table -->
     <g transform="translate(177.917813 317.029344) scale(0.1 -0.1)">
      <defs>
       <path id="DejaVuSans-24" d="M 2188 4044 
L 1331 1722 
L 3047 1722 
L 2188 4044 
z
M 1831 4666 
L 2547 4666 
L 4325 0 
L 3669 0 
L 3244 1197 
L 1141 1197 
L 716 0 
L 50 0 
L 1831 4666 
z
" transform="scale(0.015625)"/>
       <path id="DejaVuSans-50" d="M 3328 2828 
Q 3544 3216 3844 3400 
Q 4144 3584 4550 3584 
Q 5097 3584 5394 3201 
Q 5691 2819 5691 2113 
L 5691 0 
L 5113 0 
L 5113 2094 
Q 5113 2597 4934 2840 
Q 4756 3084 4391 3084 
Q 3944 3084 3684 2787 
Q 3425 2491 3425 1978 
L 3425 0 
L 2847 0 
L 2847 2094 
Q 2847 2600 2669 2842 
Q 2491 3084 2119 3084 
Q 1678 3084 1418 2786 
Q 1159 2488 1159 1978 
L 1159 0 
L 581 0 
L 581 3500 
L 1159 3500 
L 1159 2956 
Q 1356 3278 1631 3431 
Q 1906 3584 2284 3584 
Q 2666 3584 2933 3390 
Q 3200 3197 3328 2828 
z
" transform="scale(0.015625)"/>
       <path id="DejaVuSans-52" d="M 1959 3097 
Q 1497 3097 1228 2736 
Q 959 2375 959 1747 
Q 959 1119 1226 758 
Q 1494 397 1959 397 
Q 2419 397 2687 759 
Q 2956 1122 2956 1747 
Q 2956 2369 2687 2733 
Q 2419 3097 1959 3097 
z
M 1959 3584 
Q 2709 3584 3137 3096 
Q 3566 2609 3566 1747 
Q 3566 888 3137 398 
Q 2709 -91 1959 -91 
Q 1206 -91 779 398 
Q 353 888 353 1747 
Q 353 2609 779 3096 
Q 1206 3584 1959 3584 
z
" transform="scale(0.015625)"/>
       <path id="DejaVuSans-58" d="M 544 1381 
L 544 3500 
L 1119 3500 
L 1119 1403 
Q 1119 906 1312 657 
Q 1506 409 1894 409 
Q 2359 409 2629 706 
Q 2900 1003 2900 1516 
L 2900 3500 
L 3475 3500 
L 3475 0 
L 2900 0 
L 2900 538 
Q 2691 219 2414 64 
Q 2138 -91 1772 -91 
Q 1169 -91 856 284 
Q 544 659 544 1381 
z
M 1991 3584 
L 1991 3584 
z
" transform="scale(0.015625)"/>
       <path id="DejaVuSans-51" d="M 3513 2113 
L 3513 0 
L 2938 0 
L 2938 2094 
Q 2938 2591 2744 2837 
Q 2550 3084 2163 3084 
Q 1697 3084 1428 2787 
Q 1159 2491 1159 1978 
L 1159 0 
L 581 0 
L 581 3500 
L 1159 3500 
L 1159 2956 
Q 1366 3272 1645 3428 
Q 1925 3584 2291 3584 
Q 2894 3584 3203 3211 
Q 3513 2838 3513 2113 
z
" transform="scale(0.015625)"/>
       <path id="DejaVuSans-57" d="M 1172 4494 
L 1172 3500 
L 2356 3500 
L 2356 3053 
L 1172 3053 
L 1172 1153 
Q 1172 725 1289 603 
Q 1406 481 1766 481 
L 2356 481 
L 2356 0 
L 1766 0 
Q 1100 0 847 248 
Q 594 497 594 1153 
L 594 3053 
L 172 3053 
L 172 3500 
L 594 3500 
L 594 4494 
L 1172 4494 
z
" transform="scale(0.015625)"/>
       <path id="DejaVuSans-49" d="M 2375 4863 
L 2375 4384 
L 1825 4384 
Q 1516 4384 1395 4259 
Q 1275 4134 1275 3809 
L 1275 3500 
L 2222 3500 
L 2222 3053 
L 1275 3053 
L 1275 0 
L 697 0 
L 697 3053 
L 147 3053 
L 147 3500 
L 697 3500 
L 697 3744 
Q 697 4328 969 4595 
Q 1241 4863 1831 4863 
L 2375 4863 
z
" transform="scale(0.015625)"/>
       <path id="DejaVuSans-45" d="M 3116 1747 
Q 3116 2381 2855 2742 
Q 2594 3103 2138 3103 
Q 1681 3103 1420 2742 
Q 1159 2381 1159 1747 
Q 1159 1113 1420 752 
Q 1681 391 2138 391 
Q 2594 391 2855 752 
Q 3116 1113 3116 1747 
z
M 1159 2969 
Q 1341 3281 1617 3432 
Q 1894 3584 2278 3584 
Q 2916 3584 3314 3078 
Q 3713 2572 3713 1747 
Q 3713 922 3314 415 
Q 2916 -91 2278 -91 
Q 1894 -91 1617 61 
Q 1341 213 1159 525 
L 1159 0 
L 581 0 
L 581 4863 
L 1159 4863 
L 1159 2969 
z
" transform="scale(0.015625)"/>
       <path id="DejaVuSans-4d" d="M 603 3500 
L 1178 3500 
L 1178 -63 
Q 1178 -731 923 -1031 
Q 669 -1331 103 -1331 
L -116 -1331 
L -116 -844 
L 38 -844 
Q 366 -844 484 -692 
Q 603 -541 603 -63 
L 603 3500 
z
M 603 4863 
L 1178 4863 
L 1178 4134 
L 603 4134 
L 603 4863 
z
" transform="scale(0.015625)"/>
       <path id="DejaVuSans-48" d="M 3597 1894 
L 3597 1613 
L 953 1613 
Q 991 1019 1311 708 
Q 1631 397 2203 397 
Q 2534 397 2845 478 
Q 3156 559 3463 722 
L 3463 178 
Q 3153 47 2828 -22 
Q 2503 -91 2169 -91 
Q 1331 -91 842 396 
Q 353 884 353 1716 
Q 353 2575 817 3079 
Q 1281 3584 2069 3584 
Q 2775 3584 3186 3129 
Q 3597 2675 3597 1894 
z
M 3022 2063 
Q 3016 2534 2758 2815 
Q 2500 3097 2075 3097 
Q 1594 3097 1305 2825 
Q 1016 2553 972 2059 
L 3022 2063 
z
" transform="scale(0.015625)"/>
       <path id="DejaVuSans-46" d="M 3122 3366 
L 3122 2828 
Q 2878 2963 2633 3030 
Q 2388 3097 2138 3097 
Q 1578 3097 1268 2742 
Q 959 2388 959 1747 
Q 959 1106 1268 751 
Q 1578 397 2138 397 
Q 2388 397 2633 464 
Q 2878 531 3122 666 
L 3122 134 
Q 2881 22 2623 -34 
Q 2366 -91 2075 -91 
Q 1284 -91 818 406 
Q 353 903 353 1747 
Q 353 2603 823 3093 
Q 1294 3584 2113 3584 
Q 2378 3584 2631 3529 
Q 2884 3475 3122 3366 
z
" transform="scale(0.015625)"/>
       <path id="DejaVuSans-56" d="M 2834 3397 
L 2834 2853 
Q 2591 2978 2328 3040 
Q 2066 3103 1784 3103 
Q 1356 3103 1142 2972 
Q 928 2841 928 2578 
Q 928 2378 1081 2264 
Q 1234 2150 1697 2047 
L 1894 2003 
Q 2506 1872 2764 1633 
Q 3022 1394 3022 966 
Q 3022 478 2636 193 
Q 2250 -91 1575 -91 
Q 1294 -91 989 -36 
Q 684 19 347 128 
L 347 722 
Q 666 556 975 473 
Q 1284 391 1588 391 
Q 1994 391 2212 530 
Q 2431 669 2431 922 
Q 2431 1156 2273 1281 
Q 2116 1406 1581 1522 
L 1381 1569 
Q 847 1681 609 1914 
Q 372 2147 372 2553 
Q 372 3047 722 3315 
Q 1072 3584 1716 3584 
Q 2034 3584 2315 3537 
Q 2597 3491 2834 3397 
z
" transform="scale(0.015625)"/>
       <path id="DejaVuSans-4c" d="M 603 3500 
L 1178 3500 
L 1178 0 
L 603 0 
L 603 3500 
z
M 603 4863 
L 1178 4863 
L 1178 4134 
L 603 4134 
L 603 4863 
z
" transform="scale(0.015625)"/>
       <path id="DejaVuSans-44" d="M 2194 1759 
Q 1497 1759 1228 1600 
Q 959 1441 959 1056 
Q 959 750 1161 570 
Q 1363 391 1709 391 
Q 2188 391 2477 730 
Q 2766 1069 2766 1631 
L 2766 1759 
L 2194 1759 
z
M 3341 1997 
L 3341 0 
L 2766 0 
L 2766 531 
Q 2569 213 2275 61 
Q 1981 -91 1556 -91 
Q 1019 -91 701 211 
Q 384 513 384 1019 
Q 384 1609 779 1909 
Q 1175 2209 1959 2209 
L 2766 2209 
L 2766 2266 
Q 2766 2663 2505 2880 
Q 2244 3097 1772 3097 
Q 1472 3097 1187 3025 
Q 903 2953 641 2809 
L 641 3341 
Q 956 3463 1253 3523 
Q 1550 3584 1831 3584 
Q 2591 3584 2966 3190 
Q 3341 2797 3341 1997 
z
" transform="scale(0.015625)"/>
       <path id="DejaVuSans-4f" d="M 603 4863 
L 1178 4863 
L 1178 0 
L 603 0 
L 603 4863 
z
" transform="scale(0.015625)"/>
      </defs>
      <use xlink:href="#DejaVuSans-24"/>
      <use xlink:href="#DejaVuSans-50" transform="translate(68.40625 0)"/>
      <use xlink:href="#DejaVuSans-52" transform="translate(165.8125 0)"/>
      <use xlink:href="#DejaVuSans-58" transform="translate(227 0)"/>
      <use xlink:href="#DejaVuSans-51" transform="translate(290.375 0)"/>
      <use xlink:href="#DejaVuSans-57" transform="translate(353.75 0)"/>
      <use xlink:href="#DejaVuSans-3" transform="translate(392.953125 0)"/>
      <use xlink:href="#DejaVuSans-52" transform="translate(424.734375 0)"/>
      <use xlink:href="#DejaVuSans-49" transform="translate(485.921875 0)"/>
      <use xlink:href="#DejaVuSans-3" transform="translate(521.125 0)"/>
      <use xlink:href="#DejaVuSans-52" transform="translate(552.90625 0)"/>
      <use xlink:href="#DejaVuSans-45" transform="translate(614.09375 0)"/>
      <use xlink:href="#DejaVuSans-4d" transform="translate(677.578125 0)"/>
      <use xlink:href="#DejaVuSans-48" transform="translate(705.359375 0)"/>
      <use xlink:href="#DejaVuSans-46" transform="translate(766.890625 0)"/>
      <use xlink:href="#DejaVuSans-57" transform="translate(821.875 0)"/>
      <use xlink:href="#DejaVuSans-56" transform="translate(861.078125 0)"/>
      <use xlink:href="#DejaVuSans-3" transform="translate(913.171875 0)"/>
      <use xlink:href="#DejaVuSans-4c" transform="translate(944.953125 0)"/>
      <use xlink:href="#DejaVuSans-51" transform="translate(972.734375 0)"/>
      <use xlink:href="#DejaVuSans-3" transform="translate(1036.109375 0)"/>
      <use xlink:href="#DejaVuSans-57" transform="translate(1067.890625 0)"/>
      <use xlink:href="#DejaVuSans-44" transform="translate(1107.09375 0)"/>
      <use xlink:href="#DejaVuSans-45" transform="translate(1168.375 0)"/>
      <use xlink:href="#DejaVuSans-4f" transform="translate(1231.859375 0)"/>
      <use xlink:href="#DejaVuSans-48" transform="translate(1259.640625 0)"/>
     </g>
    </g>
   </g>
   <g id="matplotlib.axis_2">
    <g id="ytick_1">
     <g id="line2d_10">
      <defs>
       <path id="md160c6d644" d="M 0 0 
L -3.5 0 
" style="stroke: #000000; stroke-width: 0.8"/>
      </defs>
      <g>
       <use xlink:href="#md160c6d644" x="65.416406" y="260.498443" style="stroke: #000000; stroke-width: 0.8"/>
      </g>
     </g>
     <g id="text_11">
      <!-- 10 ms -->
      <g transform="translate(27.563281 264.297271) scale(0.1 -0.1)">
       <use xlink:href="#DejaVuSans-14"/>
       <use xlink:href="#DejaVuSans-13" transform="translate(63.625 0)"/>
       <use xlink:href="#DejaVuSans-3" transform="translate(127.25 0)"/>
       <use xlink:href="#DejaVuSans-50" transform="translate(159.03125 0)"/>
       <use xlink:href="#DejaVuSans-56" transform="translate(256.4375 0)"/>
      </g>
     </g>
    </g>
    <g id="ytick_2">
     <g id="line2d_11">
      <g>
       <use xlink:href="#md160c6d644" x="65.416406" y="156.778971" style="stroke: #000000; stroke-width: 0.8"/>
      </g>
     </g>
     <g id="text_12">
      <!-- 100 ms -->
      <g transform="translate(21.200781 160.577799) scale(0.1 -0.1)">
       <use xlink:href="#DejaVuSans-14"/>
       <use xlink:href="#DejaVuSans-13" transform="translate(63.625 0)"/>
       <use xlink:href="#DejaVuSans-13" transform="translate(127.25 0)"/>
       <use xlink:href="#DejaVuSans-3" transform="translate(190.875 0)"/>
       <use xlink:href="#DejaVuSans-50" transform="translate(222.65625 0)"/>
       <use xlink:href="#DejaVuSans-56" transform="translate(320.0625 0)"/>
      </g>
     </g>
    </g>
    <g id="ytick_3">
     <g id="line2d_12">
      <g>
       <use xlink:href="#md160c6d644" x="65.416406" y="53.059499" style="stroke: #000000; stroke-width: 0.8"/>
      </g>
     </g>
     <g id="text_13">
      <!-- 1 s -->
      <g transform="translate(43.666406 56.858327) scale(0.1 -0.1)">
       <use xlink:href="#DejaVuSans-14"/>
       <use xlink:href="#DejaVuSans-3" transform="translate(63.625 0)"/>
       <use xlink:href="#DejaVuSans-56" transform="translate(95.40625 0)"/>
      </g>
     </g>
    </g>
    <g id="ytick_4">
     <g id="line2d_13">
      <defs>
       <path id="m42fb31bb7f" d="M 0 0 
L -2 0 
" style="stroke: #000000; stroke-width: 0.6"/>
      </defs>
      <g>
       <use xlink:href="#m42fb31bb7f" x="65.416406" y="283.508478" style="stroke: #000000; stroke-width: 0.6"/>
      </g>
     </g>
    </g>
    <g id="ytick_5">
     <g id="line2d_14">
      <g>
       <use xlink:href="#m42fb31bb7f" x="65.416406" y="276.564792" style="stroke: #000000; stroke-width: 0.6"/>
      </g>
     </g>
    </g>
    <g id="ytick_6">
     <g id="line2d_15">
      <g>
       <use xlink:href="#m42fb31bb7f" x="65.416406" y="270.549898" style="stroke: #000000; stroke-width: 0.6"/>
      </g>
     </g>
    </g>
    <g id="ytick_7">
     <g id="line2d_16">
      <g>
       <use xlink:href="#m42fb31bb7f" x="65.416406" y="265.244385" style="stroke: #000000; stroke-width: 0.6"/>
      </g>
     </g>
    </g>
    <g id="ytick_8">
     <g id="line2d_17">
      <g>
       <use xlink:href="#m42fb31bb7f" x="65.416406" y="229.27577" style="stroke: #000000; stroke-width: 0.6"/>
      </g>
     </g>
    </g>
    <g id="ytick_9">
     <g id="line2d_18">
      <g>
       <use xlink:href="#m42fb31bb7f" x="65.416406" y="211.011678" style="stroke: #000000; stroke-width: 0.6"/>
      </g>
     </g>
    </g>
    <g id="ytick_10">
     <g id="line2d_19">
      <g>
       <use xlink:href="#m42fb31bb7f" x="65.416406" y="198.053098" style="stroke: #000000; stroke-width: 0.6"/>
      </g>
     </g>
    </g>
    <g id="ytick_11">
     <g id="line2d_20">
      <g>
       <use xlink:href="#m42fb31bb7f" x="65.416406" y="188.001643" style="stroke: #000000; stroke-width: 0.6"/>
      </g>
     </g>
    </g>
    <g id="ytick_12">
     <g id="line2d_21">
      <g>
       <use xlink:href="#m42fb31bb7f" x="65.416406" y="179.789006" style="stroke: #000000; stroke-width: 0.6"/>
      </g>
     </g>
    </g>
    <g id="ytick_13">
     <g id="line2d_22">
      <g>
       <use xlink:href="#m42fb31bb7f" x="65.416406" y="172.84532" style="stroke: #000000; stroke-width: 0.6"/>
      </g>
     </g>
    </g>
    <g id="ytick_14">
     <g id="line2d_23">
      <g>
       <use xlink:href="#m42fb31bb7f" x="65.416406" y="166.830426" style="stroke: #000000; stroke-width: 0.6"/>
      </g>
     </g>
    </g>
    <g id="ytick_15">
     <g id="line2d_24">
      <g>
       <use xlink:href="#m42fb31bb7f" x="65.416406" y="161.524913" style="stroke: #000000; stroke-width: 0.6"/>
      </g>
     </g>
    </g>
    <g id="ytick_16">
     <g id="line2d_25">
      <g>
       <use xlink:href="#m42fb31bb7f" x="65.416406" y="125.556298" style="stroke: #000000; stroke-width: 0.6"/>
      </g>
     </g>
    </g>
    <g id="ytick_17">
     <g id="line2d_26">
      <g>
       <use xlink:href="#m42fb31bb7f" x="65.416406" y="107.292206" style="stroke: #000000; stroke-width: 0.6"/>
      </g>
     </g>
    </g>
    <g id="ytick_18">
     <g id="line2d_27">
      <g>
       <use xlink:href="#m42fb31bb7f" x="65.416406" y="94.333626" style="stroke: #000000; stroke-width: 0.6"/>
      </g>
     </g>
    </g>
    <g id="ytick_19">
     <g id="line2d_28">
      <g>
       <use xlink:href="#m42fb31bb7f" x="65.416406" y="84.282171" style="stroke: #000000; stroke-width: 0.6"/>
      </g>
     </g>
    </g>
    <g id="ytick_20">
     <g id="line2d_29">
      <g>
       <use xlink:href="#m42fb31bb7f" x="65.416406" y="76.069534" style="stroke: #000000; stroke-width: 0.6"/>
      </g>
     </g>
    </g>
    <g id="ytick_21">
     <g id="line2d_30">
      <g>
       <use xlink:href="#m42fb31bb7f" x="65.416406" y="69.125848" style="stroke: #000000; stroke-width: 0.6"/>
      </g>
     </g>
    </g>
    <g id="ytick_22">
     <g id="line2d_31">
      <g>
       <use xlink:href="#m42fb31bb7f" x="65.416406" y="63.110954" style="stroke: #000000; stroke-width: 0.6"/>
      </g>
     </g>
    </g>
    <g id="ytick_23">
     <g id="line2d_32">
      <g>
       <use xlink:href="#m42fb31bb7f" x="65.416406" y="57.805441" style="stroke: #000000; stroke-width: 0.6"/>
      </g>
     </g>
    </g>
    <g id="text_14">
     <!-- Write latency (s) -->
     <g transform="translate(14.798438 196.626469) rotate(-90) scale(0.1 -0.1)">
      <defs>
       <path id="DejaVuSans-3a" d="M 213 4666 
L 850 4666 
L 1831 722 
L 2809 4666 
L 3519 4666 
L 4500 722 
L 5478 4666 
L 6119 4666 
L 4947 0 
L 4153 0 
L 3169 4050 
L 2175 0 
L 1381 0 
L 213 4666 
z
" transform="scale(0.015625)"/>
       <path id="DejaVuSans-55" d="M 2631 2963 
Q 2534 3019 2420 3045 
Q 2306 3072 2169 3072 
Q 1681 3072 1420 2755 
Q 1159 2438 1159 1844 
L 1159 0 
L 581 0 
L 581 3500 
L 1159 3500 
L 1159 2956 
Q 1341 3275 1631 3429 
Q 1922 3584 2338 3584 
Q 2397 3584 2469 3576 
Q 2541 3569 2628 3553 
L 2631 2963 
z
" transform="scale(0.015625)"/>
       <path id="DejaVuSans-5c" d="M 2059 -325 
Q 1816 -950 1584 -1140 
Q 1353 -1331 966 -1331 
L 506 -1331 
L 506 -850 
L 844 -850 
Q 1081 -850 1212 -737 
Q 1344 -625 1503 -206 
L 1606 56 
L 191 3500 
L 800 3500 
L 1894 763 
L 2988 3500 
L 3597 3500 
L 2059 -325 
z
" transform="scale(0.015625)"/>
       <path id="DejaVuSans-b" d="M 1984 4856 
Q 1566 4138 1362 3434 
Q 1159 2731 1159 2009 
Q 1159 1288 1364 580 
Q 1569 -128 1984 -844 
L 1484 -844 
Q 1016 -109 783 600 
Q 550 1309 550 2009 
Q 550 2706 781 3412 
Q 1013 4119 1484 4856 
L 1984 4856 
z
" transform="scale(0.015625)"/>
       <path id="DejaVuSans-c" d="M 513 4856 
L 1013 4856 
Q 1481 4119 1714 3412 
Q 1947 2706 1947 2009 
Q 1947 1309 1714 600 
Q 1481 -109 1013 -844 
L 513 -844 
Q 928 -128 1133 580 
Q 1338 1288 1338 2009 
Q 1338 2731 1133 3434 
Q 928 4138 513 4856 
z
" transform="scale(0.015625)"/>
      </defs>
      <use xlink:href="#DejaVuSans-3a"/>
      <use xlink:href="#DejaVuSans-55" transform="translate(94.390625 0)"/>
      <use xlink:href="#DejaVuSans-4c" transform="translate(135.5 0)"/>
      <use xlink:href="#DejaVuSans-57" transform="translate(163.28125 0)"/>
      <use xlink:href="#DejaVuSans-48" transform="translate(202.484375 0)"/>
      <use xlink:href="#DejaVuSans-3" transform="translate(264.015625 0)"/>
      <use xlink:href="#DejaVuSans-4f" transform="translate(295.796875 0)"/>
      <use xlink:href="#DejaVuSans-44" transform="translate(323.578125 0)"/>
      <use xlink:href="#DejaVuSans-57" transform="translate(384.859375 0)"/>
      <use xlink:href="#DejaVuSans-48" transform="translate(424.0625 0)"/>
      <use xlink:href="#DejaVuSans-51" transform="translate(485.59375 0)"/>
      <use xlink:href="#DejaVuSans-46" transform="translate(548.96875 0)"/>
      <use xlink:href="#DejaVuSans-5c" transform="translate(603.953125 0)"/>
      <use xlink:href="#DejaVuSans-3" transform="translate(663.140625 0)"/>
      <use xlink:href="#DejaVuSans-b" transform="translate(694.921875 0)"/>
      <use xlink:href="#DejaVuSans-56" transform="translate(733.9375 0)"/>
      <use xlink:href="#DejaVuSans-c" transform="translate(786.03125 0)"/>
     </g>
    </g>
   </g>
   <g id="line2d_33">
    <path d="M 152.513534 129.837107 
L 161.223247 123.060608 
L 169.93296 119.019693 
L 178.642673 112.26478 
L 187.352386 107.679183 
L 196.062099 103.361605 
L 204.771811 97.883767 
L 213.481524 93.65819 
L 222.191237 90.205471 
L 230.90095 86.429989 
L 239.610663 83.361259 
L 248.320376 79.944521 
L 257.030088 76.378657 
L 265.739801 73.584351 
L 274.449514 70.736423 
L 283.159227 67.94919 
L 291.86894 65.787338 
L 300.578652 63.686813 
L 309.288365 61.317943 
L 317.998078 59.059218 
L 326.707791 57.049302 
L 335.417504 55.016294 
L 344.127217 53.265356 
L 352.836929 51.469844 
L 361.546642 49.492468 
L 370.256355 47.840727 
L 378.966068 46.442235 
L 387.675781 44.76484 
L 396.385494 43.115865 
L 405.095206 42.161356 
L 405.530692 40.582217 
" clip-path="url(#p2f1c398810)" style="fill: none; stroke: #1f77b4; stroke-opacity: 0.8; stroke-width: 1.5; stroke-linecap: square"/>
   </g>
   <g id="line2d_34">
    <path d="M 152.513534 270.166033 
L 161.223247 263.690447 
L 169.93296 257.88865 
L 178.642673 253.223982 
L 187.352386 249.273248 
L 196.062099 247.416838 
L 204.771811 244.037293 
L 213.481524 240.122324 
L 222.191237 236.443572 
L 230.90095 232.833604 
L 239.610663 229.132668 
L 248.320376 226.303242 
L 257.030088 223.641845 
L 265.739801 221.521075 
L 274.449514 218.224476 
L 283.159227 205.986089 
L 291.86894 203.412773 
L 300.578652 202.226474 
L 309.288365 200.741753 
L 317.998078 199.376796 
L 326.707791 198.324674 
L 335.417504 197.461271 
L 344.127217 196.526946 
L 352.836929 195.47007 
L 361.546642 195.086301 
L 370.256355 201.484399 
L 378.966068 200.937775 
L 387.675781 199.671256 
L 396.385494 198.679047 
L 405.095206 197.290945 
L 405.530692 196.117771 
" clip-path="url(#p2f1c398810)" style="fill: none; stroke: #ff7f0e; stroke-opacity: 0.8; stroke-width: 1.5; stroke-linecap: square"/>
   </g>
   <g id="line2d_35">
    <path d="M 152.513534 162.607653 
L 161.223247 154.306148 
L 169.93296 148.105183 
L 178.642673 141.411381 
L 187.352386 135.872193 
L 196.062099 131.281326 
L 204.771811 127.337354 
L 213.481524 123.055335 
L 222.191237 118.937599 
L 230.90095 115.034153 
L 239.610663 112.15292 
L 248.320376 110.049574 
L 257.030088 107.057964 
L 265.739801 105.217555 
L 274.449514 103.033548 
L 283.159227 100.813893 
L 291.86894 98.489942 
L 300.578652 96.680244 
L 309.288365 95.89716 
L 317.998078 93.339882 
L 326.707791 90.774975 
L 335.417504 89.646428 
L 344.127217 88.532411 
L 352.836929 86.410558 
L 361.546642 84.634231 
L 370.256355 83.330519 
L 378.966068 82.477453 
L 387.675781 81.3332 
L 396.385494 79.732933 
L 405.095206 79.828422 
L 405.530692 79.248101 
" clip-path="url(#p2f1c398810)" style="fill: none; stroke: #2ca02c; stroke-opacity: 0.8; stroke-width: 1.5; stroke-linecap: square"/>
   </g>
   <g id="line2d_36">
    <path d="M 152.513534 145.275019 
L 161.223247 138.497598 
L 169.93296 132.682276 
L 178.642673 126.755894 
L 187.352386 122.104312 
L 196.062099 118.431914 
L 204.771811 113.862666 
L 213.481524 109.910154 
L 222.191237 106.68881 
L 230.90095 104.563596 
L 239.610663 101.544645 
L 248.320376 97.568839 
L 257.030088 95.363156 
L 265.739801 92.51176 
L 274.449514 90.076942 
L 283.159227 87.560572 
L 291.86894 85.761553 
L 300.578652 83.486822 
L 309.288365 80.748024 
L 317.998078 79.086855 
L 326.707791 76.908528 
L 335.417504 75.322787 
L 344.127217 73.031985 
L 352.836929 71.852224 
L 361.546642 69.214997 
L 370.256355 67.260761 
L 378.966068 65.327688 
L 387.675781 64.558047 
L 396.385494 64.172703 
L 405.095206 62.761934 
L 405.530692 61.541896 
" clip-path="url(#p2f1c398810)" style="fill: none; stroke: #d62728; stroke-opacity: 0.8; stroke-width: 1.5; stroke-linecap: square"/>
   </g>
   <g id="line2d_37">
    <path d="M 152.513534 196.624068 
L 161.223247 184.673865 
L 169.93296 174.154749 
L 178.642673 164.398448 
L 187.352386 155.453185 
L 196.062099 147.531468 
L 204.771811 140.193893 
L 213.481524 133.891311 
L 222.191237 127.374413 
L 230.90095 121.565482 
L 239.610663 116.259096 
L 248.320376 111.540741 
L 257.030088 106.771189 
L 265.739801 101.81852 
L 274.449514 97.130723 
L 283.159227 91.748456 
L 291.86894 87.684988 
L 300.578652 83.796509 
L 309.288365 79.976005 
L 317.998078 76.3575 
L 326.707791 73.041297 
L 335.417504 69.325913 
L 344.127217 66.607382 
L 352.836929 63.457591 
L 361.546642 60.281536 
L 370.256355 57.65238 
L 378.966068 54.913826 
L 387.675781 52.676603 
L 396.385494 50.435588 
L 405.095206 48.425642 
L 405.530692 46.611207 
" clip-path="url(#p2f1c398810)" style="fill: none; stroke: #9467bd; stroke-opacity: 0.8; stroke-width: 1.5; stroke-linecap: square"/>
   </g>
   <g id="line2d_38">
    <path d="M 152.513534 167.349685 
L 161.223247 160.208609 
L 169.93296 154.501592 
L 178.642673 148.768014 
L 187.352386 144.091457 
L 196.062099 139.814669 
L 204.771811 135.280827 
L 213.481524 131.190692 
L 222.191237 127.773596 
L 230.90095 124.864498 
L 239.610663 121.895309 
L 248.320376 118.718507 
L 257.030088 115.782337 
L 265.739801 113.537185 
L 274.449514 111.009592 
L 283.159227 107.599763 
L 291.86894 105.692804 
L 300.578652 104.089171 
L 309.288365 102.503096 
L 317.998078 100.686728 
L 326.707791 98.822055 
L 335.417504 97.445849 
L 344.127217 96.04872 
L 352.836929 93.731101 
L 361.546642 92.52778 
L 370.256355 91.845745 
L 378.966068 90.760928 
L 387.675781 89.225597 
L 396.385494 86.523975 
L 405.095206 85.217845 
L 405.530692 83.720072 
" clip-path="url(#p2f1c398810)" style="fill: none; stroke: #8c564b; stroke-opacity: 0.8; stroke-width: 1.5; stroke-linecap: square"/>
   </g>
   <g id="line2d_39">
    <path d="M 152.513534 186.93226 
L 161.223247 177.878024 
L 169.93296 170.788924 
L 178.642673 167.428151 
L 187.352386 161.267871 
L 196.062099 158.492868 
L 204.771811 153.539815 
L 213.481524 150.566554 
L 222.191237 144.235422 
L 230.90095 141.913055 
L 239.610663 139.165479 
L 248.320376 135.623096 
L 257.030088 133.724642 
L 265.739801 129.925599 
L 274.449514 126.958135 
L 283.159227 123.855408 
L 291.86894 121.722513 
L 300.578652 119.626865 
L 309.288365 117.751693 
L 317.998078 115.461365 
L 326.707791 112.900143 
L 335.417504 110.977937 
L 344.127217 108.653491 
L 352.836929 106.679917 
L 361.546642 104.445854 
L 370.256355 103.186507 
L 378.966068 101.289203 
L 387.675781 99.435358 
L 396.385494 98.966068 
L 405.095206 96.901855 
L 405.530692 96.304099 
" clip-path="url(#p2f1c398810)" style="fill: none; stroke: #e377c2; stroke-opacity: 0.8; stroke-width: 1.5; stroke-linecap: square"/>
   </g>
   <g id="patch_3">
    <path d="M 65.416406 288.430125 
L 65.416406 22.318125 
" style="fill: none; stroke: #000000; stroke-width: 0.8; stroke-linejoin: miter; stroke-linecap: square"/>
   </g>
   <g id="patch_4">
    <path d="M 422.536406 288.430125 
L 422.536406 22.318125 
" style="fill: none; stroke: #000000; stroke-width: 0.8; stroke-linejoin: miter; stroke-linecap: square"/>
   </g>
   <g id="patch_5">
    <path d="M 65.416406 288.430125 
L 422.536406 288.430125 
" style="fill: none; stroke: #000000; stroke-width: 0.8; stroke-linejoin: miter; stroke-linecap: square"/>
   </g>
   <g id="patch_6">
    <path d="M 65.416406 22.318125 
L 422.536406 22.318125 
" style="fill: none; stroke: #000000; stroke-width: 0.8; stroke-linejoin: miter; stroke-linecap: square"/>
   </g>
   <g id="text_15">
    <!-- Rebuild paths -->
    <g transform="translate(202.957031 16.318125) scale(0.12 -0.12)">
     <defs>
      <path id="DejaVuSans-35" d="M 2841 2188 
Q 3044 2119 3236 1894 
Q 3428 1669 3622 1275 
L 4263 0 
L 3584 0 
L 2988 1197 
Q 2756 1666 2539 1819 
Q 2322 1972 1947 1972 
L 1259 1972 
L 1259 0 
L 628 0 
L 628 4666 
L 2053 4666 
Q 2853 4666 3247 4331 
Q 3641 3997 3641 3322 
Q 3641 2881 3436 2590 
Q 3231 2300 2841 2188 
z
M 1259 4147 
L 1259 2491 
L 2053 2491 
Q 2509 2491 2742 2702 
Q 2975 2913 2975 3322 
Q 2975 3731 2742 3939 
Q 2509 4147 2053 4147 
L 1259 4147 
z
" transform="scale(0.015625)"/>
      <path id="DejaVuSans-47" d="M 2906 2969 
L 2906 4863 
L 3481 4863 
L 3481 0 
L 2906 0 
L 2906 525 
Q 2725 213 2448 61 
Q 2172 -91 1784 -91 
Q 1150 -91 751 415 
Q 353 922 353 1747 
Q 353 2572 751 3078 
Q 1150 3584 1784 3584 
Q 2172 3584 2448 3432 
Q 2725 3281 2906 2969 
z
M 947 1747 
Q 947 1113 1208 752 
Q 1469 391 1925 391 
Q 2381 391 2643 752 
Q 2906 1113 2906 1747 
Q 2906 2381 2643 2742 
Q 2381 3103 1925 3103 
Q 1469 3103 1208 2742 
Q 947 2381 947 1747 
z
" transform="scale(0.015625)"/>
      <path id="DejaVuSans-53" d="M 1159 525 
L 1159 -1331 
L 581 -1331 
L 581 3500 
L 1159 3500 
L 1159 2969 
Q 1341 3281 1617 3432 
Q 1894 3584 2278 3584 
Q 2916 3584 3314 3078 
Q 3713 2572 3713 1747 
Q 3713 922 3314 415 
Q 2916 -91 2278 -91 
Q 1894 -91 1617 61 
Q 1341 213 1159 525 
z
M 3116 1747 
Q 3116 2381 2855 2742 
Q 2594 3103 2138 3103 
Q 1681 3103 1420 2742 
Q 1159 2381 1159 1747 
Q 1159 1113 1420 752 
Q 1681 391 2138 391 
Q 2594 391 2855 752 
Q 3116 1113 3116 1747 
z
" transform="scale(0.015625)"/>
      <path id="DejaVuSans-4b" d="M 3513 2113 
L 3513 0 
L 2938 0 
L 2938 2094 
Q 2938 2591 2744 2837 
Q 2550 3084 2163 3084 
Q 1697 3084 1428 2787 
Q 1159 2491 1159 1978 
L 1159 0 
L 581 0 
L 581 4863 
L 1159 4863 
L 1159 2956 
Q 1366 3272 1645 3428 
Q 1925 3584 2291 3584 
Q 2894 3584 3203 3211 
Q 3513 2838 3513 2113 
z
" transform="scale(0.015625)"/>
     </defs>
     <use xlink:href="#DejaVuSans-35"/>
     <use xlink:href="#DejaVuSans-48" transform="translate(65 0)"/>
     <use xlink:href="#DejaVuSans-45" transform="translate(126.53125 0)"/>
     <use xlink:href="#DejaVuSans-58" transform="translate(190.015625 0)"/>
     <use xlink:href="#DejaVuSans-4c" transform="translate(253.390625 0)"/>
     <use xlink:href="#DejaVuSans-4f" transform="translate(281.171875 0)"/>
     <use xlink:href="#DejaVuSans-47" transform="translate(308.953125 0)"/>
     <use xlink:href="#DejaVuSans-3" transform="translate(372.4375 0)"/>
     <use xlink:href="#DejaVuSans-53" transform="translate(404.21875 0)"/>
     <use xlink:href="#DejaVuSans-44" transform="translate(467.703125 0)"/>
     <use xlink:href="#DejaVuSans-57" transform="translate(528.984375 0)"/>
     <use xlink:href="#DejaVuSans-4b" transform="translate(568.1875 0)"/>
     <use xlink:href="#DejaVuSans-56" transform="translate(631.5625 0)"/>
    </g>
   </g>
   <g id="legend_1">
    <g id="patch_7">
     <path d="M 79.355469 381.448469 
L 401.077344 381.448469 
Q 403.077344 381.448469 403.077344 379.448469 
L 403.077344 335.446125 
Q 403.077344 333.446125 401.077344 333.446125 
L 79.355469 333.446125 
Q 77.355469 333.446125 77.355469 335.446125 
L 77.355469 379.448469 
Q 77.355469 381.448469 79.355469 381.448469 
z
" style="fill: #4d4d4d; opacity: 0.5; stroke: #4d4d4d; stroke-linejoin: miter"/>
    </g>
    <g id="patch_8">
     <path d="M 77.355469 379.448469 
L 399.077344 379.448469 
Q 401.077344 379.448469 401.077344 377.448469 
L 401.077344 333.446125 
Q 401.077344 331.446125 399.077344 331.446125 
L 77.355469 331.446125 
Q 75.355469 331.446125 75.355469 333.446125 
L 75.355469 377.448469 
Q 75.355469 379.448469 77.355469 379.448469 
z
" style="fill: #ffffff; stroke: #cccccc; stroke-linejoin: miter"/>
    </g>
    <g id="line2d_40">
     <path d="M 79.355469 339.544562 
L 89.355469 339.544562 
L 99.355469 339.544562 
" style="fill: none; stroke: #1f77b4; stroke-opacity: 0.8; stroke-width: 1.5; stroke-linecap: square"/>
    </g>
    <g id="text_16">
     <!-- MPTT -->
     <g transform="translate(107.355469 343.044562) scale(0.1 -0.1)">
      <defs>
       <path id="DejaVuSans-30" d="M 628 4666 
L 1569 4666 
L 2759 1491 
L 3956 4666 
L 4897 4666 
L 4897 0 
L 4281 0 
L 4281 4097 
L 3078 897 
L 2444 897 
L 1241 4097 
L 1241 0 
L 628 0 
L 628 4666 
z
" transform="scale(0.015625)"/>
       <path id="DejaVuSans-33" d="M 1259 4147 
L 1259 2394 
L 2053 2394 
Q 2494 2394 2734 2622 
Q 2975 2850 2975 3272 
Q 2975 3691 2734 3919 
Q 2494 4147 2053 4147 
L 1259 4147 
z
M 628 4666 
L 2053 4666 
Q 2838 4666 3239 4311 
Q 3641 3956 3641 3272 
Q 3641 2581 3239 2228 
Q 2838 1875 2053 1875 
L 1259 1875 
L 1259 0 
L 628 0 
L 628 4666 
z
" transform="scale(0.015625)"/>
       <path id="DejaVuSans-37" d="M -19 4666 
L 3928 4666 
L 3928 4134 
L 2272 4134 
L 2272 0 
L 1638 0 
L 1638 4134 
L -19 4134 
L -19 4666 
z
" transform="scale(0.015625)"/>
      </defs>
      <use xlink:href="#DejaVuSans-30"/>
      <use xlink:href="#DejaVuSans-33" transform="translate(86.28125 0)"/>
      <use xlink:href="#DejaVuSans-37" transform="translate(146.578125 0)"/>
      <use xlink:href="#DejaVuSans-37" transform="translate(205.90625 0)"/>
     </g>
    </g>
    <g id="line2d_41">
     <path d="M 79.355469 354.545344 
L 89.355469 354.545344 
L 99.355469 354.545344 
" style="fill: none; stroke: #ff7f0e; stroke-opacity: 0.8; stroke-width: 1.5; stroke-linecap: square"/>
    </g>
    <g id="text_17">
     <!-- tree -->
     <g transform="translate(107.355469 358.045344) scale(0.1 -0.1)">
      <use xlink:href="#DejaVuSans-57"/>
      <use xlink:href="#DejaVuSans-55" transform="translate(39.203125 0)"/>
      <use xlink:href="#DejaVuSans-48" transform="translate(78.109375 0)"/>
      <use xlink:href="#DejaVuSans-48" transform="translate(139.640625 0)"/>
     </g>
    </g>
    <g id="line2d_42">
     <path d="M 79.355469 369.546125 
L 89.355469 369.546125 
L 99.355469 369.546125 
" style="fill: none; stroke: #2ca02c; stroke-opacity: 0.8; stroke-width: 1.5; stroke-linecap: square"/>
    </g>
    <g id="text_18">
     <!-- tree-queries -->
     <g transform="translate(107.355469 373.046125) scale(0.1 -0.1)">
      <defs>
       <path id="DejaVuSans-10" d="M 313 2009 
L 1997 2009 
L 1997 1497 
L 313 1497 
L 313 2009 
z
" transform="scale(0.015625)"/>
       <path id="DejaVuSans-54" d="M 947 1747 
Q 947 1113 1208 752 
Q 1469 391 1925 391 
Q 2381 391 2643 752 
Q 2906 1113 2906 1747 
Q 2906 2381 2643 2742 
Q 2381 3103 1925 3103 
Q 1469 3103 1208 2742 
Q 947 2381 947 1747 
z
M 2906 525 
Q 2725 213 2448 61 
Q 2172 -91 1784 -91 
Q 1150 -91 751 415 
Q 353 922 353 1747 
Q 353 2572 751 3078 
Q 1150 3584 1784 3584 
Q 2172 3584 2448 3432 
Q 2725 3281 2906 2969 
L 2906 3500 
L 3481 3500 
L 3481 -1331 
L 2906 -1331 
L 2906 525 
z
" transform="scale(0.015625)"/>
      </defs>
      <use xlink:href="#DejaVuSans-57"/>
      <use xlink:href="#DejaVuSans-55" transform="translate(39.203125 0)"/>
      <use xlink:href="#DejaVuSans-48" transform="translate(78.109375 0)"/>
      <use xlink:href="#DejaVuSans-48" transform="translate(139.640625 0)"/>
      <use xlink:href="#DejaVuSans-10" transform="translate(201.171875 0)"/>
      <use xlink:href="#DejaVuSans-54" transform="translate(237.25 0)"/>
      <use xlink:href="#DejaVuSans-58" transform="translate(300.734375 0)"/>
      <use xlink:href="#DejaVuSans-48" transform="translate(364.109375 0)"/>
      <use xlink:href="#DejaVuSans-55" transform="translate(425.640625 0)"/>
      <use xlink:href="#DejaVuSans-4c" transform="translate(466.75 0)"/>
      <use xlink:href="#DejaVuSans-48" transform="translate(494.53125 0)"/>
      <use xlink:href="#DejaVuSans-56" transform="translate(556.0625 0)"/>
     </g>
    </g>
    <g id="line2d_43">
     <path d="M 188.171094 339.544562 
L 198.171094 339.544562 
L 208.171094 339.544562 
" style="fill: none; stroke: #d62728; stroke-opacity: 0.8; stroke-width: 1.5; stroke-linecap: square"/>
    </g>
    <g id="text_19">
     <!-- treebeard AL -->
     <g transform="translate(216.171094 343.044562) scale(0.1 -0.1)">
      <defs>
       <path id="DejaVuSans-2f" d="M 628 4666 
L 1259 4666 
L 1259 531 
L 3531 531 
L 3531 0 
L 628 0 
L 628 4666 
z
" transform="scale(0.015625)"/>
      </defs>
      <use xlink:href="#DejaVuSans-57"/>
      <use xlink:href="#DejaVuSans-55" transform="translate(39.203125 0)"/>
      <use xlink:href="#DejaVuSans-48" transform="translate(78.109375 0)"/>
      <use xlink:href="#DejaVuSans-48" transform="translate(139.640625 0)"/>
      <use xlink:href="#DejaVuSans-45" transform="translate(201.171875 0)"/>
      <use xlink:href="#DejaVuSans-48" transform="translate(264.65625 0)"/>
      <use xlink:href="#DejaVuSans-44" transform="translate(326.1875 0)"/>
      <use xlink:href="#DejaVuSans-55" transform="translate(387.46875 0)"/>
      <use xlink:href="#DejaVuSans-47" transform="translate(426.828125 0)"/>
      <use xlink:href="#DejaVuSans-3" transform="translate(490.3125 0)"/>
      <use xlink:href="#DejaVuSans-24" transform="translate(522.09375 0)"/>
      <use xlink:href="#DejaVuSans-2f" transform="translate(590.5 0)"/>
     </g>
    </g>
    <g id="line2d_44">
     <path d="M 188.171094 354.545344 
L 198.171094 354.545344 
L 208.171094 354.545344 
" style="fill: none; stroke: #9467bd; stroke-opacity: 0.8; stroke-width: 1.5; stroke-linecap: square"/>
    </g>
    <g id="text_20">
     <!-- treebeard MP -->
     <g transform="translate(216.171094 358.045344) scale(0.1 -0.1)">
      <use xlink:href="#DejaVuSans-57"/>
      <use xlink:href="#DejaVuSans-55" transform="translate(39.203125 0)"/>
      <use xlink:href="#DejaVuSans-48" transform="translate(78.109375 0)"/>
      <use xlink:href="#DejaVuSans-48" transform="translate(139.640625 0)"/>
      <use xlink:href="#DejaVuSans-45" transform="translate(201.171875 0)"/>
      <use xlink:href="#DejaVuSans-48" transform="translate(264.65625 0)"/>
      <use xlink:href="#DejaVuSans-44" transform="translate(326.1875 0)"/>
      <use xlink:href="#DejaVuSans-55" transform="translate(387.46875 0)"/>
      <use xlink:href="#DejaVuSans-47" transform="translate(426.828125 0)"/>
      <use xlink:href="#DejaVuSans-3" transform="translate(490.3125 0)"/>
      <use xlink:href="#DejaVuSans-30" transform="translate(522.09375 0)"/>
      <use xlink:href="#DejaVuSans-33" transform="translate(608.375 0)"/>
     </g>
    </g>
    <g id="line2d_45">
     <path d="M 303.038281 339.544562 
L 313.038281 339.544562 
L 323.038281 339.544562 
" style="fill: none; stroke: #8c564b; stroke-opacity: 0.8; stroke-width: 1.5; stroke-linecap: square"/>
    </g>
    <g id="text_21">
     <!-- treebeard NS -->
     <g transform="translate(331.038281 343.044562) scale(0.1 -0.1)">
      <defs>
       <path id="DejaVuSans-31" d="M 628 4666 
L 1478 4666 
L 3547 763 
L 3547 4666 
L 4159 4666 
L 4159 0 
L 3309 0 
L 1241 3903 
L 1241 0 
L 628 0 
L 628 4666 
z
" transform="scale(0.015625)"/>
       <path id="DejaVuSans-36" d="M 3425 4513 
L 3425 3897 
Q 3066 4069 2747 4153 
Q 2428 4238 2131 4238 
Q 1616 4238 1336 4038 
Q 1056 3838 1056 3469 
Q 1056 3159 1242 3001 
Q 1428 2844 1947 2747 
L 2328 2669 
Q 3034 2534 3370 2195 
Q 3706 1856 3706 1288 
Q 3706 609 3251 259 
Q 2797 -91 1919 -91 
Q 1588 -91 1214 -16 
Q 841 59 441 206 
L 441 856 
Q 825 641 1194 531 
Q 1563 422 1919 422 
Q 2459 422 2753 634 
Q 3047 847 3047 1241 
Q 3047 1584 2836 1778 
Q 2625 1972 2144 2069 
L 1759 2144 
Q 1053 2284 737 2584 
Q 422 2884 422 3419 
Q 422 4038 858 4394 
Q 1294 4750 2059 4750 
Q 2388 4750 2728 4690 
Q 3069 4631 3425 4513 
z
" transform="scale(0.015625)"/>
      </defs>
      <use xlink:href="#DejaVuSans-57"/>
      <use xlink:href="#DejaVuSans-55" transform="translate(39.203125 0)"/>
      <use xlink:href="#DejaVuSans-48" transform="translate(78.109375 0)"/>
      <use xlink:href="#DejaVuSans-48" transform="translate(139.640625 0)"/>
      <use xlink:href="#DejaVuSans-45" transform="translate(201.171875 0)"/>
      <use xlink:href="#DejaVuSans-48" transform="translate(264.65625 0)"/>
      <use xlink:href="#DejaVuSans-44" transform="translate(326.1875 0)"/>
      <use xlink:href="#DejaVuSans-55" transform="translate(387.46875 0)"/>
      <use xlink:href="#DejaVuSans-47" transform="translate(426.828125 0)"/>
      <use xlink:href="#DejaVuSans-3" transform="translate(490.3125 0)"/>
      <use xlink:href="#DejaVuSans-31" transform="translate(522.09375 0)"/>
      <use xlink:href="#DejaVuSans-36" transform="translate(596.90625 0)"/>
     </g>
    </g>
    <g id="line2d_46">
     <path d="M 303.038281 354.545344 
L 313.038281 354.545344 
L 323.038281 354.545344 
" style="fill: none; stroke: #e377c2; stroke-opacity: 0.8; stroke-width: 1.5; stroke-linecap: square"/>
    </g>
    <g id="text_22">
     <!-- treenode -->
     <g transform="translate(331.038281 358.045344) scale(0.1 -0.1)">
      <use xlink:href="#DejaVuSans-57"/>
      <use xlink:href="#DejaVuSans-55" transform="translate(39.203125 0)"/>
      <use xlink:href="#DejaVuSans-48" transform="translate(78.109375 0)"/>
      <use xlink:href="#DejaVuSans-48" transform="translate(139.640625 0)"/>
      <use xlink:href="#DejaVuSans-51" transform="translate(201.171875 0)"/>
      <use xlink:href="#DejaVuSans-52" transform="translate(264.546875 0)"/>
      <use xlink:href="#DejaVuSans-47" transform="translate(325.734375 0)"/>
      <use xlink:href="#DejaVuSans-48" transform="translate(389.21875 0)"/>
     </g>
    </g>
   </g>
  </g>
 </g>
 <defs>
  <clipPath id="p2f1c398810">
   <rect x="65.416406" y="22.318125" width="357.12" height="266.112"/>
  </clipPath>
 </defs>
</svg>
