<?xml version="1.0" encoding="utf-8" standalone="no"?>
<!DOCTYPE svg PUBLIC "-//W3C//DTD SVG 1.1//EN"
  "http://www.w3.org/Graphics/SVG/1.1/DTD/svg11.dtd">
<svg xmlns:xlink="http://www.w3.org/1999/xlink" width="426.035625pt" height="371.002375pt" viewBox="0 0 426.035625 371.002375" xmlns="http://www.w3.org/2000/svg" version="1.1">
 <metadata>
  <rdf:RDF xmlns:dc="http://purl.org/dc/elements/1.1/" xmlns:cc="http://creativecommons.org/ns#" xmlns:rdf="http://www.w3.org/1999/02/22-rdf-syntax-ns#">
   <cc:Work>
    <dc:type rdf:resource="http://purl.org/dc/dcmitype/StillImage"/>
    <dc:date>2026-06-28T20:25:07.110501</dc:date>
    <dc:format>image/svg+xml</dc:format>
    <dc:creator>
     <cc:Agent>
      <dc:title>Matplotlib v3.10.6, https://matplotlib.org/</dc:title>
     </cc:Agent>
    </dc:creator>
   </cc:Work>
  </rdf:RDF>
 </metadata>
 <defs>
  <style type="text/css">*{stroke-linejoin: round; stroke-linecap: butt}</style>
 </defs>
 <g id="figure_1">
  <g id="patch_1">
   <path d="M 0 371.002375 
L 426.035625 371.002375 
L 426.035625 0 
L 0 0 
z
" style="fill: #ffffff"/>
  </g>
  <g id="axes_1">
   <g id="patch_2">
    <path d="M 61.715625 288.430125 
L 418.835625 288.430125 
L 418.835625 22.318125 
L 61.715625 22.318125 
z
" style="fill: #ffffff"/>
   </g>
   <g id="matplotlib.axis_1">
    <g id="xtick_1">
     <g id="line2d_1">
      <defs>
       <path id="m779c43430d" d="M 0 0 
L 0 3.5 
" style="stroke: #000000; stroke-width: 0.8"/>
      </defs>
      <g>
       <use xlink:href="#m779c43430d" x="61.715625" y="288.430125" style="stroke: #000000; stroke-width: 0.8"/>
      </g>
     </g>
     <g id="text_1">
      <!-- 0 -->
      <g transform="translate(58.534375 303.028562) scale(0.1 -0.1)">
       <defs>
        <path id="DejaVuSans-30" d="M 2034 4250 
Q 1547 4250 1301 3770 
Q 1056 3291 1056 2328 
Q 1056 1369 1301 889 
Q 1547 409 2034 409 
Q 2525 409 2770 889 
Q 3016 1369 3016 2328 
Q 3016 3291 2770 3770 
Q 2525 4250 2034 4250 
z
M 2034 4750 
Q 2819 4750 3233 4129 
Q 3647 3509 3647 2328 
Q 3647 1150 3233 529 
Q 2819 -91 2034 -91 
Q 1250 -91 836 529 
Q 422 1150 422 2328 
Q 422 3509 836 4129 
Q 1250 4750 2034 4750 
z
" transform="scale(0.015625)"/>
       </defs>
       <use xlink:href="#DejaVuSans-30"/>
      </g>
     </g>
    </g>
    <g id="xtick_2">
     <g id="line2d_2">
      <g>
       <use xlink:href="#m779c43430d" x="105.264189" y="288.430125" style="stroke: #000000; stroke-width: 0.8"/>
      </g>
     </g>
     <g id="text_2">
      <!-- 500  -->
      <g transform="translate(94.131377 303.028562) scale(0.1 -0.1)">
       <defs>
        <path id="DejaVuSans-35" d="M 691 4666 
L 3169 4666 
L 3169 4134 
L 1269 4134 
L 1269 2991 
Q 1406 3038 1543 3061 
Q 1681 3084 1819 3084 
Q 2600 3084 3056 2656 
Q 3513 2228 3513 1497 
Q 3513 744 3044 326 
Q 2575 -91 1722 -91 
Q 1428 -91 1123 -41 
Q 819 9 494 109 
L 494 744 
Q 775 591 1075 516 
Q 1375 441 1709 441 
Q 2250 441 2565 725 
Q 2881 1009 2881 1497 
Q 2881 1984 2565 2268 
Q 2250 2553 1709 2553 
Q 1456 2553 1204 2497 
Q 953 2441 691 2322 
L 691 4666 
z
" transform="scale(0.015625)"/>
        <path id="DejaVuSans-20" transform="scale(0.015625)"/>
       </defs>
       <use xlink:href="#DejaVuSans-35"/>
       <use xlink:href="#DejaVuSans-30" transform="translate(63.623047 0)"/>
       <use xlink:href="#DejaVuSans-30" transform="translate(127.246094 0)"/>
       <use xlink:href="#DejaVuSans-20" transform="translate(190.869141 0)"/>
      </g>
     </g>
    </g>
    <g id="xtick_3">
     <g id="line2d_3">
      <g>
       <use xlink:href="#m779c43430d" x="148.812753" y="288.430125" style="stroke: #000000; stroke-width: 0.8"/>
      </g>
     </g>
     <g id="text_3">
      <!-- 1 k -->
      <g transform="translate(141.147128 303.028562) scale(0.1 -0.1)">
       <defs>
        <path id="DejaVuSans-31" d="M 794 531 
L 1825 531 
L 1825 4091 
L 703 3866 
L 703 4441 
L 1819 4666 
L 2450 4666 
L 2450 531 
L 3481 531 
L 3481 0 
L 794 0 
L 794 531 
z
" transform="scale(0.015625)"/>
        <path id="DejaVuSans-6b" d="M 581 4863 
L 1159 4863 
L 1159 1991 
L 2875 3500 
L 3609 3500 
L 1753 1863 
L 3688 0 
L 2938 0 
L 1159 1709 
L 1159 0 
L 581 0 
L 581 4863 
z
" transform="scale(0.015625)"/>
       </defs>
       <use xlink:href="#DejaVuSans-31"/>
       <use xlink:href="#DejaVuSans-20" transform="translate(63.623047 0)"/>
       <use xlink:href="#DejaVuSans-6b" transform="translate(95.410156 0)"/>
      </g>
     </g>
    </g>
    <g id="xtick_4">
     <g id="line2d_4">
      <g>
       <use xlink:href="#m779c43430d" x="192.361317" y="288.430125" style="stroke: #000000; stroke-width: 0.8"/>
      </g>
     </g>
     <g id="text_4">
      <!-- 1.5 k -->
      <g transform="translate(179.92538 303.028562) scale(0.1 -0.1)">
       <defs>
        <path id="DejaVuSans-2e" d="M 684 794 
L 1344 794 
L 1344 0 
L 684 0 
L 684 794 
z
" transform="scale(0.015625)"/>
       </defs>
       <use xlink:href="#DejaVuSans-31"/>
       <use xlink:href="#DejaVuSans-2e" transform="translate(63.623047 0)"/>
       <use xlink:href="#DejaVuSans-35" transform="translate(95.410156 0)"/>
       <use xlink:href="#DejaVuSans-20" transform="translate(159.033203 0)"/>
       <use xlink:href="#DejaVuSans-6b" transform="translate(190.820312 0)"/>
      </g>
     </g>
    </g>
    <g id="xtick_5">
     <g id="line2d_5">
      <g>
       <use xlink:href="#m779c43430d" x="235.909881" y="288.430125" style="stroke: #000000; stroke-width: 0.8"/>
      </g>
     </g>
     <g id="text_5">
      <!-- 2 k -->
      <g transform="translate(228.244256 303.028562) scale(0.1 -0.1)">
       <defs>
        <path id="DejaVuSans-32" d="M 1228 531 
L 3431 531 
L 3431 0 
L 469 0 
L 469 531 
Q 828 903 1448 1529 
Q 2069 2156 2228 2338 
Q 2531 2678 2651 2914 
Q 2772 3150 2772 3378 
Q 2772 3750 2511 3984 
Q 2250 4219 1831 4219 
Q 1534 4219 1204 4116 
Q 875 4013 500 3803 
L 500 4441 
Q 881 4594 1212 4672 
Q 1544 4750 1819 4750 
Q 2544 4750 2975 4387 
Q 3406 4025 3406 3419 
Q 3406 3131 3298 2873 
Q 3191 2616 2906 2266 
Q 2828 2175 2409 1742 
Q 1991 1309 1228 531 
z
" transform="scale(0.015625)"/>
       </defs>
       <use xlink:href="#DejaVuSans-32"/>
       <use xlink:href="#DejaVuSans-20" transform="translate(63.623047 0)"/>
       <use xlink:href="#DejaVuSans-6b" transform="translate(95.410156 0)"/>
      </g>
     </g>
    </g>
    <g id="xtick_6">
     <g id="line2d_6">
      <g>
       <use xlink:href="#m779c43430d" x="279.458446" y="288.430125" style="stroke: #000000; stroke-width: 0.8"/>
      </g>
     </g>
     <g id="text_6">
      <!-- 2.5 k -->
      <g transform="translate(267.022508 303.028562) scale(0.1 -0.1)">
       <use xlink:href="#DejaVuSans-32"/>
       <use xlink:href="#DejaVuSans-2e" transform="translate(63.623047 0)"/>
       <use xlink:href="#DejaVuSans-35" transform="translate(95.410156 0)"/>
       <use xlink:href="#DejaVuSans-20" transform="translate(159.033203 0)"/>
       <use xlink:href="#DejaVuSans-6b" transform="translate(190.820312 0)"/>
      </g>
     </g>
    </g>
    <g id="xtick_7">
     <g id="line2d_7">
      <g>
       <use xlink:href="#m779c43430d" x="323.00701" y="288.430125" style="stroke: #000000; stroke-width: 0.8"/>
      </g>
     </g>
     <g id="text_7">
      <!-- 3 k -->
      <g transform="translate(315.341385 303.028562) scale(0.1 -0.1)">
       <defs>
        <path id="DejaVuSans-33" d="M 2597 2516 
Q 3050 2419 3304 2112 
Q 3559 1806 3559 1356 
Q 3559 666 3084 287 
Q 2609 -91 1734 -91 
Q 1441 -91 1130 -33 
Q 819 25 488 141 
L 488 750 
Q 750 597 1062 519 
Q 1375 441 1716 441 
Q 2309 441 2620 675 
Q 2931 909 2931 1356 
Q 2931 1769 2642 2001 
Q 2353 2234 1838 2234 
L 1294 2234 
L 1294 2753 
L 1863 2753 
Q 2328 2753 2575 2939 
Q 2822 3125 2822 3475 
Q 2822 3834 2567 4026 
Q 2313 4219 1838 4219 
Q 1578 4219 1281 4162 
Q 984 4106 628 3988 
L 628 4550 
Q 988 4650 1302 4700 
Q 1616 4750 1894 4750 
Q 2613 4750 3031 4423 
Q 3450 4097 3450 3541 
Q 3450 3153 3228 2886 
Q 3006 2619 2597 2516 
z
" transform="scale(0.015625)"/>
       </defs>
       <use xlink:href="#DejaVuSans-33"/>
       <use xlink:href="#DejaVuSans-20" transform="translate(63.623047 0)"/>
       <use xlink:href="#DejaVuSans-6b" transform="translate(95.410156 0)"/>
      </g>
     </g>
    </g>
    <g id="xtick_8">
     <g id="line2d_8">
      <g>
       <use xlink:href="#m779c43430d" x="366.555574" y="288.430125" style="stroke: #000000; stroke-width: 0.8"/>
      </g>
     </g>
     <g id="text_8">
      <!-- 3.5 k -->
      <g transform="translate(354.119636 303.028562) scale(0.1 -0.1)">
       <use xlink:href="#DejaVuSans-33"/>
       <use xlink:href="#DejaVuSans-2e" transform="translate(63.623047 0)"/>
       <use xlink:href="#DejaVuSans-35" transform="translate(95.410156 0)"/>
       <use xlink:href="#DejaVuSans-20" transform="translate(159.033203 0)"/>
       <use xlink:href="#DejaVuSans-6b" transform="translate(190.820312 0)"/>
      </g>
     </g>
    </g>
    <g id="xtick_9">
     <g id="line2d_9">
      <g>
       <use xlink:href="#m779c43430d" x="410.104138" y="288.430125" style="stroke: #000000; stroke-width: 0.8"/>
      </g>
     </g>
     <g id="text_9">
      <!-- 4 k -->
      <g transform="translate(402.438513 303.028562) scale(0.1 -0.1)">
       <defs>
        <path id="DejaVuSans-34" d="M 2419 4116 
L 825 1625 
L 2419 1625 
L 2419 4116 
z
M 2253 4666 
L 3047 4666 
L 3047 1625 
L 3713 1625 
L 3713 1100 
L 3047 1100 
L 3047 0 
L 2419 0 
L 2419 1100 
L 313 1100 
L 313 1709 
L 2253 4666 
z
" transform="scale(0.015625)"/>
       </defs>
       <use xlink:href="#DejaVuSans-34"/>
       <use xlink:href="#DejaVuSans-20" transform="translate(63.623047 0)"/>
       <use xlink:href="#DejaVuSans-6b" transform="translate(95.410156 0)"/>
      </g>
     </g>
    </g>
    <g id="text_10">
     <!-- Amount of objects in table -->
     <g transform="translate(174.217031 316.706687) scale(0.1 -0.1)">
      <defs>
       <path id="DejaVuSans-41" d="M 2188 4044 
L 1331 1722 
L 3047 1722 
L 2188 4044 
z
M 1831 4666 
L 2547 4666 
L 4325 0 
L 3669 0 
L 3244 1197 
L 1141 1197 
L 716 0 
L 50 0 
L 1831 4666 
z
" transform="scale(0.015625)"/>
       <path id="DejaVuSans-6d" d="M 3328 2828 
Q 3544 3216 3844 3400 
Q 4144 3584 4550 3584 
Q 5097 3584 5394 3201 
Q 5691 2819 5691 2113 
L 5691 0 
L 5113 0 
L 5113 2094 
Q 5113 2597 4934 2840 
Q 4756 3084 4391 3084 
Q 3944 3084 3684 2787 
Q 3425 2491 3425 1978 
L 3425 0 
L 2847 0 
L 2847 2094 
Q 2847 2600 2669 2842 
Q 2491 3084 2119 3084 
Q 1678 3084 1418 2786 
Q 1159 2488 1159 1978 
L 1159 0 
L 581 0 
L 581 3500 
L 1159 3500 
L 1159 2956 
Q 1356 3278 1631 3431 
Q 1906 3584 2284 3584 
Q 2666 3584 2933 3390 
Q 3200 3197 3328 2828 
z
" transform="scale(0.015625)"/>
       <path id="DejaVuSans-6f" d="M 1959 3097 
Q 1497 3097 1228 2736 
Q 959 2375 959 1747 
Q 959 1119 1226 758 
Q 1494 397 1959 397 
Q 2419 397 2687 759 
Q 2956 1122 2956 1747 
Q 2956 2369 2687 2733 
Q 2419 3097 1959 3097 
z
M 1959 3584 
Q 2709 3584 3137 3096 
Q 3566 2609 3566 1747 
Q 3566 888 3137 398 
Q 2709 -91 1959 -91 
Q 1206 -91 779 398 
Q 353 888 353 1747 
Q 353 2609 779 3096 
Q 1206 3584 1959 3584 
z
" transform="scale(0.015625)"/>
       <path id="DejaVuSans-75" d="M 544 1381 
L 544 3500 
L 1119 3500 
L 1119 1403 
Q 1119 906 1312 657 
Q 1506 409 1894 409 
Q 2359 409 2629 706 
Q 2900 1003 2900 1516 
L 2900 3500 
L 3475 3500 
L 3475 0 
L 2900 0 
L 2900 538 
Q 2691 219 2414 64 
Q 2138 -91 1772 -91 
Q 1169 -91 856 284 
Q 544 659 544 1381 
z
M 1991 3584 
L 1991 3584 
z
" transform="scale(0.015625)"/>
       <path id="DejaVuSans-6e" d="M 3513 2113 
L 3513 0 
L 2938 0 
L 2938 2094 
Q 2938 2591 2744 2837 
Q 2550 3084 2163 3084 
Q 1697 3084 1428 2787 
Q 1159 2491 1159 1978 
L 1159 0 
L 581 0 
L 581 3500 
L 1159 3500 
L 1159 2956 
Q 1366 3272 1645 3428 
Q 1925 3584 2291 3584 
Q 2894 3584 3203 3211 
Q 3513 2838 3513 2113 
z
" transform="scale(0.015625)"/>
       <path id="DejaVuSans-74" d="M 1172 4494 
L 1172 3500 
L 2356 3500 
L 2356 3053 
L 1172 3053 
L 1172 1153 
Q 1172 725 1289 603 
Q 1406 481 1766 481 
L 2356 481 
L 2356 0 
L 1766 0 
Q 1100 0 847 248 
Q 594 497 594 1153 
L 594 3053 
L 172 3053 
L 172 3500 
L 594 3500 
L 594 4494 
L 1172 4494 
z
" transform="scale(0.015625)"/>
       <path id="DejaVuSans-66" d="M 2375 4863 
L 2375 4384 
L 1825 4384 
Q 1516 4384 1395 4259 
Q 1275 4134 1275 3809 
L 1275 3500 
L 2222 3500 
L 2222 3053 
L 1275 3053 
L 1275 0 
L 697 0 
L 697 3053 
L 147 3053 
L 147 3500 
L 697 3500 
L 697 3744 
Q 697 4328 969 4595 
Q 1241 4863 1831 4863 
L 2375 4863 
z
" transform="scale(0.015625)"/>
       <path id="DejaVuSans-62" d="M 3116 1747 
Q 3116 2381 2855 2742 
Q 2594 3103 2138 3103 
Q 1681 3103 1420 2742 
Q 1159 2381 1159 1747 
Q 1159 1113 1420 752 
Q 1681 391 2138 391 
Q 2594 391 2855 752 
Q 3116 1113 3116 1747 
z
M 1159 2969 
Q 1341 3281 1617 3432 
Q 1894 3584 2278 3584 
Q 2916 3584 3314 3078 
Q 3713 2572 3713 1747 
Q 3713 922 3314 415 
Q 2916 -91 2278 -91 
Q 1894 -91 1617 61 
Q 1341 213 1159 525 
L 1159 0 
L 581 0 
L 581 4863 
L 1159 4863 
L 1159 2969 
z
" transform="scale(0.015625)"/>
       <path id="DejaVuSans-6a" d="M 603 3500 
L 1178 3500 
L 1178 -63 
Q 1178 -731 923 -1031 
Q 669 -1331 103 -1331 
L -116 -1331 
L -116 -844 
L 38 -844 
Q 366 -844 484 -692 
Q 603 -541 603 -63 
L 603 3500 
z
M 603 4863 
L 1178 4863 
L 1178 4134 
L 603 4134 
L 603 4863 
z
" transform="scale(0.015625)"/>
       <path id="DejaVuSans-65" d="M 3597 1894 
L 3597 1613 
L 953 1613 
Q 991 1019 1311 708 
Q 1631 397 2203 397 
Q 2534 397 2845 478 
Q 3156 559 3463 722 
L 3463 178 
Q 3153 47 2828 -22 
Q 2503 -91 2169 -91 
Q 1331 -91 842 396 
Q 353 884 353 1716 
Q 353 2575 817 3079 
Q 1281 3584 2069 3584 
Q 2775 3584 3186 3129 
Q 3597 2675 3597 1894 
z
M 3022 2063 
Q 3016 2534 2758 2815 
Q 2500 3097 2075 3097 
Q 1594 3097 1305 2825 
Q 1016 2553 972 2059 
L 3022 2063 
z
" transform="scale(0.015625)"/>
       <path id="DejaVuSans-63" d="M 3122 3366 
L 3122 2828 
Q 2878 2963 2633 3030 
Q 2388 3097 2138 3097 
Q 1578 3097 1268 2742 
Q 959 2388 959 1747 
Q 959 1106 1268 751 
Q 1578 397 2138 397 
Q 2388 397 2633 464 
Q 2878 531 3122 666 
L 3122 134 
Q 2881 22 2623 -34 
Q 2366 -91 2075 -91 
Q 1284 -91 818 406 
Q 353 903 353 1747 
Q 353 2603 823 3093 
Q 1294 3584 2113 3584 
Q 2378 3584 2631 3529 
Q 2884 3475 3122 3366 
z
" transform="scale(0.015625)"/>
       <path id="DejaVuSans-73" d="M 2834 3397 
L 2834 2853 
Q 2591 2978 2328 3040 
Q 2066 3103 1784 3103 
Q 1356 3103 1142 2972 
Q 928 2841 928 2578 
Q 928 2378 1081 2264 
Q 1234 2150 1697 2047 
L 1894 2003 
Q 2506 1872 2764 1633 
Q 3022 1394 3022 966 
Q 3022 478 2636 193 
Q 2250 -91 1575 -91 
Q 1294 -91 989 -36 
Q 684 19 347 128 
L 347 722 
Q 666 556 975 473 
Q 1284 391 1588 391 
Q 1994 391 2212 530 
Q 2431 669 2431 922 
Q 2431 1156 2273 1281 
Q 2116 1406 1581 1522 
L 1381 1569 
Q 847 1681 609 1914 
Q 372 2147 372 2553 
Q 372 3047 722 3315 
Q 1072 3584 1716 3584 
Q 2034 3584 2315 3537 
Q 2597 3491 2834 3397 
z
" transform="scale(0.015625)"/>
       <path id="DejaVuSans-69" d="M 603 3500 
L 1178 3500 
L 1178 0 
L 603 0 
L 603 3500 
z
M 603 4863 
L 1178 4863 
L 1178 4134 
L 603 4134 
L 603 4863 
z
" transform="scale(0.015625)"/>
       <path id="DejaVuSans-61" d="M 2194 1759 
Q 1497 1759 1228 1600 
Q 959 1441 959 1056 
Q 959 750 1161 570 
Q 1363 391 1709 391 
Q 2188 391 2477 730 
Q 2766 1069 2766 1631 
L 2766 1759 
L 2194 1759 
z
M 3341 1997 
L 3341 0 
L 2766 0 
L 2766 531 
Q 2569 213 2275 61 
Q 1981 -91 1556 -91 
Q 1019 -91 701 211 
Q 384 513 384 1019 
Q 384 1609 779 1909 
Q 1175 2209 1959 2209 
L 2766 2209 
L 2766 2266 
Q 2766 2663 2505 2880 
Q 2244 3097 1772 3097 
Q 1472 3097 1187 3025 
Q 903 2953 641 2809 
L 641 3341 
Q 956 3463 1253 3523 
Q 1550 3584 1831 3584 
Q 2591 3584 2966 3190 
Q 3341 2797 3341 1997 
z
" transform="scale(0.015625)"/>
       <path id="DejaVuSans-6c" d="M 603 4863 
L 1178 4863 
L 1178 0 
L 603 0 
L 603 4863 
z
" transform="scale(0.015625)"/>
      </defs>
      <use xlink:href="#DejaVuSans-41"/>
      <use xlink:href="#DejaVuSans-6d" transform="translate(68.408203 0)"/>
      <use xlink:href="#DejaVuSans-6f" transform="translate(165.820312 0)"/>
      <use xlink:href="#DejaVuSans-75" transform="translate(227.001953 0)"/>
      <use xlink:href="#DejaVuSans-6e" transform="translate(290.380859 0)"/>
      <use xlink:href="#DejaVuSans-74" transform="translate(353.759766 0)"/>
      <use xlink:href="#DejaVuSans-20" transform="translate(392.96875 0)"/>
      <use xlink:href="#DejaVuSans-6f" transform="translate(424.755859 0)"/>
      <use xlink:href="#DejaVuSans-66" transform="translate(485.9375 0)"/>
      <use xlink:href="#DejaVuSans-20" transform="translate(521.142578 0)"/>
      <use xlink:href="#DejaVuSans-6f" transform="translate(552.929688 0)"/>
      <use xlink:href="#DejaVuSans-62" transform="translate(614.111328 0)"/>
      <use xlink:href="#DejaVuSans-6a" transform="translate(677.587891 0)"/>
      <use xlink:href="#DejaVuSans-65" transform="translate(705.371094 0)"/>
      <use xlink:href="#DejaVuSans-63" transform="translate(766.894531 0)"/>
      <use xlink:href="#DejaVuSans-74" transform="translate(821.875 0)"/>
      <use xlink:href="#DejaVuSans-73" transform="translate(861.083984 0)"/>
      <use xlink:href="#DejaVuSans-20" transform="translate(913.183594 0)"/>
      <use xlink:href="#DejaVuSans-69" transform="translate(944.970703 0)"/>
      <use xlink:href="#DejaVuSans-6e" transform="translate(972.753906 0)"/>
      <use xlink:href="#DejaVuSans-20" transform="translate(1036.132812 0)"/>
      <use xlink:href="#DejaVuSans-74" transform="translate(1067.919922 0)"/>
      <use xlink:href="#DejaVuSans-61" transform="translate(1107.128906 0)"/>
      <use xlink:href="#DejaVuSans-62" transform="translate(1168.408203 0)"/>
      <use xlink:href="#DejaVuSans-6c" transform="translate(1231.884766 0)"/>
      <use xlink:href="#DejaVuSans-65" transform="translate(1259.667969 0)"/>
     </g>
    </g>
   </g>
   <g id="matplotlib.axis_2">
    <g id="ytick_1">
     <g id="line2d_10">
      <defs>
       <path id="m2a94831569" d="M 0 0 
L -3.5 0 
" style="stroke: #000000; stroke-width: 0.8"/>
      </defs>
      <g>
       <use xlink:href="#m2a94831569" x="61.715625" y="288.430125" style="stroke: #000000; stroke-width: 0.8"/>
      </g>
     </g>
     <g id="text_11">
      <!-- 0 -->
      <g transform="translate(48.353125 292.229344) scale(0.1 -0.1)">
       <use xlink:href="#DejaVuSans-30"/>
      </g>
     </g>
    </g>
    <g id="ytick_2">
     <g id="line2d_11">
      <g>
       <use xlink:href="#m2a94831569" x="61.715625" y="252.672442" style="stroke: #000000; stroke-width: 0.8"/>
      </g>
     </g>
     <g id="text_12">
      <!-- 100 µs -->
      <g transform="translate(20.878125 256.471661) scale(0.1 -0.1)">
       <defs>
        <path id="DejaVuSans-b5" d="M 544 -1331 
L 544 3500 
L 1119 3500 
L 1119 1325 
Q 1119 872 1334 640 
Q 1550 409 1972 409 
Q 2434 409 2667 671 
Q 2900 934 2900 1459 
L 2900 3500 
L 3475 3500 
L 3475 806 
Q 3475 619 3529 530 
Q 3584 441 3700 441 
Q 3728 441 3778 458 
Q 3828 475 3916 513 
L 3916 50 
Q 3788 -22 3673 -56 
Q 3559 -91 3450 -91 
Q 3234 -91 3106 31 
Q 2978 153 2931 403 
Q 2775 156 2548 32 
Q 2322 -91 2016 -91 
Q 1697 -91 1473 31 
Q 1250 153 1119 397 
L 1119 -1331 
L 544 -1331 
z
" transform="scale(0.015625)"/>
       </defs>
       <use xlink:href="#DejaVuSans-31"/>
       <use xlink:href="#DejaVuSans-30" transform="translate(63.623047 0)"/>
       <use xlink:href="#DejaVuSans-30" transform="translate(127.246094 0)"/>
       <use xlink:href="#DejaVuSans-20" transform="translate(190.869141 0)"/>
       <use xlink:href="#DejaVuSans-b5" transform="translate(222.65625 0)"/>
       <use xlink:href="#DejaVuSans-73" transform="translate(286.279297 0)"/>
      </g>
     </g>
    </g>
    <g id="ytick_3">
     <g id="line2d_12">
      <g>
       <use xlink:href="#m2a94831569" x="61.715625" y="216.914759" style="stroke: #000000; stroke-width: 0.8"/>
      </g>
     </g>
     <g id="text_13">
      <!-- 200 µs -->
      <g transform="translate(20.878125 220.713977) scale(0.1 -0.1)">
       <use xlink:href="#DejaVuSans-32"/>
       <use xlink:href="#DejaVuSans-30" transform="translate(63.623047 0)"/>
       <use xlink:href="#DejaVuSans-30" transform="translate(127.246094 0)"/>
       <use xlink:href="#DejaVuSans-20" transform="translate(190.869141 0)"/>
       <use xlink:href="#DejaVuSans-b5" transform="translate(222.65625 0)"/>
       <use xlink:href="#DejaVuSans-73" transform="translate(286.279297 0)"/>
      </g>
     </g>
    </g>
    <g id="ytick_4">
     <g id="line2d_13">
      <g>
       <use xlink:href="#m2a94831569" x="61.715625" y="181.157075" style="stroke: #000000; stroke-width: 0.8"/>
      </g>
     </g>
     <g id="text_14">
      <!-- 300 µs -->
      <g transform="translate(20.878125 184.956294) scale(0.1 -0.1)">
       <use xlink:href="#DejaVuSans-33"/>
       <use xlink:href="#DejaVuSans-30" transform="translate(63.623047 0)"/>
       <use xlink:href="#DejaVuSans-30" transform="translate(127.246094 0)"/>
       <use xlink:href="#DejaVuSans-20" transform="translate(190.869141 0)"/>
       <use xlink:href="#DejaVuSans-b5" transform="translate(222.65625 0)"/>
       <use xlink:href="#DejaVuSans-73" transform="translate(286.279297 0)"/>
      </g>
     </g>
    </g>
    <g id="ytick_5">
     <g id="line2d_14">
      <g>
       <use xlink:href="#m2a94831569" x="61.715625" y="145.399392" style="stroke: #000000; stroke-width: 0.8"/>
      </g>
     </g>
     <g id="text_15">
      <!-- 400 µs -->
      <g transform="translate(20.878125 149.198611) scale(0.1 -0.1)">
       <use xlink:href="#DejaVuSans-34"/>
       <use xlink:href="#DejaVuSans-30" transform="translate(63.623047 0)"/>
       <use xlink:href="#DejaVuSans-30" transform="translate(127.246094 0)"/>
       <use xlink:href="#DejaVuSans-20" transform="translate(190.869141 0)"/>
       <use xlink:href="#DejaVuSans-b5" transform="translate(222.65625 0)"/>
       <use xlink:href="#DejaVuSans-73" transform="translate(286.279297 0)"/>
      </g>
     </g>
    </g>
    <g id="ytick_6">
     <g id="line2d_15">
      <g>
       <use xlink:href="#m2a94831569" x="61.715625" y="109.641709" style="stroke: #000000; stroke-width: 0.8"/>
      </g>
     </g>
     <g id="text_16">
      <!-- 500 µs -->
      <g transform="translate(20.878125 113.440928) scale(0.1 -0.1)">
       <use xlink:href="#DejaVuSans-35"/>
       <use xlink:href="#DejaVuSans-30" transform="translate(63.623047 0)"/>
       <use xlink:href="#DejaVuSans-30" transform="translate(127.246094 0)"/>
       <use xlink:href="#DejaVuSans-20" transform="translate(190.869141 0)"/>
       <use xlink:href="#DejaVuSans-b5" transform="translate(222.65625 0)"/>
       <use xlink:href="#DejaVuSans-73" transform="translate(286.279297 0)"/>
      </g>
     </g>
    </g>
    <g id="ytick_7">
     <g id="line2d_16">
      <g>
       <use xlink:href="#m2a94831569" x="61.715625" y="73.884026" style="stroke: #000000; stroke-width: 0.8"/>
      </g>
     </g>
     <g id="text_17">
      <!-- 600 µs -->
      <g transform="translate(20.878125 77.683245) scale(0.1 -0.1)">
       <defs>
        <path id="DejaVuSans-36" d="M 2113 2584 
Q 1688 2584 1439 2293 
Q 1191 2003 1191 1497 
Q 1191 994 1439 701 
Q 1688 409 2113 409 
Q 2538 409 2786 701 
Q 3034 994 3034 1497 
Q 3034 2003 2786 2293 
Q 2538 2584 2113 2584 
z
M 3366 4563 
L 3366 3988 
Q 3128 4100 2886 4159 
Q 2644 4219 2406 4219 
Q 1781 4219 1451 3797 
Q 1122 3375 1075 2522 
Q 1259 2794 1537 2939 
Q 1816 3084 2150 3084 
Q 2853 3084 3261 2657 
Q 3669 2231 3669 1497 
Q 3669 778 3244 343 
Q 2819 -91 2113 -91 
Q 1303 -91 875 529 
Q 447 1150 447 2328 
Q 447 3434 972 4092 
Q 1497 4750 2381 4750 
Q 2619 4750 2861 4703 
Q 3103 4656 3366 4563 
z
" transform="scale(0.015625)"/>
       </defs>
       <use xlink:href="#DejaVuSans-36"/>
       <use xlink:href="#DejaVuSans-30" transform="translate(63.623047 0)"/>
       <use xlink:href="#DejaVuSans-30" transform="translate(127.246094 0)"/>
       <use xlink:href="#DejaVuSans-20" transform="translate(190.869141 0)"/>
       <use xlink:href="#DejaVuSans-b5" transform="translate(222.65625 0)"/>
       <use xlink:href="#DejaVuSans-73" transform="translate(286.279297 0)"/>
      </g>
     </g>
    </g>
    <g id="ytick_8">
     <g id="line2d_17">
      <g>
       <use xlink:href="#m2a94831569" x="61.715625" y="38.126343" style="stroke: #000000; stroke-width: 0.8"/>
      </g>
     </g>
     <g id="text_18">
      <!-- 700 µs -->
      <g transform="translate(20.878125 41.925561) scale(0.1 -0.1)">
       <defs>
        <path id="DejaVuSans-37" d="M 525 4666 
L 3525 4666 
L 3525 4397 
L 1831 0 
L 1172 0 
L 2766 4134 
L 525 4134 
L 525 4666 
z
" transform="scale(0.015625)"/>
       </defs>
       <use xlink:href="#DejaVuSans-37"/>
       <use xlink:href="#DejaVuSans-30" transform="translate(63.623047 0)"/>
       <use xlink:href="#DejaVuSans-30" transform="translate(127.246094 0)"/>
       <use xlink:href="#DejaVuSans-20" transform="translate(190.869141 0)"/>
       <use xlink:href="#DejaVuSans-b5" transform="translate(222.65625 0)"/>
       <use xlink:href="#DejaVuSans-73" transform="translate(286.279297 0)"/>
      </g>
     </g>
    </g>
    <g id="text_19">
     <!-- Read latency (s) -->
     <g transform="translate(14.798438 195.98975) rotate(-90) scale(0.1 -0.1)">
      <defs>
       <path id="DejaVuSans-52" d="M 2841 2188 
Q 3044 2119 3236 1894 
Q 3428 1669 3622 1275 
L 4263 0 
L 3584 0 
L 2988 1197 
Q 2756 1666 2539 1819 
Q 2322 1972 1947 1972 
L 1259 1972 
L 1259 0 
L 628 0 
L 628 4666 
L 2053 4666 
Q 2853 4666 3247 4331 
Q 3641 3997 3641 3322 
Q 3641 2881 3436 2590 
Q 3231 2300 2841 2188 
z
M 1259 4147 
L 1259 2491 
L 2053 2491 
Q 2509 2491 2742 2702 
Q 2975 2913 2975 3322 
Q 2975 3731 2742 3939 
Q 2509 4147 2053 4147 
L 1259 4147 
z
" transform="scale(0.015625)"/>
       <path id="DejaVuSans-64" d="M 2906 2969 
L 2906 4863 
L 3481 4863 
L 3481 0 
L 2906 0 
L 2906 525 
Q 2725 213 2448 61 
Q 2172 -91 1784 -91 
Q 1150 -91 751 415 
Q 353 922 353 1747 
Q 353 2572 751 3078 
Q 1150 3584 1784 3584 
Q 2172 3584 2448 3432 
Q 2725 3281 2906 2969 
z
M 947 1747 
Q 947 1113 1208 752 
Q 1469 391 1925 391 
Q 2381 391 2643 752 
Q 2906 1113 2906 1747 
Q 2906 2381 2643 2742 
Q 2381 3103 1925 3103 
Q 1469 3103 1208 2742 
Q 947 2381 947 1747 
z
" transform="scale(0.015625)"/>
       <path id="DejaVuSans-79" d="M 2059 -325 
Q 1816 -950 1584 -1140 
Q 1353 -1331 966 -1331 
L 506 -1331 
L 506 -850 
L 844 -850 
Q 1081 -850 1212 -737 
Q 1344 -625 1503 -206 
L 1606 56 
L 191 3500 
L 800 3500 
L 1894 763 
L 2988 3500 
L 3597 3500 
L 2059 -325 
z
" transform="scale(0.015625)"/>
       <path id="DejaVuSans-28" d="M 1984 4856 
Q 1566 4138 1362 3434 
Q 1159 2731 1159 2009 
Q 1159 1288 1364 580 
Q 1569 -128 1984 -844 
L 1484 -844 
Q 1016 -109 783 600 
Q 550 1309 550 2009 
Q 550 2706 781 3412 
Q 1013 4119 1484 4856 
L 1984 4856 
z
" transform="scale(0.015625)"/>
       <path id="DejaVuSans-29" d="M 513 4856 
L 1013 4856 
Q 1481 4119 1714 3412 
Q 1947 2706 1947 2009 
Q 1947 1309 1714 600 
Q 1481 -109 1013 -844 
L 513 -844 
Q 928 -128 1133 580 
Q 1338 1288 1338 2009 
Q 1338 2731 1133 3434 
Q 928 4138 513 4856 
z
" transform="scale(0.015625)"/>
      </defs>
      <use xlink:href="#DejaVuSans-52"/>
      <use xlink:href="#DejaVuSans-65" transform="translate(64.982422 0)"/>
      <use xlink:href="#DejaVuSans-61" transform="translate(126.505859 0)"/>
      <use xlink:href="#DejaVuSans-64" transform="translate(187.785156 0)"/>
      <use xlink:href="#DejaVuSans-20" transform="translate(251.261719 0)"/>
      <use xlink:href="#DejaVuSans-6c" transform="translate(283.048828 0)"/>
      <use xlink:href="#DejaVuSans-61" transform="translate(310.832031 0)"/>
      <use xlink:href="#DejaVuSans-74" transform="translate(372.111328 0)"/>
      <use xlink:href="#DejaVuSans-65" transform="translate(411.320312 0)"/>
      <use xlink:href="#DejaVuSans-6e" transform="translate(472.84375 0)"/>
      <use xlink:href="#DejaVuSans-63" transform="translate(536.222656 0)"/>
      <use xlink:href="#DejaVuSans-79" transform="translate(591.203125 0)"/>
      <use xlink:href="#DejaVuSans-20" transform="translate(650.382812 0)"/>
      <use xlink:href="#DejaVuSans-28" transform="translate(682.169922 0)"/>
      <use xlink:href="#DejaVuSans-73" transform="translate(721.183594 0)"/>
      <use xlink:href="#DejaVuSans-29" transform="translate(773.283203 0)"/>
     </g>
    </g>
   </g>
   <g id="line2d_18">
    <path d="M 147.070811 164.328047 
L 148.812753 164.936184 
L 149.683725 165.389993 
L 151.425667 166.168199 
L 153.16761 167.017668 
L 155.345038 167.615313 
L 157.08698 167.501643 
L 157.522466 167.454426 
L 158.828923 164.442592 
L 159.264409 162.949572 
L 159.699894 161.978563 
L 160.13538 160.544127 
L 161.006351 158.873606 
L 161.441837 158.767368 
L 161.877322 158.249292 
L 162.312808 157.467151 
L 163.619265 156.281479 
L 164.490236 154.64812 
L 164.925722 154.114305 
L 165.361208 153.861606 
L 165.796693 153.010826 
L 166.667665 151.981669 
L 167.10315 150.689759 
L 167.538636 150.209719 
L 167.974121 150.210594 
L 168.409607 149.921171 
L 169.280578 148.438644 
L 169.716064 148.451322 
L 170.587035 147.882532 
L 171.458007 146.390824 
L 173.199949 144.264309 
L 173.635435 143.093502 
L 175.377377 141.43085 
L 176.248349 140.061119 
L 177.11932 139.134704 
L 177.554806 138.696198 
L 177.990291 136.694721 
L 178.425777 135.832135 
L 178.861262 136.887086 
L 179.732234 135.879352 
L 180.603205 135.380513 
L 181.474176 134.351357 
L 181.909662 133.697751 
L 182.345148 133.313894 
L 182.780633 132.779642 
L 183.216119 132.053025 
L 183.651605 131.776718 
L 184.522576 130.953043 
L 184.958061 130.796527 
L 185.829033 129.844754 
L 186.264518 129.216943 
L 186.700004 128.792427 
L 187.13549 128.551533 
L 187.570975 127.927656 
L 188.006461 127.777698 
L 188.441947 129.72234 
L 188.877432 129.423299 
L 189.312918 128.523989 
L 189.748403 127.956511 
L 190.183889 127.886997 
L 191.05486 127.119283 
L 191.490346 125.742994 
L 191.925832 125.195626 
L 192.361317 124.841936 
L 192.796803 123.707416 
L 194.538746 122.777503 
L 194.974231 122.211773 
L 195.845202 121.653475 
L 196.280688 121.553358 
L 196.716174 121.064137 
L 197.151659 120.892756 
L 198.022631 120.116299 
L 198.893602 121.556418 
L 199.329088 121.572157 
L 200.635545 123.932571 
L 201.07103 124.068539 
L 201.942001 125.602655 
L 202.377487 126.090564 
L 205.425887 131.793768 
L 206.732343 133.425379 
L 207.167829 133.93952 
L 207.603315 135.008023 
L 208.0388 135.527411 
L 211.0872 141.640267 
L 211.522686 142.086642 
L 212.829142 145.144819 
L 213.700114 146.655764 
L 214.571085 148.089325 
L 215.006571 148.710579 
L 217.183999 148.601717 
L 219.796913 148.473619 
L 220.667884 148.459629 
L 222.845312 148.314918 
L 223.716283 148.232725 
L 224.151769 148.815505 
L 234.167939 148.802827 
L 235.474396 148.725443 
L 237.216338 148.746429 
L 242.442166 148.706207 
L 243.748623 151.539665 
L 244.184109 153.024816 
L 244.619594 153.969156 
L 245.05508 155.37124 
L 248.103479 160.997935 
L 248.974451 163.291021 
L 249.845422 165.39349 
L 250.280908 165.936049 
L 251.151879 168.13951 
L 251.587365 169.135439 
L 252.02285 170.945425 
L 252.458336 171.907253 
L 252.893821 171.779155 
L 253.329307 171.232662 
L 253.764793 171.451259 
L 254.200278 171.522085 
L 254.635764 171.341086 
L 255.07125 171.020623 
L 255.506735 170.840498 
L 255.942221 171.044668 
L 256.377707 171.066965 
L 257.248678 170.815141 
L 257.684164 170.926626 
L 258.119649 170.893399 
L 258.555135 171.467436 
L 258.99062 171.355077 
L 259.426106 170.962913 
L 259.861592 170.754808 
L 260.297077 170.396309 
L 260.732563 170.526593 
L 262.474506 170.130057 
L 262.909991 171.369941 
L 263.780962 171.281191 
L 264.216448 171.104127 
L 264.651934 170.565503 
L 265.522905 170.048302 
L 265.958391 170.051362 
L 267.264848 170.563317 
L 268.571305 171.437706 
L 269.00679 171.29999 
L 269.442276 169.704667 
L 269.877761 169.4594 
L 270.313247 169.365404 
L 270.748733 168.217768 
L 271.184218 168.41538 
L 271.619704 168.414505 
L 272.05519 168.154812 
L 273.361647 169.26004 
L 273.797132 169.289769 
L 274.232618 170.1047 
L 274.668104 169.675375 
L 275.539075 169.167792 
L 275.97456 169.34267 
L 277.281017 169.421802 
L 277.716503 170.340785 
L 278.151989 170.549327 
L 279.02296 170.213124 
L 279.458446 170.197385 
L 279.893931 170.573372 
L 281.200388 171.01013 
L 282.071359 171.121615 
L 282.942331 171.309171 
L 284.684273 168.020593 
L 285.119759 167.192983 
L 285.555245 165.178827 
L 285.99073 164.746442 
L 286.426216 163.402943 
L 288.168158 160.08551 
L 289.03913 158.085344 
L 289.474615 157.780182 
L 291.216558 154.432583 
L 291.652044 147.255158 
L 292.087529 141.95767 
L 292.523015 138.821235 
L 293.829472 136.2772 
L 297.748842 127.364112 
L 298.619814 125.260768 
L 299.490785 123.909837 
L 299.926271 122.382279 
L 301.232728 119.533955 
L 302.97467 115.72293 
L 303.410156 115.057082 
L 305.152098 111.287152 
L 305.587584 109.67303 
L 306.458555 107.956603 
L 307.329527 106.08235 
L 307.765012 104.452488 
L 308.635984 102.974333 
L 309.071469 102.203122 
L 311.684383 96.141418 
L 312.555354 93.8938 
L 312.99084 92.974817 
L 313.426326 90.563251 
L 315.603754 85.429274 
L 316.039239 84.595106 
L 316.910211 82.025713 
L 317.345696 80.145339 
L 318.216668 78.559634 
L 319.087639 76.736969 
L 319.523125 75.848153 
L 319.95861 75.278051 
L 323.00701 69.509704 
L 323.877981 67.155411 
L 324.313467 64.843088 
L 324.748952 64.232328 
L 326.055409 61.172839 
L 327.361866 58.379165 
L 328.232837 56.455072 
L 329.103809 54.84226 
L 330.410266 52.078316 
L 330.845751 50.78728 
L 331.716722 49.008335 
L 334.765122 41.681389 
L 335.200608 41.258185 
L 336.071579 39.462189 
L 337.378036 36.750271 
L 337.813521 36.887987 
L 338.249007 37.366715 
L 340.426435 38.470195 
L 340.861921 38.869353 
L 341.297407 39.051226 
L 341.732892 39.063031 
L 342.168378 39.581543 
L 342.603864 39.568865 
L 343.91032 40.11667 
L 345.216777 40.914987 
L 345.652263 40.984501 
L 346.95872 41.652097 
L 347.394206 41.460169 
L 347.829691 41.81998 
L 348.265177 41.65166 
L 348.700662 40.768964 
L 349.136148 41.04396 
L 349.571634 39.691279 
L 350.007119 40.207169 
L 350.442605 40.311658 
L 350.878091 40.833232 
L 351.313576 40.57485 
L 351.749062 40.461179 
L 352.184548 39.84386 
L 352.620033 39.706144 
L 353.055519 38.697973 
L 353.491005 38.169842 
L 353.92649 38.34778 
L 354.361976 39.249713 
L 355.232947 39.546131 
L 355.668433 40.704259 
L 356.539404 40.62163 
L 356.97489 40.853343 
L 357.410375 40.319091 
L 358.281347 40.369805 
L 358.716832 40.065081 
L 359.152318 40.039286 
L 359.587804 40.819242 
L 360.89426 41.241572 
L 361.329746 41.974747 
L 361.765232 42.254114 
L 362.636203 42.254114 
L 363.071689 42.099347 
L 363.507174 42.197716 
L 364.378146 42.123393 
L 364.813631 41.588704 
L 365.249117 41.55198 
L 366.120088 41.322015 
L 367.426545 41.512632 
L 368.733002 41.255999 
L 369.168488 41.59395 
L 369.603973 41.028221 
L 370.039459 40.994994 
L 370.474945 42.128202 
L 370.91043 41.853644 
L 371.345916 42.06306 
L 373.523344 41.660404 
L 373.95883 42.090604 
L 374.394315 42.003165 
L 374.829801 41.753527 
L 375.265287 35.272553 
L 376.136258 34.990125 
L 376.571744 41.21534 
L 377.007229 45.638876 
L 377.442715 47.863322 
L 377.8782 45.068336 
L 378.313686 45.114242 
L 378.749172 44.767109 
L 379.184657 44.750496 
L 380.055629 44.527527 
L 380.9266 44.55201 
L 381.362086 44.178208 
L 381.797571 43.984094 
L 382.233057 44.037431 
L 382.668543 44.415168 
L 383.104028 44.534085 
L 383.539514 44.162032 
L 383.974999 42.763009 
L 384.410485 42.425058 
L 384.845971 43.061176 
L 385.281456 43.107956 
L 385.716942 43.332236 
L 386.152428 43.275401 
L 387.458885 42.38265 
L 387.89437 42.261984 
L 388.329856 41.840965 
L 388.765341 41.912665 
L 389.200827 42.212144 
L 389.636313 41.926656 
L 390.071798 41.189545 
L 390.507284 41.948953 
L 390.94277 41.872443 
L 391.378255 42.09891 
L 392.249227 42.241873 
L 392.684712 42.888921 
L 393.120198 42.954063 
L 393.555684 40.404344 
L 393.991169 40.197113 
L 394.426655 40.22728 
L 395.297626 40.849408 
L 395.733112 40.538125 
L 396.604083 40.815307 
L 397.039569 41.150198 
L 397.91054 41.109539 
L 398.346026 42.369534 
L 399.216997 43.055055 
L 399.652483 43.111453 
L 400.087968 42.993848 
L 400.523454 42.499381 
L 400.958939 42.202088 
L 401.829911 43.13681 
L 401.829911 43.13681 
" clip-path="url(#p24246133b2)" style="fill: none; stroke: #1f77b4; stroke-opacity: 0.8; stroke-width: 1.5; stroke-linecap: square"/>
   </g>
   <g id="line2d_19">
    <path d="M 147.070811 192.127507 
L 147.506296 192.018208 
L 148.377268 192.217132 
L 148.812753 191.264047 
L 149.683725 191.075179 
L 151.861153 191.520243 
L 152.732124 191.732283 
L 153.16761 191.625607 
L 154.038581 191.710423 
L 156.651495 191.333561 
L 157.08698 191.205026 
L 157.522466 191.299897 
L 157.957952 191.130266 
L 158.828923 191.292902 
L 160.13538 190.983806 
L 160.570866 190.972001 
L 161.877322 190.351185 
L 162.312808 190.333697 
L 162.748294 189.83136 
L 163.183779 189.861527 
L 163.619265 189.690147 
L 164.490236 189.558988 
L 165.796693 188.507098 
L 167.10315 187.921257 
L 167.538636 187.261093 
L 168.409607 186.589125 
L 169.280578 185.513626 
L 169.716064 185.3899 
L 170.15155 184.444685 
L 170.587035 184.323582 
L 172.764463 183.210484 
L 173.199949 183.037792 
L 173.635435 182.479058 
L 174.506406 181.81321 
L 175.377377 181.629151 
L 175.812863 181.078723 
L 176.248349 180.083668 
L 176.683834 179.922343 
L 177.11932 179.993606 
L 177.554806 179.353553 
L 177.990291 178.95046 
L 178.861262 178.936469 
L 179.296748 178.797441 
L 179.732234 178.207666 
L 180.167719 176.657373 
L 181.038691 176.364453 
L 181.474176 176.273079 
L 181.909662 175.947807 
L 186.264518 174.755577 
L 186.700004 174.401886 
L 188.441947 174.412816 
L 188.877432 174.61786 
L 190.619375 174.671198 
L 191.05486 174.516431 
L 193.667774 172.756285 
L 194.10326 171.386992 
L 194.974231 170.845308 
L 195.845202 169.916269 
L 196.716174 169.664882 
L 198.022631 168.777814 
L 198.458116 168.341494 
L 198.893602 168.165304 
L 200.200059 167.089805 
L 201.07103 166.783332 
L 201.506516 166.482542 
L 201.942001 165.732316 
L 202.377487 165.456446 
L 204.11943 163.493879 
L 204.554915 163.577821 
L 205.861372 162.006106 
L 206.296858 161.616565 
L 206.732343 161.50202 
L 208.0388 160.241151 
L 208.474286 160.398541 
L 208.909772 160.028237 
L 209.345257 159.888772 
L 210.216229 159.199753 
L 210.651714 159.335721 
L 211.0872 158.961919 
L 211.522686 159.939049 
L 212.393657 159.350585 
L 212.829142 159.672361 
L 213.264628 159.531147 
L 213.700114 159.56656 
L 214.135599 159.725261 
L 215.442056 159.672798 
L 216.313028 159.476935 
L 216.748513 159.438899 
L 218.05497 158.524725 
L 218.490456 158.684738 
L 218.925941 158.355093 
L 219.796913 158.074414 
L 220.232398 157.631973 
L 221.10337 157.335555 
L 221.538855 157.365722 
L 221.974341 156.89224 
L 222.409827 155.638365 
L 224.151769 154.416844 
L 224.587255 153.79559 
L 225.458226 151.981232 
L 225.893712 151.605682 
L 226.764683 150.507012 
L 227.200169 150.854144 
L 228.07114 150.484278 
L 228.942111 149.045907 
L 229.377597 148.90513 
L 229.813082 148.481489 
L 230.248568 148.287374 
L 230.684054 147.763615 
L 231.555025 147.217996 
L 232.425996 146.944749 
L 232.861482 146.387763 
L 233.296968 145.323632 
L 233.732453 145.808918 
L 234.167939 145.628356 
L 234.603425 145.070933 
L 236.780853 143.194494 
L 238.522795 141.154543 
L 238.958281 140.796044 
L 239.393767 140.620291 
L 239.829252 140.211514 
L 240.264738 140.201022 
L 240.700224 139.882744 
L 241.571195 139.643599 
L 242.00668 139.741967 
L 242.442166 138.77227 
L 243.313137 138.372236 
L 243.748623 137.985319 
L 245.926051 137.68278 
L 246.797022 137.087759 
L 247.232508 136.718766 
L 247.667994 136.694721 
L 248.103479 136.268456 
L 248.538965 136.153474 
L 249.409936 135.398438 
L 249.845422 135.510797 
L 252.02285 134.50831 
L 252.458336 134.695429 
L 252.893821 133.642665 
L 254.200278 133.94564 
L 254.635764 133.538175 
L 255.07125 134.121393 
L 255.506735 133.872192 
L 255.942221 133.763767 
L 257.684164 129.39357 
L 258.119649 128.998783 
L 258.99062 129.004029 
L 259.426106 128.832649 
L 259.861592 127.677143 
L 260.297077 127.509698 
L 260.732563 127.574403 
L 261.168049 127.034467 
L 262.03902 126.535191 
L 262.474506 126.794884 
L 263.780962 126.536502 
L 264.216448 126.297794 
L 264.651934 126.418023 
L 265.087419 127.614624 
L 265.958391 126.975883 
L 266.393876 125.683536 
L 266.829362 125.426028 
L 267.700333 125.359137 
L 268.571305 124.881283 
L 269.00679 124.040558 
L 269.442276 124.01695 
L 271.184218 122.353861 
L 271.619704 122.529613 
L 272.05519 122.27298 
L 272.490675 121.590956 
L 272.926161 121.492588 
L 273.797132 120.689024 
L 274.232618 119.877153 
L 274.668104 119.372193 
L 276.410046 118.200949 
L 276.845532 118.198326 
L 277.281017 118.021262 
L 277.716503 118.033503 
L 278.587474 117.685496 
L 279.02296 118.658255 
L 279.458446 118.416049 
L 279.893931 118.475944 
L 280.764902 118.785041 
L 282.071359 117.735774 
L 282.942331 117.406566 
L 283.377816 116.786624 
L 283.813302 116.680386 
L 284.248788 115.995739 
L 285.119759 115.864143 
L 285.555245 114.739242 
L 285.99073 114.434954 
L 286.426216 114.365003 
L 286.861701 114.673662 
L 287.732673 114.438452 
L 288.168158 114.607209 
L 288.603644 114.457251 
L 289.03913 114.783398 
L 289.474615 114.722191 
L 290.345587 114.935979 
L 291.652044 113.997322 
L 292.087529 114.140285 
L 292.523015 114.098314 
L 293.393986 114.237779 
L 293.829472 114.269694 
L 294.700443 111.890918 
L 296.442386 111.639531 
L 296.877871 111.375029 
L 297.313357 111.356229 
L 297.748842 111.152059 
L 298.184328 110.654532 
L 298.619814 110.624802 
L 299.055299 110.42107 
L 299.926271 110.292535 
L 301.232728 110.008795 
L 302.539185 109.359561 
L 302.97467 108.703332 
L 303.410156 108.425713 
L 304.281127 108.157276 
L 304.716613 107.933869 
L 305.152098 107.97584 
L 305.587584 107.734071 
L 306.458555 106.843506 
L 306.894041 107.320048 
L 307.329527 108.030489 
L 308.635984 107.342345 
L 309.506955 107.789595 
L 310.813412 109.997865 
L 311.248897 110.11241 
L 311.684383 110.44599 
L 312.119869 109.52963 
L 312.555354 109.568977 
L 312.99084 109.457056 
L 313.426326 109.528318 
L 313.861811 110.251438 
L 314.297297 110.109787 
L 315.168268 110.334942 
L 315.603754 110.608626 
L 316.039239 110.501076 
L 316.474725 110.235699 
L 316.910211 109.819053 
L 317.345696 109.717186 
L 317.781182 109.880697 
L 318.216668 110.52075 
L 318.652153 110.75771 
L 319.087639 110.65016 
L 319.523125 110.787876 
L 319.95861 110.737162 
L 320.394096 110.806238 
L 320.829581 110.544359 
L 321.265067 110.444241 
L 322.571524 110.766016 
L 323.442495 111.123642 
L 323.877981 111.099596 
L 324.313467 109.949337 
L 324.748952 109.952397 
L 325.184438 109.666909 
L 325.619924 109.903431 
L 326.490895 109.824299 
L 326.92638 109.546243 
L 327.361866 109.022921 
L 328.668323 109.147959 
L 329.97478 108.893949 
L 330.410266 108.586164 
L 330.845751 108.568676 
L 332.587694 109.814681 
L 333.023179 109.959392 
L 333.458665 109.954583 
L 333.894151 110.12028 
L 334.329636 110.410577 
L 334.765122 110.406205 
L 335.200608 110.543484 
L 335.636093 110.392215 
L 336.071579 110.428065 
L 336.507065 109.622752 
L 336.94255 109.627124 
L 337.378036 109.453995 
L 337.813521 110.535615 
L 338.249007 110.234388 
L 338.684493 110.18105 
L 339.119978 109.970322 
L 339.555464 110.132521 
L 339.99095 110.021911 
L 340.426435 110.031967 
L 340.861921 109.85534 
L 341.297407 110.877501 
L 341.732892 111.421808 
L 342.168378 112.788916 
L 342.603864 113.414104 
L 343.039349 112.788479 
L 343.474835 112.951115 
L 343.91032 112.921386 
L 344.345806 113.078776 
L 344.781292 114.159521 
L 345.652263 114.399104 
L 346.087749 115.47198 
L 346.523234 115.154576 
L 346.95872 115.520071 
L 347.394206 115.416893 
L 347.829691 115.496025 
L 348.265177 115.391973 
L 348.700662 115.444874 
L 349.136148 115.652104 
L 350.007119 115.503021 
L 350.442605 115.695823 
L 350.878091 115.660411 
L 351.313576 116.922154 
L 351.749062 117.058559 
L 352.184548 116.724542 
L 352.620033 116.59863 
L 353.055519 116.078806 
L 353.491005 116.309645 
L 353.92649 117.013965 
L 354.361976 116.856138 
L 355.668433 117.149933 
L 356.103918 117.107962 
L 356.539404 116.931336 
L 356.97489 116.993417 
L 357.410375 117.546468 
L 357.845861 117.628224 
L 358.716832 118.084218 
L 359.152318 118.762744 
L 359.587804 119.019377 
L 360.023289 119.070966 
L 360.89426 119.588605 
L 362.200717 119.733753 
L 362.636203 119.278634 
L 363.071689 119.397551 
L 363.94266 119.373942 
L 364.378146 117.461653 
L 365.249117 114.845043 
L 365.684603 114.71301 
L 366.120088 114.878707 
L 366.555574 114.562178 
L 367.862031 114.97795 
L 368.297516 115.690577 
L 368.733002 115.684456 
L 369.168488 116.326258 
L 370.039459 116.289097 
L 370.474945 117.110585 
L 370.91043 117.427989 
L 371.345916 117.317378 
L 372.216887 117.497503 
L 372.652373 117.100093 
L 373.087858 117.128073 
L 373.523344 116.547479 
L 374.829801 115.940215 
L 375.265287 116.325384 
L 376.136258 116.574148 
L 376.571744 116.816791 
L 377.8782 116.864445 
L 378.749172 116.717547 
L 379.620143 119.140917 
L 381.362086 119.392304 
L 381.797571 119.238412 
L 382.233057 118.376264 
L 383.104028 119.476683 
L 383.539514 119.404983 
L 383.974999 119.143978 
L 384.410485 119.057413 
L 385.281456 118.661315 
L 385.716942 118.704597 
L 386.152428 117.482638 
L 387.458885 117.92027 
L 387.89437 118.76493 
L 388.765341 118.562509 
L 389.636313 119.022438 
L 390.071798 118.856741 
L 390.507284 119.018503 
L 390.94277 118.948989 
L 391.813741 118.404682 
L 392.684712 118.912702 
L 393.120198 119.183325 
L 393.555684 119.6485 
L 393.991169 119.467065 
L 394.426655 119.604781 
L 394.86214 119.497231 
L 395.297626 119.263769 
L 395.733112 119.365635 
L 396.604083 119.207371 
L 397.039569 119.761297 
L 398.346026 119.769166 
L 398.781511 119.138294 
L 399.216997 119.40542 
L 399.652483 118.951175 
L 400.087968 119.120806 
L 400.523454 118.980904 
L 400.958939 119.22617 
L 401.394425 119.605218 
L 401.829911 119.376128 
L 401.829911 119.376128 
" clip-path="url(#p24246133b2)" style="fill: none; stroke: #ff7f0e; stroke-opacity: 0.8; stroke-width: 1.5; stroke-linecap: square"/>
   </g>
   <g id="line2d_20">
    <path d="M 0 0 
" clip-path="url(#p24246133b2)" style="fill: none; stroke: #2ca02c; stroke-opacity: 0.8; stroke-width: 1.5; stroke-linecap: square"/>
   </g>
   <g id="line2d_21">
    <path d="M 147.070811 245.004016 
L 157.08698 244.882039 
L 157.522466 244.55764 
L 157.957952 244.088967 
L 159.264409 244.076726 
L 160.13538 243.987538 
L 161.006351 243.983166 
L 161.877322 243.932452 
L 162.312808 243.397325 
L 171.022521 243.117521 
L 171.458007 243.222448 
L 184.08709 242.758147 
L 185.829033 239.952669 
L 186.264518 239.60335 
L 187.13549 238.355597 
L 187.570975 237.982232 
L 188.006461 237.385024 
L 188.441947 236.995484 
L 188.877432 236.394341 
L 189.748403 235.535254 
L 190.183889 234.882522 
L 190.619375 234.557249 
L 192.361317 232.249736 
L 193.232289 231.302772 
L 193.667774 230.741414 
L 194.538746 229.295611 
L 196.280688 226.963615 
L 196.716174 217.331342 
L 197.587145 216.466571 
L 199.764573 213.728421 
L 201.506516 212.185124 
L 202.812973 212.005437 
L 203.248458 212.22622 
L 203.683944 212.180752 
L 204.11943 211.963903 
L 204.990401 212.16239 
L 205.425887 211.990572 
L 207.167829 212.623193 
L 207.603315 212.664289 
L 208.0388 212.336393 
L 208.474286 212.429516 
L 208.909772 212.15452 
L 209.345257 212.072765 
L 210.216229 212.349072 
L 210.651714 212.747356 
L 211.958171 213.296473 
L 212.393657 213.470039 
L 212.829142 213.866574 
L 213.264628 213.730607 
L 213.700114 213.721426 
L 214.135599 213.581086 
L 215.442056 212.722873 
L 216.748513 211.133671 
L 217.619485 209.845695 
L 218.05497 209.440416 
L 218.490456 208.754894 
L 219.361427 207.830228 
L 221.974341 204.342726 
L 222.845312 203.563208 
L 225.02274 201.210226 
L 225.458226 200.398793 
L 226.329197 199.509539 
L 229.377597 196.603506 
L 230.248568 195.846722 
L 230.684054 194.580169 
L 231.119539 193.858798 
L 231.990511 193.011952 
L 232.861482 191.710423 
L 234.603425 189.771028 
L 235.909881 187.988585 
L 237.216338 186.276531 
L 237.651824 185.281476 
L 239.393767 183.124794 
L 242.00668 180.777496 
L 242.877652 180.827773 
L 243.748623 179.540235 
L 245.05508 177.937042 
L 245.490566 177.542255 
L 246.361537 176.259526 
L 246.797022 175.052432 
L 247.232508 175.086096 
L 248.103479 174.070055 
L 248.538965 173.355242 
L 249.845422 172.137218 
L 250.716393 171.195938 
L 251.587365 170.306684 
L 252.02285 169.744451 
L 252.458336 168.855197 
L 253.329307 167.969004 
L 254.200278 167.247195 
L 254.635764 166.540689 
L 255.942221 165.174893 
L 257.248678 163.680561 
L 259.861592 161.07663 
L 261.168049 159.711271 
L 261.603534 159.360641 
L 263.780962 157.051379 
L 264.651934 156.166497 
L 266.393876 154.248524 
L 268.571305 152.288143 
L 269.00679 151.937513 
L 269.877761 151.931829 
L 270.313247 152.341043 
L 270.748733 152.150426 
L 271.184218 152.118948 
L 271.619704 152.373396 
L 272.490675 152.433291 
L 273.797132 152.075229 
L 274.668104 151.589506 
L 275.103589 151.625793 
L 275.539075 151.326752 
L 276.410046 151.630165 
L 276.845532 150.275736 
L 277.281017 150.476408 
L 277.716503 150.216277 
L 278.151989 150.124904 
L 279.02296 150.614562 
L 279.458446 150.961257 
L 279.893931 151.007162 
L 280.329417 151.286967 
L 280.764902 151.355606 
L 281.200388 151.254615 
L 281.635874 160.224975 
L 282.942331 160.127917 
L 283.377816 160.237216 
L 283.813302 158.711844 
L 284.248788 156.660964 
L 284.684273 156.678014 
L 285.555245 156.090425 
L 285.99073 154.418155 
L 286.426216 151.474086 
L 287.297187 151.550595 
L 287.732673 151.657708 
L 288.603644 151.229257 
L 289.03913 150.678392 
L 289.474615 150.807364 
L 290.345587 149.045033 
L 290.781072 149.09837 
L 291.216558 148.754735 
L 291.652044 148.627075 
L 292.087529 147.383693 
L 292.523015 147.495615 
L 292.9585 147.774545 
L 293.393986 147.67399 
L 294.264957 147.715086 
L 294.700443 147.604913 
L 296.0069 147.696287 
L 296.442386 147.730826 
L 297.313357 147.212313 
L 297.748842 147.204443 
L 298.619814 146.894909 
L 299.926271 147.628522 
L 300.797242 147.767987 
L 301.232728 147.408176 
L 302.539185 148.190754 
L 302.97467 148.242343 
L 303.410156 148.553626 
L 303.845641 148.596034 
L 305.152098 149.114547 
L 305.587584 149.212478 
L 306.02307 148.860974 
L 306.458555 147.968659 
L 308.200498 147.7317 
L 308.635984 147.277455 
L 309.071469 147.221931 
L 309.94244 146.814028 
L 310.813412 147.153729 
L 311.248897 147.103888 
L 312.119869 146.725715 
L 312.555354 146.7655 
L 312.99084 146.609421 
L 313.861811 146.623849 
L 314.297297 145.070059 
L 314.732782 141.996143 
L 315.168268 140.298079 
L 315.603754 140.694615 
L 316.039239 139.087924 
L 316.910211 138.73948 
L 317.345696 138.887689 
L 317.781182 136.011385 
L 319.087639 135.543587 
L 320.829581 135.667313 
L 321.265067 135.45746 
L 321.700553 135.616598 
L 322.136038 135.321929 
L 322.571524 135.745134 
L 323.442495 136.002641 
L 323.877981 136.221676 
L 324.313467 136.118935 
L 324.748952 135.335045 
L 325.184438 135.335919 
L 326.490895 134.75926 
L 327.361866 134.41169 
L 327.797352 132.216536 
L 328.232837 132.548366 
L 328.668323 132.604327 
L 329.103809 132.773959 
L 329.539294 132.564542 
L 330.410266 132.656791 
L 330.845751 132.615257 
L 331.281237 132.90774 
L 331.716722 133.734913 
L 333.458665 133.968812 
L 334.329636 133.445927 
L 334.765122 133.317392 
L 335.200608 133.413575 
L 336.071579 133.094422 
L 336.94255 133.294658 
L 337.378036 133.57009 
L 337.813521 132.530441 
L 338.249007 132.229214 
L 338.684493 132.242767 
L 339.119978 132.072698 
L 339.555464 132.233149 
L 339.99095 132.099367 
L 341.297407 132.178062 
L 341.732892 131.906565 
L 342.168378 131.898695 
L 343.039349 131.408163 
L 343.91032 128.17948 
L 344.345806 127.586644 
L 345.216777 126.85784 
L 345.652263 124.968722 
L 346.95872 124.709029 
L 347.829691 124.770673 
L 348.700662 124.218496 
L 349.136148 123.170541 
L 350.878091 123.305634 
L 351.313576 122.906475 
L 351.749062 122.979487 
L 352.620033 122.584263 
L 353.055519 122.587323 
L 353.491005 122.334624 
L 353.92649 120.87046 
L 354.361976 121.262623 
L 354.797461 121.445371 
L 355.232947 121.463295 
L 355.668433 121.821358 
L 356.103918 121.831851 
L 356.539404 121.567348 
L 356.97489 121.607133 
L 357.410375 121.325142 
L 357.845861 121.608444 
L 358.281347 121.658722 
L 358.716832 121.580464 
L 359.587804 121.855896 
L 360.458775 121.974376 
L 361.329746 121.103921 
L 361.765232 122.443486 
L 362.200717 122.381841 
L 362.636203 122.668204 
L 363.071689 122.741653 
L 364.378146 121.762774 
L 365.684603 121.767583 
L 366.120088 121.778076 
L 366.555574 119.099821 
L 366.991059 117.215949 
L 367.862031 114.948221 
L 368.297516 112.774926 
L 368.733002 112.986091 
L 369.168488 115.047901 
L 369.603973 114.780775 
L 370.474945 115.018609 
L 370.91043 116.194225 
L 371.345916 118.856304 
L 371.781401 119.034242 
L 372.216887 118.99096 
L 372.652373 118.766242 
L 373.087858 118.79291 
L 373.523344 118.706783 
L 373.95883 119.293936 
L 374.394315 118.69017 
L 374.829801 119.233165 
L 375.265287 116.931336 
L 375.700772 116.601691 
L 376.136258 116.916471 
L 376.571744 117.060745 
L 377.007229 118.304564 
L 377.442715 118.058423 
L 377.8782 118.118756 
L 378.749172 117.975794 
L 379.184657 117.963989 
L 380.055629 117.31563 
L 382.233057 117.225568 
L 382.668543 116.789247 
L 383.104028 116.722794 
L 383.539514 117.095721 
L 383.974999 116.934396 
L 384.410485 116.524307 
L 385.281456 116.622239 
L 385.716942 116.626611 
L 386.152428 116.853515 
L 387.023399 116.144385 
L 387.89437 115.621938 
L 388.329856 115.606636 
L 389.636313 109.812932 
L 390.071798 108.547691 
L 390.507284 105.848014 
L 390.94277 104.614687 
L 391.378255 105.629853 
L 392.249227 104.681141 
L 392.684712 103.867522 
L 393.120198 103.951026 
L 393.555684 104.582335 
L 394.426655 104.502766 
L 394.86214 104.193232 
L 395.297626 104.377291 
L 395.733112 103.270314 
L 396.168597 103.140904 
L 396.604083 103.148774 
L 397.039569 103.028545 
L 397.475054 103.2008 
L 398.346026 102.750052 
L 398.781511 102.79246 
L 399.216997 104.299033 
L 399.652483 107.282886 
L 400.087968 108.984011 
L 400.523454 109.436507 
L 400.958939 111.187909 
L 401.394425 111.378089 
L 401.829911 111.368471 
L 401.829911 111.368471 
" clip-path="url(#p24246133b2)" style="fill: none; stroke: #d62728; stroke-opacity: 0.8; stroke-width: 1.5; stroke-linecap: square"/>
   </g>
   <g id="line2d_22">
    <path d="M 147.070811 172.695078 
L 147.506296 171.986823 
L 147.941782 170.568563 
L 151.861153 165.617771 
L 153.16761 164.359962 
L 154.474067 163.032639 
L 158.828923 157.287027 
L 159.264409 156.89224 
L 160.13538 155.706131 
L 160.570866 154.321535 
L 161.006351 153.750996 
L 161.441837 153.637325 
L 163.619265 152.463021 
L 164.054751 152.660633 
L 164.490236 152.621285 
L 165.361208 152.011398 
L 166.667665 152.000469 
L 167.10315 151.716292 
L 167.974121 151.554967 
L 168.845093 151.241936 
L 169.280578 151.356044 
L 169.716064 151.354732 
L 170.15155 151.498132 
L 171.893492 151.026399 
L 173.199949 151.276037 
L 173.635435 151.237127 
L 174.07092 150.808676 
L 174.941892 150.408206 
L 175.377377 150.581772 
L 176.248349 150.32645 
L 176.683834 150.208408 
L 177.11932 150.350059 
L 177.554806 150.67096 
L 177.990291 150.608878 
L 178.861262 150.957322 
L 179.732234 150.388095 
L 180.167719 150.559912 
L 181.474176 150.321641 
L 182.780633 149.786952 
L 183.651605 150.133647 
L 184.522576 150.097797 
L 185.829033 149.334456 
L 186.700004 149.277183 
L 187.13549 148.977268 
L 187.570975 148.979453 
L 188.006461 149.279369 
L 189.748403 148.332405 
L 190.183889 148.33634 
L 190.619375 148.507283 
L 191.925832 148.356014 
L 194.538746 149.008308 
L 196.280688 149.748916 
L 196.716174 149.710443 
L 197.151659 149.556113 
L 197.587145 149.595898 
L 198.022631 149.479167 
L 199.329088 149.5924 
L 201.07103 149.551304 
L 201.506516 149.740609 
L 202.812973 149.769464 
L 205.861372 148.273821 
L 206.732343 148.356888 
L 207.167829 148.119929 
L 207.603315 148.078395 
L 208.0388 147.903955 
L 208.474286 148.050852 
L 209.345257 147.475067 
L 209.780743 147.451895 
L 210.651714 147.781103 
L 212.393657 147.629834 
L 212.829142 147.394186 
L 213.264628 147.30937 
L 214.135599 147.376698 
L 214.571085 147.268274 
L 215.006571 147.34828 
L 215.442056 147.611034 
L 215.877542 147.496926 
L 216.313028 147.760555 
L 216.748513 147.882532 
L 217.183999 148.136105 
L 217.619485 148.126049 
L 218.05497 148.396236 
L 218.925941 148.415472 
L 219.361427 148.13217 
L 220.232398 148.260268 
L 220.667884 148.26464 
L 221.10337 148.535701 
L 221.974341 148.474494 
L 222.409827 148.171081 
L 223.716283 148.151407 
L 224.151769 148.181136 
L 224.587255 148.439955 
L 225.02274 148.304425 
L 226.329197 149.082194 
L 228.07114 148.626637 
L 228.506626 148.077084 
L 229.377597 148.560184 
L 229.813082 148.427277 
L 230.684054 151.066621 
L 231.119539 151.111215 
L 231.555025 150.70987 
L 231.990511 150.63511 
L 232.425996 150.701126 
L 232.861482 151.478895 
L 235.474396 150.946392 
L 236.780853 151.376155 
L 238.08731 151.389708 
L 239.393767 151.227071 
L 239.829252 151.387522 
L 240.264738 151.199528 
L 240.700224 151.373969 
L 241.571195 151.340305 
L 242.00668 151.548847 
L 244.184109 150.893055 
L 245.05508 151.187724 
L 245.490566 152.15611 
L 245.926051 152.323118 
L 246.361537 152.612541 
L 246.797022 152.616039 
L 247.667994 153.055419 
L 248.103479 151.779685 
L 248.538965 151.943633 
L 248.974451 151.902974 
L 249.409936 151.724162 
L 250.280908 152.208136 
L 252.02285 152.069545 
L 253.764793 152.697794 
L 254.635764 152.273278 
L 255.07125 152.002217 
L 255.506735 151.978172 
L 256.813192 152.527725 
L 257.248678 152.483132 
L 257.684164 152.151301 
L 258.119649 152.076541 
L 258.555135 151.777937 
L 259.426106 152.041565 
L 259.861592 150.841466 
L 260.297077 150.603632 
L 260.732563 150.750092 
L 261.168049 150.565159 
L 261.603534 150.592265 
L 262.03902 150.310711 
L 262.474506 150.329511 
L 263.780962 149.569229 
L 264.216448 149.766404 
L 264.651934 149.837667 
L 265.087419 149.641803 
L 265.958391 149.514143 
L 266.829362 149.136844 
L 267.264848 149.033228 
L 267.700333 148.696589 
L 269.00679 148.269887 
L 270.313247 148.138291 
L 270.748733 148.080144 
L 271.184218 147.643387 
L 272.05519 148.040797 
L 272.490675 147.722956 
L 272.926161 147.125311 
L 273.361647 147.093833 
L 273.797132 147.372326 
L 275.103589 147.065852 
L 276.410046 146.074295 
L 276.845532 146.050249 
L 277.281017 145.867502 
L 278.587474 145.752957 
L 279.02296 145.903352 
L 279.893931 145.542666 
L 281.200388 145.470529 
L 281.635874 145.413694 
L 282.506845 145.097602 
L 282.942331 144.10211 
L 283.377816 144.079813 
L 283.813302 143.933353 
L 284.684273 144.15195 
L 285.119759 144.069757 
L 285.99073 144.230208 
L 287.297187 143.789516 
L 288.603644 143.473424 
L 290.781072 143.083009 
L 291.216558 141.76443 
L 291.652044 141.432599 
L 292.087529 141.348658 
L 292.523015 141.09421 
L 292.9585 140.968736 
L 293.393986 140.584441 
L 293.829472 140.631658 
L 294.264957 140.792546 
L 295.135929 140.090849 
L 295.571414 139.752023 
L 296.0069 139.928212 
L 296.442386 139.957504 
L 296.877871 139.851266 
L 297.313357 139.567964 
L 298.184328 139.854764 
L 299.490785 139.950072 
L 299.926271 138.526129 
L 301.668213 138.269496 
L 302.103699 138.333763 
L 302.539185 138.523069 
L 302.97467 138.327205 
L 303.845641 138.664282 
L 304.716613 138.31409 
L 305.152098 138.489405 
L 305.587584 138.533998 
L 306.02307 138.21266 
L 306.458555 138.275179 
L 306.894041 138.210037 
L 307.765012 138.48547 
L 308.200498 138.63499 
L 309.071469 137.907936 
L 309.506955 137.787707 
L 309.94244 137.939414 
L 311.248897 137.000757 
L 312.119869 136.734942 
L 312.555354 136.906323 
L 312.99084 136.8849 
L 313.426326 137.326904 
L 313.861811 136.315673 
L 314.297297 135.920012 
L 315.168268 135.991274 
L 315.603754 136.27239 
L 316.039239 136.199816 
L 316.474725 136.372508 
L 316.910211 136.274576 
L 317.781182 136.617337 
L 318.216668 136.361141 
L 318.652153 136.394805 
L 320.394096 137.11399 
L 320.829581 137.010812 
L 321.700553 136.151725 
L 322.571524 135.862302 
L 323.00701 135.341603 
L 323.442495 135.000591 
L 323.877981 134.421745 
L 324.748952 133.76027 
L 325.184438 133.980179 
L 325.619924 133.640041 
L 326.055409 133.515004 
L 326.490895 133.637418 
L 326.92638 133.614684 
L 327.361866 133.7712 
L 327.797352 133.717425 
L 328.232837 134.018652 
L 328.668323 133.856016 
L 329.103809 133.42363 
L 329.97478 133.348433 
L 331.716722 132.51033 
L 332.152208 131.877272 
L 332.587694 131.865031 
L 333.023179 133.264491 
L 334.329636 132.695264 
L 334.765122 132.666409 
L 335.200608 132.132157 
L 336.071579 131.586538 
L 336.507065 131.532763 
L 336.94255 130.894022 
L 337.813521 130.852488 
L 338.684493 130.691163 
L 339.119978 130.538145 
L 339.555464 130.213747 
L 340.426435 130.174399 
L 341.297407 129.474888 
L 341.732892 129.398816 
L 342.168378 129.082724 
L 342.603864 129.367338 
L 343.039349 129.302633 
L 343.91032 129.623534 
L 344.345806 129.554894 
L 344.781292 130.265336 
L 345.216777 130.382504 
L 345.652263 130.209375 
L 346.087749 130.448957 
L 346.523234 130.05898 
L 347.829691 130.682419 
L 348.265177 130.890524 
L 349.136148 130.622087 
L 350.007119 130.921565 
L 350.442605 130.911072 
L 350.878091 130.782537 
L 352.184548 130.942987 
L 352.620033 131.234159 
L 353.92649 131.390675 
L 354.797461 131.882519 
L 355.232947 131.833116 
L 356.103918 132.230963 
L 356.97489 131.723817 
L 357.410375 131.775843 
L 357.845861 132.15664 
L 358.281347 132.250637 
L 358.716832 132.208229 
L 359.152318 130.946922 
L 359.587804 131.069774 
L 360.023289 131.367066 
L 361.329746 131.601403 
L 361.765232 129.710536 
L 362.636203 129.626157 
L 363.071689 129.48232 
L 363.94266 129.519482 
L 364.378146 129.319684 
L 365.249117 129.392258 
L 366.555574 129.56801 
L 366.991059 128.938887 
L 367.862031 129.540904 
L 368.297516 128.467591 
L 369.168488 128.527924 
L 370.039459 128.459722 
L 370.91043 128.570769 
L 371.345916 128.747396 
L 372.216887 128.764446 
L 372.652373 129.014085 
L 373.087858 128.765321 
L 374.829801 129.351599 
L 375.700772 129.843006 
L 376.136258 130.778602 
L 377.007229 131.249461 
L 377.8782 131.370127 
L 378.313686 131.479863 
L 379.184657 131.20137 
L 379.620143 131.338211 
L 380.491114 131.274818 
L 381.362086 130.819261 
L 381.797571 131.082453 
L 382.233057 131.029552 
L 382.668543 130.781225 
L 383.974999 130.742315 
L 384.410485 129.821146 
L 384.845971 131.35395 
L 385.716942 131.315915 
L 388.765341 131.101252 
L 389.200827 131.211862 
L 389.636313 131.557246 
L 390.507284 131.182133 
L 390.94277 131.08901 
L 391.378255 131.226727 
L 391.813741 131.225852 
L 392.249227 130.601976 
L 393.120198 130.10576 
L 393.555684 130.354523 
L 395.733112 130.44546 
L 396.168597 130.708651 
L 397.91054 130.615091 
L 398.346026 130.41267 
L 398.781511 131.102564 
L 399.652483 131.239843 
L 400.087968 131.00332 
L 401.394425 130.804397 
L 401.829911 130.823196 
L 401.829911 130.823196 
" clip-path="url(#p24246133b2)" style="fill: none; stroke: #9467bd; stroke-opacity: 0.8; stroke-width: 1.5; stroke-linecap: square"/>
   </g>
   <g id="patch_3">
    <path d="M 61.715625 288.430125 
L 61.715625 22.318125 
" style="fill: none; stroke: #000000; stroke-width: 0.8; stroke-linejoin: miter; stroke-linecap: square"/>
   </g>
   <g id="patch_4">
    <path d="M 418.835625 288.430125 
L 418.835625 22.318125 
" style="fill: none; stroke: #000000; stroke-width: 0.8; stroke-linejoin: miter; stroke-linecap: square"/>
   </g>
   <g id="patch_5">
    <path d="M 61.715625 288.430125 
L 418.835625 288.430125 
" style="fill: none; stroke: #000000; stroke-width: 0.8; stroke-linejoin: miter; stroke-linecap: square"/>
   </g>
   <g id="patch_6">
    <path d="M 61.715625 22.318125 
L 418.835625 22.318125 
" style="fill: none; stroke: #000000; stroke-width: 0.8; stroke-linejoin: miter; stroke-linecap: square"/>
   </g>
   <g id="text_20">
    <!-- Get filtered descendants count [branch] -->
    <g transform="translate(119.980313 16.318125) scale(0.12 -0.12)">
     <defs>
      <path id="DejaVuSans-47" d="M 3809 666 
L 3809 1919 
L 2778 1919 
L 2778 2438 
L 4434 2438 
L 4434 434 
Q 4069 175 3628 42 
Q 3188 -91 2688 -91 
Q 1594 -91 976 548 
Q 359 1188 359 2328 
Q 359 3472 976 4111 
Q 1594 4750 2688 4750 
Q 3144 4750 3555 4637 
Q 3966 4525 4313 4306 
L 4313 3634 
Q 3963 3931 3569 4081 
Q 3175 4231 2741 4231 
Q 1884 4231 1454 3753 
Q 1025 3275 1025 2328 
Q 1025 1384 1454 906 
Q 1884 428 2741 428 
Q 3075 428 3337 486 
Q 3600 544 3809 666 
z
" transform="scale(0.015625)"/>
      <path id="DejaVuSans-72" d="M 2631 2963 
Q 2534 3019 2420 3045 
Q 2306 3072 2169 3072 
Q 1681 3072 1420 2755 
Q 1159 2438 1159 1844 
L 1159 0 
L 581 0 
L 581 3500 
L 1159 3500 
L 1159 2956 
Q 1341 3275 1631 3429 
Q 1922 3584 2338 3584 
Q 2397 3584 2469 3576 
Q 2541 3569 2628 3553 
L 2631 2963 
z
" transform="scale(0.015625)"/>
      <path id="DejaVuSans-5b" d="M 550 4863 
L 1875 4863 
L 1875 4416 
L 1125 4416 
L 1125 -397 
L 1875 -397 
L 1875 -844 
L 550 -844 
L 550 4863 
z
" transform="scale(0.015625)"/>
      <path id="DejaVuSans-68" d="M 3513 2113 
L 3513 0 
L 2938 0 
L 2938 2094 
Q 2938 2591 2744 2837 
Q 2550 3084 2163 3084 
Q 1697 3084 1428 2787 
Q 1159 2491 1159 1978 
L 1159 0 
L 581 0 
L 581 4863 
L 1159 4863 
L 1159 2956 
Q 1366 3272 1645 3428 
Q 1925 3584 2291 3584 
Q 2894 3584 3203 3211 
Q 3513 2838 3513 2113 
z
" transform="scale(0.015625)"/>
      <path id="DejaVuSans-5d" d="M 1947 4863 
L 1947 -844 
L 622 -844 
L 622 -397 
L 1369 -397 
L 1369 4416 
L 622 4416 
L 622 4863 
L 1947 4863 
z
" transform="scale(0.015625)"/>
     </defs>
     <use xlink:href="#DejaVuSans-47"/>
     <use xlink:href="#DejaVuSans-65" transform="translate(77.490234 0)"/>
     <use xlink:href="#DejaVuSans-74" transform="translate(139.013672 0)"/>
     <use xlink:href="#DejaVuSans-20" transform="translate(178.222656 0)"/>
     <use xlink:href="#DejaVuSans-66" transform="translate(210.009766 0)"/>
     <use xlink:href="#DejaVuSans-69" transform="translate(245.214844 0)"/>
     <use xlink:href="#DejaVuSans-6c" transform="translate(272.998047 0)"/>
     <use xlink:href="#DejaVuSans-74" transform="translate(300.78125 0)"/>
     <use xlink:href="#DejaVuSans-65" transform="translate(339.990234 0)"/>
     <use xlink:href="#DejaVuSans-72" transform="translate(401.513672 0)"/>
     <use xlink:href="#DejaVuSans-65" transform="translate(440.376953 0)"/>
     <use xlink:href="#DejaVuSans-64" transform="translate(501.900391 0)"/>
     <use xlink:href="#DejaVuSans-20" transform="translate(565.376953 0)"/>
     <use xlink:href="#DejaVuSans-64" transform="translate(597.164062 0)"/>
     <use xlink:href="#DejaVuSans-65" transform="translate(660.640625 0)"/>
     <use xlink:href="#DejaVuSans-73" transform="translate(722.164062 0)"/>
     <use xlink:href="#DejaVuSans-63" transform="translate(774.263672 0)"/>
     <use xlink:href="#DejaVuSans-65" transform="translate(829.244141 0)"/>
     <use xlink:href="#DejaVuSans-6e" transform="translate(890.767578 0)"/>
     <use xlink:href="#DejaVuSans-64" transform="translate(954.146484 0)"/>
     <use xlink:href="#DejaVuSans-61" transform="translate(1017.623047 0)"/>
     <use xlink:href="#DejaVuSans-6e" transform="translate(1078.902344 0)"/>
     <use xlink:href="#DejaVuSans-74" transform="translate(1142.28125 0)"/>
     <use xlink:href="#DejaVuSans-73" transform="translate(1181.490234 0)"/>
     <use xlink:href="#DejaVuSans-20" transform="translate(1233.589844 0)"/>
     <use xlink:href="#DejaVuSans-63" transform="translate(1265.376953 0)"/>
     <use xlink:href="#DejaVuSans-6f" transform="translate(1320.357422 0)"/>
     <use xlink:href="#DejaVuSans-75" transform="translate(1381.539062 0)"/>
     <use xlink:href="#DejaVuSans-6e" transform="translate(1444.917969 0)"/>
     <use xlink:href="#DejaVuSans-74" transform="translate(1508.296875 0)"/>
     <use xlink:href="#DejaVuSans-20" transform="translate(1547.505859 0)"/>
     <use xlink:href="#DejaVuSans-5b" transform="translate(1579.292969 0)"/>
     <use xlink:href="#DejaVuSans-62" transform="translate(1618.306641 0)"/>
     <use xlink:href="#DejaVuSans-72" transform="translate(1681.783203 0)"/>
     <use xlink:href="#DejaVuSans-61" transform="translate(1722.896484 0)"/>
     <use xlink:href="#DejaVuSans-6e" transform="translate(1784.175781 0)"/>
     <use xlink:href="#DejaVuSans-63" transform="translate(1847.554688 0)"/>
     <use xlink:href="#DejaVuSans-68" transform="translate(1902.535156 0)"/>
     <use xlink:href="#DejaVuSans-5d" transform="translate(1965.914062 0)"/>
    </g>
   </g>
   <g id="legend_1">
    <g id="patch_7">
     <path d="M 92.717969 365.802375 
L 380.313281 365.802375 
Q 382.313281 365.802375 382.313281 363.802375 
L 382.313281 335.446125 
Q 382.313281 333.446125 380.313281 333.446125 
L 92.717969 333.446125 
Q 90.717969 333.446125 90.717969 335.446125 
L 90.717969 363.802375 
Q 90.717969 365.802375 92.717969 365.802375 
z
" style="fill: #4d4d4d; opacity: 0.5; stroke: #4d4d4d; stroke-linejoin: miter"/>
    </g>
    <g id="patch_8">
     <path d="M 90.717969 363.802375 
L 378.313281 363.802375 
Q 380.313281 363.802375 380.313281 361.802375 
L 380.313281 333.446125 
Q 380.313281 331.446125 378.313281 331.446125 
L 90.717969 331.446125 
Q 88.717969 331.446125 88.717969 333.446125 
L 88.717969 361.802375 
Q 88.717969 363.802375 90.717969 363.802375 
z
" style="fill: #ffffff; stroke: #cccccc; stroke-linejoin: miter"/>
    </g>
    <g id="line2d_23">
     <path d="M 92.717969 339.544562 
L 102.717969 339.544562 
L 112.717969 339.544562 
" style="fill: none; stroke: #1f77b4; stroke-opacity: 0.8; stroke-width: 1.5; stroke-linecap: square"/>
    </g>
    <g id="text_21">
     <!-- MPTT -->
     <g transform="translate(120.717969 343.044562) scale(0.1 -0.1)">
      <defs>
       <path id="DejaVuSans-4d" d="M 628 4666 
L 1569 4666 
L 2759 1491 
L 3956 4666 
L 4897 4666 
L 4897 0 
L 4281 0 
L 4281 4097 
L 3078 897 
L 2444 897 
L 1241 4097 
L 1241 0 
L 628 0 
L 628 4666 
z
" transform="scale(0.015625)"/>
       <path id="DejaVuSans-50" d="M 1259 4147 
L 1259 2394 
L 2053 2394 
Q 2494 2394 2734 2622 
Q 2975 2850 2975 3272 
Q 2975 3691 2734 3919 
Q 2494 4147 2053 4147 
L 1259 4147 
z
M 628 4666 
L 2053 4666 
Q 2838 4666 3239 4311 
Q 3641 3956 3641 3272 
Q 3641 2581 3239 2228 
Q 2838 1875 2053 1875 
L 1259 1875 
L 1259 0 
L 628 0 
L 628 4666 
z
" transform="scale(0.015625)"/>
       <path id="DejaVuSans-54" d="M -19 4666 
L 3928 4666 
L 3928 4134 
L 2272 4134 
L 2272 0 
L 1638 0 
L 1638 4134 
L -19 4134 
L -19 4666 
z
" transform="scale(0.015625)"/>
      </defs>
      <use xlink:href="#DejaVuSans-4d"/>
      <use xlink:href="#DejaVuSans-50" transform="translate(86.279297 0)"/>
      <use xlink:href="#DejaVuSans-54" transform="translate(146.582031 0)"/>
      <use xlink:href="#DejaVuSans-54" transform="translate(205.916016 0)"/>
     </g>
    </g>
    <g id="line2d_24">
     <path d="M 92.717969 354.222687 
L 102.717969 354.222687 
L 112.717969 354.222687 
" style="fill: none; stroke: #ff7f0e; stroke-opacity: 0.8; stroke-width: 1.5; stroke-linecap: square"/>
    </g>
    <g id="text_22">
     <!-- tree -->
     <g transform="translate(120.717969 357.722687) scale(0.1 -0.1)">
      <use xlink:href="#DejaVuSans-74"/>
      <use xlink:href="#DejaVuSans-72" transform="translate(39.208984 0)"/>
      <use xlink:href="#DejaVuSans-65" transform="translate(78.072266 0)"/>
      <use xlink:href="#DejaVuSans-65" transform="translate(139.595703 0)"/>
     </g>
    </g>
    <g id="line2d_25">
     <path d="M 167.416406 339.544562 
L 177.416406 339.544562 
L 187.416406 339.544562 
" style="fill: none; stroke: #2ca02c; stroke-opacity: 0.8; stroke-width: 1.5; stroke-linecap: square"/>
    </g>
    <g id="text_23">
     <!-- treebeard AL -->
     <g transform="translate(195.416406 343.044562) scale(0.1 -0.1)">
      <defs>
       <path id="DejaVuSans-4c" d="M 628 4666 
L 1259 4666 
L 1259 531 
L 3531 531 
L 3531 0 
L 628 0 
L 628 4666 
z
" transform="scale(0.015625)"/>
      </defs>
      <use xlink:href="#DejaVuSans-74"/>
      <use xlink:href="#DejaVuSans-72" transform="translate(39.208984 0)"/>
      <use xlink:href="#DejaVuSans-65" transform="translate(78.072266 0)"/>
      <use xlink:href="#DejaVuSans-65" transform="translate(139.595703 0)"/>
      <use xlink:href="#DejaVuSans-62" transform="translate(201.119141 0)"/>
      <use xlink:href="#DejaVuSans-65" transform="translate(264.595703 0)"/>
      <use xlink:href="#DejaVuSans-61" transform="translate(326.119141 0)"/>
      <use xlink:href="#DejaVuSans-72" transform="translate(387.398438 0)"/>
      <use xlink:href="#DejaVuSans-64" transform="translate(426.761719 0)"/>
      <use xlink:href="#DejaVuSans-20" transform="translate(490.238281 0)"/>
      <use xlink:href="#DejaVuSans-41" transform="translate(522.025391 0)"/>
      <use xlink:href="#DejaVuSans-4c" transform="translate(590.433594 0)"/>
     </g>
    </g>
    <g id="line2d_26">
     <path d="M 167.416406 354.222687 
L 177.416406 354.222687 
L 187.416406 354.222687 
" style="fill: none; stroke: #d62728; stroke-opacity: 0.8; stroke-width: 1.5; stroke-linecap: square"/>
    </g>
    <g id="text_24">
     <!-- treebeard MP -->
     <g transform="translate(195.416406 357.722687) scale(0.1 -0.1)">
      <use xlink:href="#DejaVuSans-74"/>
      <use xlink:href="#DejaVuSans-72" transform="translate(39.208984 0)"/>
      <use xlink:href="#DejaVuSans-65" transform="translate(78.072266 0)"/>
      <use xlink:href="#DejaVuSans-65" transform="translate(139.595703 0)"/>
      <use xlink:href="#DejaVuSans-62" transform="translate(201.119141 0)"/>
      <use xlink:href="#DejaVuSans-65" transform="translate(264.595703 0)"/>
      <use xlink:href="#DejaVuSans-61" transform="translate(326.119141 0)"/>
      <use xlink:href="#DejaVuSans-72" transform="translate(387.398438 0)"/>
      <use xlink:href="#DejaVuSans-64" transform="translate(426.761719 0)"/>
      <use xlink:href="#DejaVuSans-20" transform="translate(490.238281 0)"/>
      <use xlink:href="#DejaVuSans-4d" transform="translate(522.025391 0)"/>
      <use xlink:href="#DejaVuSans-50" transform="translate(608.304688 0)"/>
     </g>
    </g>
    <g id="line2d_27">
     <path d="M 282.278906 339.544562 
L 292.278906 339.544562 
L 302.278906 339.544562 
" style="fill: none; stroke: #9467bd; stroke-opacity: 0.8; stroke-width: 1.5; stroke-linecap: square"/>
    </g>
    <g id="text_25">
     <!-- treebeard NS -->
     <g transform="translate(310.278906 343.044562) scale(0.1 -0.1)">
      <defs>
       <path id="DejaVuSans-4e" d="M 628 4666 
L 1478 4666 
L 3547 763 
L 3547 4666 
L 4159 4666 
L 4159 0 
L 3309 0 
L 1241 3903 
L 1241 0 
L 628 0 
L 628 4666 
z
" transform="scale(0.015625)"/>
       <path id="DejaVuSans-53" d="M 3425 4513 
L 3425 3897 
Q 3066 4069 2747 4153 
Q 2428 4238 2131 4238 
Q 1616 4238 1336 4038 
Q 1056 3838 1056 3469 
Q 1056 3159 1242 3001 
Q 1428 2844 1947 2747 
L 2328 2669 
Q 3034 2534 3370 2195 
Q 3706 1856 3706 1288 
Q 3706 609 3251 259 
Q 2797 -91 1919 -91 
Q 1588 -91 1214 -16 
Q 841 59 441 206 
L 441 856 
Q 825 641 1194 531 
Q 1563 422 1919 422 
Q 2459 422 2753 634 
Q 3047 847 3047 1241 
Q 3047 1584 2836 1778 
Q 2625 1972 2144 2069 
L 1759 2144 
Q 1053 2284 737 2584 
Q 422 2884 422 3419 
Q 422 4038 858 4394 
Q 1294 4750 2059 4750 
Q 2388 4750 2728 4690 
Q 3069 4631 3425 4513 
z
" transform="scale(0.015625)"/>
      </defs>
      <use xlink:href="#DejaVuSans-74"/>
      <use xlink:href="#DejaVuSans-72" transform="translate(39.208984 0)"/>
      <use xlink:href="#DejaVuSans-65" transform="translate(78.072266 0)"/>
      <use xlink:href="#DejaVuSans-65" transform="translate(139.595703 0)"/>
      <use xlink:href="#DejaVuSans-62" transform="translate(201.119141 0)"/>
      <use xlink:href="#DejaVuSans-65" transform="translate(264.595703 0)"/>
      <use xlink:href="#DejaVuSans-61" transform="translate(326.119141 0)"/>
      <use xlink:href="#DejaVuSans-72" transform="translate(387.398438 0)"/>
      <use xlink:href="#DejaVuSans-64" transform="translate(426.761719 0)"/>
      <use xlink:href="#DejaVuSans-20" transform="translate(490.238281 0)"/>
      <use xlink:href="#DejaVuSans-4e" transform="translate(522.025391 0)"/>
      <use xlink:href="#DejaVuSans-53" transform="translate(596.830078 0)"/>
     </g>
    </g>
   </g>
  </g>
 </g>
 <defs>
  <clipPath id="p24246133b2">
   <rect x="61.715625" y="22.318125" width="357.12" height="266.112"/>
  </clipPath>
 </defs>
</svg>
