<?xml version="1.0" encoding="utf-8" standalone="no"?>
<!DOCTYPE svg PUBLIC "-//W3C//DTD SVG 1.1//EN"
  "http://www.w3.org/Graphics/SVG/1.1/DTD/svg11.dtd">
<svg xmlns:xlink="http://www.w3.org/1999/xlink" width="426.035625pt" height="371.002375pt" viewBox="0 0 426.035625 371.002375" xmlns="http://www.w3.org/2000/svg" version="1.1">
 <metadata>
  <rdf:RDF xmlns:dc="http://purl.org/dc/elements/1.1/" xmlns:cc="http://creativecommons.org/ns#" xmlns:rdf="http://www.w3.org/1999/02/22-rdf-syntax-ns#">
   <cc:Work>
    <dc:type rdf:resource="http://purl.org/dc/dcmitype/StillImage"/>
    <dc:date>2026-06-28T14:41:54.150854</dc:date>
    <dc:format>image/svg+xml</dc:format>
    <dc:creator>
     <cc:Agent>
      <dc:title>Matplotlib v3.10.6, https://matplotlib.org/</dc:title>
     </cc:Agent>
    </dc:creator>
   </cc:Work>
  </rdf:RDF>
 </metadata>
 <defs>
  <style type="text/css">*{stroke-linejoin: round; stroke-linecap: butt}</style>
 </defs>
 <g id="figure_1">
  <g id="patch_1">
   <path d="M 0 371.002375 
L 426.035625 371.002375 
L 426.035625 0 
L 0 0 
z
" style="fill: #ffffff"/>
  </g>
  <g id="axes_1">
   <g id="patch_2">
    <path d="M 61.715625 288.430125 
L 418.835625 288.430125 
L 418.835625 22.318125 
L 61.715625 22.318125 
z
" style="fill: #ffffff"/>
   </g>
   <g id="matplotlib.axis_1">
    <g id="xtick_1">
     <g id="line2d_1">
      <defs>
       <path id="me31558adf5" d="M 0 0 
L 0 3.5 
" style="stroke: #000000; stroke-width: 0.8"/>
      </defs>
      <g>
       <use xlink:href="#me31558adf5" x="61.715625" y="288.430125" style="stroke: #000000; stroke-width: 0.8"/>
      </g>
     </g>
     <g id="text_1">
      <!-- 0 -->
      <g transform="translate(58.534375 303.028562) scale(0.1 -0.1)">
       <defs>
        <path id="DejaVuSans-30" d="M 2034 4250 
Q 1547 4250 1301 3770 
Q 1056 3291 1056 2328 
Q 1056 1369 1301 889 
Q 1547 409 2034 409 
Q 2525 409 2770 889 
Q 3016 1369 3016 2328 
Q 3016 3291 2770 3770 
Q 2525 4250 2034 4250 
z
M 2034 4750 
Q 2819 4750 3233 4129 
Q 3647 3509 3647 2328 
Q 3647 1150 3233 529 
Q 2819 -91 2034 -91 
Q 1250 -91 836 529 
Q 422 1150 422 2328 
Q 422 3509 836 4129 
Q 1250 4750 2034 4750 
z
" transform="scale(0.015625)"/>
       </defs>
       <use xlink:href="#DejaVuSans-30"/>
      </g>
     </g>
    </g>
    <g id="xtick_2">
     <g id="line2d_2">
      <g>
       <use xlink:href="#me31558adf5" x="105.264189" y="288.430125" style="stroke: #000000; stroke-width: 0.8"/>
      </g>
     </g>
     <g id="text_2">
      <!-- 500  -->
      <g transform="translate(94.131377 303.028562) scale(0.1 -0.1)">
       <defs>
        <path id="DejaVuSans-35" d="M 691 4666 
L 3169 4666 
L 3169 4134 
L 1269 4134 
L 1269 2991 
Q 1406 3038 1543 3061 
Q 1681 3084 1819 3084 
Q 2600 3084 3056 2656 
Q 3513 2228 3513 1497 
Q 3513 744 3044 326 
Q 2575 -91 1722 -91 
Q 1428 -91 1123 -41 
Q 819 9 494 109 
L 494 744 
Q 775 591 1075 516 
Q 1375 441 1709 441 
Q 2250 441 2565 725 
Q 2881 1009 2881 1497 
Q 2881 1984 2565 2268 
Q 2250 2553 1709 2553 
Q 1456 2553 1204 2497 
Q 953 2441 691 2322 
L 691 4666 
z
" transform="scale(0.015625)"/>
        <path id="DejaVuSans-20" transform="scale(0.015625)"/>
       </defs>
       <use xlink:href="#DejaVuSans-35"/>
       <use xlink:href="#DejaVuSans-30" transform="translate(63.623047 0)"/>
       <use xlink:href="#DejaVuSans-30" transform="translate(127.246094 0)"/>
       <use xlink:href="#DejaVuSans-20" transform="translate(190.869141 0)"/>
      </g>
     </g>
    </g>
    <g id="xtick_3">
     <g id="line2d_3">
      <g>
       <use xlink:href="#me31558adf5" x="148.812753" y="288.430125" style="stroke: #000000; stroke-width: 0.8"/>
      </g>
     </g>
     <g id="text_3">
      <!-- 1 k -->
      <g transform="translate(141.147128 303.028562) scale(0.1 -0.1)">
       <defs>
        <path id="DejaVuSans-31" d="M 794 531 
L 1825 531 
L 1825 4091 
L 703 3866 
L 703 4441 
L 1819 4666 
L 2450 4666 
L 2450 531 
L 3481 531 
L 3481 0 
L 794 0 
L 794 531 
z
" transform="scale(0.015625)"/>
        <path id="DejaVuSans-6b" d="M 581 4863 
L 1159 4863 
L 1159 1991 
L 2875 3500 
L 3609 3500 
L 1753 1863 
L 3688 0 
L 2938 0 
L 1159 1709 
L 1159 0 
L 581 0 
L 581 4863 
z
" transform="scale(0.015625)"/>
       </defs>
       <use xlink:href="#DejaVuSans-31"/>
       <use xlink:href="#DejaVuSans-20" transform="translate(63.623047 0)"/>
       <use xlink:href="#DejaVuSans-6b" transform="translate(95.410156 0)"/>
      </g>
     </g>
    </g>
    <g id="xtick_4">
     <g id="line2d_4">
      <g>
       <use xlink:href="#me31558adf5" x="192.361317" y="288.430125" style="stroke: #000000; stroke-width: 0.8"/>
      </g>
     </g>
     <g id="text_4">
      <!-- 1.5 k -->
      <g transform="translate(179.92538 303.028562) scale(0.1 -0.1)">
       <defs>
        <path id="DejaVuSans-2e" d="M 684 794 
L 1344 794 
L 1344 0 
L 684 0 
L 684 794 
z
" transform="scale(0.015625)"/>
       </defs>
       <use xlink:href="#DejaVuSans-31"/>
       <use xlink:href="#DejaVuSans-2e" transform="translate(63.623047 0)"/>
       <use xlink:href="#DejaVuSans-35" transform="translate(95.410156 0)"/>
       <use xlink:href="#DejaVuSans-20" transform="translate(159.033203 0)"/>
       <use xlink:href="#DejaVuSans-6b" transform="translate(190.820312 0)"/>
      </g>
     </g>
    </g>
    <g id="xtick_5">
     <g id="line2d_5">
      <g>
       <use xlink:href="#me31558adf5" x="235.909881" y="288.430125" style="stroke: #000000; stroke-width: 0.8"/>
      </g>
     </g>
     <g id="text_5">
      <!-- 2 k -->
      <g transform="translate(228.244256 303.028562) scale(0.1 -0.1)">
       <defs>
        <path id="DejaVuSans-32" d="M 1228 531 
L 3431 531 
L 3431 0 
L 469 0 
L 469 531 
Q 828 903 1448 1529 
Q 2069 2156 2228 2338 
Q 2531 2678 2651 2914 
Q 2772 3150 2772 3378 
Q 2772 3750 2511 3984 
Q 2250 4219 1831 4219 
Q 1534 4219 1204 4116 
Q 875 4013 500 3803 
L 500 4441 
Q 881 4594 1212 4672 
Q 1544 4750 1819 4750 
Q 2544 4750 2975 4387 
Q 3406 4025 3406 3419 
Q 3406 3131 3298 2873 
Q 3191 2616 2906 2266 
Q 2828 2175 2409 1742 
Q 1991 1309 1228 531 
z
" transform="scale(0.015625)"/>
       </defs>
       <use xlink:href="#DejaVuSans-32"/>
       <use xlink:href="#DejaVuSans-20" transform="translate(63.623047 0)"/>
       <use xlink:href="#DejaVuSans-6b" transform="translate(95.410156 0)"/>
      </g>
     </g>
    </g>
    <g id="xtick_6">
     <g id="line2d_6">
      <g>
       <use xlink:href="#me31558adf5" x="279.458446" y="288.430125" style="stroke: #000000; stroke-width: 0.8"/>
      </g>
     </g>
     <g id="text_6">
      <!-- 2.5 k -->
      <g transform="translate(267.022508 303.028562) scale(0.1 -0.1)">
       <use xlink:href="#DejaVuSans-32"/>
       <use xlink:href="#DejaVuSans-2e" transform="translate(63.623047 0)"/>
       <use xlink:href="#DejaVuSans-35" transform="translate(95.410156 0)"/>
       <use xlink:href="#DejaVuSans-20" transform="translate(159.033203 0)"/>
       <use xlink:href="#DejaVuSans-6b" transform="translate(190.820312 0)"/>
      </g>
     </g>
    </g>
    <g id="xtick_7">
     <g id="line2d_7">
      <g>
       <use xlink:href="#me31558adf5" x="323.00701" y="288.430125" style="stroke: #000000; stroke-width: 0.8"/>
      </g>
     </g>
     <g id="text_7">
      <!-- 3 k -->
      <g transform="translate(315.341385 303.028562) scale(0.1 -0.1)">
       <defs>
        <path id="DejaVuSans-33" d="M 2597 2516 
Q 3050 2419 3304 2112 
Q 3559 1806 3559 1356 
Q 3559 666 3084 287 
Q 2609 -91 1734 -91 
Q 1441 -91 1130 -33 
Q 819 25 488 141 
L 488 750 
Q 750 597 1062 519 
Q 1375 441 1716 441 
Q 2309 441 2620 675 
Q 2931 909 2931 1356 
Q 2931 1769 2642 2001 
Q 2353 2234 1838 2234 
L 1294 2234 
L 1294 2753 
L 1863 2753 
Q 2328 2753 2575 2939 
Q 2822 3125 2822 3475 
Q 2822 3834 2567 4026 
Q 2313 4219 1838 4219 
Q 1578 4219 1281 4162 
Q 984 4106 628 3988 
L 628 4550 
Q 988 4650 1302 4700 
Q 1616 4750 1894 4750 
Q 2613 4750 3031 4423 
Q 3450 4097 3450 3541 
Q 3450 3153 3228 2886 
Q 3006 2619 2597 2516 
z
" transform="scale(0.015625)"/>
       </defs>
       <use xlink:href="#DejaVuSans-33"/>
       <use xlink:href="#DejaVuSans-20" transform="translate(63.623047 0)"/>
       <use xlink:href="#DejaVuSans-6b" transform="translate(95.410156 0)"/>
      </g>
     </g>
    </g>
    <g id="xtick_8">
     <g id="line2d_8">
      <g>
       <use xlink:href="#me31558adf5" x="366.555574" y="288.430125" style="stroke: #000000; stroke-width: 0.8"/>
      </g>
     </g>
     <g id="text_8">
      <!-- 3.5 k -->
      <g transform="translate(354.119636 303.028562) scale(0.1 -0.1)">
       <use xlink:href="#DejaVuSans-33"/>
       <use xlink:href="#DejaVuSans-2e" transform="translate(63.623047 0)"/>
       <use xlink:href="#DejaVuSans-35" transform="translate(95.410156 0)"/>
       <use xlink:href="#DejaVuSans-20" transform="translate(159.033203 0)"/>
       <use xlink:href="#DejaVuSans-6b" transform="translate(190.820312 0)"/>
      </g>
     </g>
    </g>
    <g id="xtick_9">
     <g id="line2d_9">
      <g>
       <use xlink:href="#me31558adf5" x="410.104138" y="288.430125" style="stroke: #000000; stroke-width: 0.8"/>
      </g>
     </g>
     <g id="text_9">
      <!-- 4 k -->
      <g transform="translate(402.438513 303.028562) scale(0.1 -0.1)">
       <defs>
        <path id="DejaVuSans-34" d="M 2419 4116 
L 825 1625 
L 2419 1625 
L 2419 4116 
z
M 2253 4666 
L 3047 4666 
L 3047 1625 
L 3713 1625 
L 3713 1100 
L 3047 1100 
L 3047 0 
L 2419 0 
L 2419 1100 
L 313 1100 
L 313 1709 
L 2253 4666 
z
" transform="scale(0.015625)"/>
       </defs>
       <use xlink:href="#DejaVuSans-34"/>
       <use xlink:href="#DejaVuSans-20" transform="translate(63.623047 0)"/>
       <use xlink:href="#DejaVuSans-6b" transform="translate(95.410156 0)"/>
      </g>
     </g>
    </g>
    <g id="text_10">
     <!-- Amount of objects in table -->
     <g transform="translate(174.217031 316.706687) scale(0.1 -0.1)">
      <defs>
       <path id="DejaVuSans-41" d="M 2188 4044 
L 1331 1722 
L 3047 1722 
L 2188 4044 
z
M 1831 4666 
L 2547 4666 
L 4325 0 
L 3669 0 
L 3244 1197 
L 1141 1197 
L 716 0 
L 50 0 
L 1831 4666 
z
" transform="scale(0.015625)"/>
       <path id="DejaVuSans-6d" d="M 3328 2828 
Q 3544 3216 3844 3400 
Q 4144 3584 4550 3584 
Q 5097 3584 5394 3201 
Q 5691 2819 5691 2113 
L 5691 0 
L 5113 0 
L 5113 2094 
Q 5113 2597 4934 2840 
Q 4756 3084 4391 3084 
Q 3944 3084 3684 2787 
Q 3425 2491 3425 1978 
L 3425 0 
L 2847 0 
L 2847 2094 
Q 2847 2600 2669 2842 
Q 2491 3084 2119 3084 
Q 1678 3084 1418 2786 
Q 1159 2488 1159 1978 
L 1159 0 
L 581 0 
L 581 3500 
L 1159 3500 
L 1159 2956 
Q 1356 3278 1631 3431 
Q 1906 3584 2284 3584 
Q 2666 3584 2933 3390 
Q 3200 3197 3328 2828 
z
" transform="scale(0.015625)"/>
       <path id="DejaVuSans-6f" d="M 1959 3097 
Q 1497 3097 1228 2736 
Q 959 2375 959 1747 
Q 959 1119 1226 758 
Q 1494 397 1959 397 
Q 2419 397 2687 759 
Q 2956 1122 2956 1747 
Q 2956 2369 2687 2733 
Q 2419 3097 1959 3097 
z
M 1959 3584 
Q 2709 3584 3137 3096 
Q 3566 2609 3566 1747 
Q 3566 888 3137 398 
Q 2709 -91 1959 -91 
Q 1206 -91 779 398 
Q 353 888 353 1747 
Q 353 2609 779 3096 
Q 1206 3584 1959 3584 
z
" transform="scale(0.015625)"/>
       <path id="DejaVuSans-75" d="M 544 1381 
L 544 3500 
L 1119 3500 
L 1119 1403 
Q 1119 906 1312 657 
Q 1506 409 1894 409 
Q 2359 409 2629 706 
Q 2900 1003 2900 1516 
L 2900 3500 
L 3475 3500 
L 3475 0 
L 2900 0 
L 2900 538 
Q 2691 219 2414 64 
Q 2138 -91 1772 -91 
Q 1169 -91 856 284 
Q 544 659 544 1381 
z
M 1991 3584 
L 1991 3584 
z
" transform="scale(0.015625)"/>
       <path id="DejaVuSans-6e" d="M 3513 2113 
L 3513 0 
L 2938 0 
L 2938 2094 
Q 2938 2591 2744 2837 
Q 2550 3084 2163 3084 
Q 1697 3084 1428 2787 
Q 1159 2491 1159 1978 
L 1159 0 
L 581 0 
L 581 3500 
L 1159 3500 
L 1159 2956 
Q 1366 3272 1645 3428 
Q 1925 3584 2291 3584 
Q 2894 3584 3203 3211 
Q 3513 2838 3513 2113 
z
" transform="scale(0.015625)"/>
       <path id="DejaVuSans-74" d="M 1172 4494 
L 1172 3500 
L 2356 3500 
L 2356 3053 
L 1172 3053 
L 1172 1153 
Q 1172 725 1289 603 
Q 1406 481 1766 481 
L 2356 481 
L 2356 0 
L 1766 0 
Q 1100 0 847 248 
Q 594 497 594 1153 
L 594 3053 
L 172 3053 
L 172 3500 
L 594 3500 
L 594 4494 
L 1172 4494 
z
" transform="scale(0.015625)"/>
       <path id="DejaVuSans-66" d="M 2375 4863 
L 2375 4384 
L 1825 4384 
Q 1516 4384 1395 4259 
Q 1275 4134 1275 3809 
L 1275 3500 
L 2222 3500 
L 2222 3053 
L 1275 3053 
L 1275 0 
L 697 0 
L 697 3053 
L 147 3053 
L 147 3500 
L 697 3500 
L 697 3744 
Q 697 4328 969 4595 
Q 1241 4863 1831 4863 
L 2375 4863 
z
" transform="scale(0.015625)"/>
       <path id="DejaVuSans-62" d="M 3116 1747 
Q 3116 2381 2855 2742 
Q 2594 3103 2138 3103 
Q 1681 3103 1420 2742 
Q 1159 2381 1159 1747 
Q 1159 1113 1420 752 
Q 1681 391 2138 391 
Q 2594 391 2855 752 
Q 3116 1113 3116 1747 
z
M 1159 2969 
Q 1341 3281 1617 3432 
Q 1894 3584 2278 3584 
Q 2916 3584 3314 3078 
Q 3713 2572 3713 1747 
Q 3713 922 3314 415 
Q 2916 -91 2278 -91 
Q 1894 -91 1617 61 
Q 1341 213 1159 525 
L 1159 0 
L 581 0 
L 581 4863 
L 1159 4863 
L 1159 2969 
z
" transform="scale(0.015625)"/>
       <path id="DejaVuSans-6a" d="M 603 3500 
L 1178 3500 
L 1178 -63 
Q 1178 -731 923 -1031 
Q 669 -1331 103 -1331 
L -116 -1331 
L -116 -844 
L 38 -844 
Q 366 -844 484 -692 
Q 603 -541 603 -63 
L 603 3500 
z
M 603 4863 
L 1178 4863 
L 1178 4134 
L 603 4134 
L 603 4863 
z
" transform="scale(0.015625)"/>
       <path id="DejaVuSans-65" d="M 3597 1894 
L 3597 1613 
L 953 1613 
Q 991 1019 1311 708 
Q 1631 397 2203 397 
Q 2534 397 2845 478 
Q 3156 559 3463 722 
L 3463 178 
Q 3153 47 2828 -22 
Q 2503 -91 2169 -91 
Q 1331 -91 842 396 
Q 353 884 353 1716 
Q 353 2575 817 3079 
Q 1281 3584 2069 3584 
Q 2775 3584 3186 3129 
Q 3597 2675 3597 1894 
z
M 3022 2063 
Q 3016 2534 2758 2815 
Q 2500 3097 2075 3097 
Q 1594 3097 1305 2825 
Q 1016 2553 972 2059 
L 3022 2063 
z
" transform="scale(0.015625)"/>
       <path id="DejaVuSans-63" d="M 3122 3366 
L 3122 2828 
Q 2878 2963 2633 3030 
Q 2388 3097 2138 3097 
Q 1578 3097 1268 2742 
Q 959 2388 959 1747 
Q 959 1106 1268 751 
Q 1578 397 2138 397 
Q 2388 397 2633 464 
Q 2878 531 3122 666 
L 3122 134 
Q 2881 22 2623 -34 
Q 2366 -91 2075 -91 
Q 1284 -91 818 406 
Q 353 903 353 1747 
Q 353 2603 823 3093 
Q 1294 3584 2113 3584 
Q 2378 3584 2631 3529 
Q 2884 3475 3122 3366 
z
" transform="scale(0.015625)"/>
       <path id="DejaVuSans-73" d="M 2834 3397 
L 2834 2853 
Q 2591 2978 2328 3040 
Q 2066 3103 1784 3103 
Q 1356 3103 1142 2972 
Q 928 2841 928 2578 
Q 928 2378 1081 2264 
Q 1234 2150 1697 2047 
L 1894 2003 
Q 2506 1872 2764 1633 
Q 3022 1394 3022 966 
Q 3022 478 2636 193 
Q 2250 -91 1575 -91 
Q 1294 -91 989 -36 
Q 684 19 347 128 
L 347 722 
Q 666 556 975 473 
Q 1284 391 1588 391 
Q 1994 391 2212 530 
Q 2431 669 2431 922 
Q 2431 1156 2273 1281 
Q 2116 1406 1581 1522 
L 1381 1569 
Q 847 1681 609 1914 
Q 372 2147 372 2553 
Q 372 3047 722 3315 
Q 1072 3584 1716 3584 
Q 2034 3584 2315 3537 
Q 2597 3491 2834 3397 
z
" transform="scale(0.015625)"/>
       <path id="DejaVuSans-69" d="M 603 3500 
L 1178 3500 
L 1178 0 
L 603 0 
L 603 3500 
z
M 603 4863 
L 1178 4863 
L 1178 4134 
L 603 4134 
L 603 4863 
z
" transform="scale(0.015625)"/>
       <path id="DejaVuSans-61" d="M 2194 1759 
Q 1497 1759 1228 1600 
Q 959 1441 959 1056 
Q 959 750 1161 570 
Q 1363 391 1709 391 
Q 2188 391 2477 730 
Q 2766 1069 2766 1631 
L 2766 1759 
L 2194 1759 
z
M 3341 1997 
L 3341 0 
L 2766 0 
L 2766 531 
Q 2569 213 2275 61 
Q 1981 -91 1556 -91 
Q 1019 -91 701 211 
Q 384 513 384 1019 
Q 384 1609 779 1909 
Q 1175 2209 1959 2209 
L 2766 2209 
L 2766 2266 
Q 2766 2663 2505 2880 
Q 2244 3097 1772 3097 
Q 1472 3097 1187 3025 
Q 903 2953 641 2809 
L 641 3341 
Q 956 3463 1253 3523 
Q 1550 3584 1831 3584 
Q 2591 3584 2966 3190 
Q 3341 2797 3341 1997 
z
" transform="scale(0.015625)"/>
       <path id="DejaVuSans-6c" d="M 603 4863 
L 1178 4863 
L 1178 0 
L 603 0 
L 603 4863 
z
" transform="scale(0.015625)"/>
      </defs>
      <use xlink:href="#DejaVuSans-41"/>
      <use xlink:href="#DejaVuSans-6d" transform="translate(68.408203 0)"/>
      <use xlink:href="#DejaVuSans-6f" transform="translate(165.820312 0)"/>
      <use xlink:href="#DejaVuSans-75" transform="translate(227.001953 0)"/>
      <use xlink:href="#DejaVuSans-6e" transform="translate(290.380859 0)"/>
      <use xlink:href="#DejaVuSans-74" transform="translate(353.759766 0)"/>
      <use xlink:href="#DejaVuSans-20" transform="translate(392.96875 0)"/>
      <use xlink:href="#DejaVuSans-6f" transform="translate(424.755859 0)"/>
      <use xlink:href="#DejaVuSans-66" transform="translate(485.9375 0)"/>
      <use xlink:href="#DejaVuSans-20" transform="translate(521.142578 0)"/>
      <use xlink:href="#DejaVuSans-6f" transform="translate(552.929688 0)"/>
      <use xlink:href="#DejaVuSans-62" transform="translate(614.111328 0)"/>
      <use xlink:href="#DejaVuSans-6a" transform="translate(677.587891 0)"/>
      <use xlink:href="#DejaVuSans-65" transform="translate(705.371094 0)"/>
      <use xlink:href="#DejaVuSans-63" transform="translate(766.894531 0)"/>
      <use xlink:href="#DejaVuSans-74" transform="translate(821.875 0)"/>
      <use xlink:href="#DejaVuSans-73" transform="translate(861.083984 0)"/>
      <use xlink:href="#DejaVuSans-20" transform="translate(913.183594 0)"/>
      <use xlink:href="#DejaVuSans-69" transform="translate(944.970703 0)"/>
      <use xlink:href="#DejaVuSans-6e" transform="translate(972.753906 0)"/>
      <use xlink:href="#DejaVuSans-20" transform="translate(1036.132812 0)"/>
      <use xlink:href="#DejaVuSans-74" transform="translate(1067.919922 0)"/>
      <use xlink:href="#DejaVuSans-61" transform="translate(1107.128906 0)"/>
      <use xlink:href="#DejaVuSans-62" transform="translate(1168.408203 0)"/>
      <use xlink:href="#DejaVuSans-6c" transform="translate(1231.884766 0)"/>
      <use xlink:href="#DejaVuSans-65" transform="translate(1259.667969 0)"/>
     </g>
    </g>
   </g>
   <g id="matplotlib.axis_2">
    <g id="ytick_1">
     <g id="line2d_10">
      <defs>
       <path id="mcadc1bab99" d="M 0 0 
L -3.5 0 
" style="stroke: #000000; stroke-width: 0.8"/>
      </defs>
      <g>
       <use xlink:href="#mcadc1bab99" x="61.715625" y="288.430125" style="stroke: #000000; stroke-width: 0.8"/>
      </g>
     </g>
     <g id="text_11">
      <!-- 0 -->
      <g transform="translate(48.353125 292.229344) scale(0.1 -0.1)">
       <use xlink:href="#DejaVuSans-30"/>
      </g>
     </g>
    </g>
    <g id="ytick_2">
     <g id="line2d_11">
      <g>
       <use xlink:href="#mcadc1bab99" x="61.715625" y="237.482038" style="stroke: #000000; stroke-width: 0.8"/>
      </g>
     </g>
     <g id="text_12">
      <!-- 100 µs -->
      <g transform="translate(20.878125 241.281257) scale(0.1 -0.1)">
       <defs>
        <path id="DejaVuSans-b5" d="M 544 -1331 
L 544 3500 
L 1119 3500 
L 1119 1325 
Q 1119 872 1334 640 
Q 1550 409 1972 409 
Q 2434 409 2667 671 
Q 2900 934 2900 1459 
L 2900 3500 
L 3475 3500 
L 3475 806 
Q 3475 619 3529 530 
Q 3584 441 3700 441 
Q 3728 441 3778 458 
Q 3828 475 3916 513 
L 3916 50 
Q 3788 -22 3673 -56 
Q 3559 -91 3450 -91 
Q 3234 -91 3106 31 
Q 2978 153 2931 403 
Q 2775 156 2548 32 
Q 2322 -91 2016 -91 
Q 1697 -91 1473 31 
Q 1250 153 1119 397 
L 1119 -1331 
L 544 -1331 
z
" transform="scale(0.015625)"/>
       </defs>
       <use xlink:href="#DejaVuSans-31"/>
       <use xlink:href="#DejaVuSans-30" transform="translate(63.623047 0)"/>
       <use xlink:href="#DejaVuSans-30" transform="translate(127.246094 0)"/>
       <use xlink:href="#DejaVuSans-20" transform="translate(190.869141 0)"/>
       <use xlink:href="#DejaVuSans-b5" transform="translate(222.65625 0)"/>
       <use xlink:href="#DejaVuSans-73" transform="translate(286.279297 0)"/>
      </g>
     </g>
    </g>
    <g id="ytick_3">
     <g id="line2d_12">
      <g>
       <use xlink:href="#mcadc1bab99" x="61.715625" y="186.533951" style="stroke: #000000; stroke-width: 0.8"/>
      </g>
     </g>
     <g id="text_13">
      <!-- 200 µs -->
      <g transform="translate(20.878125 190.333169) scale(0.1 -0.1)">
       <use xlink:href="#DejaVuSans-32"/>
       <use xlink:href="#DejaVuSans-30" transform="translate(63.623047 0)"/>
       <use xlink:href="#DejaVuSans-30" transform="translate(127.246094 0)"/>
       <use xlink:href="#DejaVuSans-20" transform="translate(190.869141 0)"/>
       <use xlink:href="#DejaVuSans-b5" transform="translate(222.65625 0)"/>
       <use xlink:href="#DejaVuSans-73" transform="translate(286.279297 0)"/>
      </g>
     </g>
    </g>
    <g id="ytick_4">
     <g id="line2d_13">
      <g>
       <use xlink:href="#mcadc1bab99" x="61.715625" y="135.585863" style="stroke: #000000; stroke-width: 0.8"/>
      </g>
     </g>
     <g id="text_14">
      <!-- 300 µs -->
      <g transform="translate(20.878125 139.385082) scale(0.1 -0.1)">
       <use xlink:href="#DejaVuSans-33"/>
       <use xlink:href="#DejaVuSans-30" transform="translate(63.623047 0)"/>
       <use xlink:href="#DejaVuSans-30" transform="translate(127.246094 0)"/>
       <use xlink:href="#DejaVuSans-20" transform="translate(190.869141 0)"/>
       <use xlink:href="#DejaVuSans-b5" transform="translate(222.65625 0)"/>
       <use xlink:href="#DejaVuSans-73" transform="translate(286.279297 0)"/>
      </g>
     </g>
    </g>
    <g id="ytick_5">
     <g id="line2d_14">
      <g>
       <use xlink:href="#mcadc1bab99" x="61.715625" y="84.637776" style="stroke: #000000; stroke-width: 0.8"/>
      </g>
     </g>
     <g id="text_15">
      <!-- 400 µs -->
      <g transform="translate(20.878125 88.436995) scale(0.1 -0.1)">
       <use xlink:href="#DejaVuSans-34"/>
       <use xlink:href="#DejaVuSans-30" transform="translate(63.623047 0)"/>
       <use xlink:href="#DejaVuSans-30" transform="translate(127.246094 0)"/>
       <use xlink:href="#DejaVuSans-20" transform="translate(190.869141 0)"/>
       <use xlink:href="#DejaVuSans-b5" transform="translate(222.65625 0)"/>
       <use xlink:href="#DejaVuSans-73" transform="translate(286.279297 0)"/>
      </g>
     </g>
    </g>
    <g id="ytick_6">
     <g id="line2d_15">
      <g>
       <use xlink:href="#mcadc1bab99" x="61.715625" y="33.689689" style="stroke: #000000; stroke-width: 0.8"/>
      </g>
     </g>
     <g id="text_16">
      <!-- 500 µs -->
      <g transform="translate(20.878125 37.488908) scale(0.1 -0.1)">
       <use xlink:href="#DejaVuSans-35"/>
       <use xlink:href="#DejaVuSans-30" transform="translate(63.623047 0)"/>
       <use xlink:href="#DejaVuSans-30" transform="translate(127.246094 0)"/>
       <use xlink:href="#DejaVuSans-20" transform="translate(190.869141 0)"/>
       <use xlink:href="#DejaVuSans-b5" transform="translate(222.65625 0)"/>
       <use xlink:href="#DejaVuSans-73" transform="translate(286.279297 0)"/>
      </g>
     </g>
    </g>
    <g id="text_17">
     <!-- Read latency (s) -->
     <g transform="translate(14.798438 195.98975) rotate(-90) scale(0.1 -0.1)">
      <defs>
       <path id="DejaVuSans-52" d="M 2841 2188 
Q 3044 2119 3236 1894 
Q 3428 1669 3622 1275 
L 4263 0 
L 3584 0 
L 2988 1197 
Q 2756 1666 2539 1819 
Q 2322 1972 1947 1972 
L 1259 1972 
L 1259 0 
L 628 0 
L 628 4666 
L 2053 4666 
Q 2853 4666 3247 4331 
Q 3641 3997 3641 3322 
Q 3641 2881 3436 2590 
Q 3231 2300 2841 2188 
z
M 1259 4147 
L 1259 2491 
L 2053 2491 
Q 2509 2491 2742 2702 
Q 2975 2913 2975 3322 
Q 2975 3731 2742 3939 
Q 2509 4147 2053 4147 
L 1259 4147 
z
" transform="scale(0.015625)"/>
       <path id="DejaVuSans-64" d="M 2906 2969 
L 2906 4863 
L 3481 4863 
L 3481 0 
L 2906 0 
L 2906 525 
Q 2725 213 2448 61 
Q 2172 -91 1784 -91 
Q 1150 -91 751 415 
Q 353 922 353 1747 
Q 353 2572 751 3078 
Q 1150 3584 1784 3584 
Q 2172 3584 2448 3432 
Q 2725 3281 2906 2969 
z
M 947 1747 
Q 947 1113 1208 752 
Q 1469 391 1925 391 
Q 2381 391 2643 752 
Q 2906 1113 2906 1747 
Q 2906 2381 2643 2742 
Q 2381 3103 1925 3103 
Q 1469 3103 1208 2742 
Q 947 2381 947 1747 
z
" transform="scale(0.015625)"/>
       <path id="DejaVuSans-79" d="M 2059 -325 
Q 1816 -950 1584 -1140 
Q 1353 -1331 966 -1331 
L 506 -1331 
L 506 -850 
L 844 -850 
Q 1081 -850 1212 -737 
Q 1344 -625 1503 -206 
L 1606 56 
L 191 3500 
L 800 3500 
L 1894 763 
L 2988 3500 
L 3597 3500 
L 2059 -325 
z
" transform="scale(0.015625)"/>
       <path id="DejaVuSans-28" d="M 1984 4856 
Q 1566 4138 1362 3434 
Q 1159 2731 1159 2009 
Q 1159 1288 1364 580 
Q 1569 -128 1984 -844 
L 1484 -844 
Q 1016 -109 783 600 
Q 550 1309 550 2009 
Q 550 2706 781 3412 
Q 1013 4119 1484 4856 
L 1984 4856 
z
" transform="scale(0.015625)"/>
       <path id="DejaVuSans-29" d="M 513 4856 
L 1013 4856 
Q 1481 4119 1714 3412 
Q 1947 2706 1947 2009 
Q 1947 1309 1714 600 
Q 1481 -109 1013 -844 
L 513 -844 
Q 928 -128 1133 580 
Q 1338 1288 1338 2009 
Q 1338 2731 1133 3434 
Q 928 4138 513 4856 
z
" transform="scale(0.015625)"/>
      </defs>
      <use xlink:href="#DejaVuSans-52"/>
      <use xlink:href="#DejaVuSans-65" transform="translate(64.982422 0)"/>
      <use xlink:href="#DejaVuSans-61" transform="translate(126.505859 0)"/>
      <use xlink:href="#DejaVuSans-64" transform="translate(187.785156 0)"/>
      <use xlink:href="#DejaVuSans-20" transform="translate(251.261719 0)"/>
      <use xlink:href="#DejaVuSans-6c" transform="translate(283.048828 0)"/>
      <use xlink:href="#DejaVuSans-61" transform="translate(310.832031 0)"/>
      <use xlink:href="#DejaVuSans-74" transform="translate(372.111328 0)"/>
      <use xlink:href="#DejaVuSans-65" transform="translate(411.320312 0)"/>
      <use xlink:href="#DejaVuSans-6e" transform="translate(472.84375 0)"/>
      <use xlink:href="#DejaVuSans-63" transform="translate(536.222656 0)"/>
      <use xlink:href="#DejaVuSans-79" transform="translate(591.203125 0)"/>
      <use xlink:href="#DejaVuSans-20" transform="translate(650.382812 0)"/>
      <use xlink:href="#DejaVuSans-28" transform="translate(682.169922 0)"/>
      <use xlink:href="#DejaVuSans-73" transform="translate(721.183594 0)"/>
      <use xlink:href="#DejaVuSans-29" transform="translate(773.283203 0)"/>
     </g>
    </g>
   </g>
   <g id="line2d_16">
    <path d="M 147.070811 158.459409 
L 149.683725 159.921406 
L 150.11921 160.225391 
L 150.554696 160.285815 
L 150.990181 159.540178 
L 152.732124 160.340009 
L 153.603095 160.751137 
L 154.474067 159.376972 
L 155.345038 159.35081 
L 155.780523 159.212521 
L 156.216009 159.280419 
L 156.651495 158.991384 
L 157.522466 158.788311 
L 157.957952 158.116179 
L 158.393437 157.148159 
L 158.828923 154.739321 
L 159.264409 154.382387 
L 159.699894 153.775662 
L 160.13538 153.396302 
L 161.006351 151.920601 
L 161.441837 152.24452 
L 161.877322 151.995975 
L 162.312808 152.017154 
L 162.748294 151.67953 
L 163.183779 151.782313 
L 164.054751 151.31263 
L 164.490236 151.482687 
L 164.925722 152.276912 
L 165.361208 152.070725 
L 165.796693 152.159803 
L 167.10315 151.827786 
L 168.409607 152.3554 
L 169.280578 152.592733 
L 169.716064 152.606438 
L 170.587035 152.954028 
L 171.458007 153.103529 
L 171.893492 152.753447 
L 172.328978 153.096677 
L 172.764463 152.773381 
L 173.199949 153.054318 
L 174.07092 153.104152 
L 174.506406 153.047466 
L 174.941892 153.173296 
L 175.377377 153.769432 
L 175.812863 153.420596 
L 177.554806 153.476659 
L 177.990291 153.497839 
L 178.425777 153.99929 
L 178.861262 153.803693 
L 179.296748 153.810545 
L 179.732234 153.388827 
L 180.167719 153.406269 
L 180.603205 155.693637 
L 181.038691 155.900447 
L 181.474176 155.668097 
L 182.780633 155.368472 
L 183.216119 155.521088 
L 183.651605 155.19966 
L 184.522576 155.065732 
L 184.958061 154.743059 
L 186.700004 154.512578 
L 187.570975 154.684504 
L 188.006461 154.622835 
L 188.441947 154.928689 
L 188.877432 155.034586 
L 189.312918 154.28708 
L 189.748403 154.105187 
L 190.183889 153.594391 
L 190.619375 153.534591 
L 191.05486 153.104775 
L 191.490346 152.935963 
L 191.925832 153.421219 
L 192.796803 152.861213 
L 193.232289 153.058056 
L 193.667774 153.053073 
L 194.10326 152.795806 
L 194.974231 152.580898 
L 195.409717 152.304944 
L 196.280688 152.329238 
L 197.151659 151.961091 
L 197.587145 152.067611 
L 198.022631 151.772346 
L 198.458116 152.275043 
L 198.893602 152.227701 
L 200.200059 152.501164 
L 201.07103 152.08879 
L 202.377487 152.529195 
L 202.812973 152.314288 
L 204.990401 153.291029 
L 205.425887 152.884884 
L 205.861372 153.024418 
L 207.167829 152.633846 
L 207.603315 152.859344 
L 208.909772 152.570308 
L 209.345257 152.324254 
L 209.780743 152.533556 
L 210.216229 154.104564 
L 211.0872 154.494513 
L 211.522686 154.135087 
L 211.958171 153.931392 
L 212.829142 153.745138 
L 213.264628 154.098958 
L 215.006571 153.745761 
L 216.313028 152.277535 
L 216.748513 151.411051 
L 217.619485 150.234352 
L 218.05497 149.995151 
L 218.490456 149.622021 
L 219.796913 147.813679 
L 220.667884 146.716714 
L 221.538855 145.381171 
L 221.974341 145.513853 
L 223.716283 144.352727 
L 224.151769 143.534208 
L 224.587255 142.980431 
L 225.458226 142.379311 
L 225.893712 141.7458 
L 227.200169 140.850662 
L 229.377597 138.156526 
L 229.813082 137.746021 
L 230.684054 136.649056 
L 231.119539 136.366873 
L 231.555025 136.312055 
L 232.425996 135.040672 
L 232.861482 134.621446 
L 235.03891 131.685617 
L 235.474396 131.529264 
L 235.909881 132.141596 
L 236.345367 131.007878 
L 238.08731 128.664447 
L 238.522795 128.36233 
L 239.393767 129.552111 
L 240.700224 127.950579 
L 241.571195 127.165075 
L 242.442166 125.66944 
L 242.877652 125.708062 
L 243.748623 126.519105 
L 244.184109 126.124173 
L 245.05508 126.019522 
L 245.490566 126.337835 
L 246.361537 126.390161 
L 246.797022 126.715949 
L 247.232508 126.705359 
L 247.667994 126.891613 
L 248.103479 126.581398 
L 248.538965 126.01267 
L 248.974451 125.992737 
L 249.409936 125.53925 
L 250.280908 125.382274 
L 250.716393 125.73111 
L 251.587365 125.668195 
L 252.02285 125.909265 
L 252.458336 125.579117 
L 253.329307 125.40719 
L 253.764793 125.436468 
L 254.200278 125.655736 
L 255.07125 125.706816 
L 255.942221 125.230904 
L 256.377707 125.222806 
L 256.813192 125.520562 
L 257.248678 125.128745 
L 257.684164 125.792779 
L 258.119649 125.72052 
L 258.555135 125.845104 
L 258.99062 125.613377 
L 259.426106 125.677538 
L 259.861592 125.315621 
L 260.297077 124.358813 
L 260.732563 124.387468 
L 261.603534 124.173806 
L 262.03902 123.76953 
L 262.474506 123.960144 
L 262.909991 123.828084 
L 263.345477 123.895983 
L 264.216448 123.519738 
L 264.651934 124.130201 
L 266.829362 123.765792 
L 267.264848 123.649929 
L 267.700333 123.81002 
L 268.135819 123.780119 
L 268.571305 123.897851 
L 269.442276 123.727794 
L 269.877761 124.009354 
L 270.748733 123.897851 
L 271.184218 123.980077 
L 271.619704 121.623565 
L 272.05519 121.93378 
L 273.797132 121.78677 
L 275.103589 123.352172 
L 275.539075 123.305453 
L 275.97456 123.874803 
L 276.845532 120.820619 
L 277.281017 120.512896 
L 277.716503 120.98507 
L 278.151989 120.735279 
L 278.587474 120.679839 
L 279.02296 120.909697 
L 279.458446 120.712231 
L 279.893931 120.697903 
L 280.329417 120.846159 
L 280.764902 120.85924 
L 281.200388 120.676724 
L 282.071359 121.154505 
L 282.506845 121.208699 
L 282.942331 121.53511 
L 283.813302 121.569994 
L 284.248788 121.792377 
L 284.684273 121.850931 
L 285.119759 121.576223 
L 285.555245 121.637269 
L 286.426216 121.429836 
L 286.861701 121.191257 
L 287.297187 121.227387 
L 287.732673 121.100934 
L 288.168158 121.096573 
L 288.603644 120.889763 
L 289.03913 120.290513 
L 289.474615 120.308577 
L 289.910101 120.205172 
L 290.345587 120.661151 
L 290.781072 120.433162 
L 291.216558 120.463685 
L 291.652044 120.241302 
L 292.523015 120.283038 
L 292.9585 119.974069 
L 293.393986 120.197074 
L 293.829472 120.281169 
L 294.264957 120.488602 
L 294.700443 120.514142 
L 295.135929 120.795079 
L 295.571414 120.636857 
L 296.0069 120.634365 
L 296.442386 121.020577 
L 296.877871 121.239845 
L 297.313357 121.286564 
L 298.184328 121.924436 
L 298.619814 122.192915 
L 299.055299 121.899519 
L 299.490785 122.283862 
L 300.361756 122.753545 
L 300.797242 121.837227 
L 302.103699 122.547358 
L 302.539185 122.602798 
L 302.97467 122.258945 
L 303.845641 122.250847 
L 304.716613 122.812099 
L 305.152098 122.798395 
L 305.587584 122.960355 
L 306.02307 123.420694 
L 306.458555 123.483609 
L 306.894041 123.191458 
L 307.329527 123.227588 
L 307.765012 123.008942 
L 308.635984 122.964715 
L 309.071469 123.276799 
L 309.94244 123.353418 
L 310.377926 123.327255 
L 310.813412 123.676091 
L 311.248897 123.45184 
L 311.684383 123.372729 
L 312.119869 123.124183 
L 312.555354 123.028253 
L 312.99084 123.179 
L 314.732782 123.264963 
L 315.168268 123.576424 
L 315.603754 122.568537 
L 316.474725 122.51808 
L 317.345696 122.635189 
L 318.216668 122.098854 
L 318.652153 122.581618 
L 319.95861 123.207654 
L 320.394096 122.869408 
L 320.829581 122.9616 
L 321.265067 123.514132 
L 321.700553 123.259357 
L 322.571524 123.395777 
L 323.00701 122.893702 
L 323.442495 122.916127 
L 323.877981 122.619616 
L 325.184438 122.495655 
L 325.619924 122.758528 
L 326.055409 122.447067 
L 326.92638 122.339925 
L 327.797352 122.946027 
L 328.232837 122.998353 
L 328.668323 123.242538 
L 329.103809 123.276176 
L 329.539294 123.575801 
L 329.97478 123.276799 
L 330.410266 122.83141 
L 331.281237 123.096774 
L 331.716722 122.88685 
L 332.587694 122.989009 
L 333.894151 124.196231 
L 334.765122 124.902624 
L 335.636093 124.851544 
L 336.071579 124.763712 
L 336.507065 125.065207 
L 336.94255 125.127499 
L 337.378036 124.721354 
L 337.813521 125.261427 
L 339.119978 125.182939 
L 339.555464 125.441451 
L 339.99095 125.178578 
L 340.426435 125.151793 
L 340.861921 125.271394 
L 341.297407 124.992948 
L 342.168378 125.632688 
L 343.474835 124.973014 
L 343.91032 125.467614 
L 344.345806 125.240247 
L 344.781292 125.217199 
L 345.216777 126.102994 
L 345.652263 126.495434 
L 346.087749 126.562087 
L 346.523234 126.939578 
L 346.95872 127.525747 
L 347.394206 127.563122 
L 347.829691 127.713246 
L 348.265177 127.530107 
L 348.700662 127.933137 
L 350.007119 127.466569 
L 350.442605 127.536336 
L 350.878091 127.158223 
L 351.749062 127.631643 
L 352.184548 127.992938 
L 353.92649 127.568105 
L 354.361976 127.912581 
L 355.668433 128.180437 
L 356.103918 128.379149 
L 356.539404 130.802314 
L 356.97489 130.33014 
L 357.410375 130.398661 
L 357.845861 130.845296 
L 358.281347 130.88454 
L 359.152318 130.777397 
L 360.023289 130.816641 
L 360.458775 130.688942 
L 360.89426 130.740022 
L 361.765232 133.801059 
L 362.636203 133.888268 
L 363.507174 134.169828 
L 363.94266 134.229006 
L 364.813631 134.124355 
L 365.249117 133.791715 
L 366.991059 133.574938 
L 367.426545 133.369997 
L 367.862031 133.033619 
L 368.297516 132.466761 
L 369.168488 132.47299 
L 369.603973 132.186446 
L 370.039459 132.12976 
L 370.474945 130.786741 
L 370.91043 129.846752 
L 371.345916 129.492933 
L 371.781401 129.68853 
L 372.216887 129.438739 
L 372.652373 129.524079 
L 373.523344 129.977566 
L 373.95883 130.632257 
L 374.394315 130.100282 
L 374.829801 130.0573 
L 375.265287 129.843638 
L 375.700772 129.938322 
L 376.136258 129.899701 
L 377.007229 130.407382 
L 377.442715 130.077856 
L 377.8782 130.38558 
L 378.313686 130.383088 
L 378.749172 129.904061 
L 379.184657 128.905518 
L 379.620143 128.81208 
L 380.055629 128.465112 
L 380.491114 127.959923 
L 380.9266 127.632889 
L 382.233057 127.480273 
L 382.668543 127.594268 
L 383.104028 127.318937 
L 383.539514 127.322674 
L 383.974999 127.68646 
L 384.410485 127.602989 
L 384.845971 127.273463 
L 385.281456 127.211171 
L 385.716942 128.207846 
L 386.152428 127.937498 
L 386.587913 128.263909 
L 387.89437 128.228402 
L 388.329856 127.667773 
L 388.765341 125.34303 
L 390.071798 125.26641 
L 390.507284 125.007275 
L 391.378255 124.829742 
L 391.813741 125.078911 
L 392.249227 125.075796 
L 392.684712 125.301917 
L 393.120198 125.012881 
L 393.555684 125.017864 
L 393.991169 124.738796 
L 394.426655 124.943737 
L 395.733112 124.850299 
L 396.168597 124.703289 
L 396.604083 124.754992 
L 397.039569 124.229246 
L 397.475054 124.620441 
L 397.91054 124.77181 
L 398.346026 124.353207 
L 398.781511 124.549427 
L 399.216997 124.242327 
L 399.652483 124.394943 
L 400.087968 124.38996 
L 400.523454 125.232149 
L 400.958939 125.227789 
L 401.394425 124.228623 
L 401.829911 124.419237 
L 401.829911 124.419237 
" clip-path="url(#pf87cb5e07a)" style="fill: none; stroke: #1f77b4; stroke-opacity: 0.8; stroke-width: 1.5; stroke-linecap: square"/>
   </g>
   <g id="line2d_17">
    <path d="M 147.070811 99.913502 
L 147.506296 100.23929 
L 147.941782 102.485546 
L 148.812753 102.971424 
L 149.248239 103.785583 
L 150.11921 104.637117 
L 150.554696 105.886074 
L 150.990181 105.873616 
L 151.425667 107.098903 
L 151.861153 107.672613 
L 152.732124 111.269363 
L 153.603095 114.466196 
L 154.038581 115.352613 
L 156.216009 123.579539 
L 156.651495 124.443531 
L 157.08698 125.746683 
L 157.522466 126.102371 
L 158.393437 127.484634 
L 158.828923 128.15116 
L 160.13538 132.350274 
L 160.570866 132.948902 
L 161.441837 136.077837 
L 162.312808 136.799803 
L 162.748294 137.367907 
L 163.183779 137.588422 
L 163.619265 137.59652 
L 164.054751 137.483148 
L 164.490236 137.78838 
L 164.925722 139.109596 
L 165.361208 139.204903 
L 165.796693 139.135759 
L 166.667665 138.45802 
L 168.409607 138.390122 
L 168.845093 138.227539 
L 170.587035 138.145314 
L 171.022521 137.693073 
L 171.893492 137.175425 
L 172.764463 136.409231 
L 173.199949 136.100262 
L 173.635435 136.41546 
L 174.07092 136.422313 
L 174.506406 136.554995 
L 174.941892 136.197438 
L 175.377377 136.549389 
L 175.812863 136.184979 
L 176.248349 136.31953 
L 177.11932 135.727755 
L 178.861262 135.775097 
L 179.296748 135.40695 
L 179.732234 135.38764 
L 180.167719 135.548976 
L 180.603205 135.565795 
L 181.038691 135.889715 
L 182.345148 134.769079 
L 183.651605 134.755997 
L 184.522576 134.567252 
L 184.958061 134.486895 
L 185.393547 133.891382 
L 185.829033 134.314969 
L 186.264518 134.376638 
L 186.700004 134.750391 
L 187.13549 134.376015 
L 187.570975 134.149272 
L 188.006461 134.179172 
L 188.441947 133.934364 
L 188.877432 133.925643 
L 190.619375 132.847366 
L 191.05486 132.792549 
L 191.490346 133.08283 
L 192.361317 132.938935 
L 192.796803 132.4026 
L 193.232289 132.127268 
L 193.667774 132.142841 
L 194.974231 131.115021 
L 195.845202 131.063941 
L 197.151659 130.084086 
L 197.587145 130.574948 
L 198.022631 130.019302 
L 198.458116 129.824327 
L 198.893602 130.191851 
L 199.329088 130.243554 
L 199.764573 130.553768 
L 201.07103 130.492722 
L 201.506516 130.902605 
L 201.942001 130.887031 
L 202.377487 130.54567 
L 202.812973 130.501443 
L 203.248458 130.096544 
L 204.11943 130.3046 
L 204.990401 130.404267 
L 205.425887 131.06581 
L 205.861372 131.283833 
L 206.296858 131.307504 
L 207.167829 132.015765 
L 207.603315 132.864807 
L 208.474286 132.898445 
L 208.909772 132.844251 
L 209.345257 133.156958 
L 211.0872 131.505593 
L 211.522686 131.9678 
L 212.393657 131.956588 
L 212.829142 133.346326 
L 214.135599 133.863974 
L 214.571085 133.654049 
L 215.006571 133.860236 
L 215.442056 133.441633 
L 215.877542 133.442256 
L 216.748513 134.026556 
L 217.619485 134.281331 
L 218.490456 133.790469 
L 218.925941 133.812271 
L 219.361427 133.530088 
L 219.796913 133.858367 
L 220.232398 133.550644 
L 221.974341 133.730668 
L 222.409827 134.245825 
L 222.845312 133.885776 
L 223.280798 134.183532 
L 223.716283 134.802716 
L 224.151769 133.288394 
L 224.587255 132.897199 
L 225.458226 132.867922 
L 225.893712 133.214889 
L 226.329197 133.249773 
L 226.764683 133.159449 
L 227.635654 133.758077 
L 228.506626 133.483369 
L 228.942111 133.794206 
L 229.377597 133.853384 
L 229.813082 134.139305 
L 230.684054 134.171074 
L 231.119539 133.72257 
L 231.555025 134.102553 
L 232.425996 134.001016 
L 234.167939 134.002262 
L 234.603425 134.283823 
L 235.474396 134.471322 
L 235.909881 135.145323 
L 236.345367 134.828879 
L 236.780853 135.208238 
L 237.216338 135.151553 
L 237.651824 135.519699 
L 238.522795 135.568287 
L 238.958281 135.292956 
L 239.393767 135.296693 
L 239.829252 135.51783 
L 240.264738 135.388886 
L 240.700224 135.009526 
L 241.135709 134.92294 
L 241.571195 134.632036 
L 242.442166 134.964676 
L 242.877652 134.617086 
L 243.748623 134.53486 
L 244.184109 134.088225 
L 244.619594 133.930003 
L 245.05508 133.477762 
L 245.490566 133.80355 
L 246.361537 133.748733 
L 246.797022 134.262643 
L 247.667994 134.396572 
L 248.538965 134.92294 
L 248.974451 135.007658 
L 250.280908 134.879336 
L 251.151879 134.962807 
L 252.02285 134.450766 
L 252.893821 133.734406 
L 253.329307 132.575772 
L 253.764793 132.279884 
L 254.200278 132.157169 
L 254.635764 131.735451 
L 255.506735 131.755384 
L 255.942221 132.173987 
L 256.377707 132.135366 
L 256.813192 132.446827 
L 257.684164 132.492923 
L 258.555135 132.466761 
L 258.99062 132.251853 
L 259.426106 132.448073 
L 259.861592 132.811236 
L 260.297077 132.714683 
L 260.732563 131.944129 
L 262.03902 132.083664 
L 262.909991 131.408417 
L 263.345477 131.406548 
L 263.780962 130.972372 
L 264.216448 131.060827 
L 265.522905 130.126444 
L 265.958391 130.017433 
L 266.393876 130.064775 
L 266.829362 130.24916 
L 267.264848 130.295879 
L 268.135819 129.620009 
L 268.571305 129.431264 
L 269.442276 128.850078 
L 269.877761 128.563534 
L 270.313247 128.638285 
L 270.748733 128.319349 
L 271.184218 128.269515 
L 271.619704 127.948088 
L 273.361647 127.72695 
L 273.797132 127.272841 
L 274.232618 127.317691 
L 274.668104 127.569351 
L 275.539075 128.296301 
L 275.97456 128.41341 
L 276.410046 128.30689 
L 276.845532 128.344889 
L 277.281017 128.208469 
L 277.716503 128.759131 
L 278.151989 129.130393 
L 278.587474 128.537371 
L 279.893931 128.556059 
L 280.329417 128.93791 
L 280.764902 128.71615 
L 281.635874 129.358382 
L 282.071359 129.489818 
L 282.506845 129.41756 
L 283.377816 130.181261 
L 283.813302 130.210539 
L 284.248788 130.10215 
L 284.684273 128.848832 
L 285.555245 128.768475 
L 285.99073 128.730477 
L 286.426216 128.234009 
L 286.861701 128.115653 
L 287.297187 128.384756 
L 287.732673 128.303153 
L 288.168158 128.531765 
L 288.603644 128.166733 
L 289.03913 128.575992 
L 289.474615 128.294432 
L 289.910101 127.77803 
L 290.345587 127.714492 
L 290.781072 127.155108 
L 291.652044 127.070391 
L 292.523015 127.026787 
L 292.9585 126.595102 
L 294.264957 126.627494 
L 295.135929 127.439784 
L 295.571414 127.378737 
L 296.0069 127.6522 
L 296.877871 127.715738 
L 297.313357 127.441652 
L 297.748842 127.555647 
L 298.184328 127.207434 
L 298.619814 127.151994 
L 299.055299 126.091781 
L 299.490785 126.139123 
L 299.926271 125.838875 
L 300.361756 126.28987 
L 302.103699 126.331606 
L 302.539185 126.034472 
L 302.97467 126.314787 
L 303.410156 127.012459 
L 303.845641 125.604657 
L 304.716613 125.769108 
L 305.587584 125.733601 
L 306.02307 125.47322 
L 306.894041 125.422763 
L 308.200498 124.771188 
L 308.635984 124.486512 
L 309.071469 125.718651 
L 309.506955 125.821433 
L 309.94244 125.467614 
L 310.377926 125.478204 
L 312.555354 124.719485 
L 312.99084 124.924426 
L 313.861811 124.810432 
L 314.297297 124.98921 
L 314.732782 124.76309 
L 315.603754 125.213462 
L 316.039239 125.727372 
L 316.474725 125.719897 
L 316.910211 124.195608 
L 317.781182 123.411973 
L 318.216668 121.647859 
L 319.523125 121.59055 
L 319.95861 121.387478 
L 320.829581 120.510404 
L 321.265067 120.920286 
L 322.136038 120.031377 
L 323.00701 119.355507 
L 324.313467 118.839105 
L 324.748952 118.591183 
L 326.490895 118.745667 
L 326.92638 119.090766 
L 327.361866 119.054013 
L 327.797352 119.369212 
L 328.232837 119.298822 
L 329.539294 120.256252 
L 330.845751 120.244417 
L 331.716722 119.544876 
L 332.587694 119.544876 
L 333.458665 119.007917 
L 334.329636 119.063357 
L 334.765122 118.709538 
L 335.200608 118.078518 
L 335.636093 117.833087 
L 336.071579 115.944389 
L 336.507065 114.557143 
L 336.94255 114.252534 
L 337.813521 114.81254 
L 338.249007 115.87213 
L 338.684493 116.133757 
L 339.555464 116.293848 
L 339.99095 116.283258 
L 340.426435 114.438788 
L 340.861921 114.247551 
L 341.297407 114.509801 
L 343.039349 114.274336 
L 343.474835 113.954777 
L 343.91032 113.800916 
L 344.345806 113.493193 
L 345.216777 113.49693 
L 345.652263 114.597633 
L 346.087749 114.638122 
L 346.95872 114.998794 
L 347.394206 114.872964 
L 347.829691 115.164491 
L 348.265177 115.278486 
L 348.700662 115.609257 
L 349.571634 115.537621 
L 350.007119 115.878982 
L 350.442605 115.798002 
L 350.878091 116.163034 
L 351.313576 116.139986 
L 352.184548 116.475741 
L 353.055519 117.149119 
L 353.92649 117.141644 
L 354.797461 117.400157 
L 355.232947 116.498166 
L 355.668433 116.764154 
L 356.539404 116.451447 
L 357.845861 116.387909 
L 358.281347 116.271423 
L 359.152318 116.784087 
L 359.587804 117.167807 
L 360.023289 117.043223 
L 360.458775 117.070008 
L 362.200717 116.187328 
L 363.071689 115.437954 
L 363.94266 115.264159 
L 364.378146 115.573751 
L 364.813631 115.594307 
L 365.249117 115.305894 
L 365.684603 115.480935 
L 366.120088 115.13023 
L 366.555574 114.537832 
L 367.426545 114.765821 
L 368.297516 114.572716 
L 368.733002 114.143523 
L 369.168488 114.326662 
L 369.603973 115.048628 
L 370.039459 115.150787 
L 370.474945 115.480312 
L 370.91043 115.132099 
L 371.345916 115.389989 
L 372.652373 114.850539 
L 373.087858 114.970763 
L 373.523344 115.216817 
L 374.394315 115.016859 
L 374.829801 115.733841 
L 375.265287 114.284303 
L 375.700772 114.023299 
L 376.136258 113.994022 
L 376.571744 112.489666 
L 377.007229 111.582692 
L 377.442715 111.208939 
L 377.8782 108.785774 
L 378.313686 108.270618 
L 378.749172 107.477639 
L 380.055629 106.320874 
L 380.491114 106.602434 
L 380.9266 104.571087 
L 381.362086 104.098289 
L 382.233057 102.504856 
L 382.668543 100.691531 
L 383.539514 100.540784 
L 383.974999 99.539749 
L 384.410485 99.638794 
L 385.281456 99.018987 
L 386.587913 98.356821 
L 387.89437 97.811142 
L 388.329856 97.452962 
L 388.765341 98.545567 
L 389.200827 98.662676 
L 389.636313 98.479537 
L 390.507284 98.514421 
L 391.378255 98.463341 
L 391.813741 98.105161 
L 392.249227 97.925137 
L 393.120198 98.06218 
L 393.555684 97.922022 
L 394.426655 97.044326 
L 394.86214 97.396899 
L 395.733112 96.878629 
L 396.604083 96.465632 
L 397.039569 96.544743 
L 397.91054 96.314262 
L 398.781511 96.265674 
L 400.958939 95.186774 
L 401.394425 94.842298 
L 401.829911 96.436354 
L 401.829911 96.436354 
" clip-path="url(#pf87cb5e07a)" style="fill: none; stroke: #ff7f0e; stroke-opacity: 0.8; stroke-width: 1.5; stroke-linecap: square"/>
   </g>
   <g id="line2d_18">
    <path d="M 147.070811 144.107296 
L 147.941782 144.378267 
L 148.377268 144.293549 
L 149.248239 143.748493 
L 150.990181 143.536077 
L 151.425667 143.129309 
L 151.861153 143.346709 
L 152.732124 143.299367 
L 153.16761 142.915647 
L 153.603095 142.859584 
L 154.038581 143.373494 
L 154.474067 143.061411 
L 154.909552 142.954891 
L 155.345038 142.407343 
L 155.780523 142.62848 
L 156.216009 142.667724 
L 156.651495 142.446587 
L 157.08698 142.70946 
L 157.522466 142.151945 
L 157.957952 142.352526 
L 158.393437 143.424574 
L 158.828923 143.339857 
L 159.264409 144.183915 
L 159.699894 144.365808 
L 160.13538 143.991432 
L 161.006351 143.565977 
L 161.877322 143.848161 
L 162.312808 144.05497 
L 163.619265 143.916682 
L 164.054751 143.573452 
L 165.361208 143.603352 
L 165.796693 144.380758 
L 166.232179 144.632419 
L 166.667665 144.669794 
L 169.280578 142.826569 
L 169.716064 141.689737 
L 170.15155 141.654231 
L 170.587035 141.816813 
L 171.022521 141.452404 
L 172.764463 141.275494 
L 173.199949 141.450535 
L 174.07092 141.058095 
L 174.941892 141.128485 
L 175.377377 140.901119 
L 175.812863 140.910462 
L 176.248349 140.768436 
L 176.683834 141.011999 
L 177.11932 140.713619 
L 177.554806 141.01013 
L 177.990291 140.751617 
L 178.861262 141.189531 
L 179.296748 141.309755 
L 180.167719 141.217563 
L 180.603205 140.87371 
L 181.038691 140.868727 
L 181.474176 141.000786 
L 181.909662 141.318476 
L 182.345148 141.269265 
L 182.780633 141.768848 
L 183.216119 141.540859 
L 184.522576 141.249955 
L 184.958061 140.970263 
L 185.393547 141.118518 
L 186.264518 140.444517 
L 186.700004 140.272591 
L 187.13549 140.483761 
L 188.006461 140.209676 
L 188.441947 140.670015 
L 188.877432 140.271345 
L 189.312918 140.07201 
L 189.748403 139.725666 
L 191.490346 140.99954 
L 192.361317 141.158385 
L 192.796803 140.917937 
L 193.232289 141.253069 
L 193.667774 141.231267 
L 194.10326 142.085292 
L 194.538746 142.331969 
L 194.974231 141.763865 
L 195.845202 142.29148 
L 196.280688 142.551861 
L 196.716174 142.314528 
L 197.151659 142.333215 
L 197.587145 142.661495 
L 198.022631 142.743098 
L 198.458116 142.94181 
L 199.329088 142.580515 
L 199.764573 142.626611 
L 200.200059 142.414195 
L 201.07103 142.292725 
L 201.506516 142.224204 
L 201.942001 142.458423 
L 203.683944 142.359378 
L 204.554915 141.880974 
L 204.990401 141.292936 
L 205.425887 141.611872 
L 205.861372 141.620593 
L 206.296858 140.708013 
L 206.732343 140.616443 
L 207.167829 140.955313 
L 207.603315 140.892398 
L 208.474286 141.002655 
L 209.345257 140.595887 
L 209.780743 140.4196 
L 210.216229 140.392815 
L 210.651714 140.679981 
L 211.0872 140.724209 
L 211.522686 141.032555 
L 211.958171 140.782141 
L 212.393657 140.834466 
L 213.264628 140.301868 
L 214.135599 139.546887 
L 214.571085 139.275293 
L 215.006571 139.261589 
L 215.442056 138.846723 
L 215.877542 139.201789 
L 216.313028 139.324504 
L 216.748513 138.920851 
L 217.183999 138.87164 
L 217.619485 139.421057 
L 218.05497 139.578656 
L 220.232398 138.70096 
L 221.10337 138.228162 
L 221.538855 138.288586 
L 221.974341 137.950962 
L 222.409827 138.024467 
L 222.845312 137.841328 
L 223.280798 138.717156 
L 223.716283 138.358976 
L 224.151769 138.580736 
L 224.587255 138.56454 
L 225.02274 138.666076 
L 225.893712 138.396351 
L 226.764683 137.855655 
L 227.200169 137.786511 
L 227.635654 137.522392 
L 229.377597 137.105657 
L 229.813082 136.752461 
L 230.248568 136.9057 
L 230.684054 137.304369 
L 231.119539 137.248929 
L 231.555025 136.955533 
L 232.425996 136.672727 
L 232.861482 135.448063 
L 233.296968 135.548354 
L 233.732453 135.769491 
L 234.167939 135.580123 
L 234.603425 135.548976 
L 235.03891 135.744574 
L 236.780853 136.044822 
L 237.651824 135.61999 
L 238.08731 135.99312 
L 238.958281 135.834897 
L 239.393767 136.00184 
L 239.829252 136.005578 
L 240.264738 136.522603 
L 241.135709 136.45159 
L 241.571195 136.64345 
L 242.00668 136.486473 
L 242.442166 136.947435 
L 242.877652 136.581158 
L 243.313137 136.748101 
L 243.748623 136.609189 
L 244.184109 136.761182 
L 244.619594 136.612304 
L 245.05508 136.740625 
L 245.490566 137.069528 
L 246.361537 137.215915 
L 246.797022 136.996023 
L 247.232508 137.021563 
L 247.667994 136.887012 
L 248.538965 136.853997 
L 248.974451 136.817868 
L 249.409936 137.285059 
L 249.845422 137.271978 
L 250.280908 136.999761 
L 252.02285 136.916912 
L 252.458336 136.529455 
L 254.200278 136.089049 
L 254.635764 136.982319 
L 255.07125 136.407985 
L 255.506735 136.305203 
L 255.942221 136.447229 
L 256.377707 136.252255 
L 256.813192 135.907156 
L 257.248678 135.738345 
L 257.684164 135.72028 
L 258.555135 135.548976 
L 258.99062 135.520945 
L 259.861592 134.88868 
L 260.297077 135.046279 
L 260.732563 134.994576 
L 261.168049 135.274268 
L 261.603534 134.542958 
L 262.474506 134.366048 
L 262.909991 134.873107 
L 263.345477 134.483158 
L 263.780962 134.597775 
L 264.216448 134.557908 
L 264.651934 134.731703 
L 265.087419 134.420866 
L 265.522905 134.721114 
L 265.958391 134.602759 
L 266.393876 134.714885 
L 267.264848 134.506829 
L 267.700333 133.877678 
L 268.135819 134.084488 
L 269.00679 133.736275 
L 270.313247 133.738143 
L 270.748733 134.001639 
L 271.619704 134.928547 
L 272.05519 134.891171 
L 272.926161 135.737722 
L 273.361647 135.631202 
L 273.797132 135.940171 
L 274.232618 135.270531 
L 274.668104 135.676052 
L 275.103589 135.706576 
L 275.539075 135.547108 
L 275.97456 133.250396 
L 276.410046 133.259117 
L 276.845532 133.049192 
L 277.281017 133.14886 
L 277.716503 133.367505 
L 278.151989 133.417962 
L 278.587474 133.228594 
L 279.02296 133.4815 
L 279.458446 132.370208 
L 279.893931 133.017423 
L 280.764902 132.282376 
L 282.071359 132.062484 
L 282.506845 132.271786 
L 282.942331 132.31103 
L 283.377816 132.188938 
L 283.813302 132.406337 
L 284.248788 132.36211 
L 285.555245 132.912772 
L 285.99073 132.752682 
L 286.426216 132.918379 
L 286.861701 132.742715 
L 287.297187 133.001227 
L 287.732673 133.039848 
L 288.168158 131.92295 
L 289.03913 131.662569 
L 289.474615 131.612735 
L 289.910101 132.408206 
L 290.345587 132.065599 
L 291.216558 132.698487 
L 292.523015 132.116679 
L 292.9585 132.368962 
L 293.393986 132.405714 
L 293.829472 131.970915 
L 294.700443 132.582624 
L 295.135929 132.218215 
L 296.0069 132.131629 
L 296.442386 131.765974 
L 296.877871 131.936654 
L 297.313357 131.584704 
L 298.184328 132.23628 
L 298.619814 132.360864 
L 299.055299 132.731502 
L 299.490785 132.757042 
L 299.926271 132.489809 
L 300.361756 132.924608 
L 300.797242 132.738354 
L 301.232728 132.369585 
L 301.668213 132.718421 
L 302.103699 132.59882 
L 303.410156 132.756419 
L 303.845641 132.844874 
L 305.152098 133.735029 
L 305.587584 133.890136 
L 306.02307 134.169205 
L 306.458555 134.190385 
L 306.894041 134.798356 
L 307.329527 134.719245 
L 307.765012 134.886811 
L 308.200498 134.726097 
L 308.635984 134.733572 
L 309.071469 134.333034 
L 309.94244 134.796487 
L 310.377926 134.855042 
L 310.813412 134.754129 
L 311.684383 135.224434 
L 312.119869 135.114177 
L 312.555354 135.12975 
L 312.99084 134.995199 
L 314.732782 135.757655 
L 315.168268 135.516585 
L 316.039239 135.448686 
L 316.474725 135.84611 
L 316.910211 135.850471 
L 317.345696 135.173978 
L 317.781182 136.383691 
L 318.652153 135.778212 
L 319.087639 135.994365 
L 320.829581 135.84611 
L 321.265067 136.079083 
L 321.700553 135.689757 
L 323.442495 136.273434 
L 324.313467 136.411723 
L 325.184438 135.963219 
L 326.055409 135.929582 
L 326.490895 135.695363 
L 327.361866 135.862306 
L 328.232837 135.960105 
L 329.103809 136.272811 
L 329.539294 136.231699 
L 329.97478 136.32576 
L 330.410266 136.05292 
L 330.845751 135.944532 
L 332.152208 135.89719 
L 333.023179 135.248105 
L 333.458665 134.808323 
L 333.894151 134.982118 
L 334.329636 134.66692 
L 334.765122 134.708032 
L 335.200608 133.721948 
L 336.071579 133.086568 
L 336.507065 133.331999 
L 336.94255 133.339474 
L 339.99095 135.070573 
L 340.861921 135.130373 
L 341.297407 134.912974 
L 341.732892 134.943497 
L 342.168378 135.137848 
L 343.039349 134.291921 
L 344.781292 135.288595 
L 345.652263 135.354625 
L 346.087749 135.718411 
L 346.523234 135.878502 
L 346.95872 136.323268 
L 347.394206 136.136392 
L 347.829691 136.143244 
L 348.265177 136.332612 
L 348.700662 136.176259 
L 349.571634 136.394904 
L 350.878091 136.246649 
L 351.313576 135.978792 
L 352.620033 136.381823 
L 353.055519 136.06787 
L 353.491005 135.975055 
L 353.92649 135.637431 
L 354.361976 135.717788 
L 354.797461 135.677921 
L 355.232947 135.958859 
L 357.410375 136.099639 
L 357.845861 136.034855 
L 358.281347 136.346939 
L 358.716832 136.127048 
L 359.152318 137.179785 
L 360.023289 137.121853 
L 360.458775 136.987302 
L 360.89426 139.29585 
L 361.329746 139.004945 
L 362.636203 138.602538 
L 363.071689 138.814954 
L 363.507174 138.889705 
L 363.94266 138.558934 
L 364.378146 139.210509 
L 364.813631 139.157561 
L 365.684603 139.975457 
L 366.120088 140.027783 
L 366.555574 140.194103 
L 366.991059 140.529857 
L 367.426545 140.472549 
L 367.862031 140.268853 
L 368.297516 140.569724 
L 368.733002 140.149875 
L 369.168488 140.341735 
L 369.603973 140.292524 
L 370.474945 139.787958 
L 370.91043 139.729403 
L 371.345916 139.800416 
L 371.781401 139.692651 
L 372.216887 139.379944 
L 372.652373 139.217362 
L 373.087858 140.132433 
L 375.265287 141.018851 
L 375.700772 140.741651 
L 376.136258 141.309132 
L 376.571744 141.390112 
L 377.442715 141.83114 
L 377.8782 141.482927 
L 378.313686 141.601905 
L 378.749172 142.313282 
L 379.184657 142.001821 
L 379.620143 141.97379 
L 380.055629 142.394262 
L 380.491114 142.061621 
L 380.9266 141.375785 
L 381.362086 141.731473 
L 381.797571 141.60502 
L 382.668543 141.744554 
L 383.104028 141.453027 
L 383.539514 141.363949 
L 383.974999 141.138452 
L 384.410485 141.39385 
L 384.845971 141.472961 
L 385.281456 141.360835 
L 386.152428 141.626199 
L 386.587913 141.289822 
L 387.458885 141.135337 
L 387.89437 141.253692 
L 389.200827 141.260544 
L 390.071798 140.686834 
L 390.507284 140.737913 
L 392.684712 140.298131 
L 393.120198 140.447009 
L 393.555684 140.44514 
L 393.991169 140.664408 
L 394.86214 140.485007 
L 395.297626 140.494351 
L 395.733112 140.749749 
L 396.168597 140.691194 
L 396.604083 140.356062 
L 397.039569 140.495597 
L 397.475054 140.255149 
L 398.346026 140.1723 
L 398.781511 140.400913 
L 399.216997 140.219642 
L 399.652483 140.258886 
L 400.523454 140.702407 
L 400.958939 140.47068 
L 401.394425 140.372258 
L 401.829911 140.682473 
L 401.829911 140.682473 
" clip-path="url(#pf87cb5e07a)" style="fill: none; stroke: #2ca02c; stroke-opacity: 0.8; stroke-width: 1.5; stroke-linecap: square"/>
   </g>
   <g id="line2d_19">
    <path d="M 147.070811 96.889841 
L 147.941782 95.600393 
L 148.377268 94.681584 
L 149.248239 93.740973 
L 150.554696 93.078184 
L 150.990181 92.878849 
L 151.425667 92.345005 
L 151.861153 92.209208 
L 152.296638 91.895879 
L 152.732124 91.353937 
L 153.603095 90.824454 
L 154.474067 89.959216 
L 154.909552 89.888203 
L 157.522466 88.133433 
L 157.957952 88.115991 
L 158.393437 88.401912 
L 159.264409 87.78958 
L 160.13538 87.697388 
L 160.570866 87.465661 
L 161.006351 86.345025 
L 161.441837 86.632815 
L 161.877322 86.575506 
L 162.748294 85.623059 
L 163.183779 85.36953 
L 163.619265 84.831325 
L 164.054751 84.54665 
L 165.361208 84.408362 
L 165.796693 84.107491 
L 166.232179 84.119326 
L 167.10315 83.639676 
L 167.538636 82.8685 
L 168.409607 82.613102 
L 168.845093 82.243709 
L 169.716064 81.902971 
L 170.15155 81.420207 
L 171.458007 80.571788 
L 172.328978 79.742679 
L 172.764463 79.601276 
L 173.199949 79.936408 
L 174.07092 79.652356 
L 174.506406 79.350239 
L 174.941892 79.213819 
L 175.377377 79.233752 
L 175.812863 78.227111 
L 176.248349 78.255142 
L 177.11932 77.726282 
L 177.554806 77.84526 
L 177.990291 77.417313 
L 178.425777 77.38679 
L 178.861262 76.45303 
L 179.296748 76.329069 
L 179.732234 76.405688 
L 180.167719 76.614367 
L 180.603205 76.579483 
L 181.038691 76.052492 
L 181.909662 75.656314 
L 182.345148 75.617693 
L 183.216119 75.018442 
L 184.08709 74.940577 
L 184.522576 74.384931 
L 184.958061 74.298968 
L 185.829033 73.956361 
L 186.264518 73.943279 
L 186.700004 73.747682 
L 187.13549 73.867283 
L 187.570975 73.626835 
L 188.006461 72.921065 
L 188.441947 72.520526 
L 189.312918 72.518658 
L 189.748403 72.717993 
L 191.05486 71.575554 
L 191.490346 71.459691 
L 191.925832 70.491671 
L 192.361317 70.579503 
L 192.796803 70.432493 
L 193.667774 70.505998 
L 194.974231 70.525932 
L 195.409717 70.208865 
L 195.845202 70.128508 
L 196.280688 69.727969 
L 196.716174 69.651973 
L 197.151659 69.085114 
L 197.587145 69.269499 
L 198.022631 68.797324 
L 198.458116 70.167752 
L 199.329088 71.193704 
L 199.764573 71.856492 
L 200.200059 72.290668 
L 201.942001 75.054571 
L 203.248458 77.325743 
L 203.683944 78.181015 
L 204.11943 78.739152 
L 204.990401 79.558917 
L 205.425887 80.212985 
L 205.861372 79.843592 
L 208.0388 83.003051 
L 209.780743 86.118904 
L 210.216229 86.617242 
L 210.651714 87.52733 
L 211.0872 87.953408 
L 212.393657 90.339198 
L 212.829142 91.109752 
L 213.264628 92.399822 
L 213.700114 93.152935 
L 214.135599 93.635699 
L 214.571085 93.701729 
L 216.313028 95.810318 
L 217.183999 96.888595 
L 218.05497 98.556779 
L 219.361427 100.444232 
L 220.232398 101.600997 
L 221.538855 103.046175 
L 226.329197 110.56297 
L 226.764683 110.78473 
L 228.942111 114.359054 
L 229.377597 114.50108 
L 229.813082 115.57998 
L 231.119539 116.777235 
L 231.555025 116.735499 
L 231.990511 117.483005 
L 232.425996 117.984457 
L 233.732453 120.751475 
L 235.03891 122.698105 
L 235.474396 122.758528 
L 235.909881 123.326009 
L 236.345367 124.183772 
L 236.780853 124.755614 
L 239.829252 131.031549 
L 241.571195 134.229629 
L 242.00668 135.177092 
L 242.877652 135.076179 
L 243.313137 135.6094 
L 244.619594 137.53485 
L 245.05508 138.010763 
L 245.490566 138.878492 
L 245.926051 140.625787 
L 246.797022 141.540236 
L 247.667994 143.235829 
L 248.103479 143.897371 
L 248.538965 144.902767 
L 248.974451 145.244128 
L 250.280908 147.603132 
L 250.716393 148.41729 
L 251.151879 148.100846 
L 252.02285 149.71359 
L 252.458336 151.031069 
L 252.893821 150.629908 
L 253.329307 149.992036 
L 253.764793 150.04187 
L 254.200278 150.221271 
L 254.635764 150.175175 
L 255.07125 150.321561 
L 255.506735 150.639251 
L 255.942221 150.428704 
L 256.377707 148.682655 
L 257.684164 148.813468 
L 258.119649 148.751176 
L 258.555135 148.802256 
L 258.99062 149.083193 
L 260.297077 149.341706 
L 260.732563 149.759686 
L 261.168049 149.627004 
L 262.03902 150.700921 
L 262.474506 150.66666 
L 262.909991 150.893403 
L 263.345477 151.324465 
L 263.780962 152.263831 
L 264.216448 152.09938 
L 264.651934 152.123674 
L 265.087419 152.479362 
L 265.522905 152.414578 
L 265.958391 152.57716 
L 267.264848 152.5429 
L 267.700333 152.307435 
L 268.135819 152.498672 
L 268.571305 152.455691 
L 269.442276 152.952159 
L 270.313247 153.59626 
L 270.748733 153.07176 
L 271.184218 152.96088 
L 271.619704 152.99701 
L 272.05519 151.989745 
L 272.490675 152.501787 
L 273.361647 152.690532 
L 273.797132 153.044975 
L 274.232618 152.939078 
L 274.668104 152.985174 
L 275.97456 153.493478 
L 276.410046 153.870969 
L 276.845532 155.142974 
L 277.281017 155.313655 
L 277.716503 155.286246 
L 278.151989 155.691768 
L 278.587474 154.336291 
L 279.02296 154.340651 
L 279.458446 154.677029 
L 279.893931 154.202363 
L 280.329417 154.478317 
L 281.200388 154.599787 
L 282.071359 155.13986 
L 282.506845 154.849578 
L 282.942331 155.047667 
L 283.377816 153.849789 
L 284.248788 151.993483 
L 284.684273 151.584846 
L 285.555245 149.848764 
L 285.99073 148.796649 
L 287.297187 146.567836 
L 289.03913 143.264483 
L 289.474615 142.491437 
L 289.910101 142.074703 
L 290.345587 141.148418 
L 290.781072 140.825745 
L 291.216558 139.666488 
L 293.393986 135.850471 
L 293.829472 134.955955 
L 294.264957 134.385359 
L 295.135929 132.663604 
L 295.571414 132.268672 
L 299.055299 125.779698 
L 299.490785 125.286967 
L 299.926271 124.417368 
L 300.797242 123.468659 
L 301.668213 121.6055 
L 302.103699 120.362772 
L 302.539185 119.819584 
L 303.845641 117.256885 
L 304.281127 117.204559 
L 304.716613 116.816479 
L 305.152098 116.044679 
L 305.587584 115.612372 
L 306.02307 113.223468 
L 306.458555 110.064009 
L 306.894041 109.60367 
L 307.329527 108.170951 
L 307.765012 107.333121 
L 308.200498 106.743837 
L 309.506955 104.140025 
L 310.377926 103.297835 
L 311.248897 101.557392 
L 311.684383 101.23285 
L 312.99084 99.668694 
L 313.426326 98.63589 
L 314.297297 97.614299 
L 315.168268 96.043914 
L 315.603754 95.726224 
L 316.039239 93.542884 
L 316.474725 93.238898 
L 317.781182 85.498474 
L 318.216668 85.455493 
L 319.087639 84.053919 
L 319.95861 82.499107 
L 320.394096 82.08611 
L 320.829581 81.135532 
L 322.136038 79.133462 
L 323.00701 77.36125 
L 323.442495 75.494354 
L 324.748952 72.683732 
L 325.184438 72.523018 
L 325.619924 71.50641 
L 326.055409 71.089676 
L 326.92638 69.529257 
L 327.797352 68.816635 
L 328.668323 66.664441 
L 329.103809 65.427942 
L 329.97478 63.648255 
L 331.281237 61.89473 
L 331.716722 60.739834 
L 332.152208 59.964296 
L 332.587694 59.421109 
L 333.023179 58.448728 
L 333.458665 57.80525 
L 333.894151 57.589097 
L 334.329636 56.355089 
L 335.636093 53.744425 
L 336.071579 53.480929 
L 336.94255 50.900165 
L 337.378036 49.965159 
L 338.249007 51.073337 
L 338.684493 50.902034 
L 339.119978 50.865904 
L 339.555464 50.612375 
L 339.99095 50.87151 
L 340.426435 50.784301 
L 340.861921 50.877117 
L 341.297407 52.918431 
L 341.732892 53.163239 
L 342.168378 52.996919 
L 342.603864 52.98446 
L 343.039349 53.105307 
L 343.474835 52.947708 
L 343.91032 52.590774 
L 344.345806 52.839943 
L 344.781292 52.682343 
L 345.216777 52.940233 
L 345.652263 51.28077 
L 346.523234 51.121302 
L 346.95872 50.981767 
L 347.394206 50.71142 
L 347.829691 50.854069 
L 348.700662 50.008764 
L 349.571634 49.770808 
L 350.007119 49.484887 
L 351.313576 49.162836 
L 351.749062 49.501083 
L 352.184548 49.443774 
L 352.620033 49.889163 
L 353.055519 49.425086 
L 353.92649 48.951043 
L 354.361976 49.488624 
L 355.232947 48.704989 
L 355.668433 48.57729 
L 356.539404 48.561717 
L 356.97489 49.532852 
L 357.410375 48.871932 
L 357.845861 49.708516 
L 358.281347 49.659305 
L 358.716832 49.286798 
L 359.152318 48.596601 
L 359.587804 48.837671 
L 360.023289 48.691908 
L 360.89426 48.921143 
L 361.329746 46.212057 
L 361.765232 46.063179 
L 362.200717 45.776012 
L 362.636203 45.969741 
L 363.071689 45.533695 
L 363.507174 46.787014 
L 363.94266 46.284316 
L 364.378146 45.468289 
L 364.813631 45.802798 
L 365.249117 44.950018 
L 365.684603 45.145615 
L 366.555574 44.651016 
L 367.426545 44.668457 
L 367.862031 44.651639 
L 368.297516 45.369244 
L 368.733002 45.332492 
L 369.168488 45.475764 
L 369.603973 44.883988 
L 370.474945 45.469535 
L 370.91043 45.876925 
L 371.345916 45.780372 
L 371.781401 45.379834 
L 372.216887 45.700016 
L 372.652373 44.383782 
L 373.087858 44.094747 
L 373.523344 44.022488 
L 373.95883 43.532248 
L 374.394315 43.454383 
L 374.829801 43.225148 
L 376.136258 44.241756 
L 376.571744 44.067961 
L 377.442715 44.394372 
L 377.8782 43.798236 
L 378.749172 44.091009 
L 379.184657 43.714142 
L 380.055629 43.740927 
L 380.491114 41.256093 
L 380.9266 41.394382 
L 381.362086 40.875488 
L 381.797571 41.353892 
L 382.233057 41.522703 
L 382.668543 41.262945 
L 383.104028 41.839148 
L 383.539514 41.841639 
L 383.974999 41.369465 
L 384.845971 41.448576 
L 385.281456 38.740736 
L 386.152428 35.292865 
L 386.587913 35.651668 
L 387.023399 36.30449 
L 387.458885 36.039125 
L 387.89437 36.075877 
L 388.329856 36.271475 
L 388.765341 36.610344 
L 389.636313 35.847265 
L 390.071798 36.006733 
L 390.507284 35.603703 
L 390.94277 36.733682 
L 391.378255 38.586251 
L 391.813741 38.665362 
L 392.249227 39.220385 
L 392.684712 39.310086 
L 393.120198 38.830436 
L 394.426655 39.085211 
L 394.86214 38.887745 
L 395.297626 38.039949 
L 395.733112 38.254857 
L 396.604083 38.120929 
L 397.475054 37.440076 
L 397.91054 36.331898 
L 398.346026 36.397305 
L 398.781511 35.930737 
L 399.216997 35.717697 
L 399.652483 35.023763 
L 400.523454 34.990125 
L 400.958939 36.331275 
L 401.394425 36.314456 
L 401.829911 38.125912 
L 401.829911 38.125912 
" clip-path="url(#pf87cb5e07a)" style="fill: none; stroke: #d62728; stroke-opacity: 0.8; stroke-width: 1.5; stroke-linecap: square"/>
   </g>
   <g id="line2d_20">
    <path d="M 147.070811 122.120656 
L 147.506296 122.135606 
L 149.248239 124.732566 
L 150.11921 126.141615 
L 150.554696 126.521597 
L 152.296638 128.980269 
L 153.16761 130.322042 
L 153.603095 130.783004 
L 154.038581 131.585949 
L 156.216009 134.22776 
L 157.08698 135.985645 
L 158.828923 138.027581 
L 159.699894 139.412959 
L 160.570866 140.415863 
L 161.006351 141.596922 
L 161.441837 142.062244 
L 161.877322 141.928316 
L 162.748294 143.427688 
L 163.619265 144.84795 
L 164.054751 145.42789 
L 164.490236 146.724189 
L 164.925722 147.309113 
L 165.361208 148.300181 
L 165.796693 148.818452 
L 167.10315 151.591076 
L 167.538636 152.433266 
L 167.974121 153.552656 
L 168.409607 154.068435 
L 168.845093 154.879479 
L 169.716064 156.968757 
L 170.587035 158.617631 
L 171.022521 158.121785 
L 171.458007 158.757165 
L 172.328978 160.437808 
L 172.764463 161.01401 
L 174.07092 163.59166 
L 174.506406 163.665787 
L 174.941892 164.5086 
L 176.248349 166.302614 
L 177.554806 168.589359 
L 177.990291 169.085205 
L 178.861262 170.991968 
L 179.732234 172.225353 
L 181.474176 175.382942 
L 181.909662 176.168446 
L 182.345148 176.656817 
L 182.780633 177.594936 
L 183.651605 178.772881 
L 184.522576 180.261664 
L 185.393547 180.01561 
L 185.829033 179.674872 
L 186.264518 179.874206 
L 186.700004 179.566483 
L 187.13549 177.189414 
L 188.006461 176.815039 
L 188.877432 177.140827 
L 189.312918 177.01998 
L 189.748403 177.173841 
L 191.05486 176.765205 
L 191.925832 176.775795 
L 194.10326 177.341407 
L 194.538746 177.969312 
L 195.409717 178.204777 
L 195.845202 178.349917 
L 196.280688 178.232808 
L 196.716174 177.845974 
L 197.587145 177.522678 
L 198.022631 177.414912 
L 199.329088 178.983429 
L 199.764573 179.101784 
L 200.200059 179.504191 
L 200.635545 179.565237 
L 201.07103 179.511666 
L 201.506516 179.172797 
L 201.942001 179.164699 
L 202.377487 179.268104 
L 202.812973 178.87068 
L 203.248458 179.156601 
L 203.683944 179.154109 
L 204.11943 179.307348 
L 204.554915 179.230106 
L 204.990401 179.777031 
L 205.425887 179.557762 
L 205.861372 180.063575 
L 206.296858 179.956432 
L 206.732343 180.026822 
L 207.167829 179.955186 
L 208.0388 180.190651 
L 208.474286 180.624827 
L 210.216229 180.254812 
L 210.651714 178.944185 
L 211.0872 178.835173 
L 212.393657 178.164287 
L 213.264628 178.594103 
L 213.700114 179.085588 
L 214.135599 178.766029 
L 214.571085 178.600332 
L 215.006571 178.292609 
L 215.877542 176.438171 
L 216.748513 174.618617 
L 217.619485 173.341005 
L 220.667884 167.595799 
L 223.280798 164.27625 
L 224.151769 163.110764 
L 225.458226 161.293079 
L 225.893712 160.015467 
L 226.329197 159.335859 
L 226.764683 157.947367 
L 227.635654 156.57694 
L 229.377597 153.595637 
L 229.813082 152.555358 
L 230.248568 151.891324 
L 231.119539 149.927875 
L 231.555025 149.285643 
L 231.990511 148.323852 
L 233.296968 146.227721 
L 234.167939 144.47482 
L 235.474396 142.629726 
L 235.909881 142.000575 
L 237.216338 139.430401 
L 237.651824 138.545852 
L 238.958281 136.700136 
L 239.829252 134.966545 
L 241.571195 132.338439 
L 242.00668 131.180428 
L 243.748623 128.647628 
L 245.05508 126.094896 
L 246.361537 124.094072 
L 246.797022 124.555657 
L 247.667994 122.892456 
L 248.103479 122.303795 
L 250.280908 117.799449 
L 250.716393 116.559213 
L 251.587365 114.912831 
L 252.02285 114.431935 
L 253.764793 111.236971 
L 254.200278 109.114054 
L 255.506735 106.28163 
L 255.942221 106.4629 
L 257.248678 103.116565 
L 258.99062 100.679073 
L 259.426106 100.421806 
L 262.03902 96.526055 
L 264.216448 92.416641 
L 264.651934 91.742017 
L 265.958391 88.961918 
L 268.135819 85.728332 
L 268.571305 84.867455 
L 269.00679 83.647152 
L 269.442276 82.758865 
L 269.877761 82.558908 
L 270.748733 83.151306 
L 271.619704 83.087145 
L 272.05519 85.532112 
L 272.490675 85.155868 
L 272.926161 85.463591 
L 273.361647 84.368495 
L 273.797132 84.647564 
L 274.232618 84.706118 
L 274.668104 84.534192 
L 275.103589 84.75346 
L 275.539075 85.102296 
L 275.97456 84.756575 
L 276.410046 85.12223 
L 276.845532 85.135934 
L 277.281017 84.86434 
L 277.716503 84.807031 
L 278.151989 84.541044 
L 278.587474 84.491833 
L 279.458446 85.03066 
L 279.893931 85.290419 
L 280.329417 82.69159 
L 281.200388 82.727719 
L 282.071359 83.827176 
L 282.942331 84.04333 
L 283.377816 83.652758 
L 283.813302 83.102095 
L 284.248788 83.059736 
L 284.684273 82.352721 
L 285.119759 82.135321 
L 285.555245 82.232497 
L 285.99073 82.508451 
L 286.426216 83.02859 
L 286.861701 83.165633 
L 287.297187 82.918956 
L 287.732673 83.151929 
L 288.168158 82.759488 
L 289.03913 82.450519 
L 289.910101 81.625771 
L 291.216558 80.743091 
L 292.087529 80.87079 
L 292.9585 80.738731 
L 293.393986 80.426024 
L 293.829472 80.429139 
L 294.264957 80.614146 
L 294.700443 80.323242 
L 295.135929 80.256589 
L 295.571414 81.418338 
L 296.442386 81.707374 
L 297.313357 80.486447 
L 297.748842 80.616638 
L 298.184328 80.272162 
L 298.619814 78.881179 
L 299.055299 78.784626 
L 299.490785 78.853147 
L 299.926271 78.756594 
L 301.232728 78.962781 
L 301.668213 79.282963 
L 302.97467 79.469217 
L 303.845641 78.99455 
L 304.281127 79.33342 
L 305.152098 79.699075 
L 307.329527 79.195754 
L 308.200498 78.650698 
L 308.635984 78.386579 
L 309.071469 78.267601 
L 309.506955 78.023416 
L 310.377926 77.196799 
L 310.813412 77.594846 
L 311.248897 77.438492 
L 311.684383 78.206555 
L 312.119869 77.908175 
L 312.555354 77.76428 
L 312.99084 77.885127 
L 313.861811 77.43164 
L 314.732782 77.50203 
L 315.168268 77.563699 
L 316.039239 78.313697 
L 316.474725 78.060791 
L 316.910211 78.205932 
L 317.345696 78.196588 
L 317.781182 77.753068 
L 318.216668 77.834047 
L 318.652153 78.184752 
L 319.087639 78.362285 
L 319.523125 78.392808 
L 320.829581 78.073872 
L 321.265067 78.326155 
L 321.700553 78.381596 
L 322.136038 78.17354 
L 322.571524 78.234586 
L 323.00701 77.992892 
L 323.877981 77.882635 
L 324.313467 77.522587 
L 324.748952 77.766772 
L 325.184438 77.494555 
L 325.619924 77.66835 
L 326.055409 77.636581 
L 326.490895 77.313908 
L 326.92638 77.548749 
L 327.361866 77.310793 
L 327.797352 77.658384 
L 328.232837 77.206143 
L 328.668323 76.472964 
L 329.103809 76.373919 
L 329.539294 76.511585 
L 329.97478 76.487291 
L 330.410266 76.304775 
L 330.845751 75.997675 
L 331.281237 76.077409 
L 331.716722 76.010133 
L 332.152208 76.102326 
L 333.023179 75.573465 
L 333.458665 75.644478 
L 333.894151 75.587792 
L 336.507065 80.482087 
L 336.94255 80.981047 
L 338.249007 83.141962 
L 338.684493 83.737475 
L 339.119978 85.78751 
L 339.555464 86.736842 
L 339.99095 87.204034 
L 342.168378 91.962532 
L 343.474835 93.396497 
L 343.91032 93.777725 
L 344.345806 94.388188 
L 344.781292 93.777725 
L 345.652263 94.85974 
L 346.523234 96.093124 
L 346.95872 96.626345 
L 348.265177 98.770441 
L 348.700662 99.327956 
L 351.313576 103.566314 
L 352.620033 104.922415 
L 353.491005 106.290973 
L 353.92649 107.381086 
L 354.797461 108.845575 
L 355.668433 109.832905 
L 356.97489 111.773306 
L 357.410375 112.770604 
L 357.845861 113.250253 
L 358.281347 114.876078 
L 358.716832 115.314615 
L 360.023289 117.679848 
L 360.458775 118.21743 
L 360.89426 119.072701 
L 361.765232 120.049442 
L 362.200717 120.882911 
L 364.813631 124.138299 
L 365.249117 127.134552 
L 367.862031 130.597996 
L 370.474945 135.643661 
L 371.781401 137.303747 
L 372.216887 138.170853 
L 372.652373 138.752662 
L 374.829801 142.72005 
L 375.700772 142.855846 
L 376.571744 143.145505 
L 377.442715 142.934335 
L 377.8782 142.567434 
L 378.313686 142.895713 
L 378.749172 142.272169 
L 380.055629 143.236452 
L 380.491114 143.404017 
L 381.362086 143.557256 
L 381.797571 144.081133 
L 382.233057 144.937027 
L 382.668543 144.617469 
L 383.104028 144.618715 
L 383.539514 145.576145 
L 383.974999 145.73063 
L 384.410485 145.469002 
L 384.845971 145.50264 
L 385.281456 145.956127 
L 385.716942 145.771742 
L 386.152428 146.12307 
L 387.023399 145.171246 
L 387.458885 144.845458 
L 387.89437 144.791887 
L 388.329856 144.887817 
L 388.765341 144.731463 
L 389.200827 144.147786 
L 390.071798 144.089854 
L 390.507284 143.710495 
L 390.94277 143.498702 
L 391.813741 142.705099 
L 392.249227 142.953645 
L 392.684712 143.010954 
L 393.120198 143.191601 
L 393.555684 143.081967 
L 394.86214 143.287531 
L 395.297626 143.256385 
L 397.91054 142.377443 
L 398.346026 142.821586 
L 398.781511 142.841519 
L 399.216997 142.206139 
L 399.652483 141.994346 
L 400.958939 140.982098 
L 401.829911 140.747257 
L 401.829911 140.747257 
" clip-path="url(#pf87cb5e07a)" style="fill: none; stroke: #9467bd; stroke-opacity: 0.8; stroke-width: 1.5; stroke-linecap: square"/>
   </g>
   <g id="patch_3">
    <path d="M 61.715625 288.430125 
L 61.715625 22.318125 
" style="fill: none; stroke: #000000; stroke-width: 0.8; stroke-linejoin: miter; stroke-linecap: square"/>
   </g>
   <g id="patch_4">
    <path d="M 418.835625 288.430125 
L 418.835625 22.318125 
" style="fill: none; stroke: #000000; stroke-width: 0.8; stroke-linejoin: miter; stroke-linecap: square"/>
   </g>
   <g id="patch_5">
    <path d="M 61.715625 288.430125 
L 418.835625 288.430125 
" style="fill: none; stroke: #000000; stroke-width: 0.8; stroke-linejoin: miter; stroke-linecap: square"/>
   </g>
   <g id="patch_6">
    <path d="M 61.715625 22.318125 
L 418.835625 22.318125 
" style="fill: none; stroke: #000000; stroke-width: 0.8; stroke-linejoin: miter; stroke-linecap: square"/>
   </g>
   <g id="text_18">
    <!-- Get filtered children count [branch] -->
    <g transform="translate(134.09625 16.318125) scale(0.12 -0.12)">
     <defs>
      <path id="DejaVuSans-47" d="M 3809 666 
L 3809 1919 
L 2778 1919 
L 2778 2438 
L 4434 2438 
L 4434 434 
Q 4069 175 3628 42 
Q 3188 -91 2688 -91 
Q 1594 -91 976 548 
Q 359 1188 359 2328 
Q 359 3472 976 4111 
Q 1594 4750 2688 4750 
Q 3144 4750 3555 4637 
Q 3966 4525 4313 4306 
L 4313 3634 
Q 3963 3931 3569 4081 
Q 3175 4231 2741 4231 
Q 1884 4231 1454 3753 
Q 1025 3275 1025 2328 
Q 1025 1384 1454 906 
Q 1884 428 2741 428 
Q 3075 428 3337 486 
Q 3600 544 3809 666 
z
" transform="scale(0.015625)"/>
      <path id="DejaVuSans-72" d="M 2631 2963 
Q 2534 3019 2420 3045 
Q 2306 3072 2169 3072 
Q 1681 3072 1420 2755 
Q 1159 2438 1159 1844 
L 1159 0 
L 581 0 
L 581 3500 
L 1159 3500 
L 1159 2956 
Q 1341 3275 1631 3429 
Q 1922 3584 2338 3584 
Q 2397 3584 2469 3576 
Q 2541 3569 2628 3553 
L 2631 2963 
z
" transform="scale(0.015625)"/>
      <path id="DejaVuSans-68" d="M 3513 2113 
L 3513 0 
L 2938 0 
L 2938 2094 
Q 2938 2591 2744 2837 
Q 2550 3084 2163 3084 
Q 1697 3084 1428 2787 
Q 1159 2491 1159 1978 
L 1159 0 
L 581 0 
L 581 4863 
L 1159 4863 
L 1159 2956 
Q 1366 3272 1645 3428 
Q 1925 3584 2291 3584 
Q 2894 3584 3203 3211 
Q 3513 2838 3513 2113 
z
" transform="scale(0.015625)"/>
      <path id="DejaVuSans-5b" d="M 550 4863 
L 1875 4863 
L 1875 4416 
L 1125 4416 
L 1125 -397 
L 1875 -397 
L 1875 -844 
L 550 -844 
L 550 4863 
z
" transform="scale(0.015625)"/>
      <path id="DejaVuSans-5d" d="M 1947 4863 
L 1947 -844 
L 622 -844 
L 622 -397 
L 1369 -397 
L 1369 4416 
L 622 4416 
L 622 4863 
L 1947 4863 
z
" transform="scale(0.015625)"/>
     </defs>
     <use xlink:href="#DejaVuSans-47"/>
     <use xlink:href="#DejaVuSans-65" transform="translate(77.490234 0)"/>
     <use xlink:href="#DejaVuSans-74" transform="translate(139.013672 0)"/>
     <use xlink:href="#DejaVuSans-20" transform="translate(178.222656 0)"/>
     <use xlink:href="#DejaVuSans-66" transform="translate(210.009766 0)"/>
     <use xlink:href="#DejaVuSans-69" transform="translate(245.214844 0)"/>
     <use xlink:href="#DejaVuSans-6c" transform="translate(272.998047 0)"/>
     <use xlink:href="#DejaVuSans-74" transform="translate(300.78125 0)"/>
     <use xlink:href="#DejaVuSans-65" transform="translate(339.990234 0)"/>
     <use xlink:href="#DejaVuSans-72" transform="translate(401.513672 0)"/>
     <use xlink:href="#DejaVuSans-65" transform="translate(440.376953 0)"/>
     <use xlink:href="#DejaVuSans-64" transform="translate(501.900391 0)"/>
     <use xlink:href="#DejaVuSans-20" transform="translate(565.376953 0)"/>
     <use xlink:href="#DejaVuSans-63" transform="translate(597.164062 0)"/>
     <use xlink:href="#DejaVuSans-68" transform="translate(652.144531 0)"/>
     <use xlink:href="#DejaVuSans-69" transform="translate(715.523438 0)"/>
     <use xlink:href="#DejaVuSans-6c" transform="translate(743.306641 0)"/>
     <use xlink:href="#DejaVuSans-64" transform="translate(771.089844 0)"/>
     <use xlink:href="#DejaVuSans-72" transform="translate(834.566406 0)"/>
     <use xlink:href="#DejaVuSans-65" transform="translate(873.429688 0)"/>
     <use xlink:href="#DejaVuSans-6e" transform="translate(934.953125 0)"/>
     <use xlink:href="#DejaVuSans-20" transform="translate(998.332031 0)"/>
     <use xlink:href="#DejaVuSans-63" transform="translate(1030.119141 0)"/>
     <use xlink:href="#DejaVuSans-6f" transform="translate(1085.099609 0)"/>
     <use xlink:href="#DejaVuSans-75" transform="translate(1146.28125 0)"/>
     <use xlink:href="#DejaVuSans-6e" transform="translate(1209.660156 0)"/>
     <use xlink:href="#DejaVuSans-74" transform="translate(1273.039062 0)"/>
     <use xlink:href="#DejaVuSans-20" transform="translate(1312.248047 0)"/>
     <use xlink:href="#DejaVuSans-5b" transform="translate(1344.035156 0)"/>
     <use xlink:href="#DejaVuSans-62" transform="translate(1383.048828 0)"/>
     <use xlink:href="#DejaVuSans-72" transform="translate(1446.525391 0)"/>
     <use xlink:href="#DejaVuSans-61" transform="translate(1487.638672 0)"/>
     <use xlink:href="#DejaVuSans-6e" transform="translate(1548.917969 0)"/>
     <use xlink:href="#DejaVuSans-63" transform="translate(1612.296875 0)"/>
     <use xlink:href="#DejaVuSans-68" transform="translate(1667.277344 0)"/>
     <use xlink:href="#DejaVuSans-5d" transform="translate(1730.65625 0)"/>
    </g>
   </g>
   <g id="legend_1">
    <g id="patch_7">
     <path d="M 92.717969 365.802375 
L 380.313281 365.802375 
Q 382.313281 365.802375 382.313281 363.802375 
L 382.313281 335.446125 
Q 382.313281 333.446125 380.313281 333.446125 
L 92.717969 333.446125 
Q 90.717969 333.446125 90.717969 335.446125 
L 90.717969 363.802375 
Q 90.717969 365.802375 92.717969 365.802375 
z
" style="fill: #4d4d4d; opacity: 0.5; stroke: #4d4d4d; stroke-linejoin: miter"/>
    </g>
    <g id="patch_8">
     <path d="M 90.717969 363.802375 
L 378.313281 363.802375 
Q 380.313281 363.802375 380.313281 361.802375 
L 380.313281 333.446125 
Q 380.313281 331.446125 378.313281 331.446125 
L 90.717969 331.446125 
Q 88.717969 331.446125 88.717969 333.446125 
L 88.717969 361.802375 
Q 88.717969 363.802375 90.717969 363.802375 
z
" style="fill: #ffffff; stroke: #cccccc; stroke-linejoin: miter"/>
    </g>
    <g id="line2d_21">
     <path d="M 92.717969 339.544562 
L 102.717969 339.544562 
L 112.717969 339.544562 
" style="fill: none; stroke: #1f77b4; stroke-opacity: 0.8; stroke-width: 1.5; stroke-linecap: square"/>
    </g>
    <g id="text_19">
     <!-- MPTT -->
     <g transform="translate(120.717969 343.044562) scale(0.1 -0.1)">
      <defs>
       <path id="DejaVuSans-4d" d="M 628 4666 
L 1569 4666 
L 2759 1491 
L 3956 4666 
L 4897 4666 
L 4897 0 
L 4281 0 
L 4281 4097 
L 3078 897 
L 2444 897 
L 1241 4097 
L 1241 0 
L 628 0 
L 628 4666 
z
" transform="scale(0.015625)"/>
       <path id="DejaVuSans-50" d="M 1259 4147 
L 1259 2394 
L 2053 2394 
Q 2494 2394 2734 2622 
Q 2975 2850 2975 3272 
Q 2975 3691 2734 3919 
Q 2494 4147 2053 4147 
L 1259 4147 
z
M 628 4666 
L 2053 4666 
Q 2838 4666 3239 4311 
Q 3641 3956 3641 3272 
Q 3641 2581 3239 2228 
Q 2838 1875 2053 1875 
L 1259 1875 
L 1259 0 
L 628 0 
L 628 4666 
z
" transform="scale(0.015625)"/>
       <path id="DejaVuSans-54" d="M -19 4666 
L 3928 4666 
L 3928 4134 
L 2272 4134 
L 2272 0 
L 1638 0 
L 1638 4134 
L -19 4134 
L -19 4666 
z
" transform="scale(0.015625)"/>
      </defs>
      <use xlink:href="#DejaVuSans-4d"/>
      <use xlink:href="#DejaVuSans-50" transform="translate(86.279297 0)"/>
      <use xlink:href="#DejaVuSans-54" transform="translate(146.582031 0)"/>
      <use xlink:href="#DejaVuSans-54" transform="translate(205.916016 0)"/>
     </g>
    </g>
    <g id="line2d_22">
     <path d="M 92.717969 354.222687 
L 102.717969 354.222687 
L 112.717969 354.222687 
" style="fill: none; stroke: #ff7f0e; stroke-opacity: 0.8; stroke-width: 1.5; stroke-linecap: square"/>
    </g>
    <g id="text_20">
     <!-- tree -->
     <g transform="translate(120.717969 357.722687) scale(0.1 -0.1)">
      <use xlink:href="#DejaVuSans-74"/>
      <use xlink:href="#DejaVuSans-72" transform="translate(39.208984 0)"/>
      <use xlink:href="#DejaVuSans-65" transform="translate(78.072266 0)"/>
      <use xlink:href="#DejaVuSans-65" transform="translate(139.595703 0)"/>
     </g>
    </g>
    <g id="line2d_23">
     <path d="M 167.416406 339.544562 
L 177.416406 339.544562 
L 187.416406 339.544562 
" style="fill: none; stroke: #2ca02c; stroke-opacity: 0.8; stroke-width: 1.5; stroke-linecap: square"/>
    </g>
    <g id="text_21">
     <!-- treebeard AL -->
     <g transform="translate(195.416406 343.044562) scale(0.1 -0.1)">
      <defs>
       <path id="DejaVuSans-4c" d="M 628 4666 
L 1259 4666 
L 1259 531 
L 3531 531 
L 3531 0 
L 628 0 
L 628 4666 
z
" transform="scale(0.015625)"/>
      </defs>
      <use xlink:href="#DejaVuSans-74"/>
      <use xlink:href="#DejaVuSans-72" transform="translate(39.208984 0)"/>
      <use xlink:href="#DejaVuSans-65" transform="translate(78.072266 0)"/>
      <use xlink:href="#DejaVuSans-65" transform="translate(139.595703 0)"/>
      <use xlink:href="#DejaVuSans-62" transform="translate(201.119141 0)"/>
      <use xlink:href="#DejaVuSans-65" transform="translate(264.595703 0)"/>
      <use xlink:href="#DejaVuSans-61" transform="translate(326.119141 0)"/>
      <use xlink:href="#DejaVuSans-72" transform="translate(387.398438 0)"/>
      <use xlink:href="#DejaVuSans-64" transform="translate(426.761719 0)"/>
      <use xlink:href="#DejaVuSans-20" transform="translate(490.238281 0)"/>
      <use xlink:href="#DejaVuSans-41" transform="translate(522.025391 0)"/>
      <use xlink:href="#DejaVuSans-4c" transform="translate(590.433594 0)"/>
     </g>
    </g>
    <g id="line2d_24">
     <path d="M 167.416406 354.222687 
L 177.416406 354.222687 
L 187.416406 354.222687 
" style="fill: none; stroke: #d62728; stroke-opacity: 0.8; stroke-width: 1.5; stroke-linecap: square"/>
    </g>
    <g id="text_22">
     <!-- treebeard MP -->
     <g transform="translate(195.416406 357.722687) scale(0.1 -0.1)">
      <use xlink:href="#DejaVuSans-74"/>
      <use xlink:href="#DejaVuSans-72" transform="translate(39.208984 0)"/>
      <use xlink:href="#DejaVuSans-65" transform="translate(78.072266 0)"/>
      <use xlink:href="#DejaVuSans-65" transform="translate(139.595703 0)"/>
      <use xlink:href="#DejaVuSans-62" transform="translate(201.119141 0)"/>
      <use xlink:href="#DejaVuSans-65" transform="translate(264.595703 0)"/>
      <use xlink:href="#DejaVuSans-61" transform="translate(326.119141 0)"/>
      <use xlink:href="#DejaVuSans-72" transform="translate(387.398438 0)"/>
      <use xlink:href="#DejaVuSans-64" transform="translate(426.761719 0)"/>
      <use xlink:href="#DejaVuSans-20" transform="translate(490.238281 0)"/>
      <use xlink:href="#DejaVuSans-4d" transform="translate(522.025391 0)"/>
      <use xlink:href="#DejaVuSans-50" transform="translate(608.304688 0)"/>
     </g>
    </g>
    <g id="line2d_25">
     <path d="M 282.278906 339.544562 
L 292.278906 339.544562 
L 302.278906 339.544562 
" style="fill: none; stroke: #9467bd; stroke-opacity: 0.8; stroke-width: 1.5; stroke-linecap: square"/>
    </g>
    <g id="text_23">
     <!-- treebeard NS -->
     <g transform="translate(310.278906 343.044562) scale(0.1 -0.1)">
      <defs>
       <path id="DejaVuSans-4e" d="M 628 4666 
L 1478 4666 
L 3547 763 
L 3547 4666 
L 4159 4666 
L 4159 0 
L 3309 0 
L 1241 3903 
L 1241 0 
L 628 0 
L 628 4666 
z
" transform="scale(0.015625)"/>
       <path id="DejaVuSans-53" d="M 3425 4513 
L 3425 3897 
Q 3066 4069 2747 4153 
Q 2428 4238 2131 4238 
Q 1616 4238 1336 4038 
Q 1056 3838 1056 3469 
Q 1056 3159 1242 3001 
Q 1428 2844 1947 2747 
L 2328 2669 
Q 3034 2534 3370 2195 
Q 3706 1856 3706 1288 
Q 3706 609 3251 259 
Q 2797 -91 1919 -91 
Q 1588 -91 1214 -16 
Q 841 59 441 206 
L 441 856 
Q 825 641 1194 531 
Q 1563 422 1919 422 
Q 2459 422 2753 634 
Q 3047 847 3047 1241 
Q 3047 1584 2836 1778 
Q 2625 1972 2144 2069 
L 1759 2144 
Q 1053 2284 737 2584 
Q 422 2884 422 3419 
Q 422 4038 858 4394 
Q 1294 4750 2059 4750 
Q 2388 4750 2728 4690 
Q 3069 4631 3425 4513 
z
" transform="scale(0.015625)"/>
      </defs>
      <use xlink:href="#DejaVuSans-74"/>
      <use xlink:href="#DejaVuSans-72" transform="translate(39.208984 0)"/>
      <use xlink:href="#DejaVuSans-65" transform="translate(78.072266 0)"/>
      <use xlink:href="#DejaVuSans-65" transform="translate(139.595703 0)"/>
      <use xlink:href="#DejaVuSans-62" transform="translate(201.119141 0)"/>
      <use xlink:href="#DejaVuSans-65" transform="translate(264.595703 0)"/>
      <use xlink:href="#DejaVuSans-61" transform="translate(326.119141 0)"/>
      <use xlink:href="#DejaVuSans-72" transform="translate(387.398438 0)"/>
      <use xlink:href="#DejaVuSans-64" transform="translate(426.761719 0)"/>
      <use xlink:href="#DejaVuSans-20" transform="translate(490.238281 0)"/>
      <use xlink:href="#DejaVuSans-4e" transform="translate(522.025391 0)"/>
      <use xlink:href="#DejaVuSans-53" transform="translate(596.830078 0)"/>
     </g>
    </g>
   </g>
  </g>
 </g>
 <defs>
  <clipPath id="pf87cb5e07a">
   <rect x="61.715625" y="22.318125" width="357.12" height="266.112"/>
  </clipPath>
 </defs>
</svg>
