<?xml version="1.0" encoding="utf-8" standalone="no"?>
<!DOCTYPE svg PUBLIC "-//W3C//DTD SVG 1.1//EN"
  "http://www.w3.org/Graphics/SVG/1.1/DTD/svg11.dtd">
<!-- Created with matplotlib (http://matplotlib.org/) -->
<svg height="472pt" version="1.1" viewBox="0 0 506 472" width="506pt" xmlns="http://www.w3.org/2000/svg" xmlns:xlink="http://www.w3.org/1999/xlink">
 <defs>
  <style type="text/css">
*{stroke-linecap:butt;stroke-linejoin:round;stroke-miterlimit:100000;}
  </style>
 </defs>
 <g id="figure_1">
  <g id="patch_1">
   <path d="M 0 472.93475 
L 506.74875 472.93475 
L 506.74875 0 
L 0 0 
z
" style="fill:#ffffff;"/>
  </g>
  <g id="axes_1">
   <g id="patch_2">
    <path d="M 53.14875 368.74175 
L 499.54875 368.74175 
L 499.54875 23.14175 
L 53.14875 23.14175 
z
" style="fill:#ffffff;"/>
   </g>
   <g id="line2d_1">
    <path clip-path="url(#p0f4af00d7a)" d="M 91.253744 352.99501 
L 95.6086 349.403484 
L 96.697314 348.577593 
L 100.507813 345.520828 
L 102.685242 343.711504 
L 104.86267 341.895469 
L 106.495741 340.445886 
L 108.128812 339.000024 
L 114.11674 334.551689 
L 118.471596 331.061443 
L 125.003881 325.846282 
L 126.636952 324.518048 
L 133.713594 318.830857 
L 135.346665 317.400926 
L 139.701521 314.015727 
L 141.334592 312.750701 
L 142.967663 311.445508 
L 146.778163 308.50836 
L 147.866877 307.464215 
L 148.411234 307.077418 
L 148.955591 306.891858 
L 151.133019 305.233962 
L 152.76609 303.898174 
L 157.120947 300.289039 
L 159.298375 298.501471 
L 161.475803 296.732077 
L 162.564517 295.986464 
L 166.375017 292.988981 
L 167.463731 292.253166 
L 168.552445 291.380628 
L 174.540372 286.715004 
L 176.173444 285.322561 
L 179.983943 282.141218 
L 181.072657 281.396883 
L 184.338799 278.695201 
L 186.516228 276.917177 
L 187.604942 275.688003 
L 198.492083 267.176586 
L 201.213868 264.904555 
L 201.758225 264.885933 
L 203.391296 263.651788 
L 203.935653 263.388489 
L 204.48001 262.954522 
L 205.024367 262.705655 
L 206.657438 262.725137 
L 209.379224 260.667057 
L 209.923581 260.456766 
L 214.822794 256.262651 
L 215.367151 255.821595 
L 216.455865 254.718071 
L 219.177651 252.035212 
L 219.722008 252.326098 
L 220.810722 251.368562 
L 224.076864 248.451494 
L 230.609149 241.830686 
L 231.153506 241.44054 
L 232.786577 239.62659 
L 233.875291 238.607557 
L 239.318862 233.421839 
L 239.863219 232.449018 
L 242.585004 229.812244 
L 244.218075 227.308705 
L 244.762432 226.258212 
L 245.851146 225.175702 
L 247.484217 223.625614 
L 248.572931 222.399442 
L 250.75036 220.572185 
L 251.294717 220.262708 
L 251.839074 220.546804 
L 252.383431 220.686495 
L 253.472145 220.244332 
L 255.105216 220.3529 
L 255.649573 219.879453 
L 256.19393 219.688083 
L 257.282644 218.976017 
L 257.827001 217.803327 
L 262.181858 214.169608 
L 262.726215 213.854511 
L 263.814929 212.970366 
L 265.992357 211.590501 
L 267.081071 210.645277 
L 268.714142 209.318029 
L 269.802856 208.58959 
L 270.891571 208.011576 
L 271.435928 207.738066 
L 273.068999 206.541136 
L 274.70207 205.529623 
L 278.512569 203.04933 
L 279.601283 202.187182 
L 281.778712 200.719914 
L 282.867426 200.08588 
L 283.411783 200.253664 
L 283.95614 200.594295 
L 285.589211 199.538578 
L 286.133568 199.075081 
L 286.677925 198.825338 
L 289.39971 196.568026 
L 289.944067 195.250995 
L 290.488424 194.444627 
L 291.032781 193.917744 
L 293.754567 190.543793 
L 294.843281 189.434692 
L 297.020709 187.865186 
L 297.565066 187.400412 
L 299.198137 188.681837 
L 299.742494 188.174796 
L 300.286851 187.853019 
L 301.375565 186.921694 
L 304.641708 184.483333 
L 305.186065 184.89105 
L 306.274779 186.937573 
L 306.819136 187.18143 
L 307.90785 187.184556 
L 309.540921 189.689245 
L 311.718349 192.957095 
L 312.262706 192.918159 
L 313.351421 193.452436 
L 314.440135 193.568068 
L 314.984492 194.098972 
L 316.073206 193.79141 
L 316.617563 194.58678 
L 317.16192 194.135297 
L 317.706277 194.297646 
L 318.250634 194.103949 
L 318.794991 193.687036 
L 320.972419 191.493858 
L 321.516776 190.668266 
L 322.061133 189.485556 
L 322.60549 188.853933 
L 323.149847 189.752371 
L 323.694205 189.552957 
L 325.327276 187.760216 
L 325.871633 187.671218 
L 328.049061 186.2871 
L 328.593418 185.663539 
L 329.682132 184.768108 
L 331.315203 182.938118 
L 332.948274 181.443104 
L 333.492631 180.687744 
L 335.125703 179.148917 
L 335.67006 178.699976 
L 337.303131 175.018715 
L 338.936202 173.256076 
L 339.480559 173.086273 
L 342.202344 170.729747 
L 342.746701 170.411193 
L 343.291058 169.568493 
L 343.835415 168.029993 
L 344.379772 166.943692 
L 344.92413 166.755495 
L 345.468487 166.228064 
L 346.012844 165.392138 
L 346.557201 163.658003 
L 347.101558 162.673438 
L 347.645915 161.309467 
L 349.823343 154.247174 
L 350.3677 153.28851 
L 352.000771 149.681106 
L 352.545128 148.746285 
L 353.089485 147.361442 
L 353.633842 146.613114 
L 354.178199 146.419704 
L 354.722556 145.191956 
L 355.266914 144.985198 
L 355.811271 143.975054 
L 356.899985 142.68672 
L 357.444342 142.611651 
L 357.988699 142.298342 
L 359.62177 140.891154 
L 360.166127 140.305949 
L 360.710484 140.246845 
L 361.254841 138.224832 
L 361.799198 137.462096 
L 363.432269 136.39887 
L 363.976626 135.510517 
L 366.154055 132.938114 
L 366.698412 132.538618 
L 367.787126 131.403263 
L 368.331483 131.254295 
L 368.87584 130.924468 
L 369.964554 129.927041 
L 370.508911 130.854033 
L 371.053268 130.46962 
L 371.597625 130.227959 
L 372.141982 129.659348 
L 373.230696 128.837702 
L 375.952481 126.233145 
L 377.041196 125.402081 
L 377.585553 124.856981 
L 378.12991 124.596685 
L 378.674267 123.918375 
L 379.762981 123.104236 
L 380.307338 122.892916 
L 380.851695 122.887859 
L 381.396052 122.659818 
L 381.940409 122.876579 
L 382.484766 121.6545 
L 383.029123 121.172614 
L 383.57348 121.08897 
L 384.117837 120.792434 
L 384.662194 120.156618 
L 385.206551 118.764266 
L 385.750908 117.769468 
L 386.295265 117.274228 
L 386.839623 117.224117 
L 387.38398 116.727441 
L 387.928337 116.681369 
L 388.472694 116.839242 
L 389.017051 116.179506 
L 391.738836 113.704525 
L 392.82755 111.484701 
L 395.004978 109.585924 
L 396.093692 108.234353 
L 397.182406 107.234469 
L 397.726764 107.005862 
L 398.271121 106.614372 
L 398.815478 105.979349 
L 399.359835 105.985394 
L 399.904192 105.837509 
L 400.448549 106.097548 
L 400.992906 106.190311 
L 402.08162 108.16129 
L 402.625977 108.074571 
L 403.170334 107.689814 
L 403.714691 107.637761 
L 404.803405 107.19001 
L 405.347762 107.291455 
L 405.892119 107.618311 
L 406.980833 107.431044 
L 407.52519 107.919614 
L 409.158262 108.493277 
L 410.246976 108.042215 
L 412.424404 108.415614 
L 414.057475 107.598364 
L 415.146189 106.813366 
L 416.234903 105.614795 
L 417.323617 105.190718 
L 417.867974 104.680061 
L 418.412331 104.009564 
L 420.045403 100.579667 
L 420.58976 100.061613 
L 421.678474 97.626093 
L 422.222831 96.899675 
L 423.311545 96.294495 
L 424.400259 95.823396 
L 426.03333 93.96844 
L 426.577687 93.010332 
L 427.122044 92.709188 
L 427.666401 92.640554 
L 428.210758 92.719507 
L 429.299473 91.56514 
L 429.84383 91.499091 
L 430.388187 90.986292 
L 430.932544 90.943281 
L 431.476901 89.992506 
L 434.198686 86.98445 
L 434.743043 86.55107 
L 435.2874 86.282399 
L 436.376114 85.367655 
L 436.920471 85.047115 
L 438.009185 83.607598 
L 439.097899 81.668781 
L 440.186614 78.260177 
L 440.730971 78.123521 
L 441.275328 78.279295 
L 442.364042 77.208365 
L 442.908399 76.422668 
L 444.54147 73.365619 
L 445.085827 72.595173 
L 446.174541 70.32677 
L 446.718898 67.818856 
L 447.263255 66.900229 
L 448.351969 65.652915 
L 449.440683 63.622546 
L 450.529398 61.980209 
L 451.618112 61.154758 
L 453.251183 59.780397 
L 455.428611 57.94587 
L 455.972968 57.684372 
L 456.517325 57.706372 
L 457.606039 57.040628 
L 459.23911 55.631334 
L 465.227038 50.555183 
L 465.771395 49.974364 
L 466.315752 49.006259 
L 467.404466 48.364719 
L 467.948823 47.652341 
L 468.49318 47.35455 
L 469.037537 46.72753 
L 469.581894 46.590332 
L 471.214965 45.704378 
L 472.30368 45.266431 
L 473.392394 44.234845 
L 473.936751 43.579938 
L 474.481108 43.153111 
L 475.025465 42.466401 
L 475.569822 42.145304 
L 476.658536 41.109765 
L 478.291607 39.598893 
L 478.291607 39.598893 
" style="fill:none;opacity:0.8;stroke:#0000ff;stroke-linecap:square;"/>
   </g>
   <g id="line2d_2">
    <path clip-path="url(#p0f4af00d7a)" d="M 91.253744 368.503708 
L 140.245878 368.311833 
L 182.705728 368.187017 
L 205.024367 368.13201 
L 245.851146 368.01262 
L 257.282644 367.980944 
L 364.520983 367.70521 
L 379.218624 367.65889 
L 478.291607 367.430877 
L 478.291607 367.430877 
" style="fill:none;opacity:0.8;stroke:#008000;stroke-linecap:square;"/>
   </g>
   <g id="line2d_3">
    <path clip-path="url(#p0f4af00d7a)" d="M 0 0 
" style="fill:none;opacity:0.8;stroke:#ff0000;stroke-linecap:square;"/>
   </g>
   <g id="line2d_4">
    <path clip-path="url(#p0f4af00d7a)" d="M 91.253744 368.26576 
L 105.407027 367.793563 
L 119.56031 367.137676 
L 133.713594 366.246341 
L 145.145092 365.348312 
L 157.120947 364.20656 
L 177.806515 361.825638 
L 187.604942 360.562356 
L 202.846939 358.420299 
L 221.355079 355.514492 
L 242.040647 351.899495 
L 252.383431 349.936639 
L 269.258499 346.433458 
L 279.056926 344.273456 
L 298.109423 339.685834 
L 316.617563 334.783235 
L 337.303131 328.919463 
L 354.722556 323.797679 
L 362.887912 321.29941 
L 367.242769 319.922402 
L 379.218624 316.037834 
L 400.992906 308.625462 
L 404.259048 307.479467 
L 423.311545 300.421585 
L 425.488973 299.559954 
L 433.109972 296.671965 
L 439.642256 294.055649 
L 445.085827 291.913107 
L 463.04961 284.591681 
L 469.581894 281.349124 
L 470.670608 280.779442 
L 471.214965 280.56237 
L 471.759323 280.055279 
L 476.658536 277.478737 
L 478.291607 276.343078 
L 478.291607 276.343078 
" style="fill:none;opacity:0.8;stroke:#00bfbf;stroke-linecap:square;"/>
   </g>
   <g id="line2d_5">
    <path clip-path="url(#p0f4af00d7a)" d="M 0 0 
" style="fill:none;opacity:0.8;stroke:#bf00bf;stroke-linecap:square;"/>
   </g>
   <g id="patch_3">
    <path d="M 53.14875 368.74175 
L 499.54875 368.74175 
" style="fill:none;stroke:#000000;stroke-linecap:square;stroke-linejoin:miter;"/>
   </g>
   <g id="patch_4">
    <path d="M 53.14875 368.74175 
L 53.14875 23.14175 
" style="fill:none;stroke:#000000;stroke-linecap:square;stroke-linejoin:miter;"/>
   </g>
   <g id="patch_5">
    <path d="M 499.54875 368.74175 
L 499.54875 23.14175 
" style="fill:none;stroke:#000000;stroke-linecap:square;stroke-linejoin:miter;"/>
   </g>
   <g id="patch_6">
    <path d="M 53.14875 23.14175 
L 499.54875 23.14175 
" style="fill:none;stroke:#000000;stroke-linecap:square;stroke-linejoin:miter;"/>
   </g>
   <g id="matplotlib.axis_1">
    <g id="xtick_1">
     <g id="line2d_6">
      <defs>
       <path d="M 0 0 
L 0 -4 
" id="m4f5ea89609" style="stroke:#000000;stroke-width:0.5;"/>
      </defs>
      <g>
       <use style="stroke:#000000;stroke-width:0.5;" x="53.14875" xlink:href="#m4f5ea89609" y="368.74175"/>
      </g>
     </g>
     <g id="line2d_7">
      <defs>
       <path d="M 0 0 
L 0 4 
" id="m9a080b1d74" style="stroke:#000000;stroke-width:0.5;"/>
      </defs>
      <g>
       <use style="stroke:#000000;stroke-width:0.5;" x="53.14875" xlink:href="#m9a080b1d74" y="23.14175"/>
      </g>
     </g>
     <g id="text_1">
      <!-- 0 -->
      <defs>
       <path d="M 31.78125 66.40625 
Q 24.171875 66.40625 20.328125 58.90625 
Q 16.5 51.421875 16.5 36.375 
Q 16.5 21.390625 20.328125 13.890625 
Q 24.171875 6.390625 31.78125 6.390625 
Q 39.453125 6.390625 43.28125 13.890625 
Q 47.125 21.390625 47.125 36.375 
Q 47.125 51.421875 43.28125 58.90625 
Q 39.453125 66.40625 31.78125 66.40625 
M 31.78125 74.21875 
Q 44.046875 74.21875 50.515625 64.515625 
Q 56.984375 54.828125 56.984375 36.375 
Q 56.984375 17.96875 50.515625 8.265625 
Q 44.046875 -1.421875 31.78125 -1.421875 
Q 19.53125 -1.421875 13.0625 8.265625 
Q 6.59375 17.96875 6.59375 36.375 
Q 6.59375 54.828125 13.0625 64.515625 
Q 19.53125 74.21875 31.78125 74.21875 
" id="BitstreamVeraSans-Roman-30"/>
      </defs>
      <g transform="translate(49.33125 381.859875)scale(0.12 -0.12)">
       <use xlink:href="#BitstreamVeraSans-Roman-30"/>
      </g>
     </g>
    </g>
    <g id="xtick_2">
     <g id="line2d_8">
      <g>
       <use style="stroke:#000000;stroke-width:0.5;" x="107.58445514" xlink:href="#m4f5ea89609" y="368.74175"/>
      </g>
     </g>
     <g id="line2d_9">
      <g>
       <use style="stroke:#000000;stroke-width:0.5;" x="107.58445514" xlink:href="#m9a080b1d74" y="23.14175"/>
      </g>
     </g>
     <g id="text_2">
      <!-- 500  -->
      <defs>
       <path id="BitstreamVeraSans-Roman-20"/>
       <path d="M 10.796875 72.90625 
L 49.515625 72.90625 
L 49.515625 64.59375 
L 19.828125 64.59375 
L 19.828125 46.734375 
Q 21.96875 47.46875 24.109375 47.828125 
Q 26.265625 48.1875 28.421875 48.1875 
Q 40.625 48.1875 47.75 41.5 
Q 54.890625 34.8125 54.890625 23.390625 
Q 54.890625 11.625 47.5625 5.09375 
Q 40.234375 -1.421875 26.90625 -1.421875 
Q 22.3125 -1.421875 17.546875 -0.640625 
Q 12.796875 0.140625 7.71875 1.703125 
L 7.71875 11.625 
Q 12.109375 9.234375 16.796875 8.0625 
Q 21.484375 6.890625 26.703125 6.890625 
Q 35.15625 6.890625 40.078125 11.328125 
Q 45.015625 15.765625 45.015625 23.390625 
Q 45.015625 31 40.078125 35.4375 
Q 35.15625 39.890625 26.703125 39.890625 
Q 22.75 39.890625 18.8125 39.015625 
Q 14.890625 38.140625 10.796875 36.28125 
z
" id="BitstreamVeraSans-Roman-35"/>
      </defs>
      <g transform="translate(94.2250801399 381.859875)scale(0.12 -0.12)">
       <use xlink:href="#BitstreamVeraSans-Roman-35"/>
       <use x="63.623046875" xlink:href="#BitstreamVeraSans-Roman-30"/>
       <use x="127.24609375" xlink:href="#BitstreamVeraSans-Roman-30"/>
       <use x="190.869140625" xlink:href="#BitstreamVeraSans-Roman-20"/>
      </g>
     </g>
    </g>
    <g id="xtick_3">
     <g id="line2d_10">
      <g>
       <use style="stroke:#000000;stroke-width:0.5;" x="162.02016028" xlink:href="#m4f5ea89609" y="368.74175"/>
      </g>
     </g>
     <g id="line2d_11">
      <g>
       <use style="stroke:#000000;stroke-width:0.5;" x="162.02016028" xlink:href="#m9a080b1d74" y="23.14175"/>
      </g>
     </g>
     <g id="text_3">
      <!-- 1 k -->
      <defs>
       <path d="M 12.40625 8.296875 
L 28.515625 8.296875 
L 28.515625 63.921875 
L 10.984375 60.40625 
L 10.984375 69.390625 
L 28.421875 72.90625 
L 38.28125 72.90625 
L 38.28125 8.296875 
L 54.390625 8.296875 
L 54.390625 0 
L 12.40625 0 
z
" id="BitstreamVeraSans-Roman-31"/>
       <path d="M 9.078125 75.984375 
L 18.109375 75.984375 
L 18.109375 31.109375 
L 44.921875 54.6875 
L 56.390625 54.6875 
L 27.390625 29.109375 
L 57.625 0 
L 45.90625 0 
L 18.109375 26.703125 
L 18.109375 0 
L 9.078125 0 
z
" id="BitstreamVeraSans-Roman-6b"/>
      </defs>
      <g transform="translate(152.82141028 381.859875)scale(0.12 -0.12)">
       <use xlink:href="#BitstreamVeraSans-Roman-31"/>
       <use x="63.623046875" xlink:href="#BitstreamVeraSans-Roman-20"/>
       <use x="95.41015625" xlink:href="#BitstreamVeraSans-Roman-6b"/>
      </g>
     </g>
    </g>
    <g id="xtick_4">
     <g id="line2d_12">
      <g>
       <use style="stroke:#000000;stroke-width:0.5;" x="216.45586542" xlink:href="#m4f5ea89609" y="368.74175"/>
      </g>
     </g>
     <g id="line2d_13">
      <g>
       <use style="stroke:#000000;stroke-width:0.5;" x="216.45586542" xlink:href="#m9a080b1d74" y="23.14175"/>
      </g>
     </g>
     <g id="text_4">
      <!-- 1.5 k -->
      <defs>
       <path d="M 10.6875 12.40625 
L 21 12.40625 
L 21 0 
L 10.6875 0 
z
" id="BitstreamVeraSans-Roman-2e"/>
      </defs>
      <g transform="translate(201.53274042 381.859875)scale(0.12 -0.12)">
       <use xlink:href="#BitstreamVeraSans-Roman-31"/>
       <use x="63.623046875" xlink:href="#BitstreamVeraSans-Roman-2e"/>
       <use x="95.41015625" xlink:href="#BitstreamVeraSans-Roman-35"/>
       <use x="159.033203125" xlink:href="#BitstreamVeraSans-Roman-20"/>
       <use x="190.8203125" xlink:href="#BitstreamVeraSans-Roman-6b"/>
      </g>
     </g>
    </g>
    <g id="xtick_5">
     <g id="line2d_14">
      <g>
       <use style="stroke:#000000;stroke-width:0.5;" x="270.89157056" xlink:href="#m4f5ea89609" y="368.74175"/>
      </g>
     </g>
     <g id="line2d_15">
      <g>
       <use style="stroke:#000000;stroke-width:0.5;" x="270.89157056" xlink:href="#m9a080b1d74" y="23.14175"/>
      </g>
     </g>
     <g id="text_5">
      <!-- 2 k -->
      <defs>
       <path d="M 19.1875 8.296875 
L 53.609375 8.296875 
L 53.609375 0 
L 7.328125 0 
L 7.328125 8.296875 
Q 12.9375 14.109375 22.625 23.890625 
Q 32.328125 33.6875 34.8125 36.53125 
Q 39.546875 41.84375 41.421875 45.53125 
Q 43.3125 49.21875 43.3125 52.78125 
Q 43.3125 58.59375 39.234375 62.25 
Q 35.15625 65.921875 28.609375 65.921875 
Q 23.96875 65.921875 18.8125 64.3125 
Q 13.671875 62.703125 7.8125 59.421875 
L 7.8125 69.390625 
Q 13.765625 71.78125 18.9375 73 
Q 24.125 74.21875 28.421875 74.21875 
Q 39.75 74.21875 46.484375 68.546875 
Q 53.21875 62.890625 53.21875 53.421875 
Q 53.21875 48.921875 51.53125 44.890625 
Q 49.859375 40.875 45.40625 35.40625 
Q 44.1875 33.984375 37.640625 27.21875 
Q 31.109375 20.453125 19.1875 8.296875 
" id="BitstreamVeraSans-Roman-32"/>
      </defs>
      <g transform="translate(261.69282056 381.859875)scale(0.12 -0.12)">
       <use xlink:href="#BitstreamVeraSans-Roman-32"/>
       <use x="63.623046875" xlink:href="#BitstreamVeraSans-Roman-20"/>
       <use x="95.41015625" xlink:href="#BitstreamVeraSans-Roman-6b"/>
      </g>
     </g>
    </g>
    <g id="xtick_6">
     <g id="line2d_16">
      <g>
       <use style="stroke:#000000;stroke-width:0.5;" x="325.3272757" xlink:href="#m4f5ea89609" y="368.74175"/>
      </g>
     </g>
     <g id="line2d_17">
      <g>
       <use style="stroke:#000000;stroke-width:0.5;" x="325.3272757" xlink:href="#m9a080b1d74" y="23.14175"/>
      </g>
     </g>
     <g id="text_6">
      <!-- 2.5 k -->
      <g transform="translate(310.4041507 381.859875)scale(0.12 -0.12)">
       <use xlink:href="#BitstreamVeraSans-Roman-32"/>
       <use x="63.623046875" xlink:href="#BitstreamVeraSans-Roman-2e"/>
       <use x="95.41015625" xlink:href="#BitstreamVeraSans-Roman-35"/>
       <use x="159.033203125" xlink:href="#BitstreamVeraSans-Roman-20"/>
       <use x="190.8203125" xlink:href="#BitstreamVeraSans-Roman-6b"/>
      </g>
     </g>
    </g>
    <g id="xtick_7">
     <g id="line2d_18">
      <g>
       <use style="stroke:#000000;stroke-width:0.5;" x="379.76298084" xlink:href="#m4f5ea89609" y="368.74175"/>
      </g>
     </g>
     <g id="line2d_19">
      <g>
       <use style="stroke:#000000;stroke-width:0.5;" x="379.76298084" xlink:href="#m9a080b1d74" y="23.14175"/>
      </g>
     </g>
     <g id="text_7">
      <!-- 3 k -->
      <defs>
       <path d="M 40.578125 39.3125 
Q 47.65625 37.796875 51.625 33 
Q 55.609375 28.21875 55.609375 21.1875 
Q 55.609375 10.40625 48.1875 4.484375 
Q 40.765625 -1.421875 27.09375 -1.421875 
Q 22.515625 -1.421875 17.65625 -0.515625 
Q 12.796875 0.390625 7.625 2.203125 
L 7.625 11.71875 
Q 11.71875 9.328125 16.59375 8.109375 
Q 21.484375 6.890625 26.8125 6.890625 
Q 36.078125 6.890625 40.9375 10.546875 
Q 45.796875 14.203125 45.796875 21.1875 
Q 45.796875 27.640625 41.28125 31.265625 
Q 36.765625 34.90625 28.71875 34.90625 
L 20.21875 34.90625 
L 20.21875 43.015625 
L 29.109375 43.015625 
Q 36.375 43.015625 40.234375 45.921875 
Q 44.09375 48.828125 44.09375 54.296875 
Q 44.09375 59.90625 40.109375 62.90625 
Q 36.140625 65.921875 28.71875 65.921875 
Q 24.65625 65.921875 20.015625 65.03125 
Q 15.375 64.15625 9.8125 62.3125 
L 9.8125 71.09375 
Q 15.4375 72.65625 20.34375 73.4375 
Q 25.25 74.21875 29.59375 74.21875 
Q 40.828125 74.21875 47.359375 69.109375 
Q 53.90625 64.015625 53.90625 55.328125 
Q 53.90625 49.265625 50.4375 45.09375 
Q 46.96875 40.921875 40.578125 39.3125 
" id="BitstreamVeraSans-Roman-33"/>
      </defs>
      <g transform="translate(370.56423084 381.859875)scale(0.12 -0.12)">
       <use xlink:href="#BitstreamVeraSans-Roman-33"/>
       <use x="63.623046875" xlink:href="#BitstreamVeraSans-Roman-20"/>
       <use x="95.41015625" xlink:href="#BitstreamVeraSans-Roman-6b"/>
      </g>
     </g>
    </g>
    <g id="xtick_8">
     <g id="line2d_20">
      <g>
       <use style="stroke:#000000;stroke-width:0.5;" x="434.19868598" xlink:href="#m4f5ea89609" y="368.74175"/>
      </g>
     </g>
     <g id="line2d_21">
      <g>
       <use style="stroke:#000000;stroke-width:0.5;" x="434.19868598" xlink:href="#m9a080b1d74" y="23.14175"/>
      </g>
     </g>
     <g id="text_8">
      <!-- 3.5 k -->
      <g transform="translate(419.27556098 381.859875)scale(0.12 -0.12)">
       <use xlink:href="#BitstreamVeraSans-Roman-33"/>
       <use x="63.623046875" xlink:href="#BitstreamVeraSans-Roman-2e"/>
       <use x="95.41015625" xlink:href="#BitstreamVeraSans-Roman-35"/>
       <use x="159.033203125" xlink:href="#BitstreamVeraSans-Roman-20"/>
       <use x="190.8203125" xlink:href="#BitstreamVeraSans-Roman-6b"/>
      </g>
     </g>
    </g>
    <g id="xtick_9">
     <g id="line2d_22">
      <g>
       <use style="stroke:#000000;stroke-width:0.5;" x="488.634391119" xlink:href="#m4f5ea89609" y="368.74175"/>
      </g>
     </g>
     <g id="line2d_23">
      <g>
       <use style="stroke:#000000;stroke-width:0.5;" x="488.634391119" xlink:href="#m9a080b1d74" y="23.14175"/>
      </g>
     </g>
     <g id="text_9">
      <!-- 4 k -->
      <defs>
       <path d="M 37.796875 64.3125 
L 12.890625 25.390625 
L 37.796875 25.390625 
z
M 35.203125 72.90625 
L 47.609375 72.90625 
L 47.609375 25.390625 
L 58.015625 25.390625 
L 58.015625 17.1875 
L 47.609375 17.1875 
L 47.609375 0 
L 37.796875 0 
L 37.796875 17.1875 
L 4.890625 17.1875 
L 4.890625 26.703125 
z
" id="BitstreamVeraSans-Roman-34"/>
      </defs>
      <g transform="translate(479.435641119 381.859875)scale(0.12 -0.12)">
       <use xlink:href="#BitstreamVeraSans-Roman-34"/>
       <use x="63.623046875" xlink:href="#BitstreamVeraSans-Roman-20"/>
       <use x="95.41015625" xlink:href="#BitstreamVeraSans-Roman-6b"/>
      </g>
     </g>
    </g>
    <g id="text_10">
     <!-- Amount of objects in table -->
     <defs>
      <path d="M 8.5 21.578125 
L 8.5 54.6875 
L 17.484375 54.6875 
L 17.484375 21.921875 
Q 17.484375 14.15625 20.5 10.265625 
Q 23.53125 6.390625 29.59375 6.390625 
Q 36.859375 6.390625 41.078125 11.03125 
Q 45.3125 15.671875 45.3125 23.6875 
L 45.3125 54.6875 
L 54.296875 54.6875 
L 54.296875 0 
L 45.3125 0 
L 45.3125 8.40625 
Q 42.046875 3.421875 37.71875 1 
Q 33.40625 -1.421875 27.6875 -1.421875 
Q 18.265625 -1.421875 13.375 4.4375 
Q 8.5 10.296875 8.5 21.578125 
" id="BitstreamVeraSans-Roman-75"/>
      <path d="M 48.78125 52.59375 
L 48.78125 44.1875 
Q 44.96875 46.296875 41.140625 47.34375 
Q 37.3125 48.390625 33.40625 48.390625 
Q 24.65625 48.390625 19.8125 42.84375 
Q 14.984375 37.3125 14.984375 27.296875 
Q 14.984375 17.28125 19.8125 11.734375 
Q 24.65625 6.203125 33.40625 6.203125 
Q 37.3125 6.203125 41.140625 7.25 
Q 44.96875 8.296875 48.78125 10.40625 
L 48.78125 2.09375 
Q 45.015625 0.34375 40.984375 -0.53125 
Q 36.96875 -1.421875 32.421875 -1.421875 
Q 20.0625 -1.421875 12.78125 6.34375 
Q 5.515625 14.109375 5.515625 27.296875 
Q 5.515625 40.671875 12.859375 48.328125 
Q 20.21875 56 33.015625 56 
Q 37.15625 56 41.109375 55.140625 
Q 45.0625 54.296875 48.78125 52.59375 
" id="BitstreamVeraSans-Roman-63"/>
      <path d="M 9.421875 54.6875 
L 18.40625 54.6875 
L 18.40625 -0.984375 
Q 18.40625 -11.421875 14.421875 -16.109375 
Q 10.453125 -20.796875 1.609375 -20.796875 
L -1.8125 -20.796875 
L -1.8125 -13.1875 
L 0.59375 -13.1875 
Q 5.71875 -13.1875 7.5625 -10.8125 
Q 9.421875 -8.453125 9.421875 -0.984375 
z
M 9.421875 75.984375 
L 18.40625 75.984375 
L 18.40625 64.59375 
L 9.421875 64.59375 
z
" id="BitstreamVeraSans-Roman-6a"/>
      <path d="M 9.421875 75.984375 
L 18.40625 75.984375 
L 18.40625 0 
L 9.421875 0 
z
" id="BitstreamVeraSans-Roman-6c"/>
      <path d="M 52 44.1875 
Q 55.375 50.25 60.0625 53.125 
Q 64.75 56 71.09375 56 
Q 79.640625 56 84.28125 50.015625 
Q 88.921875 44.046875 88.921875 33.015625 
L 88.921875 0 
L 79.890625 0 
L 79.890625 32.71875 
Q 79.890625 40.578125 77.09375 44.375 
Q 74.3125 48.1875 68.609375 48.1875 
Q 61.625 48.1875 57.5625 43.546875 
Q 53.515625 38.921875 53.515625 30.90625 
L 53.515625 0 
L 44.484375 0 
L 44.484375 32.71875 
Q 44.484375 40.625 41.703125 44.40625 
Q 38.921875 48.1875 33.109375 48.1875 
Q 26.21875 48.1875 22.15625 43.53125 
Q 18.109375 38.875 18.109375 30.90625 
L 18.109375 0 
L 9.078125 0 
L 9.078125 54.6875 
L 18.109375 54.6875 
L 18.109375 46.1875 
Q 21.1875 51.21875 25.484375 53.609375 
Q 29.78125 56 35.6875 56 
Q 41.65625 56 45.828125 52.96875 
Q 50 49.953125 52 44.1875 
" id="BitstreamVeraSans-Roman-6d"/>
      <path d="M 30.609375 48.390625 
Q 23.390625 48.390625 19.1875 42.75 
Q 14.984375 37.109375 14.984375 27.296875 
Q 14.984375 17.484375 19.15625 11.84375 
Q 23.34375 6.203125 30.609375 6.203125 
Q 37.796875 6.203125 41.984375 11.859375 
Q 46.1875 17.53125 46.1875 27.296875 
Q 46.1875 37.015625 41.984375 42.703125 
Q 37.796875 48.390625 30.609375 48.390625 
M 30.609375 56 
Q 42.328125 56 49.015625 48.375 
Q 55.71875 40.765625 55.71875 27.296875 
Q 55.71875 13.875 49.015625 6.21875 
Q 42.328125 -1.421875 30.609375 -1.421875 
Q 18.84375 -1.421875 12.171875 6.21875 
Q 5.515625 13.875 5.515625 27.296875 
Q 5.515625 40.765625 12.171875 48.375 
Q 18.84375 56 30.609375 56 
" id="BitstreamVeraSans-Roman-6f"/>
      <path d="M 56.203125 29.59375 
L 56.203125 25.203125 
L 14.890625 25.203125 
Q 15.484375 15.921875 20.484375 11.0625 
Q 25.484375 6.203125 34.421875 6.203125 
Q 39.59375 6.203125 44.453125 7.46875 
Q 49.3125 8.734375 54.109375 11.28125 
L 54.109375 2.78125 
Q 49.265625 0.734375 44.1875 -0.34375 
Q 39.109375 -1.421875 33.890625 -1.421875 
Q 20.796875 -1.421875 13.15625 6.1875 
Q 5.515625 13.8125 5.515625 26.8125 
Q 5.515625 40.234375 12.765625 48.109375 
Q 20.015625 56 32.328125 56 
Q 43.359375 56 49.78125 48.890625 
Q 56.203125 41.796875 56.203125 29.59375 
M 47.21875 32.234375 
Q 47.125 39.59375 43.09375 43.984375 
Q 39.0625 48.390625 32.421875 48.390625 
Q 24.90625 48.390625 20.390625 44.140625 
Q 15.875 39.890625 15.1875 32.171875 
z
" id="BitstreamVeraSans-Roman-65"/>
      <path d="M 34.1875 63.1875 
L 20.796875 26.90625 
L 47.609375 26.90625 
z
M 28.609375 72.90625 
L 39.796875 72.90625 
L 67.578125 0 
L 57.328125 0 
L 50.6875 18.703125 
L 17.828125 18.703125 
L 11.1875 0 
L 0.78125 0 
z
" id="BitstreamVeraSans-Roman-41"/>
      <path d="M 44.28125 53.078125 
L 44.28125 44.578125 
Q 40.484375 46.53125 36.375 47.5 
Q 32.28125 48.484375 27.875 48.484375 
Q 21.1875 48.484375 17.84375 46.4375 
Q 14.5 44.390625 14.5 40.28125 
Q 14.5 37.15625 16.890625 35.375 
Q 19.28125 33.59375 26.515625 31.984375 
L 29.59375 31.296875 
Q 39.15625 29.25 43.1875 25.515625 
Q 47.21875 21.78125 47.21875 15.09375 
Q 47.21875 7.46875 41.1875 3.015625 
Q 35.15625 -1.421875 24.609375 -1.421875 
Q 20.21875 -1.421875 15.453125 -0.5625 
Q 10.6875 0.296875 5.421875 2 
L 5.421875 11.28125 
Q 10.40625 8.6875 15.234375 7.390625 
Q 20.0625 6.109375 24.8125 6.109375 
Q 31.15625 6.109375 34.5625 8.28125 
Q 37.984375 10.453125 37.984375 14.40625 
Q 37.984375 18.0625 35.515625 20.015625 
Q 33.0625 21.96875 24.703125 23.78125 
L 21.578125 24.515625 
Q 13.234375 26.265625 9.515625 29.90625 
Q 5.8125 33.546875 5.8125 39.890625 
Q 5.8125 47.609375 11.28125 51.796875 
Q 16.75 56 26.8125 56 
Q 31.78125 56 36.171875 55.265625 
Q 40.578125 54.546875 44.28125 53.078125 
" id="BitstreamVeraSans-Roman-73"/>
      <path d="M 34.28125 27.484375 
Q 23.390625 27.484375 19.1875 25 
Q 14.984375 22.515625 14.984375 16.5 
Q 14.984375 11.71875 18.140625 8.90625 
Q 21.296875 6.109375 26.703125 6.109375 
Q 34.1875 6.109375 38.703125 11.40625 
Q 43.21875 16.703125 43.21875 25.484375 
L 43.21875 27.484375 
z
M 52.203125 31.203125 
L 52.203125 0 
L 43.21875 0 
L 43.21875 8.296875 
Q 40.140625 3.328125 35.546875 0.953125 
Q 30.953125 -1.421875 24.3125 -1.421875 
Q 15.921875 -1.421875 10.953125 3.296875 
Q 6 8.015625 6 15.921875 
Q 6 25.140625 12.171875 29.828125 
Q 18.359375 34.515625 30.609375 34.515625 
L 43.21875 34.515625 
L 43.21875 35.40625 
Q 43.21875 41.609375 39.140625 45 
Q 35.0625 48.390625 27.6875 48.390625 
Q 23 48.390625 18.546875 47.265625 
Q 14.109375 46.140625 10.015625 43.890625 
L 10.015625 52.203125 
Q 14.9375 54.109375 19.578125 55.046875 
Q 24.21875 56 28.609375 56 
Q 40.484375 56 46.34375 49.84375 
Q 52.203125 43.703125 52.203125 31.203125 
" id="BitstreamVeraSans-Roman-61"/>
      <path d="M 54.890625 33.015625 
L 54.890625 0 
L 45.90625 0 
L 45.90625 32.71875 
Q 45.90625 40.484375 42.875 44.328125 
Q 39.84375 48.1875 33.796875 48.1875 
Q 26.515625 48.1875 22.3125 43.546875 
Q 18.109375 38.921875 18.109375 30.90625 
L 18.109375 0 
L 9.078125 0 
L 9.078125 54.6875 
L 18.109375 54.6875 
L 18.109375 46.1875 
Q 21.34375 51.125 25.703125 53.5625 
Q 30.078125 56 35.796875 56 
Q 45.21875 56 50.046875 50.171875 
Q 54.890625 44.34375 54.890625 33.015625 
" id="BitstreamVeraSans-Roman-6e"/>
      <path d="M 18.3125 70.21875 
L 18.3125 54.6875 
L 36.8125 54.6875 
L 36.8125 47.703125 
L 18.3125 47.703125 
L 18.3125 18.015625 
Q 18.3125 11.328125 20.140625 9.421875 
Q 21.96875 7.515625 27.59375 7.515625 
L 36.8125 7.515625 
L 36.8125 0 
L 27.59375 0 
Q 17.1875 0 13.234375 3.875 
Q 9.28125 7.765625 9.28125 18.015625 
L 9.28125 47.703125 
L 2.6875 47.703125 
L 2.6875 54.6875 
L 9.28125 54.6875 
L 9.28125 70.21875 
z
" id="BitstreamVeraSans-Roman-74"/>
      <path d="M 48.6875 27.296875 
Q 48.6875 37.203125 44.609375 42.84375 
Q 40.53125 48.484375 33.40625 48.484375 
Q 26.265625 48.484375 22.1875 42.84375 
Q 18.109375 37.203125 18.109375 27.296875 
Q 18.109375 17.390625 22.1875 11.75 
Q 26.265625 6.109375 33.40625 6.109375 
Q 40.53125 6.109375 44.609375 11.75 
Q 48.6875 17.390625 48.6875 27.296875 
M 18.109375 46.390625 
Q 20.953125 51.265625 25.265625 53.625 
Q 29.59375 56 35.59375 56 
Q 45.5625 56 51.78125 48.09375 
Q 58.015625 40.1875 58.015625 27.296875 
Q 58.015625 14.40625 51.78125 6.484375 
Q 45.5625 -1.421875 35.59375 -1.421875 
Q 29.59375 -1.421875 25.265625 0.953125 
Q 20.953125 3.328125 18.109375 8.203125 
L 18.109375 0 
L 9.078125 0 
L 9.078125 75.984375 
L 18.109375 75.984375 
z
" id="BitstreamVeraSans-Roman-62"/>
      <path d="M 9.421875 54.6875 
L 18.40625 54.6875 
L 18.40625 0 
L 9.421875 0 
z
M 9.421875 75.984375 
L 18.40625 75.984375 
L 18.40625 64.59375 
L 9.421875 64.59375 
z
" id="BitstreamVeraSans-Roman-69"/>
      <path d="M 37.109375 75.984375 
L 37.109375 68.5 
L 28.515625 68.5 
Q 23.6875 68.5 21.796875 66.546875 
Q 19.921875 64.59375 19.921875 59.515625 
L 19.921875 54.6875 
L 34.71875 54.6875 
L 34.71875 47.703125 
L 19.921875 47.703125 
L 19.921875 0 
L 10.890625 0 
L 10.890625 47.703125 
L 2.296875 47.703125 
L 2.296875 54.6875 
L 10.890625 54.6875 
L 10.890625 58.5 
Q 10.890625 67.625 15.140625 71.796875 
Q 19.390625 75.984375 28.609375 75.984375 
z
" id="BitstreamVeraSans-Roman-66"/>
     </defs>
     <g transform="translate(197.0784375 398.473625)scale(0.12 -0.12)">
      <use xlink:href="#BitstreamVeraSans-Roman-41"/>
      <use x="68.408203125" xlink:href="#BitstreamVeraSans-Roman-6d"/>
      <use x="165.8203125" xlink:href="#BitstreamVeraSans-Roman-6f"/>
      <use x="227.001953125" xlink:href="#BitstreamVeraSans-Roman-75"/>
      <use x="290.380859375" xlink:href="#BitstreamVeraSans-Roman-6e"/>
      <use x="353.759765625" xlink:href="#BitstreamVeraSans-Roman-74"/>
      <use x="392.96875" xlink:href="#BitstreamVeraSans-Roman-20"/>
      <use x="424.755859375" xlink:href="#BitstreamVeraSans-Roman-6f"/>
      <use x="485.9375" xlink:href="#BitstreamVeraSans-Roman-66"/>
      <use x="521.142578125" xlink:href="#BitstreamVeraSans-Roman-20"/>
      <use x="552.9296875" xlink:href="#BitstreamVeraSans-Roman-6f"/>
      <use x="614.111328125" xlink:href="#BitstreamVeraSans-Roman-62"/>
      <use x="677.587890625" xlink:href="#BitstreamVeraSans-Roman-6a"/>
      <use x="705.37109375" xlink:href="#BitstreamVeraSans-Roman-65"/>
      <use x="766.89453125" xlink:href="#BitstreamVeraSans-Roman-63"/>
      <use x="821.875" xlink:href="#BitstreamVeraSans-Roman-74"/>
      <use x="861.083984375" xlink:href="#BitstreamVeraSans-Roman-73"/>
      <use x="913.18359375" xlink:href="#BitstreamVeraSans-Roman-20"/>
      <use x="944.970703125" xlink:href="#BitstreamVeraSans-Roman-69"/>
      <use x="972.75390625" xlink:href="#BitstreamVeraSans-Roman-6e"/>
      <use x="1036.1328125" xlink:href="#BitstreamVeraSans-Roman-20"/>
      <use x="1067.919921875" xlink:href="#BitstreamVeraSans-Roman-74"/>
      <use x="1107.12890625" xlink:href="#BitstreamVeraSans-Roman-61"/>
      <use x="1168.408203125" xlink:href="#BitstreamVeraSans-Roman-62"/>
      <use x="1231.884765625" xlink:href="#BitstreamVeraSans-Roman-6c"/>
      <use x="1259.66796875" xlink:href="#BitstreamVeraSans-Roman-65"/>
     </g>
    </g>
   </g>
   <g id="matplotlib.axis_2">
    <g id="ytick_1">
     <g id="line2d_24">
      <defs>
       <path d="M 0 0 
L 4 0 
" id="m3970b8dee7" style="stroke:#000000;stroke-width:0.5;"/>
      </defs>
      <g>
       <use style="stroke:#000000;stroke-width:0.5;" x="53.14875" xlink:href="#m3970b8dee7" y="368.74175"/>
      </g>
     </g>
     <g id="line2d_25">
      <defs>
       <path d="M 0 0 
L -4 0 
" id="m46563cb867" style="stroke:#000000;stroke-width:0.5;"/>
      </defs>
      <g>
       <use style="stroke:#000000;stroke-width:0.5;" x="499.54875" xlink:href="#m46563cb867" y="368.74175"/>
      </g>
     </g>
     <g id="text_11">
      <!-- 0 -->
      <g transform="translate(41.51375 372.053)scale(0.12 -0.12)">
       <use xlink:href="#BitstreamVeraSans-Roman-30"/>
      </g>
     </g>
    </g>
    <g id="ytick_2">
     <g id="line2d_26">
      <g>
       <use style="stroke:#000000;stroke-width:0.5;" x="53.14875" xlink:href="#m3970b8dee7" y="313.496287047"/>
      </g>
     </g>
     <g id="line2d_27">
      <g>
       <use style="stroke:#000000;stroke-width:0.5;" x="499.54875" xlink:href="#m46563cb867" y="313.496287047"/>
      </g>
     </g>
     <g id="text_12">
      <!-- 2 s -->
      <g transform="translate(31.44875 316.807537047)scale(0.12 -0.12)">
       <use xlink:href="#BitstreamVeraSans-Roman-32"/>
       <use x="63.623046875" xlink:href="#BitstreamVeraSans-Roman-20"/>
       <use x="95.41015625" xlink:href="#BitstreamVeraSans-Roman-73"/>
      </g>
     </g>
    </g>
    <g id="ytick_3">
     <g id="line2d_28">
      <g>
       <use style="stroke:#000000;stroke-width:0.5;" x="53.14875" xlink:href="#m3970b8dee7" y="258.250824093"/>
      </g>
     </g>
     <g id="line2d_29">
      <g>
       <use style="stroke:#000000;stroke-width:0.5;" x="499.54875" xlink:href="#m46563cb867" y="258.250824093"/>
      </g>
     </g>
     <g id="text_13">
      <!-- 4 s -->
      <g transform="translate(31.44875 261.562074093)scale(0.12 -0.12)">
       <use xlink:href="#BitstreamVeraSans-Roman-34"/>
       <use x="63.623046875" xlink:href="#BitstreamVeraSans-Roman-20"/>
       <use x="95.41015625" xlink:href="#BitstreamVeraSans-Roman-73"/>
      </g>
     </g>
    </g>
    <g id="ytick_4">
     <g id="line2d_30">
      <g>
       <use style="stroke:#000000;stroke-width:0.5;" x="53.14875" xlink:href="#m3970b8dee7" y="203.00536114"/>
      </g>
     </g>
     <g id="line2d_31">
      <g>
       <use style="stroke:#000000;stroke-width:0.5;" x="499.54875" xlink:href="#m46563cb867" y="203.00536114"/>
      </g>
     </g>
     <g id="text_14">
      <!-- 6 s -->
      <defs>
       <path d="M 33.015625 40.375 
Q 26.375 40.375 22.484375 35.828125 
Q 18.609375 31.296875 18.609375 23.390625 
Q 18.609375 15.53125 22.484375 10.953125 
Q 26.375 6.390625 33.015625 6.390625 
Q 39.65625 6.390625 43.53125 10.953125 
Q 47.40625 15.53125 47.40625 23.390625 
Q 47.40625 31.296875 43.53125 35.828125 
Q 39.65625 40.375 33.015625 40.375 
M 52.59375 71.296875 
L 52.59375 62.3125 
Q 48.875 64.0625 45.09375 64.984375 
Q 41.3125 65.921875 37.59375 65.921875 
Q 27.828125 65.921875 22.671875 59.328125 
Q 17.53125 52.734375 16.796875 39.40625 
Q 19.671875 43.65625 24.015625 45.921875 
Q 28.375 48.1875 33.59375 48.1875 
Q 44.578125 48.1875 50.953125 41.515625 
Q 57.328125 34.859375 57.328125 23.390625 
Q 57.328125 12.15625 50.6875 5.359375 
Q 44.046875 -1.421875 33.015625 -1.421875 
Q 20.359375 -1.421875 13.671875 8.265625 
Q 6.984375 17.96875 6.984375 36.375 
Q 6.984375 53.65625 15.1875 63.9375 
Q 23.390625 74.21875 37.203125 74.21875 
Q 40.921875 74.21875 44.703125 73.484375 
Q 48.484375 72.75 52.59375 71.296875 
" id="BitstreamVeraSans-Roman-36"/>
      </defs>
      <g transform="translate(31.44875 206.31661114)scale(0.12 -0.12)">
       <use xlink:href="#BitstreamVeraSans-Roman-36"/>
       <use x="63.623046875" xlink:href="#BitstreamVeraSans-Roman-20"/>
       <use x="95.41015625" xlink:href="#BitstreamVeraSans-Roman-73"/>
      </g>
     </g>
    </g>
    <g id="ytick_5">
     <g id="line2d_32">
      <g>
       <use style="stroke:#000000;stroke-width:0.5;" x="53.14875" xlink:href="#m3970b8dee7" y="147.759898187"/>
      </g>
     </g>
     <g id="line2d_33">
      <g>
       <use style="stroke:#000000;stroke-width:0.5;" x="499.54875" xlink:href="#m46563cb867" y="147.759898187"/>
      </g>
     </g>
     <g id="text_15">
      <!-- 8 s -->
      <defs>
       <path d="M 31.78125 34.625 
Q 24.75 34.625 20.71875 30.859375 
Q 16.703125 27.09375 16.703125 20.515625 
Q 16.703125 13.921875 20.71875 10.15625 
Q 24.75 6.390625 31.78125 6.390625 
Q 38.8125 6.390625 42.859375 10.171875 
Q 46.921875 13.96875 46.921875 20.515625 
Q 46.921875 27.09375 42.890625 30.859375 
Q 38.875 34.625 31.78125 34.625 
M 21.921875 38.8125 
Q 15.578125 40.375 12.03125 44.71875 
Q 8.5 49.078125 8.5 55.328125 
Q 8.5 64.0625 14.71875 69.140625 
Q 20.953125 74.21875 31.78125 74.21875 
Q 42.671875 74.21875 48.875 69.140625 
Q 55.078125 64.0625 55.078125 55.328125 
Q 55.078125 49.078125 51.53125 44.71875 
Q 48 40.375 41.703125 38.8125 
Q 48.828125 37.15625 52.796875 32.3125 
Q 56.78125 27.484375 56.78125 20.515625 
Q 56.78125 9.90625 50.3125 4.234375 
Q 43.84375 -1.421875 31.78125 -1.421875 
Q 19.734375 -1.421875 13.25 4.234375 
Q 6.78125 9.90625 6.78125 20.515625 
Q 6.78125 27.484375 10.78125 32.3125 
Q 14.796875 37.15625 21.921875 38.8125 
M 18.3125 54.390625 
Q 18.3125 48.734375 21.84375 45.5625 
Q 25.390625 42.390625 31.78125 42.390625 
Q 38.140625 42.390625 41.71875 45.5625 
Q 45.3125 48.734375 45.3125 54.390625 
Q 45.3125 60.0625 41.71875 63.234375 
Q 38.140625 66.40625 31.78125 66.40625 
Q 25.390625 66.40625 21.84375 63.234375 
Q 18.3125 60.0625 18.3125 54.390625 
" id="BitstreamVeraSans-Roman-38"/>
      </defs>
      <g transform="translate(31.44875 151.071148187)scale(0.12 -0.12)">
       <use xlink:href="#BitstreamVeraSans-Roman-38"/>
       <use x="63.623046875" xlink:href="#BitstreamVeraSans-Roman-20"/>
       <use x="95.41015625" xlink:href="#BitstreamVeraSans-Roman-73"/>
      </g>
     </g>
    </g>
    <g id="ytick_6">
     <g id="line2d_34">
      <g>
       <use style="stroke:#000000;stroke-width:0.5;" x="53.14875" xlink:href="#m3970b8dee7" y="92.5144352332"/>
      </g>
     </g>
     <g id="line2d_35">
      <g>
       <use style="stroke:#000000;stroke-width:0.5;" x="499.54875" xlink:href="#m46563cb867" y="92.5144352332"/>
      </g>
     </g>
     <g id="text_16">
      <!-- 10 s -->
      <g transform="translate(23.81375 95.8256852332)scale(0.12 -0.12)">
       <use xlink:href="#BitstreamVeraSans-Roman-31"/>
       <use x="63.623046875" xlink:href="#BitstreamVeraSans-Roman-30"/>
       <use x="127.24609375" xlink:href="#BitstreamVeraSans-Roman-20"/>
       <use x="159.033203125" xlink:href="#BitstreamVeraSans-Roman-73"/>
      </g>
     </g>
    </g>
    <g id="ytick_7">
     <g id="line2d_36">
      <g>
       <use style="stroke:#000000;stroke-width:0.5;" x="53.14875" xlink:href="#m3970b8dee7" y="37.2689722799"/>
      </g>
     </g>
     <g id="line2d_37">
      <g>
       <use style="stroke:#000000;stroke-width:0.5;" x="499.54875" xlink:href="#m46563cb867" y="37.2689722799"/>
      </g>
     </g>
     <g id="text_17">
      <!-- 12 s -->
      <g transform="translate(23.81375 40.5802222799)scale(0.12 -0.12)">
       <use xlink:href="#BitstreamVeraSans-Roman-31"/>
       <use x="63.623046875" xlink:href="#BitstreamVeraSans-Roman-32"/>
       <use x="127.24609375" xlink:href="#BitstreamVeraSans-Roman-20"/>
       <use x="159.033203125" xlink:href="#BitstreamVeraSans-Roman-73"/>
      </g>
     </g>
    </g>
    <g id="text_18">
     <!-- Write latency (s) -->
     <defs>
      <path d="M 8.015625 75.875 
L 15.828125 75.875 
Q 23.140625 64.359375 26.78125 53.3125 
Q 30.421875 42.28125 30.421875 31.390625 
Q 30.421875 20.453125 26.78125 9.375 
Q 23.140625 -1.703125 15.828125 -13.1875 
L 8.015625 -13.1875 
Q 14.5 -2 17.703125 9.0625 
Q 20.90625 20.125 20.90625 31.390625 
Q 20.90625 42.671875 17.703125 53.65625 
Q 14.5 64.65625 8.015625 75.875 
" id="BitstreamVeraSans-Roman-29"/>
      <path d="M 32.171875 -5.078125 
Q 28.375 -14.84375 24.75 -17.8125 
Q 21.140625 -20.796875 15.09375 -20.796875 
L 7.90625 -20.796875 
L 7.90625 -13.28125 
L 13.1875 -13.28125 
Q 16.890625 -13.28125 18.9375 -11.515625 
Q 21 -9.765625 23.484375 -3.21875 
L 25.09375 0.875 
L 2.984375 54.6875 
L 12.5 54.6875 
L 29.59375 11.921875 
L 46.6875 54.6875 
L 56.203125 54.6875 
z
" id="BitstreamVeraSans-Roman-79"/>
      <path d="M 3.328125 72.90625 
L 13.28125 72.90625 
L 28.609375 11.28125 
L 43.890625 72.90625 
L 54.984375 72.90625 
L 70.3125 11.28125 
L 85.59375 72.90625 
L 95.609375 72.90625 
L 77.296875 0 
L 64.890625 0 
L 49.515625 63.28125 
L 33.984375 0 
L 21.578125 0 
z
" id="BitstreamVeraSans-Roman-57"/>
      <path d="M 41.109375 46.296875 
Q 39.59375 47.171875 37.8125 47.578125 
Q 36.03125 48 33.890625 48 
Q 26.265625 48 22.1875 43.046875 
Q 18.109375 38.09375 18.109375 28.8125 
L 18.109375 0 
L 9.078125 0 
L 9.078125 54.6875 
L 18.109375 54.6875 
L 18.109375 46.1875 
Q 20.953125 51.171875 25.484375 53.578125 
Q 30.03125 56 36.53125 56 
Q 37.453125 56 38.578125 55.875 
Q 39.703125 55.765625 41.0625 55.515625 
z
" id="BitstreamVeraSans-Roman-72"/>
      <path d="M 31 75.875 
Q 24.46875 64.65625 21.28125 53.65625 
Q 18.109375 42.671875 18.109375 31.390625 
Q 18.109375 20.125 21.3125 9.0625 
Q 24.515625 -2 31 -13.1875 
L 23.1875 -13.1875 
Q 15.875 -1.703125 12.234375 9.375 
Q 8.59375 20.453125 8.59375 31.390625 
Q 8.59375 42.28125 12.203125 53.3125 
Q 15.828125 64.359375 23.1875 75.875 
z
" id="BitstreamVeraSans-Roman-28"/>
     </defs>
     <g transform="translate(16.318125 245.709875)rotate(-90.0)scale(0.12 -0.12)">
      <use xlink:href="#BitstreamVeraSans-Roman-57"/>
      <use x="98.814453125" xlink:href="#BitstreamVeraSans-Roman-72"/>
      <use x="139.927734375" xlink:href="#BitstreamVeraSans-Roman-69"/>
      <use x="167.7109375" xlink:href="#BitstreamVeraSans-Roman-74"/>
      <use x="206.919921875" xlink:href="#BitstreamVeraSans-Roman-65"/>
      <use x="268.443359375" xlink:href="#BitstreamVeraSans-Roman-20"/>
      <use x="300.23046875" xlink:href="#BitstreamVeraSans-Roman-6c"/>
      <use x="328.013671875" xlink:href="#BitstreamVeraSans-Roman-61"/>
      <use x="389.29296875" xlink:href="#BitstreamVeraSans-Roman-74"/>
      <use x="428.501953125" xlink:href="#BitstreamVeraSans-Roman-65"/>
      <use x="490.025390625" xlink:href="#BitstreamVeraSans-Roman-6e"/>
      <use x="553.404296875" xlink:href="#BitstreamVeraSans-Roman-63"/>
      <use x="608.384765625" xlink:href="#BitstreamVeraSans-Roman-79"/>
      <use x="667.564453125" xlink:href="#BitstreamVeraSans-Roman-20"/>
      <use x="699.3515625" xlink:href="#BitstreamVeraSans-Roman-28"/>
      <use x="738.365234375" xlink:href="#BitstreamVeraSans-Roman-73"/>
      <use x="790.46484375" xlink:href="#BitstreamVeraSans-Roman-29"/>
     </g>
    </g>
   </g>
   <g id="text_19">
    <!-- Rebuild paths -->
    <defs>
     <path d="M 45.40625 46.390625 
L 45.40625 75.984375 
L 54.390625 75.984375 
L 54.390625 0 
L 45.40625 0 
L 45.40625 8.203125 
Q 42.578125 3.328125 38.25 0.953125 
Q 33.9375 -1.421875 27.875 -1.421875 
Q 17.96875 -1.421875 11.734375 6.484375 
Q 5.515625 14.40625 5.515625 27.296875 
Q 5.515625 40.1875 11.734375 48.09375 
Q 17.96875 56 27.875 56 
Q 33.9375 56 38.25 53.625 
Q 42.578125 51.265625 45.40625 46.390625 
M 14.796875 27.296875 
Q 14.796875 17.390625 18.875 11.75 
Q 22.953125 6.109375 30.078125 6.109375 
Q 37.203125 6.109375 41.296875 11.75 
Q 45.40625 17.390625 45.40625 27.296875 
Q 45.40625 37.203125 41.296875 42.84375 
Q 37.203125 48.484375 30.078125 48.484375 
Q 22.953125 48.484375 18.875 42.84375 
Q 14.796875 37.203125 14.796875 27.296875 
" id="BitstreamVeraSans-Roman-64"/>
     <path d="M 54.890625 33.015625 
L 54.890625 0 
L 45.90625 0 
L 45.90625 32.71875 
Q 45.90625 40.484375 42.875 44.328125 
Q 39.84375 48.1875 33.796875 48.1875 
Q 26.515625 48.1875 22.3125 43.546875 
Q 18.109375 38.921875 18.109375 30.90625 
L 18.109375 0 
L 9.078125 0 
L 9.078125 75.984375 
L 18.109375 75.984375 
L 18.109375 46.1875 
Q 21.34375 51.125 25.703125 53.5625 
Q 30.078125 56 35.796875 56 
Q 45.21875 56 50.046875 50.171875 
Q 54.890625 44.34375 54.890625 33.015625 
" id="BitstreamVeraSans-Roman-68"/>
     <path d="M 18.109375 8.203125 
L 18.109375 -20.796875 
L 9.078125 -20.796875 
L 9.078125 54.6875 
L 18.109375 54.6875 
L 18.109375 46.390625 
Q 20.953125 51.265625 25.265625 53.625 
Q 29.59375 56 35.59375 56 
Q 45.5625 56 51.78125 48.09375 
Q 58.015625 40.1875 58.015625 27.296875 
Q 58.015625 14.40625 51.78125 6.484375 
Q 45.5625 -1.421875 35.59375 -1.421875 
Q 29.59375 -1.421875 25.265625 0.953125 
Q 20.953125 3.328125 18.109375 8.203125 
M 48.6875 27.296875 
Q 48.6875 37.203125 44.609375 42.84375 
Q 40.53125 48.484375 33.40625 48.484375 
Q 26.265625 48.484375 22.1875 42.84375 
Q 18.109375 37.203125 18.109375 27.296875 
Q 18.109375 17.390625 22.1875 11.75 
Q 26.265625 6.109375 33.40625 6.109375 
Q 40.53125 6.109375 44.609375 11.75 
Q 48.6875 17.390625 48.6875 27.296875 
" id="BitstreamVeraSans-Roman-70"/>
     <path d="M 44.390625 34.1875 
Q 47.5625 33.109375 50.5625 29.59375 
Q 53.5625 26.078125 56.59375 19.921875 
L 66.609375 0 
L 56 0 
L 46.6875 18.703125 
Q 43.0625 26.03125 39.671875 28.421875 
Q 36.28125 30.8125 30.421875 30.8125 
L 19.671875 30.8125 
L 19.671875 0 
L 9.8125 0 
L 9.8125 72.90625 
L 32.078125 72.90625 
Q 44.578125 72.90625 50.734375 67.671875 
Q 56.890625 62.453125 56.890625 51.90625 
Q 56.890625 45.015625 53.6875 40.46875 
Q 50.484375 35.9375 44.390625 34.1875 
M 19.671875 64.796875 
L 19.671875 38.921875 
L 32.078125 38.921875 
Q 39.203125 38.921875 42.84375 42.21875 
Q 46.484375 45.515625 46.484375 51.90625 
Q 46.484375 58.296875 42.84375 61.546875 
Q 39.203125 64.796875 32.078125 64.796875 
z
" id="BitstreamVeraSans-Roman-52"/>
    </defs>
    <g transform="translate(226.807125 18.14175)scale(0.144 -0.144)">
     <use xlink:href="#BitstreamVeraSans-Roman-52"/>
     <use x="69.419921875" xlink:href="#BitstreamVeraSans-Roman-65"/>
     <use x="130.943359375" xlink:href="#BitstreamVeraSans-Roman-62"/>
     <use x="194.419921875" xlink:href="#BitstreamVeraSans-Roman-75"/>
     <use x="257.798828125" xlink:href="#BitstreamVeraSans-Roman-69"/>
     <use x="285.58203125" xlink:href="#BitstreamVeraSans-Roman-6c"/>
     <use x="313.365234375" xlink:href="#BitstreamVeraSans-Roman-64"/>
     <use x="376.841796875" xlink:href="#BitstreamVeraSans-Roman-20"/>
     <use x="408.62890625" xlink:href="#BitstreamVeraSans-Roman-70"/>
     <use x="472.10546875" xlink:href="#BitstreamVeraSans-Roman-61"/>
     <use x="533.384765625" xlink:href="#BitstreamVeraSans-Roman-74"/>
     <use x="572.59375" xlink:href="#BitstreamVeraSans-Roman-68"/>
     <use x="635.97265625" xlink:href="#BitstreamVeraSans-Roman-73"/>
    </g>
   </g>
   <g id="legend_1">
    <g id="patch_7">
     <path d="M 63.386 467.73475 
L 478.9115 467.73475 
Q 481.7915 467.73475 481.7915 464.85475 
L 481.7915 424.02175 
Q 481.7915 421.14175 478.9115 421.14175 
L 63.386 421.14175 
Q 60.506 421.14175 60.506 424.02175 
L 60.506 464.85475 
Q 60.506 467.73475 63.386 467.73475 
z
" style="fill:#4c4c4c;opacity:0.5;stroke:#4c4c4c;stroke-linejoin:miter;"/>
    </g>
    <g id="patch_8">
     <path d="M 61.386 465.73475 
L 476.9115 465.73475 
Q 479.7915 465.73475 479.7915 462.85475 
L 479.7915 422.02175 
Q 479.7915 419.14175 476.9115 419.14175 
L 61.386 419.14175 
Q 58.506 419.14175 58.506 422.02175 
L 58.506 462.85475 
Q 58.506 465.73475 61.386 465.73475 
z
" style="fill:#ffffff;stroke:#000000;stroke-linejoin:miter;"/>
    </g>
    <g id="line2d_38">
     <path d="M 68.586 430.8035 
L 88.746 430.8035 
" style="fill:none;opacity:0.8;stroke:#0000ff;stroke-linecap:square;"/>
    </g>
    <g id="line2d_39"/>
    <g id="text_20">
     <!-- MPTT -->
     <defs>
      <path d="M 19.671875 64.796875 
L 19.671875 37.40625 
L 32.078125 37.40625 
Q 38.96875 37.40625 42.71875 40.96875 
Q 46.484375 44.53125 46.484375 51.125 
Q 46.484375 57.671875 42.71875 61.234375 
Q 38.96875 64.796875 32.078125 64.796875 
z
M 9.8125 72.90625 
L 32.078125 72.90625 
Q 44.34375 72.90625 50.609375 67.359375 
Q 56.890625 61.8125 56.890625 51.125 
Q 56.890625 40.328125 50.609375 34.8125 
Q 44.34375 29.296875 32.078125 29.296875 
L 19.671875 29.296875 
L 19.671875 0 
L 9.8125 0 
z
" id="BitstreamVeraSans-Roman-50"/>
      <path d="M 9.8125 72.90625 
L 24.515625 72.90625 
L 43.109375 23.296875 
L 61.8125 72.90625 
L 76.515625 72.90625 
L 76.515625 0 
L 66.890625 0 
L 66.890625 64.015625 
L 48.09375 14.015625 
L 38.1875 14.015625 
L 19.390625 64.015625 
L 19.390625 0 
L 9.8125 0 
z
" id="BitstreamVeraSans-Roman-4d"/>
      <path d="M -0.296875 72.90625 
L 61.375 72.90625 
L 61.375 64.59375 
L 35.5 64.59375 
L 35.5 0 
L 25.59375 0 
L 25.59375 64.59375 
L -0.296875 64.59375 
z
" id="BitstreamVeraSans-Roman-54"/>
     </defs>
     <g transform="translate(104.586 435.8435)scale(0.144 -0.144)">
      <use xlink:href="#BitstreamVeraSans-Roman-4d"/>
      <use x="86.279296875" xlink:href="#BitstreamVeraSans-Roman-50"/>
      <use x="146.58203125" xlink:href="#BitstreamVeraSans-Roman-54"/>
      <use x="207.650390625" xlink:href="#BitstreamVeraSans-Roman-54"/>
     </g>
    </g>
    <g id="line2d_40">
     <path d="M 68.586 451.94 
L 88.746 451.94 
" style="fill:none;opacity:0.8;stroke:#008000;stroke-linecap:square;"/>
    </g>
    <g id="line2d_41"/>
    <g id="text_21">
     <!-- tree -->
     <g transform="translate(104.586 456.98)scale(0.144 -0.144)">
      <use xlink:href="#BitstreamVeraSans-Roman-74"/>
      <use x="39.208984375" xlink:href="#BitstreamVeraSans-Roman-72"/>
      <use x="80.291015625" xlink:href="#BitstreamVeraSans-Roman-65"/>
      <use x="141.814453125" xlink:href="#BitstreamVeraSans-Roman-65"/>
     </g>
    </g>
    <g id="line2d_42">
     <path d="M 176.4015 430.8035 
L 196.5615 430.8035 
" style="fill:none;opacity:0.8;stroke:#ff0000;stroke-linecap:square;"/>
    </g>
    <g id="line2d_43"/>
    <g id="text_22">
     <!-- treebeard AL -->
     <defs>
      <path d="M 9.8125 72.90625 
L 19.671875 72.90625 
L 19.671875 8.296875 
L 55.171875 8.296875 
L 55.171875 0 
L 9.8125 0 
z
" id="BitstreamVeraSans-Roman-4c"/>
     </defs>
     <g transform="translate(212.4015 435.8435)scale(0.144 -0.144)">
      <use xlink:href="#BitstreamVeraSans-Roman-74"/>
      <use x="39.208984375" xlink:href="#BitstreamVeraSans-Roman-72"/>
      <use x="80.291015625" xlink:href="#BitstreamVeraSans-Roman-65"/>
      <use x="141.814453125" xlink:href="#BitstreamVeraSans-Roman-65"/>
      <use x="203.337890625" xlink:href="#BitstreamVeraSans-Roman-62"/>
      <use x="266.814453125" xlink:href="#BitstreamVeraSans-Roman-65"/>
      <use x="328.337890625" xlink:href="#BitstreamVeraSans-Roman-61"/>
      <use x="389.6171875" xlink:href="#BitstreamVeraSans-Roman-72"/>
      <use x="430.71484375" xlink:href="#BitstreamVeraSans-Roman-64"/>
      <use x="494.19140625" xlink:href="#BitstreamVeraSans-Roman-20"/>
      <use x="525.978515625" xlink:href="#BitstreamVeraSans-Roman-41"/>
      <use x="594.38671875" xlink:href="#BitstreamVeraSans-Roman-4c"/>
     </g>
    </g>
    <g id="line2d_44">
     <path d="M 176.4015 451.94 
L 196.5615 451.94 
" style="fill:none;opacity:0.8;stroke:#00bfbf;stroke-linecap:square;"/>
    </g>
    <g id="line2d_45"/>
    <g id="text_23">
     <!-- treebeard MP -->
     <g transform="translate(212.4015 456.98)scale(0.144 -0.144)">
      <use xlink:href="#BitstreamVeraSans-Roman-74"/>
      <use x="39.208984375" xlink:href="#BitstreamVeraSans-Roman-72"/>
      <use x="80.291015625" xlink:href="#BitstreamVeraSans-Roman-65"/>
      <use x="141.814453125" xlink:href="#BitstreamVeraSans-Roman-65"/>
      <use x="203.337890625" xlink:href="#BitstreamVeraSans-Roman-62"/>
      <use x="266.814453125" xlink:href="#BitstreamVeraSans-Roman-65"/>
      <use x="328.337890625" xlink:href="#BitstreamVeraSans-Roman-61"/>
      <use x="389.6171875" xlink:href="#BitstreamVeraSans-Roman-72"/>
      <use x="430.71484375" xlink:href="#BitstreamVeraSans-Roman-64"/>
      <use x="494.19140625" xlink:href="#BitstreamVeraSans-Roman-20"/>
      <use x="525.978515625" xlink:href="#BitstreamVeraSans-Roman-4d"/>
      <use x="612.2578125" xlink:href="#BitstreamVeraSans-Roman-50"/>
     </g>
    </g>
    <g id="line2d_46">
     <path d="M 342.37275 430.8035 
L 362.53275 430.8035 
" style="fill:none;opacity:0.8;stroke:#bf00bf;stroke-linecap:square;"/>
    </g>
    <g id="line2d_47"/>
    <g id="text_24">
     <!-- treebeard NS -->
     <defs>
      <path d="M 9.8125 72.90625 
L 23.09375 72.90625 
L 55.421875 11.921875 
L 55.421875 72.90625 
L 64.984375 72.90625 
L 64.984375 0 
L 51.703125 0 
L 19.390625 60.984375 
L 19.390625 0 
L 9.8125 0 
z
" id="BitstreamVeraSans-Roman-4e"/>
      <path d="M 53.515625 70.515625 
L 53.515625 60.890625 
Q 47.90625 63.578125 42.921875 64.890625 
Q 37.9375 66.21875 33.296875 66.21875 
Q 25.25 66.21875 20.875 63.09375 
Q 16.5 59.96875 16.5 54.203125 
Q 16.5 49.359375 19.40625 46.890625 
Q 22.3125 44.4375 30.421875 42.921875 
L 36.375 41.703125 
Q 47.40625 39.59375 52.65625 34.296875 
Q 57.90625 29 57.90625 20.125 
Q 57.90625 9.515625 50.796875 4.046875 
Q 43.703125 -1.421875 29.984375 -1.421875 
Q 24.8125 -1.421875 18.96875 -0.25 
Q 13.140625 0.921875 6.890625 3.21875 
L 6.890625 13.375 
Q 12.890625 10.015625 18.65625 8.296875 
Q 24.421875 6.59375 29.984375 6.59375 
Q 38.421875 6.59375 43.015625 9.90625 
Q 47.609375 13.234375 47.609375 19.390625 
Q 47.609375 24.75 44.3125 27.78125 
Q 41.015625 30.8125 33.5 32.328125 
L 27.484375 33.5 
Q 16.453125 35.6875 11.515625 40.375 
Q 6.59375 45.0625 6.59375 53.421875 
Q 6.59375 63.09375 13.40625 68.65625 
Q 20.21875 74.21875 32.171875 74.21875 
Q 37.3125 74.21875 42.625 73.28125 
Q 47.953125 72.359375 53.515625 70.515625 
" id="BitstreamVeraSans-Roman-53"/>
     </defs>
     <g transform="translate(378.37275 435.8435)scale(0.144 -0.144)">
      <use xlink:href="#BitstreamVeraSans-Roman-74"/>
      <use x="39.208984375" xlink:href="#BitstreamVeraSans-Roman-72"/>
      <use x="80.291015625" xlink:href="#BitstreamVeraSans-Roman-65"/>
      <use x="141.814453125" xlink:href="#BitstreamVeraSans-Roman-65"/>
      <use x="203.337890625" xlink:href="#BitstreamVeraSans-Roman-62"/>
      <use x="266.814453125" xlink:href="#BitstreamVeraSans-Roman-65"/>
      <use x="328.337890625" xlink:href="#BitstreamVeraSans-Roman-61"/>
      <use x="389.6171875" xlink:href="#BitstreamVeraSans-Roman-72"/>
      <use x="430.71484375" xlink:href="#BitstreamVeraSans-Roman-64"/>
      <use x="494.19140625" xlink:href="#BitstreamVeraSans-Roman-20"/>
      <use x="525.978515625" xlink:href="#BitstreamVeraSans-Roman-4e"/>
      <use x="600.783203125" xlink:href="#BitstreamVeraSans-Roman-53"/>
     </g>
    </g>
   </g>
  </g>
 </g>
 <defs>
  <clipPath id="p0f4af00d7a">
   <rect height="345.6" width="446.4" x="53.14875" y="23.14175"/>
  </clipPath>
 </defs>
</svg>
