<?xml version="1.0" encoding="utf-8" standalone="no"?>
<!DOCTYPE svg PUBLIC "-//W3C//DTD SVG 1.1//EN"
  "http://www.w3.org/Graphics/SVG/1.1/DTD/svg11.dtd">
<!-- Created with matplotlib (http://matplotlib.org/) -->
<svg height="371pt" version="1.1" viewBox="0 0 432 371" width="432pt" xmlns="http://www.w3.org/2000/svg" xmlns:xlink="http://www.w3.org/1999/xlink">
 <defs>
  <style type="text/css">
*{stroke-linecap:butt;stroke-linejoin:round;}
  </style>
 </defs>
 <g id="figure_1">
  <g id="patch_1">
   <path d="M -0 371.002375 
L 432.91375 371.002375 
L 432.91375 0 
L -0 0 
z
" style="fill:#ffffff;"/>
  </g>
  <g id="axes_1">
   <g id="patch_2">
    <path d="M 65.09375 288.430125 
L 422.21375 288.430125 
L 422.21375 22.318125 
L 65.09375 22.318125 
z
" style="fill:#ffffff;"/>
   </g>
   <g id="matplotlib.axis_1">
    <g id="xtick_1">
     <g id="line2d_1">
      <defs>
       <path d="M 0 0 
L 0 3.5 
" id="m32b9e6366c" style="stroke:#000000;stroke-width:0.8;"/>
      </defs>
      <g>
       <use style="stroke:#000000;stroke-width:0.8;" x="65.09375" xlink:href="#m32b9e6366c" y="288.430125"/>
      </g>
     </g>
     <g id="text_1">
      <!-- 0 -->
      <defs>
       <path d="M 31.78125 66.40625 
Q 24.171875 66.40625 20.328125 58.90625 
Q 16.5 51.421875 16.5 36.375 
Q 16.5 21.390625 20.328125 13.890625 
Q 24.171875 6.390625 31.78125 6.390625 
Q 39.453125 6.390625 43.28125 13.890625 
Q 47.125 21.390625 47.125 36.375 
Q 47.125 51.421875 43.28125 58.90625 
Q 39.453125 66.40625 31.78125 66.40625 
z
M 31.78125 74.21875 
Q 44.046875 74.21875 50.515625 64.515625 
Q 56.984375 54.828125 56.984375 36.375 
Q 56.984375 17.96875 50.515625 8.265625 
Q 44.046875 -1.421875 31.78125 -1.421875 
Q 19.53125 -1.421875 13.0625 8.265625 
Q 6.59375 17.96875 6.59375 36.375 
Q 6.59375 54.828125 13.0625 64.515625 
Q 19.53125 74.21875 31.78125 74.21875 
z
" id="DejaVuSans-30"/>
      </defs>
      <g transform="translate(61.9125 303.028562)scale(0.1 -0.1)">
       <use xlink:href="#DejaVuSans-30"/>
      </g>
     </g>
    </g>
    <g id="xtick_2">
     <g id="line2d_2">
      <g>
       <use style="stroke:#000000;stroke-width:0.8;" x="108.642314" xlink:href="#m32b9e6366c" y="288.430125"/>
      </g>
     </g>
     <g id="text_2">
      <!-- 500  -->
      <defs>
       <path d="M 10.796875 72.90625 
L 49.515625 72.90625 
L 49.515625 64.59375 
L 19.828125 64.59375 
L 19.828125 46.734375 
Q 21.96875 47.46875 24.109375 47.828125 
Q 26.265625 48.1875 28.421875 48.1875 
Q 40.625 48.1875 47.75 41.5 
Q 54.890625 34.8125 54.890625 23.390625 
Q 54.890625 11.625 47.5625 5.09375 
Q 40.234375 -1.421875 26.90625 -1.421875 
Q 22.3125 -1.421875 17.546875 -0.640625 
Q 12.796875 0.140625 7.71875 1.703125 
L 7.71875 11.625 
Q 12.109375 9.234375 16.796875 8.0625 
Q 21.484375 6.890625 26.703125 6.890625 
Q 35.15625 6.890625 40.078125 11.328125 
Q 45.015625 15.765625 45.015625 23.390625 
Q 45.015625 31 40.078125 35.4375 
Q 35.15625 39.890625 26.703125 39.890625 
Q 22.75 39.890625 18.8125 39.015625 
Q 14.890625 38.140625 10.796875 36.28125 
z
" id="DejaVuSans-35"/>
       <path id="DejaVuSans-20"/>
      </defs>
      <g transform="translate(97.509502 303.028562)scale(0.1 -0.1)">
       <use xlink:href="#DejaVuSans-35"/>
       <use x="63.623047" xlink:href="#DejaVuSans-30"/>
       <use x="127.246094" xlink:href="#DejaVuSans-30"/>
       <use x="190.869141" xlink:href="#DejaVuSans-20"/>
      </g>
     </g>
    </g>
    <g id="xtick_3">
     <g id="line2d_3">
      <g>
       <use style="stroke:#000000;stroke-width:0.8;" x="152.190878" xlink:href="#m32b9e6366c" y="288.430125"/>
      </g>
     </g>
     <g id="text_3">
      <!-- 1 k -->
      <defs>
       <path d="M 12.40625 8.296875 
L 28.515625 8.296875 
L 28.515625 63.921875 
L 10.984375 60.40625 
L 10.984375 69.390625 
L 28.421875 72.90625 
L 38.28125 72.90625 
L 38.28125 8.296875 
L 54.390625 8.296875 
L 54.390625 0 
L 12.40625 0 
z
" id="DejaVuSans-31"/>
       <path d="M 9.078125 75.984375 
L 18.109375 75.984375 
L 18.109375 31.109375 
L 44.921875 54.6875 
L 56.390625 54.6875 
L 27.390625 29.109375 
L 57.625 0 
L 45.90625 0 
L 18.109375 26.703125 
L 18.109375 0 
L 9.078125 0 
z
" id="DejaVuSans-6b"/>
      </defs>
      <g transform="translate(144.525253 303.028562)scale(0.1 -0.1)">
       <use xlink:href="#DejaVuSans-31"/>
       <use x="63.623047" xlink:href="#DejaVuSans-20"/>
       <use x="95.410156" xlink:href="#DejaVuSans-6b"/>
      </g>
     </g>
    </g>
    <g id="xtick_4">
     <g id="line2d_4">
      <g>
       <use style="stroke:#000000;stroke-width:0.8;" x="195.739442" xlink:href="#m32b9e6366c" y="288.430125"/>
      </g>
     </g>
     <g id="text_4">
      <!-- 1.5 k -->
      <defs>
       <path d="M 10.6875 12.40625 
L 21 12.40625 
L 21 0 
L 10.6875 0 
z
" id="DejaVuSans-2e"/>
      </defs>
      <g transform="translate(183.303505 303.028562)scale(0.1 -0.1)">
       <use xlink:href="#DejaVuSans-31"/>
       <use x="63.623047" xlink:href="#DejaVuSans-2e"/>
       <use x="95.410156" xlink:href="#DejaVuSans-35"/>
       <use x="159.033203" xlink:href="#DejaVuSans-20"/>
       <use x="190.820312" xlink:href="#DejaVuSans-6b"/>
      </g>
     </g>
    </g>
    <g id="xtick_5">
     <g id="line2d_5">
      <g>
       <use style="stroke:#000000;stroke-width:0.8;" x="239.288006" xlink:href="#m32b9e6366c" y="288.430125"/>
      </g>
     </g>
     <g id="text_5">
      <!-- 2 k -->
      <defs>
       <path d="M 19.1875 8.296875 
L 53.609375 8.296875 
L 53.609375 0 
L 7.328125 0 
L 7.328125 8.296875 
Q 12.9375 14.109375 22.625 23.890625 
Q 32.328125 33.6875 34.8125 36.53125 
Q 39.546875 41.84375 41.421875 45.53125 
Q 43.3125 49.21875 43.3125 52.78125 
Q 43.3125 58.59375 39.234375 62.25 
Q 35.15625 65.921875 28.609375 65.921875 
Q 23.96875 65.921875 18.8125 64.3125 
Q 13.671875 62.703125 7.8125 59.421875 
L 7.8125 69.390625 
Q 13.765625 71.78125 18.9375 73 
Q 24.125 74.21875 28.421875 74.21875 
Q 39.75 74.21875 46.484375 68.546875 
Q 53.21875 62.890625 53.21875 53.421875 
Q 53.21875 48.921875 51.53125 44.890625 
Q 49.859375 40.875 45.40625 35.40625 
Q 44.1875 33.984375 37.640625 27.21875 
Q 31.109375 20.453125 19.1875 8.296875 
z
" id="DejaVuSans-32"/>
      </defs>
      <g transform="translate(231.622381 303.028562)scale(0.1 -0.1)">
       <use xlink:href="#DejaVuSans-32"/>
       <use x="63.623047" xlink:href="#DejaVuSans-20"/>
       <use x="95.410156" xlink:href="#DejaVuSans-6b"/>
      </g>
     </g>
    </g>
    <g id="xtick_6">
     <g id="line2d_6">
      <g>
       <use style="stroke:#000000;stroke-width:0.8;" x="282.836571" xlink:href="#m32b9e6366c" y="288.430125"/>
      </g>
     </g>
     <g id="text_6">
      <!-- 2.5 k -->
      <g transform="translate(270.400633 303.028562)scale(0.1 -0.1)">
       <use xlink:href="#DejaVuSans-32"/>
       <use x="63.623047" xlink:href="#DejaVuSans-2e"/>
       <use x="95.410156" xlink:href="#DejaVuSans-35"/>
       <use x="159.033203" xlink:href="#DejaVuSans-20"/>
       <use x="190.820312" xlink:href="#DejaVuSans-6b"/>
      </g>
     </g>
    </g>
    <g id="xtick_7">
     <g id="line2d_7">
      <g>
       <use style="stroke:#000000;stroke-width:0.8;" x="326.385135" xlink:href="#m32b9e6366c" y="288.430125"/>
      </g>
     </g>
     <g id="text_7">
      <!-- 3 k -->
      <defs>
       <path d="M 40.578125 39.3125 
Q 47.65625 37.796875 51.625 33 
Q 55.609375 28.21875 55.609375 21.1875 
Q 55.609375 10.40625 48.1875 4.484375 
Q 40.765625 -1.421875 27.09375 -1.421875 
Q 22.515625 -1.421875 17.65625 -0.515625 
Q 12.796875 0.390625 7.625 2.203125 
L 7.625 11.71875 
Q 11.71875 9.328125 16.59375 8.109375 
Q 21.484375 6.890625 26.8125 6.890625 
Q 36.078125 6.890625 40.9375 10.546875 
Q 45.796875 14.203125 45.796875 21.1875 
Q 45.796875 27.640625 41.28125 31.265625 
Q 36.765625 34.90625 28.71875 34.90625 
L 20.21875 34.90625 
L 20.21875 43.015625 
L 29.109375 43.015625 
Q 36.375 43.015625 40.234375 45.921875 
Q 44.09375 48.828125 44.09375 54.296875 
Q 44.09375 59.90625 40.109375 62.90625 
Q 36.140625 65.921875 28.71875 65.921875 
Q 24.65625 65.921875 20.015625 65.03125 
Q 15.375 64.15625 9.8125 62.3125 
L 9.8125 71.09375 
Q 15.4375 72.65625 20.34375 73.4375 
Q 25.25 74.21875 29.59375 74.21875 
Q 40.828125 74.21875 47.359375 69.109375 
Q 53.90625 64.015625 53.90625 55.328125 
Q 53.90625 49.265625 50.4375 45.09375 
Q 46.96875 40.921875 40.578125 39.3125 
z
" id="DejaVuSans-33"/>
      </defs>
      <g transform="translate(318.71951 303.028562)scale(0.1 -0.1)">
       <use xlink:href="#DejaVuSans-33"/>
       <use x="63.623047" xlink:href="#DejaVuSans-20"/>
       <use x="95.410156" xlink:href="#DejaVuSans-6b"/>
      </g>
     </g>
    </g>
    <g id="xtick_8">
     <g id="line2d_8">
      <g>
       <use style="stroke:#000000;stroke-width:0.8;" x="369.933699" xlink:href="#m32b9e6366c" y="288.430125"/>
      </g>
     </g>
     <g id="text_8">
      <!-- 3.5 k -->
      <g transform="translate(357.497761 303.028562)scale(0.1 -0.1)">
       <use xlink:href="#DejaVuSans-33"/>
       <use x="63.623047" xlink:href="#DejaVuSans-2e"/>
       <use x="95.410156" xlink:href="#DejaVuSans-35"/>
       <use x="159.033203" xlink:href="#DejaVuSans-20"/>
       <use x="190.820312" xlink:href="#DejaVuSans-6b"/>
      </g>
     </g>
    </g>
    <g id="xtick_9">
     <g id="line2d_9">
      <g>
       <use style="stroke:#000000;stroke-width:0.8;" x="413.482263" xlink:href="#m32b9e6366c" y="288.430125"/>
      </g>
     </g>
     <g id="text_9">
      <!-- 4 k -->
      <defs>
       <path d="M 37.796875 64.3125 
L 12.890625 25.390625 
L 37.796875 25.390625 
z
M 35.203125 72.90625 
L 47.609375 72.90625 
L 47.609375 25.390625 
L 58.015625 25.390625 
L 58.015625 17.1875 
L 47.609375 17.1875 
L 47.609375 0 
L 37.796875 0 
L 37.796875 17.1875 
L 4.890625 17.1875 
L 4.890625 26.703125 
z
" id="DejaVuSans-34"/>
      </defs>
      <g transform="translate(405.816638 303.028562)scale(0.1 -0.1)">
       <use xlink:href="#DejaVuSans-34"/>
       <use x="63.623047" xlink:href="#DejaVuSans-20"/>
       <use x="95.410156" xlink:href="#DejaVuSans-6b"/>
      </g>
     </g>
    </g>
    <g id="text_10">
     <!-- Amount of objects in table -->
     <defs>
      <path d="M 34.1875 63.1875 
L 20.796875 26.90625 
L 47.609375 26.90625 
z
M 28.609375 72.90625 
L 39.796875 72.90625 
L 67.578125 0 
L 57.328125 0 
L 50.6875 18.703125 
L 17.828125 18.703125 
L 11.1875 0 
L 0.78125 0 
z
" id="DejaVuSans-41"/>
      <path d="M 52 44.1875 
Q 55.375 50.25 60.0625 53.125 
Q 64.75 56 71.09375 56 
Q 79.640625 56 84.28125 50.015625 
Q 88.921875 44.046875 88.921875 33.015625 
L 88.921875 0 
L 79.890625 0 
L 79.890625 32.71875 
Q 79.890625 40.578125 77.09375 44.375 
Q 74.3125 48.1875 68.609375 48.1875 
Q 61.625 48.1875 57.5625 43.546875 
Q 53.515625 38.921875 53.515625 30.90625 
L 53.515625 0 
L 44.484375 0 
L 44.484375 32.71875 
Q 44.484375 40.625 41.703125 44.40625 
Q 38.921875 48.1875 33.109375 48.1875 
Q 26.21875 48.1875 22.15625 43.53125 
Q 18.109375 38.875 18.109375 30.90625 
L 18.109375 0 
L 9.078125 0 
L 9.078125 54.6875 
L 18.109375 54.6875 
L 18.109375 46.1875 
Q 21.1875 51.21875 25.484375 53.609375 
Q 29.78125 56 35.6875 56 
Q 41.65625 56 45.828125 52.96875 
Q 50 49.953125 52 44.1875 
z
" id="DejaVuSans-6d"/>
      <path d="M 30.609375 48.390625 
Q 23.390625 48.390625 19.1875 42.75 
Q 14.984375 37.109375 14.984375 27.296875 
Q 14.984375 17.484375 19.15625 11.84375 
Q 23.34375 6.203125 30.609375 6.203125 
Q 37.796875 6.203125 41.984375 11.859375 
Q 46.1875 17.53125 46.1875 27.296875 
Q 46.1875 37.015625 41.984375 42.703125 
Q 37.796875 48.390625 30.609375 48.390625 
z
M 30.609375 56 
Q 42.328125 56 49.015625 48.375 
Q 55.71875 40.765625 55.71875 27.296875 
Q 55.71875 13.875 49.015625 6.21875 
Q 42.328125 -1.421875 30.609375 -1.421875 
Q 18.84375 -1.421875 12.171875 6.21875 
Q 5.515625 13.875 5.515625 27.296875 
Q 5.515625 40.765625 12.171875 48.375 
Q 18.84375 56 30.609375 56 
z
" id="DejaVuSans-6f"/>
      <path d="M 8.5 21.578125 
L 8.5 54.6875 
L 17.484375 54.6875 
L 17.484375 21.921875 
Q 17.484375 14.15625 20.5 10.265625 
Q 23.53125 6.390625 29.59375 6.390625 
Q 36.859375 6.390625 41.078125 11.03125 
Q 45.3125 15.671875 45.3125 23.6875 
L 45.3125 54.6875 
L 54.296875 54.6875 
L 54.296875 0 
L 45.3125 0 
L 45.3125 8.40625 
Q 42.046875 3.421875 37.71875 1 
Q 33.40625 -1.421875 27.6875 -1.421875 
Q 18.265625 -1.421875 13.375 4.4375 
Q 8.5 10.296875 8.5 21.578125 
z
M 31.109375 56 
z
" id="DejaVuSans-75"/>
      <path d="M 54.890625 33.015625 
L 54.890625 0 
L 45.90625 0 
L 45.90625 32.71875 
Q 45.90625 40.484375 42.875 44.328125 
Q 39.84375 48.1875 33.796875 48.1875 
Q 26.515625 48.1875 22.3125 43.546875 
Q 18.109375 38.921875 18.109375 30.90625 
L 18.109375 0 
L 9.078125 0 
L 9.078125 54.6875 
L 18.109375 54.6875 
L 18.109375 46.1875 
Q 21.34375 51.125 25.703125 53.5625 
Q 30.078125 56 35.796875 56 
Q 45.21875 56 50.046875 50.171875 
Q 54.890625 44.34375 54.890625 33.015625 
z
" id="DejaVuSans-6e"/>
      <path d="M 18.3125 70.21875 
L 18.3125 54.6875 
L 36.8125 54.6875 
L 36.8125 47.703125 
L 18.3125 47.703125 
L 18.3125 18.015625 
Q 18.3125 11.328125 20.140625 9.421875 
Q 21.96875 7.515625 27.59375 7.515625 
L 36.8125 7.515625 
L 36.8125 0 
L 27.59375 0 
Q 17.1875 0 13.234375 3.875 
Q 9.28125 7.765625 9.28125 18.015625 
L 9.28125 47.703125 
L 2.6875 47.703125 
L 2.6875 54.6875 
L 9.28125 54.6875 
L 9.28125 70.21875 
z
" id="DejaVuSans-74"/>
      <path d="M 37.109375 75.984375 
L 37.109375 68.5 
L 28.515625 68.5 
Q 23.6875 68.5 21.796875 66.546875 
Q 19.921875 64.59375 19.921875 59.515625 
L 19.921875 54.6875 
L 34.71875 54.6875 
L 34.71875 47.703125 
L 19.921875 47.703125 
L 19.921875 0 
L 10.890625 0 
L 10.890625 47.703125 
L 2.296875 47.703125 
L 2.296875 54.6875 
L 10.890625 54.6875 
L 10.890625 58.5 
Q 10.890625 67.625 15.140625 71.796875 
Q 19.390625 75.984375 28.609375 75.984375 
z
" id="DejaVuSans-66"/>
      <path d="M 48.6875 27.296875 
Q 48.6875 37.203125 44.609375 42.84375 
Q 40.53125 48.484375 33.40625 48.484375 
Q 26.265625 48.484375 22.1875 42.84375 
Q 18.109375 37.203125 18.109375 27.296875 
Q 18.109375 17.390625 22.1875 11.75 
Q 26.265625 6.109375 33.40625 6.109375 
Q 40.53125 6.109375 44.609375 11.75 
Q 48.6875 17.390625 48.6875 27.296875 
z
M 18.109375 46.390625 
Q 20.953125 51.265625 25.265625 53.625 
Q 29.59375 56 35.59375 56 
Q 45.5625 56 51.78125 48.09375 
Q 58.015625 40.1875 58.015625 27.296875 
Q 58.015625 14.40625 51.78125 6.484375 
Q 45.5625 -1.421875 35.59375 -1.421875 
Q 29.59375 -1.421875 25.265625 0.953125 
Q 20.953125 3.328125 18.109375 8.203125 
L 18.109375 0 
L 9.078125 0 
L 9.078125 75.984375 
L 18.109375 75.984375 
z
" id="DejaVuSans-62"/>
      <path d="M 9.421875 54.6875 
L 18.40625 54.6875 
L 18.40625 -0.984375 
Q 18.40625 -11.421875 14.421875 -16.109375 
Q 10.453125 -20.796875 1.609375 -20.796875 
L -1.8125 -20.796875 
L -1.8125 -13.1875 
L 0.59375 -13.1875 
Q 5.71875 -13.1875 7.5625 -10.8125 
Q 9.421875 -8.453125 9.421875 -0.984375 
z
M 9.421875 75.984375 
L 18.40625 75.984375 
L 18.40625 64.59375 
L 9.421875 64.59375 
z
" id="DejaVuSans-6a"/>
      <path d="M 56.203125 29.59375 
L 56.203125 25.203125 
L 14.890625 25.203125 
Q 15.484375 15.921875 20.484375 11.0625 
Q 25.484375 6.203125 34.421875 6.203125 
Q 39.59375 6.203125 44.453125 7.46875 
Q 49.3125 8.734375 54.109375 11.28125 
L 54.109375 2.78125 
Q 49.265625 0.734375 44.1875 -0.34375 
Q 39.109375 -1.421875 33.890625 -1.421875 
Q 20.796875 -1.421875 13.15625 6.1875 
Q 5.515625 13.8125 5.515625 26.8125 
Q 5.515625 40.234375 12.765625 48.109375 
Q 20.015625 56 32.328125 56 
Q 43.359375 56 49.78125 48.890625 
Q 56.203125 41.796875 56.203125 29.59375 
z
M 47.21875 32.234375 
Q 47.125 39.59375 43.09375 43.984375 
Q 39.0625 48.390625 32.421875 48.390625 
Q 24.90625 48.390625 20.390625 44.140625 
Q 15.875 39.890625 15.1875 32.171875 
z
" id="DejaVuSans-65"/>
      <path d="M 48.78125 52.59375 
L 48.78125 44.1875 
Q 44.96875 46.296875 41.140625 47.34375 
Q 37.3125 48.390625 33.40625 48.390625 
Q 24.65625 48.390625 19.8125 42.84375 
Q 14.984375 37.3125 14.984375 27.296875 
Q 14.984375 17.28125 19.8125 11.734375 
Q 24.65625 6.203125 33.40625 6.203125 
Q 37.3125 6.203125 41.140625 7.25 
Q 44.96875 8.296875 48.78125 10.40625 
L 48.78125 2.09375 
Q 45.015625 0.34375 40.984375 -0.53125 
Q 36.96875 -1.421875 32.421875 -1.421875 
Q 20.0625 -1.421875 12.78125 6.34375 
Q 5.515625 14.109375 5.515625 27.296875 
Q 5.515625 40.671875 12.859375 48.328125 
Q 20.21875 56 33.015625 56 
Q 37.15625 56 41.109375 55.140625 
Q 45.0625 54.296875 48.78125 52.59375 
z
" id="DejaVuSans-63"/>
      <path d="M 44.28125 53.078125 
L 44.28125 44.578125 
Q 40.484375 46.53125 36.375 47.5 
Q 32.28125 48.484375 27.875 48.484375 
Q 21.1875 48.484375 17.84375 46.4375 
Q 14.5 44.390625 14.5 40.28125 
Q 14.5 37.15625 16.890625 35.375 
Q 19.28125 33.59375 26.515625 31.984375 
L 29.59375 31.296875 
Q 39.15625 29.25 43.1875 25.515625 
Q 47.21875 21.78125 47.21875 15.09375 
Q 47.21875 7.46875 41.1875 3.015625 
Q 35.15625 -1.421875 24.609375 -1.421875 
Q 20.21875 -1.421875 15.453125 -0.5625 
Q 10.6875 0.296875 5.421875 2 
L 5.421875 11.28125 
Q 10.40625 8.6875 15.234375 7.390625 
Q 20.0625 6.109375 24.8125 6.109375 
Q 31.15625 6.109375 34.5625 8.28125 
Q 37.984375 10.453125 37.984375 14.40625 
Q 37.984375 18.0625 35.515625 20.015625 
Q 33.0625 21.96875 24.703125 23.78125 
L 21.578125 24.515625 
Q 13.234375 26.265625 9.515625 29.90625 
Q 5.8125 33.546875 5.8125 39.890625 
Q 5.8125 47.609375 11.28125 51.796875 
Q 16.75 56 26.8125 56 
Q 31.78125 56 36.171875 55.265625 
Q 40.578125 54.546875 44.28125 53.078125 
z
" id="DejaVuSans-73"/>
      <path d="M 9.421875 54.6875 
L 18.40625 54.6875 
L 18.40625 0 
L 9.421875 0 
z
M 9.421875 75.984375 
L 18.40625 75.984375 
L 18.40625 64.59375 
L 9.421875 64.59375 
z
" id="DejaVuSans-69"/>
      <path d="M 34.28125 27.484375 
Q 23.390625 27.484375 19.1875 25 
Q 14.984375 22.515625 14.984375 16.5 
Q 14.984375 11.71875 18.140625 8.90625 
Q 21.296875 6.109375 26.703125 6.109375 
Q 34.1875 6.109375 38.703125 11.40625 
Q 43.21875 16.703125 43.21875 25.484375 
L 43.21875 27.484375 
z
M 52.203125 31.203125 
L 52.203125 0 
L 43.21875 0 
L 43.21875 8.296875 
Q 40.140625 3.328125 35.546875 0.953125 
Q 30.953125 -1.421875 24.3125 -1.421875 
Q 15.921875 -1.421875 10.953125 3.296875 
Q 6 8.015625 6 15.921875 
Q 6 25.140625 12.171875 29.828125 
Q 18.359375 34.515625 30.609375 34.515625 
L 43.21875 34.515625 
L 43.21875 35.40625 
Q 43.21875 41.609375 39.140625 45 
Q 35.0625 48.390625 27.6875 48.390625 
Q 23 48.390625 18.546875 47.265625 
Q 14.109375 46.140625 10.015625 43.890625 
L 10.015625 52.203125 
Q 14.9375 54.109375 19.578125 55.046875 
Q 24.21875 56 28.609375 56 
Q 40.484375 56 46.34375 49.84375 
Q 52.203125 43.703125 52.203125 31.203125 
z
" id="DejaVuSans-61"/>
      <path d="M 9.421875 75.984375 
L 18.40625 75.984375 
L 18.40625 0 
L 9.421875 0 
z
" id="DejaVuSans-6c"/>
     </defs>
     <g transform="translate(177.595156 316.706687)scale(0.1 -0.1)">
      <use xlink:href="#DejaVuSans-41"/>
      <use x="68.408203" xlink:href="#DejaVuSans-6d"/>
      <use x="165.820312" xlink:href="#DejaVuSans-6f"/>
      <use x="227.001953" xlink:href="#DejaVuSans-75"/>
      <use x="290.380859" xlink:href="#DejaVuSans-6e"/>
      <use x="353.759766" xlink:href="#DejaVuSans-74"/>
      <use x="392.96875" xlink:href="#DejaVuSans-20"/>
      <use x="424.755859" xlink:href="#DejaVuSans-6f"/>
      <use x="485.9375" xlink:href="#DejaVuSans-66"/>
      <use x="521.142578" xlink:href="#DejaVuSans-20"/>
      <use x="552.929688" xlink:href="#DejaVuSans-6f"/>
      <use x="614.111328" xlink:href="#DejaVuSans-62"/>
      <use x="677.587891" xlink:href="#DejaVuSans-6a"/>
      <use x="705.371094" xlink:href="#DejaVuSans-65"/>
      <use x="766.894531" xlink:href="#DejaVuSans-63"/>
      <use x="821.875" xlink:href="#DejaVuSans-74"/>
      <use x="861.083984" xlink:href="#DejaVuSans-73"/>
      <use x="913.183594" xlink:href="#DejaVuSans-20"/>
      <use x="944.970703" xlink:href="#DejaVuSans-69"/>
      <use x="972.753906" xlink:href="#DejaVuSans-6e"/>
      <use x="1036.132812" xlink:href="#DejaVuSans-20"/>
      <use x="1067.919922" xlink:href="#DejaVuSans-74"/>
      <use x="1107.128906" xlink:href="#DejaVuSans-61"/>
      <use x="1168.408203" xlink:href="#DejaVuSans-62"/>
      <use x="1231.884766" xlink:href="#DejaVuSans-6c"/>
      <use x="1259.667969" xlink:href="#DejaVuSans-65"/>
     </g>
    </g>
   </g>
   <g id="matplotlib.axis_2">
    <g id="ytick_1">
     <g id="line2d_10">
      <defs>
       <path d="M 0 0 
L -3.5 0 
" id="m23b240a4a7" style="stroke:#000000;stroke-width:0.8;"/>
      </defs>
      <g>
       <use style="stroke:#000000;stroke-width:0.8;" x="65.09375" xlink:href="#m23b240a4a7" y="288.430125"/>
      </g>
     </g>
     <g id="text_11">
      <!-- 0 -->
      <g transform="translate(51.73125 292.229344)scale(0.1 -0.1)">
       <use xlink:href="#DejaVuSans-30"/>
      </g>
     </g>
    </g>
    <g id="ytick_2">
     <g id="line2d_11">
      <g>
       <use style="stroke:#000000;stroke-width:0.8;" x="65.09375" xlink:href="#m23b240a4a7" y="256.879027"/>
      </g>
     </g>
     <g id="text_12">
      <!-- 50 ms -->
      <g transform="translate(27.240625 260.678246)scale(0.1 -0.1)">
       <use xlink:href="#DejaVuSans-35"/>
       <use x="63.623047" xlink:href="#DejaVuSans-30"/>
       <use x="127.246094" xlink:href="#DejaVuSans-20"/>
       <use x="159.033203" xlink:href="#DejaVuSans-6d"/>
       <use x="256.445312" xlink:href="#DejaVuSans-73"/>
      </g>
     </g>
    </g>
    <g id="ytick_3">
     <g id="line2d_12">
      <g>
       <use style="stroke:#000000;stroke-width:0.8;" x="65.09375" xlink:href="#m23b240a4a7" y="225.327929"/>
      </g>
     </g>
     <g id="text_13">
      <!-- 100 ms -->
      <g transform="translate(20.878125 229.127148)scale(0.1 -0.1)">
       <use xlink:href="#DejaVuSans-31"/>
       <use x="63.623047" xlink:href="#DejaVuSans-30"/>
       <use x="127.246094" xlink:href="#DejaVuSans-30"/>
       <use x="190.869141" xlink:href="#DejaVuSans-20"/>
       <use x="222.65625" xlink:href="#DejaVuSans-6d"/>
       <use x="320.068359" xlink:href="#DejaVuSans-73"/>
      </g>
     </g>
    </g>
    <g id="ytick_4">
     <g id="line2d_13">
      <g>
       <use style="stroke:#000000;stroke-width:0.8;" x="65.09375" xlink:href="#m23b240a4a7" y="193.776831"/>
      </g>
     </g>
     <g id="text_14">
      <!-- 150 ms -->
      <g transform="translate(20.878125 197.57605)scale(0.1 -0.1)">
       <use xlink:href="#DejaVuSans-31"/>
       <use x="63.623047" xlink:href="#DejaVuSans-35"/>
       <use x="127.246094" xlink:href="#DejaVuSans-30"/>
       <use x="190.869141" xlink:href="#DejaVuSans-20"/>
       <use x="222.65625" xlink:href="#DejaVuSans-6d"/>
       <use x="320.068359" xlink:href="#DejaVuSans-73"/>
      </g>
     </g>
    </g>
    <g id="ytick_5">
     <g id="line2d_14">
      <g>
       <use style="stroke:#000000;stroke-width:0.8;" x="65.09375" xlink:href="#m23b240a4a7" y="162.225733"/>
      </g>
     </g>
     <g id="text_15">
      <!-- 200 ms -->
      <g transform="translate(20.878125 166.024952)scale(0.1 -0.1)">
       <use xlink:href="#DejaVuSans-32"/>
       <use x="63.623047" xlink:href="#DejaVuSans-30"/>
       <use x="127.246094" xlink:href="#DejaVuSans-30"/>
       <use x="190.869141" xlink:href="#DejaVuSans-20"/>
       <use x="222.65625" xlink:href="#DejaVuSans-6d"/>
       <use x="320.068359" xlink:href="#DejaVuSans-73"/>
      </g>
     </g>
    </g>
    <g id="ytick_6">
     <g id="line2d_15">
      <g>
       <use style="stroke:#000000;stroke-width:0.8;" x="65.09375" xlink:href="#m23b240a4a7" y="130.674635"/>
      </g>
     </g>
     <g id="text_16">
      <!-- 250 ms -->
      <g transform="translate(20.878125 134.473854)scale(0.1 -0.1)">
       <use xlink:href="#DejaVuSans-32"/>
       <use x="63.623047" xlink:href="#DejaVuSans-35"/>
       <use x="127.246094" xlink:href="#DejaVuSans-30"/>
       <use x="190.869141" xlink:href="#DejaVuSans-20"/>
       <use x="222.65625" xlink:href="#DejaVuSans-6d"/>
       <use x="320.068359" xlink:href="#DejaVuSans-73"/>
      </g>
     </g>
    </g>
    <g id="ytick_7">
     <g id="line2d_16">
      <g>
       <use style="stroke:#000000;stroke-width:0.8;" x="65.09375" xlink:href="#m23b240a4a7" y="99.123537"/>
      </g>
     </g>
     <g id="text_17">
      <!-- 300 ms -->
      <g transform="translate(20.878125 102.922755)scale(0.1 -0.1)">
       <use xlink:href="#DejaVuSans-33"/>
       <use x="63.623047" xlink:href="#DejaVuSans-30"/>
       <use x="127.246094" xlink:href="#DejaVuSans-30"/>
       <use x="190.869141" xlink:href="#DejaVuSans-20"/>
       <use x="222.65625" xlink:href="#DejaVuSans-6d"/>
       <use x="320.068359" xlink:href="#DejaVuSans-73"/>
      </g>
     </g>
    </g>
    <g id="ytick_8">
     <g id="line2d_17">
      <g>
       <use style="stroke:#000000;stroke-width:0.8;" x="65.09375" xlink:href="#m23b240a4a7" y="67.572439"/>
      </g>
     </g>
     <g id="text_18">
      <!-- 350 ms -->
      <g transform="translate(20.878125 71.371657)scale(0.1 -0.1)">
       <use xlink:href="#DejaVuSans-33"/>
       <use x="63.623047" xlink:href="#DejaVuSans-35"/>
       <use x="127.246094" xlink:href="#DejaVuSans-30"/>
       <use x="190.869141" xlink:href="#DejaVuSans-20"/>
       <use x="222.65625" xlink:href="#DejaVuSans-6d"/>
       <use x="320.068359" xlink:href="#DejaVuSans-73"/>
      </g>
     </g>
    </g>
    <g id="ytick_9">
     <g id="line2d_18">
      <g>
       <use style="stroke:#000000;stroke-width:0.8;" x="65.09375" xlink:href="#m23b240a4a7" y="36.021341"/>
      </g>
     </g>
     <g id="text_19">
      <!-- 400 ms -->
      <g transform="translate(20.878125 39.820559)scale(0.1 -0.1)">
       <use xlink:href="#DejaVuSans-34"/>
       <use x="63.623047" xlink:href="#DejaVuSans-30"/>
       <use x="127.246094" xlink:href="#DejaVuSans-30"/>
       <use x="190.869141" xlink:href="#DejaVuSans-20"/>
       <use x="222.65625" xlink:href="#DejaVuSans-6d"/>
       <use x="320.068359" xlink:href="#DejaVuSans-73"/>
      </g>
     </g>
    </g>
    <g id="text_20">
     <!-- Write latency (s) -->
     <defs>
      <path d="M 3.328125 72.90625 
L 13.28125 72.90625 
L 28.609375 11.28125 
L 43.890625 72.90625 
L 54.984375 72.90625 
L 70.3125 11.28125 
L 85.59375 72.90625 
L 95.609375 72.90625 
L 77.296875 0 
L 64.890625 0 
L 49.515625 63.28125 
L 33.984375 0 
L 21.578125 0 
z
" id="DejaVuSans-57"/>
      <path d="M 41.109375 46.296875 
Q 39.59375 47.171875 37.8125 47.578125 
Q 36.03125 48 33.890625 48 
Q 26.265625 48 22.1875 43.046875 
Q 18.109375 38.09375 18.109375 28.8125 
L 18.109375 0 
L 9.078125 0 
L 9.078125 54.6875 
L 18.109375 54.6875 
L 18.109375 46.1875 
Q 20.953125 51.171875 25.484375 53.578125 
Q 30.03125 56 36.53125 56 
Q 37.453125 56 38.578125 55.875 
Q 39.703125 55.765625 41.0625 55.515625 
z
" id="DejaVuSans-72"/>
      <path d="M 32.171875 -5.078125 
Q 28.375 -14.84375 24.75 -17.8125 
Q 21.140625 -20.796875 15.09375 -20.796875 
L 7.90625 -20.796875 
L 7.90625 -13.28125 
L 13.1875 -13.28125 
Q 16.890625 -13.28125 18.9375 -11.515625 
Q 21 -9.765625 23.484375 -3.21875 
L 25.09375 0.875 
L 2.984375 54.6875 
L 12.5 54.6875 
L 29.59375 11.921875 
L 46.6875 54.6875 
L 56.203125 54.6875 
z
" id="DejaVuSans-79"/>
      <path d="M 31 75.875 
Q 24.46875 64.65625 21.28125 53.65625 
Q 18.109375 42.671875 18.109375 31.390625 
Q 18.109375 20.125 21.3125 9.0625 
Q 24.515625 -2 31 -13.1875 
L 23.1875 -13.1875 
Q 15.875 -1.703125 12.234375 9.375 
Q 8.59375 20.453125 8.59375 31.390625 
Q 8.59375 42.28125 12.203125 53.3125 
Q 15.828125 64.359375 23.1875 75.875 
z
" id="DejaVuSans-28"/>
      <path d="M 8.015625 75.875 
L 15.828125 75.875 
Q 23.140625 64.359375 26.78125 53.3125 
Q 30.421875 42.28125 30.421875 31.390625 
Q 30.421875 20.453125 26.78125 9.375 
Q 23.140625 -1.703125 15.828125 -13.1875 
L 8.015625 -13.1875 
Q 14.5 -2 17.703125 9.0625 
Q 20.90625 20.125 20.90625 31.390625 
Q 20.90625 42.671875 17.703125 53.65625 
Q 14.5 64.65625 8.015625 75.875 
z
" id="DejaVuSans-29"/>
     </defs>
     <g transform="translate(14.798438 196.847562)rotate(-90)scale(0.1 -0.1)">
      <use xlink:href="#DejaVuSans-57"/>
      <use x="98.814453" xlink:href="#DejaVuSans-72"/>
      <use x="139.927734" xlink:href="#DejaVuSans-69"/>
      <use x="167.710938" xlink:href="#DejaVuSans-74"/>
      <use x="206.919922" xlink:href="#DejaVuSans-65"/>
      <use x="268.443359" xlink:href="#DejaVuSans-20"/>
      <use x="300.230469" xlink:href="#DejaVuSans-6c"/>
      <use x="328.013672" xlink:href="#DejaVuSans-61"/>
      <use x="389.292969" xlink:href="#DejaVuSans-74"/>
      <use x="428.501953" xlink:href="#DejaVuSans-65"/>
      <use x="490.025391" xlink:href="#DejaVuSans-6e"/>
      <use x="553.404297" xlink:href="#DejaVuSans-63"/>
      <use x="608.384766" xlink:href="#DejaVuSans-79"/>
      <use x="667.564453" xlink:href="#DejaVuSans-20"/>
      <use x="699.351562" xlink:href="#DejaVuSans-28"/>
      <use x="738.365234" xlink:href="#DejaVuSans-73"/>
      <use x="790.464844" xlink:href="#DejaVuSans-29"/>
     </g>
    </g>
   </g>
   <g id="line2d_19">
    <path clip-path="url(#pc7d69f9614)" d="M 95.577745 287.640287 
L 130.852082 287.615031 
L 158.287677 287.595899 
L 206.191098 287.601166 
L 237.98155 287.637994 
L 272.820401 287.394334 
L 278.046229 286.871667 
L 286.755941 285.51331 
L 289.368855 284.898072 
L 291.546283 284.315216 
L 296.336625 283.062243 
L 299.820511 282.055412 
L 300.255996 281.774901 
L 305.91731 280.417428 
L 314.627022 278.327303 
L 315.062508 278.059279 
L 319.85285 276.978687 
L 321.159307 276.701722 
L 322.030278 276.416061 
L 323.772221 275.923993 
L 329.86902 274.105196 
L 330.304505 274.003908 
L 330.739991 274.055125 
L 335.094847 272.917861 
L 337.272276 272.396763 
L 340.320675 271.698229 
L 347.723931 270.47457 
L 353.82073 269.828212 
L 354.691701 269.876909 
L 356.433644 269.786503 
L 357.304615 269.812125 
L 358.175586 269.770227 
L 358.611072 269.897284 
L 363.8369 269.749173 
L 367.756271 269.705883 
L 370.369184 269.605608 
L 376.030498 269.587988 
L 386.482153 269.647595 
L 387.78861 269.601806 
L 392.578952 269.58171 
L 393.449923 269.511879 
L 395.191866 269.481471 
L 405.208036 269.56371 
L 405.208036 269.56371 
" style="fill:none;opacity:0.8;stroke:#1f77b4;stroke-linecap:square;stroke-width:1.5;"/>
   </g>
   <g id="line2d_20">
    <path clip-path="url(#pc7d69f9614)" d="M 95.577745 287.076202 
L 119.093969 287.067923 
L 151.319907 286.992659 
L 173.094189 286.930068 
L 179.190988 286.911286 
L 202.271727 286.823573 
L 204.01367 286.51597 
L 205.755612 285.925063 
L 207.497555 285.078631 
L 209.239497 283.970947 
L 210.545954 282.963945 
L 211.416925 282.039538 
L 213.158868 280.295658 
L 215.336296 277.783761 
L 215.771782 277.221408 
L 216.642753 275.883267 
L 218.820181 272.695682 
L 221.433095 267.99904 
L 222.304066 266.214821 
L 224.481495 261.980706 
L 227.094408 256.289364 
L 228.836351 251.919618 
L 231.884751 243.972883 
L 235.804121 232.895046 
L 237.98155 226.854647 
L 240.594463 219.498616 
L 241.465435 217.108848 
L 243.642863 210.932461 
L 244.513834 208.342254 
L 249.304176 194.603614 
L 251.481604 188.311629 
L 252.788061 184.88084 
L 254.094518 180.955806 
L 260.626803 162.361247 
L 261.93326 158.459786 
L 269.772001 137.011054 
L 270.642973 134.579165 
L 273.255886 127.683092 
L 275.8688 121.120703 
L 276.739772 118.691531 
L 281.965599 106.470565 
L 282.401085 105.221583 
L 283.272056 103.389502 
L 284.143027 101.445771 
L 284.578513 100.681759 
L 285.013999 99.6035 
L 285.88497 97.907312 
L 291.110798 87.658341 
L 291.546283 87.192294 
L 295.465654 81.300977 
L 295.90114 80.908234 
L 296.336625 80.200448 
L 296.772111 79.813558 
L 297.207597 79.246335 
L 297.643082 78.463819 
L 298.514054 77.798425 
L 298.949539 77.078825 
L 299.385025 76.791513 
L 300.255996 75.716752 
L 300.691482 75.531886 
L 301.562453 74.48142 
L 301.997939 74.253531 
L 302.433424 73.56106 
L 303.304396 72.982781 
L 303.739881 72.426934 
L 304.175367 72.232868 
L 304.610853 71.866858 
L 305.046338 71.354913 
L 305.481824 71.253993 
L 305.91731 70.877574 
L 306.352795 70.229315 
L 306.788281 70.12982 
L 307.223766 69.854779 
L 307.659252 69.360965 
L 308.094738 69.338871 
L 308.530223 69.127445 
L 308.965709 68.554318 
L 309.401195 68.426318 
L 311.143137 66.916095 
L 311.578623 66.721278 
L 312.014109 66.741716 
L 312.449594 66.224112 
L 312.88508 66.261673 
L 313.320565 66.055493 
L 313.756051 65.564753 
L 314.191537 65.550736 
L 314.627022 65.364886 
L 315.062508 64.977574 
L 315.497994 65.016424 
L 315.933479 64.888823 
L 316.368965 64.472765 
L 316.804451 64.453807 
L 317.239936 64.226371 
L 317.675422 63.850659 
L 318.110907 63.780976 
L 318.546393 63.585564 
L 318.981879 63.216852 
L 319.417364 63.199875 
L 319.85285 62.959207 
L 320.288336 62.869598 
L 320.723821 62.903191 
L 321.159307 62.521553 
L 321.594793 62.436778 
L 322.030278 62.223384 
L 322.465764 61.746102 
L 323.336735 61.381244 
L 323.772221 60.751437 
L 324.207706 60.738802 
L 324.643192 60.54382 
L 325.078678 59.963993 
L 325.514163 59.866884 
L 325.949649 59.644205 
L 326.385135 59.2188 
L 326.82062 59.112681 
L 327.691592 58.320689 
L 328.127077 58.287427 
L 328.998049 57.239955 
L 329.433534 57.154847 
L 329.86902 56.702127 
L 330.739991 56.452032 
L 331.175477 55.917288 
L 332.046448 55.717528 
L 332.481934 55.23721 
L 332.917419 55.185239 
L 333.352905 54.839516 
L 333.788391 54.338803 
L 334.223876 54.153959 
L 334.659362 53.76257 
L 335.094847 53.202474 
L 335.530333 53.014131 
L 336.401304 52.187393 
L 336.83679 52.101238 
L 337.272276 51.769063 
L 337.707761 51.21016 
L 338.143247 51.106826 
L 339.014218 49.977536 
L 339.449704 49.956966 
L 339.88519 49.468278 
L 340.320675 49.267472 
L 340.756161 49.202225 
L 341.191646 48.745205 
L 342.062618 48.363253 
L 342.498103 47.887728 
L 342.933589 47.919709 
L 343.80456 47.070051 
L 344.675532 46.70545 
L 345.111017 46.19366 
L 345.546503 46.110637 
L 345.981989 45.735168 
L 346.417474 45.149584 
L 346.85296 45.135564 
L 347.723931 44.355235 
L 348.159417 44.249167 
L 349.030388 43.451605 
L 349.465874 43.328724 
L 349.901359 42.985205 
L 350.336845 42.933694 
L 351.207816 42.277395 
L 351.643302 42.25652 
L 352.078787 42.051406 
L 352.514273 41.56538 
L 352.949759 41.629431 
L 353.385244 41.41139 
L 353.82073 41.045451 
L 354.256216 41.203395 
L 354.691701 40.983855 
L 355.127187 40.552882 
L 355.562673 40.620774 
L 355.998158 40.489438 
L 356.433644 40.10583 
L 356.86913 40.087653 
L 358.611072 39.04763 
L 359.046558 38.861666 
L 359.482043 38.907314 
L 359.917529 38.656297 
L 360.353015 38.688222 
L 360.7885 38.556978 
L 361.223986 38.262422 
L 361.659472 38.350266 
L 362.094957 38.232936 
L 362.530443 37.917773 
L 362.965929 37.98853 
L 363.8369 37.669537 
L 364.707871 37.823371 
L 365.143357 37.548295 
L 366.014328 37.590547 
L 366.449814 37.378629 
L 366.885299 37.517828 
L 367.320785 37.438903 
L 367.756271 37.123918 
L 368.191756 37.264184 
L 369.062728 36.917235 
L 369.498213 37.092837 
L 369.933699 36.909535 
L 370.369184 37.079007 
L 370.80467 37.112443 
L 371.240156 36.907332 
L 371.675641 37.136727 
L 373.417584 37.209604 
L 373.85307 37.128584 
L 374.724041 37.274825 
L 375.159526 36.997174 
L 375.595012 37.132927 
L 376.030498 37.073877 
L 376.465983 36.784244 
L 376.901469 36.929525 
L 377.336955 36.902526 
L 377.77244 36.6627 
L 378.207926 36.921648 
L 379.078897 36.584104 
L 379.514383 36.832456 
L 379.949869 36.625157 
L 380.385354 36.857822 
L 382.127297 36.569128 
L 382.562782 36.373693 
L 382.998268 36.458422 
L 385.175696 35.850306 
L 385.611182 35.988494 
L 386.046668 35.943415 
L 386.482153 35.663308 
L 387.353124 35.737522 
L 387.78861 35.584457 
L 388.224096 35.803783 
L 389.095067 35.62872 
L 389.530553 35.789299 
L 389.966038 35.489292 
L 390.83701 35.634089 
L 391.272495 35.413753 
L 391.707981 35.552613 
L 392.143466 35.496275 
L 392.578952 35.291291 
L 393.014438 35.477153 
L 393.449923 35.495774 
L 393.885409 35.26507 
L 394.320895 35.450466 
L 394.75638 35.435524 
L 395.191866 35.140375 
L 396.062837 35.39785 
L 396.498323 35.177827 
L 396.933809 35.29076 
L 397.80478 35.071349 
L 398.240265 35.33564 
L 398.675751 35.151293 
L 399.111237 35.27642 
L 399.546722 35.574521 
L 399.982208 35.414748 
L 400.417694 35.515285 
L 400.853179 35.473018 
L 401.288665 35.184325 
L 401.724151 35.343287 
L 402.159636 35.304319 
L 402.595122 35.12902 
L 403.466093 35.304895 
L 403.901579 35.107783 
L 404.337064 35.222454 
L 405.208036 34.990125 
L 405.208036 34.990125 
" style="fill:none;opacity:0.8;stroke:#ff7f0e;stroke-linecap:square;stroke-width:1.5;"/>
   </g>
   <g id="line2d_21">
    <path clip-path="url(#pc7d69f9614)" d="M 95.577745 287.544839 
L 112.997171 287.534381 
L 122.142369 287.528842 
L 146.965051 287.505407 
L 193.9975 287.528455 
L 204.884641 287.372734 
L 210.110468 286.902848 
L 216.207267 286.175777 
L 216.642753 285.935355 
L 220.99761 285.254914 
L 231.884751 282.985689 
L 234.497664 282.458908 
L 235.368636 282.292984 
L 235.804121 282.034 
L 246.691262 279.988874 
L 247.126748 280.087043 
L 254.094518 278.794113 
L 254.96549 278.523708 
L 260.191317 277.562814 
L 265.417145 276.541091 
L 265.852631 276.243775 
L 266.288116 276.336934 
L 277.175257 274.454275 
L 284.578513 273.607514 
L 285.013999 273.673949 
L 288.497884 273.380267 
L 295.465654 272.990772 
L 295.90114 272.984956 
L 296.336625 273.192834 
L 305.91731 273.210956 
L 307.659252 273.21885 
L 313.756051 273.221015 
L 321.159307 273.2397 
L 322.465764 273.23647 
L 323.336735 273.325159 
L 335.965819 273.282984 
L 405.208036 273.268251 
L 405.208036 273.268251 
" style="fill:none;opacity:0.8;stroke:#2ca02c;stroke-linecap:square;stroke-width:1.5;"/>
   </g>
   <g id="line2d_22">
    <path clip-path="url(#pc7d69f9614)" d="M 95.577745 287.698429 
L 199.223327 287.469452 
L 220.562124 287.458809 
L 282.836571 287.40958 
L 293.723712 287.385167 
L 405.208036 287.296345 
L 405.208036 287.296345 
" style="fill:none;opacity:0.8;stroke:#d62728;stroke-linecap:square;stroke-width:1.5;"/>
   </g>
   <g id="line2d_23">
    <path clip-path="url(#pc7d69f9614)" d="M 95.577745 287.512942 
L 123.448826 287.406337 
L 282.401085 286.920938 
L 284.143027 286.942667 
L 405.208036 286.725112 
L 405.208036 286.725112 
" style="fill:none;opacity:0.8;stroke:#9467bd;stroke-linecap:square;stroke-width:1.5;"/>
   </g>
   <g id="patch_3">
    <path d="M 65.09375 288.430125 
L 65.09375 22.318125 
" style="fill:none;stroke:#000000;stroke-linecap:square;stroke-linejoin:miter;stroke-width:0.8;"/>
   </g>
   <g id="patch_4">
    <path d="M 422.21375 288.430125 
L 422.21375 22.318125 
" style="fill:none;stroke:#000000;stroke-linecap:square;stroke-linejoin:miter;stroke-width:0.8;"/>
   </g>
   <g id="patch_5">
    <path d="M 65.09375 288.430125 
L 422.21375 288.430125 
" style="fill:none;stroke:#000000;stroke-linecap:square;stroke-linejoin:miter;stroke-width:0.8;"/>
   </g>
   <g id="patch_6">
    <path d="M 65.09375 22.318125 
L 422.21375 22.318125 
" style="fill:none;stroke:#000000;stroke-linecap:square;stroke-linejoin:miter;stroke-width:0.8;"/>
   </g>
   <g id="text_21">
    <!-- Delete [root] -->
    <defs>
     <path d="M 19.671875 64.796875 
L 19.671875 8.109375 
L 31.59375 8.109375 
Q 46.6875 8.109375 53.6875 14.9375 
Q 60.6875 21.78125 60.6875 36.53125 
Q 60.6875 51.171875 53.6875 57.984375 
Q 46.6875 64.796875 31.59375 64.796875 
z
M 9.8125 72.90625 
L 30.078125 72.90625 
Q 51.265625 72.90625 61.171875 64.09375 
Q 71.09375 55.28125 71.09375 36.53125 
Q 71.09375 17.671875 61.125 8.828125 
Q 51.171875 0 30.078125 0 
L 9.8125 0 
z
" id="DejaVuSans-44"/>
     <path d="M 8.59375 75.984375 
L 29.296875 75.984375 
L 29.296875 69 
L 17.578125 69 
L 17.578125 -6.203125 
L 29.296875 -6.203125 
L 29.296875 -13.1875 
L 8.59375 -13.1875 
z
" id="DejaVuSans-5b"/>
     <path d="M 30.421875 75.984375 
L 30.421875 -13.1875 
L 9.71875 -13.1875 
L 9.71875 -6.203125 
L 21.390625 -6.203125 
L 21.390625 69 
L 9.71875 69 
L 9.71875 75.984375 
z
" id="DejaVuSans-5d"/>
    </defs>
    <g transform="translate(205.190938 16.318125)scale(0.12 -0.12)">
     <use xlink:href="#DejaVuSans-44"/>
     <use x="77.001953" xlink:href="#DejaVuSans-65"/>
     <use x="138.525391" xlink:href="#DejaVuSans-6c"/>
     <use x="166.308594" xlink:href="#DejaVuSans-65"/>
     <use x="227.832031" xlink:href="#DejaVuSans-74"/>
     <use x="267.041016" xlink:href="#DejaVuSans-65"/>
     <use x="328.564453" xlink:href="#DejaVuSans-20"/>
     <use x="360.351562" xlink:href="#DejaVuSans-5b"/>
     <use x="399.365234" xlink:href="#DejaVuSans-72"/>
     <use x="440.447266" xlink:href="#DejaVuSans-6f"/>
     <use x="501.628906" xlink:href="#DejaVuSans-6f"/>
     <use x="562.810547" xlink:href="#DejaVuSans-74"/>
     <use x="602.019531" xlink:href="#DejaVuSans-5d"/>
    </g>
   </g>
   <g id="legend_1">
    <g id="patch_7">
     <path d="M 95.614063 365.802375 
L 384.173438 365.802375 
Q 386.173438 365.802375 386.173438 363.802375 
L 386.173438 335.446125 
Q 386.173438 333.446125 384.173438 333.446125 
L 95.614063 333.446125 
Q 93.614063 333.446125 93.614063 335.446125 
L 93.614063 363.802375 
Q 93.614063 365.802375 95.614063 365.802375 
z
" style="fill:#4c4c4c;opacity:0.5;stroke:#4c4c4c;stroke-linejoin:miter;"/>
    </g>
    <g id="patch_8">
     <path d="M 93.614063 363.802375 
L 382.173438 363.802375 
Q 384.173438 363.802375 384.173438 361.802375 
L 384.173438 333.446125 
Q 384.173438 331.446125 382.173438 331.446125 
L 93.614063 331.446125 
Q 91.614063 331.446125 91.614063 333.446125 
L 91.614063 361.802375 
Q 91.614063 363.802375 93.614063 363.802375 
z
" style="fill:#ffffff;stroke:#cccccc;stroke-linejoin:miter;"/>
    </g>
    <g id="line2d_24">
     <path d="M 95.614063 339.544562 
L 115.614063 339.544562 
" style="fill:none;opacity:0.8;stroke:#1f77b4;stroke-linecap:square;stroke-width:1.5;"/>
    </g>
    <g id="line2d_25"/>
    <g id="text_22">
     <!-- MPTT -->
     <defs>
      <path d="M 9.8125 72.90625 
L 24.515625 72.90625 
L 43.109375 23.296875 
L 61.8125 72.90625 
L 76.515625 72.90625 
L 76.515625 0 
L 66.890625 0 
L 66.890625 64.015625 
L 48.09375 14.015625 
L 38.1875 14.015625 
L 19.390625 64.015625 
L 19.390625 0 
L 9.8125 0 
z
" id="DejaVuSans-4d"/>
      <path d="M 19.671875 64.796875 
L 19.671875 37.40625 
L 32.078125 37.40625 
Q 38.96875 37.40625 42.71875 40.96875 
Q 46.484375 44.53125 46.484375 51.125 
Q 46.484375 57.671875 42.71875 61.234375 
Q 38.96875 64.796875 32.078125 64.796875 
z
M 9.8125 72.90625 
L 32.078125 72.90625 
Q 44.34375 72.90625 50.609375 67.359375 
Q 56.890625 61.8125 56.890625 51.125 
Q 56.890625 40.328125 50.609375 34.8125 
Q 44.34375 29.296875 32.078125 29.296875 
L 19.671875 29.296875 
L 19.671875 0 
L 9.8125 0 
z
" id="DejaVuSans-50"/>
      <path d="M -0.296875 72.90625 
L 61.375 72.90625 
L 61.375 64.59375 
L 35.5 64.59375 
L 35.5 0 
L 25.59375 0 
L 25.59375 64.59375 
L -0.296875 64.59375 
z
" id="DejaVuSans-54"/>
     </defs>
     <g transform="translate(123.614063 343.044562)scale(0.1 -0.1)">
      <use xlink:href="#DejaVuSans-4d"/>
      <use x="86.279297" xlink:href="#DejaVuSans-50"/>
      <use x="146.582031" xlink:href="#DejaVuSans-54"/>
      <use x="207.650391" xlink:href="#DejaVuSans-54"/>
     </g>
    </g>
    <g id="line2d_26">
     <path d="M 95.614063 354.222687 
L 115.614063 354.222687 
" style="fill:none;opacity:0.8;stroke:#ff7f0e;stroke-linecap:square;stroke-width:1.5;"/>
    </g>
    <g id="line2d_27"/>
    <g id="text_23">
     <!-- tree -->
     <g transform="translate(123.614063 357.722687)scale(0.1 -0.1)">
      <use xlink:href="#DejaVuSans-74"/>
      <use x="39.208984" xlink:href="#DejaVuSans-72"/>
      <use x="80.291016" xlink:href="#DejaVuSans-65"/>
      <use x="141.814453" xlink:href="#DejaVuSans-65"/>
     </g>
    </g>
    <g id="line2d_28">
     <path d="M 170.485938 339.544562 
L 190.485938 339.544562 
" style="fill:none;opacity:0.8;stroke:#2ca02c;stroke-linecap:square;stroke-width:1.5;"/>
    </g>
    <g id="line2d_29"/>
    <g id="text_24">
     <!-- treebeard AL -->
     <defs>
      <path d="M 45.40625 46.390625 
L 45.40625 75.984375 
L 54.390625 75.984375 
L 54.390625 0 
L 45.40625 0 
L 45.40625 8.203125 
Q 42.578125 3.328125 38.25 0.953125 
Q 33.9375 -1.421875 27.875 -1.421875 
Q 17.96875 -1.421875 11.734375 6.484375 
Q 5.515625 14.40625 5.515625 27.296875 
Q 5.515625 40.1875 11.734375 48.09375 
Q 17.96875 56 27.875 56 
Q 33.9375 56 38.25 53.625 
Q 42.578125 51.265625 45.40625 46.390625 
z
M 14.796875 27.296875 
Q 14.796875 17.390625 18.875 11.75 
Q 22.953125 6.109375 30.078125 6.109375 
Q 37.203125 6.109375 41.296875 11.75 
Q 45.40625 17.390625 45.40625 27.296875 
Q 45.40625 37.203125 41.296875 42.84375 
Q 37.203125 48.484375 30.078125 48.484375 
Q 22.953125 48.484375 18.875 42.84375 
Q 14.796875 37.203125 14.796875 27.296875 
z
" id="DejaVuSans-64"/>
      <path d="M 9.8125 72.90625 
L 19.671875 72.90625 
L 19.671875 8.296875 
L 55.171875 8.296875 
L 55.171875 0 
L 9.8125 0 
z
" id="DejaVuSans-4c"/>
     </defs>
     <g transform="translate(198.485938 343.044562)scale(0.1 -0.1)">
      <use xlink:href="#DejaVuSans-74"/>
      <use x="39.208984" xlink:href="#DejaVuSans-72"/>
      <use x="80.291016" xlink:href="#DejaVuSans-65"/>
      <use x="141.814453" xlink:href="#DejaVuSans-65"/>
      <use x="203.337891" xlink:href="#DejaVuSans-62"/>
      <use x="266.814453" xlink:href="#DejaVuSans-65"/>
      <use x="328.337891" xlink:href="#DejaVuSans-61"/>
      <use x="389.617188" xlink:href="#DejaVuSans-72"/>
      <use x="430.714844" xlink:href="#DejaVuSans-64"/>
      <use x="494.191406" xlink:href="#DejaVuSans-20"/>
      <use x="525.978516" xlink:href="#DejaVuSans-41"/>
      <use x="594.386719" xlink:href="#DejaVuSans-4c"/>
     </g>
    </g>
    <g id="line2d_30">
     <path d="M 170.485938 354.222687 
L 190.485938 354.222687 
" style="fill:none;opacity:0.8;stroke:#d62728;stroke-linecap:square;stroke-width:1.5;"/>
    </g>
    <g id="line2d_31"/>
    <g id="text_25">
     <!-- treebeard MP -->
     <g transform="translate(198.485938 357.722687)scale(0.1 -0.1)">
      <use xlink:href="#DejaVuSans-74"/>
      <use x="39.208984" xlink:href="#DejaVuSans-72"/>
      <use x="80.291016" xlink:href="#DejaVuSans-65"/>
      <use x="141.814453" xlink:href="#DejaVuSans-65"/>
      <use x="203.337891" xlink:href="#DejaVuSans-62"/>
      <use x="266.814453" xlink:href="#DejaVuSans-65"/>
      <use x="328.337891" xlink:href="#DejaVuSans-61"/>
      <use x="389.617188" xlink:href="#DejaVuSans-72"/>
      <use x="430.714844" xlink:href="#DejaVuSans-64"/>
      <use x="494.191406" xlink:href="#DejaVuSans-20"/>
      <use x="525.978516" xlink:href="#DejaVuSans-4d"/>
      <use x="612.257812" xlink:href="#DejaVuSans-50"/>
     </g>
    </g>
    <g id="line2d_32">
     <path d="M 285.74375 339.544562 
L 305.74375 339.544562 
" style="fill:none;opacity:0.8;stroke:#9467bd;stroke-linecap:square;stroke-width:1.5;"/>
    </g>
    <g id="line2d_33"/>
    <g id="text_26">
     <!-- treebeard NS -->
     <defs>
      <path d="M 9.8125 72.90625 
L 23.09375 72.90625 
L 55.421875 11.921875 
L 55.421875 72.90625 
L 64.984375 72.90625 
L 64.984375 0 
L 51.703125 0 
L 19.390625 60.984375 
L 19.390625 0 
L 9.8125 0 
z
" id="DejaVuSans-4e"/>
      <path d="M 53.515625 70.515625 
L 53.515625 60.890625 
Q 47.90625 63.578125 42.921875 64.890625 
Q 37.9375 66.21875 33.296875 66.21875 
Q 25.25 66.21875 20.875 63.09375 
Q 16.5 59.96875 16.5 54.203125 
Q 16.5 49.359375 19.40625 46.890625 
Q 22.3125 44.4375 30.421875 42.921875 
L 36.375 41.703125 
Q 47.40625 39.59375 52.65625 34.296875 
Q 57.90625 29 57.90625 20.125 
Q 57.90625 9.515625 50.796875 4.046875 
Q 43.703125 -1.421875 29.984375 -1.421875 
Q 24.8125 -1.421875 18.96875 -0.25 
Q 13.140625 0.921875 6.890625 3.21875 
L 6.890625 13.375 
Q 12.890625 10.015625 18.65625 8.296875 
Q 24.421875 6.59375 29.984375 6.59375 
Q 38.421875 6.59375 43.015625 9.90625 
Q 47.609375 13.234375 47.609375 19.390625 
Q 47.609375 24.75 44.3125 27.78125 
Q 41.015625 30.8125 33.5 32.328125 
L 27.484375 33.5 
Q 16.453125 35.6875 11.515625 40.375 
Q 6.59375 45.0625 6.59375 53.421875 
Q 6.59375 63.09375 13.40625 68.65625 
Q 20.21875 74.21875 32.171875 74.21875 
Q 37.3125 74.21875 42.625 73.28125 
Q 47.953125 72.359375 53.515625 70.515625 
z
" id="DejaVuSans-53"/>
     </defs>
     <g transform="translate(313.74375 343.044562)scale(0.1 -0.1)">
      <use xlink:href="#DejaVuSans-74"/>
      <use x="39.208984" xlink:href="#DejaVuSans-72"/>
      <use x="80.291016" xlink:href="#DejaVuSans-65"/>
      <use x="141.814453" xlink:href="#DejaVuSans-65"/>
      <use x="203.337891" xlink:href="#DejaVuSans-62"/>
      <use x="266.814453" xlink:href="#DejaVuSans-65"/>
      <use x="328.337891" xlink:href="#DejaVuSans-61"/>
      <use x="389.617188" xlink:href="#DejaVuSans-72"/>
      <use x="430.714844" xlink:href="#DejaVuSans-64"/>
      <use x="494.191406" xlink:href="#DejaVuSans-20"/>
      <use x="525.978516" xlink:href="#DejaVuSans-4e"/>
      <use x="600.783203" xlink:href="#DejaVuSans-53"/>
     </g>
    </g>
   </g>
  </g>
 </g>
 <defs>
  <clipPath id="pc7d69f9614">
   <rect height="266.112" width="357.12" x="65.09375" y="22.318125"/>
  </clipPath>
 </defs>
</svg>
