<?xml version="1.0" encoding="utf-8" standalone="no"?>
<!DOCTYPE svg PUBLIC "-//W3C//DTD SVG 1.1//EN"
  "http://www.w3.org/Graphics/SVG/1.1/DTD/svg11.dtd">
<!-- Created with matplotlib (http://matplotlib.org/) -->
<svg height="371pt" version="1.1" viewBox="0 0 429 371" width="429pt" xmlns="http://www.w3.org/2000/svg" xmlns:xlink="http://www.w3.org/1999/xlink">
 <defs>
  <style type="text/css">
*{stroke-linecap:butt;stroke-linejoin:round;}
  </style>
 </defs>
 <g id="figure_1">
  <g id="patch_1">
   <path d="M 0 371.002375 
L 429.729375 371.002375 
L 429.729375 0 
L 0 0 
z
" style="fill:#ffffff;"/>
  </g>
  <g id="axes_1">
   <g id="patch_2">
    <path d="M 61.909375 288.430125 
L 419.029375 288.430125 
L 419.029375 22.318125 
L 61.909375 22.318125 
z
" style="fill:#ffffff;"/>
   </g>
   <g id="matplotlib.axis_1">
    <g id="xtick_1">
     <g id="line2d_1">
      <defs>
       <path d="M 0 0 
L 0 3.5 
" id="me814d14eb5" style="stroke:#000000;stroke-width:0.8;"/>
      </defs>
      <g>
       <use style="stroke:#000000;stroke-width:0.8;" x="61.909375" xlink:href="#me814d14eb5" y="288.430125"/>
      </g>
     </g>
     <g id="text_1">
      <!-- 0 -->
      <defs>
       <path d="M 31.78125 66.40625 
Q 24.171875 66.40625 20.328125 58.90625 
Q 16.5 51.421875 16.5 36.375 
Q 16.5 21.390625 20.328125 13.890625 
Q 24.171875 6.390625 31.78125 6.390625 
Q 39.453125 6.390625 43.28125 13.890625 
Q 47.125 21.390625 47.125 36.375 
Q 47.125 51.421875 43.28125 58.90625 
Q 39.453125 66.40625 31.78125 66.40625 
z
M 31.78125 74.21875 
Q 44.046875 74.21875 50.515625 64.515625 
Q 56.984375 54.828125 56.984375 36.375 
Q 56.984375 17.96875 50.515625 8.265625 
Q 44.046875 -1.421875 31.78125 -1.421875 
Q 19.53125 -1.421875 13.0625 8.265625 
Q 6.59375 17.96875 6.59375 36.375 
Q 6.59375 54.828125 13.0625 64.515625 
Q 19.53125 74.21875 31.78125 74.21875 
z
" id="DejaVuSans-30"/>
      </defs>
      <g transform="translate(58.728125 303.028562)scale(0.1 -0.1)">
       <use xlink:href="#DejaVuSans-30"/>
      </g>
     </g>
    </g>
    <g id="xtick_2">
     <g id="line2d_2">
      <g>
       <use style="stroke:#000000;stroke-width:0.8;" x="105.457939" xlink:href="#me814d14eb5" y="288.430125"/>
      </g>
     </g>
     <g id="text_2">
      <!-- 500  -->
      <defs>
       <path d="M 10.796875 72.90625 
L 49.515625 72.90625 
L 49.515625 64.59375 
L 19.828125 64.59375 
L 19.828125 46.734375 
Q 21.96875 47.46875 24.109375 47.828125 
Q 26.265625 48.1875 28.421875 48.1875 
Q 40.625 48.1875 47.75 41.5 
Q 54.890625 34.8125 54.890625 23.390625 
Q 54.890625 11.625 47.5625 5.09375 
Q 40.234375 -1.421875 26.90625 -1.421875 
Q 22.3125 -1.421875 17.546875 -0.640625 
Q 12.796875 0.140625 7.71875 1.703125 
L 7.71875 11.625 
Q 12.109375 9.234375 16.796875 8.0625 
Q 21.484375 6.890625 26.703125 6.890625 
Q 35.15625 6.890625 40.078125 11.328125 
Q 45.015625 15.765625 45.015625 23.390625 
Q 45.015625 31 40.078125 35.4375 
Q 35.15625 39.890625 26.703125 39.890625 
Q 22.75 39.890625 18.8125 39.015625 
Q 14.890625 38.140625 10.796875 36.28125 
z
" id="DejaVuSans-35"/>
       <path id="DejaVuSans-20"/>
      </defs>
      <g transform="translate(94.325127 303.028562)scale(0.1 -0.1)">
       <use xlink:href="#DejaVuSans-35"/>
       <use x="63.623047" xlink:href="#DejaVuSans-30"/>
       <use x="127.246094" xlink:href="#DejaVuSans-30"/>
       <use x="190.869141" xlink:href="#DejaVuSans-20"/>
      </g>
     </g>
    </g>
    <g id="xtick_3">
     <g id="line2d_3">
      <g>
       <use style="stroke:#000000;stroke-width:0.8;" x="149.006503" xlink:href="#me814d14eb5" y="288.430125"/>
      </g>
     </g>
     <g id="text_3">
      <!-- 1 k -->
      <defs>
       <path d="M 12.40625 8.296875 
L 28.515625 8.296875 
L 28.515625 63.921875 
L 10.984375 60.40625 
L 10.984375 69.390625 
L 28.421875 72.90625 
L 38.28125 72.90625 
L 38.28125 8.296875 
L 54.390625 8.296875 
L 54.390625 0 
L 12.40625 0 
z
" id="DejaVuSans-31"/>
       <path d="M 9.078125 75.984375 
L 18.109375 75.984375 
L 18.109375 31.109375 
L 44.921875 54.6875 
L 56.390625 54.6875 
L 27.390625 29.109375 
L 57.625 0 
L 45.90625 0 
L 18.109375 26.703125 
L 18.109375 0 
L 9.078125 0 
z
" id="DejaVuSans-6b"/>
      </defs>
      <g transform="translate(141.340878 303.028562)scale(0.1 -0.1)">
       <use xlink:href="#DejaVuSans-31"/>
       <use x="63.623047" xlink:href="#DejaVuSans-20"/>
       <use x="95.410156" xlink:href="#DejaVuSans-6b"/>
      </g>
     </g>
    </g>
    <g id="xtick_4">
     <g id="line2d_4">
      <g>
       <use style="stroke:#000000;stroke-width:0.8;" x="192.555067" xlink:href="#me814d14eb5" y="288.430125"/>
      </g>
     </g>
     <g id="text_4">
      <!-- 1.5 k -->
      <defs>
       <path d="M 10.6875 12.40625 
L 21 12.40625 
L 21 0 
L 10.6875 0 
z
" id="DejaVuSans-2e"/>
      </defs>
      <g transform="translate(180.11913 303.028562)scale(0.1 -0.1)">
       <use xlink:href="#DejaVuSans-31"/>
       <use x="63.623047" xlink:href="#DejaVuSans-2e"/>
       <use x="95.410156" xlink:href="#DejaVuSans-35"/>
       <use x="159.033203" xlink:href="#DejaVuSans-20"/>
       <use x="190.820312" xlink:href="#DejaVuSans-6b"/>
      </g>
     </g>
    </g>
    <g id="xtick_5">
     <g id="line2d_5">
      <g>
       <use style="stroke:#000000;stroke-width:0.8;" x="236.103631" xlink:href="#me814d14eb5" y="288.430125"/>
      </g>
     </g>
     <g id="text_5">
      <!-- 2 k -->
      <defs>
       <path d="M 19.1875 8.296875 
L 53.609375 8.296875 
L 53.609375 0 
L 7.328125 0 
L 7.328125 8.296875 
Q 12.9375 14.109375 22.625 23.890625 
Q 32.328125 33.6875 34.8125 36.53125 
Q 39.546875 41.84375 41.421875 45.53125 
Q 43.3125 49.21875 43.3125 52.78125 
Q 43.3125 58.59375 39.234375 62.25 
Q 35.15625 65.921875 28.609375 65.921875 
Q 23.96875 65.921875 18.8125 64.3125 
Q 13.671875 62.703125 7.8125 59.421875 
L 7.8125 69.390625 
Q 13.765625 71.78125 18.9375 73 
Q 24.125 74.21875 28.421875 74.21875 
Q 39.75 74.21875 46.484375 68.546875 
Q 53.21875 62.890625 53.21875 53.421875 
Q 53.21875 48.921875 51.53125 44.890625 
Q 49.859375 40.875 45.40625 35.40625 
Q 44.1875 33.984375 37.640625 27.21875 
Q 31.109375 20.453125 19.1875 8.296875 
z
" id="DejaVuSans-32"/>
      </defs>
      <g transform="translate(228.438006 303.028562)scale(0.1 -0.1)">
       <use xlink:href="#DejaVuSans-32"/>
       <use x="63.623047" xlink:href="#DejaVuSans-20"/>
       <use x="95.410156" xlink:href="#DejaVuSans-6b"/>
      </g>
     </g>
    </g>
    <g id="xtick_6">
     <g id="line2d_6">
      <g>
       <use style="stroke:#000000;stroke-width:0.8;" x="279.652196" xlink:href="#me814d14eb5" y="288.430125"/>
      </g>
     </g>
     <g id="text_6">
      <!-- 2.5 k -->
      <g transform="translate(267.216258 303.028562)scale(0.1 -0.1)">
       <use xlink:href="#DejaVuSans-32"/>
       <use x="63.623047" xlink:href="#DejaVuSans-2e"/>
       <use x="95.410156" xlink:href="#DejaVuSans-35"/>
       <use x="159.033203" xlink:href="#DejaVuSans-20"/>
       <use x="190.820312" xlink:href="#DejaVuSans-6b"/>
      </g>
     </g>
    </g>
    <g id="xtick_7">
     <g id="line2d_7">
      <g>
       <use style="stroke:#000000;stroke-width:0.8;" x="323.20076" xlink:href="#me814d14eb5" y="288.430125"/>
      </g>
     </g>
     <g id="text_7">
      <!-- 3 k -->
      <defs>
       <path d="M 40.578125 39.3125 
Q 47.65625 37.796875 51.625 33 
Q 55.609375 28.21875 55.609375 21.1875 
Q 55.609375 10.40625 48.1875 4.484375 
Q 40.765625 -1.421875 27.09375 -1.421875 
Q 22.515625 -1.421875 17.65625 -0.515625 
Q 12.796875 0.390625 7.625 2.203125 
L 7.625 11.71875 
Q 11.71875 9.328125 16.59375 8.109375 
Q 21.484375 6.890625 26.8125 6.890625 
Q 36.078125 6.890625 40.9375 10.546875 
Q 45.796875 14.203125 45.796875 21.1875 
Q 45.796875 27.640625 41.28125 31.265625 
Q 36.765625 34.90625 28.71875 34.90625 
L 20.21875 34.90625 
L 20.21875 43.015625 
L 29.109375 43.015625 
Q 36.375 43.015625 40.234375 45.921875 
Q 44.09375 48.828125 44.09375 54.296875 
Q 44.09375 59.90625 40.109375 62.90625 
Q 36.140625 65.921875 28.71875 65.921875 
Q 24.65625 65.921875 20.015625 65.03125 
Q 15.375 64.15625 9.8125 62.3125 
L 9.8125 71.09375 
Q 15.4375 72.65625 20.34375 73.4375 
Q 25.25 74.21875 29.59375 74.21875 
Q 40.828125 74.21875 47.359375 69.109375 
Q 53.90625 64.015625 53.90625 55.328125 
Q 53.90625 49.265625 50.4375 45.09375 
Q 46.96875 40.921875 40.578125 39.3125 
z
" id="DejaVuSans-33"/>
      </defs>
      <g transform="translate(315.535135 303.028562)scale(0.1 -0.1)">
       <use xlink:href="#DejaVuSans-33"/>
       <use x="63.623047" xlink:href="#DejaVuSans-20"/>
       <use x="95.410156" xlink:href="#DejaVuSans-6b"/>
      </g>
     </g>
    </g>
    <g id="xtick_8">
     <g id="line2d_8">
      <g>
       <use style="stroke:#000000;stroke-width:0.8;" x="366.749324" xlink:href="#me814d14eb5" y="288.430125"/>
      </g>
     </g>
     <g id="text_8">
      <!-- 3.5 k -->
      <g transform="translate(354.313386 303.028562)scale(0.1 -0.1)">
       <use xlink:href="#DejaVuSans-33"/>
       <use x="63.623047" xlink:href="#DejaVuSans-2e"/>
       <use x="95.410156" xlink:href="#DejaVuSans-35"/>
       <use x="159.033203" xlink:href="#DejaVuSans-20"/>
       <use x="190.820312" xlink:href="#DejaVuSans-6b"/>
      </g>
     </g>
    </g>
    <g id="xtick_9">
     <g id="line2d_9">
      <g>
       <use style="stroke:#000000;stroke-width:0.8;" x="410.297888" xlink:href="#me814d14eb5" y="288.430125"/>
      </g>
     </g>
     <g id="text_9">
      <!-- 4 k -->
      <defs>
       <path d="M 37.796875 64.3125 
L 12.890625 25.390625 
L 37.796875 25.390625 
z
M 35.203125 72.90625 
L 47.609375 72.90625 
L 47.609375 25.390625 
L 58.015625 25.390625 
L 58.015625 17.1875 
L 47.609375 17.1875 
L 47.609375 0 
L 37.796875 0 
L 37.796875 17.1875 
L 4.890625 17.1875 
L 4.890625 26.703125 
z
" id="DejaVuSans-34"/>
      </defs>
      <g transform="translate(402.632263 303.028562)scale(0.1 -0.1)">
       <use xlink:href="#DejaVuSans-34"/>
       <use x="63.623047" xlink:href="#DejaVuSans-20"/>
       <use x="95.410156" xlink:href="#DejaVuSans-6b"/>
      </g>
     </g>
    </g>
    <g id="text_10">
     <!-- Amount of objects in table -->
     <defs>
      <path d="M 34.1875 63.1875 
L 20.796875 26.90625 
L 47.609375 26.90625 
z
M 28.609375 72.90625 
L 39.796875 72.90625 
L 67.578125 0 
L 57.328125 0 
L 50.6875 18.703125 
L 17.828125 18.703125 
L 11.1875 0 
L 0.78125 0 
z
" id="DejaVuSans-41"/>
      <path d="M 52 44.1875 
Q 55.375 50.25 60.0625 53.125 
Q 64.75 56 71.09375 56 
Q 79.640625 56 84.28125 50.015625 
Q 88.921875 44.046875 88.921875 33.015625 
L 88.921875 0 
L 79.890625 0 
L 79.890625 32.71875 
Q 79.890625 40.578125 77.09375 44.375 
Q 74.3125 48.1875 68.609375 48.1875 
Q 61.625 48.1875 57.5625 43.546875 
Q 53.515625 38.921875 53.515625 30.90625 
L 53.515625 0 
L 44.484375 0 
L 44.484375 32.71875 
Q 44.484375 40.625 41.703125 44.40625 
Q 38.921875 48.1875 33.109375 48.1875 
Q 26.21875 48.1875 22.15625 43.53125 
Q 18.109375 38.875 18.109375 30.90625 
L 18.109375 0 
L 9.078125 0 
L 9.078125 54.6875 
L 18.109375 54.6875 
L 18.109375 46.1875 
Q 21.1875 51.21875 25.484375 53.609375 
Q 29.78125 56 35.6875 56 
Q 41.65625 56 45.828125 52.96875 
Q 50 49.953125 52 44.1875 
z
" id="DejaVuSans-6d"/>
      <path d="M 30.609375 48.390625 
Q 23.390625 48.390625 19.1875 42.75 
Q 14.984375 37.109375 14.984375 27.296875 
Q 14.984375 17.484375 19.15625 11.84375 
Q 23.34375 6.203125 30.609375 6.203125 
Q 37.796875 6.203125 41.984375 11.859375 
Q 46.1875 17.53125 46.1875 27.296875 
Q 46.1875 37.015625 41.984375 42.703125 
Q 37.796875 48.390625 30.609375 48.390625 
z
M 30.609375 56 
Q 42.328125 56 49.015625 48.375 
Q 55.71875 40.765625 55.71875 27.296875 
Q 55.71875 13.875 49.015625 6.21875 
Q 42.328125 -1.421875 30.609375 -1.421875 
Q 18.84375 -1.421875 12.171875 6.21875 
Q 5.515625 13.875 5.515625 27.296875 
Q 5.515625 40.765625 12.171875 48.375 
Q 18.84375 56 30.609375 56 
z
" id="DejaVuSans-6f"/>
      <path d="M 8.5 21.578125 
L 8.5 54.6875 
L 17.484375 54.6875 
L 17.484375 21.921875 
Q 17.484375 14.15625 20.5 10.265625 
Q 23.53125 6.390625 29.59375 6.390625 
Q 36.859375 6.390625 41.078125 11.03125 
Q 45.3125 15.671875 45.3125 23.6875 
L 45.3125 54.6875 
L 54.296875 54.6875 
L 54.296875 0 
L 45.3125 0 
L 45.3125 8.40625 
Q 42.046875 3.421875 37.71875 1 
Q 33.40625 -1.421875 27.6875 -1.421875 
Q 18.265625 -1.421875 13.375 4.4375 
Q 8.5 10.296875 8.5 21.578125 
z
M 31.109375 56 
z
" id="DejaVuSans-75"/>
      <path d="M 54.890625 33.015625 
L 54.890625 0 
L 45.90625 0 
L 45.90625 32.71875 
Q 45.90625 40.484375 42.875 44.328125 
Q 39.84375 48.1875 33.796875 48.1875 
Q 26.515625 48.1875 22.3125 43.546875 
Q 18.109375 38.921875 18.109375 30.90625 
L 18.109375 0 
L 9.078125 0 
L 9.078125 54.6875 
L 18.109375 54.6875 
L 18.109375 46.1875 
Q 21.34375 51.125 25.703125 53.5625 
Q 30.078125 56 35.796875 56 
Q 45.21875 56 50.046875 50.171875 
Q 54.890625 44.34375 54.890625 33.015625 
z
" id="DejaVuSans-6e"/>
      <path d="M 18.3125 70.21875 
L 18.3125 54.6875 
L 36.8125 54.6875 
L 36.8125 47.703125 
L 18.3125 47.703125 
L 18.3125 18.015625 
Q 18.3125 11.328125 20.140625 9.421875 
Q 21.96875 7.515625 27.59375 7.515625 
L 36.8125 7.515625 
L 36.8125 0 
L 27.59375 0 
Q 17.1875 0 13.234375 3.875 
Q 9.28125 7.765625 9.28125 18.015625 
L 9.28125 47.703125 
L 2.6875 47.703125 
L 2.6875 54.6875 
L 9.28125 54.6875 
L 9.28125 70.21875 
z
" id="DejaVuSans-74"/>
      <path d="M 37.109375 75.984375 
L 37.109375 68.5 
L 28.515625 68.5 
Q 23.6875 68.5 21.796875 66.546875 
Q 19.921875 64.59375 19.921875 59.515625 
L 19.921875 54.6875 
L 34.71875 54.6875 
L 34.71875 47.703125 
L 19.921875 47.703125 
L 19.921875 0 
L 10.890625 0 
L 10.890625 47.703125 
L 2.296875 47.703125 
L 2.296875 54.6875 
L 10.890625 54.6875 
L 10.890625 58.5 
Q 10.890625 67.625 15.140625 71.796875 
Q 19.390625 75.984375 28.609375 75.984375 
z
" id="DejaVuSans-66"/>
      <path d="M 48.6875 27.296875 
Q 48.6875 37.203125 44.609375 42.84375 
Q 40.53125 48.484375 33.40625 48.484375 
Q 26.265625 48.484375 22.1875 42.84375 
Q 18.109375 37.203125 18.109375 27.296875 
Q 18.109375 17.390625 22.1875 11.75 
Q 26.265625 6.109375 33.40625 6.109375 
Q 40.53125 6.109375 44.609375 11.75 
Q 48.6875 17.390625 48.6875 27.296875 
z
M 18.109375 46.390625 
Q 20.953125 51.265625 25.265625 53.625 
Q 29.59375 56 35.59375 56 
Q 45.5625 56 51.78125 48.09375 
Q 58.015625 40.1875 58.015625 27.296875 
Q 58.015625 14.40625 51.78125 6.484375 
Q 45.5625 -1.421875 35.59375 -1.421875 
Q 29.59375 -1.421875 25.265625 0.953125 
Q 20.953125 3.328125 18.109375 8.203125 
L 18.109375 0 
L 9.078125 0 
L 9.078125 75.984375 
L 18.109375 75.984375 
z
" id="DejaVuSans-62"/>
      <path d="M 9.421875 54.6875 
L 18.40625 54.6875 
L 18.40625 -0.984375 
Q 18.40625 -11.421875 14.421875 -16.109375 
Q 10.453125 -20.796875 1.609375 -20.796875 
L -1.8125 -20.796875 
L -1.8125 -13.1875 
L 0.59375 -13.1875 
Q 5.71875 -13.1875 7.5625 -10.8125 
Q 9.421875 -8.453125 9.421875 -0.984375 
z
M 9.421875 75.984375 
L 18.40625 75.984375 
L 18.40625 64.59375 
L 9.421875 64.59375 
z
" id="DejaVuSans-6a"/>
      <path d="M 56.203125 29.59375 
L 56.203125 25.203125 
L 14.890625 25.203125 
Q 15.484375 15.921875 20.484375 11.0625 
Q 25.484375 6.203125 34.421875 6.203125 
Q 39.59375 6.203125 44.453125 7.46875 
Q 49.3125 8.734375 54.109375 11.28125 
L 54.109375 2.78125 
Q 49.265625 0.734375 44.1875 -0.34375 
Q 39.109375 -1.421875 33.890625 -1.421875 
Q 20.796875 -1.421875 13.15625 6.1875 
Q 5.515625 13.8125 5.515625 26.8125 
Q 5.515625 40.234375 12.765625 48.109375 
Q 20.015625 56 32.328125 56 
Q 43.359375 56 49.78125 48.890625 
Q 56.203125 41.796875 56.203125 29.59375 
z
M 47.21875 32.234375 
Q 47.125 39.59375 43.09375 43.984375 
Q 39.0625 48.390625 32.421875 48.390625 
Q 24.90625 48.390625 20.390625 44.140625 
Q 15.875 39.890625 15.1875 32.171875 
z
" id="DejaVuSans-65"/>
      <path d="M 48.78125 52.59375 
L 48.78125 44.1875 
Q 44.96875 46.296875 41.140625 47.34375 
Q 37.3125 48.390625 33.40625 48.390625 
Q 24.65625 48.390625 19.8125 42.84375 
Q 14.984375 37.3125 14.984375 27.296875 
Q 14.984375 17.28125 19.8125 11.734375 
Q 24.65625 6.203125 33.40625 6.203125 
Q 37.3125 6.203125 41.140625 7.25 
Q 44.96875 8.296875 48.78125 10.40625 
L 48.78125 2.09375 
Q 45.015625 0.34375 40.984375 -0.53125 
Q 36.96875 -1.421875 32.421875 -1.421875 
Q 20.0625 -1.421875 12.78125 6.34375 
Q 5.515625 14.109375 5.515625 27.296875 
Q 5.515625 40.671875 12.859375 48.328125 
Q 20.21875 56 33.015625 56 
Q 37.15625 56 41.109375 55.140625 
Q 45.0625 54.296875 48.78125 52.59375 
z
" id="DejaVuSans-63"/>
      <path d="M 44.28125 53.078125 
L 44.28125 44.578125 
Q 40.484375 46.53125 36.375 47.5 
Q 32.28125 48.484375 27.875 48.484375 
Q 21.1875 48.484375 17.84375 46.4375 
Q 14.5 44.390625 14.5 40.28125 
Q 14.5 37.15625 16.890625 35.375 
Q 19.28125 33.59375 26.515625 31.984375 
L 29.59375 31.296875 
Q 39.15625 29.25 43.1875 25.515625 
Q 47.21875 21.78125 47.21875 15.09375 
Q 47.21875 7.46875 41.1875 3.015625 
Q 35.15625 -1.421875 24.609375 -1.421875 
Q 20.21875 -1.421875 15.453125 -0.5625 
Q 10.6875 0.296875 5.421875 2 
L 5.421875 11.28125 
Q 10.40625 8.6875 15.234375 7.390625 
Q 20.0625 6.109375 24.8125 6.109375 
Q 31.15625 6.109375 34.5625 8.28125 
Q 37.984375 10.453125 37.984375 14.40625 
Q 37.984375 18.0625 35.515625 20.015625 
Q 33.0625 21.96875 24.703125 23.78125 
L 21.578125 24.515625 
Q 13.234375 26.265625 9.515625 29.90625 
Q 5.8125 33.546875 5.8125 39.890625 
Q 5.8125 47.609375 11.28125 51.796875 
Q 16.75 56 26.8125 56 
Q 31.78125 56 36.171875 55.265625 
Q 40.578125 54.546875 44.28125 53.078125 
z
" id="DejaVuSans-73"/>
      <path d="M 9.421875 54.6875 
L 18.40625 54.6875 
L 18.40625 0 
L 9.421875 0 
z
M 9.421875 75.984375 
L 18.40625 75.984375 
L 18.40625 64.59375 
L 9.421875 64.59375 
z
" id="DejaVuSans-69"/>
      <path d="M 34.28125 27.484375 
Q 23.390625 27.484375 19.1875 25 
Q 14.984375 22.515625 14.984375 16.5 
Q 14.984375 11.71875 18.140625 8.90625 
Q 21.296875 6.109375 26.703125 6.109375 
Q 34.1875 6.109375 38.703125 11.40625 
Q 43.21875 16.703125 43.21875 25.484375 
L 43.21875 27.484375 
z
M 52.203125 31.203125 
L 52.203125 0 
L 43.21875 0 
L 43.21875 8.296875 
Q 40.140625 3.328125 35.546875 0.953125 
Q 30.953125 -1.421875 24.3125 -1.421875 
Q 15.921875 -1.421875 10.953125 3.296875 
Q 6 8.015625 6 15.921875 
Q 6 25.140625 12.171875 29.828125 
Q 18.359375 34.515625 30.609375 34.515625 
L 43.21875 34.515625 
L 43.21875 35.40625 
Q 43.21875 41.609375 39.140625 45 
Q 35.0625 48.390625 27.6875 48.390625 
Q 23 48.390625 18.546875 47.265625 
Q 14.109375 46.140625 10.015625 43.890625 
L 10.015625 52.203125 
Q 14.9375 54.109375 19.578125 55.046875 
Q 24.21875 56 28.609375 56 
Q 40.484375 56 46.34375 49.84375 
Q 52.203125 43.703125 52.203125 31.203125 
z
" id="DejaVuSans-61"/>
      <path d="M 9.421875 75.984375 
L 18.40625 75.984375 
L 18.40625 0 
L 9.421875 0 
z
" id="DejaVuSans-6c"/>
     </defs>
     <g transform="translate(174.410781 316.706687)scale(0.1 -0.1)">
      <use xlink:href="#DejaVuSans-41"/>
      <use x="68.408203" xlink:href="#DejaVuSans-6d"/>
      <use x="165.820312" xlink:href="#DejaVuSans-6f"/>
      <use x="227.001953" xlink:href="#DejaVuSans-75"/>
      <use x="290.380859" xlink:href="#DejaVuSans-6e"/>
      <use x="353.759766" xlink:href="#DejaVuSans-74"/>
      <use x="392.96875" xlink:href="#DejaVuSans-20"/>
      <use x="424.755859" xlink:href="#DejaVuSans-6f"/>
      <use x="485.9375" xlink:href="#DejaVuSans-66"/>
      <use x="521.142578" xlink:href="#DejaVuSans-20"/>
      <use x="552.929688" xlink:href="#DejaVuSans-6f"/>
      <use x="614.111328" xlink:href="#DejaVuSans-62"/>
      <use x="677.587891" xlink:href="#DejaVuSans-6a"/>
      <use x="705.371094" xlink:href="#DejaVuSans-65"/>
      <use x="766.894531" xlink:href="#DejaVuSans-63"/>
      <use x="821.875" xlink:href="#DejaVuSans-74"/>
      <use x="861.083984" xlink:href="#DejaVuSans-73"/>
      <use x="913.183594" xlink:href="#DejaVuSans-20"/>
      <use x="944.970703" xlink:href="#DejaVuSans-69"/>
      <use x="972.753906" xlink:href="#DejaVuSans-6e"/>
      <use x="1036.132812" xlink:href="#DejaVuSans-20"/>
      <use x="1067.919922" xlink:href="#DejaVuSans-74"/>
      <use x="1107.128906" xlink:href="#DejaVuSans-61"/>
      <use x="1168.408203" xlink:href="#DejaVuSans-62"/>
      <use x="1231.884766" xlink:href="#DejaVuSans-6c"/>
      <use x="1259.667969" xlink:href="#DejaVuSans-65"/>
     </g>
    </g>
   </g>
   <g id="matplotlib.axis_2">
    <g id="ytick_1">
     <g id="line2d_10">
      <defs>
       <path d="M 0 0 
L -3.5 0 
" id="md0f2376bf6" style="stroke:#000000;stroke-width:0.8;"/>
      </defs>
      <g>
       <use style="stroke:#000000;stroke-width:0.8;" x="61.909375" xlink:href="#md0f2376bf6" y="288.430125"/>
      </g>
     </g>
     <g id="text_11">
      <!-- 0 -->
      <g transform="translate(48.546875 292.229344)scale(0.1 -0.1)">
       <use xlink:href="#DejaVuSans-30"/>
      </g>
     </g>
    </g>
    <g id="ytick_2">
     <g id="line2d_11">
      <g>
       <use style="stroke:#000000;stroke-width:0.8;" x="61.909375" xlink:href="#md0f2376bf6" y="234.59627"/>
      </g>
     </g>
     <g id="text_12">
      <!-- 500 µs -->
      <defs>
       <path d="M 8.5 -20.796875 
L 8.5 54.6875 
L 17.484375 54.6875 
L 17.484375 20.703125 
Q 17.484375 13.625 20.84375 10 
Q 24.21875 6.390625 30.8125 6.390625 
Q 38.03125 6.390625 41.671875 10.484375 
Q 45.3125 14.59375 45.3125 22.796875 
L 45.3125 54.6875 
L 54.296875 54.6875 
L 54.296875 12.59375 
Q 54.296875 9.671875 55.140625 8.28125 
Q 56 6.890625 57.8125 6.890625 
Q 58.25 6.890625 59.03125 7.15625 
Q 59.8125 7.421875 61.1875 8.015625 
L 61.1875 0.78125 
Q 59.1875 -0.34375 57.390625 -0.875 
Q 55.609375 -1.421875 53.90625 -1.421875 
Q 50.53125 -1.421875 48.53125 0.484375 
Q 46.53125 2.390625 45.796875 6.296875 
Q 43.359375 2.4375 39.8125 0.5 
Q 36.28125 -1.421875 31.5 -1.421875 
Q 26.515625 -1.421875 23.015625 0.484375 
Q 19.53125 2.390625 17.484375 6.203125 
L 17.484375 -20.796875 
z
" id="DejaVuSans-b5"/>
      </defs>
      <g transform="translate(21.071875 238.395489)scale(0.1 -0.1)">
       <use xlink:href="#DejaVuSans-35"/>
       <use x="63.623047" xlink:href="#DejaVuSans-30"/>
       <use x="127.246094" xlink:href="#DejaVuSans-30"/>
       <use x="190.869141" xlink:href="#DejaVuSans-20"/>
       <use x="222.65625" xlink:href="#DejaVuSans-b5"/>
       <use x="286.279297" xlink:href="#DejaVuSans-73"/>
      </g>
     </g>
    </g>
    <g id="ytick_3">
     <g id="line2d_12">
      <g>
       <use style="stroke:#000000;stroke-width:0.8;" x="61.909375" xlink:href="#md0f2376bf6" y="180.762415"/>
      </g>
     </g>
     <g id="text_13">
      <!-- 1 ms -->
      <g transform="translate(30.41875 184.561634)scale(0.1 -0.1)">
       <use xlink:href="#DejaVuSans-31"/>
       <use x="63.623047" xlink:href="#DejaVuSans-20"/>
       <use x="95.410156" xlink:href="#DejaVuSans-6d"/>
       <use x="192.822266" xlink:href="#DejaVuSans-73"/>
      </g>
     </g>
    </g>
    <g id="ytick_4">
     <g id="line2d_13">
      <g>
       <use style="stroke:#000000;stroke-width:0.8;" x="61.909375" xlink:href="#md0f2376bf6" y="126.92856"/>
      </g>
     </g>
     <g id="text_14">
      <!-- 1.5 ms -->
      <g transform="translate(20.878125 130.727779)scale(0.1 -0.1)">
       <use xlink:href="#DejaVuSans-31"/>
       <use x="63.623047" xlink:href="#DejaVuSans-2e"/>
       <use x="95.410156" xlink:href="#DejaVuSans-35"/>
       <use x="159.033203" xlink:href="#DejaVuSans-20"/>
       <use x="190.820312" xlink:href="#DejaVuSans-6d"/>
       <use x="288.232422" xlink:href="#DejaVuSans-73"/>
      </g>
     </g>
    </g>
    <g id="ytick_5">
     <g id="line2d_14">
      <g>
       <use style="stroke:#000000;stroke-width:0.8;" x="61.909375" xlink:href="#md0f2376bf6" y="73.094705"/>
      </g>
     </g>
     <g id="text_15">
      <!-- 2 ms -->
      <g transform="translate(30.41875 76.893924)scale(0.1 -0.1)">
       <use xlink:href="#DejaVuSans-32"/>
       <use x="63.623047" xlink:href="#DejaVuSans-20"/>
       <use x="95.410156" xlink:href="#DejaVuSans-6d"/>
       <use x="192.822266" xlink:href="#DejaVuSans-73"/>
      </g>
     </g>
    </g>
    <g id="text_16">
     <!-- Read latency (s) -->
     <defs>
      <path d="M 44.390625 34.1875 
Q 47.5625 33.109375 50.5625 29.59375 
Q 53.5625 26.078125 56.59375 19.921875 
L 66.609375 0 
L 56 0 
L 46.6875 18.703125 
Q 43.0625 26.03125 39.671875 28.421875 
Q 36.28125 30.8125 30.421875 30.8125 
L 19.671875 30.8125 
L 19.671875 0 
L 9.8125 0 
L 9.8125 72.90625 
L 32.078125 72.90625 
Q 44.578125 72.90625 50.734375 67.671875 
Q 56.890625 62.453125 56.890625 51.90625 
Q 56.890625 45.015625 53.6875 40.46875 
Q 50.484375 35.9375 44.390625 34.1875 
z
M 19.671875 64.796875 
L 19.671875 38.921875 
L 32.078125 38.921875 
Q 39.203125 38.921875 42.84375 42.21875 
Q 46.484375 45.515625 46.484375 51.90625 
Q 46.484375 58.296875 42.84375 61.546875 
Q 39.203125 64.796875 32.078125 64.796875 
z
" id="DejaVuSans-52"/>
      <path d="M 45.40625 46.390625 
L 45.40625 75.984375 
L 54.390625 75.984375 
L 54.390625 0 
L 45.40625 0 
L 45.40625 8.203125 
Q 42.578125 3.328125 38.25 0.953125 
Q 33.9375 -1.421875 27.875 -1.421875 
Q 17.96875 -1.421875 11.734375 6.484375 
Q 5.515625 14.40625 5.515625 27.296875 
Q 5.515625 40.1875 11.734375 48.09375 
Q 17.96875 56 27.875 56 
Q 33.9375 56 38.25 53.625 
Q 42.578125 51.265625 45.40625 46.390625 
z
M 14.796875 27.296875 
Q 14.796875 17.390625 18.875 11.75 
Q 22.953125 6.109375 30.078125 6.109375 
Q 37.203125 6.109375 41.296875 11.75 
Q 45.40625 17.390625 45.40625 27.296875 
Q 45.40625 37.203125 41.296875 42.84375 
Q 37.203125 48.484375 30.078125 48.484375 
Q 22.953125 48.484375 18.875 42.84375 
Q 14.796875 37.203125 14.796875 27.296875 
z
" id="DejaVuSans-64"/>
      <path d="M 32.171875 -5.078125 
Q 28.375 -14.84375 24.75 -17.8125 
Q 21.140625 -20.796875 15.09375 -20.796875 
L 7.90625 -20.796875 
L 7.90625 -13.28125 
L 13.1875 -13.28125 
Q 16.890625 -13.28125 18.9375 -11.515625 
Q 21 -9.765625 23.484375 -3.21875 
L 25.09375 0.875 
L 2.984375 54.6875 
L 12.5 54.6875 
L 29.59375 11.921875 
L 46.6875 54.6875 
L 56.203125 54.6875 
z
" id="DejaVuSans-79"/>
      <path d="M 31 75.875 
Q 24.46875 64.65625 21.28125 53.65625 
Q 18.109375 42.671875 18.109375 31.390625 
Q 18.109375 20.125 21.3125 9.0625 
Q 24.515625 -2 31 -13.1875 
L 23.1875 -13.1875 
Q 15.875 -1.703125 12.234375 9.375 
Q 8.59375 20.453125 8.59375 31.390625 
Q 8.59375 42.28125 12.203125 53.3125 
Q 15.828125 64.359375 23.1875 75.875 
z
" id="DejaVuSans-28"/>
      <path d="M 8.015625 75.875 
L 15.828125 75.875 
Q 23.140625 64.359375 26.78125 53.3125 
Q 30.421875 42.28125 30.421875 31.390625 
Q 30.421875 20.453125 26.78125 9.375 
Q 23.140625 -1.703125 15.828125 -13.1875 
L 8.015625 -13.1875 
Q 14.5 -2 17.703125 9.0625 
Q 20.90625 20.125 20.90625 31.390625 
Q 20.90625 42.671875 17.703125 53.65625 
Q 14.5 64.65625 8.015625 75.875 
z
" id="DejaVuSans-29"/>
     </defs>
     <g transform="translate(14.798438 196.211625)rotate(-90)scale(0.1 -0.1)">
      <use xlink:href="#DejaVuSans-52"/>
      <use x="69.419922" xlink:href="#DejaVuSans-65"/>
      <use x="130.943359" xlink:href="#DejaVuSans-61"/>
      <use x="192.222656" xlink:href="#DejaVuSans-64"/>
      <use x="255.699219" xlink:href="#DejaVuSans-20"/>
      <use x="287.486328" xlink:href="#DejaVuSans-6c"/>
      <use x="315.269531" xlink:href="#DejaVuSans-61"/>
      <use x="376.548828" xlink:href="#DejaVuSans-74"/>
      <use x="415.757812" xlink:href="#DejaVuSans-65"/>
      <use x="477.28125" xlink:href="#DejaVuSans-6e"/>
      <use x="540.660156" xlink:href="#DejaVuSans-63"/>
      <use x="595.640625" xlink:href="#DejaVuSans-79"/>
      <use x="654.820312" xlink:href="#DejaVuSans-20"/>
      <use x="686.607422" xlink:href="#DejaVuSans-28"/>
      <use x="725.621094" xlink:href="#DejaVuSans-73"/>
      <use x="777.720703" xlink:href="#DejaVuSans-29"/>
     </g>
    </g>
   </g>
   <g id="line2d_15">
    <path clip-path="url(#p8fca6e6735)" d="M 147.264561 225.633055 
L 147.700046 225.44178 
L 148.135532 225.426115 
L 148.571018 225.601592 
L 149.006503 225.573684 
L 150.31296 225.089772 
L 153.796845 224.952471 
L 154.232331 224.815959 
L 155.103302 224.900209 
L 155.538788 225.080952 
L 155.974273 224.988409 
L 156.845245 225.322777 
L 157.28073 224.896787 
L 158.587187 224.962871 
L 159.022673 225.068447 
L 160.32913 224.828202 
L 160.764616 224.27452 
L 161.635587 224.219099 
L 162.071072 224.009527 
L 162.506558 223.971219 
L 162.942044 224.11247 
L 163.813015 224.77752 
L 164.248501 224.691032 
L 165.554958 224.865061 
L 166.425929 224.738818 
L 166.861415 224.941676 
L 167.2969 224.964714 
L 167.732386 224.83123 
L 168.603357 224.806218 
L 169.038843 224.635216 
L 169.474328 224.719466 
L 169.909814 225.011446 
L 171.216271 224.918244 
L 171.651757 224.239899 
L 172.087242 224.051652 
L 172.522728 224.137087 
L 172.958213 224.091802 
L 173.393699 224.506866 
L 173.829185 224.49436 
L 174.26467 225.021187 
L 174.700156 224.60981 
L 175.135642 224.542804 
L 175.571127 225.000651 
L 176.006613 225.257483 
L 176.442099 225.270515 
L 176.877584 224.788973 
L 177.31307 224.541356 
L 177.748556 224.552414 
L 178.184041 224.890995 
L 178.619527 224.771201 
L 179.055012 224.76949 
L 180.361469 224.410768 
L 181.667926 224.349424 
L 182.103412 224.583745 
L 182.538898 225.031455 
L 184.28084 224.830966 
L 185.151811 224.686425 
L 185.587297 224.865456 
L 186.458268 224.901263 
L 186.893754 224.800426 
L 187.764725 225.387018 
L 188.200211 225.341996 
L 188.635697 225.443887 
L 189.071182 225.386491 
L 189.506668 225.666623 
L 191.24861 225.302899 
L 191.684096 225.824987 
L 192.119582 226.10841 
L 192.555067 226.102749 
L 192.990553 226.348786 
L 193.426039 226.836384 
L 193.861524 226.848759 
L 194.732496 227.343729 
L 196.038952 227.317927 
L 196.909924 227.435087 
L 197.345409 227.471815 
L 198.651866 227.277118 
L 199.087352 226.917738 
L 199.522838 226.93393 
L 199.958323 227.319902 
L 200.393809 227.358604 
L 200.829295 227.545271 
L 201.26478 227.473658 
L 201.700266 227.218801 
L 202.135751 227.510518 
L 203.006723 227.351495 
L 203.442208 227.492614 
L 203.877694 227.361105 
L 204.748665 227.829352 
L 205.619637 227.889512 
L 206.055122 227.785779 
L 207.361579 228.622752 
L 208.23255 228.555483 
L 208.668036 228.584181 
L 209.539007 228.477157 
L 210.409979 228.388958 
L 210.845464 228.252972 
L 211.28095 228.24876 
L 211.716436 228.57365 
L 212.151921 228.482554 
L 212.587407 228.962649 
L 213.022892 228.811788 
L 213.893864 228.774797 
L 214.329349 228.778088 
L 214.764835 228.975155 
L 216.942263 229.155108 
L 218.24872 229.340458 
L 218.684206 229.897826 
L 219.555177 229.686147 
L 219.990663 229.949034 
L 220.426148 229.898089 
L 220.861634 229.610717 
L 221.29712 229.545292 
L 221.732605 229.759603 
L 222.168091 229.737487 
L 222.603577 230.147944 
L 223.910033 230.067511 
L 224.345519 229.772635 
L 224.781005 229.912306 
L 225.651976 229.769476 
L 226.087462 229.622828 
L 226.522947 230.03131 
L 226.958433 229.878606 
L 227.393919 229.863468 
L 227.829404 229.628094 
L 228.26489 229.579913 
L 228.700376 229.358098 
L 229.571347 229.250679 
L 230.006832 229.471309 
L 230.442318 228.778351 
L 231.313289 228.978051 
L 231.748775 228.528892 
L 232.184261 228.241388 
L 232.619746 228.43569 
L 233.055232 228.413179 
L 233.490718 227.93506 
L 235.668146 228.059987 
L 236.539117 228.066701 
L 236.974603 227.477739 
L 238.28106 227.05267 
L 240.023002 226.953018 
L 240.458488 226.919976 
L 240.893974 227.048195 
L 241.764945 226.661565 
L 242.635916 227.637288 
L 243.506887 227.555275 
L 243.942373 227.670988 
L 245.24883 227.435482 
L 245.684316 227.881218 
L 246.990772 227.769455 
L 247.426258 227.251185 
L 247.861744 227.266455 
L 248.297229 226.84968 
L 248.732715 226.997908 
L 249.168201 226.600747 
L 250.474658 226.569811 
L 250.910143 226.150535 
L 252.2166 226.401706 
L 253.087571 226.497146 
L 253.523057 226.646163 
L 253.958543 226.60417 
L 254.394028 226.200164 
L 254.829514 225.99849 
L 255.265 226.137503 
L 255.700485 225.809322 
L 256.135971 225.828541 
L 256.571457 226.341414 
L 257.442428 226.48227 
L 258.313399 225.91345 
L 259.18437 225.631212 
L 259.619856 226.069049 
L 260.926313 226.027056 
L 261.361799 225.866454 
L 261.797284 225.868034 
L 262.23277 225.599223 
L 262.668256 225.565128 
L 264.845684 226.171466 
L 265.281169 226.019026 
L 266.587626 225.929378 
L 267.894083 225.68966 
L 270.071511 225.827883 
L 271.377968 225.801423 
L 272.24894 225.965448 
L 272.684425 226.038114 
L 274.426368 225.629632 
L 274.861854 225.615283 
L 275.297339 225.172443 
L 275.732825 225.425852 
L 276.16831 225.338047 
L 276.603796 225.061206 
L 280.523167 224.846763 
L 281.394138 224.954972 
L 282.265109 224.819908 
L 283.136081 224.998809 
L 283.571566 224.96603 
L 284.007052 225.157962 
L 285.313509 225.066472 
L 286.18448 224.835837 
L 286.619966 225.075029 
L 287.055451 224.989725 
L 287.490937 224.468164 
L 287.926423 224.557285 
L 288.361908 224.143406 
L 288.797394 224.460924 
L 289.23288 224.480538 
L 289.668365 224.75501 
L 290.974822 224.596251 
L 291.410308 224.582033 
L 291.845794 224.211991 
L 293.15225 224.116288 
L 293.587736 223.861957 
L 294.023222 223.898159 
L 294.458707 223.728868 
L 295.765164 223.636193 
L 297.507107 223.519296 
L 297.942592 223.638958 
L 300.120021 223.562211 
L 300.555506 223.322624 
L 300.990992 223.34711 
L 301.426478 223.241797 
L 302.297449 223.342107 
L 302.732935 222.959427 
L 304.039391 223.25404 
L 304.474877 222.84253 
L 305.345848 222.795797 
L 305.781334 223.060264 
L 307.523277 223.241797 
L 307.958762 222.94679 
L 308.829734 223.049075 
L 309.265219 223.303931 
L 310.13619 223.339869 
L 310.571676 223.434651 
L 311.007162 222.844768 
L 311.442647 222.744721 
L 311.878133 223.030513 
L 312.313619 222.957716 
L 312.749104 221.914198 
L 313.18459 221.955007 
L 313.620076 222.428256 
L 314.055561 221.976728 
L 314.491047 221.841006 
L 314.926532 222.059135 
L 315.362018 222.706808 
L 315.797504 222.5337 
L 316.232989 222.619662 
L 316.668475 223.075008 
L 317.103961 223.353428 
L 317.974932 223.151096 
L 318.410418 223.599202 
L 319.281389 223.471115 
L 319.716875 223.775996 
L 320.587846 223.799428 
L 321.023331 223.44097 
L 321.458817 223.300509 
L 321.894303 223.926198 
L 322.329788 224.034144 
L 323.20076 223.618817 
L 325.813674 223.70412 
L 326.249159 223.972141 
L 327.12013 224.027693 
L 328.426587 223.894473 
L 330.16853 224.182766 
L 331.039501 223.957397 
L 331.910472 224.151173 
L 332.345958 224.709725 
L 332.781444 224.689452 
L 333.216929 225.024479 
L 333.652415 225.053703 
L 334.087901 225.566708 
L 334.523386 225.443755 
L 335.394358 225.430196 
L 335.829843 225.943859 
L 337.571786 225.930168 
L 338.007271 226.064047 
L 338.442757 226.001254 
L 339.749214 226.50149 
L 341.491157 226.776488 
L 341.926642 226.966577 
L 342.362128 226.768589 
L 342.797614 227.138764 
L 343.668585 227.399281 
L 346.281499 227.690471 
L 347.15247 228.705027 
L 348.023441 228.772428 
L 349.329898 228.469522 
L 350.200869 228.692127 
L 350.636355 228.43411 
L 351.507326 228.476499 
L 352.378298 228.68199 
L 353.249269 228.547322 
L 355.862183 228.614458 
L 356.297668 228.286541 
L 358.039611 228.208873 
L 359.781554 228.674882 
L 360.217039 229.123119 
L 360.652525 229.039527 
L 361.08801 229.076913 
L 361.523496 229.421022 
L 362.394467 229.461436 
L 363.265439 229.352043 
L 364.13641 229.459198 
L 364.571896 229.324398 
L 366.749324 229.206316 
L 367.184809 228.817186 
L 368.055781 228.660006 
L 368.491266 228.663824 
L 368.926752 228.475577 
L 369.797723 228.460965 
L 370.233209 228.596292 
L 371.539666 228.470443 
L 371.975151 228.502169 
L 372.410637 229.140759 
L 372.846123 229.114036 
L 373.281608 229.433528 
L 373.717094 229.19618 
L 374.588065 229.136546 
L 375.023551 229.086523 
L 375.459037 229.215926 
L 376.330008 229.216847 
L 376.765494 229.579255 
L 377.200979 229.605583 
L 378.07195 229.400618 
L 378.507436 229.553453 
L 379.813893 229.594262 
L 380.249379 229.359283 
L 380.684864 229.556481 
L 382.426807 229.618616 
L 382.862293 229.664953 
L 383.297778 229.466175 
L 385.039721 229.55964 
L 385.475206 229.6406 
L 385.910692 229.50185 
L 386.346178 229.565433 
L 386.781663 229.351648 
L 387.652635 229.51146 
L 388.523606 229.540421 
L 388.959091 229.498032 
L 389.394577 229.785931 
L 390.265548 229.808442 
L 390.701034 229.788827 
L 392.007491 229.246467 
L 392.878462 229.468808 
L 394.184919 229.357966 
L 395.491376 229.278587 
L 395.926862 230.028019 
L 397.233319 230.11477 
L 397.668804 231.359304 
L 398.10429 231.283873 
L 398.539776 230.996501 
L 398.975261 231.356934 
L 399.410747 231.505293 
L 400.281718 231.543996 
L 400.717204 231.664579 
L 401.152689 231.5644 
L 402.023661 231.573483 
L 402.023661 231.573483 
" style="fill:none;opacity:0.8;stroke:#1f77b4;stroke-linecap:square;stroke-width:1.5;"/>
   </g>
   <g id="line2d_16">
    <path clip-path="url(#p8fca6e6735)" d="M 147.264561 138.371438 
L 147.700046 138.141593 
L 148.135532 138.395923 
L 148.571018 138.150018 
L 149.006503 138.201753 
L 149.441989 137.764441 
L 149.877475 137.914512 
L 150.31296 137.305936 
L 150.748446 137.298696 
L 151.619417 136.936552 
L 152.054903 136.559927 
L 152.490388 136.33074 
L 152.925874 135.962145 
L 153.36136 136.221083 
L 153.796845 135.864599 
L 154.667817 135.602107 
L 155.103302 136.447505 
L 155.538788 136.467646 
L 156.845245 135.597368 
L 157.716216 132.368348 
L 158.151702 131.879697 
L 158.587187 131.602066 
L 159.022673 132.872796 
L 159.458159 131.413424 
L 159.893644 132.221568 
L 160.32913 132.117177 
L 160.764616 132.19287 
L 161.200101 129.346267 
L 161.635587 129.19172 
L 162.071072 128.838396 
L 162.506558 127.564638 
L 162.942044 127.637962 
L 163.377529 127.443529 
L 163.813015 127.460905 
L 164.248501 126.852987 
L 164.683986 126.635517 
L 165.119472 126.592207 
L 165.554958 125.027523 
L 166.425929 124.559407 
L 166.861415 124.809657 
L 168.167871 124.086422 
L 168.603357 122.971686 
L 169.038843 123.777724 
L 169.474328 123.97321 
L 169.909814 123.330803 
L 170.780785 122.791996 
L 171.651757 122.837281 
L 172.087242 122.813059 
L 172.522728 122.073105 
L 172.958213 121.916716 
L 173.393699 122.826355 
L 174.26467 122.758954 
L 174.700156 122.954046 
L 175.135642 121.301294 
L 175.571127 121.361981 
L 176.006613 121.645404 
L 176.442099 121.479668 
L 177.31307 120.600306 
L 177.748556 119.514795 
L 178.184041 119.456742 
L 178.619527 119.514137 
L 179.055012 117.605475 
L 179.490498 117.219899 
L 179.925984 116.59987 
L 180.361469 116.338168 
L 180.796955 115.640339 
L 181.232441 115.761054 
L 181.667926 115.391406 
L 182.103412 113.455758 
L 182.538898 112.26704 
L 182.974383 112.434751 
L 183.845355 112.181474 
L 184.28084 112.250717 
L 184.716326 112.671968 
L 185.151811 111.598041 
L 185.587297 111.392418 
L 186.022783 111.857242 
L 187.32924 111.11663 
L 187.764725 109.841556 
L 188.635697 110.520297 
L 189.071182 110.550311 
L 189.506668 111.476405 
L 189.942153 111.113734 
L 190.377639 111.417824 
L 190.813125 108.556609 
L 191.24861 108.569246 
L 191.684096 108.402589 
L 192.119582 108.419834 
L 192.555067 107.767685 
L 192.990553 108.384027 
L 193.426039 108.236721 
L 193.861524 107.889584 
L 194.29701 105.89654 
L 194.732496 106.526179 
L 195.167981 106.411388 
L 195.603467 106.591736 
L 196.038952 107.573383 
L 196.474438 106.821581 
L 196.909924 107.869575 
L 197.345409 108.255678 
L 198.216381 108.237511 
L 199.087352 107.754652 
L 199.522838 104.893042 
L 199.958323 104.936878 
L 200.393809 104.76298 
L 200.829295 104.152035 
L 201.26478 104.141372 
L 201.700266 103.982613 
L 202.571237 103.115099 
L 203.006723 103.312297 
L 203.442208 103.128526 
L 203.877694 103.215409 
L 204.31318 102.989909 
L 204.748665 101.331496 
L 205.184151 100.587067 
L 205.619637 100.454899 
L 206.055122 99.648203 
L 206.490608 97.588681 
L 206.926093 97.510881 
L 207.361579 97.289856 
L 207.797065 96.753419 
L 208.23255 96.634152 
L 208.668036 94.914132 
L 209.103522 94.948754 
L 209.539007 94.722068 
L 209.974493 94.267775 
L 210.409979 92.499969 
L 210.845464 92.345554 
L 211.28095 92.326071 
L 212.587407 91.680241 
L 213.022892 90.872755 
L 213.893864 90.199017 
L 214.329349 89.048212 
L 214.764835 88.625776 
L 215.200321 88.99911 
L 215.635806 89.541602 
L 216.506778 91.800561 
L 216.942263 91.655492 
L 217.377749 92.408347 
L 218.24872 88.773477 
L 219.555177 88.262842 
L 219.990663 88.338931 
L 220.426148 89.011221 
L 221.29712 87.734304 
L 221.732605 87.921629 
L 222.168091 87.682832 
L 222.603577 89.914146 
L 223.039062 89.707075 
L 223.474548 89.827395 
L 223.910033 90.65976 
L 224.345519 90.78653 
L 224.781005 90.319732 
L 225.21649 90.252068 
L 225.651976 88.97107 
L 226.087462 87.034106 
L 226.522947 86.888116 
L 226.958433 87.235385 
L 228.26489 86.948276 
L 228.700376 87.255394 
L 229.135861 88.379871 
L 229.571347 87.140603 
L 230.006832 87.771821 
L 230.442318 87.979288 
L 230.877804 86.912206 
L 231.313289 86.890354 
L 232.619746 86.413024 
L 233.055232 85.794048 
L 233.490718 85.57118 
L 233.926203 85.154273 
L 234.361689 85.065415 
L 234.797175 83.860243 
L 235.23266 84.331254 
L 235.668146 82.671262 
L 236.539117 81.270602 
L 239.152031 80.946634 
L 239.587517 80.786558 
L 240.023002 79.759759 
L 240.458488 79.464752 
L 240.893974 79.452114 
L 241.329459 78.96241 
L 241.764945 78.649763 
L 242.20043 79.626933 
L 242.635916 80.984283 
L 243.071402 80.981387 
L 243.506887 80.634118 
L 243.942373 80.556582 
L 244.377859 79.918518 
L 244.813344 78.228512 
L 245.24883 77.507646 
L 245.684316 77.234228 
L 246.119801 79.341404 
L 246.555287 79.34588 
L 246.990772 78.640548 
L 247.426258 79.556637 
L 248.297229 79.061272 
L 249.168201 78.702419 
L 249.603686 77.789358 
L 250.039172 74.396313 
L 250.474658 75.690475 
L 250.910143 75.514207 
L 251.345629 75.512364 
L 252.2166 74.818222 
L 253.087571 74.151197 
L 253.523057 74.809533 
L 253.958543 74.728048 
L 254.394028 73.64201 
L 254.829514 75.086111 
L 255.265 75.220648 
L 255.700485 74.816774 
L 256.135971 75.042275 
L 256.571457 74.939331 
L 257.006942 74.610756 
L 257.442428 75.007521 
L 259.619856 74.176472 
L 260.055342 75.475242 
L 260.490827 75.354395 
L 260.926313 73.852767 
L 261.797284 73.477722 
L 262.668256 73.973613 
L 263.539227 73.634375 
L 263.974712 75.153116 
L 264.410198 74.476087 
L 264.845684 74.016528 
L 265.281169 72.632324 
L 265.716655 72.888761 
L 266.152141 72.719997 
L 266.587626 72.862959 
L 267.023112 75.100592 
L 267.458598 76.349469 
L 267.894083 75.777752 
L 268.765055 75.330305 
L 269.20054 75.673888 
L 269.636026 75.548171 
L 270.071511 76.306686 
L 271.813454 75.554489 
L 272.24894 75.613465 
L 272.684425 76.36961 
L 273.119911 76.374612 
L 273.555397 76.692789 
L 273.990882 77.44222 
L 274.426368 76.843518 
L 274.861854 76.852206 
L 275.297339 76.591952 
L 275.732825 78.359495 
L 276.16831 78.338695 
L 276.603796 77.212902 
L 277.039282 76.838252 
L 277.474767 77.148793 
L 277.910253 77.31545 
L 278.345739 77.001882 
L 279.21671 79.810967 
L 279.652196 80.006191 
L 280.087681 79.700916 
L 280.523167 79.543473 
L 280.958652 79.240962 
L 281.394138 78.542344 
L 281.829624 78.310524 
L 282.265109 77.837933 
L 283.136081 77.312686 
L 283.571566 76.251265 
L 284.007052 76.170701 
L 284.442538 78.622908 
L 284.878023 76.881825 
L 285.313509 76.46268 
L 285.748995 75.377169 
L 286.18448 75.384014 
L 286.619966 72.615079 
L 287.055451 72.992494 
L 287.926423 73.026062 
L 288.361908 72.458426 
L 288.797394 70.488815 
L 289.23288 70.426022 
L 289.668365 71.88513 
L 290.103851 71.844848 
L 290.539337 71.671345 
L 290.974822 72.361407 
L 291.410308 73.561446 
L 291.845794 73.567106 
L 292.281279 73.352268 
L 292.716765 72.612183 
L 293.15225 72.47159 
L 293.587736 73.622527 
L 294.023222 73.201408 
L 294.458707 72.279921 
L 294.894193 72.419724 
L 295.329679 73.309748 
L 295.765164 72.239244 
L 296.20065 71.468092 
L 296.636136 71.102261 
L 297.071621 71.340268 
L 297.507107 69.299044 
L 297.942592 68.268427 
L 298.378078 68.411652 
L 298.813564 68.389668 
L 299.249049 69.096975 
L 299.684535 69.338931 
L 300.555506 68.575809 
L 300.990992 68.361892 
L 301.426478 68.355442 
L 301.861963 67.940246 
L 302.297449 68.23578 
L 303.16842 71.437419 
L 303.603906 71.208232 
L 304.039391 70.298857 
L 304.474877 68.745625 
L 304.910363 66.727438 
L 305.345848 66.070155 
L 305.781334 66.574998 
L 306.21682 66.145059 
L 307.087791 62.293508 
L 307.523277 61.24512 
L 307.958762 60.870075 
L 308.394248 59.671747 
L 309.265219 59.558799 
L 309.700705 59.49548 
L 310.13619 59.285513 
L 310.571676 60.185279 
L 311.007162 61.579751 
L 311.442647 61.027254 
L 311.878133 61.013958 
L 312.313619 60.721584 
L 312.749104 60.731062 
L 313.18459 60.35707 
L 313.620076 60.237145 
L 314.055561 59.356731 
L 314.491047 60.235565 
L 314.926532 60.828345 
L 315.362018 60.763577 
L 315.797504 61.190884 
L 316.668475 61.001452 
L 317.103961 60.359571 
L 317.974932 60.047319 
L 318.410418 59.418207 
L 318.845903 57.690815 
L 319.281389 57.66962 
L 319.716875 58.150636 
L 320.15236 57.32064 
L 320.587846 58.232649 
L 321.458817 58.03137 
L 322.329788 57.383433 
L 322.765274 57.250476 
L 324.071731 56.367033 
L 324.507217 55.566393 
L 324.942702 56.111781 
L 325.378188 56.334518 
L 325.813674 56.178523 
L 326.249159 56.523554 
L 326.684645 56.324908 
L 327.12013 56.687711 
L 327.555616 56.505783 
L 327.991102 56.704429 
L 328.426587 54.995071 
L 328.862073 54.638983 
L 329.733044 57.53561 
L 330.16853 57.895121 
L 330.604016 57.882484 
L 331.039501 58.18381 
L 331.474987 58.012808 
L 331.910472 58.697341 
L 332.345958 58.113645 
L 332.781444 57.251002 
L 333.216929 56.906103 
L 333.652415 56.784335 
L 334.523386 58.076259 
L 334.958872 61.077804 
L 335.829843 60.242147 
L 336.265329 58.182493 
L 336.700815 58.285832 
L 337.571786 58.159983 
L 338.007271 57.292469 
L 338.878243 57.005229 
L 339.313728 57.127391 
L 339.749214 56.560414 
L 340.1847 54.547756 
L 340.620185 53.498314 
L 342.362128 52.849061 
L 342.797614 52.603814 
L 343.233099 52.183748 
L 343.668585 52.134777 
L 344.539556 51.715896 
L 344.975042 50.600502 
L 345.410527 50.198339 
L 345.846013 51.200127 
L 346.281499 50.289829 
L 346.716984 50.286933 
L 347.15247 49.928475 
L 347.587956 50.163454 
L 348.458927 49.68257 
L 348.894412 48.574022 
L 349.329898 49.354784 
L 349.765384 49.847911 
L 350.200869 50.94448 
L 350.636355 50.243623 
L 351.071841 49.872791 
L 351.507326 49.353731 
L 352.378298 49.01831 
L 352.813783 49.022127 
L 355.426697 47.826564 
L 357.16864 47.11386 
L 357.604125 47.178628 
L 358.039611 46.92851 
L 358.475097 46.838072 
L 359.346068 47.453757 
L 359.781554 46.02203 
L 360.217039 45.125292 
L 360.652525 45.69872 
L 361.08801 44.54831 
L 361.523496 45.387126 
L 361.958982 44.643355 
L 362.394467 44.244878 
L 362.829953 44.058737 
L 363.265439 44.155099 
L 364.13641 43.410274 
L 364.571896 42.659658 
L 365.007381 42.601209 
L 365.442867 41.738434 
L 365.878353 41.56243 
L 366.313838 42.5267 
L 366.749324 42.24433 
L 367.184809 41.072989 
L 367.620295 40.871052 
L 368.491266 40.222589 
L 369.362238 39.859523 
L 369.797723 41.089839 
L 370.233209 41.130911 
L 370.668695 42.206944 
L 371.10418 41.887452 
L 371.539666 43.809015 
L 371.975151 43.593123 
L 372.410637 42.868835 
L 372.846123 42.742723 
L 373.281608 42.186672 
L 373.717094 43.354195 
L 374.15258 43.256781 
L 375.023551 41.132886 
L 375.894522 40.834588 
L 376.330008 40.996901 
L 376.765494 40.063567 
L 377.200979 39.96352 
L 377.636465 40.526153 
L 378.07195 40.131098 
L 378.507436 38.132789 
L 378.942922 38.027081 
L 379.378407 37.697584 
L 379.813893 37.549751 
L 380.249379 37.934669 
L 380.684864 37.732732 
L 381.555836 37.707062 
L 381.991321 37.30174 
L 382.862293 39.774746 
L 383.297778 39.148136 
L 384.168749 38.98161 
L 384.604235 38.669226 
L 385.039721 37.671256 
L 385.475206 37.626893 
L 385.910692 37.336098 
L 386.346178 36.116708 
L 386.781663 36.404212 
L 387.217149 36.241109 
L 387.652635 36.404738 
L 388.523606 36.126976 
L 388.959091 35.339105 
L 390.265548 38.616438 
L 390.701034 37.164438 
L 391.572005 40.126754 
L 392.007491 40.321188 
L 392.442977 40.968335 
L 392.878462 40.230487 
L 393.313948 41.120775 
L 394.184919 38.970815 
L 394.620405 38.955808 
L 395.05589 38.594454 
L 395.926862 38.618018 
L 396.362347 38.891041 
L 397.233319 38.277462 
L 397.668804 37.751557 
L 398.10429 37.929404 
L 398.539776 37.703903 
L 398.975261 37.970081 
L 399.410747 37.834227 
L 399.846233 37.462868 
L 400.281718 34.990125 
L 400.717204 35.36438 
L 401.588175 35.011846 
L 402.023661 35.311197 
L 402.023661 35.311197 
" style="fill:none;opacity:0.8;stroke:#ff7f0e;stroke-linecap:square;stroke-width:1.5;"/>
   </g>
   <g id="line2d_17">
    <path clip-path="url(#p8fca6e6735)" d="M 147.264561 168.112021 
L 147.700046 167.83755 
L 148.135532 167.801349 
L 148.571018 168.234579 
L 149.006503 168.013027 
L 149.441989 167.53596 
L 149.877475 167.760672 
L 150.748446 167.292556 
L 152.490388 167.178687 
L 153.36136 167.243718 
L 154.667817 167.237662 
L 155.103302 164.769395 
L 155.538788 164.730034 
L 155.974273 164.8364 
L 156.845245 164.636437 
L 157.28073 164.423837 
L 157.716216 164.444373 
L 158.151702 164.173719 
L 158.587187 164.053399 
L 159.022673 163.178251 
L 159.458159 163.162585 
L 159.893644 163.369262 
L 160.764616 162.835194 
L 161.200101 162.877583 
L 162.071072 161.420844 
L 163.377529 161.701897 
L 164.248501 161.735861 
L 164.683986 160.912578 
L 165.119472 161.717958 
L 165.990443 160.553199 
L 166.425929 160.399969 
L 166.861415 160.921398 
L 167.2969 160.090744 
L 167.732386 159.590114 
L 168.167871 160.163805 
L 168.603357 160.257007 
L 169.038843 160.755136 
L 169.474328 160.736838 
L 169.909814 160.94483 
L 170.780785 160.844125 
L 171.216271 161.32422 
L 172.087242 161.260769 
L 172.522728 160.123391 
L 172.958213 160.261746 
L 173.393699 160.116809 
L 173.829185 159.628553 
L 174.26467 159.599855 
L 174.700156 159.705694 
L 175.135642 159.962657 
L 175.571127 159.141613 
L 176.006613 159.382384 
L 176.442099 159.390809 
L 176.877584 159.18874 
L 177.31307 159.286813 
L 177.748556 158.137061 
L 178.184041 158.393366 
L 178.619527 158.843709 
L 179.055012 158.425091 
L 179.925984 158.043859 
L 180.361469 158.112312 
L 180.796955 157.06919 
L 181.232441 158.143248 
L 181.667926 158.834363 
L 182.103412 157.683426 
L 182.538898 157.772547 
L 185.587297 157.501367 
L 186.458268 157.762411 
L 186.893754 157.480173 
L 187.32924 157.779656 
L 188.635697 157.730027 
L 189.071182 157.852716 
L 189.942153 157.598255 
L 190.377639 157.490836 
L 190.813125 157.683558 
L 191.684096 157.590619 
L 192.119582 156.488785 
L 192.990553 155.535573 
L 193.861524 156.136645 
L 194.29701 155.969461 
L 194.732496 156.057661 
L 195.167981 155.607712 
L 195.603467 154.98742 
L 196.038952 154.927523 
L 197.345409 155.111294 
L 197.780895 155.700914 
L 198.216381 155.826499 
L 198.651866 155.60837 
L 199.087352 155.571247 
L 199.522838 155.709734 
L 199.958323 155.529386 
L 201.26478 155.519381 
L 202.135751 155.975517 
L 202.571237 155.852696 
L 203.006723 156.094652 
L 203.442208 155.374576 
L 203.877694 155.256757 
L 204.31318 156.527882 
L 204.748665 156.53894 
L 205.619637 156.371229 
L 206.055122 155.59152 
L 206.926093 155.672874 
L 207.361579 155.429733 
L 207.797065 156.481939 
L 208.668036 156.678743 
L 209.539007 156.59186 
L 209.974493 156.959006 
L 210.409979 156.88871 
L 210.845464 156.651756 
L 211.28095 157.163576 
L 211.716436 157.178715 
L 212.151921 156.133223 
L 212.587407 156.235903 
L 213.458378 156.077933 
L 213.893864 155.48318 
L 214.764835 155.547552 
L 215.200321 156.004214 
L 215.635806 155.94129 
L 216.071292 156.385052 
L 216.506778 156.575931 
L 216.942263 156.459824 
L 217.377749 155.408408 
L 217.813235 155.708681 
L 218.24872 155.633777 
L 218.684206 155.938657 
L 219.119691 155.879814 
L 219.555177 155.693015 
L 219.990663 155.716579 
L 220.426148 155.511614 
L 220.861634 156.263547 
L 221.29712 156.311991 
L 221.732605 156.011323 
L 222.168091 155.986311 
L 222.603577 155.510824 
L 223.039062 155.821234 
L 223.474548 155.676297 
L 223.910033 154.881975 
L 224.345519 154.759286 
L 224.781005 154.762577 
L 225.21649 154.919493 
L 226.522947 154.438609 
L 226.958433 154.407147 
L 227.829404 154.148604 
L 228.26489 155.297171 
L 228.700376 155.596654 
L 230.006832 155.913646 
L 230.442318 156.240378 
L 230.877804 156.243669 
L 231.313289 154.32961 
L 232.184261 154.30394 
L 232.619746 154.518252 
L 233.490718 154.283273 
L 233.926203 154.54458 
L 234.361689 155.151971 
L 234.797175 153.993399 
L 235.23266 154.302229 
L 235.668146 154.370287 
L 236.103631 154.192967 
L 236.539117 154.2863 
L 237.410088 154.149657 
L 237.845574 153.896511 
L 238.28106 153.340197 
L 239.152031 153.189468 
L 239.587517 153.284118 
L 240.023002 155.452639 
L 240.458488 155.02112 
L 241.764945 155.256494 
L 242.20043 155.409724 
L 242.635916 154.728745 
L 244.377859 154.804571 
L 244.813344 153.526732 
L 245.684316 154.002877 
L 246.119801 152.955279 
L 246.990772 154.476126 
L 248.732715 154.224166 
L 249.168201 153.436821 
L 249.603686 154.597763 
L 250.039172 154.616456 
L 250.910143 155.862569 
L 251.345629 155.269395 
L 251.781115 155.13907 
L 252.652086 156.062268 
L 253.087571 155.431971 
L 253.523057 155.351802 
L 253.958543 155.070354 
L 254.394028 155.047975 
L 254.829514 154.657133 
L 255.265 154.917255 
L 256.571457 153.986027 
L 257.006942 153.941138 
L 257.442428 155.111952 
L 258.748885 155.808728 
L 259.18437 155.083386 
L 259.619856 155.01309 
L 260.055342 155.170137 
L 260.490827 156.018958 
L 260.926313 155.77924 
L 261.797284 156.109527 
L 262.23277 156.030543 
L 262.668256 157.08525 
L 263.539227 157.13738 
L 263.974712 157.519797 
L 264.845684 157.826783 
L 265.281169 157.737267 
L 265.716655 158.780522 
L 266.152141 159.016949 
L 266.587626 159.063023 
L 267.023112 159.993988 
L 267.894083 159.323409 
L 268.765055 159.334862 
L 269.636026 158.836469 
L 270.942483 158.837522 
L 271.377968 157.91156 
L 271.813454 157.820333 
L 272.24894 156.633721 
L 273.555397 156.900558 
L 273.990882 156.906876 
L 274.426368 156.784187 
L 274.861854 156.98823 
L 275.297339 155.857961 
L 275.732825 155.817021 
L 276.16831 155.50648 
L 276.603796 155.49924 
L 277.039282 155.141308 
L 277.474767 155.24412 
L 277.910253 155.575987 
L 278.345739 154.45638 
L 279.21671 154.879474 
L 279.652196 154.945426 
L 280.087681 155.205286 
L 280.523167 155.929837 
L 281.829624 155.644177 
L 282.265109 154.410701 
L 282.700595 154.377659 
L 283.136081 153.993794 
L 283.571566 154.326056 
L 284.007052 154.439662 
L 284.442538 154.365285 
L 284.878023 154.816023 
L 285.748995 154.671087 
L 286.619966 154.622511 
L 287.926423 154.694519 
L 288.361908 155.100499 
L 288.797394 155.077067 
L 289.23288 154.817735 
L 289.668365 154.908172 
L 290.103851 154.869206 
L 290.539337 154.958064 
L 290.974822 155.535309 
L 291.410308 155.242408 
L 292.716765 154.726639 
L 293.15225 153.626121 
L 294.894193 153.606901 
L 295.329679 153.58031 
L 295.765164 154.035656 
L 296.20065 153.679962 
L 296.636136 153.6148 
L 297.071621 154.700969 
L 298.378078 154.423075 
L 298.813564 154.796804 
L 299.684535 154.758496 
L 300.120021 153.863206 
L 300.555506 153.968782 
L 300.990992 153.785012 
L 301.426478 153.916521 
L 301.861963 153.921392 
L 302.297449 154.801016 
L 302.732935 154.692807 
L 303.16842 154.831689 
L 303.603906 154.841167 
L 304.039391 154.636597 
L 304.910363 154.711632 
L 305.345848 155.02994 
L 305.781334 154.018938 
L 306.21682 153.622172 
L 306.652305 153.98221 
L 307.087791 153.497639 
L 307.523277 154.540236 
L 307.958762 154.59276 
L 308.394248 154.896588 
L 308.829734 155.655366 
L 309.265219 155.580199 
L 310.13619 155.196466 
L 310.571676 154.508247 
L 311.007162 154.523254 
L 311.442647 154.695704 
L 311.878133 154.429262 
L 312.313619 154.662662 
L 312.749104 154.584862 
L 313.18459 154.361467 
L 313.620076 154.58394 
L 314.055561 154.420047 
L 314.491047 154.475337 
L 314.926532 154.260499 
L 315.362018 153.096529 
L 315.797504 153.050587 
L 316.232989 155.021383 
L 317.103961 155.005323 
L 317.539446 154.646996 
L 317.974932 153.84504 
L 319.281389 153.726168 
L 319.716875 154.579465 
L 320.15236 154.171378 
L 321.023331 154.76363 
L 321.458817 154.552215 
L 321.894303 153.905331 
L 322.329788 153.863733 
L 322.765274 154.169535 
L 323.20076 154.658712 
L 323.636245 154.96899 
L 324.071731 154.877368 
L 324.507217 154.930683 
L 324.942702 155.129592 
L 325.378188 154.200075 
L 325.813674 153.847804 
L 326.249159 153.815157 
L 326.684645 152.682519 
L 327.12013 152.638551 
L 327.555616 153.291621 
L 327.991102 153.518439 
L 328.426587 153.201842 
L 329.297559 153.091001 
L 329.733044 154.076465 
L 330.16853 154.198101 
L 330.604016 153.823582 
L 331.039501 154.690833 
L 331.474987 154.54537 
L 331.910472 154.267476 
L 332.345958 154.231406 
L 332.781444 153.575439 
L 333.652415 153.506986 
L 334.087901 153.827268 
L 334.523386 153.536473 
L 334.958872 153.460385 
L 335.394358 153.136022 
L 335.829843 153.053351 
L 336.265329 152.684888 
L 337.1363 153.06204 
L 337.571786 152.841804 
L 338.007271 153.245284 
L 338.442757 153.177884 
L 338.878243 153.590183 
L 339.313728 153.333483 
L 339.749214 153.688124 
L 340.1847 153.677066 
L 340.620185 153.948246 
L 341.055671 153.733408 
L 341.491157 153.891246 
L 342.797614 152.723591 
L 343.233099 152.658823 
L 343.668585 151.436406 
L 344.10407 152.281146 
L 345.410527 151.314374 
L 345.846013 151.333462 
L 346.281499 151.028319 
L 346.716984 149.895548 
L 347.587956 149.748111 
L 348.458927 149.126239 
L 349.329898 149.163362 
L 349.765384 148.999864 
L 350.636355 149.175473 
L 351.071841 148.989464 
L 351.507326 148.645091 
L 352.813783 148.952999 
L 353.684755 148.780418 
L 354.555726 149.392943 
L 354.991211 149.446785 
L 355.426697 149.304876 
L 355.862183 149.310405 
L 356.297668 150.339705 
L 356.733154 150.437119 
L 357.16864 151.557252 
L 357.604125 151.550538 
L 358.475097 151.027792 
L 358.910582 151.051224 
L 359.346068 150.882461 
L 359.781554 150.849682 
L 360.217039 151.944013 
L 360.652525 151.468526 
L 361.523496 151.468658 
L 361.958982 153.113906 
L 362.394467 153.401015 
L 362.829953 153.35573 
L 363.265439 154.263263 
L 363.700924 154.412544 
L 364.13641 154.316973 
L 364.571896 153.59071 
L 365.007381 153.811866 
L 365.442867 153.855571 
L 365.878353 153.669431 
L 366.313838 153.65653 
L 366.749324 153.416417 
L 367.184809 153.537395 
L 367.620295 153.123121 
L 368.055781 153.022679 
L 368.491266 152.78928 
L 368.926752 151.868451 
L 369.362238 151.878851 
L 369.797723 151.724568 
L 370.233209 151.789993 
L 371.10418 151.687577 
L 371.539666 150.763326 
L 371.975151 150.857449 
L 372.410637 149.68308 
L 373.281608 149.88607 
L 373.717094 149.698219 
L 374.15258 149.897655 
L 374.588065 148.654701 
L 375.023551 148.851768 
L 375.459037 148.739215 
L 375.894522 148.792397 
L 376.330008 148.269125 
L 376.765494 148.324414 
L 377.636465 148.904556 
L 378.07195 149.931355 
L 378.507436 150.011393 
L 379.378407 149.814458 
L 379.813893 149.417034 
L 380.249379 149.467584 
L 380.684864 149.395313 
L 381.12035 149.661754 
L 381.991321 147.147412 
L 382.862293 147.426623 
L 383.297778 146.778028 
L 384.168749 146.936655 
L 384.604235 146.979044 
L 385.039721 147.465852 
L 385.475206 147.711625 
L 385.910692 147.754145 
L 386.781663 147.630403 
L 387.217149 147.972933 
L 388.523606 147.992284 
L 388.959091 148.216732 
L 390.265548 148.116158 
L 390.701034 148.807668 
L 392.007491 146.126669 
L 392.442977 146.268972 
L 392.878462 146.181299 
L 393.313948 145.958695 
L 394.184919 145.877999 
L 394.620405 146.149047 
L 395.05589 145.815469 
L 395.491376 146.836871 
L 396.362347 146.687064 
L 396.797833 147.037492 
L 397.668804 146.3498 
L 398.10429 146.599654 
L 398.539776 146.495395 
L 398.975261 146.678771 
L 399.410747 146.566349 
L 399.846233 146.855169 
L 400.281718 147.814964 
L 400.717204 147.63501 
L 401.152689 147.220605 
L 402.023661 147.232847 
L 402.023661 147.232847 
" style="fill:none;opacity:0.8;stroke:#2ca02c;stroke-linecap:square;stroke-width:1.5;"/>
   </g>
   <g id="line2d_18">
    <path clip-path="url(#p8fca6e6735)" d="M 147.264561 210.883478 
L 147.700046 210.588075 
L 148.571018 210.448668 
L 149.441989 210.575306 
L 149.877475 210.515146 
L 150.31296 210.783825 
L 150.748446 210.361653 
L 151.183931 210.412203 
L 151.619417 210.649815 
L 152.054903 210.57478 
L 152.925874 210.592288 
L 153.796845 210.495532 
L 154.667817 210.748941 
L 155.103302 210.434977 
L 155.538788 210.608743 
L 155.974273 211.845904 
L 157.28073 211.765735 
L 157.716216 211.961485 
L 158.151702 211.497583 
L 158.587187 211.443741 
L 159.022673 212.985915 
L 159.458159 213.140593 
L 161.200101 213.061082 
L 161.635587 213.399794 
L 162.071072 213.411115 
L 162.942044 212.969591 
L 163.813015 213.367542 
L 164.248501 213.134932 
L 164.683986 212.745144 
L 165.554958 212.853353 
L 165.990443 212.853747 
L 166.425929 213.342267 
L 167.2969 212.936681 
L 167.732386 213.393739 
L 168.167871 213.412958 
L 168.603357 213.92412 
L 169.038843 213.53749 
L 169.474328 213.446921 
L 169.909814 213.885417 
L 170.3453 214.075244 
L 170.780785 213.933466 
L 171.216271 213.314359 
L 171.651757 213.199305 
L 172.087242 213.316597 
L 172.522728 213.035412 
L 173.393699 213.219446 
L 173.829185 213.158759 
L 174.26467 214.256513 
L 175.135642 214.178319 
L 175.571127 214.423039 
L 176.006613 214.407769 
L 176.442099 214.046019 
L 178.184041 213.686771 
L 179.490498 213.301985 
L 179.925984 214.632611 
L 180.796955 214.180688 
L 181.232441 214.534671 
L 181.667926 214.412113 
L 182.103412 214.471746 
L 182.538898 214.676185 
L 182.974383 214.50979 
L 183.409869 214.552969 
L 183.845355 214.824412 
L 184.28084 214.430806 
L 184.716326 214.330101 
L 185.587297 214.879701 
L 186.022783 214.877858 
L 186.458268 214.412903 
L 186.893754 214.434887 
L 187.32924 214.894577 
L 187.764725 215.026613 
L 188.200211 214.952236 
L 188.635697 214.531511 
L 189.071182 214.692508 
L 190.377639 214.308248 
L 191.24861 215.057285 
L 191.684096 215.476561 
L 192.119582 217.155642 
L 192.555067 217.240682 
L 192.990553 216.913554 
L 193.861524 216.840098 
L 194.29701 216.897625 
L 195.167981 217.873216 
L 196.038952 218.018811 
L 196.474438 218.395699 
L 197.345409 218.365553 
L 197.780895 218.370292 
L 198.216381 218.119517 
L 198.651866 217.654956 
L 199.087352 217.648505 
L 199.522838 217.936799 
L 199.958323 218.384641 
L 200.829295 218.394778 
L 201.26478 218.165196 
L 201.700266 218.752709 
L 202.135751 218.661087 
L 202.571237 218.729936 
L 203.006723 219.299019 
L 203.442208 219.134205 
L 203.877694 218.791543 
L 204.31318 218.774562 
L 204.748665 218.958201 
L 205.619637 218.864736 
L 206.055122 218.527208 
L 206.490608 219.05443 
L 206.926093 219.006381 
L 207.361579 220.509853 
L 207.797065 220.440478 
L 208.23255 220.077939 
L 208.668036 220.204972 
L 209.103522 220.138362 
L 209.539007 220.528151 
L 209.974493 220.408752 
L 210.409979 219.795964 
L 212.151921 219.465808 
L 212.587407 219.660637 
L 213.022892 219.598239 
L 213.458378 219.706975 
L 213.893864 220.42218 
L 214.329349 220.560139 
L 214.764835 220.32108 
L 215.635806 220.202734 
L 216.942263 220.174563 
L 217.377749 220.447455 
L 217.813235 220.466016 
L 218.684206 220.896877 
L 219.555177 220.836717 
L 219.990663 220.632937 
L 222.168091 220.791564 
L 223.039062 220.689148 
L 223.474548 221.108556 
L 223.910033 221.082491 
L 224.345519 220.878579 
L 224.781005 220.921362 
L 225.21649 220.817234 
L 226.522947 220.846327 
L 227.393919 220.832899 
L 227.829404 220.568828 
L 228.700376 220.325424 
L 229.135861 220.578438 
L 229.571347 221.13857 
L 230.006832 220.800911 
L 231.313289 221.026938 
L 231.748775 220.94769 
L 232.184261 220.601211 
L 232.619746 220.893718 
L 233.926203 220.811574 
L 234.361689 220.664267 
L 234.797175 221.123694 
L 235.23266 221.111583 
L 235.668146 221.587597 
L 236.103631 221.544814 
L 236.539117 220.963356 
L 238.716545 221.063008 
L 239.152031 221.007455 
L 239.587517 221.088809 
L 240.023002 221.413304 
L 240.458488 221.386318 
L 240.893974 222.042153 
L 241.764945 221.899454 
L 242.20043 221.781636 
L 242.635916 221.794273 
L 243.071402 222.173136 
L 243.506887 222.166685 
L 244.377859 222.289506 
L 244.813344 222.338082 
L 245.24883 222.786056 
L 245.684316 222.817782 
L 246.555287 222.389422 
L 247.426258 222.364278 
L 247.861744 222.481176 
L 248.297229 222.440894 
L 250.039172 222.794086 
L 250.474658 222.604786 
L 250.910143 222.688247 
L 251.781115 222.519352 
L 252.2166 222.712732 
L 252.652086 222.383103 
L 253.958543 222.385868 
L 254.829514 222.475515 
L 255.700485 222.524617 
L 256.571457 222.693249 
L 257.006942 222.707203 
L 257.877914 223.126348 
L 258.313399 222.756437 
L 260.055342 222.987467 
L 260.490827 222.830024 
L 260.926313 222.827523 
L 261.797284 223.476513 
L 263.103741 223.722418 
L 263.539227 223.188877 
L 264.410198 223.443997 
L 264.845684 223.41372 
L 265.716655 223.827073 
L 266.152141 223.826283 
L 266.587626 223.939626 
L 267.023112 224.217651 
L 267.894083 223.994783 
L 268.765055 224.18145 
L 269.20054 224.4783 
L 269.636026 224.356006 
L 270.071511 224.707355 
L 270.942483 224.518977 
L 271.377968 224.950365 
L 271.813454 225.047252 
L 272.24894 224.576504 
L 272.684425 224.513053 
L 273.119911 224.272414 
L 273.555397 224.751718 
L 273.990882 224.68524 
L 274.426368 224.436438 
L 274.861854 224.610204 
L 275.297339 224.599147 
L 275.732825 224.815038 
L 276.16831 224.836495 
L 277.474767 224.508314 
L 277.910253 224.768832 
L 278.345739 224.828334 
L 278.781224 224.460924 
L 279.21671 224.568738 
L 279.652196 224.537934 
L 280.087681 224.873091 
L 281.829624 224.682739 
L 282.265109 224.283735 
L 282.700595 224.175921 
L 283.571566 225.159016 
L 284.878023 225.112151 
L 285.313509 224.639692 
L 285.748995 224.650618 
L 286.619966 225.045278 
L 287.490937 225.212988 
L 287.926423 225.221677 
L 288.797394 225.653985 
L 289.23288 225.679919 
L 289.668365 225.377539 
L 290.103851 225.453233 
L 290.974822 225.775885 
L 292.281279 225.821828 
L 292.716765 225.866191 
L 293.15225 226.101301 
L 293.587736 226.065495 
L 294.023222 225.864743 
L 294.894193 225.769435 
L 295.329679 226.272698 
L 295.765164 226.326012 
L 296.20065 225.801423 
L 297.071621 225.9873 
L 297.507107 226.314165 
L 297.942592 226.30653 
L 298.378078 225.920163 
L 299.249049 225.840389 
L 300.120021 226.021527 
L 300.555506 225.647798 
L 301.426478 225.644244 
L 301.861963 225.97203 
L 302.297449 225.91266 
L 302.732935 225.69045 
L 303.603906 225.744291 
L 304.039391 225.764827 
L 305.345848 225.297239 
L 305.781334 225.335546 
L 306.21682 225.672152 
L 306.652305 225.627789 
L 307.087791 225.348842 
L 307.523277 225.296054 
L 307.958762 225.423219 
L 308.394248 224.948917 
L 308.829734 224.941413 
L 309.265219 225.116101 
L 310.13619 225.118207 
L 310.571676 225.525636 
L 311.007162 225.620812 
L 311.442647 225.23721 
L 312.313619 225.349632 
L 313.18459 225.221413 
L 314.055561 225.260906 
L 314.491047 225.280783 
L 314.926532 225.657408 
L 315.362018 225.523398 
L 315.797504 225.250901 
L 316.668475 225.346604 
L 317.103961 225.614756 
L 317.539446 225.591061 
L 317.974932 225.191662 
L 318.845903 225.235236 
L 319.281389 225.451917 
L 319.716875 225.4947 
L 320.15236 225.133214 
L 321.023331 225.161385 
L 321.458817 225.760746 
L 321.894303 225.758772 
L 322.329788 225.415847 
L 323.20076 225.282495 
L 323.636245 225.479561 
L 324.071731 225.542617 
L 324.507217 225.134794 
L 324.942702 224.956815 
L 326.249159 224.826622 
L 326.684645 224.373514 
L 327.12013 224.493044 
L 327.555616 224.448681 
L 327.991102 224.67405 
L 328.426587 224.66602 
L 328.862073 224.143537 
L 330.16853 223.702277 
L 331.474987 223.925672 
L 331.910472 223.80443 
L 332.345958 223.965164 
L 332.781444 223.75546 
L 333.216929 223.747956 
L 333.652415 223.515347 
L 334.087901 223.104101 
L 334.523386 222.932441 
L 334.958872 223.010635 
L 335.394358 223.632902 
L 336.265329 223.7394 
L 336.700815 223.967797 
L 338.442757 224.038225 
L 338.878243 224.327045 
L 339.313728 224.352452 
L 339.749214 223.941732 
L 340.1847 223.93436 
L 340.620185 223.673184 
L 341.055671 224.202907 
L 341.491157 224.138008 
L 341.926642 223.818121 
L 342.797614 223.706226 
L 343.233099 224.081666 
L 343.668585 224.068107 
L 344.10407 223.088172 
L 344.975042 223.019455 
L 345.410527 223.379888 
L 345.846013 223.309855 
L 346.281499 222.504213 
L 347.15247 222.461693 
L 348.023441 222.241589 
L 350.200869 222.576747 
L 350.636355 222.168792 
L 351.942812 222.254622 
L 352.378298 222.351904 
L 352.813783 222.195252 
L 353.684755 222.188143 
L 354.555726 222.686535 
L 354.991211 222.618609 
L 355.426697 222.713259 
L 356.733154 222.58504 
L 357.16864 222.784081 
L 357.604125 222.849375 
L 358.039611 223.061186 
L 358.475097 223.007739 
L 358.910582 223.085144 
L 359.346068 223.396607 
L 359.781554 223.422277 
L 360.217039 223.154651 
L 360.652525 223.113842 
L 361.08801 223.225737 
L 361.523496 223.006291 
L 361.958982 223.151228 
L 363.265439 223.187824 
L 363.700924 223.281947 
L 364.571896 223.188746 
L 365.007381 223.426358 
L 365.442867 223.48915 
L 365.878353 223.086197 
L 366.749324 223.183348 
L 367.184809 223.514689 
L 367.620295 223.63514 
L 368.055781 223.280499 
L 368.926752 223.315911 
L 369.362238 223.219418 
L 370.233209 223.290767 
L 370.668695 223.151755 
L 371.10418 223.162944 
L 371.539666 223.561158 
L 371.975151 223.457951 
L 372.410637 223.146226 
L 373.281608 222.934942 
L 374.15258 223.000762 
L 374.588065 222.840555 
L 375.894522 222.939023 
L 376.330008 222.780527 
L 377.200979 222.669291 
L 377.636465 222.246065 
L 378.507436 222.372177 
L 379.378407 222.488284 
L 379.813893 222.405745 
L 380.684864 222.479201 
L 381.12035 222.990099 
L 381.555836 222.928097 
L 381.991321 222.509347 
L 382.862293 222.61466 
L 383.297778 222.762229 
L 384.168749 222.641514 
L 385.910692 222.9797 
L 386.346178 222.628087 
L 387.217149 222.558186 
L 387.652635 222.752356 
L 388.08812 222.697857 
L 388.523606 222.297142 
L 389.394577 222.50395 
L 389.830063 222.390212 
L 390.265548 222.488679 
L 390.701034 222.314518 
L 391.572005 222.568322 
L 392.007491 222.170371 
L 392.442977 222.228425 
L 392.878462 222.173399 
L 393.313948 222.60426 
L 393.749434 222.599521 
L 394.184919 221.99134 
L 394.620405 221.881156 
L 395.05589 221.906168 
L 396.362347 221.620376 
L 396.797833 221.626168 
L 397.233319 221.483074 
L 397.668804 222.003451 
L 398.10429 222.158787 
L 398.975261 222.197094 
L 399.410747 221.858251 
L 399.846233 221.86141 
L 400.281718 222.037677 
L 402.023661 222.074273 
L 402.023661 222.074273 
" style="fill:none;opacity:0.8;stroke:#d62728;stroke-linecap:square;stroke-width:1.5;"/>
   </g>
   <g id="line2d_19">
    <path clip-path="url(#p8fca6e6735)" d="M 147.264561 206.177182 
L 148.135532 206.172707 
L 148.571018 205.971033 
L 149.006503 206.093854 
L 149.441989 205.852161 
L 149.877475 206.10478 
L 150.31296 205.130505 
L 150.748446 205.119579 
L 151.619417 204.812329 
L 152.054903 204.956476 
L 152.490388 204.898686 
L 152.925874 204.987675 
L 153.36136 204.642776 
L 153.796845 204.67358 
L 154.667817 205.756853 
L 155.103302 205.825701 
L 155.538788 205.723679 
L 156.409759 205.711437 
L 156.845245 206.099778 
L 157.28073 207.089191 
L 158.151702 205.849397 
L 158.587187 206.024347 
L 159.022673 206.029086 
L 159.458159 206.54117 
L 159.893644 206.033167 
L 160.32913 206.047911 
L 160.764616 205.800031 
L 161.200101 205.879016 
L 161.635587 206.22589 
L 162.071072 205.888494 
L 162.942044 205.939571 
L 163.377529 206.046726 
L 163.813015 206.869614 
L 164.248501 206.430855 
L 165.554958 206.301715 
L 165.990443 206.968213 
L 166.425929 206.618443 
L 166.861415 206.510892 
L 167.2969 206.548936 
L 167.732386 206.443492 
L 168.167871 206.485617 
L 168.603357 205.987356 
L 169.038843 206.271437 
L 169.474328 205.999862 
L 169.909814 205.968137 
L 170.3453 206.132819 
L 171.216271 205.48462 
L 171.651757 205.327835 
L 172.087242 204.770073 
L 172.522728 204.696354 
L 172.958213 204.504816 
L 173.393699 204.86775 
L 173.829185 205.017031 
L 174.700156 204.885522 
L 175.135642 204.053419 
L 176.006613 204.283264 
L 176.442099 203.940208 
L 176.877584 203.789216 
L 177.31307 204.241403 
L 177.748556 204.178347 
L 178.184041 204.355009 
L 178.619527 204.345794 
L 179.055012 204.993072 
L 179.490498 205.234107 
L 180.361469 205.043227 
L 180.796955 205.067713 
L 181.232441 205.39076 
L 181.667926 204.507844 
L 182.103412 204.400425 
L 182.538898 204.115159 
L 182.974383 204.096861 
L 183.845355 203.369413 
L 185.151811 203.758412 
L 185.587297 204.129508 
L 186.458268 203.507504 
L 186.893754 203.873729 
L 187.32924 203.902164 
L 187.764725 203.664157 
L 188.200211 203.285163 
L 188.635697 203.221712 
L 189.071182 202.910381 
L 189.942153 203.292008 
L 190.377639 203.468802 
L 190.813125 203.47025 
L 191.24861 204.199672 
L 191.684096 204.41451 
L 192.119582 204.358563 
L 192.555067 203.974435 
L 193.426039 204.253645 
L 193.861524 204.23798 
L 194.29701 205.155122 
L 194.732496 204.698328 
L 195.603467 204.911192 
L 196.038952 204.897501 
L 196.474438 205.767779 
L 196.909924 205.752772 
L 197.345409 204.623556 
L 197.780895 204.059606 
L 198.216381 202.978439 
L 198.651866 203.806856 
L 200.829295 204.091727 
L 201.26478 202.478335 
L 202.135751 202.579436 
L 202.571237 203.018722 
L 203.442208 202.443977 
L 203.877694 202.380131 
L 204.31318 201.853173 
L 204.748665 202.204127 
L 205.184151 202.024306 
L 205.619637 201.579754 
L 206.926093 202.040234 
L 207.361579 201.790248 
L 207.797065 201.761024 
L 208.668036 201.075833 
L 209.539007 201.298306 
L 209.974493 200.659058 
L 211.28095 200.726063 
L 211.716436 200.548743 
L 212.151921 201.403224 
L 212.587407 201.376501 
L 213.022892 201.623064 
L 213.458378 202.004296 
L 213.893864 202.028255 
L 214.329349 201.442848 
L 215.200321 201.272373 
L 215.635806 200.905226 
L 216.071292 200.88469 
L 216.506778 201.445481 
L 217.813235 201.787221 
L 218.24872 202.102106 
L 218.684206 201.150473 
L 219.119691 201.223402 
L 219.555177 201.087944 
L 219.990663 200.685781 
L 220.426148 200.540581 
L 220.861634 201.142575 
L 221.732605 201.451668 
L 222.168091 201.035682 
L 222.603577 200.991451 
L 223.039062 201.060036 
L 223.910033 200.469363 
L 224.345519 200.286251 
L 224.781005 200.240045 
L 225.21649 200.330219 
L 225.651976 199.747576 
L 226.087462 199.513913 
L 226.522947 199.416236 
L 226.958433 198.721698 
L 227.393919 199.216405 
L 227.829404 199.047641 
L 228.26489 198.547011 
L 228.700376 199.409259 
L 229.135861 197.993987 
L 229.571347 197.826276 
L 230.006832 197.855764 
L 230.442318 197.639346 
L 230.877804 198.017946 
L 231.313289 197.368824 
L 231.748775 198.424584 
L 232.619746 198.512521 
L 233.055232 197.866559 
L 233.490718 197.727809 
L 233.926203 198.034401 
L 234.361689 196.716543 
L 234.797175 196.859769 
L 235.23266 197.861293 
L 235.668146 197.889069 
L 236.103631 198.086925 
L 236.539117 197.263511 
L 236.974603 197.475717 
L 237.410088 197.148062 
L 237.845574 197.136346 
L 238.28106 197.34842 
L 238.716545 196.435095 
L 239.152031 196.244611 
L 239.587517 196.610177 
L 240.023002 196.582006 
L 240.458488 196.75156 
L 241.329459 196.537117 
L 242.20043 195.544939 
L 242.635916 195.872857 
L 243.071402 195.897079 
L 243.506887 195.528484 
L 244.377859 195.406453 
L 244.813344 196.032274 
L 245.24883 195.933148 
L 245.684316 196.069002 
L 246.119801 195.642617 
L 246.555287 195.5739 
L 246.990772 195.877859 
L 247.426258 194.651492 
L 247.861744 194.661102 
L 248.297229 193.997368 
L 248.732715 193.850852 
L 249.168201 194.087411 
L 249.603686 193.522934 
L 250.039172 193.63167 
L 250.474658 192.667795 
L 250.910143 192.626065 
L 251.345629 191.954959 
L 251.781115 191.828715 
L 252.2166 191.134704 
L 252.652086 191.079678 
L 253.087571 190.743336 
L 253.523057 191.283064 
L 253.958543 190.903148 
L 254.394028 191.135889 
L 254.829514 191.100741 
L 255.265 191.285828 
L 256.135971 191.967465 
L 256.571457 192.160977 
L 257.006942 192.721504 
L 257.442428 192.389637 
L 257.877914 192.633963 
L 258.313399 192.691622 
L 258.748885 192.460329 
L 259.18437 192.469807 
L 260.055342 192.845378 
L 260.490827 192.664504 
L 262.23277 192.608425 
L 263.103741 192.270634 
L 263.974712 192.269976 
L 264.410198 191.07415 
L 264.845684 190.946195 
L 265.281169 191.003063 
L 265.716655 190.918418 
L 266.152141 190.988451 
L 266.587626 191.702867 
L 267.023112 192.083177 
L 267.458598 192.295119 
L 267.894083 191.757761 
L 268.329569 192.178222 
L 268.765055 192.761523 
L 269.20054 191.912571 
L 270.942483 192.029731 
L 271.377968 192.082651 
L 271.813454 191.992213 
L 272.24894 191.64942 
L 273.119911 192.157949 
L 273.555397 191.71116 
L 273.990882 191.725641 
L 274.426368 191.481578 
L 274.861854 191.67022 
L 275.297339 192.152684 
L 276.16831 191.898222 
L 276.603796 190.254421 
L 277.039282 190.206373 
L 277.474767 190.65303 
L 278.345739 190.505724 
L 278.781224 189.966391 
L 279.21671 187.077004 
L 279.652196 186.911926 
L 280.087681 185.895658 
L 280.523167 185.651728 
L 280.958652 185.668446 
L 281.394138 184.795535 
L 281.829624 184.58096 
L 282.700595 186.151568 
L 283.136081 187.147959 
L 284.007052 186.982223 
L 284.442538 186.972218 
L 284.878023 187.094644 
L 285.313509 185.962269 
L 285.748995 186.135377 
L 286.18448 187.562496 
L 286.619966 186.976825 
L 287.490937 186.907846 
L 287.926423 187.26038 
L 288.361908 187.171786 
L 288.797394 187.279995 
L 289.23288 187.741528 
L 289.668365 187.46732 
L 290.103851 187.700061 
L 290.539337 188.231232 
L 290.974822 187.638848 
L 291.410308 187.603831 
L 291.845794 187.08872 
L 292.281279 187.317117 
L 292.716765 187.022768 
L 293.587736 187.633714 
L 294.458707 187.422825 
L 294.894193 187.822092 
L 295.765164 187.881857 
L 296.636136 186.964846 
L 297.071621 187.035142 
L 297.507107 186.719204 
L 297.942592 186.606256 
L 298.378078 185.316438 
L 298.813564 185.124111 
L 299.249049 185.107656 
L 299.684535 184.300829 
L 300.120021 184.417989 
L 300.555506 184.045972 
L 300.990992 183.255863 
L 301.426478 183.418308 
L 301.861963 182.61148 
L 302.297449 182.586732 
L 302.732935 180.887379 
L 303.16842 180.87461 
L 303.603906 181.515833 
L 304.474877 181.552034 
L 304.910363 181.147896 
L 305.345848 181.285725 
L 306.21682 181.07194 
L 307.087791 180.908178 
L 307.523277 180.961098 
L 307.958762 181.303496 
L 308.394248 180.872635 
L 308.829734 181.103928 
L 309.265219 180.561436 
L 309.700705 180.555381 
L 310.13619 180.789833 
L 310.571676 181.400647 
L 311.442647 180.510886 
L 311.878133 181.099453 
L 312.313619 181.088658 
L 312.749104 180.932005 
L 313.18459 181.42895 
L 313.620076 180.729673 
L 314.055561 182.1277 
L 314.491047 182.209712 
L 314.926532 182.168377 
L 315.362018 182.396116 
L 315.797504 181.963675 
L 316.232989 182.457197 
L 317.539446 182.294489 
L 318.410418 182.692308 
L 318.845903 182.711396 
L 319.281389 183.443319 
L 319.716875 183.229929 
L 320.15236 182.872656 
L 320.587846 182.955195 
L 321.023331 182.807757 
L 321.458817 183.758073 
L 321.894303 183.600235 
L 322.329788 183.045764 
L 322.765274 183.080912 
L 323.20076 183.2789 
L 323.636245 183.028914 
L 324.071731 183.161871 
L 324.507217 182.47023 
L 325.378188 182.165349 
L 325.813674 182.307258 
L 326.249159 182.193652 
L 326.684645 182.528678 
L 327.12013 183.116323 
L 327.555616 183.473334 
L 327.991102 184.077171 
L 328.426587 183.572986 
L 328.862073 182.78235 
L 329.733044 182.575806 
L 330.16853 182.681118 
L 331.039501 182.638993 
L 331.474987 182.771161 
L 331.910472 182.744174 
L 332.345958 183.964354 
L 332.781444 183.82284 
L 333.216929 184.245276 
L 333.652415 184.367044 
L 334.087901 184.192093 
L 334.523386 184.356249 
L 334.958872 184.35072 
L 335.394358 185.020509 
L 335.829843 185.011821 
L 336.265329 186.017163 
L 336.700815 186.073637 
L 337.1363 186.528325 
L 337.571786 186.190008 
L 338.007271 186.361931 
L 338.442757 186.102466 
L 338.878243 186.299796 
L 339.313728 186.310591 
L 339.749214 185.996627 
L 340.1847 185.985306 
L 340.620185 185.756909 
L 341.926642 183.664608 
L 342.362128 183.797828 
L 343.233099 183.727796 
L 343.668585 183.86852 
L 344.10407 183.319709 
L 344.539556 183.257837 
L 344.975042 183.795986 
L 346.716984 184.034124 
L 347.15247 183.995685 
L 348.023441 184.530279 
L 348.458927 184.064533 
L 348.894412 183.968303 
L 349.329898 185.552865 
L 350.200869 185.40082 
L 350.636355 184.948765 
L 351.071841 184.880575 
L 351.507326 184.468802 
L 353.684755 184.147335 
L 354.12024 185.304986 
L 354.991211 185.23877 
L 355.426697 185.19862 
L 355.862183 184.625323 
L 356.733154 184.762098 
L 357.16864 184.500659 
L 357.604125 184.531858 
L 358.039611 184.787505 
L 358.475097 185.438996 
L 358.910582 185.337896 
L 359.346068 185.620792 
L 359.781554 185.596965 
L 360.217039 185.195592 
L 361.08801 185.410035 
L 361.523496 186.347318 
L 361.958982 186.379702 
L 362.394467 186.176449 
L 363.265439 186.264253 
L 363.700924 186.019664 
L 364.13641 188.376827 
L 364.571896 188.951176 
L 365.007381 189.945065 
L 365.442867 190.134233 
L 365.878353 189.597533 
L 366.313838 190.450566 
L 366.749324 190.665931 
L 367.184809 191.112194 
L 367.620295 191.106402 
L 368.055781 190.60406 
L 369.362238 190.810473 
L 369.797723 190.735174 
L 370.233209 191.59808 
L 370.668695 191.615984 
L 371.10418 191.806863 
L 371.539666 192.365679 
L 371.975151 192.431499 
L 372.410637 192.024992 
L 372.846123 191.996294 
L 373.281608 192.234696 
L 373.717094 192.201523 
L 374.15258 191.778955 
L 374.588065 191.035842 
L 375.459037 191.004248 
L 375.894522 191.423525 
L 376.330008 191.421813 
L 376.765494 192.195335 
L 377.200979 191.685095 
L 377.636465 191.47289 
L 378.07195 191.443139 
L 378.942922 190.856679 
L 379.378407 190.792043 
L 379.813893 190.868921 
L 380.684864 190.736491 
L 381.555836 191.770398 
L 381.991321 191.366261 
L 382.426807 191.63494 
L 382.862293 191.717874 
L 383.297778 192.419783 
L 383.733264 192.607503 
L 384.604235 193.984994 
L 385.039721 193.847166 
L 385.910692 195.287976 
L 386.346178 194.815122 
L 386.781663 195.614972 
L 387.217149 195.594831 
L 387.652635 197.684631 
L 388.08812 197.705562 
L 388.523606 197.505599 
L 388.959091 197.455839 
L 389.394577 197.572736 
L 389.830063 197.896704 
L 390.265548 197.872614 
L 390.701034 198.040588 
L 391.13652 198.032689 
L 391.572005 198.286888 
L 392.878462 198.191975 
L 393.313948 198.952201 
L 394.620405 198.76435 
L 395.491376 198.848337 
L 395.926862 199.518257 
L 397.233319 199.590923 
L 397.668804 199.941483 
L 398.10429 199.781144 
L 398.539776 200.01744 
L 398.975261 200.033632 
L 399.410747 199.41821 
L 399.846233 199.104905 
L 400.281718 199.184284 
L 400.717204 199.065018 
L 401.152689 199.306974 
L 402.023661 199.252474 
L 402.023661 199.252474 
" style="fill:none;opacity:0.8;stroke:#9467bd;stroke-linecap:square;stroke-width:1.5;"/>
   </g>
   <g id="patch_3">
    <path d="M 61.909375 288.430125 
L 61.909375 22.318125 
" style="fill:none;stroke:#000000;stroke-linecap:square;stroke-linejoin:miter;stroke-width:0.8;"/>
   </g>
   <g id="patch_4">
    <path d="M 419.029375 288.430125 
L 419.029375 22.318125 
" style="fill:none;stroke:#000000;stroke-linecap:square;stroke-linejoin:miter;stroke-width:0.8;"/>
   </g>
   <g id="patch_5">
    <path d="M 61.909375 288.430125 
L 419.029375 288.430125 
" style="fill:none;stroke:#000000;stroke-linecap:square;stroke-linejoin:miter;stroke-width:0.8;"/>
   </g>
   <g id="patch_6">
    <path d="M 61.909375 22.318125 
L 419.029375 22.318125 
" style="fill:none;stroke:#000000;stroke-linecap:square;stroke-linejoin:miter;stroke-width:0.8;"/>
   </g>
   <g id="text_17">
    <!-- Get filtered children count [leaf] -->
    <defs>
     <path d="M 59.515625 10.40625 
L 59.515625 29.984375 
L 43.40625 29.984375 
L 43.40625 38.09375 
L 69.28125 38.09375 
L 69.28125 6.78125 
Q 63.578125 2.734375 56.6875 0.65625 
Q 49.8125 -1.421875 42 -1.421875 
Q 24.90625 -1.421875 15.25 8.5625 
Q 5.609375 18.5625 5.609375 36.375 
Q 5.609375 54.25 15.25 64.234375 
Q 24.90625 74.21875 42 74.21875 
Q 49.125 74.21875 55.546875 72.453125 
Q 61.96875 70.703125 67.390625 67.28125 
L 67.390625 56.78125 
Q 61.921875 61.421875 55.765625 63.765625 
Q 49.609375 66.109375 42.828125 66.109375 
Q 29.4375 66.109375 22.71875 58.640625 
Q 16.015625 51.171875 16.015625 36.375 
Q 16.015625 21.625 22.71875 14.15625 
Q 29.4375 6.6875 42.828125 6.6875 
Q 48.046875 6.6875 52.140625 7.59375 
Q 56.25 8.5 59.515625 10.40625 
z
" id="DejaVuSans-47"/>
     <path d="M 41.109375 46.296875 
Q 39.59375 47.171875 37.8125 47.578125 
Q 36.03125 48 33.890625 48 
Q 26.265625 48 22.1875 43.046875 
Q 18.109375 38.09375 18.109375 28.8125 
L 18.109375 0 
L 9.078125 0 
L 9.078125 54.6875 
L 18.109375 54.6875 
L 18.109375 46.1875 
Q 20.953125 51.171875 25.484375 53.578125 
Q 30.03125 56 36.53125 56 
Q 37.453125 56 38.578125 55.875 
Q 39.703125 55.765625 41.0625 55.515625 
z
" id="DejaVuSans-72"/>
     <path d="M 54.890625 33.015625 
L 54.890625 0 
L 45.90625 0 
L 45.90625 32.71875 
Q 45.90625 40.484375 42.875 44.328125 
Q 39.84375 48.1875 33.796875 48.1875 
Q 26.515625 48.1875 22.3125 43.546875 
Q 18.109375 38.921875 18.109375 30.90625 
L 18.109375 0 
L 9.078125 0 
L 9.078125 75.984375 
L 18.109375 75.984375 
L 18.109375 46.1875 
Q 21.34375 51.125 25.703125 53.5625 
Q 30.078125 56 35.796875 56 
Q 45.21875 56 50.046875 50.171875 
Q 54.890625 44.34375 54.890625 33.015625 
z
" id="DejaVuSans-68"/>
     <path d="M 8.59375 75.984375 
L 29.296875 75.984375 
L 29.296875 69 
L 17.578125 69 
L 17.578125 -6.203125 
L 29.296875 -6.203125 
L 29.296875 -13.1875 
L 8.59375 -13.1875 
z
" id="DejaVuSans-5b"/>
     <path d="M 30.421875 75.984375 
L 30.421875 -13.1875 
L 9.71875 -13.1875 
L 9.71875 -6.203125 
L 21.390625 -6.203125 
L 21.390625 69 
L 9.71875 69 
L 9.71875 75.984375 
z
" id="DejaVuSans-5d"/>
    </defs>
    <g transform="translate(143.7325 16.318125)scale(0.12 -0.12)">
     <use xlink:href="#DejaVuSans-47"/>
     <use x="77.490234" xlink:href="#DejaVuSans-65"/>
     <use x="139.013672" xlink:href="#DejaVuSans-74"/>
     <use x="178.222656" xlink:href="#DejaVuSans-20"/>
     <use x="210.009766" xlink:href="#DejaVuSans-66"/>
     <use x="245.214844" xlink:href="#DejaVuSans-69"/>
     <use x="272.998047" xlink:href="#DejaVuSans-6c"/>
     <use x="300.78125" xlink:href="#DejaVuSans-74"/>
     <use x="339.990234" xlink:href="#DejaVuSans-65"/>
     <use x="401.513672" xlink:href="#DejaVuSans-72"/>
     <use x="442.595703" xlink:href="#DejaVuSans-65"/>
     <use x="504.119141" xlink:href="#DejaVuSans-64"/>
     <use x="567.595703" xlink:href="#DejaVuSans-20"/>
     <use x="599.382812" xlink:href="#DejaVuSans-63"/>
     <use x="654.363281" xlink:href="#DejaVuSans-68"/>
     <use x="717.742188" xlink:href="#DejaVuSans-69"/>
     <use x="745.525391" xlink:href="#DejaVuSans-6c"/>
     <use x="773.308594" xlink:href="#DejaVuSans-64"/>
     <use x="836.785156" xlink:href="#DejaVuSans-72"/>
     <use x="877.867188" xlink:href="#DejaVuSans-65"/>
     <use x="939.390625" xlink:href="#DejaVuSans-6e"/>
     <use x="1002.769531" xlink:href="#DejaVuSans-20"/>
     <use x="1034.556641" xlink:href="#DejaVuSans-63"/>
     <use x="1089.537109" xlink:href="#DejaVuSans-6f"/>
     <use x="1150.71875" xlink:href="#DejaVuSans-75"/>
     <use x="1214.097656" xlink:href="#DejaVuSans-6e"/>
     <use x="1277.476562" xlink:href="#DejaVuSans-74"/>
     <use x="1316.685547" xlink:href="#DejaVuSans-20"/>
     <use x="1348.472656" xlink:href="#DejaVuSans-5b"/>
     <use x="1387.486328" xlink:href="#DejaVuSans-6c"/>
     <use x="1415.269531" xlink:href="#DejaVuSans-65"/>
     <use x="1476.792969" xlink:href="#DejaVuSans-61"/>
     <use x="1538.072266" xlink:href="#DejaVuSans-66"/>
     <use x="1573.277344" xlink:href="#DejaVuSans-5d"/>
    </g>
   </g>
   <g id="legend_1">
    <g id="patch_7">
     <path d="M 92.429688 365.802375 
L 380.989062 365.802375 
Q 382.989062 365.802375 382.989062 363.802375 
L 382.989062 335.446125 
Q 382.989062 333.446125 380.989062 333.446125 
L 92.429688 333.446125 
Q 90.429688 333.446125 90.429688 335.446125 
L 90.429688 363.802375 
Q 90.429688 365.802375 92.429688 365.802375 
z
" style="fill:#4c4c4c;opacity:0.5;stroke:#4c4c4c;stroke-linejoin:miter;"/>
    </g>
    <g id="patch_8">
     <path d="M 90.429688 363.802375 
L 378.989062 363.802375 
Q 380.989062 363.802375 380.989062 361.802375 
L 380.989062 333.446125 
Q 380.989062 331.446125 378.989062 331.446125 
L 90.429688 331.446125 
Q 88.429688 331.446125 88.429688 333.446125 
L 88.429688 361.802375 
Q 88.429688 363.802375 90.429688 363.802375 
z
" style="fill:#ffffff;stroke:#cccccc;stroke-linejoin:miter;"/>
    </g>
    <g id="line2d_20">
     <path d="M 92.429688 339.544562 
L 112.429688 339.544562 
" style="fill:none;opacity:0.8;stroke:#1f77b4;stroke-linecap:square;stroke-width:1.5;"/>
    </g>
    <g id="line2d_21"/>
    <g id="text_18">
     <!-- MPTT -->
     <defs>
      <path d="M 9.8125 72.90625 
L 24.515625 72.90625 
L 43.109375 23.296875 
L 61.8125 72.90625 
L 76.515625 72.90625 
L 76.515625 0 
L 66.890625 0 
L 66.890625 64.015625 
L 48.09375 14.015625 
L 38.1875 14.015625 
L 19.390625 64.015625 
L 19.390625 0 
L 9.8125 0 
z
" id="DejaVuSans-4d"/>
      <path d="M 19.671875 64.796875 
L 19.671875 37.40625 
L 32.078125 37.40625 
Q 38.96875 37.40625 42.71875 40.96875 
Q 46.484375 44.53125 46.484375 51.125 
Q 46.484375 57.671875 42.71875 61.234375 
Q 38.96875 64.796875 32.078125 64.796875 
z
M 9.8125 72.90625 
L 32.078125 72.90625 
Q 44.34375 72.90625 50.609375 67.359375 
Q 56.890625 61.8125 56.890625 51.125 
Q 56.890625 40.328125 50.609375 34.8125 
Q 44.34375 29.296875 32.078125 29.296875 
L 19.671875 29.296875 
L 19.671875 0 
L 9.8125 0 
z
" id="DejaVuSans-50"/>
      <path d="M -0.296875 72.90625 
L 61.375 72.90625 
L 61.375 64.59375 
L 35.5 64.59375 
L 35.5 0 
L 25.59375 0 
L 25.59375 64.59375 
L -0.296875 64.59375 
z
" id="DejaVuSans-54"/>
     </defs>
     <g transform="translate(120.429688 343.044562)scale(0.1 -0.1)">
      <use xlink:href="#DejaVuSans-4d"/>
      <use x="86.279297" xlink:href="#DejaVuSans-50"/>
      <use x="146.582031" xlink:href="#DejaVuSans-54"/>
      <use x="207.650391" xlink:href="#DejaVuSans-54"/>
     </g>
    </g>
    <g id="line2d_22">
     <path d="M 92.429688 354.222687 
L 112.429688 354.222687 
" style="fill:none;opacity:0.8;stroke:#ff7f0e;stroke-linecap:square;stroke-width:1.5;"/>
    </g>
    <g id="line2d_23"/>
    <g id="text_19">
     <!-- tree -->
     <g transform="translate(120.429688 357.722687)scale(0.1 -0.1)">
      <use xlink:href="#DejaVuSans-74"/>
      <use x="39.208984" xlink:href="#DejaVuSans-72"/>
      <use x="80.291016" xlink:href="#DejaVuSans-65"/>
      <use x="141.814453" xlink:href="#DejaVuSans-65"/>
     </g>
    </g>
    <g id="line2d_24">
     <path d="M 167.301562 339.544562 
L 187.301562 339.544562 
" style="fill:none;opacity:0.8;stroke:#2ca02c;stroke-linecap:square;stroke-width:1.5;"/>
    </g>
    <g id="line2d_25"/>
    <g id="text_20">
     <!-- treebeard AL -->
     <defs>
      <path d="M 9.8125 72.90625 
L 19.671875 72.90625 
L 19.671875 8.296875 
L 55.171875 8.296875 
L 55.171875 0 
L 9.8125 0 
z
" id="DejaVuSans-4c"/>
     </defs>
     <g transform="translate(195.301562 343.044562)scale(0.1 -0.1)">
      <use xlink:href="#DejaVuSans-74"/>
      <use x="39.208984" xlink:href="#DejaVuSans-72"/>
      <use x="80.291016" xlink:href="#DejaVuSans-65"/>
      <use x="141.814453" xlink:href="#DejaVuSans-65"/>
      <use x="203.337891" xlink:href="#DejaVuSans-62"/>
      <use x="266.814453" xlink:href="#DejaVuSans-65"/>
      <use x="328.337891" xlink:href="#DejaVuSans-61"/>
      <use x="389.617188" xlink:href="#DejaVuSans-72"/>
      <use x="430.714844" xlink:href="#DejaVuSans-64"/>
      <use x="494.191406" xlink:href="#DejaVuSans-20"/>
      <use x="525.978516" xlink:href="#DejaVuSans-41"/>
      <use x="594.386719" xlink:href="#DejaVuSans-4c"/>
     </g>
    </g>
    <g id="line2d_26">
     <path d="M 167.301562 354.222687 
L 187.301562 354.222687 
" style="fill:none;opacity:0.8;stroke:#d62728;stroke-linecap:square;stroke-width:1.5;"/>
    </g>
    <g id="line2d_27"/>
    <g id="text_21">
     <!-- treebeard MP -->
     <g transform="translate(195.301562 357.722687)scale(0.1 -0.1)">
      <use xlink:href="#DejaVuSans-74"/>
      <use x="39.208984" xlink:href="#DejaVuSans-72"/>
      <use x="80.291016" xlink:href="#DejaVuSans-65"/>
      <use x="141.814453" xlink:href="#DejaVuSans-65"/>
      <use x="203.337891" xlink:href="#DejaVuSans-62"/>
      <use x="266.814453" xlink:href="#DejaVuSans-65"/>
      <use x="328.337891" xlink:href="#DejaVuSans-61"/>
      <use x="389.617188" xlink:href="#DejaVuSans-72"/>
      <use x="430.714844" xlink:href="#DejaVuSans-64"/>
      <use x="494.191406" xlink:href="#DejaVuSans-20"/>
      <use x="525.978516" xlink:href="#DejaVuSans-4d"/>
      <use x="612.257812" xlink:href="#DejaVuSans-50"/>
     </g>
    </g>
    <g id="line2d_28">
     <path d="M 282.559375 339.544562 
L 302.559375 339.544562 
" style="fill:none;opacity:0.8;stroke:#9467bd;stroke-linecap:square;stroke-width:1.5;"/>
    </g>
    <g id="line2d_29"/>
    <g id="text_22">
     <!-- treebeard NS -->
     <defs>
      <path d="M 9.8125 72.90625 
L 23.09375 72.90625 
L 55.421875 11.921875 
L 55.421875 72.90625 
L 64.984375 72.90625 
L 64.984375 0 
L 51.703125 0 
L 19.390625 60.984375 
L 19.390625 0 
L 9.8125 0 
z
" id="DejaVuSans-4e"/>
      <path d="M 53.515625 70.515625 
L 53.515625 60.890625 
Q 47.90625 63.578125 42.921875 64.890625 
Q 37.9375 66.21875 33.296875 66.21875 
Q 25.25 66.21875 20.875 63.09375 
Q 16.5 59.96875 16.5 54.203125 
Q 16.5 49.359375 19.40625 46.890625 
Q 22.3125 44.4375 30.421875 42.921875 
L 36.375 41.703125 
Q 47.40625 39.59375 52.65625 34.296875 
Q 57.90625 29 57.90625 20.125 
Q 57.90625 9.515625 50.796875 4.046875 
Q 43.703125 -1.421875 29.984375 -1.421875 
Q 24.8125 -1.421875 18.96875 -0.25 
Q 13.140625 0.921875 6.890625 3.21875 
L 6.890625 13.375 
Q 12.890625 10.015625 18.65625 8.296875 
Q 24.421875 6.59375 29.984375 6.59375 
Q 38.421875 6.59375 43.015625 9.90625 
Q 47.609375 13.234375 47.609375 19.390625 
Q 47.609375 24.75 44.3125 27.78125 
Q 41.015625 30.8125 33.5 32.328125 
L 27.484375 33.5 
Q 16.453125 35.6875 11.515625 40.375 
Q 6.59375 45.0625 6.59375 53.421875 
Q 6.59375 63.09375 13.40625 68.65625 
Q 20.21875 74.21875 32.171875 74.21875 
Q 37.3125 74.21875 42.625 73.28125 
Q 47.953125 72.359375 53.515625 70.515625 
z
" id="DejaVuSans-53"/>
     </defs>
     <g transform="translate(310.559375 343.044562)scale(0.1 -0.1)">
      <use xlink:href="#DejaVuSans-74"/>
      <use x="39.208984" xlink:href="#DejaVuSans-72"/>
      <use x="80.291016" xlink:href="#DejaVuSans-65"/>
      <use x="141.814453" xlink:href="#DejaVuSans-65"/>
      <use x="203.337891" xlink:href="#DejaVuSans-62"/>
      <use x="266.814453" xlink:href="#DejaVuSans-65"/>
      <use x="328.337891" xlink:href="#DejaVuSans-61"/>
      <use x="389.617188" xlink:href="#DejaVuSans-72"/>
      <use x="430.714844" xlink:href="#DejaVuSans-64"/>
      <use x="494.191406" xlink:href="#DejaVuSans-20"/>
      <use x="525.978516" xlink:href="#DejaVuSans-4e"/>
      <use x="600.783203" xlink:href="#DejaVuSans-53"/>
     </g>
    </g>
   </g>
  </g>
 </g>
 <defs>
  <clipPath id="p8fca6e6735">
   <rect height="266.112" width="357.12" x="61.909375" y="22.318125"/>
  </clipPath>
 </defs>
</svg>
