<?xml version="1.0" encoding="utf-8" standalone="no"?>
<!DOCTYPE svg PUBLIC "-//W3C//DTD SVG 1.1//EN"
  "http://www.w3.org/Graphics/SVG/1.1/DTD/svg11.dtd">
<svg xmlns:xlink="http://www.w3.org/1999/xlink" width="426.035625pt" height="371.002375pt" viewBox="0 0 426.035625 371.002375" xmlns="http://www.w3.org/2000/svg" version="1.1">
 <metadata>
  <rdf:RDF xmlns:dc="http://purl.org/dc/elements/1.1/" xmlns:cc="http://creativecommons.org/ns#" xmlns:rdf="http://www.w3.org/1999/02/22-rdf-syntax-ns#">
   <cc:Work>
    <dc:type rdf:resource="http://purl.org/dc/dcmitype/StillImage"/>
    <dc:date>2026-06-28T20:25:07.757172</dc:date>
    <dc:format>image/svg+xml</dc:format>
    <dc:creator>
     <cc:Agent>
      <dc:title>Matplotlib v3.10.6, https://matplotlib.org/</dc:title>
     </cc:Agent>
    </dc:creator>
   </cc:Work>
  </rdf:RDF>
 </metadata>
 <defs>
  <style type="text/css">*{stroke-linejoin: round; stroke-linecap: butt}</style>
 </defs>
 <g id="figure_1">
  <g id="patch_1">
   <path d="M 0 371.002375 
L 426.035625 371.002375 
L 426.035625 0 
L 0 0 
z
" style="fill: #ffffff"/>
  </g>
  <g id="axes_1">
   <g id="patch_2">
    <path d="M 61.715625 288.430125 
L 418.835625 288.430125 
L 418.835625 22.318125 
L 61.715625 22.318125 
z
" style="fill: #ffffff"/>
   </g>
   <g id="matplotlib.axis_1">
    <g id="xtick_1">
     <g id="line2d_1">
      <defs>
       <path id="m248e5d15d2" d="M 0 0 
L 0 3.5 
" style="stroke: #000000; stroke-width: 0.8"/>
      </defs>
      <g>
       <use xlink:href="#m248e5d15d2" x="61.715625" y="288.430125" style="stroke: #000000; stroke-width: 0.8"/>
      </g>
     </g>
     <g id="text_1">
      <!-- 0 -->
      <g transform="translate(58.534375 303.028562) scale(0.1 -0.1)">
       <defs>
        <path id="DejaVuSans-30" d="M 2034 4250 
Q 1547 4250 1301 3770 
Q 1056 3291 1056 2328 
Q 1056 1369 1301 889 
Q 1547 409 2034 409 
Q 2525 409 2770 889 
Q 3016 1369 3016 2328 
Q 3016 3291 2770 3770 
Q 2525 4250 2034 4250 
z
M 2034 4750 
Q 2819 4750 3233 4129 
Q 3647 3509 3647 2328 
Q 3647 1150 3233 529 
Q 2819 -91 2034 -91 
Q 1250 -91 836 529 
Q 422 1150 422 2328 
Q 422 3509 836 4129 
Q 1250 4750 2034 4750 
z
" transform="scale(0.015625)"/>
       </defs>
       <use xlink:href="#DejaVuSans-30"/>
      </g>
     </g>
    </g>
    <g id="xtick_2">
     <g id="line2d_2">
      <g>
       <use xlink:href="#m248e5d15d2" x="105.264189" y="288.430125" style="stroke: #000000; stroke-width: 0.8"/>
      </g>
     </g>
     <g id="text_2">
      <!-- 500  -->
      <g transform="translate(94.131377 303.028562) scale(0.1 -0.1)">
       <defs>
        <path id="DejaVuSans-35" d="M 691 4666 
L 3169 4666 
L 3169 4134 
L 1269 4134 
L 1269 2991 
Q 1406 3038 1543 3061 
Q 1681 3084 1819 3084 
Q 2600 3084 3056 2656 
Q 3513 2228 3513 1497 
Q 3513 744 3044 326 
Q 2575 -91 1722 -91 
Q 1428 -91 1123 -41 
Q 819 9 494 109 
L 494 744 
Q 775 591 1075 516 
Q 1375 441 1709 441 
Q 2250 441 2565 725 
Q 2881 1009 2881 1497 
Q 2881 1984 2565 2268 
Q 2250 2553 1709 2553 
Q 1456 2553 1204 2497 
Q 953 2441 691 2322 
L 691 4666 
z
" transform="scale(0.015625)"/>
        <path id="DejaVuSans-20" transform="scale(0.015625)"/>
       </defs>
       <use xlink:href="#DejaVuSans-35"/>
       <use xlink:href="#DejaVuSans-30" transform="translate(63.623047 0)"/>
       <use xlink:href="#DejaVuSans-30" transform="translate(127.246094 0)"/>
       <use xlink:href="#DejaVuSans-20" transform="translate(190.869141 0)"/>
      </g>
     </g>
    </g>
    <g id="xtick_3">
     <g id="line2d_3">
      <g>
       <use xlink:href="#m248e5d15d2" x="148.812753" y="288.430125" style="stroke: #000000; stroke-width: 0.8"/>
      </g>
     </g>
     <g id="text_3">
      <!-- 1 k -->
      <g transform="translate(141.147128 303.028562) scale(0.1 -0.1)">
       <defs>
        <path id="DejaVuSans-31" d="M 794 531 
L 1825 531 
L 1825 4091 
L 703 3866 
L 703 4441 
L 1819 4666 
L 2450 4666 
L 2450 531 
L 3481 531 
L 3481 0 
L 794 0 
L 794 531 
z
" transform="scale(0.015625)"/>
        <path id="DejaVuSans-6b" d="M 581 4863 
L 1159 4863 
L 1159 1991 
L 2875 3500 
L 3609 3500 
L 1753 1863 
L 3688 0 
L 2938 0 
L 1159 1709 
L 1159 0 
L 581 0 
L 581 4863 
z
" transform="scale(0.015625)"/>
       </defs>
       <use xlink:href="#DejaVuSans-31"/>
       <use xlink:href="#DejaVuSans-20" transform="translate(63.623047 0)"/>
       <use xlink:href="#DejaVuSans-6b" transform="translate(95.410156 0)"/>
      </g>
     </g>
    </g>
    <g id="xtick_4">
     <g id="line2d_4">
      <g>
       <use xlink:href="#m248e5d15d2" x="192.361317" y="288.430125" style="stroke: #000000; stroke-width: 0.8"/>
      </g>
     </g>
     <g id="text_4">
      <!-- 1.5 k -->
      <g transform="translate(179.92538 303.028562) scale(0.1 -0.1)">
       <defs>
        <path id="DejaVuSans-2e" d="M 684 794 
L 1344 794 
L 1344 0 
L 684 0 
L 684 794 
z
" transform="scale(0.015625)"/>
       </defs>
       <use xlink:href="#DejaVuSans-31"/>
       <use xlink:href="#DejaVuSans-2e" transform="translate(63.623047 0)"/>
       <use xlink:href="#DejaVuSans-35" transform="translate(95.410156 0)"/>
       <use xlink:href="#DejaVuSans-20" transform="translate(159.033203 0)"/>
       <use xlink:href="#DejaVuSans-6b" transform="translate(190.820312 0)"/>
      </g>
     </g>
    </g>
    <g id="xtick_5">
     <g id="line2d_5">
      <g>
       <use xlink:href="#m248e5d15d2" x="235.909881" y="288.430125" style="stroke: #000000; stroke-width: 0.8"/>
      </g>
     </g>
     <g id="text_5">
      <!-- 2 k -->
      <g transform="translate(228.244256 303.028562) scale(0.1 -0.1)">
       <defs>
        <path id="DejaVuSans-32" d="M 1228 531 
L 3431 531 
L 3431 0 
L 469 0 
L 469 531 
Q 828 903 1448 1529 
Q 2069 2156 2228 2338 
Q 2531 2678 2651 2914 
Q 2772 3150 2772 3378 
Q 2772 3750 2511 3984 
Q 2250 4219 1831 4219 
Q 1534 4219 1204 4116 
Q 875 4013 500 3803 
L 500 4441 
Q 881 4594 1212 4672 
Q 1544 4750 1819 4750 
Q 2544 4750 2975 4387 
Q 3406 4025 3406 3419 
Q 3406 3131 3298 2873 
Q 3191 2616 2906 2266 
Q 2828 2175 2409 1742 
Q 1991 1309 1228 531 
z
" transform="scale(0.015625)"/>
       </defs>
       <use xlink:href="#DejaVuSans-32"/>
       <use xlink:href="#DejaVuSans-20" transform="translate(63.623047 0)"/>
       <use xlink:href="#DejaVuSans-6b" transform="translate(95.410156 0)"/>
      </g>
     </g>
    </g>
    <g id="xtick_6">
     <g id="line2d_6">
      <g>
       <use xlink:href="#m248e5d15d2" x="279.458446" y="288.430125" style="stroke: #000000; stroke-width: 0.8"/>
      </g>
     </g>
     <g id="text_6">
      <!-- 2.5 k -->
      <g transform="translate(267.022508 303.028562) scale(0.1 -0.1)">
       <use xlink:href="#DejaVuSans-32"/>
       <use xlink:href="#DejaVuSans-2e" transform="translate(63.623047 0)"/>
       <use xlink:href="#DejaVuSans-35" transform="translate(95.410156 0)"/>
       <use xlink:href="#DejaVuSans-20" transform="translate(159.033203 0)"/>
       <use xlink:href="#DejaVuSans-6b" transform="translate(190.820312 0)"/>
      </g>
     </g>
    </g>
    <g id="xtick_7">
     <g id="line2d_7">
      <g>
       <use xlink:href="#m248e5d15d2" x="323.00701" y="288.430125" style="stroke: #000000; stroke-width: 0.8"/>
      </g>
     </g>
     <g id="text_7">
      <!-- 3 k -->
      <g transform="translate(315.341385 303.028562) scale(0.1 -0.1)">
       <defs>
        <path id="DejaVuSans-33" d="M 2597 2516 
Q 3050 2419 3304 2112 
Q 3559 1806 3559 1356 
Q 3559 666 3084 287 
Q 2609 -91 1734 -91 
Q 1441 -91 1130 -33 
Q 819 25 488 141 
L 488 750 
Q 750 597 1062 519 
Q 1375 441 1716 441 
Q 2309 441 2620 675 
Q 2931 909 2931 1356 
Q 2931 1769 2642 2001 
Q 2353 2234 1838 2234 
L 1294 2234 
L 1294 2753 
L 1863 2753 
Q 2328 2753 2575 2939 
Q 2822 3125 2822 3475 
Q 2822 3834 2567 4026 
Q 2313 4219 1838 4219 
Q 1578 4219 1281 4162 
Q 984 4106 628 3988 
L 628 4550 
Q 988 4650 1302 4700 
Q 1616 4750 1894 4750 
Q 2613 4750 3031 4423 
Q 3450 4097 3450 3541 
Q 3450 3153 3228 2886 
Q 3006 2619 2597 2516 
z
" transform="scale(0.015625)"/>
       </defs>
       <use xlink:href="#DejaVuSans-33"/>
       <use xlink:href="#DejaVuSans-20" transform="translate(63.623047 0)"/>
       <use xlink:href="#DejaVuSans-6b" transform="translate(95.410156 0)"/>
      </g>
     </g>
    </g>
    <g id="xtick_8">
     <g id="line2d_8">
      <g>
       <use xlink:href="#m248e5d15d2" x="366.555574" y="288.430125" style="stroke: #000000; stroke-width: 0.8"/>
      </g>
     </g>
     <g id="text_8">
      <!-- 3.5 k -->
      <g transform="translate(354.119636 303.028562) scale(0.1 -0.1)">
       <use xlink:href="#DejaVuSans-33"/>
       <use xlink:href="#DejaVuSans-2e" transform="translate(63.623047 0)"/>
       <use xlink:href="#DejaVuSans-35" transform="translate(95.410156 0)"/>
       <use xlink:href="#DejaVuSans-20" transform="translate(159.033203 0)"/>
       <use xlink:href="#DejaVuSans-6b" transform="translate(190.820312 0)"/>
      </g>
     </g>
    </g>
    <g id="xtick_9">
     <g id="line2d_9">
      <g>
       <use xlink:href="#m248e5d15d2" x="410.104138" y="288.430125" style="stroke: #000000; stroke-width: 0.8"/>
      </g>
     </g>
     <g id="text_9">
      <!-- 4 k -->
      <g transform="translate(402.438513 303.028562) scale(0.1 -0.1)">
       <defs>
        <path id="DejaVuSans-34" d="M 2419 4116 
L 825 1625 
L 2419 1625 
L 2419 4116 
z
M 2253 4666 
L 3047 4666 
L 3047 1625 
L 3713 1625 
L 3713 1100 
L 3047 1100 
L 3047 0 
L 2419 0 
L 2419 1100 
L 313 1100 
L 313 1709 
L 2253 4666 
z
" transform="scale(0.015625)"/>
       </defs>
       <use xlink:href="#DejaVuSans-34"/>
       <use xlink:href="#DejaVuSans-20" transform="translate(63.623047 0)"/>
       <use xlink:href="#DejaVuSans-6b" transform="translate(95.410156 0)"/>
      </g>
     </g>
    </g>
    <g id="text_10">
     <!-- Amount of objects in table -->
     <g transform="translate(174.217031 316.706687) scale(0.1 -0.1)">
      <defs>
       <path id="DejaVuSans-41" d="M 2188 4044 
L 1331 1722 
L 3047 1722 
L 2188 4044 
z
M 1831 4666 
L 2547 4666 
L 4325 0 
L 3669 0 
L 3244 1197 
L 1141 1197 
L 716 0 
L 50 0 
L 1831 4666 
z
" transform="scale(0.015625)"/>
       <path id="DejaVuSans-6d" d="M 3328 2828 
Q 3544 3216 3844 3400 
Q 4144 3584 4550 3584 
Q 5097 3584 5394 3201 
Q 5691 2819 5691 2113 
L 5691 0 
L 5113 0 
L 5113 2094 
Q 5113 2597 4934 2840 
Q 4756 3084 4391 3084 
Q 3944 3084 3684 2787 
Q 3425 2491 3425 1978 
L 3425 0 
L 2847 0 
L 2847 2094 
Q 2847 2600 2669 2842 
Q 2491 3084 2119 3084 
Q 1678 3084 1418 2786 
Q 1159 2488 1159 1978 
L 1159 0 
L 581 0 
L 581 3500 
L 1159 3500 
L 1159 2956 
Q 1356 3278 1631 3431 
Q 1906 3584 2284 3584 
Q 2666 3584 2933 3390 
Q 3200 3197 3328 2828 
z
" transform="scale(0.015625)"/>
       <path id="DejaVuSans-6f" d="M 1959 3097 
Q 1497 3097 1228 2736 
Q 959 2375 959 1747 
Q 959 1119 1226 758 
Q 1494 397 1959 397 
Q 2419 397 2687 759 
Q 2956 1122 2956 1747 
Q 2956 2369 2687 2733 
Q 2419 3097 1959 3097 
z
M 1959 3584 
Q 2709 3584 3137 3096 
Q 3566 2609 3566 1747 
Q 3566 888 3137 398 
Q 2709 -91 1959 -91 
Q 1206 -91 779 398 
Q 353 888 353 1747 
Q 353 2609 779 3096 
Q 1206 3584 1959 3584 
z
" transform="scale(0.015625)"/>
       <path id="DejaVuSans-75" d="M 544 1381 
L 544 3500 
L 1119 3500 
L 1119 1403 
Q 1119 906 1312 657 
Q 1506 409 1894 409 
Q 2359 409 2629 706 
Q 2900 1003 2900 1516 
L 2900 3500 
L 3475 3500 
L 3475 0 
L 2900 0 
L 2900 538 
Q 2691 219 2414 64 
Q 2138 -91 1772 -91 
Q 1169 -91 856 284 
Q 544 659 544 1381 
z
M 1991 3584 
L 1991 3584 
z
" transform="scale(0.015625)"/>
       <path id="DejaVuSans-6e" d="M 3513 2113 
L 3513 0 
L 2938 0 
L 2938 2094 
Q 2938 2591 2744 2837 
Q 2550 3084 2163 3084 
Q 1697 3084 1428 2787 
Q 1159 2491 1159 1978 
L 1159 0 
L 581 0 
L 581 3500 
L 1159 3500 
L 1159 2956 
Q 1366 3272 1645 3428 
Q 1925 3584 2291 3584 
Q 2894 3584 3203 3211 
Q 3513 2838 3513 2113 
z
" transform="scale(0.015625)"/>
       <path id="DejaVuSans-74" d="M 1172 4494 
L 1172 3500 
L 2356 3500 
L 2356 3053 
L 1172 3053 
L 1172 1153 
Q 1172 725 1289 603 
Q 1406 481 1766 481 
L 2356 481 
L 2356 0 
L 1766 0 
Q 1100 0 847 248 
Q 594 497 594 1153 
L 594 3053 
L 172 3053 
L 172 3500 
L 594 3500 
L 594 4494 
L 1172 4494 
z
" transform="scale(0.015625)"/>
       <path id="DejaVuSans-66" d="M 2375 4863 
L 2375 4384 
L 1825 4384 
Q 1516 4384 1395 4259 
Q 1275 4134 1275 3809 
L 1275 3500 
L 2222 3500 
L 2222 3053 
L 1275 3053 
L 1275 0 
L 697 0 
L 697 3053 
L 147 3053 
L 147 3500 
L 697 3500 
L 697 3744 
Q 697 4328 969 4595 
Q 1241 4863 1831 4863 
L 2375 4863 
z
" transform="scale(0.015625)"/>
       <path id="DejaVuSans-62" d="M 3116 1747 
Q 3116 2381 2855 2742 
Q 2594 3103 2138 3103 
Q 1681 3103 1420 2742 
Q 1159 2381 1159 1747 
Q 1159 1113 1420 752 
Q 1681 391 2138 391 
Q 2594 391 2855 752 
Q 3116 1113 3116 1747 
z
M 1159 2969 
Q 1341 3281 1617 3432 
Q 1894 3584 2278 3584 
Q 2916 3584 3314 3078 
Q 3713 2572 3713 1747 
Q 3713 922 3314 415 
Q 2916 -91 2278 -91 
Q 1894 -91 1617 61 
Q 1341 213 1159 525 
L 1159 0 
L 581 0 
L 581 4863 
L 1159 4863 
L 1159 2969 
z
" transform="scale(0.015625)"/>
       <path id="DejaVuSans-6a" d="M 603 3500 
L 1178 3500 
L 1178 -63 
Q 1178 -731 923 -1031 
Q 669 -1331 103 -1331 
L -116 -1331 
L -116 -844 
L 38 -844 
Q 366 -844 484 -692 
Q 603 -541 603 -63 
L 603 3500 
z
M 603 4863 
L 1178 4863 
L 1178 4134 
L 603 4134 
L 603 4863 
z
" transform="scale(0.015625)"/>
       <path id="DejaVuSans-65" d="M 3597 1894 
L 3597 1613 
L 953 1613 
Q 991 1019 1311 708 
Q 1631 397 2203 397 
Q 2534 397 2845 478 
Q 3156 559 3463 722 
L 3463 178 
Q 3153 47 2828 -22 
Q 2503 -91 2169 -91 
Q 1331 -91 842 396 
Q 353 884 353 1716 
Q 353 2575 817 3079 
Q 1281 3584 2069 3584 
Q 2775 3584 3186 3129 
Q 3597 2675 3597 1894 
z
M 3022 2063 
Q 3016 2534 2758 2815 
Q 2500 3097 2075 3097 
Q 1594 3097 1305 2825 
Q 1016 2553 972 2059 
L 3022 2063 
z
" transform="scale(0.015625)"/>
       <path id="DejaVuSans-63" d="M 3122 3366 
L 3122 2828 
Q 2878 2963 2633 3030 
Q 2388 3097 2138 3097 
Q 1578 3097 1268 2742 
Q 959 2388 959 1747 
Q 959 1106 1268 751 
Q 1578 397 2138 397 
Q 2388 397 2633 464 
Q 2878 531 3122 666 
L 3122 134 
Q 2881 22 2623 -34 
Q 2366 -91 2075 -91 
Q 1284 -91 818 406 
Q 353 903 353 1747 
Q 353 2603 823 3093 
Q 1294 3584 2113 3584 
Q 2378 3584 2631 3529 
Q 2884 3475 3122 3366 
z
" transform="scale(0.015625)"/>
       <path id="DejaVuSans-73" d="M 2834 3397 
L 2834 2853 
Q 2591 2978 2328 3040 
Q 2066 3103 1784 3103 
Q 1356 3103 1142 2972 
Q 928 2841 928 2578 
Q 928 2378 1081 2264 
Q 1234 2150 1697 2047 
L 1894 2003 
Q 2506 1872 2764 1633 
Q 3022 1394 3022 966 
Q 3022 478 2636 193 
Q 2250 -91 1575 -91 
Q 1294 -91 989 -36 
Q 684 19 347 128 
L 347 722 
Q 666 556 975 473 
Q 1284 391 1588 391 
Q 1994 391 2212 530 
Q 2431 669 2431 922 
Q 2431 1156 2273 1281 
Q 2116 1406 1581 1522 
L 1381 1569 
Q 847 1681 609 1914 
Q 372 2147 372 2553 
Q 372 3047 722 3315 
Q 1072 3584 1716 3584 
Q 2034 3584 2315 3537 
Q 2597 3491 2834 3397 
z
" transform="scale(0.015625)"/>
       <path id="DejaVuSans-69" d="M 603 3500 
L 1178 3500 
L 1178 0 
L 603 0 
L 603 3500 
z
M 603 4863 
L 1178 4863 
L 1178 4134 
L 603 4134 
L 603 4863 
z
" transform="scale(0.015625)"/>
       <path id="DejaVuSans-61" d="M 2194 1759 
Q 1497 1759 1228 1600 
Q 959 1441 959 1056 
Q 959 750 1161 570 
Q 1363 391 1709 391 
Q 2188 391 2477 730 
Q 2766 1069 2766 1631 
L 2766 1759 
L 2194 1759 
z
M 3341 1997 
L 3341 0 
L 2766 0 
L 2766 531 
Q 2569 213 2275 61 
Q 1981 -91 1556 -91 
Q 1019 -91 701 211 
Q 384 513 384 1019 
Q 384 1609 779 1909 
Q 1175 2209 1959 2209 
L 2766 2209 
L 2766 2266 
Q 2766 2663 2505 2880 
Q 2244 3097 1772 3097 
Q 1472 3097 1187 3025 
Q 903 2953 641 2809 
L 641 3341 
Q 956 3463 1253 3523 
Q 1550 3584 1831 3584 
Q 2591 3584 2966 3190 
Q 3341 2797 3341 1997 
z
" transform="scale(0.015625)"/>
       <path id="DejaVuSans-6c" d="M 603 4863 
L 1178 4863 
L 1178 0 
L 603 0 
L 603 4863 
z
" transform="scale(0.015625)"/>
      </defs>
      <use xlink:href="#DejaVuSans-41"/>
      <use xlink:href="#DejaVuSans-6d" transform="translate(68.408203 0)"/>
      <use xlink:href="#DejaVuSans-6f" transform="translate(165.820312 0)"/>
      <use xlink:href="#DejaVuSans-75" transform="translate(227.001953 0)"/>
      <use xlink:href="#DejaVuSans-6e" transform="translate(290.380859 0)"/>
      <use xlink:href="#DejaVuSans-74" transform="translate(353.759766 0)"/>
      <use xlink:href="#DejaVuSans-20" transform="translate(392.96875 0)"/>
      <use xlink:href="#DejaVuSans-6f" transform="translate(424.755859 0)"/>
      <use xlink:href="#DejaVuSans-66" transform="translate(485.9375 0)"/>
      <use xlink:href="#DejaVuSans-20" transform="translate(521.142578 0)"/>
      <use xlink:href="#DejaVuSans-6f" transform="translate(552.929688 0)"/>
      <use xlink:href="#DejaVuSans-62" transform="translate(614.111328 0)"/>
      <use xlink:href="#DejaVuSans-6a" transform="translate(677.587891 0)"/>
      <use xlink:href="#DejaVuSans-65" transform="translate(705.371094 0)"/>
      <use xlink:href="#DejaVuSans-63" transform="translate(766.894531 0)"/>
      <use xlink:href="#DejaVuSans-74" transform="translate(821.875 0)"/>
      <use xlink:href="#DejaVuSans-73" transform="translate(861.083984 0)"/>
      <use xlink:href="#DejaVuSans-20" transform="translate(913.183594 0)"/>
      <use xlink:href="#DejaVuSans-69" transform="translate(944.970703 0)"/>
      <use xlink:href="#DejaVuSans-6e" transform="translate(972.753906 0)"/>
      <use xlink:href="#DejaVuSans-20" transform="translate(1036.132812 0)"/>
      <use xlink:href="#DejaVuSans-74" transform="translate(1067.919922 0)"/>
      <use xlink:href="#DejaVuSans-61" transform="translate(1107.128906 0)"/>
      <use xlink:href="#DejaVuSans-62" transform="translate(1168.408203 0)"/>
      <use xlink:href="#DejaVuSans-6c" transform="translate(1231.884766 0)"/>
      <use xlink:href="#DejaVuSans-65" transform="translate(1259.667969 0)"/>
     </g>
    </g>
   </g>
   <g id="matplotlib.axis_2">
    <g id="ytick_1">
     <g id="line2d_10">
      <defs>
       <path id="m84c1547390" d="M 0 0 
L -3.5 0 
" style="stroke: #000000; stroke-width: 0.8"/>
      </defs>
      <g>
       <use xlink:href="#m84c1547390" x="61.715625" y="288.430125" style="stroke: #000000; stroke-width: 0.8"/>
      </g>
     </g>
     <g id="text_11">
      <!-- 0 -->
      <g transform="translate(48.353125 292.229344) scale(0.1 -0.1)">
       <use xlink:href="#DejaVuSans-30"/>
      </g>
     </g>
    </g>
    <g id="ytick_2">
     <g id="line2d_11">
      <g>
       <use xlink:href="#m84c1547390" x="61.715625" y="258.533759" style="stroke: #000000; stroke-width: 0.8"/>
      </g>
     </g>
     <g id="text_12">
      <!-- 50 µs -->
      <g transform="translate(27.240625 262.332977) scale(0.1 -0.1)">
       <defs>
        <path id="DejaVuSans-b5" d="M 544 -1331 
L 544 3500 
L 1119 3500 
L 1119 1325 
Q 1119 872 1334 640 
Q 1550 409 1972 409 
Q 2434 409 2667 671 
Q 2900 934 2900 1459 
L 2900 3500 
L 3475 3500 
L 3475 806 
Q 3475 619 3529 530 
Q 3584 441 3700 441 
Q 3728 441 3778 458 
Q 3828 475 3916 513 
L 3916 50 
Q 3788 -22 3673 -56 
Q 3559 -91 3450 -91 
Q 3234 -91 3106 31 
Q 2978 153 2931 403 
Q 2775 156 2548 32 
Q 2322 -91 2016 -91 
Q 1697 -91 1473 31 
Q 1250 153 1119 397 
L 1119 -1331 
L 544 -1331 
z
" transform="scale(0.015625)"/>
       </defs>
       <use xlink:href="#DejaVuSans-35"/>
       <use xlink:href="#DejaVuSans-30" transform="translate(63.623047 0)"/>
       <use xlink:href="#DejaVuSans-20" transform="translate(127.246094 0)"/>
       <use xlink:href="#DejaVuSans-b5" transform="translate(159.033203 0)"/>
       <use xlink:href="#DejaVuSans-73" transform="translate(222.65625 0)"/>
      </g>
     </g>
    </g>
    <g id="ytick_3">
     <g id="line2d_12">
      <g>
       <use xlink:href="#m84c1547390" x="61.715625" y="228.637392" style="stroke: #000000; stroke-width: 0.8"/>
      </g>
     </g>
     <g id="text_13">
      <!-- 100 µs -->
      <g transform="translate(20.878125 232.436611) scale(0.1 -0.1)">
       <use xlink:href="#DejaVuSans-31"/>
       <use xlink:href="#DejaVuSans-30" transform="translate(63.623047 0)"/>
       <use xlink:href="#DejaVuSans-30" transform="translate(127.246094 0)"/>
       <use xlink:href="#DejaVuSans-20" transform="translate(190.869141 0)"/>
       <use xlink:href="#DejaVuSans-b5" transform="translate(222.65625 0)"/>
       <use xlink:href="#DejaVuSans-73" transform="translate(286.279297 0)"/>
      </g>
     </g>
    </g>
    <g id="ytick_4">
     <g id="line2d_13">
      <g>
       <use xlink:href="#m84c1547390" x="61.715625" y="198.741026" style="stroke: #000000; stroke-width: 0.8"/>
      </g>
     </g>
     <g id="text_14">
      <!-- 150 µs -->
      <g transform="translate(20.878125 202.540244) scale(0.1 -0.1)">
       <use xlink:href="#DejaVuSans-31"/>
       <use xlink:href="#DejaVuSans-35" transform="translate(63.623047 0)"/>
       <use xlink:href="#DejaVuSans-30" transform="translate(127.246094 0)"/>
       <use xlink:href="#DejaVuSans-20" transform="translate(190.869141 0)"/>
       <use xlink:href="#DejaVuSans-b5" transform="translate(222.65625 0)"/>
       <use xlink:href="#DejaVuSans-73" transform="translate(286.279297 0)"/>
      </g>
     </g>
    </g>
    <g id="ytick_5">
     <g id="line2d_14">
      <g>
       <use xlink:href="#m84c1547390" x="61.715625" y="168.844659" style="stroke: #000000; stroke-width: 0.8"/>
      </g>
     </g>
     <g id="text_15">
      <!-- 200 µs -->
      <g transform="translate(20.878125 172.643878) scale(0.1 -0.1)">
       <use xlink:href="#DejaVuSans-32"/>
       <use xlink:href="#DejaVuSans-30" transform="translate(63.623047 0)"/>
       <use xlink:href="#DejaVuSans-30" transform="translate(127.246094 0)"/>
       <use xlink:href="#DejaVuSans-20" transform="translate(190.869141 0)"/>
       <use xlink:href="#DejaVuSans-b5" transform="translate(222.65625 0)"/>
       <use xlink:href="#DejaVuSans-73" transform="translate(286.279297 0)"/>
      </g>
     </g>
    </g>
    <g id="ytick_6">
     <g id="line2d_15">
      <g>
       <use xlink:href="#m84c1547390" x="61.715625" y="138.948293" style="stroke: #000000; stroke-width: 0.8"/>
      </g>
     </g>
     <g id="text_16">
      <!-- 250 µs -->
      <g transform="translate(20.878125 142.747511) scale(0.1 -0.1)">
       <use xlink:href="#DejaVuSans-32"/>
       <use xlink:href="#DejaVuSans-35" transform="translate(63.623047 0)"/>
       <use xlink:href="#DejaVuSans-30" transform="translate(127.246094 0)"/>
       <use xlink:href="#DejaVuSans-20" transform="translate(190.869141 0)"/>
       <use xlink:href="#DejaVuSans-b5" transform="translate(222.65625 0)"/>
       <use xlink:href="#DejaVuSans-73" transform="translate(286.279297 0)"/>
      </g>
     </g>
    </g>
    <g id="ytick_7">
     <g id="line2d_16">
      <g>
       <use xlink:href="#m84c1547390" x="61.715625" y="109.051926" style="stroke: #000000; stroke-width: 0.8"/>
      </g>
     </g>
     <g id="text_17">
      <!-- 300 µs -->
      <g transform="translate(20.878125 112.851145) scale(0.1 -0.1)">
       <use xlink:href="#DejaVuSans-33"/>
       <use xlink:href="#DejaVuSans-30" transform="translate(63.623047 0)"/>
       <use xlink:href="#DejaVuSans-30" transform="translate(127.246094 0)"/>
       <use xlink:href="#DejaVuSans-20" transform="translate(190.869141 0)"/>
       <use xlink:href="#DejaVuSans-b5" transform="translate(222.65625 0)"/>
       <use xlink:href="#DejaVuSans-73" transform="translate(286.279297 0)"/>
      </g>
     </g>
    </g>
    <g id="ytick_8">
     <g id="line2d_17">
      <g>
       <use xlink:href="#m84c1547390" x="61.715625" y="79.15556" style="stroke: #000000; stroke-width: 0.8"/>
      </g>
     </g>
     <g id="text_18">
      <!-- 350 µs -->
      <g transform="translate(20.878125 82.954778) scale(0.1 -0.1)">
       <use xlink:href="#DejaVuSans-33"/>
       <use xlink:href="#DejaVuSans-35" transform="translate(63.623047 0)"/>
       <use xlink:href="#DejaVuSans-30" transform="translate(127.246094 0)"/>
       <use xlink:href="#DejaVuSans-20" transform="translate(190.869141 0)"/>
       <use xlink:href="#DejaVuSans-b5" transform="translate(222.65625 0)"/>
       <use xlink:href="#DejaVuSans-73" transform="translate(286.279297 0)"/>
      </g>
     </g>
    </g>
    <g id="ytick_9">
     <g id="line2d_18">
      <g>
       <use xlink:href="#m84c1547390" x="61.715625" y="49.259193" style="stroke: #000000; stroke-width: 0.8"/>
      </g>
     </g>
     <g id="text_19">
      <!-- 400 µs -->
      <g transform="translate(20.878125 53.058412) scale(0.1 -0.1)">
       <use xlink:href="#DejaVuSans-34"/>
       <use xlink:href="#DejaVuSans-30" transform="translate(63.623047 0)"/>
       <use xlink:href="#DejaVuSans-30" transform="translate(127.246094 0)"/>
       <use xlink:href="#DejaVuSans-20" transform="translate(190.869141 0)"/>
       <use xlink:href="#DejaVuSans-b5" transform="translate(222.65625 0)"/>
       <use xlink:href="#DejaVuSans-73" transform="translate(286.279297 0)"/>
      </g>
     </g>
    </g>
    <g id="text_20">
     <!-- Read latency (s) -->
     <g transform="translate(14.798438 195.98975) rotate(-90) scale(0.1 -0.1)">
      <defs>
       <path id="DejaVuSans-52" d="M 2841 2188 
Q 3044 2119 3236 1894 
Q 3428 1669 3622 1275 
L 4263 0 
L 3584 0 
L 2988 1197 
Q 2756 1666 2539 1819 
Q 2322 1972 1947 1972 
L 1259 1972 
L 1259 0 
L 628 0 
L 628 4666 
L 2053 4666 
Q 2853 4666 3247 4331 
Q 3641 3997 3641 3322 
Q 3641 2881 3436 2590 
Q 3231 2300 2841 2188 
z
M 1259 4147 
L 1259 2491 
L 2053 2491 
Q 2509 2491 2742 2702 
Q 2975 2913 2975 3322 
Q 2975 3731 2742 3939 
Q 2509 4147 2053 4147 
L 1259 4147 
z
" transform="scale(0.015625)"/>
       <path id="DejaVuSans-64" d="M 2906 2969 
L 2906 4863 
L 3481 4863 
L 3481 0 
L 2906 0 
L 2906 525 
Q 2725 213 2448 61 
Q 2172 -91 1784 -91 
Q 1150 -91 751 415 
Q 353 922 353 1747 
Q 353 2572 751 3078 
Q 1150 3584 1784 3584 
Q 2172 3584 2448 3432 
Q 2725 3281 2906 2969 
z
M 947 1747 
Q 947 1113 1208 752 
Q 1469 391 1925 391 
Q 2381 391 2643 752 
Q 2906 1113 2906 1747 
Q 2906 2381 2643 2742 
Q 2381 3103 1925 3103 
Q 1469 3103 1208 2742 
Q 947 2381 947 1747 
z
" transform="scale(0.015625)"/>
       <path id="DejaVuSans-79" d="M 2059 -325 
Q 1816 -950 1584 -1140 
Q 1353 -1331 966 -1331 
L 506 -1331 
L 506 -850 
L 844 -850 
Q 1081 -850 1212 -737 
Q 1344 -625 1503 -206 
L 1606 56 
L 191 3500 
L 800 3500 
L 1894 763 
L 2988 3500 
L 3597 3500 
L 2059 -325 
z
" transform="scale(0.015625)"/>
       <path id="DejaVuSans-28" d="M 1984 4856 
Q 1566 4138 1362 3434 
Q 1159 2731 1159 2009 
Q 1159 1288 1364 580 
Q 1569 -128 1984 -844 
L 1484 -844 
Q 1016 -109 783 600 
Q 550 1309 550 2009 
Q 550 2706 781 3412 
Q 1013 4119 1484 4856 
L 1984 4856 
z
" transform="scale(0.015625)"/>
       <path id="DejaVuSans-29" d="M 513 4856 
L 1013 4856 
Q 1481 4119 1714 3412 
Q 1947 2706 1947 2009 
Q 1947 1309 1714 600 
Q 1481 -109 1013 -844 
L 513 -844 
Q 928 -128 1133 580 
Q 1338 1288 1338 2009 
Q 1338 2731 1133 3434 
Q 928 4138 513 4856 
z
" transform="scale(0.015625)"/>
      </defs>
      <use xlink:href="#DejaVuSans-52"/>
      <use xlink:href="#DejaVuSans-65" transform="translate(64.982422 0)"/>
      <use xlink:href="#DejaVuSans-61" transform="translate(126.505859 0)"/>
      <use xlink:href="#DejaVuSans-64" transform="translate(187.785156 0)"/>
      <use xlink:href="#DejaVuSans-20" transform="translate(251.261719 0)"/>
      <use xlink:href="#DejaVuSans-6c" transform="translate(283.048828 0)"/>
      <use xlink:href="#DejaVuSans-61" transform="translate(310.832031 0)"/>
      <use xlink:href="#DejaVuSans-74" transform="translate(372.111328 0)"/>
      <use xlink:href="#DejaVuSans-65" transform="translate(411.320312 0)"/>
      <use xlink:href="#DejaVuSans-6e" transform="translate(472.84375 0)"/>
      <use xlink:href="#DejaVuSans-63" transform="translate(536.222656 0)"/>
      <use xlink:href="#DejaVuSans-79" transform="translate(591.203125 0)"/>
      <use xlink:href="#DejaVuSans-20" transform="translate(650.382812 0)"/>
      <use xlink:href="#DejaVuSans-28" transform="translate(682.169922 0)"/>
      <use xlink:href="#DejaVuSans-73" transform="translate(721.183594 0)"/>
      <use xlink:href="#DejaVuSans-29" transform="translate(773.283203 0)"/>
     </g>
    </g>
   </g>
   <g id="line2d_19">
    <path d="M 146.635325 86.516799 
L 147.070811 87.861221 
L 147.506296 88.826953 
L 148.812753 90.951418 
L 149.248239 91.845506 
L 149.683725 93.662924 
L 150.11921 94.304796 
L 150.990181 97.173482 
L 151.861153 99.286249 
L 152.732124 102.144699 
L 153.603095 103.300508 
L 154.038581 104.159505 
L 154.474067 105.304347 
L 155.345038 106.376083 
L 156.651495 106.448458 
L 157.522466 106.122405 
L 157.957952 106.066113 
L 158.393437 105.315313 
L 159.264409 104.981218 
L 159.699894 104.845241 
L 160.13538 103.910213 
L 160.570866 101.970707 
L 161.441837 101.692172 
L 161.877322 101.285702 
L 162.312808 100.618974 
L 162.748294 100.80905 
L 163.619265 100.133549 
L 164.054751 100.186917 
L 164.490236 99.418571 
L 164.925722 99.420033 
L 165.361208 99.298677 
L 165.796693 98.808135 
L 166.667665 99.11445 
L 167.538636 99.454393 
L 167.974121 99.444158 
L 168.409607 99.260662 
L 168.845093 98.540567 
L 169.280578 98.428714 
L 169.716064 98.134827 
L 171.022521 97.90966 
L 171.458007 98.161146 
L 171.893492 97.741516 
L 172.328978 97.723971 
L 172.764463 96.253806 
L 173.199949 96.21506 
L 173.635435 95.802741 
L 174.07092 95.788851 
L 175.377377 94.759517 
L 175.812863 93.189928 
L 176.683834 92.833901 
L 178.425777 91.931771 
L 178.861262 91.964669 
L 179.296748 91.265774 
L 180.167719 90.431633 
L 180.603205 90.39508 
L 181.038691 89.836549 
L 181.474176 90.06464 
L 181.909662 89.359897 
L 182.780633 89.373787 
L 183.216119 89.210029 
L 183.651605 88.920529 
L 184.08709 88.46654 
L 184.522576 88.922722 
L 185.393547 88.207744 
L 185.829033 87.746444 
L 186.264518 87.706967 
L 186.700004 87.815164 
L 187.13549 87.664565 
L 187.570975 86.310639 
L 188.006461 86.631575 
L 188.441947 86.602333 
L 189.312918 85.73237 
L 189.748403 85.774771 
L 191.05486 85.532059 
L 191.925832 84.298027 
L 192.361317 84.271709 
L 192.796803 83.851349 
L 193.232289 83.950042 
L 193.667774 83.877667 
L 194.538746 83.442685 
L 194.974231 83.346185 
L 195.409717 83.558193 
L 195.845202 83.587435 
L 196.280688 83.193393 
L 196.716174 83.162689 
L 197.587145 82.477684 
L 198.458116 82.967495 
L 198.893602 81.309448 
L 199.329088 79.006604 
L 199.764573 78.921801 
L 200.200059 78.458308 
L 200.635545 78.389588 
L 201.07103 76.322147 
L 201.506516 76.280476 
L 202.377487 75.356414 
L 203.683944 74.458671 
L 204.11943 74.794228 
L 204.554915 74.82274 
L 205.425887 74.362902 
L 205.861372 72.541828 
L 206.732343 72.386843 
L 207.167829 72.199691 
L 207.603315 72.241362 
L 208.0388 71.812229 
L 208.474286 71.221531 
L 211.0872 69.811313 
L 211.522686 69.497688 
L 211.958171 69.480874 
L 212.393657 68.743964 
L 212.829142 69.770374 
L 213.264628 69.55398 
L 213.700114 71.431346 
L 214.135599 71.27636 
L 215.006571 71.213489 
L 215.442056 70.988322 
L 215.877542 71.272705 
L 216.313028 70.839917 
L 216.748513 70.871352 
L 217.183999 70.303318 
L 217.619485 70.386659 
L 218.05497 70.255799 
L 218.490456 69.84348 
L 219.796913 69.504268 
L 220.232398 69.885882 
L 221.538855 68.830229 
L 222.845312 68.633573 
L 223.280798 68.604331 
L 223.716283 68.233683 
L 224.151769 69.792306 
L 224.587255 70.064261 
L 225.02274 69.744056 
L 225.893712 69.890999 
L 226.329197 69.770374 
L 226.764683 70.090579 
L 227.635654 70.345719 
L 228.07114 71.394792 
L 228.506626 71.700376 
L 228.942111 71.797607 
L 229.377597 71.476671 
L 229.813082 71.581213 
L 230.248568 71.323148 
L 230.684054 70.917409 
L 231.555025 70.936417 
L 231.990511 70.765349 
L 234.167939 70.553341 
L 234.603425 70.196583 
L 235.03891 70.434909 
L 235.474396 70.426136 
L 235.909881 70.619136 
L 236.345367 70.574541 
L 237.216338 70.093503 
L 238.08731 70.076689 
L 238.522795 70.253606 
L 238.958281 70.017473 
L 239.829252 69.40265 
L 240.700224 68.25927 
L 241.571195 68.086739 
L 242.00668 68.1423 
L 242.442166 67.952224 
L 242.877652 67.592542 
L 243.313137 67.91494 
L 244.619594 67.436095 
L 245.05508 66.449162 
L 245.490566 68.090395 
L 245.926051 68.447884 
L 246.797022 68.409137 
L 247.232508 68.767358 
L 248.538965 68.102092 
L 248.974451 67.63275 
L 249.409936 68.058959 
L 249.845422 67.945644 
L 250.280908 65.946191 
L 251.151879 65.608441 
L 251.587365 65.083539 
L 252.02285 64.123655 
L 252.458336 63.951125 
L 253.329307 63.867053 
L 253.764793 64.185795 
L 254.200278 63.544655 
L 254.635764 63.74131 
L 255.07125 64.125848 
L 255.506735 63.772746 
L 255.942221 62.296002 
L 257.248678 61.20014 
L 257.684164 62.590619 
L 258.119649 62.5431 
L 259.426106 63.358965 
L 259.861592 63.470817 
L 260.297077 63.321681 
L 260.732563 64.992887 
L 261.168049 64.553519 
L 261.603534 64.408769 
L 262.474506 64.975342 
L 262.909991 64.627357 
L 263.345477 64.671951 
L 263.780962 65.064531 
L 264.216448 65.60771 
L 264.651934 65.605517 
L 265.087419 66.045616 
L 265.522905 66.086555 
L 265.958391 66.00029 
L 266.393876 65.695437 
L 266.829362 65.93157 
L 267.700333 65.811676 
L 268.571305 65.944729 
L 269.00679 65.957888 
L 269.442276 66.175014 
L 270.313247 64.946099 
L 270.748733 64.735554 
L 271.184218 64.357595 
L 271.619704 64.397072 
L 272.05519 64.165326 
L 272.490675 65.182963 
L 272.926161 65.192467 
L 273.361647 65.568233 
L 273.797132 65.547032 
L 274.232618 65.904521 
L 274.668104 66.053657 
L 275.97456 66.017835 
L 276.410046 66.378249 
L 277.281017 66.411878 
L 277.716503 66.845397 
L 278.151989 66.677253 
L 279.458446 67.610087 
L 280.329417 67.002575 
L 280.764902 66.763518 
L 281.200388 67.238708 
L 282.071359 67.055943 
L 282.942331 66.976257 
L 283.377816 66.609995 
L 284.248788 70.521174 
L 284.684273 70.25653 
L 285.119759 70.527754 
L 285.555245 70.620598 
L 285.99073 72.337862 
L 286.426216 71.974524 
L 286.861701 71.99207 
L 287.297187 72.185801 
L 288.168158 72.287418 
L 288.603644 72.645639 
L 289.03913 72.693158 
L 289.474615 72.874461 
L 290.345587 72.727517 
L 290.781072 74.441126 
L 291.216558 74.486451 
L 291.652044 71.948937 
L 292.087529 71.454739 
L 292.523015 68.84485 
L 292.9585 68.98229 
L 293.393986 69.428237 
L 294.700443 69.139468 
L 295.135929 69.188449 
L 296.442386 68.86532 
L 296.877871 68.637229 
L 297.313357 69.10657 
L 297.748842 69.321502 
L 299.055299 69.530586 
L 299.490785 69.500612 
L 299.926271 69.213305 
L 302.103699 69.128502 
L 302.97467 68.733729 
L 304.281127 69.007877 
L 305.152098 67.755569 
L 305.587584 67.547947 
L 306.02307 67.903243 
L 307.329527 68.491747 
L 307.765012 68.101361 
L 309.94244 68.243918 
L 310.377926 68.090395 
L 310.813412 68.137914 
L 312.119869 67.806743 
L 313.426326 66.228381 
L 313.861811 65.696899 
L 314.297297 65.774392 
L 314.732782 65.220978 
L 315.168268 65.741494 
L 316.039239 66.341696 
L 316.474725 66.074127 
L 316.910211 66.234961 
L 317.345696 66.524461 
L 318.216668 66.364359 
L 318.652153 65.823373 
L 319.523125 65.764888 
L 319.95861 65.891362 
L 320.394096 65.666926 
L 321.700553 66.397987 
L 322.136038 66.911924 
L 322.571524 65.880396 
L 323.00701 66.135536 
L 323.442495 65.976896 
L 323.877981 66.202063 
L 324.313467 66.054388 
L 325.184438 67.337401 
L 326.055409 67.782618 
L 326.490895 67.746065 
L 327.361866 66.990147 
L 328.232837 67.35714 
L 328.668323 65.199778 
L 329.103809 65.495858 
L 329.539294 65.38035 
L 329.97478 67.235784 
L 330.410266 67.149519 
L 330.845751 66.215953 
L 331.281237 66.329999 
L 331.716722 66.088748 
L 332.152208 65.567502 
L 332.587694 65.432255 
L 333.023179 65.430793 
L 333.458665 64.266943 
L 333.894151 64.122193 
L 334.329636 64.374409 
L 334.765122 64.489917 
L 335.200608 66.805189 
L 335.636093 67.437557 
L 336.071579 67.61886 
L 336.507065 67.991701 
L 336.94255 68.625532 
L 337.378036 68.62407 
L 337.813521 68.478588 
L 338.249007 68.595558 
L 339.119978 69.290067 
L 339.555464 69.080252 
L 339.99095 68.709604 
L 340.426435 68.831691 
L 340.861921 70.257992 
L 341.297407 70.38081 
L 341.732892 70.73903 
L 342.168378 71.563668 
L 343.039349 71.549777 
L 344.345806 70.417363 
L 344.781292 70.313553 
L 346.087749 70.570155 
L 346.523234 70.826027 
L 346.95872 70.720023 
L 347.394206 70.880125 
L 347.829691 70.685663 
L 348.700662 70.643261 
L 349.136148 70.583314 
L 349.571634 68.992524 
L 350.007119 69.323695 
L 350.442605 69.388029 
L 350.878091 69.975802 
L 351.313576 70.199507 
L 352.620033 70.291621 
L 353.491005 70.019666 
L 353.92649 70.143215 
L 354.361976 69.80181 
L 355.232947 71.138921 
L 355.668433 71.330459 
L 356.103918 71.762516 
L 356.539404 70.124208 
L 356.97489 70.601591 
L 357.410375 70.613288 
L 358.281347 69.940711 
L 358.716832 70.193658 
L 359.587804 69.572987 
L 360.023289 69.58176 
L 360.458775 69.714813 
L 360.89426 69.608078 
L 361.765232 69.722855 
L 363.071689 69.870529 
L 363.507174 69.594919 
L 363.94266 68.83096 
L 364.378146 68.814145 
L 364.813631 69.02396 
L 365.249117 68.909915 
L 365.684603 68.932577 
L 366.555574 68.832422 
L 366.991059 68.891638 
L 367.426545 68.833884 
L 367.862031 68.482244 
L 368.297516 68.451539 
L 369.168488 68.13572 
L 370.039459 68.083815 
L 370.91043 68.404751 
L 371.345916 66.979912 
L 372.216887 67.293538 
L 372.652373 67.652489 
L 373.087858 67.616667 
L 373.523344 66.979912 
L 374.394315 66.704302 
L 374.829801 66.758401 
L 375.265287 60.645996 
L 375.700772 60.342605 
L 376.136258 60.371848 
L 376.571744 62.991972 
L 377.007229 63.638961 
L 377.442715 66.34462 
L 377.8782 65.324789 
L 378.313686 65.019205 
L 378.749172 64.457019 
L 379.620143 64.935133 
L 380.055629 64.413887 
L 380.491114 64.285951 
L 381.362086 63.64481 
L 382.233057 63.457658 
L 382.668543 64.062246 
L 383.104028 64.181409 
L 383.539514 63.024139 
L 383.974999 62.710513 
L 384.410485 62.938605 
L 384.845971 62.67396 
L 385.281456 62.702472 
L 385.716942 62.606703 
L 387.023399 63.698908 
L 387.458885 63.788829 
L 387.89437 64.274985 
L 388.329856 64.329815 
L 389.200827 63.762511 
L 389.636313 64.07175 
L 390.071798 64.071019 
L 390.507284 64.288875 
L 390.94277 63.984753 
L 391.378255 63.907992 
L 391.813741 64.07175 
L 392.249227 63.89264 
L 392.684712 64.514773 
L 393.120198 64.831323 
L 393.555684 63.647734 
L 394.426655 63.241264 
L 394.86214 63.579745 
L 395.297626 63.722302 
L 395.733112 63.730344 
L 396.168597 63.853893 
L 396.604083 63.674783 
L 397.475054 64.224542 
L 397.91054 64.866414 
L 398.346026 65.039675 
L 398.781511 65.405937 
L 399.216997 65.24291 
L 399.652483 65.447607 
L 400.087968 64.537436 
L 400.523454 64.370023 
L 400.958939 63.361889 
L 401.394425 63.675515 
L 401.829911 63.467893 
L 401.829911 63.467893 
" clip-path="url(#pfa18e503b5)" style="fill: none; stroke: #1f77b4; stroke-opacity: 0.8; stroke-width: 1.5; stroke-linecap: square"/>
   </g>
   <g id="line2d_20">
    <path d="M 146.635325 125.467022 
L 147.070811 125.759447 
L 147.506296 124.26004 
L 147.941782 124.241763 
L 148.377268 124.448654 
L 149.248239 124.585362 
L 150.11921 125.015957 
L 150.990181 125.361749 
L 154.909552 127.394831 
L 155.345038 127.357547 
L 155.780523 127.019797 
L 156.216009 127.267627 
L 157.08698 127.060005 
L 157.522466 127.379479 
L 157.957952 127.258123 
L 158.828923 127.609763 
L 160.13538 128.326935 
L 161.006351 128.029393 
L 161.877322 127.533733 
L 162.312808 127.606108 
L 163.183779 127.426998 
L 164.054751 127.77937 
L 164.490236 128.018427 
L 166.232179 127.611956 
L 167.10315 127.425536 
L 167.538636 127.451854 
L 168.845093 126.585546 
L 169.280578 126.073072 
L 169.716064 125.963413 
L 171.022521 126.078921 
L 171.893492 126.086231 
L 172.328978 125.836939 
L 172.764463 125.795269 
L 173.199949 125.933439 
L 174.506406 125.062745 
L 174.941892 125.154128 
L 175.377377 125.500651 
L 175.812863 125.574488 
L 176.248349 126.116936 
L 176.683834 126.069417 
L 177.11932 126.220015 
L 177.554806 126.187118 
L 177.990291 125.731666 
L 178.425777 125.49992 
L 179.296748 125.413655 
L 179.732234 125.344935 
L 180.167719 122.826428 
L 180.603205 122.756977 
L 181.038691 122.355625 
L 181.474176 122.287636 
L 181.909662 121.977666 
L 184.522576 121.574851 
L 185.393547 121.18154 
L 186.264518 121.049218 
L 187.13549 121.411093 
L 188.441947 122.178708 
L 188.877432 122.154583 
L 189.312918 122.264242 
L 189.748403 122.182363 
L 190.183889 122.332962 
L 191.05486 122.333693 
L 191.925832 121.384044 
L 192.796803 120.875956 
L 193.232289 120.507501 
L 193.667774 120.450478 
L 194.10326 117.93782 
L 194.538746 117.847169 
L 194.974231 118.27484 
L 196.280688 118.028472 
L 197.151659 117.549627 
L 198.022631 116.729376 
L 198.893602 116.787129 
L 199.329088 116.269538 
L 200.200059 115.656908 
L 201.506516 115.439783 
L 202.377487 115.002608 
L 202.812973 114.229145 
L 203.248458 113.873118 
L 203.683944 114.546426 
L 204.11943 112.694647 
L 204.554915 112.647128 
L 204.990401 112.204836 
L 205.425887 112.167552 
L 206.732343 111.506673 
L 207.603315 111.006626 
L 208.909772 109.910765 
L 209.780743 109.846432 
L 210.216229 109.374897 
L 210.651714 109.337613 
L 211.0872 109.134378 
L 211.522686 110.551175 
L 211.958171 110.102303 
L 212.393657 109.839852 
L 213.264628 110.023349 
L 213.700114 110.135932 
L 214.571085 110.051129 
L 215.442056 110.124235 
L 215.877542 109.945125 
L 216.748513 109.994837 
L 217.619485 109.15631 
L 218.490456 109.374897 
L 219.361427 108.814173 
L 219.796913 108.745453 
L 220.232398 108.43987 
L 221.10337 108.319976 
L 221.538855 108.477885 
L 221.974341 107.164899 
L 223.716283 105.930136 
L 224.151769 105.962302 
L 224.587255 105.655257 
L 225.02274 103.907289 
L 225.458226 103.744993 
L 225.893712 104.085668 
L 226.764683 103.578311 
L 227.200169 103.700398 
L 227.635654 103.234712 
L 228.07114 103.385311 
L 228.506626 102.85456 
L 228.942111 103.192311 
L 230.248568 103.497894 
L 230.684054 103.373614 
L 231.555025 102.728818 
L 231.990511 102.681299 
L 232.425996 104.030838 
L 232.861482 103.994285 
L 233.296968 102.639628 
L 233.732453 102.442973 
L 234.167939 102.464173 
L 235.474396 101.431184 
L 236.780853 100.196421 
L 237.216338 99.829428 
L 237.651824 99.247503 
L 238.08731 99.288442 
L 238.522795 98.723332 
L 238.958281 98.422135 
L 239.829252 97.544861 
L 240.264738 97.696922 
L 240.700224 98.041252 
L 241.135709 97.925744 
L 241.571195 98.050755 
L 242.00668 98.304434 
L 242.442166 98.083653 
L 242.877652 98.436756 
L 244.184109 97.900888 
L 245.05508 97.200531 
L 245.490566 97.544861 
L 246.361537 97.631857 
L 246.797022 98.012009 
L 247.232508 98.085846 
L 247.667994 96.973902 
L 248.103479 97.27583 
L 248.538965 97.298493 
L 248.974451 97.092334 
L 249.409936 97.090141 
L 249.845422 96.689519 
L 250.280908 96.708526 
L 250.716393 94.962021 
L 252.02285 94.178323 
L 252.458336 92.602885 
L 252.893821 91.500445 
L 253.329307 91.558199 
L 253.764793 91.405407 
L 254.200278 91.561854 
L 254.635764 91.379088 
L 255.942221 90.427978 
L 256.813192 89.428616 
L 257.248678 89.533889 
L 258.119649 88.810138 
L 258.555135 88.658809 
L 258.99062 88.709252 
L 259.426106 88.465077 
L 259.861592 88.487009 
L 260.732563 87.705505 
L 261.603534 87.579031 
L 262.474506 86.90353 
L 262.909991 86.97883 
L 263.345477 87.535167 
L 264.216448 87.133084 
L 264.651934 86.78656 
L 265.087419 88.989249 
L 265.522905 88.690975 
L 266.393876 88.799904 
L 267.264848 88.638339 
L 267.700333 87.422584 
L 268.571305 87.82613 
L 269.442276 87.572451 
L 270.313247 87.772031 
L 271.184218 87.480338 
L 272.05519 86.870632 
L 272.926161 86.236802 
L 273.797132 86.0979 
L 275.103589 85.87054 
L 275.539075 86.131529 
L 275.97456 86.143957 
L 276.410046 86.671784 
L 278.151989 86.608181 
L 278.587474 86.240457 
L 279.02296 88.553536 
L 279.458446 88.67343 
L 280.764902 87.408694 
L 281.200388 87.386031 
L 282.071359 87.701118 
L 282.506845 87.389686 
L 283.377816 87.826861 
L 283.813302 87.646289 
L 284.248788 87.994274 
L 285.119759 87.987694 
L 285.555245 87.880228 
L 286.426216 87.300497 
L 287.297187 87.524201 
L 287.732673 88.255994 
L 288.168158 88.273539 
L 288.603644 87.769838 
L 289.03913 89.48637 
L 289.474615 89.231961 
L 290.781072 89.137654 
L 291.216558 88.105395 
L 292.087529 87.887539 
L 292.9585 87.890463 
L 293.829472 87.759603 
L 295.571414 87.972342 
L 296.442386 87.869993 
L 296.877871 88.09516 
L 297.313357 88.135369 
L 297.748842 88.017668 
L 299.490785 88.256725 
L 300.361756 88.215054 
L 300.797242 88.409517 
L 302.539185 89.58287 
L 302.97467 89.297025 
L 303.410156 89.220995 
L 303.845641 89.473942 
L 304.281127 89.205643 
L 305.152098 88.820373 
L 306.458555 87.75083 
L 306.894041 88.995828 
L 307.329527 88.886169 
L 307.765012 88.661733 
L 308.200498 88.812332 
L 308.635984 88.605441 
L 309.071469 88.60471 
L 309.506955 88.151452 
L 309.94244 89.40376 
L 310.377926 89.459321 
L 310.813412 89.158855 
L 311.248897 89.339427 
L 311.684383 89.051389 
L 312.119869 88.517714 
L 312.555354 88.330562 
L 312.99084 86.408602 
L 313.426326 86.796795 
L 313.861811 86.718572 
L 314.297297 87.005879 
L 315.168268 87.043894 
L 315.603754 86.719303 
L 316.474725 86.404946 
L 316.910211 86.051844 
L 317.781182 85.91148 
L 318.216668 87.125773 
L 318.652153 87.152822 
L 319.087639 87.023424 
L 319.95861 87.687228 
L 321.265067 88.559384 
L 322.136038 88.639801 
L 322.571524 88.821104 
L 323.00701 88.416827 
L 324.748952 88.575468 
L 325.619924 88.236986 
L 326.055409 87.797618 
L 326.490895 87.706236 
L 326.92638 87.381644 
L 327.361866 85.150445 
L 327.797352 84.738857 
L 328.232837 84.818543 
L 328.668323 84.480061 
L 329.103809 84.575831 
L 329.539294 84.830971 
L 329.97478 84.949403 
L 330.410266 84.604342 
L 331.716722 84.728622 
L 332.152208 84.315573 
L 332.587694 85.163604 
L 333.458665 84.172285 
L 334.329636 83.558193 
L 335.200608 83.644458 
L 335.636093 85.303968 
L 336.507065 85.721404 
L 336.94255 86.043071 
L 337.813521 88.883976 
L 338.249007 89.106949 
L 338.684493 89.108412 
L 339.555464 89.579946 
L 339.99095 89.432272 
L 340.426435 89.647935 
L 341.297407 90.524478 
L 341.732892 91.019406 
L 342.168378 91.095437 
L 342.603864 91.443422 
L 343.039349 89.959367 
L 343.474835 90.09242 
L 343.91032 90.060985 
L 344.345806 90.480614 
L 345.216777 90.482807 
L 345.652263 90.748913 
L 346.087749 90.547141 
L 346.95872 90.82933 
L 347.394206 90.720402 
L 349.571634 90.831523 
L 350.007119 90.605625 
L 350.878091 90.69116 
L 352.184548 90.251792 
L 352.620033 90.953611 
L 353.055519 90.464531 
L 353.491005 90.313932 
L 353.92649 90.403121 
L 354.361976 90.661917 
L 354.797461 90.744527 
L 355.232947 90.544947 
L 355.668433 90.672883 
L 356.103918 90.415549 
L 356.539404 90.411894 
L 356.97489 90.145788 
L 357.410375 90.423591 
L 358.281347 90.590273 
L 358.716832 90.290538 
L 359.152318 90.387038 
L 360.458775 89.47906 
L 360.89426 89.581408 
L 361.329746 89.299219 
L 361.765232 89.263397 
L 362.636203 89.634776 
L 363.94266 89.652321 
L 364.813631 84.881414 
L 365.249117 82.669222 
L 366.120088 82.283222 
L 366.991059 81.114255 
L 367.426545 81.408141 
L 367.862031 81.435922 
L 370.474945 80.467265 
L 370.91043 80.777966 
L 371.781401 80.527943 
L 372.216887 80.16753 
L 372.652373 79.975992 
L 373.087858 80.218704 
L 373.523344 80.625905 
L 374.394315 80.709246 
L 374.829801 81.052845 
L 375.700772 80.660265 
L 376.136258 81.5931 
L 377.007229 81.525111 
L 377.442715 81.373781 
L 378.749172 81.617956 
L 379.184657 81.34527 
L 379.620143 81.583596 
L 380.055629 81.558009 
L 380.491114 81.249501 
L 381.362086 81.809494 
L 381.797571 82.050013 
L 382.233057 80.317398 
L 382.668543 80.71144 
L 383.539514 80.967311 
L 383.974999 80.903709 
L 384.410485 79.971605 
L 384.845971 80.00889 
L 385.716942 80.364185 
L 386.587913 79.607537 
L 387.023399 79.409419 
L 387.458885 79.387487 
L 387.89437 79.590722 
L 388.765341 79.062165 
L 389.200827 79.262476 
L 391.378255 79.446703 
L 391.813741 79.274904 
L 392.684712 79.944556 
L 393.120198 79.869257 
L 393.555684 80.326901 
L 393.991169 80.068837 
L 394.426655 80.731909 
L 394.86214 81.030182 
L 395.297626 81.162505 
L 395.733112 81.113523 
L 396.168597 80.85619 
L 396.604083 80.896398 
L 397.039569 79.549783 
L 397.475054 80.090768 
L 397.91054 81.547043 
L 398.781511 80.859114 
L 399.652483 80.311549 
L 400.087968 80.147791 
L 400.523454 79.631662 
L 401.394425 80.423401 
L 401.829911 80.648568 
L 401.829911 80.648568 
" clip-path="url(#pfa18e503b5)" style="fill: none; stroke: #ff7f0e; stroke-opacity: 0.8; stroke-width: 1.5; stroke-linecap: square"/>
   </g>
   <g id="line2d_21">
    <path d="M 146.635325 138.263522 
L 147.070811 138.526704 
L 147.941782 138.58592 
L 148.377268 138.523049 
L 149.683725 139.178811 
L 150.554696 139.049413 
L 151.425667 139.531182 
L 153.603095 139.511444 
L 155.345038 139.523872 
L 156.651495 138.732863 
L 157.08698 138.880538 
L 157.522466 138.50989 
L 157.957952 138.509159 
L 158.828923 137.895798 
L 159.264409 137.87679 
L 159.699894 137.386248 
L 160.13538 137.366509 
L 161.441837 136.75388 
L 161.877322 136.773619 
L 162.312808 136.973929 
L 163.183779 136.635448 
L 164.490236 136.455607 
L 165.361208 136.446834 
L 166.232179 137.245884 
L 166.667665 137.434498 
L 167.10315 137.492252 
L 168.845093 138.814742 
L 171.458007 138.827901 
L 172.328978 139.38497 
L 173.199949 138.803045 
L 174.07092 138.781844 
L 175.377377 138.836674 
L 176.683834 138.86153 
L 177.11932 138.848371 
L 177.554806 138.614431 
L 177.990291 138.912704 
L 178.425777 138.656833 
L 179.732234 138.716049 
L 180.603205 139.626952 
L 181.038691 139.931073 
L 181.909662 140.021725 
L 184.08709 140.696494 
L 184.522576 141.032052 
L 184.958061 141.0379 
L 186.264518 140.45232 
L 186.700004 140.407725 
L 187.13549 140.830279 
L 187.570975 140.849286 
L 188.877432 142.004363 
L 189.748403 142.598716 
L 190.183889 142.58044 
L 190.619375 142.362584 
L 191.490346 142.732501 
L 191.925832 142.813648 
L 192.361317 142.6148 
L 192.796803 142.946702 
L 193.232289 143.06952 
L 194.10326 142.538769 
L 194.538746 142.414489 
L 194.974231 142.437152 
L 195.409717 142.734694 
L 195.845202 142.69083 
L 196.280688 142.410834 
L 198.022631 142.725921 
L 198.893602 143.312232 
L 199.329088 143.115577 
L 199.764573 143.136047 
L 200.635545 142.935005 
L 201.506516 142.282898 
L 201.942001 142.250731 
L 203.248458 141.426825 
L 204.11943 141.412204 
L 204.554915 141.098578 
L 205.425887 141.124896 
L 205.861372 141.305469 
L 208.0388 141.300351 
L 208.474286 141.4027 
L 208.909772 141.059101 
L 209.345257 141.364685 
L 209.780743 141.427556 
L 210.216229 141.810632 
L 210.651714 141.859613 
L 211.522686 141.197272 
L 211.958171 141.159987 
L 212.393657 140.808347 
L 213.700114 140.469134 
L 214.135599 140.15624 
L 215.442056 139.811179 
L 215.877542 139.676664 
L 216.313028 139.953736 
L 216.748513 139.640842 
L 217.183999 139.925956 
L 218.05497 139.895251 
L 220.667884 139.877706 
L 221.10337 139.878437 
L 221.538855 140.084596 
L 222.409827 140.02538 
L 222.845312 139.722721 
L 224.151769 140.613884 
L 225.02274 140.613153 
L 225.458226 140.205221 
L 226.329197 140.169399 
L 227.200169 140.148929 
L 228.07114 140.778373 
L 228.942111 140.719888 
L 230.684054 141.904939 
L 231.119539 142.227337 
L 231.555025 141.943685 
L 232.425996 141.82306 
L 232.861482 141.859613 
L 233.296968 142.127182 
L 234.167939 142.097208 
L 234.603425 141.778465 
L 235.474396 142.366239 
L 235.909881 142.313602 
L 236.780853 141.717787 
L 237.216338 141.695124 
L 237.651824 141.405624 
L 238.08731 140.670176 
L 239.829252 140.516653 
L 241.571195 141.528442 
L 242.00668 141.432673 
L 242.877652 141.472882 
L 243.313137 141.828909 
L 243.748623 141.63006 
L 244.184109 141.605935 
L 244.619594 142.075276 
L 245.05508 141.983894 
L 245.490566 142.170314 
L 245.926051 142.083318 
L 246.361537 142.132299 
L 246.797022 141.858151 
L 247.667994 141.868386 
L 248.103479 141.668806 
L 248.538965 141.345677 
L 248.974451 139.650345 
L 249.409936 139.964702 
L 250.280908 140.179634 
L 250.716393 140.076554 
L 251.151879 139.70883 
L 251.587365 139.733687 
L 252.02285 139.999062 
L 252.893821 139.955929 
L 253.764793 139.800944 
L 254.200278 140.132846 
L 254.635764 140.203028 
L 255.07125 140.533468 
L 255.506735 140.518847 
L 256.377707 141.162181 
L 256.813192 141.19654 
L 257.248678 140.895343 
L 257.684164 141.167298 
L 258.119649 141.122703 
L 258.555135 141.453874 
L 259.426106 141.466302 
L 259.861592 141.442177 
L 260.732563 141.184112 
L 261.168049 141.121972 
L 262.03902 141.928333 
L 262.474506 141.858882 
L 262.909991 141.950265 
L 263.345477 142.331879 
L 263.780962 142.403523 
L 264.216448 142.858974 
L 265.087419 142.923308 
L 265.522905 142.347962 
L 265.958391 141.472151 
L 266.393876 141.12709 
L 266.829362 141.095654 
L 267.700333 141.654916 
L 268.135819 141.79528 
L 268.571305 141.404162 
L 269.442276 141.366147 
L 269.877761 141.689276 
L 270.313247 141.677579 
L 271.619704 142.343576 
L 272.05519 141.989742 
L 272.490675 142.283629 
L 273.797132 142.223682 
L 274.668104 141.709015 
L 275.103589 141.665882 
L 275.539075 142.168852 
L 276.845532 142.128644 
L 277.281017 142.349424 
L 277.716503 142.330417 
L 278.587474 142.768323 
L 279.458446 142.8078 
L 279.893931 143.026387 
L 280.329417 142.780751 
L 281.200388 142.820959 
L 281.635874 142.442269 
L 282.506845 142.252193 
L 282.942331 142.43569 
L 283.813302 141.945147 
L 284.248788 142.186398 
L 284.684273 142.570936 
L 285.555245 142.853126 
L 285.99073 142.884561 
L 286.426216 143.136778 
L 286.861701 143.117039 
L 287.297187 143.390456 
L 288.603644 143.584918 
L 289.474615 143.884653 
L 289.910101 144.152953 
L 290.781072 143.560793 
L 291.216558 143.851756 
L 291.652044 143.899275 
L 292.523015 143.241319 
L 293.393986 143.13824 
L 295.135929 143.378028 
L 296.0069 143.987733 
L 297.313357 144.042563 
L 297.748842 144.342298 
L 298.184328 144.106165 
L 298.619814 144.087157 
L 299.055299 144.415404 
L 299.490785 144.32329 
L 299.926271 143.961415 
L 300.361756 143.938021 
L 300.797242 143.731862 
L 301.232728 143.660949 
L 301.668213 143.906585 
L 302.103699 143.816665 
L 302.539185 143.511081 
L 303.410156 143.562986 
L 303.845641 143.533013 
L 305.152098 143.038815 
L 305.587584 143.408001 
L 306.02307 143.315888 
L 306.458555 143.053437 
L 306.894041 143.023463 
L 307.329527 142.716417 
L 307.765012 143.088528 
L 308.200498 143.112653 
L 308.635984 142.724459 
L 309.071469 142.553391 
L 309.94244 142.603834 
L 310.377926 142.677671 
L 311.248897 142.392557 
L 311.684383 142.546811 
L 312.119869 142.872133 
L 312.555354 142.877251 
L 312.99084 142.6148 
L 313.426326 142.911611 
L 315.168268 142.949626 
L 315.603754 142.583364 
L 316.039239 142.423262 
L 316.474725 142.748584 
L 317.345696 142.749315 
L 317.781182 142.416682 
L 319.087639 142.456159 
L 319.523125 142.75955 
L 319.95861 142.766129 
L 321.265067 142.067235 
L 321.700553 142.238303 
L 322.136038 142.035799 
L 322.571524 142.048958 
L 323.00701 142.531459 
L 323.877981 142.039454 
L 324.313467 142.003632 
L 324.748952 142.131568 
L 325.184438 141.80917 
L 326.490895 141.834757 
L 327.361866 142.386709 
L 328.232837 142.295326 
L 328.668323 142.708376 
L 329.103809 142.40133 
L 330.845751 142.378667 
L 331.716722 142.988372 
L 332.152208 142.975213 
L 332.587694 142.795372 
L 333.023179 142.480284 
L 333.458665 142.708376 
L 333.894151 144.153684 
L 334.765122 144.141256 
L 335.636093 143.717971 
L 336.071579 144.051335 
L 336.94255 143.469411 
L 337.378036 143.467217 
L 339.119978 143.081217 
L 339.555464 143.353172 
L 339.99095 143.299804 
L 340.426435 143.549827 
L 341.297407 143.559331 
L 342.603864 143.622202 
L 343.039349 143.959953 
L 343.474835 143.968726 
L 344.345806 143.47599 
L 345.652263 143.51693 
L 346.087749 143.288838 
L 346.95872 143.138971 
L 347.829691 143.187221 
L 348.265177 143.059285 
L 348.700662 143.367793 
L 349.136148 143.187952 
L 349.571634 143.443092 
L 350.007119 143.155785 
L 350.442605 143.698233 
L 350.878091 143.928517 
L 351.749062 143.920475 
L 352.184548 143.622202 
L 353.055519 143.69604 
L 353.491005 143.766953 
L 353.92649 143.454058 
L 355.668433 143.052706 
L 356.97489 142.946702 
L 357.410375 142.778557 
L 357.845861 142.77344 
L 358.281347 142.900645 
L 359.152318 142.823152 
L 360.023289 143.160903 
L 360.458775 143.205497 
L 360.89426 143.438706 
L 362.636203 143.260327 
L 363.507174 143.31735 
L 363.94266 143.556407 
L 365.684603 143.870032 
L 366.555574 144.492166 
L 368.297516 144.8672 
L 368.733002 145.167666 
L 369.168488 144.845999 
L 369.603973 144.791901 
L 370.039459 144.381044 
L 371.345916 144.378851 
L 371.781401 144.30209 
L 372.216887 143.979691 
L 372.652373 144.044025 
L 373.087858 144.335718 
L 373.523344 144.356919 
L 373.95883 144.517753 
L 374.829801 144.029404 
L 375.700772 144.128828 
L 376.571744 143.596615 
L 377.442715 144.255302 
L 377.8782 144.287468 
L 378.313686 144.072536 
L 378.749172 144.32987 
L 379.184657 143.915358 
L 380.9266 143.829093 
L 381.362086 144.166843 
L 382.233057 144.127366 
L 382.668543 143.906585 
L 383.104028 144.13687 
L 383.539514 144.135408 
L 383.974999 143.834941 
L 384.410485 143.848831 
L 384.845971 144.367885 
L 385.281456 144.390548 
L 385.716942 144.661772 
L 386.587913 144.42637 
L 387.023399 144.210707 
L 387.458885 144.432218 
L 389.200827 144.26115 
L 389.636313 144.487779 
L 390.071798 144.274309 
L 390.94277 144.237025 
L 391.378255 144.496552 
L 391.813741 144.547726 
L 392.249227 144.835764 
L 392.684712 144.458537 
L 393.555684 144.536029 
L 393.991169 144.704904 
L 394.426655 144.533836 
L 397.91054 145.048503 
L 398.346026 144.731223 
L 398.781511 144.82553 
L 399.216997 144.7707 
L 400.087968 144.909602 
L 400.958939 145.455705 
L 401.829911 145.407454 
L 401.829911 145.407454 
" clip-path="url(#pfa18e503b5)" style="fill: none; stroke: #2ca02c; stroke-opacity: 0.8; stroke-width: 1.5; stroke-linecap: square"/>
   </g>
   <g id="line2d_22">
    <path d="M 146.635325 142.983986 
L 147.070811 142.640387 
L 147.506296 142.553391 
L 147.941782 142.130106 
L 148.377268 142.010943 
L 148.812753 142.121333 
L 149.248239 142.041648 
L 150.554696 142.542425 
L 150.990181 142.440076 
L 151.861153 142.914535 
L 152.296638 142.837042 
L 153.16761 143.215001 
L 154.909552 142.788792 
L 155.345038 143.035891 
L 157.08698 142.521224 
L 157.957952 138.244514 
L 158.828923 138.7102 
L 159.264409 138.507696 
L 160.570866 139.194894 
L 161.006351 139.09547 
L 162.748294 136.875967 
L 163.183779 136.660304 
L 164.054751 135.696034 
L 165.796693 134.864086 
L 166.667665 134.04749 
L 167.10315 133.983157 
L 167.974121 133.659297 
L 168.409607 133.526244 
L 168.845093 133.152671 
L 169.280578 133.3581 
L 170.587035 132.990376 
L 171.893492 131.842609 
L 172.328978 131.758537 
L 172.764463 132.002712 
L 173.199949 131.394468 
L 174.941892 130.900271 
L 176.683834 131.577234 
L 177.11932 130.880532 
L 177.554806 131.036979 
L 177.990291 130.53474 
L 178.861262 130.296414 
L 179.296748 129.848273 
L 179.732234 129.568277 
L 180.167719 129.691826 
L 181.909662 128.812359 
L 183.651605 126.964236 
L 184.522576 127.250812 
L 184.958061 127.09802 
L 185.393547 126.245603 
L 186.264518 126.62941 
L 187.13549 126.193697 
L 187.570975 126.358917 
L 188.006461 126.157875 
L 188.441947 126.304819 
L 188.877432 126.163724 
L 189.748403 126.468576 
L 190.183889 126.233906 
L 190.619375 126.440796 
L 191.05486 126.296046 
L 191.925832 125.489685 
L 192.796803 126.056258 
L 193.667774 126.214898 
L 194.10326 126.041636 
L 194.538746 125.579606 
L 194.974231 125.344935 
L 195.409717 125.254283 
L 195.845202 124.917995 
L 197.151659 124.574396 
L 197.587145 124.814184 
L 198.022631 124.461813 
L 198.458116 123.713937 
L 199.329088 123.382035 
L 202.377487 122.781102 
L 202.812973 123.010656 
L 203.248458 122.676561 
L 203.683944 122.728466 
L 204.11943 122.605648 
L 204.990401 123.131281 
L 205.425887 122.949246 
L 206.732343 123.885736 
L 207.167829 124.147456 
L 207.603315 124.138683 
L 208.474286 124.575858 
L 208.909772 124.173774 
L 209.345257 124.038528 
L 210.216229 124.51518 
L 210.651714 124.453771 
L 212.393657 125.594958 
L 212.829142 125.603 
L 213.700114 125.323734 
L 214.135599 125.051048 
L 215.006571 124.242494 
L 215.442056 124.151112 
L 215.877542 124.355078 
L 216.313028 124.409176 
L 217.619485 123.855763 
L 218.05497 124.097013 
L 218.490456 123.32355 
L 218.925941 123.553834 
L 219.361427 123.446368 
L 219.796913 122.949978 
L 220.232398 122.830815 
L 220.667884 122.403144 
L 221.538855 122.177246 
L 221.974341 122.454318 
L 222.845312 122.449932 
L 223.280798 122.676561 
L 223.716283 122.117299 
L 224.151769 122.279594 
L 224.587255 122.191136 
L 227.200169 123.602815 
L 229.377597 124.690635 
L 229.813082 124.975749 
L 230.248568 124.890946 
L 230.684054 124.186202 
L 231.555025 124.658468 
L 231.990511 124.733767 
L 232.425996 125.007916 
L 232.861482 125.0452 
L 233.296968 125.313499 
L 233.732453 125.154859 
L 234.167939 125.354439 
L 234.603425 125.037889 
L 235.03891 124.313407 
L 235.474396 123.89524 
L 235.909881 123.879888 
L 236.345367 123.692736 
L 237.651824 122.512803 
L 238.08731 121.699131 
L 240.264738 121.432294 
L 240.700224 121.128903 
L 242.00668 122.063931 
L 242.877652 126.695205 
L 243.313137 126.59505 
L 243.748623 126.025553 
L 244.619594 125.418041 
L 245.05508 125.075173 
L 245.490566 124.967707 
L 245.926051 124.67382 
L 246.361537 124.994756 
L 246.797022 124.992563 
L 247.667994 125.53428 
L 248.538965 125.585454 
L 249.409936 126.151296 
L 249.845422 126.115474 
L 250.280908 126.292391 
L 251.587365 127.147001 
L 252.458336 127.144077 
L 252.893821 127.349505 
L 253.329307 126.69155 
L 253.764793 126.894054 
L 254.200278 126.799016 
L 254.635764 126.375732 
L 255.506735 126.823141 
L 255.942221 126.772698 
L 256.377707 126.230981 
L 256.813192 126.190773 
L 257.248678 126.418133 
L 257.684164 126.423982 
L 258.119649 126.851653 
L 258.99062 127.302717 
L 259.426106 127.650703 
L 259.861592 127.803495 
L 260.297077 127.627309 
L 260.732563 127.580521 
L 261.168049 127.31149 
L 261.603534 127.261047 
L 262.03902 127.687987 
L 262.474506 127.623653 
L 262.909991 128.001612 
L 263.345477 127.962866 
L 263.780962 127.553472 
L 265.522905 127.530078 
L 266.829362 128.505314 
L 268.571305 129.691095 
L 269.00679 129.645769 
L 269.442276 129.153034 
L 269.877761 129.468122 
L 270.313247 130.428736 
L 271.184218 130.235005 
L 272.05519 130.902464 
L 272.490675 130.526698 
L 273.361647 130.403149 
L 273.797132 130.508422 
L 274.668104 129.358462 
L 275.103589 129.413292 
L 275.539075 129.029485 
L 277.281017 129.732766 
L 277.716503 129.325565 
L 278.151989 129.117212 
L 278.587474 129.050685 
L 279.02296 129.104784 
L 279.893931 129.755429 
L 280.764902 130.168478 
L 282.942331 129.845349 
L 283.377816 130.414115 
L 283.813302 128.62009 
L 284.248788 125.989731 
L 285.119759 125.218461 
L 285.555245 124.771783 
L 285.99073 121.808791 
L 286.426216 117.453126 
L 286.861701 117.438505 
L 287.297187 117.650513 
L 287.732673 117.585449 
L 288.168158 117.835472 
L 289.03913 117.698763 
L 290.345587 117.439967 
L 291.652044 116.042178 
L 292.087529 115.944216 
L 292.523015 116.118939 
L 292.9585 115.85064 
L 293.393986 115.311847 
L 294.264957 115.286991 
L 294.700443 114.833002 
L 296.442386 114.588828 
L 296.877871 113.276572 
L 297.313357 112.817466 
L 297.748842 112.065935 
L 298.184328 111.694555 
L 298.619814 111.687245 
L 299.490785 112.357628 
L 299.926271 112.631776 
L 300.361756 112.253086 
L 301.232728 112.400761 
L 302.539185 113.403777 
L 302.97467 113.310201 
L 303.410156 114.183089 
L 304.281127 114.088051 
L 304.716613 114.485748 
L 305.152098 114.407524 
L 305.587584 114.688252 
L 306.02307 114.582248 
L 306.458555 113.680118 
L 307.765012 113.389887 
L 308.200498 113.009004 
L 308.635984 113.368686 
L 309.506955 113.24075 
L 310.377926 112.370056 
L 311.248897 112.230423 
L 312.555354 111.132369 
L 313.861811 110.927672 
L 314.297297 109.64539 
L 315.168268 103.819561 
L 315.603754 104.335691 
L 316.039239 101.377816 
L 316.474725 101.01521 
L 317.345696 100.779077 
L 317.781182 95.372877 
L 318.652153 94.888183 
L 319.087639 93.464076 
L 319.523125 93.679739 
L 319.95861 94.27263 
L 320.829581 94.602338 
L 321.265067 94.284327 
L 322.136038 94.65863 
L 322.571524 94.848706 
L 323.00701 95.451832 
L 326.055409 94.896956 
L 326.92638 94.005061 
L 327.361866 93.90783 
L 327.797352 90.752569 
L 328.232837 90.672152 
L 328.668323 91.102016 
L 329.103809 91.273816 
L 329.539294 90.283227 
L 329.97478 90.172106 
L 330.410266 89.69984 
L 331.281237 89.543393 
L 332.152208 90.088765 
L 332.587694 89.66548 
L 333.023179 89.873102 
L 333.458665 89.690336 
L 333.894151 89.667674 
L 334.329636 89.344544 
L 334.765122 89.345275 
L 335.200608 89.123764 
L 335.636093 87.559292 
L 336.071579 87.249322 
L 336.507065 87.189375 
L 337.378036 87.651406 
L 337.813521 86.399098 
L 338.249007 86.5592 
L 339.119978 86.206829 
L 339.555464 86.769015 
L 339.99095 86.296018 
L 340.426435 86.237533 
L 340.861921 86.415912 
L 341.297407 87.127966 
L 341.732892 86.629382 
L 342.168378 86.540924 
L 342.603864 86.011635 
L 343.039349 84.910657 
L 343.474835 83.458769 
L 343.91032 80.693163 
L 344.781292 78.382278 
L 345.216777 78.038679 
L 345.652263 74.920702 
L 346.523234 74.677989 
L 346.95872 74.9536 
L 347.394206 74.869528 
L 348.265177 74.411152 
L 348.700662 74.378985 
L 349.136148 74.597573 
L 350.007119 74.473292 
L 350.442605 74.617311 
L 350.878091 74.589531 
L 351.313576 73.809488 
L 353.055519 73.560196 
L 353.491005 73.195397 
L 353.92649 72.225278 
L 354.361976 72.631017 
L 355.668433 72.432169 
L 356.103918 72.011077 
L 356.97489 71.723039 
L 357.410375 71.672596 
L 357.845861 71.978911 
L 358.281347 71.915308 
L 359.152318 71.396986 
L 359.587804 71.519804 
L 360.458775 71.397717 
L 360.89426 71.174743 
L 361.329746 70.180499 
L 361.765232 69.906351 
L 362.200717 69.802541 
L 363.071689 70.358878 
L 363.94266 69.662908 
L 364.378146 69.235968 
L 365.684603 68.954509 
L 366.120088 68.395978 
L 366.991059 63.236878 
L 367.862031 59.73948 
L 368.297516 56.872257 
L 368.733002 55.993521 
L 369.168488 58.411141 
L 369.603973 58.359236 
L 370.039459 58.648005 
L 370.474945 58.63777 
L 370.91043 60.384276 
L 371.345916 64.286682 
L 371.781401 64.419004 
L 373.95883 62.986855 
L 374.394315 62.058407 
L 374.829801 61.763789 
L 375.265287 59.404653 
L 376.136258 60.199317 
L 376.571744 60.392317 
L 377.007229 60.337488 
L 377.442715 59.468256 
L 377.8782 59.417813 
L 378.313686 59.816972 
L 378.749172 60.012897 
L 379.184657 59.919321 
L 379.620143 59.160479 
L 380.055629 58.722573 
L 381.362086 58.54858 
L 381.797571 59.331547 
L 382.233057 59.346169 
L 382.668543 59.841828 
L 383.104028 59.51943 
L 383.539514 59.770915 
L 384.845971 59.523085 
L 385.281456 59.773839 
L 386.152428 59.260634 
L 386.587913 58.43088 
L 387.458885 57.628174 
L 387.89437 57.341598 
L 388.329856 57.25314 
L 389.636313 48.62369 
L 390.071798 47.3977 
L 390.507284 42.469615 
L 390.94277 39.854608 
L 391.378255 40.449692 
L 392.249227 37.945075 
L 392.684712 37.453071 
L 393.120198 37.640223 
L 393.555684 37.578814 
L 393.991169 36.511464 
L 394.426655 36.253399 
L 394.86214 35.183125 
L 395.297626 35.381974 
L 395.733112 35.319834 
L 396.168597 34.990125 
L 397.475054 35.623224 
L 397.91054 35.546463 
L 398.346026 35.226258 
L 398.781511 35.182394 
L 399.216997 36.308229 
L 400.087968 41.872338 
L 400.523454 42.120898 
L 400.958939 44.668648 
L 401.394425 44.927443 
L 401.829911 44.625515 
L 401.829911 44.625515 
" clip-path="url(#pfa18e503b5)" style="fill: none; stroke: #d62728; stroke-opacity: 0.8; stroke-width: 1.5; stroke-linecap: square"/>
   </g>
   <g id="line2d_23">
    <path d="M 146.635325 141.259412 
L 147.070811 141.113931 
L 147.506296 141.381499 
L 147.941782 141.33398 
L 148.377268 141.53356 
L 148.812753 141.555492 
L 149.248239 140.988188 
L 149.683725 140.97576 
L 150.990181 140.133577 
L 151.425667 139.953736 
L 151.861153 140.178903 
L 152.296638 140.095562 
L 153.16761 140.442816 
L 156.216009 140.566366 
L 158.393437 139.134947 
L 159.264409 139.172231 
L 159.699894 139.354997 
L 160.13538 139.319906 
L 160.570866 139.133485 
L 161.006351 138.795735 
L 161.441837 138.832288 
L 163.183779 137.585828 
L 163.619265 137.689639 
L 164.054751 138.161173 
L 164.490236 138.166291 
L 164.925722 137.81465 
L 165.361208 137.702798 
L 166.667665 137.701336 
L 167.10315 137.327032 
L 167.974121 137.159619 
L 168.845093 136.85696 
L 169.280578 137.246615 
L 169.716064 137.226146 
L 170.15155 137.536847 
L 171.022521 137.310949 
L 171.893492 137.265623 
L 172.328978 137.562434 
L 173.635435 137.225415 
L 174.07092 137.227608 
L 174.941892 136.750225 
L 175.377377 137.085051 
L 176.683834 137.13988 
L 177.11932 137.543426 
L 177.990291 136.783854 
L 178.425777 137.09821 
L 178.861262 137.192517 
L 179.732234 136.418323 
L 180.167719 136.758266 
L 181.474176 136.745107 
L 181.909662 136.460724 
L 182.345148 136.429289 
L 182.780633 136.751687 
L 183.216119 137.611415 
L 184.08709 138.232086 
L 185.829033 136.701244 
L 186.700004 136.674194 
L 187.13549 136.236288 
L 187.570975 136.311588 
L 188.006461 136.257489 
L 189.312918 135.019802 
L 189.748403 134.588476 
L 190.183889 134.571662 
L 190.619375 134.904295 
L 191.490346 134.812912 
L 191.925832 134.972283 
L 192.796803 135.650708 
L 193.232289 135.599534 
L 193.667774 135.86564 
L 194.10326 135.834205 
L 196.716174 137.721074 
L 197.151659 137.455699 
L 198.458116 137.61507 
L 198.893602 137.900184 
L 200.200059 138.010575 
L 201.942001 138.090991 
L 202.377487 138.177257 
L 202.812973 138.032506 
L 203.683944 137.503949 
L 204.554915 137.025835 
L 205.861372 136.064489 
L 206.732343 136.103235 
L 207.167829 135.845902 
L 208.0388 135.89269 
L 208.474286 136.125167 
L 208.909772 136.090076 
L 209.345257 135.706269 
L 210.216229 135.671909 
L 210.651714 135.984072 
L 211.0872 135.965796 
L 211.522686 136.153679 
L 212.393657 136.144175 
L 213.264628 135.542511 
L 214.135599 135.753057 
L 214.571085 135.478178 
L 215.006571 135.878799 
L 215.442056 136.119319 
L 216.313028 136.248717 
L 216.748513 136.642759 
L 217.183999 136.845994 
L 217.619485 136.914714 
L 218.05497 137.147922 
L 218.925941 137.280975 
L 219.361427 136.60913 
L 219.796913 136.247985 
L 221.10337 136.449758 
L 221.538855 136.275035 
L 221.974341 136.412474 
L 222.409827 136.068144 
L 222.845312 136.152947 
L 223.280798 136.41613 
L 224.151769 136.445372 
L 224.587255 136.815289 
L 225.02274 136.784585 
L 225.458226 136.9191 
L 226.329197 137.820499 
L 226.764683 137.818305 
L 227.200169 137.226877 
L 228.07114 137.13257 
L 228.506626 136.807247 
L 228.942111 137.087975 
L 229.377597 137.180089 
L 229.813082 137.042649 
L 230.248568 138.828632 
L 231.119539 139.57797 
L 231.990511 139.615986 
L 232.425996 139.330141 
L 232.861482 139.316981 
L 233.296968 138.984349 
L 233.732453 138.997508 
L 234.167939 139.253379 
L 234.603425 139.001894 
L 235.474396 138.935367 
L 235.909881 139.155417 
L 236.345367 139.56408 
L 236.780853 139.521679 
L 237.216338 139.271656 
L 238.08731 139.384239 
L 239.393767 139.159072 
L 239.829252 139.435413 
L 240.264738 139.059648 
L 240.700224 139.332334 
L 241.135709 139.282622 
L 241.571195 139.351341 
L 242.442166 139.966164 
L 242.877652 140.143812 
L 243.313137 140.517384 
L 243.748623 140.227884 
L 244.184109 140.197911 
L 245.05508 140.89973 
L 245.490566 140.828086 
L 247.667994 142.385246 
L 248.103479 141.681965 
L 248.538965 142.015329 
L 248.974451 142.032144 
L 249.409936 141.529905 
L 249.845422 141.900553 
L 250.280908 142.027026 
L 251.587365 142.00875 
L 252.02285 142.109636 
L 252.458336 142.027757 
L 253.764793 143.210615 
L 255.07125 142.212716 
L 255.506735 142.309216 
L 256.377707 143.087065 
L 257.248678 143.050512 
L 257.684164 142.886755 
L 258.119649 143.260327 
L 258.555135 142.962785 
L 259.426106 142.894796 
L 259.861592 142.807069 
L 260.297077 142.367701 
L 260.732563 142.646966 
L 261.168049 142.493444 
L 262.474506 142.687906 
L 262.909991 143.024194 
L 263.345477 143.100225 
L 263.780962 142.698141 
L 264.216448 143.068789 
L 264.651934 143.192338 
L 266.829362 143.192338 
L 267.264848 143.50377 
L 268.135819 143.457714 
L 269.442276 143.461369 
L 271.184218 143.556407 
L 272.05519 144.372271 
L 272.490675 144.078385 
L 273.361647 144.026479 
L 273.797132 144.475351 
L 275.103589 144.607673 
L 275.539075 144.272847 
L 276.410046 144.337912 
L 276.845532 144.757541 
L 278.151989 144.903022 
L 278.587474 144.975397 
L 279.02296 145.350432 
L 281.200388 145.280981 
L 281.635874 144.992943 
L 282.071359 144.843075 
L 283.813302 145.263435 
L 284.684273 145.894341 
L 285.119759 145.889955 
L 285.99073 146.5406 
L 290.781072 146.38927 
L 291.652044 145.729853 
L 292.523015 145.441083 
L 293.393986 144.81895 
L 294.264957 145.395757 
L 295.135929 145.397951 
L 295.571414 144.962238 
L 296.442386 145.574136 
L 296.877871 145.536852 
L 297.313357 145.366515 
L 298.184328 145.915542 
L 299.055299 146.301543 
L 299.490785 146.205774 
L 299.926271 145.800766 
L 300.361756 145.953557 
L 300.797242 145.942591 
L 301.232728 145.683796 
L 302.539185 145.615076 
L 302.97467 145.612152 
L 304.281127 146.53402 
L 304.716613 146.454334 
L 305.152098 146.755532 
L 305.587584 146.873964 
L 306.02307 146.550835 
L 306.458555 146.851301 
L 306.894041 146.873964 
L 307.765012 147.551658 
L 309.506955 147.445654 
L 309.94244 147.619646 
L 310.377926 147.577245 
L 311.684383 146.695585 
L 312.119869 146.93318 
L 312.99084 147.024562 
L 313.426326 147.316987 
L 314.297297 147.121794 
L 314.732782 147.238032 
L 315.168268 147.594059 
L 315.603754 148.382875 
L 316.039239 147.998336 
L 316.474725 147.235108 
L 316.910211 147.529726 
L 317.345696 147.205135 
L 319.95861 148.912163 
L 320.394096 149.22652 
L 320.829581 149.301088 
L 321.265067 149.092004 
L 321.700553 148.711852 
L 322.136038 149.050334 
L 322.571524 149.036444 
L 323.877981 148.130658 
L 324.313467 147.877711 
L 324.748952 147.486593 
L 325.184438 148.001261 
L 326.055409 147.917188 
L 326.490895 148.113113 
L 327.797352 147.999798 
L 328.232837 147.891601 
L 328.668323 148.206689 
L 329.97478 148.219848 
L 330.410266 148.567833 
L 330.845751 148.528356 
L 331.281237 148.343397 
L 331.716722 147.99395 
L 332.587694 147.732961 
L 333.023179 148.733053 
L 333.458665 148.385799 
L 335.200608 148.281988 
L 336.071579 147.60137 
L 336.507065 147.596252 
L 336.94255 147.875518 
L 337.378036 148.346322 
L 337.813521 148.298071 
L 338.249007 147.989564 
L 338.684493 148.024655 
L 339.555464 148.536398 
L 340.426435 148.426738 
L 341.297407 147.716878 
L 341.732892 148.040007 
L 342.168378 147.640847 
L 342.603864 147.872594 
L 343.039349 147.471972 
L 343.474835 147.787791 
L 343.91032 147.799488 
L 344.345806 148.156246 
L 344.781292 148.355825 
L 345.216777 148.795924 
L 345.652263 148.733784 
L 346.523234 148.84125 
L 346.95872 148.84125 
L 347.394206 149.12344 
L 348.700662 149.067879 
L 349.136148 149.059838 
L 349.571634 149.303281 
L 350.442605 149.363228 
L 350.878091 149.076652 
L 351.313576 149.135868 
L 351.749062 149.441452 
L 352.620033 148.936288 
L 353.491005 148.922398 
L 353.92649 148.950178 
L 354.797461 149.671736 
L 355.232947 149.657115 
L 355.668433 149.914448 
L 356.97489 148.906315 
L 357.410375 149.06861 
L 357.845861 148.900466 
L 358.281347 149.276232 
L 358.716832 149.237485 
L 359.587804 149.733145 
L 360.89426 150.672559 
L 361.329746 149.2543 
L 361.765232 146.643679 
L 362.200717 146.245982 
L 362.636203 146.181649 
L 363.071689 146.449948 
L 363.94266 146.428016 
L 364.378146 146.06541 
L 365.249117 146.185304 
L 366.120088 146.168489 
L 366.555574 146.36149 
L 366.991059 146.262065 
L 367.426545 146.418512 
L 367.862031 146.705089 
L 368.297516 146.378304 
L 370.039459 146.2723 
L 370.474945 146.202118 
L 370.91043 145.977682 
L 371.345916 146.29277 
L 372.216887 146.270107 
L 373.95883 147.522415 
L 374.394315 147.458813 
L 374.829801 147.744658 
L 375.265287 147.692753 
L 375.700772 147.951548 
L 376.571744 147.976404 
L 377.007229 148.300265 
L 377.442715 148.371178 
L 377.8782 148.608773 
L 378.313686 148.61389 
L 380.055629 147.548002 
L 380.491114 147.678862 
L 381.362086 147.013597 
L 381.797571 147.303097 
L 382.668543 147.140801 
L 383.104028 147.148112 
L 383.539514 147.292131 
L 383.974999 147.29871 
L 384.845971 148.001261 
L 385.281456 148.006378 
L 385.716942 147.708836 
L 386.152428 147.558968 
L 387.023399 147.572859 
L 387.458885 147.929617 
L 388.765341 147.937658 
L 389.200827 147.997605 
L 389.636313 148.427469 
L 390.071798 148.158439 
L 390.94277 148.043662 
L 391.378255 148.149666 
L 391.813741 148.44867 
L 392.684712 148.392378 
L 393.120198 148.080215 
L 394.86214 148.198647 
L 396.168597 149.037175 
L 397.475054 149.195084 
L 397.91054 149.13733 
L 398.346026 148.746212 
L 398.781511 148.532742 
L 399.216997 148.684072 
L 399.652483 148.691383 
L 400.087968 148.377757 
L 400.523454 148.346322 
L 400.958939 148.769606 
L 401.394425 149.380774 
L 401.829911 149.055451 
L 401.829911 149.055451 
" clip-path="url(#pfa18e503b5)" style="fill: none; stroke: #9467bd; stroke-opacity: 0.8; stroke-width: 1.5; stroke-linecap: square"/>
   </g>
   <g id="patch_3">
    <path d="M 61.715625 288.430125 
L 61.715625 22.318125 
" style="fill: none; stroke: #000000; stroke-width: 0.8; stroke-linejoin: miter; stroke-linecap: square"/>
   </g>
   <g id="patch_4">
    <path d="M 418.835625 288.430125 
L 418.835625 22.318125 
" style="fill: none; stroke: #000000; stroke-width: 0.8; stroke-linejoin: miter; stroke-linecap: square"/>
   </g>
   <g id="patch_5">
    <path d="M 61.715625 288.430125 
L 418.835625 288.430125 
" style="fill: none; stroke: #000000; stroke-width: 0.8; stroke-linejoin: miter; stroke-linecap: square"/>
   </g>
   <g id="patch_6">
    <path d="M 61.715625 22.318125 
L 418.835625 22.318125 
" style="fill: none; stroke: #000000; stroke-width: 0.8; stroke-linejoin: miter; stroke-linecap: square"/>
   </g>
   <g id="text_21">
    <!-- Get roots -->
    <g transform="translate(212.52375 16.318125) scale(0.12 -0.12)">
     <defs>
      <path id="DejaVuSans-47" d="M 3809 666 
L 3809 1919 
L 2778 1919 
L 2778 2438 
L 4434 2438 
L 4434 434 
Q 4069 175 3628 42 
Q 3188 -91 2688 -91 
Q 1594 -91 976 548 
Q 359 1188 359 2328 
Q 359 3472 976 4111 
Q 1594 4750 2688 4750 
Q 3144 4750 3555 4637 
Q 3966 4525 4313 4306 
L 4313 3634 
Q 3963 3931 3569 4081 
Q 3175 4231 2741 4231 
Q 1884 4231 1454 3753 
Q 1025 3275 1025 2328 
Q 1025 1384 1454 906 
Q 1884 428 2741 428 
Q 3075 428 3337 486 
Q 3600 544 3809 666 
z
" transform="scale(0.015625)"/>
      <path id="DejaVuSans-72" d="M 2631 2963 
Q 2534 3019 2420 3045 
Q 2306 3072 2169 3072 
Q 1681 3072 1420 2755 
Q 1159 2438 1159 1844 
L 1159 0 
L 581 0 
L 581 3500 
L 1159 3500 
L 1159 2956 
Q 1341 3275 1631 3429 
Q 1922 3584 2338 3584 
Q 2397 3584 2469 3576 
Q 2541 3569 2628 3553 
L 2631 2963 
z
" transform="scale(0.015625)"/>
     </defs>
     <use xlink:href="#DejaVuSans-47"/>
     <use xlink:href="#DejaVuSans-65" transform="translate(77.490234 0)"/>
     <use xlink:href="#DejaVuSans-74" transform="translate(139.013672 0)"/>
     <use xlink:href="#DejaVuSans-20" transform="translate(178.222656 0)"/>
     <use xlink:href="#DejaVuSans-72" transform="translate(210.009766 0)"/>
     <use xlink:href="#DejaVuSans-6f" transform="translate(248.873047 0)"/>
     <use xlink:href="#DejaVuSans-6f" transform="translate(310.054688 0)"/>
     <use xlink:href="#DejaVuSans-74" transform="translate(371.236328 0)"/>
     <use xlink:href="#DejaVuSans-73" transform="translate(410.445312 0)"/>
    </g>
   </g>
   <g id="legend_1">
    <g id="patch_7">
     <path d="M 92.717969 365.802375 
L 380.313281 365.802375 
Q 382.313281 365.802375 382.313281 363.802375 
L 382.313281 335.446125 
Q 382.313281 333.446125 380.313281 333.446125 
L 92.717969 333.446125 
Q 90.717969 333.446125 90.717969 335.446125 
L 90.717969 363.802375 
Q 90.717969 365.802375 92.717969 365.802375 
z
" style="fill: #4d4d4d; opacity: 0.5; stroke: #4d4d4d; stroke-linejoin: miter"/>
    </g>
    <g id="patch_8">
     <path d="M 90.717969 363.802375 
L 378.313281 363.802375 
Q 380.313281 363.802375 380.313281 361.802375 
L 380.313281 333.446125 
Q 380.313281 331.446125 378.313281 331.446125 
L 90.717969 331.446125 
Q 88.717969 331.446125 88.717969 333.446125 
L 88.717969 361.802375 
Q 88.717969 363.802375 90.717969 363.802375 
z
" style="fill: #ffffff; stroke: #cccccc; stroke-linejoin: miter"/>
    </g>
    <g id="line2d_24">
     <path d="M 92.717969 339.544562 
L 102.717969 339.544562 
L 112.717969 339.544562 
" style="fill: none; stroke: #1f77b4; stroke-opacity: 0.8; stroke-width: 1.5; stroke-linecap: square"/>
    </g>
    <g id="text_22">
     <!-- MPTT -->
     <g transform="translate(120.717969 343.044562) scale(0.1 -0.1)">
      <defs>
       <path id="DejaVuSans-4d" d="M 628 4666 
L 1569 4666 
L 2759 1491 
L 3956 4666 
L 4897 4666 
L 4897 0 
L 4281 0 
L 4281 4097 
L 3078 897 
L 2444 897 
L 1241 4097 
L 1241 0 
L 628 0 
L 628 4666 
z
" transform="scale(0.015625)"/>
       <path id="DejaVuSans-50" d="M 1259 4147 
L 1259 2394 
L 2053 2394 
Q 2494 2394 2734 2622 
Q 2975 2850 2975 3272 
Q 2975 3691 2734 3919 
Q 2494 4147 2053 4147 
L 1259 4147 
z
M 628 4666 
L 2053 4666 
Q 2838 4666 3239 4311 
Q 3641 3956 3641 3272 
Q 3641 2581 3239 2228 
Q 2838 1875 2053 1875 
L 1259 1875 
L 1259 0 
L 628 0 
L 628 4666 
z
" transform="scale(0.015625)"/>
       <path id="DejaVuSans-54" d="M -19 4666 
L 3928 4666 
L 3928 4134 
L 2272 4134 
L 2272 0 
L 1638 0 
L 1638 4134 
L -19 4134 
L -19 4666 
z
" transform="scale(0.015625)"/>
      </defs>
      <use xlink:href="#DejaVuSans-4d"/>
      <use xlink:href="#DejaVuSans-50" transform="translate(86.279297 0)"/>
      <use xlink:href="#DejaVuSans-54" transform="translate(146.582031 0)"/>
      <use xlink:href="#DejaVuSans-54" transform="translate(205.916016 0)"/>
     </g>
    </g>
    <g id="line2d_25">
     <path d="M 92.717969 354.222687 
L 102.717969 354.222687 
L 112.717969 354.222687 
" style="fill: none; stroke: #ff7f0e; stroke-opacity: 0.8; stroke-width: 1.5; stroke-linecap: square"/>
    </g>
    <g id="text_23">
     <!-- tree -->
     <g transform="translate(120.717969 357.722687) scale(0.1 -0.1)">
      <use xlink:href="#DejaVuSans-74"/>
      <use xlink:href="#DejaVuSans-72" transform="translate(39.208984 0)"/>
      <use xlink:href="#DejaVuSans-65" transform="translate(78.072266 0)"/>
      <use xlink:href="#DejaVuSans-65" transform="translate(139.595703 0)"/>
     </g>
    </g>
    <g id="line2d_26">
     <path d="M 167.416406 339.544562 
L 177.416406 339.544562 
L 187.416406 339.544562 
" style="fill: none; stroke: #2ca02c; stroke-opacity: 0.8; stroke-width: 1.5; stroke-linecap: square"/>
    </g>
    <g id="text_24">
     <!-- treebeard AL -->
     <g transform="translate(195.416406 343.044562) scale(0.1 -0.1)">
      <defs>
       <path id="DejaVuSans-4c" d="M 628 4666 
L 1259 4666 
L 1259 531 
L 3531 531 
L 3531 0 
L 628 0 
L 628 4666 
z
" transform="scale(0.015625)"/>
      </defs>
      <use xlink:href="#DejaVuSans-74"/>
      <use xlink:href="#DejaVuSans-72" transform="translate(39.208984 0)"/>
      <use xlink:href="#DejaVuSans-65" transform="translate(78.072266 0)"/>
      <use xlink:href="#DejaVuSans-65" transform="translate(139.595703 0)"/>
      <use xlink:href="#DejaVuSans-62" transform="translate(201.119141 0)"/>
      <use xlink:href="#DejaVuSans-65" transform="translate(264.595703 0)"/>
      <use xlink:href="#DejaVuSans-61" transform="translate(326.119141 0)"/>
      <use xlink:href="#DejaVuSans-72" transform="translate(387.398438 0)"/>
      <use xlink:href="#DejaVuSans-64" transform="translate(426.761719 0)"/>
      <use xlink:href="#DejaVuSans-20" transform="translate(490.238281 0)"/>
      <use xlink:href="#DejaVuSans-41" transform="translate(522.025391 0)"/>
      <use xlink:href="#DejaVuSans-4c" transform="translate(590.433594 0)"/>
     </g>
    </g>
    <g id="line2d_27">
     <path d="M 167.416406 354.222687 
L 177.416406 354.222687 
L 187.416406 354.222687 
" style="fill: none; stroke: #d62728; stroke-opacity: 0.8; stroke-width: 1.5; stroke-linecap: square"/>
    </g>
    <g id="text_25">
     <!-- treebeard MP -->
     <g transform="translate(195.416406 357.722687) scale(0.1 -0.1)">
      <use xlink:href="#DejaVuSans-74"/>
      <use xlink:href="#DejaVuSans-72" transform="translate(39.208984 0)"/>
      <use xlink:href="#DejaVuSans-65" transform="translate(78.072266 0)"/>
      <use xlink:href="#DejaVuSans-65" transform="translate(139.595703 0)"/>
      <use xlink:href="#DejaVuSans-62" transform="translate(201.119141 0)"/>
      <use xlink:href="#DejaVuSans-65" transform="translate(264.595703 0)"/>
      <use xlink:href="#DejaVuSans-61" transform="translate(326.119141 0)"/>
      <use xlink:href="#DejaVuSans-72" transform="translate(387.398438 0)"/>
      <use xlink:href="#DejaVuSans-64" transform="translate(426.761719 0)"/>
      <use xlink:href="#DejaVuSans-20" transform="translate(490.238281 0)"/>
      <use xlink:href="#DejaVuSans-4d" transform="translate(522.025391 0)"/>
      <use xlink:href="#DejaVuSans-50" transform="translate(608.304688 0)"/>
     </g>
    </g>
    <g id="line2d_28">
     <path d="M 282.278906 339.544562 
L 292.278906 339.544562 
L 302.278906 339.544562 
" style="fill: none; stroke: #9467bd; stroke-opacity: 0.8; stroke-width: 1.5; stroke-linecap: square"/>
    </g>
    <g id="text_26">
     <!-- treebeard NS -->
     <g transform="translate(310.278906 343.044562) scale(0.1 -0.1)">
      <defs>
       <path id="DejaVuSans-4e" d="M 628 4666 
L 1478 4666 
L 3547 763 
L 3547 4666 
L 4159 4666 
L 4159 0 
L 3309 0 
L 1241 3903 
L 1241 0 
L 628 0 
L 628 4666 
z
" transform="scale(0.015625)"/>
       <path id="DejaVuSans-53" d="M 3425 4513 
L 3425 3897 
Q 3066 4069 2747 4153 
Q 2428 4238 2131 4238 
Q 1616 4238 1336 4038 
Q 1056 3838 1056 3469 
Q 1056 3159 1242 3001 
Q 1428 2844 1947 2747 
L 2328 2669 
Q 3034 2534 3370 2195 
Q 3706 1856 3706 1288 
Q 3706 609 3251 259 
Q 2797 -91 1919 -91 
Q 1588 -91 1214 -16 
Q 841 59 441 206 
L 441 856 
Q 825 641 1194 531 
Q 1563 422 1919 422 
Q 2459 422 2753 634 
Q 3047 847 3047 1241 
Q 3047 1584 2836 1778 
Q 2625 1972 2144 2069 
L 1759 2144 
Q 1053 2284 737 2584 
Q 422 2884 422 3419 
Q 422 4038 858 4394 
Q 1294 4750 2059 4750 
Q 2388 4750 2728 4690 
Q 3069 4631 3425 4513 
z
" transform="scale(0.015625)"/>
      </defs>
      <use xlink:href="#DejaVuSans-74"/>
      <use xlink:href="#DejaVuSans-72" transform="translate(39.208984 0)"/>
      <use xlink:href="#DejaVuSans-65" transform="translate(78.072266 0)"/>
      <use xlink:href="#DejaVuSans-65" transform="translate(139.595703 0)"/>
      <use xlink:href="#DejaVuSans-62" transform="translate(201.119141 0)"/>
      <use xlink:href="#DejaVuSans-65" transform="translate(264.595703 0)"/>
      <use xlink:href="#DejaVuSans-61" transform="translate(326.119141 0)"/>
      <use xlink:href="#DejaVuSans-72" transform="translate(387.398438 0)"/>
      <use xlink:href="#DejaVuSans-64" transform="translate(426.761719 0)"/>
      <use xlink:href="#DejaVuSans-20" transform="translate(490.238281 0)"/>
      <use xlink:href="#DejaVuSans-4e" transform="translate(522.025391 0)"/>
      <use xlink:href="#DejaVuSans-53" transform="translate(596.830078 0)"/>
     </g>
    </g>
   </g>
  </g>
 </g>
 <defs>
  <clipPath id="pfa18e503b5">
   <rect x="61.715625" y="22.318125" width="357.12" height="266.112"/>
  </clipPath>
 </defs>
</svg>
