<?xml version="1.0" encoding="utf-8" standalone="no"?>
<!DOCTYPE svg PUBLIC "-//W3C//DTD SVG 1.1//EN"
  "http://www.w3.org/Graphics/SVG/1.1/DTD/svg11.dtd">
<svg xmlns:xlink="http://www.w3.org/1999/xlink" width="426.229375pt" height="371.002375pt" viewBox="0 0 426.229375 371.002375" xmlns="http://www.w3.org/2000/svg" version="1.1">
 <metadata>
  <rdf:RDF xmlns:dc="http://purl.org/dc/elements/1.1/" xmlns:cc="http://creativecommons.org/ns#" xmlns:rdf="http://www.w3.org/1999/02/22-rdf-syntax-ns#">
   <cc:Work>
    <dc:type rdf:resource="http://purl.org/dc/dcmitype/StillImage"/>
    <dc:date>2025-09-29T14:54:24.468498</dc:date>
    <dc:format>image/svg+xml</dc:format>
    <dc:creator>
     <cc:Agent>
      <dc:title>Matplotlib v3.10.6, https://matplotlib.org/</dc:title>
     </cc:Agent>
    </dc:creator>
   </cc:Work>
  </rdf:RDF>
 </metadata>
 <defs>
  <style type="text/css">*{stroke-linejoin: round; stroke-linecap: butt}</style>
 </defs>
 <g id="figure_1">
  <g id="patch_1">
   <path d="M 0 371.002375 
L 426.229375 371.002375 
L 426.229375 0 
L 0 0 
z
" style="fill: #ffffff"/>
  </g>
  <g id="axes_1">
   <g id="patch_2">
    <path d="M 61.909375 288.430125 
L 419.029375 288.430125 
L 419.029375 22.318125 
L 61.909375 22.318125 
z
" style="fill: #ffffff"/>
   </g>
   <g id="matplotlib.axis_1">
    <g id="xtick_1">
     <g id="line2d_1">
      <defs>
       <path id="m6c715db4ae" d="M 0 0 
L 0 3.5 
" style="stroke: #000000; stroke-width: 0.8"/>
      </defs>
      <g>
       <use xlink:href="#m6c715db4ae" x="61.909375" y="288.430125" style="stroke: #000000; stroke-width: 0.8"/>
      </g>
     </g>
     <g id="text_1">
      <!-- 0 -->
      <g transform="translate(58.728125 303.028562) scale(0.1 -0.1)">
       <defs>
        <path id="DejaVuSans-30" d="M 2034 4250 
Q 1547 4250 1301 3770 
Q 1056 3291 1056 2328 
Q 1056 1369 1301 889 
Q 1547 409 2034 409 
Q 2525 409 2770 889 
Q 3016 1369 3016 2328 
Q 3016 3291 2770 3770 
Q 2525 4250 2034 4250 
z
M 2034 4750 
Q 2819 4750 3233 4129 
Q 3647 3509 3647 2328 
Q 3647 1150 3233 529 
Q 2819 -91 2034 -91 
Q 1250 -91 836 529 
Q 422 1150 422 2328 
Q 422 3509 836 4129 
Q 1250 4750 2034 4750 
z
" transform="scale(0.015625)"/>
       </defs>
       <use xlink:href="#DejaVuSans-30"/>
      </g>
     </g>
    </g>
    <g id="xtick_2">
     <g id="line2d_2">
      <g>
       <use xlink:href="#m6c715db4ae" x="105.457939" y="288.430125" style="stroke: #000000; stroke-width: 0.8"/>
      </g>
     </g>
     <g id="text_2">
      <!-- 500  -->
      <g transform="translate(94.325127 303.028562) scale(0.1 -0.1)">
       <defs>
        <path id="DejaVuSans-35" d="M 691 4666 
L 3169 4666 
L 3169 4134 
L 1269 4134 
L 1269 2991 
Q 1406 3038 1543 3061 
Q 1681 3084 1819 3084 
Q 2600 3084 3056 2656 
Q 3513 2228 3513 1497 
Q 3513 744 3044 326 
Q 2575 -91 1722 -91 
Q 1428 -91 1123 -41 
Q 819 9 494 109 
L 494 744 
Q 775 591 1075 516 
Q 1375 441 1709 441 
Q 2250 441 2565 725 
Q 2881 1009 2881 1497 
Q 2881 1984 2565 2268 
Q 2250 2553 1709 2553 
Q 1456 2553 1204 2497 
Q 953 2441 691 2322 
L 691 4666 
z
" transform="scale(0.015625)"/>
        <path id="DejaVuSans-20" transform="scale(0.015625)"/>
       </defs>
       <use xlink:href="#DejaVuSans-35"/>
       <use xlink:href="#DejaVuSans-30" transform="translate(63.623047 0)"/>
       <use xlink:href="#DejaVuSans-30" transform="translate(127.246094 0)"/>
       <use xlink:href="#DejaVuSans-20" transform="translate(190.869141 0)"/>
      </g>
     </g>
    </g>
    <g id="xtick_3">
     <g id="line2d_3">
      <g>
       <use xlink:href="#m6c715db4ae" x="149.006503" y="288.430125" style="stroke: #000000; stroke-width: 0.8"/>
      </g>
     </g>
     <g id="text_3">
      <!-- 1 k -->
      <g transform="translate(141.340878 303.028562) scale(0.1 -0.1)">
       <defs>
        <path id="DejaVuSans-31" d="M 794 531 
L 1825 531 
L 1825 4091 
L 703 3866 
L 703 4441 
L 1819 4666 
L 2450 4666 
L 2450 531 
L 3481 531 
L 3481 0 
L 794 0 
L 794 531 
z
" transform="scale(0.015625)"/>
        <path id="DejaVuSans-6b" d="M 581 4863 
L 1159 4863 
L 1159 1991 
L 2875 3500 
L 3609 3500 
L 1753 1863 
L 3688 0 
L 2938 0 
L 1159 1709 
L 1159 0 
L 581 0 
L 581 4863 
z
" transform="scale(0.015625)"/>
       </defs>
       <use xlink:href="#DejaVuSans-31"/>
       <use xlink:href="#DejaVuSans-20" transform="translate(63.623047 0)"/>
       <use xlink:href="#DejaVuSans-6b" transform="translate(95.410156 0)"/>
      </g>
     </g>
    </g>
    <g id="xtick_4">
     <g id="line2d_4">
      <g>
       <use xlink:href="#m6c715db4ae" x="192.555067" y="288.430125" style="stroke: #000000; stroke-width: 0.8"/>
      </g>
     </g>
     <g id="text_4">
      <!-- 1.5 k -->
      <g transform="translate(180.11913 303.028562) scale(0.1 -0.1)">
       <defs>
        <path id="DejaVuSans-2e" d="M 684 794 
L 1344 794 
L 1344 0 
L 684 0 
L 684 794 
z
" transform="scale(0.015625)"/>
       </defs>
       <use xlink:href="#DejaVuSans-31"/>
       <use xlink:href="#DejaVuSans-2e" transform="translate(63.623047 0)"/>
       <use xlink:href="#DejaVuSans-35" transform="translate(95.410156 0)"/>
       <use xlink:href="#DejaVuSans-20" transform="translate(159.033203 0)"/>
       <use xlink:href="#DejaVuSans-6b" transform="translate(190.820312 0)"/>
      </g>
     </g>
    </g>
    <g id="xtick_5">
     <g id="line2d_5">
      <g>
       <use xlink:href="#m6c715db4ae" x="236.103631" y="288.430125" style="stroke: #000000; stroke-width: 0.8"/>
      </g>
     </g>
     <g id="text_5">
      <!-- 2 k -->
      <g transform="translate(228.438006 303.028562) scale(0.1 -0.1)">
       <defs>
        <path id="DejaVuSans-32" d="M 1228 531 
L 3431 531 
L 3431 0 
L 469 0 
L 469 531 
Q 828 903 1448 1529 
Q 2069 2156 2228 2338 
Q 2531 2678 2651 2914 
Q 2772 3150 2772 3378 
Q 2772 3750 2511 3984 
Q 2250 4219 1831 4219 
Q 1534 4219 1204 4116 
Q 875 4013 500 3803 
L 500 4441 
Q 881 4594 1212 4672 
Q 1544 4750 1819 4750 
Q 2544 4750 2975 4387 
Q 3406 4025 3406 3419 
Q 3406 3131 3298 2873 
Q 3191 2616 2906 2266 
Q 2828 2175 2409 1742 
Q 1991 1309 1228 531 
z
" transform="scale(0.015625)"/>
       </defs>
       <use xlink:href="#DejaVuSans-32"/>
       <use xlink:href="#DejaVuSans-20" transform="translate(63.623047 0)"/>
       <use xlink:href="#DejaVuSans-6b" transform="translate(95.410156 0)"/>
      </g>
     </g>
    </g>
    <g id="xtick_6">
     <g id="line2d_6">
      <g>
       <use xlink:href="#m6c715db4ae" x="279.652196" y="288.430125" style="stroke: #000000; stroke-width: 0.8"/>
      </g>
     </g>
     <g id="text_6">
      <!-- 2.5 k -->
      <g transform="translate(267.216258 303.028562) scale(0.1 -0.1)">
       <use xlink:href="#DejaVuSans-32"/>
       <use xlink:href="#DejaVuSans-2e" transform="translate(63.623047 0)"/>
       <use xlink:href="#DejaVuSans-35" transform="translate(95.410156 0)"/>
       <use xlink:href="#DejaVuSans-20" transform="translate(159.033203 0)"/>
       <use xlink:href="#DejaVuSans-6b" transform="translate(190.820312 0)"/>
      </g>
     </g>
    </g>
    <g id="xtick_7">
     <g id="line2d_7">
      <g>
       <use xlink:href="#m6c715db4ae" x="323.20076" y="288.430125" style="stroke: #000000; stroke-width: 0.8"/>
      </g>
     </g>
     <g id="text_7">
      <!-- 3 k -->
      <g transform="translate(315.535135 303.028562) scale(0.1 -0.1)">
       <defs>
        <path id="DejaVuSans-33" d="M 2597 2516 
Q 3050 2419 3304 2112 
Q 3559 1806 3559 1356 
Q 3559 666 3084 287 
Q 2609 -91 1734 -91 
Q 1441 -91 1130 -33 
Q 819 25 488 141 
L 488 750 
Q 750 597 1062 519 
Q 1375 441 1716 441 
Q 2309 441 2620 675 
Q 2931 909 2931 1356 
Q 2931 1769 2642 2001 
Q 2353 2234 1838 2234 
L 1294 2234 
L 1294 2753 
L 1863 2753 
Q 2328 2753 2575 2939 
Q 2822 3125 2822 3475 
Q 2822 3834 2567 4026 
Q 2313 4219 1838 4219 
Q 1578 4219 1281 4162 
Q 984 4106 628 3988 
L 628 4550 
Q 988 4650 1302 4700 
Q 1616 4750 1894 4750 
Q 2613 4750 3031 4423 
Q 3450 4097 3450 3541 
Q 3450 3153 3228 2886 
Q 3006 2619 2597 2516 
z
" transform="scale(0.015625)"/>
       </defs>
       <use xlink:href="#DejaVuSans-33"/>
       <use xlink:href="#DejaVuSans-20" transform="translate(63.623047 0)"/>
       <use xlink:href="#DejaVuSans-6b" transform="translate(95.410156 0)"/>
      </g>
     </g>
    </g>
    <g id="xtick_8">
     <g id="line2d_8">
      <g>
       <use xlink:href="#m6c715db4ae" x="366.749324" y="288.430125" style="stroke: #000000; stroke-width: 0.8"/>
      </g>
     </g>
     <g id="text_8">
      <!-- 3.5 k -->
      <g transform="translate(354.313386 303.028562) scale(0.1 -0.1)">
       <use xlink:href="#DejaVuSans-33"/>
       <use xlink:href="#DejaVuSans-2e" transform="translate(63.623047 0)"/>
       <use xlink:href="#DejaVuSans-35" transform="translate(95.410156 0)"/>
       <use xlink:href="#DejaVuSans-20" transform="translate(159.033203 0)"/>
       <use xlink:href="#DejaVuSans-6b" transform="translate(190.820312 0)"/>
      </g>
     </g>
    </g>
    <g id="xtick_9">
     <g id="line2d_9">
      <g>
       <use xlink:href="#m6c715db4ae" x="410.297888" y="288.430125" style="stroke: #000000; stroke-width: 0.8"/>
      </g>
     </g>
     <g id="text_9">
      <!-- 4 k -->
      <g transform="translate(402.632263 303.028562) scale(0.1 -0.1)">
       <defs>
        <path id="DejaVuSans-34" d="M 2419 4116 
L 825 1625 
L 2419 1625 
L 2419 4116 
z
M 2253 4666 
L 3047 4666 
L 3047 1625 
L 3713 1625 
L 3713 1100 
L 3047 1100 
L 3047 0 
L 2419 0 
L 2419 1100 
L 313 1100 
L 313 1709 
L 2253 4666 
z
" transform="scale(0.015625)"/>
       </defs>
       <use xlink:href="#DejaVuSans-34"/>
       <use xlink:href="#DejaVuSans-20" transform="translate(63.623047 0)"/>
       <use xlink:href="#DejaVuSans-6b" transform="translate(95.410156 0)"/>
      </g>
     </g>
    </g>
    <g id="text_10">
     <!-- Amount of objects in table -->
     <g transform="translate(174.410781 316.706687) scale(0.1 -0.1)">
      <defs>
       <path id="DejaVuSans-41" d="M 2188 4044 
L 1331 1722 
L 3047 1722 
L 2188 4044 
z
M 1831 4666 
L 2547 4666 
L 4325 0 
L 3669 0 
L 3244 1197 
L 1141 1197 
L 716 0 
L 50 0 
L 1831 4666 
z
" transform="scale(0.015625)"/>
       <path id="DejaVuSans-6d" d="M 3328 2828 
Q 3544 3216 3844 3400 
Q 4144 3584 4550 3584 
Q 5097 3584 5394 3201 
Q 5691 2819 5691 2113 
L 5691 0 
L 5113 0 
L 5113 2094 
Q 5113 2597 4934 2840 
Q 4756 3084 4391 3084 
Q 3944 3084 3684 2787 
Q 3425 2491 3425 1978 
L 3425 0 
L 2847 0 
L 2847 2094 
Q 2847 2600 2669 2842 
Q 2491 3084 2119 3084 
Q 1678 3084 1418 2786 
Q 1159 2488 1159 1978 
L 1159 0 
L 581 0 
L 581 3500 
L 1159 3500 
L 1159 2956 
Q 1356 3278 1631 3431 
Q 1906 3584 2284 3584 
Q 2666 3584 2933 3390 
Q 3200 3197 3328 2828 
z
" transform="scale(0.015625)"/>
       <path id="DejaVuSans-6f" d="M 1959 3097 
Q 1497 3097 1228 2736 
Q 959 2375 959 1747 
Q 959 1119 1226 758 
Q 1494 397 1959 397 
Q 2419 397 2687 759 
Q 2956 1122 2956 1747 
Q 2956 2369 2687 2733 
Q 2419 3097 1959 3097 
z
M 1959 3584 
Q 2709 3584 3137 3096 
Q 3566 2609 3566 1747 
Q 3566 888 3137 398 
Q 2709 -91 1959 -91 
Q 1206 -91 779 398 
Q 353 888 353 1747 
Q 353 2609 779 3096 
Q 1206 3584 1959 3584 
z
" transform="scale(0.015625)"/>
       <path id="DejaVuSans-75" d="M 544 1381 
L 544 3500 
L 1119 3500 
L 1119 1403 
Q 1119 906 1312 657 
Q 1506 409 1894 409 
Q 2359 409 2629 706 
Q 2900 1003 2900 1516 
L 2900 3500 
L 3475 3500 
L 3475 0 
L 2900 0 
L 2900 538 
Q 2691 219 2414 64 
Q 2138 -91 1772 -91 
Q 1169 -91 856 284 
Q 544 659 544 1381 
z
M 1991 3584 
L 1991 3584 
z
" transform="scale(0.015625)"/>
       <path id="DejaVuSans-6e" d="M 3513 2113 
L 3513 0 
L 2938 0 
L 2938 2094 
Q 2938 2591 2744 2837 
Q 2550 3084 2163 3084 
Q 1697 3084 1428 2787 
Q 1159 2491 1159 1978 
L 1159 0 
L 581 0 
L 581 3500 
L 1159 3500 
L 1159 2956 
Q 1366 3272 1645 3428 
Q 1925 3584 2291 3584 
Q 2894 3584 3203 3211 
Q 3513 2838 3513 2113 
z
" transform="scale(0.015625)"/>
       <path id="DejaVuSans-74" d="M 1172 4494 
L 1172 3500 
L 2356 3500 
L 2356 3053 
L 1172 3053 
L 1172 1153 
Q 1172 725 1289 603 
Q 1406 481 1766 481 
L 2356 481 
L 2356 0 
L 1766 0 
Q 1100 0 847 248 
Q 594 497 594 1153 
L 594 3053 
L 172 3053 
L 172 3500 
L 594 3500 
L 594 4494 
L 1172 4494 
z
" transform="scale(0.015625)"/>
       <path id="DejaVuSans-66" d="M 2375 4863 
L 2375 4384 
L 1825 4384 
Q 1516 4384 1395 4259 
Q 1275 4134 1275 3809 
L 1275 3500 
L 2222 3500 
L 2222 3053 
L 1275 3053 
L 1275 0 
L 697 0 
L 697 3053 
L 147 3053 
L 147 3500 
L 697 3500 
L 697 3744 
Q 697 4328 969 4595 
Q 1241 4863 1831 4863 
L 2375 4863 
z
" transform="scale(0.015625)"/>
       <path id="DejaVuSans-62" d="M 3116 1747 
Q 3116 2381 2855 2742 
Q 2594 3103 2138 3103 
Q 1681 3103 1420 2742 
Q 1159 2381 1159 1747 
Q 1159 1113 1420 752 
Q 1681 391 2138 391 
Q 2594 391 2855 752 
Q 3116 1113 3116 1747 
z
M 1159 2969 
Q 1341 3281 1617 3432 
Q 1894 3584 2278 3584 
Q 2916 3584 3314 3078 
Q 3713 2572 3713 1747 
Q 3713 922 3314 415 
Q 2916 -91 2278 -91 
Q 1894 -91 1617 61 
Q 1341 213 1159 525 
L 1159 0 
L 581 0 
L 581 4863 
L 1159 4863 
L 1159 2969 
z
" transform="scale(0.015625)"/>
       <path id="DejaVuSans-6a" d="M 603 3500 
L 1178 3500 
L 1178 -63 
Q 1178 -731 923 -1031 
Q 669 -1331 103 -1331 
L -116 -1331 
L -116 -844 
L 38 -844 
Q 366 -844 484 -692 
Q 603 -541 603 -63 
L 603 3500 
z
M 603 4863 
L 1178 4863 
L 1178 4134 
L 603 4134 
L 603 4863 
z
" transform="scale(0.015625)"/>
       <path id="DejaVuSans-65" d="M 3597 1894 
L 3597 1613 
L 953 1613 
Q 991 1019 1311 708 
Q 1631 397 2203 397 
Q 2534 397 2845 478 
Q 3156 559 3463 722 
L 3463 178 
Q 3153 47 2828 -22 
Q 2503 -91 2169 -91 
Q 1331 -91 842 396 
Q 353 884 353 1716 
Q 353 2575 817 3079 
Q 1281 3584 2069 3584 
Q 2775 3584 3186 3129 
Q 3597 2675 3597 1894 
z
M 3022 2063 
Q 3016 2534 2758 2815 
Q 2500 3097 2075 3097 
Q 1594 3097 1305 2825 
Q 1016 2553 972 2059 
L 3022 2063 
z
" transform="scale(0.015625)"/>
       <path id="DejaVuSans-63" d="M 3122 3366 
L 3122 2828 
Q 2878 2963 2633 3030 
Q 2388 3097 2138 3097 
Q 1578 3097 1268 2742 
Q 959 2388 959 1747 
Q 959 1106 1268 751 
Q 1578 397 2138 397 
Q 2388 397 2633 464 
Q 2878 531 3122 666 
L 3122 134 
Q 2881 22 2623 -34 
Q 2366 -91 2075 -91 
Q 1284 -91 818 406 
Q 353 903 353 1747 
Q 353 2603 823 3093 
Q 1294 3584 2113 3584 
Q 2378 3584 2631 3529 
Q 2884 3475 3122 3366 
z
" transform="scale(0.015625)"/>
       <path id="DejaVuSans-73" d="M 2834 3397 
L 2834 2853 
Q 2591 2978 2328 3040 
Q 2066 3103 1784 3103 
Q 1356 3103 1142 2972 
Q 928 2841 928 2578 
Q 928 2378 1081 2264 
Q 1234 2150 1697 2047 
L 1894 2003 
Q 2506 1872 2764 1633 
Q 3022 1394 3022 966 
Q 3022 478 2636 193 
Q 2250 -91 1575 -91 
Q 1294 -91 989 -36 
Q 684 19 347 128 
L 347 722 
Q 666 556 975 473 
Q 1284 391 1588 391 
Q 1994 391 2212 530 
Q 2431 669 2431 922 
Q 2431 1156 2273 1281 
Q 2116 1406 1581 1522 
L 1381 1569 
Q 847 1681 609 1914 
Q 372 2147 372 2553 
Q 372 3047 722 3315 
Q 1072 3584 1716 3584 
Q 2034 3584 2315 3537 
Q 2597 3491 2834 3397 
z
" transform="scale(0.015625)"/>
       <path id="DejaVuSans-69" d="M 603 3500 
L 1178 3500 
L 1178 0 
L 603 0 
L 603 3500 
z
M 603 4863 
L 1178 4863 
L 1178 4134 
L 603 4134 
L 603 4863 
z
" transform="scale(0.015625)"/>
       <path id="DejaVuSans-61" d="M 2194 1759 
Q 1497 1759 1228 1600 
Q 959 1441 959 1056 
Q 959 750 1161 570 
Q 1363 391 1709 391 
Q 2188 391 2477 730 
Q 2766 1069 2766 1631 
L 2766 1759 
L 2194 1759 
z
M 3341 1997 
L 3341 0 
L 2766 0 
L 2766 531 
Q 2569 213 2275 61 
Q 1981 -91 1556 -91 
Q 1019 -91 701 211 
Q 384 513 384 1019 
Q 384 1609 779 1909 
Q 1175 2209 1959 2209 
L 2766 2209 
L 2766 2266 
Q 2766 2663 2505 2880 
Q 2244 3097 1772 3097 
Q 1472 3097 1187 3025 
Q 903 2953 641 2809 
L 641 3341 
Q 956 3463 1253 3523 
Q 1550 3584 1831 3584 
Q 2591 3584 2966 3190 
Q 3341 2797 3341 1997 
z
" transform="scale(0.015625)"/>
       <path id="DejaVuSans-6c" d="M 603 4863 
L 1178 4863 
L 1178 0 
L 603 0 
L 603 4863 
z
" transform="scale(0.015625)"/>
      </defs>
      <use xlink:href="#DejaVuSans-41"/>
      <use xlink:href="#DejaVuSans-6d" transform="translate(68.408203 0)"/>
      <use xlink:href="#DejaVuSans-6f" transform="translate(165.820312 0)"/>
      <use xlink:href="#DejaVuSans-75" transform="translate(227.001953 0)"/>
      <use xlink:href="#DejaVuSans-6e" transform="translate(290.380859 0)"/>
      <use xlink:href="#DejaVuSans-74" transform="translate(353.759766 0)"/>
      <use xlink:href="#DejaVuSans-20" transform="translate(392.96875 0)"/>
      <use xlink:href="#DejaVuSans-6f" transform="translate(424.755859 0)"/>
      <use xlink:href="#DejaVuSans-66" transform="translate(485.9375 0)"/>
      <use xlink:href="#DejaVuSans-20" transform="translate(521.142578 0)"/>
      <use xlink:href="#DejaVuSans-6f" transform="translate(552.929688 0)"/>
      <use xlink:href="#DejaVuSans-62" transform="translate(614.111328 0)"/>
      <use xlink:href="#DejaVuSans-6a" transform="translate(677.587891 0)"/>
      <use xlink:href="#DejaVuSans-65" transform="translate(705.371094 0)"/>
      <use xlink:href="#DejaVuSans-63" transform="translate(766.894531 0)"/>
      <use xlink:href="#DejaVuSans-74" transform="translate(821.875 0)"/>
      <use xlink:href="#DejaVuSans-73" transform="translate(861.083984 0)"/>
      <use xlink:href="#DejaVuSans-20" transform="translate(913.183594 0)"/>
      <use xlink:href="#DejaVuSans-69" transform="translate(944.970703 0)"/>
      <use xlink:href="#DejaVuSans-6e" transform="translate(972.753906 0)"/>
      <use xlink:href="#DejaVuSans-20" transform="translate(1036.132812 0)"/>
      <use xlink:href="#DejaVuSans-74" transform="translate(1067.919922 0)"/>
      <use xlink:href="#DejaVuSans-61" transform="translate(1107.128906 0)"/>
      <use xlink:href="#DejaVuSans-62" transform="translate(1168.408203 0)"/>
      <use xlink:href="#DejaVuSans-6c" transform="translate(1231.884766 0)"/>
      <use xlink:href="#DejaVuSans-65" transform="translate(1259.667969 0)"/>
     </g>
    </g>
   </g>
   <g id="matplotlib.axis_2">
    <g id="ytick_1">
     <g id="line2d_10">
      <defs>
       <path id="me35018253e" d="M 0 0 
L -3.5 0 
" style="stroke: #000000; stroke-width: 0.8"/>
      </defs>
      <g>
       <use xlink:href="#me35018253e" x="61.909375" y="288.430125" style="stroke: #000000; stroke-width: 0.8"/>
      </g>
     </g>
     <g id="text_11">
      <!-- 0 -->
      <g transform="translate(48.546875 292.229344) scale(0.1 -0.1)">
       <use xlink:href="#DejaVuSans-30"/>
      </g>
     </g>
    </g>
    <g id="ytick_2">
     <g id="line2d_11">
      <g>
       <use xlink:href="#me35018253e" x="61.909375" y="250.152627" style="stroke: #000000; stroke-width: 0.8"/>
      </g>
     </g>
     <g id="text_12">
      <!-- 200 µs -->
      <g transform="translate(21.071875 253.951845) scale(0.1 -0.1)">
       <defs>
        <path id="DejaVuSans-b5" d="M 544 -1331 
L 544 3500 
L 1119 3500 
L 1119 1325 
Q 1119 872 1334 640 
Q 1550 409 1972 409 
Q 2434 409 2667 671 
Q 2900 934 2900 1459 
L 2900 3500 
L 3475 3500 
L 3475 806 
Q 3475 619 3529 530 
Q 3584 441 3700 441 
Q 3728 441 3778 458 
Q 3828 475 3916 513 
L 3916 50 
Q 3788 -22 3673 -56 
Q 3559 -91 3450 -91 
Q 3234 -91 3106 31 
Q 2978 153 2931 403 
Q 2775 156 2548 32 
Q 2322 -91 2016 -91 
Q 1697 -91 1473 31 
Q 1250 153 1119 397 
L 1119 -1331 
L 544 -1331 
z
" transform="scale(0.015625)"/>
       </defs>
       <use xlink:href="#DejaVuSans-32"/>
       <use xlink:href="#DejaVuSans-30" transform="translate(63.623047 0)"/>
       <use xlink:href="#DejaVuSans-30" transform="translate(127.246094 0)"/>
       <use xlink:href="#DejaVuSans-20" transform="translate(190.869141 0)"/>
       <use xlink:href="#DejaVuSans-b5" transform="translate(222.65625 0)"/>
       <use xlink:href="#DejaVuSans-73" transform="translate(286.279297 0)"/>
      </g>
     </g>
    </g>
    <g id="ytick_3">
     <g id="line2d_12">
      <g>
       <use xlink:href="#me35018253e" x="61.909375" y="211.875128" style="stroke: #000000; stroke-width: 0.8"/>
      </g>
     </g>
     <g id="text_13">
      <!-- 400 µs -->
      <g transform="translate(21.071875 215.674347) scale(0.1 -0.1)">
       <use xlink:href="#DejaVuSans-34"/>
       <use xlink:href="#DejaVuSans-30" transform="translate(63.623047 0)"/>
       <use xlink:href="#DejaVuSans-30" transform="translate(127.246094 0)"/>
       <use xlink:href="#DejaVuSans-20" transform="translate(190.869141 0)"/>
       <use xlink:href="#DejaVuSans-b5" transform="translate(222.65625 0)"/>
       <use xlink:href="#DejaVuSans-73" transform="translate(286.279297 0)"/>
      </g>
     </g>
    </g>
    <g id="ytick_4">
     <g id="line2d_13">
      <g>
       <use xlink:href="#me35018253e" x="61.909375" y="173.59763" style="stroke: #000000; stroke-width: 0.8"/>
      </g>
     </g>
     <g id="text_14">
      <!-- 600 µs -->
      <g transform="translate(21.071875 177.396849) scale(0.1 -0.1)">
       <defs>
        <path id="DejaVuSans-36" d="M 2113 2584 
Q 1688 2584 1439 2293 
Q 1191 2003 1191 1497 
Q 1191 994 1439 701 
Q 1688 409 2113 409 
Q 2538 409 2786 701 
Q 3034 994 3034 1497 
Q 3034 2003 2786 2293 
Q 2538 2584 2113 2584 
z
M 3366 4563 
L 3366 3988 
Q 3128 4100 2886 4159 
Q 2644 4219 2406 4219 
Q 1781 4219 1451 3797 
Q 1122 3375 1075 2522 
Q 1259 2794 1537 2939 
Q 1816 3084 2150 3084 
Q 2853 3084 3261 2657 
Q 3669 2231 3669 1497 
Q 3669 778 3244 343 
Q 2819 -91 2113 -91 
Q 1303 -91 875 529 
Q 447 1150 447 2328 
Q 447 3434 972 4092 
Q 1497 4750 2381 4750 
Q 2619 4750 2861 4703 
Q 3103 4656 3366 4563 
z
" transform="scale(0.015625)"/>
       </defs>
       <use xlink:href="#DejaVuSans-36"/>
       <use xlink:href="#DejaVuSans-30" transform="translate(63.623047 0)"/>
       <use xlink:href="#DejaVuSans-30" transform="translate(127.246094 0)"/>
       <use xlink:href="#DejaVuSans-20" transform="translate(190.869141 0)"/>
       <use xlink:href="#DejaVuSans-b5" transform="translate(222.65625 0)"/>
       <use xlink:href="#DejaVuSans-73" transform="translate(286.279297 0)"/>
      </g>
     </g>
    </g>
    <g id="ytick_5">
     <g id="line2d_14">
      <g>
       <use xlink:href="#me35018253e" x="61.909375" y="135.320132" style="stroke: #000000; stroke-width: 0.8"/>
      </g>
     </g>
     <g id="text_15">
      <!-- 800 µs -->
      <g transform="translate(21.071875 139.11935) scale(0.1 -0.1)">
       <defs>
        <path id="DejaVuSans-38" d="M 2034 2216 
Q 1584 2216 1326 1975 
Q 1069 1734 1069 1313 
Q 1069 891 1326 650 
Q 1584 409 2034 409 
Q 2484 409 2743 651 
Q 3003 894 3003 1313 
Q 3003 1734 2745 1975 
Q 2488 2216 2034 2216 
z
M 1403 2484 
Q 997 2584 770 2862 
Q 544 3141 544 3541 
Q 544 4100 942 4425 
Q 1341 4750 2034 4750 
Q 2731 4750 3128 4425 
Q 3525 4100 3525 3541 
Q 3525 3141 3298 2862 
Q 3072 2584 2669 2484 
Q 3125 2378 3379 2068 
Q 3634 1759 3634 1313 
Q 3634 634 3220 271 
Q 2806 -91 2034 -91 
Q 1263 -91 848 271 
Q 434 634 434 1313 
Q 434 1759 690 2068 
Q 947 2378 1403 2484 
z
M 1172 3481 
Q 1172 3119 1398 2916 
Q 1625 2713 2034 2713 
Q 2441 2713 2670 2916 
Q 2900 3119 2900 3481 
Q 2900 3844 2670 4047 
Q 2441 4250 2034 4250 
Q 1625 4250 1398 4047 
Q 1172 3844 1172 3481 
z
" transform="scale(0.015625)"/>
       </defs>
       <use xlink:href="#DejaVuSans-38"/>
       <use xlink:href="#DejaVuSans-30" transform="translate(63.623047 0)"/>
       <use xlink:href="#DejaVuSans-30" transform="translate(127.246094 0)"/>
       <use xlink:href="#DejaVuSans-20" transform="translate(190.869141 0)"/>
       <use xlink:href="#DejaVuSans-b5" transform="translate(222.65625 0)"/>
       <use xlink:href="#DejaVuSans-73" transform="translate(286.279297 0)"/>
      </g>
     </g>
    </g>
    <g id="ytick_6">
     <g id="line2d_15">
      <g>
       <use xlink:href="#me35018253e" x="61.909375" y="97.042633" style="stroke: #000000; stroke-width: 0.8"/>
      </g>
     </g>
     <g id="text_16">
      <!-- 1 ms -->
      <g transform="translate(30.41875 100.841852) scale(0.1 -0.1)">
       <use xlink:href="#DejaVuSans-31"/>
       <use xlink:href="#DejaVuSans-20" transform="translate(63.623047 0)"/>
       <use xlink:href="#DejaVuSans-6d" transform="translate(95.410156 0)"/>
       <use xlink:href="#DejaVuSans-73" transform="translate(192.822266 0)"/>
      </g>
     </g>
    </g>
    <g id="ytick_7">
     <g id="line2d_16">
      <g>
       <use xlink:href="#me35018253e" x="61.909375" y="58.765135" style="stroke: #000000; stroke-width: 0.8"/>
      </g>
     </g>
     <g id="text_17">
      <!-- 1.2 ms -->
      <g transform="translate(20.878125 62.564354) scale(0.1 -0.1)">
       <use xlink:href="#DejaVuSans-31"/>
       <use xlink:href="#DejaVuSans-2e" transform="translate(63.623047 0)"/>
       <use xlink:href="#DejaVuSans-32" transform="translate(95.410156 0)"/>
       <use xlink:href="#DejaVuSans-20" transform="translate(159.033203 0)"/>
       <use xlink:href="#DejaVuSans-6d" transform="translate(190.820312 0)"/>
       <use xlink:href="#DejaVuSans-73" transform="translate(288.232422 0)"/>
      </g>
     </g>
    </g>
    <g id="text_18">
     <!-- Read latency (s) -->
     <g transform="translate(14.798438 195.98975) rotate(-90) scale(0.1 -0.1)">
      <defs>
       <path id="DejaVuSans-52" d="M 2841 2188 
Q 3044 2119 3236 1894 
Q 3428 1669 3622 1275 
L 4263 0 
L 3584 0 
L 2988 1197 
Q 2756 1666 2539 1819 
Q 2322 1972 1947 1972 
L 1259 1972 
L 1259 0 
L 628 0 
L 628 4666 
L 2053 4666 
Q 2853 4666 3247 4331 
Q 3641 3997 3641 3322 
Q 3641 2881 3436 2590 
Q 3231 2300 2841 2188 
z
M 1259 4147 
L 1259 2491 
L 2053 2491 
Q 2509 2491 2742 2702 
Q 2975 2913 2975 3322 
Q 2975 3731 2742 3939 
Q 2509 4147 2053 4147 
L 1259 4147 
z
" transform="scale(0.015625)"/>
       <path id="DejaVuSans-64" d="M 2906 2969 
L 2906 4863 
L 3481 4863 
L 3481 0 
L 2906 0 
L 2906 525 
Q 2725 213 2448 61 
Q 2172 -91 1784 -91 
Q 1150 -91 751 415 
Q 353 922 353 1747 
Q 353 2572 751 3078 
Q 1150 3584 1784 3584 
Q 2172 3584 2448 3432 
Q 2725 3281 2906 2969 
z
M 947 1747 
Q 947 1113 1208 752 
Q 1469 391 1925 391 
Q 2381 391 2643 752 
Q 2906 1113 2906 1747 
Q 2906 2381 2643 2742 
Q 2381 3103 1925 3103 
Q 1469 3103 1208 2742 
Q 947 2381 947 1747 
z
" transform="scale(0.015625)"/>
       <path id="DejaVuSans-79" d="M 2059 -325 
Q 1816 -950 1584 -1140 
Q 1353 -1331 966 -1331 
L 506 -1331 
L 506 -850 
L 844 -850 
Q 1081 -850 1212 -737 
Q 1344 -625 1503 -206 
L 1606 56 
L 191 3500 
L 800 3500 
L 1894 763 
L 2988 3500 
L 3597 3500 
L 2059 -325 
z
" transform="scale(0.015625)"/>
       <path id="DejaVuSans-28" d="M 1984 4856 
Q 1566 4138 1362 3434 
Q 1159 2731 1159 2009 
Q 1159 1288 1364 580 
Q 1569 -128 1984 -844 
L 1484 -844 
Q 1016 -109 783 600 
Q 550 1309 550 2009 
Q 550 2706 781 3412 
Q 1013 4119 1484 4856 
L 1984 4856 
z
" transform="scale(0.015625)"/>
       <path id="DejaVuSans-29" d="M 513 4856 
L 1013 4856 
Q 1481 4119 1714 3412 
Q 1947 2706 1947 2009 
Q 1947 1309 1714 600 
Q 1481 -109 1013 -844 
L 513 -844 
Q 928 -128 1133 580 
Q 1338 1288 1338 2009 
Q 1338 2731 1133 3434 
Q 928 4138 513 4856 
z
" transform="scale(0.015625)"/>
      </defs>
      <use xlink:href="#DejaVuSans-52"/>
      <use xlink:href="#DejaVuSans-65" transform="translate(64.982422 0)"/>
      <use xlink:href="#DejaVuSans-61" transform="translate(126.505859 0)"/>
      <use xlink:href="#DejaVuSans-64" transform="translate(187.785156 0)"/>
      <use xlink:href="#DejaVuSans-20" transform="translate(251.261719 0)"/>
      <use xlink:href="#DejaVuSans-6c" transform="translate(283.048828 0)"/>
      <use xlink:href="#DejaVuSans-61" transform="translate(310.832031 0)"/>
      <use xlink:href="#DejaVuSans-74" transform="translate(372.111328 0)"/>
      <use xlink:href="#DejaVuSans-65" transform="translate(411.320312 0)"/>
      <use xlink:href="#DejaVuSans-6e" transform="translate(472.84375 0)"/>
      <use xlink:href="#DejaVuSans-63" transform="translate(536.222656 0)"/>
      <use xlink:href="#DejaVuSans-79" transform="translate(591.203125 0)"/>
      <use xlink:href="#DejaVuSans-20" transform="translate(650.382812 0)"/>
      <use xlink:href="#DejaVuSans-28" transform="translate(682.169922 0)"/>
      <use xlink:href="#DejaVuSans-73" transform="translate(721.183594 0)"/>
      <use xlink:href="#DejaVuSans-29" transform="translate(773.283203 0)"/>
     </g>
    </g>
   </g>
   <g id="line2d_17">
    <path d="M 147.264561 213.131182 
L 148.135532 212.791646 
L 148.571018 212.021078 
L 149.877475 211.733958 
L 150.31296 211.846747 
L 150.748446 211.734894 
L 151.183931 211.813051 
L 152.054903 211.688094 
L 152.925874 211.802286 
L 153.796845 211.41595 
L 154.232331 211.450582 
L 155.103302 210.946308 
L 155.538788 210.545463 
L 155.974273 210.347732 
L 157.28073 207.752419 
L 157.716216 207.837127 
L 158.151702 206.991211 
L 158.587187 206.955877 
L 159.022673 207.058136 
L 159.458159 206.900419 
L 159.893644 206.410653 
L 160.32913 206.870232 
L 163.813015 206.353557 
L 164.248501 206.163547 
L 164.683986 206.157931 
L 165.554958 205.245792 
L 165.990443 205.059527 
L 166.425929 205.192674 
L 166.861415 205.18542 
L 167.2969 204.10831 
L 168.167871 203.87267 
L 169.038843 203.52354 
L 169.474328 203.643583 
L 169.909814 203.450531 
L 170.780785 203.403029 
L 171.216271 203.247652 
L 172.087242 202.494166 
L 172.522728 201.546225 
L 172.958213 199.744412 
L 173.829185 197.410947 
L 174.26467 195.519511 
L 174.700156 194.1967 
L 175.571127 194.200912 
L 176.006613 193.558811 
L 176.877584 193.296495 
L 177.31307 193.342125 
L 177.748556 193.268883 
L 178.184041 193.358506 
L 178.619527 192.683879 
L 179.055012 192.463449 
L 180.361469 191.122619 
L 182.103412 186.950369 
L 182.538898 185.068293 
L 183.409869 183.2969 
L 183.845355 182.580153 
L 185.151811 182.270568 
L 187.32924 182.21511 
L 187.764725 181.575349 
L 188.200211 181.527379 
L 188.635697 181.6748 
L 189.506668 181.274423 
L 189.942153 181.297121 
L 190.813125 180.03281 
L 191.24861 179.700996 
L 192.119582 178.326704 
L 192.990553 177.224321 
L 193.426039 177.206771 
L 194.29701 177.369403 
L 194.732496 176.617555 
L 195.167981 176.428716 
L 195.603467 176.563969 
L 196.038952 176.518572 
L 196.909924 175.525937 
L 197.780895 174.040494 
L 198.216381 173.624907 
L 199.087352 170.944184 
L 199.958323 167.297735 
L 200.393809 166.356112 
L 200.829295 165.906595 
L 201.26478 166.027574 
L 201.700266 165.908467 
L 202.135751 165.922741 
L 202.571237 165.766662 
L 204.31318 165.667211 
L 204.748665 165.02511 
L 205.184151 164.971758 
L 205.619637 164.802575 
L 206.055122 164.137776 
L 206.926093 161.167592 
L 207.361579 161.277105 
L 207.797065 161.092477 
L 208.23255 160.418553 
L 209.539007 160.32776 
L 210.409979 160.227841 
L 211.28095 161.220008 
L 212.151921 160.220353 
L 212.587407 160.111308 
L 213.022892 159.129203 
L 213.458378 159.679341 
L 213.893864 159.651027 
L 214.329349 158.530159 
L 214.764835 157.786735 
L 215.200321 157.485809 
L 215.635806 157.563498 
L 216.071292 157.338622 
L 218.24872 151.874214 
L 219.555177 151.511511 
L 219.990663 151.049592 
L 220.426148 150.914573 
L 220.861634 150.912701 
L 221.732605 150.754048 
L 222.603577 149.254331 
L 223.474548 149.055195 
L 223.910033 147.373191 
L 224.345519 147.209858 
L 224.781005 145.738455 
L 225.651976 143.92775 
L 226.087462 143.932664 
L 226.522947 144.475314 
L 226.958433 143.90201 
L 227.393919 144.15637 
L 227.829404 144.017841 
L 228.700376 142.8951 
L 229.135861 142.866786 
L 229.571347 142.380297 
L 230.442318 142.392933 
L 230.877804 142.295822 
L 231.313289 141.987642 
L 231.748775 141.349519 
L 232.184261 139.639201 
L 232.619746 138.962 
L 233.055232 138.581513 
L 233.490718 138.486976 
L 233.926203 137.467431 
L 234.361689 137.122746 
L 236.103631 134.015671 
L 236.974603 134.057792 
L 237.410088 133.406097 
L 237.845574 133.219832 
L 238.28106 133.410075 
L 238.716545 133.127635 
L 239.587517 131.787039 
L 240.023002 131.754279 
L 240.458488 131.208821 
L 240.893974 129.540857 
L 241.329459 129.442342 
L 241.764945 130.624987 
L 242.20043 130.733563 
L 242.635916 130.187169 
L 243.071402 130.347227 
L 243.506887 130.295044 
L 243.942373 129.614333 
L 244.377859 129.534305 
L 244.813344 129.880393 
L 246.119801 129.983588 
L 246.990772 129.872203 
L 247.426258 129.333765 
L 247.861744 129.027223 
L 248.732715 128.620996 
L 249.603686 126.970114 
L 250.474658 124.474252 
L 250.910143 123.848999 
L 251.781115 120.987626 
L 252.2166 120.763218 
L 253.958543 119.014758 
L 254.394028 119.246419 
L 254.829514 119.262799 
L 255.265 118.696749 
L 255.700485 117.486726 
L 256.571457 116.789869 
L 257.006942 117.000939 
L 257.442428 117.864873 
L 257.877914 119.516691 
L 258.748885 121.499388 
L 259.18437 123.234511 
L 259.619856 124.453893 
L 260.490827 124.027776 
L 260.926313 124.04907 
L 261.361799 123.636525 
L 262.23277 123.371168 
L 263.539227 123.301669 
L 263.974712 123.383102 
L 264.410198 122.912524 
L 264.845684 123.550179 
L 265.716655 124.115761 
L 266.152141 125.077742 
L 267.023112 125.838014 
L 267.458598 126.914655 
L 267.894083 127.29093 
L 268.329569 127.133681 
L 268.765055 127.402081 
L 269.20054 126.868557 
L 269.636026 125.55768 
L 270.071511 125.511347 
L 270.506997 125.346376 
L 270.942483 124.380885 
L 271.377968 124.375269 
L 271.813454 123.223512 
L 272.24894 123.13506 
L 272.684425 123.728956 
L 273.119911 123.728488 
L 273.555397 123.178818 
L 273.990882 123.351277 
L 274.426368 123.249721 
L 275.297339 122.628446 
L 275.732825 122.482897 
L 276.16831 121.616857 
L 277.039282 120.698166 
L 277.910253 117.908398 
L 278.345739 117.399912 
L 278.781224 116.700247 
L 279.21671 116.820056 
L 279.652196 117.427056 
L 280.087681 117.445542 
L 280.958652 117.109984 
L 281.394138 117.345857 
L 282.700595 118.763206 
L 283.136081 118.938473 
L 283.571566 119.610292 
L 284.007052 119.384948 
L 284.442538 119.998969 
L 284.878023 121.064145 
L 285.313509 121.282 
L 286.18448 120.079231 
L 287.926423 116.438399 
L 288.361908 116.413595 
L 288.797394 116.265472 
L 289.23288 116.773723 
L 289.668365 117.110686 
L 290.103851 117.286889 
L 290.539337 117.285953 
L 290.974822 117.937648 
L 291.845794 120.374776 
L 292.281279 119.373482 
L 292.716765 117.913312 
L 293.15225 117.10273 
L 294.023222 115.153027 
L 295.765164 112.739534 
L 296.636136 112.666993 
L 297.071621 113.306052 
L 297.507107 113.357766 
L 297.942592 113.752761 
L 298.813564 113.668053 
L 299.249049 114.34619 
L 299.684535 114.672622 
L 300.120021 114.38831 
L 300.555506 114.974016 
L 301.861963 116.050658 
L 302.297449 116.562888 
L 302.732935 116.334502 
L 303.16842 116.753599 
L 303.603906 116.741665 
L 304.039391 116.092076 
L 304.474877 115.660343 
L 304.910363 116.195271 
L 305.345848 116.141451 
L 305.781334 115.627115 
L 306.21682 115.537492 
L 306.652305 115.639985 
L 307.087791 116.36071 
L 308.394248 116.781211 
L 308.829734 118.28631 
L 309.265219 118.294032 
L 309.700705 119.245015 
L 310.13619 119.571214 
L 310.571676 118.726936 
L 311.007162 116.695567 
L 312.313619 115.23095 
L 313.18459 115.340463 
L 313.620076 115.927105 
L 314.055561 115.911427 
L 314.491047 116.545806 
L 314.926532 116.582778 
L 315.362018 116.736985 
L 315.797504 116.189655 
L 316.232989 116.347606 
L 316.668475 116.788465 
L 317.103961 117.723536 
L 317.539446 118.333579 
L 317.974932 117.216221 
L 318.410418 117.498895 
L 319.281389 117.465198 
L 319.716875 117.789057 
L 320.15236 118.329367 
L 320.587846 118.053479 
L 321.023331 118.325389 
L 321.894303 118.251912 
L 322.329788 117.763785 
L 323.20076 117.955666 
L 323.636245 118.386697 
L 324.071731 118.085771 
L 324.507217 118.802752 
L 324.942702 118.604085 
L 325.378188 117.377448 
L 325.813674 118.866635 
L 326.249159 119.057814 
L 327.555616 117.337667 
L 327.991102 116.92559 
L 328.426587 117.030891 
L 328.862073 117.545929 
L 329.733044 117.43665 
L 330.16853 116.36539 
L 330.604016 116.335906 
L 331.039501 115.893643 
L 331.474987 115.629689 
L 331.910472 115.703165 
L 332.345958 116.37007 
L 332.781444 116.264536 
L 333.216929 116.378962 
L 333.652415 116.779339 
L 335.394358 120.1382 
L 335.829843 120.374776 
L 336.265329 120.986924 
L 336.700815 122.515891 
L 337.1363 123.361807 
L 337.571786 123.822791 
L 338.007271 123.75844 
L 338.442757 124.133311 
L 338.878243 124.836486 
L 339.313728 124.848888 
L 339.749214 124.314896 
L 340.1847 124.390011 
L 341.055671 125.264241 
L 341.926642 125.410258 
L 342.362128 124.824552 
L 342.797614 124.632905 
L 343.233099 124.047432 
L 343.668585 123.894395 
L 344.10407 123.071879 
L 344.539556 121.375835 
L 345.410527 121.598371 
L 346.281499 121.644001 
L 346.716984 121.197526 
L 347.15247 121.279192 
L 347.587956 121.203844 
L 348.023441 120.811189 
L 348.458927 120.921404 
L 348.894412 120.398176 
L 349.329898 121.25626 
L 349.765384 120.268773 
L 350.200869 120.41128 
L 350.636355 121.111881 
L 351.507326 121.338863 
L 351.942812 120.97967 
L 352.378298 121.370453 
L 352.813783 120.823825 
L 354.12024 122.251937 
L 355.426697 121.751876 
L 355.862183 122.29476 
L 356.297668 121.857176 
L 356.733154 122.892634 
L 357.16864 122.864086 
L 357.604125 122.5889 
L 358.039611 122.624936 
L 358.475097 123.050585 
L 358.910582 123.044969 
L 359.781554 123.616401 
L 360.217039 122.88538 
L 361.08801 123.478808 
L 361.523496 124.618397 
L 361.958982 125.134838 
L 362.829953 128.759993 
L 363.700924 129.66558 
L 364.13641 128.975743 
L 364.571896 128.868336 
L 365.442867 128.395886 
L 365.878353 128.140824 
L 366.313838 127.609875 
L 367.184809 127.827262 
L 367.620295 127.980767 
L 368.491266 127.959239 
L 369.362238 129.882967 
L 369.797723 129.77673 
L 370.668695 131.487985 
L 371.10418 131.471839 
L 372.846123 134.331106 
L 373.281608 134.219487 
L 373.717094 133.246508 
L 374.588065 133.199473 
L 375.023551 132.193968 
L 375.459037 132.211752 
L 375.894522 131.754045 
L 376.330008 131.530807 
L 376.765494 131.879002 
L 377.200979 132.576795 
L 377.636465 133.50742 
L 378.07195 134.727505 
L 378.507436 135.109629 
L 379.378407 136.34118 
L 379.813893 136.488367 
L 380.249379 136.988663 
L 380.684864 136.212479 
L 381.12035 135.934017 
L 381.555836 135.819357 
L 381.991321 135.456654 
L 382.426807 134.87984 
L 382.862293 134.869076 
L 383.733264 133.662329 
L 384.168749 134.076044 
L 384.604235 134.251311 
L 385.039721 134.921258 
L 385.475206 135.350183 
L 386.346178 136.631811 
L 386.781663 136.930163 
L 387.217149 136.940225 
L 387.652635 137.895654 
L 388.523606 138.099235 
L 389.394577 138.776202 
L 390.265548 138.610295 
L 390.701034 138.893203 
L 391.13652 138.786264 
L 391.572005 137.989488 
L 392.007491 137.490363 
L 392.442977 137.495511 
L 392.878462 138.070219 
L 393.313948 138.078643 
L 394.620405 138.735252 
L 395.05589 139.151073 
L 395.926862 142.847598 
L 396.362347 142.922011 
L 397.233319 144.589975 
L 398.10429 144.406049 
L 399.846233 141.989748 
L 400.281718 141.586329 
L 400.717204 141.657465 
L 401.152689 141.179166 
L 401.588175 141.310441 
L 402.023661 142.040058 
L 402.023661 142.040058 
" clip-path="url(#p0535b2a751)" style="fill: none; stroke: #1f77b4; stroke-opacity: 0.8; stroke-width: 1.5; stroke-linecap: square"/>
   </g>
   <g id="line2d_18">
    <path d="M 147.264561 228.223123 
L 148.571018 228.344569 
L 149.006503 228.156432 
L 150.31296 228.089274 
L 150.748446 227.944427 
L 152.054903 228.039899 
L 152.925874 228.234823 
L 153.36136 228.177726 
L 153.796845 228.374054 
L 155.974273 227.780391 
L 156.845245 227.84053 
L 158.151702 227.83234 
L 160.32913 227.452555 
L 161.635587 227.366676 
L 162.071072 227.194217 
L 162.506558 227.193749 
L 162.942044 227.696385 
L 163.377529 227.724933 
L 163.813015 227.57213 
L 165.554958 227.615186 
L 165.990443 227.443429 
L 168.167871 227.449279 
L 169.474328 227.726571 
L 169.909814 227.966891 
L 171.651757 227.781561 
L 172.087242 227.505439 
L 172.522728 227.910028 
L 174.26467 228.224059 
L 174.700156 227.65403 
L 176.006613 227.745525 
L 177.31307 228.012989 
L 178.619527 228.058619 
L 179.925984 227.840296 
L 180.796955 227.981399 
L 182.103412 227.631332 
L 182.538898 227.745291 
L 182.974383 227.63414 
L 183.845355 227.638352 
L 186.022783 226.984084 
L 186.893754 227.027842 
L 189.071182 227.340468 
L 191.24861 227.067622 
L 192.119582 227.097106 
L 192.990553 227.26161 
L 193.426039 227.167775 
L 193.861524 226.920903 
L 194.732496 226.755464 
L 195.603467 226.616467 
L 196.909924 226.359767 
L 197.345409 226.469046 
L 198.651866 226.136763 
L 199.958323 226.467408 
L 200.393809 226.174438 
L 200.829295 226.864509 
L 201.26478 227.254589 
L 201.700266 227.447641 
L 204.31318 227.509651 
L 206.055122 227.37861 
L 207.361579 227.457001 
L 207.797065 227.031118 
L 208.23255 226.976127 
L 209.539007 225.009811 
L 210.409979 224.748665 
L 210.845464 224.467629 
L 211.716436 224.52964 
L 212.151921 223.993308 
L 212.587407 223.850099 
L 213.022892 223.890815 
L 213.458378 223.422343 
L 213.893864 223.320787 
L 214.329349 223.704784 
L 214.764835 223.76188 
L 215.200321 223.999626 
L 215.635806 223.902749 
L 218.24872 223.996584 
L 218.684206 223.840505 
L 220.426148 224.228479 
L 220.861634 224.104458 
L 221.29712 224.34899 
L 222.168091 224.300318 
L 222.603577 223.460486 
L 224.345519 223.284516 
L 224.781005 223.414387 
L 226.522947 223.178514 
L 226.958433 223.052387 
L 228.700376 223.142009 
L 229.571347 223.278198 
L 230.442318 223.428193 
L 230.877804 223.379755 
L 231.313289 222.895372 
L 231.748775 222.793347 
L 232.184261 222.560047 
L 232.619746 222.553729 
L 233.055232 222.414966 
L 233.490718 222.531967 
L 233.926203 222.290477 
L 234.361689 221.779417 
L 234.797175 221.622402 
L 235.668146 221.589174 
L 236.539117 221.531376 
L 236.974603 221.483639 
L 237.410088 220.899805 
L 237.845574 220.790058 
L 238.28106 220.958773 
L 238.716545 220.882255 
L 239.152031 221.02757 
L 240.023002 221.089346 
L 240.458488 221.222727 
L 240.893974 220.950349 
L 242.20043 220.71588 
L 242.635916 220.338435 
L 243.071402 219.800933 
L 243.942373 219.871835 
L 244.377859 219.320293 
L 246.119801 219.288937 
L 246.990772 219.051659 
L 247.861744 219.003455 
L 250.474658 218.955953 
L 250.910143 219.008135 
L 251.345629 218.888794 
L 252.2166 218.926235 
L 253.958543 218.568914 
L 254.394028 218.602142 
L 254.829514 218.483737 
L 255.700485 218.587166 
L 256.135971 218.578976 
L 256.571457 217.875567 
L 257.442428 218.403709 
L 257.877914 218.415409 
L 258.313399 218.090614 
L 258.748885 218.034454 
L 259.18437 217.722998 
L 259.619856 218.127119 
L 260.055342 218.084062 
L 260.926313 216.97349 
L 261.361799 216.60564 
L 262.23277 214.927379 
L 263.103741 215.137981 
L 263.974712 215.049294 
L 264.410198 215.042742 
L 265.716655 214.774576 
L 266.152141 214.872623 
L 266.587626 214.848521 
L 267.023112 214.936271 
L 267.458598 214.549701 
L 267.894083 214.506878 
L 268.329569 214.600479 
L 268.765055 214.224906 
L 269.20054 214.169682 
L 270.071511 212.458895 
L 270.506997 211.103323 
L 270.942483 211.295439 
L 271.377968 211.159016 
L 271.813454 211.284909 
L 274.861854 210.597412 
L 275.297339 210.620344 
L 276.603796 210.241261 
L 277.474767 209.444485 
L 277.910253 208.47525 
L 279.21671 206.933413 
L 280.087681 207.031694 
L 280.523167 206.935285 
L 281.394138 207.039416 
L 281.829624 207.032396 
L 282.265109 206.910715 
L 283.571566 207.335662 
L 284.007052 207.246741 
L 284.878023 206.826942 
L 285.313509 206.966641 
L 285.748995 206.803542 
L 286.18448 206.284526 
L 286.619966 205.480028 
L 287.055451 204.970372 
L 287.926423 203.203426 
L 288.797394 203.02301 
L 290.103851 203.081277 
L 290.974822 202.415074 
L 291.410308 202.070155 
L 291.845794 202.192304 
L 292.281279 202.119062 
L 292.716765 202.481062 
L 293.15225 202.031311 
L 293.587736 202.520141 
L 294.023222 202.784328 
L 294.458707 203.498502 
L 294.894193 203.470421 
L 295.329679 202.65516 
L 296.20065 201.568222 
L 296.636136 200.968475 
L 297.071621 201.446307 
L 297.507107 201.424545 
L 297.942592 200.975729 
L 298.378078 201.348494 
L 299.249049 201.499893 
L 299.684535 201.562372 
L 300.120021 201.428289 
L 300.555506 201.553479 
L 300.990992 201.546927 
L 301.426478 201.166441 
L 301.861963 201.02721 
L 302.297449 199.961098 
L 302.732935 199.328591 
L 303.16842 199.079379 
L 303.603906 198.676428 
L 304.474877 196.695838 
L 304.910363 196.135872 
L 305.345848 195.199397 
L 305.781334 195.411871 
L 306.652305 195.194483 
L 307.087791 195.30657 
L 307.523277 195.539167 
L 308.394248 194.742158 
L 310.13619 194.522898 
L 310.571676 194.026346 
L 311.007162 192.066816 
L 311.878133 191.667375 
L 312.313619 191.187906 
L 312.749104 190.234349 
L 313.18459 188.856781 
L 314.491047 186.52238 
L 315.797504 186.637274 
L 316.232989 187.041863 
L 317.103961 187.157928 
L 317.539446 186.848812 
L 317.974932 185.857815 
L 318.410418 185.686057 
L 319.281389 186.428779 
L 319.716875 186.595856 
L 320.587846 185.848455 
L 321.023331 185.77919 
L 321.458817 185.397065 
L 321.894303 185.23186 
L 322.329788 185.797442 
L 324.071731 185.618665 
L 324.507217 185.47218 
L 325.378188 185.50026 
L 325.813674 185.109243 
L 326.684645 185.17336 
L 327.12013 184.807381 
L 327.991102 185.49441 
L 328.426587 185.454396 
L 328.862073 185.053551 
L 329.297559 185.55993 
L 330.16853 184.052959 
L 330.604016 182.662053 
L 331.039501 182.072135 
L 331.474987 180.952437 
L 331.910472 180.517896 
L 333.652415 180.83099 
L 335.829843 180.772255 
L 336.265329 180.708373 
L 336.700815 180.046616 
L 337.1363 179.670341 
L 337.571786 179.576273 
L 338.007271 177.450835 
L 340.1847 173.950404 
L 340.620185 174.038622 
L 341.055671 173.963976 
L 341.491157 174.807084 
L 342.362128 174.775728 
L 342.797614 174.664109 
L 343.233099 174.998263 
L 343.668585 175.042022 
L 344.10407 175.210035 
L 344.539556 175.205823 
L 344.975042 174.321062 
L 346.281499 174.577996 
L 346.716984 174.704591 
L 347.15247 174.614734 
L 347.587956 174.040026 
L 348.023441 172.368552 
L 349.329898 172.382358 
L 351.071841 172.441327 
L 353.684755 172.306074 
L 354.12024 172.465663 
L 354.991211 174.090571 
L 355.426697 174.803808 
L 356.733154 172.167779 
L 357.16864 171.632383 
L 357.604125 170.852689 
L 358.475097 170.884045 
L 358.910582 169.965354 
L 359.781554 170.009347 
L 360.652525 170.029471 
L 361.08801 169.576912 
L 361.523496 169.37216 
L 361.958982 169.706314 
L 362.829953 170.664084 
L 363.700924 170.384919 
L 364.13641 170.348415 
L 365.007381 168.749013 
L 365.442867 168.018694 
L 365.878353 166.460477 
L 366.313838 165.769236 
L 366.749324 165.86073 
L 367.184809 165.825396 
L 368.055781 164.512647 
L 368.491266 164.379968 
L 368.926752 164.48246 
L 369.362238 164.195574 
L 369.797723 164.224122 
L 370.233209 163.062304 
L 370.668695 162.854744 
L 371.10418 162.842108 
L 371.539666 163.484209 
L 371.975151 163.904242 
L 372.410637 163.9363 
L 372.846123 164.413898 
L 373.717094 163.010122 
L 374.588065 163.195451 
L 375.023551 163.044052 
L 375.894522 163.852294 
L 376.330008 164.156028 
L 377.200979 164.018903 
L 378.07195 164.084423 
L 378.507436 163.804557 
L 379.378407 163.916644 
L 379.813893 163.895818 
L 380.684864 164.852651 
L 381.12035 164.829251 
L 381.555836 164.619351 
L 381.991321 163.897924 
L 382.862293 163.267991 
L 383.297778 162.430733 
L 383.733264 161.255811 
L 385.475206 161.188652 
L 385.910692 160.820801 
L 386.781663 161.100434 
L 387.217149 161.985194 
L 387.652635 162.563412 
L 388.523606 163.089682 
L 388.959091 163.747929 
L 389.394577 164.015393 
L 390.265548 162.737276 
L 390.701034 162.282142 
L 391.572005 161.016661 
L 392.007491 159.454465 
L 392.442977 159.094337 
L 392.878462 159.072107 
L 393.313948 159.423343 
L 394.184919 159.720993 
L 394.620405 159.866309 
L 395.05589 159.870521 
L 395.491376 160.308572 
L 395.926862 162.120213 
L 396.362347 161.72709 
L 396.797833 161.605643 
L 397.668804 162.355619 
L 398.10429 163.628588 
L 398.539776 164.508668 
L 398.975261 164.630115 
L 399.410747 165.017622 
L 400.717204 164.870201 
L 401.588175 164.797427 
L 402.023661 164.899451 
L 402.023661 164.899451 
" clip-path="url(#p0535b2a751)" style="fill: none; stroke: #ff7f0e; stroke-opacity: 0.8; stroke-width: 1.5; stroke-linecap: square"/>
   </g>
   <g id="line2d_19">
    <path d="M 147.264561 177.445687 
L 148.135532 177.82009 
L 148.571018 177.793414 
L 149.006503 177.934517 
L 149.877475 177.931943 
L 150.31296 178.099488 
L 151.183931 177.992783 
L 152.925874 177.146399 
L 153.36136 177.084622 
L 153.796845 178.174602 
L 154.232331 178.307983 
L 154.667817 177.699579 
L 155.103302 177.683901 
L 155.538788 177.49904 
L 155.974273 177.519866 
L 156.409759 177.343896 
L 156.845245 177.319794 
L 157.28073 177.160907 
L 158.587187 177.082048 
L 159.458159 176.671609 
L 160.32913 176.648209 
L 160.764616 176.211328 
L 161.635587 176.1547 
L 162.071072 175.949948 
L 162.506558 176.102985 
L 164.683986 175.274151 
L 165.119472 175.291233 
L 165.990443 175.620708 
L 166.425929 175.58865 
L 166.861415 175.771171 
L 168.167871 175.731625 
L 168.603357 175.805803 
L 170.3453 176.600707 
L 170.780785 176.136448 
L 171.651757 176.351027 
L 172.087242 176.325989 
L 172.522728 176.465454 
L 172.958213 176.279423 
L 174.26467 175.304805 
L 174.700156 175.460183 
L 176.006613 174.834696 
L 176.877584 174.599524 
L 177.31307 174.502882 
L 177.748556 173.776072 
L 178.184041 173.619291 
L 179.490498 173.732782 
L 180.361469 173.634033 
L 181.232441 173.772796 
L 182.103412 173.622333 
L 183.409869 173.905475 
L 184.28084 173.917643 
L 184.716326 174.314042 
L 185.151811 174.230738 
L 185.587297 174.873774 
L 186.022783 174.781344 
L 186.458268 174.521836 
L 186.893754 174.414897 
L 187.32924 174.55249 
L 188.200211 174.460761 
L 188.635697 174.064362 
L 189.506668 174.024816 
L 190.377639 173.873183 
L 191.24861 173.866397 
L 191.684096 174.082615 
L 192.119582 174.061788 
L 193.426039 173.52101 
L 193.861524 173.549325 
L 194.732496 173.97474 
L 195.603467 173.229912 
L 196.038952 173.51048 
L 196.474438 172.946536 
L 196.909924 172.990997 
L 197.780895 173.392543 
L 198.216381 173.386693 
L 198.651866 173.539263 
L 199.087352 173.51399 
L 199.522838 172.618934 
L 200.829295 173.355337 
L 201.26478 173.518904 
L 202.135751 173.349955 
L 202.571237 173.752672 
L 203.442208 173.700724 
L 205.184151 174.420513 
L 205.619637 173.579511 
L 206.055122 173.509778 
L 206.490608 173.670303 
L 206.926093 172.966894 
L 207.361579 172.88827 
L 207.797065 172.297415 
L 208.23255 172.105534 
L 208.668036 172.124488 
L 209.103522 173.14965 
L 209.539007 172.747401 
L 209.974493 173.12976 
L 210.409979 172.555051 
L 211.28095 172.507315 
L 211.716436 173.114549 
L 212.151921 173.255184 
L 212.587407 173.069387 
L 213.022892 173.027501 
L 213.458378 173.165562 
L 213.893864 172.9807 
L 214.764835 172.904884 
L 215.635806 172.607 
L 216.506778 172.211771 
L 216.942263 171.604068 
L 218.24872 171.573648 
L 218.684206 170.922421 
L 220.861634 170.129624 
L 221.29712 170.380473 
L 221.732605 168.959147 
L 222.168091 169.125756 
L 222.603577 169.772771 
L 223.910033 169.762475 
L 224.781005 168.81196 
L 226.958433 168.394267 
L 227.393919 168.540518 
L 228.26489 168.530924 
L 229.135861 167.980318 
L 229.571347 167.94592 
L 231.313289 167.359979 
L 231.748775 167.866125 
L 233.055232 167.353193 
L 233.490718 166.778953 
L 233.926203 166.625448 
L 234.361689 166.804225 
L 234.797175 166.199799 
L 235.23266 166.024298 
L 235.668146 166.240281 
L 236.103631 166.246131 
L 236.539117 166.449011 
L 236.974603 165.711203 
L 237.410088 166.007917 
L 237.845574 165.432975 
L 238.28106 165.279002 
L 238.716545 165.262388 
L 239.152031 165.430401 
L 239.587517 165.885067 
L 240.458488 166.149722 
L 240.893974 166.014469 
L 241.329459 165.670019 
L 241.764945 165.81744 
L 242.20043 165.806442 
L 242.635916 164.693296 
L 243.506887 164.402666 
L 244.813344 164.988138 
L 245.24883 164.974566 
L 245.684316 165.392025 
L 246.119801 164.784556 
L 246.555287 164.474036 
L 246.990772 164.377862 
L 247.426258 163.262843 
L 247.861744 163.34451 
L 248.297229 162.693049 
L 249.168201 162.744764 
L 250.039172 161.066737 
L 250.910143 159.846418 
L 251.345629 159.997115 
L 251.781115 159.813658 
L 252.2166 159.288792 
L 252.652086 159.086147 
L 253.958543 159.059705 
L 254.394028 158.898009 
L 255.265 158.959084 
L 257.006942 158.473296 
L 257.442428 158.069409 
L 257.877914 158.086257 
L 258.748885 158.872035 
L 259.18437 159.019222 
L 259.619856 159.021094 
L 260.055342 159.427789 
L 260.490827 159.047771 
L 260.926313 158.451768 
L 261.361799 158.387184 
L 262.668256 158.515183 
L 263.539227 158.476806 
L 263.974712 158.623993 
L 264.410198 157.664118 
L 264.845684 157.468727 
L 265.716655 157.496339 
L 266.152141 156.941053 
L 267.023112 156.970771 
L 267.458598 156.307376 
L 267.894083 156.309482 
L 268.765055 154.849078 
L 269.20054 154.441915 
L 269.636026 153.745526 
L 270.071511 153.783668 
L 270.506997 153.592957 
L 270.942483 153.551538 
L 271.377968 153.994036 
L 272.24894 154.035922 
L 272.684425 153.663625 
L 273.119911 153.897159 
L 273.555397 153.434303 
L 275.732825 153.405053 
L 277.910253 152.456176 
L 278.345739 152.716386 
L 279.21671 152.811391 
L 279.652196 152.536673 
L 280.523167 153.539838 
L 280.958652 152.736744 
L 281.394138 153.304901 
L 283.136081 152.932136 
L 283.571566 152.891419 
L 284.007052 152.462962 
L 284.442538 153.303965 
L 284.878023 153.087513 
L 285.748995 153.043053 
L 286.18448 152.19503 
L 287.055451 152.598215 
L 288.361908 152.001511 
L 288.797394 152.052055 
L 289.23288 152.225919 
L 289.668365 152.067031 
L 290.103851 151.021278 
L 290.539337 151.463541 
L 290.974822 151.693799 
L 291.410308 151.590136 
L 291.845794 152.273655 
L 292.281279 152.329581 
L 292.716765 152.690412 
L 293.15225 152.832919 
L 294.023222 152.797819 
L 294.458707 153.356147 
L 294.894193 152.90312 
L 295.329679 153.640927 
L 296.20065 154.067512 
L 297.071621 153.944895 
L 297.507107 154.09255 
L 297.942592 154.118992 
L 298.378078 153.924771 
L 299.684535 154.006672 
L 300.990992 154.063066 
L 301.861963 153.910263 
L 302.732935 152.9897 
L 303.16842 152.364448 
L 303.603906 153.016142 
L 304.039391 152.984552 
L 304.474877 153.159819 
L 304.910363 153.158649 
L 305.781334 152.906396 
L 306.21682 152.539949 
L 306.652305 154.118992 
L 307.087791 153.54171 
L 307.523277 153.544284 
L 307.958762 152.766463 
L 308.394248 152.42365 
L 308.829734 152.370532 
L 309.265219 152.823559 
L 309.700705 153.543348 
L 311.442647 153.558792 
L 311.878133 153.763778 
L 312.313619 153.768692 
L 312.749104 153.336257 
L 313.18459 153.088683 
L 314.055561 153.178774 
L 314.491047 153.015206 
L 315.362018 153.425879 
L 316.668475 153.962679 
L 317.539446 152.602895 
L 317.974932 152.893058 
L 318.410418 153.658945 
L 318.845903 153.567216 
L 319.281389 153.328067 
L 319.716875 153.753482 
L 320.15236 153.830234 
L 321.023331 152.295183 
L 321.458817 152.074988 
L 321.894303 152.818177 
L 322.329788 152.819347 
L 322.765274 153.186028 
L 323.636245 153.212704 
L 324.942702 152.799691 
L 325.378188 152.890015 
L 325.813674 152.705622 
L 326.684645 151.407615 
L 327.12013 151.305356 
L 327.555616 152.095112 
L 327.991102 151.836774 
L 328.426587 151.782485 
L 328.862073 151.146937 
L 329.733044 150.854201 
L 330.16853 151.056144 
L 330.604016 150.351799 
L 331.474987 151.039764 
L 332.345958 151.679057 
L 332.781444 151.534912 
L 333.216929 152.214453 
L 333.652415 152.37217 
L 334.087901 152.254233 
L 334.523386 153.121443 
L 334.958872 153.040947 
L 335.394358 153.528372 
L 336.265329 153.21247 
L 336.700815 152.414758 
L 337.1363 152.904056 
L 338.442757 153.136419 
L 338.878243 152.888143 
L 339.313728 152.274591 
L 340.1847 152.232939 
L 341.055671 152.283951 
L 341.491157 152.11313 
L 341.926642 151.626406 
L 342.797614 151.965943 
L 343.233099 151.769615 
L 343.668585 151.980217 
L 344.10407 152.001511 
L 344.539556 150.83782 
L 344.975042 150.687591 
L 345.846013 151.742705 
L 346.281499 151.956817 
L 347.15247 151.761191 
L 347.587956 152.299629 
L 348.458927 152.265699 
L 348.894412 152.086688 
L 349.329898 153.235168 
L 349.765384 153.371357 
L 350.636355 153.235402 
L 351.071841 153.897393 
L 351.507326 153.46683 
L 351.942812 153.547794 
L 352.378298 154.213529 
L 352.813783 153.83585 
L 353.249269 154.640348 
L 354.555726 156.412209 
L 354.991211 156.29942 
L 355.426697 156.327267 
L 355.862183 156.138895 
L 356.297668 155.740156 
L 357.16864 155.627836 
L 357.604125 155.866985 
L 358.039611 155.62924 
L 358.475097 156.107071 
L 358.910582 156.071269 
L 359.346068 156.151765 
L 359.781554 155.702014 
L 360.217039 155.884535 
L 360.652525 155.852945 
L 361.08801 156.339903 
L 361.523496 156.082969 
L 361.958982 155.96082 
L 362.394467 155.670424 
L 362.829953 155.145558 
L 364.13641 154.943146 
L 364.571896 154.532707 
L 365.007381 154.492927 
L 365.442867 154.156199 
L 365.878353 154.699083 
L 366.313838 153.893415 
L 367.184809 152.775589 
L 367.620295 152.739552 
L 368.055781 152.997422 
L 369.797723 153.337895 
L 370.233209 153.112083 
L 370.668695 152.494085 
L 371.10418 153.207556 
L 371.539666 153.037905 
L 371.975151 152.552117 
L 372.410637 152.759209 
L 372.846123 152.755698 
L 373.281608 153.044223 
L 374.15258 152.477704 
L 374.588065 152.630508 
L 375.023551 153.653563 
L 375.459037 153.879141 
L 376.330008 153.692407 
L 376.765494 153.862059 
L 377.200979 153.290392 
L 377.636465 153.464724 
L 378.07195 153.470106 
L 378.507436 153.715808 
L 378.942922 153.079791 
L 379.378407 153.124953 
L 379.813893 153.599275 
L 380.249379 153.596233 
L 380.684864 152.921372 
L 381.12035 152.757337 
L 381.555836 152.97449 
L 381.991321 152.909672 
L 382.426807 152.670756 
L 382.862293 151.87632 
L 383.297778 152.10728 
L 383.733264 152.008531 
L 384.168749 152.20907 
L 385.039721 151.938097 
L 385.475206 152.173034 
L 385.910692 151.85526 
L 386.346178 152.013913 
L 386.781663 152.738382 
L 387.217149 152.939156 
L 387.652635 153.332747 
L 388.08812 153.98725 
L 388.523606 153.313325 
L 388.959091 153.53118 
L 389.394577 153.230722 
L 389.830063 153.221362 
L 390.265548 152.9312 
L 390.701034 153.068793 
L 391.572005 152.165312 
L 392.007491 152.734872 
L 392.442977 151.923822 
L 392.878462 152.473258 
L 393.749434 153.012866 
L 394.184919 153.015206 
L 394.620405 152.858425 
L 395.05589 152.037781 
L 395.491376 152.031463 
L 395.926862 152.226855 
L 396.362347 152.279037 
L 396.797833 151.178059 
L 397.233319 150.996474 
L 397.668804 151.425165 
L 398.10429 151.380938 
L 398.539776 151.672973 
L 398.975261 151.775465 
L 399.410747 151.695905 
L 399.846233 151.04538 
L 400.717204 150.54602 
L 401.152689 149.881221 
L 401.588175 150.085271 
L 402.023661 150.887663 
L 402.023661 150.887663 
" clip-path="url(#p0535b2a751)" style="fill: none; stroke: #2ca02c; stroke-opacity: 0.8; stroke-width: 1.5; stroke-linecap: square"/>
   </g>
   <g id="line2d_20">
    <path d="M 147.264561 221.82926 
L 147.700046 221.631528 
L 148.571018 221.526228 
L 149.006503 222.306155 
L 151.183931 221.493935 
L 152.490388 221.146911 
L 153.36136 221.114853 
L 155.538788 220.459882 
L 155.974273 220.71354 
L 157.28073 220.321353 
L 157.716216 220.324863 
L 158.587187 220.035403 
L 159.893644 220.193588 
L 161.200101 220.628129 
L 162.071072 220.489834 
L 162.506558 220.594667 
L 162.942044 220.575713 
L 163.377529 220.431568 
L 164.248501 220.459648 
L 164.683986 220.454968 
L 165.554958 220.109815 
L 165.990443 220.842007 
L 166.861415 220.856047 
L 168.603357 220.99949 
L 169.038843 221.115087 
L 169.474328 220.879213 
L 169.909814 220.870555 
L 170.3453 221.014232 
L 170.780785 220.821882 
L 171.651757 220.820478 
L 172.087242 220.600985 
L 173.829185 220.660889 
L 174.26467 220.777188 
L 175.135642 220.704414 
L 175.571127 220.789122 
L 176.442099 220.533592 
L 176.877584 220.412847 
L 177.31307 221.125149 
L 178.184041 221.04161 
L 179.925984 220.844113 
L 180.361469 220.696458 
L 180.796955 220.7463 
L 181.232441 220.003578 
L 181.667926 219.934548 
L 182.103412 219.69376 
L 183.409869 219.46046 
L 183.845355 219.609988 
L 184.28084 219.125604 
L 185.151811 218.776473 
L 185.587297 218.379841 
L 186.458268 218.223761 
L 186.893754 217.693046 
L 187.32924 217.51965 
L 188.635697 217.407797 
L 189.071182 217.797644 
L 189.506668 217.926345 
L 189.942153 217.866675 
L 190.377639 217.365677 
L 191.24861 215.655827 
L 192.119582 213.178451 
L 192.555067 211.957898 
L 192.990553 211.721322 
L 193.426039 210.516915 
L 193.861524 209.977541 
L 194.29701 208.933425 
L 195.167981 208.128226 
L 196.474438 207.835957 
L 196.909924 207.64782 
L 197.345409 207.10166 
L 197.780895 206.945581 
L 198.216381 206.614936 
L 198.651866 206.460261 
L 199.087352 206.186947 
L 199.522838 206.118385 
L 199.958323 205.776742 
L 202.571237 205.058123 
L 203.006723 204.778257 
L 204.748665 204.276557 
L 206.055122 204.038578 
L 206.490608 203.320426 
L 208.668036 202.835107 
L 210.409979 201.645676 
L 211.28095 201.651994 
L 211.716436 201.325562 
L 212.151921 201.311522 
L 212.587407 201.453327 
L 213.893864 200.979707 
L 214.329349 201.154507 
L 214.764835 200.824798 
L 215.200321 200.839306 
L 216.506778 200.404297 
L 217.377749 200.428399 
L 217.813235 200.462797 
L 218.24872 200.343223 
L 219.119691 199.753772 
L 221.29712 198.851696 
L 221.732605 198.84374 
L 222.168091 198.626118 
L 222.603577 198.57534 
L 223.039062 198.399136 
L 223.474548 198.412942 
L 224.345519 198.200703 
L 224.781005 197.852274 
L 225.21649 197.687303 
L 225.651976 197.184902 
L 226.087462 197.090833 
L 226.522947 196.675012 
L 226.958433 196.756678 
L 227.829404 196.654654 
L 228.26489 196.148742 
L 229.135861 195.896722 
L 229.571347 195.546656 
L 230.006832 195.531211 
L 230.442318 195.380514 
L 230.877804 194.994177 
L 231.748775 194.945271 
L 232.184261 194.774684 
L 232.619746 194.781938 
L 233.055232 194.002478 
L 233.926203 193.277775 
L 234.361689 193.388692 
L 234.797175 193.363654 
L 235.23266 193.63767 
L 236.103631 193.065769 
L 236.974603 193.046347 
L 237.410088 193.037923 
L 238.28106 192.750569 
L 239.587517 192.579514 
L 240.458488 192.12321 
L 240.893974 192.570856 
L 242.20043 192.547456 
L 242.635916 192.396056 
L 243.071402 192.394418 
L 243.506887 192.511887 
L 245.24883 192.226171 
L 245.684316 191.945603 
L 246.119801 191.862533 
L 246.555287 191.561606 
L 246.990772 191.098985 
L 249.603686 190.974028 
L 250.039172 191.011702 
L 250.474658 191.285718 
L 251.781115 190.762257 
L 252.2166 190.1239 
L 252.652086 189.91283 
L 253.087571 189.455591 
L 253.958543 189.141093 
L 254.829514 188.949679 
L 255.265 188.528242 
L 255.700485 188.567086 
L 257.877914 187.722808 
L 258.313399 187.439666 
L 260.055342 187.286395 
L 260.490827 186.877594 
L 261.361799 186.923458 
L 261.797284 186.90076 
L 262.23277 186.512083 
L 262.668256 186.625106 
L 263.103741 186.319032 
L 263.539227 186.293994 
L 263.974712 185.98558 
L 265.281169 185.99845 
L 265.716655 185.844477 
L 266.152141 186.655994 
L 266.587626 185.943459 
L 267.894083 185.939247 
L 268.329569 186.030742 
L 268.765055 185.98792 
L 269.20054 186.415207 
L 269.636026 186.184949 
L 270.071511 186.250002 
L 270.506997 186.547886 
L 270.942483 186.289548 
L 271.377968 186.279252 
L 271.813454 186.646634 
L 272.24894 186.792417 
L 272.684425 186.784461 
L 273.119911 186.480025 
L 273.555397 186.631892 
L 273.990882 186.427375 
L 274.426368 185.972007 
L 274.861854 185.942757 
L 275.297339 186.084328 
L 275.732825 186.449371 
L 276.16831 186.336114 
L 277.039282 188.335425 
L 277.474767 189.455825 
L 277.910253 189.520175 
L 278.345739 190.695566 
L 278.781224 190.645256 
L 279.21671 191.584539 
L 280.087681 191.494448 
L 280.523167 191.537738 
L 280.958652 191.193054 
L 281.394138 191.198436 
L 281.829624 190.903126 
L 282.265109 191.043059 
L 282.700595 191.034401 
L 283.136081 191.380489 
L 283.571566 191.284782 
L 284.007052 191.685861 
L 284.442538 191.703879 
L 284.878023 192.009018 
L 287.055451 192.328664 
L 287.490937 192.038502 
L 287.926423 192.10098 
L 288.361908 191.997084 
L 288.797394 192.194581 
L 290.539337 192.296606 
L 290.974822 192.324686 
L 291.410308 192.901032 
L 291.845794 193.004227 
L 292.281279 192.942216 
L 292.716765 193.048453 
L 293.587736 192.684347 
L 294.023222 192.08694 
L 294.458707 192.159481 
L 294.894193 192.399801 
L 295.765164 192.399567 
L 296.20065 192.135847 
L 296.636136 192.481935 
L 297.071621 192.06939 
L 297.507107 191.372533 
L 298.378078 191.285952 
L 298.813564 191.530952 
L 299.249049 191.446712 
L 299.684535 191.703177 
L 300.120021 191.634849 
L 300.555506 191.741086 
L 300.990992 191.431033 
L 301.426478 191.386807 
L 302.297449 190.915294 
L 302.732935 190.824735 
L 303.16842 190.310165 
L 303.603906 190.097926 
L 304.474877 190.549549 
L 305.345848 190.244411 
L 305.781334 189.83678 
L 306.21682 189.901832 
L 307.523277 189.769855 
L 308.829734 188.305239 
L 309.265219 188.016714 
L 309.700705 188.21 
L 310.13619 188.24627 
L 310.571676 188.643137 
L 311.442647 188.703977 
L 311.878133 188.316471 
L 312.749104 188.392989 
L 313.620076 188.668409 
L 314.055561 188.058133 
L 314.491047 188.19947 
L 314.926532 188.123653 
L 315.797504 187.095684 
L 316.232989 187.080006 
L 317.103961 186.838048 
L 317.539446 186.923224 
L 317.974932 187.674604 
L 318.410418 187.601127 
L 318.845903 187.880291 
L 319.716875 187.530693 
L 320.15236 187.525779 
L 320.587846 187.720234 
L 321.023331 187.635526 
L 321.894303 186.817222 
L 322.329788 186.735555 
L 323.20076 186.253512 
L 323.636245 186.301014 
L 324.071731 186.052504 
L 324.942702 186.524954 
L 325.378188 186.272466 
L 325.813674 186.29376 
L 326.249159 185.809376 
L 326.684645 185.925441 
L 327.555616 185.902977 
L 327.991102 185.674123 
L 329.297559 184.248351 
L 329.733044 183.860376 
L 330.16853 183.901794 
L 330.604016 184.142816 
L 331.474987 183.31913 
L 331.910472 183.334808 
L 332.345958 183.173581 
L 333.216929 182.24787 
L 333.652415 181.755999 
L 334.523386 181.618406 
L 334.958872 181.315139 
L 335.394358 180.824438 
L 336.265329 180.409085 
L 336.700815 180.305188 
L 337.1363 180.413765 
L 337.571786 180.259558 
L 338.007271 180.627642 
L 338.442757 179.596163 
L 339.313728 178.790729 
L 341.491157 177.553796 
L 341.926642 177.437029 
L 342.362128 177.200687 
L 342.797614 177.302712 
L 343.233099 177.588194 
L 344.10407 177.723447 
L 344.539556 177.006232 
L 344.975042 176.648911 
L 345.410527 176.860215 
L 345.846013 176.539398 
L 346.281499 176.654761 
L 346.716984 176.367875 
L 347.15247 175.928888 
L 348.458927 175.485923 
L 348.894412 175.10099 
L 350.200869 175.116902 
L 350.636355 174.826974 
L 351.071841 174.716525 
L 351.507326 175.089056 
L 351.942812 175.272279 
L 352.378298 175.159256 
L 352.813783 175.200675 
L 353.684755 174.978607 
L 354.12024 174.393369 
L 354.555726 174.590398 
L 355.426697 174.404367 
L 355.862183 174.586186 
L 356.297668 174.050088 
L 356.733154 174.054768 
L 358.039611 173.495738 
L 358.475097 173.378269 
L 358.910582 173.392309 
L 359.346068 173.690662 
L 359.781554 173.775604 
L 360.217039 173.445194 
L 360.652525 173.49761 
L 361.08801 174.251798 
L 361.523496 174.435255 
L 362.829953 173.193408 
L 363.265439 172.63274 
L 363.700924 172.899502 
L 364.571896 172.539607 
L 365.007381 172.346322 
L 365.442867 172.313562 
L 365.878353 172.714407 
L 366.313838 172.287119 
L 366.749324 172.721427 
L 367.620295 172.273781 
L 368.055781 172.280099 
L 368.491266 172.487191 
L 369.362238 171.487302 
L 371.975151 171.122259 
L 372.410637 170.866963 
L 372.846123 170.767746 
L 373.281608 171.047378 
L 373.717094 170.831395 
L 374.588065 170.792316 
L 375.023551 170.971094 
L 375.459037 170.785764 
L 375.894522 170.219714 
L 376.765494 170.152556 
L 377.200979 169.804829 
L 377.636465 169.812083 
L 378.07195 169.969332 
L 378.507436 169.911768 
L 378.942922 170.587331 
L 380.249379 170.588267 
L 380.684864 169.954824 
L 381.12035 170.054275 
L 381.555836 169.406324 
L 382.426807 170.177594 
L 383.733264 169.91364 
L 384.168749 170.088673 
L 384.604235 169.544385 
L 385.039721 169.719887 
L 385.475206 169.644304 
L 385.910692 169.91247 
L 386.346178 169.751477 
L 387.217149 168.718827 
L 387.652635 168.706191 
L 388.08812 168.851506 
L 388.523606 168.699171 
L 388.959091 167.929773 
L 389.394577 167.887419 
L 390.265548 168.275628 
L 391.13652 168.170093 
L 391.572005 168.03835 
L 392.007491 167.576431 
L 392.878462 167.458026 
L 393.749434 168.291072 
L 394.184919 168.262758 
L 394.620405 167.959258 
L 395.05589 167.928135 
L 396.362347 166.494407 
L 396.797833 166.220391 
L 397.233319 165.316442 
L 397.668804 165.123391 
L 398.10429 164.494628 
L 398.975261 163.67258 
L 399.410747 162.054693 
L 399.846233 161.696202 
L 400.281718 161.952668 
L 400.717204 162.51474 
L 401.152689 162.363341 
L 401.588175 162.520122 
L 402.023661 162.499062 
L 402.023661 162.499062 
" clip-path="url(#p0535b2a751)" style="fill: none; stroke: #d62728; stroke-opacity: 0.8; stroke-width: 1.5; stroke-linecap: square"/>
   </g>
   <g id="line2d_21">
    <path d="M 147.264561 129.516052 
L 147.700046 129.273159 
L 148.571018 129.385246 
L 149.006503 129.144224 
L 149.441989 130.089825 
L 150.748446 130.564146 
L 151.183931 130.534662 
L 151.619417 129.114272 
L 152.054903 129.152882 
L 152.490388 128.960766 
L 153.36136 128.939472 
L 153.796845 128.707343 
L 154.232331 126.663572 
L 155.103302 126.134962 
L 155.974273 126.002751 
L 157.28073 125.758453 
L 157.716216 125.425469 
L 158.151702 125.369542 
L 158.587187 125.67819 
L 159.022673 125.439509 
L 159.893644 125.655726 
L 160.32913 124.276754 
L 161.200101 123.693856 
L 162.071072 123.838001 
L 162.506558 124.182451 
L 162.942044 124.171453 
L 163.377529 123.175542 
L 163.813015 122.938264 
L 164.248501 123.141846 
L 165.554958 122.457625 
L 165.990443 122.430247 
L 166.425929 122.215901 
L 166.861415 123.582939 
L 167.2969 123.375614 
L 167.732386 123.38123 
L 168.167871 123.600021 
L 168.603357 123.555561 
L 169.038843 123.355255 
L 169.474328 123.733636 
L 169.909814 123.893693 
L 171.216271 122.907142 
L 171.651757 122.903866 
L 172.958213 122.526421 
L 173.393699 122.578604 
L 173.829185 122.40825 
L 174.26467 121.097607 
L 174.700156 121.212736 
L 175.135642 122.85028 
L 175.571127 122.87602 
L 176.442099 123.438326 
L 176.877584 123.283885 
L 177.748556 123.237085 
L 178.184041 122.977343 
L 178.619527 123.172032 
L 179.055012 123.072347 
L 180.361469 122.064736 
L 180.796955 121.968561 
L 181.232441 121.642831 
L 181.667926 121.526532 
L 182.103412 120.485224 
L 182.538898 120.373372 
L 182.974383 119.949595 
L 183.409869 119.994757 
L 183.845355 120.473056 
L 184.28084 120.384136 
L 184.716326 119.742269 
L 185.151811 119.696873 
L 185.587297 119.991715 
L 186.458268 119.798429 
L 187.32924 118.911563 
L 188.200211 118.317667 
L 188.635697 117.804969 
L 189.071182 120.286791 
L 189.506668 120.098186 
L 190.377639 119.966443 
L 190.813125 119.615908 
L 191.684096 119.712785 
L 192.119582 119.191195 
L 192.555067 119.354996 
L 192.990553 121.318271 
L 193.426039 121.27966 
L 193.861524 120.961652 
L 194.29701 121.109307 
L 194.732496 120.962354 
L 195.603467 120.336165 
L 196.474438 120.017221 
L 197.345409 119.410689 
L 198.651866 119.918004 
L 199.087352 119.851548 
L 199.522838 119.639542 
L 199.958323 119.584786 
L 200.393809 118.918349 
L 200.829295 120.565253 
L 201.26478 120.241863 
L 201.700266 120.551681 
L 202.135751 120.543491 
L 203.006723 120.316275 
L 203.442208 119.984695 
L 203.877694 120.607139 
L 204.31318 120.606905 
L 204.748665 121.055487 
L 205.619637 121.457034 
L 206.055122 121.279192 
L 206.490608 120.620711 
L 206.926093 120.180086 
L 207.361579 120.119714 
L 208.23255 119.510607 
L 208.668036 120.352311 
L 209.103522 120.255201 
L 209.539007 119.880798 
L 210.409979 119.932746 
L 210.845464 119.735015 
L 211.28095 119.812938 
L 211.716436 120.025411 
L 212.151921 120.009265 
L 212.587407 120.161834 
L 213.022892 120.164642 
L 213.458378 120.344355 
L 213.893864 120.812593 
L 214.329349 120.563849 
L 215.200321 121.170615 
L 215.635806 121.535658 
L 216.071292 120.930764 
L 216.506778 120.893557 
L 216.942263 120.543491 
L 217.377749 120.835057 
L 217.813235 120.752454 
L 218.24872 119.604442 
L 218.684206 120.873199 
L 219.119691 120.647622 
L 219.555177 120.582569 
L 219.990663 120.252627 
L 220.426148 120.114566 
L 221.29712 120.082507 
L 221.732605 120.677808 
L 223.039062 119.850144 
L 223.474548 121.047765 
L 223.910033 120.908534 
L 224.345519 120.40309 
L 224.781005 120.073849 
L 225.21649 120.288195 
L 225.651976 119.960593 
L 226.087462 118.634739 
L 226.522947 118.515866 
L 226.958433 118.227342 
L 227.393919 118.151291 
L 228.700376 118.217046 
L 229.135861 117.989596 
L 229.571347 118.236234 
L 230.442318 117.370194 
L 230.877804 117.046803 
L 231.313289 116.90687 
L 231.748775 118.801114 
L 232.184261 118.910627 
L 232.619746 118.19037 
L 233.055232 118.355107 
L 233.490718 117.99451 
L 234.361689 117.68282 
L 234.797175 117.18346 
L 235.668146 115.980925 
L 236.103631 116.045978 
L 236.539117 117.591793 
L 236.974603 117.864405 
L 237.845574 117.867681 
L 238.28106 117.574945 
L 238.716545 117.67697 
L 239.152031 119.63416 
L 240.023002 119.935554 
L 240.458488 120.130244 
L 241.329459 119.572384 
L 241.764945 118.929815 
L 242.635916 119.330192 
L 243.071402 118.795498 
L 243.506887 118.71898 
L 244.377859 117.990064 
L 244.813344 117.852471 
L 245.24883 119.296496 
L 245.684316 119.435727 
L 246.555287 119.092914 
L 246.990772 118.783096 
L 247.426258 118.953215 
L 247.861744 118.653459 
L 248.297229 119.790239 
L 248.732715 119.943276 
L 249.603686 119.774327 
L 250.474658 119.448831 
L 251.781115 118.881611 
L 252.2166 118.801582 
L 252.652086 115.566742 
L 253.523057 115.510114 
L 253.958543 115.632029 
L 254.829514 115.370883 
L 255.265 115.630625 
L 255.700485 116.082014 
L 256.135971 115.912597 
L 256.571457 115.531408 
L 257.006942 115.718142 
L 257.442428 114.801791 
L 257.877914 114.517245 
L 258.313399 113.714151 
L 258.748885 113.757441 
L 259.18437 114.784007 
L 260.055342 113.905564 
L 260.490827 113.273058 
L 260.926313 111.545891 
L 261.797284 110.716121 
L 262.23277 110.508327 
L 262.668256 110.498031 
L 263.103741 110.730863 
L 263.539227 110.279006 
L 263.974712 110.059044 
L 264.845684 110.004288 
L 265.281169 110.065362 
L 265.716655 110.289536 
L 266.587626 110.07285 
L 267.023112 110.321828 
L 267.458598 109.291051 
L 268.329569 108.575941 
L 269.20054 105.849821 
L 269.636026 106.16198 
L 270.071511 105.392816 
L 270.506997 103.414332 
L 270.942483 103.458792 
L 271.813454 103.893567 
L 272.24894 103.877187 
L 272.684425 104.02414 
L 273.555397 103.892631 
L 273.990882 103.473768 
L 274.426368 102.630894 
L 275.297339 102.468965 
L 275.732825 102.61662 
L 276.16831 102.316162 
L 276.603796 101.458311 
L 277.474767 101.435145 
L 277.910253 99.64199 
L 278.345739 99.025629 
L 278.781224 96.317762 
L 279.21671 96.213163 
L 280.523167 96.708076 
L 281.394138 96.444825 
L 281.829624 96.544275 
L 282.265109 96.175021 
L 282.700595 96.167299 
L 283.136081 96.015431 
L 284.007052 95.317638 
L 284.442538 95.469271 
L 286.18448 95.540174 
L 286.619966 95.147051 
L 287.055451 95.071001 
L 287.490937 95.672385 
L 287.926423 95.427385 
L 288.361908 95.740245 
L 288.797394 95.483312 
L 289.668365 94.842147 
L 290.103851 94.637863 
L 290.539337 94.265099 
L 290.974822 94.430538 
L 291.410308 95.015074 
L 291.845794 95.368183 
L 292.281279 95.393455 
L 292.716765 95.096273 
L 293.587736 93.824005 
L 294.023222 92.902039 
L 294.458707 93.047588 
L 294.894193 92.338095 
L 295.329679 91.887875 
L 295.765164 91.682188 
L 296.20065 89.125251 
L 296.636136 88.454134 
L 297.507107 88.898503 
L 298.813564 88.902949 
L 299.249049 89.333279 
L 300.120021 88.72698 
L 300.555506 88.121852 
L 300.990992 88.886101 
L 301.861963 88.869253 
L 302.297449 88.561073 
L 302.732935 87.68731 
L 303.16842 88.693518 
L 303.603906 88.14806 
L 304.039391 88.370361 
L 304.474877 87.698777 
L 305.345848 86.823142 
L 305.781334 86.74873 
L 306.21682 86.505602 
L 306.652305 86.52128 
L 307.087791 86.719011 
L 307.523277 86.594055 
L 307.958762 86.657469 
L 308.394248 86.918849 
L 308.829734 86.633835 
L 309.265219 86.836714 
L 309.700705 86.911127 
L 310.13619 86.529002 
L 310.571676 86.48384 
L 311.007162 88.053523 
L 311.878133 87.957348 
L 312.313619 87.03468 
L 312.749104 86.917211 
L 313.18459 87.022512 
L 313.620076 86.792254 
L 314.055561 86.22831 
L 314.491047 86.180105 
L 314.926532 86.389069 
L 315.362018 86.797168 
L 315.797504 86.658639 
L 316.232989 86.971499 
L 316.668475 86.979221 
L 317.103961 87.174379 
L 317.539446 87.494727 
L 317.974932 86.752006 
L 318.410418 86.867134 
L 319.281389 87.342392 
L 319.716875 87.193333 
L 320.15236 87.360878 
L 320.587846 87.93114 
L 321.023331 87.227965 
L 321.458817 86.204676 
L 321.894303 85.797513 
L 322.329788 84.492719 
L 322.765274 83.723087 
L 323.20076 83.80218 
L 323.636245 83.714195 
L 324.071731 84.090002 
L 324.507217 84.057242 
L 324.942702 83.816922 
L 325.378188 83.934625 
L 325.813674 83.214836 
L 326.249159 83.321775 
L 326.684645 84.240933 
L 327.12013 83.890399 
L 327.555616 83.947261 
L 327.991102 84.505121 
L 328.426587 84.180093 
L 328.862073 84.626802 
L 329.297559 84.749419 
L 329.733044 84.392332 
L 330.16853 83.811072 
L 331.474987 82.96188 
L 331.910472 83.235662 
L 332.781444 83.316393 
L 333.652415 82.670782 
L 334.523386 83.382147 
L 334.958872 83.444859 
L 336.265329 84.144525 
L 337.1363 83.439945 
L 337.571786 86.208888 
L 338.007271 85.909599 
L 338.878243 84.914624 
L 339.749214 84.411755 
L 340.1847 83.437839 
L 341.491157 83.631359 
L 341.926642 83.402271 
L 342.362128 84.731401 
L 342.797614 85.157986 
L 343.233099 85.768964 
L 344.10407 85.061109 
L 344.975042 85.139968 
L 345.410527 85.756796 
L 345.846013 86.73469 
L 346.281499 86.722287 
L 346.716984 86.959799 
L 347.15247 86.655831 
L 347.587956 86.656767 
L 348.023441 86.057021 
L 348.458927 86.184084 
L 349.329898 86.27511 
L 349.765384 86.720181 
L 350.200869 86.605521 
L 350.636355 86.660277 
L 351.071841 86.331271 
L 351.942812 86.809804 
L 352.378298 87.330224 
L 353.249269 86.395621 
L 353.684755 87.308696 
L 354.555726 86.713863 
L 354.991211 85.717718 
L 355.426697 86.705439 
L 355.862183 86.686017 
L 356.297668 86.793658 
L 356.733154 86.019814 
L 357.16864 84.250527 
L 357.604125 84.33313 
L 358.475097 84.750589 
L 358.910582 84.672666 
L 359.346068 85.65992 
L 359.781554 85.895559 
L 360.217039 85.238249 
L 360.652525 85.142074 
L 361.08801 84.578832 
L 361.523496 84.824768 
L 361.958982 85.296281 
L 362.394467 84.625866 
L 362.829953 85.725908 
L 363.265439 85.046835 
L 363.700924 86.729775 
L 364.571896 84.962829 
L 365.007381 84.184539 
L 365.442867 82.935438 
L 366.313838 82.079459 
L 366.749324 82.030553 
L 367.184809 82.69816 
L 367.620295 82.132344 
L 368.055781 81.922444 
L 368.926752 82.170252 
L 369.362238 82.028681 
L 369.797723 81.685167 
L 370.233209 80.903601 
L 370.668695 80.501352 
L 371.539666 79.176668 
L 371.975151 73.375064 
L 372.410637 72.24156 
L 372.846123 72.02581 
L 373.281608 71.050959 
L 374.15258 70.11542 
L 374.588065 68.75353 
L 375.023551 66.750709 
L 375.894522 67.099372 
L 376.765494 67.035255 
L 377.200979 66.991965 
L 377.636465 66.626922 
L 378.07195 66.888302 
L 378.507436 66.623178 
L 378.942922 67.466755 
L 379.378407 66.60867 
L 379.813893 66.775514 
L 380.249379 66.403919 
L 380.684864 65.359803 
L 381.12035 67.248197 
L 381.555836 67.025193 
L 381.991321 65.180558 
L 382.426807 64.541967 
L 382.862293 62.321993 
L 383.297778 61.619754 
L 383.733264 60.694979 
L 384.168749 60.465657 
L 384.604235 59.117574 
L 385.039721 59.077793 
L 385.475206 59.958108 
L 385.910692 59.590257 
L 386.346178 58.995425 
L 386.781663 59.003615 
L 387.217149 56.95142 
L 387.652635 57.327694 
L 388.08812 55.866822 
L 388.523606 55.369802 
L 388.959091 54.602744 
L 389.394577 53.432034 
L 389.830063 53.730854 
L 390.265548 53.559331 
L 391.572005 50.821979 
L 392.007491 49.749315 
L 392.442977 49.308924 
L 392.878462 48.477048 
L 393.313948 48.569478 
L 393.749434 47.615219 
L 394.184919 47.862325 
L 395.05589 47.670912 
L 395.491376 47.665998 
L 395.926862 46.741925 
L 396.362347 46.969843 
L 396.797833 46.335464 
L 397.233319 46.341314 
L 397.668804 45.839614 
L 398.539776 43.549908 
L 398.975261 42.953905 
L 399.410747 42.161341 
L 399.846233 41.028305 
L 400.281718 38.365132 
L 401.152689 34.990125 
L 401.588175 35.332938 
L 402.023661 35.282861 
L 402.023661 35.282861 
" clip-path="url(#p0535b2a751)" style="fill: none; stroke: #9467bd; stroke-opacity: 0.8; stroke-width: 1.5; stroke-linecap: square"/>
   </g>
   <g id="patch_3">
    <path d="M 61.909375 288.430125 
L 61.909375 22.318125 
" style="fill: none; stroke: #000000; stroke-width: 0.8; stroke-linejoin: miter; stroke-linecap: square"/>
   </g>
   <g id="patch_4">
    <path d="M 419.029375 288.430125 
L 419.029375 22.318125 
" style="fill: none; stroke: #000000; stroke-width: 0.8; stroke-linejoin: miter; stroke-linecap: square"/>
   </g>
   <g id="patch_5">
    <path d="M 61.909375 288.430125 
L 419.029375 288.430125 
" style="fill: none; stroke: #000000; stroke-width: 0.8; stroke-linejoin: miter; stroke-linecap: square"/>
   </g>
   <g id="patch_6">
    <path d="M 61.909375 22.318125 
L 419.029375 22.318125 
" style="fill: none; stroke: #000000; stroke-width: 0.8; stroke-linejoin: miter; stroke-linecap: square"/>
   </g>
   <g id="text_19">
    <!-- Get siblings [leaf] -->
    <g transform="translate(187.460313 16.318125) scale(0.12 -0.12)">
     <defs>
      <path id="DejaVuSans-47" d="M 3809 666 
L 3809 1919 
L 2778 1919 
L 2778 2438 
L 4434 2438 
L 4434 434 
Q 4069 175 3628 42 
Q 3188 -91 2688 -91 
Q 1594 -91 976 548 
Q 359 1188 359 2328 
Q 359 3472 976 4111 
Q 1594 4750 2688 4750 
Q 3144 4750 3555 4637 
Q 3966 4525 4313 4306 
L 4313 3634 
Q 3963 3931 3569 4081 
Q 3175 4231 2741 4231 
Q 1884 4231 1454 3753 
Q 1025 3275 1025 2328 
Q 1025 1384 1454 906 
Q 1884 428 2741 428 
Q 3075 428 3337 486 
Q 3600 544 3809 666 
z
" transform="scale(0.015625)"/>
      <path id="DejaVuSans-67" d="M 2906 1791 
Q 2906 2416 2648 2759 
Q 2391 3103 1925 3103 
Q 1463 3103 1205 2759 
Q 947 2416 947 1791 
Q 947 1169 1205 825 
Q 1463 481 1925 481 
Q 2391 481 2648 825 
Q 2906 1169 2906 1791 
z
M 3481 434 
Q 3481 -459 3084 -895 
Q 2688 -1331 1869 -1331 
Q 1566 -1331 1297 -1286 
Q 1028 -1241 775 -1147 
L 775 -588 
Q 1028 -725 1275 -790 
Q 1522 -856 1778 -856 
Q 2344 -856 2625 -561 
Q 2906 -266 2906 331 
L 2906 616 
Q 2728 306 2450 153 
Q 2172 0 1784 0 
Q 1141 0 747 490 
Q 353 981 353 1791 
Q 353 2603 747 3093 
Q 1141 3584 1784 3584 
Q 2172 3584 2450 3431 
Q 2728 3278 2906 2969 
L 2906 3500 
L 3481 3500 
L 3481 434 
z
" transform="scale(0.015625)"/>
      <path id="DejaVuSans-5b" d="M 550 4863 
L 1875 4863 
L 1875 4416 
L 1125 4416 
L 1125 -397 
L 1875 -397 
L 1875 -844 
L 550 -844 
L 550 4863 
z
" transform="scale(0.015625)"/>
      <path id="DejaVuSans-5d" d="M 1947 4863 
L 1947 -844 
L 622 -844 
L 622 -397 
L 1369 -397 
L 1369 4416 
L 622 4416 
L 622 4863 
L 1947 4863 
z
" transform="scale(0.015625)"/>
     </defs>
     <use xlink:href="#DejaVuSans-47"/>
     <use xlink:href="#DejaVuSans-65" transform="translate(77.490234 0)"/>
     <use xlink:href="#DejaVuSans-74" transform="translate(139.013672 0)"/>
     <use xlink:href="#DejaVuSans-20" transform="translate(178.222656 0)"/>
     <use xlink:href="#DejaVuSans-73" transform="translate(210.009766 0)"/>
     <use xlink:href="#DejaVuSans-69" transform="translate(262.109375 0)"/>
     <use xlink:href="#DejaVuSans-62" transform="translate(289.892578 0)"/>
     <use xlink:href="#DejaVuSans-6c" transform="translate(353.369141 0)"/>
     <use xlink:href="#DejaVuSans-69" transform="translate(381.152344 0)"/>
     <use xlink:href="#DejaVuSans-6e" transform="translate(408.935547 0)"/>
     <use xlink:href="#DejaVuSans-67" transform="translate(472.314453 0)"/>
     <use xlink:href="#DejaVuSans-73" transform="translate(535.791016 0)"/>
     <use xlink:href="#DejaVuSans-20" transform="translate(587.890625 0)"/>
     <use xlink:href="#DejaVuSans-5b" transform="translate(619.677734 0)"/>
     <use xlink:href="#DejaVuSans-6c" transform="translate(658.691406 0)"/>
     <use xlink:href="#DejaVuSans-65" transform="translate(686.474609 0)"/>
     <use xlink:href="#DejaVuSans-61" transform="translate(747.998047 0)"/>
     <use xlink:href="#DejaVuSans-66" transform="translate(809.277344 0)"/>
     <use xlink:href="#DejaVuSans-5d" transform="translate(844.482422 0)"/>
    </g>
   </g>
   <g id="legend_1">
    <g id="patch_7">
     <path d="M 92.911719 365.802375 
L 380.507031 365.802375 
Q 382.507031 365.802375 382.507031 363.802375 
L 382.507031 335.446125 
Q 382.507031 333.446125 380.507031 333.446125 
L 92.911719 333.446125 
Q 90.911719 333.446125 90.911719 335.446125 
L 90.911719 363.802375 
Q 90.911719 365.802375 92.911719 365.802375 
z
" style="fill: #4d4d4d; opacity: 0.5; stroke: #4d4d4d; stroke-linejoin: miter"/>
    </g>
    <g id="patch_8">
     <path d="M 90.911719 363.802375 
L 378.507031 363.802375 
Q 380.507031 363.802375 380.507031 361.802375 
L 380.507031 333.446125 
Q 380.507031 331.446125 378.507031 331.446125 
L 90.911719 331.446125 
Q 88.911719 331.446125 88.911719 333.446125 
L 88.911719 361.802375 
Q 88.911719 363.802375 90.911719 363.802375 
z
" style="fill: #ffffff; stroke: #cccccc; stroke-linejoin: miter"/>
    </g>
    <g id="line2d_22">
     <path d="M 92.911719 339.544562 
L 102.911719 339.544562 
L 112.911719 339.544562 
" style="fill: none; stroke: #1f77b4; stroke-opacity: 0.8; stroke-width: 1.5; stroke-linecap: square"/>
    </g>
    <g id="text_20">
     <!-- MPTT -->
     <g transform="translate(120.911719 343.044562) scale(0.1 -0.1)">
      <defs>
       <path id="DejaVuSans-4d" d="M 628 4666 
L 1569 4666 
L 2759 1491 
L 3956 4666 
L 4897 4666 
L 4897 0 
L 4281 0 
L 4281 4097 
L 3078 897 
L 2444 897 
L 1241 4097 
L 1241 0 
L 628 0 
L 628 4666 
z
" transform="scale(0.015625)"/>
       <path id="DejaVuSans-50" d="M 1259 4147 
L 1259 2394 
L 2053 2394 
Q 2494 2394 2734 2622 
Q 2975 2850 2975 3272 
Q 2975 3691 2734 3919 
Q 2494 4147 2053 4147 
L 1259 4147 
z
M 628 4666 
L 2053 4666 
Q 2838 4666 3239 4311 
Q 3641 3956 3641 3272 
Q 3641 2581 3239 2228 
Q 2838 1875 2053 1875 
L 1259 1875 
L 1259 0 
L 628 0 
L 628 4666 
z
" transform="scale(0.015625)"/>
       <path id="DejaVuSans-54" d="M -19 4666 
L 3928 4666 
L 3928 4134 
L 2272 4134 
L 2272 0 
L 1638 0 
L 1638 4134 
L -19 4134 
L -19 4666 
z
" transform="scale(0.015625)"/>
      </defs>
      <use xlink:href="#DejaVuSans-4d"/>
      <use xlink:href="#DejaVuSans-50" transform="translate(86.279297 0)"/>
      <use xlink:href="#DejaVuSans-54" transform="translate(146.582031 0)"/>
      <use xlink:href="#DejaVuSans-54" transform="translate(205.916016 0)"/>
     </g>
    </g>
    <g id="line2d_23">
     <path d="M 92.911719 354.222687 
L 102.911719 354.222687 
L 112.911719 354.222687 
" style="fill: none; stroke: #ff7f0e; stroke-opacity: 0.8; stroke-width: 1.5; stroke-linecap: square"/>
    </g>
    <g id="text_21">
     <!-- tree -->
     <g transform="translate(120.911719 357.722687) scale(0.1 -0.1)">
      <defs>
       <path id="DejaVuSans-72" d="M 2631 2963 
Q 2534 3019 2420 3045 
Q 2306 3072 2169 3072 
Q 1681 3072 1420 2755 
Q 1159 2438 1159 1844 
L 1159 0 
L 581 0 
L 581 3500 
L 1159 3500 
L 1159 2956 
Q 1341 3275 1631 3429 
Q 1922 3584 2338 3584 
Q 2397 3584 2469 3576 
Q 2541 3569 2628 3553 
L 2631 2963 
z
" transform="scale(0.015625)"/>
      </defs>
      <use xlink:href="#DejaVuSans-74"/>
      <use xlink:href="#DejaVuSans-72" transform="translate(39.208984 0)"/>
      <use xlink:href="#DejaVuSans-65" transform="translate(78.072266 0)"/>
      <use xlink:href="#DejaVuSans-65" transform="translate(139.595703 0)"/>
     </g>
    </g>
    <g id="line2d_24">
     <path d="M 167.610156 339.544562 
L 177.610156 339.544562 
L 187.610156 339.544562 
" style="fill: none; stroke: #2ca02c; stroke-opacity: 0.8; stroke-width: 1.5; stroke-linecap: square"/>
    </g>
    <g id="text_22">
     <!-- treebeard AL -->
     <g transform="translate(195.610156 343.044562) scale(0.1 -0.1)">
      <defs>
       <path id="DejaVuSans-4c" d="M 628 4666 
L 1259 4666 
L 1259 531 
L 3531 531 
L 3531 0 
L 628 0 
L 628 4666 
z
" transform="scale(0.015625)"/>
      </defs>
      <use xlink:href="#DejaVuSans-74"/>
      <use xlink:href="#DejaVuSans-72" transform="translate(39.208984 0)"/>
      <use xlink:href="#DejaVuSans-65" transform="translate(78.072266 0)"/>
      <use xlink:href="#DejaVuSans-65" transform="translate(139.595703 0)"/>
      <use xlink:href="#DejaVuSans-62" transform="translate(201.119141 0)"/>
      <use xlink:href="#DejaVuSans-65" transform="translate(264.595703 0)"/>
      <use xlink:href="#DejaVuSans-61" transform="translate(326.119141 0)"/>
      <use xlink:href="#DejaVuSans-72" transform="translate(387.398438 0)"/>
      <use xlink:href="#DejaVuSans-64" transform="translate(426.761719 0)"/>
      <use xlink:href="#DejaVuSans-20" transform="translate(490.238281 0)"/>
      <use xlink:href="#DejaVuSans-41" transform="translate(522.025391 0)"/>
      <use xlink:href="#DejaVuSans-4c" transform="translate(590.433594 0)"/>
     </g>
    </g>
    <g id="line2d_25">
     <path d="M 167.610156 354.222687 
L 177.610156 354.222687 
L 187.610156 354.222687 
" style="fill: none; stroke: #d62728; stroke-opacity: 0.8; stroke-width: 1.5; stroke-linecap: square"/>
    </g>
    <g id="text_23">
     <!-- treebeard MP -->
     <g transform="translate(195.610156 357.722687) scale(0.1 -0.1)">
      <use xlink:href="#DejaVuSans-74"/>
      <use xlink:href="#DejaVuSans-72" transform="translate(39.208984 0)"/>
      <use xlink:href="#DejaVuSans-65" transform="translate(78.072266 0)"/>
      <use xlink:href="#DejaVuSans-65" transform="translate(139.595703 0)"/>
      <use xlink:href="#DejaVuSans-62" transform="translate(201.119141 0)"/>
      <use xlink:href="#DejaVuSans-65" transform="translate(264.595703 0)"/>
      <use xlink:href="#DejaVuSans-61" transform="translate(326.119141 0)"/>
      <use xlink:href="#DejaVuSans-72" transform="translate(387.398438 0)"/>
      <use xlink:href="#DejaVuSans-64" transform="translate(426.761719 0)"/>
      <use xlink:href="#DejaVuSans-20" transform="translate(490.238281 0)"/>
      <use xlink:href="#DejaVuSans-4d" transform="translate(522.025391 0)"/>
      <use xlink:href="#DejaVuSans-50" transform="translate(608.304688 0)"/>
     </g>
    </g>
    <g id="line2d_26">
     <path d="M 282.472656 339.544562 
L 292.472656 339.544562 
L 302.472656 339.544562 
" style="fill: none; stroke: #9467bd; stroke-opacity: 0.8; stroke-width: 1.5; stroke-linecap: square"/>
    </g>
    <g id="text_24">
     <!-- treebeard NS -->
     <g transform="translate(310.472656 343.044562) scale(0.1 -0.1)">
      <defs>
       <path id="DejaVuSans-4e" d="M 628 4666 
L 1478 4666 
L 3547 763 
L 3547 4666 
L 4159 4666 
L 4159 0 
L 3309 0 
L 1241 3903 
L 1241 0 
L 628 0 
L 628 4666 
z
" transform="scale(0.015625)"/>
       <path id="DejaVuSans-53" d="M 3425 4513 
L 3425 3897 
Q 3066 4069 2747 4153 
Q 2428 4238 2131 4238 
Q 1616 4238 1336 4038 
Q 1056 3838 1056 3469 
Q 1056 3159 1242 3001 
Q 1428 2844 1947 2747 
L 2328 2669 
Q 3034 2534 3370 2195 
Q 3706 1856 3706 1288 
Q 3706 609 3251 259 
Q 2797 -91 1919 -91 
Q 1588 -91 1214 -16 
Q 841 59 441 206 
L 441 856 
Q 825 641 1194 531 
Q 1563 422 1919 422 
Q 2459 422 2753 634 
Q 3047 847 3047 1241 
Q 3047 1584 2836 1778 
Q 2625 1972 2144 2069 
L 1759 2144 
Q 1053 2284 737 2584 
Q 422 2884 422 3419 
Q 422 4038 858 4394 
Q 1294 4750 2059 4750 
Q 2388 4750 2728 4690 
Q 3069 4631 3425 4513 
z
" transform="scale(0.015625)"/>
      </defs>
      <use xlink:href="#DejaVuSans-74"/>
      <use xlink:href="#DejaVuSans-72" transform="translate(39.208984 0)"/>
      <use xlink:href="#DejaVuSans-65" transform="translate(78.072266 0)"/>
      <use xlink:href="#DejaVuSans-65" transform="translate(139.595703 0)"/>
      <use xlink:href="#DejaVuSans-62" transform="translate(201.119141 0)"/>
      <use xlink:href="#DejaVuSans-65" transform="translate(264.595703 0)"/>
      <use xlink:href="#DejaVuSans-61" transform="translate(326.119141 0)"/>
      <use xlink:href="#DejaVuSans-72" transform="translate(387.398438 0)"/>
      <use xlink:href="#DejaVuSans-64" transform="translate(426.761719 0)"/>
      <use xlink:href="#DejaVuSans-20" transform="translate(490.238281 0)"/>
      <use xlink:href="#DejaVuSans-4e" transform="translate(522.025391 0)"/>
      <use xlink:href="#DejaVuSans-53" transform="translate(596.830078 0)"/>
     </g>
    </g>
   </g>
  </g>
 </g>
 <defs>
  <clipPath id="p0535b2a751">
   <rect x="61.909375" y="22.318125" width="357.12" height="266.112"/>
  </clipPath>
 </defs>
</svg>
